<?xml version="1.0" encoding="utf-8" standalone="no"?>
<!DOCTYPE svg PUBLIC "-//W3C//DTD SVG 1.1//EN"
  "http://www.w3.org/Graphics/SVG/1.1/DTD/svg11.dtd">
<!-- Created with matplotlib (http://matplotlib.org/) -->
<svg height="408pt" version="1.1" viewBox="0 0 621 408" width="621pt" xmlns="http://www.w3.org/2000/svg" xmlns:xlink="http://www.w3.org/1999/xlink">
 <defs>
  <style type="text/css">
*{stroke-linecap:butt;stroke-linejoin:round;}
  </style>
 </defs>
 <g id="figure_1">
  <g id="patch_1">
   <path d="
M0 408.169
L621.409 408.169
L621.409 0
L0 0
z
" style="fill:#ffffff;"/>
  </g>
  <g id="axes_1">
   <g id="patch_2">
    <path d="
M28.8194 368.742
L475.219 368.742
L475.219 23.1417
L28.8194 23.1417
z
" style="fill:#ffffff;"/>
   </g>
   <g id="line2d_1">
    <path clip-path="url(#p8c776b0f9c)" d="
M28.8194 368.214
L33.2923 366.006
L35.0815 365.047
L43.1328 361.137
L44.0274 360.552
L46.7112 359.265
L50.2895 357.425
L52.0787 356.674
L53.8679 355.735
L54.7625 354.573
L71.7597 346.737
L73.5488 345.823
L76.2326 344.613
L78.9164 343.179
L79.811 342.753
L80.7055 342.172
L81.6001 341.737
L82.4947 341.156
L90.546 337.19
L93.2298 335.714
L95.9136 334.368
L97.7027 333.415
L103.965 330.305
L106.649 328.792
L110.227 326.974
L112.016 326.048
L115.595 324.248
L117.384 323.306
L120.067 321.957
L121.857 321.041
L128.119 317.961
L130.803 316.571
L135.275 314.331
L137.065 313.341
L138.854 312.382
L161.219 301.401
L163.902 300.023
L168.375 297.733
L169.27 296.835
L174.637 294.156
L192.529 285.174
L194.318 284.214
L220.261 271.69
L222.051 270.698
L227.418 268.113
L229.207 267.192
L230.102 266.765
L230.997 266.179
L239.942 261.708
L240.837 261.141
L243.521 259.729
L248.888 257.082
L255.15 254.168
L256.94 253.265
L263.202 250.435
L271.253 246.634
L273.042 245.835
L273.937 245.287
L275.726 244.508
L277.515 243.598
L280.199 242.329
L281.094 241.941
L283.777 240.443
L286.461 239.172
L287.356 238.781
L289.145 237.847
L296.302 234.685
L298.091 233.8
L305.247 230.536
L307.931 229.241
L310.615 227.989
L313.299 226.742
L314.193 226.377
L315.983 225.44
L330.296 219.202
L336.558 216.236
L338.347 215.505
L339.242 214.917
L342.82 213.473
L350.871 209.801
L353.555 208.627
L358.923 206.318
L360.712 205.441
L364.29 203.931
L367.869 202.39
L374.131 199.756
L377.709 198.242
L386.655 194.499
L388.444 193.711
L390.233 192.97
L391.128 192.34
L394.706 190.853
L395.601 190.223
L399.179 188.772
L400.074 188.208
L403.652 186.75
L404.547 186.277
L408.125 184.905
L409.02 184.305
L413.493 182.453
L415.282 181.497
L417.966 180.358
L418.86 179.88
L422.439 178.534
L424.228 177.711
L426.912 176.633
L428.701 175.741
L431.385 174.655
L433.174 173.853
L440.33 170.787
L444.803 168.873
L445.698 168.096
L447.487 167.303
L449.276 166.532
L450.171 165.118
L451.96 164.284
L453.749 163.511
L454.644 162.435
L458.222 161.022
L459.117 160.299
L462.695 158.725
L463.59 158.105
L467.168 156.44
L468.063 155.707
L469.852 154.901
L472.536 153.491
L475.219 152.328
L475.219 152.328" style="fill:none;stroke:#0000ff;stroke-linecap:square;"/>
   </g>
   <g id="line2d_2">
    <path clip-path="url(#p8c776b0f9c)" d="
M28.8194 368.616
L31.5031 367.638
L40.449 364.427
L52.9733 360.003
L53.8679 359.378
L68.1813 354.029
L73.5488 351.925
L75.338 351.229
L78.0218 350.205
L83.3893 348.199
L88.7568 346.166
L90.546 345.505
L93.2298 344.377
L103.965 340.321
L108.438 338.58
L111.122 337.551
L112.911 336.835
L116.489 335.494
L117.384 335.048
L127.224 331.437
L129.013 330.695
L132.592 329.423
L133.486 328.934
L137.065 327.593
L137.959 327.123
L146.905 323.883
L149.589 322.705
L162.113 318.104
L169.27 315.526
L180.005 311.572
L181.794 310.862
L198.791 304.67
L200.58 303.994
L211.316 300.124
L243.521 288.291
L250.677 285.61
L252.467 284.909
L259.623 282.338
L262.307 281.178
L265.886 279.807
L267.675 279.004
L271.253 277.687
L273.042 276.935
L273.937 276.526
L275.726 275.951
L277.515 275.256
L281.988 273.704
L284.672 272.786
L310.615 264.244
L314.193 263.089
L329.401 257.925
L331.191 257.325
L332.98 256.671
L337.453 255.27
L339.242 254.695
L342.82 253.578
L345.504 252.725
L357.134 248.959
L359.817 248.057
L361.607 247.553
L362.501 247.108
L366.974 245.804
L367.869 245.327
L371.447 244.298
L372.342 243.884
L376.815 242.608
L377.709 242.122
L395.601 236.646
L400.968 234.908
L401.863 234.628
L402.758 234.231
L406.336 233.14
L407.231 232.566
L412.598 230.903
L415.282 230.037
L430.49 224.947
L445.698 219.733
L449.276 218.522
L450.171 218.257
L452.855 217.208
L455.538 216.261
L459.117 214.748
L460.011 214.397
L460.906 213.917
L464.484 212.79
L465.379 212.226
L469.852 210.744
L470.746 210.153
L474.325 209.052
L475.219 208.219
L475.219 208.219" style="fill:none;stroke:#008000;stroke-linecap:square;"/>
   </g>
   <g id="line2d_3">
    <path clip-path="url(#p8c776b0f9c)" d="
M28.8194 368.625
L29.714 367.722
L31.5031 366.631
L33.2923 365.182
L35.0815 363.673
L36.8707 362.633
L37.7653 361.947
L39.5544 360.872
L41.3436 359.637
L43.1328 358.247
L52.9733 350.962
L53.8679 349.387
L55.6571 348.217
L56.5516 347.23
L66.3921 340.13
L67.2867 339.271
L70.8651 336.708
L77.1272 332.268
L78.0218 331.455
L80.7055 329.533
L86.9677 324.751
L89.6514 322.918
L90.546 322.257
L91.4406 321.431
L95.9136 318.283
L96.8082 317.53
L98.5973 316.306
L100.387 314.978
L101.281 314.387
L103.07 312.986
L103.965 312.379
L104.859 311.536
L117.384 302.004
L118.278 301.266
L120.067 300.068
L122.751 298.028
L129.013 293.572
L135.275 288.944
L137.065 287.713
L137.959 286.965
L138.854 286.379
L140.643 284.893
L141.538 284.283
L142.432 283.535
L144.221 282.331
L146.011 280.906
L149.589 278.309
L151.378 276.819
L152.273 276.227
L153.167 275.438
L154.956 274.161
L156.746 272.742
L161.219 269.606
L163.902 267.501
L164.797 266.889
L166.586 265.406
L169.27 263.55
L173.743 260.211
L176.427 257.975
L179.11 256.027
L181.794 253.899
L186.267 250.822
L187.162 250.023
L188.951 248.813
L189.845 248.015
L191.635 246.684
L198.791 241.242
L199.686 240.634
L200.58 239.869
L202.37 238.671
L203.264 237.921
L205.053 236.761
L205.948 235.914
L208.632 234.055
L222.945 223.487
L223.84 222.92
L227.418 220.019
L229.207 218.816
L231.891 216.85
L232.786 216.214
L233.68 215.421
L234.575 214.844
L235.469 214
L237.259 212.801
L238.153 212.01
L240.837 210.225
L245.31 207.168
L249.783 203.562
L250.677 202.94
L251.572 202.141
L256.94 198.667
L259.623 196.637
L260.518 195.911
L263.202 194.129
L268.569 190.175
L270.358 188.662
L272.148 187.366
L273.042 186.529
L275.726 184.589
L279.304 181.91
L281.988 180.217
L282.883 179.349
L285.566 177.584
L289.145 175.025
L292.723 172.514
L293.618 171.6
L295.407 170.493
L296.302 169.79
L298.091 168.672
L304.353 164.277
L306.142 163.029
L315.088 156.462
L315.983 155.731
L316.877 154.813
L325.823 148.702
L328.507 146.901
L330.296 145.696
L332.085 144.359
L332.98 143.628
L334.769 142.439
L336.558 141.045
L339.242 139.197
L340.136 138.119
L352.661 129.41
L354.45 128.038
L355.344 127.505
L357.134 126.215
L358.028 125.65
L358.923 124.853
L359.817 124.222
L361.607 122.699
L363.396 121.373
L364.29 120.508
L365.185 119.865
L367.869 117.631
L371.447 114.848
L375.92 111.656
L377.709 110.21
L378.604 109.528
L379.498 108.643
L381.288 107.225
L382.182 106.329
L383.971 104.968
L384.866 104.142
L386.655 102.763
L387.55 101.75
L391.128 99.2864
L392.023 98.7674
L392.917 97.9388
L393.812 97.4201
L395.601 96.1008
L397.39 94.8912
L399.179 93.7945
L400.074 92.9452
L400.968 92.4029
L403.652 90.3699
L404.547 89.8518
L406.336 88.3979
L409.914 85.9122
L410.809 84.8829
L412.598 83.5834
L413.493 82.7048
L415.282 81.4387
L416.176 80.6352
L417.966 79.4054
L419.755 77.9078
L421.544 76.6377
L422.439 75.9437
L423.333 75.0105
L424.228 74.423
L427.806 71.2694
L428.701 70.3824
L430.49 69.0605
L431.385 68.2541
L432.279 67.6349
L433.174 66.7651
L434.963 65.4057
L441.225 59.6774
L442.12 59.0006
L444.803 56.5555
L445.698 55.2566
L447.487 53.7763
L449.276 52.0944
L450.171 51.3341
L452.855 48.6009
L454.644 47.3107
L455.538 46.8355
L456.433 46.0925
L457.328 45.6057
L458.222 44.5747
L459.117 44.1053
L460.011 43.4861
L460.906 42.5817
L467.168 38.5526
L468.063 37.6051
L470.746 36.0413
L475.219 33.2707
L475.219 33.2707" style="fill:none;stroke:#ff0000;stroke-linecap:square;"/>
   </g>
   <g id="line2d_4">
    <path clip-path="url(#p8c776b0f9c)" d="
M28.8194 368.642
L29.714 366.8
L31.5031 365.814
L32.3977 365.025
L33.2923 364.499
L35.0815 363.053
L37.7653 361.197
L38.6599 360.433
L40.449 359.358
L42.2382 358.267
L43.1328 357.487
L44.922 356.328
L48.5003 353.474
L51.1841 351.647
L52.9733 350.368
L53.8679 349.403
L59.2354 346.076
L63.7084 342.753
L67.2867 340.6
L69.9705 338.64
L75.338 335.026
L76.2326 334.52
L78.0218 333.159
L79.811 331.91
L82.4947 330.181
L86.0731 327.934
L95.019 321.935
L98.5973 319.824
L99.4919 319.065
L103.965 316.45
L104.859 315.901
L105.754 315.205
L107.543 314.114
L109.332 312.822
L111.122 311.566
L112.911 310.508
L113.805 309.821
L115.595 308.735
L116.489 307.929
L118.278 306.852
L120.067 305.606
L125.435 302.254
L126.33 301.483
L130.803 298.437
L131.697 297.773
L132.592 297.272
L133.486 296.585
L135.275 295.489
L137.065 294.212
L138.854 292.86
L141.538 290.905
L144.221 289.414
L146.905 287.663
L151.378 284.686
L153.167 283.319
L156.746 281.02
L159.429 279.254
L161.219 278.059
L163.008 276.863
L164.797 275.541
L166.586 274.237
L169.27 272.347
L171.059 271.29
L173.743 269.472
L177.321 267.043
L178.216 266.229
L183.583 262.733
L185.372 261.224
L188.056 259.301
L189.845 258.085
L208.632 245.632
L210.421 244.648
L212.21 243.311
L215.789 241.109
L217.578 239.977
L221.156 237.879
L222.945 236.649
L224.734 235.518
L226.524 234.346
L229.207 232.647
L230.102 232.023
L230.997 230.963
L236.364 227.598
L238.153 226.407
L241.732 224.077
L242.626 223.283
L244.415 222.123
L247.099 220.179
L247.994 219.359
L252.467 216.28
L254.256 214.97
L255.15 214.426
L256.045 213.7
L256.94 213.136
L258.729 211.637
L259.623 211.012
L261.413 209.596
L264.096 207.859
L265.886 206.684
L266.78 206.197
L267.675 205.368
L268.569 204.877
L269.464 204.112
L273.042 201.738
L273.937 201.025
L275.726 199.898
L277.515 198.725
L285.566 193.324
L289.145 190.365
L293.618 187.413
L294.512 186.537
L296.302 185.373
L297.196 184.565
L298.985 183.37
L300.774 181.999
L301.669 181.448
L302.564 180.676
L304.353 179.419
L309.72 175.613
L310.615 174.981
L311.51 174.196
L313.299 173.024
L316.877 170.417
L318.666 169.053
L324.034 165.32
L327.612 162.825
L329.401 161.754
L333.874 158.826
L334.769 158.329
L335.663 157.585
L340.136 155.046
L341.926 153.685
L342.82 153.189
L344.609 152
L345.504 151.518
L347.293 150.374
L348.188 149.889
L349.082 149.095
L353.555 146.164
L354.45 145.421
L356.239 144.281
L357.134 143.587
L358.923 142.46
L372.342 132.905
L374.131 131.671
L375.92 130.456
L376.815 129.614
L379.498 128.042
L381.288 126.948
L382.182 126.12
L383.971 124.91
L386.655 123.161
L389.339 121.526
L390.233 120.721
L396.496 116.577
L399.179 114.827
L400.968 113.623
L404.547 111.182
L407.231 109.017
L408.125 108.466
L409.02 107.619
L411.704 105.651
L413.493 104.626
L419.755 100.561
L421.544 99.5525
L423.333 98.1626
L424.228 97.6148
L425.122 96.7632
L426.912 95.7774
L428.701 94.5349
L429.595 94.0785
L430.49 93.3913
L432.279 92.2378
L433.174 91.5544
L434.963 90.5188
L437.647 88.5923
L439.436 87.519
L442.12 85.8353
L443.014 84.9301
L444.803 83.8046
L445.698 83.0861
L450.171 80.2694
L451.065 79.512
L452.855 78.3715
L454.644 77.2224
L455.538 76.7501
L456.433 75.8659
L457.328 75.3619
L460.011 73.4006
L460.906 72.8505
L461.801 72.0441
L462.695 71.5401
L463.59 70.8029
L464.484 69.8841
L465.379 69.3283
L466.273 68.5709
L468.063 67.416
L468.957 66.4339
L470.746 65.4317
L471.641 64.6569
L474.325 62.9491
L475.219 62.4451
L475.219 62.4451" style="fill:none;stroke:#00bfbf;stroke-linecap:square;"/>
   </g>
   <g id="line2d_5">
    <path clip-path="url(#p8c776b0f9c)" d="
M28.8194 368.647
L35.0815 364.974
L52.0787 354.777
L52.9733 354.251
L53.8679 352.863
L55.6571 351.64
L58.3408 349.987
L59.2354 349.508
L60.13 348.866
L62.8138 347.248
L65.4975 345.73
L66.3921 345.039
L68.1813 343.946
L78.9164 337.267
L80.7055 336.221
L81.6001 335.575
L83.3893 334.439
L84.2839 333.668
L86.9677 332.07
L89.6514 330.572
L91.4406 329.355
L102.176 323.169
L103.965 322.057
L106.649 320.478
L109.332 318.891
L111.122 317.666
L113.805 316.091
L115.595 314.977
L116.489 314.469
L117.384 313.829
L122.751 310.758
L128.119 307.407
L131.697 305.322
L136.17 302.298
L137.065 301.805
L139.748 299.968
L140.643 299.475
L141.538 298.823
L143.327 297.753
L145.116 296.61
L146.905 295.629
L147.8 294.936
L149.589 293.92
L150.484 293.188
L153.167 291.576
L154.062 291.007
L154.956 290.297
L155.851 289.777
L156.746 289.066
L162.113 286.048
L163.902 284.956
L167.481 282.751
L169.27 281.544
L170.164 281.047
L171.954 279.732
L173.743 278.665
L178.216 275.861
L185.372 271.785
L188.056 270.181
L191.635 268.139
L193.424 266.91
L195.213 265.853
L197.897 264.286
L198.791 263.664
L200.58 262.704
L201.475 261.962
L204.159 260.402
L205.053 259.682
L207.737 258.145
L214.894 253.667
L215.789 253.192
L216.683 252.458
L220.261 250.382
L221.156 249.882
L222.051 249.115
L237.259 240.522
L239.048 239.469
L241.732 237.964
L251.572 231.978
L256.94 228.732
L257.834 228.242
L259.623 227.105
L264.991 223.843
L266.78 222.81
L267.675 222.104
L269.464 221.109
L271.253 219.978
L275.726 217.129
L276.621 216.367
L286.461 210.482
L292.723 206.864
L294.512 205.855
L297.196 203.985
L298.985 202.867
L300.774 201.685
L303.458 200.191
L307.037 197.976
L307.931 197.517
L309.72 196.397
L311.51 195.466
L312.404 194.811
L314.193 193.872
L315.088 193.198
L318.666 191.118
L323.139 188.337
L324.034 187.552
L325.823 186.503
L326.718 185.81
L332.085 182.734
L332.98 182.026
L334.769 181.097
L335.663 180.149
L341.031 177.093
L341.926 176.393
L343.715 175.432
L346.399 173.865
L349.082 172.414
L358.028 167.484
L360.712 165.911
L367.869 161.968
L373.236 158.901
L375.025 157.863
L389.339 149.264
L398.285 143.519
L399.179 143.091
L400.074 142.482
L401.863 141.527
L402.758 140.747
L408.125 137.674
L409.02 137
L412.598 135.122
L416.176 132.977
L419.755 131.129
L423.333 129.089
L425.122 128.156
L428.701 126.057
L430.49 125.171
L434.068 123.083
L435.857 121.998
L436.752 121.517
L437.647 120.882
L439.436 119.97
L444.803 116.741
L445.698 116.031
L447.487 114.908
L449.276 113.704
L451.065 112.806
L451.96 112.089
L453.749 111.199
L454.644 110.558
L456.433 109.579
L457.328 108.869
L459.117 107.933
L460.011 107.087
L461.801 106.174
L468.063 102.128
L469.852 101.213
L471.641 100.077
L473.43 99.1542
L475.219 98.0877
L475.219 98.0877" style="fill:none;stroke:#bf00bf;stroke-linecap:square;"/>
   </g>
   <g id="line2d_6">
    <path clip-path="url(#p8c776b0f9c)" d="
M28.8194 368.391
L39.5544 362.59
L47.6057 358.129
L48.5003 357.707
L51.1841 356.088
L52.9733 355.061
L53.8679 353.805
L55.6571 352.918
L56.5516 352.29
L61.9192 349.453
L64.6029 347.931
L67.2867 346.471
L70.8651 344.529
L79.811 339.425
L82.4947 338.026
L84.2839 336.926
L88.7568 334.508
L93.2298 331.774
L97.7027 329.382
L103.965 325.899
L104.859 325.264
L105.754 324.809
L106.649 324.177
L109.332 322.811
L110.227 322.153
L113.805 320.268
L120.962 316.23
L122.751 315.321
L123.646 314.682
L126.33 313.245
L130.803 310.862
L133.486 309.289
L136.17 307.869
L137.959 306.718
L142.432 304.429
L145.116 302.829
L147.8 301.41
L149.589 300.466
L150.484 299.804
L153.167 298.376
L160.324 294.501
L163.008 293.057
L175.532 286.487
L178.216 284.894
L180.005 284.002
L181.794 282.99
L183.583 282.005
L188.056 279.709
L195.213 275.727
L196.108 275.286
L197.897 274.18
L198.791 273.732
L200.58 272.687
L203.264 271.276
L211.316 266.709
L212.21 266.267
L213.105 265.544
L219.367 262.341
L220.261 261.747
L222.945 260.334
L224.734 259.356
L225.629 258.898
L227.418 257.682
L230.102 256.319
L248.888 245.983
L251.572 244.438
L252.467 244.009
L253.361 243.392
L259.623 240.321
L260.518 239.704
L262.307 238.758
L283.777 227.062
L285.566 226.223
L286.461 225.496
L288.25 224.602
L289.145 224.017
L291.829 222.7
L292.723 221.992
L298.091 219.363
L298.985 218.734
L305.247 215.671
L306.142 214.946
L308.826 213.562
L311.51 212.273
L312.404 211.602
L316.877 209.23
L317.772 208.816
L319.561 207.784
L324.034 205.537
L325.823 204.471
L331.191 201.759
L332.085 201.153
L333.874 200.214
L334.769 199.51
L336.558 198.542
L340.136 196.577
L346.399 192.976
L347.293 192.551
L348.188 191.975
L350.871 190.634
L352.661 189.537
L353.555 189.107
L354.45 187.981
L369.658 180.06
L371.447 179.108
L373.236 178.246
L374.131 177.583
L376.815 176.157
L377.709 175.576
L379.498 174.661
L381.288 173.581
L383.077 172.725
L383.971 171.868
L385.76 170.985
L387.55 169.662
L392.917 166.94
L393.812 166.243
L399.179 163.611
L400.074 162.879
L401.863 162.042
L403.652 161.031
L405.441 160.202
L406.336 159.528
L408.125 158.685
L410.809 157.388
L412.598 156.541
L413.493 155.782
L415.282 154.869
L416.176 154.307
L417.966 153.5
L420.649 151.866
L421.544 151.473
L423.333 150.472
L425.122 149.58
L426.017 148.82
L427.806 147.873
L430.49 146.346
L436.752 143.083
L441.225 140.476
L443.909 139.111
L444.803 138.33
L448.382 136.478
L450.171 135.719
L451.065 135.041
L456.433 132.466
L458.222 131.381
L460.011 130.523
L462.695 129.236
L463.59 128.477
L465.379 127.527
L467.168 126.583
L474.325 122.818
L475.219 122.068
L475.219 122.068" style="fill:none;stroke:#bfbf00;stroke-linecap:square;"/>
   </g>
   <g id="line2d_7">
    <path clip-path="url(#p8c776b0f9c)" d="
M28.8194 368.732
L29.714 367.129
L45.8166 359.644
L48.5003 358.23
L54.7625 355.299
L57.4462 353.949
L59.2354 353.187
L60.13 352.614
L61.0246 352.227
L63.7084 350.795
L72.6542 346.72
L75.338 345.409
L81.6001 342.55
L86.9677 339.79
L90.546 338.051
L93.2298 336.65
L95.019 335.583
L96.8082 334.73
L97.7027 334.056
L102.176 331.811
L104.859 330.479
L110.227 327.946
L111.122 327.413
L115.595 325.323
L118.278 323.866
L122.751 321.597
L125.435 320.167
L130.803 317.645
L132.592 316.688
L144.221 310.904
L148.694 308.751
L168.375 298.849
L170.164 297.942
L172.848 296.58
L175.532 295.245
L192.529 287.334
L196.108 285.634
L197.897 284.812
L198.791 284.219
L201.475 283.015
L202.37 282.628
L203.264 282.056
L205.948 280.813
L206.843 280.243
L209.526 279.043
L210.421 278.468
L215.789 276.065
L217.578 275.188
L229.207 269.99
L230.997 269.143
L232.786 268.365
L233.68 267.816
L237.259 266.073
L239.048 265.208
L239.942 264.797
L240.837 264.25
L243.521 262.976
L244.415 262.398
L247.099 261.237
L248.888 260.311
L253.361 258.286
L259.623 255.506
L264.991 253.038
L265.886 252.664
L267.675 251.739
L269.464 250.968
L271.253 249.93
L273.042 249.139
L274.831 248.018
L275.726 247.637
L277.515 246.544
L280.199 245.329
L281.094 244.789
L285.566 242.763
L287.356 241.898
L298.985 236.74
L300.774 235.89
L302.564 235.104
L304.353 234.22
L306.142 233.421
L307.931 232.553
L309.72 231.794
L310.615 231.036
L314.193 229.406
L315.088 228.781
L317.772 227.508
L318.666 226.948
L325.823 223.616
L332.085 220.947
L333.874 220.088
L335.663 219.348
L336.558 218.826
L342.82 216.14
L343.715 215.595
L347.293 213.939
L349.977 212.709
L350.871 212.349
L351.766 211.769
L354.45 210.633
L355.344 210.104
L358.923 208.492
L364.29 206.053
L371.447 202.978
L372.342 202.636
L373.236 202.003
L375.92 200.914
L377.709 200.039
L380.393 198.722
L382.182 197.855
L383.971 197.042
L390.233 194.08
L391.128 193.72
L392.917 192.838
L401.863 188.904
L402.758 188.407
L405.441 187.396
L406.336 186.813
L409.02 185.756
L409.914 185.252
L412.598 184.236
L413.493 183.65
L416.176 182.548
L417.071 182.012
L419.755 180.95
L421.544 179.97
L430.49 175.645
L435.857 173.284
L437.647 172.472
L438.541 171.918
L444.803 169.244
L445.698 168.704
L448.382 167.704
L449.276 167.076
L451.96 166.018
L452.855 165.463
L455.538 164.389
L456.433 163.798
L459.117 162.754
L460.011 162.038
L461.801 161.251
L463.59 160.517
L468.063 158.573
L468.957 158.261
L469.852 157.754
L472.536 156.715
L473.43 156.113
L475.219 155.406
L475.219 155.406" style="fill:none;stroke:#000000;stroke-linecap:square;"/>
   </g>
   <g id="line2d_8">
    <path clip-path="url(#p8c776b0f9c)" d="
M28.8194 368.731
L33.2923 366.874
L44.922 362.016
L67.2867 352.293
L69.9705 351.02
L77.1272 347.941
L86.9677 343.59
L89.6514 342.365
L103.965 336
L105.754 334.982
L108.438 333.692
L115.595 330.61
L137.065 321.284
L142.432 318.809
L146.905 316.921
L184.478 300.012
L187.162 298.871
L190.74 297.282
L192.529 296.491
L195.213 295.331
L199.686 293.387
L201.475 292.587
L206.843 290.339
L215.789 286.256
L218.472 285.095
L220.261 284.18
L226.524 281.533
L240.837 275.227
L242.626 274.483
L244.415 273.677
L252.467 270.175
L257.834 267.943
L263.202 265.452
L274.831 260.411
L276.621 259.667
L278.41 258.865
L283.777 256.586
L286.461 255.402
L289.145 254.267
L290.934 253.392
L293.618 252.26
L294.512 251.753
L298.091 250.19
L299.88 249.384
L301.669 248.713
L302.564 248.169
L303.458 247.825
L304.353 247.299
L306.142 246.582
L307.037 246.093
L310.615 244.725
L312.404 243.852
L314.193 243.163
L315.088 242.633
L318.666 241.146
L320.455 240.259
L341.926 231.076
L343.715 230.371
L344.609 229.845
L348.188 228.49
L349.082 227.978
L351.766 226.942
L352.661 226.462
L356.239 225.093
L357.134 224.558
L359.817 223.456
L361.607 222.598
L363.396 221.883
L364.29 221.563
L365.185 221.021
L377.709 215.851
L386.655 211.967
L389.339 211.01
L390.233 210.463
L393.812 209.184
L394.706 208.519
L397.39 207.428
L398.285 206.863
L401.863 205.459
L402.758 204.829
L406.336 203.629
L407.231 203.085
L414.387 200.072
L415.282 199.45
L417.966 198.531
L418.86 197.983
L421.544 197.029
L422.439 196.695
L423.333 196.111
L426.912 194.779
L427.806 194.094
L430.49 193.131
L431.385 192.563
L434.963 191.302
L436.752 190.372
L438.541 189.672
L439.436 188.949
L442.12 188.074
L443.014 187.428
L446.593 186.061
L447.487 185.343
L450.171 184.271
L451.065 183.763
L454.644 182.451
L455.538 181.385
L458.222 180.337
L459.117 179.732
L462.695 178.373
L463.59 177.333
L466.273 176.263
L467.168 175.395
L469.852 174.434
L470.746 173.342
L474.325 172.032
L475.219 171.137
L475.219 171.137" style="fill:none;stroke:#0000ff;stroke-linecap:square;"/>
   </g>
   <g id="line2d_9">
    <path clip-path="url(#p8c776b0f9c)" d="
M28.8194 368.654
L29.714 367.713
L33.2923 366.379
L34.1869 365.707
L44.0274 362.118
L47.6057 360.734
L49.3949 360.143
L51.1841 359.458
L52.9733 358.806
L53.8679 358.273
L58.3408 356.628
L60.13 355.843
L65.4975 353.823
L67.2867 353.076
L75.338 350.066
L78.0218 349.05
L83.3893 347.062
L87.8623 345.422
L96.8082 342.152
L98.5973 341.368
L103.07 339.644
L106.649 338.313
L109.332 337.232
L126.33 330.608
L132.592 328.297
L133.486 327.849
L137.959 326.196
L140.643 325.206
L148.694 322.22
L154.956 319.962
L158.535 318.654
L160.324 317.922
L164.797 316.283
L167.481 315.317
L173.743 313.027
L175.532 312.318
L189.845 307.335
L191.635 306.614
L196.108 304.899
L198.791 303.936
L202.37 302.646
L206.843 300.983
L214.894 298.115
L217.578 297.099
L221.156 295.886
L222.945 295.168
L228.313 293.225
L236.364 290.302
L238.153 289.573
L243.521 287.664
L251.572 284.837
L252.467 284.419
L259.623 282.005
L270.358 278.031
L273.042 277.043
L274.831 276.356
L277.515 275.38
L281.988 273.815
L282.883 273.294
L290.039 270.731
L300.774 266.967
L312.404 263.096
L313.299 262.658
L317.772 261.188
L323.139 259.259
L324.034 258.601
L327.612 257.4
L329.401 256.777
L335.663 254.719
L342.82 252.333
L343.715 251.764
L347.293 250.55
L348.188 250.283
L349.977 249.629
L358.028 246.893
L358.923 246.432
L366.079 244.154
L373.236 242.03
L374.131 241.525
L378.604 240.173
L380.393 239.364
L387.55 237.047
L389.339 236.435
L402.758 232.169
L403.652 231.904
L404.547 231.388
L407.231 230.581
L408.125 230.323
L409.02 229.913
L413.493 228.575
L416.176 227.65
L421.544 225.979
L427.806 223.863
L429.595 223.244
L432.279 222.395
L433.174 222.121
L434.068 221.658
L435.857 221.04
L437.647 220.379
L438.541 219.902
L441.225 219.075
L443.014 218.525
L443.909 218.002
L447.487 216.899
L448.382 216.536
L451.96 215.48
L453.749 214.854
L456.433 213.936
L460.011 212.889
L462.695 212.131
L463.59 211.619
L467.168 210.395
L468.063 209.435
L470.746 208.625
L471.641 208.31
L472.536 207.758
L475.219 206.748
L475.219 206.748" style="fill:none;stroke:#008000;stroke-linecap:square;"/>
   </g>
   <g id="line2d_10">
    <path clip-path="url(#p8c776b0f9c)" d="
M28.8194 368.65
L29.714 368.147
L38.6599 364.699
L43.1328 362.885
L44.0274 362.434
L47.6057 361.1
L49.3949 360.331
L52.9733 358.859
L53.8679 357.965
L61.9192 354.857
L64.6029 353.767
L67.2867 352.792
L68.1813 352.304
L71.7597 350.905
L73.5488 350.102
L81.6001 347.006
L83.3893 346.237
L103.07 338.32
L110.227 335.524
L111.122 335.054
L114.7 333.661
L116.489 332.88
L120.962 331.097
L130.803 327.289
L138.854 324.112
L140.643 323.369
L141.538 323.039
L142.432 322.572
L146.905 320.806
L148.694 319.977
L150.484 319.167
L153.167 318.138
L154.956 317.318
L171.954 310.703
L204.159 297.444
L209.526 295.368
L223.84 289.694
L229.207 287.579
L233.68 285.856
L236.364 284.776
L256.94 276.655
L258.729 275.927
L263.202 274.286
L264.096 273.78
L272.148 270.603
L273.937 269.846
L276.621 268.818
L278.41 268.036
L297.196 260.483
L306.142 257.09
L307.931 256.401
L311.51 255.021
L313.299 254.283
L314.193 253.973
L315.983 253.181
L320.455 251.449
L329.401 247.799
L331.191 247.136
L333.874 245.96
L337.453 244.68
L339.242 243.838
L341.926 242.89
L343.715 242.113
L349.082 240.039
L353.555 238.27
L374.131 230.542
L376.815 229.518
L380.393 228.121
L384.866 226.405
L388.444 225.159
L390.233 224.381
L400.968 220.43
L401.863 220.029
L402.758 219.439
L408.125 217.515
L413.493 215.609
L417.966 214.003
L419.755 213.275
L424.228 211.635
L426.017 210.881
L438.541 205.826
L440.33 205.063
L447.487 202.146
L448.382 201.664
L450.171 201.098
L451.065 200.659
L451.96 200.35
L452.855 199.885
L456.433 198.689
L457.328 198.169
L460.906 196.886
L461.801 196.348
L466.273 194.825
L473.43 192.291
L475.219 191.507
L475.219 191.507" style="fill:none;stroke:#ff0000;stroke-linecap:square;"/>
   </g>
   <g id="line2d_11">
    <path clip-path="url(#p8c776b0f9c)" d="
M28.8194 368.731
L34.1869 366.078
L36.8707 364.853
L38.6599 363.983
L46.7112 360.13
L54.7625 356.288
L56.5516 355.344
L62.8138 352.484
L63.7084 351.934
L71.7597 348.133
L72.6542 347.594
L78.9164 344.685
L88.7568 339.721
L96.8082 335.975
L98.5973 334.97
L101.281 333.713
L103.07 332.782
L103.965 332.376
L104.859 331.78
L109.332 329.713
L110.227 329.176
L113.805 327.534
L116.489 326.074
L119.173 324.803
L122.751 323.165
L123.646 322.601
L130.803 319.298
L133.486 317.845
L137.065 316.09
L138.854 315.228
L139.748 314.834
L140.643 314.275
L146.905 311.25
L155.851 306.793
L156.746 306.21
L160.324 304.562
L161.219 303.958
L170.164 299.674
L175.532 297.112
L180.9 294.672
L182.689 293.709
L186.267 292.123
L187.162 291.596
L189.845 290.355
L190.74 289.831
L195.213 287.783
L199.686 285.613
L203.264 284.059
L205.053 283.048
L208.632 281.366
L210.421 280.522
L211.316 280.135
L213.105 279.154
L214.894 278.28
L218.472 276.629
L222.051 274.834
L228.313 271.932
L230.102 271.061
L232.786 269.868
L233.68 269.295
L239.048 266.887
L242.626 265.189
L244.415 264.32
L248.888 262.183
L255.15 259.354
L257.834 258.205
L259.623 257.335
L265.886 254.39
L267.675 253.535
L270.358 252.19
L272.148 251.322
L274.831 249.967
L276.621 249.035
L278.41 248.263
L280.199 247.375
L282.883 246.163
L284.672 245.271
L287.356 244.097
L290.039 242.72
L296.302 239.89
L299.88 238.368
L301.669 237.516
L303.458 236.783
L304.353 236.223
L312.404 232.815
L313.299 232.159
L315.983 230.988
L317.772 230.061
L320.455 228.887
L321.35 228.32
L324.928 226.747
L337.453 220.857
L341.031 219.386
L342.82 218.467
L349.082 215.758
L349.977 215.242
L358.028 211.877
L359.817 210.841
L361.607 210.127
L362.501 209.529
L369.658 206.548
L372.342 205.379
L374.131 204.676
L375.025 204.125
L383.971 200.216
L390.233 197.278
L391.128 196.697
L396.496 194.332
L397.39 193.839
L398.285 193.481
L399.179 192.988
L400.968 192.233
L402.758 191.388
L403.652 190.84
L407.231 189.438
L408.125 188.859
L413.493 186.569
L415.282 185.838
L416.176 185.326
L419.755 183.802
L420.649 183.191
L425.122 181.207
L426.912 180.446
L428.701 179.415
L431.385 178.326
L432.279 177.792
L434.963 176.583
L435.857 175.834
L437.647 174.962
L438.541 174.617
L440.33 173.59
L443.014 172.411
L445.698 170.99
L447.487 170.226
L448.382 169.683
L455.538 166.454
L456.433 165.923
L459.117 164.787
L460.011 164.196
L470.746 159.069
L471.641 158.468
L473.43 157.752
L474.325 157.278
L475.219 155.295
L475.219 155.295" style="fill:none;stroke:#00bfbf;stroke-linecap:square;"/>
   </g>
   <g id="line2d_12">
    <path clip-path="url(#p8c776b0f9c)" d="
M28.8194 368.732
L31.5031 367.323
L33.2923 366.392
L42.2382 361.358
L44.0274 360.378
L47.6057 358.605
L50.2895 357.132
L51.1841 356.715
L52.9733 355.674
L59.2354 352.446
L60.13 351.842
L62.8138 350.516
L64.6029 349.431
L69.9705 346.755
L70.8651 346.097
L72.6542 345.144
L74.4434 344.205
L78.9164 341.921
L84.2839 339.185
L85.1785 338.74
L86.9677 337.709
L92.3352 335.026
L94.1244 334.069
L97.7027 332.202
L102.176 329.823
L106.649 327.379
L109.332 325.963
L110.227 325.399
L116.489 322.282
L117.384 321.719
L118.278 321.288
L120.067 320.251
L129.013 315.339
L130.803 314.374
L132.592 313.476
L134.381 312.363
L137.065 310.996
L138.854 309.955
L142.432 308.047
L145.116 306.619
L146.011 306.016
L148.694 304.519
L150.484 303.533
L152.273 302.676
L153.167 302.103
L155.851 300.676
L157.64 299.596
L163.902 296.572
L165.692 295.469
L168.375 294.049
L171.059 292.601
L171.954 291.995
L173.743 291.134
L176.427 289.444
L198.791 278.051
L199.686 277.484
L203.264 275.663
L209.526 272.35
L212.21 271.077
L213.105 270.479
L215.789 269.171
L216.683 268.591
L222.945 265.558
L224.734 264.597
L227.418 263.267
L228.313 262.695
L232.786 260.431
L241.732 255.623
L243.521 254.541
L245.31 253.633
L247.099 252.651
L248.888 251.631
L250.677 250.5
L256.94 247.365
L257.834 246.73
L266.78 242.267
L268.569 241.159
L271.253 239.836
L272.148 239.171
L276.621 236.993
L278.41 236.138
L279.304 235.579
L281.988 234.339
L283.777 233.331
L288.25 231.142
L289.145 230.515
L293.618 228.132
L295.407 227.121
L297.196 226.262
L298.985 225.187
L301.669 223.797
L309.72 219.367
L314.193 217.055
L318.666 214.766
L319.561 214.07
L323.139 212.35
L324.928 211.398
L327.612 210.091
L329.401 209.259
L331.191 208.078
L334.769 206.287
L337.453 204.795
L339.242 203.862
L341.031 203.073
L341.926 202.474
L344.609 201.143
L353.555 196.676
L358.923 193.801
L360.712 192.826
L362.501 191.93
L363.396 191.363
L369.658 188.229
L371.447 187.276
L375.025 185.424
L378.604 183.483
L381.288 182.07
L383.971 180.497
L384.866 180.04
L386.655 178.775
L388.444 177.826
L390.233 176.635
L392.023 175.653
L393.812 174.597
L399.179 171.462
L400.074 170.773
L410.809 164.734
L413.493 163.473
L426.017 157.229
L428.701 155.655
L431.385 154.363
L432.279 153.724
L437.647 150.977
L439.436 149.791
L440.33 149.381
L441.225 148.803
L442.12 148.394
L443.909 147.217
L451.96 142.95
L452.855 142.355
L455.538 141.134
L458.222 139.881
L459.117 139.51
L461.801 137.987
L462.695 137.613
L463.59 136.977
L466.273 135.688
L467.168 134.743
L468.063 134.201
L468.957 133.833
L470.746 132.874
L472.536 131.996
L473.43 131.28
L474.325 130.768
L475.219 130.011
L475.219 130.011" style="fill:none;stroke:#bf00bf;stroke-linecap:square;"/>
   </g>
   <g id="line2d_13">
    <path clip-path="url(#p8c776b0f9c)" d="
M28.8194 368.732
L29.714 366.843
L33.2923 364.835
L35.0815 363.76
L44.0274 358.437
L46.7112 356.987
L51.1841 354.267
L57.4462 350.615
L59.2354 349.688
L61.0246 348.401
L62.8138 347.332
L66.3921 345.206
L69.0759 343.785
L69.9705 343.06
L73.5488 340.873
L76.2326 339.374
L78.9164 337.856
L79.811 337.215
L82.4947 335.734
L86.0731 333.474
L88.7568 331.949
L91.4406 330.344
L94.1244 328.807
L95.9136 327.734
L98.5973 326.223
L100.387 325.037
L102.176 324.083
L103.07 323.432
L103.965 322.952
L104.859 322.233
L108.438 320.206
L110.227 319.042
L112.016 318.078
L112.911 317.432
L117.384 314.947
L120.962 312.796
L131.697 306.686
L133.486 305.609
L136.17 304.083
L140.643 301.097
L148.694 296.577
L150.484 295.409
L151.378 294.934
L154.062 293.208
L162.113 288.322
L163.902 287.247
L168.375 284.684
L170.164 283.507
L177.321 279.352
L180.005 277.681
L184.478 275.258
L185.372 274.628
L188.056 273.137
L189.845 272.077
L194.318 269.559
L196.108 268.434
L198.791 266.825
L202.37 264.78
L214.894 256.923
L216.683 255.675
L219.367 253.964
L221.156 252.993
L222.945 251.888
L224.734 250.956
L225.629 250.286
L230.997 247.287
L233.68 245.576
L234.575 245.083
L235.469 244.431
L238.153 242.987
L239.048 242.37
L241.732 240.92
L246.205 238.266
L247.994 237.255
L248.888 236.545
L263.202 228.281
L265.886 226.516
L267.675 225.555
L269.464 224.478
L273.937 222.074
L274.831 221.373
L277.515 219.917
L280.199 218.35
L284.672 215.758
L288.25 213.651
L290.934 212.016
L301.669 205.807
L303.458 204.793
L304.353 204.097
L307.931 202.025
L313.299 199.094
L314.193 198.417
L320.455 194.913
L338.347 184.708
L339.242 184.003
L341.926 182.487
L343.715 181.308
L345.504 180.264
L347.293 179.153
L348.188 178.694
L349.082 177.995
L358.028 173.047
L359.817 171.868
L364.29 169.291
L366.079 168.073
L377.709 161.066
L378.604 160.383
L380.393 159.276
L381.288 158.402
L384.866 156.204
L385.76 155.774
L391.128 152.468
L393.812 151.075
L399.179 147.814
L400.074 147.357
L400.968 146.743
L407.231 143.332
L409.02 142.286
L409.914 141.85
L411.704 140.735
L413.493 139.532
L416.176 138.131
L417.071 137.487
L418.86 136.554
L420.649 135.516
L426.017 132.64
L426.912 131.966
L435.857 126.873
L436.752 126.257
L443.909 122.314
L444.803 121.585
L448.382 119.814
L451.065 118.422
L453.749 117.036
L454.644 116.257
L465.379 109.877
L466.273 109.144
L469.852 107.182
L471.641 106.256
L472.536 105.579
L474.325 104.674
L475.219 104.078
L475.219 104.078" style="fill:none;stroke:#bfbf00;stroke-linecap:square;"/>
   </g>
   <g id="line2d_14">
    <path clip-path="url(#p8c776b0f9c)" d="
M28.8194 368.733
L29.714 367.878
L30.6086 367.365
L35.0815 364.269
L46.7112 356.548
L48.5003 355.347
L51.1841 353.502
L52.9733 352.362
L54.7625 351.121
L57.4462 349.474
L59.2354 348.392
L60.13 347.483
L61.9192 346.193
L64.6029 344.618
L65.4975 343.374
L68.1813 341.749
L72.6542 338.787
L74.4434 337.772
L75.338 337.093
L77.1272 335.975
L82.4947 332.641
L84.2839 331.48
L88.7568 328.744
L94.1244 324.824
L97.7027 322.754
L98.5973 322.016
L101.281 320.387
L103.07 319.122
L108.438 315.482
L109.332 314.985
L111.122 313.822
L112.911 312.802
L114.7 311.652
L116.489 310.514
L125.435 304.767
L128.119 302.798
L132.592 299.985
L133.486 299.261
L134.381 298.749
L135.275 298.032
L137.065 296.918
L137.959 296.077
L139.748 295.053
L140.643 294.312
L150.484 287.924
L163.008 279.605
L164.797 278.485
L165.692 277.817
L166.586 277.31
L169.27 275.491
L170.164 274.973
L171.059 274.175
L172.848 273.072
L174.637 271.883
L176.427 270.804
L179.11 268.805
L180.9 267.655
L185.372 264.79
L188.056 263.269
L190.74 261.316
L192.529 260.146
L194.318 258.761
L196.108 257.584
L197.897 256.178
L203.264 252.732
L204.159 252.031
L205.948 250.879
L207.737 249.527
L211.316 247.127
L212.21 246.545
L213.105 245.778
L214.894 244.606
L215.789 243.796
L217.578 242.784
L219.367 241.598
L221.156 240.573
L222.945 239.324
L224.734 238.199
L227.418 236.469
L232.786 233.311
L233.68 232.553
L236.364 230.956
L237.259 230.255
L241.732 227.458
L243.521 226.292
L250.677 221.579
L251.572 220.792
L264.096 212.599
L268.569 209.452
L269.464 208.348
L278.41 202.519
L284.672 198.241
L286.461 197.211
L288.25 196.133
L290.039 194.923
L290.934 194.215
L291.829 193.712
L292.723 192.984
L298.091 189.743
L298.985 188.998
L302.564 186.846
L305.247 184.789
L310.615 181.294
L315.088 177.997
L315.983 177.236
L321.35 173.861
L322.245 173.209
L324.034 172.151
L325.823 170.988
L326.718 170.487
L327.612 169.783
L329.401 168.74
L330.296 168.189
L331.191 167.409
L335.663 164.897
L340.136 161.952
L341.926 161.002
L351.766 154.599
L353.555 153.593
L354.45 152.842
L357.134 151.263
L366.974 144.727
L368.763 143.526
L370.552 142.359
L374.131 139.884
L375.025 139.105
L376.815 137.903
L378.604 136.553
L381.288 134.745
L382.182 134.018
L385.76 131.653
L387.55 130.4
L388.444 129.839
L389.339 129.033
L391.128 127.697
L392.023 126.879
L396.496 123.444
L398.285 122.119
L400.968 120.589
L404.547 118.313
L405.441 117.841
L407.231 116.66
L409.02 115.617
L409.914 114.905
L412.598 113.357
L417.966 109.973
L418.86 109.262
L420.649 108.181
L422.439 106.924
L426.912 103.786
L430.49 101.193
L434.068 98.8063
L435.857 97.3357
L436.752 96.7243
L438.541 95.2953
L444.803 90.7175
L448.382 88.4302
L449.276 86.9847
L451.065 85.9594
L451.96 85.2363
L453.749 84.1986
L454.644 83.4285
L459.117 80.8762
L462.695 78.6163
L463.59 77.8617
L468.063 74.9645
L468.957 74.2358
L470.746 73.1414
L471.641 72.3696
L473.43 71.2694
L475.219 70.103
L475.219 70.103" style="fill:none;stroke:#000000;stroke-linecap:square;"/>
   </g>
   <g id="line2d_15">
    <path clip-path="url(#p8c776b0f9c)" d="
M28.8194 368.59
L29.714 367.823
L31.5031 366.663
L32.3977 365.893
L34.1869 364.642
L35.0815 363.775
L36.8707 362.61
L38.6599 361.131
L39.5544 360.521
L40.449 359.766
L42.2382 358.675
L44.0274 357.429
L45.8166 356.296
L47.6057 355.087
L51.1841 352.813
L52.9733 351.57
L53.8679 350.45
L54.7625 349.536
L60.13 345.912
L62.8138 344.21
L63.7084 343.516
L65.4975 342.412
L66.3921 341.711
L68.1813 340.637
L69.0759 339.882
L70.8651 338.685
L71.7597 337.931
L73.5488 336.783
L75.338 335.491
L76.2326 334.895
L77.1272 334.132
L83.3893 329.97
L84.2839 329.317
L85.1785 328.039
L90.546 324.615
L91.4406 323.569
L92.3352 322.809
L95.019 321.177
L96.8082 319.925
L111.122 309.446
L112.911 308.273
L115.595 306.563
L119.173 303.821
L120.067 303.143
L120.962 302.621
L122.751 301.284
L124.54 300.174
L128.119 297.696
L137.065 291.786
L138.854 290.344
L144.221 286.807
L146.011 285.735
L146.905 284.948
L148.694 283.748
L150.484 282.454
L152.273 281.307
L158.535 277.011
L167.481 271.07
L168.375 270.546
L169.27 269.851
L171.059 268.765
L171.954 267.932
L180.005 262.241
L180.9 261.73
L182.689 260.542
L187.162 257.787
L188.951 256.644
L192.529 254.48
L197.897 250.618
L200.58 248.905
L203.264 247.268
L204.159 246.762
L205.948 245.229
L206.843 244.649
L207.737 243.824
L212.21 240.823
L213.105 239.385
L216.683 237.103
L217.578 236.558
L219.367 235.244
L221.156 234.036
L222.051 233.301
L224.734 231.398
L227.418 229.567
L230.102 227.891
L230.997 227.13
L237.259 222.857
L238.153 222.089
L239.942 220.925
L243.521 218.156
L244.415 217.637
L247.994 215.048
L248.888 214.509
L250.677 213.04
L252.467 211.847
L265.886 203.063
L267.675 201.967
L273.937 197.659
L275.726 196.628
L276.621 195.809
L286.461 189.188
L287.356 188.379
L291.829 185.252
L293.618 183.725
L298.091 180.714
L298.985 179.971
L303.458 177.288
L304.353 176.628
L305.247 176.12
L307.037 174.5
L308.826 173.455
L310.615 172.221
L311.51 171.676
L312.404 170.905
L314.193 169.755
L315.088 168.965
L319.561 165.942
L322.245 163.946
L330.296 158.367
L332.085 156.975
L333.874 155.784
L335.663 154.725
L336.558 153.98
L338.347 152.887
L339.242 151.805
L343.715 149.281
L344.609 148.533
L349.082 145.743
L353.555 142.673
L357.134 140.22
L359.817 138.019
L363.396 135.544
L365.185 134.369
L366.974 133.073
L368.763 131.913
L371.447 129.844
L375.025 127.328
L376.815 125.885
L378.604 124.413
L380.393 123.084
L383.971 120.265
L388.444 117.308
L390.233 116.036
L391.128 115.331
L392.917 114.232
L395.601 112.393
L397.39 111.149
L400.074 109.361
L402.758 107.548
L404.547 106.41
L406.336 105.131
L407.231 104.377
L409.02 103.217
L409.914 102.314
L411.704 101.134
L413.493 99.9977
L416.176 98.1603
L417.071 97.6675
L417.966 96.8559
L422.439 93.7337
L423.333 93.0425
L426.017 91.3787
L428.701 89.374
L429.595 88.8777
L430.49 88.1364
L440.33 81.9603
L441.225 81.049
L443.014 79.9699
L443.909 79.1232
L445.698 77.951
L446.593 77.1878
L448.382 76.1539
L449.276 75.4195
L451.065 74.3337
L452.855 73.0262
L455.538 71.2665
L456.433 70.5638
L458.222 69.4752
L460.906 67.7904
L461.801 67.0531
L462.695 66.5433
L467.168 63.4272
L470.746 61.1318
L472.536 59.5824
L475.219 57.9033
L475.219 57.9033" style="fill:none;stroke:#0000ff;stroke-linecap:square;"/>
   </g>
   <g id="line2d_16">
    <path clip-path="url(#p8c776b0f9c)" d="
M28.8194 368.654
L29.714 367.682
L34.1869 364.591
L35.9761 363.224
L37.7653 362.069
L38.6599 361.385
L39.5544 360.857
L40.449 360.055
L42.2382 358.973
L44.0274 357.703
L44.922 357.172
L46.7112 355.706
L50.2895 353.479
L51.1841 352.759
L52.9733 351.535
L53.8679 350.503
L55.6571 349.351
L57.4462 348.156
L58.3408 347.603
L64.6029 342.538
L66.3921 341.283
L69.0759 339.429
L69.9705 338.467
L72.6542 336.668
L73.5488 336.095
L76.2326 334.082
L77.1272 333.537
L78.9164 332.195
L79.811 331.655
L80.7055 330.939
L82.4947 329.824
L86.0731 327.214
L87.8623 326.03
L88.7568 325.262
L89.6514 324.641
L90.546 323.723
L98.5973 318.067
L99.4919 317.298
L104.859 313.847
L108.438 310.938
L109.332 310.4
L110.227 309.622
L114.7 306.758
L117.384 304.748
L118.278 303.932
L120.962 302.156
L124.54 299.734
L125.435 299.184
L131.697 294.455
L134.381 292.602
L136.17 291.265
L137.065 290.423
L138.854 289.038
L140.643 287.684
L144.221 285.364
L145.116 284.586
L146.905 283.459
L147.8 282.674
L149.589 281.538
L150.484 280.722
L152.273 279.566
L154.062 278.287
L154.956 277.695
L156.746 276.298
L164.797 270.715
L168.375 267.957
L173.743 264.134
L175.532 262.821
L176.427 262.275
L178.216 260.739
L180.005 259.523
L181.794 258.21
L184.478 256.501
L185.372 255.605
L187.162 254.466
L188.951 253.113
L194.318 249.42
L197.002 247.306
L198.791 246.117
L202.37 243.627
L204.159 242.375
L205.948 241.03
L206.843 240.24
L208.632 239.007
L209.526 238.277
L211.316 237.126
L214.894 234.503
L216.683 233.378
L222.051 229.623
L222.945 229.071
L228.313 225.02
L229.207 224.473
L230.997 223.12
L236.364 219.252
L243.521 214.553
L244.415 213.771
L246.205 212.607
L247.994 211.136
L248.888 210.536
L249.783 209.659
L251.572 208.516
L253.361 207.322
L256.94 204.814
L257.834 204.063
L259.623 203.014
L261.413 201.777
L262.307 201.244
L264.991 199.139
L266.78 198.023
L267.675 197.189
L269.464 196.083
L270.358 195.328
L271.253 194.786
L274.831 191.879
L276.621 190.501
L278.41 189.296
L280.199 188.125
L281.988 186.535
L282.883 185.946
L284.672 184.345
L285.566 183.802
L287.356 182.445
L289.145 181.249
L298.985 173.706
L299.88 172.87
L301.669 171.696
L309.72 165.635
L311.51 164.458
L312.404 163.677
L315.088 161.908
L317.772 160.003
L319.561 158.821
L321.35 157.299
L322.245 156.689
L324.034 155.193
L324.928 154.631
L325.823 153.901
L327.612 152.76
L328.507 151.936
L330.296 150.855
L331.191 150.07
L332.085 149.501
L332.98 148.719
L333.874 148.164
L336.558 146.11
L337.453 145.51
L338.347 144.737
L340.136 143.611
L341.926 142.093
L342.82 141.496
L344.609 140.048
L345.504 139.488
L346.399 138.518
L348.188 137.362
L350.871 135.743
L351.766 134.923
L356.239 131.881
L357.134 131.063
L362.501 127.314
L364.29 126.22
L366.079 124.948
L368.763 122.873
L370.552 121.494
L374.131 119.161
L375.025 117.833
L375.92 117.041
L376.815 116.463
L379.498 114.377
L381.288 112.906
L382.182 112.129
L383.971 110.917
L384.866 110.418
L386.655 109.059
L387.55 108.482
L389.339 107.043
L392.917 104.612
L393.812 103.859
L394.706 103.276
L396.496 101.945
L398.285 100.569
L399.179 99.8563
L400.968 98.6954
L402.758 97.5267
L404.547 96.1863
L405.441 95.6593
L406.336 94.8713
L407.231 94.295
L408.125 93.5071
L416.176 87.7652
L417.071 86.9985
L418.86 85.8428
L419.755 85.1038
L421.544 84.0143
L422.439 83.0311
L423.333 82.3347
L424.228 81.4209
L430.49 76.3123
L431.385 75.6701
L432.279 74.8608
L434.068 73.6742
L435.857 72.4272
L437.647 70.9037
L448.382 63.1939
L449.276 62.1744
L455.538 57.3245
L456.433 56.7197
L458.222 55.2566
L459.117 54.6921
L460.011 53.687
L466.273 48.3648
L468.063 46.5302
L468.957 45.6893
L470.746 44.4365
L471.641 43.6963
L473.43 42.6105
L474.325 41.8675
L475.219 41.2829
L475.219 41.2829" style="fill:none;stroke:#008000;stroke-linecap:square;"/>
   </g>
   <g id="patch_3">
    <path d="
M28.8194 23.1417
L475.219 23.1417" style="fill:none;stroke:#000000;stroke-linecap:square;stroke-linejoin:miter;"/>
   </g>
   <g id="patch_4">
    <path d="
M475.219 368.742
L475.219 23.1417" style="fill:none;stroke:#000000;stroke-linecap:square;stroke-linejoin:miter;"/>
   </g>
   <g id="patch_5">
    <path d="
M28.8194 368.742
L475.219 368.742" style="fill:none;stroke:#000000;stroke-linecap:square;stroke-linejoin:miter;"/>
   </g>
   <g id="patch_6">
    <path d="
M28.8194 368.742
L28.8194 23.1417" style="fill:none;stroke:#000000;stroke-linecap:square;stroke-linejoin:miter;"/>
   </g>
   <g id="matplotlib.axis_1">
    <g id="xtick_1">
     <g id="line2d_17">
      <defs>
       <path d="
M0 0
L0 -4" id="m93b0483c22" style="stroke:#000000;stroke-width:0.5;"/>
      </defs>
      <g>
       <use style="stroke:#000000;stroke-width:0.5;" x="28.819375" xlink:href="#m93b0483c22" y="368.74175"/>
      </g>
     </g>
     <g id="line2d_18">
      <defs>
       <path d="
M0 0
L0 4" id="m741efc42ff" style="stroke:#000000;stroke-width:0.5;"/>
      </defs>
      <g>
       <use style="stroke:#000000;stroke-width:0.5;" x="28.819375" xlink:href="#m741efc42ff" y="23.14175"/>
      </g>
     </g>
     <g id="text_1">
      <!-- 0 -->
      <defs>
       <path d="
M31.7812 66.4062
Q24.1719 66.4062 20.3281 58.9062
Q16.5 51.4219 16.5 36.375
Q16.5 21.3906 20.3281 13.8906
Q24.1719 6.39062 31.7812 6.39062
Q39.4531 6.39062 43.2812 13.8906
Q47.125 21.3906 47.125 36.375
Q47.125 51.4219 43.2812 58.9062
Q39.4531 66.4062 31.7812 66.4062
M31.7812 74.2188
Q44.0469 74.2188 50.5156 64.5156
Q56.9844 54.8281 56.9844 36.375
Q56.9844 17.9688 50.5156 8.26562
Q44.0469 -1.42188 31.7812 -1.42188
Q19.5312 -1.42188 13.0625 8.26562
Q6.59375 17.9688 6.59375 36.375
Q6.59375 54.8281 13.0625 64.5156
Q19.5312 74.2188 31.7812 74.2188" id="DejaVuSans-30"/>
      </defs>
      <g transform="translate(25.7959375 381.859875)scale(0.12 -0.12)">
       <use xlink:href="#DejaVuSans-30"/>
      </g>
     </g>
    </g>
    <g id="xtick_2">
     <g id="line2d_19">
      <g>
       <use style="stroke:#000000;stroke-width:0.5;" x="118.278292836" xlink:href="#m93b0483c22" y="368.74175"/>
      </g>
     </g>
     <g id="line2d_20">
      <g>
       <use style="stroke:#000000;stroke-width:0.5;" x="118.278292836" xlink:href="#m741efc42ff" y="23.14175"/>
      </g>
     </g>
     <g id="text_2">
      <!-- 100 -->
      <defs>
       <path d="
M12.4062 8.29688
L28.5156 8.29688
L28.5156 63.9219
L10.9844 60.4062
L10.9844 69.3906
L28.4219 72.9062
L38.2812 72.9062
L38.2812 8.29688
L54.3906 8.29688
L54.3906 0
L12.4062 0
z
" id="DejaVuSans-31"/>
      </defs>
      <g transform="translate(107.883292836 381.859875)scale(0.12 -0.12)">
       <use xlink:href="#DejaVuSans-31"/>
       <use x="63.623046875" xlink:href="#DejaVuSans-30"/>
       <use x="127.24609375" xlink:href="#DejaVuSans-30"/>
      </g>
     </g>
    </g>
    <g id="xtick_3">
     <g id="line2d_21">
      <g>
       <use style="stroke:#000000;stroke-width:0.5;" x="207.737210671" xlink:href="#m93b0483c22" y="368.74175"/>
      </g>
     </g>
     <g id="line2d_22">
      <g>
       <use style="stroke:#000000;stroke-width:0.5;" x="207.737210671" xlink:href="#m741efc42ff" y="23.14175"/>
      </g>
     </g>
     <g id="text_3">
      <!-- 200 -->
      <defs>
       <path d="
M19.1875 8.29688
L53.6094 8.29688
L53.6094 0
L7.32812 0
L7.32812 8.29688
Q12.9375 14.1094 22.625 23.8906
Q32.3281 33.6875 34.8125 36.5312
Q39.5469 41.8438 41.4219 45.5312
Q43.3125 49.2188 43.3125 52.7812
Q43.3125 58.5938 39.2344 62.25
Q35.1562 65.9219 28.6094 65.9219
Q23.9688 65.9219 18.8125 64.3125
Q13.6719 62.7031 7.8125 59.4219
L7.8125 69.3906
Q13.7656 71.7812 18.9375 73
Q24.125 74.2188 28.4219 74.2188
Q39.75 74.2188 46.4844 68.5469
Q53.2188 62.8906 53.2188 53.4219
Q53.2188 48.9219 51.5312 44.8906
Q49.8594 40.875 45.4062 35.4062
Q44.1875 33.9844 37.6406 27.2188
Q31.1094 20.4531 19.1875 8.29688" id="DejaVuSans-32"/>
      </defs>
      <g transform="translate(197.122835671 381.859875)scale(0.12 -0.12)">
       <use xlink:href="#DejaVuSans-32"/>
       <use x="63.623046875" xlink:href="#DejaVuSans-30"/>
       <use x="127.24609375" xlink:href="#DejaVuSans-30"/>
      </g>
     </g>
    </g>
    <g id="xtick_4">
     <g id="line2d_23">
      <g>
       <use style="stroke:#000000;stroke-width:0.5;" x="297.196128507" xlink:href="#m93b0483c22" y="368.74175"/>
      </g>
     </g>
     <g id="line2d_24">
      <g>
       <use style="stroke:#000000;stroke-width:0.5;" x="297.196128507" xlink:href="#m741efc42ff" y="23.14175"/>
      </g>
     </g>
     <g id="text_4">
      <!-- 300 -->
      <defs>
       <path d="
M40.5781 39.3125
Q47.6562 37.7969 51.625 33
Q55.6094 28.2188 55.6094 21.1875
Q55.6094 10.4062 48.1875 4.48438
Q40.7656 -1.42188 27.0938 -1.42188
Q22.5156 -1.42188 17.6562 -0.515625
Q12.7969 0.390625 7.625 2.20312
L7.625 11.7188
Q11.7188 9.32812 16.5938 8.10938
Q21.4844 6.89062 26.8125 6.89062
Q36.0781 6.89062 40.9375 10.5469
Q45.7969 14.2031 45.7969 21.1875
Q45.7969 27.6406 41.2812 31.2656
Q36.7656 34.9062 28.7188 34.9062
L20.2188 34.9062
L20.2188 43.0156
L29.1094 43.0156
Q36.375 43.0156 40.2344 45.9219
Q44.0938 48.8281 44.0938 54.2969
Q44.0938 59.9062 40.1094 62.9062
Q36.1406 65.9219 28.7188 65.9219
Q24.6562 65.9219 20.0156 65.0312
Q15.375 64.1562 9.8125 62.3125
L9.8125 71.0938
Q15.4375 72.6562 20.3438 73.4375
Q25.25 74.2188 29.5938 74.2188
Q40.8281 74.2188 47.3594 69.1094
Q53.9062 64.0156 53.9062 55.3281
Q53.9062 49.2656 50.4375 45.0938
Q46.9688 40.9219 40.5781 39.3125" id="DejaVuSans-33"/>
      </defs>
      <g transform="translate(286.599566007 381.859875)scale(0.12 -0.12)">
       <use xlink:href="#DejaVuSans-33"/>
       <use x="63.623046875" xlink:href="#DejaVuSans-30"/>
       <use x="127.24609375" xlink:href="#DejaVuSans-30"/>
      </g>
     </g>
    </g>
    <g id="xtick_5">
     <g id="line2d_25">
      <g>
       <use style="stroke:#000000;stroke-width:0.5;" x="386.655046343" xlink:href="#m93b0483c22" y="368.74175"/>
      </g>
     </g>
     <g id="line2d_26">
      <g>
       <use style="stroke:#000000;stroke-width:0.5;" x="386.655046343" xlink:href="#m741efc42ff" y="23.14175"/>
      </g>
     </g>
     <g id="text_5">
      <!-- 400 -->
      <defs>
       <path d="
M37.7969 64.3125
L12.8906 25.3906
L37.7969 25.3906
z

M35.2031 72.9062
L47.6094 72.9062
L47.6094 25.3906
L58.0156 25.3906
L58.0156 17.1875
L47.6094 17.1875
L47.6094 0
L37.7969 0
L37.7969 17.1875
L4.89062 17.1875
L4.89062 26.7031
z
" id="DejaVuSans-34"/>
      </defs>
      <g transform="translate(375.894421343 381.859875)scale(0.12 -0.12)">
       <use xlink:href="#DejaVuSans-34"/>
       <use x="63.623046875" xlink:href="#DejaVuSans-30"/>
       <use x="127.24609375" xlink:href="#DejaVuSans-30"/>
      </g>
     </g>
    </g>
    <g id="text_6">
     <!-- time -->
     <defs>
      <path d="
M18.3125 70.2188
L18.3125 54.6875
L36.8125 54.6875
L36.8125 47.7031
L18.3125 47.7031
L18.3125 18.0156
Q18.3125 11.3281 20.1406 9.42188
Q21.9688 7.51562 27.5938 7.51562
L36.8125 7.51562
L36.8125 0
L27.5938 0
Q17.1875 0 13.2344 3.875
Q9.28125 7.76562 9.28125 18.0156
L9.28125 47.7031
L2.6875 47.7031
L2.6875 54.6875
L9.28125 54.6875
L9.28125 70.2188
z
" id="DejaVuSans-74"/>
      <path d="
M52 44.1875
Q55.375 50.25 60.0625 53.125
Q64.75 56 71.0938 56
Q79.6406 56 84.2812 50.0156
Q88.9219 44.0469 88.9219 33.0156
L88.9219 0
L79.8906 0
L79.8906 32.7188
Q79.8906 40.5781 77.0938 44.375
Q74.3125 48.1875 68.6094 48.1875
Q61.625 48.1875 57.5625 43.5469
Q53.5156 38.9219 53.5156 30.9062
L53.5156 0
L44.4844 0
L44.4844 32.7188
Q44.4844 40.625 41.7031 44.4062
Q38.9219 48.1875 33.1094 48.1875
Q26.2188 48.1875 22.1562 43.5312
Q18.1094 38.875 18.1094 30.9062
L18.1094 0
L9.07812 0
L9.07812 54.6875
L18.1094 54.6875
L18.1094 46.1875
Q21.1875 51.2188 25.4844 53.6094
Q29.7812 56 35.6875 56
Q41.6562 56 45.8281 52.9688
Q50 49.9531 52 44.1875" id="DejaVuSans-6d"/>
      <path d="
M56.2031 29.5938
L56.2031 25.2031
L14.8906 25.2031
Q15.4844 15.9219 20.4844 11.0625
Q25.4844 6.20312 34.4219 6.20312
Q39.5938 6.20312 44.4531 7.46875
Q49.3125 8.73438 54.1094 11.2812
L54.1094 2.78125
Q49.2656 0.734375 44.1875 -0.34375
Q39.1094 -1.42188 33.8906 -1.42188
Q20.7969 -1.42188 13.1562 6.1875
Q5.51562 13.8125 5.51562 26.8125
Q5.51562 40.2344 12.7656 48.1094
Q20.0156 56 32.3281 56
Q43.3594 56 49.7812 48.8906
Q56.2031 41.7969 56.2031 29.5938
M47.2188 32.2344
Q47.125 39.5938 43.0938 43.9844
Q39.0625 48.3906 32.4219 48.3906
Q24.9062 48.3906 20.3906 44.1406
Q15.875 39.8906 15.1875 32.1719
z
" id="DejaVuSans-65"/>
      <path d="
M9.42188 54.6875
L18.4062 54.6875
L18.4062 0
L9.42188 0
z

M9.42188 75.9844
L18.4062 75.9844
L18.4062 64.5938
L9.42188 64.5938
z
" id="DejaVuSans-69"/>
     </defs>
     <g transform="translate(238.945 398.473625)scale(0.12 -0.12)">
      <use xlink:href="#DejaVuSans-74"/>
      <use x="39.208984375" xlink:href="#DejaVuSans-69"/>
      <use x="66.9921875" xlink:href="#DejaVuSans-6d"/>
      <use x="164.404296875" xlink:href="#DejaVuSans-65"/>
     </g>
    </g>
   </g>
   <g id="matplotlib.axis_2">
    <g id="ytick_1">
     <g id="line2d_27">
      <defs>
       <path d="
M0 0
L4 0" id="m728421d6d4" style="stroke:#000000;stroke-width:0.5;"/>
      </defs>
      <g>
       <use style="stroke:#000000;stroke-width:0.5;" x="28.819375" xlink:href="#m728421d6d4" y="368.74175"/>
      </g>
     </g>
     <g id="line2d_28">
      <defs>
       <path d="
M0 0
L-4 0" id="mcb0005524f" style="stroke:#000000;stroke-width:0.5;"/>
      </defs>
      <g>
       <use style="stroke:#000000;stroke-width:0.5;" x="475.219375" xlink:href="#mcb0005524f" y="368.74175"/>
      </g>
     </g>
     <g id="text_7">
      <!-- 0.0 -->
      <defs>
       <path d="
M10.6875 12.4062
L21 12.4062
L21 0
L10.6875 0
z
" id="DejaVuSans-2e"/>
      </defs>
      <g transform="translate(7.32375 372.053)scale(0.12 -0.12)">
       <use xlink:href="#DejaVuSans-30"/>
       <use x="63.623046875" xlink:href="#DejaVuSans-2e"/>
       <use x="95.41015625" xlink:href="#DejaVuSans-30"/>
      </g>
     </g>
    </g>
    <g id="ytick_2">
     <g id="line2d_29">
      <g>
       <use style="stroke:#000000;stroke-width:0.5;" x="28.819375" xlink:href="#m728421d6d4" y="311.14175"/>
      </g>
     </g>
     <g id="line2d_30">
      <g>
       <use style="stroke:#000000;stroke-width:0.5;" x="475.219375" xlink:href="#mcb0005524f" y="311.14175"/>
      </g>
     </g>
     <g id="text_8">
      <!-- 0.2 -->
      <g transform="translate(7.72875 314.453)scale(0.12 -0.12)">
       <use xlink:href="#DejaVuSans-30"/>
       <use x="63.623046875" xlink:href="#DejaVuSans-2e"/>
       <use x="95.41015625" xlink:href="#DejaVuSans-32"/>
      </g>
     </g>
    </g>
    <g id="ytick_3">
     <g id="line2d_31">
      <g>
       <use style="stroke:#000000;stroke-width:0.5;" x="28.819375" xlink:href="#m728421d6d4" y="253.54175"/>
      </g>
     </g>
     <g id="line2d_32">
      <g>
       <use style="stroke:#000000;stroke-width:0.5;" x="475.219375" xlink:href="#mcb0005524f" y="253.54175"/>
      </g>
     </g>
     <g id="text_9">
      <!-- 0.4 -->
      <g transform="translate(7.2 256.853)scale(0.12 -0.12)">
       <use xlink:href="#DejaVuSans-30"/>
       <use x="63.623046875" xlink:href="#DejaVuSans-2e"/>
       <use x="95.41015625" xlink:href="#DejaVuSans-34"/>
      </g>
     </g>
    </g>
    <g id="ytick_4">
     <g id="line2d_33">
      <g>
       <use style="stroke:#000000;stroke-width:0.5;" x="28.819375" xlink:href="#m728421d6d4" y="195.94175"/>
      </g>
     </g>
     <g id="line2d_34">
      <g>
       <use style="stroke:#000000;stroke-width:0.5;" x="475.219375" xlink:href="#mcb0005524f" y="195.94175"/>
      </g>
     </g>
     <g id="text_10">
      <!-- 0.6 -->
      <defs>
       <path d="
M33.0156 40.375
Q26.375 40.375 22.4844 35.8281
Q18.6094 31.2969 18.6094 23.3906
Q18.6094 15.5312 22.4844 10.9531
Q26.375 6.39062 33.0156 6.39062
Q39.6562 6.39062 43.5312 10.9531
Q47.4062 15.5312 47.4062 23.3906
Q47.4062 31.2969 43.5312 35.8281
Q39.6562 40.375 33.0156 40.375
M52.5938 71.2969
L52.5938 62.3125
Q48.875 64.0625 45.0938 64.9844
Q41.3125 65.9219 37.5938 65.9219
Q27.8281 65.9219 22.6719 59.3281
Q17.5312 52.7344 16.7969 39.4062
Q19.6719 43.6562 24.0156 45.9219
Q28.375 48.1875 33.5938 48.1875
Q44.5781 48.1875 50.9531 41.5156
Q57.3281 34.8594 57.3281 23.3906
Q57.3281 12.1562 50.6875 5.35938
Q44.0469 -1.42188 33.0156 -1.42188
Q20.3594 -1.42188 13.6719 8.26562
Q6.98438 17.9688 6.98438 36.375
Q6.98438 53.6562 15.1875 63.9375
Q23.3906 74.2188 37.2031 74.2188
Q40.9219 74.2188 44.7031 73.4844
Q48.4844 72.75 52.5938 71.2969" id="DejaVuSans-36"/>
      </defs>
      <g transform="translate(7.2825 199.253)scale(0.12 -0.12)">
       <use xlink:href="#DejaVuSans-30"/>
       <use x="63.623046875" xlink:href="#DejaVuSans-2e"/>
       <use x="95.41015625" xlink:href="#DejaVuSans-36"/>
      </g>
     </g>
    </g>
    <g id="ytick_5">
     <g id="line2d_35">
      <g>
       <use style="stroke:#000000;stroke-width:0.5;" x="28.819375" xlink:href="#m728421d6d4" y="138.34175"/>
      </g>
     </g>
     <g id="line2d_36">
      <g>
       <use style="stroke:#000000;stroke-width:0.5;" x="475.219375" xlink:href="#mcb0005524f" y="138.34175"/>
      </g>
     </g>
     <g id="text_11">
      <!-- 0.8 -->
      <defs>
       <path d="
M31.7812 34.625
Q24.75 34.625 20.7188 30.8594
Q16.7031 27.0938 16.7031 20.5156
Q16.7031 13.9219 20.7188 10.1562
Q24.75 6.39062 31.7812 6.39062
Q38.8125 6.39062 42.8594 10.1719
Q46.9219 13.9688 46.9219 20.5156
Q46.9219 27.0938 42.8906 30.8594
Q38.875 34.625 31.7812 34.625
M21.9219 38.8125
Q15.5781 40.375 12.0312 44.7188
Q8.5 49.0781 8.5 55.3281
Q8.5 64.0625 14.7188 69.1406
Q20.9531 74.2188 31.7812 74.2188
Q42.6719 74.2188 48.875 69.1406
Q55.0781 64.0625 55.0781 55.3281
Q55.0781 49.0781 51.5312 44.7188
Q48 40.375 41.7031 38.8125
Q48.8281 37.1562 52.7969 32.3125
Q56.7812 27.4844 56.7812 20.5156
Q56.7812 9.90625 50.3125 4.23438
Q43.8438 -1.42188 31.7812 -1.42188
Q19.7344 -1.42188 13.25 4.23438
Q6.78125 9.90625 6.78125 20.5156
Q6.78125 27.4844 10.7812 32.3125
Q14.7969 37.1562 21.9219 38.8125
M18.3125 54.3906
Q18.3125 48.7344 21.8438 45.5625
Q25.3906 42.3906 31.7812 42.3906
Q38.1406 42.3906 41.7188 45.5625
Q45.3125 48.7344 45.3125 54.3906
Q45.3125 60.0625 41.7188 63.2344
Q38.1406 66.4062 31.7812 66.4062
Q25.3906 66.4062 21.8438 63.2344
Q18.3125 60.0625 18.3125 54.3906" id="DejaVuSans-38"/>
      </defs>
      <g transform="translate(7.348125 141.653)scale(0.12 -0.12)">
       <use xlink:href="#DejaVuSans-30"/>
       <use x="63.623046875" xlink:href="#DejaVuSans-2e"/>
       <use x="95.41015625" xlink:href="#DejaVuSans-38"/>
      </g>
     </g>
    </g>
    <g id="ytick_6">
     <g id="line2d_37">
      <g>
       <use style="stroke:#000000;stroke-width:0.5;" x="28.819375" xlink:href="#m728421d6d4" y="80.74175"/>
      </g>
     </g>
     <g id="line2d_38">
      <g>
       <use style="stroke:#000000;stroke-width:0.5;" x="475.219375" xlink:href="#mcb0005524f" y="80.74175"/>
      </g>
     </g>
     <g id="text_12">
      <!-- 1.0 -->
      <g transform="translate(7.850625 84.053)scale(0.12 -0.12)">
       <use xlink:href="#DejaVuSans-31"/>
       <use x="63.623046875" xlink:href="#DejaVuSans-2e"/>
       <use x="95.41015625" xlink:href="#DejaVuSans-30"/>
      </g>
     </g>
    </g>
    <g id="ytick_7">
     <g id="line2d_39">
      <g>
       <use style="stroke:#000000;stroke-width:0.5;" x="28.819375" xlink:href="#m728421d6d4" y="23.14175"/>
      </g>
     </g>
     <g id="line2d_40">
      <g>
       <use style="stroke:#000000;stroke-width:0.5;" x="475.219375" xlink:href="#mcb0005524f" y="23.14175"/>
      </g>
     </g>
     <g id="text_13">
      <!-- 1.2 -->
      <g transform="translate(8.255625 26.453)scale(0.12 -0.12)">
       <use xlink:href="#DejaVuSans-31"/>
       <use x="63.623046875" xlink:href="#DejaVuSans-2e"/>
       <use x="95.41015625" xlink:href="#DejaVuSans-32"/>
      </g>
     </g>
    </g>
    <g id="text_14">
     <!-- 1e11 -->
     <g transform="translate(28.819375 20.14175)scale(0.12 -0.12)">
      <use xlink:href="#DejaVuSans-31"/>
      <use x="63.623046875" xlink:href="#DejaVuSans-65"/>
      <use x="125.146484375" xlink:href="#DejaVuSans-31"/>
      <use x="188.76953125" xlink:href="#DejaVuSans-31"/>
     </g>
    </g>
   </g>
   <g id="text_15">
    <!-- /agas/primary/time -->
    <defs>
     <path d="
M25.3906 72.9062
L33.6875 72.9062
L8.29688 -9.28125
L0 -9.28125
z
" id="DejaVuSans-2f"/>
     <path d="
M32.1719 -5.07812
Q28.375 -14.8438 24.75 -17.8125
Q21.1406 -20.7969 15.0938 -20.7969
L7.90625 -20.7969
L7.90625 -13.2812
L13.1875 -13.2812
Q16.8906 -13.2812 18.9375 -11.5156
Q21 -9.76562 23.4844 -3.21875
L25.0938 0.875
L2.98438 54.6875
L12.5 54.6875
L29.5938 11.9219
L46.6875 54.6875
L56.2031 54.6875
z
" id="DejaVuSans-79"/>
     <path d="
M45.4062 27.9844
Q45.4062 37.75 41.375 43.1094
Q37.3594 48.4844 30.0781 48.4844
Q22.8594 48.4844 18.8281 43.1094
Q14.7969 37.75 14.7969 27.9844
Q14.7969 18.2656 18.8281 12.8906
Q22.8594 7.51562 30.0781 7.51562
Q37.3594 7.51562 41.375 12.8906
Q45.4062 18.2656 45.4062 27.9844
M54.3906 6.78125
Q54.3906 -7.17188 48.1875 -13.9844
Q42 -20.7969 29.2031 -20.7969
Q24.4688 -20.7969 20.2656 -20.0938
Q16.0625 -19.3906 12.1094 -17.9219
L12.1094 -9.1875
Q16.0625 -11.3281 19.9219 -12.3438
Q23.7812 -13.375 27.7812 -13.375
Q36.625 -13.375 41.0156 -8.76562
Q45.4062 -4.15625 45.4062 5.17188
L45.4062 9.625
Q42.625 4.78125 38.2812 2.39062
Q33.9375 0 27.875 0
Q17.8281 0 11.6719 7.65625
Q5.51562 15.3281 5.51562 27.9844
Q5.51562 40.6719 11.6719 48.3281
Q17.8281 56 27.875 56
Q33.9375 56 38.2812 53.6094
Q42.625 51.2188 45.4062 46.3906
L45.4062 54.6875
L54.3906 54.6875
z
" id="DejaVuSans-67"/>
     <path d="
M34.2812 27.4844
Q23.3906 27.4844 19.1875 25
Q14.9844 22.5156 14.9844 16.5
Q14.9844 11.7188 18.1406 8.90625
Q21.2969 6.10938 26.7031 6.10938
Q34.1875 6.10938 38.7031 11.4062
Q43.2188 16.7031 43.2188 25.4844
L43.2188 27.4844
z

M52.2031 31.2031
L52.2031 0
L43.2188 0
L43.2188 8.29688
Q40.1406 3.32812 35.5469 0.953125
Q30.9531 -1.42188 24.3125 -1.42188
Q15.9219 -1.42188 10.9531 3.29688
Q6 8.01562 6 15.9219
Q6 25.1406 12.1719 29.8281
Q18.3594 34.5156 30.6094 34.5156
L43.2188 34.5156
L43.2188 35.4062
Q43.2188 41.6094 39.1406 45
Q35.0625 48.3906 27.6875 48.3906
Q23 48.3906 18.5469 47.2656
Q14.1094 46.1406 10.0156 43.8906
L10.0156 52.2031
Q14.9375 54.1094 19.5781 55.0469
Q24.2188 56 28.6094 56
Q40.4844 56 46.3438 49.8438
Q52.2031 43.7031 52.2031 31.2031" id="DejaVuSans-61"/>
     <path d="
M18.1094 8.20312
L18.1094 -20.7969
L9.07812 -20.7969
L9.07812 54.6875
L18.1094 54.6875
L18.1094 46.3906
Q20.9531 51.2656 25.2656 53.625
Q29.5938 56 35.5938 56
Q45.5625 56 51.7812 48.0938
Q58.0156 40.1875 58.0156 27.2969
Q58.0156 14.4062 51.7812 6.48438
Q45.5625 -1.42188 35.5938 -1.42188
Q29.5938 -1.42188 25.2656 0.953125
Q20.9531 3.32812 18.1094 8.20312
M48.6875 27.2969
Q48.6875 37.2031 44.6094 42.8438
Q40.5312 48.4844 33.4062 48.4844
Q26.2656 48.4844 22.1875 42.8438
Q18.1094 37.2031 18.1094 27.2969
Q18.1094 17.3906 22.1875 11.75
Q26.2656 6.10938 33.4062 6.10938
Q40.5312 6.10938 44.6094 11.75
Q48.6875 17.3906 48.6875 27.2969" id="DejaVuSans-70"/>
     <path d="
M44.2812 53.0781
L44.2812 44.5781
Q40.4844 46.5312 36.375 47.5
Q32.2812 48.4844 27.875 48.4844
Q21.1875 48.4844 17.8438 46.4375
Q14.5 44.3906 14.5 40.2812
Q14.5 37.1562 16.8906 35.375
Q19.2812 33.5938 26.5156 31.9844
L29.5938 31.2969
Q39.1562 29.25 43.1875 25.5156
Q47.2188 21.7812 47.2188 15.0938
Q47.2188 7.46875 41.1875 3.01562
Q35.1562 -1.42188 24.6094 -1.42188
Q20.2188 -1.42188 15.4531 -0.5625
Q10.6875 0.296875 5.42188 2
L5.42188 11.2812
Q10.4062 8.6875 15.2344 7.39062
Q20.0625 6.10938 24.8125 6.10938
Q31.1562 6.10938 34.5625 8.28125
Q37.9844 10.4531 37.9844 14.4062
Q37.9844 18.0625 35.5156 20.0156
Q33.0625 21.9688 24.7031 23.7812
L21.5781 24.5156
Q13.2344 26.2656 9.51562 29.9062
Q5.8125 33.5469 5.8125 39.8906
Q5.8125 47.6094 11.2812 51.7969
Q16.75 56 26.8125 56
Q31.7812 56 36.1719 55.2656
Q40.5781 54.5469 44.2812 53.0781" id="DejaVuSans-73"/>
     <path d="
M41.1094 46.2969
Q39.5938 47.1719 37.8125 47.5781
Q36.0312 48 33.8906 48
Q26.2656 48 22.1875 43.0469
Q18.1094 38.0938 18.1094 28.8125
L18.1094 0
L9.07812 0
L9.07812 54.6875
L18.1094 54.6875
L18.1094 46.1875
Q20.9531 51.1719 25.4844 53.5781
Q30.0312 56 36.5312 56
Q37.4531 56 38.5781 55.875
Q39.7031 55.7656 41.0625 55.5156
z
" id="DejaVuSans-72"/>
    </defs>
    <g transform="translate(183.536125 18.14175)scale(0.144 -0.144)">
     <use xlink:href="#DejaVuSans-2f"/>
     <use x="33.69140625" xlink:href="#DejaVuSans-61"/>
     <use x="94.970703125" xlink:href="#DejaVuSans-67"/>
     <use x="158.447265625" xlink:href="#DejaVuSans-61"/>
     <use x="219.7265625" xlink:href="#DejaVuSans-73"/>
     <use x="271.826171875" xlink:href="#DejaVuSans-2f"/>
     <use x="305.517578125" xlink:href="#DejaVuSans-70"/>
     <use x="368.994140625" xlink:href="#DejaVuSans-72"/>
     <use x="410.107421875" xlink:href="#DejaVuSans-69"/>
     <use x="437.890625" xlink:href="#DejaVuSans-6d"/>
     <use x="535.302734375" xlink:href="#DejaVuSans-61"/>
     <use x="596.58203125" xlink:href="#DejaVuSans-72"/>
     <use x="637.6953125" xlink:href="#DejaVuSans-79"/>
     <use x="696.875" xlink:href="#DejaVuSans-2f"/>
     <use x="730.56640625" xlink:href="#DejaVuSans-74"/>
     <use x="769.775390625" xlink:href="#DejaVuSans-69"/>
     <use x="797.55859375" xlink:href="#DejaVuSans-6d"/>
     <use x="894.970703125" xlink:href="#DejaVuSans-65"/>
    </g>
   </g>
   <g id="legend_1">
    <g id="patch_7">
     <path d="
M482.419 367.194
L614.209 367.194
L614.209 24.6897
L482.419 24.6897
z
" style="fill:#ffffff;stroke:#000000;stroke-linejoin:miter;"/>
    </g>
    <g id="line2d_41">
     <path d="
M492.499 36.3515
L512.659 36.3515" style="fill:none;stroke:#0000ff;stroke-linecap:square;"/>
    </g>
    <g id="line2d_42"/>
    <g id="text_16">
     <!-- locality#0 -->
     <defs>
      <path d="
M30.6094 48.3906
Q23.3906 48.3906 19.1875 42.75
Q14.9844 37.1094 14.9844 27.2969
Q14.9844 17.4844 19.1562 11.8438
Q23.3438 6.20312 30.6094 6.20312
Q37.7969 6.20312 41.9844 11.8594
Q46.1875 17.5312 46.1875 27.2969
Q46.1875 37.0156 41.9844 42.7031
Q37.7969 48.3906 30.6094 48.3906
M30.6094 56
Q42.3281 56 49.0156 48.375
Q55.7188 40.7656 55.7188 27.2969
Q55.7188 13.875 49.0156 6.21875
Q42.3281 -1.42188 30.6094 -1.42188
Q18.8438 -1.42188 12.1719 6.21875
Q5.51562 13.875 5.51562 27.2969
Q5.51562 40.7656 12.1719 48.375
Q18.8438 56 30.6094 56" id="DejaVuSans-6f"/>
      <path d="
M51.125 44
L36.9219 44
L32.8125 27.6875
L47.125 27.6875
z

M43.7969 71.7812
L38.7188 51.5156
L52.9844 51.5156
L58.1094 71.7812
L65.9219 71.7812
L60.8906 51.5156
L76.125 51.5156
L76.125 44
L58.9844 44
L54.9844 27.6875
L70.5156 27.6875
L70.5156 20.2188
L53.0781 20.2188
L48 0
L40.1875 0
L45.2188 20.2188
L30.9062 20.2188
L25.875 0
L18.0156 0
L23.0938 20.2188
L7.71875 20.2188
L7.71875 27.6875
L24.9062 27.6875
L29 44
L13.2812 44
L13.2812 51.5156
L30.9062 51.5156
L35.8906 71.7812
z
" id="DejaVuSans-23"/>
      <path d="
M9.42188 75.9844
L18.4062 75.9844
L18.4062 0
L9.42188 0
z
" id="DejaVuSans-6c"/>
      <path d="
M48.7812 52.5938
L48.7812 44.1875
Q44.9688 46.2969 41.1406 47.3438
Q37.3125 48.3906 33.4062 48.3906
Q24.6562 48.3906 19.8125 42.8438
Q14.9844 37.3125 14.9844 27.2969
Q14.9844 17.2812 19.8125 11.7344
Q24.6562 6.20312 33.4062 6.20312
Q37.3125 6.20312 41.1406 7.25
Q44.9688 8.29688 48.7812 10.4062
L48.7812 2.09375
Q45.0156 0.34375 40.9844 -0.53125
Q36.9688 -1.42188 32.4219 -1.42188
Q20.0625 -1.42188 12.7812 6.34375
Q5.51562 14.1094 5.51562 27.2969
Q5.51562 40.6719 12.8594 48.3281
Q20.2188 56 33.0156 56
Q37.1562 56 41.1094 55.1406
Q45.0625 54.2969 48.7812 52.5938" id="DejaVuSans-63"/>
     </defs>
     <g transform="translate(528.499375 41.3915)scale(0.144 -0.144)">
      <use xlink:href="#DejaVuSans-6c"/>
      <use x="27.783203125" xlink:href="#DejaVuSans-6f"/>
      <use x="88.96484375" xlink:href="#DejaVuSans-63"/>
      <use x="143.9453125" xlink:href="#DejaVuSans-61"/>
      <use x="205.224609375" xlink:href="#DejaVuSans-6c"/>
      <use x="233.0078125" xlink:href="#DejaVuSans-69"/>
      <use x="260.791015625" xlink:href="#DejaVuSans-74"/>
      <use x="300.0" xlink:href="#DejaVuSans-79"/>
      <use x="359.1796875" xlink:href="#DejaVuSans-23"/>
      <use x="442.96875" xlink:href="#DejaVuSans-30"/>
     </g>
    </g>
    <g id="line2d_43">
     <path d="
M492.499 57.488
L512.659 57.488" style="fill:none;stroke:#008000;stroke-linecap:square;"/>
    </g>
    <g id="line2d_44"/>
    <g id="text_17">
     <!-- locality#1 -->
     <g transform="translate(528.499375 62.528)scale(0.144 -0.144)">
      <use xlink:href="#DejaVuSans-6c"/>
      <use x="27.783203125" xlink:href="#DejaVuSans-6f"/>
      <use x="88.96484375" xlink:href="#DejaVuSans-63"/>
      <use x="143.9453125" xlink:href="#DejaVuSans-61"/>
      <use x="205.224609375" xlink:href="#DejaVuSans-6c"/>
      <use x="233.0078125" xlink:href="#DejaVuSans-69"/>
      <use x="260.791015625" xlink:href="#DejaVuSans-74"/>
      <use x="300.0" xlink:href="#DejaVuSans-79"/>
      <use x="359.1796875" xlink:href="#DejaVuSans-23"/>
      <use x="442.96875" xlink:href="#DejaVuSans-31"/>
     </g>
    </g>
    <g id="line2d_45">
     <path d="
M492.499 78.6245
L512.659 78.6245" style="fill:none;stroke:#ff0000;stroke-linecap:square;"/>
    </g>
    <g id="line2d_46"/>
    <g id="text_18">
     <!-- locality#10 -->
     <g transform="translate(528.499375 83.6645)scale(0.144 -0.144)">
      <use xlink:href="#DejaVuSans-6c"/>
      <use x="27.783203125" xlink:href="#DejaVuSans-6f"/>
      <use x="88.96484375" xlink:href="#DejaVuSans-63"/>
      <use x="143.9453125" xlink:href="#DejaVuSans-61"/>
      <use x="205.224609375" xlink:href="#DejaVuSans-6c"/>
      <use x="233.0078125" xlink:href="#DejaVuSans-69"/>
      <use x="260.791015625" xlink:href="#DejaVuSans-74"/>
      <use x="300.0" xlink:href="#DejaVuSans-79"/>
      <use x="359.1796875" xlink:href="#DejaVuSans-23"/>
      <use x="442.96875" xlink:href="#DejaVuSans-31"/>
      <use x="506.591796875" xlink:href="#DejaVuSans-30"/>
     </g>
    </g>
    <g id="line2d_47">
     <path d="
M492.499 99.761
L512.659 99.761" style="fill:none;stroke:#00bfbf;stroke-linecap:square;"/>
    </g>
    <g id="line2d_48"/>
    <g id="text_19">
     <!-- locality#11 -->
     <g transform="translate(528.499375 104.801)scale(0.144 -0.144)">
      <use xlink:href="#DejaVuSans-6c"/>
      <use x="27.783203125" xlink:href="#DejaVuSans-6f"/>
      <use x="88.96484375" xlink:href="#DejaVuSans-63"/>
      <use x="143.9453125" xlink:href="#DejaVuSans-61"/>
      <use x="205.224609375" xlink:href="#DejaVuSans-6c"/>
      <use x="233.0078125" xlink:href="#DejaVuSans-69"/>
      <use x="260.791015625" xlink:href="#DejaVuSans-74"/>
      <use x="300.0" xlink:href="#DejaVuSans-79"/>
      <use x="359.1796875" xlink:href="#DejaVuSans-23"/>
      <use x="442.96875" xlink:href="#DejaVuSans-31"/>
      <use x="506.591796875" xlink:href="#DejaVuSans-31"/>
     </g>
    </g>
    <g id="line2d_49">
     <path d="
M492.499 120.897
L512.659 120.897" style="fill:none;stroke:#bf00bf;stroke-linecap:square;"/>
    </g>
    <g id="line2d_50"/>
    <g id="text_20">
     <!-- locality#12 -->
     <g transform="translate(528.499375 125.9375)scale(0.144 -0.144)">
      <use xlink:href="#DejaVuSans-6c"/>
      <use x="27.783203125" xlink:href="#DejaVuSans-6f"/>
      <use x="88.96484375" xlink:href="#DejaVuSans-63"/>
      <use x="143.9453125" xlink:href="#DejaVuSans-61"/>
      <use x="205.224609375" xlink:href="#DejaVuSans-6c"/>
      <use x="233.0078125" xlink:href="#DejaVuSans-69"/>
      <use x="260.791015625" xlink:href="#DejaVuSans-74"/>
      <use x="300.0" xlink:href="#DejaVuSans-79"/>
      <use x="359.1796875" xlink:href="#DejaVuSans-23"/>
      <use x="442.96875" xlink:href="#DejaVuSans-31"/>
      <use x="506.591796875" xlink:href="#DejaVuSans-32"/>
     </g>
    </g>
    <g id="line2d_51">
     <path d="
M492.499 142.034
L512.659 142.034" style="fill:none;stroke:#bfbf00;stroke-linecap:square;"/>
    </g>
    <g id="line2d_52"/>
    <g id="text_21">
     <!-- locality#13 -->
     <g transform="translate(528.499375 147.074)scale(0.144 -0.144)">
      <use xlink:href="#DejaVuSans-6c"/>
      <use x="27.783203125" xlink:href="#DejaVuSans-6f"/>
      <use x="88.96484375" xlink:href="#DejaVuSans-63"/>
      <use x="143.9453125" xlink:href="#DejaVuSans-61"/>
      <use x="205.224609375" xlink:href="#DejaVuSans-6c"/>
      <use x="233.0078125" xlink:href="#DejaVuSans-69"/>
      <use x="260.791015625" xlink:href="#DejaVuSans-74"/>
      <use x="300.0" xlink:href="#DejaVuSans-79"/>
      <use x="359.1796875" xlink:href="#DejaVuSans-23"/>
      <use x="442.96875" xlink:href="#DejaVuSans-31"/>
      <use x="506.591796875" xlink:href="#DejaVuSans-33"/>
     </g>
    </g>
    <g id="line2d_53">
     <path d="
M492.499 163.17
L512.659 163.17" style="fill:none;stroke:#000000;stroke-linecap:square;"/>
    </g>
    <g id="line2d_54"/>
    <g id="text_22">
     <!-- locality#14 -->
     <g transform="translate(528.499375 168.2105)scale(0.144 -0.144)">
      <use xlink:href="#DejaVuSans-6c"/>
      <use x="27.783203125" xlink:href="#DejaVuSans-6f"/>
      <use x="88.96484375" xlink:href="#DejaVuSans-63"/>
      <use x="143.9453125" xlink:href="#DejaVuSans-61"/>
      <use x="205.224609375" xlink:href="#DejaVuSans-6c"/>
      <use x="233.0078125" xlink:href="#DejaVuSans-69"/>
      <use x="260.791015625" xlink:href="#DejaVuSans-74"/>
      <use x="300.0" xlink:href="#DejaVuSans-79"/>
      <use x="359.1796875" xlink:href="#DejaVuSans-23"/>
      <use x="442.96875" xlink:href="#DejaVuSans-31"/>
      <use x="506.591796875" xlink:href="#DejaVuSans-34"/>
     </g>
    </g>
    <g id="line2d_55">
     <path d="
M492.499 184.307
L512.659 184.307" style="fill:none;stroke:#0000ff;stroke-linecap:square;"/>
    </g>
    <g id="line2d_56"/>
    <g id="text_23">
     <!-- locality#15 -->
     <defs>
      <path d="
M10.7969 72.9062
L49.5156 72.9062
L49.5156 64.5938
L19.8281 64.5938
L19.8281 46.7344
Q21.9688 47.4688 24.1094 47.8281
Q26.2656 48.1875 28.4219 48.1875
Q40.625 48.1875 47.75 41.5
Q54.8906 34.8125 54.8906 23.3906
Q54.8906 11.625 47.5625 5.09375
Q40.2344 -1.42188 26.9062 -1.42188
Q22.3125 -1.42188 17.5469 -0.640625
Q12.7969 0.140625 7.71875 1.70312
L7.71875 11.625
Q12.1094 9.23438 16.7969 8.0625
Q21.4844 6.89062 26.7031 6.89062
Q35.1562 6.89062 40.0781 11.3281
Q45.0156 15.7656 45.0156 23.3906
Q45.0156 31 40.0781 35.4375
Q35.1562 39.8906 26.7031 39.8906
Q22.75 39.8906 18.8125 39.0156
Q14.8906 38.1406 10.7969 36.2812
z
" id="DejaVuSans-35"/>
     </defs>
     <g transform="translate(528.499375 189.347)scale(0.144 -0.144)">
      <use xlink:href="#DejaVuSans-6c"/>
      <use x="27.783203125" xlink:href="#DejaVuSans-6f"/>
      <use x="88.96484375" xlink:href="#DejaVuSans-63"/>
      <use x="143.9453125" xlink:href="#DejaVuSans-61"/>
      <use x="205.224609375" xlink:href="#DejaVuSans-6c"/>
      <use x="233.0078125" xlink:href="#DejaVuSans-69"/>
      <use x="260.791015625" xlink:href="#DejaVuSans-74"/>
      <use x="300.0" xlink:href="#DejaVuSans-79"/>
      <use x="359.1796875" xlink:href="#DejaVuSans-23"/>
      <use x="442.96875" xlink:href="#DejaVuSans-31"/>
      <use x="506.591796875" xlink:href="#DejaVuSans-35"/>
     </g>
    </g>
    <g id="line2d_57">
     <path d="
M492.499 205.443
L512.659 205.443" style="fill:none;stroke:#008000;stroke-linecap:square;"/>
    </g>
    <g id="line2d_58"/>
    <g id="text_24">
     <!-- locality#2 -->
     <g transform="translate(528.499375 210.4835)scale(0.144 -0.144)">
      <use xlink:href="#DejaVuSans-6c"/>
      <use x="27.783203125" xlink:href="#DejaVuSans-6f"/>
      <use x="88.96484375" xlink:href="#DejaVuSans-63"/>
      <use x="143.9453125" xlink:href="#DejaVuSans-61"/>
      <use x="205.224609375" xlink:href="#DejaVuSans-6c"/>
      <use x="233.0078125" xlink:href="#DejaVuSans-69"/>
      <use x="260.791015625" xlink:href="#DejaVuSans-74"/>
      <use x="300.0" xlink:href="#DejaVuSans-79"/>
      <use x="359.1796875" xlink:href="#DejaVuSans-23"/>
      <use x="442.96875" xlink:href="#DejaVuSans-32"/>
     </g>
    </g>
    <g id="line2d_59">
     <path d="
M492.499 226.58
L512.659 226.58" style="fill:none;stroke:#ff0000;stroke-linecap:square;"/>
    </g>
    <g id="line2d_60"/>
    <g id="text_25">
     <!-- locality#3 -->
     <g transform="translate(528.499375 231.62)scale(0.144 -0.144)">
      <use xlink:href="#DejaVuSans-6c"/>
      <use x="27.783203125" xlink:href="#DejaVuSans-6f"/>
      <use x="88.96484375" xlink:href="#DejaVuSans-63"/>
      <use x="143.9453125" xlink:href="#DejaVuSans-61"/>
      <use x="205.224609375" xlink:href="#DejaVuSans-6c"/>
      <use x="233.0078125" xlink:href="#DejaVuSans-69"/>
      <use x="260.791015625" xlink:href="#DejaVuSans-74"/>
      <use x="300.0" xlink:href="#DejaVuSans-79"/>
      <use x="359.1796875" xlink:href="#DejaVuSans-23"/>
      <use x="442.96875" xlink:href="#DejaVuSans-33"/>
     </g>
    </g>
    <g id="line2d_61">
     <path d="
M492.499 247.716
L512.659 247.716" style="fill:none;stroke:#00bfbf;stroke-linecap:square;"/>
    </g>
    <g id="line2d_62"/>
    <g id="text_26">
     <!-- locality#4 -->
     <g transform="translate(528.499375 252.7565)scale(0.144 -0.144)">
      <use xlink:href="#DejaVuSans-6c"/>
      <use x="27.783203125" xlink:href="#DejaVuSans-6f"/>
      <use x="88.96484375" xlink:href="#DejaVuSans-63"/>
      <use x="143.9453125" xlink:href="#DejaVuSans-61"/>
      <use x="205.224609375" xlink:href="#DejaVuSans-6c"/>
      <use x="233.0078125" xlink:href="#DejaVuSans-69"/>
      <use x="260.791015625" xlink:href="#DejaVuSans-74"/>
      <use x="300.0" xlink:href="#DejaVuSans-79"/>
      <use x="359.1796875" xlink:href="#DejaVuSans-23"/>
      <use x="442.96875" xlink:href="#DejaVuSans-34"/>
     </g>
    </g>
    <g id="line2d_63">
     <path d="
M492.499 268.853
L512.659 268.853" style="fill:none;stroke:#bf00bf;stroke-linecap:square;"/>
    </g>
    <g id="line2d_64"/>
    <g id="text_27">
     <!-- locality#5 -->
     <g transform="translate(528.499375 273.893)scale(0.144 -0.144)">
      <use xlink:href="#DejaVuSans-6c"/>
      <use x="27.783203125" xlink:href="#DejaVuSans-6f"/>
      <use x="88.96484375" xlink:href="#DejaVuSans-63"/>
      <use x="143.9453125" xlink:href="#DejaVuSans-61"/>
      <use x="205.224609375" xlink:href="#DejaVuSans-6c"/>
      <use x="233.0078125" xlink:href="#DejaVuSans-69"/>
      <use x="260.791015625" xlink:href="#DejaVuSans-74"/>
      <use x="300.0" xlink:href="#DejaVuSans-79"/>
      <use x="359.1796875" xlink:href="#DejaVuSans-23"/>
      <use x="442.96875" xlink:href="#DejaVuSans-35"/>
     </g>
    </g>
    <g id="line2d_65">
     <path d="
M492.499 289.989
L512.659 289.989" style="fill:none;stroke:#bfbf00;stroke-linecap:square;"/>
    </g>
    <g id="line2d_66"/>
    <g id="text_28">
     <!-- locality#6 -->
     <g transform="translate(528.499375 295.0295)scale(0.144 -0.144)">
      <use xlink:href="#DejaVuSans-6c"/>
      <use x="27.783203125" xlink:href="#DejaVuSans-6f"/>
      <use x="88.96484375" xlink:href="#DejaVuSans-63"/>
      <use x="143.9453125" xlink:href="#DejaVuSans-61"/>
      <use x="205.224609375" xlink:href="#DejaVuSans-6c"/>
      <use x="233.0078125" xlink:href="#DejaVuSans-69"/>
      <use x="260.791015625" xlink:href="#DejaVuSans-74"/>
      <use x="300.0" xlink:href="#DejaVuSans-79"/>
      <use x="359.1796875" xlink:href="#DejaVuSans-23"/>
      <use x="442.96875" xlink:href="#DejaVuSans-36"/>
     </g>
    </g>
    <g id="line2d_67">
     <path d="
M492.499 311.126
L512.659 311.126" style="fill:none;stroke:#000000;stroke-linecap:square;"/>
    </g>
    <g id="line2d_68"/>
    <g id="text_29">
     <!-- locality#7 -->
     <defs>
      <path d="
M8.20312 72.9062
L55.0781 72.9062
L55.0781 68.7031
L28.6094 0
L18.3125 0
L43.2188 64.5938
L8.20312 64.5938
z
" id="DejaVuSans-37"/>
     </defs>
     <g transform="translate(528.499375 316.166)scale(0.144 -0.144)">
      <use xlink:href="#DejaVuSans-6c"/>
      <use x="27.783203125" xlink:href="#DejaVuSans-6f"/>
      <use x="88.96484375" xlink:href="#DejaVuSans-63"/>
      <use x="143.9453125" xlink:href="#DejaVuSans-61"/>
      <use x="205.224609375" xlink:href="#DejaVuSans-6c"/>
      <use x="233.0078125" xlink:href="#DejaVuSans-69"/>
      <use x="260.791015625" xlink:href="#DejaVuSans-74"/>
      <use x="300.0" xlink:href="#DejaVuSans-79"/>
      <use x="359.1796875" xlink:href="#DejaVuSans-23"/>
      <use x="442.96875" xlink:href="#DejaVuSans-37"/>
     </g>
    </g>
    <g id="line2d_69">
     <path d="
M492.499 332.262
L512.659 332.262" style="fill:none;stroke:#0000ff;stroke-linecap:square;"/>
    </g>
    <g id="line2d_70"/>
    <g id="text_30">
     <!-- locality#8 -->
     <g transform="translate(528.499375 337.3025)scale(0.144 -0.144)">
      <use xlink:href="#DejaVuSans-6c"/>
      <use x="27.783203125" xlink:href="#DejaVuSans-6f"/>
      <use x="88.96484375" xlink:href="#DejaVuSans-63"/>
      <use x="143.9453125" xlink:href="#DejaVuSans-61"/>
      <use x="205.224609375" xlink:href="#DejaVuSans-6c"/>
      <use x="233.0078125" xlink:href="#DejaVuSans-69"/>
      <use x="260.791015625" xlink:href="#DejaVuSans-74"/>
      <use x="300.0" xlink:href="#DejaVuSans-79"/>
      <use x="359.1796875" xlink:href="#DejaVuSans-23"/>
      <use x="442.96875" xlink:href="#DejaVuSans-38"/>
     </g>
    </g>
    <g id="line2d_71">
     <path d="
M492.499 353.399
L512.659 353.399" style="fill:none;stroke:#008000;stroke-linecap:square;"/>
    </g>
    <g id="line2d_72"/>
    <g id="text_31">
     <!-- locality#9 -->
     <defs>
      <path d="
M10.9844 1.51562
L10.9844 10.5
Q14.7031 8.73438 18.5 7.8125
Q22.3125 6.89062 25.9844 6.89062
Q35.75 6.89062 40.8906 13.4531
Q46.0469 20.0156 46.7812 33.4062
Q43.9531 29.2031 39.5938 26.9531
Q35.25 24.7031 29.9844 24.7031
Q19.0469 24.7031 12.6719 31.3125
Q6.29688 37.9375 6.29688 49.4219
Q6.29688 60.6406 12.9375 67.4219
Q19.5781 74.2188 30.6094 74.2188
Q43.2656 74.2188 49.9219 64.5156
Q56.5938 54.8281 56.5938 36.375
Q56.5938 19.1406 48.4062 8.85938
Q40.2344 -1.42188 26.4219 -1.42188
Q22.7031 -1.42188 18.8906 -0.6875
Q15.0938 0.046875 10.9844 1.51562
M30.6094 32.4219
Q37.25 32.4219 41.125 36.9531
Q45.0156 41.5 45.0156 49.4219
Q45.0156 57.2812 41.125 61.8438
Q37.25 66.4062 30.6094 66.4062
Q23.9688 66.4062 20.0938 61.8438
Q16.2188 57.2812 16.2188 49.4219
Q16.2188 41.5 20.0938 36.9531
Q23.9688 32.4219 30.6094 32.4219" id="DejaVuSans-39"/>
     </defs>
     <g transform="translate(528.499375 358.439)scale(0.144 -0.144)">
      <use xlink:href="#DejaVuSans-6c"/>
      <use x="27.783203125" xlink:href="#DejaVuSans-6f"/>
      <use x="88.96484375" xlink:href="#DejaVuSans-63"/>
      <use x="143.9453125" xlink:href="#DejaVuSans-61"/>
      <use x="205.224609375" xlink:href="#DejaVuSans-6c"/>
      <use x="233.0078125" xlink:href="#DejaVuSans-69"/>
      <use x="260.791015625" xlink:href="#DejaVuSans-74"/>
      <use x="300.0" xlink:href="#DejaVuSans-79"/>
      <use x="359.1796875" xlink:href="#DejaVuSans-23"/>
      <use x="442.96875" xlink:href="#DejaVuSans-39"/>
     </g>
    </g>
   </g>
  </g>
 </g>
 <defs>
  <clipPath id="p8c776b0f9c">
   <rect height="345.6" width="446.4" x="28.819375" y="23.14175"/>
  </clipPath>
 </defs>
</svg>
