<?xml version="1.0" encoding="utf-8" standalone="no"?>
<!DOCTYPE svg PUBLIC "-//W3C//DTD SVG 1.1//EN"
  "http://www.w3.org/Graphics/SVG/1.1/DTD/svg11.dtd">
<!-- Created with matplotlib (http://matplotlib.org/) -->
<svg height="408pt" version="1.1" viewBox="0 0 610 408" width="610pt" xmlns="http://www.w3.org/2000/svg" xmlns:xlink="http://www.w3.org/1999/xlink">
 <defs>
  <style type="text/css">
*{stroke-linecap:butt;stroke-linejoin:round;}
  </style>
 </defs>
 <g id="figure_1">
  <g id="patch_1">
   <path d="
M0 408.169
L610.164 408.169
L610.164 0
L0 0
z
" style="fill:#ffffff;"/>
  </g>
  <g id="axes_1">
   <g id="patch_2">
    <path d="
M17.575 368.742
L463.975 368.742
L463.975 23.1417
L17.575 23.1417
z
" style="fill:#ffffff;"/>
   </g>
   <g id="line2d_1">
    <path clip-path="url(#pf51f381abf)" d="
M17.575 368.277
L24.7317 365.994
L31.8884 363.718
L32.783 362.628
L35.4668 361.571
L36.3614 360.414
L46.2019 357.118
L47.0964 356.681
L47.991 356.44
L48.8856 356.065
L49.7802 355.053
L51.5694 354.493
L57.8315 352.436
L60.5153 351.551
L61.4099 350.485
L64.9882 349.319
L65.8828 348.764
L66.7774 348.41
L67.672 347.751
L68.5666 347.454
L69.4612 345.416
L70.3558 345.062
L71.2504 344.185
L72.1449 343.856
L73.0395 343.115
L74.8287 342.516
L76.6179 341.858
L78.4071 341.299
L79.3017 340.889
L81.9854 339.996
L82.88 339.664
L83.7746 338.973
L85.5638 338.329
L87.353 337.698
L90.0367 336.807
L93.6151 335.573
L96.2988 334.675
L101.666 332.802
L102.561 332.293
L105.245 331.355
L109.718 329.815
L111.507 329.238
L112.401 328.838
L113.296 328.247
L116.874 326.993
L117.769 326.239
L119.558 325.584
L123.137 324.338
L124.031 323.737
L124.926 322.637
L135.661 318.733
L136.555 317.63
L138.345 316.996
L140.134 316.377
L141.923 315.791
L146.396 314.286
L152.658 312.315
L153.553 311.679
L154.447 311.35
L155.342 310.809
L158.026 309.951
L166.077 307.246
L170.55 305.92
L171.444 304.722
L172.339 304.361
L174.128 301.72
L192.02 295.752
L192.914 294.559
L196.493 293.315
L198.282 292.797
L199.177 292.397
L200.966 291.881
L201.86 290.639
L203.65 290.059
L206.333 289.196
L207.228 288.73
L209.912 287.896
L211.701 287.298
L214.385 286.507
L216.174 285.911
L217.068 285.66
L218.858 284.998
L219.752 284.258
L227.803 281.523
L228.698 280.905
L229.593 279.811
L231.382 279.257
L233.171 277.812
L234.96 277.297
L236.749 276.627
L240.328 275.524
L242.117 274.889
L243.906 274.389
L244.801 273.885
L247.484 273.036
L248.379 272.778
L249.274 272.261
L254.641 270.572
L257.325 269.681
L258.219 268.361
L264.482 266.321
L265.376 265.837
L269.849 264.354
L270.744 261.548
L271.638 261.141
L273.428 260.65
L274.322 259.256
L276.111 258.682
L282.373 256.728
L297.581 251.71
L298.476 250.358
L299.371 249.26
L302.949 248.117
L303.844 247.467
L311.895 244.966
L312.789 244.175
L317.262 242.705
L318.157 241.894
L319.946 241.276
L324.419 239.77
L327.103 238.886
L327.997 238.129
L330.681 237.287
L332.47 235.156
L334.26 234.583
L335.154 234.314
L336.049 233.611
L345.889 230.518
L346.784 230.04
L348.573 229.455
L349.468 228.532
L353.046 227.503
L353.941 227.047
L361.992 224.552
L362.886 224.151
L363.781 223.401
L370.043 221.251
L370.938 220.893
L371.832 220.358
L372.727 219.596
L374.516 219.102
L375.411 218.569
L378.094 217.689
L378.989 216.94
L379.884 216.682
L380.778 216.065
L382.567 215.457
L383.462 214.981
L385.251 214.432
L386.146 213.392
L387.935 212.854
L388.83 212.101
L389.724 211.857
L390.619 211.131
L391.513 210.683
L395.092 209.505
L400.459 207.818
L401.354 207.565
L403.143 206.606
L404.038 206.074
L404.932 205.791
L406.721 204.737
L409.405 203.868
L411.194 203.309
L412.089 202.984
L412.983 202.46
L415.667 201.288
L416.562 200.664
L417.456 199.25
L420.14 198.378
L421.035 197.677
L423.718 196.762
L426.402 195.695
L428.191 194.951
L429.086 194.297
L430.875 193.749
L431.77 192.898
L433.559 192.073
L434.454 191.204
L435.348 190.958
L436.243 189.6
L437.137 189.131
L438.927 188.574
L439.821 187.538
L440.716 187.063
L442.505 184.888
L445.189 183.93
L446.083 183.013
L447.872 182.453
L449.662 181.301
L450.556 180.537
L451.451 180.307
L452.345 179.87
L454.135 178.233
L455.029 177.927
L455.924 177.116
L456.818 176.153
L457.713 175.677
L458.607 175.037
L459.502 173.907
L460.397 173.336
L461.291 173.072
L463.08 172.049
L463.975 171.695
L463.975 171.695" style="fill:none;stroke:#0000ff;stroke-linecap:square;"/>
   </g>
   <g id="line2d_2">
    <path clip-path="url(#pf51f381abf)" d="
M17.575 368.723
L22.9425 367.483
L26.5209 366.685
L41.7289 363.031
L42.6235 362.455
L45.3073 361.754
L46.2019 360.808
L56.9369 358.136
L57.8315 357.7
L59.6207 357.259
L60.5153 356.223
L62.3045 355.761
L63.199 355.574
L64.0936 355.119
L81.0908 350.892
L81.9854 349.566
L92.7205 346.796
L104.35 343.998
L105.245 343.453
L110.612 342.212
L113.296 341.558
L121.347 339.546
L122.242 339.07
L124.031 338.596
L124.926 338.018
L129.399 336.878
L135.661 335.379
L136.555 334.879
L142.817 333.361
L145.501 332.657
L146.396 332.233
L158.92 329.097
L163.393 327.987
L168.761 326.735
L169.655 326.044
L172.339 325.389
L174.128 325.007
L175.023 324.6
L194.704 319.579
L196.493 319.137
L200.966 318.055
L203.65 317.394
L214.385 314.772
L215.279 314.466
L217.963 313.862
L221.541 313.013
L222.436 312.679
L225.12 312.058
L226.909 311.56
L230.487 310.704
L231.382 310.482
L232.276 309.232
L233.171 308.725
L248.379 305.09
L249.274 304.593
L251.063 304.221
L251.957 303.94
L252.852 302.679
L261.798 300.506
L262.692 299.383
L265.376 298.758
L268.06 298.026
L270.744 297.372
L272.533 296.891
L274.322 296.469
L276.111 296.042
L277.006 294.923
L286.846 292.579
L287.741 291.58
L294.003 290.051
L296.687 289.343
L302.949 287.81
L303.844 287.496
L304.738 286.703
L309.211 285.588
L310.106 284.28
L312.789 283.603
L320.841 281.429
L326.208 280
L327.103 279.19
L331.576 278.098
L332.47 277.346
L334.26 276.873
L337.838 276.011
L342.311 274.884
L344.1 274.391
L346.784 273.747
L351.257 272.566
L353.941 271.929
L368.254 268.321
L370.938 267.428
L374.516 266.51
L377.2 265.737
L379.884 264.956
L381.673 264.41
L382.567 263.638
L383.462 263.258
L384.357 263.048
L385.251 262.606
L386.146 261.921
L390.619 260.821
L392.408 260.25
L393.302 260.01
L394.197 259.228
L396.881 258.448
L397.775 257.711
L400.459 257.08
L402.248 256.124
L404.932 255.406
L405.827 255.179
L406.721 253.601
L410.3 252.656
L412.089 252.181
L412.983 250.899
L416.562 249.912
L417.456 249.568
L418.351 249.385
L419.246 248.637
L423.718 247.476
L426.402 246.818
L427.297 246.426
L430.875 245.307
L431.77 244.743
L433.559 244.202
L434.454 243.586
L435.348 243.416
L437.137 242.833
L439.821 242.152
L440.716 241.637
L441.61 241.357
L444.294 239.875
L445.189 239.504
L446.083 238.517
L446.978 236.231
L447.872 235.73
L449.662 235.257
L451.451 233.189
L453.24 232.437
L454.135 231.605
L455.029 231.221
L457.713 230.397
L458.607 229.364
L460.397 228.821
L462.186 228.159
L463.975 227.607
L463.975 227.607" style="fill:none;stroke:#008000;stroke-linecap:square;"/>
   </g>
   <g id="line2d_3">
    <path clip-path="url(#pf51f381abf)" d="
M17.575 368.722
L18.4696 368.273
L19.3642 367.905
L20.2588 367.504
L21.1534 366.658
L22.0479 366.305
L22.9425 365.589
L24.7317 364.685
L27.4155 363.498
L28.3101 363.073
L29.2047 362.524
L36.3614 359.15
L37.256 357.458
L38.1506 356.945
L39.9397 356.152
L40.8343 354.836
L41.7289 354.449
L42.6235 350.096
L44.4127 349.318
L45.3073 348.486
L46.2019 347.385
L47.991 346.582
L48.8856 346.026
L50.6748 345.266
L51.5694 343.55
L54.2532 342.22
L55.1477 340.418
L56.0423 339.192
L56.9369 338.821
L58.7261 337.817
L59.6207 336.72
L61.4099 335.79
L62.3045 335.394
L64.0936 334.253
L65.8828 333.376
L66.7774 332.794
L68.5666 331.992
L69.4612 331.532
L70.3558 329.85
L72.1449 328.977
L73.9341 328.058
L74.8287 326.262
L78.4071 324.501
L79.3017 323.515
L84.6692 320.927
L85.5638 320.276
L87.353 319.47
L89.1421 318.599
L90.0367 318.227
L90.9313 317.657
L91.8259 316.707
L93.6151 315.872
L98.088 313.815
L98.9826 313.254
L101.666 312.048
L102.561 310.209
L104.35 309.486
L106.139 308.045
L110.612 305.958
L111.507 304.639
L113.296 303.802
L114.191 303.438
L115.085 302.787
L117.769 301.557
L118.664 299.872
L121.347 298.58
L122.242 297.838
L126.715 295.548
L128.504 294.674
L129.399 293.194
L130.293 292.66
L132.977 291.425
L133.872 290.896
L135.661 290.1
L136.555 289.597
L137.45 289.239
L138.345 288.665
L139.239 287.561
L140.134 286.033
L142.817 284.781
L143.712 283.091
L145.501 282.065
L147.29 281.206
L148.185 279.795
L157.131 275.66
L158.026 275.153
L158.92 273.991
L161.604 272.595
L162.498 271.605
L163.393 269.7
L165.182 268.903
L166.077 268.336
L167.866 267.515
L168.761 265.533
L169.655 264.864
L171.444 264.055
L172.339 263.578
L173.234 262.258
L175.917 260.864
L177.706 259.956
L178.601 258.374
L179.496 258.017
L180.39 256.107
L181.285 255.691
L182.179 253.993
L184.863 252.707
L185.758 250.643
L186.652 250.252
L187.547 248.775
L192.914 246.232
L195.598 244.689
L196.493 243.08
L197.387 242.726
L198.282 241.082
L199.177 240.275
L200.966 239.504
L202.755 238.557
L208.122 236.067
L209.017 234.322
L212.595 232.745
L213.49 231.194
L214.385 230.69
L215.279 227.975
L218.858 226.088
L219.752 225.015
L221.541 223.757
L222.436 222.357
L225.12 221.143
L226.909 220.181
L234.96 216.466
L235.855 215.938
L239.433 214.314
L240.328 213.726
L244.801 211.521
L245.695 211.149
L246.59 210.253
L247.484 209.764
L248.379 209.406
L249.274 208.791
L251.957 207.501
L252.852 206.548
L253.747 205.961
L255.536 205.128
L257.325 204.116
L258.219 202.764
L259.114 202.401
L260.903 201.216
L262.692 200.257
L263.587 198.754
L264.482 198.326
L265.376 197.773
L267.165 196.942
L268.06 195.094
L270.744 193.932
L273.428 192.502
L274.322 190.776
L276.111 189.894
L277.006 188.567
L277.9 187.869
L278.795 186.388
L280.584 185.541
L281.479 184.718
L283.268 183.872
L288.636 181.198
L289.53 179.545
L291.319 178.622
L294.003 177.4
L295.792 176.459
L297.581 175.661
L298.476 174.73
L300.265 173.913
L301.16 172.977
L303.844 171.622
L304.738 170.83
L305.633 170.214
L306.527 169.759
L307.422 168.614
L311.895 166.438
L313.684 165.233
L314.579 164.796
L315.473 163.151
L316.368 162.072
L319.946 160.318
L322.63 158.331
L326.208 156.646
L327.997 155.626
L330.681 153.42
L332.47 152.543
L334.26 151.609
L335.154 150.361
L336.049 149.441
L336.943 148.344
L337.838 147.87
L338.733 146.998
L339.627 146.568
L340.522 145.924
L342.311 145.121
L348.573 142.013
L349.468 140.344
L350.362 138.307
L351.257 137.85
L352.151 136.855
L353.046 136.432
L354.835 135.386
L355.73 135.001
L356.624 133.474
L357.519 131.672
L358.413 130.732
L365.57 127.261
L369.149 125.14
L370.043 124.657
L370.938 123.173
L372.727 122.358
L373.621 121.457
L378.094 119.294
L378.989 117.451
L379.884 117.025
L383.462 114.737
L385.251 113.896
L387.04 112.769
L387.935 112.385
L388.83 109.84
L389.724 109.422
L390.619 108.859
L391.513 108.05
L392.408 107.535
L393.302 107.189
L394.197 105.419
L395.092 104.542
L395.986 104.03
L396.881 102.306
L397.775 101.386
L399.565 100.503
L400.459 100.102
L401.354 98.2424
L402.248 97.7361
L403.143 96.5224
L404.038 96.0818
L404.932 94.3981
L407.616 92.9144
L408.51 92.0423
L410.3 91.2514
L412.089 90.2596
L412.983 89.8535
L415.667 88.0518
L416.562 86.7967
L422.824 83.6632
L423.718 83.2324
L424.613 82.4571
L426.402 78.5385
L427.297 78.1613
L428.191 77.2287
L429.086 76.8152
L429.981 75.9598
L430.875 75.3135
L431.77 74.3441
L433.559 73.392
L434.454 72.5902
L435.348 72.2077
L436.243 70.6111
L437.137 70.137
L438.032 68.591
L438.927 67.4661
L439.821 67.0082
L440.716 63.7751
L441.61 63.2031
L442.505 62.7936
L443.399 60.5748
L445.189 59.7419
L446.978 58.833
L447.872 58.4609
L448.767 57.9258
L449.662 55.9144
L450.556 55.3021
L451.451 54.8603
L452.345 54.1691
L455.029 52.7176
L455.924 51.6036
L456.818 51.1895
L457.713 50.5864
L458.607 50.1907
L459.502 49.1919
L460.397 48.6384
L463.08 47.3032
L463.975 46.8355
L463.975 46.8355" style="fill:none;stroke:#ff0000;stroke-linecap:square;"/>
   </g>
   <g id="line2d_4">
    <path clip-path="url(#pf51f381abf)" d="
M17.575 368.717
L18.4696 368.113
L20.2588 367.403
L21.1534 366.859
L22.0479 366.519
L22.9425 365.904
L23.8371 364.707
L24.7317 364.354
L25.6263 362.99
L26.5209 362.584
L27.4155 360.594
L29.2047 359.795
L30.0992 358.159
L30.9938 357.827
L31.8884 357.015
L32.783 356.682
L34.5722 353.015
L35.4668 351.188
L36.3614 350.317
L38.1506 349.542
L39.0451 347.773
L39.9397 346.635
L41.7289 345.866
L42.6235 344.544
L44.4127 343.838
L45.3073 342.28
L47.0964 341.627
L49.7802 340.212
L50.6748 339.851
L52.464 337.177
L57.8315 334.752
L58.7261 334.127
L59.6207 333.312
L60.5153 332.901
L61.4099 331.478
L64.9882 329.927
L65.8828 328.079
L68.5666 326.761
L70.3558 325.924
L73.9341 324.35
L75.7233 323.433
L77.5125 322.665
L78.4071 321.444
L79.3017 320.828
L82.88 319.129
L83.7746 318.645
L85.5638 317.872
L86.4584 317.471
L89.1421 315.938
L90.9313 315.114
L93.6151 313.84
L95.4043 313.186
L96.2988 312.584
L97.1934 312.242
L98.088 311.455
L98.9826 310.932
L100.772 310.233
L101.666 309.709
L106.139 307.781
L107.929 306.889
L108.823 306.372
L114.191 304.1
L115.085 302.612
L115.98 301.603
L117.769 300.808
L118.664 300.217
L119.558 299.887
L120.453 298.032
L123.137 296.899
L127.609 294.662
L129.399 293.537
L133.872 291.327
L134.766 290.748
L135.661 290.387
L136.555 289.904
L137.45 289.578
L139.239 288.706
L141.028 288.029
L141.923 286.413
L143.712 285.642
L145.501 284.754
L147.29 283.914
L152.658 281.776
L153.553 279.899
L155.342 279.059
L158.92 277.491
L160.709 276.688
L161.604 276.335
L162.498 273.864
L164.288 270.258
L166.077 269.344
L166.971 267.622
L171.444 265.717
L172.339 265.32
L174.128 261.834
L176.812 260.667
L177.706 259.851
L178.601 258.035
L183.074 256.061
L183.969 254.342
L189.336 251.946
L190.231 251.339
L191.125 251.019
L192.02 249.046
L194.704 247.934
L195.598 246.125
L196.493 245.632
L198.282 244.939
L200.071 244.104
L200.966 243.758
L201.86 243.282
L202.755 241.461
L211.701 237.504
L212.595 237.156
L213.49 236.651
L214.385 235.636
L215.279 235.249
L216.174 234.553
L218.858 233.469
L219.752 228.327
L220.647 226.665
L221.541 226.298
L222.436 225.662
L223.331 225.299
L224.225 224.653
L225.12 224.253
L226.014 223.685
L226.909 223.278
L227.803 222.009
L228.698 221.614
L229.593 220.66
L232.276 219.482
L233.171 218.918
L234.066 218.574
L234.96 218.106
L235.855 216.17
L236.749 215.281
L240.328 213.624
L241.222 211.828
L242.117 211.464
L243.011 209.551
L245.695 208.446
L246.59 208.067
L247.484 207.507
L248.379 207.113
L249.274 205.329
L250.168 204.998
L251.957 203.908
L252.852 203.524
L253.747 202.97
L255.536 202.201
L257.325 201.368
L258.219 199.417
L261.798 197.679
L262.692 197.143
L263.587 196.754
L265.376 195.71
L267.165 194.85
L269.849 193.434
L271.638 192.567
L273.428 191.804
L275.217 189.113
L277.006 188.193
L277.9 187.334
L280.584 186.198
L282.373 185.352
L283.268 184.748
L286.846 183.341
L288.636 182.5
L289.53 180.842
L291.319 179.942
L294.003 178.742
L295.792 175.303
L296.687 174.395
L297.581 174.002
L299.371 170.445
L300.265 170.119
L301.16 169.609
L302.949 168.838
L303.844 168.281
L305.633 167.381
L306.527 166.835
L307.422 164.587
L311 162.989
L311.895 161.993
L314.579 160.841
L315.473 159.317
L319.052 157.792
L319.946 156.052
L320.841 155.707
L321.735 154.829
L322.63 154.245
L325.314 152.868
L326.208 152.245
L329.787 150.561
L330.681 150.013
L341.416 145.258
L344.1 144.013
L344.995 142.38
L345.889 141.897
L348.573 140.744
L350.362 139.969
L351.257 138.131
L353.941 136.951
L356.624 135.926
L357.519 135.581
L358.413 135.004
L359.308 133.278
L360.203 131.812
L361.992 131.143
L362.886 130.176
L364.676 129.392
L365.57 127.674
L367.359 126.833
L368.254 126.488
L369.149 125.963
L370.043 125.568
L370.938 124.98
L371.832 123.404
L372.727 122.803
L373.621 122.051
L376.305 120.709
L377.2 120.081
L378.989 119.185
L379.884 117.51
L382.567 116.311
L384.357 115.449
L385.251 115.046
L386.146 113.659
L387.04 113.129
L387.935 112.782
L388.83 112.255
L390.619 111.497
L391.513 110.912
L393.302 110.156
L394.197 108.587
L395.986 107.688
L396.881 107.348
L397.775 105.271
L398.67 103.658
L401.354 102.459
L403.143 101.64
L405.827 100.408
L406.721 98.611
L407.616 97.9797
L410.3 96.8162
L412.089 95.8715
L414.773 94.5462
L415.667 93.9777
L419.246 92.4057
L420.14 92.0325
L421.035 91.3926
L422.824 90.6657
L423.718 89.16
L424.613 88.7781
L425.508 88.2188
L427.297 87.4262
L428.191 86.7644
L429.086 86.4171
L429.981 85.9102
L431.77 82.5129
L432.664 82.0717
L433.559 80.5557
L435.348 79.637
L437.137 78.8214
L438.032 76.6147
L438.927 75.332
L440.716 74.2272
L441.61 72.4145
L442.505 71.031
L443.399 70.5437
L444.294 70.19
L445.189 69.5103
L447.872 68.0922
L449.662 67.0905
L450.556 65.4184
L451.451 65.0313
L453.24 61.6623
L454.135 61.258
L455.029 59.947
L456.818 59.0502
L457.713 56.9887
L458.607 56.631
L459.502 55.6068
L460.397 55.0193
L461.291 53.5782
L463.08 52.6825
L463.975 52.2493
L463.975 52.2493" style="fill:none;stroke:#00bfbf;stroke-linecap:square;"/>
   </g>
   <g id="line2d_5">
    <path clip-path="url(#pf51f381abf)" d="
M17.575 368.716
L18.4696 368.271
L19.3642 366.527
L20.2588 366.207
L21.1534 365.706
L23.8371 364.632
L27.4155 363.22
L30.0992 361.957
L30.9938 361.643
L31.8884 361.16
L33.6776 360.504
L34.5722 360.071
L35.4668 358.58
L37.256 357.886
L39.0451 357.152
L41.7289 356.066
L42.6235 348.496
L43.5181 347.423
L44.4127 346.839
L46.2019 346.114
L47.991 345.444
L48.8856 344.985
L54.2532 342.978
L55.1477 342.174
L56.0423 341.798
L56.9369 339.965
L61.4099 338.087
L62.3045 336.572
L66.7774 334.771
L68.5666 334.057
L69.4612 332.367
L71.2504 331.691
L72.1449 331.135
L79.3017 328.242
L80.1962 327.813
L81.9854 327.178
L82.88 326.717
L84.6692 326.074
L85.5638 325.456
L90.0367 323.632
L92.7205 322.441
L94.5097 321.638
L98.088 320.207
L98.9826 319.678
L104.35 317.525
L105.245 317.011
L113.296 313.825
L114.191 312.464
L115.98 311.788
L116.874 311.242
L118.664 310.58
L121.347 309.527
L122.242 307.678
L123.137 307.342
L124.031 306.636
L125.82 305.866
L127.609 305.104
L130.293 304.07
L133.872 302.666
L135.661 301.972
L138.345 300.827
L141.923 299.44
L143.712 297.998
L144.607 297.638
L145.501 296.962
L150.869 294.895
L151.763 293.551
L155.342 292.052
L156.236 291.759
L158.92 290.576
L159.815 289.872
L161.604 289.053
L163.393 288.227
L164.288 287.889
L165.182 286.393
L168.761 284.922
L174.128 282.883
L175.023 282.486
L175.917 281.231
L177.706 280.427
L180.39 279.401
L181.285 277.735
L182.179 277.282
L184.863 276.29
L187.547 275.213
L189.336 274.521
L190.231 273.618
L191.125 273.307
L195.598 271.2
L198.282 270.079
L199.177 269.543
L207.228 266.134
L208.122 265.824
L209.017 265.335
L209.912 265.025
L210.806 263.675
L216.174 261.688
L217.068 259.821
L218.858 259.134
L219.752 257.665
L221.541 257.034
L222.436 256.544
L224.225 255.888
L225.12 254.086
L232.276 251.176
L233.171 250.097
L234.96 249.427
L235.855 248.955
L240.328 247.182
L243.011 246.069
L243.906 244.125
L247.484 242.813
L253.747 240.209
L254.641 239.891
L255.536 239.072
L257.325 238.356
L260.903 236.943
L261.798 235.852
L263.587 235.16
L264.482 234.389
L267.165 233.197
L272.533 230.883
L274.322 230.218
L276.111 229.404
L277.9 228.732
L281.479 227.231
L283.268 226.538
L284.163 224.623
L285.057 223.938
L285.952 221.884
L286.846 221.505
L287.741 220.862
L292.214 219.115
L293.108 218.242
L294.003 217.909
L294.898 215.969
L296.687 215.186
L297.581 214.825
L298.476 213.132
L302.949 211.385
L304.738 210.509
L307.422 209.378
L308.316 208.671
L309.211 208.336
L310.106 206.704
L311.895 206.031
L312.789 203.822
L313.684 203.467
L314.579 201.799
L315.473 201.442
L316.368 200.916
L327.103 196.489
L327.997 195.317
L329.787 194.537
L333.365 193.079
L336.049 191.973
L347.678 187.218
L348.573 186.668
L350.362 185.963
L356.624 183.406
L357.519 182.996
L358.413 181.698
L361.097 180.676
L361.992 178.957
L363.781 178.197
L364.676 177.467
L370.043 175.145
L370.938 174.671
L372.727 173.921
L374.516 173.159
L375.411 172.512
L377.2 171.775
L379.884 166.752
L381.673 166.046
L384.357 164.892
L389.724 162.779
L390.619 162.427
L393.302 160.98
L394.197 160.653
L395.986 159.783
L396.881 158.967
L400.459 157.471
L401.354 157.163
L403.143 156.318
L408.51 154.035
L409.405 153.34
L410.3 153.017
L412.089 152.051
L417.456 149.711
L419.246 148.993
L421.929 147.792
L422.824 145.724
L424.613 144.936
L429.086 143.036
L429.981 142.445
L434.454 140.463
L435.348 138.949
L436.243 136.857
L438.927 135.758
L440.716 134.974
L451.451 130.229
L453.24 126.457
L455.924 125.273
L457.713 124.366
L458.607 123.857
L459.502 122.194
L460.397 121.43
L462.186 120.732
L463.08 120.323
L463.975 119.278
L463.975 119.278" style="fill:none;stroke:#bf00bf;stroke-linecap:square;"/>
   </g>
   <g id="line2d_6">
    <path clip-path="url(#pf51f381abf)" d="
M17.575 368.584
L18.4696 368.207
L19.3642 367.923
L20.2588 367.624
L21.1534 367.189
L22.9425 366.6
L23.8371 366.146
L28.3101 364.583
L29.2047 364.051
L30.0992 363.019
L33.6776 361.684
L34.5722 361.319
L35.4668 359.818
L38.1506 358.752
L39.0451 357.195
L41.7289 356.187
L42.6235 351.787
L44.4127 351.159
L45.3073 350.688
L47.991 349.712
L48.8856 349.268
L51.5694 348.289
L53.3586 347.596
L55.1477 346.95
L59.6207 345.33
L60.5153 343.803
L63.199 342.732
L64.0936 342.248
L65.8828 341.617
L70.3558 339.943
L71.2504 338.668
L74.8287 337.221
L75.7233 336.313
L76.6179 336.026
L81.0908 333.986
L84.6692 332.681
L90.9313 330.175
L91.8259 329.834
L92.7205 329.021
L93.6151 328.51
L95.4043 327.705
L98.9826 326.339
L103.456 324.816
L105.245 323.964
L110.612 321.931
L112.401 321.275
L119.558 318.575
L121.347 317.247
L138.345 310.66
L139.239 310.017
L141.923 308.958
L142.817 308.315
L145.501 307.287
L154.447 303.886
L156.236 303.217
L167.866 298.804
L176.812 295.416
L177.706 294.05
L180.39 293.053
L195.598 287.369
L196.493 286.924
L197.387 286.624
L198.282 285.132
L202.755 283.177
L203.65 282.715
L205.439 282.017
L209.017 280.819
L209.912 280.545
L210.806 280.002
L215.279 278.481
L216.174 276.871
L221.541 274.817
L222.436 274.404
L224.225 273.763
L231.382 270.933
L233.171 270.27
L235.855 269.208
L236.749 268.512
L238.539 267.813
L239.433 267.081
L241.222 266.253
L243.906 265.269
L246.59 264.248
L250.168 262.893
L251.957 262.086
L252.852 261.297
L255.536 260.316
L256.43 259.577
L257.325 259.298
L258.219 258.065
L260.009 257.331
L260.903 257.047
L261.798 256.563
L263.587 255.934
L264.482 255.305
L266.271 254.459
L273.428 251.645
L274.322 251.345
L275.217 249.964
L276.111 249.666
L277.9 248.313
L280.584 247.351
L283.268 246.183
L285.057 245.547
L287.741 244.499
L292.214 242.806
L298.476 240.439
L308.316 236.24
L319.052 232.199
L324.419 229.954
L325.314 228.543
L326.208 227.497
L327.103 227.171
L328.892 226.159
L329.787 224.603
L331.576 223.999
L332.47 223.402
L334.26 222.718
L335.154 222.141
L336.943 221.547
L338.733 220.87
L340.522 220.179
L341.416 219.032
L343.205 218.372
L344.1 217.122
L353.046 213.784
L353.941 212.983
L360.203 210.576
L363.781 209.288
L364.676 207.806
L367.359 206.723
L368.254 205.138
L371.832 203.709
L372.727 201.661
L373.621 201.366
L374.516 199.646
L378.989 197.867
L379.884 196.427
L380.778 196.125
L381.673 194.562
L385.251 193.127
L387.04 192.398
L387.935 192.128
L389.724 191.45
L390.619 191.129
L391.513 190.669
L393.302 187.456
L394.197 187.139
L395.986 186.354
L396.881 186.065
L397.775 185.516
L400.459 184.493
L401.354 183.858
L402.248 183.364
L404.038 182.631
L404.932 181.917
L406.721 181.188
L407.616 179.24
L410.3 178.327
L411.194 177.731
L414.773 176.13
L415.667 175.768
L416.562 175.107
L422.824 172.761
L423.718 172.45
L424.613 170.786
L432.664 167.395
L433.559 166.565
L434.454 166.109
L435.348 165.488
L437.137 164.656
L438.927 164.023
L439.821 163.48
L444.294 161.64
L446.083 160.87
L446.978 159.525
L449.662 158.399
L450.556 157.786
L451.451 157.486
L452.345 156.744
L453.24 156.368
L454.135 154.938
L455.029 154.002
L455.924 153.588
L457.713 152.601
L459.502 151.951
L460.397 150.368
L461.291 150.059
L462.186 148.406
L463.975 147.678
L463.975 147.678" style="fill:none;stroke:#bfbf00;stroke-linecap:square;"/>
   </g>
   <g id="line2d_7">
    <path clip-path="url(#pf51f381abf)" d="
M17.575 368.737
L18.4696 368.302
L20.2588 367.805
L21.1534 367.424
L22.9425 366.925
L24.7317 366.317
L27.4155 365.498
L29.2047 364.962
L30.0992 364.511
L32.783 363.658
L34.5722 363.067
L35.4668 362.681
L36.3614 362.418
L37.256 361.884
L39.9397 361.018
L49.7802 357.821
L52.464 356.826
L54.2532 356.318
L55.1477 355.779
L60.5153 354.085
L61.4099 353.821
L62.3045 352.655
L73.9341 348.822
L74.8287 348.217
L79.3017 346.778
L81.0908 346.17
L81.9854 345.605
L84.6692 344.784
L86.4584 342.777
L88.2475 342.176
L89.1421 341.412
L90.0367 340.407
L90.9313 340.063
L91.8259 338.895
L93.6151 338.337
L96.2988 337.477
L97.1934 336.97
L98.9826 336.387
L99.8772 335.804
L104.35 334.333
L107.034 333.365
L107.929 332.629
L109.718 332.073
L111.507 331.29
L113.296 330.696
L114.191 330.079
L115.98 329.516
L118.664 328.621
L124.926 326.506
L125.82 326.053
L126.715 325.222
L134.766 322.639
L137.45 321.79
L139.239 321.163
L140.134 320.253
L141.923 319.668
L144.607 318.812
L145.501 318.388
L146.396 318.107
L147.29 317.141
L151.763 315.793
L153.553 315.189
L156.236 314.263
L157.131 313.594
L163.393 311.515
L166.077 310.617
L169.655 309.495
L174.128 308.144
L176.812 307.227
L178.601 306.582
L179.496 306.223
L180.39 305.345
L183.969 304.195
L184.863 303.954
L186.652 303.355
L187.547 302.71
L188.442 302.247
L191.125 301.382
L192.02 300.273
L192.914 300.018
L193.809 299.058
L198.282 297.723
L199.177 297.089
L203.65 295.587
L208.122 294.252
L209.912 293.676
L222.436 289.556
L223.331 289.059
L226.014 288.146
L226.909 287.421
L227.803 287.183
L228.698 286.638
L232.276 285.429
L233.171 284.389
L240.328 282.014
L242.117 281.307
L243.906 280.77
L244.801 280.288
L250.168 278.477
L257.325 276.196
L260.009 275.3
L261.798 274.645
L263.587 274.033
L264.482 273.788
L265.376 272.711
L274.322 269.81
L275.217 269.396
L278.795 268.301
L288.636 265.106
L290.425 264.592
L291.319 264.091
L294.003 263.253
L295.792 262.553
L298.476 261.689
L299.371 260.62
L301.16 259.996
L302.054 259.559
L302.949 259.298
L303.844 258.681
L305.633 258.056
L306.527 257.3
L311.895 255.523
L312.789 255.167
L313.684 254.191
L320.841 251.823
L322.63 251.172
L327.997 249.359
L330.681 248.356
L332.47 247.774
L334.26 247.08
L335.154 246.797
L336.049 245.7
L336.943 245.431
L337.838 244.598
L341.416 243.491
L343.205 242.855
L344.995 242.326
L347.678 241.377
L349.468 240.785
L350.362 240.384
L351.257 238.86
L353.046 238.29
L354.835 237.591
L356.624 237.003
L361.097 235.524
L361.992 234.388
L369.149 232.017
L370.043 231.726
L370.938 231.306
L373.621 230.489
L378.989 228.652
L379.884 228.342
L380.778 227.783
L381.673 227.511
L383.462 226.652
L387.04 225.456
L387.935 225.213
L388.83 224.163
L390.619 223.608
L391.513 223.219
L394.197 222.493
L395.092 220.997
L400.459 219.301
L403.143 218.418
L405.827 217.526
L409.405 216.363
L410.3 214.909
L412.089 214.105
L413.878 213.554
L414.773 213.212
L415.667 212.724
L416.562 211.774
L421.035 210.274
L421.929 209.035
L423.718 208.499
L425.508 207.836
L426.402 207.05
L434.454 204.229
L436.243 203.643
L437.137 203.315
L438.032 202.029
L438.927 201.758
L439.821 201.28
L443.399 200.075
L446.083 199.047
L448.767 198.05
L449.662 197.081
L452.345 196.108
L453.24 195.272
L454.135 194.918
L455.029 194.373
L457.713 193.329
L459.502 192.554
L462.186 191.607
L463.08 191.32
L463.975 190.857
L463.975 190.857" style="fill:none;stroke:#000000;stroke-linecap:square;"/>
   </g>
   <g id="line2d_8">
    <path clip-path="url(#pf51f381abf)" d="
M17.575 368.737
L18.4696 368.441
L19.3642 368.229
L21.1534 367.685
L26.5209 366.198
L27.4155 365.32
L30.0992 364.549
L32.783 363.796
L35.4668 362.985
L39.9397 361.712
L47.0964 359.636
L47.991 359.421
L48.8856 359.067
L51.5694 358.311
L53.3586 357.773
L55.1477 357.212
L56.0423 356.237
L57.8315 355.682
L58.7261 354.479
L62.3045 353.423
L67.672 351.825
L72.1449 350.521
L75.7233 349.411
L76.6179 348.384
L77.5125 347.97
L78.4071 347.75
L81.0908 346.763
L84.6692 345.635
L87.353 344.793
L92.7205 343.209
L93.6151 342.241
L94.5097 341.762
L96.2988 341.259
L97.1934 340.251
L98.9826 339.733
L102.561 338.709
L105.245 337.877
L107.929 337.085
L114.191 335.282
L115.085 334.808
L117.769 334.032
L124.031 332.032
L128.504 330.714
L129.399 329.544
L131.188 328.991
L137.45 327.217
L138.345 326.092
L140.134 325.585
L141.028 325.065
L143.712 324.241
L162.498 318.792
L163.393 318.394
L166.077 317.651
L169.655 316.676
L174.128 315.429
L175.023 315.117
L175.917 314.671
L177.706 314.193
L178.601 313.555
L183.074 312.155
L185.758 311.298
L188.442 310.5
L191.125 309.691
L195.598 308.349
L196.493 307.141
L198.282 306.688
L199.177 305.617
L207.228 303.267
L208.122 302.461
L209.912 301.914
L215.279 300.316
L217.068 298.657
L221.541 297.375
L224.225 296.398
L234.96 293.021
L236.749 292.411
L239.433 291.62
L246.59 289.541
L250.168 288.434
L251.063 287.721
L253.747 286.95
L255.536 286.404
L256.43 286.052
L260.009 285.044
L264.482 283.712
L265.376 283.362
L267.165 282.857
L273.428 281.024
L274.322 280.808
L275.217 280.455
L277.006 279.978
L279.69 279.234
L282.373 278.416
L283.268 277.866
L285.057 277.347
L285.952 276.582
L286.846 276.369
L287.741 275.587
L289.53 275.07
L292.214 274.301
L293.108 273.201
L296.687 272.155
L304.738 269.724
L305.633 269.225
L312.789 267.056
L313.684 266.345
L319.052 264.822
L319.946 264.174
L331.576 260.602
L332.47 260.082
L334.26 259.513
L336.943 258.71
L337.838 257.771
L339.627 257.295
L341.416 256.716
L344.1 255.919
L344.995 255.692
L345.889 255.328
L350.362 254.106
L351.257 253.488
L353.941 252.709
L354.835 251.965
L356.624 251.439
L365.57 248.728
L366.465 248.449
L367.359 247.604
L368.254 247.028
L370.938 246.144
L371.832 245.584
L375.411 244.443
L377.2 243.94
L378.989 243.219
L382.567 242.069
L383.462 240.115
L384.357 239.488
L388.83 238.08
L389.724 236.902
L390.619 236.64
L391.513 236.068
L394.197 235.33
L395.092 234.946
L397.775 234.08
L399.565 233.571
L400.459 231.928
L401.354 230.949
L402.248 230.639
L403.143 229.123
L407.616 227.793
L409.405 227.178
L411.194 226.644
L414.773 225.525
L415.667 224.971
L416.562 223.976
L418.351 223.435
L419.246 222.604
L422.824 221.479
L423.718 220.841
L425.508 220.248
L426.402 219.753
L428.191 218.123
L430.875 217.326
L432.664 215.994
L434.454 215.343
L435.348 214.524
L436.243 214.264
L437.137 212.832
L438.032 211.18
L439.821 210.466
L440.716 209.938
L441.61 209.175
L443.399 208.633
L444.294 207.881
L445.189 207.442
L446.083 207.129
L447.872 205.636
L448.767 205.25
L449.662 204.285
L450.556 202.791
L452.345 202.239
L454.135 200.206
L456.818 199.332
L458.607 198.271
L459.502 197.523
L460.397 196.951
L461.291 196.688
L462.186 195.831
L463.975 194.375
L463.975 194.375" style="fill:none;stroke:#0000ff;stroke-linecap:square;"/>
   </g>
   <g id="line2d_9">
    <path clip-path="url(#pf51f381abf)" d="
M17.575 368.72
L18.4696 368.48
L19.3642 368.289
L20.2588 367.678
L25.6263 366.395
L27.4155 365.83
L39.9397 362.831
L41.7289 362.365
L42.6235 361.668
L43.5181 361.45
L44.4127 360.898
L47.991 360.11
L49.7802 359.624
L51.5694 359.205
L53.3586 358.705
L58.7261 357.437
L59.6207 356.772
L62.3045 356.129
L67.672 354.825
L70.3558 354.207
L71.2504 353.85
L74.8287 352.962
L77.5125 352.352
L81.0908 351.473
L83.7746 350.807
L84.6692 350.007
L85.5638 349.752
L86.4584 349.05
L87.353 348.832
L88.2475 348.471
L92.7205 347.427
L93.6151 347.201
L94.5097 346.708
L99.8772 345.307
L100.772 344.057
L102.561 343.561
L106.139 342.609
L108.823 341.847
L114.191 340.523
L115.085 340.045
L120.453 338.599
L123.137 337.957
L124.031 337.677
L124.926 337.213
L128.504 336.275
L132.082 335.471
L132.977 335.078
L137.45 333.974
L139.239 333.492
L142.817 332.626
L152.658 330.221
L157.131 329.122
L159.815 328.394
L166.971 326.712
L169.655 326.083
L171.444 325.667
L176.812 324.37
L179.496 323.741
L180.39 323.539
L181.285 323.182
L191.125 320.782
L192.02 320.335
L199.177 318.563
L201.86 317.8
L206.333 316.788
L213.49 315.072
L216.174 314.428
L225.12 312.26
L226.909 311.803
L229.593 311.152
L243.011 307.823
L258.219 304.225
L265.376 302.436
L274.322 299.805
L314.579 289.664
L315.473 288.227
L321.735 286.651
L323.524 286.173
L325.314 285.736
L326.208 285.257
L331.576 283.687
L332.47 282.41
L335.154 281.732
L336.049 281.345
L338.733 280.685
L340.522 280.109
L341.416 278.901
L346.784 277.561
L347.678 276.568
L351.257 275.662
L352.151 274.957
L354.835 274.318
L358.413 273.439
L368.254 270.993
L369.149 270.008
L378.094 267.799
L380.778 267.108
L381.673 266.357
L383.462 265.94
L384.357 265.724
L385.251 265.245
L390.619 263.926
L392.408 263.387
L393.302 263.183
L394.197 262.795
L399.565 261.387
L400.459 260.817
L404.038 259.942
L411.194 258.139
L412.089 257.588
L415.667 256.469
L416.562 255.28
L417.456 254.929
L418.351 254.743
L419.246 254.391
L424.613 253.083
L425.508 252.023
L426.402 251.337
L429.086 250.609
L433.559 249.43
L434.454 249.162
L435.348 248.611
L438.032 247.891
L439.821 247.406
L440.716 246.79
L442.505 246.174
L443.399 245.583
L444.294 245.344
L445.189 244.849
L447.872 244.169
L449.662 243.619
L451.451 243.213
L452.345 242.775
L453.24 242.138
L454.135 240.734
L455.029 240.038
L455.924 239.763
L456.818 239.066
L457.713 238.8
L458.607 238.372
L459.502 238.082
L460.397 237.263
L461.291 236.905
L462.186 236.39
L463.08 236.088
L463.975 235.128
L463.975 235.128" style="fill:none;stroke:#008000;stroke-linecap:square;"/>
   </g>
   <g id="line2d_10">
    <path clip-path="url(#pf51f381abf)" d="
M17.575 368.721
L18.4696 368.223
L26.5209 366.084
L35.4668 363.512
L36.3614 363.315
L37.256 362.713
L40.8343 361.73
L41.7289 361.243
L42.6235 358.823
L44.4127 358.349
L45.3073 357.635
L51.5694 356.046
L53.3586 355.571
L56.0423 354.897
L56.9369 353.246
L58.7261 352.785
L60.5153 352.229
L61.4099 351.946
L62.3045 351.46
L67.672 350.064
L76.6179 347.715
L81.0908 346.573
L82.88 346.063
L85.5638 345.387
L88.2475 344.605
L90.9313 343.881
L100.772 341.295
L101.666 340.679
L102.561 340.477
L103.456 339.965
L104.35 338.804
L107.034 338.102
L107.929 337.649
L115.085 335.803
L130.293 331.856
L131.188 330.585
L133.872 329.929
L136.555 329.226
L137.45 327.678
L140.134 327.003
L141.028 326.772
L141.923 326.406
L168.761 319.277
L174.128 317.969
L178.601 316.846
L179.496 315.572
L183.074 314.664
L183.969 314.202
L185.758 313.751
L193.809 311.672
L197.387 310.724
L216.174 305.969
L217.068 305.511
L224.225 303.646
L226.014 303.088
L226.909 302.885
L227.803 302.261
L228.698 301.875
L231.382 301.167
L232.276 299.781
L234.066 299.292
L235.855 298.696
L244.801 296.382
L251.957 294.57
L253.747 293.856
L257.325 292.95
L260.903 292.005
L264.482 291.079
L273.428 288.834
L274.322 287.523
L285.952 284.399
L288.636 283.694
L292.214 282.778
L293.108 282.383
L294.898 281.919
L295.792 280.88
L299.371 280.063
L301.16 277.705
L310.106 275.248
L319.052 272.956
L319.946 272.679
L320.841 271.935
L336.943 267.785
L337.838 267.404
L346.784 264.991
L347.678 263.622
L348.573 263.378
L349.468 262.793
L350.362 262.599
L352.151 262.023
L353.941 261.537
L355.73 261.022
L356.624 260.491
L361.097 259.294
L365.57 258.151
L372.727 256.125
L377.2 254.969
L389.724 251.488
L391.513 248.839
L394.197 248.131
L395.986 247.618
L398.67 246.762
L400.459 246.259
L403.143 245.55
L407.616 244.227
L412.983 242.801
L413.878 241.434
L415.667 240.951
L418.351 240.071
L423.718 238.644
L425.508 238.073
L433.559 235.808
L438.032 234.567
L438.927 234.342
L439.821 233.49
L446.978 231.522
L447.872 231.231
L448.767 229.966
L449.662 229.709
L450.556 228.278
L451.451 228.064
L452.345 227.701
L455.029 226.948
L457.713 225.916
L459.502 225.201
L461.291 224.641
L462.186 224.227
L463.08 222.242
L463.975 221.877
L463.975 221.877" style="fill:none;stroke:#ff0000;stroke-linecap:square;"/>
   </g>
   <g id="line2d_11">
    <path clip-path="url(#pf51f381abf)" d="
M17.575 368.737
L21.1534 367.455
L22.0479 366.99
L24.7317 366.187
L25.6263 365.231
L27.4155 364.71
L28.3101 364.239
L30.0992 363.665
L30.9938 363.057
L35.4668 361.679
L38.1506 360.856
L44.4127 358.842
L45.3073 357.528
L47.991 356.813
L49.7802 356.217
L51.5694 355.688
L52.464 354.231
L58.7261 352.344
L64.0936 350.712
L64.9882 350.254
L67.672 349.481
L68.5666 348.823
L71.2504 348
L72.1449 347.493
L73.9341 346.975
L74.8287 345.561
L81.9854 343.148
L85.5638 342.136
L86.4584 341.714
L89.1421 340.96
L90.9313 340.376
L92.7205 339.868
L93.6151 339.195
L95.4043 338.681
L96.2988 338.124
L102.561 336.223
L104.35 335.722
L105.245 334.012
L109.718 332.603
L110.612 332.371
L111.507 331.654
L112.401 330.198
L115.98 329.168
L120.453 327.829
L121.347 327.236
L127.609 325.095
L128.504 324.804
L129.399 323.36
L130.293 323.123
L131.188 322.706
L134.766 321.732
L136.555 321.103
L137.45 320.849
L138.345 320.465
L140.134 320.006
L141.923 317.792
L142.817 316.309
L145.501 315.305
L149.974 314.082
L155.342 312.495
L158.026 311.665
L158.92 310.8
L160.709 310.232
L162.498 309.647
L166.077 308.573
L166.971 308.087
L168.761 307.53
L169.655 307.318
L170.55 306.262
L175.917 304.599
L176.812 304.334
L177.706 303.217
L183.074 301.705
L188.442 300.002
L191.125 299.216
L192.914 298.686
L193.809 298.058
L195.598 297.449
L196.493 296.226
L197.387 296.007
L199.177 295.424
L200.071 295.166
L200.966 293.497
L205.439 292.082
L206.333 291.568
L207.228 291.249
L208.122 290.617
L214.385 288.675
L215.279 288.269
L223.331 285.976
L226.014 285.092
L229.593 284.122
L237.644 281.715
L239.433 281.155
L243.906 279.789
L248.379 278.498
L257.325 275.855
L259.114 275.311
L261.798 274.485
L262.692 274.146
L263.587 272.58
L267.165 271.529
L268.955 271.034
L271.638 270.215
L272.533 268.614
L277.006 267.305
L277.9 267.036
L278.795 266.356
L296.687 260.859
L301.16 259.589
L302.054 257.792
L304.738 256.985
L305.633 256.715
L306.527 255.009
L311.895 253.361
L314.579 252.523
L316.368 250.441
L321.735 248.743
L322.63 247.41
L329.787 245.318
L330.681 244.111
L331.576 242.389
L334.26 241.556
L336.943 240.73
L337.838 240.353
L340.522 239.616
L344.1 238.563
L346.784 237.751
L347.678 236.596
L348.573 234.957
L349.468 234.716
L351.257 233.432
L353.941 232.58
L356.624 231.77
L358.413 231.191
L362.886 229.886
L363.781 229.466
L365.57 228.929
L366.465 228.458
L378.094 224.804
L382.567 223.333
L385.251 222.373
L386.146 221.197
L388.83 220.43
L389.724 219.504
L390.619 219.049
L391.513 218.354
L392.408 217.436
L393.302 216.927
L394.197 216.7
L395.092 216.055
L397.775 214.983
L398.67 214.488
L400.459 213.929
L404.038 212.898
L405.827 212.349
L407.616 210.606
L408.51 210.068
L411.194 209.215
L414.773 207.979
L416.562 205.817
L421.929 203.998
L422.824 202.584
L424.613 201.85
L425.508 201.213
L427.297 200.592
L428.191 199.247
L429.086 197.396
L430.875 196.841
L431.77 196.132
L432.664 195.756
L433.559 194.403
L436.243 193.402
L438.927 192.487
L440.716 191.268
L446.083 189.3
L448.767 187.365
L449.662 186.455
L450.556 186.155
L452.345 184.875
L453.24 184.608
L454.135 181.78
L455.924 180.506
L456.818 179.37
L457.713 178.496
L461.291 175.883
L462.186 175.504
L463.08 173.747
L463.975 172.85
L463.975 172.85" style="fill:none;stroke:#00bfbf;stroke-linecap:square;"/>
   </g>
   <g id="line2d_12">
    <path clip-path="url(#pf51f381abf)" d="
M17.575 368.737
L18.4696 368.402
L19.3642 366.93
L21.1534 366.273
L22.0479 366.001
L23.8371 365.236
L26.5209 364.09
L27.4155 363.494
L35.4668 360.461
L36.3614 359.94
L38.1506 359.321
L44.4127 357.218
L45.3073 356.699
L47.991 355.883
L48.8856 355.393
L52.464 354.24
L53.3586 353.801
L56.0423 352.835
L58.7261 351.865
L59.6207 351.362
L64.0936 349.709
L65.8828 349.107
L66.7774 348.568
L68.5666 347.98
L73.0395 346.449
L74.8287 345.857
L75.7233 345.169
L78.4071 344.31
L81.9854 343.042
L83.7746 342.443
L90.0367 340.44
L90.9313 338.607
L91.8259 337.826
L95.4043 336.679
L97.1934 336.076
L107.034 332.792
L107.929 332.341
L108.823 332.027
L109.718 330.541
L112.401 329.565
L113.296 329.259
L114.191 327.819
L115.085 325.798
L125.82 322.248
L126.715 321.815
L129.399 320.911
L132.977 319.646
L136.555 317.925
L137.45 317.628
L138.345 317.214
L142.817 315.766
L151.763 312.937
L153.553 312.313
L159.815 310.102
L160.709 308.578
L162.498 308.037
L163.393 306.163
L164.288 305.902
L165.182 303.071
L167.866 302.111
L171.444 300.966
L175.023 299.91
L180.39 298.08
L183.969 296.783
L184.863 296.455
L186.652 295.459
L187.547 295.184
L188.442 294.281
L192.02 293.177
L192.914 291.674
L193.809 291.343
L194.704 289.978
L199.177 288.469
L200.966 287.936
L202.755 287.323
L203.65 287.075
L204.544 286.665
L214.385 283.426
L215.279 282.057
L219.752 280.58
L220.647 280.177
L225.12 278.74
L226.014 278.375
L226.909 276.97
L227.803 276.569
L230.487 275.707
L231.382 275.152
L234.96 274.037
L236.749 273.468
L237.644 272.857
L239.433 272.241
L243.011 271.044
L251.957 268.045
L253.747 267.375
L254.641 267.109
L255.536 265.714
L256.43 265.226
L261.798 263.326
L264.482 262.471
L268.06 261.175
L270.744 260.322
L277.006 257.995
L277.9 256.408
L279.69 255.85
L280.584 255.286
L283.268 254.408
L290.425 251.979
L291.319 250.921
L293.108 250.276
L294.898 249.673
L295.792 248.258
L298.476 247.406
L300.265 244.429
L304.738 242.83
L309.211 241.278
L318.157 238.187
L319.052 237.695
L320.841 237.075
L323.524 236.182
L324.419 235.895
L325.314 235.031
L327.103 234.484
L327.997 234.089
L330.681 233.285
L343.205 228.932
L344.1 228.649
L344.995 227.935
L345.889 226.16
L354.835 223.111
L357.519 222.296
L358.413 221.984
L359.308 221.425
L361.992 220.608
L365.57 219.403
L366.465 218.822
L370.043 217.652
L370.938 217.056
L373.621 216.2
L374.516 215.872
L375.411 214.407
L387.935 209.905
L388.83 209.653
L389.724 209.121
L392.408 208.152
L395.986 206.924
L397.775 206.194
L399.565 205.521
L400.459 205.242
L401.354 204.581
L404.038 203.696
L404.932 202.953
L413.878 199.865
L414.773 199.154
L415.667 197.009
L416.562 196.645
L417.456 196.092
L420.14 195.16
L421.035 194.514
L423.718 193.6
L424.613 191.929
L426.402 191.274
L427.297 190.823
L429.086 190.23
L429.981 189.538
L431.77 188.977
L432.664 187.909
L436.243 186.533
L438.032 185.908
L438.927 184.844
L440.716 183.847
L441.61 182.417
L443.399 181.728
L445.189 180.898
L447.872 180.076
L448.767 178.579
L449.662 178.257
L450.556 176.768
L452.345 176.15
L453.24 175.843
L454.135 174.442
L461.291 171.364
L462.186 170.905
L463.08 170.308
L463.975 167.465
L463.975 167.465" style="fill:none;stroke:#bf00bf;stroke-linecap:square;"/>
   </g>
   <g id="line2d_13">
    <path clip-path="url(#pf51f381abf)" d="
M17.575 368.737
L22.0479 367.153
L22.9425 365.555
L23.8371 365.148
L24.7317 364.874
L25.6263 363.924
L26.5209 362.278
L27.4155 360.959
L28.3101 360.654
L29.2047 359.934
L34.5722 357.881
L35.4668 357.617
L37.256 356.883
L39.0451 356.25
L45.3073 353.675
L48.8856 352.337
L49.7802 351.711
L56.9369 348.947
L58.7261 348.234
L59.6207 346.576
L60.5153 346.203
L61.4099 345.7
L63.199 345.051
L76.6179 339.749
L77.5125 338.186
L82.88 336.187
L83.7746 335.702
L85.5638 335.109
L88.2475 333.976
L90.0367 333.402
L91.8259 332.663
L92.7205 332.378
L93.6151 331.606
L95.4043 331.041
L96.2988 330.57
L98.088 329.989
L98.9826 329.554
L100.772 328.978
L101.666 327.536
L106.139 325.887
L107.034 325.295
L112.401 323.292
L117.769 321.364
L118.664 320.231
L119.558 319.93
L120.453 319.385
L123.137 318.444
L124.926 317.661
L125.82 315.922
L126.715 315.145
L128.504 314.514
L132.977 312.76
L135.661 311.791
L138.345 310.491
L139.239 309.947
L140.134 309.68
L141.028 309.296
L141.923 308.598
L143.712 307.867
L145.501 307.105
L148.185 306.113
L149.08 305.082
L150.869 304.421
L151.763 302.525
L154.447 301.536
L170.55 295.506
L171.444 294.593
L174.128 293.679
L175.023 293.123
L175.917 292.792
L176.812 291.134
L180.39 289.899
L184.863 288.268
L185.758 287.826
L188.442 286.879
L190.231 286.109
L191.125 285.821
L192.02 284.182
L192.914 282.996
L197.387 281.136
L198.282 279.594
L200.071 278.93
L200.966 278.629
L201.86 278.029
L202.755 277.752
L204.544 276.765
L205.439 275.324
L206.333 274.878
L209.017 273.919
L209.912 273.42
L210.806 271.852
L211.701 271.314
L213.49 270.648
L216.174 269.447
L219.752 268.147
L220.647 266.682
L221.541 266.045
L223.331 265.275
L225.12 264.633
L226.909 263.871
L227.803 262.565
L231.382 261.238
L232.276 260.215
L239.433 257.445
L240.328 256.845
L244.801 255.163
L245.695 254.887
L246.59 253.697
L249.274 252.645
L250.168 251.56
L251.063 251.273
L253.747 250.009
L256.43 249.022
L262.692 246.593
L263.587 246.031
L266.271 245.01
L268.06 244.239
L269.849 243.57
L271.638 242.9
L272.533 242.477
L276.111 241.297
L278.795 240.294
L279.69 239.821
L284.163 238.171
L285.057 237.583
L286.846 236.953
L287.741 234.971
L289.53 234.371
L295.792 231.611
L298.476 230.709
L300.265 230.069
L301.16 228.866
L302.054 228.542
L302.949 226.942
L304.738 226.193
L307.422 225.296
L309.211 224.504
L313.684 222.833
L314.579 222.244
L316.368 221.616
L318.157 220.869
L319.052 220.577
L319.946 220.104
L322.63 219.061
L323.524 217.771
L327.103 216.537
L327.997 216.028
L328.892 215.755
L333.365 213.775
L334.26 212.306
L343.205 208.615
L344.995 207.99
L345.889 206.442
L346.784 206.127
L347.678 205.552
L353.046 203.478
L353.941 201.97
L354.835 201.43
L355.73 201.142
L356.624 200.185
L362.886 198.015
L364.676 197.275
L366.465 196.609
L367.359 195.05
L370.938 193.645
L371.832 193.009
L376.305 191.332
L377.2 189.875
L378.989 189.116
L379.884 188.525
L384.357 186.83
L386.146 185.893
L390.619 184.31
L393.302 183.298
L395.092 182.628
L397.775 181.179
L399.565 180.565
L400.459 180.29
L401.354 178.506
L406.721 176.48
L407.616 175.943
L409.405 175.245
L410.3 174.678
L411.194 174.343
L412.089 172.867
L413.878 172.149
L415.667 171.54
L417.456 170.791
L420.14 169.799
L423.718 168.274
L431.77 164.956
L432.664 163.662
L437.137 161.898
L438.032 161.354
L439.821 160.725
L443.399 158.994
L444.294 158.134
L445.189 157.612
L446.978 156.891
L447.872 156.438
L449.662 154.822
L450.556 153.567
L452.345 152.88
L454.135 152.225
L455.029 150.419
L455.924 150.02
L456.818 149.411
L458.607 148.68
L463.08 146.735
L463.975 146.019
L463.975 146.019" style="fill:none;stroke:#bfbf00;stroke-linecap:square;"/>
   </g>
   <g id="line2d_14">
    <path clip-path="url(#pf51f381abf)" d="
M17.575 368.737
L18.4696 367.726
L19.3642 367.411
L20.2588 365.648
L21.1534 365.129
L22.0479 364.396
L22.9425 364.075
L23.8371 363.619
L24.7317 362.16
L27.4155 360.88
L30.9938 359.43
L31.8884 358.791
L33.6776 358.03
L39.0451 355.488
L39.9397 354.536
L42.6235 353.379
L43.5181 352.838
L46.2019 351.812
L47.0964 350.363
L52.464 347.936
L53.3586 347.631
L54.2532 346.635
L56.0423 345.855
L56.9369 344.364
L57.8315 344.004
L58.7261 342.552
L59.6207 342.217
L61.4099 341.29
L63.199 340.584
L64.9882 339.87
L65.8828 339.287
L78.4071 333.969
L79.3017 330.956
L81.0908 330.114
L81.9854 329.75
L82.88 329.211
L85.5638 328.21
L87.353 327.452
L88.2475 326.988
L89.1421 326.678
L90.0367 326.103
L90.9313 325.67
L91.8259 324.235
L99.8772 320.571
L100.772 320.277
L102.561 319.552
L106.139 318.092
L107.929 317.314
L108.823 316.991
L109.718 316.422
L111.507 315.666
L112.401 315.281
L114.191 314.246
L115.98 313.487
L116.874 312.859
L120.453 311.33
L122.242 307.92
L123.137 307.504
L124.031 306.949
L125.82 306.213
L126.715 305.501
L127.609 305.169
L128.504 304.684
L129.399 304.333
L130.293 303.782
L132.977 302.666
L133.872 301.043
L135.661 300.376
L136.555 299.784
L137.45 299.465
L139.239 298.626
L141.028 297.948
L142.817 297.185
L143.712 296.493
L150.869 293.527
L151.763 292.779
L156.236 290.931
L157.131 289.055
L161.604 287.034
L165.182 285.548
L166.077 283.953
L167.866 283.009
L168.761 282.1
L170.55 281.356
L171.444 280.833
L173.234 280.195
L175.023 279.405
L177.706 278.256
L178.601 277.935
L179.496 277.253
L181.285 276.545
L184.863 274.751
L188.442 273.319
L190.231 272.644
L192.02 271.959
L192.914 271.382
L199.177 268.733
L200.071 267.18
L200.966 266.824
L201.86 265.808
L207.228 263.569
L209.017 262.772
L212.595 261.343
L213.49 260.655
L214.385 260.125
L217.963 258.621
L226.909 255.032
L234.066 252.093
L235.855 251.167
L237.644 250.435
L239.433 249.643
L240.328 248.089
L241.222 247.422
L243.011 246.708
L243.906 246.076
L244.801 245.758
L245.695 244.931
L247.484 243.996
L262.692 237.682
L263.587 237.158
L264.482 236.787
L265.376 236.217
L269.849 234.382
L270.744 233.801
L272.533 233.073
L275.217 232.08
L277.006 231.286
L277.9 230.913
L279.69 229.363
L280.584 228.985
L281.479 228.332
L285.057 226.73
L288.636 225.285
L291.319 224.179
L292.214 223.449
L293.108 222.975
L294.003 220.032
L299.371 217.762
L300.265 216.052
L301.16 215.408
L302.949 214.727
L303.844 212.917
L315.473 208.283
L316.368 206.444
L319.052 205.299
L319.946 204.837
L321.735 204.081
L325.314 202.661
L326.208 201.228
L330.681 199.316
L334.26 197.783
L335.154 197.301
L336.943 196.68
L337.838 195.827
L342.311 193.839
L343.205 192.972
L344.995 192.296
L348.573 190.63
L350.362 189.868
L354.835 187.884
L355.73 187.559
L359.308 185.804
L361.097 184.509
L361.992 183.944
L362.886 183.63
L363.781 182.946
L364.676 182.573
L365.57 181.466
L368.254 180.208
L369.149 179.519
L370.043 179.104
L370.938 177.867
L372.727 177.196
L373.621 176.609
L377.2 174.983
L378.094 173.44
L378.989 173.077
L379.884 172.52
L381.673 171.791
L385.251 170.358
L386.146 168.677
L389.724 167.23
L395.986 164.618
L398.67 163.321
L399.565 162.847
L400.459 162.525
L402.248 161.615
L404.932 160.495
L405.827 160.139
L409.405 158.272
L411.194 157.471
L412.089 156.738
L420.14 153.19
L421.929 152.4
L423.718 151.784
L424.613 151.215
L428.191 149.631
L430.875 148.297
L432.664 147.497
L434.454 146.386
L435.348 145.994
L436.243 144.602
L437.137 142.944
L443.399 140.153
L445.189 139.43
L451.451 136.792
L452.345 135.019
L455.924 133.419
L456.818 132.034
L457.713 131.471
L458.607 130.206
L461.291 129.017
L462.186 128.091
L463.975 127.337
L463.975 127.337" style="fill:none;stroke:#000000;stroke-linecap:square;"/>
   </g>
   <g id="line2d_15">
    <path clip-path="url(#pf51f381abf)" d="
M17.575 368.553
L18.4696 368.126
L19.3642 367.783
L20.2588 367.442
L21.1534 366.676
L22.9425 363.565
L23.8371 361.945
L24.7317 361.601
L26.5209 360.336
L28.3101 359.417
L29.2047 357.758
L33.6776 355.797
L34.5722 354.898
L39.0451 352.975
L39.9397 351.632
L41.7289 350.623
L42.6235 347.993
L43.5181 346.907
L44.4127 346.32
L45.3073 345.391
L46.2019 344.908
L47.0964 344.567
L48.8856 343.586
L51.5694 342.421
L52.464 341.914
L53.3586 341.55
L56.0423 339.972
L57.8315 339.194
L62.3045 336.944
L65.8828 335.254
L66.7774 333.927
L68.5666 333.204
L75.7233 329.713
L76.6179 328.776
L78.4071 327.883
L79.3017 327.51
L81.0908 326.281
L85.5638 324.155
L87.353 323.38
L88.2475 321.804
L90.9313 320.682
L92.7205 319.407
L93.6151 318.865
L94.5097 318.525
L96.2988 317.586
L97.1934 317.228
L98.9826 316.285
L104.35 314.017
L105.245 313.428
L106.139 313.022
L107.034 312.261
L108.823 311.448
L110.612 310.692
L111.507 309.963
L113.296 309.196
L114.191 308.277
L116.874 307.071
L117.769 305.705
L118.664 304.083
L122.242 302.437
L123.137 300.838
L124.926 300.058
L125.82 298.723
L126.715 298.281
L127.609 296.802
L129.399 295.922
L136.555 292.749
L137.45 291.531
L138.345 291.049
L139.239 290.422
L141.028 289.704
L142.817 288.912
L147.29 286.757
L148.185 285.537
L149.08 285.163
L149.974 284.642
L157.131 281.538
L159.815 280.245
L160.709 278.555
L162.498 277.649
L175.023 272.177
L176.812 271.397
L180.39 269.884
L182.179 269.143
L183.074 268.634
L183.969 267.12
L185.758 266.232
L186.652 265.238
L188.442 264.478
L190.231 261.839
L192.914 260.709
L193.809 260.142
L194.704 258.497
L195.598 257.585
L196.493 256.36
L197.387 255.858
L200.071 254.663
L200.966 254.218
L201.86 252.946
L204.544 251.641
L207.228 250.375
L209.017 249.654
L209.912 248.032
L211.701 245.623
L212.595 245.269
L213.49 243.896
L214.385 241.263
L218.858 239.415
L219.752 237.349
L220.647 236.617
L223.331 235.51
L224.225 235.061
L225.12 234.064
L227.803 232.692
L228.698 232.185
L229.593 231.845
L231.382 230.588
L233.171 229.811
L234.066 229.255
L234.96 227.807
L237.644 226.363
L238.539 224.987
L240.328 224.077
L241.222 223.68
L242.117 223.128
L243.906 222.348
L246.59 221.119
L250.168 219.565
L253.747 217.831
L256.43 216.687
L257.325 216.289
L258.219 214.885
L260.903 213.776
L261.798 213.012
L263.587 212.225
L265.376 211.436
L266.271 210.841
L269.849 209.258
L271.638 208.419
L273.428 207.633
L274.322 207.318
L281.479 203.664
L282.373 202.978
L283.268 201.773
L286.846 200.264
L290.425 198.378
L294.003 196.804
L294.898 193.76
L295.792 192.478
L297.581 191.676
L298.476 190.418
L299.371 189.942
L300.265 188.673
L302.949 187.375
L303.844 185.796
L307.422 183.933
L309.211 183.12
L311 180.136
L315.473 178.068
L317.262 177.186
L318.157 176.834
L322.63 174.369
L326.208 172.809
L327.103 172.412
L327.997 170.712
L336.943 166.574
L340.522 164.615
L344.995 162.791
L345.889 162.321
L346.784 160.434
L347.678 159.826
L349.468 159.048
L352.151 157.903
L353.941 157.139
L354.835 155.57
L357.519 154.411
L358.413 152.689
L359.308 152.097
L362.886 150.684
L364.676 149.77
L365.57 148.479
L367.359 147.72
L372.727 145.215
L376.305 143.441
L377.2 142.706
L378.094 141.631
L389.724 136.026
L390.619 135.352
L392.408 134.496
L393.302 133.859
L394.197 132.276
L395.092 131.373
L396.881 130.591
L398.67 129.368
L399.565 127.746
L401.354 126.492
L402.248 125.951
L403.143 123.488
L406.721 121.759
L408.51 120.813
L409.405 120.381
L410.3 118.955
L412.983 117.568
L414.773 116.771
L415.667 115.674
L418.351 114.476
L419.246 113.855
L420.14 113.463
L421.035 112.462
L422.824 111.665
L424.613 110.842
L426.402 109.952
L427.297 109.334
L429.981 107.817
L431.77 106.817
L433.559 105.927
L434.454 104.356
L435.348 103.183
L437.137 102.387
L440.716 100.488
L441.61 99.6904
L444.294 98.5574
L446.083 97.7297
L446.978 96.5046
L447.872 96.1273
L448.767 95.3854
L449.662 94.8451
L450.556 93.1119
L451.451 92.7738
L453.24 91.669
L454.135 91.2895
L455.029 89.8673
L455.924 89.3754
L456.818 88.6393
L458.607 87.7327
L459.502 86.6164
L460.397 86.0974
L461.291 84.6188
L463.08 83.8032
L463.975 82.1201
L463.975 82.1201" style="fill:none;stroke:#0000ff;stroke-linecap:square;"/>
   </g>
   <g id="line2d_16">
    <path clip-path="url(#pf51f381abf)" d="
M17.575 368.722
L18.4696 368.153
L19.3642 367.685
L20.2588 367.257
L21.1534 366.526
L22.9425 365.718
L23.8371 364.712
L24.7317 364.137
L25.6263 363.748
L26.5209 362.818
L27.4155 361.674
L30.9938 360.066
L31.8884 359.559
L33.6776 358.779
L35.4668 357.548
L37.256 356.761
L39.9397 355.155
L40.8343 354.696
L41.7289 352.921
L42.6235 349.659
L43.5181 349.276
L44.4127 348.701
L45.3073 347.825
L47.991 346.652
L48.8856 344.027
L50.6748 341.009
L51.5694 340.399
L52.464 338.032
L55.1477 336.722
L56.0423 335.58
L57.8315 334.697
L58.7261 334.077
L60.5153 333.224
L62.3045 332.132
L63.199 331.39
L64.9882 330.465
L68.5666 328.744
L73.0395 326.546
L77.5125 324.512
L78.4071 323.798
L79.3017 319.442
L81.9854 318.089
L84.6692 316.739
L86.4584 315.797
L88.2475 314.852
L89.1421 314.323
L91.8259 313.12
L93.6151 312.156
L94.5097 310.833
L95.4043 307.739
L97.1934 306.762
L98.9826 305.951
L101.666 304.657
L103.456 303.798
L104.35 303.013
L105.245 302.524
L106.139 300.708
L114.191 296.679
L116.874 294.755
L119.558 293.105
L123.137 291.34
L124.926 288.31
L127.609 286.821
L128.504 285.016
L130.293 283.936
L131.188 282.933
L132.977 282.154
L133.872 280.546
L138.345 278.413
L139.239 277.78
L140.134 277.419
L141.923 276.306
L143.712 275.502
L144.607 275.067
L145.501 273.381
L152.658 270.2
L153.553 268.778
L155.342 267.911
L159.815 265.648
L160.709 264.953
L161.604 264.576
L162.498 263.804
L165.182 262.389
L166.971 260.491
L168.761 259.627
L169.655 257.473
L170.55 255.774
L171.444 255.375
L175.023 253.376
L176.812 252.319
L178.601 251.068
L181.285 246.938
L183.074 246.098
L183.969 245.466
L185.758 244.667
L187.547 243.804
L190.231 242.389
L192.914 241.182
L194.704 240.302
L195.598 239.681
L197.387 238.88
L198.282 237.3
L199.177 236.848
L200.071 236.003
L200.966 235.435
L201.86 234.404
L207.228 231.75
L208.122 231.037
L209.017 230.665
L210.806 229.626
L212.595 228.803
L213.49 227.842
L214.385 227.178
L215.279 226.825
L216.174 226.216
L217.963 225.276
L218.858 224.674
L220.647 222.052
L223.331 220.867
L224.225 220.371
L226.014 219.557
L227.803 218.743
L230.487 217.603
L233.171 216.192
L234.066 215.783
L234.96 215.145
L235.855 214.729
L236.749 214.174
L238.539 212.856
L240.328 212.013
L242.117 211.205
L243.011 210.502
L244.801 209.736
L246.59 208.807
L251.957 206.311
L252.852 204.655
L258.219 201.939
L259.114 200.178
L260.009 199.786
L260.903 195.719
L261.798 195.116
L262.692 194.756
L263.587 191.89
L264.482 191.51
L265.376 190.969
L267.165 190.157
L268.955 189.18
L269.849 187.929
L271.638 186.881
L273.428 184.592
L277.006 182.939
L277.9 182.407
L278.795 181.74
L280.584 180.881
L281.479 179.024
L282.373 178.566
L284.163 175.059
L287.741 173.376
L288.636 172.709
L290.425 171.832
L293.108 170.605
L294.003 169.449
L294.898 169.05
L296.687 167.91
L297.581 167.392
L299.371 166.617
L300.265 166.1
L301.16 165.438
L302.054 164.283
L303.844 163.421
L304.738 162.513
L305.633 162.073
L306.527 160.589
L308.316 159.725
L309.211 157.985
L311 157.042
L311.895 156.625
L312.789 155.973
L315.473 154.72
L317.262 153.781
L319.052 153.029
L319.946 152.572
L320.841 151.195
L321.735 149.365
L323.524 148.359
L324.419 147.865
L325.314 146.399
L327.103 145.458
L327.997 143.9
L329.787 143.014
L330.681 142.209
L332.47 139.571
L333.365 138.915
L341.416 134.931
L342.311 134.297
L347.678 131.638
L349.468 130.798
L350.362 129.741
L354.835 127.545
L356.624 126.701
L358.413 125.704
L359.308 124.246
L362.886 122.815
L363.781 121.642
L364.676 119.862
L366.465 118.999
L369.149 117.72
L370.938 114.332
L372.727 113.51
L374.516 112.666
L375.411 111.185
L377.2 110.007
L378.094 107.808
L379.884 106.949
L380.778 106.165
L383.462 104.822
L384.357 104.027
L385.251 103.591
L386.146 102.936
L390.619 100.812
L391.513 99.6109
L392.408 99.157
L393.302 98.2977
L394.197 97.8104
L395.986 95.2898
L396.881 94.8687
L398.67 93.7732
L399.565 91.9755
L400.459 90.8039
L401.354 89.9485
L402.248 89.4537
L403.143 86.6239
L404.038 85.0214
L404.932 84.6009
L405.827 83.2473
L407.616 82.2964
L408.51 80.5315
L411.194 79.1791
L412.983 75.6701
L413.878 75.2421
L415.667 74.0625
L416.562 73.2877
L421.035 70.9388
L421.929 70.1387
L423.718 69.3035
L424.613 68.6175
L426.402 67.45
L427.297 66.7357
L433.559 63.4842
L435.348 62.5327
L437.137 61.6059
L438.032 58.8635
L438.927 57.5641
L439.821 57.0474
L440.716 55.5757
L441.61 53.7573
L444.294 52.4555
L445.189 51.9222
L446.083 51.1256
L446.978 49.7155
L447.872 49.34
L448.767 48.7478
L449.662 48.2991
L450.556 46.805
L451.451 46.2612
L452.345 45.1634
L453.24 44.6392
L454.135 43.6306
L455.924 42.7131
L456.818 40.7852
L461.291 38.1846
L462.186 37.7226
L463.08 36.3419
L463.975 35.5638
L463.975 35.5638" style="fill:none;stroke:#008000;stroke-linecap:square;"/>
   </g>
   <g id="patch_3">
    <path d="
M17.575 23.1417
L463.975 23.1417" style="fill:none;stroke:#000000;stroke-linecap:square;stroke-linejoin:miter;"/>
   </g>
   <g id="patch_4">
    <path d="
M463.975 368.742
L463.975 23.1417" style="fill:none;stroke:#000000;stroke-linecap:square;stroke-linejoin:miter;"/>
   </g>
   <g id="patch_5">
    <path d="
M17.575 368.742
L463.975 368.742" style="fill:none;stroke:#000000;stroke-linecap:square;stroke-linejoin:miter;"/>
   </g>
   <g id="patch_6">
    <path d="
M17.575 368.742
L17.575 23.1417" style="fill:none;stroke:#000000;stroke-linecap:square;stroke-linejoin:miter;"/>
   </g>
   <g id="matplotlib.axis_1">
    <g id="xtick_1">
     <g id="line2d_17">
      <defs>
       <path d="
M0 0
L0 -4" id="m93b0483c22" style="stroke:#000000;stroke-width:0.5;"/>
      </defs>
      <g>
       <use style="stroke:#000000;stroke-width:0.5;" x="17.575" xlink:href="#m93b0483c22" y="368.74175"/>
      </g>
     </g>
     <g id="line2d_18">
      <defs>
       <path d="
M0 0
L0 4" id="m741efc42ff" style="stroke:#000000;stroke-width:0.5;"/>
      </defs>
      <g>
       <use style="stroke:#000000;stroke-width:0.5;" x="17.575" xlink:href="#m741efc42ff" y="23.14175"/>
      </g>
     </g>
     <g id="text_1">
      <!-- 0 -->
      <defs>
       <path d="
M31.7812 66.4062
Q24.1719 66.4062 20.3281 58.9062
Q16.5 51.4219 16.5 36.375
Q16.5 21.3906 20.3281 13.8906
Q24.1719 6.39062 31.7812 6.39062
Q39.4531 6.39062 43.2812 13.8906
Q47.125 21.3906 47.125 36.375
Q47.125 51.4219 43.2812 58.9062
Q39.4531 66.4062 31.7812 66.4062
M31.7812 74.2188
Q44.0469 74.2188 50.5156 64.5156
Q56.9844 54.8281 56.9844 36.375
Q56.9844 17.9688 50.5156 8.26562
Q44.0469 -1.42188 31.7812 -1.42188
Q19.5312 -1.42188 13.0625 8.26562
Q6.59375 17.9688 6.59375 36.375
Q6.59375 54.8281 13.0625 64.5156
Q19.5312 74.2188 31.7812 74.2188" id="DejaVuSans-30"/>
      </defs>
      <g transform="translate(14.5515625 381.859875)scale(0.12 -0.12)">
       <use xlink:href="#DejaVuSans-30"/>
      </g>
     </g>
    </g>
    <g id="xtick_2">
     <g id="line2d_19">
      <g>
       <use style="stroke:#000000;stroke-width:0.5;" x="107.033917836" xlink:href="#m93b0483c22" y="368.74175"/>
      </g>
     </g>
     <g id="line2d_20">
      <g>
       <use style="stroke:#000000;stroke-width:0.5;" x="107.033917836" xlink:href="#m741efc42ff" y="23.14175"/>
      </g>
     </g>
     <g id="text_2">
      <!-- 100 -->
      <defs>
       <path d="
M12.4062 8.29688
L28.5156 8.29688
L28.5156 63.9219
L10.9844 60.4062
L10.9844 69.3906
L28.4219 72.9062
L38.2812 72.9062
L38.2812 8.29688
L54.3906 8.29688
L54.3906 0
L12.4062 0
z
" id="DejaVuSans-31"/>
      </defs>
      <g transform="translate(96.6389178357 381.859875)scale(0.12 -0.12)">
       <use xlink:href="#DejaVuSans-31"/>
       <use x="63.623046875" xlink:href="#DejaVuSans-30"/>
       <use x="127.24609375" xlink:href="#DejaVuSans-30"/>
      </g>
     </g>
    </g>
    <g id="xtick_3">
     <g id="line2d_21">
      <g>
       <use style="stroke:#000000;stroke-width:0.5;" x="196.492835671" xlink:href="#m93b0483c22" y="368.74175"/>
      </g>
     </g>
     <g id="line2d_22">
      <g>
       <use style="stroke:#000000;stroke-width:0.5;" x="196.492835671" xlink:href="#m741efc42ff" y="23.14175"/>
      </g>
     </g>
     <g id="text_3">
      <!-- 200 -->
      <defs>
       <path d="
M19.1875 8.29688
L53.6094 8.29688
L53.6094 0
L7.32812 0
L7.32812 8.29688
Q12.9375 14.1094 22.625 23.8906
Q32.3281 33.6875 34.8125 36.5312
Q39.5469 41.8438 41.4219 45.5312
Q43.3125 49.2188 43.3125 52.7812
Q43.3125 58.5938 39.2344 62.25
Q35.1562 65.9219 28.6094 65.9219
Q23.9688 65.9219 18.8125 64.3125
Q13.6719 62.7031 7.8125 59.4219
L7.8125 69.3906
Q13.7656 71.7812 18.9375 73
Q24.125 74.2188 28.4219 74.2188
Q39.75 74.2188 46.4844 68.5469
Q53.2188 62.8906 53.2188 53.4219
Q53.2188 48.9219 51.5312 44.8906
Q49.8594 40.875 45.4062 35.4062
Q44.1875 33.9844 37.6406 27.2188
Q31.1094 20.4531 19.1875 8.29688" id="DejaVuSans-32"/>
      </defs>
      <g transform="translate(185.878460671 381.859875)scale(0.12 -0.12)">
       <use xlink:href="#DejaVuSans-32"/>
       <use x="63.623046875" xlink:href="#DejaVuSans-30"/>
       <use x="127.24609375" xlink:href="#DejaVuSans-30"/>
      </g>
     </g>
    </g>
    <g id="xtick_4">
     <g id="line2d_23">
      <g>
       <use style="stroke:#000000;stroke-width:0.5;" x="285.951753507" xlink:href="#m93b0483c22" y="368.74175"/>
      </g>
     </g>
     <g id="line2d_24">
      <g>
       <use style="stroke:#000000;stroke-width:0.5;" x="285.951753507" xlink:href="#m741efc42ff" y="23.14175"/>
      </g>
     </g>
     <g id="text_4">
      <!-- 300 -->
      <defs>
       <path d="
M40.5781 39.3125
Q47.6562 37.7969 51.625 33
Q55.6094 28.2188 55.6094 21.1875
Q55.6094 10.4062 48.1875 4.48438
Q40.7656 -1.42188 27.0938 -1.42188
Q22.5156 -1.42188 17.6562 -0.515625
Q12.7969 0.390625 7.625 2.20312
L7.625 11.7188
Q11.7188 9.32812 16.5938 8.10938
Q21.4844 6.89062 26.8125 6.89062
Q36.0781 6.89062 40.9375 10.5469
Q45.7969 14.2031 45.7969 21.1875
Q45.7969 27.6406 41.2812 31.2656
Q36.7656 34.9062 28.7188 34.9062
L20.2188 34.9062
L20.2188 43.0156
L29.1094 43.0156
Q36.375 43.0156 40.2344 45.9219
Q44.0938 48.8281 44.0938 54.2969
Q44.0938 59.9062 40.1094 62.9062
Q36.1406 65.9219 28.7188 65.9219
Q24.6562 65.9219 20.0156 65.0312
Q15.375 64.1562 9.8125 62.3125
L9.8125 71.0938
Q15.4375 72.6562 20.3438 73.4375
Q25.25 74.2188 29.5938 74.2188
Q40.8281 74.2188 47.3594 69.1094
Q53.9062 64.0156 53.9062 55.3281
Q53.9062 49.2656 50.4375 45.0938
Q46.9688 40.9219 40.5781 39.3125" id="DejaVuSans-33"/>
      </defs>
      <g transform="translate(275.355191007 381.859875)scale(0.12 -0.12)">
       <use xlink:href="#DejaVuSans-33"/>
       <use x="63.623046875" xlink:href="#DejaVuSans-30"/>
       <use x="127.24609375" xlink:href="#DejaVuSans-30"/>
      </g>
     </g>
    </g>
    <g id="xtick_5">
     <g id="line2d_25">
      <g>
       <use style="stroke:#000000;stroke-width:0.5;" x="375.410671343" xlink:href="#m93b0483c22" y="368.74175"/>
      </g>
     </g>
     <g id="line2d_26">
      <g>
       <use style="stroke:#000000;stroke-width:0.5;" x="375.410671343" xlink:href="#m741efc42ff" y="23.14175"/>
      </g>
     </g>
     <g id="text_5">
      <!-- 400 -->
      <defs>
       <path d="
M37.7969 64.3125
L12.8906 25.3906
L37.7969 25.3906
z

M35.2031 72.9062
L47.6094 72.9062
L47.6094 25.3906
L58.0156 25.3906
L58.0156 17.1875
L47.6094 17.1875
L47.6094 0
L37.7969 0
L37.7969 17.1875
L4.89062 17.1875
L4.89062 26.7031
z
" id="DejaVuSans-34"/>
      </defs>
      <g transform="translate(364.650046343 381.859875)scale(0.12 -0.12)">
       <use xlink:href="#DejaVuSans-34"/>
       <use x="63.623046875" xlink:href="#DejaVuSans-30"/>
       <use x="127.24609375" xlink:href="#DejaVuSans-30"/>
      </g>
     </g>
    </g>
    <g id="text_6">
     <!-- time -->
     <defs>
      <path d="
M18.3125 70.2188
L18.3125 54.6875
L36.8125 54.6875
L36.8125 47.7031
L18.3125 47.7031
L18.3125 18.0156
Q18.3125 11.3281 20.1406 9.42188
Q21.9688 7.51562 27.5938 7.51562
L36.8125 7.51562
L36.8125 0
L27.5938 0
Q17.1875 0 13.2344 3.875
Q9.28125 7.76562 9.28125 18.0156
L9.28125 47.7031
L2.6875 47.7031
L2.6875 54.6875
L9.28125 54.6875
L9.28125 70.2188
z
" id="DejaVuSans-74"/>
      <path d="
M52 44.1875
Q55.375 50.25 60.0625 53.125
Q64.75 56 71.0938 56
Q79.6406 56 84.2812 50.0156
Q88.9219 44.0469 88.9219 33.0156
L88.9219 0
L79.8906 0
L79.8906 32.7188
Q79.8906 40.5781 77.0938 44.375
Q74.3125 48.1875 68.6094 48.1875
Q61.625 48.1875 57.5625 43.5469
Q53.5156 38.9219 53.5156 30.9062
L53.5156 0
L44.4844 0
L44.4844 32.7188
Q44.4844 40.625 41.7031 44.4062
Q38.9219 48.1875 33.1094 48.1875
Q26.2188 48.1875 22.1562 43.5312
Q18.1094 38.875 18.1094 30.9062
L18.1094 0
L9.07812 0
L9.07812 54.6875
L18.1094 54.6875
L18.1094 46.1875
Q21.1875 51.2188 25.4844 53.6094
Q29.7812 56 35.6875 56
Q41.6562 56 45.8281 52.9688
Q50 49.9531 52 44.1875" id="DejaVuSans-6d"/>
      <path d="
M56.2031 29.5938
L56.2031 25.2031
L14.8906 25.2031
Q15.4844 15.9219 20.4844 11.0625
Q25.4844 6.20312 34.4219 6.20312
Q39.5938 6.20312 44.4531 7.46875
Q49.3125 8.73438 54.1094 11.2812
L54.1094 2.78125
Q49.2656 0.734375 44.1875 -0.34375
Q39.1094 -1.42188 33.8906 -1.42188
Q20.7969 -1.42188 13.1562 6.1875
Q5.51562 13.8125 5.51562 26.8125
Q5.51562 40.2344 12.7656 48.1094
Q20.0156 56 32.3281 56
Q43.3594 56 49.7812 48.8906
Q56.2031 41.7969 56.2031 29.5938
M47.2188 32.2344
Q47.125 39.5938 43.0938 43.9844
Q39.0625 48.3906 32.4219 48.3906
Q24.9062 48.3906 20.3906 44.1406
Q15.875 39.8906 15.1875 32.1719
z
" id="DejaVuSans-65"/>
      <path d="
M9.42188 54.6875
L18.4062 54.6875
L18.4062 0
L9.42188 0
z

M9.42188 75.9844
L18.4062 75.9844
L18.4062 64.5938
L9.42188 64.5938
z
" id="DejaVuSans-69"/>
     </defs>
     <g transform="translate(227.700625 398.473625)scale(0.12 -0.12)">
      <use xlink:href="#DejaVuSans-74"/>
      <use x="39.208984375" xlink:href="#DejaVuSans-69"/>
      <use x="66.9921875" xlink:href="#DejaVuSans-6d"/>
      <use x="164.404296875" xlink:href="#DejaVuSans-65"/>
     </g>
    </g>
   </g>
   <g id="matplotlib.axis_2">
    <g id="ytick_1">
     <g id="line2d_27">
      <defs>
       <path d="
M0 0
L4 0" id="m728421d6d4" style="stroke:#000000;stroke-width:0.5;"/>
      </defs>
      <g>
       <use style="stroke:#000000;stroke-width:0.5;" x="17.575" xlink:href="#m728421d6d4" y="368.74175"/>
      </g>
     </g>
     <g id="line2d_28">
      <defs>
       <path d="
M0 0
L-4 0" id="mcb0005524f" style="stroke:#000000;stroke-width:0.5;"/>
      </defs>
      <g>
       <use style="stroke:#000000;stroke-width:0.5;" x="463.975" xlink:href="#mcb0005524f" y="368.74175"/>
      </g>
     </g>
     <g id="text_7">
      <!-- 0 -->
      <g transform="translate(7.528125 372.053)scale(0.12 -0.12)">
       <use xlink:href="#DejaVuSans-30"/>
      </g>
     </g>
    </g>
    <g id="ytick_2">
     <g id="line2d_29">
      <g>
       <use style="stroke:#000000;stroke-width:0.5;" x="17.575" xlink:href="#m728421d6d4" y="311.14175"/>
      </g>
     </g>
     <g id="line2d_30">
      <g>
       <use style="stroke:#000000;stroke-width:0.5;" x="463.975" xlink:href="#mcb0005524f" y="311.14175"/>
      </g>
     </g>
     <g id="text_8">
      <!-- 1 -->
      <g transform="translate(8.36625 314.453)scale(0.12 -0.12)">
       <use xlink:href="#DejaVuSans-31"/>
      </g>
     </g>
    </g>
    <g id="ytick_3">
     <g id="line2d_31">
      <g>
       <use style="stroke:#000000;stroke-width:0.5;" x="17.575" xlink:href="#m728421d6d4" y="253.54175"/>
      </g>
     </g>
     <g id="line2d_32">
      <g>
       <use style="stroke:#000000;stroke-width:0.5;" x="463.975" xlink:href="#mcb0005524f" y="253.54175"/>
      </g>
     </g>
     <g id="text_9">
      <!-- 2 -->
      <g transform="translate(8.02125 256.853)scale(0.12 -0.12)">
       <use xlink:href="#DejaVuSans-32"/>
      </g>
     </g>
    </g>
    <g id="ytick_4">
     <g id="line2d_33">
      <g>
       <use style="stroke:#000000;stroke-width:0.5;" x="17.575" xlink:href="#m728421d6d4" y="195.94175"/>
      </g>
     </g>
     <g id="line2d_34">
      <g>
       <use style="stroke:#000000;stroke-width:0.5;" x="463.975" xlink:href="#mcb0005524f" y="195.94175"/>
      </g>
     </g>
     <g id="text_10">
      <!-- 3 -->
      <g transform="translate(7.816875 199.253)scale(0.12 -0.12)">
       <use xlink:href="#DejaVuSans-33"/>
      </g>
     </g>
    </g>
    <g id="ytick_5">
     <g id="line2d_35">
      <g>
       <use style="stroke:#000000;stroke-width:0.5;" x="17.575" xlink:href="#m728421d6d4" y="138.34175"/>
      </g>
     </g>
     <g id="line2d_36">
      <g>
       <use style="stroke:#000000;stroke-width:0.5;" x="463.975" xlink:href="#mcb0005524f" y="138.34175"/>
      </g>
     </g>
     <g id="text_11">
      <!-- 4 -->
      <g transform="translate(7.2 141.653)scale(0.12 -0.12)">
       <use xlink:href="#DejaVuSans-34"/>
      </g>
     </g>
    </g>
    <g id="ytick_6">
     <g id="line2d_37">
      <g>
       <use style="stroke:#000000;stroke-width:0.5;" x="17.575" xlink:href="#m728421d6d4" y="80.74175"/>
      </g>
     </g>
     <g id="line2d_38">
      <g>
       <use style="stroke:#000000;stroke-width:0.5;" x="463.975" xlink:href="#mcb0005524f" y="80.74175"/>
      </g>
     </g>
     <g id="text_12">
      <!-- 5 -->
      <defs>
       <path d="
M10.7969 72.9062
L49.5156 72.9062
L49.5156 64.5938
L19.8281 64.5938
L19.8281 46.7344
Q21.9688 47.4688 24.1094 47.8281
Q26.2656 48.1875 28.4219 48.1875
Q40.625 48.1875 47.75 41.5
Q54.8906 34.8125 54.8906 23.3906
Q54.8906 11.625 47.5625 5.09375
Q40.2344 -1.42188 26.9062 -1.42188
Q22.3125 -1.42188 17.5469 -0.640625
Q12.7969 0.140625 7.71875 1.70312
L7.71875 11.625
Q12.1094 9.23438 16.7969 8.0625
Q21.4844 6.89062 26.7031 6.89062
Q35.1562 6.89062 40.0781 11.3281
Q45.0156 15.7656 45.0156 23.3906
Q45.0156 31 40.0781 35.4375
Q35.1562 39.8906 26.7031 39.8906
Q22.75 39.8906 18.8125 39.0156
Q14.8906 38.1406 10.7969 36.2812
z
" id="DejaVuSans-35"/>
      </defs>
      <g transform="translate(7.914375 84.053)scale(0.12 -0.12)">
       <use xlink:href="#DejaVuSans-35"/>
      </g>
     </g>
    </g>
    <g id="ytick_7">
     <g id="line2d_39">
      <g>
       <use style="stroke:#000000;stroke-width:0.5;" x="17.575" xlink:href="#m728421d6d4" y="23.14175"/>
      </g>
     </g>
     <g id="line2d_40">
      <g>
       <use style="stroke:#000000;stroke-width:0.5;" x="463.975" xlink:href="#mcb0005524f" y="23.14175"/>
      </g>
     </g>
     <g id="text_13">
      <!-- 6 -->
      <defs>
       <path d="
M33.0156 40.375
Q26.375 40.375 22.4844 35.8281
Q18.6094 31.2969 18.6094 23.3906
Q18.6094 15.5312 22.4844 10.9531
Q26.375 6.39062 33.0156 6.39062
Q39.6562 6.39062 43.5312 10.9531
Q47.4062 15.5312 47.4062 23.3906
Q47.4062 31.2969 43.5312 35.8281
Q39.6562 40.375 33.0156 40.375
M52.5938 71.2969
L52.5938 62.3125
Q48.875 64.0625 45.0938 64.9844
Q41.3125 65.9219 37.5938 65.9219
Q27.8281 65.9219 22.6719 59.3281
Q17.5312 52.7344 16.7969 39.4062
Q19.6719 43.6562 24.0156 45.9219
Q28.375 48.1875 33.5938 48.1875
Q44.5781 48.1875 50.9531 41.5156
Q57.3281 34.8594 57.3281 23.3906
Q57.3281 12.1562 50.6875 5.35938
Q44.0469 -1.42188 33.0156 -1.42188
Q20.3594 -1.42188 13.6719 8.26562
Q6.98438 17.9688 6.98438 36.375
Q6.98438 53.6562 15.1875 63.9375
Q23.3906 74.2188 37.2031 74.2188
Q40.9219 74.2188 44.7031 73.4844
Q48.4844 72.75 52.5938 71.2969" id="DejaVuSans-36"/>
      </defs>
      <g transform="translate(7.53375 26.453)scale(0.12 -0.12)">
       <use xlink:href="#DejaVuSans-36"/>
      </g>
     </g>
    </g>
    <g id="text_14">
     <!-- 1e9 -->
     <defs>
      <path d="
M10.9844 1.51562
L10.9844 10.5
Q14.7031 8.73438 18.5 7.8125
Q22.3125 6.89062 25.9844 6.89062
Q35.75 6.89062 40.8906 13.4531
Q46.0469 20.0156 46.7812 33.4062
Q43.9531 29.2031 39.5938 26.9531
Q35.25 24.7031 29.9844 24.7031
Q19.0469 24.7031 12.6719 31.3125
Q6.29688 37.9375 6.29688 49.4219
Q6.29688 60.6406 12.9375 67.4219
Q19.5781 74.2188 30.6094 74.2188
Q43.2656 74.2188 49.9219 64.5156
Q56.5938 54.8281 56.5938 36.375
Q56.5938 19.1406 48.4062 8.85938
Q40.2344 -1.42188 26.4219 -1.42188
Q22.7031 -1.42188 18.8906 -0.6875
Q15.0938 0.046875 10.9844 1.51562
M30.6094 32.4219
Q37.25 32.4219 41.125 36.9531
Q45.0156 41.5 45.0156 49.4219
Q45.0156 57.2812 41.125 61.8438
Q37.25 66.4062 30.6094 66.4062
Q23.9688 66.4062 20.0938 61.8438
Q16.2188 57.2812 16.2188 49.4219
Q16.2188 41.5 20.0938 36.9531
Q23.9688 32.4219 30.6094 32.4219" id="DejaVuSans-39"/>
     </defs>
     <g transform="translate(17.575 20.14175)scale(0.12 -0.12)">
      <use xlink:href="#DejaVuSans-31"/>
      <use x="63.623046875" xlink:href="#DejaVuSans-65"/>
      <use x="125.146484375" xlink:href="#DejaVuSans-39"/>
     </g>
    </g>
   </g>
   <g id="text_15">
    <!-- /agas/time/resolve_gid -->
    <defs>
     <path d="
M2.98438 54.6875
L12.5 54.6875
L29.5938 8.79688
L46.6875 54.6875
L56.2031 54.6875
L35.6875 0
L23.4844 0
z
" id="DejaVuSans-76"/>
     <path d="
M25.3906 72.9062
L33.6875 72.9062
L8.29688 -9.28125
L0 -9.28125
z
" id="DejaVuSans-2f"/>
     <path d="
M30.6094 48.3906
Q23.3906 48.3906 19.1875 42.75
Q14.9844 37.1094 14.9844 27.2969
Q14.9844 17.4844 19.1562 11.8438
Q23.3438 6.20312 30.6094 6.20312
Q37.7969 6.20312 41.9844 11.8594
Q46.1875 17.5312 46.1875 27.2969
Q46.1875 37.0156 41.9844 42.7031
Q37.7969 48.3906 30.6094 48.3906
M30.6094 56
Q42.3281 56 49.0156 48.375
Q55.7188 40.7656 55.7188 27.2969
Q55.7188 13.875 49.0156 6.21875
Q42.3281 -1.42188 30.6094 -1.42188
Q18.8438 -1.42188 12.1719 6.21875
Q5.51562 13.875 5.51562 27.2969
Q5.51562 40.7656 12.1719 48.375
Q18.8438 56 30.6094 56" id="DejaVuSans-6f"/>
     <path d="
M9.42188 75.9844
L18.4062 75.9844
L18.4062 0
L9.42188 0
z
" id="DejaVuSans-6c"/>
     <path d="
M50.9844 -16.6094
L50.9844 -23.5781
L-0.984375 -23.5781
L-0.984375 -16.6094
z
" id="DejaVuSans-5f"/>
     <path d="
M45.4062 27.9844
Q45.4062 37.75 41.375 43.1094
Q37.3594 48.4844 30.0781 48.4844
Q22.8594 48.4844 18.8281 43.1094
Q14.7969 37.75 14.7969 27.9844
Q14.7969 18.2656 18.8281 12.8906
Q22.8594 7.51562 30.0781 7.51562
Q37.3594 7.51562 41.375 12.8906
Q45.4062 18.2656 45.4062 27.9844
M54.3906 6.78125
Q54.3906 -7.17188 48.1875 -13.9844
Q42 -20.7969 29.2031 -20.7969
Q24.4688 -20.7969 20.2656 -20.0938
Q16.0625 -19.3906 12.1094 -17.9219
L12.1094 -9.1875
Q16.0625 -11.3281 19.9219 -12.3438
Q23.7812 -13.375 27.7812 -13.375
Q36.625 -13.375 41.0156 -8.76562
Q45.4062 -4.15625 45.4062 5.17188
L45.4062 9.625
Q42.625 4.78125 38.2812 2.39062
Q33.9375 0 27.875 0
Q17.8281 0 11.6719 7.65625
Q5.51562 15.3281 5.51562 27.9844
Q5.51562 40.6719 11.6719 48.3281
Q17.8281 56 27.875 56
Q33.9375 56 38.2812 53.6094
Q42.625 51.2188 45.4062 46.3906
L45.4062 54.6875
L54.3906 54.6875
z
" id="DejaVuSans-67"/>
     <path d="
M45.4062 46.3906
L45.4062 75.9844
L54.3906 75.9844
L54.3906 0
L45.4062 0
L45.4062 8.20312
Q42.5781 3.32812 38.25 0.953125
Q33.9375 -1.42188 27.875 -1.42188
Q17.9688 -1.42188 11.7344 6.48438
Q5.51562 14.4062 5.51562 27.2969
Q5.51562 40.1875 11.7344 48.0938
Q17.9688 56 27.875 56
Q33.9375 56 38.25 53.625
Q42.5781 51.2656 45.4062 46.3906
M14.7969 27.2969
Q14.7969 17.3906 18.875 11.75
Q22.9531 6.10938 30.0781 6.10938
Q37.2031 6.10938 41.2969 11.75
Q45.4062 17.3906 45.4062 27.2969
Q45.4062 37.2031 41.2969 42.8438
Q37.2031 48.4844 30.0781 48.4844
Q22.9531 48.4844 18.875 42.8438
Q14.7969 37.2031 14.7969 27.2969" id="DejaVuSans-64"/>
     <path d="
M34.2812 27.4844
Q23.3906 27.4844 19.1875 25
Q14.9844 22.5156 14.9844 16.5
Q14.9844 11.7188 18.1406 8.90625
Q21.2969 6.10938 26.7031 6.10938
Q34.1875 6.10938 38.7031 11.4062
Q43.2188 16.7031 43.2188 25.4844
L43.2188 27.4844
z

M52.2031 31.2031
L52.2031 0
L43.2188 0
L43.2188 8.29688
Q40.1406 3.32812 35.5469 0.953125
Q30.9531 -1.42188 24.3125 -1.42188
Q15.9219 -1.42188 10.9531 3.29688
Q6 8.01562 6 15.9219
Q6 25.1406 12.1719 29.8281
Q18.3594 34.5156 30.6094 34.5156
L43.2188 34.5156
L43.2188 35.4062
Q43.2188 41.6094 39.1406 45
Q35.0625 48.3906 27.6875 48.3906
Q23 48.3906 18.5469 47.2656
Q14.1094 46.1406 10.0156 43.8906
L10.0156 52.2031
Q14.9375 54.1094 19.5781 55.0469
Q24.2188 56 28.6094 56
Q40.4844 56 46.3438 49.8438
Q52.2031 43.7031 52.2031 31.2031" id="DejaVuSans-61"/>
     <path d="
M44.2812 53.0781
L44.2812 44.5781
Q40.4844 46.5312 36.375 47.5
Q32.2812 48.4844 27.875 48.4844
Q21.1875 48.4844 17.8438 46.4375
Q14.5 44.3906 14.5 40.2812
Q14.5 37.1562 16.8906 35.375
Q19.2812 33.5938 26.5156 31.9844
L29.5938 31.2969
Q39.1562 29.25 43.1875 25.5156
Q47.2188 21.7812 47.2188 15.0938
Q47.2188 7.46875 41.1875 3.01562
Q35.1562 -1.42188 24.6094 -1.42188
Q20.2188 -1.42188 15.4531 -0.5625
Q10.6875 0.296875 5.42188 2
L5.42188 11.2812
Q10.4062 8.6875 15.2344 7.39062
Q20.0625 6.10938 24.8125 6.10938
Q31.1562 6.10938 34.5625 8.28125
Q37.9844 10.4531 37.9844 14.4062
Q37.9844 18.0625 35.5156 20.0156
Q33.0625 21.9688 24.7031 23.7812
L21.5781 24.5156
Q13.2344 26.2656 9.51562 29.9062
Q5.8125 33.5469 5.8125 39.8906
Q5.8125 47.6094 11.2812 51.7969
Q16.75 56 26.8125 56
Q31.7812 56 36.1719 55.2656
Q40.5781 54.5469 44.2812 53.0781" id="DejaVuSans-73"/>
     <path d="
M41.1094 46.2969
Q39.5938 47.1719 37.8125 47.5781
Q36.0312 48 33.8906 48
Q26.2656 48 22.1875 43.0469
Q18.1094 38.0938 18.1094 28.8125
L18.1094 0
L9.07812 0
L9.07812 54.6875
L18.1094 54.6875
L18.1094 46.1875
Q20.9531 51.1719 25.4844 53.5781
Q30.0312 56 36.5312 56
Q37.4531 56 38.5781 55.875
Q39.7031 55.7656 41.0625 55.5156
z
" id="DejaVuSans-72"/>
    </defs>
    <g transform="translate(159.922375 18.14175)scale(0.144 -0.144)">
     <use xlink:href="#DejaVuSans-2f"/>
     <use x="33.69140625" xlink:href="#DejaVuSans-61"/>
     <use x="94.970703125" xlink:href="#DejaVuSans-67"/>
     <use x="158.447265625" xlink:href="#DejaVuSans-61"/>
     <use x="219.7265625" xlink:href="#DejaVuSans-73"/>
     <use x="271.826171875" xlink:href="#DejaVuSans-2f"/>
     <use x="305.517578125" xlink:href="#DejaVuSans-74"/>
     <use x="344.7265625" xlink:href="#DejaVuSans-69"/>
     <use x="372.509765625" xlink:href="#DejaVuSans-6d"/>
     <use x="469.921875" xlink:href="#DejaVuSans-65"/>
     <use x="531.4453125" xlink:href="#DejaVuSans-2f"/>
     <use x="565.13671875" xlink:href="#DejaVuSans-72"/>
     <use x="604.0" xlink:href="#DejaVuSans-65"/>
     <use x="665.5234375" xlink:href="#DejaVuSans-73"/>
     <use x="717.623046875" xlink:href="#DejaVuSans-6f"/>
     <use x="778.8046875" xlink:href="#DejaVuSans-6c"/>
     <use x="806.587890625" xlink:href="#DejaVuSans-76"/>
     <use x="865.767578125" xlink:href="#DejaVuSans-65"/>
     <use x="927.291015625" xlink:href="#DejaVuSans-5f"/>
     <use x="977.291015625" xlink:href="#DejaVuSans-67"/>
     <use x="1040.76757812" xlink:href="#DejaVuSans-69"/>
     <use x="1068.55078125" xlink:href="#DejaVuSans-64"/>
    </g>
   </g>
   <g id="legend_1">
    <g id="patch_7">
     <path d="
M471.175 367.194
L602.964 367.194
L602.964 24.6897
L471.175 24.6897
z
" style="fill:#ffffff;stroke:#000000;stroke-linejoin:miter;"/>
    </g>
    <g id="line2d_41">
     <path d="
M481.255 36.3515
L501.415 36.3515" style="fill:none;stroke:#0000ff;stroke-linecap:square;"/>
    </g>
    <g id="line2d_42"/>
    <g id="text_16">
     <!-- locality#0 -->
     <defs>
      <path d="
M51.125 44
L36.9219 44
L32.8125 27.6875
L47.125 27.6875
z

M43.7969 71.7812
L38.7188 51.5156
L52.9844 51.5156
L58.1094 71.7812
L65.9219 71.7812
L60.8906 51.5156
L76.125 51.5156
L76.125 44
L58.9844 44
L54.9844 27.6875
L70.5156 27.6875
L70.5156 20.2188
L53.0781 20.2188
L48 0
L40.1875 0
L45.2188 20.2188
L30.9062 20.2188
L25.875 0
L18.0156 0
L23.0938 20.2188
L7.71875 20.2188
L7.71875 27.6875
L24.9062 27.6875
L29 44
L13.2812 44
L13.2812 51.5156
L30.9062 51.5156
L35.8906 71.7812
z
" id="DejaVuSans-23"/>
      <path d="
M32.1719 -5.07812
Q28.375 -14.8438 24.75 -17.8125
Q21.1406 -20.7969 15.0938 -20.7969
L7.90625 -20.7969
L7.90625 -13.2812
L13.1875 -13.2812
Q16.8906 -13.2812 18.9375 -11.5156
Q21 -9.76562 23.4844 -3.21875
L25.0938 0.875
L2.98438 54.6875
L12.5 54.6875
L29.5938 11.9219
L46.6875 54.6875
L56.2031 54.6875
z
" id="DejaVuSans-79"/>
      <path d="
M48.7812 52.5938
L48.7812 44.1875
Q44.9688 46.2969 41.1406 47.3438
Q37.3125 48.3906 33.4062 48.3906
Q24.6562 48.3906 19.8125 42.8438
Q14.9844 37.3125 14.9844 27.2969
Q14.9844 17.2812 19.8125 11.7344
Q24.6562 6.20312 33.4062 6.20312
Q37.3125 6.20312 41.1406 7.25
Q44.9688 8.29688 48.7812 10.4062
L48.7812 2.09375
Q45.0156 0.34375 40.9844 -0.53125
Q36.9688 -1.42188 32.4219 -1.42188
Q20.0625 -1.42188 12.7812 6.34375
Q5.51562 14.1094 5.51562 27.2969
Q5.51562 40.6719 12.8594 48.3281
Q20.2188 56 33.0156 56
Q37.1562 56 41.1094 55.1406
Q45.0625 54.2969 48.7812 52.5938" id="DejaVuSans-63"/>
     </defs>
     <g transform="translate(517.255 41.3915)scale(0.144 -0.144)">
      <use xlink:href="#DejaVuSans-6c"/>
      <use x="27.783203125" xlink:href="#DejaVuSans-6f"/>
      <use x="88.96484375" xlink:href="#DejaVuSans-63"/>
      <use x="143.9453125" xlink:href="#DejaVuSans-61"/>
      <use x="205.224609375" xlink:href="#DejaVuSans-6c"/>
      <use x="233.0078125" xlink:href="#DejaVuSans-69"/>
      <use x="260.791015625" xlink:href="#DejaVuSans-74"/>
      <use x="300.0" xlink:href="#DejaVuSans-79"/>
      <use x="359.1796875" xlink:href="#DejaVuSans-23"/>
      <use x="442.96875" xlink:href="#DejaVuSans-30"/>
     </g>
    </g>
    <g id="line2d_43">
     <path d="
M481.255 57.488
L501.415 57.488" style="fill:none;stroke:#008000;stroke-linecap:square;"/>
    </g>
    <g id="line2d_44"/>
    <g id="text_17">
     <!-- locality#1 -->
     <g transform="translate(517.255 62.528)scale(0.144 -0.144)">
      <use xlink:href="#DejaVuSans-6c"/>
      <use x="27.783203125" xlink:href="#DejaVuSans-6f"/>
      <use x="88.96484375" xlink:href="#DejaVuSans-63"/>
      <use x="143.9453125" xlink:href="#DejaVuSans-61"/>
      <use x="205.224609375" xlink:href="#DejaVuSans-6c"/>
      <use x="233.0078125" xlink:href="#DejaVuSans-69"/>
      <use x="260.791015625" xlink:href="#DejaVuSans-74"/>
      <use x="300.0" xlink:href="#DejaVuSans-79"/>
      <use x="359.1796875" xlink:href="#DejaVuSans-23"/>
      <use x="442.96875" xlink:href="#DejaVuSans-31"/>
     </g>
    </g>
    <g id="line2d_45">
     <path d="
M481.255 78.6245
L501.415 78.6245" style="fill:none;stroke:#ff0000;stroke-linecap:square;"/>
    </g>
    <g id="line2d_46"/>
    <g id="text_18">
     <!-- locality#10 -->
     <g transform="translate(517.255 83.6645)scale(0.144 -0.144)">
      <use xlink:href="#DejaVuSans-6c"/>
      <use x="27.783203125" xlink:href="#DejaVuSans-6f"/>
      <use x="88.96484375" xlink:href="#DejaVuSans-63"/>
      <use x="143.9453125" xlink:href="#DejaVuSans-61"/>
      <use x="205.224609375" xlink:href="#DejaVuSans-6c"/>
      <use x="233.0078125" xlink:href="#DejaVuSans-69"/>
      <use x="260.791015625" xlink:href="#DejaVuSans-74"/>
      <use x="300.0" xlink:href="#DejaVuSans-79"/>
      <use x="359.1796875" xlink:href="#DejaVuSans-23"/>
      <use x="442.96875" xlink:href="#DejaVuSans-31"/>
      <use x="506.591796875" xlink:href="#DejaVuSans-30"/>
     </g>
    </g>
    <g id="line2d_47">
     <path d="
M481.255 99.761
L501.415 99.761" style="fill:none;stroke:#00bfbf;stroke-linecap:square;"/>
    </g>
    <g id="line2d_48"/>
    <g id="text_19">
     <!-- locality#11 -->
     <g transform="translate(517.255 104.801)scale(0.144 -0.144)">
      <use xlink:href="#DejaVuSans-6c"/>
      <use x="27.783203125" xlink:href="#DejaVuSans-6f"/>
      <use x="88.96484375" xlink:href="#DejaVuSans-63"/>
      <use x="143.9453125" xlink:href="#DejaVuSans-61"/>
      <use x="205.224609375" xlink:href="#DejaVuSans-6c"/>
      <use x="233.0078125" xlink:href="#DejaVuSans-69"/>
      <use x="260.791015625" xlink:href="#DejaVuSans-74"/>
      <use x="300.0" xlink:href="#DejaVuSans-79"/>
      <use x="359.1796875" xlink:href="#DejaVuSans-23"/>
      <use x="442.96875" xlink:href="#DejaVuSans-31"/>
      <use x="506.591796875" xlink:href="#DejaVuSans-31"/>
     </g>
    </g>
    <g id="line2d_49">
     <path d="
M481.255 120.897
L501.415 120.897" style="fill:none;stroke:#bf00bf;stroke-linecap:square;"/>
    </g>
    <g id="line2d_50"/>
    <g id="text_20">
     <!-- locality#12 -->
     <g transform="translate(517.255 125.9375)scale(0.144 -0.144)">
      <use xlink:href="#DejaVuSans-6c"/>
      <use x="27.783203125" xlink:href="#DejaVuSans-6f"/>
      <use x="88.96484375" xlink:href="#DejaVuSans-63"/>
      <use x="143.9453125" xlink:href="#DejaVuSans-61"/>
      <use x="205.224609375" xlink:href="#DejaVuSans-6c"/>
      <use x="233.0078125" xlink:href="#DejaVuSans-69"/>
      <use x="260.791015625" xlink:href="#DejaVuSans-74"/>
      <use x="300.0" xlink:href="#DejaVuSans-79"/>
      <use x="359.1796875" xlink:href="#DejaVuSans-23"/>
      <use x="442.96875" xlink:href="#DejaVuSans-31"/>
      <use x="506.591796875" xlink:href="#DejaVuSans-32"/>
     </g>
    </g>
    <g id="line2d_51">
     <path d="
M481.255 142.034
L501.415 142.034" style="fill:none;stroke:#bfbf00;stroke-linecap:square;"/>
    </g>
    <g id="line2d_52"/>
    <g id="text_21">
     <!-- locality#13 -->
     <g transform="translate(517.255 147.074)scale(0.144 -0.144)">
      <use xlink:href="#DejaVuSans-6c"/>
      <use x="27.783203125" xlink:href="#DejaVuSans-6f"/>
      <use x="88.96484375" xlink:href="#DejaVuSans-63"/>
      <use x="143.9453125" xlink:href="#DejaVuSans-61"/>
      <use x="205.224609375" xlink:href="#DejaVuSans-6c"/>
      <use x="233.0078125" xlink:href="#DejaVuSans-69"/>
      <use x="260.791015625" xlink:href="#DejaVuSans-74"/>
      <use x="300.0" xlink:href="#DejaVuSans-79"/>
      <use x="359.1796875" xlink:href="#DejaVuSans-23"/>
      <use x="442.96875" xlink:href="#DejaVuSans-31"/>
      <use x="506.591796875" xlink:href="#DejaVuSans-33"/>
     </g>
    </g>
    <g id="line2d_53">
     <path d="
M481.255 163.17
L501.415 163.17" style="fill:none;stroke:#000000;stroke-linecap:square;"/>
    </g>
    <g id="line2d_54"/>
    <g id="text_22">
     <!-- locality#14 -->
     <g transform="translate(517.255 168.2105)scale(0.144 -0.144)">
      <use xlink:href="#DejaVuSans-6c"/>
      <use x="27.783203125" xlink:href="#DejaVuSans-6f"/>
      <use x="88.96484375" xlink:href="#DejaVuSans-63"/>
      <use x="143.9453125" xlink:href="#DejaVuSans-61"/>
      <use x="205.224609375" xlink:href="#DejaVuSans-6c"/>
      <use x="233.0078125" xlink:href="#DejaVuSans-69"/>
      <use x="260.791015625" xlink:href="#DejaVuSans-74"/>
      <use x="300.0" xlink:href="#DejaVuSans-79"/>
      <use x="359.1796875" xlink:href="#DejaVuSans-23"/>
      <use x="442.96875" xlink:href="#DejaVuSans-31"/>
      <use x="506.591796875" xlink:href="#DejaVuSans-34"/>
     </g>
    </g>
    <g id="line2d_55">
     <path d="
M481.255 184.307
L501.415 184.307" style="fill:none;stroke:#0000ff;stroke-linecap:square;"/>
    </g>
    <g id="line2d_56"/>
    <g id="text_23">
     <!-- locality#15 -->
     <g transform="translate(517.255 189.347)scale(0.144 -0.144)">
      <use xlink:href="#DejaVuSans-6c"/>
      <use x="27.783203125" xlink:href="#DejaVuSans-6f"/>
      <use x="88.96484375" xlink:href="#DejaVuSans-63"/>
      <use x="143.9453125" xlink:href="#DejaVuSans-61"/>
      <use x="205.224609375" xlink:href="#DejaVuSans-6c"/>
      <use x="233.0078125" xlink:href="#DejaVuSans-69"/>
      <use x="260.791015625" xlink:href="#DejaVuSans-74"/>
      <use x="300.0" xlink:href="#DejaVuSans-79"/>
      <use x="359.1796875" xlink:href="#DejaVuSans-23"/>
      <use x="442.96875" xlink:href="#DejaVuSans-31"/>
      <use x="506.591796875" xlink:href="#DejaVuSans-35"/>
     </g>
    </g>
    <g id="line2d_57">
     <path d="
M481.255 205.443
L501.415 205.443" style="fill:none;stroke:#008000;stroke-linecap:square;"/>
    </g>
    <g id="line2d_58"/>
    <g id="text_24">
     <!-- locality#2 -->
     <g transform="translate(517.255 210.4835)scale(0.144 -0.144)">
      <use xlink:href="#DejaVuSans-6c"/>
      <use x="27.783203125" xlink:href="#DejaVuSans-6f"/>
      <use x="88.96484375" xlink:href="#DejaVuSans-63"/>
      <use x="143.9453125" xlink:href="#DejaVuSans-61"/>
      <use x="205.224609375" xlink:href="#DejaVuSans-6c"/>
      <use x="233.0078125" xlink:href="#DejaVuSans-69"/>
      <use x="260.791015625" xlink:href="#DejaVuSans-74"/>
      <use x="300.0" xlink:href="#DejaVuSans-79"/>
      <use x="359.1796875" xlink:href="#DejaVuSans-23"/>
      <use x="442.96875" xlink:href="#DejaVuSans-32"/>
     </g>
    </g>
    <g id="line2d_59">
     <path d="
M481.255 226.58
L501.415 226.58" style="fill:none;stroke:#ff0000;stroke-linecap:square;"/>
    </g>
    <g id="line2d_60"/>
    <g id="text_25">
     <!-- locality#3 -->
     <g transform="translate(517.255 231.62)scale(0.144 -0.144)">
      <use xlink:href="#DejaVuSans-6c"/>
      <use x="27.783203125" xlink:href="#DejaVuSans-6f"/>
      <use x="88.96484375" xlink:href="#DejaVuSans-63"/>
      <use x="143.9453125" xlink:href="#DejaVuSans-61"/>
      <use x="205.224609375" xlink:href="#DejaVuSans-6c"/>
      <use x="233.0078125" xlink:href="#DejaVuSans-69"/>
      <use x="260.791015625" xlink:href="#DejaVuSans-74"/>
      <use x="300.0" xlink:href="#DejaVuSans-79"/>
      <use x="359.1796875" xlink:href="#DejaVuSans-23"/>
      <use x="442.96875" xlink:href="#DejaVuSans-33"/>
     </g>
    </g>
    <g id="line2d_61">
     <path d="
M481.255 247.716
L501.415 247.716" style="fill:none;stroke:#00bfbf;stroke-linecap:square;"/>
    </g>
    <g id="line2d_62"/>
    <g id="text_26">
     <!-- locality#4 -->
     <g transform="translate(517.255 252.7565)scale(0.144 -0.144)">
      <use xlink:href="#DejaVuSans-6c"/>
      <use x="27.783203125" xlink:href="#DejaVuSans-6f"/>
      <use x="88.96484375" xlink:href="#DejaVuSans-63"/>
      <use x="143.9453125" xlink:href="#DejaVuSans-61"/>
      <use x="205.224609375" xlink:href="#DejaVuSans-6c"/>
      <use x="233.0078125" xlink:href="#DejaVuSans-69"/>
      <use x="260.791015625" xlink:href="#DejaVuSans-74"/>
      <use x="300.0" xlink:href="#DejaVuSans-79"/>
      <use x="359.1796875" xlink:href="#DejaVuSans-23"/>
      <use x="442.96875" xlink:href="#DejaVuSans-34"/>
     </g>
    </g>
    <g id="line2d_63">
     <path d="
M481.255 268.853
L501.415 268.853" style="fill:none;stroke:#bf00bf;stroke-linecap:square;"/>
    </g>
    <g id="line2d_64"/>
    <g id="text_27">
     <!-- locality#5 -->
     <g transform="translate(517.255 273.893)scale(0.144 -0.144)">
      <use xlink:href="#DejaVuSans-6c"/>
      <use x="27.783203125" xlink:href="#DejaVuSans-6f"/>
      <use x="88.96484375" xlink:href="#DejaVuSans-63"/>
      <use x="143.9453125" xlink:href="#DejaVuSans-61"/>
      <use x="205.224609375" xlink:href="#DejaVuSans-6c"/>
      <use x="233.0078125" xlink:href="#DejaVuSans-69"/>
      <use x="260.791015625" xlink:href="#DejaVuSans-74"/>
      <use x="300.0" xlink:href="#DejaVuSans-79"/>
      <use x="359.1796875" xlink:href="#DejaVuSans-23"/>
      <use x="442.96875" xlink:href="#DejaVuSans-35"/>
     </g>
    </g>
    <g id="line2d_65">
     <path d="
M481.255 289.989
L501.415 289.989" style="fill:none;stroke:#bfbf00;stroke-linecap:square;"/>
    </g>
    <g id="line2d_66"/>
    <g id="text_28">
     <!-- locality#6 -->
     <g transform="translate(517.255 295.0295)scale(0.144 -0.144)">
      <use xlink:href="#DejaVuSans-6c"/>
      <use x="27.783203125" xlink:href="#DejaVuSans-6f"/>
      <use x="88.96484375" xlink:href="#DejaVuSans-63"/>
      <use x="143.9453125" xlink:href="#DejaVuSans-61"/>
      <use x="205.224609375" xlink:href="#DejaVuSans-6c"/>
      <use x="233.0078125" xlink:href="#DejaVuSans-69"/>
      <use x="260.791015625" xlink:href="#DejaVuSans-74"/>
      <use x="300.0" xlink:href="#DejaVuSans-79"/>
      <use x="359.1796875" xlink:href="#DejaVuSans-23"/>
      <use x="442.96875" xlink:href="#DejaVuSans-36"/>
     </g>
    </g>
    <g id="line2d_67">
     <path d="
M481.255 311.126
L501.415 311.126" style="fill:none;stroke:#000000;stroke-linecap:square;"/>
    </g>
    <g id="line2d_68"/>
    <g id="text_29">
     <!-- locality#7 -->
     <defs>
      <path d="
M8.20312 72.9062
L55.0781 72.9062
L55.0781 68.7031
L28.6094 0
L18.3125 0
L43.2188 64.5938
L8.20312 64.5938
z
" id="DejaVuSans-37"/>
     </defs>
     <g transform="translate(517.255 316.166)scale(0.144 -0.144)">
      <use xlink:href="#DejaVuSans-6c"/>
      <use x="27.783203125" xlink:href="#DejaVuSans-6f"/>
      <use x="88.96484375" xlink:href="#DejaVuSans-63"/>
      <use x="143.9453125" xlink:href="#DejaVuSans-61"/>
      <use x="205.224609375" xlink:href="#DejaVuSans-6c"/>
      <use x="233.0078125" xlink:href="#DejaVuSans-69"/>
      <use x="260.791015625" xlink:href="#DejaVuSans-74"/>
      <use x="300.0" xlink:href="#DejaVuSans-79"/>
      <use x="359.1796875" xlink:href="#DejaVuSans-23"/>
      <use x="442.96875" xlink:href="#DejaVuSans-37"/>
     </g>
    </g>
    <g id="line2d_69">
     <path d="
M481.255 332.262
L501.415 332.262" style="fill:none;stroke:#0000ff;stroke-linecap:square;"/>
    </g>
    <g id="line2d_70"/>
    <g id="text_30">
     <!-- locality#8 -->
     <defs>
      <path d="
M31.7812 34.625
Q24.75 34.625 20.7188 30.8594
Q16.7031 27.0938 16.7031 20.5156
Q16.7031 13.9219 20.7188 10.1562
Q24.75 6.39062 31.7812 6.39062
Q38.8125 6.39062 42.8594 10.1719
Q46.9219 13.9688 46.9219 20.5156
Q46.9219 27.0938 42.8906 30.8594
Q38.875 34.625 31.7812 34.625
M21.9219 38.8125
Q15.5781 40.375 12.0312 44.7188
Q8.5 49.0781 8.5 55.3281
Q8.5 64.0625 14.7188 69.1406
Q20.9531 74.2188 31.7812 74.2188
Q42.6719 74.2188 48.875 69.1406
Q55.0781 64.0625 55.0781 55.3281
Q55.0781 49.0781 51.5312 44.7188
Q48 40.375 41.7031 38.8125
Q48.8281 37.1562 52.7969 32.3125
Q56.7812 27.4844 56.7812 20.5156
Q56.7812 9.90625 50.3125 4.23438
Q43.8438 -1.42188 31.7812 -1.42188
Q19.7344 -1.42188 13.25 4.23438
Q6.78125 9.90625 6.78125 20.5156
Q6.78125 27.4844 10.7812 32.3125
Q14.7969 37.1562 21.9219 38.8125
M18.3125 54.3906
Q18.3125 48.7344 21.8438 45.5625
Q25.3906 42.3906 31.7812 42.3906
Q38.1406 42.3906 41.7188 45.5625
Q45.3125 48.7344 45.3125 54.3906
Q45.3125 60.0625 41.7188 63.2344
Q38.1406 66.4062 31.7812 66.4062
Q25.3906 66.4062 21.8438 63.2344
Q18.3125 60.0625 18.3125 54.3906" id="DejaVuSans-38"/>
     </defs>
     <g transform="translate(517.255 337.3025)scale(0.144 -0.144)">
      <use xlink:href="#DejaVuSans-6c"/>
      <use x="27.783203125" xlink:href="#DejaVuSans-6f"/>
      <use x="88.96484375" xlink:href="#DejaVuSans-63"/>
      <use x="143.9453125" xlink:href="#DejaVuSans-61"/>
      <use x="205.224609375" xlink:href="#DejaVuSans-6c"/>
      <use x="233.0078125" xlink:href="#DejaVuSans-69"/>
      <use x="260.791015625" xlink:href="#DejaVuSans-74"/>
      <use x="300.0" xlink:href="#DejaVuSans-79"/>
      <use x="359.1796875" xlink:href="#DejaVuSans-23"/>
      <use x="442.96875" xlink:href="#DejaVuSans-38"/>
     </g>
    </g>
    <g id="line2d_71">
     <path d="
M481.255 353.399
L501.415 353.399" style="fill:none;stroke:#008000;stroke-linecap:square;"/>
    </g>
    <g id="line2d_72"/>
    <g id="text_31">
     <!-- locality#9 -->
     <g transform="translate(517.255 358.439)scale(0.144 -0.144)">
      <use xlink:href="#DejaVuSans-6c"/>
      <use x="27.783203125" xlink:href="#DejaVuSans-6f"/>
      <use x="88.96484375" xlink:href="#DejaVuSans-63"/>
      <use x="143.9453125" xlink:href="#DejaVuSans-61"/>
      <use x="205.224609375" xlink:href="#DejaVuSans-6c"/>
      <use x="233.0078125" xlink:href="#DejaVuSans-69"/>
      <use x="260.791015625" xlink:href="#DejaVuSans-74"/>
      <use x="300.0" xlink:href="#DejaVuSans-79"/>
      <use x="359.1796875" xlink:href="#DejaVuSans-23"/>
      <use x="442.96875" xlink:href="#DejaVuSans-39"/>
     </g>
    </g>
   </g>
  </g>
 </g>
 <defs>
  <clipPath id="pf51f381abf">
   <rect height="345.6" width="446.4" x="17.575" y="23.14175"/>
  </clipPath>
 </defs>
</svg>
