<?xml version="1.0" encoding="utf-8" standalone="no"?>
<!DOCTYPE svg PUBLIC "-//W3C//DTD SVG 1.1//EN"
  "http://www.w3.org/Graphics/SVG/1.1/DTD/svg11.dtd">
<!-- Created with matplotlib (http://matplotlib.org/) -->
<svg height="408pt" version="1.1" viewBox="0 0 610 408" width="610pt" xmlns="http://www.w3.org/2000/svg" xmlns:xlink="http://www.w3.org/1999/xlink">
 <defs>
  <style type="text/css">
*{stroke-linecap:butt;stroke-linejoin:round;}
  </style>
 </defs>
 <g id="figure_1">
  <g id="patch_1">
   <path d="
M0 408.169
L610.164 408.169
L610.164 0
L0 0
z
" style="fill:#ffffff;"/>
  </g>
  <g id="axes_1">
   <g id="patch_2">
    <path d="
M17.575 368.742
L463.975 368.742
L463.975 23.1417
L17.575 23.1417
z
" style="fill:#ffffff;"/>
   </g>
   <g id="line2d_1">
    <path clip-path="url(#pf51f381abf)" d="
M17.575 368.702
L20.2642 368.742
L21.1605 368.742
L22.0569 368.332
L22.9533 368.742
L25.6425 368.742
L26.5389 368.609
L27.4352 368.742
L35.5027 368.742
L36.3991 368.296
L37.2955 368.742
L39.9846 368.742
L40.881 368.742
L41.7774 368.591
L42.6738 368.742
L79.4256 368.742
L80.322 368.33
L81.2184 368.625
L82.1148 368.742
L103.628 368.742
L104.524 368.496
L105.421 368.742
L108.11 368.742
L109.006 368.535
L109.903 368.742
L112.592 368.742
L113.488 367.996
L114.385 368.742
L122.452 368.742
L123.348 368.565
L124.245 368.742
L132.312 368.742
L133.209 368.601
L134.105 368.742
L142.173 368.742
L143.069 368.409
L143.965 368.742
L145.758 368.742
L156.515 368.742
L157.411 368.591
L158.308 368.742
L165.479 368.742
L166.375 368.616
L167.271 368.742
L199.541 368.742
L200.438 366.955
L201.334 368.742
L237.189 368.742
L238.086 368.622
L238.982 368.742
L261.392 368.742
L262.288 367.524
L263.185 368.742
L289.18 368.742
L290.076 368.594
L290.973 368.742
L312.486 368.742
L313.382 368.623
L314.279 368.742
L336.688 368.742
L337.585 368.553
L338.481 368.742
L378.818 368.742
L379.715 368.358
L380.611 368.742
L383.3 368.742
L384.197 368.597
L385.093 368.742
L387.782 368.742
L388.679 368.275
L389.575 368.742
L420.052 368.742
L420.948 367.963
L421.845 368.742
L424.534 368.742
L437.98 368.742
L438.876 368.45
L439.773 368.742
L455.908 368.742
L456.804 368.61
L457.7 368.742
L463.975 368.742
L463.975 368.742" style="fill:none;stroke:#0000ff;stroke-linecap:square;"/>
   </g>
   <g id="line2d_2">
    <path clip-path="url(#pf51f381abf)" d="
M17.575 368.388
L18.4714 368.742
L37.2955 368.742
L38.1919 368.631
L39.9846 368.742
L68.669 368.742
L69.5654 368.626
L70.4617 368.742
L74.0473 368.742
L74.9437 368.621
L75.8401 368.742
L94.6642 368.742
L95.5605 368.515
L96.4569 368.742
L99.1461 368.742
L100.042 368.601
L100.939 368.742
L104.524 368.742
L105.421 368.59
L106.317 368.742
L115.281 368.742
L116.177 368.487
L117.074 368.742
L125.141 368.742
L126.038 368.384
L126.934 368.742
L135.898 368.742
L136.794 368.399
L137.691 368.742
L156.515 368.742
L157.411 368.596
L158.308 368.742
L203.127 368.742
L204.023 368.628
L204.92 368.742
L218.365 368.742
L219.262 368.599
L220.158 368.742
L223.744 368.742
L224.64 368.459
L225.536 368.742
L259.599 368.742
L260.495 368.223
L261.392 368.742
L294.558 368.742
L295.455 368.614
L296.351 368.742
L299.936 368.742
L300.833 368.623
L301.729 368.742
L319.657 368.742
L320.553 368.614
L321.45 368.742
L334.895 368.742
L335.792 368.555
L336.688 368.742
L365.373 368.742
L366.269 364.475
L367.165 368.742
L448.736 368.742
L449.633 368.444
L450.529 368.742
L463.975 368.742
L463.975 368.742" style="fill:none;stroke:#008000;stroke-linecap:square;"/>
   </g>
   <g id="line2d_3">
    <path clip-path="url(#pf51f381abf)" d="
M17.575 368.685
L18.4714 368.742
L19.3678 368.742
L21.1605 368.742
L43.5702 368.742
L44.4666 368.558
L45.363 368.742
L54.3268 368.742
L55.2232 368.511
L56.1196 368.742
L65.0834 368.742
L65.9798 368.473
L66.8762 368.742
L75.8401 368.742
L76.7364 368.611
L77.6328 368.742
L78.5292 368.742
L79.4256 368.49
L80.322 368.742
L89.2858 368.742
L90.1822 368.066
L91.0786 368.742
L102.732 368.742
L103.628 368.442
L104.524 368.742
L113.488 368.742
L114.385 368.189
L115.281 368.742
L124.245 368.742
L125.141 368.617
L126.038 368.742
L132.312 368.742
L133.209 368.479
L134.105 368.742
L169.064 368.742
L169.961 368.506
L170.857 368.742
L182.51 368.742
L183.406 368.604
L184.303 368.742
L190.577 368.742
L191.474 368.404
L192.37 368.742
L195.956 368.742
L196.852 368.626
L197.748 368.742
L209.402 368.742
L210.298 368.313
L211.194 368.742
L214.78 368.742
L215.676 368.53
L216.573 368.742
L222.847 368.742
L223.744 368.054
L224.64 368.742
L247.05 368.742
L247.946 368.015
L248.842 368.742
L270.356 368.742
L271.252 368.338
L272.148 368.742
L281.112 368.742
L282.009 366.745
L282.905 368.742
L304.418 368.742
L305.315 367.98
L306.211 368.742
L327.724 368.742
L328.621 366.179
L329.517 368.742
L375.233 368.742
L376.129 366.495
L377.026 368.742
L441.565 368.742
L442.462 368.354
L443.358 368.742
L455.908 368.742
L456.804 367.017
L457.7 368.742
L463.975 368.742
L463.975 368.742" style="fill:none;stroke:#ff0000;stroke-linecap:square;"/>
   </g>
   <g id="line2d_4">
    <path clip-path="url(#pf51f381abf)" d="
M17.575 368.704
L18.4714 368.742
L19.3678 368.742
L21.1605 368.742
L22.0569 368.742
L22.9533 368.592
L23.8497 368.742
L44.4666 368.742
L45.363 368.582
L46.2593 368.742
L50.7413 368.742
L51.6377 368.072
L52.534 368.742
L58.8087 368.742
L59.7051 368.569
L60.6015 368.742
L61.4979 368.742
L62.3943 368.524
L63.2907 368.742
L70.4617 368.742
L71.3581 368.609
L72.2545 368.742
L73.1509 368.742
L74.0473 368.54
L74.9437 368.742
L75.8401 368.742
L76.7364 368.425
L77.6328 368.742
L86.5967 368.742
L87.4931 368.378
L88.3895 368.742
L106.317 368.742
L107.214 368.391
L108.11 368.742
L117.97 368.742
L118.867 368.486
L119.763 368.742
L128.727 368.742
L129.623 357.557
L130.52 368.742
L156.515 368.742
L157.411 367.965
L158.308 368.742
L173.546 368.742
L174.442 367.641
L175.339 368.742
L187.888 368.742
L188.785 368.557
L189.681 368.742
L198.645 368.742
L199.541 368.188
L200.438 368.742
L218.365 368.742
L219.262 368.323
L220.158 368.742
L255.117 368.742
L256.014 367.593
L256.91 368.742
L295.455 368.742
L296.351 367.949
L297.247 368.742
L323.242 368.742
L324.139 366.793
L325.035 368.742
L364.476 368.742
L365.373 365.463
L366.269 368.742
L404.814 368.742
L405.71 368.605
L406.606 368.742
L412.881 368.742
L413.777 368.347
L414.674 368.742
L430.809 368.742
L431.705 368.172
L432.602 368.742
L456.804 368.742
L457.7 367.775
L458.597 368.742
L463.975 368.742
L463.975 368.742" style="fill:none;stroke:#00bfbf;stroke-linecap:square;"/>
   </g>
   <g id="line2d_5">
    <path clip-path="url(#pf51f381abf)" d="
M17.575 368.69
L18.4714 368.742
L19.3678 368.742
L22.9533 368.712
L25.6425 368.742
L26.5389 368.619
L27.4352 368.742
L31.9172 368.742
L32.8136 368.61
L33.7099 368.742
L40.881 368.742
L41.7774 368.481
L42.6738 368.742
L49.8449 368.742
L50.7413 368.494
L51.6377 368.742
L53.4304 368.742
L54.3268 368.207
L55.2232 368.742
L65.0834 368.742
L65.9798 368.598
L66.8762 368.742
L71.3581 368.742
L72.2545 368.545
L73.1509 368.742
L80.322 368.742
L81.2184 368.537
L82.1148 368.742
L98.2497 368.742
L99.1461 368.574
L100.042 368.742
L104.524 368.742
L105.421 368.614
L106.317 368.742
L119.763 368.742
L120.659 368.584
L121.556 368.742
L131.416 368.742
L132.312 368.377
L133.209 368.742
L137.691 368.742
L138.587 368.441
L139.483 368.742
L140.38 368.742
L141.276 368.393
L142.173 368.742
L155.618 368.742
L156.515 368.605
L157.411 368.742
L164.582 368.742
L165.479 368.616
L166.375 368.742
L177.132 368.742
L178.028 368.528
L178.924 368.742
L192.37 368.742
L193.267 368.509
L194.163 368.742
L197.748 368.742
L198.645 368.173
L199.541 368.742
L225.536 368.742
L226.433 368.627
L227.329 368.742
L234.5 368.742
L235.397 368.419
L236.293 368.742
L249.739 368.742
L250.635 368.169
L251.532 368.742
L270.356 368.742
L271.252 367.621
L272.148 368.742
L290.973 368.742
L291.869 368.564
L292.765 368.742
L305.315 368.742
L306.211 368.594
L307.108 368.742
L311.589 368.742
L312.486 368.43
L313.382 368.742
L320.553 368.742
L321.45 368.375
L322.346 368.742
L329.517 368.742
L330.414 368.191
L331.31 368.742
L341.17 368.742
L342.067 368.624
L342.963 368.742
L352.823 368.742
L353.72 368.626
L354.616 368.742
L361.787 368.742
L362.683 368.521
L363.58 368.742
L369.855 368.742
L370.751 368.472
L371.647 368.742
L385.093 368.742
L385.989 367.757
L386.886 368.742
L422.741 368.742
L423.638 368.497
L424.534 368.742
L436.187 368.742
L437.083 368.452
L437.98 368.742
L447.84 368.742
L448.736 367.904
L449.633 368.742
L463.975 368.742
L463.975 368.742" style="fill:none;stroke:#bf00bf;stroke-linecap:square;"/>
   </g>
   <g id="line2d_6">
    <path clip-path="url(#pf51f381abf)" d="
M17.575 368.689
L18.4714 368.742
L19.3678 368.742
L20.2642 368.64
L22.0569 368.742
L26.5389 368.742
L27.4352 368.598
L28.3316 368.742
L30.1244 368.742
L31.0208 368.356
L31.9172 368.742
L43.5702 368.742
L44.4666 368.553
L45.363 368.742
L47.1557 368.742
L48.0521 368.489
L48.9485 368.742
L57.016 368.742
L57.9123 368.47
L58.8087 368.742
L60.6015 368.742
L61.4979 368.597
L62.3943 368.742
L64.187 368.742
L65.0834 368.574
L65.9798 368.742
L66.8762 368.742
L67.7726 368.604
L68.669 368.742
L77.6328 368.742
L78.5292 368.377
L79.4256 368.742
L83.9075 368.742
L84.8039 368.589
L85.7003 368.742
L87.4931 368.742
L88.3895 368.625
L89.2858 368.742
L90.1822 368.742
L91.0786 368.37
L91.975 368.742
L97.3533 368.742
L98.2497 368.379
L99.1461 368.742
L100.042 368.742
L100.939 368.568
L101.835 368.742
L117.074 368.742
L117.97 368.511
L118.867 368.742
L136.794 368.742
L137.691 368.601
L138.587 368.742
L143.965 368.742
L144.862 368.537
L145.758 368.742
L170.857 368.742
L171.753 368.588
L172.65 368.742
L180.717 368.742
L181.614 368.402
L182.51 368.742
L194.163 368.742
L195.059 360.546
L195.956 368.742
L200.438 368.742
L201.334 368.576
L202.23 368.742
L240.775 368.742
L241.671 368.585
L242.568 368.742
L247.946 368.742
L248.842 368.603
L249.739 368.742
L299.936 368.742
L300.833 368.544
L301.729 368.742
L316.071 368.742
L316.968 368.626
L317.864 368.742
L322.346 368.742
L323.242 368.58
L324.139 368.742
L342.067 368.742
L342.963 367.958
L343.859 368.742
L374.336 368.742
L375.233 368.627
L376.129 368.742
L381.508 368.742
L382.404 368.548
L383.3 368.742
L394.057 368.742
L394.953 368.293
L395.85 368.742
L401.228 368.742
L402.124 368.155
L403.021 368.742
L413.777 368.742
L414.674 368.455
L415.57 368.742
L451.426 368.742
L452.322 368.4
L453.218 368.742
L463.079 368.742
L463.975 368.487
L463.975 368.487" style="fill:none;stroke:#bfbf00;stroke-linecap:square;"/>
   </g>
   <g id="line2d_7">
    <path clip-path="url(#pf51f381abf)" d="
M17.575 368.699
L20.2642 368.742
L22.9533 368.742
L35.5027 368.742
L36.3991 368.63
L38.1919 368.742
L42.6738 368.742
L43.5702 368.155
L44.4666 368.742
L47.1557 368.742
L48.0521 368.628
L48.9485 368.742
L50.7413 368.742
L51.6377 368.557
L52.534 368.742
L73.1509 368.742
L74.0473 368.571
L74.9437 368.742
L103.628 368.742
L104.524 368.597
L105.421 368.742
L107.214 368.742
L108.11 368.552
L109.006 368.742
L118.867 368.742
L119.763 368.385
L120.659 368.742
L141.276 368.742
L142.173 368.606
L143.069 368.742
L152.929 368.742
L153.826 368.593
L154.722 368.742
L170.857 368.742
L171.753 368.572
L172.65 368.742
L186.095 368.742
L186.992 368.591
L187.888 368.742
L197.748 368.742
L198.645 368.612
L199.541 368.742
L216.573 368.742
L217.469 368.619
L218.365 368.742
L228.226 368.742
L229.122 368.587
L230.018 368.742
L257.806 368.742
L258.703 368.365
L259.599 368.742
L268.563 368.742
L269.459 368.59
L270.356 368.742
L290.973 368.742
L291.869 368.556
L292.765 368.742
L324.139 368.742
L325.035 368.614
L325.932 368.742
L331.31 368.742
L332.206 368.46
L333.103 368.742
L368.062 368.742
L368.958 368.471
L369.855 368.742
L401.228 368.742
L402.124 368.624
L403.021 368.742
L411.985 368.742
L412.881 368.596
L413.777 368.742
L437.083 368.742
L437.98 368.551
L438.876 368.742
L463.975 368.742
L463.975 368.742" style="fill:none;stroke:#000000;stroke-linecap:square;"/>
   </g>
   <g id="line2d_8">
    <path clip-path="url(#pf51f381abf)" d="
M17.575 368.69
L20.2642 368.742
L22.9533 368.742
L59.7051 368.742
L60.6015 368.573
L61.4979 368.742
L68.669 368.742
L69.5654 368.545
L70.4617 368.742
L81.2184 368.742
L82.1148 368.609
L83.0111 368.742
L107.214 368.742
L108.11 368.601
L109.006 368.742
L115.281 368.742
L116.177 368.214
L117.074 368.742
L179.821 368.742
L180.717 368.612
L181.614 368.742
L196.852 368.742
L197.748 368.499
L198.645 368.742
L205.816 368.742
L206.712 368.422
L207.609 368.742
L218.365 368.742
L219.262 368.596
L220.158 368.742
L230.915 368.742
L231.811 368.561
L232.708 368.742
L252.428 368.742
L253.324 367.817
L254.221 368.742
L264.977 368.742
L265.874 368.567
L266.77 368.742
L302.626 368.742
L303.522 368.618
L304.418 368.742
L315.175 368.742
L316.071 368.604
L316.968 368.742
L332.206 368.742
L333.103 368.573
L333.999 368.742
L348.341 368.742
L349.238 368.6
L350.134 368.742
L357.305 368.742
L358.202 368.62
L359.098 368.742
L369.855 368.742
L370.751 368.588
L371.647 368.742
L403.021 368.742
L403.917 368.626
L404.814 368.742
L415.57 368.742
L416.467 368.521
L417.363 368.742
L435.291 368.742
L436.187 368.357
L437.083 368.742
L458.597 368.742
L459.493 368.257
L460.389 368.742
L463.975 368.742
L463.975 368.742" style="fill:none;stroke:#0000ff;stroke-linecap:square;"/>
   </g>
   <g id="line2d_9">
    <path clip-path="url(#pf51f381abf)" d="
M17.575 368.536
L18.4714 368.742
L21.1605 368.742
L22.0569 367.897
L22.9533 368.742
L26.5389 368.742
L27.4352 368.577
L28.3316 368.742
L37.2955 368.742
L38.1919 368.609
L39.0883 368.742
L42.6738 368.742
L43.5702 368.539
L44.4666 368.742
L53.4304 368.742
L54.3268 368.523
L55.2232 368.742
L58.8087 368.742
L59.7051 368.465
L60.6015 368.742
L100.042 368.742
L100.939 368.317
L101.835 368.742
L146.655 368.742
L147.551 368.394
L148.447 368.742
L157.411 368.742
L158.308 368.559
L159.204 368.742
L182.51 368.742
L183.406 368.532
L184.303 368.742
L209.402 368.742
L210.298 368.355
L211.194 368.742
L239.879 368.742
L240.775 367.998
L241.671 368.742
L270.356 368.742
L271.252 368.597
L272.148 368.742
L280.216 368.742
L281.112 368.539
L282.009 368.742
L300.833 368.742
L301.729 368.517
L302.626 368.742
L331.31 368.742
L332.206 364.148
L333.103 368.742
L346.548 368.742
L347.445 368.585
L348.341 368.742
L361.787 368.742
L362.683 368.498
L363.58 368.742
L371.647 368.742
L372.544 368.615
L373.44 368.742
L392.264 368.742
L393.161 368.038
L394.057 368.742
L411.985 368.742
L412.881 368.56
L413.777 368.742
L431.705 368.742
L432.602 368.598
L433.498 368.742
L446.047 368.742
L446.944 368.541
L447.84 368.742
L455.908 368.742
L456.804 368.32
L457.7 368.742
L463.975 368.742
L463.975 368.742" style="fill:none;stroke:#008000;stroke-linecap:square;"/>
   </g>
   <g id="line2d_10">
    <path clip-path="url(#pf51f381abf)" d="
M17.575 368.657
L18.4714 368.742
L19.3678 368.742
L45.363 368.742
L46.2593 368.347
L47.1557 368.742
L49.8449 368.742
L50.7413 368.556
L51.6377 368.742
L65.0834 368.742
L65.9798 368.508
L66.8762 368.742
L69.5654 368.742
L70.4617 368.619
L71.3581 368.742
L79.4256 368.742
L80.322 368.124
L81.2184 368.742
L88.3895 368.742
L89.2858 368.549
L90.1822 368.742
L98.2497 368.742
L99.1461 368.472
L100.042 368.742
L122.452 368.742
L123.348 368.247
L124.245 368.742
L126.934 368.742
L127.83 368.391
L128.727 368.742
L131.416 368.742
L132.312 368.628
L133.209 368.742
L141.276 368.742
L142.173 366.826
L143.069 368.742
L184.303 368.742
L185.199 368.626
L186.095 368.742
L194.163 368.742
L195.059 367.852
L195.956 368.742
L251.532 368.742
L252.428 368.258
L253.324 368.742
L292.765 368.742
L293.662 368.384
L294.558 368.742
L316.071 368.742
L316.968 368.544
L317.864 368.742
L325.932 368.742
L326.828 366.143
L327.724 368.742
L368.062 368.742
L368.958 368.068
L369.855 368.742
L390.471 368.742
L391.368 368.117
L392.264 368.742
L445.151 368.742
L446.047 367.362
L446.944 368.742
L463.975 368.742
L463.975 368.742" style="fill:none;stroke:#ff0000;stroke-linecap:square;"/>
   </g>
   <g id="line2d_11">
    <path clip-path="url(#pf51f381abf)" d="
M17.575 368.711
L20.2642 368.742
L21.1605 368.626
L22.0569 368.742
L24.7461 368.742
L25.6425 368.172
L26.5389 368.742
L63.2907 368.742
L64.187 368.58
L65.0834 368.742
L72.2545 368.742
L73.1509 368.583
L74.0473 368.742
L80.322 368.742
L81.2184 368.626
L82.1148 368.742
L89.2858 368.742
L90.1822 368.579
L91.0786 368.742
L97.3533 368.742
L98.2497 368.545
L99.1461 368.742
L101.835 368.742
L102.732 368.133
L103.628 368.742
L114.385 368.742
L115.281 368.48
L116.177 368.742
L131.416 368.742
L132.312 367.776
L133.209 368.742
L143.965 368.742
L144.862 368.558
L145.758 368.742
L157.411 368.742
L158.308 368.552
L159.204 368.742
L174.442 368.742
L175.339 368.606
L176.235 368.742
L186.992 368.742
L187.888 368.597
L188.785 368.742
L199.541 368.742
L200.438 367.813
L201.334 368.742
L212.091 368.742
L212.987 368.411
L213.883 368.742
L221.055 368.742
L221.951 368.519
L222.847 368.742
L233.604 368.742
L234.5 368.562
L235.397 368.742
L241.671 368.742
L242.568 368.564
L243.464 368.742
L258.703 368.742
L259.599 368.425
L260.495 368.742
L275.734 368.742
L276.63 368.551
L277.527 368.742
L300.833 368.742
L301.729 223.93
L302.626 368.742
L329.517 368.742
L330.414 368.399
L331.31 368.742
L346.548 368.742
L347.445 368.482
L348.341 368.742
L362.683 368.742
L363.58 368.054
L364.476 368.742
L386.886 368.742
L387.782 368.35
L388.679 368.742
L403.917 368.742
L404.814 368.586
L405.71 368.742
L415.57 368.742
L416.467 368.477
L417.363 368.742
L459.493 368.742
L460.389 368.546
L461.286 368.742
L463.975 368.742
L463.975 368.742" style="fill:none;stroke:#00bfbf;stroke-linecap:square;"/>
   </g>
   <g id="line2d_12">
    <path clip-path="url(#pf51f381abf)" d="
M17.575 368.712
L20.2642 368.742
L21.1605 368.568
L22.0569 368.742
L69.5654 368.742
L70.4617 368.433
L71.3581 368.742
L73.1509 368.742
L74.0473 368.527
L74.9437 368.742
L84.8039 368.742
L85.7003 368.397
L86.5967 368.742
L91.975 368.742
L92.8714 368.606
L93.7678 368.742
L95.5605 368.742
L96.4569 368.477
L97.3533 368.742
L102.732 368.742
L103.628 368.498
L104.524 368.742
L110.799 368.742
L111.695 368.022
L112.592 368.742
L143.965 368.742
L144.862 368.402
L145.758 368.742
L147.551 368.742
L148.447 368.539
L149.344 368.742
L162.789 368.742
L163.686 368.563
L164.582 368.742
L185.199 368.742
L186.095 367.635
L186.992 368.742
L188.785 368.742
L189.681 368.53
L190.577 368.742
L204.023 368.742
L204.92 368.391
L205.816 368.742
L211.194 368.742
L212.091 368.397
L212.987 368.742
L215.676 368.742
L216.573 367.392
L217.469 368.742
L245.257 368.742
L246.153 368.448
L247.05 368.742
L266.77 368.742
L267.667 368.292
L268.563 368.742
L292.765 368.742
L293.662 364.887
L294.558 368.742
L307.108 368.742
L308.004 368.09
L308.9 368.742
L329.517 368.742
L330.414 366.158
L331.31 368.742
L394.953 368.742
L395.85 368.474
L396.746 368.742
L405.71 368.742
L406.606 367.51
L407.503 368.742
L437.083 368.742
L437.98 363.658
L438.876 368.742
L451.426 368.742
L452.322 368.597
L453.218 368.742
L463.975 368.742
L463.975 368.742" style="fill:none;stroke:#bf00bf;stroke-linecap:square;"/>
   </g>
   <g id="line2d_13">
    <path clip-path="url(#pf51f381abf)" d="
M17.575 368.69
L18.4714 368.742
L19.3678 368.742
L20.2642 368.649
L22.0569 368.742
L22.9533 368.742
L23.8497 368.595
L24.7461 368.742
L26.5389 368.742
L27.4352 368.251
L28.3316 368.742
L30.1244 368.742
L31.0208 368.579
L31.9172 368.742
L32.8136 368.742
L33.7099 368.629
L34.6063 368.742
L36.3991 368.742
L37.2955 368.391
L38.1919 368.742
L43.5702 368.742
L44.4666 368.583
L45.363 368.742
L46.2593 368.742
L47.1557 368.332
L48.0521 368.742
L49.8449 368.742
L50.7413 368.625
L51.6377 368.742
L57.016 368.742
L57.9123 368.497
L58.8087 368.742
L63.2907 368.742
L64.187 368.183
L65.0834 368.742
L83.0111 368.742
L83.9075 368.442
L84.8039 368.742
L90.1822 368.742
L91.0786 368.559
L91.975 368.742
L100.042 368.742
L100.939 368.349
L101.835 368.742
L126.934 368.742
L127.83 165.132
L128.727 368.742
L139.483 368.742
L140.38 368.562
L141.276 368.742
L156.515 368.742
L157.411 368.124
L158.308 368.742
L166.375 368.742
L167.271 368.485
L168.168 368.742
L182.51 368.742
L183.406 368.338
L184.303 368.742
L205.816 368.742
L206.712 368.36
L207.609 368.742
L222.847 368.742
L223.744 368.371
L224.64 368.742
L236.293 368.742
L237.189 368.565
L238.086 368.742
L252.428 368.742
L253.324 368.612
L254.221 368.742
L258.703 368.742
L259.599 368.555
L260.495 368.742
L282.009 368.742
L282.905 368.376
L283.802 368.742
L298.144 368.742
L299.04 368.626
L299.936 368.742
L314.279 368.742
L315.175 368.478
L316.071 368.742
L336.688 368.742
L337.585 366.833
L338.481 368.742
L372.544 368.742
L373.44 368.326
L374.336 368.742
L388.679 368.742
L389.575 368.459
L390.471 368.742
L401.228 368.742
L402.124 368.492
L403.021 368.742
L407.503 368.742
L408.399 368.441
L409.295 368.742
L432.602 368.742
L433.498 367.875
L434.394 368.742
L460.389 368.742
L461.286 366.083
L462.182 368.742
L463.975 368.742
L463.975 368.742" style="fill:none;stroke:#bfbf00;stroke-linecap:square;"/>
   </g>
   <g id="line2d_14">
    <path clip-path="url(#pf51f381abf)" d="
M17.575 368.708
L21.1605 368.742
L25.6425 368.742
L26.5389 368.54
L27.4352 368.742
L28.3316 368.742
L29.228 368.229
L30.1244 368.742
L31.9172 368.742
L32.8136 368.246
L33.7099 368.742
L43.5702 368.742
L44.4666 368.418
L45.363 368.742
L47.1557 368.742
L48.0521 89.5997
L48.9485 368.742
L62.3943 368.742
L63.2907 367.861
L64.187 368.742
L71.3581 368.742
L72.2545 368.433
L73.1509 368.742
L74.0473 368.742
L74.9437 368.511
L75.8401 368.742
L80.322 368.742
L81.2184 367.984
L82.1148 368.742
L85.7003 368.742
L86.5967 368.613
L87.4931 368.742
L94.6642 368.742
L95.5605 368.184
L96.4569 368.742
L103.628 368.742
L104.524 368.613
L105.421 368.742
L125.141 368.742
L126.038 368.402
L126.934 368.742
L143.069 368.742
L143.965 368.566
L144.862 368.742
L158.308 368.742
L159.204 368.275
L160.1 368.742
L169.961 368.742
L170.857 357.02
L171.753 368.742
L203.127 368.742
L204.023 142.759
L204.92 368.742
L218.365 368.742
L219.262 368.47
L220.158 368.742
L236.293 368.742
L237.189 367.863
L238.086 368.742
L262.288 368.742
L263.185 368.574
L264.081 368.742
L286.491 368.742
L287.387 367.705
L288.283 368.742
L312.486 368.742
L313.382 368.599
L314.279 368.742
L318.761 368.742
L319.657 368.169
L320.553 368.742
L326.828 368.742
L327.724 368.46
L328.621 368.742
L335.792 368.742
L336.688 353.264
L337.585 368.742
L394.057 368.742
L394.953 368.233
L395.85 368.742
L434.394 368.742
L435.291 368.184
L436.187 368.742
L451.426 368.742
L452.322 368.618
L453.218 368.742
L462.182 368.742
L463.079 368.322
L463.975 368.742
L463.975 368.742" style="fill:none;stroke:#000000;stroke-linecap:square;"/>
   </g>
   <g id="line2d_15">
    <path clip-path="url(#pf51f381abf)" d="
M17.575 368.69
L18.4714 368.742
L19.3678 368.742
L20.2642 368.673
L22.0569 368.742
L22.9533 368.579
L23.8497 368.742
L24.7461 368.742
L25.6425 368.526
L26.5389 368.742
L30.1244 368.742
L31.0208 368.482
L31.9172 368.742
L53.4304 368.742
L54.3268 368.446
L55.2232 368.742
L58.8087 368.742
L59.7051 368.187
L60.6015 368.742
L61.4979 368.742
L62.3943 368.522
L63.2907 368.742
L69.5654 368.742
L70.4617 368.352
L71.3581 368.742
L83.9075 368.742
L84.8039 368.551
L85.7003 368.742
L86.5967 368.742
L87.4931 367.771
L88.3895 368.742
L114.385 368.742
L115.281 368.628
L116.177 368.742
L122.452 368.742
L123.348 368.615
L124.245 368.742
L128.727 368.742
L129.623 368.554
L130.52 368.742
L139.483 368.742
L140.38 368.59
L141.276 368.742
L147.551 368.742
L148.447 368.588
L149.344 368.742
L156.515 368.742
L157.411 368.099
L158.308 368.742
L167.271 368.742
L168.168 368.328
L169.064 368.742
L175.339 368.742
L176.235 368.608
L177.132 368.742
L180.717 368.742
L181.614 368.472
L182.51 368.742
L212.091 368.742
L212.987 368.487
L213.883 368.742
L225.536 368.742
L226.433 368.064
L227.329 368.742
L239.879 368.742
L240.775 368.528
L241.671 368.742
L250.635 368.742
L251.532 368.629
L252.428 368.742
L258.703 368.742
L259.599 367.781
L260.495 368.742
L294.558 368.742
L295.455 367.769
L296.351 368.742
L318.761 368.742
L319.657 368.624
L320.553 368.742
L326.828 368.742
L327.724 56.3073
L328.621 368.742
L369.855 368.742
L370.751 368.059
L371.647 368.742
L383.3 368.742
L384.197 368.276
L385.093 368.742
L397.642 368.742
L398.539 368.353
L399.435 368.742
L423.638 368.742
L424.534 368.629
L425.43 368.742
L431.705 368.742
L432.602 368.37
L433.498 368.742
L444.255 368.742
L445.151 368.603
L446.047 368.742
L459.493 368.742
L460.389 367.036
L461.286 368.742
L463.975 368.742
L463.975 368.742" style="fill:none;stroke:#0000ff;stroke-linecap:square;"/>
   </g>
   <g id="line2d_16">
    <path clip-path="url(#pf51f381abf)" d="
M17.575 368.691
L18.4714 368.742
L19.3678 368.742
L20.2642 368.593
L21.1605 368.742
L27.4352 368.742
L28.3316 368.53
L29.228 368.742
L30.1244 368.742
L31.0208 368.543
L31.9172 368.742
L38.1919 368.742
L39.0883 368.475
L39.9846 368.742
L40.881 368.742
L41.7774 368.363
L42.6738 368.742
L46.2593 368.742
L47.1557 366.934
L48.0521 368.742
L57.016 368.742
L57.9123 368.522
L58.8087 368.742
L75.8401 368.742
L76.7364 368.042
L77.6328 368.742
L86.5967 368.742
L87.4931 368.306
L88.3895 368.742
L94.6642 368.742
L95.5605 368.306
L96.4569 368.742
L97.3533 368.742
L98.2497 367.924
L99.1461 368.742
L108.11 368.742
L109.006 368.489
L109.903 368.742
L124.245 368.742
L125.141 367.948
L126.038 368.742
L135.002 368.742
L135.898 368.53
L136.794 368.742
L145.758 368.742
L146.655 368.573
L147.551 368.742
L153.826 368.742
L154.722 367.855
L155.618 368.742
L164.582 368.742
L165.479 368.566
L166.375 368.742
L172.65 368.742
L173.546 367.127
L174.442 368.742
L183.406 368.742
L184.303 368.445
L185.199 368.742
L202.23 368.742
L203.127 368.618
L204.023 368.742
L223.744 368.742
L224.64 367.052
L225.536 368.742
L237.189 368.742
L238.086 368.62
L238.982 368.742
L247.946 368.742
L248.842 368.594
L249.739 368.742
L252.428 368.742
L253.324 368.458
L254.221 368.742
L265.874 368.742
L266.77 368.492
L267.667 368.742
L279.32 368.742
L280.216 368.445
L281.112 368.742
L294.558 368.742
L295.455 368.619
L296.351 368.742
L299.936 368.742
L300.833 368.088
L301.729 368.742
L313.382 368.742
L314.279 368.54
L315.175 368.742
L318.761 368.742
L319.657 368.547
L320.553 368.742
L333.999 368.742
L334.895 364.942
L335.792 368.742
L381.508 368.742
L382.404 368.299
L383.3 368.742
L394.057 368.742
L394.953 368.218
L395.85 368.742
L420.052 368.742
L420.948 368.134
L421.845 368.742
L456.804 368.742
L457.7 368.039
L458.597 368.742
L463.975 368.742
L463.975 368.742" style="fill:none;stroke:#008000;stroke-linecap:square;"/>
   </g>
   <g id="patch_3">
    <path d="
M17.575 23.1417
L463.975 23.1417" style="fill:none;stroke:#000000;stroke-linecap:square;stroke-linejoin:miter;"/>
   </g>
   <g id="patch_4">
    <path d="
M463.975 368.742
L463.975 23.1417" style="fill:none;stroke:#000000;stroke-linecap:square;stroke-linejoin:miter;"/>
   </g>
   <g id="patch_5">
    <path d="
M17.575 368.742
L463.975 368.742" style="fill:none;stroke:#000000;stroke-linecap:square;stroke-linejoin:miter;"/>
   </g>
   <g id="patch_6">
    <path d="
M17.575 368.742
L17.575 23.1417" style="fill:none;stroke:#000000;stroke-linecap:square;stroke-linejoin:miter;"/>
   </g>
   <g id="matplotlib.axis_1">
    <g id="xtick_1">
     <g id="line2d_17">
      <defs>
       <path d="
M0 0
L0 -4" id="m93b0483c22" style="stroke:#000000;stroke-width:0.5;"/>
      </defs>
      <g>
       <use style="stroke:#000000;stroke-width:0.5;" x="17.575" xlink:href="#m93b0483c22" y="368.74175"/>
      </g>
     </g>
     <g id="line2d_18">
      <defs>
       <path d="
M0 0
L0 4" id="m741efc42ff" style="stroke:#000000;stroke-width:0.5;"/>
      </defs>
      <g>
       <use style="stroke:#000000;stroke-width:0.5;" x="17.575" xlink:href="#m741efc42ff" y="23.14175"/>
      </g>
     </g>
     <g id="text_1">
      <!-- 0 -->
      <defs>
       <path d="
M31.7812 66.4062
Q24.1719 66.4062 20.3281 58.9062
Q16.5 51.4219 16.5 36.375
Q16.5 21.3906 20.3281 13.8906
Q24.1719 6.39062 31.7812 6.39062
Q39.4531 6.39062 43.2812 13.8906
Q47.125 21.3906 47.125 36.375
Q47.125 51.4219 43.2812 58.9062
Q39.4531 66.4062 31.7812 66.4062
M31.7812 74.2188
Q44.0469 74.2188 50.5156 64.5156
Q56.9844 54.8281 56.9844 36.375
Q56.9844 17.9688 50.5156 8.26562
Q44.0469 -1.42188 31.7812 -1.42188
Q19.5312 -1.42188 13.0625 8.26562
Q6.59375 17.9688 6.59375 36.375
Q6.59375 54.8281 13.0625 64.5156
Q19.5312 74.2188 31.7812 74.2188" id="DejaVuSans-30"/>
      </defs>
      <g transform="translate(14.5515625 381.859875)scale(0.12 -0.12)">
       <use xlink:href="#DejaVuSans-30"/>
      </g>
     </g>
    </g>
    <g id="xtick_2">
     <g id="line2d_19">
      <g>
       <use style="stroke:#000000;stroke-width:0.5;" x="107.213554217" xlink:href="#m93b0483c22" y="368.74175"/>
      </g>
     </g>
     <g id="line2d_20">
      <g>
       <use style="stroke:#000000;stroke-width:0.5;" x="107.213554217" xlink:href="#m741efc42ff" y="23.14175"/>
      </g>
     </g>
     <g id="text_2">
      <!-- 100 -->
      <defs>
       <path d="
M12.4062 8.29688
L28.5156 8.29688
L28.5156 63.9219
L10.9844 60.4062
L10.9844 69.3906
L28.4219 72.9062
L38.2812 72.9062
L38.2812 8.29688
L54.3906 8.29688
L54.3906 0
L12.4062 0
z
" id="DejaVuSans-31"/>
      </defs>
      <g transform="translate(96.8185542169 381.859875)scale(0.12 -0.12)">
       <use xlink:href="#DejaVuSans-31"/>
       <use x="63.623046875" xlink:href="#DejaVuSans-30"/>
       <use x="127.24609375" xlink:href="#DejaVuSans-30"/>
      </g>
     </g>
    </g>
    <g id="xtick_3">
     <g id="line2d_21">
      <g>
       <use style="stroke:#000000;stroke-width:0.5;" x="196.852108434" xlink:href="#m93b0483c22" y="368.74175"/>
      </g>
     </g>
     <g id="line2d_22">
      <g>
       <use style="stroke:#000000;stroke-width:0.5;" x="196.852108434" xlink:href="#m741efc42ff" y="23.14175"/>
      </g>
     </g>
     <g id="text_3">
      <!-- 200 -->
      <defs>
       <path d="
M19.1875 8.29688
L53.6094 8.29688
L53.6094 0
L7.32812 0
L7.32812 8.29688
Q12.9375 14.1094 22.625 23.8906
Q32.3281 33.6875 34.8125 36.5312
Q39.5469 41.8438 41.4219 45.5312
Q43.3125 49.2188 43.3125 52.7812
Q43.3125 58.5938 39.2344 62.25
Q35.1562 65.9219 28.6094 65.9219
Q23.9688 65.9219 18.8125 64.3125
Q13.6719 62.7031 7.8125 59.4219
L7.8125 69.3906
Q13.7656 71.7812 18.9375 73
Q24.125 74.2188 28.4219 74.2188
Q39.75 74.2188 46.4844 68.5469
Q53.2188 62.8906 53.2188 53.4219
Q53.2188 48.9219 51.5312 44.8906
Q49.8594 40.875 45.4062 35.4062
Q44.1875 33.9844 37.6406 27.2188
Q31.1094 20.4531 19.1875 8.29688" id="DejaVuSans-32"/>
      </defs>
      <g transform="translate(186.237733434 381.859875)scale(0.12 -0.12)">
       <use xlink:href="#DejaVuSans-32"/>
       <use x="63.623046875" xlink:href="#DejaVuSans-30"/>
       <use x="127.24609375" xlink:href="#DejaVuSans-30"/>
      </g>
     </g>
    </g>
    <g id="xtick_4">
     <g id="line2d_23">
      <g>
       <use style="stroke:#000000;stroke-width:0.5;" x="286.490662651" xlink:href="#m93b0483c22" y="368.74175"/>
      </g>
     </g>
     <g id="line2d_24">
      <g>
       <use style="stroke:#000000;stroke-width:0.5;" x="286.490662651" xlink:href="#m741efc42ff" y="23.14175"/>
      </g>
     </g>
     <g id="text_4">
      <!-- 300 -->
      <defs>
       <path d="
M40.5781 39.3125
Q47.6562 37.7969 51.625 33
Q55.6094 28.2188 55.6094 21.1875
Q55.6094 10.4062 48.1875 4.48438
Q40.7656 -1.42188 27.0938 -1.42188
Q22.5156 -1.42188 17.6562 -0.515625
Q12.7969 0.390625 7.625 2.20312
L7.625 11.7188
Q11.7188 9.32812 16.5938 8.10938
Q21.4844 6.89062 26.8125 6.89062
Q36.0781 6.89062 40.9375 10.5469
Q45.7969 14.2031 45.7969 21.1875
Q45.7969 27.6406 41.2812 31.2656
Q36.7656 34.9062 28.7188 34.9062
L20.2188 34.9062
L20.2188 43.0156
L29.1094 43.0156
Q36.375 43.0156 40.2344 45.9219
Q44.0938 48.8281 44.0938 54.2969
Q44.0938 59.9062 40.1094 62.9062
Q36.1406 65.9219 28.7188 65.9219
Q24.6562 65.9219 20.0156 65.0312
Q15.375 64.1562 9.8125 62.3125
L9.8125 71.0938
Q15.4375 72.6562 20.3438 73.4375
Q25.25 74.2188 29.5938 74.2188
Q40.8281 74.2188 47.3594 69.1094
Q53.9062 64.0156 53.9062 55.3281
Q53.9062 49.2656 50.4375 45.0938
Q46.9688 40.9219 40.5781 39.3125" id="DejaVuSans-33"/>
      </defs>
      <g transform="translate(275.894100151 381.859875)scale(0.12 -0.12)">
       <use xlink:href="#DejaVuSans-33"/>
       <use x="63.623046875" xlink:href="#DejaVuSans-30"/>
       <use x="127.24609375" xlink:href="#DejaVuSans-30"/>
      </g>
     </g>
    </g>
    <g id="xtick_5">
     <g id="line2d_25">
      <g>
       <use style="stroke:#000000;stroke-width:0.5;" x="376.129216867" xlink:href="#m93b0483c22" y="368.74175"/>
      </g>
     </g>
     <g id="line2d_26">
      <g>
       <use style="stroke:#000000;stroke-width:0.5;" x="376.129216867" xlink:href="#m741efc42ff" y="23.14175"/>
      </g>
     </g>
     <g id="text_5">
      <!-- 400 -->
      <defs>
       <path d="
M37.7969 64.3125
L12.8906 25.3906
L37.7969 25.3906
z

M35.2031 72.9062
L47.6094 72.9062
L47.6094 25.3906
L58.0156 25.3906
L58.0156 17.1875
L47.6094 17.1875
L47.6094 0
L37.7969 0
L37.7969 17.1875
L4.89062 17.1875
L4.89062 26.7031
z
" id="DejaVuSans-34"/>
      </defs>
      <g transform="translate(365.368591867 381.859875)scale(0.12 -0.12)">
       <use xlink:href="#DejaVuSans-34"/>
       <use x="63.623046875" xlink:href="#DejaVuSans-30"/>
       <use x="127.24609375" xlink:href="#DejaVuSans-30"/>
      </g>
     </g>
    </g>
    <g id="text_6">
     <!-- time -->
     <defs>
      <path d="
M18.3125 70.2188
L18.3125 54.6875
L36.8125 54.6875
L36.8125 47.7031
L18.3125 47.7031
L18.3125 18.0156
Q18.3125 11.3281 20.1406 9.42188
Q21.9688 7.51562 27.5938 7.51562
L36.8125 7.51562
L36.8125 0
L27.5938 0
Q17.1875 0 13.2344 3.875
Q9.28125 7.76562 9.28125 18.0156
L9.28125 47.7031
L2.6875 47.7031
L2.6875 54.6875
L9.28125 54.6875
L9.28125 70.2188
z
" id="DejaVuSans-74"/>
      <path d="
M52 44.1875
Q55.375 50.25 60.0625 53.125
Q64.75 56 71.0938 56
Q79.6406 56 84.2812 50.0156
Q88.9219 44.0469 88.9219 33.0156
L88.9219 0
L79.8906 0
L79.8906 32.7188
Q79.8906 40.5781 77.0938 44.375
Q74.3125 48.1875 68.6094 48.1875
Q61.625 48.1875 57.5625 43.5469
Q53.5156 38.9219 53.5156 30.9062
L53.5156 0
L44.4844 0
L44.4844 32.7188
Q44.4844 40.625 41.7031 44.4062
Q38.9219 48.1875 33.1094 48.1875
Q26.2188 48.1875 22.1562 43.5312
Q18.1094 38.875 18.1094 30.9062
L18.1094 0
L9.07812 0
L9.07812 54.6875
L18.1094 54.6875
L18.1094 46.1875
Q21.1875 51.2188 25.4844 53.6094
Q29.7812 56 35.6875 56
Q41.6562 56 45.8281 52.9688
Q50 49.9531 52 44.1875" id="DejaVuSans-6d"/>
      <path d="
M56.2031 29.5938
L56.2031 25.2031
L14.8906 25.2031
Q15.4844 15.9219 20.4844 11.0625
Q25.4844 6.20312 34.4219 6.20312
Q39.5938 6.20312 44.4531 7.46875
Q49.3125 8.73438 54.1094 11.2812
L54.1094 2.78125
Q49.2656 0.734375 44.1875 -0.34375
Q39.1094 -1.42188 33.8906 -1.42188
Q20.7969 -1.42188 13.1562 6.1875
Q5.51562 13.8125 5.51562 26.8125
Q5.51562 40.2344 12.7656 48.1094
Q20.0156 56 32.3281 56
Q43.3594 56 49.7812 48.8906
Q56.2031 41.7969 56.2031 29.5938
M47.2188 32.2344
Q47.125 39.5938 43.0938 43.9844
Q39.0625 48.3906 32.4219 48.3906
Q24.9062 48.3906 20.3906 44.1406
Q15.875 39.8906 15.1875 32.1719
z
" id="DejaVuSans-65"/>
      <path d="
M9.42188 54.6875
L18.4062 54.6875
L18.4062 0
L9.42188 0
z

M9.42188 75.9844
L18.4062 75.9844
L18.4062 64.5938
L9.42188 64.5938
z
" id="DejaVuSans-69"/>
     </defs>
     <g transform="translate(227.700625 398.473625)scale(0.12 -0.12)">
      <use xlink:href="#DejaVuSans-74"/>
      <use x="39.208984375" xlink:href="#DejaVuSans-69"/>
      <use x="66.9921875" xlink:href="#DejaVuSans-6d"/>
      <use x="164.404296875" xlink:href="#DejaVuSans-65"/>
     </g>
    </g>
   </g>
   <g id="matplotlib.axis_2">
    <g id="ytick_1">
     <g id="line2d_27">
      <defs>
       <path d="
M0 0
L4 0" id="m728421d6d4" style="stroke:#000000;stroke-width:0.5;"/>
      </defs>
      <g>
       <use style="stroke:#000000;stroke-width:0.5;" x="17.575" xlink:href="#m728421d6d4" y="368.74175"/>
      </g>
     </g>
     <g id="line2d_28">
      <defs>
       <path d="
M0 0
L-4 0" id="mcb0005524f" style="stroke:#000000;stroke-width:0.5;"/>
      </defs>
      <g>
       <use style="stroke:#000000;stroke-width:0.5;" x="463.975" xlink:href="#mcb0005524f" y="368.74175"/>
      </g>
     </g>
     <g id="text_7">
      <!-- 0 -->
      <g transform="translate(7.528125 372.053)scale(0.12 -0.12)">
       <use xlink:href="#DejaVuSans-30"/>
      </g>
     </g>
    </g>
    <g id="ytick_2">
     <g id="line2d_29">
      <g>
       <use style="stroke:#000000;stroke-width:0.5;" x="17.575" xlink:href="#m728421d6d4" y="319.370321429"/>
      </g>
     </g>
     <g id="line2d_30">
      <g>
       <use style="stroke:#000000;stroke-width:0.5;" x="463.975" xlink:href="#mcb0005524f" y="319.370321429"/>
      </g>
     </g>
     <g id="text_8">
      <!-- 1 -->
      <g transform="translate(8.36625 322.681571429)scale(0.12 -0.12)">
       <use xlink:href="#DejaVuSans-31"/>
      </g>
     </g>
    </g>
    <g id="ytick_3">
     <g id="line2d_31">
      <g>
       <use style="stroke:#000000;stroke-width:0.5;" x="17.575" xlink:href="#m728421d6d4" y="269.998892857"/>
      </g>
     </g>
     <g id="line2d_32">
      <g>
       <use style="stroke:#000000;stroke-width:0.5;" x="463.975" xlink:href="#mcb0005524f" y="269.998892857"/>
      </g>
     </g>
     <g id="text_9">
      <!-- 2 -->
      <g transform="translate(8.02125 273.310142857)scale(0.12 -0.12)">
       <use xlink:href="#DejaVuSans-32"/>
      </g>
     </g>
    </g>
    <g id="ytick_4">
     <g id="line2d_33">
      <g>
       <use style="stroke:#000000;stroke-width:0.5;" x="17.575" xlink:href="#m728421d6d4" y="220.627464286"/>
      </g>
     </g>
     <g id="line2d_34">
      <g>
       <use style="stroke:#000000;stroke-width:0.5;" x="463.975" xlink:href="#mcb0005524f" y="220.627464286"/>
      </g>
     </g>
     <g id="text_10">
      <!-- 3 -->
      <g transform="translate(7.816875 223.938714286)scale(0.12 -0.12)">
       <use xlink:href="#DejaVuSans-33"/>
      </g>
     </g>
    </g>
    <g id="ytick_5">
     <g id="line2d_35">
      <g>
       <use style="stroke:#000000;stroke-width:0.5;" x="17.575" xlink:href="#m728421d6d4" y="171.256035714"/>
      </g>
     </g>
     <g id="line2d_36">
      <g>
       <use style="stroke:#000000;stroke-width:0.5;" x="463.975" xlink:href="#mcb0005524f" y="171.256035714"/>
      </g>
     </g>
     <g id="text_11">
      <!-- 4 -->
      <g transform="translate(7.2 174.567285714)scale(0.12 -0.12)">
       <use xlink:href="#DejaVuSans-34"/>
      </g>
     </g>
    </g>
    <g id="ytick_6">
     <g id="line2d_37">
      <g>
       <use style="stroke:#000000;stroke-width:0.5;" x="17.575" xlink:href="#m728421d6d4" y="121.884607143"/>
      </g>
     </g>
     <g id="line2d_38">
      <g>
       <use style="stroke:#000000;stroke-width:0.5;" x="463.975" xlink:href="#mcb0005524f" y="121.884607143"/>
      </g>
     </g>
     <g id="text_12">
      <!-- 5 -->
      <defs>
       <path d="
M10.7969 72.9062
L49.5156 72.9062
L49.5156 64.5938
L19.8281 64.5938
L19.8281 46.7344
Q21.9688 47.4688 24.1094 47.8281
Q26.2656 48.1875 28.4219 48.1875
Q40.625 48.1875 47.75 41.5
Q54.8906 34.8125 54.8906 23.3906
Q54.8906 11.625 47.5625 5.09375
Q40.2344 -1.42188 26.9062 -1.42188
Q22.3125 -1.42188 17.5469 -0.640625
Q12.7969 0.140625 7.71875 1.70312
L7.71875 11.625
Q12.1094 9.23438 16.7969 8.0625
Q21.4844 6.89062 26.7031 6.89062
Q35.1562 6.89062 40.0781 11.3281
Q45.0156 15.7656 45.0156 23.3906
Q45.0156 31 40.0781 35.4375
Q35.1562 39.8906 26.7031 39.8906
Q22.75 39.8906 18.8125 39.0156
Q14.8906 38.1406 10.7969 36.2812
z
" id="DejaVuSans-35"/>
      </defs>
      <g transform="translate(7.914375 125.195857143)scale(0.12 -0.12)">
       <use xlink:href="#DejaVuSans-35"/>
      </g>
     </g>
    </g>
    <g id="ytick_7">
     <g id="line2d_39">
      <g>
       <use style="stroke:#000000;stroke-width:0.5;" x="17.575" xlink:href="#m728421d6d4" y="72.5131785714"/>
      </g>
     </g>
     <g id="line2d_40">
      <g>
       <use style="stroke:#000000;stroke-width:0.5;" x="463.975" xlink:href="#mcb0005524f" y="72.5131785714"/>
      </g>
     </g>
     <g id="text_13">
      <!-- 6 -->
      <defs>
       <path d="
M33.0156 40.375
Q26.375 40.375 22.4844 35.8281
Q18.6094 31.2969 18.6094 23.3906
Q18.6094 15.5312 22.4844 10.9531
Q26.375 6.39062 33.0156 6.39062
Q39.6562 6.39062 43.5312 10.9531
Q47.4062 15.5312 47.4062 23.3906
Q47.4062 31.2969 43.5312 35.8281
Q39.6562 40.375 33.0156 40.375
M52.5938 71.2969
L52.5938 62.3125
Q48.875 64.0625 45.0938 64.9844
Q41.3125 65.9219 37.5938 65.9219
Q27.8281 65.9219 22.6719 59.3281
Q17.5312 52.7344 16.7969 39.4062
Q19.6719 43.6562 24.0156 45.9219
Q28.375 48.1875 33.5938 48.1875
Q44.5781 48.1875 50.9531 41.5156
Q57.3281 34.8594 57.3281 23.3906
Q57.3281 12.1562 50.6875 5.35938
Q44.0469 -1.42188 33.0156 -1.42188
Q20.3594 -1.42188 13.6719 8.26562
Q6.98438 17.9688 6.98438 36.375
Q6.98438 53.6562 15.1875 63.9375
Q23.3906 74.2188 37.2031 74.2188
Q40.9219 74.2188 44.7031 73.4844
Q48.4844 72.75 52.5938 71.2969" id="DejaVuSans-36"/>
      </defs>
      <g transform="translate(7.53375 75.8244285714)scale(0.12 -0.12)">
       <use xlink:href="#DejaVuSans-36"/>
      </g>
     </g>
    </g>
    <g id="ytick_8">
     <g id="line2d_41">
      <g>
       <use style="stroke:#000000;stroke-width:0.5;" x="17.575" xlink:href="#m728421d6d4" y="23.14175"/>
      </g>
     </g>
     <g id="line2d_42">
      <g>
       <use style="stroke:#000000;stroke-width:0.5;" x="463.975" xlink:href="#mcb0005524f" y="23.14175"/>
      </g>
     </g>
     <g id="text_14">
      <!-- 7 -->
      <defs>
       <path d="
M8.20312 72.9062
L55.0781 72.9062
L55.0781 68.7031
L28.6094 0
L18.3125 0
L43.2188 64.5938
L8.20312 64.5938
z
" id="DejaVuSans-37"/>
      </defs>
      <g transform="translate(7.95 26.453)scale(0.12 -0.12)">
       <use xlink:href="#DejaVuSans-37"/>
      </g>
     </g>
    </g>
    <g id="text_15">
     <!-- 1e7 -->
     <g transform="translate(17.575 20.14175)scale(0.12 -0.12)">
      <use xlink:href="#DejaVuSans-31"/>
      <use x="63.623046875" xlink:href="#DejaVuSans-65"/>
      <use x="125.146484375" xlink:href="#DejaVuSans-37"/>
     </g>
    </g>
   </g>
   <g id="text_16">
    <!-- /agas/time/bind_gid change -->
    <defs>
     <path d="
M25.3906 72.9062
L33.6875 72.9062
L8.29688 -9.28125
L0 -9.28125
z
" id="DejaVuSans-2f"/>
     <path d="
M54.8906 33.0156
L54.8906 0
L45.9062 0
L45.9062 32.7188
Q45.9062 40.4844 42.875 44.3281
Q39.8438 48.1875 33.7969 48.1875
Q26.5156 48.1875 22.3125 43.5469
Q18.1094 38.9219 18.1094 30.9062
L18.1094 0
L9.07812 0
L9.07812 54.6875
L18.1094 54.6875
L18.1094 46.1875
Q21.3438 51.125 25.7031 53.5625
Q30.0781 56 35.7969 56
Q45.2188 56 50.0469 50.1719
Q54.8906 44.3438 54.8906 33.0156" id="DejaVuSans-6e"/>
     <path d="
M50.9844 -16.6094
L50.9844 -23.5781
L-0.984375 -23.5781
L-0.984375 -16.6094
z
" id="DejaVuSans-5f"/>
     <path id="DejaVuSans-20"/>
     <path d="
M54.8906 33.0156
L54.8906 0
L45.9062 0
L45.9062 32.7188
Q45.9062 40.4844 42.875 44.3281
Q39.8438 48.1875 33.7969 48.1875
Q26.5156 48.1875 22.3125 43.5469
Q18.1094 38.9219 18.1094 30.9062
L18.1094 0
L9.07812 0
L9.07812 75.9844
L18.1094 75.9844
L18.1094 46.1875
Q21.3438 51.125 25.7031 53.5625
Q30.0781 56 35.7969 56
Q45.2188 56 50.0469 50.1719
Q54.8906 44.3438 54.8906 33.0156" id="DejaVuSans-68"/>
     <path d="
M45.4062 27.9844
Q45.4062 37.75 41.375 43.1094
Q37.3594 48.4844 30.0781 48.4844
Q22.8594 48.4844 18.8281 43.1094
Q14.7969 37.75 14.7969 27.9844
Q14.7969 18.2656 18.8281 12.8906
Q22.8594 7.51562 30.0781 7.51562
Q37.3594 7.51562 41.375 12.8906
Q45.4062 18.2656 45.4062 27.9844
M54.3906 6.78125
Q54.3906 -7.17188 48.1875 -13.9844
Q42 -20.7969 29.2031 -20.7969
Q24.4688 -20.7969 20.2656 -20.0938
Q16.0625 -19.3906 12.1094 -17.9219
L12.1094 -9.1875
Q16.0625 -11.3281 19.9219 -12.3438
Q23.7812 -13.375 27.7812 -13.375
Q36.625 -13.375 41.0156 -8.76562
Q45.4062 -4.15625 45.4062 5.17188
L45.4062 9.625
Q42.625 4.78125 38.2812 2.39062
Q33.9375 0 27.875 0
Q17.8281 0 11.6719 7.65625
Q5.51562 15.3281 5.51562 27.9844
Q5.51562 40.6719 11.6719 48.3281
Q17.8281 56 27.875 56
Q33.9375 56 38.2812 53.6094
Q42.625 51.2188 45.4062 46.3906
L45.4062 54.6875
L54.3906 54.6875
z
" id="DejaVuSans-67"/>
     <path d="
M45.4062 46.3906
L45.4062 75.9844
L54.3906 75.9844
L54.3906 0
L45.4062 0
L45.4062 8.20312
Q42.5781 3.32812 38.25 0.953125
Q33.9375 -1.42188 27.875 -1.42188
Q17.9688 -1.42188 11.7344 6.48438
Q5.51562 14.4062 5.51562 27.2969
Q5.51562 40.1875 11.7344 48.0938
Q17.9688 56 27.875 56
Q33.9375 56 38.25 53.625
Q42.5781 51.2656 45.4062 46.3906
M14.7969 27.2969
Q14.7969 17.3906 18.875 11.75
Q22.9531 6.10938 30.0781 6.10938
Q37.2031 6.10938 41.2969 11.75
Q45.4062 17.3906 45.4062 27.2969
Q45.4062 37.2031 41.2969 42.8438
Q37.2031 48.4844 30.0781 48.4844
Q22.9531 48.4844 18.875 42.8438
Q14.7969 37.2031 14.7969 27.2969" id="DejaVuSans-64"/>
     <path d="
M48.6875 27.2969
Q48.6875 37.2031 44.6094 42.8438
Q40.5312 48.4844 33.4062 48.4844
Q26.2656 48.4844 22.1875 42.8438
Q18.1094 37.2031 18.1094 27.2969
Q18.1094 17.3906 22.1875 11.75
Q26.2656 6.10938 33.4062 6.10938
Q40.5312 6.10938 44.6094 11.75
Q48.6875 17.3906 48.6875 27.2969
M18.1094 46.3906
Q20.9531 51.2656 25.2656 53.625
Q29.5938 56 35.5938 56
Q45.5625 56 51.7812 48.0938
Q58.0156 40.1875 58.0156 27.2969
Q58.0156 14.4062 51.7812 6.48438
Q45.5625 -1.42188 35.5938 -1.42188
Q29.5938 -1.42188 25.2656 0.953125
Q20.9531 3.32812 18.1094 8.20312
L18.1094 0
L9.07812 0
L9.07812 75.9844
L18.1094 75.9844
z
" id="DejaVuSans-62"/>
     <path d="
M48.7812 52.5938
L48.7812 44.1875
Q44.9688 46.2969 41.1406 47.3438
Q37.3125 48.3906 33.4062 48.3906
Q24.6562 48.3906 19.8125 42.8438
Q14.9844 37.3125 14.9844 27.2969
Q14.9844 17.2812 19.8125 11.7344
Q24.6562 6.20312 33.4062 6.20312
Q37.3125 6.20312 41.1406 7.25
Q44.9688 8.29688 48.7812 10.4062
L48.7812 2.09375
Q45.0156 0.34375 40.9844 -0.53125
Q36.9688 -1.42188 32.4219 -1.42188
Q20.0625 -1.42188 12.7812 6.34375
Q5.51562 14.1094 5.51562 27.2969
Q5.51562 40.6719 12.8594 48.3281
Q20.2188 56 33.0156 56
Q37.1562 56 41.1094 55.1406
Q45.0625 54.2969 48.7812 52.5938" id="DejaVuSans-63"/>
     <path d="
M44.2812 53.0781
L44.2812 44.5781
Q40.4844 46.5312 36.375 47.5
Q32.2812 48.4844 27.875 48.4844
Q21.1875 48.4844 17.8438 46.4375
Q14.5 44.3906 14.5 40.2812
Q14.5 37.1562 16.8906 35.375
Q19.2812 33.5938 26.5156 31.9844
L29.5938 31.2969
Q39.1562 29.25 43.1875 25.5156
Q47.2188 21.7812 47.2188 15.0938
Q47.2188 7.46875 41.1875 3.01562
Q35.1562 -1.42188 24.6094 -1.42188
Q20.2188 -1.42188 15.4531 -0.5625
Q10.6875 0.296875 5.42188 2
L5.42188 11.2812
Q10.4062 8.6875 15.2344 7.39062
Q20.0625 6.10938 24.8125 6.10938
Q31.1562 6.10938 34.5625 8.28125
Q37.9844 10.4531 37.9844 14.4062
Q37.9844 18.0625 35.5156 20.0156
Q33.0625 21.9688 24.7031 23.7812
L21.5781 24.5156
Q13.2344 26.2656 9.51562 29.9062
Q5.8125 33.5469 5.8125 39.8906
Q5.8125 47.6094 11.2812 51.7969
Q16.75 56 26.8125 56
Q31.7812 56 36.1719 55.2656
Q40.5781 54.5469 44.2812 53.0781" id="DejaVuSans-73"/>
     <path d="
M34.2812 27.4844
Q23.3906 27.4844 19.1875 25
Q14.9844 22.5156 14.9844 16.5
Q14.9844 11.7188 18.1406 8.90625
Q21.2969 6.10938 26.7031 6.10938
Q34.1875 6.10938 38.7031 11.4062
Q43.2188 16.7031 43.2188 25.4844
L43.2188 27.4844
z

M52.2031 31.2031
L52.2031 0
L43.2188 0
L43.2188 8.29688
Q40.1406 3.32812 35.5469 0.953125
Q30.9531 -1.42188 24.3125 -1.42188
Q15.9219 -1.42188 10.9531 3.29688
Q6 8.01562 6 15.9219
Q6 25.1406 12.1719 29.8281
Q18.3594 34.5156 30.6094 34.5156
L43.2188 34.5156
L43.2188 35.4062
Q43.2188 41.6094 39.1406 45
Q35.0625 48.3906 27.6875 48.3906
Q23 48.3906 18.5469 47.2656
Q14.1094 46.1406 10.0156 43.8906
L10.0156 52.2031
Q14.9375 54.1094 19.5781 55.0469
Q24.2188 56 28.6094 56
Q40.4844 56 46.3438 49.8438
Q52.2031 43.7031 52.2031 31.2031" id="DejaVuSans-61"/>
    </defs>
    <g transform="translate(141.236125 18.14175)scale(0.144 -0.144)">
     <use xlink:href="#DejaVuSans-2f"/>
     <use x="33.69140625" xlink:href="#DejaVuSans-61"/>
     <use x="94.970703125" xlink:href="#DejaVuSans-67"/>
     <use x="158.447265625" xlink:href="#DejaVuSans-61"/>
     <use x="219.7265625" xlink:href="#DejaVuSans-73"/>
     <use x="271.826171875" xlink:href="#DejaVuSans-2f"/>
     <use x="305.517578125" xlink:href="#DejaVuSans-74"/>
     <use x="344.7265625" xlink:href="#DejaVuSans-69"/>
     <use x="372.509765625" xlink:href="#DejaVuSans-6d"/>
     <use x="469.921875" xlink:href="#DejaVuSans-65"/>
     <use x="531.4453125" xlink:href="#DejaVuSans-2f"/>
     <use x="565.13671875" xlink:href="#DejaVuSans-62"/>
     <use x="628.61328125" xlink:href="#DejaVuSans-69"/>
     <use x="656.396484375" xlink:href="#DejaVuSans-6e"/>
     <use x="719.775390625" xlink:href="#DejaVuSans-64"/>
     <use x="783.251953125" xlink:href="#DejaVuSans-5f"/>
     <use x="833.251953125" xlink:href="#DejaVuSans-67"/>
     <use x="896.728515625" xlink:href="#DejaVuSans-69"/>
     <use x="924.51171875" xlink:href="#DejaVuSans-64"/>
     <use x="987.98828125" xlink:href="#DejaVuSans-20"/>
     <use x="1019.77539062" xlink:href="#DejaVuSans-63"/>
     <use x="1074.75585938" xlink:href="#DejaVuSans-68"/>
     <use x="1138.13476562" xlink:href="#DejaVuSans-61"/>
     <use x="1199.4140625" xlink:href="#DejaVuSans-6e"/>
     <use x="1262.79296875" xlink:href="#DejaVuSans-67"/>
     <use x="1326.26953125" xlink:href="#DejaVuSans-65"/>
    </g>
   </g>
   <g id="legend_1">
    <g id="patch_7">
     <path d="
M471.175 367.194
L602.964 367.194
L602.964 24.6897
L471.175 24.6897
z
" style="fill:#ffffff;stroke:#000000;stroke-linejoin:miter;"/>
    </g>
    <g id="line2d_43">
     <path d="
M481.255 36.3515
L501.415 36.3515" style="fill:none;stroke:#0000ff;stroke-linecap:square;"/>
    </g>
    <g id="line2d_44"/>
    <g id="text_17">
     <!-- locality#0 -->
     <defs>
      <path d="
M30.6094 48.3906
Q23.3906 48.3906 19.1875 42.75
Q14.9844 37.1094 14.9844 27.2969
Q14.9844 17.4844 19.1562 11.8438
Q23.3438 6.20312 30.6094 6.20312
Q37.7969 6.20312 41.9844 11.8594
Q46.1875 17.5312 46.1875 27.2969
Q46.1875 37.0156 41.9844 42.7031
Q37.7969 48.3906 30.6094 48.3906
M30.6094 56
Q42.3281 56 49.0156 48.375
Q55.7188 40.7656 55.7188 27.2969
Q55.7188 13.875 49.0156 6.21875
Q42.3281 -1.42188 30.6094 -1.42188
Q18.8438 -1.42188 12.1719 6.21875
Q5.51562 13.875 5.51562 27.2969
Q5.51562 40.7656 12.1719 48.375
Q18.8438 56 30.6094 56" id="DejaVuSans-6f"/>
      <path d="
M51.125 44
L36.9219 44
L32.8125 27.6875
L47.125 27.6875
z

M43.7969 71.7812
L38.7188 51.5156
L52.9844 51.5156
L58.1094 71.7812
L65.9219 71.7812
L60.8906 51.5156
L76.125 51.5156
L76.125 44
L58.9844 44
L54.9844 27.6875
L70.5156 27.6875
L70.5156 20.2188
L53.0781 20.2188
L48 0
L40.1875 0
L45.2188 20.2188
L30.9062 20.2188
L25.875 0
L18.0156 0
L23.0938 20.2188
L7.71875 20.2188
L7.71875 27.6875
L24.9062 27.6875
L29 44
L13.2812 44
L13.2812 51.5156
L30.9062 51.5156
L35.8906 71.7812
z
" id="DejaVuSans-23"/>
      <path d="
M32.1719 -5.07812
Q28.375 -14.8438 24.75 -17.8125
Q21.1406 -20.7969 15.0938 -20.7969
L7.90625 -20.7969
L7.90625 -13.2812
L13.1875 -13.2812
Q16.8906 -13.2812 18.9375 -11.5156
Q21 -9.76562 23.4844 -3.21875
L25.0938 0.875
L2.98438 54.6875
L12.5 54.6875
L29.5938 11.9219
L46.6875 54.6875
L56.2031 54.6875
z
" id="DejaVuSans-79"/>
      <path d="
M9.42188 75.9844
L18.4062 75.9844
L18.4062 0
L9.42188 0
z
" id="DejaVuSans-6c"/>
     </defs>
     <g transform="translate(517.255 41.3915)scale(0.144 -0.144)">
      <use xlink:href="#DejaVuSans-6c"/>
      <use x="27.783203125" xlink:href="#DejaVuSans-6f"/>
      <use x="88.96484375" xlink:href="#DejaVuSans-63"/>
      <use x="143.9453125" xlink:href="#DejaVuSans-61"/>
      <use x="205.224609375" xlink:href="#DejaVuSans-6c"/>
      <use x="233.0078125" xlink:href="#DejaVuSans-69"/>
      <use x="260.791015625" xlink:href="#DejaVuSans-74"/>
      <use x="300.0" xlink:href="#DejaVuSans-79"/>
      <use x="359.1796875" xlink:href="#DejaVuSans-23"/>
      <use x="442.96875" xlink:href="#DejaVuSans-30"/>
     </g>
    </g>
    <g id="line2d_45">
     <path d="
M481.255 57.488
L501.415 57.488" style="fill:none;stroke:#008000;stroke-linecap:square;"/>
    </g>
    <g id="line2d_46"/>
    <g id="text_18">
     <!-- locality#1 -->
     <g transform="translate(517.255 62.528)scale(0.144 -0.144)">
      <use xlink:href="#DejaVuSans-6c"/>
      <use x="27.783203125" xlink:href="#DejaVuSans-6f"/>
      <use x="88.96484375" xlink:href="#DejaVuSans-63"/>
      <use x="143.9453125" xlink:href="#DejaVuSans-61"/>
      <use x="205.224609375" xlink:href="#DejaVuSans-6c"/>
      <use x="233.0078125" xlink:href="#DejaVuSans-69"/>
      <use x="260.791015625" xlink:href="#DejaVuSans-74"/>
      <use x="300.0" xlink:href="#DejaVuSans-79"/>
      <use x="359.1796875" xlink:href="#DejaVuSans-23"/>
      <use x="442.96875" xlink:href="#DejaVuSans-31"/>
     </g>
    </g>
    <g id="line2d_47">
     <path d="
M481.255 78.6245
L501.415 78.6245" style="fill:none;stroke:#ff0000;stroke-linecap:square;"/>
    </g>
    <g id="line2d_48"/>
    <g id="text_19">
     <!-- locality#10 -->
     <g transform="translate(517.255 83.6645)scale(0.144 -0.144)">
      <use xlink:href="#DejaVuSans-6c"/>
      <use x="27.783203125" xlink:href="#DejaVuSans-6f"/>
      <use x="88.96484375" xlink:href="#DejaVuSans-63"/>
      <use x="143.9453125" xlink:href="#DejaVuSans-61"/>
      <use x="205.224609375" xlink:href="#DejaVuSans-6c"/>
      <use x="233.0078125" xlink:href="#DejaVuSans-69"/>
      <use x="260.791015625" xlink:href="#DejaVuSans-74"/>
      <use x="300.0" xlink:href="#DejaVuSans-79"/>
      <use x="359.1796875" xlink:href="#DejaVuSans-23"/>
      <use x="442.96875" xlink:href="#DejaVuSans-31"/>
      <use x="506.591796875" xlink:href="#DejaVuSans-30"/>
     </g>
    </g>
    <g id="line2d_49">
     <path d="
M481.255 99.761
L501.415 99.761" style="fill:none;stroke:#00bfbf;stroke-linecap:square;"/>
    </g>
    <g id="line2d_50"/>
    <g id="text_20">
     <!-- locality#11 -->
     <g transform="translate(517.255 104.801)scale(0.144 -0.144)">
      <use xlink:href="#DejaVuSans-6c"/>
      <use x="27.783203125" xlink:href="#DejaVuSans-6f"/>
      <use x="88.96484375" xlink:href="#DejaVuSans-63"/>
      <use x="143.9453125" xlink:href="#DejaVuSans-61"/>
      <use x="205.224609375" xlink:href="#DejaVuSans-6c"/>
      <use x="233.0078125" xlink:href="#DejaVuSans-69"/>
      <use x="260.791015625" xlink:href="#DejaVuSans-74"/>
      <use x="300.0" xlink:href="#DejaVuSans-79"/>
      <use x="359.1796875" xlink:href="#DejaVuSans-23"/>
      <use x="442.96875" xlink:href="#DejaVuSans-31"/>
      <use x="506.591796875" xlink:href="#DejaVuSans-31"/>
     </g>
    </g>
    <g id="line2d_51">
     <path d="
M481.255 120.897
L501.415 120.897" style="fill:none;stroke:#bf00bf;stroke-linecap:square;"/>
    </g>
    <g id="line2d_52"/>
    <g id="text_21">
     <!-- locality#12 -->
     <g transform="translate(517.255 125.9375)scale(0.144 -0.144)">
      <use xlink:href="#DejaVuSans-6c"/>
      <use x="27.783203125" xlink:href="#DejaVuSans-6f"/>
      <use x="88.96484375" xlink:href="#DejaVuSans-63"/>
      <use x="143.9453125" xlink:href="#DejaVuSans-61"/>
      <use x="205.224609375" xlink:href="#DejaVuSans-6c"/>
      <use x="233.0078125" xlink:href="#DejaVuSans-69"/>
      <use x="260.791015625" xlink:href="#DejaVuSans-74"/>
      <use x="300.0" xlink:href="#DejaVuSans-79"/>
      <use x="359.1796875" xlink:href="#DejaVuSans-23"/>
      <use x="442.96875" xlink:href="#DejaVuSans-31"/>
      <use x="506.591796875" xlink:href="#DejaVuSans-32"/>
     </g>
    </g>
    <g id="line2d_53">
     <path d="
M481.255 142.034
L501.415 142.034" style="fill:none;stroke:#bfbf00;stroke-linecap:square;"/>
    </g>
    <g id="line2d_54"/>
    <g id="text_22">
     <!-- locality#13 -->
     <g transform="translate(517.255 147.074)scale(0.144 -0.144)">
      <use xlink:href="#DejaVuSans-6c"/>
      <use x="27.783203125" xlink:href="#DejaVuSans-6f"/>
      <use x="88.96484375" xlink:href="#DejaVuSans-63"/>
      <use x="143.9453125" xlink:href="#DejaVuSans-61"/>
      <use x="205.224609375" xlink:href="#DejaVuSans-6c"/>
      <use x="233.0078125" xlink:href="#DejaVuSans-69"/>
      <use x="260.791015625" xlink:href="#DejaVuSans-74"/>
      <use x="300.0" xlink:href="#DejaVuSans-79"/>
      <use x="359.1796875" xlink:href="#DejaVuSans-23"/>
      <use x="442.96875" xlink:href="#DejaVuSans-31"/>
      <use x="506.591796875" xlink:href="#DejaVuSans-33"/>
     </g>
    </g>
    <g id="line2d_55">
     <path d="
M481.255 163.17
L501.415 163.17" style="fill:none;stroke:#000000;stroke-linecap:square;"/>
    </g>
    <g id="line2d_56"/>
    <g id="text_23">
     <!-- locality#14 -->
     <g transform="translate(517.255 168.2105)scale(0.144 -0.144)">
      <use xlink:href="#DejaVuSans-6c"/>
      <use x="27.783203125" xlink:href="#DejaVuSans-6f"/>
      <use x="88.96484375" xlink:href="#DejaVuSans-63"/>
      <use x="143.9453125" xlink:href="#DejaVuSans-61"/>
      <use x="205.224609375" xlink:href="#DejaVuSans-6c"/>
      <use x="233.0078125" xlink:href="#DejaVuSans-69"/>
      <use x="260.791015625" xlink:href="#DejaVuSans-74"/>
      <use x="300.0" xlink:href="#DejaVuSans-79"/>
      <use x="359.1796875" xlink:href="#DejaVuSans-23"/>
      <use x="442.96875" xlink:href="#DejaVuSans-31"/>
      <use x="506.591796875" xlink:href="#DejaVuSans-34"/>
     </g>
    </g>
    <g id="line2d_57">
     <path d="
M481.255 184.307
L501.415 184.307" style="fill:none;stroke:#0000ff;stroke-linecap:square;"/>
    </g>
    <g id="line2d_58"/>
    <g id="text_24">
     <!-- locality#15 -->
     <g transform="translate(517.255 189.347)scale(0.144 -0.144)">
      <use xlink:href="#DejaVuSans-6c"/>
      <use x="27.783203125" xlink:href="#DejaVuSans-6f"/>
      <use x="88.96484375" xlink:href="#DejaVuSans-63"/>
      <use x="143.9453125" xlink:href="#DejaVuSans-61"/>
      <use x="205.224609375" xlink:href="#DejaVuSans-6c"/>
      <use x="233.0078125" xlink:href="#DejaVuSans-69"/>
      <use x="260.791015625" xlink:href="#DejaVuSans-74"/>
      <use x="300.0" xlink:href="#DejaVuSans-79"/>
      <use x="359.1796875" xlink:href="#DejaVuSans-23"/>
      <use x="442.96875" xlink:href="#DejaVuSans-31"/>
      <use x="506.591796875" xlink:href="#DejaVuSans-35"/>
     </g>
    </g>
    <g id="line2d_59">
     <path d="
M481.255 205.443
L501.415 205.443" style="fill:none;stroke:#008000;stroke-linecap:square;"/>
    </g>
    <g id="line2d_60"/>
    <g id="text_25">
     <!-- locality#2 -->
     <g transform="translate(517.255 210.4835)scale(0.144 -0.144)">
      <use xlink:href="#DejaVuSans-6c"/>
      <use x="27.783203125" xlink:href="#DejaVuSans-6f"/>
      <use x="88.96484375" xlink:href="#DejaVuSans-63"/>
      <use x="143.9453125" xlink:href="#DejaVuSans-61"/>
      <use x="205.224609375" xlink:href="#DejaVuSans-6c"/>
      <use x="233.0078125" xlink:href="#DejaVuSans-69"/>
      <use x="260.791015625" xlink:href="#DejaVuSans-74"/>
      <use x="300.0" xlink:href="#DejaVuSans-79"/>
      <use x="359.1796875" xlink:href="#DejaVuSans-23"/>
      <use x="442.96875" xlink:href="#DejaVuSans-32"/>
     </g>
    </g>
    <g id="line2d_61">
     <path d="
M481.255 226.58
L501.415 226.58" style="fill:none;stroke:#ff0000;stroke-linecap:square;"/>
    </g>
    <g id="line2d_62"/>
    <g id="text_26">
     <!-- locality#3 -->
     <g transform="translate(517.255 231.62)scale(0.144 -0.144)">
      <use xlink:href="#DejaVuSans-6c"/>
      <use x="27.783203125" xlink:href="#DejaVuSans-6f"/>
      <use x="88.96484375" xlink:href="#DejaVuSans-63"/>
      <use x="143.9453125" xlink:href="#DejaVuSans-61"/>
      <use x="205.224609375" xlink:href="#DejaVuSans-6c"/>
      <use x="233.0078125" xlink:href="#DejaVuSans-69"/>
      <use x="260.791015625" xlink:href="#DejaVuSans-74"/>
      <use x="300.0" xlink:href="#DejaVuSans-79"/>
      <use x="359.1796875" xlink:href="#DejaVuSans-23"/>
      <use x="442.96875" xlink:href="#DejaVuSans-33"/>
     </g>
    </g>
    <g id="line2d_63">
     <path d="
M481.255 247.716
L501.415 247.716" style="fill:none;stroke:#00bfbf;stroke-linecap:square;"/>
    </g>
    <g id="line2d_64"/>
    <g id="text_27">
     <!-- locality#4 -->
     <g transform="translate(517.255 252.7565)scale(0.144 -0.144)">
      <use xlink:href="#DejaVuSans-6c"/>
      <use x="27.783203125" xlink:href="#DejaVuSans-6f"/>
      <use x="88.96484375" xlink:href="#DejaVuSans-63"/>
      <use x="143.9453125" xlink:href="#DejaVuSans-61"/>
      <use x="205.224609375" xlink:href="#DejaVuSans-6c"/>
      <use x="233.0078125" xlink:href="#DejaVuSans-69"/>
      <use x="260.791015625" xlink:href="#DejaVuSans-74"/>
      <use x="300.0" xlink:href="#DejaVuSans-79"/>
      <use x="359.1796875" xlink:href="#DejaVuSans-23"/>
      <use x="442.96875" xlink:href="#DejaVuSans-34"/>
     </g>
    </g>
    <g id="line2d_65">
     <path d="
M481.255 268.853
L501.415 268.853" style="fill:none;stroke:#bf00bf;stroke-linecap:square;"/>
    </g>
    <g id="line2d_66"/>
    <g id="text_28">
     <!-- locality#5 -->
     <g transform="translate(517.255 273.893)scale(0.144 -0.144)">
      <use xlink:href="#DejaVuSans-6c"/>
      <use x="27.783203125" xlink:href="#DejaVuSans-6f"/>
      <use x="88.96484375" xlink:href="#DejaVuSans-63"/>
      <use x="143.9453125" xlink:href="#DejaVuSans-61"/>
      <use x="205.224609375" xlink:href="#DejaVuSans-6c"/>
      <use x="233.0078125" xlink:href="#DejaVuSans-69"/>
      <use x="260.791015625" xlink:href="#DejaVuSans-74"/>
      <use x="300.0" xlink:href="#DejaVuSans-79"/>
      <use x="359.1796875" xlink:href="#DejaVuSans-23"/>
      <use x="442.96875" xlink:href="#DejaVuSans-35"/>
     </g>
    </g>
    <g id="line2d_67">
     <path d="
M481.255 289.989
L501.415 289.989" style="fill:none;stroke:#bfbf00;stroke-linecap:square;"/>
    </g>
    <g id="line2d_68"/>
    <g id="text_29">
     <!-- locality#6 -->
     <g transform="translate(517.255 295.0295)scale(0.144 -0.144)">
      <use xlink:href="#DejaVuSans-6c"/>
      <use x="27.783203125" xlink:href="#DejaVuSans-6f"/>
      <use x="88.96484375" xlink:href="#DejaVuSans-63"/>
      <use x="143.9453125" xlink:href="#DejaVuSans-61"/>
      <use x="205.224609375" xlink:href="#DejaVuSans-6c"/>
      <use x="233.0078125" xlink:href="#DejaVuSans-69"/>
      <use x="260.791015625" xlink:href="#DejaVuSans-74"/>
      <use x="300.0" xlink:href="#DejaVuSans-79"/>
      <use x="359.1796875" xlink:href="#DejaVuSans-23"/>
      <use x="442.96875" xlink:href="#DejaVuSans-36"/>
     </g>
    </g>
    <g id="line2d_69">
     <path d="
M481.255 311.126
L501.415 311.126" style="fill:none;stroke:#000000;stroke-linecap:square;"/>
    </g>
    <g id="line2d_70"/>
    <g id="text_30">
     <!-- locality#7 -->
     <g transform="translate(517.255 316.166)scale(0.144 -0.144)">
      <use xlink:href="#DejaVuSans-6c"/>
      <use x="27.783203125" xlink:href="#DejaVuSans-6f"/>
      <use x="88.96484375" xlink:href="#DejaVuSans-63"/>
      <use x="143.9453125" xlink:href="#DejaVuSans-61"/>
      <use x="205.224609375" xlink:href="#DejaVuSans-6c"/>
      <use x="233.0078125" xlink:href="#DejaVuSans-69"/>
      <use x="260.791015625" xlink:href="#DejaVuSans-74"/>
      <use x="300.0" xlink:href="#DejaVuSans-79"/>
      <use x="359.1796875" xlink:href="#DejaVuSans-23"/>
      <use x="442.96875" xlink:href="#DejaVuSans-37"/>
     </g>
    </g>
    <g id="line2d_71">
     <path d="
M481.255 332.262
L501.415 332.262" style="fill:none;stroke:#0000ff;stroke-linecap:square;"/>
    </g>
    <g id="line2d_72"/>
    <g id="text_31">
     <!-- locality#8 -->
     <defs>
      <path d="
M31.7812 34.625
Q24.75 34.625 20.7188 30.8594
Q16.7031 27.0938 16.7031 20.5156
Q16.7031 13.9219 20.7188 10.1562
Q24.75 6.39062 31.7812 6.39062
Q38.8125 6.39062 42.8594 10.1719
Q46.9219 13.9688 46.9219 20.5156
Q46.9219 27.0938 42.8906 30.8594
Q38.875 34.625 31.7812 34.625
M21.9219 38.8125
Q15.5781 40.375 12.0312 44.7188
Q8.5 49.0781 8.5 55.3281
Q8.5 64.0625 14.7188 69.1406
Q20.9531 74.2188 31.7812 74.2188
Q42.6719 74.2188 48.875 69.1406
Q55.0781 64.0625 55.0781 55.3281
Q55.0781 49.0781 51.5312 44.7188
Q48 40.375 41.7031 38.8125
Q48.8281 37.1562 52.7969 32.3125
Q56.7812 27.4844 56.7812 20.5156
Q56.7812 9.90625 50.3125 4.23438
Q43.8438 -1.42188 31.7812 -1.42188
Q19.7344 -1.42188 13.25 4.23438
Q6.78125 9.90625 6.78125 20.5156
Q6.78125 27.4844 10.7812 32.3125
Q14.7969 37.1562 21.9219 38.8125
M18.3125 54.3906
Q18.3125 48.7344 21.8438 45.5625
Q25.3906 42.3906 31.7812 42.3906
Q38.1406 42.3906 41.7188 45.5625
Q45.3125 48.7344 45.3125 54.3906
Q45.3125 60.0625 41.7188 63.2344
Q38.1406 66.4062 31.7812 66.4062
Q25.3906 66.4062 21.8438 63.2344
Q18.3125 60.0625 18.3125 54.3906" id="DejaVuSans-38"/>
     </defs>
     <g transform="translate(517.255 337.3025)scale(0.144 -0.144)">
      <use xlink:href="#DejaVuSans-6c"/>
      <use x="27.783203125" xlink:href="#DejaVuSans-6f"/>
      <use x="88.96484375" xlink:href="#DejaVuSans-63"/>
      <use x="143.9453125" xlink:href="#DejaVuSans-61"/>
      <use x="205.224609375" xlink:href="#DejaVuSans-6c"/>
      <use x="233.0078125" xlink:href="#DejaVuSans-69"/>
      <use x="260.791015625" xlink:href="#DejaVuSans-74"/>
      <use x="300.0" xlink:href="#DejaVuSans-79"/>
      <use x="359.1796875" xlink:href="#DejaVuSans-23"/>
      <use x="442.96875" xlink:href="#DejaVuSans-38"/>
     </g>
    </g>
    <g id="line2d_73">
     <path d="
M481.255 353.399
L501.415 353.399" style="fill:none;stroke:#008000;stroke-linecap:square;"/>
    </g>
    <g id="line2d_74"/>
    <g id="text_32">
     <!-- locality#9 -->
     <defs>
      <path d="
M10.9844 1.51562
L10.9844 10.5
Q14.7031 8.73438 18.5 7.8125
Q22.3125 6.89062 25.9844 6.89062
Q35.75 6.89062 40.8906 13.4531
Q46.0469 20.0156 46.7812 33.4062
Q43.9531 29.2031 39.5938 26.9531
Q35.25 24.7031 29.9844 24.7031
Q19.0469 24.7031 12.6719 31.3125
Q6.29688 37.9375 6.29688 49.4219
Q6.29688 60.6406 12.9375 67.4219
Q19.5781 74.2188 30.6094 74.2188
Q43.2656 74.2188 49.9219 64.5156
Q56.5938 54.8281 56.5938 36.375
Q56.5938 19.1406 48.4062 8.85938
Q40.2344 -1.42188 26.4219 -1.42188
Q22.7031 -1.42188 18.8906 -0.6875
Q15.0938 0.046875 10.9844 1.51562
M30.6094 32.4219
Q37.25 32.4219 41.125 36.9531
Q45.0156 41.5 45.0156 49.4219
Q45.0156 57.2812 41.125 61.8438
Q37.25 66.4062 30.6094 66.4062
Q23.9688 66.4062 20.0938 61.8438
Q16.2188 57.2812 16.2188 49.4219
Q16.2188 41.5 20.0938 36.9531
Q23.9688 32.4219 30.6094 32.4219" id="DejaVuSans-39"/>
     </defs>
     <g transform="translate(517.255 358.439)scale(0.144 -0.144)">
      <use xlink:href="#DejaVuSans-6c"/>
      <use x="27.783203125" xlink:href="#DejaVuSans-6f"/>
      <use x="88.96484375" xlink:href="#DejaVuSans-63"/>
      <use x="143.9453125" xlink:href="#DejaVuSans-61"/>
      <use x="205.224609375" xlink:href="#DejaVuSans-6c"/>
      <use x="233.0078125" xlink:href="#DejaVuSans-69"/>
      <use x="260.791015625" xlink:href="#DejaVuSans-74"/>
      <use x="300.0" xlink:href="#DejaVuSans-79"/>
      <use x="359.1796875" xlink:href="#DejaVuSans-23"/>
      <use x="442.96875" xlink:href="#DejaVuSans-39"/>
     </g>
    </g>
   </g>
  </g>
 </g>
 <defs>
  <clipPath id="pf51f381abf">
   <rect height="345.6" width="446.4" x="17.575" y="23.14175"/>
  </clipPath>
 </defs>
</svg>
