<?xml version="1.0" encoding="utf-8" standalone="no"?>
<!DOCTYPE svg PUBLIC "-//W3C//DTD SVG 1.1//EN"
  "http://www.w3.org/Graphics/SVG/1.1/DTD/svg11.dtd">
<!-- Created with matplotlib (http://matplotlib.org/) -->
<svg height="408pt" version="1.1" viewBox="0 0 610 408" width="610pt" xmlns="http://www.w3.org/2000/svg" xmlns:xlink="http://www.w3.org/1999/xlink">
 <defs>
  <style type="text/css">
*{stroke-linecap:butt;stroke-linejoin:round;}
  </style>
 </defs>
 <g id="figure_1">
  <g id="patch_1">
   <path d="
M0 408.169
L610.164 408.169
L610.164 0
L0 0
z
" style="fill:#ffffff;"/>
  </g>
  <g id="axes_1">
   <g id="patch_2">
    <path d="
M17.575 368.742
L463.975 368.742
L463.975 23.1417
L17.575 23.1417
z
" style="fill:#ffffff;"/>
   </g>
   <g id="line2d_1">
    <path clip-path="url(#pf51f381abf)" d="
M17.575 368.443
L21.1534 366.626
L98.088 327.369
L99.8772 326.354
L118.664 316.818
L125.82 313.123
L127.609 312.12
L153.553 298.856
L155.342 297.855
L162.498 294.177
L166.077 292.289
L168.761 290.898
L181.285 284.573
L183.074 283.573
L209.017 270.377
L211.701 268.971
L224.225 262.602
L267.165 240.236
L269.849 238.844
L276.111 235.57
L382.567 179.709
L387.04 177.273
L390.619 175.4
L393.302 173.981
L401.354 169.869
L407.616 166.419
L411.194 164.567
L413.878 163.096
L416.562 161.625
L421.929 158.699
L425.508 156.784
L429.981 154.367
L431.77 153.355
L437.137 150.417
L439.821 148.997
L445.189 146.054
L448.767 144.12
L463.975 135.603
L463.975 135.603" style="fill:none;stroke:#0000ff;stroke-linecap:square;"/>
   </g>
   <g id="line2d_2">
    <path clip-path="url(#pf51f381abf)" d="
M17.575 368.729
L47.0964 356.276
L51.5694 354.383
L92.7205 336.794
L95.4043 335.613
L114.191 327.533
L125.82 322.545
L127.609 321.72
L142.817 315.184
L145.501 314
L160.709 307.478
L181.285 298.689
L183.969 297.497
L200.966 290.255
L203.65 289.072
L216.174 283.759
L225.12 279.905
L227.803 278.723
L234.96 275.624
L239.433 273.63
L277.006 257.233
L281.479 255.192
L294.003 249.805
L296.687 248.615
L302.949 245.918
L306.527 244.298
L311.895 241.92
L315.473 240.3
L324.419 236.409
L327.103 235.217
L334.26 232.092
L347.678 226.18
L351.257 224.552
L357.519 221.849
L360.203 220.665
L371.832 215.521
L375.411 213.906
L382.567 210.775
L387.04 208.731
L394.197 205.604
L403.143 201.713
L407.616 199.665
L412.983 197.292
L420.14 193.957
L425.508 191.532
L429.981 189.491
L432.664 188.251
L437.137 186.199
L440.716 184.578
L445.189 182.523
L448.767 180.907
L456.818 177.071
L463.975 173.712
L463.975 173.712" style="fill:none;stroke:#008000;stroke-linecap:square;"/>
   </g>
   <g id="line2d_3">
    <path clip-path="url(#pf51f381abf)" d="
M17.575 368.728
L72.1449 328.725
L73.9341 327.34
L118.664 294.145
L123.137 290.778
L135.661 281.516
L138.345 279.381
L149.08 271.408
L156.236 266.067
L165.182 259.315
L167.866 257.255
L181.285 247.435
L183.074 246.048
L223.331 216.345
L229.593 211.644
L234.96 207.638
L238.539 204.843
L248.379 197.621
L250.168 196.238
L254.641 192.9
L260.009 188.811
L263.587 186.092
L266.271 184.035
L268.955 181.991
L274.322 177.964
L276.111 176.577
L278.795 174.54
L281.479 172.413
L285.952 169.11
L292.214 164.475
L294.898 162.344
L302.949 156.393
L305.633 154.231
L309.211 151.545
L311 150.151
L313.684 148.106
L315.473 146.721
L320.841 142.725
L322.63 141.32
L331.576 134.681
L334.26 132.557
L347.678 122.388
L349.468 121.002
L353.046 118.293
L354.835 116.893
L363.781 110.31
L365.57 108.913
L369.149 106.205
L372.727 103.32
L378.094 99.2878
L379.884 97.9006
L382.567 95.8629
L386.146 92.9903
L390.619 89.6442
L392.408 88.2327
L397.775 84.2397
L401.354 81.6124
L403.143 80.1962
L405.827 78.0638
L410.3 74.7149
L417.456 68.9234
L419.246 67.5355
L421.929 65.4024
L424.613 63.3682
L428.191 60.4845
L430.875 58.4379
L436.243 54.064
L440.716 50.5983
L443.399 48.4569
L446.083 46.4055
L447.872 44.9913
L460.397 34.7318
L462.186 33.3397
L463.975 31.8605
L463.975 31.8605" style="fill:none;stroke:#ff0000;stroke-linecap:square;"/>
   </g>
   <g id="line2d_4">
    <path clip-path="url(#pf51f381abf)" d="
M17.575 368.73
L24.7317 363.593
L35.4668 355.934
L48.8856 346.371
L58.7261 339.349
L70.3558 331.047
L76.6179 326.518
L83.7746 321.288
L87.353 318.674
L91.8259 315.458
L96.2988 312.187
L137.45 282.422
L139.239 281.061
L146.396 275.911
L166.077 261.544
L172.339 257.08
L181.285 250.71
L183.074 249.354
L188.442 245.459
L192.02 242.879
L200.966 236.504
L202.755 235.147
L221.541 221.805
L223.331 220.448
L230.487 215.289
L232.276 213.905
L237.644 209.995
L239.433 208.636
L248.379 202.249
L250.168 200.885
L254.641 197.628
L262.692 191.613
L266.271 188.98
L269.849 186.34
L274.322 183.073
L276.111 181.704
L278.795 179.719
L281.479 177.649
L292.214 169.893
L294.898 167.818
L302.949 161.97
L305.633 159.882
L309.211 157.262
L311 155.896
L313.684 153.888
L315.473 152.519
L320.841 148.615
L322.63 147.254
L328.892 142.703
L347.678 128.8
L349.468 127.447
L353.046 124.837
L354.835 123.465
L361.992 118.303
L366.465 115.015
L368.254 113.661
L370.043 112.311
L371.832 110.933
L373.621 109.581
L378.094 106.323
L379.884 104.946
L382.567 102.946
L386.146 100.138
L390.619 96.8921
L392.408 95.5291
L396.881 92.3399
L398.67 90.9713
L403.143 87.7012
L407.616 84.2521
L411.194 81.6048
L413.878 79.5181
L415.667 78.164
L420.14 74.6368
L423.718 72.0061
L428.191 68.4706
L430.875 66.4745
L434.454 63.5306
L438.927 60.273
L443.399 56.7396
L446.083 54.7324
L457.713 45.4502
L459.502 44.1003
L462.186 42.0143
L463.975 40.5731
L463.975 40.5731" style="fill:none;stroke:#00bfbf;stroke-linecap:square;"/>
   </g>
   <g id="line2d_5">
    <path clip-path="url(#pf51f381abf)" d="
M17.575 368.73
L72.1449 332
L73.9341 330.69
L81.9854 325.162
L98.088 314.205
L99.8772 312.908
L107.034 308.024
L121.347 298.374
L124.031 296.473
L129.399 292.783
L133.872 289.73
L137.45 287.23
L140.134 285.324
L144.607 282.22
L151.763 277.425
L158.92 272.544
L161.604 270.657
L165.182 268.176
L166.971 266.887
L181.285 257.253
L183.074 255.976
L211.701 236.483
L221.541 229.907
L223.331 228.623
L230.487 223.731
L232.276 222.444
L237.644 218.752
L239.433 217.459
L248.379 211.429
L250.168 210.153
L267.165 198.199
L269.849 196.347
L274.322 193.243
L276.111 191.962
L278.795 190.087
L281.479 188.13
L292.214 180.847
L294.898 178.884
L302.949 173.387
L305.633 171.412
L311.895 167.018
L314.579 165.034
L346.784 142.693
L349.468 140.726
L353.046 138.249
L354.835 136.957
L363.781 130.874
L367.359 128.302
L371.832 125.097
L373.621 123.821
L382.567 117.533
L386.146 114.839
L390.619 111.756
L392.408 110.438
L396.881 107.429
L398.67 106.135
L403.143 103.06
L405.827 101.095
L410.3 98.0112
L413.878 95.359
L415.667 94.0672
L420.14 90.7307
L423.718 88.2355
L428.191 84.9046
L430.875 83.019
L434.454 80.2487
L438.927 77.1487
L445.189 72.5107
L448.767 69.8855
L460.397 61.1584
L462.186 59.8832
L463.975 58.5194
L463.975 58.5194" style="fill:none;stroke:#bf00bf;stroke-linecap:square;"/>
   </g>
   <g id="line2d_6">
    <path clip-path="url(#pf51f381abf)" d="
M17.575 368.729
L50.6748 348.144
L59.6207 342.557
L72.1449 334.748
L73.9341 333.572
L86.4584 325.688
L89.1421 323.947
L98.088 318.325
L99.8772 317.113
L105.245 313.77
L107.034 312.592
L121.347 303.704
L123.137 302.52
L135.661 294.658
L138.345 292.851
L145.501 288.307
L158.92 279.91
L160.709 278.732
L165.182 275.875
L167.866 274.142
L184.863 263.517
L186.652 262.327
L200.966 253.424
L202.755 252.21
L221.541 240.549
L223.331 239.339
L230.487 234.813
L232.276 233.621
L237.644 230.199
L239.433 229.009
L248.379 223.453
L250.168 222.252
L254.641 219.409
L259.114 216.461
L263.587 213.599
L266.271 211.855
L269.849 209.544
L274.322 206.701
L276.111 205.498
L278.795 203.761
L282.373 201.378
L292.214 195.204
L295.792 192.826
L302.949 188.307
L305.633 186.494
L309.211 184.192
L311 183.015
L313.684 181.264
L315.473 180.087
L320.841 176.68
L322.63 175.497
L330.681 170.389
L333.365 168.645
L336.049 166.916
L346.784 160
L351.257 156.994
L357.519 153.04
L359.308 151.845
L366.465 147.322
L370.938 144.306
L374.516 142.014
L376.305 140.798
L380.778 137.96
L386.146 134.307
L390.619 131.449
L392.408 130.251
L396.881 127.467
L398.67 126.287
L403.143 123.428
L405.827 121.611
L410.3 118.768
L413.878 116.317
L416.562 114.48
L420.14 112.043
L424.613 109.108
L429.981 105.473
L431.77 104.284
L437.137 100.639
L439.821 98.8869
L443.399 96.4532
L446.083 94.6968
L450.556 91.6224
L452.345 90.4225
L463.975 82.3589
L463.975 82.3589" style="fill:none;stroke:#bfbf00;stroke-linecap:square;"/>
   </g>
   <g id="line2d_7">
    <path clip-path="url(#pf51f381abf)" d="
M17.575 368.729
L47.0964 352.163
L49.7802 350.639
L86.4584 329.861
L89.1421 328.297
L100.772 321.633
L137.45 300.729
L140.134 299.15
L146.396 295.56
L158.92 288.435
L161.604 286.845
L166.077 284.213
L225.12 250.791
L226.909 249.702
L232.276 246.608
L264.482 228.013
L268.06 225.847
L274.322 222.253
L276.111 221.184
L278.795 219.617
L282.373 217.477
L292.214 211.88
L295.792 209.722
L302.949 205.639
L305.633 203.978
L309.211 201.886
L311 200.82
L313.684 199.248
L315.473 198.175
L320.841 195.103
L322.63 194.024
L331.576 188.927
L334.26 187.281
L347.678 179.444
L349.468 178.376
L353.046 176.304
L354.835 175.223
L363.781 170.143
L367.359 167.991
L370.043 166.403
L372.727 164.757
L378.094 161.671
L381.673 159.53
L384.357 157.952
L387.935 155.816
L396.881 150.658
L399.565 149.076
L403.143 146.992
L405.827 145.336
L410.3 142.751
L417.456 138.294
L419.246 137.227
L421.929 135.588
L424.613 134.014
L429.981 130.734
L432.664 129.083
L437.137 126.362
L440.716 124.208
L443.399 122.558
L446.083 120.969
L457.713 113.672
L461.291 111.524
L463.975 109.809
L463.975 109.809" style="fill:none;stroke:#000000;stroke-linecap:square;"/>
   </g>
   <g id="line2d_8">
    <path clip-path="url(#pf51f381abf)" d="
M17.575 368.729
L92.7205 330.898
L95.4043 329.489
L105.245 324.489
L107.929 323.085
L162.498 295.241
L166.077 293.326
L234.96 258.322
L239.433 255.943
L251.957 249.584
L255.536 247.685
L263.587 243.471
L266.271 242.05
L269.849 240.198
L278.795 235.502
L282.373 233.589
L303.844 222.431
L306.527 221.03
L309.211 219.608
L312.789 217.684
L319.052 214.472
L322.63 212.535
L331.576 207.955
L335.154 206.017
L341.416 202.791
L344.1 201.388
L346.784 199.967
L351.257 197.528
L357.519 194.319
L359.308 193.341
L366.465 189.662
L370.938 187.214
L374.516 185.355
L376.305 184.396
L380.778 182.072
L386.146 179.117
L406.721 168.348
L408.51 167.366
L411.194 165.962
L413.878 164.473
L415.667 163.517
L418.351 162.026
L422.824 159.584
L424.613 158.609
L429.981 155.653
L431.77 154.67
L437.137 151.71
L439.821 150.29
L445.189 147.331
L447.872 145.906
L460.397 138.828
L462.186 137.872
L463.975 136.832
L463.975 136.832" style="fill:none;stroke:#0000ff;stroke-linecap:square;"/>
   </g>
   <g id="line2d_9">
    <path clip-path="url(#pf51f381abf)" d="
M17.575 368.729
L30.9938 363.155
L63.199 349.802
L78.4071 343.454
L81.0908 342.292
L92.7205 337.407
L95.4043 336.248
L112.401 329.096
L125.82 323.47
L128.504 322.297
L138.345 318.121
L153.553 311.752
L156.236 310.591
L165.182 306.774
L167.866 305.614
L237.644 276.326
L240.328 275.164
L246.59 272.565
L254.641 269.134
L262.692 265.637
L267.165 263.697
L347.678 229.024
L351.257 227.44
L361.992 222.901
L371.832 218.603
L373.621 217.8
L378.094 215.893
L381.673 214.311
L385.251 212.723
L387.935 211.562
L396.881 207.743
L399.565 206.574
L404.038 204.62
L407.616 203.036
L412.983 200.703
L420.14 197.442
L424.613 195.481
L429.981 193.045
L431.77 192.25
L436.243 190.183
L442.505 187.425
L446.978 185.419
L449.662 184.204
L463.975 177.581
L463.975 177.581" style="fill:none;stroke:#008000;stroke-linecap:square;"/>
   </g>
   <g id="line2d_10">
    <path clip-path="url(#pf51f381abf)" d="
M17.575 368.73
L28.3101 364.075
L70.3558 345.811
L81.0908 341.006
L98.088 333.536
L100.772 332.312
L121.347 323.323
L124.031 322.095
L135.661 316.979
L139.239 315.31
L153.553 309.035
L156.236 307.823
L181.285 296.795
L183.969 295.578
L194.704 290.858
L204.544 286.514
L230.487 275.152
L233.171 273.932
L248.379 267.213
L251.063 266.001
L255.536 263.963
L285.952 250.25
L294.003 246.643
L296.687 245.43
L302.949 242.665
L305.633 241.384
L309.211 239.776
L312.789 238.108
L319.052 235.333
L322.63 233.657
L331.576 229.703
L335.154 228.047
L350.362 221.177
L353.941 219.519
L369.149 212.748
L373.621 210.656
L378.094 208.656
L381.673 206.998
L385.251 205.343
L387.935 204.128
L390.619 202.913
L392.408 202.061
L401.354 198.125
L405.827 196.025
L411.194 193.597
L417.456 190.612
L420.14 189.341
L424.613 187.289
L429.981 184.747
L431.77 183.916
L436.243 181.756
L445.189 177.585
L449.662 175.468
L456.818 171.979
L463.975 168.55
L463.975 168.55" style="fill:none;stroke:#ff0000;stroke-linecap:square;"/>
   </g>
   <g id="line2d_11">
    <path clip-path="url(#pf51f381abf)" d="
M17.575 368.729
L92.7205 333.003
L95.4043 331.681
L121.347 319.274
L124.031 317.952
L137.45 311.481
L139.239 310.577
L149.08 305.871
L161.604 299.823
L214.385 274.558
L225.12 269.422
L227.803 268.102
L234.96 264.648
L239.433 262.425
L251.957 256.438
L254.641 255.117
L262.692 251.138
L267.165 248.912
L309.211 228.349
L311 227.434
L317.262 224.37
L346.784 209.939
L349.468 208.545
L353.046 206.783
L355.73 205.466
L363.781 201.595
L367.359 199.797
L374.516 196.24
L377.2 194.91
L380.778 193.141
L386.146 190.38
L390.619 188.21
L393.302 186.876
L401.354 183.011
L405.827 180.716
L410.3 178.535
L417.456 174.806
L420.14 173.429
L427.297 169.794
L434.454 166.058
L438.927 163.884
L445.189 160.633
L447.872 159.314
L452.345 156.957
L463.975 150.79
L463.975 150.79" style="fill:none;stroke:#00bfbf;stroke-linecap:square;"/>
   </g>
   <g id="line2d_12">
    <path clip-path="url(#pf51f381abf)" d="
M17.575 368.729
L73.9341 339.044
L81.9854 334.735
L92.7205 329.051
L94.5097 328.042
L103.456 323.287
L165.182 290.257
L167.866 288.778
L184.863 279.813
L187.547 278.339
L204.544 269.351
L209.912 266.519
L230.487 255.594
L232.276 254.593
L237.644 251.711
L239.433 250.691
L251.957 244.078
L254.641 242.61
L260.009 239.666
L288.636 224.072
L294.003 221.177
L296.687 219.715
L303.844 215.851
L305.633 214.842
L309.211 212.882
L312.789 210.883
L319.052 207.554
L321.735 206.006
L334.26 199.243
L347.678 191.945
L349.468 190.938
L353.046 188.985
L355.73 187.524
L363.781 183.249
L365.57 182.255
L370.043 179.794
L372.727 178.26
L378.094 175.359
L381.673 173.356
L384.357 171.891
L387.04 170.345
L390.619 168.397
L393.302 166.927
L401.354 162.626
L405.827 160.095
L414.773 155.139
L421.929 150.982
L424.613 149.513
L429.981 146.439
L431.77 145.423
L436.243 142.823
L439.821 140.884
L443.399 138.809
L446.083 137.343
L457.713 130.518
L461.291 128.501
L463.975 126.887
L463.975 126.887" style="fill:none;stroke:#bf00bf;stroke-linecap:square;"/>
   </g>
   <g id="line2d_13">
    <path clip-path="url(#pf51f381abf)" d="
M17.575 368.73
L47.991 350.988
L50.6748 349.378
L56.9369 345.715
L72.1449 336.787
L74.8287 335.151
L86.4584 328.301
L89.1421 326.657
L97.1934 321.886
L112.401 312.846
L121.347 307.616
L123.137 306.512
L137.45 298.018
L139.239 296.88
L147.29 292.121
L156.236 286.828
L161.604 283.604
L165.182 281.457
L167.866 279.801
L181.285 271.963
L183.969 270.305
L206.333 257.109
L211.701 253.97
L223.331 247.123
L233.171 241.231
L243.906 234.779
L251.063 230.546
L255.536 227.801
L290.425 206.684
L294.003 204.516
L295.792 203.403
L302.949 199.167
L306.527 196.934
L309.211 195.305
L312.789 193.07
L319.052 189.355
L321.735 187.629
L331.576 181.813
L335.154 179.578
L341.416 175.845
L344.1 174.221
L346.784 172.594
L349.468 170.88
L353.046 168.715
L354.835 167.602
L362.886 162.834
L369.149 159.052
L372.727 156.748
L378.989 152.944
L385.251 149.071
L387.04 147.939
L390.619 145.777
L392.408 144.661
L401.354 139.374
L404.932 137.078
L414.773 131.037
L418.351 128.718
L421.929 126.422
L424.613 124.769
L429.981 121.348
L431.77 120.231
L436.243 117.318
L439.821 115.17
L443.399 112.851
L446.083 111.212
L450.556 108.333
L452.345 107.201
L463.975 99.6182
L463.975 99.6182" style="fill:none;stroke:#bfbf00;stroke-linecap:square;"/>
   </g>
   <g id="line2d_14">
    <path clip-path="url(#pf51f381abf)" d="
M17.575 368.729
L79.3017 328.878
L137.45 290.911
L139.239 289.671
L143.712 286.719
L147.29 284.396
L156.236 278.571
L162.498 274.445
L164.288 273.226
L181.285 262.23
L183.074 261.006
L200.966 249.459
L202.755 248.226
L221.541 236.145
L223.331 234.905
L230.487 230.227
L232.276 229.003
L236.749 226.056
L244.801 220.763
L251.957 216.09
L253.747 214.868
L257.325 212.488
L259.114 211.244
L264.482 207.731
L267.165 205.865
L280.584 196.918
L282.373 195.679
L286.846 192.809
L288.636 191.558
L294.003 188.026
L295.792 186.796
L302.949 182.129
L306.527 179.663
L309.211 177.869
L311 176.641
L313.684 174.828
L316.368 173.021
L320.841 170.058
L322.63 168.833
L330.681 163.597
L338.733 158.238
L342.311 155.806
L347.678 152.203
L349.468 150.974
L353.046 148.59
L354.835 147.37
L363.781 141.571
L365.57 140.358
L370.043 137.329
L372.727 135.457
L378.094 131.923
L381.673 129.458
L384.357 127.633
L387.04 125.759
L390.619 123.386
L392.408 122.147
L397.775 118.621
L406.721 112.64
L408.51 111.418
L411.194 109.603
L413.878 107.713
L415.667 106.476
L421.929 102.067
L424.613 100.26
L429.981 96.467
L431.77 95.2484
L436.243 92.0565
L439.821 89.687
L443.399 87.1116
L446.083 85.3242
L450.556 82.144
L452.345 80.9067
L463.975 72.5377
L463.975 72.5377" style="fill:none;stroke:#000000;stroke-linecap:square;"/>
   </g>
   <g id="line2d_15">
    <path clip-path="url(#pf51f381abf)" d="
M17.575 368.73
L24.7317 363.723
L34.5722 356.874
L43.5181 350.676
L56.9369 341.419
L61.4099 338.266
L70.3558 332.056
L115.085 300.541
L125.82 293.035
L127.609 291.689
L135.661 286.096
L139.239 283.443
L143.712 280.257
L157.131 270.936
L171.444 260.712
L181.285 253.933
L183.074 252.612
L198.282 242.027
L207.228 235.691
L221.541 225.817
L223.331 224.505
L230.487 219.448
L232.276 218.135
L237.644 214.344
L239.433 213.016
L251.957 204.25
L253.747 202.936
L257.325 200.385
L260.009 198.43
L264.482 195.261
L266.271 193.919
L269.849 191.351
L274.322 188.186
L276.111 186.865
L278.795 184.927
L281.479 182.909
L292.214 175.432
L294.898 173.416
L298.476 170.909
L302.949 167.741
L305.633 165.708
L311.895 161.192
L314.579 159.176
L320.841 154.77
L322.63 153.451
L327.103 150.296
L330.681 147.798
L333.365 145.84
L336.049 143.906
L341.416 140.12
L344.1 138.192
L346.784 136.254
L349.468 134.226
L353.046 131.677
L354.835 130.367
L363.781 124.137
L367.359 121.492
L370.043 119.558
L372.727 117.514
L378.094 113.719
L379.884 112.389
L382.567 110.457
L386.146 107.729
L390.619 104.566
L392.408 103.246
L397.775 99.4509
L416.562 85.6705
L420.14 82.9513
L423.718 80.4063
L428.191 76.9766
L430.875 75.0163
L437.137 70.2173
L440.716 67.5486
L443.399 65.5248
L446.083 63.5797
L450.556 60.1548
L452.345 58.8402
L460.397 52.5537
L462.186 51.2349
L463.975 49.8414
L463.975 49.8414" style="fill:none;stroke:#0000ff;stroke-linecap:square;"/>
   </g>
   <g id="line2d_16">
    <path clip-path="url(#pf51f381abf)" d="
M17.575 368.73
L72.1449 329.241
L73.9341 327.873
L98.088 310.157
L99.8772 308.753
L106.139 304.169
L110.612 300.896
L124.926 290.485
L131.188 285.832
L135.661 282.63
L137.45 281.224
L139.239 279.829
L143.712 276.528
L148.185 273.262
L154.447 268.673
L161.604 263.385
L165.182 260.728
L166.971 259.329
L184.863 246.319
L186.652 244.951
L198.282 236.548
L205.439 231.277
L234.96 209.684
L236.749 208.288
L248.379 199.787
L250.168 198.413
L252.852 196.379
L280.584 175.517
L282.373 174.143
L292.214 166.94
L294.898 164.834
L302.949 158.92
L305.633 156.807
L309.211 154.152
L311 152.783
L319.052 146.782
L321.735 144.637
L331.576 137.454
L334.26 135.364
L336.943 133.389
L341.416 130.097
L343.205 128.726
L346.784 126.049
L349.468 123.944
L353.046 121.298
L354.835 119.93
L363.781 113.393
L365.57 112.023
L370.043 108.611
L372.727 106.503
L376.305 103.821
L382.567 99.0929
L386.146 96.259
L390.619 92.9668
L392.408 91.5636
L396.881 88.3316
L398.67 86.9526
L403.143 83.6487
L405.827 81.5399
L410.3 78.238
L412.983 76.0808
L417.456 72.5128
L419.246 71.1408
L422.824 68.3601
L424.613 66.9887
L428.191 64.1382
L430.875 62.104
L436.243 57.7792
L439.821 55.0918
L443.399 52.233
L446.083 50.2161
L457.713 40.7777
L459.502 39.4078
L463.08 36.5579
L463.975 35.8287
L463.975 35.8287" style="fill:none;stroke:#008000;stroke-linecap:square;"/>
   </g>
   <g id="patch_3">
    <path d="
M17.575 23.1417
L463.975 23.1417" style="fill:none;stroke:#000000;stroke-linecap:square;stroke-linejoin:miter;"/>
   </g>
   <g id="patch_4">
    <path d="
M463.975 368.742
L463.975 23.1417" style="fill:none;stroke:#000000;stroke-linecap:square;stroke-linejoin:miter;"/>
   </g>
   <g id="patch_5">
    <path d="
M17.575 368.742
L463.975 368.742" style="fill:none;stroke:#000000;stroke-linecap:square;stroke-linejoin:miter;"/>
   </g>
   <g id="patch_6">
    <path d="
M17.575 368.742
L17.575 23.1417" style="fill:none;stroke:#000000;stroke-linecap:square;stroke-linejoin:miter;"/>
   </g>
   <g id="matplotlib.axis_1">
    <g id="xtick_1">
     <g id="line2d_17">
      <defs>
       <path d="
M0 0
L0 -4" id="m93b0483c22" style="stroke:#000000;stroke-width:0.5;"/>
      </defs>
      <g>
       <use style="stroke:#000000;stroke-width:0.5;" x="17.575" xlink:href="#m93b0483c22" y="368.74175"/>
      </g>
     </g>
     <g id="line2d_18">
      <defs>
       <path d="
M0 0
L0 4" id="m741efc42ff" style="stroke:#000000;stroke-width:0.5;"/>
      </defs>
      <g>
       <use style="stroke:#000000;stroke-width:0.5;" x="17.575" xlink:href="#m741efc42ff" y="23.14175"/>
      </g>
     </g>
     <g id="text_1">
      <!-- 0 -->
      <defs>
       <path d="
M31.7812 66.4062
Q24.1719 66.4062 20.3281 58.9062
Q16.5 51.4219 16.5 36.375
Q16.5 21.3906 20.3281 13.8906
Q24.1719 6.39062 31.7812 6.39062
Q39.4531 6.39062 43.2812 13.8906
Q47.125 21.3906 47.125 36.375
Q47.125 51.4219 43.2812 58.9062
Q39.4531 66.4062 31.7812 66.4062
M31.7812 74.2188
Q44.0469 74.2188 50.5156 64.5156
Q56.9844 54.8281 56.9844 36.375
Q56.9844 17.9688 50.5156 8.26562
Q44.0469 -1.42188 31.7812 -1.42188
Q19.5312 -1.42188 13.0625 8.26562
Q6.59375 17.9688 6.59375 36.375
Q6.59375 54.8281 13.0625 64.5156
Q19.5312 74.2188 31.7812 74.2188" id="DejaVuSans-30"/>
      </defs>
      <g transform="translate(14.5515625 381.859875)scale(0.12 -0.12)">
       <use xlink:href="#DejaVuSans-30"/>
      </g>
     </g>
    </g>
    <g id="xtick_2">
     <g id="line2d_19">
      <g>
       <use style="stroke:#000000;stroke-width:0.5;" x="107.033917836" xlink:href="#m93b0483c22" y="368.74175"/>
      </g>
     </g>
     <g id="line2d_20">
      <g>
       <use style="stroke:#000000;stroke-width:0.5;" x="107.033917836" xlink:href="#m741efc42ff" y="23.14175"/>
      </g>
     </g>
     <g id="text_2">
      <!-- 100 -->
      <defs>
       <path d="
M12.4062 8.29688
L28.5156 8.29688
L28.5156 63.9219
L10.9844 60.4062
L10.9844 69.3906
L28.4219 72.9062
L38.2812 72.9062
L38.2812 8.29688
L54.3906 8.29688
L54.3906 0
L12.4062 0
z
" id="DejaVuSans-31"/>
      </defs>
      <g transform="translate(96.6389178357 381.859875)scale(0.12 -0.12)">
       <use xlink:href="#DejaVuSans-31"/>
       <use x="63.623046875" xlink:href="#DejaVuSans-30"/>
       <use x="127.24609375" xlink:href="#DejaVuSans-30"/>
      </g>
     </g>
    </g>
    <g id="xtick_3">
     <g id="line2d_21">
      <g>
       <use style="stroke:#000000;stroke-width:0.5;" x="196.492835671" xlink:href="#m93b0483c22" y="368.74175"/>
      </g>
     </g>
     <g id="line2d_22">
      <g>
       <use style="stroke:#000000;stroke-width:0.5;" x="196.492835671" xlink:href="#m741efc42ff" y="23.14175"/>
      </g>
     </g>
     <g id="text_3">
      <!-- 200 -->
      <defs>
       <path d="
M19.1875 8.29688
L53.6094 8.29688
L53.6094 0
L7.32812 0
L7.32812 8.29688
Q12.9375 14.1094 22.625 23.8906
Q32.3281 33.6875 34.8125 36.5312
Q39.5469 41.8438 41.4219 45.5312
Q43.3125 49.2188 43.3125 52.7812
Q43.3125 58.5938 39.2344 62.25
Q35.1562 65.9219 28.6094 65.9219
Q23.9688 65.9219 18.8125 64.3125
Q13.6719 62.7031 7.8125 59.4219
L7.8125 69.3906
Q13.7656 71.7812 18.9375 73
Q24.125 74.2188 28.4219 74.2188
Q39.75 74.2188 46.4844 68.5469
Q53.2188 62.8906 53.2188 53.4219
Q53.2188 48.9219 51.5312 44.8906
Q49.8594 40.875 45.4062 35.4062
Q44.1875 33.9844 37.6406 27.2188
Q31.1094 20.4531 19.1875 8.29688" id="DejaVuSans-32"/>
      </defs>
      <g transform="translate(185.878460671 381.859875)scale(0.12 -0.12)">
       <use xlink:href="#DejaVuSans-32"/>
       <use x="63.623046875" xlink:href="#DejaVuSans-30"/>
       <use x="127.24609375" xlink:href="#DejaVuSans-30"/>
      </g>
     </g>
    </g>
    <g id="xtick_4">
     <g id="line2d_23">
      <g>
       <use style="stroke:#000000;stroke-width:0.5;" x="285.951753507" xlink:href="#m93b0483c22" y="368.74175"/>
      </g>
     </g>
     <g id="line2d_24">
      <g>
       <use style="stroke:#000000;stroke-width:0.5;" x="285.951753507" xlink:href="#m741efc42ff" y="23.14175"/>
      </g>
     </g>
     <g id="text_4">
      <!-- 300 -->
      <defs>
       <path d="
M40.5781 39.3125
Q47.6562 37.7969 51.625 33
Q55.6094 28.2188 55.6094 21.1875
Q55.6094 10.4062 48.1875 4.48438
Q40.7656 -1.42188 27.0938 -1.42188
Q22.5156 -1.42188 17.6562 -0.515625
Q12.7969 0.390625 7.625 2.20312
L7.625 11.7188
Q11.7188 9.32812 16.5938 8.10938
Q21.4844 6.89062 26.8125 6.89062
Q36.0781 6.89062 40.9375 10.5469
Q45.7969 14.2031 45.7969 21.1875
Q45.7969 27.6406 41.2812 31.2656
Q36.7656 34.9062 28.7188 34.9062
L20.2188 34.9062
L20.2188 43.0156
L29.1094 43.0156
Q36.375 43.0156 40.2344 45.9219
Q44.0938 48.8281 44.0938 54.2969
Q44.0938 59.9062 40.1094 62.9062
Q36.1406 65.9219 28.7188 65.9219
Q24.6562 65.9219 20.0156 65.0312
Q15.375 64.1562 9.8125 62.3125
L9.8125 71.0938
Q15.4375 72.6562 20.3438 73.4375
Q25.25 74.2188 29.5938 74.2188
Q40.8281 74.2188 47.3594 69.1094
Q53.9062 64.0156 53.9062 55.3281
Q53.9062 49.2656 50.4375 45.0938
Q46.9688 40.9219 40.5781 39.3125" id="DejaVuSans-33"/>
      </defs>
      <g transform="translate(275.355191007 381.859875)scale(0.12 -0.12)">
       <use xlink:href="#DejaVuSans-33"/>
       <use x="63.623046875" xlink:href="#DejaVuSans-30"/>
       <use x="127.24609375" xlink:href="#DejaVuSans-30"/>
      </g>
     </g>
    </g>
    <g id="xtick_5">
     <g id="line2d_25">
      <g>
       <use style="stroke:#000000;stroke-width:0.5;" x="375.410671343" xlink:href="#m93b0483c22" y="368.74175"/>
      </g>
     </g>
     <g id="line2d_26">
      <g>
       <use style="stroke:#000000;stroke-width:0.5;" x="375.410671343" xlink:href="#m741efc42ff" y="23.14175"/>
      </g>
     </g>
     <g id="text_5">
      <!-- 400 -->
      <defs>
       <path d="
M37.7969 64.3125
L12.8906 25.3906
L37.7969 25.3906
z

M35.2031 72.9062
L47.6094 72.9062
L47.6094 25.3906
L58.0156 25.3906
L58.0156 17.1875
L47.6094 17.1875
L47.6094 0
L37.7969 0
L37.7969 17.1875
L4.89062 17.1875
L4.89062 26.7031
z
" id="DejaVuSans-34"/>
      </defs>
      <g transform="translate(364.650046343 381.859875)scale(0.12 -0.12)">
       <use xlink:href="#DejaVuSans-34"/>
       <use x="63.623046875" xlink:href="#DejaVuSans-30"/>
       <use x="127.24609375" xlink:href="#DejaVuSans-30"/>
      </g>
     </g>
    </g>
    <g id="text_6">
     <!-- time -->
     <defs>
      <path d="
M18.3125 70.2188
L18.3125 54.6875
L36.8125 54.6875
L36.8125 47.7031
L18.3125 47.7031
L18.3125 18.0156
Q18.3125 11.3281 20.1406 9.42188
Q21.9688 7.51562 27.5938 7.51562
L36.8125 7.51562
L36.8125 0
L27.5938 0
Q17.1875 0 13.2344 3.875
Q9.28125 7.76562 9.28125 18.0156
L9.28125 47.7031
L2.6875 47.7031
L2.6875 54.6875
L9.28125 54.6875
L9.28125 70.2188
z
" id="DejaVuSans-74"/>
      <path d="
M52 44.1875
Q55.375 50.25 60.0625 53.125
Q64.75 56 71.0938 56
Q79.6406 56 84.2812 50.0156
Q88.9219 44.0469 88.9219 33.0156
L88.9219 0
L79.8906 0
L79.8906 32.7188
Q79.8906 40.5781 77.0938 44.375
Q74.3125 48.1875 68.6094 48.1875
Q61.625 48.1875 57.5625 43.5469
Q53.5156 38.9219 53.5156 30.9062
L53.5156 0
L44.4844 0
L44.4844 32.7188
Q44.4844 40.625 41.7031 44.4062
Q38.9219 48.1875 33.1094 48.1875
Q26.2188 48.1875 22.1562 43.5312
Q18.1094 38.875 18.1094 30.9062
L18.1094 0
L9.07812 0
L9.07812 54.6875
L18.1094 54.6875
L18.1094 46.1875
Q21.1875 51.2188 25.4844 53.6094
Q29.7812 56 35.6875 56
Q41.6562 56 45.8281 52.9688
Q50 49.9531 52 44.1875" id="DejaVuSans-6d"/>
      <path d="
M56.2031 29.5938
L56.2031 25.2031
L14.8906 25.2031
Q15.4844 15.9219 20.4844 11.0625
Q25.4844 6.20312 34.4219 6.20312
Q39.5938 6.20312 44.4531 7.46875
Q49.3125 8.73438 54.1094 11.2812
L54.1094 2.78125
Q49.2656 0.734375 44.1875 -0.34375
Q39.1094 -1.42188 33.8906 -1.42188
Q20.7969 -1.42188 13.1562 6.1875
Q5.51562 13.8125 5.51562 26.8125
Q5.51562 40.2344 12.7656 48.1094
Q20.0156 56 32.3281 56
Q43.3594 56 49.7812 48.8906
Q56.2031 41.7969 56.2031 29.5938
M47.2188 32.2344
Q47.125 39.5938 43.0938 43.9844
Q39.0625 48.3906 32.4219 48.3906
Q24.9062 48.3906 20.3906 44.1406
Q15.875 39.8906 15.1875 32.1719
z
" id="DejaVuSans-65"/>
      <path d="
M9.42188 54.6875
L18.4062 54.6875
L18.4062 0
L9.42188 0
z

M9.42188 75.9844
L18.4062 75.9844
L18.4062 64.5938
L9.42188 64.5938
z
" id="DejaVuSans-69"/>
     </defs>
     <g transform="translate(227.700625 398.473625)scale(0.12 -0.12)">
      <use xlink:href="#DejaVuSans-74"/>
      <use x="39.208984375" xlink:href="#DejaVuSans-69"/>
      <use x="66.9921875" xlink:href="#DejaVuSans-6d"/>
      <use x="164.404296875" xlink:href="#DejaVuSans-65"/>
     </g>
    </g>
   </g>
   <g id="matplotlib.axis_2">
    <g id="ytick_1">
     <g id="line2d_27">
      <defs>
       <path d="
M0 0
L4 0" id="m728421d6d4" style="stroke:#000000;stroke-width:0.5;"/>
      </defs>
      <g>
       <use style="stroke:#000000;stroke-width:0.5;" x="17.575" xlink:href="#m728421d6d4" y="368.74175"/>
      </g>
     </g>
     <g id="line2d_28">
      <defs>
       <path d="
M0 0
L-4 0" id="mcb0005524f" style="stroke:#000000;stroke-width:0.5;"/>
      </defs>
      <g>
       <use style="stroke:#000000;stroke-width:0.5;" x="463.975" xlink:href="#mcb0005524f" y="368.74175"/>
      </g>
     </g>
     <g id="text_7">
      <!-- 0 -->
      <g transform="translate(7.528125 372.053)scale(0.12 -0.12)">
       <use xlink:href="#DejaVuSans-30"/>
      </g>
     </g>
    </g>
    <g id="ytick_2">
     <g id="line2d_29">
      <g>
       <use style="stroke:#000000;stroke-width:0.5;" x="17.575" xlink:href="#m728421d6d4" y="299.62175"/>
      </g>
     </g>
     <g id="line2d_30">
      <g>
       <use style="stroke:#000000;stroke-width:0.5;" x="463.975" xlink:href="#mcb0005524f" y="299.62175"/>
      </g>
     </g>
     <g id="text_8">
      <!-- 1 -->
      <g transform="translate(8.36625 302.933)scale(0.12 -0.12)">
       <use xlink:href="#DejaVuSans-31"/>
      </g>
     </g>
    </g>
    <g id="ytick_3">
     <g id="line2d_31">
      <g>
       <use style="stroke:#000000;stroke-width:0.5;" x="17.575" xlink:href="#m728421d6d4" y="230.50175"/>
      </g>
     </g>
     <g id="line2d_32">
      <g>
       <use style="stroke:#000000;stroke-width:0.5;" x="463.975" xlink:href="#mcb0005524f" y="230.50175"/>
      </g>
     </g>
     <g id="text_9">
      <!-- 2 -->
      <g transform="translate(8.02125 233.813)scale(0.12 -0.12)">
       <use xlink:href="#DejaVuSans-32"/>
      </g>
     </g>
    </g>
    <g id="ytick_4">
     <g id="line2d_33">
      <g>
       <use style="stroke:#000000;stroke-width:0.5;" x="17.575" xlink:href="#m728421d6d4" y="161.38175"/>
      </g>
     </g>
     <g id="line2d_34">
      <g>
       <use style="stroke:#000000;stroke-width:0.5;" x="463.975" xlink:href="#mcb0005524f" y="161.38175"/>
      </g>
     </g>
     <g id="text_10">
      <!-- 3 -->
      <g transform="translate(7.816875 164.693)scale(0.12 -0.12)">
       <use xlink:href="#DejaVuSans-33"/>
      </g>
     </g>
    </g>
    <g id="ytick_5">
     <g id="line2d_35">
      <g>
       <use style="stroke:#000000;stroke-width:0.5;" x="17.575" xlink:href="#m728421d6d4" y="92.26175"/>
      </g>
     </g>
     <g id="line2d_36">
      <g>
       <use style="stroke:#000000;stroke-width:0.5;" x="463.975" xlink:href="#mcb0005524f" y="92.26175"/>
      </g>
     </g>
     <g id="text_11">
      <!-- 4 -->
      <g transform="translate(7.2 95.573)scale(0.12 -0.12)">
       <use xlink:href="#DejaVuSans-34"/>
      </g>
     </g>
    </g>
    <g id="ytick_6">
     <g id="line2d_37">
      <g>
       <use style="stroke:#000000;stroke-width:0.5;" x="17.575" xlink:href="#m728421d6d4" y="23.14175"/>
      </g>
     </g>
     <g id="line2d_38">
      <g>
       <use style="stroke:#000000;stroke-width:0.5;" x="463.975" xlink:href="#mcb0005524f" y="23.14175"/>
      </g>
     </g>
     <g id="text_12">
      <!-- 5 -->
      <defs>
       <path d="
M10.7969 72.9062
L49.5156 72.9062
L49.5156 64.5938
L19.8281 64.5938
L19.8281 46.7344
Q21.9688 47.4688 24.1094 47.8281
Q26.2656 48.1875 28.4219 48.1875
Q40.625 48.1875 47.75 41.5
Q54.8906 34.8125 54.8906 23.3906
Q54.8906 11.625 47.5625 5.09375
Q40.2344 -1.42188 26.9062 -1.42188
Q22.3125 -1.42188 17.5469 -0.640625
Q12.7969 0.140625 7.71875 1.70312
L7.71875 11.625
Q12.1094 9.23438 16.7969 8.0625
Q21.4844 6.89062 26.7031 6.89062
Q35.1562 6.89062 40.0781 11.3281
Q45.0156 15.7656 45.0156 23.3906
Q45.0156 31 40.0781 35.4375
Q35.1562 39.8906 26.7031 39.8906
Q22.75 39.8906 18.8125 39.0156
Q14.8906 38.1406 10.7969 36.2812
z
" id="DejaVuSans-35"/>
      </defs>
      <g transform="translate(7.914375 26.453)scale(0.12 -0.12)">
       <use xlink:href="#DejaVuSans-35"/>
      </g>
     </g>
    </g>
    <g id="text_13">
     <!-- 1e9 -->
     <defs>
      <path d="
M10.9844 1.51562
L10.9844 10.5
Q14.7031 8.73438 18.5 7.8125
Q22.3125 6.89062 25.9844 6.89062
Q35.75 6.89062 40.8906 13.4531
Q46.0469 20.0156 46.7812 33.4062
Q43.9531 29.2031 39.5938 26.9531
Q35.25 24.7031 29.9844 24.7031
Q19.0469 24.7031 12.6719 31.3125
Q6.29688 37.9375 6.29688 49.4219
Q6.29688 60.6406 12.9375 67.4219
Q19.5781 74.2188 30.6094 74.2188
Q43.2656 74.2188 49.9219 64.5156
Q56.5938 54.8281 56.5938 36.375
Q56.5938 19.1406 48.4062 8.85938
Q40.2344 -1.42188 26.4219 -1.42188
Q22.7031 -1.42188 18.8906 -0.6875
Q15.0938 0.046875 10.9844 1.51562
M30.6094 32.4219
Q37.25 32.4219 41.125 36.9531
Q45.0156 41.5 45.0156 49.4219
Q45.0156 57.2812 41.125 61.8438
Q37.25 66.4062 30.6094 66.4062
Q23.9688 66.4062 20.0938 61.8438
Q16.2188 57.2812 16.2188 49.4219
Q16.2188 41.5 20.0938 36.9531
Q23.9688 32.4219 30.6094 32.4219" id="DejaVuSans-39"/>
     </defs>
     <g transform="translate(17.575 20.14175)scale(0.12 -0.12)">
      <use xlink:href="#DejaVuSans-31"/>
      <use x="63.623046875" xlink:href="#DejaVuSans-65"/>
      <use x="125.146484375" xlink:href="#DejaVuSans-39"/>
     </g>
    </g>
   </g>
   <g id="text_14">
    <!-- /data/count/mpi/sent -->
    <defs>
     <path d="
M25.3906 72.9062
L33.6875 72.9062
L8.29688 -9.28125
L0 -9.28125
z
" id="DejaVuSans-2f"/>
     <path d="
M30.6094 48.3906
Q23.3906 48.3906 19.1875 42.75
Q14.9844 37.1094 14.9844 27.2969
Q14.9844 17.4844 19.1562 11.8438
Q23.3438 6.20312 30.6094 6.20312
Q37.7969 6.20312 41.9844 11.8594
Q46.1875 17.5312 46.1875 27.2969
Q46.1875 37.0156 41.9844 42.7031
Q37.7969 48.3906 30.6094 48.3906
M30.6094 56
Q42.3281 56 49.0156 48.375
Q55.7188 40.7656 55.7188 27.2969
Q55.7188 13.875 49.0156 6.21875
Q42.3281 -1.42188 30.6094 -1.42188
Q18.8438 -1.42188 12.1719 6.21875
Q5.51562 13.875 5.51562 27.2969
Q5.51562 40.7656 12.1719 48.375
Q18.8438 56 30.6094 56" id="DejaVuSans-6f"/>
     <path d="
M54.8906 33.0156
L54.8906 0
L45.9062 0
L45.9062 32.7188
Q45.9062 40.4844 42.875 44.3281
Q39.8438 48.1875 33.7969 48.1875
Q26.5156 48.1875 22.3125 43.5469
Q18.1094 38.9219 18.1094 30.9062
L18.1094 0
L9.07812 0
L9.07812 54.6875
L18.1094 54.6875
L18.1094 46.1875
Q21.3438 51.125 25.7031 53.5625
Q30.0781 56 35.7969 56
Q45.2188 56 50.0469 50.1719
Q54.8906 44.3438 54.8906 33.0156" id="DejaVuSans-6e"/>
     <path d="
M18.1094 8.20312
L18.1094 -20.7969
L9.07812 -20.7969
L9.07812 54.6875
L18.1094 54.6875
L18.1094 46.3906
Q20.9531 51.2656 25.2656 53.625
Q29.5938 56 35.5938 56
Q45.5625 56 51.7812 48.0938
Q58.0156 40.1875 58.0156 27.2969
Q58.0156 14.4062 51.7812 6.48438
Q45.5625 -1.42188 35.5938 -1.42188
Q29.5938 -1.42188 25.2656 0.953125
Q20.9531 3.32812 18.1094 8.20312
M48.6875 27.2969
Q48.6875 37.2031 44.6094 42.8438
Q40.5312 48.4844 33.4062 48.4844
Q26.2656 48.4844 22.1875 42.8438
Q18.1094 37.2031 18.1094 27.2969
Q18.1094 17.3906 22.1875 11.75
Q26.2656 6.10938 33.4062 6.10938
Q40.5312 6.10938 44.6094 11.75
Q48.6875 17.3906 48.6875 27.2969" id="DejaVuSans-70"/>
     <path d="
M8.5 21.5781
L8.5 54.6875
L17.4844 54.6875
L17.4844 21.9219
Q17.4844 14.1562 20.5 10.2656
Q23.5312 6.39062 29.5938 6.39062
Q36.8594 6.39062 41.0781 11.0312
Q45.3125 15.6719 45.3125 23.6875
L45.3125 54.6875
L54.2969 54.6875
L54.2969 0
L45.3125 0
L45.3125 8.40625
Q42.0469 3.42188 37.7188 1
Q33.4062 -1.42188 27.6875 -1.42188
Q18.2656 -1.42188 13.375 4.4375
Q8.5 10.2969 8.5 21.5781
M31.1094 56
z
" id="DejaVuSans-75"/>
     <path d="
M45.4062 46.3906
L45.4062 75.9844
L54.3906 75.9844
L54.3906 0
L45.4062 0
L45.4062 8.20312
Q42.5781 3.32812 38.25 0.953125
Q33.9375 -1.42188 27.875 -1.42188
Q17.9688 -1.42188 11.7344 6.48438
Q5.51562 14.4062 5.51562 27.2969
Q5.51562 40.1875 11.7344 48.0938
Q17.9688 56 27.875 56
Q33.9375 56 38.25 53.625
Q42.5781 51.2656 45.4062 46.3906
M14.7969 27.2969
Q14.7969 17.3906 18.875 11.75
Q22.9531 6.10938 30.0781 6.10938
Q37.2031 6.10938 41.2969 11.75
Q45.4062 17.3906 45.4062 27.2969
Q45.4062 37.2031 41.2969 42.8438
Q37.2031 48.4844 30.0781 48.4844
Q22.9531 48.4844 18.875 42.8438
Q14.7969 37.2031 14.7969 27.2969" id="DejaVuSans-64"/>
     <path d="
M48.7812 52.5938
L48.7812 44.1875
Q44.9688 46.2969 41.1406 47.3438
Q37.3125 48.3906 33.4062 48.3906
Q24.6562 48.3906 19.8125 42.8438
Q14.9844 37.3125 14.9844 27.2969
Q14.9844 17.2812 19.8125 11.7344
Q24.6562 6.20312 33.4062 6.20312
Q37.3125 6.20312 41.1406 7.25
Q44.9688 8.29688 48.7812 10.4062
L48.7812 2.09375
Q45.0156 0.34375 40.9844 -0.53125
Q36.9688 -1.42188 32.4219 -1.42188
Q20.0625 -1.42188 12.7812 6.34375
Q5.51562 14.1094 5.51562 27.2969
Q5.51562 40.6719 12.8594 48.3281
Q20.2188 56 33.0156 56
Q37.1562 56 41.1094 55.1406
Q45.0625 54.2969 48.7812 52.5938" id="DejaVuSans-63"/>
     <path d="
M44.2812 53.0781
L44.2812 44.5781
Q40.4844 46.5312 36.375 47.5
Q32.2812 48.4844 27.875 48.4844
Q21.1875 48.4844 17.8438 46.4375
Q14.5 44.3906 14.5 40.2812
Q14.5 37.1562 16.8906 35.375
Q19.2812 33.5938 26.5156 31.9844
L29.5938 31.2969
Q39.1562 29.25 43.1875 25.5156
Q47.2188 21.7812 47.2188 15.0938
Q47.2188 7.46875 41.1875 3.01562
Q35.1562 -1.42188 24.6094 -1.42188
Q20.2188 -1.42188 15.4531 -0.5625
Q10.6875 0.296875 5.42188 2
L5.42188 11.2812
Q10.4062 8.6875 15.2344 7.39062
Q20.0625 6.10938 24.8125 6.10938
Q31.1562 6.10938 34.5625 8.28125
Q37.9844 10.4531 37.9844 14.4062
Q37.9844 18.0625 35.5156 20.0156
Q33.0625 21.9688 24.7031 23.7812
L21.5781 24.5156
Q13.2344 26.2656 9.51562 29.9062
Q5.8125 33.5469 5.8125 39.8906
Q5.8125 47.6094 11.2812 51.7969
Q16.75 56 26.8125 56
Q31.7812 56 36.1719 55.2656
Q40.5781 54.5469 44.2812 53.0781" id="DejaVuSans-73"/>
     <path d="
M34.2812 27.4844
Q23.3906 27.4844 19.1875 25
Q14.9844 22.5156 14.9844 16.5
Q14.9844 11.7188 18.1406 8.90625
Q21.2969 6.10938 26.7031 6.10938
Q34.1875 6.10938 38.7031 11.4062
Q43.2188 16.7031 43.2188 25.4844
L43.2188 27.4844
z

M52.2031 31.2031
L52.2031 0
L43.2188 0
L43.2188 8.29688
Q40.1406 3.32812 35.5469 0.953125
Q30.9531 -1.42188 24.3125 -1.42188
Q15.9219 -1.42188 10.9531 3.29688
Q6 8.01562 6 15.9219
Q6 25.1406 12.1719 29.8281
Q18.3594 34.5156 30.6094 34.5156
L43.2188 34.5156
L43.2188 35.4062
Q43.2188 41.6094 39.1406 45
Q35.0625 48.3906 27.6875 48.3906
Q23 48.3906 18.5469 47.2656
Q14.1094 46.1406 10.0156 43.8906
L10.0156 52.2031
Q14.9375 54.1094 19.5781 55.0469
Q24.2188 56 28.6094 56
Q40.4844 56 46.3438 49.8438
Q52.2031 43.7031 52.2031 31.2031" id="DejaVuSans-61"/>
    </defs>
    <g transform="translate(165.563125 18.14175)scale(0.144 -0.144)">
     <use xlink:href="#DejaVuSans-2f"/>
     <use x="33.69140625" xlink:href="#DejaVuSans-64"/>
     <use x="97.16796875" xlink:href="#DejaVuSans-61"/>
     <use x="158.447265625" xlink:href="#DejaVuSans-74"/>
     <use x="197.65625" xlink:href="#DejaVuSans-61"/>
     <use x="258.935546875" xlink:href="#DejaVuSans-2f"/>
     <use x="292.626953125" xlink:href="#DejaVuSans-63"/>
     <use x="347.607421875" xlink:href="#DejaVuSans-6f"/>
     <use x="408.7890625" xlink:href="#DejaVuSans-75"/>
     <use x="472.16796875" xlink:href="#DejaVuSans-6e"/>
     <use x="535.546875" xlink:href="#DejaVuSans-74"/>
     <use x="574.755859375" xlink:href="#DejaVuSans-2f"/>
     <use x="608.447265625" xlink:href="#DejaVuSans-6d"/>
     <use x="705.859375" xlink:href="#DejaVuSans-70"/>
     <use x="769.3359375" xlink:href="#DejaVuSans-69"/>
     <use x="797.119140625" xlink:href="#DejaVuSans-2f"/>
     <use x="830.810546875" xlink:href="#DejaVuSans-73"/>
     <use x="882.91015625" xlink:href="#DejaVuSans-65"/>
     <use x="944.43359375" xlink:href="#DejaVuSans-6e"/>
     <use x="1007.8125" xlink:href="#DejaVuSans-74"/>
    </g>
   </g>
   <g id="legend_1">
    <g id="patch_7">
     <path d="
M471.175 367.194
L602.964 367.194
L602.964 24.6897
L471.175 24.6897
z
" style="fill:#ffffff;stroke:#000000;stroke-linejoin:miter;"/>
    </g>
    <g id="line2d_39">
     <path d="
M481.255 36.3515
L501.415 36.3515" style="fill:none;stroke:#0000ff;stroke-linecap:square;"/>
    </g>
    <g id="line2d_40"/>
    <g id="text_15">
     <!-- locality#0 -->
     <defs>
      <path d="
M51.125 44
L36.9219 44
L32.8125 27.6875
L47.125 27.6875
z

M43.7969 71.7812
L38.7188 51.5156
L52.9844 51.5156
L58.1094 71.7812
L65.9219 71.7812
L60.8906 51.5156
L76.125 51.5156
L76.125 44
L58.9844 44
L54.9844 27.6875
L70.5156 27.6875
L70.5156 20.2188
L53.0781 20.2188
L48 0
L40.1875 0
L45.2188 20.2188
L30.9062 20.2188
L25.875 0
L18.0156 0
L23.0938 20.2188
L7.71875 20.2188
L7.71875 27.6875
L24.9062 27.6875
L29 44
L13.2812 44
L13.2812 51.5156
L30.9062 51.5156
L35.8906 71.7812
z
" id="DejaVuSans-23"/>
      <path d="
M32.1719 -5.07812
Q28.375 -14.8438 24.75 -17.8125
Q21.1406 -20.7969 15.0938 -20.7969
L7.90625 -20.7969
L7.90625 -13.2812
L13.1875 -13.2812
Q16.8906 -13.2812 18.9375 -11.5156
Q21 -9.76562 23.4844 -3.21875
L25.0938 0.875
L2.98438 54.6875
L12.5 54.6875
L29.5938 11.9219
L46.6875 54.6875
L56.2031 54.6875
z
" id="DejaVuSans-79"/>
      <path d="
M9.42188 75.9844
L18.4062 75.9844
L18.4062 0
L9.42188 0
z
" id="DejaVuSans-6c"/>
     </defs>
     <g transform="translate(517.255 41.3915)scale(0.144 -0.144)">
      <use xlink:href="#DejaVuSans-6c"/>
      <use x="27.783203125" xlink:href="#DejaVuSans-6f"/>
      <use x="88.96484375" xlink:href="#DejaVuSans-63"/>
      <use x="143.9453125" xlink:href="#DejaVuSans-61"/>
      <use x="205.224609375" xlink:href="#DejaVuSans-6c"/>
      <use x="233.0078125" xlink:href="#DejaVuSans-69"/>
      <use x="260.791015625" xlink:href="#DejaVuSans-74"/>
      <use x="300.0" xlink:href="#DejaVuSans-79"/>
      <use x="359.1796875" xlink:href="#DejaVuSans-23"/>
      <use x="442.96875" xlink:href="#DejaVuSans-30"/>
     </g>
    </g>
    <g id="line2d_41">
     <path d="
M481.255 57.488
L501.415 57.488" style="fill:none;stroke:#008000;stroke-linecap:square;"/>
    </g>
    <g id="line2d_42"/>
    <g id="text_16">
     <!-- locality#1 -->
     <g transform="translate(517.255 62.528)scale(0.144 -0.144)">
      <use xlink:href="#DejaVuSans-6c"/>
      <use x="27.783203125" xlink:href="#DejaVuSans-6f"/>
      <use x="88.96484375" xlink:href="#DejaVuSans-63"/>
      <use x="143.9453125" xlink:href="#DejaVuSans-61"/>
      <use x="205.224609375" xlink:href="#DejaVuSans-6c"/>
      <use x="233.0078125" xlink:href="#DejaVuSans-69"/>
      <use x="260.791015625" xlink:href="#DejaVuSans-74"/>
      <use x="300.0" xlink:href="#DejaVuSans-79"/>
      <use x="359.1796875" xlink:href="#DejaVuSans-23"/>
      <use x="442.96875" xlink:href="#DejaVuSans-31"/>
     </g>
    </g>
    <g id="line2d_43">
     <path d="
M481.255 78.6245
L501.415 78.6245" style="fill:none;stroke:#ff0000;stroke-linecap:square;"/>
    </g>
    <g id="line2d_44"/>
    <g id="text_17">
     <!-- locality#10 -->
     <g transform="translate(517.255 83.6645)scale(0.144 -0.144)">
      <use xlink:href="#DejaVuSans-6c"/>
      <use x="27.783203125" xlink:href="#DejaVuSans-6f"/>
      <use x="88.96484375" xlink:href="#DejaVuSans-63"/>
      <use x="143.9453125" xlink:href="#DejaVuSans-61"/>
      <use x="205.224609375" xlink:href="#DejaVuSans-6c"/>
      <use x="233.0078125" xlink:href="#DejaVuSans-69"/>
      <use x="260.791015625" xlink:href="#DejaVuSans-74"/>
      <use x="300.0" xlink:href="#DejaVuSans-79"/>
      <use x="359.1796875" xlink:href="#DejaVuSans-23"/>
      <use x="442.96875" xlink:href="#DejaVuSans-31"/>
      <use x="506.591796875" xlink:href="#DejaVuSans-30"/>
     </g>
    </g>
    <g id="line2d_45">
     <path d="
M481.255 99.761
L501.415 99.761" style="fill:none;stroke:#00bfbf;stroke-linecap:square;"/>
    </g>
    <g id="line2d_46"/>
    <g id="text_18">
     <!-- locality#11 -->
     <g transform="translate(517.255 104.801)scale(0.144 -0.144)">
      <use xlink:href="#DejaVuSans-6c"/>
      <use x="27.783203125" xlink:href="#DejaVuSans-6f"/>
      <use x="88.96484375" xlink:href="#DejaVuSans-63"/>
      <use x="143.9453125" xlink:href="#DejaVuSans-61"/>
      <use x="205.224609375" xlink:href="#DejaVuSans-6c"/>
      <use x="233.0078125" xlink:href="#DejaVuSans-69"/>
      <use x="260.791015625" xlink:href="#DejaVuSans-74"/>
      <use x="300.0" xlink:href="#DejaVuSans-79"/>
      <use x="359.1796875" xlink:href="#DejaVuSans-23"/>
      <use x="442.96875" xlink:href="#DejaVuSans-31"/>
      <use x="506.591796875" xlink:href="#DejaVuSans-31"/>
     </g>
    </g>
    <g id="line2d_47">
     <path d="
M481.255 120.897
L501.415 120.897" style="fill:none;stroke:#bf00bf;stroke-linecap:square;"/>
    </g>
    <g id="line2d_48"/>
    <g id="text_19">
     <!-- locality#12 -->
     <g transform="translate(517.255 125.9375)scale(0.144 -0.144)">
      <use xlink:href="#DejaVuSans-6c"/>
      <use x="27.783203125" xlink:href="#DejaVuSans-6f"/>
      <use x="88.96484375" xlink:href="#DejaVuSans-63"/>
      <use x="143.9453125" xlink:href="#DejaVuSans-61"/>
      <use x="205.224609375" xlink:href="#DejaVuSans-6c"/>
      <use x="233.0078125" xlink:href="#DejaVuSans-69"/>
      <use x="260.791015625" xlink:href="#DejaVuSans-74"/>
      <use x="300.0" xlink:href="#DejaVuSans-79"/>
      <use x="359.1796875" xlink:href="#DejaVuSans-23"/>
      <use x="442.96875" xlink:href="#DejaVuSans-31"/>
      <use x="506.591796875" xlink:href="#DejaVuSans-32"/>
     </g>
    </g>
    <g id="line2d_49">
     <path d="
M481.255 142.034
L501.415 142.034" style="fill:none;stroke:#bfbf00;stroke-linecap:square;"/>
    </g>
    <g id="line2d_50"/>
    <g id="text_20">
     <!-- locality#13 -->
     <g transform="translate(517.255 147.074)scale(0.144 -0.144)">
      <use xlink:href="#DejaVuSans-6c"/>
      <use x="27.783203125" xlink:href="#DejaVuSans-6f"/>
      <use x="88.96484375" xlink:href="#DejaVuSans-63"/>
      <use x="143.9453125" xlink:href="#DejaVuSans-61"/>
      <use x="205.224609375" xlink:href="#DejaVuSans-6c"/>
      <use x="233.0078125" xlink:href="#DejaVuSans-69"/>
      <use x="260.791015625" xlink:href="#DejaVuSans-74"/>
      <use x="300.0" xlink:href="#DejaVuSans-79"/>
      <use x="359.1796875" xlink:href="#DejaVuSans-23"/>
      <use x="442.96875" xlink:href="#DejaVuSans-31"/>
      <use x="506.591796875" xlink:href="#DejaVuSans-33"/>
     </g>
    </g>
    <g id="line2d_51">
     <path d="
M481.255 163.17
L501.415 163.17" style="fill:none;stroke:#000000;stroke-linecap:square;"/>
    </g>
    <g id="line2d_52"/>
    <g id="text_21">
     <!-- locality#14 -->
     <g transform="translate(517.255 168.2105)scale(0.144 -0.144)">
      <use xlink:href="#DejaVuSans-6c"/>
      <use x="27.783203125" xlink:href="#DejaVuSans-6f"/>
      <use x="88.96484375" xlink:href="#DejaVuSans-63"/>
      <use x="143.9453125" xlink:href="#DejaVuSans-61"/>
      <use x="205.224609375" xlink:href="#DejaVuSans-6c"/>
      <use x="233.0078125" xlink:href="#DejaVuSans-69"/>
      <use x="260.791015625" xlink:href="#DejaVuSans-74"/>
      <use x="300.0" xlink:href="#DejaVuSans-79"/>
      <use x="359.1796875" xlink:href="#DejaVuSans-23"/>
      <use x="442.96875" xlink:href="#DejaVuSans-31"/>
      <use x="506.591796875" xlink:href="#DejaVuSans-34"/>
     </g>
    </g>
    <g id="line2d_53">
     <path d="
M481.255 184.307
L501.415 184.307" style="fill:none;stroke:#0000ff;stroke-linecap:square;"/>
    </g>
    <g id="line2d_54"/>
    <g id="text_22">
     <!-- locality#15 -->
     <g transform="translate(517.255 189.347)scale(0.144 -0.144)">
      <use xlink:href="#DejaVuSans-6c"/>
      <use x="27.783203125" xlink:href="#DejaVuSans-6f"/>
      <use x="88.96484375" xlink:href="#DejaVuSans-63"/>
      <use x="143.9453125" xlink:href="#DejaVuSans-61"/>
      <use x="205.224609375" xlink:href="#DejaVuSans-6c"/>
      <use x="233.0078125" xlink:href="#DejaVuSans-69"/>
      <use x="260.791015625" xlink:href="#DejaVuSans-74"/>
      <use x="300.0" xlink:href="#DejaVuSans-79"/>
      <use x="359.1796875" xlink:href="#DejaVuSans-23"/>
      <use x="442.96875" xlink:href="#DejaVuSans-31"/>
      <use x="506.591796875" xlink:href="#DejaVuSans-35"/>
     </g>
    </g>
    <g id="line2d_55">
     <path d="
M481.255 205.443
L501.415 205.443" style="fill:none;stroke:#008000;stroke-linecap:square;"/>
    </g>
    <g id="line2d_56"/>
    <g id="text_23">
     <!-- locality#2 -->
     <g transform="translate(517.255 210.4835)scale(0.144 -0.144)">
      <use xlink:href="#DejaVuSans-6c"/>
      <use x="27.783203125" xlink:href="#DejaVuSans-6f"/>
      <use x="88.96484375" xlink:href="#DejaVuSans-63"/>
      <use x="143.9453125" xlink:href="#DejaVuSans-61"/>
      <use x="205.224609375" xlink:href="#DejaVuSans-6c"/>
      <use x="233.0078125" xlink:href="#DejaVuSans-69"/>
      <use x="260.791015625" xlink:href="#DejaVuSans-74"/>
      <use x="300.0" xlink:href="#DejaVuSans-79"/>
      <use x="359.1796875" xlink:href="#DejaVuSans-23"/>
      <use x="442.96875" xlink:href="#DejaVuSans-32"/>
     </g>
    </g>
    <g id="line2d_57">
     <path d="
M481.255 226.58
L501.415 226.58" style="fill:none;stroke:#ff0000;stroke-linecap:square;"/>
    </g>
    <g id="line2d_58"/>
    <g id="text_24">
     <!-- locality#3 -->
     <g transform="translate(517.255 231.62)scale(0.144 -0.144)">
      <use xlink:href="#DejaVuSans-6c"/>
      <use x="27.783203125" xlink:href="#DejaVuSans-6f"/>
      <use x="88.96484375" xlink:href="#DejaVuSans-63"/>
      <use x="143.9453125" xlink:href="#DejaVuSans-61"/>
      <use x="205.224609375" xlink:href="#DejaVuSans-6c"/>
      <use x="233.0078125" xlink:href="#DejaVuSans-69"/>
      <use x="260.791015625" xlink:href="#DejaVuSans-74"/>
      <use x="300.0" xlink:href="#DejaVuSans-79"/>
      <use x="359.1796875" xlink:href="#DejaVuSans-23"/>
      <use x="442.96875" xlink:href="#DejaVuSans-33"/>
     </g>
    </g>
    <g id="line2d_59">
     <path d="
M481.255 247.716
L501.415 247.716" style="fill:none;stroke:#00bfbf;stroke-linecap:square;"/>
    </g>
    <g id="line2d_60"/>
    <g id="text_25">
     <!-- locality#4 -->
     <g transform="translate(517.255 252.7565)scale(0.144 -0.144)">
      <use xlink:href="#DejaVuSans-6c"/>
      <use x="27.783203125" xlink:href="#DejaVuSans-6f"/>
      <use x="88.96484375" xlink:href="#DejaVuSans-63"/>
      <use x="143.9453125" xlink:href="#DejaVuSans-61"/>
      <use x="205.224609375" xlink:href="#DejaVuSans-6c"/>
      <use x="233.0078125" xlink:href="#DejaVuSans-69"/>
      <use x="260.791015625" xlink:href="#DejaVuSans-74"/>
      <use x="300.0" xlink:href="#DejaVuSans-79"/>
      <use x="359.1796875" xlink:href="#DejaVuSans-23"/>
      <use x="442.96875" xlink:href="#DejaVuSans-34"/>
     </g>
    </g>
    <g id="line2d_61">
     <path d="
M481.255 268.853
L501.415 268.853" style="fill:none;stroke:#bf00bf;stroke-linecap:square;"/>
    </g>
    <g id="line2d_62"/>
    <g id="text_26">
     <!-- locality#5 -->
     <g transform="translate(517.255 273.893)scale(0.144 -0.144)">
      <use xlink:href="#DejaVuSans-6c"/>
      <use x="27.783203125" xlink:href="#DejaVuSans-6f"/>
      <use x="88.96484375" xlink:href="#DejaVuSans-63"/>
      <use x="143.9453125" xlink:href="#DejaVuSans-61"/>
      <use x="205.224609375" xlink:href="#DejaVuSans-6c"/>
      <use x="233.0078125" xlink:href="#DejaVuSans-69"/>
      <use x="260.791015625" xlink:href="#DejaVuSans-74"/>
      <use x="300.0" xlink:href="#DejaVuSans-79"/>
      <use x="359.1796875" xlink:href="#DejaVuSans-23"/>
      <use x="442.96875" xlink:href="#DejaVuSans-35"/>
     </g>
    </g>
    <g id="line2d_63">
     <path d="
M481.255 289.989
L501.415 289.989" style="fill:none;stroke:#bfbf00;stroke-linecap:square;"/>
    </g>
    <g id="line2d_64"/>
    <g id="text_27">
     <!-- locality#6 -->
     <defs>
      <path d="
M33.0156 40.375
Q26.375 40.375 22.4844 35.8281
Q18.6094 31.2969 18.6094 23.3906
Q18.6094 15.5312 22.4844 10.9531
Q26.375 6.39062 33.0156 6.39062
Q39.6562 6.39062 43.5312 10.9531
Q47.4062 15.5312 47.4062 23.3906
Q47.4062 31.2969 43.5312 35.8281
Q39.6562 40.375 33.0156 40.375
M52.5938 71.2969
L52.5938 62.3125
Q48.875 64.0625 45.0938 64.9844
Q41.3125 65.9219 37.5938 65.9219
Q27.8281 65.9219 22.6719 59.3281
Q17.5312 52.7344 16.7969 39.4062
Q19.6719 43.6562 24.0156 45.9219
Q28.375 48.1875 33.5938 48.1875
Q44.5781 48.1875 50.9531 41.5156
Q57.3281 34.8594 57.3281 23.3906
Q57.3281 12.1562 50.6875 5.35938
Q44.0469 -1.42188 33.0156 -1.42188
Q20.3594 -1.42188 13.6719 8.26562
Q6.98438 17.9688 6.98438 36.375
Q6.98438 53.6562 15.1875 63.9375
Q23.3906 74.2188 37.2031 74.2188
Q40.9219 74.2188 44.7031 73.4844
Q48.4844 72.75 52.5938 71.2969" id="DejaVuSans-36"/>
     </defs>
     <g transform="translate(517.255 295.0295)scale(0.144 -0.144)">
      <use xlink:href="#DejaVuSans-6c"/>
      <use x="27.783203125" xlink:href="#DejaVuSans-6f"/>
      <use x="88.96484375" xlink:href="#DejaVuSans-63"/>
      <use x="143.9453125" xlink:href="#DejaVuSans-61"/>
      <use x="205.224609375" xlink:href="#DejaVuSans-6c"/>
      <use x="233.0078125" xlink:href="#DejaVuSans-69"/>
      <use x="260.791015625" xlink:href="#DejaVuSans-74"/>
      <use x="300.0" xlink:href="#DejaVuSans-79"/>
      <use x="359.1796875" xlink:href="#DejaVuSans-23"/>
      <use x="442.96875" xlink:href="#DejaVuSans-36"/>
     </g>
    </g>
    <g id="line2d_65">
     <path d="
M481.255 311.126
L501.415 311.126" style="fill:none;stroke:#000000;stroke-linecap:square;"/>
    </g>
    <g id="line2d_66"/>
    <g id="text_28">
     <!-- locality#7 -->
     <defs>
      <path d="
M8.20312 72.9062
L55.0781 72.9062
L55.0781 68.7031
L28.6094 0
L18.3125 0
L43.2188 64.5938
L8.20312 64.5938
z
" id="DejaVuSans-37"/>
     </defs>
     <g transform="translate(517.255 316.166)scale(0.144 -0.144)">
      <use xlink:href="#DejaVuSans-6c"/>
      <use x="27.783203125" xlink:href="#DejaVuSans-6f"/>
      <use x="88.96484375" xlink:href="#DejaVuSans-63"/>
      <use x="143.9453125" xlink:href="#DejaVuSans-61"/>
      <use x="205.224609375" xlink:href="#DejaVuSans-6c"/>
      <use x="233.0078125" xlink:href="#DejaVuSans-69"/>
      <use x="260.791015625" xlink:href="#DejaVuSans-74"/>
      <use x="300.0" xlink:href="#DejaVuSans-79"/>
      <use x="359.1796875" xlink:href="#DejaVuSans-23"/>
      <use x="442.96875" xlink:href="#DejaVuSans-37"/>
     </g>
    </g>
    <g id="line2d_67">
     <path d="
M481.255 332.262
L501.415 332.262" style="fill:none;stroke:#0000ff;stroke-linecap:square;"/>
    </g>
    <g id="line2d_68"/>
    <g id="text_29">
     <!-- locality#8 -->
     <defs>
      <path d="
M31.7812 34.625
Q24.75 34.625 20.7188 30.8594
Q16.7031 27.0938 16.7031 20.5156
Q16.7031 13.9219 20.7188 10.1562
Q24.75 6.39062 31.7812 6.39062
Q38.8125 6.39062 42.8594 10.1719
Q46.9219 13.9688 46.9219 20.5156
Q46.9219 27.0938 42.8906 30.8594
Q38.875 34.625 31.7812 34.625
M21.9219 38.8125
Q15.5781 40.375 12.0312 44.7188
Q8.5 49.0781 8.5 55.3281
Q8.5 64.0625 14.7188 69.1406
Q20.9531 74.2188 31.7812 74.2188
Q42.6719 74.2188 48.875 69.1406
Q55.0781 64.0625 55.0781 55.3281
Q55.0781 49.0781 51.5312 44.7188
Q48 40.375 41.7031 38.8125
Q48.8281 37.1562 52.7969 32.3125
Q56.7812 27.4844 56.7812 20.5156
Q56.7812 9.90625 50.3125 4.23438
Q43.8438 -1.42188 31.7812 -1.42188
Q19.7344 -1.42188 13.25 4.23438
Q6.78125 9.90625 6.78125 20.5156
Q6.78125 27.4844 10.7812 32.3125
Q14.7969 37.1562 21.9219 38.8125
M18.3125 54.3906
Q18.3125 48.7344 21.8438 45.5625
Q25.3906 42.3906 31.7812 42.3906
Q38.1406 42.3906 41.7188 45.5625
Q45.3125 48.7344 45.3125 54.3906
Q45.3125 60.0625 41.7188 63.2344
Q38.1406 66.4062 31.7812 66.4062
Q25.3906 66.4062 21.8438 63.2344
Q18.3125 60.0625 18.3125 54.3906" id="DejaVuSans-38"/>
     </defs>
     <g transform="translate(517.255 337.3025)scale(0.144 -0.144)">
      <use xlink:href="#DejaVuSans-6c"/>
      <use x="27.783203125" xlink:href="#DejaVuSans-6f"/>
      <use x="88.96484375" xlink:href="#DejaVuSans-63"/>
      <use x="143.9453125" xlink:href="#DejaVuSans-61"/>
      <use x="205.224609375" xlink:href="#DejaVuSans-6c"/>
      <use x="233.0078125" xlink:href="#DejaVuSans-69"/>
      <use x="260.791015625" xlink:href="#DejaVuSans-74"/>
      <use x="300.0" xlink:href="#DejaVuSans-79"/>
      <use x="359.1796875" xlink:href="#DejaVuSans-23"/>
      <use x="442.96875" xlink:href="#DejaVuSans-38"/>
     </g>
    </g>
    <g id="line2d_69">
     <path d="
M481.255 353.399
L501.415 353.399" style="fill:none;stroke:#008000;stroke-linecap:square;"/>
    </g>
    <g id="line2d_70"/>
    <g id="text_30">
     <!-- locality#9 -->
     <g transform="translate(517.255 358.439)scale(0.144 -0.144)">
      <use xlink:href="#DejaVuSans-6c"/>
      <use x="27.783203125" xlink:href="#DejaVuSans-6f"/>
      <use x="88.96484375" xlink:href="#DejaVuSans-63"/>
      <use x="143.9453125" xlink:href="#DejaVuSans-61"/>
      <use x="205.224609375" xlink:href="#DejaVuSans-6c"/>
      <use x="233.0078125" xlink:href="#DejaVuSans-69"/>
      <use x="260.791015625" xlink:href="#DejaVuSans-74"/>
      <use x="300.0" xlink:href="#DejaVuSans-79"/>
      <use x="359.1796875" xlink:href="#DejaVuSans-23"/>
      <use x="442.96875" xlink:href="#DejaVuSans-39"/>
     </g>
    </g>
   </g>
  </g>
 </g>
 <defs>
  <clipPath id="pf51f381abf">
   <rect height="345.6" width="446.4" x="17.575" y="23.14175"/>
  </clipPath>
 </defs>
</svg>
