<?xml version="1.0" encoding="utf-8" standalone="no"?>
<!DOCTYPE svg PUBLIC "-//W3C//DTD SVG 1.1//EN"
  "http://www.w3.org/Graphics/SVG/1.1/DTD/svg11.dtd">
<!-- Created with matplotlib (http://matplotlib.org/) -->
<svg height="408pt" version="1.1" viewBox="0 0 621 408" width="621pt" xmlns="http://www.w3.org/2000/svg" xmlns:xlink="http://www.w3.org/1999/xlink">
 <defs>
  <style type="text/css">
*{stroke-linecap:butt;stroke-linejoin:round;}
  </style>
 </defs>
 <g id="figure_1">
  <g id="patch_1">
   <path d="
M0 408.169
L621.285 408.169
L621.285 0
L0 0
z
" style="fill:#ffffff;"/>
  </g>
  <g id="axes_1">
   <g id="patch_2">
    <path d="
M28.6956 368.742
L475.096 368.742
L475.096 23.1417
L28.6956 23.1417
z
" style="fill:#ffffff;"/>
   </g>
   <g id="line2d_1">
    <path clip-path="url(#p2118423672)" d="
M28.6956 368.718
L31.3794 368.288
L49.2712 365.348
L59.1117 363.299
L66.2684 361.842
L68.9521 361.315
L73.4251 360.375
L94.0006 357.024
L97.579 356.493
L108.314 354.865
L112.787 354.165
L168.252 345.547
L175.408 344.509
L179.881 343.915
L186.143 343.061
L191.511 342.204
L195.089 341.667
L217.454 338.509
L221.927 337.767
L224.611 337.335
L228.189 336.735
L235.346 335.533
L240.713 334.791
L247.87 333.791
L261.289 331.804
L299.756 326.27
L315.859 324.092
L317.648 323.779
L321.226 323.292
L327.488 322.35
L335.54 321.244
L350.748 318.912
L353.431 318.49
L361.483 317.154
L370.429 315.723
L374.007 315.178
L379.375 314.242
L381.164 313.905
L390.11 312.592
L405.318 310.132
L409.791 309.458
L416.053 308.473
L419.631 307.923
L429.472 306.441
L445.574 303.938
L449.153 303.42
L458.098 301.999
L463.466 300.965
L470.623 299.774
L471.517 299.488
L475.096 298.91
L475.096 298.91" style="fill:none;stroke:#0000ff;stroke-linecap:square;"/>
   </g>
   <g id="line2d_2">
    <path clip-path="url(#p2118423672)" d="
M28.6956 368.738
L29.5902 368.515
L30.4848 368.375
L36.7469 367.519
L51.9549 365.199
L57.3225 364.486
L59.1117 364.219
L72.5305 362.384
L75.2143 361.965
L85.0547 360.501
L90.4223 359.608
L95.7898 358.959
L107.419 357.366
L110.103 357.011
L119.944 355.691
L123.522 355.207
L131.573 354.057
L138.73 353.075
L147.676 351.823
L153.044 351.093
L160.2 350.114
L167.357 349.051
L187.932 346.296
L189.722 345.976
L199.562 344.571
L204.035 343.942
L207.613 343.454
L218.349 342.08
L248.765 337.921
L253.238 337.324
L263.078 336.139
L267.551 335.472
L271.129 335.014
L275.602 334.418
L318.543 328.732
L320.332 328.467
L334.645 326.522
L337.329 326.184
L351.642 324.235
L357.904 323.43
L362.377 322.823
L365.956 322.388
L377.585 320.723
L379.375 320.427
L398.161 317.855
L400.845 317.495
L418.737 315.01
L422.315 314.571
L428.577 313.611
L456.309 309.926
L468.834 307.812
L475.096 306.789
L475.096 306.789" style="fill:none;stroke:#008000;stroke-linecap:square;"/>
   </g>
   <g id="line2d_3">
    <path clip-path="url(#p2118423672)" d="
M28.6956 368.738
L31.3794 366.759
L34.9577 363.96
L36.7469 362.535
L39.4307 360.415
L40.3253 359.782
L42.1145 358.759
L43.0091 358.2
L46.5874 356.579
L47.482 356.153
L50.1658 355.17
L53.7441 353.41
L55.5333 352.585
L56.4279 352.074
L60.9008 350.157
L61.7954 349.653
L63.5846 348.799
L75.2143 342.928
L77.0034 342.187
L82.371 340.042
L89.5277 336.883
L90.4223 336.352
L93.106 335.252
L95.7898 333.863
L99.3682 332.132
L104.736 329.566
L106.525 328.856
L108.314 328.043
L110.998 326.73
L113.682 325.409
L116.365 323.936
L119.944 322.245
L121.733 321.496
L123.522 320.672
L127.1 319.258
L128.89 318.418
L131.573 317.15
L135.152 315.648
L136.941 314.81
L138.73 313.99
L148.571 309.765
L149.465 309.279
L152.149 308.169
L154.833 306.739
L184.354 293.982
L186.143 293.311
L187.932 292.474
L190.616 291.389
L194.195 289.954
L195.984 289.139
L197.773 288.37
L201.351 287.03
L204.035 285.906
L205.824 285.086
L221.032 278.763
L221.927 278.332
L224.611 277.403
L227.294 276.084
L241.608 270.197
L243.397 269.268
L249.659 266.673
L255.921 264.149
L256.816 263.683
L263.078 261.314
L279.181 254.475
L281.864 253.527
L284.548 252.414
L286.337 251.753
L292.599 249.071
L294.389 248.275
L303.335 244.651
L306.913 243.147
L309.597 241.991
L312.28 240.806
L314.964 239.594
L323.015 236.537
L325.699 235.386
L330.172 233.566
L333.751 232.021
L344.486 227.482
L351.642 224.304
L356.115 222.566
L357.01 222.127
L358.799 221.389
L362.377 219.795
L364.167 219.083
L365.061 218.582
L366.85 217.837
L370.429 216.135
L376.691 213.549
L381.164 211.36
L382.953 210.619
L384.742 209.708
L387.426 208.485
L389.215 207.813
L391.004 207.003
L394.583 205.473
L395.477 205.101
L397.266 204.184
L399.056 203.363
L404.423 200.731
L406.212 199.909
L407.107 199.587
L410.685 197.837
L411.58 197.496
L413.369 196.619
L415.158 195.824
L416.947 195.013
L422.315 192.702
L423.209 192.16
L426.788 190.484
L428.577 189.61
L434.839 186.816
L435.734 186.365
L436.628 185.782
L442.89 182.857
L444.68 181.95
L449.153 179.985
L450.942 179.166
L453.625 177.809
L457.204 176.142
L466.15 171.859
L467.939 171.063
L470.623 169.693
L473.306 168.408
L475.096 167.498
L475.096 167.498" style="fill:none;stroke:#ff0000;stroke-linecap:square;"/>
   </g>
   <g id="line2d_4">
    <path clip-path="url(#p2118423672)" d="
M28.6956 368.738
L32.274 366.331
L34.0632 364.722
L35.8523 363.508
L37.6415 362.055
L40.3253 360.112
L46.5874 355.112
L49.2712 352.61
L50.1658 352.018
L52.8495 349.705
L53.7441 349.141
L64.4792 340.109
L68.0575 337.396
L69.8467 335.695
L71.6359 334.487
L73.4251 333
L76.1089 330.707
L78.7926 328.906
L80.5818 327.387
L81.4764 326.586
L83.2656 325.439
L85.0547 323.989
L87.7385 322.366
L88.6331 321.68
L89.5277 321.143
L90.4223 320.387
L92.2115 319.101
L94.8952 317.048
L96.6844 315.897
L101.157 312.608
L103.841 310.77
L104.736 309.839
L106.525 308.498
L108.314 307.259
L110.103 305.763
L114.576 302.379
L115.471 301.446
L119.049 298.897
L122.627 296.662
L124.417 295.365
L127.995 292.805
L131.573 290.207
L132.468 289.635
L134.257 288.22
L136.046 286.922
L136.941 286.355
L138.73 284.881
L143.203 281.564
L144.098 281.064
L146.781 279.224
L149.465 277.339
L153.044 274.833
L153.938 274.321
L157.516 271.583
L161.095 268.991
L162.884 267.701
L166.462 265.224
L170.935 261.966
L172.724 260.654
L174.514 259.576
L176.303 258.461
L177.197 257.494
L178.092 256.713
L181.67 254.474
L187.038 250.548
L188.827 249.429
L189.722 248.7
L192.405 247.072
L195.089 245.095
L195.984 244.625
L196.878 243.845
L202.246 240.356
L203.141 239.551
L204.035 238.96
L205.824 237.371
L206.719 236.862
L208.508 235.575
L209.403 235.063
L211.192 233.749
L212.086 233.285
L214.77 231.298
L217.454 229.658
L218.349 229.119
L220.138 227.64
L230.873 220.869
L232.662 219.807
L242.502 213.166
L246.081 210.702
L248.765 208.884
L251.448 206.97
L252.343 206.474
L254.132 205.249
L255.027 204.768
L256.816 203.298
L259.5 201.476
L261.289 200.206
L267.551 195.756
L268.446 195.244
L269.34 194.514
L270.235 193.975
L273.813 191.327
L275.602 190.238
L276.497 189.453
L279.181 187.837
L281.864 186.335
L282.759 185.606
L287.232 182.846
L288.126 182.346
L289.021 181.476
L290.81 180.142
L293.494 177.957
L295.283 176.975
L297.967 175.235
L298.862 174.505
L303.335 171.651
L306.913 169.212
L309.597 167.317
L311.386 166.19
L315.859 163.339
L323.91 157.726
L325.699 156.333
L326.594 155.805
L329.278 153.901
L331.961 152.182
L332.856 151.454
L333.751 150.902
L335.54 149.633
L344.486 143.355
L345.38 142.564
L349.853 139.465
L350.748 138.596
L358.799 133.263
L360.588 131.927
L370.429 125.138
L374.902 122.309
L375.796 121.486
L377.585 120.113
L379.375 118.631
L380.269 118.073
L382.058 116.691
L383.848 115.521
L384.742 114.764
L386.531 113.652
L394.583 108.044
L395.477 107.508
L398.161 105.36
L399.95 104.123
L400.845 103.523
L402.634 102.032
L404.423 100.823
L407.107 98.8823
L410.685 96.3686
L412.474 95.2696
L413.369 94.5185
L417.842 91.4162
L419.631 90.0695
L421.42 88.9163
L423.209 87.716
L426.788 85.1758
L428.577 83.6724
L430.366 82.5262
L432.155 81.3224
L435.734 78.9561
L437.523 77.6244
L438.417 77.1625
L440.207 75.931
L443.785 73.5809
L446.469 71.6974
L447.363 70.9682
L450.047 69.1987
L452.731 67.1827
L453.625 66.692
L454.52 66.0503
L455.415 65.6056
L458.993 63.1035
L460.782 61.7683
L462.571 60.4965
L475.096 51.7494
L475.096 51.7494" style="fill:none;stroke:#00bfbf;stroke-linecap:square;"/>
   </g>
   <g id="line2d_5">
    <path clip-path="url(#p2118423672)" d="
M28.6956 368.739
L32.274 366.905
L33.1686 366.356
L36.7469 364.821
L42.1145 362.822
L43.9036 361.971
L45.6928 360.998
L47.482 360.112
L65.3738 352.748
L71.6359 349.985
L77.0034 347.52
L78.7926 346.681
L80.5818 345.88
L82.371 344.988
L83.2656 344.635
L85.9493 343.193
L90.4223 341.219
L91.3169 340.683
L92.2115 340.346
L94.8952 338.949
L96.6844 338.229
L99.3682 336.767
L103.841 334.544
L107.419 332.748
L110.103 331.442
L113.682 329.843
L115.471 328.774
L126.206 323.911
L127.1 323.324
L130.679 321.663
L131.573 321.207
L132.468 320.894
L133.363 320.276
L139.625 317.138
L140.519 316.6
L145.887 314.318
L148.571 312.988
L149.465 312.404
L153.938 310.343
L154.833 309.746
L156.622 308.931
L159.306 307.692
L165.568 304.81
L168.252 303.678
L176.303 299.956
L177.197 299.45
L184.354 296.397
L186.143 295.533
L190.616 293.414
L192.405 292.664
L193.3 292.161
L194.195 291.85
L204.035 287.124
L212.086 283.476
L213.876 282.73
L215.665 281.875
L220.138 279.797
L226.4 276.918
L231.767 274.482
L233.557 273.671
L236.24 272.594
L238.029 271.733
L242.502 269.87
L247.87 267.508
L251.448 265.998
L255.921 264.037
L256.816 263.503
L265.762 259.874
L267.551 259.029
L272.918 256.77
L276.497 255.093
L278.286 254.328
L280.075 253.5
L282.759 252.416
L286.337 250.818
L287.232 250.511
L291.705 248.422
L305.124 243.004
L306.913 242.291
L310.491 240.844
L312.28 240.124
L316.753 238.249
L321.226 236.367
L323.015 235.572
L327.488 233.652
L331.067 232.261
L332.856 231.42
L335.54 230.305
L341.802 227.702
L343.591 227.052
L349.853 224.483
L351.642 223.763
L356.115 221.955
L357.01 221.457
L359.694 220.383
L362.377 219.213
L367.745 217.174
L372.218 215.611
L374.007 214.942
L378.48 213.089
L387.426 209.427
L394.583 206.735
L400.845 204.227
L402.634 203.353
L404.423 202.666
L422.315 195.861
L424.104 195.186
L426.788 194.138
L428.577 193.343
L432.155 192.012
L437.523 189.976
L440.207 189.108
L441.101 188.735
L442.89 188.124
L443.785 187.667
L450.942 185.196
L452.731 184.441
L470.623 177.404
L472.412 176.687
L475.096 175.69
L475.096 175.69" style="fill:none;stroke:#bf00bf;stroke-linecap:square;"/>
   </g>
   <g id="line2d_6">
    <path clip-path="url(#p2118423672)" d="
M28.6956 368.738
L39.4307 363.613
L42.1145 362.322
L43.9036 361.299
L45.6928 360.53
L49.2712 358.724
L51.0604 358.061
L52.8495 357.09
L55.5333 355.999
L56.4279 355.484
L59.1117 354.431
L60.0062 353.91
L62.69 352.848
L66.2684 351.116
L68.9521 349.945
L71.6359 348.626
L76.1089 346.559
L78.7926 345.457
L83.2656 343.443
L85.0547 342.582
L93.106 339.272
L95.7898 338.01
L102.052 335.277
L102.947 334.965
L110.998 331.003
L112.787 330.305
L118.155 327.984
L124.417 325.484
L139.625 318.387
L141.414 317.485
L143.203 316.715
L145.887 315.651
L147.676 314.904
L148.571 314.579
L149.465 314.051
L153.938 312.338
L155.727 311.446
L167.357 306.334
L169.146 305.672
L170.935 304.856
L171.83 304.343
L173.619 303.64
L174.514 303.146
L176.303 302.469
L178.092 301.504
L180.776 300.511
L183.46 299.323
L186.143 298.092
L190.616 295.995
L192.405 295.327
L194.195 294.513
L201.351 291.356
L203.141 290.636
L208.508 288.138
L212.086 286.667
L223.716 281.67
L227.294 280.255
L229.978 279.131
L231.767 278.385
L235.346 276.925
L236.24 276.576
L237.135 276.018
L238.029 275.74
L243.397 273.417
L248.765 271.143
L250.554 270.308
L253.238 269.246
L255.921 268.103
L256.816 267.612
L259.5 266.563
L260.394 266.074
L261.289 265.787
L263.078 264.982
L271.129 261.347
L272.024 261.017
L272.918 260.471
L280.97 256.891
L286.337 254.566
L289.021 253.283
L303.335 247.229
L309.597 244.723
L311.386 244.125
L313.175 243.401
L314.07 243.036
L314.964 242.471
L319.437 240.609
L321.226 239.72
L325.699 237.661
L326.594 237.36
L328.383 236.576
L333.751 234.347
L337.329 232.615
L340.907 231.259
L357.01 224.256
L360.588 222.789
L361.483 222.441
L363.272 221.54
L365.956 220.387
L372.218 217.688
L381.164 213.791
L382.058 213.302
L383.848 212.537
L385.637 211.738
L387.426 211.064
L390.11 209.913
L391.004 209.581
L391.899 209.121
L395.477 207.703
L397.266 206.802
L398.161 206.504
L399.95 205.705
L400.845 205.387
L402.634 204.584
L404.423 203.923
L406.212 203.239
L408.001 202.58
L409.791 201.813
L412.474 200.916
L416.947 199.027
L426.788 194.671
L428.577 193.836
L462.571 179.172
L464.361 178.369
L467.939 176.7
L469.728 175.914
L475.096 173.489
L475.096 173.489" style="fill:none;stroke:#bfbf00;stroke-linecap:square;"/>
   </g>
   <g id="line2d_7">
    <path clip-path="url(#p2118423672)" d="
M28.6956 368.739
L31.3794 367.903
L33.1686 367.226
L35.8523 366.202
L41.2199 364.209
L43.9036 363.243
L46.5874 362.323
L51.0604 360.81
L55.5333 359.317
L59.1117 358.161
L60.9008 357.552
L64.4792 356.253
L65.3738 355.881
L68.0575 355.044
L70.7413 354.009
L77.898 351.351
L84.1602 349.126
L86.8439 348.214
L88.6331 347.665
L94.8952 345.4
L96.6844 344.741
L98.4736 344.047
L107.419 341.159
L109.209 340.594
L110.998 339.914
L124.417 335.279
L125.311 335.032
L127.995 334.008
L132.468 332.535
L143.203 328.822
L144.992 328.267
L147.676 327.32
L150.36 326.517
L161.989 322.533
L163.779 321.93
L165.568 321.248
L177.197 317.484
L183.46 315.365
L185.249 314.809
L191.511 312.752
L192.405 312.509
L194.195 311.808
L195.984 311.319
L198.668 310.446
L200.457 309.816
L201.351 309.46
L203.141 308.922
L209.403 306.861
L215.665 304.93
L218.349 304.127
L220.138 303.467
L227.294 301.24
L231.767 299.683
L233.557 299.092
L240.713 296.664
L242.502 296.054
L245.186 295.122
L248.765 294.024
L250.554 293.396
L253.238 292.552
L261.289 290.115
L268.446 287.722
L270.235 287.082
L276.497 284.944
L280.075 283.784
L281.864 283.293
L283.654 282.751
L291.705 280.06
L292.599 279.622
L294.389 279.09
L297.967 278.028
L309.597 274.011
L311.386 273.426
L312.28 273.104
L314.07 272.636
L316.753 271.548
L321.226 270.096
L323.91 269.084
L331.067 266.754
L332.856 266.082
L335.54 265.201
L380.269 249.973
L381.164 249.713
L382.058 249.327
L383.848 248.746
L392.793 245.598
L396.372 244.429
L399.95 243.285
L401.739 242.741
L405.318 241.494
L408.896 240.403
L423.209 236.068
L426.788 234.977
L427.682 234.593
L429.472 234.03
L432.155 233.075
L433.945 232.577
L436.628 231.817
L440.207 230.763
L441.101 230.385
L443.785 229.593
L466.15 222.67
L468.834 221.796
L471.517 221.038
L474.201 220.197
L475.096 219.831
L475.096 219.831" style="fill:none;stroke:#000000;stroke-linecap:square;"/>
   </g>
   <g id="line2d_8">
    <path clip-path="url(#p2118423672)" d="
M28.6956 368.739
L34.0632 367.338
L43.9036 364.917
L51.9549 363.31
L54.6387 362.701
L63.5846 360.946
L65.3738 360.525
L72.5305 359.05
L77.898 357.935
L81.4764 357.12
L85.9493 356.179
L89.5277 355.396
L90.4223 355.097
L94.8952 354.24
L101.157 352.941
L179.881 336.236
L182.565 335.701
L191.511 333.785
L194.195 333.225
L199.562 332.114
L204.93 331.018
L207.613 330.417
L212.981 329.259
L217.454 328.358
L221.927 327.254
L224.611 326.755
L226.4 326.32
L235.346 324.571
L241.608 323.268
L244.292 322.658
L250.554 321.366
L261.289 319.315
L263.973 318.737
L271.129 317.25
L301.545 311.035
L307.807 309.699
L314.07 308.478
L316.753 307.915
L322.121 306.753
L325.699 305.995
L329.278 305.23
L347.169 301.392
L349.853 300.884
L355.221 299.747
L361.483 298.352
L370.429 296.386
L374.902 295.575
L376.691 295.163
L384.742 293.253
L394.583 291.271
L399.95 290.033
L405.318 288.971
L409.791 288.108
L414.264 287.278
L416.947 286.747
L428.577 284.374
L430.366 284.057
L432.155 283.655
L437.523 282.625
L441.101 281.854
L444.68 281.195
L451.836 279.632
L459.888 278.081
L474.201 275.214
L475.096 274.973
L475.096 274.973" style="fill:none;stroke:#0000ff;stroke-linecap:square;"/>
   </g>
   <g id="line2d_9">
    <path clip-path="url(#p2118423672)" d="
M28.6956 368.739
L32.274 367.988
L38.5361 366.936
L45.6928 365.497
L50.1658 364.757
L58.2171 363.367
L65.3738 362.279
L82.371 359.385
L84.1602 358.988
L93.106 357.46
L96.6844 356.782
L114.576 353.597
L119.944 352.824
L125.311 352.008
L149.465 347.749
L151.254 347.372
L165.568 345.054
L171.83 344.105
L179.881 342.791
L183.46 342.254
L192.405 340.843
L195.089 340.349
L198.668 339.777
L229.978 334.579
L241.608 332.739
L243.397 332.349
L263.078 329.133
L276.497 327.07
L279.181 326.634
L291.705 324.57
L294.389 324.075
L302.44 322.813
L311.386 321.251
L313.175 320.948
L322.121 319.538
L323.91 319.185
L328.383 318.476
L330.172 318.153
L347.169 315.568
L350.748 314.932
L357.904 313.831
L362.377 313.052
L365.061 312.63
L367.745 312.17
L394.583 307.908
L396.372 307.633
L402.634 306.594
L407.107 305.921
L410.685 305.347
L412.474 305.077
L438.417 300.995
L465.255 297.04
L469.728 296.258
L475.096 295.489
L475.096 295.489" style="fill:none;stroke:#008000;stroke-linecap:square;"/>
   </g>
   <g id="line2d_10">
    <path clip-path="url(#p2118423672)" d="
M28.6956 368.738
L33.1686 367.6
L37.6415 366.546
L39.4307 366.059
L43.9036 365.094
L46.5874 364.469
L50.1658 363.676
L66.2684 360.015
L90.4223 354.257
L94.8952 353.131
L118.155 347.411
L124.417 346.014
L133.363 343.64
L138.73 342.402
L140.519 341.94
L152.149 338.981
L153.938 338.407
L157.516 337.513
L159.306 337.062
L161.989 336.464
L168.252 334.975
L175.408 333.271
L181.67 331.611
L187.038 330.416
L190.616 329.577
L195.089 328.463
L200.457 327.244
L207.613 325.467
L209.403 325.031
L211.192 324.61
L225.505 321.193
L229.084 320.31
L232.662 319.535
L233.557 319.173
L236.24 318.546
L238.924 317.862
L245.186 316.381
L246.975 315.934
L249.659 315.288
L252.343 314.706
L254.132 314.157
L256.816 313.513
L258.605 313.081
L261.289 312.512
L281.864 307.271
L306.913 301.333
L310.491 300.526
L316.753 299.094
L338.223 294.243
L342.696 293.324
L347.169 292.281
L349.853 291.722
L353.431 290.878
L357.01 290.147
L358.799 289.676
L360.588 289.238
L364.167 288.484
L365.061 288.222
L368.64 287.541
L376.691 285.655
L380.269 284.824
L387.426 283.148
L425.893 274.204
L427.682 273.756
L437.523 271.65
L441.996 270.699
L446.469 269.821
L448.258 269.391
L462.571 266.385
L464.361 265.945
L467.939 265.258
L474.201 263.961
L475.096 263.803
L475.096 263.803" style="fill:none;stroke:#ff0000;stroke-linecap:square;"/>
   </g>
   <g id="line2d_11">
    <path clip-path="url(#p2118423672)" d="
M28.6956 368.738
L29.5902 368.363
L30.4848 368.105
L45.6928 363.538
L50.1658 362.52
L59.1117 360.452
L62.69 359.569
L65.3738 358.944
L68.9521 358.201
L82.371 355.172
L90.4223 353.524
L96.6844 352.014
L98.4736 351.519
L106.525 349.678
L108.314 349.247
L118.155 347.142
L120.838 346.582
L123.522 345.925
L129.784 344.669
L135.152 343.392
L137.836 342.823
L143.203 341.652
L147.676 340.653
L154.833 338.925
L157.516 338.29
L161.095 337.596
L174.514 334.681
L179.881 333.564
L185.249 332.4
L198.668 329.475
L203.141 328.483
L205.824 327.802
L209.403 327.033
L241.608 320.233
L243.397 319.737
L247.87 318.812
L251.448 317.946
L255.027 317.161
L257.71 316.54
L272.024 313.593
L274.708 312.993
L280.97 311.71
L287.232 310.457
L290.81 309.605
L300.651 307.668
L304.229 306.92
L306.913 306.412
L308.702 306.056
L322.121 303.323
L391.004 290.038
L396.372 288.996
L418.737 284.742
L422.315 284.214
L424.999 283.675
L433.05 281.868
L439.312 280.739
L470.623 274.885
L473.306 274.32
L475.096 274.007
L475.096 274.007" style="fill:none;stroke:#00bfbf;stroke-linecap:square;"/>
   </g>
   <g id="line2d_12">
    <path clip-path="url(#p2118423672)" d="
M28.6956 368.738
L35.8523 365.577
L36.7469 365.012
L43.0091 362.099
L45.6928 361.282
L49.2712 359.96
L60.9008 355.68
L63.5846 354.653
L65.3738 353.933
L74.3197 350.632
L77.0034 349.665
L81.4764 348.147
L85.0547 346.86
L91.3169 344.642
L116.365 335.451
L119.944 334.193
L121.733 333.569
L127.1 331.691
L131.573 330.169
L133.363 329.444
L136.941 328.307
L138.73 327.63
L146.781 324.796
L151.254 323.25
L153.044 322.599
L154.833 321.874
L160.2 319.909
L168.252 317.282
L170.041 316.584
L177.197 314.035
L184.354 311.677
L186.143 311.122
L193.3 308.822
L195.089 308.192
L196.878 307.66
L201.351 306.258
L212.981 302.227
L216.559 300.888
L221.032 299.46
L223.716 298.531
L225.505 297.926
L229.084 296.64
L233.557 295.143
L235.346 294.521
L239.819 293.183
L241.608 292.632
L243.397 291.917
L267.551 283.8
L268.446 283.536
L270.235 282.865
L277.391 280.348
L280.075 279.589
L282.759 278.701
L285.443 277.876
L289.916 276.445
L290.81 276.066
L293.494 275.217
L299.756 273.219
L319.437 266.903
L331.067 263.063
L331.961 262.809
L333.751 262.168
L335.54 261.616
L346.275 258.107
L348.064 257.603
L352.537 256.255
L361.483 253.698
L363.272 253.126
L368.64 251.533
L371.323 250.747
L374.007 249.972
L381.164 247.609
L382.953 247.021
L387.426 245.61
L396.372 242.986
L398.161 242.322
L399.95 241.85
L401.739 241.34
L402.634 240.935
L415.158 237.159
L416.947 236.621
L421.42 235.194
L424.999 233.99
L433.945 231.172
L436.628 230.48
L441.996 229.02
L445.574 227.865
L447.363 227.464
L449.153 226.94
L451.836 226.106
L453.625 225.584
L464.361 222.604
L467.044 221.906
L475.096 219.667
L475.096 219.667" style="fill:none;stroke:#bf00bf;stroke-linecap:square;"/>
   </g>
   <g id="line2d_13">
    <path clip-path="url(#p2118423672)" d="
M28.6956 368.738
L29.5902 368.308
L31.3794 367.286
L35.8523 365.109
L38.5361 363.863
L44.7982 360.374
L45.6928 359.77
L46.5874 359.374
L48.3766 358.439
L50.1658 357.611
L54.6387 355.647
L57.3225 354.383
L59.1117 353.707
L62.69 352.202
L65.3738 351.038
L67.163 350.157
L72.5305 347.77
L74.3197 346.873
L76.1089 346.056
L78.7926 344.903
L80.5818 344.137
L83.2656 342.86
L94.8952 337.774
L95.7898 337.326
L96.6844 337.017
L98.4736 335.949
L102.947 334.01
L103.841 333.683
L105.63 332.75
L108.314 331.506
L110.998 330.285
L118.155 327.129
L126.206 323.695
L131.573 321.263
L133.363 320.48
L135.152 319.615
L136.941 318.898
L139.625 317.561
L141.414 316.809
L143.203 316.057
L144.992 315.389
L170.935 304.061
L182.565 298.972
L184.354 298.32
L187.038 297.093
L189.722 295.976
L192.405 294.912
L193.3 294.415
L194.195 294.105
L195.089 293.634
L195.984 293.309
L197.773 292.452
L201.351 291.061
L204.93 289.53
L206.719 288.817
L209.403 287.76
L211.192 287.036
L212.086 286.777
L215.665 285.287
L238.029 276.724
L239.819 275.989
L247.87 272.767
L248.765 272.492
L249.659 271.967
L250.554 271.638
L252.343 270.844
L253.238 270.545
L255.027 269.722
L268.446 264.249
L269.34 263.822
L272.024 262.849
L273.813 262.025
L280.075 259.698
L282.759 258.694
L283.654 258.217
L286.337 257.183
L301.545 251.021
L303.335 250.457
L316.753 245.163
L321.226 243.405
L324.805 242.041
L327.488 241.045
L331.961 239.225
L333.751 238.497
L335.54 237.896
L357.01 229.389
L357.904 229.094
L359.694 228.305
L364.167 226.553
L365.061 226.129
L368.64 224.908
L370.429 224.132
L380.269 220.569
L386.531 218.112
L387.426 217.789
L388.32 217.332
L390.11 216.634
L391.899 215.861
L395.477 214.532
L405.318 210.721
L413.369 207.858
L416.053 206.739
L437.523 198.597
L438.417 198.361
L439.312 197.951
L442.89 196.829
L447.363 195.094
L449.153 194.441
L455.415 192.178
L458.993 191.032
L461.677 189.969
L464.361 189.171
L471.517 186.613
L475.096 185.569
L475.096 185.569" style="fill:none;stroke:#bfbf00;stroke-linecap:square;"/>
   </g>
   <g id="line2d_14">
    <path clip-path="url(#p2118423672)" d="
M28.6956 368.739
L32.274 366.503
L34.0632 365.337
L41.2199 360.872
L43.9036 359.109
L44.7982 358.522
L45.6928 357.759
L48.3766 356.1
L50.1658 355
L52.8495 353.127
L60.9008 348.547
L61.7954 348.104
L63.5846 346.906
L74.3197 339.989
L77.0034 338.135
L79.6872 336.631
L85.0547 333.071
L94.8952 327.01
L95.7898 326.537
L99.3682 324.182
L101.157 323.229
L109.209 318.103
L110.998 316.81
L116.365 313.507
L117.26 312.863
L118.155 312.361
L120.838 310.598
L126.206 307.263
L127.1 306.551
L129.784 304.834
L131.573 303.567
L133.363 302.352
L135.152 301.102
L136.046 300.655
L145.887 294.412
L146.781 293.934
L148.571 292.852
L149.465 292.295
L151.254 291.339
L152.149 290.766
L153.044 289.971
L153.938 289.505
L155.727 288.236
L170.041 279.404
L172.724 277.68
L173.619 277.18
L175.408 275.812
L187.038 268.723
L188.827 267.701
L191.511 266.033
L193.3 264.99
L194.195 264.43
L195.089 263.73
L195.984 263.313
L197.773 262.04
L202.246 259.373
L203.141 258.759
L205.824 257.329
L207.613 256.229
L209.403 255.279
L211.192 254.247
L212.981 253.27
L226.4 245.272
L238.029 238.816
L251.448 230.771
L253.238 229.82
L254.132 229.23
L255.027 228.78
L256.816 227.573
L259.5 226.22
L260.394 225.541
L266.656 222.223
L268.446 221.128
L269.34 220.452
L272.024 219.074
L273.813 217.755
L275.602 216.739
L278.286 215.094
L280.075 214.077
L282.759 212.655
L287.232 209.939
L289.021 208.713
L289.916 208.262
L290.81 207.614
L292.599 206.602
L294.389 205.574
L296.178 204.525
L317.648 191.75
L319.437 190.848
L323.91 188.115
L325.699 187.046
L327.488 186.063
L331.067 184.08
L339.118 179.004
L340.907 177.972
L343.591 176.408
L346.275 174.83
L351.642 171.777
L356.115 169.208
L359.694 167.118
L361.483 166.256
L365.956 163.395
L370.429 160.869
L372.218 160.004
L374.902 158.369
L378.48 156.24
L380.269 155.22
L383.848 153.06
L396.372 145.989
L399.056 144.294
L399.95 143.913
L411.58 137.137
L412.474 136.759
L416.053 134.704
L420.526 132.281
L431.261 126.126
L435.734 123.757
L436.628 123.169
L441.996 120.343
L443.785 119.251
L450.942 115.427
L451.836 114.801
L455.415 112.849
L456.309 112.286
L457.204 111.868
L459.888 110.345
L461.677 109.292
L463.466 108.436
L465.255 107.528
L467.939 105.768
L474.201 102.246
L475.096 101.806
L475.096 101.806" style="fill:none;stroke:#000000;stroke-linecap:square;"/>
   </g>
   <g id="line2d_15">
    <path clip-path="url(#p2118423672)" d="
M28.6956 368.738
L29.5902 368.007
L30.4848 367.397
L32.274 366.152
L34.0632 364.708
L35.8523 363.556
L37.6415 362.103
L41.2199 359.559
L43.9036 357.463
L45.6928 356.219
L53.7441 349.861
L55.5333 348.54
L57.3225 347.291
L63.5846 342.777
L70.7413 337.078
L74.3197 334.148
L77.0034 332.207
L79.6872 330.359
L84.1602 326.694
L86.8439 324.827
L88.6331 323.631
L91.3169 321.614
L94.0006 319.817
L95.7898 318.355
L96.6844 317.736
L97.579 316.896
L102.947 312.933
L103.841 312.364
L104.736 311.471
L118.155 301.839
L126.206 296.069
L127.1 295.308
L129.784 293.47
L131.573 292.076
L132.468 291.603
L134.257 290.36
L136.046 289.217
L142.308 283.99
L149.465 279.066
L151.254 277.77
L152.149 277.238
L157.516 273.257
L159.306 272.213
L161.989 270.41
L163.779 268.98
L169.146 265.321
L171.83 263.178
L174.514 261.444
L178.092 258.783
L180.776 257.009
L183.46 254.931
L185.249 253.726
L187.038 252.414
L190.616 250.092
L192.405 248.868
L193.3 248.123
L194.195 247.573
L195.984 246.327
L200.457 243.039
L204.035 240.672
L205.824 239.128
L208.508 237.337
L211.192 235.587
L212.086 235.119
L213.876 233.814
L217.454 231.407
L219.243 230.117
L221.032 228.865
L224.611 226.561
L226.4 225.341
L228.189 224.19
L229.978 223.033
L235.346 219.174
L236.24 218.59
L237.135 217.833
L239.819 216.196
L241.608 215.08
L242.502 214.302
L248.765 210.01
L251.448 207.818
L254.132 205.799
L255.027 205.236
L256.816 203.787
L258.605 202.607
L260.394 201.394
L263.078 199.659
L263.973 198.884
L267.551 196.494
L269.34 195.351
L270.235 194.637
L273.813 192.269
L275.602 190.969
L276.497 190.154
L288.126 182.061
L289.021 181.289
L303.335 171.779
L307.807 168.642
L314.07 164.604
L316.753 162.583
L322.121 158.855
L323.015 158.331
L323.91 157.653
L326.594 156.053
L328.383 154.752
L330.172 153.623
L340.013 146.637
L344.486 143.644
L346.275 142.27
L348.064 141.151
L353.431 137.47
L356.115 135.814
L359.694 133.147
L361.483 132.054
L365.061 129.524
L367.745 127.876
L371.323 125.37
L374.007 123.692
L378.48 120.326
L379.375 119.805
L382.058 117.681
L387.426 114.025
L389.215 112.848
L391.004 111.487
L401.739 104.307
L403.528 102.894
L408.001 100.267
L408.896 99.4594
L410.685 98.3812
L412.474 97.3156
L413.369 96.4677
L414.264 96.015
L417.842 93.6038
L420.526 91.5867
L422.315 90.513
L423.209 89.8506
L424.104 89.4094
L427.682 86.8232
L432.155 83.9224
L444.68 75.9598
L448.258 73.4196
L453.625 69.8162
L455.415 68.4822
L461.677 64.5043
L471.517 57.6822
L475.096 55.4968
L475.096 55.4968" style="fill:none;stroke:#0000ff;stroke-linecap:square;"/>
   </g>
   <g id="line2d_16">
    <path clip-path="url(#p2118423672)" d="
M28.6956 368.738
L33.1686 365.125
L38.5361 360.662
L43.0091 357.039
L44.7982 355.679
L47.482 353.257
L55.5333 346.818
L59.1117 344.507
L61.7954 342.349
L65.3738 339.726
L67.163 338.564
L68.9521 337.299
L74.3197 332.793
L78.7926 329.61
L79.6872 329.091
L81.4764 327.577
L83.2656 326.437
L84.1602 325.606
L90.4223 321.23
L92.2115 320.091
L93.106 319.496
L94.0006 318.632
L98.4736 315.594
L100.263 314.3
L102.052 313.293
L109.209 308.019
L110.103 307.2
L110.998 306.707
L112.787 305.258
L114.576 304.157
L119.944 300.537
L121.733 299.325
L125.311 296.859
L126.206 296.335
L127.995 295.031
L129.784 293.922
L130.679 293.159
L133.363 291.261
L139.625 286.556
L142.308 284.703
L152.149 278.188
L157.516 274.134
L167.357 268.017
L169.146 266.813
L170.041 266.36
L171.83 264.846
L174.514 262.996
L176.303 261.73
L180.776 259.013
L182.565 257.649
L184.354 256.519
L187.932 253.818
L189.722 252.733
L191.511 251.421
L192.405 250.931
L194.195 249.73
L195.984 248.719
L198.668 246.806
L204.035 243.201
L205.824 241.831
L210.297 239.057
L211.192 238.394
L212.981 237.231
L216.559 234.919
L218.349 233.896
L220.138 232.446
L221.032 232.067
L222.821 230.885
L226.4 228.689
L228.189 227.463
L229.084 226.762
L230.873 225.719
L233.557 223.907
L236.24 222.304
L239.819 219.633
L241.608 218.603
L243.397 217.171
L244.292 216.503
L246.975 214.881
L249.659 213.188
L255.921 209.227
L260.394 206.401
L262.183 205.324
L263.973 204.076
L266.656 202.407
L269.34 200.365
L272.024 198.695
L273.813 197.49
L275.602 196.43
L276.497 195.785
L278.286 194.749
L281.864 192.6
L283.654 191.293
L286.337 189.564
L291.705 185.892
L293.494 184.604
L295.283 183.603
L296.178 183.017
L297.072 182.595
L303.335 178.832
L305.124 177.775
L306.913 176.612
L311.386 173.996
L317.648 169.898
L319.437 168.895
L320.332 168.379
L323.015 166.471
L323.91 165.959
L325.699 164.693
L328.383 163.029
L330.172 161.823
L331.961 160.676
L334.645 158.991
L335.54 158.376
L337.329 157.451
L343.591 153.257
L345.38 151.973
L349.853 149.318
L350.748 148.578
L353.431 147.052
L355.221 145.968
L357.904 144.343
L360.588 142.503
L361.483 142.028
L362.377 141.354
L368.64 137.549
L369.534 136.879
L370.429 136.412
L372.218 135.268
L373.112 134.843
L378.48 131.393
L380.269 130.346
L382.058 128.948
L383.848 127.72
L393.688 121.491
L394.583 120.842
L395.477 120.383
L397.266 119.033
L399.95 117.458
L401.739 116.229
L402.634 115.505
L416.947 106.528
L417.842 105.959
L419.631 104.66
L432.155 96.1797
L433.945 95.0542
L438.417 92.2134
L441.101 90.2895
L441.996 89.7435
L444.68 87.7851
L448.258 85.3578
L450.047 84.4408
L450.942 83.8268
L452.731 82.7831
L458.098 79.5103
L462.571 76.5128
L475.096 68.2656
L475.096 68.2656" style="fill:none;stroke:#008000;stroke-linecap:square;"/>
   </g>
   <g id="patch_3">
    <path d="
M28.6956 23.1417
L475.096 23.1417" style="fill:none;stroke:#000000;stroke-linecap:square;stroke-linejoin:miter;"/>
   </g>
   <g id="patch_4">
    <path d="
M475.096 368.742
L475.096 23.1418" style="fill:none;stroke:#000000;stroke-linecap:square;stroke-linejoin:miter;"/>
   </g>
   <g id="patch_5">
    <path d="
M28.6956 368.742
L475.096 368.742" style="fill:none;stroke:#000000;stroke-linecap:square;stroke-linejoin:miter;"/>
   </g>
   <g id="patch_6">
    <path d="
M28.6956 368.742
L28.6956 23.1418" style="fill:none;stroke:#000000;stroke-linecap:square;stroke-linejoin:miter;"/>
   </g>
   <g id="matplotlib.axis_1">
    <g id="xtick_1">
     <g id="line2d_17">
      <defs>
       <path d="
M0 0
L0 -4" id="m93b0483c22" style="stroke:#000000;stroke-width:0.5;"/>
      </defs>
      <g>
       <use style="stroke:#000000;stroke-width:0.5;" x="28.695625" xlink:href="#m93b0483c22" y="368.74175"/>
      </g>
     </g>
     <g id="line2d_18">
      <defs>
       <path d="
M0 0
L0 4" id="m741efc42ff" style="stroke:#000000;stroke-width:0.5;"/>
      </defs>
      <g>
       <use style="stroke:#000000;stroke-width:0.5;" x="28.695625" xlink:href="#m741efc42ff" y="23.14175"/>
      </g>
     </g>
     <g id="text_1">
      <!-- 0 -->
      <defs>
       <path d="
M31.7812 66.4062
Q24.1719 66.4062 20.3281 58.9062
Q16.5 51.4219 16.5 36.375
Q16.5 21.3906 20.3281 13.8906
Q24.1719 6.39062 31.7812 6.39062
Q39.4531 6.39062 43.2812 13.8906
Q47.125 21.3906 47.125 36.375
Q47.125 51.4219 43.2812 58.9062
Q39.4531 66.4062 31.7812 66.4062
M31.7812 74.2188
Q44.0469 74.2188 50.5156 64.5156
Q56.9844 54.8281 56.9844 36.375
Q56.9844 17.9688 50.5156 8.26562
Q44.0469 -1.42188 31.7812 -1.42188
Q19.5312 -1.42188 13.0625 8.26562
Q6.59375 17.9688 6.59375 36.375
Q6.59375 54.8281 13.0625 64.5156
Q19.5312 74.2188 31.7812 74.2188" id="DejaVuSans-30"/>
      </defs>
      <g transform="translate(25.6721875 381.859875)scale(0.12 -0.12)">
       <use xlink:href="#DejaVuSans-30"/>
      </g>
     </g>
    </g>
    <g id="xtick_2">
     <g id="line2d_19">
      <g>
       <use style="stroke:#000000;stroke-width:0.5;" x="118.154542836" xlink:href="#m93b0483c22" y="368.74175"/>
      </g>
     </g>
     <g id="line2d_20">
      <g>
       <use style="stroke:#000000;stroke-width:0.5;" x="118.154542836" xlink:href="#m741efc42ff" y="23.14175"/>
      </g>
     </g>
     <g id="text_2">
      <!-- 100 -->
      <defs>
       <path d="
M12.4062 8.29688
L28.5156 8.29688
L28.5156 63.9219
L10.9844 60.4062
L10.9844 69.3906
L28.4219 72.9062
L38.2812 72.9062
L38.2812 8.29688
L54.3906 8.29688
L54.3906 0
L12.4062 0
z
" id="DejaVuSans-31"/>
      </defs>
      <g transform="translate(107.759542836 381.859875)scale(0.12 -0.12)">
       <use xlink:href="#DejaVuSans-31"/>
       <use x="63.623046875" xlink:href="#DejaVuSans-30"/>
       <use x="127.24609375" xlink:href="#DejaVuSans-30"/>
      </g>
     </g>
    </g>
    <g id="xtick_3">
     <g id="line2d_21">
      <g>
       <use style="stroke:#000000;stroke-width:0.5;" x="207.613460671" xlink:href="#m93b0483c22" y="368.74175"/>
      </g>
     </g>
     <g id="line2d_22">
      <g>
       <use style="stroke:#000000;stroke-width:0.5;" x="207.613460671" xlink:href="#m741efc42ff" y="23.14175"/>
      </g>
     </g>
     <g id="text_3">
      <!-- 200 -->
      <defs>
       <path d="
M19.1875 8.29688
L53.6094 8.29688
L53.6094 0
L7.32812 0
L7.32812 8.29688
Q12.9375 14.1094 22.625 23.8906
Q32.3281 33.6875 34.8125 36.5312
Q39.5469 41.8438 41.4219 45.5312
Q43.3125 49.2188 43.3125 52.7812
Q43.3125 58.5938 39.2344 62.25
Q35.1562 65.9219 28.6094 65.9219
Q23.9688 65.9219 18.8125 64.3125
Q13.6719 62.7031 7.8125 59.4219
L7.8125 69.3906
Q13.7656 71.7812 18.9375 73
Q24.125 74.2188 28.4219 74.2188
Q39.75 74.2188 46.4844 68.5469
Q53.2188 62.8906 53.2188 53.4219
Q53.2188 48.9219 51.5312 44.8906
Q49.8594 40.875 45.4062 35.4062
Q44.1875 33.9844 37.6406 27.2188
Q31.1094 20.4531 19.1875 8.29688" id="DejaVuSans-32"/>
      </defs>
      <g transform="translate(196.999085671 381.859875)scale(0.12 -0.12)">
       <use xlink:href="#DejaVuSans-32"/>
       <use x="63.623046875" xlink:href="#DejaVuSans-30"/>
       <use x="127.24609375" xlink:href="#DejaVuSans-30"/>
      </g>
     </g>
    </g>
    <g id="xtick_4">
     <g id="line2d_23">
      <g>
       <use style="stroke:#000000;stroke-width:0.5;" x="297.072378507" xlink:href="#m93b0483c22" y="368.74175"/>
      </g>
     </g>
     <g id="line2d_24">
      <g>
       <use style="stroke:#000000;stroke-width:0.5;" x="297.072378507" xlink:href="#m741efc42ff" y="23.14175"/>
      </g>
     </g>
     <g id="text_4">
      <!-- 300 -->
      <defs>
       <path d="
M40.5781 39.3125
Q47.6562 37.7969 51.625 33
Q55.6094 28.2188 55.6094 21.1875
Q55.6094 10.4062 48.1875 4.48438
Q40.7656 -1.42188 27.0938 -1.42188
Q22.5156 -1.42188 17.6562 -0.515625
Q12.7969 0.390625 7.625 2.20312
L7.625 11.7188
Q11.7188 9.32812 16.5938 8.10938
Q21.4844 6.89062 26.8125 6.89062
Q36.0781 6.89062 40.9375 10.5469
Q45.7969 14.2031 45.7969 21.1875
Q45.7969 27.6406 41.2812 31.2656
Q36.7656 34.9062 28.7188 34.9062
L20.2188 34.9062
L20.2188 43.0156
L29.1094 43.0156
Q36.375 43.0156 40.2344 45.9219
Q44.0938 48.8281 44.0938 54.2969
Q44.0938 59.9062 40.1094 62.9062
Q36.1406 65.9219 28.7188 65.9219
Q24.6562 65.9219 20.0156 65.0312
Q15.375 64.1562 9.8125 62.3125
L9.8125 71.0938
Q15.4375 72.6562 20.3438 73.4375
Q25.25 74.2188 29.5938 74.2188
Q40.8281 74.2188 47.3594 69.1094
Q53.9062 64.0156 53.9062 55.3281
Q53.9062 49.2656 50.4375 45.0938
Q46.9688 40.9219 40.5781 39.3125" id="DejaVuSans-33"/>
      </defs>
      <g transform="translate(286.475816007 381.859875)scale(0.12 -0.12)">
       <use xlink:href="#DejaVuSans-33"/>
       <use x="63.623046875" xlink:href="#DejaVuSans-30"/>
       <use x="127.24609375" xlink:href="#DejaVuSans-30"/>
      </g>
     </g>
    </g>
    <g id="xtick_5">
     <g id="line2d_25">
      <g>
       <use style="stroke:#000000;stroke-width:0.5;" x="386.531296343" xlink:href="#m93b0483c22" y="368.74175"/>
      </g>
     </g>
     <g id="line2d_26">
      <g>
       <use style="stroke:#000000;stroke-width:0.5;" x="386.531296343" xlink:href="#m741efc42ff" y="23.14175"/>
      </g>
     </g>
     <g id="text_5">
      <!-- 400 -->
      <defs>
       <path d="
M37.7969 64.3125
L12.8906 25.3906
L37.7969 25.3906
z

M35.2031 72.9062
L47.6094 72.9062
L47.6094 25.3906
L58.0156 25.3906
L58.0156 17.1875
L47.6094 17.1875
L47.6094 0
L37.7969 0
L37.7969 17.1875
L4.89062 17.1875
L4.89062 26.7031
z
" id="DejaVuSans-34"/>
      </defs>
      <g transform="translate(375.770671343 381.859875)scale(0.12 -0.12)">
       <use xlink:href="#DejaVuSans-34"/>
       <use x="63.623046875" xlink:href="#DejaVuSans-30"/>
       <use x="127.24609375" xlink:href="#DejaVuSans-30"/>
      </g>
     </g>
    </g>
    <g id="text_6">
     <!-- time -->
     <defs>
      <path d="
M18.3125 70.2188
L18.3125 54.6875
L36.8125 54.6875
L36.8125 47.7031
L18.3125 47.7031
L18.3125 18.0156
Q18.3125 11.3281 20.1406 9.42188
Q21.9688 7.51562 27.5938 7.51562
L36.8125 7.51562
L36.8125 0
L27.5938 0
Q17.1875 0 13.2344 3.875
Q9.28125 7.76562 9.28125 18.0156
L9.28125 47.7031
L2.6875 47.7031
L2.6875 54.6875
L9.28125 54.6875
L9.28125 70.2188
z
" id="DejaVuSans-74"/>
      <path d="
M52 44.1875
Q55.375 50.25 60.0625 53.125
Q64.75 56 71.0938 56
Q79.6406 56 84.2812 50.0156
Q88.9219 44.0469 88.9219 33.0156
L88.9219 0
L79.8906 0
L79.8906 32.7188
Q79.8906 40.5781 77.0938 44.375
Q74.3125 48.1875 68.6094 48.1875
Q61.625 48.1875 57.5625 43.5469
Q53.5156 38.9219 53.5156 30.9062
L53.5156 0
L44.4844 0
L44.4844 32.7188
Q44.4844 40.625 41.7031 44.4062
Q38.9219 48.1875 33.1094 48.1875
Q26.2188 48.1875 22.1562 43.5312
Q18.1094 38.875 18.1094 30.9062
L18.1094 0
L9.07812 0
L9.07812 54.6875
L18.1094 54.6875
L18.1094 46.1875
Q21.1875 51.2188 25.4844 53.6094
Q29.7812 56 35.6875 56
Q41.6562 56 45.8281 52.9688
Q50 49.9531 52 44.1875" id="DejaVuSans-6d"/>
      <path d="
M56.2031 29.5938
L56.2031 25.2031
L14.8906 25.2031
Q15.4844 15.9219 20.4844 11.0625
Q25.4844 6.20312 34.4219 6.20312
Q39.5938 6.20312 44.4531 7.46875
Q49.3125 8.73438 54.1094 11.2812
L54.1094 2.78125
Q49.2656 0.734375 44.1875 -0.34375
Q39.1094 -1.42188 33.8906 -1.42188
Q20.7969 -1.42188 13.1562 6.1875
Q5.51562 13.8125 5.51562 26.8125
Q5.51562 40.2344 12.7656 48.1094
Q20.0156 56 32.3281 56
Q43.3594 56 49.7812 48.8906
Q56.2031 41.7969 56.2031 29.5938
M47.2188 32.2344
Q47.125 39.5938 43.0938 43.9844
Q39.0625 48.3906 32.4219 48.3906
Q24.9062 48.3906 20.3906 44.1406
Q15.875 39.8906 15.1875 32.1719
z
" id="DejaVuSans-65"/>
      <path d="
M9.42188 54.6875
L18.4062 54.6875
L18.4062 0
L9.42188 0
z

M9.42188 75.9844
L18.4062 75.9844
L18.4062 64.5938
L9.42188 64.5938
z
" id="DejaVuSans-69"/>
     </defs>
     <g transform="translate(238.82125 398.473625)scale(0.12 -0.12)">
      <use xlink:href="#DejaVuSans-74"/>
      <use x="39.208984375" xlink:href="#DejaVuSans-69"/>
      <use x="66.9921875" xlink:href="#DejaVuSans-6d"/>
      <use x="164.404296875" xlink:href="#DejaVuSans-65"/>
     </g>
    </g>
   </g>
   <g id="matplotlib.axis_2">
    <g id="ytick_1">
     <g id="line2d_27">
      <defs>
       <path d="
M0 0
L4 0" id="m728421d6d4" style="stroke:#000000;stroke-width:0.5;"/>
      </defs>
      <g>
       <use style="stroke:#000000;stroke-width:0.5;" x="28.695625" xlink:href="#m728421d6d4" y="368.74175"/>
      </g>
     </g>
     <g id="line2d_28">
      <defs>
       <path d="
M0 0
L-4 0" id="mcb0005524f" style="stroke:#000000;stroke-width:0.5;"/>
      </defs>
      <g>
       <use style="stroke:#000000;stroke-width:0.5;" x="475.095625" xlink:href="#mcb0005524f" y="368.74175"/>
      </g>
     </g>
     <g id="text_7">
      <!-- 0.0 -->
      <defs>
       <path d="
M10.6875 12.4062
L21 12.4062
L21 0
L10.6875 0
z
" id="DejaVuSans-2e"/>
      </defs>
      <g transform="translate(7.2 372.053)scale(0.12 -0.12)">
       <use xlink:href="#DejaVuSans-30"/>
       <use x="63.623046875" xlink:href="#DejaVuSans-2e"/>
       <use x="95.41015625" xlink:href="#DejaVuSans-30"/>
      </g>
     </g>
    </g>
    <g id="ytick_2">
     <g id="line2d_29">
      <g>
       <use style="stroke:#000000;stroke-width:0.5;" x="28.695625" xlink:href="#m728421d6d4" y="311.14175"/>
      </g>
     </g>
     <g id="line2d_30">
      <g>
       <use style="stroke:#000000;stroke-width:0.5;" x="475.095625" xlink:href="#mcb0005524f" y="311.14175"/>
      </g>
     </g>
     <g id="text_8">
      <!-- 0.5 -->
      <defs>
       <path d="
M10.7969 72.9062
L49.5156 72.9062
L49.5156 64.5938
L19.8281 64.5938
L19.8281 46.7344
Q21.9688 47.4688 24.1094 47.8281
Q26.2656 48.1875 28.4219 48.1875
Q40.625 48.1875 47.75 41.5
Q54.8906 34.8125 54.8906 23.3906
Q54.8906 11.625 47.5625 5.09375
Q40.2344 -1.42188 26.9062 -1.42188
Q22.3125 -1.42188 17.5469 -0.640625
Q12.7969 0.140625 7.71875 1.70312
L7.71875 11.625
Q12.1094 9.23438 16.7969 8.0625
Q21.4844 6.89062 26.7031 6.89062
Q35.1562 6.89062 40.0781 11.3281
Q45.0156 15.7656 45.0156 23.3906
Q45.0156 31 40.0781 35.4375
Q35.1562 39.8906 26.7031 39.8906
Q22.75 39.8906 18.8125 39.0156
Q14.8906 38.1406 10.7969 36.2812
z
" id="DejaVuSans-35"/>
      </defs>
      <g transform="translate(7.45125 314.453)scale(0.12 -0.12)">
       <use xlink:href="#DejaVuSans-30"/>
       <use x="63.623046875" xlink:href="#DejaVuSans-2e"/>
       <use x="95.41015625" xlink:href="#DejaVuSans-35"/>
      </g>
     </g>
    </g>
    <g id="ytick_3">
     <g id="line2d_31">
      <g>
       <use style="stroke:#000000;stroke-width:0.5;" x="28.695625" xlink:href="#m728421d6d4" y="253.54175"/>
      </g>
     </g>
     <g id="line2d_32">
      <g>
       <use style="stroke:#000000;stroke-width:0.5;" x="475.095625" xlink:href="#mcb0005524f" y="253.54175"/>
      </g>
     </g>
     <g id="text_9">
      <!-- 1.0 -->
      <g transform="translate(7.726875 256.853)scale(0.12 -0.12)">
       <use xlink:href="#DejaVuSans-31"/>
       <use x="63.623046875" xlink:href="#DejaVuSans-2e"/>
       <use x="95.41015625" xlink:href="#DejaVuSans-30"/>
      </g>
     </g>
    </g>
    <g id="ytick_4">
     <g id="line2d_33">
      <g>
       <use style="stroke:#000000;stroke-width:0.5;" x="28.695625" xlink:href="#m728421d6d4" y="195.94175"/>
      </g>
     </g>
     <g id="line2d_34">
      <g>
       <use style="stroke:#000000;stroke-width:0.5;" x="475.095625" xlink:href="#mcb0005524f" y="195.94175"/>
      </g>
     </g>
     <g id="text_10">
      <!-- 1.5 -->
      <g transform="translate(7.978125 199.253)scale(0.12 -0.12)">
       <use xlink:href="#DejaVuSans-31"/>
       <use x="63.623046875" xlink:href="#DejaVuSans-2e"/>
       <use x="95.41015625" xlink:href="#DejaVuSans-35"/>
      </g>
     </g>
    </g>
    <g id="ytick_5">
     <g id="line2d_35">
      <g>
       <use style="stroke:#000000;stroke-width:0.5;" x="28.695625" xlink:href="#m728421d6d4" y="138.34175"/>
      </g>
     </g>
     <g id="line2d_36">
      <g>
       <use style="stroke:#000000;stroke-width:0.5;" x="475.095625" xlink:href="#mcb0005524f" y="138.34175"/>
      </g>
     </g>
     <g id="text_11">
      <!-- 2.0 -->
      <g transform="translate(7.288125 141.653)scale(0.12 -0.12)">
       <use xlink:href="#DejaVuSans-32"/>
       <use x="63.623046875" xlink:href="#DejaVuSans-2e"/>
       <use x="95.41015625" xlink:href="#DejaVuSans-30"/>
      </g>
     </g>
    </g>
    <g id="ytick_6">
     <g id="line2d_37">
      <g>
       <use style="stroke:#000000;stroke-width:0.5;" x="28.695625" xlink:href="#m728421d6d4" y="80.74175"/>
      </g>
     </g>
     <g id="line2d_38">
      <g>
       <use style="stroke:#000000;stroke-width:0.5;" x="475.095625" xlink:href="#mcb0005524f" y="80.74175"/>
      </g>
     </g>
     <g id="text_12">
      <!-- 2.5 -->
      <g transform="translate(7.539375 84.053)scale(0.12 -0.12)">
       <use xlink:href="#DejaVuSans-32"/>
       <use x="63.623046875" xlink:href="#DejaVuSans-2e"/>
       <use x="95.41015625" xlink:href="#DejaVuSans-35"/>
      </g>
     </g>
    </g>
    <g id="ytick_7">
     <g id="line2d_39">
      <g>
       <use style="stroke:#000000;stroke-width:0.5;" x="28.695625" xlink:href="#m728421d6d4" y="23.14175"/>
      </g>
     </g>
     <g id="line2d_40">
      <g>
       <use style="stroke:#000000;stroke-width:0.5;" x="475.095625" xlink:href="#mcb0005524f" y="23.14175"/>
      </g>
     </g>
     <g id="text_13">
      <!-- 3.0 -->
      <g transform="translate(7.32375 26.453)scale(0.12 -0.12)">
       <use xlink:href="#DejaVuSans-33"/>
       <use x="63.623046875" xlink:href="#DejaVuSans-2e"/>
       <use x="95.41015625" xlink:href="#DejaVuSans-30"/>
      </g>
     </g>
    </g>
    <g id="text_14">
     <!-- 1e11 -->
     <g transform="translate(28.695625 20.14175)scale(0.12 -0.12)">
      <use xlink:href="#DejaVuSans-31"/>
      <use x="63.623046875" xlink:href="#DejaVuSans-65"/>
      <use x="125.146484375" xlink:href="#DejaVuSans-31"/>
      <use x="188.76953125" xlink:href="#DejaVuSans-31"/>
     </g>
    </g>
   </g>
   <g id="text_15">
    <!-- /data/time/mpi/received -->
    <defs>
     <path d="
M2.98438 54.6875
L12.5 54.6875
L29.5938 8.79688
L46.6875 54.6875
L56.2031 54.6875
L35.6875 0
L23.4844 0
z
" id="DejaVuSans-76"/>
     <path d="
M25.3906 72.9062
L33.6875 72.9062
L8.29688 -9.28125
L0 -9.28125
z
" id="DejaVuSans-2f"/>
     <path d="
M18.1094 8.20312
L18.1094 -20.7969
L9.07812 -20.7969
L9.07812 54.6875
L18.1094 54.6875
L18.1094 46.3906
Q20.9531 51.2656 25.2656 53.625
Q29.5938 56 35.5938 56
Q45.5625 56 51.7812 48.0938
Q58.0156 40.1875 58.0156 27.2969
Q58.0156 14.4062 51.7812 6.48438
Q45.5625 -1.42188 35.5938 -1.42188
Q29.5938 -1.42188 25.2656 0.953125
Q20.9531 3.32812 18.1094 8.20312
M48.6875 27.2969
Q48.6875 37.2031 44.6094 42.8438
Q40.5312 48.4844 33.4062 48.4844
Q26.2656 48.4844 22.1875 42.8438
Q18.1094 37.2031 18.1094 27.2969
Q18.1094 17.3906 22.1875 11.75
Q26.2656 6.10938 33.4062 6.10938
Q40.5312 6.10938 44.6094 11.75
Q48.6875 17.3906 48.6875 27.2969" id="DejaVuSans-70"/>
     <path d="
M45.4062 46.3906
L45.4062 75.9844
L54.3906 75.9844
L54.3906 0
L45.4062 0
L45.4062 8.20312
Q42.5781 3.32812 38.25 0.953125
Q33.9375 -1.42188 27.875 -1.42188
Q17.9688 -1.42188 11.7344 6.48438
Q5.51562 14.4062 5.51562 27.2969
Q5.51562 40.1875 11.7344 48.0938
Q17.9688 56 27.875 56
Q33.9375 56 38.25 53.625
Q42.5781 51.2656 45.4062 46.3906
M14.7969 27.2969
Q14.7969 17.3906 18.875 11.75
Q22.9531 6.10938 30.0781 6.10938
Q37.2031 6.10938 41.2969 11.75
Q45.4062 17.3906 45.4062 27.2969
Q45.4062 37.2031 41.2969 42.8438
Q37.2031 48.4844 30.0781 48.4844
Q22.9531 48.4844 18.875 42.8438
Q14.7969 37.2031 14.7969 27.2969" id="DejaVuSans-64"/>
     <path d="
M34.2812 27.4844
Q23.3906 27.4844 19.1875 25
Q14.9844 22.5156 14.9844 16.5
Q14.9844 11.7188 18.1406 8.90625
Q21.2969 6.10938 26.7031 6.10938
Q34.1875 6.10938 38.7031 11.4062
Q43.2188 16.7031 43.2188 25.4844
L43.2188 27.4844
z

M52.2031 31.2031
L52.2031 0
L43.2188 0
L43.2188 8.29688
Q40.1406 3.32812 35.5469 0.953125
Q30.9531 -1.42188 24.3125 -1.42188
Q15.9219 -1.42188 10.9531 3.29688
Q6 8.01562 6 15.9219
Q6 25.1406 12.1719 29.8281
Q18.3594 34.5156 30.6094 34.5156
L43.2188 34.5156
L43.2188 35.4062
Q43.2188 41.6094 39.1406 45
Q35.0625 48.3906 27.6875 48.3906
Q23 48.3906 18.5469 47.2656
Q14.1094 46.1406 10.0156 43.8906
L10.0156 52.2031
Q14.9375 54.1094 19.5781 55.0469
Q24.2188 56 28.6094 56
Q40.4844 56 46.3438 49.8438
Q52.2031 43.7031 52.2031 31.2031" id="DejaVuSans-61"/>
     <path d="
M48.7812 52.5938
L48.7812 44.1875
Q44.9688 46.2969 41.1406 47.3438
Q37.3125 48.3906 33.4062 48.3906
Q24.6562 48.3906 19.8125 42.8438
Q14.9844 37.3125 14.9844 27.2969
Q14.9844 17.2812 19.8125 11.7344
Q24.6562 6.20312 33.4062 6.20312
Q37.3125 6.20312 41.1406 7.25
Q44.9688 8.29688 48.7812 10.4062
L48.7812 2.09375
Q45.0156 0.34375 40.9844 -0.53125
Q36.9688 -1.42188 32.4219 -1.42188
Q20.0625 -1.42188 12.7812 6.34375
Q5.51562 14.1094 5.51562 27.2969
Q5.51562 40.6719 12.8594 48.3281
Q20.2188 56 33.0156 56
Q37.1562 56 41.1094 55.1406
Q45.0625 54.2969 48.7812 52.5938" id="DejaVuSans-63"/>
     <path d="
M41.1094 46.2969
Q39.5938 47.1719 37.8125 47.5781
Q36.0312 48 33.8906 48
Q26.2656 48 22.1875 43.0469
Q18.1094 38.0938 18.1094 28.8125
L18.1094 0
L9.07812 0
L9.07812 54.6875
L18.1094 54.6875
L18.1094 46.1875
Q20.9531 51.1719 25.4844 53.5781
Q30.0312 56 36.5312 56
Q37.4531 56 38.5781 55.875
Q39.7031 55.7656 41.0625 55.5156
z
" id="DejaVuSans-72"/>
    </defs>
    <g transform="translate(165.8995 18.14175)scale(0.144 -0.144)">
     <use xlink:href="#DejaVuSans-2f"/>
     <use x="33.69140625" xlink:href="#DejaVuSans-64"/>
     <use x="97.16796875" xlink:href="#DejaVuSans-61"/>
     <use x="158.447265625" xlink:href="#DejaVuSans-74"/>
     <use x="197.65625" xlink:href="#DejaVuSans-61"/>
     <use x="258.935546875" xlink:href="#DejaVuSans-2f"/>
     <use x="292.626953125" xlink:href="#DejaVuSans-74"/>
     <use x="331.8359375" xlink:href="#DejaVuSans-69"/>
     <use x="359.619140625" xlink:href="#DejaVuSans-6d"/>
     <use x="457.03125" xlink:href="#DejaVuSans-65"/>
     <use x="518.5546875" xlink:href="#DejaVuSans-2f"/>
     <use x="552.24609375" xlink:href="#DejaVuSans-6d"/>
     <use x="649.658203125" xlink:href="#DejaVuSans-70"/>
     <use x="713.134765625" xlink:href="#DejaVuSans-69"/>
     <use x="740.91796875" xlink:href="#DejaVuSans-2f"/>
     <use x="774.609375" xlink:href="#DejaVuSans-72"/>
     <use x="813.47265625" xlink:href="#DejaVuSans-65"/>
     <use x="874.99609375" xlink:href="#DejaVuSans-63"/>
     <use x="929.9765625" xlink:href="#DejaVuSans-65"/>
     <use x="991.5" xlink:href="#DejaVuSans-69"/>
     <use x="1019.28320312" xlink:href="#DejaVuSans-76"/>
     <use x="1078.46289062" xlink:href="#DejaVuSans-65"/>
     <use x="1139.98632812" xlink:href="#DejaVuSans-64"/>
    </g>
   </g>
   <g id="legend_1">
    <g id="patch_7">
     <path d="
M482.296 367.194
L614.085 367.194
L614.085 24.6897
L482.296 24.6897
z
" style="fill:#ffffff;stroke:#000000;stroke-linejoin:miter;"/>
    </g>
    <g id="line2d_41">
     <path d="
M492.376 36.3515
L512.536 36.3515" style="fill:none;stroke:#0000ff;stroke-linecap:square;"/>
    </g>
    <g id="line2d_42"/>
    <g id="text_16">
     <!-- locality#0 -->
     <defs>
      <path d="
M30.6094 48.3906
Q23.3906 48.3906 19.1875 42.75
Q14.9844 37.1094 14.9844 27.2969
Q14.9844 17.4844 19.1562 11.8438
Q23.3438 6.20312 30.6094 6.20312
Q37.7969 6.20312 41.9844 11.8594
Q46.1875 17.5312 46.1875 27.2969
Q46.1875 37.0156 41.9844 42.7031
Q37.7969 48.3906 30.6094 48.3906
M30.6094 56
Q42.3281 56 49.0156 48.375
Q55.7188 40.7656 55.7188 27.2969
Q55.7188 13.875 49.0156 6.21875
Q42.3281 -1.42188 30.6094 -1.42188
Q18.8438 -1.42188 12.1719 6.21875
Q5.51562 13.875 5.51562 27.2969
Q5.51562 40.7656 12.1719 48.375
Q18.8438 56 30.6094 56" id="DejaVuSans-6f"/>
      <path d="
M51.125 44
L36.9219 44
L32.8125 27.6875
L47.125 27.6875
z

M43.7969 71.7812
L38.7188 51.5156
L52.9844 51.5156
L58.1094 71.7812
L65.9219 71.7812
L60.8906 51.5156
L76.125 51.5156
L76.125 44
L58.9844 44
L54.9844 27.6875
L70.5156 27.6875
L70.5156 20.2188
L53.0781 20.2188
L48 0
L40.1875 0
L45.2188 20.2188
L30.9062 20.2188
L25.875 0
L18.0156 0
L23.0938 20.2188
L7.71875 20.2188
L7.71875 27.6875
L24.9062 27.6875
L29 44
L13.2812 44
L13.2812 51.5156
L30.9062 51.5156
L35.8906 71.7812
z
" id="DejaVuSans-23"/>
      <path d="
M32.1719 -5.07812
Q28.375 -14.8438 24.75 -17.8125
Q21.1406 -20.7969 15.0938 -20.7969
L7.90625 -20.7969
L7.90625 -13.2812
L13.1875 -13.2812
Q16.8906 -13.2812 18.9375 -11.5156
Q21 -9.76562 23.4844 -3.21875
L25.0938 0.875
L2.98438 54.6875
L12.5 54.6875
L29.5938 11.9219
L46.6875 54.6875
L56.2031 54.6875
z
" id="DejaVuSans-79"/>
      <path d="
M9.42188 75.9844
L18.4062 75.9844
L18.4062 0
L9.42188 0
z
" id="DejaVuSans-6c"/>
     </defs>
     <g transform="translate(528.375625 41.3915)scale(0.144 -0.144)">
      <use xlink:href="#DejaVuSans-6c"/>
      <use x="27.783203125" xlink:href="#DejaVuSans-6f"/>
      <use x="88.96484375" xlink:href="#DejaVuSans-63"/>
      <use x="143.9453125" xlink:href="#DejaVuSans-61"/>
      <use x="205.224609375" xlink:href="#DejaVuSans-6c"/>
      <use x="233.0078125" xlink:href="#DejaVuSans-69"/>
      <use x="260.791015625" xlink:href="#DejaVuSans-74"/>
      <use x="300.0" xlink:href="#DejaVuSans-79"/>
      <use x="359.1796875" xlink:href="#DejaVuSans-23"/>
      <use x="442.96875" xlink:href="#DejaVuSans-30"/>
     </g>
    </g>
    <g id="line2d_43">
     <path d="
M492.376 57.488
L512.536 57.488" style="fill:none;stroke:#008000;stroke-linecap:square;"/>
    </g>
    <g id="line2d_44"/>
    <g id="text_17">
     <!-- locality#1 -->
     <g transform="translate(528.375625 62.528)scale(0.144 -0.144)">
      <use xlink:href="#DejaVuSans-6c"/>
      <use x="27.783203125" xlink:href="#DejaVuSans-6f"/>
      <use x="88.96484375" xlink:href="#DejaVuSans-63"/>
      <use x="143.9453125" xlink:href="#DejaVuSans-61"/>
      <use x="205.224609375" xlink:href="#DejaVuSans-6c"/>
      <use x="233.0078125" xlink:href="#DejaVuSans-69"/>
      <use x="260.791015625" xlink:href="#DejaVuSans-74"/>
      <use x="300.0" xlink:href="#DejaVuSans-79"/>
      <use x="359.1796875" xlink:href="#DejaVuSans-23"/>
      <use x="442.96875" xlink:href="#DejaVuSans-31"/>
     </g>
    </g>
    <g id="line2d_45">
     <path d="
M492.376 78.6245
L512.536 78.6245" style="fill:none;stroke:#ff0000;stroke-linecap:square;"/>
    </g>
    <g id="line2d_46"/>
    <g id="text_18">
     <!-- locality#10 -->
     <g transform="translate(528.375625 83.6645)scale(0.144 -0.144)">
      <use xlink:href="#DejaVuSans-6c"/>
      <use x="27.783203125" xlink:href="#DejaVuSans-6f"/>
      <use x="88.96484375" xlink:href="#DejaVuSans-63"/>
      <use x="143.9453125" xlink:href="#DejaVuSans-61"/>
      <use x="205.224609375" xlink:href="#DejaVuSans-6c"/>
      <use x="233.0078125" xlink:href="#DejaVuSans-69"/>
      <use x="260.791015625" xlink:href="#DejaVuSans-74"/>
      <use x="300.0" xlink:href="#DejaVuSans-79"/>
      <use x="359.1796875" xlink:href="#DejaVuSans-23"/>
      <use x="442.96875" xlink:href="#DejaVuSans-31"/>
      <use x="506.591796875" xlink:href="#DejaVuSans-30"/>
     </g>
    </g>
    <g id="line2d_47">
     <path d="
M492.376 99.761
L512.536 99.761" style="fill:none;stroke:#00bfbf;stroke-linecap:square;"/>
    </g>
    <g id="line2d_48"/>
    <g id="text_19">
     <!-- locality#11 -->
     <g transform="translate(528.375625 104.801)scale(0.144 -0.144)">
      <use xlink:href="#DejaVuSans-6c"/>
      <use x="27.783203125" xlink:href="#DejaVuSans-6f"/>
      <use x="88.96484375" xlink:href="#DejaVuSans-63"/>
      <use x="143.9453125" xlink:href="#DejaVuSans-61"/>
      <use x="205.224609375" xlink:href="#DejaVuSans-6c"/>
      <use x="233.0078125" xlink:href="#DejaVuSans-69"/>
      <use x="260.791015625" xlink:href="#DejaVuSans-74"/>
      <use x="300.0" xlink:href="#DejaVuSans-79"/>
      <use x="359.1796875" xlink:href="#DejaVuSans-23"/>
      <use x="442.96875" xlink:href="#DejaVuSans-31"/>
      <use x="506.591796875" xlink:href="#DejaVuSans-31"/>
     </g>
    </g>
    <g id="line2d_49">
     <path d="
M492.376 120.897
L512.536 120.897" style="fill:none;stroke:#bf00bf;stroke-linecap:square;"/>
    </g>
    <g id="line2d_50"/>
    <g id="text_20">
     <!-- locality#12 -->
     <g transform="translate(528.375625 125.9375)scale(0.144 -0.144)">
      <use xlink:href="#DejaVuSans-6c"/>
      <use x="27.783203125" xlink:href="#DejaVuSans-6f"/>
      <use x="88.96484375" xlink:href="#DejaVuSans-63"/>
      <use x="143.9453125" xlink:href="#DejaVuSans-61"/>
      <use x="205.224609375" xlink:href="#DejaVuSans-6c"/>
      <use x="233.0078125" xlink:href="#DejaVuSans-69"/>
      <use x="260.791015625" xlink:href="#DejaVuSans-74"/>
      <use x="300.0" xlink:href="#DejaVuSans-79"/>
      <use x="359.1796875" xlink:href="#DejaVuSans-23"/>
      <use x="442.96875" xlink:href="#DejaVuSans-31"/>
      <use x="506.591796875" xlink:href="#DejaVuSans-32"/>
     </g>
    </g>
    <g id="line2d_51">
     <path d="
M492.376 142.034
L512.536 142.034" style="fill:none;stroke:#bfbf00;stroke-linecap:square;"/>
    </g>
    <g id="line2d_52"/>
    <g id="text_21">
     <!-- locality#13 -->
     <g transform="translate(528.375625 147.074)scale(0.144 -0.144)">
      <use xlink:href="#DejaVuSans-6c"/>
      <use x="27.783203125" xlink:href="#DejaVuSans-6f"/>
      <use x="88.96484375" xlink:href="#DejaVuSans-63"/>
      <use x="143.9453125" xlink:href="#DejaVuSans-61"/>
      <use x="205.224609375" xlink:href="#DejaVuSans-6c"/>
      <use x="233.0078125" xlink:href="#DejaVuSans-69"/>
      <use x="260.791015625" xlink:href="#DejaVuSans-74"/>
      <use x="300.0" xlink:href="#DejaVuSans-79"/>
      <use x="359.1796875" xlink:href="#DejaVuSans-23"/>
      <use x="442.96875" xlink:href="#DejaVuSans-31"/>
      <use x="506.591796875" xlink:href="#DejaVuSans-33"/>
     </g>
    </g>
    <g id="line2d_53">
     <path d="
M492.376 163.17
L512.536 163.17" style="fill:none;stroke:#000000;stroke-linecap:square;"/>
    </g>
    <g id="line2d_54"/>
    <g id="text_22">
     <!-- locality#14 -->
     <g transform="translate(528.375625 168.2105)scale(0.144 -0.144)">
      <use xlink:href="#DejaVuSans-6c"/>
      <use x="27.783203125" xlink:href="#DejaVuSans-6f"/>
      <use x="88.96484375" xlink:href="#DejaVuSans-63"/>
      <use x="143.9453125" xlink:href="#DejaVuSans-61"/>
      <use x="205.224609375" xlink:href="#DejaVuSans-6c"/>
      <use x="233.0078125" xlink:href="#DejaVuSans-69"/>
      <use x="260.791015625" xlink:href="#DejaVuSans-74"/>
      <use x="300.0" xlink:href="#DejaVuSans-79"/>
      <use x="359.1796875" xlink:href="#DejaVuSans-23"/>
      <use x="442.96875" xlink:href="#DejaVuSans-31"/>
      <use x="506.591796875" xlink:href="#DejaVuSans-34"/>
     </g>
    </g>
    <g id="line2d_55">
     <path d="
M492.376 184.307
L512.536 184.307" style="fill:none;stroke:#0000ff;stroke-linecap:square;"/>
    </g>
    <g id="line2d_56"/>
    <g id="text_23">
     <!-- locality#15 -->
     <g transform="translate(528.375625 189.347)scale(0.144 -0.144)">
      <use xlink:href="#DejaVuSans-6c"/>
      <use x="27.783203125" xlink:href="#DejaVuSans-6f"/>
      <use x="88.96484375" xlink:href="#DejaVuSans-63"/>
      <use x="143.9453125" xlink:href="#DejaVuSans-61"/>
      <use x="205.224609375" xlink:href="#DejaVuSans-6c"/>
      <use x="233.0078125" xlink:href="#DejaVuSans-69"/>
      <use x="260.791015625" xlink:href="#DejaVuSans-74"/>
      <use x="300.0" xlink:href="#DejaVuSans-79"/>
      <use x="359.1796875" xlink:href="#DejaVuSans-23"/>
      <use x="442.96875" xlink:href="#DejaVuSans-31"/>
      <use x="506.591796875" xlink:href="#DejaVuSans-35"/>
     </g>
    </g>
    <g id="line2d_57">
     <path d="
M492.376 205.443
L512.536 205.443" style="fill:none;stroke:#008000;stroke-linecap:square;"/>
    </g>
    <g id="line2d_58"/>
    <g id="text_24">
     <!-- locality#2 -->
     <g transform="translate(528.375625 210.4835)scale(0.144 -0.144)">
      <use xlink:href="#DejaVuSans-6c"/>
      <use x="27.783203125" xlink:href="#DejaVuSans-6f"/>
      <use x="88.96484375" xlink:href="#DejaVuSans-63"/>
      <use x="143.9453125" xlink:href="#DejaVuSans-61"/>
      <use x="205.224609375" xlink:href="#DejaVuSans-6c"/>
      <use x="233.0078125" xlink:href="#DejaVuSans-69"/>
      <use x="260.791015625" xlink:href="#DejaVuSans-74"/>
      <use x="300.0" xlink:href="#DejaVuSans-79"/>
      <use x="359.1796875" xlink:href="#DejaVuSans-23"/>
      <use x="442.96875" xlink:href="#DejaVuSans-32"/>
     </g>
    </g>
    <g id="line2d_59">
     <path d="
M492.376 226.58
L512.536 226.58" style="fill:none;stroke:#ff0000;stroke-linecap:square;"/>
    </g>
    <g id="line2d_60"/>
    <g id="text_25">
     <!-- locality#3 -->
     <g transform="translate(528.375625 231.62)scale(0.144 -0.144)">
      <use xlink:href="#DejaVuSans-6c"/>
      <use x="27.783203125" xlink:href="#DejaVuSans-6f"/>
      <use x="88.96484375" xlink:href="#DejaVuSans-63"/>
      <use x="143.9453125" xlink:href="#DejaVuSans-61"/>
      <use x="205.224609375" xlink:href="#DejaVuSans-6c"/>
      <use x="233.0078125" xlink:href="#DejaVuSans-69"/>
      <use x="260.791015625" xlink:href="#DejaVuSans-74"/>
      <use x="300.0" xlink:href="#DejaVuSans-79"/>
      <use x="359.1796875" xlink:href="#DejaVuSans-23"/>
      <use x="442.96875" xlink:href="#DejaVuSans-33"/>
     </g>
    </g>
    <g id="line2d_61">
     <path d="
M492.376 247.716
L512.536 247.716" style="fill:none;stroke:#00bfbf;stroke-linecap:square;"/>
    </g>
    <g id="line2d_62"/>
    <g id="text_26">
     <!-- locality#4 -->
     <g transform="translate(528.375625 252.7565)scale(0.144 -0.144)">
      <use xlink:href="#DejaVuSans-6c"/>
      <use x="27.783203125" xlink:href="#DejaVuSans-6f"/>
      <use x="88.96484375" xlink:href="#DejaVuSans-63"/>
      <use x="143.9453125" xlink:href="#DejaVuSans-61"/>
      <use x="205.224609375" xlink:href="#DejaVuSans-6c"/>
      <use x="233.0078125" xlink:href="#DejaVuSans-69"/>
      <use x="260.791015625" xlink:href="#DejaVuSans-74"/>
      <use x="300.0" xlink:href="#DejaVuSans-79"/>
      <use x="359.1796875" xlink:href="#DejaVuSans-23"/>
      <use x="442.96875" xlink:href="#DejaVuSans-34"/>
     </g>
    </g>
    <g id="line2d_63">
     <path d="
M492.376 268.853
L512.536 268.853" style="fill:none;stroke:#bf00bf;stroke-linecap:square;"/>
    </g>
    <g id="line2d_64"/>
    <g id="text_27">
     <!-- locality#5 -->
     <g transform="translate(528.375625 273.893)scale(0.144 -0.144)">
      <use xlink:href="#DejaVuSans-6c"/>
      <use x="27.783203125" xlink:href="#DejaVuSans-6f"/>
      <use x="88.96484375" xlink:href="#DejaVuSans-63"/>
      <use x="143.9453125" xlink:href="#DejaVuSans-61"/>
      <use x="205.224609375" xlink:href="#DejaVuSans-6c"/>
      <use x="233.0078125" xlink:href="#DejaVuSans-69"/>
      <use x="260.791015625" xlink:href="#DejaVuSans-74"/>
      <use x="300.0" xlink:href="#DejaVuSans-79"/>
      <use x="359.1796875" xlink:href="#DejaVuSans-23"/>
      <use x="442.96875" xlink:href="#DejaVuSans-35"/>
     </g>
    </g>
    <g id="line2d_65">
     <path d="
M492.376 289.989
L512.536 289.989" style="fill:none;stroke:#bfbf00;stroke-linecap:square;"/>
    </g>
    <g id="line2d_66"/>
    <g id="text_28">
     <!-- locality#6 -->
     <defs>
      <path d="
M33.0156 40.375
Q26.375 40.375 22.4844 35.8281
Q18.6094 31.2969 18.6094 23.3906
Q18.6094 15.5312 22.4844 10.9531
Q26.375 6.39062 33.0156 6.39062
Q39.6562 6.39062 43.5312 10.9531
Q47.4062 15.5312 47.4062 23.3906
Q47.4062 31.2969 43.5312 35.8281
Q39.6562 40.375 33.0156 40.375
M52.5938 71.2969
L52.5938 62.3125
Q48.875 64.0625 45.0938 64.9844
Q41.3125 65.9219 37.5938 65.9219
Q27.8281 65.9219 22.6719 59.3281
Q17.5312 52.7344 16.7969 39.4062
Q19.6719 43.6562 24.0156 45.9219
Q28.375 48.1875 33.5938 48.1875
Q44.5781 48.1875 50.9531 41.5156
Q57.3281 34.8594 57.3281 23.3906
Q57.3281 12.1562 50.6875 5.35938
Q44.0469 -1.42188 33.0156 -1.42188
Q20.3594 -1.42188 13.6719 8.26562
Q6.98438 17.9688 6.98438 36.375
Q6.98438 53.6562 15.1875 63.9375
Q23.3906 74.2188 37.2031 74.2188
Q40.9219 74.2188 44.7031 73.4844
Q48.4844 72.75 52.5938 71.2969" id="DejaVuSans-36"/>
     </defs>
     <g transform="translate(528.375625 295.0295)scale(0.144 -0.144)">
      <use xlink:href="#DejaVuSans-6c"/>
      <use x="27.783203125" xlink:href="#DejaVuSans-6f"/>
      <use x="88.96484375" xlink:href="#DejaVuSans-63"/>
      <use x="143.9453125" xlink:href="#DejaVuSans-61"/>
      <use x="205.224609375" xlink:href="#DejaVuSans-6c"/>
      <use x="233.0078125" xlink:href="#DejaVuSans-69"/>
      <use x="260.791015625" xlink:href="#DejaVuSans-74"/>
      <use x="300.0" xlink:href="#DejaVuSans-79"/>
      <use x="359.1796875" xlink:href="#DejaVuSans-23"/>
      <use x="442.96875" xlink:href="#DejaVuSans-36"/>
     </g>
    </g>
    <g id="line2d_67">
     <path d="
M492.376 311.126
L512.536 311.126" style="fill:none;stroke:#000000;stroke-linecap:square;"/>
    </g>
    <g id="line2d_68"/>
    <g id="text_29">
     <!-- locality#7 -->
     <defs>
      <path d="
M8.20312 72.9062
L55.0781 72.9062
L55.0781 68.7031
L28.6094 0
L18.3125 0
L43.2188 64.5938
L8.20312 64.5938
z
" id="DejaVuSans-37"/>
     </defs>
     <g transform="translate(528.375625 316.166)scale(0.144 -0.144)">
      <use xlink:href="#DejaVuSans-6c"/>
      <use x="27.783203125" xlink:href="#DejaVuSans-6f"/>
      <use x="88.96484375" xlink:href="#DejaVuSans-63"/>
      <use x="143.9453125" xlink:href="#DejaVuSans-61"/>
      <use x="205.224609375" xlink:href="#DejaVuSans-6c"/>
      <use x="233.0078125" xlink:href="#DejaVuSans-69"/>
      <use x="260.791015625" xlink:href="#DejaVuSans-74"/>
      <use x="300.0" xlink:href="#DejaVuSans-79"/>
      <use x="359.1796875" xlink:href="#DejaVuSans-23"/>
      <use x="442.96875" xlink:href="#DejaVuSans-37"/>
     </g>
    </g>
    <g id="line2d_69">
     <path d="
M492.376 332.262
L512.536 332.262" style="fill:none;stroke:#0000ff;stroke-linecap:square;"/>
    </g>
    <g id="line2d_70"/>
    <g id="text_30">
     <!-- locality#8 -->
     <defs>
      <path d="
M31.7812 34.625
Q24.75 34.625 20.7188 30.8594
Q16.7031 27.0938 16.7031 20.5156
Q16.7031 13.9219 20.7188 10.1562
Q24.75 6.39062 31.7812 6.39062
Q38.8125 6.39062 42.8594 10.1719
Q46.9219 13.9688 46.9219 20.5156
Q46.9219 27.0938 42.8906 30.8594
Q38.875 34.625 31.7812 34.625
M21.9219 38.8125
Q15.5781 40.375 12.0312 44.7188
Q8.5 49.0781 8.5 55.3281
Q8.5 64.0625 14.7188 69.1406
Q20.9531 74.2188 31.7812 74.2188
Q42.6719 74.2188 48.875 69.1406
Q55.0781 64.0625 55.0781 55.3281
Q55.0781 49.0781 51.5312 44.7188
Q48 40.375 41.7031 38.8125
Q48.8281 37.1562 52.7969 32.3125
Q56.7812 27.4844 56.7812 20.5156
Q56.7812 9.90625 50.3125 4.23438
Q43.8438 -1.42188 31.7812 -1.42188
Q19.7344 -1.42188 13.25 4.23438
Q6.78125 9.90625 6.78125 20.5156
Q6.78125 27.4844 10.7812 32.3125
Q14.7969 37.1562 21.9219 38.8125
M18.3125 54.3906
Q18.3125 48.7344 21.8438 45.5625
Q25.3906 42.3906 31.7812 42.3906
Q38.1406 42.3906 41.7188 45.5625
Q45.3125 48.7344 45.3125 54.3906
Q45.3125 60.0625 41.7188 63.2344
Q38.1406 66.4062 31.7812 66.4062
Q25.3906 66.4062 21.8438 63.2344
Q18.3125 60.0625 18.3125 54.3906" id="DejaVuSans-38"/>
     </defs>
     <g transform="translate(528.375625 337.3025)scale(0.144 -0.144)">
      <use xlink:href="#DejaVuSans-6c"/>
      <use x="27.783203125" xlink:href="#DejaVuSans-6f"/>
      <use x="88.96484375" xlink:href="#DejaVuSans-63"/>
      <use x="143.9453125" xlink:href="#DejaVuSans-61"/>
      <use x="205.224609375" xlink:href="#DejaVuSans-6c"/>
      <use x="233.0078125" xlink:href="#DejaVuSans-69"/>
      <use x="260.791015625" xlink:href="#DejaVuSans-74"/>
      <use x="300.0" xlink:href="#DejaVuSans-79"/>
      <use x="359.1796875" xlink:href="#DejaVuSans-23"/>
      <use x="442.96875" xlink:href="#DejaVuSans-38"/>
     </g>
    </g>
    <g id="line2d_71">
     <path d="
M492.376 353.399
L512.536 353.399" style="fill:none;stroke:#008000;stroke-linecap:square;"/>
    </g>
    <g id="line2d_72"/>
    <g id="text_31">
     <!-- locality#9 -->
     <defs>
      <path d="
M10.9844 1.51562
L10.9844 10.5
Q14.7031 8.73438 18.5 7.8125
Q22.3125 6.89062 25.9844 6.89062
Q35.75 6.89062 40.8906 13.4531
Q46.0469 20.0156 46.7812 33.4062
Q43.9531 29.2031 39.5938 26.9531
Q35.25 24.7031 29.9844 24.7031
Q19.0469 24.7031 12.6719 31.3125
Q6.29688 37.9375 6.29688 49.4219
Q6.29688 60.6406 12.9375 67.4219
Q19.5781 74.2188 30.6094 74.2188
Q43.2656 74.2188 49.9219 64.5156
Q56.5938 54.8281 56.5938 36.375
Q56.5938 19.1406 48.4062 8.85938
Q40.2344 -1.42188 26.4219 -1.42188
Q22.7031 -1.42188 18.8906 -0.6875
Q15.0938 0.046875 10.9844 1.51562
M30.6094 32.4219
Q37.25 32.4219 41.125 36.9531
Q45.0156 41.5 45.0156 49.4219
Q45.0156 57.2812 41.125 61.8438
Q37.25 66.4062 30.6094 66.4062
Q23.9688 66.4062 20.0938 61.8438
Q16.2188 57.2812 16.2188 49.4219
Q16.2188 41.5 20.0938 36.9531
Q23.9688 32.4219 30.6094 32.4219" id="DejaVuSans-39"/>
     </defs>
     <g transform="translate(528.375625 358.439)scale(0.144 -0.144)">
      <use xlink:href="#DejaVuSans-6c"/>
      <use x="27.783203125" xlink:href="#DejaVuSans-6f"/>
      <use x="88.96484375" xlink:href="#DejaVuSans-63"/>
      <use x="143.9453125" xlink:href="#DejaVuSans-61"/>
      <use x="205.224609375" xlink:href="#DejaVuSans-6c"/>
      <use x="233.0078125" xlink:href="#DejaVuSans-69"/>
      <use x="260.791015625" xlink:href="#DejaVuSans-74"/>
      <use x="300.0" xlink:href="#DejaVuSans-79"/>
      <use x="359.1796875" xlink:href="#DejaVuSans-23"/>
      <use x="442.96875" xlink:href="#DejaVuSans-39"/>
     </g>
    </g>
   </g>
  </g>
 </g>
 <defs>
  <clipPath id="p2118423672">
   <rect height="345.6" width="446.4" x="28.695625" y="23.14175"/>
  </clipPath>
 </defs>
</svg>
