<?xml version="1.0" encoding="utf-8" standalone="no"?>
<!DOCTYPE svg PUBLIC "-//W3C//DTD SVG 1.1//EN"
  "http://www.w3.org/Graphics/SVG/1.1/DTD/svg11.dtd">
<!-- Created with matplotlib (http://matplotlib.org/) -->
<svg height="408pt" version="1.1" viewBox="0 0 621 408" width="621pt" xmlns="http://www.w3.org/2000/svg" xmlns:xlink="http://www.w3.org/1999/xlink">
 <defs>
  <style type="text/css">
*{stroke-linecap:butt;stroke-linejoin:round;}
  </style>
 </defs>
 <g id="figure_1">
  <g id="patch_1">
   <path d="
M0 408.169
L621.285 408.169
L621.285 0
L0 0
z
" style="fill:#ffffff;"/>
  </g>
  <g id="axes_1">
   <g id="patch_2">
    <path d="
M28.6956 368.742
L475.096 368.742
L475.096 23.1417
L28.6956 23.1417
z
" style="fill:#ffffff;"/>
   </g>
   <g id="line2d_1">
    <path clip-path="url(#p2118423672)" d="
M28.6956 368.537
L36.7469 364.564
L81.4764 342.439
L85.9493 340.13
L231.767 266.905
L239.819 262.818
L248.765 258.242
L255.027 255.094
L266.656 249.222
L271.129 246.912
L275.602 244.634
L277.391 243.649
L286.337 239.087
L299.756 232.226
L305.124 229.479
L307.807 228.103
L315.859 223.985
L323.91 219.811
L331.067 216.168
L336.434 213.361
L346.275 208.393
L357.904 202.5
L362.377 200.088
L374.902 193.808
L378.48 191.94
L382.953 189.616
L385.637 188.245
L399.95 180.817
L408.001 176.733
L410.685 175.365
L414.264 173.543
L416.053 172.517
L422.315 169.331
L428.577 165.97
L432.155 164.095
L437.523 161.242
L441.996 158.919
L445.574 156.891
L450.942 154.135
L456.309 151.268
L459.888 149.389
L475.096 141.121
L475.096 141.121" style="fill:none;stroke:#0000ff;stroke-linecap:square;"/>
   </g>
   <g id="line2d_2">
    <path clip-path="url(#p2118423672)" d="
M28.6956 368.728
L46.5874 361.298
L132.468 325.178
L135.152 324.01
L148.571 318.312
L152.149 316.77
L164.673 311.496
L167.357 310.324
L176.303 306.488
L179.881 304.949
L196.878 297.765
L266.656 268.246
L271.129 266.296
L276.497 263.956
L288.126 258.947
L292.599 256.935
L314.07 247.784
L316.753 246.562
L322.121 244.224
L330.172 240.768
L333.751 239.177
L345.38 234.196
L354.326 230.352
L358.799 228.386
L362.377 226.789
L373.112 222.234
L381.164 218.735
L384.742 217.147
L391.899 214.061
L397.266 211.627
L408.001 207.057
L410.685 205.896
L415.158 203.93
L418.737 202.341
L424.104 200.007
L431.261 196.731
L435.734 194.77
L441.101 192.341
L443.785 191.119
L448.258 189.104
L451.836 187.519
L456.309 185.501
L459.888 183.913
L475.096 176.899
L475.096 176.899" style="fill:none;stroke:#008000;stroke-linecap:square;"/>
   </g>
   <g id="line2d_3">
    <path clip-path="url(#p2118423672)" d="
M28.6956 368.727
L37.6415 362.625
L91.3169 325.603
L108.314 313.772
L116.365 308.163
L119.049 306.243
L148.571 285.712
L152.149 283.165
L164.673 274.479
L166.462 273.175
L178.092 264.917
L185.249 259.977
L192.405 255.06
L194.195 253.743
L199.562 249.954
L241.608 220.78
L243.397 219.471
L247.87 216.317
L268.446 201.803
L271.129 199.885
L277.391 195.396
L300.651 178.807
L304.229 176.263
L311.386 171.275
L313.175 169.958
L314.964 168.634
L317.648 166.707
L320.332 164.776
L322.121 163.466
L330.172 157.743
L332.856 155.728
L343.591 148.194
L357.904 138.016
L360.588 136.008
L368.64 130.309
L370.429 129.006
L377.585 124
L382.058 120.691
L393.688 112.332
L397.266 109.623
L401.739 106.461
L403.528 105.142
L411.58 99.5349
L414.264 97.6116
L416.947 95.6106
L421.42 92.4518
L424.999 89.751
L426.788 88.436
L431.261 85.0456
L435.734 81.8022
L441.101 77.7863
L442.89 76.4592
L447.363 73.0464
L450.942 70.4993
L454.52 67.7864
L457.204 65.8579
L461.677 62.452
L463.466 61.1387
L471.517 54.9283
L473.306 53.615
L475.096 52.2257
L475.096 52.2257" style="fill:none;stroke:#ff0000;stroke-linecap:square;"/>
   </g>
   <g id="line2d_4">
    <path clip-path="url(#p2118423672)" d="
M28.6956 368.728
L90.4223 327.119
L94.8952 324.063
L101.157 319.775
L109.209 314.269
L110.998 312.976
L119.049 307.488
L176.303 268.297
L179.881 265.812
L237.135 226.857
L254.132 215.144
L265.762 207.151
L291.705 188.933
L294.389 187.051
L311.386 175.366
L313.175 174.074
L314.964 172.785
L317.648 170.9
L323.015 167.134
L325.699 165.182
L345.38 151.563
L348.959 149.12
L353.431 145.985
L366.85 136.535
L374.902 131.043
L376.691 129.777
L381.164 126.613
L384.742 124.048
L391.899 119.051
L397.266 115.123
L401.739 112.039
L403.528 110.753
L409.791 106.461
L414.264 103.371
L416.947 101.417
L421.42 98.327
L424.999 95.6866
L426.788 94.3976
L431.261 91.0815
L435.734 87.9227
L439.312 85.2754
L441.996 83.3746
L448.258 78.7609
L451.836 76.1844
L454.52 74.2128
L457.204 72.3258
L461.677 68.9908
L463.466 67.7034
L471.517 61.6468
L473.306 60.3646
L475.096 59.0098
L475.096 59.0098" style="fill:none;stroke:#00bfbf;stroke-linecap:square;"/>
   </g>
   <g id="line2d_5">
    <path clip-path="url(#p2118423672)" d="
M28.6956 368.728
L42.1145 360.158
L58.2171 349.865
L61.7954 347.545
L77.0034 337.81
L97.579 324.454
L100.263 322.65
L109.209 316.828
L110.998 315.593
L120.838 309.214
L153.938 287.708
L156.622 285.912
L165.568 280.101
L177.197 272.424
L181.67 269.518
L192.405 262.643
L194.195 261.419
L210.297 251.018
L236.24 234.225
L238.924 232.43
L246.975 227.153
L251.448 224.154
L266.656 214.23
L270.235 211.799
L275.602 208.283
L278.286 206.46
L280.97 204.679
L286.337 201.083
L305.124 188.643
L306.913 187.418
L314.07 182.747
L316.753 180.868
L320.332 178.491
L322.121 177.272
L324.805 175.477
L326.594 174.254
L331.961 170.732
L333.751 169.505
L342.696 163.701
L346.275 161.25
L353.431 156.55
L366.85 147.544
L377.585 140.504
L382.058 137.409
L389.215 132.654
L391.004 131.43
L393.688 129.63
L397.266 127.112
L408.001 120.079
L410.685 118.285
L414.264 115.915
L416.947 114.035
L421.42 111.093
L424.999 108.562
L426.788 107.333
L431.261 104.166
L435.734 101.138
L441.101 97.3974
L442.89 96.1636
L447.363 92.9841
L450.942 90.6115
L456.309 86.8738
L458.993 85.0698
L468.834 78.0006
L472.412 75.5503
L475.096 73.6045
L475.096 73.6045" style="fill:none;stroke:#bf00bf;stroke-linecap:square;"/>
   </g>
   <g id="line2d_6">
    <path clip-path="url(#p2118423672)" d="
M28.6956 368.728
L43.0091 360.207
L76.1089 340.435
L87.7385 333.407
L109.209 320.351
L110.998 319.204
L119.944 313.79
L146.781 297.6
L149.465 295.866
L153.044 293.701
L170.041 283.388
L172.724 281.713
L177.197 278.919
L181.67 276.215
L192.405 269.81
L194.195 268.671
L211.192 258.436
L241.608 240.057
L243.397 238.916
L248.765 235.633
L251.448 233.958
L266.656 224.712
L270.235 222.435
L275.602 219.159
L278.286 217.453
L280.97 215.792
L285.443 213.045
L289.021 210.765
L292.599 208.5
L318.543 192.534
L321.226 190.785
L324.805 188.577
L326.594 187.433
L331.961 184.152
L333.751 183.002
L342.696 177.596
L346.275 175.313
L352.537 171.516
L360.588 166.426
L368.64 161.489
L370.429 160.345
L379.375 154.879
L381.164 153.739
L383.848 151.99
L389.215 148.717
L391.004 147.573
L393.688 145.908
L397.266 143.551
L401.739 140.819
L403.528 139.671
L411.58 134.8
L414.264 133.124
L416.947 131.375
L421.42 128.652
L424.999 126.288
L426.788 125.147
L431.261 122.199
L434.839 119.993
L439.312 117.031
L441.996 115.356
L447.363 111.792
L450.942 109.588
L456.309 106.1
L458.993 104.427
L468.834 97.8363
L470.623 96.6923
L475.096 93.7513
L475.096 93.7513" style="fill:none;stroke:#bfbf00;stroke-linecap:square;"/>
   </g>
   <g id="line2d_7">
    <path clip-path="url(#p2118423672)" d="
M28.6956 368.728
L46.5874 358.993
L58.2171 352.651
L60.9008 351.184
L68.0575 347.25
L82.371 339.441
L103.841 327.503
L106.525 325.967
L132.468 311.642
L135.152 310.116
L146.781 303.691
L150.36 301.595
L164.673 293.721
L166.462 292.675
L173.619 288.697
L177.197 286.63
L182.565 283.679
L246.975 248.07
L252.343 245.024
L266.656 237.049
L270.235 234.974
L275.602 231.979
L278.286 230.421
L280.97 228.909
L285.443 226.402
L289.021 224.317
L292.599 222.247
L314.07 210.247
L316.753 208.651
L320.332 206.633
L323.91 204.55
L331.961 200.02
L333.751 198.975
L342.696 194.029
L346.275 191.943
L356.115 186.462
L360.588 183.827
L368.64 179.298
L370.429 178.256
L377.585 174.299
L382.058 171.67
L389.215 167.639
L391.004 166.595
L393.688 165.074
L397.266 162.921
L401.739 160.419
L403.528 159.376
L412.474 154.446
L416.053 152.298
L421.42 149.319
L424.999 147.172
L427.682 145.576
L433.05 142.391
L435.734 140.865
L441.101 137.677
L442.89 136.633
L448.258 133.456
L450.942 131.923
L456.309 128.735
L458.993 127.202
L471.517 119.588
L474.201 118.004
L475.096 117.451
L475.096 117.451" style="fill:none;stroke:#000000;stroke-linecap:square;"/>
   </g>
   <g id="line2d_8">
    <path clip-path="url(#p2118423672)" d="
M28.6956 368.728
L52.8495 356.845
L65.3738 350.651
L136.941 314.89
L139.625 313.504
L148.571 309.033
L152.149 307.213
L164.673 300.971
L166.462 300.027
L173.619 296.432
L176.303 295.05
L180.776 292.785
L195.089 285.665
L236.24 265.189
L238.924 263.807
L248.765 258.823
L251.448 257.439
L266.656 249.797
L271.129 247.485
L275.602 245.218
L278.286 243.81
L280.97 242.445
L285.443 240.185
L289.021 238.298
L292.599 236.428
L314.07 225.605
L316.753 224.167
L323.015 220.966
L326.594 219.08
L335.54 214.553
L338.223 213.17
L349.853 207.33
L355.221 204.569
L357.904 203.195
L362.377 200.82
L369.534 197.183
L380.269 191.786
L384.742 189.413
L391.899 185.769
L397.266 182.885
L401.739 180.633
L403.528 179.693
L414.264 174.293
L418.737 171.923
L424.104 169.161
L430.366 165.79
L433.945 163.91
L436.628 162.469
L440.207 160.59
L447.363 156.711
L450.942 154.89
L454.52 152.956
L457.204 151.575
L468.834 145.202
L472.412 143.331
L475.096 141.836
L475.096 141.836" style="fill:none;stroke:#0000ff;stroke-linecap:square;"/>
   </g>
   <g id="line2d_9">
    <path clip-path="url(#p2118423672)" d="
M28.6956 368.727
L51.9549 359.333
L58.2171 356.775
L61.7954 355.31
L85.0547 345.825
L153.938 317.399
L156.622 316.258
L173.619 309.244
L177.197 307.707
L185.249 304.427
L195.984 300.022
L198.668 298.883
L246.975 279.025
L253.238 276.407
L268.446 270.09
L272.918 268.176
L285.443 262.922
L289.021 261.373
L297.967 257.645
L300.651 256.506
L311.386 252.049
L315.859 250.089
L324.805 246.299
L327.488 245.161
L335.54 241.788
L338.223 240.652
L349.853 235.824
L355.221 233.546
L358.799 231.993
L362.377 230.439
L377.585 224.143
L382.058 222.184
L389.215 219.188
L392.793 217.634
L396.372 216.084
L399.056 214.95
L412.474 209.368
L416.947 207.404
L422.315 205.133
L428.577 202.35
L432.155 200.8
L437.523 198.438
L441.996 196.521
L447.363 194.1
L451.836 192.19
L456.309 190.226
L459.888 188.674
L471.517 183.421
L474.201 182.239
L475.096 181.824
L475.096 181.824" style="fill:none;stroke:#008000;stroke-linecap:square;"/>
   </g>
   <g id="line2d_10">
    <path clip-path="url(#p2118423672)" d="
M28.6956 368.728
L41.2199 363.498
L77.0034 348.47
L96.6844 340.112
L208.508 292.342
L236.24 280.563
L238.924 279.384
L248.765 275.136
L251.448 273.953
L266.656 267.454
L272.918 264.687
L281.864 260.825
L284.548 259.645
L289.916 257.284
L293.494 255.68
L314.07 246.83
L317.648 245.224
L323.015 242.861
L326.594 241.256
L335.54 237.392
L338.223 236.216
L349.853 231.219
L355.221 228.868
L358.799 227.262
L362.377 225.65
L374.902 220.296
L378.48 218.7
L382.953 216.722
L386.531 215.122
L393.688 212.009
L398.161 209.971
L407.107 206.122
L415.158 202.594
L418.737 200.988
L424.104 198.639
L431.261 195.332
L435.734 193.343
L441.101 190.886
L443.785 189.652
L448.258 187.623
L451.836 186.021
L456.309 183.989
L459.888 182.384
L475.096 175.271
L475.096 175.271" style="fill:none;stroke:#ff0000;stroke-linecap:square;"/>
   </g>
   <g id="line2d_11">
    <path clip-path="url(#p2118423672)" d="
M28.6956 368.728
L37.6415 364.709
L103.841 334.615
L106.525 333.345
L148.571 314.025
L151.254 312.752
L164.673 306.621
L167.357 305.353
L176.303 301.185
L180.776 299.105
L195.984 292.168
L198.668 290.897
L236.24 273.767
L238.924 272.5
L247.87 268.347
L275.602 255.444
L279.181 253.708
L288.126 249.543
L292.599 247.359
L314.07 237.418
L317.648 235.692
L323.015 233.143
L326.594 231.407
L331.961 228.922
L334.645 227.653
L342.696 223.955
L346.275 222.227
L356.115 217.66
L360.588 215.467
L368.64 211.711
L371.323 210.451
L381.164 205.845
L384.742 204.117
L390.11 201.581
L395.477 199.035
L399.056 197.311
L412.474 191.072
L416.947 188.888
L422.315 186.35
L428.577 183.248
L432.155 181.515
L437.523 178.873
L441.996 176.73
L447.363 174.024
L451.836 171.898
L455.415 170.167
L461.677 167.065
L464.361 165.743
L475.096 160.333
L475.096 160.333" style="fill:none;stroke:#00bfbf;stroke-linecap:square;"/>
   </g>
   <g id="line2d_12">
    <path clip-path="url(#p2118423672)" d="
M28.6956 368.728
L38.5361 363.87
L97.579 334.407
L100.263 333.018
L109.209 328.508
L110.998 327.554
L130.679 317.716
L148.571 308.608
L151.254 307.209
L164.673 300.477
L167.357 299.083
L173.619 295.906
L177.197 294.029
L184.354 290.452
L195.984 284.595
L198.668 283.204
L248.765 257.95
L251.448 256.55
L266.656 248.848
L272.918 245.571
L278.286 242.804
L282.759 240.476
L289.916 236.789
L293.494 234.891
L303.335 229.929
L306.018 228.466
L314.964 223.897
L317.648 222.497
L323.015 219.695
L326.594 217.792
L331.961 215.057
L334.645 213.662
L342.696 209.603
L346.275 207.703
L357.904 201.721
L360.588 200.26
L368.64 196.132
L371.323 194.744
L381.164 189.681
L384.742 187.782
L389.215 185.493
L392.793 183.593
L395.477 182.19
L399.056 180.286
L401.739 178.893
L404.423 177.501
L412.474 173.433
L416.947 171.033
L422.315 168.247
L428.577 164.829
L432.155 162.921
L437.523 160.015
L441.996 157.656
L448.258 154.233
L450.942 152.845
L455.415 150.431
L461.677 147.022
L463.466 146.072
L475.096 139.605
L475.096 139.605" style="fill:none;stroke:#bf00bf;stroke-linecap:square;"/>
   </g>
   <g id="line2d_13">
    <path clip-path="url(#p2118423672)" d="
M28.6956 368.729
L40.3253 362.383
L103.841 327.321
L106.525 325.786
L125.311 315.33
L146.781 303.388
L150.36 301.28
L164.673 293.345
L167.357 291.801
L173.619 288.285
L177.197 286.209
L183.46 282.749
L196.878 275.256
L209.403 268.364
L232.662 255.496
L234.451 254.442
L241.608 250.427
L244.292 248.891
L249.659 245.803
L281.864 227.585
L284.548 226.041
L288.126 224.01
L292.599 221.36
L311.386 210.819
L313.175 209.77
L314.964 208.718
L317.648 207.18
L320.332 205.634
L323.91 203.533
L330.172 200.019
L332.856 198.408
L349.853 188.855
L354.326 186.272
L357.904 184.231
L360.588 182.622
L368.64 178.079
L370.429 177.032
L379.375 171.999
L382.953 169.903
L384.742 168.861
L391.899 164.776
L397.266 161.561
L408.001 155.527
L410.685 154.001
L414.264 151.985
L416.947 150.381
L422.315 147.292
L428.577 143.525
L431.261 141.918
L435.734 139.317
L441.101 136.091
L442.89 135.031
L447.363 132.3
L450.942 130.269
L456.309 127.055
L458.993 125.512
L468.834 119.436
L472.412 117.326
L475.096 115.659
L475.096 115.659" style="fill:none;stroke:#bfbf00;stroke-linecap:square;"/>
   </g>
   <g id="line2d_14">
    <path clip-path="url(#p2118423672)" d="
M28.6956 368.728
L38.5361 362.844
L87.7385 333.187
L103.841 323.355
L106.525 321.681
L129.784 307.539
L136.941 303.153
L138.73 302.001
L170.935 282.222
L185.249 273.429
L192.405 269.111
L194.195 267.963
L205.824 260.893
L236.24 242.379
L238.924 240.687
L246.081 236.297
L253.238 231.838
L266.656 223.588
L271.129 220.772
L277.391 216.853
L296.178 205.097
L303.335 200.712
L306.018 198.946
L314.964 193.415
L317.648 191.725
L320.332 190.029
L323.91 187.729
L330.172 183.885
L332.856 182.121
L350.748 171.076
L396.372 142.325
L398.161 141.183
L401.739 138.957
L403.528 137.807
L409.791 133.969
L415.158 130.582
L416.947 129.438
L421.42 126.665
L424.999 124.29
L426.788 123.141
L431.261 120.159
L435.734 117.309
L441.101 113.786
L442.89 112.638
L447.363 109.645
L450.942 107.42
L454.52 105.049
L457.204 103.359
L461.677 100.375
L463.466 99.2239
L475.096 91.4168
L475.096 91.4168" style="fill:none;stroke:#000000;stroke-linecap:square;"/>
   </g>
   <g id="line2d_15">
    <path clip-path="url(#p2118423672)" d="
M28.6956 368.728
L52.8495 353.144
L56.4279 350.835
L71.6359 340.975
L77.0034 337.504
L97.579 324.006
L101.157 321.614
L109.209 316.327
L110.998 315.088
L118.155 310.378
L153.938 286.874
L156.622 285.062
L170.041 276.267
L174.514 273.224
L185.249 266.169
L192.405 261.528
L194.195 260.296
L211.192 249.199
L231.767 235.753
L236.24 232.762
L238.924 230.939
L246.975 225.604
L251.448 222.565
L263.078 214.939
L267.551 211.889
L275.602 206.488
L279.181 204.014
L285.443 199.87
L289.021 197.393
L291.705 195.57
L294.389 193.756
L311.386 182.489
L313.175 181.247
L315.859 179.369
L341.802 161.949
L345.38 159.509
L348.064 157.718
L353.431 154.121
L367.745 144.415
L377.585 137.879
L382.058 134.75
L385.637 132.357
L387.426 131.111
L391.899 128.123
L396.372 124.975
L398.161 123.741
L401.739 121.341
L403.528 120.102
L412.474 114.221
L416.947 111.073
L421.42 108.09
L424.999 105.538
L426.788 104.294
L433.05 99.8408
L435.734 98.0212
L441.101 94.2178
L442.89 92.9702
L447.363 89.7527
L450.942 87.3508
L456.309 83.5595
L458.993 81.7348
L471.517 72.6438
L473.306 71.4048
L475.096 70.0967
L475.096 70.0967" style="fill:none;stroke:#0000ff;stroke-linecap:square;"/>
   </g>
   <g id="line2d_16">
    <path clip-path="url(#p2118423672)" d="
M28.6956 368.729
L37.6415 362.725
L83.2656 331.879
L85.9493 329.978
L97.579 322.027
L101.157 319.529
L109.209 314.002
L110.998 312.71
L118.155 307.793
L174.514 268.973
L182.565 263.419
L195.984 254.233
L199.562 251.725
L246.975 219.239
L250.554 216.673
L266.656 205.58
L271.129 202.408
L278.286 197.355
L280.97 195.47
L285.443 192.342
L289.021 189.768
L297.967 183.531
L300.651 181.634
L304.229 179.13
L314.07 172.304
L316.753 170.319
L320.332 167.803
L322.121 166.509
L324.805 164.603
L327.488 162.704
L331.961 159.598
L333.751 158.304
L339.118 154.589
L345.38 150.231
L348.959 147.77
L353.431 144.615
L366.85 135.099
L377.585 127.667
L382.058 124.399
L389.215 119.36
L391.004 118.071
L393.688 116.176
L397.266 113.499
L401.739 110.392
L403.528 109.098
L409.791 104.764
L415.158 100.957
L416.947 99.6749
L421.42 96.561
L424.999 93.8982
L426.788 92.5935
L431.261 89.2533
L435.734 86.0479
L441.101 82.0804
L442.89 80.7809
L447.363 77.42
L450.942 74.9074
L454.52 72.2342
L457.204 70.3265
L461.677 66.9707
L463.466 65.6747
L471.517 59.5559
L473.306 58.2582
L475.096 56.8913
L475.096 56.8913" style="fill:none;stroke:#008000;stroke-linecap:square;"/>
   </g>
   <g id="patch_3">
    <path d="
M28.6956 23.1417
L475.096 23.1417" style="fill:none;stroke:#000000;stroke-linecap:square;stroke-linejoin:miter;"/>
   </g>
   <g id="patch_4">
    <path d="
M475.096 368.742
L475.096 23.1417" style="fill:none;stroke:#000000;stroke-linecap:square;stroke-linejoin:miter;"/>
   </g>
   <g id="patch_5">
    <path d="
M28.6956 368.742
L475.096 368.742" style="fill:none;stroke:#000000;stroke-linecap:square;stroke-linejoin:miter;"/>
   </g>
   <g id="patch_6">
    <path d="
M28.6956 368.742
L28.6956 23.1417" style="fill:none;stroke:#000000;stroke-linecap:square;stroke-linejoin:miter;"/>
   </g>
   <g id="matplotlib.axis_1">
    <g id="xtick_1">
     <g id="line2d_17">
      <defs>
       <path d="
M0 0
L0 -4" id="m93b0483c22" style="stroke:#000000;stroke-width:0.5;"/>
      </defs>
      <g>
       <use style="stroke:#000000;stroke-width:0.5;" x="28.695625" xlink:href="#m93b0483c22" y="368.74175"/>
      </g>
     </g>
     <g id="line2d_18">
      <defs>
       <path d="
M0 0
L0 4" id="m741efc42ff" style="stroke:#000000;stroke-width:0.5;"/>
      </defs>
      <g>
       <use style="stroke:#000000;stroke-width:0.5;" x="28.695625" xlink:href="#m741efc42ff" y="23.14175"/>
      </g>
     </g>
     <g id="text_1">
      <!-- 0 -->
      <defs>
       <path d="
M31.7812 66.4062
Q24.1719 66.4062 20.3281 58.9062
Q16.5 51.4219 16.5 36.375
Q16.5 21.3906 20.3281 13.8906
Q24.1719 6.39062 31.7812 6.39062
Q39.4531 6.39062 43.2812 13.8906
Q47.125 21.3906 47.125 36.375
Q47.125 51.4219 43.2812 58.9062
Q39.4531 66.4062 31.7812 66.4062
M31.7812 74.2188
Q44.0469 74.2188 50.5156 64.5156
Q56.9844 54.8281 56.9844 36.375
Q56.9844 17.9688 50.5156 8.26562
Q44.0469 -1.42188 31.7812 -1.42188
Q19.5312 -1.42188 13.0625 8.26562
Q6.59375 17.9688 6.59375 36.375
Q6.59375 54.8281 13.0625 64.5156
Q19.5312 74.2188 31.7812 74.2188" id="DejaVuSans-30"/>
      </defs>
      <g transform="translate(25.6721875 381.859875)scale(0.12 -0.12)">
       <use xlink:href="#DejaVuSans-30"/>
      </g>
     </g>
    </g>
    <g id="xtick_2">
     <g id="line2d_19">
      <g>
       <use style="stroke:#000000;stroke-width:0.5;" x="118.154542836" xlink:href="#m93b0483c22" y="368.74175"/>
      </g>
     </g>
     <g id="line2d_20">
      <g>
       <use style="stroke:#000000;stroke-width:0.5;" x="118.154542836" xlink:href="#m741efc42ff" y="23.14175"/>
      </g>
     </g>
     <g id="text_2">
      <!-- 100 -->
      <defs>
       <path d="
M12.4062 8.29688
L28.5156 8.29688
L28.5156 63.9219
L10.9844 60.4062
L10.9844 69.3906
L28.4219 72.9062
L38.2812 72.9062
L38.2812 8.29688
L54.3906 8.29688
L54.3906 0
L12.4062 0
z
" id="DejaVuSans-31"/>
      </defs>
      <g transform="translate(107.759542836 381.859875)scale(0.12 -0.12)">
       <use xlink:href="#DejaVuSans-31"/>
       <use x="63.623046875" xlink:href="#DejaVuSans-30"/>
       <use x="127.24609375" xlink:href="#DejaVuSans-30"/>
      </g>
     </g>
    </g>
    <g id="xtick_3">
     <g id="line2d_21">
      <g>
       <use style="stroke:#000000;stroke-width:0.5;" x="207.613460671" xlink:href="#m93b0483c22" y="368.74175"/>
      </g>
     </g>
     <g id="line2d_22">
      <g>
       <use style="stroke:#000000;stroke-width:0.5;" x="207.613460671" xlink:href="#m741efc42ff" y="23.14175"/>
      </g>
     </g>
     <g id="text_3">
      <!-- 200 -->
      <defs>
       <path d="
M19.1875 8.29688
L53.6094 8.29688
L53.6094 0
L7.32812 0
L7.32812 8.29688
Q12.9375 14.1094 22.625 23.8906
Q32.3281 33.6875 34.8125 36.5312
Q39.5469 41.8438 41.4219 45.5312
Q43.3125 49.2188 43.3125 52.7812
Q43.3125 58.5938 39.2344 62.25
Q35.1562 65.9219 28.6094 65.9219
Q23.9688 65.9219 18.8125 64.3125
Q13.6719 62.7031 7.8125 59.4219
L7.8125 69.3906
Q13.7656 71.7812 18.9375 73
Q24.125 74.2188 28.4219 74.2188
Q39.75 74.2188 46.4844 68.5469
Q53.2188 62.8906 53.2188 53.4219
Q53.2188 48.9219 51.5312 44.8906
Q49.8594 40.875 45.4062 35.4062
Q44.1875 33.9844 37.6406 27.2188
Q31.1094 20.4531 19.1875 8.29688" id="DejaVuSans-32"/>
      </defs>
      <g transform="translate(196.999085671 381.859875)scale(0.12 -0.12)">
       <use xlink:href="#DejaVuSans-32"/>
       <use x="63.623046875" xlink:href="#DejaVuSans-30"/>
       <use x="127.24609375" xlink:href="#DejaVuSans-30"/>
      </g>
     </g>
    </g>
    <g id="xtick_4">
     <g id="line2d_23">
      <g>
       <use style="stroke:#000000;stroke-width:0.5;" x="297.072378507" xlink:href="#m93b0483c22" y="368.74175"/>
      </g>
     </g>
     <g id="line2d_24">
      <g>
       <use style="stroke:#000000;stroke-width:0.5;" x="297.072378507" xlink:href="#m741efc42ff" y="23.14175"/>
      </g>
     </g>
     <g id="text_4">
      <!-- 300 -->
      <defs>
       <path d="
M40.5781 39.3125
Q47.6562 37.7969 51.625 33
Q55.6094 28.2188 55.6094 21.1875
Q55.6094 10.4062 48.1875 4.48438
Q40.7656 -1.42188 27.0938 -1.42188
Q22.5156 -1.42188 17.6562 -0.515625
Q12.7969 0.390625 7.625 2.20312
L7.625 11.7188
Q11.7188 9.32812 16.5938 8.10938
Q21.4844 6.89062 26.8125 6.89062
Q36.0781 6.89062 40.9375 10.5469
Q45.7969 14.2031 45.7969 21.1875
Q45.7969 27.6406 41.2812 31.2656
Q36.7656 34.9062 28.7188 34.9062
L20.2188 34.9062
L20.2188 43.0156
L29.1094 43.0156
Q36.375 43.0156 40.2344 45.9219
Q44.0938 48.8281 44.0938 54.2969
Q44.0938 59.9062 40.1094 62.9062
Q36.1406 65.9219 28.7188 65.9219
Q24.6562 65.9219 20.0156 65.0312
Q15.375 64.1562 9.8125 62.3125
L9.8125 71.0938
Q15.4375 72.6562 20.3438 73.4375
Q25.25 74.2188 29.5938 74.2188
Q40.8281 74.2188 47.3594 69.1094
Q53.9062 64.0156 53.9062 55.3281
Q53.9062 49.2656 50.4375 45.0938
Q46.9688 40.9219 40.5781 39.3125" id="DejaVuSans-33"/>
      </defs>
      <g transform="translate(286.475816007 381.859875)scale(0.12 -0.12)">
       <use xlink:href="#DejaVuSans-33"/>
       <use x="63.623046875" xlink:href="#DejaVuSans-30"/>
       <use x="127.24609375" xlink:href="#DejaVuSans-30"/>
      </g>
     </g>
    </g>
    <g id="xtick_5">
     <g id="line2d_25">
      <g>
       <use style="stroke:#000000;stroke-width:0.5;" x="386.531296343" xlink:href="#m93b0483c22" y="368.74175"/>
      </g>
     </g>
     <g id="line2d_26">
      <g>
       <use style="stroke:#000000;stroke-width:0.5;" x="386.531296343" xlink:href="#m741efc42ff" y="23.14175"/>
      </g>
     </g>
     <g id="text_5">
      <!-- 400 -->
      <defs>
       <path d="
M37.7969 64.3125
L12.8906 25.3906
L37.7969 25.3906
z

M35.2031 72.9062
L47.6094 72.9062
L47.6094 25.3906
L58.0156 25.3906
L58.0156 17.1875
L47.6094 17.1875
L47.6094 0
L37.7969 0
L37.7969 17.1875
L4.89062 17.1875
L4.89062 26.7031
z
" id="DejaVuSans-34"/>
      </defs>
      <g transform="translate(375.770671343 381.859875)scale(0.12 -0.12)">
       <use xlink:href="#DejaVuSans-34"/>
       <use x="63.623046875" xlink:href="#DejaVuSans-30"/>
       <use x="127.24609375" xlink:href="#DejaVuSans-30"/>
      </g>
     </g>
    </g>
    <g id="text_6">
     <!-- time -->
     <defs>
      <path d="
M18.3125 70.2188
L18.3125 54.6875
L36.8125 54.6875
L36.8125 47.7031
L18.3125 47.7031
L18.3125 18.0156
Q18.3125 11.3281 20.1406 9.42188
Q21.9688 7.51562 27.5938 7.51562
L36.8125 7.51562
L36.8125 0
L27.5938 0
Q17.1875 0 13.2344 3.875
Q9.28125 7.76562 9.28125 18.0156
L9.28125 47.7031
L2.6875 47.7031
L2.6875 54.6875
L9.28125 54.6875
L9.28125 70.2188
z
" id="DejaVuSans-74"/>
      <path d="
M52 44.1875
Q55.375 50.25 60.0625 53.125
Q64.75 56 71.0938 56
Q79.6406 56 84.2812 50.0156
Q88.9219 44.0469 88.9219 33.0156
L88.9219 0
L79.8906 0
L79.8906 32.7188
Q79.8906 40.5781 77.0938 44.375
Q74.3125 48.1875 68.6094 48.1875
Q61.625 48.1875 57.5625 43.5469
Q53.5156 38.9219 53.5156 30.9062
L53.5156 0
L44.4844 0
L44.4844 32.7188
Q44.4844 40.625 41.7031 44.4062
Q38.9219 48.1875 33.1094 48.1875
Q26.2188 48.1875 22.1562 43.5312
Q18.1094 38.875 18.1094 30.9062
L18.1094 0
L9.07812 0
L9.07812 54.6875
L18.1094 54.6875
L18.1094 46.1875
Q21.1875 51.2188 25.4844 53.6094
Q29.7812 56 35.6875 56
Q41.6562 56 45.8281 52.9688
Q50 49.9531 52 44.1875" id="DejaVuSans-6d"/>
      <path d="
M56.2031 29.5938
L56.2031 25.2031
L14.8906 25.2031
Q15.4844 15.9219 20.4844 11.0625
Q25.4844 6.20312 34.4219 6.20312
Q39.5938 6.20312 44.4531 7.46875
Q49.3125 8.73438 54.1094 11.2812
L54.1094 2.78125
Q49.2656 0.734375 44.1875 -0.34375
Q39.1094 -1.42188 33.8906 -1.42188
Q20.7969 -1.42188 13.1562 6.1875
Q5.51562 13.8125 5.51562 26.8125
Q5.51562 40.2344 12.7656 48.1094
Q20.0156 56 32.3281 56
Q43.3594 56 49.7812 48.8906
Q56.2031 41.7969 56.2031 29.5938
M47.2188 32.2344
Q47.125 39.5938 43.0938 43.9844
Q39.0625 48.3906 32.4219 48.3906
Q24.9062 48.3906 20.3906 44.1406
Q15.875 39.8906 15.1875 32.1719
z
" id="DejaVuSans-65"/>
      <path d="
M9.42188 54.6875
L18.4062 54.6875
L18.4062 0
L9.42188 0
z

M9.42188 75.9844
L18.4062 75.9844
L18.4062 64.5938
L9.42188 64.5938
z
" id="DejaVuSans-69"/>
     </defs>
     <g transform="translate(238.82125 398.473625)scale(0.12 -0.12)">
      <use xlink:href="#DejaVuSans-74"/>
      <use x="39.208984375" xlink:href="#DejaVuSans-69"/>
      <use x="66.9921875" xlink:href="#DejaVuSans-6d"/>
      <use x="164.404296875" xlink:href="#DejaVuSans-65"/>
     </g>
    </g>
   </g>
   <g id="matplotlib.axis_2">
    <g id="ytick_1">
     <g id="line2d_27">
      <defs>
       <path d="
M0 0
L4 0" id="m728421d6d4" style="stroke:#000000;stroke-width:0.5;"/>
      </defs>
      <g>
       <use style="stroke:#000000;stroke-width:0.5;" x="28.695625" xlink:href="#m728421d6d4" y="368.74175"/>
      </g>
     </g>
     <g id="line2d_28">
      <defs>
       <path d="
M0 0
L-4 0" id="mcb0005524f" style="stroke:#000000;stroke-width:0.5;"/>
      </defs>
      <g>
       <use style="stroke:#000000;stroke-width:0.5;" x="475.095625" xlink:href="#mcb0005524f" y="368.74175"/>
      </g>
     </g>
     <g id="text_7">
      <!-- 0.0 -->
      <defs>
       <path d="
M10.6875 12.4062
L21 12.4062
L21 0
L10.6875 0
z
" id="DejaVuSans-2e"/>
      </defs>
      <g transform="translate(7.2 372.053)scale(0.12 -0.12)">
       <use xlink:href="#DejaVuSans-30"/>
       <use x="63.623046875" xlink:href="#DejaVuSans-2e"/>
       <use x="95.41015625" xlink:href="#DejaVuSans-30"/>
      </g>
     </g>
    </g>
    <g id="ytick_2">
     <g id="line2d_29">
      <g>
       <use style="stroke:#000000;stroke-width:0.5;" x="28.695625" xlink:href="#m728421d6d4" y="282.34175"/>
      </g>
     </g>
     <g id="line2d_30">
      <g>
       <use style="stroke:#000000;stroke-width:0.5;" x="475.095625" xlink:href="#mcb0005524f" y="282.34175"/>
      </g>
     </g>
     <g id="text_8">
      <!-- 0.5 -->
      <defs>
       <path d="
M10.7969 72.9062
L49.5156 72.9062
L49.5156 64.5938
L19.8281 64.5938
L19.8281 46.7344
Q21.9688 47.4688 24.1094 47.8281
Q26.2656 48.1875 28.4219 48.1875
Q40.625 48.1875 47.75 41.5
Q54.8906 34.8125 54.8906 23.3906
Q54.8906 11.625 47.5625 5.09375
Q40.2344 -1.42188 26.9062 -1.42188
Q22.3125 -1.42188 17.5469 -0.640625
Q12.7969 0.140625 7.71875 1.70312
L7.71875 11.625
Q12.1094 9.23438 16.7969 8.0625
Q21.4844 6.89062 26.7031 6.89062
Q35.1562 6.89062 40.0781 11.3281
Q45.0156 15.7656 45.0156 23.3906
Q45.0156 31 40.0781 35.4375
Q35.1562 39.8906 26.7031 39.8906
Q22.75 39.8906 18.8125 39.0156
Q14.8906 38.1406 10.7969 36.2812
z
" id="DejaVuSans-35"/>
      </defs>
      <g transform="translate(7.45125 285.653)scale(0.12 -0.12)">
       <use xlink:href="#DejaVuSans-30"/>
       <use x="63.623046875" xlink:href="#DejaVuSans-2e"/>
       <use x="95.41015625" xlink:href="#DejaVuSans-35"/>
      </g>
     </g>
    </g>
    <g id="ytick_3">
     <g id="line2d_31">
      <g>
       <use style="stroke:#000000;stroke-width:0.5;" x="28.695625" xlink:href="#m728421d6d4" y="195.94175"/>
      </g>
     </g>
     <g id="line2d_32">
      <g>
       <use style="stroke:#000000;stroke-width:0.5;" x="475.095625" xlink:href="#mcb0005524f" y="195.94175"/>
      </g>
     </g>
     <g id="text_9">
      <!-- 1.0 -->
      <g transform="translate(7.726875 199.253)scale(0.12 -0.12)">
       <use xlink:href="#DejaVuSans-31"/>
       <use x="63.623046875" xlink:href="#DejaVuSans-2e"/>
       <use x="95.41015625" xlink:href="#DejaVuSans-30"/>
      </g>
     </g>
    </g>
    <g id="ytick_4">
     <g id="line2d_33">
      <g>
       <use style="stroke:#000000;stroke-width:0.5;" x="28.695625" xlink:href="#m728421d6d4" y="109.54175"/>
      </g>
     </g>
     <g id="line2d_34">
      <g>
       <use style="stroke:#000000;stroke-width:0.5;" x="475.095625" xlink:href="#mcb0005524f" y="109.54175"/>
      </g>
     </g>
     <g id="text_10">
      <!-- 1.5 -->
      <g transform="translate(7.978125 112.853)scale(0.12 -0.12)">
       <use xlink:href="#DejaVuSans-31"/>
       <use x="63.623046875" xlink:href="#DejaVuSans-2e"/>
       <use x="95.41015625" xlink:href="#DejaVuSans-35"/>
      </g>
     </g>
    </g>
    <g id="ytick_5">
     <g id="line2d_35">
      <g>
       <use style="stroke:#000000;stroke-width:0.5;" x="28.695625" xlink:href="#m728421d6d4" y="23.14175"/>
      </g>
     </g>
     <g id="line2d_36">
      <g>
       <use style="stroke:#000000;stroke-width:0.5;" x="475.095625" xlink:href="#mcb0005524f" y="23.14175"/>
      </g>
     </g>
     <g id="text_11">
      <!-- 2.0 -->
      <g transform="translate(7.288125 26.453)scale(0.12 -0.12)">
       <use xlink:href="#DejaVuSans-32"/>
       <use x="63.623046875" xlink:href="#DejaVuSans-2e"/>
       <use x="95.41015625" xlink:href="#DejaVuSans-30"/>
      </g>
     </g>
    </g>
    <g id="text_12">
     <!-- 1e7 -->
     <defs>
      <path d="
M8.20312 72.9062
L55.0781 72.9062
L55.0781 68.7031
L28.6094 0
L18.3125 0
L43.2188 64.5938
L8.20312 64.5938
z
" id="DejaVuSans-37"/>
     </defs>
     <g transform="translate(28.695625 20.14175)scale(0.12 -0.12)">
      <use xlink:href="#DejaVuSans-31"/>
      <use x="63.623046875" xlink:href="#DejaVuSans-65"/>
      <use x="125.146484375" xlink:href="#DejaVuSans-37"/>
     </g>
    </g>
   </g>
   <g id="text_13">
    <!-- /messages/count/mpi/received -->
    <defs>
     <path d="
M2.98438 54.6875
L12.5 54.6875
L29.5938 8.79688
L46.6875 54.6875
L56.2031 54.6875
L35.6875 0
L23.4844 0
z
" id="DejaVuSans-76"/>
     <path d="
M25.3906 72.9062
L33.6875 72.9062
L8.29688 -9.28125
L0 -9.28125
z
" id="DejaVuSans-2f"/>
     <path d="
M30.6094 48.3906
Q23.3906 48.3906 19.1875 42.75
Q14.9844 37.1094 14.9844 27.2969
Q14.9844 17.4844 19.1562 11.8438
Q23.3438 6.20312 30.6094 6.20312
Q37.7969 6.20312 41.9844 11.8594
Q46.1875 17.5312 46.1875 27.2969
Q46.1875 37.0156 41.9844 42.7031
Q37.7969 48.3906 30.6094 48.3906
M30.6094 56
Q42.3281 56 49.0156 48.375
Q55.7188 40.7656 55.7188 27.2969
Q55.7188 13.875 49.0156 6.21875
Q42.3281 -1.42188 30.6094 -1.42188
Q18.8438 -1.42188 12.1719 6.21875
Q5.51562 13.875 5.51562 27.2969
Q5.51562 40.7656 12.1719 48.375
Q18.8438 56 30.6094 56" id="DejaVuSans-6f"/>
     <path d="
M54.8906 33.0156
L54.8906 0
L45.9062 0
L45.9062 32.7188
Q45.9062 40.4844 42.875 44.3281
Q39.8438 48.1875 33.7969 48.1875
Q26.5156 48.1875 22.3125 43.5469
Q18.1094 38.9219 18.1094 30.9062
L18.1094 0
L9.07812 0
L9.07812 54.6875
L18.1094 54.6875
L18.1094 46.1875
Q21.3438 51.125 25.7031 53.5625
Q30.0781 56 35.7969 56
Q45.2188 56 50.0469 50.1719
Q54.8906 44.3438 54.8906 33.0156" id="DejaVuSans-6e"/>
     <path d="
M18.1094 8.20312
L18.1094 -20.7969
L9.07812 -20.7969
L9.07812 54.6875
L18.1094 54.6875
L18.1094 46.3906
Q20.9531 51.2656 25.2656 53.625
Q29.5938 56 35.5938 56
Q45.5625 56 51.7812 48.0938
Q58.0156 40.1875 58.0156 27.2969
Q58.0156 14.4062 51.7812 6.48438
Q45.5625 -1.42188 35.5938 -1.42188
Q29.5938 -1.42188 25.2656 0.953125
Q20.9531 3.32812 18.1094 8.20312
M48.6875 27.2969
Q48.6875 37.2031 44.6094 42.8438
Q40.5312 48.4844 33.4062 48.4844
Q26.2656 48.4844 22.1875 42.8438
Q18.1094 37.2031 18.1094 27.2969
Q18.1094 17.3906 22.1875 11.75
Q26.2656 6.10938 33.4062 6.10938
Q40.5312 6.10938 44.6094 11.75
Q48.6875 17.3906 48.6875 27.2969" id="DejaVuSans-70"/>
     <path d="
M8.5 21.5781
L8.5 54.6875
L17.4844 54.6875
L17.4844 21.9219
Q17.4844 14.1562 20.5 10.2656
Q23.5312 6.39062 29.5938 6.39062
Q36.8594 6.39062 41.0781 11.0312
Q45.3125 15.6719 45.3125 23.6875
L45.3125 54.6875
L54.2969 54.6875
L54.2969 0
L45.3125 0
L45.3125 8.40625
Q42.0469 3.42188 37.7188 1
Q33.4062 -1.42188 27.6875 -1.42188
Q18.2656 -1.42188 13.375 4.4375
Q8.5 10.2969 8.5 21.5781
M31.1094 56
z
" id="DejaVuSans-75"/>
     <path d="
M45.4062 27.9844
Q45.4062 37.75 41.375 43.1094
Q37.3594 48.4844 30.0781 48.4844
Q22.8594 48.4844 18.8281 43.1094
Q14.7969 37.75 14.7969 27.9844
Q14.7969 18.2656 18.8281 12.8906
Q22.8594 7.51562 30.0781 7.51562
Q37.3594 7.51562 41.375 12.8906
Q45.4062 18.2656 45.4062 27.9844
M54.3906 6.78125
Q54.3906 -7.17188 48.1875 -13.9844
Q42 -20.7969 29.2031 -20.7969
Q24.4688 -20.7969 20.2656 -20.0938
Q16.0625 -19.3906 12.1094 -17.9219
L12.1094 -9.1875
Q16.0625 -11.3281 19.9219 -12.3438
Q23.7812 -13.375 27.7812 -13.375
Q36.625 -13.375 41.0156 -8.76562
Q45.4062 -4.15625 45.4062 5.17188
L45.4062 9.625
Q42.625 4.78125 38.2812 2.39062
Q33.9375 0 27.875 0
Q17.8281 0 11.6719 7.65625
Q5.51562 15.3281 5.51562 27.9844
Q5.51562 40.6719 11.6719 48.3281
Q17.8281 56 27.875 56
Q33.9375 56 38.2812 53.6094
Q42.625 51.2188 45.4062 46.3906
L45.4062 54.6875
L54.3906 54.6875
z
" id="DejaVuSans-67"/>
     <path d="
M45.4062 46.3906
L45.4062 75.9844
L54.3906 75.9844
L54.3906 0
L45.4062 0
L45.4062 8.20312
Q42.5781 3.32812 38.25 0.953125
Q33.9375 -1.42188 27.875 -1.42188
Q17.9688 -1.42188 11.7344 6.48438
Q5.51562 14.4062 5.51562 27.2969
Q5.51562 40.1875 11.7344 48.0938
Q17.9688 56 27.875 56
Q33.9375 56 38.25 53.625
Q42.5781 51.2656 45.4062 46.3906
M14.7969 27.2969
Q14.7969 17.3906 18.875 11.75
Q22.9531 6.10938 30.0781 6.10938
Q37.2031 6.10938 41.2969 11.75
Q45.4062 17.3906 45.4062 27.2969
Q45.4062 37.2031 41.2969 42.8438
Q37.2031 48.4844 30.0781 48.4844
Q22.9531 48.4844 18.875 42.8438
Q14.7969 37.2031 14.7969 27.2969" id="DejaVuSans-64"/>
     <path d="
M41.1094 46.2969
Q39.5938 47.1719 37.8125 47.5781
Q36.0312 48 33.8906 48
Q26.2656 48 22.1875 43.0469
Q18.1094 38.0938 18.1094 28.8125
L18.1094 0
L9.07812 0
L9.07812 54.6875
L18.1094 54.6875
L18.1094 46.1875
Q20.9531 51.1719 25.4844 53.5781
Q30.0312 56 36.5312 56
Q37.4531 56 38.5781 55.875
Q39.7031 55.7656 41.0625 55.5156
z
" id="DejaVuSans-72"/>
     <path d="
M48.7812 52.5938
L48.7812 44.1875
Q44.9688 46.2969 41.1406 47.3438
Q37.3125 48.3906 33.4062 48.3906
Q24.6562 48.3906 19.8125 42.8438
Q14.9844 37.3125 14.9844 27.2969
Q14.9844 17.2812 19.8125 11.7344
Q24.6562 6.20312 33.4062 6.20312
Q37.3125 6.20312 41.1406 7.25
Q44.9688 8.29688 48.7812 10.4062
L48.7812 2.09375
Q45.0156 0.34375 40.9844 -0.53125
Q36.9688 -1.42188 32.4219 -1.42188
Q20.0625 -1.42188 12.7812 6.34375
Q5.51562 14.1094 5.51562 27.2969
Q5.51562 40.6719 12.8594 48.3281
Q20.2188 56 33.0156 56
Q37.1562 56 41.1094 55.1406
Q45.0625 54.2969 48.7812 52.5938" id="DejaVuSans-63"/>
     <path d="
M44.2812 53.0781
L44.2812 44.5781
Q40.4844 46.5312 36.375 47.5
Q32.2812 48.4844 27.875 48.4844
Q21.1875 48.4844 17.8438 46.4375
Q14.5 44.3906 14.5 40.2812
Q14.5 37.1562 16.8906 35.375
Q19.2812 33.5938 26.5156 31.9844
L29.5938 31.2969
Q39.1562 29.25 43.1875 25.5156
Q47.2188 21.7812 47.2188 15.0938
Q47.2188 7.46875 41.1875 3.01562
Q35.1562 -1.42188 24.6094 -1.42188
Q20.2188 -1.42188 15.4531 -0.5625
Q10.6875 0.296875 5.42188 2
L5.42188 11.2812
Q10.4062 8.6875 15.2344 7.39062
Q20.0625 6.10938 24.8125 6.10938
Q31.1562 6.10938 34.5625 8.28125
Q37.9844 10.4531 37.9844 14.4062
Q37.9844 18.0625 35.5156 20.0156
Q33.0625 21.9688 24.7031 23.7812
L21.5781 24.5156
Q13.2344 26.2656 9.51562 29.9062
Q5.8125 33.5469 5.8125 39.8906
Q5.8125 47.6094 11.2812 51.7969
Q16.75 56 26.8125 56
Q31.7812 56 36.1719 55.2656
Q40.5781 54.5469 44.2812 53.0781" id="DejaVuSans-73"/>
     <path d="
M34.2812 27.4844
Q23.3906 27.4844 19.1875 25
Q14.9844 22.5156 14.9844 16.5
Q14.9844 11.7188 18.1406 8.90625
Q21.2969 6.10938 26.7031 6.10938
Q34.1875 6.10938 38.7031 11.4062
Q43.2188 16.7031 43.2188 25.4844
L43.2188 27.4844
z

M52.2031 31.2031
L52.2031 0
L43.2188 0
L43.2188 8.29688
Q40.1406 3.32812 35.5469 0.953125
Q30.9531 -1.42188 24.3125 -1.42188
Q15.9219 -1.42188 10.9531 3.29688
Q6 8.01562 6 15.9219
Q6 25.1406 12.1719 29.8281
Q18.3594 34.5156 30.6094 34.5156
L43.2188 34.5156
L43.2188 35.4062
Q43.2188 41.6094 39.1406 45
Q35.0625 48.3906 27.6875 48.3906
Q23 48.3906 18.5469 47.2656
Q14.1094 46.1406 10.0156 43.8906
L10.0156 52.2031
Q14.9375 54.1094 19.5781 55.0469
Q24.2188 56 28.6094 56
Q40.4844 56 46.3438 49.8438
Q52.2031 43.7031 52.2031 31.2031" id="DejaVuSans-61"/>
    </defs>
    <g transform="translate(141.96175 18.14175)scale(0.144 -0.144)">
     <use xlink:href="#DejaVuSans-2f"/>
     <use x="33.69140625" xlink:href="#DejaVuSans-6d"/>
     <use x="131.103515625" xlink:href="#DejaVuSans-65"/>
     <use x="192.626953125" xlink:href="#DejaVuSans-73"/>
     <use x="244.7265625" xlink:href="#DejaVuSans-73"/>
     <use x="296.826171875" xlink:href="#DejaVuSans-61"/>
     <use x="358.10546875" xlink:href="#DejaVuSans-67"/>
     <use x="421.58203125" xlink:href="#DejaVuSans-65"/>
     <use x="483.10546875" xlink:href="#DejaVuSans-73"/>
     <use x="535.205078125" xlink:href="#DejaVuSans-2f"/>
     <use x="568.896484375" xlink:href="#DejaVuSans-63"/>
     <use x="623.876953125" xlink:href="#DejaVuSans-6f"/>
     <use x="685.05859375" xlink:href="#DejaVuSans-75"/>
     <use x="748.4375" xlink:href="#DejaVuSans-6e"/>
     <use x="811.81640625" xlink:href="#DejaVuSans-74"/>
     <use x="851.025390625" xlink:href="#DejaVuSans-2f"/>
     <use x="884.716796875" xlink:href="#DejaVuSans-6d"/>
     <use x="982.12890625" xlink:href="#DejaVuSans-70"/>
     <use x="1045.60546875" xlink:href="#DejaVuSans-69"/>
     <use x="1073.38867188" xlink:href="#DejaVuSans-2f"/>
     <use x="1107.08007812" xlink:href="#DejaVuSans-72"/>
     <use x="1145.94335938" xlink:href="#DejaVuSans-65"/>
     <use x="1207.46679688" xlink:href="#DejaVuSans-63"/>
     <use x="1262.44726562" xlink:href="#DejaVuSans-65"/>
     <use x="1323.97070312" xlink:href="#DejaVuSans-69"/>
     <use x="1351.75390625" xlink:href="#DejaVuSans-76"/>
     <use x="1410.93359375" xlink:href="#DejaVuSans-65"/>
     <use x="1472.45703125" xlink:href="#DejaVuSans-64"/>
    </g>
   </g>
   <g id="legend_1">
    <g id="patch_7">
     <path d="
M482.296 367.194
L614.085 367.194
L614.085 24.6897
L482.296 24.6897
z
" style="fill:#ffffff;stroke:#000000;stroke-linejoin:miter;"/>
    </g>
    <g id="line2d_37">
     <path d="
M492.376 36.3515
L512.536 36.3515" style="fill:none;stroke:#0000ff;stroke-linecap:square;"/>
    </g>
    <g id="line2d_38"/>
    <g id="text_14">
     <!-- locality#0 -->
     <defs>
      <path d="
M51.125 44
L36.9219 44
L32.8125 27.6875
L47.125 27.6875
z

M43.7969 71.7812
L38.7188 51.5156
L52.9844 51.5156
L58.1094 71.7812
L65.9219 71.7812
L60.8906 51.5156
L76.125 51.5156
L76.125 44
L58.9844 44
L54.9844 27.6875
L70.5156 27.6875
L70.5156 20.2188
L53.0781 20.2188
L48 0
L40.1875 0
L45.2188 20.2188
L30.9062 20.2188
L25.875 0
L18.0156 0
L23.0938 20.2188
L7.71875 20.2188
L7.71875 27.6875
L24.9062 27.6875
L29 44
L13.2812 44
L13.2812 51.5156
L30.9062 51.5156
L35.8906 71.7812
z
" id="DejaVuSans-23"/>
      <path d="
M32.1719 -5.07812
Q28.375 -14.8438 24.75 -17.8125
Q21.1406 -20.7969 15.0938 -20.7969
L7.90625 -20.7969
L7.90625 -13.2812
L13.1875 -13.2812
Q16.8906 -13.2812 18.9375 -11.5156
Q21 -9.76562 23.4844 -3.21875
L25.0938 0.875
L2.98438 54.6875
L12.5 54.6875
L29.5938 11.9219
L46.6875 54.6875
L56.2031 54.6875
z
" id="DejaVuSans-79"/>
      <path d="
M9.42188 75.9844
L18.4062 75.9844
L18.4062 0
L9.42188 0
z
" id="DejaVuSans-6c"/>
     </defs>
     <g transform="translate(528.375625 41.3915)scale(0.144 -0.144)">
      <use xlink:href="#DejaVuSans-6c"/>
      <use x="27.783203125" xlink:href="#DejaVuSans-6f"/>
      <use x="88.96484375" xlink:href="#DejaVuSans-63"/>
      <use x="143.9453125" xlink:href="#DejaVuSans-61"/>
      <use x="205.224609375" xlink:href="#DejaVuSans-6c"/>
      <use x="233.0078125" xlink:href="#DejaVuSans-69"/>
      <use x="260.791015625" xlink:href="#DejaVuSans-74"/>
      <use x="300.0" xlink:href="#DejaVuSans-79"/>
      <use x="359.1796875" xlink:href="#DejaVuSans-23"/>
      <use x="442.96875" xlink:href="#DejaVuSans-30"/>
     </g>
    </g>
    <g id="line2d_39">
     <path d="
M492.376 57.488
L512.536 57.488" style="fill:none;stroke:#008000;stroke-linecap:square;"/>
    </g>
    <g id="line2d_40"/>
    <g id="text_15">
     <!-- locality#1 -->
     <g transform="translate(528.375625 62.528)scale(0.144 -0.144)">
      <use xlink:href="#DejaVuSans-6c"/>
      <use x="27.783203125" xlink:href="#DejaVuSans-6f"/>
      <use x="88.96484375" xlink:href="#DejaVuSans-63"/>
      <use x="143.9453125" xlink:href="#DejaVuSans-61"/>
      <use x="205.224609375" xlink:href="#DejaVuSans-6c"/>
      <use x="233.0078125" xlink:href="#DejaVuSans-69"/>
      <use x="260.791015625" xlink:href="#DejaVuSans-74"/>
      <use x="300.0" xlink:href="#DejaVuSans-79"/>
      <use x="359.1796875" xlink:href="#DejaVuSans-23"/>
      <use x="442.96875" xlink:href="#DejaVuSans-31"/>
     </g>
    </g>
    <g id="line2d_41">
     <path d="
M492.376 78.6245
L512.536 78.6245" style="fill:none;stroke:#ff0000;stroke-linecap:square;"/>
    </g>
    <g id="line2d_42"/>
    <g id="text_16">
     <!-- locality#10 -->
     <g transform="translate(528.375625 83.6645)scale(0.144 -0.144)">
      <use xlink:href="#DejaVuSans-6c"/>
      <use x="27.783203125" xlink:href="#DejaVuSans-6f"/>
      <use x="88.96484375" xlink:href="#DejaVuSans-63"/>
      <use x="143.9453125" xlink:href="#DejaVuSans-61"/>
      <use x="205.224609375" xlink:href="#DejaVuSans-6c"/>
      <use x="233.0078125" xlink:href="#DejaVuSans-69"/>
      <use x="260.791015625" xlink:href="#DejaVuSans-74"/>
      <use x="300.0" xlink:href="#DejaVuSans-79"/>
      <use x="359.1796875" xlink:href="#DejaVuSans-23"/>
      <use x="442.96875" xlink:href="#DejaVuSans-31"/>
      <use x="506.591796875" xlink:href="#DejaVuSans-30"/>
     </g>
    </g>
    <g id="line2d_43">
     <path d="
M492.376 99.761
L512.536 99.761" style="fill:none;stroke:#00bfbf;stroke-linecap:square;"/>
    </g>
    <g id="line2d_44"/>
    <g id="text_17">
     <!-- locality#11 -->
     <g transform="translate(528.375625 104.801)scale(0.144 -0.144)">
      <use xlink:href="#DejaVuSans-6c"/>
      <use x="27.783203125" xlink:href="#DejaVuSans-6f"/>
      <use x="88.96484375" xlink:href="#DejaVuSans-63"/>
      <use x="143.9453125" xlink:href="#DejaVuSans-61"/>
      <use x="205.224609375" xlink:href="#DejaVuSans-6c"/>
      <use x="233.0078125" xlink:href="#DejaVuSans-69"/>
      <use x="260.791015625" xlink:href="#DejaVuSans-74"/>
      <use x="300.0" xlink:href="#DejaVuSans-79"/>
      <use x="359.1796875" xlink:href="#DejaVuSans-23"/>
      <use x="442.96875" xlink:href="#DejaVuSans-31"/>
      <use x="506.591796875" xlink:href="#DejaVuSans-31"/>
     </g>
    </g>
    <g id="line2d_45">
     <path d="
M492.376 120.897
L512.536 120.897" style="fill:none;stroke:#bf00bf;stroke-linecap:square;"/>
    </g>
    <g id="line2d_46"/>
    <g id="text_18">
     <!-- locality#12 -->
     <g transform="translate(528.375625 125.9375)scale(0.144 -0.144)">
      <use xlink:href="#DejaVuSans-6c"/>
      <use x="27.783203125" xlink:href="#DejaVuSans-6f"/>
      <use x="88.96484375" xlink:href="#DejaVuSans-63"/>
      <use x="143.9453125" xlink:href="#DejaVuSans-61"/>
      <use x="205.224609375" xlink:href="#DejaVuSans-6c"/>
      <use x="233.0078125" xlink:href="#DejaVuSans-69"/>
      <use x="260.791015625" xlink:href="#DejaVuSans-74"/>
      <use x="300.0" xlink:href="#DejaVuSans-79"/>
      <use x="359.1796875" xlink:href="#DejaVuSans-23"/>
      <use x="442.96875" xlink:href="#DejaVuSans-31"/>
      <use x="506.591796875" xlink:href="#DejaVuSans-32"/>
     </g>
    </g>
    <g id="line2d_47">
     <path d="
M492.376 142.034
L512.536 142.034" style="fill:none;stroke:#bfbf00;stroke-linecap:square;"/>
    </g>
    <g id="line2d_48"/>
    <g id="text_19">
     <!-- locality#13 -->
     <g transform="translate(528.375625 147.074)scale(0.144 -0.144)">
      <use xlink:href="#DejaVuSans-6c"/>
      <use x="27.783203125" xlink:href="#DejaVuSans-6f"/>
      <use x="88.96484375" xlink:href="#DejaVuSans-63"/>
      <use x="143.9453125" xlink:href="#DejaVuSans-61"/>
      <use x="205.224609375" xlink:href="#DejaVuSans-6c"/>
      <use x="233.0078125" xlink:href="#DejaVuSans-69"/>
      <use x="260.791015625" xlink:href="#DejaVuSans-74"/>
      <use x="300.0" xlink:href="#DejaVuSans-79"/>
      <use x="359.1796875" xlink:href="#DejaVuSans-23"/>
      <use x="442.96875" xlink:href="#DejaVuSans-31"/>
      <use x="506.591796875" xlink:href="#DejaVuSans-33"/>
     </g>
    </g>
    <g id="line2d_49">
     <path d="
M492.376 163.17
L512.536 163.17" style="fill:none;stroke:#000000;stroke-linecap:square;"/>
    </g>
    <g id="line2d_50"/>
    <g id="text_20">
     <!-- locality#14 -->
     <g transform="translate(528.375625 168.2105)scale(0.144 -0.144)">
      <use xlink:href="#DejaVuSans-6c"/>
      <use x="27.783203125" xlink:href="#DejaVuSans-6f"/>
      <use x="88.96484375" xlink:href="#DejaVuSans-63"/>
      <use x="143.9453125" xlink:href="#DejaVuSans-61"/>
      <use x="205.224609375" xlink:href="#DejaVuSans-6c"/>
      <use x="233.0078125" xlink:href="#DejaVuSans-69"/>
      <use x="260.791015625" xlink:href="#DejaVuSans-74"/>
      <use x="300.0" xlink:href="#DejaVuSans-79"/>
      <use x="359.1796875" xlink:href="#DejaVuSans-23"/>
      <use x="442.96875" xlink:href="#DejaVuSans-31"/>
      <use x="506.591796875" xlink:href="#DejaVuSans-34"/>
     </g>
    </g>
    <g id="line2d_51">
     <path d="
M492.376 184.307
L512.536 184.307" style="fill:none;stroke:#0000ff;stroke-linecap:square;"/>
    </g>
    <g id="line2d_52"/>
    <g id="text_21">
     <!-- locality#15 -->
     <g transform="translate(528.375625 189.347)scale(0.144 -0.144)">
      <use xlink:href="#DejaVuSans-6c"/>
      <use x="27.783203125" xlink:href="#DejaVuSans-6f"/>
      <use x="88.96484375" xlink:href="#DejaVuSans-63"/>
      <use x="143.9453125" xlink:href="#DejaVuSans-61"/>
      <use x="205.224609375" xlink:href="#DejaVuSans-6c"/>
      <use x="233.0078125" xlink:href="#DejaVuSans-69"/>
      <use x="260.791015625" xlink:href="#DejaVuSans-74"/>
      <use x="300.0" xlink:href="#DejaVuSans-79"/>
      <use x="359.1796875" xlink:href="#DejaVuSans-23"/>
      <use x="442.96875" xlink:href="#DejaVuSans-31"/>
      <use x="506.591796875" xlink:href="#DejaVuSans-35"/>
     </g>
    </g>
    <g id="line2d_53">
     <path d="
M492.376 205.443
L512.536 205.443" style="fill:none;stroke:#008000;stroke-linecap:square;"/>
    </g>
    <g id="line2d_54"/>
    <g id="text_22">
     <!-- locality#2 -->
     <g transform="translate(528.375625 210.4835)scale(0.144 -0.144)">
      <use xlink:href="#DejaVuSans-6c"/>
      <use x="27.783203125" xlink:href="#DejaVuSans-6f"/>
      <use x="88.96484375" xlink:href="#DejaVuSans-63"/>
      <use x="143.9453125" xlink:href="#DejaVuSans-61"/>
      <use x="205.224609375" xlink:href="#DejaVuSans-6c"/>
      <use x="233.0078125" xlink:href="#DejaVuSans-69"/>
      <use x="260.791015625" xlink:href="#DejaVuSans-74"/>
      <use x="300.0" xlink:href="#DejaVuSans-79"/>
      <use x="359.1796875" xlink:href="#DejaVuSans-23"/>
      <use x="442.96875" xlink:href="#DejaVuSans-32"/>
     </g>
    </g>
    <g id="line2d_55">
     <path d="
M492.376 226.58
L512.536 226.58" style="fill:none;stroke:#ff0000;stroke-linecap:square;"/>
    </g>
    <g id="line2d_56"/>
    <g id="text_23">
     <!-- locality#3 -->
     <g transform="translate(528.375625 231.62)scale(0.144 -0.144)">
      <use xlink:href="#DejaVuSans-6c"/>
      <use x="27.783203125" xlink:href="#DejaVuSans-6f"/>
      <use x="88.96484375" xlink:href="#DejaVuSans-63"/>
      <use x="143.9453125" xlink:href="#DejaVuSans-61"/>
      <use x="205.224609375" xlink:href="#DejaVuSans-6c"/>
      <use x="233.0078125" xlink:href="#DejaVuSans-69"/>
      <use x="260.791015625" xlink:href="#DejaVuSans-74"/>
      <use x="300.0" xlink:href="#DejaVuSans-79"/>
      <use x="359.1796875" xlink:href="#DejaVuSans-23"/>
      <use x="442.96875" xlink:href="#DejaVuSans-33"/>
     </g>
    </g>
    <g id="line2d_57">
     <path d="
M492.376 247.716
L512.536 247.716" style="fill:none;stroke:#00bfbf;stroke-linecap:square;"/>
    </g>
    <g id="line2d_58"/>
    <g id="text_24">
     <!-- locality#4 -->
     <g transform="translate(528.375625 252.7565)scale(0.144 -0.144)">
      <use xlink:href="#DejaVuSans-6c"/>
      <use x="27.783203125" xlink:href="#DejaVuSans-6f"/>
      <use x="88.96484375" xlink:href="#DejaVuSans-63"/>
      <use x="143.9453125" xlink:href="#DejaVuSans-61"/>
      <use x="205.224609375" xlink:href="#DejaVuSans-6c"/>
      <use x="233.0078125" xlink:href="#DejaVuSans-69"/>
      <use x="260.791015625" xlink:href="#DejaVuSans-74"/>
      <use x="300.0" xlink:href="#DejaVuSans-79"/>
      <use x="359.1796875" xlink:href="#DejaVuSans-23"/>
      <use x="442.96875" xlink:href="#DejaVuSans-34"/>
     </g>
    </g>
    <g id="line2d_59">
     <path d="
M492.376 268.853
L512.536 268.853" style="fill:none;stroke:#bf00bf;stroke-linecap:square;"/>
    </g>
    <g id="line2d_60"/>
    <g id="text_25">
     <!-- locality#5 -->
     <g transform="translate(528.375625 273.893)scale(0.144 -0.144)">
      <use xlink:href="#DejaVuSans-6c"/>
      <use x="27.783203125" xlink:href="#DejaVuSans-6f"/>
      <use x="88.96484375" xlink:href="#DejaVuSans-63"/>
      <use x="143.9453125" xlink:href="#DejaVuSans-61"/>
      <use x="205.224609375" xlink:href="#DejaVuSans-6c"/>
      <use x="233.0078125" xlink:href="#DejaVuSans-69"/>
      <use x="260.791015625" xlink:href="#DejaVuSans-74"/>
      <use x="300.0" xlink:href="#DejaVuSans-79"/>
      <use x="359.1796875" xlink:href="#DejaVuSans-23"/>
      <use x="442.96875" xlink:href="#DejaVuSans-35"/>
     </g>
    </g>
    <g id="line2d_61">
     <path d="
M492.376 289.989
L512.536 289.989" style="fill:none;stroke:#bfbf00;stroke-linecap:square;"/>
    </g>
    <g id="line2d_62"/>
    <g id="text_26">
     <!-- locality#6 -->
     <defs>
      <path d="
M33.0156 40.375
Q26.375 40.375 22.4844 35.8281
Q18.6094 31.2969 18.6094 23.3906
Q18.6094 15.5312 22.4844 10.9531
Q26.375 6.39062 33.0156 6.39062
Q39.6562 6.39062 43.5312 10.9531
Q47.4062 15.5312 47.4062 23.3906
Q47.4062 31.2969 43.5312 35.8281
Q39.6562 40.375 33.0156 40.375
M52.5938 71.2969
L52.5938 62.3125
Q48.875 64.0625 45.0938 64.9844
Q41.3125 65.9219 37.5938 65.9219
Q27.8281 65.9219 22.6719 59.3281
Q17.5312 52.7344 16.7969 39.4062
Q19.6719 43.6562 24.0156 45.9219
Q28.375 48.1875 33.5938 48.1875
Q44.5781 48.1875 50.9531 41.5156
Q57.3281 34.8594 57.3281 23.3906
Q57.3281 12.1562 50.6875 5.35938
Q44.0469 -1.42188 33.0156 -1.42188
Q20.3594 -1.42188 13.6719 8.26562
Q6.98438 17.9688 6.98438 36.375
Q6.98438 53.6562 15.1875 63.9375
Q23.3906 74.2188 37.2031 74.2188
Q40.9219 74.2188 44.7031 73.4844
Q48.4844 72.75 52.5938 71.2969" id="DejaVuSans-36"/>
     </defs>
     <g transform="translate(528.375625 295.0295)scale(0.144 -0.144)">
      <use xlink:href="#DejaVuSans-6c"/>
      <use x="27.783203125" xlink:href="#DejaVuSans-6f"/>
      <use x="88.96484375" xlink:href="#DejaVuSans-63"/>
      <use x="143.9453125" xlink:href="#DejaVuSans-61"/>
      <use x="205.224609375" xlink:href="#DejaVuSans-6c"/>
      <use x="233.0078125" xlink:href="#DejaVuSans-69"/>
      <use x="260.791015625" xlink:href="#DejaVuSans-74"/>
      <use x="300.0" xlink:href="#DejaVuSans-79"/>
      <use x="359.1796875" xlink:href="#DejaVuSans-23"/>
      <use x="442.96875" xlink:href="#DejaVuSans-36"/>
     </g>
    </g>
    <g id="line2d_63">
     <path d="
M492.376 311.126
L512.536 311.126" style="fill:none;stroke:#000000;stroke-linecap:square;"/>
    </g>
    <g id="line2d_64"/>
    <g id="text_27">
     <!-- locality#7 -->
     <g transform="translate(528.375625 316.166)scale(0.144 -0.144)">
      <use xlink:href="#DejaVuSans-6c"/>
      <use x="27.783203125" xlink:href="#DejaVuSans-6f"/>
      <use x="88.96484375" xlink:href="#DejaVuSans-63"/>
      <use x="143.9453125" xlink:href="#DejaVuSans-61"/>
      <use x="205.224609375" xlink:href="#DejaVuSans-6c"/>
      <use x="233.0078125" xlink:href="#DejaVuSans-69"/>
      <use x="260.791015625" xlink:href="#DejaVuSans-74"/>
      <use x="300.0" xlink:href="#DejaVuSans-79"/>
      <use x="359.1796875" xlink:href="#DejaVuSans-23"/>
      <use x="442.96875" xlink:href="#DejaVuSans-37"/>
     </g>
    </g>
    <g id="line2d_65">
     <path d="
M492.376 332.262
L512.536 332.262" style="fill:none;stroke:#0000ff;stroke-linecap:square;"/>
    </g>
    <g id="line2d_66"/>
    <g id="text_28">
     <!-- locality#8 -->
     <defs>
      <path d="
M31.7812 34.625
Q24.75 34.625 20.7188 30.8594
Q16.7031 27.0938 16.7031 20.5156
Q16.7031 13.9219 20.7188 10.1562
Q24.75 6.39062 31.7812 6.39062
Q38.8125 6.39062 42.8594 10.1719
Q46.9219 13.9688 46.9219 20.5156
Q46.9219 27.0938 42.8906 30.8594
Q38.875 34.625 31.7812 34.625
M21.9219 38.8125
Q15.5781 40.375 12.0312 44.7188
Q8.5 49.0781 8.5 55.3281
Q8.5 64.0625 14.7188 69.1406
Q20.9531 74.2188 31.7812 74.2188
Q42.6719 74.2188 48.875 69.1406
Q55.0781 64.0625 55.0781 55.3281
Q55.0781 49.0781 51.5312 44.7188
Q48 40.375 41.7031 38.8125
Q48.8281 37.1562 52.7969 32.3125
Q56.7812 27.4844 56.7812 20.5156
Q56.7812 9.90625 50.3125 4.23438
Q43.8438 -1.42188 31.7812 -1.42188
Q19.7344 -1.42188 13.25 4.23438
Q6.78125 9.90625 6.78125 20.5156
Q6.78125 27.4844 10.7812 32.3125
Q14.7969 37.1562 21.9219 38.8125
M18.3125 54.3906
Q18.3125 48.7344 21.8438 45.5625
Q25.3906 42.3906 31.7812 42.3906
Q38.1406 42.3906 41.7188 45.5625
Q45.3125 48.7344 45.3125 54.3906
Q45.3125 60.0625 41.7188 63.2344
Q38.1406 66.4062 31.7812 66.4062
Q25.3906 66.4062 21.8438 63.2344
Q18.3125 60.0625 18.3125 54.3906" id="DejaVuSans-38"/>
     </defs>
     <g transform="translate(528.375625 337.3025)scale(0.144 -0.144)">
      <use xlink:href="#DejaVuSans-6c"/>
      <use x="27.783203125" xlink:href="#DejaVuSans-6f"/>
      <use x="88.96484375" xlink:href="#DejaVuSans-63"/>
      <use x="143.9453125" xlink:href="#DejaVuSans-61"/>
      <use x="205.224609375" xlink:href="#DejaVuSans-6c"/>
      <use x="233.0078125" xlink:href="#DejaVuSans-69"/>
      <use x="260.791015625" xlink:href="#DejaVuSans-74"/>
      <use x="300.0" xlink:href="#DejaVuSans-79"/>
      <use x="359.1796875" xlink:href="#DejaVuSans-23"/>
      <use x="442.96875" xlink:href="#DejaVuSans-38"/>
     </g>
    </g>
    <g id="line2d_67">
     <path d="
M492.376 353.399
L512.536 353.399" style="fill:none;stroke:#008000;stroke-linecap:square;"/>
    </g>
    <g id="line2d_68"/>
    <g id="text_29">
     <!-- locality#9 -->
     <defs>
      <path d="
M10.9844 1.51562
L10.9844 10.5
Q14.7031 8.73438 18.5 7.8125
Q22.3125 6.89062 25.9844 6.89062
Q35.75 6.89062 40.8906 13.4531
Q46.0469 20.0156 46.7812 33.4062
Q43.9531 29.2031 39.5938 26.9531
Q35.25 24.7031 29.9844 24.7031
Q19.0469 24.7031 12.6719 31.3125
Q6.29688 37.9375 6.29688 49.4219
Q6.29688 60.6406 12.9375 67.4219
Q19.5781 74.2188 30.6094 74.2188
Q43.2656 74.2188 49.9219 64.5156
Q56.5938 54.8281 56.5938 36.375
Q56.5938 19.1406 48.4062 8.85938
Q40.2344 -1.42188 26.4219 -1.42188
Q22.7031 -1.42188 18.8906 -0.6875
Q15.0938 0.046875 10.9844 1.51562
M30.6094 32.4219
Q37.25 32.4219 41.125 36.9531
Q45.0156 41.5 45.0156 49.4219
Q45.0156 57.2812 41.125 61.8438
Q37.25 66.4062 30.6094 66.4062
Q23.9688 66.4062 20.0938 61.8438
Q16.2188 57.2812 16.2188 49.4219
Q16.2188 41.5 20.0938 36.9531
Q23.9688 32.4219 30.6094 32.4219" id="DejaVuSans-39"/>
     </defs>
     <g transform="translate(528.375625 358.439)scale(0.144 -0.144)">
      <use xlink:href="#DejaVuSans-6c"/>
      <use x="27.783203125" xlink:href="#DejaVuSans-6f"/>
      <use x="88.96484375" xlink:href="#DejaVuSans-63"/>
      <use x="143.9453125" xlink:href="#DejaVuSans-61"/>
      <use x="205.224609375" xlink:href="#DejaVuSans-6c"/>
      <use x="233.0078125" xlink:href="#DejaVuSans-69"/>
      <use x="260.791015625" xlink:href="#DejaVuSans-74"/>
      <use x="300.0" xlink:href="#DejaVuSans-79"/>
      <use x="359.1796875" xlink:href="#DejaVuSans-23"/>
      <use x="442.96875" xlink:href="#DejaVuSans-39"/>
     </g>
    </g>
   </g>
  </g>
 </g>
 <defs>
  <clipPath id="p2118423672">
   <rect height="345.6" width="446.4" x="28.695625" y="23.14175"/>
  </clipPath>
 </defs>
</svg>
