<?xml version="1.0" encoding="utf-8" standalone="no"?>
<!DOCTYPE svg PUBLIC "-//W3C//DTD SVG 1.1//EN"
  "http://www.w3.org/Graphics/SVG/1.1/DTD/svg11.dtd">
<!-- Created with matplotlib (http://matplotlib.org/) -->
<svg height="408pt" version="1.1" viewBox="0 0 621 408" width="621pt" xmlns="http://www.w3.org/2000/svg" xmlns:xlink="http://www.w3.org/1999/xlink">
 <defs>
  <style type="text/css">
*{stroke-linecap:butt;stroke-linejoin:round;}
  </style>
 </defs>
 <g id="figure_1">
  <g id="patch_1">
   <path d="
M0 408.169
L621.409 408.169
L621.409 0
L0 0
z
" style="fill:#ffffff;"/>
  </g>
  <g id="axes_1">
   <g id="patch_2">
    <path d="
M28.8194 368.742
L475.219 368.742
L475.219 23.1417
L28.8194 23.1417
z
" style="fill:#ffffff;"/>
   </g>
   <g id="line2d_1">
    <path clip-path="url(#p8c776b0f9c)" d="
M28.8194 368.742
L97.7027 337.346
L100.387 336.07
L115.595 329.048
L122.751 325.74
L146.905 314.656
L150.484 312.915
L170.164 303.862
L172.848 302.585
L192.529 293.532
L195.213 292.256
L231.891 275.484
L239.048 272.118
L248.888 267.534
L251.572 266.257
L265.886 259.642
L270.358 257.494
L277.515 254.129
L281.988 251.996
L358.923 215.711
L362.501 213.971
L374.131 208.573
L376.815 207.297
L381.288 205.15
L384.866 203.408
L392.023 200.043
L397.39 197.373
L407.231 192.789
L409.914 191.512
L415.282 188.959
L418.86 187.218
L424.228 184.664
L431.385 181.066
L435.857 178.919
L441.225 176.249
L443.909 174.915
L448.382 172.71
L451.96 170.969
L456.433 168.763
L460.011 167.023
L472.536 160.639
L475.219 159.304
L475.219 159.304" style="fill:none;stroke:#0000ff;stroke-linecap:square;"/>
   </g>
   <g id="line2d_2">
    <path clip-path="url(#p8c776b0f9c)" d="
M28.8194 368.742
L97.7027 339.45
L100.387 338.259
L115.595 331.707
L118.278 330.516
L146.905 318.28
L150.484 316.655
L170.164 308.209
L172.848 307.018
L192.529 298.571
L195.213 297.38
L231.891 281.732
L234.575 280.541
L246.205 275.506
L249.783 273.881
L265.886 266.951
L269.464 265.327
L277.515 261.807
L280.199 260.616
L288.25 257.097
L292.723 255.039
L304.353 250.004
L307.037 248.813
L315.088 245.293
L317.772 244.102
L322.245 242.099
L325.823 240.475
L335.663 236.197
L338.347 235.006
L349.977 229.971
L353.555 228.346
L358.923 225.964
L362.501 224.34
L374.131 219.304
L376.815 218.113
L381.288 216.11
L384.866 214.485
L392.023 211.345
L397.39 208.855
L407.231 204.577
L409.914 203.386
L415.282 201.004
L418.86 199.379
L424.228 196.997
L431.385 193.64
L435.857 191.637
L441.225 189.146
L443.909 187.901
L448.382 185.843
L451.96 184.219
L456.433 182.162
L460.011 180.537
L472.536 174.581
L475.219 173.336
L475.219 173.336" style="fill:none;stroke:#008000;stroke-linecap:square;"/>
   </g>
   <g id="line2d_3">
    <path clip-path="url(#p8c776b0f9c)" d="
M28.8194 368.742
L89.6514 329.37
L91.4406 328.132
L103.965 319.94
L106.649 318.145
L115.595 312.284
L118.278 310.468
L137.065 298.252
L138.854 297.014
L148.694 290.576
L150.484 289.338
L164.797 280.01
L166.586 278.772
L173.743 274.068
L175.532 272.829
L192.529 261.769
L194.318 260.531
L212.21 248.893
L213.999 247.654
L236.364 233.127
L238.153 231.889
L246.205 226.607
L247.994 225.368
L258.729 218.352
L261.413 216.537
L265.886 213.565
L267.675 212.327
L272.148 209.355
L273.937 208.118
L277.515 205.724
L279.304 204.486
L285.566 200.359
L287.356 199.12
L290.039 197.305
L292.723 195.406
L303.458 188.39
L306.142 186.492
L314.193 181.209
L316.877 179.311
L320.455 176.917
L323.139 175.021
L329.401 170.892
L332.98 168.415
L342.82 161.977
L345.504 160.079
L352.661 155.374
L354.45 154.136
L358.028 151.742
L361.607 149.184
L368.763 144.478
L370.552 143.24
L377.709 138.536
L379.498 137.297
L381.288 136.059
L383.971 134.161
L389.339 130.612
L391.128 129.373
L393.812 127.558
L397.39 124.999
L401.863 122.027
L403.652 120.789
L412.598 114.929
L416.176 112.37
L420.649 109.399
L423.333 107.5
L426.017 105.684
L431.385 101.805
L434.068 99.9888
L437.647 97.4302
L440.33 95.6144
L445.698 91.7347
L449.276 89.3417
L452.855 86.7825
L454.644 85.5441
L456.433 84.306
L458.222 83.0679
L462.695 79.8547
L464.484 78.6105
L472.536 72.7497
L474.325 71.5113
L475.219 70.8518
L475.219 70.8518" style="fill:none;stroke:#ff0000;stroke-linecap:square;"/>
   </g>
   <g id="line2d_4">
    <path clip-path="url(#p8c776b0f9c)" d="
M28.8194 368.742
L89.6514 329.603
L91.4406 328.373
L103.965 320.23
L106.649 318.445
L115.595 312.619
L118.278 310.814
L137.065 298.67
L138.854 297.439
L148.694 291.039
L150.484 289.808
L164.797 280.537
L166.586 279.306
L173.743 274.629
L175.532 273.398
L192.529 262.404
L194.318 261.173
L212.21 249.603
L213.999 248.373
L236.364 233.932
L238.153 232.701
L246.205 227.45
L247.994 226.219
L258.729 219.244
L261.413 217.439
L265.886 214.485
L267.675 213.255
L272.148 210.301
L273.937 209.07
L277.515 206.69
L279.304 205.46
L285.566 201.357
L287.356 200.126
L290.039 198.321
L292.723 196.434
L303.458 189.46
L306.142 187.573
L314.193 182.321
L316.877 180.434
L320.455 178.055
L323.139 176.17
L329.401 172.065
L332.98 169.604
L342.82 163.204
L345.504 161.316
L352.661 156.64
L354.45 155.409
L358.028 153.029
L361.607 150.486
L368.763 145.809
L370.552 144.578
L377.709 139.901
L379.498 138.67
L381.288 137.439
L383.971 135.552
L389.339 132.024
L391.128 130.793
L393.812 128.988
L397.39 126.444
L401.863 123.491
L403.652 122.26
L412.598 116.434
L416.176 113.891
L420.649 110.937
L423.333 109.05
L426.017 107.245
L431.385 103.388
L434.068 101.583
L437.647 99.0395
L440.33 97.2344
L445.698 93.378
L449.276 90.9986
L452.855 88.455
L454.644 87.2241
L456.433 85.9934
L458.222 84.7625
L462.695 81.5669
L464.484 80.3328
L472.536 74.5065
L474.325 73.2768
L475.219 72.6201
L475.219 72.6201" style="fill:none;stroke:#00bfbf;stroke-linecap:square;"/>
   </g>
   <g id="line2d_5">
    <path clip-path="url(#p8c776b0f9c)" d="
M28.8194 368.742
L89.6514 330.853
L92.3352 329.106
L103.965 321.78
L106.649 320.052
L115.595 314.411
L118.278 312.664
L137.065 300.908
L138.854 299.717
L148.694 293.521
L150.484 292.33
L164.797 283.354
L166.586 282.163
L173.743 277.635
L175.532 276.444
L192.529 265.8
L194.318 264.608
L212.21 253.409
L213.999 252.217
L236.364 238.238
L238.153 237.046
L246.205 231.962
L247.994 230.771
L258.729 224.019
L261.413 222.272
L265.886 219.413
L267.675 218.221
L272.148 215.362
L273.937 214.17
L277.515 211.867
L279.304 210.675
L285.566 206.704
L287.356 205.512
L290.039 203.765
L292.723 201.938
L303.458 195.186
L306.142 193.36
L314.193 188.276
L316.877 186.449
L320.455 184.146
L323.139 182.322
L330.296 177.723
L344.609 168.577
L346.399 167.386
L352.661 163.414
L354.45 162.223
L358.028 159.919
L361.607 157.458
L368.763 152.929
L370.552 151.738
L377.709 147.21
L379.498 146.019
L381.288 144.828
L383.971 143
L389.339 139.585
L391.128 138.394
L393.812 136.646
L397.39 134.184
L401.863 131.324
L403.652 130.133
L412.598 124.493
L416.176 122.031
L420.649 119.171
L423.333 117.345
L426.017 115.597
L431.385 111.864
L434.068 110.116
L437.647 107.654
L440.33 105.907
L445.698 102.173
L449.276 99.8704
L452.855 97.4077
L454.644 96.216
L456.433 95.0245
L458.222 93.8331
L462.695 90.7405
L464.484 89.5439
L472.536 83.9051
L474.325 82.7128
L475.219 82.0775
L475.219 82.0775" style="fill:none;stroke:#bf00bf;stroke-linecap:square;"/>
   </g>
   <g id="line2d_6">
    <path clip-path="url(#p8c776b0f9c)" d="
M28.8194 368.742
L89.6514 332.955
L92.3352 331.305
L103.965 324.386
L106.649 322.753
L116.489 316.842
L123.646 312.624
L137.065 304.671
L138.854 303.546
L148.694 297.694
L150.484 296.569
L164.797 288.091
L166.586 286.966
L173.743 282.689
L175.532 281.564
L192.529 271.511
L194.318 270.385
L212.21 259.807
L213.999 258.681
L236.364 245.477
L238.153 244.352
L246.205 239.55
L247.994 238.425
L259.623 231.472
L284.672 216.218
L288.25 214.042
L290.934 212.317
L298.091 208.04
L299.88 206.915
L304.353 204.214
L306.142 203.089
L314.193 198.287
L316.877 196.562
L320.455 194.386
L323.139 192.663
L330.296 188.32
L349.977 176.455
L351.766 175.33
L356.239 172.629
L359.817 170.303
L364.29 167.603
L366.079 166.477
L374.131 161.676
L376.815 160.025
L380.393 157.849
L383.971 155.524
L389.339 152.298
L391.128 151.172
L393.812 149.522
L397.39 147.196
L401.863 144.495
L403.652 143.37
L412.598 138.043
L416.176 135.717
L420.649 133.016
L423.333 131.291
L426.017 129.64
L431.385 126.114
L434.068 124.464
L437.647 122.138
L440.33 120.487
L445.698 116.961
L449.276 114.786
L452.855 112.46
L454.644 111.334
L456.433 110.209
L458.222 109.084
L462.695 106.162
L464.484 105.033
L472.536 99.7063
L474.325 98.5805
L475.219 97.9803
L475.219 97.9803" style="fill:none;stroke:#bfbf00;stroke-linecap:square;"/>
   </g>
   <g id="line2d_7">
    <path clip-path="url(#p8c776b0f9c)" d="
M28.8194 368.742
L89.6514 335.634
L92.3352 334.107
L103.965 327.706
L106.649 326.195
L116.489 320.726
L124.54 316.339
L137.065 309.467
L138.854 308.426
L148.694 303.012
L150.484 301.971
L164.797 294.128
L166.586 293.087
L173.743 289.131
L175.532 288.09
L192.529 278.789
L194.318 277.748
L212.21 267.961
L213.999 266.92
L236.364 254.705
L238.153 253.663
L246.205 249.221
L247.994 248.18
L259.623 241.746
L297.196 220.556
L303.458 217.085
L306.142 215.489
L314.193 211.047
L316.877 209.45
L320.455 207.438
L323.139 205.843
L332.085 200.844
L333.874 199.803
L342.82 194.875
L345.504 193.278
L352.661 189.322
L354.45 188.281
L358.028 186.268
L361.607 184.117
L368.763 180.16
L370.552 179.119
L377.709 175.163
L379.498 174.122
L381.288 173.081
L383.971 171.484
L389.339 168.5
L391.128 167.459
L393.812 165.932
L397.39 163.78
L401.863 161.281
L403.652 160.24
L412.598 155.312
L416.176 153.161
L420.649 150.662
L423.333 149.065
L426.017 147.538
L431.385 144.276
L434.068 142.749
L437.647 140.598
L440.33 139.071
L445.698 135.809
L449.276 133.796
L452.855 131.644
L454.644 130.603
L456.433 129.562
L458.222 128.521
L462.695 125.818
L464.484 124.773
L472.536 119.845
L474.325 118.804
L475.219 118.248
L475.219 118.248" style="fill:none;stroke:#000000;stroke-linecap:square;"/>
   </g>
   <g id="line2d_8">
    <path clip-path="url(#p8c776b0f9c)" d="
M28.8194 368.742
L90.546 338.004
L148.694 308.712
L151.378 307.318
L164.797 300.599
L167.481 299.204
L173.743 296.035
L177.321 294.133
L196.108 284.752
L198.791 283.357
L232.786 266.379
L275.726 244.5
L279.304 242.598
L285.566 239.429
L289.145 237.527
L291.829 236.132
L294.512 234.738
L304.353 229.73
L307.037 228.335
L314.193 224.722
L317.772 222.821
L320.455 221.426
L324.034 219.525
L330.296 216.303
L358.028 202.093
L362.501 199.684
L368.763 196.514
L371.447 195.12
L377.709 191.95
L382.182 189.542
L385.76 187.703
L388.444 186.309
L392.023 184.47
L397.39 181.555
L401.863 179.273
L404.547 177.878
L412.598 173.821
L417.071 171.413
L420.649 169.574
L425.122 167.165
L426.912 166.214
L433.174 162.792
L435.857 161.397
L441.225 158.481
L443.014 157.53
L448.382 154.614
L451.065 153.22
L456.433 150.304
L458.222 149.353
L468.957 143.394
L475.219 139.972
L475.219 139.972" style="fill:none;stroke:#0000ff;stroke-linecap:square;"/>
   </g>
   <g id="line2d_9">
    <path clip-path="url(#p8c776b0f9c)" d="
M28.8194 368.742
L97.7027 340.463
L100.387 339.313
L115.595 332.988
L118.278 331.838
L146.905 320.024
L150.484 318.456
L170.164 310.302
L172.848 309.152
L192.529 300.997
L195.213 299.847
L231.891 284.741
L234.575 283.591
L246.205 278.729
L249.783 277.161
L265.886 270.47
L269.464 268.902
L277.515 265.505
L280.199 264.354
L288.25 260.957
L292.723 258.971
L304.353 254.109
L307.037 252.959
L315.088 249.562
L317.772 248.412
L322.245 246.478
L325.823 244.909
L335.663 240.78
L338.347 239.63
L349.977 234.769
L353.555 233.2
L358.923 230.9
L362.501 229.332
L374.131 224.471
L376.815 223.321
L381.288 221.387
L384.866 219.819
L392.023 216.787
L397.39 214.382
L407.231 210.253
L409.914 209.103
L415.282 206.803
L418.86 205.235
L424.228 202.935
L431.385 199.694
L435.857 197.76
L441.225 195.355
L443.909 194.153
L448.382 192.167
L451.96 190.599
L456.433 188.612
L460.011 187.044
L472.536 181.294
L475.219 180.092
L475.219 180.092" style="fill:none;stroke:#008000;stroke-linecap:square;"/>
   </g>
   <g id="line2d_10">
    <path clip-path="url(#p8c776b0f9c)" d="
M28.8194 368.742
L97.7027 340.198
L100.387 339.037
L115.595 332.653
L118.278 331.492
L146.905 319.568
L150.484 317.985
L170.164 309.754
L172.848 308.594
L192.529 300.363
L195.213 299.202
L231.891 283.954
L234.575 282.793
L246.205 277.886
L249.783 276.304
L265.886 269.55
L269.464 267.967
L277.515 264.538
L280.199 263.377
L288.25 259.947
L292.723 257.942
L304.353 253.035
L307.037 251.875
L315.088 248.445
L317.772 247.285
L322.245 245.332
L325.823 243.749
L335.663 239.581
L338.347 238.421
L349.977 233.514
L353.555 231.931
L358.923 229.61
L362.501 228.027
L374.131 223.12
L376.815 221.959
L381.288 220.007
L384.866 218.424
L392.023 215.364
L397.39 212.937
L407.231 208.769
L409.914 207.608
L415.282 205.286
L418.86 203.703
L424.228 201.382
L431.385 198.111
L435.857 196.159
L441.225 193.732
L443.909 192.518
L448.382 190.513
L451.96 188.93
L456.433 186.925
L460.011 185.342
L472.536 179.539
L475.219 178.325
L475.219 178.325" style="fill:none;stroke:#ff0000;stroke-linecap:square;"/>
   </g>
   <g id="line2d_11">
    <path clip-path="url(#p8c776b0f9c)" d="
M28.8194 368.742
L97.7027 338.78
L100.387 337.561
L115.595 330.86
L118.278 329.642
L146.905 317.125
L150.484 315.464
L170.164 306.824
L172.848 305.606
L192.529 296.966
L195.213 295.748
L231.891 279.742
L234.575 278.524
L246.205 273.373
L249.783 271.712
L265.886 264.623
L269.464 262.961
L277.515 259.362
L280.199 258.143
L288.25 254.543
L292.723 252.439
L304.353 247.288
L307.037 246.07
L315.088 242.47
L317.772 241.251
L322.245 239.202
L325.823 237.541
L335.663 233.166
L338.347 231.947
L349.977 226.797
L353.555 225.135
L358.923 222.698
L362.501 221.037
L374.131 215.886
L376.815 214.668
L381.288 212.619
L384.866 210.957
L392.023 207.745
L397.39 205.197
L407.231 200.822
L409.914 199.604
L415.282 197.167
L418.86 195.506
L424.228 193.069
L431.385 189.635
L435.857 187.586
L441.225 185.038
L443.909 183.765
L448.382 181.66
L451.96 179.999
L456.433 177.894
L460.011 176.232
L472.536 170.14
L475.219 168.867
L475.219 168.867" style="fill:none;stroke:#00bfbf;stroke-linecap:square;"/>
   </g>
   <g id="line2d_12">
    <path clip-path="url(#p8c776b0f9c)" d="
M28.8194 368.742
L97.7027 336.396
L100.387 335.081
L115.595 327.846
L118.278 326.531
L146.905 313.019
L150.484 311.225
L170.164 301.898
L172.848 300.583
L192.529 291.255
L195.213 289.94
L231.891 272.661
L234.575 271.346
L246.205 265.785
L249.783 263.992
L265.886 256.339
L269.464 254.545
L277.515 250.659
L280.199 249.344
L288.25 245.457
L292.723 243.185
L304.353 237.625
L307.037 236.31
L315.088 232.423
L317.772 231.108
L322.245 228.896
L325.823 227.102
L335.663 222.379
L338.347 221.063
L349.977 215.503
L353.555 213.709
L358.923 211.079
L362.501 209.285
L374.131 203.725
L376.815 202.409
L381.288 200.197
L384.866 198.404
L392.023 194.936
L397.39 192.185
L407.231 187.462
L409.914 186.147
L415.282 183.516
L418.86 181.722
L424.228 179.092
L431.385 175.385
L435.857 173.172
L441.225 170.422
L443.909 169.047
L448.382 166.775
L451.96 164.981
L456.433 162.709
L460.011 160.916
L472.536 154.339
L475.219 152.964
L475.219 152.964" style="fill:none;stroke:#bf00bf;stroke-linecap:square;"/>
   </g>
   <g id="line2d_13">
    <path clip-path="url(#p8c776b0f9c)" d="
M28.8194 368.742
L89.6514 337.544
L92.3352 336.105
L103.965 330.068
L106.649 328.649
L116.489 323.489
L224.734 267.299
L236.364 261.282
L238.153 260.301
L246.205 256.115
L247.994 255.134
L259.623 249.065
L290.039 232.896
L292.723 231.392
L303.458 225.832
L306.142 224.328
L314.193 220.142
L316.877 218.638
L320.455 216.741
L323.139 215.238
L332.085 210.528
L333.874 209.547
L342.82 204.903
L345.504 203.398
L352.661 199.67
L354.45 198.689
L358.028 196.793
L361.607 194.765
L368.763 191.037
L370.552 190.056
L377.709 186.328
L379.498 185.347
L381.288 184.366
L383.971 182.861
L389.339 180.049
L391.128 179.068
L393.812 177.629
L397.39 175.601
L401.863 173.247
L403.652 172.266
L412.598 167.622
L416.176 165.594
L420.649 163.24
L423.333 161.735
L426.017 160.297
L431.385 157.223
L434.068 155.784
L437.647 153.756
L440.33 152.317
L445.698 149.243
L449.276 147.346
L452.855 145.319
L454.644 144.338
L456.433 143.357
L458.222 142.376
L462.695 139.827
L464.484 138.844
L472.536 134.201
L474.325 133.219
L475.219 132.696
L475.219 132.696" style="fill:none;stroke:#bfbf00;stroke-linecap:square;"/>
   </g>
   <g id="line2d_14">
    <path clip-path="url(#p8c776b0f9c)" d="
M28.8194 368.742
L89.6514 334.673
L91.4406 333.601
L103.965 326.511
L106.649 324.959
L115.595 319.888
L118.278 318.316
L137.065 307.746
L138.854 306.674
L148.694 301.103
L150.484 300.032
L164.797 291.961
L166.586 290.89
L173.743 286.818
L175.532 285.747
L192.529 276.176
L194.318 275.105
L212.21 265.034
L213.999 263.963
L236.364 251.392
L238.153 250.321
L246.205 245.75
L247.994 244.678
L259.623 238.053
L290.039 220.394
L292.723 218.751
L303.458 212.68
L306.142 211.038
L314.193 206.466
L316.877 204.824
L320.455 202.752
L323.139 201.111
L330.296 196.972
L342.82 189.825
L345.504 188.182
L352.661 184.111
L354.45 183.039
L358.028 180.968
L361.607 178.754
L368.763 174.683
L370.552 173.611
L377.709 169.54
L379.498 168.469
L381.288 167.397
L383.971 165.755
L389.339 162.684
L391.128 161.612
L393.812 160.041
L397.39 157.827
L401.863 155.255
L403.652 154.184
L412.598 149.113
L416.176 146.899
L420.649 144.328
L423.333 142.685
L426.017 141.113
L431.385 137.757
L434.068 136.185
L437.647 133.971
L440.33 132.4
L445.698 129.043
L449.276 126.972
L452.855 124.757
L454.644 123.686
L456.433 122.615
L458.222 121.543
L462.695 118.76
L464.484 117.686
L472.536 112.616
L474.325 111.544
L475.219 110.973
L475.219 110.973" style="fill:none;stroke:#000000;stroke-linecap:square;"/>
   </g>
   <g id="line2d_15">
    <path clip-path="url(#p8c776b0f9c)" d="
M28.8194 368.742
L89.6514 332.104
L91.4406 330.952
L103.965 323.328
L106.649 321.658
L115.595 316.204
L118.278 314.514
L137.065 303.146
L138.854 301.994
L148.694 296.003
L150.484 294.851
L164.797 286.172
L166.586 285.019
L173.743 280.641
L175.532 279.489
L192.529 269.197
L194.318 268.045
L212.21 257.214
L213.999 256.062
L236.364 242.544
L238.153 241.391
L246.205 236.476
L247.994 235.323
L258.729 228.795
L261.413 227.105
L265.886 224.34
L267.675 223.188
L272.148 220.422
L273.937 219.27
L277.515 217.043
L279.304 215.891
L285.566 212.05
L287.356 210.898
L290.039 209.208
L292.723 207.442
L303.458 200.913
L306.142 199.146
L314.193 194.23
L316.877 192.464
L320.455 190.236
L323.139 188.472
L329.401 184.629
L332.98 182.325
L342.82 176.334
L345.504 174.567
L352.661 170.189
L354.45 169.037
L358.028 166.809
L361.607 164.429
L368.763 160.05
L370.552 158.898
L377.709 154.52
L379.498 153.368
L381.288 152.216
L383.971 150.449
L389.339 147.146
L391.128 145.994
L393.812 144.304
L397.39 141.923
L401.863 139.158
L403.652 138.006
L412.598 132.552
L416.176 130.171
L420.649 127.406
L423.333 125.639
L426.017 123.95
L431.385 120.339
L434.068 118.65
L437.647 116.269
L440.33 114.579
L445.698 110.969
L449.276 108.742
L452.855 106.36
L454.644 105.208
L456.433 104.056
L458.222 102.904
L462.695 99.9119
L464.484 98.7561
L472.536 93.3032
L474.325 92.1503
L475.219 91.536
L475.219 91.536" style="fill:none;stroke:#0000ff;stroke-linecap:square;"/>
   </g>
   <g id="line2d_16">
    <path clip-path="url(#p8c776b0f9c)" d="
M28.8194 368.742
L89.6514 330.263
L91.4406 329.053
L103.965 321.046
L106.649 319.292
L115.595 313.564
L118.278 311.79
L137.065 299.851
L138.854 298.641
L148.694 292.348
L150.484 291.138
L164.797 282.023
L166.586 280.813
L173.743 276.215
L175.532 275.005
L192.529 264.195
L194.318 262.985
L212.21 251.611
L213.999 250.401
L236.364 236.203
L238.153 234.993
L246.205 229.83
L247.994 228.62
L258.729 221.763
L261.413 219.989
L265.886 217.084
L267.675 215.875
L272.148 212.97
L273.937 211.76
L277.515 209.421
L279.304 208.211
L285.566 204.177
L287.356 202.968
L290.039 201.193
L292.723 199.337
L303.458 192.481
L306.142 190.625
L314.193 185.462
L316.877 183.607
L320.455 181.268
L323.139 179.414
L329.401 175.379
L332.98 172.959
L342.82 166.667
L345.504 164.811
L352.661 160.213
L354.45 159.003
L358.028 156.663
L361.607 154.164
L368.763 149.565
L370.552 148.355
L377.709 143.756
L379.498 142.547
L381.288 141.336
L383.971 139.481
L389.339 136.012
L391.128 134.802
L393.812 133.028
L397.39 130.527
L401.863 127.623
L403.652 126.413
L412.598 120.685
L416.176 118.184
L420.649 115.28
L423.333 113.425
L426.017 111.65
L431.385 107.859
L434.068 106.084
L437.647 103.583
L440.33 101.809
L445.698 98.0171
L449.276 95.6783
L452.855 93.1773
L454.644 91.9671
L456.433 90.7569
L458.222 89.5471
L462.695 86.4047
L464.484 85.1911
L472.536 79.463
L474.325 78.2534
L475.219 77.6083
L475.219 77.6083" style="fill:none;stroke:#008000;stroke-linecap:square;"/>
   </g>
   <g id="patch_3">
    <path d="
M28.8194 23.1417
L475.219 23.1417" style="fill:none;stroke:#000000;stroke-linecap:square;stroke-linejoin:miter;"/>
   </g>
   <g id="patch_4">
    <path d="
M475.219 368.742
L475.219 23.1417" style="fill:none;stroke:#000000;stroke-linecap:square;stroke-linejoin:miter;"/>
   </g>
   <g id="patch_5">
    <path d="
M28.8194 368.742
L475.219 368.742" style="fill:none;stroke:#000000;stroke-linecap:square;stroke-linejoin:miter;"/>
   </g>
   <g id="patch_6">
    <path d="
M28.8194 368.742
L28.8194 23.1417" style="fill:none;stroke:#000000;stroke-linecap:square;stroke-linejoin:miter;"/>
   </g>
   <g id="matplotlib.axis_1">
    <g id="xtick_1">
     <g id="line2d_17">
      <defs>
       <path d="
M0 0
L0 -4" id="m93b0483c22" style="stroke:#000000;stroke-width:0.5;"/>
      </defs>
      <g>
       <use style="stroke:#000000;stroke-width:0.5;" x="28.819375" xlink:href="#m93b0483c22" y="368.74175"/>
      </g>
     </g>
     <g id="line2d_18">
      <defs>
       <path d="
M0 0
L0 4" id="m741efc42ff" style="stroke:#000000;stroke-width:0.5;"/>
      </defs>
      <g>
       <use style="stroke:#000000;stroke-width:0.5;" x="28.819375" xlink:href="#m741efc42ff" y="23.14175"/>
      </g>
     </g>
     <g id="text_1">
      <!-- 0 -->
      <defs>
       <path d="
M31.7812 66.4062
Q24.1719 66.4062 20.3281 58.9062
Q16.5 51.4219 16.5 36.375
Q16.5 21.3906 20.3281 13.8906
Q24.1719 6.39062 31.7812 6.39062
Q39.4531 6.39062 43.2812 13.8906
Q47.125 21.3906 47.125 36.375
Q47.125 51.4219 43.2812 58.9062
Q39.4531 66.4062 31.7812 66.4062
M31.7812 74.2188
Q44.0469 74.2188 50.5156 64.5156
Q56.9844 54.8281 56.9844 36.375
Q56.9844 17.9688 50.5156 8.26562
Q44.0469 -1.42188 31.7812 -1.42188
Q19.5312 -1.42188 13.0625 8.26562
Q6.59375 17.9688 6.59375 36.375
Q6.59375 54.8281 13.0625 64.5156
Q19.5312 74.2188 31.7812 74.2188" id="DejaVuSans-30"/>
      </defs>
      <g transform="translate(25.7959375 381.859875)scale(0.12 -0.12)">
       <use xlink:href="#DejaVuSans-30"/>
      </g>
     </g>
    </g>
    <g id="xtick_2">
     <g id="line2d_19">
      <g>
       <use style="stroke:#000000;stroke-width:0.5;" x="118.278292836" xlink:href="#m93b0483c22" y="368.74175"/>
      </g>
     </g>
     <g id="line2d_20">
      <g>
       <use style="stroke:#000000;stroke-width:0.5;" x="118.278292836" xlink:href="#m741efc42ff" y="23.14175"/>
      </g>
     </g>
     <g id="text_2">
      <!-- 100 -->
      <defs>
       <path d="
M12.4062 8.29688
L28.5156 8.29688
L28.5156 63.9219
L10.9844 60.4062
L10.9844 69.3906
L28.4219 72.9062
L38.2812 72.9062
L38.2812 8.29688
L54.3906 8.29688
L54.3906 0
L12.4062 0
z
" id="DejaVuSans-31"/>
      </defs>
      <g transform="translate(107.883292836 381.859875)scale(0.12 -0.12)">
       <use xlink:href="#DejaVuSans-31"/>
       <use x="63.623046875" xlink:href="#DejaVuSans-30"/>
       <use x="127.24609375" xlink:href="#DejaVuSans-30"/>
      </g>
     </g>
    </g>
    <g id="xtick_3">
     <g id="line2d_21">
      <g>
       <use style="stroke:#000000;stroke-width:0.5;" x="207.737210671" xlink:href="#m93b0483c22" y="368.74175"/>
      </g>
     </g>
     <g id="line2d_22">
      <g>
       <use style="stroke:#000000;stroke-width:0.5;" x="207.737210671" xlink:href="#m741efc42ff" y="23.14175"/>
      </g>
     </g>
     <g id="text_3">
      <!-- 200 -->
      <defs>
       <path d="
M19.1875 8.29688
L53.6094 8.29688
L53.6094 0
L7.32812 0
L7.32812 8.29688
Q12.9375 14.1094 22.625 23.8906
Q32.3281 33.6875 34.8125 36.5312
Q39.5469 41.8438 41.4219 45.5312
Q43.3125 49.2188 43.3125 52.7812
Q43.3125 58.5938 39.2344 62.25
Q35.1562 65.9219 28.6094 65.9219
Q23.9688 65.9219 18.8125 64.3125
Q13.6719 62.7031 7.8125 59.4219
L7.8125 69.3906
Q13.7656 71.7812 18.9375 73
Q24.125 74.2188 28.4219 74.2188
Q39.75 74.2188 46.4844 68.5469
Q53.2188 62.8906 53.2188 53.4219
Q53.2188 48.9219 51.5312 44.8906
Q49.8594 40.875 45.4062 35.4062
Q44.1875 33.9844 37.6406 27.2188
Q31.1094 20.4531 19.1875 8.29688" id="DejaVuSans-32"/>
      </defs>
      <g transform="translate(197.122835671 381.859875)scale(0.12 -0.12)">
       <use xlink:href="#DejaVuSans-32"/>
       <use x="63.623046875" xlink:href="#DejaVuSans-30"/>
       <use x="127.24609375" xlink:href="#DejaVuSans-30"/>
      </g>
     </g>
    </g>
    <g id="xtick_4">
     <g id="line2d_23">
      <g>
       <use style="stroke:#000000;stroke-width:0.5;" x="297.196128507" xlink:href="#m93b0483c22" y="368.74175"/>
      </g>
     </g>
     <g id="line2d_24">
      <g>
       <use style="stroke:#000000;stroke-width:0.5;" x="297.196128507" xlink:href="#m741efc42ff" y="23.14175"/>
      </g>
     </g>
     <g id="text_4">
      <!-- 300 -->
      <defs>
       <path d="
M40.5781 39.3125
Q47.6562 37.7969 51.625 33
Q55.6094 28.2188 55.6094 21.1875
Q55.6094 10.4062 48.1875 4.48438
Q40.7656 -1.42188 27.0938 -1.42188
Q22.5156 -1.42188 17.6562 -0.515625
Q12.7969 0.390625 7.625 2.20312
L7.625 11.7188
Q11.7188 9.32812 16.5938 8.10938
Q21.4844 6.89062 26.8125 6.89062
Q36.0781 6.89062 40.9375 10.5469
Q45.7969 14.2031 45.7969 21.1875
Q45.7969 27.6406 41.2812 31.2656
Q36.7656 34.9062 28.7188 34.9062
L20.2188 34.9062
L20.2188 43.0156
L29.1094 43.0156
Q36.375 43.0156 40.2344 45.9219
Q44.0938 48.8281 44.0938 54.2969
Q44.0938 59.9062 40.1094 62.9062
Q36.1406 65.9219 28.7188 65.9219
Q24.6562 65.9219 20.0156 65.0312
Q15.375 64.1562 9.8125 62.3125
L9.8125 71.0938
Q15.4375 72.6562 20.3438 73.4375
Q25.25 74.2188 29.5938 74.2188
Q40.8281 74.2188 47.3594 69.1094
Q53.9062 64.0156 53.9062 55.3281
Q53.9062 49.2656 50.4375 45.0938
Q46.9688 40.9219 40.5781 39.3125" id="DejaVuSans-33"/>
      </defs>
      <g transform="translate(286.599566007 381.859875)scale(0.12 -0.12)">
       <use xlink:href="#DejaVuSans-33"/>
       <use x="63.623046875" xlink:href="#DejaVuSans-30"/>
       <use x="127.24609375" xlink:href="#DejaVuSans-30"/>
      </g>
     </g>
    </g>
    <g id="xtick_5">
     <g id="line2d_25">
      <g>
       <use style="stroke:#000000;stroke-width:0.5;" x="386.655046343" xlink:href="#m93b0483c22" y="368.74175"/>
      </g>
     </g>
     <g id="line2d_26">
      <g>
       <use style="stroke:#000000;stroke-width:0.5;" x="386.655046343" xlink:href="#m741efc42ff" y="23.14175"/>
      </g>
     </g>
     <g id="text_5">
      <!-- 400 -->
      <defs>
       <path d="
M37.7969 64.3125
L12.8906 25.3906
L37.7969 25.3906
z

M35.2031 72.9062
L47.6094 72.9062
L47.6094 25.3906
L58.0156 25.3906
L58.0156 17.1875
L47.6094 17.1875
L47.6094 0
L37.7969 0
L37.7969 17.1875
L4.89062 17.1875
L4.89062 26.7031
z
" id="DejaVuSans-34"/>
      </defs>
      <g transform="translate(375.894421343 381.859875)scale(0.12 -0.12)">
       <use xlink:href="#DejaVuSans-34"/>
       <use x="63.623046875" xlink:href="#DejaVuSans-30"/>
       <use x="127.24609375" xlink:href="#DejaVuSans-30"/>
      </g>
     </g>
    </g>
    <g id="text_6">
     <!-- time -->
     <defs>
      <path d="
M18.3125 70.2188
L18.3125 54.6875
L36.8125 54.6875
L36.8125 47.7031
L18.3125 47.7031
L18.3125 18.0156
Q18.3125 11.3281 20.1406 9.42188
Q21.9688 7.51562 27.5938 7.51562
L36.8125 7.51562
L36.8125 0
L27.5938 0
Q17.1875 0 13.2344 3.875
Q9.28125 7.76562 9.28125 18.0156
L9.28125 47.7031
L2.6875 47.7031
L2.6875 54.6875
L9.28125 54.6875
L9.28125 70.2188
z
" id="DejaVuSans-74"/>
      <path d="
M52 44.1875
Q55.375 50.25 60.0625 53.125
Q64.75 56 71.0938 56
Q79.6406 56 84.2812 50.0156
Q88.9219 44.0469 88.9219 33.0156
L88.9219 0
L79.8906 0
L79.8906 32.7188
Q79.8906 40.5781 77.0938 44.375
Q74.3125 48.1875 68.6094 48.1875
Q61.625 48.1875 57.5625 43.5469
Q53.5156 38.9219 53.5156 30.9062
L53.5156 0
L44.4844 0
L44.4844 32.7188
Q44.4844 40.625 41.7031 44.4062
Q38.9219 48.1875 33.1094 48.1875
Q26.2188 48.1875 22.1562 43.5312
Q18.1094 38.875 18.1094 30.9062
L18.1094 0
L9.07812 0
L9.07812 54.6875
L18.1094 54.6875
L18.1094 46.1875
Q21.1875 51.2188 25.4844 53.6094
Q29.7812 56 35.6875 56
Q41.6562 56 45.8281 52.9688
Q50 49.9531 52 44.1875" id="DejaVuSans-6d"/>
      <path d="
M56.2031 29.5938
L56.2031 25.2031
L14.8906 25.2031
Q15.4844 15.9219 20.4844 11.0625
Q25.4844 6.20312 34.4219 6.20312
Q39.5938 6.20312 44.4531 7.46875
Q49.3125 8.73438 54.1094 11.2812
L54.1094 2.78125
Q49.2656 0.734375 44.1875 -0.34375
Q39.1094 -1.42188 33.8906 -1.42188
Q20.7969 -1.42188 13.1562 6.1875
Q5.51562 13.8125 5.51562 26.8125
Q5.51562 40.2344 12.7656 48.1094
Q20.0156 56 32.3281 56
Q43.3594 56 49.7812 48.8906
Q56.2031 41.7969 56.2031 29.5938
M47.2188 32.2344
Q47.125 39.5938 43.0938 43.9844
Q39.0625 48.3906 32.4219 48.3906
Q24.9062 48.3906 20.3906 44.1406
Q15.875 39.8906 15.1875 32.1719
z
" id="DejaVuSans-65"/>
      <path d="
M9.42188 54.6875
L18.4062 54.6875
L18.4062 0
L9.42188 0
z

M9.42188 75.9844
L18.4062 75.9844
L18.4062 64.5938
L9.42188 64.5938
z
" id="DejaVuSans-69"/>
     </defs>
     <g transform="translate(238.945 398.473625)scale(0.12 -0.12)">
      <use xlink:href="#DejaVuSans-74"/>
      <use x="39.208984375" xlink:href="#DejaVuSans-69"/>
      <use x="66.9921875" xlink:href="#DejaVuSans-6d"/>
      <use x="164.404296875" xlink:href="#DejaVuSans-65"/>
     </g>
    </g>
   </g>
   <g id="matplotlib.axis_2">
    <g id="ytick_1">
     <g id="line2d_27">
      <defs>
       <path d="
M0 0
L4 0" id="m728421d6d4" style="stroke:#000000;stroke-width:0.5;"/>
      </defs>
      <g>
       <use style="stroke:#000000;stroke-width:0.5;" x="28.819375" xlink:href="#m728421d6d4" y="368.74175"/>
      </g>
     </g>
     <g id="line2d_28">
      <defs>
       <path d="
M0 0
L-4 0" id="mcb0005524f" style="stroke:#000000;stroke-width:0.5;"/>
      </defs>
      <g>
       <use style="stroke:#000000;stroke-width:0.5;" x="475.219375" xlink:href="#mcb0005524f" y="368.74175"/>
      </g>
     </g>
     <g id="text_7">
      <!-- 0.0 -->
      <defs>
       <path d="
M10.6875 12.4062
L21 12.4062
L21 0
L10.6875 0
z
" id="DejaVuSans-2e"/>
      </defs>
      <g transform="translate(7.32375 372.053)scale(0.12 -0.12)">
       <use xlink:href="#DejaVuSans-30"/>
       <use x="63.623046875" xlink:href="#DejaVuSans-2e"/>
       <use x="95.41015625" xlink:href="#DejaVuSans-30"/>
      </g>
     </g>
    </g>
    <g id="ytick_2">
     <g id="line2d_29">
      <g>
       <use style="stroke:#000000;stroke-width:0.5;" x="28.819375" xlink:href="#m728421d6d4" y="311.14175"/>
      </g>
     </g>
     <g id="line2d_30">
      <g>
       <use style="stroke:#000000;stroke-width:0.5;" x="475.219375" xlink:href="#mcb0005524f" y="311.14175"/>
      </g>
     </g>
     <g id="text_8">
      <!-- 0.2 -->
      <g transform="translate(7.72875 314.453)scale(0.12 -0.12)">
       <use xlink:href="#DejaVuSans-30"/>
       <use x="63.623046875" xlink:href="#DejaVuSans-2e"/>
       <use x="95.41015625" xlink:href="#DejaVuSans-32"/>
      </g>
     </g>
    </g>
    <g id="ytick_3">
     <g id="line2d_31">
      <g>
       <use style="stroke:#000000;stroke-width:0.5;" x="28.819375" xlink:href="#m728421d6d4" y="253.54175"/>
      </g>
     </g>
     <g id="line2d_32">
      <g>
       <use style="stroke:#000000;stroke-width:0.5;" x="475.219375" xlink:href="#mcb0005524f" y="253.54175"/>
      </g>
     </g>
     <g id="text_9">
      <!-- 0.4 -->
      <g transform="translate(7.2 256.853)scale(0.12 -0.12)">
       <use xlink:href="#DejaVuSans-30"/>
       <use x="63.623046875" xlink:href="#DejaVuSans-2e"/>
       <use x="95.41015625" xlink:href="#DejaVuSans-34"/>
      </g>
     </g>
    </g>
    <g id="ytick_4">
     <g id="line2d_33">
      <g>
       <use style="stroke:#000000;stroke-width:0.5;" x="28.819375" xlink:href="#m728421d6d4" y="195.94175"/>
      </g>
     </g>
     <g id="line2d_34">
      <g>
       <use style="stroke:#000000;stroke-width:0.5;" x="475.219375" xlink:href="#mcb0005524f" y="195.94175"/>
      </g>
     </g>
     <g id="text_10">
      <!-- 0.6 -->
      <defs>
       <path d="
M33.0156 40.375
Q26.375 40.375 22.4844 35.8281
Q18.6094 31.2969 18.6094 23.3906
Q18.6094 15.5312 22.4844 10.9531
Q26.375 6.39062 33.0156 6.39062
Q39.6562 6.39062 43.5312 10.9531
Q47.4062 15.5312 47.4062 23.3906
Q47.4062 31.2969 43.5312 35.8281
Q39.6562 40.375 33.0156 40.375
M52.5938 71.2969
L52.5938 62.3125
Q48.875 64.0625 45.0938 64.9844
Q41.3125 65.9219 37.5938 65.9219
Q27.8281 65.9219 22.6719 59.3281
Q17.5312 52.7344 16.7969 39.4062
Q19.6719 43.6562 24.0156 45.9219
Q28.375 48.1875 33.5938 48.1875
Q44.5781 48.1875 50.9531 41.5156
Q57.3281 34.8594 57.3281 23.3906
Q57.3281 12.1562 50.6875 5.35938
Q44.0469 -1.42188 33.0156 -1.42188
Q20.3594 -1.42188 13.6719 8.26562
Q6.98438 17.9688 6.98438 36.375
Q6.98438 53.6562 15.1875 63.9375
Q23.3906 74.2188 37.2031 74.2188
Q40.9219 74.2188 44.7031 73.4844
Q48.4844 72.75 52.5938 71.2969" id="DejaVuSans-36"/>
      </defs>
      <g transform="translate(7.2825 199.253)scale(0.12 -0.12)">
       <use xlink:href="#DejaVuSans-30"/>
       <use x="63.623046875" xlink:href="#DejaVuSans-2e"/>
       <use x="95.41015625" xlink:href="#DejaVuSans-36"/>
      </g>
     </g>
    </g>
    <g id="ytick_5">
     <g id="line2d_35">
      <g>
       <use style="stroke:#000000;stroke-width:0.5;" x="28.819375" xlink:href="#m728421d6d4" y="138.34175"/>
      </g>
     </g>
     <g id="line2d_36">
      <g>
       <use style="stroke:#000000;stroke-width:0.5;" x="475.219375" xlink:href="#mcb0005524f" y="138.34175"/>
      </g>
     </g>
     <g id="text_11">
      <!-- 0.8 -->
      <defs>
       <path d="
M31.7812 34.625
Q24.75 34.625 20.7188 30.8594
Q16.7031 27.0938 16.7031 20.5156
Q16.7031 13.9219 20.7188 10.1562
Q24.75 6.39062 31.7812 6.39062
Q38.8125 6.39062 42.8594 10.1719
Q46.9219 13.9688 46.9219 20.5156
Q46.9219 27.0938 42.8906 30.8594
Q38.875 34.625 31.7812 34.625
M21.9219 38.8125
Q15.5781 40.375 12.0312 44.7188
Q8.5 49.0781 8.5 55.3281
Q8.5 64.0625 14.7188 69.1406
Q20.9531 74.2188 31.7812 74.2188
Q42.6719 74.2188 48.875 69.1406
Q55.0781 64.0625 55.0781 55.3281
Q55.0781 49.0781 51.5312 44.7188
Q48 40.375 41.7031 38.8125
Q48.8281 37.1562 52.7969 32.3125
Q56.7812 27.4844 56.7812 20.5156
Q56.7812 9.90625 50.3125 4.23438
Q43.8438 -1.42188 31.7812 -1.42188
Q19.7344 -1.42188 13.25 4.23438
Q6.78125 9.90625 6.78125 20.5156
Q6.78125 27.4844 10.7812 32.3125
Q14.7969 37.1562 21.9219 38.8125
M18.3125 54.3906
Q18.3125 48.7344 21.8438 45.5625
Q25.3906 42.3906 31.7812 42.3906
Q38.1406 42.3906 41.7188 45.5625
Q45.3125 48.7344 45.3125 54.3906
Q45.3125 60.0625 41.7188 63.2344
Q38.1406 66.4062 31.7812 66.4062
Q25.3906 66.4062 21.8438 63.2344
Q18.3125 60.0625 18.3125 54.3906" id="DejaVuSans-38"/>
      </defs>
      <g transform="translate(7.348125 141.653)scale(0.12 -0.12)">
       <use xlink:href="#DejaVuSans-30"/>
       <use x="63.623046875" xlink:href="#DejaVuSans-2e"/>
       <use x="95.41015625" xlink:href="#DejaVuSans-38"/>
      </g>
     </g>
    </g>
    <g id="ytick_6">
     <g id="line2d_37">
      <g>
       <use style="stroke:#000000;stroke-width:0.5;" x="28.819375" xlink:href="#m728421d6d4" y="80.74175"/>
      </g>
     </g>
     <g id="line2d_38">
      <g>
       <use style="stroke:#000000;stroke-width:0.5;" x="475.219375" xlink:href="#mcb0005524f" y="80.74175"/>
      </g>
     </g>
     <g id="text_12">
      <!-- 1.0 -->
      <g transform="translate(7.850625 84.053)scale(0.12 -0.12)">
       <use xlink:href="#DejaVuSans-31"/>
       <use x="63.623046875" xlink:href="#DejaVuSans-2e"/>
       <use x="95.41015625" xlink:href="#DejaVuSans-30"/>
      </g>
     </g>
    </g>
    <g id="ytick_7">
     <g id="line2d_39">
      <g>
       <use style="stroke:#000000;stroke-width:0.5;" x="28.819375" xlink:href="#m728421d6d4" y="23.14175"/>
      </g>
     </g>
     <g id="line2d_40">
      <g>
       <use style="stroke:#000000;stroke-width:0.5;" x="475.219375" xlink:href="#mcb0005524f" y="23.14175"/>
      </g>
     </g>
     <g id="text_13">
      <!-- 1.2 -->
      <g transform="translate(8.255625 26.453)scale(0.12 -0.12)">
       <use xlink:href="#DejaVuSans-31"/>
       <use x="63.623046875" xlink:href="#DejaVuSans-2e"/>
       <use x="95.41015625" xlink:href="#DejaVuSans-32"/>
      </g>
     </g>
    </g>
    <g id="text_14">
     <!-- 1e7 -->
     <defs>
      <path d="
M8.20312 72.9062
L55.0781 72.9062
L55.0781 68.7031
L28.6094 0
L18.3125 0
L43.2188 64.5938
L8.20312 64.5938
z
" id="DejaVuSans-37"/>
     </defs>
     <g transform="translate(28.819375 20.14175)scale(0.12 -0.12)">
      <use xlink:href="#DejaVuSans-31"/>
      <use x="63.623046875" xlink:href="#DejaVuSans-65"/>
      <use x="125.146484375" xlink:href="#DejaVuSans-37"/>
     </g>
    </g>
   </g>
   <g id="text_15">
    <!-- /runtime/count/action_invocation@null_tree_action -->
    <defs>
     <path d="
M2.98438 54.6875
L12.5 54.6875
L29.5938 8.79688
L46.6875 54.6875
L56.2031 54.6875
L35.6875 0
L23.4844 0
z
" id="DejaVuSans-76"/>
     <path d="
M25.3906 72.9062
L33.6875 72.9062
L8.29688 -9.28125
L0 -9.28125
z
" id="DejaVuSans-2f"/>
     <path d="
M30.6094 48.3906
Q23.3906 48.3906 19.1875 42.75
Q14.9844 37.1094 14.9844 27.2969
Q14.9844 17.4844 19.1562 11.8438
Q23.3438 6.20312 30.6094 6.20312
Q37.7969 6.20312 41.9844 11.8594
Q46.1875 17.5312 46.1875 27.2969
Q46.1875 37.0156 41.9844 42.7031
Q37.7969 48.3906 30.6094 48.3906
M30.6094 56
Q42.3281 56 49.0156 48.375
Q55.7188 40.7656 55.7188 27.2969
Q55.7188 13.875 49.0156 6.21875
Q42.3281 -1.42188 30.6094 -1.42188
Q18.8438 -1.42188 12.1719 6.21875
Q5.51562 13.875 5.51562 27.2969
Q5.51562 40.7656 12.1719 48.375
Q18.8438 56 30.6094 56" id="DejaVuSans-6f"/>
     <path d="
M54.8906 33.0156
L54.8906 0
L45.9062 0
L45.9062 32.7188
Q45.9062 40.4844 42.875 44.3281
Q39.8438 48.1875 33.7969 48.1875
Q26.5156 48.1875 22.3125 43.5469
Q18.1094 38.9219 18.1094 30.9062
L18.1094 0
L9.07812 0
L9.07812 54.6875
L18.1094 54.6875
L18.1094 46.1875
Q21.3438 51.125 25.7031 53.5625
Q30.0781 56 35.7969 56
Q45.2188 56 50.0469 50.1719
Q54.8906 44.3438 54.8906 33.0156" id="DejaVuSans-6e"/>
     <path d="
M50.9844 -16.6094
L50.9844 -23.5781
L-0.984375 -23.5781
L-0.984375 -16.6094
z
" id="DejaVuSans-5f"/>
     <path d="
M9.42188 75.9844
L18.4062 75.9844
L18.4062 0
L9.42188 0
z
" id="DejaVuSans-6c"/>
     <path d="
M37.2031 26.2188
Q37.2031 19.2344 40.6719 15.25
Q44.1406 11.2812 50.2031 11.2812
Q56.2031 11.2812 59.6406 15.2812
Q63.0938 19.2812 63.0938 26.2188
Q63.0938 33.0625 59.5781 37.0781
Q56.0625 41.1094 50.0938 41.1094
Q44.1875 41.1094 40.6875 37.1094
Q37.2031 33.1094 37.2031 26.2188
M63.8125 11.625
Q60.8906 7.85938 57.1094 6.07812
Q53.3281 4.29688 48.2969 4.29688
Q39.8906 4.29688 34.6406 10.375
Q29.3906 16.4531 29.3906 26.2188
Q29.3906 35.9844 34.6562 42.0781
Q39.9375 48.1875 48.2969 48.1875
Q53.3281 48.1875 57.125 46.3594
Q60.9375 44.5312 63.8125 40.8281
L63.8125 47.2188
L70.7969 47.2188
L70.7969 11.2812
Q77.9375 12.3594 81.9531 17.7969
Q85.9844 23.25 85.9844 31.8906
Q85.9844 37.1094 84.4375 41.7031
Q82.9062 46.2969 79.7812 50.2031
Q74.7031 56.5938 67.4062 59.9844
Q60.1094 63.375 51.5156 63.375
Q45.5156 63.375 39.9844 61.7812
Q34.4688 60.2031 29.7812 57.0781
Q22.125 52.0938 17.7969 44.0156
Q13.4844 35.9375 13.4844 26.5156
Q13.4844 18.75 16.2812 11.9531
Q19.0938 5.17188 24.4219 0
Q29.5469 -5.07812 36.2812 -7.73438
Q43.0156 -10.4062 50.6875 -10.4062
Q56.9844 -10.4062 63.0625 -8.28125
Q69.1406 -6.15625 74.2188 -2.20312
L78.6094 -7.625
Q72.5156 -12.3594 65.3125 -14.875
Q58.1094 -17.3906 50.6875 -17.3906
Q41.6562 -17.3906 33.6406 -14.1875
Q25.6406 -10.9844 19.3906 -4.89062
Q13.1406 1.21875 9.85938 9.25
Q6.59375 17.2812 6.59375 26.5156
Q6.59375 35.4062 9.90625 43.4531
Q13.2344 51.5156 19.3906 57.625
Q25.6875 63.8125 33.9375 67.1094
Q42.1875 70.4062 51.4219 70.4062
Q61.7656 70.4062 70.625 66.1562
Q79.5 61.9219 85.5 54.1094
Q89.1562 49.3125 91.0781 43.7031
Q93.0156 38.0938 93.0156 32.0781
Q93.0156 19.2344 85.25 11.8125
Q77.4844 4.39062 63.8125 4.10938
z
" id="DejaVuSans-40"/>
     <path d="
M8.5 21.5781
L8.5 54.6875
L17.4844 54.6875
L17.4844 21.9219
Q17.4844 14.1562 20.5 10.2656
Q23.5312 6.39062 29.5938 6.39062
Q36.8594 6.39062 41.0781 11.0312
Q45.3125 15.6719 45.3125 23.6875
L45.3125 54.6875
L54.2969 54.6875
L54.2969 0
L45.3125 0
L45.3125 8.40625
Q42.0469 3.42188 37.7188 1
Q33.4062 -1.42188 27.6875 -1.42188
Q18.2656 -1.42188 13.375 4.4375
Q8.5 10.2969 8.5 21.5781
M31.1094 56
z
" id="DejaVuSans-75"/>
     <path d="
M34.2812 27.4844
Q23.3906 27.4844 19.1875 25
Q14.9844 22.5156 14.9844 16.5
Q14.9844 11.7188 18.1406 8.90625
Q21.2969 6.10938 26.7031 6.10938
Q34.1875 6.10938 38.7031 11.4062
Q43.2188 16.7031 43.2188 25.4844
L43.2188 27.4844
z

M52.2031 31.2031
L52.2031 0
L43.2188 0
L43.2188 8.29688
Q40.1406 3.32812 35.5469 0.953125
Q30.9531 -1.42188 24.3125 -1.42188
Q15.9219 -1.42188 10.9531 3.29688
Q6 8.01562 6 15.9219
Q6 25.1406 12.1719 29.8281
Q18.3594 34.5156 30.6094 34.5156
L43.2188 34.5156
L43.2188 35.4062
Q43.2188 41.6094 39.1406 45
Q35.0625 48.3906 27.6875 48.3906
Q23 48.3906 18.5469 47.2656
Q14.1094 46.1406 10.0156 43.8906
L10.0156 52.2031
Q14.9375 54.1094 19.5781 55.0469
Q24.2188 56 28.6094 56
Q40.4844 56 46.3438 49.8438
Q52.2031 43.7031 52.2031 31.2031" id="DejaVuSans-61"/>
     <path d="
M48.7812 52.5938
L48.7812 44.1875
Q44.9688 46.2969 41.1406 47.3438
Q37.3125 48.3906 33.4062 48.3906
Q24.6562 48.3906 19.8125 42.8438
Q14.9844 37.3125 14.9844 27.2969
Q14.9844 17.2812 19.8125 11.7344
Q24.6562 6.20312 33.4062 6.20312
Q37.3125 6.20312 41.1406 7.25
Q44.9688 8.29688 48.7812 10.4062
L48.7812 2.09375
Q45.0156 0.34375 40.9844 -0.53125
Q36.9688 -1.42188 32.4219 -1.42188
Q20.0625 -1.42188 12.7812 6.34375
Q5.51562 14.1094 5.51562 27.2969
Q5.51562 40.6719 12.8594 48.3281
Q20.2188 56 33.0156 56
Q37.1562 56 41.1094 55.1406
Q45.0625 54.2969 48.7812 52.5938" id="DejaVuSans-63"/>
     <path d="
M41.1094 46.2969
Q39.5938 47.1719 37.8125 47.5781
Q36.0312 48 33.8906 48
Q26.2656 48 22.1875 43.0469
Q18.1094 38.0938 18.1094 28.8125
L18.1094 0
L9.07812 0
L9.07812 54.6875
L18.1094 54.6875
L18.1094 46.1875
Q20.9531 51.1719 25.4844 53.5781
Q30.0312 56 36.5312 56
Q37.4531 56 38.5781 55.875
Q39.7031 55.7656 41.0625 55.5156
z
" id="DejaVuSans-72"/>
    </defs>
    <g transform="translate(69.36325 18.14175)scale(0.144 -0.144)">
     <use xlink:href="#DejaVuSans-2f"/>
     <use x="33.69140625" xlink:href="#DejaVuSans-72"/>
     <use x="74.8046875" xlink:href="#DejaVuSans-75"/>
     <use x="138.18359375" xlink:href="#DejaVuSans-6e"/>
     <use x="201.5625" xlink:href="#DejaVuSans-74"/>
     <use x="240.771484375" xlink:href="#DejaVuSans-69"/>
     <use x="268.5546875" xlink:href="#DejaVuSans-6d"/>
     <use x="365.966796875" xlink:href="#DejaVuSans-65"/>
     <use x="427.490234375" xlink:href="#DejaVuSans-2f"/>
     <use x="461.181640625" xlink:href="#DejaVuSans-63"/>
     <use x="516.162109375" xlink:href="#DejaVuSans-6f"/>
     <use x="577.34375" xlink:href="#DejaVuSans-75"/>
     <use x="640.72265625" xlink:href="#DejaVuSans-6e"/>
     <use x="704.1015625" xlink:href="#DejaVuSans-74"/>
     <use x="743.310546875" xlink:href="#DejaVuSans-2f"/>
     <use x="777.001953125" xlink:href="#DejaVuSans-61"/>
     <use x="838.28125" xlink:href="#DejaVuSans-63"/>
     <use x="893.26171875" xlink:href="#DejaVuSans-74"/>
     <use x="932.470703125" xlink:href="#DejaVuSans-69"/>
     <use x="960.25390625" xlink:href="#DejaVuSans-6f"/>
     <use x="1021.43554688" xlink:href="#DejaVuSans-6e"/>
     <use x="1084.81445312" xlink:href="#DejaVuSans-5f"/>
     <use x="1134.81445312" xlink:href="#DejaVuSans-69"/>
     <use x="1162.59765625" xlink:href="#DejaVuSans-6e"/>
     <use x="1225.9765625" xlink:href="#DejaVuSans-76"/>
     <use x="1285.15625" xlink:href="#DejaVuSans-6f"/>
     <use x="1346.33789062" xlink:href="#DejaVuSans-63"/>
     <use x="1401.31835938" xlink:href="#DejaVuSans-61"/>
     <use x="1462.59765625" xlink:href="#DejaVuSans-74"/>
     <use x="1501.80664062" xlink:href="#DejaVuSans-69"/>
     <use x="1529.58984375" xlink:href="#DejaVuSans-6f"/>
     <use x="1590.77148438" xlink:href="#DejaVuSans-6e"/>
     <use x="1654.15039062" xlink:href="#DejaVuSans-40"/>
     <use x="1754.15039062" xlink:href="#DejaVuSans-6e"/>
     <use x="1817.52929688" xlink:href="#DejaVuSans-75"/>
     <use x="1880.90820312" xlink:href="#DejaVuSans-6c"/>
     <use x="1908.69140625" xlink:href="#DejaVuSans-6c"/>
     <use x="1936.47460938" xlink:href="#DejaVuSans-5f"/>
     <use x="1986.47460938" xlink:href="#DejaVuSans-74"/>
     <use x="2025.68359375" xlink:href="#DejaVuSans-72"/>
     <use x="2064.546875" xlink:href="#DejaVuSans-65"/>
     <use x="2126.0703125" xlink:href="#DejaVuSans-65"/>
     <use x="2187.59375" xlink:href="#DejaVuSans-5f"/>
     <use x="2237.59375" xlink:href="#DejaVuSans-61"/>
     <use x="2298.87304688" xlink:href="#DejaVuSans-63"/>
     <use x="2353.85351562" xlink:href="#DejaVuSans-74"/>
     <use x="2393.0625" xlink:href="#DejaVuSans-69"/>
     <use x="2420.84570312" xlink:href="#DejaVuSans-6f"/>
     <use x="2482.02734375" xlink:href="#DejaVuSans-6e"/>
    </g>
   </g>
   <g id="legend_1">
    <g id="patch_7">
     <path d="
M482.419 367.194
L614.209 367.194
L614.209 24.6897
L482.419 24.6897
z
" style="fill:#ffffff;stroke:#000000;stroke-linejoin:miter;"/>
    </g>
    <g id="line2d_41">
     <path d="
M492.499 36.3515
L512.659 36.3515" style="fill:none;stroke:#0000ff;stroke-linecap:square;"/>
    </g>
    <g id="line2d_42"/>
    <g id="text_16">
     <!-- locality#0 -->
     <defs>
      <path d="
M51.125 44
L36.9219 44
L32.8125 27.6875
L47.125 27.6875
z

M43.7969 71.7812
L38.7188 51.5156
L52.9844 51.5156
L58.1094 71.7812
L65.9219 71.7812
L60.8906 51.5156
L76.125 51.5156
L76.125 44
L58.9844 44
L54.9844 27.6875
L70.5156 27.6875
L70.5156 20.2188
L53.0781 20.2188
L48 0
L40.1875 0
L45.2188 20.2188
L30.9062 20.2188
L25.875 0
L18.0156 0
L23.0938 20.2188
L7.71875 20.2188
L7.71875 27.6875
L24.9062 27.6875
L29 44
L13.2812 44
L13.2812 51.5156
L30.9062 51.5156
L35.8906 71.7812
z
" id="DejaVuSans-23"/>
      <path d="
M32.1719 -5.07812
Q28.375 -14.8438 24.75 -17.8125
Q21.1406 -20.7969 15.0938 -20.7969
L7.90625 -20.7969
L7.90625 -13.2812
L13.1875 -13.2812
Q16.8906 -13.2812 18.9375 -11.5156
Q21 -9.76562 23.4844 -3.21875
L25.0938 0.875
L2.98438 54.6875
L12.5 54.6875
L29.5938 11.9219
L46.6875 54.6875
L56.2031 54.6875
z
" id="DejaVuSans-79"/>
     </defs>
     <g transform="translate(528.499375 41.3915)scale(0.144 -0.144)">
      <use xlink:href="#DejaVuSans-6c"/>
      <use x="27.783203125" xlink:href="#DejaVuSans-6f"/>
      <use x="88.96484375" xlink:href="#DejaVuSans-63"/>
      <use x="143.9453125" xlink:href="#DejaVuSans-61"/>
      <use x="205.224609375" xlink:href="#DejaVuSans-6c"/>
      <use x="233.0078125" xlink:href="#DejaVuSans-69"/>
      <use x="260.791015625" xlink:href="#DejaVuSans-74"/>
      <use x="300.0" xlink:href="#DejaVuSans-79"/>
      <use x="359.1796875" xlink:href="#DejaVuSans-23"/>
      <use x="442.96875" xlink:href="#DejaVuSans-30"/>
     </g>
    </g>
    <g id="line2d_43">
     <path d="
M492.499 57.488
L512.659 57.488" style="fill:none;stroke:#008000;stroke-linecap:square;"/>
    </g>
    <g id="line2d_44"/>
    <g id="text_17">
     <!-- locality#1 -->
     <g transform="translate(528.499375 62.528)scale(0.144 -0.144)">
      <use xlink:href="#DejaVuSans-6c"/>
      <use x="27.783203125" xlink:href="#DejaVuSans-6f"/>
      <use x="88.96484375" xlink:href="#DejaVuSans-63"/>
      <use x="143.9453125" xlink:href="#DejaVuSans-61"/>
      <use x="205.224609375" xlink:href="#DejaVuSans-6c"/>
      <use x="233.0078125" xlink:href="#DejaVuSans-69"/>
      <use x="260.791015625" xlink:href="#DejaVuSans-74"/>
      <use x="300.0" xlink:href="#DejaVuSans-79"/>
      <use x="359.1796875" xlink:href="#DejaVuSans-23"/>
      <use x="442.96875" xlink:href="#DejaVuSans-31"/>
     </g>
    </g>
    <g id="line2d_45">
     <path d="
M492.499 78.6245
L512.659 78.6245" style="fill:none;stroke:#ff0000;stroke-linecap:square;"/>
    </g>
    <g id="line2d_46"/>
    <g id="text_18">
     <!-- locality#10 -->
     <g transform="translate(528.499375 83.6645)scale(0.144 -0.144)">
      <use xlink:href="#DejaVuSans-6c"/>
      <use x="27.783203125" xlink:href="#DejaVuSans-6f"/>
      <use x="88.96484375" xlink:href="#DejaVuSans-63"/>
      <use x="143.9453125" xlink:href="#DejaVuSans-61"/>
      <use x="205.224609375" xlink:href="#DejaVuSans-6c"/>
      <use x="233.0078125" xlink:href="#DejaVuSans-69"/>
      <use x="260.791015625" xlink:href="#DejaVuSans-74"/>
      <use x="300.0" xlink:href="#DejaVuSans-79"/>
      <use x="359.1796875" xlink:href="#DejaVuSans-23"/>
      <use x="442.96875" xlink:href="#DejaVuSans-31"/>
      <use x="506.591796875" xlink:href="#DejaVuSans-30"/>
     </g>
    </g>
    <g id="line2d_47">
     <path d="
M492.499 99.761
L512.659 99.761" style="fill:none;stroke:#00bfbf;stroke-linecap:square;"/>
    </g>
    <g id="line2d_48"/>
    <g id="text_19">
     <!-- locality#11 -->
     <g transform="translate(528.499375 104.801)scale(0.144 -0.144)">
      <use xlink:href="#DejaVuSans-6c"/>
      <use x="27.783203125" xlink:href="#DejaVuSans-6f"/>
      <use x="88.96484375" xlink:href="#DejaVuSans-63"/>
      <use x="143.9453125" xlink:href="#DejaVuSans-61"/>
      <use x="205.224609375" xlink:href="#DejaVuSans-6c"/>
      <use x="233.0078125" xlink:href="#DejaVuSans-69"/>
      <use x="260.791015625" xlink:href="#DejaVuSans-74"/>
      <use x="300.0" xlink:href="#DejaVuSans-79"/>
      <use x="359.1796875" xlink:href="#DejaVuSans-23"/>
      <use x="442.96875" xlink:href="#DejaVuSans-31"/>
      <use x="506.591796875" xlink:href="#DejaVuSans-31"/>
     </g>
    </g>
    <g id="line2d_49">
     <path d="
M492.499 120.897
L512.659 120.897" style="fill:none;stroke:#bf00bf;stroke-linecap:square;"/>
    </g>
    <g id="line2d_50"/>
    <g id="text_20">
     <!-- locality#12 -->
     <g transform="translate(528.499375 125.9375)scale(0.144 -0.144)">
      <use xlink:href="#DejaVuSans-6c"/>
      <use x="27.783203125" xlink:href="#DejaVuSans-6f"/>
      <use x="88.96484375" xlink:href="#DejaVuSans-63"/>
      <use x="143.9453125" xlink:href="#DejaVuSans-61"/>
      <use x="205.224609375" xlink:href="#DejaVuSans-6c"/>
      <use x="233.0078125" xlink:href="#DejaVuSans-69"/>
      <use x="260.791015625" xlink:href="#DejaVuSans-74"/>
      <use x="300.0" xlink:href="#DejaVuSans-79"/>
      <use x="359.1796875" xlink:href="#DejaVuSans-23"/>
      <use x="442.96875" xlink:href="#DejaVuSans-31"/>
      <use x="506.591796875" xlink:href="#DejaVuSans-32"/>
     </g>
    </g>
    <g id="line2d_51">
     <path d="
M492.499 142.034
L512.659 142.034" style="fill:none;stroke:#bfbf00;stroke-linecap:square;"/>
    </g>
    <g id="line2d_52"/>
    <g id="text_21">
     <!-- locality#13 -->
     <g transform="translate(528.499375 147.074)scale(0.144 -0.144)">
      <use xlink:href="#DejaVuSans-6c"/>
      <use x="27.783203125" xlink:href="#DejaVuSans-6f"/>
      <use x="88.96484375" xlink:href="#DejaVuSans-63"/>
      <use x="143.9453125" xlink:href="#DejaVuSans-61"/>
      <use x="205.224609375" xlink:href="#DejaVuSans-6c"/>
      <use x="233.0078125" xlink:href="#DejaVuSans-69"/>
      <use x="260.791015625" xlink:href="#DejaVuSans-74"/>
      <use x="300.0" xlink:href="#DejaVuSans-79"/>
      <use x="359.1796875" xlink:href="#DejaVuSans-23"/>
      <use x="442.96875" xlink:href="#DejaVuSans-31"/>
      <use x="506.591796875" xlink:href="#DejaVuSans-33"/>
     </g>
    </g>
    <g id="line2d_53">
     <path d="
M492.499 163.17
L512.659 163.17" style="fill:none;stroke:#000000;stroke-linecap:square;"/>
    </g>
    <g id="line2d_54"/>
    <g id="text_22">
     <!-- locality#14 -->
     <g transform="translate(528.499375 168.2105)scale(0.144 -0.144)">
      <use xlink:href="#DejaVuSans-6c"/>
      <use x="27.783203125" xlink:href="#DejaVuSans-6f"/>
      <use x="88.96484375" xlink:href="#DejaVuSans-63"/>
      <use x="143.9453125" xlink:href="#DejaVuSans-61"/>
      <use x="205.224609375" xlink:href="#DejaVuSans-6c"/>
      <use x="233.0078125" xlink:href="#DejaVuSans-69"/>
      <use x="260.791015625" xlink:href="#DejaVuSans-74"/>
      <use x="300.0" xlink:href="#DejaVuSans-79"/>
      <use x="359.1796875" xlink:href="#DejaVuSans-23"/>
      <use x="442.96875" xlink:href="#DejaVuSans-31"/>
      <use x="506.591796875" xlink:href="#DejaVuSans-34"/>
     </g>
    </g>
    <g id="line2d_55">
     <path d="
M492.499 184.307
L512.659 184.307" style="fill:none;stroke:#0000ff;stroke-linecap:square;"/>
    </g>
    <g id="line2d_56"/>
    <g id="text_23">
     <!-- locality#15 -->
     <defs>
      <path d="
M10.7969 72.9062
L49.5156 72.9062
L49.5156 64.5938
L19.8281 64.5938
L19.8281 46.7344
Q21.9688 47.4688 24.1094 47.8281
Q26.2656 48.1875 28.4219 48.1875
Q40.625 48.1875 47.75 41.5
Q54.8906 34.8125 54.8906 23.3906
Q54.8906 11.625 47.5625 5.09375
Q40.2344 -1.42188 26.9062 -1.42188
Q22.3125 -1.42188 17.5469 -0.640625
Q12.7969 0.140625 7.71875 1.70312
L7.71875 11.625
Q12.1094 9.23438 16.7969 8.0625
Q21.4844 6.89062 26.7031 6.89062
Q35.1562 6.89062 40.0781 11.3281
Q45.0156 15.7656 45.0156 23.3906
Q45.0156 31 40.0781 35.4375
Q35.1562 39.8906 26.7031 39.8906
Q22.75 39.8906 18.8125 39.0156
Q14.8906 38.1406 10.7969 36.2812
z
" id="DejaVuSans-35"/>
     </defs>
     <g transform="translate(528.499375 189.347)scale(0.144 -0.144)">
      <use xlink:href="#DejaVuSans-6c"/>
      <use x="27.783203125" xlink:href="#DejaVuSans-6f"/>
      <use x="88.96484375" xlink:href="#DejaVuSans-63"/>
      <use x="143.9453125" xlink:href="#DejaVuSans-61"/>
      <use x="205.224609375" xlink:href="#DejaVuSans-6c"/>
      <use x="233.0078125" xlink:href="#DejaVuSans-69"/>
      <use x="260.791015625" xlink:href="#DejaVuSans-74"/>
      <use x="300.0" xlink:href="#DejaVuSans-79"/>
      <use x="359.1796875" xlink:href="#DejaVuSans-23"/>
      <use x="442.96875" xlink:href="#DejaVuSans-31"/>
      <use x="506.591796875" xlink:href="#DejaVuSans-35"/>
     </g>
    </g>
    <g id="line2d_57">
     <path d="
M492.499 205.443
L512.659 205.443" style="fill:none;stroke:#008000;stroke-linecap:square;"/>
    </g>
    <g id="line2d_58"/>
    <g id="text_24">
     <!-- locality#2 -->
     <g transform="translate(528.499375 210.4835)scale(0.144 -0.144)">
      <use xlink:href="#DejaVuSans-6c"/>
      <use x="27.783203125" xlink:href="#DejaVuSans-6f"/>
      <use x="88.96484375" xlink:href="#DejaVuSans-63"/>
      <use x="143.9453125" xlink:href="#DejaVuSans-61"/>
      <use x="205.224609375" xlink:href="#DejaVuSans-6c"/>
      <use x="233.0078125" xlink:href="#DejaVuSans-69"/>
      <use x="260.791015625" xlink:href="#DejaVuSans-74"/>
      <use x="300.0" xlink:href="#DejaVuSans-79"/>
      <use x="359.1796875" xlink:href="#DejaVuSans-23"/>
      <use x="442.96875" xlink:href="#DejaVuSans-32"/>
     </g>
    </g>
    <g id="line2d_59">
     <path d="
M492.499 226.58
L512.659 226.58" style="fill:none;stroke:#ff0000;stroke-linecap:square;"/>
    </g>
    <g id="line2d_60"/>
    <g id="text_25">
     <!-- locality#3 -->
     <g transform="translate(528.499375 231.62)scale(0.144 -0.144)">
      <use xlink:href="#DejaVuSans-6c"/>
      <use x="27.783203125" xlink:href="#DejaVuSans-6f"/>
      <use x="88.96484375" xlink:href="#DejaVuSans-63"/>
      <use x="143.9453125" xlink:href="#DejaVuSans-61"/>
      <use x="205.224609375" xlink:href="#DejaVuSans-6c"/>
      <use x="233.0078125" xlink:href="#DejaVuSans-69"/>
      <use x="260.791015625" xlink:href="#DejaVuSans-74"/>
      <use x="300.0" xlink:href="#DejaVuSans-79"/>
      <use x="359.1796875" xlink:href="#DejaVuSans-23"/>
      <use x="442.96875" xlink:href="#DejaVuSans-33"/>
     </g>
    </g>
    <g id="line2d_61">
     <path d="
M492.499 247.716
L512.659 247.716" style="fill:none;stroke:#00bfbf;stroke-linecap:square;"/>
    </g>
    <g id="line2d_62"/>
    <g id="text_26">
     <!-- locality#4 -->
     <g transform="translate(528.499375 252.7565)scale(0.144 -0.144)">
      <use xlink:href="#DejaVuSans-6c"/>
      <use x="27.783203125" xlink:href="#DejaVuSans-6f"/>
      <use x="88.96484375" xlink:href="#DejaVuSans-63"/>
      <use x="143.9453125" xlink:href="#DejaVuSans-61"/>
      <use x="205.224609375" xlink:href="#DejaVuSans-6c"/>
      <use x="233.0078125" xlink:href="#DejaVuSans-69"/>
      <use x="260.791015625" xlink:href="#DejaVuSans-74"/>
      <use x="300.0" xlink:href="#DejaVuSans-79"/>
      <use x="359.1796875" xlink:href="#DejaVuSans-23"/>
      <use x="442.96875" xlink:href="#DejaVuSans-34"/>
     </g>
    </g>
    <g id="line2d_63">
     <path d="
M492.499 268.853
L512.659 268.853" style="fill:none;stroke:#bf00bf;stroke-linecap:square;"/>
    </g>
    <g id="line2d_64"/>
    <g id="text_27">
     <!-- locality#5 -->
     <g transform="translate(528.499375 273.893)scale(0.144 -0.144)">
      <use xlink:href="#DejaVuSans-6c"/>
      <use x="27.783203125" xlink:href="#DejaVuSans-6f"/>
      <use x="88.96484375" xlink:href="#DejaVuSans-63"/>
      <use x="143.9453125" xlink:href="#DejaVuSans-61"/>
      <use x="205.224609375" xlink:href="#DejaVuSans-6c"/>
      <use x="233.0078125" xlink:href="#DejaVuSans-69"/>
      <use x="260.791015625" xlink:href="#DejaVuSans-74"/>
      <use x="300.0" xlink:href="#DejaVuSans-79"/>
      <use x="359.1796875" xlink:href="#DejaVuSans-23"/>
      <use x="442.96875" xlink:href="#DejaVuSans-35"/>
     </g>
    </g>
    <g id="line2d_65">
     <path d="
M492.499 289.989
L512.659 289.989" style="fill:none;stroke:#bfbf00;stroke-linecap:square;"/>
    </g>
    <g id="line2d_66"/>
    <g id="text_28">
     <!-- locality#6 -->
     <g transform="translate(528.499375 295.0295)scale(0.144 -0.144)">
      <use xlink:href="#DejaVuSans-6c"/>
      <use x="27.783203125" xlink:href="#DejaVuSans-6f"/>
      <use x="88.96484375" xlink:href="#DejaVuSans-63"/>
      <use x="143.9453125" xlink:href="#DejaVuSans-61"/>
      <use x="205.224609375" xlink:href="#DejaVuSans-6c"/>
      <use x="233.0078125" xlink:href="#DejaVuSans-69"/>
      <use x="260.791015625" xlink:href="#DejaVuSans-74"/>
      <use x="300.0" xlink:href="#DejaVuSans-79"/>
      <use x="359.1796875" xlink:href="#DejaVuSans-23"/>
      <use x="442.96875" xlink:href="#DejaVuSans-36"/>
     </g>
    </g>
    <g id="line2d_67">
     <path d="
M492.499 311.126
L512.659 311.126" style="fill:none;stroke:#000000;stroke-linecap:square;"/>
    </g>
    <g id="line2d_68"/>
    <g id="text_29">
     <!-- locality#7 -->
     <g transform="translate(528.499375 316.166)scale(0.144 -0.144)">
      <use xlink:href="#DejaVuSans-6c"/>
      <use x="27.783203125" xlink:href="#DejaVuSans-6f"/>
      <use x="88.96484375" xlink:href="#DejaVuSans-63"/>
      <use x="143.9453125" xlink:href="#DejaVuSans-61"/>
      <use x="205.224609375" xlink:href="#DejaVuSans-6c"/>
      <use x="233.0078125" xlink:href="#DejaVuSans-69"/>
      <use x="260.791015625" xlink:href="#DejaVuSans-74"/>
      <use x="300.0" xlink:href="#DejaVuSans-79"/>
      <use x="359.1796875" xlink:href="#DejaVuSans-23"/>
      <use x="442.96875" xlink:href="#DejaVuSans-37"/>
     </g>
    </g>
    <g id="line2d_69">
     <path d="
M492.499 332.262
L512.659 332.262" style="fill:none;stroke:#0000ff;stroke-linecap:square;"/>
    </g>
    <g id="line2d_70"/>
    <g id="text_30">
     <!-- locality#8 -->
     <g transform="translate(528.499375 337.3025)scale(0.144 -0.144)">
      <use xlink:href="#DejaVuSans-6c"/>
      <use x="27.783203125" xlink:href="#DejaVuSans-6f"/>
      <use x="88.96484375" xlink:href="#DejaVuSans-63"/>
      <use x="143.9453125" xlink:href="#DejaVuSans-61"/>
      <use x="205.224609375" xlink:href="#DejaVuSans-6c"/>
      <use x="233.0078125" xlink:href="#DejaVuSans-69"/>
      <use x="260.791015625" xlink:href="#DejaVuSans-74"/>
      <use x="300.0" xlink:href="#DejaVuSans-79"/>
      <use x="359.1796875" xlink:href="#DejaVuSans-23"/>
      <use x="442.96875" xlink:href="#DejaVuSans-38"/>
     </g>
    </g>
    <g id="line2d_71">
     <path d="
M492.499 353.399
L512.659 353.399" style="fill:none;stroke:#008000;stroke-linecap:square;"/>
    </g>
    <g id="line2d_72"/>
    <g id="text_31">
     <!-- locality#9 -->
     <defs>
      <path d="
M10.9844 1.51562
L10.9844 10.5
Q14.7031 8.73438 18.5 7.8125
Q22.3125 6.89062 25.9844 6.89062
Q35.75 6.89062 40.8906 13.4531
Q46.0469 20.0156 46.7812 33.4062
Q43.9531 29.2031 39.5938 26.9531
Q35.25 24.7031 29.9844 24.7031
Q19.0469 24.7031 12.6719 31.3125
Q6.29688 37.9375 6.29688 49.4219
Q6.29688 60.6406 12.9375 67.4219
Q19.5781 74.2188 30.6094 74.2188
Q43.2656 74.2188 49.9219 64.5156
Q56.5938 54.8281 56.5938 36.375
Q56.5938 19.1406 48.4062 8.85938
Q40.2344 -1.42188 26.4219 -1.42188
Q22.7031 -1.42188 18.8906 -0.6875
Q15.0938 0.046875 10.9844 1.51562
M30.6094 32.4219
Q37.25 32.4219 41.125 36.9531
Q45.0156 41.5 45.0156 49.4219
Q45.0156 57.2812 41.125 61.8438
Q37.25 66.4062 30.6094 66.4062
Q23.9688 66.4062 20.0938 61.8438
Q16.2188 57.2812 16.2188 49.4219
Q16.2188 41.5 20.0938 36.9531
Q23.9688 32.4219 30.6094 32.4219" id="DejaVuSans-39"/>
     </defs>
     <g transform="translate(528.499375 358.439)scale(0.144 -0.144)">
      <use xlink:href="#DejaVuSans-6c"/>
      <use x="27.783203125" xlink:href="#DejaVuSans-6f"/>
      <use x="88.96484375" xlink:href="#DejaVuSans-63"/>
      <use x="143.9453125" xlink:href="#DejaVuSans-61"/>
      <use x="205.224609375" xlink:href="#DejaVuSans-6c"/>
      <use x="233.0078125" xlink:href="#DejaVuSans-69"/>
      <use x="260.791015625" xlink:href="#DejaVuSans-74"/>
      <use x="300.0" xlink:href="#DejaVuSans-79"/>
      <use x="359.1796875" xlink:href="#DejaVuSans-23"/>
      <use x="442.96875" xlink:href="#DejaVuSans-39"/>
     </g>
    </g>
   </g>
  </g>
 </g>
 <defs>
  <clipPath id="p8c776b0f9c">
   <rect height="345.6" width="446.4" x="28.819375" y="23.14175"/>
  </clipPath>
 </defs>
</svg>
