<?xml version="1.0" encoding="utf-8" standalone="no"?>
<!DOCTYPE svg PUBLIC "-//W3C//DTD SVG 1.1//EN"
  "http://www.w3.org/Graphics/SVG/1.1/DTD/svg11.dtd">
<!-- Created with matplotlib (http://matplotlib.org/) -->
<svg height="408pt" version="1.1" viewBox="0 0 708 408" width="708pt" xmlns="http://www.w3.org/2000/svg" xmlns:xlink="http://www.w3.org/1999/xlink">
 <defs>
  <style type="text/css">
*{stroke-linecap:butt;stroke-linejoin:round;stroke-miterlimit:100000;}
  </style>
 </defs>
 <g id="figure_1">
  <g id="patch_1">
   <path d="M 0 408.16925 
L 708.0075 408.16925 
L 708.0075 0 
L 0 0 
z
" style="fill:#ffffff;"/>
  </g>
  <g id="axes_1">
   <g id="patch_2">
    <path d="M 113.25375 368.74175 
L 559.65375 368.74175 
L 559.65375 23.14175 
L 113.25375 23.14175 
z
" style="fill:#ffffff;"/>
   </g>
   <g id="line2d_1">
    <path clip-path="url(#p9fb19be131)" d="M 113.25375 368.74175 
L 128.13375 368.74175 
L 143.01375 368.74175 
L 157.89375 368.74175 
L 172.77375 368.74175 
L 187.65375 368.74175 
L 202.53375 368.74175 
L 217.41375 368.74175 
L 232.29375 368.74175 
L 247.17375 368.74175 
L 262.05375 368.74175 
L 276.93375 368.74175 
L 291.81375 368.74175 
L 306.69375 368.74175 
L 321.57375 368.74175 
L 336.45375 368.74175 
L 351.33375 368.74175 
L 366.21375 368.74175 
L 381.09375 368.74175 
L 395.97375 368.74175 
L 410.85375 368.74175 
L 425.73375 368.74175 
L 440.61375 368.74175 
L 455.49375 368.74175 
L 470.37375 368.74175 
L 485.25375 368.74175 
L 500.13375 368.74175 
L 515.01375 368.74175 
L 529.89375 368.74175 
L 544.77375 368.74175 
L 559.65375 368.74175 
" style="fill:none;stroke:#0000ff;stroke-linecap:square;"/>
   </g>
   <g id="line2d_2">
    <path clip-path="url(#p9fb19be131)" d="M 113.25375 360.93695 
L 128.13375 350.30975 
L 143.01375 339.62495 
L 157.89375 328.99775 
L 172.77375 318.28415 
L 187.65375 307.65695 
L 202.53375 296.91455 
L 217.41375 286.22975 
L 232.29375 275.66015 
L 247.17375 265.14815 
L 262.05375 254.31935 
L 276.93375 243.66335 
L 291.81375 233.35295 
L 306.69375 222.46655 
L 321.57375 211.75295 
L 336.45375 201.09695 
L 351.33375 190.46975 
L 366.21375 179.81375 
L 381.09375 169.15775 
L 395.97375 158.50175 
L 410.85375 147.84575 
L 425.73375 137.16095 
L 440.61375 126.90815 
L 455.49375 115.99295 
L 470.37375 105.13535 
L 485.25375 94.47935 
L 500.13375 83.82335 
L 515.01375 73.22495 
L 529.89375 62.56895 
L 544.77375 51.68255 
L 559.65375 41.22815 
" style="fill:none;stroke:#008000;stroke-linecap:square;"/>
   </g>
   <g id="line2d_3">
    <path clip-path="url(#p9fb19be131)" d="M 113.25375 360.93695 
L 128.13375 350.30975 
L 143.01375 339.62495 
L 157.89375 328.96895 
L 172.77375 318.34175 
L 187.65375 307.65695 
L 202.53375 296.97215 
L 217.41375 286.80575 
L 232.29375 276.20735 
L 247.17375 265.17695 
L 262.05375 254.37695 
L 276.93375 243.66335 
L 291.81375 233.03615 
L 306.69375 222.43775 
L 321.57375 211.75295 
L 336.45375 201.15455 
L 351.33375 190.35455 
L 366.21375 179.81375 
L 381.09375 169.15775 
L 395.97375 158.24255 
L 410.85375 147.64415 
L 425.73375 137.42015 
L 440.61375 126.41855 
L 455.49375 115.93535 
L 470.37375 105.27935 
L 485.25375 94.53695 
L 500.13375 83.90975 
L 515.01375 73.22495 
L 529.89375 62.42495 
L 544.77375 52.48895 
L 559.65375 41.25695 
" style="fill:none;stroke:#ff0000;stroke-linecap:square;"/>
   </g>
   <g id="line2d_4">
    <path clip-path="url(#p9fb19be131)" d="M 113.25375 360.93695 
L 128.13375 350.33855 
L 143.01375 339.62495 
L 157.89375 329.05535 
L 172.77375 318.28415 
L 187.65375 307.65695 
L 202.53375 296.36735 
L 217.41375 285.53855 
L 232.29375 275.71775 
L 247.17375 265.09055 
L 262.05375 254.23295 
L 276.93375 243.60575 
L 291.81375 232.97855 
L 306.69375 222.38015 
L 321.57375 211.75295 
L 336.45375 201.18335 
L 351.33375 190.44095 
L 366.21375 179.78495 
L 381.09375 168.84095 
L 395.97375 158.06975 
L 410.85375 147.52895 
L 425.73375 137.16095 
L 440.61375 126.50495 
L 455.49375 115.87775 
L 470.37375 105.04895 
L 485.25375 94.53695 
L 500.13375 84.11135 
L 515.01375 73.22495 
L 529.89375 61.90655 
L 544.77375 52.08575 
L 559.65375 41.28575 
" style="fill:none;stroke:#00bfbf;stroke-linecap:square;"/>
   </g>
   <g id="line2d_5">
    <path clip-path="url(#p9fb19be131)" d="M 113.25375 360.93695 
L 128.13375 350.28095 
L 143.01375 339.62495 
L 157.89375 328.79615 
L 172.77375 318.39935 
L 187.65375 307.65695 
L 202.53375 296.94335 
L 217.41375 286.31615 
L 232.29375 275.77535 
L 247.17375 265.09055 
L 262.05375 254.34815 
L 276.93375 242.97215 
L 291.81375 233.15135 
L 306.69375 222.43775 
L 321.57375 211.69535 
L 336.45375 201.09695 
L 351.33375 190.44095 
L 366.21375 179.78495 
L 381.09375 169.18655 
L 395.97375 158.24255 
L 410.85375 147.61535 
L 425.73375 137.65055 
L 440.61375 126.50495 
L 455.49375 115.76255 
L 470.37375 105.27935 
L 485.25375 94.59455 
L 500.13375 83.88095 
L 515.01375 73.39775 
L 529.89375 62.59775 
L 544.77375 52.02815 
L 559.65375 41.25695 
" style="fill:none;stroke:#bf00bf;stroke-linecap:square;"/>
   </g>
   <g id="line2d_6">
    <path clip-path="url(#p9fb19be131)" d="M 113.25375 360.93695 
L 128.13375 350.33855 
L 143.01375 339.62495 
L 157.89375 329.02655 
L 172.77375 317.79455 
L 187.65375 307.71455 
L 202.53375 296.91455 
L 217.41375 286.34495 
L 232.29375 275.77535 
L 247.17375 264.77375 
L 262.05375 254.37695 
L 276.93375 243.69215 
L 291.81375 232.77695 
L 306.69375 222.14975 
L 321.57375 211.69535 
L 336.45375 201.09695 
L 351.33375 190.67135 
L 366.21375 179.78495 
L 381.09375 169.12895 
L 395.97375 158.44415 
L 410.85375 147.38495 
L 425.73375 137.21855 
L 440.61375 126.47615 
L 455.49375 115.93535 
L 470.37375 105.16415 
L 485.25375 94.53695 
L 500.13375 83.85215 
L 515.01375 73.13855 
L 529.89375 62.62655 
L 544.77375 51.76895 
L 559.65375 41.31455 
" style="fill:none;stroke:#bfbf00;stroke-linecap:square;"/>
   </g>
   <g id="line2d_7">
    <path clip-path="url(#p9fb19be131)" d="M 113.25375 360.93695 
L 128.13375 350.30975 
L 143.01375 339.62495 
L 157.89375 328.91135 
L 172.77375 318.31295 
L 187.65375 307.65695 
L 202.53375 297.08735 
L 217.41375 286.34495 
L 232.29375 275.57375 
L 247.17375 264.71615 
L 262.05375 254.31935 
L 276.93375 243.34655 
L 291.81375 232.43135 
L 306.69375 222.49535 
L 321.57375 211.52255 
L 336.45375 201.12575 
L 351.33375 190.23935 
L 366.21375 179.81375 
L 381.09375 169.15775 
L 395.97375 158.50175 
L 410.85375 147.87455 
L 425.73375 137.16095 
L 440.61375 126.41855 
L 455.49375 115.90655 
L 470.37375 105.13535 
L 485.25375 94.56575 
L 500.13375 83.82335 
L 515.01375 73.31135 
L 529.89375 62.33855 
L 544.77375 51.82655 
L 559.65375 41.25695 
" style="fill:none;stroke:#000000;stroke-linecap:square;"/>
   </g>
   <g id="line2d_8">
    <path clip-path="url(#p9fb19be131)" d="M 113.25375 360.93695 
L 128.13375 350.30975 
L 143.01375 339.62495 
L 157.89375 328.94015 
L 172.77375 317.56415 
L 187.65375 307.88735 
L 202.53375 296.94335 
L 217.41375 286.34495 
L 232.29375 275.91935 
L 247.17375 264.57215 
L 262.05375 254.40575 
L 276.93375 243.11615 
L 291.81375 233.06495 
L 306.69375 222.29375 
L 321.57375 211.75295 
L 336.45375 201.26975 
L 351.33375 190.29695 
L 366.21375 179.81375 
L 381.09375 168.35135 
L 395.97375 158.47295 
L 410.85375 147.67295 
L 425.73375 137.07455 
L 440.61375 126.50495 
L 455.49375 115.87775 
L 470.37375 105.19295 
L 485.25375 94.79615 
L 500.13375 83.82335 
L 515.01375 73.02335 
L 529.89375 62.22335 
L 544.77375 51.36575 
L 559.65375 41.19935 
" style="fill:none;stroke:#0000ff;stroke-linecap:square;"/>
   </g>
   <g id="line2d_9">
    <path clip-path="url(#p9fb19be131)" d="M 113.25375 360.93695 
L 128.13375 350.02175 
L 143.01375 339.65375 
L 157.89375 328.99775 
L 172.77375 318.31295 
L 187.65375 307.71455 
L 202.53375 297.05855 
L 217.41375 286.40255 
L 232.29375 275.66015 
L 247.17375 264.88895 
L 262.05375 254.40575 
L 276.93375 243.08735 
L 291.81375 233.12255 
L 306.69375 222.43775 
L 321.57375 211.69535 
L 336.45375 201.09695 
L 351.33375 190.49855 
L 366.21375 179.78495 
L 381.09375 169.15775 
L 395.97375 157.89695 
L 410.85375 147.64415 
L 425.73375 137.13215 
L 440.61375 126.33215 
L 455.49375 115.82015 
L 470.37375 105.22175 
L 485.25375 94.50815 
L 500.13375 83.76575 
L 515.01375 73.16735 
L 529.89375 62.39615 
L 544.77375 51.94175 
L 559.65375 41.22815 
" style="fill:none;stroke:#008000;stroke-linecap:square;"/>
   </g>
   <g id="line2d_10">
    <path clip-path="url(#p9fb19be131)" d="M 113.25375 360.93695 
L 128.13375 350.28095 
L 143.01375 339.65375 
L 157.89375 328.99775 
L 172.77375 318.42815 
L 187.65375 307.85855 
L 202.53375 296.19455 
L 217.41375 286.34495 
L 232.29375 275.68895 
L 247.17375 265.06175 
L 262.05375 254.31935 
L 276.93375 243.40415 
L 291.81375 233.00735 
L 306.69375 221.74655 
L 321.57375 212.01215 
L 336.45375 201.18335 
L 351.33375 190.52735 
L 366.21375 179.78495 
L 381.09375 169.18655 
L 395.97375 158.24255 
L 410.85375 147.78815 
L 425.73375 137.16095 
L 440.61375 126.50495 
L 455.49375 115.70495 
L 470.37375 105.19295 
L 485.25375 94.45055 
L 500.13375 83.93855 
L 515.01375 73.13855 
L 529.89375 62.54015 
L 544.77375 51.88415 
L 559.65375 41.25695 
" style="fill:none;stroke:#ff0000;stroke-linecap:square;"/>
   </g>
   <g id="line2d_11">
    <path clip-path="url(#p9fb19be131)" d="M 113.25375 360.93695 
L 128.13375 350.28095 
L 143.01375 339.59615 
L 157.89375 328.96895 
L 172.77375 318.31295 
L 187.65375 307.65695 
L 202.53375 297.05855 
L 217.41375 286.28735 
L 232.29375 275.57375 
L 247.17375 264.68735 
L 262.05375 254.40575 
L 276.93375 243.80735 
L 291.81375 233.43935 
L 306.69375 222.40895 
L 321.57375 212.09855 
L 336.45375 201.24095 
L 351.33375 190.12415 
L 366.21375 179.78495 
L 381.09375 169.15775 
L 395.97375 158.41535 
L 410.85375 147.61535 
L 425.73375 137.39135 
L 440.61375 126.44735 
L 455.49375 115.93535 
L 470.37375 105.22175 
L 485.25375 94.45055 
L 500.13375 83.88095 
L 515.01375 73.28255 
L 529.89375 62.48255 
L 544.77375 51.91295 
L 559.65375 41.22815 
" style="fill:none;stroke:#00bfbf;stroke-linecap:square;"/>
   </g>
   <g id="line2d_12">
    <path clip-path="url(#p9fb19be131)" d="M 113.25375 360.93695 
L 128.13375 350.28095 
L 143.01375 339.68255 
L 157.89375 328.91135 
L 172.77375 318.25535 
L 187.65375 307.68575 
L 202.53375 296.91455 
L 217.41375 286.31615 
L 232.29375 275.94815 
L 247.17375 265.03295 
L 262.05375 254.34815 
L 276.93375 243.51935 
L 291.81375 233.46815 
L 306.69375 222.06335 
L 321.57375 211.52255 
L 336.45375 200.95295 
L 351.33375 190.44095 
L 366.21375 179.81375 
L 381.09375 169.33055 
L 395.97375 158.53055 
L 410.85375 147.58655 
L 425.73375 137.16095 
L 440.61375 126.50495 
L 455.49375 115.82015 
L 470.37375 105.10655 
L 485.25375 95.05535 
L 500.13375 83.82335 
L 515.01375 73.10975 
L 529.89375 62.42495 
L 544.77375 52.48895 
L 559.65375 41.28575 
" style="fill:none;stroke:#bf00bf;stroke-linecap:square;"/>
   </g>
   <g id="line2d_13">
    <path clip-path="url(#p9fb19be131)" d="M 113.25375 360.93695 
L 128.13375 350.28095 
L 143.01375 339.62495 
L 157.89375 328.99775 
L 172.77375 318.31295 
L 187.65375 307.65695 
L 202.53375 296.88575 
L 217.41375 286.40255 
L 232.29375 275.77535 
L 247.17375 264.68735 
L 262.05375 254.40575 
L 276.93375 243.72095 
L 291.81375 233.06495 
L 306.69375 222.40895 
L 321.57375 211.75295 
L 336.45375 201.09695 
L 351.33375 190.38335 
L 366.21375 179.78495 
L 381.09375 169.27295 
L 395.97375 158.50175 
L 410.85375 147.81695 
L 425.73375 137.21855 
L 440.61375 126.53375 
L 455.49375 115.84895 
L 470.37375 105.02015 
L 485.25375 94.56575 
L 500.13375 83.88095 
L 515.01375 73.05215 
L 529.89375 62.30975 
L 544.77375 51.85535 
L 559.65375 41.25695 
" style="fill:none;stroke:#bfbf00;stroke-linecap:square;"/>
   </g>
   <g id="line2d_14">
    <path clip-path="url(#p9fb19be131)" d="M 113.25375 360.93695 
L 128.13375 350.28095 
L 143.01375 339.62495 
L 157.89375 329.02655 
L 172.77375 318.22655 
L 187.65375 307.88735 
L 202.53375 297.14495 
L 217.41375 286.28735 
L 232.29375 275.60255 
L 247.17375 265.34975 
L 262.05375 254.34815 
L 276.93375 242.74175 
L 291.81375 233.09375 
L 306.69375 222.40895 
L 321.57375 211.75295 
L 336.45375 201.09695 
L 351.33375 191.13215 
L 366.21375 179.78495 
L 381.09375 169.07135 
L 395.97375 157.34975 
L 410.85375 147.41375 
L 425.73375 137.18975 
L 440.61375 126.41855 
L 455.49375 115.96415 
L 470.37375 105.30815 
L 485.25375 95.05535 
L 500.13375 83.88095 
L 515.01375 73.22495 
L 529.89375 62.62655 
L 544.77375 51.85535 
L 559.65375 41.22815 
" style="fill:none;stroke:#000000;stroke-linecap:square;"/>
   </g>
   <g id="line2d_15">
    <path clip-path="url(#p9fb19be131)" d="M 113.25375 360.93695 
L 128.13375 350.28095 
L 143.01375 339.62495 
L 157.89375 328.96895 
L 172.77375 318.65855 
L 187.65375 307.65695 
L 202.53375 296.94335 
L 217.41375 286.28735 
L 232.29375 275.71775 
L 247.17375 265.20575 
L 262.05375 254.34815 
L 276.93375 243.80735 
L 291.81375 233.09375 
L 306.69375 222.49535 
L 321.57375 211.78175 
L 336.45375 200.98175 
L 351.33375 190.46975 
L 366.21375 179.78495 
L 381.09375 169.12895 
L 395.97375 158.53055 
L 410.85375 147.81695 
L 425.73375 137.13215 
L 440.61375 126.50495 
L 455.49375 116.16575 
L 470.37375 105.27935 
L 485.25375 94.59455 
L 500.13375 83.88095 
L 515.01375 73.19615 
L 529.89375 62.28095 
L 544.77375 51.85535 
L 559.65375 41.25695 
" style="fill:none;stroke:#0000ff;stroke-linecap:square;"/>
   </g>
   <g id="line2d_16">
    <path clip-path="url(#p9fb19be131)" d="M 113.25375 360.93695 
L 128.13375 350.30975 
L 143.01375 339.59615 
L 157.89375 328.82495 
L 172.77375 318.31295 
L 187.65375 307.68575 
L 202.53375 297.02975 
L 217.41375 286.37375 
L 232.29375 275.68895 
L 247.17375 264.65855 
L 262.05375 254.40575 
L 276.93375 243.46175 
L 291.81375 233.52575 
L 306.69375 222.49535 
L 321.57375 211.75295 
L 336.45375 201.09695 
L 351.33375 190.21055 
L 366.21375 179.81375 
L 381.09375 169.12895 
L 395.97375 158.30015 
L 410.85375 147.50015 
L 425.73375 137.53535 
L 440.61375 126.70655 
L 455.49375 115.84895 
L 470.37375 105.22175 
L 485.25375 94.56575 
L 500.13375 83.90975 
L 515.01375 73.16735 
L 529.89375 62.54015 
L 544.77375 52.14335 
L 559.65375 41.22815 
" style="fill:none;stroke:#008000;stroke-linecap:square;"/>
   </g>
   <g id="patch_3">
    <path d="M 113.25375 23.14175 
L 559.65375 23.14175 
" style="fill:none;stroke:#000000;stroke-linecap:square;stroke-linejoin:miter;"/>
   </g>
   <g id="patch_4">
    <path d="M 559.65375 368.74175 
L 559.65375 23.14175 
" style="fill:none;stroke:#000000;stroke-linecap:square;stroke-linejoin:miter;"/>
   </g>
   <g id="patch_5">
    <path d="M 113.25375 368.74175 
L 559.65375 368.74175 
" style="fill:none;stroke:#000000;stroke-linecap:square;stroke-linejoin:miter;"/>
   </g>
   <g id="patch_6">
    <path d="M 113.25375 368.74175 
L 113.25375 23.14175 
" style="fill:none;stroke:#000000;stroke-linecap:square;stroke-linejoin:miter;"/>
   </g>
   <g id="matplotlib.axis_1">
    <g id="xtick_1">
     <g id="line2d_17">
      <defs>
       <path d="M 0 0 
L 0 -4 
" id="m1158198c1f" style="stroke:#000000;stroke-width:0.5;"/>
      </defs>
      <g>
       <use style="stroke:#000000;stroke-width:0.5;" x="113.25375" xlink:href="#m1158198c1f" y="368.74175"/>
      </g>
     </g>
     <g id="line2d_18">
      <defs>
       <path d="M 0 0 
L 0 4 
" id="m2d7dab5ec0" style="stroke:#000000;stroke-width:0.5;"/>
      </defs>
      <g>
       <use style="stroke:#000000;stroke-width:0.5;" x="113.25375" xlink:href="#m2d7dab5ec0" y="23.14175"/>
      </g>
     </g>
     <g id="text_1">
      <!-- 0 -->
      <defs>
       <path d="M 31.78125 66.40625 
Q 24.171875 66.40625 20.328125 58.90625 
Q 16.5 51.421875 16.5 36.375 
Q 16.5 21.390625 20.328125 13.890625 
Q 24.171875 6.390625 31.78125 6.390625 
Q 39.453125 6.390625 43.28125 13.890625 
Q 47.125 21.390625 47.125 36.375 
Q 47.125 51.421875 43.28125 58.90625 
Q 39.453125 66.40625 31.78125 66.40625 
M 31.78125 74.21875 
Q 44.046875 74.21875 50.515625 64.515625 
Q 56.984375 54.828125 56.984375 36.375 
Q 56.984375 17.96875 50.515625 8.265625 
Q 44.046875 -1.421875 31.78125 -1.421875 
Q 19.53125 -1.421875 13.0625 8.265625 
Q 6.59375 17.96875 6.59375 36.375 
Q 6.59375 54.828125 13.0625 64.515625 
Q 19.53125 74.21875 31.78125 74.21875 
" id="DejaVuSans-30"/>
      </defs>
      <g transform="translate(109.43625 381.859875)scale(0.12 -0.12)">
       <use xlink:href="#DejaVuSans-30"/>
      </g>
     </g>
    </g>
    <g id="xtick_2">
     <g id="line2d_19">
      <g>
       <use style="stroke:#000000;stroke-width:0.5;" x="187.65375" xlink:href="#m1158198c1f" y="368.74175"/>
      </g>
     </g>
     <g id="line2d_20">
      <g>
       <use style="stroke:#000000;stroke-width:0.5;" x="187.65375" xlink:href="#m2d7dab5ec0" y="23.14175"/>
      </g>
     </g>
     <g id="text_2">
      <!-- 5 -->
      <defs>
       <path d="M 10.796875 72.90625 
L 49.515625 72.90625 
L 49.515625 64.59375 
L 19.828125 64.59375 
L 19.828125 46.734375 
Q 21.96875 47.46875 24.109375 47.828125 
Q 26.265625 48.1875 28.421875 48.1875 
Q 40.625 48.1875 47.75 41.5 
Q 54.890625 34.8125 54.890625 23.390625 
Q 54.890625 11.625 47.5625 5.09375 
Q 40.234375 -1.421875 26.90625 -1.421875 
Q 22.3125 -1.421875 17.546875 -0.640625 
Q 12.796875 0.140625 7.71875 1.703125 
L 7.71875 11.625 
Q 12.109375 9.234375 16.796875 8.0625 
Q 21.484375 6.890625 26.703125 6.890625 
Q 35.15625 6.890625 40.078125 11.328125 
Q 45.015625 15.765625 45.015625 23.390625 
Q 45.015625 31 40.078125 35.4375 
Q 35.15625 39.890625 26.703125 39.890625 
Q 22.75 39.890625 18.8125 39.015625 
Q 14.890625 38.140625 10.796875 36.28125 
z
" id="DejaVuSans-35"/>
      </defs>
      <g transform="translate(183.83625 381.859875)scale(0.12 -0.12)">
       <use xlink:href="#DejaVuSans-35"/>
      </g>
     </g>
    </g>
    <g id="xtick_3">
     <g id="line2d_21">
      <g>
       <use style="stroke:#000000;stroke-width:0.5;" x="262.05375" xlink:href="#m1158198c1f" y="368.74175"/>
      </g>
     </g>
     <g id="line2d_22">
      <g>
       <use style="stroke:#000000;stroke-width:0.5;" x="262.05375" xlink:href="#m2d7dab5ec0" y="23.14175"/>
      </g>
     </g>
     <g id="text_3">
      <!-- 10 -->
      <defs>
       <path d="M 12.40625 8.296875 
L 28.515625 8.296875 
L 28.515625 63.921875 
L 10.984375 60.40625 
L 10.984375 69.390625 
L 28.421875 72.90625 
L 38.28125 72.90625 
L 38.28125 8.296875 
L 54.390625 8.296875 
L 54.390625 0 
L 12.40625 0 
z
" id="DejaVuSans-31"/>
      </defs>
      <g transform="translate(254.41875 381.859875)scale(0.12 -0.12)">
       <use xlink:href="#DejaVuSans-31"/>
       <use x="63.623046875" xlink:href="#DejaVuSans-30"/>
      </g>
     </g>
    </g>
    <g id="xtick_4">
     <g id="line2d_23">
      <g>
       <use style="stroke:#000000;stroke-width:0.5;" x="336.45375" xlink:href="#m1158198c1f" y="368.74175"/>
      </g>
     </g>
     <g id="line2d_24">
      <g>
       <use style="stroke:#000000;stroke-width:0.5;" x="336.45375" xlink:href="#m2d7dab5ec0" y="23.14175"/>
      </g>
     </g>
     <g id="text_4">
      <!-- 15 -->
      <g transform="translate(328.81875 381.859875)scale(0.12 -0.12)">
       <use xlink:href="#DejaVuSans-31"/>
       <use x="63.623046875" xlink:href="#DejaVuSans-35"/>
      </g>
     </g>
    </g>
    <g id="xtick_5">
     <g id="line2d_25">
      <g>
       <use style="stroke:#000000;stroke-width:0.5;" x="410.85375" xlink:href="#m1158198c1f" y="368.74175"/>
      </g>
     </g>
     <g id="line2d_26">
      <g>
       <use style="stroke:#000000;stroke-width:0.5;" x="410.85375" xlink:href="#m2d7dab5ec0" y="23.14175"/>
      </g>
     </g>
     <g id="text_5">
      <!-- 20 -->
      <defs>
       <path d="M 19.1875 8.296875 
L 53.609375 8.296875 
L 53.609375 0 
L 7.328125 0 
L 7.328125 8.296875 
Q 12.9375 14.109375 22.625 23.890625 
Q 32.328125 33.6875 34.8125 36.53125 
Q 39.546875 41.84375 41.421875 45.53125 
Q 43.3125 49.21875 43.3125 52.78125 
Q 43.3125 58.59375 39.234375 62.25 
Q 35.15625 65.921875 28.609375 65.921875 
Q 23.96875 65.921875 18.8125 64.3125 
Q 13.671875 62.703125 7.8125 59.421875 
L 7.8125 69.390625 
Q 13.765625 71.78125 18.9375 73 
Q 24.125 74.21875 28.421875 74.21875 
Q 39.75 74.21875 46.484375 68.546875 
Q 53.21875 62.890625 53.21875 53.421875 
Q 53.21875 48.921875 51.53125 44.890625 
Q 49.859375 40.875 45.40625 35.40625 
Q 44.1875 33.984375 37.640625 27.21875 
Q 31.109375 20.453125 19.1875 8.296875 
" id="DejaVuSans-32"/>
      </defs>
      <g transform="translate(403.21875 381.859875)scale(0.12 -0.12)">
       <use xlink:href="#DejaVuSans-32"/>
       <use x="63.623046875" xlink:href="#DejaVuSans-30"/>
      </g>
     </g>
    </g>
    <g id="xtick_6">
     <g id="line2d_27">
      <g>
       <use style="stroke:#000000;stroke-width:0.5;" x="485.25375" xlink:href="#m1158198c1f" y="368.74175"/>
      </g>
     </g>
     <g id="line2d_28">
      <g>
       <use style="stroke:#000000;stroke-width:0.5;" x="485.25375" xlink:href="#m2d7dab5ec0" y="23.14175"/>
      </g>
     </g>
     <g id="text_6">
      <!-- 25 -->
      <g transform="translate(477.61875 381.859875)scale(0.12 -0.12)">
       <use xlink:href="#DejaVuSans-32"/>
       <use x="63.623046875" xlink:href="#DejaVuSans-35"/>
      </g>
     </g>
    </g>
    <g id="xtick_7">
     <g id="line2d_29">
      <g>
       <use style="stroke:#000000;stroke-width:0.5;" x="559.65375" xlink:href="#m1158198c1f" y="368.74175"/>
      </g>
     </g>
     <g id="line2d_30">
      <g>
       <use style="stroke:#000000;stroke-width:0.5;" x="559.65375" xlink:href="#m2d7dab5ec0" y="23.14175"/>
      </g>
     </g>
     <g id="text_7">
      <!-- 30 -->
      <defs>
       <path d="M 40.578125 39.3125 
Q 47.65625 37.796875 51.625 33 
Q 55.609375 28.21875 55.609375 21.1875 
Q 55.609375 10.40625 48.1875 4.484375 
Q 40.765625 -1.421875 27.09375 -1.421875 
Q 22.515625 -1.421875 17.65625 -0.515625 
Q 12.796875 0.390625 7.625 2.203125 
L 7.625 11.71875 
Q 11.71875 9.328125 16.59375 8.109375 
Q 21.484375 6.890625 26.8125 6.890625 
Q 36.078125 6.890625 40.9375 10.546875 
Q 45.796875 14.203125 45.796875 21.1875 
Q 45.796875 27.640625 41.28125 31.265625 
Q 36.765625 34.90625 28.71875 34.90625 
L 20.21875 34.90625 
L 20.21875 43.015625 
L 29.109375 43.015625 
Q 36.375 43.015625 40.234375 45.921875 
Q 44.09375 48.828125 44.09375 54.296875 
Q 44.09375 59.90625 40.109375 62.90625 
Q 36.140625 65.921875 28.71875 65.921875 
Q 24.65625 65.921875 20.015625 65.03125 
Q 15.375 64.15625 9.8125 62.3125 
L 9.8125 71.09375 
Q 15.4375 72.65625 20.34375 73.4375 
Q 25.25 74.21875 29.59375 74.21875 
Q 40.828125 74.21875 47.359375 69.109375 
Q 53.90625 64.015625 53.90625 55.328125 
Q 53.90625 49.265625 50.4375 45.09375 
Q 46.96875 40.921875 40.578125 39.3125 
" id="DejaVuSans-33"/>
      </defs>
      <g transform="translate(552.01875 381.859875)scale(0.12 -0.12)">
       <use xlink:href="#DejaVuSans-33"/>
       <use x="63.623046875" xlink:href="#DejaVuSans-30"/>
      </g>
     </g>
    </g>
    <g id="text_8">
     <!-- time -->
     <defs>
      <path d="M 18.3125 70.21875 
L 18.3125 54.6875 
L 36.8125 54.6875 
L 36.8125 47.703125 
L 18.3125 47.703125 
L 18.3125 18.015625 
Q 18.3125 11.328125 20.140625 9.421875 
Q 21.96875 7.515625 27.59375 7.515625 
L 36.8125 7.515625 
L 36.8125 0 
L 27.59375 0 
Q 17.1875 0 13.234375 3.875 
Q 9.28125 7.765625 9.28125 18.015625 
L 9.28125 47.703125 
L 2.6875 47.703125 
L 2.6875 54.6875 
L 9.28125 54.6875 
L 9.28125 70.21875 
z
" id="DejaVuSans-74"/>
      <path d="M 52 44.1875 
Q 55.375 50.25 60.0625 53.125 
Q 64.75 56 71.09375 56 
Q 79.640625 56 84.28125 50.015625 
Q 88.921875 44.046875 88.921875 33.015625 
L 88.921875 0 
L 79.890625 0 
L 79.890625 32.71875 
Q 79.890625 40.578125 77.09375 44.375 
Q 74.3125 48.1875 68.609375 48.1875 
Q 61.625 48.1875 57.5625 43.546875 
Q 53.515625 38.921875 53.515625 30.90625 
L 53.515625 0 
L 44.484375 0 
L 44.484375 32.71875 
Q 44.484375 40.625 41.703125 44.40625 
Q 38.921875 48.1875 33.109375 48.1875 
Q 26.21875 48.1875 22.15625 43.53125 
Q 18.109375 38.875 18.109375 30.90625 
L 18.109375 0 
L 9.078125 0 
L 9.078125 54.6875 
L 18.109375 54.6875 
L 18.109375 46.1875 
Q 21.1875 51.21875 25.484375 53.609375 
Q 29.78125 56 35.6875 56 
Q 41.65625 56 45.828125 52.96875 
Q 50 49.953125 52 44.1875 
" id="DejaVuSans-6d"/>
      <path d="M 56.203125 29.59375 
L 56.203125 25.203125 
L 14.890625 25.203125 
Q 15.484375 15.921875 20.484375 11.0625 
Q 25.484375 6.203125 34.421875 6.203125 
Q 39.59375 6.203125 44.453125 7.46875 
Q 49.3125 8.734375 54.109375 11.28125 
L 54.109375 2.78125 
Q 49.265625 0.734375 44.1875 -0.34375 
Q 39.109375 -1.421875 33.890625 -1.421875 
Q 20.796875 -1.421875 13.15625 6.1875 
Q 5.515625 13.8125 5.515625 26.8125 
Q 5.515625 40.234375 12.765625 48.109375 
Q 20.015625 56 32.328125 56 
Q 43.359375 56 49.78125 48.890625 
Q 56.203125 41.796875 56.203125 29.59375 
M 47.21875 32.234375 
Q 47.125 39.59375 43.09375 43.984375 
Q 39.0625 48.390625 32.421875 48.390625 
Q 24.90625 48.390625 20.390625 44.140625 
Q 15.875 39.890625 15.1875 32.171875 
z
" id="DejaVuSans-65"/>
      <path d="M 9.421875 54.6875 
L 18.40625 54.6875 
L 18.40625 0 
L 9.421875 0 
z
M 9.421875 75.984375 
L 18.40625 75.984375 
L 18.40625 64.59375 
L 9.421875 64.59375 
z
" id="DejaVuSans-69"/>
     </defs>
     <g transform="translate(322.8984375 398.473625)scale(0.12 -0.12)">
      <use xlink:href="#DejaVuSans-74"/>
      <use x="39.208984375" xlink:href="#DejaVuSans-69"/>
      <use x="66.9921875" xlink:href="#DejaVuSans-6d"/>
      <use x="164.404296875" xlink:href="#DejaVuSans-65"/>
     </g>
    </g>
   </g>
   <g id="matplotlib.axis_2">
    <g id="ytick_1">
     <g id="line2d_31">
      <defs>
       <path d="M 0 0 
L 4 0 
" id="m482e14ed8c" style="stroke:#000000;stroke-width:0.5;"/>
      </defs>
      <g>
       <use style="stroke:#000000;stroke-width:0.5;" x="113.25375" xlink:href="#m482e14ed8c" y="368.74175"/>
      </g>
     </g>
     <g id="line2d_32">
      <defs>
       <path d="M 0 0 
L -4 0 
" id="m65a25fbb2e" style="stroke:#000000;stroke-width:0.5;"/>
      </defs>
      <g>
       <use style="stroke:#000000;stroke-width:0.5;" x="559.65375" xlink:href="#m65a25fbb2e" y="368.74175"/>
      </g>
     </g>
     <g id="text_9">
      <!-- 0 -->
      <g transform="translate(101.61875 372.053)scale(0.12 -0.12)">
       <use xlink:href="#DejaVuSans-30"/>
      </g>
     </g>
    </g>
    <g id="ytick_2">
     <g id="line2d_33">
      <g>
       <use style="stroke:#000000;stroke-width:0.5;" x="113.25375" xlink:href="#m482e14ed8c" y="311.14175"/>
      </g>
     </g>
     <g id="line2d_34">
      <g>
       <use style="stroke:#000000;stroke-width:0.5;" x="559.65375" xlink:href="#m65a25fbb2e" y="311.14175"/>
      </g>
     </g>
     <g id="text_10">
      <!-- 2000 -->
      <g transform="translate(78.71375 314.453)scale(0.12 -0.12)">
       <use xlink:href="#DejaVuSans-32"/>
       <use x="63.623046875" xlink:href="#DejaVuSans-30"/>
       <use x="127.24609375" xlink:href="#DejaVuSans-30"/>
       <use x="190.869140625" xlink:href="#DejaVuSans-30"/>
      </g>
     </g>
    </g>
    <g id="ytick_3">
     <g id="line2d_35">
      <g>
       <use style="stroke:#000000;stroke-width:0.5;" x="113.25375" xlink:href="#m482e14ed8c" y="253.54175"/>
      </g>
     </g>
     <g id="line2d_36">
      <g>
       <use style="stroke:#000000;stroke-width:0.5;" x="559.65375" xlink:href="#m65a25fbb2e" y="253.54175"/>
      </g>
     </g>
     <g id="text_11">
      <!-- 4000 -->
      <defs>
       <path d="M 37.796875 64.3125 
L 12.890625 25.390625 
L 37.796875 25.390625 
z
M 35.203125 72.90625 
L 47.609375 72.90625 
L 47.609375 25.390625 
L 58.015625 25.390625 
L 58.015625 17.1875 
L 47.609375 17.1875 
L 47.609375 0 
L 37.796875 0 
L 37.796875 17.1875 
L 4.890625 17.1875 
L 4.890625 26.703125 
z
" id="DejaVuSans-34"/>
      </defs>
      <g transform="translate(78.71375 256.853)scale(0.12 -0.12)">
       <use xlink:href="#DejaVuSans-34"/>
       <use x="63.623046875" xlink:href="#DejaVuSans-30"/>
       <use x="127.24609375" xlink:href="#DejaVuSans-30"/>
       <use x="190.869140625" xlink:href="#DejaVuSans-30"/>
      </g>
     </g>
    </g>
    <g id="ytick_4">
     <g id="line2d_37">
      <g>
       <use style="stroke:#000000;stroke-width:0.5;" x="113.25375" xlink:href="#m482e14ed8c" y="195.94175"/>
      </g>
     </g>
     <g id="line2d_38">
      <g>
       <use style="stroke:#000000;stroke-width:0.5;" x="559.65375" xlink:href="#m65a25fbb2e" y="195.94175"/>
      </g>
     </g>
     <g id="text_12">
      <!-- 6000 -->
      <defs>
       <path d="M 33.015625 40.375 
Q 26.375 40.375 22.484375 35.828125 
Q 18.609375 31.296875 18.609375 23.390625 
Q 18.609375 15.53125 22.484375 10.953125 
Q 26.375 6.390625 33.015625 6.390625 
Q 39.65625 6.390625 43.53125 10.953125 
Q 47.40625 15.53125 47.40625 23.390625 
Q 47.40625 31.296875 43.53125 35.828125 
Q 39.65625 40.375 33.015625 40.375 
M 52.59375 71.296875 
L 52.59375 62.3125 
Q 48.875 64.0625 45.09375 64.984375 
Q 41.3125 65.921875 37.59375 65.921875 
Q 27.828125 65.921875 22.671875 59.328125 
Q 17.53125 52.734375 16.796875 39.40625 
Q 19.671875 43.65625 24.015625 45.921875 
Q 28.375 48.1875 33.59375 48.1875 
Q 44.578125 48.1875 50.953125 41.515625 
Q 57.328125 34.859375 57.328125 23.390625 
Q 57.328125 12.15625 50.6875 5.359375 
Q 44.046875 -1.421875 33.015625 -1.421875 
Q 20.359375 -1.421875 13.671875 8.265625 
Q 6.984375 17.96875 6.984375 36.375 
Q 6.984375 53.65625 15.1875 63.9375 
Q 23.390625 74.21875 37.203125 74.21875 
Q 40.921875 74.21875 44.703125 73.484375 
Q 48.484375 72.75 52.59375 71.296875 
" id="DejaVuSans-36"/>
      </defs>
      <g transform="translate(78.71375 199.253)scale(0.12 -0.12)">
       <use xlink:href="#DejaVuSans-36"/>
       <use x="63.623046875" xlink:href="#DejaVuSans-30"/>
       <use x="127.24609375" xlink:href="#DejaVuSans-30"/>
       <use x="190.869140625" xlink:href="#DejaVuSans-30"/>
      </g>
     </g>
    </g>
    <g id="ytick_5">
     <g id="line2d_39">
      <g>
       <use style="stroke:#000000;stroke-width:0.5;" x="113.25375" xlink:href="#m482e14ed8c" y="138.34175"/>
      </g>
     </g>
     <g id="line2d_40">
      <g>
       <use style="stroke:#000000;stroke-width:0.5;" x="559.65375" xlink:href="#m65a25fbb2e" y="138.34175"/>
      </g>
     </g>
     <g id="text_13">
      <!-- 8000 -->
      <defs>
       <path d="M 31.78125 34.625 
Q 24.75 34.625 20.71875 30.859375 
Q 16.703125 27.09375 16.703125 20.515625 
Q 16.703125 13.921875 20.71875 10.15625 
Q 24.75 6.390625 31.78125 6.390625 
Q 38.8125 6.390625 42.859375 10.171875 
Q 46.921875 13.96875 46.921875 20.515625 
Q 46.921875 27.09375 42.890625 30.859375 
Q 38.875 34.625 31.78125 34.625 
M 21.921875 38.8125 
Q 15.578125 40.375 12.03125 44.71875 
Q 8.5 49.078125 8.5 55.328125 
Q 8.5 64.0625 14.71875 69.140625 
Q 20.953125 74.21875 31.78125 74.21875 
Q 42.671875 74.21875 48.875 69.140625 
Q 55.078125 64.0625 55.078125 55.328125 
Q 55.078125 49.078125 51.53125 44.71875 
Q 48 40.375 41.703125 38.8125 
Q 48.828125 37.15625 52.796875 32.3125 
Q 56.78125 27.484375 56.78125 20.515625 
Q 56.78125 9.90625 50.3125 4.234375 
Q 43.84375 -1.421875 31.78125 -1.421875 
Q 19.734375 -1.421875 13.25 4.234375 
Q 6.78125 9.90625 6.78125 20.515625 
Q 6.78125 27.484375 10.78125 32.3125 
Q 14.796875 37.15625 21.921875 38.8125 
M 18.3125 54.390625 
Q 18.3125 48.734375 21.84375 45.5625 
Q 25.390625 42.390625 31.78125 42.390625 
Q 38.140625 42.390625 41.71875 45.5625 
Q 45.3125 48.734375 45.3125 54.390625 
Q 45.3125 60.0625 41.71875 63.234375 
Q 38.140625 66.40625 31.78125 66.40625 
Q 25.390625 66.40625 21.84375 63.234375 
Q 18.3125 60.0625 18.3125 54.390625 
" id="DejaVuSans-38"/>
      </defs>
      <g transform="translate(78.71375 141.653)scale(0.12 -0.12)">
       <use xlink:href="#DejaVuSans-38"/>
       <use x="63.623046875" xlink:href="#DejaVuSans-30"/>
       <use x="127.24609375" xlink:href="#DejaVuSans-30"/>
       <use x="190.869140625" xlink:href="#DejaVuSans-30"/>
      </g>
     </g>
    </g>
    <g id="ytick_6">
     <g id="line2d_41">
      <g>
       <use style="stroke:#000000;stroke-width:0.5;" x="113.25375" xlink:href="#m482e14ed8c" y="80.74175"/>
      </g>
     </g>
     <g id="line2d_42">
      <g>
       <use style="stroke:#000000;stroke-width:0.5;" x="559.65375" xlink:href="#m65a25fbb2e" y="80.74175"/>
      </g>
     </g>
     <g id="text_14">
      <!-- 10000 -->
      <g transform="translate(71.07875 84.053)scale(0.12 -0.12)">
       <use xlink:href="#DejaVuSans-31"/>
       <use x="63.623046875" xlink:href="#DejaVuSans-30"/>
       <use x="127.24609375" xlink:href="#DejaVuSans-30"/>
       <use x="190.869140625" xlink:href="#DejaVuSans-30"/>
       <use x="254.4921875" xlink:href="#DejaVuSans-30"/>
      </g>
     </g>
    </g>
    <g id="ytick_7">
     <g id="line2d_43">
      <g>
       <use style="stroke:#000000;stroke-width:0.5;" x="113.25375" xlink:href="#m482e14ed8c" y="23.14175"/>
      </g>
     </g>
     <g id="line2d_44">
      <g>
       <use style="stroke:#000000;stroke-width:0.5;" x="559.65375" xlink:href="#m65a25fbb2e" y="23.14175"/>
      </g>
     </g>
     <g id="text_15">
      <!-- 12000 -->
      <g transform="translate(71.07875 26.453)scale(0.12 -0.12)">
       <use xlink:href="#DejaVuSans-31"/>
       <use x="63.623046875" xlink:href="#DejaVuSans-32"/>
       <use x="127.24609375" xlink:href="#DejaVuSans-30"/>
       <use x="190.869140625" xlink:href="#DejaVuSans-30"/>
       <use x="254.4921875" xlink:href="#DejaVuSans-30"/>
      </g>
     </g>
    </g>
   </g>
   <g id="text_16">
    <!-- /runtime/count/remote_action_invocation@performance_counter_get_counter_value_action -->
    <defs>
     <path d="M 2.984375 54.6875 
L 12.5 54.6875 
L 29.59375 8.796875 
L 46.6875 54.6875 
L 56.203125 54.6875 
L 35.6875 0 
L 23.484375 0 
z
" id="DejaVuSans-76"/>
     <path d="M 25.390625 72.90625 
L 33.6875 72.90625 
L 8.296875 -9.28125 
L 0 -9.28125 
z
" id="DejaVuSans-2f"/>
     <path d="M 30.609375 48.390625 
Q 23.390625 48.390625 19.1875 42.75 
Q 14.984375 37.109375 14.984375 27.296875 
Q 14.984375 17.484375 19.15625 11.84375 
Q 23.34375 6.203125 30.609375 6.203125 
Q 37.796875 6.203125 41.984375 11.859375 
Q 46.1875 17.53125 46.1875 27.296875 
Q 46.1875 37.015625 41.984375 42.703125 
Q 37.796875 48.390625 30.609375 48.390625 
M 30.609375 56 
Q 42.328125 56 49.015625 48.375 
Q 55.71875 40.765625 55.71875 27.296875 
Q 55.71875 13.875 49.015625 6.21875 
Q 42.328125 -1.421875 30.609375 -1.421875 
Q 18.84375 -1.421875 12.171875 6.21875 
Q 5.515625 13.875 5.515625 27.296875 
Q 5.515625 40.765625 12.171875 48.375 
Q 18.84375 56 30.609375 56 
" id="DejaVuSans-6f"/>
     <path d="M 54.890625 33.015625 
L 54.890625 0 
L 45.90625 0 
L 45.90625 32.71875 
Q 45.90625 40.484375 42.875 44.328125 
Q 39.84375 48.1875 33.796875 48.1875 
Q 26.515625 48.1875 22.3125 43.546875 
Q 18.109375 38.921875 18.109375 30.90625 
L 18.109375 0 
L 9.078125 0 
L 9.078125 54.6875 
L 18.109375 54.6875 
L 18.109375 46.1875 
Q 21.34375 51.125 25.703125 53.5625 
Q 30.078125 56 35.796875 56 
Q 45.21875 56 50.046875 50.171875 
Q 54.890625 44.34375 54.890625 33.015625 
" id="DejaVuSans-6e"/>
     <path d="M 50.984375 -16.609375 
L 50.984375 -23.578125 
L -0.984375 -23.578125 
L -0.984375 -16.609375 
z
" id="DejaVuSans-5f"/>
     <path d="M 18.109375 8.203125 
L 18.109375 -20.796875 
L 9.078125 -20.796875 
L 9.078125 54.6875 
L 18.109375 54.6875 
L 18.109375 46.390625 
Q 20.953125 51.265625 25.265625 53.625 
Q 29.59375 56 35.59375 56 
Q 45.5625 56 51.78125 48.09375 
Q 58.015625 40.1875 58.015625 27.296875 
Q 58.015625 14.40625 51.78125 6.484375 
Q 45.5625 -1.421875 35.59375 -1.421875 
Q 29.59375 -1.421875 25.265625 0.953125 
Q 20.953125 3.328125 18.109375 8.203125 
M 48.6875 27.296875 
Q 48.6875 37.203125 44.609375 42.84375 
Q 40.53125 48.484375 33.40625 48.484375 
Q 26.265625 48.484375 22.1875 42.84375 
Q 18.109375 37.203125 18.109375 27.296875 
Q 18.109375 17.390625 22.1875 11.75 
Q 26.265625 6.109375 33.40625 6.109375 
Q 40.53125 6.109375 44.609375 11.75 
Q 48.6875 17.390625 48.6875 27.296875 
" id="DejaVuSans-70"/>
     <path d="M 37.109375 75.984375 
L 37.109375 68.5 
L 28.515625 68.5 
Q 23.6875 68.5 21.796875 66.546875 
Q 19.921875 64.59375 19.921875 59.515625 
L 19.921875 54.6875 
L 34.71875 54.6875 
L 34.71875 47.703125 
L 19.921875 47.703125 
L 19.921875 0 
L 10.890625 0 
L 10.890625 47.703125 
L 2.296875 47.703125 
L 2.296875 54.6875 
L 10.890625 54.6875 
L 10.890625 58.5 
Q 10.890625 67.625 15.140625 71.796875 
Q 19.390625 75.984375 28.609375 75.984375 
z
" id="DejaVuSans-66"/>
     <path d="M 9.421875 75.984375 
L 18.40625 75.984375 
L 18.40625 0 
L 9.421875 0 
z
" id="DejaVuSans-6c"/>
     <path d="M 37.203125 26.21875 
Q 37.203125 19.234375 40.671875 15.25 
Q 44.140625 11.28125 50.203125 11.28125 
Q 56.203125 11.28125 59.640625 15.28125 
Q 63.09375 19.28125 63.09375 26.21875 
Q 63.09375 33.0625 59.578125 37.078125 
Q 56.0625 41.109375 50.09375 41.109375 
Q 44.1875 41.109375 40.6875 37.109375 
Q 37.203125 33.109375 37.203125 26.21875 
M 63.8125 11.625 
Q 60.890625 7.859375 57.109375 6.078125 
Q 53.328125 4.296875 48.296875 4.296875 
Q 39.890625 4.296875 34.640625 10.375 
Q 29.390625 16.453125 29.390625 26.21875 
Q 29.390625 35.984375 34.65625 42.078125 
Q 39.9375 48.1875 48.296875 48.1875 
Q 53.328125 48.1875 57.125 46.359375 
Q 60.9375 44.53125 63.8125 40.828125 
L 63.8125 47.21875 
L 70.796875 47.21875 
L 70.796875 11.28125 
Q 77.9375 12.359375 81.953125 17.796875 
Q 85.984375 23.25 85.984375 31.890625 
Q 85.984375 37.109375 84.4375 41.703125 
Q 82.90625 46.296875 79.78125 50.203125 
Q 74.703125 56.59375 67.40625 59.984375 
Q 60.109375 63.375 51.515625 63.375 
Q 45.515625 63.375 39.984375 61.78125 
Q 34.46875 60.203125 29.78125 57.078125 
Q 22.125 52.09375 17.796875 44.015625 
Q 13.484375 35.9375 13.484375 26.515625 
Q 13.484375 18.75 16.28125 11.953125 
Q 19.09375 5.171875 24.421875 0 
Q 29.546875 -5.078125 36.28125 -7.734375 
Q 43.015625 -10.40625 50.6875 -10.40625 
Q 56.984375 -10.40625 63.0625 -8.28125 
Q 69.140625 -6.15625 74.21875 -2.203125 
L 78.609375 -7.625 
Q 72.515625 -12.359375 65.3125 -14.875 
Q 58.109375 -17.390625 50.6875 -17.390625 
Q 41.65625 -17.390625 33.640625 -14.1875 
Q 25.640625 -10.984375 19.390625 -4.890625 
Q 13.140625 1.21875 9.859375 9.25 
Q 6.59375 17.28125 6.59375 26.515625 
Q 6.59375 35.40625 9.90625 43.453125 
Q 13.234375 51.515625 19.390625 57.625 
Q 25.6875 63.8125 33.9375 67.109375 
Q 42.1875 70.40625 51.421875 70.40625 
Q 61.765625 70.40625 70.625 66.15625 
Q 79.5 61.921875 85.5 54.109375 
Q 89.15625 49.3125 91.078125 43.703125 
Q 93.015625 38.09375 93.015625 32.078125 
Q 93.015625 19.234375 85.25 11.8125 
Q 77.484375 4.390625 63.8125 4.109375 
z
" id="DejaVuSans-40"/>
     <path d="M 8.5 21.578125 
L 8.5 54.6875 
L 17.484375 54.6875 
L 17.484375 21.921875 
Q 17.484375 14.15625 20.5 10.265625 
Q 23.53125 6.390625 29.59375 6.390625 
Q 36.859375 6.390625 41.078125 11.03125 
Q 45.3125 15.671875 45.3125 23.6875 
L 45.3125 54.6875 
L 54.296875 54.6875 
L 54.296875 0 
L 45.3125 0 
L 45.3125 8.40625 
Q 42.046875 3.421875 37.71875 1 
Q 33.40625 -1.421875 27.6875 -1.421875 
Q 18.265625 -1.421875 13.375 4.4375 
Q 8.5 10.296875 8.5 21.578125 
M 31.109375 56 
z
" id="DejaVuSans-75"/>
     <path d="M 45.40625 27.984375 
Q 45.40625 37.75 41.375 43.109375 
Q 37.359375 48.484375 30.078125 48.484375 
Q 22.859375 48.484375 18.828125 43.109375 
Q 14.796875 37.75 14.796875 27.984375 
Q 14.796875 18.265625 18.828125 12.890625 
Q 22.859375 7.515625 30.078125 7.515625 
Q 37.359375 7.515625 41.375 12.890625 
Q 45.40625 18.265625 45.40625 27.984375 
M 54.390625 6.78125 
Q 54.390625 -7.171875 48.1875 -13.984375 
Q 42 -20.796875 29.203125 -20.796875 
Q 24.46875 -20.796875 20.265625 -20.09375 
Q 16.0625 -19.390625 12.109375 -17.921875 
L 12.109375 -9.1875 
Q 16.0625 -11.328125 19.921875 -12.34375 
Q 23.78125 -13.375 27.78125 -13.375 
Q 36.625 -13.375 41.015625 -8.765625 
Q 45.40625 -4.15625 45.40625 5.171875 
L 45.40625 9.625 
Q 42.625 4.78125 38.28125 2.390625 
Q 33.9375 0 27.875 0 
Q 17.828125 0 11.671875 7.65625 
Q 5.515625 15.328125 5.515625 27.984375 
Q 5.515625 40.671875 11.671875 48.328125 
Q 17.828125 56 27.875 56 
Q 33.9375 56 38.28125 53.609375 
Q 42.625 51.21875 45.40625 46.390625 
L 45.40625 54.6875 
L 54.390625 54.6875 
z
" id="DejaVuSans-67"/>
     <path d="M 34.28125 27.484375 
Q 23.390625 27.484375 19.1875 25 
Q 14.984375 22.515625 14.984375 16.5 
Q 14.984375 11.71875 18.140625 8.90625 
Q 21.296875 6.109375 26.703125 6.109375 
Q 34.1875 6.109375 38.703125 11.40625 
Q 43.21875 16.703125 43.21875 25.484375 
L 43.21875 27.484375 
z
M 52.203125 31.203125 
L 52.203125 0 
L 43.21875 0 
L 43.21875 8.296875 
Q 40.140625 3.328125 35.546875 0.953125 
Q 30.953125 -1.421875 24.3125 -1.421875 
Q 15.921875 -1.421875 10.953125 3.296875 
Q 6 8.015625 6 15.921875 
Q 6 25.140625 12.171875 29.828125 
Q 18.359375 34.515625 30.609375 34.515625 
L 43.21875 34.515625 
L 43.21875 35.40625 
Q 43.21875 41.609375 39.140625 45 
Q 35.0625 48.390625 27.6875 48.390625 
Q 23 48.390625 18.546875 47.265625 
Q 14.109375 46.140625 10.015625 43.890625 
L 10.015625 52.203125 
Q 14.9375 54.109375 19.578125 55.046875 
Q 24.21875 56 28.609375 56 
Q 40.484375 56 46.34375 49.84375 
Q 52.203125 43.703125 52.203125 31.203125 
" id="DejaVuSans-61"/>
     <path d="M 48.78125 52.59375 
L 48.78125 44.1875 
Q 44.96875 46.296875 41.140625 47.34375 
Q 37.3125 48.390625 33.40625 48.390625 
Q 24.65625 48.390625 19.8125 42.84375 
Q 14.984375 37.3125 14.984375 27.296875 
Q 14.984375 17.28125 19.8125 11.734375 
Q 24.65625 6.203125 33.40625 6.203125 
Q 37.3125 6.203125 41.140625 7.25 
Q 44.96875 8.296875 48.78125 10.40625 
L 48.78125 2.09375 
Q 45.015625 0.34375 40.984375 -0.53125 
Q 36.96875 -1.421875 32.421875 -1.421875 
Q 20.0625 -1.421875 12.78125 6.34375 
Q 5.515625 14.109375 5.515625 27.296875 
Q 5.515625 40.671875 12.859375 48.328125 
Q 20.21875 56 33.015625 56 
Q 37.15625 56 41.109375 55.140625 
Q 45.0625 54.296875 48.78125 52.59375 
" id="DejaVuSans-63"/>
     <path d="M 41.109375 46.296875 
Q 39.59375 47.171875 37.8125 47.578125 
Q 36.03125 48 33.890625 48 
Q 26.265625 48 22.1875 43.046875 
Q 18.109375 38.09375 18.109375 28.8125 
L 18.109375 0 
L 9.078125 0 
L 9.078125 54.6875 
L 18.109375 54.6875 
L 18.109375 46.1875 
Q 20.953125 51.171875 25.484375 53.578125 
Q 30.03125 56 36.53125 56 
Q 37.453125 56 38.578125 55.875 
Q 39.703125 55.765625 41.0625 55.515625 
z
" id="DejaVuSans-72"/>
    </defs>
    <g transform="translate(7.2 18.14175)scale(0.144 -0.144)">
     <use xlink:href="#DejaVuSans-2f"/>
     <use x="33.69140625" xlink:href="#DejaVuSans-72"/>
     <use x="74.8046875" xlink:href="#DejaVuSans-75"/>
     <use x="138.18359375" xlink:href="#DejaVuSans-6e"/>
     <use x="201.5625" xlink:href="#DejaVuSans-74"/>
     <use x="240.771484375" xlink:href="#DejaVuSans-69"/>
     <use x="268.5546875" xlink:href="#DejaVuSans-6d"/>
     <use x="365.966796875" xlink:href="#DejaVuSans-65"/>
     <use x="427.490234375" xlink:href="#DejaVuSans-2f"/>
     <use x="461.181640625" xlink:href="#DejaVuSans-63"/>
     <use x="516.162109375" xlink:href="#DejaVuSans-6f"/>
     <use x="577.34375" xlink:href="#DejaVuSans-75"/>
     <use x="640.72265625" xlink:href="#DejaVuSans-6e"/>
     <use x="704.1015625" xlink:href="#DejaVuSans-74"/>
     <use x="743.310546875" xlink:href="#DejaVuSans-2f"/>
     <use x="777.001953125" xlink:href="#DejaVuSans-72"/>
     <use x="818.083984375" xlink:href="#DejaVuSans-65"/>
     <use x="879.607421875" xlink:href="#DejaVuSans-6d"/>
     <use x="977.01953125" xlink:href="#DejaVuSans-6f"/>
     <use x="1038.20117188" xlink:href="#DejaVuSans-74"/>
     <use x="1077.41015625" xlink:href="#DejaVuSans-65"/>
     <use x="1138.93359375" xlink:href="#DejaVuSans-5f"/>
     <use x="1188.93359375" xlink:href="#DejaVuSans-61"/>
     <use x="1250.21289062" xlink:href="#DejaVuSans-63"/>
     <use x="1305.19335938" xlink:href="#DejaVuSans-74"/>
     <use x="1344.40234375" xlink:href="#DejaVuSans-69"/>
     <use x="1372.18554688" xlink:href="#DejaVuSans-6f"/>
     <use x="1433.3671875" xlink:href="#DejaVuSans-6e"/>
     <use x="1496.74609375" xlink:href="#DejaVuSans-5f"/>
     <use x="1546.74609375" xlink:href="#DejaVuSans-69"/>
     <use x="1574.52929688" xlink:href="#DejaVuSans-6e"/>
     <use x="1637.90820312" xlink:href="#DejaVuSans-76"/>
     <use x="1697.08789062" xlink:href="#DejaVuSans-6f"/>
     <use x="1758.26953125" xlink:href="#DejaVuSans-63"/>
     <use x="1813.25" xlink:href="#DejaVuSans-61"/>
     <use x="1874.52929688" xlink:href="#DejaVuSans-74"/>
     <use x="1913.73828125" xlink:href="#DejaVuSans-69"/>
     <use x="1941.52148438" xlink:href="#DejaVuSans-6f"/>
     <use x="2002.703125" xlink:href="#DejaVuSans-6e"/>
     <use x="2066.08203125" xlink:href="#DejaVuSans-40"/>
     <use x="2166.08203125" xlink:href="#DejaVuSans-70"/>
     <use x="2229.55859375" xlink:href="#DejaVuSans-65"/>
     <use x="2291.08203125" xlink:href="#DejaVuSans-72"/>
     <use x="2332.1953125" xlink:href="#DejaVuSans-66"/>
     <use x="2367.40039062" xlink:href="#DejaVuSans-6f"/>
     <use x="2428.58203125" xlink:href="#DejaVuSans-72"/>
     <use x="2469.6796875" xlink:href="#DejaVuSans-6d"/>
     <use x="2567.09179688" xlink:href="#DejaVuSans-61"/>
     <use x="2628.37109375" xlink:href="#DejaVuSans-6e"/>
     <use x="2691.75" xlink:href="#DejaVuSans-63"/>
     <use x="2746.73046875" xlink:href="#DejaVuSans-65"/>
     <use x="2808.25390625" xlink:href="#DejaVuSans-5f"/>
     <use x="2858.25390625" xlink:href="#DejaVuSans-63"/>
     <use x="2913.234375" xlink:href="#DejaVuSans-6f"/>
     <use x="2974.41601562" xlink:href="#DejaVuSans-75"/>
     <use x="3037.79492188" xlink:href="#DejaVuSans-6e"/>
     <use x="3101.17382812" xlink:href="#DejaVuSans-74"/>
     <use x="3140.3828125" xlink:href="#DejaVuSans-65"/>
     <use x="3201.90625" xlink:href="#DejaVuSans-72"/>
     <use x="3243.01953125" xlink:href="#DejaVuSans-5f"/>
     <use x="3293.01953125" xlink:href="#DejaVuSans-67"/>
     <use x="3356.49609375" xlink:href="#DejaVuSans-65"/>
     <use x="3418.01953125" xlink:href="#DejaVuSans-74"/>
     <use x="3457.22851562" xlink:href="#DejaVuSans-5f"/>
     <use x="3507.22851562" xlink:href="#DejaVuSans-63"/>
     <use x="3562.20898438" xlink:href="#DejaVuSans-6f"/>
     <use x="3623.390625" xlink:href="#DejaVuSans-75"/>
     <use x="3686.76953125" xlink:href="#DejaVuSans-6e"/>
     <use x="3750.1484375" xlink:href="#DejaVuSans-74"/>
     <use x="3789.35742188" xlink:href="#DejaVuSans-65"/>
     <use x="3850.88085938" xlink:href="#DejaVuSans-72"/>
     <use x="3891.99414062" xlink:href="#DejaVuSans-5f"/>
     <use x="3941.99414062" xlink:href="#DejaVuSans-76"/>
     <use x="4001.17382812" xlink:href="#DejaVuSans-61"/>
     <use x="4062.453125" xlink:href="#DejaVuSans-6c"/>
     <use x="4090.23632812" xlink:href="#DejaVuSans-75"/>
     <use x="4153.61523438" xlink:href="#DejaVuSans-65"/>
     <use x="4215.13867188" xlink:href="#DejaVuSans-5f"/>
     <use x="4265.13867188" xlink:href="#DejaVuSans-61"/>
     <use x="4326.41796875" xlink:href="#DejaVuSans-63"/>
     <use x="4381.3984375" xlink:href="#DejaVuSans-74"/>
     <use x="4420.60742188" xlink:href="#DejaVuSans-69"/>
     <use x="4448.390625" xlink:href="#DejaVuSans-6f"/>
     <use x="4509.57226562" xlink:href="#DejaVuSans-6e"/>
    </g>
   </g>
   <g id="legend_1">
    <g id="patch_7">
     <path d="M 566.85375 367.19375 
L 700.8075 367.19375 
L 700.8075 24.68975 
L 566.85375 24.68975 
z
" style="fill:#ffffff;stroke:#000000;stroke-linejoin:miter;"/>
    </g>
    <g id="line2d_45">
     <path d="M 576.93375 36.3515 
L 597.09375 36.3515 
" style="fill:none;stroke:#0000ff;stroke-linecap:square;"/>
    </g>
    <g id="line2d_46"/>
    <g id="text_17">
     <!-- locality#0 -->
     <defs>
      <path d="M 51.125 44 
L 36.921875 44 
L 32.8125 27.6875 
L 47.125 27.6875 
z
M 43.796875 71.78125 
L 38.71875 51.515625 
L 52.984375 51.515625 
L 58.109375 71.78125 
L 65.921875 71.78125 
L 60.890625 51.515625 
L 76.125 51.515625 
L 76.125 44 
L 58.984375 44 
L 54.984375 27.6875 
L 70.515625 27.6875 
L 70.515625 20.21875 
L 53.078125 20.21875 
L 48 0 
L 40.1875 0 
L 45.21875 20.21875 
L 30.90625 20.21875 
L 25.875 0 
L 18.015625 0 
L 23.09375 20.21875 
L 7.71875 20.21875 
L 7.71875 27.6875 
L 24.90625 27.6875 
L 29 44 
L 13.28125 44 
L 13.28125 51.515625 
L 30.90625 51.515625 
L 35.890625 71.78125 
z
" id="DejaVuSans-23"/>
      <path d="M 32.171875 -5.078125 
Q 28.375 -14.84375 24.75 -17.8125 
Q 21.140625 -20.796875 15.09375 -20.796875 
L 7.90625 -20.796875 
L 7.90625 -13.28125 
L 13.1875 -13.28125 
Q 16.890625 -13.28125 18.9375 -11.515625 
Q 21 -9.765625 23.484375 -3.21875 
L 25.09375 0.875 
L 2.984375 54.6875 
L 12.5 54.6875 
L 29.59375 11.921875 
L 46.6875 54.6875 
L 56.203125 54.6875 
z
" id="DejaVuSans-79"/>
     </defs>
     <g transform="translate(612.93375 41.3915)scale(0.144 -0.144)">
      <use xlink:href="#DejaVuSans-6c"/>
      <use x="27.783203125" xlink:href="#DejaVuSans-6f"/>
      <use x="88.96484375" xlink:href="#DejaVuSans-63"/>
      <use x="143.9453125" xlink:href="#DejaVuSans-61"/>
      <use x="205.224609375" xlink:href="#DejaVuSans-6c"/>
      <use x="233.0078125" xlink:href="#DejaVuSans-69"/>
      <use x="260.791015625" xlink:href="#DejaVuSans-74"/>
      <use x="300.0" xlink:href="#DejaVuSans-79"/>
      <use x="359.1796875" xlink:href="#DejaVuSans-23"/>
      <use x="442.96875" xlink:href="#DejaVuSans-30"/>
     </g>
    </g>
    <g id="line2d_47">
     <path d="M 576.93375 57.488 
L 597.09375 57.488 
" style="fill:none;stroke:#008000;stroke-linecap:square;"/>
    </g>
    <g id="line2d_48"/>
    <g id="text_18">
     <!-- locality#1 -->
     <g transform="translate(612.93375 62.528)scale(0.144 -0.144)">
      <use xlink:href="#DejaVuSans-6c"/>
      <use x="27.783203125" xlink:href="#DejaVuSans-6f"/>
      <use x="88.96484375" xlink:href="#DejaVuSans-63"/>
      <use x="143.9453125" xlink:href="#DejaVuSans-61"/>
      <use x="205.224609375" xlink:href="#DejaVuSans-6c"/>
      <use x="233.0078125" xlink:href="#DejaVuSans-69"/>
      <use x="260.791015625" xlink:href="#DejaVuSans-74"/>
      <use x="300.0" xlink:href="#DejaVuSans-79"/>
      <use x="359.1796875" xlink:href="#DejaVuSans-23"/>
      <use x="442.96875" xlink:href="#DejaVuSans-31"/>
     </g>
    </g>
    <g id="line2d_49">
     <path d="M 576.93375 78.6245 
L 597.09375 78.6245 
" style="fill:none;stroke:#ff0000;stroke-linecap:square;"/>
    </g>
    <g id="line2d_50"/>
    <g id="text_19">
     <!-- locality#10 -->
     <g transform="translate(612.93375 83.6645)scale(0.144 -0.144)">
      <use xlink:href="#DejaVuSans-6c"/>
      <use x="27.783203125" xlink:href="#DejaVuSans-6f"/>
      <use x="88.96484375" xlink:href="#DejaVuSans-63"/>
      <use x="143.9453125" xlink:href="#DejaVuSans-61"/>
      <use x="205.224609375" xlink:href="#DejaVuSans-6c"/>
      <use x="233.0078125" xlink:href="#DejaVuSans-69"/>
      <use x="260.791015625" xlink:href="#DejaVuSans-74"/>
      <use x="300.0" xlink:href="#DejaVuSans-79"/>
      <use x="359.1796875" xlink:href="#DejaVuSans-23"/>
      <use x="442.96875" xlink:href="#DejaVuSans-31"/>
      <use x="506.591796875" xlink:href="#DejaVuSans-30"/>
     </g>
    </g>
    <g id="line2d_51">
     <path d="M 576.93375 99.761 
L 597.09375 99.761 
" style="fill:none;stroke:#00bfbf;stroke-linecap:square;"/>
    </g>
    <g id="line2d_52"/>
    <g id="text_20">
     <!-- locality#11 -->
     <g transform="translate(612.93375 104.801)scale(0.144 -0.144)">
      <use xlink:href="#DejaVuSans-6c"/>
      <use x="27.783203125" xlink:href="#DejaVuSans-6f"/>
      <use x="88.96484375" xlink:href="#DejaVuSans-63"/>
      <use x="143.9453125" xlink:href="#DejaVuSans-61"/>
      <use x="205.224609375" xlink:href="#DejaVuSans-6c"/>
      <use x="233.0078125" xlink:href="#DejaVuSans-69"/>
      <use x="260.791015625" xlink:href="#DejaVuSans-74"/>
      <use x="300.0" xlink:href="#DejaVuSans-79"/>
      <use x="359.1796875" xlink:href="#DejaVuSans-23"/>
      <use x="442.96875" xlink:href="#DejaVuSans-31"/>
      <use x="506.591796875" xlink:href="#DejaVuSans-31"/>
     </g>
    </g>
    <g id="line2d_53">
     <path d="M 576.93375 120.8975 
L 597.09375 120.8975 
" style="fill:none;stroke:#bf00bf;stroke-linecap:square;"/>
    </g>
    <g id="line2d_54"/>
    <g id="text_21">
     <!-- locality#12 -->
     <g transform="translate(612.93375 125.9375)scale(0.144 -0.144)">
      <use xlink:href="#DejaVuSans-6c"/>
      <use x="27.783203125" xlink:href="#DejaVuSans-6f"/>
      <use x="88.96484375" xlink:href="#DejaVuSans-63"/>
      <use x="143.9453125" xlink:href="#DejaVuSans-61"/>
      <use x="205.224609375" xlink:href="#DejaVuSans-6c"/>
      <use x="233.0078125" xlink:href="#DejaVuSans-69"/>
      <use x="260.791015625" xlink:href="#DejaVuSans-74"/>
      <use x="300.0" xlink:href="#DejaVuSans-79"/>
      <use x="359.1796875" xlink:href="#DejaVuSans-23"/>
      <use x="442.96875" xlink:href="#DejaVuSans-31"/>
      <use x="506.591796875" xlink:href="#DejaVuSans-32"/>
     </g>
    </g>
    <g id="line2d_55">
     <path d="M 576.93375 142.034 
L 597.09375 142.034 
" style="fill:none;stroke:#bfbf00;stroke-linecap:square;"/>
    </g>
    <g id="line2d_56"/>
    <g id="text_22">
     <!-- locality#13 -->
     <g transform="translate(612.93375 147.074)scale(0.144 -0.144)">
      <use xlink:href="#DejaVuSans-6c"/>
      <use x="27.783203125" xlink:href="#DejaVuSans-6f"/>
      <use x="88.96484375" xlink:href="#DejaVuSans-63"/>
      <use x="143.9453125" xlink:href="#DejaVuSans-61"/>
      <use x="205.224609375" xlink:href="#DejaVuSans-6c"/>
      <use x="233.0078125" xlink:href="#DejaVuSans-69"/>
      <use x="260.791015625" xlink:href="#DejaVuSans-74"/>
      <use x="300.0" xlink:href="#DejaVuSans-79"/>
      <use x="359.1796875" xlink:href="#DejaVuSans-23"/>
      <use x="442.96875" xlink:href="#DejaVuSans-31"/>
      <use x="506.591796875" xlink:href="#DejaVuSans-33"/>
     </g>
    </g>
    <g id="line2d_57">
     <path d="M 576.93375 163.1705 
L 597.09375 163.1705 
" style="fill:none;stroke:#000000;stroke-linecap:square;"/>
    </g>
    <g id="line2d_58"/>
    <g id="text_23">
     <!-- locality#14 -->
     <g transform="translate(612.93375 168.2105)scale(0.144 -0.144)">
      <use xlink:href="#DejaVuSans-6c"/>
      <use x="27.783203125" xlink:href="#DejaVuSans-6f"/>
      <use x="88.96484375" xlink:href="#DejaVuSans-63"/>
      <use x="143.9453125" xlink:href="#DejaVuSans-61"/>
      <use x="205.224609375" xlink:href="#DejaVuSans-6c"/>
      <use x="233.0078125" xlink:href="#DejaVuSans-69"/>
      <use x="260.791015625" xlink:href="#DejaVuSans-74"/>
      <use x="300.0" xlink:href="#DejaVuSans-79"/>
      <use x="359.1796875" xlink:href="#DejaVuSans-23"/>
      <use x="442.96875" xlink:href="#DejaVuSans-31"/>
      <use x="506.591796875" xlink:href="#DejaVuSans-34"/>
     </g>
    </g>
    <g id="line2d_59">
     <path d="M 576.93375 184.307 
L 597.09375 184.307 
" style="fill:none;stroke:#0000ff;stroke-linecap:square;"/>
    </g>
    <g id="line2d_60"/>
    <g id="text_24">
     <!-- locality#15 -->
     <g transform="translate(612.93375 189.347)scale(0.144 -0.144)">
      <use xlink:href="#DejaVuSans-6c"/>
      <use x="27.783203125" xlink:href="#DejaVuSans-6f"/>
      <use x="88.96484375" xlink:href="#DejaVuSans-63"/>
      <use x="143.9453125" xlink:href="#DejaVuSans-61"/>
      <use x="205.224609375" xlink:href="#DejaVuSans-6c"/>
      <use x="233.0078125" xlink:href="#DejaVuSans-69"/>
      <use x="260.791015625" xlink:href="#DejaVuSans-74"/>
      <use x="300.0" xlink:href="#DejaVuSans-79"/>
      <use x="359.1796875" xlink:href="#DejaVuSans-23"/>
      <use x="442.96875" xlink:href="#DejaVuSans-31"/>
      <use x="506.591796875" xlink:href="#DejaVuSans-35"/>
     </g>
    </g>
    <g id="line2d_61">
     <path d="M 576.93375 205.4435 
L 597.09375 205.4435 
" style="fill:none;stroke:#008000;stroke-linecap:square;"/>
    </g>
    <g id="line2d_62"/>
    <g id="text_25">
     <!-- locality#2 -->
     <g transform="translate(612.93375 210.4835)scale(0.144 -0.144)">
      <use xlink:href="#DejaVuSans-6c"/>
      <use x="27.783203125" xlink:href="#DejaVuSans-6f"/>
      <use x="88.96484375" xlink:href="#DejaVuSans-63"/>
      <use x="143.9453125" xlink:href="#DejaVuSans-61"/>
      <use x="205.224609375" xlink:href="#DejaVuSans-6c"/>
      <use x="233.0078125" xlink:href="#DejaVuSans-69"/>
      <use x="260.791015625" xlink:href="#DejaVuSans-74"/>
      <use x="300.0" xlink:href="#DejaVuSans-79"/>
      <use x="359.1796875" xlink:href="#DejaVuSans-23"/>
      <use x="442.96875" xlink:href="#DejaVuSans-32"/>
     </g>
    </g>
    <g id="line2d_63">
     <path d="M 576.93375 226.58 
L 597.09375 226.58 
" style="fill:none;stroke:#ff0000;stroke-linecap:square;"/>
    </g>
    <g id="line2d_64"/>
    <g id="text_26">
     <!-- locality#3 -->
     <g transform="translate(612.93375 231.62)scale(0.144 -0.144)">
      <use xlink:href="#DejaVuSans-6c"/>
      <use x="27.783203125" xlink:href="#DejaVuSans-6f"/>
      <use x="88.96484375" xlink:href="#DejaVuSans-63"/>
      <use x="143.9453125" xlink:href="#DejaVuSans-61"/>
      <use x="205.224609375" xlink:href="#DejaVuSans-6c"/>
      <use x="233.0078125" xlink:href="#DejaVuSans-69"/>
      <use x="260.791015625" xlink:href="#DejaVuSans-74"/>
      <use x="300.0" xlink:href="#DejaVuSans-79"/>
      <use x="359.1796875" xlink:href="#DejaVuSans-23"/>
      <use x="442.96875" xlink:href="#DejaVuSans-33"/>
     </g>
    </g>
    <g id="line2d_65">
     <path d="M 576.93375 247.7165 
L 597.09375 247.7165 
" style="fill:none;stroke:#00bfbf;stroke-linecap:square;"/>
    </g>
    <g id="line2d_66"/>
    <g id="text_27">
     <!-- locality#4 -->
     <g transform="translate(612.93375 252.7565)scale(0.144 -0.144)">
      <use xlink:href="#DejaVuSans-6c"/>
      <use x="27.783203125" xlink:href="#DejaVuSans-6f"/>
      <use x="88.96484375" xlink:href="#DejaVuSans-63"/>
      <use x="143.9453125" xlink:href="#DejaVuSans-61"/>
      <use x="205.224609375" xlink:href="#DejaVuSans-6c"/>
      <use x="233.0078125" xlink:href="#DejaVuSans-69"/>
      <use x="260.791015625" xlink:href="#DejaVuSans-74"/>
      <use x="300.0" xlink:href="#DejaVuSans-79"/>
      <use x="359.1796875" xlink:href="#DejaVuSans-23"/>
      <use x="442.96875" xlink:href="#DejaVuSans-34"/>
     </g>
    </g>
    <g id="line2d_67">
     <path d="M 576.93375 268.853 
L 597.09375 268.853 
" style="fill:none;stroke:#bf00bf;stroke-linecap:square;"/>
    </g>
    <g id="line2d_68"/>
    <g id="text_28">
     <!-- locality#5 -->
     <g transform="translate(612.93375 273.893)scale(0.144 -0.144)">
      <use xlink:href="#DejaVuSans-6c"/>
      <use x="27.783203125" xlink:href="#DejaVuSans-6f"/>
      <use x="88.96484375" xlink:href="#DejaVuSans-63"/>
      <use x="143.9453125" xlink:href="#DejaVuSans-61"/>
      <use x="205.224609375" xlink:href="#DejaVuSans-6c"/>
      <use x="233.0078125" xlink:href="#DejaVuSans-69"/>
      <use x="260.791015625" xlink:href="#DejaVuSans-74"/>
      <use x="300.0" xlink:href="#DejaVuSans-79"/>
      <use x="359.1796875" xlink:href="#DejaVuSans-23"/>
      <use x="442.96875" xlink:href="#DejaVuSans-35"/>
     </g>
    </g>
    <g id="line2d_69">
     <path d="M 576.93375 289.9895 
L 597.09375 289.9895 
" style="fill:none;stroke:#bfbf00;stroke-linecap:square;"/>
    </g>
    <g id="line2d_70"/>
    <g id="text_29">
     <!-- locality#6 -->
     <g transform="translate(612.93375 295.0295)scale(0.144 -0.144)">
      <use xlink:href="#DejaVuSans-6c"/>
      <use x="27.783203125" xlink:href="#DejaVuSans-6f"/>
      <use x="88.96484375" xlink:href="#DejaVuSans-63"/>
      <use x="143.9453125" xlink:href="#DejaVuSans-61"/>
      <use x="205.224609375" xlink:href="#DejaVuSans-6c"/>
      <use x="233.0078125" xlink:href="#DejaVuSans-69"/>
      <use x="260.791015625" xlink:href="#DejaVuSans-74"/>
      <use x="300.0" xlink:href="#DejaVuSans-79"/>
      <use x="359.1796875" xlink:href="#DejaVuSans-23"/>
      <use x="442.96875" xlink:href="#DejaVuSans-36"/>
     </g>
    </g>
    <g id="line2d_71">
     <path d="M 576.93375 311.126 
L 597.09375 311.126 
" style="fill:none;stroke:#000000;stroke-linecap:square;"/>
    </g>
    <g id="line2d_72"/>
    <g id="text_30">
     <!-- locality#7 -->
     <defs>
      <path d="M 8.203125 72.90625 
L 55.078125 72.90625 
L 55.078125 68.703125 
L 28.609375 0 
L 18.3125 0 
L 43.21875 64.59375 
L 8.203125 64.59375 
z
" id="DejaVuSans-37"/>
     </defs>
     <g transform="translate(612.93375 316.166)scale(0.144 -0.144)">
      <use xlink:href="#DejaVuSans-6c"/>
      <use x="27.783203125" xlink:href="#DejaVuSans-6f"/>
      <use x="88.96484375" xlink:href="#DejaVuSans-63"/>
      <use x="143.9453125" xlink:href="#DejaVuSans-61"/>
      <use x="205.224609375" xlink:href="#DejaVuSans-6c"/>
      <use x="233.0078125" xlink:href="#DejaVuSans-69"/>
      <use x="260.791015625" xlink:href="#DejaVuSans-74"/>
      <use x="300.0" xlink:href="#DejaVuSans-79"/>
      <use x="359.1796875" xlink:href="#DejaVuSans-23"/>
      <use x="442.96875" xlink:href="#DejaVuSans-37"/>
     </g>
    </g>
    <g id="line2d_73">
     <path d="M 576.93375 332.2625 
L 597.09375 332.2625 
" style="fill:none;stroke:#0000ff;stroke-linecap:square;"/>
    </g>
    <g id="line2d_74"/>
    <g id="text_31">
     <!-- locality#8 -->
     <g transform="translate(612.93375 337.3025)scale(0.144 -0.144)">
      <use xlink:href="#DejaVuSans-6c"/>
      <use x="27.783203125" xlink:href="#DejaVuSans-6f"/>
      <use x="88.96484375" xlink:href="#DejaVuSans-63"/>
      <use x="143.9453125" xlink:href="#DejaVuSans-61"/>
      <use x="205.224609375" xlink:href="#DejaVuSans-6c"/>
      <use x="233.0078125" xlink:href="#DejaVuSans-69"/>
      <use x="260.791015625" xlink:href="#DejaVuSans-74"/>
      <use x="300.0" xlink:href="#DejaVuSans-79"/>
      <use x="359.1796875" xlink:href="#DejaVuSans-23"/>
      <use x="442.96875" xlink:href="#DejaVuSans-38"/>
     </g>
    </g>
    <g id="line2d_75">
     <path d="M 576.93375 353.399 
L 597.09375 353.399 
" style="fill:none;stroke:#008000;stroke-linecap:square;"/>
    </g>
    <g id="line2d_76"/>
    <g id="text_32">
     <!-- locality#9 -->
     <defs>
      <path d="M 10.984375 1.515625 
L 10.984375 10.5 
Q 14.703125 8.734375 18.5 7.8125 
Q 22.3125 6.890625 25.984375 6.890625 
Q 35.75 6.890625 40.890625 13.453125 
Q 46.046875 20.015625 46.78125 33.40625 
Q 43.953125 29.203125 39.59375 26.953125 
Q 35.25 24.703125 29.984375 24.703125 
Q 19.046875 24.703125 12.671875 31.3125 
Q 6.296875 37.9375 6.296875 49.421875 
Q 6.296875 60.640625 12.9375 67.421875 
Q 19.578125 74.21875 30.609375 74.21875 
Q 43.265625 74.21875 49.921875 64.515625 
Q 56.59375 54.828125 56.59375 36.375 
Q 56.59375 19.140625 48.40625 8.859375 
Q 40.234375 -1.421875 26.421875 -1.421875 
Q 22.703125 -1.421875 18.890625 -0.6875 
Q 15.09375 0.046875 10.984375 1.515625 
M 30.609375 32.421875 
Q 37.25 32.421875 41.125 36.953125 
Q 45.015625 41.5 45.015625 49.421875 
Q 45.015625 57.28125 41.125 61.84375 
Q 37.25 66.40625 30.609375 66.40625 
Q 23.96875 66.40625 20.09375 61.84375 
Q 16.21875 57.28125 16.21875 49.421875 
Q 16.21875 41.5 20.09375 36.953125 
Q 23.96875 32.421875 30.609375 32.421875 
" id="DejaVuSans-39"/>
     </defs>
     <g transform="translate(612.93375 358.439)scale(0.144 -0.144)">
      <use xlink:href="#DejaVuSans-6c"/>
      <use x="27.783203125" xlink:href="#DejaVuSans-6f"/>
      <use x="88.96484375" xlink:href="#DejaVuSans-63"/>
      <use x="143.9453125" xlink:href="#DejaVuSans-61"/>
      <use x="205.224609375" xlink:href="#DejaVuSans-6c"/>
      <use x="233.0078125" xlink:href="#DejaVuSans-69"/>
      <use x="260.791015625" xlink:href="#DejaVuSans-74"/>
      <use x="300.0" xlink:href="#DejaVuSans-79"/>
      <use x="359.1796875" xlink:href="#DejaVuSans-23"/>
      <use x="442.96875" xlink:href="#DejaVuSans-39"/>
     </g>
    </g>
   </g>
  </g>
 </g>
 <defs>
  <clipPath id="p9fb19be131">
   <rect height="345.6" width="446.4" x="113.25375" y="23.14175"/>
  </clipPath>
 </defs>
</svg>
