<?xml version="1.0" encoding="utf-8" standalone="no"?>
<!DOCTYPE svg PUBLIC "-//W3C//DTD SVG 1.1//EN"
  "http://www.w3.org/Graphics/SVG/1.1/DTD/svg11.dtd">
<!-- Created with matplotlib (http://matplotlib.org/) -->
<svg height="408pt" version="1.1" viewBox="0 0 638 408" width="638pt" xmlns="http://www.w3.org/2000/svg" xmlns:xlink="http://www.w3.org/1999/xlink">
 <defs>
  <style type="text/css">
*{stroke-linecap:butt;stroke-linejoin:round;stroke-miterlimit:100000;}
  </style>
 </defs>
 <g id="figure_1">
  <g id="patch_1">
   <path d="M 0 408.16925 
L 638.914375 408.16925 
L 638.914375 0 
L 0 0 
z
" style="fill:#ffffff;"/>
  </g>
  <g id="axes_1">
   <g id="patch_2">
    <path d="M 44.160625 368.74175 
L 490.560625 368.74175 
L 490.560625 23.14175 
L 44.160625 23.14175 
z
" style="fill:#ffffff;"/>
   </g>
   <g id="line2d_1">
    <path clip-path="url(#p16a51d641a)" d="M 44.160625 184.27775 
L 59.553728 207.17375 
L 74.946832 192.05375 
L 90.339935 185.57375 
L 105.733039 200.26175 
L 121.126142 184.70975 
L 136.519246 192.05375 
L 151.912349 220.13375 
L 167.305453 191.62175 
L 182.698556 179.95775 
L 198.091659 202.42175 
L 213.484763 210.62975 
L 228.877866 192.91775 
L 244.27097 195.07775 
L 259.664073 141.94175 
L 275.057177 250.37375 
L 290.45028 189.46175 
L 305.843384 191.62175 
L 321.236487 204.58175 
L 336.629591 192.05375 
L 352.022694 202.85375 
L 367.415797 193.34975 
L 382.808901 189.02975 
L 398.202004 201.55775 
L 413.595108 171.74975 
L 428.988211 179.95775 
L 444.381315 232.66175 
L 459.774418 182.11775 
L 475.167522 214.08575 
L 490.560625 196.80575 
" style="fill:none;stroke:#0000ff;stroke-linecap:square;"/>
   </g>
   <g id="line2d_2">
    <path clip-path="url(#p16a51d641a)" d="M 44.160625 195.94175 
L 59.553728 195.94175 
L 74.946832 195.07775 
L 90.339935 179.09375 
L 105.733039 205.01375 
L 121.126142 187.30175 
L 136.519246 208.03775 
L 151.912349 193.78175 
L 167.305453 158.35775 
L 182.698556 239.57375 
L 198.091659 173.90975 
L 213.484763 198.96575 
L 228.877866 210.62975 
L 244.27097 183.84575 
L 259.664073 188.16575 
L 275.057177 193.34975 
L 290.45028 202.85375 
L 305.843384 216.67775 
L 321.236487 181.25375 
L 336.629591 202.85375 
L 352.022694 197.23775 
L 367.415797 174.34175 
L 382.808901 220.56575 
L 398.202004 196.37375 
L 413.595108 188.16575 
L 428.988211 193.34975 
L 444.381315 196.37375 
L 459.774418 180.38975 
L 475.167522 220.56575 
L 490.560625 200.26175 
" style="fill:none;stroke:#008000;stroke-linecap:square;"/>
   </g>
   <g id="line2d_3">
    <path clip-path="url(#p16a51d641a)" d="M 44.160625 195.94175 
L 59.553728 195.94175 
L 74.946832 195.94175 
L 90.339935 187.30175 
L 105.733039 184.27775 
L 121.126142 193.34975 
L 136.519246 218.83775 
L 151.912349 172.18175 
L 167.305453 189.89375 
L 182.698556 224.45375 
L 198.091659 157.92575 
L 213.484763 226.18175 
L 228.877866 196.80575 
L 244.27097 184.27775 
L 259.664073 207.60575 
L 275.057177 193.78175 
L 290.45028 205.87775 
L 305.843384 188.16575 
L 321.236487 192.91775 
L 336.629591 185.14175 
L 352.022694 188.59775 
L 367.415797 211.06175 
L 382.808901 196.37375 
L 398.202004 193.78175 
L 413.595108 172.61375 
L 428.988211 219.70175 
L 444.381315 198.53375 
L 459.774418 208.03775 
L 475.167522 180.38975 
L 490.560625 212.35775 
" style="fill:none;stroke:#ff0000;stroke-linecap:square;"/>
   </g>
   <g id="line2d_4">
    <path clip-path="url(#p16a51d641a)" d="M 44.160625 195.94175 
L 59.553728 195.50975 
L 74.946832 196.37375 
L 90.339935 190.32575 
L 105.733039 165.70175 
L 121.126142 230.93375 
L 136.519246 189.02975 
L 151.912349 181.25375 
L 167.305453 181.68575 
L 182.698556 229.20575 
L 198.091659 196.80575 
L 213.484763 169.58975 
L 228.877866 206.30975 
L 244.27097 203.28575 
L 259.664073 181.25375 
L 275.057177 198.53375 
L 290.45028 198.53375 
L 305.843384 194.64575 
L 321.236487 217.97375 
L 336.629591 189.89375 
L 352.022694 197.66975 
L 367.415797 195.50975 
L 382.808901 192.48575 
L 398.202004 170.02175 
L 413.595108 230.06975 
L 428.988211 175.63775 
L 444.381315 181.68575 
L 459.774418 197.23775 
L 475.167522 217.97375 
L 490.560625 207.17375 
" style="fill:none;stroke:#00bfbf;stroke-linecap:square;"/>
   </g>
   <g id="line2d_5">
    <path clip-path="url(#p16a51d641a)" d="M 44.160625 195.94175 
L 59.553728 195.94175 
L 74.946832 195.94175 
L 90.339935 191.18975 
L 105.733039 189.02975 
L 121.126142 186.00575 
L 136.519246 206.30975 
L 151.912349 197.23775 
L 167.305453 189.89375 
L 182.698556 203.28575 
L 198.091659 194.21375 
L 213.484763 192.91775 
L 228.877866 206.74175 
L 244.27097 194.21375 
L 259.664073 184.27775 
L 275.057177 182.11775 
L 290.45028 197.66975 
L 305.843384 224.02175 
L 321.236487 182.11775 
L 336.629591 199.82975 
L 352.022694 191.62175 
L 367.415797 194.21375 
L 382.808901 198.96575 
L 398.202004 193.78175 
L 413.595108 198.53375 
L 428.988211 202.42175 
L 444.381315 191.18975 
L 459.774418 202.85375 
L 475.167522 192.05375 
L 490.560625 203.71775 
" style="fill:none;stroke:#bf00bf;stroke-linecap:square;"/>
   </g>
   <g id="line2d_6">
    <path clip-path="url(#p16a51d641a)" d="M 44.160625 195.94175 
L 59.553728 195.94175 
L 74.946832 195.50975 
L 90.339935 190.75775 
L 105.733039 185.14175 
L 121.126142 211.49375 
L 136.519246 189.89375 
L 151.912349 182.98175 
L 167.305453 205.44575 
L 182.698556 196.37375 
L 198.091659 205.87775 
L 213.484763 187.73375 
L 228.877866 177.79775 
L 244.27097 191.18975 
L 259.664073 222.72575 
L 275.057177 178.66175 
L 290.45028 217.54175 
L 305.843384 182.11775 
L 321.236487 204.14975 
L 336.629591 195.50975 
L 352.022694 182.11775 
L 367.415797 190.32575 
L 382.808901 208.46975 
L 398.202004 183.41375 
L 413.595108 214.94975 
L 428.988211 196.37375 
L 444.381315 164.83775 
L 459.774418 200.69375 
L 475.167522 211.49375 
L 490.560625 212.35775 
" style="fill:none;stroke:#bfbf00;stroke-linecap:square;"/>
   </g>
   <g id="line2d_7">
    <path clip-path="url(#p16a51d641a)" d="M 44.160625 195.94175 
L 59.553728 195.94175 
L 74.946832 195.94175 
L 90.339935 193.78175 
L 105.733039 185.14175 
L 121.126142 197.23775 
L 136.519246 201.12575 
L 151.912349 189.89375 
L 167.305453 196.37375 
L 182.698556 199.39775 
L 198.091659 198.53375 
L 213.484763 158.78975 
L 228.877866 227.47775 
L 244.27097 193.34975 
L 259.664073 206.30975 
L 275.057177 180.38975 
L 290.45028 204.58175 
L 305.843384 206.74175 
L 321.236487 187.73375 
L 336.629591 188.16575 
L 352.022694 201.98975 
L 367.415797 193.78175 
L 382.808901 198.53375 
L 398.202004 203.71775 
L 413.595108 195.50975 
L 428.988211 194.21375 
L 444.381315 195.50975 
L 459.774418 195.07775 
L 475.167522 188.16575 
L 490.560625 208.90175 
" style="fill:none;stroke:#000000;stroke-linecap:square;"/>
   </g>
   <g id="line2d_8">
    <path clip-path="url(#p16a51d641a)" d="M 44.160625 195.94175 
L 59.553728 195.94175 
L 74.946832 195.50975 
L 90.339935 195.07775 
L 105.733039 172.61375 
L 121.126142 205.87775 
L 136.519246 172.18175 
L 151.912349 206.30975 
L 167.305453 206.30975 
L 182.698556 200.69375 
L 198.091659 208.90175 
L 213.484763 190.32575 
L 228.877866 186.86975 
L 244.27097 187.30175 
L 259.664073 194.64575 
L 275.057177 205.87775 
L 290.45028 209.76575 
L 305.843384 186.43775 
L 321.236487 173.90975 
L 336.629591 202.42175 
L 352.022694 219.26975 
L 367.415797 170.88575 
L 382.808901 179.52575 
L 398.202004 221.86175 
L 413.595108 208.90175 
L 428.988211 198.10175 
L 444.381315 182.54975 
L 459.774418 158.35775 
L 475.167522 236.98175 
L 490.560625 208.90175 
" style="fill:none;stroke:#0000ff;stroke-linecap:square;"/>
   </g>
   <g id="line2d_9">
    <path clip-path="url(#p16a51d641a)" d="M 44.160625 195.94175 
L 59.553728 195.94175 
L 74.946832 96.58175 
L 90.339935 282.34175 
L 105.733039 195.94175 
L 121.126142 193.78175 
L 136.519246 199.82975 
L 151.912349 203.71775 
L 167.305453 186.86975 
L 182.698556 208.46975 
L 198.091659 172.61375 
L 213.484763 207.17375 
L 228.877866 184.70975 
L 244.27097 212.78975 
L 259.664073 183.41375 
L 275.057177 197.23775 
L 290.45028 203.71775 
L 305.843384 190.75775 
L 321.236487 198.96575 
L 336.629591 181.25375 
L 352.022694 203.28575 
L 367.415797 193.78175 
L 382.808901 180.82175 
L 398.202004 232.66175 
L 413.595108 153.60575 
L 428.988211 237.84575 
L 444.381315 180.82175 
L 459.774418 177.79775 
L 475.167522 225.31775 
L 490.560625 200.26175 
" style="fill:none;stroke:#008000;stroke-linecap:square;"/>
   </g>
   <g id="line2d_10">
    <path clip-path="url(#p16a51d641a)" d="M 44.160625 195.94175 
L 59.553728 193.34975 
L 74.946832 197.66975 
L 90.339935 167.86175 
L 105.733039 214.51775 
L 121.126142 178.66175 
L 136.519246 220.13375 
L 151.912349 177.79775 
L 167.305453 210.19775 
L 182.698556 196.80575 
L 198.091659 181.68575 
L 213.484763 202.85375 
L 228.877866 178.22975 
L 244.27097 225.74975 
L 259.664073 186.43775 
L 275.057177 183.41375 
L 290.45028 218.40575 
L 305.843384 185.57375 
L 321.236487 201.98975 
L 336.629591 197.23775 
L 352.022694 164.40575 
L 367.415797 229.63775 
L 382.808901 191.62175 
L 398.202004 183.84575 
L 413.595108 212.35775 
L 428.988211 194.64575 
L 444.381315 189.89375 
L 459.774418 181.68575 
L 475.167522 212.35775 
L 490.560625 203.28575 
" style="fill:none;stroke:#ff0000;stroke-linecap:square;"/>
   </g>
   <g id="line2d_11">
    <path clip-path="url(#p16a51d641a)" d="M 44.160625 195.94175 
L 59.553728 195.50975 
L 74.946832 196.37375 
L 90.339935 191.62175 
L 105.733039 189.02975 
L 121.126142 198.53375 
L 136.519246 183.41375 
L 151.912349 197.66975 
L 167.305453 192.91775 
L 182.698556 214.08575 
L 198.091659 198.96575 
L 213.484763 189.89375 
L 228.877866 201.55775 
L 244.27097 180.82175 
L 259.664073 198.53375 
L 275.057177 170.45375 
L 290.45028 219.70175 
L 305.843384 209.76575 
L 321.236487 161.81375 
L 336.629591 208.90175 
L 352.022694 202.85375 
L 367.415797 192.05375 
L 382.808901 208.03775 
L 398.202004 176.93375 
L 413.595108 212.78975 
L 428.988211 199.82975 
L 444.381315 199.82975 
L 459.774418 176.93375 
L 475.167522 201.55775 
L 490.560625 211.92575 
" style="fill:none;stroke:#00bfbf;stroke-linecap:square;"/>
   </g>
   <g id="line2d_12">
    <path clip-path="url(#p16a51d641a)" d="M 44.160625 195.94175 
L 59.553728 192.91775 
L 74.946832 183.41375 
L 90.339935 188.59775 
L 105.733039 205.01375 
L 121.126142 195.94175 
L 136.519246 189.02975 
L 151.912349 201.12575 
L 167.305453 203.28575 
L 182.698556 195.94175 
L 198.091659 198.53375 
L 213.484763 176.06975 
L 228.877866 218.40575 
L 244.27097 184.70975 
L 259.664073 210.19775 
L 275.057177 179.52575 
L 290.45028 195.94175 
L 305.843384 195.50975 
L 321.236487 192.05375 
L 336.629591 189.46175 
L 352.022694 212.35775 
L 367.415797 176.93375 
L 382.808901 207.60575 
L 398.202004 195.94175 
L 413.595108 184.70975 
L 428.988211 219.70175 
L 444.381315 180.82175 
L 459.774418 216.67775 
L 475.167522 195.94175 
L 490.560625 195.94175 
" style="fill:none;stroke:#bf00bf;stroke-linecap:square;"/>
   </g>
   <g id="line2d_13">
    <path clip-path="url(#p16a51d641a)" d="M 44.160625 195.94175 
L 59.553728 195.94175 
L 74.946832 42.14975 
L 90.339935 347.14175 
L 105.733039 165.70175 
L 121.126142 208.03775 
L 136.519246 216.67775 
L 151.912349 188.59775 
L 167.305453 192.91775 
L 182.698556 206.30975 
L 198.091659 171.31775 
L 213.484763 211.92575 
L 228.877866 188.59775 
L 244.27097 183.41375 
L 259.664073 215.81375 
L 275.057177 204.14975 
L 290.45028 171.74975 
L 305.843384 220.56575 
L 321.236487 183.41375 
L 336.629591 206.30975 
L 352.022694 185.57375 
L 367.415797 192.05375 
L 382.808901 206.74175 
L 398.202004 179.09375 
L 413.595108 205.01375 
L 428.988211 206.74175 
L 444.381315 179.95775 
L 459.774418 198.53375 
L 475.167522 206.74175 
L 490.560625 201.12575 
" style="fill:none;stroke:#bfbf00;stroke-linecap:square;"/>
   </g>
   <g id="line2d_14">
    <path clip-path="url(#p16a51d641a)" d="M 44.160625 195.94175 
L 59.553728 195.94175 
L 74.946832 195.94175 
L 90.339935 178.66175 
L 105.733039 187.30175 
L 121.126142 213.65375 
L 136.519246 195.07775 
L 151.912349 192.48575 
L 167.305453 197.23775 
L 182.698556 206.74175 
L 198.091659 188.59775 
L 213.484763 182.54975 
L 228.877866 205.01375 
L 244.27097 197.23775 
L 259.664073 191.62175 
L 275.057177 189.02975 
L 290.45028 200.26175 
L 305.843384 202.42175 
L 321.236487 202.85375 
L 336.629591 171.31775 
L 352.022694 202.42175 
L 367.415797 198.10175 
L 382.808901 200.69375 
L 398.202004 205.44575 
L 413.595108 191.18975 
L 428.988211 200.26175 
L 444.381315 191.18975 
L 459.774418 179.52575 
L 475.167522 221.86175 
L 490.560625 197.66975 
" style="fill:none;stroke:#000000;stroke-linecap:square;"/>
   </g>
   <g id="line2d_15">
    <path clip-path="url(#p16a51d641a)" d="M 44.160625 195.94175 
L 59.553728 195.94175 
L 74.946832 194.64575 
L 90.339935 176.93375 
L 105.733039 211.49375 
L 121.126142 199.39775 
L 136.519246 184.27775 
L 151.912349 184.27775 
L 167.305453 197.66975 
L 182.698556 213.22175 
L 198.091659 197.23775 
L 213.484763 192.05375 
L 228.877866 177.36575 
L 244.27097 167.86175 
L 259.664073 249.94175 
L 275.057177 190.32575 
L 290.45028 202.42175 
L 305.843384 195.94175 
L 321.236487 194.21375 
L 336.629591 167.86175 
L 352.022694 197.23775 
L 367.415797 207.17375 
L 382.808901 177.36575 
L 398.202004 221.42975 
L 413.595108 186.86975 
L 428.988211 203.71775 
L 444.381315 186.86975 
L 459.774418 215.81375 
L 475.167522 195.94175 
L 490.560625 196.80575 
" style="fill:none;stroke:#0000ff;stroke-linecap:square;"/>
   </g>
   <g id="line2d_16">
    <path clip-path="url(#p16a51d641a)" d="M 44.160625 195.94175 
L 59.553728 195.94175 
L 74.946832 81.89375 
L 90.339935 307.82975 
L 105.733039 190.32575 
L 121.126142 197.66975 
L 136.519246 180.38975 
L 151.912349 203.71775 
L 167.305453 182.98175 
L 182.698556 220.99775 
L 198.091659 196.37375 
L 213.484763 182.54975 
L 228.877866 199.82975 
L 244.27097 176.50175 
L 259.664073 224.88575 
L 275.057177 168.72575 
L 290.45028 190.32575 
L 305.843384 230.06975 
L 321.236487 191.62175 
L 336.629591 192.48575 
L 352.022694 181.25375 
L 367.415797 209.76575 
L 382.808901 186.86975 
L 398.202004 210.62975 
L 413.595108 197.66975 
L 428.988211 179.52575 
L 444.381315 190.75775 
L 459.774418 194.21375 
L 475.167522 208.46975 
L 490.560625 208.03775 
" style="fill:none;stroke:#008000;stroke-linecap:square;"/>
   </g>
   <g id="patch_3">
    <path d="M 44.160625 23.14175 
L 490.560625 23.14175 
" style="fill:none;stroke:#000000;stroke-linecap:square;stroke-linejoin:miter;"/>
   </g>
   <g id="patch_4">
    <path d="M 490.560625 368.74175 
L 490.560625 23.14175 
" style="fill:none;stroke:#000000;stroke-linecap:square;stroke-linejoin:miter;"/>
   </g>
   <g id="patch_5">
    <path d="M 44.160625 368.74175 
L 490.560625 368.74175 
" style="fill:none;stroke:#000000;stroke-linecap:square;stroke-linejoin:miter;"/>
   </g>
   <g id="patch_6">
    <path d="M 44.160625 368.74175 
L 44.160625 23.14175 
" style="fill:none;stroke:#000000;stroke-linecap:square;stroke-linejoin:miter;"/>
   </g>
   <g id="matplotlib.axis_1">
    <g id="xtick_1">
     <g id="line2d_17">
      <defs>
       <path d="M 0 0 
L 0 -4 
" id="md5a1079125" style="stroke:#000000;stroke-width:0.5;"/>
      </defs>
      <g>
       <use style="stroke:#000000;stroke-width:0.5;" x="44.160625" xlink:href="#md5a1079125" y="368.74175"/>
      </g>
     </g>
     <g id="line2d_18">
      <defs>
       <path d="M 0 0 
L 0 4 
" id="m6539b33d67" style="stroke:#000000;stroke-width:0.5;"/>
      </defs>
      <g>
       <use style="stroke:#000000;stroke-width:0.5;" x="44.160625" xlink:href="#m6539b33d67" y="23.14175"/>
      </g>
     </g>
     <g id="text_1">
      <!-- 0 -->
      <defs>
       <path d="M 31.78125 66.40625 
Q 24.171875 66.40625 20.328125 58.90625 
Q 16.5 51.421875 16.5 36.375 
Q 16.5 21.390625 20.328125 13.890625 
Q 24.171875 6.390625 31.78125 6.390625 
Q 39.453125 6.390625 43.28125 13.890625 
Q 47.125 21.390625 47.125 36.375 
Q 47.125 51.421875 43.28125 58.90625 
Q 39.453125 66.40625 31.78125 66.40625 
M 31.78125 74.21875 
Q 44.046875 74.21875 50.515625 64.515625 
Q 56.984375 54.828125 56.984375 36.375 
Q 56.984375 17.96875 50.515625 8.265625 
Q 44.046875 -1.421875 31.78125 -1.421875 
Q 19.53125 -1.421875 13.0625 8.265625 
Q 6.59375 17.96875 6.59375 36.375 
Q 6.59375 54.828125 13.0625 64.515625 
Q 19.53125 74.21875 31.78125 74.21875 
" id="DejaVuSans-30"/>
      </defs>
      <g transform="translate(40.343125 381.859875)scale(0.12 -0.12)">
       <use xlink:href="#DejaVuSans-30"/>
      </g>
     </g>
    </g>
    <g id="xtick_2">
     <g id="line2d_19">
      <g>
       <use style="stroke:#000000;stroke-width:0.5;" x="121.126142241" xlink:href="#md5a1079125" y="368.74175"/>
      </g>
     </g>
     <g id="line2d_20">
      <g>
       <use style="stroke:#000000;stroke-width:0.5;" x="121.126142241" xlink:href="#m6539b33d67" y="23.14175"/>
      </g>
     </g>
     <g id="text_2">
      <!-- 5 -->
      <defs>
       <path d="M 10.796875 72.90625 
L 49.515625 72.90625 
L 49.515625 64.59375 
L 19.828125 64.59375 
L 19.828125 46.734375 
Q 21.96875 47.46875 24.109375 47.828125 
Q 26.265625 48.1875 28.421875 48.1875 
Q 40.625 48.1875 47.75 41.5 
Q 54.890625 34.8125 54.890625 23.390625 
Q 54.890625 11.625 47.5625 5.09375 
Q 40.234375 -1.421875 26.90625 -1.421875 
Q 22.3125 -1.421875 17.546875 -0.640625 
Q 12.796875 0.140625 7.71875 1.703125 
L 7.71875 11.625 
Q 12.109375 9.234375 16.796875 8.0625 
Q 21.484375 6.890625 26.703125 6.890625 
Q 35.15625 6.890625 40.078125 11.328125 
Q 45.015625 15.765625 45.015625 23.390625 
Q 45.015625 31 40.078125 35.4375 
Q 35.15625 39.890625 26.703125 39.890625 
Q 22.75 39.890625 18.8125 39.015625 
Q 14.890625 38.140625 10.796875 36.28125 
z
" id="DejaVuSans-35"/>
      </defs>
      <g transform="translate(117.308642241 381.859875)scale(0.12 -0.12)">
       <use xlink:href="#DejaVuSans-35"/>
      </g>
     </g>
    </g>
    <g id="xtick_3">
     <g id="line2d_21">
      <g>
       <use style="stroke:#000000;stroke-width:0.5;" x="198.091659483" xlink:href="#md5a1079125" y="368.74175"/>
      </g>
     </g>
     <g id="line2d_22">
      <g>
       <use style="stroke:#000000;stroke-width:0.5;" x="198.091659483" xlink:href="#m6539b33d67" y="23.14175"/>
      </g>
     </g>
     <g id="text_3">
      <!-- 10 -->
      <defs>
       <path d="M 12.40625 8.296875 
L 28.515625 8.296875 
L 28.515625 63.921875 
L 10.984375 60.40625 
L 10.984375 69.390625 
L 28.421875 72.90625 
L 38.28125 72.90625 
L 38.28125 8.296875 
L 54.390625 8.296875 
L 54.390625 0 
L 12.40625 0 
z
" id="DejaVuSans-31"/>
      </defs>
      <g transform="translate(190.456659483 381.859875)scale(0.12 -0.12)">
       <use xlink:href="#DejaVuSans-31"/>
       <use x="63.623046875" xlink:href="#DejaVuSans-30"/>
      </g>
     </g>
    </g>
    <g id="xtick_4">
     <g id="line2d_23">
      <g>
       <use style="stroke:#000000;stroke-width:0.5;" x="275.057176724" xlink:href="#md5a1079125" y="368.74175"/>
      </g>
     </g>
     <g id="line2d_24">
      <g>
       <use style="stroke:#000000;stroke-width:0.5;" x="275.057176724" xlink:href="#m6539b33d67" y="23.14175"/>
      </g>
     </g>
     <g id="text_4">
      <!-- 15 -->
      <g transform="translate(267.422176724 381.859875)scale(0.12 -0.12)">
       <use xlink:href="#DejaVuSans-31"/>
       <use x="63.623046875" xlink:href="#DejaVuSans-35"/>
      </g>
     </g>
    </g>
    <g id="xtick_5">
     <g id="line2d_25">
      <g>
       <use style="stroke:#000000;stroke-width:0.5;" x="352.022693966" xlink:href="#md5a1079125" y="368.74175"/>
      </g>
     </g>
     <g id="line2d_26">
      <g>
       <use style="stroke:#000000;stroke-width:0.5;" x="352.022693966" xlink:href="#m6539b33d67" y="23.14175"/>
      </g>
     </g>
     <g id="text_5">
      <!-- 20 -->
      <defs>
       <path d="M 19.1875 8.296875 
L 53.609375 8.296875 
L 53.609375 0 
L 7.328125 0 
L 7.328125 8.296875 
Q 12.9375 14.109375 22.625 23.890625 
Q 32.328125 33.6875 34.8125 36.53125 
Q 39.546875 41.84375 41.421875 45.53125 
Q 43.3125 49.21875 43.3125 52.78125 
Q 43.3125 58.59375 39.234375 62.25 
Q 35.15625 65.921875 28.609375 65.921875 
Q 23.96875 65.921875 18.8125 64.3125 
Q 13.671875 62.703125 7.8125 59.421875 
L 7.8125 69.390625 
Q 13.765625 71.78125 18.9375 73 
Q 24.125 74.21875 28.421875 74.21875 
Q 39.75 74.21875 46.484375 68.546875 
Q 53.21875 62.890625 53.21875 53.421875 
Q 53.21875 48.921875 51.53125 44.890625 
Q 49.859375 40.875 45.40625 35.40625 
Q 44.1875 33.984375 37.640625 27.21875 
Q 31.109375 20.453125 19.1875 8.296875 
" id="DejaVuSans-32"/>
      </defs>
      <g transform="translate(344.387693966 381.859875)scale(0.12 -0.12)">
       <use xlink:href="#DejaVuSans-32"/>
       <use x="63.623046875" xlink:href="#DejaVuSans-30"/>
      </g>
     </g>
    </g>
    <g id="xtick_6">
     <g id="line2d_27">
      <g>
       <use style="stroke:#000000;stroke-width:0.5;" x="428.988211207" xlink:href="#md5a1079125" y="368.74175"/>
      </g>
     </g>
     <g id="line2d_28">
      <g>
       <use style="stroke:#000000;stroke-width:0.5;" x="428.988211207" xlink:href="#m6539b33d67" y="23.14175"/>
      </g>
     </g>
     <g id="text_6">
      <!-- 25 -->
      <g transform="translate(421.353211207 381.859875)scale(0.12 -0.12)">
       <use xlink:href="#DejaVuSans-32"/>
       <use x="63.623046875" xlink:href="#DejaVuSans-35"/>
      </g>
     </g>
    </g>
    <g id="text_7">
     <!-- time -->
     <defs>
      <path d="M 18.3125 70.21875 
L 18.3125 54.6875 
L 36.8125 54.6875 
L 36.8125 47.703125 
L 18.3125 47.703125 
L 18.3125 18.015625 
Q 18.3125 11.328125 20.140625 9.421875 
Q 21.96875 7.515625 27.59375 7.515625 
L 36.8125 7.515625 
L 36.8125 0 
L 27.59375 0 
Q 17.1875 0 13.234375 3.875 
Q 9.28125 7.765625 9.28125 18.015625 
L 9.28125 47.703125 
L 2.6875 47.703125 
L 2.6875 54.6875 
L 9.28125 54.6875 
L 9.28125 70.21875 
z
" id="DejaVuSans-74"/>
      <path d="M 52 44.1875 
Q 55.375 50.25 60.0625 53.125 
Q 64.75 56 71.09375 56 
Q 79.640625 56 84.28125 50.015625 
Q 88.921875 44.046875 88.921875 33.015625 
L 88.921875 0 
L 79.890625 0 
L 79.890625 32.71875 
Q 79.890625 40.578125 77.09375 44.375 
Q 74.3125 48.1875 68.609375 48.1875 
Q 61.625 48.1875 57.5625 43.546875 
Q 53.515625 38.921875 53.515625 30.90625 
L 53.515625 0 
L 44.484375 0 
L 44.484375 32.71875 
Q 44.484375 40.625 41.703125 44.40625 
Q 38.921875 48.1875 33.109375 48.1875 
Q 26.21875 48.1875 22.15625 43.53125 
Q 18.109375 38.875 18.109375 30.90625 
L 18.109375 0 
L 9.078125 0 
L 9.078125 54.6875 
L 18.109375 54.6875 
L 18.109375 46.1875 
Q 21.1875 51.21875 25.484375 53.609375 
Q 29.78125 56 35.6875 56 
Q 41.65625 56 45.828125 52.96875 
Q 50 49.953125 52 44.1875 
" id="DejaVuSans-6d"/>
      <path d="M 56.203125 29.59375 
L 56.203125 25.203125 
L 14.890625 25.203125 
Q 15.484375 15.921875 20.484375 11.0625 
Q 25.484375 6.203125 34.421875 6.203125 
Q 39.59375 6.203125 44.453125 7.46875 
Q 49.3125 8.734375 54.109375 11.28125 
L 54.109375 2.78125 
Q 49.265625 0.734375 44.1875 -0.34375 
Q 39.109375 -1.421875 33.890625 -1.421875 
Q 20.796875 -1.421875 13.15625 6.1875 
Q 5.515625 13.8125 5.515625 26.8125 
Q 5.515625 40.234375 12.765625 48.109375 
Q 20.015625 56 32.328125 56 
Q 43.359375 56 49.78125 48.890625 
Q 56.203125 41.796875 56.203125 29.59375 
M 47.21875 32.234375 
Q 47.125 39.59375 43.09375 43.984375 
Q 39.0625 48.390625 32.421875 48.390625 
Q 24.90625 48.390625 20.390625 44.140625 
Q 15.875 39.890625 15.1875 32.171875 
z
" id="DejaVuSans-65"/>
      <path d="M 9.421875 54.6875 
L 18.40625 54.6875 
L 18.40625 0 
L 9.421875 0 
z
M 9.421875 75.984375 
L 18.40625 75.984375 
L 18.40625 64.59375 
L 9.421875 64.59375 
z
" id="DejaVuSans-69"/>
     </defs>
     <g transform="translate(253.8053125 398.473625)scale(0.12 -0.12)">
      <use xlink:href="#DejaVuSans-74"/>
      <use x="39.208984375" xlink:href="#DejaVuSans-69"/>
      <use x="66.9921875" xlink:href="#DejaVuSans-6d"/>
      <use x="164.404296875" xlink:href="#DejaVuSans-65"/>
     </g>
    </g>
   </g>
   <g id="matplotlib.axis_2">
    <g id="ytick_1">
     <g id="line2d_29">
      <defs>
       <path d="M 0 0 
L 4 0 
" id="m942b6ff57b" style="stroke:#000000;stroke-width:0.5;"/>
      </defs>
      <g>
       <use style="stroke:#000000;stroke-width:0.5;" x="44.160625" xlink:href="#m942b6ff57b" y="368.74175"/>
      </g>
     </g>
     <g id="line2d_30">
      <defs>
       <path d="M 0 0 
L -4 0 
" id="me3195fe4bf" style="stroke:#000000;stroke-width:0.5;"/>
      </defs>
      <g>
       <use style="stroke:#000000;stroke-width:0.5;" x="490.560625" xlink:href="#me3195fe4bf" y="368.74175"/>
      </g>
     </g>
     <g id="text_8">
      <!-- −400 -->
      <defs>
       <path d="M 37.796875 64.3125 
L 12.890625 25.390625 
L 37.796875 25.390625 
z
M 35.203125 72.90625 
L 47.609375 72.90625 
L 47.609375 25.390625 
L 58.015625 25.390625 
L 58.015625 17.1875 
L 47.609375 17.1875 
L 47.609375 0 
L 37.796875 0 
L 37.796875 17.1875 
L 4.890625 17.1875 
L 4.890625 26.703125 
z
" id="DejaVuSans-34"/>
       <path d="M 10.59375 35.5 
L 73.1875 35.5 
L 73.1875 27.203125 
L 10.59375 27.203125 
z
" id="DejaVuSans-2212"/>
      </defs>
      <g transform="translate(7.2 372.053)scale(0.12 -0.12)">
       <use xlink:href="#DejaVuSans-2212"/>
       <use x="83.7890625" xlink:href="#DejaVuSans-34"/>
       <use x="147.412109375" xlink:href="#DejaVuSans-30"/>
       <use x="211.03515625" xlink:href="#DejaVuSans-30"/>
      </g>
     </g>
    </g>
    <g id="ytick_2">
     <g id="line2d_31">
      <g>
       <use style="stroke:#000000;stroke-width:0.5;" x="44.160625" xlink:href="#m942b6ff57b" y="325.54175"/>
      </g>
     </g>
     <g id="line2d_32">
      <g>
       <use style="stroke:#000000;stroke-width:0.5;" x="490.560625" xlink:href="#me3195fe4bf" y="325.54175"/>
      </g>
     </g>
     <g id="text_9">
      <!-- −300 -->
      <defs>
       <path d="M 40.578125 39.3125 
Q 47.65625 37.796875 51.625 33 
Q 55.609375 28.21875 55.609375 21.1875 
Q 55.609375 10.40625 48.1875 4.484375 
Q 40.765625 -1.421875 27.09375 -1.421875 
Q 22.515625 -1.421875 17.65625 -0.515625 
Q 12.796875 0.390625 7.625 2.203125 
L 7.625 11.71875 
Q 11.71875 9.328125 16.59375 8.109375 
Q 21.484375 6.890625 26.8125 6.890625 
Q 36.078125 6.890625 40.9375 10.546875 
Q 45.796875 14.203125 45.796875 21.1875 
Q 45.796875 27.640625 41.28125 31.265625 
Q 36.765625 34.90625 28.71875 34.90625 
L 20.21875 34.90625 
L 20.21875 43.015625 
L 29.109375 43.015625 
Q 36.375 43.015625 40.234375 45.921875 
Q 44.09375 48.828125 44.09375 54.296875 
Q 44.09375 59.90625 40.109375 62.90625 
Q 36.140625 65.921875 28.71875 65.921875 
Q 24.65625 65.921875 20.015625 65.03125 
Q 15.375 64.15625 9.8125 62.3125 
L 9.8125 71.09375 
Q 15.4375 72.65625 20.34375 73.4375 
Q 25.25 74.21875 29.59375 74.21875 
Q 40.828125 74.21875 47.359375 69.109375 
Q 53.90625 64.015625 53.90625 55.328125 
Q 53.90625 49.265625 50.4375 45.09375 
Q 46.96875 40.921875 40.578125 39.3125 
" id="DejaVuSans-33"/>
      </defs>
      <g transform="translate(7.2 328.853)scale(0.12 -0.12)">
       <use xlink:href="#DejaVuSans-2212"/>
       <use x="83.7890625" xlink:href="#DejaVuSans-33"/>
       <use x="147.412109375" xlink:href="#DejaVuSans-30"/>
       <use x="211.03515625" xlink:href="#DejaVuSans-30"/>
      </g>
     </g>
    </g>
    <g id="ytick_3">
     <g id="line2d_33">
      <g>
       <use style="stroke:#000000;stroke-width:0.5;" x="44.160625" xlink:href="#m942b6ff57b" y="282.34175"/>
      </g>
     </g>
     <g id="line2d_34">
      <g>
       <use style="stroke:#000000;stroke-width:0.5;" x="490.560625" xlink:href="#me3195fe4bf" y="282.34175"/>
      </g>
     </g>
     <g id="text_10">
      <!-- −200 -->
      <g transform="translate(7.2 285.653)scale(0.12 -0.12)">
       <use xlink:href="#DejaVuSans-2212"/>
       <use x="83.7890625" xlink:href="#DejaVuSans-32"/>
       <use x="147.412109375" xlink:href="#DejaVuSans-30"/>
       <use x="211.03515625" xlink:href="#DejaVuSans-30"/>
      </g>
     </g>
    </g>
    <g id="ytick_4">
     <g id="line2d_35">
      <g>
       <use style="stroke:#000000;stroke-width:0.5;" x="44.160625" xlink:href="#m942b6ff57b" y="239.14175"/>
      </g>
     </g>
     <g id="line2d_36">
      <g>
       <use style="stroke:#000000;stroke-width:0.5;" x="490.560625" xlink:href="#me3195fe4bf" y="239.14175"/>
      </g>
     </g>
     <g id="text_11">
      <!-- −100 -->
      <g transform="translate(7.2 242.453)scale(0.12 -0.12)">
       <use xlink:href="#DejaVuSans-2212"/>
       <use x="83.7890625" xlink:href="#DejaVuSans-31"/>
       <use x="147.412109375" xlink:href="#DejaVuSans-30"/>
       <use x="211.03515625" xlink:href="#DejaVuSans-30"/>
      </g>
     </g>
    </g>
    <g id="ytick_5">
     <g id="line2d_37">
      <g>
       <use style="stroke:#000000;stroke-width:0.5;" x="44.160625" xlink:href="#m942b6ff57b" y="195.94175"/>
      </g>
     </g>
     <g id="line2d_38">
      <g>
       <use style="stroke:#000000;stroke-width:0.5;" x="490.560625" xlink:href="#me3195fe4bf" y="195.94175"/>
      </g>
     </g>
     <g id="text_12">
      <!-- 0 -->
      <g transform="translate(32.525625 199.253)scale(0.12 -0.12)">
       <use xlink:href="#DejaVuSans-30"/>
      </g>
     </g>
    </g>
    <g id="ytick_6">
     <g id="line2d_39">
      <g>
       <use style="stroke:#000000;stroke-width:0.5;" x="44.160625" xlink:href="#m942b6ff57b" y="152.74175"/>
      </g>
     </g>
     <g id="line2d_40">
      <g>
       <use style="stroke:#000000;stroke-width:0.5;" x="490.560625" xlink:href="#me3195fe4bf" y="152.74175"/>
      </g>
     </g>
     <g id="text_13">
      <!-- 100 -->
      <g transform="translate(17.255625 156.053)scale(0.12 -0.12)">
       <use xlink:href="#DejaVuSans-31"/>
       <use x="63.623046875" xlink:href="#DejaVuSans-30"/>
       <use x="127.24609375" xlink:href="#DejaVuSans-30"/>
      </g>
     </g>
    </g>
    <g id="ytick_7">
     <g id="line2d_41">
      <g>
       <use style="stroke:#000000;stroke-width:0.5;" x="44.160625" xlink:href="#m942b6ff57b" y="109.54175"/>
      </g>
     </g>
     <g id="line2d_42">
      <g>
       <use style="stroke:#000000;stroke-width:0.5;" x="490.560625" xlink:href="#me3195fe4bf" y="109.54175"/>
      </g>
     </g>
     <g id="text_14">
      <!-- 200 -->
      <g transform="translate(17.255625 112.853)scale(0.12 -0.12)">
       <use xlink:href="#DejaVuSans-32"/>
       <use x="63.623046875" xlink:href="#DejaVuSans-30"/>
       <use x="127.24609375" xlink:href="#DejaVuSans-30"/>
      </g>
     </g>
    </g>
    <g id="ytick_8">
     <g id="line2d_43">
      <g>
       <use style="stroke:#000000;stroke-width:0.5;" x="44.160625" xlink:href="#m942b6ff57b" y="66.34175"/>
      </g>
     </g>
     <g id="line2d_44">
      <g>
       <use style="stroke:#000000;stroke-width:0.5;" x="490.560625" xlink:href="#me3195fe4bf" y="66.34175"/>
      </g>
     </g>
     <g id="text_15">
      <!-- 300 -->
      <g transform="translate(17.255625 69.653)scale(0.12 -0.12)">
       <use xlink:href="#DejaVuSans-33"/>
       <use x="63.623046875" xlink:href="#DejaVuSans-30"/>
       <use x="127.24609375" xlink:href="#DejaVuSans-30"/>
      </g>
     </g>
    </g>
    <g id="ytick_9">
     <g id="line2d_45">
      <g>
       <use style="stroke:#000000;stroke-width:0.5;" x="44.160625" xlink:href="#m942b6ff57b" y="23.14175"/>
      </g>
     </g>
     <g id="line2d_46">
      <g>
       <use style="stroke:#000000;stroke-width:0.5;" x="490.560625" xlink:href="#me3195fe4bf" y="23.14175"/>
      </g>
     </g>
     <g id="text_16">
      <!-- 400 -->
      <g transform="translate(17.255625 26.453)scale(0.12 -0.12)">
       <use xlink:href="#DejaVuSans-34"/>
       <use x="63.623046875" xlink:href="#DejaVuSans-30"/>
       <use x="127.24609375" xlink:href="#DejaVuSans-30"/>
      </g>
     </g>
    </g>
   </g>
   <g id="text_17">
    <!-- /threads/count/instantaneous/terminated change -->
    <defs>
     <path d="M 25.390625 72.90625 
L 33.6875 72.90625 
L 8.296875 -9.28125 
L 0 -9.28125 
z
" id="DejaVuSans-2f"/>
     <path d="M 30.609375 48.390625 
Q 23.390625 48.390625 19.1875 42.75 
Q 14.984375 37.109375 14.984375 27.296875 
Q 14.984375 17.484375 19.15625 11.84375 
Q 23.34375 6.203125 30.609375 6.203125 
Q 37.796875 6.203125 41.984375 11.859375 
Q 46.1875 17.53125 46.1875 27.296875 
Q 46.1875 37.015625 41.984375 42.703125 
Q 37.796875 48.390625 30.609375 48.390625 
M 30.609375 56 
Q 42.328125 56 49.015625 48.375 
Q 55.71875 40.765625 55.71875 27.296875 
Q 55.71875 13.875 49.015625 6.21875 
Q 42.328125 -1.421875 30.609375 -1.421875 
Q 18.84375 -1.421875 12.171875 6.21875 
Q 5.515625 13.875 5.515625 27.296875 
Q 5.515625 40.765625 12.171875 48.375 
Q 18.84375 56 30.609375 56 
" id="DejaVuSans-6f"/>
     <path d="M 54.890625 33.015625 
L 54.890625 0 
L 45.90625 0 
L 45.90625 32.71875 
Q 45.90625 40.484375 42.875 44.328125 
Q 39.84375 48.1875 33.796875 48.1875 
Q 26.515625 48.1875 22.3125 43.546875 
Q 18.109375 38.921875 18.109375 30.90625 
L 18.109375 0 
L 9.078125 0 
L 9.078125 54.6875 
L 18.109375 54.6875 
L 18.109375 46.1875 
Q 21.34375 51.125 25.703125 53.5625 
Q 30.078125 56 35.796875 56 
Q 45.21875 56 50.046875 50.171875 
Q 54.890625 44.34375 54.890625 33.015625 
" id="DejaVuSans-6e"/>
     <path id="DejaVuSans-20"/>
     <path d="M 54.890625 33.015625 
L 54.890625 0 
L 45.90625 0 
L 45.90625 32.71875 
Q 45.90625 40.484375 42.875 44.328125 
Q 39.84375 48.1875 33.796875 48.1875 
Q 26.515625 48.1875 22.3125 43.546875 
Q 18.109375 38.921875 18.109375 30.90625 
L 18.109375 0 
L 9.078125 0 
L 9.078125 75.984375 
L 18.109375 75.984375 
L 18.109375 46.1875 
Q 21.34375 51.125 25.703125 53.5625 
Q 30.078125 56 35.796875 56 
Q 45.21875 56 50.046875 50.171875 
Q 54.890625 44.34375 54.890625 33.015625 
" id="DejaVuSans-68"/>
     <path d="M 8.5 21.578125 
L 8.5 54.6875 
L 17.484375 54.6875 
L 17.484375 21.921875 
Q 17.484375 14.15625 20.5 10.265625 
Q 23.53125 6.390625 29.59375 6.390625 
Q 36.859375 6.390625 41.078125 11.03125 
Q 45.3125 15.671875 45.3125 23.6875 
L 45.3125 54.6875 
L 54.296875 54.6875 
L 54.296875 0 
L 45.3125 0 
L 45.3125 8.40625 
Q 42.046875 3.421875 37.71875 1 
Q 33.40625 -1.421875 27.6875 -1.421875 
Q 18.265625 -1.421875 13.375 4.4375 
Q 8.5 10.296875 8.5 21.578125 
M 31.109375 56 
z
" id="DejaVuSans-75"/>
     <path d="M 45.40625 27.984375 
Q 45.40625 37.75 41.375 43.109375 
Q 37.359375 48.484375 30.078125 48.484375 
Q 22.859375 48.484375 18.828125 43.109375 
Q 14.796875 37.75 14.796875 27.984375 
Q 14.796875 18.265625 18.828125 12.890625 
Q 22.859375 7.515625 30.078125 7.515625 
Q 37.359375 7.515625 41.375 12.890625 
Q 45.40625 18.265625 45.40625 27.984375 
M 54.390625 6.78125 
Q 54.390625 -7.171875 48.1875 -13.984375 
Q 42 -20.796875 29.203125 -20.796875 
Q 24.46875 -20.796875 20.265625 -20.09375 
Q 16.0625 -19.390625 12.109375 -17.921875 
L 12.109375 -9.1875 
Q 16.0625 -11.328125 19.921875 -12.34375 
Q 23.78125 -13.375 27.78125 -13.375 
Q 36.625 -13.375 41.015625 -8.765625 
Q 45.40625 -4.15625 45.40625 5.171875 
L 45.40625 9.625 
Q 42.625 4.78125 38.28125 2.390625 
Q 33.9375 0 27.875 0 
Q 17.828125 0 11.671875 7.65625 
Q 5.515625 15.328125 5.515625 27.984375 
Q 5.515625 40.671875 11.671875 48.328125 
Q 17.828125 56 27.875 56 
Q 33.9375 56 38.28125 53.609375 
Q 42.625 51.21875 45.40625 46.390625 
L 45.40625 54.6875 
L 54.390625 54.6875 
z
" id="DejaVuSans-67"/>
     <path d="M 45.40625 46.390625 
L 45.40625 75.984375 
L 54.390625 75.984375 
L 54.390625 0 
L 45.40625 0 
L 45.40625 8.203125 
Q 42.578125 3.328125 38.25 0.953125 
Q 33.9375 -1.421875 27.875 -1.421875 
Q 17.96875 -1.421875 11.734375 6.484375 
Q 5.515625 14.40625 5.515625 27.296875 
Q 5.515625 40.1875 11.734375 48.09375 
Q 17.96875 56 27.875 56 
Q 33.9375 56 38.25 53.625 
Q 42.578125 51.265625 45.40625 46.390625 
M 14.796875 27.296875 
Q 14.796875 17.390625 18.875 11.75 
Q 22.953125 6.109375 30.078125 6.109375 
Q 37.203125 6.109375 41.296875 11.75 
Q 45.40625 17.390625 45.40625 27.296875 
Q 45.40625 37.203125 41.296875 42.84375 
Q 37.203125 48.484375 30.078125 48.484375 
Q 22.953125 48.484375 18.875 42.84375 
Q 14.796875 37.203125 14.796875 27.296875 
" id="DejaVuSans-64"/>
     <path d="M 41.109375 46.296875 
Q 39.59375 47.171875 37.8125 47.578125 
Q 36.03125 48 33.890625 48 
Q 26.265625 48 22.1875 43.046875 
Q 18.109375 38.09375 18.109375 28.8125 
L 18.109375 0 
L 9.078125 0 
L 9.078125 54.6875 
L 18.109375 54.6875 
L 18.109375 46.1875 
Q 20.953125 51.171875 25.484375 53.578125 
Q 30.03125 56 36.53125 56 
Q 37.453125 56 38.578125 55.875 
Q 39.703125 55.765625 41.0625 55.515625 
z
" id="DejaVuSans-72"/>
     <path d="M 48.78125 52.59375 
L 48.78125 44.1875 
Q 44.96875 46.296875 41.140625 47.34375 
Q 37.3125 48.390625 33.40625 48.390625 
Q 24.65625 48.390625 19.8125 42.84375 
Q 14.984375 37.3125 14.984375 27.296875 
Q 14.984375 17.28125 19.8125 11.734375 
Q 24.65625 6.203125 33.40625 6.203125 
Q 37.3125 6.203125 41.140625 7.25 
Q 44.96875 8.296875 48.78125 10.40625 
L 48.78125 2.09375 
Q 45.015625 0.34375 40.984375 -0.53125 
Q 36.96875 -1.421875 32.421875 -1.421875 
Q 20.0625 -1.421875 12.78125 6.34375 
Q 5.515625 14.109375 5.515625 27.296875 
Q 5.515625 40.671875 12.859375 48.328125 
Q 20.21875 56 33.015625 56 
Q 37.15625 56 41.109375 55.140625 
Q 45.0625 54.296875 48.78125 52.59375 
" id="DejaVuSans-63"/>
     <path d="M 44.28125 53.078125 
L 44.28125 44.578125 
Q 40.484375 46.53125 36.375 47.5 
Q 32.28125 48.484375 27.875 48.484375 
Q 21.1875 48.484375 17.84375 46.4375 
Q 14.5 44.390625 14.5 40.28125 
Q 14.5 37.15625 16.890625 35.375 
Q 19.28125 33.59375 26.515625 31.984375 
L 29.59375 31.296875 
Q 39.15625 29.25 43.1875 25.515625 
Q 47.21875 21.78125 47.21875 15.09375 
Q 47.21875 7.46875 41.1875 3.015625 
Q 35.15625 -1.421875 24.609375 -1.421875 
Q 20.21875 -1.421875 15.453125 -0.5625 
Q 10.6875 0.296875 5.421875 2 
L 5.421875 11.28125 
Q 10.40625 8.6875 15.234375 7.390625 
Q 20.0625 6.109375 24.8125 6.109375 
Q 31.15625 6.109375 34.5625 8.28125 
Q 37.984375 10.453125 37.984375 14.40625 
Q 37.984375 18.0625 35.515625 20.015625 
Q 33.0625 21.96875 24.703125 23.78125 
L 21.578125 24.515625 
Q 13.234375 26.265625 9.515625 29.90625 
Q 5.8125 33.546875 5.8125 39.890625 
Q 5.8125 47.609375 11.28125 51.796875 
Q 16.75 56 26.8125 56 
Q 31.78125 56 36.171875 55.265625 
Q 40.578125 54.546875 44.28125 53.078125 
" id="DejaVuSans-73"/>
     <path d="M 34.28125 27.484375 
Q 23.390625 27.484375 19.1875 25 
Q 14.984375 22.515625 14.984375 16.5 
Q 14.984375 11.71875 18.140625 8.90625 
Q 21.296875 6.109375 26.703125 6.109375 
Q 34.1875 6.109375 38.703125 11.40625 
Q 43.21875 16.703125 43.21875 25.484375 
L 43.21875 27.484375 
z
M 52.203125 31.203125 
L 52.203125 0 
L 43.21875 0 
L 43.21875 8.296875 
Q 40.140625 3.328125 35.546875 0.953125 
Q 30.953125 -1.421875 24.3125 -1.421875 
Q 15.921875 -1.421875 10.953125 3.296875 
Q 6 8.015625 6 15.921875 
Q 6 25.140625 12.171875 29.828125 
Q 18.359375 34.515625 30.609375 34.515625 
L 43.21875 34.515625 
L 43.21875 35.40625 
Q 43.21875 41.609375 39.140625 45 
Q 35.0625 48.390625 27.6875 48.390625 
Q 23 48.390625 18.546875 47.265625 
Q 14.109375 46.140625 10.015625 43.890625 
L 10.015625 52.203125 
Q 14.9375 54.109375 19.578125 55.046875 
Q 24.21875 56 28.609375 56 
Q 40.484375 56 46.34375 49.84375 
Q 52.203125 43.703125 52.203125 31.203125 
" id="DejaVuSans-61"/>
    </defs>
    <g transform="translate(89.968375 18.14175)scale(0.144 -0.144)">
     <use xlink:href="#DejaVuSans-2f"/>
     <use x="33.69140625" xlink:href="#DejaVuSans-74"/>
     <use x="72.900390625" xlink:href="#DejaVuSans-68"/>
     <use x="136.279296875" xlink:href="#DejaVuSans-72"/>
     <use x="177.361328125" xlink:href="#DejaVuSans-65"/>
     <use x="238.884765625" xlink:href="#DejaVuSans-61"/>
     <use x="300.1640625" xlink:href="#DejaVuSans-64"/>
     <use x="363.640625" xlink:href="#DejaVuSans-73"/>
     <use x="415.740234375" xlink:href="#DejaVuSans-2f"/>
     <use x="449.431640625" xlink:href="#DejaVuSans-63"/>
     <use x="504.412109375" xlink:href="#DejaVuSans-6f"/>
     <use x="565.59375" xlink:href="#DejaVuSans-75"/>
     <use x="628.97265625" xlink:href="#DejaVuSans-6e"/>
     <use x="692.3515625" xlink:href="#DejaVuSans-74"/>
     <use x="731.560546875" xlink:href="#DejaVuSans-2f"/>
     <use x="765.251953125" xlink:href="#DejaVuSans-69"/>
     <use x="793.03515625" xlink:href="#DejaVuSans-6e"/>
     <use x="856.4140625" xlink:href="#DejaVuSans-73"/>
     <use x="908.513671875" xlink:href="#DejaVuSans-74"/>
     <use x="947.72265625" xlink:href="#DejaVuSans-61"/>
     <use x="1009.00195312" xlink:href="#DejaVuSans-6e"/>
     <use x="1072.38085938" xlink:href="#DejaVuSans-74"/>
     <use x="1111.58984375" xlink:href="#DejaVuSans-61"/>
     <use x="1172.86914062" xlink:href="#DejaVuSans-6e"/>
     <use x="1236.24804688" xlink:href="#DejaVuSans-65"/>
     <use x="1297.77148438" xlink:href="#DejaVuSans-6f"/>
     <use x="1358.953125" xlink:href="#DejaVuSans-75"/>
     <use x="1422.33203125" xlink:href="#DejaVuSans-73"/>
     <use x="1474.43164062" xlink:href="#DejaVuSans-2f"/>
     <use x="1508.12304688" xlink:href="#DejaVuSans-74"/>
     <use x="1547.33203125" xlink:href="#DejaVuSans-65"/>
     <use x="1608.85546875" xlink:href="#DejaVuSans-72"/>
     <use x="1649.953125" xlink:href="#DejaVuSans-6d"/>
     <use x="1747.36523438" xlink:href="#DejaVuSans-69"/>
     <use x="1775.1484375" xlink:href="#DejaVuSans-6e"/>
     <use x="1838.52734375" xlink:href="#DejaVuSans-61"/>
     <use x="1899.80664062" xlink:href="#DejaVuSans-74"/>
     <use x="1939.015625" xlink:href="#DejaVuSans-65"/>
     <use x="2000.5390625" xlink:href="#DejaVuSans-64"/>
     <use x="2064.015625" xlink:href="#DejaVuSans-20"/>
     <use x="2095.80273438" xlink:href="#DejaVuSans-63"/>
     <use x="2150.78320312" xlink:href="#DejaVuSans-68"/>
     <use x="2214.16210938" xlink:href="#DejaVuSans-61"/>
     <use x="2275.44140625" xlink:href="#DejaVuSans-6e"/>
     <use x="2338.8203125" xlink:href="#DejaVuSans-67"/>
     <use x="2402.296875" xlink:href="#DejaVuSans-65"/>
    </g>
   </g>
   <g id="legend_1">
    <g id="patch_7">
     <path d="M 497.760625 367.19375 
L 631.714375 367.19375 
L 631.714375 24.68975 
L 497.760625 24.68975 
z
" style="fill:#ffffff;stroke:#000000;stroke-linejoin:miter;"/>
    </g>
    <g id="line2d_47">
     <path d="M 507.840625 36.3515 
L 528.000625 36.3515 
" style="fill:none;stroke:#0000ff;stroke-linecap:square;"/>
    </g>
    <g id="line2d_48"/>
    <g id="text_18">
     <!-- locality#0 -->
     <defs>
      <path d="M 51.125 44 
L 36.921875 44 
L 32.8125 27.6875 
L 47.125 27.6875 
z
M 43.796875 71.78125 
L 38.71875 51.515625 
L 52.984375 51.515625 
L 58.109375 71.78125 
L 65.921875 71.78125 
L 60.890625 51.515625 
L 76.125 51.515625 
L 76.125 44 
L 58.984375 44 
L 54.984375 27.6875 
L 70.515625 27.6875 
L 70.515625 20.21875 
L 53.078125 20.21875 
L 48 0 
L 40.1875 0 
L 45.21875 20.21875 
L 30.90625 20.21875 
L 25.875 0 
L 18.015625 0 
L 23.09375 20.21875 
L 7.71875 20.21875 
L 7.71875 27.6875 
L 24.90625 27.6875 
L 29 44 
L 13.28125 44 
L 13.28125 51.515625 
L 30.90625 51.515625 
L 35.890625 71.78125 
z
" id="DejaVuSans-23"/>
      <path d="M 32.171875 -5.078125 
Q 28.375 -14.84375 24.75 -17.8125 
Q 21.140625 -20.796875 15.09375 -20.796875 
L 7.90625 -20.796875 
L 7.90625 -13.28125 
L 13.1875 -13.28125 
Q 16.890625 -13.28125 18.9375 -11.515625 
Q 21 -9.765625 23.484375 -3.21875 
L 25.09375 0.875 
L 2.984375 54.6875 
L 12.5 54.6875 
L 29.59375 11.921875 
L 46.6875 54.6875 
L 56.203125 54.6875 
z
" id="DejaVuSans-79"/>
      <path d="M 9.421875 75.984375 
L 18.40625 75.984375 
L 18.40625 0 
L 9.421875 0 
z
" id="DejaVuSans-6c"/>
     </defs>
     <g transform="translate(543.840625 41.3915)scale(0.144 -0.144)">
      <use xlink:href="#DejaVuSans-6c"/>
      <use x="27.783203125" xlink:href="#DejaVuSans-6f"/>
      <use x="88.96484375" xlink:href="#DejaVuSans-63"/>
      <use x="143.9453125" xlink:href="#DejaVuSans-61"/>
      <use x="205.224609375" xlink:href="#DejaVuSans-6c"/>
      <use x="233.0078125" xlink:href="#DejaVuSans-69"/>
      <use x="260.791015625" xlink:href="#DejaVuSans-74"/>
      <use x="300.0" xlink:href="#DejaVuSans-79"/>
      <use x="359.1796875" xlink:href="#DejaVuSans-23"/>
      <use x="442.96875" xlink:href="#DejaVuSans-30"/>
     </g>
    </g>
    <g id="line2d_49">
     <path d="M 507.840625 57.488 
L 528.000625 57.488 
" style="fill:none;stroke:#008000;stroke-linecap:square;"/>
    </g>
    <g id="line2d_50"/>
    <g id="text_19">
     <!-- locality#1 -->
     <g transform="translate(543.840625 62.528)scale(0.144 -0.144)">
      <use xlink:href="#DejaVuSans-6c"/>
      <use x="27.783203125" xlink:href="#DejaVuSans-6f"/>
      <use x="88.96484375" xlink:href="#DejaVuSans-63"/>
      <use x="143.9453125" xlink:href="#DejaVuSans-61"/>
      <use x="205.224609375" xlink:href="#DejaVuSans-6c"/>
      <use x="233.0078125" xlink:href="#DejaVuSans-69"/>
      <use x="260.791015625" xlink:href="#DejaVuSans-74"/>
      <use x="300.0" xlink:href="#DejaVuSans-79"/>
      <use x="359.1796875" xlink:href="#DejaVuSans-23"/>
      <use x="442.96875" xlink:href="#DejaVuSans-31"/>
     </g>
    </g>
    <g id="line2d_51">
     <path d="M 507.840625 78.6245 
L 528.000625 78.6245 
" style="fill:none;stroke:#ff0000;stroke-linecap:square;"/>
    </g>
    <g id="line2d_52"/>
    <g id="text_20">
     <!-- locality#10 -->
     <g transform="translate(543.840625 83.6645)scale(0.144 -0.144)">
      <use xlink:href="#DejaVuSans-6c"/>
      <use x="27.783203125" xlink:href="#DejaVuSans-6f"/>
      <use x="88.96484375" xlink:href="#DejaVuSans-63"/>
      <use x="143.9453125" xlink:href="#DejaVuSans-61"/>
      <use x="205.224609375" xlink:href="#DejaVuSans-6c"/>
      <use x="233.0078125" xlink:href="#DejaVuSans-69"/>
      <use x="260.791015625" xlink:href="#DejaVuSans-74"/>
      <use x="300.0" xlink:href="#DejaVuSans-79"/>
      <use x="359.1796875" xlink:href="#DejaVuSans-23"/>
      <use x="442.96875" xlink:href="#DejaVuSans-31"/>
      <use x="506.591796875" xlink:href="#DejaVuSans-30"/>
     </g>
    </g>
    <g id="line2d_53">
     <path d="M 507.840625 99.761 
L 528.000625 99.761 
" style="fill:none;stroke:#00bfbf;stroke-linecap:square;"/>
    </g>
    <g id="line2d_54"/>
    <g id="text_21">
     <!-- locality#11 -->
     <g transform="translate(543.840625 104.801)scale(0.144 -0.144)">
      <use xlink:href="#DejaVuSans-6c"/>
      <use x="27.783203125" xlink:href="#DejaVuSans-6f"/>
      <use x="88.96484375" xlink:href="#DejaVuSans-63"/>
      <use x="143.9453125" xlink:href="#DejaVuSans-61"/>
      <use x="205.224609375" xlink:href="#DejaVuSans-6c"/>
      <use x="233.0078125" xlink:href="#DejaVuSans-69"/>
      <use x="260.791015625" xlink:href="#DejaVuSans-74"/>
      <use x="300.0" xlink:href="#DejaVuSans-79"/>
      <use x="359.1796875" xlink:href="#DejaVuSans-23"/>
      <use x="442.96875" xlink:href="#DejaVuSans-31"/>
      <use x="506.591796875" xlink:href="#DejaVuSans-31"/>
     </g>
    </g>
    <g id="line2d_55">
     <path d="M 507.840625 120.8975 
L 528.000625 120.8975 
" style="fill:none;stroke:#bf00bf;stroke-linecap:square;"/>
    </g>
    <g id="line2d_56"/>
    <g id="text_22">
     <!-- locality#12 -->
     <g transform="translate(543.840625 125.9375)scale(0.144 -0.144)">
      <use xlink:href="#DejaVuSans-6c"/>
      <use x="27.783203125" xlink:href="#DejaVuSans-6f"/>
      <use x="88.96484375" xlink:href="#DejaVuSans-63"/>
      <use x="143.9453125" xlink:href="#DejaVuSans-61"/>
      <use x="205.224609375" xlink:href="#DejaVuSans-6c"/>
      <use x="233.0078125" xlink:href="#DejaVuSans-69"/>
      <use x="260.791015625" xlink:href="#DejaVuSans-74"/>
      <use x="300.0" xlink:href="#DejaVuSans-79"/>
      <use x="359.1796875" xlink:href="#DejaVuSans-23"/>
      <use x="442.96875" xlink:href="#DejaVuSans-31"/>
      <use x="506.591796875" xlink:href="#DejaVuSans-32"/>
     </g>
    </g>
    <g id="line2d_57">
     <path d="M 507.840625 142.034 
L 528.000625 142.034 
" style="fill:none;stroke:#bfbf00;stroke-linecap:square;"/>
    </g>
    <g id="line2d_58"/>
    <g id="text_23">
     <!-- locality#13 -->
     <g transform="translate(543.840625 147.074)scale(0.144 -0.144)">
      <use xlink:href="#DejaVuSans-6c"/>
      <use x="27.783203125" xlink:href="#DejaVuSans-6f"/>
      <use x="88.96484375" xlink:href="#DejaVuSans-63"/>
      <use x="143.9453125" xlink:href="#DejaVuSans-61"/>
      <use x="205.224609375" xlink:href="#DejaVuSans-6c"/>
      <use x="233.0078125" xlink:href="#DejaVuSans-69"/>
      <use x="260.791015625" xlink:href="#DejaVuSans-74"/>
      <use x="300.0" xlink:href="#DejaVuSans-79"/>
      <use x="359.1796875" xlink:href="#DejaVuSans-23"/>
      <use x="442.96875" xlink:href="#DejaVuSans-31"/>
      <use x="506.591796875" xlink:href="#DejaVuSans-33"/>
     </g>
    </g>
    <g id="line2d_59">
     <path d="M 507.840625 163.1705 
L 528.000625 163.1705 
" style="fill:none;stroke:#000000;stroke-linecap:square;"/>
    </g>
    <g id="line2d_60"/>
    <g id="text_24">
     <!-- locality#14 -->
     <g transform="translate(543.840625 168.2105)scale(0.144 -0.144)">
      <use xlink:href="#DejaVuSans-6c"/>
      <use x="27.783203125" xlink:href="#DejaVuSans-6f"/>
      <use x="88.96484375" xlink:href="#DejaVuSans-63"/>
      <use x="143.9453125" xlink:href="#DejaVuSans-61"/>
      <use x="205.224609375" xlink:href="#DejaVuSans-6c"/>
      <use x="233.0078125" xlink:href="#DejaVuSans-69"/>
      <use x="260.791015625" xlink:href="#DejaVuSans-74"/>
      <use x="300.0" xlink:href="#DejaVuSans-79"/>
      <use x="359.1796875" xlink:href="#DejaVuSans-23"/>
      <use x="442.96875" xlink:href="#DejaVuSans-31"/>
      <use x="506.591796875" xlink:href="#DejaVuSans-34"/>
     </g>
    </g>
    <g id="line2d_61">
     <path d="M 507.840625 184.307 
L 528.000625 184.307 
" style="fill:none;stroke:#0000ff;stroke-linecap:square;"/>
    </g>
    <g id="line2d_62"/>
    <g id="text_25">
     <!-- locality#15 -->
     <g transform="translate(543.840625 189.347)scale(0.144 -0.144)">
      <use xlink:href="#DejaVuSans-6c"/>
      <use x="27.783203125" xlink:href="#DejaVuSans-6f"/>
      <use x="88.96484375" xlink:href="#DejaVuSans-63"/>
      <use x="143.9453125" xlink:href="#DejaVuSans-61"/>
      <use x="205.224609375" xlink:href="#DejaVuSans-6c"/>
      <use x="233.0078125" xlink:href="#DejaVuSans-69"/>
      <use x="260.791015625" xlink:href="#DejaVuSans-74"/>
      <use x="300.0" xlink:href="#DejaVuSans-79"/>
      <use x="359.1796875" xlink:href="#DejaVuSans-23"/>
      <use x="442.96875" xlink:href="#DejaVuSans-31"/>
      <use x="506.591796875" xlink:href="#DejaVuSans-35"/>
     </g>
    </g>
    <g id="line2d_63">
     <path d="M 507.840625 205.4435 
L 528.000625 205.4435 
" style="fill:none;stroke:#008000;stroke-linecap:square;"/>
    </g>
    <g id="line2d_64"/>
    <g id="text_26">
     <!-- locality#2 -->
     <g transform="translate(543.840625 210.4835)scale(0.144 -0.144)">
      <use xlink:href="#DejaVuSans-6c"/>
      <use x="27.783203125" xlink:href="#DejaVuSans-6f"/>
      <use x="88.96484375" xlink:href="#DejaVuSans-63"/>
      <use x="143.9453125" xlink:href="#DejaVuSans-61"/>
      <use x="205.224609375" xlink:href="#DejaVuSans-6c"/>
      <use x="233.0078125" xlink:href="#DejaVuSans-69"/>
      <use x="260.791015625" xlink:href="#DejaVuSans-74"/>
      <use x="300.0" xlink:href="#DejaVuSans-79"/>
      <use x="359.1796875" xlink:href="#DejaVuSans-23"/>
      <use x="442.96875" xlink:href="#DejaVuSans-32"/>
     </g>
    </g>
    <g id="line2d_65">
     <path d="M 507.840625 226.58 
L 528.000625 226.58 
" style="fill:none;stroke:#ff0000;stroke-linecap:square;"/>
    </g>
    <g id="line2d_66"/>
    <g id="text_27">
     <!-- locality#3 -->
     <g transform="translate(543.840625 231.62)scale(0.144 -0.144)">
      <use xlink:href="#DejaVuSans-6c"/>
      <use x="27.783203125" xlink:href="#DejaVuSans-6f"/>
      <use x="88.96484375" xlink:href="#DejaVuSans-63"/>
      <use x="143.9453125" xlink:href="#DejaVuSans-61"/>
      <use x="205.224609375" xlink:href="#DejaVuSans-6c"/>
      <use x="233.0078125" xlink:href="#DejaVuSans-69"/>
      <use x="260.791015625" xlink:href="#DejaVuSans-74"/>
      <use x="300.0" xlink:href="#DejaVuSans-79"/>
      <use x="359.1796875" xlink:href="#DejaVuSans-23"/>
      <use x="442.96875" xlink:href="#DejaVuSans-33"/>
     </g>
    </g>
    <g id="line2d_67">
     <path d="M 507.840625 247.7165 
L 528.000625 247.7165 
" style="fill:none;stroke:#00bfbf;stroke-linecap:square;"/>
    </g>
    <g id="line2d_68"/>
    <g id="text_28">
     <!-- locality#4 -->
     <g transform="translate(543.840625 252.7565)scale(0.144 -0.144)">
      <use xlink:href="#DejaVuSans-6c"/>
      <use x="27.783203125" xlink:href="#DejaVuSans-6f"/>
      <use x="88.96484375" xlink:href="#DejaVuSans-63"/>
      <use x="143.9453125" xlink:href="#DejaVuSans-61"/>
      <use x="205.224609375" xlink:href="#DejaVuSans-6c"/>
      <use x="233.0078125" xlink:href="#DejaVuSans-69"/>
      <use x="260.791015625" xlink:href="#DejaVuSans-74"/>
      <use x="300.0" xlink:href="#DejaVuSans-79"/>
      <use x="359.1796875" xlink:href="#DejaVuSans-23"/>
      <use x="442.96875" xlink:href="#DejaVuSans-34"/>
     </g>
    </g>
    <g id="line2d_69">
     <path d="M 507.840625 268.853 
L 528.000625 268.853 
" style="fill:none;stroke:#bf00bf;stroke-linecap:square;"/>
    </g>
    <g id="line2d_70"/>
    <g id="text_29">
     <!-- locality#5 -->
     <g transform="translate(543.840625 273.893)scale(0.144 -0.144)">
      <use xlink:href="#DejaVuSans-6c"/>
      <use x="27.783203125" xlink:href="#DejaVuSans-6f"/>
      <use x="88.96484375" xlink:href="#DejaVuSans-63"/>
      <use x="143.9453125" xlink:href="#DejaVuSans-61"/>
      <use x="205.224609375" xlink:href="#DejaVuSans-6c"/>
      <use x="233.0078125" xlink:href="#DejaVuSans-69"/>
      <use x="260.791015625" xlink:href="#DejaVuSans-74"/>
      <use x="300.0" xlink:href="#DejaVuSans-79"/>
      <use x="359.1796875" xlink:href="#DejaVuSans-23"/>
      <use x="442.96875" xlink:href="#DejaVuSans-35"/>
     </g>
    </g>
    <g id="line2d_71">
     <path d="M 507.840625 289.9895 
L 528.000625 289.9895 
" style="fill:none;stroke:#bfbf00;stroke-linecap:square;"/>
    </g>
    <g id="line2d_72"/>
    <g id="text_30">
     <!-- locality#6 -->
     <defs>
      <path d="M 33.015625 40.375 
Q 26.375 40.375 22.484375 35.828125 
Q 18.609375 31.296875 18.609375 23.390625 
Q 18.609375 15.53125 22.484375 10.953125 
Q 26.375 6.390625 33.015625 6.390625 
Q 39.65625 6.390625 43.53125 10.953125 
Q 47.40625 15.53125 47.40625 23.390625 
Q 47.40625 31.296875 43.53125 35.828125 
Q 39.65625 40.375 33.015625 40.375 
M 52.59375 71.296875 
L 52.59375 62.3125 
Q 48.875 64.0625 45.09375 64.984375 
Q 41.3125 65.921875 37.59375 65.921875 
Q 27.828125 65.921875 22.671875 59.328125 
Q 17.53125 52.734375 16.796875 39.40625 
Q 19.671875 43.65625 24.015625 45.921875 
Q 28.375 48.1875 33.59375 48.1875 
Q 44.578125 48.1875 50.953125 41.515625 
Q 57.328125 34.859375 57.328125 23.390625 
Q 57.328125 12.15625 50.6875 5.359375 
Q 44.046875 -1.421875 33.015625 -1.421875 
Q 20.359375 -1.421875 13.671875 8.265625 
Q 6.984375 17.96875 6.984375 36.375 
Q 6.984375 53.65625 15.1875 63.9375 
Q 23.390625 74.21875 37.203125 74.21875 
Q 40.921875 74.21875 44.703125 73.484375 
Q 48.484375 72.75 52.59375 71.296875 
" id="DejaVuSans-36"/>
     </defs>
     <g transform="translate(543.840625 295.0295)scale(0.144 -0.144)">
      <use xlink:href="#DejaVuSans-6c"/>
      <use x="27.783203125" xlink:href="#DejaVuSans-6f"/>
      <use x="88.96484375" xlink:href="#DejaVuSans-63"/>
      <use x="143.9453125" xlink:href="#DejaVuSans-61"/>
      <use x="205.224609375" xlink:href="#DejaVuSans-6c"/>
      <use x="233.0078125" xlink:href="#DejaVuSans-69"/>
      <use x="260.791015625" xlink:href="#DejaVuSans-74"/>
      <use x="300.0" xlink:href="#DejaVuSans-79"/>
      <use x="359.1796875" xlink:href="#DejaVuSans-23"/>
      <use x="442.96875" xlink:href="#DejaVuSans-36"/>
     </g>
    </g>
    <g id="line2d_73">
     <path d="M 507.840625 311.126 
L 528.000625 311.126 
" style="fill:none;stroke:#000000;stroke-linecap:square;"/>
    </g>
    <g id="line2d_74"/>
    <g id="text_31">
     <!-- locality#7 -->
     <defs>
      <path d="M 8.203125 72.90625 
L 55.078125 72.90625 
L 55.078125 68.703125 
L 28.609375 0 
L 18.3125 0 
L 43.21875 64.59375 
L 8.203125 64.59375 
z
" id="DejaVuSans-37"/>
     </defs>
     <g transform="translate(543.840625 316.166)scale(0.144 -0.144)">
      <use xlink:href="#DejaVuSans-6c"/>
      <use x="27.783203125" xlink:href="#DejaVuSans-6f"/>
      <use x="88.96484375" xlink:href="#DejaVuSans-63"/>
      <use x="143.9453125" xlink:href="#DejaVuSans-61"/>
      <use x="205.224609375" xlink:href="#DejaVuSans-6c"/>
      <use x="233.0078125" xlink:href="#DejaVuSans-69"/>
      <use x="260.791015625" xlink:href="#DejaVuSans-74"/>
      <use x="300.0" xlink:href="#DejaVuSans-79"/>
      <use x="359.1796875" xlink:href="#DejaVuSans-23"/>
      <use x="442.96875" xlink:href="#DejaVuSans-37"/>
     </g>
    </g>
    <g id="line2d_75">
     <path d="M 507.840625 332.2625 
L 528.000625 332.2625 
" style="fill:none;stroke:#0000ff;stroke-linecap:square;"/>
    </g>
    <g id="line2d_76"/>
    <g id="text_32">
     <!-- locality#8 -->
     <defs>
      <path d="M 31.78125 34.625 
Q 24.75 34.625 20.71875 30.859375 
Q 16.703125 27.09375 16.703125 20.515625 
Q 16.703125 13.921875 20.71875 10.15625 
Q 24.75 6.390625 31.78125 6.390625 
Q 38.8125 6.390625 42.859375 10.171875 
Q 46.921875 13.96875 46.921875 20.515625 
Q 46.921875 27.09375 42.890625 30.859375 
Q 38.875 34.625 31.78125 34.625 
M 21.921875 38.8125 
Q 15.578125 40.375 12.03125 44.71875 
Q 8.5 49.078125 8.5 55.328125 
Q 8.5 64.0625 14.71875 69.140625 
Q 20.953125 74.21875 31.78125 74.21875 
Q 42.671875 74.21875 48.875 69.140625 
Q 55.078125 64.0625 55.078125 55.328125 
Q 55.078125 49.078125 51.53125 44.71875 
Q 48 40.375 41.703125 38.8125 
Q 48.828125 37.15625 52.796875 32.3125 
Q 56.78125 27.484375 56.78125 20.515625 
Q 56.78125 9.90625 50.3125 4.234375 
Q 43.84375 -1.421875 31.78125 -1.421875 
Q 19.734375 -1.421875 13.25 4.234375 
Q 6.78125 9.90625 6.78125 20.515625 
Q 6.78125 27.484375 10.78125 32.3125 
Q 14.796875 37.15625 21.921875 38.8125 
M 18.3125 54.390625 
Q 18.3125 48.734375 21.84375 45.5625 
Q 25.390625 42.390625 31.78125 42.390625 
Q 38.140625 42.390625 41.71875 45.5625 
Q 45.3125 48.734375 45.3125 54.390625 
Q 45.3125 60.0625 41.71875 63.234375 
Q 38.140625 66.40625 31.78125 66.40625 
Q 25.390625 66.40625 21.84375 63.234375 
Q 18.3125 60.0625 18.3125 54.390625 
" id="DejaVuSans-38"/>
     </defs>
     <g transform="translate(543.840625 337.3025)scale(0.144 -0.144)">
      <use xlink:href="#DejaVuSans-6c"/>
      <use x="27.783203125" xlink:href="#DejaVuSans-6f"/>
      <use x="88.96484375" xlink:href="#DejaVuSans-63"/>
      <use x="143.9453125" xlink:href="#DejaVuSans-61"/>
      <use x="205.224609375" xlink:href="#DejaVuSans-6c"/>
      <use x="233.0078125" xlink:href="#DejaVuSans-69"/>
      <use x="260.791015625" xlink:href="#DejaVuSans-74"/>
      <use x="300.0" xlink:href="#DejaVuSans-79"/>
      <use x="359.1796875" xlink:href="#DejaVuSans-23"/>
      <use x="442.96875" xlink:href="#DejaVuSans-38"/>
     </g>
    </g>
    <g id="line2d_77">
     <path d="M 507.840625 353.399 
L 528.000625 353.399 
" style="fill:none;stroke:#008000;stroke-linecap:square;"/>
    </g>
    <g id="line2d_78"/>
    <g id="text_33">
     <!-- locality#9 -->
     <defs>
      <path d="M 10.984375 1.515625 
L 10.984375 10.5 
Q 14.703125 8.734375 18.5 7.8125 
Q 22.3125 6.890625 25.984375 6.890625 
Q 35.75 6.890625 40.890625 13.453125 
Q 46.046875 20.015625 46.78125 33.40625 
Q 43.953125 29.203125 39.59375 26.953125 
Q 35.25 24.703125 29.984375 24.703125 
Q 19.046875 24.703125 12.671875 31.3125 
Q 6.296875 37.9375 6.296875 49.421875 
Q 6.296875 60.640625 12.9375 67.421875 
Q 19.578125 74.21875 30.609375 74.21875 
Q 43.265625 74.21875 49.921875 64.515625 
Q 56.59375 54.828125 56.59375 36.375 
Q 56.59375 19.140625 48.40625 8.859375 
Q 40.234375 -1.421875 26.421875 -1.421875 
Q 22.703125 -1.421875 18.890625 -0.6875 
Q 15.09375 0.046875 10.984375 1.515625 
M 30.609375 32.421875 
Q 37.25 32.421875 41.125 36.953125 
Q 45.015625 41.5 45.015625 49.421875 
Q 45.015625 57.28125 41.125 61.84375 
Q 37.25 66.40625 30.609375 66.40625 
Q 23.96875 66.40625 20.09375 61.84375 
Q 16.21875 57.28125 16.21875 49.421875 
Q 16.21875 41.5 20.09375 36.953125 
Q 23.96875 32.421875 30.609375 32.421875 
" id="DejaVuSans-39"/>
     </defs>
     <g transform="translate(543.840625 358.439)scale(0.144 -0.144)">
      <use xlink:href="#DejaVuSans-6c"/>
      <use x="27.783203125" xlink:href="#DejaVuSans-6f"/>
      <use x="88.96484375" xlink:href="#DejaVuSans-63"/>
      <use x="143.9453125" xlink:href="#DejaVuSans-61"/>
      <use x="205.224609375" xlink:href="#DejaVuSans-6c"/>
      <use x="233.0078125" xlink:href="#DejaVuSans-69"/>
      <use x="260.791015625" xlink:href="#DejaVuSans-74"/>
      <use x="300.0" xlink:href="#DejaVuSans-79"/>
      <use x="359.1796875" xlink:href="#DejaVuSans-23"/>
      <use x="442.96875" xlink:href="#DejaVuSans-39"/>
     </g>
    </g>
   </g>
  </g>
 </g>
 <defs>
  <clipPath id="p16a51d641a">
   <rect height="345.6" width="446.4" x="44.160625" y="23.14175"/>
  </clipPath>
 </defs>
</svg>
