<?xml version="1.0" encoding="utf-8" standalone="no"?>
<!DOCTYPE svg PUBLIC "-//W3C//DTD SVG 1.1//EN"
  "http://www.w3.org/Graphics/SVG/1.1/DTD/svg11.dtd">
<!-- Created with matplotlib (http://matplotlib.org/) -->
<svg height="408pt" version="1.1" viewBox="0 0 617 408" width="617pt" xmlns="http://www.w3.org/2000/svg" xmlns:xlink="http://www.w3.org/1999/xlink">
 <defs>
  <style type="text/css">
*{stroke-linecap:butt;stroke-linejoin:round;}
  </style>
 </defs>
 <g id="figure_1">
  <g id="patch_1">
   <path d="
M0 408.169
L617.383 408.169
L617.383 0
L0 0
z
" style="fill:#ffffff;"/>
  </g>
  <g id="axes_1">
   <g id="patch_2">
    <path d="
M24.7938 368.742
L471.194 368.742
L471.194 23.1417
L24.7938 23.1417
z
" style="fill:#ffffff;"/>
   </g>
   <g id="line2d_1">
    <path clip-path="url(#p75e4a4db2e)" d="
M24.7938 348.993
L25.6901 368.742
L31.9648 368.742
L32.8612 309.496
L33.7576 368.742
L40.9287 368.742
L41.8251 339.119
L42.7215 368.742
L44.5142 368.742
L45.4106 358.867
L46.307 368.742
L48.9962 368.742
L49.8925 358.867
L50.7889 368.742
L57.96 368.742
L58.8564 358.867
L59.7528 368.742
L66.0275 368.742
L66.9239 319.37
L67.8203 368.742
L74.095 368.742
L74.9913 358.867
L75.8877 368.742
L81.266 368.742
L82.1624 348.993
L83.0588 368.742
L87.5407 368.742
L89.3335 348.993
L90.2299 368.742
L95.6082 368.742
L96.5046 358.867
L97.401 368.742
L102.779 368.742
L103.676 358.867
L104.572 368.742
L109.054 368.742
L110.847 348.993
L111.743 368.742
L117.121 368.742
L118.018 358.867
L118.914 368.742
L124.293 368.742
L125.189 240.376
L126.085 368.742
L130.567 368.742
L131.464 358.867
L132.36 368.742
L145.806 368.742
L146.702 348.993
L147.599 368.742
L151.184 368.742
L152.08 358.867
L152.977 368.742
L153.873 348.993
L154.77 368.742
L167.319 368.742
L168.215 339.119
L169.112 368.742
L172.697 368.742
L173.594 358.867
L174.49 368.742
L175.387 368.742
L176.283 348.993
L177.179 368.742
L181.661 368.742
L182.558 348.993
L183.454 368.742
L188.832 368.742
L189.729 358.867
L190.625 368.742
L194.211 368.742
L195.107 358.867
L196.003 368.742
L196.9 358.867
L197.796 368.742
L203.174 368.742
L204.071 358.867
L204.967 368.742
L211.242 368.742
L212.138 358.867
L213.035 368.742
L215.724 368.742
L216.62 358.867
L217.517 368.742
L218.413 368.742
L219.309 319.37
L220.206 368.742
L231.859 368.742
L232.755 348.993
L233.652 368.742
L237.237 368.742
L238.134 358.867
L239.03 368.742
L246.201 368.742
L247.097 329.245
L247.994 368.742
L258.75 368.742
L259.647 358.867
L260.543 368.742
L268.611 368.742
L269.507 348.993
L270.403 368.742
L275.782 368.742
L276.678 339.119
L277.574 368.742
L279.367 368.742
L280.264 358.867
L281.16 368.742
L282.953 368.742
L283.849 358.867
L284.746 368.742
L290.124 368.742
L291.02 358.867
L291.917 368.742
L297.295 368.742
L298.191 358.867
L299.088 368.742
L300.88 368.742
L301.777 358.867
L302.673 368.742
L304.466 368.742
L305.362 250.25
L306.259 368.742
L322.394 368.742
L323.29 358.867
L324.187 368.742
L325.979 368.742
L326.876 309.496
L327.772 368.742
L343.907 368.742
L344.803 358.867
L345.7 368.742
L348.389 368.742
L349.285 348.993
L350.182 368.742
L362.731 368.742
L363.627 329.245
L364.524 368.742
L365.42 368.742
L366.317 358.867
L367.213 368.742
L377.073 368.742
L377.97 358.867
L378.866 368.742
L384.244 368.742
L385.141 358.867
L386.037 368.742
L386.934 358.867
L387.83 368.742
L391.415 368.742
L392.312 358.867
L393.208 368.742
L398.587 368.742
L399.483 329.245
L400.379 368.742
L406.654 368.742
L407.55 299.622
L408.447 358.867
L409.343 368.742
L428.167 368.742
L429.064 348.993
L430.856 368.742
L442.509 368.742
L443.406 358.867
L444.302 368.742
L450.577 368.742
L451.473 348.993
L452.37 368.742
L457.748 368.742
L458.644 358.867
L459.541 368.742
L464.919 368.742
L465.815 358.867
L466.712 368.742
L471.194 368.742
L471.194 368.742" style="fill:none;stroke:#0000ff;stroke-linecap:square;"/>
   </g>
   <g id="line2d_2">
    <path clip-path="url(#p75e4a4db2e)" d="
M24.7938 329.245
L25.6901 368.742
L32.8612 368.742
L33.7576 358.867
L34.654 368.742
L41.8251 368.742
L42.7215 358.867
L43.6178 368.742
L50.7889 368.742
L51.6853 348.993
L52.5817 368.742
L59.7528 368.742
L60.6492 358.867
L61.5456 368.742
L68.7166 368.742
L69.613 348.993
L70.5094 368.742
L76.7841 368.742
L77.6805 348.993
L78.5769 368.742
L84.8516 368.742
L85.748 358.867
L86.6444 368.742
L92.9191 368.742
L93.8154 348.993
L94.7118 368.742
L100.987 368.742
L101.883 358.867
L102.779 368.742
L108.158 368.742
L109.054 348.993
L109.95 368.742
L116.225 368.742
L117.121 358.867
L118.018 368.742
L123.396 368.742
L124.293 358.867
L125.189 368.742
L131.464 368.742
L132.36 348.993
L133.256 368.742
L139.531 368.742
L140.427 358.867
L141.324 368.742
L146.702 368.742
L147.599 329.245
L148.495 368.742
L154.77 368.742
L155.666 309.496
L156.562 368.742
L170.008 368.742
L170.905 329.245
L171.801 368.742
L186.143 368.742
L187.04 348.993
L187.936 368.742
L201.382 368.742
L202.278 309.496
L203.174 368.742
L216.62 368.742
L217.517 309.496
L218.413 368.742
L231.859 368.742
L232.755 358.867
L233.652 368.742
L239.926 368.742
L240.823 358.867
L241.719 368.742
L247.097 368.742
L247.994 348.993
L248.89 368.742
L255.165 368.742
L256.061 348.993
L256.958 368.742
L263.232 368.742
L264.129 348.993
L265.025 368.742
L278.471 368.742
L279.367 358.867
L280.264 368.742
L286.538 368.742
L287.435 339.119
L288.331 368.742
L301.777 368.742
L302.673 339.119
L303.57 368.742
L317.015 368.742
L317.912 348.993
L318.808 368.742
L333.15 368.742
L334.047 339.119
L334.943 368.742
L349.285 368.742
L350.182 329.245
L351.078 368.742
L364.524 368.742
L365.42 348.993
L366.317 368.742
L380.659 368.742
L381.555 358.867
L382.452 368.742
L387.83 368.742
L388.726 309.496
L389.623 368.742
L412.032 368.742
L412.929 339.119
L413.825 368.742
L419.203 368.742
L420.1 358.867
L420.996 368.742
L427.271 368.742
L428.167 358.867
L429.064 368.742
L434.442 368.742
L435.338 358.867
L436.235 368.742
L442.509 368.742
L443.406 358.867
L444.302 368.742
L450.577 368.742
L451.473 348.993
L452.37 368.742
L466.712 368.742
L467.608 279.873
L468.505 368.742
L471.194 368.742
L471.194 368.742" style="fill:none;stroke:#008000;stroke-linecap:square;"/>
   </g>
   <g id="line2d_3">
    <path clip-path="url(#p75e4a4db2e)" d="
M24.7938 348.993
L25.6901 368.742
L28.3793 368.742
L29.2757 309.496
L30.1721 368.742
L32.8612 368.742
L33.7576 339.119
L34.654 368.742
L37.3431 368.742
L38.2395 329.245
L39.1359 368.742
L42.7215 368.742
L43.6178 348.993
L44.5142 368.742
L47.2034 368.742
L48.0998 319.37
L48.9962 368.742
L51.6853 368.742
L52.5817 348.993
L53.4781 368.742
L57.0636 368.742
L57.96 319.37
L58.8564 368.742
L66.0275 368.742
L66.9239 329.245
L67.8203 368.742
L74.9913 368.742
L75.8877 348.993
L76.7841 368.742
L78.5769 368.742
L79.4733 358.867
L80.3697 368.742
L83.0588 368.742
L83.9552 358.867
L84.8516 368.742
L86.6444 368.742
L87.5407 309.496
L88.4371 368.742
L91.1263 368.742
L92.0227 348.993
L92.9191 368.742
L99.1937 368.742
L100.09 358.867
L100.987 368.742
L103.676 368.742
L104.572 329.245
L105.468 368.742
L107.261 368.742
L108.158 289.747
L109.054 368.742
L115.329 368.742
L116.225 339.119
L117.121 368.742
L123.396 368.742
L124.293 329.245
L125.189 368.742
L126.982 368.742
L127.878 329.245
L128.774 368.742
L130.567 368.742
L131.464 339.119
L132.36 368.742
L135.049 368.742
L135.946 358.867
L136.842 368.742
L139.531 368.742
L140.427 279.873
L141.324 368.742
L147.599 368.742
L148.495 289.747
L149.391 368.742
L159.252 368.742
L160.148 348.993
L161.044 368.742
L162.837 368.742
L163.734 358.867
L164.63 368.742
L167.319 368.742
L168.215 339.119
L169.112 368.742
L175.387 368.742
L176.283 200.879
L177.179 368.742
L195.107 368.742
L196.003 309.496
L196.9 368.742
L207.656 368.742
L208.553 309.496
L209.449 368.742
L215.724 368.742
L216.62 269.999
L217.517 368.742
L227.377 368.742
L228.273 358.867
L229.17 368.742
L230.962 368.742
L231.859 299.622
L232.755 368.742
L239.03 368.742
L239.926 358.867
L240.823 368.742
L243.512 368.742
L244.408 358.867
L245.305 368.742
L247.097 368.742
L247.994 181.13
L248.89 368.742
L272.196 368.742
L273.093 279.873
L273.989 368.742
L291.02 368.742
L291.917 358.867
L292.813 368.742
L295.502 368.742
L296.399 309.496
L297.295 368.742
L308.052 368.742
L308.948 358.867
L309.844 368.742
L311.637 368.742
L312.534 319.37
L313.43 368.742
L319.705 368.742
L320.601 131.759
L321.497 368.742
L357.353 368.742
L358.249 23.1417
L359.146 368.742
L401.276 368.742
L402.172 269.999
L403.068 368.742
L413.825 368.742
L414.721 220.627
L415.618 368.742
L446.095 368.742
L446.991 339.119
L447.888 368.742
L454.162 368.742
L455.059 279.873
L455.955 368.742
L470.297 368.742
L471.194 151.507
L471.194 151.507" style="fill:none;stroke:#ff0000;stroke-linecap:square;"/>
   </g>
   <g id="line2d_4">
    <path clip-path="url(#p75e4a4db2e)" d="
M24.7938 299.622
L25.6901 368.742
L28.3793 368.742
L29.2757 348.993
L30.1721 368.742
L33.7576 368.742
L34.654 358.867
L35.5504 368.742
L38.2395 368.742
L39.1359 339.119
L40.0323 368.742
L43.6178 368.742
L44.5142 358.867
L45.4106 368.742
L48.0998 368.742
L48.9962 339.119
L49.8925 368.742
L53.4781 368.742
L54.3745 358.867
L55.2709 368.742
L57.96 368.742
L58.8564 339.119
L59.7528 368.742
L63.3383 368.742
L64.2347 348.993
L65.1311 368.742
L67.8203 368.742
L68.7166 358.867
L69.613 368.742
L72.3022 368.742
L73.1986 329.245
L74.095 368.742
L76.7841 368.742
L77.6805 329.245
L78.5769 368.742
L81.266 368.742
L82.1624 348.993
L83.0588 368.742
L85.748 368.742
L86.6444 358.867
L87.5407 368.742
L89.3335 368.742
L90.2299 358.867
L91.1263 368.742
L93.8154 368.742
L94.7118 339.119
L95.6082 368.742
L98.2974 368.742
L99.1937 348.993
L100.09 368.742
L101.883 368.742
L102.779 339.119
L103.676 368.742
L106.365 368.742
L107.261 358.867
L108.158 368.742
L110.847 368.742
L111.743 339.119
L112.64 368.742
L115.329 368.742
L116.225 319.37
L117.121 368.742
L123.396 368.742
L124.293 289.747
L125.189 368.742
L131.464 368.742
L132.36 329.245
L133.256 368.742
L139.531 368.742
L140.427 348.993
L141.324 368.742
L144.013 368.742
L144.909 329.245
L145.806 368.742
L152.08 368.742
L152.977 358.867
L153.873 368.742
L156.562 368.742
L157.459 289.747
L158.355 368.742
L165.526 368.742
L166.423 339.119
L167.319 368.742
L173.594 368.742
L174.49 319.37
L175.387 368.742
L181.661 368.742
L182.558 358.867
L183.454 368.742
L186.143 368.742
L187.04 358.867
L187.936 368.742
L190.625 368.742
L191.521 358.867
L192.418 368.742
L194.211 368.742
L195.107 329.245
L196.003 368.742
L203.174 368.742
L204.071 319.37
L204.967 368.742
L215.724 368.742
L216.62 348.993
L217.517 368.742
L219.309 368.742
L220.206 191.005
L221.102 368.742
L244.408 368.742
L245.305 260.125
L246.201 368.742
L262.336 368.742
L263.232 112.01
L264.129 368.742
L308.052 368.742
L308.948 319.37
L309.844 368.742
L320.601 368.742
L321.497 309.496
L322.394 368.742
L333.15 368.742
L334.047 348.993
L334.943 368.742
L342.114 368.742
L343.011 348.993
L343.907 368.742
L346.596 368.742
L347.493 82.3875
L348.389 368.742
L384.244 368.742
L385.141 289.747
L386.037 368.742
L405.758 368.742
L406.654 358.867
L407.55 368.742
L410.24 368.742
L411.136 250.25
L412.032 368.742
L435.338 368.742
L436.235 348.993
L437.131 368.742
L439.82 368.742
L440.717 269.999
L441.613 368.742
L464.919 368.742
L465.815 319.37
L466.712 368.742
L471.194 368.742
L471.194 368.742" style="fill:none;stroke:#00bfbf;stroke-linecap:square;"/>
   </g>
   <g id="line2d_5">
    <path clip-path="url(#p75e4a4db2e)" d="
M24.7938 339.119
L25.6901 368.742
L28.3793 368.742
L29.2757 358.867
L30.1721 368.742
L33.7576 368.742
L34.654 348.993
L35.5504 368.742
L44.5142 368.742
L45.4106 358.867
L46.307 368.742
L49.8925 368.742
L50.7889 348.993
L51.6853 368.742
L55.2709 368.742
L56.1672 358.867
L57.0636 368.742
L60.6492 368.742
L61.5456 348.993
L62.4419 368.742
L71.4058 368.742
L72.3022 358.867
L73.1986 368.742
L75.8877 368.742
L76.7841 348.993
L77.6805 368.742
L80.3697 368.742
L81.266 329.245
L82.1624 368.742
L84.8516 368.742
L85.748 339.119
L86.6444 368.742
L89.3335 368.742
L90.2299 358.867
L91.1263 368.742
L94.7118 368.742
L95.6082 339.119
L96.5046 368.742
L99.1937 368.742
L100.09 358.867
L100.987 368.742
L103.676 368.742
L104.572 358.867
L105.468 368.742
L108.158 368.742
L109.054 348.993
L109.95 368.742
L112.64 368.742
L113.536 358.867
L114.432 368.742
L117.121 368.742
L118.018 339.119
L118.914 368.742
L121.603 368.742
L122.5 348.993
L123.396 368.742
L126.085 368.742
L126.982 329.245
L127.878 368.742
L130.567 368.742
L131.464 358.867
L132.36 368.742
L135.049 368.742
L135.946 358.867
L136.842 368.742
L139.531 368.742
L140.427 348.993
L141.324 368.742
L144.013 368.742
L144.909 358.867
L145.806 368.742
L148.495 368.742
L149.391 339.119
L150.288 368.742
L157.459 368.742
L158.355 358.867
L159.252 368.742
L161.941 368.742
L162.837 358.867
L163.734 368.742
L166.423 368.742
L167.319 339.119
L168.215 368.742
L176.283 368.742
L177.179 358.867
L178.076 368.742
L179.868 368.742
L180.765 319.37
L181.661 368.742
L194.211 368.742
L195.107 329.245
L196.003 368.742
L207.656 368.742
L208.553 279.873
L209.449 368.742
L216.62 368.742
L217.517 358.867
L218.413 368.742
L221.102 368.742
L221.999 319.37
L222.895 368.742
L239.03 368.742
L239.926 358.867
L240.823 368.742
L243.512 368.742
L244.408 358.867
L245.305 368.742
L247.994 368.742
L248.89 358.867
L249.787 368.742
L252.476 368.742
L253.372 319.37
L254.268 368.742
L262.336 368.742
L263.232 348.993
L264.129 368.742
L265.921 368.742
L266.818 309.496
L267.714 368.742
L280.264 368.742
L281.16 358.867
L282.056 368.742
L284.746 368.742
L285.642 358.867
L286.538 368.742
L289.227 368.742
L290.124 309.496
L291.02 368.742
L307.155 368.742
L308.052 319.37
L308.948 368.742
L316.119 368.742
L317.015 279.873
L317.912 368.742
L330.461 368.742
L331.358 329.245
L332.254 368.742
L343.907 368.742
L344.803 358.867
L345.7 368.742
L348.389 368.742
L349.285 358.867
L350.182 368.742
L353.767 368.742
L354.664 339.119
L355.56 368.742
L362.731 368.742
L363.627 358.867
L364.524 368.742
L367.213 368.742
L368.109 348.993
L369.006 368.742
L376.177 368.742
L377.073 358.867
L377.97 368.742
L380.659 368.742
L381.555 339.119
L382.452 368.742
L389.623 368.742
L390.519 358.867
L391.415 368.742
L394.105 368.742
L395.001 289.747
L395.897 368.742
L412.929 368.742
L413.825 348.993
L414.721 368.742
L417.411 368.742
L418.307 358.867
L419.203 368.742
L421.893 368.742
L422.789 358.867
L423.685 368.742
L426.374 368.742
L427.271 358.867
L428.167 368.742
L430.856 368.742
L431.753 358.867
L432.649 368.742
L435.338 368.742
L436.235 339.119
L437.131 368.742
L444.302 368.742
L445.199 339.119
L446.095 368.742
L454.162 368.742
L455.059 289.747
L455.955 368.742
L471.194 368.742
L471.194 368.742" style="fill:none;stroke:#bf00bf;stroke-linecap:square;"/>
   </g>
   <g id="line2d_6">
    <path clip-path="url(#p75e4a4db2e)" d="
M24.7938 339.119
L25.6901 368.742
L29.2757 368.742
L30.1721 348.993
L31.0684 368.742
L35.5504 368.742
L36.4468 348.993
L37.3431 368.742
L40.9287 368.742
L41.8251 358.867
L42.7215 368.742
L47.2034 368.742
L48.0998 339.119
L48.9962 368.742
L53.4781 368.742
L54.3745 339.119
L55.2709 368.742
L58.8564 368.742
L59.7528 329.245
L60.6492 368.742
L65.1311 368.742
L66.0275 358.867
L66.9239 368.742
L70.5094 368.742
L71.4058 329.245
L72.3022 368.742
L75.8877 368.742
L76.7841 358.867
L77.6805 368.742
L80.3697 368.742
L81.266 348.993
L82.1624 368.742
L85.748 368.742
L86.6444 339.119
L87.5407 368.742
L91.1263 368.742
L92.0227 339.119
L92.9191 368.742
L95.6082 368.742
L96.5046 358.867
L97.401 368.742
L100.987 368.742
L101.883 339.119
L102.779 368.742
L106.365 368.742
L107.261 358.867
L108.158 368.742
L110.847 368.742
L111.743 339.119
L112.64 368.742
L116.225 368.742
L117.121 348.993
L118.018 368.742
L126.085 368.742
L126.982 348.993
L127.878 368.742
L130.567 368.742
L131.464 339.119
L132.36 368.742
L135.946 368.742
L136.842 358.867
L137.738 368.742
L141.324 368.742
L142.22 329.245
L143.117 368.742
L151.184 368.742
L152.08 339.119
L152.977 368.742
L161.044 368.742
L161.941 329.245
L162.837 368.742
L181.661 368.742
L182.558 329.245
L183.454 368.742
L186.143 368.742
L187.04 358.867
L187.936 368.742
L191.521 368.742
L192.418 289.747
L193.314 368.742
L205.864 368.742
L206.76 339.119
L207.656 368.742
L215.724 368.742
L216.62 348.993
L217.517 368.742
L226.48 368.742
L227.377 348.993
L228.273 368.742
L236.341 368.742
L237.237 358.867
L238.134 368.742
L240.823 368.742
L241.719 329.245
L242.615 368.742
L256.061 368.742
L256.958 358.867
L257.854 368.742
L261.44 368.742
L262.336 339.119
L263.232 368.742
L266.818 368.742
L267.714 319.37
L268.611 368.742
L281.16 368.742
L282.056 319.37
L282.953 368.742
L296.399 368.742
L297.295 348.993
L298.191 368.742
L306.259 368.742
L307.155 289.747
L308.052 368.742
L321.497 368.742
L322.394 339.119
L323.29 368.742
L326.876 368.742
L327.772 339.119
L328.668 368.742
L332.254 368.742
L333.15 339.119
L334.047 368.742
L342.114 368.742
L343.011 339.119
L343.907 368.742
L347.493 368.742
L348.389 329.245
L349.285 368.742
L362.731 368.742
L363.627 358.867
L364.524 368.742
L368.109 368.742
L369.006 339.119
L369.902 368.742
L372.591 368.742
L373.488 309.496
L374.384 368.742
L387.83 368.742
L388.726 358.867
L389.623 368.742
L392.312 368.742
L393.208 358.867
L394.105 368.742
L397.69 368.742
L398.587 358.867
L399.483 368.742
L403.068 368.742
L403.965 348.993
L404.861 368.742
L408.447 368.742
L409.343 358.867
L410.24 368.742
L412.929 368.742
L413.825 339.119
L414.721 368.742
L422.789 368.742
L423.685 358.867
L424.582 368.742
L428.167 368.742
L429.064 339.119
L429.96 368.742
L438.027 368.742
L438.924 339.119
L439.82 368.742
L448.784 368.742
L449.68 358.867
L450.577 368.742
L453.266 368.742
L454.162 358.867
L455.059 368.742
L458.644 368.742
L459.541 329.245
L460.437 368.742
L471.194 368.742
L471.194 368.742" style="fill:none;stroke:#bfbf00;stroke-linecap:square;"/>
   </g>
   <g id="line2d_7">
    <path clip-path="url(#p75e4a4db2e)" d="
M24.7938 339.119
L25.6901 368.742
L30.1721 368.742
L31.0684 358.867
L31.9648 368.742
L36.4468 368.742
L37.3431 339.119
L38.2395 368.742
L43.6178 368.742
L44.5142 348.993
L45.4106 368.742
L49.8925 368.742
L50.7889 329.245
L51.6853 368.742
L63.3383 368.742
L64.2347 358.867
L65.1311 368.742
L69.613 368.742
L70.5094 339.119
L71.4058 368.742
L75.8877 368.742
L76.7841 339.119
L77.6805 368.742
L81.266 368.742
L82.1624 319.37
L83.0588 368.742
L92.9191 368.742
L93.8154 339.119
L94.7118 368.742
L104.572 368.742
L105.468 348.993
L106.365 368.742
L109.95 368.742
L110.847 358.867
L111.743 368.742
L115.329 368.742
L116.225 348.993
L117.121 368.742
L126.982 368.742
L127.878 358.867
L128.774 368.742
L132.36 368.742
L133.256 319.37
L134.153 368.742
L144.013 368.742
L144.909 358.867
L145.806 368.742
L149.391 368.742
L150.288 329.245
L151.184 368.742
L161.044 368.742
L161.941 358.867
L162.837 368.742
L166.423 368.742
L167.319 348.993
L168.215 368.742
L172.697 368.742
L173.594 348.993
L174.49 368.742
L178.076 368.742
L178.972 309.496
L179.868 368.742
L183.454 368.742
L184.35 329.245
L185.247 368.742
L200.485 368.742
L201.382 358.867
L202.278 368.742
L205.864 368.742
L206.76 358.867
L207.656 368.742
L211.242 368.742
L212.138 358.867
L213.035 368.742
L217.517 368.742
L218.413 358.867
L219.309 368.742
L222.895 368.742
L223.791 299.622
L224.688 368.742
L245.305 368.742
L246.201 309.496
L247.097 368.742
L262.336 368.742
L263.232 358.867
L264.129 368.742
L268.611 368.742
L269.507 348.993
L270.403 368.742
L279.367 368.742
L280.264 348.993
L281.16 368.742
L284.746 368.742
L285.642 348.993
L286.538 368.742
L296.399 368.742
L297.295 358.867
L298.191 368.742
L302.673 368.742
L303.57 269.999
L304.466 368.742
L330.461 368.742
L331.358 339.119
L332.254 368.742
L342.114 368.742
L343.011 358.867
L343.907 368.742
L348.389 368.742
L349.285 279.873
L350.182 368.742
L370.799 368.742
L371.695 339.119
L372.591 368.742
L382.452 368.742
L383.348 329.245
L384.244 368.742
L399.483 368.742
L400.379 358.867
L401.276 368.742
L404.861 368.742
L405.758 319.37
L406.654 368.742
L416.514 368.742
L417.411 250.25
L418.307 368.742
L445.199 368.742
L446.095 339.119
L446.991 368.742
L456.852 368.742
L457.748 339.119
L458.644 368.742
L468.505 368.742
L469.401 299.622
L470.297 368.742
L471.194 368.742
L471.194 368.742" style="fill:none;stroke:#000000;stroke-linecap:square;"/>
   </g>
   <g id="line2d_8">
    <path clip-path="url(#p75e4a4db2e)" d="
M24.7938 348.993
L25.6901 368.742
L31.0684 368.742
L31.9648 358.867
L32.8612 368.742
L38.2395 368.742
L39.1359 358.867
L40.0323 368.742
L46.307 368.742
L47.2034 358.867
L48.0998 368.742
L53.4781 368.742
L54.3745 358.867
L55.2709 368.742
L61.5456 368.742
L62.4419 358.867
L63.3383 368.742
L68.7166 368.742
L69.613 358.867
L70.5094 368.742
L75.8877 368.742
L76.7841 358.867
L77.6805 368.742
L82.1624 368.742
L83.0588 358.867
L83.9552 368.742
L88.4371 368.742
L89.3335 358.867
L90.2299 368.742
L94.7118 368.742
L95.6082 358.867
L96.5046 368.742
L101.883 368.742
L102.779 358.867
L103.676 368.742
L108.158 368.742
L109.054 358.867
L109.95 368.742
L114.432 368.742
L115.329 358.867
L116.225 368.742
L120.707 368.742
L121.603 358.867
L122.5 368.742
L126.982 368.742
L127.878 358.867
L128.774 368.742
L133.256 368.742
L134.153 358.867
L135.049 368.742
L139.531 368.742
L140.427 339.119
L141.324 368.742
L146.702 368.742
L147.599 358.867
L148.495 368.742
L152.977 368.742
L153.873 358.867
L154.77 368.742
L159.252 368.742
L160.148 348.993
L161.044 368.742
L165.526 368.742
L166.423 358.867
L167.319 368.742
L172.697 368.742
L173.594 348.993
L174.49 368.742
L178.972 368.742
L179.868 339.119
L180.765 368.742
L185.247 368.742
L186.143 358.867
L187.04 368.742
L191.521 368.742
L192.418 358.867
L193.314 368.742
L197.796 368.742
L198.693 348.993
L199.589 368.742
L204.071 368.742
L204.967 329.245
L205.864 368.742
L216.62 368.742
L217.517 348.993
L218.413 368.742
L223.791 368.742
L224.688 348.993
L225.584 368.742
L230.066 368.742
L230.962 348.993
L231.859 368.742
L236.341 368.742
L237.237 329.245
L238.134 368.742
L256.061 368.742
L256.958 358.867
L257.854 368.742
L262.336 368.742
L263.232 339.119
L264.129 368.742
L274.885 368.742
L275.782 348.993
L276.678 368.742
L287.435 368.742
L288.331 348.993
L289.227 368.742
L300.88 368.742
L301.777 339.119
L302.673 368.742
L307.155 368.742
L308.052 339.119
L308.948 368.742
L326.876 368.742
L327.772 299.622
L328.668 368.742
L352.871 368.742
L353.767 358.867
L354.664 368.742
L360.042 368.742
L360.938 358.867
L361.835 368.742
L366.317 368.742
L367.213 348.993
L368.109 368.742
L372.591 368.742
L373.488 358.867
L374.384 368.742
L378.866 368.742
L379.762 348.993
L380.659 368.742
L391.415 368.742
L392.312 348.993
L393.208 368.742
L397.69 368.742
L398.587 358.867
L399.483 368.742
L404.861 368.742
L405.758 260.125
L406.654 368.742
L430.856 368.742
L431.753 240.376
L432.649 368.742
L469.401 368.742
L470.297 329.245
L471.194 368.742
L471.194 368.742" style="fill:none;stroke:#0000ff;stroke-linecap:square;"/>
   </g>
   <g id="line2d_9">
    <path clip-path="url(#p75e4a4db2e)" d="
M24.7938 348.993
L25.6901 368.742
L32.8612 368.742
L33.7576 348.993
L34.654 368.742
L41.8251 368.742
L42.7215 339.119
L43.6178 368.742
L50.7889 368.742
L51.6853 348.993
L52.5817 368.742
L60.6492 368.742
L61.5456 358.867
L62.4419 368.742
L68.7166 368.742
L69.613 348.993
L70.5094 368.742
L76.7841 368.742
L77.6805 358.867
L78.5769 368.742
L85.748 368.742
L86.6444 329.245
L87.5407 368.742
L92.9191 368.742
L93.8154 339.119
L94.7118 368.742
L100.987 368.742
L101.883 339.119
L102.779 368.742
L109.054 368.742
L109.95 358.867
L110.847 368.742
L116.225 368.742
L117.121 358.867
L118.018 368.742
L124.293 368.742
L125.189 348.993
L126.085 368.742
L132.36 368.742
L133.256 319.37
L134.153 368.742
L139.531 368.742
L140.427 329.245
L141.324 368.742
L147.599 368.742
L148.495 329.245
L149.391 368.742
L155.666 368.742
L156.562 339.119
L157.459 368.742
L162.837 368.742
L163.734 329.245
L164.63 368.742
L170.905 368.742
L171.801 358.867
L172.697 368.742
L178.972 368.742
L179.868 309.496
L180.765 368.742
L194.211 368.742
L195.107 319.37
L196.003 368.742
L209.449 368.742
L210.346 358.867
L211.242 368.742
L217.517 368.742
L218.413 358.867
L219.309 368.742
L225.584 368.742
L226.48 289.747
L227.377 368.742
L248.89 368.742
L249.787 339.119
L250.683 368.742
L264.129 368.742
L265.025 358.867
L265.921 368.742
L272.196 368.742
L273.093 260.125
L273.989 368.742
L318.808 368.742
L319.705 329.245
L320.601 368.742
L334.943 368.742
L335.84 348.993
L336.736 368.742
L343.011 368.742
L343.907 358.867
L344.803 368.742
L351.078 368.742
L351.974 348.993
L352.871 368.742
L358.249 368.742
L359.146 358.867
L360.042 368.742
L366.317 368.742
L367.213 299.622
L368.109 368.742
L381.555 368.742
L382.452 319.37
L383.348 368.742
L397.69 368.742
L398.587 348.993
L399.483 368.742
L405.758 368.742
L406.654 358.867
L407.55 368.742
L413.825 368.742
L414.721 250.25
L415.618 368.742
L437.131 368.742
L438.027 309.496
L438.924 368.742
L460.437 368.742
L461.334 151.507
L462.23 368.742
L471.194 368.742
L471.194 368.742" style="fill:none;stroke:#008000;stroke-linecap:square;"/>
   </g>
   <g id="line2d_10">
    <path clip-path="url(#p75e4a4db2e)" d="
M24.7938 348.993
L25.6901 368.742
L31.9648 368.742
L32.8612 358.867
L33.7576 368.742
L40.0323 368.742
L40.9287 358.867
L41.8251 368.742
L48.9962 368.742
L49.8925 348.993
L50.7889 368.742
L57.0636 368.742
L57.96 339.119
L58.8564 368.742
L66.0275 368.742
L66.9239 348.993
L67.8203 368.742
L73.1986 368.742
L74.095 319.37
L74.9913 368.742
L80.3697 368.742
L81.266 358.867
L82.1624 368.742
L88.4371 368.742
L89.3335 339.119
L90.2299 368.742
L95.6082 368.742
L96.5046 358.867
L97.401 368.742
L102.779 368.742
L103.676 348.993
L104.572 368.742
L109.95 368.742
L110.847 319.37
L111.743 368.742
L117.121 368.742
L118.018 339.119
L118.914 368.742
L124.293 368.742
L125.189 210.753
L126.085 368.742
L152.977 368.742
L153.873 348.993
L154.77 368.742
L160.148 368.742
L161.044 329.245
L161.941 368.742
L167.319 368.742
L168.215 299.622
L169.112 368.742
L181.661 368.742
L182.558 339.119
L183.454 368.742
L196.003 368.742
L196.9 309.496
L197.796 368.742
L223.791 368.742
L224.688 348.993
L225.584 368.742
L238.134 368.742
L239.03 339.119
L239.926 368.742
L253.372 368.742
L254.268 358.867
L255.165 368.742
L260.543 368.742
L261.44 339.119
L262.336 368.742
L274.885 368.742
L275.782 309.496
L276.678 368.742
L289.227 368.742
L290.124 358.867
L291.02 368.742
L296.399 368.742
L297.295 319.37
L298.191 368.742
L325.083 368.742
L325.979 358.867
L326.876 368.742
L332.254 368.742
L333.15 358.867
L334.047 368.742
L339.425 368.742
L340.321 358.867
L341.218 368.742
L346.596 368.742
L347.493 348.993
L348.389 368.742
L361.835 368.742
L362.731 339.119
L363.627 368.742
L369.006 368.742
L369.902 348.993
L370.799 368.742
L383.348 368.742
L384.244 329.245
L385.141 368.742
L404.861 368.742
L405.758 299.622
L406.654 368.742
L433.546 368.742
L434.442 348.993
L435.338 368.742
L440.717 368.742
L441.613 358.867
L442.509 368.742
L448.784 368.742
L449.68 348.993
L450.577 368.742
L455.955 368.742
L456.852 339.119
L457.748 368.742
L470.297 368.742
L471.194 250.25
L471.194 250.25" style="fill:none;stroke:#ff0000;stroke-linecap:square;"/>
   </g>
   <g id="line2d_11">
    <path clip-path="url(#p75e4a4db2e)" d="
M24.7938 339.119
L25.6901 368.742
L31.0684 368.742
L31.9648 358.867
L32.8612 368.742
L38.2395 368.742
L39.1359 358.867
L40.0323 368.742
L46.307 368.742
L47.2034 348.993
L48.0998 368.742
L53.4781 368.742
L54.3745 339.119
L55.2709 368.742
L61.5456 368.742
L62.4419 348.993
L63.3383 368.742
L68.7166 368.742
L69.613 339.119
L70.5094 368.742
L74.9913 368.742
L75.8877 358.867
L76.7841 368.742
L81.266 368.742
L82.1624 339.119
L83.0588 368.742
L88.4371 368.742
L89.3335 339.119
L90.2299 368.742
L94.7118 368.742
L95.6082 339.119
L96.5046 368.742
L100.987 368.742
L101.883 358.867
L102.779 368.742
L107.261 368.742
L108.158 348.993
L109.054 368.742
L113.536 368.742
L114.432 339.119
L115.329 368.742
L119.811 368.742
L120.707 358.867
L121.603 368.742
L126.085 368.742
L126.982 339.119
L127.878 368.742
L139.531 368.742
L140.427 358.867
L141.324 368.742
L145.806 368.742
L146.702 348.993
L147.599 368.742
L152.08 368.742
L152.977 348.993
L153.873 368.742
L158.355 368.742
L159.252 339.119
L160.148 368.742
L164.63 368.742
L165.526 358.867
L166.423 368.742
L170.905 368.742
L171.801 348.993
L172.697 368.742
L177.179 368.742
L178.076 339.119
L178.972 368.742
L184.35 368.742
L185.247 289.747
L186.143 368.742
L196.9 368.742
L197.796 309.496
L198.693 368.742
L209.449 368.742
L210.346 358.867
L211.242 368.742
L215.724 368.742
L216.62 348.993
L217.517 368.742
L221.999 368.742
L222.895 339.119
L223.791 368.742
L234.548 368.742
L235.444 339.119
L236.341 368.742
L247.097 368.742
L247.994 191.005
L248.89 368.742
L273.093 368.742
L273.989 250.25
L274.885 368.742
L285.642 368.742
L286.538 289.747
L287.435 368.742
L304.466 368.742
L305.362 319.37
L306.259 368.742
L324.187 368.742
L325.083 339.119
L325.979 368.742
L343.907 368.742
L344.803 329.245
L345.7 368.742
L363.627 368.742
L364.524 358.867
L365.42 368.742
L369.902 368.742
L370.799 299.622
L371.695 368.742
L395.001 368.742
L395.897 309.496
L396.794 368.742
L420.996 368.742
L421.893 191.005
L422.789 368.742
L466.712 368.742
L467.608 191.005
L468.505 368.742
L471.194 368.742
L471.194 368.742" style="fill:none;stroke:#00bfbf;stroke-linecap:square;"/>
   </g>
   <g id="line2d_12">
    <path clip-path="url(#p75e4a4db2e)" d="
M24.7938 329.245
L25.6901 368.742
L30.1721 368.742
L31.0684 339.119
L31.9648 368.742
L36.4468 368.742
L37.3431 358.867
L38.2395 368.742
L43.6178 368.742
L44.5142 339.119
L45.4106 368.742
L49.8925 368.742
L50.7889 358.867
L51.6853 368.742
L57.0636 368.742
L57.96 339.119
L58.8564 368.742
L63.3383 368.742
L64.2347 339.119
L65.1311 368.742
L75.8877 368.742
L76.7841 319.37
L77.6805 368.742
L81.266 368.742
L82.1624 358.867
L83.0588 368.742
L86.6444 368.742
L87.5407 358.867
L88.4371 368.742
L92.9191 368.742
L93.8154 339.119
L94.7118 368.742
L98.2974 368.742
L99.1937 329.245
L100.09 368.742
L109.95 368.742
L110.847 358.867
L111.743 368.742
L115.329 368.742
L116.225 348.993
L117.121 368.742
L120.707 368.742
L121.603 358.867
L122.5 368.742
L126.085 368.742
L126.982 329.245
L127.878 368.742
L131.464 368.742
L132.36 339.119
L133.256 368.742
L137.738 368.742
L138.635 358.867
L139.531 368.742
L143.117 368.742
L144.013 348.993
L144.909 368.742
L148.495 368.742
L149.391 329.245
L150.288 368.742
L165.526 368.742
L166.423 339.119
L167.319 368.742
L170.905 368.742
L171.801 289.747
L172.697 368.742
L182.558 368.742
L183.454 319.37
L184.35 368.742
L193.314 368.742
L194.211 348.993
L195.107 368.742
L199.589 368.742
L200.485 348.993
L201.382 368.742
L204.967 368.742
L205.864 319.37
L206.76 368.742
L210.346 368.742
L211.242 358.867
L212.138 368.742
L215.724 368.742
L216.62 348.993
L217.517 368.742
L221.102 368.742
L221.999 279.873
L222.895 368.742
L238.134 368.742
L239.03 339.119
L239.926 368.742
L249.787 368.742
L250.683 260.125
L251.579 368.742
L266.818 368.742
L267.714 348.993
L268.611 368.742
L277.574 368.742
L278.471 358.867
L279.367 368.742
L283.849 368.742
L284.746 329.245
L285.642 368.742
L294.606 368.742
L295.502 358.867
L296.399 368.742
L299.984 368.742
L300.88 269.999
L301.777 368.742
L323.29 368.742
L324.187 181.13
L325.083 368.742
L351.974 368.742
L352.871 358.867
L353.767 368.742
L357.353 368.742
L358.249 260.125
L359.146 368.742
L374.384 368.742
L375.28 339.119
L376.177 368.742
L385.141 368.742
L386.037 289.747
L386.934 368.742
L408.447 368.742
L409.343 348.993
L410.24 368.742
L419.203 368.742
L420.1 358.867
L420.996 368.742
L424.582 368.742
L425.478 279.873
L426.374 368.742
L447.888 368.742
L448.784 269.999
L449.68 368.742
L470.297 368.742
L471.194 299.622
L471.194 299.622" style="fill:none;stroke:#bf00bf;stroke-linecap:square;"/>
   </g>
   <g id="line2d_13">
    <path clip-path="url(#p75e4a4db2e)" d="
M24.7938 339.119
L25.6901 368.742
L29.2757 368.742
L30.1721 358.867
L31.0684 368.742
L35.5504 368.742
L36.4468 339.119
L37.3431 368.742
L40.9287 368.742
L41.8251 348.993
L42.7215 368.742
L47.2034 368.742
L48.0998 339.119
L48.9962 368.742
L52.5817 368.742
L53.4781 358.867
L54.3745 368.742
L58.8564 368.742
L59.7528 348.993
L60.6492 368.742
L64.2347 368.742
L65.1311 339.119
L66.0275 368.742
L70.5094 368.742
L71.4058 358.867
L72.3022 368.742
L75.8877 368.742
L76.7841 358.867
L77.6805 368.742
L80.3697 368.742
L81.266 319.37
L82.1624 368.742
L91.1263 368.742
L92.0227 339.119
L92.9191 368.742
L95.6082 368.742
L96.5046 319.37
L97.401 368.742
L105.468 368.742
L106.365 279.873
L107.261 368.742
L115.329 368.742
L116.225 358.867
L117.121 368.742
L120.707 368.742
L121.603 339.119
L122.5 368.742
L125.189 368.742
L126.085 348.993
L126.982 368.742
L130.567 368.742
L131.464 348.993
L132.36 368.742
L135.049 368.742
L135.946 339.119
L136.842 368.742
L140.427 368.742
L141.324 319.37
L142.22 368.742
L150.288 368.742
L151.184 319.37
L152.08 368.742
L160.148 368.742
L161.044 358.867
L161.941 368.742
L165.526 368.742
L166.423 339.119
L167.319 368.742
L170.008 368.742
L170.905 358.867
L171.801 368.742
L175.387 368.742
L176.283 348.993
L177.179 368.742
L179.868 368.742
L180.765 329.245
L181.661 368.742
L189.729 368.742
L190.625 358.867
L191.521 368.742
L195.107 368.742
L196.003 210.753
L196.9 368.742
L214.827 368.742
L215.724 329.245
L216.62 368.742
L219.309 368.742
L220.206 358.867
L221.102 368.742
L224.688 368.742
L225.584 339.119
L226.48 368.742
L234.548 368.742
L235.444 358.867
L236.341 368.742
L239.926 368.742
L240.823 348.993
L241.719 368.742
L249.787 368.742
L250.683 358.867
L251.579 368.742
L255.165 368.742
L256.061 358.867
L256.958 368.742
L259.647 368.742
L260.543 348.993
L261.44 368.742
L265.025 368.742
L265.921 329.245
L266.818 368.742
L280.264 368.742
L281.16 131.759
L282.056 368.742
L314.326 368.742
L315.223 319.37
L316.119 368.742
L330.461 368.742
L331.358 348.993
L332.254 368.742
L340.321 368.742
L341.218 348.993
L342.114 368.742
L350.182 368.742
L351.078 358.867
L351.974 368.742
L355.56 368.742
L356.456 299.622
L357.353 368.742
L370.799 368.742
L371.695 141.633
L372.591 368.742
L410.24 368.742
L411.136 329.245
L412.032 368.742
L425.478 368.742
L426.374 358.867
L427.271 368.742
L430.856 368.742
L431.753 309.496
L432.649 368.742
L446.095 368.742
L446.991 289.747
L447.888 368.742
L471.194 368.742
L471.194 368.742" style="fill:none;stroke:#bfbf00;stroke-linecap:square;"/>
   </g>
   <g id="line2d_14">
    <path clip-path="url(#p75e4a4db2e)" d="
M24.7938 339.119
L25.6901 368.742
L28.3793 368.742
L29.2757 358.867
L30.1721 368.742
L33.7576 368.742
L34.654 348.993
L35.5504 368.742
L39.1359 368.742
L40.0323 358.867
L40.9287 368.742
L44.5142 368.742
L45.4106 348.993
L46.307 368.742
L49.8925 368.742
L50.7889 339.119
L51.6853 368.742
L55.2709 368.742
L56.1672 358.867
L57.0636 368.742
L60.6492 368.742
L61.5456 348.993
L62.4419 368.742
L66.0275 368.742
L66.9239 358.867
L67.8203 368.742
L71.4058 368.742
L72.3022 358.867
L73.1986 368.742
L75.8877 368.742
L76.7841 319.37
L77.6805 368.742
L80.3697 368.742
L81.266 358.867
L82.1624 368.742
L84.8516 368.742
L85.748 348.993
L86.6444 368.742
L89.3335 368.742
L90.2299 319.37
L91.1263 368.742
L98.2974 368.742
L99.1937 339.119
L100.09 368.742
L102.779 368.742
L103.676 279.873
L104.572 368.742
L116.225 368.742
L117.121 329.245
L118.018 368.742
L120.707 368.742
L121.603 339.119
L122.5 368.742
L125.189 368.742
L126.085 299.622
L126.982 368.742
L138.635 368.742
L139.531 358.867
L140.427 368.742
L143.117 368.742
L144.013 348.993
L144.909 368.742
L147.599 368.742
L148.495 309.496
L149.391 368.742
L152.08 368.742
L152.977 358.867
L153.873 368.742
L156.562 368.742
L157.459 348.993
L158.355 368.742
L161.044 368.742
L161.941 358.867
L162.837 368.742
L165.526 368.742
L166.423 348.993
L167.319 368.742
L170.008 368.742
L170.905 289.747
L171.801 368.742
L179.868 368.742
L180.765 358.867
L181.661 368.742
L184.35 368.742
L185.247 358.867
L186.143 368.742
L187.936 368.742
L188.832 348.993
L189.729 368.742
L193.314 368.742
L194.211 289.747
L195.107 368.742
L202.278 368.742
L203.174 348.993
L204.071 368.742
L211.242 368.742
L212.138 230.502
L213.035 368.742
L228.273 368.742
L229.17 329.245
L230.066 368.742
L232.755 368.742
L233.652 339.119
L234.548 368.742
L242.615 368.742
L243.512 329.245
L244.408 368.742
L251.579 368.742
L252.476 319.37
L253.372 368.742
L265.025 368.742
L265.921 309.496
L266.818 368.742
L273.989 368.742
L274.885 348.993
L275.782 368.742
L282.953 368.742
L283.849 348.993
L284.746 368.742
L287.435 368.742
L288.331 240.376
L289.227 368.742
L309.844 368.742
L310.741 279.873
L311.637 368.742
L328.668 368.742
L329.565 339.119
L330.461 368.742
L337.632 368.742
L338.529 329.245
L339.425 368.742
L351.078 368.742
L351.974 329.245
L352.871 368.742
L365.42 368.742
L366.317 52.7646
L367.213 368.742
L428.167 368.742
L429.064 309.496
L429.96 368.742
L446.991 368.742
L447.888 358.867
L448.784 368.742
L451.473 368.742
L452.37 339.119
L453.266 368.742
L460.437 368.742
L461.334 299.622
L462.23 368.742
L471.194 368.742
L471.194 368.742" style="fill:none;stroke:#000000;stroke-linecap:square;"/>
   </g>
   <g id="line2d_15">
    <path clip-path="url(#p75e4a4db2e)" d="
M24.7938 339.119
L25.6901 368.742
L28.3793 368.742
L29.2757 339.119
L30.1721 368.742
L33.7576 368.742
L34.654 348.993
L35.5504 368.742
L38.2395 368.742
L39.1359 358.867
L40.0323 368.742
L43.6178 368.742
L44.5142 358.867
L45.4106 368.742
L48.0998 368.742
L48.9962 348.993
L49.8925 368.742
L53.4781 368.742
L54.3745 319.37
L55.2709 368.742
L57.96 368.742
L58.8564 329.245
L59.7528 368.742
L67.8203 368.742
L68.7166 358.867
L69.613 368.742
L72.3022 368.742
L73.1986 358.867
L74.095 368.742
L76.7841 368.742
L77.6805 358.867
L78.5769 368.742
L80.3697 368.742
L81.266 348.993
L82.1624 368.742
L84.8516 368.742
L85.748 319.37
L86.6444 368.742
L93.8154 368.742
L94.7118 309.496
L95.6082 368.742
L97.401 368.742
L98.2974 348.993
L99.1937 368.742
L101.883 368.742
L102.779 348.993
L103.676 368.742
L109.95 368.742
L110.847 348.993
L111.743 368.742
L114.432 368.742
L115.329 348.993
L116.225 368.742
L118.914 368.742
L119.811 339.119
L120.707 368.742
L122.5 368.742
L123.396 339.119
L124.293 368.742
L126.982 368.742
L127.878 339.119
L128.774 368.742
L130.567 368.742
L131.464 358.867
L132.36 368.742
L135.049 368.742
L135.946 210.753
L136.842 368.742
L155.666 368.742
L156.562 329.245
L157.459 368.742
L160.148 368.742
L161.044 358.867
L161.941 368.742
L164.63 368.742
L165.526 339.119
L166.423 368.742
L172.697 368.742
L173.594 358.867
L174.49 368.742
L177.179 368.742
L178.076 319.37
L178.972 368.742
L185.247 368.742
L186.143 358.867
L187.04 368.742
L189.729 368.742
L190.625 329.245
L191.521 368.742
L194.211 368.742
L195.107 358.867
L196.003 368.742
L197.796 368.742
L198.693 329.245
L199.589 368.742
L205.864 368.742
L206.76 289.747
L207.656 368.742
L218.413 368.742
L219.309 348.993
L220.206 368.742
L222.895 368.742
L223.791 339.119
L224.688 368.742
L235.444 368.742
L236.341 358.867
L237.237 368.742
L239.03 368.742
L239.926 250.25
L240.823 368.742
L251.579 368.742
L252.476 339.119
L253.372 368.742
L256.061 368.742
L256.958 319.37
L257.854 368.742
L265.025 368.742
L265.921 319.37
L266.818 368.742
L277.574 368.742
L278.471 358.867
L279.367 368.742
L281.16 368.742
L282.056 329.245
L282.953 368.742
L289.227 368.742
L290.124 358.867
L291.02 368.742
L293.709 368.742
L294.606 319.37
L295.502 368.742
L302.673 368.742
L303.57 289.747
L304.466 368.742
L318.808 368.742
L319.705 339.119
L320.601 368.742
L327.772 368.742
L328.668 348.993
L329.565 368.742
L335.84 368.742
L336.736 358.867
L337.632 368.742
L340.321 368.742
L341.218 339.119
L342.114 368.742
L349.285 368.742
L350.182 269.999
L351.078 368.742
L365.42 368.742
L366.317 319.37
L367.213 368.742
L382.452 368.742
L383.348 329.245
L384.244 368.742
L390.519 368.742
L391.415 358.867
L392.312 368.742
L395.001 368.742
L395.897 240.376
L396.794 368.742
L412.032 368.742
L412.929 358.867
L413.825 368.742
L416.514 368.742
L417.411 339.119
L418.307 368.742
L424.582 368.742
L425.478 339.119
L426.374 368.742
L432.649 368.742
L433.546 339.119
L434.442 368.742
L441.613 368.742
L442.509 309.496
L443.406 368.742
L458.644 368.742
L459.541 82.3875
L460.437 368.742
L471.194 368.742
L471.194 368.742" style="fill:none;stroke:#0000ff;stroke-linecap:square;"/>
   </g>
   <g id="line2d_16">
    <path clip-path="url(#p75e4a4db2e)" d="
M24.7938 348.993
L25.6901 368.742
L28.3793 368.742
L29.2757 348.993
L30.1721 368.742
L32.8612 368.742
L33.7576 339.119
L34.654 368.742
L42.7215 368.742
L43.6178 329.245
L44.5142 368.742
L47.2034 368.742
L48.0998 348.993
L48.9962 368.742
L51.6853 368.742
L52.5817 348.993
L53.4781 368.742
L61.5456 368.742
L62.4419 339.119
L63.3383 368.742
L66.0275 368.742
L66.9239 339.119
L67.8203 368.742
L70.5094 368.742
L71.4058 358.867
L72.3022 368.742
L74.9913 368.742
L75.8877 309.496
L76.7841 368.742
L78.5769 368.742
L79.4733 358.867
L80.3697 368.742
L83.0588 368.742
L83.9552 319.37
L84.8516 368.742
L86.6444 368.742
L87.5407 358.867
L88.4371 368.742
L91.1263 368.742
L92.0227 329.245
L92.9191 368.742
L95.6082 368.742
L96.5046 339.119
L97.401 368.742
L103.676 368.742
L104.572 358.867
L105.468 368.742
L107.261 368.742
L108.158 329.245
L109.054 368.742
L111.743 368.742
L112.64 348.993
L113.536 368.742
L115.329 368.742
L116.225 348.993
L117.121 368.742
L119.811 368.742
L120.707 319.37
L121.603 368.742
L126.982 368.742
L127.878 339.119
L128.774 368.742
L139.531 368.742
L140.427 309.496
L141.324 368.742
L143.117 368.742
L144.013 348.993
L144.909 368.742
L147.599 368.742
L148.495 319.37
L149.391 368.742
L151.184 368.742
L152.08 309.496
L152.977 368.742
L159.252 368.742
L160.148 319.37
L161.044 368.742
L171.801 368.742
L172.697 358.867
L173.594 368.742
L175.387 368.742
L176.283 358.867
L177.179 368.742
L179.868 368.742
L180.765 348.993
L181.661 368.742
L187.936 368.742
L188.832 348.993
L189.729 368.742
L191.521 368.742
L192.418 339.119
L193.314 368.742
L204.071 368.742
L204.967 358.867
L205.864 368.742
L207.656 368.742
L208.553 309.496
L209.449 368.742
L215.724 368.742
L216.62 348.993
L217.517 368.742
L223.791 368.742
L224.688 289.747
L225.584 368.742
L239.926 368.742
L240.823 269.999
L241.719 368.742
L256.061 368.742
L256.958 358.867
L257.854 368.742
L260.543 368.742
L261.44 358.867
L262.336 368.742
L264.129 368.742
L265.025 181.13
L265.921 368.742
L288.331 368.742
L289.227 358.867
L290.124 368.742
L291.917 368.742
L292.813 269.999
L293.709 368.742
L308.948 368.742
L309.844 181.13
L310.741 368.742
L341.218 368.742
L342.114 240.376
L343.011 368.742
L369.902 368.742
L370.799 309.496
L371.695 368.742
L386.037 368.742
L386.934 240.376
L387.83 368.742
L418.307 368.742
L419.203 348.993
L420.1 368.742
L421.893 368.742
L422.789 348.993
L423.685 368.742
L430.856 368.742
L431.753 299.622
L432.649 368.742
L446.991 368.742
L447.888 319.37
L448.784 368.742
L455.059 368.742
L455.955 260.125
L456.852 368.742
L471.194 368.742
L471.194 368.742" style="fill:none;stroke:#008000;stroke-linecap:square;"/>
   </g>
   <g id="patch_3">
    <path d="
M24.7938 23.1417
L471.194 23.1417" style="fill:none;stroke:#000000;stroke-linecap:square;stroke-linejoin:miter;"/>
   </g>
   <g id="patch_4">
    <path d="
M471.194 368.742
L471.194 23.1417" style="fill:none;stroke:#000000;stroke-linecap:square;stroke-linejoin:miter;"/>
   </g>
   <g id="patch_5">
    <path d="
M24.7938 368.742
L471.194 368.742" style="fill:none;stroke:#000000;stroke-linecap:square;stroke-linejoin:miter;"/>
   </g>
   <g id="patch_6">
    <path d="
M24.7938 368.742
L24.7938 23.1417" style="fill:none;stroke:#000000;stroke-linecap:square;stroke-linejoin:miter;"/>
   </g>
   <g id="matplotlib.axis_1">
    <g id="xtick_1">
     <g id="line2d_17">
      <defs>
       <path d="
M0 0
L0 -4" id="m93b0483c22" style="stroke:#000000;stroke-width:0.5;"/>
      </defs>
      <g>
       <use style="stroke:#000000;stroke-width:0.5;" x="24.79375" xlink:href="#m93b0483c22" y="368.74175"/>
      </g>
     </g>
     <g id="line2d_18">
      <defs>
       <path d="
M0 0
L0 4" id="m741efc42ff" style="stroke:#000000;stroke-width:0.5;"/>
      </defs>
      <g>
       <use style="stroke:#000000;stroke-width:0.5;" x="24.79375" xlink:href="#m741efc42ff" y="23.14175"/>
      </g>
     </g>
     <g id="text_1">
      <!-- 0 -->
      <defs>
       <path d="
M31.7812 66.4062
Q24.1719 66.4062 20.3281 58.9062
Q16.5 51.4219 16.5 36.375
Q16.5 21.3906 20.3281 13.8906
Q24.1719 6.39062 31.7812 6.39062
Q39.4531 6.39062 43.2812 13.8906
Q47.125 21.3906 47.125 36.375
Q47.125 51.4219 43.2812 58.9062
Q39.4531 66.4062 31.7812 66.4062
M31.7812 74.2188
Q44.0469 74.2188 50.5156 64.5156
Q56.9844 54.8281 56.9844 36.375
Q56.9844 17.9688 50.5156 8.26562
Q44.0469 -1.42188 31.7812 -1.42188
Q19.5312 -1.42188 13.0625 8.26562
Q6.59375 17.9688 6.59375 36.375
Q6.59375 54.8281 13.0625 64.5156
Q19.5312 74.2188 31.7812 74.2188" id="DejaVuSans-30"/>
      </defs>
      <g transform="translate(21.7703125 381.859875)scale(0.12 -0.12)">
       <use xlink:href="#DejaVuSans-30"/>
      </g>
     </g>
    </g>
    <g id="xtick_2">
     <g id="line2d_19">
      <g>
       <use style="stroke:#000000;stroke-width:0.5;" x="114.432304217" xlink:href="#m93b0483c22" y="368.74175"/>
      </g>
     </g>
     <g id="line2d_20">
      <g>
       <use style="stroke:#000000;stroke-width:0.5;" x="114.432304217" xlink:href="#m741efc42ff" y="23.14175"/>
      </g>
     </g>
     <g id="text_2">
      <!-- 100 -->
      <defs>
       <path d="
M12.4062 8.29688
L28.5156 8.29688
L28.5156 63.9219
L10.9844 60.4062
L10.9844 69.3906
L28.4219 72.9062
L38.2812 72.9062
L38.2812 8.29688
L54.3906 8.29688
L54.3906 0
L12.4062 0
z
" id="DejaVuSans-31"/>
      </defs>
      <g transform="translate(104.037304217 381.859875)scale(0.12 -0.12)">
       <use xlink:href="#DejaVuSans-31"/>
       <use x="63.623046875" xlink:href="#DejaVuSans-30"/>
       <use x="127.24609375" xlink:href="#DejaVuSans-30"/>
      </g>
     </g>
    </g>
    <g id="xtick_3">
     <g id="line2d_21">
      <g>
       <use style="stroke:#000000;stroke-width:0.5;" x="204.070858434" xlink:href="#m93b0483c22" y="368.74175"/>
      </g>
     </g>
     <g id="line2d_22">
      <g>
       <use style="stroke:#000000;stroke-width:0.5;" x="204.070858434" xlink:href="#m741efc42ff" y="23.14175"/>
      </g>
     </g>
     <g id="text_3">
      <!-- 200 -->
      <defs>
       <path d="
M19.1875 8.29688
L53.6094 8.29688
L53.6094 0
L7.32812 0
L7.32812 8.29688
Q12.9375 14.1094 22.625 23.8906
Q32.3281 33.6875 34.8125 36.5312
Q39.5469 41.8438 41.4219 45.5312
Q43.3125 49.2188 43.3125 52.7812
Q43.3125 58.5938 39.2344 62.25
Q35.1562 65.9219 28.6094 65.9219
Q23.9688 65.9219 18.8125 64.3125
Q13.6719 62.7031 7.8125 59.4219
L7.8125 69.3906
Q13.7656 71.7812 18.9375 73
Q24.125 74.2188 28.4219 74.2188
Q39.75 74.2188 46.4844 68.5469
Q53.2188 62.8906 53.2188 53.4219
Q53.2188 48.9219 51.5312 44.8906
Q49.8594 40.875 45.4062 35.4062
Q44.1875 33.9844 37.6406 27.2188
Q31.1094 20.4531 19.1875 8.29688" id="DejaVuSans-32"/>
      </defs>
      <g transform="translate(193.456483434 381.859875)scale(0.12 -0.12)">
       <use xlink:href="#DejaVuSans-32"/>
       <use x="63.623046875" xlink:href="#DejaVuSans-30"/>
       <use x="127.24609375" xlink:href="#DejaVuSans-30"/>
      </g>
     </g>
    </g>
    <g id="xtick_4">
     <g id="line2d_23">
      <g>
       <use style="stroke:#000000;stroke-width:0.5;" x="293.709412651" xlink:href="#m93b0483c22" y="368.74175"/>
      </g>
     </g>
     <g id="line2d_24">
      <g>
       <use style="stroke:#000000;stroke-width:0.5;" x="293.709412651" xlink:href="#m741efc42ff" y="23.14175"/>
      </g>
     </g>
     <g id="text_4">
      <!-- 300 -->
      <defs>
       <path d="
M40.5781 39.3125
Q47.6562 37.7969 51.625 33
Q55.6094 28.2188 55.6094 21.1875
Q55.6094 10.4062 48.1875 4.48438
Q40.7656 -1.42188 27.0938 -1.42188
Q22.5156 -1.42188 17.6562 -0.515625
Q12.7969 0.390625 7.625 2.20312
L7.625 11.7188
Q11.7188 9.32812 16.5938 8.10938
Q21.4844 6.89062 26.8125 6.89062
Q36.0781 6.89062 40.9375 10.5469
Q45.7969 14.2031 45.7969 21.1875
Q45.7969 27.6406 41.2812 31.2656
Q36.7656 34.9062 28.7188 34.9062
L20.2188 34.9062
L20.2188 43.0156
L29.1094 43.0156
Q36.375 43.0156 40.2344 45.9219
Q44.0938 48.8281 44.0938 54.2969
Q44.0938 59.9062 40.1094 62.9062
Q36.1406 65.9219 28.7188 65.9219
Q24.6562 65.9219 20.0156 65.0312
Q15.375 64.1562 9.8125 62.3125
L9.8125 71.0938
Q15.4375 72.6562 20.3438 73.4375
Q25.25 74.2188 29.5938 74.2188
Q40.8281 74.2188 47.3594 69.1094
Q53.9062 64.0156 53.9062 55.3281
Q53.9062 49.2656 50.4375 45.0938
Q46.9688 40.9219 40.5781 39.3125" id="DejaVuSans-33"/>
      </defs>
      <g transform="translate(283.112850151 381.859875)scale(0.12 -0.12)">
       <use xlink:href="#DejaVuSans-33"/>
       <use x="63.623046875" xlink:href="#DejaVuSans-30"/>
       <use x="127.24609375" xlink:href="#DejaVuSans-30"/>
      </g>
     </g>
    </g>
    <g id="xtick_5">
     <g id="line2d_25">
      <g>
       <use style="stroke:#000000;stroke-width:0.5;" x="383.347966867" xlink:href="#m93b0483c22" y="368.74175"/>
      </g>
     </g>
     <g id="line2d_26">
      <g>
       <use style="stroke:#000000;stroke-width:0.5;" x="383.347966867" xlink:href="#m741efc42ff" y="23.14175"/>
      </g>
     </g>
     <g id="text_5">
      <!-- 400 -->
      <defs>
       <path d="
M37.7969 64.3125
L12.8906 25.3906
L37.7969 25.3906
z

M35.2031 72.9062
L47.6094 72.9062
L47.6094 25.3906
L58.0156 25.3906
L58.0156 17.1875
L47.6094 17.1875
L47.6094 0
L37.7969 0
L37.7969 17.1875
L4.89062 17.1875
L4.89062 26.7031
z
" id="DejaVuSans-34"/>
      </defs>
      <g transform="translate(372.587341867 381.859875)scale(0.12 -0.12)">
       <use xlink:href="#DejaVuSans-34"/>
       <use x="63.623046875" xlink:href="#DejaVuSans-30"/>
       <use x="127.24609375" xlink:href="#DejaVuSans-30"/>
      </g>
     </g>
    </g>
    <g id="text_6">
     <!-- time -->
     <defs>
      <path d="
M18.3125 70.2188
L18.3125 54.6875
L36.8125 54.6875
L36.8125 47.7031
L18.3125 47.7031
L18.3125 18.0156
Q18.3125 11.3281 20.1406 9.42188
Q21.9688 7.51562 27.5938 7.51562
L36.8125 7.51562
L36.8125 0
L27.5938 0
Q17.1875 0 13.2344 3.875
Q9.28125 7.76562 9.28125 18.0156
L9.28125 47.7031
L2.6875 47.7031
L2.6875 54.6875
L9.28125 54.6875
L9.28125 70.2188
z
" id="DejaVuSans-74"/>
      <path d="
M52 44.1875
Q55.375 50.25 60.0625 53.125
Q64.75 56 71.0938 56
Q79.6406 56 84.2812 50.0156
Q88.9219 44.0469 88.9219 33.0156
L88.9219 0
L79.8906 0
L79.8906 32.7188
Q79.8906 40.5781 77.0938 44.375
Q74.3125 48.1875 68.6094 48.1875
Q61.625 48.1875 57.5625 43.5469
Q53.5156 38.9219 53.5156 30.9062
L53.5156 0
L44.4844 0
L44.4844 32.7188
Q44.4844 40.625 41.7031 44.4062
Q38.9219 48.1875 33.1094 48.1875
Q26.2188 48.1875 22.1562 43.5312
Q18.1094 38.875 18.1094 30.9062
L18.1094 0
L9.07812 0
L9.07812 54.6875
L18.1094 54.6875
L18.1094 46.1875
Q21.1875 51.2188 25.4844 53.6094
Q29.7812 56 35.6875 56
Q41.6562 56 45.8281 52.9688
Q50 49.9531 52 44.1875" id="DejaVuSans-6d"/>
      <path d="
M56.2031 29.5938
L56.2031 25.2031
L14.8906 25.2031
Q15.4844 15.9219 20.4844 11.0625
Q25.4844 6.20312 34.4219 6.20312
Q39.5938 6.20312 44.4531 7.46875
Q49.3125 8.73438 54.1094 11.2812
L54.1094 2.78125
Q49.2656 0.734375 44.1875 -0.34375
Q39.1094 -1.42188 33.8906 -1.42188
Q20.7969 -1.42188 13.1562 6.1875
Q5.51562 13.8125 5.51562 26.8125
Q5.51562 40.2344 12.7656 48.1094
Q20.0156 56 32.3281 56
Q43.3594 56 49.7812 48.8906
Q56.2031 41.7969 56.2031 29.5938
M47.2188 32.2344
Q47.125 39.5938 43.0938 43.9844
Q39.0625 48.3906 32.4219 48.3906
Q24.9062 48.3906 20.3906 44.1406
Q15.875 39.8906 15.1875 32.1719
z
" id="DejaVuSans-65"/>
      <path d="
M9.42188 54.6875
L18.4062 54.6875
L18.4062 0
L9.42188 0
z

M9.42188 75.9844
L18.4062 75.9844
L18.4062 64.5938
L9.42188 64.5938
z
" id="DejaVuSans-69"/>
     </defs>
     <g transform="translate(234.919375 398.473625)scale(0.12 -0.12)">
      <use xlink:href="#DejaVuSans-74"/>
      <use x="39.208984375" xlink:href="#DejaVuSans-69"/>
      <use x="66.9921875" xlink:href="#DejaVuSans-6d"/>
      <use x="164.404296875" xlink:href="#DejaVuSans-65"/>
     </g>
    </g>
   </g>
   <g id="matplotlib.axis_2">
    <g id="ytick_1">
     <g id="line2d_27">
      <defs>
       <path d="
M0 0
L4 0" id="m728421d6d4" style="stroke:#000000;stroke-width:0.5;"/>
      </defs>
      <g>
       <use style="stroke:#000000;stroke-width:0.5;" x="24.79375" xlink:href="#m728421d6d4" y="368.74175"/>
      </g>
     </g>
     <g id="line2d_28">
      <defs>
       <path d="
M0 0
L-4 0" id="mcb0005524f" style="stroke:#000000;stroke-width:0.5;"/>
      </defs>
      <g>
       <use style="stroke:#000000;stroke-width:0.5;" x="471.19375" xlink:href="#mcb0005524f" y="368.74175"/>
      </g>
     </g>
     <g id="text_7">
      <!-- 0 -->
      <g transform="translate(14.746875 372.053)scale(0.12 -0.12)">
       <use xlink:href="#DejaVuSans-30"/>
      </g>
     </g>
    </g>
    <g id="ytick_2">
     <g id="line2d_29">
      <g>
       <use style="stroke:#000000;stroke-width:0.5;" x="24.79375" xlink:href="#m728421d6d4" y="319.370321429"/>
      </g>
     </g>
     <g id="line2d_30">
      <g>
       <use style="stroke:#000000;stroke-width:0.5;" x="471.19375" xlink:href="#mcb0005524f" y="319.370321429"/>
      </g>
     </g>
     <g id="text_8">
      <!-- 5 -->
      <defs>
       <path d="
M10.7969 72.9062
L49.5156 72.9062
L49.5156 64.5938
L19.8281 64.5938
L19.8281 46.7344
Q21.9688 47.4688 24.1094 47.8281
Q26.2656 48.1875 28.4219 48.1875
Q40.625 48.1875 47.75 41.5
Q54.8906 34.8125 54.8906 23.3906
Q54.8906 11.625 47.5625 5.09375
Q40.2344 -1.42188 26.9062 -1.42188
Q22.3125 -1.42188 17.5469 -0.640625
Q12.7969 0.140625 7.71875 1.70312
L7.71875 11.625
Q12.1094 9.23438 16.7969 8.0625
Q21.4844 6.89062 26.7031 6.89062
Q35.1562 6.89062 40.0781 11.3281
Q45.0156 15.7656 45.0156 23.3906
Q45.0156 31 40.0781 35.4375
Q35.1562 39.8906 26.7031 39.8906
Q22.75 39.8906 18.8125 39.0156
Q14.8906 38.1406 10.7969 36.2812
z
" id="DejaVuSans-35"/>
      </defs>
      <g transform="translate(15.133125 322.681571429)scale(0.12 -0.12)">
       <use xlink:href="#DejaVuSans-35"/>
      </g>
     </g>
    </g>
    <g id="ytick_3">
     <g id="line2d_31">
      <g>
       <use style="stroke:#000000;stroke-width:0.5;" x="24.79375" xlink:href="#m728421d6d4" y="269.998892857"/>
      </g>
     </g>
     <g id="line2d_32">
      <g>
       <use style="stroke:#000000;stroke-width:0.5;" x="471.19375" xlink:href="#mcb0005524f" y="269.998892857"/>
      </g>
     </g>
     <g id="text_9">
      <!-- 10 -->
      <g transform="translate(7.63875 273.310142857)scale(0.12 -0.12)">
       <use xlink:href="#DejaVuSans-31"/>
       <use x="63.623046875" xlink:href="#DejaVuSans-30"/>
      </g>
     </g>
    </g>
    <g id="ytick_4">
     <g id="line2d_33">
      <g>
       <use style="stroke:#000000;stroke-width:0.5;" x="24.79375" xlink:href="#m728421d6d4" y="220.627464286"/>
      </g>
     </g>
     <g id="line2d_34">
      <g>
       <use style="stroke:#000000;stroke-width:0.5;" x="471.19375" xlink:href="#mcb0005524f" y="220.627464286"/>
      </g>
     </g>
     <g id="text_10">
      <!-- 15 -->
      <g transform="translate(7.89 223.938714286)scale(0.12 -0.12)">
       <use xlink:href="#DejaVuSans-31"/>
       <use x="63.623046875" xlink:href="#DejaVuSans-35"/>
      </g>
     </g>
    </g>
    <g id="ytick_5">
     <g id="line2d_35">
      <g>
       <use style="stroke:#000000;stroke-width:0.5;" x="24.79375" xlink:href="#m728421d6d4" y="171.256035714"/>
      </g>
     </g>
     <g id="line2d_36">
      <g>
       <use style="stroke:#000000;stroke-width:0.5;" x="471.19375" xlink:href="#mcb0005524f" y="171.256035714"/>
      </g>
     </g>
     <g id="text_11">
      <!-- 20 -->
      <g transform="translate(7.2 174.567285714)scale(0.12 -0.12)">
       <use xlink:href="#DejaVuSans-32"/>
       <use x="63.623046875" xlink:href="#DejaVuSans-30"/>
      </g>
     </g>
    </g>
    <g id="ytick_6">
     <g id="line2d_37">
      <g>
       <use style="stroke:#000000;stroke-width:0.5;" x="24.79375" xlink:href="#m728421d6d4" y="121.884607143"/>
      </g>
     </g>
     <g id="line2d_38">
      <g>
       <use style="stroke:#000000;stroke-width:0.5;" x="471.19375" xlink:href="#mcb0005524f" y="121.884607143"/>
      </g>
     </g>
     <g id="text_12">
      <!-- 25 -->
      <g transform="translate(7.45125 125.195857143)scale(0.12 -0.12)">
       <use xlink:href="#DejaVuSans-32"/>
       <use x="63.623046875" xlink:href="#DejaVuSans-35"/>
      </g>
     </g>
    </g>
    <g id="ytick_7">
     <g id="line2d_39">
      <g>
       <use style="stroke:#000000;stroke-width:0.5;" x="24.79375" xlink:href="#m728421d6d4" y="72.5131785714"/>
      </g>
     </g>
     <g id="line2d_40">
      <g>
       <use style="stroke:#000000;stroke-width:0.5;" x="471.19375" xlink:href="#mcb0005524f" y="72.5131785714"/>
      </g>
     </g>
     <g id="text_13">
      <!-- 30 -->
      <g transform="translate(7.235625 75.8244285714)scale(0.12 -0.12)">
       <use xlink:href="#DejaVuSans-33"/>
       <use x="63.623046875" xlink:href="#DejaVuSans-30"/>
      </g>
     </g>
    </g>
    <g id="ytick_8">
     <g id="line2d_41">
      <g>
       <use style="stroke:#000000;stroke-width:0.5;" x="24.79375" xlink:href="#m728421d6d4" y="23.14175"/>
      </g>
     </g>
     <g id="line2d_42">
      <g>
       <use style="stroke:#000000;stroke-width:0.5;" x="471.19375" xlink:href="#mcb0005524f" y="23.14175"/>
      </g>
     </g>
     <g id="text_14">
      <!-- 35 -->
      <g transform="translate(7.486875 26.453)scale(0.12 -0.12)">
       <use xlink:href="#DejaVuSans-33"/>
       <use x="63.623046875" xlink:href="#DejaVuSans-35"/>
      </g>
     </g>
    </g>
   </g>
   <g id="text_15">
    <!-- /agas/count/bind_gid change -->
    <defs>
     <path d="
M25.3906 72.9062
L33.6875 72.9062
L8.29688 -9.28125
L0 -9.28125
z
" id="DejaVuSans-2f"/>
     <path d="
M30.6094 48.3906
Q23.3906 48.3906 19.1875 42.75
Q14.9844 37.1094 14.9844 27.2969
Q14.9844 17.4844 19.1562 11.8438
Q23.3438 6.20312 30.6094 6.20312
Q37.7969 6.20312 41.9844 11.8594
Q46.1875 17.5312 46.1875 27.2969
Q46.1875 37.0156 41.9844 42.7031
Q37.7969 48.3906 30.6094 48.3906
M30.6094 56
Q42.3281 56 49.0156 48.375
Q55.7188 40.7656 55.7188 27.2969
Q55.7188 13.875 49.0156 6.21875
Q42.3281 -1.42188 30.6094 -1.42188
Q18.8438 -1.42188 12.1719 6.21875
Q5.51562 13.875 5.51562 27.2969
Q5.51562 40.7656 12.1719 48.375
Q18.8438 56 30.6094 56" id="DejaVuSans-6f"/>
     <path d="
M54.8906 33.0156
L54.8906 0
L45.9062 0
L45.9062 32.7188
Q45.9062 40.4844 42.875 44.3281
Q39.8438 48.1875 33.7969 48.1875
Q26.5156 48.1875 22.3125 43.5469
Q18.1094 38.9219 18.1094 30.9062
L18.1094 0
L9.07812 0
L9.07812 54.6875
L18.1094 54.6875
L18.1094 46.1875
Q21.3438 51.125 25.7031 53.5625
Q30.0781 56 35.7969 56
Q45.2188 56 50.0469 50.1719
Q54.8906 44.3438 54.8906 33.0156" id="DejaVuSans-6e"/>
     <path d="
M50.9844 -16.6094
L50.9844 -23.5781
L-0.984375 -23.5781
L-0.984375 -16.6094
z
" id="DejaVuSans-5f"/>
     <path id="DejaVuSans-20"/>
     <path d="
M54.8906 33.0156
L54.8906 0
L45.9062 0
L45.9062 32.7188
Q45.9062 40.4844 42.875 44.3281
Q39.8438 48.1875 33.7969 48.1875
Q26.5156 48.1875 22.3125 43.5469
Q18.1094 38.9219 18.1094 30.9062
L18.1094 0
L9.07812 0
L9.07812 75.9844
L18.1094 75.9844
L18.1094 46.1875
Q21.3438 51.125 25.7031 53.5625
Q30.0781 56 35.7969 56
Q45.2188 56 50.0469 50.1719
Q54.8906 44.3438 54.8906 33.0156" id="DejaVuSans-68"/>
     <path d="
M8.5 21.5781
L8.5 54.6875
L17.4844 54.6875
L17.4844 21.9219
Q17.4844 14.1562 20.5 10.2656
Q23.5312 6.39062 29.5938 6.39062
Q36.8594 6.39062 41.0781 11.0312
Q45.3125 15.6719 45.3125 23.6875
L45.3125 54.6875
L54.2969 54.6875
L54.2969 0
L45.3125 0
L45.3125 8.40625
Q42.0469 3.42188 37.7188 1
Q33.4062 -1.42188 27.6875 -1.42188
Q18.2656 -1.42188 13.375 4.4375
Q8.5 10.2969 8.5 21.5781
M31.1094 56
z
" id="DejaVuSans-75"/>
     <path d="
M45.4062 27.9844
Q45.4062 37.75 41.375 43.1094
Q37.3594 48.4844 30.0781 48.4844
Q22.8594 48.4844 18.8281 43.1094
Q14.7969 37.75 14.7969 27.9844
Q14.7969 18.2656 18.8281 12.8906
Q22.8594 7.51562 30.0781 7.51562
Q37.3594 7.51562 41.375 12.8906
Q45.4062 18.2656 45.4062 27.9844
M54.3906 6.78125
Q54.3906 -7.17188 48.1875 -13.9844
Q42 -20.7969 29.2031 -20.7969
Q24.4688 -20.7969 20.2656 -20.0938
Q16.0625 -19.3906 12.1094 -17.9219
L12.1094 -9.1875
Q16.0625 -11.3281 19.9219 -12.3438
Q23.7812 -13.375 27.7812 -13.375
Q36.625 -13.375 41.0156 -8.76562
Q45.4062 -4.15625 45.4062 5.17188
L45.4062 9.625
Q42.625 4.78125 38.2812 2.39062
Q33.9375 0 27.875 0
Q17.8281 0 11.6719 7.65625
Q5.51562 15.3281 5.51562 27.9844
Q5.51562 40.6719 11.6719 48.3281
Q17.8281 56 27.875 56
Q33.9375 56 38.2812 53.6094
Q42.625 51.2188 45.4062 46.3906
L45.4062 54.6875
L54.3906 54.6875
z
" id="DejaVuSans-67"/>
     <path d="
M45.4062 46.3906
L45.4062 75.9844
L54.3906 75.9844
L54.3906 0
L45.4062 0
L45.4062 8.20312
Q42.5781 3.32812 38.25 0.953125
Q33.9375 -1.42188 27.875 -1.42188
Q17.9688 -1.42188 11.7344 6.48438
Q5.51562 14.4062 5.51562 27.2969
Q5.51562 40.1875 11.7344 48.0938
Q17.9688 56 27.875 56
Q33.9375 56 38.25 53.625
Q42.5781 51.2656 45.4062 46.3906
M14.7969 27.2969
Q14.7969 17.3906 18.875 11.75
Q22.9531 6.10938 30.0781 6.10938
Q37.2031 6.10938 41.2969 11.75
Q45.4062 17.3906 45.4062 27.2969
Q45.4062 37.2031 41.2969 42.8438
Q37.2031 48.4844 30.0781 48.4844
Q22.9531 48.4844 18.875 42.8438
Q14.7969 37.2031 14.7969 27.2969" id="DejaVuSans-64"/>
     <path d="
M48.6875 27.2969
Q48.6875 37.2031 44.6094 42.8438
Q40.5312 48.4844 33.4062 48.4844
Q26.2656 48.4844 22.1875 42.8438
Q18.1094 37.2031 18.1094 27.2969
Q18.1094 17.3906 22.1875 11.75
Q26.2656 6.10938 33.4062 6.10938
Q40.5312 6.10938 44.6094 11.75
Q48.6875 17.3906 48.6875 27.2969
M18.1094 46.3906
Q20.9531 51.2656 25.2656 53.625
Q29.5938 56 35.5938 56
Q45.5625 56 51.7812 48.0938
Q58.0156 40.1875 58.0156 27.2969
Q58.0156 14.4062 51.7812 6.48438
Q45.5625 -1.42188 35.5938 -1.42188
Q29.5938 -1.42188 25.2656 0.953125
Q20.9531 3.32812 18.1094 8.20312
L18.1094 0
L9.07812 0
L9.07812 75.9844
L18.1094 75.9844
z
" id="DejaVuSans-62"/>
     <path d="
M48.7812 52.5938
L48.7812 44.1875
Q44.9688 46.2969 41.1406 47.3438
Q37.3125 48.3906 33.4062 48.3906
Q24.6562 48.3906 19.8125 42.8438
Q14.9844 37.3125 14.9844 27.2969
Q14.9844 17.2812 19.8125 11.7344
Q24.6562 6.20312 33.4062 6.20312
Q37.3125 6.20312 41.1406 7.25
Q44.9688 8.29688 48.7812 10.4062
L48.7812 2.09375
Q45.0156 0.34375 40.9844 -0.53125
Q36.9688 -1.42188 32.4219 -1.42188
Q20.0625 -1.42188 12.7812 6.34375
Q5.51562 14.1094 5.51562 27.2969
Q5.51562 40.6719 12.8594 48.3281
Q20.2188 56 33.0156 56
Q37.1562 56 41.1094 55.1406
Q45.0625 54.2969 48.7812 52.5938" id="DejaVuSans-63"/>
     <path d="
M44.2812 53.0781
L44.2812 44.5781
Q40.4844 46.5312 36.375 47.5
Q32.2812 48.4844 27.875 48.4844
Q21.1875 48.4844 17.8438 46.4375
Q14.5 44.3906 14.5 40.2812
Q14.5 37.1562 16.8906 35.375
Q19.2812 33.5938 26.5156 31.9844
L29.5938 31.2969
Q39.1562 29.25 43.1875 25.5156
Q47.2188 21.7812 47.2188 15.0938
Q47.2188 7.46875 41.1875 3.01562
Q35.1562 -1.42188 24.6094 -1.42188
Q20.2188 -1.42188 15.4531 -0.5625
Q10.6875 0.296875 5.42188 2
L5.42188 11.2812
Q10.4062 8.6875 15.2344 7.39062
Q20.0625 6.10938 24.8125 6.10938
Q31.1562 6.10938 34.5625 8.28125
Q37.9844 10.4531 37.9844 14.4062
Q37.9844 18.0625 35.5156 20.0156
Q33.0625 21.9688 24.7031 23.7812
L21.5781 24.5156
Q13.2344 26.2656 9.51562 29.9062
Q5.8125 33.5469 5.8125 39.8906
Q5.8125 47.6094 11.2812 51.7969
Q16.75 56 26.8125 56
Q31.7812 56 36.1719 55.2656
Q40.5781 54.5469 44.2812 53.0781" id="DejaVuSans-73"/>
     <path d="
M34.2812 27.4844
Q23.3906 27.4844 19.1875 25
Q14.9844 22.5156 14.9844 16.5
Q14.9844 11.7188 18.1406 8.90625
Q21.2969 6.10938 26.7031 6.10938
Q34.1875 6.10938 38.7031 11.4062
Q43.2188 16.7031 43.2188 25.4844
L43.2188 27.4844
z

M52.2031 31.2031
L52.2031 0
L43.2188 0
L43.2188 8.29688
Q40.1406 3.32812 35.5469 0.953125
Q30.9531 -1.42188 24.3125 -1.42188
Q15.9219 -1.42188 10.9531 3.29688
Q6 8.01562 6 15.9219
Q6 25.1406 12.1719 29.8281
Q18.3594 34.5156 30.6094 34.5156
L43.2188 34.5156
L43.2188 35.4062
Q43.2188 41.6094 39.1406 45
Q35.0625 48.3906 27.6875 48.3906
Q23 48.3906 18.5469 47.2656
Q14.1094 46.1406 10.0156 43.8906
L10.0156 52.2031
Q14.9375 54.1094 19.5781 55.0469
Q24.2188 56 28.6094 56
Q40.4844 56 46.3438 49.8438
Q52.2031 43.7031 52.2031 31.2031" id="DejaVuSans-61"/>
    </defs>
    <g transform="translate(144.40825 18.14175)scale(0.144 -0.144)">
     <use xlink:href="#DejaVuSans-2f"/>
     <use x="33.69140625" xlink:href="#DejaVuSans-61"/>
     <use x="94.970703125" xlink:href="#DejaVuSans-67"/>
     <use x="158.447265625" xlink:href="#DejaVuSans-61"/>
     <use x="219.7265625" xlink:href="#DejaVuSans-73"/>
     <use x="271.826171875" xlink:href="#DejaVuSans-2f"/>
     <use x="305.517578125" xlink:href="#DejaVuSans-63"/>
     <use x="360.498046875" xlink:href="#DejaVuSans-6f"/>
     <use x="421.6796875" xlink:href="#DejaVuSans-75"/>
     <use x="485.05859375" xlink:href="#DejaVuSans-6e"/>
     <use x="548.4375" xlink:href="#DejaVuSans-74"/>
     <use x="587.646484375" xlink:href="#DejaVuSans-2f"/>
     <use x="621.337890625" xlink:href="#DejaVuSans-62"/>
     <use x="684.814453125" xlink:href="#DejaVuSans-69"/>
     <use x="712.59765625" xlink:href="#DejaVuSans-6e"/>
     <use x="775.9765625" xlink:href="#DejaVuSans-64"/>
     <use x="839.453125" xlink:href="#DejaVuSans-5f"/>
     <use x="889.453125" xlink:href="#DejaVuSans-67"/>
     <use x="952.9296875" xlink:href="#DejaVuSans-69"/>
     <use x="980.712890625" xlink:href="#DejaVuSans-64"/>
     <use x="1044.18945312" xlink:href="#DejaVuSans-20"/>
     <use x="1075.9765625" xlink:href="#DejaVuSans-63"/>
     <use x="1130.95703125" xlink:href="#DejaVuSans-68"/>
     <use x="1194.3359375" xlink:href="#DejaVuSans-61"/>
     <use x="1255.61523438" xlink:href="#DejaVuSans-6e"/>
     <use x="1318.99414062" xlink:href="#DejaVuSans-67"/>
     <use x="1382.47070312" xlink:href="#DejaVuSans-65"/>
    </g>
   </g>
   <g id="legend_1">
    <g id="patch_7">
     <path d="
M478.394 367.194
L610.183 367.194
L610.183 24.6897
L478.394 24.6897
z
" style="fill:#ffffff;stroke:#000000;stroke-linejoin:miter;"/>
    </g>
    <g id="line2d_43">
     <path d="
M488.474 36.3515
L508.634 36.3515" style="fill:none;stroke:#0000ff;stroke-linecap:square;"/>
    </g>
    <g id="line2d_44"/>
    <g id="text_16">
     <!-- locality#0 -->
     <defs>
      <path d="
M51.125 44
L36.9219 44
L32.8125 27.6875
L47.125 27.6875
z

M43.7969 71.7812
L38.7188 51.5156
L52.9844 51.5156
L58.1094 71.7812
L65.9219 71.7812
L60.8906 51.5156
L76.125 51.5156
L76.125 44
L58.9844 44
L54.9844 27.6875
L70.5156 27.6875
L70.5156 20.2188
L53.0781 20.2188
L48 0
L40.1875 0
L45.2188 20.2188
L30.9062 20.2188
L25.875 0
L18.0156 0
L23.0938 20.2188
L7.71875 20.2188
L7.71875 27.6875
L24.9062 27.6875
L29 44
L13.2812 44
L13.2812 51.5156
L30.9062 51.5156
L35.8906 71.7812
z
" id="DejaVuSans-23"/>
      <path d="
M32.1719 -5.07812
Q28.375 -14.8438 24.75 -17.8125
Q21.1406 -20.7969 15.0938 -20.7969
L7.90625 -20.7969
L7.90625 -13.2812
L13.1875 -13.2812
Q16.8906 -13.2812 18.9375 -11.5156
Q21 -9.76562 23.4844 -3.21875
L25.0938 0.875
L2.98438 54.6875
L12.5 54.6875
L29.5938 11.9219
L46.6875 54.6875
L56.2031 54.6875
z
" id="DejaVuSans-79"/>
      <path d="
M9.42188 75.9844
L18.4062 75.9844
L18.4062 0
L9.42188 0
z
" id="DejaVuSans-6c"/>
     </defs>
     <g transform="translate(524.47375 41.3915)scale(0.144 -0.144)">
      <use xlink:href="#DejaVuSans-6c"/>
      <use x="27.783203125" xlink:href="#DejaVuSans-6f"/>
      <use x="88.96484375" xlink:href="#DejaVuSans-63"/>
      <use x="143.9453125" xlink:href="#DejaVuSans-61"/>
      <use x="205.224609375" xlink:href="#DejaVuSans-6c"/>
      <use x="233.0078125" xlink:href="#DejaVuSans-69"/>
      <use x="260.791015625" xlink:href="#DejaVuSans-74"/>
      <use x="300.0" xlink:href="#DejaVuSans-79"/>
      <use x="359.1796875" xlink:href="#DejaVuSans-23"/>
      <use x="442.96875" xlink:href="#DejaVuSans-30"/>
     </g>
    </g>
    <g id="line2d_45">
     <path d="
M488.474 57.488
L508.634 57.488" style="fill:none;stroke:#008000;stroke-linecap:square;"/>
    </g>
    <g id="line2d_46"/>
    <g id="text_17">
     <!-- locality#1 -->
     <g transform="translate(524.47375 62.528)scale(0.144 -0.144)">
      <use xlink:href="#DejaVuSans-6c"/>
      <use x="27.783203125" xlink:href="#DejaVuSans-6f"/>
      <use x="88.96484375" xlink:href="#DejaVuSans-63"/>
      <use x="143.9453125" xlink:href="#DejaVuSans-61"/>
      <use x="205.224609375" xlink:href="#DejaVuSans-6c"/>
      <use x="233.0078125" xlink:href="#DejaVuSans-69"/>
      <use x="260.791015625" xlink:href="#DejaVuSans-74"/>
      <use x="300.0" xlink:href="#DejaVuSans-79"/>
      <use x="359.1796875" xlink:href="#DejaVuSans-23"/>
      <use x="442.96875" xlink:href="#DejaVuSans-31"/>
     </g>
    </g>
    <g id="line2d_47">
     <path d="
M488.474 78.6245
L508.634 78.6245" style="fill:none;stroke:#ff0000;stroke-linecap:square;"/>
    </g>
    <g id="line2d_48"/>
    <g id="text_18">
     <!-- locality#10 -->
     <g transform="translate(524.47375 83.6645)scale(0.144 -0.144)">
      <use xlink:href="#DejaVuSans-6c"/>
      <use x="27.783203125" xlink:href="#DejaVuSans-6f"/>
      <use x="88.96484375" xlink:href="#DejaVuSans-63"/>
      <use x="143.9453125" xlink:href="#DejaVuSans-61"/>
      <use x="205.224609375" xlink:href="#DejaVuSans-6c"/>
      <use x="233.0078125" xlink:href="#DejaVuSans-69"/>
      <use x="260.791015625" xlink:href="#DejaVuSans-74"/>
      <use x="300.0" xlink:href="#DejaVuSans-79"/>
      <use x="359.1796875" xlink:href="#DejaVuSans-23"/>
      <use x="442.96875" xlink:href="#DejaVuSans-31"/>
      <use x="506.591796875" xlink:href="#DejaVuSans-30"/>
     </g>
    </g>
    <g id="line2d_49">
     <path d="
M488.474 99.761
L508.634 99.761" style="fill:none;stroke:#00bfbf;stroke-linecap:square;"/>
    </g>
    <g id="line2d_50"/>
    <g id="text_19">
     <!-- locality#11 -->
     <g transform="translate(524.47375 104.801)scale(0.144 -0.144)">
      <use xlink:href="#DejaVuSans-6c"/>
      <use x="27.783203125" xlink:href="#DejaVuSans-6f"/>
      <use x="88.96484375" xlink:href="#DejaVuSans-63"/>
      <use x="143.9453125" xlink:href="#DejaVuSans-61"/>
      <use x="205.224609375" xlink:href="#DejaVuSans-6c"/>
      <use x="233.0078125" xlink:href="#DejaVuSans-69"/>
      <use x="260.791015625" xlink:href="#DejaVuSans-74"/>
      <use x="300.0" xlink:href="#DejaVuSans-79"/>
      <use x="359.1796875" xlink:href="#DejaVuSans-23"/>
      <use x="442.96875" xlink:href="#DejaVuSans-31"/>
      <use x="506.591796875" xlink:href="#DejaVuSans-31"/>
     </g>
    </g>
    <g id="line2d_51">
     <path d="
M488.474 120.897
L508.634 120.897" style="fill:none;stroke:#bf00bf;stroke-linecap:square;"/>
    </g>
    <g id="line2d_52"/>
    <g id="text_20">
     <!-- locality#12 -->
     <g transform="translate(524.47375 125.9375)scale(0.144 -0.144)">
      <use xlink:href="#DejaVuSans-6c"/>
      <use x="27.783203125" xlink:href="#DejaVuSans-6f"/>
      <use x="88.96484375" xlink:href="#DejaVuSans-63"/>
      <use x="143.9453125" xlink:href="#DejaVuSans-61"/>
      <use x="205.224609375" xlink:href="#DejaVuSans-6c"/>
      <use x="233.0078125" xlink:href="#DejaVuSans-69"/>
      <use x="260.791015625" xlink:href="#DejaVuSans-74"/>
      <use x="300.0" xlink:href="#DejaVuSans-79"/>
      <use x="359.1796875" xlink:href="#DejaVuSans-23"/>
      <use x="442.96875" xlink:href="#DejaVuSans-31"/>
      <use x="506.591796875" xlink:href="#DejaVuSans-32"/>
     </g>
    </g>
    <g id="line2d_53">
     <path d="
M488.474 142.034
L508.634 142.034" style="fill:none;stroke:#bfbf00;stroke-linecap:square;"/>
    </g>
    <g id="line2d_54"/>
    <g id="text_21">
     <!-- locality#13 -->
     <g transform="translate(524.47375 147.074)scale(0.144 -0.144)">
      <use xlink:href="#DejaVuSans-6c"/>
      <use x="27.783203125" xlink:href="#DejaVuSans-6f"/>
      <use x="88.96484375" xlink:href="#DejaVuSans-63"/>
      <use x="143.9453125" xlink:href="#DejaVuSans-61"/>
      <use x="205.224609375" xlink:href="#DejaVuSans-6c"/>
      <use x="233.0078125" xlink:href="#DejaVuSans-69"/>
      <use x="260.791015625" xlink:href="#DejaVuSans-74"/>
      <use x="300.0" xlink:href="#DejaVuSans-79"/>
      <use x="359.1796875" xlink:href="#DejaVuSans-23"/>
      <use x="442.96875" xlink:href="#DejaVuSans-31"/>
      <use x="506.591796875" xlink:href="#DejaVuSans-33"/>
     </g>
    </g>
    <g id="line2d_55">
     <path d="
M488.474 163.17
L508.634 163.17" style="fill:none;stroke:#000000;stroke-linecap:square;"/>
    </g>
    <g id="line2d_56"/>
    <g id="text_22">
     <!-- locality#14 -->
     <g transform="translate(524.47375 168.2105)scale(0.144 -0.144)">
      <use xlink:href="#DejaVuSans-6c"/>
      <use x="27.783203125" xlink:href="#DejaVuSans-6f"/>
      <use x="88.96484375" xlink:href="#DejaVuSans-63"/>
      <use x="143.9453125" xlink:href="#DejaVuSans-61"/>
      <use x="205.224609375" xlink:href="#DejaVuSans-6c"/>
      <use x="233.0078125" xlink:href="#DejaVuSans-69"/>
      <use x="260.791015625" xlink:href="#DejaVuSans-74"/>
      <use x="300.0" xlink:href="#DejaVuSans-79"/>
      <use x="359.1796875" xlink:href="#DejaVuSans-23"/>
      <use x="442.96875" xlink:href="#DejaVuSans-31"/>
      <use x="506.591796875" xlink:href="#DejaVuSans-34"/>
     </g>
    </g>
    <g id="line2d_57">
     <path d="
M488.474 184.307
L508.634 184.307" style="fill:none;stroke:#0000ff;stroke-linecap:square;"/>
    </g>
    <g id="line2d_58"/>
    <g id="text_23">
     <!-- locality#15 -->
     <g transform="translate(524.47375 189.347)scale(0.144 -0.144)">
      <use xlink:href="#DejaVuSans-6c"/>
      <use x="27.783203125" xlink:href="#DejaVuSans-6f"/>
      <use x="88.96484375" xlink:href="#DejaVuSans-63"/>
      <use x="143.9453125" xlink:href="#DejaVuSans-61"/>
      <use x="205.224609375" xlink:href="#DejaVuSans-6c"/>
      <use x="233.0078125" xlink:href="#DejaVuSans-69"/>
      <use x="260.791015625" xlink:href="#DejaVuSans-74"/>
      <use x="300.0" xlink:href="#DejaVuSans-79"/>
      <use x="359.1796875" xlink:href="#DejaVuSans-23"/>
      <use x="442.96875" xlink:href="#DejaVuSans-31"/>
      <use x="506.591796875" xlink:href="#DejaVuSans-35"/>
     </g>
    </g>
    <g id="line2d_59">
     <path d="
M488.474 205.443
L508.634 205.443" style="fill:none;stroke:#008000;stroke-linecap:square;"/>
    </g>
    <g id="line2d_60"/>
    <g id="text_24">
     <!-- locality#2 -->
     <g transform="translate(524.47375 210.4835)scale(0.144 -0.144)">
      <use xlink:href="#DejaVuSans-6c"/>
      <use x="27.783203125" xlink:href="#DejaVuSans-6f"/>
      <use x="88.96484375" xlink:href="#DejaVuSans-63"/>
      <use x="143.9453125" xlink:href="#DejaVuSans-61"/>
      <use x="205.224609375" xlink:href="#DejaVuSans-6c"/>
      <use x="233.0078125" xlink:href="#DejaVuSans-69"/>
      <use x="260.791015625" xlink:href="#DejaVuSans-74"/>
      <use x="300.0" xlink:href="#DejaVuSans-79"/>
      <use x="359.1796875" xlink:href="#DejaVuSans-23"/>
      <use x="442.96875" xlink:href="#DejaVuSans-32"/>
     </g>
    </g>
    <g id="line2d_61">
     <path d="
M488.474 226.58
L508.634 226.58" style="fill:none;stroke:#ff0000;stroke-linecap:square;"/>
    </g>
    <g id="line2d_62"/>
    <g id="text_25">
     <!-- locality#3 -->
     <g transform="translate(524.47375 231.62)scale(0.144 -0.144)">
      <use xlink:href="#DejaVuSans-6c"/>
      <use x="27.783203125" xlink:href="#DejaVuSans-6f"/>
      <use x="88.96484375" xlink:href="#DejaVuSans-63"/>
      <use x="143.9453125" xlink:href="#DejaVuSans-61"/>
      <use x="205.224609375" xlink:href="#DejaVuSans-6c"/>
      <use x="233.0078125" xlink:href="#DejaVuSans-69"/>
      <use x="260.791015625" xlink:href="#DejaVuSans-74"/>
      <use x="300.0" xlink:href="#DejaVuSans-79"/>
      <use x="359.1796875" xlink:href="#DejaVuSans-23"/>
      <use x="442.96875" xlink:href="#DejaVuSans-33"/>
     </g>
    </g>
    <g id="line2d_63">
     <path d="
M488.474 247.716
L508.634 247.716" style="fill:none;stroke:#00bfbf;stroke-linecap:square;"/>
    </g>
    <g id="line2d_64"/>
    <g id="text_26">
     <!-- locality#4 -->
     <g transform="translate(524.47375 252.7565)scale(0.144 -0.144)">
      <use xlink:href="#DejaVuSans-6c"/>
      <use x="27.783203125" xlink:href="#DejaVuSans-6f"/>
      <use x="88.96484375" xlink:href="#DejaVuSans-63"/>
      <use x="143.9453125" xlink:href="#DejaVuSans-61"/>
      <use x="205.224609375" xlink:href="#DejaVuSans-6c"/>
      <use x="233.0078125" xlink:href="#DejaVuSans-69"/>
      <use x="260.791015625" xlink:href="#DejaVuSans-74"/>
      <use x="300.0" xlink:href="#DejaVuSans-79"/>
      <use x="359.1796875" xlink:href="#DejaVuSans-23"/>
      <use x="442.96875" xlink:href="#DejaVuSans-34"/>
     </g>
    </g>
    <g id="line2d_65">
     <path d="
M488.474 268.853
L508.634 268.853" style="fill:none;stroke:#bf00bf;stroke-linecap:square;"/>
    </g>
    <g id="line2d_66"/>
    <g id="text_27">
     <!-- locality#5 -->
     <g transform="translate(524.47375 273.893)scale(0.144 -0.144)">
      <use xlink:href="#DejaVuSans-6c"/>
      <use x="27.783203125" xlink:href="#DejaVuSans-6f"/>
      <use x="88.96484375" xlink:href="#DejaVuSans-63"/>
      <use x="143.9453125" xlink:href="#DejaVuSans-61"/>
      <use x="205.224609375" xlink:href="#DejaVuSans-6c"/>
      <use x="233.0078125" xlink:href="#DejaVuSans-69"/>
      <use x="260.791015625" xlink:href="#DejaVuSans-74"/>
      <use x="300.0" xlink:href="#DejaVuSans-79"/>
      <use x="359.1796875" xlink:href="#DejaVuSans-23"/>
      <use x="442.96875" xlink:href="#DejaVuSans-35"/>
     </g>
    </g>
    <g id="line2d_67">
     <path d="
M488.474 289.989
L508.634 289.989" style="fill:none;stroke:#bfbf00;stroke-linecap:square;"/>
    </g>
    <g id="line2d_68"/>
    <g id="text_28">
     <!-- locality#6 -->
     <defs>
      <path d="
M33.0156 40.375
Q26.375 40.375 22.4844 35.8281
Q18.6094 31.2969 18.6094 23.3906
Q18.6094 15.5312 22.4844 10.9531
Q26.375 6.39062 33.0156 6.39062
Q39.6562 6.39062 43.5312 10.9531
Q47.4062 15.5312 47.4062 23.3906
Q47.4062 31.2969 43.5312 35.8281
Q39.6562 40.375 33.0156 40.375
M52.5938 71.2969
L52.5938 62.3125
Q48.875 64.0625 45.0938 64.9844
Q41.3125 65.9219 37.5938 65.9219
Q27.8281 65.9219 22.6719 59.3281
Q17.5312 52.7344 16.7969 39.4062
Q19.6719 43.6562 24.0156 45.9219
Q28.375 48.1875 33.5938 48.1875
Q44.5781 48.1875 50.9531 41.5156
Q57.3281 34.8594 57.3281 23.3906
Q57.3281 12.1562 50.6875 5.35938
Q44.0469 -1.42188 33.0156 -1.42188
Q20.3594 -1.42188 13.6719 8.26562
Q6.98438 17.9688 6.98438 36.375
Q6.98438 53.6562 15.1875 63.9375
Q23.3906 74.2188 37.2031 74.2188
Q40.9219 74.2188 44.7031 73.4844
Q48.4844 72.75 52.5938 71.2969" id="DejaVuSans-36"/>
     </defs>
     <g transform="translate(524.47375 295.0295)scale(0.144 -0.144)">
      <use xlink:href="#DejaVuSans-6c"/>
      <use x="27.783203125" xlink:href="#DejaVuSans-6f"/>
      <use x="88.96484375" xlink:href="#DejaVuSans-63"/>
      <use x="143.9453125" xlink:href="#DejaVuSans-61"/>
      <use x="205.224609375" xlink:href="#DejaVuSans-6c"/>
      <use x="233.0078125" xlink:href="#DejaVuSans-69"/>
      <use x="260.791015625" xlink:href="#DejaVuSans-74"/>
      <use x="300.0" xlink:href="#DejaVuSans-79"/>
      <use x="359.1796875" xlink:href="#DejaVuSans-23"/>
      <use x="442.96875" xlink:href="#DejaVuSans-36"/>
     </g>
    </g>
    <g id="line2d_69">
     <path d="
M488.474 311.126
L508.634 311.126" style="fill:none;stroke:#000000;stroke-linecap:square;"/>
    </g>
    <g id="line2d_70"/>
    <g id="text_29">
     <!-- locality#7 -->
     <defs>
      <path d="
M8.20312 72.9062
L55.0781 72.9062
L55.0781 68.7031
L28.6094 0
L18.3125 0
L43.2188 64.5938
L8.20312 64.5938
z
" id="DejaVuSans-37"/>
     </defs>
     <g transform="translate(524.47375 316.166)scale(0.144 -0.144)">
      <use xlink:href="#DejaVuSans-6c"/>
      <use x="27.783203125" xlink:href="#DejaVuSans-6f"/>
      <use x="88.96484375" xlink:href="#DejaVuSans-63"/>
      <use x="143.9453125" xlink:href="#DejaVuSans-61"/>
      <use x="205.224609375" xlink:href="#DejaVuSans-6c"/>
      <use x="233.0078125" xlink:href="#DejaVuSans-69"/>
      <use x="260.791015625" xlink:href="#DejaVuSans-74"/>
      <use x="300.0" xlink:href="#DejaVuSans-79"/>
      <use x="359.1796875" xlink:href="#DejaVuSans-23"/>
      <use x="442.96875" xlink:href="#DejaVuSans-37"/>
     </g>
    </g>
    <g id="line2d_71">
     <path d="
M488.474 332.262
L508.634 332.262" style="fill:none;stroke:#0000ff;stroke-linecap:square;"/>
    </g>
    <g id="line2d_72"/>
    <g id="text_30">
     <!-- locality#8 -->
     <defs>
      <path d="
M31.7812 34.625
Q24.75 34.625 20.7188 30.8594
Q16.7031 27.0938 16.7031 20.5156
Q16.7031 13.9219 20.7188 10.1562
Q24.75 6.39062 31.7812 6.39062
Q38.8125 6.39062 42.8594 10.1719
Q46.9219 13.9688 46.9219 20.5156
Q46.9219 27.0938 42.8906 30.8594
Q38.875 34.625 31.7812 34.625
M21.9219 38.8125
Q15.5781 40.375 12.0312 44.7188
Q8.5 49.0781 8.5 55.3281
Q8.5 64.0625 14.7188 69.1406
Q20.9531 74.2188 31.7812 74.2188
Q42.6719 74.2188 48.875 69.1406
Q55.0781 64.0625 55.0781 55.3281
Q55.0781 49.0781 51.5312 44.7188
Q48 40.375 41.7031 38.8125
Q48.8281 37.1562 52.7969 32.3125
Q56.7812 27.4844 56.7812 20.5156
Q56.7812 9.90625 50.3125 4.23438
Q43.8438 -1.42188 31.7812 -1.42188
Q19.7344 -1.42188 13.25 4.23438
Q6.78125 9.90625 6.78125 20.5156
Q6.78125 27.4844 10.7812 32.3125
Q14.7969 37.1562 21.9219 38.8125
M18.3125 54.3906
Q18.3125 48.7344 21.8438 45.5625
Q25.3906 42.3906 31.7812 42.3906
Q38.1406 42.3906 41.7188 45.5625
Q45.3125 48.7344 45.3125 54.3906
Q45.3125 60.0625 41.7188 63.2344
Q38.1406 66.4062 31.7812 66.4062
Q25.3906 66.4062 21.8438 63.2344
Q18.3125 60.0625 18.3125 54.3906" id="DejaVuSans-38"/>
     </defs>
     <g transform="translate(524.47375 337.3025)scale(0.144 -0.144)">
      <use xlink:href="#DejaVuSans-6c"/>
      <use x="27.783203125" xlink:href="#DejaVuSans-6f"/>
      <use x="88.96484375" xlink:href="#DejaVuSans-63"/>
      <use x="143.9453125" xlink:href="#DejaVuSans-61"/>
      <use x="205.224609375" xlink:href="#DejaVuSans-6c"/>
      <use x="233.0078125" xlink:href="#DejaVuSans-69"/>
      <use x="260.791015625" xlink:href="#DejaVuSans-74"/>
      <use x="300.0" xlink:href="#DejaVuSans-79"/>
      <use x="359.1796875" xlink:href="#DejaVuSans-23"/>
      <use x="442.96875" xlink:href="#DejaVuSans-38"/>
     </g>
    </g>
    <g id="line2d_73">
     <path d="
M488.474 353.399
L508.634 353.399" style="fill:none;stroke:#008000;stroke-linecap:square;"/>
    </g>
    <g id="line2d_74"/>
    <g id="text_31">
     <!-- locality#9 -->
     <defs>
      <path d="
M10.9844 1.51562
L10.9844 10.5
Q14.7031 8.73438 18.5 7.8125
Q22.3125 6.89062 25.9844 6.89062
Q35.75 6.89062 40.8906 13.4531
Q46.0469 20.0156 46.7812 33.4062
Q43.9531 29.2031 39.5938 26.9531
Q35.25 24.7031 29.9844 24.7031
Q19.0469 24.7031 12.6719 31.3125
Q6.29688 37.9375 6.29688 49.4219
Q6.29688 60.6406 12.9375 67.4219
Q19.5781 74.2188 30.6094 74.2188
Q43.2656 74.2188 49.9219 64.5156
Q56.5938 54.8281 56.5938 36.375
Q56.5938 19.1406 48.4062 8.85938
Q40.2344 -1.42188 26.4219 -1.42188
Q22.7031 -1.42188 18.8906 -0.6875
Q15.0938 0.046875 10.9844 1.51562
M30.6094 32.4219
Q37.25 32.4219 41.125 36.9531
Q45.0156 41.5 45.0156 49.4219
Q45.0156 57.2812 41.125 61.8438
Q37.25 66.4062 30.6094 66.4062
Q23.9688 66.4062 20.0938 61.8438
Q16.2188 57.2812 16.2188 49.4219
Q16.2188 41.5 20.0938 36.9531
Q23.9688 32.4219 30.6094 32.4219" id="DejaVuSans-39"/>
     </defs>
     <g transform="translate(524.47375 358.439)scale(0.144 -0.144)">
      <use xlink:href="#DejaVuSans-6c"/>
      <use x="27.783203125" xlink:href="#DejaVuSans-6f"/>
      <use x="88.96484375" xlink:href="#DejaVuSans-63"/>
      <use x="143.9453125" xlink:href="#DejaVuSans-61"/>
      <use x="205.224609375" xlink:href="#DejaVuSans-6c"/>
      <use x="233.0078125" xlink:href="#DejaVuSans-69"/>
      <use x="260.791015625" xlink:href="#DejaVuSans-74"/>
      <use x="300.0" xlink:href="#DejaVuSans-79"/>
      <use x="359.1796875" xlink:href="#DejaVuSans-23"/>
      <use x="442.96875" xlink:href="#DejaVuSans-39"/>
     </g>
    </g>
   </g>
  </g>
 </g>
 <defs>
  <clipPath id="p75e4a4db2e">
   <rect height="345.6" width="446.4" x="24.79375" y="23.14175"/>
  </clipPath>
 </defs>
</svg>
