<?xml version="1.0" encoding="utf-8" standalone="no"?>
<!DOCTYPE svg PUBLIC "-//W3C//DTD SVG 1.1//EN"
  "http://www.w3.org/Graphics/SVG/1.1/DTD/svg11.dtd">
<!-- Created with matplotlib (http://matplotlib.org/) -->
<svg height="408pt" version="1.1" viewBox="0 0 621 408" width="621pt" xmlns="http://www.w3.org/2000/svg" xmlns:xlink="http://www.w3.org/1999/xlink">
 <defs>
  <style type="text/css">
*{stroke-linecap:butt;stroke-linejoin:round;}
  </style>
 </defs>
 <g id="figure_1">
  <g id="patch_1">
   <path d="
M0 408.169
L621.285 408.169
L621.285 0
L0 0
z
" style="fill:#ffffff;"/>
  </g>
  <g id="axes_1">
   <g id="patch_2">
    <path d="
M28.6956 368.742
L475.096 368.742
L475.096 23.1417
L28.6956 23.1417
z
" style="fill:#ffffff;"/>
   </g>
   <g id="line2d_1">
    <path clip-path="url(#p2118423672)" d="
M28.6956 368.467
L29.5902 367.559
L35.8523 363.13
L46.5874 355.947
L67.163 342.215
L68.9521 340.904
L76.1089 336.038
L79.6872 333.357
L80.5818 332.776
L83.2656 330.739
L87.7385 327.343
L90.4223 325.446
L94.8952 322.035
L96.6844 320.739
L101.157 317.334
L102.947 316.033
L105.63 313.985
L109.209 311.238
L110.103 310.654
L113.682 307.812
L115.471 306.507
L120.838 302.362
L121.733 301.779
L123.522 300.342
L125.311 299.07
L129.784 295.591
L131.573 294.282
L144.098 284.807
L144.992 284.231
L146.781 282.932
L148.571 281.543
L150.36 280.206
L155.727 276.039
L157.516 274.742
L161.095 272.049
L161.989 271.48
L162.884 270.76
L164.673 269.495
L172.724 263.285
L175.408 261.392
L178.092 259.34
L186.143 253.127
L187.038 252.394
L187.932 251.81
L193.3 247.465
L195.984 245.476
L201.351 241.262
L203.141 239.912
L209.403 234.979
L210.297 234.394
L212.086 232.937
L213.876 231.599
L221.032 225.912
L221.927 225.322
L227.294 220.976
L229.978 219.004
L234.451 215.374
L236.24 214.052
L238.924 211.85
L240.713 210.508
L245.186 206.99
L246.975 205.635
L250.554 202.838
L251.448 202.248
L253.238 200.77
L255.027 199.423
L258.605 196.608
L261.289 194.627
L265.762 191.124
L267.551 189.756
L279.181 180.729
L280.075 180.131
L285.443 175.8
L286.337 175.219
L292.599 170.215
L293.494 169.628
L297.967 166.036
L300.651 164.117
L304.229 161.369
L305.124 160.776
L306.018 160.043
L306.913 159.462
L312.28 155.156
L314.964 153.21
L322.121 147.59
L324.805 145.683
L326.594 144.234
L329.278 142.323
L332.856 139.545
L335.54 137.499
L336.434 136.913
L338.223 135.502
L341.802 132.803
L353.431 123.85
L356.115 121.913
L359.694 119.174
L361.483 117.83
L364.167 115.769
L368.64 112.294
L372.218 109.535
L374.007 108.239
L379.375 103.932
L381.164 102.622
L383.848 100.449
L385.637 99.1333
L387.426 97.6719
L389.215 96.3497
L393.688 92.7851
L395.477 91.4639
L397.266 90.0025
L398.161 89.3952
L401.739 86.4616
L404.423 84.4828
L407.107 82.3964
L408.001 81.7832
L409.791 80.2912
L412.474 78.3064
L415.158 76.1815
L417.842 74.174
L424.999 68.4035
L426.788 67.0626
L431.261 63.3864
L432.155 62.789
L433.945 61.3078
L435.734 59.9314
L439.312 57.1073
L440.207 56.4991
L441.101 55.7545
L441.996 55.1552
L443.785 53.679
L444.68 53.0727
L446.469 51.6982
L447.363 50.9527
L449.153 49.6226
L450.942 48.1326
L452.731 46.7689
L472.412 31.3275
L475.096 29.1236
L475.096 29.1236" style="fill:none;stroke:#0000ff;stroke-linecap:square;"/>
   </g>
   <g id="line2d_2">
    <path clip-path="url(#p2118423672)" d="
M28.6956 368.687
L30.4848 367.875
L35.8523 365.336
L38.5361 364.059
L45.6928 360.819
L49.2712 359.105
L60.0062 353.95
L67.163 350.605
L68.9521 349.664
L74.3197 347.058
L77.0034 345.697
L79.6872 344.259
L81.4764 343.351
L85.9493 340.911
L88.6331 339.586
L92.2115 337.663
L94.0006 336.73
L97.579 334.796
L99.3682 333.885
L104.736 330.933
L106.525 330.015
L109.209 328.597
L110.998 327.68
L117.26 324.172
L119.049 323.246
L140.519 311.211
L142.308 310.265
L145.887 308.29
L147.676 307.374
L158.411 301.483
L160.2 300.562
L162.884 299.149
L164.673 298.238
L172.724 293.771
L175.408 292.436
L178.987 290.521
L180.776 289.596
L187.038 286.11
L188.827 285.187
L195.089 281.706
L197.773 280.371
L204.035 276.887
L205.824 275.957
L224.611 265.381
L227.294 263.835
L229.978 262.465
L236.24 258.893
L241.608 255.84
L243.397 254.895
L247.87 252.38
L249.659 251.437
L253.238 249.493
L255.027 248.563
L258.605 246.618
L269.34 240.879
L272.918 238.922
L275.602 237.59
L279.181 235.641
L280.97 234.721
L292.599 228.154
L294.389 227.228
L299.756 224.231
L301.545 223.296
L304.229 221.864
L306.913 220.535
L314.07 216.527
L315.859 215.594
L322.121 212.079
L324.805 210.73
L328.383 208.773
L331.961 206.913
L335.54 204.952
L337.329 204.013
L340.013 202.572
L341.802 201.618
L348.064 198.082
L350.748 196.683
L353.431 195.233
L356.115 193.88
L359.694 191.913
L361.483 190.969
L365.956 188.476
L367.745 187.532
L372.218 185.033
L374.007 184.088
L383.848 178.5
L385.637 177.558
L391.899 174.044
L394.583 172.686
L405.318 166.527
L408.001 165.144
L411.58 163.136
L414.264 161.749
L416.947 160.248
L418.737 159.297
L424.999 155.718
L426.788 154.758
L437.523 148.683
L440.207 147.298
L458.098 137.633
L460.782 136.153
L462.571 135.198
L467.939 132.116
L470.623 130.742
L475.096 128.121
L475.096 128.121" style="fill:none;stroke:#008000;stroke-linecap:square;"/>
   </g>
   <g id="line2d_3">
    <path clip-path="url(#p2118423672)" d="
M28.6956 368.683
L29.5902 368.224
L53.7441 352.579
L67.163 344.196
L68.9521 342.96
L76.1089 338.206
L77.898 336.871
L83.2656 333.032
L87.7385 329.695
L90.4223 327.837
L97.579 322.367
L99.3682 321.086
L104.736 317.078
L106.525 315.827
L109.209 313.881
L110.998 312.64
L117.26 307.976
L119.049 306.689
L123.522 303.36
L125.311 302.105
L129.784 298.685
L131.573 297.377
L137.836 292.648
L139.625 291.414
L145.887 286.895
L147.676 285.65
L153.044 281.705
L157.516 278.451
L162.884 274.658
L164.673 273.454
L172.724 267.534
L175.408 265.719
L178.092 263.791
L180.776 261.868
L183.46 259.816
L185.249 258.549
L192.405 253.24
L195.089 251.35
L197.773 249.567
L209.403 240.663
L211.192 239.403
L214.77 236.765
L216.559 235.497
L229.084 225.868
L229.978 225.298
L234.451 221.769
L236.24 220.477
L239.819 217.791
L245.186 213.713
L246.975 212.432
L249.659 210.406
L253.238 207.712
L254.132 207.146
L258.605 203.754
L261.289 201.89
L265.762 198.509
L267.551 197.186
L272.918 193.038
L275.602 191.178
L279.181 188.467
L280.97 187.164
L297.967 173.886
L300.651 172.04
L304.229 169.368
L306.913 167.502
L312.28 163.305
L314.964 161.494
L322.121 156.081
L324.805 154.239
L327.488 152.293
L330.172 150.363
L332.856 148.392
L335.54 146.463
L337.329 145.195
L341.802 142.008
L346.275 138.67
L348.959 136.738
L350.748 135.48
L353.431 133.526
L356.115 131.675
L363.272 126.405
L365.061 125.153
L374.007 118.507
L383.848 110.802
L384.742 110.23
L387.426 108.129
L389.215 106.833
L393.688 103.415
L395.477 102.136
L400.845 98.0422
L403.528 96.0959
L408.001 92.9115
L410.685 90.9356
L413.369 89.0131
L416.053 87.1676
L421.42 83.1399
L423.209 81.8888
L431.261 75.7727
L433.05 74.5147
L437.523 71.1999
L440.207 69.3741
L443.785 66.7713
L446.469 64.9347
L450.942 61.6258
L452.731 60.3609
L458.993 55.8276
L460.782 54.5933
L462.571 53.3314
L467.939 49.3244
L468.834 48.7774
L475.096 44.0782
L475.096 44.0782" style="fill:none;stroke:#ff0000;stroke-linecap:square;"/>
   </g>
   <g id="line2d_4">
    <path clip-path="url(#p2118423672)" d="
M28.6956 368.687
L29.5902 368.221
L47.482 356.076
L51.9549 353.055
L59.1117 348.356
L67.163 342.993
L68.9521 341.679
L70.7413 340.485
L72.5305 339.152
L76.1089 336.77
L78.7926 334.73
L82.371 331.966
L84.1602 330.628
L85.9493 329.214
L88.6331 327.291
L91.3169 325.29
L100.263 318.481
L104.736 315.074
L106.525 313.772
L109.209 311.761
L110.998 310.472
L114.576 307.723
L123.522 300.617
L124.417 300.025
L135.152 291.365
L136.046 290.768
L140.519 287.252
L142.308 285.899
L144.992 283.831
L148.571 281.082
L150.36 279.703
L155.727 275.326
L157.516 273.945
L161.095 271.125
L163.779 269.186
L174.514 260.591
L177.197 258.637
L182.565 254.296
L196.878 242.981
L198.668 241.648
L203.141 238.175
L223.716 221.938
L227.294 219.006
L229.978 217.048
L234.451 213.344
L235.346 212.738
L239.819 209.178
L245.186 204.894
L246.975 203.551
L248.765 202.232
L253.238 198.773
L254.132 198.192
L258.605 194.714
L261.289 192.809
L265.762 189.355
L267.551 188.039
L272.024 184.436
L275.602 181.938
L279.181 179.178
L280.97 177.857
L297.967 164.33
L300.651 162.441
L304.229 159.703
L306.913 157.799
L313.175 152.876
L322.121 145.93
L324.805 144.024
L328.383 141.272
L330.172 139.96
L331.961 138.639
L333.751 137.196
L336.434 135.272
L338.223 133.895
L341.802 131.209
L348.064 126.319
L350.748 124.395
L352.537 123.084
L355.221 121.088
L357.904 119.152
L359.694 117.755
L361.483 116.408
L363.272 114.956
L365.061 113.637
L386.531 96.9362
L391.899 92.5214
L394.583 90.5436
L398.161 87.6732
L403.528 83.4144
L406.212 81.4326
L409.791 78.6342
L410.685 78.027
L411.58 77.2825
L412.474 76.6851
L415.158 74.6095
L417.842 72.6475
L422.315 69.0098
L428.577 63.967
L432.155 61.1479
L437.523 56.8249
L438.417 56.2196
L441.101 54.1431
L442.89 52.8071
L445.574 50.7147
L448.258 48.7626
L450.942 46.5418
L451.836 45.9336
L455.415 43.0898
L459.888 39.5262
L461.677 38.3017
L465.255 35.2743
L466.15 34.672
L467.939 33.1829
L468.834 32.5776
L475.096 27.4825
L475.096 27.4825" style="fill:none;stroke:#00bfbf;stroke-linecap:square;"/>
   </g>
   <g id="line2d_5">
    <path clip-path="url(#p2118423672)" d="
M28.6956 368.686
L29.5902 368.236
L35.8523 364.242
L45.6928 358.177
L67.163 345.264
L68.9521 344.06
L70.7413 342.978
L72.5305 341.783
L76.1089 339.605
L77.898 338.319
L83.2656 334.643
L87.7385 331.471
L90.4223 329.736
L94.8952 326.556
L96.6844 325.379
L101.157 322.314
L102.947 321.125
L106.525 318.681
L109.209 316.873
L110.998 315.693
L114.576 313.21
L123.522 306.776
L125.311 305.565
L134.257 299.007
L137.836 296.476
L139.625 295.264
L144.098 292.029
L146.781 290.262
L161.095 279.956
L163.779 278.212
L174.514 270.45
L177.197 268.696
L183.46 264.086
L185.249 262.872
L187.932 261.039
L195.089 255.933
L197.773 254.198
L203.141 250.403
L217.454 240.22
L227.294 232.878
L229.978 231.107
L234.451 227.722
L236.24 226.49
L240.713 223.247
L245.186 220.021
L246.975 218.797
L250.554 216.193
L252.343 214.983
L256.816 211.75
L258.605 210.529
L262.183 208.095
L264.867 206.219
L279.181 196.08
L280.97 194.831
L297.967 182.261
L300.651 180.526
L304.229 178.005
L306.913 176.257
L314.07 171.098
L315.859 169.865
L320.332 166.679
L323.91 164.178
L325.699 162.968
L328.383 161.111
L331.067 159.357
L357.01 141.293
L358.799 140.069
L369.534 132.392
L372.218 130.513
L374.007 129.303
L387.426 119.562
L389.215 118.262
L391.899 116.204
L394.583 114.39
L398.161 111.774
L403.528 107.91
L406.212 106.124
L409.791 103.577
L412.474 101.805
L415.158 99.9084
L417.842 98.1291
L424.999 92.8404
L425.893 92.2864
L431.261 88.2024
L433.05 86.9879
L439.312 82.5188
L441.996 80.7592
L446.469 77.6458
L459.888 68.054
L461.677 66.9372
L465.255 64.2059
L467.044 62.9746
L469.728 61.0926
L471.517 59.8504
L475.096 57.1389
L475.096 57.1389" style="fill:none;stroke:#bf00bf;stroke-linecap:square;"/>
   </g>
   <g id="line2d_6">
    <path clip-path="url(#p2118423672)" d="
M28.6956 368.686
L29.5902 368.247
L44.7982 358.791
L70.7413 342.753
L71.6359 342.086
L76.1089 339.395
L79.6872 336.856
L80.5818 336.316
L82.371 335.012
L84.1602 333.831
L86.8439 331.997
L89.5277 330.168
L91.3169 328.984
L109.209 316.532
L110.998 315.331
L120.838 308.156
L122.627 306.922
L129.784 301.649
L131.573 300.374
L136.046 297.094
L140.519 293.827
L142.308 292.561
L145.887 289.966
L147.676 288.738
L151.254 286.11
L155.727 282.726
L157.516 281.454
L161.095 278.883
L163.779 277.135
L174.514 269.355
L177.197 267.596
L183.46 263.028
L185.249 261.8
L193.3 256.014
L195.984 254.237
L201.351 250.348
L203.141 249.126
L209.403 244.596
L211.192 243.403
L214.77 240.903
L216.559 239.703
L229.084 230.671
L229.978 230.14
L234.451 226.858
L236.24 225.658
L239.819 223.131
L245.186 219.303
L246.975 218.096
L250.554 215.54
L252.343 214.332
L256.816 211.173
L258.605 209.973
L262.183 207.586
L265.762 205.104
L267.551 203.878
L272.918 200.064
L275.602 198.361
L279.181 195.835
L280.97 194.625
L297.967 182.246
L301.545 179.862
L304.229 178.03
L306.913 176.295
L314.07 171.17
L315.859 169.946
L322.121 165.421
L324.805 163.649
L328.383 161.114
L330.172 159.913
L332.856 158.028
L337.329 154.879
L343.591 150.44
L348.064 147.264
L350.748 145.492
L352.537 144.282
L355.221 142.454
L357.904 140.665
L363.272 136.807
L365.061 135.6
L376.691 127.248
L379.375 125.231
L380.269 124.682
L387.426 119.302
L389.215 118.029
L391.899 116.019
L394.583 114.21
L401.739 108.926
L404.423 107.131
L407.107 105.255
L408.896 104.014
L411.58 102.112
L414.264 100.313
L416.947 98.4045
L418.737 97.1485
L422.315 94.517
L428.577 90.0084
L433.05 86.8042
L439.312 82.3717
L441.996 80.619
L445.574 78.107
L448.258 76.3612
L451.836 73.8284
L456.309 70.6637
L458.098 69.4215
L460.782 67.5316
L462.571 66.3111
L467.044 63.102
L468.834 61.8934
L475.096 57.3581
L475.096 57.3581" style="fill:none;stroke:#bfbf00;stroke-linecap:square;"/>
   </g>
   <g id="line2d_7">
    <path clip-path="url(#p2118423672)" d="
M28.6956 368.683
L30.4848 367.726
L41.2199 361.545
L45.6928 358.955
L76.1089 340.885
L78.7926 339.085
L82.371 336.681
L84.1602 335.523
L87.7385 333.14
L90.4223 331.492
L94.8952 328.485
L96.6844 327.334
L101.157 324.33
L102.947 323.18
L107.419 320.186
L110.103 318.535
L134.257 301.853
L137.836 299.399
L139.625 298.232
L144.098 295.131
L146.781 293.423
L161.989 282.963
L174.514 274.578
L177.197 272.933
L187.038 266.185
L188.827 265.05
L195.089 260.797
L197.773 259.144
L204.035 254.821
L205.824 253.621
L212.086 249.281
L213.876 248.126
L221.032 243.158
L222.821 241.971
L227.294 238.762
L229.978 237.065
L234.451 233.856
L236.24 232.686
L239.819 230.222
L245.186 226.479
L246.975 225.298
L249.659 223.436
L253.238 221.004
L255.027 219.839
L258.605 217.404
L262.183 215.052
L265.762 212.614
L267.551 211.421
L272.918 207.671
L275.602 205.997
L279.181 203.533
L280.97 202.364
L292.599 194.143
L294.389 192.977
L299.756 189.24
L301.545 188.073
L304.229 186.275
L306.913 184.613
L314.07 179.697
L315.859 178.526
L321.226 174.852
L323.91 173.072
L325.699 171.923
L328.383 170.153
L331.067 168.444
L343.591 160.106
L348.064 157.069
L350.748 155.364
L352.537 154.216
L355.221 152.476
L357.904 150.79
L363.272 147.105
L365.061 145.95
L372.218 141.101
L374.007 139.948
L387.426 130.61
L389.215 129.453
L393.688 126.409
L395.477 125.261
L401.739 120.958
L404.423 119.275
L407.107 117.503
L408.896 116.34
L411.58 114.559
L414.264 112.894
L416.947 111.103
L418.737 109.929
L424.999 105.596
L426.788 104.426
L433.945 99.4858
L435.734 98.3147
L439.312 95.8777
L442.89 93.5701
L445.574 91.7888
L449.153 89.4782
L452.731 87.0383
L473.306 73.1461
L475.096 71.8723
L475.096 71.8723" style="fill:none;stroke:#000000;stroke-linecap:square;"/>
   </g>
   <g id="line2d_8">
    <path clip-path="url(#p2118423672)" d="
M28.6956 368.69
L30.4848 367.821
L44.7982 360.358
L48.3766 358.48
L58.2171 353.247
L77.898 342.393
L81.4764 340.253
L85.9493 337.533
L88.6331 336.049
L92.2115 333.948
L94.0006 332.896
L96.6844 331.306
L101.157 328.596
L102.947 327.572
L107.419 324.873
L110.103 323.381
L119.944 317.267
L123.522 315.064
L125.311 314.02
L135.152 307.778
L136.941 306.721
L140.519 304.511
L142.308 303.452
L145.887 301.232
L147.676 300.18
L162.884 290.831
L164.673 289.808
L170.935 285.929
L174.514 283.768
L177.197 282.283
L183.46 278.422
L185.249 277.37
L193.3 272.399
L197.773 269.866
L204.035 266.02
L205.824 264.972
L214.77 259.469
L216.559 258.428
L247.87 238.804
L249.659 237.739
L253.238 235.518
L255.027 234.461
L258.605 232.244
L264.867 228.497
L272.918 223.446
L275.602 221.922
L279.181 219.698
L280.97 218.635
L287.232 214.681
L298.862 207.32
L306.018 203.143
L307.807 202.109
L312.28 199.261
L314.964 197.761
L322.121 193.321
L324.805 191.806
L328.383 189.643
L331.067 188.095
L342.696 181.155
L347.169 178.4
L348.959 177.367
L350.748 176.331
L353.431 174.747
L356.115 173.232
L359.694 171.075
L361.483 170.03
L365.061 167.887
L372.218 163.536
L374.007 162.501
L383.848 156.316
L385.637 155.255
L391.004 151.845
L393.688 150.211
L395.477 149.148
L401.739 145.2
L404.423 143.658
L407.107 142.03
L408.896 140.963
L411.58 139.324
L414.264 137.782
L416.947 136.127
L418.737 135.053
L424.999 131.046
L426.788 129.96
L433.945 125.394
L435.734 124.314
L439.312 122.078
L442.89 119.974
L445.574 118.331
L449.153 116.208
L452.731 113.981
L460.782 109.065
L462.571 107.997
L467.939 104.606
L470.623 103.059
L475.096 100.121
L475.096 100.121" style="fill:none;stroke:#0000ff;stroke-linecap:square;"/>
   </g>
   <g id="line2d_9">
    <path clip-path="url(#p2118423672)" d="
M28.6956 368.688
L30.4848 367.955
L41.2199 363.321
L51.0604 359.028
L63.5846 353.649
L68.0575 351.664
L76.1089 348.12
L79.6872 346.306
L81.4764 345.449
L85.9493 343.125
L88.6331 341.852
L92.2115 340.019
L94.0006 339.148
L97.579 337.339
L99.3682 336.469
L104.736 333.67
L106.525 332.798
L109.209 331.444
L110.998 330.578
L117.26 327.255
L119.049 326.368
L129.784 320.764
L131.573 319.895
L137.836 316.624
L139.625 315.771
L144.098 313.481
L146.781 312.224
L176.303 297.19
L178.092 296.329
L183.46 293.563
L185.249 292.685
L190.616 289.956
L195.089 287.698
L197.773 286.468
L204.035 283.266
L205.824 282.412
L212.086 279.225
L213.876 278.383
L247.87 260.726
L249.659 259.856
L253.238 258.044
L255.027 257.184
L258.605 255.328
L271.129 249.026
L272.918 248.172
L275.602 246.925
L279.181 245.104
L280.97 244.228
L290.81 239.042
L299.756 234.456
L301.545 233.597
L304.229 232.268
L306.913 231.032
L314.07 227.287
L315.859 226.416
L322.121 223.141
L324.805 221.883
L328.383 220.066
L331.961 218.333
L335.54 216.509
L337.329 215.641
L340.013 214.3
L341.802 213.421
L348.959 209.773
L350.748 208.882
L353.431 207.528
L356.115 206.268
L359.694 204.441
L361.483 203.576
L365.956 201.281
L367.745 200.42
L372.218 198.116
L374.007 197.25
L383.848 192.085
L385.637 191.215
L393.688 187.097
L395.477 186.22
L399.95 183.866
L403.528 182.006
L406.212 180.707
L409.791 178.83
L412.474 177.572
L415.158 176.189
L417.842 174.907
L424.999 171.11
L426.788 170.224
L433.945 166.416
L435.734 165.54
L439.312 163.718
L442.89 162.001
L445.574 160.671
L450.047 158.48
L453.625 156.675
L455.415 155.83
L459.888 153.568
L462.571 152.341
L467.939 149.595
L470.623 148.362
L475.096 145.979
L475.096 145.979" style="fill:none;stroke:#008000;stroke-linecap:square;"/>
   </g>
   <g id="line2d_10">
    <path clip-path="url(#p2118423672)" d="
M28.6956 368.69
L30.4848 367.936
L35.8523 365.617
L38.5361 364.445
L67.163 351.997
L68.9521 351.139
L73.4251 349.133
L77.0034 347.439
L79.6872 346.071
L81.4764 345.191
L85.9493 342.845
L88.6331 341.56
L92.2115 339.703
L94.0006 338.81
L97.579 336.944
L99.3682 336.066
L104.736 333.208
L106.525 332.327
L109.209 330.952
L110.998 330.088
L117.26 326.828
L119.049 325.953
L137.836 316.098
L139.625 315.232
L144.098 312.924
L146.781 311.65
L162.884 303.412
L164.673 302.547
L172.724 298.318
L175.408 297.057
L178.987 295.242
L180.776 294.339
L187.038 290.98
L188.827 290.106
L195.089 286.819
L197.773 285.553
L204.035 282.274
L205.824 281.398
L214.77 276.771
L216.559 275.892
L227.294 270.148
L229.978 268.869
L234.451 266.442
L236.24 265.575
L241.608 262.762
L244.292 261.427
L247.87 259.612
L249.659 258.745
L253.238 256.919
L255.027 256.049
L258.605 254.176
L270.235 248.267
L272.918 246.911
L275.602 245.652
L279.181 243.813
L280.97 242.932
L292.599 236.712
L294.389 235.845
L299.756 233.038
L301.545 232.167
L304.229 230.815
L306.913 229.552
L314.07 225.776
L315.859 224.899
L322.121 221.615
L324.805 220.355
L328.383 218.516
L331.961 216.757
L335.54 214.924
L337.329 214.046
L340.013 212.701
L341.802 211.809
L348.064 208.504
L350.748 207.206
L353.431 205.843
L356.115 204.576
L359.694 202.736
L361.483 201.852
L365.956 199.517
L367.745 198.635
L372.218 196.309
L374.007 195.42
L383.848 190.157
L385.637 189.285
L391.899 186.024
L394.583 184.756
L401.739 180.984
L404.423 179.705
L407.107 178.347
L408.896 177.472
L411.58 176.102
L414.264 174.822
L416.947 173.438
L418.737 172.549
L424.999 169.269
L426.788 168.386
L433.945 164.607
L435.734 163.733
L439.312 161.88
L444.68 159.261
L447.363 157.903
L449.153 157.024
L453.625 154.68
L455.415 153.788
L459.888 151.443
L462.571 150.163
L467.939 147.338
L470.623 146.069
L475.096 143.625
L475.096 143.625" style="fill:none;stroke:#ff0000;stroke-linecap:square;"/>
   </g>
   <g id="line2d_11">
    <path clip-path="url(#p2118423672)" d="
M28.6956 368.687
L30.4848 367.933
L35.8523 365.573
L38.5361 364.363
L56.4279 356.405
L61.7954 354.005
L73.4251 348.547
L78.7926 345.937
L82.371 344.054
L83.2656 343.654
L85.0547 342.586
L87.7385 341.213
L90.4223 339.924
L94.8952 337.526
L96.6844 336.631
L99.3682 335.204
L104.736 332.34
L106.525 331.454
L109.209 330.07
L110.998 329.182
L117.26 325.896
L119.049 325.014
L123.522 322.669
L125.311 321.782
L131.573 318.433
L137.836 315.139
L139.625 314.262
L144.098 311.933
L146.781 310.637
L161.095 303.149
L163.779 301.879
L174.514 296.256
L177.197 294.974
L183.46 291.586
L185.249 290.683
L193.3 286.359
L195.984 285.069
L201.351 282.21
L203.141 281.315
L209.403 277.955
L211.192 277.075
L214.77 275.216
L216.559 274.278
L221.032 271.677
L222.821 270.762
L229.084 267.375
L230.873 266.467
L238.924 262.023
L240.713 261.128
L245.186 258.786
L246.975 257.899
L250.554 256.052
L252.343 255.17
L256.816 252.786
L258.605 251.882
L268.446 246.826
L272.918 244.451
L275.602 243.169
L279.181 241.299
L280.97 240.398
L285.443 237.914
L287.232 237.027
L297.967 231.211
L305.124 227.639
L312.28 223.754
L314.964 222.461
L322.121 218.641
L324.805 217.355
L328.383 215.466
L331.961 213.685
L335.54 211.808
L337.329 210.912
L348.959 204.898
L350.748 204.004
L353.431 202.612
L356.115 201.311
L359.694 199.437
L361.483 198.532
L365.956 196.155
L367.745 195.259
L372.218 192.882
L374.007 191.985
L383.848 186.63
L385.637 185.729
L391.899 182.376
L394.583 181.089
L403.528 176.309
L406.212 174.987
L409.791 173.029
L412.474 171.707
L415.158 170.253
L417.842 168.904
L424.999 164.95
L426.788 164.033
L433.945 160.146
L435.734 159.251
L439.312 157.358
L442.89 155.585
L445.574 154.207
L449.153 152.422
L453.625 150.068
L455.415 149.16
L459.888 146.802
L462.571 145.528
L467.939 142.676
L470.623 141.381
L475.096 138.908
L475.096 138.908" style="fill:none;stroke:#00bfbf;stroke-linecap:square;"/>
   </g>
   <g id="line2d_12">
    <path clip-path="url(#p2118423672)" d="
M28.6956 368.689
L29.5902 368.337
L33.1686 366.553
L47.482 359.505
L51.9549 357.258
L72.5305 346.895
L77.0034 344.565
L92.2115 336.1
L94.0006 335.122
L97.579 333.119
L99.3682 332.166
L104.736 329.079
L106.525 328.111
L109.209 326.626
L110.998 325.665
L117.26 322.052
L119.049 321.083
L123.522 318.41
L125.311 317.422
L137.836 309.966
L139.625 308.98
L144.098 306.368
L146.781 304.905
L158.411 297.993
L160.2 296.998
L162.884 295.464
L164.673 294.481
L169.146 291.865
L174.514 288.768
L177.197 287.378
L183.46 283.721
L185.249 282.741
L193.3 278.028
L195.984 276.626
L201.351 273.528
L203.141 272.562
L209.403 268.941
L211.192 267.981
L221.032 262.22
L222.821 261.236
L229.084 257.521
L230.873 256.54
L238.924 251.726
L240.713 250.735
L245.186 248.098
L246.975 247.112
L250.554 245.041
L252.343 244.055
L256.816 241.399
L258.605 240.401
L266.656 235.915
L272.024 232.649
L275.602 230.793
L279.181 228.712
L280.97 227.703
L289.021 222.808
L296.178 218.53
L299.756 216.455
L301.545 215.466
L304.229 213.941
L306.913 212.524
L314.07 208.25
L315.859 207.275
L322.121 203.623
L324.805 202.224
L328.383 200.182
L331.067 198.724
L340.907 193.277
L348.064 189.12
L350.748 187.716
L353.431 186.225
L356.115 184.822
L359.694 182.792
L361.483 181.808
L365.956 179.263
L367.745 178.297
L372.218 175.722
L374.007 174.743
L383.848 168.975
L385.637 168.012
L391.899 164.401
L394.583 163.002
L402.634 158.221
L405.318 156.689
L408.001 155.263
L411.58 153.184
L414.264 151.747
L416.947 150.2
L418.737 149.212
L424.999 145.504
L426.788 144.514
L433.945 140.224
L435.734 139.226
L439.312 137.141
L442.89 135.159
L445.574 133.62
L449.153 131.645
L452.731 129.554
L460.782 124.95
L462.571 123.955
L467.939 120.782
L470.623 119.344
L475.096 116.582
L475.096 116.582" style="fill:none;stroke:#bf00bf;stroke-linecap:square;"/>
   </g>
   <g id="line2d_13">
    <path clip-path="url(#p2118423672)" d="
M28.6956 368.69
L29.5902 368.324
L34.0632 365.988
L43.9036 360.839
L55.5333 354.753
L62.69 351.14
L67.163 348.903
L68.9521 347.924
L70.7413 347.06
L72.5305 346.041
L77.0034 343.68
L85.0547 339.06
L87.7385 337.523
L90.4223 336.071
L94.8952 333.391
L96.6844 332.396
L101.157 329.739
L102.947 328.734
L107.419 326.089
L110.103 324.651
L140.519 306.228
L142.308 305.208
L145.887 303.071
L147.676 302.056
L153.938 298.218
L157.516 296.088
L161.095 293.993
L163.779 292.56
L174.514 286.15
L177.197 284.713
L183.46 280.928
L185.249 279.889
L190.616 276.678
L195.089 274.039
L197.773 272.589
L204.035 268.836
L205.824 267.837
L229.084 253.601
L230.873 252.58
L238.924 247.555
L240.713 246.513
L244.292 244.323
L247.87 242.164
L249.659 241.143
L253.238 238.996
L255.027 237.971
L258.605 235.814
L262.183 233.755
L265.762 231.585
L267.551 230.542
L272.918 227.244
L275.602 225.749
L279.181 223.574
L280.97 222.529
L297.967 211.829
L300.651 210.337
L304.229 208.18
L306.913 206.697
L314.07 202.268
L315.859 201.254
L321.226 198.018
L323.91 196.462
L325.699 195.457
L328.383 193.89
L331.067 192.381
L341.802 186.07
L348.064 182.272
L350.748 180.792
L353.431 179.236
L356.115 177.786
L359.694 175.69
L361.483 174.656
L365.956 171.969
L367.745 170.943
L372.218 168.249
L374.007 167.236
L383.848 161.199
L385.637 160.182
L393.688 155.289
L395.477 154.263
L401.739 150.355
L404.423 148.896
L407.107 147.332
L408.896 146.312
L411.58 144.724
L414.264 143.24
L416.947 141.628
L418.737 140.608
L424.999 136.779
L426.788 135.746
L433.945 131.356
L435.734 130.322
L439.312 128.172
L441.996 126.692
L445.574 124.555
L448.258 123.076
L452.731 120.353
L469.728 110.272
L471.517 109.243
L475.096 106.962
L475.096 106.962" style="fill:none;stroke:#bfbf00;stroke-linecap:square;"/>
   </g>
   <g id="line2d_14">
    <path clip-path="url(#p2118423672)" d="
M28.6956 368.688
L29.5902 368.287
L34.0632 365.685
L50.1658 356.302
L67.163 346.684
L68.9521 345.56
L70.7413 344.553
L72.5305 343.351
L77.0034 340.592
L87.7385 333.531
L90.4223 331.907
L94.8952 328.876
L96.6844 327.739
L101.157 324.745
L102.947 323.602
L105.63 321.846
L109.209 319.46
L110.998 318.342
L120.838 311.698
L122.627 310.551
L128.89 306.213
L137.836 300.087
L139.625 298.943
L145.887 294.735
L147.676 293.596
L153.938 289.298
L158.411 286.251
L160.2 285.097
L161.989 283.953
L168.252 279.724
L170.041 278.597
L174.514 275.596
L177.197 273.964
L183.46 269.697
L185.249 268.53
L187.932 266.744
L195.089 261.874
L197.773 260.234
L204.035 255.993
L205.824 254.864
L210.297 251.744
L214.77 248.729
L216.559 247.567
L226.4 240.648
L229.084 238.862
L229.978 238.35
L238.029 232.698
L241.608 230.274
L243.397 229.112
L247.87 226.026
L249.659 224.871
L253.238 222.451
L255.027 221.299
L258.605 218.858
L262.183 216.538
L265.762 214.084
L267.551 212.91
L272.024 209.719
L275.602 207.54
L279.181 205.065
L280.97 203.896
L292.599 195.722
L294.389 194.57
L298.862 191.468
L302.44 189.068
L304.229 187.916
L306.913 186.25
L314.07 181.257
L315.859 180.079
L320.332 176.993
L323.91 174.565
L325.699 173.411
L328.383 171.608
L330.172 170.445
L342.696 162.206
L347.169 159.186
L348.959 158.056
L350.748 156.92
L352.537 155.785
L355.221 154.045
L357.904 152.382
L363.272 148.71
L365.061 147.567
L370.429 143.937
L372.218 142.802
L374.007 141.666
L379.375 137.905
L381.164 136.767
L383.848 134.87
L384.742 134.368
L387.426 132.409
L389.215 131.265
L393.688 128.226
L395.477 127.077
L401.739 122.735
L404.423 121.059
L407.107 119.277
L408.896 118.107
L411.58 116.308
L412.474 115.793
L415.158 113.978
L417.842 112.305
L422.315 109.229
L427.682 105.639
L433.945 101.41
L435.734 100.27
L439.312 97.9019
L441.996 96.2668
L445.574 93.9137
L448.258 92.2894
L452.731 89.2995
L460.782 84.072
L462.571 82.9434
L467.939 79.3185
L469.728 78.1978
L471.517 77.0514
L475.096 74.5275
L475.096 74.5275" style="fill:none;stroke:#000000;stroke-linecap:square;"/>
   </g>
   <g id="line2d_15">
    <path clip-path="url(#p2118423672)" d="
M28.6956 368.685
L29.5902 368.231
L35.8523 364.125
L38.5361 362.299
L43.0091 359.465
L46.5874 357.175
L50.1658 354.839
L67.163 344.191
L68.9521 342.926
L70.7413 341.811
L72.5305 340.558
L76.1089 338.295
L77.898 336.928
L81.4764 334.32
L85.9493 330.972
L88.6331 329.121
L92.2115 326.467
L94.0006 325.082
L95.7898 323.752
L101.157 319.646
L102.947 318.377
L107.419 315.009
L108.314 314.443
L113.682 310.274
L114.576 309.691
L117.26 307.549
L118.155 306.969
L120.838 304.862
L121.733 304.295
L128.89 298.769
L140.519 290.04
L142.308 288.756
L145.887 286.067
L147.676 284.804
L162.884 273.652
L164.673 272.426
L172.724 266.354
L175.408 264.519
L178.092 262.583
L182.565 259.253
L187.038 255.861
L187.932 255.303
L193.3 251.217
L195.984 249.379
L197.773 248.16
L204.035 243.564
L205.824 242.347
L212.086 237.661
L213.876 236.425
L221.032 231.039
L222.821 229.749
L227.294 226.3
L229.978 224.482
L234.451 221.01
L236.24 219.763
L238.924 217.69
L240.713 216.452
L245.186 213.109
L246.081 212.551
L249.659 209.857
L253.238 207.231
L255.027 205.985
L256.816 204.61
L257.71 204.053
L259.5 202.773
L265.762 198.233
L267.551 196.963
L272.918 192.943
L275.602 191.147
L279.181 188.515
L280.97 187.25
L292.599 178.349
L293.494 177.798
L299.756 173.063
L300.651 172.502
L304.229 169.864
L306.913 168.033
L312.28 163.84
L314.07 162.606
L315.859 161.328
L319.437 158.565
L321.226 157.299
L323.91 155.334
L325.699 154.085
L328.383 152.135
L330.172 150.877
L331.961 149.59
L333.751 148.195
L334.645 147.633
L336.434 146.377
L340.013 143.743
L341.802 142.394
L348.064 137.642
L350.748 135.807
L352.537 134.548
L355.221 132.626
L357.904 130.781
L359.694 129.377
L361.483 128.044
L363.272 126.625
L364.167 126.056
L365.956 124.664
L367.745 123.373
L372.218 119.942
L373.112 119.368
L383.848 110.928
L384.742 110.354
L391.899 104.826
L392.793 104.244
L396.372 101.52
L401.739 97.3806
L404.423 95.4877
L406.212 94.1951
L409.791 91.4718
L410.685 90.8951
L413.369 88.8828
L414.264 88.2903
L415.158 87.5646
L416.947 86.2789
L418.737 84.9617
L422.315 82.1979
L428.577 77.4335
L431.261 75.3273
L432.155 74.7655
L437.523 70.7052
L438.417 70.1414
L441.101 68.1833
L442.89 66.9233
L445.574 64.9811
L448.258 63.1425
L450.942 61.0333
L451.836 60.4725
L453.625 59.1177
L455.415 57.8025
L460.782 53.8834
L462.571 52.6155
L465.255 50.5271
L467.044 49.2642
L468.834 47.9894
L475.096 43.2122
L475.096 43.2122" style="fill:none;stroke:#0000ff;stroke-linecap:square;"/>
   </g>
   <g id="line2d_16">
    <path clip-path="url(#p2118423672)" d="
M28.6956 368.687
L29.5902 368.222
L43.0091 359.345
L47.482 356.37
L53.7441 352.214
L70.7413 341.013
L71.6359 340.259
L76.1089 337.243
L77.898 335.81
L84.1602 330.987
L87.7385 328.19
L90.4223 326.228
L94.8952 322.556
L96.6844 321.211
L100.263 318.384
L107.419 312.81
L110.103 310.875
L120.838 302.169
L121.733 301.57
L124.417 299.498
L137.836 288.638
L139.625 287.294
L144.098 283.727
L146.781 281.809
L155.727 274.828
L157.516 273.494
L161.095 270.758
L163.779 268.875
L172.724 261.849
L175.408 259.926
L177.197 258.61
L183.46 253.722
L185.249 252.383
L189.722 248.86
L193.3 246.002
L195.984 244.061
L201.351 239.829
L203.141 238.417
L207.613 234.772
L212.086 231.166
L212.981 230.556
L220.138 224.69
L227.294 218.925
L229.978 216.95
L238.924 209.59
L239.819 208.986
L245.186 204.612
L246.081 204.003
L250.554 200.339
L251.448 199.726
L254.132 197.613
L256.816 195.383
L258.605 194.02
L261.289 192.047
L264.867 189.152
L272.918 182.628
L273.813 182.016
L277.391 179.142
L284.548 173.371
L285.443 172.596
L286.337 171.972
L292.599 166.703
L293.494 166.095
L299.756 160.941
L300.651 160.329
L302.44 158.826
L304.229 157.471
L306.913 155.47
L312.28 150.961
L314.964 148.977
L319.437 145.299
L321.226 143.963
L323.91 141.882
L324.805 141.283
L326.594 139.818
L329.278 137.863
L333.751 134.315
L336.434 132.358
L338.223 130.947
L341.802 128.205
L347.169 123.9
L348.959 122.567
L349.853 121.965
L353.431 119.158
L356.115 117.218
L365.956 109.576
L367.745 108.234
L379.375 98.8025
L380.269 98.1992
L387.426 92.3427
L388.32 91.7157
L391.899 88.7001
L392.793 88.0751
L397.266 84.3524
L399.056 82.9542
L401.739 80.6703
L404.423 78.6816
L409.791 74.4485
L410.685 73.8304
L412.474 72.4529
L415.158 70.3181
L416.947 68.9515
L418.737 67.5622
L424.999 62.4809
L425.893 61.8756
L431.261 57.4549
L432.155 56.8516
L433.945 55.3991
L435.734 54.0532
L439.312 51.244
L441.996 49.3027
L445.574 46.5329
L448.258 44.6005
L452.731 41.0152
L458.098 36.8719
L459.888 35.4115
L461.677 34.2009
L465.255 31.2377
L466.15 30.6324
L467.939 29.1621
L470.623 27.2159
L475.096 23.5328
L475.096 23.5328" style="fill:none;stroke:#008000;stroke-linecap:square;"/>
   </g>
   <g id="patch_3">
    <path d="
M28.6956 23.1417
L475.096 23.1417" style="fill:none;stroke:#000000;stroke-linecap:square;stroke-linejoin:miter;"/>
   </g>
   <g id="patch_4">
    <path d="
M475.096 368.742
L475.096 23.1417" style="fill:none;stroke:#000000;stroke-linecap:square;stroke-linejoin:miter;"/>
   </g>
   <g id="patch_5">
    <path d="
M28.6956 368.742
L475.096 368.742" style="fill:none;stroke:#000000;stroke-linecap:square;stroke-linejoin:miter;"/>
   </g>
   <g id="patch_6">
    <path d="
M28.6956 368.742
L28.6956 23.1417" style="fill:none;stroke:#000000;stroke-linecap:square;stroke-linejoin:miter;"/>
   </g>
   <g id="matplotlib.axis_1">
    <g id="xtick_1">
     <g id="line2d_17">
      <defs>
       <path d="
M0 0
L0 -4" id="m93b0483c22" style="stroke:#000000;stroke-width:0.5;"/>
      </defs>
      <g>
       <use style="stroke:#000000;stroke-width:0.5;" x="28.695625" xlink:href="#m93b0483c22" y="368.74175"/>
      </g>
     </g>
     <g id="line2d_18">
      <defs>
       <path d="
M0 0
L0 4" id="m741efc42ff" style="stroke:#000000;stroke-width:0.5;"/>
      </defs>
      <g>
       <use style="stroke:#000000;stroke-width:0.5;" x="28.695625" xlink:href="#m741efc42ff" y="23.14175"/>
      </g>
     </g>
     <g id="text_1">
      <!-- 0 -->
      <defs>
       <path d="
M31.7812 66.4062
Q24.1719 66.4062 20.3281 58.9062
Q16.5 51.4219 16.5 36.375
Q16.5 21.3906 20.3281 13.8906
Q24.1719 6.39062 31.7812 6.39062
Q39.4531 6.39062 43.2812 13.8906
Q47.125 21.3906 47.125 36.375
Q47.125 51.4219 43.2812 58.9062
Q39.4531 66.4062 31.7812 66.4062
M31.7812 74.2188
Q44.0469 74.2188 50.5156 64.5156
Q56.9844 54.8281 56.9844 36.375
Q56.9844 17.9688 50.5156 8.26562
Q44.0469 -1.42188 31.7812 -1.42188
Q19.5312 -1.42188 13.0625 8.26562
Q6.59375 17.9688 6.59375 36.375
Q6.59375 54.8281 13.0625 64.5156
Q19.5312 74.2188 31.7812 74.2188" id="DejaVuSans-30"/>
      </defs>
      <g transform="translate(25.6721875 381.859875)scale(0.12 -0.12)">
       <use xlink:href="#DejaVuSans-30"/>
      </g>
     </g>
    </g>
    <g id="xtick_2">
     <g id="line2d_19">
      <g>
       <use style="stroke:#000000;stroke-width:0.5;" x="118.154542836" xlink:href="#m93b0483c22" y="368.74175"/>
      </g>
     </g>
     <g id="line2d_20">
      <g>
       <use style="stroke:#000000;stroke-width:0.5;" x="118.154542836" xlink:href="#m741efc42ff" y="23.14175"/>
      </g>
     </g>
     <g id="text_2">
      <!-- 100 -->
      <defs>
       <path d="
M12.4062 8.29688
L28.5156 8.29688
L28.5156 63.9219
L10.9844 60.4062
L10.9844 69.3906
L28.4219 72.9062
L38.2812 72.9062
L38.2812 8.29688
L54.3906 8.29688
L54.3906 0
L12.4062 0
z
" id="DejaVuSans-31"/>
      </defs>
      <g transform="translate(107.759542836 381.859875)scale(0.12 -0.12)">
       <use xlink:href="#DejaVuSans-31"/>
       <use x="63.623046875" xlink:href="#DejaVuSans-30"/>
       <use x="127.24609375" xlink:href="#DejaVuSans-30"/>
      </g>
     </g>
    </g>
    <g id="xtick_3">
     <g id="line2d_21">
      <g>
       <use style="stroke:#000000;stroke-width:0.5;" x="207.613460671" xlink:href="#m93b0483c22" y="368.74175"/>
      </g>
     </g>
     <g id="line2d_22">
      <g>
       <use style="stroke:#000000;stroke-width:0.5;" x="207.613460671" xlink:href="#m741efc42ff" y="23.14175"/>
      </g>
     </g>
     <g id="text_3">
      <!-- 200 -->
      <defs>
       <path d="
M19.1875 8.29688
L53.6094 8.29688
L53.6094 0
L7.32812 0
L7.32812 8.29688
Q12.9375 14.1094 22.625 23.8906
Q32.3281 33.6875 34.8125 36.5312
Q39.5469 41.8438 41.4219 45.5312
Q43.3125 49.2188 43.3125 52.7812
Q43.3125 58.5938 39.2344 62.25
Q35.1562 65.9219 28.6094 65.9219
Q23.9688 65.9219 18.8125 64.3125
Q13.6719 62.7031 7.8125 59.4219
L7.8125 69.3906
Q13.7656 71.7812 18.9375 73
Q24.125 74.2188 28.4219 74.2188
Q39.75 74.2188 46.4844 68.5469
Q53.2188 62.8906 53.2188 53.4219
Q53.2188 48.9219 51.5312 44.8906
Q49.8594 40.875 45.4062 35.4062
Q44.1875 33.9844 37.6406 27.2188
Q31.1094 20.4531 19.1875 8.29688" id="DejaVuSans-32"/>
      </defs>
      <g transform="translate(196.999085671 381.859875)scale(0.12 -0.12)">
       <use xlink:href="#DejaVuSans-32"/>
       <use x="63.623046875" xlink:href="#DejaVuSans-30"/>
       <use x="127.24609375" xlink:href="#DejaVuSans-30"/>
      </g>
     </g>
    </g>
    <g id="xtick_4">
     <g id="line2d_23">
      <g>
       <use style="stroke:#000000;stroke-width:0.5;" x="297.072378507" xlink:href="#m93b0483c22" y="368.74175"/>
      </g>
     </g>
     <g id="line2d_24">
      <g>
       <use style="stroke:#000000;stroke-width:0.5;" x="297.072378507" xlink:href="#m741efc42ff" y="23.14175"/>
      </g>
     </g>
     <g id="text_4">
      <!-- 300 -->
      <defs>
       <path d="
M40.5781 39.3125
Q47.6562 37.7969 51.625 33
Q55.6094 28.2188 55.6094 21.1875
Q55.6094 10.4062 48.1875 4.48438
Q40.7656 -1.42188 27.0938 -1.42188
Q22.5156 -1.42188 17.6562 -0.515625
Q12.7969 0.390625 7.625 2.20312
L7.625 11.7188
Q11.7188 9.32812 16.5938 8.10938
Q21.4844 6.89062 26.8125 6.89062
Q36.0781 6.89062 40.9375 10.5469
Q45.7969 14.2031 45.7969 21.1875
Q45.7969 27.6406 41.2812 31.2656
Q36.7656 34.9062 28.7188 34.9062
L20.2188 34.9062
L20.2188 43.0156
L29.1094 43.0156
Q36.375 43.0156 40.2344 45.9219
Q44.0938 48.8281 44.0938 54.2969
Q44.0938 59.9062 40.1094 62.9062
Q36.1406 65.9219 28.7188 65.9219
Q24.6562 65.9219 20.0156 65.0312
Q15.375 64.1562 9.8125 62.3125
L9.8125 71.0938
Q15.4375 72.6562 20.3438 73.4375
Q25.25 74.2188 29.5938 74.2188
Q40.8281 74.2188 47.3594 69.1094
Q53.9062 64.0156 53.9062 55.3281
Q53.9062 49.2656 50.4375 45.0938
Q46.9688 40.9219 40.5781 39.3125" id="DejaVuSans-33"/>
      </defs>
      <g transform="translate(286.475816007 381.859875)scale(0.12 -0.12)">
       <use xlink:href="#DejaVuSans-33"/>
       <use x="63.623046875" xlink:href="#DejaVuSans-30"/>
       <use x="127.24609375" xlink:href="#DejaVuSans-30"/>
      </g>
     </g>
    </g>
    <g id="xtick_5">
     <g id="line2d_25">
      <g>
       <use style="stroke:#000000;stroke-width:0.5;" x="386.531296343" xlink:href="#m93b0483c22" y="368.74175"/>
      </g>
     </g>
     <g id="line2d_26">
      <g>
       <use style="stroke:#000000;stroke-width:0.5;" x="386.531296343" xlink:href="#m741efc42ff" y="23.14175"/>
      </g>
     </g>
     <g id="text_5">
      <!-- 400 -->
      <defs>
       <path d="
M37.7969 64.3125
L12.8906 25.3906
L37.7969 25.3906
z

M35.2031 72.9062
L47.6094 72.9062
L47.6094 25.3906
L58.0156 25.3906
L58.0156 17.1875
L47.6094 17.1875
L47.6094 0
L37.7969 0
L37.7969 17.1875
L4.89062 17.1875
L4.89062 26.7031
z
" id="DejaVuSans-34"/>
      </defs>
      <g transform="translate(375.770671343 381.859875)scale(0.12 -0.12)">
       <use xlink:href="#DejaVuSans-34"/>
       <use x="63.623046875" xlink:href="#DejaVuSans-30"/>
       <use x="127.24609375" xlink:href="#DejaVuSans-30"/>
      </g>
     </g>
    </g>
    <g id="text_6">
     <!-- time -->
     <defs>
      <path d="
M18.3125 70.2188
L18.3125 54.6875
L36.8125 54.6875
L36.8125 47.7031
L18.3125 47.7031
L18.3125 18.0156
Q18.3125 11.3281 20.1406 9.42188
Q21.9688 7.51562 27.5938 7.51562
L36.8125 7.51562
L36.8125 0
L27.5938 0
Q17.1875 0 13.2344 3.875
Q9.28125 7.76562 9.28125 18.0156
L9.28125 47.7031
L2.6875 47.7031
L2.6875 54.6875
L9.28125 54.6875
L9.28125 70.2188
z
" id="DejaVuSans-74"/>
      <path d="
M52 44.1875
Q55.375 50.25 60.0625 53.125
Q64.75 56 71.0938 56
Q79.6406 56 84.2812 50.0156
Q88.9219 44.0469 88.9219 33.0156
L88.9219 0
L79.8906 0
L79.8906 32.7188
Q79.8906 40.5781 77.0938 44.375
Q74.3125 48.1875 68.6094 48.1875
Q61.625 48.1875 57.5625 43.5469
Q53.5156 38.9219 53.5156 30.9062
L53.5156 0
L44.4844 0
L44.4844 32.7188
Q44.4844 40.625 41.7031 44.4062
Q38.9219 48.1875 33.1094 48.1875
Q26.2188 48.1875 22.1562 43.5312
Q18.1094 38.875 18.1094 30.9062
L18.1094 0
L9.07812 0
L9.07812 54.6875
L18.1094 54.6875
L18.1094 46.1875
Q21.1875 51.2188 25.4844 53.6094
Q29.7812 56 35.6875 56
Q41.6562 56 45.8281 52.9688
Q50 49.9531 52 44.1875" id="DejaVuSans-6d"/>
      <path d="
M56.2031 29.5938
L56.2031 25.2031
L14.8906 25.2031
Q15.4844 15.9219 20.4844 11.0625
Q25.4844 6.20312 34.4219 6.20312
Q39.5938 6.20312 44.4531 7.46875
Q49.3125 8.73438 54.1094 11.2812
L54.1094 2.78125
Q49.2656 0.734375 44.1875 -0.34375
Q39.1094 -1.42188 33.8906 -1.42188
Q20.7969 -1.42188 13.1562 6.1875
Q5.51562 13.8125 5.51562 26.8125
Q5.51562 40.2344 12.7656 48.1094
Q20.0156 56 32.3281 56
Q43.3594 56 49.7812 48.8906
Q56.2031 41.7969 56.2031 29.5938
M47.2188 32.2344
Q47.125 39.5938 43.0938 43.9844
Q39.0625 48.3906 32.4219 48.3906
Q24.9062 48.3906 20.3906 44.1406
Q15.875 39.8906 15.1875 32.1719
z
" id="DejaVuSans-65"/>
      <path d="
M9.42188 54.6875
L18.4062 54.6875
L18.4062 0
L9.42188 0
z

M9.42188 75.9844
L18.4062 75.9844
L18.4062 64.5938
L9.42188 64.5938
z
" id="DejaVuSans-69"/>
     </defs>
     <g transform="translate(238.82125 398.473625)scale(0.12 -0.12)">
      <use xlink:href="#DejaVuSans-74"/>
      <use x="39.208984375" xlink:href="#DejaVuSans-69"/>
      <use x="66.9921875" xlink:href="#DejaVuSans-6d"/>
      <use x="164.404296875" xlink:href="#DejaVuSans-65"/>
     </g>
    </g>
   </g>
   <g id="matplotlib.axis_2">
    <g id="ytick_1">
     <g id="line2d_27">
      <defs>
       <path d="
M0 0
L4 0" id="m728421d6d4" style="stroke:#000000;stroke-width:0.5;"/>
      </defs>
      <g>
       <use style="stroke:#000000;stroke-width:0.5;" x="28.695625" xlink:href="#m728421d6d4" y="368.74175"/>
      </g>
     </g>
     <g id="line2d_28">
      <defs>
       <path d="
M0 0
L-4 0" id="mcb0005524f" style="stroke:#000000;stroke-width:0.5;"/>
      </defs>
      <g>
       <use style="stroke:#000000;stroke-width:0.5;" x="475.095625" xlink:href="#mcb0005524f" y="368.74175"/>
      </g>
     </g>
     <g id="text_7">
      <!-- 0.0 -->
      <defs>
       <path d="
M10.6875 12.4062
L21 12.4062
L21 0
L10.6875 0
z
" id="DejaVuSans-2e"/>
      </defs>
      <g transform="translate(7.2 372.053)scale(0.12 -0.12)">
       <use xlink:href="#DejaVuSans-30"/>
       <use x="63.623046875" xlink:href="#DejaVuSans-2e"/>
       <use x="95.41015625" xlink:href="#DejaVuSans-30"/>
      </g>
     </g>
    </g>
    <g id="ytick_2">
     <g id="line2d_29">
      <g>
       <use style="stroke:#000000;stroke-width:0.5;" x="28.695625" xlink:href="#m728421d6d4" y="319.370321429"/>
      </g>
     </g>
     <g id="line2d_30">
      <g>
       <use style="stroke:#000000;stroke-width:0.5;" x="475.095625" xlink:href="#mcb0005524f" y="319.370321429"/>
      </g>
     </g>
     <g id="text_8">
      <!-- 0.5 -->
      <defs>
       <path d="
M10.7969 72.9062
L49.5156 72.9062
L49.5156 64.5938
L19.8281 64.5938
L19.8281 46.7344
Q21.9688 47.4688 24.1094 47.8281
Q26.2656 48.1875 28.4219 48.1875
Q40.625 48.1875 47.75 41.5
Q54.8906 34.8125 54.8906 23.3906
Q54.8906 11.625 47.5625 5.09375
Q40.2344 -1.42188 26.9062 -1.42188
Q22.3125 -1.42188 17.5469 -0.640625
Q12.7969 0.140625 7.71875 1.70312
L7.71875 11.625
Q12.1094 9.23438 16.7969 8.0625
Q21.4844 6.89062 26.7031 6.89062
Q35.1562 6.89062 40.0781 11.3281
Q45.0156 15.7656 45.0156 23.3906
Q45.0156 31 40.0781 35.4375
Q35.1562 39.8906 26.7031 39.8906
Q22.75 39.8906 18.8125 39.0156
Q14.8906 38.1406 10.7969 36.2812
z
" id="DejaVuSans-35"/>
      </defs>
      <g transform="translate(7.45125 322.681571429)scale(0.12 -0.12)">
       <use xlink:href="#DejaVuSans-30"/>
       <use x="63.623046875" xlink:href="#DejaVuSans-2e"/>
       <use x="95.41015625" xlink:href="#DejaVuSans-35"/>
      </g>
     </g>
    </g>
    <g id="ytick_3">
     <g id="line2d_31">
      <g>
       <use style="stroke:#000000;stroke-width:0.5;" x="28.695625" xlink:href="#m728421d6d4" y="269.998892857"/>
      </g>
     </g>
     <g id="line2d_32">
      <g>
       <use style="stroke:#000000;stroke-width:0.5;" x="475.095625" xlink:href="#mcb0005524f" y="269.998892857"/>
      </g>
     </g>
     <g id="text_9">
      <!-- 1.0 -->
      <g transform="translate(7.726875 273.310142857)scale(0.12 -0.12)">
       <use xlink:href="#DejaVuSans-31"/>
       <use x="63.623046875" xlink:href="#DejaVuSans-2e"/>
       <use x="95.41015625" xlink:href="#DejaVuSans-30"/>
      </g>
     </g>
    </g>
    <g id="ytick_4">
     <g id="line2d_33">
      <g>
       <use style="stroke:#000000;stroke-width:0.5;" x="28.695625" xlink:href="#m728421d6d4" y="220.627464286"/>
      </g>
     </g>
     <g id="line2d_34">
      <g>
       <use style="stroke:#000000;stroke-width:0.5;" x="475.095625" xlink:href="#mcb0005524f" y="220.627464286"/>
      </g>
     </g>
     <g id="text_10">
      <!-- 1.5 -->
      <g transform="translate(7.978125 223.938714286)scale(0.12 -0.12)">
       <use xlink:href="#DejaVuSans-31"/>
       <use x="63.623046875" xlink:href="#DejaVuSans-2e"/>
       <use x="95.41015625" xlink:href="#DejaVuSans-35"/>
      </g>
     </g>
    </g>
    <g id="ytick_5">
     <g id="line2d_35">
      <g>
       <use style="stroke:#000000;stroke-width:0.5;" x="28.695625" xlink:href="#m728421d6d4" y="171.256035714"/>
      </g>
     </g>
     <g id="line2d_36">
      <g>
       <use style="stroke:#000000;stroke-width:0.5;" x="475.095625" xlink:href="#mcb0005524f" y="171.256035714"/>
      </g>
     </g>
     <g id="text_11">
      <!-- 2.0 -->
      <g transform="translate(7.288125 174.567285714)scale(0.12 -0.12)">
       <use xlink:href="#DejaVuSans-32"/>
       <use x="63.623046875" xlink:href="#DejaVuSans-2e"/>
       <use x="95.41015625" xlink:href="#DejaVuSans-30"/>
      </g>
     </g>
    </g>
    <g id="ytick_6">
     <g id="line2d_37">
      <g>
       <use style="stroke:#000000;stroke-width:0.5;" x="28.695625" xlink:href="#m728421d6d4" y="121.884607143"/>
      </g>
     </g>
     <g id="line2d_38">
      <g>
       <use style="stroke:#000000;stroke-width:0.5;" x="475.095625" xlink:href="#mcb0005524f" y="121.884607143"/>
      </g>
     </g>
     <g id="text_12">
      <!-- 2.5 -->
      <g transform="translate(7.539375 125.195857143)scale(0.12 -0.12)">
       <use xlink:href="#DejaVuSans-32"/>
       <use x="63.623046875" xlink:href="#DejaVuSans-2e"/>
       <use x="95.41015625" xlink:href="#DejaVuSans-35"/>
      </g>
     </g>
    </g>
    <g id="ytick_7">
     <g id="line2d_39">
      <g>
       <use style="stroke:#000000;stroke-width:0.5;" x="28.695625" xlink:href="#m728421d6d4" y="72.5131785714"/>
      </g>
     </g>
     <g id="line2d_40">
      <g>
       <use style="stroke:#000000;stroke-width:0.5;" x="475.095625" xlink:href="#mcb0005524f" y="72.5131785714"/>
      </g>
     </g>
     <g id="text_13">
      <!-- 3.0 -->
      <g transform="translate(7.32375 75.8244285714)scale(0.12 -0.12)">
       <use xlink:href="#DejaVuSans-33"/>
       <use x="63.623046875" xlink:href="#DejaVuSans-2e"/>
       <use x="95.41015625" xlink:href="#DejaVuSans-30"/>
      </g>
     </g>
    </g>
    <g id="ytick_8">
     <g id="line2d_41">
      <g>
       <use style="stroke:#000000;stroke-width:0.5;" x="28.695625" xlink:href="#m728421d6d4" y="23.14175"/>
      </g>
     </g>
     <g id="line2d_42">
      <g>
       <use style="stroke:#000000;stroke-width:0.5;" x="475.095625" xlink:href="#mcb0005524f" y="23.14175"/>
      </g>
     </g>
     <g id="text_14">
      <!-- 3.5 -->
      <g transform="translate(7.575 26.453)scale(0.12 -0.12)">
       <use xlink:href="#DejaVuSans-33"/>
       <use x="63.623046875" xlink:href="#DejaVuSans-2e"/>
       <use x="95.41015625" xlink:href="#DejaVuSans-35"/>
      </g>
     </g>
    </g>
    <g id="text_15">
     <!-- 1e9 -->
     <defs>
      <path d="
M10.9844 1.51562
L10.9844 10.5
Q14.7031 8.73438 18.5 7.8125
Q22.3125 6.89062 25.9844 6.89062
Q35.75 6.89062 40.8906 13.4531
Q46.0469 20.0156 46.7812 33.4062
Q43.9531 29.2031 39.5938 26.9531
Q35.25 24.7031 29.9844 24.7031
Q19.0469 24.7031 12.6719 31.3125
Q6.29688 37.9375 6.29688 49.4219
Q6.29688 60.6406 12.9375 67.4219
Q19.5781 74.2188 30.6094 74.2188
Q43.2656 74.2188 49.9219 64.5156
Q56.5938 54.8281 56.5938 36.375
Q56.5938 19.1406 48.4062 8.85938
Q40.2344 -1.42188 26.4219 -1.42188
Q22.7031 -1.42188 18.8906 -0.6875
Q15.0938 0.046875 10.9844 1.51562
M30.6094 32.4219
Q37.25 32.4219 41.125 36.9531
Q45.0156 41.5 45.0156 49.4219
Q45.0156 57.2812 41.125 61.8438
Q37.25 66.4062 30.6094 66.4062
Q23.9688 66.4062 20.0938 61.8438
Q16.2188 57.2812 16.2188 49.4219
Q16.2188 41.5 20.0938 36.9531
Q23.9688 32.4219 30.6094 32.4219" id="DejaVuSans-39"/>
     </defs>
     <g transform="translate(28.695625 20.14175)scale(0.12 -0.12)">
      <use xlink:href="#DejaVuSans-31"/>
      <use x="63.623046875" xlink:href="#DejaVuSans-65"/>
      <use x="125.146484375" xlink:href="#DejaVuSans-39"/>
     </g>
    </g>
   </g>
   <g id="text_16">
    <!-- /agas/time/cache/update_entry -->
    <defs>
     <path d="
M25.3906 72.9062
L33.6875 72.9062
L8.29688 -9.28125
L0 -9.28125
z
" id="DejaVuSans-2f"/>
     <path d="
M54.8906 33.0156
L54.8906 0
L45.9062 0
L45.9062 32.7188
Q45.9062 40.4844 42.875 44.3281
Q39.8438 48.1875 33.7969 48.1875
Q26.5156 48.1875 22.3125 43.5469
Q18.1094 38.9219 18.1094 30.9062
L18.1094 0
L9.07812 0
L9.07812 54.6875
L18.1094 54.6875
L18.1094 46.1875
Q21.3438 51.125 25.7031 53.5625
Q30.0781 56 35.7969 56
Q45.2188 56 50.0469 50.1719
Q54.8906 44.3438 54.8906 33.0156" id="DejaVuSans-6e"/>
     <path d="
M50.9844 -16.6094
L50.9844 -23.5781
L-0.984375 -23.5781
L-0.984375 -16.6094
z
" id="DejaVuSans-5f"/>
     <path d="
M18.1094 8.20312
L18.1094 -20.7969
L9.07812 -20.7969
L9.07812 54.6875
L18.1094 54.6875
L18.1094 46.3906
Q20.9531 51.2656 25.2656 53.625
Q29.5938 56 35.5938 56
Q45.5625 56 51.7812 48.0938
Q58.0156 40.1875 58.0156 27.2969
Q58.0156 14.4062 51.7812 6.48438
Q45.5625 -1.42188 35.5938 -1.42188
Q29.5938 -1.42188 25.2656 0.953125
Q20.9531 3.32812 18.1094 8.20312
M48.6875 27.2969
Q48.6875 37.2031 44.6094 42.8438
Q40.5312 48.4844 33.4062 48.4844
Q26.2656 48.4844 22.1875 42.8438
Q18.1094 37.2031 18.1094 27.2969
Q18.1094 17.3906 22.1875 11.75
Q26.2656 6.10938 33.4062 6.10938
Q40.5312 6.10938 44.6094 11.75
Q48.6875 17.3906 48.6875 27.2969" id="DejaVuSans-70"/>
     <path d="
M32.1719 -5.07812
Q28.375 -14.8438 24.75 -17.8125
Q21.1406 -20.7969 15.0938 -20.7969
L7.90625 -20.7969
L7.90625 -13.2812
L13.1875 -13.2812
Q16.8906 -13.2812 18.9375 -11.5156
Q21 -9.76562 23.4844 -3.21875
L25.0938 0.875
L2.98438 54.6875
L12.5 54.6875
L29.5938 11.9219
L46.6875 54.6875
L56.2031 54.6875
z
" id="DejaVuSans-79"/>
     <path d="
M54.8906 33.0156
L54.8906 0
L45.9062 0
L45.9062 32.7188
Q45.9062 40.4844 42.875 44.3281
Q39.8438 48.1875 33.7969 48.1875
Q26.5156 48.1875 22.3125 43.5469
Q18.1094 38.9219 18.1094 30.9062
L18.1094 0
L9.07812 0
L9.07812 75.9844
L18.1094 75.9844
L18.1094 46.1875
Q21.3438 51.125 25.7031 53.5625
Q30.0781 56 35.7969 56
Q45.2188 56 50.0469 50.1719
Q54.8906 44.3438 54.8906 33.0156" id="DejaVuSans-68"/>
     <path d="
M8.5 21.5781
L8.5 54.6875
L17.4844 54.6875
L17.4844 21.9219
Q17.4844 14.1562 20.5 10.2656
Q23.5312 6.39062 29.5938 6.39062
Q36.8594 6.39062 41.0781 11.0312
Q45.3125 15.6719 45.3125 23.6875
L45.3125 54.6875
L54.2969 54.6875
L54.2969 0
L45.3125 0
L45.3125 8.40625
Q42.0469 3.42188 37.7188 1
Q33.4062 -1.42188 27.6875 -1.42188
Q18.2656 -1.42188 13.375 4.4375
Q8.5 10.2969 8.5 21.5781
M31.1094 56
z
" id="DejaVuSans-75"/>
     <path d="
M45.4062 27.9844
Q45.4062 37.75 41.375 43.1094
Q37.3594 48.4844 30.0781 48.4844
Q22.8594 48.4844 18.8281 43.1094
Q14.7969 37.75 14.7969 27.9844
Q14.7969 18.2656 18.8281 12.8906
Q22.8594 7.51562 30.0781 7.51562
Q37.3594 7.51562 41.375 12.8906
Q45.4062 18.2656 45.4062 27.9844
M54.3906 6.78125
Q54.3906 -7.17188 48.1875 -13.9844
Q42 -20.7969 29.2031 -20.7969
Q24.4688 -20.7969 20.2656 -20.0938
Q16.0625 -19.3906 12.1094 -17.9219
L12.1094 -9.1875
Q16.0625 -11.3281 19.9219 -12.3438
Q23.7812 -13.375 27.7812 -13.375
Q36.625 -13.375 41.0156 -8.76562
Q45.4062 -4.15625 45.4062 5.17188
L45.4062 9.625
Q42.625 4.78125 38.2812 2.39062
Q33.9375 0 27.875 0
Q17.8281 0 11.6719 7.65625
Q5.51562 15.3281 5.51562 27.9844
Q5.51562 40.6719 11.6719 48.3281
Q17.8281 56 27.875 56
Q33.9375 56 38.2812 53.6094
Q42.625 51.2188 45.4062 46.3906
L45.4062 54.6875
L54.3906 54.6875
z
" id="DejaVuSans-67"/>
     <path d="
M45.4062 46.3906
L45.4062 75.9844
L54.3906 75.9844
L54.3906 0
L45.4062 0
L45.4062 8.20312
Q42.5781 3.32812 38.25 0.953125
Q33.9375 -1.42188 27.875 -1.42188
Q17.9688 -1.42188 11.7344 6.48438
Q5.51562 14.4062 5.51562 27.2969
Q5.51562 40.1875 11.7344 48.0938
Q17.9688 56 27.875 56
Q33.9375 56 38.25 53.625
Q42.5781 51.2656 45.4062 46.3906
M14.7969 27.2969
Q14.7969 17.3906 18.875 11.75
Q22.9531 6.10938 30.0781 6.10938
Q37.2031 6.10938 41.2969 11.75
Q45.4062 17.3906 45.4062 27.2969
Q45.4062 37.2031 41.2969 42.8438
Q37.2031 48.4844 30.0781 48.4844
Q22.9531 48.4844 18.875 42.8438
Q14.7969 37.2031 14.7969 27.2969" id="DejaVuSans-64"/>
     <path d="
M41.1094 46.2969
Q39.5938 47.1719 37.8125 47.5781
Q36.0312 48 33.8906 48
Q26.2656 48 22.1875 43.0469
Q18.1094 38.0938 18.1094 28.8125
L18.1094 0
L9.07812 0
L9.07812 54.6875
L18.1094 54.6875
L18.1094 46.1875
Q20.9531 51.1719 25.4844 53.5781
Q30.0312 56 36.5312 56
Q37.4531 56 38.5781 55.875
Q39.7031 55.7656 41.0625 55.5156
z
" id="DejaVuSans-72"/>
     <path d="
M48.7812 52.5938
L48.7812 44.1875
Q44.9688 46.2969 41.1406 47.3438
Q37.3125 48.3906 33.4062 48.3906
Q24.6562 48.3906 19.8125 42.8438
Q14.9844 37.3125 14.9844 27.2969
Q14.9844 17.2812 19.8125 11.7344
Q24.6562 6.20312 33.4062 6.20312
Q37.3125 6.20312 41.1406 7.25
Q44.9688 8.29688 48.7812 10.4062
L48.7812 2.09375
Q45.0156 0.34375 40.9844 -0.53125
Q36.9688 -1.42188 32.4219 -1.42188
Q20.0625 -1.42188 12.7812 6.34375
Q5.51562 14.1094 5.51562 27.2969
Q5.51562 40.6719 12.8594 48.3281
Q20.2188 56 33.0156 56
Q37.1562 56 41.1094 55.1406
Q45.0625 54.2969 48.7812 52.5938" id="DejaVuSans-63"/>
     <path d="
M44.2812 53.0781
L44.2812 44.5781
Q40.4844 46.5312 36.375 47.5
Q32.2812 48.4844 27.875 48.4844
Q21.1875 48.4844 17.8438 46.4375
Q14.5 44.3906 14.5 40.2812
Q14.5 37.1562 16.8906 35.375
Q19.2812 33.5938 26.5156 31.9844
L29.5938 31.2969
Q39.1562 29.25 43.1875 25.5156
Q47.2188 21.7812 47.2188 15.0938
Q47.2188 7.46875 41.1875 3.01562
Q35.1562 -1.42188 24.6094 -1.42188
Q20.2188 -1.42188 15.4531 -0.5625
Q10.6875 0.296875 5.42188 2
L5.42188 11.2812
Q10.4062 8.6875 15.2344 7.39062
Q20.0625 6.10938 24.8125 6.10938
Q31.1562 6.10938 34.5625 8.28125
Q37.9844 10.4531 37.9844 14.4062
Q37.9844 18.0625 35.5156 20.0156
Q33.0625 21.9688 24.7031 23.7812
L21.5781 24.5156
Q13.2344 26.2656 9.51562 29.9062
Q5.8125 33.5469 5.8125 39.8906
Q5.8125 47.6094 11.2812 51.7969
Q16.75 56 26.8125 56
Q31.7812 56 36.1719 55.2656
Q40.5781 54.5469 44.2812 53.0781" id="DejaVuSans-73"/>
     <path d="
M34.2812 27.4844
Q23.3906 27.4844 19.1875 25
Q14.9844 22.5156 14.9844 16.5
Q14.9844 11.7188 18.1406 8.90625
Q21.2969 6.10938 26.7031 6.10938
Q34.1875 6.10938 38.7031 11.4062
Q43.2188 16.7031 43.2188 25.4844
L43.2188 27.4844
z

M52.2031 31.2031
L52.2031 0
L43.2188 0
L43.2188 8.29688
Q40.1406 3.32812 35.5469 0.953125
Q30.9531 -1.42188 24.3125 -1.42188
Q15.9219 -1.42188 10.9531 3.29688
Q6 8.01562 6 15.9219
Q6 25.1406 12.1719 29.8281
Q18.3594 34.5156 30.6094 34.5156
L43.2188 34.5156
L43.2188 35.4062
Q43.2188 41.6094 39.1406 45
Q35.0625 48.3906 27.6875 48.3906
Q23 48.3906 18.5469 47.2656
Q14.1094 46.1406 10.0156 43.8906
L10.0156 52.2031
Q14.9375 54.1094 19.5781 55.0469
Q24.2188 56 28.6094 56
Q40.4844 56 46.3438 49.8438
Q52.2031 43.7031 52.2031 31.2031" id="DejaVuSans-61"/>
    </defs>
    <g transform="translate(139.665625 18.14175)scale(0.144 -0.144)">
     <use xlink:href="#DejaVuSans-2f"/>
     <use x="33.69140625" xlink:href="#DejaVuSans-61"/>
     <use x="94.970703125" xlink:href="#DejaVuSans-67"/>
     <use x="158.447265625" xlink:href="#DejaVuSans-61"/>
     <use x="219.7265625" xlink:href="#DejaVuSans-73"/>
     <use x="271.826171875" xlink:href="#DejaVuSans-2f"/>
     <use x="305.517578125" xlink:href="#DejaVuSans-74"/>
     <use x="344.7265625" xlink:href="#DejaVuSans-69"/>
     <use x="372.509765625" xlink:href="#DejaVuSans-6d"/>
     <use x="469.921875" xlink:href="#DejaVuSans-65"/>
     <use x="531.4453125" xlink:href="#DejaVuSans-2f"/>
     <use x="565.13671875" xlink:href="#DejaVuSans-63"/>
     <use x="620.1171875" xlink:href="#DejaVuSans-61"/>
     <use x="681.396484375" xlink:href="#DejaVuSans-63"/>
     <use x="736.376953125" xlink:href="#DejaVuSans-68"/>
     <use x="799.755859375" xlink:href="#DejaVuSans-65"/>
     <use x="861.279296875" xlink:href="#DejaVuSans-2f"/>
     <use x="894.970703125" xlink:href="#DejaVuSans-75"/>
     <use x="958.349609375" xlink:href="#DejaVuSans-70"/>
     <use x="1021.82617188" xlink:href="#DejaVuSans-64"/>
     <use x="1085.30273438" xlink:href="#DejaVuSans-61"/>
     <use x="1146.58203125" xlink:href="#DejaVuSans-74"/>
     <use x="1185.79101562" xlink:href="#DejaVuSans-65"/>
     <use x="1247.31445312" xlink:href="#DejaVuSans-5f"/>
     <use x="1297.31445312" xlink:href="#DejaVuSans-65"/>
     <use x="1358.83789062" xlink:href="#DejaVuSans-6e"/>
     <use x="1422.21679688" xlink:href="#DejaVuSans-74"/>
     <use x="1461.42578125" xlink:href="#DejaVuSans-72"/>
     <use x="1502.5390625" xlink:href="#DejaVuSans-79"/>
    </g>
   </g>
   <g id="legend_1">
    <g id="patch_7">
     <path d="
M482.296 367.194
L614.085 367.194
L614.085 24.6897
L482.296 24.6897
z
" style="fill:#ffffff;stroke:#000000;stroke-linejoin:miter;"/>
    </g>
    <g id="line2d_43">
     <path d="
M492.376 36.3515
L512.536 36.3515" style="fill:none;stroke:#0000ff;stroke-linecap:square;"/>
    </g>
    <g id="line2d_44"/>
    <g id="text_17">
     <!-- locality#0 -->
     <defs>
      <path d="
M30.6094 48.3906
Q23.3906 48.3906 19.1875 42.75
Q14.9844 37.1094 14.9844 27.2969
Q14.9844 17.4844 19.1562 11.8438
Q23.3438 6.20312 30.6094 6.20312
Q37.7969 6.20312 41.9844 11.8594
Q46.1875 17.5312 46.1875 27.2969
Q46.1875 37.0156 41.9844 42.7031
Q37.7969 48.3906 30.6094 48.3906
M30.6094 56
Q42.3281 56 49.0156 48.375
Q55.7188 40.7656 55.7188 27.2969
Q55.7188 13.875 49.0156 6.21875
Q42.3281 -1.42188 30.6094 -1.42188
Q18.8438 -1.42188 12.1719 6.21875
Q5.51562 13.875 5.51562 27.2969
Q5.51562 40.7656 12.1719 48.375
Q18.8438 56 30.6094 56" id="DejaVuSans-6f"/>
      <path d="
M51.125 44
L36.9219 44
L32.8125 27.6875
L47.125 27.6875
z

M43.7969 71.7812
L38.7188 51.5156
L52.9844 51.5156
L58.1094 71.7812
L65.9219 71.7812
L60.8906 51.5156
L76.125 51.5156
L76.125 44
L58.9844 44
L54.9844 27.6875
L70.5156 27.6875
L70.5156 20.2188
L53.0781 20.2188
L48 0
L40.1875 0
L45.2188 20.2188
L30.9062 20.2188
L25.875 0
L18.0156 0
L23.0938 20.2188
L7.71875 20.2188
L7.71875 27.6875
L24.9062 27.6875
L29 44
L13.2812 44
L13.2812 51.5156
L30.9062 51.5156
L35.8906 71.7812
z
" id="DejaVuSans-23"/>
      <path d="
M9.42188 75.9844
L18.4062 75.9844
L18.4062 0
L9.42188 0
z
" id="DejaVuSans-6c"/>
     </defs>
     <g transform="translate(528.375625 41.3915)scale(0.144 -0.144)">
      <use xlink:href="#DejaVuSans-6c"/>
      <use x="27.783203125" xlink:href="#DejaVuSans-6f"/>
      <use x="88.96484375" xlink:href="#DejaVuSans-63"/>
      <use x="143.9453125" xlink:href="#DejaVuSans-61"/>
      <use x="205.224609375" xlink:href="#DejaVuSans-6c"/>
      <use x="233.0078125" xlink:href="#DejaVuSans-69"/>
      <use x="260.791015625" xlink:href="#DejaVuSans-74"/>
      <use x="300.0" xlink:href="#DejaVuSans-79"/>
      <use x="359.1796875" xlink:href="#DejaVuSans-23"/>
      <use x="442.96875" xlink:href="#DejaVuSans-30"/>
     </g>
    </g>
    <g id="line2d_45">
     <path d="
M492.376 57.488
L512.536 57.488" style="fill:none;stroke:#008000;stroke-linecap:square;"/>
    </g>
    <g id="line2d_46"/>
    <g id="text_18">
     <!-- locality#1 -->
     <g transform="translate(528.375625 62.528)scale(0.144 -0.144)">
      <use xlink:href="#DejaVuSans-6c"/>
      <use x="27.783203125" xlink:href="#DejaVuSans-6f"/>
      <use x="88.96484375" xlink:href="#DejaVuSans-63"/>
      <use x="143.9453125" xlink:href="#DejaVuSans-61"/>
      <use x="205.224609375" xlink:href="#DejaVuSans-6c"/>
      <use x="233.0078125" xlink:href="#DejaVuSans-69"/>
      <use x="260.791015625" xlink:href="#DejaVuSans-74"/>
      <use x="300.0" xlink:href="#DejaVuSans-79"/>
      <use x="359.1796875" xlink:href="#DejaVuSans-23"/>
      <use x="442.96875" xlink:href="#DejaVuSans-31"/>
     </g>
    </g>
    <g id="line2d_47">
     <path d="
M492.376 78.6245
L512.536 78.6245" style="fill:none;stroke:#ff0000;stroke-linecap:square;"/>
    </g>
    <g id="line2d_48"/>
    <g id="text_19">
     <!-- locality#10 -->
     <g transform="translate(528.375625 83.6645)scale(0.144 -0.144)">
      <use xlink:href="#DejaVuSans-6c"/>
      <use x="27.783203125" xlink:href="#DejaVuSans-6f"/>
      <use x="88.96484375" xlink:href="#DejaVuSans-63"/>
      <use x="143.9453125" xlink:href="#DejaVuSans-61"/>
      <use x="205.224609375" xlink:href="#DejaVuSans-6c"/>
      <use x="233.0078125" xlink:href="#DejaVuSans-69"/>
      <use x="260.791015625" xlink:href="#DejaVuSans-74"/>
      <use x="300.0" xlink:href="#DejaVuSans-79"/>
      <use x="359.1796875" xlink:href="#DejaVuSans-23"/>
      <use x="442.96875" xlink:href="#DejaVuSans-31"/>
      <use x="506.591796875" xlink:href="#DejaVuSans-30"/>
     </g>
    </g>
    <g id="line2d_49">
     <path d="
M492.376 99.761
L512.536 99.761" style="fill:none;stroke:#00bfbf;stroke-linecap:square;"/>
    </g>
    <g id="line2d_50"/>
    <g id="text_20">
     <!-- locality#11 -->
     <g transform="translate(528.375625 104.801)scale(0.144 -0.144)">
      <use xlink:href="#DejaVuSans-6c"/>
      <use x="27.783203125" xlink:href="#DejaVuSans-6f"/>
      <use x="88.96484375" xlink:href="#DejaVuSans-63"/>
      <use x="143.9453125" xlink:href="#DejaVuSans-61"/>
      <use x="205.224609375" xlink:href="#DejaVuSans-6c"/>
      <use x="233.0078125" xlink:href="#DejaVuSans-69"/>
      <use x="260.791015625" xlink:href="#DejaVuSans-74"/>
      <use x="300.0" xlink:href="#DejaVuSans-79"/>
      <use x="359.1796875" xlink:href="#DejaVuSans-23"/>
      <use x="442.96875" xlink:href="#DejaVuSans-31"/>
      <use x="506.591796875" xlink:href="#DejaVuSans-31"/>
     </g>
    </g>
    <g id="line2d_51">
     <path d="
M492.376 120.897
L512.536 120.897" style="fill:none;stroke:#bf00bf;stroke-linecap:square;"/>
    </g>
    <g id="line2d_52"/>
    <g id="text_21">
     <!-- locality#12 -->
     <g transform="translate(528.375625 125.9375)scale(0.144 -0.144)">
      <use xlink:href="#DejaVuSans-6c"/>
      <use x="27.783203125" xlink:href="#DejaVuSans-6f"/>
      <use x="88.96484375" xlink:href="#DejaVuSans-63"/>
      <use x="143.9453125" xlink:href="#DejaVuSans-61"/>
      <use x="205.224609375" xlink:href="#DejaVuSans-6c"/>
      <use x="233.0078125" xlink:href="#DejaVuSans-69"/>
      <use x="260.791015625" xlink:href="#DejaVuSans-74"/>
      <use x="300.0" xlink:href="#DejaVuSans-79"/>
      <use x="359.1796875" xlink:href="#DejaVuSans-23"/>
      <use x="442.96875" xlink:href="#DejaVuSans-31"/>
      <use x="506.591796875" xlink:href="#DejaVuSans-32"/>
     </g>
    </g>
    <g id="line2d_53">
     <path d="
M492.376 142.034
L512.536 142.034" style="fill:none;stroke:#bfbf00;stroke-linecap:square;"/>
    </g>
    <g id="line2d_54"/>
    <g id="text_22">
     <!-- locality#13 -->
     <g transform="translate(528.375625 147.074)scale(0.144 -0.144)">
      <use xlink:href="#DejaVuSans-6c"/>
      <use x="27.783203125" xlink:href="#DejaVuSans-6f"/>
      <use x="88.96484375" xlink:href="#DejaVuSans-63"/>
      <use x="143.9453125" xlink:href="#DejaVuSans-61"/>
      <use x="205.224609375" xlink:href="#DejaVuSans-6c"/>
      <use x="233.0078125" xlink:href="#DejaVuSans-69"/>
      <use x="260.791015625" xlink:href="#DejaVuSans-74"/>
      <use x="300.0" xlink:href="#DejaVuSans-79"/>
      <use x="359.1796875" xlink:href="#DejaVuSans-23"/>
      <use x="442.96875" xlink:href="#DejaVuSans-31"/>
      <use x="506.591796875" xlink:href="#DejaVuSans-33"/>
     </g>
    </g>
    <g id="line2d_55">
     <path d="
M492.376 163.17
L512.536 163.17" style="fill:none;stroke:#000000;stroke-linecap:square;"/>
    </g>
    <g id="line2d_56"/>
    <g id="text_23">
     <!-- locality#14 -->
     <g transform="translate(528.375625 168.2105)scale(0.144 -0.144)">
      <use xlink:href="#DejaVuSans-6c"/>
      <use x="27.783203125" xlink:href="#DejaVuSans-6f"/>
      <use x="88.96484375" xlink:href="#DejaVuSans-63"/>
      <use x="143.9453125" xlink:href="#DejaVuSans-61"/>
      <use x="205.224609375" xlink:href="#DejaVuSans-6c"/>
      <use x="233.0078125" xlink:href="#DejaVuSans-69"/>
      <use x="260.791015625" xlink:href="#DejaVuSans-74"/>
      <use x="300.0" xlink:href="#DejaVuSans-79"/>
      <use x="359.1796875" xlink:href="#DejaVuSans-23"/>
      <use x="442.96875" xlink:href="#DejaVuSans-31"/>
      <use x="506.591796875" xlink:href="#DejaVuSans-34"/>
     </g>
    </g>
    <g id="line2d_57">
     <path d="
M492.376 184.307
L512.536 184.307" style="fill:none;stroke:#0000ff;stroke-linecap:square;"/>
    </g>
    <g id="line2d_58"/>
    <g id="text_24">
     <!-- locality#15 -->
     <g transform="translate(528.375625 189.347)scale(0.144 -0.144)">
      <use xlink:href="#DejaVuSans-6c"/>
      <use x="27.783203125" xlink:href="#DejaVuSans-6f"/>
      <use x="88.96484375" xlink:href="#DejaVuSans-63"/>
      <use x="143.9453125" xlink:href="#DejaVuSans-61"/>
      <use x="205.224609375" xlink:href="#DejaVuSans-6c"/>
      <use x="233.0078125" xlink:href="#DejaVuSans-69"/>
      <use x="260.791015625" xlink:href="#DejaVuSans-74"/>
      <use x="300.0" xlink:href="#DejaVuSans-79"/>
      <use x="359.1796875" xlink:href="#DejaVuSans-23"/>
      <use x="442.96875" xlink:href="#DejaVuSans-31"/>
      <use x="506.591796875" xlink:href="#DejaVuSans-35"/>
     </g>
    </g>
    <g id="line2d_59">
     <path d="
M492.376 205.443
L512.536 205.443" style="fill:none;stroke:#008000;stroke-linecap:square;"/>
    </g>
    <g id="line2d_60"/>
    <g id="text_25">
     <!-- locality#2 -->
     <g transform="translate(528.375625 210.4835)scale(0.144 -0.144)">
      <use xlink:href="#DejaVuSans-6c"/>
      <use x="27.783203125" xlink:href="#DejaVuSans-6f"/>
      <use x="88.96484375" xlink:href="#DejaVuSans-63"/>
      <use x="143.9453125" xlink:href="#DejaVuSans-61"/>
      <use x="205.224609375" xlink:href="#DejaVuSans-6c"/>
      <use x="233.0078125" xlink:href="#DejaVuSans-69"/>
      <use x="260.791015625" xlink:href="#DejaVuSans-74"/>
      <use x="300.0" xlink:href="#DejaVuSans-79"/>
      <use x="359.1796875" xlink:href="#DejaVuSans-23"/>
      <use x="442.96875" xlink:href="#DejaVuSans-32"/>
     </g>
    </g>
    <g id="line2d_61">
     <path d="
M492.376 226.58
L512.536 226.58" style="fill:none;stroke:#ff0000;stroke-linecap:square;"/>
    </g>
    <g id="line2d_62"/>
    <g id="text_26">
     <!-- locality#3 -->
     <g transform="translate(528.375625 231.62)scale(0.144 -0.144)">
      <use xlink:href="#DejaVuSans-6c"/>
      <use x="27.783203125" xlink:href="#DejaVuSans-6f"/>
      <use x="88.96484375" xlink:href="#DejaVuSans-63"/>
      <use x="143.9453125" xlink:href="#DejaVuSans-61"/>
      <use x="205.224609375" xlink:href="#DejaVuSans-6c"/>
      <use x="233.0078125" xlink:href="#DejaVuSans-69"/>
      <use x="260.791015625" xlink:href="#DejaVuSans-74"/>
      <use x="300.0" xlink:href="#DejaVuSans-79"/>
      <use x="359.1796875" xlink:href="#DejaVuSans-23"/>
      <use x="442.96875" xlink:href="#DejaVuSans-33"/>
     </g>
    </g>
    <g id="line2d_63">
     <path d="
M492.376 247.716
L512.536 247.716" style="fill:none;stroke:#00bfbf;stroke-linecap:square;"/>
    </g>
    <g id="line2d_64"/>
    <g id="text_27">
     <!-- locality#4 -->
     <g transform="translate(528.375625 252.7565)scale(0.144 -0.144)">
      <use xlink:href="#DejaVuSans-6c"/>
      <use x="27.783203125" xlink:href="#DejaVuSans-6f"/>
      <use x="88.96484375" xlink:href="#DejaVuSans-63"/>
      <use x="143.9453125" xlink:href="#DejaVuSans-61"/>
      <use x="205.224609375" xlink:href="#DejaVuSans-6c"/>
      <use x="233.0078125" xlink:href="#DejaVuSans-69"/>
      <use x="260.791015625" xlink:href="#DejaVuSans-74"/>
      <use x="300.0" xlink:href="#DejaVuSans-79"/>
      <use x="359.1796875" xlink:href="#DejaVuSans-23"/>
      <use x="442.96875" xlink:href="#DejaVuSans-34"/>
     </g>
    </g>
    <g id="line2d_65">
     <path d="
M492.376 268.853
L512.536 268.853" style="fill:none;stroke:#bf00bf;stroke-linecap:square;"/>
    </g>
    <g id="line2d_66"/>
    <g id="text_28">
     <!-- locality#5 -->
     <g transform="translate(528.375625 273.893)scale(0.144 -0.144)">
      <use xlink:href="#DejaVuSans-6c"/>
      <use x="27.783203125" xlink:href="#DejaVuSans-6f"/>
      <use x="88.96484375" xlink:href="#DejaVuSans-63"/>
      <use x="143.9453125" xlink:href="#DejaVuSans-61"/>
      <use x="205.224609375" xlink:href="#DejaVuSans-6c"/>
      <use x="233.0078125" xlink:href="#DejaVuSans-69"/>
      <use x="260.791015625" xlink:href="#DejaVuSans-74"/>
      <use x="300.0" xlink:href="#DejaVuSans-79"/>
      <use x="359.1796875" xlink:href="#DejaVuSans-23"/>
      <use x="442.96875" xlink:href="#DejaVuSans-35"/>
     </g>
    </g>
    <g id="line2d_67">
     <path d="
M492.376 289.989
L512.536 289.989" style="fill:none;stroke:#bfbf00;stroke-linecap:square;"/>
    </g>
    <g id="line2d_68"/>
    <g id="text_29">
     <!-- locality#6 -->
     <defs>
      <path d="
M33.0156 40.375
Q26.375 40.375 22.4844 35.8281
Q18.6094 31.2969 18.6094 23.3906
Q18.6094 15.5312 22.4844 10.9531
Q26.375 6.39062 33.0156 6.39062
Q39.6562 6.39062 43.5312 10.9531
Q47.4062 15.5312 47.4062 23.3906
Q47.4062 31.2969 43.5312 35.8281
Q39.6562 40.375 33.0156 40.375
M52.5938 71.2969
L52.5938 62.3125
Q48.875 64.0625 45.0938 64.9844
Q41.3125 65.9219 37.5938 65.9219
Q27.8281 65.9219 22.6719 59.3281
Q17.5312 52.7344 16.7969 39.4062
Q19.6719 43.6562 24.0156 45.9219
Q28.375 48.1875 33.5938 48.1875
Q44.5781 48.1875 50.9531 41.5156
Q57.3281 34.8594 57.3281 23.3906
Q57.3281 12.1562 50.6875 5.35938
Q44.0469 -1.42188 33.0156 -1.42188
Q20.3594 -1.42188 13.6719 8.26562
Q6.98438 17.9688 6.98438 36.375
Q6.98438 53.6562 15.1875 63.9375
Q23.3906 74.2188 37.2031 74.2188
Q40.9219 74.2188 44.7031 73.4844
Q48.4844 72.75 52.5938 71.2969" id="DejaVuSans-36"/>
     </defs>
     <g transform="translate(528.375625 295.0295)scale(0.144 -0.144)">
      <use xlink:href="#DejaVuSans-6c"/>
      <use x="27.783203125" xlink:href="#DejaVuSans-6f"/>
      <use x="88.96484375" xlink:href="#DejaVuSans-63"/>
      <use x="143.9453125" xlink:href="#DejaVuSans-61"/>
      <use x="205.224609375" xlink:href="#DejaVuSans-6c"/>
      <use x="233.0078125" xlink:href="#DejaVuSans-69"/>
      <use x="260.791015625" xlink:href="#DejaVuSans-74"/>
      <use x="300.0" xlink:href="#DejaVuSans-79"/>
      <use x="359.1796875" xlink:href="#DejaVuSans-23"/>
      <use x="442.96875" xlink:href="#DejaVuSans-36"/>
     </g>
    </g>
    <g id="line2d_69">
     <path d="
M492.376 311.126
L512.536 311.126" style="fill:none;stroke:#000000;stroke-linecap:square;"/>
    </g>
    <g id="line2d_70"/>
    <g id="text_30">
     <!-- locality#7 -->
     <defs>
      <path d="
M8.20312 72.9062
L55.0781 72.9062
L55.0781 68.7031
L28.6094 0
L18.3125 0
L43.2188 64.5938
L8.20312 64.5938
z
" id="DejaVuSans-37"/>
     </defs>
     <g transform="translate(528.375625 316.166)scale(0.144 -0.144)">
      <use xlink:href="#DejaVuSans-6c"/>
      <use x="27.783203125" xlink:href="#DejaVuSans-6f"/>
      <use x="88.96484375" xlink:href="#DejaVuSans-63"/>
      <use x="143.9453125" xlink:href="#DejaVuSans-61"/>
      <use x="205.224609375" xlink:href="#DejaVuSans-6c"/>
      <use x="233.0078125" xlink:href="#DejaVuSans-69"/>
      <use x="260.791015625" xlink:href="#DejaVuSans-74"/>
      <use x="300.0" xlink:href="#DejaVuSans-79"/>
      <use x="359.1796875" xlink:href="#DejaVuSans-23"/>
      <use x="442.96875" xlink:href="#DejaVuSans-37"/>
     </g>
    </g>
    <g id="line2d_71">
     <path d="
M492.376 332.262
L512.536 332.262" style="fill:none;stroke:#0000ff;stroke-linecap:square;"/>
    </g>
    <g id="line2d_72"/>
    <g id="text_31">
     <!-- locality#8 -->
     <defs>
      <path d="
M31.7812 34.625
Q24.75 34.625 20.7188 30.8594
Q16.7031 27.0938 16.7031 20.5156
Q16.7031 13.9219 20.7188 10.1562
Q24.75 6.39062 31.7812 6.39062
Q38.8125 6.39062 42.8594 10.1719
Q46.9219 13.9688 46.9219 20.5156
Q46.9219 27.0938 42.8906 30.8594
Q38.875 34.625 31.7812 34.625
M21.9219 38.8125
Q15.5781 40.375 12.0312 44.7188
Q8.5 49.0781 8.5 55.3281
Q8.5 64.0625 14.7188 69.1406
Q20.9531 74.2188 31.7812 74.2188
Q42.6719 74.2188 48.875 69.1406
Q55.0781 64.0625 55.0781 55.3281
Q55.0781 49.0781 51.5312 44.7188
Q48 40.375 41.7031 38.8125
Q48.8281 37.1562 52.7969 32.3125
Q56.7812 27.4844 56.7812 20.5156
Q56.7812 9.90625 50.3125 4.23438
Q43.8438 -1.42188 31.7812 -1.42188
Q19.7344 -1.42188 13.25 4.23438
Q6.78125 9.90625 6.78125 20.5156
Q6.78125 27.4844 10.7812 32.3125
Q14.7969 37.1562 21.9219 38.8125
M18.3125 54.3906
Q18.3125 48.7344 21.8438 45.5625
Q25.3906 42.3906 31.7812 42.3906
Q38.1406 42.3906 41.7188 45.5625
Q45.3125 48.7344 45.3125 54.3906
Q45.3125 60.0625 41.7188 63.2344
Q38.1406 66.4062 31.7812 66.4062
Q25.3906 66.4062 21.8438 63.2344
Q18.3125 60.0625 18.3125 54.3906" id="DejaVuSans-38"/>
     </defs>
     <g transform="translate(528.375625 337.3025)scale(0.144 -0.144)">
      <use xlink:href="#DejaVuSans-6c"/>
      <use x="27.783203125" xlink:href="#DejaVuSans-6f"/>
      <use x="88.96484375" xlink:href="#DejaVuSans-63"/>
      <use x="143.9453125" xlink:href="#DejaVuSans-61"/>
      <use x="205.224609375" xlink:href="#DejaVuSans-6c"/>
      <use x="233.0078125" xlink:href="#DejaVuSans-69"/>
      <use x="260.791015625" xlink:href="#DejaVuSans-74"/>
      <use x="300.0" xlink:href="#DejaVuSans-79"/>
      <use x="359.1796875" xlink:href="#DejaVuSans-23"/>
      <use x="442.96875" xlink:href="#DejaVuSans-38"/>
     </g>
    </g>
    <g id="line2d_73">
     <path d="
M492.376 353.399
L512.536 353.399" style="fill:none;stroke:#008000;stroke-linecap:square;"/>
    </g>
    <g id="line2d_74"/>
    <g id="text_32">
     <!-- locality#9 -->
     <g transform="translate(528.375625 358.439)scale(0.144 -0.144)">
      <use xlink:href="#DejaVuSans-6c"/>
      <use x="27.783203125" xlink:href="#DejaVuSans-6f"/>
      <use x="88.96484375" xlink:href="#DejaVuSans-63"/>
      <use x="143.9453125" xlink:href="#DejaVuSans-61"/>
      <use x="205.224609375" xlink:href="#DejaVuSans-6c"/>
      <use x="233.0078125" xlink:href="#DejaVuSans-69"/>
      <use x="260.791015625" xlink:href="#DejaVuSans-74"/>
      <use x="300.0" xlink:href="#DejaVuSans-79"/>
      <use x="359.1796875" xlink:href="#DejaVuSans-23"/>
      <use x="442.96875" xlink:href="#DejaVuSans-39"/>
     </g>
    </g>
   </g>
  </g>
 </g>
 <defs>
  <clipPath id="p2118423672">
   <rect height="345.6" width="446.4" x="28.695625" y="23.14175"/>
  </clipPath>
 </defs>
</svg>
