<?xml version="1.0" encoding="utf-8" standalone="no"?>
<!DOCTYPE svg PUBLIC "-//W3C//DTD SVG 1.1//EN"
  "http://www.w3.org/Graphics/SVG/1.1/DTD/svg11.dtd">
<!-- Created with matplotlib (http://matplotlib.org/) -->
<svg height="408pt" version="1.1" viewBox="0 0 621 408" width="621pt" xmlns="http://www.w3.org/2000/svg" xmlns:xlink="http://www.w3.org/1999/xlink">
 <defs>
  <style type="text/css">
*{stroke-linecap:butt;stroke-linejoin:round;}
  </style>
 </defs>
 <g id="figure_1">
  <g id="patch_1">
   <path d="
M0 408.169
L621.285 408.169
L621.285 0
L0 0
z
" style="fill:#ffffff;"/>
  </g>
  <g id="axes_1">
   <g id="patch_2">
    <path d="
M28.6956 368.742
L475.096 368.742
L475.096 23.1417
L28.6956 23.1417
z
" style="fill:#ffffff;"/>
   </g>
   <g id="line2d_1">
    <path clip-path="url(#p2118423672)" d="
M28.6956 367.784
L29.5902 367.323
L30.4848 366.925
L38.5361 363.352
L39.4307 362.522
L41.2199 361.676
L45.6928 359.093
L48.3766 357.933
L49.2712 356.624
L51.0604 355.866
L51.9549 355.234
L53.7441 354.317
L58.2171 351.983
L60.9008 350.659
L61.7954 350.146
L62.69 349.347
L63.5846 348.957
L65.3738 347.866
L68.9521 346.134
L70.7413 345.291
L86.8439 337.301
L88.6331 336.236
L89.5277 335.67
L92.2115 334.402
L94.0006 333.494
L97.579 331.766
L98.4736 331.402
L101.157 329.616
L102.947 328.663
L119.049 320.363
L119.944 319.65
L140.519 309.098
L141.414 308.481
L144.992 306.743
L145.887 306.032
L146.781 305.541
L147.676 304.845
L151.254 302.827
L163.779 296.793
L164.673 295.915
L179.881 288.271
L180.776 287.462
L181.67 287.029
L183.46 285.854
L185.249 285.033
L187.038 284.006
L188.827 283.175
L192.405 281.394
L193.3 280.806
L197.773 278.743
L199.562 277.734
L203.141 275.886
L204.035 275.28
L206.719 274.024
L221.032 266.86
L222.821 266.017
L227.294 263.765
L246.975 253.762
L266.656 243.882
L271.129 241.335
L272.024 240.388
L276.497 238.083
L286.337 233.306
L287.232 232.632
L293.494 229.505
L295.283 228.506
L297.072 227.625
L298.862 226.693
L301.545 225.33
L306.018 223.182
L307.807 222.353
L314.07 219.245
L323.91 214.412
L325.699 213.393
L328.383 212.027
L329.278 211.353
L331.961 210.009
L332.856 209.221
L333.751 208.609
L336.434 207.243
L342.696 203.969
L344.486 202.966
L347.169 201.677
L348.959 200.847
L350.748 199.702
L369.534 190.183
L370.429 189.67
L374.007 188.03
L374.902 187.457
L377.585 186.067
L378.48 185.478
L382.953 183.135
L383.848 182.581
L385.637 181.731
L387.426 180.722
L391.899 178.468
L393.688 177.628
L394.583 176.807
L398.161 174.913
L402.634 172.73
L436.628 155.707
L437.523 155.168
L440.207 153.94
L446.469 150.974
L447.363 150.541
L448.258 149.959
L456.309 146.061
L458.098 145.166
L467.044 140.665
L467.939 140.037
L468.834 139.649
L474.201 136.546
L475.096 136.088
L475.096 136.088" style="fill:none;stroke:#0000ff;stroke-linecap:square;"/>
   </g>
   <g id="line2d_2">
    <path clip-path="url(#p2118423672)" d="
M28.6956 368.687
L29.5902 367.623
L32.274 366.79
L33.1686 366.028
L34.0632 365.434
L36.7469 364.626
L38.5361 363.987
L40.3253 363.458
L42.1145 362.411
L48.3766 360.471
L56.4279 357.702
L57.3225 357.442
L58.2171 356.898
L63.5846 355.223
L65.3738 354.625
L68.0575 353.698
L69.8467 353.081
L71.6359 352.216
L74.3197 351.334
L76.1089 350.816
L77.898 350.083
L81.4764 348.914
L83.2656 348.27
L94.0006 344.357
L97.579 342.832
L100.263 341.844
L105.63 339.866
L106.525 339.374
L115.471 336.135
L118.155 334.911
L122.627 333.197
L138.73 327.432
L141.414 326.543
L144.098 325.252
L144.992 324.897
L145.887 324.271
L147.676 323.696
L148.571 323.236
L153.938 321.323
L154.833 320.725
L157.516 319.701
L158.411 319.149
L160.2 318.574
L162.884 317.594
L163.779 317.109
L166.462 316.139
L168.252 315.367
L169.146 315.091
L170.041 314.645
L173.619 313.423
L174.514 312.946
L178.092 311.767
L178.987 311.33
L180.776 310.746
L187.038 308.338
L187.932 307.787
L190.616 306.798
L193.3 305.65
L195.089 305.062
L196.878 304.331
L197.773 304.076
L199.562 303.228
L211.192 298.952
L212.086 298.332
L226.4 292.582
L238.029 288.291
L238.924 287.865
L239.819 287.604
L240.713 287.119
L241.608 286.795
L242.502 286.036
L244.292 285.429
L245.186 284.838
L246.975 284.228
L248.765 283.224
L250.554 282.573
L251.448 281.956
L255.921 280.221
L256.816 279.654
L258.605 279.075
L263.078 277.597
L263.973 276.954
L267.551 275.497
L269.34 274.739
L271.129 274.022
L279.181 271.208
L280.075 270.905
L280.97 270.184
L281.864 269.869
L282.759 269.328
L289.021 267.006
L291.705 265.937
L292.599 265.486
L293.494 265.215
L294.389 264.657
L296.178 264.001
L297.072 263.508
L314.07 257.34
L316.753 256.148
L318.543 255.36
L319.437 254.859
L320.332 254.6
L321.226 254.045
L323.91 253.136
L325.699 252.56
L326.594 252.008
L331.067 250.346
L333.751 249
L336.434 248.118
L340.013 246.843
L341.802 246.239
L347.169 244.34
L351.642 242.815
L354.326 241.976
L355.221 241.526
L360.588 239.649
L364.167 238.106
L366.85 237.095
L368.64 236.008
L373.112 234.334
L374.007 233.761
L375.796 233.128
L376.691 232.634
L380.269 231.208
L381.164 230.712
L382.058 230.408
L383.848 229.607
L385.637 228.992
L388.32 228.056
L389.215 227.564
L391.004 226.92
L391.899 226.435
L392.793 226.168
L395.477 224.864
L412.474 218.775
L413.369 218.375
L416.053 217.514
L416.947 216.958
L418.737 216.371
L419.631 215.88
L432.155 211.274
L434.839 210.099
L435.734 209.781
L439.312 208.05
L442.89 206.872
L443.785 206.071
L450.047 203.797
L451.836 203.151
L458.993 200.488
L459.888 200.034
L462.571 199.189
L466.15 197.833
L467.044 197.308
L472.412 195.393
L473.306 194.869
L475.096 194.225
L475.096 194.225" style="fill:none;stroke:#008000;stroke-linecap:square;"/>
   </g>
   <g id="line2d_3">
    <path clip-path="url(#p2118423672)" d="
M28.6956 368.706
L29.5902 367.139
L34.0632 364.646
L38.5361 362.29
L41.2199 360.663
L45.6928 358.278
L51.9549 354.674
L55.5333 352.698
L56.4279 351.992
L60.0062 350.018
L60.9008 349.312
L62.69 348.288
L67.163 345.898
L68.9521 344.84
L71.6359 343.319
L72.5305 342.849
L73.4251 340.677
L74.3197 340.195
L75.2143 339.373
L83.2656 334.315
L85.9493 332.224
L86.8439 331.76
L87.7385 331.142
L89.5277 330.09
L92.2115 328.097
L94.0006 327.025
L94.8952 326.442
L97.579 324.396
L99.3682 323.329
L101.157 322.042
L103.841 320.193
L119.049 310.347
L121.733 308.434
L125.311 306.057
L127.1 304.769
L127.995 304.105
L128.89 303.058
L129.784 302.375
L131.573 301.259
L133.363 300.079
L134.257 299.209
L141.414 294.454
L143.203 293.209
L153.044 286.748
L154.833 285.362
L157.516 283.553
L158.411 282.703
L159.306 282.22
L161.095 280.98
L161.989 280.483
L162.884 279.697
L165.568 277.92
L166.462 277.358
L167.357 276.454
L168.252 275.784
L169.146 275.313
L170.041 274.639
L170.935 273.69
L172.724 272.52
L173.619 272.054
L174.514 271.295
L176.303 270.174
L177.197 269.448
L180.776 267.232
L181.67 266.432
L182.565 259.265
L183.46 258.257
L186.143 256.536
L187.038 255.74
L188.827 254.648
L191.511 252.776
L192.405 251.997
L196.878 249.225
L197.773 248.754
L204.035 244.642
L204.93 244.158
L206.719 242.89
L209.403 241.099
L211.192 239.98
L212.981 238.885
L223.716 231.801
L225.505 230.466
L226.4 229.909
L227.294 229.208
L228.189 228.727
L229.084 227.835
L229.978 227.372
L231.767 226.118
L233.557 224.863
L235.346 223.579
L239.819 220.587
L240.713 219.83
L249.659 214.073
L255.027 210.574
L259.5 207.109
L261.289 206.127
L262.183 205.178
L270.235 199.859
L271.129 198.939
L272.024 198.219
L276.497 195.586
L278.286 194.387
L281.864 192.166
L282.759 191.204
L287.232 188.239
L291.705 185.012
L295.283 182.589
L297.072 181.24
L299.756 179.551
L301.545 178.488
L302.44 177.666
L304.229 176.599
L307.807 174.455
L308.702 173.069
L313.175 169.889
L318.543 166.311
L320.332 164.983
L323.91 162.695
L325.699 161.636
L329.278 159.453
L331.961 157.851
L332.856 156.995
L334.645 155.743
L339.118 152.825
L340.013 152.124
L340.907 151.643
L343.591 149.609
L348.064 146.713
L349.853 145.769
L350.748 144.892
L353.431 143.21
L355.221 142.159
L356.115 141.298
L357.01 140.64
L358.799 139.547
L364.167 135.839
L367.745 133.47
L369.534 132.152
L371.323 131.06
L374.902 128.758
L376.691 127.317
L379.375 125.506
L380.269 125.04
L386.531 120.7
L387.426 120.005
L388.32 119.477
L390.11 118.24
L393.688 115.908
L394.583 115.413
L396.372 114.094
L399.95 111.696
L400.845 110.96
L416.947 100.634
L418.737 99.5594
L427.682 93.6414
L430.366 91.8208
L447.363 80.7519
L449.153 79.6487
L450.942 78.3797
L451.836 77.8903
L453.625 76.3489
L454.52 75.8775
L455.415 74.7689
L458.098 73.1238
L458.993 72.2584
L460.782 71.205
L461.677 70.7378
L465.255 68.3753
L467.044 67.3343
L467.939 66.7081
L468.834 66.2422
L469.728 65.6312
L470.623 65.1626
L475.096 62.0577
L475.096 62.0577" style="fill:none;stroke:#ff0000;stroke-linecap:square;"/>
   </g>
   <g id="line2d_4">
    <path clip-path="url(#p2118423672)" d="
M28.6956 368.685
L29.5902 367.977
L30.4848 366.93
L33.1686 365.557
L34.9577 364.534
L39.4307 362.114
L43.0091 359.986
L43.9036 359.373
L46.5874 357.855
L50.1658 355.742
L51.0604 355.286
L54.6387 352.86
L55.5333 352.032
L56.4279 351.564
L58.2171 350.175
L67.163 345.267
L71.6359 342.531
L75.2143 340.677
L85.0547 334.36
L87.7385 332.689
L90.4223 331.191
L94.0006 328.988
L94.8952 328.223
L95.7898 327.764
L97.579 326.52
L99.3682 325.462
L100.263 324.882
L101.157 324.01
L103.841 322.415
L105.63 320.949
L107.419 319.751
L109.209 318.729
L110.998 317.695
L111.892 317.132
L113.682 315.752
L115.471 314.722
L116.365 313.941
L119.944 311.722
L120.838 310.995
L125.311 308.096
L128.89 305.835
L129.784 304.886
L132.468 303.189
L136.941 300.035
L140.519 297.783
L141.414 297.312
L143.203 296.116
L145.887 294.481
L147.676 293.036
L152.149 289.719
L160.2 284.311
L161.095 283.509
L163.779 281.956
L165.568 280.72
L166.462 280.176
L167.357 279.254
L168.252 278.655
L169.146 278.192
L176.303 273.547
L178.092 272.513
L179.881 271.259
L191.511 263.795
L193.3 262.574
L195.984 261.079
L197.773 259.982
L203.141 256.513
L204.035 255.826
L204.93 255.362
L212.086 250.553
L213.876 249.523
L218.349 246.585
L219.243 245.824
L224.611 242.317
L235.346 235.366
L236.24 234.785
L238.029 233.274
L251.448 224.741
L252.343 224.081
L253.238 223.261
L255.027 222.218
L256.816 220.698
L257.71 220.236
L259.5 219.116
L262.183 217.594
L263.973 216.477
L264.867 215.953
L265.762 215.006
L266.656 214.541
L270.235 212.117
L272.918 210.349
L276.497 208.049
L280.97 205.233
L282.759 203.596
L287.232 200.768
L290.81 197.985
L291.705 197.422
L292.599 196.69
L294.389 195.667
L297.072 193.886
L300.651 191.255
L315.859 181.684
L316.753 181.096
L319.437 178.924
L323.91 175.721
L324.805 175.244
L326.594 174.006
L327.488 173.548
L328.383 172.699
L330.172 171.647
L331.067 170.949
L332.856 169.86
L333.751 169.23
L334.645 168.768
L335.54 168.132
L336.434 167.644
L338.223 166.256
L339.118 165.793
L340.013 165.04
L340.907 164.579
L341.802 163.971
L343.591 162.47
L345.38 161.147
L346.275 160.259
L347.169 159.721
L348.064 158.957
L360.588 151.316
L363.272 149.535
L365.061 148.502
L370.429 145.165
L373.112 143.625
L377.585 140.409
L378.48 139.876
L379.375 139.186
L380.269 138.726
L382.953 136.937
L383.848 135.97
L389.215 132.485
L390.11 131.597
L393.688 129.121
L394.583 128.627
L395.477 127.849
L397.266 126.657
L399.95 124.91
L404.423 122.158
L405.318 121.422
L406.212 120.955
L407.107 120.221
L408.896 119.169
L409.791 118.606
L410.685 117.713
L413.369 115.98
L414.264 115.525
L415.158 114.923
L416.053 114.473
L419.631 112.072
L421.42 110.841
L424.104 109.106
L426.788 107.409
L427.682 106.697
L428.577 105.798
L432.155 103.367
L435.734 101.095
L437.523 99.8387
L441.996 97.2577
L442.89 96.6827
L443.785 95.7247
L445.574 94.6505
L446.469 93.987
L447.363 93.4631
L449.153 92.1235
L450.942 90.9568
L452.731 89.9131
L453.625 88.6703
L457.204 86.4584
L461.677 83.5056
L463.466 82.1481
L464.361 81.573
L465.255 80.6634
L467.044 79.3861
L475.096 74.0942
L475.096 74.0942" style="fill:none;stroke:#00bfbf;stroke-linecap:square;"/>
   </g>
   <g id="line2d_5">
    <path clip-path="url(#p2118423672)" d="
M28.6956 368.702
L29.5902 367.564
L32.274 366.249
L34.0632 365.347
L35.8523 364.445
L39.4307 362.792
L40.3253 362.233
L52.8495 356.563
L59.1117 353.68
L60.0062 353.084
L64.4792 350.952
L65.3738 350.429
L66.2684 349.758
L67.163 349.358
L68.0575 348.793
L70.7413 347.526
L72.5305 346.626
L76.1089 344.982
L77.898 343.782
L80.5818 342.453
L82.371 341.423
L84.1602 340.515
L85.9493 339.476
L88.6331 338.168
L92.2115 336.191
L94.0006 335.238
L97.579 333.297
L99.3682 332.381
L102.947 330.16
L104.736 329.134
L105.63 328.729
L107.419 327.603
L109.209 326.696
L110.998 325.787
L112.787 324.486
L123.522 318.474
L125.311 317.518
L127.1 316.406
L135.152 311.756
L136.941 310.843
L140.519 308.849
L141.414 308.446
L144.098 306.893
L148.571 304.585
L151.254 303.135
L152.149 302.494
L159.306 298.529
L160.2 297.795
L161.095 297.284
L161.989 296.477
L166.462 294.029
L172.724 290.587
L174.514 289.68
L176.303 288.586
L178.092 287.659
L178.987 287.038
L181.67 285.569
L188.827 281.665
L189.722 280.965
L193.3 278.872
L197.773 276.634
L200.457 275.056
L202.246 274.043
L204.93 272.674
L205.824 272.003
L212.981 267.94
L213.876 267.356
L214.77 266.63
L215.665 266.199
L218.349 264.623
L219.243 264.102
L220.138 263.358
L224.611 260.71
L225.505 259.863
L228.189 258.366
L229.084 257.737
L230.873 256.814
L231.767 256.147
L238.924 252.166
L240.713 251.252
L245.186 248.624
L246.081 248.223
L246.975 247.512
L256.816 242.037
L258.605 241.125
L260.394 240.169
L261.289 239.766
L262.183 239.097
L263.973 238.128
L267.551 236.248
L271.129 234.098
L272.918 233.191
L277.391 230.852
L278.286 230.238
L280.97 228.911
L289.021 224.412
L292.599 222.303
L294.389 221.396
L299.756 218.447
L301.545 217.539
L304.229 216.103
L306.913 214.715
L328.383 202.966
L330.172 202.057
L331.961 201.068
L335.54 199.141
L339.118 197.319
L348.959 191.897
L349.853 191.492
L351.642 190.389
L354.326 189.08
L359.694 186.146
L361.483 185.225
L368.64 181.273
L369.534 180.564
L372.218 179.153
L373.112 178.743
L374.007 178.036
L376.691 176.465
L378.48 175.397
L381.164 173.951
L389.215 169.357
L391.004 168.256
L397.266 164.861
L399.95 163.429
L401.739 162.34
L402.634 161.936
L404.423 160.993
L411.58 157.029
L412.474 156.617
L413.369 156.08
L416.053 154.771
L421.42 151.686
L424.104 149.963
L427.682 147.887
L428.577 147.153
L447.363 136.678
L449.153 135.748
L453.625 133.171
L455.415 132.261
L456.309 131.696
L458.098 130.755
L460.782 129.306
L462.571 128.388
L463.466 127.875
L464.361 127.198
L467.939 125.13
L470.623 123.819
L472.412 122.782
L473.306 122.043
L475.096 121.013
L475.096 121.013" style="fill:none;stroke:#bf00bf;stroke-linecap:square;"/>
   </g>
   <g id="line2d_6">
    <path clip-path="url(#p2118423672)" d="
M28.6956 368.705
L29.5902 368.175
L30.4848 367.713
L36.7469 364.893
L37.6415 364.165
L43.9036 361.213
L51.9549 357.685
L52.8495 357.165
L54.6387 356.295
L58.2171 354.658
L59.1117 353.993
L62.69 352.429
L67.163 350.445
L69.8467 348.703
L71.6359 347.843
L73.4251 346.976
L76.1089 345.802
L77.898 344.75
L83.2656 341.783
L84.1602 341.136
L89.5277 338.336
L91.3169 337.481
L94.8952 335.671
L96.6844 334.789
L104.736 330.512
L105.63 330.112
L106.525 329.473
L108.314 328.616
L109.209 327.672
L112.787 325.774
L117.26 323.487
L118.155 323.1
L119.944 322.109
L123.522 320.282
L124.417 319.881
L127.995 317.88
L133.363 315.113
L134.257 314.352
L137.836 312.535
L139.625 311.673
L140.519 311.11
L142.308 310.228
L151.254 305.589
L152.149 304.682
L153.044 304.203
L153.938 303.438
L155.727 302.426
L156.622 302.035
L161.095 299.368
L161.989 298.757
L166.462 296.454
L168.252 295.37
L170.935 293.93
L172.724 292.792
L174.514 291.917
L178.092 290.176
L178.987 289.58
L179.881 289.176
L180.776 288.457
L182.565 287.43
L185.249 286.028
L189.722 283.625
L196.878 279.87
L198.668 278.993
L204.035 276.2
L204.93 275.816
L206.719 274.688
L210.297 272.76
L212.086 271.681
L213.876 270.813
L215.665 269.853
L220.138 267.408
L221.032 266.851
L222.821 265.991
L224.611 264.72
L225.505 264.07
L229.978 261.913
L231.767 260.796
L242.502 255.095
L246.081 253.305
L247.87 252.178
L248.765 251.768
L249.659 251.142
L252.343 249.726
L253.238 249.132
L255.027 248.271
L270.235 240.151
L271.129 239.549
L272.024 238.786
L275.602 237.154
L285.443 231.92
L288.126 230.373
L294.389 227.064
L299.756 224.282
L300.651 223.905
L301.545 223.294
L304.229 221.943
L307.807 220.181
L312.28 217.764
L314.964 216.523
L316.753 215.472
L329.278 208.711
L331.961 207.425
L333.751 206.376
L334.645 205.901
L335.54 204.922
L336.434 204.318
L340.907 202.074
L342.696 200.851
L345.38 199.359
L347.169 198.505
L348.064 197.888
L349.853 197.113
L355.221 194.315
L357.01 193.452
L359.694 191.905
L361.483 191.04
L365.956 188.706
L367.745 187.831
L372.218 185.48
L374.007 184.589
L375.796 183.616
L379.375 181.559
L380.269 181.176
L382.058 180.181
L390.11 175.914
L391.899 174.826
L393.688 173.967
L395.477 173.089
L400.845 170.239
L401.739 169.718
L404.423 168.475
L418.737 160.829
L419.631 160.174
L430.366 154.428
L431.261 153.814
L445.574 146.509
L446.469 145.704
L448.258 144.877
L450.047 143.798
L452.731 142.191
L460.782 138.029
L462.571 137.15
L465.255 135.583
L467.044 134.701
L467.939 134.157
L468.834 133.777
L469.728 133.164
L470.623 132.779
L472.412 131.684
L475.096 130.246
L475.096 130.246" style="fill:none;stroke:#bfbf00;stroke-linecap:square;"/>
   </g>
   <g id="line2d_7">
    <path clip-path="url(#p2118423672)" d="
M28.6956 368.696
L29.5902 368.06
L30.4848 367.535
L48.3766 360.659
L49.2712 360.235
L50.1658 359.578
L51.0604 359.246
L52.8495 358.386
L60.0062 355.573
L61.7954 354.893
L62.69 354.403
L68.0575 352.283
L68.9521 351.94
L69.8467 351.44
L72.5305 350.333
L73.4251 349.445
L75.2143 348.657
L77.0034 347.884
L77.898 347.371
L78.7926 347.025
L79.6872 346.333
L86.8439 342.901
L87.7385 342.175
L90.4223 341.058
L99.3682 336.966
L100.263 336.331
L107.419 332.997
L108.314 332.66
L109.209 332.118
L112.787 330.508
L117.26 328.451
L119.049 327.654
L123.522 325.595
L125.311 324.643
L133.363 320.741
L135.152 319.77
L136.941 319.005
L140.519 317.38
L142.308 316.585
L154.833 310.733
L156.622 309.916
L168.252 304.438
L169.146 303.859
L176.303 300.499
L178.092 299.728
L180.776 298.418
L181.67 297.829
L192.405 292.79
L193.3 292.307
L195.984 291.193
L196.878 290.555
L198.668 289.789
L206.719 285.99
L207.613 285.39
L210.297 284.148
L213.876 282.482
L214.77 281.909
L216.559 281.054
L221.032 278.807
L221.927 278.439
L222.821 277.648
L224.611 276.682
L225.505 276.142
L231.767 273.394
L238.924 270.077
L239.819 269.731
L243.397 267.675
L246.081 266.272
L260.394 259.492
L262.183 258.727
L267.551 256.124
L270.235 254.574
L274.708 252.569
L276.497 251.763
L280.97 249.719
L310.491 235.877
L312.28 234.825
L314.964 233.62
L318.543 231.902
L319.437 231.278
L320.332 230.933
L321.226 230.337
L323.015 229.541
L323.91 228.723
L327.488 227.195
L331.067 225.579
L331.961 225.218
L333.751 224.159
L344.486 219.127
L345.38 218.308
L350.748 215.967
L351.642 215.36
L354.326 214.232
L355.221 213.805
L356.115 213.088
L359.694 211.365
L362.377 210.124
L369.534 206.593
L370.429 206.015
L372.218 205.208
L377.585 202.292
L381.164 200.607
L382.058 200.039
L382.953 199.286
L391.004 195.418
L391.899 194.87
L392.793 194.533
L393.688 194.016
L396.372 192.827
L397.266 192.407
L399.95 190.821
L407.107 187.651
L410.685 186.117
L413.369 184.917
L414.264 184.574
L415.158 184.107
L417.842 182.969
L418.737 182.539
L419.631 181.866
L426.788 178.376
L429.472 176.876
L433.05 175.138
L433.945 174.625
L435.734 173.855
L437.523 172.897
L441.101 171.302
L442.89 170.53
L443.785 169.917
L446.469 168.72
L447.363 168.324
L449.153 167.358
L456.309 163.953
L458.098 163.177
L466.15 159.329
L467.939 158.205
L468.834 157.859
L469.728 157.298
L471.517 156.527
L473.306 155.671
L475.096 154.572
L475.096 154.572" style="fill:none;stroke:#000000;stroke-linecap:square;"/>
   </g>
   <g id="line2d_8">
    <path clip-path="url(#p2118423672)" d="
M28.6956 368.704
L29.5902 368.308
L30.4848 367.977
L59.1117 358.029
L60.0062 356.81
L60.9008 356.35
L68.0575 353.864
L69.8467 353.184
L73.4251 351.879
L75.2143 351.191
L77.0034 350.49
L77.898 350.047
L78.7926 349.743
L80.5818 348.957
L83.2656 347.917
L84.1602 347.201
L85.9493 346.427
L87.7385 345.747
L88.6331 345.212
L109.209 336.757
L110.103 335.703
L111.892 334.99
L112.787 333.925
L127.1 327.914
L127.995 327.341
L131.573 325.797
L140.519 322.063
L142.308 321.363
L144.098 320.457
L151.254 317.671
L153.044 316.815
L162.884 312.929
L166.462 311.498
L168.252 310.624
L170.041 309.887
L171.83 309.04
L176.303 307.212
L178.092 306.542
L187.932 302.327
L191.511 300.869
L193.3 300.055
L195.089 299.38
L196.878 298.607
L198.668 297.936
L208.508 293.802
L210.297 292.921
L223.716 287.417
L225.505 286.589
L231.767 284.184
L234.451 282.948
L236.24 282.268
L238.029 281.427
L238.924 280.983
L240.713 280.313
L243.397 279.171
L245.186 278.325
L246.975 277.66
L250.554 276.075
L253.238 274.948
L255.027 274.278
L260.394 272.086
L261.289 271.568
L270.235 267.786
L272.024 266.956
L275.602 265.677
L280.075 263.807
L283.654 262.353
L285.443 261.571
L286.337 261.245
L288.126 260.37
L290.81 259.185
L291.705 258.837
L292.599 258.367
L295.283 257.323
L299.756 255.436
L301.545 254.759
L306.018 252.995
L307.807 252.269
L311.386 250.779
L316.753 248.469
L317.648 247.955
L330.172 242.935
L331.067 242.362
L332.856 241.683
L337.329 239.846
L338.223 239.346
L340.907 238.358
L343.591 237.179
L355.221 232.427
L357.904 231.43
L360.588 230.38
L362.377 229.527
L363.272 228.861
L365.061 228.177
L369.534 226.346
L370.429 225.752
L375.796 223.619
L377.585 222.825
L379.375 221.968
L381.164 221.285
L384.742 219.871
L385.637 219.354
L391.004 217.198
L392.793 216.475
L401.739 212.81
L404.423 211.837
L409.791 209.679
L411.58 209.005
L419.631 205.605
L424.999 203.36
L426.788 202.66
L429.472 201.52
L431.261 200.667
L445.574 194.919
L446.469 194.568
L447.363 194.084
L449.153 193.398
L451.836 192.334
L452.731 191.959
L453.625 191.325
L455.415 190.655
L459.888 188.869
L461.677 188.272
L463.466 187.418
L475.096 182.617
L475.096 182.617" style="fill:none;stroke:#0000ff;stroke-linecap:square;"/>
   </g>
   <g id="line2d_9">
    <path clip-path="url(#p2118423672)" d="
M28.6956 368.703
L31.3794 367.836
L34.0632 367.052
L34.9577 365.436
L36.7469 364.867
L38.5361 364.214
L42.1145 363.124
L44.7982 362.148
L45.6928 361.898
L46.5874 361.492
L63.5846 356.681
L64.4792 356.144
L67.163 355.27
L69.8467 354.302
L70.7413 354.044
L71.6359 353.558
L77.0034 352.004
L81.4764 350.447
L82.371 349.823
L87.7385 347.941
L90.4223 347.131
L92.2115 346.428
L94.8952 345.56
L96.6844 344.975
L97.579 344.55
L100.263 343.677
L102.052 343.031
L106.525 341.486
L107.419 341.074
L110.103 340.237
L115.471 338.48
L117.26 337.768
L119.049 337.163
L121.733 336.231
L140.519 329.684
L142.308 329.099
L143.203 328.803
L144.992 327.809
L146.781 327.234
L150.36 325.537
L165.568 320.183
L167.357 319.502
L169.146 318.881
L170.041 318.439
L171.83 317.834
L172.724 317.396
L175.408 316.553
L178.092 315.711
L178.987 315.123
L180.776 314.544
L181.67 314.069
L184.354 313.055
L187.038 312.125
L189.722 311.261
L198.668 307.8
L200.457 306.775
L201.351 306.462
L202.246 306.02
L204.93 305.142
L206.719 304.436
L224.611 298.258
L227.294 297.337
L230.873 296.188
L231.767 295.739
L234.451 294.736
L238.924 292.839
L240.713 292.271
L241.608 291.8
L244.292 290.868
L260.394 285.15
L261.289 284.658
L272.024 280.998
L276.497 279.619
L280.075 278.25
L285.443 276.244
L289.021 275.055
L290.81 274.388
L291.705 274.099
L292.599 273.624
L294.389 273.029
L299.756 271.067
L302.44 270.101
L305.124 269.258
L308.702 268.018
L310.491 267.4
L313.175 265.96
L323.91 262.14
L324.805 261.699
L343.591 255.548
L344.486 255.23
L345.38 254.749
L350.748 252.968
L351.642 252.483
L354.326 251.664
L355.221 251.274
L357.904 250.457
L359.694 249.764
L361.483 249.204
L366.85 247.281
L372.218 245.18
L373.112 244.916
L374.007 244.402
L375.796 243.784
L379.375 242.412
L381.164 241.841
L385.637 240.284
L387.426 239.542
L388.32 239.256
L390.11 238.461
L395.477 236.586
L400.845 234.685
L403.528 233.817
L404.423 233.568
L405.318 233.125
L408.001 232.282
L409.791 231.568
L410.685 231.325
L415.158 229.487
L416.053 229.235
L418.737 227.918
L428.577 224.351
L430.366 223.609
L433.05 222.683
L433.945 222.253
L436.628 221.375
L437.523 220.931
L444.68 218.612
L458.098 214.236
L459.888 213.497
L462.571 212.694
L464.361 212.014
L469.728 210.276
L471.517 209.722
L475.096 208.464
L475.096 208.464" style="fill:none;stroke:#008000;stroke-linecap:square;"/>
   </g>
   <g id="line2d_10">
    <path clip-path="url(#p2118423672)" d="
M28.6956 368.708
L29.5902 368.4
L30.4848 367.751
L43.0091 363.863
L43.9036 363.29
L60.0062 358.306
L62.69 357.454
L63.5846 356.74
L70.7413 354.371
L73.4251 353.469
L74.3197 353.197
L75.2143 352.781
L77.0034 352.152
L78.7926 351.358
L90.4223 346.847
L93.106 345.735
L102.947 341.854
L104.736 341.13
L105.63 340.847
L107.419 339.92
L109.209 339.296
L112.787 337.924
L113.682 337.502
L115.471 336.877
L120.838 334.766
L121.733 334.473
L123.522 333.679
L125.311 333.014
L127.1 332.297
L128.89 331.25
L130.679 330.573
L150.36 322.935
L159.306 319.423
L163.779 317.667
L164.673 317.144
L168.252 315.695
L170.041 315.063
L171.83 314.355
L172.724 313.528
L174.514 312.896
L175.408 312.442
L178.092 311.436
L181.67 310.087
L184.354 309.132
L185.249 308.595
L187.932 307.617
L189.722 306.704
L191.511 305.898
L192.405 305.28
L196.878 303.416
L198.668 302.788
L204.93 300.257
L207.613 299.163
L212.086 297.497
L213.876 296.867
L214.77 296.396
L217.454 295.36
L220.138 294.121
L222.821 293.011
L223.716 292.223
L226.4 291.134
L228.189 290.511
L229.084 289.89
L230.873 289.218
L237.135 286.741
L238.924 285.796
L240.713 285.167
L242.502 284.502
L243.397 283.916
L245.186 283.156
L246.081 282.881
L246.975 282.447
L247.87 281.822
L250.554 280.859
L251.448 280.291
L254.132 279.078
L255.921 278.255
L268.446 273.297
L270.235 272.487
L273.813 271.035
L275.602 270.283
L276.497 269.212
L285.443 265.643
L286.337 265.091
L288.126 264.404
L289.916 263.602
L292.599 262.528
L295.283 261.557
L297.072 260.782
L302.44 258.814
L305.124 257.869
L309.597 256.207
L311.386 255.536
L312.28 255.046
L314.964 254.143
L317.648 252.904
L318.543 251.453
L321.226 250.482
L322.121 249.869
L324.805 248.934
L328.383 247.527
L329.278 247.027
L331.961 246.039
L334.645 244.93
L335.54 244.452
L340.907 242.495
L342.696 241.446
L343.591 241.106
L344.486 240.562
L347.169 239.507
L348.064 239.037
L350.748 238.129
L351.642 237.718
L352.537 237.442
L353.431 237.026
L356.115 236.128
L363.272 233.317
L365.061 232.671
L366.85 231.984
L370.429 230.564
L373.112 229.646
L377.585 227.872
L381.164 226.491
L385.637 224.708
L395.477 220.683
L399.056 218.867
L399.95 218.508
L401.739 217.51
L402.634 217.235
L404.423 216.403
L410.685 214.075
L411.58 213.491
L414.264 212.551
L423.209 209.076
L424.999 208.278
L426.788 207.631
L432.155 205.572
L433.945 204.814
L435.734 204.182
L454.52 196.687
L456.309 195.841
L459.888 194.338
L461.677 193.782
L462.571 193.351
L463.466 192.71
L465.255 191.861
L467.044 191.225
L473.306 188.69
L475.096 187.935
L475.096 187.935" style="fill:none;stroke:#ff0000;stroke-linecap:square;"/>
   </g>
   <g id="line2d_11">
    <path clip-path="url(#p2118423672)" d="
M28.6956 368.703
L29.5902 368.138
L34.0632 366.533
L34.9577 365.397
L36.7469 364.567
L60.9008 355.772
L62.69 355.058
L64.4792 354.332
L75.2143 350.007
L77.0034 349.137
L79.6872 348.035
L81.4764 347.344
L85.9493 345.494
L91.3169 343.367
L102.052 338.829
L102.947 338.171
L105.63 337.105
L106.525 335.504
L110.103 334.045
L112.787 332.922
L114.576 332.203
L117.26 330.96
L118.155 330.468
L119.049 329.804
L119.944 329.451
L120.838 328.965
L122.627 328.27
L132.468 324.074
L133.363 323.505
L142.308 319.582
L143.203 318.618
L158.411 312.172
L160.2 311.482
L171.83 306.404
L172.724 305.663
L175.408 304.593
L179.881 302.784
L183.46 301.159
L186.143 299.928
L187.932 299.215
L188.827 298.579
L192.405 296.917
L193.3 296.424
L194.195 296.108
L195.089 295.516
L199.562 293.641
L204.035 291.782
L205.824 291.048
L207.613 290.202
L212.086 288.272
L213.876 287.568
L214.77 287.098
L217.454 286.001
L227.294 281.652
L229.978 280.62
L236.24 277.863
L237.135 277.261
L238.029 276.869
L239.819 275.917
L251.448 270.929
L252.343 270.355
L260.394 266.98
L262.183 266.278
L272.024 262.082
L273.813 261.417
L274.708 260.96
L276.497 260.262
L277.391 259.845
L278.286 259.128
L279.181 258.809
L280.075 258.28
L282.759 257.148
L284.548 256.345
L286.337 255.567
L291.705 253.256
L309.597 245.564
L310.491 245.022
L314.07 243.573
L315.859 242.878
L316.753 242.464
L317.648 241.882
L326.594 238.278
L328.383 237.579
L333.751 235.321
L334.645 234.739
L336.434 233.985
L337.329 233.343
L339.118 232.583
L340.907 231.66
L353.431 226.418
L356.115 225.415
L362.377 222.723
L363.272 222.214
L365.061 221.522
L365.956 221.016
L367.745 220.316
L374.007 217.692
L382.058 214.314
L385.637 212.714
L388.32 211.563
L390.11 210.722
L408.001 203.306
L409.791 202.245
L410.685 201.937
L416.053 199.459
L416.947 199.036
L417.842 198.42
L422.315 196.491
L423.209 195.951
L435.734 190.552
L441.101 188.344
L443.785 187.245
L445.574 186.385
L447.363 185.618
L449.153 184.75
L454.52 182.531
L455.415 181.879
L456.309 181.438
L458.098 180.739
L460.782 179.672
L462.571 178.978
L466.15 177.409
L467.939 176.54
L470.623 175.544
L471.517 175.16
L472.412 174.516
L473.306 174.134
L474.201 173.592
L475.096 173.233
L475.096 173.233" style="fill:none;stroke:#00bfbf;stroke-linecap:square;"/>
   </g>
   <g id="line2d_12">
    <path clip-path="url(#p2118423672)" d="
M28.6956 368.707
L29.5902 367.867
L30.4848 367.491
L31.3794 366.953
L34.9577 365.422
L35.8523 364.903
L43.9036 361.757
L44.7982 361.168
L70.7413 350.958
L72.5305 350.207
L76.1089 348.841
L78.7926 347.493
L79.6872 346.79
L81.4764 345.794
L82.371 345.378
L83.2656 344.806
L87.7385 342.778
L90.4223 341.659
L91.3169 340.973
L92.2115 340.563
L93.106 339.958
L94.8952 339.118
L95.7898 338.513
L102.947 335.055
L106.525 333.296
L107.419 332.719
L109.209 331.927
L110.998 331.077
L111.892 330.42
L120.838 326.242
L122.627 325.476
L124.417 324.586
L126.206 323.627
L132.468 320.655
L135.152 319.292
L136.046 318.934
L137.836 318.004
L138.73 317.636
L139.625 317.091
L147.676 313.347
L148.571 312.704
L151.254 311.48
L162.884 305.861
L163.779 305.48
L164.673 304.824
L168.252 303.125
L170.041 302.337
L176.303 299.266
L177.197 298.503
L185.249 294.678
L188.827 292.677
L189.722 292.183
L190.616 291.492
L194.195 289.728
L195.089 289.172
L197.773 288.05
L198.668 287.379
L204.93 284.287
L205.824 283.693
L225.505 274.398
L237.135 268.567
L241.608 266.537
L244.292 265.313
L245.186 264.779
L246.081 264.436
L246.975 263.836
L257.71 258.799
L258.605 258.101
L265.762 254.778
L266.656 254.028
L269.34 252.704
L270.235 251.992
L273.813 250.403
L277.391 248.803
L279.181 247.802
L280.97 247.007
L281.864 246.402
L288.126 243.29
L289.916 242.281
L298.862 238.061
L300.651 237.342
L304.229 235.274
L306.018 234.399
L306.913 234.045
L308.702 232.982
L310.491 232.139
L311.386 231.562
L315.859 229.443
L316.753 228.767
L321.226 226.587
L322.121 225.916
L323.015 225.571
L324.805 224.678
L331.961 221.471
L333.751 220.247
L336.434 219.097
L347.169 214.17
L348.064 213.681
L348.959 213.335
L349.853 212.561
L351.642 211.69
L354.326 210.577
L355.221 210.012
L357.904 208.887
L365.956 205.016
L366.85 204.663
L371.323 202.356
L374.902 200.7
L375.796 199.897
L382.058 196.786
L383.848 195.757
L385.637 194.97
L390.11 192.878
L391.004 192.442
L392.793 191.29
L408.001 183.962
L408.896 183.383
L413.369 181.351
L416.053 180.247
L430.366 173.145
L433.945 171.527
L435.734 170.735
L437.523 169.772
L438.417 169.214
L448.258 164.794
L452.731 162.428
L454.52 161.483
L456.309 160.597
L458.098 159.788
L458.993 159.366
L459.888 158.795
L461.677 158.111
L464.361 156.777
L471.517 153.284
L472.412 152.633
L475.096 151.355
L475.096 151.355" style="fill:none;stroke:#bf00bf;stroke-linecap:square;"/>
   </g>
   <g id="line2d_13">
    <path clip-path="url(#p2118423672)" d="
M28.6956 368.672
L29.5902 366.912
L31.3794 365.976
L37.6415 363.078
L39.4307 362.154
L67.163 349.735
L71.6359 347.437
L74.3197 346.244
L75.2143 345.577
L76.1089 345.192
L77.898 344.061
L80.5818 342.755
L97.579 333.6
L98.4736 333.194
L101.157 331.629
L102.947 330.738
L107.419 328.11
L108.314 327.721
L109.209 327.113
L111.892 325.766
L112.787 325.294
L113.682 324.678
L115.471 323.819
L117.26 322.752
L118.155 322.362
L120.838 320.824
L122.627 319.958
L131.573 315.123
L136.046 312.39
L136.941 311.928
L137.836 311.173
L145.887 306.601
L146.781 306.173
L148.571 305.074
L150.36 304.184
L152.149 303.085
L165.568 295.839
L166.462 294.797
L173.619 290.855
L174.514 290.186
L178.092 288.419
L182.565 285.958
L185.249 284.572
L186.143 283.897
L193.3 280.134
L195.984 278.85
L201.351 276.036
L203.141 275.156
L204.035 274.475
L204.93 274.084
L206.719 273.022
L213.876 269.35
L214.77 268.465
L217.454 267.109
L222.821 264.169
L223.716 263.474
L226.4 261.913
L229.084 260.087
L230.873 259.214
L231.767 258.478
L241.608 253.204
L243.397 252.324
L244.292 251.572
L246.081 250.494
L255.921 244.937
L260.394 242.601
L261.289 242.218
L265.762 239.43
L267.551 238.554
L274.708 234.701
L276.497 233.832
L289.021 227.029
L291.705 224.99
L298.862 221.07
L304.229 218.411
L306.018 217.441
L307.807 216.544
L308.702 215.747
L328.383 205.182
L329.278 204.513
L331.067 203.6
L332.856 202.364
L334.645 201.083
L335.54 200.428
L339.118 198.653
L343.591 196.333
L344.486 195.638
L348.064 193.794
L352.537 191.602
L353.431 191.076
L356.115 189.816
L359.694 187.932
L361.483 187.036
L366.85 184.212
L369.534 182.696
L371.323 181.678
L382.058 175.951
L382.953 175.179
L383.848 174.698
L385.637 173.407
L388.32 172.025
L389.215 171.406
L390.11 170.568
L391.004 170.096
L391.899 169.488
L394.583 168.203
L400.845 164.831
L401.739 164.101
L402.634 163.554
L403.528 162.714
L404.423 162.059
L406.212 161.083
L407.107 160.418
L411.58 157.929
L414.264 156.675
L416.053 155.811
L416.947 155.032
L418.737 154.159
L421.42 152.606
L422.315 152.046
L424.104 151.162
L424.999 150.423
L425.893 150.035
L426.788 149.525
L427.682 148.879
L434.839 144.891
L438.417 142.848
L449.153 137.342
L464.361 129.462
L465.255 128.888
L467.044 128.013
L469.728 126.675
L471.517 125.793
L475.096 123.823
L475.096 123.823" style="fill:none;stroke:#bfbf00;stroke-linecap:square;"/>
   </g>
   <g id="line2d_14">
    <path clip-path="url(#p2118423672)" d="
M28.6956 368.704
L29.5902 367.919
L31.3794 366.973
L32.274 366.55
L33.1686 365.892
L36.7469 364.176
L37.6415 363.323
L42.1145 360.869
L43.0091 359.901
L46.5874 358.052
L48.3766 357.116
L49.2712 356.689
L51.0604 355.414
L51.9549 354.524
L58.2171 351.437
L59.1117 350.727
L67.163 346.807
L68.9521 345.836
L70.7413 344.891
L72.5305 343.949
L75.2143 342.665
L94.0006 331.796
L94.8952 331.176
L96.6844 330.223
L107.419 323.671
L109.209 322.713
L110.998 321.735
L114.576 319.643
L115.471 318.862
L120.838 315.684
L122.627 314.703
L125.311 313.041
L127.1 311.86
L134.257 307.643
L136.941 305.939
L140.519 303.702
L141.414 303.259
L145.887 300.317
L149.465 298.336
L153.044 296.211
L157.516 293.652
L158.411 292.905
L160.2 291.95
L161.989 290.937
L166.462 288.387
L168.252 287.199
L170.041 286.221
L177.197 282.06
L178.092 281.302
L180.776 279.606
L181.67 278.757
L182.565 278.151
L183.46 277.338
L184.354 276.904
L193.3 271.32
L195.984 269.899
L197.773 268.928
L198.668 268.151
L202.246 266.062
L204.93 264.575
L207.613 262.48
L219.243 255.38
L221.032 254.227
L222.821 253.264
L224.611 251.961
L225.505 251.207
L226.4 250.711
L227.294 249.712
L229.978 248.301
L232.662 246.612
L238.924 242.889
L240.713 241.926
L245.186 239.363
L246.081 238.933
L247.87 237.696
L257.71 231.887
L258.605 231.118
L260.394 230.064
L262.183 229.104
L263.973 228.081
L267.551 226.077
L270.235 224.383
L272.918 222.904
L274.708 221.939
L275.602 221.374
L278.286 219.282
L282.759 216.627
L285.443 214.651
L287.232 213.679
L289.021 212.486
L290.81 211.147
L292.599 210.062
L294.389 209.099
L296.178 207.858
L299.756 205.795
L300.651 205.37
L301.545 204.677
L304.229 203.186
L307.807 201.12
L310.491 199.441
L312.28 198.354
L313.175 197.928
L314.07 197.277
L314.964 196.84
L315.859 196.15
L316.753 195.614
L318.543 194.362
L321.226 192.735
L322.121 192.02
L323.91 191.038
L324.805 190.517
L325.699 189.794
L364.167 167.312
L365.061 166.577
L366.85 165.565
L367.745 164.65
L372.218 161.976
L373.112 161.527
L374.902 160.362
L386.531 153.245
L387.426 152.598
L389.215 151.563
L390.11 150.827
L393.688 148.585
L398.161 145.875
L399.95 144.808
L401.739 143.578
L404.423 142.183
L405.318 141.499
L407.107 140.545
L408.896 139.431
L411.58 137.951
L414.264 136.534
L415.158 135.901
L417.842 134.509
L419.631 133.275
L425.893 129.584
L426.788 128.796
L430.366 126.356
L431.261 125.471
L432.155 125.012
L433.945 123.832
L435.734 122.818
L441.101 119.705
L442.89 118.732
L443.785 118.016
L445.574 117.059
L447.363 116.027
L448.258 115.54
L449.153 114.726
L453.625 112.048
L454.52 111.242
L458.098 108.979
L459.888 107.898
L461.677 107.031
L462.571 106.3
L465.255 104.644
L475.096 98.0568
L475.096 98.0568" style="fill:none;stroke:#000000;stroke-linecap:square;"/>
   </g>
   <g id="line2d_15">
    <path clip-path="url(#p2118423672)" d="
M28.6956 368.691
L29.5902 367.058
L31.3794 365.955
L32.274 365.502
L33.1686 364.892
L37.6415 362.476
L38.5361 361.714
L44.7982 358.465
L45.6928 357.621
L46.5874 356.933
L54.6387 352.661
L56.4279 351.52
L58.2171 350.469
L59.1117 347.698
L60.9008 346.691
L68.0575 342.836
L77.0034 337.88
L90.4223 329.454
L91.3169 328.673
L102.947 321.151
L104.736 319.86
L106.525 318.806
L119.944 309.994
L120.838 309.117
L122.627 307.951
L123.522 307.01
L126.206 305.329
L129.784 302.864
L130.679 302.39
L132.468 301.099
L136.941 298.246
L137.836 297.354
L140.519 295.724
L142.308 294.385
L144.098 293.173
L147.676 291.063
L148.571 290.336
L152.149 288.026
L158.411 283.836
L160.2 282.784
L162.884 281.143
L164.673 280.06
L165.568 279.32
L166.462 278.322
L172.724 274.153
L174.514 273.098
L177.197 271.574
L188.827 263.751
L189.722 262.946
L196.878 258.416
L198.668 257.368
L201.351 255.532
L202.246 255.02
L203.141 254.271
L204.93 253.036
L205.824 251.69
L207.613 250.562
L208.508 249.77
L211.192 248.023
L212.981 246.737
L228.189 236.889
L229.084 235.975
L229.978 235.512
L234.451 232.201
L236.24 231.123
L238.029 229.927
L239.819 228.658
L252.343 220.587
L253.238 219.66
L255.027 218.613
L256.816 217.453
L257.71 216.983
L258.605 216.309
L262.183 214.192
L263.078 213.195
L263.973 212.455
L265.762 211.25
L266.656 210.464
L274.708 205.233
L275.602 204.763
L278.286 202.967
L280.97 201.423
L283.654 199.398
L289.916 195.271
L291.705 194.064
L299.756 188.896
L300.651 188.43
L305.124 185.505
L312.28 180.843
L313.175 180.375
L314.07 179.696
L314.964 179.23
L316.753 178.016
L317.648 177.187
L325.699 171.975
L327.488 170.615
L329.278 169.52
L331.067 168.386
L331.961 167.575
L344.486 159.333
L345.38 158.57
L352.537 154.119
L353.431 153.466
L355.221 152.418
L357.01 151.123
L357.904 150.294
L366.85 144.664
L368.64 143.104
L375.796 138.448
L376.691 137.629
L378.48 136.436
L379.375 135.857
L381.164 134.439
L382.953 133.221
L383.848 132.367
L386.531 130.665
L390.11 128.25
L391.004 127.288
L391.899 126.591
L392.793 126.128
L393.688 125.308
L396.372 123.417
L397.266 122.554
L398.161 121.867
L399.95 120.718
L403.528 118.435
L404.423 117.619
L408.001 115.174
L409.791 113.894
L410.685 113.429
L411.58 112.764
L414.264 111.235
L419.631 107.649
L420.526 106.767
L425.893 103.318
L426.788 102.359
L428.577 101.047
L432.155 98.3236
L437.523 94.8344
L440.207 92.8451
L441.996 91.7323
L443.785 90.3914
L444.68 89.8495
L445.574 89.0034
L450.047 86.2414
L451.836 84.6074
L458.993 79.8575
L459.888 79.0294
L461.677 78.0424
L467.044 74.4827
L468.834 72.8639
L470.623 71.5949
L471.517 70.7903
L473.306 69.6277
L475.096 68.1306
L475.096 68.1306" style="fill:none;stroke:#0000ff;stroke-linecap:square;"/>
   </g>
   <g id="line2d_16">
    <path clip-path="url(#p2118423672)" d="
M28.6956 368.695
L30.4848 365.861
L31.3794 365.35
L32.274 364.318
L41.2199 359.589
L42.1145 358.872
L43.0091 357.931
L47.482 355.54
L49.2712 354.49
L54.6387 351.357
L58.2171 349.324
L65.3738 344.957
L67.163 343.959
L68.0575 343.17
L70.7413 341.624
L72.5305 340.54
L74.3197 339.481
L75.2143 339.002
L76.1089 338.217
L78.7926 336.365
L79.6872 335.394
L80.5818 334.903
L87.7385 330.011
L88.6331 329.528
L89.5277 327.841
L90.4223 327.298
L91.3169 326.463
L94.8952 324.078
L95.7898 323.582
L97.579 321.81
L98.4736 321.291
L99.3682 320.479
L103.841 317.387
L104.736 316.691
L106.525 315.591
L110.103 312.951
L111.892 311.767
L112.787 310.782
L113.682 310.145
L115.471 309.044
L127.1 301.104
L131.573 297.89
L138.73 292.461
L139.625 291.853
L140.519 290.71
L141.414 290.217
L146.781 286.121
L150.36 283.784
L151.254 282.984
L153.938 281.022
L155.727 279.717
L157.516 278.609
L158.411 277.706
L160.2 276.47
L161.095 275.706
L162.884 274.619
L163.779 273.758
L167.357 271.167
L168.252 270.349
L170.041 269.183
L178.092 263.298
L181.67 260.897
L182.565 260.224
L183.46 258.985
L187.038 256.351
L187.932 255.832
L189.722 254.542
L192.405 252.61
L194.195 251.452
L196.878 249.724
L197.773 249.237
L198.668 248.422
L204.035 244.702
L204.93 244.166
L206.719 242.801
L213.876 237.777
L216.559 235.483
L221.032 232.276
L221.927 231.763
L222.821 230.977
L233.557 223.61
L234.451 222.912
L235.346 222.42
L237.135 221.1
L238.924 219.867
L240.713 218.764
L243.397 216.614
L245.186 215.128
L246.081 214.644
L246.975 213.878
L256.816 207.194
L258.605 206.097
L259.5 205.413
L261.289 204.391
L262.183 203.45
L265.762 200.961
L267.551 199.736
L270.235 197.667
L271.129 196.677
L272.024 196.029
L272.918 195.537
L274.708 194.266
L280.075 190.799
L280.97 189.989
L282.759 188.666
L285.443 186.723
L286.337 186.217
L287.232 185.55
L289.021 183.824
L293.494 180.487
L297.072 178.048
L297.967 177.35
L300.651 175.6
L304.229 173.216
L305.124 172.279
L307.807 170.468
L310.491 168.393
L314.964 165.341
L319.437 161.788
L321.226 160.635
L323.015 159.228
L328.383 155.675
L330.172 154.573
L333.751 151.593
L334.645 151.087
L336.434 149.633
L337.329 149.036
L338.223 148.196
L341.802 145.758
L343.591 144.098
L345.38 142.802
L348.959 140.391
L350.748 139.269
L353.431 137.571
L354.326 137.078
L357.01 134.818
L358.799 133.703
L361.483 131.903
L363.272 130.329
L364.167 129.841
L365.956 128.59
L366.85 128.059
L367.745 127.123
L374.007 122.782
L383.848 115.913
L384.742 115.422
L389.215 112.153
L396.372 107.33
L398.161 105.35
L399.056 104.738
L399.95 103.911
L400.845 103.285
L402.634 101.683
L407.107 98.73
L408.001 97.0849
L409.791 95.8173
L410.685 95.2809
L411.58 94.6104
L412.474 94.1197
L413.369 93.4382
L415.158 92.3433
L416.947 91.1945
L419.631 89.3601
L420.526 88.4297
L424.104 85.893
L424.999 85.0968
L425.893 84.6074
L427.682 83.1061
L429.472 81.8965
L430.366 81.0698
L431.261 79.9791
L433.05 78.7709
L438.417 75.2458
L439.312 74.6583
L440.207 73.8731
L442.89 72.0552
L443.785 71.317
L444.68 70.7571
L445.574 70.048
L449.153 67.8223
L458.098 61.7411
L458.993 60.7527
L467.044 55.2466
L467.939 54.4338
L468.834 53.9181
L469.728 53.2656
L470.623 52.7569
L471.517 51.8763
L474.201 49.9603
L475.096 49.3797
L475.096 49.3797" style="fill:none;stroke:#008000;stroke-linecap:square;"/>
   </g>
   <g id="patch_3">
    <path d="
M28.6956 23.1417
L475.096 23.1417" style="fill:none;stroke:#000000;stroke-linecap:square;stroke-linejoin:miter;"/>
   </g>
   <g id="patch_4">
    <path d="
M475.096 368.742
L475.096 23.1417" style="fill:none;stroke:#000000;stroke-linecap:square;stroke-linejoin:miter;"/>
   </g>
   <g id="patch_5">
    <path d="
M28.6956 368.742
L475.096 368.742" style="fill:none;stroke:#000000;stroke-linecap:square;stroke-linejoin:miter;"/>
   </g>
   <g id="patch_6">
    <path d="
M28.6956 368.742
L28.6956 23.1417" style="fill:none;stroke:#000000;stroke-linecap:square;stroke-linejoin:miter;"/>
   </g>
   <g id="matplotlib.axis_1">
    <g id="xtick_1">
     <g id="line2d_17">
      <defs>
       <path d="
M0 0
L0 -4" id="m93b0483c22" style="stroke:#000000;stroke-width:0.5;"/>
      </defs>
      <g>
       <use style="stroke:#000000;stroke-width:0.5;" x="28.695625" xlink:href="#m93b0483c22" y="368.74175"/>
      </g>
     </g>
     <g id="line2d_18">
      <defs>
       <path d="
M0 0
L0 4" id="m741efc42ff" style="stroke:#000000;stroke-width:0.5;"/>
      </defs>
      <g>
       <use style="stroke:#000000;stroke-width:0.5;" x="28.695625" xlink:href="#m741efc42ff" y="23.14175"/>
      </g>
     </g>
     <g id="text_1">
      <!-- 0 -->
      <defs>
       <path d="
M31.7812 66.4062
Q24.1719 66.4062 20.3281 58.9062
Q16.5 51.4219 16.5 36.375
Q16.5 21.3906 20.3281 13.8906
Q24.1719 6.39062 31.7812 6.39062
Q39.4531 6.39062 43.2812 13.8906
Q47.125 21.3906 47.125 36.375
Q47.125 51.4219 43.2812 58.9062
Q39.4531 66.4062 31.7812 66.4062
M31.7812 74.2188
Q44.0469 74.2188 50.5156 64.5156
Q56.9844 54.8281 56.9844 36.375
Q56.9844 17.9688 50.5156 8.26562
Q44.0469 -1.42188 31.7812 -1.42188
Q19.5312 -1.42188 13.0625 8.26562
Q6.59375 17.9688 6.59375 36.375
Q6.59375 54.8281 13.0625 64.5156
Q19.5312 74.2188 31.7812 74.2188" id="DejaVuSans-30"/>
      </defs>
      <g transform="translate(25.6721875 381.859875)scale(0.12 -0.12)">
       <use xlink:href="#DejaVuSans-30"/>
      </g>
     </g>
    </g>
    <g id="xtick_2">
     <g id="line2d_19">
      <g>
       <use style="stroke:#000000;stroke-width:0.5;" x="118.154542836" xlink:href="#m93b0483c22" y="368.74175"/>
      </g>
     </g>
     <g id="line2d_20">
      <g>
       <use style="stroke:#000000;stroke-width:0.5;" x="118.154542836" xlink:href="#m741efc42ff" y="23.14175"/>
      </g>
     </g>
     <g id="text_2">
      <!-- 100 -->
      <defs>
       <path d="
M12.4062 8.29688
L28.5156 8.29688
L28.5156 63.9219
L10.9844 60.4062
L10.9844 69.3906
L28.4219 72.9062
L38.2812 72.9062
L38.2812 8.29688
L54.3906 8.29688
L54.3906 0
L12.4062 0
z
" id="DejaVuSans-31"/>
      </defs>
      <g transform="translate(107.759542836 381.859875)scale(0.12 -0.12)">
       <use xlink:href="#DejaVuSans-31"/>
       <use x="63.623046875" xlink:href="#DejaVuSans-30"/>
       <use x="127.24609375" xlink:href="#DejaVuSans-30"/>
      </g>
     </g>
    </g>
    <g id="xtick_3">
     <g id="line2d_21">
      <g>
       <use style="stroke:#000000;stroke-width:0.5;" x="207.613460671" xlink:href="#m93b0483c22" y="368.74175"/>
      </g>
     </g>
     <g id="line2d_22">
      <g>
       <use style="stroke:#000000;stroke-width:0.5;" x="207.613460671" xlink:href="#m741efc42ff" y="23.14175"/>
      </g>
     </g>
     <g id="text_3">
      <!-- 200 -->
      <defs>
       <path d="
M19.1875 8.29688
L53.6094 8.29688
L53.6094 0
L7.32812 0
L7.32812 8.29688
Q12.9375 14.1094 22.625 23.8906
Q32.3281 33.6875 34.8125 36.5312
Q39.5469 41.8438 41.4219 45.5312
Q43.3125 49.2188 43.3125 52.7812
Q43.3125 58.5938 39.2344 62.25
Q35.1562 65.9219 28.6094 65.9219
Q23.9688 65.9219 18.8125 64.3125
Q13.6719 62.7031 7.8125 59.4219
L7.8125 69.3906
Q13.7656 71.7812 18.9375 73
Q24.125 74.2188 28.4219 74.2188
Q39.75 74.2188 46.4844 68.5469
Q53.2188 62.8906 53.2188 53.4219
Q53.2188 48.9219 51.5312 44.8906
Q49.8594 40.875 45.4062 35.4062
Q44.1875 33.9844 37.6406 27.2188
Q31.1094 20.4531 19.1875 8.29688" id="DejaVuSans-32"/>
      </defs>
      <g transform="translate(196.999085671 381.859875)scale(0.12 -0.12)">
       <use xlink:href="#DejaVuSans-32"/>
       <use x="63.623046875" xlink:href="#DejaVuSans-30"/>
       <use x="127.24609375" xlink:href="#DejaVuSans-30"/>
      </g>
     </g>
    </g>
    <g id="xtick_4">
     <g id="line2d_23">
      <g>
       <use style="stroke:#000000;stroke-width:0.5;" x="297.072378507" xlink:href="#m93b0483c22" y="368.74175"/>
      </g>
     </g>
     <g id="line2d_24">
      <g>
       <use style="stroke:#000000;stroke-width:0.5;" x="297.072378507" xlink:href="#m741efc42ff" y="23.14175"/>
      </g>
     </g>
     <g id="text_4">
      <!-- 300 -->
      <defs>
       <path d="
M40.5781 39.3125
Q47.6562 37.7969 51.625 33
Q55.6094 28.2188 55.6094 21.1875
Q55.6094 10.4062 48.1875 4.48438
Q40.7656 -1.42188 27.0938 -1.42188
Q22.5156 -1.42188 17.6562 -0.515625
Q12.7969 0.390625 7.625 2.20312
L7.625 11.7188
Q11.7188 9.32812 16.5938 8.10938
Q21.4844 6.89062 26.8125 6.89062
Q36.0781 6.89062 40.9375 10.5469
Q45.7969 14.2031 45.7969 21.1875
Q45.7969 27.6406 41.2812 31.2656
Q36.7656 34.9062 28.7188 34.9062
L20.2188 34.9062
L20.2188 43.0156
L29.1094 43.0156
Q36.375 43.0156 40.2344 45.9219
Q44.0938 48.8281 44.0938 54.2969
Q44.0938 59.9062 40.1094 62.9062
Q36.1406 65.9219 28.7188 65.9219
Q24.6562 65.9219 20.0156 65.0312
Q15.375 64.1562 9.8125 62.3125
L9.8125 71.0938
Q15.4375 72.6562 20.3438 73.4375
Q25.25 74.2188 29.5938 74.2188
Q40.8281 74.2188 47.3594 69.1094
Q53.9062 64.0156 53.9062 55.3281
Q53.9062 49.2656 50.4375 45.0938
Q46.9688 40.9219 40.5781 39.3125" id="DejaVuSans-33"/>
      </defs>
      <g transform="translate(286.475816007 381.859875)scale(0.12 -0.12)">
       <use xlink:href="#DejaVuSans-33"/>
       <use x="63.623046875" xlink:href="#DejaVuSans-30"/>
       <use x="127.24609375" xlink:href="#DejaVuSans-30"/>
      </g>
     </g>
    </g>
    <g id="xtick_5">
     <g id="line2d_25">
      <g>
       <use style="stroke:#000000;stroke-width:0.5;" x="386.531296343" xlink:href="#m93b0483c22" y="368.74175"/>
      </g>
     </g>
     <g id="line2d_26">
      <g>
       <use style="stroke:#000000;stroke-width:0.5;" x="386.531296343" xlink:href="#m741efc42ff" y="23.14175"/>
      </g>
     </g>
     <g id="text_5">
      <!-- 400 -->
      <defs>
       <path d="
M37.7969 64.3125
L12.8906 25.3906
L37.7969 25.3906
z

M35.2031 72.9062
L47.6094 72.9062
L47.6094 25.3906
L58.0156 25.3906
L58.0156 17.1875
L47.6094 17.1875
L47.6094 0
L37.7969 0
L37.7969 17.1875
L4.89062 17.1875
L4.89062 26.7031
z
" id="DejaVuSans-34"/>
      </defs>
      <g transform="translate(375.770671343 381.859875)scale(0.12 -0.12)">
       <use xlink:href="#DejaVuSans-34"/>
       <use x="63.623046875" xlink:href="#DejaVuSans-30"/>
       <use x="127.24609375" xlink:href="#DejaVuSans-30"/>
      </g>
     </g>
    </g>
    <g id="text_6">
     <!-- time -->
     <defs>
      <path d="
M18.3125 70.2188
L18.3125 54.6875
L36.8125 54.6875
L36.8125 47.7031
L18.3125 47.7031
L18.3125 18.0156
Q18.3125 11.3281 20.1406 9.42188
Q21.9688 7.51562 27.5938 7.51562
L36.8125 7.51562
L36.8125 0
L27.5938 0
Q17.1875 0 13.2344 3.875
Q9.28125 7.76562 9.28125 18.0156
L9.28125 47.7031
L2.6875 47.7031
L2.6875 54.6875
L9.28125 54.6875
L9.28125 70.2188
z
" id="DejaVuSans-74"/>
      <path d="
M52 44.1875
Q55.375 50.25 60.0625 53.125
Q64.75 56 71.0938 56
Q79.6406 56 84.2812 50.0156
Q88.9219 44.0469 88.9219 33.0156
L88.9219 0
L79.8906 0
L79.8906 32.7188
Q79.8906 40.5781 77.0938 44.375
Q74.3125 48.1875 68.6094 48.1875
Q61.625 48.1875 57.5625 43.5469
Q53.5156 38.9219 53.5156 30.9062
L53.5156 0
L44.4844 0
L44.4844 32.7188
Q44.4844 40.625 41.7031 44.4062
Q38.9219 48.1875 33.1094 48.1875
Q26.2188 48.1875 22.1562 43.5312
Q18.1094 38.875 18.1094 30.9062
L18.1094 0
L9.07812 0
L9.07812 54.6875
L18.1094 54.6875
L18.1094 46.1875
Q21.1875 51.2188 25.4844 53.6094
Q29.7812 56 35.6875 56
Q41.6562 56 45.8281 52.9688
Q50 49.9531 52 44.1875" id="DejaVuSans-6d"/>
      <path d="
M56.2031 29.5938
L56.2031 25.2031
L14.8906 25.2031
Q15.4844 15.9219 20.4844 11.0625
Q25.4844 6.20312 34.4219 6.20312
Q39.5938 6.20312 44.4531 7.46875
Q49.3125 8.73438 54.1094 11.2812
L54.1094 2.78125
Q49.2656 0.734375 44.1875 -0.34375
Q39.1094 -1.42188 33.8906 -1.42188
Q20.7969 -1.42188 13.1562 6.1875
Q5.51562 13.8125 5.51562 26.8125
Q5.51562 40.2344 12.7656 48.1094
Q20.0156 56 32.3281 56
Q43.3594 56 49.7812 48.8906
Q56.2031 41.7969 56.2031 29.5938
M47.2188 32.2344
Q47.125 39.5938 43.0938 43.9844
Q39.0625 48.3906 32.4219 48.3906
Q24.9062 48.3906 20.3906 44.1406
Q15.875 39.8906 15.1875 32.1719
z
" id="DejaVuSans-65"/>
      <path d="
M9.42188 54.6875
L18.4062 54.6875
L18.4062 0
L9.42188 0
z

M9.42188 75.9844
L18.4062 75.9844
L18.4062 64.5938
L9.42188 64.5938
z
" id="DejaVuSans-69"/>
     </defs>
     <g transform="translate(238.82125 398.473625)scale(0.12 -0.12)">
      <use xlink:href="#DejaVuSans-74"/>
      <use x="39.208984375" xlink:href="#DejaVuSans-69"/>
      <use x="66.9921875" xlink:href="#DejaVuSans-6d"/>
      <use x="164.404296875" xlink:href="#DejaVuSans-65"/>
     </g>
    </g>
   </g>
   <g id="matplotlib.axis_2">
    <g id="ytick_1">
     <g id="line2d_27">
      <defs>
       <path d="
M0 0
L4 0" id="m728421d6d4" style="stroke:#000000;stroke-width:0.5;"/>
      </defs>
      <g>
       <use style="stroke:#000000;stroke-width:0.5;" x="28.695625" xlink:href="#m728421d6d4" y="368.74175"/>
      </g>
     </g>
     <g id="line2d_28">
      <defs>
       <path d="
M0 0
L-4 0" id="mcb0005524f" style="stroke:#000000;stroke-width:0.5;"/>
      </defs>
      <g>
       <use style="stroke:#000000;stroke-width:0.5;" x="475.095625" xlink:href="#mcb0005524f" y="368.74175"/>
      </g>
     </g>
     <g id="text_7">
      <!-- 0.0 -->
      <defs>
       <path d="
M10.6875 12.4062
L21 12.4062
L21 0
L10.6875 0
z
" id="DejaVuSans-2e"/>
      </defs>
      <g transform="translate(7.2 372.053)scale(0.12 -0.12)">
       <use xlink:href="#DejaVuSans-30"/>
       <use x="63.623046875" xlink:href="#DejaVuSans-2e"/>
       <use x="95.41015625" xlink:href="#DejaVuSans-30"/>
      </g>
     </g>
    </g>
    <g id="ytick_2">
     <g id="line2d_29">
      <g>
       <use style="stroke:#000000;stroke-width:0.5;" x="28.695625" xlink:href="#m728421d6d4" y="299.62175"/>
      </g>
     </g>
     <g id="line2d_30">
      <g>
       <use style="stroke:#000000;stroke-width:0.5;" x="475.095625" xlink:href="#mcb0005524f" y="299.62175"/>
      </g>
     </g>
     <g id="text_8">
      <!-- 0.5 -->
      <defs>
       <path d="
M10.7969 72.9062
L49.5156 72.9062
L49.5156 64.5938
L19.8281 64.5938
L19.8281 46.7344
Q21.9688 47.4688 24.1094 47.8281
Q26.2656 48.1875 28.4219 48.1875
Q40.625 48.1875 47.75 41.5
Q54.8906 34.8125 54.8906 23.3906
Q54.8906 11.625 47.5625 5.09375
Q40.2344 -1.42188 26.9062 -1.42188
Q22.3125 -1.42188 17.5469 -0.640625
Q12.7969 0.140625 7.71875 1.70312
L7.71875 11.625
Q12.1094 9.23438 16.7969 8.0625
Q21.4844 6.89062 26.7031 6.89062
Q35.1562 6.89062 40.0781 11.3281
Q45.0156 15.7656 45.0156 23.3906
Q45.0156 31 40.0781 35.4375
Q35.1562 39.8906 26.7031 39.8906
Q22.75 39.8906 18.8125 39.0156
Q14.8906 38.1406 10.7969 36.2812
z
" id="DejaVuSans-35"/>
      </defs>
      <g transform="translate(7.45125 302.933)scale(0.12 -0.12)">
       <use xlink:href="#DejaVuSans-30"/>
       <use x="63.623046875" xlink:href="#DejaVuSans-2e"/>
       <use x="95.41015625" xlink:href="#DejaVuSans-35"/>
      </g>
     </g>
    </g>
    <g id="ytick_3">
     <g id="line2d_31">
      <g>
       <use style="stroke:#000000;stroke-width:0.5;" x="28.695625" xlink:href="#m728421d6d4" y="230.50175"/>
      </g>
     </g>
     <g id="line2d_32">
      <g>
       <use style="stroke:#000000;stroke-width:0.5;" x="475.095625" xlink:href="#mcb0005524f" y="230.50175"/>
      </g>
     </g>
     <g id="text_9">
      <!-- 1.0 -->
      <g transform="translate(7.726875 233.813)scale(0.12 -0.12)">
       <use xlink:href="#DejaVuSans-31"/>
       <use x="63.623046875" xlink:href="#DejaVuSans-2e"/>
       <use x="95.41015625" xlink:href="#DejaVuSans-30"/>
      </g>
     </g>
    </g>
    <g id="ytick_4">
     <g id="line2d_33">
      <g>
       <use style="stroke:#000000;stroke-width:0.5;" x="28.695625" xlink:href="#m728421d6d4" y="161.38175"/>
      </g>
     </g>
     <g id="line2d_34">
      <g>
       <use style="stroke:#000000;stroke-width:0.5;" x="475.095625" xlink:href="#mcb0005524f" y="161.38175"/>
      </g>
     </g>
     <g id="text_10">
      <!-- 1.5 -->
      <g transform="translate(7.978125 164.693)scale(0.12 -0.12)">
       <use xlink:href="#DejaVuSans-31"/>
       <use x="63.623046875" xlink:href="#DejaVuSans-2e"/>
       <use x="95.41015625" xlink:href="#DejaVuSans-35"/>
      </g>
     </g>
    </g>
    <g id="ytick_5">
     <g id="line2d_35">
      <g>
       <use style="stroke:#000000;stroke-width:0.5;" x="28.695625" xlink:href="#m728421d6d4" y="92.26175"/>
      </g>
     </g>
     <g id="line2d_36">
      <g>
       <use style="stroke:#000000;stroke-width:0.5;" x="475.095625" xlink:href="#mcb0005524f" y="92.26175"/>
      </g>
     </g>
     <g id="text_11">
      <!-- 2.0 -->
      <g transform="translate(7.288125 95.573)scale(0.12 -0.12)">
       <use xlink:href="#DejaVuSans-32"/>
       <use x="63.623046875" xlink:href="#DejaVuSans-2e"/>
       <use x="95.41015625" xlink:href="#DejaVuSans-30"/>
      </g>
     </g>
    </g>
    <g id="ytick_6">
     <g id="line2d_37">
      <g>
       <use style="stroke:#000000;stroke-width:0.5;" x="28.695625" xlink:href="#m728421d6d4" y="23.14175"/>
      </g>
     </g>
     <g id="line2d_38">
      <g>
       <use style="stroke:#000000;stroke-width:0.5;" x="475.095625" xlink:href="#mcb0005524f" y="23.14175"/>
      </g>
     </g>
     <g id="text_12">
      <!-- 2.5 -->
      <g transform="translate(7.539375 26.453)scale(0.12 -0.12)">
       <use xlink:href="#DejaVuSans-32"/>
       <use x="63.623046875" xlink:href="#DejaVuSans-2e"/>
       <use x="95.41015625" xlink:href="#DejaVuSans-35"/>
      </g>
     </g>
    </g>
    <g id="text_13">
     <!-- 1e11 -->
     <g transform="translate(28.695625 20.14175)scale(0.12 -0.12)">
      <use xlink:href="#DejaVuSans-31"/>
      <use x="63.623046875" xlink:href="#DejaVuSans-65"/>
      <use x="125.146484375" xlink:href="#DejaVuSans-31"/>
      <use x="188.76953125" xlink:href="#DejaVuSans-31"/>
     </g>
    </g>
   </g>
   <g id="text_14">
    <!-- /agas/time/route -->
    <defs>
     <path d="
M25.3906 72.9062
L33.6875 72.9062
L8.29688 -9.28125
L0 -9.28125
z
" id="DejaVuSans-2f"/>
     <path d="
M30.6094 48.3906
Q23.3906 48.3906 19.1875 42.75
Q14.9844 37.1094 14.9844 27.2969
Q14.9844 17.4844 19.1562 11.8438
Q23.3438 6.20312 30.6094 6.20312
Q37.7969 6.20312 41.9844 11.8594
Q46.1875 17.5312 46.1875 27.2969
Q46.1875 37.0156 41.9844 42.7031
Q37.7969 48.3906 30.6094 48.3906
M30.6094 56
Q42.3281 56 49.0156 48.375
Q55.7188 40.7656 55.7188 27.2969
Q55.7188 13.875 49.0156 6.21875
Q42.3281 -1.42188 30.6094 -1.42188
Q18.8438 -1.42188 12.1719 6.21875
Q5.51562 13.875 5.51562 27.2969
Q5.51562 40.7656 12.1719 48.375
Q18.8438 56 30.6094 56" id="DejaVuSans-6f"/>
     <path d="
M8.5 21.5781
L8.5 54.6875
L17.4844 54.6875
L17.4844 21.9219
Q17.4844 14.1562 20.5 10.2656
Q23.5312 6.39062 29.5938 6.39062
Q36.8594 6.39062 41.0781 11.0312
Q45.3125 15.6719 45.3125 23.6875
L45.3125 54.6875
L54.2969 54.6875
L54.2969 0
L45.3125 0
L45.3125 8.40625
Q42.0469 3.42188 37.7188 1
Q33.4062 -1.42188 27.6875 -1.42188
Q18.2656 -1.42188 13.375 4.4375
Q8.5 10.2969 8.5 21.5781
M31.1094 56
z
" id="DejaVuSans-75"/>
     <path d="
M45.4062 27.9844
Q45.4062 37.75 41.375 43.1094
Q37.3594 48.4844 30.0781 48.4844
Q22.8594 48.4844 18.8281 43.1094
Q14.7969 37.75 14.7969 27.9844
Q14.7969 18.2656 18.8281 12.8906
Q22.8594 7.51562 30.0781 7.51562
Q37.3594 7.51562 41.375 12.8906
Q45.4062 18.2656 45.4062 27.9844
M54.3906 6.78125
Q54.3906 -7.17188 48.1875 -13.9844
Q42 -20.7969 29.2031 -20.7969
Q24.4688 -20.7969 20.2656 -20.0938
Q16.0625 -19.3906 12.1094 -17.9219
L12.1094 -9.1875
Q16.0625 -11.3281 19.9219 -12.3438
Q23.7812 -13.375 27.7812 -13.375
Q36.625 -13.375 41.0156 -8.76562
Q45.4062 -4.15625 45.4062 5.17188
L45.4062 9.625
Q42.625 4.78125 38.2812 2.39062
Q33.9375 0 27.875 0
Q17.8281 0 11.6719 7.65625
Q5.51562 15.3281 5.51562 27.9844
Q5.51562 40.6719 11.6719 48.3281
Q17.8281 56 27.875 56
Q33.9375 56 38.2812 53.6094
Q42.625 51.2188 45.4062 46.3906
L45.4062 54.6875
L54.3906 54.6875
z
" id="DejaVuSans-67"/>
     <path d="
M34.2812 27.4844
Q23.3906 27.4844 19.1875 25
Q14.9844 22.5156 14.9844 16.5
Q14.9844 11.7188 18.1406 8.90625
Q21.2969 6.10938 26.7031 6.10938
Q34.1875 6.10938 38.7031 11.4062
Q43.2188 16.7031 43.2188 25.4844
L43.2188 27.4844
z

M52.2031 31.2031
L52.2031 0
L43.2188 0
L43.2188 8.29688
Q40.1406 3.32812 35.5469 0.953125
Q30.9531 -1.42188 24.3125 -1.42188
Q15.9219 -1.42188 10.9531 3.29688
Q6 8.01562 6 15.9219
Q6 25.1406 12.1719 29.8281
Q18.3594 34.5156 30.6094 34.5156
L43.2188 34.5156
L43.2188 35.4062
Q43.2188 41.6094 39.1406 45
Q35.0625 48.3906 27.6875 48.3906
Q23 48.3906 18.5469 47.2656
Q14.1094 46.1406 10.0156 43.8906
L10.0156 52.2031
Q14.9375 54.1094 19.5781 55.0469
Q24.2188 56 28.6094 56
Q40.4844 56 46.3438 49.8438
Q52.2031 43.7031 52.2031 31.2031" id="DejaVuSans-61"/>
     <path d="
M44.2812 53.0781
L44.2812 44.5781
Q40.4844 46.5312 36.375 47.5
Q32.2812 48.4844 27.875 48.4844
Q21.1875 48.4844 17.8438 46.4375
Q14.5 44.3906 14.5 40.2812
Q14.5 37.1562 16.8906 35.375
Q19.2812 33.5938 26.5156 31.9844
L29.5938 31.2969
Q39.1562 29.25 43.1875 25.5156
Q47.2188 21.7812 47.2188 15.0938
Q47.2188 7.46875 41.1875 3.01562
Q35.1562 -1.42188 24.6094 -1.42188
Q20.2188 -1.42188 15.4531 -0.5625
Q10.6875 0.296875 5.42188 2
L5.42188 11.2812
Q10.4062 8.6875 15.2344 7.39062
Q20.0625 6.10938 24.8125 6.10938
Q31.1562 6.10938 34.5625 8.28125
Q37.9844 10.4531 37.9844 14.4062
Q37.9844 18.0625 35.5156 20.0156
Q33.0625 21.9688 24.7031 23.7812
L21.5781 24.5156
Q13.2344 26.2656 9.51562 29.9062
Q5.8125 33.5469 5.8125 39.8906
Q5.8125 47.6094 11.2812 51.7969
Q16.75 56 26.8125 56
Q31.7812 56 36.1719 55.2656
Q40.5781 54.5469 44.2812 53.0781" id="DejaVuSans-73"/>
     <path d="
M41.1094 46.2969
Q39.5938 47.1719 37.8125 47.5781
Q36.0312 48 33.8906 48
Q26.2656 48 22.1875 43.0469
Q18.1094 38.0938 18.1094 28.8125
L18.1094 0
L9.07812 0
L9.07812 54.6875
L18.1094 54.6875
L18.1094 46.1875
Q20.9531 51.1719 25.4844 53.5781
Q30.0312 56 36.5312 56
Q37.4531 56 38.5781 55.875
Q39.7031 55.7656 41.0625 55.5156
z
" id="DejaVuSans-72"/>
    </defs>
    <g transform="translate(192.571 18.14175)scale(0.144 -0.144)">
     <use xlink:href="#DejaVuSans-2f"/>
     <use x="33.69140625" xlink:href="#DejaVuSans-61"/>
     <use x="94.970703125" xlink:href="#DejaVuSans-67"/>
     <use x="158.447265625" xlink:href="#DejaVuSans-61"/>
     <use x="219.7265625" xlink:href="#DejaVuSans-73"/>
     <use x="271.826171875" xlink:href="#DejaVuSans-2f"/>
     <use x="305.517578125" xlink:href="#DejaVuSans-74"/>
     <use x="344.7265625" xlink:href="#DejaVuSans-69"/>
     <use x="372.509765625" xlink:href="#DejaVuSans-6d"/>
     <use x="469.921875" xlink:href="#DejaVuSans-65"/>
     <use x="531.4453125" xlink:href="#DejaVuSans-2f"/>
     <use x="565.13671875" xlink:href="#DejaVuSans-72"/>
     <use x="604.0" xlink:href="#DejaVuSans-6f"/>
     <use x="665.181640625" xlink:href="#DejaVuSans-75"/>
     <use x="728.560546875" xlink:href="#DejaVuSans-74"/>
     <use x="767.76953125" xlink:href="#DejaVuSans-65"/>
    </g>
   </g>
   <g id="legend_1">
    <g id="patch_7">
     <path d="
M482.296 367.194
L614.085 367.194
L614.085 24.6897
L482.296 24.6897
z
" style="fill:#ffffff;stroke:#000000;stroke-linejoin:miter;"/>
    </g>
    <g id="line2d_39">
     <path d="
M492.376 36.3515
L512.536 36.3515" style="fill:none;stroke:#0000ff;stroke-linecap:square;"/>
    </g>
    <g id="line2d_40"/>
    <g id="text_15">
     <!-- locality#0 -->
     <defs>
      <path d="
M51.125 44
L36.9219 44
L32.8125 27.6875
L47.125 27.6875
z

M43.7969 71.7812
L38.7188 51.5156
L52.9844 51.5156
L58.1094 71.7812
L65.9219 71.7812
L60.8906 51.5156
L76.125 51.5156
L76.125 44
L58.9844 44
L54.9844 27.6875
L70.5156 27.6875
L70.5156 20.2188
L53.0781 20.2188
L48 0
L40.1875 0
L45.2188 20.2188
L30.9062 20.2188
L25.875 0
L18.0156 0
L23.0938 20.2188
L7.71875 20.2188
L7.71875 27.6875
L24.9062 27.6875
L29 44
L13.2812 44
L13.2812 51.5156
L30.9062 51.5156
L35.8906 71.7812
z
" id="DejaVuSans-23"/>
      <path d="
M32.1719 -5.07812
Q28.375 -14.8438 24.75 -17.8125
Q21.1406 -20.7969 15.0938 -20.7969
L7.90625 -20.7969
L7.90625 -13.2812
L13.1875 -13.2812
Q16.8906 -13.2812 18.9375 -11.5156
Q21 -9.76562 23.4844 -3.21875
L25.0938 0.875
L2.98438 54.6875
L12.5 54.6875
L29.5938 11.9219
L46.6875 54.6875
L56.2031 54.6875
z
" id="DejaVuSans-79"/>
      <path d="
M9.42188 75.9844
L18.4062 75.9844
L18.4062 0
L9.42188 0
z
" id="DejaVuSans-6c"/>
      <path d="
M48.7812 52.5938
L48.7812 44.1875
Q44.9688 46.2969 41.1406 47.3438
Q37.3125 48.3906 33.4062 48.3906
Q24.6562 48.3906 19.8125 42.8438
Q14.9844 37.3125 14.9844 27.2969
Q14.9844 17.2812 19.8125 11.7344
Q24.6562 6.20312 33.4062 6.20312
Q37.3125 6.20312 41.1406 7.25
Q44.9688 8.29688 48.7812 10.4062
L48.7812 2.09375
Q45.0156 0.34375 40.9844 -0.53125
Q36.9688 -1.42188 32.4219 -1.42188
Q20.0625 -1.42188 12.7812 6.34375
Q5.51562 14.1094 5.51562 27.2969
Q5.51562 40.6719 12.8594 48.3281
Q20.2188 56 33.0156 56
Q37.1562 56 41.1094 55.1406
Q45.0625 54.2969 48.7812 52.5938" id="DejaVuSans-63"/>
     </defs>
     <g transform="translate(528.375625 41.3915)scale(0.144 -0.144)">
      <use xlink:href="#DejaVuSans-6c"/>
      <use x="27.783203125" xlink:href="#DejaVuSans-6f"/>
      <use x="88.96484375" xlink:href="#DejaVuSans-63"/>
      <use x="143.9453125" xlink:href="#DejaVuSans-61"/>
      <use x="205.224609375" xlink:href="#DejaVuSans-6c"/>
      <use x="233.0078125" xlink:href="#DejaVuSans-69"/>
      <use x="260.791015625" xlink:href="#DejaVuSans-74"/>
      <use x="300.0" xlink:href="#DejaVuSans-79"/>
      <use x="359.1796875" xlink:href="#DejaVuSans-23"/>
      <use x="442.96875" xlink:href="#DejaVuSans-30"/>
     </g>
    </g>
    <g id="line2d_41">
     <path d="
M492.376 57.488
L512.536 57.488" style="fill:none;stroke:#008000;stroke-linecap:square;"/>
    </g>
    <g id="line2d_42"/>
    <g id="text_16">
     <!-- locality#1 -->
     <g transform="translate(528.375625 62.528)scale(0.144 -0.144)">
      <use xlink:href="#DejaVuSans-6c"/>
      <use x="27.783203125" xlink:href="#DejaVuSans-6f"/>
      <use x="88.96484375" xlink:href="#DejaVuSans-63"/>
      <use x="143.9453125" xlink:href="#DejaVuSans-61"/>
      <use x="205.224609375" xlink:href="#DejaVuSans-6c"/>
      <use x="233.0078125" xlink:href="#DejaVuSans-69"/>
      <use x="260.791015625" xlink:href="#DejaVuSans-74"/>
      <use x="300.0" xlink:href="#DejaVuSans-79"/>
      <use x="359.1796875" xlink:href="#DejaVuSans-23"/>
      <use x="442.96875" xlink:href="#DejaVuSans-31"/>
     </g>
    </g>
    <g id="line2d_43">
     <path d="
M492.376 78.6245
L512.536 78.6245" style="fill:none;stroke:#ff0000;stroke-linecap:square;"/>
    </g>
    <g id="line2d_44"/>
    <g id="text_17">
     <!-- locality#10 -->
     <g transform="translate(528.375625 83.6645)scale(0.144 -0.144)">
      <use xlink:href="#DejaVuSans-6c"/>
      <use x="27.783203125" xlink:href="#DejaVuSans-6f"/>
      <use x="88.96484375" xlink:href="#DejaVuSans-63"/>
      <use x="143.9453125" xlink:href="#DejaVuSans-61"/>
      <use x="205.224609375" xlink:href="#DejaVuSans-6c"/>
      <use x="233.0078125" xlink:href="#DejaVuSans-69"/>
      <use x="260.791015625" xlink:href="#DejaVuSans-74"/>
      <use x="300.0" xlink:href="#DejaVuSans-79"/>
      <use x="359.1796875" xlink:href="#DejaVuSans-23"/>
      <use x="442.96875" xlink:href="#DejaVuSans-31"/>
      <use x="506.591796875" xlink:href="#DejaVuSans-30"/>
     </g>
    </g>
    <g id="line2d_45">
     <path d="
M492.376 99.761
L512.536 99.761" style="fill:none;stroke:#00bfbf;stroke-linecap:square;"/>
    </g>
    <g id="line2d_46"/>
    <g id="text_18">
     <!-- locality#11 -->
     <g transform="translate(528.375625 104.801)scale(0.144 -0.144)">
      <use xlink:href="#DejaVuSans-6c"/>
      <use x="27.783203125" xlink:href="#DejaVuSans-6f"/>
      <use x="88.96484375" xlink:href="#DejaVuSans-63"/>
      <use x="143.9453125" xlink:href="#DejaVuSans-61"/>
      <use x="205.224609375" xlink:href="#DejaVuSans-6c"/>
      <use x="233.0078125" xlink:href="#DejaVuSans-69"/>
      <use x="260.791015625" xlink:href="#DejaVuSans-74"/>
      <use x="300.0" xlink:href="#DejaVuSans-79"/>
      <use x="359.1796875" xlink:href="#DejaVuSans-23"/>
      <use x="442.96875" xlink:href="#DejaVuSans-31"/>
      <use x="506.591796875" xlink:href="#DejaVuSans-31"/>
     </g>
    </g>
    <g id="line2d_47">
     <path d="
M492.376 120.897
L512.536 120.897" style="fill:none;stroke:#bf00bf;stroke-linecap:square;"/>
    </g>
    <g id="line2d_48"/>
    <g id="text_19">
     <!-- locality#12 -->
     <g transform="translate(528.375625 125.9375)scale(0.144 -0.144)">
      <use xlink:href="#DejaVuSans-6c"/>
      <use x="27.783203125" xlink:href="#DejaVuSans-6f"/>
      <use x="88.96484375" xlink:href="#DejaVuSans-63"/>
      <use x="143.9453125" xlink:href="#DejaVuSans-61"/>
      <use x="205.224609375" xlink:href="#DejaVuSans-6c"/>
      <use x="233.0078125" xlink:href="#DejaVuSans-69"/>
      <use x="260.791015625" xlink:href="#DejaVuSans-74"/>
      <use x="300.0" xlink:href="#DejaVuSans-79"/>
      <use x="359.1796875" xlink:href="#DejaVuSans-23"/>
      <use x="442.96875" xlink:href="#DejaVuSans-31"/>
      <use x="506.591796875" xlink:href="#DejaVuSans-32"/>
     </g>
    </g>
    <g id="line2d_49">
     <path d="
M492.376 142.034
L512.536 142.034" style="fill:none;stroke:#bfbf00;stroke-linecap:square;"/>
    </g>
    <g id="line2d_50"/>
    <g id="text_20">
     <!-- locality#13 -->
     <g transform="translate(528.375625 147.074)scale(0.144 -0.144)">
      <use xlink:href="#DejaVuSans-6c"/>
      <use x="27.783203125" xlink:href="#DejaVuSans-6f"/>
      <use x="88.96484375" xlink:href="#DejaVuSans-63"/>
      <use x="143.9453125" xlink:href="#DejaVuSans-61"/>
      <use x="205.224609375" xlink:href="#DejaVuSans-6c"/>
      <use x="233.0078125" xlink:href="#DejaVuSans-69"/>
      <use x="260.791015625" xlink:href="#DejaVuSans-74"/>
      <use x="300.0" xlink:href="#DejaVuSans-79"/>
      <use x="359.1796875" xlink:href="#DejaVuSans-23"/>
      <use x="442.96875" xlink:href="#DejaVuSans-31"/>
      <use x="506.591796875" xlink:href="#DejaVuSans-33"/>
     </g>
    </g>
    <g id="line2d_51">
     <path d="
M492.376 163.17
L512.536 163.17" style="fill:none;stroke:#000000;stroke-linecap:square;"/>
    </g>
    <g id="line2d_52"/>
    <g id="text_21">
     <!-- locality#14 -->
     <g transform="translate(528.375625 168.2105)scale(0.144 -0.144)">
      <use xlink:href="#DejaVuSans-6c"/>
      <use x="27.783203125" xlink:href="#DejaVuSans-6f"/>
      <use x="88.96484375" xlink:href="#DejaVuSans-63"/>
      <use x="143.9453125" xlink:href="#DejaVuSans-61"/>
      <use x="205.224609375" xlink:href="#DejaVuSans-6c"/>
      <use x="233.0078125" xlink:href="#DejaVuSans-69"/>
      <use x="260.791015625" xlink:href="#DejaVuSans-74"/>
      <use x="300.0" xlink:href="#DejaVuSans-79"/>
      <use x="359.1796875" xlink:href="#DejaVuSans-23"/>
      <use x="442.96875" xlink:href="#DejaVuSans-31"/>
      <use x="506.591796875" xlink:href="#DejaVuSans-34"/>
     </g>
    </g>
    <g id="line2d_53">
     <path d="
M492.376 184.307
L512.536 184.307" style="fill:none;stroke:#0000ff;stroke-linecap:square;"/>
    </g>
    <g id="line2d_54"/>
    <g id="text_22">
     <!-- locality#15 -->
     <g transform="translate(528.375625 189.347)scale(0.144 -0.144)">
      <use xlink:href="#DejaVuSans-6c"/>
      <use x="27.783203125" xlink:href="#DejaVuSans-6f"/>
      <use x="88.96484375" xlink:href="#DejaVuSans-63"/>
      <use x="143.9453125" xlink:href="#DejaVuSans-61"/>
      <use x="205.224609375" xlink:href="#DejaVuSans-6c"/>
      <use x="233.0078125" xlink:href="#DejaVuSans-69"/>
      <use x="260.791015625" xlink:href="#DejaVuSans-74"/>
      <use x="300.0" xlink:href="#DejaVuSans-79"/>
      <use x="359.1796875" xlink:href="#DejaVuSans-23"/>
      <use x="442.96875" xlink:href="#DejaVuSans-31"/>
      <use x="506.591796875" xlink:href="#DejaVuSans-35"/>
     </g>
    </g>
    <g id="line2d_55">
     <path d="
M492.376 205.443
L512.536 205.443" style="fill:none;stroke:#008000;stroke-linecap:square;"/>
    </g>
    <g id="line2d_56"/>
    <g id="text_23">
     <!-- locality#2 -->
     <g transform="translate(528.375625 210.4835)scale(0.144 -0.144)">
      <use xlink:href="#DejaVuSans-6c"/>
      <use x="27.783203125" xlink:href="#DejaVuSans-6f"/>
      <use x="88.96484375" xlink:href="#DejaVuSans-63"/>
      <use x="143.9453125" xlink:href="#DejaVuSans-61"/>
      <use x="205.224609375" xlink:href="#DejaVuSans-6c"/>
      <use x="233.0078125" xlink:href="#DejaVuSans-69"/>
      <use x="260.791015625" xlink:href="#DejaVuSans-74"/>
      <use x="300.0" xlink:href="#DejaVuSans-79"/>
      <use x="359.1796875" xlink:href="#DejaVuSans-23"/>
      <use x="442.96875" xlink:href="#DejaVuSans-32"/>
     </g>
    </g>
    <g id="line2d_57">
     <path d="
M492.376 226.58
L512.536 226.58" style="fill:none;stroke:#ff0000;stroke-linecap:square;"/>
    </g>
    <g id="line2d_58"/>
    <g id="text_24">
     <!-- locality#3 -->
     <g transform="translate(528.375625 231.62)scale(0.144 -0.144)">
      <use xlink:href="#DejaVuSans-6c"/>
      <use x="27.783203125" xlink:href="#DejaVuSans-6f"/>
      <use x="88.96484375" xlink:href="#DejaVuSans-63"/>
      <use x="143.9453125" xlink:href="#DejaVuSans-61"/>
      <use x="205.224609375" xlink:href="#DejaVuSans-6c"/>
      <use x="233.0078125" xlink:href="#DejaVuSans-69"/>
      <use x="260.791015625" xlink:href="#DejaVuSans-74"/>
      <use x="300.0" xlink:href="#DejaVuSans-79"/>
      <use x="359.1796875" xlink:href="#DejaVuSans-23"/>
      <use x="442.96875" xlink:href="#DejaVuSans-33"/>
     </g>
    </g>
    <g id="line2d_59">
     <path d="
M492.376 247.716
L512.536 247.716" style="fill:none;stroke:#00bfbf;stroke-linecap:square;"/>
    </g>
    <g id="line2d_60"/>
    <g id="text_25">
     <!-- locality#4 -->
     <g transform="translate(528.375625 252.7565)scale(0.144 -0.144)">
      <use xlink:href="#DejaVuSans-6c"/>
      <use x="27.783203125" xlink:href="#DejaVuSans-6f"/>
      <use x="88.96484375" xlink:href="#DejaVuSans-63"/>
      <use x="143.9453125" xlink:href="#DejaVuSans-61"/>
      <use x="205.224609375" xlink:href="#DejaVuSans-6c"/>
      <use x="233.0078125" xlink:href="#DejaVuSans-69"/>
      <use x="260.791015625" xlink:href="#DejaVuSans-74"/>
      <use x="300.0" xlink:href="#DejaVuSans-79"/>
      <use x="359.1796875" xlink:href="#DejaVuSans-23"/>
      <use x="442.96875" xlink:href="#DejaVuSans-34"/>
     </g>
    </g>
    <g id="line2d_61">
     <path d="
M492.376 268.853
L512.536 268.853" style="fill:none;stroke:#bf00bf;stroke-linecap:square;"/>
    </g>
    <g id="line2d_62"/>
    <g id="text_26">
     <!-- locality#5 -->
     <g transform="translate(528.375625 273.893)scale(0.144 -0.144)">
      <use xlink:href="#DejaVuSans-6c"/>
      <use x="27.783203125" xlink:href="#DejaVuSans-6f"/>
      <use x="88.96484375" xlink:href="#DejaVuSans-63"/>
      <use x="143.9453125" xlink:href="#DejaVuSans-61"/>
      <use x="205.224609375" xlink:href="#DejaVuSans-6c"/>
      <use x="233.0078125" xlink:href="#DejaVuSans-69"/>
      <use x="260.791015625" xlink:href="#DejaVuSans-74"/>
      <use x="300.0" xlink:href="#DejaVuSans-79"/>
      <use x="359.1796875" xlink:href="#DejaVuSans-23"/>
      <use x="442.96875" xlink:href="#DejaVuSans-35"/>
     </g>
    </g>
    <g id="line2d_63">
     <path d="
M492.376 289.989
L512.536 289.989" style="fill:none;stroke:#bfbf00;stroke-linecap:square;"/>
    </g>
    <g id="line2d_64"/>
    <g id="text_27">
     <!-- locality#6 -->
     <defs>
      <path d="
M33.0156 40.375
Q26.375 40.375 22.4844 35.8281
Q18.6094 31.2969 18.6094 23.3906
Q18.6094 15.5312 22.4844 10.9531
Q26.375 6.39062 33.0156 6.39062
Q39.6562 6.39062 43.5312 10.9531
Q47.4062 15.5312 47.4062 23.3906
Q47.4062 31.2969 43.5312 35.8281
Q39.6562 40.375 33.0156 40.375
M52.5938 71.2969
L52.5938 62.3125
Q48.875 64.0625 45.0938 64.9844
Q41.3125 65.9219 37.5938 65.9219
Q27.8281 65.9219 22.6719 59.3281
Q17.5312 52.7344 16.7969 39.4062
Q19.6719 43.6562 24.0156 45.9219
Q28.375 48.1875 33.5938 48.1875
Q44.5781 48.1875 50.9531 41.5156
Q57.3281 34.8594 57.3281 23.3906
Q57.3281 12.1562 50.6875 5.35938
Q44.0469 -1.42188 33.0156 -1.42188
Q20.3594 -1.42188 13.6719 8.26562
Q6.98438 17.9688 6.98438 36.375
Q6.98438 53.6562 15.1875 63.9375
Q23.3906 74.2188 37.2031 74.2188
Q40.9219 74.2188 44.7031 73.4844
Q48.4844 72.75 52.5938 71.2969" id="DejaVuSans-36"/>
     </defs>
     <g transform="translate(528.375625 295.0295)scale(0.144 -0.144)">
      <use xlink:href="#DejaVuSans-6c"/>
      <use x="27.783203125" xlink:href="#DejaVuSans-6f"/>
      <use x="88.96484375" xlink:href="#DejaVuSans-63"/>
      <use x="143.9453125" xlink:href="#DejaVuSans-61"/>
      <use x="205.224609375" xlink:href="#DejaVuSans-6c"/>
      <use x="233.0078125" xlink:href="#DejaVuSans-69"/>
      <use x="260.791015625" xlink:href="#DejaVuSans-74"/>
      <use x="300.0" xlink:href="#DejaVuSans-79"/>
      <use x="359.1796875" xlink:href="#DejaVuSans-23"/>
      <use x="442.96875" xlink:href="#DejaVuSans-36"/>
     </g>
    </g>
    <g id="line2d_65">
     <path d="
M492.376 311.126
L512.536 311.126" style="fill:none;stroke:#000000;stroke-linecap:square;"/>
    </g>
    <g id="line2d_66"/>
    <g id="text_28">
     <!-- locality#7 -->
     <defs>
      <path d="
M8.20312 72.9062
L55.0781 72.9062
L55.0781 68.7031
L28.6094 0
L18.3125 0
L43.2188 64.5938
L8.20312 64.5938
z
" id="DejaVuSans-37"/>
     </defs>
     <g transform="translate(528.375625 316.166)scale(0.144 -0.144)">
      <use xlink:href="#DejaVuSans-6c"/>
      <use x="27.783203125" xlink:href="#DejaVuSans-6f"/>
      <use x="88.96484375" xlink:href="#DejaVuSans-63"/>
      <use x="143.9453125" xlink:href="#DejaVuSans-61"/>
      <use x="205.224609375" xlink:href="#DejaVuSans-6c"/>
      <use x="233.0078125" xlink:href="#DejaVuSans-69"/>
      <use x="260.791015625" xlink:href="#DejaVuSans-74"/>
      <use x="300.0" xlink:href="#DejaVuSans-79"/>
      <use x="359.1796875" xlink:href="#DejaVuSans-23"/>
      <use x="442.96875" xlink:href="#DejaVuSans-37"/>
     </g>
    </g>
    <g id="line2d_67">
     <path d="
M492.376 332.262
L512.536 332.262" style="fill:none;stroke:#0000ff;stroke-linecap:square;"/>
    </g>
    <g id="line2d_68"/>
    <g id="text_29">
     <!-- locality#8 -->
     <defs>
      <path d="
M31.7812 34.625
Q24.75 34.625 20.7188 30.8594
Q16.7031 27.0938 16.7031 20.5156
Q16.7031 13.9219 20.7188 10.1562
Q24.75 6.39062 31.7812 6.39062
Q38.8125 6.39062 42.8594 10.1719
Q46.9219 13.9688 46.9219 20.5156
Q46.9219 27.0938 42.8906 30.8594
Q38.875 34.625 31.7812 34.625
M21.9219 38.8125
Q15.5781 40.375 12.0312 44.7188
Q8.5 49.0781 8.5 55.3281
Q8.5 64.0625 14.7188 69.1406
Q20.9531 74.2188 31.7812 74.2188
Q42.6719 74.2188 48.875 69.1406
Q55.0781 64.0625 55.0781 55.3281
Q55.0781 49.0781 51.5312 44.7188
Q48 40.375 41.7031 38.8125
Q48.8281 37.1562 52.7969 32.3125
Q56.7812 27.4844 56.7812 20.5156
Q56.7812 9.90625 50.3125 4.23438
Q43.8438 -1.42188 31.7812 -1.42188
Q19.7344 -1.42188 13.25 4.23438
Q6.78125 9.90625 6.78125 20.5156
Q6.78125 27.4844 10.7812 32.3125
Q14.7969 37.1562 21.9219 38.8125
M18.3125 54.3906
Q18.3125 48.7344 21.8438 45.5625
Q25.3906 42.3906 31.7812 42.3906
Q38.1406 42.3906 41.7188 45.5625
Q45.3125 48.7344 45.3125 54.3906
Q45.3125 60.0625 41.7188 63.2344
Q38.1406 66.4062 31.7812 66.4062
Q25.3906 66.4062 21.8438 63.2344
Q18.3125 60.0625 18.3125 54.3906" id="DejaVuSans-38"/>
     </defs>
     <g transform="translate(528.375625 337.3025)scale(0.144 -0.144)">
      <use xlink:href="#DejaVuSans-6c"/>
      <use x="27.783203125" xlink:href="#DejaVuSans-6f"/>
      <use x="88.96484375" xlink:href="#DejaVuSans-63"/>
      <use x="143.9453125" xlink:href="#DejaVuSans-61"/>
      <use x="205.224609375" xlink:href="#DejaVuSans-6c"/>
      <use x="233.0078125" xlink:href="#DejaVuSans-69"/>
      <use x="260.791015625" xlink:href="#DejaVuSans-74"/>
      <use x="300.0" xlink:href="#DejaVuSans-79"/>
      <use x="359.1796875" xlink:href="#DejaVuSans-23"/>
      <use x="442.96875" xlink:href="#DejaVuSans-38"/>
     </g>
    </g>
    <g id="line2d_69">
     <path d="
M492.376 353.399
L512.536 353.399" style="fill:none;stroke:#008000;stroke-linecap:square;"/>
    </g>
    <g id="line2d_70"/>
    <g id="text_30">
     <!-- locality#9 -->
     <defs>
      <path d="
M10.9844 1.51562
L10.9844 10.5
Q14.7031 8.73438 18.5 7.8125
Q22.3125 6.89062 25.9844 6.89062
Q35.75 6.89062 40.8906 13.4531
Q46.0469 20.0156 46.7812 33.4062
Q43.9531 29.2031 39.5938 26.9531
Q35.25 24.7031 29.9844 24.7031
Q19.0469 24.7031 12.6719 31.3125
Q6.29688 37.9375 6.29688 49.4219
Q6.29688 60.6406 12.9375 67.4219
Q19.5781 74.2188 30.6094 74.2188
Q43.2656 74.2188 49.9219 64.5156
Q56.5938 54.8281 56.5938 36.375
Q56.5938 19.1406 48.4062 8.85938
Q40.2344 -1.42188 26.4219 -1.42188
Q22.7031 -1.42188 18.8906 -0.6875
Q15.0938 0.046875 10.9844 1.51562
M30.6094 32.4219
Q37.25 32.4219 41.125 36.9531
Q45.0156 41.5 45.0156 49.4219
Q45.0156 57.2812 41.125 61.8438
Q37.25 66.4062 30.6094 66.4062
Q23.9688 66.4062 20.0938 61.8438
Q16.2188 57.2812 16.2188 49.4219
Q16.2188 41.5 20.0938 36.9531
Q23.9688 32.4219 30.6094 32.4219" id="DejaVuSans-39"/>
     </defs>
     <g transform="translate(528.375625 358.439)scale(0.144 -0.144)">
      <use xlink:href="#DejaVuSans-6c"/>
      <use x="27.783203125" xlink:href="#DejaVuSans-6f"/>
      <use x="88.96484375" xlink:href="#DejaVuSans-63"/>
      <use x="143.9453125" xlink:href="#DejaVuSans-61"/>
      <use x="205.224609375" xlink:href="#DejaVuSans-6c"/>
      <use x="233.0078125" xlink:href="#DejaVuSans-69"/>
      <use x="260.791015625" xlink:href="#DejaVuSans-74"/>
      <use x="300.0" xlink:href="#DejaVuSans-79"/>
      <use x="359.1796875" xlink:href="#DejaVuSans-23"/>
      <use x="442.96875" xlink:href="#DejaVuSans-39"/>
     </g>
    </g>
   </g>
  </g>
 </g>
 <defs>
  <clipPath id="p2118423672">
   <rect height="345.6" width="446.4" x="28.695625" y="23.14175"/>
  </clipPath>
 </defs>
</svg>
