<?xml version="1.0" encoding="utf-8" standalone="no"?>
<!DOCTYPE svg PUBLIC "-//W3C//DTD SVG 1.1//EN"
  "http://www.w3.org/Graphics/SVG/1.1/DTD/svg11.dtd">
<!-- Created with matplotlib (http://matplotlib.org/) -->
<svg height="408pt" version="1.1" viewBox="0 0 621 408" width="621pt" xmlns="http://www.w3.org/2000/svg" xmlns:xlink="http://www.w3.org/1999/xlink">
 <defs>
  <style type="text/css">
*{stroke-linecap:butt;stroke-linejoin:round;}
  </style>
 </defs>
 <g id="figure_1">
  <g id="patch_1">
   <path d="
M0 408.169
L621.409 408.169
L621.409 0
L0 0
z
" style="fill:#ffffff;"/>
  </g>
  <g id="axes_1">
   <g id="patch_2">
    <path d="
M28.8194 368.742
L475.219 368.742
L475.219 23.1417
L28.8194 23.1417
z
" style="fill:#ffffff;"/>
   </g>
   <g id="line2d_1">
    <path clip-path="url(#p8c776b0f9c)" d="
M28.8194 368.457
L29.714 367.602
L33.2923 365.162
L67.2867 342.321
L69.0759 341.02
L76.2326 336.116
L79.811 333.415
L81.6001 332.114
L86.0731 328.714
L88.7568 326.812
L92.3352 324.112
L94.1244 322.811
L97.7027 320.11
L99.4919 318.809
L104.859 314.708
L106.649 313.407
L109.332 311.406
L112.911 308.706
L117.384 305.305
L118.278 304.704
L120.962 302.604
L122.751 301.303
L129.908 295.802
L131.697 294.501
L137.959 289.7
L141.538 287.099
L146.011 283.697
L152.273 278.993
L158.535 274.195
L160.324 272.894
L163.008 270.894
L165.692 268.866
L223.84 224.979
L227.418 222.179
L230.102 220.277
L239.048 213.376
L240.837 212.075
L245.31 208.674
L247.099 207.373
L250.677 204.673
L254.256 202.071
L259.623 197.985
L262.307 196.069
L265.886 193.368
L267.675 192.067
L273.042 187.966
L283.777 179.963
L292.723 173.062
L294.512 171.761
L299.88 167.66
L301.669 166.359
L304.353 164.359
L308.826 161.029
L319.561 152.855
L321.35 151.554
L324.034 149.554
L325.823 148.253
L329.401 145.585
L332.98 142.951
L335.663 140.95
L341.926 136.348
L348.188 131.547
L350.871 129.645
L353.555 127.645
L356.239 125.743
L359.817 123.043
L361.607 121.741
L366.079 118.342
L367.869 117.039
L372.342 113.64
L374.131 112.319
L403.652 89.9314
L406.336 88.0306
L409.914 85.33
L412.598 83.4292
L415.282 81.4272
L417.966 79.5264
L425.122 74.0264
L426.912 72.6959
L456.433 50.6169
L458.222 49.316
L460.906 47.314
L462.695 46.0155
L468.063 41.9128
L470.746 40.012
L475.219 36.5115
L475.219 36.5115" style="fill:none;stroke:#0000ff;stroke-linecap:square;"/>
   </g>
   <g id="line2d_2">
    <path clip-path="url(#p8c776b0f9c)" d="
M28.8194 368.706
L36.8707 365.292
L77.1272 347.92
L79.811 346.595
L81.6001 345.743
L86.0731 343.473
L88.7568 342.24
L92.3352 340.444
L94.1244 339.591
L97.7027 337.793
L102.176 335.557
L134.381 319.345
L138.854 317.101
L141.538 315.843
L144.221 314.425
L146.905 313.112
L148.694 312.249
L163.902 304.601
L192.529 290.205
L195.213 288.88
L197.897 287.648
L204.159 284.433
L205.053 284.053
L206.843 283.066
L213.999 279.513
L222.051 275.376
L223.84 274.5
L225.629 273.474
L228.313 272.23
L234.575 269.015
L236.364 268.146
L248.888 261.876
L256.045 258.322
L259.623 256.529
L262.307 255.293
L265.886 253.496
L267.675 252.643
L272.148 250.28
L275.726 248.668
L280.199 246.406
L281.988 245.546
L284.672 244.128
L292.723 239.967
L294.512 239.115
L299.88 236.373
L301.669 235.52
L305.247 233.739
L307.931 232.49
L309.72 231.495
L315.983 228.423
L322.245 225.208
L324.034 224.355
L344.609 214.228
L348.188 212.431
L350.871 211.199
L353.555 209.874
L356.239 208.642
L359.817 206.845
L361.607 205.992
L366.079 203.722
L367.869 202.869
L372.342 200.599
L373.236 200.219
L375.025 199.274
L383.971 194.641
L384.866 194.262
L385.76 193.723
L388.444 192.397
L393.812 189.721
L409.914 181.772
L412.598 180.54
L415.282 179.215
L417.966 177.982
L425.122 174.295
L426.017 173.915
L426.912 173.375
L428.701 172.497
L434.068 169.755
L435.857 168.902
L440.33 166.637
L443.014 165.4
L446.593 163.608
L448.382 162.781
L453.749 160.101
L455.538 159.248
L460.011 156.978
L462.695 155.746
L468.063 153.003
L470.746 151.771
L475.219 149.408
L475.219 149.408" style="fill:none;stroke:#008000;stroke-linecap:square;"/>
   </g>
   <g id="line2d_3">
    <path clip-path="url(#p8c776b0f9c)" d="
M28.8194 368.703
L32.3977 366.415
L67.2867 344.001
L69.0759 342.711
L70.8651 341.561
L72.6542 340.272
L76.2326 337.972
L79.811 335.251
L80.7055 334.675
L86.0731 330.523
L86.9677 329.947
L89.6514 327.941
L90.546 327.365
L95.019 323.928
L95.9136 323.353
L98.5973 321.286
L102.176 318.55
L107.543 314.47
L108.438 313.896
L113.805 309.741
L114.7 309.166
L120.962 304.297
L122.751 303.005
L129.013 298.135
L135.275 293.265
L139.748 289.968
L144.221 286.529
L146.905 284.553
L148.694 283.236
L165.692 270.245
L167.481 268.904
L172.848 264.75
L173.743 264.175
L175.532 262.779
L178.216 260.878
L183.583 256.725
L184.478 256.149
L185.372 255.338
L188.056 253.357
L189.845 251.994
L195.213 247.841
L196.108 247.265
L201.475 243.112
L204.159 241.106
L205.053 240.53
L206.843 239.044
L213.999 233.653
L221.156 228.067
L224.734 225.27
L225.629 224.511
L228.313 222.622
L233.68 218.468
L239.048 214.314
L239.942 213.738
L245.31 209.585
L246.205 209.009
L250.677 205.572
L260.518 198.262
L261.413 197.687
L264.991 194.965
L272.148 189.379
L273.937 188.113
L276.621 186.222
L279.304 184.216
L299.88 168.314
L300.774 167.739
L304.353 165.018
L331.191 144.822
L332.98 143.521
L335.663 141.514
L340.136 138.223
L341.031 137.642
L348.188 132.058
L349.977 130.907
L353.555 128.186
L354.45 127.61
L357.134 125.604
L358.923 124.314
L363.396 120.875
L364.29 120.3
L370.552 115.429
L371.447 114.857
L379.498 108.554
L380.393 107.979
L382.182 106.547
L387.55 102.393
L396.496 95.656
L401.863 91.5039
L402.758 90.9287
L405.441 88.9218
L406.336 88.3466
L409.914 85.6262
L410.809 85.0511
L413.493 83.0441
L414.387 82.4689
L416.176 81.1779
L422.439 76.3172
L423.333 75.7347
L425.122 74.3029
L426.017 73.7277
L426.912 72.923
L428.701 71.5776
L432.279 68.7807
L435.857 66.1344
L439.436 63.4116
L442.12 61.4318
L443.909 60.116
L450.171 55.5269
L451.96 54.2359
L456.433 50.7996
L457.328 50.222
L460.906 47.5016
L461.801 46.9264
L468.063 42.0559
L468.957 41.4832
L475.219 36.6127
L475.219 36.6127" style="fill:none;stroke:#ff0000;stroke-linecap:square;"/>
   </g>
   <g id="line2d_4">
    <path clip-path="url(#p8c776b0f9c)" d="
M28.8194 368.706
L32.3977 366.431
L67.2867 344.149
L69.0759 342.866
L70.8651 341.723
L72.6542 340.441
L76.2326 338.156
L79.811 335.45
L80.7055 334.878
L86.0731 330.75
L86.9677 330.177
L89.6514 328.183
L90.546 327.611
L95.019 324.193
L95.9136 323.621
L101.281 319.493
L106.649 315.502
L109.332 313.508
L140.643 289.722
L141.538 289.149
L144.221 287.015
L146.905 285.05
L148.694 283.739
L168.375 268.78
L169.27 268.208
L172.848 265.362
L173.743 264.79
L176.427 262.796
L177.321 262.224
L183.583 257.384
L184.478 256.812
L185.372 256.006
L188.056 254.036
L189.845 252.681
L195.213 248.552
L196.108 247.98
L201.475 243.851
L204.159 241.857
L205.053 241.284
L206.843 239.806
L213.999 234.448
L221.156 228.894
L224.734 226.115
L225.629 225.36
L228.313 223.481
L234.575 218.64
L235.469 218.068
L239.048 215.221
L239.942 214.649
L245.31 210.52
L246.205 209.948
L250.677 206.53
L260.518 199.263
L261.413 198.692
L265.886 195.274
L266.78 194.703
L272.148 190.433
L273.937 189.174
L276.621 187.295
L279.304 185.3
L299.88 169.492
L300.774 168.92
L304.353 166.215
L329.401 147.427
L332.085 145.555
L335.663 142.849
L340.136 139.577
L341.031 138.999
L347.293 134.158
L349.082 132.875
L349.977 132.303
L353.555 129.599
L354.45 129.027
L357.134 127.032
L358.923 125.749
L363.396 122.331
L364.29 121.759
L370.552 116.918
L371.447 116.345
L379.498 110.08
L380.393 109.51
L382.182 108.085
L387.55 103.958
L396.496 97.2606
L401.863 93.1307
L402.758 92.558
L405.441 90.5658
L406.336 89.9931
L409.914 87.2876
L410.809 86.7149
L413.493 84.7203
L414.387 84.15
L417.071 82.1554
L417.966 81.5827
L425.122 76.0309
L426.017 75.4582
L426.912 74.6584
L428.701 73.3229
L434.068 69.1954
L434.963 68.6227
L438.541 65.8283
L443.014 62.6389
L445.698 60.6443
L447.487 59.3606
L455.538 53.3768
L460.011 49.9578
L461.801 48.8149
L468.063 43.974
L468.957 43.4038
L475.219 38.5604
L475.219 38.5604" style="fill:none;stroke:#00bfbf;stroke-linecap:square;"/>
   </g>
   <g id="line2d_5">
    <path clip-path="url(#p8c776b0f9c)" d="
M28.8194 368.706
L32.3977 366.503
L67.2867 344.921
L69.0759 343.678
L70.8651 342.572
L72.6542 341.33
L76.2326 339.117
L79.811 336.496
L80.7055 335.943
L86.0731 331.943
L86.9677 331.39
L89.6514 329.458
L90.546 328.904
L95.019 325.594
L95.9136 325.041
L101.281 321.042
L106.649 317.178
L109.332 315.245
L149.589 285.755
L151.378 284.481
L155.851 281.036
L156.746 280.482
L161.219 277.171
L175.532 266.723
L178.216 264.891
L183.583 260.891
L184.478 260.337
L185.372 259.558
L188.056 257.65
L190.74 255.649
L195.213 252.339
L196.108 251.785
L201.475 247.786
L204.159 245.855
L205.053 245.301
L206.843 243.869
L213.999 238.68
L221.156 233.301
L224.734 230.609
L225.629 229.878
L228.313 228.059
L234.575 223.371
L235.469 222.816
L239.048 220.059
L239.942 219.506
L245.31 215.506
L246.205 214.953
L250.677 211.643
L260.518 204.605
L261.413 204.052
L265.886 200.741
L266.78 200.188
L273.042 195.499
L274.831 194.256
L275.726 193.703
L279.304 191.082
L299.88 175.772
L300.774 175.219
L304.353 172.598
L331.191 153.153
L332.98 151.901
L335.663 149.969
L340.136 146.799
L341.031 146.242
L348.188 140.864
L349.977 139.757
L353.555 137.136
L354.45 136.583
L357.134 134.652
L358.923 133.409
L363.396 130.098
L364.29 129.545
L370.552 124.855
L371.447 124.303
L379.498 118.236
L380.393 117.681
L382.182 116.303
L387.55 112.304
L396.496 105.819
L401.863 101.82
L402.758 101.265
L405.441 99.3342
L406.336 98.7812
L409.914 96.1596
L410.809 95.6067
L413.493 93.6738
L414.387 93.1208
L417.071 91.1904
L417.966 90.6374
L422.439 87.1962
L424.228 85.9471
L431.385 80.5681
L436.752 76.7048
L439.436 74.7744
L442.12 72.8662
L443.909 71.5998
L450.171 67.1835
L451.96 65.9394
L456.433 62.629
L457.328 62.0761
L460.906 59.4544
L461.801 58.9015
L468.063 54.2137
L468.957 53.6607
L475.219 48.9704
L475.219 48.9704" style="fill:none;stroke:#bf00bf;stroke-linecap:square;"/>
   </g>
   <g id="line2d_6">
    <path clip-path="url(#p8c776b0f9c)" d="
M28.8194 368.706
L32.3977 366.621
L67.2867 346.22
L69.0759 345.045
L70.8651 343.999
L72.6542 342.825
L77.1272 340.081
L79.811 338.255
L81.6001 337.081
L86.0731 333.953
L88.7568 332.254
L92.3352 329.78
L94.1244 328.602
L97.7027 326.125
L100.387 324.298
L104.859 321.17
L106.649 319.995
L109.332 318.169
L146.905 292.116
L148.694 290.918
L168.375 277.224
L169.27 276.701
L172.848 274.094
L174.637 272.92
L176.427 271.746
L178.216 270.571
L183.583 266.791
L184.478 266.267
L185.372 265.53
L188.951 263.138
L195.213 258.706
L197.897 257.008
L204.159 252.577
L205.053 252.053
L206.843 250.699
L213.999 245.795
L221.156 240.711
L224.734 238.172
L225.629 237.476
L228.313 235.755
L234.575 231.324
L235.469 230.8
L239.048 228.194
L240.837 227.02
L245.31 223.89
L247.099 222.716
L250.677 220.238
L260.518 213.586
L262.307 212.411
L265.886 209.934
L267.675 208.759
L272.148 205.502
L275.726 203.28
L279.304 200.803
L299.88 186.332
L301.669 185.157
L304.353 183.331
L333.874 163.116
L335.663 161.941
L340.136 158.945
L341.926 157.766
L346.399 154.544
L350.871 151.636
L353.555 149.811
L356.239 148.113
L359.817 145.638
L361.607 144.461
L366.079 141.332
L367.869 140.157
L372.342 137.028
L373.236 136.505
L374.131 135.781
L375.92 134.55
L383.971 128.815
L384.866 128.292
L385.76 127.558
L388.444 125.733
L392.023 123.209
L393.812 122.034
L400.968 117.078
L403.652 115.254
L406.336 113.556
L409.914 111.077
L412.598 109.379
L415.282 107.555
L417.966 105.856
L425.122 100.773
L426.017 100.25
L426.912 99.5169
L428.701 98.2949
L434.068 94.5156
L435.857 93.3405
L439.436 90.8621
L442.12 89.0575
L443.909 87.8628
L452.855 81.8592
L456.433 79.3832
L458.222 78.2082
L460.906 76.3814
L462.695 75.2064
L468.063 71.427
L470.746 69.7286
L475.219 66.4701
L475.219 66.4701" style="fill:none;stroke:#bfbf00;stroke-linecap:square;"/>
   </g>
   <g id="line2d_7">
    <path clip-path="url(#p8c776b0f9c)" d="
M28.8194 368.706
L33.2923 366.287
L67.2867 347.875
L69.0759 346.787
L76.2326 342.793
L79.811 340.498
L81.6001 339.41
L86.0731 336.513
L88.7568 334.94
L92.3352 332.648
L94.1244 331.557
L97.7027 329.263
L100.387 327.571
L104.859 324.674
L106.649 323.585
L109.332 321.894
L146.905 297.765
L148.694 296.654
L175.532 279.415
L178.216 277.81
L183.583 274.309
L184.478 273.824
L185.372 273.14
L188.951 270.926
L195.213 266.821
L197.897 265.249
L204.159 261.145
L205.053 260.66
L206.843 259.404
L213.999 254.863
L221.156 250.155
L224.734 247.798
L226.524 246.653
L229.207 244.962
L230.997 243.874
L239.048 238.562
L240.837 237.474
L245.31 234.576
L247.099 233.488
L250.677 231.194
L260.518 225.032
L262.307 223.944
L265.886 221.65
L267.675 220.562
L272.148 217.545
L275.726 215.488
L279.304 213.193
L299.88 199.79
L301.669 198.703
L304.353 197.011
L331.191 179.988
L332.98 178.892
L335.663 177.2
L340.136 174.425
L341.926 173.333
L346.399 170.347
L350.871 167.656
L353.555 165.965
L356.239 164.392
L359.817 162.1
L361.607 161.01
L366.079 158.112
L367.869 157.024
L372.342 154.126
L373.236 153.641
L375.025 152.434
L383.971 146.519
L384.866 146.035
L385.76 145.354
L388.444 143.664
L392.023 141.327
L393.812 140.239
L400.968 135.649
L403.652 133.959
L406.336 132.386
L409.914 130.092
L412.598 128.519
L415.282 126.827
L417.966 125.255
L425.122 120.547
L426.017 120.063
L426.912 119.381
L428.701 118.251
L434.068 114.75
L435.857 113.662
L440.33 110.776
L443.014 109.191
L446.593 106.91
L448.382 105.859
L451.065 104.118
L452.855 103.03
L456.433 100.736
L458.222 99.6477
L460.906 97.9567
L462.695 96.8681
L468.063 93.3677
L470.746 91.7952
L475.219 88.7786
L475.219 88.7786" style="fill:none;stroke:#000000;stroke-linecap:square;"/>
   </g>
   <g id="line2d_8">
    <path clip-path="url(#p8c776b0f9c)" d="
M28.8194 368.706
L34.1869 366.052
L67.2867 349.651
L69.0759 348.656
L76.2326 345.002
L79.811 342.903
L81.6001 341.908
L86.0731 339.259
L88.7568 337.82
L92.3352 335.724
L94.1244 334.726
L97.7027 332.628
L101.281 330.53
L112.016 324.342
L117.384 321.141
L118.278 320.696
L119.173 320.062
L121.857 318.574
L149.589 302.274
L151.378 301.256
L155.851 298.499
L157.64 297.502
L162.113 294.874
L164.797 293.358
L168.375 291.206
L169.27 290.763
L172.848 288.556
L174.637 287.561
L176.427 286.566
L178.216 285.571
L183.583 282.37
L184.478 281.925
L185.372 281.296
L188.951 279.275
L195.213 275.521
L197.897 274.083
L204.159 270.33
L205.053 269.885
L206.843 268.735
L213.999 264.584
L221.156 260.278
L224.734 258.119
L226.524 257.076
L229.207 255.529
L230.997 254.534
L239.048 249.677
L240.837 248.682
L245.31 246.031
L247.099 245.036
L250.677 242.937
L260.518 237.302
L262.307 236.307
L265.886 234.209
L267.675 233.213
L272.148 230.455
L275.726 228.573
L280.199 225.937
L281.988 224.927
L284.672 223.272
L292.723 218.414
L294.512 217.419
L299.88 214.217
L301.669 213.222
L304.353 211.675
L326.718 198.64
L328.507 197.645
L331.191 196.105
L332.98 195.103
L335.663 193.556
L340.136 191.018
L341.926 190.02
L346.399 187.286
L350.871 184.828
L353.555 183.281
L356.239 181.843
L359.817 179.746
L361.607 178.749
L366.079 176.099
L367.869 175.103
L372.342 172.453
L373.236 172.01
L375.025 170.906
L383.971 165.497
L384.866 165.053
L385.76 164.429
L388.444 162.884
L392.023 160.749
L393.812 159.752
L413.493 148.482
L416.176 147.043
L422.439 143.295
L424.228 142.294
L431.385 137.988
L452.855 125.722
L456.433 123.625
L458.222 122.629
L460.906 121.082
L462.695 120.087
L468.063 116.886
L470.746 115.447
L475.219 112.687
L475.219 112.687" style="fill:none;stroke:#0000ff;stroke-linecap:square;"/>
   </g>
   <g id="line2d_9">
    <path clip-path="url(#p8c776b0f9c)" d="
M28.8194 368.704
L38.6599 364.669
L70.8651 351.369
L72.6542 350.545
L77.1272 348.621
L79.811 347.341
L81.6001 346.518
L86.0731 344.326
L88.7568 343.134
L92.3352 341.399
L94.1244 340.574
L97.7027 338.838
L103.07 336.241
L112.911 331.525
L117.384 329.332
L118.278 328.964
L119.173 328.435
L121.857 327.206
L179.11 299.445
L180.9 298.62
L183.583 297.25
L184.478 296.883
L185.372 296.356
L188.056 295.093
L190.74 293.777
L195.213 291.584
L197.897 290.393
L204.159 287.287
L205.053 286.92
L206.843 285.964
L211.316 283.814
L216.683 281.195
L219.367 279.885
L227.418 275.866
L230.102 274.675
L239.048 270.199
L240.837 269.376
L245.31 267.183
L247.099 266.359
L251.572 264.193
L255.15 262.519
L259.623 260.331
L262.307 259.136
L265.886 257.4
L267.675 256.576
L272.148 254.294
L275.726 252.736
L280.199 250.55
L281.988 249.719
L284.672 248.35
L292.723 244.33
L294.512 243.507
L299.88 240.857
L301.669 240.034
L305.247 238.312
L307.931 237.107
L309.72 236.144
L315.983 233.177
L322.245 230.071
L324.034 229.247
L369.658 207.575
L372.342 206.297
L373.236 205.93
L375.025 205.017
L383.971 200.541
L384.866 200.174
L385.76 199.653
L388.444 198.372
L393.812 195.788
L409.914 188.108
L412.598 186.918
L415.282 185.638
L417.966 184.447
L425.122 180.885
L426.017 180.518
L426.912 179.995
L428.701 179.148
L434.068 176.499
L435.857 175.675
L440.33 173.487
L443.014 172.292
L446.593 170.561
L448.382 169.758
L453.749 167.173
L455.538 166.348
L460.011 164.155
L462.695 162.965
L468.063 160.315
L470.746 159.124
L475.219 156.842
L475.219 156.842" style="fill:none;stroke:#008000;stroke-linecap:square;"/>
   </g>
   <g id="line2d_10">
    <path clip-path="url(#p8c776b0f9c)" d="
M28.8194 368.707
L38.6599 364.635
L70.8651 351.213
L72.6542 350.383
L77.1272 348.44
L79.811 347.149
L81.6001 346.317
L86.0731 344.105
L88.7568 342.903
L92.3352 341.152
L94.1244 340.319
L97.7027 338.567
L103.965 335.523
L107.543 333.77
L109.332 332.939
L117.384 328.975
L118.278 328.603
L119.173 328.07
L121.857 326.828
L134.381 320.581
L138.854 318.392
L141.538 317.167
L144.221 315.784
L146.905 314.502
L148.694 313.663
L162.113 307.036
L164.797 305.769
L168.375 303.978
L170.164 303.124
L179.11 298.813
L180.9 297.98
L183.583 296.598
L184.478 296.227
L185.372 295.695
L188.056 294.421
L190.74 293.092
L195.213 290.88
L197.897 289.678
L204.159 286.544
L205.053 286.173
L206.843 285.209
L213.999 281.747
L222.051 277.713
L223.84 276.859
L225.629 275.858
L228.313 274.646
L234.575 271.512
L236.364 270.664
L248.888 264.551
L256.045 261.087
L259.623 259.339
L262.307 258.133
L265.886 256.382
L267.675 255.55
L272.148 253.247
L275.726 251.674
L280.199 249.469
L281.988 248.63
L284.672 247.248
L292.723 243.191
L294.512 242.361
L299.88 239.687
L301.669 238.856
L305.247 237.12
L307.931 235.902
L309.72 234.931
L315.983 231.936
L322.245 228.802
L324.034 227.971
L369.658 206.098
L372.342 204.81
L373.236 204.439
L375.025 203.518
L383.971 199.001
L384.866 198.63
L385.76 198.105
L388.444 196.813
L393.812 194.204
L409.914 186.454
L412.598 185.252
L415.282 183.961
L417.966 182.759
L425.122 179.164
L426.017 178.793
L426.912 178.266
L428.701 177.411
L434.068 174.738
L435.857 173.906
L440.33 171.699
L443.014 170.492
L446.593 168.745
L448.382 167.938
L453.749 165.326
L455.538 164.494
L460.011 162.281
L462.695 161.079
L468.063 158.405
L470.746 157.204
L475.219 154.9
L475.219 154.9" style="fill:none;stroke:#ff0000;stroke-linecap:square;"/>
   </g>
   <g id="line2d_11">
    <path clip-path="url(#p8c776b0f9c)" d="
M28.8194 368.706
L37.7653 364.825
L70.8651 350.363
L72.6542 349.493
L77.1272 347.455
L79.811 346.102
L81.6001 345.229
L86.0731 342.91
L88.7568 341.648
L92.3352 339.813
L94.1244 338.939
L97.7027 337.102
L103.07 334.356
L115.595 328.007
L120.962 325.204
L123.646 323.848
L126.33 322.493
L135.275 317.757
L141.538 314.659
L144.221 313.209
L146.905 311.866
L148.694 310.985
L162.113 304.034
L164.797 302.706
L168.375 300.828
L170.164 299.933
L179.11 295.411
L180.9 294.537
L183.583 293.089
L184.478 292.699
L185.372 292.142
L188.056 290.806
L190.74 289.412
L195.213 287.092
L197.897 285.831
L204.159 282.545
L205.053 282.156
L206.843 281.145
L213.999 277.513
L222.051 273.284
L223.84 272.388
L225.629 271.338
L228.313 270.067
L234.575 266.781
L236.364 265.89
L251.572 258.096
L254.256 256.814
L259.623 254.015
L262.307 252.75
L265.886 250.913
L267.675 250.041
L272.148 247.626
L275.726 245.976
L280.199 243.665
L281.988 242.784
L284.672 241.334
L292.723 237.081
L294.512 236.209
L299.88 233.405
L301.669 232.533
L305.247 230.714
L307.931 229.436
L309.72 228.417
L315.088 225.76
L322.245 221.991
L324.034 221.119
L345.504 210.281
L349.082 208.538
L350.871 207.667
L353.555 206.313
L356.239 205.052
L359.817 203.216
L361.607 202.343
L366.079 200.024
L367.869 199.15
L372.342 196.83
L373.236 196.441
L375.025 195.475
L383.971 190.738
L384.866 190.349
L385.76 189.798
L388.444 188.444
L392.023 186.58
L393.812 185.707
L409.914 177.581
L412.598 176.32
L415.282 174.967
L417.966 173.705
L425.122 169.935
L426.017 169.546
L426.912 168.995
L428.701 168.097
L434.068 165.294
L435.857 164.421
L440.33 162.107
L443.014 160.84
L446.593 159.009
L448.382 158.162
L453.749 155.424
L455.538 154.55
L460.011 152.231
L462.695 150.97
L468.063 148.166
L470.746 146.906
L475.219 144.49
L475.219 144.49" style="fill:none;stroke:#00bfbf;stroke-linecap:square;"/>
   </g>
   <g id="line2d_12">
    <path clip-path="url(#p8c776b0f9c)" d="
M28.8194 368.706
L36.8707 364.95
L52.9733 357.41
L70.8651 348.936
L72.6542 347.998
L77.1272 345.802
L79.811 344.342
L81.6001 343.402
L86.0731 340.901
L88.7568 339.542
L92.3352 337.562
L94.1244 336.621
L97.7027 334.641
L103.965 331.198
L107.543 329.217
L109.332 328.277
L120.962 321.813
L123.646 320.352
L126.33 318.89
L135.275 313.784
L141.538 310.445
L144.221 308.882
L146.905 307.435
L148.694 306.484
L162.113 298.991
L163.902 298.052
L219.367 267.375
L227.418 262.79
L230.102 261.431
L239.048 256.324
L240.837 255.384
L245.31 252.883
L247.099 251.943
L251.572 249.468
L255.15 247.561
L259.623 245.065
L262.307 243.701
L265.886 241.721
L267.675 240.78
L272.148 238.177
L275.726 236.398
L280.199 233.907
L281.988 232.957
L283.777 231.915
L292.723 226.809
L294.512 225.868
L299.88 222.846
L301.669 221.906
L305.247 219.945
L307.931 218.566
L309.72 217.467
L313.299 215.544
L319.561 212
L321.35 211.06
L324.034 209.6
L344.609 198.436
L348.188 196.457
L350.871 195.097
L353.555 193.639
L356.239 192.279
L359.817 190.3
L361.607 189.358
L366.079 186.858
L367.869 185.917
L372.342 183.415
L373.236 182.995
L375.025 181.953
L383.971 176.847
L384.866 176.428
L385.76 175.834
L388.444 174.377
L392.023 172.364
L393.812 171.424
L409.914 162.662
L412.598 161.303
L415.282 159.844
L417.966 158.484
L425.122 154.42
L426.017 154
L426.912 153.407
L428.701 152.438
L434.068 149.416
L435.857 148.475
L440.33 145.981
L443.014 144.615
L446.593 142.642
L448.382 141.729
L453.749 138.776
L455.538 137.834
L460.011 135.333
L462.695 133.974
L468.063 130.951
L470.746 129.592
L475.219 126.988
L475.219 126.988" style="fill:none;stroke:#bf00bf;stroke-linecap:square;"/>
   </g>
   <g id="line2d_13">
    <path clip-path="url(#p8c776b0f9c)" d="
M28.8194 368.707
L35.0815 365.518
L70.8651 347.117
L72.6542 346.093
L77.1272 343.695
L79.811 342.101
L81.6001 341.074
L86.0731 338.342
L88.7568 336.857
L92.3352 334.695
L94.1244 333.667
L97.7027 331.504
L102.176 328.815
L110.227 324.004
L112.016 322.957
L117.384 319.656
L118.278 319.198
L119.173 318.543
L121.857 317.004
L132.592 310.414
L138.854 306.59
L141.538 305.074
L144.221 303.367
L146.905 301.789
L148.694 300.748
L162.113 292.565
L163.902 291.539
L219.367 258.028
L227.418 253.02
L230.102 251.535
L239.048 245.957
L240.837 244.93
L245.31 242.197
L247.099 241.171
L250.677 239.007
L260.518 233.195
L262.307 232.169
L265.886 230.006
L267.675 228.978
L272.148 226.134
L275.726 224.192
L280.199 221.472
L281.988 220.433
L283.777 219.295
L292.723 213.716
L294.512 212.69
L299.88 209.388
L301.669 208.362
L304.353 206.767
L307.037 205.249
L310.615 203.006
L314.193 200.844
L315.983 199.816
L322.245 195.946
L324.034 194.919
L343.715 183.295
L348.188 180.563
L350.871 179.079
L353.555 177.484
L356.239 176.001
L359.817 173.838
L361.607 172.81
L366.079 170.078
L367.869 169.05
L372.342 166.317
L373.236 165.859
L374.131 165.222
L375.92 164.152
L383.971 159.144
L384.866 158.686
L385.76 158.038
L388.444 156.444
L392.023 154.246
L393.812 153.22
L413.493 141.597
L416.176 140.113
L422.439 136.247
L424.228 135.215
L431.385 130.775
L455.538 116.53
L460.011 113.798
L462.695 112.314
L468.063 109.011
L470.746 107.527
L475.219 104.681
L475.219 104.681" style="fill:none;stroke:#bfbf00;stroke-linecap:square;"/>
   </g>
   <g id="line2d_14">
    <path clip-path="url(#p8c776b0f9c)" d="
M28.8194 368.705
L34.1869 365.726
L67.2867 347.281
L69.0759 346.163
L76.2326 342.053
L79.811 339.694
L81.6001 338.575
L86.0731 335.595
L88.7568 333.976
L92.3352 331.618
L94.1244 330.497
L97.7027 328.138
L100.387 326.397
L104.859 323.417
L106.649 322.297
L109.332 320.558
L123.646 311.116
L126.33 309.375
L135.275 303.292
L139.748 300.433
L144.221 297.453
L146.905 295.734
L148.694 294.595
L165.692 283.329
L167.481 282.171
L172.848 278.57
L174.637 277.451
L176.427 276.332
L178.216 275.212
L183.583 271.612
L184.478 271.112
L185.372 270.403
L188.056 268.685
L189.845 267.51
L195.213 263.91
L197.897 262.291
L204.159 258.07
L205.053 257.57
L206.843 256.278
L213.999 251.609
L221.156 246.766
L224.734 244.336
L225.629 243.681
L228.313 242.045
L234.575 237.823
L235.469 237.323
L239.048 234.842
L240.837 233.722
L245.31 230.742
L247.099 229.622
L250.677 227.262
L260.518 220.924
L262.307 219.805
L265.886 217.446
L267.675 216.325
L272.148 213.223
L275.726 211.106
L279.304 208.747
L299.88 194.96
L301.669 193.841
L304.353 192.102
L324.928 178.612
L328.507 176.322
L331.191 174.589
L332.98 173.463
L335.663 171.724
L340.136 168.867
L341.926 167.746
L345.504 165.263
L349.082 163.026
L350.871 161.907
L353.555 160.168
L356.239 158.55
L359.817 156.191
L361.607 155.07
L366.079 152.09
L367.869 150.97
L372.342 147.989
L373.236 147.49
L374.131 146.796
L375.92 145.628
L383.971 140.166
L384.866 139.666
L385.76 138.963
L388.444 137.226
L392.023 134.825
L393.812 133.705
L400.968 128.984
L403.652 127.246
L406.336 125.627
L409.914 123.268
L412.598 121.65
L415.282 119.91
L417.966 118.293
L425.122 113.449
L426.017 112.951
L426.912 112.247
L428.701 111.087
L434.068 107.488
L435.857 106.367
L440.33 103.397
L443.014 101.771
L446.593 99.4206
L448.382 98.3369
L451.065 96.5521
L452.855 95.4314
L456.433 93.0739
L458.222 91.9532
L460.906 90.2128
L462.695 89.0946
L468.063 85.4929
L470.746 83.8735
L475.219 80.7706
L475.219 80.7706" style="fill:none;stroke:#000000;stroke-linecap:square;"/>
   </g>
   <g id="line2d_15">
    <path clip-path="url(#p8c776b0f9c)" d="
M28.8194 368.706
L33.2923 366.04
L67.2867 345.694
L69.0759 344.493
L70.8651 343.421
L72.6542 342.221
L77.1272 339.412
L79.811 337.544
L81.6001 336.342
L86.0731 333.14
L88.7568 331.401
L92.3352 328.87
L94.1244 327.663
L97.7027 325.129
L100.387 323.259
L104.859 320.057
L105.754 319.521
L109.332 316.986
L123.646 306.843
L126.33 304.972
L135.275 298.437
L139.748 295.365
L144.221 292.163
L146.905 290.318
L148.694 289.095
L162.113 279.511
L163.902 278.309
L191.635 258.662
L195.213 256.127
L196.108 255.591
L201.475 251.723
L204.159 249.854
L205.053 249.317
L206.843 247.931
L213.999 242.912
L221.156 237.709
L224.734 235.102
L225.629 234.395
L228.313 232.637
L234.575 228.102
L235.469 227.565
L239.048 224.899
L240.837 223.696
L245.31 220.494
L246.205 219.957
L250.677 216.756
L260.518 209.947
L261.413 209.411
L265.886 206.21
L266.78 205.673
L273.042 201.137
L274.831 199.936
L275.726 199.399
L279.304 196.864
L299.88 182.054
L300.774 181.517
L304.353 178.983
L329.401 161.379
L332.085 159.625
L335.663 157.09
L340.136 154.024
L341.926 152.817
L345.504 150.15
L349.082 147.746
L350.871 146.543
L353.555 144.676
L356.239 142.937
L359.817 140.405
L361.607 139.199
L366.079 135.999
L367.869 134.794
L372.342 131.592
L373.236 131.056
L374.131 130.312
L375.92 129.055
L383.971 123.187
L384.866 122.651
L385.76 121.896
L388.444 120.031
L392.023 117.449
L392.917 116.913
L397.39 113.711
L401.863 110.509
L404.547 108.769
L407.231 106.903
L424.228 95.1524
L431.385 89.9487
L436.752 86.2113
L439.436 84.3426
L442.12 82.4961
L443.909 81.2717
L452.855 75.1299
L456.433 72.5946
L458.222 71.39
L460.906 69.5237
L462.695 68.3191
L468.063 64.4508
L469.852 63.2511
L471.641 62.0464
L475.219 59.3779
L475.219 59.3779" style="fill:none;stroke:#0000ff;stroke-linecap:square;"/>
   </g>
   <g id="line2d_16">
    <path clip-path="url(#p8c776b0f9c)" d="
M28.8194 368.707
L32.3977 366.47
L67.2867 344.557
L69.0759 343.296
L70.8651 342.172
L72.6542 340.912
L76.2326 338.664
L79.811 336.003
L80.7055 335.44
L86.0731 331.381
L86.9677 330.818
L89.6514 328.857
L90.546 328.294
L95.019 324.934
L95.9136 324.371
L101.281 320.313
L106.649 316.387
L109.332 314.426
L175.532 265.156
L178.216 263.296
L183.583 259.235
L184.478 258.673
L185.372 257.879
L188.056 255.942
L189.845 254.611
L195.213 250.551
L196.108 249.988
L201.475 245.928
L204.159 243.967
L205.053 243.403
L206.843 241.95
L213.999 236.681
L221.156 231.22
L224.734 228.488
L225.629 227.745
L228.313 225.896
L234.575 221.136
L235.469 220.573
L239.048 217.774
L239.942 217.212
L245.31 213.151
L246.205 212.589
L250.677 209.228
L260.518 202.082
L261.413 201.52
L265.886 198.16
L266.78 197.597
L273.042 192.836
L274.831 191.574
L275.726 191.012
L279.304 188.351
L299.88 172.806
L300.774 172.243
L304.353 169.583
L331.191 149.839
L332.98 148.567
L335.663 146.606
L340.136 143.389
L341.926 142.12
L345.504 139.321
L349.082 136.798
L349.977 136.235
L353.555 133.576
L354.45 133.013
L357.134 131.053
L358.923 129.79
L363.396 126.429
L364.29 125.866
L370.552 121.105
L371.447 120.544
L375.025 117.881
L383.971 111.023
L384.866 110.46
L385.76 109.67
L388.444 107.715
L392.023 105
L392.917 104.437
L397.39 101.077
L403.652 96.4559
L404.547 95.8905
L407.231 93.9305
L420.649 84.2438
L425.122 80.8989
L426.017 80.3361
L426.912 79.5511
L428.701 78.2353
L434.068 74.177
L434.963 73.6142
L438.541 70.8642
L443.014 67.7291
L445.698 65.7666
L447.487 64.5076
L455.538 58.6201
L460.011 55.2603
L461.801 54.1371
L465.379 51.3378
L466.273 50.7749
L468.063 49.3753
L468.957 48.8149
L474.325 44.6702
L475.219 44.053
L475.219 44.053" style="fill:none;stroke:#008000;stroke-linecap:square;"/>
   </g>
   <g id="patch_3">
    <path d="
M28.8194 23.1417
L475.219 23.1417" style="fill:none;stroke:#000000;stroke-linecap:square;stroke-linejoin:miter;"/>
   </g>
   <g id="patch_4">
    <path d="
M475.219 368.742
L475.219 23.1418" style="fill:none;stroke:#000000;stroke-linecap:square;stroke-linejoin:miter;"/>
   </g>
   <g id="patch_5">
    <path d="
M28.8194 368.742
L475.219 368.742" style="fill:none;stroke:#000000;stroke-linecap:square;stroke-linejoin:miter;"/>
   </g>
   <g id="patch_6">
    <path d="
M28.8194 368.742
L28.8194 23.1418" style="fill:none;stroke:#000000;stroke-linecap:square;stroke-linejoin:miter;"/>
   </g>
   <g id="matplotlib.axis_1">
    <g id="xtick_1">
     <g id="line2d_17">
      <defs>
       <path d="
M0 0
L0 -4" id="m93b0483c22" style="stroke:#000000;stroke-width:0.5;"/>
      </defs>
      <g>
       <use style="stroke:#000000;stroke-width:0.5;" x="28.819375" xlink:href="#m93b0483c22" y="368.74175"/>
      </g>
     </g>
     <g id="line2d_18">
      <defs>
       <path d="
M0 0
L0 4" id="m741efc42ff" style="stroke:#000000;stroke-width:0.5;"/>
      </defs>
      <g>
       <use style="stroke:#000000;stroke-width:0.5;" x="28.819375" xlink:href="#m741efc42ff" y="23.14175"/>
      </g>
     </g>
     <g id="text_1">
      <!-- 0 -->
      <defs>
       <path d="
M31.7812 66.4062
Q24.1719 66.4062 20.3281 58.9062
Q16.5 51.4219 16.5 36.375
Q16.5 21.3906 20.3281 13.8906
Q24.1719 6.39062 31.7812 6.39062
Q39.4531 6.39062 43.2812 13.8906
Q47.125 21.3906 47.125 36.375
Q47.125 51.4219 43.2812 58.9062
Q39.4531 66.4062 31.7812 66.4062
M31.7812 74.2188
Q44.0469 74.2188 50.5156 64.5156
Q56.9844 54.8281 56.9844 36.375
Q56.9844 17.9688 50.5156 8.26562
Q44.0469 -1.42188 31.7812 -1.42188
Q19.5312 -1.42188 13.0625 8.26562
Q6.59375 17.9688 6.59375 36.375
Q6.59375 54.8281 13.0625 64.5156
Q19.5312 74.2188 31.7812 74.2188" id="DejaVuSans-30"/>
      </defs>
      <g transform="translate(25.7959375 381.859875)scale(0.12 -0.12)">
       <use xlink:href="#DejaVuSans-30"/>
      </g>
     </g>
    </g>
    <g id="xtick_2">
     <g id="line2d_19">
      <g>
       <use style="stroke:#000000;stroke-width:0.5;" x="118.278292836" xlink:href="#m93b0483c22" y="368.74175"/>
      </g>
     </g>
     <g id="line2d_20">
      <g>
       <use style="stroke:#000000;stroke-width:0.5;" x="118.278292836" xlink:href="#m741efc42ff" y="23.14175"/>
      </g>
     </g>
     <g id="text_2">
      <!-- 100 -->
      <defs>
       <path d="
M12.4062 8.29688
L28.5156 8.29688
L28.5156 63.9219
L10.9844 60.4062
L10.9844 69.3906
L28.4219 72.9062
L38.2812 72.9062
L38.2812 8.29688
L54.3906 8.29688
L54.3906 0
L12.4062 0
z
" id="DejaVuSans-31"/>
      </defs>
      <g transform="translate(107.883292836 381.859875)scale(0.12 -0.12)">
       <use xlink:href="#DejaVuSans-31"/>
       <use x="63.623046875" xlink:href="#DejaVuSans-30"/>
       <use x="127.24609375" xlink:href="#DejaVuSans-30"/>
      </g>
     </g>
    </g>
    <g id="xtick_3">
     <g id="line2d_21">
      <g>
       <use style="stroke:#000000;stroke-width:0.5;" x="207.737210671" xlink:href="#m93b0483c22" y="368.74175"/>
      </g>
     </g>
     <g id="line2d_22">
      <g>
       <use style="stroke:#000000;stroke-width:0.5;" x="207.737210671" xlink:href="#m741efc42ff" y="23.14175"/>
      </g>
     </g>
     <g id="text_3">
      <!-- 200 -->
      <defs>
       <path d="
M19.1875 8.29688
L53.6094 8.29688
L53.6094 0
L7.32812 0
L7.32812 8.29688
Q12.9375 14.1094 22.625 23.8906
Q32.3281 33.6875 34.8125 36.5312
Q39.5469 41.8438 41.4219 45.5312
Q43.3125 49.2188 43.3125 52.7812
Q43.3125 58.5938 39.2344 62.25
Q35.1562 65.9219 28.6094 65.9219
Q23.9688 65.9219 18.8125 64.3125
Q13.6719 62.7031 7.8125 59.4219
L7.8125 69.3906
Q13.7656 71.7812 18.9375 73
Q24.125 74.2188 28.4219 74.2188
Q39.75 74.2188 46.4844 68.5469
Q53.2188 62.8906 53.2188 53.4219
Q53.2188 48.9219 51.5312 44.8906
Q49.8594 40.875 45.4062 35.4062
Q44.1875 33.9844 37.6406 27.2188
Q31.1094 20.4531 19.1875 8.29688" id="DejaVuSans-32"/>
      </defs>
      <g transform="translate(197.122835671 381.859875)scale(0.12 -0.12)">
       <use xlink:href="#DejaVuSans-32"/>
       <use x="63.623046875" xlink:href="#DejaVuSans-30"/>
       <use x="127.24609375" xlink:href="#DejaVuSans-30"/>
      </g>
     </g>
    </g>
    <g id="xtick_4">
     <g id="line2d_23">
      <g>
       <use style="stroke:#000000;stroke-width:0.5;" x="297.196128507" xlink:href="#m93b0483c22" y="368.74175"/>
      </g>
     </g>
     <g id="line2d_24">
      <g>
       <use style="stroke:#000000;stroke-width:0.5;" x="297.196128507" xlink:href="#m741efc42ff" y="23.14175"/>
      </g>
     </g>
     <g id="text_4">
      <!-- 300 -->
      <defs>
       <path d="
M40.5781 39.3125
Q47.6562 37.7969 51.625 33
Q55.6094 28.2188 55.6094 21.1875
Q55.6094 10.4062 48.1875 4.48438
Q40.7656 -1.42188 27.0938 -1.42188
Q22.5156 -1.42188 17.6562 -0.515625
Q12.7969 0.390625 7.625 2.20312
L7.625 11.7188
Q11.7188 9.32812 16.5938 8.10938
Q21.4844 6.89062 26.8125 6.89062
Q36.0781 6.89062 40.9375 10.5469
Q45.7969 14.2031 45.7969 21.1875
Q45.7969 27.6406 41.2812 31.2656
Q36.7656 34.9062 28.7188 34.9062
L20.2188 34.9062
L20.2188 43.0156
L29.1094 43.0156
Q36.375 43.0156 40.2344 45.9219
Q44.0938 48.8281 44.0938 54.2969
Q44.0938 59.9062 40.1094 62.9062
Q36.1406 65.9219 28.7188 65.9219
Q24.6562 65.9219 20.0156 65.0312
Q15.375 64.1562 9.8125 62.3125
L9.8125 71.0938
Q15.4375 72.6562 20.3438 73.4375
Q25.25 74.2188 29.5938 74.2188
Q40.8281 74.2188 47.3594 69.1094
Q53.9062 64.0156 53.9062 55.3281
Q53.9062 49.2656 50.4375 45.0938
Q46.9688 40.9219 40.5781 39.3125" id="DejaVuSans-33"/>
      </defs>
      <g transform="translate(286.599566007 381.859875)scale(0.12 -0.12)">
       <use xlink:href="#DejaVuSans-33"/>
       <use x="63.623046875" xlink:href="#DejaVuSans-30"/>
       <use x="127.24609375" xlink:href="#DejaVuSans-30"/>
      </g>
     </g>
    </g>
    <g id="xtick_5">
     <g id="line2d_25">
      <g>
       <use style="stroke:#000000;stroke-width:0.5;" x="386.655046343" xlink:href="#m93b0483c22" y="368.74175"/>
      </g>
     </g>
     <g id="line2d_26">
      <g>
       <use style="stroke:#000000;stroke-width:0.5;" x="386.655046343" xlink:href="#m741efc42ff" y="23.14175"/>
      </g>
     </g>
     <g id="text_5">
      <!-- 400 -->
      <defs>
       <path d="
M37.7969 64.3125
L12.8906 25.3906
L37.7969 25.3906
z

M35.2031 72.9062
L47.6094 72.9062
L47.6094 25.3906
L58.0156 25.3906
L58.0156 17.1875
L47.6094 17.1875
L47.6094 0
L37.7969 0
L37.7969 17.1875
L4.89062 17.1875
L4.89062 26.7031
z
" id="DejaVuSans-34"/>
      </defs>
      <g transform="translate(375.894421343 381.859875)scale(0.12 -0.12)">
       <use xlink:href="#DejaVuSans-34"/>
       <use x="63.623046875" xlink:href="#DejaVuSans-30"/>
       <use x="127.24609375" xlink:href="#DejaVuSans-30"/>
      </g>
     </g>
    </g>
    <g id="text_6">
     <!-- time -->
     <defs>
      <path d="
M18.3125 70.2188
L18.3125 54.6875
L36.8125 54.6875
L36.8125 47.7031
L18.3125 47.7031
L18.3125 18.0156
Q18.3125 11.3281 20.1406 9.42188
Q21.9688 7.51562 27.5938 7.51562
L36.8125 7.51562
L36.8125 0
L27.5938 0
Q17.1875 0 13.2344 3.875
Q9.28125 7.76562 9.28125 18.0156
L9.28125 47.7031
L2.6875 47.7031
L2.6875 54.6875
L9.28125 54.6875
L9.28125 70.2188
z
" id="DejaVuSans-74"/>
      <path d="
M52 44.1875
Q55.375 50.25 60.0625 53.125
Q64.75 56 71.0938 56
Q79.6406 56 84.2812 50.0156
Q88.9219 44.0469 88.9219 33.0156
L88.9219 0
L79.8906 0
L79.8906 32.7188
Q79.8906 40.5781 77.0938 44.375
Q74.3125 48.1875 68.6094 48.1875
Q61.625 48.1875 57.5625 43.5469
Q53.5156 38.9219 53.5156 30.9062
L53.5156 0
L44.4844 0
L44.4844 32.7188
Q44.4844 40.625 41.7031 44.4062
Q38.9219 48.1875 33.1094 48.1875
Q26.2188 48.1875 22.1562 43.5312
Q18.1094 38.875 18.1094 30.9062
L18.1094 0
L9.07812 0
L9.07812 54.6875
L18.1094 54.6875
L18.1094 46.1875
Q21.1875 51.2188 25.4844 53.6094
Q29.7812 56 35.6875 56
Q41.6562 56 45.8281 52.9688
Q50 49.9531 52 44.1875" id="DejaVuSans-6d"/>
      <path d="
M56.2031 29.5938
L56.2031 25.2031
L14.8906 25.2031
Q15.4844 15.9219 20.4844 11.0625
Q25.4844 6.20312 34.4219 6.20312
Q39.5938 6.20312 44.4531 7.46875
Q49.3125 8.73438 54.1094 11.2812
L54.1094 2.78125
Q49.2656 0.734375 44.1875 -0.34375
Q39.1094 -1.42188 33.8906 -1.42188
Q20.7969 -1.42188 13.1562 6.1875
Q5.51562 13.8125 5.51562 26.8125
Q5.51562 40.2344 12.7656 48.1094
Q20.0156 56 32.3281 56
Q43.3594 56 49.7812 48.8906
Q56.2031 41.7969 56.2031 29.5938
M47.2188 32.2344
Q47.125 39.5938 43.0938 43.9844
Q39.0625 48.3906 32.4219 48.3906
Q24.9062 48.3906 20.3906 44.1406
Q15.875 39.8906 15.1875 32.1719
z
" id="DejaVuSans-65"/>
      <path d="
M9.42188 54.6875
L18.4062 54.6875
L18.4062 0
L9.42188 0
z

M9.42188 75.9844
L18.4062 75.9844
L18.4062 64.5938
L9.42188 64.5938
z
" id="DejaVuSans-69"/>
     </defs>
     <g transform="translate(238.945 398.473625)scale(0.12 -0.12)">
      <use xlink:href="#DejaVuSans-74"/>
      <use x="39.208984375" xlink:href="#DejaVuSans-69"/>
      <use x="66.9921875" xlink:href="#DejaVuSans-6d"/>
      <use x="164.404296875" xlink:href="#DejaVuSans-65"/>
     </g>
    </g>
   </g>
   <g id="matplotlib.axis_2">
    <g id="ytick_1">
     <g id="line2d_27">
      <defs>
       <path d="
M0 0
L4 0" id="m728421d6d4" style="stroke:#000000;stroke-width:0.5;"/>
      </defs>
      <g>
       <use style="stroke:#000000;stroke-width:0.5;" x="28.819375" xlink:href="#m728421d6d4" y="368.74175"/>
      </g>
     </g>
     <g id="line2d_28">
      <defs>
       <path d="
M0 0
L-4 0" id="mcb0005524f" style="stroke:#000000;stroke-width:0.5;"/>
      </defs>
      <g>
       <use style="stroke:#000000;stroke-width:0.5;" x="475.219375" xlink:href="#mcb0005524f" y="368.74175"/>
      </g>
     </g>
     <g id="text_7">
      <!-- 0.0 -->
      <defs>
       <path d="
M10.6875 12.4062
L21 12.4062
L21 0
L10.6875 0
z
" id="DejaVuSans-2e"/>
      </defs>
      <g transform="translate(7.32375 372.053)scale(0.12 -0.12)">
       <use xlink:href="#DejaVuSans-30"/>
       <use x="63.623046875" xlink:href="#DejaVuSans-2e"/>
       <use x="95.41015625" xlink:href="#DejaVuSans-30"/>
      </g>
     </g>
    </g>
    <g id="ytick_2">
     <g id="line2d_29">
      <g>
       <use style="stroke:#000000;stroke-width:0.5;" x="28.819375" xlink:href="#m728421d6d4" y="319.370321429"/>
      </g>
     </g>
     <g id="line2d_30">
      <g>
       <use style="stroke:#000000;stroke-width:0.5;" x="475.219375" xlink:href="#mcb0005524f" y="319.370321429"/>
      </g>
     </g>
     <g id="text_8">
      <!-- 0.2 -->
      <g transform="translate(7.72875 322.681571429)scale(0.12 -0.12)">
       <use xlink:href="#DejaVuSans-30"/>
       <use x="63.623046875" xlink:href="#DejaVuSans-2e"/>
       <use x="95.41015625" xlink:href="#DejaVuSans-32"/>
      </g>
     </g>
    </g>
    <g id="ytick_3">
     <g id="line2d_31">
      <g>
       <use style="stroke:#000000;stroke-width:0.5;" x="28.819375" xlink:href="#m728421d6d4" y="269.998892857"/>
      </g>
     </g>
     <g id="line2d_32">
      <g>
       <use style="stroke:#000000;stroke-width:0.5;" x="475.219375" xlink:href="#mcb0005524f" y="269.998892857"/>
      </g>
     </g>
     <g id="text_9">
      <!-- 0.4 -->
      <g transform="translate(7.2 273.310142857)scale(0.12 -0.12)">
       <use xlink:href="#DejaVuSans-30"/>
       <use x="63.623046875" xlink:href="#DejaVuSans-2e"/>
       <use x="95.41015625" xlink:href="#DejaVuSans-34"/>
      </g>
     </g>
    </g>
    <g id="ytick_4">
     <g id="line2d_33">
      <g>
       <use style="stroke:#000000;stroke-width:0.5;" x="28.819375" xlink:href="#m728421d6d4" y="220.627464286"/>
      </g>
     </g>
     <g id="line2d_34">
      <g>
       <use style="stroke:#000000;stroke-width:0.5;" x="475.219375" xlink:href="#mcb0005524f" y="220.627464286"/>
      </g>
     </g>
     <g id="text_10">
      <!-- 0.6 -->
      <defs>
       <path d="
M33.0156 40.375
Q26.375 40.375 22.4844 35.8281
Q18.6094 31.2969 18.6094 23.3906
Q18.6094 15.5312 22.4844 10.9531
Q26.375 6.39062 33.0156 6.39062
Q39.6562 6.39062 43.5312 10.9531
Q47.4062 15.5312 47.4062 23.3906
Q47.4062 31.2969 43.5312 35.8281
Q39.6562 40.375 33.0156 40.375
M52.5938 71.2969
L52.5938 62.3125
Q48.875 64.0625 45.0938 64.9844
Q41.3125 65.9219 37.5938 65.9219
Q27.8281 65.9219 22.6719 59.3281
Q17.5312 52.7344 16.7969 39.4062
Q19.6719 43.6562 24.0156 45.9219
Q28.375 48.1875 33.5938 48.1875
Q44.5781 48.1875 50.9531 41.5156
Q57.3281 34.8594 57.3281 23.3906
Q57.3281 12.1562 50.6875 5.35938
Q44.0469 -1.42188 33.0156 -1.42188
Q20.3594 -1.42188 13.6719 8.26562
Q6.98438 17.9688 6.98438 36.375
Q6.98438 53.6562 15.1875 63.9375
Q23.3906 74.2188 37.2031 74.2188
Q40.9219 74.2188 44.7031 73.4844
Q48.4844 72.75 52.5938 71.2969" id="DejaVuSans-36"/>
      </defs>
      <g transform="translate(7.2825 223.938714286)scale(0.12 -0.12)">
       <use xlink:href="#DejaVuSans-30"/>
       <use x="63.623046875" xlink:href="#DejaVuSans-2e"/>
       <use x="95.41015625" xlink:href="#DejaVuSans-36"/>
      </g>
     </g>
    </g>
    <g id="ytick_5">
     <g id="line2d_35">
      <g>
       <use style="stroke:#000000;stroke-width:0.5;" x="28.819375" xlink:href="#m728421d6d4" y="171.256035714"/>
      </g>
     </g>
     <g id="line2d_36">
      <g>
       <use style="stroke:#000000;stroke-width:0.5;" x="475.219375" xlink:href="#mcb0005524f" y="171.256035714"/>
      </g>
     </g>
     <g id="text_11">
      <!-- 0.8 -->
      <defs>
       <path d="
M31.7812 34.625
Q24.75 34.625 20.7188 30.8594
Q16.7031 27.0938 16.7031 20.5156
Q16.7031 13.9219 20.7188 10.1562
Q24.75 6.39062 31.7812 6.39062
Q38.8125 6.39062 42.8594 10.1719
Q46.9219 13.9688 46.9219 20.5156
Q46.9219 27.0938 42.8906 30.8594
Q38.875 34.625 31.7812 34.625
M21.9219 38.8125
Q15.5781 40.375 12.0312 44.7188
Q8.5 49.0781 8.5 55.3281
Q8.5 64.0625 14.7188 69.1406
Q20.9531 74.2188 31.7812 74.2188
Q42.6719 74.2188 48.875 69.1406
Q55.0781 64.0625 55.0781 55.3281
Q55.0781 49.0781 51.5312 44.7188
Q48 40.375 41.7031 38.8125
Q48.8281 37.1562 52.7969 32.3125
Q56.7812 27.4844 56.7812 20.5156
Q56.7812 9.90625 50.3125 4.23438
Q43.8438 -1.42188 31.7812 -1.42188
Q19.7344 -1.42188 13.25 4.23438
Q6.78125 9.90625 6.78125 20.5156
Q6.78125 27.4844 10.7812 32.3125
Q14.7969 37.1562 21.9219 38.8125
M18.3125 54.3906
Q18.3125 48.7344 21.8438 45.5625
Q25.3906 42.3906 31.7812 42.3906
Q38.1406 42.3906 41.7188 45.5625
Q45.3125 48.7344 45.3125 54.3906
Q45.3125 60.0625 41.7188 63.2344
Q38.1406 66.4062 31.7812 66.4062
Q25.3906 66.4062 21.8438 63.2344
Q18.3125 60.0625 18.3125 54.3906" id="DejaVuSans-38"/>
      </defs>
      <g transform="translate(7.348125 174.567285714)scale(0.12 -0.12)">
       <use xlink:href="#DejaVuSans-30"/>
       <use x="63.623046875" xlink:href="#DejaVuSans-2e"/>
       <use x="95.41015625" xlink:href="#DejaVuSans-38"/>
      </g>
     </g>
    </g>
    <g id="ytick_6">
     <g id="line2d_37">
      <g>
       <use style="stroke:#000000;stroke-width:0.5;" x="28.819375" xlink:href="#m728421d6d4" y="121.884607143"/>
      </g>
     </g>
     <g id="line2d_38">
      <g>
       <use style="stroke:#000000;stroke-width:0.5;" x="475.219375" xlink:href="#mcb0005524f" y="121.884607143"/>
      </g>
     </g>
     <g id="text_12">
      <!-- 1.0 -->
      <g transform="translate(7.850625 125.195857143)scale(0.12 -0.12)">
       <use xlink:href="#DejaVuSans-31"/>
       <use x="63.623046875" xlink:href="#DejaVuSans-2e"/>
       <use x="95.41015625" xlink:href="#DejaVuSans-30"/>
      </g>
     </g>
    </g>
    <g id="ytick_7">
     <g id="line2d_39">
      <g>
       <use style="stroke:#000000;stroke-width:0.5;" x="28.819375" xlink:href="#m728421d6d4" y="72.5131785714"/>
      </g>
     </g>
     <g id="line2d_40">
      <g>
       <use style="stroke:#000000;stroke-width:0.5;" x="475.219375" xlink:href="#mcb0005524f" y="72.5131785714"/>
      </g>
     </g>
     <g id="text_13">
      <!-- 1.2 -->
      <g transform="translate(8.255625 75.8244285714)scale(0.12 -0.12)">
       <use xlink:href="#DejaVuSans-31"/>
       <use x="63.623046875" xlink:href="#DejaVuSans-2e"/>
       <use x="95.41015625" xlink:href="#DejaVuSans-32"/>
      </g>
     </g>
    </g>
    <g id="ytick_8">
     <g id="line2d_41">
      <g>
       <use style="stroke:#000000;stroke-width:0.5;" x="28.819375" xlink:href="#m728421d6d4" y="23.14175"/>
      </g>
     </g>
     <g id="line2d_42">
      <g>
       <use style="stroke:#000000;stroke-width:0.5;" x="475.219375" xlink:href="#mcb0005524f" y="23.14175"/>
      </g>
     </g>
     <g id="text_14">
      <!-- 1.4 -->
      <g transform="translate(7.726875 26.453)scale(0.12 -0.12)">
       <use xlink:href="#DejaVuSans-31"/>
       <use x="63.623046875" xlink:href="#DejaVuSans-2e"/>
       <use x="95.41015625" xlink:href="#DejaVuSans-34"/>
      </g>
     </g>
    </g>
    <g id="text_15">
     <!-- 1e7 -->
     <defs>
      <path d="
M8.20312 72.9062
L55.0781 72.9062
L55.0781 68.7031
L28.6094 0
L18.3125 0
L43.2188 64.5938
L8.20312 64.5938
z
" id="DejaVuSans-37"/>
     </defs>
     <g transform="translate(28.819375 20.14175)scale(0.12 -0.12)">
      <use xlink:href="#DejaVuSans-31"/>
      <use x="63.623046875" xlink:href="#DejaVuSans-65"/>
      <use x="125.146484375" xlink:href="#DejaVuSans-37"/>
     </g>
    </g>
   </g>
   <g id="text_16">
    <!-- /agas/count/cache/misses -->
    <defs>
     <path d="
M25.3906 72.9062
L33.6875 72.9062
L8.29688 -9.28125
L0 -9.28125
z
" id="DejaVuSans-2f"/>
     <path d="
M30.6094 48.3906
Q23.3906 48.3906 19.1875 42.75
Q14.9844 37.1094 14.9844 27.2969
Q14.9844 17.4844 19.1562 11.8438
Q23.3438 6.20312 30.6094 6.20312
Q37.7969 6.20312 41.9844 11.8594
Q46.1875 17.5312 46.1875 27.2969
Q46.1875 37.0156 41.9844 42.7031
Q37.7969 48.3906 30.6094 48.3906
M30.6094 56
Q42.3281 56 49.0156 48.375
Q55.7188 40.7656 55.7188 27.2969
Q55.7188 13.875 49.0156 6.21875
Q42.3281 -1.42188 30.6094 -1.42188
Q18.8438 -1.42188 12.1719 6.21875
Q5.51562 13.875 5.51562 27.2969
Q5.51562 40.7656 12.1719 48.375
Q18.8438 56 30.6094 56" id="DejaVuSans-6f"/>
     <path d="
M54.8906 33.0156
L54.8906 0
L45.9062 0
L45.9062 32.7188
Q45.9062 40.4844 42.875 44.3281
Q39.8438 48.1875 33.7969 48.1875
Q26.5156 48.1875 22.3125 43.5469
Q18.1094 38.9219 18.1094 30.9062
L18.1094 0
L9.07812 0
L9.07812 54.6875
L18.1094 54.6875
L18.1094 46.1875
Q21.3438 51.125 25.7031 53.5625
Q30.0781 56 35.7969 56
Q45.2188 56 50.0469 50.1719
Q54.8906 44.3438 54.8906 33.0156" id="DejaVuSans-6e"/>
     <path d="
M54.8906 33.0156
L54.8906 0
L45.9062 0
L45.9062 32.7188
Q45.9062 40.4844 42.875 44.3281
Q39.8438 48.1875 33.7969 48.1875
Q26.5156 48.1875 22.3125 43.5469
Q18.1094 38.9219 18.1094 30.9062
L18.1094 0
L9.07812 0
L9.07812 75.9844
L18.1094 75.9844
L18.1094 46.1875
Q21.3438 51.125 25.7031 53.5625
Q30.0781 56 35.7969 56
Q45.2188 56 50.0469 50.1719
Q54.8906 44.3438 54.8906 33.0156" id="DejaVuSans-68"/>
     <path d="
M8.5 21.5781
L8.5 54.6875
L17.4844 54.6875
L17.4844 21.9219
Q17.4844 14.1562 20.5 10.2656
Q23.5312 6.39062 29.5938 6.39062
Q36.8594 6.39062 41.0781 11.0312
Q45.3125 15.6719 45.3125 23.6875
L45.3125 54.6875
L54.2969 54.6875
L54.2969 0
L45.3125 0
L45.3125 8.40625
Q42.0469 3.42188 37.7188 1
Q33.4062 -1.42188 27.6875 -1.42188
Q18.2656 -1.42188 13.375 4.4375
Q8.5 10.2969 8.5 21.5781
M31.1094 56
z
" id="DejaVuSans-75"/>
     <path d="
M45.4062 27.9844
Q45.4062 37.75 41.375 43.1094
Q37.3594 48.4844 30.0781 48.4844
Q22.8594 48.4844 18.8281 43.1094
Q14.7969 37.75 14.7969 27.9844
Q14.7969 18.2656 18.8281 12.8906
Q22.8594 7.51562 30.0781 7.51562
Q37.3594 7.51562 41.375 12.8906
Q45.4062 18.2656 45.4062 27.9844
M54.3906 6.78125
Q54.3906 -7.17188 48.1875 -13.9844
Q42 -20.7969 29.2031 -20.7969
Q24.4688 -20.7969 20.2656 -20.0938
Q16.0625 -19.3906 12.1094 -17.9219
L12.1094 -9.1875
Q16.0625 -11.3281 19.9219 -12.3438
Q23.7812 -13.375 27.7812 -13.375
Q36.625 -13.375 41.0156 -8.76562
Q45.4062 -4.15625 45.4062 5.17188
L45.4062 9.625
Q42.625 4.78125 38.2812 2.39062
Q33.9375 0 27.875 0
Q17.8281 0 11.6719 7.65625
Q5.51562 15.3281 5.51562 27.9844
Q5.51562 40.6719 11.6719 48.3281
Q17.8281 56 27.875 56
Q33.9375 56 38.2812 53.6094
Q42.625 51.2188 45.4062 46.3906
L45.4062 54.6875
L54.3906 54.6875
z
" id="DejaVuSans-67"/>
     <path d="
M48.7812 52.5938
L48.7812 44.1875
Q44.9688 46.2969 41.1406 47.3438
Q37.3125 48.3906 33.4062 48.3906
Q24.6562 48.3906 19.8125 42.8438
Q14.9844 37.3125 14.9844 27.2969
Q14.9844 17.2812 19.8125 11.7344
Q24.6562 6.20312 33.4062 6.20312
Q37.3125 6.20312 41.1406 7.25
Q44.9688 8.29688 48.7812 10.4062
L48.7812 2.09375
Q45.0156 0.34375 40.9844 -0.53125
Q36.9688 -1.42188 32.4219 -1.42188
Q20.0625 -1.42188 12.7812 6.34375
Q5.51562 14.1094 5.51562 27.2969
Q5.51562 40.6719 12.8594 48.3281
Q20.2188 56 33.0156 56
Q37.1562 56 41.1094 55.1406
Q45.0625 54.2969 48.7812 52.5938" id="DejaVuSans-63"/>
     <path d="
M44.2812 53.0781
L44.2812 44.5781
Q40.4844 46.5312 36.375 47.5
Q32.2812 48.4844 27.875 48.4844
Q21.1875 48.4844 17.8438 46.4375
Q14.5 44.3906 14.5 40.2812
Q14.5 37.1562 16.8906 35.375
Q19.2812 33.5938 26.5156 31.9844
L29.5938 31.2969
Q39.1562 29.25 43.1875 25.5156
Q47.2188 21.7812 47.2188 15.0938
Q47.2188 7.46875 41.1875 3.01562
Q35.1562 -1.42188 24.6094 -1.42188
Q20.2188 -1.42188 15.4531 -0.5625
Q10.6875 0.296875 5.42188 2
L5.42188 11.2812
Q10.4062 8.6875 15.2344 7.39062
Q20.0625 6.10938 24.8125 6.10938
Q31.1562 6.10938 34.5625 8.28125
Q37.9844 10.4531 37.9844 14.4062
Q37.9844 18.0625 35.5156 20.0156
Q33.0625 21.9688 24.7031 23.7812
L21.5781 24.5156
Q13.2344 26.2656 9.51562 29.9062
Q5.8125 33.5469 5.8125 39.8906
Q5.8125 47.6094 11.2812 51.7969
Q16.75 56 26.8125 56
Q31.7812 56 36.1719 55.2656
Q40.5781 54.5469 44.2812 53.0781" id="DejaVuSans-73"/>
     <path d="
M34.2812 27.4844
Q23.3906 27.4844 19.1875 25
Q14.9844 22.5156 14.9844 16.5
Q14.9844 11.7188 18.1406 8.90625
Q21.2969 6.10938 26.7031 6.10938
Q34.1875 6.10938 38.7031 11.4062
Q43.2188 16.7031 43.2188 25.4844
L43.2188 27.4844
z

M52.2031 31.2031
L52.2031 0
L43.2188 0
L43.2188 8.29688
Q40.1406 3.32812 35.5469 0.953125
Q30.9531 -1.42188 24.3125 -1.42188
Q15.9219 -1.42188 10.9531 3.29688
Q6 8.01562 6 15.9219
Q6 25.1406 12.1719 29.8281
Q18.3594 34.5156 30.6094 34.5156
L43.2188 34.5156
L43.2188 35.4062
Q43.2188 41.6094 39.1406 45
Q35.0625 48.3906 27.6875 48.3906
Q23 48.3906 18.5469 47.2656
Q14.1094 46.1406 10.0156 43.8906
L10.0156 52.2031
Q14.9375 54.1094 19.5781 55.0469
Q24.2188 56 28.6094 56
Q40.4844 56 46.3438 49.8438
Q52.2031 43.7031 52.2031 31.2031" id="DejaVuSans-61"/>
    </defs>
    <g transform="translate(159.19 18.14175)scale(0.144 -0.144)">
     <use xlink:href="#DejaVuSans-2f"/>
     <use x="33.69140625" xlink:href="#DejaVuSans-61"/>
     <use x="94.970703125" xlink:href="#DejaVuSans-67"/>
     <use x="158.447265625" xlink:href="#DejaVuSans-61"/>
     <use x="219.7265625" xlink:href="#DejaVuSans-73"/>
     <use x="271.826171875" xlink:href="#DejaVuSans-2f"/>
     <use x="305.517578125" xlink:href="#DejaVuSans-63"/>
     <use x="360.498046875" xlink:href="#DejaVuSans-6f"/>
     <use x="421.6796875" xlink:href="#DejaVuSans-75"/>
     <use x="485.05859375" xlink:href="#DejaVuSans-6e"/>
     <use x="548.4375" xlink:href="#DejaVuSans-74"/>
     <use x="587.646484375" xlink:href="#DejaVuSans-2f"/>
     <use x="621.337890625" xlink:href="#DejaVuSans-63"/>
     <use x="676.318359375" xlink:href="#DejaVuSans-61"/>
     <use x="737.59765625" xlink:href="#DejaVuSans-63"/>
     <use x="792.578125" xlink:href="#DejaVuSans-68"/>
     <use x="855.95703125" xlink:href="#DejaVuSans-65"/>
     <use x="917.48046875" xlink:href="#DejaVuSans-2f"/>
     <use x="951.171875" xlink:href="#DejaVuSans-6d"/>
     <use x="1048.58398438" xlink:href="#DejaVuSans-69"/>
     <use x="1076.3671875" xlink:href="#DejaVuSans-73"/>
     <use x="1128.46679688" xlink:href="#DejaVuSans-73"/>
     <use x="1180.56640625" xlink:href="#DejaVuSans-65"/>
     <use x="1242.08984375" xlink:href="#DejaVuSans-73"/>
    </g>
   </g>
   <g id="legend_1">
    <g id="patch_7">
     <path d="
M482.419 367.194
L614.209 367.194
L614.209 24.6897
L482.419 24.6897
z
" style="fill:#ffffff;stroke:#000000;stroke-linejoin:miter;"/>
    </g>
    <g id="line2d_43">
     <path d="
M492.499 36.3515
L512.659 36.3515" style="fill:none;stroke:#0000ff;stroke-linecap:square;"/>
    </g>
    <g id="line2d_44"/>
    <g id="text_17">
     <!-- locality#0 -->
     <defs>
      <path d="
M51.125 44
L36.9219 44
L32.8125 27.6875
L47.125 27.6875
z

M43.7969 71.7812
L38.7188 51.5156
L52.9844 51.5156
L58.1094 71.7812
L65.9219 71.7812
L60.8906 51.5156
L76.125 51.5156
L76.125 44
L58.9844 44
L54.9844 27.6875
L70.5156 27.6875
L70.5156 20.2188
L53.0781 20.2188
L48 0
L40.1875 0
L45.2188 20.2188
L30.9062 20.2188
L25.875 0
L18.0156 0
L23.0938 20.2188
L7.71875 20.2188
L7.71875 27.6875
L24.9062 27.6875
L29 44
L13.2812 44
L13.2812 51.5156
L30.9062 51.5156
L35.8906 71.7812
z
" id="DejaVuSans-23"/>
      <path d="
M32.1719 -5.07812
Q28.375 -14.8438 24.75 -17.8125
Q21.1406 -20.7969 15.0938 -20.7969
L7.90625 -20.7969
L7.90625 -13.2812
L13.1875 -13.2812
Q16.8906 -13.2812 18.9375 -11.5156
Q21 -9.76562 23.4844 -3.21875
L25.0938 0.875
L2.98438 54.6875
L12.5 54.6875
L29.5938 11.9219
L46.6875 54.6875
L56.2031 54.6875
z
" id="DejaVuSans-79"/>
      <path d="
M9.42188 75.9844
L18.4062 75.9844
L18.4062 0
L9.42188 0
z
" id="DejaVuSans-6c"/>
     </defs>
     <g transform="translate(528.499375 41.3915)scale(0.144 -0.144)">
      <use xlink:href="#DejaVuSans-6c"/>
      <use x="27.783203125" xlink:href="#DejaVuSans-6f"/>
      <use x="88.96484375" xlink:href="#DejaVuSans-63"/>
      <use x="143.9453125" xlink:href="#DejaVuSans-61"/>
      <use x="205.224609375" xlink:href="#DejaVuSans-6c"/>
      <use x="233.0078125" xlink:href="#DejaVuSans-69"/>
      <use x="260.791015625" xlink:href="#DejaVuSans-74"/>
      <use x="300.0" xlink:href="#DejaVuSans-79"/>
      <use x="359.1796875" xlink:href="#DejaVuSans-23"/>
      <use x="442.96875" xlink:href="#DejaVuSans-30"/>
     </g>
    </g>
    <g id="line2d_45">
     <path d="
M492.499 57.488
L512.659 57.488" style="fill:none;stroke:#008000;stroke-linecap:square;"/>
    </g>
    <g id="line2d_46"/>
    <g id="text_18">
     <!-- locality#1 -->
     <g transform="translate(528.499375 62.528)scale(0.144 -0.144)">
      <use xlink:href="#DejaVuSans-6c"/>
      <use x="27.783203125" xlink:href="#DejaVuSans-6f"/>
      <use x="88.96484375" xlink:href="#DejaVuSans-63"/>
      <use x="143.9453125" xlink:href="#DejaVuSans-61"/>
      <use x="205.224609375" xlink:href="#DejaVuSans-6c"/>
      <use x="233.0078125" xlink:href="#DejaVuSans-69"/>
      <use x="260.791015625" xlink:href="#DejaVuSans-74"/>
      <use x="300.0" xlink:href="#DejaVuSans-79"/>
      <use x="359.1796875" xlink:href="#DejaVuSans-23"/>
      <use x="442.96875" xlink:href="#DejaVuSans-31"/>
     </g>
    </g>
    <g id="line2d_47">
     <path d="
M492.499 78.6245
L512.659 78.6245" style="fill:none;stroke:#ff0000;stroke-linecap:square;"/>
    </g>
    <g id="line2d_48"/>
    <g id="text_19">
     <!-- locality#10 -->
     <g transform="translate(528.499375 83.6645)scale(0.144 -0.144)">
      <use xlink:href="#DejaVuSans-6c"/>
      <use x="27.783203125" xlink:href="#DejaVuSans-6f"/>
      <use x="88.96484375" xlink:href="#DejaVuSans-63"/>
      <use x="143.9453125" xlink:href="#DejaVuSans-61"/>
      <use x="205.224609375" xlink:href="#DejaVuSans-6c"/>
      <use x="233.0078125" xlink:href="#DejaVuSans-69"/>
      <use x="260.791015625" xlink:href="#DejaVuSans-74"/>
      <use x="300.0" xlink:href="#DejaVuSans-79"/>
      <use x="359.1796875" xlink:href="#DejaVuSans-23"/>
      <use x="442.96875" xlink:href="#DejaVuSans-31"/>
      <use x="506.591796875" xlink:href="#DejaVuSans-30"/>
     </g>
    </g>
    <g id="line2d_49">
     <path d="
M492.499 99.761
L512.659 99.761" style="fill:none;stroke:#00bfbf;stroke-linecap:square;"/>
    </g>
    <g id="line2d_50"/>
    <g id="text_20">
     <!-- locality#11 -->
     <g transform="translate(528.499375 104.801)scale(0.144 -0.144)">
      <use xlink:href="#DejaVuSans-6c"/>
      <use x="27.783203125" xlink:href="#DejaVuSans-6f"/>
      <use x="88.96484375" xlink:href="#DejaVuSans-63"/>
      <use x="143.9453125" xlink:href="#DejaVuSans-61"/>
      <use x="205.224609375" xlink:href="#DejaVuSans-6c"/>
      <use x="233.0078125" xlink:href="#DejaVuSans-69"/>
      <use x="260.791015625" xlink:href="#DejaVuSans-74"/>
      <use x="300.0" xlink:href="#DejaVuSans-79"/>
      <use x="359.1796875" xlink:href="#DejaVuSans-23"/>
      <use x="442.96875" xlink:href="#DejaVuSans-31"/>
      <use x="506.591796875" xlink:href="#DejaVuSans-31"/>
     </g>
    </g>
    <g id="line2d_51">
     <path d="
M492.499 120.897
L512.659 120.897" style="fill:none;stroke:#bf00bf;stroke-linecap:square;"/>
    </g>
    <g id="line2d_52"/>
    <g id="text_21">
     <!-- locality#12 -->
     <g transform="translate(528.499375 125.9375)scale(0.144 -0.144)">
      <use xlink:href="#DejaVuSans-6c"/>
      <use x="27.783203125" xlink:href="#DejaVuSans-6f"/>
      <use x="88.96484375" xlink:href="#DejaVuSans-63"/>
      <use x="143.9453125" xlink:href="#DejaVuSans-61"/>
      <use x="205.224609375" xlink:href="#DejaVuSans-6c"/>
      <use x="233.0078125" xlink:href="#DejaVuSans-69"/>
      <use x="260.791015625" xlink:href="#DejaVuSans-74"/>
      <use x="300.0" xlink:href="#DejaVuSans-79"/>
      <use x="359.1796875" xlink:href="#DejaVuSans-23"/>
      <use x="442.96875" xlink:href="#DejaVuSans-31"/>
      <use x="506.591796875" xlink:href="#DejaVuSans-32"/>
     </g>
    </g>
    <g id="line2d_53">
     <path d="
M492.499 142.034
L512.659 142.034" style="fill:none;stroke:#bfbf00;stroke-linecap:square;"/>
    </g>
    <g id="line2d_54"/>
    <g id="text_22">
     <!-- locality#13 -->
     <g transform="translate(528.499375 147.074)scale(0.144 -0.144)">
      <use xlink:href="#DejaVuSans-6c"/>
      <use x="27.783203125" xlink:href="#DejaVuSans-6f"/>
      <use x="88.96484375" xlink:href="#DejaVuSans-63"/>
      <use x="143.9453125" xlink:href="#DejaVuSans-61"/>
      <use x="205.224609375" xlink:href="#DejaVuSans-6c"/>
      <use x="233.0078125" xlink:href="#DejaVuSans-69"/>
      <use x="260.791015625" xlink:href="#DejaVuSans-74"/>
      <use x="300.0" xlink:href="#DejaVuSans-79"/>
      <use x="359.1796875" xlink:href="#DejaVuSans-23"/>
      <use x="442.96875" xlink:href="#DejaVuSans-31"/>
      <use x="506.591796875" xlink:href="#DejaVuSans-33"/>
     </g>
    </g>
    <g id="line2d_55">
     <path d="
M492.499 163.17
L512.659 163.17" style="fill:none;stroke:#000000;stroke-linecap:square;"/>
    </g>
    <g id="line2d_56"/>
    <g id="text_23">
     <!-- locality#14 -->
     <g transform="translate(528.499375 168.2105)scale(0.144 -0.144)">
      <use xlink:href="#DejaVuSans-6c"/>
      <use x="27.783203125" xlink:href="#DejaVuSans-6f"/>
      <use x="88.96484375" xlink:href="#DejaVuSans-63"/>
      <use x="143.9453125" xlink:href="#DejaVuSans-61"/>
      <use x="205.224609375" xlink:href="#DejaVuSans-6c"/>
      <use x="233.0078125" xlink:href="#DejaVuSans-69"/>
      <use x="260.791015625" xlink:href="#DejaVuSans-74"/>
      <use x="300.0" xlink:href="#DejaVuSans-79"/>
      <use x="359.1796875" xlink:href="#DejaVuSans-23"/>
      <use x="442.96875" xlink:href="#DejaVuSans-31"/>
      <use x="506.591796875" xlink:href="#DejaVuSans-34"/>
     </g>
    </g>
    <g id="line2d_57">
     <path d="
M492.499 184.307
L512.659 184.307" style="fill:none;stroke:#0000ff;stroke-linecap:square;"/>
    </g>
    <g id="line2d_58"/>
    <g id="text_24">
     <!-- locality#15 -->
     <defs>
      <path d="
M10.7969 72.9062
L49.5156 72.9062
L49.5156 64.5938
L19.8281 64.5938
L19.8281 46.7344
Q21.9688 47.4688 24.1094 47.8281
Q26.2656 48.1875 28.4219 48.1875
Q40.625 48.1875 47.75 41.5
Q54.8906 34.8125 54.8906 23.3906
Q54.8906 11.625 47.5625 5.09375
Q40.2344 -1.42188 26.9062 -1.42188
Q22.3125 -1.42188 17.5469 -0.640625
Q12.7969 0.140625 7.71875 1.70312
L7.71875 11.625
Q12.1094 9.23438 16.7969 8.0625
Q21.4844 6.89062 26.7031 6.89062
Q35.1562 6.89062 40.0781 11.3281
Q45.0156 15.7656 45.0156 23.3906
Q45.0156 31 40.0781 35.4375
Q35.1562 39.8906 26.7031 39.8906
Q22.75 39.8906 18.8125 39.0156
Q14.8906 38.1406 10.7969 36.2812
z
" id="DejaVuSans-35"/>
     </defs>
     <g transform="translate(528.499375 189.347)scale(0.144 -0.144)">
      <use xlink:href="#DejaVuSans-6c"/>
      <use x="27.783203125" xlink:href="#DejaVuSans-6f"/>
      <use x="88.96484375" xlink:href="#DejaVuSans-63"/>
      <use x="143.9453125" xlink:href="#DejaVuSans-61"/>
      <use x="205.224609375" xlink:href="#DejaVuSans-6c"/>
      <use x="233.0078125" xlink:href="#DejaVuSans-69"/>
      <use x="260.791015625" xlink:href="#DejaVuSans-74"/>
      <use x="300.0" xlink:href="#DejaVuSans-79"/>
      <use x="359.1796875" xlink:href="#DejaVuSans-23"/>
      <use x="442.96875" xlink:href="#DejaVuSans-31"/>
      <use x="506.591796875" xlink:href="#DejaVuSans-35"/>
     </g>
    </g>
    <g id="line2d_59">
     <path d="
M492.499 205.443
L512.659 205.443" style="fill:none;stroke:#008000;stroke-linecap:square;"/>
    </g>
    <g id="line2d_60"/>
    <g id="text_25">
     <!-- locality#2 -->
     <g transform="translate(528.499375 210.4835)scale(0.144 -0.144)">
      <use xlink:href="#DejaVuSans-6c"/>
      <use x="27.783203125" xlink:href="#DejaVuSans-6f"/>
      <use x="88.96484375" xlink:href="#DejaVuSans-63"/>
      <use x="143.9453125" xlink:href="#DejaVuSans-61"/>
      <use x="205.224609375" xlink:href="#DejaVuSans-6c"/>
      <use x="233.0078125" xlink:href="#DejaVuSans-69"/>
      <use x="260.791015625" xlink:href="#DejaVuSans-74"/>
      <use x="300.0" xlink:href="#DejaVuSans-79"/>
      <use x="359.1796875" xlink:href="#DejaVuSans-23"/>
      <use x="442.96875" xlink:href="#DejaVuSans-32"/>
     </g>
    </g>
    <g id="line2d_61">
     <path d="
M492.499 226.58
L512.659 226.58" style="fill:none;stroke:#ff0000;stroke-linecap:square;"/>
    </g>
    <g id="line2d_62"/>
    <g id="text_26">
     <!-- locality#3 -->
     <g transform="translate(528.499375 231.62)scale(0.144 -0.144)">
      <use xlink:href="#DejaVuSans-6c"/>
      <use x="27.783203125" xlink:href="#DejaVuSans-6f"/>
      <use x="88.96484375" xlink:href="#DejaVuSans-63"/>
      <use x="143.9453125" xlink:href="#DejaVuSans-61"/>
      <use x="205.224609375" xlink:href="#DejaVuSans-6c"/>
      <use x="233.0078125" xlink:href="#DejaVuSans-69"/>
      <use x="260.791015625" xlink:href="#DejaVuSans-74"/>
      <use x="300.0" xlink:href="#DejaVuSans-79"/>
      <use x="359.1796875" xlink:href="#DejaVuSans-23"/>
      <use x="442.96875" xlink:href="#DejaVuSans-33"/>
     </g>
    </g>
    <g id="line2d_63">
     <path d="
M492.499 247.716
L512.659 247.716" style="fill:none;stroke:#00bfbf;stroke-linecap:square;"/>
    </g>
    <g id="line2d_64"/>
    <g id="text_27">
     <!-- locality#4 -->
     <g transform="translate(528.499375 252.7565)scale(0.144 -0.144)">
      <use xlink:href="#DejaVuSans-6c"/>
      <use x="27.783203125" xlink:href="#DejaVuSans-6f"/>
      <use x="88.96484375" xlink:href="#DejaVuSans-63"/>
      <use x="143.9453125" xlink:href="#DejaVuSans-61"/>
      <use x="205.224609375" xlink:href="#DejaVuSans-6c"/>
      <use x="233.0078125" xlink:href="#DejaVuSans-69"/>
      <use x="260.791015625" xlink:href="#DejaVuSans-74"/>
      <use x="300.0" xlink:href="#DejaVuSans-79"/>
      <use x="359.1796875" xlink:href="#DejaVuSans-23"/>
      <use x="442.96875" xlink:href="#DejaVuSans-34"/>
     </g>
    </g>
    <g id="line2d_65">
     <path d="
M492.499 268.853
L512.659 268.853" style="fill:none;stroke:#bf00bf;stroke-linecap:square;"/>
    </g>
    <g id="line2d_66"/>
    <g id="text_28">
     <!-- locality#5 -->
     <g transform="translate(528.499375 273.893)scale(0.144 -0.144)">
      <use xlink:href="#DejaVuSans-6c"/>
      <use x="27.783203125" xlink:href="#DejaVuSans-6f"/>
      <use x="88.96484375" xlink:href="#DejaVuSans-63"/>
      <use x="143.9453125" xlink:href="#DejaVuSans-61"/>
      <use x="205.224609375" xlink:href="#DejaVuSans-6c"/>
      <use x="233.0078125" xlink:href="#DejaVuSans-69"/>
      <use x="260.791015625" xlink:href="#DejaVuSans-74"/>
      <use x="300.0" xlink:href="#DejaVuSans-79"/>
      <use x="359.1796875" xlink:href="#DejaVuSans-23"/>
      <use x="442.96875" xlink:href="#DejaVuSans-35"/>
     </g>
    </g>
    <g id="line2d_67">
     <path d="
M492.499 289.989
L512.659 289.989" style="fill:none;stroke:#bfbf00;stroke-linecap:square;"/>
    </g>
    <g id="line2d_68"/>
    <g id="text_29">
     <!-- locality#6 -->
     <g transform="translate(528.499375 295.0295)scale(0.144 -0.144)">
      <use xlink:href="#DejaVuSans-6c"/>
      <use x="27.783203125" xlink:href="#DejaVuSans-6f"/>
      <use x="88.96484375" xlink:href="#DejaVuSans-63"/>
      <use x="143.9453125" xlink:href="#DejaVuSans-61"/>
      <use x="205.224609375" xlink:href="#DejaVuSans-6c"/>
      <use x="233.0078125" xlink:href="#DejaVuSans-69"/>
      <use x="260.791015625" xlink:href="#DejaVuSans-74"/>
      <use x="300.0" xlink:href="#DejaVuSans-79"/>
      <use x="359.1796875" xlink:href="#DejaVuSans-23"/>
      <use x="442.96875" xlink:href="#DejaVuSans-36"/>
     </g>
    </g>
    <g id="line2d_69">
     <path d="
M492.499 311.126
L512.659 311.126" style="fill:none;stroke:#000000;stroke-linecap:square;"/>
    </g>
    <g id="line2d_70"/>
    <g id="text_30">
     <!-- locality#7 -->
     <g transform="translate(528.499375 316.166)scale(0.144 -0.144)">
      <use xlink:href="#DejaVuSans-6c"/>
      <use x="27.783203125" xlink:href="#DejaVuSans-6f"/>
      <use x="88.96484375" xlink:href="#DejaVuSans-63"/>
      <use x="143.9453125" xlink:href="#DejaVuSans-61"/>
      <use x="205.224609375" xlink:href="#DejaVuSans-6c"/>
      <use x="233.0078125" xlink:href="#DejaVuSans-69"/>
      <use x="260.791015625" xlink:href="#DejaVuSans-74"/>
      <use x="300.0" xlink:href="#DejaVuSans-79"/>
      <use x="359.1796875" xlink:href="#DejaVuSans-23"/>
      <use x="442.96875" xlink:href="#DejaVuSans-37"/>
     </g>
    </g>
    <g id="line2d_71">
     <path d="
M492.499 332.262
L512.659 332.262" style="fill:none;stroke:#0000ff;stroke-linecap:square;"/>
    </g>
    <g id="line2d_72"/>
    <g id="text_31">
     <!-- locality#8 -->
     <g transform="translate(528.499375 337.3025)scale(0.144 -0.144)">
      <use xlink:href="#DejaVuSans-6c"/>
      <use x="27.783203125" xlink:href="#DejaVuSans-6f"/>
      <use x="88.96484375" xlink:href="#DejaVuSans-63"/>
      <use x="143.9453125" xlink:href="#DejaVuSans-61"/>
      <use x="205.224609375" xlink:href="#DejaVuSans-6c"/>
      <use x="233.0078125" xlink:href="#DejaVuSans-69"/>
      <use x="260.791015625" xlink:href="#DejaVuSans-74"/>
      <use x="300.0" xlink:href="#DejaVuSans-79"/>
      <use x="359.1796875" xlink:href="#DejaVuSans-23"/>
      <use x="442.96875" xlink:href="#DejaVuSans-38"/>
     </g>
    </g>
    <g id="line2d_73">
     <path d="
M492.499 353.399
L512.659 353.399" style="fill:none;stroke:#008000;stroke-linecap:square;"/>
    </g>
    <g id="line2d_74"/>
    <g id="text_32">
     <!-- locality#9 -->
     <defs>
      <path d="
M10.9844 1.51562
L10.9844 10.5
Q14.7031 8.73438 18.5 7.8125
Q22.3125 6.89062 25.9844 6.89062
Q35.75 6.89062 40.8906 13.4531
Q46.0469 20.0156 46.7812 33.4062
Q43.9531 29.2031 39.5938 26.9531
Q35.25 24.7031 29.9844 24.7031
Q19.0469 24.7031 12.6719 31.3125
Q6.29688 37.9375 6.29688 49.4219
Q6.29688 60.6406 12.9375 67.4219
Q19.5781 74.2188 30.6094 74.2188
Q43.2656 74.2188 49.9219 64.5156
Q56.5938 54.8281 56.5938 36.375
Q56.5938 19.1406 48.4062 8.85938
Q40.2344 -1.42188 26.4219 -1.42188
Q22.7031 -1.42188 18.8906 -0.6875
Q15.0938 0.046875 10.9844 1.51562
M30.6094 32.4219
Q37.25 32.4219 41.125 36.9531
Q45.0156 41.5 45.0156 49.4219
Q45.0156 57.2812 41.125 61.8438
Q37.25 66.4062 30.6094 66.4062
Q23.9688 66.4062 20.0938 61.8438
Q16.2188 57.2812 16.2188 49.4219
Q16.2188 41.5 20.0938 36.9531
Q23.9688 32.4219 30.6094 32.4219" id="DejaVuSans-39"/>
     </defs>
     <g transform="translate(528.499375 358.439)scale(0.144 -0.144)">
      <use xlink:href="#DejaVuSans-6c"/>
      <use x="27.783203125" xlink:href="#DejaVuSans-6f"/>
      <use x="88.96484375" xlink:href="#DejaVuSans-63"/>
      <use x="143.9453125" xlink:href="#DejaVuSans-61"/>
      <use x="205.224609375" xlink:href="#DejaVuSans-6c"/>
      <use x="233.0078125" xlink:href="#DejaVuSans-69"/>
      <use x="260.791015625" xlink:href="#DejaVuSans-74"/>
      <use x="300.0" xlink:href="#DejaVuSans-79"/>
      <use x="359.1796875" xlink:href="#DejaVuSans-23"/>
      <use x="442.96875" xlink:href="#DejaVuSans-39"/>
     </g>
    </g>
   </g>
  </g>
 </g>
 <defs>
  <clipPath id="p8c776b0f9c">
   <rect height="345.6" width="446.4" x="28.819375" y="23.14175"/>
  </clipPath>
 </defs>
</svg>
