<?xml version="1.0" encoding="utf-8" standalone="no"?>
<!DOCTYPE svg PUBLIC "-//W3C//DTD SVG 1.1//EN"
  "http://www.w3.org/Graphics/SVG/1.1/DTD/svg11.dtd">
<!-- Created with matplotlib (http://matplotlib.org/) -->
<svg height="408pt" version="1.1" viewBox="0 0 621 408" width="621pt" xmlns="http://www.w3.org/2000/svg" xmlns:xlink="http://www.w3.org/1999/xlink">
 <defs>
  <style type="text/css">
*{stroke-linecap:butt;stroke-linejoin:round;}
  </style>
 </defs>
 <g id="figure_1">
  <g id="patch_1">
   <path d="
M0 408.169
L621.285 408.169
L621.285 0
L0 0
z
" style="fill:#ffffff;"/>
  </g>
  <g id="axes_1">
   <g id="patch_2">
    <path d="
M28.6956 368.742
L475.096 368.742
L475.096 23.1417
L28.6956 23.1417
z
" style="fill:#ffffff;"/>
   </g>
   <g id="line2d_1">
    <path clip-path="url(#p2118423672)" d="
M28.6956 368.742
L36.7469 368.742
L37.6415 336.573
L45.6928 336.573
L46.5874 336.46
L53.7441 336.373
L55.5333 336.286
L70.7413 336.239
L71.6359 335.917
L85.9493 335.859
L86.8439 335.703
L93.106 335.61
L94.8952 335.515
L113.682 335.421
L114.576 335.338
L115.471 335.049
L128.89 335.003
L129.784 331.522
L136.046 331.466
L137.836 331.4
L150.36 331.339
L153.938 331.227
L157.516 331.155
L158.411 331.016
L164.673 331.016
L165.568 330.854
L171.83 330.854
L172.724 330.727
L179.881 330.661
L180.776 330.529
L194.195 330.423
L195.984 330.356
L207.613 330.255
L209.403 330.193
L220.138 330.13
L221.927 330.074
L222.821 330.074
L223.716 329.749
L237.135 329.691
L238.924 329.614
L250.554 329.515
L252.343 329.348
L263.078 329.301
L264.867 329.191
L272.918 329.138
L273.813 329.015
L280.075 329.015
L280.97 328.733
L287.232 328.67
L289.916 328.621
L305.124 328.517
L306.913 328.424
L308.702 328.424
L309.597 327.752
L323.015 327.675
L324.805 327.603
L330.172 327.513
L331.067 327.282
L333.751 327.243
L345.38 327.187
L347.169 327.13
L360.588 327.023
L361.483 326.823
L367.745 326.725
L370.429 326.618
L381.164 326.536
L382.953 326.48
L390.11 326.424
L391.899 326.358
L402.634 326.31
L403.528 325.606
L406.212 325.561
L410.685 325.561
L411.58 325.15
L414.264 325.109
L424.999 325.039
L427.682 324.987
L439.312 324.886
L441.996 324.833
L454.52 324.777
L456.309 324.697
L475.096 324.6
L475.096 324.6" style="fill:none;stroke:#0000ff;stroke-linecap:square;"/>
   </g>
   <g id="line2d_2">
    <path clip-path="url(#p2118423672)" d="
M28.6956 368.742
L29.5902 341.562
L46.5874 341.511
L48.3766 341.437
L55.5333 341.437
L57.3225 341.325
L73.4251 341.272
L74.3197 341.156
L89.5277 341.049
L91.3169 340.984
L105.63 340.889
L107.419 340.832
L120.838 340.733
L122.627 340.677
L136.046 340.619
L137.836 340.516
L151.254 340.467
L152.149 340.271
L159.306 340.271
L160.2 339.858
L174.514 339.797
L175.408 339.573
L197.773 339.478
L200.457 339.426
L205.824 339.426
L206.719 338.78
L221.032 338.714
L221.927 338.515
L244.292 338.421
L246.975 338.373
L252.343 338.291
L254.132 338.224
L267.551 338.119
L270.235 338.068
L290.81 337.967
L292.599 337.881
L306.018 337.83
L306.913 337.7
L322.121 337.65
L323.91 337.586
L337.329 337.53
L339.118 337.45
L353.431 337.397
L354.326 337.267
L368.64 337.207
L371.323 337.152
L384.742 337.077
L387.426 337.032
L391.899 337.032
L392.793 336.818
L408.001 336.73
L410.685 336.678
L416.053 336.678
L416.947 336.403
L439.312 336.293
L441.101 336.234
L454.52 336.18
L456.309 336.118
L470.623 336.068
L471.517 335.71
L475.096 335.71
L475.096 335.71" style="fill:none;stroke:#008000;stroke-linecap:square;"/>
   </g>
   <g id="line2d_3">
    <path clip-path="url(#p2118423672)" d="
M28.6956 368.742
L33.1686 368.742
L34.0632 131.558
L37.6415 131.558
L38.5361 131.375
L42.1145 131.375
L43.0091 131.175
L46.5874 131.14
L51.9549 131.052
L52.8495 130.439
L61.7954 130.352
L62.69 130.046
L70.7413 129.979
L71.6359 129.567
L79.6872 129.513
L80.5818 129.393
L91.3169 129.288
L92.2115 129.016
L94.0006 128.952
L103.841 128.846
L106.525 128.79
L108.314 128.79
L109.209 128.559
L111.892 128.559
L112.787 127.925
L119.944 127.881
L121.733 127.796
L127.995 127.737
L128.89 127.174
L131.573 127.174
L132.468 127.006
L136.046 126.914
L138.73 126.873
L144.098 126.815
L144.992 125.871
L151.254 125.818
L152.149 124.686
L153.938 124.622
L160.2 124.568
L161.989 124.509
L168.252 124.405
L170.935 124.353
L171.83 124.353
L172.724 124.216
L179.881 124.166
L180.776 122.775
L187.932 122.708
L189.722 122.65
L195.984 122.601
L197.773 122.534
L199.562 122.534
L200.457 122.221
L203.141 122.182
L207.613 122.122
L209.403 122.061
L212.086 122.061
L212.981 120.794
L220.138 120.724
L221.032 119.961
L227.294 119.906
L229.084 119.849
L235.346 119.791
L236.24 119.53
L243.397 119.458
L245.186 119.39
L251.448 119.329
L252.343 89.2536
L255.027 89.2136
L260.394 89.1375
L263.078 89.0905
L267.551 89.0325
L269.34 88.9703
L276.497 88.8984
L277.391 88.521
L288.126 88.4187
L289.916 88.3413
L296.178 88.2777
L297.967 88.2182
L299.756 88.2182
L300.651 88.0413
L307.807 87.9735
L310.491 87.9238
L315.859 87.8699
L316.753 87.6971
L323.91 87.6307
L324.805 86.3216
L332.856 86.2649
L334.645 86.2082
L340.907 86.1488
L342.696 86.0866
L348.959 86.0161
L350.748 85.9594
L357.01 85.9082
L358.799 85.8446
L361.483 85.8446
L362.377 54.1324
L368.64 54.0826
L370.429 53.9845
L376.691 53.9098
L379.375 53.8587
L384.742 53.7702
L387.426 53.7191
L392.793 53.6416
L394.583 53.5684
L400.845 53.5006
L402.634 53.4315
L405.318 53.4315
L406.212 50.0391
L417.842 49.9285
L418.737 49.3742
L425.893 49.2788
L427.682 49.2083
L437.523 49.106
L440.207 49.059
L450.047 48.9512
L450.942 48.8364
L458.098 48.7839
L458.993 48.3816
L466.15 48.318
L468.834 48.2683
L474.201 48.224
L475.096 48.0305
L475.096 48.0305" style="fill:none;stroke:#ff0000;stroke-linecap:square;"/>
   </g>
   <g id="line2d_4">
    <path clip-path="url(#p2118423672)" d="
M28.6956 368.742
L29.5902 363.617
L33.1686 363.617
L34.0632 363.504
L43.0091 363.432
L43.9036 363.097
L52.8495 363.045
L54.6387 362.84
L62.69 362.754
L64.4792 362.588
L72.5305 362.478
L75.2143 362.43
L77.0034 362.43
L77.898 362.231
L81.4764 362.231
L82.371 361.964
L85.9493 361.964
L86.8439 361.849
L94.0006 361.791
L95.7898 361.734
L98.4736 361.734
L99.3682 361.618
L106.525 361.508
L107.419 361.408
L108.314 361.192
L115.471 361.124
L116.365 360.965
L119.944 360.965
L120.838 360.745
L127.995 360.683
L128.89 360.355
L136.046 360.314
L136.941 359.948
L144.992 359.855
L147.676 359.805
L148.571 359.805
L149.465 359.514
L157.516 359.449
L159.306 359.358
L161.095 359.358
L161.989 359.008
L170.041 358.911
L172.724 358.859
L178.092 358.786
L178.987 358.467
L190.616 358.357
L193.3 358.315
L198.668 358.267
L201.351 358.137
L207.613 358.086
L208.508 357.921
L215.665 357.862
L218.349 357.81
L223.716 357.715
L224.611 356.26
L232.662 356.187
L235.346 356.133
L240.713 356.068
L243.397 356.015
L248.765 355.959
L249.659 355.503
L257.71 355.449
L259.5 355.392
L266.656 355.332
L267.551 325.97
L279.181 325.872
L280.97 325.793
L287.232 325.724
L289.021 325.666
L295.283 325.611
L297.072 325.531
L307.807 325.423
L310.491 325.368
L312.28 325.368
L313.175 325.22
L320.332 325.16
L322.121 325.086
L324.805 325.086
L325.699 324.87
L333.751 324.803
L335.54 324.736
L346.275 324.634
L348.064 324.536
L350.748 324.536
L351.642 318.696
L359.694 318.617
L362.377 318.566
L367.745 318.519
L369.534 318.441
L375.796 318.388
L377.585 318.309
L384.742 318.259
L386.531 318.196
L388.32 318.196
L389.215 317.776
L400.845 317.67
L402.634 317.614
L414.264 317.512
L415.158 316.914
L422.315 316.847
L424.104 316.745
L434.839 316.647
L436.628 316.588
L443.785 316.496
L444.68 316.243
L451.836 316.169
L453.625 316.1
L465.255 315.99
L467.939 315.936
L468.834 315.936
L469.728 315.701
L475.096 315.653
L475.096 315.653" style="fill:none;stroke:#00bfbf;stroke-linecap:square;"/>
   </g>
   <g id="line2d_5">
    <path clip-path="url(#p2118423672)" d="
M28.6956 368.742
L29.5902 363.36
L44.7982 363.261
L47.482 363.218
L54.6387 363.158
L57.3225 363.02
L66.2684 362.931
L68.0575 362.833
L80.5818 362.738
L81.4764 362.576
L85.0547 362.576
L85.9493 362.402
L89.5277 362.402
L90.4223 362.235
L98.4736 362.197
L100.263 362.068
L108.314 362.017
L110.103 361.949
L117.26 361.851
L119.049 361.78
L121.733 361.78
L122.627 361.522
L130.679 361.444
L131.573 361.242
L139.625 361.18
L141.414 361.12
L148.571 361.043
L150.36 360.972
L153.044 360.972
L153.938 360.818
L161.989 360.758
L164.673 360.705
L170.935 360.633
L172.724 360.538
L180.776 360.473
L182.565 360.38
L184.354 360.38
L185.249 360.058
L187.932 360.009
L198.668 359.904
L200.457 359.806
L207.613 359.742
L209.403 359.682
L212.086 359.682
L212.981 359.148
L225.505 359.045
L227.294 358.966
L234.451 358.909
L236.24 358.853
L243.397 358.793
L245.186 358.734
L252.343 358.667
L254.132 358.595
L256.816 358.595
L257.71 358.35
L266.656 358.301
L268.446 358.201
L270.235 358.201
L272.024 358.021
L284.548 357.924
L287.232 357.877
L293.494 357.804
L294.389 357.384
L302.44 357.314
L304.229 357.229
L311.386 357.146
L312.28 356.769
L320.332 356.696
L321.226 356.086
L330.172 356.015
L331.961 355.941
L334.645 355.941
L335.54 355.821
L343.591 355.77
L345.38 355.676
L352.537 355.633
L354.326 355.553
L362.377 355.463
L364.167 355.356
L371.323 355.298
L373.112 355.227
L380.269 355.152
L382.953 355.098
L389.215 355.032
L391.004 354.973
L398.161 354.927
L399.056 354.641
L407.107 354.593
L408.896 354.527
L416.947 354.473
L417.842 354.358
L430.366 354.253
L433.05 354.21
L439.312 354.156
L441.101 354.066
L448.258 353.99
L449.153 353.861
L458.098 353.787
L458.993 353.638
L471.517 353.528
L474.201 353.477
L475.096 353.477
L475.096 353.477" style="fill:none;stroke:#bf00bf;stroke-linecap:square;"/>
   </g>
   <g id="line2d_6">
    <path clip-path="url(#p2118423672)" d="
M28.6956 368.742
L29.5902 362.806
L40.3253 362.719
L42.1145 362.628
L51.9549 362.574
L52.8495 362.276
L58.2171 362.276
L59.1117 362.098
L63.5846 362.098
L64.4792 361.805
L67.163 361.766
L75.2143 361.71
L76.1089 361.541
L85.0547 361.49
L86.8439 361.313
L90.4223 361.313
L91.3169 361.129
L95.7898 361.129
L96.6844 360.872
L105.63 360.815
L106.525 360.694
L115.471 360.649
L117.26 360.488
L126.206 360.426
L127.995 360.37
L135.152 360.276
L136.046 359.942
L138.73 359.904
L145.887 359.861
L146.781 359.737
L155.727 359.65
L156.622 359.411
L165.568 359.341
L168.252 359.295
L180.776 359.195
L182.565 359.121
L185.249 359.121
L186.143 358.853
L188.827 358.815
L195.984 358.71
L196.878 358.487
L205.824 358.411
L207.613 358.324
L210.297 358.324
L212.086 358.213
L221.032 358.159
L222.821 358.097
L230.873 358.037
L232.662 357.978
L240.713 357.926
L242.502 357.856
L245.186 357.856
L246.081 357.548
L260.394 357.438
L263.078 357.388
L265.762 357.388
L266.656 357.062
L271.129 357.062
L272.024 356.903
L285.443 356.807
L288.126 356.652
L300.651 356.553
L302.44 356.477
L310.491 356.42
L311.386 355.97
L314.07 355.928
L325.699 355.825
L326.594 355.619
L331.067 355.619
L331.961 355.478
L341.802 355.394
L343.591 355.322
L346.275 355.322
L347.169 355.204
L351.642 355.204
L352.537 354.97
L366.85 354.86
L368.64 354.801
L372.218 354.801
L373.112 354.651
L376.691 354.651
L377.585 354.328
L386.531 354.258
L389.215 354.205
L401.739 354.109
L404.423 354.057
L412.474 353.978
L414.264 353.903
L416.947 353.903
L417.842 353.785
L426.788 353.717
L428.577 353.644
L437.523 353.535
L439.312 353.458
L447.363 353.361
L449.153 353.303
L457.204 353.248
L458.993 353.175
L462.571 353.175
L463.466 353.047
L472.412 352.997
L474.201 352.932
L475.096 352.932
L475.096 352.932" style="fill:none;stroke:#bfbf00;stroke-linecap:square;"/>
   </g>
   <g id="line2d_7">
    <path clip-path="url(#p2118423672)" d="
M28.6956 368.742
L29.5902 363.308
L41.2199 363.255
L43.0091 363.126
L54.6387 363.046
L55.5333 362.768
L58.2171 362.717
L68.0575 362.655
L70.7413 362.601
L74.3197 362.601
L75.2143 362.4
L77.898 362.345
L80.5818 362.345
L81.4764 361.85
L85.9493 361.85
L86.8439 361.28
L89.5277 361.227
L97.579 361.175
L98.4736 361.042
L109.209 360.996
L110.103 360.868
L126.206 360.768
L128.89 360.719
L136.941 360.657
L137.836 360.111
L153.938 360.011
L154.833 359.842
L170.935 359.732
L171.83 359.571
L182.565 359.474
L183.46 358.765
L187.932 358.765
L188.827 358.651
L199.562 358.601
L201.351 358.53
L216.559 358.432
L219.243 358.389
L227.294 358.331
L228.189 358.101
L244.292 357.993
L246.975 357.946
L249.659 357.946
L250.554 357.74
L261.289 357.684
L263.078 357.623
L278.286 357.519
L280.075 357.459
L283.654 357.459
L284.548 357.334
L295.283 357.291
L297.072 357.216
L306.913 357.168
L307.807 356.844
L323.91 356.735
L326.594 356.687
L335.54 356.586
L338.223 356.54
L352.537 356.45
L353.431 356.151
L364.167 356.1
L365.956 356.025
L374.902 355.981
L375.796 355.797
L386.531 355.75
L387.426 355.608
L403.528 355.501
L406.212 355.457
L408.896 355.457
L409.791 355.241
L420.526 355.204
L421.42 354.807
L432.155 354.738
L433.945 354.682
L443.785 354.618
L445.574 354.555
L455.415 354.445
L457.204 354.35
L466.15 354.26
L468.834 354.22
L472.412 354.22
L473.306 353.74
L475.096 353.74
L475.096 353.74" style="fill:none;stroke:#000000;stroke-linecap:square;"/>
   </g>
   <g id="line2d_8">
    <path clip-path="url(#p2118423672)" d="
M28.6956 368.742
L35.8523 368.742
L36.7469 324.599
L51.0604 324.526
L53.7441 324.473
L66.2684 324.411
L68.9521 324.359
L80.5818 324.313
L82.371 324.246
L93.106 324.195
L94.8952 324.118
L112.787 324.012
L114.576 323.948
L131.573 323.847
L134.257 323.793
L144.098 323.739
L145.887 323.553
L163.779 323.448
L165.568 323.357
L177.197 323.256
L179.881 323.203
L183.46 323.203
L184.354 322.957
L202.246 322.854
L204.035 322.771
L215.665 322.66
L218.349 322.608
L228.189 322.524
L229.978 322.452
L240.713 322.375
L242.502 322.289
L253.238 322.231
L255.027 322.16
L266.656 322.092
L268.446 322.018
L286.337 321.911
L289.021 321.857
L305.124 321.755
L306.018 321.404
L317.648 321.343
L319.437 321.285
L331.067 321.223
L331.961 320.839
L343.591 320.774
L345.38 320.717
L357.01 320.646
L358.799 320.59
L370.429 320.535
L372.218 320.443
L389.215 320.345
L391.004 320.288
L402.634 320.203
L404.423 320.145
L408.896 320.145
L409.791 319.75
L422.315 319.695
L424.104 319.629
L434.839 319.572
L435.734 319.117
L448.258 319.058
L450.047 318.997
L460.782 318.931
L462.571 318.83
L473.306 318.746
L474.201 318.394
L475.096 318.394
L475.096 318.394" style="fill:none;stroke:#0000ff;stroke-linecap:square;"/>
   </g>
   <g id="line2d_9">
    <path clip-path="url(#p2118423672)" d="
M28.6956 368.742
L37.6415 368.742
L38.5361 367.215
L55.5333 367.112
L60.0062 367.032
L74.3197 366.928
L77.898 366.894
L89.5277 366.843
L90.4223 366.679
L93.106 366.639
L97.579 366.639
L98.4736 366.482
L105.63 366.482
L106.525 366.317
L120.838 366.268
L122.627 366.199
L136.941 366.108
L137.836 365.831
L144.098 365.831
L144.992 365.26
L152.149 365.26
L153.044 364.931
L160.2 364.931
L161.095 364.597
L167.357 364.597
L168.252 364.447
L183.46 364.391
L184.354 364.062
L198.668 364.008
L199.562 363.77
L214.77 363.717
L216.559 363.643
L229.978 363.588
L230.873 362.604
L245.186 362.543
L246.975 362.482
L253.238 362.482
L254.132 362.361
L268.446 362.317
L270.235 362.237
L276.497 362.237
L277.391 361.939
L291.705 361.892
L293.494 361.827
L307.807 361.749
L310.491 361.695
L323.015 361.636
L323.91 361.491
L339.118 361.432
L340.907 361.351
L355.221 361.303
L356.115 360.521
L370.429 360.465
L371.323 360.155
L374.902 360.121
L385.637 360.078
L387.426 359.88
L401.739 359.828
L403.528 359.738
L417.842 359.688
L418.737 357.066
L433.05 357.016
L434.839 356.948
L441.101 356.948
L441.996 356.347
L464.361 356.256
L465.255 353.738
L467.939 353.683
L475.096 353.639
L475.096 353.639" style="fill:none;stroke:#008000;stroke-linecap:square;"/>
   </g>
   <g id="line2d_10">
    <path clip-path="url(#p2118423672)" d="
M28.6956 368.742
L36.7469 368.742
L37.6415 345.115
L53.7441 345.059
L55.5333 344.959
L61.7954 344.959
L62.69 344.805
L66.2684 344.77
L70.7413 344.695
L73.4251 344.642
L77.898 344.642
L78.7926 344.41
L81.4764 344.364
L93.106 344.313
L94.0006 343.986
L107.419 343.937
L108.314 343.644
L114.576 343.644
L115.471 343.413
L121.733 343.413
L122.627 343.276
L128.89 343.276
L129.784 340.662
L143.203 340.597
L145.887 340.542
L157.516 340.493
L159.306 340.408
L164.673 340.408
L165.568 340.221
L171.83 340.221
L172.724 339.522
L186.143 339.466
L187.038 339.341
L200.457 339.298
L201.351 339.151
L214.77 339.072
L217.454 339.018
L229.084 338.972
L230.873 338.904
L242.502 338.86
L243.397 338.568
L257.71 338.498
L260.394 338.45
L272.024 338.36
L273.813 338.3
L279.181 338.3
L280.075 338.034
L293.494 337.982
L295.283 337.918
L307.807 337.81
L310.491 337.756
L322.121 337.699
L323.91 337.625
L336.434 337.569
L338.223 337.506
L351.642 337.453
L353.431 337.393
L365.956 337.327
L366.85 336.815
L380.269 336.765
L382.058 336.704
L387.426 336.704
L388.32 336.585
L408.896 336.483
L409.791 336.309
L430.366 336.209
L432.155 336.12
L437.523 336.12
L438.417 336.008
L452.731 335.961
L454.52 335.87
L467.044 335.773
L469.728 335.724
L474.201 335.724
L475.096 334.666
L475.096 334.666" style="fill:none;stroke:#ff0000;stroke-linecap:square;"/>
   </g>
   <g id="line2d_11">
    <path clip-path="url(#p2118423672)" d="
M28.6956 368.742
L29.5902 352.601
L51.0604 352.493
L52.8495 352.408
L58.2171 352.408
L59.1117 352.21
L73.4251 352.107
L75.2143 351.998
L85.9493 351.93
L87.7385 351.79
L93.106 351.79
L94.0006 351.15
L99.3682 351.15
L100.263 350.994
L111.892 350.923
L113.682 350.832
L118.155 350.832
L119.049 350.471
L130.679 350.431
L132.468 350.349
L150.36 350.263
L152.149 350.189
L156.622 350.189
L157.516 350.049
L162.884 350.049
L163.779 349.896
L175.408 349.847
L176.303 349.728
L181.67 349.728
L183.46 349.523
L188.827 349.523
L189.722 349.155
L201.351 349.092
L202.246 348.816
L220.138 348.707
L221.032 348.423
L232.662 348.333
L235.346 348.278
L245.186 348.197
L247.87 348.15
L251.448 348.15
L252.343 346.611
L255.027 346.57
L271.129 346.463
L272.918 346.381
L277.391 346.381
L278.286 344.173
L289.916 344.084
L290.81 343.432
L303.335 343.387
L305.124 343.32
L309.597 343.257
L311.386 343.201
L322.121 343.14
L324.805 343.088
L335.54 343.032
L337.329 342.97
L348.064 342.918
L349.853 342.807
L361.483 342.745
L363.272 342.681
L374.007 342.624
L374.902 342.072
L392.793 341.971
L394.583 341.915
L399.056 341.915
L399.95 341.763
L412.474 341.704
L414.264 341.631
L424.999 341.577
L425.893 341.016
L437.523 340.957
L439.312 340.867
L450.942 340.811
L452.731 340.746
L469.728 340.641
L470.623 338.711
L473.306 338.667
L475.096 338.667
L475.096 338.667" style="fill:none;stroke:#00bfbf;stroke-linecap:square;"/>
   </g>
   <g id="line2d_12">
    <path clip-path="url(#p2118423672)" d="
M28.6956 368.742
L29.5902 357.575
L34.9577 357.575
L35.8523 357.406
L48.3766 357.352
L49.2712 356.999
L61.7954 356.95
L62.69 356.695
L68.0575 356.695
L68.9521 356.566
L79.6872 356.511
L80.5818 356.079
L84.1602 356.043
L97.579 355.942
L98.4736 355.662
L102.947 355.662
L103.841 355.185
L114.576 355.106
L116.365 355.041
L125.311 354.96
L127.1 354.887
L130.679 354.887
L131.573 354.505
L136.941 354.403
L140.519 354.372
L147.676 354.323
L148.571 354.201
L153.044 354.201
L153.938 353.865
L170.041 353.755
L170.935 353.623
L175.408 353.623
L176.303 352.697
L178.987 352.652
L187.038 352.592
L187.932 351.726
L197.773 351.652
L200.457 351.567
L209.403 351.472
L210.297 350.899
L220.138 350.849
L221.927 350.746
L225.505 350.746
L226.4 350.255
L229.084 350.207
L237.135 350.148
L238.924 350.079
L242.502 350.079
L243.397 349.769
L254.132 349.719
L255.027 349.201
L271.129 349.093
L273.813 349.042
L288.126 348.932
L289.021 348.817
L298.862 348.751
L300.651 348.687
L304.229 348.687
L305.124 348.156
L321.226 348.046
L323.015 347.974
L327.488 347.974
L328.383 346.846
L339.118 346.762
L341.802 346.715
L356.115 346.607
L358.799 346.562
L361.483 346.562
L362.377 346.135
L378.48 346.025
L380.269 345.942
L389.215 345.897
L390.11 345.651
L400.845 345.606
L402.634 345.535
L412.474 345.487
L414.264 345.421
L428.577 345.319
L429.472 344.788
L446.469 344.697
L448.258 344.635
L451.836 344.635
L452.731 344.125
L468.834 344.018
L470.623 343.959
L474.201 343.959
L475.096 343.532
L475.096 343.532" style="fill:none;stroke:#bf00bf;stroke-linecap:square;"/>
   </g>
   <g id="line2d_13">
    <path clip-path="url(#p2118423672)" d="
M28.6956 368.742
L29.5902 356.154
L40.3253 356.1
L41.2199 355.164
L51.9549 355.054
L52.8495 354.737
L63.5846 354.68
L65.3738 354.589
L69.8467 354.498
L72.5305 354.456
L80.5818 354.407
L82.371 354.328
L85.0547 354.328
L85.9493 353.802
L94.8952 353.746
L95.7898 353.441
L98.4736 353.391
L100.263 353.391
L101.157 353.117
L110.103 353.046
L110.998 352.187
L125.311 352.086
L126.206 351.937
L129.784 351.937
L130.679 351.807
L139.625 351.709
L140.519 351.06
L144.098 351.024
L144.992 351.024
L145.887 350.827
L154.833 350.779
L155.727 350.499
L164.673 350.434
L166.462 350.366
L170.041 350.366
L170.935 350.155
L179.881 350.105
L180.776 349.963
L184.354 349.963
L185.249 349.761
L187.932 349.716
L199.562 349.605
L200.457 348.328
L214.77 348.225
L216.559 348.166
L219.243 348.166
L220.138 347.962
L229.978 347.879
L232.662 347.83
L238.924 347.736
L241.608 347.682
L254.132 347.578
L256.816 347.526
L263.973 347.475
L266.656 347.373
L274.708 347.278
L276.497 347.214
L284.548 347.166
L285.443 345.054
L294.389 345.002
L296.178 344.907
L304.229 344.851
L306.018 344.785
L318.543 344.682
L320.332 344.543
L329.278 344.484
L331.961 344.429
L339.118 344.358
L340.907 344.295
L354.326 344.202
L357.01 344.152
L359.694 344.152
L360.588 343.936
L374.902 343.834
L375.796 341.656
L384.742 341.585
L386.531 341.525
L394.583 341.474
L396.372 341.376
L409.791 341.271
L411.58 341.186
L419.631 341.093
L421.42 341.034
L434.839 340.933
L435.734 340.756
L444.68 340.706
L446.469 340.643
L450.047 340.643
L450.942 340.488
L459.888 340.421
L462.571 340.371
L469.728 340.306
L472.412 340.251
L475.096 340.251
L475.096 340.251" style="fill:none;stroke:#bfbf00;stroke-linecap:square;"/>
   </g>
   <g id="line2d_14">
    <path clip-path="url(#p2118423672)" d="
M28.6956 368.742
L29.5902 359.269
L38.5361 359.2
L39.4307 359.028
L43.0091 358.992
L50.1658 358.904
L52.8495 358.864
L54.6387 358.864
L55.5333 358.64
L59.1117 358.605
L65.3738 358.556
L66.2684 358.443
L80.5818 358.336
L81.4764 357.699
L85.0547 357.699
L85.9493 357.587
L89.5277 357.587
L91.3169 357.475
L94.0006 357.475
L94.8952 356.961
L102.947 356.908
L103.841 356.738
L107.419 356.738
L108.314 356.464
L110.998 356.42
L116.365 356.374
L118.155 356.297
L120.838 356.297
L121.733 355.69
L125.311 355.69
L126.206 355.491
L129.784 355.491
L130.679 355.264
L138.73 355.198
L140.519 355.122
L147.676 355.05
L149.465 354.899
L152.149 354.899
L153.044 354.216
L161.095 354.15
L161.989 354.037
L170.041 353.989
L172.724 353.882
L174.514 353.882
L175.408 353.509
L177.197 353.441
L184.354 353.381
L187.038 353.328
L192.405 353.262
L195.984 353.182
L197.773 353.182
L198.668 352.521
L206.719 352.43
L208.508 352.361
L215.665 352.28
L216.559 351.378
L224.611 351.324
L226.4 351.241
L232.662 351.174
L233.557 350.733
L236.24 350.693
L242.502 350.617
L245.186 350.566
L246.975 350.566
L247.87 350.428
L255.921 350.371
L256.816 350.248
L264.867 350.194
L266.656 350.134
L269.34 350.134
L270.235 349.925
L282.759 349.821
L284.548 349.763
L291.705 349.685
L292.599 348.097
L300.651 348.04
L302.44 347.978
L309.597 347.917
L311.386 347.86
L314.07 347.86
L314.964 346.653
L316.753 346.591
L328.383 346.496
L331.067 346.446
L332.856 346.446
L333.751 346.32
L341.802 346.275
L342.696 346.156
L350.748 346.087
L353.431 346.035
L360.588 345.931
L362.377 345.867
L368.64 345.819
L369.534 344.147
L373.112 344.112
L382.953 344.017
L385.637 343.967
L391.899 343.91
L393.688 343.847
L400.845 343.785
L402.634 343.688
L409.791 343.635
L411.58 343.576
L423.209 343.471
L424.999 343.411
L432.155 343.357
L433.05 343.141
L441.996 343.079
L443.785 343.013
L450.942 342.95
L452.731 342.888
L459.888 342.803
L462.571 342.754
L464.361 342.754
L465.255 342.262
L473.306 342.182
L475.096 342.102
L475.096 342.102" style="fill:none;stroke:#000000;stroke-linecap:square;"/>
   </g>
   <g id="line2d_15">
    <path clip-path="url(#p2118423672)" d="
M28.6956 368.742
L29.5902 356.251
L33.1686 356.251
L34.0632 356.138
L43.0091 356.033
L45.6928 355.982
L52.8495 355.937
L54.6387 355.828
L58.2171 355.828
L59.1117 355.018
L62.69 355.018
L63.5846 354.901
L77.0034 354.815
L78.7926 354.734
L85.0547 354.69
L85.9493 354.576
L89.5277 354.576
L90.4223 353.495
L98.4736 353.442
L99.3682 352.768
L106.525 352.688
L108.314 352.631
L115.471 352.537
L121.733 352.429
L123.522 352.429
L124.417 352.288
L127.1 352.288
L127.995 352.153
L131.573 352.153
L132.468 352.012
L139.625 351.944
L140.519 351.148
L152.149 351.056
L154.833 351.003
L160.2 350.94
L161.095 350.737
L166.462 350.631
L173.619 350.529
L175.408 350.47
L181.67 350.423
L182.565 350.258
L194.195 350.164
L195.089 349.898
L202.246 349.821
L203.141 349.658
L210.297 349.617
L211.192 349.311
L212.981 349.244
L222.821 349.159
L224.611 349.086
L230.873 349.011
L232.662 348.951
L239.819 348.884
L241.608 348.819
L243.397 348.819
L244.292 348.242
L246.975 348.201
L252.343 348.135
L254.132 348.053
L255.921 348.053
L257.71 347.847
L260.394 347.847
L261.289 347.465
L263.973 347.417
L268.446 347.363
L270.235 347.207
L281.864 347.096
L284.548 347.041
L285.443 347.041
L286.337 346.878
L294.389 346.82
L297.072 346.766
L297.967 346.766
L298.862 346.167
L306.913 346.113
L307.807 345.719
L314.964 345.657
L316.753 345.579
L323.015 345.523
L324.805 345.428
L336.434 345.333
L339.118 345.278
L344.486 345.217
L345.38 344.743
L353.431 344.692
L354.326 343.621
L365.956 343.536
L368.64 343.484
L370.429 343.433
L372.218 343.357
L378.48 343.279
L381.164 343.237
L386.531 343.179
L387.426 342.991
L399.056 342.88
L399.95 342.034
L408.001 341.976
L409.791 341.918
L420.526 341.811
L422.315 341.703
L428.577 341.646
L430.366 341.569
L436.628 341.501
L438.417 341.393
L445.574 341.339
L446.469 341.213
L458.098 341.114
L459.888 341.056
L462.571 341.056
L463.466 337.559
L471.517 337.488
L474.201 337.435
L475.096 337.435
L475.096 337.435" style="fill:none;stroke:#0000ff;stroke-linecap:square;"/>
   </g>
   <g id="line2d_16">
    <path clip-path="url(#p2118423672)" d="
M28.6956 368.742
L33.1686 368.742
L34.0632 367.083
L37.6415 367.083
L38.5361 366.958
L47.482 366.863
L48.3766 366.577
L51.9549 366.577
L52.8495 366.284
L61.7954 366.232
L63.5846 366.165
L70.7413 366.067
L71.6359 365.802
L79.6872 365.734
L80.5818 364.2
L87.7385 364.142
L88.6331 363.722
L95.7898 363.662
L96.6844 362.644
L103.841 362.561
L105.63 362.495
L111.892 362.442
L112.787 361.931
L119.944 361.863
L121.733 361.785
L124.417 361.785
L125.311 361.115
L131.573 361.06
L133.363 360.989
L140.519 360.912
L143.203 360.858
L144.098 360.858
L144.992 360.314
L148.571 360.27
L150.36 360.193
L152.149 360.193
L153.044 359.797
L155.727 359.797
L156.622 359.49
L163.779 359.407
L164.673 359.255
L176.303 359.155
L178.092 359.083
L187.932 358.979
L190.616 358.93
L192.405 358.93
L193.3 358.818
L200.457 358.752
L202.246 358.681
L208.508 358.613
L210.297 358.541
L212.086 358.541
L212.981 358.28
L220.138 358.23
L221.927 358.16
L228.189 358.105
L229.084 357.867
L236.24 357.805
L238.029 357.738
L244.292 357.682
L245.186 357.247
L256.816 357.143
L258.605 357.079
L264.867 357.009
L266.656 356.935
L268.446 356.935
L269.34 354.932
L276.497 354.83
L278.286 354.765
L284.548 354.705
L287.232 354.651
L292.599 354.587
L295.283 354.533
L296.178 354.533
L297.072 354.195
L299.756 354.154
L305.124 354.092
L306.913 354.036
L313.175 353.935
L314.07 352.284
L321.226 352.207
L323.015 352.137
L329.278 352.077
L331.067 352.003
L337.329 351.954
L339.118 351.892
L345.38 351.809
L346.275 351.155
L357.904 351.044
L360.588 350.998
L365.956 350.942
L367.745 350.885
L374.007 350.834
L374.902 350.691
L385.637 350.588
L387.426 350.525
L389.215 350.525
L390.11 350.227
L391.899 350.168
L398.161 350.11
L399.95 350.045
L406.212 349.984
L408.896 349.933
L414.264 349.871
L416.053 349.802
L422.315 349.717
L424.104 349.638
L434.839 349.545
L435.734 349.335
L442.89 349.275
L444.68 349.218
L450.942 349.15
L451.836 348.849
L458.993 348.797
L459.888 347.518
L471.517 347.423
L473.306 347.325
L475.096 347.325
L475.096 347.325" style="fill:none;stroke:#008000;stroke-linecap:square;"/>
   </g>
   <g id="patch_3">
    <path d="
M28.6956 23.1417
L475.096 23.1417" style="fill:none;stroke:#000000;stroke-linecap:square;stroke-linejoin:miter;"/>
   </g>
   <g id="patch_4">
    <path d="
M475.096 368.742
L475.096 23.1417" style="fill:none;stroke:#000000;stroke-linecap:square;stroke-linejoin:miter;"/>
   </g>
   <g id="patch_5">
    <path d="
M28.6956 368.742
L475.096 368.742" style="fill:none;stroke:#000000;stroke-linecap:square;stroke-linejoin:miter;"/>
   </g>
   <g id="patch_6">
    <path d="
M28.6956 368.742
L28.6956 23.1417" style="fill:none;stroke:#000000;stroke-linecap:square;stroke-linejoin:miter;"/>
   </g>
   <g id="matplotlib.axis_1">
    <g id="xtick_1">
     <g id="line2d_17">
      <defs>
       <path d="
M0 0
L0 -4" id="m93b0483c22" style="stroke:#000000;stroke-width:0.5;"/>
      </defs>
      <g>
       <use style="stroke:#000000;stroke-width:0.5;" x="28.695625" xlink:href="#m93b0483c22" y="368.74175"/>
      </g>
     </g>
     <g id="line2d_18">
      <defs>
       <path d="
M0 0
L0 4" id="m741efc42ff" style="stroke:#000000;stroke-width:0.5;"/>
      </defs>
      <g>
       <use style="stroke:#000000;stroke-width:0.5;" x="28.695625" xlink:href="#m741efc42ff" y="23.14175"/>
      </g>
     </g>
     <g id="text_1">
      <!-- 0 -->
      <defs>
       <path d="
M31.7812 66.4062
Q24.1719 66.4062 20.3281 58.9062
Q16.5 51.4219 16.5 36.375
Q16.5 21.3906 20.3281 13.8906
Q24.1719 6.39062 31.7812 6.39062
Q39.4531 6.39062 43.2812 13.8906
Q47.125 21.3906 47.125 36.375
Q47.125 51.4219 43.2812 58.9062
Q39.4531 66.4062 31.7812 66.4062
M31.7812 74.2188
Q44.0469 74.2188 50.5156 64.5156
Q56.9844 54.8281 56.9844 36.375
Q56.9844 17.9688 50.5156 8.26562
Q44.0469 -1.42188 31.7812 -1.42188
Q19.5312 -1.42188 13.0625 8.26562
Q6.59375 17.9688 6.59375 36.375
Q6.59375 54.8281 13.0625 64.5156
Q19.5312 74.2188 31.7812 74.2188" id="DejaVuSans-30"/>
      </defs>
      <g transform="translate(25.6721875 381.859875)scale(0.12 -0.12)">
       <use xlink:href="#DejaVuSans-30"/>
      </g>
     </g>
    </g>
    <g id="xtick_2">
     <g id="line2d_19">
      <g>
       <use style="stroke:#000000;stroke-width:0.5;" x="118.154542836" xlink:href="#m93b0483c22" y="368.74175"/>
      </g>
     </g>
     <g id="line2d_20">
      <g>
       <use style="stroke:#000000;stroke-width:0.5;" x="118.154542836" xlink:href="#m741efc42ff" y="23.14175"/>
      </g>
     </g>
     <g id="text_2">
      <!-- 100 -->
      <defs>
       <path d="
M12.4062 8.29688
L28.5156 8.29688
L28.5156 63.9219
L10.9844 60.4062
L10.9844 69.3906
L28.4219 72.9062
L38.2812 72.9062
L38.2812 8.29688
L54.3906 8.29688
L54.3906 0
L12.4062 0
z
" id="DejaVuSans-31"/>
      </defs>
      <g transform="translate(107.759542836 381.859875)scale(0.12 -0.12)">
       <use xlink:href="#DejaVuSans-31"/>
       <use x="63.623046875" xlink:href="#DejaVuSans-30"/>
       <use x="127.24609375" xlink:href="#DejaVuSans-30"/>
      </g>
     </g>
    </g>
    <g id="xtick_3">
     <g id="line2d_21">
      <g>
       <use style="stroke:#000000;stroke-width:0.5;" x="207.613460671" xlink:href="#m93b0483c22" y="368.74175"/>
      </g>
     </g>
     <g id="line2d_22">
      <g>
       <use style="stroke:#000000;stroke-width:0.5;" x="207.613460671" xlink:href="#m741efc42ff" y="23.14175"/>
      </g>
     </g>
     <g id="text_3">
      <!-- 200 -->
      <defs>
       <path d="
M19.1875 8.29688
L53.6094 8.29688
L53.6094 0
L7.32812 0
L7.32812 8.29688
Q12.9375 14.1094 22.625 23.8906
Q32.3281 33.6875 34.8125 36.5312
Q39.5469 41.8438 41.4219 45.5312
Q43.3125 49.2188 43.3125 52.7812
Q43.3125 58.5938 39.2344 62.25
Q35.1562 65.9219 28.6094 65.9219
Q23.9688 65.9219 18.8125 64.3125
Q13.6719 62.7031 7.8125 59.4219
L7.8125 69.3906
Q13.7656 71.7812 18.9375 73
Q24.125 74.2188 28.4219 74.2188
Q39.75 74.2188 46.4844 68.5469
Q53.2188 62.8906 53.2188 53.4219
Q53.2188 48.9219 51.5312 44.8906
Q49.8594 40.875 45.4062 35.4062
Q44.1875 33.9844 37.6406 27.2188
Q31.1094 20.4531 19.1875 8.29688" id="DejaVuSans-32"/>
      </defs>
      <g transform="translate(196.999085671 381.859875)scale(0.12 -0.12)">
       <use xlink:href="#DejaVuSans-32"/>
       <use x="63.623046875" xlink:href="#DejaVuSans-30"/>
       <use x="127.24609375" xlink:href="#DejaVuSans-30"/>
      </g>
     </g>
    </g>
    <g id="xtick_4">
     <g id="line2d_23">
      <g>
       <use style="stroke:#000000;stroke-width:0.5;" x="297.072378507" xlink:href="#m93b0483c22" y="368.74175"/>
      </g>
     </g>
     <g id="line2d_24">
      <g>
       <use style="stroke:#000000;stroke-width:0.5;" x="297.072378507" xlink:href="#m741efc42ff" y="23.14175"/>
      </g>
     </g>
     <g id="text_4">
      <!-- 300 -->
      <defs>
       <path d="
M40.5781 39.3125
Q47.6562 37.7969 51.625 33
Q55.6094 28.2188 55.6094 21.1875
Q55.6094 10.4062 48.1875 4.48438
Q40.7656 -1.42188 27.0938 -1.42188
Q22.5156 -1.42188 17.6562 -0.515625
Q12.7969 0.390625 7.625 2.20312
L7.625 11.7188
Q11.7188 9.32812 16.5938 8.10938
Q21.4844 6.89062 26.8125 6.89062
Q36.0781 6.89062 40.9375 10.5469
Q45.7969 14.2031 45.7969 21.1875
Q45.7969 27.6406 41.2812 31.2656
Q36.7656 34.9062 28.7188 34.9062
L20.2188 34.9062
L20.2188 43.0156
L29.1094 43.0156
Q36.375 43.0156 40.2344 45.9219
Q44.0938 48.8281 44.0938 54.2969
Q44.0938 59.9062 40.1094 62.9062
Q36.1406 65.9219 28.7188 65.9219
Q24.6562 65.9219 20.0156 65.0312
Q15.375 64.1562 9.8125 62.3125
L9.8125 71.0938
Q15.4375 72.6562 20.3438 73.4375
Q25.25 74.2188 29.5938 74.2188
Q40.8281 74.2188 47.3594 69.1094
Q53.9062 64.0156 53.9062 55.3281
Q53.9062 49.2656 50.4375 45.0938
Q46.9688 40.9219 40.5781 39.3125" id="DejaVuSans-33"/>
      </defs>
      <g transform="translate(286.475816007 381.859875)scale(0.12 -0.12)">
       <use xlink:href="#DejaVuSans-33"/>
       <use x="63.623046875" xlink:href="#DejaVuSans-30"/>
       <use x="127.24609375" xlink:href="#DejaVuSans-30"/>
      </g>
     </g>
    </g>
    <g id="xtick_5">
     <g id="line2d_25">
      <g>
       <use style="stroke:#000000;stroke-width:0.5;" x="386.531296343" xlink:href="#m93b0483c22" y="368.74175"/>
      </g>
     </g>
     <g id="line2d_26">
      <g>
       <use style="stroke:#000000;stroke-width:0.5;" x="386.531296343" xlink:href="#m741efc42ff" y="23.14175"/>
      </g>
     </g>
     <g id="text_5">
      <!-- 400 -->
      <defs>
       <path d="
M37.7969 64.3125
L12.8906 25.3906
L37.7969 25.3906
z

M35.2031 72.9062
L47.6094 72.9062
L47.6094 25.3906
L58.0156 25.3906
L58.0156 17.1875
L47.6094 17.1875
L47.6094 0
L37.7969 0
L37.7969 17.1875
L4.89062 17.1875
L4.89062 26.7031
z
" id="DejaVuSans-34"/>
      </defs>
      <g transform="translate(375.770671343 381.859875)scale(0.12 -0.12)">
       <use xlink:href="#DejaVuSans-34"/>
       <use x="63.623046875" xlink:href="#DejaVuSans-30"/>
       <use x="127.24609375" xlink:href="#DejaVuSans-30"/>
      </g>
     </g>
    </g>
    <g id="text_6">
     <!-- time -->
     <defs>
      <path d="
M18.3125 70.2188
L18.3125 54.6875
L36.8125 54.6875
L36.8125 47.7031
L18.3125 47.7031
L18.3125 18.0156
Q18.3125 11.3281 20.1406 9.42188
Q21.9688 7.51562 27.5938 7.51562
L36.8125 7.51562
L36.8125 0
L27.5938 0
Q17.1875 0 13.2344 3.875
Q9.28125 7.76562 9.28125 18.0156
L9.28125 47.7031
L2.6875 47.7031
L2.6875 54.6875
L9.28125 54.6875
L9.28125 70.2188
z
" id="DejaVuSans-74"/>
      <path d="
M52 44.1875
Q55.375 50.25 60.0625 53.125
Q64.75 56 71.0938 56
Q79.6406 56 84.2812 50.0156
Q88.9219 44.0469 88.9219 33.0156
L88.9219 0
L79.8906 0
L79.8906 32.7188
Q79.8906 40.5781 77.0938 44.375
Q74.3125 48.1875 68.6094 48.1875
Q61.625 48.1875 57.5625 43.5469
Q53.5156 38.9219 53.5156 30.9062
L53.5156 0
L44.4844 0
L44.4844 32.7188
Q44.4844 40.625 41.7031 44.4062
Q38.9219 48.1875 33.1094 48.1875
Q26.2188 48.1875 22.1562 43.5312
Q18.1094 38.875 18.1094 30.9062
L18.1094 0
L9.07812 0
L9.07812 54.6875
L18.1094 54.6875
L18.1094 46.1875
Q21.1875 51.2188 25.4844 53.6094
Q29.7812 56 35.6875 56
Q41.6562 56 45.8281 52.9688
Q50 49.9531 52 44.1875" id="DejaVuSans-6d"/>
      <path d="
M56.2031 29.5938
L56.2031 25.2031
L14.8906 25.2031
Q15.4844 15.9219 20.4844 11.0625
Q25.4844 6.20312 34.4219 6.20312
Q39.5938 6.20312 44.4531 7.46875
Q49.3125 8.73438 54.1094 11.2812
L54.1094 2.78125
Q49.2656 0.734375 44.1875 -0.34375
Q39.1094 -1.42188 33.8906 -1.42188
Q20.7969 -1.42188 13.1562 6.1875
Q5.51562 13.8125 5.51562 26.8125
Q5.51562 40.2344 12.7656 48.1094
Q20.0156 56 32.3281 56
Q43.3594 56 49.7812 48.8906
Q56.2031 41.7969 56.2031 29.5938
M47.2188 32.2344
Q47.125 39.5938 43.0938 43.9844
Q39.0625 48.3906 32.4219 48.3906
Q24.9062 48.3906 20.3906 44.1406
Q15.875 39.8906 15.1875 32.1719
z
" id="DejaVuSans-65"/>
      <path d="
M9.42188 54.6875
L18.4062 54.6875
L18.4062 0
L9.42188 0
z

M9.42188 75.9844
L18.4062 75.9844
L18.4062 64.5938
L9.42188 64.5938
z
" id="DejaVuSans-69"/>
     </defs>
     <g transform="translate(238.82125 398.473625)scale(0.12 -0.12)">
      <use xlink:href="#DejaVuSans-74"/>
      <use x="39.208984375" xlink:href="#DejaVuSans-69"/>
      <use x="66.9921875" xlink:href="#DejaVuSans-6d"/>
      <use x="164.404296875" xlink:href="#DejaVuSans-65"/>
     </g>
    </g>
   </g>
   <g id="matplotlib.axis_2">
    <g id="ytick_1">
     <g id="line2d_27">
      <defs>
       <path d="
M0 0
L4 0" id="m728421d6d4" style="stroke:#000000;stroke-width:0.5;"/>
      </defs>
      <g>
       <use style="stroke:#000000;stroke-width:0.5;" x="28.695625" xlink:href="#m728421d6d4" y="368.74175"/>
      </g>
     </g>
     <g id="line2d_28">
      <defs>
       <path d="
M0 0
L-4 0" id="mcb0005524f" style="stroke:#000000;stroke-width:0.5;"/>
      </defs>
      <g>
       <use style="stroke:#000000;stroke-width:0.5;" x="475.095625" xlink:href="#mcb0005524f" y="368.74175"/>
      </g>
     </g>
     <g id="text_7">
      <!-- 0.0 -->
      <defs>
       <path d="
M10.6875 12.4062
L21 12.4062
L21 0
L10.6875 0
z
" id="DejaVuSans-2e"/>
      </defs>
      <g transform="translate(7.2 372.053)scale(0.12 -0.12)">
       <use xlink:href="#DejaVuSans-30"/>
       <use x="63.623046875" xlink:href="#DejaVuSans-2e"/>
       <use x="95.41015625" xlink:href="#DejaVuSans-30"/>
      </g>
     </g>
    </g>
    <g id="ytick_2">
     <g id="line2d_29">
      <g>
       <use style="stroke:#000000;stroke-width:0.5;" x="28.695625" xlink:href="#m728421d6d4" y="299.62175"/>
      </g>
     </g>
     <g id="line2d_30">
      <g>
       <use style="stroke:#000000;stroke-width:0.5;" x="475.095625" xlink:href="#mcb0005524f" y="299.62175"/>
      </g>
     </g>
     <g id="text_8">
      <!-- 0.5 -->
      <defs>
       <path d="
M10.7969 72.9062
L49.5156 72.9062
L49.5156 64.5938
L19.8281 64.5938
L19.8281 46.7344
Q21.9688 47.4688 24.1094 47.8281
Q26.2656 48.1875 28.4219 48.1875
Q40.625 48.1875 47.75 41.5
Q54.8906 34.8125 54.8906 23.3906
Q54.8906 11.625 47.5625 5.09375
Q40.2344 -1.42188 26.9062 -1.42188
Q22.3125 -1.42188 17.5469 -0.640625
Q12.7969 0.140625 7.71875 1.70312
L7.71875 11.625
Q12.1094 9.23438 16.7969 8.0625
Q21.4844 6.89062 26.7031 6.89062
Q35.1562 6.89062 40.0781 11.3281
Q45.0156 15.7656 45.0156 23.3906
Q45.0156 31 40.0781 35.4375
Q35.1562 39.8906 26.7031 39.8906
Q22.75 39.8906 18.8125 39.0156
Q14.8906 38.1406 10.7969 36.2812
z
" id="DejaVuSans-35"/>
      </defs>
      <g transform="translate(7.45125 302.933)scale(0.12 -0.12)">
       <use xlink:href="#DejaVuSans-30"/>
       <use x="63.623046875" xlink:href="#DejaVuSans-2e"/>
       <use x="95.41015625" xlink:href="#DejaVuSans-35"/>
      </g>
     </g>
    </g>
    <g id="ytick_3">
     <g id="line2d_31">
      <g>
       <use style="stroke:#000000;stroke-width:0.5;" x="28.695625" xlink:href="#m728421d6d4" y="230.50175"/>
      </g>
     </g>
     <g id="line2d_32">
      <g>
       <use style="stroke:#000000;stroke-width:0.5;" x="475.095625" xlink:href="#mcb0005524f" y="230.50175"/>
      </g>
     </g>
     <g id="text_9">
      <!-- 1.0 -->
      <g transform="translate(7.726875 233.813)scale(0.12 -0.12)">
       <use xlink:href="#DejaVuSans-31"/>
       <use x="63.623046875" xlink:href="#DejaVuSans-2e"/>
       <use x="95.41015625" xlink:href="#DejaVuSans-30"/>
      </g>
     </g>
    </g>
    <g id="ytick_4">
     <g id="line2d_33">
      <g>
       <use style="stroke:#000000;stroke-width:0.5;" x="28.695625" xlink:href="#m728421d6d4" y="161.38175"/>
      </g>
     </g>
     <g id="line2d_34">
      <g>
       <use style="stroke:#000000;stroke-width:0.5;" x="475.095625" xlink:href="#mcb0005524f" y="161.38175"/>
      </g>
     </g>
     <g id="text_10">
      <!-- 1.5 -->
      <g transform="translate(7.978125 164.693)scale(0.12 -0.12)">
       <use xlink:href="#DejaVuSans-31"/>
       <use x="63.623046875" xlink:href="#DejaVuSans-2e"/>
       <use x="95.41015625" xlink:href="#DejaVuSans-35"/>
      </g>
     </g>
    </g>
    <g id="ytick_5">
     <g id="line2d_35">
      <g>
       <use style="stroke:#000000;stroke-width:0.5;" x="28.695625" xlink:href="#m728421d6d4" y="92.26175"/>
      </g>
     </g>
     <g id="line2d_36">
      <g>
       <use style="stroke:#000000;stroke-width:0.5;" x="475.095625" xlink:href="#mcb0005524f" y="92.26175"/>
      </g>
     </g>
     <g id="text_11">
      <!-- 2.0 -->
      <g transform="translate(7.288125 95.573)scale(0.12 -0.12)">
       <use xlink:href="#DejaVuSans-32"/>
       <use x="63.623046875" xlink:href="#DejaVuSans-2e"/>
       <use x="95.41015625" xlink:href="#DejaVuSans-30"/>
      </g>
     </g>
    </g>
    <g id="ytick_6">
     <g id="line2d_37">
      <g>
       <use style="stroke:#000000;stroke-width:0.5;" x="28.695625" xlink:href="#m728421d6d4" y="23.14175"/>
      </g>
     </g>
     <g id="line2d_38">
      <g>
       <use style="stroke:#000000;stroke-width:0.5;" x="475.095625" xlink:href="#mcb0005524f" y="23.14175"/>
      </g>
     </g>
     <g id="text_12">
      <!-- 2.5 -->
      <g transform="translate(7.539375 26.453)scale(0.12 -0.12)">
       <use xlink:href="#DejaVuSans-32"/>
       <use x="63.623046875" xlink:href="#DejaVuSans-2e"/>
       <use x="95.41015625" xlink:href="#DejaVuSans-35"/>
      </g>
     </g>
    </g>
    <g id="text_13">
     <!-- 1e7 -->
     <defs>
      <path d="
M8.20312 72.9062
L55.0781 72.9062
L55.0781 68.7031
L28.6094 0
L18.3125 0
L43.2188 64.5938
L8.20312 64.5938
z
" id="DejaVuSans-37"/>
     </defs>
     <g transform="translate(28.695625 20.14175)scale(0.12 -0.12)">
      <use xlink:href="#DejaVuSans-31"/>
      <use x="63.623046875" xlink:href="#DejaVuSans-65"/>
      <use x="125.146484375" xlink:href="#DejaVuSans-37"/>
     </g>
    </g>
   </g>
   <g id="text_14">
    <!-- /agas/time/unbind_gid -->
    <defs>
     <path d="
M25.3906 72.9062
L33.6875 72.9062
L8.29688 -9.28125
L0 -9.28125
z
" id="DejaVuSans-2f"/>
     <path d="
M54.8906 33.0156
L54.8906 0
L45.9062 0
L45.9062 32.7188
Q45.9062 40.4844 42.875 44.3281
Q39.8438 48.1875 33.7969 48.1875
Q26.5156 48.1875 22.3125 43.5469
Q18.1094 38.9219 18.1094 30.9062
L18.1094 0
L9.07812 0
L9.07812 54.6875
L18.1094 54.6875
L18.1094 46.1875
Q21.3438 51.125 25.7031 53.5625
Q30.0781 56 35.7969 56
Q45.2188 56 50.0469 50.1719
Q54.8906 44.3438 54.8906 33.0156" id="DejaVuSans-6e"/>
     <path d="
M50.9844 -16.6094
L50.9844 -23.5781
L-0.984375 -23.5781
L-0.984375 -16.6094
z
" id="DejaVuSans-5f"/>
     <path d="
M8.5 21.5781
L8.5 54.6875
L17.4844 54.6875
L17.4844 21.9219
Q17.4844 14.1562 20.5 10.2656
Q23.5312 6.39062 29.5938 6.39062
Q36.8594 6.39062 41.0781 11.0312
Q45.3125 15.6719 45.3125 23.6875
L45.3125 54.6875
L54.2969 54.6875
L54.2969 0
L45.3125 0
L45.3125 8.40625
Q42.0469 3.42188 37.7188 1
Q33.4062 -1.42188 27.6875 -1.42188
Q18.2656 -1.42188 13.375 4.4375
Q8.5 10.2969 8.5 21.5781
M31.1094 56
z
" id="DejaVuSans-75"/>
     <path d="
M45.4062 27.9844
Q45.4062 37.75 41.375 43.1094
Q37.3594 48.4844 30.0781 48.4844
Q22.8594 48.4844 18.8281 43.1094
Q14.7969 37.75 14.7969 27.9844
Q14.7969 18.2656 18.8281 12.8906
Q22.8594 7.51562 30.0781 7.51562
Q37.3594 7.51562 41.375 12.8906
Q45.4062 18.2656 45.4062 27.9844
M54.3906 6.78125
Q54.3906 -7.17188 48.1875 -13.9844
Q42 -20.7969 29.2031 -20.7969
Q24.4688 -20.7969 20.2656 -20.0938
Q16.0625 -19.3906 12.1094 -17.9219
L12.1094 -9.1875
Q16.0625 -11.3281 19.9219 -12.3438
Q23.7812 -13.375 27.7812 -13.375
Q36.625 -13.375 41.0156 -8.76562
Q45.4062 -4.15625 45.4062 5.17188
L45.4062 9.625
Q42.625 4.78125 38.2812 2.39062
Q33.9375 0 27.875 0
Q17.8281 0 11.6719 7.65625
Q5.51562 15.3281 5.51562 27.9844
Q5.51562 40.6719 11.6719 48.3281
Q17.8281 56 27.875 56
Q33.9375 56 38.2812 53.6094
Q42.625 51.2188 45.4062 46.3906
L45.4062 54.6875
L54.3906 54.6875
z
" id="DejaVuSans-67"/>
     <path d="
M45.4062 46.3906
L45.4062 75.9844
L54.3906 75.9844
L54.3906 0
L45.4062 0
L45.4062 8.20312
Q42.5781 3.32812 38.25 0.953125
Q33.9375 -1.42188 27.875 -1.42188
Q17.9688 -1.42188 11.7344 6.48438
Q5.51562 14.4062 5.51562 27.2969
Q5.51562 40.1875 11.7344 48.0938
Q17.9688 56 27.875 56
Q33.9375 56 38.25 53.625
Q42.5781 51.2656 45.4062 46.3906
M14.7969 27.2969
Q14.7969 17.3906 18.875 11.75
Q22.9531 6.10938 30.0781 6.10938
Q37.2031 6.10938 41.2969 11.75
Q45.4062 17.3906 45.4062 27.2969
Q45.4062 37.2031 41.2969 42.8438
Q37.2031 48.4844 30.0781 48.4844
Q22.9531 48.4844 18.875 42.8438
Q14.7969 37.2031 14.7969 27.2969" id="DejaVuSans-64"/>
     <path d="
M48.6875 27.2969
Q48.6875 37.2031 44.6094 42.8438
Q40.5312 48.4844 33.4062 48.4844
Q26.2656 48.4844 22.1875 42.8438
Q18.1094 37.2031 18.1094 27.2969
Q18.1094 17.3906 22.1875 11.75
Q26.2656 6.10938 33.4062 6.10938
Q40.5312 6.10938 44.6094 11.75
Q48.6875 17.3906 48.6875 27.2969
M18.1094 46.3906
Q20.9531 51.2656 25.2656 53.625
Q29.5938 56 35.5938 56
Q45.5625 56 51.7812 48.0938
Q58.0156 40.1875 58.0156 27.2969
Q58.0156 14.4062 51.7812 6.48438
Q45.5625 -1.42188 35.5938 -1.42188
Q29.5938 -1.42188 25.2656 0.953125
Q20.9531 3.32812 18.1094 8.20312
L18.1094 0
L9.07812 0
L9.07812 75.9844
L18.1094 75.9844
z
" id="DejaVuSans-62"/>
     <path d="
M44.2812 53.0781
L44.2812 44.5781
Q40.4844 46.5312 36.375 47.5
Q32.2812 48.4844 27.875 48.4844
Q21.1875 48.4844 17.8438 46.4375
Q14.5 44.3906 14.5 40.2812
Q14.5 37.1562 16.8906 35.375
Q19.2812 33.5938 26.5156 31.9844
L29.5938 31.2969
Q39.1562 29.25 43.1875 25.5156
Q47.2188 21.7812 47.2188 15.0938
Q47.2188 7.46875 41.1875 3.01562
Q35.1562 -1.42188 24.6094 -1.42188
Q20.2188 -1.42188 15.4531 -0.5625
Q10.6875 0.296875 5.42188 2
L5.42188 11.2812
Q10.4062 8.6875 15.2344 7.39062
Q20.0625 6.10938 24.8125 6.10938
Q31.1562 6.10938 34.5625 8.28125
Q37.9844 10.4531 37.9844 14.4062
Q37.9844 18.0625 35.5156 20.0156
Q33.0625 21.9688 24.7031 23.7812
L21.5781 24.5156
Q13.2344 26.2656 9.51562 29.9062
Q5.8125 33.5469 5.8125 39.8906
Q5.8125 47.6094 11.2812 51.7969
Q16.75 56 26.8125 56
Q31.7812 56 36.1719 55.2656
Q40.5781 54.5469 44.2812 53.0781" id="DejaVuSans-73"/>
     <path d="
M34.2812 27.4844
Q23.3906 27.4844 19.1875 25
Q14.9844 22.5156 14.9844 16.5
Q14.9844 11.7188 18.1406 8.90625
Q21.2969 6.10938 26.7031 6.10938
Q34.1875 6.10938 38.7031 11.4062
Q43.2188 16.7031 43.2188 25.4844
L43.2188 27.4844
z

M52.2031 31.2031
L52.2031 0
L43.2188 0
L43.2188 8.29688
Q40.1406 3.32812 35.5469 0.953125
Q30.9531 -1.42188 24.3125 -1.42188
Q15.9219 -1.42188 10.9531 3.29688
Q6 8.01562 6 15.9219
Q6 25.1406 12.1719 29.8281
Q18.3594 34.5156 30.6094 34.5156
L43.2188 34.5156
L43.2188 35.4062
Q43.2188 41.6094 39.1406 45
Q35.0625 48.3906 27.6875 48.3906
Q23 48.3906 18.5469 47.2656
Q14.1094 46.1406 10.0156 43.8906
L10.0156 52.2031
Q14.9375 54.1094 19.5781 55.0469
Q24.2188 56 28.6094 56
Q40.4844 56 46.3438 49.8438
Q52.2031 43.7031 52.2031 31.2031" id="DejaVuSans-61"/>
    </defs>
    <g transform="translate(172.288375 18.14175)scale(0.144 -0.144)">
     <use xlink:href="#DejaVuSans-2f"/>
     <use x="33.69140625" xlink:href="#DejaVuSans-61"/>
     <use x="94.970703125" xlink:href="#DejaVuSans-67"/>
     <use x="158.447265625" xlink:href="#DejaVuSans-61"/>
     <use x="219.7265625" xlink:href="#DejaVuSans-73"/>
     <use x="271.826171875" xlink:href="#DejaVuSans-2f"/>
     <use x="305.517578125" xlink:href="#DejaVuSans-74"/>
     <use x="344.7265625" xlink:href="#DejaVuSans-69"/>
     <use x="372.509765625" xlink:href="#DejaVuSans-6d"/>
     <use x="469.921875" xlink:href="#DejaVuSans-65"/>
     <use x="531.4453125" xlink:href="#DejaVuSans-2f"/>
     <use x="565.13671875" xlink:href="#DejaVuSans-75"/>
     <use x="628.515625" xlink:href="#DejaVuSans-6e"/>
     <use x="691.89453125" xlink:href="#DejaVuSans-62"/>
     <use x="755.37109375" xlink:href="#DejaVuSans-69"/>
     <use x="783.154296875" xlink:href="#DejaVuSans-6e"/>
     <use x="846.533203125" xlink:href="#DejaVuSans-64"/>
     <use x="910.009765625" xlink:href="#DejaVuSans-5f"/>
     <use x="960.009765625" xlink:href="#DejaVuSans-67"/>
     <use x="1023.48632812" xlink:href="#DejaVuSans-69"/>
     <use x="1051.26953125" xlink:href="#DejaVuSans-64"/>
    </g>
   </g>
   <g id="legend_1">
    <g id="patch_7">
     <path d="
M482.296 367.194
L614.085 367.194
L614.085 24.6897
L482.296 24.6897
z
" style="fill:#ffffff;stroke:#000000;stroke-linejoin:miter;"/>
    </g>
    <g id="line2d_39">
     <path d="
M492.376 36.3515
L512.536 36.3515" style="fill:none;stroke:#0000ff;stroke-linecap:square;"/>
    </g>
    <g id="line2d_40"/>
    <g id="text_15">
     <!-- locality#0 -->
     <defs>
      <path d="
M30.6094 48.3906
Q23.3906 48.3906 19.1875 42.75
Q14.9844 37.1094 14.9844 27.2969
Q14.9844 17.4844 19.1562 11.8438
Q23.3438 6.20312 30.6094 6.20312
Q37.7969 6.20312 41.9844 11.8594
Q46.1875 17.5312 46.1875 27.2969
Q46.1875 37.0156 41.9844 42.7031
Q37.7969 48.3906 30.6094 48.3906
M30.6094 56
Q42.3281 56 49.0156 48.375
Q55.7188 40.7656 55.7188 27.2969
Q55.7188 13.875 49.0156 6.21875
Q42.3281 -1.42188 30.6094 -1.42188
Q18.8438 -1.42188 12.1719 6.21875
Q5.51562 13.875 5.51562 27.2969
Q5.51562 40.7656 12.1719 48.375
Q18.8438 56 30.6094 56" id="DejaVuSans-6f"/>
      <path d="
M51.125 44
L36.9219 44
L32.8125 27.6875
L47.125 27.6875
z

M43.7969 71.7812
L38.7188 51.5156
L52.9844 51.5156
L58.1094 71.7812
L65.9219 71.7812
L60.8906 51.5156
L76.125 51.5156
L76.125 44
L58.9844 44
L54.9844 27.6875
L70.5156 27.6875
L70.5156 20.2188
L53.0781 20.2188
L48 0
L40.1875 0
L45.2188 20.2188
L30.9062 20.2188
L25.875 0
L18.0156 0
L23.0938 20.2188
L7.71875 20.2188
L7.71875 27.6875
L24.9062 27.6875
L29 44
L13.2812 44
L13.2812 51.5156
L30.9062 51.5156
L35.8906 71.7812
z
" id="DejaVuSans-23"/>
      <path d="
M32.1719 -5.07812
Q28.375 -14.8438 24.75 -17.8125
Q21.1406 -20.7969 15.0938 -20.7969
L7.90625 -20.7969
L7.90625 -13.2812
L13.1875 -13.2812
Q16.8906 -13.2812 18.9375 -11.5156
Q21 -9.76562 23.4844 -3.21875
L25.0938 0.875
L2.98438 54.6875
L12.5 54.6875
L29.5938 11.9219
L46.6875 54.6875
L56.2031 54.6875
z
" id="DejaVuSans-79"/>
      <path d="
M9.42188 75.9844
L18.4062 75.9844
L18.4062 0
L9.42188 0
z
" id="DejaVuSans-6c"/>
      <path d="
M48.7812 52.5938
L48.7812 44.1875
Q44.9688 46.2969 41.1406 47.3438
Q37.3125 48.3906 33.4062 48.3906
Q24.6562 48.3906 19.8125 42.8438
Q14.9844 37.3125 14.9844 27.2969
Q14.9844 17.2812 19.8125 11.7344
Q24.6562 6.20312 33.4062 6.20312
Q37.3125 6.20312 41.1406 7.25
Q44.9688 8.29688 48.7812 10.4062
L48.7812 2.09375
Q45.0156 0.34375 40.9844 -0.53125
Q36.9688 -1.42188 32.4219 -1.42188
Q20.0625 -1.42188 12.7812 6.34375
Q5.51562 14.1094 5.51562 27.2969
Q5.51562 40.6719 12.8594 48.3281
Q20.2188 56 33.0156 56
Q37.1562 56 41.1094 55.1406
Q45.0625 54.2969 48.7812 52.5938" id="DejaVuSans-63"/>
     </defs>
     <g transform="translate(528.375625 41.3915)scale(0.144 -0.144)">
      <use xlink:href="#DejaVuSans-6c"/>
      <use x="27.783203125" xlink:href="#DejaVuSans-6f"/>
      <use x="88.96484375" xlink:href="#DejaVuSans-63"/>
      <use x="143.9453125" xlink:href="#DejaVuSans-61"/>
      <use x="205.224609375" xlink:href="#DejaVuSans-6c"/>
      <use x="233.0078125" xlink:href="#DejaVuSans-69"/>
      <use x="260.791015625" xlink:href="#DejaVuSans-74"/>
      <use x="300.0" xlink:href="#DejaVuSans-79"/>
      <use x="359.1796875" xlink:href="#DejaVuSans-23"/>
      <use x="442.96875" xlink:href="#DejaVuSans-30"/>
     </g>
    </g>
    <g id="line2d_41">
     <path d="
M492.376 57.488
L512.536 57.488" style="fill:none;stroke:#008000;stroke-linecap:square;"/>
    </g>
    <g id="line2d_42"/>
    <g id="text_16">
     <!-- locality#1 -->
     <g transform="translate(528.375625 62.528)scale(0.144 -0.144)">
      <use xlink:href="#DejaVuSans-6c"/>
      <use x="27.783203125" xlink:href="#DejaVuSans-6f"/>
      <use x="88.96484375" xlink:href="#DejaVuSans-63"/>
      <use x="143.9453125" xlink:href="#DejaVuSans-61"/>
      <use x="205.224609375" xlink:href="#DejaVuSans-6c"/>
      <use x="233.0078125" xlink:href="#DejaVuSans-69"/>
      <use x="260.791015625" xlink:href="#DejaVuSans-74"/>
      <use x="300.0" xlink:href="#DejaVuSans-79"/>
      <use x="359.1796875" xlink:href="#DejaVuSans-23"/>
      <use x="442.96875" xlink:href="#DejaVuSans-31"/>
     </g>
    </g>
    <g id="line2d_43">
     <path d="
M492.376 78.6245
L512.536 78.6245" style="fill:none;stroke:#ff0000;stroke-linecap:square;"/>
    </g>
    <g id="line2d_44"/>
    <g id="text_17">
     <!-- locality#10 -->
     <g transform="translate(528.375625 83.6645)scale(0.144 -0.144)">
      <use xlink:href="#DejaVuSans-6c"/>
      <use x="27.783203125" xlink:href="#DejaVuSans-6f"/>
      <use x="88.96484375" xlink:href="#DejaVuSans-63"/>
      <use x="143.9453125" xlink:href="#DejaVuSans-61"/>
      <use x="205.224609375" xlink:href="#DejaVuSans-6c"/>
      <use x="233.0078125" xlink:href="#DejaVuSans-69"/>
      <use x="260.791015625" xlink:href="#DejaVuSans-74"/>
      <use x="300.0" xlink:href="#DejaVuSans-79"/>
      <use x="359.1796875" xlink:href="#DejaVuSans-23"/>
      <use x="442.96875" xlink:href="#DejaVuSans-31"/>
      <use x="506.591796875" xlink:href="#DejaVuSans-30"/>
     </g>
    </g>
    <g id="line2d_45">
     <path d="
M492.376 99.761
L512.536 99.761" style="fill:none;stroke:#00bfbf;stroke-linecap:square;"/>
    </g>
    <g id="line2d_46"/>
    <g id="text_18">
     <!-- locality#11 -->
     <g transform="translate(528.375625 104.801)scale(0.144 -0.144)">
      <use xlink:href="#DejaVuSans-6c"/>
      <use x="27.783203125" xlink:href="#DejaVuSans-6f"/>
      <use x="88.96484375" xlink:href="#DejaVuSans-63"/>
      <use x="143.9453125" xlink:href="#DejaVuSans-61"/>
      <use x="205.224609375" xlink:href="#DejaVuSans-6c"/>
      <use x="233.0078125" xlink:href="#DejaVuSans-69"/>
      <use x="260.791015625" xlink:href="#DejaVuSans-74"/>
      <use x="300.0" xlink:href="#DejaVuSans-79"/>
      <use x="359.1796875" xlink:href="#DejaVuSans-23"/>
      <use x="442.96875" xlink:href="#DejaVuSans-31"/>
      <use x="506.591796875" xlink:href="#DejaVuSans-31"/>
     </g>
    </g>
    <g id="line2d_47">
     <path d="
M492.376 120.897
L512.536 120.897" style="fill:none;stroke:#bf00bf;stroke-linecap:square;"/>
    </g>
    <g id="line2d_48"/>
    <g id="text_19">
     <!-- locality#12 -->
     <g transform="translate(528.375625 125.9375)scale(0.144 -0.144)">
      <use xlink:href="#DejaVuSans-6c"/>
      <use x="27.783203125" xlink:href="#DejaVuSans-6f"/>
      <use x="88.96484375" xlink:href="#DejaVuSans-63"/>
      <use x="143.9453125" xlink:href="#DejaVuSans-61"/>
      <use x="205.224609375" xlink:href="#DejaVuSans-6c"/>
      <use x="233.0078125" xlink:href="#DejaVuSans-69"/>
      <use x="260.791015625" xlink:href="#DejaVuSans-74"/>
      <use x="300.0" xlink:href="#DejaVuSans-79"/>
      <use x="359.1796875" xlink:href="#DejaVuSans-23"/>
      <use x="442.96875" xlink:href="#DejaVuSans-31"/>
      <use x="506.591796875" xlink:href="#DejaVuSans-32"/>
     </g>
    </g>
    <g id="line2d_49">
     <path d="
M492.376 142.034
L512.536 142.034" style="fill:none;stroke:#bfbf00;stroke-linecap:square;"/>
    </g>
    <g id="line2d_50"/>
    <g id="text_20">
     <!-- locality#13 -->
     <g transform="translate(528.375625 147.074)scale(0.144 -0.144)">
      <use xlink:href="#DejaVuSans-6c"/>
      <use x="27.783203125" xlink:href="#DejaVuSans-6f"/>
      <use x="88.96484375" xlink:href="#DejaVuSans-63"/>
      <use x="143.9453125" xlink:href="#DejaVuSans-61"/>
      <use x="205.224609375" xlink:href="#DejaVuSans-6c"/>
      <use x="233.0078125" xlink:href="#DejaVuSans-69"/>
      <use x="260.791015625" xlink:href="#DejaVuSans-74"/>
      <use x="300.0" xlink:href="#DejaVuSans-79"/>
      <use x="359.1796875" xlink:href="#DejaVuSans-23"/>
      <use x="442.96875" xlink:href="#DejaVuSans-31"/>
      <use x="506.591796875" xlink:href="#DejaVuSans-33"/>
     </g>
    </g>
    <g id="line2d_51">
     <path d="
M492.376 163.17
L512.536 163.17" style="fill:none;stroke:#000000;stroke-linecap:square;"/>
    </g>
    <g id="line2d_52"/>
    <g id="text_21">
     <!-- locality#14 -->
     <g transform="translate(528.375625 168.2105)scale(0.144 -0.144)">
      <use xlink:href="#DejaVuSans-6c"/>
      <use x="27.783203125" xlink:href="#DejaVuSans-6f"/>
      <use x="88.96484375" xlink:href="#DejaVuSans-63"/>
      <use x="143.9453125" xlink:href="#DejaVuSans-61"/>
      <use x="205.224609375" xlink:href="#DejaVuSans-6c"/>
      <use x="233.0078125" xlink:href="#DejaVuSans-69"/>
      <use x="260.791015625" xlink:href="#DejaVuSans-74"/>
      <use x="300.0" xlink:href="#DejaVuSans-79"/>
      <use x="359.1796875" xlink:href="#DejaVuSans-23"/>
      <use x="442.96875" xlink:href="#DejaVuSans-31"/>
      <use x="506.591796875" xlink:href="#DejaVuSans-34"/>
     </g>
    </g>
    <g id="line2d_53">
     <path d="
M492.376 184.307
L512.536 184.307" style="fill:none;stroke:#0000ff;stroke-linecap:square;"/>
    </g>
    <g id="line2d_54"/>
    <g id="text_22">
     <!-- locality#15 -->
     <g transform="translate(528.375625 189.347)scale(0.144 -0.144)">
      <use xlink:href="#DejaVuSans-6c"/>
      <use x="27.783203125" xlink:href="#DejaVuSans-6f"/>
      <use x="88.96484375" xlink:href="#DejaVuSans-63"/>
      <use x="143.9453125" xlink:href="#DejaVuSans-61"/>
      <use x="205.224609375" xlink:href="#DejaVuSans-6c"/>
      <use x="233.0078125" xlink:href="#DejaVuSans-69"/>
      <use x="260.791015625" xlink:href="#DejaVuSans-74"/>
      <use x="300.0" xlink:href="#DejaVuSans-79"/>
      <use x="359.1796875" xlink:href="#DejaVuSans-23"/>
      <use x="442.96875" xlink:href="#DejaVuSans-31"/>
      <use x="506.591796875" xlink:href="#DejaVuSans-35"/>
     </g>
    </g>
    <g id="line2d_55">
     <path d="
M492.376 205.443
L512.536 205.443" style="fill:none;stroke:#008000;stroke-linecap:square;"/>
    </g>
    <g id="line2d_56"/>
    <g id="text_23">
     <!-- locality#2 -->
     <g transform="translate(528.375625 210.4835)scale(0.144 -0.144)">
      <use xlink:href="#DejaVuSans-6c"/>
      <use x="27.783203125" xlink:href="#DejaVuSans-6f"/>
      <use x="88.96484375" xlink:href="#DejaVuSans-63"/>
      <use x="143.9453125" xlink:href="#DejaVuSans-61"/>
      <use x="205.224609375" xlink:href="#DejaVuSans-6c"/>
      <use x="233.0078125" xlink:href="#DejaVuSans-69"/>
      <use x="260.791015625" xlink:href="#DejaVuSans-74"/>
      <use x="300.0" xlink:href="#DejaVuSans-79"/>
      <use x="359.1796875" xlink:href="#DejaVuSans-23"/>
      <use x="442.96875" xlink:href="#DejaVuSans-32"/>
     </g>
    </g>
    <g id="line2d_57">
     <path d="
M492.376 226.58
L512.536 226.58" style="fill:none;stroke:#ff0000;stroke-linecap:square;"/>
    </g>
    <g id="line2d_58"/>
    <g id="text_24">
     <!-- locality#3 -->
     <g transform="translate(528.375625 231.62)scale(0.144 -0.144)">
      <use xlink:href="#DejaVuSans-6c"/>
      <use x="27.783203125" xlink:href="#DejaVuSans-6f"/>
      <use x="88.96484375" xlink:href="#DejaVuSans-63"/>
      <use x="143.9453125" xlink:href="#DejaVuSans-61"/>
      <use x="205.224609375" xlink:href="#DejaVuSans-6c"/>
      <use x="233.0078125" xlink:href="#DejaVuSans-69"/>
      <use x="260.791015625" xlink:href="#DejaVuSans-74"/>
      <use x="300.0" xlink:href="#DejaVuSans-79"/>
      <use x="359.1796875" xlink:href="#DejaVuSans-23"/>
      <use x="442.96875" xlink:href="#DejaVuSans-33"/>
     </g>
    </g>
    <g id="line2d_59">
     <path d="
M492.376 247.716
L512.536 247.716" style="fill:none;stroke:#00bfbf;stroke-linecap:square;"/>
    </g>
    <g id="line2d_60"/>
    <g id="text_25">
     <!-- locality#4 -->
     <g transform="translate(528.375625 252.7565)scale(0.144 -0.144)">
      <use xlink:href="#DejaVuSans-6c"/>
      <use x="27.783203125" xlink:href="#DejaVuSans-6f"/>
      <use x="88.96484375" xlink:href="#DejaVuSans-63"/>
      <use x="143.9453125" xlink:href="#DejaVuSans-61"/>
      <use x="205.224609375" xlink:href="#DejaVuSans-6c"/>
      <use x="233.0078125" xlink:href="#DejaVuSans-69"/>
      <use x="260.791015625" xlink:href="#DejaVuSans-74"/>
      <use x="300.0" xlink:href="#DejaVuSans-79"/>
      <use x="359.1796875" xlink:href="#DejaVuSans-23"/>
      <use x="442.96875" xlink:href="#DejaVuSans-34"/>
     </g>
    </g>
    <g id="line2d_61">
     <path d="
M492.376 268.853
L512.536 268.853" style="fill:none;stroke:#bf00bf;stroke-linecap:square;"/>
    </g>
    <g id="line2d_62"/>
    <g id="text_26">
     <!-- locality#5 -->
     <g transform="translate(528.375625 273.893)scale(0.144 -0.144)">
      <use xlink:href="#DejaVuSans-6c"/>
      <use x="27.783203125" xlink:href="#DejaVuSans-6f"/>
      <use x="88.96484375" xlink:href="#DejaVuSans-63"/>
      <use x="143.9453125" xlink:href="#DejaVuSans-61"/>
      <use x="205.224609375" xlink:href="#DejaVuSans-6c"/>
      <use x="233.0078125" xlink:href="#DejaVuSans-69"/>
      <use x="260.791015625" xlink:href="#DejaVuSans-74"/>
      <use x="300.0" xlink:href="#DejaVuSans-79"/>
      <use x="359.1796875" xlink:href="#DejaVuSans-23"/>
      <use x="442.96875" xlink:href="#DejaVuSans-35"/>
     </g>
    </g>
    <g id="line2d_63">
     <path d="
M492.376 289.989
L512.536 289.989" style="fill:none;stroke:#bfbf00;stroke-linecap:square;"/>
    </g>
    <g id="line2d_64"/>
    <g id="text_27">
     <!-- locality#6 -->
     <defs>
      <path d="
M33.0156 40.375
Q26.375 40.375 22.4844 35.8281
Q18.6094 31.2969 18.6094 23.3906
Q18.6094 15.5312 22.4844 10.9531
Q26.375 6.39062 33.0156 6.39062
Q39.6562 6.39062 43.5312 10.9531
Q47.4062 15.5312 47.4062 23.3906
Q47.4062 31.2969 43.5312 35.8281
Q39.6562 40.375 33.0156 40.375
M52.5938 71.2969
L52.5938 62.3125
Q48.875 64.0625 45.0938 64.9844
Q41.3125 65.9219 37.5938 65.9219
Q27.8281 65.9219 22.6719 59.3281
Q17.5312 52.7344 16.7969 39.4062
Q19.6719 43.6562 24.0156 45.9219
Q28.375 48.1875 33.5938 48.1875
Q44.5781 48.1875 50.9531 41.5156
Q57.3281 34.8594 57.3281 23.3906
Q57.3281 12.1562 50.6875 5.35938
Q44.0469 -1.42188 33.0156 -1.42188
Q20.3594 -1.42188 13.6719 8.26562
Q6.98438 17.9688 6.98438 36.375
Q6.98438 53.6562 15.1875 63.9375
Q23.3906 74.2188 37.2031 74.2188
Q40.9219 74.2188 44.7031 73.4844
Q48.4844 72.75 52.5938 71.2969" id="DejaVuSans-36"/>
     </defs>
     <g transform="translate(528.375625 295.0295)scale(0.144 -0.144)">
      <use xlink:href="#DejaVuSans-6c"/>
      <use x="27.783203125" xlink:href="#DejaVuSans-6f"/>
      <use x="88.96484375" xlink:href="#DejaVuSans-63"/>
      <use x="143.9453125" xlink:href="#DejaVuSans-61"/>
      <use x="205.224609375" xlink:href="#DejaVuSans-6c"/>
      <use x="233.0078125" xlink:href="#DejaVuSans-69"/>
      <use x="260.791015625" xlink:href="#DejaVuSans-74"/>
      <use x="300.0" xlink:href="#DejaVuSans-79"/>
      <use x="359.1796875" xlink:href="#DejaVuSans-23"/>
      <use x="442.96875" xlink:href="#DejaVuSans-36"/>
     </g>
    </g>
    <g id="line2d_65">
     <path d="
M492.376 311.126
L512.536 311.126" style="fill:none;stroke:#000000;stroke-linecap:square;"/>
    </g>
    <g id="line2d_66"/>
    <g id="text_28">
     <!-- locality#7 -->
     <g transform="translate(528.375625 316.166)scale(0.144 -0.144)">
      <use xlink:href="#DejaVuSans-6c"/>
      <use x="27.783203125" xlink:href="#DejaVuSans-6f"/>
      <use x="88.96484375" xlink:href="#DejaVuSans-63"/>
      <use x="143.9453125" xlink:href="#DejaVuSans-61"/>
      <use x="205.224609375" xlink:href="#DejaVuSans-6c"/>
      <use x="233.0078125" xlink:href="#DejaVuSans-69"/>
      <use x="260.791015625" xlink:href="#DejaVuSans-74"/>
      <use x="300.0" xlink:href="#DejaVuSans-79"/>
      <use x="359.1796875" xlink:href="#DejaVuSans-23"/>
      <use x="442.96875" xlink:href="#DejaVuSans-37"/>
     </g>
    </g>
    <g id="line2d_67">
     <path d="
M492.376 332.262
L512.536 332.262" style="fill:none;stroke:#0000ff;stroke-linecap:square;"/>
    </g>
    <g id="line2d_68"/>
    <g id="text_29">
     <!-- locality#8 -->
     <defs>
      <path d="
M31.7812 34.625
Q24.75 34.625 20.7188 30.8594
Q16.7031 27.0938 16.7031 20.5156
Q16.7031 13.9219 20.7188 10.1562
Q24.75 6.39062 31.7812 6.39062
Q38.8125 6.39062 42.8594 10.1719
Q46.9219 13.9688 46.9219 20.5156
Q46.9219 27.0938 42.8906 30.8594
Q38.875 34.625 31.7812 34.625
M21.9219 38.8125
Q15.5781 40.375 12.0312 44.7188
Q8.5 49.0781 8.5 55.3281
Q8.5 64.0625 14.7188 69.1406
Q20.9531 74.2188 31.7812 74.2188
Q42.6719 74.2188 48.875 69.1406
Q55.0781 64.0625 55.0781 55.3281
Q55.0781 49.0781 51.5312 44.7188
Q48 40.375 41.7031 38.8125
Q48.8281 37.1562 52.7969 32.3125
Q56.7812 27.4844 56.7812 20.5156
Q56.7812 9.90625 50.3125 4.23438
Q43.8438 -1.42188 31.7812 -1.42188
Q19.7344 -1.42188 13.25 4.23438
Q6.78125 9.90625 6.78125 20.5156
Q6.78125 27.4844 10.7812 32.3125
Q14.7969 37.1562 21.9219 38.8125
M18.3125 54.3906
Q18.3125 48.7344 21.8438 45.5625
Q25.3906 42.3906 31.7812 42.3906
Q38.1406 42.3906 41.7188 45.5625
Q45.3125 48.7344 45.3125 54.3906
Q45.3125 60.0625 41.7188 63.2344
Q38.1406 66.4062 31.7812 66.4062
Q25.3906 66.4062 21.8438 63.2344
Q18.3125 60.0625 18.3125 54.3906" id="DejaVuSans-38"/>
     </defs>
     <g transform="translate(528.375625 337.3025)scale(0.144 -0.144)">
      <use xlink:href="#DejaVuSans-6c"/>
      <use x="27.783203125" xlink:href="#DejaVuSans-6f"/>
      <use x="88.96484375" xlink:href="#DejaVuSans-63"/>
      <use x="143.9453125" xlink:href="#DejaVuSans-61"/>
      <use x="205.224609375" xlink:href="#DejaVuSans-6c"/>
      <use x="233.0078125" xlink:href="#DejaVuSans-69"/>
      <use x="260.791015625" xlink:href="#DejaVuSans-74"/>
      <use x="300.0" xlink:href="#DejaVuSans-79"/>
      <use x="359.1796875" xlink:href="#DejaVuSans-23"/>
      <use x="442.96875" xlink:href="#DejaVuSans-38"/>
     </g>
    </g>
    <g id="line2d_69">
     <path d="
M492.376 353.399
L512.536 353.399" style="fill:none;stroke:#008000;stroke-linecap:square;"/>
    </g>
    <g id="line2d_70"/>
    <g id="text_30">
     <!-- locality#9 -->
     <defs>
      <path d="
M10.9844 1.51562
L10.9844 10.5
Q14.7031 8.73438 18.5 7.8125
Q22.3125 6.89062 25.9844 6.89062
Q35.75 6.89062 40.8906 13.4531
Q46.0469 20.0156 46.7812 33.4062
Q43.9531 29.2031 39.5938 26.9531
Q35.25 24.7031 29.9844 24.7031
Q19.0469 24.7031 12.6719 31.3125
Q6.29688 37.9375 6.29688 49.4219
Q6.29688 60.6406 12.9375 67.4219
Q19.5781 74.2188 30.6094 74.2188
Q43.2656 74.2188 49.9219 64.5156
Q56.5938 54.8281 56.5938 36.375
Q56.5938 19.1406 48.4062 8.85938
Q40.2344 -1.42188 26.4219 -1.42188
Q22.7031 -1.42188 18.8906 -0.6875
Q15.0938 0.046875 10.9844 1.51562
M30.6094 32.4219
Q37.25 32.4219 41.125 36.9531
Q45.0156 41.5 45.0156 49.4219
Q45.0156 57.2812 41.125 61.8438
Q37.25 66.4062 30.6094 66.4062
Q23.9688 66.4062 20.0938 61.8438
Q16.2188 57.2812 16.2188 49.4219
Q16.2188 41.5 20.0938 36.9531
Q23.9688 32.4219 30.6094 32.4219" id="DejaVuSans-39"/>
     </defs>
     <g transform="translate(528.375625 358.439)scale(0.144 -0.144)">
      <use xlink:href="#DejaVuSans-6c"/>
      <use x="27.783203125" xlink:href="#DejaVuSans-6f"/>
      <use x="88.96484375" xlink:href="#DejaVuSans-63"/>
      <use x="143.9453125" xlink:href="#DejaVuSans-61"/>
      <use x="205.224609375" xlink:href="#DejaVuSans-6c"/>
      <use x="233.0078125" xlink:href="#DejaVuSans-69"/>
      <use x="260.791015625" xlink:href="#DejaVuSans-74"/>
      <use x="300.0" xlink:href="#DejaVuSans-79"/>
      <use x="359.1796875" xlink:href="#DejaVuSans-23"/>
      <use x="442.96875" xlink:href="#DejaVuSans-39"/>
     </g>
    </g>
   </g>
  </g>
 </g>
 <defs>
  <clipPath id="p2118423672">
   <rect height="345.6" width="446.4" x="28.695625" y="23.14175"/>
  </clipPath>
 </defs>
</svg>
