<?xml version="1.0" encoding="utf-8" standalone="no"?>
<!DOCTYPE svg PUBLIC "-//W3C//DTD SVG 1.1//EN"
  "http://www.w3.org/Graphics/SVG/1.1/DTD/svg11.dtd">
<!-- Created with matplotlib (http://matplotlib.org/) -->
<svg height="408pt" version="1.1" viewBox="0 0 655 408" width="655pt" xmlns="http://www.w3.org/2000/svg" xmlns:xlink="http://www.w3.org/1999/xlink">
 <defs>
  <style type="text/css">
*{stroke-linecap:butt;stroke-linejoin:round;}
  </style>
 </defs>
 <g id="figure_1">
  <g id="patch_1">
   <path d="
M0 408.169
L655.85 408.169
L655.85 0
L0 0
z
" style="fill:#ffffff;"/>
  </g>
  <g id="axes_1">
   <g id="patch_2">
    <path d="
M63.2613 368.742
L509.661 368.742
L509.661 23.1417
L63.2613 23.1417
z
" style="fill:#ffffff;"/>
   </g>
   <g id="line2d_1">
    <path clip-path="url(#p3f6fae7697)" d="
M63.2613 368.538
L64.1558 367.726
L88.3097 352.474
L101.729 344.028
L103.518 342.802
L110.674 338.205
L114.253 335.649
L116.042 334.421
L120.515 331.209
L123.199 329.409
L126.777 326.873
L128.566 325.625
L132.145 323.075
L133.934 321.841
L139.301 317.956
L141.091 316.726
L143.774 314.835
L145.563 313.607
L151.826 309.068
L153.615 307.833
L158.088 304.605
L159.877 303.384
L165.244 299.489
L172.401 294.274
L174.19 293.044
L178.663 289.822
L181.347 288.038
L187.609 283.479
L192.977 279.599
L194.766 278.364
L197.45 276.472
L199.239 275.252
L207.29 269.37
L209.974 267.579
L212.658 265.682
L224.287 257.343
L229.655 253.461
L232.339 251.666
L238.601 247.123
L240.39 245.892
L246.652 241.335
L248.441 240.107
L255.598 234.889
L257.387 233.661
L263.649 229.108
L265.438 227.881
L273.49 221.998
L275.279 220.77
L279.752 217.548
L281.541 216.32
L285.119 213.764
L286.909 212.536
L291.381 209.319
L294.065 207.516
L297.644 204.968
L299.433 203.741
L307.484 197.962
L310.168 196.172
L313.746 193.615
L315.535 192.387
L327.165 183.845
L328.954 182.616
L334.322 178.728
L336.111 177.501
L338.795 175.614
L341.478 173.826
L347.741 169.267
L356.687 162.827
L359.37 161.04
L362.949 158.475
L364.738 157.249
L369.211 154.129
L371.895 152.238
L379.051 147.122
L382.63 144.578
L385.313 142.777
L387.997 140.891
L390.681 139.096
L394.259 136.554
L396.048 135.312
L400.521 132.103
L402.311 130.862
L406.783 127.64
L408.573 126.419
L413.94 122.422
L415.729 121.201
L421.097 117.306
L426.464 113.429
L429.148 111.636
L436.305 106.418
L438.989 104.623
L441.672 102.739
L443.462 101.504
L446.145 99.6127
L448.829 97.823
L451.513 95.9372
L453.302 94.7034
L459.564 90.1507
L461.353 88.9302
L465.826 85.5974
L467.616 84.3705
L472.089 81.1484
L474.772 79.3605
L478.351 76.8065
L481.034 75.0111
L485.507 71.793
L487.297 70.5638
L509.661 54.6576
L509.661 54.6576" style="fill:none;stroke:#0000ff;stroke-linecap:square;"/>
   </g>
   <g id="line2d_2">
    <path clip-path="url(#p3f6fae7697)" d="
M63.2613 368.701
L64.1558 368.392
L67.7342 366.756
L110.674 347.471
L114.253 345.594
L116.042 344.702
L120.515 342.334
L123.199 341.043
L126.777 339.17
L128.566 338.274
L132.145 336.398
L133.934 335.506
L139.301 332.641
L141.091 331.75
L143.774 330.366
L145.563 329.475
L151.826 326.119
L153.615 325.221
L158.088 322.854
L159.877 321.963
L169.717 316.629
L171.507 315.739
L175.085 313.863
L176.874 312.97
L180.452 311.092
L182.242 310.201
L192.977 304.472
L194.766 303.58
L197.45 302.196
L199.239 301.305
L207.29 296.961
L209.974 295.663
L213.552 293.806
L215.341 292.902
L221.604 289.543
L223.393 288.652
L229.655 285.294
L232.339 284.006
L238.601 280.648
L240.39 279.75
L246.652 276.397
L248.441 275.507
L255.598 271.654
L257.387 270.763
L263.649 267.404
L265.438 266.514
L273.49 262.167
L275.279 261.276
L279.752 258.905
L281.541 258.014
L285.119 256.137
L286.909 255.246
L291.381 252.875
L293.171 251.983
L302.117 247.433
L307.484 244.568
L310.168 243.28
L313.746 241.403
L315.535 240.512
L327.165 234.191
L328.954 233.3
L334.322 230.435
L336.111 229.544
L338.795 228.161
L341.478 226.872
L348.635 223.023
L350.424 222.129
L356.687 218.772
L359.37 217.481
L362.949 215.605
L365.632 214.259
L369.211 212.439
L372.789 210.575
L375.473 209.273
L382.63 205.423
L385.313 204.133
L387.997 202.752
L390.681 201.461
L394.259 199.587
L396.048 198.693
L400.521 196.325
L402.311 195.43
L406.783 193.058
L408.573 192.167
L418.413 186.835
L420.202 185.94
L426.464 182.587
L429.148 181.295
L436.305 177.446
L438.989 176.157
L441.672 174.774
L443.462 173.882
L446.145 172.497
L448.829 171.21
L451.513 169.827
L453.302 168.935
L459.564 165.576
L461.353 164.682
L468.51 160.834
L470.299 159.942
L473.878 158.064
L477.456 156.282
L480.14 154.898
L483.718 153.117
L488.191 150.755
L489.98 149.855
L494.453 147.484
L497.137 146.196
L502.505 143.33
L505.188 142.043
L509.661 139.574
L509.661 139.574" style="fill:none;stroke:#008000;stroke-linecap:square;"/>
   </g>
   <g id="line2d_3">
    <path clip-path="url(#p3f6fae7697)" d="
M63.2613 368.698
L64.1558 368.258
L73.9963 361.792
L81.153 357.138
L105.307 341.237
L107.096 339.953
L111.569 336.891
L116.042 333.559
L120.515 330.115
L123.199 328.187
L125.882 326.16
L131.25 322.106
L134.828 319.349
L141.985 313.847
L142.88 313.26
L148.247 309.069
L150.036 307.751
L154.509 304.276
L158.088 301.524
L158.982 300.934
L167.034 294.56
L172.401 290.368
L174.19 289.06
L180.452 284.279
L182.242 282.971
L185.82 280.215
L190.293 276.638
L192.082 275.292
L195.66 272.547
L198.344 270.643
L206.396 264.278
L210.868 260.945
L212.658 259.635
L215.341 257.606
L218.025 255.466
L219.814 254.124
L222.498 252.095
L229.655 246.467
L232.339 244.561
L235.917 241.696
L237.706 240.361
L246.652 233.418
L248.441 232.104
L255.598 226.463
L257.387 225.141
L262.755 220.941
L269.017 216.032
L270.806 214.708
L276.173 210.524
L277.963 209.205
L280.646 207.173
L285.119 203.7
L286.909 202.394
L290.487 199.641
L293.171 197.613
L295.854 195.723
L299.433 192.973
L309.273 185.437
L311.062 184.129
L313.746 182.104
L315.535 180.789
L327.165 171.527
L328.954 170.216
L333.427 166.725
L337.006 164.004
L339.689 162.095
L346.846 156.462
L349.53 154.564
L354.003 150.968
L355.792 149.635
L358.476 147.625
L360.265 146.304
L362.949 144.276
L364.738 142.98
L366.527 141.662
L370.105 138.918
L371.895 137.607
L375.473 134.992
L379.946 131.377
L381.735 130.069
L383.524 128.772
L385.313 127.46
L387.997 125.465
L390.681 123.544
L400.521 116.045
L402.311 114.697
L404.994 112.533
L406.783 111.23
L408.573 109.912
L418.413 102.093
L419.308 101.513
L421.992 99.3604
L423.781 98.031
L426.464 95.8905
L429.148 93.9719
L432.727 91.2157
L437.2 87.7476
L447.935 79.7902
L450.618 77.8859
L459.564 70.9313
L460.459 70.3438
L465.826 66.0117
L467.616 64.7013
L472.089 61.224
L474.772 59.3226
L478.351 56.5999
L481.034 54.6812
L485.507 51.2275
L487.297 49.9154
L491.769 46.5711
L495.348 43.8282
L496.242 43.239
L499.821 40.3526
L501.61 39.0405
L502.505 38.3147
L504.294 37.036
L506.083 35.7043
L509.661 32.8088
L509.661 32.8088" style="fill:none;stroke:#ff0000;stroke-linecap:square;"/>
   </g>
   <g id="line2d_4">
    <path clip-path="url(#p3f6fae7697)" d="
M63.2613 368.702
L64.1558 368.261
L74.8909 361.217
L88.3097 352.499
L97.2556 346.677
L101.729 343.714
L103.518 342.41
L105.307 341.241
L107.096 339.948
L111.569 336.894
L116.042 333.557
L120.515 330.113
L123.199 328.191
L125.882 326.161
L133.934 320.07
L139.301 315.88
L141.091 314.565
L143.774 312.543
L145.563 311.23
L150.931 307.028
L168.823 293.117
L172.401 290.368
L174.19 289.06
L180.452 284.279
L182.242 282.974
L186.715 279.491
L191.188 276.014
L195.66 272.542
L198.344 270.647
L206.396 264.282
L209.079 262.255
L211.763 260.359
L217.131 256.159
L231.444 245.151
L232.339 244.563
L237.706 240.363
L246.652 233.415
L248.441 232.105
L255.598 226.454
L256.493 225.868
L263.649 220.224
L264.544 219.642
L269.017 216.029
L270.806 214.712
L276.173 210.519
L277.963 209.206
L282.436 205.733
L283.33 205.146
L286.014 203.115
L291.381 198.93
L293.171 197.612
L295.854 195.724
L298.538 193.69
L306.59 187.356
L310.168 184.852
L313.746 182.102
L315.535 180.794
L327.165 171.53
L328.06 170.941
L334.322 166.024
L335.216 165.435
L337.9 163.411
L340.584 161.385
L342.373 160.071
L346.846 156.465
L349.53 154.564
L355.792 149.644
L358.476 147.624
L360.265 146.307
L362.949 144.281
L364.738 142.976
L366.527 141.665
L369.211 139.634
L371.895 137.609
L376.367 134.269
L380.84 130.789
L383.524 128.773
L385.313 127.461
L387.103 126.158
L389.786 124.172
L392.47 122.236
L396.048 119.484
L399.627 116.735
L406.783 111.227
L407.678 110.64
L413.94 105.581
L414.835 104.993
L418.413 102.103
L419.308 101.513
L421.992 99.365
L423.781 98.0344
L426.464 95.8877
L429.148 93.9753
L434.516 89.774
L437.2 87.7465
L446.145 81.0816
L447.04 80.4993
L449.724 78.4896
L452.408 76.5801
L456.88 73.0717
L464.932 66.73
L466.721 65.4213
L472.089 61.2251
L473.878 59.917
L476.561 58.0237
L480.14 55.2774
L482.824 53.3875
L485.507 51.2275
L486.402 50.64
L489.98 47.8821
L495.348 43.8299
L497.137 42.5201
L501.61 39.0417
L504.294 37.0245
L506.083 35.706
L509.661 32.8116
L509.661 32.8116" style="fill:none;stroke:#00bfbf;stroke-linecap:square;"/>
   </g>
   <g id="line2d_5">
    <path clip-path="url(#p3f6fae7697)" d="
M63.2613 368.702
L64.1558 368.272
L70.418 364.287
L76.6801 360.305
L83.8368 355.734
L90.0989 351.764
L105.307 341.939
L107.096 340.689
L112.464 337.08
L131.25 323.294
L135.723 319.93
L137.512 318.621
L141.985 315.245
L143.774 313.972
L145.563 312.69
L150.931 308.6
L166.139 297.155
L169.717 294.344
L171.507 293.066
L174.19 291.09
L180.452 286.429
L182.242 285.156
L184.925 283.174
L192.082 277.67
L197.45 273.72
L199.239 272.435
L202.817 269.627
L204.606 268.34
L209.079 264.965
L211.763 263.114
L218.025 258.351
L219.814 257.039
L226.971 251.541
L240.39 241.642
L245.757 237.558
L249.336 234.878
L251.125 233.594
L261.86 225.303
L264.544 223.434
L273.49 216.52
L275.279 215.245
L279.752 211.86
L281.541 210.582
L285.119 207.904
L286.909 206.627
L291.381 203.259
L294.065 201.375
L297.644 198.72
L299.433 197.446
L312.852 187.478
L316.43 184.869
L320.008 182.055
L321.798 180.776
L328.06 175.97
L334.322 171.18
L336.111 169.905
L338.795 167.945
L341.478 166.08
L348.635 160.621
L350.424 159.307
L354.897 155.917
L357.581 153.942
L361.159 151.269
L363.843 149.408
L368.316 146.056
L371 144.183
L373.684 142.218
L376.367 140.234
L379.946 137.417
L381.735 136.143
L383.524 134.877
L385.313 133.598
L387.997 131.653
L390.681 129.783
L394.259 127.154
L396.048 125.824
L399.627 123.143
L417.519 109.586
L421.992 106.217
L423.781 104.916
L427.359 102.242
L431.832 98.8754
L433.621 97.5759
L436.305 95.4822
L438.989 93.6246
L444.356 89.6893
L447.04 87.83
L449.724 85.8739
L452.408 84.01
L459.564 78.5092
L460.459 77.9355
L465.826 73.7117
L467.616 72.4364
L473.878 67.776
L476.561 65.9236
L480.14 63.2544
L482.824 61.4043
L485.507 59.3059
L487.297 58.0266
L491.769 54.7676
L495.348 52.0938
L497.137 50.8157
L501.61 47.4276
L504.294 45.4744
L506.083 44.175
L509.661 41.3549
L509.661 41.3549" style="fill:none;stroke:#bf00bf;stroke-linecap:square;"/>
   </g>
   <g id="line2d_6">
    <path clip-path="url(#p3f6fae7697)" d="
M63.2613 368.702
L64.1558 368.291
L70.418 364.493
L74.8909 361.768
L99.0448 347.192
L101.729 345.536
L103.518 344.33
L105.307 343.244
L107.096 342.052
L111.569 339.215
L118.726 334.24
L121.41 332.362
L124.093 330.483
L125.882 329.271
L133.934 323.62
L139.301 319.743
L141.091 318.522
L143.774 316.644
L145.563 315.425
L150.931 311.535
L167.928 299.308
L172.401 296.096
L174.19 294.884
L180.452 290.449
L182.242 289.24
L185.82 286.682
L190.293 283.364
L192.082 282.121
L195.66 279.575
L198.344 277.809
L206.396 271.912
L210.868 268.821
L212.658 267.612
L216.236 265.052
L221.604 261.166
L223.393 259.951
L227.866 256.639
L232.339 253.635
L238.601 249.095
L240.39 247.855
L246.652 243.307
L248.441 242.089
L255.598 236.857
L257.387 235.639
L261.86 232.316
L264.544 230.539
L270.806 225.967
L276.173 222.085
L277.963 220.865
L282.436 217.649
L284.225 216.43
L287.803 213.886
L289.592 212.668
L293.171 210.124
L295.854 208.37
L299.433 205.821
L309.273 198.838
L311.062 197.624
L313.746 195.745
L315.535 194.528
L327.165 185.946
L328.954 184.728
L333.427 181.485
L337.006 178.969
L339.689 177.199
L346.846 171.985
L349.53 170.22
L354.897 166.323
L358.476 163.786
L360.265 162.566
L362.949 160.685
L365.632 158.897
L373.684 153.291
L376.367 151.41
L379.946 148.729
L381.735 147.52
L383.524 146.31
L385.313 145.097
L387.997 143.249
L390.681 141.469
L397.838 136.379
L399.627 135.155
L438.094 107.661
L442.567 104.653
L446.145 102.114
L448.829 100.36
L451.513 98.501
L453.302 97.2637
L456.88 94.6746
L463.143 90.1449
L466.721 87.591
L472.089 83.7058
L474.772 81.9381
L478.351 79.4204
L481.034 77.636
L488.191 72.6075
L491.769 70.1243
L495.348 67.5784
L497.137 66.3665
L499.821 64.3569
L501.61 63.1444
L504.294 61.2862
L506.083 60.0507
L509.661 57.3688
L509.661 57.3688" style="fill:none;stroke:#bfbf00;stroke-linecap:square;"/>
   </g>
   <g id="line2d_7">
    <path clip-path="url(#p3f6fae7697)" d="
M63.2613 368.701
L64.1558 368.316
L68.6288 365.772
L74.8909 362.23
L97.2556 349.679
L101.729 347.118
L103.518 345.996
L109.78 342.357
L111.569 341.232
L118.726 336.596
L121.41 334.847
L124.093 333.098
L125.882 331.969
L138.407 323.708
L141.985 321.336
L144.669 319.694
L151.826 314.851
L153.615 313.69
L158.088 310.698
L159.877 309.565
L169.717 302.817
L171.507 301.688
L175.085 299.331
L176.874 298.182
L180.452 295.81
L182.242 294.683
L186.715 291.676
L192.082 288.054
L195.66 285.683
L198.344 284.037
L207.29 277.946
L209.974 276.281
L212.658 274.54
L217.131 271.537
L221.604 268.537
L223.393 267.404
L228.76 263.778
L231.444 262.03
L233.233 260.898
L237.706 257.9
L246.652 251.9
L248.441 250.766
L255.598 245.897
L257.387 244.761
L263.649 240.514
L265.438 239.384
L269.911 236.379
L276.173 232.137
L277.963 231.001
L282.436 228.004
L284.225 226.871
L287.803 224.502
L289.592 223.367
L293.171 220.995
L296.749 218.737
L300.327 216.383
L302.117 215.232
L307.484 211.608
L310.168 209.976
L313.746 207.602
L315.535 206.472
L327.165 198.478
L328.954 197.343
L334.322 193.722
L336.111 192.592
L338.795 190.853
L341.478 189.207
L348.635 184.357
L350.424 183.204
L356.687 178.969
L359.37 177.321
L362.949 174.951
L365.632 173.277
L389.786 157.589
L392.47 155.918
L397.838 152.304
L399.627 151.168
L406.783 146.415
L408.573 145.282
L418.413 138.54
L420.202 137.401
L426.464 133.174
L429.148 131.521
L436.305 126.666
L438.989 125.02
L441.672 123.287
L443.462 122.142
L446.145 120.396
L448.829 118.761
L451.513 117.029
L453.302 115.878
L459.564 111.633
L461.353 110.496
L468.51 105.642
L470.299 104.495
L473.878 102.124
L476.561 100.481
L480.14 98.1168
L482.824 96.4809
L487.297 93.4869
L498.926 85.8486
L502.505 83.4795
L505.188 81.8419
L509.661 78.7183
L509.661 78.7183" style="fill:none;stroke:#000000;stroke-linecap:square;"/>
   </g>
   <g id="line2d_8">
    <path clip-path="url(#p3f6fae7697)" d="
M63.2613 368.702
L64.1558 368.346
L67.7342 366.461
L101.729 348.864
L103.518 347.833
L110.674 344.021
L114.253 341.851
L116.042 340.804
L120.515 338.066
L123.199 336.545
L126.777 334.399
L128.566 333.328
L132.145 331.161
L133.934 330.104
L139.301 326.784
L141.091 325.739
L143.774 324.134
L145.563 323.089
L151.826 319.204
L153.615 318.142
L158.088 315.395
L159.877 314.352
L169.717 308.154
L171.507 307.114
L175.085 304.945
L176.874 303.891
L180.452 301.713
L182.242 300.676
L188.504 296.766
L192.977 294.022
L194.766 292.973
L197.45 291.367
L199.239 290.321
L205.501 286.416
L209.079 284.233
L211.763 282.733
L218.025 278.848
L219.814 277.786
L227.866 272.771
L232.339 270.202
L237.706 266.874
L246.652 261.363
L248.441 260.319
L255.598 255.842
L257.387 254.798
L263.649 250.898
L265.438 249.859
L269.911 247.096
L276.173 243.197
L277.963 242.154
L282.436 239.402
L284.225 238.358
L287.803 236.183
L289.592 235.139
L293.171 232.96
L296.749 230.885
L300.327 228.717
L302.117 227.663
L307.484 224.335
L310.168 222.831
L313.746 220.653
L315.535 219.611
L327.165 212.267
L328.954 211.223
L334.322 207.898
L336.111 206.858
L338.795 205.257
L341.478 203.745
L348.635 199.288
L350.424 198.23
L356.687 194.335
L359.37 192.822
L362.949 190.648
L365.632 189.1
L378.157 181.555
L381.735 179.375
L383.524 178.341
L385.313 177.301
L387.997 175.713
L390.681 174.196
L394.259 172.03
L396.048 170.972
L400.521 168.236
L402.311 167.178
L405.889 164.996
L413.94 159.943
L415.729 158.897
L421.992 155.004
L423.781 153.953
L428.254 151.206
L430.043 150.161
L436.305 146.268
L438.989 144.761
L441.672 143.168
L443.462 142.116
L446.145 140.51
L448.829 139.009
L451.513 137.409
L453.302 136.357
L459.564 132.457
L461.353 131.411
L468.51 126.95
L470.299 125.897
L473.878 123.72
L476.561 122.206
L480.14 120.037
L482.824 118.531
L487.297 115.782
L509.661 102.21
L509.661 102.21" style="fill:none;stroke:#0000ff;stroke-linecap:square;"/>
   </g>
   <g id="line2d_9">
    <path clip-path="url(#p3f6fae7697)" d="
M63.2613 368.699
L64.1558 368.403
L66.8396 367.204
L80.2584 361.45
L111.569 347.783
L116.937 345.119
L118.726 344.26
L122.304 342.457
L124.988 341.212
L129.461 338.929
L131.25 338.071
L135.723 335.79
L137.512 334.931
L141.985 332.648
L144.669 331.403
L151.826 327.702
L153.615 326.838
L158.088 324.559
L159.877 323.701
L169.717 318.566
L171.507 317.709
L175.085 315.903
L176.874 315.044
L180.452 313.236
L182.242 312.378
L192.977 306.863
L194.766 306.004
L197.45 304.671
L199.239 303.814
L207.29 299.631
L209.974 298.383
L213.552 296.594
L215.341 295.725
L221.604 292.491
L223.393 291.633
L229.655 288.401
L232.339 287.159
L238.601 283.927
L240.39 283.063
L246.652 279.836
L248.441 278.977
L255.598 275.268
L257.387 274.411
L263.649 271.177
L265.438 270.32
L273.49 266.136
L275.279 265.278
L279.752 262.995
L281.541 262.137
L285.119 260.33
L286.909 259.472
L291.381 257.191
L293.171 256.331
L301.222 252.426
L307.484 249.193
L310.168 247.953
L313.746 246.145
L315.535 245.288
L327.165 239.203
L328.954 238.345
L334.322 235.587
L336.111 234.729
L338.795 233.397
L341.478 232.157
L348.635 228.45
L350.424 227.59
L356.687 224.358
L359.37 223.117
L362.949 221.309
L365.632 220.016
L371 217.399
L374.578 215.613
L376.367 214.738
L382.63 211.507
L385.313 210.265
L387.997 208.936
L390.681 207.693
L394.259 205.888
L396.048 205.028
L400.521 202.747
L402.311 201.887
L406.783 199.604
L408.573 198.746
L418.413 193.612
L420.202 192.751
L426.464 189.522
L429.148 188.279
L436.305 184.573
L438.989 183.332
L441.672 182.001
L443.462 181.142
L446.145 179.81
L448.829 178.57
L451.513 177.238
L453.302 176.379
L459.564 173.147
L461.353 172.287
L468.51 168.582
L470.299 167.722
L473.878 165.914
L477.456 164.199
L480.14 162.867
L483.718 161.151
L488.191 158.877
L489.98 158.011
L494.453 155.729
L497.137 154.488
L502.505 151.73
L505.188 150.49
L509.661 148.114
L509.661 148.114" style="fill:none;stroke:#008000;stroke-linecap:square;"/>
   </g>
   <g id="line2d_10">
    <path clip-path="url(#p3f6fae7697)" d="
M63.2613 368.702
L64.1558 368.406
L66.8396 367.209
L74.8909 363.747
L105.307 350.647
L107.096 349.792
L111.569 347.786
L116.937 345.123
L118.726 344.263
L122.304 342.459
L124.988 341.215
L129.461 338.933
L131.25 338.075
L135.723 335.794
L137.512 334.935
L141.985 332.652
L144.669 331.407
L151.826 327.706
L153.615 326.842
L158.088 324.562
L159.877 323.705
L169.717 318.57
L171.507 317.712
L175.085 315.908
L176.874 315.047
L180.452 313.239
L182.242 312.381
L195.66 305.532
L198.344 304.288
L207.29 299.635
L209.974 298.388
L213.552 296.602
L215.341 295.727
L221.604 292.494
L223.393 291.636
L229.655 288.404
L232.339 287.163
L238.601 283.932
L240.39 283.066
L246.652 279.839
L248.441 278.981
L255.598 275.273
L257.387 274.414
L263.649 271.181
L265.438 270.323
L273.49 266.139
L275.279 265.281
L279.752 262.999
L281.541 262.141
L285.119 260.333
L286.909 259.475
L291.381 257.194
L293.171 256.335
L299.433 253.287
L306.59 249.583
L310.168 247.956
L313.746 246.148
L315.535 245.291
L327.165 239.206
L328.954 238.348
L334.322 235.59
L336.111 234.732
L338.795 233.401
L341.478 232.16
L348.635 228.454
L350.424 227.594
L356.687 224.362
L359.37 223.12
L362.949 221.312
L365.632 220.019
L371 217.405
L374.578 215.622
L376.367 214.742
L382.63 211.511
L385.313 210.269
L387.997 208.939
L390.681 207.696
L394.259 205.892
L396.048 205.03
L400.521 202.752
L402.311 201.89
L406.783 199.607
L408.573 198.75
L418.413 193.616
L420.202 192.756
L426.464 189.526
L429.148 188.283
L436.305 184.578
L438.989 183.335
L441.672 182.006
L443.462 181.145
L446.145 179.813
L448.829 178.573
L451.513 177.242
L453.302 176.383
L459.564 173.149
L461.353 172.291
L468.51 168.586
L470.299 167.725
L473.878 165.918
L477.456 164.202
L480.14 162.87
L483.718 161.155
L488.191 158.884
L489.98 158.014
L494.453 155.732
L497.137 154.491
L502.505 151.734
L505.188 150.493
L509.661 148.117
L509.661 148.117" style="fill:none;stroke:#ff0000;stroke-linecap:square;"/>
   </g>
   <g id="line2d_11">
    <path clip-path="url(#p3f6fae7697)" d="
M63.2613 368.701
L64.1558 368.396
L67.7342 366.761
L94.5719 354.82
L101.729 351.634
L103.518 350.743
L110.674 347.471
L114.253 345.594
L116.042 344.703
L120.515 342.339
L123.199 341.043
L126.777 339.184
L128.566 338.275
L132.145 336.401
L133.934 335.506
L139.301 332.642
L141.091 331.75
L143.774 330.366
L145.563 329.475
L151.826 326.12
L153.615 325.224
L158.088 322.854
L159.877 321.964
L169.717 316.63
L171.507 315.739
L175.085 313.867
L176.874 312.971
L180.452 311.092
L182.242 310.202
L195.66 303.087
L198.344 301.796
L207.29 296.961
L209.974 295.667
L213.552 293.813
L215.341 292.903
L221.604 289.543
L223.393 288.653
L229.655 285.295
L232.339 284.006
L238.601 280.649
L240.39 279.754
L246.652 276.399
L248.441 275.507
L255.598 271.655
L257.387 270.764
L263.649 267.405
L265.438 266.514
L273.49 262.167
L275.279 261.277
L279.752 258.905
L281.541 258.014
L285.119 256.137
L286.909 255.246
L291.381 252.876
L293.171 251.984
L299.433 248.819
L306.59 244.973
L310.168 243.281
L313.746 241.403
L315.535 240.512
L327.165 234.191
L328.954 233.301
L334.322 230.435
L336.111 229.544
L338.795 228.161
L341.478 226.873
L348.635 223.025
L350.424 222.129
L356.687 218.772
L359.37 217.483
L362.949 215.605
L365.632 214.265
L371.895 211.055
L387.997 202.755
L390.681 201.462
L394.259 199.59
L396.048 198.693
L400.521 196.329
L402.311 195.43
L406.783 193.059
L408.573 192.168
L418.413 186.835
L420.202 185.943
L426.464 182.588
L429.148 181.297
L436.305 177.446
L438.989 176.157
L441.672 174.776
L443.462 173.882
L446.145 172.498
L448.829 171.211
L451.513 169.828
L453.302 168.935
L459.564 165.576
L461.353 164.685
L468.51 160.837
L470.299 159.942
L473.878 158.065
L477.456 156.283
L480.14 154.899
L483.718 153.118
L488.191 150.763
L489.98 149.855
L494.453 147.485
L497.137 146.196
L502.505 143.331
L505.188 142.043
L509.661 139.574
L509.661 139.574" style="fill:none;stroke:#00bfbf;stroke-linecap:square;"/>
   </g>
   <g id="line2d_12">
    <path clip-path="url(#p3f6fae7697)" d="
M63.2613 368.702
L64.1558 368.377
L67.7342 366.626
L98.1502 352.178
L111.569 345.465
L133.934 333.191
L139.301 330.127
L141.091 329.173
L143.774 327.693
L145.563 326.739
L151.826 323.153
L153.615 322.191
L158.088 319.655
L159.877 318.702
L169.717 312.995
L171.507 312.042
L175.085 310.038
L176.874 309.08
L180.452 307.071
L182.242 306.118
L210.868 290.043
L212.658 289.09
L225.182 282.005
L229.655 279.469
L232.339 278.09
L238.601 274.498
L240.39 273.542
L246.652 269.95
L248.441 268.997
L255.598 264.875
L257.387 263.921
L263.649 260.328
L265.438 259.375
L273.49 254.725
L275.279 253.772
L279.752 251.234
L281.541 250.281
L285.119 248.273
L286.909 247.319
L291.381 244.783
L293.171 243.829
L296.749 241.923
L300.327 239.916
L302.117 238.961
L307.484 235.895
L310.168 234.517
L313.746 232.509
L315.535 231.555
L327.165 224.792
L328.954 223.839
L334.322 220.774
L336.111 219.82
L338.795 218.341
L341.478 216.961
L348.635 212.846
L350.424 211.887
L356.687 208.294
L359.37 206.915
L362.949 204.907
L365.632 203.484
L377.262 197.075
L382.63 194.018
L385.313 192.633
L387.997 191.159
L390.681 189.775
L394.259 187.779
L396.048 186.812
L400.521 184.283
L402.311 183.322
L406.783 180.785
L408.573 179.831
L418.413 174.125
L420.202 173.17
L426.464 169.582
L429.148 168.199
L436.305 164.079
L438.989 162.7
L441.672 161.224
L443.462 160.267
L446.145 158.786
L448.829 157.409
L451.513 155.93
L453.302 154.973
L459.564 151.38
L461.353 150.426
L468.51 146.307
L470.299 145.351
L473.878 143.343
L476.561 141.96
L480.14 139.956
L482.824 138.578
L487.297 136.041
L509.661 123.56
L509.661 123.56" style="fill:none;stroke:#bf00bf;stroke-linecap:square;"/>
   </g>
   <g id="line2d_13">
    <path clip-path="url(#p3f6fae7697)" d="
M63.2613 368.703
L64.1558 368.352
L68.6288 366.007
L76.6801 361.827
L101.729 348.863
L103.518 347.828
L110.674 344.022
L114.253 341.839
L116.042 340.803
L120.515 338.056
L123.199 336.546
L125.882 334.937
L147.353 321.943
L151.826 319.194
L153.615 318.146
L158.088 315.39
L159.877 314.353
L169.717 308.149
L171.507 307.113
L175.085 304.939
L176.874 303.892
L180.452 301.709
L182.242 300.673
L187.609 297.338
L192.977 294.012
L194.766 292.971
L197.45 291.361
L199.239 290.325
L207.29 285.282
L209.974 283.769
L212.658 282.161
L216.236 279.976
L221.604 276.645
L223.393 275.608
L229.655 271.702
L232.339 270.203
L238.601 266.299
L240.39 265.258
L246.652 261.354
L248.441 260.317
L255.598 255.836
L257.387 254.799
L263.649 250.893
L265.438 249.857
L273.49 244.801
L275.279 243.765
L279.752 241.006
L281.541 239.97
L285.119 237.786
L286.909 236.75
L291.381 234.002
L294.065 232.468
L300.327 228.716
L302.117 227.663
L307.484 224.33
L310.168 222.832
L313.746 220.649
L315.535 219.612
L327.165 212.26
L328.954 211.224
L334.322 207.892
L336.111 206.855
L338.795 205.246
L341.478 203.747
L348.635 199.277
L350.424 198.23
L356.687 194.325
L359.37 192.825
L362.949 190.642
L364.738 189.606
L367.422 187.995
L370.105 186.386
L371.895 185.35
L378.157 181.554
L382.63 178.809
L385.313 177.299
L387.997 175.698
L390.681 174.192
L394.259 172.029
L396.048 170.972
L400.521 168.223
L402.311 167.177
L406.783 164.418
L408.573 163.382
L418.413 157.178
L420.202 156.141
L426.464 152.241
L429.148 150.736
L436.305 146.258
L438.989 144.758
L441.672 143.155
L443.462 142.113
L446.145 140.503
L448.829 139.006
L451.513 137.403
L453.302 136.359
L459.564 132.452
L461.353 131.415
L468.51 126.947
L470.299 125.899
L473.878 123.715
L476.561 122.213
L480.14 120.033
L482.824 118.534
L487.297 115.777
L498.926 108.761
L502.505 106.578
L505.188 105.079
L509.661 102.208
L509.661 102.208" style="fill:none;stroke:#bfbf00;stroke-linecap:square;"/>
   </g>
   <g id="line2d_14">
    <path clip-path="url(#p3f6fae7697)" d="
M63.2613 368.701
L64.1558 368.321
L68.6288 365.786
L80.2584 359.207
L93.6773 351.643
L99.9394 348.151
L105.307 344.985
L107.096 343.861
L111.569 341.227
L118.726 336.595
L121.41 334.843
L124.093 333.092
L125.882 331.964
L162.561 307.691
L169.717 302.815
L171.507 301.687
L175.085 299.327
L176.874 298.183
L180.452 295.806
L182.242 294.679
L186.715 291.676
L192.082 288.05
L195.66 285.674
L198.344 284.041
L207.29 277.922
L209.974 276.286
L212.658 274.536
L216.236 272.158
L221.604 268.533
L223.393 267.404
L229.655 263.157
L232.339 261.523
L238.601 257.277
L240.39 256.142
L246.652 251.894
L248.441 250.766
L255.598 245.889
L257.387 244.761
L263.649 240.51
L265.438 239.383
L273.49 233.881
L275.279 232.753
L279.752 229.752
L281.541 228.624
L285.119 226.247
L286.909 225.12
L291.381 222.122
L293.171 220.991
L295.854 219.362
L299.433 216.985
L307.484 211.606
L310.168 209.976
L313.746 207.601
L315.535 206.472
L327.165 198.471
L328.954 197.343
L334.322 193.717
L336.111 192.589
L338.795 190.841
L341.478 189.208
L348.635 184.346
L350.424 183.204
L356.687 178.962
L359.37 177.323
L362.949 174.947
L364.738 173.82
L366.527 172.692
L370.105 170.316
L371.895 169.188
L377.262 165.683
L382.63 162.068
L385.313 160.428
L387.103 159.301
L389.786 157.578
L392.47 155.92
L397.838 152.3
L399.627 151.166
L406.783 146.412
L408.573 145.284
L418.413 138.534
L420.202 137.405
L426.464 133.165
L429.148 131.524
L436.305 126.658
L438.989 125.019
L441.672 123.279
L443.462 122.139
L446.145 120.388
L448.829 118.759
L451.513 117.012
L453.302 115.879
L459.564 111.627
L461.353 110.5
L467.616 106.249
L472.089 103.247
L473.878 102.119
L476.561 100.488
L480.14 98.1133
L482.824 96.4833
L487.297 93.4829
L493.559 89.3529
L495.348 88.2263
L497.137 87.0985
L502.505 83.4726
L505.188 81.8419
L509.661 78.7177
L509.661 78.7177" style="fill:none;stroke:#000000;stroke-linecap:square;"/>
   </g>
   <g id="line2d_15">
    <path clip-path="url(#p3f6fae7697)" d="
M63.2613 368.702
L64.1558 368.294
L74.8909 361.749
L98.1502 347.75
L112.464 338.606
L118.726 334.237
L121.41 332.356
L124.093 330.475
L125.882 329.265
L138.407 320.402
L141.985 317.847
L142.88 317.308
L148.247 313.415
L150.036 312.203
L155.404 308.31
L157.193 307.099
L163.455 302.534
L168.823 298.639
L172.401 296.088
L174.19 294.877
L178.663 291.655
L181.347 289.901
L190.293 283.345
L192.082 282.117
L195.66 279.565
L198.344 277.813
L206.396 271.908
L209.079 270.035
L211.763 268.277
L217.131 264.384
L221.604 261.161
L222.498 260.621
L229.655 255.39
L232.339 253.636
L237.706 249.742
L243.968 245.177
L244.863 244.637
L249.336 241.415
L250.23 240.874
L260.965 232.955
L263.649 231.074
L264.544 230.535
L273.49 223.957
L274.384 223.416
L279.752 219.523
L280.646 218.983
L285.119 215.761
L286.909 214.551
L290.487 211.998
L293.171 210.118
L295.854 208.368
L299.433 205.817
L307.484 200.041
L310.168 198.291
L313.746 195.741
L315.535 194.529
L327.165 185.939
L328.06 185.399
L334.322 180.834
L335.216 180.295
L338.795 177.75
L341.478 175.993
L347.741 171.429
L358.476 163.777
L360.265 162.563
L362.949 160.682
L364.738 159.473
L366.527 158.261
L370.105 155.71
L371.895 154.5
L376.367 151.408
L381.735 147.515
L383.524 146.305
L384.419 145.765
L387.103 143.885
L389.786 142.043
L392.47 140.253
L397.838 136.365
L399.627 135.15
L406.783 130.047
L408.573 128.835
L418.413 121.587
L419.308 121.047
L425.57 116.482
L428.254 114.601
L429.148 114.061
L435.41 109.497
L438.094 107.65
L440.778 105.866
L444.356 103.325
L447.04 101.565
L449.724 99.6927
L452.408 97.9353
L459.564 92.6995
L460.459 92.1592
L467.616 86.924
L472.089 83.7012
L473.878 82.4911
L476.561 80.7371
L480.14 78.1901
L482.824 76.4402
L487.297 73.218
L493.559 68.7846
L495.348 67.575
L496.242 67.0353
L502.505 62.471
L504.294 61.2718
L506.083 60.0495
L509.661 57.3654
L509.661 57.3654" style="fill:none;stroke:#0000ff;stroke-linecap:square;"/>
   </g>
   <g id="line2d_16">
    <path clip-path="url(#p3f6fae7697)" d="
M63.2613 368.703
L64.1558 368.275
L74.8909 361.421
L105.307 341.939
L107.096 340.677
L111.569 337.7
L116.042 334.451
L120.515 331.087
L123.199 329.218
L125.882 327.244
L133.934 321.306
L139.301 317.221
L141.091 315.94
L143.774 313.966
L145.563 312.69
L150.931 308.598
L180.452 286.424
L182.242 285.15
L185.82 282.467
L190.293 278.98
L192.082 277.668
L195.66 274.99
L198.344 273.142
L206.396 266.932
L210.868 263.683
L212.658 262.415
L215.341 260.433
L218.025 258.332
L219.814 257.042
L226.971 251.54
L231.444 248.29
L232.339 247.72
L236.812 244.326
L243.968 238.83
L245.757 237.553
L249.336 234.878
L251.125 233.597
L260.965 225.98
L263.649 223.999
L264.544 223.43
L273.49 216.513
L274.384 215.945
L279.752 211.854
L280.646 211.286
L284.225 208.6
L287.803 205.926
L289.592 204.645
L291.381 203.259
L294.065 201.379
L297.644 198.714
L299.433 197.441
L313.746 186.847
L315.535 185.572
L327.165 176.546
L328.954 175.266
L334.322 171.173
L335.216 170.605
L337.9 168.628
L340.584 166.654
L342.373 165.379
L346.846 161.869
L349.53 160.01
L354.897 155.916
L358.476 153.236
L359.37 152.665
L362.054 150.689
L364.738 148.711
L366.527 147.437
L370.105 144.755
L371 144.186
L373.684 142.212
L376.367 140.233
L379.946 137.415
L381.735 136.139
L383.524 134.871
L385.313 133.594
L387.103 132.325
L389.786 130.382
L392.47 128.504
L397.838 124.421
L399.627 123.138
L406.783 117.773
L407.678 117.203
L417.519 109.583
L421.992 106.205
L423.781 104.919
L427.359 102.237
L431.832 98.8633
L433.621 97.5748
L436.305 95.4729
L438.989 93.6217
L446.145 88.3997
L448.829 86.5536
L451.513 84.6004
L453.302 83.3026
L456.88 80.5897
L475.667 66.5099
L477.456 65.2306
L480.14 63.2486
L482.824 61.4072
L486.402 58.7259
L489.086 56.7462
L494.453 52.6692
L497.137 50.8134
L500.715 48.1292
L503.399 46.1524
L509.661 41.3514
L509.661 41.3514" style="fill:none;stroke:#008000;stroke-linecap:square;"/>
   </g>
   <g id="patch_3">
    <path d="
M63.2613 23.1417
L509.661 23.1417" style="fill:none;stroke:#000000;stroke-linecap:square;stroke-linejoin:miter;"/>
   </g>
   <g id="patch_4">
    <path d="
M509.661 368.742
L509.661 23.1417" style="fill:none;stroke:#000000;stroke-linecap:square;stroke-linejoin:miter;"/>
   </g>
   <g id="patch_5">
    <path d="
M63.2613 368.742
L509.661 368.742" style="fill:none;stroke:#000000;stroke-linecap:square;stroke-linejoin:miter;"/>
   </g>
   <g id="patch_6">
    <path d="
M63.2613 368.742
L63.2613 23.1417" style="fill:none;stroke:#000000;stroke-linecap:square;stroke-linejoin:miter;"/>
   </g>
   <g id="matplotlib.axis_1">
    <g id="xtick_1">
     <g id="line2d_17">
      <defs>
       <path d="
M0 0
L0 -4" id="m93b0483c22" style="stroke:#000000;stroke-width:0.5;"/>
      </defs>
      <g>
       <use style="stroke:#000000;stroke-width:0.5;" x="63.26125" xlink:href="#m93b0483c22" y="368.74175"/>
      </g>
     </g>
     <g id="line2d_18">
      <defs>
       <path d="
M0 0
L0 4" id="m741efc42ff" style="stroke:#000000;stroke-width:0.5;"/>
      </defs>
      <g>
       <use style="stroke:#000000;stroke-width:0.5;" x="63.26125" xlink:href="#m741efc42ff" y="23.14175"/>
      </g>
     </g>
     <g id="text_1">
      <!-- 0 -->
      <defs>
       <path d="
M31.7812 66.4062
Q24.1719 66.4062 20.3281 58.9062
Q16.5 51.4219 16.5 36.375
Q16.5 21.3906 20.3281 13.8906
Q24.1719 6.39062 31.7812 6.39062
Q39.4531 6.39062 43.2812 13.8906
Q47.125 21.3906 47.125 36.375
Q47.125 51.4219 43.2812 58.9062
Q39.4531 66.4062 31.7812 66.4062
M31.7812 74.2188
Q44.0469 74.2188 50.5156 64.5156
Q56.9844 54.8281 56.9844 36.375
Q56.9844 17.9688 50.5156 8.26562
Q44.0469 -1.42188 31.7812 -1.42188
Q19.5312 -1.42188 13.0625 8.26562
Q6.59375 17.9688 6.59375 36.375
Q6.59375 54.8281 13.0625 64.5156
Q19.5312 74.2188 31.7812 74.2188" id="DejaVuSans-30"/>
      </defs>
      <g transform="translate(60.2378125 381.859875)scale(0.12 -0.12)">
       <use xlink:href="#DejaVuSans-30"/>
      </g>
     </g>
    </g>
    <g id="xtick_2">
     <g id="line2d_19">
      <g>
       <use style="stroke:#000000;stroke-width:0.5;" x="152.720167836" xlink:href="#m93b0483c22" y="368.74175"/>
      </g>
     </g>
     <g id="line2d_20">
      <g>
       <use style="stroke:#000000;stroke-width:0.5;" x="152.720167836" xlink:href="#m741efc42ff" y="23.14175"/>
      </g>
     </g>
     <g id="text_2">
      <!-- 100 -->
      <defs>
       <path d="
M12.4062 8.29688
L28.5156 8.29688
L28.5156 63.9219
L10.9844 60.4062
L10.9844 69.3906
L28.4219 72.9062
L38.2812 72.9062
L38.2812 8.29688
L54.3906 8.29688
L54.3906 0
L12.4062 0
z
" id="DejaVuSans-31"/>
      </defs>
      <g transform="translate(142.325167836 381.859875)scale(0.12 -0.12)">
       <use xlink:href="#DejaVuSans-31"/>
       <use x="63.623046875" xlink:href="#DejaVuSans-30"/>
       <use x="127.24609375" xlink:href="#DejaVuSans-30"/>
      </g>
     </g>
    </g>
    <g id="xtick_3">
     <g id="line2d_21">
      <g>
       <use style="stroke:#000000;stroke-width:0.5;" x="242.179085671" xlink:href="#m93b0483c22" y="368.74175"/>
      </g>
     </g>
     <g id="line2d_22">
      <g>
       <use style="stroke:#000000;stroke-width:0.5;" x="242.179085671" xlink:href="#m741efc42ff" y="23.14175"/>
      </g>
     </g>
     <g id="text_3">
      <!-- 200 -->
      <defs>
       <path d="
M19.1875 8.29688
L53.6094 8.29688
L53.6094 0
L7.32812 0
L7.32812 8.29688
Q12.9375 14.1094 22.625 23.8906
Q32.3281 33.6875 34.8125 36.5312
Q39.5469 41.8438 41.4219 45.5312
Q43.3125 49.2188 43.3125 52.7812
Q43.3125 58.5938 39.2344 62.25
Q35.1562 65.9219 28.6094 65.9219
Q23.9688 65.9219 18.8125 64.3125
Q13.6719 62.7031 7.8125 59.4219
L7.8125 69.3906
Q13.7656 71.7812 18.9375 73
Q24.125 74.2188 28.4219 74.2188
Q39.75 74.2188 46.4844 68.5469
Q53.2188 62.8906 53.2188 53.4219
Q53.2188 48.9219 51.5312 44.8906
Q49.8594 40.875 45.4062 35.4062
Q44.1875 33.9844 37.6406 27.2188
Q31.1094 20.4531 19.1875 8.29688" id="DejaVuSans-32"/>
      </defs>
      <g transform="translate(231.564710671 381.859875)scale(0.12 -0.12)">
       <use xlink:href="#DejaVuSans-32"/>
       <use x="63.623046875" xlink:href="#DejaVuSans-30"/>
       <use x="127.24609375" xlink:href="#DejaVuSans-30"/>
      </g>
     </g>
    </g>
    <g id="xtick_4">
     <g id="line2d_23">
      <g>
       <use style="stroke:#000000;stroke-width:0.5;" x="331.638003507" xlink:href="#m93b0483c22" y="368.74175"/>
      </g>
     </g>
     <g id="line2d_24">
      <g>
       <use style="stroke:#000000;stroke-width:0.5;" x="331.638003507" xlink:href="#m741efc42ff" y="23.14175"/>
      </g>
     </g>
     <g id="text_4">
      <!-- 300 -->
      <defs>
       <path d="
M40.5781 39.3125
Q47.6562 37.7969 51.625 33
Q55.6094 28.2188 55.6094 21.1875
Q55.6094 10.4062 48.1875 4.48438
Q40.7656 -1.42188 27.0938 -1.42188
Q22.5156 -1.42188 17.6562 -0.515625
Q12.7969 0.390625 7.625 2.20312
L7.625 11.7188
Q11.7188 9.32812 16.5938 8.10938
Q21.4844 6.89062 26.8125 6.89062
Q36.0781 6.89062 40.9375 10.5469
Q45.7969 14.2031 45.7969 21.1875
Q45.7969 27.6406 41.2812 31.2656
Q36.7656 34.9062 28.7188 34.9062
L20.2188 34.9062
L20.2188 43.0156
L29.1094 43.0156
Q36.375 43.0156 40.2344 45.9219
Q44.0938 48.8281 44.0938 54.2969
Q44.0938 59.9062 40.1094 62.9062
Q36.1406 65.9219 28.7188 65.9219
Q24.6562 65.9219 20.0156 65.0312
Q15.375 64.1562 9.8125 62.3125
L9.8125 71.0938
Q15.4375 72.6562 20.3438 73.4375
Q25.25 74.2188 29.5938 74.2188
Q40.8281 74.2188 47.3594 69.1094
Q53.9062 64.0156 53.9062 55.3281
Q53.9062 49.2656 50.4375 45.0938
Q46.9688 40.9219 40.5781 39.3125" id="DejaVuSans-33"/>
      </defs>
      <g transform="translate(321.041441007 381.859875)scale(0.12 -0.12)">
       <use xlink:href="#DejaVuSans-33"/>
       <use x="63.623046875" xlink:href="#DejaVuSans-30"/>
       <use x="127.24609375" xlink:href="#DejaVuSans-30"/>
      </g>
     </g>
    </g>
    <g id="xtick_5">
     <g id="line2d_25">
      <g>
       <use style="stroke:#000000;stroke-width:0.5;" x="421.096921343" xlink:href="#m93b0483c22" y="368.74175"/>
      </g>
     </g>
     <g id="line2d_26">
      <g>
       <use style="stroke:#000000;stroke-width:0.5;" x="421.096921343" xlink:href="#m741efc42ff" y="23.14175"/>
      </g>
     </g>
     <g id="text_5">
      <!-- 400 -->
      <defs>
       <path d="
M37.7969 64.3125
L12.8906 25.3906
L37.7969 25.3906
z

M35.2031 72.9062
L47.6094 72.9062
L47.6094 25.3906
L58.0156 25.3906
L58.0156 17.1875
L47.6094 17.1875
L47.6094 0
L37.7969 0
L37.7969 17.1875
L4.89062 17.1875
L4.89062 26.7031
z
" id="DejaVuSans-34"/>
      </defs>
      <g transform="translate(410.336296343 381.859875)scale(0.12 -0.12)">
       <use xlink:href="#DejaVuSans-34"/>
       <use x="63.623046875" xlink:href="#DejaVuSans-30"/>
       <use x="127.24609375" xlink:href="#DejaVuSans-30"/>
      </g>
     </g>
    </g>
    <g id="text_6">
     <!-- time -->
     <defs>
      <path d="
M18.3125 70.2188
L18.3125 54.6875
L36.8125 54.6875
L36.8125 47.7031
L18.3125 47.7031
L18.3125 18.0156
Q18.3125 11.3281 20.1406 9.42188
Q21.9688 7.51562 27.5938 7.51562
L36.8125 7.51562
L36.8125 0
L27.5938 0
Q17.1875 0 13.2344 3.875
Q9.28125 7.76562 9.28125 18.0156
L9.28125 47.7031
L2.6875 47.7031
L2.6875 54.6875
L9.28125 54.6875
L9.28125 70.2188
z
" id="DejaVuSans-74"/>
      <path d="
M52 44.1875
Q55.375 50.25 60.0625 53.125
Q64.75 56 71.0938 56
Q79.6406 56 84.2812 50.0156
Q88.9219 44.0469 88.9219 33.0156
L88.9219 0
L79.8906 0
L79.8906 32.7188
Q79.8906 40.5781 77.0938 44.375
Q74.3125 48.1875 68.6094 48.1875
Q61.625 48.1875 57.5625 43.5469
Q53.5156 38.9219 53.5156 30.9062
L53.5156 0
L44.4844 0
L44.4844 32.7188
Q44.4844 40.625 41.7031 44.4062
Q38.9219 48.1875 33.1094 48.1875
Q26.2188 48.1875 22.1562 43.5312
Q18.1094 38.875 18.1094 30.9062
L18.1094 0
L9.07812 0
L9.07812 54.6875
L18.1094 54.6875
L18.1094 46.1875
Q21.1875 51.2188 25.4844 53.6094
Q29.7812 56 35.6875 56
Q41.6562 56 45.8281 52.9688
Q50 49.9531 52 44.1875" id="DejaVuSans-6d"/>
      <path d="
M56.2031 29.5938
L56.2031 25.2031
L14.8906 25.2031
Q15.4844 15.9219 20.4844 11.0625
Q25.4844 6.20312 34.4219 6.20312
Q39.5938 6.20312 44.4531 7.46875
Q49.3125 8.73438 54.1094 11.2812
L54.1094 2.78125
Q49.2656 0.734375 44.1875 -0.34375
Q39.1094 -1.42188 33.8906 -1.42188
Q20.7969 -1.42188 13.1562 6.1875
Q5.51562 13.8125 5.51562 26.8125
Q5.51562 40.2344 12.7656 48.1094
Q20.0156 56 32.3281 56
Q43.3594 56 49.7812 48.8906
Q56.2031 41.7969 56.2031 29.5938
M47.2188 32.2344
Q47.125 39.5938 43.0938 43.9844
Q39.0625 48.3906 32.4219 48.3906
Q24.9062 48.3906 20.3906 44.1406
Q15.875 39.8906 15.1875 32.1719
z
" id="DejaVuSans-65"/>
      <path d="
M9.42188 54.6875
L18.4062 54.6875
L18.4062 0
L9.42188 0
z

M9.42188 75.9844
L18.4062 75.9844
L18.4062 64.5938
L9.42188 64.5938
z
" id="DejaVuSans-69"/>
     </defs>
     <g transform="translate(273.386875 398.473625)scale(0.12 -0.12)">
      <use xlink:href="#DejaVuSans-74"/>
      <use x="39.208984375" xlink:href="#DejaVuSans-69"/>
      <use x="66.9921875" xlink:href="#DejaVuSans-6d"/>
      <use x="164.404296875" xlink:href="#DejaVuSans-65"/>
     </g>
    </g>
   </g>
   <g id="matplotlib.axis_2">
    <g id="ytick_1">
     <g id="line2d_27">
      <defs>
       <path d="
M0 0
L4 0" id="m728421d6d4" style="stroke:#000000;stroke-width:0.5;"/>
      </defs>
      <g>
       <use style="stroke:#000000;stroke-width:0.5;" x="63.26125" xlink:href="#m728421d6d4" y="368.74175"/>
      </g>
     </g>
     <g id="line2d_28">
      <defs>
       <path d="
M0 0
L-4 0" id="mcb0005524f" style="stroke:#000000;stroke-width:0.5;"/>
      </defs>
      <g>
       <use style="stroke:#000000;stroke-width:0.5;" x="509.66125" xlink:href="#mcb0005524f" y="368.74175"/>
      </g>
     </g>
     <g id="text_7">
      <!-- 0 -->
      <g transform="translate(53.214375 372.053)scale(0.12 -0.12)">
       <use xlink:href="#DejaVuSans-30"/>
      </g>
     </g>
    </g>
    <g id="ytick_2">
     <g id="line2d_29">
      <g>
       <use style="stroke:#000000;stroke-width:0.5;" x="63.26125" xlink:href="#m728421d6d4" y="311.14175"/>
      </g>
     </g>
     <g id="line2d_30">
      <g>
       <use style="stroke:#000000;stroke-width:0.5;" x="509.66125" xlink:href="#mcb0005524f" y="311.14175"/>
      </g>
     </g>
     <g id="text_8">
      <!-- 1000000 -->
      <g transform="translate(7.93125 314.453)scale(0.12 -0.12)">
       <use xlink:href="#DejaVuSans-31"/>
       <use x="63.623046875" xlink:href="#DejaVuSans-30"/>
       <use x="127.24609375" xlink:href="#DejaVuSans-30"/>
       <use x="190.869140625" xlink:href="#DejaVuSans-30"/>
       <use x="254.4921875" xlink:href="#DejaVuSans-30"/>
       <use x="318.115234375" xlink:href="#DejaVuSans-30"/>
       <use x="381.73828125" xlink:href="#DejaVuSans-30"/>
      </g>
     </g>
    </g>
    <g id="ytick_3">
     <g id="line2d_31">
      <g>
       <use style="stroke:#000000;stroke-width:0.5;" x="63.26125" xlink:href="#m728421d6d4" y="253.54175"/>
      </g>
     </g>
     <g id="line2d_32">
      <g>
       <use style="stroke:#000000;stroke-width:0.5;" x="509.66125" xlink:href="#mcb0005524f" y="253.54175"/>
      </g>
     </g>
     <g id="text_9">
      <!-- 2000000 -->
      <g transform="translate(7.4925 256.853)scale(0.12 -0.12)">
       <use xlink:href="#DejaVuSans-32"/>
       <use x="63.623046875" xlink:href="#DejaVuSans-30"/>
       <use x="127.24609375" xlink:href="#DejaVuSans-30"/>
       <use x="190.869140625" xlink:href="#DejaVuSans-30"/>
       <use x="254.4921875" xlink:href="#DejaVuSans-30"/>
       <use x="318.115234375" xlink:href="#DejaVuSans-30"/>
       <use x="381.73828125" xlink:href="#DejaVuSans-30"/>
      </g>
     </g>
    </g>
    <g id="ytick_4">
     <g id="line2d_33">
      <g>
       <use style="stroke:#000000;stroke-width:0.5;" x="63.26125" xlink:href="#m728421d6d4" y="195.94175"/>
      </g>
     </g>
     <g id="line2d_34">
      <g>
       <use style="stroke:#000000;stroke-width:0.5;" x="509.66125" xlink:href="#mcb0005524f" y="195.94175"/>
      </g>
     </g>
     <g id="text_10">
      <!-- 3000000 -->
      <g transform="translate(7.528125 199.253)scale(0.12 -0.12)">
       <use xlink:href="#DejaVuSans-33"/>
       <use x="63.623046875" xlink:href="#DejaVuSans-30"/>
       <use x="127.24609375" xlink:href="#DejaVuSans-30"/>
       <use x="190.869140625" xlink:href="#DejaVuSans-30"/>
       <use x="254.4921875" xlink:href="#DejaVuSans-30"/>
       <use x="318.115234375" xlink:href="#DejaVuSans-30"/>
       <use x="381.73828125" xlink:href="#DejaVuSans-30"/>
      </g>
     </g>
    </g>
    <g id="ytick_5">
     <g id="line2d_35">
      <g>
       <use style="stroke:#000000;stroke-width:0.5;" x="63.26125" xlink:href="#m728421d6d4" y="138.34175"/>
      </g>
     </g>
     <g id="line2d_36">
      <g>
       <use style="stroke:#000000;stroke-width:0.5;" x="509.66125" xlink:href="#mcb0005524f" y="138.34175"/>
      </g>
     </g>
     <g id="text_11">
      <!-- 4000000 -->
      <g transform="translate(7.2 141.653)scale(0.12 -0.12)">
       <use xlink:href="#DejaVuSans-34"/>
       <use x="63.623046875" xlink:href="#DejaVuSans-30"/>
       <use x="127.24609375" xlink:href="#DejaVuSans-30"/>
       <use x="190.869140625" xlink:href="#DejaVuSans-30"/>
       <use x="254.4921875" xlink:href="#DejaVuSans-30"/>
       <use x="318.115234375" xlink:href="#DejaVuSans-30"/>
       <use x="381.73828125" xlink:href="#DejaVuSans-30"/>
      </g>
     </g>
    </g>
    <g id="ytick_6">
     <g id="line2d_37">
      <g>
       <use style="stroke:#000000;stroke-width:0.5;" x="63.26125" xlink:href="#m728421d6d4" y="80.74175"/>
      </g>
     </g>
     <g id="line2d_38">
      <g>
       <use style="stroke:#000000;stroke-width:0.5;" x="509.66125" xlink:href="#mcb0005524f" y="80.74175"/>
      </g>
     </g>
     <g id="text_12">
      <!-- 5000000 -->
      <defs>
       <path d="
M10.7969 72.9062
L49.5156 72.9062
L49.5156 64.5938
L19.8281 64.5938
L19.8281 46.7344
Q21.9688 47.4688 24.1094 47.8281
Q26.2656 48.1875 28.4219 48.1875
Q40.625 48.1875 47.75 41.5
Q54.8906 34.8125 54.8906 23.3906
Q54.8906 11.625 47.5625 5.09375
Q40.2344 -1.42188 26.9062 -1.42188
Q22.3125 -1.42188 17.5469 -0.640625
Q12.7969 0.140625 7.71875 1.70312
L7.71875 11.625
Q12.1094 9.23438 16.7969 8.0625
Q21.4844 6.89062 26.7031 6.89062
Q35.1562 6.89062 40.0781 11.3281
Q45.0156 15.7656 45.0156 23.3906
Q45.0156 31 40.0781 35.4375
Q35.1562 39.8906 26.7031 39.8906
Q22.75 39.8906 18.8125 39.0156
Q14.8906 38.1406 10.7969 36.2812
z
" id="DejaVuSans-35"/>
      </defs>
      <g transform="translate(7.539375 84.053)scale(0.12 -0.12)">
       <use xlink:href="#DejaVuSans-35"/>
       <use x="63.623046875" xlink:href="#DejaVuSans-30"/>
       <use x="127.24609375" xlink:href="#DejaVuSans-30"/>
       <use x="190.869140625" xlink:href="#DejaVuSans-30"/>
       <use x="254.4921875" xlink:href="#DejaVuSans-30"/>
       <use x="318.115234375" xlink:href="#DejaVuSans-30"/>
       <use x="381.73828125" xlink:href="#DejaVuSans-30"/>
      </g>
     </g>
    </g>
    <g id="ytick_7">
     <g id="line2d_39">
      <g>
       <use style="stroke:#000000;stroke-width:0.5;" x="63.26125" xlink:href="#m728421d6d4" y="23.14175"/>
      </g>
     </g>
     <g id="line2d_40">
      <g>
       <use style="stroke:#000000;stroke-width:0.5;" x="509.66125" xlink:href="#mcb0005524f" y="23.14175"/>
      </g>
     </g>
     <g id="text_13">
      <!-- 6000000 -->
      <defs>
       <path d="
M33.0156 40.375
Q26.375 40.375 22.4844 35.8281
Q18.6094 31.2969 18.6094 23.3906
Q18.6094 15.5312 22.4844 10.9531
Q26.375 6.39062 33.0156 6.39062
Q39.6562 6.39062 43.5312 10.9531
Q47.4062 15.5312 47.4062 23.3906
Q47.4062 31.2969 43.5312 35.8281
Q39.6562 40.375 33.0156 40.375
M52.5938 71.2969
L52.5938 62.3125
Q48.875 64.0625 45.0938 64.9844
Q41.3125 65.9219 37.5938 65.9219
Q27.8281 65.9219 22.6719 59.3281
Q17.5312 52.7344 16.7969 39.4062
Q19.6719 43.6562 24.0156 45.9219
Q28.375 48.1875 33.5938 48.1875
Q44.5781 48.1875 50.9531 41.5156
Q57.3281 34.8594 57.3281 23.3906
Q57.3281 12.1562 50.6875 5.35938
Q44.0469 -1.42188 33.0156 -1.42188
Q20.3594 -1.42188 13.6719 8.26562
Q6.98438 17.9688 6.98438 36.375
Q6.98438 53.6562 15.1875 63.9375
Q23.3906 74.2188 37.2031 74.2188
Q40.9219 74.2188 44.7031 73.4844
Q48.4844 72.75 52.5938 71.2969" id="DejaVuSans-36"/>
      </defs>
      <g transform="translate(7.45125 26.453)scale(0.12 -0.12)">
       <use xlink:href="#DejaVuSans-36"/>
       <use x="63.623046875" xlink:href="#DejaVuSans-30"/>
       <use x="127.24609375" xlink:href="#DejaVuSans-30"/>
       <use x="190.869140625" xlink:href="#DejaVuSans-30"/>
       <use x="254.4921875" xlink:href="#DejaVuSans-30"/>
       <use x="318.115234375" xlink:href="#DejaVuSans-30"/>
       <use x="381.73828125" xlink:href="#DejaVuSans-30"/>
      </g>
     </g>
    </g>
   </g>
   <g id="text_14">
    <!-- /agas/count/cache/update_entry -->
    <defs>
     <path d="
M25.3906 72.9062
L33.6875 72.9062
L8.29688 -9.28125
L0 -9.28125
z
" id="DejaVuSans-2f"/>
     <path d="
M30.6094 48.3906
Q23.3906 48.3906 19.1875 42.75
Q14.9844 37.1094 14.9844 27.2969
Q14.9844 17.4844 19.1562 11.8438
Q23.3438 6.20312 30.6094 6.20312
Q37.7969 6.20312 41.9844 11.8594
Q46.1875 17.5312 46.1875 27.2969
Q46.1875 37.0156 41.9844 42.7031
Q37.7969 48.3906 30.6094 48.3906
M30.6094 56
Q42.3281 56 49.0156 48.375
Q55.7188 40.7656 55.7188 27.2969
Q55.7188 13.875 49.0156 6.21875
Q42.3281 -1.42188 30.6094 -1.42188
Q18.8438 -1.42188 12.1719 6.21875
Q5.51562 13.875 5.51562 27.2969
Q5.51562 40.7656 12.1719 48.375
Q18.8438 56 30.6094 56" id="DejaVuSans-6f"/>
     <path d="
M54.8906 33.0156
L54.8906 0
L45.9062 0
L45.9062 32.7188
Q45.9062 40.4844 42.875 44.3281
Q39.8438 48.1875 33.7969 48.1875
Q26.5156 48.1875 22.3125 43.5469
Q18.1094 38.9219 18.1094 30.9062
L18.1094 0
L9.07812 0
L9.07812 54.6875
L18.1094 54.6875
L18.1094 46.1875
Q21.3438 51.125 25.7031 53.5625
Q30.0781 56 35.7969 56
Q45.2188 56 50.0469 50.1719
Q54.8906 44.3438 54.8906 33.0156" id="DejaVuSans-6e"/>
     <path d="
M50.9844 -16.6094
L50.9844 -23.5781
L-0.984375 -23.5781
L-0.984375 -16.6094
z
" id="DejaVuSans-5f"/>
     <path d="
M18.1094 8.20312
L18.1094 -20.7969
L9.07812 -20.7969
L9.07812 54.6875
L18.1094 54.6875
L18.1094 46.3906
Q20.9531 51.2656 25.2656 53.625
Q29.5938 56 35.5938 56
Q45.5625 56 51.7812 48.0938
Q58.0156 40.1875 58.0156 27.2969
Q58.0156 14.4062 51.7812 6.48438
Q45.5625 -1.42188 35.5938 -1.42188
Q29.5938 -1.42188 25.2656 0.953125
Q20.9531 3.32812 18.1094 8.20312
M48.6875 27.2969
Q48.6875 37.2031 44.6094 42.8438
Q40.5312 48.4844 33.4062 48.4844
Q26.2656 48.4844 22.1875 42.8438
Q18.1094 37.2031 18.1094 27.2969
Q18.1094 17.3906 22.1875 11.75
Q26.2656 6.10938 33.4062 6.10938
Q40.5312 6.10938 44.6094 11.75
Q48.6875 17.3906 48.6875 27.2969" id="DejaVuSans-70"/>
     <path d="
M32.1719 -5.07812
Q28.375 -14.8438 24.75 -17.8125
Q21.1406 -20.7969 15.0938 -20.7969
L7.90625 -20.7969
L7.90625 -13.2812
L13.1875 -13.2812
Q16.8906 -13.2812 18.9375 -11.5156
Q21 -9.76562 23.4844 -3.21875
L25.0938 0.875
L2.98438 54.6875
L12.5 54.6875
L29.5938 11.9219
L46.6875 54.6875
L56.2031 54.6875
z
" id="DejaVuSans-79"/>
     <path d="
M54.8906 33.0156
L54.8906 0
L45.9062 0
L45.9062 32.7188
Q45.9062 40.4844 42.875 44.3281
Q39.8438 48.1875 33.7969 48.1875
Q26.5156 48.1875 22.3125 43.5469
Q18.1094 38.9219 18.1094 30.9062
L18.1094 0
L9.07812 0
L9.07812 75.9844
L18.1094 75.9844
L18.1094 46.1875
Q21.3438 51.125 25.7031 53.5625
Q30.0781 56 35.7969 56
Q45.2188 56 50.0469 50.1719
Q54.8906 44.3438 54.8906 33.0156" id="DejaVuSans-68"/>
     <path d="
M8.5 21.5781
L8.5 54.6875
L17.4844 54.6875
L17.4844 21.9219
Q17.4844 14.1562 20.5 10.2656
Q23.5312 6.39062 29.5938 6.39062
Q36.8594 6.39062 41.0781 11.0312
Q45.3125 15.6719 45.3125 23.6875
L45.3125 54.6875
L54.2969 54.6875
L54.2969 0
L45.3125 0
L45.3125 8.40625
Q42.0469 3.42188 37.7188 1
Q33.4062 -1.42188 27.6875 -1.42188
Q18.2656 -1.42188 13.375 4.4375
Q8.5 10.2969 8.5 21.5781
M31.1094 56
z
" id="DejaVuSans-75"/>
     <path d="
M45.4062 27.9844
Q45.4062 37.75 41.375 43.1094
Q37.3594 48.4844 30.0781 48.4844
Q22.8594 48.4844 18.8281 43.1094
Q14.7969 37.75 14.7969 27.9844
Q14.7969 18.2656 18.8281 12.8906
Q22.8594 7.51562 30.0781 7.51562
Q37.3594 7.51562 41.375 12.8906
Q45.4062 18.2656 45.4062 27.9844
M54.3906 6.78125
Q54.3906 -7.17188 48.1875 -13.9844
Q42 -20.7969 29.2031 -20.7969
Q24.4688 -20.7969 20.2656 -20.0938
Q16.0625 -19.3906 12.1094 -17.9219
L12.1094 -9.1875
Q16.0625 -11.3281 19.9219 -12.3438
Q23.7812 -13.375 27.7812 -13.375
Q36.625 -13.375 41.0156 -8.76562
Q45.4062 -4.15625 45.4062 5.17188
L45.4062 9.625
Q42.625 4.78125 38.2812 2.39062
Q33.9375 0 27.875 0
Q17.8281 0 11.6719 7.65625
Q5.51562 15.3281 5.51562 27.9844
Q5.51562 40.6719 11.6719 48.3281
Q17.8281 56 27.875 56
Q33.9375 56 38.2812 53.6094
Q42.625 51.2188 45.4062 46.3906
L45.4062 54.6875
L54.3906 54.6875
z
" id="DejaVuSans-67"/>
     <path d="
M45.4062 46.3906
L45.4062 75.9844
L54.3906 75.9844
L54.3906 0
L45.4062 0
L45.4062 8.20312
Q42.5781 3.32812 38.25 0.953125
Q33.9375 -1.42188 27.875 -1.42188
Q17.9688 -1.42188 11.7344 6.48438
Q5.51562 14.4062 5.51562 27.2969
Q5.51562 40.1875 11.7344 48.0938
Q17.9688 56 27.875 56
Q33.9375 56 38.25 53.625
Q42.5781 51.2656 45.4062 46.3906
M14.7969 27.2969
Q14.7969 17.3906 18.875 11.75
Q22.9531 6.10938 30.0781 6.10938
Q37.2031 6.10938 41.2969 11.75
Q45.4062 17.3906 45.4062 27.2969
Q45.4062 37.2031 41.2969 42.8438
Q37.2031 48.4844 30.0781 48.4844
Q22.9531 48.4844 18.875 42.8438
Q14.7969 37.2031 14.7969 27.2969" id="DejaVuSans-64"/>
     <path d="
M41.1094 46.2969
Q39.5938 47.1719 37.8125 47.5781
Q36.0312 48 33.8906 48
Q26.2656 48 22.1875 43.0469
Q18.1094 38.0938 18.1094 28.8125
L18.1094 0
L9.07812 0
L9.07812 54.6875
L18.1094 54.6875
L18.1094 46.1875
Q20.9531 51.1719 25.4844 53.5781
Q30.0312 56 36.5312 56
Q37.4531 56 38.5781 55.875
Q39.7031 55.7656 41.0625 55.5156
z
" id="DejaVuSans-72"/>
     <path d="
M48.7812 52.5938
L48.7812 44.1875
Q44.9688 46.2969 41.1406 47.3438
Q37.3125 48.3906 33.4062 48.3906
Q24.6562 48.3906 19.8125 42.8438
Q14.9844 37.3125 14.9844 27.2969
Q14.9844 17.2812 19.8125 11.7344
Q24.6562 6.20312 33.4062 6.20312
Q37.3125 6.20312 41.1406 7.25
Q44.9688 8.29688 48.7812 10.4062
L48.7812 2.09375
Q45.0156 0.34375 40.9844 -0.53125
Q36.9688 -1.42188 32.4219 -1.42188
Q20.0625 -1.42188 12.7812 6.34375
Q5.51562 14.1094 5.51562 27.2969
Q5.51562 40.6719 12.8594 48.3281
Q20.2188 56 33.0156 56
Q37.1562 56 41.1094 55.1406
Q45.0625 54.2969 48.7812 52.5938" id="DejaVuSans-63"/>
     <path d="
M44.2812 53.0781
L44.2812 44.5781
Q40.4844 46.5312 36.375 47.5
Q32.2812 48.4844 27.875 48.4844
Q21.1875 48.4844 17.8438 46.4375
Q14.5 44.3906 14.5 40.2812
Q14.5 37.1562 16.8906 35.375
Q19.2812 33.5938 26.5156 31.9844
L29.5938 31.2969
Q39.1562 29.25 43.1875 25.5156
Q47.2188 21.7812 47.2188 15.0938
Q47.2188 7.46875 41.1875 3.01562
Q35.1562 -1.42188 24.6094 -1.42188
Q20.2188 -1.42188 15.4531 -0.5625
Q10.6875 0.296875 5.42188 2
L5.42188 11.2812
Q10.4062 8.6875 15.2344 7.39062
Q20.0625 6.10938 24.8125 6.10938
Q31.1562 6.10938 34.5625 8.28125
Q37.9844 10.4531 37.9844 14.4062
Q37.9844 18.0625 35.5156 20.0156
Q33.0625 21.9688 24.7031 23.7812
L21.5781 24.5156
Q13.2344 26.2656 9.51562 29.9062
Q5.8125 33.5469 5.8125 39.8906
Q5.8125 47.6094 11.2812 51.7969
Q16.75 56 26.8125 56
Q31.7812 56 36.1719 55.2656
Q40.5781 54.5469 44.2812 53.0781" id="DejaVuSans-73"/>
     <path d="
M34.2812 27.4844
Q23.3906 27.4844 19.1875 25
Q14.9844 22.5156 14.9844 16.5
Q14.9844 11.7188 18.1406 8.90625
Q21.2969 6.10938 26.7031 6.10938
Q34.1875 6.10938 38.7031 11.4062
Q43.2188 16.7031 43.2188 25.4844
L43.2188 27.4844
z

M52.2031 31.2031
L52.2031 0
L43.2188 0
L43.2188 8.29688
Q40.1406 3.32812 35.5469 0.953125
Q30.9531 -1.42188 24.3125 -1.42188
Q15.9219 -1.42188 10.9531 3.29688
Q6 8.01562 6 15.9219
Q6 25.1406 12.1719 29.8281
Q18.3594 34.5156 30.6094 34.5156
L43.2188 34.5156
L43.2188 35.4062
Q43.2188 41.6094 39.1406 45
Q35.0625 48.3906 27.6875 48.3906
Q23 48.3906 18.5469 47.2656
Q14.1094 46.1406 10.0156 43.8906
L10.0156 52.2031
Q14.9375 54.1094 19.5781 55.0469
Q24.2188 56 28.6094 56
Q40.4844 56 46.3438 49.8438
Q52.2031 43.7031 52.2031 31.2031" id="DejaVuSans-61"/>
    </defs>
    <g transform="translate(170.184625 18.14175)scale(0.144 -0.144)">
     <use xlink:href="#DejaVuSans-2f"/>
     <use x="33.69140625" xlink:href="#DejaVuSans-61"/>
     <use x="94.970703125" xlink:href="#DejaVuSans-67"/>
     <use x="158.447265625" xlink:href="#DejaVuSans-61"/>
     <use x="219.7265625" xlink:href="#DejaVuSans-73"/>
     <use x="271.826171875" xlink:href="#DejaVuSans-2f"/>
     <use x="305.517578125" xlink:href="#DejaVuSans-63"/>
     <use x="360.498046875" xlink:href="#DejaVuSans-6f"/>
     <use x="421.6796875" xlink:href="#DejaVuSans-75"/>
     <use x="485.05859375" xlink:href="#DejaVuSans-6e"/>
     <use x="548.4375" xlink:href="#DejaVuSans-74"/>
     <use x="587.646484375" xlink:href="#DejaVuSans-2f"/>
     <use x="621.337890625" xlink:href="#DejaVuSans-63"/>
     <use x="676.318359375" xlink:href="#DejaVuSans-61"/>
     <use x="737.59765625" xlink:href="#DejaVuSans-63"/>
     <use x="792.578125" xlink:href="#DejaVuSans-68"/>
     <use x="855.95703125" xlink:href="#DejaVuSans-65"/>
     <use x="917.48046875" xlink:href="#DejaVuSans-2f"/>
     <use x="951.171875" xlink:href="#DejaVuSans-75"/>
     <use x="1014.55078125" xlink:href="#DejaVuSans-70"/>
     <use x="1078.02734375" xlink:href="#DejaVuSans-64"/>
     <use x="1141.50390625" xlink:href="#DejaVuSans-61"/>
     <use x="1202.78320312" xlink:href="#DejaVuSans-74"/>
     <use x="1241.9921875" xlink:href="#DejaVuSans-65"/>
     <use x="1303.515625" xlink:href="#DejaVuSans-5f"/>
     <use x="1353.515625" xlink:href="#DejaVuSans-65"/>
     <use x="1415.0390625" xlink:href="#DejaVuSans-6e"/>
     <use x="1478.41796875" xlink:href="#DejaVuSans-74"/>
     <use x="1517.62695312" xlink:href="#DejaVuSans-72"/>
     <use x="1558.74023438" xlink:href="#DejaVuSans-79"/>
    </g>
   </g>
   <g id="legend_1">
    <g id="patch_7">
     <path d="
M516.861 367.194
L648.65 367.194
L648.65 24.6897
L516.861 24.6897
z
" style="fill:#ffffff;stroke:#000000;stroke-linejoin:miter;"/>
    </g>
    <g id="line2d_41">
     <path d="
M526.941 36.3515
L547.101 36.3515" style="fill:none;stroke:#0000ff;stroke-linecap:square;"/>
    </g>
    <g id="line2d_42"/>
    <g id="text_15">
     <!-- locality#0 -->
     <defs>
      <path d="
M51.125 44
L36.9219 44
L32.8125 27.6875
L47.125 27.6875
z

M43.7969 71.7812
L38.7188 51.5156
L52.9844 51.5156
L58.1094 71.7812
L65.9219 71.7812
L60.8906 51.5156
L76.125 51.5156
L76.125 44
L58.9844 44
L54.9844 27.6875
L70.5156 27.6875
L70.5156 20.2188
L53.0781 20.2188
L48 0
L40.1875 0
L45.2188 20.2188
L30.9062 20.2188
L25.875 0
L18.0156 0
L23.0938 20.2188
L7.71875 20.2188
L7.71875 27.6875
L24.9062 27.6875
L29 44
L13.2812 44
L13.2812 51.5156
L30.9062 51.5156
L35.8906 71.7812
z
" id="DejaVuSans-23"/>
      <path d="
M9.42188 75.9844
L18.4062 75.9844
L18.4062 0
L9.42188 0
z
" id="DejaVuSans-6c"/>
     </defs>
     <g transform="translate(562.94125 41.3915)scale(0.144 -0.144)">
      <use xlink:href="#DejaVuSans-6c"/>
      <use x="27.783203125" xlink:href="#DejaVuSans-6f"/>
      <use x="88.96484375" xlink:href="#DejaVuSans-63"/>
      <use x="143.9453125" xlink:href="#DejaVuSans-61"/>
      <use x="205.224609375" xlink:href="#DejaVuSans-6c"/>
      <use x="233.0078125" xlink:href="#DejaVuSans-69"/>
      <use x="260.791015625" xlink:href="#DejaVuSans-74"/>
      <use x="300.0" xlink:href="#DejaVuSans-79"/>
      <use x="359.1796875" xlink:href="#DejaVuSans-23"/>
      <use x="442.96875" xlink:href="#DejaVuSans-30"/>
     </g>
    </g>
    <g id="line2d_43">
     <path d="
M526.941 57.488
L547.101 57.488" style="fill:none;stroke:#008000;stroke-linecap:square;"/>
    </g>
    <g id="line2d_44"/>
    <g id="text_16">
     <!-- locality#1 -->
     <g transform="translate(562.94125 62.528)scale(0.144 -0.144)">
      <use xlink:href="#DejaVuSans-6c"/>
      <use x="27.783203125" xlink:href="#DejaVuSans-6f"/>
      <use x="88.96484375" xlink:href="#DejaVuSans-63"/>
      <use x="143.9453125" xlink:href="#DejaVuSans-61"/>
      <use x="205.224609375" xlink:href="#DejaVuSans-6c"/>
      <use x="233.0078125" xlink:href="#DejaVuSans-69"/>
      <use x="260.791015625" xlink:href="#DejaVuSans-74"/>
      <use x="300.0" xlink:href="#DejaVuSans-79"/>
      <use x="359.1796875" xlink:href="#DejaVuSans-23"/>
      <use x="442.96875" xlink:href="#DejaVuSans-31"/>
     </g>
    </g>
    <g id="line2d_45">
     <path d="
M526.941 78.6245
L547.101 78.6245" style="fill:none;stroke:#ff0000;stroke-linecap:square;"/>
    </g>
    <g id="line2d_46"/>
    <g id="text_17">
     <!-- locality#10 -->
     <g transform="translate(562.94125 83.6645)scale(0.144 -0.144)">
      <use xlink:href="#DejaVuSans-6c"/>
      <use x="27.783203125" xlink:href="#DejaVuSans-6f"/>
      <use x="88.96484375" xlink:href="#DejaVuSans-63"/>
      <use x="143.9453125" xlink:href="#DejaVuSans-61"/>
      <use x="205.224609375" xlink:href="#DejaVuSans-6c"/>
      <use x="233.0078125" xlink:href="#DejaVuSans-69"/>
      <use x="260.791015625" xlink:href="#DejaVuSans-74"/>
      <use x="300.0" xlink:href="#DejaVuSans-79"/>
      <use x="359.1796875" xlink:href="#DejaVuSans-23"/>
      <use x="442.96875" xlink:href="#DejaVuSans-31"/>
      <use x="506.591796875" xlink:href="#DejaVuSans-30"/>
     </g>
    </g>
    <g id="line2d_47">
     <path d="
M526.941 99.761
L547.101 99.761" style="fill:none;stroke:#00bfbf;stroke-linecap:square;"/>
    </g>
    <g id="line2d_48"/>
    <g id="text_18">
     <!-- locality#11 -->
     <g transform="translate(562.94125 104.801)scale(0.144 -0.144)">
      <use xlink:href="#DejaVuSans-6c"/>
      <use x="27.783203125" xlink:href="#DejaVuSans-6f"/>
      <use x="88.96484375" xlink:href="#DejaVuSans-63"/>
      <use x="143.9453125" xlink:href="#DejaVuSans-61"/>
      <use x="205.224609375" xlink:href="#DejaVuSans-6c"/>
      <use x="233.0078125" xlink:href="#DejaVuSans-69"/>
      <use x="260.791015625" xlink:href="#DejaVuSans-74"/>
      <use x="300.0" xlink:href="#DejaVuSans-79"/>
      <use x="359.1796875" xlink:href="#DejaVuSans-23"/>
      <use x="442.96875" xlink:href="#DejaVuSans-31"/>
      <use x="506.591796875" xlink:href="#DejaVuSans-31"/>
     </g>
    </g>
    <g id="line2d_49">
     <path d="
M526.941 120.897
L547.101 120.897" style="fill:none;stroke:#bf00bf;stroke-linecap:square;"/>
    </g>
    <g id="line2d_50"/>
    <g id="text_19">
     <!-- locality#12 -->
     <g transform="translate(562.94125 125.9375)scale(0.144 -0.144)">
      <use xlink:href="#DejaVuSans-6c"/>
      <use x="27.783203125" xlink:href="#DejaVuSans-6f"/>
      <use x="88.96484375" xlink:href="#DejaVuSans-63"/>
      <use x="143.9453125" xlink:href="#DejaVuSans-61"/>
      <use x="205.224609375" xlink:href="#DejaVuSans-6c"/>
      <use x="233.0078125" xlink:href="#DejaVuSans-69"/>
      <use x="260.791015625" xlink:href="#DejaVuSans-74"/>
      <use x="300.0" xlink:href="#DejaVuSans-79"/>
      <use x="359.1796875" xlink:href="#DejaVuSans-23"/>
      <use x="442.96875" xlink:href="#DejaVuSans-31"/>
      <use x="506.591796875" xlink:href="#DejaVuSans-32"/>
     </g>
    </g>
    <g id="line2d_51">
     <path d="
M526.941 142.034
L547.101 142.034" style="fill:none;stroke:#bfbf00;stroke-linecap:square;"/>
    </g>
    <g id="line2d_52"/>
    <g id="text_20">
     <!-- locality#13 -->
     <g transform="translate(562.94125 147.074)scale(0.144 -0.144)">
      <use xlink:href="#DejaVuSans-6c"/>
      <use x="27.783203125" xlink:href="#DejaVuSans-6f"/>
      <use x="88.96484375" xlink:href="#DejaVuSans-63"/>
      <use x="143.9453125" xlink:href="#DejaVuSans-61"/>
      <use x="205.224609375" xlink:href="#DejaVuSans-6c"/>
      <use x="233.0078125" xlink:href="#DejaVuSans-69"/>
      <use x="260.791015625" xlink:href="#DejaVuSans-74"/>
      <use x="300.0" xlink:href="#DejaVuSans-79"/>
      <use x="359.1796875" xlink:href="#DejaVuSans-23"/>
      <use x="442.96875" xlink:href="#DejaVuSans-31"/>
      <use x="506.591796875" xlink:href="#DejaVuSans-33"/>
     </g>
    </g>
    <g id="line2d_53">
     <path d="
M526.941 163.17
L547.101 163.17" style="fill:none;stroke:#000000;stroke-linecap:square;"/>
    </g>
    <g id="line2d_54"/>
    <g id="text_21">
     <!-- locality#14 -->
     <g transform="translate(562.94125 168.2105)scale(0.144 -0.144)">
      <use xlink:href="#DejaVuSans-6c"/>
      <use x="27.783203125" xlink:href="#DejaVuSans-6f"/>
      <use x="88.96484375" xlink:href="#DejaVuSans-63"/>
      <use x="143.9453125" xlink:href="#DejaVuSans-61"/>
      <use x="205.224609375" xlink:href="#DejaVuSans-6c"/>
      <use x="233.0078125" xlink:href="#DejaVuSans-69"/>
      <use x="260.791015625" xlink:href="#DejaVuSans-74"/>
      <use x="300.0" xlink:href="#DejaVuSans-79"/>
      <use x="359.1796875" xlink:href="#DejaVuSans-23"/>
      <use x="442.96875" xlink:href="#DejaVuSans-31"/>
      <use x="506.591796875" xlink:href="#DejaVuSans-34"/>
     </g>
    </g>
    <g id="line2d_55">
     <path d="
M526.941 184.307
L547.101 184.307" style="fill:none;stroke:#0000ff;stroke-linecap:square;"/>
    </g>
    <g id="line2d_56"/>
    <g id="text_22">
     <!-- locality#15 -->
     <g transform="translate(562.94125 189.347)scale(0.144 -0.144)">
      <use xlink:href="#DejaVuSans-6c"/>
      <use x="27.783203125" xlink:href="#DejaVuSans-6f"/>
      <use x="88.96484375" xlink:href="#DejaVuSans-63"/>
      <use x="143.9453125" xlink:href="#DejaVuSans-61"/>
      <use x="205.224609375" xlink:href="#DejaVuSans-6c"/>
      <use x="233.0078125" xlink:href="#DejaVuSans-69"/>
      <use x="260.791015625" xlink:href="#DejaVuSans-74"/>
      <use x="300.0" xlink:href="#DejaVuSans-79"/>
      <use x="359.1796875" xlink:href="#DejaVuSans-23"/>
      <use x="442.96875" xlink:href="#DejaVuSans-31"/>
      <use x="506.591796875" xlink:href="#DejaVuSans-35"/>
     </g>
    </g>
    <g id="line2d_57">
     <path d="
M526.941 205.443
L547.101 205.443" style="fill:none;stroke:#008000;stroke-linecap:square;"/>
    </g>
    <g id="line2d_58"/>
    <g id="text_23">
     <!-- locality#2 -->
     <g transform="translate(562.94125 210.4835)scale(0.144 -0.144)">
      <use xlink:href="#DejaVuSans-6c"/>
      <use x="27.783203125" xlink:href="#DejaVuSans-6f"/>
      <use x="88.96484375" xlink:href="#DejaVuSans-63"/>
      <use x="143.9453125" xlink:href="#DejaVuSans-61"/>
      <use x="205.224609375" xlink:href="#DejaVuSans-6c"/>
      <use x="233.0078125" xlink:href="#DejaVuSans-69"/>
      <use x="260.791015625" xlink:href="#DejaVuSans-74"/>
      <use x="300.0" xlink:href="#DejaVuSans-79"/>
      <use x="359.1796875" xlink:href="#DejaVuSans-23"/>
      <use x="442.96875" xlink:href="#DejaVuSans-32"/>
     </g>
    </g>
    <g id="line2d_59">
     <path d="
M526.941 226.58
L547.101 226.58" style="fill:none;stroke:#ff0000;stroke-linecap:square;"/>
    </g>
    <g id="line2d_60"/>
    <g id="text_24">
     <!-- locality#3 -->
     <g transform="translate(562.94125 231.62)scale(0.144 -0.144)">
      <use xlink:href="#DejaVuSans-6c"/>
      <use x="27.783203125" xlink:href="#DejaVuSans-6f"/>
      <use x="88.96484375" xlink:href="#DejaVuSans-63"/>
      <use x="143.9453125" xlink:href="#DejaVuSans-61"/>
      <use x="205.224609375" xlink:href="#DejaVuSans-6c"/>
      <use x="233.0078125" xlink:href="#DejaVuSans-69"/>
      <use x="260.791015625" xlink:href="#DejaVuSans-74"/>
      <use x="300.0" xlink:href="#DejaVuSans-79"/>
      <use x="359.1796875" xlink:href="#DejaVuSans-23"/>
      <use x="442.96875" xlink:href="#DejaVuSans-33"/>
     </g>
    </g>
    <g id="line2d_61">
     <path d="
M526.941 247.716
L547.101 247.716" style="fill:none;stroke:#00bfbf;stroke-linecap:square;"/>
    </g>
    <g id="line2d_62"/>
    <g id="text_25">
     <!-- locality#4 -->
     <g transform="translate(562.94125 252.7565)scale(0.144 -0.144)">
      <use xlink:href="#DejaVuSans-6c"/>
      <use x="27.783203125" xlink:href="#DejaVuSans-6f"/>
      <use x="88.96484375" xlink:href="#DejaVuSans-63"/>
      <use x="143.9453125" xlink:href="#DejaVuSans-61"/>
      <use x="205.224609375" xlink:href="#DejaVuSans-6c"/>
      <use x="233.0078125" xlink:href="#DejaVuSans-69"/>
      <use x="260.791015625" xlink:href="#DejaVuSans-74"/>
      <use x="300.0" xlink:href="#DejaVuSans-79"/>
      <use x="359.1796875" xlink:href="#DejaVuSans-23"/>
      <use x="442.96875" xlink:href="#DejaVuSans-34"/>
     </g>
    </g>
    <g id="line2d_63">
     <path d="
M526.941 268.853
L547.101 268.853" style="fill:none;stroke:#bf00bf;stroke-linecap:square;"/>
    </g>
    <g id="line2d_64"/>
    <g id="text_26">
     <!-- locality#5 -->
     <g transform="translate(562.94125 273.893)scale(0.144 -0.144)">
      <use xlink:href="#DejaVuSans-6c"/>
      <use x="27.783203125" xlink:href="#DejaVuSans-6f"/>
      <use x="88.96484375" xlink:href="#DejaVuSans-63"/>
      <use x="143.9453125" xlink:href="#DejaVuSans-61"/>
      <use x="205.224609375" xlink:href="#DejaVuSans-6c"/>
      <use x="233.0078125" xlink:href="#DejaVuSans-69"/>
      <use x="260.791015625" xlink:href="#DejaVuSans-74"/>
      <use x="300.0" xlink:href="#DejaVuSans-79"/>
      <use x="359.1796875" xlink:href="#DejaVuSans-23"/>
      <use x="442.96875" xlink:href="#DejaVuSans-35"/>
     </g>
    </g>
    <g id="line2d_65">
     <path d="
M526.941 289.989
L547.101 289.989" style="fill:none;stroke:#bfbf00;stroke-linecap:square;"/>
    </g>
    <g id="line2d_66"/>
    <g id="text_27">
     <!-- locality#6 -->
     <g transform="translate(562.94125 295.0295)scale(0.144 -0.144)">
      <use xlink:href="#DejaVuSans-6c"/>
      <use x="27.783203125" xlink:href="#DejaVuSans-6f"/>
      <use x="88.96484375" xlink:href="#DejaVuSans-63"/>
      <use x="143.9453125" xlink:href="#DejaVuSans-61"/>
      <use x="205.224609375" xlink:href="#DejaVuSans-6c"/>
      <use x="233.0078125" xlink:href="#DejaVuSans-69"/>
      <use x="260.791015625" xlink:href="#DejaVuSans-74"/>
      <use x="300.0" xlink:href="#DejaVuSans-79"/>
      <use x="359.1796875" xlink:href="#DejaVuSans-23"/>
      <use x="442.96875" xlink:href="#DejaVuSans-36"/>
     </g>
    </g>
    <g id="line2d_67">
     <path d="
M526.941 311.126
L547.101 311.126" style="fill:none;stroke:#000000;stroke-linecap:square;"/>
    </g>
    <g id="line2d_68"/>
    <g id="text_28">
     <!-- locality#7 -->
     <defs>
      <path d="
M8.20312 72.9062
L55.0781 72.9062
L55.0781 68.7031
L28.6094 0
L18.3125 0
L43.2188 64.5938
L8.20312 64.5938
z
" id="DejaVuSans-37"/>
     </defs>
     <g transform="translate(562.94125 316.166)scale(0.144 -0.144)">
      <use xlink:href="#DejaVuSans-6c"/>
      <use x="27.783203125" xlink:href="#DejaVuSans-6f"/>
      <use x="88.96484375" xlink:href="#DejaVuSans-63"/>
      <use x="143.9453125" xlink:href="#DejaVuSans-61"/>
      <use x="205.224609375" xlink:href="#DejaVuSans-6c"/>
      <use x="233.0078125" xlink:href="#DejaVuSans-69"/>
      <use x="260.791015625" xlink:href="#DejaVuSans-74"/>
      <use x="300.0" xlink:href="#DejaVuSans-79"/>
      <use x="359.1796875" xlink:href="#DejaVuSans-23"/>
      <use x="442.96875" xlink:href="#DejaVuSans-37"/>
     </g>
    </g>
    <g id="line2d_69">
     <path d="
M526.941 332.262
L547.101 332.262" style="fill:none;stroke:#0000ff;stroke-linecap:square;"/>
    </g>
    <g id="line2d_70"/>
    <g id="text_29">
     <!-- locality#8 -->
     <defs>
      <path d="
M31.7812 34.625
Q24.75 34.625 20.7188 30.8594
Q16.7031 27.0938 16.7031 20.5156
Q16.7031 13.9219 20.7188 10.1562
Q24.75 6.39062 31.7812 6.39062
Q38.8125 6.39062 42.8594 10.1719
Q46.9219 13.9688 46.9219 20.5156
Q46.9219 27.0938 42.8906 30.8594
Q38.875 34.625 31.7812 34.625
M21.9219 38.8125
Q15.5781 40.375 12.0312 44.7188
Q8.5 49.0781 8.5 55.3281
Q8.5 64.0625 14.7188 69.1406
Q20.9531 74.2188 31.7812 74.2188
Q42.6719 74.2188 48.875 69.1406
Q55.0781 64.0625 55.0781 55.3281
Q55.0781 49.0781 51.5312 44.7188
Q48 40.375 41.7031 38.8125
Q48.8281 37.1562 52.7969 32.3125
Q56.7812 27.4844 56.7812 20.5156
Q56.7812 9.90625 50.3125 4.23438
Q43.8438 -1.42188 31.7812 -1.42188
Q19.7344 -1.42188 13.25 4.23438
Q6.78125 9.90625 6.78125 20.5156
Q6.78125 27.4844 10.7812 32.3125
Q14.7969 37.1562 21.9219 38.8125
M18.3125 54.3906
Q18.3125 48.7344 21.8438 45.5625
Q25.3906 42.3906 31.7812 42.3906
Q38.1406 42.3906 41.7188 45.5625
Q45.3125 48.7344 45.3125 54.3906
Q45.3125 60.0625 41.7188 63.2344
Q38.1406 66.4062 31.7812 66.4062
Q25.3906 66.4062 21.8438 63.2344
Q18.3125 60.0625 18.3125 54.3906" id="DejaVuSans-38"/>
     </defs>
     <g transform="translate(562.94125 337.3025)scale(0.144 -0.144)">
      <use xlink:href="#DejaVuSans-6c"/>
      <use x="27.783203125" xlink:href="#DejaVuSans-6f"/>
      <use x="88.96484375" xlink:href="#DejaVuSans-63"/>
      <use x="143.9453125" xlink:href="#DejaVuSans-61"/>
      <use x="205.224609375" xlink:href="#DejaVuSans-6c"/>
      <use x="233.0078125" xlink:href="#DejaVuSans-69"/>
      <use x="260.791015625" xlink:href="#DejaVuSans-74"/>
      <use x="300.0" xlink:href="#DejaVuSans-79"/>
      <use x="359.1796875" xlink:href="#DejaVuSans-23"/>
      <use x="442.96875" xlink:href="#DejaVuSans-38"/>
     </g>
    </g>
    <g id="line2d_71">
     <path d="
M526.941 353.399
L547.101 353.399" style="fill:none;stroke:#008000;stroke-linecap:square;"/>
    </g>
    <g id="line2d_72"/>
    <g id="text_30">
     <!-- locality#9 -->
     <defs>
      <path d="
M10.9844 1.51562
L10.9844 10.5
Q14.7031 8.73438 18.5 7.8125
Q22.3125 6.89062 25.9844 6.89062
Q35.75 6.89062 40.8906 13.4531
Q46.0469 20.0156 46.7812 33.4062
Q43.9531 29.2031 39.5938 26.9531
Q35.25 24.7031 29.9844 24.7031
Q19.0469 24.7031 12.6719 31.3125
Q6.29688 37.9375 6.29688 49.4219
Q6.29688 60.6406 12.9375 67.4219
Q19.5781 74.2188 30.6094 74.2188
Q43.2656 74.2188 49.9219 64.5156
Q56.5938 54.8281 56.5938 36.375
Q56.5938 19.1406 48.4062 8.85938
Q40.2344 -1.42188 26.4219 -1.42188
Q22.7031 -1.42188 18.8906 -0.6875
Q15.0938 0.046875 10.9844 1.51562
M30.6094 32.4219
Q37.25 32.4219 41.125 36.9531
Q45.0156 41.5 45.0156 49.4219
Q45.0156 57.2812 41.125 61.8438
Q37.25 66.4062 30.6094 66.4062
Q23.9688 66.4062 20.0938 61.8438
Q16.2188 57.2812 16.2188 49.4219
Q16.2188 41.5 20.0938 36.9531
Q23.9688 32.4219 30.6094 32.4219" id="DejaVuSans-39"/>
     </defs>
     <g transform="translate(562.94125 358.439)scale(0.144 -0.144)">
      <use xlink:href="#DejaVuSans-6c"/>
      <use x="27.783203125" xlink:href="#DejaVuSans-6f"/>
      <use x="88.96484375" xlink:href="#DejaVuSans-63"/>
      <use x="143.9453125" xlink:href="#DejaVuSans-61"/>
      <use x="205.224609375" xlink:href="#DejaVuSans-6c"/>
      <use x="233.0078125" xlink:href="#DejaVuSans-69"/>
      <use x="260.791015625" xlink:href="#DejaVuSans-74"/>
      <use x="300.0" xlink:href="#DejaVuSans-79"/>
      <use x="359.1796875" xlink:href="#DejaVuSans-23"/>
      <use x="442.96875" xlink:href="#DejaVuSans-39"/>
     </g>
    </g>
   </g>
  </g>
 </g>
 <defs>
  <clipPath id="p3f6fae7697">
   <rect height="345.6" width="446.4" x="63.26125" y="23.14175"/>
  </clipPath>
 </defs>
</svg>
