<?xml version="1.0" encoding="utf-8" standalone="no"?>
<!DOCTYPE svg PUBLIC "-//W3C//DTD SVG 1.1//EN"
  "http://www.w3.org/Graphics/SVG/1.1/DTD/svg11.dtd">
<!-- Created with matplotlib (http://matplotlib.org/) -->
<svg height="408pt" version="1.1" viewBox="0 0 621 408" width="621pt" xmlns="http://www.w3.org/2000/svg" xmlns:xlink="http://www.w3.org/1999/xlink">
 <defs>
  <style type="text/css">
*{stroke-linecap:butt;stroke-linejoin:round;}
  </style>
 </defs>
 <g id="figure_1">
  <g id="patch_1">
   <path d="
M0 408.169
L621.409 408.169
L621.409 0
L0 0
z
" style="fill:#ffffff;"/>
  </g>
  <g id="axes_1">
   <g id="patch_2">
    <path d="
M28.8194 368.742
L475.219 368.742
L475.219 23.1417
L28.8194 23.1417
z
" style="fill:#ffffff;"/>
   </g>
   <g id="line2d_1">
    <path clip-path="url(#p8c776b0f9c)" d="
M28.8194 368.742
L35.9905 368.742
L36.8868 324.063
L37.7832 368.742
L44.9543 368.742
L45.8507 368.586
L46.7471 368.742
L48.5399 368.742
L49.4362 368.62
L50.3326 368.742
L53.0218 368.742
L53.9182 368.621
L54.8146 368.742
L70.0531 368.742
L70.9495 368.294
L71.8459 368.742
L85.2917 368.742
L86.188 368.526
L87.0844 368.742
L91.5664 368.742
L92.4627 368.612
L93.3591 368.61
L94.2555 368.742
L113.08 368.742
L113.976 368.626
L114.872 368.34
L115.769 368.742
L128.318 368.742
L129.215 363.907
L130.111 368.742
L157.003 368.742
L157.899 368.548
L158.795 368.742
L164.174 368.742
L165.07 368.518
L165.966 368.742
L171.345 368.742
L172.241 368.565
L173.137 368.742
L179.412 368.742
L180.309 368.558
L181.205 368.742
L222.439 368.742
L223.335 368.291
L224.231 368.742
L250.227 368.742
L251.123 368.59
L253.812 368.742
L262.776 368.742
L263.672 368.589
L264.569 368.742
L272.636 368.742
L273.533 368.572
L274.429 368.742
L279.807 368.742
L280.704 368.35
L281.6 368.742
L304.906 368.742
L305.803 368.612
L306.699 368.742
L308.492 368.742
L309.388 367.808
L310.284 368.742
L326.419 368.742
L327.316 368.617
L328.212 368.742
L330.005 368.742
L330.901 368.42
L331.798 368.688
L334.487 368.742
L360.482 368.742
L361.378 368.465
L362.275 368.742
L366.757 368.742
L367.653 368.605
L369.446 368.742
L370.342 368.67
L372.135 368.742
L374.824 368.742
L375.721 368.628
L376.617 368.742
L402.612 368.742
L403.509 367.764
L404.405 368.68
L406.198 368.742
L410.68 368.742
L411.576 368.17
L412.472 368.686
L414.265 368.742
L454.603 368.742
L455.499 368.63
L457.292 368.742
L475.219 368.742
L475.219 368.742" style="fill:none;stroke:#0000ff;stroke-linecap:square;"/>
   </g>
   <g id="line2d_2">
    <path clip-path="url(#p8c776b0f9c)" d="
M28.8194 330.992
L29.7158 368.742
L54.8146 368.742
L55.7109 368.586
L56.6073 368.742
L72.7423 368.742
L73.6387 368.581
L74.535 368.742
L80.8097 368.742
L81.7061 368.592
L82.6025 368.742
L96.9447 368.742
L97.8411 368.61
L98.7374 368.742
L112.183 368.742
L113.08 368.604
L113.976 368.742
L135.489 368.742
L136.386 368.599
L137.282 368.742
L150.728 368.742
L151.624 368.47
L152.521 368.742
L158.795 368.742
L159.692 368.168
L160.588 368.742
L174.034 368.742
L174.93 368.43
L175.827 368.742
L205.407 368.742
L206.304 367.844
L207.2 368.742
L220.646 368.742
L221.542 368.466
L222.439 368.742
L251.123 368.742
L252.019 368.628
L259.19 368.742
L260.087 368.596
L260.983 368.742
L290.564 368.742
L291.46 368.623
L292.357 368.742
L305.803 368.742
L306.699 368.56
L307.595 368.742
L337.176 368.742
L338.072 368.63
L339.865 368.742
L353.311 368.742
L354.207 368.561
L355.104 368.742
L391.856 368.742
L392.752 368.445
L393.648 368.742
L399.923 368.742
L400.819 368.619
L401.716 368.742
L416.058 368.742
L416.954 368.359
L417.851 368.742
L470.737 368.742
L471.634 368.245
L472.53 368.742
L475.219 368.742
L475.219 368.742" style="fill:none;stroke:#008000;stroke-linecap:square;"/>
   </g>
   <g id="line2d_3">
    <path clip-path="url(#p8c776b0f9c)" d="
M28.8194 368.742
L32.4049 368.742
L33.3013 39.3197
L34.1977 368.742
L36.8868 368.742
L37.7832 368.488
L38.6796 368.742
L41.3688 368.742
L42.2652 368.463
L43.1615 368.694
L45.8507 368.742
L46.7471 368.742
L47.6435 368.619
L48.5399 368.742
L51.229 368.742
L52.1254 367.891
L53.0218 368.742
L61.0893 368.742
L61.9856 368.316
L62.882 368.742
L70.0531 368.742
L70.9495 368.17
L71.8459 368.742
L79.017 368.742
L79.9134 368.575
L80.8097 368.742
L90.67 368.742
L91.5664 368.364
L92.4627 368.653
L94.2555 368.742
L107.701 368.742
L108.598 368.421
L109.494 368.742
L111.287 368.742
L112.183 367.86
L113.08 368.742
L119.354 368.742
L120.251 368.625
L121.147 368.742
L127.422 368.742
L128.318 367.96
L129.215 368.742
L131.007 368.742
L131.904 368.508
L132.8 368.742
L134.593 368.742
L135.489 368.615
L138.178 368.742
L143.557 368.742
L144.453 367.43
L145.349 368.742
L150.728 368.742
L151.624 367.169
L152.521 368.653
L154.313 368.742
L163.277 368.742
L164.174 368.598
L165.07 368.742
L171.345 368.742
L172.241 368.552
L173.137 368.742
L179.412 368.742
L180.309 366.81
L181.205 368.742
L199.133 368.742
L200.029 368.308
L200.925 368.688
L203.615 368.742
L204.511 368.657
L206.304 368.742
L211.682 368.742
L212.578 366.983
L213.475 368.742
L219.749 368.742
L220.646 367.682
L221.542 368.742
L234.988 368.742
L235.884 368.379
L236.781 368.742
L251.123 368.742
L252.019 326.97
L252.916 368.686
L254.709 368.742
L276.222 368.742
L277.118 368.218
L278.015 368.742
L299.528 368.742
L300.424 368.496
L301.321 368.742
L315.663 368.742
L316.559 368.502
L317.456 368.742
L323.73 368.742
L324.627 366.924
L325.523 368.742
L361.378 368.742
L362.275 324.697
L363.171 368.742
L368.549 368.742
L369.446 368.605
L370.342 368.742
L381.099 368.742
L381.995 368.619
L382.892 368.742
L405.301 368.742
L406.198 364.03
L407.094 368.742
L417.851 368.742
L418.747 367.972
L419.643 368.742
L421.436 368.742
L422.333 368.609
L423.229 368.742
L450.121 368.742
L451.017 368.582
L451.913 368.742
L458.188 368.742
L459.084 368.183
L459.981 368.742
L474.323 368.742
L475.219 368.473
L475.219 368.473" style="fill:none;stroke:#ff0000;stroke-linecap:square;"/>
   </g>
   <g id="line2d_4">
    <path clip-path="url(#p8c776b0f9c)" d="
M28.8194 361.624
L29.7158 368.742
L32.4049 368.742
L33.3013 368.585
L34.1977 368.742
L42.2652 368.742
L43.1615 368.276
L44.0579 368.742
L52.1254 368.742
L53.0218 368.529
L54.8146 368.742
L57.5037 368.742
L58.4001 368.622
L59.2965 368.742
L61.9856 368.742
L62.882 368.58
L64.6748 368.742
L67.364 368.742
L68.2603 368.589
L69.1567 368.742
L76.3278 368.742
L77.2242 368.466
L78.1206 368.742
L80.8097 368.742
L81.7061 368.37
L82.6025 368.742
L85.2917 368.742
L86.188 368.583
L87.0844 368.742
L97.8411 368.742
L98.7374 368.58
L99.6338 368.742
L102.323 368.742
L103.219 368.589
L104.116 368.742
L105.909 368.742
L107.701 368.441
L108.598 368.742
L114.872 368.742
L115.769 368.521
L116.665 368.742
L119.354 368.742
L120.251 368.436
L121.147 368.742
L127.422 368.742
L128.318 368.287
L129.215 368.742
L135.489 368.742
L136.386 368.233
L137.282 368.742
L148.039 368.742
L148.935 368.338
L149.831 368.742
L157.003 368.742
L157.899 368.615
L158.795 368.742
L160.588 368.742
L161.484 368.255
L162.381 368.742
L177.619 368.742
L178.516 368.3
L179.412 368.742
L207.2 368.742
L208.096 368.513
L208.993 368.742
L219.749 368.742
L220.646 368.61
L221.542 368.742
L223.335 368.742
L224.231 366.721
L225.128 368.742
L248.434 368.742
L249.33 368.109
L250.227 368.742
L266.362 368.742
L267.258 327.962
L268.154 368.742
L295.046 368.742
L295.942 368.63
L297.735 368.742
L312.077 368.742
L312.974 368.537
L313.87 368.742
L324.627 368.742
L325.523 368.442
L326.419 368.742
L346.14 368.742
L347.036 368.606
L347.933 368.742
L350.622 368.742
L351.518 360.629
L352.415 368.742
L388.27 368.742
L389.166 368.158
L390.063 368.742
L414.265 368.742
L415.162 367.912
L416.058 368.742
L422.333 368.742
L423.229 368.6
L424.125 368.742
L439.364 368.742
L440.26 368.615
L441.157 368.742
L443.846 368.742
L444.742 368.39
L445.639 368.742
L468.945 368.742
L469.841 368.415
L470.737 368.742
L475.219 368.742
L475.219 368.742" style="fill:none;stroke:#00bfbf;stroke-linecap:square;"/>
   </g>
   <g id="line2d_5">
    <path clip-path="url(#p8c776b0f9c)" d="
M28.8194 361.267
L29.7158 368.742
L60.1929 368.742
L61.0893 368.618
L61.9856 368.742
L65.5712 368.742
L66.4676 368.605
L67.364 368.742
L79.9134 368.742
L80.8097 368.517
L81.7061 368.742
L84.3953 368.742
L85.2917 368.501
L86.188 368.742
L88.8772 368.742
L89.7736 368.51
L90.67 368.742
L97.8411 368.742
L98.7374 368.613
L101.427 368.742
L112.183 368.742
L113.08 368.606
L113.976 368.742
L121.147 368.742
L122.043 368.383
L122.94 368.742
L130.111 368.742
L131.007 368.462
L131.904 368.742
L152.521 368.742
L153.417 368.527
L154.313 368.742
L170.448 368.742
L171.345 368.61
L172.241 368.742
L180.309 368.742
L181.205 368.613
L182.101 368.742
L183.894 368.742
L184.79 368.294
L185.687 368.674
L187.48 368.742
L198.236 368.742
L199.133 368.606
L200.029 368.742
L211.682 368.742
L212.578 368
L213.475 368.742
L256.501 368.742
L257.398 368.403
L258.294 368.742
L266.362 368.742
L267.258 368.603
L268.154 368.742
L269.947 368.742
L270.843 368.557
L272.636 368.742
L293.253 368.742
L294.149 368.158
L295.046 368.742
L302.217 368.742
L303.113 368.623
L304.01 368.742
L306.699 368.742
L307.595 368.627
L308.492 368.742
L311.181 368.742
L312.077 368.218
L312.974 368.742
L320.145 368.742
L321.041 367.894
L321.937 368.742
L334.487 368.742
L335.383 368.576
L336.28 368.742
L343.451 368.742
L344.347 368.61
L345.243 368.742
L352.415 368.742
L353.311 368.63
L355.104 368.742
L362.275 368.742
L363.171 368.593
L364.068 368.742
L398.13 368.742
L399.027 368.346
L399.923 368.742
L416.954 368.742
L417.851 368.582
L418.747 368.742
L439.364 368.742
L440.26 368.616
L441.157 368.742
L448.328 368.742
L449.224 368.563
L450.121 368.742
L458.188 368.742
L459.084 368.535
L459.981 368.742
L475.219 368.742
L475.219 368.742" style="fill:none;stroke:#bf00bf;stroke-linecap:square;"/>
   </g>
   <g id="line2d_6">
    <path clip-path="url(#p8c776b0f9c)" d="
M28.8194 360.497
L29.7158 368.742
L33.3013 368.742
L34.1977 368.621
L35.0941 368.742
L39.576 368.742
L40.4724 368.615
L41.3688 368.742
L51.229 368.742
L52.1254 368.328
L53.0218 368.742
L57.5037 368.742
L58.4001 368.494
L59.2965 368.742
L62.882 368.742
L63.7784 368.336
L64.6748 368.687
L67.364 368.742
L74.535 368.742
L75.4314 368.507
L76.3278 368.742
L84.3953 368.742
L85.2917 368.563
L87.0844 368.742
L89.7736 368.742
L90.67 368.486
L91.5664 368.742
L95.1519 368.742
L96.0483 368.386
L96.9447 368.742
L105.012 368.742
L105.909 368.573
L106.805 368.742
L114.872 368.742
L115.769 368.581
L117.562 368.742
L130.111 368.742
L131.007 368.611
L131.904 368.742
L134.593 368.742
L135.489 368.278
L136.386 368.689
L139.075 368.742
L145.349 368.742
L146.246 368.57
L147.142 368.742
L149.831 368.742
L150.728 368.621
L151.624 368.742
L155.21 368.742
L156.106 368.41
L157.003 368.742
L184.79 368.742
L185.687 368.37
L186.583 368.688
L189.272 368.742
L190.169 368.742
L191.065 368.597
L191.962 368.742
L195.547 368.742
L196.443 368.432
L197.34 368.742
L205.407 368.742
L206.304 368.622
L207.2 368.742
L209.889 368.742
L210.786 368.587
L211.682 368.742
L244.848 368.742
L245.745 368.313
L246.641 368.742
L265.465 368.742
L266.362 368.288
L267.258 368.742
L270.843 368.742
L271.74 368.52
L272.636 368.742
L286.082 368.642
L286.978 368.626
L287.875 368.742
L310.284 368.742
L311.181 368.117
L312.077 368.683
L313.87 368.742
L325.523 368.742
L326.419 368.455
L327.316 368.742
L330.901 368.742
L331.798 368.546
L332.694 368.742
L336.28 368.742
L337.176 368.625
L338.072 368.742
L346.14 368.742
L347.036 368.578
L347.933 368.742
L351.518 368.742
L352.415 368.417
L353.311 368.742
L372.135 368.742
L373.031 368.533
L373.928 368.742
L376.617 368.742
L377.513 368.293
L378.41 368.742
L416.954 368.742
L417.851 368.579
L418.747 368.742
L432.193 368.742
L433.089 368.59
L433.986 368.742
L462.67 368.742
L463.566 368.564
L464.463 368.742
L475.219 368.742
L475.219 368.742" style="fill:none;stroke:#bfbf00;stroke-linecap:square;"/>
   </g>
   <g id="line2d_7">
    <path clip-path="url(#p8c776b0f9c)" d="
M28.8194 361.195
L29.7158 368.742
L40.4724 368.742
L41.3688 368.618
L44.0579 368.742
L47.6435 368.742
L48.5399 368.63
L50.3326 368.742
L53.9182 368.742
L54.8146 368.356
L55.7109 368.67
L57.5037 368.742
L73.6387 368.742
L74.535 368.462
L75.4314 368.666
L77.2242 368.742
L79.9134 368.742
L80.8097 368.054
L81.7061 368.742
L85.2917 368.742
L86.188 367.949
L87.0844 368.669
L88.8772 368.742
L96.9447 368.742
L97.8411 368.557
L98.7374 368.742
L108.598 368.742
L109.494 368.563
L110.39 368.742
L136.386 368.742
L137.282 367.983
L138.178 368.742
L153.417 368.742
L154.313 368.507
L155.21 368.742
L170.448 368.742
L171.345 368.518
L172.241 368.742
L182.101 368.742
L182.998 367.756
L183.894 368.742
L187.48 368.742
L188.376 368.583
L189.272 368.742
L226.921 368.742
L227.817 368.422
L228.713 368.742
L249.33 368.742
L250.227 368.456
L251.123 368.742
L283.393 368.742
L284.289 368.568
L285.186 368.742
L306.699 368.742
L307.595 368.292
L308.492 368.742
L352.415 368.742
L353.311 368.325
L354.207 368.742
L374.824 368.742
L375.721 368.486
L376.617 368.742
L386.477 368.742
L387.374 368.545
L388.27 368.742
L408.887 368.742
L409.783 368.442
L410.68 368.742
L420.54 368.742
L421.436 368.191
L422.333 368.742
L449.224 368.742
L450.121 368.59
L451.017 368.742
L455.499 368.742
L456.395 368.609
L457.292 368.742
L460.877 368.742
L461.774 368.617
L462.67 368.742
L472.53 368.742
L473.427 368.076
L474.323 368.742
L475.219 368.742
L475.219 368.742" style="fill:none;stroke:#000000;stroke-linecap:square;"/>
   </g>
   <g id="line2d_8">
    <path clip-path="url(#p8c776b0f9c)" d="
M28.8194 368.742
L35.0941 368.742
L35.9905 307.432
L36.8868 368.742
L143.557 368.742
L144.453 368.565
L147.142 368.742
L163.277 368.742
L164.174 368.615
L165.07 368.742
L182.998 368.742
L183.894 368.4
L184.79 368.742
L201.822 368.742
L202.718 368.627
L203.615 368.742
L208.096 368.742
L208.993 368.588
L209.889 368.742
L240.366 368.742
L241.263 368.621
L242.159 368.742
L304.906 368.742
L305.803 368.255
L306.699 368.742
L330.901 368.742
L331.798 368.209
L332.694 368.742
L370.342 368.742
L371.239 368.614
L372.135 368.742
L395.441 368.742
L396.337 368.625
L397.234 368.742
L408.887 368.742
L409.783 368.194
L410.68 368.742
L434.882 368.742
L435.778 368.11
L436.675 368.742
L460.877 368.742
L461.774 368.602
L462.67 368.742
L467.152 368.742
L468.048 368.625
L468.945 368.742
L473.427 368.742
L474.323 368.253
L475.219 368.742
L475.219 368.742" style="fill:none;stroke:#0000ff;stroke-linecap:square;"/>
   </g>
   <g id="line2d_9">
    <path clip-path="url(#p8c776b0f9c)" d="
M28.8194 368.742
L36.8868 368.742
L37.7832 366.621
L38.6796 368.742
L45.8507 368.742
L46.7471 368.599
L47.6435 368.742
L88.8772 368.742
L89.7736 368.514
L90.67 368.686
L92.4627 368.742
L96.9447 368.742
L97.8411 368.524
L98.7374 368.742
L105.012 368.742
L105.909 368.512
L106.805 368.742
L128.318 368.742
L129.215 368.615
L130.111 368.742
L136.386 368.742
L137.282 368.357
L138.178 368.742
L143.557 368.742
L144.453 367.948
L145.349 368.742
L151.624 368.742
L152.521 368.286
L153.417 368.742
L159.692 368.742
L160.588 368.277
L161.484 368.742
L166.863 368.742
L167.759 368.534
L168.656 368.742
L182.998 368.742
L183.894 368.284
L184.79 368.742
L198.236 368.742
L199.133 368.41
L200.029 368.742
L229.61 368.742
L230.506 367.374
L231.403 368.742
L252.916 368.742
L253.812 368.573
L254.709 368.742
L276.222 368.742
L277.118 368.328
L278.015 368.742
L322.834 368.742
L323.73 368.541
L324.627 368.742
L338.969 368.742
L339.865 368.628
L340.762 368.742
L355.104 368.742
L356 367.655
L356.896 368.742
L370.342 368.742
L371.239 368.312
L372.135 368.695
L374.824 368.742
L385.581 368.742
L386.477 368.542
L388.27 368.742
L401.716 368.742
L402.612 368.617
L403.509 368.742
L417.851 368.742
L418.747 365.1
L419.643 368.742
L441.157 368.742
L442.053 367.907
L442.949 368.742
L464.463 368.742
L465.359 365.245
L466.256 368.665
L468.048 368.742
L475.219 368.742
L475.219 368.742" style="fill:none;stroke:#008000;stroke-linecap:square;"/>
   </g>
   <g id="line2d_10">
    <path clip-path="url(#p8c776b0f9c)" d="
M28.8194 368.742
L35.9905 368.742
L36.8868 335.927
L37.7832 368.742
L53.0218 368.742
L53.9182 368.602
L54.8146 368.742
L61.0893 368.742
L61.9856 368.528
L62.882 368.694
L65.5712 368.742
L77.2242 368.742
L78.1206 368.42
L79.017 368.677
L80.8097 368.742
L92.4627 368.742
L93.3591 368.289
L94.2555 368.742
L106.805 368.742
L107.701 368.334
L108.598 368.742
L113.976 368.742
L114.872 368.421
L115.769 368.742
L121.147 368.742
L122.043 368.551
L122.94 368.742
L128.318 368.742
L129.215 365.111
L130.111 368.742
L157.003 368.742
L157.899 368.624
L158.795 368.742
L164.174 368.742
L165.07 368.481
L165.966 368.742
L171.345 368.742
L172.241 367.772
L173.137 368.742
L185.687 368.742
L186.583 368.568
L187.48 368.742
L200.029 368.742
L200.925 368.537
L201.822 368.742
L242.159 368.742
L243.056 368.336
L243.952 368.742
L264.569 368.742
L265.465 368.617
L266.362 368.742
L278.911 368.742
L279.807 368.372
L280.704 368.742
L300.424 368.742
L301.321 368.591
L302.217 368.742
L365.86 368.742
L366.757 368.031
L367.653 368.742
L387.374 368.742
L388.27 368.577
L389.166 368.742
L408.887 368.742
L409.783 368.501
L410.68 368.742
L430.4 368.742
L431.296 368.618
L432.193 368.742
L437.571 368.742
L438.468 368.586
L439.364 368.742
L452.81 368.742
L453.706 368.616
L454.603 368.742
L459.981 368.742
L460.877 368.607
L461.774 368.742
L474.323 368.742
L475.219 367.273
L475.219 367.273" style="fill:none;stroke:#ff0000;stroke-linecap:square;"/>
   </g>
   <g id="line2d_11">
    <path clip-path="url(#p8c776b0f9c)" d="
M28.8194 346.325
L29.7158 368.742
L50.3326 368.742
L51.229 368.623
L52.1254 368.742
L57.5037 368.742
L58.4001 368.466
L59.2965 368.742
L65.5712 368.742
L66.4676 368.599
L67.364 368.742
L72.7423 368.742
L73.6387 368.589
L74.535 368.742
L85.2917 368.742
L86.188 368.622
L90.67 368.742
L92.4627 368.742
L93.3591 367.853
L94.2555 368.742
L98.7374 368.742
L99.6338 368.525
L100.53 368.742
L111.287 368.742
L112.183 368.616
L113.08 368.742
L117.562 368.742
L118.458 368.239
L119.354 368.742
L130.111 368.742
L131.007 368.628
L131.904 368.742
L156.106 368.742
L157.003 368.547
L157.899 368.742
L162.381 368.742
L163.277 368.53
L164.174 368.742
L174.93 368.742
L175.827 368.576
L176.723 368.742
L181.205 368.742
L182.101 368.53
L183.894 368.742
L188.376 368.742
L189.272 368.229
L190.169 368.742
L200.925 368.742
L201.822 368.358
L202.718 368.742
L219.749 368.742
L220.646 368.347
L221.542 368.742
L226.024 368.742
L226.921 368.617
L227.817 368.742
L238.574 368.742
L239.47 368.629
L240.366 368.742
L251.123 368.742
L252.019 366.604
L252.916 368.685
L254.709 368.742
L270.843 368.742
L271.74 368.628
L272.636 368.742
L277.118 368.742
L278.015 365.674
L278.911 368.742
L283.393 368.742
L284.289 368.618
L285.186 368.742
L289.668 368.742
L290.564 367.837
L291.46 368.742
L347.933 368.742
L348.829 368.588
L349.725 368.742
L373.928 368.742
L374.824 367.975
L375.721 368.742
L399.027 368.742
L399.923 368.531
L400.819 368.742
L425.022 368.742
L425.918 367.963
L426.815 368.742
L437.571 368.742
L438.468 368.617
L439.364 368.742
L469.841 368.742
L470.737 366.061
L471.634 368.681
L473.427 368.742
L475.219 368.742
L475.219 368.742" style="fill:none;stroke:#00bfbf;stroke-linecap:square;"/>
   </g>
   <g id="line2d_12">
    <path clip-path="url(#p8c776b0f9c)" d="
M28.8194 353.232
L29.7158 368.742
L34.1977 368.742
L35.0941 368.508
L35.9905 368.742
L47.6435 368.742
L48.5399 368.252
L49.4362 368.742
L61.0893 368.742
L61.9856 368.387
L62.882 368.742
L67.364 368.742
L68.2603 368.563
L69.1567 368.742
L79.017 368.742
L79.9134 368.142
L80.8097 368.692
L83.4989 368.742
L96.9447 368.742
L97.8411 368.352
L98.7374 368.742
L102.323 368.742
L103.219 368.079
L104.116 368.742
L119.354 368.742
L120.251 368.629
L121.147 368.742
L130.111 368.742
L131.007 368.212
L131.904 368.742
L135.489 368.742
L136.386 368.599
L138.178 368.742
L147.142 368.742
L148.039 368.572
L148.935 368.742
L152.521 368.742
L153.417 368.276
L154.313 368.742
L169.552 368.742
L170.448 368.558
L171.345 368.742
L174.93 368.742
L175.827 367.455
L176.723 368.68
L178.516 368.742
L186.583 368.742
L187.48 367.539
L188.376 368.742
L203.615 368.742
L204.511 368.61
L205.407 368.742
L208.993 368.742
L209.889 367.946
L210.786 368.742
L219.749 368.742
L220.646 368.599
L221.542 368.742
L225.128 368.742
L226.024 368.06
L226.921 368.675
L228.713 368.742
L242.159 368.742
L243.056 368.311
L243.952 368.742
L253.812 368.742
L254.709 368.023
L255.605 368.742
L287.875 368.742
L288.771 368.581
L289.668 368.742
L304.01 368.742
L304.906 368.004
L305.803 368.742
L327.316 368.742
L328.212 367.176
L329.109 368.742
L332.694 368.742
L333.59 368.624
L334.487 368.742
L361.378 368.742
L362.275 368.148
L363.171 368.742
L378.41 368.742
L379.306 368.627
L380.203 368.742
L389.166 368.742
L390.063 368.4
L390.959 368.742
L428.607 368.742
L429.504 368.005
L430.4 368.742
L451.913 368.742
L452.81 368.032
L453.706 368.742
L474.323 368.742
L475.219 368.148
L475.219 368.148" style="fill:none;stroke:#bf00bf;stroke-linecap:square;"/>
   </g>
   <g id="line2d_13">
    <path clip-path="url(#p8c776b0f9c)" d="
M28.8194 351.259
L29.7158 368.742
L39.576 368.742
L40.4724 367.442
L41.3688 368.742
L51.229 368.742
L52.1254 368.302
L53.0218 368.742
L62.882 368.742
L63.7784 368.615
L64.6748 368.742
L68.2603 368.742
L69.1567 368.615
L71.8459 368.742
L84.3953 368.742
L85.2917 368.012
L86.188 368.742
L94.2555 368.742
L95.1519 368.317
L96.0483 368.673
L97.8411 368.742
L99.6338 368.742
L100.53 368.362
L101.427 368.742
L109.494 368.742
L110.39 367.549
L111.287 368.742
L124.733 368.742
L125.629 368.535
L126.525 368.742
L129.215 368.742
L130.111 368.56
L131.007 368.742
L134.593 368.742
L135.489 368.606
L136.386 368.742
L139.075 368.742
L139.971 367.841
L140.868 368.692
L143.557 368.742
L144.453 368.742
L145.349 368.468
L146.246 368.742
L154.313 368.742
L155.21 368.354
L156.106 368.742
L169.552 368.742
L170.448 368.448
L171.345 368.742
L179.412 368.742
L180.309 368.544
L181.205 368.742
L183.894 368.742
L184.79 368.461
L185.687 368.68
L187.48 368.742
L199.133 368.742
L200.029 366.968
L200.925 368.742
L218.853 368.742
L219.749 368.459
L220.646 368.742
L234.092 368.742
L234.988 368.611
L235.884 368.742
L269.051 368.742
L269.947 368.61
L270.843 368.742
L284.289 368.742
L285.186 365.809
L286.082 368.742
L294.149 368.742
L295.046 368.61
L295.942 368.742
L318.352 368.742
L319.248 368.619
L322.834 368.742
L359.586 368.742
L360.482 368.441
L361.378 368.742
L374.824 368.742
L375.721 365.717
L376.617 368.742
L394.545 368.742
L395.441 368.605
L396.337 368.742
L409.783 368.742
L410.68 368.624
L411.576 368.742
L434.882 368.742
L435.778 368.496
L436.675 368.742
L450.121 368.742
L451.017 368.526
L451.913 368.742
L475.219 368.742
L475.219 368.742" style="fill:none;stroke:#bfbf00;stroke-linecap:square;"/>
   </g>
   <g id="line2d_14">
    <path clip-path="url(#p8c776b0f9c)" d="
M28.8194 355.585
L29.7158 368.742
L37.7832 368.742
L38.6796 368.503
L39.576 368.691
L42.2652 368.742
L53.9182 368.742
L54.8146 368.43
L55.7109 368.693
L58.4001 368.742
L64.6748 368.742
L65.5712 368.585
L66.4676 368.742
L79.9134 368.742
L80.8097 367.857
L81.7061 368.742
L84.3953 368.742
L85.2917 368.585
L86.188 368.742
L88.8772 368.742
L89.7736 368.587
L90.67 368.742
L93.3591 368.742
L94.2555 368.027
L95.1519 368.742
L102.323 368.742
L103.219 368.506
L104.116 368.742
L106.805 368.742
L107.701 368.361
L108.598 368.681
L110.39 368.742
L120.251 368.742
L121.147 367.898
L122.043 368.742
L124.733 368.742
L125.629 368.465
L126.525 368.742
L129.215 368.742
L130.111 368.427
L131.007 368.742
L147.142 368.742
L148.039 368.598
L150.728 368.742
L151.624 368.742
L152.521 367.793
L153.417 368.742
L160.588 368.742
L161.484 368.584
L162.381 368.742
L174.034 368.742
L174.93 368.224
L175.827 368.647
L177.619 368.742
L197.34 368.742
L198.236 367.824
L199.133 368.742
L201.822 368.742
L202.718 368.616
L203.615 368.742
L210.786 368.742
L211.682 368.629
L212.578 368.742
L215.268 368.742
L216.164 367.489
L217.06 368.742
L224.231 368.742
L225.128 368.626
L226.024 368.742
L232.299 368.742
L233.195 368.129
L234.092 368.687
L236.781 368.742
L238.574 368.685
L240.366 368.742
L246.641 368.742
L247.537 368.55
L248.434 368.742
L255.605 368.742
L256.501 368.571
L257.398 368.742
L269.051 368.742
L269.947 368.452
L270.843 368.742
L291.46 368.742
L292.357 366.536
L293.253 368.742
L313.87 368.742
L314.766 367.065
L315.663 368.655
L317.456 368.742
L332.694 368.742
L333.59 368.567
L334.487 368.742
L341.658 368.742
L342.554 368.576
L343.451 368.742
L368.549 368.742
L369.446 366.42
L370.342 368.693
L373.031 368.742
L400.819 368.742
L401.716 368.606
L402.612 368.742
L432.193 368.742
L433.089 368.441
L433.986 368.742
L455.499 368.742
L456.395 368.624
L457.292 368.742
L464.463 368.742
L465.359 368.058
L466.256 368.742
L468.945 368.742
L469.841 368.631
L471.634 368.742
L475.219 368.742
L475.219 368.742" style="fill:none;stroke:#000000;stroke-linecap:square;"/>
   </g>
   <g id="line2d_15">
    <path clip-path="url(#p8c776b0f9c)" d="
M28.8194 351.393
L29.7158 368.742
L32.4049 368.742
L33.3013 368.585
L34.1977 368.742
L37.7832 368.742
L38.6796 368.596
L39.576 368.742
L52.1254 368.742
L53.0218 368.59
L53.9182 368.742
L57.5037 368.742
L58.4001 367.617
L59.2965 368.742
L61.9856 368.742
L62.882 368.578
L63.7784 368.742
L76.3278 368.742
L77.2242 368.63
L78.1206 368.742
L84.3953 368.742
L85.2917 368.583
L86.188 368.742
L88.8772 368.742
L89.7736 367.24
L90.67 368.742
L97.8411 368.742
L98.7374 367.807
L99.6338 368.742
L101.427 368.742
L102.323 368.63
L104.116 368.742
L122.94 368.742
L123.836 368.546
L124.733 368.742
L126.525 368.742
L127.422 368.553
L128.318 368.742
L131.007 368.742
L131.904 368.546
L132.8 368.742
L139.075 368.742
L139.971 367.637
L140.868 368.742
L159.692 368.742
L160.588 368.459
L161.484 368.696
L164.174 368.742
L165.07 368.64
L166.863 368.742
L168.656 368.742
L169.552 368.601
L170.448 368.742
L181.205 368.742
L182.101 368.512
L182.998 368.742
L193.754 368.742
L194.651 368.373
L195.547 368.742
L201.822 368.742
L202.718 368.516
L203.615 368.742
L209.889 368.742
L210.786 368.317
L211.682 368.648
L213.475 368.742
L243.056 368.742
L243.952 367.94
L244.848 368.686
L246.641 368.742
L252.019 368.742
L252.916 368.627
L253.812 368.742
L255.605 368.742
L256.501 368.55
L259.19 368.742
L260.087 368.742
L260.983 368.212
L261.88 368.675
L263.672 368.742
L268.154 368.742
L269.051 368.587
L270.843 368.742
L285.186 368.742
L286.082 368.516
L286.978 368.742
L297.735 368.742
L298.631 367.909
L299.528 368.742
L306.699 368.742
L307.595 368.195
L308.492 368.742
L322.834 368.742
L323.73 368.61
L324.627 368.742
L344.347 368.742
L345.243 368.083
L346.14 368.742
L353.311 368.742
L354.207 367.253
L355.104 368.742
L386.477 368.742
L387.374 368.481
L388.27 368.742
L399.027 368.742
L399.923 367.567
L400.819 368.742
L420.54 368.742
L421.436 368.59
L422.333 368.742
L436.675 368.742
L437.571 368.591
L438.468 368.742
L445.639 368.742
L446.535 368.566
L447.431 368.742
L462.67 368.742
L463.566 363.885
L464.463 368.742
L475.219 368.742
L475.219 368.742" style="fill:none;stroke:#0000ff;stroke-linecap:square;"/>
   </g>
   <g id="line2d_16">
    <path clip-path="url(#p8c776b0f9c)" d="
M28.8194 368.742
L32.4049 368.742
L33.3013 366.438
L34.1977 368.742
L36.8868 368.742
L37.7832 368.567
L38.6796 368.742
L42.2652 368.742
L43.1615 368.61
L44.0579 368.742
L46.7471 368.742
L47.6435 368.345
L48.5399 368.742
L51.229 368.742
L52.1254 368.334
L53.0218 368.742
L65.5712 368.742
L66.4676 368.605
L67.364 368.742
L70.0531 368.742
L70.9495 368.374
L71.8459 368.742
L79.017 368.742
L79.9134 366.611
L80.8097 368.742
L87.0844 368.742
L87.9808 368.159
L88.8772 368.742
L95.1519 368.742
L96.0483 367.329
L96.9447 368.742
L99.6338 368.742
L100.53 368.627
L101.427 368.742
L111.287 368.742
L112.183 368.032
L113.08 368.742
L123.836 368.742
L124.733 367.812
L125.629 368.742
L143.557 368.742
L144.453 367.986
L145.349 368.742
L151.624 368.742
L152.521 368.191
L153.417 368.742
L155.21 368.742
L156.106 368.315
L157.003 368.742
L159.692 368.742
L160.588 368.627
L161.484 368.742
L163.277 368.742
L164.174 368.531
L165.07 368.742
L191.962 368.742
L192.858 368.586
L193.754 368.742
L211.682 368.742
L212.578 368.379
L213.475 368.742
L227.817 368.742
L228.713 368.412
L229.61 368.742
L243.952 368.742
L244.848 368.137
L245.745 368.742
L268.154 368.742
L269.051 365.961
L269.947 368.742
L272.636 368.742
L273.533 368.6
L274.429 368.742
L295.942 368.742
L296.839 368.271
L297.735 368.685
L299.528 368.742
L308.492 368.742
L309.388 368.6
L310.284 368.742
L312.974 368.742
L313.87 366.449
L314.766 368.742
L341.658 368.742
L342.554 368.628
L343.451 368.742
L345.243 368.742
L346.14 367.833
L347.036 368.742
L373.928 368.742
L374.824 368.544
L375.721 368.742
L389.166 368.742
L390.063 368.328
L390.959 368.66
L392.752 368.742
L418.747 368.742
L419.643 368.623
L420.54 368.742
L434.882 368.742
L435.778 368.45
L436.675 368.742
L451.017 368.742
L451.913 368.323
L452.81 368.742
L459.084 368.742
L459.981 366.966
L460.877 368.742
L471.634 368.742
L472.53 368.605
L473.427 368.742
L475.219 368.742
L475.219 368.742" style="fill:none;stroke:#008000;stroke-linecap:square;"/>
   </g>
   <g id="patch_3">
    <path d="
M28.8194 23.1417
L475.219 23.1417" style="fill:none;stroke:#000000;stroke-linecap:square;stroke-linejoin:miter;"/>
   </g>
   <g id="patch_4">
    <path d="
M475.219 368.742
L475.219 23.1417" style="fill:none;stroke:#000000;stroke-linecap:square;stroke-linejoin:miter;"/>
   </g>
   <g id="patch_5">
    <path d="
M28.8194 368.742
L475.219 368.742" style="fill:none;stroke:#000000;stroke-linecap:square;stroke-linejoin:miter;"/>
   </g>
   <g id="patch_6">
    <path d="
M28.8194 368.742
L28.8194 23.1417" style="fill:none;stroke:#000000;stroke-linecap:square;stroke-linejoin:miter;"/>
   </g>
   <g id="matplotlib.axis_1">
    <g id="xtick_1">
     <g id="line2d_17">
      <defs>
       <path d="
M0 0
L0 -4" id="m93b0483c22" style="stroke:#000000;stroke-width:0.5;"/>
      </defs>
      <g>
       <use style="stroke:#000000;stroke-width:0.5;" x="28.819375" xlink:href="#m93b0483c22" y="368.74175"/>
      </g>
     </g>
     <g id="line2d_18">
      <defs>
       <path d="
M0 0
L0 4" id="m741efc42ff" style="stroke:#000000;stroke-width:0.5;"/>
      </defs>
      <g>
       <use style="stroke:#000000;stroke-width:0.5;" x="28.819375" xlink:href="#m741efc42ff" y="23.14175"/>
      </g>
     </g>
     <g id="text_1">
      <!-- 0 -->
      <defs>
       <path d="
M31.7812 66.4062
Q24.1719 66.4062 20.3281 58.9062
Q16.5 51.4219 16.5 36.375
Q16.5 21.3906 20.3281 13.8906
Q24.1719 6.39062 31.7812 6.39062
Q39.4531 6.39062 43.2812 13.8906
Q47.125 21.3906 47.125 36.375
Q47.125 51.4219 43.2812 58.9062
Q39.4531 66.4062 31.7812 66.4062
M31.7812 74.2188
Q44.0469 74.2188 50.5156 64.5156
Q56.9844 54.8281 56.9844 36.375
Q56.9844 17.9688 50.5156 8.26562
Q44.0469 -1.42188 31.7812 -1.42188
Q19.5312 -1.42188 13.0625 8.26562
Q6.59375 17.9688 6.59375 36.375
Q6.59375 54.8281 13.0625 64.5156
Q19.5312 74.2188 31.7812 74.2188" id="DejaVuSans-30"/>
      </defs>
      <g transform="translate(25.7959375 381.859875)scale(0.12 -0.12)">
       <use xlink:href="#DejaVuSans-30"/>
      </g>
     </g>
    </g>
    <g id="xtick_2">
     <g id="line2d_19">
      <g>
       <use style="stroke:#000000;stroke-width:0.5;" x="118.457929217" xlink:href="#m93b0483c22" y="368.74175"/>
      </g>
     </g>
     <g id="line2d_20">
      <g>
       <use style="stroke:#000000;stroke-width:0.5;" x="118.457929217" xlink:href="#m741efc42ff" y="23.14175"/>
      </g>
     </g>
     <g id="text_2">
      <!-- 100 -->
      <defs>
       <path d="
M12.4062 8.29688
L28.5156 8.29688
L28.5156 63.9219
L10.9844 60.4062
L10.9844 69.3906
L28.4219 72.9062
L38.2812 72.9062
L38.2812 8.29688
L54.3906 8.29688
L54.3906 0
L12.4062 0
z
" id="DejaVuSans-31"/>
      </defs>
      <g transform="translate(108.062929217 381.859875)scale(0.12 -0.12)">
       <use xlink:href="#DejaVuSans-31"/>
       <use x="63.623046875" xlink:href="#DejaVuSans-30"/>
       <use x="127.24609375" xlink:href="#DejaVuSans-30"/>
      </g>
     </g>
    </g>
    <g id="xtick_3">
     <g id="line2d_21">
      <g>
       <use style="stroke:#000000;stroke-width:0.5;" x="208.096483434" xlink:href="#m93b0483c22" y="368.74175"/>
      </g>
     </g>
     <g id="line2d_22">
      <g>
       <use style="stroke:#000000;stroke-width:0.5;" x="208.096483434" xlink:href="#m741efc42ff" y="23.14175"/>
      </g>
     </g>
     <g id="text_3">
      <!-- 200 -->
      <defs>
       <path d="
M19.1875 8.29688
L53.6094 8.29688
L53.6094 0
L7.32812 0
L7.32812 8.29688
Q12.9375 14.1094 22.625 23.8906
Q32.3281 33.6875 34.8125 36.5312
Q39.5469 41.8438 41.4219 45.5312
Q43.3125 49.2188 43.3125 52.7812
Q43.3125 58.5938 39.2344 62.25
Q35.1562 65.9219 28.6094 65.9219
Q23.9688 65.9219 18.8125 64.3125
Q13.6719 62.7031 7.8125 59.4219
L7.8125 69.3906
Q13.7656 71.7812 18.9375 73
Q24.125 74.2188 28.4219 74.2188
Q39.75 74.2188 46.4844 68.5469
Q53.2188 62.8906 53.2188 53.4219
Q53.2188 48.9219 51.5312 44.8906
Q49.8594 40.875 45.4062 35.4062
Q44.1875 33.9844 37.6406 27.2188
Q31.1094 20.4531 19.1875 8.29688" id="DejaVuSans-32"/>
      </defs>
      <g transform="translate(197.482108434 381.859875)scale(0.12 -0.12)">
       <use xlink:href="#DejaVuSans-32"/>
       <use x="63.623046875" xlink:href="#DejaVuSans-30"/>
       <use x="127.24609375" xlink:href="#DejaVuSans-30"/>
      </g>
     </g>
    </g>
    <g id="xtick_4">
     <g id="line2d_23">
      <g>
       <use style="stroke:#000000;stroke-width:0.5;" x="297.735037651" xlink:href="#m93b0483c22" y="368.74175"/>
      </g>
     </g>
     <g id="line2d_24">
      <g>
       <use style="stroke:#000000;stroke-width:0.5;" x="297.735037651" xlink:href="#m741efc42ff" y="23.14175"/>
      </g>
     </g>
     <g id="text_4">
      <!-- 300 -->
      <defs>
       <path d="
M40.5781 39.3125
Q47.6562 37.7969 51.625 33
Q55.6094 28.2188 55.6094 21.1875
Q55.6094 10.4062 48.1875 4.48438
Q40.7656 -1.42188 27.0938 -1.42188
Q22.5156 -1.42188 17.6562 -0.515625
Q12.7969 0.390625 7.625 2.20312
L7.625 11.7188
Q11.7188 9.32812 16.5938 8.10938
Q21.4844 6.89062 26.8125 6.89062
Q36.0781 6.89062 40.9375 10.5469
Q45.7969 14.2031 45.7969 21.1875
Q45.7969 27.6406 41.2812 31.2656
Q36.7656 34.9062 28.7188 34.9062
L20.2188 34.9062
L20.2188 43.0156
L29.1094 43.0156
Q36.375 43.0156 40.2344 45.9219
Q44.0938 48.8281 44.0938 54.2969
Q44.0938 59.9062 40.1094 62.9062
Q36.1406 65.9219 28.7188 65.9219
Q24.6562 65.9219 20.0156 65.0312
Q15.375 64.1562 9.8125 62.3125
L9.8125 71.0938
Q15.4375 72.6562 20.3438 73.4375
Q25.25 74.2188 29.5938 74.2188
Q40.8281 74.2188 47.3594 69.1094
Q53.9062 64.0156 53.9062 55.3281
Q53.9062 49.2656 50.4375 45.0938
Q46.9688 40.9219 40.5781 39.3125" id="DejaVuSans-33"/>
      </defs>
      <g transform="translate(287.138475151 381.859875)scale(0.12 -0.12)">
       <use xlink:href="#DejaVuSans-33"/>
       <use x="63.623046875" xlink:href="#DejaVuSans-30"/>
       <use x="127.24609375" xlink:href="#DejaVuSans-30"/>
      </g>
     </g>
    </g>
    <g id="xtick_5">
     <g id="line2d_25">
      <g>
       <use style="stroke:#000000;stroke-width:0.5;" x="387.373591867" xlink:href="#m93b0483c22" y="368.74175"/>
      </g>
     </g>
     <g id="line2d_26">
      <g>
       <use style="stroke:#000000;stroke-width:0.5;" x="387.373591867" xlink:href="#m741efc42ff" y="23.14175"/>
      </g>
     </g>
     <g id="text_5">
      <!-- 400 -->
      <defs>
       <path d="
M37.7969 64.3125
L12.8906 25.3906
L37.7969 25.3906
z

M35.2031 72.9062
L47.6094 72.9062
L47.6094 25.3906
L58.0156 25.3906
L58.0156 17.1875
L47.6094 17.1875
L47.6094 0
L37.7969 0
L37.7969 17.1875
L4.89062 17.1875
L4.89062 26.7031
z
" id="DejaVuSans-34"/>
      </defs>
      <g transform="translate(376.612966867 381.859875)scale(0.12 -0.12)">
       <use xlink:href="#DejaVuSans-34"/>
       <use x="63.623046875" xlink:href="#DejaVuSans-30"/>
       <use x="127.24609375" xlink:href="#DejaVuSans-30"/>
      </g>
     </g>
    </g>
    <g id="text_6">
     <!-- time -->
     <defs>
      <path d="
M18.3125 70.2188
L18.3125 54.6875
L36.8125 54.6875
L36.8125 47.7031
L18.3125 47.7031
L18.3125 18.0156
Q18.3125 11.3281 20.1406 9.42188
Q21.9688 7.51562 27.5938 7.51562
L36.8125 7.51562
L36.8125 0
L27.5938 0
Q17.1875 0 13.2344 3.875
Q9.28125 7.76562 9.28125 18.0156
L9.28125 47.7031
L2.6875 47.7031
L2.6875 54.6875
L9.28125 54.6875
L9.28125 70.2188
z
" id="DejaVuSans-74"/>
      <path d="
M52 44.1875
Q55.375 50.25 60.0625 53.125
Q64.75 56 71.0938 56
Q79.6406 56 84.2812 50.0156
Q88.9219 44.0469 88.9219 33.0156
L88.9219 0
L79.8906 0
L79.8906 32.7188
Q79.8906 40.5781 77.0938 44.375
Q74.3125 48.1875 68.6094 48.1875
Q61.625 48.1875 57.5625 43.5469
Q53.5156 38.9219 53.5156 30.9062
L53.5156 0
L44.4844 0
L44.4844 32.7188
Q44.4844 40.625 41.7031 44.4062
Q38.9219 48.1875 33.1094 48.1875
Q26.2188 48.1875 22.1562 43.5312
Q18.1094 38.875 18.1094 30.9062
L18.1094 0
L9.07812 0
L9.07812 54.6875
L18.1094 54.6875
L18.1094 46.1875
Q21.1875 51.2188 25.4844 53.6094
Q29.7812 56 35.6875 56
Q41.6562 56 45.8281 52.9688
Q50 49.9531 52 44.1875" id="DejaVuSans-6d"/>
      <path d="
M56.2031 29.5938
L56.2031 25.2031
L14.8906 25.2031
Q15.4844 15.9219 20.4844 11.0625
Q25.4844 6.20312 34.4219 6.20312
Q39.5938 6.20312 44.4531 7.46875
Q49.3125 8.73438 54.1094 11.2812
L54.1094 2.78125
Q49.2656 0.734375 44.1875 -0.34375
Q39.1094 -1.42188 33.8906 -1.42188
Q20.7969 -1.42188 13.1562 6.1875
Q5.51562 13.8125 5.51562 26.8125
Q5.51562 40.2344 12.7656 48.1094
Q20.0156 56 32.3281 56
Q43.3594 56 49.7812 48.8906
Q56.2031 41.7969 56.2031 29.5938
M47.2188 32.2344
Q47.125 39.5938 43.0938 43.9844
Q39.0625 48.3906 32.4219 48.3906
Q24.9062 48.3906 20.3906 44.1406
Q15.875 39.8906 15.1875 32.1719
z
" id="DejaVuSans-65"/>
      <path d="
M9.42188 54.6875
L18.4062 54.6875
L18.4062 0
L9.42188 0
z

M9.42188 75.9844
L18.4062 75.9844
L18.4062 64.5938
L9.42188 64.5938
z
" id="DejaVuSans-69"/>
     </defs>
     <g transform="translate(238.945 398.473625)scale(0.12 -0.12)">
      <use xlink:href="#DejaVuSans-74"/>
      <use x="39.208984375" xlink:href="#DejaVuSans-69"/>
      <use x="66.9921875" xlink:href="#DejaVuSans-6d"/>
      <use x="164.404296875" xlink:href="#DejaVuSans-65"/>
     </g>
    </g>
   </g>
   <g id="matplotlib.axis_2">
    <g id="ytick_1">
     <g id="line2d_27">
      <defs>
       <path d="
M0 0
L4 0" id="m728421d6d4" style="stroke:#000000;stroke-width:0.5;"/>
      </defs>
      <g>
       <use style="stroke:#000000;stroke-width:0.5;" x="28.819375" xlink:href="#m728421d6d4" y="368.74175"/>
      </g>
     </g>
     <g id="line2d_28">
      <defs>
       <path d="
M0 0
L-4 0" id="mcb0005524f" style="stroke:#000000;stroke-width:0.5;"/>
      </defs>
      <g>
       <use style="stroke:#000000;stroke-width:0.5;" x="475.219375" xlink:href="#mcb0005524f" y="368.74175"/>
      </g>
     </g>
     <g id="text_7">
      <!-- 0.0 -->
      <defs>
       <path d="
M10.6875 12.4062
L21 12.4062
L21 0
L10.6875 0
z
" id="DejaVuSans-2e"/>
      </defs>
      <g transform="translate(7.32375 372.053)scale(0.12 -0.12)">
       <use xlink:href="#DejaVuSans-30"/>
       <use x="63.623046875" xlink:href="#DejaVuSans-2e"/>
       <use x="95.41015625" xlink:href="#DejaVuSans-30"/>
      </g>
     </g>
    </g>
    <g id="ytick_2">
     <g id="line2d_29">
      <g>
       <use style="stroke:#000000;stroke-width:0.5;" x="28.819375" xlink:href="#m728421d6d4" y="330.34175"/>
      </g>
     </g>
     <g id="line2d_30">
      <g>
       <use style="stroke:#000000;stroke-width:0.5;" x="475.219375" xlink:href="#mcb0005524f" y="330.34175"/>
      </g>
     </g>
     <g id="text_8">
      <!-- 0.2 -->
      <g transform="translate(7.72875 333.653)scale(0.12 -0.12)">
       <use xlink:href="#DejaVuSans-30"/>
       <use x="63.623046875" xlink:href="#DejaVuSans-2e"/>
       <use x="95.41015625" xlink:href="#DejaVuSans-32"/>
      </g>
     </g>
    </g>
    <g id="ytick_3">
     <g id="line2d_31">
      <g>
       <use style="stroke:#000000;stroke-width:0.5;" x="28.819375" xlink:href="#m728421d6d4" y="291.94175"/>
      </g>
     </g>
     <g id="line2d_32">
      <g>
       <use style="stroke:#000000;stroke-width:0.5;" x="475.219375" xlink:href="#mcb0005524f" y="291.94175"/>
      </g>
     </g>
     <g id="text_9">
      <!-- 0.4 -->
      <g transform="translate(7.2 295.253)scale(0.12 -0.12)">
       <use xlink:href="#DejaVuSans-30"/>
       <use x="63.623046875" xlink:href="#DejaVuSans-2e"/>
       <use x="95.41015625" xlink:href="#DejaVuSans-34"/>
      </g>
     </g>
    </g>
    <g id="ytick_4">
     <g id="line2d_33">
      <g>
       <use style="stroke:#000000;stroke-width:0.5;" x="28.819375" xlink:href="#m728421d6d4" y="253.54175"/>
      </g>
     </g>
     <g id="line2d_34">
      <g>
       <use style="stroke:#000000;stroke-width:0.5;" x="475.219375" xlink:href="#mcb0005524f" y="253.54175"/>
      </g>
     </g>
     <g id="text_10">
      <!-- 0.6 -->
      <defs>
       <path d="
M33.0156 40.375
Q26.375 40.375 22.4844 35.8281
Q18.6094 31.2969 18.6094 23.3906
Q18.6094 15.5312 22.4844 10.9531
Q26.375 6.39062 33.0156 6.39062
Q39.6562 6.39062 43.5312 10.9531
Q47.4062 15.5312 47.4062 23.3906
Q47.4062 31.2969 43.5312 35.8281
Q39.6562 40.375 33.0156 40.375
M52.5938 71.2969
L52.5938 62.3125
Q48.875 64.0625 45.0938 64.9844
Q41.3125 65.9219 37.5938 65.9219
Q27.8281 65.9219 22.6719 59.3281
Q17.5312 52.7344 16.7969 39.4062
Q19.6719 43.6562 24.0156 45.9219
Q28.375 48.1875 33.5938 48.1875
Q44.5781 48.1875 50.9531 41.5156
Q57.3281 34.8594 57.3281 23.3906
Q57.3281 12.1562 50.6875 5.35938
Q44.0469 -1.42188 33.0156 -1.42188
Q20.3594 -1.42188 13.6719 8.26562
Q6.98438 17.9688 6.98438 36.375
Q6.98438 53.6562 15.1875 63.9375
Q23.3906 74.2188 37.2031 74.2188
Q40.9219 74.2188 44.7031 73.4844
Q48.4844 72.75 52.5938 71.2969" id="DejaVuSans-36"/>
      </defs>
      <g transform="translate(7.2825 256.853)scale(0.12 -0.12)">
       <use xlink:href="#DejaVuSans-30"/>
       <use x="63.623046875" xlink:href="#DejaVuSans-2e"/>
       <use x="95.41015625" xlink:href="#DejaVuSans-36"/>
      </g>
     </g>
    </g>
    <g id="ytick_5">
     <g id="line2d_35">
      <g>
       <use style="stroke:#000000;stroke-width:0.5;" x="28.819375" xlink:href="#m728421d6d4" y="215.14175"/>
      </g>
     </g>
     <g id="line2d_36">
      <g>
       <use style="stroke:#000000;stroke-width:0.5;" x="475.219375" xlink:href="#mcb0005524f" y="215.14175"/>
      </g>
     </g>
     <g id="text_11">
      <!-- 0.8 -->
      <defs>
       <path d="
M31.7812 34.625
Q24.75 34.625 20.7188 30.8594
Q16.7031 27.0938 16.7031 20.5156
Q16.7031 13.9219 20.7188 10.1562
Q24.75 6.39062 31.7812 6.39062
Q38.8125 6.39062 42.8594 10.1719
Q46.9219 13.9688 46.9219 20.5156
Q46.9219 27.0938 42.8906 30.8594
Q38.875 34.625 31.7812 34.625
M21.9219 38.8125
Q15.5781 40.375 12.0312 44.7188
Q8.5 49.0781 8.5 55.3281
Q8.5 64.0625 14.7188 69.1406
Q20.9531 74.2188 31.7812 74.2188
Q42.6719 74.2188 48.875 69.1406
Q55.0781 64.0625 55.0781 55.3281
Q55.0781 49.0781 51.5312 44.7188
Q48 40.375 41.7031 38.8125
Q48.8281 37.1562 52.7969 32.3125
Q56.7812 27.4844 56.7812 20.5156
Q56.7812 9.90625 50.3125 4.23438
Q43.8438 -1.42188 31.7812 -1.42188
Q19.7344 -1.42188 13.25 4.23438
Q6.78125 9.90625 6.78125 20.5156
Q6.78125 27.4844 10.7812 32.3125
Q14.7969 37.1562 21.9219 38.8125
M18.3125 54.3906
Q18.3125 48.7344 21.8438 45.5625
Q25.3906 42.3906 31.7812 42.3906
Q38.1406 42.3906 41.7188 45.5625
Q45.3125 48.7344 45.3125 54.3906
Q45.3125 60.0625 41.7188 63.2344
Q38.1406 66.4062 31.7812 66.4062
Q25.3906 66.4062 21.8438 63.2344
Q18.3125 60.0625 18.3125 54.3906" id="DejaVuSans-38"/>
      </defs>
      <g transform="translate(7.348125 218.453)scale(0.12 -0.12)">
       <use xlink:href="#DejaVuSans-30"/>
       <use x="63.623046875" xlink:href="#DejaVuSans-2e"/>
       <use x="95.41015625" xlink:href="#DejaVuSans-38"/>
      </g>
     </g>
    </g>
    <g id="ytick_6">
     <g id="line2d_37">
      <g>
       <use style="stroke:#000000;stroke-width:0.5;" x="28.819375" xlink:href="#m728421d6d4" y="176.74175"/>
      </g>
     </g>
     <g id="line2d_38">
      <g>
       <use style="stroke:#000000;stroke-width:0.5;" x="475.219375" xlink:href="#mcb0005524f" y="176.74175"/>
      </g>
     </g>
     <g id="text_12">
      <!-- 1.0 -->
      <g transform="translate(7.850625 180.053)scale(0.12 -0.12)">
       <use xlink:href="#DejaVuSans-31"/>
       <use x="63.623046875" xlink:href="#DejaVuSans-2e"/>
       <use x="95.41015625" xlink:href="#DejaVuSans-30"/>
      </g>
     </g>
    </g>
    <g id="ytick_7">
     <g id="line2d_39">
      <g>
       <use style="stroke:#000000;stroke-width:0.5;" x="28.819375" xlink:href="#m728421d6d4" y="138.34175"/>
      </g>
     </g>
     <g id="line2d_40">
      <g>
       <use style="stroke:#000000;stroke-width:0.5;" x="475.219375" xlink:href="#mcb0005524f" y="138.34175"/>
      </g>
     </g>
     <g id="text_13">
      <!-- 1.2 -->
      <g transform="translate(8.255625 141.653)scale(0.12 -0.12)">
       <use xlink:href="#DejaVuSans-31"/>
       <use x="63.623046875" xlink:href="#DejaVuSans-2e"/>
       <use x="95.41015625" xlink:href="#DejaVuSans-32"/>
      </g>
     </g>
    </g>
    <g id="ytick_8">
     <g id="line2d_41">
      <g>
       <use style="stroke:#000000;stroke-width:0.5;" x="28.819375" xlink:href="#m728421d6d4" y="99.94175"/>
      </g>
     </g>
     <g id="line2d_42">
      <g>
       <use style="stroke:#000000;stroke-width:0.5;" x="475.219375" xlink:href="#mcb0005524f" y="99.94175"/>
      </g>
     </g>
     <g id="text_14">
      <!-- 1.4 -->
      <g transform="translate(7.726875 103.253)scale(0.12 -0.12)">
       <use xlink:href="#DejaVuSans-31"/>
       <use x="63.623046875" xlink:href="#DejaVuSans-2e"/>
       <use x="95.41015625" xlink:href="#DejaVuSans-34"/>
      </g>
     </g>
    </g>
    <g id="ytick_9">
     <g id="line2d_43">
      <g>
       <use style="stroke:#000000;stroke-width:0.5;" x="28.819375" xlink:href="#m728421d6d4" y="61.54175"/>
      </g>
     </g>
     <g id="line2d_44">
      <g>
       <use style="stroke:#000000;stroke-width:0.5;" x="475.219375" xlink:href="#mcb0005524f" y="61.54175"/>
      </g>
     </g>
     <g id="text_15">
      <!-- 1.6 -->
      <g transform="translate(7.809375 64.853)scale(0.12 -0.12)">
       <use xlink:href="#DejaVuSans-31"/>
       <use x="63.623046875" xlink:href="#DejaVuSans-2e"/>
       <use x="95.41015625" xlink:href="#DejaVuSans-36"/>
      </g>
     </g>
    </g>
    <g id="ytick_10">
     <g id="line2d_45">
      <g>
       <use style="stroke:#000000;stroke-width:0.5;" x="28.819375" xlink:href="#m728421d6d4" y="23.14175"/>
      </g>
     </g>
     <g id="line2d_46">
      <g>
       <use style="stroke:#000000;stroke-width:0.5;" x="475.219375" xlink:href="#mcb0005524f" y="23.14175"/>
      </g>
     </g>
     <g id="text_16">
      <!-- 1.8 -->
      <g transform="translate(7.875 26.453)scale(0.12 -0.12)">
       <use xlink:href="#DejaVuSans-31"/>
       <use x="63.623046875" xlink:href="#DejaVuSans-2e"/>
       <use x="95.41015625" xlink:href="#DejaVuSans-38"/>
      </g>
     </g>
    </g>
    <g id="text_17">
     <!-- 1e7 -->
     <defs>
      <path d="
M8.20312 72.9062
L55.0781 72.9062
L55.0781 68.7031
L28.6094 0
L18.3125 0
L43.2188 64.5938
L8.20312 64.5938
z
" id="DejaVuSans-37"/>
     </defs>
     <g transform="translate(28.819375 20.14175)scale(0.12 -0.12)">
      <use xlink:href="#DejaVuSans-31"/>
      <use x="63.623046875" xlink:href="#DejaVuSans-65"/>
      <use x="125.146484375" xlink:href="#DejaVuSans-37"/>
     </g>
    </g>
   </g>
   <g id="text_18">
    <!-- /agas/time/unbind_gid change -->
    <defs>
     <path d="
M25.3906 72.9062
L33.6875 72.9062
L8.29688 -9.28125
L0 -9.28125
z
" id="DejaVuSans-2f"/>
     <path d="
M54.8906 33.0156
L54.8906 0
L45.9062 0
L45.9062 32.7188
Q45.9062 40.4844 42.875 44.3281
Q39.8438 48.1875 33.7969 48.1875
Q26.5156 48.1875 22.3125 43.5469
Q18.1094 38.9219 18.1094 30.9062
L18.1094 0
L9.07812 0
L9.07812 54.6875
L18.1094 54.6875
L18.1094 46.1875
Q21.3438 51.125 25.7031 53.5625
Q30.0781 56 35.7969 56
Q45.2188 56 50.0469 50.1719
Q54.8906 44.3438 54.8906 33.0156" id="DejaVuSans-6e"/>
     <path d="
M50.9844 -16.6094
L50.9844 -23.5781
L-0.984375 -23.5781
L-0.984375 -16.6094
z
" id="DejaVuSans-5f"/>
     <path id="DejaVuSans-20"/>
     <path d="
M54.8906 33.0156
L54.8906 0
L45.9062 0
L45.9062 32.7188
Q45.9062 40.4844 42.875 44.3281
Q39.8438 48.1875 33.7969 48.1875
Q26.5156 48.1875 22.3125 43.5469
Q18.1094 38.9219 18.1094 30.9062
L18.1094 0
L9.07812 0
L9.07812 75.9844
L18.1094 75.9844
L18.1094 46.1875
Q21.3438 51.125 25.7031 53.5625
Q30.0781 56 35.7969 56
Q45.2188 56 50.0469 50.1719
Q54.8906 44.3438 54.8906 33.0156" id="DejaVuSans-68"/>
     <path d="
M8.5 21.5781
L8.5 54.6875
L17.4844 54.6875
L17.4844 21.9219
Q17.4844 14.1562 20.5 10.2656
Q23.5312 6.39062 29.5938 6.39062
Q36.8594 6.39062 41.0781 11.0312
Q45.3125 15.6719 45.3125 23.6875
L45.3125 54.6875
L54.2969 54.6875
L54.2969 0
L45.3125 0
L45.3125 8.40625
Q42.0469 3.42188 37.7188 1
Q33.4062 -1.42188 27.6875 -1.42188
Q18.2656 -1.42188 13.375 4.4375
Q8.5 10.2969 8.5 21.5781
M31.1094 56
z
" id="DejaVuSans-75"/>
     <path d="
M45.4062 27.9844
Q45.4062 37.75 41.375 43.1094
Q37.3594 48.4844 30.0781 48.4844
Q22.8594 48.4844 18.8281 43.1094
Q14.7969 37.75 14.7969 27.9844
Q14.7969 18.2656 18.8281 12.8906
Q22.8594 7.51562 30.0781 7.51562
Q37.3594 7.51562 41.375 12.8906
Q45.4062 18.2656 45.4062 27.9844
M54.3906 6.78125
Q54.3906 -7.17188 48.1875 -13.9844
Q42 -20.7969 29.2031 -20.7969
Q24.4688 -20.7969 20.2656 -20.0938
Q16.0625 -19.3906 12.1094 -17.9219
L12.1094 -9.1875
Q16.0625 -11.3281 19.9219 -12.3438
Q23.7812 -13.375 27.7812 -13.375
Q36.625 -13.375 41.0156 -8.76562
Q45.4062 -4.15625 45.4062 5.17188
L45.4062 9.625
Q42.625 4.78125 38.2812 2.39062
Q33.9375 0 27.875 0
Q17.8281 0 11.6719 7.65625
Q5.51562 15.3281 5.51562 27.9844
Q5.51562 40.6719 11.6719 48.3281
Q17.8281 56 27.875 56
Q33.9375 56 38.2812 53.6094
Q42.625 51.2188 45.4062 46.3906
L45.4062 54.6875
L54.3906 54.6875
z
" id="DejaVuSans-67"/>
     <path d="
M45.4062 46.3906
L45.4062 75.9844
L54.3906 75.9844
L54.3906 0
L45.4062 0
L45.4062 8.20312
Q42.5781 3.32812 38.25 0.953125
Q33.9375 -1.42188 27.875 -1.42188
Q17.9688 -1.42188 11.7344 6.48438
Q5.51562 14.4062 5.51562 27.2969
Q5.51562 40.1875 11.7344 48.0938
Q17.9688 56 27.875 56
Q33.9375 56 38.25 53.625
Q42.5781 51.2656 45.4062 46.3906
M14.7969 27.2969
Q14.7969 17.3906 18.875 11.75
Q22.9531 6.10938 30.0781 6.10938
Q37.2031 6.10938 41.2969 11.75
Q45.4062 17.3906 45.4062 27.2969
Q45.4062 37.2031 41.2969 42.8438
Q37.2031 48.4844 30.0781 48.4844
Q22.9531 48.4844 18.875 42.8438
Q14.7969 37.2031 14.7969 27.2969" id="DejaVuSans-64"/>
     <path d="
M48.6875 27.2969
Q48.6875 37.2031 44.6094 42.8438
Q40.5312 48.4844 33.4062 48.4844
Q26.2656 48.4844 22.1875 42.8438
Q18.1094 37.2031 18.1094 27.2969
Q18.1094 17.3906 22.1875 11.75
Q26.2656 6.10938 33.4062 6.10938
Q40.5312 6.10938 44.6094 11.75
Q48.6875 17.3906 48.6875 27.2969
M18.1094 46.3906
Q20.9531 51.2656 25.2656 53.625
Q29.5938 56 35.5938 56
Q45.5625 56 51.7812 48.0938
Q58.0156 40.1875 58.0156 27.2969
Q58.0156 14.4062 51.7812 6.48438
Q45.5625 -1.42188 35.5938 -1.42188
Q29.5938 -1.42188 25.2656 0.953125
Q20.9531 3.32812 18.1094 8.20312
L18.1094 0
L9.07812 0
L9.07812 75.9844
L18.1094 75.9844
z
" id="DejaVuSans-62"/>
     <path d="
M48.7812 52.5938
L48.7812 44.1875
Q44.9688 46.2969 41.1406 47.3438
Q37.3125 48.3906 33.4062 48.3906
Q24.6562 48.3906 19.8125 42.8438
Q14.9844 37.3125 14.9844 27.2969
Q14.9844 17.2812 19.8125 11.7344
Q24.6562 6.20312 33.4062 6.20312
Q37.3125 6.20312 41.1406 7.25
Q44.9688 8.29688 48.7812 10.4062
L48.7812 2.09375
Q45.0156 0.34375 40.9844 -0.53125
Q36.9688 -1.42188 32.4219 -1.42188
Q20.0625 -1.42188 12.7812 6.34375
Q5.51562 14.1094 5.51562 27.2969
Q5.51562 40.6719 12.8594 48.3281
Q20.2188 56 33.0156 56
Q37.1562 56 41.1094 55.1406
Q45.0625 54.2969 48.7812 52.5938" id="DejaVuSans-63"/>
     <path d="
M44.2812 53.0781
L44.2812 44.5781
Q40.4844 46.5312 36.375 47.5
Q32.2812 48.4844 27.875 48.4844
Q21.1875 48.4844 17.8438 46.4375
Q14.5 44.3906 14.5 40.2812
Q14.5 37.1562 16.8906 35.375
Q19.2812 33.5938 26.5156 31.9844
L29.5938 31.2969
Q39.1562 29.25 43.1875 25.5156
Q47.2188 21.7812 47.2188 15.0938
Q47.2188 7.46875 41.1875 3.01562
Q35.1562 -1.42188 24.6094 -1.42188
Q20.2188 -1.42188 15.4531 -0.5625
Q10.6875 0.296875 5.42188 2
L5.42188 11.2812
Q10.4062 8.6875 15.2344 7.39062
Q20.0625 6.10938 24.8125 6.10938
Q31.1562 6.10938 34.5625 8.28125
Q37.9844 10.4531 37.9844 14.4062
Q37.9844 18.0625 35.5156 20.0156
Q33.0625 21.9688 24.7031 23.7812
L21.5781 24.5156
Q13.2344 26.2656 9.51562 29.9062
Q5.8125 33.5469 5.8125 39.8906
Q5.8125 47.6094 11.2812 51.7969
Q16.75 56 26.8125 56
Q31.7812 56 36.1719 55.2656
Q40.5781 54.5469 44.2812 53.0781" id="DejaVuSans-73"/>
     <path d="
M34.2812 27.4844
Q23.3906 27.4844 19.1875 25
Q14.9844 22.5156 14.9844 16.5
Q14.9844 11.7188 18.1406 8.90625
Q21.2969 6.10938 26.7031 6.10938
Q34.1875 6.10938 38.7031 11.4062
Q43.2188 16.7031 43.2188 25.4844
L43.2188 27.4844
z

M52.2031 31.2031
L52.2031 0
L43.2188 0
L43.2188 8.29688
Q40.1406 3.32812 35.5469 0.953125
Q30.9531 -1.42188 24.3125 -1.42188
Q15.9219 -1.42188 10.9531 3.29688
Q6 8.01562 6 15.9219
Q6 25.1406 12.1719 29.8281
Q18.3594 34.5156 30.6094 34.5156
L43.2188 34.5156
L43.2188 35.4062
Q43.2188 41.6094 39.1406 45
Q35.0625 48.3906 27.6875 48.3906
Q23 48.3906 18.5469 47.2656
Q14.1094 46.1406 10.0156 43.8906
L10.0156 52.2031
Q14.9375 54.1094 19.5781 55.0469
Q24.2188 56 28.6094 56
Q40.4844 56 46.3438 49.8438
Q52.2031 43.7031 52.2031 31.2031" id="DejaVuSans-61"/>
    </defs>
    <g transform="translate(143.3545 18.14175)scale(0.144 -0.144)">
     <use xlink:href="#DejaVuSans-2f"/>
     <use x="33.69140625" xlink:href="#DejaVuSans-61"/>
     <use x="94.970703125" xlink:href="#DejaVuSans-67"/>
     <use x="158.447265625" xlink:href="#DejaVuSans-61"/>
     <use x="219.7265625" xlink:href="#DejaVuSans-73"/>
     <use x="271.826171875" xlink:href="#DejaVuSans-2f"/>
     <use x="305.517578125" xlink:href="#DejaVuSans-74"/>
     <use x="344.7265625" xlink:href="#DejaVuSans-69"/>
     <use x="372.509765625" xlink:href="#DejaVuSans-6d"/>
     <use x="469.921875" xlink:href="#DejaVuSans-65"/>
     <use x="531.4453125" xlink:href="#DejaVuSans-2f"/>
     <use x="565.13671875" xlink:href="#DejaVuSans-75"/>
     <use x="628.515625" xlink:href="#DejaVuSans-6e"/>
     <use x="691.89453125" xlink:href="#DejaVuSans-62"/>
     <use x="755.37109375" xlink:href="#DejaVuSans-69"/>
     <use x="783.154296875" xlink:href="#DejaVuSans-6e"/>
     <use x="846.533203125" xlink:href="#DejaVuSans-64"/>
     <use x="910.009765625" xlink:href="#DejaVuSans-5f"/>
     <use x="960.009765625" xlink:href="#DejaVuSans-67"/>
     <use x="1023.48632812" xlink:href="#DejaVuSans-69"/>
     <use x="1051.26953125" xlink:href="#DejaVuSans-64"/>
     <use x="1114.74609375" xlink:href="#DejaVuSans-20"/>
     <use x="1146.53320312" xlink:href="#DejaVuSans-63"/>
     <use x="1201.51367188" xlink:href="#DejaVuSans-68"/>
     <use x="1264.89257812" xlink:href="#DejaVuSans-61"/>
     <use x="1326.171875" xlink:href="#DejaVuSans-6e"/>
     <use x="1389.55078125" xlink:href="#DejaVuSans-67"/>
     <use x="1453.02734375" xlink:href="#DejaVuSans-65"/>
    </g>
   </g>
   <g id="legend_1">
    <g id="patch_7">
     <path d="
M482.419 367.194
L614.209 367.194
L614.209 24.6897
L482.419 24.6897
z
" style="fill:#ffffff;stroke:#000000;stroke-linejoin:miter;"/>
    </g>
    <g id="line2d_47">
     <path d="
M492.499 36.3515
L512.659 36.3515" style="fill:none;stroke:#0000ff;stroke-linecap:square;"/>
    </g>
    <g id="line2d_48"/>
    <g id="text_19">
     <!-- locality#0 -->
     <defs>
      <path d="
M30.6094 48.3906
Q23.3906 48.3906 19.1875 42.75
Q14.9844 37.1094 14.9844 27.2969
Q14.9844 17.4844 19.1562 11.8438
Q23.3438 6.20312 30.6094 6.20312
Q37.7969 6.20312 41.9844 11.8594
Q46.1875 17.5312 46.1875 27.2969
Q46.1875 37.0156 41.9844 42.7031
Q37.7969 48.3906 30.6094 48.3906
M30.6094 56
Q42.3281 56 49.0156 48.375
Q55.7188 40.7656 55.7188 27.2969
Q55.7188 13.875 49.0156 6.21875
Q42.3281 -1.42188 30.6094 -1.42188
Q18.8438 -1.42188 12.1719 6.21875
Q5.51562 13.875 5.51562 27.2969
Q5.51562 40.7656 12.1719 48.375
Q18.8438 56 30.6094 56" id="DejaVuSans-6f"/>
      <path d="
M51.125 44
L36.9219 44
L32.8125 27.6875
L47.125 27.6875
z

M43.7969 71.7812
L38.7188 51.5156
L52.9844 51.5156
L58.1094 71.7812
L65.9219 71.7812
L60.8906 51.5156
L76.125 51.5156
L76.125 44
L58.9844 44
L54.9844 27.6875
L70.5156 27.6875
L70.5156 20.2188
L53.0781 20.2188
L48 0
L40.1875 0
L45.2188 20.2188
L30.9062 20.2188
L25.875 0
L18.0156 0
L23.0938 20.2188
L7.71875 20.2188
L7.71875 27.6875
L24.9062 27.6875
L29 44
L13.2812 44
L13.2812 51.5156
L30.9062 51.5156
L35.8906 71.7812
z
" id="DejaVuSans-23"/>
      <path d="
M32.1719 -5.07812
Q28.375 -14.8438 24.75 -17.8125
Q21.1406 -20.7969 15.0938 -20.7969
L7.90625 -20.7969
L7.90625 -13.2812
L13.1875 -13.2812
Q16.8906 -13.2812 18.9375 -11.5156
Q21 -9.76562 23.4844 -3.21875
L25.0938 0.875
L2.98438 54.6875
L12.5 54.6875
L29.5938 11.9219
L46.6875 54.6875
L56.2031 54.6875
z
" id="DejaVuSans-79"/>
      <path d="
M9.42188 75.9844
L18.4062 75.9844
L18.4062 0
L9.42188 0
z
" id="DejaVuSans-6c"/>
     </defs>
     <g transform="translate(528.499375 41.3915)scale(0.144 -0.144)">
      <use xlink:href="#DejaVuSans-6c"/>
      <use x="27.783203125" xlink:href="#DejaVuSans-6f"/>
      <use x="88.96484375" xlink:href="#DejaVuSans-63"/>
      <use x="143.9453125" xlink:href="#DejaVuSans-61"/>
      <use x="205.224609375" xlink:href="#DejaVuSans-6c"/>
      <use x="233.0078125" xlink:href="#DejaVuSans-69"/>
      <use x="260.791015625" xlink:href="#DejaVuSans-74"/>
      <use x="300.0" xlink:href="#DejaVuSans-79"/>
      <use x="359.1796875" xlink:href="#DejaVuSans-23"/>
      <use x="442.96875" xlink:href="#DejaVuSans-30"/>
     </g>
    </g>
    <g id="line2d_49">
     <path d="
M492.499 57.488
L512.659 57.488" style="fill:none;stroke:#008000;stroke-linecap:square;"/>
    </g>
    <g id="line2d_50"/>
    <g id="text_20">
     <!-- locality#1 -->
     <g transform="translate(528.499375 62.528)scale(0.144 -0.144)">
      <use xlink:href="#DejaVuSans-6c"/>
      <use x="27.783203125" xlink:href="#DejaVuSans-6f"/>
      <use x="88.96484375" xlink:href="#DejaVuSans-63"/>
      <use x="143.9453125" xlink:href="#DejaVuSans-61"/>
      <use x="205.224609375" xlink:href="#DejaVuSans-6c"/>
      <use x="233.0078125" xlink:href="#DejaVuSans-69"/>
      <use x="260.791015625" xlink:href="#DejaVuSans-74"/>
      <use x="300.0" xlink:href="#DejaVuSans-79"/>
      <use x="359.1796875" xlink:href="#DejaVuSans-23"/>
      <use x="442.96875" xlink:href="#DejaVuSans-31"/>
     </g>
    </g>
    <g id="line2d_51">
     <path d="
M492.499 78.6245
L512.659 78.6245" style="fill:none;stroke:#ff0000;stroke-linecap:square;"/>
    </g>
    <g id="line2d_52"/>
    <g id="text_21">
     <!-- locality#10 -->
     <g transform="translate(528.499375 83.6645)scale(0.144 -0.144)">
      <use xlink:href="#DejaVuSans-6c"/>
      <use x="27.783203125" xlink:href="#DejaVuSans-6f"/>
      <use x="88.96484375" xlink:href="#DejaVuSans-63"/>
      <use x="143.9453125" xlink:href="#DejaVuSans-61"/>
      <use x="205.224609375" xlink:href="#DejaVuSans-6c"/>
      <use x="233.0078125" xlink:href="#DejaVuSans-69"/>
      <use x="260.791015625" xlink:href="#DejaVuSans-74"/>
      <use x="300.0" xlink:href="#DejaVuSans-79"/>
      <use x="359.1796875" xlink:href="#DejaVuSans-23"/>
      <use x="442.96875" xlink:href="#DejaVuSans-31"/>
      <use x="506.591796875" xlink:href="#DejaVuSans-30"/>
     </g>
    </g>
    <g id="line2d_53">
     <path d="
M492.499 99.761
L512.659 99.761" style="fill:none;stroke:#00bfbf;stroke-linecap:square;"/>
    </g>
    <g id="line2d_54"/>
    <g id="text_22">
     <!-- locality#11 -->
     <g transform="translate(528.499375 104.801)scale(0.144 -0.144)">
      <use xlink:href="#DejaVuSans-6c"/>
      <use x="27.783203125" xlink:href="#DejaVuSans-6f"/>
      <use x="88.96484375" xlink:href="#DejaVuSans-63"/>
      <use x="143.9453125" xlink:href="#DejaVuSans-61"/>
      <use x="205.224609375" xlink:href="#DejaVuSans-6c"/>
      <use x="233.0078125" xlink:href="#DejaVuSans-69"/>
      <use x="260.791015625" xlink:href="#DejaVuSans-74"/>
      <use x="300.0" xlink:href="#DejaVuSans-79"/>
      <use x="359.1796875" xlink:href="#DejaVuSans-23"/>
      <use x="442.96875" xlink:href="#DejaVuSans-31"/>
      <use x="506.591796875" xlink:href="#DejaVuSans-31"/>
     </g>
    </g>
    <g id="line2d_55">
     <path d="
M492.499 120.897
L512.659 120.897" style="fill:none;stroke:#bf00bf;stroke-linecap:square;"/>
    </g>
    <g id="line2d_56"/>
    <g id="text_23">
     <!-- locality#12 -->
     <g transform="translate(528.499375 125.9375)scale(0.144 -0.144)">
      <use xlink:href="#DejaVuSans-6c"/>
      <use x="27.783203125" xlink:href="#DejaVuSans-6f"/>
      <use x="88.96484375" xlink:href="#DejaVuSans-63"/>
      <use x="143.9453125" xlink:href="#DejaVuSans-61"/>
      <use x="205.224609375" xlink:href="#DejaVuSans-6c"/>
      <use x="233.0078125" xlink:href="#DejaVuSans-69"/>
      <use x="260.791015625" xlink:href="#DejaVuSans-74"/>
      <use x="300.0" xlink:href="#DejaVuSans-79"/>
      <use x="359.1796875" xlink:href="#DejaVuSans-23"/>
      <use x="442.96875" xlink:href="#DejaVuSans-31"/>
      <use x="506.591796875" xlink:href="#DejaVuSans-32"/>
     </g>
    </g>
    <g id="line2d_57">
     <path d="
M492.499 142.034
L512.659 142.034" style="fill:none;stroke:#bfbf00;stroke-linecap:square;"/>
    </g>
    <g id="line2d_58"/>
    <g id="text_24">
     <!-- locality#13 -->
     <g transform="translate(528.499375 147.074)scale(0.144 -0.144)">
      <use xlink:href="#DejaVuSans-6c"/>
      <use x="27.783203125" xlink:href="#DejaVuSans-6f"/>
      <use x="88.96484375" xlink:href="#DejaVuSans-63"/>
      <use x="143.9453125" xlink:href="#DejaVuSans-61"/>
      <use x="205.224609375" xlink:href="#DejaVuSans-6c"/>
      <use x="233.0078125" xlink:href="#DejaVuSans-69"/>
      <use x="260.791015625" xlink:href="#DejaVuSans-74"/>
      <use x="300.0" xlink:href="#DejaVuSans-79"/>
      <use x="359.1796875" xlink:href="#DejaVuSans-23"/>
      <use x="442.96875" xlink:href="#DejaVuSans-31"/>
      <use x="506.591796875" xlink:href="#DejaVuSans-33"/>
     </g>
    </g>
    <g id="line2d_59">
     <path d="
M492.499 163.17
L512.659 163.17" style="fill:none;stroke:#000000;stroke-linecap:square;"/>
    </g>
    <g id="line2d_60"/>
    <g id="text_25">
     <!-- locality#14 -->
     <g transform="translate(528.499375 168.2105)scale(0.144 -0.144)">
      <use xlink:href="#DejaVuSans-6c"/>
      <use x="27.783203125" xlink:href="#DejaVuSans-6f"/>
      <use x="88.96484375" xlink:href="#DejaVuSans-63"/>
      <use x="143.9453125" xlink:href="#DejaVuSans-61"/>
      <use x="205.224609375" xlink:href="#DejaVuSans-6c"/>
      <use x="233.0078125" xlink:href="#DejaVuSans-69"/>
      <use x="260.791015625" xlink:href="#DejaVuSans-74"/>
      <use x="300.0" xlink:href="#DejaVuSans-79"/>
      <use x="359.1796875" xlink:href="#DejaVuSans-23"/>
      <use x="442.96875" xlink:href="#DejaVuSans-31"/>
      <use x="506.591796875" xlink:href="#DejaVuSans-34"/>
     </g>
    </g>
    <g id="line2d_61">
     <path d="
M492.499 184.307
L512.659 184.307" style="fill:none;stroke:#0000ff;stroke-linecap:square;"/>
    </g>
    <g id="line2d_62"/>
    <g id="text_26">
     <!-- locality#15 -->
     <defs>
      <path d="
M10.7969 72.9062
L49.5156 72.9062
L49.5156 64.5938
L19.8281 64.5938
L19.8281 46.7344
Q21.9688 47.4688 24.1094 47.8281
Q26.2656 48.1875 28.4219 48.1875
Q40.625 48.1875 47.75 41.5
Q54.8906 34.8125 54.8906 23.3906
Q54.8906 11.625 47.5625 5.09375
Q40.2344 -1.42188 26.9062 -1.42188
Q22.3125 -1.42188 17.5469 -0.640625
Q12.7969 0.140625 7.71875 1.70312
L7.71875 11.625
Q12.1094 9.23438 16.7969 8.0625
Q21.4844 6.89062 26.7031 6.89062
Q35.1562 6.89062 40.0781 11.3281
Q45.0156 15.7656 45.0156 23.3906
Q45.0156 31 40.0781 35.4375
Q35.1562 39.8906 26.7031 39.8906
Q22.75 39.8906 18.8125 39.0156
Q14.8906 38.1406 10.7969 36.2812
z
" id="DejaVuSans-35"/>
     </defs>
     <g transform="translate(528.499375 189.347)scale(0.144 -0.144)">
      <use xlink:href="#DejaVuSans-6c"/>
      <use x="27.783203125" xlink:href="#DejaVuSans-6f"/>
      <use x="88.96484375" xlink:href="#DejaVuSans-63"/>
      <use x="143.9453125" xlink:href="#DejaVuSans-61"/>
      <use x="205.224609375" xlink:href="#DejaVuSans-6c"/>
      <use x="233.0078125" xlink:href="#DejaVuSans-69"/>
      <use x="260.791015625" xlink:href="#DejaVuSans-74"/>
      <use x="300.0" xlink:href="#DejaVuSans-79"/>
      <use x="359.1796875" xlink:href="#DejaVuSans-23"/>
      <use x="442.96875" xlink:href="#DejaVuSans-31"/>
      <use x="506.591796875" xlink:href="#DejaVuSans-35"/>
     </g>
    </g>
    <g id="line2d_63">
     <path d="
M492.499 205.443
L512.659 205.443" style="fill:none;stroke:#008000;stroke-linecap:square;"/>
    </g>
    <g id="line2d_64"/>
    <g id="text_27">
     <!-- locality#2 -->
     <g transform="translate(528.499375 210.4835)scale(0.144 -0.144)">
      <use xlink:href="#DejaVuSans-6c"/>
      <use x="27.783203125" xlink:href="#DejaVuSans-6f"/>
      <use x="88.96484375" xlink:href="#DejaVuSans-63"/>
      <use x="143.9453125" xlink:href="#DejaVuSans-61"/>
      <use x="205.224609375" xlink:href="#DejaVuSans-6c"/>
      <use x="233.0078125" xlink:href="#DejaVuSans-69"/>
      <use x="260.791015625" xlink:href="#DejaVuSans-74"/>
      <use x="300.0" xlink:href="#DejaVuSans-79"/>
      <use x="359.1796875" xlink:href="#DejaVuSans-23"/>
      <use x="442.96875" xlink:href="#DejaVuSans-32"/>
     </g>
    </g>
    <g id="line2d_65">
     <path d="
M492.499 226.58
L512.659 226.58" style="fill:none;stroke:#ff0000;stroke-linecap:square;"/>
    </g>
    <g id="line2d_66"/>
    <g id="text_28">
     <!-- locality#3 -->
     <g transform="translate(528.499375 231.62)scale(0.144 -0.144)">
      <use xlink:href="#DejaVuSans-6c"/>
      <use x="27.783203125" xlink:href="#DejaVuSans-6f"/>
      <use x="88.96484375" xlink:href="#DejaVuSans-63"/>
      <use x="143.9453125" xlink:href="#DejaVuSans-61"/>
      <use x="205.224609375" xlink:href="#DejaVuSans-6c"/>
      <use x="233.0078125" xlink:href="#DejaVuSans-69"/>
      <use x="260.791015625" xlink:href="#DejaVuSans-74"/>
      <use x="300.0" xlink:href="#DejaVuSans-79"/>
      <use x="359.1796875" xlink:href="#DejaVuSans-23"/>
      <use x="442.96875" xlink:href="#DejaVuSans-33"/>
     </g>
    </g>
    <g id="line2d_67">
     <path d="
M492.499 247.716
L512.659 247.716" style="fill:none;stroke:#00bfbf;stroke-linecap:square;"/>
    </g>
    <g id="line2d_68"/>
    <g id="text_29">
     <!-- locality#4 -->
     <g transform="translate(528.499375 252.7565)scale(0.144 -0.144)">
      <use xlink:href="#DejaVuSans-6c"/>
      <use x="27.783203125" xlink:href="#DejaVuSans-6f"/>
      <use x="88.96484375" xlink:href="#DejaVuSans-63"/>
      <use x="143.9453125" xlink:href="#DejaVuSans-61"/>
      <use x="205.224609375" xlink:href="#DejaVuSans-6c"/>
      <use x="233.0078125" xlink:href="#DejaVuSans-69"/>
      <use x="260.791015625" xlink:href="#DejaVuSans-74"/>
      <use x="300.0" xlink:href="#DejaVuSans-79"/>
      <use x="359.1796875" xlink:href="#DejaVuSans-23"/>
      <use x="442.96875" xlink:href="#DejaVuSans-34"/>
     </g>
    </g>
    <g id="line2d_69">
     <path d="
M492.499 268.853
L512.659 268.853" style="fill:none;stroke:#bf00bf;stroke-linecap:square;"/>
    </g>
    <g id="line2d_70"/>
    <g id="text_30">
     <!-- locality#5 -->
     <g transform="translate(528.499375 273.893)scale(0.144 -0.144)">
      <use xlink:href="#DejaVuSans-6c"/>
      <use x="27.783203125" xlink:href="#DejaVuSans-6f"/>
      <use x="88.96484375" xlink:href="#DejaVuSans-63"/>
      <use x="143.9453125" xlink:href="#DejaVuSans-61"/>
      <use x="205.224609375" xlink:href="#DejaVuSans-6c"/>
      <use x="233.0078125" xlink:href="#DejaVuSans-69"/>
      <use x="260.791015625" xlink:href="#DejaVuSans-74"/>
      <use x="300.0" xlink:href="#DejaVuSans-79"/>
      <use x="359.1796875" xlink:href="#DejaVuSans-23"/>
      <use x="442.96875" xlink:href="#DejaVuSans-35"/>
     </g>
    </g>
    <g id="line2d_71">
     <path d="
M492.499 289.989
L512.659 289.989" style="fill:none;stroke:#bfbf00;stroke-linecap:square;"/>
    </g>
    <g id="line2d_72"/>
    <g id="text_31">
     <!-- locality#6 -->
     <g transform="translate(528.499375 295.0295)scale(0.144 -0.144)">
      <use xlink:href="#DejaVuSans-6c"/>
      <use x="27.783203125" xlink:href="#DejaVuSans-6f"/>
      <use x="88.96484375" xlink:href="#DejaVuSans-63"/>
      <use x="143.9453125" xlink:href="#DejaVuSans-61"/>
      <use x="205.224609375" xlink:href="#DejaVuSans-6c"/>
      <use x="233.0078125" xlink:href="#DejaVuSans-69"/>
      <use x="260.791015625" xlink:href="#DejaVuSans-74"/>
      <use x="300.0" xlink:href="#DejaVuSans-79"/>
      <use x="359.1796875" xlink:href="#DejaVuSans-23"/>
      <use x="442.96875" xlink:href="#DejaVuSans-36"/>
     </g>
    </g>
    <g id="line2d_73">
     <path d="
M492.499 311.126
L512.659 311.126" style="fill:none;stroke:#000000;stroke-linecap:square;"/>
    </g>
    <g id="line2d_74"/>
    <g id="text_32">
     <!-- locality#7 -->
     <g transform="translate(528.499375 316.166)scale(0.144 -0.144)">
      <use xlink:href="#DejaVuSans-6c"/>
      <use x="27.783203125" xlink:href="#DejaVuSans-6f"/>
      <use x="88.96484375" xlink:href="#DejaVuSans-63"/>
      <use x="143.9453125" xlink:href="#DejaVuSans-61"/>
      <use x="205.224609375" xlink:href="#DejaVuSans-6c"/>
      <use x="233.0078125" xlink:href="#DejaVuSans-69"/>
      <use x="260.791015625" xlink:href="#DejaVuSans-74"/>
      <use x="300.0" xlink:href="#DejaVuSans-79"/>
      <use x="359.1796875" xlink:href="#DejaVuSans-23"/>
      <use x="442.96875" xlink:href="#DejaVuSans-37"/>
     </g>
    </g>
    <g id="line2d_75">
     <path d="
M492.499 332.262
L512.659 332.262" style="fill:none;stroke:#0000ff;stroke-linecap:square;"/>
    </g>
    <g id="line2d_76"/>
    <g id="text_33">
     <!-- locality#8 -->
     <g transform="translate(528.499375 337.3025)scale(0.144 -0.144)">
      <use xlink:href="#DejaVuSans-6c"/>
      <use x="27.783203125" xlink:href="#DejaVuSans-6f"/>
      <use x="88.96484375" xlink:href="#DejaVuSans-63"/>
      <use x="143.9453125" xlink:href="#DejaVuSans-61"/>
      <use x="205.224609375" xlink:href="#DejaVuSans-6c"/>
      <use x="233.0078125" xlink:href="#DejaVuSans-69"/>
      <use x="260.791015625" xlink:href="#DejaVuSans-74"/>
      <use x="300.0" xlink:href="#DejaVuSans-79"/>
      <use x="359.1796875" xlink:href="#DejaVuSans-23"/>
      <use x="442.96875" xlink:href="#DejaVuSans-38"/>
     </g>
    </g>
    <g id="line2d_77">
     <path d="
M492.499 353.399
L512.659 353.399" style="fill:none;stroke:#008000;stroke-linecap:square;"/>
    </g>
    <g id="line2d_78"/>
    <g id="text_34">
     <!-- locality#9 -->
     <defs>
      <path d="
M10.9844 1.51562
L10.9844 10.5
Q14.7031 8.73438 18.5 7.8125
Q22.3125 6.89062 25.9844 6.89062
Q35.75 6.89062 40.8906 13.4531
Q46.0469 20.0156 46.7812 33.4062
Q43.9531 29.2031 39.5938 26.9531
Q35.25 24.7031 29.9844 24.7031
Q19.0469 24.7031 12.6719 31.3125
Q6.29688 37.9375 6.29688 49.4219
Q6.29688 60.6406 12.9375 67.4219
Q19.5781 74.2188 30.6094 74.2188
Q43.2656 74.2188 49.9219 64.5156
Q56.5938 54.8281 56.5938 36.375
Q56.5938 19.1406 48.4062 8.85938
Q40.2344 -1.42188 26.4219 -1.42188
Q22.7031 -1.42188 18.8906 -0.6875
Q15.0938 0.046875 10.9844 1.51562
M30.6094 32.4219
Q37.25 32.4219 41.125 36.9531
Q45.0156 41.5 45.0156 49.4219
Q45.0156 57.2812 41.125 61.8438
Q37.25 66.4062 30.6094 66.4062
Q23.9688 66.4062 20.0938 61.8438
Q16.2188 57.2812 16.2188 49.4219
Q16.2188 41.5 20.0938 36.9531
Q23.9688 32.4219 30.6094 32.4219" id="DejaVuSans-39"/>
     </defs>
     <g transform="translate(528.499375 358.439)scale(0.144 -0.144)">
      <use xlink:href="#DejaVuSans-6c"/>
      <use x="27.783203125" xlink:href="#DejaVuSans-6f"/>
      <use x="88.96484375" xlink:href="#DejaVuSans-63"/>
      <use x="143.9453125" xlink:href="#DejaVuSans-61"/>
      <use x="205.224609375" xlink:href="#DejaVuSans-6c"/>
      <use x="233.0078125" xlink:href="#DejaVuSans-69"/>
      <use x="260.791015625" xlink:href="#DejaVuSans-74"/>
      <use x="300.0" xlink:href="#DejaVuSans-79"/>
      <use x="359.1796875" xlink:href="#DejaVuSans-23"/>
      <use x="442.96875" xlink:href="#DejaVuSans-39"/>
     </g>
    </g>
   </g>
  </g>
 </g>
 <defs>
  <clipPath id="p8c776b0f9c">
   <rect height="345.6" width="446.4" x="28.819375" y="23.14175"/>
  </clipPath>
 </defs>
</svg>
