<?xml version="1.0" encoding="utf-8" standalone="no"?>
<!DOCTYPE svg PUBLIC "-//W3C//DTD SVG 1.1//EN"
  "http://www.w3.org/Graphics/SVG/1.1/DTD/svg11.dtd">
<!-- Created with matplotlib (http://matplotlib.org/) -->
<svg height="408pt" version="1.1" viewBox="0 0 621 408" width="621pt" xmlns="http://www.w3.org/2000/svg" xmlns:xlink="http://www.w3.org/1999/xlink">
 <defs>
  <style type="text/css">
*{stroke-linecap:butt;stroke-linejoin:round;}
  </style>
 </defs>
 <g id="figure_1">
  <g id="patch_1">
   <path d="
M0 408.169
L621.285 408.169
L621.285 0
L0 0
z
" style="fill:#ffffff;"/>
  </g>
  <g id="axes_1">
   <g id="patch_2">
    <path d="
M28.6956 368.742
L475.096 368.742
L475.096 23.1417
L28.6956 23.1417
z
" style="fill:#ffffff;"/>
   </g>
   <g id="line2d_1">
    <path clip-path="url(#p2118423672)" d="
M28.6956 367.887
L29.5902 367.394
L30.4848 366.98
L37.6415 363.671
L38.5361 363.24
L39.4307 362.496
L40.3253 362.06
L42.1145 360.914
L43.9036 359.816
L44.7982 359.209
L48.3766 357.493
L49.2712 356.398
L51.0604 355.549
L52.8495 354.452
L56.4279 352.374
L59.1117 351.014
L60.0062 350.449
L61.7954 349.514
L62.69 348.775
L63.5846 348.342
L64.4792 347.699
L66.2684 346.748
L68.0575 345.836
L69.8467 344.799
L74.3197 342.597
L79.6872 339.494
L81.4764 338.599
L85.9493 336.174
L86.8439 335.749
L88.6331 334.673
L89.5277 334.103
L91.3169 333.205
L99.3682 328.779
L101.157 327.592
L102.052 327.168
L103.841 326.11
L106.525 324.535
L108.314 323.575
L113.682 320.541
L115.471 319.63
L117.26 318.598
L119.049 317.647
L119.944 316.946
L142.308 304.457
L144.098 303.42
L144.992 302.986
L145.887 302.327
L146.781 301.818
L148.571 300.571
L151.254 299.022
L158.411 295.232
L160.2 294.287
L163.779 292.463
L164.673 291.621
L174.514 286.131
L176.303 285.119
L178.092 284.224
L179.881 283.315
L180.776 282.581
L182.565 281.538
L183.46 280.934
L185.249 280.032
L187.038 278.983
L188.827 278.089
L203.141 270.315
L204.035 269.708
L206.719 268.331
L229.978 255.742
L247.87 245.963
L249.659 245.071
L266.656 235.768
L271.129 233.112
L272.024 232.185
L276.497 229.773
L286.337 224.561
L287.232 223.849
L297.072 218.439
L299.756 216.897
L308.702 212.143
L323.91 203.961
L325.699 202.913
L328.383 201.447
L329.278 200.75
L331.961 199.311
L332.856 198.551
L333.751 197.943
L335.54 196.954
L342.696 192.994
L345.38 191.451
L348.959 189.646
L350.748 188.51
L368.64 178.689
L371.323 177.231
L379.375 172.716
L390.11 166.652
L393.688 164.781
L394.583 163.99
L398.161 161.881
L424.104 147.914
L424.999 147.333
L427.682 145.946
L443.785 137.266
L445.574 136.363
L467.044 124.64
L467.939 123.934
L468.834 123.517
L474.201 120.077
L475.096 119.597
L475.096 119.597" style="fill:none;stroke:#0000ff;stroke-linecap:square;"/>
   </g>
   <g id="line2d_2">
    <path clip-path="url(#p2118423672)" d="
M28.6956 368.665
L29.5902 367.807
L32.274 366.912
L34.0632 365.75
L38.5361 364.228
L40.3253 363.649
L42.1145 362.529
L43.9036 361.954
L44.7982 361.528
L50.1658 359.72
L55.5333 357.634
L57.3225 357.064
L58.2171 356.568
L61.7954 355.424
L63.5846 354.741
L67.163 353.488
L70.7413 351.973
L71.6359 351.438
L74.3197 350.437
L76.1089 349.873
L77.898 349.106
L80.5818 348.181
L84.1602 346.8
L85.9493 345.994
L86.8439 345.71
L87.7385 345.297
L90.4223 344.385
L92.2115 343.581
L97.579 341.147
L98.4736 340.838
L100.263 340.053
L105.63 337.912
L107.419 337.093
L109.209 336.457
L116.365 333.48
L117.26 332.993
L124.417 330.013
L129.784 327.894
L131.573 327.245
L137.836 324.796
L141.414 323.528
L143.203 322.543
L144.992 321.813
L145.887 321.258
L147.676 320.63
L148.571 320.046
L157.516 316.208
L158.411 315.689
L160.2 315.058
L162.884 313.963
L163.779 313.364
L166.462 312.317
L167.357 311.815
L173.619 309.331
L174.514 308.806
L180.776 306.453
L187.038 303.848
L187.932 303.354
L189.722 302.594
L191.511 301.801
L193.3 300.979
L195.089 300.338
L196.878 299.537
L197.773 299.258
L199.562 298.352
L211.192 293.782
L212.086 293.147
L216.559 291.268
L221.032 289.178
L222.821 288.437
L231.767 284.871
L236.24 283.04
L238.924 281.765
L239.819 281.483
L243.397 279.694
L244.292 279.343
L245.186 278.795
L246.975 278.14
L249.659 276.793
L250.554 276.433
L251.448 275.826
L255.921 274.007
L256.816 273.47
L258.605 272.836
L263.078 271.221
L263.973 270.652
L265.762 269.871
L269.34 268.266
L271.129 267.453
L277.391 265.056
L280.075 264.096
L280.97 263.406
L281.864 263.058
L282.759 262.471
L287.232 260.792
L288.126 260.284
L291.705 258.798
L292.599 258.354
L293.494 258.06
L294.389 257.484
L296.178 256.765
L297.072 256.234
L302.44 254.202
L304.229 253.564
L306.018 252.795
L307.807 252.131
L308.702 251.65
L315.859 248.83
L319.437 247.091
L320.332 246.808
L321.226 246.288
L323.91 245.293
L325.699 244.665
L326.594 244.138
L331.961 241.833
L333.751 240.907
L336.434 239.945
L340.013 238.568
L341.802 237.916
L346.275 236.171
L354.326 233.277
L355.221 232.778
L360.588 230.776
L363.272 229.32
L365.061 228.689
L365.956 228.256
L366.85 227.973
L369.534 226.479
L373.112 225.096
L374.007 224.553
L375.796 223.867
L376.691 223.343
L380.269 221.803
L381.164 221.208
L382.058 220.874
L383.848 220.009
L385.637 219.337
L388.32 218.321
L389.215 217.718
L391.004 217.025
L391.899 216.553
L392.793 216.265
L395.477 214.992
L416.053 207.012
L416.947 206.45
L418.737 205.811
L420.526 204.977
L422.315 204.19
L424.104 203.55
L425.893 202.917
L426.788 202.288
L430.366 200.892
L433.05 199.808
L433.945 199.127
L435.734 198.496
L440.207 196.41
L442.89 195.404
L443.785 194.641
L450.047 192.234
L450.942 191.777
L452.731 191.139
L466.15 185.79
L467.044 185.292
L475.096 182.042
L475.096 182.042" style="fill:none;stroke:#008000;stroke-linecap:square;"/>
   </g>
   <g id="line2d_3">
    <path clip-path="url(#p2118423672)" d="
M28.6956 368.657
L29.5902 367.335
L35.8523 363.866
L38.5361 362.453
L41.2199 360.874
L45.6928 358.454
L47.482 357.372
L55.5333 352.818
L56.4279 352.179
L60.0062 350.213
L61.7954 349.021
L67.163 346.123
L68.9521 345.056
L70.7413 344.107
L72.5305 343.044
L73.4251 341.35
L74.3197 340.866
L75.2143 340.036
L81.4764 336.144
L85.0547 333.494
L87.7385 331.821
L89.5277 330.761
L92.2115 328.775
L94.0006 327.687
L95.7898 326.393
L98.4736 324.585
L101.157 322.753
L104.736 320.349
L106.525 319.264
L107.419 318.64
L108.314 318.169
L110.103 316.892
L112.787 315.145
L119.944 310.282
L120.838 309.549
L122.627 308.487
L123.522 307.792
L124.417 307.298
L127.1 305.36
L127.995 304.7
L128.89 303.791
L130.679 302.617
L133.363 300.838
L134.257 299.987
L141.414 295.213
L143.203 293.985
L153.044 287.498
L154.833 286.093
L157.516 284.309
L158.411 283.527
L159.306 283.033
L161.095 281.796
L161.989 281.288
L163.779 279.958
L166.462 278.238
L167.357 277.423
L168.252 276.765
L169.146 276.29
L170.041 275.583
L170.935 274.667
L172.724 273.448
L173.619 272.98
L174.514 272.166
L178.987 269.192
L180.776 268.113
L181.67 267.35
L182.565 261.649
L183.46 260.727
L185.249 259.578
L186.143 259.014
L187.038 258.268
L188.827 257.179
L191.511 255.311
L192.405 254.537
L195.089 252.819
L197.773 251.273
L204.035 247.127
L204.93 246.639
L205.824 245.889
L211.192 242.304
L212.086 241.636
L213.876 240.567
L220.138 236.446
L221.032 235.728
L223.716 234.016
L225.505 232.644
L228.189 230.882
L229.084 230.008
L229.978 229.537
L231.767 228.242
L233.557 226.962
L235.346 225.678
L239.819 222.588
L241.608 221.285
L243.397 220.147
L245.186 218.859
L246.975 217.778
L247.87 217.119
L249.659 216.048
L253.238 213.697
L254.132 213.227
L259.5 209.14
L261.289 208.145
L262.183 207.249
L270.235 201.911
L271.129 201.024
L272.024 200.335
L276.497 197.653
L279.181 195.937
L281.864 194.222
L282.759 193.25
L287.232 190.294
L297.967 182.675
L301.545 180.526
L302.44 179.646
L304.229 178.568
L307.807 176.408
L308.702 175.127
L314.07 171.379
L314.964 170.901
L321.226 166.413
L323.91 164.706
L325.699 163.64
L328.383 161.971
L331.961 159.834
L333.751 158.309
L338.223 155.371
L339.118 154.788
L340.013 154.056
L340.907 153.571
L343.591 151.581
L348.959 148.107
L349.853 147.626
L350.748 146.796
L356.115 143.077
L357.01 142.424
L358.799 141.291
L364.167 137.54
L367.745 135.134
L369.534 133.837
L372.218 132.113
L373.112 131.64
L376.691 128.992
L379.375 127.11
L380.269 126.635
L388.32 120.987
L390.11 119.685
L391.004 119.058
L391.899 118.194
L394.583 116.571
L396.372 115.244
L408.001 107.481
L408.896 106.925
L409.791 106.222
L410.685 105.676
L411.58 104.942
L425.893 95.8353
L428.577 93.9019
L433.945 90.3284
L434.839 89.8554
L438.417 87.2979
L441.996 84.9953
L442.89 84.2369
L447.363 81.3734
L449.153 80.2467
L450.942 78.9877
L451.836 78.497
L453.625 77.0484
L454.52 76.5735
L455.415 75.6038
L458.098 73.9588
L458.993 73.1076
L460.782 72.052
L461.677 71.5791
L465.255 69.2092
L467.044 68.1517
L467.939 67.5207
L468.834 67.0497
L475.096 62.8295
L475.096 62.8295" style="fill:none;stroke:#ff0000;stroke-linecap:square;"/>
   </g>
   <g id="line2d_4">
    <path clip-path="url(#p2118423672)" d="
M28.6956 368.661
L29.5902 368.011
L30.4848 367.116
L34.9577 364.721
L39.4307 362.212
L43.0091 360.018
L43.9036 359.358
L48.3766 356.77
L49.2712 356.172
L51.0604 355.252
L60.0062 349.438
L61.7954 348.496
L62.69 347.874
L66.2684 345.851
L72.5305 342.02
L76.1089 340.005
L87.7385 332.437
L90.4223 330.917
L100.263 324.486
L101.157 323.672
L103.841 322.049
L106.525 320.002
L109.209 318.383
L110.998 317.333
L111.892 316.758
L113.682 315.362
L115.471 314.257
L116.365 313.424
L122.627 309.357
L124.417 308.115
L128.89 305.228
L129.784 304.38
L132.468 302.613
L134.257 301.198
L136.046 299.958
L138.73 298.253
L139.625 297.697
L140.519 297.003
L141.414 296.525
L143.203 295.295
L145.887 293.635
L147.676 292.116
L150.36 290.065
L152.149 288.749
L156.622 285.726
L157.516 284.989
L160.2 283.249
L161.095 282.493
L164.673 280.249
L166.462 279.103
L167.357 278.248
L176.303 272.25
L178.092 271.186
L178.987 270.514
L180.776 269.376
L183.46 267.602
L188.827 264.218
L190.616 263.029
L193.3 261.064
L195.984 259.542
L196.878 258.836
L198.668 257.757
L201.351 256.005
L202.246 255.318
L203.141 254.783
L204.035 254.093
L204.93 253.618
L212.086 248.692
L213.876 247.645
L218.349 244.68
L219.243 243.937
L224.611 240.337
L237.135 231.785
L238.924 230.495
L239.819 230.019
L241.608 228.701
L243.397 227.627
L245.186 226.311
L246.975 225.237
L252.343 221.619
L253.238 220.834
L255.027 219.771
L256.816 218.313
L257.71 217.834
L259.5 216.679
L262.183 215.114
L263.973 213.97
L264.867 213.431
L265.762 212.545
L266.656 212.063
L272.024 208.34
L273.813 207.363
L281.864 201.845
L282.759 201.03
L287.232 198.143
L289.916 195.838
L297.967 190.373
L298.862 189.669
L300.651 188.48
L306.018 185.049
L307.807 183.947
L311.386 181.516
L317.648 177.171
L319.437 175.794
L323.015 173.283
L323.91 172.591
L325.699 171.467
L326.594 170.849
L327.488 170.375
L328.383 169.577
L337.329 163.57
L338.223 162.911
L339.118 162.436
L340.013 161.654
L340.907 161.182
L342.696 159.723
L344.486 158.364
L348.959 154.984
L350.748 153.929
L355.221 151.022
L357.01 149.964
L359.694 148.188
L360.588 147.703
L362.377 146.359
L365.956 144.125
L367.745 143.037
L372.218 140.103
L373.112 139.61
L377.585 136.298
L378.48 135.748
L379.375 134.97
L380.269 134.489
L382.953 132.637
L383.848 131.637
L389.215 128.059
L391.899 125.884
L392.793 125.407
L402.634 118.807
L409.791 114.182
L410.685 113.38
L413.369 111.594
L414.264 111.128
L415.158 110.454
L416.053 109.997
L426.788 102.85
L427.682 102.133
L428.577 101.211
L432.155 98.7669
L435.734 96.4603
L437.523 95.1875
L441.996 92.5402
L442.89 91.9596
L443.785 90.9662
L444.68 90.4676
L450.047 86.6759
L452.731 84.9666
L453.625 83.9012
L455.415 82.7834
L462.571 77.867
L464.361 76.6357
L465.255 75.7421
L467.939 73.9035
L468.834 73.4088
L469.728 72.7245
L471.517 71.6768
L473.306 70.5117
L474.201 69.7168
L475.096 69.0888
L475.096 69.0888" style="fill:none;stroke:#00bfbf;stroke-linecap:square;"/>
   </g>
   <g id="line2d_5">
    <path clip-path="url(#p2118423672)" d="
M28.6956 368.658
L29.5902 367.707
L32.274 366.355
L34.0632 365.459
L36.7469 364.163
L42.1145 361.504
L52.8495 356.594
L59.1117 353.713
L60.0062 353.173
L64.4792 351.054
L65.3738 350.563
L66.2684 349.94
L67.163 349.528
L68.0575 348.969
L70.7413 347.698
L72.5305 346.787
L76.1089 345.114
L77.898 343.957
L80.5818 342.608
L83.2656 341.161
L87.7385 338.672
L90.4223 337.336
L92.2115 336.286
L94.0006 335.327
L97.579 333.361
L99.3682 332.436
L104.736 329.076
L105.63 328.668
L107.419 327.523
L109.209 326.606
L110.998 325.682
L112.787 324.445
L123.522 318.375
L125.311 317.41
L127.995 315.783
L133.363 312.765
L135.152 311.662
L136.941 310.734
L138.73 309.678
L151.254 302.86
L152.149 302.194
L161.095 296.97
L161.989 296.256
L166.462 293.793
L172.724 290.303
L174.514 289.384
L176.303 288.315
L178.092 287.378
L178.987 286.787
L180.776 285.833
L183.46 284.293
L184.354 283.889
L187.038 282.328
L188.827 281.359
L190.616 280.14
L195.089 277.593
L197.773 276.257
L201.351 274.119
L204.93 272.258
L205.824 271.602
L212.981 267.508
L217.454 264.755
L219.243 263.656
L220.138 262.963
L224.611 260.278
L225.505 259.506
L228.189 258.02
L229.084 257.421
L229.978 257.012
L238.924 251.8
L240.713 250.86
L253.238 243.44
L255.027 242.517
L256.816 241.481
L258.605 240.555
L260.394 239.571
L261.289 239.167
L262.183 238.492
L263.973 237.511
L267.551 235.61
L271.129 233.476
L273.813 232.046
L277.391 230.134
L278.286 229.548
L280.97 228.195
L289.916 223.09
L291.705 222.037
L298.862 217.994
L303.335 215.706
L306.018 214.164
L307.807 213.242
L309.597 212.156
L320.332 206.281
L321.226 205.629
L323.91 204.198
L332.856 199.328
L335.54 197.886
L340.013 195.531
L343.591 193.505
L346.275 192.015
L350.748 189.505
L353.431 188.067
L356.115 186.744
L357.01 186.095
L358.799 185.175
L363.272 182.689
L365.061 181.759
L365.956 181.192
L367.745 180.26
L371.323 178.096
L375.796 175.427
L378.48 173.774
L381.164 172.302
L388.32 168.296
L390.11 167.034
L394.583 164.591
L416.947 152.351
L417.842 151.935
L420.526 150.232
L423.209 148.614
L424.999 147.528
L425.893 147.124
L427.682 145.994
L428.577 145.314
L441.101 138.23
L442.89 137.255
L443.785 136.613
L446.469 135.203
L452.731 131.796
L453.625 131.209
L455.415 130.281
L456.309 129.689
L458.098 128.736
L460.782 127.264
L462.571 126.336
L463.466 125.817
L465.255 124.574
L467.044 123.639
L467.939 122.968
L470.623 121.638
L472.412 120.584
L474.201 119.336
L475.096 118.845
L475.096 118.845" style="fill:none;stroke:#bf00bf;stroke-linecap:square;"/>
   </g>
   <g id="line2d_6">
    <path clip-path="url(#p2118423672)" d="
M28.6956 368.671
L29.5902 368.101
L30.4848 367.635
L35.8523 365.129
L36.7469 364.667
L37.6415 364.006
L46.5874 359.74
L51.9549 357.31
L53.7441 356.418
L55.5333 355.539
L58.2171 354.281
L59.1117 353.651
L63.5846 351.644
L67.163 349.998
L68.9521 348.691
L75.2143 345.632
L76.1089 345.239
L77.898 344.13
L82.371 341.714
L85.0547 339.975
L87.7385 338.503
L90.4223 337.209
L94.8952 334.836
L96.6844 333.928
L100.263 332.032
L101.157 331.298
L102.947 330.392
L105.63 328.955
L106.525 328.304
L108.314 327.414
L109.209 326.572
L113.682 324.114
L115.471 323.226
L123.522 318.876
L124.417 318.457
L126.206 317.301
L133.363 313.409
L134.257 312.705
L137.836 310.818
L139.625 309.88
L140.519 309.286
L142.308 308.372
L151.254 303.618
L152.149 302.695
L153.044 302.197
L154.833 300.903
L155.727 300.353
L157.516 299.416
L158.411 298.868
L159.306 298.468
L161.095 297.298
L161.989 296.673
L165.568 294.749
L167.357 293.686
L170.935 291.606
L172.724 290.471
L174.514 289.564
L178.092 287.756
L178.987 287.173
L179.881 286.754
L180.776 285.946
L183.46 284.315
L184.354 283.907
L187.932 281.849
L193.3 278.83
L196.878 276.94
L198.668 276.035
L204.035 273.132
L204.93 272.732
L206.719 271.545
L210.297 269.567
L212.086 268.49
L213.876 267.591
L215.665 266.614
L220.138 264.038
L221.032 263.424
L222.821 262.533
L223.716 261.954
L225.505 260.607
L229.978 258.375
L230.873 257.702
L234.451 255.68
L236.24 254.772
L238.029 253.771
L238.924 253.135
L239.819 252.738
L241.608 251.67
L246.081 249.375
L247.87 248.171
L248.765 247.75
L250.554 246.661
L252.343 245.693
L253.238 245.078
L255.027 244.183
L270.235 235.741
L271.129 235.113
L272.024 234.3
L275.602 232.612
L285.443 227.157
L288.126 225.505
L298.862 219.548
L300.651 218.731
L301.545 218.089
L304.229 216.684
L306.913 215.285
L316.753 209.909
L326.594 204.368
L328.383 203.483
L332.856 201.145
L334.645 200.191
L335.54 199.286
L336.434 198.655
L340.907 196.314
L342.696 195.073
L345.38 193.538
L347.169 192.651
L348.064 192.056
L349.853 191.211
L363.272 183.825
L364.167 183.43
L368.64 180.957
L372.218 179.031
L373.112 178.632
L379.375 174.985
L380.269 174.591
L382.058 173.562
L390.11 169.068
L391.899 167.909
L393.688 167.024
L395.477 166.116
L405.318 160.895
L406.212 160.499
L407.107 159.953
L408.001 159.542
L409.791 158.47
L416.053 155.121
L416.947 154.507
L418.737 153.511
L419.631 152.831
L439.312 142.083
L442.89 140.168
L444.68 139.191
L445.574 138.723
L446.469 137.951
L448.258 137.095
L450.942 135.446
L453.625 133.945
L455.415 133.057
L460.782 130.16
L462.571 129.251
L465.255 127.663
L466.15 127.268
L467.939 126.167
L468.834 125.774
L469.728 125.142
L470.623 124.741
L472.412 123.58
L475.096 122.03
L475.096 122.03" style="fill:none;stroke:#bfbf00;stroke-linecap:square;"/>
   </g>
   <g id="line2d_7">
    <path clip-path="url(#p2118423672)" d="
M28.6956 368.475
L29.5902 367.858
L30.4848 367.37
L49.2712 359.838
L50.1658 359.192
L51.0604 358.847
L52.8495 357.914
L57.3225 356.054
L61.7954 354.283
L62.69 353.761
L68.9521 351.182
L69.8467 350.675
L72.5305 349.523
L73.4251 348.776
L75.2143 347.993
L77.0034 347.185
L77.898 346.63
L78.7926 346.27
L79.6872 345.637
L80.5818 345.278
L84.1602 343.337
L86.8439 342.097
L87.7385 341.44
L90.4223 340.28
L102.947 334.063
L106.525 332.258
L113.682 328.783
L115.471 327.973
L120.838 325.376
L122.627 324.577
L127.1 322.267
L128.89 321.288
L140.519 315.645
L142.308 314.822
L153.938 309.225
L158.411 307.048
L160.2 306.226
L164.673 304.135
L165.568 303.444
L168.252 302.147
L170.041 301.167
L171.83 300.263
L172.724 299.712
L174.514 298.895
L178.987 296.866
L180.776 295.98
L181.67 295.416
L192.405 290.201
L193.3 289.659
L195.984 288.496
L196.878 287.896
L198.668 287.095
L206.719 283.049
L208.508 281.971
L216.559 277.925
L221.032 275.636
L221.927 275.252
L222.821 274.554
L224.611 273.577
L225.505 273.051
L231.767 270.186
L238.924 266.72
L239.819 266.36
L242.502 264.888
L243.397 264.216
L246.975 262.315
L260.394 255.715
L262.183 254.917
L268.446 251.667
L269.34 251.067
L273.813 248.947
L276.497 247.673
L280.075 245.967
L282.759 244.657
L289.021 241.65
L291.705 240.295
L299.756 236.371
L301.545 235.565
L306.018 233.433
L307.807 232.629
L314.07 229.192
L315.859 228.388
L318.543 227.04
L319.437 226.391
L320.332 226.033
L321.226 225.401
L323.015 224.575
L323.91 223.8
L327.488 222.189
L331.067 220.49
L331.961 220.112
L333.751 219.03
L341.802 215.234
L344.486 213.745
L345.38 213.018
L350.748 210.588
L351.642 209.957
L355.221 208.306
L356.115 207.68
L359.694 205.926
L362.377 204.638
L363.272 204.129
L364.167 203.772
L365.956 202.718
L367.745 201.909
L370.429 200.364
L373.112 199.052
L374.007 198.43
L374.902 197.996
L375.796 197.415
L381.164 194.764
L382.058 194.224
L382.953 193.544
L391.004 189.574
L391.899 188.993
L392.793 188.641
L393.688 188.078
L396.372 186.838
L398.161 185.889
L399.95 184.864
L405.318 182.374
L408.001 181.195
L419.631 175.593
L428.577 171.081
L430.366 170.098
L433.945 168.172
L435.734 167.364
L437.523 166.335
L441.996 164.267
L442.89 163.868
L443.785 163.234
L446.469 161.986
L448.258 161.062
L450.942 159.659
L452.731 158.859
L464.361 152.96
L465.255 152.453
L466.15 152.091
L467.939 151.003
L468.834 150.641
L469.728 150.102
L471.517 149.299
L473.306 148.407
L475.096 147.243
L475.096 147.243" style="fill:none;stroke:#000000;stroke-linecap:square;"/>
   </g>
   <g id="line2d_8">
    <path clip-path="url(#p2118423672)" d="
M28.6956 368.683
L29.5902 368.247
L30.4848 367.905
L59.1117 357.676
L60.0062 356.646
L61.7954 355.913
L70.7413 352.667
L83.2656 347.437
L84.1602 346.776
L85.9493 345.978
L87.7385 345.276
L88.6331 344.741
L107.419 336.766
L109.209 336.078
L110.103 335.218
L111.892 334.478
L112.787 333.598
L127.1 327.331
L127.995 326.756
L131.573 325.176
L137.836 322.484
L141.414 321.045
L146.781 318.649
L151.254 316.814
L153.044 315.961
L170.041 308.809
L173.619 307.14
L176.303 306.061
L178.092 305.372
L187.932 301.062
L191.511 299.557
L193.3 298.737
L195.089 298.041
L196.878 297.23
L198.668 296.536
L208.508 292.277
L209.403 291.746
L229.084 283.374
L230.873 282.685
L233.557 281.454
L235.346 280.713
L256.816 271.392
L258.605 270.703
L260.394 269.866
L262.183 269.02
L265.762 267.56
L267.551 266.85
L270.235 265.539
L272.024 264.651
L275.602 263.332
L278.286 262.06
L280.97 261.048
L286.337 258.731
L288.126 257.849
L293.494 255.45
L296.178 254.29
L297.967 253.428
L302.44 251.654
L303.335 251.346
L304.229 250.872
L306.913 249.844
L309.597 248.596
L314.07 246.722
L318.543 244.578
L322.121 243.096
L323.015 242.789
L323.91 242.284
L327.488 240.891
L337.329 236.642
L338.223 236.108
L340.907 235.087
L345.38 233.073
L348.959 231.578
L350.748 230.876
L351.642 230.416
L354.326 229.364
L357.01 228.264
L358.799 227.504
L362.377 225.948
L363.272 225.301
L365.061 224.6
L369.534 222.685
L370.429 222.146
L374.007 220.712
L377.585 219.153
L379.375 218.318
L381.164 217.614
L388.32 214.563
L390.11 213.741
L401.739 208.848
L404.423 207.846
L411.58 204.883
L417.842 202.385
L418.737 201.811
L424.999 199.055
L426.788 198.33
L429.472 197.16
L430.366 196.635
L443.785 190.964
L446.469 189.902
L447.363 189.431
L450.047 188.317
L452.731 187.227
L453.625 186.612
L455.415 185.915
L459.888 184.056
L461.677 183.433
L463.466 182.528
L467.939 180.658
L468.834 180.346
L472.412 178.661
L475.096 177.49
L475.096 177.49" style="fill:none;stroke:#0000ff;stroke-linecap:square;"/>
   </g>
   <g id="line2d_9">
    <path clip-path="url(#p2118423672)" d="
M28.6956 368.681
L29.5902 368.325
L30.4848 368.025
L34.0632 366.891
L34.9577 365.579
L36.7469 364.978
L38.5361 364.309
L42.1145 363.157
L44.7982 362.186
L60.9008 357.236
L62.69 356.594
L63.5846 356.328
L64.4792 355.857
L67.163 354.952
L69.8467 353.969
L70.7413 353.695
L71.6359 353.232
L77.0034 351.56
L81.4764 349.928
L82.371 349.367
L100.263 342.726
L101.157 342.293
L105.63 340.758
L108.314 339.689
L113.682 337.759
L115.471 337.159
L117.26 336.426
L119.049 335.782
L122.627 334.475
L128.89 332.119
L129.784 331.699
L131.573 331.049
L137.836 328.75
L142.308 327.179
L143.203 326.862
L145.887 325.478
L146.781 325.162
L147.676 324.703
L148.571 324.372
L151.254 323.06
L153.044 322.296
L164.673 318.077
L166.462 317.258
L171.83 315.188
L172.724 314.76
L175.408 313.855
L178.092 312.95
L178.987 312.31
L180.776 311.692
L181.67 311.238
L183.46 310.513
L186.143 309.461
L193.3 306.773
L194.195 306.395
L195.089 305.884
L196.878 305.143
L199.562 303.873
L201.351 303.083
L202.246 302.658
L204.93 301.73
L206.719 300.99
L218.349 296.767
L221.032 295.714
L225.505 293.994
L228.189 293.032
L233.557 290.945
L238.924 288.588
L240.713 287.981
L241.608 287.518
L246.975 285.595
L250.554 284.15
L252.343 283.436
L256.816 281.828
L258.605 281.227
L260.394 280.488
L261.289 279.967
L274.708 275.047
L276.497 274.443
L282.759 272.011
L284.548 271.274
L291.705 268.555
L292.599 268.099
L294.389 267.47
L297.967 266.066
L298.862 265.553
L307.807 262.239
L311.386 260.725
L313.175 259.793
L323.91 255.669
L324.805 255.221
L335.54 251.418
L337.329 250.726
L350.748 245.832
L351.642 245.309
L354.326 244.439
L355.221 244.049
L357.904 243.172
L359.694 242.459
L361.483 241.859
L368.64 239.099
L369.534 238.593
L373.112 237.327
L374.007 236.82
L376.691 235.784
L379.375 234.734
L381.164 234.119
L385.637 232.462
L387.426 231.71
L389.215 230.986
L391.899 229.93
L393.688 229.319
L398.161 227.596
L399.95 226.949
L401.739 226.215
L404.423 225.352
L405.318 224.927
L408.001 224.029
L409.791 223.281
L410.685 223.018
L415.158 221.119
L416.053 220.85
L420.526 218.804
L427.682 216.153
L439.312 211.543
L475.096 198.841
L475.096 198.841" style="fill:none;stroke:#008000;stroke-linecap:square;"/>
   </g>
   <g id="line2d_10">
    <path clip-path="url(#p2118423672)" d="
M28.6956 368.674
L29.5902 368.358
L30.4848 367.793
L43.0091 363.687
L43.9036 363.165
L51.9549 360.5
L62.69 356.986
L63.5846 356.376
L67.163 355.11
L68.9521 354.437
L76.1089 351.894
L101.157 341.493
L102.052 341.178
L103.841 340.302
L106.525 339.114
L107.419 338.675
L109.209 338.008
L111.892 336.918
L114.576 335.789
L127.1 330.579
L128.89 329.48
L131.573 328.402
L137.836 325.787
L140.519 324.743
L141.414 324.199
L146.781 321.936
L151.254 320.213
L155.727 318.34
L157.516 317.673
L158.411 317.167
L163.779 314.975
L164.673 314.434
L171.83 311.361
L172.724 310.651
L174.514 309.983
L176.303 309.212
L187.932 304.486
L189.722 303.584
L191.511 302.751
L192.405 302.184
L196.878 300.21
L198.668 299.544
L215.665 292.459
L217.454 291.633
L221.032 289.908
L222.821 289.141
L223.716 288.457
L227.294 286.863
L228.189 286.559
L229.084 285.987
L229.978 285.69
L231.767 284.844
L238.029 282.006
L238.924 281.541
L240.713 280.865
L242.502 280.159
L243.397 279.569
L245.186 278.786
L246.081 278.492
L246.975 278.056
L247.87 277.485
L250.554 276.458
L252.343 275.561
L255.027 274.223
L263.078 270.961
L266.656 269.56
L270.235 267.848
L275.602 265.615
L276.497 264.664
L285.443 260.935
L286.337 260.436
L288.126 259.705
L290.81 258.465
L296.178 256.283
L297.967 255.491
L302.44 253.772
L305.124 252.771
L310.491 250.641
L316.753 247.949
L317.648 247.518
L318.543 246.364
L321.226 245.32
L322.121 244.716
L324.805 243.715
L328.383 242.234
L329.278 241.711
L331.961 240.673
L334.645 239.543
L335.54 239.079
L337.329 238.355
L339.118 237.641
L341.802 236.436
L345.38 234.669
L347.169 233.948
L348.064 233.418
L350.748 232.456
L353.431 231.326
L356.115 230.367
L370.429 224.368
L373.112 223.4
L374.902 222.559
L391.004 215.742
L396.372 213.202
L397.266 212.652
L398.161 212.311
L401.739 210.493
L402.634 210.198
L403.528 209.678
L416.947 204.185
L422.315 201.98
L423.209 201.568
L424.104 201.033
L438.417 195.153
L440.207 194.375
L443.785 192.975
L446.469 191.973
L454.52 188.499
L456.309 187.602
L462.571 184.931
L463.466 184.306
L465.255 183.457
L467.044 182.778
L475.096 179.373
L475.096 179.373" style="fill:none;stroke:#ff0000;stroke-linecap:square;"/>
   </g>
   <g id="line2d_11">
    <path clip-path="url(#p2118423672)" d="
M28.6956 368.673
L29.5902 368.156
L34.0632 366.497
L34.9577 365.545
L36.7469 364.759
L51.0604 359.544
L51.9549 359.224
L52.8495 358.722
L58.2171 356.786
L60.0062 356.021
L60.9008 355.702
L62.69 354.939
L63.5846 354.619
L66.2684 353.379
L70.7413 351.673
L74.3197 350.194
L87.7385 344.429
L90.4223 343.381
L105.63 336.57
L106.525 335.293
L110.103 333.779
L112.787 332.608
L114.576 331.866
L117.26 330.593
L118.155 330.139
L119.049 329.476
L122.627 327.917
L135.152 322.191
L136.941 321.32
L142.308 318.956
L143.203 318.137
L155.727 312.637
L157.516 311.898
L161.095 310.375
L164.673 308.803
L165.568 308.229
L171.83 305.456
L172.724 304.686
L175.408 303.589
L180.776 301.334
L192.405 295.834
L193.3 295.359
L194.195 295.033
L195.089 294.44
L198.668 292.922
L204.035 290.577
L205.824 289.821
L208.508 288.555
L224.611 281.341
L227.294 280.146
L229.978 279.078
L236.24 276.243
L237.135 275.643
L240.713 273.918
L242.502 273.1
L246.081 271.609
L247.87 270.714
L249.659 269.988
L260.394 265.157
L262.183 264.426
L277.391 257.571
L278.286 256.891
L279.181 256.563
L280.075 256.071
L282.759 254.893
L284.548 254.01
L285.443 253.517
L288.126 252.375
L295.283 249.077
L302.44 245.877
L304.229 245.139
L305.124 244.781
L306.018 244.283
L307.807 243.565
L314.07 240.664
L315.859 239.945
L316.753 239.468
L317.648 238.854
L326.594 235.102
L328.383 234.371
L333.751 232.059
L335.54 231.13
L336.434 230.771
L337.329 230.199
L340.013 228.958
L342.696 227.695
L362.377 219.138
L363.272 218.651
L365.061 217.93
L365.956 217.391
L367.745 216.664
L379.375 211.537
L381.164 210.786
L387.426 208.001
L391.899 205.83
L392.793 205.507
L393.688 204.953
L396.372 203.836
L399.95 202.278
L402.634 201.145
L407.107 199.264
L408.001 198.925
L409.791 197.919
L411.58 197.16
L413.369 196.399
L415.158 195.357
L416.947 194.597
L417.842 194.005
L422.315 191.997
L424.104 191.067
L440.207 183.972
L443.785 182.489
L449.153 179.876
L454.52 177.574
L456.309 176.482
L458.098 175.746
L460.782 174.618
L462.571 173.89
L471.517 169.943
L472.412 169.299
L473.306 168.905
L474.201 168.371
L475.096 167.998
L475.096 167.998" style="fill:none;stroke:#00bfbf;stroke-linecap:square;"/>
   </g>
   <g id="line2d_12">
    <path clip-path="url(#p2118423672)" d="
M28.6956 368.684
L29.5902 367.941
L30.4848 367.553
L31.3794 366.98
L39.4307 363.423
L43.9036 361.626
L44.7982 361.026
L76.1089 348.318
L77.898 347.288
L78.7926 346.91
L79.6872 346.144
L84.1602 343.762
L87.7385 342.106
L90.4223 340.95
L91.3169 340.282
L92.2115 339.856
L93.106 339.254
L94.8952 338.384
L95.7898 337.781
L102.947 334.218
L106.525 332.449
L107.419 331.85
L109.209 331.037
L110.998 330.176
L111.892 329.518
L120.838 325.17
L122.627 324.377
L124.417 323.436
L126.206 322.479
L134.257 318.527
L137.836 316.763
L138.73 316.381
L141.414 314.953
L144.992 313.238
L147.676 312.025
L148.571 311.39
L151.254 310.121
L162.884 304.344
L163.779 303.947
L164.673 303.343
L168.252 301.578
L170.041 300.765
L176.303 297.674
L177.197 297.018
L186.143 292.537
L187.932 291.43
L189.722 290.472
L190.616 289.832
L197.773 286.337
L198.668 285.683
L204.93 282.535
L205.824 281.964
L220.138 275.021
L221.032 274.487
L223.716 273.238
L227.294 271.439
L228.189 270.843
L241.608 264.291
L244.292 263.02
L245.186 262.497
L246.081 262.143
L247.87 261.141
L249.659 260.346
L265.762 252.446
L266.656 251.799
L269.34 250.445
L270.235 249.785
L274.708 247.689
L276.497 246.879
L280.97 244.66
L281.864 244.052
L298.862 235.48
L300.651 234.739
L301.545 234.161
L302.44 233.728
L304.229 232.685
L306.018 231.817
L306.913 231.448
L308.702 230.319
L310.491 229.449
L312.28 228.447
L314.07 227.604
L315.859 226.697
L316.753 226.071
L321.226 223.803
L322.121 223.136
L323.015 222.775
L323.91 222.22
L331.961 218.515
L333.751 217.319
L335.54 216.515
L341.802 213.606
L348.064 210.493
L348.959 210.129
L349.853 209.459
L352.537 208.196
L365.956 201.616
L367.745 200.771
L374.902 197.195
L375.796 196.472
L376.691 196.025
L377.585 195.447
L380.269 194.184
L383.848 192.252
L385.637 191.438
L391.004 188.853
L392.793 187.78
L403.528 182.541
L405.318 181.725
L409.791 179.348
L411.58 178.546
L418.737 175.133
L431.261 168.929
L433.05 168.135
L433.945 167.596
L435.734 166.78
L437.523 165.812
L439.312 164.876
L443.785 162.831
L444.68 162.281
L450.047 159.725
L450.942 159.152
L453.625 157.85
L455.415 156.848
L458.993 155.149
L459.888 154.55
L461.677 153.84
L463.466 152.877
L471.517 148.825
L472.412 148.212
L475.096 146.889
L475.096 146.889" style="fill:none;stroke:#bf00bf;stroke-linecap:square;"/>
   </g>
   <g id="line2d_13">
    <path clip-path="url(#p2118423672)" d="
M28.6956 368.525
L29.5902 367.089
L31.3794 366.166
L37.6415 363.243
L39.4307 362.339
L45.6928 359.464
L48.3766 358.118
L64.4792 351.02
L65.3738 350.46
L68.0575 349.203
L68.9521 348.676
L74.3197 346.222
L75.2143 345.629
L76.1089 345.243
L77.898 344.158
L80.5818 342.855
L88.6331 338.621
L92.2115 336.601
L94.8952 335.115
L100.263 332.229
L102.052 331.274
L105.63 329.276
L107.419 328.213
L108.314 327.821
L109.209 327.247
L111.892 325.895
L112.787 325.422
L113.682 324.8
L115.471 323.939
L117.26 322.899
L118.155 322.508
L120.838 320.985
L122.627 320.117
L127.1 317.587
L133.363 314.095
L135.152 312.781
L136.941 311.913
L137.836 311.228
L158.411 299.854
L160.2 298.969
L161.989 297.936
L165.568 296.031
L166.462 295.067
L173.619 291.187
L174.514 290.565
L178.092 288.802
L181.67 286.89
L183.46 285.831
L185.249 284.921
L186.143 284.296
L193.3 280.534
L194.195 280.147
L195.089 279.6
L197.773 278.339
L209.403 272.013
L211.192 271.125
L213.876 269.77
L214.77 268.954
L217.454 267.583
L224.611 263.529
L225.505 262.91
L226.4 262.466
L229.084 260.778
L230.873 259.843
L231.767 259.135
L241.608 253.861
L243.397 252.984
L244.292 252.302
L246.975 250.77
L247.87 250.13
L249.659 249.262
L251.448 248.227
L252.343 247.773
L254.132 246.677
L256.816 245.207
L258.605 244.33
L260.394 243.383
L261.289 242.999
L263.973 241.147
L269.34 238.383
L272.024 236.849
L282.759 231.287
L284.548 230.202
L289.021 227.76
L292.599 225.319
L293.494 224.917
L296.178 223.365
L307.807 217.337
L308.702 216.547
L324.805 207.718
L326.594 206.684
L328.383 205.781
L329.278 205.112
L331.067 204.189
L335.54 201.19
L339.118 199.418
L343.591 197.087
L344.486 196.45
L348.064 194.604
L350.748 193.299
L353.431 191.906
L356.115 190.645
L359.694 188.76
L361.483 187.866
L373.112 181.494
L374.007 180.855
L382.058 176.599
L382.953 175.907
L384.742 174.827
L385.637 174.215
L388.32 172.758
L391.899 170.323
L392.793 169.925
L394.583 168.971
L400.845 165.519
L401.739 164.819
L402.634 164.277
L403.528 163.393
L404.423 162.711
L406.212 161.685
L407.107 161
L413.369 157.637
L416.053 156.366
L416.947 155.612
L418.737 154.735
L424.104 151.755
L424.999 151.087
L426.788 150.182
L428.577 149.085
L441.996 141.868
L448.258 138.698
L450.047 137.637
L460.782 132.003
L462.571 131.127
L469.728 127.316
L471.517 126.425
L475.096 124.421
L475.096 124.421" style="fill:none;stroke:#bfbf00;stroke-linecap:square;"/>
   </g>
   <g id="line2d_14">
    <path clip-path="url(#p2118423672)" d="
M28.6956 368.66
L29.5902 367.969
L30.4848 367.398
L32.274 366.523
L33.1686 365.918
L36.7469 364.144
L37.6415 363.371
L42.1145 360.872
L43.0091 359.987
L46.5874 358.034
L50.1658 356.014
L51.0604 355.41
L51.9549 354.612
L55.5333 352.856
L57.3225 351.873
L58.2171 351.432
L59.1117 350.788
L61.7954 349.428
L67.163 346.714
L68.9521 345.718
L70.7413 344.775
L72.5305 343.81
L75.2143 342.491
L80.5818 339.463
L81.4764 338.671
L85.9493 336.064
L88.6331 334.625
L94.8952 330.705
L96.6844 329.718
L107.419 323.093
L109.209 322.11
L110.998 321.112
L114.576 318.939
L115.471 318.217
L121.733 314.415
L125.311 312.145
L126.206 311.46
L136.941 304.897
L137.836 304.256
L138.73 303.778
L140.519 302.594
L141.414 302.141
L145.887 299.186
L147.676 298.2
L149.465 297.093
L152.149 295.471
L178.987 279.007
L181.67 277.061
L183.46 275.62
L184.354 275.176
L189.722 271.762
L195.089 268.375
L197.773 266.875
L198.668 266.106
L204.035 262.882
L204.93 262.4
L207.613 260.295
L212.086 257.574
L212.981 257.132
L221.032 251.9
L222.821 250.909
L226.4 248.282
L227.294 247.387
L229.978 245.936
L233.557 243.598
L238.924 240.345
L240.713 239.354
L245.186 236.709
L246.081 236.266
L247.87 235.048
L255.921 230.258
L261.289 226.971
L265.762 224.313
L267.551 223.298
L270.235 221.576
L272.918 220.051
L275.602 218.514
L279.181 215.942
L281.864 214.356
L284.548 212.568
L285.443 211.845
L287.232 210.844
L289.021 209.653
L290.81 208.416
L292.599 207.212
L294.389 206.223
L297.072 204.438
L299.756 202.866
L300.651 202.425
L302.44 201.214
L304.229 200.22
L306.913 198.632
L309.597 196.905
L312.28 195.169
L313.175 194.726
L314.07 194.088
L314.964 193.635
L317.648 191.713
L319.437 190.586
L320.332 190.142
L323.015 188.34
L338.223 179.103
L340.907 177.636
L346.275 174.223
L357.904 167.38
L366.85 161.735
L367.745 160.879
L372.218 158.149
L373.112 157.693
L374.007 157.006
L376.691 155.354
L378.48 154.226
L382.953 151.447
L383.848 150.601
L384.742 150.162
L387.426 148.346
L389.215 147.269
L391.004 145.944
L393.688 144.103
L399.95 140.153
L400.845 139.346
L401.739 138.754
L404.423 137.295
L405.318 136.617
L407.107 135.609
L409.791 133.92
L412.474 132.461
L416.947 129.706
L417.842 129.253
L420.526 127.375
L425.893 124.082
L426.788 123.305
L430.366 120.786
L431.261 119.961
L432.155 119.473
L433.945 118.294
L435.734 117.262
L440.207 114.572
L442.89 113.079
L443.785 112.355
L445.574 111.359
L453.625 106.291
L455.415 104.984
L456.309 104.316
L458.098 103.276
L459.888 102.17
L461.677 101.253
L462.571 100.525
L467.044 97.737
L467.939 97.0103
L468.834 96.5126
L469.728 95.8501
L470.623 95.3494
L475.096 92.1215
L475.096 92.1215" style="fill:none;stroke:#000000;stroke-linecap:square;"/>
   </g>
   <g id="line2d_15">
    <path clip-path="url(#p2118423672)" d="
M28.6956 368.502
L29.5902 367.083
L31.3794 365.953
L33.1686 364.92
L37.6415 362.432
L38.5361 361.756
L44.7982 358.512
L46.5874 357.06
L52.8495 353.733
L58.2171 350.583
L59.1117 348.381
L61.7954 346.916
L67.163 344.011
L68.9521 342.928
L70.7413 341.989
L71.6359 341.335
L76.1089 338.973
L82.371 334.829
L84.1602 333.772
L85.9493 332.521
L87.7385 331.453
L98.4736 324.44
L102.947 321.501
L104.736 320.178
L106.525 319.123
L113.682 314.447
L115.471 313.368
L118.155 311.518
L119.049 310.796
L119.944 310.245
L120.838 309.44
L122.627 308.293
L123.522 307.413
L125.311 306.259
L128.89 303.849
L129.784 303.216
L130.679 302.746
L132.468 301.41
L136.941 298.554
L137.836 297.739
L140.519 296.09
L143.203 294.176
L145.887 292.515
L147.676 291.461
L149.465 290.148
L152.149 288.417
L153.938 287.124
L161.989 281.933
L164.673 280.288
L165.568 279.582
L166.462 278.644
L172.724 274.465
L173.619 273.993
L174.514 273.347
L178.092 271.201
L182.565 268.186
L188.827 264.057
L189.722 263.297
L192.405 261.462
L193.3 260.788
L195.984 259.244
L197.773 258.178
L202.246 255.177
L204.035 253.886
L204.93 253.278
L205.824 252.073
L207.613 250.941
L208.508 250.139
L227.294 237.535
L228.189 237.06
L229.084 236.173
L229.978 235.69
L234.451 232.387
L236.24 231.258
L238.029 230.049
L239.819 228.827
L244.292 225.808
L252.343 220.453
L253.238 219.618
L255.027 218.558
L256.816 217.378
L257.71 216.904
L259.5 215.71
L262.183 214.118
L263.078 213.234
L263.973 212.515
L265.762 211.317
L267.551 210.022
L272.918 206.495
L276.497 204.287
L279.181 202.63
L280.97 201.538
L283.654 199.532
L289.916 195.384
L291.705 194.157
L299.756 188.978
L300.651 188.503
L303.335 186.612
L316.753 177.944
L317.648 177.118
L325.699 171.895
L327.488 170.618
L329.278 169.504
L331.067 168.357
L331.961 167.599
L344.486 159.226
L345.38 158.506
L352.537 154.003
L353.431 153.354
L355.221 152.292
L356.115 151.699
L357.904 150.251
L359.694 149.005
L361.483 147.917
L363.272 146.618
L365.061 145.541
L367.745 143.712
L368.64 142.938
L372.218 140.569
L373.112 140.089
L376.691 137.487
L378.48 136.267
L379.375 135.676
L381.164 134.261
L382.953 133.041
L383.848 132.251
L390.11 128.074
L391.004 127.018
L391.899 126.34
L392.793 125.871
L394.583 124.462
L397.266 122.437
L399.95 120.628
L408.001 115.17
L411.58 112.787
L414.264 111.223
L419.631 107.641
L420.526 106.79
L425.893 103.354
L426.788 102.397
L429.472 100.45
L431.261 99.1145
L433.05 97.8694
L444.68 90.039
L445.574 89.2076
L450.047 86.4162
L451.836 84.9192
L456.309 81.8888
L458.098 80.8007
L458.993 80.1579
L459.888 79.364
L461.677 78.3667
L464.361 76.4599
L467.044 74.73
L468.834 73.2429
L470.623 72.0086
L471.517 71.2364
L473.306 70.0515
L475.096 68.6099
L475.096 68.6099" style="fill:none;stroke:#0000ff;stroke-linecap:square;"/>
   </g>
   <g id="line2d_16">
    <path clip-path="url(#p2118423672)" d="
M28.6956 368.676
L29.5902 367.493
L30.4848 366.335
L31.3794 365.82
L32.274 364.936
L34.9577 363.502
L42.1145 359.56
L43.0091 358.751
L51.9549 353.754
L59.1117 349.493
L61.7954 347.819
L62.69 347.101
L66.2684 344.987
L67.163 344.463
L68.0575 343.656
L69.8467 342.663
L71.6359 341.413
L72.5305 340.915
L73.4251 340.256
L75.2143 339.273
L76.1089 338.455
L78.7926 336.595
L79.6872 335.712
L80.5818 335.209
L87.7385 330.26
L88.6331 329.76
L89.5277 328.359
L90.4223 327.76
L91.3169 326.964
L94.8952 324.547
L95.7898 324.043
L97.579 322.235
L98.4736 321.704
L99.3682 320.944
L103.841 317.772
L104.736 317.034
L106.525 315.911
L110.103 313.257
L111.892 312.042
L112.787 311.034
L113.682 310.383
L114.576 309.882
L117.26 307.917
L118.155 307.42
L123.522 303.567
L125.311 302.409
L127.1 301.041
L132.468 297.077
L136.046 294.273
L139.625 291.76
L140.519 290.691
L141.414 290.179
L142.308 289.478
L143.203 288.626
L153.938 280.681
L154.833 279.926
L157.516 278.184
L158.411 277.303
L160.2 276.011
L161.095 275.221
L162.884 274.104
L164.673 272.663
L167.357 270.704
L168.252 269.909
L170.041 268.723
L173.619 266.038
L174.514 265.158
L178.987 262.134
L179.881 261.612
L182.565 259.579
L183.46 258.399
L184.354 257.754
L185.249 256.96
L191.511 252.651
L193.3 251.282
L195.984 249.593
L199.562 247.01
L202.246 245.126
L204.93 243.33
L205.824 242.533
L213.876 236.735
L215.665 235.105
L221.032 231.218
L221.927 230.684
L223.716 229.316
L227.294 226.842
L230.873 224.499
L231.767 223.642
L234.451 221.671
L235.346 221.17
L237.135 219.843
L238.924 218.569
L240.713 217.429
L245.186 213.752
L246.081 213.248
L247.87 211.874
L250.554 209.938
L252.343 208.821
L253.238 208.143
L254.132 207.635
L257.71 205.202
L261.289 202.776
L262.183 201.86
L266.656 198.709
L267.551 198.06
L269.34 196.395
L270.235 195.729
L271.129 194.801
L272.024 194.148
L272.918 193.639
L274.708 192.318
L279.181 189.193
L280.075 188.639
L281.864 187.243
L284.548 185.208
L285.443 184.526
L286.337 183.993
L287.232 183.281
L289.021 181.588
L291.705 179.47
L292.599 178.417
L294.389 177.28
L301.545 172.298
L302.44 171.636
L303.335 171.132
L304.229 170.49
L305.124 169.594
L307.807 167.714
L310.491 165.595
L315.859 161.767
L316.753 160.968
L322.121 157.028
L323.015 156.176
L328.383 152.484
L330.172 151.337
L333.751 148.428
L334.645 147.899
L336.434 146.464
L337.329 145.849
L338.223 144.981
L341.802 142.449
L343.591 140.81
L345.38 139.482
L351.642 135.235
L354.326 133.596
L356.115 132.031
L357.01 131.333
L358.799 130.193
L361.483 128.303
L363.272 126.771
L364.167 126.261
L366.85 124.355
L367.745 123.477
L371.323 120.932
L372.218 120.102
L373.112 119.584
L374.902 118.201
L377.585 116.271
L381.164 113.613
L386.531 109.913
L387.426 109.169
L394.583 104.265
L396.372 103.032
L398.161 101.074
L399.056 100.458
L399.95 99.6309
L400.845 98.9891
L402.634 97.4852
L407.107 94.4696
L408.001 93.1011
L411.58 90.518
L412.474 89.9996
L413.369 89.3182
L414.264 88.8107
L416.947 86.976
L419.631 85.0752
L421.42 83.5102
L422.315 82.7874
L423.209 82.2255
L424.999 80.6822
L425.893 80.1776
L427.682 78.5691
L429.472 77.316
L432.155 74.9551
L433.945 73.6191
L434.839 73.1185
L437.523 71.0291
L439.312 69.8965
L440.207 69.1579
L442.89 67.2828
L443.785 66.5649
L446.469 64.749
L450.047 62.3486
L453.625 59.802
L454.52 59.2905
L456.309 57.9921
L458.098 56.7222
L458.993 55.8029
L460.782 54.6812
L462.571 53.4045
L470.623 47.6191
L471.517 46.6969
L473.306 45.3391
L475.096 44.0831
L475.096 44.0831" style="fill:none;stroke:#008000;stroke-linecap:square;"/>
   </g>
   <g id="patch_3">
    <path d="
M28.6956 23.1417
L475.096 23.1417" style="fill:none;stroke:#000000;stroke-linecap:square;stroke-linejoin:miter;"/>
   </g>
   <g id="patch_4">
    <path d="
M475.096 368.742
L475.096 23.1417" style="fill:none;stroke:#000000;stroke-linecap:square;stroke-linejoin:miter;"/>
   </g>
   <g id="patch_5">
    <path d="
M28.6956 368.742
L475.096 368.742" style="fill:none;stroke:#000000;stroke-linecap:square;stroke-linejoin:miter;"/>
   </g>
   <g id="patch_6">
    <path d="
M28.6956 368.742
L28.6956 23.1417" style="fill:none;stroke:#000000;stroke-linecap:square;stroke-linejoin:miter;"/>
   </g>
   <g id="matplotlib.axis_1">
    <g id="xtick_1">
     <g id="line2d_17">
      <defs>
       <path d="
M0 0
L0 -4" id="m93b0483c22" style="stroke:#000000;stroke-width:0.5;"/>
      </defs>
      <g>
       <use style="stroke:#000000;stroke-width:0.5;" x="28.695625" xlink:href="#m93b0483c22" y="368.74175"/>
      </g>
     </g>
     <g id="line2d_18">
      <defs>
       <path d="
M0 0
L0 4" id="m741efc42ff" style="stroke:#000000;stroke-width:0.5;"/>
      </defs>
      <g>
       <use style="stroke:#000000;stroke-width:0.5;" x="28.695625" xlink:href="#m741efc42ff" y="23.14175"/>
      </g>
     </g>
     <g id="text_1">
      <!-- 0 -->
      <defs>
       <path d="
M31.7812 66.4062
Q24.1719 66.4062 20.3281 58.9062
Q16.5 51.4219 16.5 36.375
Q16.5 21.3906 20.3281 13.8906
Q24.1719 6.39062 31.7812 6.39062
Q39.4531 6.39062 43.2812 13.8906
Q47.125 21.3906 47.125 36.375
Q47.125 51.4219 43.2812 58.9062
Q39.4531 66.4062 31.7812 66.4062
M31.7812 74.2188
Q44.0469 74.2188 50.5156 64.5156
Q56.9844 54.8281 56.9844 36.375
Q56.9844 17.9688 50.5156 8.26562
Q44.0469 -1.42188 31.7812 -1.42188
Q19.5312 -1.42188 13.0625 8.26562
Q6.59375 17.9688 6.59375 36.375
Q6.59375 54.8281 13.0625 64.5156
Q19.5312 74.2188 31.7812 74.2188" id="DejaVuSans-30"/>
      </defs>
      <g transform="translate(25.6721875 381.859875)scale(0.12 -0.12)">
       <use xlink:href="#DejaVuSans-30"/>
      </g>
     </g>
    </g>
    <g id="xtick_2">
     <g id="line2d_19">
      <g>
       <use style="stroke:#000000;stroke-width:0.5;" x="118.154542836" xlink:href="#m93b0483c22" y="368.74175"/>
      </g>
     </g>
     <g id="line2d_20">
      <g>
       <use style="stroke:#000000;stroke-width:0.5;" x="118.154542836" xlink:href="#m741efc42ff" y="23.14175"/>
      </g>
     </g>
     <g id="text_2">
      <!-- 100 -->
      <defs>
       <path d="
M12.4062 8.29688
L28.5156 8.29688
L28.5156 63.9219
L10.9844 60.4062
L10.9844 69.3906
L28.4219 72.9062
L38.2812 72.9062
L38.2812 8.29688
L54.3906 8.29688
L54.3906 0
L12.4062 0
z
" id="DejaVuSans-31"/>
      </defs>
      <g transform="translate(107.759542836 381.859875)scale(0.12 -0.12)">
       <use xlink:href="#DejaVuSans-31"/>
       <use x="63.623046875" xlink:href="#DejaVuSans-30"/>
       <use x="127.24609375" xlink:href="#DejaVuSans-30"/>
      </g>
     </g>
    </g>
    <g id="xtick_3">
     <g id="line2d_21">
      <g>
       <use style="stroke:#000000;stroke-width:0.5;" x="207.613460671" xlink:href="#m93b0483c22" y="368.74175"/>
      </g>
     </g>
     <g id="line2d_22">
      <g>
       <use style="stroke:#000000;stroke-width:0.5;" x="207.613460671" xlink:href="#m741efc42ff" y="23.14175"/>
      </g>
     </g>
     <g id="text_3">
      <!-- 200 -->
      <defs>
       <path d="
M19.1875 8.29688
L53.6094 8.29688
L53.6094 0
L7.32812 0
L7.32812 8.29688
Q12.9375 14.1094 22.625 23.8906
Q32.3281 33.6875 34.8125 36.5312
Q39.5469 41.8438 41.4219 45.5312
Q43.3125 49.2188 43.3125 52.7812
Q43.3125 58.5938 39.2344 62.25
Q35.1562 65.9219 28.6094 65.9219
Q23.9688 65.9219 18.8125 64.3125
Q13.6719 62.7031 7.8125 59.4219
L7.8125 69.3906
Q13.7656 71.7812 18.9375 73
Q24.125 74.2188 28.4219 74.2188
Q39.75 74.2188 46.4844 68.5469
Q53.2188 62.8906 53.2188 53.4219
Q53.2188 48.9219 51.5312 44.8906
Q49.8594 40.875 45.4062 35.4062
Q44.1875 33.9844 37.6406 27.2188
Q31.1094 20.4531 19.1875 8.29688" id="DejaVuSans-32"/>
      </defs>
      <g transform="translate(196.999085671 381.859875)scale(0.12 -0.12)">
       <use xlink:href="#DejaVuSans-32"/>
       <use x="63.623046875" xlink:href="#DejaVuSans-30"/>
       <use x="127.24609375" xlink:href="#DejaVuSans-30"/>
      </g>
     </g>
    </g>
    <g id="xtick_4">
     <g id="line2d_23">
      <g>
       <use style="stroke:#000000;stroke-width:0.5;" x="297.072378507" xlink:href="#m93b0483c22" y="368.74175"/>
      </g>
     </g>
     <g id="line2d_24">
      <g>
       <use style="stroke:#000000;stroke-width:0.5;" x="297.072378507" xlink:href="#m741efc42ff" y="23.14175"/>
      </g>
     </g>
     <g id="text_4">
      <!-- 300 -->
      <defs>
       <path d="
M40.5781 39.3125
Q47.6562 37.7969 51.625 33
Q55.6094 28.2188 55.6094 21.1875
Q55.6094 10.4062 48.1875 4.48438
Q40.7656 -1.42188 27.0938 -1.42188
Q22.5156 -1.42188 17.6562 -0.515625
Q12.7969 0.390625 7.625 2.20312
L7.625 11.7188
Q11.7188 9.32812 16.5938 8.10938
Q21.4844 6.89062 26.8125 6.89062
Q36.0781 6.89062 40.9375 10.5469
Q45.7969 14.2031 45.7969 21.1875
Q45.7969 27.6406 41.2812 31.2656
Q36.7656 34.9062 28.7188 34.9062
L20.2188 34.9062
L20.2188 43.0156
L29.1094 43.0156
Q36.375 43.0156 40.2344 45.9219
Q44.0938 48.8281 44.0938 54.2969
Q44.0938 59.9062 40.1094 62.9062
Q36.1406 65.9219 28.7188 65.9219
Q24.6562 65.9219 20.0156 65.0312
Q15.375 64.1562 9.8125 62.3125
L9.8125 71.0938
Q15.4375 72.6562 20.3438 73.4375
Q25.25 74.2188 29.5938 74.2188
Q40.8281 74.2188 47.3594 69.1094
Q53.9062 64.0156 53.9062 55.3281
Q53.9062 49.2656 50.4375 45.0938
Q46.9688 40.9219 40.5781 39.3125" id="DejaVuSans-33"/>
      </defs>
      <g transform="translate(286.475816007 381.859875)scale(0.12 -0.12)">
       <use xlink:href="#DejaVuSans-33"/>
       <use x="63.623046875" xlink:href="#DejaVuSans-30"/>
       <use x="127.24609375" xlink:href="#DejaVuSans-30"/>
      </g>
     </g>
    </g>
    <g id="xtick_5">
     <g id="line2d_25">
      <g>
       <use style="stroke:#000000;stroke-width:0.5;" x="386.531296343" xlink:href="#m93b0483c22" y="368.74175"/>
      </g>
     </g>
     <g id="line2d_26">
      <g>
       <use style="stroke:#000000;stroke-width:0.5;" x="386.531296343" xlink:href="#m741efc42ff" y="23.14175"/>
      </g>
     </g>
     <g id="text_5">
      <!-- 400 -->
      <defs>
       <path d="
M37.7969 64.3125
L12.8906 25.3906
L37.7969 25.3906
z

M35.2031 72.9062
L47.6094 72.9062
L47.6094 25.3906
L58.0156 25.3906
L58.0156 17.1875
L47.6094 17.1875
L47.6094 0
L37.7969 0
L37.7969 17.1875
L4.89062 17.1875
L4.89062 26.7031
z
" id="DejaVuSans-34"/>
      </defs>
      <g transform="translate(375.770671343 381.859875)scale(0.12 -0.12)">
       <use xlink:href="#DejaVuSans-34"/>
       <use x="63.623046875" xlink:href="#DejaVuSans-30"/>
       <use x="127.24609375" xlink:href="#DejaVuSans-30"/>
      </g>
     </g>
    </g>
    <g id="text_6">
     <!-- time -->
     <defs>
      <path d="
M18.3125 70.2188
L18.3125 54.6875
L36.8125 54.6875
L36.8125 47.7031
L18.3125 47.7031
L18.3125 18.0156
Q18.3125 11.3281 20.1406 9.42188
Q21.9688 7.51562 27.5938 7.51562
L36.8125 7.51562
L36.8125 0
L27.5938 0
Q17.1875 0 13.2344 3.875
Q9.28125 7.76562 9.28125 18.0156
L9.28125 47.7031
L2.6875 47.7031
L2.6875 54.6875
L9.28125 54.6875
L9.28125 70.2188
z
" id="DejaVuSans-74"/>
      <path d="
M52 44.1875
Q55.375 50.25 60.0625 53.125
Q64.75 56 71.0938 56
Q79.6406 56 84.2812 50.0156
Q88.9219 44.0469 88.9219 33.0156
L88.9219 0
L79.8906 0
L79.8906 32.7188
Q79.8906 40.5781 77.0938 44.375
Q74.3125 48.1875 68.6094 48.1875
Q61.625 48.1875 57.5625 43.5469
Q53.5156 38.9219 53.5156 30.9062
L53.5156 0
L44.4844 0
L44.4844 32.7188
Q44.4844 40.625 41.7031 44.4062
Q38.9219 48.1875 33.1094 48.1875
Q26.2188 48.1875 22.1562 43.5312
Q18.1094 38.875 18.1094 30.9062
L18.1094 0
L9.07812 0
L9.07812 54.6875
L18.1094 54.6875
L18.1094 46.1875
Q21.1875 51.2188 25.4844 53.6094
Q29.7812 56 35.6875 56
Q41.6562 56 45.8281 52.9688
Q50 49.9531 52 44.1875" id="DejaVuSans-6d"/>
      <path d="
M56.2031 29.5938
L56.2031 25.2031
L14.8906 25.2031
Q15.4844 15.9219 20.4844 11.0625
Q25.4844 6.20312 34.4219 6.20312
Q39.5938 6.20312 44.4531 7.46875
Q49.3125 8.73438 54.1094 11.2812
L54.1094 2.78125
Q49.2656 0.734375 44.1875 -0.34375
Q39.1094 -1.42188 33.8906 -1.42188
Q20.7969 -1.42188 13.1562 6.1875
Q5.51562 13.8125 5.51562 26.8125
Q5.51562 40.2344 12.7656 48.1094
Q20.0156 56 32.3281 56
Q43.3594 56 49.7812 48.8906
Q56.2031 41.7969 56.2031 29.5938
M47.2188 32.2344
Q47.125 39.5938 43.0938 43.9844
Q39.0625 48.3906 32.4219 48.3906
Q24.9062 48.3906 20.3906 44.1406
Q15.875 39.8906 15.1875 32.1719
z
" id="DejaVuSans-65"/>
      <path d="
M9.42188 54.6875
L18.4062 54.6875
L18.4062 0
L9.42188 0
z

M9.42188 75.9844
L18.4062 75.9844
L18.4062 64.5938
L9.42188 64.5938
z
" id="DejaVuSans-69"/>
     </defs>
     <g transform="translate(238.82125 398.473625)scale(0.12 -0.12)">
      <use xlink:href="#DejaVuSans-74"/>
      <use x="39.208984375" xlink:href="#DejaVuSans-69"/>
      <use x="66.9921875" xlink:href="#DejaVuSans-6d"/>
      <use x="164.404296875" xlink:href="#DejaVuSans-65"/>
     </g>
    </g>
   </g>
   <g id="matplotlib.axis_2">
    <g id="ytick_1">
     <g id="line2d_27">
      <defs>
       <path d="
M0 0
L4 0" id="m728421d6d4" style="stroke:#000000;stroke-width:0.5;"/>
      </defs>
      <g>
       <use style="stroke:#000000;stroke-width:0.5;" x="28.695625" xlink:href="#m728421d6d4" y="368.74175"/>
      </g>
     </g>
     <g id="line2d_28">
      <defs>
       <path d="
M0 0
L-4 0" id="mcb0005524f" style="stroke:#000000;stroke-width:0.5;"/>
      </defs>
      <g>
       <use style="stroke:#000000;stroke-width:0.5;" x="475.095625" xlink:href="#mcb0005524f" y="368.74175"/>
      </g>
     </g>
     <g id="text_7">
      <!-- 0.0 -->
      <defs>
       <path d="
M10.6875 12.4062
L21 12.4062
L21 0
L10.6875 0
z
" id="DejaVuSans-2e"/>
      </defs>
      <g transform="translate(7.2 372.053)scale(0.12 -0.12)">
       <use xlink:href="#DejaVuSans-30"/>
       <use x="63.623046875" xlink:href="#DejaVuSans-2e"/>
       <use x="95.41015625" xlink:href="#DejaVuSans-30"/>
      </g>
     </g>
    </g>
    <g id="ytick_2">
     <g id="line2d_29">
      <g>
       <use style="stroke:#000000;stroke-width:0.5;" x="28.695625" xlink:href="#m728421d6d4" y="319.370321429"/>
      </g>
     </g>
     <g id="line2d_30">
      <g>
       <use style="stroke:#000000;stroke-width:0.5;" x="475.095625" xlink:href="#mcb0005524f" y="319.370321429"/>
      </g>
     </g>
     <g id="text_8">
      <!-- 0.5 -->
      <defs>
       <path d="
M10.7969 72.9062
L49.5156 72.9062
L49.5156 64.5938
L19.8281 64.5938
L19.8281 46.7344
Q21.9688 47.4688 24.1094 47.8281
Q26.2656 48.1875 28.4219 48.1875
Q40.625 48.1875 47.75 41.5
Q54.8906 34.8125 54.8906 23.3906
Q54.8906 11.625 47.5625 5.09375
Q40.2344 -1.42188 26.9062 -1.42188
Q22.3125 -1.42188 17.5469 -0.640625
Q12.7969 0.140625 7.71875 1.70312
L7.71875 11.625
Q12.1094 9.23438 16.7969 8.0625
Q21.4844 6.89062 26.7031 6.89062
Q35.1562 6.89062 40.0781 11.3281
Q45.0156 15.7656 45.0156 23.3906
Q45.0156 31 40.0781 35.4375
Q35.1562 39.8906 26.7031 39.8906
Q22.75 39.8906 18.8125 39.0156
Q14.8906 38.1406 10.7969 36.2812
z
" id="DejaVuSans-35"/>
      </defs>
      <g transform="translate(7.45125 322.681571429)scale(0.12 -0.12)">
       <use xlink:href="#DejaVuSans-30"/>
       <use x="63.623046875" xlink:href="#DejaVuSans-2e"/>
       <use x="95.41015625" xlink:href="#DejaVuSans-35"/>
      </g>
     </g>
    </g>
    <g id="ytick_3">
     <g id="line2d_31">
      <g>
       <use style="stroke:#000000;stroke-width:0.5;" x="28.695625" xlink:href="#m728421d6d4" y="269.998892857"/>
      </g>
     </g>
     <g id="line2d_32">
      <g>
       <use style="stroke:#000000;stroke-width:0.5;" x="475.095625" xlink:href="#mcb0005524f" y="269.998892857"/>
      </g>
     </g>
     <g id="text_9">
      <!-- 1.0 -->
      <g transform="translate(7.726875 273.310142857)scale(0.12 -0.12)">
       <use xlink:href="#DejaVuSans-31"/>
       <use x="63.623046875" xlink:href="#DejaVuSans-2e"/>
       <use x="95.41015625" xlink:href="#DejaVuSans-30"/>
      </g>
     </g>
    </g>
    <g id="ytick_4">
     <g id="line2d_33">
      <g>
       <use style="stroke:#000000;stroke-width:0.5;" x="28.695625" xlink:href="#m728421d6d4" y="220.627464286"/>
      </g>
     </g>
     <g id="line2d_34">
      <g>
       <use style="stroke:#000000;stroke-width:0.5;" x="475.095625" xlink:href="#mcb0005524f" y="220.627464286"/>
      </g>
     </g>
     <g id="text_10">
      <!-- 1.5 -->
      <g transform="translate(7.978125 223.938714286)scale(0.12 -0.12)">
       <use xlink:href="#DejaVuSans-31"/>
       <use x="63.623046875" xlink:href="#DejaVuSans-2e"/>
       <use x="95.41015625" xlink:href="#DejaVuSans-35"/>
      </g>
     </g>
    </g>
    <g id="ytick_5">
     <g id="line2d_35">
      <g>
       <use style="stroke:#000000;stroke-width:0.5;" x="28.695625" xlink:href="#m728421d6d4" y="171.256035714"/>
      </g>
     </g>
     <g id="line2d_36">
      <g>
       <use style="stroke:#000000;stroke-width:0.5;" x="475.095625" xlink:href="#mcb0005524f" y="171.256035714"/>
      </g>
     </g>
     <g id="text_11">
      <!-- 2.0 -->
      <g transform="translate(7.288125 174.567285714)scale(0.12 -0.12)">
       <use xlink:href="#DejaVuSans-32"/>
       <use x="63.623046875" xlink:href="#DejaVuSans-2e"/>
       <use x="95.41015625" xlink:href="#DejaVuSans-30"/>
      </g>
     </g>
    </g>
    <g id="ytick_6">
     <g id="line2d_37">
      <g>
       <use style="stroke:#000000;stroke-width:0.5;" x="28.695625" xlink:href="#m728421d6d4" y="121.884607143"/>
      </g>
     </g>
     <g id="line2d_38">
      <g>
       <use style="stroke:#000000;stroke-width:0.5;" x="475.095625" xlink:href="#mcb0005524f" y="121.884607143"/>
      </g>
     </g>
     <g id="text_12">
      <!-- 2.5 -->
      <g transform="translate(7.539375 125.195857143)scale(0.12 -0.12)">
       <use xlink:href="#DejaVuSans-32"/>
       <use x="63.623046875" xlink:href="#DejaVuSans-2e"/>
       <use x="95.41015625" xlink:href="#DejaVuSans-35"/>
      </g>
     </g>
    </g>
    <g id="ytick_7">
     <g id="line2d_39">
      <g>
       <use style="stroke:#000000;stroke-width:0.5;" x="28.695625" xlink:href="#m728421d6d4" y="72.5131785714"/>
      </g>
     </g>
     <g id="line2d_40">
      <g>
       <use style="stroke:#000000;stroke-width:0.5;" x="475.095625" xlink:href="#mcb0005524f" y="72.5131785714"/>
      </g>
     </g>
     <g id="text_13">
      <!-- 3.0 -->
      <g transform="translate(7.32375 75.8244285714)scale(0.12 -0.12)">
       <use xlink:href="#DejaVuSans-33"/>
       <use x="63.623046875" xlink:href="#DejaVuSans-2e"/>
       <use x="95.41015625" xlink:href="#DejaVuSans-30"/>
      </g>
     </g>
    </g>
    <g id="ytick_8">
     <g id="line2d_41">
      <g>
       <use style="stroke:#000000;stroke-width:0.5;" x="28.695625" xlink:href="#m728421d6d4" y="23.14175"/>
      </g>
     </g>
     <g id="line2d_42">
      <g>
       <use style="stroke:#000000;stroke-width:0.5;" x="475.095625" xlink:href="#mcb0005524f" y="23.14175"/>
      </g>
     </g>
     <g id="text_14">
      <!-- 3.5 -->
      <g transform="translate(7.575 26.453)scale(0.12 -0.12)">
       <use xlink:href="#DejaVuSans-33"/>
       <use x="63.623046875" xlink:href="#DejaVuSans-2e"/>
       <use x="95.41015625" xlink:href="#DejaVuSans-35"/>
      </g>
     </g>
    </g>
    <g id="text_15">
     <!-- 1e11 -->
     <g transform="translate(28.695625 20.14175)scale(0.12 -0.12)">
      <use xlink:href="#DejaVuSans-31"/>
      <use x="63.623046875" xlink:href="#DejaVuSans-65"/>
      <use x="125.146484375" xlink:href="#DejaVuSans-31"/>
      <use x="188.76953125" xlink:href="#DejaVuSans-31"/>
     </g>
    </g>
   </g>
   <g id="text_16">
    <!-- /agas/primary/time -->
    <defs>
     <path d="
M25.3906 72.9062
L33.6875 72.9062
L8.29688 -9.28125
L0 -9.28125
z
" id="DejaVuSans-2f"/>
     <path d="
M32.1719 -5.07812
Q28.375 -14.8438 24.75 -17.8125
Q21.1406 -20.7969 15.0938 -20.7969
L7.90625 -20.7969
L7.90625 -13.2812
L13.1875 -13.2812
Q16.8906 -13.2812 18.9375 -11.5156
Q21 -9.76562 23.4844 -3.21875
L25.0938 0.875
L2.98438 54.6875
L12.5 54.6875
L29.5938 11.9219
L46.6875 54.6875
L56.2031 54.6875
z
" id="DejaVuSans-79"/>
     <path d="
M45.4062 27.9844
Q45.4062 37.75 41.375 43.1094
Q37.3594 48.4844 30.0781 48.4844
Q22.8594 48.4844 18.8281 43.1094
Q14.7969 37.75 14.7969 27.9844
Q14.7969 18.2656 18.8281 12.8906
Q22.8594 7.51562 30.0781 7.51562
Q37.3594 7.51562 41.375 12.8906
Q45.4062 18.2656 45.4062 27.9844
M54.3906 6.78125
Q54.3906 -7.17188 48.1875 -13.9844
Q42 -20.7969 29.2031 -20.7969
Q24.4688 -20.7969 20.2656 -20.0938
Q16.0625 -19.3906 12.1094 -17.9219
L12.1094 -9.1875
Q16.0625 -11.3281 19.9219 -12.3438
Q23.7812 -13.375 27.7812 -13.375
Q36.625 -13.375 41.0156 -8.76562
Q45.4062 -4.15625 45.4062 5.17188
L45.4062 9.625
Q42.625 4.78125 38.2812 2.39062
Q33.9375 0 27.875 0
Q17.8281 0 11.6719 7.65625
Q5.51562 15.3281 5.51562 27.9844
Q5.51562 40.6719 11.6719 48.3281
Q17.8281 56 27.875 56
Q33.9375 56 38.2812 53.6094
Q42.625 51.2188 45.4062 46.3906
L45.4062 54.6875
L54.3906 54.6875
z
" id="DejaVuSans-67"/>
     <path d="
M34.2812 27.4844
Q23.3906 27.4844 19.1875 25
Q14.9844 22.5156 14.9844 16.5
Q14.9844 11.7188 18.1406 8.90625
Q21.2969 6.10938 26.7031 6.10938
Q34.1875 6.10938 38.7031 11.4062
Q43.2188 16.7031 43.2188 25.4844
L43.2188 27.4844
z

M52.2031 31.2031
L52.2031 0
L43.2188 0
L43.2188 8.29688
Q40.1406 3.32812 35.5469 0.953125
Q30.9531 -1.42188 24.3125 -1.42188
Q15.9219 -1.42188 10.9531 3.29688
Q6 8.01562 6 15.9219
Q6 25.1406 12.1719 29.8281
Q18.3594 34.5156 30.6094 34.5156
L43.2188 34.5156
L43.2188 35.4062
Q43.2188 41.6094 39.1406 45
Q35.0625 48.3906 27.6875 48.3906
Q23 48.3906 18.5469 47.2656
Q14.1094 46.1406 10.0156 43.8906
L10.0156 52.2031
Q14.9375 54.1094 19.5781 55.0469
Q24.2188 56 28.6094 56
Q40.4844 56 46.3438 49.8438
Q52.2031 43.7031 52.2031 31.2031" id="DejaVuSans-61"/>
     <path d="
M18.1094 8.20312
L18.1094 -20.7969
L9.07812 -20.7969
L9.07812 54.6875
L18.1094 54.6875
L18.1094 46.3906
Q20.9531 51.2656 25.2656 53.625
Q29.5938 56 35.5938 56
Q45.5625 56 51.7812 48.0938
Q58.0156 40.1875 58.0156 27.2969
Q58.0156 14.4062 51.7812 6.48438
Q45.5625 -1.42188 35.5938 -1.42188
Q29.5938 -1.42188 25.2656 0.953125
Q20.9531 3.32812 18.1094 8.20312
M48.6875 27.2969
Q48.6875 37.2031 44.6094 42.8438
Q40.5312 48.4844 33.4062 48.4844
Q26.2656 48.4844 22.1875 42.8438
Q18.1094 37.2031 18.1094 27.2969
Q18.1094 17.3906 22.1875 11.75
Q26.2656 6.10938 33.4062 6.10938
Q40.5312 6.10938 44.6094 11.75
Q48.6875 17.3906 48.6875 27.2969" id="DejaVuSans-70"/>
     <path d="
M44.2812 53.0781
L44.2812 44.5781
Q40.4844 46.5312 36.375 47.5
Q32.2812 48.4844 27.875 48.4844
Q21.1875 48.4844 17.8438 46.4375
Q14.5 44.3906 14.5 40.2812
Q14.5 37.1562 16.8906 35.375
Q19.2812 33.5938 26.5156 31.9844
L29.5938 31.2969
Q39.1562 29.25 43.1875 25.5156
Q47.2188 21.7812 47.2188 15.0938
Q47.2188 7.46875 41.1875 3.01562
Q35.1562 -1.42188 24.6094 -1.42188
Q20.2188 -1.42188 15.4531 -0.5625
Q10.6875 0.296875 5.42188 2
L5.42188 11.2812
Q10.4062 8.6875 15.2344 7.39062
Q20.0625 6.10938 24.8125 6.10938
Q31.1562 6.10938 34.5625 8.28125
Q37.9844 10.4531 37.9844 14.4062
Q37.9844 18.0625 35.5156 20.0156
Q33.0625 21.9688 24.7031 23.7812
L21.5781 24.5156
Q13.2344 26.2656 9.51562 29.9062
Q5.8125 33.5469 5.8125 39.8906
Q5.8125 47.6094 11.2812 51.7969
Q16.75 56 26.8125 56
Q31.7812 56 36.1719 55.2656
Q40.5781 54.5469 44.2812 53.0781" id="DejaVuSans-73"/>
     <path d="
M41.1094 46.2969
Q39.5938 47.1719 37.8125 47.5781
Q36.0312 48 33.8906 48
Q26.2656 48 22.1875 43.0469
Q18.1094 38.0938 18.1094 28.8125
L18.1094 0
L9.07812 0
L9.07812 54.6875
L18.1094 54.6875
L18.1094 46.1875
Q20.9531 51.1719 25.4844 53.5781
Q30.0312 56 36.5312 56
Q37.4531 56 38.5781 55.875
Q39.7031 55.7656 41.0625 55.5156
z
" id="DejaVuSans-72"/>
    </defs>
    <g transform="translate(183.412375 18.14175)scale(0.144 -0.144)">
     <use xlink:href="#DejaVuSans-2f"/>
     <use x="33.69140625" xlink:href="#DejaVuSans-61"/>
     <use x="94.970703125" xlink:href="#DejaVuSans-67"/>
     <use x="158.447265625" xlink:href="#DejaVuSans-61"/>
     <use x="219.7265625" xlink:href="#DejaVuSans-73"/>
     <use x="271.826171875" xlink:href="#DejaVuSans-2f"/>
     <use x="305.517578125" xlink:href="#DejaVuSans-70"/>
     <use x="368.994140625" xlink:href="#DejaVuSans-72"/>
     <use x="410.107421875" xlink:href="#DejaVuSans-69"/>
     <use x="437.890625" xlink:href="#DejaVuSans-6d"/>
     <use x="535.302734375" xlink:href="#DejaVuSans-61"/>
     <use x="596.58203125" xlink:href="#DejaVuSans-72"/>
     <use x="637.6953125" xlink:href="#DejaVuSans-79"/>
     <use x="696.875" xlink:href="#DejaVuSans-2f"/>
     <use x="730.56640625" xlink:href="#DejaVuSans-74"/>
     <use x="769.775390625" xlink:href="#DejaVuSans-69"/>
     <use x="797.55859375" xlink:href="#DejaVuSans-6d"/>
     <use x="894.970703125" xlink:href="#DejaVuSans-65"/>
    </g>
   </g>
   <g id="legend_1">
    <g id="patch_7">
     <path d="
M482.296 367.194
L614.085 367.194
L614.085 24.6897
L482.296 24.6897
z
" style="fill:#ffffff;stroke:#000000;stroke-linejoin:miter;"/>
    </g>
    <g id="line2d_43">
     <path d="
M492.376 36.3515
L512.536 36.3515" style="fill:none;stroke:#0000ff;stroke-linecap:square;"/>
    </g>
    <g id="line2d_44"/>
    <g id="text_17">
     <!-- locality#0 -->
     <defs>
      <path d="
M30.6094 48.3906
Q23.3906 48.3906 19.1875 42.75
Q14.9844 37.1094 14.9844 27.2969
Q14.9844 17.4844 19.1562 11.8438
Q23.3438 6.20312 30.6094 6.20312
Q37.7969 6.20312 41.9844 11.8594
Q46.1875 17.5312 46.1875 27.2969
Q46.1875 37.0156 41.9844 42.7031
Q37.7969 48.3906 30.6094 48.3906
M30.6094 56
Q42.3281 56 49.0156 48.375
Q55.7188 40.7656 55.7188 27.2969
Q55.7188 13.875 49.0156 6.21875
Q42.3281 -1.42188 30.6094 -1.42188
Q18.8438 -1.42188 12.1719 6.21875
Q5.51562 13.875 5.51562 27.2969
Q5.51562 40.7656 12.1719 48.375
Q18.8438 56 30.6094 56" id="DejaVuSans-6f"/>
      <path d="
M51.125 44
L36.9219 44
L32.8125 27.6875
L47.125 27.6875
z

M43.7969 71.7812
L38.7188 51.5156
L52.9844 51.5156
L58.1094 71.7812
L65.9219 71.7812
L60.8906 51.5156
L76.125 51.5156
L76.125 44
L58.9844 44
L54.9844 27.6875
L70.5156 27.6875
L70.5156 20.2188
L53.0781 20.2188
L48 0
L40.1875 0
L45.2188 20.2188
L30.9062 20.2188
L25.875 0
L18.0156 0
L23.0938 20.2188
L7.71875 20.2188
L7.71875 27.6875
L24.9062 27.6875
L29 44
L13.2812 44
L13.2812 51.5156
L30.9062 51.5156
L35.8906 71.7812
z
" id="DejaVuSans-23"/>
      <path d="
M9.42188 75.9844
L18.4062 75.9844
L18.4062 0
L9.42188 0
z
" id="DejaVuSans-6c"/>
      <path d="
M48.7812 52.5938
L48.7812 44.1875
Q44.9688 46.2969 41.1406 47.3438
Q37.3125 48.3906 33.4062 48.3906
Q24.6562 48.3906 19.8125 42.8438
Q14.9844 37.3125 14.9844 27.2969
Q14.9844 17.2812 19.8125 11.7344
Q24.6562 6.20312 33.4062 6.20312
Q37.3125 6.20312 41.1406 7.25
Q44.9688 8.29688 48.7812 10.4062
L48.7812 2.09375
Q45.0156 0.34375 40.9844 -0.53125
Q36.9688 -1.42188 32.4219 -1.42188
Q20.0625 -1.42188 12.7812 6.34375
Q5.51562 14.1094 5.51562 27.2969
Q5.51562 40.6719 12.8594 48.3281
Q20.2188 56 33.0156 56
Q37.1562 56 41.1094 55.1406
Q45.0625 54.2969 48.7812 52.5938" id="DejaVuSans-63"/>
     </defs>
     <g transform="translate(528.375625 41.3915)scale(0.144 -0.144)">
      <use xlink:href="#DejaVuSans-6c"/>
      <use x="27.783203125" xlink:href="#DejaVuSans-6f"/>
      <use x="88.96484375" xlink:href="#DejaVuSans-63"/>
      <use x="143.9453125" xlink:href="#DejaVuSans-61"/>
      <use x="205.224609375" xlink:href="#DejaVuSans-6c"/>
      <use x="233.0078125" xlink:href="#DejaVuSans-69"/>
      <use x="260.791015625" xlink:href="#DejaVuSans-74"/>
      <use x="300.0" xlink:href="#DejaVuSans-79"/>
      <use x="359.1796875" xlink:href="#DejaVuSans-23"/>
      <use x="442.96875" xlink:href="#DejaVuSans-30"/>
     </g>
    </g>
    <g id="line2d_45">
     <path d="
M492.376 57.488
L512.536 57.488" style="fill:none;stroke:#008000;stroke-linecap:square;"/>
    </g>
    <g id="line2d_46"/>
    <g id="text_18">
     <!-- locality#1 -->
     <g transform="translate(528.375625 62.528)scale(0.144 -0.144)">
      <use xlink:href="#DejaVuSans-6c"/>
      <use x="27.783203125" xlink:href="#DejaVuSans-6f"/>
      <use x="88.96484375" xlink:href="#DejaVuSans-63"/>
      <use x="143.9453125" xlink:href="#DejaVuSans-61"/>
      <use x="205.224609375" xlink:href="#DejaVuSans-6c"/>
      <use x="233.0078125" xlink:href="#DejaVuSans-69"/>
      <use x="260.791015625" xlink:href="#DejaVuSans-74"/>
      <use x="300.0" xlink:href="#DejaVuSans-79"/>
      <use x="359.1796875" xlink:href="#DejaVuSans-23"/>
      <use x="442.96875" xlink:href="#DejaVuSans-31"/>
     </g>
    </g>
    <g id="line2d_47">
     <path d="
M492.376 78.6245
L512.536 78.6245" style="fill:none;stroke:#ff0000;stroke-linecap:square;"/>
    </g>
    <g id="line2d_48"/>
    <g id="text_19">
     <!-- locality#10 -->
     <g transform="translate(528.375625 83.6645)scale(0.144 -0.144)">
      <use xlink:href="#DejaVuSans-6c"/>
      <use x="27.783203125" xlink:href="#DejaVuSans-6f"/>
      <use x="88.96484375" xlink:href="#DejaVuSans-63"/>
      <use x="143.9453125" xlink:href="#DejaVuSans-61"/>
      <use x="205.224609375" xlink:href="#DejaVuSans-6c"/>
      <use x="233.0078125" xlink:href="#DejaVuSans-69"/>
      <use x="260.791015625" xlink:href="#DejaVuSans-74"/>
      <use x="300.0" xlink:href="#DejaVuSans-79"/>
      <use x="359.1796875" xlink:href="#DejaVuSans-23"/>
      <use x="442.96875" xlink:href="#DejaVuSans-31"/>
      <use x="506.591796875" xlink:href="#DejaVuSans-30"/>
     </g>
    </g>
    <g id="line2d_49">
     <path d="
M492.376 99.761
L512.536 99.761" style="fill:none;stroke:#00bfbf;stroke-linecap:square;"/>
    </g>
    <g id="line2d_50"/>
    <g id="text_20">
     <!-- locality#11 -->
     <g transform="translate(528.375625 104.801)scale(0.144 -0.144)">
      <use xlink:href="#DejaVuSans-6c"/>
      <use x="27.783203125" xlink:href="#DejaVuSans-6f"/>
      <use x="88.96484375" xlink:href="#DejaVuSans-63"/>
      <use x="143.9453125" xlink:href="#DejaVuSans-61"/>
      <use x="205.224609375" xlink:href="#DejaVuSans-6c"/>
      <use x="233.0078125" xlink:href="#DejaVuSans-69"/>
      <use x="260.791015625" xlink:href="#DejaVuSans-74"/>
      <use x="300.0" xlink:href="#DejaVuSans-79"/>
      <use x="359.1796875" xlink:href="#DejaVuSans-23"/>
      <use x="442.96875" xlink:href="#DejaVuSans-31"/>
      <use x="506.591796875" xlink:href="#DejaVuSans-31"/>
     </g>
    </g>
    <g id="line2d_51">
     <path d="
M492.376 120.897
L512.536 120.897" style="fill:none;stroke:#bf00bf;stroke-linecap:square;"/>
    </g>
    <g id="line2d_52"/>
    <g id="text_21">
     <!-- locality#12 -->
     <g transform="translate(528.375625 125.9375)scale(0.144 -0.144)">
      <use xlink:href="#DejaVuSans-6c"/>
      <use x="27.783203125" xlink:href="#DejaVuSans-6f"/>
      <use x="88.96484375" xlink:href="#DejaVuSans-63"/>
      <use x="143.9453125" xlink:href="#DejaVuSans-61"/>
      <use x="205.224609375" xlink:href="#DejaVuSans-6c"/>
      <use x="233.0078125" xlink:href="#DejaVuSans-69"/>
      <use x="260.791015625" xlink:href="#DejaVuSans-74"/>
      <use x="300.0" xlink:href="#DejaVuSans-79"/>
      <use x="359.1796875" xlink:href="#DejaVuSans-23"/>
      <use x="442.96875" xlink:href="#DejaVuSans-31"/>
      <use x="506.591796875" xlink:href="#DejaVuSans-32"/>
     </g>
    </g>
    <g id="line2d_53">
     <path d="
M492.376 142.034
L512.536 142.034" style="fill:none;stroke:#bfbf00;stroke-linecap:square;"/>
    </g>
    <g id="line2d_54"/>
    <g id="text_22">
     <!-- locality#13 -->
     <g transform="translate(528.375625 147.074)scale(0.144 -0.144)">
      <use xlink:href="#DejaVuSans-6c"/>
      <use x="27.783203125" xlink:href="#DejaVuSans-6f"/>
      <use x="88.96484375" xlink:href="#DejaVuSans-63"/>
      <use x="143.9453125" xlink:href="#DejaVuSans-61"/>
      <use x="205.224609375" xlink:href="#DejaVuSans-6c"/>
      <use x="233.0078125" xlink:href="#DejaVuSans-69"/>
      <use x="260.791015625" xlink:href="#DejaVuSans-74"/>
      <use x="300.0" xlink:href="#DejaVuSans-79"/>
      <use x="359.1796875" xlink:href="#DejaVuSans-23"/>
      <use x="442.96875" xlink:href="#DejaVuSans-31"/>
      <use x="506.591796875" xlink:href="#DejaVuSans-33"/>
     </g>
    </g>
    <g id="line2d_55">
     <path d="
M492.376 163.17
L512.536 163.17" style="fill:none;stroke:#000000;stroke-linecap:square;"/>
    </g>
    <g id="line2d_56"/>
    <g id="text_23">
     <!-- locality#14 -->
     <g transform="translate(528.375625 168.2105)scale(0.144 -0.144)">
      <use xlink:href="#DejaVuSans-6c"/>
      <use x="27.783203125" xlink:href="#DejaVuSans-6f"/>
      <use x="88.96484375" xlink:href="#DejaVuSans-63"/>
      <use x="143.9453125" xlink:href="#DejaVuSans-61"/>
      <use x="205.224609375" xlink:href="#DejaVuSans-6c"/>
      <use x="233.0078125" xlink:href="#DejaVuSans-69"/>
      <use x="260.791015625" xlink:href="#DejaVuSans-74"/>
      <use x="300.0" xlink:href="#DejaVuSans-79"/>
      <use x="359.1796875" xlink:href="#DejaVuSans-23"/>
      <use x="442.96875" xlink:href="#DejaVuSans-31"/>
      <use x="506.591796875" xlink:href="#DejaVuSans-34"/>
     </g>
    </g>
    <g id="line2d_57">
     <path d="
M492.376 184.307
L512.536 184.307" style="fill:none;stroke:#0000ff;stroke-linecap:square;"/>
    </g>
    <g id="line2d_58"/>
    <g id="text_24">
     <!-- locality#15 -->
     <g transform="translate(528.375625 189.347)scale(0.144 -0.144)">
      <use xlink:href="#DejaVuSans-6c"/>
      <use x="27.783203125" xlink:href="#DejaVuSans-6f"/>
      <use x="88.96484375" xlink:href="#DejaVuSans-63"/>
      <use x="143.9453125" xlink:href="#DejaVuSans-61"/>
      <use x="205.224609375" xlink:href="#DejaVuSans-6c"/>
      <use x="233.0078125" xlink:href="#DejaVuSans-69"/>
      <use x="260.791015625" xlink:href="#DejaVuSans-74"/>
      <use x="300.0" xlink:href="#DejaVuSans-79"/>
      <use x="359.1796875" xlink:href="#DejaVuSans-23"/>
      <use x="442.96875" xlink:href="#DejaVuSans-31"/>
      <use x="506.591796875" xlink:href="#DejaVuSans-35"/>
     </g>
    </g>
    <g id="line2d_59">
     <path d="
M492.376 205.443
L512.536 205.443" style="fill:none;stroke:#008000;stroke-linecap:square;"/>
    </g>
    <g id="line2d_60"/>
    <g id="text_25">
     <!-- locality#2 -->
     <g transform="translate(528.375625 210.4835)scale(0.144 -0.144)">
      <use xlink:href="#DejaVuSans-6c"/>
      <use x="27.783203125" xlink:href="#DejaVuSans-6f"/>
      <use x="88.96484375" xlink:href="#DejaVuSans-63"/>
      <use x="143.9453125" xlink:href="#DejaVuSans-61"/>
      <use x="205.224609375" xlink:href="#DejaVuSans-6c"/>
      <use x="233.0078125" xlink:href="#DejaVuSans-69"/>
      <use x="260.791015625" xlink:href="#DejaVuSans-74"/>
      <use x="300.0" xlink:href="#DejaVuSans-79"/>
      <use x="359.1796875" xlink:href="#DejaVuSans-23"/>
      <use x="442.96875" xlink:href="#DejaVuSans-32"/>
     </g>
    </g>
    <g id="line2d_61">
     <path d="
M492.376 226.58
L512.536 226.58" style="fill:none;stroke:#ff0000;stroke-linecap:square;"/>
    </g>
    <g id="line2d_62"/>
    <g id="text_26">
     <!-- locality#3 -->
     <g transform="translate(528.375625 231.62)scale(0.144 -0.144)">
      <use xlink:href="#DejaVuSans-6c"/>
      <use x="27.783203125" xlink:href="#DejaVuSans-6f"/>
      <use x="88.96484375" xlink:href="#DejaVuSans-63"/>
      <use x="143.9453125" xlink:href="#DejaVuSans-61"/>
      <use x="205.224609375" xlink:href="#DejaVuSans-6c"/>
      <use x="233.0078125" xlink:href="#DejaVuSans-69"/>
      <use x="260.791015625" xlink:href="#DejaVuSans-74"/>
      <use x="300.0" xlink:href="#DejaVuSans-79"/>
      <use x="359.1796875" xlink:href="#DejaVuSans-23"/>
      <use x="442.96875" xlink:href="#DejaVuSans-33"/>
     </g>
    </g>
    <g id="line2d_63">
     <path d="
M492.376 247.716
L512.536 247.716" style="fill:none;stroke:#00bfbf;stroke-linecap:square;"/>
    </g>
    <g id="line2d_64"/>
    <g id="text_27">
     <!-- locality#4 -->
     <g transform="translate(528.375625 252.7565)scale(0.144 -0.144)">
      <use xlink:href="#DejaVuSans-6c"/>
      <use x="27.783203125" xlink:href="#DejaVuSans-6f"/>
      <use x="88.96484375" xlink:href="#DejaVuSans-63"/>
      <use x="143.9453125" xlink:href="#DejaVuSans-61"/>
      <use x="205.224609375" xlink:href="#DejaVuSans-6c"/>
      <use x="233.0078125" xlink:href="#DejaVuSans-69"/>
      <use x="260.791015625" xlink:href="#DejaVuSans-74"/>
      <use x="300.0" xlink:href="#DejaVuSans-79"/>
      <use x="359.1796875" xlink:href="#DejaVuSans-23"/>
      <use x="442.96875" xlink:href="#DejaVuSans-34"/>
     </g>
    </g>
    <g id="line2d_65">
     <path d="
M492.376 268.853
L512.536 268.853" style="fill:none;stroke:#bf00bf;stroke-linecap:square;"/>
    </g>
    <g id="line2d_66"/>
    <g id="text_28">
     <!-- locality#5 -->
     <g transform="translate(528.375625 273.893)scale(0.144 -0.144)">
      <use xlink:href="#DejaVuSans-6c"/>
      <use x="27.783203125" xlink:href="#DejaVuSans-6f"/>
      <use x="88.96484375" xlink:href="#DejaVuSans-63"/>
      <use x="143.9453125" xlink:href="#DejaVuSans-61"/>
      <use x="205.224609375" xlink:href="#DejaVuSans-6c"/>
      <use x="233.0078125" xlink:href="#DejaVuSans-69"/>
      <use x="260.791015625" xlink:href="#DejaVuSans-74"/>
      <use x="300.0" xlink:href="#DejaVuSans-79"/>
      <use x="359.1796875" xlink:href="#DejaVuSans-23"/>
      <use x="442.96875" xlink:href="#DejaVuSans-35"/>
     </g>
    </g>
    <g id="line2d_67">
     <path d="
M492.376 289.989
L512.536 289.989" style="fill:none;stroke:#bfbf00;stroke-linecap:square;"/>
    </g>
    <g id="line2d_68"/>
    <g id="text_29">
     <!-- locality#6 -->
     <defs>
      <path d="
M33.0156 40.375
Q26.375 40.375 22.4844 35.8281
Q18.6094 31.2969 18.6094 23.3906
Q18.6094 15.5312 22.4844 10.9531
Q26.375 6.39062 33.0156 6.39062
Q39.6562 6.39062 43.5312 10.9531
Q47.4062 15.5312 47.4062 23.3906
Q47.4062 31.2969 43.5312 35.8281
Q39.6562 40.375 33.0156 40.375
M52.5938 71.2969
L52.5938 62.3125
Q48.875 64.0625 45.0938 64.9844
Q41.3125 65.9219 37.5938 65.9219
Q27.8281 65.9219 22.6719 59.3281
Q17.5312 52.7344 16.7969 39.4062
Q19.6719 43.6562 24.0156 45.9219
Q28.375 48.1875 33.5938 48.1875
Q44.5781 48.1875 50.9531 41.5156
Q57.3281 34.8594 57.3281 23.3906
Q57.3281 12.1562 50.6875 5.35938
Q44.0469 -1.42188 33.0156 -1.42188
Q20.3594 -1.42188 13.6719 8.26562
Q6.98438 17.9688 6.98438 36.375
Q6.98438 53.6562 15.1875 63.9375
Q23.3906 74.2188 37.2031 74.2188
Q40.9219 74.2188 44.7031 73.4844
Q48.4844 72.75 52.5938 71.2969" id="DejaVuSans-36"/>
     </defs>
     <g transform="translate(528.375625 295.0295)scale(0.144 -0.144)">
      <use xlink:href="#DejaVuSans-6c"/>
      <use x="27.783203125" xlink:href="#DejaVuSans-6f"/>
      <use x="88.96484375" xlink:href="#DejaVuSans-63"/>
      <use x="143.9453125" xlink:href="#DejaVuSans-61"/>
      <use x="205.224609375" xlink:href="#DejaVuSans-6c"/>
      <use x="233.0078125" xlink:href="#DejaVuSans-69"/>
      <use x="260.791015625" xlink:href="#DejaVuSans-74"/>
      <use x="300.0" xlink:href="#DejaVuSans-79"/>
      <use x="359.1796875" xlink:href="#DejaVuSans-23"/>
      <use x="442.96875" xlink:href="#DejaVuSans-36"/>
     </g>
    </g>
    <g id="line2d_69">
     <path d="
M492.376 311.126
L512.536 311.126" style="fill:none;stroke:#000000;stroke-linecap:square;"/>
    </g>
    <g id="line2d_70"/>
    <g id="text_30">
     <!-- locality#7 -->
     <defs>
      <path d="
M8.20312 72.9062
L55.0781 72.9062
L55.0781 68.7031
L28.6094 0
L18.3125 0
L43.2188 64.5938
L8.20312 64.5938
z
" id="DejaVuSans-37"/>
     </defs>
     <g transform="translate(528.375625 316.166)scale(0.144 -0.144)">
      <use xlink:href="#DejaVuSans-6c"/>
      <use x="27.783203125" xlink:href="#DejaVuSans-6f"/>
      <use x="88.96484375" xlink:href="#DejaVuSans-63"/>
      <use x="143.9453125" xlink:href="#DejaVuSans-61"/>
      <use x="205.224609375" xlink:href="#DejaVuSans-6c"/>
      <use x="233.0078125" xlink:href="#DejaVuSans-69"/>
      <use x="260.791015625" xlink:href="#DejaVuSans-74"/>
      <use x="300.0" xlink:href="#DejaVuSans-79"/>
      <use x="359.1796875" xlink:href="#DejaVuSans-23"/>
      <use x="442.96875" xlink:href="#DejaVuSans-37"/>
     </g>
    </g>
    <g id="line2d_71">
     <path d="
M492.376 332.262
L512.536 332.262" style="fill:none;stroke:#0000ff;stroke-linecap:square;"/>
    </g>
    <g id="line2d_72"/>
    <g id="text_31">
     <!-- locality#8 -->
     <defs>
      <path d="
M31.7812 34.625
Q24.75 34.625 20.7188 30.8594
Q16.7031 27.0938 16.7031 20.5156
Q16.7031 13.9219 20.7188 10.1562
Q24.75 6.39062 31.7812 6.39062
Q38.8125 6.39062 42.8594 10.1719
Q46.9219 13.9688 46.9219 20.5156
Q46.9219 27.0938 42.8906 30.8594
Q38.875 34.625 31.7812 34.625
M21.9219 38.8125
Q15.5781 40.375 12.0312 44.7188
Q8.5 49.0781 8.5 55.3281
Q8.5 64.0625 14.7188 69.1406
Q20.9531 74.2188 31.7812 74.2188
Q42.6719 74.2188 48.875 69.1406
Q55.0781 64.0625 55.0781 55.3281
Q55.0781 49.0781 51.5312 44.7188
Q48 40.375 41.7031 38.8125
Q48.8281 37.1562 52.7969 32.3125
Q56.7812 27.4844 56.7812 20.5156
Q56.7812 9.90625 50.3125 4.23438
Q43.8438 -1.42188 31.7812 -1.42188
Q19.7344 -1.42188 13.25 4.23438
Q6.78125 9.90625 6.78125 20.5156
Q6.78125 27.4844 10.7812 32.3125
Q14.7969 37.1562 21.9219 38.8125
M18.3125 54.3906
Q18.3125 48.7344 21.8438 45.5625
Q25.3906 42.3906 31.7812 42.3906
Q38.1406 42.3906 41.7188 45.5625
Q45.3125 48.7344 45.3125 54.3906
Q45.3125 60.0625 41.7188 63.2344
Q38.1406 66.4062 31.7812 66.4062
Q25.3906 66.4062 21.8438 63.2344
Q18.3125 60.0625 18.3125 54.3906" id="DejaVuSans-38"/>
     </defs>
     <g transform="translate(528.375625 337.3025)scale(0.144 -0.144)">
      <use xlink:href="#DejaVuSans-6c"/>
      <use x="27.783203125" xlink:href="#DejaVuSans-6f"/>
      <use x="88.96484375" xlink:href="#DejaVuSans-63"/>
      <use x="143.9453125" xlink:href="#DejaVuSans-61"/>
      <use x="205.224609375" xlink:href="#DejaVuSans-6c"/>
      <use x="233.0078125" xlink:href="#DejaVuSans-69"/>
      <use x="260.791015625" xlink:href="#DejaVuSans-74"/>
      <use x="300.0" xlink:href="#DejaVuSans-79"/>
      <use x="359.1796875" xlink:href="#DejaVuSans-23"/>
      <use x="442.96875" xlink:href="#DejaVuSans-38"/>
     </g>
    </g>
    <g id="line2d_73">
     <path d="
M492.376 353.399
L512.536 353.399" style="fill:none;stroke:#008000;stroke-linecap:square;"/>
    </g>
    <g id="line2d_74"/>
    <g id="text_32">
     <!-- locality#9 -->
     <defs>
      <path d="
M10.9844 1.51562
L10.9844 10.5
Q14.7031 8.73438 18.5 7.8125
Q22.3125 6.89062 25.9844 6.89062
Q35.75 6.89062 40.8906 13.4531
Q46.0469 20.0156 46.7812 33.4062
Q43.9531 29.2031 39.5938 26.9531
Q35.25 24.7031 29.9844 24.7031
Q19.0469 24.7031 12.6719 31.3125
Q6.29688 37.9375 6.29688 49.4219
Q6.29688 60.6406 12.9375 67.4219
Q19.5781 74.2188 30.6094 74.2188
Q43.2656 74.2188 49.9219 64.5156
Q56.5938 54.8281 56.5938 36.375
Q56.5938 19.1406 48.4062 8.85938
Q40.2344 -1.42188 26.4219 -1.42188
Q22.7031 -1.42188 18.8906 -0.6875
Q15.0938 0.046875 10.9844 1.51562
M30.6094 32.4219
Q37.25 32.4219 41.125 36.9531
Q45.0156 41.5 45.0156 49.4219
Q45.0156 57.2812 41.125 61.8438
Q37.25 66.4062 30.6094 66.4062
Q23.9688 66.4062 20.0938 61.8438
Q16.2188 57.2812 16.2188 49.4219
Q16.2188 41.5 20.0938 36.9531
Q23.9688 32.4219 30.6094 32.4219" id="DejaVuSans-39"/>
     </defs>
     <g transform="translate(528.375625 358.439)scale(0.144 -0.144)">
      <use xlink:href="#DejaVuSans-6c"/>
      <use x="27.783203125" xlink:href="#DejaVuSans-6f"/>
      <use x="88.96484375" xlink:href="#DejaVuSans-63"/>
      <use x="143.9453125" xlink:href="#DejaVuSans-61"/>
      <use x="205.224609375" xlink:href="#DejaVuSans-6c"/>
      <use x="233.0078125" xlink:href="#DejaVuSans-69"/>
      <use x="260.791015625" xlink:href="#DejaVuSans-74"/>
      <use x="300.0" xlink:href="#DejaVuSans-79"/>
      <use x="359.1796875" xlink:href="#DejaVuSans-23"/>
      <use x="442.96875" xlink:href="#DejaVuSans-39"/>
     </g>
    </g>
   </g>
  </g>
 </g>
 <defs>
  <clipPath id="p2118423672">
   <rect height="345.6" width="446.4" x="28.695625" y="23.14175"/>
  </clipPath>
 </defs>
</svg>
