<?xml version="1.0" encoding="utf-8" standalone="no"?>
<!DOCTYPE svg PUBLIC "-//W3C//DTD SVG 1.1//EN"
  "http://www.w3.org/Graphics/SVG/1.1/DTD/svg11.dtd">
<!-- Created with matplotlib (http://matplotlib.org/) -->
<svg height="408pt" version="1.1" viewBox="0 0 610 408" width="610pt" xmlns="http://www.w3.org/2000/svg" xmlns:xlink="http://www.w3.org/1999/xlink">
 <defs>
  <style type="text/css">
*{stroke-linecap:butt;stroke-linejoin:round;}
  </style>
 </defs>
 <g id="figure_1">
  <g id="patch_1">
   <path d="
M0 408.169
L610.164 408.169
L610.164 0
L0 0
z
" style="fill:#ffffff;"/>
  </g>
  <g id="axes_1">
   <g id="patch_2">
    <path d="
M17.575 368.742
L463.975 368.742
L463.975 23.1417
L17.575 23.1417
z
" style="fill:#ffffff;"/>
   </g>
   <g id="line2d_1">
    <path clip-path="url(#pf51f381abf)" d="
M17.575 367.911
L28.3101 362.342
L52.464 347.702
L63.199 341.369
L65.8828 339.768
L68.5666 338.058
L72.1449 335.926
L107.929 313.486
L110.612 311.79
L117.769 307.239
L126.715 301.553
L129.399 299.894
L137.45 294.833
L149.974 286.928
L153.553 284.753
L164.288 278
L175.023 271.383
L182.179 266.925
L186.652 264.217
L198.282 256.934
L201.86 254.785
L207.228 251.363
L220.647 242.968
L227.803 238.386
L231.382 236.182
L259.114 218.829
L268.06 213.236
L270.744 211.594
L279.69 205.939
L307.422 188.516
L311 186.288
L313.684 184.625
L324.419 177.866
L327.997 175.711
L344.1 165.552
L347.678 163.274
L354.835 158.754
L357.519 157.072
L362.886 153.796
L367.359 150.943
L374.516 146.406
L389.724 136.832
L393.302 134.638
L398.67 131.333
L403.143 128.671
L405.827 127.017
L408.51 125.379
L423.718 115.674
L429.981 111.795
L443.399 103.497
L446.083 101.787
L449.662 99.5475
L452.345 97.9405
L456.818 95.0848
L458.607 93.9823
L460.397 92.913
L463.975 90.5698
L463.975 90.5698" style="fill:none;stroke:#0000ff;stroke-linecap:square;"/>
   </g>
   <g id="line2d_2">
    <path clip-path="url(#pf51f381abf)" d="
M17.575 368.605
L30.0992 363.804
L31.8884 363.036
L49.7802 355.985
L56.0423 353.579
L57.8315 352.812
L64.9882 349.884
L68.5666 348.275
L72.1449 346.726
L75.7233 345.068
L78.4071 343.869
L80.1962 343.106
L88.2475 339.444
L96.2988 335.8
L98.088 335.032
L105.245 331.72
L109.718 329.657
L111.507 328.868
L118.664 325.503
L120.453 324.723
L124.031 323.029
L130.293 320.312
L132.977 319.034
L141.028 315.314
L144.607 313.631
L148.185 312.083
L152.658 310.013
L160.709 306.226
L164.288 304.616
L168.761 302.697
L183.969 295.562
L186.652 294.433
L189.336 293.103
L192.914 291.472
L193.809 291.129
L195.598 290.235
L207.228 284.834
L216.174 280.613
L217.963 279.848
L219.752 279.063
L227.803 275.206
L229.593 274.438
L234.066 272.425
L235.855 271.645
L242.117 268.789
L243.906 268.013
L247.484 266.356
L249.274 265.587
L251.063 264.815
L252.852 263.987
L255.536 262.867
L260.903 260.211
L264.482 258.73
L288.636 247.503
L290.425 246.741
L294.003 245.115
L296.687 243.98
L299.371 242.697
L302.949 241.077
L304.738 240.297
L311 237.366
L312.789 236.581
L317.262 234.599
L357.519 216.429
L359.308 215.575
L361.097 214.808
L363.781 213.627
L368.254 211.439
L369.149 211.1
L370.938 210.204
L376.305 207.661
L379.884 206.004
L382.567 204.799
L385.251 203.612
L390.619 201.144
L393.302 199.992
L395.092 199.199
L400.459 196.722
L403.143 195.565
L405.827 194.321
L407.616 193.548
L411.194 191.823
L412.983 191.041
L427.297 184.38
L434.454 181.242
L449.662 174.525
L451.451 173.74
L458.607 170.435
L460.397 169.652
L463.975 167.96
L463.975 167.96" style="fill:none;stroke:#008000;stroke-linecap:square;"/>
   </g>
   <g id="line2d_3">
    <path clip-path="url(#pf51f381abf)" d="
M17.575 368.496
L18.4696 367.886
L19.3642 367.375
L23.8371 364.935
L30.9938 360.959
L39.0451 356.145
L46.2019 352.008
L56.0423 346.323
L57.8315 345.184
L59.6207 344.12
L61.4099 343.012
L64.9882 340.929
L66.7774 339.671
L68.5666 338.512
L115.98 306.913
L117.769 305.654
L124.031 301.377
L125.82 300.245
L129.399 297.876
L130.293 297.364
L132.977 295.48
L136.555 293.195
L142.817 288.844
L150.869 283.424
L152.658 282.263
L157.131 279.178
L158.026 278.666
L160.709 276.768
L164.288 274.418
L170.55 270.226
L176.812 265.945
L179.496 264.085
L182.179 262.115
L183.074 261.6
L184.863 260.42
L191.125 256.022
L193.809 254.36
L195.598 253.009
L198.282 251.108
L204.544 246.972
L217.963 237.653
L218.858 237.134
L222.436 234.596
L225.12 232.768
L233.171 227.257
L236.749 224.857
L243.906 220.185
L248.379 217.13
L251.063 215.389
L254.641 212.947
L256.43 211.756
L260.009 209.082
L262.692 207.272
L272.533 200.582
L275.217 198.689
L277.9 196.786
L285.057 191.474
L299.371 181.903
L302.949 179.492
L303.844 178.987
L308.316 175.83
L309.211 175.322
L311 174.016
L312.789 172.858
L317.262 169.991
L326.208 164.084
L328.892 162.207
L329.787 161.693
L335.154 157.744
L340.522 153.992
L344.995 150.824
L348.573 148.125
L349.468 147.546
L351.257 146.174
L352.151 145.517
L353.941 144.396
L354.835 143.737
L356.624 142.574
L360.203 140.089
L378.989 126.529
L382.567 123.836
L385.251 121.901
L390.619 117.805
L391.513 117.223
L392.408 116.47
L393.302 115.912
L394.197 115.21
L395.986 114.087
L401.354 110.542
L404.038 108.723
L404.932 108.214
L406.721 107.006
L411.194 103.892
L412.983 102.721
L442.505 82.0275
L443.399 81.5289
L445.189 80.2724
L446.978 79.1605
L448.767 77.9036
L450.556 76.9048
L454.135 74.4036
L455.924 73.2429
L456.818 72.5779
L459.502 70.9116
L463.975 67.6748
L463.975 67.6748" style="fill:none;stroke:#ff0000;stroke-linecap:square;"/>
   </g>
   <g id="line2d_4">
    <path clip-path="url(#pf51f381abf)" d="
M17.575 368.588
L18.4696 368.046
L19.3642 367.566
L23.8371 365.115
L26.5209 363.436
L34.5722 358.207
L38.1506 356.031
L41.7289 354.03
L56.0423 345.951
L57.8315 344.83
L64.0936 341.069
L64.9882 340.564
L66.7774 339.311
L67.672 338.818
L69.4612 337.656
L73.9341 334.667
L76.6179 332.957
L79.3017 331.31
L81.9854 329.513
L96.2988 320.003
L97.1934 319.506
L98.9826 318.327
L100.772 317.129
L106.139 313.329
L107.034 312.829
L108.823 311.57
L110.612 310.377
L159.815 276.758
L161.604 275.36
L162.498 274.846
L164.288 273.561
L169.655 269.995
L171.444 268.682
L175.917 265.605
L178.601 263.903
L183.074 260.819
L191.125 255.377
L193.809 253.653
L195.598 252.32
L203.65 246.806
L205.439 245.597
L207.228 244.301
L209.912 242.344
L211.701 241.22
L216.174 238.021
L217.068 237.512
L223.331 233.063
L225.12 231.89
L229.593 228.772
L231.382 227.457
L233.171 226.153
L234.066 225.435
L235.855 224.193
L238.539 222.322
L246.59 216.943
L248.379 215.645
L251.063 213.926
L252.852 212.657
L256.43 210.261
L260.903 207.106
L262.692 206.009
L265.376 204.268
L268.06 202.417
L270.744 200.542
L272.533 199.186
L300.265 178.768
L301.16 178.049
L303.844 176.303
L315.473 168.256
L317.262 167.079
L322.63 163.446
L324.419 162.292
L329.787 158.809
L332.47 156.828
L337.838 153.218
L339.627 152.054
L342.311 150.294
L346.784 147.399
L350.362 144.957
L352.151 143.628
L353.941 142.417
L358.413 139.143
L359.308 138.441
L361.097 137.283
L362.886 135.959
L365.57 133.939
L367.359 132.598
L368.254 131.877
L369.149 131.318
L372.727 128.487
L373.621 127.92
L375.411 126.494
L378.094 124.488
L387.935 117.926
L389.724 116.612
L392.408 114.738
L395.092 112.981
L398.67 110.49
L401.354 108.831
L402.248 108.146
L403.143 107.648
L404.038 106.984
L404.932 106.503
L413.878 100.331
L414.773 99.784
L420.14 95.8318
L423.718 93.498
L426.402 91.4348
L434.454 86.0933
L436.243 84.9064
L438.032 83.7121
L444.294 79.4913
L446.978 77.6335
L449.662 75.827
L450.556 75.2987
L454.135 72.5082
L455.924 71.3125
L456.818 70.6356
L457.713 70.1019
L458.607 69.422
L459.502 68.9273
L462.186 67.0058
L463.08 66.2746
L463.975 65.6999
L463.975 65.6999" style="fill:none;stroke:#00bfbf;stroke-linecap:square;"/>
   </g>
   <g id="line2d_5">
    <path clip-path="url(#pf51f381abf)" d="
M17.575 368.513
L22.0479 366.048
L31.8884 361.039
L56.9369 348.833
L64.9882 344.687
L67.672 343.144
L71.2504 341.031
L73.0395 340.038
L76.6179 337.896
L78.4071 336.906
L80.1962 335.918
L93.6151 327.97
L94.5097 327.538
L96.2988 326.408
L97.1934 325.981
L102.561 322.753
L104.35 321.76
L106.139 320.641
L107.034 320.199
L107.929 319.579
L111.507 317.537
L117.769 313.758
L124.031 309.989
L127.609 307.923
L131.188 305.839
L141.923 299.545
L179.496 277.41
L183.969 274.632
L184.863 274.179
L185.758 273.598
L186.652 273.153
L190.231 270.905
L193.809 268.938
L195.598 267.752
L209.017 259.599
L210.806 258.53
L212.595 257.41
L216.174 255.219
L218.858 253.784
L222.436 251.489
L227.803 248.186
L228.698 247.721
L231.382 246.004
L241.222 240.224
L243.906 238.651
L248.379 236.003
L251.063 234.518
L253.747 232.97
L260.903 228.718
L262.692 227.733
L265.376 226.243
L267.165 225.131
L268.955 224.159
L273.428 221.386
L281.479 216.525
L283.268 215.516
L291.319 210.649
L293.108 209.643
L296.687 207.572
L298.476 206.383
L305.633 202.137
L307.422 201.002
L311 198.861
L312.789 197.854
L316.368 195.849
L318.157 194.774
L320.841 193.257
L322.63 192.114
L324.419 191.105
L331.576 186.931
L342.311 180.65
L344.1 179.668
L344.995 179.227
L346.784 178.176
L351.257 175.539
L354.835 173.395
L356.624 172.371
L359.308 170.67
L361.992 169.193
L368.254 165.315
L369.149 164.869
L370.938 163.747
L380.778 157.818
L382.567 156.802
L387.935 153.719
L389.724 152.61
L392.408 151.048
L395.092 149.616
L398.67 147.497
L401.354 146.018
L402.248 145.395
L403.143 144.949
L405.827 143.346
L407.616 142.325
L410.3 140.659
L413.878 138.547
L414.773 138.103
L416.562 136.968
L421.035 134.215
L424.613 132.149
L428.191 130.032
L437.137 124.966
L439.821 123.335
L441.61 122.329
L453.24 115.445
L455.029 114.379
L458.607 112.237
L459.502 111.8
L463.975 108.911
L463.975 108.911" style="fill:none;stroke:#bf00bf;stroke-linecap:square;"/>
   </g>
   <g id="line2d_6">
    <path clip-path="url(#pf51f381abf)" d="
M17.575 368.573
L41.7289 356.11
L47.0964 353.454
L51.5694 351.203
L59.6207 346.986
L61.4099 346.014
L64.9882 344.219
L66.7774 343.086
L68.5666 342.064
L70.3558 341.067
L74.8287 338.348
L77.5125 336.902
L81.0908 334.792
L82.88 333.781
L86.4584 331.657
L89.1421 330.071
L91.8259 328.477
L101.666 322.594
L102.561 322.019
L103.456 321.596
L107.929 318.832
L111.507 316.775
L118.664 312.291
L120.453 311.261
L124.031 309.006
L126.715 307.443
L132.082 304.311
L133.872 303.247
L137.45 301.198
L140.134 299.644
L141.923 298.437
L143.712 297.294
L145.501 296.2
L155.342 290.382
L165.182 284.425
L168.761 282.325
L176.812 277.238
L179.496 275.582
L183.969 272.851
L186.652 271.402
L192.914 267.54
L193.809 267.086
L195.598 265.892
L203.65 261.089
L206.333 259.508
L208.122 258.358
L216.174 253.404
L218.858 251.957
L223.331 249.129
L225.12 248.07
L231.382 244.25
L233.171 243.2
L234.066 242.636
L234.96 242.205
L239.433 239.524
L243.906 236.935
L249.274 233.66
L251.063 232.659
L254.641 230.55
L256.43 229.547
L260.903 226.738
L264.482 224.817
L277.9 216.531
L280.584 214.876
L287.741 210.425
L292.214 207.906
L294.898 206.33
L296.687 205.33
L298.476 204.16
L305.633 199.965
L308.316 198.264
L309.211 197.822
L312.789 195.661
L320.841 191.109
L322.63 190.011
L323.524 189.569
L325.314 188.446
L330.681 185.34
L334.26 183.069
L353.941 171.62
L354.835 171.007
L356.624 169.987
L359.308 168.335
L361.097 167.328
L363.781 165.78
L366.465 164.044
L369.149 162.566
L370.938 161.424
L376.305 158.11
L378.094 157.04
L380.778 155.325
L382.567 154.346
L385.251 152.769
L390.619 149.565
L393.302 148.153
L395.986 146.617
L399.565 144.648
L402.248 143.101
L404.038 142.098
L406.721 140.622
L413.878 136.21
L414.773 135.757
L416.562 134.605
L421.929 131.375
L426.402 128.694
L438.927 121.474
L442.505 119.374
L444.294 118.387
L448.767 115.691
L450.556 114.812
L456.818 110.99
L457.713 110.548
L463.975 106.642
L463.975 106.642" style="fill:none;stroke:#bfbf00;stroke-linecap:square;"/>
   </g>
   <g id="line2d_7">
    <path clip-path="url(#pf51f381abf)" d="
M17.575 367.626
L21.1534 366.044
L49.7802 353.681
L56.0423 350.802
L57.8315 349.867
L64.0936 346.97
L65.8828 346.057
L68.5666 344.669
L70.3558 343.776
L74.8287 341.353
L77.5125 340.041
L81.0908 338.135
L82.88 337.214
L86.4584 335.287
L90.0367 333.378
L98.9826 328.559
L100.772 327.605
L105.245 325.187
L124.926 314.514
L132.082 310.733
L135.661 308.829
L139.239 306.954
L144.607 303.932
L148.185 302.116
L150.869 300.633
L153.553 299.245
L155.342 298.224
L161.604 294.801
L163.393 293.896
L169.655 290.728
L172.339 289.215
L173.234 288.812
L175.023 287.777
L181.285 284.405
L183.074 283.469
L185.758 282.022
L187.547 281.092
L199.177 274.651
L204.544 271.805
L209.912 268.848
L213.49 266.908
L216.174 265.465
L217.068 265.069
L218.858 264.138
L242.117 251.337
L243.906 250.438
L249.274 247.58
L251.063 246.673
L254.641 244.727
L256.43 243.771
L260.903 241.237
L263.587 239.927
L265.376 238.966
L268.06 237.541
L277.9 232.121
L280.584 230.64
L288.636 226.25
L290.425 225.333
L293.108 223.922
L299.371 220.605
L302.949 218.654
L304.738 217.731
L311 214.189
L312.789 213.234
L319.052 209.87
L322.63 207.823
L325.314 206.408
L330.681 203.627
L334.26 201.548
L344.1 196.482
L346.784 195.156
L350.362 193.257
L361.097 187.284
L363.781 185.792
L366.465 184.185
L369.149 182.837
L371.832 181.3
L378.094 177.917
L392.408 170.194
L395.092 168.89
L398.67 166.993
L399.565 166.585
L400.459 166.048
L403.143 164.74
L405.827 163.316
L407.616 162.395
L410.3 160.883
L413.878 158.968
L414.773 158.55
L417.456 157.015
L445.189 141.954
L446.978 141.036
L449.662 139.602
L451.451 138.658
L456.818 135.708
L459.502 134.386
L463.975 131.812
L463.975 131.812" style="fill:none;stroke:#000000;stroke-linecap:square;"/>
   </g>
   <g id="line2d_8">
    <path clip-path="url(#pf51f381abf)" d="
M17.575 368.637
L18.4696 368.162
L19.3642 367.793
L31.8884 363.007
L56.0423 353.625
L57.8315 352.854
L60.5153 351.743
L73.0395 346.31
L76.6179 344.659
L79.3017 343.531
L93.6151 337.061
L95.4043 336.291
L98.9826 334.702
L101.666 333.454
L106.139 331.356
L107.034 331.016
L108.823 330.134
L115.085 327.267
L121.347 324.326
L126.715 321.845
L130.293 320.308
L132.977 319.018
L142.817 314.549
L147.29 312.51
L149.08 311.737
L152.658 310.155
L168.761 302.891
L180.39 297.527
L183.969 295.908
L187.547 294.355
L192.914 291.855
L193.809 291.519
L196.493 290.214
L200.966 288.173
L202.755 287.381
L205.439 286.127
L208.122 284.868
L216.174 281.116
L218.858 280.027
L225.12 277.111
L254.641 263.829
L256.43 263.059
L260.903 260.889
L264.482 259.413
L294.003 245.755
L298.476 243.712
L304.738 240.892
L308.316 239.173
L310.106 238.387
L312.789 237.172
L319.052 234.384
L320.841 233.557
L325.314 231.53
L330.681 229.117
L334.26 227.387
L400.459 197.548
L403.143 196.457
L405.827 195.229
L407.616 194.442
L411.194 192.682
L412.983 191.883
L422.824 187.204
L424.613 186.414
L429.086 184.371
L431.77 183.24
L436.243 181.225
L438.927 180.009
L442.505 178.333
L444.294 177.551
L448.767 175.447
L450.556 174.74
L454.135 172.908
L455.924 172.098
L458.607 170.835
L460.397 169.983
L463.975 168.201
L463.975 168.201" style="fill:none;stroke:#0000ff;stroke-linecap:square;"/>
   </g>
   <g id="line2d_9">
    <path clip-path="url(#pf51f381abf)" d="
M17.575 368.624
L20.2588 367.554
L41.7289 359.673
L58.7261 353.554
L73.0395 347.947
L76.6179 346.387
L79.3017 345.345
L96.2988 338.212
L98.088 337.494
L104.35 334.884
L110.612 332.237
L115.98 329.987
L117.769 329.143
L129.399 324.221
L131.188 323.476
L139.239 320.115
L150.869 315.077
L153.553 313.985
L157.131 312.43
L158.92 311.706
L169.655 307.285
L172.339 306.074
L174.128 305.301
L187.547 299.583
L190.231 298.348
L208.122 290.774
L216.174 287.298
L218.858 286.269
L225.12 283.517
L233.171 280.084
L235.855 278.944
L240.328 276.97
L256.43 270.311
L260.903 268.282
L263.587 267.254
L266.271 266.149
L268.06 265.425
L272.533 263.524
L275.217 262.366
L277.006 261.61
L281.479 259.571
L284.163 258.425
L287.741 256.731
L290.425 255.656
L294.003 254.121
L296.687 253.023
L298.476 252.167
L307.422 248.185
L311 246.557
L313.684 245.442
L320.841 242.511
L324.419 240.994
L328.892 239.168
L330.681 238.449
L334.26 236.862
L348.573 231.096
L350.362 230.399
L354.835 228.492
L356.624 227.776
L359.308 226.594
L361.097 225.878
L363.781 224.753
L368.254 222.783
L369.149 222.47
L372.727 220.848
L374.516 220.083
L378.989 218.194
L396.881 210.753
L401.354 208.958
L404.038 207.812
L406.721 206.783
L422.824 199.814
L424.613 199.076
L429.086 197.156
L434.454 195.005
L439.821 192.792
L441.61 192.084
L445.189 190.578
L446.978 189.859
L449.662 188.738
L451.451 188.018
L456.818 185.728
L459.502 184.691
L463.975 182.664
L463.975 182.664" style="fill:none;stroke:#008000;stroke-linecap:square;"/>
   </g>
   <g id="line2d_10">
    <path clip-path="url(#pf51f381abf)" d="
M17.575 368.57
L32.783 362.754
L44.4127 358.382
L64.9882 350.229
L66.7774 349.343
L69.4612 348.189
L96.2988 335.784
L98.088 334.984
L101.666 333.28
L106.139 331.141
L107.034 330.787
L108.823 329.911
L114.191 327.422
L164.288 303.658
L168.761 301.659
L181.285 295.685
L183.969 294.433
L187.547 292.838
L192.914 290.265
L193.809 289.906
L196.493 288.553
L200.071 286.85
L217.963 277.996
L218.858 277.643
L221.541 276.257
L231.382 271.561
L244.801 265.383
L247.484 264.147
L277.9 250.111
L281.479 248.354
L284.163 247.12
L287.741 245.379
L290.425 244.224
L293.108 242.997
L297.581 240.904
L302.949 238.339
L304.738 237.526
L308.316 235.709
L310.106 234.894
L312.789 233.606
L321.735 229.435
L324.419 228.219
L332.47 224.546
L335.154 223.253
L341.416 220.471
L344.1 219.251
L346.784 218.08
L351.257 215.96
L359.308 212.088
L361.992 210.936
L364.676 209.548
L371.832 206.101
L374.516 204.805
L377.2 203.581
L380.778 201.875
L382.567 201.059
L387.935 198.529
L390.619 197.177
L393.302 196.01
L398.67 193.515
L401.354 192.382
L404.038 191.152
L406.721 190.021
L411.194 187.822
L412.983 186.96
L420.14 183.446
L425.508 180.906
L428.191 179.667
L460.397 165.038
L463.975 163.252
L463.975 163.252" style="fill:none;stroke:#ff0000;stroke-linecap:square;"/>
   </g>
   <g id="line2d_11">
    <path clip-path="url(#pf51f381abf)" d="
M17.575 368.601
L22.9425 366.332
L47.0964 356.515
L53.3586 353.867
L56.0423 352.759
L57.8315 351.909
L61.4099 350.335
L67.672 347.527
L71.2504 345.771
L73.0395 344.961
L76.6179 343.209
L79.3017 341.988
L89.1421 337.155
L93.6151 334.94
L95.4043 334.106
L98.9826 332.384
L101.666 331.033
L106.139 328.8
L107.034 328.429
L108.823 327.475
L112.401 325.721
L115.98 323.963
L117.769 322.987
L127.609 318.059
L131.188 316.313
L135.661 314.109
L139.239 312.412
L147.29 308.303
L149.08 307.475
L151.763 306.176
L154.447 304.82
L158.92 302.623
L171.444 296.586
L175.917 294.365
L178.601 293.078
L183.969 290.406
L186.652 289.185
L192.914 285.982
L193.809 285.613
L197.387 283.719
L217.963 273.497
L219.752 272.654
L234.066 265.401
L235.855 264.556
L239.433 262.773
L246.59 259.342
L249.274 258.054
L251.063 257.199
L260.903 252.086
L263.587 250.801
L265.376 249.916
L267.165 248.91
L269.849 247.696
L277.006 244.08
L281.479 241.778
L284.163 240.478
L286.846 239.112
L294.898 235.232
L296.687 234.391
L299.371 232.984
L302.054 231.692
L318.157 223.792
L326.208 220.05
L337.838 214.354
L339.627 213.512
L342.311 212.219
L344.995 211.014
L348.573 209.248
L350.362 208.425
L359.308 203.936
L360.203 203.58
L362.886 202.248
L365.57 200.924
L368.254 199.528
L369.149 199.155
L371.832 197.768
L376.305 195.56
L381.673 192.867
L383.462 191.931
L392.408 187.471
L396.881 185.422
L407.616 180.226
L411.194 178.351
L414.773 176.586
L416.562 175.618
L429.086 169.408
L431.77 168.173
L435.348 166.423
L438.927 164.655
L442.505 162.852
L444.294 161.992
L448.767 159.629
L451.451 158.376
L454.135 156.911
L455.924 156.036
L458.607 154.665
L460.397 153.818
L463.975 151.959
L463.975 151.959" style="fill:none;stroke:#00bfbf;stroke-linecap:square;"/>
   </g>
   <g id="line2d_12">
    <path clip-path="url(#pf51f381abf)" d="
M17.575 368.628
L25.6263 364.817
L40.8343 357.753
L55.1477 351.364
L59.6207 349.237
L61.4099 348.358
L65.8828 346.245
L71.2504 343.354
L73.0395 342.433
L76.6179 340.523
L78.4071 339.603
L81.9854 337.748
L88.2475 334.38
L101.666 327.237
L102.561 326.701
L104.35 325.793
L106.139 324.796
L107.034 324.404
L108.823 323.406
L118.664 318.066
L120.453 317.137
L124.031 315.168
L126.715 313.776
L132.082 310.967
L134.766 309.573
L140.134 306.747
L144.607 304.201
L148.185 302.36
L150.869 300.883
L153.553 299.5
L157.131 297.453
L158.026 297.05
L160.709 295.55
L162.498 294.612
L165.182 293.217
L166.971 292.318
L183.074 283.48
L183.969 282.933
L186.652 281.61
L190.231 279.586
L195.598 276.76
L198.282 275.261
L202.755 272.958
L217.963 264.74
L219.752 263.84
L226.014 260.355
L227.803 259.313
L229.593 258.391
L234.066 255.914
L235.855 255.01
L240.328 252.647
L247.484 248.919
L249.274 248.018
L251.063 247.117
L254.641 245.17
L256.43 244.226
L260.009 242.162
L262.692 240.764
L269.849 237.049
L288.636 226.779
L290.425 225.874
L294.003 224.03
L296.687 222.65
L298.476 221.603
L302.949 219.192
L304.738 218.25
L313.684 213.292
L333.365 202.753
L336.049 201.267
L337.838 200.343
L339.627 199.373
L342.311 197.89
L343.205 197.47
L344.995 196.466
L348.573 194.596
L350.362 193.657
L352.151 192.658
L353.941 191.775
L359.308 188.829
L361.992 187.442
L366.465 184.83
L386.146 174.307
L390.619 171.839
L393.302 170.513
L400.459 166.667
L403.143 165.368
L405.827 163.944
L406.721 163.555
L411.194 161.011
L412.983 160.07
L421.035 155.719
L424.613 153.817
L429.086 151.395
L433.559 149.021
L438.927 146.119
L442.505 144.179
L444.294 143.245
L449.662 140.411
L451.451 139.485
L458.607 135.593
L460.397 134.63
L463.975 132.552
L463.975 132.552" style="fill:none;stroke:#bf00bf;stroke-linecap:square;"/>
   </g>
   <g id="line2d_13">
    <path clip-path="url(#pf51f381abf)" d="
M17.575 367.959
L34.5722 359.353
L47.0964 353.453
L59.6207 347.45
L61.4099 346.534
L65.8828 344.351
L71.2504 341.449
L73.0395 340.497
L75.7233 339.053
L78.4071 337.606
L81.9854 335.634
L87.353 332.665
L96.2988 327.701
L98.088 326.748
L101.666 324.785
L102.561 324.229
L104.35 323.304
L109.718 320.263
L113.296 318.368
L135.661 305.871
L139.239 303.912
L147.29 299.365
L149.08 298.404
L157.131 293.861
L158.026 293.461
L161.604 291.389
L164.288 289.956
L170.55 286.513
L202.755 268.799
L205.439 267.221
L209.017 265.133
L217.963 260.184
L219.752 259.229
L223.331 257.099
L225.12 256.14
L248.379 243.329
L251.063 241.96
L254.641 239.953
L256.43 239.033
L260.009 236.943
L263.587 235.04
L265.376 234.115
L267.165 233.074
L268.955 232.16
L272.533 230.073
L274.322 229.028
L277.006 227.558
L281.479 224.888
L284.163 223.396
L285.952 222.331
L288.636 220.851
L290.425 219.87
L294.003 217.849
L296.687 216.376
L298.476 215.201
L305.633 210.989
L308.316 209.298
L310.106 208.368
L313.684 206.432
L319.052 203.517
L320.841 202.512
L324.419 200.506
L330.681 197.171
L332.47 196.102
L336.943 193.625
L339.627 192.297
L341.416 191.334
L344.1 189.871
L345.889 188.953
L350.362 186.537
L354.835 184.023
L356.624 183.04
L359.308 181.39
L361.992 179.963
L364.676 178.355
L371.832 174.329
L380.778 169.088
L381.673 168.648
L383.462 167.545
L398.67 158.577
L400.459 157.56
L403.143 156.074
L404.038 155.511
L406.721 154.15
L422.824 145.059
L424.613 144.118
L428.191 142.144
L443.399 133.996
L448.767 130.983
L451.451 129.595
L456.818 126.491
L459.502 125.076
L463.975 122.281
L463.975 122.281" style="fill:none;stroke:#bfbf00;stroke-linecap:square;"/>
   </g>
   <g id="line2d_14">
    <path clip-path="url(#pf51f381abf)" d="
M17.575 368.511
L19.3642 367.509
L25.6263 363.97
L28.3101 362.276
L34.5722 358.403
L39.0451 355.77
L44.4127 352.783
L48.8856 350.231
L58.7261 344.703
L69.4612 338.214
L74.8287 334.629
L75.7233 334.142
L78.4071 332.384
L80.1962 331.305
L81.9854 330.171
L93.6151 322.317
L95.4043 321.194
L98.088 319.479
L100.772 317.748
L102.561 316.473
L104.35 315.344
L112.401 309.8
L115.085 307.975
L120.453 304.362
L124.031 301.852
L125.82 300.725
L127.609 299.484
L130.293 297.789
L132.977 295.881
L140.134 291.257
L141.923 290.006
L149.08 285.339
L150.869 284.116
L153.553 282.347
L157.131 279.868
L158.026 279.366
L159.815 278.116
L163.393 275.723
L171.444 270.354
L172.339 269.706
L173.234 269.2
L175.023 267.887
L185.758 260.685
L187.547 259.568
L192.914 255.943
L193.809 255.436
L196.493 253.448
L198.282 252.191
L201.86 249.916
L212.595 242.542
L217.068 239.457
L227.803 231.987
L228.698 231.503
L231.382 229.628
L235.855 226.681
L239.433 224.34
L243.906 221.466
L247.484 219.091
L249.274 217.978
L250.168 217.479
L254.641 214.42
L256.43 213.265
L259.114 211.364
L262.692 209.054
L266.271 206.676
L268.06 205.538
L272.533 202.511
L275.217 200.656
L277.9 198.777
L281.479 196.341
L283.268 195.226
L288.636 191.528
L290.425 190.409
L293.108 188.618
L296.687 186.288
L298.476 184.922
L302.949 181.787
L304.738 180.615
L308.316 178.099
L310.106 176.949
L311 176.3
L312.789 175.191
L355.73 146.915
L359.308 144.313
L360.203 143.828
L368.254 138.192
L369.149 137.664
L371.832 135.656
L372.727 134.973
L373.621 134.455
L375.411 133.137
L380.778 129.25
L382.567 128.021
L385.251 126.131
L387.04 124.829
L387.935 124.232
L390.619 122.1
L391.513 121.571
L394.197 119.631
L395.092 119.081
L397.775 117.119
L400.459 115.176
L401.354 114.628
L404.038 112.615
L404.932 112.054
L405.827 111.32
L406.721 110.767
L421.929 98.921
L427.297 95.3099
L444.294 84.07
L446.083 82.8777
L460.397 73.5273
L463.975 70.9427
L463.975 70.9427" style="fill:none;stroke:#000000;stroke-linecap:square;"/>
   </g>
   <g id="line2d_15">
    <path clip-path="url(#pf51f381abf)" d="
M17.575 367.809
L23.8371 364.022
L25.6263 362.974
L29.2047 360.963
L47.0964 350.939
L49.7802 349.353
L56.0423 345.703
L57.8315 344.534
L59.6207 343.494
L61.4099 342.384
L65.8828 339.674
L68.5666 337.846
L73.0395 334.883
L74.8287 333.552
L77.5125 331.878
L105.245 313.091
L129.399 296.409
L130.293 295.889
L132.082 294.559
L135.661 292.19
L138.345 290.385
L140.134 289.168
L144.607 285.818
L149.08 282.718
L150.869 281.485
L153.553 279.739
L161.604 274.073
L162.498 273.571
L164.288 272.334
L171.444 267.522
L175.023 265.053
L181.285 260.767
L183.969 258.979
L184.863 258.451
L185.758 257.767
L186.652 257.262
L191.125 254.154
L193.809 252.446
L195.598 251.132
L206.333 243.681
L209.017 241.697
L216.174 236.679
L217.068 236.17
L217.963 235.485
L218.858 234.982
L230.487 226.732
L247.484 215.067
L249.274 213.932
L251.063 212.806
L254.641 210.348
L255.536 209.846
L260.903 206.087
L264.482 203.838
L287.741 187.665
L290.425 185.931
L293.108 184.138
L305.633 175.605
L307.422 174.264
L309.211 173.055
L313.684 169.899
L320.841 165.137
L322.63 163.809
L323.524 163.3
L325.314 162.044
L330.681 158.39
L333.365 156.371
L336.943 153.901
L338.733 152.878
L342.311 150.348
L344.995 148.668
L345.889 147.94
L349.468 145.64
L354.835 141.795
L356.624 140.655
L358.413 139.227
L361.097 137.336
L363.781 135.492
L368.254 132.21
L369.149 131.666
L370.938 130.318
L376.305 126.5
L378.094 125.319
L380.778 123.313
L381.673 122.802
L386.146 119.718
L389.724 117.274
L392.408 115.471
L395.092 113.77
L398.67 111.307
L399.565 110.788
L402.248 108.92
L403.143 108.341
L404.038 107.623
L407.616 105.231
L411.194 102.683
L412.983 101.511
L421.035 95.8812
L424.613 93.4363
L427.297 91.5473
L437.137 85.0743
L439.821 83.1443
L440.716 82.6353
L442.505 81.3309
L443.399 80.8209
L445.189 79.5027
L446.978 78.2847
L449.662 76.3582
L450.556 75.8161
L454.135 73.1407
L455.924 71.9686
L458.607 70.1626
L460.397 68.9273
L463.975 66.2578
L463.975 66.2578" style="fill:none;stroke:#0000ff;stroke-linecap:square;"/>
   </g>
   <g id="line2d_16">
    <path clip-path="url(#pf51f381abf)" d="
M17.575 368.631
L20.2588 367.013
L23.8371 365.045
L33.6776 359.684
L38.1506 357.217
L42.6235 354.332
L56.0423 345.518
L56.9369 344.797
L59.6207 343.038
L62.3045 341.171
L64.9882 339.436
L68.5666 336.77
L70.3558 335.512
L76.6179 330.818
L77.5125 330.244
L80.1962 328.196
L83.7746 325.562
L84.6692 324.995
L88.2475 322.228
L100.772 312.852
L102.561 311.384
L103.456 310.821
L106.139 308.662
L107.034 308.11
L109.718 306.041
L111.507 304.737
L118.664 299.222
L120.453 297.895
L124.926 294.341
L132.082 288.927
L135.661 286.198
L138.345 284.209
L140.134 282.863
L142.817 280.78
L144.607 279.381
L146.396 278.129
L147.29 277.401
L148.185 276.833
L150.869 274.777
L153.553 272.776
L157.131 269.986
L158.026 269.417
L161.604 266.591
L162.498 265.971
L164.288 264.553
L167.866 262.007
L169.655 260.757
L175.917 255.882
L178.601 253.879
L183.969 249.661
L184.863 249.105
L187.547 247.145
L216.174 225.293
L217.068 224.73
L217.963 224.005
L219.752 222.744
L223.331 219.887
L225.12 218.59
L249.274 200.108
L251.063 198.785
L252.852 197.403
L256.43 194.789
L260.903 191.236
L262.692 190.009
L270.744 183.77
L275.217 180.116
L277.006 178.648
L282.373 174.216
L296.687 163.53
L298.476 162.04
L302.949 158.649
L304.738 157.359
L313.684 150.469
L324.419 142.076
L328.892 138.469
L329.787 137.827
L334.26 133.97
L337.838 131.392
L339.627 130.056
L342.311 128.09
L343.205 127.508
L344.1 126.735
L347.678 124.151
L352.151 120.541
L353.046 119.941
L359.308 114.818
L361.992 112.729
L364.676 110.561
L370.938 105.725
L378.989 99.4167
L385.251 94.7698
L390.619 90.5184
L391.513 89.9309
L392.408 89.1933
L395.092 87.293
L398.67 84.4502
L399.565 83.8128
L400.459 83.0169
L403.143 81.0658
L404.038 80.2744
L406.721 78.2477
L411.194 74.3281
L412.983 72.9373
L419.246 67.932
L432.664 57.9007
L435.348 55.9733
L438.927 53.2953
L439.821 52.5103
L441.61 51.1857
L444.294 49.2207
L453.24 42.3991
L456.818 39.6219
L458.607 38.3185
L463.975 33.9832
L463.975 33.9832" style="fill:none;stroke:#008000;stroke-linecap:square;"/>
   </g>
   <g id="patch_3">
    <path d="
M17.575 23.1417
L463.975 23.1417" style="fill:none;stroke:#000000;stroke-linecap:square;stroke-linejoin:miter;"/>
   </g>
   <g id="patch_4">
    <path d="
M463.975 368.742
L463.975 23.1417" style="fill:none;stroke:#000000;stroke-linecap:square;stroke-linejoin:miter;"/>
   </g>
   <g id="patch_5">
    <path d="
M17.575 368.742
L463.975 368.742" style="fill:none;stroke:#000000;stroke-linecap:square;stroke-linejoin:miter;"/>
   </g>
   <g id="patch_6">
    <path d="
M17.575 368.742
L17.575 23.1417" style="fill:none;stroke:#000000;stroke-linecap:square;stroke-linejoin:miter;"/>
   </g>
   <g id="matplotlib.axis_1">
    <g id="xtick_1">
     <g id="line2d_17">
      <defs>
       <path d="
M0 0
L0 -4" id="m93b0483c22" style="stroke:#000000;stroke-width:0.5;"/>
      </defs>
      <g>
       <use style="stroke:#000000;stroke-width:0.5;" x="17.575" xlink:href="#m93b0483c22" y="368.74175"/>
      </g>
     </g>
     <g id="line2d_18">
      <defs>
       <path d="
M0 0
L0 4" id="m741efc42ff" style="stroke:#000000;stroke-width:0.5;"/>
      </defs>
      <g>
       <use style="stroke:#000000;stroke-width:0.5;" x="17.575" xlink:href="#m741efc42ff" y="23.14175"/>
      </g>
     </g>
     <g id="text_1">
      <!-- 0 -->
      <defs>
       <path d="
M31.7812 66.4062
Q24.1719 66.4062 20.3281 58.9062
Q16.5 51.4219 16.5 36.375
Q16.5 21.3906 20.3281 13.8906
Q24.1719 6.39062 31.7812 6.39062
Q39.4531 6.39062 43.2812 13.8906
Q47.125 21.3906 47.125 36.375
Q47.125 51.4219 43.2812 58.9062
Q39.4531 66.4062 31.7812 66.4062
M31.7812 74.2188
Q44.0469 74.2188 50.5156 64.5156
Q56.9844 54.8281 56.9844 36.375
Q56.9844 17.9688 50.5156 8.26562
Q44.0469 -1.42188 31.7812 -1.42188
Q19.5312 -1.42188 13.0625 8.26562
Q6.59375 17.9688 6.59375 36.375
Q6.59375 54.8281 13.0625 64.5156
Q19.5312 74.2188 31.7812 74.2188" id="DejaVuSans-30"/>
      </defs>
      <g transform="translate(14.5515625 381.859875)scale(0.12 -0.12)">
       <use xlink:href="#DejaVuSans-30"/>
      </g>
     </g>
    </g>
    <g id="xtick_2">
     <g id="line2d_19">
      <g>
       <use style="stroke:#000000;stroke-width:0.5;" x="107.033917836" xlink:href="#m93b0483c22" y="368.74175"/>
      </g>
     </g>
     <g id="line2d_20">
      <g>
       <use style="stroke:#000000;stroke-width:0.5;" x="107.033917836" xlink:href="#m741efc42ff" y="23.14175"/>
      </g>
     </g>
     <g id="text_2">
      <!-- 100 -->
      <defs>
       <path d="
M12.4062 8.29688
L28.5156 8.29688
L28.5156 63.9219
L10.9844 60.4062
L10.9844 69.3906
L28.4219 72.9062
L38.2812 72.9062
L38.2812 8.29688
L54.3906 8.29688
L54.3906 0
L12.4062 0
z
" id="DejaVuSans-31"/>
      </defs>
      <g transform="translate(96.6389178357 381.859875)scale(0.12 -0.12)">
       <use xlink:href="#DejaVuSans-31"/>
       <use x="63.623046875" xlink:href="#DejaVuSans-30"/>
       <use x="127.24609375" xlink:href="#DejaVuSans-30"/>
      </g>
     </g>
    </g>
    <g id="xtick_3">
     <g id="line2d_21">
      <g>
       <use style="stroke:#000000;stroke-width:0.5;" x="196.492835671" xlink:href="#m93b0483c22" y="368.74175"/>
      </g>
     </g>
     <g id="line2d_22">
      <g>
       <use style="stroke:#000000;stroke-width:0.5;" x="196.492835671" xlink:href="#m741efc42ff" y="23.14175"/>
      </g>
     </g>
     <g id="text_3">
      <!-- 200 -->
      <defs>
       <path d="
M19.1875 8.29688
L53.6094 8.29688
L53.6094 0
L7.32812 0
L7.32812 8.29688
Q12.9375 14.1094 22.625 23.8906
Q32.3281 33.6875 34.8125 36.5312
Q39.5469 41.8438 41.4219 45.5312
Q43.3125 49.2188 43.3125 52.7812
Q43.3125 58.5938 39.2344 62.25
Q35.1562 65.9219 28.6094 65.9219
Q23.9688 65.9219 18.8125 64.3125
Q13.6719 62.7031 7.8125 59.4219
L7.8125 69.3906
Q13.7656 71.7812 18.9375 73
Q24.125 74.2188 28.4219 74.2188
Q39.75 74.2188 46.4844 68.5469
Q53.2188 62.8906 53.2188 53.4219
Q53.2188 48.9219 51.5312 44.8906
Q49.8594 40.875 45.4062 35.4062
Q44.1875 33.9844 37.6406 27.2188
Q31.1094 20.4531 19.1875 8.29688" id="DejaVuSans-32"/>
      </defs>
      <g transform="translate(185.878460671 381.859875)scale(0.12 -0.12)">
       <use xlink:href="#DejaVuSans-32"/>
       <use x="63.623046875" xlink:href="#DejaVuSans-30"/>
       <use x="127.24609375" xlink:href="#DejaVuSans-30"/>
      </g>
     </g>
    </g>
    <g id="xtick_4">
     <g id="line2d_23">
      <g>
       <use style="stroke:#000000;stroke-width:0.5;" x="285.951753507" xlink:href="#m93b0483c22" y="368.74175"/>
      </g>
     </g>
     <g id="line2d_24">
      <g>
       <use style="stroke:#000000;stroke-width:0.5;" x="285.951753507" xlink:href="#m741efc42ff" y="23.14175"/>
      </g>
     </g>
     <g id="text_4">
      <!-- 300 -->
      <defs>
       <path d="
M40.5781 39.3125
Q47.6562 37.7969 51.625 33
Q55.6094 28.2188 55.6094 21.1875
Q55.6094 10.4062 48.1875 4.48438
Q40.7656 -1.42188 27.0938 -1.42188
Q22.5156 -1.42188 17.6562 -0.515625
Q12.7969 0.390625 7.625 2.20312
L7.625 11.7188
Q11.7188 9.32812 16.5938 8.10938
Q21.4844 6.89062 26.8125 6.89062
Q36.0781 6.89062 40.9375 10.5469
Q45.7969 14.2031 45.7969 21.1875
Q45.7969 27.6406 41.2812 31.2656
Q36.7656 34.9062 28.7188 34.9062
L20.2188 34.9062
L20.2188 43.0156
L29.1094 43.0156
Q36.375 43.0156 40.2344 45.9219
Q44.0938 48.8281 44.0938 54.2969
Q44.0938 59.9062 40.1094 62.9062
Q36.1406 65.9219 28.7188 65.9219
Q24.6562 65.9219 20.0156 65.0312
Q15.375 64.1562 9.8125 62.3125
L9.8125 71.0938
Q15.4375 72.6562 20.3438 73.4375
Q25.25 74.2188 29.5938 74.2188
Q40.8281 74.2188 47.3594 69.1094
Q53.9062 64.0156 53.9062 55.3281
Q53.9062 49.2656 50.4375 45.0938
Q46.9688 40.9219 40.5781 39.3125" id="DejaVuSans-33"/>
      </defs>
      <g transform="translate(275.355191007 381.859875)scale(0.12 -0.12)">
       <use xlink:href="#DejaVuSans-33"/>
       <use x="63.623046875" xlink:href="#DejaVuSans-30"/>
       <use x="127.24609375" xlink:href="#DejaVuSans-30"/>
      </g>
     </g>
    </g>
    <g id="xtick_5">
     <g id="line2d_25">
      <g>
       <use style="stroke:#000000;stroke-width:0.5;" x="375.410671343" xlink:href="#m93b0483c22" y="368.74175"/>
      </g>
     </g>
     <g id="line2d_26">
      <g>
       <use style="stroke:#000000;stroke-width:0.5;" x="375.410671343" xlink:href="#m741efc42ff" y="23.14175"/>
      </g>
     </g>
     <g id="text_5">
      <!-- 400 -->
      <defs>
       <path d="
M37.7969 64.3125
L12.8906 25.3906
L37.7969 25.3906
z

M35.2031 72.9062
L47.6094 72.9062
L47.6094 25.3906
L58.0156 25.3906
L58.0156 17.1875
L47.6094 17.1875
L47.6094 0
L37.7969 0
L37.7969 17.1875
L4.89062 17.1875
L4.89062 26.7031
z
" id="DejaVuSans-34"/>
      </defs>
      <g transform="translate(364.650046343 381.859875)scale(0.12 -0.12)">
       <use xlink:href="#DejaVuSans-34"/>
       <use x="63.623046875" xlink:href="#DejaVuSans-30"/>
       <use x="127.24609375" xlink:href="#DejaVuSans-30"/>
      </g>
     </g>
    </g>
    <g id="text_6">
     <!-- time -->
     <defs>
      <path d="
M18.3125 70.2188
L18.3125 54.6875
L36.8125 54.6875
L36.8125 47.7031
L18.3125 47.7031
L18.3125 18.0156
Q18.3125 11.3281 20.1406 9.42188
Q21.9688 7.51562 27.5938 7.51562
L36.8125 7.51562
L36.8125 0
L27.5938 0
Q17.1875 0 13.2344 3.875
Q9.28125 7.76562 9.28125 18.0156
L9.28125 47.7031
L2.6875 47.7031
L2.6875 54.6875
L9.28125 54.6875
L9.28125 70.2188
z
" id="DejaVuSans-74"/>
      <path d="
M52 44.1875
Q55.375 50.25 60.0625 53.125
Q64.75 56 71.0938 56
Q79.6406 56 84.2812 50.0156
Q88.9219 44.0469 88.9219 33.0156
L88.9219 0
L79.8906 0
L79.8906 32.7188
Q79.8906 40.5781 77.0938 44.375
Q74.3125 48.1875 68.6094 48.1875
Q61.625 48.1875 57.5625 43.5469
Q53.5156 38.9219 53.5156 30.9062
L53.5156 0
L44.4844 0
L44.4844 32.7188
Q44.4844 40.625 41.7031 44.4062
Q38.9219 48.1875 33.1094 48.1875
Q26.2188 48.1875 22.1562 43.5312
Q18.1094 38.875 18.1094 30.9062
L18.1094 0
L9.07812 0
L9.07812 54.6875
L18.1094 54.6875
L18.1094 46.1875
Q21.1875 51.2188 25.4844 53.6094
Q29.7812 56 35.6875 56
Q41.6562 56 45.8281 52.9688
Q50 49.9531 52 44.1875" id="DejaVuSans-6d"/>
      <path d="
M56.2031 29.5938
L56.2031 25.2031
L14.8906 25.2031
Q15.4844 15.9219 20.4844 11.0625
Q25.4844 6.20312 34.4219 6.20312
Q39.5938 6.20312 44.4531 7.46875
Q49.3125 8.73438 54.1094 11.2812
L54.1094 2.78125
Q49.2656 0.734375 44.1875 -0.34375
Q39.1094 -1.42188 33.8906 -1.42188
Q20.7969 -1.42188 13.1562 6.1875
Q5.51562 13.8125 5.51562 26.8125
Q5.51562 40.2344 12.7656 48.1094
Q20.0156 56 32.3281 56
Q43.3594 56 49.7812 48.8906
Q56.2031 41.7969 56.2031 29.5938
M47.2188 32.2344
Q47.125 39.5938 43.0938 43.9844
Q39.0625 48.3906 32.4219 48.3906
Q24.9062 48.3906 20.3906 44.1406
Q15.875 39.8906 15.1875 32.1719
z
" id="DejaVuSans-65"/>
      <path d="
M9.42188 54.6875
L18.4062 54.6875
L18.4062 0
L9.42188 0
z

M9.42188 75.9844
L18.4062 75.9844
L18.4062 64.5938
L9.42188 64.5938
z
" id="DejaVuSans-69"/>
     </defs>
     <g transform="translate(227.700625 398.473625)scale(0.12 -0.12)">
      <use xlink:href="#DejaVuSans-74"/>
      <use x="39.208984375" xlink:href="#DejaVuSans-69"/>
      <use x="66.9921875" xlink:href="#DejaVuSans-6d"/>
      <use x="164.404296875" xlink:href="#DejaVuSans-65"/>
     </g>
    </g>
   </g>
   <g id="matplotlib.axis_2">
    <g id="ytick_1">
     <g id="line2d_27">
      <defs>
       <path d="
M0 0
L4 0" id="m728421d6d4" style="stroke:#000000;stroke-width:0.5;"/>
      </defs>
      <g>
       <use style="stroke:#000000;stroke-width:0.5;" x="17.575" xlink:href="#m728421d6d4" y="368.74175"/>
      </g>
     </g>
     <g id="line2d_28">
      <defs>
       <path d="
M0 0
L-4 0" id="mcb0005524f" style="stroke:#000000;stroke-width:0.5;"/>
      </defs>
      <g>
       <use style="stroke:#000000;stroke-width:0.5;" x="463.975" xlink:href="#mcb0005524f" y="368.74175"/>
      </g>
     </g>
     <g id="text_7">
      <!-- 0 -->
      <g transform="translate(7.528125 372.053)scale(0.12 -0.12)">
       <use xlink:href="#DejaVuSans-30"/>
      </g>
     </g>
    </g>
    <g id="ytick_2">
     <g id="line2d_29">
      <g>
       <use style="stroke:#000000;stroke-width:0.5;" x="17.575" xlink:href="#m728421d6d4" y="319.370321429"/>
      </g>
     </g>
     <g id="line2d_30">
      <g>
       <use style="stroke:#000000;stroke-width:0.5;" x="463.975" xlink:href="#mcb0005524f" y="319.370321429"/>
      </g>
     </g>
     <g id="text_8">
      <!-- 1 -->
      <g transform="translate(8.36625 322.681571429)scale(0.12 -0.12)">
       <use xlink:href="#DejaVuSans-31"/>
      </g>
     </g>
    </g>
    <g id="ytick_3">
     <g id="line2d_31">
      <g>
       <use style="stroke:#000000;stroke-width:0.5;" x="17.575" xlink:href="#m728421d6d4" y="269.998892857"/>
      </g>
     </g>
     <g id="line2d_32">
      <g>
       <use style="stroke:#000000;stroke-width:0.5;" x="463.975" xlink:href="#mcb0005524f" y="269.998892857"/>
      </g>
     </g>
     <g id="text_9">
      <!-- 2 -->
      <g transform="translate(8.02125 273.310142857)scale(0.12 -0.12)">
       <use xlink:href="#DejaVuSans-32"/>
      </g>
     </g>
    </g>
    <g id="ytick_4">
     <g id="line2d_33">
      <g>
       <use style="stroke:#000000;stroke-width:0.5;" x="17.575" xlink:href="#m728421d6d4" y="220.627464286"/>
      </g>
     </g>
     <g id="line2d_34">
      <g>
       <use style="stroke:#000000;stroke-width:0.5;" x="463.975" xlink:href="#mcb0005524f" y="220.627464286"/>
      </g>
     </g>
     <g id="text_10">
      <!-- 3 -->
      <g transform="translate(7.816875 223.938714286)scale(0.12 -0.12)">
       <use xlink:href="#DejaVuSans-33"/>
      </g>
     </g>
    </g>
    <g id="ytick_5">
     <g id="line2d_35">
      <g>
       <use style="stroke:#000000;stroke-width:0.5;" x="17.575" xlink:href="#m728421d6d4" y="171.256035714"/>
      </g>
     </g>
     <g id="line2d_36">
      <g>
       <use style="stroke:#000000;stroke-width:0.5;" x="463.975" xlink:href="#mcb0005524f" y="171.256035714"/>
      </g>
     </g>
     <g id="text_11">
      <!-- 4 -->
      <g transform="translate(7.2 174.567285714)scale(0.12 -0.12)">
       <use xlink:href="#DejaVuSans-34"/>
      </g>
     </g>
    </g>
    <g id="ytick_6">
     <g id="line2d_37">
      <g>
       <use style="stroke:#000000;stroke-width:0.5;" x="17.575" xlink:href="#m728421d6d4" y="121.884607143"/>
      </g>
     </g>
     <g id="line2d_38">
      <g>
       <use style="stroke:#000000;stroke-width:0.5;" x="463.975" xlink:href="#mcb0005524f" y="121.884607143"/>
      </g>
     </g>
     <g id="text_12">
      <!-- 5 -->
      <defs>
       <path d="
M10.7969 72.9062
L49.5156 72.9062
L49.5156 64.5938
L19.8281 64.5938
L19.8281 46.7344
Q21.9688 47.4688 24.1094 47.8281
Q26.2656 48.1875 28.4219 48.1875
Q40.625 48.1875 47.75 41.5
Q54.8906 34.8125 54.8906 23.3906
Q54.8906 11.625 47.5625 5.09375
Q40.2344 -1.42188 26.9062 -1.42188
Q22.3125 -1.42188 17.5469 -0.640625
Q12.7969 0.140625 7.71875 1.70312
L7.71875 11.625
Q12.1094 9.23438 16.7969 8.0625
Q21.4844 6.89062 26.7031 6.89062
Q35.1562 6.89062 40.0781 11.3281
Q45.0156 15.7656 45.0156 23.3906
Q45.0156 31 40.0781 35.4375
Q35.1562 39.8906 26.7031 39.8906
Q22.75 39.8906 18.8125 39.0156
Q14.8906 38.1406 10.7969 36.2812
z
" id="DejaVuSans-35"/>
      </defs>
      <g transform="translate(7.914375 125.195857143)scale(0.12 -0.12)">
       <use xlink:href="#DejaVuSans-35"/>
      </g>
     </g>
    </g>
    <g id="ytick_7">
     <g id="line2d_39">
      <g>
       <use style="stroke:#000000;stroke-width:0.5;" x="17.575" xlink:href="#m728421d6d4" y="72.5131785714"/>
      </g>
     </g>
     <g id="line2d_40">
      <g>
       <use style="stroke:#000000;stroke-width:0.5;" x="463.975" xlink:href="#mcb0005524f" y="72.5131785714"/>
      </g>
     </g>
     <g id="text_13">
      <!-- 6 -->
      <defs>
       <path d="
M33.0156 40.375
Q26.375 40.375 22.4844 35.8281
Q18.6094 31.2969 18.6094 23.3906
Q18.6094 15.5312 22.4844 10.9531
Q26.375 6.39062 33.0156 6.39062
Q39.6562 6.39062 43.5312 10.9531
Q47.4062 15.5312 47.4062 23.3906
Q47.4062 31.2969 43.5312 35.8281
Q39.6562 40.375 33.0156 40.375
M52.5938 71.2969
L52.5938 62.3125
Q48.875 64.0625 45.0938 64.9844
Q41.3125 65.9219 37.5938 65.9219
Q27.8281 65.9219 22.6719 59.3281
Q17.5312 52.7344 16.7969 39.4062
Q19.6719 43.6562 24.0156 45.9219
Q28.375 48.1875 33.5938 48.1875
Q44.5781 48.1875 50.9531 41.5156
Q57.3281 34.8594 57.3281 23.3906
Q57.3281 12.1562 50.6875 5.35938
Q44.0469 -1.42188 33.0156 -1.42188
Q20.3594 -1.42188 13.6719 8.26562
Q6.98438 17.9688 6.98438 36.375
Q6.98438 53.6562 15.1875 63.9375
Q23.3906 74.2188 37.2031 74.2188
Q40.9219 74.2188 44.7031 73.4844
Q48.4844 72.75 52.5938 71.2969" id="DejaVuSans-36"/>
      </defs>
      <g transform="translate(7.53375 75.8244285714)scale(0.12 -0.12)">
       <use xlink:href="#DejaVuSans-36"/>
      </g>
     </g>
    </g>
    <g id="ytick_8">
     <g id="line2d_41">
      <g>
       <use style="stroke:#000000;stroke-width:0.5;" x="17.575" xlink:href="#m728421d6d4" y="23.14175"/>
      </g>
     </g>
     <g id="line2d_42">
      <g>
       <use style="stroke:#000000;stroke-width:0.5;" x="463.975" xlink:href="#mcb0005524f" y="23.14175"/>
      </g>
     </g>
     <g id="text_14">
      <!-- 7 -->
      <defs>
       <path d="
M8.20312 72.9062
L55.0781 72.9062
L55.0781 68.7031
L28.6094 0
L18.3125 0
L43.2188 64.5938
L8.20312 64.5938
z
" id="DejaVuSans-37"/>
      </defs>
      <g transform="translate(7.95 26.453)scale(0.12 -0.12)">
       <use xlink:href="#DejaVuSans-37"/>
      </g>
     </g>
    </g>
    <g id="text_15">
     <!-- 1e10 -->
     <g transform="translate(17.575 20.14175)scale(0.12 -0.12)">
      <use xlink:href="#DejaVuSans-31"/>
      <use x="63.623046875" xlink:href="#DejaVuSans-65"/>
      <use x="125.146484375" xlink:href="#DejaVuSans-31"/>
      <use x="188.76953125" xlink:href="#DejaVuSans-30"/>
     </g>
    </g>
   </g>
   <g id="text_16">
    <!-- /agas/time/decrement_credit -->
    <defs>
     <path d="
M25.3906 72.9062
L33.6875 72.9062
L8.29688 -9.28125
L0 -9.28125
z
" id="DejaVuSans-2f"/>
     <path d="
M54.8906 33.0156
L54.8906 0
L45.9062 0
L45.9062 32.7188
Q45.9062 40.4844 42.875 44.3281
Q39.8438 48.1875 33.7969 48.1875
Q26.5156 48.1875 22.3125 43.5469
Q18.1094 38.9219 18.1094 30.9062
L18.1094 0
L9.07812 0
L9.07812 54.6875
L18.1094 54.6875
L18.1094 46.1875
Q21.3438 51.125 25.7031 53.5625
Q30.0781 56 35.7969 56
Q45.2188 56 50.0469 50.1719
Q54.8906 44.3438 54.8906 33.0156" id="DejaVuSans-6e"/>
     <path d="
M50.9844 -16.6094
L50.9844 -23.5781
L-0.984375 -23.5781
L-0.984375 -16.6094
z
" id="DejaVuSans-5f"/>
     <path d="
M45.4062 27.9844
Q45.4062 37.75 41.375 43.1094
Q37.3594 48.4844 30.0781 48.4844
Q22.8594 48.4844 18.8281 43.1094
Q14.7969 37.75 14.7969 27.9844
Q14.7969 18.2656 18.8281 12.8906
Q22.8594 7.51562 30.0781 7.51562
Q37.3594 7.51562 41.375 12.8906
Q45.4062 18.2656 45.4062 27.9844
M54.3906 6.78125
Q54.3906 -7.17188 48.1875 -13.9844
Q42 -20.7969 29.2031 -20.7969
Q24.4688 -20.7969 20.2656 -20.0938
Q16.0625 -19.3906 12.1094 -17.9219
L12.1094 -9.1875
Q16.0625 -11.3281 19.9219 -12.3438
Q23.7812 -13.375 27.7812 -13.375
Q36.625 -13.375 41.0156 -8.76562
Q45.4062 -4.15625 45.4062 5.17188
L45.4062 9.625
Q42.625 4.78125 38.2812 2.39062
Q33.9375 0 27.875 0
Q17.8281 0 11.6719 7.65625
Q5.51562 15.3281 5.51562 27.9844
Q5.51562 40.6719 11.6719 48.3281
Q17.8281 56 27.875 56
Q33.9375 56 38.2812 53.6094
Q42.625 51.2188 45.4062 46.3906
L45.4062 54.6875
L54.3906 54.6875
z
" id="DejaVuSans-67"/>
     <path d="
M45.4062 46.3906
L45.4062 75.9844
L54.3906 75.9844
L54.3906 0
L45.4062 0
L45.4062 8.20312
Q42.5781 3.32812 38.25 0.953125
Q33.9375 -1.42188 27.875 -1.42188
Q17.9688 -1.42188 11.7344 6.48438
Q5.51562 14.4062 5.51562 27.2969
Q5.51562 40.1875 11.7344 48.0938
Q17.9688 56 27.875 56
Q33.9375 56 38.25 53.625
Q42.5781 51.2656 45.4062 46.3906
M14.7969 27.2969
Q14.7969 17.3906 18.875 11.75
Q22.9531 6.10938 30.0781 6.10938
Q37.2031 6.10938 41.2969 11.75
Q45.4062 17.3906 45.4062 27.2969
Q45.4062 37.2031 41.2969 42.8438
Q37.2031 48.4844 30.0781 48.4844
Q22.9531 48.4844 18.875 42.8438
Q14.7969 37.2031 14.7969 27.2969" id="DejaVuSans-64"/>
     <path d="
M41.1094 46.2969
Q39.5938 47.1719 37.8125 47.5781
Q36.0312 48 33.8906 48
Q26.2656 48 22.1875 43.0469
Q18.1094 38.0938 18.1094 28.8125
L18.1094 0
L9.07812 0
L9.07812 54.6875
L18.1094 54.6875
L18.1094 46.1875
Q20.9531 51.1719 25.4844 53.5781
Q30.0312 56 36.5312 56
Q37.4531 56 38.5781 55.875
Q39.7031 55.7656 41.0625 55.5156
z
" id="DejaVuSans-72"/>
     <path d="
M48.7812 52.5938
L48.7812 44.1875
Q44.9688 46.2969 41.1406 47.3438
Q37.3125 48.3906 33.4062 48.3906
Q24.6562 48.3906 19.8125 42.8438
Q14.9844 37.3125 14.9844 27.2969
Q14.9844 17.2812 19.8125 11.7344
Q24.6562 6.20312 33.4062 6.20312
Q37.3125 6.20312 41.1406 7.25
Q44.9688 8.29688 48.7812 10.4062
L48.7812 2.09375
Q45.0156 0.34375 40.9844 -0.53125
Q36.9688 -1.42188 32.4219 -1.42188
Q20.0625 -1.42188 12.7812 6.34375
Q5.51562 14.1094 5.51562 27.2969
Q5.51562 40.6719 12.8594 48.3281
Q20.2188 56 33.0156 56
Q37.1562 56 41.1094 55.1406
Q45.0625 54.2969 48.7812 52.5938" id="DejaVuSans-63"/>
     <path d="
M44.2812 53.0781
L44.2812 44.5781
Q40.4844 46.5312 36.375 47.5
Q32.2812 48.4844 27.875 48.4844
Q21.1875 48.4844 17.8438 46.4375
Q14.5 44.3906 14.5 40.2812
Q14.5 37.1562 16.8906 35.375
Q19.2812 33.5938 26.5156 31.9844
L29.5938 31.2969
Q39.1562 29.25 43.1875 25.5156
Q47.2188 21.7812 47.2188 15.0938
Q47.2188 7.46875 41.1875 3.01562
Q35.1562 -1.42188 24.6094 -1.42188
Q20.2188 -1.42188 15.4531 -0.5625
Q10.6875 0.296875 5.42188 2
L5.42188 11.2812
Q10.4062 8.6875 15.2344 7.39062
Q20.0625 6.10938 24.8125 6.10938
Q31.1562 6.10938 34.5625 8.28125
Q37.9844 10.4531 37.9844 14.4062
Q37.9844 18.0625 35.5156 20.0156
Q33.0625 21.9688 24.7031 23.7812
L21.5781 24.5156
Q13.2344 26.2656 9.51562 29.9062
Q5.8125 33.5469 5.8125 39.8906
Q5.8125 47.6094 11.2812 51.7969
Q16.75 56 26.8125 56
Q31.7812 56 36.1719 55.2656
Q40.5781 54.5469 44.2812 53.0781" id="DejaVuSans-73"/>
     <path d="
M34.2812 27.4844
Q23.3906 27.4844 19.1875 25
Q14.9844 22.5156 14.9844 16.5
Q14.9844 11.7188 18.1406 8.90625
Q21.2969 6.10938 26.7031 6.10938
Q34.1875 6.10938 38.7031 11.4062
Q43.2188 16.7031 43.2188 25.4844
L43.2188 27.4844
z

M52.2031 31.2031
L52.2031 0
L43.2188 0
L43.2188 8.29688
Q40.1406 3.32812 35.5469 0.953125
Q30.9531 -1.42188 24.3125 -1.42188
Q15.9219 -1.42188 10.9531 3.29688
Q6 8.01562 6 15.9219
Q6 25.1406 12.1719 29.8281
Q18.3594 34.5156 30.6094 34.5156
L43.2188 34.5156
L43.2188 35.4062
Q43.2188 41.6094 39.1406 45
Q35.0625 48.3906 27.6875 48.3906
Q23 48.3906 18.5469 47.2656
Q14.1094 46.1406 10.0156 43.8906
L10.0156 52.2031
Q14.9375 54.1094 19.5781 55.0469
Q24.2188 56 28.6094 56
Q40.4844 56 46.3438 49.8438
Q52.2031 43.7031 52.2031 31.2031" id="DejaVuSans-61"/>
    </defs>
    <g transform="translate(137.060125 18.14175)scale(0.144 -0.144)">
     <use xlink:href="#DejaVuSans-2f"/>
     <use x="33.69140625" xlink:href="#DejaVuSans-61"/>
     <use x="94.970703125" xlink:href="#DejaVuSans-67"/>
     <use x="158.447265625" xlink:href="#DejaVuSans-61"/>
     <use x="219.7265625" xlink:href="#DejaVuSans-73"/>
     <use x="271.826171875" xlink:href="#DejaVuSans-2f"/>
     <use x="305.517578125" xlink:href="#DejaVuSans-74"/>
     <use x="344.7265625" xlink:href="#DejaVuSans-69"/>
     <use x="372.509765625" xlink:href="#DejaVuSans-6d"/>
     <use x="469.921875" xlink:href="#DejaVuSans-65"/>
     <use x="531.4453125" xlink:href="#DejaVuSans-2f"/>
     <use x="565.13671875" xlink:href="#DejaVuSans-64"/>
     <use x="628.61328125" xlink:href="#DejaVuSans-65"/>
     <use x="690.13671875" xlink:href="#DejaVuSans-63"/>
     <use x="745.1171875" xlink:href="#DejaVuSans-72"/>
     <use x="783.98046875" xlink:href="#DejaVuSans-65"/>
     <use x="845.50390625" xlink:href="#DejaVuSans-6d"/>
     <use x="942.916015625" xlink:href="#DejaVuSans-65"/>
     <use x="1004.43945312" xlink:href="#DejaVuSans-6e"/>
     <use x="1067.81835938" xlink:href="#DejaVuSans-74"/>
     <use x="1107.02734375" xlink:href="#DejaVuSans-5f"/>
     <use x="1157.02734375" xlink:href="#DejaVuSans-63"/>
     <use x="1212.0078125" xlink:href="#DejaVuSans-72"/>
     <use x="1250.87109375" xlink:href="#DejaVuSans-65"/>
     <use x="1312.39453125" xlink:href="#DejaVuSans-64"/>
     <use x="1375.87109375" xlink:href="#DejaVuSans-69"/>
     <use x="1403.65429688" xlink:href="#DejaVuSans-74"/>
    </g>
   </g>
   <g id="legend_1">
    <g id="patch_7">
     <path d="
M471.175 367.194
L602.964 367.194
L602.964 24.6897
L471.175 24.6897
z
" style="fill:#ffffff;stroke:#000000;stroke-linejoin:miter;"/>
    </g>
    <g id="line2d_43">
     <path d="
M481.255 36.3515
L501.415 36.3515" style="fill:none;stroke:#0000ff;stroke-linecap:square;"/>
    </g>
    <g id="line2d_44"/>
    <g id="text_17">
     <!-- locality#0 -->
     <defs>
      <path d="
M30.6094 48.3906
Q23.3906 48.3906 19.1875 42.75
Q14.9844 37.1094 14.9844 27.2969
Q14.9844 17.4844 19.1562 11.8438
Q23.3438 6.20312 30.6094 6.20312
Q37.7969 6.20312 41.9844 11.8594
Q46.1875 17.5312 46.1875 27.2969
Q46.1875 37.0156 41.9844 42.7031
Q37.7969 48.3906 30.6094 48.3906
M30.6094 56
Q42.3281 56 49.0156 48.375
Q55.7188 40.7656 55.7188 27.2969
Q55.7188 13.875 49.0156 6.21875
Q42.3281 -1.42188 30.6094 -1.42188
Q18.8438 -1.42188 12.1719 6.21875
Q5.51562 13.875 5.51562 27.2969
Q5.51562 40.7656 12.1719 48.375
Q18.8438 56 30.6094 56" id="DejaVuSans-6f"/>
      <path d="
M51.125 44
L36.9219 44
L32.8125 27.6875
L47.125 27.6875
z

M43.7969 71.7812
L38.7188 51.5156
L52.9844 51.5156
L58.1094 71.7812
L65.9219 71.7812
L60.8906 51.5156
L76.125 51.5156
L76.125 44
L58.9844 44
L54.9844 27.6875
L70.5156 27.6875
L70.5156 20.2188
L53.0781 20.2188
L48 0
L40.1875 0
L45.2188 20.2188
L30.9062 20.2188
L25.875 0
L18.0156 0
L23.0938 20.2188
L7.71875 20.2188
L7.71875 27.6875
L24.9062 27.6875
L29 44
L13.2812 44
L13.2812 51.5156
L30.9062 51.5156
L35.8906 71.7812
z
" id="DejaVuSans-23"/>
      <path d="
M32.1719 -5.07812
Q28.375 -14.8438 24.75 -17.8125
Q21.1406 -20.7969 15.0938 -20.7969
L7.90625 -20.7969
L7.90625 -13.2812
L13.1875 -13.2812
Q16.8906 -13.2812 18.9375 -11.5156
Q21 -9.76562 23.4844 -3.21875
L25.0938 0.875
L2.98438 54.6875
L12.5 54.6875
L29.5938 11.9219
L46.6875 54.6875
L56.2031 54.6875
z
" id="DejaVuSans-79"/>
      <path d="
M9.42188 75.9844
L18.4062 75.9844
L18.4062 0
L9.42188 0
z
" id="DejaVuSans-6c"/>
     </defs>
     <g transform="translate(517.255 41.3915)scale(0.144 -0.144)">
      <use xlink:href="#DejaVuSans-6c"/>
      <use x="27.783203125" xlink:href="#DejaVuSans-6f"/>
      <use x="88.96484375" xlink:href="#DejaVuSans-63"/>
      <use x="143.9453125" xlink:href="#DejaVuSans-61"/>
      <use x="205.224609375" xlink:href="#DejaVuSans-6c"/>
      <use x="233.0078125" xlink:href="#DejaVuSans-69"/>
      <use x="260.791015625" xlink:href="#DejaVuSans-74"/>
      <use x="300.0" xlink:href="#DejaVuSans-79"/>
      <use x="359.1796875" xlink:href="#DejaVuSans-23"/>
      <use x="442.96875" xlink:href="#DejaVuSans-30"/>
     </g>
    </g>
    <g id="line2d_45">
     <path d="
M481.255 57.488
L501.415 57.488" style="fill:none;stroke:#008000;stroke-linecap:square;"/>
    </g>
    <g id="line2d_46"/>
    <g id="text_18">
     <!-- locality#1 -->
     <g transform="translate(517.255 62.528)scale(0.144 -0.144)">
      <use xlink:href="#DejaVuSans-6c"/>
      <use x="27.783203125" xlink:href="#DejaVuSans-6f"/>
      <use x="88.96484375" xlink:href="#DejaVuSans-63"/>
      <use x="143.9453125" xlink:href="#DejaVuSans-61"/>
      <use x="205.224609375" xlink:href="#DejaVuSans-6c"/>
      <use x="233.0078125" xlink:href="#DejaVuSans-69"/>
      <use x="260.791015625" xlink:href="#DejaVuSans-74"/>
      <use x="300.0" xlink:href="#DejaVuSans-79"/>
      <use x="359.1796875" xlink:href="#DejaVuSans-23"/>
      <use x="442.96875" xlink:href="#DejaVuSans-31"/>
     </g>
    </g>
    <g id="line2d_47">
     <path d="
M481.255 78.6245
L501.415 78.6245" style="fill:none;stroke:#ff0000;stroke-linecap:square;"/>
    </g>
    <g id="line2d_48"/>
    <g id="text_19">
     <!-- locality#10 -->
     <g transform="translate(517.255 83.6645)scale(0.144 -0.144)">
      <use xlink:href="#DejaVuSans-6c"/>
      <use x="27.783203125" xlink:href="#DejaVuSans-6f"/>
      <use x="88.96484375" xlink:href="#DejaVuSans-63"/>
      <use x="143.9453125" xlink:href="#DejaVuSans-61"/>
      <use x="205.224609375" xlink:href="#DejaVuSans-6c"/>
      <use x="233.0078125" xlink:href="#DejaVuSans-69"/>
      <use x="260.791015625" xlink:href="#DejaVuSans-74"/>
      <use x="300.0" xlink:href="#DejaVuSans-79"/>
      <use x="359.1796875" xlink:href="#DejaVuSans-23"/>
      <use x="442.96875" xlink:href="#DejaVuSans-31"/>
      <use x="506.591796875" xlink:href="#DejaVuSans-30"/>
     </g>
    </g>
    <g id="line2d_49">
     <path d="
M481.255 99.761
L501.415 99.761" style="fill:none;stroke:#00bfbf;stroke-linecap:square;"/>
    </g>
    <g id="line2d_50"/>
    <g id="text_20">
     <!-- locality#11 -->
     <g transform="translate(517.255 104.801)scale(0.144 -0.144)">
      <use xlink:href="#DejaVuSans-6c"/>
      <use x="27.783203125" xlink:href="#DejaVuSans-6f"/>
      <use x="88.96484375" xlink:href="#DejaVuSans-63"/>
      <use x="143.9453125" xlink:href="#DejaVuSans-61"/>
      <use x="205.224609375" xlink:href="#DejaVuSans-6c"/>
      <use x="233.0078125" xlink:href="#DejaVuSans-69"/>
      <use x="260.791015625" xlink:href="#DejaVuSans-74"/>
      <use x="300.0" xlink:href="#DejaVuSans-79"/>
      <use x="359.1796875" xlink:href="#DejaVuSans-23"/>
      <use x="442.96875" xlink:href="#DejaVuSans-31"/>
      <use x="506.591796875" xlink:href="#DejaVuSans-31"/>
     </g>
    </g>
    <g id="line2d_51">
     <path d="
M481.255 120.897
L501.415 120.897" style="fill:none;stroke:#bf00bf;stroke-linecap:square;"/>
    </g>
    <g id="line2d_52"/>
    <g id="text_21">
     <!-- locality#12 -->
     <g transform="translate(517.255 125.9375)scale(0.144 -0.144)">
      <use xlink:href="#DejaVuSans-6c"/>
      <use x="27.783203125" xlink:href="#DejaVuSans-6f"/>
      <use x="88.96484375" xlink:href="#DejaVuSans-63"/>
      <use x="143.9453125" xlink:href="#DejaVuSans-61"/>
      <use x="205.224609375" xlink:href="#DejaVuSans-6c"/>
      <use x="233.0078125" xlink:href="#DejaVuSans-69"/>
      <use x="260.791015625" xlink:href="#DejaVuSans-74"/>
      <use x="300.0" xlink:href="#DejaVuSans-79"/>
      <use x="359.1796875" xlink:href="#DejaVuSans-23"/>
      <use x="442.96875" xlink:href="#DejaVuSans-31"/>
      <use x="506.591796875" xlink:href="#DejaVuSans-32"/>
     </g>
    </g>
    <g id="line2d_53">
     <path d="
M481.255 142.034
L501.415 142.034" style="fill:none;stroke:#bfbf00;stroke-linecap:square;"/>
    </g>
    <g id="line2d_54"/>
    <g id="text_22">
     <!-- locality#13 -->
     <g transform="translate(517.255 147.074)scale(0.144 -0.144)">
      <use xlink:href="#DejaVuSans-6c"/>
      <use x="27.783203125" xlink:href="#DejaVuSans-6f"/>
      <use x="88.96484375" xlink:href="#DejaVuSans-63"/>
      <use x="143.9453125" xlink:href="#DejaVuSans-61"/>
      <use x="205.224609375" xlink:href="#DejaVuSans-6c"/>
      <use x="233.0078125" xlink:href="#DejaVuSans-69"/>
      <use x="260.791015625" xlink:href="#DejaVuSans-74"/>
      <use x="300.0" xlink:href="#DejaVuSans-79"/>
      <use x="359.1796875" xlink:href="#DejaVuSans-23"/>
      <use x="442.96875" xlink:href="#DejaVuSans-31"/>
      <use x="506.591796875" xlink:href="#DejaVuSans-33"/>
     </g>
    </g>
    <g id="line2d_55">
     <path d="
M481.255 163.17
L501.415 163.17" style="fill:none;stroke:#000000;stroke-linecap:square;"/>
    </g>
    <g id="line2d_56"/>
    <g id="text_23">
     <!-- locality#14 -->
     <g transform="translate(517.255 168.2105)scale(0.144 -0.144)">
      <use xlink:href="#DejaVuSans-6c"/>
      <use x="27.783203125" xlink:href="#DejaVuSans-6f"/>
      <use x="88.96484375" xlink:href="#DejaVuSans-63"/>
      <use x="143.9453125" xlink:href="#DejaVuSans-61"/>
      <use x="205.224609375" xlink:href="#DejaVuSans-6c"/>
      <use x="233.0078125" xlink:href="#DejaVuSans-69"/>
      <use x="260.791015625" xlink:href="#DejaVuSans-74"/>
      <use x="300.0" xlink:href="#DejaVuSans-79"/>
      <use x="359.1796875" xlink:href="#DejaVuSans-23"/>
      <use x="442.96875" xlink:href="#DejaVuSans-31"/>
      <use x="506.591796875" xlink:href="#DejaVuSans-34"/>
     </g>
    </g>
    <g id="line2d_57">
     <path d="
M481.255 184.307
L501.415 184.307" style="fill:none;stroke:#0000ff;stroke-linecap:square;"/>
    </g>
    <g id="line2d_58"/>
    <g id="text_24">
     <!-- locality#15 -->
     <g transform="translate(517.255 189.347)scale(0.144 -0.144)">
      <use xlink:href="#DejaVuSans-6c"/>
      <use x="27.783203125" xlink:href="#DejaVuSans-6f"/>
      <use x="88.96484375" xlink:href="#DejaVuSans-63"/>
      <use x="143.9453125" xlink:href="#DejaVuSans-61"/>
      <use x="205.224609375" xlink:href="#DejaVuSans-6c"/>
      <use x="233.0078125" xlink:href="#DejaVuSans-69"/>
      <use x="260.791015625" xlink:href="#DejaVuSans-74"/>
      <use x="300.0" xlink:href="#DejaVuSans-79"/>
      <use x="359.1796875" xlink:href="#DejaVuSans-23"/>
      <use x="442.96875" xlink:href="#DejaVuSans-31"/>
      <use x="506.591796875" xlink:href="#DejaVuSans-35"/>
     </g>
    </g>
    <g id="line2d_59">
     <path d="
M481.255 205.443
L501.415 205.443" style="fill:none;stroke:#008000;stroke-linecap:square;"/>
    </g>
    <g id="line2d_60"/>
    <g id="text_25">
     <!-- locality#2 -->
     <g transform="translate(517.255 210.4835)scale(0.144 -0.144)">
      <use xlink:href="#DejaVuSans-6c"/>
      <use x="27.783203125" xlink:href="#DejaVuSans-6f"/>
      <use x="88.96484375" xlink:href="#DejaVuSans-63"/>
      <use x="143.9453125" xlink:href="#DejaVuSans-61"/>
      <use x="205.224609375" xlink:href="#DejaVuSans-6c"/>
      <use x="233.0078125" xlink:href="#DejaVuSans-69"/>
      <use x="260.791015625" xlink:href="#DejaVuSans-74"/>
      <use x="300.0" xlink:href="#DejaVuSans-79"/>
      <use x="359.1796875" xlink:href="#DejaVuSans-23"/>
      <use x="442.96875" xlink:href="#DejaVuSans-32"/>
     </g>
    </g>
    <g id="line2d_61">
     <path d="
M481.255 226.58
L501.415 226.58" style="fill:none;stroke:#ff0000;stroke-linecap:square;"/>
    </g>
    <g id="line2d_62"/>
    <g id="text_26">
     <!-- locality#3 -->
     <g transform="translate(517.255 231.62)scale(0.144 -0.144)">
      <use xlink:href="#DejaVuSans-6c"/>
      <use x="27.783203125" xlink:href="#DejaVuSans-6f"/>
      <use x="88.96484375" xlink:href="#DejaVuSans-63"/>
      <use x="143.9453125" xlink:href="#DejaVuSans-61"/>
      <use x="205.224609375" xlink:href="#DejaVuSans-6c"/>
      <use x="233.0078125" xlink:href="#DejaVuSans-69"/>
      <use x="260.791015625" xlink:href="#DejaVuSans-74"/>
      <use x="300.0" xlink:href="#DejaVuSans-79"/>
      <use x="359.1796875" xlink:href="#DejaVuSans-23"/>
      <use x="442.96875" xlink:href="#DejaVuSans-33"/>
     </g>
    </g>
    <g id="line2d_63">
     <path d="
M481.255 247.716
L501.415 247.716" style="fill:none;stroke:#00bfbf;stroke-linecap:square;"/>
    </g>
    <g id="line2d_64"/>
    <g id="text_27">
     <!-- locality#4 -->
     <g transform="translate(517.255 252.7565)scale(0.144 -0.144)">
      <use xlink:href="#DejaVuSans-6c"/>
      <use x="27.783203125" xlink:href="#DejaVuSans-6f"/>
      <use x="88.96484375" xlink:href="#DejaVuSans-63"/>
      <use x="143.9453125" xlink:href="#DejaVuSans-61"/>
      <use x="205.224609375" xlink:href="#DejaVuSans-6c"/>
      <use x="233.0078125" xlink:href="#DejaVuSans-69"/>
      <use x="260.791015625" xlink:href="#DejaVuSans-74"/>
      <use x="300.0" xlink:href="#DejaVuSans-79"/>
      <use x="359.1796875" xlink:href="#DejaVuSans-23"/>
      <use x="442.96875" xlink:href="#DejaVuSans-34"/>
     </g>
    </g>
    <g id="line2d_65">
     <path d="
M481.255 268.853
L501.415 268.853" style="fill:none;stroke:#bf00bf;stroke-linecap:square;"/>
    </g>
    <g id="line2d_66"/>
    <g id="text_28">
     <!-- locality#5 -->
     <g transform="translate(517.255 273.893)scale(0.144 -0.144)">
      <use xlink:href="#DejaVuSans-6c"/>
      <use x="27.783203125" xlink:href="#DejaVuSans-6f"/>
      <use x="88.96484375" xlink:href="#DejaVuSans-63"/>
      <use x="143.9453125" xlink:href="#DejaVuSans-61"/>
      <use x="205.224609375" xlink:href="#DejaVuSans-6c"/>
      <use x="233.0078125" xlink:href="#DejaVuSans-69"/>
      <use x="260.791015625" xlink:href="#DejaVuSans-74"/>
      <use x="300.0" xlink:href="#DejaVuSans-79"/>
      <use x="359.1796875" xlink:href="#DejaVuSans-23"/>
      <use x="442.96875" xlink:href="#DejaVuSans-35"/>
     </g>
    </g>
    <g id="line2d_67">
     <path d="
M481.255 289.989
L501.415 289.989" style="fill:none;stroke:#bfbf00;stroke-linecap:square;"/>
    </g>
    <g id="line2d_68"/>
    <g id="text_29">
     <!-- locality#6 -->
     <g transform="translate(517.255 295.0295)scale(0.144 -0.144)">
      <use xlink:href="#DejaVuSans-6c"/>
      <use x="27.783203125" xlink:href="#DejaVuSans-6f"/>
      <use x="88.96484375" xlink:href="#DejaVuSans-63"/>
      <use x="143.9453125" xlink:href="#DejaVuSans-61"/>
      <use x="205.224609375" xlink:href="#DejaVuSans-6c"/>
      <use x="233.0078125" xlink:href="#DejaVuSans-69"/>
      <use x="260.791015625" xlink:href="#DejaVuSans-74"/>
      <use x="300.0" xlink:href="#DejaVuSans-79"/>
      <use x="359.1796875" xlink:href="#DejaVuSans-23"/>
      <use x="442.96875" xlink:href="#DejaVuSans-36"/>
     </g>
    </g>
    <g id="line2d_69">
     <path d="
M481.255 311.126
L501.415 311.126" style="fill:none;stroke:#000000;stroke-linecap:square;"/>
    </g>
    <g id="line2d_70"/>
    <g id="text_30">
     <!-- locality#7 -->
     <g transform="translate(517.255 316.166)scale(0.144 -0.144)">
      <use xlink:href="#DejaVuSans-6c"/>
      <use x="27.783203125" xlink:href="#DejaVuSans-6f"/>
      <use x="88.96484375" xlink:href="#DejaVuSans-63"/>
      <use x="143.9453125" xlink:href="#DejaVuSans-61"/>
      <use x="205.224609375" xlink:href="#DejaVuSans-6c"/>
      <use x="233.0078125" xlink:href="#DejaVuSans-69"/>
      <use x="260.791015625" xlink:href="#DejaVuSans-74"/>
      <use x="300.0" xlink:href="#DejaVuSans-79"/>
      <use x="359.1796875" xlink:href="#DejaVuSans-23"/>
      <use x="442.96875" xlink:href="#DejaVuSans-37"/>
     </g>
    </g>
    <g id="line2d_71">
     <path d="
M481.255 332.262
L501.415 332.262" style="fill:none;stroke:#0000ff;stroke-linecap:square;"/>
    </g>
    <g id="line2d_72"/>
    <g id="text_31">
     <!-- locality#8 -->
     <defs>
      <path d="
M31.7812 34.625
Q24.75 34.625 20.7188 30.8594
Q16.7031 27.0938 16.7031 20.5156
Q16.7031 13.9219 20.7188 10.1562
Q24.75 6.39062 31.7812 6.39062
Q38.8125 6.39062 42.8594 10.1719
Q46.9219 13.9688 46.9219 20.5156
Q46.9219 27.0938 42.8906 30.8594
Q38.875 34.625 31.7812 34.625
M21.9219 38.8125
Q15.5781 40.375 12.0312 44.7188
Q8.5 49.0781 8.5 55.3281
Q8.5 64.0625 14.7188 69.1406
Q20.9531 74.2188 31.7812 74.2188
Q42.6719 74.2188 48.875 69.1406
Q55.0781 64.0625 55.0781 55.3281
Q55.0781 49.0781 51.5312 44.7188
Q48 40.375 41.7031 38.8125
Q48.8281 37.1562 52.7969 32.3125
Q56.7812 27.4844 56.7812 20.5156
Q56.7812 9.90625 50.3125 4.23438
Q43.8438 -1.42188 31.7812 -1.42188
Q19.7344 -1.42188 13.25 4.23438
Q6.78125 9.90625 6.78125 20.5156
Q6.78125 27.4844 10.7812 32.3125
Q14.7969 37.1562 21.9219 38.8125
M18.3125 54.3906
Q18.3125 48.7344 21.8438 45.5625
Q25.3906 42.3906 31.7812 42.3906
Q38.1406 42.3906 41.7188 45.5625
Q45.3125 48.7344 45.3125 54.3906
Q45.3125 60.0625 41.7188 63.2344
Q38.1406 66.4062 31.7812 66.4062
Q25.3906 66.4062 21.8438 63.2344
Q18.3125 60.0625 18.3125 54.3906" id="DejaVuSans-38"/>
     </defs>
     <g transform="translate(517.255 337.3025)scale(0.144 -0.144)">
      <use xlink:href="#DejaVuSans-6c"/>
      <use x="27.783203125" xlink:href="#DejaVuSans-6f"/>
      <use x="88.96484375" xlink:href="#DejaVuSans-63"/>
      <use x="143.9453125" xlink:href="#DejaVuSans-61"/>
      <use x="205.224609375" xlink:href="#DejaVuSans-6c"/>
      <use x="233.0078125" xlink:href="#DejaVuSans-69"/>
      <use x="260.791015625" xlink:href="#DejaVuSans-74"/>
      <use x="300.0" xlink:href="#DejaVuSans-79"/>
      <use x="359.1796875" xlink:href="#DejaVuSans-23"/>
      <use x="442.96875" xlink:href="#DejaVuSans-38"/>
     </g>
    </g>
    <g id="line2d_73">
     <path d="
M481.255 353.399
L501.415 353.399" style="fill:none;stroke:#008000;stroke-linecap:square;"/>
    </g>
    <g id="line2d_74"/>
    <g id="text_32">
     <!-- locality#9 -->
     <defs>
      <path d="
M10.9844 1.51562
L10.9844 10.5
Q14.7031 8.73438 18.5 7.8125
Q22.3125 6.89062 25.9844 6.89062
Q35.75 6.89062 40.8906 13.4531
Q46.0469 20.0156 46.7812 33.4062
Q43.9531 29.2031 39.5938 26.9531
Q35.25 24.7031 29.9844 24.7031
Q19.0469 24.7031 12.6719 31.3125
Q6.29688 37.9375 6.29688 49.4219
Q6.29688 60.6406 12.9375 67.4219
Q19.5781 74.2188 30.6094 74.2188
Q43.2656 74.2188 49.9219 64.5156
Q56.5938 54.8281 56.5938 36.375
Q56.5938 19.1406 48.4062 8.85938
Q40.2344 -1.42188 26.4219 -1.42188
Q22.7031 -1.42188 18.8906 -0.6875
Q15.0938 0.046875 10.9844 1.51562
M30.6094 32.4219
Q37.25 32.4219 41.125 36.9531
Q45.0156 41.5 45.0156 49.4219
Q45.0156 57.2812 41.125 61.8438
Q37.25 66.4062 30.6094 66.4062
Q23.9688 66.4062 20.0938 61.8438
Q16.2188 57.2812 16.2188 49.4219
Q16.2188 41.5 20.0938 36.9531
Q23.9688 32.4219 30.6094 32.4219" id="DejaVuSans-39"/>
     </defs>
     <g transform="translate(517.255 358.439)scale(0.144 -0.144)">
      <use xlink:href="#DejaVuSans-6c"/>
      <use x="27.783203125" xlink:href="#DejaVuSans-6f"/>
      <use x="88.96484375" xlink:href="#DejaVuSans-63"/>
      <use x="143.9453125" xlink:href="#DejaVuSans-61"/>
      <use x="205.224609375" xlink:href="#DejaVuSans-6c"/>
      <use x="233.0078125" xlink:href="#DejaVuSans-69"/>
      <use x="260.791015625" xlink:href="#DejaVuSans-74"/>
      <use x="300.0" xlink:href="#DejaVuSans-79"/>
      <use x="359.1796875" xlink:href="#DejaVuSans-23"/>
      <use x="442.96875" xlink:href="#DejaVuSans-39"/>
     </g>
    </g>
   </g>
  </g>
 </g>
 <defs>
  <clipPath id="pf51f381abf">
   <rect height="345.6" width="446.4" x="17.575" y="23.14175"/>
  </clipPath>
 </defs>
</svg>
