<?xml version="1.0" encoding="utf-8" standalone="no"?>
<!DOCTYPE svg PUBLIC "-//W3C//DTD SVG 1.1//EN"
  "http://www.w3.org/Graphics/SVG/1.1/DTD/svg11.dtd">
<!-- Created with matplotlib (http://matplotlib.org/) -->
<svg height="408pt" version="1.1" viewBox="0 0 621 408" width="621pt" xmlns="http://www.w3.org/2000/svg" xmlns:xlink="http://www.w3.org/1999/xlink">
 <defs>
  <style type="text/css">
*{stroke-linecap:butt;stroke-linejoin:round;}
  </style>
 </defs>
 <g id="figure_1">
  <g id="patch_1">
   <path d="
M0 408.169
L621.285 408.169
L621.285 0
L0 0
z
" style="fill:#ffffff;"/>
  </g>
  <g id="axes_1">
   <g id="patch_2">
    <path d="
M28.6956 368.742
L475.096 368.742
L475.096 23.1417
L28.6956 23.1417
z
" style="fill:#ffffff;"/>
   </g>
   <g id="line2d_1">
    <path clip-path="url(#p2118423672)" d="
M28.6956 368.313
L31.3794 366.725
L42.1145 360.776
L70.7413 344.877
L72.5305 343.805
L77.0034 341.252
L79.6872 339.602
L81.4764 338.529
L85.9493 335.721
L88.6331 334.154
L92.2115 331.93
L94.0006 330.855
L97.579 328.626
L99.3682 327.552
L104.736 324.167
L106.525 323.093
L110.103 320.917
L116.365 316.987
L120.838 314.181
L122.627 313.107
L129.784 308.567
L131.573 307.493
L137.836 303.528
L141.414 301.382
L145.887 298.575
L151.254 295.273
L158.411 290.729
L160.2 289.656
L162.884 288.004
L166.462 285.772
L172.724 281.809
L175.408 280.208
L186.143 273.551
L193.3 269.011
L195.984 267.443
L202.246 263.523
L207.613 260.178
L212.086 257.37
L213.876 256.296
L221.927 251.238
L260.394 227.315
L262.183 226.242
L265.762 224.015
L267.551 222.941
L272.918 219.556
L281.864 214.109
L286.337 211.285
L306.018 198.996
L307.807 197.925
L312.28 195.032
L314.964 193.466
L322.121 188.926
L324.805 187.345
L331.067 183.488
L332.856 182.409
L335.54 180.759
L340.907 177.541
L348.064 172.998
L350.748 171.431
L353.431 169.782
L356.115 168.214
L359.694 165.988
L361.483 164.914
L365.956 162.108
L367.745 161.034
L372.218 158.224
L374.007 157.134
L405.318 137.584
L408.001 135.998
L413.369 132.717
L416.053 131.15
L422.315 127.19
L424.104 126.111
L431.261 121.568
L434.839 119.422
L440.207 116.07
L448.258 111.233
L453.625 107.869
L455.415 106.793
L459.888 103.988
L462.571 102.422
L467.939 99.0355
L470.623 97.4675
L475.096 94.5753
L475.096 94.5753" style="fill:none;stroke:#0000ff;stroke-linecap:square;"/>
   </g>
   <g id="line2d_2">
    <path clip-path="url(#p2118423672)" d="
M28.6956 368.724
L36.7469 365.852
L50.1658 361.052
L70.7413 353.614
L72.5305 352.907
L77.0034 351.231
L79.6872 350.116
L83.2656 348.68
L87.7385 346.769
L90.4223 345.732
L94.8952 343.82
L96.6844 343.103
L102.947 340.438
L111.892 336.728
L117.26 334.419
L118.155 334.099
L119.944 333.303
L125.311 331.035
L134.257 327.17
L138.73 325.284
L142.308 323.788
L151.254 320.078
L154.833 318.486
L158.411 316.973
L160.2 316.255
L165.568 313.971
L169.146 312.51
L172.724 310.918
L174.514 310.2
L224.611 288.964
L227.294 287.815
L229.978 286.778
L238.924 282.876
L240.713 282.158
L245.186 280.246
L246.975 279.529
L251.448 277.641
L255.027 276.182
L259.5 274.277
L262.183 273.233
L265.762 271.72
L267.551 271.002
L271.129 269.41
L273.813 268.31
L277.391 266.859
L280.075 265.757
L281.864 265.026
L284.548 263.832
L292.599 260.328
L295.283 259.212
L297.967 258.018
L299.756 257.301
L301.545 256.584
L305.124 255.092
L307.807 254.032
L309.597 253.195
L315.859 250.607
L322.121 247.899
L323.91 247.181
L343.591 239.053
L348.064 237.142
L350.748 236.104
L353.431 234.99
L356.115 233.952
L359.694 232.439
L361.483 231.72
L365.956 229.81
L367.745 229.092
L372.218 227.18
L373.112 226.859
L374.902 226.064
L379.375 224.074
L381.164 223.318
L384.742 221.843
L386.531 221.046
L391.899 218.737
L393.688 218.02
L430.366 202.72
L433.945 201.207
L435.734 200.489
L440.207 198.586
L442.89 197.54
L446.469 196.038
L449.153 194.946
L455.415 192.36
L459.888 190.449
L462.571 189.412
L467.939 187.102
L470.623 186.065
L475.096 184.075
L475.096 184.075" style="fill:none;stroke:#008000;stroke-linecap:square;"/>
   </g>
   <g id="line2d_3">
    <path clip-path="url(#p2118423672)" d="
M28.6956 368.722
L33.1686 365.957
L67.163 344.976
L68.9521 343.737
L70.7413 342.615
L72.5305 341.394
L76.1089 339.186
L79.6872 336.571
L81.4764 335.33
L85.9493 332.028
L86.8439 331.474
L89.5277 329.546
L90.4223 328.993
L94.8952 325.689
L95.7898 325.137
L101.157 321.146
L103.841 319.216
L107.419 316.6
L108.314 316.048
L113.682 312.056
L114.576 311.502
L120.838 306.823
L123.522 304.894
L126.206 302.942
L140.519 292.365
L141.414 291.811
L143.203 290.435
L145.887 288.507
L153.044 283.239
L176.303 266.336
L178.092 265.095
L183.46 261.104
L184.354 260.55
L186.143 259.144
L196.878 251.325
L197.773 250.772
L204.035 246.093
L204.93 245.538
L206.719 244.106
L211.192 240.858
L214.77 238.242
L217.454 236.314
L220.138 234.249
L227.294 228.88
L228.189 228.327
L234.451 223.648
L235.346 223.087
L238.029 221.029
L241.608 218.414
L252.343 210.7
L256.816 207.396
L257.71 206.844
L260.394 204.916
L261.289 204.364
L265.762 201.061
L266.656 200.508
L272.918 195.826
L288.126 184.808
L293.494 180.775
L295.283 179.439
L297.072 178.062
L299.756 176.135
L300.651 175.582
L304.229 172.967
L310.491 168.421
L314.07 165.807
L314.964 165.253
L322.121 159.886
L323.015 159.333
L326.594 156.716
L327.488 156.164
L330.172 154.237
L333.751 151.621
L334.645 151.067
L337.329 149.14
L340.013 147.219
L341.802 145.971
L344.486 143.906
L348.064 141.293
L349.853 140.187
L353.431 137.573
L355.221 136.335
L356.115 135.779
L359.694 133.166
L360.588 132.61
L365.956 128.62
L366.85 128.065
L372.218 124.074
L373.112 123.513
L374.902 122.144
L379.375 118.704
L380.269 118.151
L382.058 116.775
L387.426 112.783
L391.004 110.166
L393.688 108.238
L397.266 105.623
L409.791 96.6696
L410.685 96.1167
L413.369 94.1892
L414.264 93.6372
L416.947 91.7098
L417.842 91.1558
L424.999 85.7872
L425.893 85.2352
L427.682 83.838
L433.945 79.1793
L434.839 78.6263
L438.417 75.9336
L445.574 70.9135
L450.942 67.0586
L451.836 66.5057
L456.309 63.2027
L457.204 62.6478
L460.782 60.0331
L461.677 59.4801
L467.939 54.8007
L468.834 54.2487
L475.096 49.5663
L475.096 49.5663" style="fill:none;stroke:#ff0000;stroke-linecap:square;"/>
   </g>
   <g id="line2d_4">
    <path clip-path="url(#p2118423672)" d="
M28.6956 368.724
L34.9577 364.964
L70.7413 343.344
L72.5305 342.155
L76.1089 340.009
L79.6872 337.467
L81.4764 336.262
L85.9493 333.051
L86.8439 332.513
L89.5277 330.639
L90.4223 330.102
L94.8952 326.891
L95.7898 326.354
L101.157 322.475
L106.525 318.725
L109.209 316.852
L116.365 311.765
L120.838 308.553
L123.522 306.679
L126.206 304.783
L140.519 294.501
L141.414 293.963
L143.203 292.625
L145.887 290.751
L153.938 284.995
L158.411 281.785
L159.306 281.247
L162.884 278.704
L167.357 275.492
L172.724 271.612
L173.619 271.074
L176.303 269.201
L178.092 267.995
L183.46 264.116
L184.354 263.578
L186.143 262.213
L196.878 254.611
L197.773 254.075
L204.035 249.527
L204.93 248.988
L206.719 247.595
L211.192 244.438
L214.77 241.896
L217.454 240.021
L220.138 238.014
L227.294 232.797
L228.189 232.258
L234.451 227.709
L235.346 227.168
L238.029 225.166
L241.608 222.623
L255.921 212.583
L258.605 210.709
L260.394 209.504
L261.289 208.967
L265.762 205.756
L266.656 205.22
L272.024 201.207
L273.813 200.046
L277.391 197.59
L279.181 196.384
L284.548 192.503
L292.599 186.615
L294.389 185.41
L299.756 181.529
L300.651 180.993
L304.229 178.45
L310.491 174.033
L314.07 171.492
L314.964 170.954
L322.121 165.735
L323.015 165.198
L326.594 162.656
L327.488 162.119
L330.172 160.245
L333.751 157.704
L334.645 157.165
L337.329 155.291
L340.013 153.424
L341.802 152.212
L344.486 150.205
L348.064 147.664
L350.748 145.921
L353.431 144.048
L356.115 142.305
L359.694 139.765
L361.483 138.556
L365.956 135.346
L366.85 134.808
L372.218 130.927
L373.112 130.384
L374.902 129.053
L379.375 125.709
L380.269 125.172
L382.058 123.834
L387.426 119.954
L391.004 117.411
L393.688 115.536
L397.266 112.994
L409.791 104.293
L410.685 103.755
L413.369 101.881
L414.264 101.345
L416.947 99.471
L417.842 98.9338
L424.999 93.7152
L425.893 93.1781
L427.682 91.8223
L433.945 87.293
L434.839 86.7549
L439.312 83.5428
L444.68 79.8636
L452.731 74.3054
L456.309 71.7627
L458.098 70.5561
L460.782 68.6829
L461.677 68.1458
L467.939 63.5977
L468.834 63.0605
L475.096 58.5105
L475.096 58.5105" style="fill:none;stroke:#00bfbf;stroke-linecap:square;"/>
   </g>
   <g id="line2d_5">
    <path clip-path="url(#p2118423672)" d="
M28.6956 368.724
L31.3794 367.208
L59.1117 351.496
L67.163 346.933
L68.9521 345.795
L76.1089 341.617
L79.6872 339.215
L81.4764 338.077
L85.9493 335.043
L88.6331 333.397
L92.2115 330.999
L94.0006 329.856
L97.579 327.454
L100.263 325.683
L104.736 322.65
L106.525 321.511
L109.209 319.74
L116.365 314.936
L120.838 311.901
L123.522 310.131
L126.206 308.341
L140.519 298.626
L141.414 298.119
L143.203 296.855
L145.887 295.085
L154.833 289.016
L158.411 286.615
L160.2 285.475
L162.884 283.705
L167.357 280.671
L172.724 277.005
L174.514 275.866
L184.354 269.416
L186.143 268.129
L195.089 262.084
L197.773 260.439
L204.035 256.141
L204.93 255.634
L206.719 254.317
L211.192 251.336
L214.77 248.933
L218.349 246.492
L223.716 242.852
L225.505 241.516
L229.978 238.692
L238.924 232.498
L240.713 231.36
L245.186 228.325
L246.975 227.187
L250.554 224.785
L258.605 219.473
L260.394 218.335
L262.183 217.196
L265.762 214.794
L267.551 213.655
L270.235 211.759
L272.918 209.989
L289.021 199.24
L290.81 197.913
L295.283 194.942
L297.072 193.679
L299.756 191.908
L301.545 190.77
L304.229 189
L310.491 184.826
L314.07 182.427
L315.859 181.286
L322.121 176.989
L323.91 175.85
L332.856 170.032
L335.54 168.261
L344.486 162.318
L348.064 159.916
L350.748 158.27
L353.431 156.501
L356.115 154.855
L359.694 152.455
L361.483 151.314
L365.956 148.281
L367.745 147.141
L372.218 144.107
L373.112 143.596
L374.902 142.336
L379.375 139.176
L380.269 138.67
L382.058 137.406
L387.426 133.741
L391.004 131.338
L393.688 129.568
L399.056 126.026
L400.845 124.762
L403.528 122.994
L406.212 121.347
L409.791 118.945
L412.474 117.3
L415.158 115.53
L417.842 113.884
L424.999 108.954
L425.893 108.448
L427.682 107.166
L433.945 102.886
L435.734 101.747
L439.312 99.3446
L441.996 97.6156
L445.574 95.2971
L450.942 91.7562
L452.731 90.6177
L456.309 88.2163
L458.098 87.0768
L460.782 85.3063
L462.571 84.1678
L467.939 80.5025
L470.623 78.8564
L475.096 75.6966
L475.096 75.6966" style="fill:none;stroke:#bf00bf;stroke-linecap:square;"/>
   </g>
   <g id="line2d_6">
    <path clip-path="url(#p2118423672)" d="
M28.6956 368.724
L32.274 366.857
L70.7413 346.632
L72.5305 345.596
L77.0034 343.145
L79.6872 341.513
L81.4764 340.463
L85.9493 337.667
L88.6331 336.149
L92.2115 333.939
L94.0006 332.885
L97.579 330.67
L100.263 329.038
L104.736 326.241
L106.525 325.191
L109.209 323.559
L125.311 313.604
L134.257 307.94
L137.836 305.726
L150.36 298.148
L158.411 293.021
L160.2 291.971
L162.884 290.339
L170.935 285.326
L174.514 283.112
L188.827 274.368
L195.089 270.406
L197.773 268.889
L204.035 264.927
L204.93 264.459
L206.719 263.244
L211.192 260.497
L214.77 258.283
L219.243 255.485
L227.294 250.359
L229.978 248.841
L238.924 243.131
L240.713 242.081
L245.186 239.284
L246.975 238.234
L250.554 236.02
L267.551 225.76
L270.235 224.012
L272.918 222.38
L280.075 218.097
L281.864 217.016
L283.654 215.851
L292.599 210.141
L294.389 209.091
L299.756 205.711
L301.545 204.662
L304.229 203.03
L311.386 198.6
L314.07 196.97
L315.859 195.918
L322.121 191.956
L323.91 190.906
L332.856 185.542
L335.54 183.91
L344.486 178.431
L348.064 176.218
L350.748 174.699
L353.431 173.068
L356.115 171.55
L359.694 169.338
L361.483 168.286
L365.956 165.489
L367.745 164.44
L372.218 161.642
L373.112 161.17
L374.902 160.01
L379.375 157.097
L380.269 156.63
L382.058 155.465
L387.426 152.086
L391.004 149.87
L393.688 148.239
L399.056 144.974
L400.845 143.809
L403.528 142.179
L406.212 140.661
L409.791 138.447
L412.474 136.929
L415.158 135.297
L417.842 133.78
L424.999 129.235
L425.893 128.768
L427.682 127.588
L433.945 123.642
L435.734 122.591
L439.312 120.377
L441.996 118.779
L445.574 116.645
L450.942 113.381
L452.731 112.331
L456.309 110.117
L458.098 109.067
L460.782 107.435
L462.571 106.385
L467.939 103.006
L470.623 101.488
L475.096 98.5764
L475.096 98.5764" style="fill:none;stroke:#bfbf00;stroke-linecap:square;"/>
   </g>
   <g id="line2d_7">
    <path clip-path="url(#p2118423672)" d="
M28.6956 368.724
L34.0632 366.184
L67.163 350.535
L68.9521 349.585
L76.1089 346.099
L79.6872 344.095
L81.4764 343.146
L85.9493 340.615
L88.6331 339.242
L92.2115 337.241
L94.0006 336.288
L97.579 334.284
L102.052 331.803
L107.419 328.799
L109.209 327.849
L127.1 317.829
L128.89 316.775
L135.152 313.19
L141.414 309.814
L144.098 308.233
L171.83 292.727
L174.514 291.25
L189.722 282.811
L195.089 279.754
L197.773 278.381
L204.035 274.796
L204.93 274.373
L206.719 273.272
L211.192 270.787
L214.77 268.783
L219.243 266.253
L227.294 261.614
L229.978 260.24
L238.924 255.074
L240.713 254.124
L245.186 251.593
L246.975 250.643
L250.554 248.639
L269.34 238.3
L272.918 236.297
L280.075 232.417
L281.864 231.443
L283.654 230.389
L292.599 225.223
L295.283 223.746
L297.072 222.691
L299.756 221.214
L301.545 220.264
L304.229 218.788
L311.386 214.78
L314.07 213.304
L315.859 212.353
L322.121 208.768
L323.91 207.818
L332.856 202.964
L335.54 201.488
L374.902 179.861
L379.375 177.226
L380.269 176.803
L382.058 175.749
L387.426 172.691
L396.372 167.733
L401.739 164.675
L404.423 163.302
L407.107 161.826
L419.631 155.039
L422.315 153.498
L424.104 152.541
L431.261 148.429
L439.312 143.998
L441.996 142.55
L445.574 140.622
L450.942 137.668
L452.731 136.718
L456.309 134.714
L458.098 133.764
L460.782 132.288
L462.571 131.337
L467.939 128.28
L470.623 126.907
L475.096 124.271
L475.096 124.271" style="fill:none;stroke:#000000;stroke-linecap:square;"/>
   </g>
   <g id="line2d_8">
    <path clip-path="url(#p2118423672)" d="
M28.6956 368.724
L36.7469 365.312
L47.482 360.756
L70.7413 350.8
L72.5305 349.961
L77.0034 347.973
L79.6872 346.65
L83.2656 344.948
L87.7385 342.681
L90.4223 341.45
L94.8952 339.182
L96.6844 338.331
L101.157 336.064
L106.525 333.416
L110.103 331.648
L111.892 330.77
L117.26 328.031
L118.155 327.651
L119.944 326.706
L123.522 324.911
L127.1 323.115
L128.89 322.171
L135.152 318.958
L141.414 315.932
L144.098 314.516
L178.987 297.128
L180.776 296.274
L183.46 294.858
L184.354 294.478
L186.143 293.514
L196.878 288.147
L198.668 287.296
L204.035 284.557
L204.93 284.177
L206.719 283.189
L211.192 280.964
L214.77 279.169
L220.138 276.429
L227.294 272.745
L229.978 271.514
L238.924 266.885
L240.713 266.033
L245.186 263.766
L246.975 262.915
L250.554 261.119
L271.129 250.911
L273.813 249.611
L277.391 247.885
L280.075 246.582
L281.864 245.711
L283.654 244.766
L292.599 240.138
L295.283 238.814
L297.967 237.398
L299.756 236.546
L301.545 235.695
L305.124 233.931
L307.807 232.669
L309.597 231.679
L315.859 228.606
L322.121 225.394
L323.91 224.543
L341.802 215.844
L345.38 213.955
L348.959 212.253
L350.748 211.402
L353.431 210.08
L356.115 208.849
L359.694 207.055
L361.483 206.202
L365.956 203.935
L367.745 203.083
L372.218 200.816
L373.112 200.432
L374.902 199.493
L379.375 197.131
L380.269 196.751
L382.953 195.335
L387.426 193.067
L396.372 188.625
L401.739 185.885
L404.423 184.654
L407.107 183.332
L421.42 176.335
L424.999 174.54
L425.893 174.161
L427.682 173.202
L433.945 170.005
L435.734 169.153
L440.207 166.9
L442.89 165.655
L446.469 163.875
L449.153 162.583
L455.415 159.511
L459.888 157.243
L462.571 156.013
L467.939 153.273
L470.623 152.043
L475.096 149.682
L475.096 149.682" style="fill:none;stroke:#0000ff;stroke-linecap:square;"/>
   </g>
   <g id="line2d_9">
    <path clip-path="url(#p2118423672)" d="
M28.6956 368.723
L36.7469 365.905
L53.7441 359.941
L70.7413 353.894
L72.5305 353.202
L77.0034 351.557
L80.5818 350.129
L92.2115 345.382
L94.0006 344.675
L98.4736 342.837
L106.525 339.515
L110.103 338.048
L112.787 336.935
L117.26 335.06
L118.155 334.746
L119.944 333.965
L125.311 331.738
L134.257 327.946
L138.73 326.095
L142.308 324.627
L151.254 320.987
L154.833 319.424
L158.411 317.939
L160.2 317.235
L165.568 314.995
L169.146 313.56
L171.83 312.388
L175.408 310.923
L179.881 309.167
L196.878 302.068
L198.668 301.364
L204.035 299.097
L204.93 298.784
L206.719 297.963
L211.192 296.126
L216.559 293.891
L219.243 292.765
L227.294 289.328
L229.978 288.309
L238.924 284.48
L240.713 283.776
L245.186 281.9
L246.975 281.196
L251.448 279.343
L255.027 277.912
L259.5 276.044
L262.183 275.018
L265.762 273.534
L267.551 272.829
L271.129 271.266
L273.813 270.188
L277.391 268.764
L280.075 267.682
L281.864 266.965
L284.548 265.792
L292.599 262.354
L295.283 261.259
L297.967 260.088
L299.756 259.384
L301.545 258.68
L305.124 257.216
L307.807 256.177
L309.597 255.354
L315.859 252.816
L322.121 250.158
L323.91 249.454
L344.486 241.087
L348.064 239.603
L350.748 238.584
L353.431 237.49
L356.115 236.472
L359.694 234.988
L361.483 234.283
L365.956 232.407
L367.745 231.702
L372.218 229.826
L374.007 229.075
L376.691 227.95
L378.48 227.169
L383.848 224.903
L384.742 224.589
L386.531 223.808
L391.899 221.542
L393.688 220.837
L428.577 206.599
L438.417 202.489
L443.785 200.351
L463.466 192.374
L467.939 190.498
L470.623 189.48
L475.096 187.527
L475.096 187.527" style="fill:none;stroke:#008000;stroke-linecap:square;"/>
   </g>
   <g id="line2d_10">
    <path clip-path="url(#p2118423672)" d="
M28.6956 368.724
L37.6415 365.43
L69.8467 353.504
L78.7926 349.972
L82.371 348.414
L84.1602 347.674
L87.7385 346.116
L90.4223 345.047
L94.8952 343.079
L96.6844 342.34
L102.052 339.997
L107.419 337.664
L109.209 336.925
L196.878 298.777
L198.668 298.038
L204.035 295.66
L204.93 295.33
L206.719 294.471
L213.876 291.393
L221.927 287.812
L223.716 287.033
L226.4 285.817
L229.084 284.668
L230.873 283.929
L238.924 280.321
L240.713 279.582
L245.186 277.613
L246.975 276.874
L251.448 274.931
L255.027 273.428
L259.5 271.468
L262.183 270.392
L265.762 268.835
L267.551 268.094
L271.129 266.454
L273.813 265.323
L277.391 263.827
L280.075 262.695
L282.759 261.49
L288.126 259.152
L298.862 254.323
L301.545 253.246
L305.124 251.711
L307.807 250.62
L309.597 249.758
L315.859 247.093
L322.121 244.304
L323.91 243.565
L343.591 235.194
L348.064 233.227
L350.748 232.158
L353.431 231.01
L356.115 229.942
L359.694 228.385
L361.483 227.644
L365.956 225.677
L367.745 224.937
L372.218 222.968
L374.007 222.181
L376.691 220.999
L378.48 220.179
L383.848 217.801
L384.742 217.472
L386.531 216.652
L391.899 214.274
L393.688 213.535
L425.893 199.83
L427.682 198.994
L438.417 194.282
L444.68 191.662
L451.836 188.671
L456.309 186.704
L458.098 185.964
L460.782 184.815
L462.571 184.076
L467.939 181.698
L470.623 180.63
L475.096 178.58
L475.096 178.58" style="fill:none;stroke:#ff0000;stroke-linecap:square;"/>
   </g>
   <g id="line2d_11">
    <path clip-path="url(#p2118423672)" d="
M28.6956 368.724
L34.9577 366.218
L76.1089 349.539
L79.6872 347.84
L83.2656 346.228
L87.7385 344.085
L90.4223 342.918
L94.8952 340.773
L96.6844 339.967
L102.052 337.414
L107.419 334.869
L109.209 334.064
L131.573 323.421
L135.152 321.634
L141.414 318.771
L144.098 317.43
L178.987 300.978
L180.776 300.168
L183.46 298.829
L184.354 298.469
L186.143 297.551
L223.716 279.677
L226.4 278.348
L229.084 277.096
L230.873 276.29
L238.924 272.357
L240.713 271.551
L245.186 269.405
L246.975 268.6
L251.448 266.484
L255.027 264.843
L259.5 262.707
L262.183 261.533
L265.762 259.835
L267.551 259.028
L271.129 257.24
L273.813 256.009
L277.391 254.377
L280.075 253.142
L281.864 252.319
L283.654 251.425
L292.599 247.044
L295.283 245.792
L297.967 244.451
L299.756 243.646
L301.545 242.841
L305.124 241.169
L307.807 239.977
L309.597 239.038
L315.859 236.132
L322.121 233.094
L323.91 232.287
L341.802 224.056
L344.486 222.715
L348.064 221.018
L350.748 219.852
L353.431 218.602
L356.115 217.436
L359.694 215.74
L361.483 214.931
L365.956 212.787
L367.745 211.98
L372.218 209.834
L374.007 208.978
L376.691 207.687
L378.48 206.794
L383.848 204.201
L384.742 203.842
L386.531 202.949
L391.899 200.357
L393.688 199.55
L400.845 196.151
L403.528 194.903
L406.212 193.735
L409.791 192.036
L412.474 190.872
L415.158 189.62
L417.842 188.455
L424.999 184.968
L425.893 184.61
L427.682 183.697
L438.417 178.563
L444.68 175.707
L452.731 171.999
L456.309 170.301
L458.098 169.493
L460.782 168.241
L462.571 167.436
L467.939 164.844
L470.623 163.679
L475.096 161.444
L475.096 161.444" style="fill:none;stroke:#00bfbf;stroke-linecap:square;"/>
   </g>
   <g id="line2d_12">
    <path clip-path="url(#p2118423672)" d="
M28.6956 368.724
L33.1686 366.737
L67.163 351.603
L68.9521 350.709
L76.1089 347.426
L79.6872 345.541
L83.2656 343.751
L87.7385 341.372
L90.4223 340.076
L94.8952 337.695
L96.6844 336.799
L101.157 334.419
L111.892 328.854
L117.26 325.979
L118.155 325.577
L119.944 324.585
L123.522 322.699
L127.1 320.811
L128.89 319.82
L136.046 315.999
L141.414 313.265
L143.203 312.273
L146.781 310.411
L150.36 308.598
L158.411 304.232
L160.2 303.335
L163.779 301.481
L175.408 295.324
L179.881 293.087
L204.035 280.3
L204.93 279.899
L206.719 278.862
L211.192 276.525
L214.77 274.639
L220.138 271.759
L227.294 267.89
L229.978 266.595
L238.924 261.731
L240.713 260.837
L245.186 258.455
L246.975 257.559
L250.554 255.673
L270.235 245.444
L273.813 243.585
L277.391 241.769
L280.075 240.402
L281.864 239.484
L283.654 238.491
L292.599 233.628
L295.283 232.237
L297.072 231.245
L299.756 229.855
L301.545 228.96
L305.124 227.106
L307.807 225.781
L309.597 224.739
L315.859 221.511
L322.121 218.138
L323.91 217.244
L341.802 208.103
L344.486 206.615
L348.064 204.731
L350.748 203.436
L353.431 202.049
L356.115 200.753
L359.694 198.87
L361.483 197.973
L365.956 195.593
L367.745 194.695
L372.218 192.313
L373.112 191.906
L375.796 190.402
L408.001 173.49
L418.737 168.08
L421.42 166.592
L424.999 164.705
L425.893 164.307
L427.682 163.293
L440.207 156.681
L442.89 155.37
L446.469 153.502
L449.153 152.142
L455.415 148.914
L459.888 146.533
L462.571 145.239
L467.939 142.361
L470.623 141.067
L475.096 138.587
L475.096 138.587" style="fill:none;stroke:#bf00bf;stroke-linecap:square;"/>
   </g>
   <g id="line2d_13">
    <path clip-path="url(#p2118423672)" d="
M28.6956 368.724
L33.1686 366.516
L67.163 349.69
L68.9521 348.697
L76.1089 345.047
L79.6872 342.951
L81.4764 341.956
L85.9493 339.309
L88.6331 337.869
L92.2115 335.777
L94.0006 334.777
L97.579 332.681
L101.157 330.585
L106.525 327.49
L109.209 325.945
L118.155 320.754
L119.944 319.651
L123.522 317.554
L126.206 315.984
L146.781 303.898
L150.36 301.874
L158.411 297.021
L160.2 296.024
L162.884 294.479
L170.935 289.731
L174.514 287.634
L190.616 278.248
L195.089 275.6
L197.773 274.162
L204.035 270.412
L204.93 269.966
L206.719 268.813
L211.192 266.214
L214.77 264.117
L219.243 261.466
L227.294 256.613
L229.978 255.174
L238.924 249.765
L240.713 248.771
L245.186 246.122
L246.975 245.127
L250.554 243.03
L267.551 233.311
L270.235 231.656
L272.918 230.111
L289.021 220.724
L290.81 219.564
L295.283 216.971
L297.072 215.869
L299.756 214.323
L301.545 213.328
L304.229 211.784
L316.753 204.495
L318.543 203.392
L322.121 201.296
L323.91 200.3
L335.54 193.674
L368.64 174.678
L370.429 173.576
L373.112 172.13
L375.796 170.458
L405.318 153.154
L407.107 152.159
L421.42 143.984
L424.999 141.887
L425.893 141.444
L427.682 140.316
L438.417 133.984
L445.574 129.962
L450.942 126.87
L452.731 125.876
L456.309 123.78
L458.098 122.782
L460.782 121.238
L462.571 120.243
L467.939 117.042
L470.623 115.605
L475.096 112.847
L475.096 112.847" style="fill:none;stroke:#bfbf00;stroke-linecap:square;"/>
   </g>
   <g id="line2d_14">
    <path clip-path="url(#p2118423672)" d="
M28.6956 368.723
L31.3794 367.274
L67.163 347.807
L68.9521 346.715
L76.1089 342.703
L79.6872 340.399
L81.4764 339.305
L85.9493 336.395
L88.6331 334.812
L92.2115 332.512
L94.0006 331.414
L97.579 329.109
L100.263 327.408
L104.736 324.497
L106.525 323.402
L109.209 321.703
L116.365 317.09
L120.838 314.179
L124.417 311.938
L129.784 308.356
L131.573 307.258
L134.257 305.438
L137.836 303.134
L147.676 296.942
L155.727 291.605
L157.516 290.509
L161.095 288.204
L170.935 281.891
L174.514 279.586
L184.354 273.393
L186.143 272.151
L224.611 247.238
L227.294 245.482
L229.978 243.899
L238.924 237.954
L240.713 236.861
L245.186 233.949
L246.975 232.855
L250.554 230.549
L267.551 219.865
L270.235 218.045
L272.918 216.346
L288.126 206.635
L297.967 200.083
L299.756 198.991
L301.545 197.897
L304.229 196.198
L311.386 191.585
L314.07 189.889
L315.859 188.792
L322.121 184.668
L323.91 183.575
L332.856 177.988
L335.54 176.29
L344.486 170.584
L348.064 168.281
L350.748 166.698
L353.431 165.002
L356.115 163.42
L359.694 161.118
L361.483 160.02
L365.956 157.111
L367.745 156.015
L372.218 153.102
L373.112 152.605
L374.902 151.402
L379.375 148.369
L380.269 147.883
L382.058 146.67
L387.426 143.152
L391.004 140.844
L393.688 139.146
L399.056 135.745
L400.845 134.533
L403.528 132.837
L406.212 131.254
L409.791 128.95
L412.474 127.368
L415.158 125.67
L417.842 124.089
L424.999 119.358
L425.893 118.87
L427.682 117.634
L438.417 110.671
L445.574 106.248
L450.942 102.849
L452.731 101.756
L456.309 99.4512
L458.098 98.3552
L460.782 96.6568
L462.571 95.5627
L467.939 92.0445
L470.623 90.4636
L475.096 87.4312
L475.096 87.4312" style="fill:none;stroke:#000000;stroke-linecap:square;"/>
   </g>
   <g id="line2d_15">
    <path clip-path="url(#p2118423672)" d="
M28.6956 368.724
L31.3794 367.163
L50.1658 356.162
L67.163 346.209
L68.9521 345.033
L70.7413 343.966
L72.5305 342.81
L77.0034 340.062
L79.6872 338.234
L81.4764 337.056
L85.9493 333.923
L88.6331 332.219
L92.2115 329.745
L94.0006 328.561
L97.579 326.08
L100.263 324.248
L104.736 321.114
L106.525 319.936
L109.209 318.107
L116.365 313.141
L120.838 310.006
L124.417 307.597
L129.784 303.739
L131.573 302.556
L134.257 300.597
L137.836 298.116
L143.203 294.456
L145.887 292.626
L153.938 287.007
L158.411 283.875
L160.2 282.695
L162.884 280.866
L167.357 277.73
L172.724 273.944
L174.514 272.765
L184.354 266.099
L186.143 264.764
L196.878 257.345
L198.668 256.168
L204.035 252.382
L204.93 251.855
L206.719 250.494
L211.192 247.413
L214.77 244.932
L217.454 243.101
L220.138 241.142
L227.294 236.05
L229.978 234.347
L238.924 227.947
L240.713 226.769
L245.186 223.634
L246.975 222.457
L250.554 219.975
L258.605 214.486
L260.394 213.31
L262.183 212.133
L265.762 209.653
L267.551 208.473
L270.235 206.513
L272.918 204.684
L288.126 194.23
L297.072 187.829
L299.756 186
L301.545 184.823
L304.229 182.996
L310.491 178.681
L314.07 176.201
L315.859 175.021
L322.121 170.582
L323.91 169.405
L332.856 163.391
L335.54 161.562
L344.486 155.419
L348.064 152.94
L350.748 151.237
L353.431 149.41
L356.115 147.707
L359.694 145.229
L361.483 144.047
L365.956 140.915
L367.745 139.735
L372.218 136.6
L373.112 136.068
L374.902 134.77
L379.375 131.505
L380.269 130.981
L382.058 129.675
L387.426 125.889
L391.004 123.403
L393.688 121.575
L397.266 119.094
L408.001 111.837
L418.737 104.713
L421.42 102.755
L424.999 100.272
L425.893 99.7474
L427.682 98.4194
L433.945 94.0026
L435.734 92.8226
L439.312 90.3412
L444.68 86.7499
L452.731 81.323
L456.309 78.8426
L458.098 77.6626
L460.782 75.8339
L462.571 74.6569
L467.939 70.8691
L469.728 69.6931
L471.517 68.5141
L475.096 65.9023
L475.096 65.9023" style="fill:none;stroke:#0000ff;stroke-linecap:square;"/>
   </g>
   <g id="line2d_16">
    <path clip-path="url(#p2118423672)" d="
M28.6956 368.724
L31.3794 367.091
L67.163 345.248
L68.9521 344.022
L70.7413 342.912
L72.5305 341.705
L76.1089 339.52
L79.6872 336.934
L81.4764 335.707
L85.9493 332.441
L88.6331 330.665
L92.2115 328.084
L94.0006 326.851
L97.579 324.264
L100.263 322.355
L104.736 319.088
L105.63 318.54
L109.209 315.953
L115.471 311.457
L120.838 307.508
L123.522 305.6
L126.206 303.668
L140.519 293.208
L141.414 292.659
L143.203 291.297
L145.887 289.39
L153.044 284.177
L219.243 236.401
L227.294 230.411
L228.189 229.863
L234.451 225.234
L235.346 224.68
L238.029 222.644
L241.608 220.057
L252.343 212.427
L256.816 209.159
L257.71 208.611
L260.394 206.706
L261.289 206.159
L265.762 202.892
L266.656 202.344
L272.918 197.714
L284.548 189.403
L292.599 183.412
L294.389 182.185
L299.756 178.236
L300.651 177.689
L304.229 175.103
L310.491 170.605
L314.07 168.02
L314.964 167.471
L322.121 162.163
L323.015 161.615
L326.594 159.028
L327.488 158.481
L330.172 156.575
L333.751 153.988
L334.645 153.44
L337.329 151.533
L340.013 149.635
L341.802 148.398
L344.486 146.356
L348.064 143.771
L349.853 142.676
L353.431 140.091
L354.326 139.544
L357.01 137.638
L361.483 134.501
L365.956 131.236
L366.85 130.687
L372.218 126.738
L373.112 126.184
L374.902 124.83
L379.375 121.426
L380.269 120.879
L382.058 119.519
L387.426 115.571
L391.004 112.981
L393.688 111.074
L397.266 108.487
L413.369 97.1782
L414.264 96.6311
L416.947 94.7254
L417.842 94.1774
L424.999 88.867
L425.893 88.3199
L427.682 86.9356
L433.945 82.3312
L434.839 81.7832
L439.312 78.5148
L444.68 74.7704
L452.731 69.1135
L456.309 66.5264
L458.098 65.298
L460.782 63.3913
L461.677 62.8443
L467.939 58.2152
L468.834 57.6692
L475.096 53.0381
L475.096 53.0381" style="fill:none;stroke:#008000;stroke-linecap:square;"/>
   </g>
   <g id="patch_3">
    <path d="
M28.6956 23.1417
L475.096 23.1417" style="fill:none;stroke:#000000;stroke-linecap:square;stroke-linejoin:miter;"/>
   </g>
   <g id="patch_4">
    <path d="
M475.096 368.742
L475.096 23.1417" style="fill:none;stroke:#000000;stroke-linecap:square;stroke-linejoin:miter;"/>
   </g>
   <g id="patch_5">
    <path d="
M28.6956 368.742
L475.096 368.742" style="fill:none;stroke:#000000;stroke-linecap:square;stroke-linejoin:miter;"/>
   </g>
   <g id="patch_6">
    <path d="
M28.6956 368.742
L28.6956 23.1417" style="fill:none;stroke:#000000;stroke-linecap:square;stroke-linejoin:miter;"/>
   </g>
   <g id="matplotlib.axis_1">
    <g id="xtick_1">
     <g id="line2d_17">
      <defs>
       <path d="
M0 0
L0 -4" id="m93b0483c22" style="stroke:#000000;stroke-width:0.5;"/>
      </defs>
      <g>
       <use style="stroke:#000000;stroke-width:0.5;" x="28.695625" xlink:href="#m93b0483c22" y="368.74175"/>
      </g>
     </g>
     <g id="line2d_18">
      <defs>
       <path d="
M0 0
L0 4" id="m741efc42ff" style="stroke:#000000;stroke-width:0.5;"/>
      </defs>
      <g>
       <use style="stroke:#000000;stroke-width:0.5;" x="28.695625" xlink:href="#m741efc42ff" y="23.14175"/>
      </g>
     </g>
     <g id="text_1">
      <!-- 0 -->
      <defs>
       <path d="
M31.7812 66.4062
Q24.1719 66.4062 20.3281 58.9062
Q16.5 51.4219 16.5 36.375
Q16.5 21.3906 20.3281 13.8906
Q24.1719 6.39062 31.7812 6.39062
Q39.4531 6.39062 43.2812 13.8906
Q47.125 21.3906 47.125 36.375
Q47.125 51.4219 43.2812 58.9062
Q39.4531 66.4062 31.7812 66.4062
M31.7812 74.2188
Q44.0469 74.2188 50.5156 64.5156
Q56.9844 54.8281 56.9844 36.375
Q56.9844 17.9688 50.5156 8.26562
Q44.0469 -1.42188 31.7812 -1.42188
Q19.5312 -1.42188 13.0625 8.26562
Q6.59375 17.9688 6.59375 36.375
Q6.59375 54.8281 13.0625 64.5156
Q19.5312 74.2188 31.7812 74.2188" id="DejaVuSans-30"/>
      </defs>
      <g transform="translate(25.6721875 381.859875)scale(0.12 -0.12)">
       <use xlink:href="#DejaVuSans-30"/>
      </g>
     </g>
    </g>
    <g id="xtick_2">
     <g id="line2d_19">
      <g>
       <use style="stroke:#000000;stroke-width:0.5;" x="118.154542836" xlink:href="#m93b0483c22" y="368.74175"/>
      </g>
     </g>
     <g id="line2d_20">
      <g>
       <use style="stroke:#000000;stroke-width:0.5;" x="118.154542836" xlink:href="#m741efc42ff" y="23.14175"/>
      </g>
     </g>
     <g id="text_2">
      <!-- 100 -->
      <defs>
       <path d="
M12.4062 8.29688
L28.5156 8.29688
L28.5156 63.9219
L10.9844 60.4062
L10.9844 69.3906
L28.4219 72.9062
L38.2812 72.9062
L38.2812 8.29688
L54.3906 8.29688
L54.3906 0
L12.4062 0
z
" id="DejaVuSans-31"/>
      </defs>
      <g transform="translate(107.759542836 381.859875)scale(0.12 -0.12)">
       <use xlink:href="#DejaVuSans-31"/>
       <use x="63.623046875" xlink:href="#DejaVuSans-30"/>
       <use x="127.24609375" xlink:href="#DejaVuSans-30"/>
      </g>
     </g>
    </g>
    <g id="xtick_3">
     <g id="line2d_21">
      <g>
       <use style="stroke:#000000;stroke-width:0.5;" x="207.613460671" xlink:href="#m93b0483c22" y="368.74175"/>
      </g>
     </g>
     <g id="line2d_22">
      <g>
       <use style="stroke:#000000;stroke-width:0.5;" x="207.613460671" xlink:href="#m741efc42ff" y="23.14175"/>
      </g>
     </g>
     <g id="text_3">
      <!-- 200 -->
      <defs>
       <path d="
M19.1875 8.29688
L53.6094 8.29688
L53.6094 0
L7.32812 0
L7.32812 8.29688
Q12.9375 14.1094 22.625 23.8906
Q32.3281 33.6875 34.8125 36.5312
Q39.5469 41.8438 41.4219 45.5312
Q43.3125 49.2188 43.3125 52.7812
Q43.3125 58.5938 39.2344 62.25
Q35.1562 65.9219 28.6094 65.9219
Q23.9688 65.9219 18.8125 64.3125
Q13.6719 62.7031 7.8125 59.4219
L7.8125 69.3906
Q13.7656 71.7812 18.9375 73
Q24.125 74.2188 28.4219 74.2188
Q39.75 74.2188 46.4844 68.5469
Q53.2188 62.8906 53.2188 53.4219
Q53.2188 48.9219 51.5312 44.8906
Q49.8594 40.875 45.4062 35.4062
Q44.1875 33.9844 37.6406 27.2188
Q31.1094 20.4531 19.1875 8.29688" id="DejaVuSans-32"/>
      </defs>
      <g transform="translate(196.999085671 381.859875)scale(0.12 -0.12)">
       <use xlink:href="#DejaVuSans-32"/>
       <use x="63.623046875" xlink:href="#DejaVuSans-30"/>
       <use x="127.24609375" xlink:href="#DejaVuSans-30"/>
      </g>
     </g>
    </g>
    <g id="xtick_4">
     <g id="line2d_23">
      <g>
       <use style="stroke:#000000;stroke-width:0.5;" x="297.072378507" xlink:href="#m93b0483c22" y="368.74175"/>
      </g>
     </g>
     <g id="line2d_24">
      <g>
       <use style="stroke:#000000;stroke-width:0.5;" x="297.072378507" xlink:href="#m741efc42ff" y="23.14175"/>
      </g>
     </g>
     <g id="text_4">
      <!-- 300 -->
      <defs>
       <path d="
M40.5781 39.3125
Q47.6562 37.7969 51.625 33
Q55.6094 28.2188 55.6094 21.1875
Q55.6094 10.4062 48.1875 4.48438
Q40.7656 -1.42188 27.0938 -1.42188
Q22.5156 -1.42188 17.6562 -0.515625
Q12.7969 0.390625 7.625 2.20312
L7.625 11.7188
Q11.7188 9.32812 16.5938 8.10938
Q21.4844 6.89062 26.8125 6.89062
Q36.0781 6.89062 40.9375 10.5469
Q45.7969 14.2031 45.7969 21.1875
Q45.7969 27.6406 41.2812 31.2656
Q36.7656 34.9062 28.7188 34.9062
L20.2188 34.9062
L20.2188 43.0156
L29.1094 43.0156
Q36.375 43.0156 40.2344 45.9219
Q44.0938 48.8281 44.0938 54.2969
Q44.0938 59.9062 40.1094 62.9062
Q36.1406 65.9219 28.7188 65.9219
Q24.6562 65.9219 20.0156 65.0312
Q15.375 64.1562 9.8125 62.3125
L9.8125 71.0938
Q15.4375 72.6562 20.3438 73.4375
Q25.25 74.2188 29.5938 74.2188
Q40.8281 74.2188 47.3594 69.1094
Q53.9062 64.0156 53.9062 55.3281
Q53.9062 49.2656 50.4375 45.0938
Q46.9688 40.9219 40.5781 39.3125" id="DejaVuSans-33"/>
      </defs>
      <g transform="translate(286.475816007 381.859875)scale(0.12 -0.12)">
       <use xlink:href="#DejaVuSans-33"/>
       <use x="63.623046875" xlink:href="#DejaVuSans-30"/>
       <use x="127.24609375" xlink:href="#DejaVuSans-30"/>
      </g>
     </g>
    </g>
    <g id="xtick_5">
     <g id="line2d_25">
      <g>
       <use style="stroke:#000000;stroke-width:0.5;" x="386.531296343" xlink:href="#m93b0483c22" y="368.74175"/>
      </g>
     </g>
     <g id="line2d_26">
      <g>
       <use style="stroke:#000000;stroke-width:0.5;" x="386.531296343" xlink:href="#m741efc42ff" y="23.14175"/>
      </g>
     </g>
     <g id="text_5">
      <!-- 400 -->
      <defs>
       <path d="
M37.7969 64.3125
L12.8906 25.3906
L37.7969 25.3906
z

M35.2031 72.9062
L47.6094 72.9062
L47.6094 25.3906
L58.0156 25.3906
L58.0156 17.1875
L47.6094 17.1875
L47.6094 0
L37.7969 0
L37.7969 17.1875
L4.89062 17.1875
L4.89062 26.7031
z
" id="DejaVuSans-34"/>
      </defs>
      <g transform="translate(375.770671343 381.859875)scale(0.12 -0.12)">
       <use xlink:href="#DejaVuSans-34"/>
       <use x="63.623046875" xlink:href="#DejaVuSans-30"/>
       <use x="127.24609375" xlink:href="#DejaVuSans-30"/>
      </g>
     </g>
    </g>
    <g id="text_6">
     <!-- time -->
     <defs>
      <path d="
M18.3125 70.2188
L18.3125 54.6875
L36.8125 54.6875
L36.8125 47.7031
L18.3125 47.7031
L18.3125 18.0156
Q18.3125 11.3281 20.1406 9.42188
Q21.9688 7.51562 27.5938 7.51562
L36.8125 7.51562
L36.8125 0
L27.5938 0
Q17.1875 0 13.2344 3.875
Q9.28125 7.76562 9.28125 18.0156
L9.28125 47.7031
L2.6875 47.7031
L2.6875 54.6875
L9.28125 54.6875
L9.28125 70.2188
z
" id="DejaVuSans-74"/>
      <path d="
M52 44.1875
Q55.375 50.25 60.0625 53.125
Q64.75 56 71.0938 56
Q79.6406 56 84.2812 50.0156
Q88.9219 44.0469 88.9219 33.0156
L88.9219 0
L79.8906 0
L79.8906 32.7188
Q79.8906 40.5781 77.0938 44.375
Q74.3125 48.1875 68.6094 48.1875
Q61.625 48.1875 57.5625 43.5469
Q53.5156 38.9219 53.5156 30.9062
L53.5156 0
L44.4844 0
L44.4844 32.7188
Q44.4844 40.625 41.7031 44.4062
Q38.9219 48.1875 33.1094 48.1875
Q26.2188 48.1875 22.1562 43.5312
Q18.1094 38.875 18.1094 30.9062
L18.1094 0
L9.07812 0
L9.07812 54.6875
L18.1094 54.6875
L18.1094 46.1875
Q21.1875 51.2188 25.4844 53.6094
Q29.7812 56 35.6875 56
Q41.6562 56 45.8281 52.9688
Q50 49.9531 52 44.1875" id="DejaVuSans-6d"/>
      <path d="
M56.2031 29.5938
L56.2031 25.2031
L14.8906 25.2031
Q15.4844 15.9219 20.4844 11.0625
Q25.4844 6.20312 34.4219 6.20312
Q39.5938 6.20312 44.4531 7.46875
Q49.3125 8.73438 54.1094 11.2812
L54.1094 2.78125
Q49.2656 0.734375 44.1875 -0.34375
Q39.1094 -1.42188 33.8906 -1.42188
Q20.7969 -1.42188 13.1562 6.1875
Q5.51562 13.8125 5.51562 26.8125
Q5.51562 40.2344 12.7656 48.1094
Q20.0156 56 32.3281 56
Q43.3594 56 49.7812 48.8906
Q56.2031 41.7969 56.2031 29.5938
M47.2188 32.2344
Q47.125 39.5938 43.0938 43.9844
Q39.0625 48.3906 32.4219 48.3906
Q24.9062 48.3906 20.3906 44.1406
Q15.875 39.8906 15.1875 32.1719
z
" id="DejaVuSans-65"/>
      <path d="
M9.42188 54.6875
L18.4062 54.6875
L18.4062 0
L9.42188 0
z

M9.42188 75.9844
L18.4062 75.9844
L18.4062 64.5938
L9.42188 64.5938
z
" id="DejaVuSans-69"/>
     </defs>
     <g transform="translate(238.82125 398.473625)scale(0.12 -0.12)">
      <use xlink:href="#DejaVuSans-74"/>
      <use x="39.208984375" xlink:href="#DejaVuSans-69"/>
      <use x="66.9921875" xlink:href="#DejaVuSans-6d"/>
      <use x="164.404296875" xlink:href="#DejaVuSans-65"/>
     </g>
    </g>
   </g>
   <g id="matplotlib.axis_2">
    <g id="ytick_1">
     <g id="line2d_27">
      <defs>
       <path d="
M0 0
L4 0" id="m728421d6d4" style="stroke:#000000;stroke-width:0.5;"/>
      </defs>
      <g>
       <use style="stroke:#000000;stroke-width:0.5;" x="28.695625" xlink:href="#m728421d6d4" y="368.74175"/>
      </g>
     </g>
     <g id="line2d_28">
      <defs>
       <path d="
M0 0
L-4 0" id="mcb0005524f" style="stroke:#000000;stroke-width:0.5;"/>
      </defs>
      <g>
       <use style="stroke:#000000;stroke-width:0.5;" x="475.095625" xlink:href="#mcb0005524f" y="368.74175"/>
      </g>
     </g>
     <g id="text_7">
      <!-- 0.0 -->
      <defs>
       <path d="
M10.6875 12.4062
L21 12.4062
L21 0
L10.6875 0
z
" id="DejaVuSans-2e"/>
      </defs>
      <g transform="translate(7.2 372.053)scale(0.12 -0.12)">
       <use xlink:href="#DejaVuSans-30"/>
       <use x="63.623046875" xlink:href="#DejaVuSans-2e"/>
       <use x="95.41015625" xlink:href="#DejaVuSans-30"/>
      </g>
     </g>
    </g>
    <g id="ytick_2">
     <g id="line2d_29">
      <g>
       <use style="stroke:#000000;stroke-width:0.5;" x="28.695625" xlink:href="#m728421d6d4" y="319.370321429"/>
      </g>
     </g>
     <g id="line2d_30">
      <g>
       <use style="stroke:#000000;stroke-width:0.5;" x="475.095625" xlink:href="#mcb0005524f" y="319.370321429"/>
      </g>
     </g>
     <g id="text_8">
      <!-- 0.5 -->
      <defs>
       <path d="
M10.7969 72.9062
L49.5156 72.9062
L49.5156 64.5938
L19.8281 64.5938
L19.8281 46.7344
Q21.9688 47.4688 24.1094 47.8281
Q26.2656 48.1875 28.4219 48.1875
Q40.625 48.1875 47.75 41.5
Q54.8906 34.8125 54.8906 23.3906
Q54.8906 11.625 47.5625 5.09375
Q40.2344 -1.42188 26.9062 -1.42188
Q22.3125 -1.42188 17.5469 -0.640625
Q12.7969 0.140625 7.71875 1.70312
L7.71875 11.625
Q12.1094 9.23438 16.7969 8.0625
Q21.4844 6.89062 26.7031 6.89062
Q35.1562 6.89062 40.0781 11.3281
Q45.0156 15.7656 45.0156 23.3906
Q45.0156 31 40.0781 35.4375
Q35.1562 39.8906 26.7031 39.8906
Q22.75 39.8906 18.8125 39.0156
Q14.8906 38.1406 10.7969 36.2812
z
" id="DejaVuSans-35"/>
      </defs>
      <g transform="translate(7.45125 322.681571429)scale(0.12 -0.12)">
       <use xlink:href="#DejaVuSans-30"/>
       <use x="63.623046875" xlink:href="#DejaVuSans-2e"/>
       <use x="95.41015625" xlink:href="#DejaVuSans-35"/>
      </g>
     </g>
    </g>
    <g id="ytick_3">
     <g id="line2d_31">
      <g>
       <use style="stroke:#000000;stroke-width:0.5;" x="28.695625" xlink:href="#m728421d6d4" y="269.998892857"/>
      </g>
     </g>
     <g id="line2d_32">
      <g>
       <use style="stroke:#000000;stroke-width:0.5;" x="475.095625" xlink:href="#mcb0005524f" y="269.998892857"/>
      </g>
     </g>
     <g id="text_9">
      <!-- 1.0 -->
      <g transform="translate(7.726875 273.310142857)scale(0.12 -0.12)">
       <use xlink:href="#DejaVuSans-31"/>
       <use x="63.623046875" xlink:href="#DejaVuSans-2e"/>
       <use x="95.41015625" xlink:href="#DejaVuSans-30"/>
      </g>
     </g>
    </g>
    <g id="ytick_4">
     <g id="line2d_33">
      <g>
       <use style="stroke:#000000;stroke-width:0.5;" x="28.695625" xlink:href="#m728421d6d4" y="220.627464286"/>
      </g>
     </g>
     <g id="line2d_34">
      <g>
       <use style="stroke:#000000;stroke-width:0.5;" x="475.095625" xlink:href="#mcb0005524f" y="220.627464286"/>
      </g>
     </g>
     <g id="text_10">
      <!-- 1.5 -->
      <g transform="translate(7.978125 223.938714286)scale(0.12 -0.12)">
       <use xlink:href="#DejaVuSans-31"/>
       <use x="63.623046875" xlink:href="#DejaVuSans-2e"/>
       <use x="95.41015625" xlink:href="#DejaVuSans-35"/>
      </g>
     </g>
    </g>
    <g id="ytick_5">
     <g id="line2d_35">
      <g>
       <use style="stroke:#000000;stroke-width:0.5;" x="28.695625" xlink:href="#m728421d6d4" y="171.256035714"/>
      </g>
     </g>
     <g id="line2d_36">
      <g>
       <use style="stroke:#000000;stroke-width:0.5;" x="475.095625" xlink:href="#mcb0005524f" y="171.256035714"/>
      </g>
     </g>
     <g id="text_11">
      <!-- 2.0 -->
      <g transform="translate(7.288125 174.567285714)scale(0.12 -0.12)">
       <use xlink:href="#DejaVuSans-32"/>
       <use x="63.623046875" xlink:href="#DejaVuSans-2e"/>
       <use x="95.41015625" xlink:href="#DejaVuSans-30"/>
      </g>
     </g>
    </g>
    <g id="ytick_6">
     <g id="line2d_37">
      <g>
       <use style="stroke:#000000;stroke-width:0.5;" x="28.695625" xlink:href="#m728421d6d4" y="121.884607143"/>
      </g>
     </g>
     <g id="line2d_38">
      <g>
       <use style="stroke:#000000;stroke-width:0.5;" x="475.095625" xlink:href="#mcb0005524f" y="121.884607143"/>
      </g>
     </g>
     <g id="text_12">
      <!-- 2.5 -->
      <g transform="translate(7.539375 125.195857143)scale(0.12 -0.12)">
       <use xlink:href="#DejaVuSans-32"/>
       <use x="63.623046875" xlink:href="#DejaVuSans-2e"/>
       <use x="95.41015625" xlink:href="#DejaVuSans-35"/>
      </g>
     </g>
    </g>
    <g id="ytick_7">
     <g id="line2d_39">
      <g>
       <use style="stroke:#000000;stroke-width:0.5;" x="28.695625" xlink:href="#m728421d6d4" y="72.5131785714"/>
      </g>
     </g>
     <g id="line2d_40">
      <g>
       <use style="stroke:#000000;stroke-width:0.5;" x="475.095625" xlink:href="#mcb0005524f" y="72.5131785714"/>
      </g>
     </g>
     <g id="text_13">
      <!-- 3.0 -->
      <g transform="translate(7.32375 75.8244285714)scale(0.12 -0.12)">
       <use xlink:href="#DejaVuSans-33"/>
       <use x="63.623046875" xlink:href="#DejaVuSans-2e"/>
       <use x="95.41015625" xlink:href="#DejaVuSans-30"/>
      </g>
     </g>
    </g>
    <g id="ytick_8">
     <g id="line2d_41">
      <g>
       <use style="stroke:#000000;stroke-width:0.5;" x="28.695625" xlink:href="#m728421d6d4" y="23.14175"/>
      </g>
     </g>
     <g id="line2d_42">
      <g>
       <use style="stroke:#000000;stroke-width:0.5;" x="475.095625" xlink:href="#mcb0005524f" y="23.14175"/>
      </g>
     </g>
     <g id="text_14">
      <!-- 3.5 -->
      <g transform="translate(7.575 26.453)scale(0.12 -0.12)">
       <use xlink:href="#DejaVuSans-33"/>
       <use x="63.623046875" xlink:href="#DejaVuSans-2e"/>
       <use x="95.41015625" xlink:href="#DejaVuSans-35"/>
      </g>
     </g>
    </g>
    <g id="text_15">
     <!-- 1e7 -->
     <defs>
      <path d="
M8.20312 72.9062
L55.0781 72.9062
L55.0781 68.7031
L28.6094 0
L18.3125 0
L43.2188 64.5938
L8.20312 64.5938
z
" id="DejaVuSans-37"/>
     </defs>
     <g transform="translate(28.695625 20.14175)scale(0.12 -0.12)">
      <use xlink:href="#DejaVuSans-31"/>
      <use x="63.623046875" xlink:href="#DejaVuSans-65"/>
      <use x="125.146484375" xlink:href="#DejaVuSans-37"/>
     </g>
    </g>
   </g>
   <g id="text_16">
    <!-- /agas/primary/count -->
    <defs>
     <path d="
M25.3906 72.9062
L33.6875 72.9062
L8.29688 -9.28125
L0 -9.28125
z
" id="DejaVuSans-2f"/>
     <path d="
M30.6094 48.3906
Q23.3906 48.3906 19.1875 42.75
Q14.9844 37.1094 14.9844 27.2969
Q14.9844 17.4844 19.1562 11.8438
Q23.3438 6.20312 30.6094 6.20312
Q37.7969 6.20312 41.9844 11.8594
Q46.1875 17.5312 46.1875 27.2969
Q46.1875 37.0156 41.9844 42.7031
Q37.7969 48.3906 30.6094 48.3906
M30.6094 56
Q42.3281 56 49.0156 48.375
Q55.7188 40.7656 55.7188 27.2969
Q55.7188 13.875 49.0156 6.21875
Q42.3281 -1.42188 30.6094 -1.42188
Q18.8438 -1.42188 12.1719 6.21875
Q5.51562 13.875 5.51562 27.2969
Q5.51562 40.7656 12.1719 48.375
Q18.8438 56 30.6094 56" id="DejaVuSans-6f"/>
     <path d="
M54.8906 33.0156
L54.8906 0
L45.9062 0
L45.9062 32.7188
Q45.9062 40.4844 42.875 44.3281
Q39.8438 48.1875 33.7969 48.1875
Q26.5156 48.1875 22.3125 43.5469
Q18.1094 38.9219 18.1094 30.9062
L18.1094 0
L9.07812 0
L9.07812 54.6875
L18.1094 54.6875
L18.1094 46.1875
Q21.3438 51.125 25.7031 53.5625
Q30.0781 56 35.7969 56
Q45.2188 56 50.0469 50.1719
Q54.8906 44.3438 54.8906 33.0156" id="DejaVuSans-6e"/>
     <path d="
M48.7812 52.5938
L48.7812 44.1875
Q44.9688 46.2969 41.1406 47.3438
Q37.3125 48.3906 33.4062 48.3906
Q24.6562 48.3906 19.8125 42.8438
Q14.9844 37.3125 14.9844 27.2969
Q14.9844 17.2812 19.8125 11.7344
Q24.6562 6.20312 33.4062 6.20312
Q37.3125 6.20312 41.1406 7.25
Q44.9688 8.29688 48.7812 10.4062
L48.7812 2.09375
Q45.0156 0.34375 40.9844 -0.53125
Q36.9688 -1.42188 32.4219 -1.42188
Q20.0625 -1.42188 12.7812 6.34375
Q5.51562 14.1094 5.51562 27.2969
Q5.51562 40.6719 12.8594 48.3281
Q20.2188 56 33.0156 56
Q37.1562 56 41.1094 55.1406
Q45.0625 54.2969 48.7812 52.5938" id="DejaVuSans-63"/>
     <path d="
M32.1719 -5.07812
Q28.375 -14.8438 24.75 -17.8125
Q21.1406 -20.7969 15.0938 -20.7969
L7.90625 -20.7969
L7.90625 -13.2812
L13.1875 -13.2812
Q16.8906 -13.2812 18.9375 -11.5156
Q21 -9.76562 23.4844 -3.21875
L25.0938 0.875
L2.98438 54.6875
L12.5 54.6875
L29.5938 11.9219
L46.6875 54.6875
L56.2031 54.6875
z
" id="DejaVuSans-79"/>
     <path d="
M8.5 21.5781
L8.5 54.6875
L17.4844 54.6875
L17.4844 21.9219
Q17.4844 14.1562 20.5 10.2656
Q23.5312 6.39062 29.5938 6.39062
Q36.8594 6.39062 41.0781 11.0312
Q45.3125 15.6719 45.3125 23.6875
L45.3125 54.6875
L54.2969 54.6875
L54.2969 0
L45.3125 0
L45.3125 8.40625
Q42.0469 3.42188 37.7188 1
Q33.4062 -1.42188 27.6875 -1.42188
Q18.2656 -1.42188 13.375 4.4375
Q8.5 10.2969 8.5 21.5781
M31.1094 56
z
" id="DejaVuSans-75"/>
     <path d="
M45.4062 27.9844
Q45.4062 37.75 41.375 43.1094
Q37.3594 48.4844 30.0781 48.4844
Q22.8594 48.4844 18.8281 43.1094
Q14.7969 37.75 14.7969 27.9844
Q14.7969 18.2656 18.8281 12.8906
Q22.8594 7.51562 30.0781 7.51562
Q37.3594 7.51562 41.375 12.8906
Q45.4062 18.2656 45.4062 27.9844
M54.3906 6.78125
Q54.3906 -7.17188 48.1875 -13.9844
Q42 -20.7969 29.2031 -20.7969
Q24.4688 -20.7969 20.2656 -20.0938
Q16.0625 -19.3906 12.1094 -17.9219
L12.1094 -9.1875
Q16.0625 -11.3281 19.9219 -12.3438
Q23.7812 -13.375 27.7812 -13.375
Q36.625 -13.375 41.0156 -8.76562
Q45.4062 -4.15625 45.4062 5.17188
L45.4062 9.625
Q42.625 4.78125 38.2812 2.39062
Q33.9375 0 27.875 0
Q17.8281 0 11.6719 7.65625
Q5.51562 15.3281 5.51562 27.9844
Q5.51562 40.6719 11.6719 48.3281
Q17.8281 56 27.875 56
Q33.9375 56 38.2812 53.6094
Q42.625 51.2188 45.4062 46.3906
L45.4062 54.6875
L54.3906 54.6875
z
" id="DejaVuSans-67"/>
     <path d="
M34.2812 27.4844
Q23.3906 27.4844 19.1875 25
Q14.9844 22.5156 14.9844 16.5
Q14.9844 11.7188 18.1406 8.90625
Q21.2969 6.10938 26.7031 6.10938
Q34.1875 6.10938 38.7031 11.4062
Q43.2188 16.7031 43.2188 25.4844
L43.2188 27.4844
z

M52.2031 31.2031
L52.2031 0
L43.2188 0
L43.2188 8.29688
Q40.1406 3.32812 35.5469 0.953125
Q30.9531 -1.42188 24.3125 -1.42188
Q15.9219 -1.42188 10.9531 3.29688
Q6 8.01562 6 15.9219
Q6 25.1406 12.1719 29.8281
Q18.3594 34.5156 30.6094 34.5156
L43.2188 34.5156
L43.2188 35.4062
Q43.2188 41.6094 39.1406 45
Q35.0625 48.3906 27.6875 48.3906
Q23 48.3906 18.5469 47.2656
Q14.1094 46.1406 10.0156 43.8906
L10.0156 52.2031
Q14.9375 54.1094 19.5781 55.0469
Q24.2188 56 28.6094 56
Q40.4844 56 46.3438 49.8438
Q52.2031 43.7031 52.2031 31.2031" id="DejaVuSans-61"/>
     <path d="
M18.1094 8.20312
L18.1094 -20.7969
L9.07812 -20.7969
L9.07812 54.6875
L18.1094 54.6875
L18.1094 46.3906
Q20.9531 51.2656 25.2656 53.625
Q29.5938 56 35.5938 56
Q45.5625 56 51.7812 48.0938
Q58.0156 40.1875 58.0156 27.2969
Q58.0156 14.4062 51.7812 6.48438
Q45.5625 -1.42188 35.5938 -1.42188
Q29.5938 -1.42188 25.2656 0.953125
Q20.9531 3.32812 18.1094 8.20312
M48.6875 27.2969
Q48.6875 37.2031 44.6094 42.8438
Q40.5312 48.4844 33.4062 48.4844
Q26.2656 48.4844 22.1875 42.8438
Q18.1094 37.2031 18.1094 27.2969
Q18.1094 17.3906 22.1875 11.75
Q26.2656 6.10938 33.4062 6.10938
Q40.5312 6.10938 44.6094 11.75
Q48.6875 17.3906 48.6875 27.2969" id="DejaVuSans-70"/>
     <path d="
M44.2812 53.0781
L44.2812 44.5781
Q40.4844 46.5312 36.375 47.5
Q32.2812 48.4844 27.875 48.4844
Q21.1875 48.4844 17.8438 46.4375
Q14.5 44.3906 14.5 40.2812
Q14.5 37.1562 16.8906 35.375
Q19.2812 33.5938 26.5156 31.9844
L29.5938 31.2969
Q39.1562 29.25 43.1875 25.5156
Q47.2188 21.7812 47.2188 15.0938
Q47.2188 7.46875 41.1875 3.01562
Q35.1562 -1.42188 24.6094 -1.42188
Q20.2188 -1.42188 15.4531 -0.5625
Q10.6875 0.296875 5.42188 2
L5.42188 11.2812
Q10.4062 8.6875 15.2344 7.39062
Q20.0625 6.10938 24.8125 6.10938
Q31.1562 6.10938 34.5625 8.28125
Q37.9844 10.4531 37.9844 14.4062
Q37.9844 18.0625 35.5156 20.0156
Q33.0625 21.9688 24.7031 23.7812
L21.5781 24.5156
Q13.2344 26.2656 9.51562 29.9062
Q5.8125 33.5469 5.8125 39.8906
Q5.8125 47.6094 11.2812 51.7969
Q16.75 56 26.8125 56
Q31.7812 56 36.1719 55.2656
Q40.5781 54.5469 44.2812 53.0781" id="DejaVuSans-73"/>
     <path d="
M41.1094 46.2969
Q39.5938 47.1719 37.8125 47.5781
Q36.0312 48 33.8906 48
Q26.2656 48 22.1875 43.0469
Q18.1094 38.0938 18.1094 28.8125
L18.1094 0
L9.07812 0
L9.07812 54.6875
L18.1094 54.6875
L18.1094 46.1875
Q20.9531 51.1719 25.4844 53.5781
Q30.0312 56 36.5312 56
Q37.4531 56 38.5781 55.875
Q39.7031 55.7656 41.0625 55.5156
z
" id="DejaVuSans-72"/>
    </defs>
    <g transform="translate(179.15425 18.14175)scale(0.144 -0.144)">
     <use xlink:href="#DejaVuSans-2f"/>
     <use x="33.69140625" xlink:href="#DejaVuSans-61"/>
     <use x="94.970703125" xlink:href="#DejaVuSans-67"/>
     <use x="158.447265625" xlink:href="#DejaVuSans-61"/>
     <use x="219.7265625" xlink:href="#DejaVuSans-73"/>
     <use x="271.826171875" xlink:href="#DejaVuSans-2f"/>
     <use x="305.517578125" xlink:href="#DejaVuSans-70"/>
     <use x="368.994140625" xlink:href="#DejaVuSans-72"/>
     <use x="410.107421875" xlink:href="#DejaVuSans-69"/>
     <use x="437.890625" xlink:href="#DejaVuSans-6d"/>
     <use x="535.302734375" xlink:href="#DejaVuSans-61"/>
     <use x="596.58203125" xlink:href="#DejaVuSans-72"/>
     <use x="637.6953125" xlink:href="#DejaVuSans-79"/>
     <use x="696.875" xlink:href="#DejaVuSans-2f"/>
     <use x="730.56640625" xlink:href="#DejaVuSans-63"/>
     <use x="785.546875" xlink:href="#DejaVuSans-6f"/>
     <use x="846.728515625" xlink:href="#DejaVuSans-75"/>
     <use x="910.107421875" xlink:href="#DejaVuSans-6e"/>
     <use x="973.486328125" xlink:href="#DejaVuSans-74"/>
    </g>
   </g>
   <g id="legend_1">
    <g id="patch_7">
     <path d="
M482.296 367.194
L614.085 367.194
L614.085 24.6897
L482.296 24.6897
z
" style="fill:#ffffff;stroke:#000000;stroke-linejoin:miter;"/>
    </g>
    <g id="line2d_43">
     <path d="
M492.376 36.3515
L512.536 36.3515" style="fill:none;stroke:#0000ff;stroke-linecap:square;"/>
    </g>
    <g id="line2d_44"/>
    <g id="text_17">
     <!-- locality#0 -->
     <defs>
      <path d="
M51.125 44
L36.9219 44
L32.8125 27.6875
L47.125 27.6875
z

M43.7969 71.7812
L38.7188 51.5156
L52.9844 51.5156
L58.1094 71.7812
L65.9219 71.7812
L60.8906 51.5156
L76.125 51.5156
L76.125 44
L58.9844 44
L54.9844 27.6875
L70.5156 27.6875
L70.5156 20.2188
L53.0781 20.2188
L48 0
L40.1875 0
L45.2188 20.2188
L30.9062 20.2188
L25.875 0
L18.0156 0
L23.0938 20.2188
L7.71875 20.2188
L7.71875 27.6875
L24.9062 27.6875
L29 44
L13.2812 44
L13.2812 51.5156
L30.9062 51.5156
L35.8906 71.7812
z
" id="DejaVuSans-23"/>
      <path d="
M9.42188 75.9844
L18.4062 75.9844
L18.4062 0
L9.42188 0
z
" id="DejaVuSans-6c"/>
     </defs>
     <g transform="translate(528.375625 41.3915)scale(0.144 -0.144)">
      <use xlink:href="#DejaVuSans-6c"/>
      <use x="27.783203125" xlink:href="#DejaVuSans-6f"/>
      <use x="88.96484375" xlink:href="#DejaVuSans-63"/>
      <use x="143.9453125" xlink:href="#DejaVuSans-61"/>
      <use x="205.224609375" xlink:href="#DejaVuSans-6c"/>
      <use x="233.0078125" xlink:href="#DejaVuSans-69"/>
      <use x="260.791015625" xlink:href="#DejaVuSans-74"/>
      <use x="300.0" xlink:href="#DejaVuSans-79"/>
      <use x="359.1796875" xlink:href="#DejaVuSans-23"/>
      <use x="442.96875" xlink:href="#DejaVuSans-30"/>
     </g>
    </g>
    <g id="line2d_45">
     <path d="
M492.376 57.488
L512.536 57.488" style="fill:none;stroke:#008000;stroke-linecap:square;"/>
    </g>
    <g id="line2d_46"/>
    <g id="text_18">
     <!-- locality#1 -->
     <g transform="translate(528.375625 62.528)scale(0.144 -0.144)">
      <use xlink:href="#DejaVuSans-6c"/>
      <use x="27.783203125" xlink:href="#DejaVuSans-6f"/>
      <use x="88.96484375" xlink:href="#DejaVuSans-63"/>
      <use x="143.9453125" xlink:href="#DejaVuSans-61"/>
      <use x="205.224609375" xlink:href="#DejaVuSans-6c"/>
      <use x="233.0078125" xlink:href="#DejaVuSans-69"/>
      <use x="260.791015625" xlink:href="#DejaVuSans-74"/>
      <use x="300.0" xlink:href="#DejaVuSans-79"/>
      <use x="359.1796875" xlink:href="#DejaVuSans-23"/>
      <use x="442.96875" xlink:href="#DejaVuSans-31"/>
     </g>
    </g>
    <g id="line2d_47">
     <path d="
M492.376 78.6245
L512.536 78.6245" style="fill:none;stroke:#ff0000;stroke-linecap:square;"/>
    </g>
    <g id="line2d_48"/>
    <g id="text_19">
     <!-- locality#10 -->
     <g transform="translate(528.375625 83.6645)scale(0.144 -0.144)">
      <use xlink:href="#DejaVuSans-6c"/>
      <use x="27.783203125" xlink:href="#DejaVuSans-6f"/>
      <use x="88.96484375" xlink:href="#DejaVuSans-63"/>
      <use x="143.9453125" xlink:href="#DejaVuSans-61"/>
      <use x="205.224609375" xlink:href="#DejaVuSans-6c"/>
      <use x="233.0078125" xlink:href="#DejaVuSans-69"/>
      <use x="260.791015625" xlink:href="#DejaVuSans-74"/>
      <use x="300.0" xlink:href="#DejaVuSans-79"/>
      <use x="359.1796875" xlink:href="#DejaVuSans-23"/>
      <use x="442.96875" xlink:href="#DejaVuSans-31"/>
      <use x="506.591796875" xlink:href="#DejaVuSans-30"/>
     </g>
    </g>
    <g id="line2d_49">
     <path d="
M492.376 99.761
L512.536 99.761" style="fill:none;stroke:#00bfbf;stroke-linecap:square;"/>
    </g>
    <g id="line2d_50"/>
    <g id="text_20">
     <!-- locality#11 -->
     <g transform="translate(528.375625 104.801)scale(0.144 -0.144)">
      <use xlink:href="#DejaVuSans-6c"/>
      <use x="27.783203125" xlink:href="#DejaVuSans-6f"/>
      <use x="88.96484375" xlink:href="#DejaVuSans-63"/>
      <use x="143.9453125" xlink:href="#DejaVuSans-61"/>
      <use x="205.224609375" xlink:href="#DejaVuSans-6c"/>
      <use x="233.0078125" xlink:href="#DejaVuSans-69"/>
      <use x="260.791015625" xlink:href="#DejaVuSans-74"/>
      <use x="300.0" xlink:href="#DejaVuSans-79"/>
      <use x="359.1796875" xlink:href="#DejaVuSans-23"/>
      <use x="442.96875" xlink:href="#DejaVuSans-31"/>
      <use x="506.591796875" xlink:href="#DejaVuSans-31"/>
     </g>
    </g>
    <g id="line2d_51">
     <path d="
M492.376 120.897
L512.536 120.897" style="fill:none;stroke:#bf00bf;stroke-linecap:square;"/>
    </g>
    <g id="line2d_52"/>
    <g id="text_21">
     <!-- locality#12 -->
     <g transform="translate(528.375625 125.9375)scale(0.144 -0.144)">
      <use xlink:href="#DejaVuSans-6c"/>
      <use x="27.783203125" xlink:href="#DejaVuSans-6f"/>
      <use x="88.96484375" xlink:href="#DejaVuSans-63"/>
      <use x="143.9453125" xlink:href="#DejaVuSans-61"/>
      <use x="205.224609375" xlink:href="#DejaVuSans-6c"/>
      <use x="233.0078125" xlink:href="#DejaVuSans-69"/>
      <use x="260.791015625" xlink:href="#DejaVuSans-74"/>
      <use x="300.0" xlink:href="#DejaVuSans-79"/>
      <use x="359.1796875" xlink:href="#DejaVuSans-23"/>
      <use x="442.96875" xlink:href="#DejaVuSans-31"/>
      <use x="506.591796875" xlink:href="#DejaVuSans-32"/>
     </g>
    </g>
    <g id="line2d_53">
     <path d="
M492.376 142.034
L512.536 142.034" style="fill:none;stroke:#bfbf00;stroke-linecap:square;"/>
    </g>
    <g id="line2d_54"/>
    <g id="text_22">
     <!-- locality#13 -->
     <g transform="translate(528.375625 147.074)scale(0.144 -0.144)">
      <use xlink:href="#DejaVuSans-6c"/>
      <use x="27.783203125" xlink:href="#DejaVuSans-6f"/>
      <use x="88.96484375" xlink:href="#DejaVuSans-63"/>
      <use x="143.9453125" xlink:href="#DejaVuSans-61"/>
      <use x="205.224609375" xlink:href="#DejaVuSans-6c"/>
      <use x="233.0078125" xlink:href="#DejaVuSans-69"/>
      <use x="260.791015625" xlink:href="#DejaVuSans-74"/>
      <use x="300.0" xlink:href="#DejaVuSans-79"/>
      <use x="359.1796875" xlink:href="#DejaVuSans-23"/>
      <use x="442.96875" xlink:href="#DejaVuSans-31"/>
      <use x="506.591796875" xlink:href="#DejaVuSans-33"/>
     </g>
    </g>
    <g id="line2d_55">
     <path d="
M492.376 163.17
L512.536 163.17" style="fill:none;stroke:#000000;stroke-linecap:square;"/>
    </g>
    <g id="line2d_56"/>
    <g id="text_23">
     <!-- locality#14 -->
     <g transform="translate(528.375625 168.2105)scale(0.144 -0.144)">
      <use xlink:href="#DejaVuSans-6c"/>
      <use x="27.783203125" xlink:href="#DejaVuSans-6f"/>
      <use x="88.96484375" xlink:href="#DejaVuSans-63"/>
      <use x="143.9453125" xlink:href="#DejaVuSans-61"/>
      <use x="205.224609375" xlink:href="#DejaVuSans-6c"/>
      <use x="233.0078125" xlink:href="#DejaVuSans-69"/>
      <use x="260.791015625" xlink:href="#DejaVuSans-74"/>
      <use x="300.0" xlink:href="#DejaVuSans-79"/>
      <use x="359.1796875" xlink:href="#DejaVuSans-23"/>
      <use x="442.96875" xlink:href="#DejaVuSans-31"/>
      <use x="506.591796875" xlink:href="#DejaVuSans-34"/>
     </g>
    </g>
    <g id="line2d_57">
     <path d="
M492.376 184.307
L512.536 184.307" style="fill:none;stroke:#0000ff;stroke-linecap:square;"/>
    </g>
    <g id="line2d_58"/>
    <g id="text_24">
     <!-- locality#15 -->
     <g transform="translate(528.375625 189.347)scale(0.144 -0.144)">
      <use xlink:href="#DejaVuSans-6c"/>
      <use x="27.783203125" xlink:href="#DejaVuSans-6f"/>
      <use x="88.96484375" xlink:href="#DejaVuSans-63"/>
      <use x="143.9453125" xlink:href="#DejaVuSans-61"/>
      <use x="205.224609375" xlink:href="#DejaVuSans-6c"/>
      <use x="233.0078125" xlink:href="#DejaVuSans-69"/>
      <use x="260.791015625" xlink:href="#DejaVuSans-74"/>
      <use x="300.0" xlink:href="#DejaVuSans-79"/>
      <use x="359.1796875" xlink:href="#DejaVuSans-23"/>
      <use x="442.96875" xlink:href="#DejaVuSans-31"/>
      <use x="506.591796875" xlink:href="#DejaVuSans-35"/>
     </g>
    </g>
    <g id="line2d_59">
     <path d="
M492.376 205.443
L512.536 205.443" style="fill:none;stroke:#008000;stroke-linecap:square;"/>
    </g>
    <g id="line2d_60"/>
    <g id="text_25">
     <!-- locality#2 -->
     <g transform="translate(528.375625 210.4835)scale(0.144 -0.144)">
      <use xlink:href="#DejaVuSans-6c"/>
      <use x="27.783203125" xlink:href="#DejaVuSans-6f"/>
      <use x="88.96484375" xlink:href="#DejaVuSans-63"/>
      <use x="143.9453125" xlink:href="#DejaVuSans-61"/>
      <use x="205.224609375" xlink:href="#DejaVuSans-6c"/>
      <use x="233.0078125" xlink:href="#DejaVuSans-69"/>
      <use x="260.791015625" xlink:href="#DejaVuSans-74"/>
      <use x="300.0" xlink:href="#DejaVuSans-79"/>
      <use x="359.1796875" xlink:href="#DejaVuSans-23"/>
      <use x="442.96875" xlink:href="#DejaVuSans-32"/>
     </g>
    </g>
    <g id="line2d_61">
     <path d="
M492.376 226.58
L512.536 226.58" style="fill:none;stroke:#ff0000;stroke-linecap:square;"/>
    </g>
    <g id="line2d_62"/>
    <g id="text_26">
     <!-- locality#3 -->
     <g transform="translate(528.375625 231.62)scale(0.144 -0.144)">
      <use xlink:href="#DejaVuSans-6c"/>
      <use x="27.783203125" xlink:href="#DejaVuSans-6f"/>
      <use x="88.96484375" xlink:href="#DejaVuSans-63"/>
      <use x="143.9453125" xlink:href="#DejaVuSans-61"/>
      <use x="205.224609375" xlink:href="#DejaVuSans-6c"/>
      <use x="233.0078125" xlink:href="#DejaVuSans-69"/>
      <use x="260.791015625" xlink:href="#DejaVuSans-74"/>
      <use x="300.0" xlink:href="#DejaVuSans-79"/>
      <use x="359.1796875" xlink:href="#DejaVuSans-23"/>
      <use x="442.96875" xlink:href="#DejaVuSans-33"/>
     </g>
    </g>
    <g id="line2d_63">
     <path d="
M492.376 247.716
L512.536 247.716" style="fill:none;stroke:#00bfbf;stroke-linecap:square;"/>
    </g>
    <g id="line2d_64"/>
    <g id="text_27">
     <!-- locality#4 -->
     <g transform="translate(528.375625 252.7565)scale(0.144 -0.144)">
      <use xlink:href="#DejaVuSans-6c"/>
      <use x="27.783203125" xlink:href="#DejaVuSans-6f"/>
      <use x="88.96484375" xlink:href="#DejaVuSans-63"/>
      <use x="143.9453125" xlink:href="#DejaVuSans-61"/>
      <use x="205.224609375" xlink:href="#DejaVuSans-6c"/>
      <use x="233.0078125" xlink:href="#DejaVuSans-69"/>
      <use x="260.791015625" xlink:href="#DejaVuSans-74"/>
      <use x="300.0" xlink:href="#DejaVuSans-79"/>
      <use x="359.1796875" xlink:href="#DejaVuSans-23"/>
      <use x="442.96875" xlink:href="#DejaVuSans-34"/>
     </g>
    </g>
    <g id="line2d_65">
     <path d="
M492.376 268.853
L512.536 268.853" style="fill:none;stroke:#bf00bf;stroke-linecap:square;"/>
    </g>
    <g id="line2d_66"/>
    <g id="text_28">
     <!-- locality#5 -->
     <g transform="translate(528.375625 273.893)scale(0.144 -0.144)">
      <use xlink:href="#DejaVuSans-6c"/>
      <use x="27.783203125" xlink:href="#DejaVuSans-6f"/>
      <use x="88.96484375" xlink:href="#DejaVuSans-63"/>
      <use x="143.9453125" xlink:href="#DejaVuSans-61"/>
      <use x="205.224609375" xlink:href="#DejaVuSans-6c"/>
      <use x="233.0078125" xlink:href="#DejaVuSans-69"/>
      <use x="260.791015625" xlink:href="#DejaVuSans-74"/>
      <use x="300.0" xlink:href="#DejaVuSans-79"/>
      <use x="359.1796875" xlink:href="#DejaVuSans-23"/>
      <use x="442.96875" xlink:href="#DejaVuSans-35"/>
     </g>
    </g>
    <g id="line2d_67">
     <path d="
M492.376 289.989
L512.536 289.989" style="fill:none;stroke:#bfbf00;stroke-linecap:square;"/>
    </g>
    <g id="line2d_68"/>
    <g id="text_29">
     <!-- locality#6 -->
     <defs>
      <path d="
M33.0156 40.375
Q26.375 40.375 22.4844 35.8281
Q18.6094 31.2969 18.6094 23.3906
Q18.6094 15.5312 22.4844 10.9531
Q26.375 6.39062 33.0156 6.39062
Q39.6562 6.39062 43.5312 10.9531
Q47.4062 15.5312 47.4062 23.3906
Q47.4062 31.2969 43.5312 35.8281
Q39.6562 40.375 33.0156 40.375
M52.5938 71.2969
L52.5938 62.3125
Q48.875 64.0625 45.0938 64.9844
Q41.3125 65.9219 37.5938 65.9219
Q27.8281 65.9219 22.6719 59.3281
Q17.5312 52.7344 16.7969 39.4062
Q19.6719 43.6562 24.0156 45.9219
Q28.375 48.1875 33.5938 48.1875
Q44.5781 48.1875 50.9531 41.5156
Q57.3281 34.8594 57.3281 23.3906
Q57.3281 12.1562 50.6875 5.35938
Q44.0469 -1.42188 33.0156 -1.42188
Q20.3594 -1.42188 13.6719 8.26562
Q6.98438 17.9688 6.98438 36.375
Q6.98438 53.6562 15.1875 63.9375
Q23.3906 74.2188 37.2031 74.2188
Q40.9219 74.2188 44.7031 73.4844
Q48.4844 72.75 52.5938 71.2969" id="DejaVuSans-36"/>
     </defs>
     <g transform="translate(528.375625 295.0295)scale(0.144 -0.144)">
      <use xlink:href="#DejaVuSans-6c"/>
      <use x="27.783203125" xlink:href="#DejaVuSans-6f"/>
      <use x="88.96484375" xlink:href="#DejaVuSans-63"/>
      <use x="143.9453125" xlink:href="#DejaVuSans-61"/>
      <use x="205.224609375" xlink:href="#DejaVuSans-6c"/>
      <use x="233.0078125" xlink:href="#DejaVuSans-69"/>
      <use x="260.791015625" xlink:href="#DejaVuSans-74"/>
      <use x="300.0" xlink:href="#DejaVuSans-79"/>
      <use x="359.1796875" xlink:href="#DejaVuSans-23"/>
      <use x="442.96875" xlink:href="#DejaVuSans-36"/>
     </g>
    </g>
    <g id="line2d_69">
     <path d="
M492.376 311.126
L512.536 311.126" style="fill:none;stroke:#000000;stroke-linecap:square;"/>
    </g>
    <g id="line2d_70"/>
    <g id="text_30">
     <!-- locality#7 -->
     <g transform="translate(528.375625 316.166)scale(0.144 -0.144)">
      <use xlink:href="#DejaVuSans-6c"/>
      <use x="27.783203125" xlink:href="#DejaVuSans-6f"/>
      <use x="88.96484375" xlink:href="#DejaVuSans-63"/>
      <use x="143.9453125" xlink:href="#DejaVuSans-61"/>
      <use x="205.224609375" xlink:href="#DejaVuSans-6c"/>
      <use x="233.0078125" xlink:href="#DejaVuSans-69"/>
      <use x="260.791015625" xlink:href="#DejaVuSans-74"/>
      <use x="300.0" xlink:href="#DejaVuSans-79"/>
      <use x="359.1796875" xlink:href="#DejaVuSans-23"/>
      <use x="442.96875" xlink:href="#DejaVuSans-37"/>
     </g>
    </g>
    <g id="line2d_71">
     <path d="
M492.376 332.262
L512.536 332.262" style="fill:none;stroke:#0000ff;stroke-linecap:square;"/>
    </g>
    <g id="line2d_72"/>
    <g id="text_31">
     <!-- locality#8 -->
     <defs>
      <path d="
M31.7812 34.625
Q24.75 34.625 20.7188 30.8594
Q16.7031 27.0938 16.7031 20.5156
Q16.7031 13.9219 20.7188 10.1562
Q24.75 6.39062 31.7812 6.39062
Q38.8125 6.39062 42.8594 10.1719
Q46.9219 13.9688 46.9219 20.5156
Q46.9219 27.0938 42.8906 30.8594
Q38.875 34.625 31.7812 34.625
M21.9219 38.8125
Q15.5781 40.375 12.0312 44.7188
Q8.5 49.0781 8.5 55.3281
Q8.5 64.0625 14.7188 69.1406
Q20.9531 74.2188 31.7812 74.2188
Q42.6719 74.2188 48.875 69.1406
Q55.0781 64.0625 55.0781 55.3281
Q55.0781 49.0781 51.5312 44.7188
Q48 40.375 41.7031 38.8125
Q48.8281 37.1562 52.7969 32.3125
Q56.7812 27.4844 56.7812 20.5156
Q56.7812 9.90625 50.3125 4.23438
Q43.8438 -1.42188 31.7812 -1.42188
Q19.7344 -1.42188 13.25 4.23438
Q6.78125 9.90625 6.78125 20.5156
Q6.78125 27.4844 10.7812 32.3125
Q14.7969 37.1562 21.9219 38.8125
M18.3125 54.3906
Q18.3125 48.7344 21.8438 45.5625
Q25.3906 42.3906 31.7812 42.3906
Q38.1406 42.3906 41.7188 45.5625
Q45.3125 48.7344 45.3125 54.3906
Q45.3125 60.0625 41.7188 63.2344
Q38.1406 66.4062 31.7812 66.4062
Q25.3906 66.4062 21.8438 63.2344
Q18.3125 60.0625 18.3125 54.3906" id="DejaVuSans-38"/>
     </defs>
     <g transform="translate(528.375625 337.3025)scale(0.144 -0.144)">
      <use xlink:href="#DejaVuSans-6c"/>
      <use x="27.783203125" xlink:href="#DejaVuSans-6f"/>
      <use x="88.96484375" xlink:href="#DejaVuSans-63"/>
      <use x="143.9453125" xlink:href="#DejaVuSans-61"/>
      <use x="205.224609375" xlink:href="#DejaVuSans-6c"/>
      <use x="233.0078125" xlink:href="#DejaVuSans-69"/>
      <use x="260.791015625" xlink:href="#DejaVuSans-74"/>
      <use x="300.0" xlink:href="#DejaVuSans-79"/>
      <use x="359.1796875" xlink:href="#DejaVuSans-23"/>
      <use x="442.96875" xlink:href="#DejaVuSans-38"/>
     </g>
    </g>
    <g id="line2d_73">
     <path d="
M492.376 353.399
L512.536 353.399" style="fill:none;stroke:#008000;stroke-linecap:square;"/>
    </g>
    <g id="line2d_74"/>
    <g id="text_32">
     <!-- locality#9 -->
     <defs>
      <path d="
M10.9844 1.51562
L10.9844 10.5
Q14.7031 8.73438 18.5 7.8125
Q22.3125 6.89062 25.9844 6.89062
Q35.75 6.89062 40.8906 13.4531
Q46.0469 20.0156 46.7812 33.4062
Q43.9531 29.2031 39.5938 26.9531
Q35.25 24.7031 29.9844 24.7031
Q19.0469 24.7031 12.6719 31.3125
Q6.29688 37.9375 6.29688 49.4219
Q6.29688 60.6406 12.9375 67.4219
Q19.5781 74.2188 30.6094 74.2188
Q43.2656 74.2188 49.9219 64.5156
Q56.5938 54.8281 56.5938 36.375
Q56.5938 19.1406 48.4062 8.85938
Q40.2344 -1.42188 26.4219 -1.42188
Q22.7031 -1.42188 18.8906 -0.6875
Q15.0938 0.046875 10.9844 1.51562
M30.6094 32.4219
Q37.25 32.4219 41.125 36.9531
Q45.0156 41.5 45.0156 49.4219
Q45.0156 57.2812 41.125 61.8438
Q37.25 66.4062 30.6094 66.4062
Q23.9688 66.4062 20.0938 61.8438
Q16.2188 57.2812 16.2188 49.4219
Q16.2188 41.5 20.0938 36.9531
Q23.9688 32.4219 30.6094 32.4219" id="DejaVuSans-39"/>
     </defs>
     <g transform="translate(528.375625 358.439)scale(0.144 -0.144)">
      <use xlink:href="#DejaVuSans-6c"/>
      <use x="27.783203125" xlink:href="#DejaVuSans-6f"/>
      <use x="88.96484375" xlink:href="#DejaVuSans-63"/>
      <use x="143.9453125" xlink:href="#DejaVuSans-61"/>
      <use x="205.224609375" xlink:href="#DejaVuSans-6c"/>
      <use x="233.0078125" xlink:href="#DejaVuSans-69"/>
      <use x="260.791015625" xlink:href="#DejaVuSans-74"/>
      <use x="300.0" xlink:href="#DejaVuSans-79"/>
      <use x="359.1796875" xlink:href="#DejaVuSans-23"/>
      <use x="442.96875" xlink:href="#DejaVuSans-39"/>
     </g>
    </g>
   </g>
  </g>
 </g>
 <defs>
  <clipPath id="p2118423672">
   <rect height="345.6" width="446.4" x="28.695625" y="23.14175"/>
  </clipPath>
 </defs>
</svg>
