<?xml version="1.0" encoding="utf-8" standalone="no"?>
<!DOCTYPE svg PUBLIC "-//W3C//DTD SVG 1.1//EN"
  "http://www.w3.org/Graphics/SVG/1.1/DTD/svg11.dtd">
<!-- Created with matplotlib (http://matplotlib.org/) -->
<svg height="408pt" version="1.1" viewBox="0 0 621 408" width="621pt" xmlns="http://www.w3.org/2000/svg" xmlns:xlink="http://www.w3.org/1999/xlink">
 <defs>
  <style type="text/css">
*{stroke-linecap:butt;stroke-linejoin:round;}
  </style>
 </defs>
 <g id="figure_1">
  <g id="patch_1">
   <path d="
M0 408.169
L621.285 408.169
L621.285 0
L0 0
z
" style="fill:#ffffff;"/>
  </g>
  <g id="axes_1">
   <g id="patch_2">
    <path d="
M28.6956 368.742
L475.096 368.742
L475.096 23.1417
L28.6956 23.1417
z
" style="fill:#ffffff;"/>
   </g>
   <g id="line2d_1">
    <path clip-path="url(#p2118423672)" d="
M28.6956 368.487
L29.5902 367.8
L35.8523 364.703
L39.4307 363.047
L54.6387 355.64
L65.3738 350.112
L70.7413 347.155
L72.5305 346.107
L77.0034 343.59
L79.6872 341.919
L99.3682 330.708
L134.257 309.336
L137.836 307.149
L141.414 305.031
L144.992 302.753
L151.254 298.917
L155.727 296.001
L157.516 294.915
L161.989 292.092
L166.462 289.25
L174.514 283.965
L178.092 281.824
L192.405 273.1
L195.089 271.462
L197.773 269.912
L204.035 265.965
L205.824 264.85
L218.349 256.882
L237.135 244.574
L241.608 241.6
L244.292 239.842
L247.87 237.451
L249.659 236.293
L253.238 233.883
L255.027 232.717
L259.5 229.679
L262.183 227.951
L265.762 225.485
L267.551 224.306
L272.918 220.544
L280.97 215.07
L286.337 211.271
L343.591 171.429
L348.064 168.207
L350.748 166.398
L353.431 164.505
L356.115 162.707
L359.694 160.113
L361.483 158.859
L363.272 157.593
L365.061 156.494
L370.429 152.967
L373.112 151.334
L379.375 147.073
L381.164 145.939
L405.318 129.809
L407.107 128.649
L414.264 123.973
L416.947 122.18
L418.737 121.01
L422.315 118.443
L424.104 117.254
L433.945 110.367
L435.734 109.177
L440.207 106.058
L442.89 104.264
L446.469 101.763
L449.153 99.9548
L456.309 94.9187
L458.098 93.6953
L460.782 91.8014
L462.571 90.5794
L467.939 86.663
L470.623 84.8549
L475.096 81.4694
L475.096 81.4694" style="fill:none;stroke:#0000ff;stroke-linecap:square;"/>
   </g>
   <g id="line2d_2">
    <path clip-path="url(#p2118423672)" d="
M28.6956 368.711
L34.0632 366.671
L40.3253 364.373
L62.69 356.149
L68.0575 353.936
L74.3197 351.489
L77.0034 350.477
L79.6872 349.39
L84.1602 347.657
L87.7385 346.22
L90.4223 345.224
L111.892 336.104
L117.26 333.626
L118.155 333.278
L119.049 332.774
L124.417 330.598
L140.519 323.696
L141.414 323.369
L143.203 322.566
L145.887 321.454
L158.411 316.243
L160.2 315.537
L165.568 313.264
L167.357 312.524
L172.724 310.189
L174.514 309.455
L178.987 307.579
L180.776 306.838
L183.46 305.602
L184.354 305.268
L186.143 304.403
L192.405 301.551
L195.089 300.372
L197.773 299.255
L204.035 296.303
L204.93 295.95
L206.719 295.018
L211.192 292.968
L212.981 292.164
L220.138 289.156
L227.294 286.08
L229.978 285.044
L242.502 279.585
L244.292 278.857
L248.765 276.954
L271.129 267.821
L273.813 266.73
L276.497 265.699
L280.075 264.205
L281.864 263.484
L283.654 262.684
L298.862 256.034
L301.545 254.984
L305.124 253.45
L307.807 252.382
L309.597 251.509
L313.175 250.005
L319.437 247.196
L321.226 246.445
L324.805 244.877
L328.383 243.355
L331.067 242.192
L332.856 241.426
L336.434 239.836
L339.118 238.721
L348.064 234.639
L350.748 233.523
L353.431 232.314
L356.115 231.188
L359.694 229.537
L361.483 228.753
L365.956 226.645
L367.745 225.849
L370.429 224.521
L372.218 223.722
L374.902 222.48
L377.585 221.061
L380.269 219.884
L382.058 218.982
L390.11 215.077
L401.739 209.695
L404.423 208.668
L408.001 207.179
L412.474 205.413
L415.158 204.301
L417.842 203.28
L422.315 201.283
L424.104 200.573
L433.945 196.327
L435.734 195.614
L439.312 194.085
L441.996 192.977
L443.785 192.258
L450.942 189.312
L452.731 188.589
L457.204 186.724
L473.306 179.786
L474.201 179.328
L475.096 178.996
L475.096 178.996" style="fill:none;stroke:#008000;stroke-linecap:square;"/>
   </g>
   <g id="line2d_3">
    <path clip-path="url(#p2118423672)" d="
M28.6956 368.707
L42.1145 361.558
L46.5874 359.136
L64.4792 349.931
L67.163 348.446
L68.9521 347.316
L71.6359 345.873
L77.0034 343.03
L79.6872 341.408
L83.2656 339.27
L87.7385 336.368
L89.5277 335.256
L91.3169 334.139
L94.8952 331.752
L95.7898 331.241
L101.157 327.524
L110.103 321.444
L111.892 320.285
L113.682 319.113
L115.471 318.12
L120.838 314.881
L124.417 312.774
L129.784 309.416
L131.573 308.378
L134.257 306.646
L137.836 304.446
L141.414 302.282
L143.203 301.168
L146.781 299.03
L148.571 297.987
L169.146 285.392
L170.935 284.21
L175.408 281.369
L178.092 279.776
L183.46 276.258
L184.354 275.765
L186.143 274.498
L191.511 270.934
L193.3 269.69
L195.984 268.071
L198.668 266.324
L202.246 264.096
L204.93 262.621
L206.719 261.44
L213.876 257.205
L229.084 247.66
L230.873 246.592
L238.924 241.351
L240.713 240.265
L245.186 237.373
L246.975 236.278
L250.554 233.96
L259.5 228.17
L262.183 226.541
L265.762 224.161
L266.656 223.663
L273.813 218.747
L276.497 217.08
L280.075 214.671
L281.864 213.486
L283.654 212.193
L293.494 205.259
L295.283 204.008
L297.072 202.699
L299.756 200.87
L300.651 200.345
L304.229 197.84
L306.913 196.054
L307.807 195.459
L308.702 194.576
L314.07 190.96
L314.964 190.449
L322.121 185.452
L323.91 184.288
L341.802 172.366
L343.591 171.063
L348.064 167.927
L350.748 166.212
L353.431 164.364
L356.115 162.645
L357.904 161.379
L361.483 158.925
L365.956 155.744
L366.85 155.205
L370.429 152.584
L372.218 151.495
L374.007 150.334
L375.796 149.152
L380.269 146.28
L382.058 145.058
L389.215 140.326
L396.372 135.747
L401.739 132.167
L404.423 130.557
L407.107 128.825
L409.791 127.08
L412.474 125.482
L415.158 123.804
L417.842 122.247
L424.999 117.551
L425.893 117.066
L426.788 116.371
L430.366 114.023
L433.945 111.711
L435.734 110.623
L438.417 108.822
L442.89 106.105
L446.469 103.781
L448.258 102.693
L450.942 100.95
L452.731 99.8373
L456.309 97.4997
L458.098 96.391
L460.782 94.6547
L461.677 94.1653
L465.255 91.6908
L467.044 90.5794
L468.834 89.4652
L475.096 85.2309
L475.096 85.2309" style="fill:none;stroke:#ff0000;stroke-linecap:square;"/>
   </g>
   <g id="line2d_4">
    <path clip-path="url(#p2118423672)" d="
M28.6956 368.709
L33.1686 366.291
L37.6415 363.901
L43.0091 360.856
L48.3766 357.746
L57.3225 352.868
L65.3738 348.198
L67.163 347.124
L68.9521 345.901
L73.4251 343.252
L77.0034 341.259
L79.6872 339.6
L83.2656 337.452
L85.9493 335.677
L88.6331 334.139
L92.2115 331.884
L94.0006 330.8
L97.579 328.51
L103.841 324.481
L107.419 322.125
L109.209 321.002
L117.26 315.628
L118.155 315.171
L119.049 314.523
L121.733 312.975
L126.206 310.239
L131.573 306.897
L134.257 305.127
L138.73 302.286
L141.414 300.685
L143.203 299.477
L146.781 297.183
L148.571 296.059
L170.935 280.971
L174.514 278.47
L177.197 276.711
L182.565 272.892
L187.038 269.649
L191.511 266.37
L195.089 263.748
L195.984 263.197
L197.773 261.948
L204.035 257.398
L204.93 256.857
L206.719 255.442
L210.297 253.069
L212.981 251.45
L223.716 244.46
L225.505 243.175
L228.189 241.548
L234.451 237.361
L236.24 236.199
L240.713 233.283
L243.397 231.546
L247.87 228.573
L269.34 215.105
L272.918 212.803
L274.708 211.697
L276.497 210.609
L280.075 208.303
L281.864 207.188
L282.759 206.503
L284.548 205.349
L286.337 204.164
L288.126 203.013
L291.705 200.538
L298.862 195.715
L301.545 194.087
L305.124 191.748
L307.807 190.097
L309.597 188.767
L311.386 187.588
L314.07 185.825
L315.859 184.689
L322.121 180.358
L323.91 179.208
L341.802 167.301
L343.591 165.996
L346.275 164.071
L349.853 161.805
L353.431 159.312
L356.115 157.579
L359.694 155.056
L360.588 154.52
L365.956 150.635
L367.745 149.413
L370.429 147.386
L371.323 146.847
L379.375 140.87
L380.269 140.32
L381.164 139.562
L382.953 138.272
L386.531 135.673
L389.215 133.85
L395.477 129.83
L399.056 127.521
L400.845 126.278
L403.528 124.535
L406.212 122.904
L409.791 120.514
L412.474 118.866
L415.158 117.088
L417.842 115.439
L424.999 110.447
L425.893 109.94
L427.682 108.62
L433.945 104.269
L435.734 103.1
L440.207 100.009
L442.89 98.3001
L446.469 95.8477
L448.258 94.7017
L450.942 92.8327
L451.836 92.3074
L456.309 89.1513
L458.098 87.957
L460.782 86.1059
L461.677 85.5751
L467.939 81.0588
L468.834 80.5252
L469.728 79.8533
L470.623 79.3239
L475.096 75.9909
L475.096 75.9909" style="fill:none;stroke:#00bfbf;stroke-linecap:square;"/>
   </g>
   <g id="line2d_5">
    <path clip-path="url(#p2118423672)" d="
M28.6956 368.707
L45.6928 359.308
L48.3766 357.825
L57.3225 353.11
L67.163 347.585
L68.9521 346.413
L73.4251 343.856
L77.0034 341.941
L79.6872 340.348
L83.2656 338.267
L87.7385 335.467
L90.4223 333.964
L94.8952 331.238
L96.6844 330.198
L102.947 326.296
L106.525 324.132
L110.103 321.889
L111.892 320.789
L116.365 317.859
L120.838 315.224
L124.417 313.146
L136.046 305.945
L139.625 303.79
L144.992 300.392
L147.676 298.827
L158.411 291.801
L160.2 290.696
L163.779 288.363
L192.405 269.296
L195.089 267.54
L195.984 267.042
L202.246 262.752
L204.93 261.097
L206.719 259.753
L212.086 256.363
L213.876 255.328
L221.927 250.298
L223.716 249.185
L225.505 247.966
L228.189 246.437
L234.451 242.463
L236.24 241.368
L240.713 238.609
L245.186 235.779
L246.975 234.723
L251.448 231.897
L255.027 229.703
L255.921 228.952
L259.5 226.678
L262.183 225.112
L264.867 223.421
L272.024 218.703
L273.813 217.612
L276.497 216.005
L279.181 214.282
L298.862 201.127
L301.545 199.537
L304.229 197.833
L306.913 196.182
L307.807 195.629
L309.597 194.324
L311.386 193.17
L314.07 191.449
L315.859 190.331
L322.121 186.098
L323.91 184.978
L343.591 172.072
L348.064 168.992
L349.853 167.966
L353.431 165.508
L355.221 164.34
L357.01 163.162
L362.377 159.495
L365.956 156.995
L366.85 156.465
L372.218 152.612
L373.112 152.034
L374.902 150.743
L377.585 148.643
L380.269 146.871
L381.164 146.121
L382.953 144.862
L387.426 141.627
L395.477 136.442
L399.056 134.166
L399.95 133.481
L404.423 130.699
L407.107 128.953
L413.369 124.94
L416.053 123.309
L422.315 119.029
L424.104 117.883
L431.261 112.898
L441.996 105.713
L443.785 104.528
L460.782 93.1022
L462.571 91.9327
L467.939 88.1394
L470.623 86.4363
L475.096 83.1711
L475.096 83.1711" style="fill:none;stroke:#bf00bf;stroke-linecap:square;"/>
   </g>
   <g id="line2d_6">
    <path clip-path="url(#p2118423672)" d="
M28.6956 368.709
L33.1686 366.428
L43.9036 360.813
L46.5874 359.357
L53.7441 355.789
L67.163 348.847
L68.9521 347.773
L72.5305 345.934
L77.0034 343.71
L79.6872 342.208
L84.1602 339.758
L87.7385 337.747
L90.4223 336.352
L94.8952 333.759
L96.6844 332.759
L102.947 328.968
L106.525 326.842
L110.103 324.633
L111.892 323.546
L113.682 322.402
L115.471 321.457
L120.838 318.401
L124.417 316.4
L136.046 309.405
L139.625 307.326
L144.992 304.02
L147.676 302.496
L156.622 296.835
L190.616 275.993
L195.089 273.168
L197.773 271.622
L201.351 269.376
L204.035 267.913
L204.93 267.493
L206.719 266.417
L213.876 262.61
L221.927 258.086
L223.716 257.088
L225.505 255.979
L228.189 254.599
L234.451 250.997
L236.24 249.996
L241.608 246.94
L251.448 241.371
L254.132 239.924
L259.5 236.755
L262.183 235.325
L265.762 233.232
L267.551 232.238
L269.34 231.126
L273.813 228.465
L276.497 226.989
L280.075 224.862
L281.864 223.828
L283.654 222.69
L292.599 217.083
L295.283 215.475
L297.072 214.324
L299.756 212.707
L301.545 211.665
L304.229 210.037
L341.802 186.591
L343.591 185.359
L346.275 183.537
L349.853 181.41
L353.431 179.058
L354.326 178.564
L356.115 177.447
L359.694 175.101
L361.483 173.991
L363.272 172.742
L365.061 171.624
L370.429 168.01
L373.112 166.522
L374.902 165.446
L378.48 163.234
L383.848 159.992
L384.742 159.54
L385.637 158.902
L387.426 157.851
L398.161 151.415
L399.056 150.939
L400.845 149.811
L403.528 148.205
L406.212 146.712
L409.791 144.54
L412.474 143.051
L415.158 141.443
L416.947 140.418
L418.737 139.378
L421.42 137.647
L424.999 135.47
L425.893 135.028
L427.682 133.9
L432.155 131.178
L434.839 129.715
L439.312 127.026
L441.996 125.493
L445.574 123.463
L447.363 122.451
L472.412 107.703
L475.096 106.012
L475.096 106.012" style="fill:none;stroke:#bfbf00;stroke-linecap:square;"/>
   </g>
   <g id="line2d_7">
    <path clip-path="url(#p2118423672)" d="
M28.6956 368.705
L39.4307 363.754
L50.1658 358.665
L58.2171 354.945
L67.163 350.564
L68.9521 349.582
L81.4764 343.484
L85.9493 341.096
L88.6331 339.816
L92.2115 337.961
L94.0006 337.062
L98.4736 334.65
L106.525 330.201
L113.682 325.964
L115.471 325.101
L120.838 322.298
L124.417 320.478
L140.519 311.741
L141.414 311.321
L143.203 310.276
L146.781 308.294
L148.571 307.334
L161.989 299.762
L163.779 298.831
L189.722 284.526
L195.089 281.473
L197.773 280.096
L203.141 276.992
L212.086 272.357
L213.876 271.479
L220.138 268.141
L229.084 263.348
L230.873 262.438
L238.924 257.973
L240.713 257.055
L245.186 254.586
L246.975 253.652
L250.554 251.682
L260.394 246.334
L262.183 245.383
L265.762 243.375
L267.551 242.415
L269.34 241.339
L273.813 238.787
L276.497 237.369
L280.075 235.327
L281.864 234.337
L283.654 233.248
L293.494 227.393
L295.283 226.335
L297.072 225.225
L299.756 223.667
L301.545 222.661
L304.229 221.103
L306.913 219.643
L307.807 219.159
L309.597 218.012
L311.386 217.003
L314.07 215.485
L315.859 214.496
L322.121 210.807
L323.91 209.816
L338.223 201.733
L340.907 200.321
L346.275 197.053
L349.853 195.157
L353.431 193.072
L356.115 191.644
L357.904 190.582
L361.483 188.545
L365.956 185.874
L367.745 184.866
L370.429 183.199
L372.218 182.191
L374.902 180.621
L377.585 178.883
L380.269 177.552
L382.058 176.54
L390.11 172.101
L405.318 164.225
L407.107 163.325
L413.369 160.142
L416.053 158.845
L422.315 155.428
L424.104 154.51
L432.155 150.086
L435.734 148.232
L440.207 145.812
L442.89 144.486
L446.469 142.569
L448.258 141.671
L450.942 140.208
L452.731 139.287
L456.309 137.332
L458.098 136.403
L460.782 134.954
L462.571 134.019
L467.939 131.01
L470.623 129.649
L475.096 127.042
L475.096 127.042" style="fill:none;stroke:#000000;stroke-linecap:square;"/>
   </g>
   <g id="line2d_8">
    <path clip-path="url(#p2118423672)" d="
M28.6956 368.712
L43.0091 362.729
L50.1658 359.729
L58.2171 356.373
L67.163 352.404
L68.9521 351.477
L73.4251 349.478
L77.0034 347.97
L79.6872 346.717
L84.1602 344.636
L87.7385 342.993
L90.4223 341.859
L94.8952 339.756
L96.6844 338.952
L104.736 335.022
L106.525 334.185
L110.103 332.396
L111.892 331.52
L115.471 329.68
L119.049 327.978
L121.733 326.807
L126.206 324.729
L131.573 322.178
L134.257 320.832
L138.73 318.65
L141.414 317.424
L143.203 316.489
L146.781 314.727
L148.571 313.869
L161.989 307.057
L163.779 306.229
L176.303 300.131
L180.776 297.988
L183.46 296.593
L184.354 296.22
L186.143 295.245
L191.511 292.565
L195.089 290.768
L197.773 289.523
L204.035 286.257
L204.93 285.868
L206.719 284.84
L223.716 276.91
L226.4 275.61
L229.084 274.355
L230.873 273.538
L238.924 269.546
L240.713 268.718
L245.186 266.507
L246.975 265.673
L251.448 263.456
L255.027 261.75
L259.5 259.487
L262.183 258.248
L265.762 256.45
L267.551 255.589
L269.34 254.628
L273.813 252.344
L276.497 251.079
L280.075 249.25
L281.864 248.367
L283.654 247.395
L292.599 242.591
L295.283 241.212
L297.072 240.228
L298.862 239.263
L301.545 238.014
L305.124 236.238
L307.807 234.976
L309.597 233.956
L313.175 232.203
L319.437 228.962
L321.226 228.088
L324.805 226.292
L328.383 224.535
L333.751 221.848
L335.54 220.971
L340.013 218.742
L341.802 217.872
L343.591 216.895
L348.064 214.57
L350.748 213.302
L353.431 211.939
L356.115 210.674
L359.694 208.83
L361.483 207.949
L365.956 205.62
L367.745 204.742
L370.429 203.271
L372.218 202.391
L374.902 201.005
L377.585 199.445
L380.269 198.138
L382.058 197.147
L385.637 195.191
L388.32 193.94
L391.899 192.211
L393.688 191.405
L415.158 181.305
L417.842 180.106
L424.999 176.48
L425.893 176.111
L427.682 175.146
L433.945 171.989
L435.734 171.143
L440.207 168.883
L442.89 167.64
L446.469 165.851
L448.258 165.015
L450.942 163.656
L452.731 162.793
L456.309 160.974
L458.993 159.626
L460.782 158.762
L462.571 157.898
L467.939 155.095
L470.623 153.831
L475.096 151.397
L475.096 151.397" style="fill:none;stroke:#0000ff;stroke-linecap:square;"/>
   </g>
   <g id="line2d_9">
    <path clip-path="url(#p2118423672)" d="
M28.6956 368.711
L34.0632 366.768
L38.5361 365.197
L60.9008 357.286
L68.9521 354.372
L81.4764 349.8
L87.7385 347.322
L90.4223 346.315
L111.892 337.206
L117.26 334.738
L118.155 334.391
L119.049 333.883
L140.519 325.441
L142.308 324.731
L147.676 322.69
L158.411 318.351
L160.2 317.666
L165.568 315.452
L167.357 314.737
L172.724 312.472
L174.514 311.765
L178.987 309.939
L182.565 308.462
L187.932 306.239
L189.722 305.52
L195.089 303.25
L197.773 302.224
L204.035 299.513
L204.93 299.19
L206.719 298.329
L211.192 296.449
L215.665 294.501
L229.084 289.154
L230.873 288.478
L242.502 283.712
L244.292 283.019
L247.87 281.574
L253.238 279.502
L255.027 278.839
L259.5 277.066
L262.183 276.105
L265.762 274.699
L267.551 274.031
L270.235 272.92
L273.813 271.517
L276.497 270.55
L280.97 268.809
L288.126 265.893
L292.599 263.999
L295.283 262.934
L297.072 262.165
L299.756 261.087
L301.545 260.394
L305.124 258.939
L307.807 257.924
L309.597 257.1
L313.175 255.676
L319.437 253.017
L321.226 252.31
L324.805 250.833
L328.383 249.389
L331.067 248.273
L332.856 247.552
L336.434 246.046
L339.118 244.987
L346.275 241.852
L350.748 240.054
L353.431 238.915
L356.115 237.849
L359.694 236.291
L361.483 235.549
L365.956 233.564
L367.745 232.81
L370.429 231.553
L373.112 230.433
L375.796 229.175
L380.269 227.183
L382.058 226.337
L390.11 222.655
L402.634 217.01
L405.318 215.959
L408.896 214.606
L411.58 213.547
L414.264 212.557
L416.947 211.508
L418.737 210.815
L421.42 209.666
L424.999 208.209
L425.893 207.905
L427.682 207.11
L432.155 205.212
L434.839 204.2
L435.734 203.696
L440.207 201.929
L442.89 200.964
L449.153 198.549
L455.415 196.149
L459.888 194.375
L462.571 193.412
L467.939 191.258
L470.623 190.293
L475.096 188.424
L475.096 188.424" style="fill:none;stroke:#008000;stroke-linecap:square;"/>
   </g>
   <g id="line2d_10">
    <path clip-path="url(#p2118423672)" d="
M28.6956 368.713
L81.4764 350.356
L87.7385 347.921
L90.4223 346.931
L116.365 336.014
L120.838 334.078
L127.1 331.746
L128.89 331.038
L134.257 329.01
L140.519 326.731
L142.308 326.062
L147.676 324.115
L158.411 319.922
L160.2 319.255
L165.568 317.128
L167.357 316.443
L172.724 314.271
L174.514 313.592
L179.881 311.501
L189.722 307.406
L196.878 304.391
L198.668 303.668
L204.035 301.321
L204.93 300.993
L206.719 300.122
L213.876 297.06
L216.559 295.885
L218.349 295.183
L222.821 293.508
L227.294 291.728
L229.978 290.787
L236.24 288.35
L241.608 286.357
L251.448 282.725
L255.027 281.445
L259.5 279.741
L262.183 278.806
L265.762 277.442
L267.551 276.79
L270.235 275.703
L273.813 274.331
L276.497 273.373
L280.97 271.66
L288.126 268.811
L293.494 266.613
L295.283 265.9
L297.072 265.151
L299.756 264.099
L301.545 263.421
L305.124 261.994
L307.807 260.989
L309.597 260.173
L313.175 258.767
L319.437 256.14
L321.226 255.44
L324.805 253.984
L328.383 252.561
L331.067 251.473
L332.856 250.767
L336.434 249.286
L339.118 248.247
L346.275 245.158
L350.748 243.386
L353.431 242.264
L356.115 241.209
L359.694 239.663
L361.483 238.928
L365.956 236.975
L367.745 236.229
L370.429 235.018
L373.112 233.919
L375.796 232.691
L380.269 230.758
L382.058 229.939
L391.899 225.587
L393.688 224.839
L404.423 220.222
L408.001 218.856
L410.685 217.904
L413.369 216.871
L416.053 215.913
L422.315 213.501
L424.104 212.869
L433.945 209.135
L435.734 208.498
L441.996 206.126
L444.68 205.12
L448.258 203.801
L453.625 201.741
L455.415 201.077
L459.888 199.331
L462.571 198.379
L467.939 196.258
L470.623 195.3
L475.096 193.456
L475.096 193.456" style="fill:none;stroke:#ff0000;stroke-linecap:square;"/>
   </g>
   <g id="line2d_11">
    <path clip-path="url(#p2118423672)" d="
M28.6956 368.706
L45.6928 362.355
L49.2712 361.046
L59.1117 357.51
L67.163 354.429
L68.9521 353.637
L85.0547 347.16
L87.7385 346.032
L90.4223 344.968
L113.682 334.54
L115.471 333.778
L120.838 331.33
L125.311 329.574
L153.938 318.117
L158.411 316.232
L160.2 315.522
L165.568 313.233
L167.357 312.499
L172.724 310.15
L174.514 309.415
L178.987 307.521
L180.776 306.77
L183.46 305.518
L184.354 305.181
L186.143 304.308
L191.511 301.865
L195.089 300.233
L197.773 299.108
L215.665 290.683
L242.502 279.292
L244.292 278.586
L250.554 276.04
L256.816 273.488
L258.605 272.782
L260.394 272.073
L262.183 271.362
L265.762 269.874
L267.551 269.164
L270.235 267.976
L273.813 266.471
L276.497 265.422
L280.075 263.9
L283.654 262.358
L290.81 259.124
L294.389 257.631
L299.756 255.254
L301.545 254.512
L305.124 252.951
L307.807 251.858
L309.597 250.969
L313.175 249.438
L319.437 246.569
L321.226 245.804
L324.805 244.207
L328.383 242.646
L331.067 241.453
L332.856 240.681
L336.434 239.055
L339.118 237.916
L346.275 234.54
L350.748 232.606
L353.431 231.384
L356.115 230.234
L359.694 228.557
L361.483 227.754
L365.956 225.625
L367.745 224.816
L370.429 223.475
L373.112 222.263
L375.796 220.908
L380.269 218.757
L382.058 217.849
L385.637 216.034
L388.32 214.748
L395.477 211.278
L399.056 209.579
L400.845 208.649
L402.634 207.85
L405.318 206.702
L407.107 205.966
L413.369 203.322
L416.053 202.251
L422.315 199.445
L424.104 198.69
L432.155 195.092
L435.734 193.639
L440.207 191.736
L443.785 190.29
L475.096 177.126
L475.096 177.126" style="fill:none;stroke:#00bfbf;stroke-linecap:square;"/>
   </g>
   <g id="line2d_12">
    <path clip-path="url(#p2118423672)" d="
M28.6956 368.714
L44.7982 362.278
L48.3766 360.845
L58.2171 356.985
L67.163 353.213
L68.9521 352.339
L74.3197 350.077
L77.0034 348.969
L79.6872 347.781
L84.1602 345.796
L86.8439 344.61
L89.5277 343.432
L91.3169 342.675
L94.8952 341.05
L96.6844 340.274
L104.736 336.527
L106.525 335.716
L110.103 334.013
L111.892 333.179
L117.26 330.487
L118.155 330.111
L119.049 329.564
L124.417 327.229
L151.254 314.767
L153.044 313.817
L161.095 309.936
L168.252 306.41
L170.041 305.544
L174.514 303.445
L178.987 301.371
L180.776 300.555
L182.565 299.655
L187.038 297.475
L204.93 288.892
L206.719 287.91
L211.192 285.735
L212.981 284.865
L224.611 279.567
L227.294 278.343
L229.978 277.224
L242.502 271.38
L244.292 270.577
L248.765 268.5
L255.027 265.639
L259.5 263.511
L262.183 262.344
L265.762 260.642
L267.551 259.825
L270.235 258.475
L273.813 256.767
L276.497 255.573
L280.97 253.442
L284.548 251.638
L293.494 247.127
L295.283 246.233
L297.072 245.295
L299.756 243.975
L301.545 243.123
L305.124 241.34
L307.807 240.097
L309.597 239.085
L313.175 237.321
L314.964 236.479
L322.121 232.878
L323.91 232.052
L329.278 229.454
L331.961 228.244
L334.645 226.931
L338.223 225.16
L340.907 223.938
L348.064 220.301
L350.748 219.082
L353.431 217.774
L356.115 216.555
L359.694 214.771
L361.483 213.927
L364.167 212.607
L372.218 208.544
L374.902 207.218
L377.585 205.715
L380.269 204.455
L382.058 203.508
L389.215 199.81
L397.266 195.792
L401.739 193.684
L404.423 192.545
L408.001 190.897
L412.474 188.939
L415.158 187.704
L417.842 186.536
L424.999 183.07
L425.893 182.712
L427.682 181.786
L433.945 178.739
L435.734 177.919
L440.207 175.734
L442.89 174.531
L446.469 172.793
L448.258 171.983
L450.942 170.667
L452.731 169.831
L456.309 168.079
L458.993 166.786
L460.782 165.956
L462.571 165.116
L467.939 162.407
L470.623 161.183
L475.096 158.848
L475.096 158.848" style="fill:none;stroke:#bf00bf;stroke-linecap:square;"/>
   </g>
   <g id="line2d_13">
    <path clip-path="url(#p2118423672)" d="
M28.6956 368.714
L42.1145 362.923
L51.0604 358.977
L60.9008 354.831
L68.0575 351.637
L68.9521 351.11
L84.1602 344.626
L87.7385 342.982
L90.4223 341.822
L112.787 330.743
L117.26 328.41
L118.155 328.06
L119.049 327.549
L121.733 326.353
L125.311 324.67
L134.257 320.295
L138.73 318.1
L141.414 316.88
L143.203 315.953
L146.781 314.198
L148.571 313.348
L158.411 308.271
L160.2 307.456
L165.568 304.841
L167.357 303.994
L172.724 301.349
L174.514 300.517
L178.987 298.386
L180.776 297.548
L182.565 296.61
L187.932 293.933
L189.722 293.068
L195.089 290.327
L197.773 289.085
L204.035 285.815
L204.93 285.423
L206.719 284.385
L212.086 281.785
L214.77 280.562
L223.716 276.294
L225.505 275.344
L228.189 274.161
L238.924 268.881
L240.713 268.057
L245.186 265.839
L246.975 265.005
L251.448 262.777
L254.132 261.54
L259.5 258.798
L262.183 257.561
L265.762 255.751
L267.551 254.884
L269.34 253.915
L273.813 251.614
L276.497 250.34
L280.075 248.494
L281.864 247.602
L283.654 246.621
L299.756 237.96
L301.545 237.05
L305.124 235.139
L307.807 233.807
L309.597 232.72
L311.386 231.772
L313.175 230.872
L319.437 227.53
L321.226 226.645
L324.805 224.797
L328.383 222.979
L331.067 221.589
L332.856 220.691
L336.434 218.818
L339.118 217.493
L348.064 212.719
L350.748 211.409
L355.221 208.95
L357.01 208.042
L365.061 203.777
L370.429 200.831
L372.218 199.904
L374.902 198.481
L377.585 196.867
L380.269 195.512
L382.058 194.476
L389.215 190.488
L391.899 189.096
L393.688 188.243
L405.318 182.57
L407.107 181.74
L411.58 179.621
L414.264 178.425
L416.947 177.126
L418.737 176.291
L420.526 175.319
L425.893 172.762
L427.682 171.798
L433.945 168.653
L435.734 167.807
L440.207 165.561
L442.89 164.31
L446.469 162.519
L448.258 161.679
L450.942 160.312
L452.731 159.449
L456.309 157.638
L458.993 156.293
L460.782 155.432
L462.571 154.568
L467.939 151.762
L470.623 150.501
L475.096 148.066
L475.096 148.066" style="fill:none;stroke:#bfbf00;stroke-linecap:square;"/>
   </g>
   <g id="line2d_14">
    <path clip-path="url(#p2118423672)" d="
M28.6956 368.711
L43.9036 361.52
L48.3766 359.368
L57.3225 355.262
L67.163 350.466
L68.9521 349.437
L72.5305 347.622
L77.0034 345.581
L79.6872 344.213
L83.2656 342.437
L87.7385 340.047
L90.4223 338.719
L109.209 328.117
L113.682 325.488
L115.471 324.51
L120.838 321.731
L124.417 319.919
L140.519 311.113
L141.414 310.692
L143.203 309.642
L146.781 307.644
L148.571 306.684
L160.2 300.065
L161.095 299.397
L168.252 295.439
L169.146 295.016
L170.935 293.966
L171.83 293.442
L172.724 292.775
L174.514 291.831
L177.197 290.425
L182.565 287.375
L187.932 284.303
L189.722 283.309
L194.195 280.725
L196.878 279.224
L198.668 278.248
L204.035 275.07
L204.93 274.626
L206.719 273.483
L213.876 269.823
L221.927 265.48
L223.716 264.51
L225.505 263.433
L228.189 262.088
L234.451 258.604
L237.135 257.161
L242.502 254.179
L244.292 253.216
L248.765 250.737
L255.027 247.31
L259.5 244.756
L262.183 243.359
L265.762 241.319
L267.551 240.345
L269.34 239.257
L273.813 236.682
L276.497 235.245
L279.181 233.714
L295.283 224.053
L296.178 223.421
L301.545 220.327
L304.229 218.733
L338.223 198.172
L340.907 196.68
L348.064 192.229
L350.748 190.737
L353.431 189.144
L356.115 187.658
L359.694 185.477
L361.483 184.444
L363.272 183.283
L365.061 182.245
L369.534 179.397
L376.691 175.04
L377.585 174.369
L380.269 172.84
L381.164 172.185
L382.953 171.093
L385.637 169.422
L387.426 168.462
L411.58 155.236
L414.264 153.85
L416.947 152.369
L418.737 151.417
L420.526 150.3
L425.893 147.496
L427.682 146.43
L433.945 142.983
L435.734 142.049
L440.207 139.59
L442.89 138.233
L446.469 136.282
L448.258 135.377
L450.942 133.894
L452.731 132.954
L456.309 130.981
L458.993 129.528
L460.782 128.597
L462.571 127.664
L467.939 124.649
L470.623 123.283
L475.096 120.648
L475.096 120.648" style="fill:none;stroke:#000000;stroke-linecap:square;"/>
   </g>
   <g id="line2d_15">
    <path clip-path="url(#p2118423672)" d="
M28.6956 368.718
L32.274 366.763
L35.8523 364.888
L40.3253 362.54
L47.482 358.704
L56.4279 354.131
L60.0062 352.233
L60.9008 351.62
L67.163 348.353
L68.9521 347.402
L72.5305 345.586
L77.0034 343.28
L79.6872 341.717
L83.2656 339.674
L87.7385 336.9
L90.4223 335.351
L94.8952 332.475
L96.6844 331.374
L102.947 327.217
L106.525 324.895
L108.314 323.74
L110.103 322.603
L111.892 321.607
L117.26 318.424
L118.155 317.981
L119.049 317.332
L121.733 315.794
L124.417 314.178
L129.784 310.822
L131.573 309.77
L133.363 308.605
L138.73 305.261
L141.414 303.699
L143.203 302.515
L146.781 300.275
L148.571 299.189
L155.727 294.688
L160.2 292.02
L162.884 290.386
L175.408 282.516
L178.092 280.946
L183.46 277.47
L184.354 276.99
L186.143 275.745
L191.511 272.269
L193.3 271.078
L195.984 269.681
L196.878 269.008
L198.668 268.076
L204.035 265.053
L204.93 264.633
L206.719 263.519
L211.192 261.006
L215.665 258.43
L229.084 250.473
L230.873 249.473
L238.924 244.548
L240.713 243.537
L245.186 240.824
L246.975 239.798
L251.448 237.087
L254.132 235.567
L259.5 232.219
L262.183 230.697
L265.762 228.483
L267.551 227.422
L269.34 226.237
L273.813 223.411
L276.497 221.848
L280.075 219.593
L281.864 218.497
L282.759 217.825
L284.548 216.693
L292.599 211.34
L295.283 209.636
L297.072 208.419
L299.756 206.689
L301.545 205.576
L304.229 203.848
L306.913 202.164
L307.807 201.605
L309.597 200.273
L311.386 199.103
L314.07 197.353
L315.859 196.22
L322.121 191.952
L323.91 190.812
L340.013 180.117
L341.802 178.956
L343.591 177.646
L348.064 174.538
L350.748 172.836
L353.431 171.002
L356.115 169.306
L357.904 168.052
L367.745 161.994
L370.429 160.209
L372.218 159.141
L374.902 157.481
L377.585 155.591
L380.269 154.005
L382.058 152.808
L387.426 149.331
L413.369 132.979
L415.158 131.895
L417.842 130.297
L422.315 127.25
L424.104 126.161
L432.155 120.981
L434.839 119.402
L440.207 115.959
L442.89 114.387
L446.469 112.109
L448.258 111.051
L450.942 109.339
L452.731 108.245
L456.309 105.95
L458.098 104.872
L460.782 103.192
L462.571 102.107
L465.255 100.292
L466.15 99.8055
L467.939 98.5821
L469.728 97.4955
L471.517 96.391
L475.096 93.958
L475.096 93.958" style="fill:none;stroke:#0000ff;stroke-linecap:square;"/>
   </g>
   <g id="line2d_16">
    <path clip-path="url(#p2118423672)" d="
M28.6956 368.711
L43.9036 360.648
L47.482 358.753
L54.6387 355.166
L64.4792 350.1
L67.163 348.657
L68.9521 347.56
L71.6359 346.153
L76.1089 343.934
L79.6872 341.792
L83.2656 339.708
L87.7385 336.87
L89.5277 335.788
L91.3169 334.698
L94.8952 332.382
L95.7898 331.887
L102.052 327.648
L107.419 324.032
L109.209 322.863
L113.682 319.823
L115.471 318.824
L120.838 315.596
L124.417 313.48
L140.519 303.362
L141.414 302.88
L143.203 301.691
L145.887 300.018
L184.354 276.163
L186.143 274.912
L192.405 270.791
L195.089 269.052
L197.773 267.426
L201.351 265.024
L204.035 263.456
L204.93 262.998
L206.719 261.803
L213.876 257.507
L221.927 252.449
L223.716 251.331
L225.505 250.089
L228.189 248.541
L234.451 244.534
L236.24 243.409
L240.713 240.577
L245.186 237.688
L246.975 236.591
L251.448 233.7
L254.132 232.063
L259.5 228.486
L262.183 226.855
L265.762 224.488
L267.551 223.36
L269.34 222.097
L273.813 219.076
L276.497 217.395
L280.075 214.986
L281.864 213.819
L283.654 212.542
L292.599 206.201
L295.283 204.367
L297.072 203.06
L299.756 201.22
L300.651 200.688
L303.335 198.838
L306.018 196.974
L307.807 195.779
L309.597 194.353
L311.386 193.102
L312.28 192.425
L313.175 191.891
L317.648 188.651
L321.226 186.255
L323.91 184.435
L343.591 171.056
L348.064 167.89
L349.853 166.821
L351.642 165.497
L352.537 164.969
L353.431 164.296
L354.326 163.765
L357.01 161.893
L362.377 158.154
L365.956 155.598
L366.85 155.056
L370.429 152.407
L371.323 151.933
L374.007 150.176
L374.902 149.662
L377.585 147.776
L380.269 146.189
L382.058 144.995
L389.215 140.332
L396.372 135.774
L398.161 134.551
L399.056 134.046
L400.845 132.802
L403.528 131.082
L406.212 129.476
L409.791 127.112
L410.685 126.617
L412.474 125.496
L415.158 123.775
L417.842 122.166
L423.209 118.572
L431.261 113.318
L455.415 98.2075
L459.888 95.2864
L462.571 93.705
L465.255 91.8664
L466.15 91.3742
L467.939 90.1522
L469.728 89.0615
L471.517 87.9514
L475.096 85.4825
L475.096 85.4825" style="fill:none;stroke:#008000;stroke-linecap:square;"/>
   </g>
   <g id="patch_3">
    <path d="
M28.6956 23.1417
L475.096 23.1417" style="fill:none;stroke:#000000;stroke-linecap:square;stroke-linejoin:miter;"/>
   </g>
   <g id="patch_4">
    <path d="
M475.096 368.742
L475.096 23.1417" style="fill:none;stroke:#000000;stroke-linecap:square;stroke-linejoin:miter;"/>
   </g>
   <g id="patch_5">
    <path d="
M28.6956 368.742
L475.096 368.742" style="fill:none;stroke:#000000;stroke-linecap:square;stroke-linejoin:miter;"/>
   </g>
   <g id="patch_6">
    <path d="
M28.6956 368.742
L28.6956 23.1417" style="fill:none;stroke:#000000;stroke-linecap:square;stroke-linejoin:miter;"/>
   </g>
   <g id="matplotlib.axis_1">
    <g id="xtick_1">
     <g id="line2d_17">
      <defs>
       <path d="
M0 0
L0 -4" id="m93b0483c22" style="stroke:#000000;stroke-width:0.5;"/>
      </defs>
      <g>
       <use style="stroke:#000000;stroke-width:0.5;" x="28.695625" xlink:href="#m93b0483c22" y="368.74175"/>
      </g>
     </g>
     <g id="line2d_18">
      <defs>
       <path d="
M0 0
L0 4" id="m741efc42ff" style="stroke:#000000;stroke-width:0.5;"/>
      </defs>
      <g>
       <use style="stroke:#000000;stroke-width:0.5;" x="28.695625" xlink:href="#m741efc42ff" y="23.14175"/>
      </g>
     </g>
     <g id="text_1">
      <!-- 0 -->
      <defs>
       <path d="
M31.7812 66.4062
Q24.1719 66.4062 20.3281 58.9062
Q16.5 51.4219 16.5 36.375
Q16.5 21.3906 20.3281 13.8906
Q24.1719 6.39062 31.7812 6.39062
Q39.4531 6.39062 43.2812 13.8906
Q47.125 21.3906 47.125 36.375
Q47.125 51.4219 43.2812 58.9062
Q39.4531 66.4062 31.7812 66.4062
M31.7812 74.2188
Q44.0469 74.2188 50.5156 64.5156
Q56.9844 54.8281 56.9844 36.375
Q56.9844 17.9688 50.5156 8.26562
Q44.0469 -1.42188 31.7812 -1.42188
Q19.5312 -1.42188 13.0625 8.26562
Q6.59375 17.9688 6.59375 36.375
Q6.59375 54.8281 13.0625 64.5156
Q19.5312 74.2188 31.7812 74.2188" id="DejaVuSans-30"/>
      </defs>
      <g transform="translate(25.6721875 381.859875)scale(0.12 -0.12)">
       <use xlink:href="#DejaVuSans-30"/>
      </g>
     </g>
    </g>
    <g id="xtick_2">
     <g id="line2d_19">
      <g>
       <use style="stroke:#000000;stroke-width:0.5;" x="118.154542836" xlink:href="#m93b0483c22" y="368.74175"/>
      </g>
     </g>
     <g id="line2d_20">
      <g>
       <use style="stroke:#000000;stroke-width:0.5;" x="118.154542836" xlink:href="#m741efc42ff" y="23.14175"/>
      </g>
     </g>
     <g id="text_2">
      <!-- 100 -->
      <defs>
       <path d="
M12.4062 8.29688
L28.5156 8.29688
L28.5156 63.9219
L10.9844 60.4062
L10.9844 69.3906
L28.4219 72.9062
L38.2812 72.9062
L38.2812 8.29688
L54.3906 8.29688
L54.3906 0
L12.4062 0
z
" id="DejaVuSans-31"/>
      </defs>
      <g transform="translate(107.759542836 381.859875)scale(0.12 -0.12)">
       <use xlink:href="#DejaVuSans-31"/>
       <use x="63.623046875" xlink:href="#DejaVuSans-30"/>
       <use x="127.24609375" xlink:href="#DejaVuSans-30"/>
      </g>
     </g>
    </g>
    <g id="xtick_3">
     <g id="line2d_21">
      <g>
       <use style="stroke:#000000;stroke-width:0.5;" x="207.613460671" xlink:href="#m93b0483c22" y="368.74175"/>
      </g>
     </g>
     <g id="line2d_22">
      <g>
       <use style="stroke:#000000;stroke-width:0.5;" x="207.613460671" xlink:href="#m741efc42ff" y="23.14175"/>
      </g>
     </g>
     <g id="text_3">
      <!-- 200 -->
      <defs>
       <path d="
M19.1875 8.29688
L53.6094 8.29688
L53.6094 0
L7.32812 0
L7.32812 8.29688
Q12.9375 14.1094 22.625 23.8906
Q32.3281 33.6875 34.8125 36.5312
Q39.5469 41.8438 41.4219 45.5312
Q43.3125 49.2188 43.3125 52.7812
Q43.3125 58.5938 39.2344 62.25
Q35.1562 65.9219 28.6094 65.9219
Q23.9688 65.9219 18.8125 64.3125
Q13.6719 62.7031 7.8125 59.4219
L7.8125 69.3906
Q13.7656 71.7812 18.9375 73
Q24.125 74.2188 28.4219 74.2188
Q39.75 74.2188 46.4844 68.5469
Q53.2188 62.8906 53.2188 53.4219
Q53.2188 48.9219 51.5312 44.8906
Q49.8594 40.875 45.4062 35.4062
Q44.1875 33.9844 37.6406 27.2188
Q31.1094 20.4531 19.1875 8.29688" id="DejaVuSans-32"/>
      </defs>
      <g transform="translate(196.999085671 381.859875)scale(0.12 -0.12)">
       <use xlink:href="#DejaVuSans-32"/>
       <use x="63.623046875" xlink:href="#DejaVuSans-30"/>
       <use x="127.24609375" xlink:href="#DejaVuSans-30"/>
      </g>
     </g>
    </g>
    <g id="xtick_4">
     <g id="line2d_23">
      <g>
       <use style="stroke:#000000;stroke-width:0.5;" x="297.072378507" xlink:href="#m93b0483c22" y="368.74175"/>
      </g>
     </g>
     <g id="line2d_24">
      <g>
       <use style="stroke:#000000;stroke-width:0.5;" x="297.072378507" xlink:href="#m741efc42ff" y="23.14175"/>
      </g>
     </g>
     <g id="text_4">
      <!-- 300 -->
      <defs>
       <path d="
M40.5781 39.3125
Q47.6562 37.7969 51.625 33
Q55.6094 28.2188 55.6094 21.1875
Q55.6094 10.4062 48.1875 4.48438
Q40.7656 -1.42188 27.0938 -1.42188
Q22.5156 -1.42188 17.6562 -0.515625
Q12.7969 0.390625 7.625 2.20312
L7.625 11.7188
Q11.7188 9.32812 16.5938 8.10938
Q21.4844 6.89062 26.8125 6.89062
Q36.0781 6.89062 40.9375 10.5469
Q45.7969 14.2031 45.7969 21.1875
Q45.7969 27.6406 41.2812 31.2656
Q36.7656 34.9062 28.7188 34.9062
L20.2188 34.9062
L20.2188 43.0156
L29.1094 43.0156
Q36.375 43.0156 40.2344 45.9219
Q44.0938 48.8281 44.0938 54.2969
Q44.0938 59.9062 40.1094 62.9062
Q36.1406 65.9219 28.7188 65.9219
Q24.6562 65.9219 20.0156 65.0312
Q15.375 64.1562 9.8125 62.3125
L9.8125 71.0938
Q15.4375 72.6562 20.3438 73.4375
Q25.25 74.2188 29.5938 74.2188
Q40.8281 74.2188 47.3594 69.1094
Q53.9062 64.0156 53.9062 55.3281
Q53.9062 49.2656 50.4375 45.0938
Q46.9688 40.9219 40.5781 39.3125" id="DejaVuSans-33"/>
      </defs>
      <g transform="translate(286.475816007 381.859875)scale(0.12 -0.12)">
       <use xlink:href="#DejaVuSans-33"/>
       <use x="63.623046875" xlink:href="#DejaVuSans-30"/>
       <use x="127.24609375" xlink:href="#DejaVuSans-30"/>
      </g>
     </g>
    </g>
    <g id="xtick_5">
     <g id="line2d_25">
      <g>
       <use style="stroke:#000000;stroke-width:0.5;" x="386.531296343" xlink:href="#m93b0483c22" y="368.74175"/>
      </g>
     </g>
     <g id="line2d_26">
      <g>
       <use style="stroke:#000000;stroke-width:0.5;" x="386.531296343" xlink:href="#m741efc42ff" y="23.14175"/>
      </g>
     </g>
     <g id="text_5">
      <!-- 400 -->
      <defs>
       <path d="
M37.7969 64.3125
L12.8906 25.3906
L37.7969 25.3906
z

M35.2031 72.9062
L47.6094 72.9062
L47.6094 25.3906
L58.0156 25.3906
L58.0156 17.1875
L47.6094 17.1875
L47.6094 0
L37.7969 0
L37.7969 17.1875
L4.89062 17.1875
L4.89062 26.7031
z
" id="DejaVuSans-34"/>
      </defs>
      <g transform="translate(375.770671343 381.859875)scale(0.12 -0.12)">
       <use xlink:href="#DejaVuSans-34"/>
       <use x="63.623046875" xlink:href="#DejaVuSans-30"/>
       <use x="127.24609375" xlink:href="#DejaVuSans-30"/>
      </g>
     </g>
    </g>
    <g id="text_6">
     <!-- time -->
     <defs>
      <path d="
M18.3125 70.2188
L18.3125 54.6875
L36.8125 54.6875
L36.8125 47.7031
L18.3125 47.7031
L18.3125 18.0156
Q18.3125 11.3281 20.1406 9.42188
Q21.9688 7.51562 27.5938 7.51562
L36.8125 7.51562
L36.8125 0
L27.5938 0
Q17.1875 0 13.2344 3.875
Q9.28125 7.76562 9.28125 18.0156
L9.28125 47.7031
L2.6875 47.7031
L2.6875 54.6875
L9.28125 54.6875
L9.28125 70.2188
z
" id="DejaVuSans-74"/>
      <path d="
M52 44.1875
Q55.375 50.25 60.0625 53.125
Q64.75 56 71.0938 56
Q79.6406 56 84.2812 50.0156
Q88.9219 44.0469 88.9219 33.0156
L88.9219 0
L79.8906 0
L79.8906 32.7188
Q79.8906 40.5781 77.0938 44.375
Q74.3125 48.1875 68.6094 48.1875
Q61.625 48.1875 57.5625 43.5469
Q53.5156 38.9219 53.5156 30.9062
L53.5156 0
L44.4844 0
L44.4844 32.7188
Q44.4844 40.625 41.7031 44.4062
Q38.9219 48.1875 33.1094 48.1875
Q26.2188 48.1875 22.1562 43.5312
Q18.1094 38.875 18.1094 30.9062
L18.1094 0
L9.07812 0
L9.07812 54.6875
L18.1094 54.6875
L18.1094 46.1875
Q21.1875 51.2188 25.4844 53.6094
Q29.7812 56 35.6875 56
Q41.6562 56 45.8281 52.9688
Q50 49.9531 52 44.1875" id="DejaVuSans-6d"/>
      <path d="
M56.2031 29.5938
L56.2031 25.2031
L14.8906 25.2031
Q15.4844 15.9219 20.4844 11.0625
Q25.4844 6.20312 34.4219 6.20312
Q39.5938 6.20312 44.4531 7.46875
Q49.3125 8.73438 54.1094 11.2812
L54.1094 2.78125
Q49.2656 0.734375 44.1875 -0.34375
Q39.1094 -1.42188 33.8906 -1.42188
Q20.7969 -1.42188 13.1562 6.1875
Q5.51562 13.8125 5.51562 26.8125
Q5.51562 40.2344 12.7656 48.1094
Q20.0156 56 32.3281 56
Q43.3594 56 49.7812 48.8906
Q56.2031 41.7969 56.2031 29.5938
M47.2188 32.2344
Q47.125 39.5938 43.0938 43.9844
Q39.0625 48.3906 32.4219 48.3906
Q24.9062 48.3906 20.3906 44.1406
Q15.875 39.8906 15.1875 32.1719
z
" id="DejaVuSans-65"/>
      <path d="
M9.42188 54.6875
L18.4062 54.6875
L18.4062 0
L9.42188 0
z

M9.42188 75.9844
L18.4062 75.9844
L18.4062 64.5938
L9.42188 64.5938
z
" id="DejaVuSans-69"/>
     </defs>
     <g transform="translate(238.82125 398.473625)scale(0.12 -0.12)">
      <use xlink:href="#DejaVuSans-74"/>
      <use x="39.208984375" xlink:href="#DejaVuSans-69"/>
      <use x="66.9921875" xlink:href="#DejaVuSans-6d"/>
      <use x="164.404296875" xlink:href="#DejaVuSans-65"/>
     </g>
    </g>
   </g>
   <g id="matplotlib.axis_2">
    <g id="ytick_1">
     <g id="line2d_27">
      <defs>
       <path d="
M0 0
L4 0" id="m728421d6d4" style="stroke:#000000;stroke-width:0.5;"/>
      </defs>
      <g>
       <use style="stroke:#000000;stroke-width:0.5;" x="28.695625" xlink:href="#m728421d6d4" y="368.74175"/>
      </g>
     </g>
     <g id="line2d_28">
      <defs>
       <path d="
M0 0
L-4 0" id="mcb0005524f" style="stroke:#000000;stroke-width:0.5;"/>
      </defs>
      <g>
       <use style="stroke:#000000;stroke-width:0.5;" x="475.095625" xlink:href="#mcb0005524f" y="368.74175"/>
      </g>
     </g>
     <g id="text_7">
      <!-- 0.0 -->
      <defs>
       <path d="
M10.6875 12.4062
L21 12.4062
L21 0
L10.6875 0
z
" id="DejaVuSans-2e"/>
      </defs>
      <g transform="translate(7.2 372.053)scale(0.12 -0.12)">
       <use xlink:href="#DejaVuSans-30"/>
       <use x="63.623046875" xlink:href="#DejaVuSans-2e"/>
       <use x="95.41015625" xlink:href="#DejaVuSans-30"/>
      </g>
     </g>
    </g>
    <g id="ytick_2">
     <g id="line2d_29">
      <g>
       <use style="stroke:#000000;stroke-width:0.5;" x="28.695625" xlink:href="#m728421d6d4" y="299.62175"/>
      </g>
     </g>
     <g id="line2d_30">
      <g>
       <use style="stroke:#000000;stroke-width:0.5;" x="475.095625" xlink:href="#mcb0005524f" y="299.62175"/>
      </g>
     </g>
     <g id="text_8">
      <!-- 0.5 -->
      <defs>
       <path d="
M10.7969 72.9062
L49.5156 72.9062
L49.5156 64.5938
L19.8281 64.5938
L19.8281 46.7344
Q21.9688 47.4688 24.1094 47.8281
Q26.2656 48.1875 28.4219 48.1875
Q40.625 48.1875 47.75 41.5
Q54.8906 34.8125 54.8906 23.3906
Q54.8906 11.625 47.5625 5.09375
Q40.2344 -1.42188 26.9062 -1.42188
Q22.3125 -1.42188 17.5469 -0.640625
Q12.7969 0.140625 7.71875 1.70312
L7.71875 11.625
Q12.1094 9.23438 16.7969 8.0625
Q21.4844 6.89062 26.7031 6.89062
Q35.1562 6.89062 40.0781 11.3281
Q45.0156 15.7656 45.0156 23.3906
Q45.0156 31 40.0781 35.4375
Q35.1562 39.8906 26.7031 39.8906
Q22.75 39.8906 18.8125 39.0156
Q14.8906 38.1406 10.7969 36.2812
z
" id="DejaVuSans-35"/>
      </defs>
      <g transform="translate(7.45125 302.933)scale(0.12 -0.12)">
       <use xlink:href="#DejaVuSans-30"/>
       <use x="63.623046875" xlink:href="#DejaVuSans-2e"/>
       <use x="95.41015625" xlink:href="#DejaVuSans-35"/>
      </g>
     </g>
    </g>
    <g id="ytick_3">
     <g id="line2d_31">
      <g>
       <use style="stroke:#000000;stroke-width:0.5;" x="28.695625" xlink:href="#m728421d6d4" y="230.50175"/>
      </g>
     </g>
     <g id="line2d_32">
      <g>
       <use style="stroke:#000000;stroke-width:0.5;" x="475.095625" xlink:href="#mcb0005524f" y="230.50175"/>
      </g>
     </g>
     <g id="text_9">
      <!-- 1.0 -->
      <g transform="translate(7.726875 233.813)scale(0.12 -0.12)">
       <use xlink:href="#DejaVuSans-31"/>
       <use x="63.623046875" xlink:href="#DejaVuSans-2e"/>
       <use x="95.41015625" xlink:href="#DejaVuSans-30"/>
      </g>
     </g>
    </g>
    <g id="ytick_4">
     <g id="line2d_33">
      <g>
       <use style="stroke:#000000;stroke-width:0.5;" x="28.695625" xlink:href="#m728421d6d4" y="161.38175"/>
      </g>
     </g>
     <g id="line2d_34">
      <g>
       <use style="stroke:#000000;stroke-width:0.5;" x="475.095625" xlink:href="#mcb0005524f" y="161.38175"/>
      </g>
     </g>
     <g id="text_10">
      <!-- 1.5 -->
      <g transform="translate(7.978125 164.693)scale(0.12 -0.12)">
       <use xlink:href="#DejaVuSans-31"/>
       <use x="63.623046875" xlink:href="#DejaVuSans-2e"/>
       <use x="95.41015625" xlink:href="#DejaVuSans-35"/>
      </g>
     </g>
    </g>
    <g id="ytick_5">
     <g id="line2d_35">
      <g>
       <use style="stroke:#000000;stroke-width:0.5;" x="28.695625" xlink:href="#m728421d6d4" y="92.26175"/>
      </g>
     </g>
     <g id="line2d_36">
      <g>
       <use style="stroke:#000000;stroke-width:0.5;" x="475.095625" xlink:href="#mcb0005524f" y="92.26175"/>
      </g>
     </g>
     <g id="text_11">
      <!-- 2.0 -->
      <g transform="translate(7.288125 95.573)scale(0.12 -0.12)">
       <use xlink:href="#DejaVuSans-32"/>
       <use x="63.623046875" xlink:href="#DejaVuSans-2e"/>
       <use x="95.41015625" xlink:href="#DejaVuSans-30"/>
      </g>
     </g>
    </g>
    <g id="ytick_6">
     <g id="line2d_37">
      <g>
       <use style="stroke:#000000;stroke-width:0.5;" x="28.695625" xlink:href="#m728421d6d4" y="23.14175"/>
      </g>
     </g>
     <g id="line2d_38">
      <g>
       <use style="stroke:#000000;stroke-width:0.5;" x="475.095625" xlink:href="#mcb0005524f" y="23.14175"/>
      </g>
     </g>
     <g id="text_12">
      <!-- 2.5 -->
      <g transform="translate(7.539375 26.453)scale(0.12 -0.12)">
       <use xlink:href="#DejaVuSans-32"/>
       <use x="63.623046875" xlink:href="#DejaVuSans-2e"/>
       <use x="95.41015625" xlink:href="#DejaVuSans-35"/>
      </g>
     </g>
    </g>
    <g id="text_13">
     <!-- 1e9 -->
     <defs>
      <path d="
M10.9844 1.51562
L10.9844 10.5
Q14.7031 8.73438 18.5 7.8125
Q22.3125 6.89062 25.9844 6.89062
Q35.75 6.89062 40.8906 13.4531
Q46.0469 20.0156 46.7812 33.4062
Q43.9531 29.2031 39.5938 26.9531
Q35.25 24.7031 29.9844 24.7031
Q19.0469 24.7031 12.6719 31.3125
Q6.29688 37.9375 6.29688 49.4219
Q6.29688 60.6406 12.9375 67.4219
Q19.5781 74.2188 30.6094 74.2188
Q43.2656 74.2188 49.9219 64.5156
Q56.5938 54.8281 56.5938 36.375
Q56.5938 19.1406 48.4062 8.85938
Q40.2344 -1.42188 26.4219 -1.42188
Q22.7031 -1.42188 18.8906 -0.6875
Q15.0938 0.046875 10.9844 1.51562
M30.6094 32.4219
Q37.25 32.4219 41.125 36.9531
Q45.0156 41.5 45.0156 49.4219
Q45.0156 57.2812 41.125 61.8438
Q37.25 66.4062 30.6094 66.4062
Q23.9688 66.4062 20.0938 61.8438
Q16.2188 57.2812 16.2188 49.4219
Q16.2188 41.5 20.0938 36.9531
Q23.9688 32.4219 30.6094 32.4219" id="DejaVuSans-39"/>
     </defs>
     <g transform="translate(28.695625 20.14175)scale(0.12 -0.12)">
      <use xlink:href="#DejaVuSans-31"/>
      <use x="63.623046875" xlink:href="#DejaVuSans-65"/>
      <use x="125.146484375" xlink:href="#DejaVuSans-39"/>
     </g>
    </g>
   </g>
   <g id="text_14">
    <!-- /agas/time/cache/get_entry -->
    <defs>
     <path d="
M25.3906 72.9062
L33.6875 72.9062
L8.29688 -9.28125
L0 -9.28125
z
" id="DejaVuSans-2f"/>
     <path d="
M54.8906 33.0156
L54.8906 0
L45.9062 0
L45.9062 32.7188
Q45.9062 40.4844 42.875 44.3281
Q39.8438 48.1875 33.7969 48.1875
Q26.5156 48.1875 22.3125 43.5469
Q18.1094 38.9219 18.1094 30.9062
L18.1094 0
L9.07812 0
L9.07812 54.6875
L18.1094 54.6875
L18.1094 46.1875
Q21.3438 51.125 25.7031 53.5625
Q30.0781 56 35.7969 56
Q45.2188 56 50.0469 50.1719
Q54.8906 44.3438 54.8906 33.0156" id="DejaVuSans-6e"/>
     <path d="
M50.9844 -16.6094
L50.9844 -23.5781
L-0.984375 -23.5781
L-0.984375 -16.6094
z
" id="DejaVuSans-5f"/>
     <path d="
M32.1719 -5.07812
Q28.375 -14.8438 24.75 -17.8125
Q21.1406 -20.7969 15.0938 -20.7969
L7.90625 -20.7969
L7.90625 -13.2812
L13.1875 -13.2812
Q16.8906 -13.2812 18.9375 -11.5156
Q21 -9.76562 23.4844 -3.21875
L25.0938 0.875
L2.98438 54.6875
L12.5 54.6875
L29.5938 11.9219
L46.6875 54.6875
L56.2031 54.6875
z
" id="DejaVuSans-79"/>
     <path d="
M54.8906 33.0156
L54.8906 0
L45.9062 0
L45.9062 32.7188
Q45.9062 40.4844 42.875 44.3281
Q39.8438 48.1875 33.7969 48.1875
Q26.5156 48.1875 22.3125 43.5469
Q18.1094 38.9219 18.1094 30.9062
L18.1094 0
L9.07812 0
L9.07812 75.9844
L18.1094 75.9844
L18.1094 46.1875
Q21.3438 51.125 25.7031 53.5625
Q30.0781 56 35.7969 56
Q45.2188 56 50.0469 50.1719
Q54.8906 44.3438 54.8906 33.0156" id="DejaVuSans-68"/>
     <path d="
M45.4062 27.9844
Q45.4062 37.75 41.375 43.1094
Q37.3594 48.4844 30.0781 48.4844
Q22.8594 48.4844 18.8281 43.1094
Q14.7969 37.75 14.7969 27.9844
Q14.7969 18.2656 18.8281 12.8906
Q22.8594 7.51562 30.0781 7.51562
Q37.3594 7.51562 41.375 12.8906
Q45.4062 18.2656 45.4062 27.9844
M54.3906 6.78125
Q54.3906 -7.17188 48.1875 -13.9844
Q42 -20.7969 29.2031 -20.7969
Q24.4688 -20.7969 20.2656 -20.0938
Q16.0625 -19.3906 12.1094 -17.9219
L12.1094 -9.1875
Q16.0625 -11.3281 19.9219 -12.3438
Q23.7812 -13.375 27.7812 -13.375
Q36.625 -13.375 41.0156 -8.76562
Q45.4062 -4.15625 45.4062 5.17188
L45.4062 9.625
Q42.625 4.78125 38.2812 2.39062
Q33.9375 0 27.875 0
Q17.8281 0 11.6719 7.65625
Q5.51562 15.3281 5.51562 27.9844
Q5.51562 40.6719 11.6719 48.3281
Q17.8281 56 27.875 56
Q33.9375 56 38.2812 53.6094
Q42.625 51.2188 45.4062 46.3906
L45.4062 54.6875
L54.3906 54.6875
z
" id="DejaVuSans-67"/>
     <path d="
M41.1094 46.2969
Q39.5938 47.1719 37.8125 47.5781
Q36.0312 48 33.8906 48
Q26.2656 48 22.1875 43.0469
Q18.1094 38.0938 18.1094 28.8125
L18.1094 0
L9.07812 0
L9.07812 54.6875
L18.1094 54.6875
L18.1094 46.1875
Q20.9531 51.1719 25.4844 53.5781
Q30.0312 56 36.5312 56
Q37.4531 56 38.5781 55.875
Q39.7031 55.7656 41.0625 55.5156
z
" id="DejaVuSans-72"/>
     <path d="
M48.7812 52.5938
L48.7812 44.1875
Q44.9688 46.2969 41.1406 47.3438
Q37.3125 48.3906 33.4062 48.3906
Q24.6562 48.3906 19.8125 42.8438
Q14.9844 37.3125 14.9844 27.2969
Q14.9844 17.2812 19.8125 11.7344
Q24.6562 6.20312 33.4062 6.20312
Q37.3125 6.20312 41.1406 7.25
Q44.9688 8.29688 48.7812 10.4062
L48.7812 2.09375
Q45.0156 0.34375 40.9844 -0.53125
Q36.9688 -1.42188 32.4219 -1.42188
Q20.0625 -1.42188 12.7812 6.34375
Q5.51562 14.1094 5.51562 27.2969
Q5.51562 40.6719 12.8594 48.3281
Q20.2188 56 33.0156 56
Q37.1562 56 41.1094 55.1406
Q45.0625 54.2969 48.7812 52.5938" id="DejaVuSans-63"/>
     <path d="
M44.2812 53.0781
L44.2812 44.5781
Q40.4844 46.5312 36.375 47.5
Q32.2812 48.4844 27.875 48.4844
Q21.1875 48.4844 17.8438 46.4375
Q14.5 44.3906 14.5 40.2812
Q14.5 37.1562 16.8906 35.375
Q19.2812 33.5938 26.5156 31.9844
L29.5938 31.2969
Q39.1562 29.25 43.1875 25.5156
Q47.2188 21.7812 47.2188 15.0938
Q47.2188 7.46875 41.1875 3.01562
Q35.1562 -1.42188 24.6094 -1.42188
Q20.2188 -1.42188 15.4531 -0.5625
Q10.6875 0.296875 5.42188 2
L5.42188 11.2812
Q10.4062 8.6875 15.2344 7.39062
Q20.0625 6.10938 24.8125 6.10938
Q31.1562 6.10938 34.5625 8.28125
Q37.9844 10.4531 37.9844 14.4062
Q37.9844 18.0625 35.5156 20.0156
Q33.0625 21.9688 24.7031 23.7812
L21.5781 24.5156
Q13.2344 26.2656 9.51562 29.9062
Q5.8125 33.5469 5.8125 39.8906
Q5.8125 47.6094 11.2812 51.7969
Q16.75 56 26.8125 56
Q31.7812 56 36.1719 55.2656
Q40.5781 54.5469 44.2812 53.0781" id="DejaVuSans-73"/>
     <path d="
M34.2812 27.4844
Q23.3906 27.4844 19.1875 25
Q14.9844 22.5156 14.9844 16.5
Q14.9844 11.7188 18.1406 8.90625
Q21.2969 6.10938 26.7031 6.10938
Q34.1875 6.10938 38.7031 11.4062
Q43.2188 16.7031 43.2188 25.4844
L43.2188 27.4844
z

M52.2031 31.2031
L52.2031 0
L43.2188 0
L43.2188 8.29688
Q40.1406 3.32812 35.5469 0.953125
Q30.9531 -1.42188 24.3125 -1.42188
Q15.9219 -1.42188 10.9531 3.29688
Q6 8.01562 6 15.9219
Q6 25.1406 12.1719 29.8281
Q18.3594 34.5156 30.6094 34.5156
L43.2188 34.5156
L43.2188 35.4062
Q43.2188 41.6094 39.1406 45
Q35.0625 48.3906 27.6875 48.3906
Q23 48.3906 18.5469 47.2656
Q14.1094 46.1406 10.0156 43.8906
L10.0156 52.2031
Q14.9375 54.1094 19.5781 55.0469
Q24.2188 56 28.6094 56
Q40.4844 56 46.3438 49.8438
Q52.2031 43.7031 52.2031 31.2031" id="DejaVuSans-61"/>
    </defs>
    <g transform="translate(153.21175 18.14175)scale(0.144 -0.144)">
     <use xlink:href="#DejaVuSans-2f"/>
     <use x="33.69140625" xlink:href="#DejaVuSans-61"/>
     <use x="94.970703125" xlink:href="#DejaVuSans-67"/>
     <use x="158.447265625" xlink:href="#DejaVuSans-61"/>
     <use x="219.7265625" xlink:href="#DejaVuSans-73"/>
     <use x="271.826171875" xlink:href="#DejaVuSans-2f"/>
     <use x="305.517578125" xlink:href="#DejaVuSans-74"/>
     <use x="344.7265625" xlink:href="#DejaVuSans-69"/>
     <use x="372.509765625" xlink:href="#DejaVuSans-6d"/>
     <use x="469.921875" xlink:href="#DejaVuSans-65"/>
     <use x="531.4453125" xlink:href="#DejaVuSans-2f"/>
     <use x="565.13671875" xlink:href="#DejaVuSans-63"/>
     <use x="620.1171875" xlink:href="#DejaVuSans-61"/>
     <use x="681.396484375" xlink:href="#DejaVuSans-63"/>
     <use x="736.376953125" xlink:href="#DejaVuSans-68"/>
     <use x="799.755859375" xlink:href="#DejaVuSans-65"/>
     <use x="861.279296875" xlink:href="#DejaVuSans-2f"/>
     <use x="894.970703125" xlink:href="#DejaVuSans-67"/>
     <use x="958.447265625" xlink:href="#DejaVuSans-65"/>
     <use x="1019.97070312" xlink:href="#DejaVuSans-74"/>
     <use x="1059.1796875" xlink:href="#DejaVuSans-5f"/>
     <use x="1109.1796875" xlink:href="#DejaVuSans-65"/>
     <use x="1170.703125" xlink:href="#DejaVuSans-6e"/>
     <use x="1234.08203125" xlink:href="#DejaVuSans-74"/>
     <use x="1273.29101562" xlink:href="#DejaVuSans-72"/>
     <use x="1314.40429688" xlink:href="#DejaVuSans-79"/>
    </g>
   </g>
   <g id="legend_1">
    <g id="patch_7">
     <path d="
M482.296 367.194
L614.085 367.194
L614.085 24.6897
L482.296 24.6897
z
" style="fill:#ffffff;stroke:#000000;stroke-linejoin:miter;"/>
    </g>
    <g id="line2d_39">
     <path d="
M492.376 36.3515
L512.536 36.3515" style="fill:none;stroke:#0000ff;stroke-linecap:square;"/>
    </g>
    <g id="line2d_40"/>
    <g id="text_15">
     <!-- locality#0 -->
     <defs>
      <path d="
M30.6094 48.3906
Q23.3906 48.3906 19.1875 42.75
Q14.9844 37.1094 14.9844 27.2969
Q14.9844 17.4844 19.1562 11.8438
Q23.3438 6.20312 30.6094 6.20312
Q37.7969 6.20312 41.9844 11.8594
Q46.1875 17.5312 46.1875 27.2969
Q46.1875 37.0156 41.9844 42.7031
Q37.7969 48.3906 30.6094 48.3906
M30.6094 56
Q42.3281 56 49.0156 48.375
Q55.7188 40.7656 55.7188 27.2969
Q55.7188 13.875 49.0156 6.21875
Q42.3281 -1.42188 30.6094 -1.42188
Q18.8438 -1.42188 12.1719 6.21875
Q5.51562 13.875 5.51562 27.2969
Q5.51562 40.7656 12.1719 48.375
Q18.8438 56 30.6094 56" id="DejaVuSans-6f"/>
      <path d="
M51.125 44
L36.9219 44
L32.8125 27.6875
L47.125 27.6875
z

M43.7969 71.7812
L38.7188 51.5156
L52.9844 51.5156
L58.1094 71.7812
L65.9219 71.7812
L60.8906 51.5156
L76.125 51.5156
L76.125 44
L58.9844 44
L54.9844 27.6875
L70.5156 27.6875
L70.5156 20.2188
L53.0781 20.2188
L48 0
L40.1875 0
L45.2188 20.2188
L30.9062 20.2188
L25.875 0
L18.0156 0
L23.0938 20.2188
L7.71875 20.2188
L7.71875 27.6875
L24.9062 27.6875
L29 44
L13.2812 44
L13.2812 51.5156
L30.9062 51.5156
L35.8906 71.7812
z
" id="DejaVuSans-23"/>
      <path d="
M9.42188 75.9844
L18.4062 75.9844
L18.4062 0
L9.42188 0
z
" id="DejaVuSans-6c"/>
     </defs>
     <g transform="translate(528.375625 41.3915)scale(0.144 -0.144)">
      <use xlink:href="#DejaVuSans-6c"/>
      <use x="27.783203125" xlink:href="#DejaVuSans-6f"/>
      <use x="88.96484375" xlink:href="#DejaVuSans-63"/>
      <use x="143.9453125" xlink:href="#DejaVuSans-61"/>
      <use x="205.224609375" xlink:href="#DejaVuSans-6c"/>
      <use x="233.0078125" xlink:href="#DejaVuSans-69"/>
      <use x="260.791015625" xlink:href="#DejaVuSans-74"/>
      <use x="300.0" xlink:href="#DejaVuSans-79"/>
      <use x="359.1796875" xlink:href="#DejaVuSans-23"/>
      <use x="442.96875" xlink:href="#DejaVuSans-30"/>
     </g>
    </g>
    <g id="line2d_41">
     <path d="
M492.376 57.488
L512.536 57.488" style="fill:none;stroke:#008000;stroke-linecap:square;"/>
    </g>
    <g id="line2d_42"/>
    <g id="text_16">
     <!-- locality#1 -->
     <g transform="translate(528.375625 62.528)scale(0.144 -0.144)">
      <use xlink:href="#DejaVuSans-6c"/>
      <use x="27.783203125" xlink:href="#DejaVuSans-6f"/>
      <use x="88.96484375" xlink:href="#DejaVuSans-63"/>
      <use x="143.9453125" xlink:href="#DejaVuSans-61"/>
      <use x="205.224609375" xlink:href="#DejaVuSans-6c"/>
      <use x="233.0078125" xlink:href="#DejaVuSans-69"/>
      <use x="260.791015625" xlink:href="#DejaVuSans-74"/>
      <use x="300.0" xlink:href="#DejaVuSans-79"/>
      <use x="359.1796875" xlink:href="#DejaVuSans-23"/>
      <use x="442.96875" xlink:href="#DejaVuSans-31"/>
     </g>
    </g>
    <g id="line2d_43">
     <path d="
M492.376 78.6245
L512.536 78.6245" style="fill:none;stroke:#ff0000;stroke-linecap:square;"/>
    </g>
    <g id="line2d_44"/>
    <g id="text_17">
     <!-- locality#10 -->
     <g transform="translate(528.375625 83.6645)scale(0.144 -0.144)">
      <use xlink:href="#DejaVuSans-6c"/>
      <use x="27.783203125" xlink:href="#DejaVuSans-6f"/>
      <use x="88.96484375" xlink:href="#DejaVuSans-63"/>
      <use x="143.9453125" xlink:href="#DejaVuSans-61"/>
      <use x="205.224609375" xlink:href="#DejaVuSans-6c"/>
      <use x="233.0078125" xlink:href="#DejaVuSans-69"/>
      <use x="260.791015625" xlink:href="#DejaVuSans-74"/>
      <use x="300.0" xlink:href="#DejaVuSans-79"/>
      <use x="359.1796875" xlink:href="#DejaVuSans-23"/>
      <use x="442.96875" xlink:href="#DejaVuSans-31"/>
      <use x="506.591796875" xlink:href="#DejaVuSans-30"/>
     </g>
    </g>
    <g id="line2d_45">
     <path d="
M492.376 99.761
L512.536 99.761" style="fill:none;stroke:#00bfbf;stroke-linecap:square;"/>
    </g>
    <g id="line2d_46"/>
    <g id="text_18">
     <!-- locality#11 -->
     <g transform="translate(528.375625 104.801)scale(0.144 -0.144)">
      <use xlink:href="#DejaVuSans-6c"/>
      <use x="27.783203125" xlink:href="#DejaVuSans-6f"/>
      <use x="88.96484375" xlink:href="#DejaVuSans-63"/>
      <use x="143.9453125" xlink:href="#DejaVuSans-61"/>
      <use x="205.224609375" xlink:href="#DejaVuSans-6c"/>
      <use x="233.0078125" xlink:href="#DejaVuSans-69"/>
      <use x="260.791015625" xlink:href="#DejaVuSans-74"/>
      <use x="300.0" xlink:href="#DejaVuSans-79"/>
      <use x="359.1796875" xlink:href="#DejaVuSans-23"/>
      <use x="442.96875" xlink:href="#DejaVuSans-31"/>
      <use x="506.591796875" xlink:href="#DejaVuSans-31"/>
     </g>
    </g>
    <g id="line2d_47">
     <path d="
M492.376 120.897
L512.536 120.897" style="fill:none;stroke:#bf00bf;stroke-linecap:square;"/>
    </g>
    <g id="line2d_48"/>
    <g id="text_19">
     <!-- locality#12 -->
     <g transform="translate(528.375625 125.9375)scale(0.144 -0.144)">
      <use xlink:href="#DejaVuSans-6c"/>
      <use x="27.783203125" xlink:href="#DejaVuSans-6f"/>
      <use x="88.96484375" xlink:href="#DejaVuSans-63"/>
      <use x="143.9453125" xlink:href="#DejaVuSans-61"/>
      <use x="205.224609375" xlink:href="#DejaVuSans-6c"/>
      <use x="233.0078125" xlink:href="#DejaVuSans-69"/>
      <use x="260.791015625" xlink:href="#DejaVuSans-74"/>
      <use x="300.0" xlink:href="#DejaVuSans-79"/>
      <use x="359.1796875" xlink:href="#DejaVuSans-23"/>
      <use x="442.96875" xlink:href="#DejaVuSans-31"/>
      <use x="506.591796875" xlink:href="#DejaVuSans-32"/>
     </g>
    </g>
    <g id="line2d_49">
     <path d="
M492.376 142.034
L512.536 142.034" style="fill:none;stroke:#bfbf00;stroke-linecap:square;"/>
    </g>
    <g id="line2d_50"/>
    <g id="text_20">
     <!-- locality#13 -->
     <g transform="translate(528.375625 147.074)scale(0.144 -0.144)">
      <use xlink:href="#DejaVuSans-6c"/>
      <use x="27.783203125" xlink:href="#DejaVuSans-6f"/>
      <use x="88.96484375" xlink:href="#DejaVuSans-63"/>
      <use x="143.9453125" xlink:href="#DejaVuSans-61"/>
      <use x="205.224609375" xlink:href="#DejaVuSans-6c"/>
      <use x="233.0078125" xlink:href="#DejaVuSans-69"/>
      <use x="260.791015625" xlink:href="#DejaVuSans-74"/>
      <use x="300.0" xlink:href="#DejaVuSans-79"/>
      <use x="359.1796875" xlink:href="#DejaVuSans-23"/>
      <use x="442.96875" xlink:href="#DejaVuSans-31"/>
      <use x="506.591796875" xlink:href="#DejaVuSans-33"/>
     </g>
    </g>
    <g id="line2d_51">
     <path d="
M492.376 163.17
L512.536 163.17" style="fill:none;stroke:#000000;stroke-linecap:square;"/>
    </g>
    <g id="line2d_52"/>
    <g id="text_21">
     <!-- locality#14 -->
     <g transform="translate(528.375625 168.2105)scale(0.144 -0.144)">
      <use xlink:href="#DejaVuSans-6c"/>
      <use x="27.783203125" xlink:href="#DejaVuSans-6f"/>
      <use x="88.96484375" xlink:href="#DejaVuSans-63"/>
      <use x="143.9453125" xlink:href="#DejaVuSans-61"/>
      <use x="205.224609375" xlink:href="#DejaVuSans-6c"/>
      <use x="233.0078125" xlink:href="#DejaVuSans-69"/>
      <use x="260.791015625" xlink:href="#DejaVuSans-74"/>
      <use x="300.0" xlink:href="#DejaVuSans-79"/>
      <use x="359.1796875" xlink:href="#DejaVuSans-23"/>
      <use x="442.96875" xlink:href="#DejaVuSans-31"/>
      <use x="506.591796875" xlink:href="#DejaVuSans-34"/>
     </g>
    </g>
    <g id="line2d_53">
     <path d="
M492.376 184.307
L512.536 184.307" style="fill:none;stroke:#0000ff;stroke-linecap:square;"/>
    </g>
    <g id="line2d_54"/>
    <g id="text_22">
     <!-- locality#15 -->
     <g transform="translate(528.375625 189.347)scale(0.144 -0.144)">
      <use xlink:href="#DejaVuSans-6c"/>
      <use x="27.783203125" xlink:href="#DejaVuSans-6f"/>
      <use x="88.96484375" xlink:href="#DejaVuSans-63"/>
      <use x="143.9453125" xlink:href="#DejaVuSans-61"/>
      <use x="205.224609375" xlink:href="#DejaVuSans-6c"/>
      <use x="233.0078125" xlink:href="#DejaVuSans-69"/>
      <use x="260.791015625" xlink:href="#DejaVuSans-74"/>
      <use x="300.0" xlink:href="#DejaVuSans-79"/>
      <use x="359.1796875" xlink:href="#DejaVuSans-23"/>
      <use x="442.96875" xlink:href="#DejaVuSans-31"/>
      <use x="506.591796875" xlink:href="#DejaVuSans-35"/>
     </g>
    </g>
    <g id="line2d_55">
     <path d="
M492.376 205.443
L512.536 205.443" style="fill:none;stroke:#008000;stroke-linecap:square;"/>
    </g>
    <g id="line2d_56"/>
    <g id="text_23">
     <!-- locality#2 -->
     <g transform="translate(528.375625 210.4835)scale(0.144 -0.144)">
      <use xlink:href="#DejaVuSans-6c"/>
      <use x="27.783203125" xlink:href="#DejaVuSans-6f"/>
      <use x="88.96484375" xlink:href="#DejaVuSans-63"/>
      <use x="143.9453125" xlink:href="#DejaVuSans-61"/>
      <use x="205.224609375" xlink:href="#DejaVuSans-6c"/>
      <use x="233.0078125" xlink:href="#DejaVuSans-69"/>
      <use x="260.791015625" xlink:href="#DejaVuSans-74"/>
      <use x="300.0" xlink:href="#DejaVuSans-79"/>
      <use x="359.1796875" xlink:href="#DejaVuSans-23"/>
      <use x="442.96875" xlink:href="#DejaVuSans-32"/>
     </g>
    </g>
    <g id="line2d_57">
     <path d="
M492.376 226.58
L512.536 226.58" style="fill:none;stroke:#ff0000;stroke-linecap:square;"/>
    </g>
    <g id="line2d_58"/>
    <g id="text_24">
     <!-- locality#3 -->
     <g transform="translate(528.375625 231.62)scale(0.144 -0.144)">
      <use xlink:href="#DejaVuSans-6c"/>
      <use x="27.783203125" xlink:href="#DejaVuSans-6f"/>
      <use x="88.96484375" xlink:href="#DejaVuSans-63"/>
      <use x="143.9453125" xlink:href="#DejaVuSans-61"/>
      <use x="205.224609375" xlink:href="#DejaVuSans-6c"/>
      <use x="233.0078125" xlink:href="#DejaVuSans-69"/>
      <use x="260.791015625" xlink:href="#DejaVuSans-74"/>
      <use x="300.0" xlink:href="#DejaVuSans-79"/>
      <use x="359.1796875" xlink:href="#DejaVuSans-23"/>
      <use x="442.96875" xlink:href="#DejaVuSans-33"/>
     </g>
    </g>
    <g id="line2d_59">
     <path d="
M492.376 247.716
L512.536 247.716" style="fill:none;stroke:#00bfbf;stroke-linecap:square;"/>
    </g>
    <g id="line2d_60"/>
    <g id="text_25">
     <!-- locality#4 -->
     <g transform="translate(528.375625 252.7565)scale(0.144 -0.144)">
      <use xlink:href="#DejaVuSans-6c"/>
      <use x="27.783203125" xlink:href="#DejaVuSans-6f"/>
      <use x="88.96484375" xlink:href="#DejaVuSans-63"/>
      <use x="143.9453125" xlink:href="#DejaVuSans-61"/>
      <use x="205.224609375" xlink:href="#DejaVuSans-6c"/>
      <use x="233.0078125" xlink:href="#DejaVuSans-69"/>
      <use x="260.791015625" xlink:href="#DejaVuSans-74"/>
      <use x="300.0" xlink:href="#DejaVuSans-79"/>
      <use x="359.1796875" xlink:href="#DejaVuSans-23"/>
      <use x="442.96875" xlink:href="#DejaVuSans-34"/>
     </g>
    </g>
    <g id="line2d_61">
     <path d="
M492.376 268.853
L512.536 268.853" style="fill:none;stroke:#bf00bf;stroke-linecap:square;"/>
    </g>
    <g id="line2d_62"/>
    <g id="text_26">
     <!-- locality#5 -->
     <g transform="translate(528.375625 273.893)scale(0.144 -0.144)">
      <use xlink:href="#DejaVuSans-6c"/>
      <use x="27.783203125" xlink:href="#DejaVuSans-6f"/>
      <use x="88.96484375" xlink:href="#DejaVuSans-63"/>
      <use x="143.9453125" xlink:href="#DejaVuSans-61"/>
      <use x="205.224609375" xlink:href="#DejaVuSans-6c"/>
      <use x="233.0078125" xlink:href="#DejaVuSans-69"/>
      <use x="260.791015625" xlink:href="#DejaVuSans-74"/>
      <use x="300.0" xlink:href="#DejaVuSans-79"/>
      <use x="359.1796875" xlink:href="#DejaVuSans-23"/>
      <use x="442.96875" xlink:href="#DejaVuSans-35"/>
     </g>
    </g>
    <g id="line2d_63">
     <path d="
M492.376 289.989
L512.536 289.989" style="fill:none;stroke:#bfbf00;stroke-linecap:square;"/>
    </g>
    <g id="line2d_64"/>
    <g id="text_27">
     <!-- locality#6 -->
     <defs>
      <path d="
M33.0156 40.375
Q26.375 40.375 22.4844 35.8281
Q18.6094 31.2969 18.6094 23.3906
Q18.6094 15.5312 22.4844 10.9531
Q26.375 6.39062 33.0156 6.39062
Q39.6562 6.39062 43.5312 10.9531
Q47.4062 15.5312 47.4062 23.3906
Q47.4062 31.2969 43.5312 35.8281
Q39.6562 40.375 33.0156 40.375
M52.5938 71.2969
L52.5938 62.3125
Q48.875 64.0625 45.0938 64.9844
Q41.3125 65.9219 37.5938 65.9219
Q27.8281 65.9219 22.6719 59.3281
Q17.5312 52.7344 16.7969 39.4062
Q19.6719 43.6562 24.0156 45.9219
Q28.375 48.1875 33.5938 48.1875
Q44.5781 48.1875 50.9531 41.5156
Q57.3281 34.8594 57.3281 23.3906
Q57.3281 12.1562 50.6875 5.35938
Q44.0469 -1.42188 33.0156 -1.42188
Q20.3594 -1.42188 13.6719 8.26562
Q6.98438 17.9688 6.98438 36.375
Q6.98438 53.6562 15.1875 63.9375
Q23.3906 74.2188 37.2031 74.2188
Q40.9219 74.2188 44.7031 73.4844
Q48.4844 72.75 52.5938 71.2969" id="DejaVuSans-36"/>
     </defs>
     <g transform="translate(528.375625 295.0295)scale(0.144 -0.144)">
      <use xlink:href="#DejaVuSans-6c"/>
      <use x="27.783203125" xlink:href="#DejaVuSans-6f"/>
      <use x="88.96484375" xlink:href="#DejaVuSans-63"/>
      <use x="143.9453125" xlink:href="#DejaVuSans-61"/>
      <use x="205.224609375" xlink:href="#DejaVuSans-6c"/>
      <use x="233.0078125" xlink:href="#DejaVuSans-69"/>
      <use x="260.791015625" xlink:href="#DejaVuSans-74"/>
      <use x="300.0" xlink:href="#DejaVuSans-79"/>
      <use x="359.1796875" xlink:href="#DejaVuSans-23"/>
      <use x="442.96875" xlink:href="#DejaVuSans-36"/>
     </g>
    </g>
    <g id="line2d_65">
     <path d="
M492.376 311.126
L512.536 311.126" style="fill:none;stroke:#000000;stroke-linecap:square;"/>
    </g>
    <g id="line2d_66"/>
    <g id="text_28">
     <!-- locality#7 -->
     <defs>
      <path d="
M8.20312 72.9062
L55.0781 72.9062
L55.0781 68.7031
L28.6094 0
L18.3125 0
L43.2188 64.5938
L8.20312 64.5938
z
" id="DejaVuSans-37"/>
     </defs>
     <g transform="translate(528.375625 316.166)scale(0.144 -0.144)">
      <use xlink:href="#DejaVuSans-6c"/>
      <use x="27.783203125" xlink:href="#DejaVuSans-6f"/>
      <use x="88.96484375" xlink:href="#DejaVuSans-63"/>
      <use x="143.9453125" xlink:href="#DejaVuSans-61"/>
      <use x="205.224609375" xlink:href="#DejaVuSans-6c"/>
      <use x="233.0078125" xlink:href="#DejaVuSans-69"/>
      <use x="260.791015625" xlink:href="#DejaVuSans-74"/>
      <use x="300.0" xlink:href="#DejaVuSans-79"/>
      <use x="359.1796875" xlink:href="#DejaVuSans-23"/>
      <use x="442.96875" xlink:href="#DejaVuSans-37"/>
     </g>
    </g>
    <g id="line2d_67">
     <path d="
M492.376 332.262
L512.536 332.262" style="fill:none;stroke:#0000ff;stroke-linecap:square;"/>
    </g>
    <g id="line2d_68"/>
    <g id="text_29">
     <!-- locality#8 -->
     <defs>
      <path d="
M31.7812 34.625
Q24.75 34.625 20.7188 30.8594
Q16.7031 27.0938 16.7031 20.5156
Q16.7031 13.9219 20.7188 10.1562
Q24.75 6.39062 31.7812 6.39062
Q38.8125 6.39062 42.8594 10.1719
Q46.9219 13.9688 46.9219 20.5156
Q46.9219 27.0938 42.8906 30.8594
Q38.875 34.625 31.7812 34.625
M21.9219 38.8125
Q15.5781 40.375 12.0312 44.7188
Q8.5 49.0781 8.5 55.3281
Q8.5 64.0625 14.7188 69.1406
Q20.9531 74.2188 31.7812 74.2188
Q42.6719 74.2188 48.875 69.1406
Q55.0781 64.0625 55.0781 55.3281
Q55.0781 49.0781 51.5312 44.7188
Q48 40.375 41.7031 38.8125
Q48.8281 37.1562 52.7969 32.3125
Q56.7812 27.4844 56.7812 20.5156
Q56.7812 9.90625 50.3125 4.23438
Q43.8438 -1.42188 31.7812 -1.42188
Q19.7344 -1.42188 13.25 4.23438
Q6.78125 9.90625 6.78125 20.5156
Q6.78125 27.4844 10.7812 32.3125
Q14.7969 37.1562 21.9219 38.8125
M18.3125 54.3906
Q18.3125 48.7344 21.8438 45.5625
Q25.3906 42.3906 31.7812 42.3906
Q38.1406 42.3906 41.7188 45.5625
Q45.3125 48.7344 45.3125 54.3906
Q45.3125 60.0625 41.7188 63.2344
Q38.1406 66.4062 31.7812 66.4062
Q25.3906 66.4062 21.8438 63.2344
Q18.3125 60.0625 18.3125 54.3906" id="DejaVuSans-38"/>
     </defs>
     <g transform="translate(528.375625 337.3025)scale(0.144 -0.144)">
      <use xlink:href="#DejaVuSans-6c"/>
      <use x="27.783203125" xlink:href="#DejaVuSans-6f"/>
      <use x="88.96484375" xlink:href="#DejaVuSans-63"/>
      <use x="143.9453125" xlink:href="#DejaVuSans-61"/>
      <use x="205.224609375" xlink:href="#DejaVuSans-6c"/>
      <use x="233.0078125" xlink:href="#DejaVuSans-69"/>
      <use x="260.791015625" xlink:href="#DejaVuSans-74"/>
      <use x="300.0" xlink:href="#DejaVuSans-79"/>
      <use x="359.1796875" xlink:href="#DejaVuSans-23"/>
      <use x="442.96875" xlink:href="#DejaVuSans-38"/>
     </g>
    </g>
    <g id="line2d_69">
     <path d="
M492.376 353.399
L512.536 353.399" style="fill:none;stroke:#008000;stroke-linecap:square;"/>
    </g>
    <g id="line2d_70"/>
    <g id="text_30">
     <!-- locality#9 -->
     <g transform="translate(528.375625 358.439)scale(0.144 -0.144)">
      <use xlink:href="#DejaVuSans-6c"/>
      <use x="27.783203125" xlink:href="#DejaVuSans-6f"/>
      <use x="88.96484375" xlink:href="#DejaVuSans-63"/>
      <use x="143.9453125" xlink:href="#DejaVuSans-61"/>
      <use x="205.224609375" xlink:href="#DejaVuSans-6c"/>
      <use x="233.0078125" xlink:href="#DejaVuSans-69"/>
      <use x="260.791015625" xlink:href="#DejaVuSans-74"/>
      <use x="300.0" xlink:href="#DejaVuSans-79"/>
      <use x="359.1796875" xlink:href="#DejaVuSans-23"/>
      <use x="442.96875" xlink:href="#DejaVuSans-39"/>
     </g>
    </g>
   </g>
  </g>
 </g>
 <defs>
  <clipPath id="p2118423672">
   <rect height="345.6" width="446.4" x="28.695625" y="23.14175"/>
  </clipPath>
 </defs>
</svg>
