<?xml version="1.0" encoding="utf-8" standalone="no"?>
<!DOCTYPE svg PUBLIC "-//W3C//DTD SVG 1.1//EN"
  "http://www.w3.org/Graphics/SVG/1.1/DTD/svg11.dtd">
<!-- Created with matplotlib (http://matplotlib.org/) -->
<svg height="408pt" version="1.1" viewBox="0 0 655 408" width="655pt" xmlns="http://www.w3.org/2000/svg" xmlns:xlink="http://www.w3.org/1999/xlink">
 <defs>
  <style type="text/css">
*{stroke-linecap:butt;stroke-linejoin:round;}
  </style>
 </defs>
 <g id="figure_1">
  <g id="patch_1">
   <path d="
M0 408.169
L655.85 408.169
L655.85 0
L0 0
z
" style="fill:#ffffff;"/>
  </g>
  <g id="axes_1">
   <g id="patch_2">
    <path d="
M63.2613 368.742
L509.661 368.742
L509.661 23.1417
L63.2613 23.1417
z
" style="fill:#ffffff;"/>
   </g>
   <g id="line2d_1">
    <path clip-path="url(#p3f6fae7697)" d="
M63.2613 368.22
L65.0504 367.426
L73.9963 363.137
L101.729 349.987
L103.518 349.065
L110.674 345.598
L114.253 343.68
L116.042 342.757
L120.515 340.341
L123.199 338.991
L126.777 337.079
L128.566 336.15
L132.145 334.233
L133.934 333.307
L139.301 330.392
L141.091 329.469
L143.774 328.049
L145.563 327.126
L151.826 323.715
L153.615 322.792
L158.088 320.371
L159.877 319.458
L165.244 316.532
L172.401 312.62
L174.19 311.696
L178.663 309.278
L181.347 307.929
L192.977 301.604
L194.766 300.679
L197.45 299.259
L199.239 298.344
L207.29 293.925
L209.974 292.578
L213.552 290.666
L216.236 289.245
L221.604 286.321
L223.393 285.398
L229.655 281.984
L232.339 280.636
L238.601 277.225
L240.39 276.303
L249.336 271.464
L251.125 270.549
L258.282 266.628
L273.49 258.378
L275.279 257.456
L279.752 255.039
L281.541 254.116
L285.119 252.196
L286.909 251.273
L291.381 248.857
L294.065 247.478
L303.906 242.25
L307.484 240.331
L310.168 238.984
L313.746 237.065
L315.535 236.141
L327.165 229.737
L328.954 228.815
L334.322 225.898
L336.111 224.976
L338.795 223.555
L341.478 222.216
L347.741 218.793
L356.687 213.959
L359.37 212.619
L362.949 210.692
L366.527 208.847
L370.105 206.928
L371.895 206.005
L379.946 201.668
L381.735 200.746
L383.524 199.824
L385.313 198.901
L387.997 197.482
L390.681 196.133
L394.259 194.218
L396.048 193.291
L400.521 190.875
L402.311 189.951
L406.783 187.533
L408.573 186.618
L414.835 183.196
L428.254 175.942
L430.043 175.026
L436.305 171.607
L438.989 170.259
L441.672 168.84
L443.462 167.916
L446.145 166.495
L448.829 165.148
L451.513 163.729
L453.302 162.804
L468.51 154.558
L470.299 153.632
L473.878 151.713
L477.456 149.867
L481.034 147.997
L509.661 132.741
L509.661 132.741" style="fill:none;stroke:#0000ff;stroke-linecap:square;"/>
   </g>
   <g id="line2d_2">
    <path clip-path="url(#p3f6fae7697)" d="
M63.2613 368.73
L66.8396 367.587
L101.729 356.47
L103.518 355.831
L110.674 353.483
L114.253 352.137
L116.042 351.498
L120.515 349.798
L123.199 348.873
L126.777 347.528
L128.566 346.887
L132.145 345.541
L134.828 344.548
L139.301 342.847
L141.091 342.208
L144.669 340.897
L150.036 338.875
L155.404 336.821
L157.193 336.182
L164.35 333.42
L166.139 332.78
L172.401 330.371
L176.874 328.733
L183.136 326.402
L187.609 324.697
L192.977 322.644
L194.766 322.005
L198.344 320.692
L220.709 312.291
L227.866 309.53
L230.549 308.605
L236.812 306.224
L241.284 304.556
L256.493 298.801
L267.228 294.714
L273.49 292.305
L275.279 291.667
L279.752 289.966
L281.541 289.327
L286.014 287.669
L304.8 280.675
L308.379 279.362
L316.43 276.419
L320.903 274.705
L348.635 264.229
L350.424 263.59
L356.687 261.181
L359.37 260.243
L368.316 256.925
L371 255.973
L381.735 251.961
L383.524 251.322
L385.313 250.683
L387.997 249.69
L390.681 248.766
L394.259 247.42
L396.048 246.78
L400.521 245.08
L402.311 244.44
L406.783 242.74
L408.573 242.086
L441.672 229.626
L445.251 228.347
L447.935 227.355
L450.618 226.431
L456.88 224.028
L458.67 223.383
L465.826 220.621
L469.405 219.343
L474.772 217.306
L480.14 215.371
L495.348 209.768
L497.137 209.129
L502.505 207.075
L505.188 206.151
L509.661 204.381
L509.661 204.381" style="fill:none;stroke:#008000;stroke-linecap:square;"/>
   </g>
   <g id="line2d_3">
    <path clip-path="url(#p3f6fae7697)" d="
M63.2613 368.73
L65.0504 367.646
L70.418 364.39
L73.1017 362.741
L86.5206 354.599
L101.729 345.379
L103.518 344.162
L105.307 343.076
L107.096 341.862
L111.569 339.017
L114.253 337.125
L116.042 335.906
L120.515 332.667
L123.199 330.903
L125.882 329.011
L129.461 326.443
L130.355 325.899
L135.723 321.985
L137.512 320.758
L141.985 317.521
L142.88 316.979
L148.247 313.061
L150.036 311.842
L155.404 307.924
L157.193 306.706
L164.35 301.444
L166.139 300.217
L169.717 297.517
L171.507 296.3
L175.085 293.735
L175.979 293.189
L179.558 290.592
L197.45 277.78
L199.239 276.55
L202.817 273.863
L203.712 273.318
L207.29 270.619
L208.185 270.075
L210.868 268.184
L212.658 266.966
L218.025 263.05
L218.92 262.504
L221.604 260.479
L223.393 259.26
L229.655 254.668
L232.339 252.906
L238.601 248.316
L239.495 247.769
L243.968 244.393
L245.757 243.176
L249.336 240.609
L251.125 239.375
L263.649 230.202
L264.544 229.659
L273.49 223.04
L275.279 221.822
L279.752 218.579
L280.646 218.035
L285.119 214.793
L286.909 213.575
L291.381 210.333
L292.276 209.789
L294.96 207.898
L295.854 207.354
L300.327 204.113
L301.222 203.569
L307.484 198.975
L311.062 196.54
L313.746 194.647
L316.43 192.754
L320.008 190.053
L321.798 188.835
L332.533 180.865
L343.268 173.405
L348.635 169.512
L350.424 168.289
L356.687 163.697
L358.476 162.479
L360.265 161.26
L362.949 159.368
L366.527 156.932
L370.105 154.365
L371.895 153.147
L374.578 151.268
L376.367 150.036
L380.84 146.765
L383.524 144.901
L384.419 144.357
L387.997 141.794
L390.681 140.031
L394.259 137.47
L396.048 136.245
L400.521 133.007
L402.311 131.784
L406.783 128.542
L407.678 127.998
L413.94 123.271
L414.835 122.728
L418.413 120.029
L419.308 119.485
L421.992 117.461
L423.781 116.227
L428.254 112.999
L430.043 111.776
L436.305 107.189
L438.094 105.976
L440.778 104.21
L444.356 101.644
L447.04 99.8822
L449.724 97.9913
L451.513 96.7733
L452.408 96.2287
L459.564 90.9603
L460.459 90.4167
L465.826 86.3658
L467.616 85.1483
L472.089 81.9051
L474.772 80.0887
L489.98 69.464
L494.453 66.2218
L496.242 65.1351
L502.505 60.5431
L503.399 60.0005
L509.661 55.4055
L509.661 55.4055" style="fill:none;stroke:#ff0000;stroke-linecap:square;"/>
   </g>
   <g id="line2d_4">
    <path clip-path="url(#p3f6fae7697)" d="
M63.2613 368.73
L65.0504 367.685
L74.8909 361.954
L92.7827 351.574
L105.307 344.18
L107.096 343.017
L111.569 340.296
L114.253 338.486
L116.042 337.321
L120.515 334.221
L123.199 332.535
L126.777 330.087
L128.566 328.914
L132.145 326.46
L133.934 325.292
L139.301 321.546
L141.091 320.38
L143.774 318.571
L145.563 317.404
L151.826 313.014
L152.72 312.492
L155.404 310.555
L157.193 309.389
L164.35 304.354
L166.139 303.183
L170.612 300.072
L175.085 296.981
L175.979 296.46
L179.558 293.972
L210.868 272.542
L212.658 271.376
L218.025 267.631
L218.92 267.109
L221.604 265.171
L223.393 264.006
L229.655 259.613
L232.339 257.928
L238.601 253.537
L239.495 253.015
L243.968 249.786
L245.757 248.621
L249.336 246.165
L251.125 244.983
L263.649 236.211
L265.438 235.046
L271.701 230.651
L276.173 227.55
L277.963 226.384
L282.436 223.282
L284.225 222.117
L287.803 219.661
L289.592 218.496
L293.171 216.04
L303.906 208.797
L307.484 206.341
L311.062 204.012
L313.746 202.202
L316.43 200.39
L320.008 197.807
L321.798 196.642
L332.533 189.019
L344.162 181.244
L348.635 178.158
L350.424 176.989
L356.687 172.596
L358.476 171.431
L360.265 170.266
L362.949 168.456
L366.527 166.126
L370.105 163.67
L371.895 162.505
L374.578 160.706
L376.367 159.529
L380.84 156.399
L383.524 154.617
L385.313 153.453
L387.997 151.644
L390.681 149.959
L394.259 147.508
L396.048 146.337
L400.521 143.237
L402.311 142.071
L406.783 138.968
L407.678 138.449
L413.94 133.928
L414.835 133.408
L418.413 130.825
L419.308 130.306
L421.992 128.37
L423.781 127.19
L428.254 124.102
L430.043 122.932
L436.305 118.543
L438.989 116.859
L441.672 115.051
L443.462 113.883
L446.145 112.074
L448.829 110.39
L451.513 108.581
L453.302 107.414
L456.88 104.868
L458.67 103.666
L465.826 98.6262
L467.616 97.4615
L472.089 94.359
L474.772 92.6202
L487.297 84.2695
L490.875 81.8138
L492.664 80.6471
L495.348 78.8377
L497.137 77.6725
L502.505 73.9252
L505.188 72.2402
L509.661 69.0108
L509.661 69.0108" style="fill:none;stroke:#00bfbf;stroke-linecap:square;"/>
   </g>
   <g id="line2d_5">
    <path clip-path="url(#p3f6fae7697)" d="
M63.2613 368.73
L65.0504 367.792
L70.418 364.9
L73.1017 363.431
L105.307 345.98
L107.096 344.9
L111.569 342.375
L114.253 340.696
L116.042 339.615
L120.515 336.739
L123.199 335.174
L126.777 332.904
L128.566 331.813
L132.145 329.536
L133.934 328.455
L139.301 324.978
L141.091 323.896
L143.774 322.217
L145.563 321.136
L151.826 317.061
L152.72 316.577
L155.404 314.779
L157.193 313.699
L164.35 309.026
L166.139 307.941
L170.612 305.055
L175.085 302.186
L176.874 301.098
L180.452 298.824
L184.031 296.634
L188.504 293.666
L192.977 290.789
L194.766 289.707
L197.45 288.028
L199.239 286.933
L202.817 284.55
L204.606 283.464
L209.079 280.59
L212.658 278.429
L218.025 274.951
L218.92 274.469
L221.604 272.672
L223.393 271.591
L229.655 267.515
L232.339 265.951
L238.601 261.876
L239.495 261.393
L243.968 258.397
L245.757 257.316
L249.336 255.037
L251.125 253.941
L263.649 245.801
L265.438 244.721
L273.49 239.445
L275.279 238.364
L279.752 235.486
L281.541 234.405
L285.119 232.126
L286.909 231.045
L291.381 228.166
L293.171 227.086
L304.8 219.767
L307.484 218.088
L311.062 215.926
L313.746 214.245
L316.43 212.565
L320.008 210.169
L321.798 209.088
L332.533 202.014
L345.057 194.213
L348.635 191.938
L350.424 190.854
L356.687 186.778
L358.476 185.696
L360.265 184.615
L362.949 182.935
L366.527 180.774
L370.105 178.496
L371.895 177.414
L374.578 175.745
L376.367 174.654
L380.84 171.746
L383.524 170.096
L385.313 169.016
L387.997 167.336
L390.681 165.774
L394.259 163.498
L396.048 162.414
L400.521 159.536
L402.311 158.454
L406.783 155.576
L407.678 155.094
L413.94 150.899
L414.835 150.417
L418.413 148.021
L419.308 147.539
L421.992 145.742
L423.781 144.646
L428.254 141.782
L430.043 140.698
L436.305 136.624
L438.989 135.062
L441.672 133.384
L443.462 132.301
L446.145 130.622
L448.829 129.06
L451.513 127.381
L453.302 126.299
L456.88 123.93
L458.67 122.822
L465.826 118.145
L467.616 117.064
L472.089 114.186
L474.772 112.567
L484.613 106.503
L488.191 104.229
L489.98 103.144
L494.453 100.266
L497.137 98.7037
L502.505 95.226
L505.188 93.6634
L509.661 90.6671
L509.661 90.6671" style="fill:none;stroke:#bf00bf;stroke-linecap:square;"/>
   </g>
   <g id="line2d_6">
    <path clip-path="url(#p3f6fae7697)" d="
M63.2613 368.73
L65.0504 367.863
L77.5747 361.745
L101.729 349.98
L103.518 349.002
L110.674 345.41
L114.253 343.348
L116.042 342.37
L120.515 339.768
L123.199 338.352
L126.777 336.296
L128.566 335.312
L132.145 333.25
L133.934 332.27
L139.301 329.125
L141.091 328.146
L143.774 326.626
L146.458 325.105
L151.826 321.961
L152.72 321.522
L155.404 319.896
L157.193 318.918
L164.35 314.688
L166.139 313.707
L171.507 310.56
L175.085 308.499
L176.874 307.513
L180.452 305.457
L184.925 302.959
L192.977 298.186
L194.766 297.207
L197.45 295.687
L199.239 294.695
L202.817 292.54
L204.606 291.557
L209.079 288.957
L212.658 287
L218.025 283.854
L218.92 283.418
L221.604 281.791
L223.393 280.813
L229.655 277.124
L232.339 275.71
L238.601 272.022
L239.495 271.584
L243.968 268.873
L245.757 267.895
L249.336 265.833
L251.125 264.84
L273.49 251.724
L275.279 250.745
L279.752 248.14
L281.541 247.162
L285.119 245.1
L286.909 244.122
L291.381 241.518
L293.171 240.539
L300.327 236.521
L302.117 235.543
L307.484 232.396
L311.957 229.897
L313.746 228.919
L316.43 227.399
L320.008 225.23
L321.798 224.252
L332.533 217.852
L340.584 213.397
L342.373 212.418
L346.846 209.708
L349.53 208.293
L356.687 204.063
L359.37 202.634
L363.843 200.099
L371.895 195.589
L374.578 194.076
L376.367 193.091
L381.735 189.944
L383.524 188.966
L385.313 187.988
L387.997 186.469
L390.681 185.054
L394.259 182.997
L396.048 182.014
L400.521 179.41
L402.311 178.431
L406.783 175.826
L408.573 174.833
L428.254 163.344
L430.043 162.362
L436.305 158.677
L438.989 157.263
L441.672 155.745
L443.462 154.765
L446.145 153.245
L448.829 151.831
L451.513 150.312
L453.302 149.332
L456.88 147.183
L458.67 146.185
L465.826 141.954
L467.616 140.976
L472.089 138.371
L474.772 136.896
L482.824 132.487
L488.191 129.36
L489.98 128.378
L494.453 125.774
L497.137 124.36
L502.505 121.213
L505.188 119.799
L509.661 117.087
L509.661 117.087" style="fill:none;stroke:#bfbf00;stroke-linecap:square;"/>
   </g>
   <g id="line2d_7">
    <path clip-path="url(#p3f6fae7697)" d="
M63.2613 368.73
L65.0504 367.947
L81.153 360.966
L105.307 350.414
L107.096 349.546
L111.569 347.515
L114.253 346.164
L116.042 345.295
L120.515 342.982
L123.199 341.724
L126.777 339.896
L128.566 339.022
L132.145 337.19
L133.934 336.32
L139.301 333.524
L141.091 332.655
L143.774 331.304
L146.458 329.953
L151.826 327.158
L153.615 326.261
L167.928 318.862
L172.401 316.547
L175.979 314.809
L180.452 312.494
L185.82 309.793
L192.082 306.514
L195.66 304.681
L200.133 302.442
L210.868 296.964
L212.658 296.094
L218.025 293.299
L219.814 292.405
L294.065 254.35
L296.749 253.072
L300.327 251.24
L302.117 250.37
L307.484 247.573
L311.957 245.354
L313.746 244.484
L317.325 242.644
L333.427 234.196
L337.9 232.042
L340.584 230.691
L342.373 229.822
L346.846 227.414
L349.53 226.157
L356.687 222.397
L359.37 221.127
L365.632 217.974
L367.422 217.088
L370.105 215.737
L373.684 213.999
L380.84 210.303
L387.997 206.763
L390.681 205.506
L394.259 203.676
L396.048 202.804
L400.521 200.49
L402.311 199.62
L406.783 197.306
L408.573 196.423
L428.254 186.215
L430.043 185.341
L436.305 182.067
L438.989 180.811
L441.672 179.461
L443.462 178.591
L446.145 177.24
L448.829 175.984
L451.513 174.634
L453.302 173.764
L458.67 170.968
L465.826 167.208
L467.616 166.339
L472.089 164.024
L475.667 162.286
L482.824 158.793
L488.191 156.015
L489.98 155.144
L494.453 152.83
L497.137 151.573
L502.505 148.777
L505.188 147.52
L509.661 145.111
L509.661 145.111" style="fill:none;stroke:#000000;stroke-linecap:square;"/>
   </g>
   <g id="line2d_8">
    <path clip-path="url(#p3f6fae7697)" d="
M63.2613 368.73
L66.8396 367.348
L105.307 352.569
L107.096 351.803
L111.569 350.011
L114.253 348.82
L116.042 348.054
L120.515 346.014
L123.199 344.905
L126.777 343.293
L128.566 342.523
L132.145 340.907
L133.934 340.14
L139.301 337.675
L141.091 336.908
L143.774 335.717
L146.458 334.525
L151.826 332.061
L153.615 331.268
L167.034 325.166
L173.296 322.342
L213.552 304.25
L215.341 303.479
L219.814 301.415
L259.176 283.565
L261.86 282.304
L264.544 281.195
L273.49 277.03
L275.279 276.264
L279.752 274.223
L281.541 273.456
L285.119 271.84
L288.698 270.307
L294.065 267.859
L297.644 266.309
L302.117 264.351
L307.484 261.885
L315.535 258.394
L327.165 252.955
L328.954 252.189
L334.322 249.723
L336.111 248.957
L338.795 247.765
L342.373 246.232
L346.846 244.109
L349.53 243.001
L356.687 239.686
L359.37 238.563
L365.632 235.782
L367.422 235.003
L370.105 233.812
L375.473 231.513
L382.63 228.199
L385.313 227.09
L387.997 225.899
L390.681 224.79
L394.259 223.177
L396.048 222.408
L400.521 220.368
L402.311 219.601
L406.783 217.56
L408.573 216.779
L436.305 204.123
L438.989 203.015
L441.672 201.824
L445.251 200.291
L447.935 199.1
L450.618 197.992
L456.88 195.111
L458.67 194.335
L465.826 191.019
L469.405 189.487
L474.772 187.049
L480.14 184.722
L507.872 172.385
L509.661 171.535
L509.661 171.535" style="fill:none;stroke:#0000ff;stroke-linecap:square;"/>
   </g>
   <g id="line2d_9">
    <path clip-path="url(#p3f6fae7697)" d="
M63.2613 368.73
L66.8396 367.595
L101.729 356.531
L103.518 355.895
L110.674 353.558
L114.253 352.218
L116.042 351.582
L120.515 349.891
L123.199 348.97
L126.777 347.634
L128.566 346.994
L132.145 345.655
L134.828 344.666
L139.301 342.974
L141.091 342.338
L144.669 341.035
L150.931 338.669
L155.404 336.977
L157.193 336.341
L164.35 333.594
L166.139 332.956
L172.401 330.559
L176.874 328.929
L183.136 326.611
L187.609 324.913
L192.977 322.87
L194.766 322.234
L198.344 320.928
L224.287 311.227
L229.655 309.183
L232.339 308.264
L238.601 305.867
L240.39 305.202
L259.176 298.095
L261.86 297.052
L264.544 296.132
L273.49 292.678
L275.279 292.042
L279.752 290.35
L281.541 289.714
L286.014 288.067
L322.692 274.473
L333.427 270.331
L337.9 268.76
L340.584 267.772
L342.373 267.136
L346.846 265.375
L349.53 264.455
L356.687 261.706
L359.37 260.771
L368.316 257.471
L371 256.523
L381.735 252.53
L383.524 251.894
L385.313 251.258
L387.997 250.272
L390.681 249.351
L394.259 248.014
L396.048 247.375
L400.521 245.684
L402.311 245.047
L406.783 243.355
L408.573 242.704
L441.672 230.305
L445.251 229.032
L447.935 228.045
L450.618 227.125
L456.88 224.739
L458.67 224.092
L465.826 221.343
L469.405 220.072
L474.772 218.047
L480.14 216.119
L509.661 205.182
L509.661 205.182" style="fill:none;stroke:#008000;stroke-linecap:square;"/>
   </g>
   <g id="line2d_10">
    <path clip-path="url(#p3f6fae7697)" d="
M63.2613 368.73
L66.8396 367.501
L101.729 355.516
L103.518 354.828
L110.674 352.297
L114.253 350.846
L116.042 350.157
L120.515 348.326
L123.199 347.327
L126.777 345.882
L128.566 345.187
L132.145 343.735
L133.934 343.046
L139.301 340.831
L141.091 340.142
L144.669 338.73
L150.036 336.55
L155.404 334.335
L157.193 333.646
L164.35 330.673
L166.139 329.979
L172.401 327.382
L176.874 325.617
L183.136 323.108
L187.609 321.267
L192.977 319.054
L194.766 318.364
L198.344 316.949
L206.396 313.626
L209.974 312.216
L218.92 308.657
L221.604 307.512
L224.287 306.441
L229.655 304.227
L232.339 303.23
L238.601 300.634
L240.39 299.915
L254.703 294.063
L261.86 291.087
L264.544 290.089
L273.49 286.347
L275.279 285.659
L279.752 283.825
L281.541 283.136
L285.119 281.684
L289.592 279.925
L294.065 278.11
L298.538 276.369
L303.906 274.192
L308.379 272.394
L316.43 269.223
L321.798 267.007
L333.427 262.14
L337.9 260.437
L340.584 259.366
L342.373 258.678
L346.846 256.77
L349.53 255.774
L356.687 252.796
L359.37 251.786
L365.632 249.292
L367.422 248.589
L371 247.183
L403.205 234.368
L406.783 232.917
L408.573 232.212
L439.883 219.47
L442.567 218.456
L447.935 216.332
L450.618 215.336
L456.88 212.752
L458.67 212.05
L465.826 209.072
L469.405 207.694
L474.772 205.502
L480.14 203.414
L509.661 191.565
L509.661 191.565" style="fill:none;stroke:#ff0000;stroke-linecap:square;"/>
   </g>
   <g id="line2d_11">
    <path clip-path="url(#p3f6fae7697)" d="
M63.2613 368.73
L65.945 367.7
L101.729 353.913
L103.518 353.141
L110.674 350.302
L114.253 348.675
L116.042 347.9
L120.515 345.848
L123.199 344.726
L126.777 343.107
L128.566 342.324
L132.145 340.697
L133.934 339.922
L139.301 337.437
L141.091 336.664
L143.774 335.463
L147.353 333.834
L151.826 331.781
L153.615 330.977
L167.034 324.829
L172.401 322.345
L175.979 320.8
L180.452 318.743
L185.82 316.34
L192.977 313.001
L194.766 312.226
L197.45 311.025
L201.028 309.395
L207.29 306.485
L209.974 305.33
L219.814 300.883
L259.176 282.887
L261.86 281.62
L264.544 280.498
L273.49 276.299
L275.279 275.527
L279.752 273.469
L281.541 272.697
L285.119 271.067
L288.698 269.521
L294.065 267.057
L297.644 265.491
L303.011 263.086
L308.379 260.649
L317.325 256.649
L333.427 249.139
L337.9 247.225
L340.584 246.025
L342.373 245.252
L346.846 243.112
L349.53 241.993
L356.687 238.652
L359.37 237.52
L365.632 234.722
L367.422 233.931
L370.105 232.731
L375.473 230.412
L382.63 227.075
L385.313 225.953
L387.997 224.757
L390.681 223.636
L394.259 222.013
L396.048 221.234
L400.521 219.181
L402.311 218.404
L406.783 216.346
L408.573 215.558
L438.094 202.035
L440.778 200.91
L444.356 199.283
L447.04 198.164
L449.724 196.965
L452.408 195.846
L459.564 192.504
L461.353 191.711
L481.034 182.842
L484.613 181.268
L488.191 179.648
L489.98 178.866
L494.453 176.81
L497.137 175.692
L502.505 173.206
L505.188 172.088
L509.661 169.947
L509.661 169.947" style="fill:none;stroke:#00bfbf;stroke-linecap:square;"/>
   </g>
   <g id="line2d_12">
    <path clip-path="url(#p3f6fae7697)" d="
M63.2613 368.73
L65.0504 367.957
L90.0989 357.027
L105.307 350.293
L107.096 349.422
L111.569 347.374
L114.253 346.016
L116.042 345.139
L120.515 342.814
L123.199 341.541
L126.777 339.708
L128.566 338.821
L132.145 336.978
L133.934 336.098
L139.301 333.285
L141.091 332.408
L143.774 331.048
L146.458 329.686
L151.826 326.876
L153.615 325.97
L168.823 318.029
L172.401 316.185
L175.979 314.434
L180.452 312.103
L185.82 309.381
L192.082 306.08
L195.66 304.235
L199.239 302.471
L202.817 300.543
L204.606 299.663
L209.079 297.336
L214.447 294.709
L221.604 290.923
L223.393 290.047
L229.655 286.748
L232.339 285.479
L238.601 282.183
L240.39 281.283
L249.336 276.641
L252.02 275.28
L260.965 270.523
L263.649 269.162
L265.438 268.286
L273.49 264.015
L275.279 263.138
L279.752 260.808
L281.541 259.932
L285.119 258.087
L288.698 256.335
L294.065 253.545
L297.644 251.769
L302.117 249.533
L307.484 246.717
L311.957 244.481
L314.641 243.168
L317.325 241.752
L333.427 233.245
L337.9 231.074
L340.584 229.714
L342.373 228.838
L346.846 226.415
L349.53 225.146
L356.687 221.362
L359.37 220.081
L363.843 217.81
L371.895 213.777
L374.578 212.429
L376.367 211.54
L382.63 208.245
L385.313 206.973
L387.997 205.62
L390.681 204.348
L394.259 202.511
L396.048 201.626
L400.521 199.302
L402.311 198.42
L406.783 196.09
L408.573 195.2
L428.254 184.919
L430.043 184.039
L436.305 180.744
L438.989 179.475
L441.672 178.121
L443.462 177.24
L446.145 175.88
L448.829 174.614
L451.513 173.258
L453.302 172.378
L459.564 169.077
L461.353 168.181
L476.561 160.39
L493.559 151.779
L495.348 150.904
L497.137 150.028
L502.505 147.213
L505.188 145.946
L509.661 143.52
L509.661 143.52" style="fill:none;stroke:#bf00bf;stroke-linecap:square;"/>
   </g>
   <g id="line2d_13">
    <path clip-path="url(#p3f6fae7697)" d="
M63.2613 368.73
L65.0504 367.864
L82.0476 359.518
L105.307 348.002
L107.096 347.022
L111.569 344.72
L114.253 343.193
L116.042 342.206
L120.515 339.59
L123.199 338.161
L126.777 336.099
L128.566 335.102
L132.145 333.029
L133.934 332.041
L139.301 328.877
L141.091 327.89
L143.774 326.362
L146.458 324.83
L151.826 321.669
L153.615 320.656
L181.347 304.585
L187.609 300.905
L192.977 297.743
L194.766 296.754
L197.45 295.226
L199.239 294.228
L202.817 292.059
L204.606 291.07
L209.079 288.453
L212.658 286.484
L221.604 281.241
L223.393 280.256
L229.655 276.546
L232.339 275.12
L238.601 271.414
L239.495 270.969
L243.074 268.785
L246.652 266.712
L248.441 265.726
L255.598 261.469
L257.387 260.483
L263.649 256.771
L265.438 255.786
L273.49 250.982
L275.279 249.997
L279.752 247.376
L281.541 246.391
L285.119 244.317
L286.909 243.331
L291.381 240.714
L293.171 239.727
L323.587 222.242
L327.165 220.061
L328.954 219.076
L334.322 215.91
L336.111 214.926
L338.795 213.398
L342.373 211.427
L346.846 208.702
L349.53 207.275
L356.687 203.02
L359.37 201.581
L363.843 199.034
L376.367 191.976
L381.735 188.809
L383.524 187.826
L385.313 186.841
L387.997 185.316
L390.681 183.888
L394.259 181.822
L396.048 180.828
L400.521 178.213
L402.311 177.222
L406.783 174.602
L408.573 173.604
L426.464 163.028
L429.148 161.584
L438.094 156.369
L440.778 154.936
L444.356 152.864
L447.04 151.438
L449.724 149.911
L452.408 148.484
L459.564 144.227
L460.459 143.787
L465.826 140.514
L467.616 139.529
L472.089 136.908
L474.772 135.429
L483.718 130.447
L488.191 127.848
L489.98 126.851
L494.453 124.233
L497.137 122.807
L502.505 119.641
L505.188 118.216
L509.661 115.488
L509.661 115.488" style="fill:none;stroke:#bfbf00;stroke-linecap:square;"/>
   </g>
   <g id="line2d_14">
    <path clip-path="url(#p3f6fae7697)" d="
M63.2613 368.73
L64.1558 368.325
L66.8396 366.819
L95.4665 351.312
L101.729 347.912
L103.518 346.826
L110.674 342.834
L114.253 340.545
L116.042 339.456
L120.515 336.567
L123.199 334.989
L126.777 332.708
L128.566 331.611
L132.145 329.321
L133.934 328.23
L139.301 324.736
L141.091 323.646
L143.774 321.958
L145.563 320.869
L151.826 316.776
L152.72 316.285
L155.404 314.479
L157.193 313.39
L164.35 308.696
L166.139 307.599
L170.612 304.696
L175.085 301.815
L176.874 300.717
L180.452 298.43
L183.136 296.753
L185.82 295.05
L190.293 292.043
L192.082 290.95
L195.66 288.659
L199.239 286.474
L202.817 284.074
L204.606 282.982
L209.079 280.092
L211.763 278.518
L218.025 274.425
L218.92 273.935
L221.604 272.127
L223.393 271.039
L229.655 266.942
L232.339 265.367
L238.601 261.272
L239.495 260.783
L243.968 257.77
L245.757 256.682
L249.336 254.391
L251.125 253.29
L263.649 245.102
L265.438 244.015
L273.49 238.709
L275.279 237.621
L279.752 234.727
L281.541 233.639
L285.119 231.348
L286.909 230.26
L291.381 227.37
L293.171 226.279
L319.114 209.865
L327.165 204.561
L328.954 203.472
L334.322 199.976
L336.111 198.888
L338.795 197.202
L341.478 195.622
L348.635 190.931
L350.424 189.837
L356.687 185.74
L359.37 184.154
L362.949 181.874
L366.527 179.7
L370.105 177.409
L371.895 176.321
L374.578 174.645
L376.367 173.544
L380.84 170.624
L383.524 168.961
L385.313 167.873
L387.997 166.189
L390.681 164.613
L394.259 162.329
L396.048 161.233
L400.521 158.344
L402.311 157.251
L406.783 154.357
L407.678 153.871
L413.94 149.654
L415.729 148.557
L421.992 144.469
L423.781 143.366
L428.254 140.484
L430.043 139.393
L436.305 135.299
L438.989 133.725
L441.672 132.041
L443.462 130.948
L446.145 129.26
L448.829 127.689
L451.513 126.003
L453.302 124.911
L457.775 122.016
L465.826 116.711
L467.616 115.623
L472.089 112.729
L474.772 111.099
L484.613 105.002
L488.191 102.723
L489.98 101.623
L494.453 98.7299
L497.137 97.1559
L502.505 93.6599
L505.188 92.0865
L509.661 89.0733
L509.661 89.0733" style="fill:none;stroke:#000000;stroke-linecap:square;"/>
   </g>
   <g id="line2d_15">
    <path clip-path="url(#p3f6fae7697)" d="
M63.2613 368.73
L64.1558 368.298
L66.8396 366.679
L87.4152 354.659
L101.729 346.305
L103.518 345.135
L109.78 341.358
L111.569 340.187
L114.253 338.37
L116.042 337.196
L120.515 334.083
L123.199 332.383
L126.777 329.929
L128.566 328.744
L132.145 326.278
L133.934 325.102
L139.301 321.338
L141.091 320.164
L143.774 318.345
L145.563 317.172
L151.826 312.761
L152.72 312.233
L155.404 310.288
L157.193 309.114
L164.35 304.058
L166.139 302.874
L170.612 299.75
L175.085 296.645
L176.874 295.462
L180.452 292.998
L184.031 290.632
L202.817 277.531
L204.606 276.354
L209.079 273.242
L211.763 271.546
L218.025 267.135
L218.92 266.608
L221.604 264.66
L223.393 263.488
L229.655 259.074
L232.339 257.378
L238.601 252.967
L239.495 252.438
L243.968 249.192
L245.757 248.021
L249.336 245.553
L251.125 244.368
L263.649 235.545
L265.438 234.373
L273.49 228.658
L275.279 227.486
L279.752 224.367
L281.541 223.196
L285.119 220.727
L286.909 219.555
L291.381 216.44
L293.171 215.266
L303.906 207.983
L307.484 205.515
L311.062 203.173
L313.746 201.354
L315.535 200.181
L327.165 191.869
L328.954 190.696
L334.322 186.929
L336.111 185.757
L338.795 183.942
L341.478 182.239
L348.635 177.184
L350.424 176.006
L356.687 171.593
L358.476 170.421
L360.265 169.247
L362.949 167.427
L366.527 165.085
L370.105 162.617
L371.895 161.445
L374.578 159.643
L376.367 158.454
L380.84 155.308
L383.524 153.516
L385.313 152.344
L387.997 150.53
L390.681 148.832
L394.259 146.372
L396.048 145.19
L400.521 142.079
L402.311 140.901
L406.783 137.783
L407.678 137.259
L413.94 132.715
L414.835 132.192
L418.413 129.597
L419.308 129.074
L421.992 127.13
L423.781 125.943
L428.254 122.837
L430.043 121.661
L436.305 117.251
L438.989 115.555
L441.672 113.741
L443.462 112.563
L446.145 110.745
L448.829 109.052
L451.513 107.235
L453.302 106.06
L456.88 103.5
L458.67 102.292
L465.826 97.2256
L467.616 96.054
L472.089 92.9347
L473.878 91.7646
L479.245 88.2409
L481.929 86.433
L483.718 85.2515
L488.191 82.1574
L489.98 80.9705
L494.453 77.8552
L497.137 76.1588
L502.505 72.3927
L505.188 70.6973
L509.661 67.4506
L509.661 67.4506" style="fill:none;stroke:#0000ff;stroke-linecap:square;"/>
   </g>
   <g id="line2d_16">
    <path clip-path="url(#p3f6fae7697)" d="
M63.2613 368.73
L64.1558 368.27
L66.8396 366.585
L101.729 345.462
L103.518 344.248
L105.307 343.165
L107.096 341.955
L111.569 339.117
L114.253 337.231
L116.042 336.014
L120.515 332.785
L123.199 331.023
L125.882 329.136
L129.461 326.576
L131.25 325.36
L135.723 322.13
L137.512 320.904
L141.985 317.676
L142.88 317.134
L148.247 313.227
L150.036 312.011
L155.404 308.104
L157.193 306.887
L164.35 301.641
L166.139 300.416
L169.717 297.723
L171.507 296.508
L175.085 293.952
L175.979 293.405
L179.558 290.814
L197.45 278.037
L199.239 276.81
L202.817 274.128
L203.712 273.585
L207.29 270.895
L209.079 269.678
L211.763 267.921
L218.025 263.345
L218.92 262.799
L221.604 260.779
L223.393 259.563
L229.655 254.984
L232.339 253.225
L238.601 248.649
L239.495 248.102
L243.968 244.735
L245.757 243.52
L249.336 240.96
L251.125 239.729
L263.649 230.58
L264.544 230.038
L273.49 223.435
L274.384 222.893
L279.752 218.986
L280.646 218.444
L285.119 215.21
L286.909 213.995
L291.381 210.762
L293.171 209.546
L303.906 201.992
L307.484 199.433
L310.168 197.676
L313.746 195.116
L315.535 193.9
L327.165 185.278
L328.954 184.062
L334.322 180.154
L335.216 179.612
L338.795 177.055
L341.478 175.289
L348.635 170.046
L350.424 168.824
L356.687 164.246
L358.476 163.031
L360.265 161.814
L362.949 159.927
L366.527 157.497
L370.105 154.937
L371.895 153.722
L374.578 151.853
L376.367 150.618
L380.84 147.357
L383.524 145.497
L385.313 144.282
L387.997 142.399
L390.681 140.639
L394.259 138.087
L396.048 136.862
L400.521 133.633
L402.311 132.413
L406.783 129.179
L407.678 128.636
L413.94 123.923
L414.835 123.381
L418.413 120.688
L419.308 120.146
L421.992 118.128
L423.781 116.898
L428.254 113.677
L430.043 112.457
L436.305 107.882
L438.989 106.124
L441.672 104.241
L443.462 103.021
L446.145 101.135
L448.829 99.3786
L451.513 97.4936
L453.302 96.2752
L456.88 93.619
L458.67 92.3664
L465.826 87.1118
L467.616 85.8968
L472.089 82.662
L473.878 81.4474
L479.245 77.791
L481.929 75.9178
L483.718 74.6924
L488.191 71.4813
L489.98 70.252
L494.453 67.0196
L496.242 65.9344
L502.505 61.3547
L504.294 60.1432
L506.083 58.9237
L509.661 56.229
L509.661 56.229" style="fill:none;stroke:#008000;stroke-linecap:square;"/>
   </g>
   <g id="patch_3">
    <path d="
M63.2613 23.1417
L509.661 23.1417" style="fill:none;stroke:#000000;stroke-linecap:square;stroke-linejoin:miter;"/>
   </g>
   <g id="patch_4">
    <path d="
M509.661 368.742
L509.661 23.1418" style="fill:none;stroke:#000000;stroke-linecap:square;stroke-linejoin:miter;"/>
   </g>
   <g id="patch_5">
    <path d="
M63.2613 368.742
L509.661 368.742" style="fill:none;stroke:#000000;stroke-linecap:square;stroke-linejoin:miter;"/>
   </g>
   <g id="patch_6">
    <path d="
M63.2613 368.742
L63.2613 23.1418" style="fill:none;stroke:#000000;stroke-linecap:square;stroke-linejoin:miter;"/>
   </g>
   <g id="matplotlib.axis_1">
    <g id="xtick_1">
     <g id="line2d_17">
      <defs>
       <path d="
M0 0
L0 -4" id="m93b0483c22" style="stroke:#000000;stroke-width:0.5;"/>
      </defs>
      <g>
       <use style="stroke:#000000;stroke-width:0.5;" x="63.26125" xlink:href="#m93b0483c22" y="368.74175"/>
      </g>
     </g>
     <g id="line2d_18">
      <defs>
       <path d="
M0 0
L0 4" id="m741efc42ff" style="stroke:#000000;stroke-width:0.5;"/>
      </defs>
      <g>
       <use style="stroke:#000000;stroke-width:0.5;" x="63.26125" xlink:href="#m741efc42ff" y="23.14175"/>
      </g>
     </g>
     <g id="text_1">
      <!-- 0 -->
      <defs>
       <path d="
M31.7812 66.4062
Q24.1719 66.4062 20.3281 58.9062
Q16.5 51.4219 16.5 36.375
Q16.5 21.3906 20.3281 13.8906
Q24.1719 6.39062 31.7812 6.39062
Q39.4531 6.39062 43.2812 13.8906
Q47.125 21.3906 47.125 36.375
Q47.125 51.4219 43.2812 58.9062
Q39.4531 66.4062 31.7812 66.4062
M31.7812 74.2188
Q44.0469 74.2188 50.5156 64.5156
Q56.9844 54.8281 56.9844 36.375
Q56.9844 17.9688 50.5156 8.26562
Q44.0469 -1.42188 31.7812 -1.42188
Q19.5312 -1.42188 13.0625 8.26562
Q6.59375 17.9688 6.59375 36.375
Q6.59375 54.8281 13.0625 64.5156
Q19.5312 74.2188 31.7812 74.2188" id="DejaVuSans-30"/>
      </defs>
      <g transform="translate(60.2378125 381.859875)scale(0.12 -0.12)">
       <use xlink:href="#DejaVuSans-30"/>
      </g>
     </g>
    </g>
    <g id="xtick_2">
     <g id="line2d_19">
      <g>
       <use style="stroke:#000000;stroke-width:0.5;" x="152.720167836" xlink:href="#m93b0483c22" y="368.74175"/>
      </g>
     </g>
     <g id="line2d_20">
      <g>
       <use style="stroke:#000000;stroke-width:0.5;" x="152.720167836" xlink:href="#m741efc42ff" y="23.14175"/>
      </g>
     </g>
     <g id="text_2">
      <!-- 100 -->
      <defs>
       <path d="
M12.4062 8.29688
L28.5156 8.29688
L28.5156 63.9219
L10.9844 60.4062
L10.9844 69.3906
L28.4219 72.9062
L38.2812 72.9062
L38.2812 8.29688
L54.3906 8.29688
L54.3906 0
L12.4062 0
z
" id="DejaVuSans-31"/>
      </defs>
      <g transform="translate(142.325167836 381.859875)scale(0.12 -0.12)">
       <use xlink:href="#DejaVuSans-31"/>
       <use x="63.623046875" xlink:href="#DejaVuSans-30"/>
       <use x="127.24609375" xlink:href="#DejaVuSans-30"/>
      </g>
     </g>
    </g>
    <g id="xtick_3">
     <g id="line2d_21">
      <g>
       <use style="stroke:#000000;stroke-width:0.5;" x="242.179085671" xlink:href="#m93b0483c22" y="368.74175"/>
      </g>
     </g>
     <g id="line2d_22">
      <g>
       <use style="stroke:#000000;stroke-width:0.5;" x="242.179085671" xlink:href="#m741efc42ff" y="23.14175"/>
      </g>
     </g>
     <g id="text_3">
      <!-- 200 -->
      <defs>
       <path d="
M19.1875 8.29688
L53.6094 8.29688
L53.6094 0
L7.32812 0
L7.32812 8.29688
Q12.9375 14.1094 22.625 23.8906
Q32.3281 33.6875 34.8125 36.5312
Q39.5469 41.8438 41.4219 45.5312
Q43.3125 49.2188 43.3125 52.7812
Q43.3125 58.5938 39.2344 62.25
Q35.1562 65.9219 28.6094 65.9219
Q23.9688 65.9219 18.8125 64.3125
Q13.6719 62.7031 7.8125 59.4219
L7.8125 69.3906
Q13.7656 71.7812 18.9375 73
Q24.125 74.2188 28.4219 74.2188
Q39.75 74.2188 46.4844 68.5469
Q53.2188 62.8906 53.2188 53.4219
Q53.2188 48.9219 51.5312 44.8906
Q49.8594 40.875 45.4062 35.4062
Q44.1875 33.9844 37.6406 27.2188
Q31.1094 20.4531 19.1875 8.29688" id="DejaVuSans-32"/>
      </defs>
      <g transform="translate(231.564710671 381.859875)scale(0.12 -0.12)">
       <use xlink:href="#DejaVuSans-32"/>
       <use x="63.623046875" xlink:href="#DejaVuSans-30"/>
       <use x="127.24609375" xlink:href="#DejaVuSans-30"/>
      </g>
     </g>
    </g>
    <g id="xtick_4">
     <g id="line2d_23">
      <g>
       <use style="stroke:#000000;stroke-width:0.5;" x="331.638003507" xlink:href="#m93b0483c22" y="368.74175"/>
      </g>
     </g>
     <g id="line2d_24">
      <g>
       <use style="stroke:#000000;stroke-width:0.5;" x="331.638003507" xlink:href="#m741efc42ff" y="23.14175"/>
      </g>
     </g>
     <g id="text_4">
      <!-- 300 -->
      <defs>
       <path d="
M40.5781 39.3125
Q47.6562 37.7969 51.625 33
Q55.6094 28.2188 55.6094 21.1875
Q55.6094 10.4062 48.1875 4.48438
Q40.7656 -1.42188 27.0938 -1.42188
Q22.5156 -1.42188 17.6562 -0.515625
Q12.7969 0.390625 7.625 2.20312
L7.625 11.7188
Q11.7188 9.32812 16.5938 8.10938
Q21.4844 6.89062 26.8125 6.89062
Q36.0781 6.89062 40.9375 10.5469
Q45.7969 14.2031 45.7969 21.1875
Q45.7969 27.6406 41.2812 31.2656
Q36.7656 34.9062 28.7188 34.9062
L20.2188 34.9062
L20.2188 43.0156
L29.1094 43.0156
Q36.375 43.0156 40.2344 45.9219
Q44.0938 48.8281 44.0938 54.2969
Q44.0938 59.9062 40.1094 62.9062
Q36.1406 65.9219 28.7188 65.9219
Q24.6562 65.9219 20.0156 65.0312
Q15.375 64.1562 9.8125 62.3125
L9.8125 71.0938
Q15.4375 72.6562 20.3438 73.4375
Q25.25 74.2188 29.5938 74.2188
Q40.8281 74.2188 47.3594 69.1094
Q53.9062 64.0156 53.9062 55.3281
Q53.9062 49.2656 50.4375 45.0938
Q46.9688 40.9219 40.5781 39.3125" id="DejaVuSans-33"/>
      </defs>
      <g transform="translate(321.041441007 381.859875)scale(0.12 -0.12)">
       <use xlink:href="#DejaVuSans-33"/>
       <use x="63.623046875" xlink:href="#DejaVuSans-30"/>
       <use x="127.24609375" xlink:href="#DejaVuSans-30"/>
      </g>
     </g>
    </g>
    <g id="xtick_5">
     <g id="line2d_25">
      <g>
       <use style="stroke:#000000;stroke-width:0.5;" x="421.096921343" xlink:href="#m93b0483c22" y="368.74175"/>
      </g>
     </g>
     <g id="line2d_26">
      <g>
       <use style="stroke:#000000;stroke-width:0.5;" x="421.096921343" xlink:href="#m741efc42ff" y="23.14175"/>
      </g>
     </g>
     <g id="text_5">
      <!-- 400 -->
      <defs>
       <path d="
M37.7969 64.3125
L12.8906 25.3906
L37.7969 25.3906
z

M35.2031 72.9062
L47.6094 72.9062
L47.6094 25.3906
L58.0156 25.3906
L58.0156 17.1875
L47.6094 17.1875
L47.6094 0
L37.7969 0
L37.7969 17.1875
L4.89062 17.1875
L4.89062 26.7031
z
" id="DejaVuSans-34"/>
      </defs>
      <g transform="translate(410.336296343 381.859875)scale(0.12 -0.12)">
       <use xlink:href="#DejaVuSans-34"/>
       <use x="63.623046875" xlink:href="#DejaVuSans-30"/>
       <use x="127.24609375" xlink:href="#DejaVuSans-30"/>
      </g>
     </g>
    </g>
    <g id="text_6">
     <!-- time -->
     <defs>
      <path d="
M18.3125 70.2188
L18.3125 54.6875
L36.8125 54.6875
L36.8125 47.7031
L18.3125 47.7031
L18.3125 18.0156
Q18.3125 11.3281 20.1406 9.42188
Q21.9688 7.51562 27.5938 7.51562
L36.8125 7.51562
L36.8125 0
L27.5938 0
Q17.1875 0 13.2344 3.875
Q9.28125 7.76562 9.28125 18.0156
L9.28125 47.7031
L2.6875 47.7031
L2.6875 54.6875
L9.28125 54.6875
L9.28125 70.2188
z
" id="DejaVuSans-74"/>
      <path d="
M52 44.1875
Q55.375 50.25 60.0625 53.125
Q64.75 56 71.0938 56
Q79.6406 56 84.2812 50.0156
Q88.9219 44.0469 88.9219 33.0156
L88.9219 0
L79.8906 0
L79.8906 32.7188
Q79.8906 40.5781 77.0938 44.375
Q74.3125 48.1875 68.6094 48.1875
Q61.625 48.1875 57.5625 43.5469
Q53.5156 38.9219 53.5156 30.9062
L53.5156 0
L44.4844 0
L44.4844 32.7188
Q44.4844 40.625 41.7031 44.4062
Q38.9219 48.1875 33.1094 48.1875
Q26.2188 48.1875 22.1562 43.5312
Q18.1094 38.875 18.1094 30.9062
L18.1094 0
L9.07812 0
L9.07812 54.6875
L18.1094 54.6875
L18.1094 46.1875
Q21.1875 51.2188 25.4844 53.6094
Q29.7812 56 35.6875 56
Q41.6562 56 45.8281 52.9688
Q50 49.9531 52 44.1875" id="DejaVuSans-6d"/>
      <path d="
M56.2031 29.5938
L56.2031 25.2031
L14.8906 25.2031
Q15.4844 15.9219 20.4844 11.0625
Q25.4844 6.20312 34.4219 6.20312
Q39.5938 6.20312 44.4531 7.46875
Q49.3125 8.73438 54.1094 11.2812
L54.1094 2.78125
Q49.2656 0.734375 44.1875 -0.34375
Q39.1094 -1.42188 33.8906 -1.42188
Q20.7969 -1.42188 13.1562 6.1875
Q5.51562 13.8125 5.51562 26.8125
Q5.51562 40.2344 12.7656 48.1094
Q20.0156 56 32.3281 56
Q43.3594 56 49.7812 48.8906
Q56.2031 41.7969 56.2031 29.5938
M47.2188 32.2344
Q47.125 39.5938 43.0938 43.9844
Q39.0625 48.3906 32.4219 48.3906
Q24.9062 48.3906 20.3906 44.1406
Q15.875 39.8906 15.1875 32.1719
z
" id="DejaVuSans-65"/>
      <path d="
M9.42188 54.6875
L18.4062 54.6875
L18.4062 0
L9.42188 0
z

M9.42188 75.9844
L18.4062 75.9844
L18.4062 64.5938
L9.42188 64.5938
z
" id="DejaVuSans-69"/>
     </defs>
     <g transform="translate(273.386875 398.473625)scale(0.12 -0.12)">
      <use xlink:href="#DejaVuSans-74"/>
      <use x="39.208984375" xlink:href="#DejaVuSans-69"/>
      <use x="66.9921875" xlink:href="#DejaVuSans-6d"/>
      <use x="164.404296875" xlink:href="#DejaVuSans-65"/>
     </g>
    </g>
   </g>
   <g id="matplotlib.axis_2">
    <g id="ytick_1">
     <g id="line2d_27">
      <defs>
       <path d="
M0 0
L4 0" id="m728421d6d4" style="stroke:#000000;stroke-width:0.5;"/>
      </defs>
      <g>
       <use style="stroke:#000000;stroke-width:0.5;" x="63.26125" xlink:href="#m728421d6d4" y="368.74175"/>
      </g>
     </g>
     <g id="line2d_28">
      <defs>
       <path d="
M0 0
L-4 0" id="mcb0005524f" style="stroke:#000000;stroke-width:0.5;"/>
      </defs>
      <g>
       <use style="stroke:#000000;stroke-width:0.5;" x="509.66125" xlink:href="#mcb0005524f" y="368.74175"/>
      </g>
     </g>
     <g id="text_7">
      <!-- 0 -->
      <g transform="translate(53.214375 372.053)scale(0.12 -0.12)">
       <use xlink:href="#DejaVuSans-30"/>
      </g>
     </g>
    </g>
    <g id="ytick_2">
     <g id="line2d_29">
      <g>
       <use style="stroke:#000000;stroke-width:0.5;" x="63.26125" xlink:href="#m728421d6d4" y="319.370321429"/>
      </g>
     </g>
     <g id="line2d_30">
      <g>
       <use style="stroke:#000000;stroke-width:0.5;" x="509.66125" xlink:href="#mcb0005524f" y="319.370321429"/>
      </g>
     </g>
     <g id="text_8">
      <!-- 1000000 -->
      <g transform="translate(7.93125 322.681571429)scale(0.12 -0.12)">
       <use xlink:href="#DejaVuSans-31"/>
       <use x="63.623046875" xlink:href="#DejaVuSans-30"/>
       <use x="127.24609375" xlink:href="#DejaVuSans-30"/>
       <use x="190.869140625" xlink:href="#DejaVuSans-30"/>
       <use x="254.4921875" xlink:href="#DejaVuSans-30"/>
       <use x="318.115234375" xlink:href="#DejaVuSans-30"/>
       <use x="381.73828125" xlink:href="#DejaVuSans-30"/>
      </g>
     </g>
    </g>
    <g id="ytick_3">
     <g id="line2d_31">
      <g>
       <use style="stroke:#000000;stroke-width:0.5;" x="63.26125" xlink:href="#m728421d6d4" y="269.998892857"/>
      </g>
     </g>
     <g id="line2d_32">
      <g>
       <use style="stroke:#000000;stroke-width:0.5;" x="509.66125" xlink:href="#mcb0005524f" y="269.998892857"/>
      </g>
     </g>
     <g id="text_9">
      <!-- 2000000 -->
      <g transform="translate(7.4925 273.310142857)scale(0.12 -0.12)">
       <use xlink:href="#DejaVuSans-32"/>
       <use x="63.623046875" xlink:href="#DejaVuSans-30"/>
       <use x="127.24609375" xlink:href="#DejaVuSans-30"/>
       <use x="190.869140625" xlink:href="#DejaVuSans-30"/>
       <use x="254.4921875" xlink:href="#DejaVuSans-30"/>
       <use x="318.115234375" xlink:href="#DejaVuSans-30"/>
       <use x="381.73828125" xlink:href="#DejaVuSans-30"/>
      </g>
     </g>
    </g>
    <g id="ytick_4">
     <g id="line2d_33">
      <g>
       <use style="stroke:#000000;stroke-width:0.5;" x="63.26125" xlink:href="#m728421d6d4" y="220.627464286"/>
      </g>
     </g>
     <g id="line2d_34">
      <g>
       <use style="stroke:#000000;stroke-width:0.5;" x="509.66125" xlink:href="#mcb0005524f" y="220.627464286"/>
      </g>
     </g>
     <g id="text_10">
      <!-- 3000000 -->
      <g transform="translate(7.528125 223.938714286)scale(0.12 -0.12)">
       <use xlink:href="#DejaVuSans-33"/>
       <use x="63.623046875" xlink:href="#DejaVuSans-30"/>
       <use x="127.24609375" xlink:href="#DejaVuSans-30"/>
       <use x="190.869140625" xlink:href="#DejaVuSans-30"/>
       <use x="254.4921875" xlink:href="#DejaVuSans-30"/>
       <use x="318.115234375" xlink:href="#DejaVuSans-30"/>
       <use x="381.73828125" xlink:href="#DejaVuSans-30"/>
      </g>
     </g>
    </g>
    <g id="ytick_5">
     <g id="line2d_35">
      <g>
       <use style="stroke:#000000;stroke-width:0.5;" x="63.26125" xlink:href="#m728421d6d4" y="171.256035714"/>
      </g>
     </g>
     <g id="line2d_36">
      <g>
       <use style="stroke:#000000;stroke-width:0.5;" x="509.66125" xlink:href="#mcb0005524f" y="171.256035714"/>
      </g>
     </g>
     <g id="text_11">
      <!-- 4000000 -->
      <g transform="translate(7.2 174.567285714)scale(0.12 -0.12)">
       <use xlink:href="#DejaVuSans-34"/>
       <use x="63.623046875" xlink:href="#DejaVuSans-30"/>
       <use x="127.24609375" xlink:href="#DejaVuSans-30"/>
       <use x="190.869140625" xlink:href="#DejaVuSans-30"/>
       <use x="254.4921875" xlink:href="#DejaVuSans-30"/>
       <use x="318.115234375" xlink:href="#DejaVuSans-30"/>
       <use x="381.73828125" xlink:href="#DejaVuSans-30"/>
      </g>
     </g>
    </g>
    <g id="ytick_6">
     <g id="line2d_37">
      <g>
       <use style="stroke:#000000;stroke-width:0.5;" x="63.26125" xlink:href="#m728421d6d4" y="121.884607143"/>
      </g>
     </g>
     <g id="line2d_38">
      <g>
       <use style="stroke:#000000;stroke-width:0.5;" x="509.66125" xlink:href="#mcb0005524f" y="121.884607143"/>
      </g>
     </g>
     <g id="text_12">
      <!-- 5000000 -->
      <defs>
       <path d="
M10.7969 72.9062
L49.5156 72.9062
L49.5156 64.5938
L19.8281 64.5938
L19.8281 46.7344
Q21.9688 47.4688 24.1094 47.8281
Q26.2656 48.1875 28.4219 48.1875
Q40.625 48.1875 47.75 41.5
Q54.8906 34.8125 54.8906 23.3906
Q54.8906 11.625 47.5625 5.09375
Q40.2344 -1.42188 26.9062 -1.42188
Q22.3125 -1.42188 17.5469 -0.640625
Q12.7969 0.140625 7.71875 1.70312
L7.71875 11.625
Q12.1094 9.23438 16.7969 8.0625
Q21.4844 6.89062 26.7031 6.89062
Q35.1562 6.89062 40.0781 11.3281
Q45.0156 15.7656 45.0156 23.3906
Q45.0156 31 40.0781 35.4375
Q35.1562 39.8906 26.7031 39.8906
Q22.75 39.8906 18.8125 39.0156
Q14.8906 38.1406 10.7969 36.2812
z
" id="DejaVuSans-35"/>
      </defs>
      <g transform="translate(7.539375 125.195857143)scale(0.12 -0.12)">
       <use xlink:href="#DejaVuSans-35"/>
       <use x="63.623046875" xlink:href="#DejaVuSans-30"/>
       <use x="127.24609375" xlink:href="#DejaVuSans-30"/>
       <use x="190.869140625" xlink:href="#DejaVuSans-30"/>
       <use x="254.4921875" xlink:href="#DejaVuSans-30"/>
       <use x="318.115234375" xlink:href="#DejaVuSans-30"/>
       <use x="381.73828125" xlink:href="#DejaVuSans-30"/>
      </g>
     </g>
    </g>
    <g id="ytick_7">
     <g id="line2d_39">
      <g>
       <use style="stroke:#000000;stroke-width:0.5;" x="63.26125" xlink:href="#m728421d6d4" y="72.5131785714"/>
      </g>
     </g>
     <g id="line2d_40">
      <g>
       <use style="stroke:#000000;stroke-width:0.5;" x="509.66125" xlink:href="#mcb0005524f" y="72.5131785714"/>
      </g>
     </g>
     <g id="text_13">
      <!-- 6000000 -->
      <defs>
       <path d="
M33.0156 40.375
Q26.375 40.375 22.4844 35.8281
Q18.6094 31.2969 18.6094 23.3906
Q18.6094 15.5312 22.4844 10.9531
Q26.375 6.39062 33.0156 6.39062
Q39.6562 6.39062 43.5312 10.9531
Q47.4062 15.5312 47.4062 23.3906
Q47.4062 31.2969 43.5312 35.8281
Q39.6562 40.375 33.0156 40.375
M52.5938 71.2969
L52.5938 62.3125
Q48.875 64.0625 45.0938 64.9844
Q41.3125 65.9219 37.5938 65.9219
Q27.8281 65.9219 22.6719 59.3281
Q17.5312 52.7344 16.7969 39.4062
Q19.6719 43.6562 24.0156 45.9219
Q28.375 48.1875 33.5938 48.1875
Q44.5781 48.1875 50.9531 41.5156
Q57.3281 34.8594 57.3281 23.3906
Q57.3281 12.1562 50.6875 5.35938
Q44.0469 -1.42188 33.0156 -1.42188
Q20.3594 -1.42188 13.6719 8.26562
Q6.98438 17.9688 6.98438 36.375
Q6.98438 53.6562 15.1875 63.9375
Q23.3906 74.2188 37.2031 74.2188
Q40.9219 74.2188 44.7031 73.4844
Q48.4844 72.75 52.5938 71.2969" id="DejaVuSans-36"/>
      </defs>
      <g transform="translate(7.45125 75.8244285714)scale(0.12 -0.12)">
       <use xlink:href="#DejaVuSans-36"/>
       <use x="63.623046875" xlink:href="#DejaVuSans-30"/>
       <use x="127.24609375" xlink:href="#DejaVuSans-30"/>
       <use x="190.869140625" xlink:href="#DejaVuSans-30"/>
       <use x="254.4921875" xlink:href="#DejaVuSans-30"/>
       <use x="318.115234375" xlink:href="#DejaVuSans-30"/>
       <use x="381.73828125" xlink:href="#DejaVuSans-30"/>
      </g>
     </g>
    </g>
    <g id="ytick_8">
     <g id="line2d_41">
      <g>
       <use style="stroke:#000000;stroke-width:0.5;" x="63.26125" xlink:href="#m728421d6d4" y="23.14175"/>
      </g>
     </g>
     <g id="line2d_42">
      <g>
       <use style="stroke:#000000;stroke-width:0.5;" x="509.66125" xlink:href="#mcb0005524f" y="23.14175"/>
      </g>
     </g>
     <g id="text_14">
      <!-- 7000000 -->
      <defs>
       <path d="
M8.20312 72.9062
L55.0781 72.9062
L55.0781 68.7031
L28.6094 0
L18.3125 0
L43.2188 64.5938
L8.20312 64.5938
z
" id="DejaVuSans-37"/>
      </defs>
      <g transform="translate(7.5975 26.453)scale(0.12 -0.12)">
       <use xlink:href="#DejaVuSans-37"/>
       <use x="63.623046875" xlink:href="#DejaVuSans-30"/>
       <use x="127.24609375" xlink:href="#DejaVuSans-30"/>
       <use x="190.869140625" xlink:href="#DejaVuSans-30"/>
       <use x="254.4921875" xlink:href="#DejaVuSans-30"/>
       <use x="318.115234375" xlink:href="#DejaVuSans-30"/>
       <use x="381.73828125" xlink:href="#DejaVuSans-30"/>
      </g>
     </g>
    </g>
   </g>
   <g id="text_15">
    <!-- /agas/count/route -->
    <defs>
     <path d="
M25.3906 72.9062
L33.6875 72.9062
L8.29688 -9.28125
L0 -9.28125
z
" id="DejaVuSans-2f"/>
     <path d="
M30.6094 48.3906
Q23.3906 48.3906 19.1875 42.75
Q14.9844 37.1094 14.9844 27.2969
Q14.9844 17.4844 19.1562 11.8438
Q23.3438 6.20312 30.6094 6.20312
Q37.7969 6.20312 41.9844 11.8594
Q46.1875 17.5312 46.1875 27.2969
Q46.1875 37.0156 41.9844 42.7031
Q37.7969 48.3906 30.6094 48.3906
M30.6094 56
Q42.3281 56 49.0156 48.375
Q55.7188 40.7656 55.7188 27.2969
Q55.7188 13.875 49.0156 6.21875
Q42.3281 -1.42188 30.6094 -1.42188
Q18.8438 -1.42188 12.1719 6.21875
Q5.51562 13.875 5.51562 27.2969
Q5.51562 40.7656 12.1719 48.375
Q18.8438 56 30.6094 56" id="DejaVuSans-6f"/>
     <path d="
M54.8906 33.0156
L54.8906 0
L45.9062 0
L45.9062 32.7188
Q45.9062 40.4844 42.875 44.3281
Q39.8438 48.1875 33.7969 48.1875
Q26.5156 48.1875 22.3125 43.5469
Q18.1094 38.9219 18.1094 30.9062
L18.1094 0
L9.07812 0
L9.07812 54.6875
L18.1094 54.6875
L18.1094 46.1875
Q21.3438 51.125 25.7031 53.5625
Q30.0781 56 35.7969 56
Q45.2188 56 50.0469 50.1719
Q54.8906 44.3438 54.8906 33.0156" id="DejaVuSans-6e"/>
     <path d="
M8.5 21.5781
L8.5 54.6875
L17.4844 54.6875
L17.4844 21.9219
Q17.4844 14.1562 20.5 10.2656
Q23.5312 6.39062 29.5938 6.39062
Q36.8594 6.39062 41.0781 11.0312
Q45.3125 15.6719 45.3125 23.6875
L45.3125 54.6875
L54.2969 54.6875
L54.2969 0
L45.3125 0
L45.3125 8.40625
Q42.0469 3.42188 37.7188 1
Q33.4062 -1.42188 27.6875 -1.42188
Q18.2656 -1.42188 13.375 4.4375
Q8.5 10.2969 8.5 21.5781
M31.1094 56
z
" id="DejaVuSans-75"/>
     <path d="
M45.4062 27.9844
Q45.4062 37.75 41.375 43.1094
Q37.3594 48.4844 30.0781 48.4844
Q22.8594 48.4844 18.8281 43.1094
Q14.7969 37.75 14.7969 27.9844
Q14.7969 18.2656 18.8281 12.8906
Q22.8594 7.51562 30.0781 7.51562
Q37.3594 7.51562 41.375 12.8906
Q45.4062 18.2656 45.4062 27.9844
M54.3906 6.78125
Q54.3906 -7.17188 48.1875 -13.9844
Q42 -20.7969 29.2031 -20.7969
Q24.4688 -20.7969 20.2656 -20.0938
Q16.0625 -19.3906 12.1094 -17.9219
L12.1094 -9.1875
Q16.0625 -11.3281 19.9219 -12.3438
Q23.7812 -13.375 27.7812 -13.375
Q36.625 -13.375 41.0156 -8.76562
Q45.4062 -4.15625 45.4062 5.17188
L45.4062 9.625
Q42.625 4.78125 38.2812 2.39062
Q33.9375 0 27.875 0
Q17.8281 0 11.6719 7.65625
Q5.51562 15.3281 5.51562 27.9844
Q5.51562 40.6719 11.6719 48.3281
Q17.8281 56 27.875 56
Q33.9375 56 38.2812 53.6094
Q42.625 51.2188 45.4062 46.3906
L45.4062 54.6875
L54.3906 54.6875
z
" id="DejaVuSans-67"/>
     <path d="
M41.1094 46.2969
Q39.5938 47.1719 37.8125 47.5781
Q36.0312 48 33.8906 48
Q26.2656 48 22.1875 43.0469
Q18.1094 38.0938 18.1094 28.8125
L18.1094 0
L9.07812 0
L9.07812 54.6875
L18.1094 54.6875
L18.1094 46.1875
Q20.9531 51.1719 25.4844 53.5781
Q30.0312 56 36.5312 56
Q37.4531 56 38.5781 55.875
Q39.7031 55.7656 41.0625 55.5156
z
" id="DejaVuSans-72"/>
     <path d="
M48.7812 52.5938
L48.7812 44.1875
Q44.9688 46.2969 41.1406 47.3438
Q37.3125 48.3906 33.4062 48.3906
Q24.6562 48.3906 19.8125 42.8438
Q14.9844 37.3125 14.9844 27.2969
Q14.9844 17.2812 19.8125 11.7344
Q24.6562 6.20312 33.4062 6.20312
Q37.3125 6.20312 41.1406 7.25
Q44.9688 8.29688 48.7812 10.4062
L48.7812 2.09375
Q45.0156 0.34375 40.9844 -0.53125
Q36.9688 -1.42188 32.4219 -1.42188
Q20.0625 -1.42188 12.7812 6.34375
Q5.51562 14.1094 5.51562 27.2969
Q5.51562 40.6719 12.8594 48.3281
Q20.2188 56 33.0156 56
Q37.1562 56 41.1094 55.1406
Q45.0625 54.2969 48.7812 52.5938" id="DejaVuSans-63"/>
     <path d="
M44.2812 53.0781
L44.2812 44.5781
Q40.4844 46.5312 36.375 47.5
Q32.2812 48.4844 27.875 48.4844
Q21.1875 48.4844 17.8438 46.4375
Q14.5 44.3906 14.5 40.2812
Q14.5 37.1562 16.8906 35.375
Q19.2812 33.5938 26.5156 31.9844
L29.5938 31.2969
Q39.1562 29.25 43.1875 25.5156
Q47.2188 21.7812 47.2188 15.0938
Q47.2188 7.46875 41.1875 3.01562
Q35.1562 -1.42188 24.6094 -1.42188
Q20.2188 -1.42188 15.4531 -0.5625
Q10.6875 0.296875 5.42188 2
L5.42188 11.2812
Q10.4062 8.6875 15.2344 7.39062
Q20.0625 6.10938 24.8125 6.10938
Q31.1562 6.10938 34.5625 8.28125
Q37.9844 10.4531 37.9844 14.4062
Q37.9844 18.0625 35.5156 20.0156
Q33.0625 21.9688 24.7031 23.7812
L21.5781 24.5156
Q13.2344 26.2656 9.51562 29.9062
Q5.8125 33.5469 5.8125 39.8906
Q5.8125 47.6094 11.2812 51.7969
Q16.75 56 26.8125 56
Q31.7812 56 36.1719 55.2656
Q40.5781 54.5469 44.2812 53.0781" id="DejaVuSans-73"/>
     <path d="
M34.2812 27.4844
Q23.3906 27.4844 19.1875 25
Q14.9844 22.5156 14.9844 16.5
Q14.9844 11.7188 18.1406 8.90625
Q21.2969 6.10938 26.7031 6.10938
Q34.1875 6.10938 38.7031 11.4062
Q43.2188 16.7031 43.2188 25.4844
L43.2188 27.4844
z

M52.2031 31.2031
L52.2031 0
L43.2188 0
L43.2188 8.29688
Q40.1406 3.32812 35.5469 0.953125
Q30.9531 -1.42188 24.3125 -1.42188
Q15.9219 -1.42188 10.9531 3.29688
Q6 8.01562 6 15.9219
Q6 25.1406 12.1719 29.8281
Q18.3594 34.5156 30.6094 34.5156
L43.2188 34.5156
L43.2188 35.4062
Q43.2188 41.6094 39.1406 45
Q35.0625 48.3906 27.6875 48.3906
Q23 48.3906 18.5469 47.2656
Q14.1094 46.1406 10.0156 43.8906
L10.0156 52.2031
Q14.9375 54.1094 19.5781 55.0469
Q24.2188 56 28.6094 56
Q40.4844 56 46.3438 49.8438
Q52.2031 43.7031 52.2031 31.2031" id="DejaVuSans-61"/>
    </defs>
    <g transform="translate(223.09 18.14175)scale(0.144 -0.144)">
     <use xlink:href="#DejaVuSans-2f"/>
     <use x="33.69140625" xlink:href="#DejaVuSans-61"/>
     <use x="94.970703125" xlink:href="#DejaVuSans-67"/>
     <use x="158.447265625" xlink:href="#DejaVuSans-61"/>
     <use x="219.7265625" xlink:href="#DejaVuSans-73"/>
     <use x="271.826171875" xlink:href="#DejaVuSans-2f"/>
     <use x="305.517578125" xlink:href="#DejaVuSans-63"/>
     <use x="360.498046875" xlink:href="#DejaVuSans-6f"/>
     <use x="421.6796875" xlink:href="#DejaVuSans-75"/>
     <use x="485.05859375" xlink:href="#DejaVuSans-6e"/>
     <use x="548.4375" xlink:href="#DejaVuSans-74"/>
     <use x="587.646484375" xlink:href="#DejaVuSans-2f"/>
     <use x="621.337890625" xlink:href="#DejaVuSans-72"/>
     <use x="660.201171875" xlink:href="#DejaVuSans-6f"/>
     <use x="721.3828125" xlink:href="#DejaVuSans-75"/>
     <use x="784.76171875" xlink:href="#DejaVuSans-74"/>
     <use x="823.970703125" xlink:href="#DejaVuSans-65"/>
    </g>
   </g>
   <g id="legend_1">
    <g id="patch_7">
     <path d="
M516.861 367.194
L648.65 367.194
L648.65 24.6897
L516.861 24.6897
z
" style="fill:#ffffff;stroke:#000000;stroke-linejoin:miter;"/>
    </g>
    <g id="line2d_43">
     <path d="
M526.941 36.3515
L547.101 36.3515" style="fill:none;stroke:#0000ff;stroke-linecap:square;"/>
    </g>
    <g id="line2d_44"/>
    <g id="text_16">
     <!-- locality#0 -->
     <defs>
      <path d="
M51.125 44
L36.9219 44
L32.8125 27.6875
L47.125 27.6875
z

M43.7969 71.7812
L38.7188 51.5156
L52.9844 51.5156
L58.1094 71.7812
L65.9219 71.7812
L60.8906 51.5156
L76.125 51.5156
L76.125 44
L58.9844 44
L54.9844 27.6875
L70.5156 27.6875
L70.5156 20.2188
L53.0781 20.2188
L48 0
L40.1875 0
L45.2188 20.2188
L30.9062 20.2188
L25.875 0
L18.0156 0
L23.0938 20.2188
L7.71875 20.2188
L7.71875 27.6875
L24.9062 27.6875
L29 44
L13.2812 44
L13.2812 51.5156
L30.9062 51.5156
L35.8906 71.7812
z
" id="DejaVuSans-23"/>
      <path d="
M32.1719 -5.07812
Q28.375 -14.8438 24.75 -17.8125
Q21.1406 -20.7969 15.0938 -20.7969
L7.90625 -20.7969
L7.90625 -13.2812
L13.1875 -13.2812
Q16.8906 -13.2812 18.9375 -11.5156
Q21 -9.76562 23.4844 -3.21875
L25.0938 0.875
L2.98438 54.6875
L12.5 54.6875
L29.5938 11.9219
L46.6875 54.6875
L56.2031 54.6875
z
" id="DejaVuSans-79"/>
      <path d="
M9.42188 75.9844
L18.4062 75.9844
L18.4062 0
L9.42188 0
z
" id="DejaVuSans-6c"/>
     </defs>
     <g transform="translate(562.94125 41.3915)scale(0.144 -0.144)">
      <use xlink:href="#DejaVuSans-6c"/>
      <use x="27.783203125" xlink:href="#DejaVuSans-6f"/>
      <use x="88.96484375" xlink:href="#DejaVuSans-63"/>
      <use x="143.9453125" xlink:href="#DejaVuSans-61"/>
      <use x="205.224609375" xlink:href="#DejaVuSans-6c"/>
      <use x="233.0078125" xlink:href="#DejaVuSans-69"/>
      <use x="260.791015625" xlink:href="#DejaVuSans-74"/>
      <use x="300.0" xlink:href="#DejaVuSans-79"/>
      <use x="359.1796875" xlink:href="#DejaVuSans-23"/>
      <use x="442.96875" xlink:href="#DejaVuSans-30"/>
     </g>
    </g>
    <g id="line2d_45">
     <path d="
M526.941 57.488
L547.101 57.488" style="fill:none;stroke:#008000;stroke-linecap:square;"/>
    </g>
    <g id="line2d_46"/>
    <g id="text_17">
     <!-- locality#1 -->
     <g transform="translate(562.94125 62.528)scale(0.144 -0.144)">
      <use xlink:href="#DejaVuSans-6c"/>
      <use x="27.783203125" xlink:href="#DejaVuSans-6f"/>
      <use x="88.96484375" xlink:href="#DejaVuSans-63"/>
      <use x="143.9453125" xlink:href="#DejaVuSans-61"/>
      <use x="205.224609375" xlink:href="#DejaVuSans-6c"/>
      <use x="233.0078125" xlink:href="#DejaVuSans-69"/>
      <use x="260.791015625" xlink:href="#DejaVuSans-74"/>
      <use x="300.0" xlink:href="#DejaVuSans-79"/>
      <use x="359.1796875" xlink:href="#DejaVuSans-23"/>
      <use x="442.96875" xlink:href="#DejaVuSans-31"/>
     </g>
    </g>
    <g id="line2d_47">
     <path d="
M526.941 78.6245
L547.101 78.6245" style="fill:none;stroke:#ff0000;stroke-linecap:square;"/>
    </g>
    <g id="line2d_48"/>
    <g id="text_18">
     <!-- locality#10 -->
     <g transform="translate(562.94125 83.6645)scale(0.144 -0.144)">
      <use xlink:href="#DejaVuSans-6c"/>
      <use x="27.783203125" xlink:href="#DejaVuSans-6f"/>
      <use x="88.96484375" xlink:href="#DejaVuSans-63"/>
      <use x="143.9453125" xlink:href="#DejaVuSans-61"/>
      <use x="205.224609375" xlink:href="#DejaVuSans-6c"/>
      <use x="233.0078125" xlink:href="#DejaVuSans-69"/>
      <use x="260.791015625" xlink:href="#DejaVuSans-74"/>
      <use x="300.0" xlink:href="#DejaVuSans-79"/>
      <use x="359.1796875" xlink:href="#DejaVuSans-23"/>
      <use x="442.96875" xlink:href="#DejaVuSans-31"/>
      <use x="506.591796875" xlink:href="#DejaVuSans-30"/>
     </g>
    </g>
    <g id="line2d_49">
     <path d="
M526.941 99.761
L547.101 99.761" style="fill:none;stroke:#00bfbf;stroke-linecap:square;"/>
    </g>
    <g id="line2d_50"/>
    <g id="text_19">
     <!-- locality#11 -->
     <g transform="translate(562.94125 104.801)scale(0.144 -0.144)">
      <use xlink:href="#DejaVuSans-6c"/>
      <use x="27.783203125" xlink:href="#DejaVuSans-6f"/>
      <use x="88.96484375" xlink:href="#DejaVuSans-63"/>
      <use x="143.9453125" xlink:href="#DejaVuSans-61"/>
      <use x="205.224609375" xlink:href="#DejaVuSans-6c"/>
      <use x="233.0078125" xlink:href="#DejaVuSans-69"/>
      <use x="260.791015625" xlink:href="#DejaVuSans-74"/>
      <use x="300.0" xlink:href="#DejaVuSans-79"/>
      <use x="359.1796875" xlink:href="#DejaVuSans-23"/>
      <use x="442.96875" xlink:href="#DejaVuSans-31"/>
      <use x="506.591796875" xlink:href="#DejaVuSans-31"/>
     </g>
    </g>
    <g id="line2d_51">
     <path d="
M526.941 120.897
L547.101 120.897" style="fill:none;stroke:#bf00bf;stroke-linecap:square;"/>
    </g>
    <g id="line2d_52"/>
    <g id="text_20">
     <!-- locality#12 -->
     <g transform="translate(562.94125 125.9375)scale(0.144 -0.144)">
      <use xlink:href="#DejaVuSans-6c"/>
      <use x="27.783203125" xlink:href="#DejaVuSans-6f"/>
      <use x="88.96484375" xlink:href="#DejaVuSans-63"/>
      <use x="143.9453125" xlink:href="#DejaVuSans-61"/>
      <use x="205.224609375" xlink:href="#DejaVuSans-6c"/>
      <use x="233.0078125" xlink:href="#DejaVuSans-69"/>
      <use x="260.791015625" xlink:href="#DejaVuSans-74"/>
      <use x="300.0" xlink:href="#DejaVuSans-79"/>
      <use x="359.1796875" xlink:href="#DejaVuSans-23"/>
      <use x="442.96875" xlink:href="#DejaVuSans-31"/>
      <use x="506.591796875" xlink:href="#DejaVuSans-32"/>
     </g>
    </g>
    <g id="line2d_53">
     <path d="
M526.941 142.034
L547.101 142.034" style="fill:none;stroke:#bfbf00;stroke-linecap:square;"/>
    </g>
    <g id="line2d_54"/>
    <g id="text_21">
     <!-- locality#13 -->
     <g transform="translate(562.94125 147.074)scale(0.144 -0.144)">
      <use xlink:href="#DejaVuSans-6c"/>
      <use x="27.783203125" xlink:href="#DejaVuSans-6f"/>
      <use x="88.96484375" xlink:href="#DejaVuSans-63"/>
      <use x="143.9453125" xlink:href="#DejaVuSans-61"/>
      <use x="205.224609375" xlink:href="#DejaVuSans-6c"/>
      <use x="233.0078125" xlink:href="#DejaVuSans-69"/>
      <use x="260.791015625" xlink:href="#DejaVuSans-74"/>
      <use x="300.0" xlink:href="#DejaVuSans-79"/>
      <use x="359.1796875" xlink:href="#DejaVuSans-23"/>
      <use x="442.96875" xlink:href="#DejaVuSans-31"/>
      <use x="506.591796875" xlink:href="#DejaVuSans-33"/>
     </g>
    </g>
    <g id="line2d_55">
     <path d="
M526.941 163.17
L547.101 163.17" style="fill:none;stroke:#000000;stroke-linecap:square;"/>
    </g>
    <g id="line2d_56"/>
    <g id="text_22">
     <!-- locality#14 -->
     <g transform="translate(562.94125 168.2105)scale(0.144 -0.144)">
      <use xlink:href="#DejaVuSans-6c"/>
      <use x="27.783203125" xlink:href="#DejaVuSans-6f"/>
      <use x="88.96484375" xlink:href="#DejaVuSans-63"/>
      <use x="143.9453125" xlink:href="#DejaVuSans-61"/>
      <use x="205.224609375" xlink:href="#DejaVuSans-6c"/>
      <use x="233.0078125" xlink:href="#DejaVuSans-69"/>
      <use x="260.791015625" xlink:href="#DejaVuSans-74"/>
      <use x="300.0" xlink:href="#DejaVuSans-79"/>
      <use x="359.1796875" xlink:href="#DejaVuSans-23"/>
      <use x="442.96875" xlink:href="#DejaVuSans-31"/>
      <use x="506.591796875" xlink:href="#DejaVuSans-34"/>
     </g>
    </g>
    <g id="line2d_57">
     <path d="
M526.941 184.307
L547.101 184.307" style="fill:none;stroke:#0000ff;stroke-linecap:square;"/>
    </g>
    <g id="line2d_58"/>
    <g id="text_23">
     <!-- locality#15 -->
     <g transform="translate(562.94125 189.347)scale(0.144 -0.144)">
      <use xlink:href="#DejaVuSans-6c"/>
      <use x="27.783203125" xlink:href="#DejaVuSans-6f"/>
      <use x="88.96484375" xlink:href="#DejaVuSans-63"/>
      <use x="143.9453125" xlink:href="#DejaVuSans-61"/>
      <use x="205.224609375" xlink:href="#DejaVuSans-6c"/>
      <use x="233.0078125" xlink:href="#DejaVuSans-69"/>
      <use x="260.791015625" xlink:href="#DejaVuSans-74"/>
      <use x="300.0" xlink:href="#DejaVuSans-79"/>
      <use x="359.1796875" xlink:href="#DejaVuSans-23"/>
      <use x="442.96875" xlink:href="#DejaVuSans-31"/>
      <use x="506.591796875" xlink:href="#DejaVuSans-35"/>
     </g>
    </g>
    <g id="line2d_59">
     <path d="
M526.941 205.443
L547.101 205.443" style="fill:none;stroke:#008000;stroke-linecap:square;"/>
    </g>
    <g id="line2d_60"/>
    <g id="text_24">
     <!-- locality#2 -->
     <g transform="translate(562.94125 210.4835)scale(0.144 -0.144)">
      <use xlink:href="#DejaVuSans-6c"/>
      <use x="27.783203125" xlink:href="#DejaVuSans-6f"/>
      <use x="88.96484375" xlink:href="#DejaVuSans-63"/>
      <use x="143.9453125" xlink:href="#DejaVuSans-61"/>
      <use x="205.224609375" xlink:href="#DejaVuSans-6c"/>
      <use x="233.0078125" xlink:href="#DejaVuSans-69"/>
      <use x="260.791015625" xlink:href="#DejaVuSans-74"/>
      <use x="300.0" xlink:href="#DejaVuSans-79"/>
      <use x="359.1796875" xlink:href="#DejaVuSans-23"/>
      <use x="442.96875" xlink:href="#DejaVuSans-32"/>
     </g>
    </g>
    <g id="line2d_61">
     <path d="
M526.941 226.58
L547.101 226.58" style="fill:none;stroke:#ff0000;stroke-linecap:square;"/>
    </g>
    <g id="line2d_62"/>
    <g id="text_25">
     <!-- locality#3 -->
     <g transform="translate(562.94125 231.62)scale(0.144 -0.144)">
      <use xlink:href="#DejaVuSans-6c"/>
      <use x="27.783203125" xlink:href="#DejaVuSans-6f"/>
      <use x="88.96484375" xlink:href="#DejaVuSans-63"/>
      <use x="143.9453125" xlink:href="#DejaVuSans-61"/>
      <use x="205.224609375" xlink:href="#DejaVuSans-6c"/>
      <use x="233.0078125" xlink:href="#DejaVuSans-69"/>
      <use x="260.791015625" xlink:href="#DejaVuSans-74"/>
      <use x="300.0" xlink:href="#DejaVuSans-79"/>
      <use x="359.1796875" xlink:href="#DejaVuSans-23"/>
      <use x="442.96875" xlink:href="#DejaVuSans-33"/>
     </g>
    </g>
    <g id="line2d_63">
     <path d="
M526.941 247.716
L547.101 247.716" style="fill:none;stroke:#00bfbf;stroke-linecap:square;"/>
    </g>
    <g id="line2d_64"/>
    <g id="text_26">
     <!-- locality#4 -->
     <g transform="translate(562.94125 252.7565)scale(0.144 -0.144)">
      <use xlink:href="#DejaVuSans-6c"/>
      <use x="27.783203125" xlink:href="#DejaVuSans-6f"/>
      <use x="88.96484375" xlink:href="#DejaVuSans-63"/>
      <use x="143.9453125" xlink:href="#DejaVuSans-61"/>
      <use x="205.224609375" xlink:href="#DejaVuSans-6c"/>
      <use x="233.0078125" xlink:href="#DejaVuSans-69"/>
      <use x="260.791015625" xlink:href="#DejaVuSans-74"/>
      <use x="300.0" xlink:href="#DejaVuSans-79"/>
      <use x="359.1796875" xlink:href="#DejaVuSans-23"/>
      <use x="442.96875" xlink:href="#DejaVuSans-34"/>
     </g>
    </g>
    <g id="line2d_65">
     <path d="
M526.941 268.853
L547.101 268.853" style="fill:none;stroke:#bf00bf;stroke-linecap:square;"/>
    </g>
    <g id="line2d_66"/>
    <g id="text_27">
     <!-- locality#5 -->
     <g transform="translate(562.94125 273.893)scale(0.144 -0.144)">
      <use xlink:href="#DejaVuSans-6c"/>
      <use x="27.783203125" xlink:href="#DejaVuSans-6f"/>
      <use x="88.96484375" xlink:href="#DejaVuSans-63"/>
      <use x="143.9453125" xlink:href="#DejaVuSans-61"/>
      <use x="205.224609375" xlink:href="#DejaVuSans-6c"/>
      <use x="233.0078125" xlink:href="#DejaVuSans-69"/>
      <use x="260.791015625" xlink:href="#DejaVuSans-74"/>
      <use x="300.0" xlink:href="#DejaVuSans-79"/>
      <use x="359.1796875" xlink:href="#DejaVuSans-23"/>
      <use x="442.96875" xlink:href="#DejaVuSans-35"/>
     </g>
    </g>
    <g id="line2d_67">
     <path d="
M526.941 289.989
L547.101 289.989" style="fill:none;stroke:#bfbf00;stroke-linecap:square;"/>
    </g>
    <g id="line2d_68"/>
    <g id="text_28">
     <!-- locality#6 -->
     <g transform="translate(562.94125 295.0295)scale(0.144 -0.144)">
      <use xlink:href="#DejaVuSans-6c"/>
      <use x="27.783203125" xlink:href="#DejaVuSans-6f"/>
      <use x="88.96484375" xlink:href="#DejaVuSans-63"/>
      <use x="143.9453125" xlink:href="#DejaVuSans-61"/>
      <use x="205.224609375" xlink:href="#DejaVuSans-6c"/>
      <use x="233.0078125" xlink:href="#DejaVuSans-69"/>
      <use x="260.791015625" xlink:href="#DejaVuSans-74"/>
      <use x="300.0" xlink:href="#DejaVuSans-79"/>
      <use x="359.1796875" xlink:href="#DejaVuSans-23"/>
      <use x="442.96875" xlink:href="#DejaVuSans-36"/>
     </g>
    </g>
    <g id="line2d_69">
     <path d="
M526.941 311.126
L547.101 311.126" style="fill:none;stroke:#000000;stroke-linecap:square;"/>
    </g>
    <g id="line2d_70"/>
    <g id="text_29">
     <!-- locality#7 -->
     <g transform="translate(562.94125 316.166)scale(0.144 -0.144)">
      <use xlink:href="#DejaVuSans-6c"/>
      <use x="27.783203125" xlink:href="#DejaVuSans-6f"/>
      <use x="88.96484375" xlink:href="#DejaVuSans-63"/>
      <use x="143.9453125" xlink:href="#DejaVuSans-61"/>
      <use x="205.224609375" xlink:href="#DejaVuSans-6c"/>
      <use x="233.0078125" xlink:href="#DejaVuSans-69"/>
      <use x="260.791015625" xlink:href="#DejaVuSans-74"/>
      <use x="300.0" xlink:href="#DejaVuSans-79"/>
      <use x="359.1796875" xlink:href="#DejaVuSans-23"/>
      <use x="442.96875" xlink:href="#DejaVuSans-37"/>
     </g>
    </g>
    <g id="line2d_71">
     <path d="
M526.941 332.262
L547.101 332.262" style="fill:none;stroke:#0000ff;stroke-linecap:square;"/>
    </g>
    <g id="line2d_72"/>
    <g id="text_30">
     <!-- locality#8 -->
     <defs>
      <path d="
M31.7812 34.625
Q24.75 34.625 20.7188 30.8594
Q16.7031 27.0938 16.7031 20.5156
Q16.7031 13.9219 20.7188 10.1562
Q24.75 6.39062 31.7812 6.39062
Q38.8125 6.39062 42.8594 10.1719
Q46.9219 13.9688 46.9219 20.5156
Q46.9219 27.0938 42.8906 30.8594
Q38.875 34.625 31.7812 34.625
M21.9219 38.8125
Q15.5781 40.375 12.0312 44.7188
Q8.5 49.0781 8.5 55.3281
Q8.5 64.0625 14.7188 69.1406
Q20.9531 74.2188 31.7812 74.2188
Q42.6719 74.2188 48.875 69.1406
Q55.0781 64.0625 55.0781 55.3281
Q55.0781 49.0781 51.5312 44.7188
Q48 40.375 41.7031 38.8125
Q48.8281 37.1562 52.7969 32.3125
Q56.7812 27.4844 56.7812 20.5156
Q56.7812 9.90625 50.3125 4.23438
Q43.8438 -1.42188 31.7812 -1.42188
Q19.7344 -1.42188 13.25 4.23438
Q6.78125 9.90625 6.78125 20.5156
Q6.78125 27.4844 10.7812 32.3125
Q14.7969 37.1562 21.9219 38.8125
M18.3125 54.3906
Q18.3125 48.7344 21.8438 45.5625
Q25.3906 42.3906 31.7812 42.3906
Q38.1406 42.3906 41.7188 45.5625
Q45.3125 48.7344 45.3125 54.3906
Q45.3125 60.0625 41.7188 63.2344
Q38.1406 66.4062 31.7812 66.4062
Q25.3906 66.4062 21.8438 63.2344
Q18.3125 60.0625 18.3125 54.3906" id="DejaVuSans-38"/>
     </defs>
     <g transform="translate(562.94125 337.3025)scale(0.144 -0.144)">
      <use xlink:href="#DejaVuSans-6c"/>
      <use x="27.783203125" xlink:href="#DejaVuSans-6f"/>
      <use x="88.96484375" xlink:href="#DejaVuSans-63"/>
      <use x="143.9453125" xlink:href="#DejaVuSans-61"/>
      <use x="205.224609375" xlink:href="#DejaVuSans-6c"/>
      <use x="233.0078125" xlink:href="#DejaVuSans-69"/>
      <use x="260.791015625" xlink:href="#DejaVuSans-74"/>
      <use x="300.0" xlink:href="#DejaVuSans-79"/>
      <use x="359.1796875" xlink:href="#DejaVuSans-23"/>
      <use x="442.96875" xlink:href="#DejaVuSans-38"/>
     </g>
    </g>
    <g id="line2d_73">
     <path d="
M526.941 353.399
L547.101 353.399" style="fill:none;stroke:#008000;stroke-linecap:square;"/>
    </g>
    <g id="line2d_74"/>
    <g id="text_31">
     <!-- locality#9 -->
     <defs>
      <path d="
M10.9844 1.51562
L10.9844 10.5
Q14.7031 8.73438 18.5 7.8125
Q22.3125 6.89062 25.9844 6.89062
Q35.75 6.89062 40.8906 13.4531
Q46.0469 20.0156 46.7812 33.4062
Q43.9531 29.2031 39.5938 26.9531
Q35.25 24.7031 29.9844 24.7031
Q19.0469 24.7031 12.6719 31.3125
Q6.29688 37.9375 6.29688 49.4219
Q6.29688 60.6406 12.9375 67.4219
Q19.5781 74.2188 30.6094 74.2188
Q43.2656 74.2188 49.9219 64.5156
Q56.5938 54.8281 56.5938 36.375
Q56.5938 19.1406 48.4062 8.85938
Q40.2344 -1.42188 26.4219 -1.42188
Q22.7031 -1.42188 18.8906 -0.6875
Q15.0938 0.046875 10.9844 1.51562
M30.6094 32.4219
Q37.25 32.4219 41.125 36.9531
Q45.0156 41.5 45.0156 49.4219
Q45.0156 57.2812 41.125 61.8438
Q37.25 66.4062 30.6094 66.4062
Q23.9688 66.4062 20.0938 61.8438
Q16.2188 57.2812 16.2188 49.4219
Q16.2188 41.5 20.0938 36.9531
Q23.9688 32.4219 30.6094 32.4219" id="DejaVuSans-39"/>
     </defs>
     <g transform="translate(562.94125 358.439)scale(0.144 -0.144)">
      <use xlink:href="#DejaVuSans-6c"/>
      <use x="27.783203125" xlink:href="#DejaVuSans-6f"/>
      <use x="88.96484375" xlink:href="#DejaVuSans-63"/>
      <use x="143.9453125" xlink:href="#DejaVuSans-61"/>
      <use x="205.224609375" xlink:href="#DejaVuSans-6c"/>
      <use x="233.0078125" xlink:href="#DejaVuSans-69"/>
      <use x="260.791015625" xlink:href="#DejaVuSans-74"/>
      <use x="300.0" xlink:href="#DejaVuSans-79"/>
      <use x="359.1796875" xlink:href="#DejaVuSans-23"/>
      <use x="442.96875" xlink:href="#DejaVuSans-39"/>
     </g>
    </g>
   </g>
  </g>
 </g>
 <defs>
  <clipPath id="p3f6fae7697">
   <rect height="345.6" width="446.4" x="63.26125" y="23.14175"/>
  </clipPath>
 </defs>
</svg>
