<?xml version="1.0" encoding="utf-8" standalone="no"?>
<!DOCTYPE svg PUBLIC "-//W3C//DTD SVG 1.1//EN"
  "http://www.w3.org/Graphics/SVG/1.1/DTD/svg11.dtd">
<!-- Created with matplotlib (http://matplotlib.org/) -->
<svg height="408pt" version="1.1" viewBox="0 0 621 408" width="621pt" xmlns="http://www.w3.org/2000/svg" xmlns:xlink="http://www.w3.org/1999/xlink">
 <defs>
  <style type="text/css">
*{stroke-linecap:butt;stroke-linejoin:round;}
  </style>
 </defs>
 <g id="figure_1">
  <g id="patch_1">
   <path d="
M0 408.169
L621.285 408.169
L621.285 0
L0 0
z
" style="fill:#ffffff;"/>
  </g>
  <g id="axes_1">
   <g id="patch_2">
    <path d="
M28.6956 368.742
L475.096 368.742
L475.096 23.1417
L28.6956 23.1417
z
" style="fill:#ffffff;"/>
   </g>
   <g id="line2d_1">
    <path clip-path="url(#p2118423672)" d="
M28.6956 368.559
L29.5902 367.925
L34.9577 365.156
L38.5361 363.228
L40.3253 362.131
L41.2199 360.061
L43.9036 358.489
L44.7982 357.377
L51.9549 353.093
L52.8495 352.001
L53.7441 351.435
L54.6387 350.641
L59.1117 347.923
L60.0062 346.992
L61.7954 345.957
L63.5846 344.745
L64.4792 343.476
L68.0575 341.263
L68.9521 340.119
L74.3197 336.918
L75.2143 335.752
L77.0034 334.685
L77.898 333.355
L81.4764 331.127
L85.0547 328.774
L87.7385 327.031
L90.4223 325.421
L94.8952 322.496
L95.7898 321.99
L96.6844 320.763
L99.3682 319.05
L100.263 318.116
L104.736 315.192
L105.63 314.001
L106.525 313.405
L107.419 312.273
L109.209 311.133
L118.155 305.438
L119.049 304.823
L119.944 303.926
L123.522 301.6
L124.417 301.032
L125.311 299.839
L126.206 299.239
L127.1 298.387
L133.363 294.326
L134.257 293.505
L135.152 292.917
L136.046 291.848
L142.308 287.814
L143.203 286.782
L145.887 285.088
L146.781 284.528
L147.676 283.585
L148.571 282.852
L153.044 279.953
L163.779 273.088
L164.673 271.969
L170.041 268.332
L170.935 267.256
L173.619 265.495
L174.514 264.218
L176.303 263.048
L178.092 261.978
L187.038 256.218
L189.722 254.549
L196.878 249.964
L198.668 248.855
L212.981 239.682
L213.876 238.757
L214.77 238.152
L215.665 236.878
L223.716 231.698
L224.611 230.908
L227.294 229.172
L229.978 227.512
L236.24 223.388
L237.135 222.305
L238.924 221.08
L240.713 220.001
L245.186 217.114
L246.975 216.017
L263.973 205.061
L264.867 204.497
L265.762 202.804
L267.551 201.676
L271.129 199.271
L272.024 197.93
L275.602 195.776
L280.97 192.396
L281.864 191.401
L285.443 189.069
L286.337 188.557
L287.232 187.132
L289.916 185.311
L290.81 184.487
L293.494 182.748
L294.389 181.989
L297.072 180.234
L297.967 179.445
L298.862 177.99
L301.545 176.396
L303.335 175.278
L304.229 174.139
L312.28 168.881
L314.07 167.753
L314.964 166.722
L319.437 163.772
L320.332 163.27
L322.121 161.931
L323.91 160.765
L328.383 157.87
L329.278 156.75
L331.961 155.06
L332.856 154.098
L335.54 152.324
L336.434 151.4
L340.907 148.641
L345.38 145.622
L350.748 142.322
L355.221 139.465
L356.115 138.928
L357.01 137.469
L359.694 135.677
L362.377 133.957
L363.272 133.037
L365.061 131.934
L370.429 128.096
L373.112 126.469
L380.269 121.82
L381.164 121.107
L382.953 119.934
L383.848 119.151
L385.637 117.947
L386.531 116.923
L391.004 113.999
L393.688 112.3
L396.372 109.687
L397.266 109.067
L398.161 107.885
L400.845 106.199
L403.528 104.496
L406.212 102.833
L407.107 101.761
L416.947 95.409
L417.842 94.2121
L424.104 90.0914
L424.999 88.9555
L427.682 87.2575
L434.839 82.6541
L435.734 81.7014
L436.628 81.1069
L437.523 80.1139
L442.89 76.8111
L445.574 75.0831
L446.469 74.0406
L447.363 73.5129
L448.258 72.346
L454.52 68.3025
L455.415 67.1816
L457.204 66.0457
L458.098 64.8637
L466.15 59.6659
L467.044 58.6602
L467.939 57.105
L468.834 56.605
L469.728 55.5993
L470.623 55.0452
L471.517 53.9439
L472.412 52.08
L473.306 51.4729
L474.201 50.4902
L475.096 49.9384
L475.096 49.9384" style="fill:none;stroke:#0000ff;stroke-linecap:square;"/>
   </g>
   <g id="line2d_2">
    <path clip-path="url(#p2118423672)" d="
M28.6956 368.719
L32.274 367.304
L37.6415 365.216
L40.3253 364.173
L41.2199 363.169
L42.1145 361.644
L43.9036 360.958
L44.7982 359.998
L45.6928 359.66
L46.5874 358.748
L50.1658 357.368
L51.9549 355.421
L60.0062 352.232
L61.7954 351.55
L62.69 350.69
L67.163 348.94
L68.9521 348.182
L69.8467 347.137
L70.7413 346.314
L71.6359 344.589
L72.5305 344.03
L73.4251 343.123
L76.1089 342.121
L78.7926 340.932
L82.371 339.342
L84.1602 338.562
L85.0547 337.509
L87.7385 336.301
L90.4223 335.199
L91.3169 334.122
L92.2115 333.701
L93.106 332.697
L94.0006 332.29
L94.8952 331.759
L95.7898 330.206
L98.4736 328.961
L99.3682 328.024
L102.052 326.836
L102.947 325.862
L111.892 321.966
L112.787 321.546
L113.682 320.409
L115.471 319.653
L116.365 319.219
L117.26 318.116
L119.944 316.919
L121.733 316.124
L122.627 315.108
L123.522 314.696
L124.417 313.593
L133.363 309.508
L141.414 306.036
L142.308 304.921
L144.992 303.629
L147.676 302.514
L148.571 300.646
L149.465 299.884
L151.254 299.132
L152.149 298.666
L153.044 297.668
L154.833 296.842
L156.622 296.048
L157.516 295.071
L158.411 294.596
L160.2 293.847
L161.095 293.426
L161.989 292.361
L162.884 292.02
L163.779 290.064
L166.462 288.819
L167.357 287.719
L168.252 287.31
L169.146 286.436
L170.935 285.583
L173.619 284.4
L174.514 283.286
L184.354 278.938
L185.249 277.945
L188.827 276.397
L189.722 275.342
L191.511 274.467
L192.405 273.436
L195.089 272.244
L195.984 271.273
L197.773 270.496
L198.668 269.514
L210.297 264.18
L211.192 263.834
L212.086 262.638
L216.559 260.554
L217.454 259.664
L218.349 259.194
L219.243 257.991
L221.927 256.719
L222.821 255.701
L225.505 254.347
L228.189 253.198
L234.451 250.398
L235.346 249.388
L236.24 248.964
L237.135 248.001
L238.029 247.592
L238.924 246.368
L239.819 246.018
L242.502 244.685
L244.292 243.933
L245.186 243.436
L246.975 242.693
L247.87 242.249
L248.765 241.203
L250.554 240.437
L251.448 239.366
L254.132 238.221
L259.5 235.693
L262.183 234.617
L265.762 232.994
L267.551 230.897
L269.34 230.01
L270.235 229.109
L278.286 225.47
L280.075 224.743
L280.97 223.585
L281.864 223.217
L282.759 221.925
L287.232 219.976
L288.126 218.801
L291.705 217.122
L293.494 216.321
L294.389 215.309
L296.178 214.405
L297.072 213.338
L299.756 212.14
L301.545 211.389
L304.229 210.193
L305.124 209.106
L307.807 207.985
L308.702 207.397
L314.07 204.993
L316.753 203.785
L319.437 202.379
L320.332 202.057
L323.015 200.832
L326.594 199.122
L327.488 198.139
L331.067 196.497
L332.856 194.46
L338.223 192.012
L341.802 190.461
L343.591 189.609
L348.064 187.571
L350.748 186.461
L353.431 185.29
L354.326 184.945
L355.221 183.905
L360.588 181.58
L362.377 179.373
L363.272 178.424
L365.061 177.7
L367.745 176.44
L368.64 175.312
L369.534 174.488
L375.796 171.696
L376.691 170.801
L377.585 170.29
L378.48 169.934
L379.375 168.864
L380.269 168.535
L381.164 166.823
L382.058 166.461
L382.953 165.502
L388.32 163.028
L389.215 161.192
L399.95 156.395
L400.845 155.39
L405.318 153.484
L407.107 152.712
L411.58 150.761
L412.474 150.424
L413.369 149.287
L416.053 148.201
L416.947 147.329
L418.737 146.562
L420.526 145.599
L421.42 144.56
L423.209 143.786
L425.893 142.604
L426.788 140.832
L433.05 137.994
L433.945 135.381
L435.734 134.631
L436.628 134.205
L437.523 133.272
L440.207 131.992
L441.101 130.968
L442.89 130.184
L443.785 129.027
L446.469 127.83
L449.153 126.619
L450.047 126.177
L450.942 125.058
L454.52 123.529
L457.204 122.258
L458.993 121.451
L460.782 120.648
L462.571 119.883
L464.361 119.02
L465.255 117.897
L468.834 116.383
L475.096 113.513
L475.096 113.513" style="fill:none;stroke:#008000;stroke-linecap:square;"/>
   </g>
   <g id="line2d_3">
    <path clip-path="url(#p2118423672)" d="
M28.6956 368.718
L29.5902 367.72
L30.4848 367.305
L31.3794 366.591
L34.9577 364.934
L35.8523 364.049
L40.3253 361.983
L45.6928 359.392
L46.5874 358.257
L65.3738 348.768
L68.0575 347.298
L74.3197 344.134
L75.2143 342.557
L77.0034 341.567
L81.4764 339.015
L82.371 337.914
L84.1602 336.884
L85.9493 335.707
L86.8439 335.277
L87.7385 334.686
L89.5277 333.728
L90.4223 332.378
L94.8952 329.808
L95.7898 328.772
L107.419 321.786
L108.314 321.371
L110.103 319.23
L111.892 318.258
L114.576 316.762
L116.365 315.7
L117.26 314.686
L118.155 314.266
L119.049 313.652
L119.944 312.381
L120.838 311.621
L122.627 310.65
L123.522 309.591
L124.417 309.088
L125.311 307.966
L133.363 303.216
L134.257 302.097
L136.046 301.095
L136.941 300.113
L137.836 299.582
L138.73 298.378
L140.519 297.391
L144.098 295.246
L145.887 294.283
L146.781 293.109
L151.254 290.524
L153.044 289.377
L153.938 288.034
L165.568 281.2
L167.357 280.21
L168.252 279.622
L169.146 279.191
L170.041 278.059
L170.935 276.723
L171.83 275.713
L173.619 274.769
L174.514 273.155
L175.408 272.137
L178.092 270.688
L181.67 268.526
L182.565 263.291
L183.46 262.554
L184.354 262.117
L186.143 260.992
L191.511 257.822
L192.405 256.844
L195.089 255.361
L197.773 253.991
L201.351 251.806
L202.246 251.063
L204.93 249.621
L205.824 248.313
L206.719 247.796
L207.613 246.887
L210.297 245.354
L212.086 243.05
L217.454 240.037
L218.349 239.068
L220.138 238.066
L221.032 237.067
L223.716 235.505
L224.611 234.281
L225.505 233.726
L226.4 232.718
L228.189 231.732
L229.084 230.602
L229.978 230.17
L230.873 229.061
L232.662 228.002
L233.557 226.966
L234.451 226.416
L235.346 225.347
L238.029 223.79
L239.819 221.427
L243.397 219.411
L244.292 218.02
L248.765 215.378
L254.132 212.323
L255.027 211.494
L255.921 210.441
L256.816 209.737
L257.71 208.825
L259.5 207.738
L261.289 206.852
L262.183 205.863
L265.762 203.77
L266.656 203.349
L270.235 201.084
L271.129 199.948
L273.813 198.452
L276.497 197.037
L281.864 193.808
L282.759 192.139
L284.548 191.09
L288.126 189.021
L289.021 187.845
L290.81 186.714
L292.599 185.696
L293.494 185.048
L295.283 183.971
L296.178 183.356
L297.967 182.346
L299.756 181.369
L301.545 180.402
L302.44 178.524
L304.229 177.53
L306.018 176.531
L307.807 175.57
L308.702 173.874
L312.28 171.577
L313.175 170.572
L314.964 169.617
L315.859 168.552
L318.543 166.874
L319.437 165.309
L321.226 164.347
L326.594 161.285
L327.488 160.863
L329.278 159.794
L331.961 158.343
L334.645 155.19
L339.118 152.648
L340.013 151.478
L341.802 150.484
L342.696 149.851
L344.486 148.851
L345.38 147.735
L348.064 146.249
L349.853 145.4
L350.748 144.631
L351.642 144.09
L352.537 143.153
L355.221 141.582
L356.115 140.186
L360.588 137.67
L361.483 136.315
L364.167 134.682
L365.061 134.165
L365.956 133.044
L366.85 132.602
L370.429 130.4
L371.323 129.475
L376.691 126.26
L377.585 125.626
L378.48 124.557
L382.058 122.544
L382.953 121.774
L385.637 120.19
L386.531 119.689
L387.426 118.773
L389.215 116.527
L391.004 115.485
L391.899 112.477
L393.688 111.508
L394.583 111.022
L395.477 110.166
L399.056 108.187
L400.845 107.097
L402.634 106.173
L403.528 105.375
L406.212 103.994
L408.896 102.477
L411.58 99.4111
L412.474 98.6104
L413.369 98.0045
L416.053 96.652
L420.526 94.007
L421.42 92.9725
L424.999 90.8943
L425.893 90.4531
L427.682 89.3564
L428.577 88.4129
L434.839 84.9028
L435.734 84.1977
L436.628 83.6575
L438.417 81.2348
L441.996 79.2845
L442.89 78.0829
L443.785 77.5588
L444.68 76.742
L448.258 74.8216
L450.942 73.1812
L452.731 72.1824
L456.309 70.1318
L458.098 69.178
L458.993 67.9707
L460.782 66.9938
L461.677 66.5641
L464.361 64.9501
L467.939 62.8881
L469.728 61.9561
L470.623 61.5195
L471.517 60.5771
L473.306 59.424
L475.096 58.3572
L475.096 58.3572" style="fill:none;stroke:#ff0000;stroke-linecap:square;"/>
   </g>
   <g id="line2d_4">
    <path clip-path="url(#p2118423672)" d="
M28.6956 368.722
L29.5902 368.27
L30.4848 367.691
L33.1686 366.319
L41.2199 361.939
L42.1145 361
L43.0091 360.502
L43.9036 359.392
L56.4279 352.46
L57.3225 351.79
L58.2171 350.641
L61.7954 348.768
L62.69 347.623
L63.5846 347.137
L64.4792 346.06
L66.2684 345.128
L67.163 343.99
L68.9521 342.957
L69.8467 341.802
L75.2143 338.885
L76.1089 337.9
L77.0034 337.329
L77.898 336.077
L78.7926 335.587
L79.6872 334.924
L81.4764 333.888
L82.371 332.529
L83.2656 332.07
L87.7385 329.224
L89.5277 328.179
L91.3169 327.138
L94.0006 325.513
L94.8952 324.467
L95.7898 323.997
L96.6844 322.871
L102.947 318.754
L104.736 317.694
L105.63 316.674
L107.419 315.506
L109.209 314.463
L111.892 312.874
L112.787 311.762
L113.682 311.158
L114.576 310.211
L115.471 309.645
L116.365 308.001
L120.838 305.202
L122.627 304.157
L123.522 303.052
L129.784 299.125
L130.679 297.985
L132.468 296.788
L133.363 295.137
L134.257 294.154
L135.152 293.593
L136.046 292.815
L139.625 290.648
L140.519 289.378
L141.414 288.919
L142.308 288.053
L144.098 286.977
L145.887 285.928
L146.781 284.122
L147.676 283.04
L149.465 280.546
L150.36 280.044
L153.044 278.18
L153.938 277.625
L154.833 276.44
L156.622 275.312
L157.516 274.12
L165.568 268.956
L166.462 268.455
L168.252 267.127
L169.146 266.65
L170.041 265.998
L170.935 265.159
L174.514 260.853
L180.776 257.059
L182.565 255.874
L183.46 255.304
L184.354 254.351
L186.143 253.164
L190.616 250.415
L191.511 249.816
L192.405 248.525
L195.089 246.941
L195.984 246.473
L196.878 244.916
L198.668 243.861
L201.351 242.086
L202.246 240.899
L203.141 240.395
L204.035 239.594
L204.93 239.124
L205.824 238.447
L206.719 237.391
L209.403 235.637
L210.297 234.688
L213.876 232.552
L221.032 227.867
L221.927 226.701
L222.821 226.205
L226.4 223.741
L227.294 222.484
L229.978 220.955
L230.873 220.363
L232.662 217.757
L234.451 216.574
L236.24 215.45
L237.135 214.573
L239.819 212.906
L240.713 211.732
L242.502 210.584
L243.397 210.089
L244.292 209.04
L247.87 206.83
L248.765 206.312
L249.659 205.387
L252.343 203.672
L253.238 202.847
L255.027 201.801
L256.816 200.503
L258.605 199.418
L260.394 198.369
L262.183 197.337
L263.973 196.17
L264.867 195.689
L265.762 194.789
L266.656 194.325
L272.024 190.8
L272.918 190.334
L273.813 189.512
L274.708 189.026
L276.497 187.364
L278.286 186.16
L279.181 185.024
L281.864 183.358
L282.759 182.55
L284.548 181.407
L287.232 179.777
L288.126 178.041
L289.021 177.376
L289.916 176.196
L292.599 174.515
L295.283 172.879
L296.178 172.223
L297.967 171.139
L302.44 168.392
L303.335 167.896
L305.124 166.621
L306.913 165.625
L310.491 163.355
L312.28 162.12
L313.175 161.223
L314.07 159.959
L315.859 158.874
L316.753 158.274
L317.648 157.452
L320.332 155.708
L321.226 154.634
L323.015 153.578
L323.91 152.428
L328.383 149.546
L329.278 148.377
L330.172 147.903
L331.067 146.785
L331.961 146.295
L333.751 145.081
L334.645 144.609
L336.434 143.419
L337.329 141.799
L338.223 140.873
L339.118 140.393
L340.013 139.033
L340.907 138.549
L343.591 134.966
L345.38 133.758
L346.275 132.842
L348.064 131.725
L348.959 130.663
L350.748 129.63
L353.431 127.952
L354.326 127.041
L355.221 126.427
L357.01 125.352
L357.904 124.105
L360.588 122.526
L362.377 120.22
L365.061 118.564
L369.534 115.606
L370.429 114.582
L372.218 113.535
L373.112 113.016
L374.007 112.29
L374.902 111.224
L377.585 109.364
L378.48 108.862
L379.375 107.217
L380.269 106.753
L381.164 106.082
L382.953 104.964
L383.848 103.051
L384.742 102.563
L385.637 101.886
L387.426 100.797
L391.004 98.516
L391.899 97.5275
L394.583 95.8802
L395.477 94.9436
L399.056 92.7352
L399.95 92.0855
L402.634 90.4785
L405.318 88.7965
L407.107 87.7528
L410.685 85.4419
L412.474 84.351
L413.369 83.2531
L414.264 82.7693
L415.158 81.4802
L417.842 79.9757
L422.315 77.0415
L423.209 76.1729
L426.788 73.718
L427.682 72.7135
L428.577 70.982
L440.207 63.7405
L441.996 62.698
L442.89 62.107
L443.785 60.1106
L444.68 59.5599
L445.574 58.3653
L447.363 57.3009
L448.258 56.4507
L449.153 55.2687
L450.942 54.1329
L451.836 53.0304
L456.309 50.1458
L457.204 49.2415
L461.677 46.4513
L462.571 44.804
L464.361 43.5909
L465.255 42.4424
L467.044 41.3883
L469.728 39.6971
L470.623 39.2433
L473.306 37.4577
L474.201 35.9474
L475.096 35.4486
L475.096 35.4486" style="fill:none;stroke:#00bfbf;stroke-linecap:square;"/>
   </g>
   <g id="line2d_5">
    <path clip-path="url(#p2118423672)" d="
M28.6956 368.717
L34.0632 366.171
L38.5361 364.171
L39.4307 363.772
L40.3253 363.062
L51.0604 358.472
L63.5846 353.183
L65.3738 352.381
L66.2684 351.783
L71.6359 349.255
L76.1089 347.306
L79.6872 345.481
L85.0547 342.786
L87.7385 341.445
L91.3169 339.758
L94.8952 337.925
L96.6844 337.069
L101.157 334.772
L102.052 332.635
L104.736 331.274
L105.63 330.896
L106.525 330.031
L110.103 328.238
L110.998 327.842
L113.682 326.388
L115.471 325.491
L116.365 324.528
L121.733 321.805
L124.417 320.475
L128.89 318.126
L135.152 314.883
L136.941 314.007
L137.836 312.961
L140.519 311.621
L141.414 311.242
L143.203 310.298
L146.781 308.483
L148.571 307.611
L149.465 306.621
L151.254 305.74
L152.149 304.618
L155.727 302.719
L159.306 300.985
L160.2 300.102
L168.252 295.956
L169.146 295.562
L170.935 294.576
L176.303 291.877
L179.881 290.113
L182.565 288.735
L186.143 286.819
L188.827 285.446
L190.616 284.343
L192.405 283.388
L193.3 282.557
L195.984 281.331
L197.773 280.468
L200.457 279.035
L202.246 277.906
L204.93 276.639
L206.719 275.59
L210.297 273.739
L212.086 272.848
L212.981 272.08
L213.876 271.621
L214.77 270.949
L218.349 269.034
L219.243 268.126
L222.821 266.277
L223.716 265.269
L227.294 263.267
L230.873 261.489
L233.557 260.04
L241.608 255.931
L242.502 254.996
L244.292 254.077
L245.186 253.451
L246.081 253.082
L246.975 252.428
L249.659 251.034
L251.448 248.883
L255.027 247.131
L256.816 246.139
L258.605 245.277
L259.5 244.517
L261.289 243.773
L262.183 242.836
L265.762 241.032
L267.551 240.169
L269.34 239.143
L272.918 237.355
L273.813 236.388
L276.497 235.139
L296.178 224.875
L297.072 223.935
L299.756 222.596
L301.545 221.747
L304.229 220.444
L305.124 219.991
L306.018 219.271
L307.807 218.438
L309.597 217.357
L311.386 216.484
L314.07 215.116
L314.964 214.739
L316.753 213.741
L317.648 213.055
L320.332 211.786
L321.226 210.815
L323.015 209.941
L323.91 209.467
L325.699 208.243
L329.278 206.448
L331.961 205.174
L336.434 202.891
L339.118 201.63
L347.169 197.495
L348.064 196.724
L349.853 195.973
L350.748 195.051
L353.431 193.703
L356.115 192.485
L357.01 191.447
L367.745 185.998
L368.64 184.98
L369.534 184.354
L373.112 182.625
L374.007 181.603
L375.796 180.621
L376.691 179.831
L378.48 178.818
L383.848 176.013
L384.742 175.634
L385.637 175.053
L387.426 174.176
L389.215 172.075
L398.161 167.506
L399.056 167.12
L400.845 166.151
L406.212 163.346
L412.474 160.238
L413.369 159.251
L416.053 158.021
L417.842 157.15
L418.737 156.187
L420.526 155.163
L423.209 153.864
L424.104 153.174
L431.261 149.359
L432.155 148.073
L434.839 146.8
L437.523 145.351
L440.207 144.031
L441.996 143.176
L442.89 142.461
L444.68 141.466
L448.258 139.702
L450.942 138.339
L452.731 137.451
L453.625 136.911
L455.415 136.034
L456.309 135.176
L458.993 133.822
L460.782 132.935
L462.571 132.089
L464.361 130.984
L465.255 129.894
L467.044 129.034
L467.939 127.771
L470.623 126.541
L475.096 124.087
L475.096 124.087" style="fill:none;stroke:#bf00bf;stroke-linecap:square;"/>
   </g>
   <g id="line2d_6">
    <path clip-path="url(#p2118423672)" d="
M28.6956 368.719
L29.5902 367.534
L32.274 366.278
L35.8523 364.512
L36.7469 363.69
L40.3253 361.982
L41.2199 360.916
L58.2171 353.173
L59.1117 352.471
L64.4792 350.058
L67.163 348.875
L68.0575 347.653
L68.9521 346.751
L71.6359 345.447
L72.5305 344.627
L76.1089 343.034
L77.0034 341.996
L82.371 339.057
L83.2656 338.044
L84.1602 337.339
L87.7385 335.433
L90.4223 334.115
L100.263 328.94
L101.157 327.022
L104.736 325.091
L106.525 323.172
L113.682 319.284
L115.471 318.388
L118.155 316.987
L119.049 315.875
L121.733 314.495
L124.417 313.065
L126.206 310.848
L128.89 309.379
L133.363 306.915
L138.73 304.018
L140.519 302.141
L141.414 301.751
L143.203 300.759
L146.781 298.881
L148.571 297.973
L151.254 296.576
L152.149 294.748
L153.938 293.791
L155.727 291.716
L159.306 289.848
L161.095 288.835
L161.989 287.826
L163.779 286.907
L164.673 286.436
L165.568 285.693
L166.462 285.271
L168.252 284.223
L169.146 283.317
L170.041 282.75
L170.935 281.687
L174.514 279.698
L177.197 278.34
L179.881 276.916
L180.776 274.932
L181.67 274.331
L182.565 273.881
L183.46 272.778
L184.354 272.378
L186.143 271.324
L187.038 270.867
L187.932 269.727
L188.827 269.291
L191.511 267.697
L193.3 266.665
L194.195 265.988
L196.878 264.532
L197.773 264.143
L202.246 261.655
L204.93 260.328
L205.824 259.101
L210.297 256.667
L217.454 252.851
L218.349 251.576
L220.138 250.618
L221.032 249.525
L223.716 248.066
L224.611 246.783
L225.505 246.213
L228.189 244.887
L229.978 243.992
L230.873 242.568
L236.24 239.58
L238.029 238.615
L238.924 237.732
L239.819 237.319
L240.713 236.284
L245.186 233.878
L246.081 233.482
L247.87 231.436
L249.659 230.417
L252.343 228.96
L253.238 228.06
L255.027 227.14
L255.921 226.63
L256.816 225.712
L257.71 225.328
L260.394 223.864
L261.289 222.844
L264.867 220.953
L265.762 219.831
L267.551 218.936
L268.446 218.338
L270.235 217.4
L271.129 216.413
L272.024 214.689
L274.708 213.4
L277.391 212.006
L280.97 210.13
L281.864 209.232
L284.548 207.662
L285.443 207.189
L287.232 205.108
L297.072 199.698
L297.967 198.559
L299.756 197.669
L300.651 197.272
L301.545 196.201
L305.124 194.267
L306.018 193.134
L307.807 192.248
L309.597 191.178
L311.386 190.221
L312.28 189.704
L314.964 188.425
L315.859 187.373
L324.805 182.547
L330.172 179.839
L333.751 177.934
L334.645 177.511
L336.434 175.352
L337.329 174.929
L338.223 174.033
L339.118 173.629
L340.013 173.091
L340.907 172.685
L341.802 171.637
L343.591 170.614
L348.064 168.187
L348.959 167.796
L349.853 166.873
L352.537 165.464
L353.431 163.906
L354.326 163.507
L355.221 162.52
L357.01 161.632
L357.904 161.172
L358.799 160.333
L365.061 157.026
L365.956 156.077
L367.745 155.198
L370.429 153.67
L371.323 153.273
L374.007 151.729
L374.902 151.261
L375.796 150.323
L376.691 149.862
L378.48 148.782
L383.848 145.865
L384.742 145.471
L385.637 144.299
L388.32 142.906
L389.215 142.388
L390.11 141.434
L391.004 140.252
L393.688 138.881
L409.791 130.489
L410.685 129.507
L415.158 127.087
L416.947 124.944
L417.842 124.559
L418.737 124.034
L419.631 122.918
L424.999 119.975
L425.893 119.561
L427.682 118.541
L431.261 116.549
L432.155 115.634
L434.839 114.316
L438.417 112.349
L440.207 111.428
L441.101 110.566
L444.68 108.579
L445.574 108.152
L446.469 107.074
L448.258 106.194
L450.942 104.688
L452.731 103.77
L456.309 101.875
L458.993 100.473
L459.888 99.8868
L462.571 98.5597
L466.15 96.6025
L467.044 95.6383
L468.834 94.7443
L469.728 93.8077
L470.623 93.408
L471.517 92.1558
L474.201 90.5706
L475.096 89.5949
L475.096 89.5949" style="fill:none;stroke:#bfbf00;stroke-linecap:square;"/>
   </g>
   <g id="line2d_7">
    <path clip-path="url(#p2118423672)" d="
M28.6956 368.714
L29.5902 367.758
L37.6415 364.568
L39.4307 363.878
L40.3253 362.944
L48.3766 359.801
L49.2712 358.93
L50.1658 357.808
L51.0604 357.454
L52.8495 355.632
L56.4279 354.234
L57.3225 353.434
L61.7954 351.656
L62.69 350.637
L68.9521 348.041
L69.8467 347.225
L74.3197 345.313
L76.1089 344.592
L77.0034 344.111
L77.898 343.029
L79.6872 342.211
L82.371 340.928
L83.2656 339.879
L87.7385 337.729
L90.4223 336.534
L98.4736 332.647
L101.157 331.289
L102.052 330.285
L102.947 329.845
L103.841 328.849
L104.736 328.354
L105.63 327.322
L108.314 326.071
L109.209 325.392
L123.522 318.518
L124.417 317.523
L127.995 315.725
L128.89 315.144
L146.781 306.57
L149.465 305.306
L151.254 304.469
L153.044 303.529
L156.622 301.776
L164.673 297.928
L165.568 295.971
L167.357 295.149
L171.83 292.932
L172.724 291.772
L174.514 290.946
L191.511 282.767
L192.405 282.27
L193.3 281.216
L195.984 280.045
L197.773 279.206
L201.351 277.401
L202.246 276.469
L203.141 276.104
L204.035 275.035
L204.93 274.677
L206.719 273.673
L207.613 272.744
L208.508 272.194
L213.876 269.706
L215.665 267.825
L221.927 264.737
L223.716 263.833
L225.505 262.881
L228.189 261.709
L233.557 259.082
L238.924 256.484
L240.713 255.643
L241.608 254.468
L242.502 254.045
L243.397 252.931
L244.292 252.454
L245.186 251.512
L246.975 250.7
L249.659 249.381
L250.554 248.459
L256.816 245.425
L257.71 244.595
L260.394 243.34
L262.183 242.526
L265.762 240.783
L267.551 239.963
L269.34 237.79
L272.918 236.074
L275.602 234.875
L276.497 234.025
L280.075 232.301
L281.864 231.489
L283.654 230.59
L286.337 229.268
L288.126 228.414
L290.81 226.956
L294.389 225.288
L298.862 223.028
L301.545 221.838
L303.335 221.013
L304.229 220.096
L309.597 217.461
L310.491 216.506
L311.386 216.05
L312.28 214.952
L314.964 213.768
L318.543 211.955
L319.437 210.896
L320.332 210.534
L321.226 209.348
L323.015 208.534
L323.91 207.562
L331.961 203.844
L332.856 203.009
L336.434 201.3
L339.118 200.077
L342.696 198.331
L344.486 196.289
L347.169 195.003
L348.959 194.195
L350.748 193.377
L351.642 192.274
L352.537 191.478
L355.221 190.194
L357.01 189.357
L362.377 186.782
L363.272 185.68
L365.061 184.855
L365.956 183.87
L367.745 183.053
L369.534 182.087
L373.112 180.379
L374.007 179.324
L374.902 178.938
L375.796 177.907
L376.691 177.49
L377.585 176.944
L380.269 175.754
L382.058 174.834
L391.004 170.453
L391.899 169.462
L392.793 169.105
L393.688 168.153
L399.056 165.584
L400.845 164.688
L403.528 163.452
L406.212 162.302
L409.791 160.558
L410.685 160.201
L411.58 159.229
L414.264 158.049
L416.947 156.766
L418.737 155.955
L420.526 154.977
L423.209 153.745
L432.155 149.251
L433.945 147.514
L435.734 146.702
L436.628 145.59
L440.207 143.878
L442.89 142.693
L443.785 141.633
L448.258 139.512
L449.153 138.383
L453.625 136.198
L455.415 134.335
L459.888 132.144
L460.782 131.778
L461.677 130.478
L464.361 129.082
L465.255 128.115
L467.044 127.269
L469.728 125.988
L471.517 125.178
L473.306 124.237
L474.201 123.123
L475.096 122.297
L475.096 122.297" style="fill:none;stroke:#000000;stroke-linecap:square;"/>
   </g>
   <g id="line2d_8">
    <path clip-path="url(#p2118423672)" d="
M28.6956 368.703
L29.5902 367.982
L42.1145 363.514
L49.2712 360.987
L50.1658 360.222
L59.1117 357.056
L60.0062 356.031
L69.8467 352.488
L71.6359 351.793
L72.5305 350.556
L73.4251 350.234
L74.3197 349.364
L77.0034 348.345
L78.7926 347.639
L79.6872 346.615
L83.2656 345.192
L84.1602 344.45
L85.9493 343.639
L87.7385 342.927
L88.6331 341.963
L92.2115 340.492
L94.0006 339.792
L101.157 336.774
L102.052 335.715
L107.419 333.535
L109.209 332.836
L113.682 330.93
L114.576 330.043
L116.365 329.271
L117.26 328.353
L118.155 328.045
L119.049 327.459
L121.733 326.381
L122.627 325.576
L127.1 323.706
L127.995 322.842
L129.784 322.103
L130.679 321.392
L137.836 318.334
L142.308 316.479
L143.203 315.464
L146.781 313.981
L148.571 313.243
L153.044 311.301
L155.727 310.175
L157.516 309.401
L165.568 306.062
L166.462 305.082
L172.724 302.373
L173.619 301.428
L177.197 300.009
L180.776 298.556
L182.565 297.769
L184.354 297.1
L185.249 296.057
L195.089 292.001
L195.984 291.201
L200.457 289.336
L201.351 288.422
L208.508 285.439
L209.403 284.346
L212.981 282.914
L213.876 282.176
L216.559 281.002
L218.349 280.246
L219.243 279.291
L228.189 275.532
L231.767 274.04
L232.662 273.191
L238.924 270.487
L241.608 269.408
L243.397 268.677
L244.292 267.809
L249.659 265.562
L250.554 264.661
L253.238 263.558
L255.027 262.864
L259.5 261.012
L260.394 260.102
L262.183 259.409
L269.34 256.405
L270.235 255.752
L271.129 254.753
L273.813 253.659
L275.602 252.996
L276.497 252.249
L280.075 250.787
L281.864 250.073
L282.759 249.347
L286.337 247.868
L287.232 247.301
L291.705 245.389
L292.599 244.426
L295.283 243.342
L296.178 242.908
L297.072 242.174
L299.756 241.071
L301.545 240.369
L303.335 239.665
L304.229 238.599
L306.913 237.536
L307.807 236.673
L309.597 235.849
L314.07 234.034
L315.859 232.331
L319.437 230.757
L321.226 230.065
L324.805 228.606
L330.172 226.479
L331.961 225.746
L335.54 224.273
L336.434 223.256
L337.329 222.929
L338.223 221.915
L340.907 220.881
L350.748 216.746
L351.642 215.833
L354.326 214.799
L357.01 213.718
L357.904 213.362
L358.799 212.62
L361.483 211.524
L362.377 210.805
L363.272 209.842
L365.061 209.14
L365.956 208.755
L366.85 208.016
L379.375 202.729
L380.269 202.417
L382.058 201.638
L384.742 200.524
L385.637 199.865
L388.32 198.772
L389.215 197.787
L398.161 194.149
L399.056 193.512
L400.845 192.751
L403.528 191.669
L405.318 190.966
L406.212 189.984
L413.369 187.058
L416.053 185.994
L417.842 185.298
L418.737 184.318
L419.631 183.903
L420.526 183.181
L421.42 182.827
L422.315 182.165
L424.104 181.463
L429.472 179.164
L430.366 178.126
L431.261 177.738
L432.155 176.975
L434.839 175.919
L438.417 174.345
L439.312 173.42
L441.996 172.296
L443.785 171.565
L447.363 169.946
L452.731 167.646
L453.625 166.802
L455.415 166.084
L459.888 164.177
L461.677 163.536
L462.571 162.651
L466.15 161.149
L469.728 159.646
L470.623 158.563
L475.096 156.592
L475.096 156.592" style="fill:none;stroke:#0000ff;stroke-linecap:square;"/>
   </g>
   <g id="line2d_9">
    <path clip-path="url(#p2118423672)" d="
M28.6956 368.722
L29.5902 368.122
L34.0632 366.451
L34.9577 365.429
L37.6415 364.356
L39.4307 363.641
L52.8495 358.933
L60.9008 356.159
L61.7954 355.217
L66.2684 353.624
L71.6359 351.564
L76.1089 350.014
L84.1602 346.534
L86.8439 345.422
L87.7385 344.656
L90.4223 343.649
L94.8952 341.83
L95.7898 340.806
L96.6844 340.444
L97.579 339.488
L100.263 338.394
L101.157 337.384
L118.155 330.483
L119.049 330.029
L120.838 329.329
L127.1 326.799
L127.995 325.755
L130.679 324.709
L135.152 322.814
L143.203 319.532
L144.098 318.705
L144.992 316.983
L146.781 316.283
L147.676 315.382
L148.571 314.993
L149.465 314.293
L150.36 313.271
L151.254 312.886
L152.149 312.044
L156.622 310.222
L159.306 309.186
L160.2 308.162
L163.779 306.709
L166.462 305.497
L172.724 302.711
L174.514 302.014
L178.092 300.619
L178.987 299.014
L180.776 298.318
L182.565 297.506
L183.46 296.446
L184.354 296.139
L186.143 295.341
L189.722 293.92
L193.3 292.27
L195.089 290.249
L195.984 289.926
L197.773 287.929
L198.668 287.543
L199.562 286.895
L204.035 284.929
L204.93 284.625
L206.719 283.757
L214.77 280.506
L216.559 279.772
L217.454 278.854
L221.927 276.794
L223.716 276.055
L225.505 275.254
L227.294 274.56
L228.189 273.621
L229.978 272.922
L230.873 272.549
L231.767 271.632
L237.135 269.341
L238.029 268.285
L246.081 264.907
L249.659 263.414
L250.554 262.53
L253.238 261.472
L255.027 260.747
L260.394 258.534
L261.289 257.362
L263.973 256.232
L264.867 255.41
L270.235 253.203
L271.129 251.95
L275.602 250.204
L281.864 247.61
L283.654 246.814
L286.337 245.677
L287.232 245.357
L288.126 244.637
L289.021 244.234
L289.916 243.175
L293.494 241.735
L295.283 241.002
L297.072 240.235
L297.967 239.253
L298.862 237.712
L299.756 237.316
L300.651 236.506
L306.018 234.324
L306.913 233.253
L308.702 232.484
L312.28 230.94
L313.175 229.945
L320.332 226.982
L321.226 225.935
L323.91 224.857
L324.805 224.105
L327.488 223.073
L331.067 221.577
L331.961 220.689
L335.54 219.203
L336.434 218.243
L339.118 217.246
L346.275 214.274
L349.853 212.94
L350.748 212.352
L351.642 211.344
L354.326 210.369
L357.01 209.293
L363.272 206.752
L364.167 205.874
L368.64 203.973
L369.534 203.025
L373.112 201.596
L374.007 201.032
L375.796 200.287
L384.742 196.638
L386.531 195.84
L395.477 192.07
L397.266 191.356
L398.161 190.827
L399.056 190.52
L399.95 190.073
L400.845 189.091
L402.634 188.388
L405.318 187.329
L407.107 186.645
L408.001 186.278
L408.896 185.728
L413.369 183.91
L414.264 182.945
L419.631 180.593
L420.526 179.624
L424.104 178.168
L428.577 176.296
L429.472 175.453
L433.05 174.007
L433.945 172.975
L435.734 172.277
L440.207 170.42
L443.785 169.031
L447.363 167.659
L459.888 162.659
L462.571 161.669
L465.255 160.527
L467.044 159.845
L469.728 158.756
L471.517 158.066
L475.096 156.525
L475.096 156.525" style="fill:none;stroke:#008000;stroke-linecap:square;"/>
   </g>
   <g id="line2d_10">
    <path clip-path="url(#p2118423672)" d="
M28.6956 368.718
L34.9577 366.435
L41.2199 364.319
L43.0091 363.718
L43.9036 363.194
L49.2712 361.412
L50.1658 360.562
L63.5846 355.961
L66.2684 354.986
L67.163 354.113
L68.9521 353.406
L76.1089 350.822
L82.371 348.2
L84.1602 347.486
L85.9493 346.681
L86.8439 345.702
L88.6331 345.005
L89.5277 344.116
L90.4223 343.043
L105.63 336.548
L106.525 335.572
L108.314 334.839
L110.998 333.736
L111.892 332.783
L113.682 331.938
L115.471 331.237
L116.365 330.338
L127.1 325.748
L127.995 324.555
L128.89 323.753
L136.046 320.469
L139.625 319.029
L140.519 318.63
L141.414 317.221
L143.203 316.424
L145.887 315.286
L146.781 314.296
L148.571 313.595
L157.516 309.793
L158.411 308.644
L161.095 307.4
L163.779 306.247
L164.673 305.251
L167.357 304.044
L168.252 302.905
L170.041 302.154
L170.935 301.805
L171.83 300.729
L178.987 297.71
L182.565 296.213
L188.827 293.484
L194.195 290.938
L195.089 289.821
L196.878 288.988
L198.668 288.28
L210.297 283.203
L213.876 281.774
L214.77 280.758
L215.665 280.389
L216.559 279.272
L219.243 278.132
L220.138 277.705
L221.032 276.754
L221.927 276.092
L222.821 275.713
L224.611 274.774
L225.505 274.377
L226.4 273.327
L229.978 271.913
L230.873 270.824
L232.662 270.022
L233.557 268.971
L237.135 267.451
L238.924 265.57
L241.608 264.466
L242.502 264.09
L243.397 263.088
L248.765 260.74
L252.343 259.244
L253.238 258.831
L254.132 257.836
L256.816 256.643
L257.71 255.668
L260.394 254.588
L262.183 253.9
L263.973 253.095
L265.762 252.369
L267.551 251.586
L269.34 250.738
L272.024 249.558
L272.918 248.783
L275.602 247.475
L281.864 244.852
L284.548 243.569
L288.126 241.991
L289.916 241.078
L291.705 240.32
L296.178 238.378
L297.072 237.392
L299.756 236.291
L301.545 235.581
L305.124 234.079
L307.807 233.015
L309.597 232.161
L311.386 231.426
L313.175 230.666
L316.753 229.124
L317.648 228.237
L321.226 226.757
L322.121 225.9
L323.91 225.169
L328.383 223.294
L329.278 222.37
L331.067 221.631
L334.645 220.198
L336.434 219.371
L337.329 218.455
L340.013 217.352
L341.802 216.61
L343.591 215.791
L344.486 214.71
L347.169 213.601
L348.064 212.43
L350.748 211.412
L353.431 210.289
L356.115 209.252
L358.799 208.144
L359.694 207.153
L361.483 206.457
L364.167 205.355
L365.061 204.967
L365.956 203.93
L367.745 203.219
L368.64 202.798
L369.534 201.87
L373.112 200.424
L374.007 199.485
L374.902 198.751
L377.585 197.473
L378.48 197.141
L379.375 196.013
L380.269 195.695
L382.953 194.476
L383.848 193.789
L384.742 193.483
L385.637 192.985
L387.426 192.245
L388.32 191.297
L392.793 189.332
L394.583 187.187
L396.372 186.347
L398.161 185.518
L399.056 184.512
L401.739 183.22
L402.634 182.909
L403.528 181.657
L406.212 180.607
L407.107 179.461
L418.737 174.599
L421.42 173.416
L422.315 173.02
L423.209 172.102
L424.104 170.716
L429.472 168.468
L430.366 167.498
L441.996 162.601
L443.785 161.871
L447.363 160.474
L448.258 159.383
L454.52 156.829
L455.415 155.866
L458.993 154.38
L459.888 153.423
L461.677 152.797
L462.571 151.687
L463.466 150.756
L470.623 147.713
L475.096 145.759
L475.096 145.759" style="fill:none;stroke:#ff0000;stroke-linecap:square;"/>
   </g>
   <g id="line2d_11">
    <path clip-path="url(#p2118423672)" d="
M28.6956 368.705
L29.5902 368.264
L34.0632 366.714
L34.9577 365.897
L42.1145 363.517
L51.0604 360.562
L51.9549 360.256
L52.8495 359.358
L58.2171 357.483
L59.1117 356.629
L60.9008 356.023
L61.7954 355.133
L63.5846 354.516
L64.4792 353.649
L81.4764 347.168
L85.9493 345.291
L88.6331 344.28
L92.2115 342.8
L94.8952 341.753
L95.7898 340.886
L104.736 337.196
L105.63 336.895
L107.419 336.069
L109.209 335.393
L110.103 334.901
L111.892 334.192
L118.155 331.534
L119.049 330.515
L121.733 329.501
L126.206 327.694
L127.1 327.344
L127.995 326.461
L131.573 325.032
L135.152 323.441
L136.046 322.555
L138.73 321.488
L141.414 320.427
L143.203 319.59
L149.465 317.095
L151.254 316.399
L153.044 315.601
L157.516 313.814
L161.989 312.002
L163.779 311.317
L164.673 310.185
L165.568 309.479
L169.146 308.08
L170.935 307.34
L171.83 306.392
L172.724 304.683
L174.514 303.985
L189.722 297.741
L193.3 296.177
L194.195 295.881
L195.089 295.029
L207.613 289.907
L210.297 288.783
L212.981 287.696
L219.243 285.075
L223.716 283.21
L224.611 282.409
L227.294 281.292
L229.978 280.261
L236.24 277.619
L237.135 276.774
L242.502 274.481
L244.292 273.776
L248.765 271.91
L255.027 269.387
L256.816 268.611
L257.71 267.765
L260.394 266.687
L262.183 266.011
L263.078 265.636
L263.973 264.632
L266.656 263.637
L273.813 260.651
L274.708 259.663
L276.497 258.941
L277.391 257.875
L278.286 257.02
L280.075 256.34
L283.654 254.843
L284.548 253.692
L285.443 252.825
L292.599 249.815
L293.494 248.855
L297.967 246.986
L298.862 246.614
L299.756 245.482
L301.545 244.791
L302.44 244.365
L303.335 244.062
L305.124 243.269
L306.018 242.612
L307.807 241.908
L309.597 241.111
L310.491 240.099
L314.07 238.554
L315.859 237.873
L317.648 235.701
L321.226 234.328
L323.91 233.235
L340.013 226.785
L340.907 225.88
L347.169 223.363
L348.959 222.634
L349.853 221.717
L351.642 220.961
L352.537 220.059
L357.01 218.347
L357.904 217.273
L361.483 215.912
L363.272 215.117
L365.061 214.444
L365.956 213.481
L367.745 212.823
L368.64 212.434
L369.534 211.459
L376.691 208.64
L377.585 208.192
L378.48 207.879
L379.375 207.446
L380.269 207.141
L382.058 206.373
L385.637 204.823
L387.426 204.131
L388.32 203.162
L391.004 202.098
L391.899 201.068
L392.793 200.755
L393.688 199.706
L413.369 191.861
L415.158 189.969
L416.947 189.281
L417.842 188.417
L422.315 186.537
L423.209 185.965
L440.207 178.867
L442.89 177.901
L446.469 176.46
L447.363 175.526
L448.258 174.207
L453.625 171.984
L454.52 171.679
L455.415 171.245
L456.309 170.306
L458.993 169.213
L460.782 168.544
L462.571 167.861
L469.728 164.943
L471.517 164.272
L472.412 163.238
L473.306 162.838
L474.201 162.277
L475.096 161.961
L475.096 161.961" style="fill:none;stroke:#00bfbf;stroke-linecap:square;"/>
   </g>
   <g id="line2d_12">
    <path clip-path="url(#p2118423672)" d="
M28.6956 368.717
L29.5902 368.009
L30.4848 367.673
L31.3794 366.437
L33.1686 365.069
L34.9577 364.413
L35.8523 363.913
L43.9036 360.918
L44.7982 359.872
L50.1658 357.954
L51.0604 357.162
L65.3738 351.901
L70.7413 349.764
L72.5305 349.031
L76.1089 347.698
L77.0034 346.586
L78.7926 345.841
L79.6872 344.011
L87.7385 340.306
L90.4223 339.221
L91.3169 338.342
L92.2115 337.944
L93.106 336.964
L94.8952 336.173
L95.7898 335.154
L97.579 334.332
L98.4736 333.326
L103.841 330.981
L106.525 329.748
L107.419 328.775
L108.314 328.456
L110.103 327.581
L110.998 327.246
L111.892 326.241
L112.787 325.787
L113.682 324.754
L115.471 324.005
L121.733 321.258
L123.522 320.483
L124.417 319.501
L126.206 318.646
L128.89 317.487
L140.519 312.331
L141.414 311.687
L143.203 310.859
L147.676 308.918
L148.571 308.085
L151.254 306.778
L154.833 304.978
L158.411 303.399
L159.306 302.509
L161.989 301.247
L163.779 300.498
L165.568 299.622
L170.935 297.266
L179.881 293.332
L180.776 292.953
L181.67 291.947
L185.249 290.397
L186.143 289.997
L187.038 288.891
L187.932 288.154
L188.827 287.791
L189.722 286.852
L196.878 283.535
L197.773 283.212
L198.668 282.384
L203.141 280.375
L204.035 279.462
L204.93 279.128
L206.719 278.226
L207.613 277.442
L210.297 276.276
L212.981 275.138
L213.876 274.363
L219.243 272.013
L220.138 270.922
L221.927 270.045
L223.716 269.254
L226.4 268.055
L227.294 267.651
L228.189 266.596
L236.24 262.97
L240.713 261.056
L253.238 255.468
L255.027 254.739
L259.5 252.733
L262.183 251.686
L265.762 250.115
L267.551 249.383
L272.024 247.278
L272.918 246.389
L278.286 244.018
L280.075 243.297
L280.97 242.906
L281.864 242.085
L284.548 240.858
L292.599 237.188
L293.494 235.75
L297.967 233.784
L299.756 233.032
L300.651 232.67
L301.545 231.582
L306.913 229.259
L307.807 228.58
L308.702 227.407
L314.07 225.003
L314.964 224.085
L318.543 222.324
L319.437 221.332
L321.226 220.607
L322.121 219.657
L323.015 219.325
L323.91 218.249
L331.961 214.833
L332.856 213.832
L336.434 212.241
L340.907 210.434
L341.802 209.578
L343.591 208.754
L351.642 205.205
L354.326 204.142
L355.221 203.266
L357.01 202.529
L359.694 201.312
L360.588 199.929
L365.956 197.535
L367.745 196.79
L370.429 195.563
L371.323 194.734
L376.691 192.283
L377.585 191.207
L380.269 190.118
L381.164 189.607
L382.953 188.787
L385.637 187.562
L388.32 186.417
L408.001 177.738
L409.791 176.732
L411.58 176.005
L433.05 166.527
L433.945 164.953
L435.734 164.209
L437.523 163.322
L438.417 162.839
L441.101 161.78
L443.785 160.583
L444.68 159.54
L448.258 158.054
L449.153 157.206
L451.836 156.07
L453.625 155.252
L454.52 154.45
L457.204 153.191
L458.993 152.378
L459.888 151.324
L461.677 150.68
L462.571 149.756
L466.15 148.195
L467.044 147.3
L468.834 146.56
L469.728 146.16
L470.623 145.365
L475.096 143.264
L475.096 143.264" style="fill:none;stroke:#bf00bf;stroke-linecap:square;"/>
   </g>
   <g id="line2d_13">
    <path clip-path="url(#p2118423672)" d="
M28.6956 368.717
L29.5902 367.658
L33.1686 366.18
L38.5361 364.031
L41.2199 362.97
L42.1145 362.248
L46.5874 360.459
L48.3766 358.822
L64.4792 352.732
L65.3738 350.898
L68.0575 349.822
L81.4764 344.286
L87.7385 341.516
L89.5277 340.76
L90.4223 339.805
L91.3169 339.016
L92.2115 338.596
L93.106 337.848
L94.8952 337.062
L96.6844 335.603
L102.947 332.781
L103.841 332.076
L109.209 329.64
L112.787 328.081
L113.682 327.264
L115.471 326.539
L120.838 324.115
L124.417 322.557
L125.311 322.153
L126.206 320.007
L128.89 318.784
L130.679 318.013
L131.573 317.018
L133.363 316.174
L134.257 315
L135.152 314.151
L146.781 308.969
L147.676 307.996
L151.254 306.304
L153.044 305.391
L156.622 303.796
L160.2 302.26
L161.095 301.216
L162.884 300.437
L165.568 299.189
L166.462 297.89
L175.408 293.78
L178.092 292.677
L181.67 290.985
L182.565 290.05
L193.3 285.144
L194.195 284.824
L195.089 283.904
L197.773 282.836
L204.035 279.949
L204.93 279.621
L206.719 278.73
L210.297 277.143
L213.876 275.654
L214.77 274.807
L221.927 271.59
L223.716 270.769
L224.611 270.32
L225.505 269.571
L229.084 268.045
L229.978 267.074
L230.873 266.643
L231.767 265.781
L238.029 262.858
L238.924 262.367
L240.713 261.613
L242.502 260.773
L244.292 259.97
L246.975 258.773
L247.87 257.853
L249.659 257.082
L250.554 256.162
L252.343 255.413
L253.238 254.254
L255.027 253.481
L259.5 251.497
L261.289 250.841
L262.183 249.687
L263.078 249.279
L263.973 248.329
L266.656 247.226
L272.024 244.697
L272.918 243.909
L273.813 243.444
L276.497 242.328
L277.391 241.531
L282.759 239.174
L283.654 238.096
L289.916 235.159
L291.705 233.813
L293.494 232.97
L295.283 232.169
L297.072 231.361
L299.756 230.155
L301.545 229.422
L304.229 228.271
L305.124 227.439
L307.807 226.322
L308.702 225.173
L314.07 222.75
L315.859 221.997
L318.543 220.766
L319.437 219.774
L321.226 219.027
L322.121 218.492
L323.91 217.746
L324.805 215.563
L328.383 213.941
L329.278 212.81
L331.067 212.062
L332.856 211.278
L333.751 210.852
L334.645 210.247
L335.54 209.274
L340.013 207.366
L341.802 206.622
L344.486 205.35
L348.959 203.395
L350.748 202.665
L353.431 201.49
L356.115 200.422
L363.272 197.172
L364.167 196.151
L365.956 195.325
L366.85 194.589
L369.534 193.303
L370.429 192.238
L371.323 191.621
L373.112 190.837
L374.007 189.822
L374.902 189.47
L377.585 188.144
L380.269 187.054
L382.058 186.225
L387.426 183.628
L389.215 181.635
L390.11 181.105
L392.793 179.973
L393.688 179.178
L399.056 176.779
L399.95 176.293
L400.845 175.377
L402.634 173.988
L403.528 171.985
L404.423 170.608
L405.318 170.2
L407.107 167.994
L414.264 164.826
L416.053 164.097
L416.947 162.998
L418.737 162.243
L423.209 159.995
L426.788 158.322
L428.577 157.411
L437.523 153.508
L438.417 152.593
L441.101 151.501
L448.258 148.459
L449.153 147.292
L452.731 145.74
L453.625 144.921
L454.52 144.582
L455.415 143.324
L465.255 138.917
L467.044 138.167
L469.728 137.022
L471.517 136.276
L473.306 135.333
L475.096 134.531
L475.096 134.531" style="fill:none;stroke:#bfbf00;stroke-linecap:square;"/>
   </g>
   <g id="line2d_14">
    <path clip-path="url(#p2118423672)" d="
M28.6956 368.719
L29.5902 368.193
L30.4848 367.134
L36.7469 364.334
L42.1145 361.623
L43.0091 360.633
L44.7982 359.786
L45.6928 358.806
L50.1658 356.639
L51.0604 355.764
L51.9549 355.103
L55.5333 353.495
L56.4279 352.717
L59.1117 351.492
L60.0062 350.486
L66.2684 347.734
L67.163 346.964
L68.9521 346.052
L75.2143 343.225
L77.898 341.74
L78.7926 341.355
L80.5818 340.363
L81.4764 338.838
L85.9493 336.485
L86.8439 336.095
L87.7385 335.54
L90.4223 334.258
L92.2115 333.262
L93.106 332.147
L100.263 328.15
L102.947 326.551
L111.892 321.938
L112.787 321.032
L114.576 320.124
L119.944 317.191
L120.838 316.107
L123.522 314.711
L124.417 313.515
L125.311 312.998
L126.206 311.875
L130.679 309.519
L133.363 307.975
L136.941 306.057
L137.836 304.902
L140.519 303.472
L141.414 303.081
L142.308 302.477
L143.203 302.048
L144.098 301.043
L146.781 299.707
L147.676 299.314
L148.571 298.188
L153.044 295.715
L157.516 293.415
L158.411 292.584
L160.2 291.707
L162.884 290.308
L164.673 288.49
L166.462 287.569
L167.357 286.357
L171.83 283.905
L172.724 283.353
L174.514 282.438
L175.408 281.255
L177.197 280.374
L178.092 279.323
L180.776 277.837
L181.67 276.375
L182.565 275.699
L186.143 273.777
L187.932 271.899
L189.722 270.971
L190.616 270.377
L191.511 269.301
L193.3 268.256
L195.089 267.375
L195.984 266.422
L197.773 265.517
L198.668 264.44
L200.457 263.444
L201.351 262.515
L204.93 260.64
L205.824 259.533
L206.719 259.011
L207.613 258.077
L210.297 256.61
L213.876 254.793
L219.243 251.801
L220.138 250.662
L222.821 249.285
L223.716 248.133
L224.611 247.562
L225.505 246.424
L226.4 245.992
L227.294 245.434
L229.978 244.167
L231.767 243.115
L232.662 242.18
L236.24 240.244
L238.029 239.317
L238.924 238.769
L240.713 237.876
L242.502 236.887
L244.292 235.967
L251.448 232.135
L254.132 230.838
L273.813 220.258
L276.497 218.96
L277.391 217.853
L280.075 216.43
L281.864 215.521
L283.654 214.469
L286.337 212.893
L288.126 211.979
L289.916 210.869
L290.81 209.94
L297.967 205.971
L299.756 205.028
L300.651 204.619
L302.44 203.604
L304.229 202.712
L306.018 201.849
L306.913 200.883
L307.807 200.437
L309.597 199.344
L310.491 198.248
L312.28 197.217
L314.07 196.34
L314.964 195.944
L316.753 194.836
L317.648 193.801
L321.226 191.921
L322.121 191.164
L323.91 190.277
L324.805 189.661
L330.172 186.92
L331.067 186.241
L332.856 185.31
L338.223 182.441
L340.907 181.149
L343.591 179.605
L344.486 178.524
L348.064 176.605
L350.748 175.332
L351.642 174.436
L354.326 173.157
L356.115 172.296
L357.01 171.103
L360.588 169.202
L362.377 166.871
L363.272 166.347
L365.061 165.458
L366.85 164.521
L367.745 163.689
L370.429 162.175
L371.323 161.792
L373.112 160.84
L374.007 159.838
L374.902 159.42
L377.585 157.809
L378.48 157.38
L379.375 156.82
L380.269 156.424
L382.058 155.343
L382.953 154.26
L383.848 152.036
L384.742 151.647
L385.637 151.021
L387.426 150.088
L389.215 149.08
L391.004 147.226
L392.793 144.901
L396.372 143.013
L397.266 141.814
L399.95 140.331
L400.845 138.064
L402.634 137.153
L414.264 131.06
L415.158 130.037
L416.053 129.655
L418.737 128.202
L419.631 127.12
L424.999 124.222
L425.893 123.82
L426.788 123.134
L428.577 122.164
L429.472 121.326
L433.945 118.937
L435.734 118.029
L440.207 115.559
L442.89 114.286
L443.785 113.315
L451.836 109.205
L452.731 108.134
L455.415 106.693
L456.309 105.762
L460.782 103.426
L461.677 102.728
L462.571 101.782
L469.728 97.8282
L470.623 96.8893
L472.412 95.8479
L473.306 93.211
L475.096 92.2191
L475.096 92.2191" style="fill:none;stroke:#000000;stroke-linecap:square;"/>
   </g>
   <g id="line2d_15">
    <path clip-path="url(#p2118423672)" d="
M28.6956 368.649
L29.5902 366.881
L30.4848 366.412
L31.3794 365.571
L34.9577 363.87
L35.8523 362.952
L44.7982 358.888
L45.6928 358.249
L46.5874 357.159
L52.8495 354.23
L53.7441 353.36
L56.4279 352.005
L57.3225 351.235
L58.2171 350.809
L59.1117 349.558
L66.2684 346.17
L67.163 345.136
L68.9521 344.144
L70.7413 343.282
L71.6359 342.209
L76.1089 340.142
L77.0034 339.572
L77.898 338.397
L79.6872 337.449
L80.5818 336.437
L85.9493 333.303
L87.7385 332.354
L88.6331 331.397
L94.8952 327.901
L95.7898 326.905
L103.841 322.273
L104.736 321.172
L105.63 320.783
L108.314 319.275
L109.209 318.174
L113.682 315.594
L115.471 314.631
L117.26 313.575
L118.155 313.163
L119.049 312.076
L120.838 311.11
L122.627 310.137
L123.522 309.39
L124.417 308.868
L125.311 307.809
L130.679 304.74
L131.573 303.592
L136.046 301.013
L139.625 299.053
L146.781 294.936
L147.676 294.514
L148.571 293.916
L149.465 292.75
L151.254 291.792
L152.149 290.633
L156.622 288.002
L160.2 286.013
L162.884 284.566
L165.568 282.988
L166.462 281.804
L170.935 279.159
L173.619 277.67
L174.514 276.563
L176.303 275.603
L178.092 274.645
L187.932 268.923
L188.827 268.473
L190.616 267.274
L191.511 266.771
L193.3 264.605
L195.984 263.252
L200.457 260.712
L201.351 259.468
L204.93 257.364
L205.824 256.087
L207.613 255.114
L208.508 253.544
L211.192 252.045
L212.086 251.507
L212.981 250.755
L215.665 249.222
L217.454 248.211
L218.349 247.231
L219.243 246.747
L220.138 245.669
L222.821 244.161
L223.716 243.198
L226.4 241.658
L228.189 240.702
L229.084 239.556
L233.557 236.591
L235.346 234.907
L241.608 231.283
L242.502 230.101
L243.397 229.652
L244.292 228.576
L246.081 227.649
L246.975 226.372
L247.87 225.358
L251.448 223.361
L252.343 222.131
L259.5 218.168
L261.289 217.339
L263.078 216.173
L263.973 215.252
L267.551 213.306
L270.235 211.699
L272.024 210.574
L275.602 208.781
L281.864 205.319
L282.759 204.297
L284.548 203.33
L289.021 200.767
L289.916 200.05
L290.81 199.111
L294.389 197.244
L298.862 194.554
L300.651 193.708
L302.44 191.584
L304.229 190.547
L305.124 189.586
L307.807 188.172
L308.702 187.479
L312.28 185.377
L314.964 184.016
L316.753 182.945
L317.648 181.859
L321.226 179.912
L324.805 177.85
L328.383 175.843
L331.067 174.345
L331.961 173.674
L334.645 172.19
L336.434 170.206
L339.118 168.774
L343.591 166.227
L344.486 165.14
L348.064 163.011
L350.748 161.647
L351.642 161.096
L352.537 160.125
L354.326 159.132
L356.115 158.153
L357.01 156.477
L358.799 155.475
L359.694 154.545
L361.483 153.587
L363.272 152.491
L365.061 151.559
L367.745 149.899
L368.64 148.69
L370.429 147.672
L372.218 146.695
L374.902 145.186
L379.375 142.394
L380.269 141.307
L381.164 140.588
L383.848 138.981
L384.742 137.883
L385.637 137.288
L387.426 136.323
L389.215 135.262
L390.11 134.648
L391.004 132.039
L391.899 131.457
L392.793 131.038
L393.688 130.454
L394.583 129.424
L399.056 126.939
L399.95 126.333
L400.845 125.867
L401.739 124.838
L402.634 124.424
L405.318 122.793
L407.107 121.834
L409.791 120.322
L410.685 119.91
L412.474 118.928
L415.158 117.474
L416.053 117.065
L416.947 116.409
L417.842 115.999
L419.631 114.84
L420.526 113.801
L422.315 112.734
L424.999 111.146
L425.893 110.729
L426.788 109.317
L430.366 107.271
L431.261 106.464
L432.155 105.351
L434.839 103.912
L437.523 102.212
L440.207 100.685
L442.89 99.3154
L443.785 98.2729
L444.68 97.7983
L445.574 96.5887
L447.363 95.6198
L450.047 94.0854
L450.942 93.446
L452.731 92.4668
L458.098 89.4601
L459.888 88.0673
L461.677 87.1757
L462.571 86.064
L465.255 84.412
L467.044 83.3867
L467.939 82.7001
L468.834 82.2751
L475.096 78.2592
L475.096 78.2592" style="fill:none;stroke:#0000ff;stroke-linecap:square;"/>
   </g>
   <g id="line2d_16">
    <path clip-path="url(#p2118423672)" d="
M28.6956 368.723
L29.5902 368.026
L32.274 366.522
L33.1686 365.728
L48.3766 358.749
L51.0604 357.311
L52.8495 356.368
L53.7441 355.262
L57.3225 353.371
L59.1117 352.326
L60.9008 351.343
L61.7954 350.161
L62.69 348.773
L64.4792 347.843
L66.2684 346.779
L67.163 346.294
L68.0575 345.154
L69.8467 344.248
L70.7413 343.069
L72.5305 342.078
L73.4251 340.721
L75.2143 339.811
L76.1089 338.256
L80.5818 335.504
L89.5277 330.082
L90.4223 329.029
L92.2115 327.81
L93.106 327.349
L94.8952 326.196
L95.7898 325.722
L96.6844 324.144
L97.579 322.883
L102.947 319.51
L104.736 317.375
L106.525 316.352
L107.419 315.774
L108.314 314.761
L111.892 312.547
L112.787 310.757
L113.682 310.137
L114.576 309.674
L115.471 308.646
L119.049 306.387
L119.944 305.411
L122.627 303.594
L125.311 301.929
L126.206 300.504
L129.784 298.197
L130.679 297.2
L137.836 292.294
L139.625 291.23
L140.519 289.951
L141.414 289.48
L142.308 288.854
L143.203 287.524
L144.098 286.955
L144.992 285.757
L145.887 285.273
L146.781 283.93
L148.571 282.868
L149.465 282.284
L151.254 280.238
L152.149 279.575
L153.044 278.318
L153.938 277.722
L154.833 276.477
L157.516 274.885
L159.306 272.671
L160.2 272.059
L161.095 270.866
L167.357 266.896
L168.252 266.181
L170.935 264.542
L171.83 263.907
L172.724 262.706
L173.619 262.234
L174.514 260.372
L176.303 259.301
L180.776 256.618
L181.67 255.974
L182.565 254.842
L183.46 253.133
L184.354 252.654
L185.249 251.492
L191.511 247.521
L193.3 246.304
L194.195 245.836
L195.984 244.751
L197.773 243.717
L198.668 242.549
L202.246 240.138
L203.141 239.638
L204.035 238.962
L204.93 238.462
L205.824 237.104
L209.403 234.829
L210.297 233.81
L212.086 232.704
L212.981 231.368
L213.876 230.827
L214.77 229.543
L215.665 228.745
L221.927 224.722
L224.611 222.927
L226.4 221.836
L229.084 220.205
L230.873 219.161
L231.767 217.428
L236.24 214.537
L240.713 211.812
L241.608 210.61
L242.502 210.038
L243.397 208.804
L245.186 207.468
L246.975 206.362
L250.554 204.083
L258.605 199.202
L259.5 198.034
L261.289 197.081
L262.183 195.916
L263.078 195.316
L263.973 194.039
L266.656 192.467
L267.551 191.837
L268.446 188.637
L269.34 187.423
L270.235 186.832
L271.129 185.999
L272.024 185.385
L272.918 184.925
L273.813 183.676
L274.708 183.188
L275.602 181.936
L276.497 181.364
L277.391 180.3
L279.181 179.254
L282.759 176.944
L285.443 175.107
L286.337 174.572
L287.232 173.484
L288.126 172.192
L290.81 170.307
L291.705 168.902
L292.599 165.4
L295.283 163.78
L296.178 163.119
L297.967 162.015
L299.756 160.957
L300.651 160.136
L304.229 157.925
L305.124 156.698
L306.913 155.67
L307.807 154.658
L308.702 153.882
L309.597 152.834
L311.386 151.766
L314.07 150.138
L314.964 149.013
L319.437 145.985
L320.332 144.856
L322.121 143.647
L323.015 140.907
L323.91 140.319
L324.805 139.5
L331.067 135.597
L334.645 133.264
L337.329 131.571
L338.223 130.206
L339.118 129.729
L340.013 128.764
L341.802 127.615
L342.696 126.499
L345.38 124.809
L348.064 123.164
L348.959 122.628
L349.853 121.629
L353.431 119.386
L354.326 118.927
L355.221 117.282
L357.904 115.681
L360.588 114.132
L361.483 113.047
L364.167 111.312
L365.956 110.122
L366.85 108.925
L368.64 107.667
L369.534 106.529
L370.429 106.018
L371.323 104.905
L372.218 103.61
L373.112 103.104
L374.007 102.102
L375.796 100.967
L378.48 99.1864
L379.375 98.5597
L380.269 96.8928
L382.058 95.7489
L387.426 92.2963
L389.215 91.0452
L394.583 87.7044
L396.372 86.6227
L398.161 83.4847
L399.056 82.9801
L399.95 81.9502
L405.318 78.599
L407.107 77.568
L408.001 76.8042
L409.791 75.6465
L410.685 74.6269
L413.369 72.975
L416.053 71.4693
L420.526 68.481
L421.42 67.4143
L422.315 66.1448
L423.209 65.6851
L424.104 64.5181
L424.999 63.8085
L425.893 63.3177
L427.682 60.6175
L429.472 59.4655
L430.366 58.4379
L432.155 57.2271
L433.05 55.9933
L434.839 54.9888
L436.628 52.3081
L438.417 51.1446
L441.996 49.026
L442.89 47.919
L446.469 45.6161
L447.363 45.1392
L448.258 44.0713
L450.942 42.3663
L451.836 41.0692
L457.204 37.7249
L463.466 33.7816
L465.255 32.5501
L467.044 31.4673
L469.728 29.7899
L470.623 28.3108
L471.517 26.554
L472.412 25.3905
L475.096 23.6636
L475.096 23.6636" style="fill:none;stroke:#008000;stroke-linecap:square;"/>
   </g>
   <g id="patch_3">
    <path d="
M28.6956 23.1417
L475.096 23.1417" style="fill:none;stroke:#000000;stroke-linecap:square;stroke-linejoin:miter;"/>
   </g>
   <g id="patch_4">
    <path d="
M475.096 368.742
L475.096 23.1417" style="fill:none;stroke:#000000;stroke-linecap:square;stroke-linejoin:miter;"/>
   </g>
   <g id="patch_5">
    <path d="
M28.6956 368.742
L475.096 368.742" style="fill:none;stroke:#000000;stroke-linecap:square;stroke-linejoin:miter;"/>
   </g>
   <g id="patch_6">
    <path d="
M28.6956 368.742
L28.6956 23.1417" style="fill:none;stroke:#000000;stroke-linecap:square;stroke-linejoin:miter;"/>
   </g>
   <g id="matplotlib.axis_1">
    <g id="xtick_1">
     <g id="line2d_17">
      <defs>
       <path d="
M0 0
L0 -4" id="m93b0483c22" style="stroke:#000000;stroke-width:0.5;"/>
      </defs>
      <g>
       <use style="stroke:#000000;stroke-width:0.5;" x="28.695625" xlink:href="#m93b0483c22" y="368.74175"/>
      </g>
     </g>
     <g id="line2d_18">
      <defs>
       <path d="
M0 0
L0 4" id="m741efc42ff" style="stroke:#000000;stroke-width:0.5;"/>
      </defs>
      <g>
       <use style="stroke:#000000;stroke-width:0.5;" x="28.695625" xlink:href="#m741efc42ff" y="23.14175"/>
      </g>
     </g>
     <g id="text_1">
      <!-- 0 -->
      <defs>
       <path d="
M31.7812 66.4062
Q24.1719 66.4062 20.3281 58.9062
Q16.5 51.4219 16.5 36.375
Q16.5 21.3906 20.3281 13.8906
Q24.1719 6.39062 31.7812 6.39062
Q39.4531 6.39062 43.2812 13.8906
Q47.125 21.3906 47.125 36.375
Q47.125 51.4219 43.2812 58.9062
Q39.4531 66.4062 31.7812 66.4062
M31.7812 74.2188
Q44.0469 74.2188 50.5156 64.5156
Q56.9844 54.8281 56.9844 36.375
Q56.9844 17.9688 50.5156 8.26562
Q44.0469 -1.42188 31.7812 -1.42188
Q19.5312 -1.42188 13.0625 8.26562
Q6.59375 17.9688 6.59375 36.375
Q6.59375 54.8281 13.0625 64.5156
Q19.5312 74.2188 31.7812 74.2188" id="DejaVuSans-30"/>
      </defs>
      <g transform="translate(25.6721875 381.859875)scale(0.12 -0.12)">
       <use xlink:href="#DejaVuSans-30"/>
      </g>
     </g>
    </g>
    <g id="xtick_2">
     <g id="line2d_19">
      <g>
       <use style="stroke:#000000;stroke-width:0.5;" x="118.154542836" xlink:href="#m93b0483c22" y="368.74175"/>
      </g>
     </g>
     <g id="line2d_20">
      <g>
       <use style="stroke:#000000;stroke-width:0.5;" x="118.154542836" xlink:href="#m741efc42ff" y="23.14175"/>
      </g>
     </g>
     <g id="text_2">
      <!-- 100 -->
      <defs>
       <path d="
M12.4062 8.29688
L28.5156 8.29688
L28.5156 63.9219
L10.9844 60.4062
L10.9844 69.3906
L28.4219 72.9062
L38.2812 72.9062
L38.2812 8.29688
L54.3906 8.29688
L54.3906 0
L12.4062 0
z
" id="DejaVuSans-31"/>
      </defs>
      <g transform="translate(107.759542836 381.859875)scale(0.12 -0.12)">
       <use xlink:href="#DejaVuSans-31"/>
       <use x="63.623046875" xlink:href="#DejaVuSans-30"/>
       <use x="127.24609375" xlink:href="#DejaVuSans-30"/>
      </g>
     </g>
    </g>
    <g id="xtick_3">
     <g id="line2d_21">
      <g>
       <use style="stroke:#000000;stroke-width:0.5;" x="207.613460671" xlink:href="#m93b0483c22" y="368.74175"/>
      </g>
     </g>
     <g id="line2d_22">
      <g>
       <use style="stroke:#000000;stroke-width:0.5;" x="207.613460671" xlink:href="#m741efc42ff" y="23.14175"/>
      </g>
     </g>
     <g id="text_3">
      <!-- 200 -->
      <defs>
       <path d="
M19.1875 8.29688
L53.6094 8.29688
L53.6094 0
L7.32812 0
L7.32812 8.29688
Q12.9375 14.1094 22.625 23.8906
Q32.3281 33.6875 34.8125 36.5312
Q39.5469 41.8438 41.4219 45.5312
Q43.3125 49.2188 43.3125 52.7812
Q43.3125 58.5938 39.2344 62.25
Q35.1562 65.9219 28.6094 65.9219
Q23.9688 65.9219 18.8125 64.3125
Q13.6719 62.7031 7.8125 59.4219
L7.8125 69.3906
Q13.7656 71.7812 18.9375 73
Q24.125 74.2188 28.4219 74.2188
Q39.75 74.2188 46.4844 68.5469
Q53.2188 62.8906 53.2188 53.4219
Q53.2188 48.9219 51.5312 44.8906
Q49.8594 40.875 45.4062 35.4062
Q44.1875 33.9844 37.6406 27.2188
Q31.1094 20.4531 19.1875 8.29688" id="DejaVuSans-32"/>
      </defs>
      <g transform="translate(196.999085671 381.859875)scale(0.12 -0.12)">
       <use xlink:href="#DejaVuSans-32"/>
       <use x="63.623046875" xlink:href="#DejaVuSans-30"/>
       <use x="127.24609375" xlink:href="#DejaVuSans-30"/>
      </g>
     </g>
    </g>
    <g id="xtick_4">
     <g id="line2d_23">
      <g>
       <use style="stroke:#000000;stroke-width:0.5;" x="297.072378507" xlink:href="#m93b0483c22" y="368.74175"/>
      </g>
     </g>
     <g id="line2d_24">
      <g>
       <use style="stroke:#000000;stroke-width:0.5;" x="297.072378507" xlink:href="#m741efc42ff" y="23.14175"/>
      </g>
     </g>
     <g id="text_4">
      <!-- 300 -->
      <defs>
       <path d="
M40.5781 39.3125
Q47.6562 37.7969 51.625 33
Q55.6094 28.2188 55.6094 21.1875
Q55.6094 10.4062 48.1875 4.48438
Q40.7656 -1.42188 27.0938 -1.42188
Q22.5156 -1.42188 17.6562 -0.515625
Q12.7969 0.390625 7.625 2.20312
L7.625 11.7188
Q11.7188 9.32812 16.5938 8.10938
Q21.4844 6.89062 26.8125 6.89062
Q36.0781 6.89062 40.9375 10.5469
Q45.7969 14.2031 45.7969 21.1875
Q45.7969 27.6406 41.2812 31.2656
Q36.7656 34.9062 28.7188 34.9062
L20.2188 34.9062
L20.2188 43.0156
L29.1094 43.0156
Q36.375 43.0156 40.2344 45.9219
Q44.0938 48.8281 44.0938 54.2969
Q44.0938 59.9062 40.1094 62.9062
Q36.1406 65.9219 28.7188 65.9219
Q24.6562 65.9219 20.0156 65.0312
Q15.375 64.1562 9.8125 62.3125
L9.8125 71.0938
Q15.4375 72.6562 20.3438 73.4375
Q25.25 74.2188 29.5938 74.2188
Q40.8281 74.2188 47.3594 69.1094
Q53.9062 64.0156 53.9062 55.3281
Q53.9062 49.2656 50.4375 45.0938
Q46.9688 40.9219 40.5781 39.3125" id="DejaVuSans-33"/>
      </defs>
      <g transform="translate(286.475816007 381.859875)scale(0.12 -0.12)">
       <use xlink:href="#DejaVuSans-33"/>
       <use x="63.623046875" xlink:href="#DejaVuSans-30"/>
       <use x="127.24609375" xlink:href="#DejaVuSans-30"/>
      </g>
     </g>
    </g>
    <g id="xtick_5">
     <g id="line2d_25">
      <g>
       <use style="stroke:#000000;stroke-width:0.5;" x="386.531296343" xlink:href="#m93b0483c22" y="368.74175"/>
      </g>
     </g>
     <g id="line2d_26">
      <g>
       <use style="stroke:#000000;stroke-width:0.5;" x="386.531296343" xlink:href="#m741efc42ff" y="23.14175"/>
      </g>
     </g>
     <g id="text_5">
      <!-- 400 -->
      <defs>
       <path d="
M37.7969 64.3125
L12.8906 25.3906
L37.7969 25.3906
z

M35.2031 72.9062
L47.6094 72.9062
L47.6094 25.3906
L58.0156 25.3906
L58.0156 17.1875
L47.6094 17.1875
L47.6094 0
L37.7969 0
L37.7969 17.1875
L4.89062 17.1875
L4.89062 26.7031
z
" id="DejaVuSans-34"/>
      </defs>
      <g transform="translate(375.770671343 381.859875)scale(0.12 -0.12)">
       <use xlink:href="#DejaVuSans-34"/>
       <use x="63.623046875" xlink:href="#DejaVuSans-30"/>
       <use x="127.24609375" xlink:href="#DejaVuSans-30"/>
      </g>
     </g>
    </g>
    <g id="text_6">
     <!-- time -->
     <defs>
      <path d="
M18.3125 70.2188
L18.3125 54.6875
L36.8125 54.6875
L36.8125 47.7031
L18.3125 47.7031
L18.3125 18.0156
Q18.3125 11.3281 20.1406 9.42188
Q21.9688 7.51562 27.5938 7.51562
L36.8125 7.51562
L36.8125 0
L27.5938 0
Q17.1875 0 13.2344 3.875
Q9.28125 7.76562 9.28125 18.0156
L9.28125 47.7031
L2.6875 47.7031
L2.6875 54.6875
L9.28125 54.6875
L9.28125 70.2188
z
" id="DejaVuSans-74"/>
      <path d="
M52 44.1875
Q55.375 50.25 60.0625 53.125
Q64.75 56 71.0938 56
Q79.6406 56 84.2812 50.0156
Q88.9219 44.0469 88.9219 33.0156
L88.9219 0
L79.8906 0
L79.8906 32.7188
Q79.8906 40.5781 77.0938 44.375
Q74.3125 48.1875 68.6094 48.1875
Q61.625 48.1875 57.5625 43.5469
Q53.5156 38.9219 53.5156 30.9062
L53.5156 0
L44.4844 0
L44.4844 32.7188
Q44.4844 40.625 41.7031 44.4062
Q38.9219 48.1875 33.1094 48.1875
Q26.2188 48.1875 22.1562 43.5312
Q18.1094 38.875 18.1094 30.9062
L18.1094 0
L9.07812 0
L9.07812 54.6875
L18.1094 54.6875
L18.1094 46.1875
Q21.1875 51.2188 25.4844 53.6094
Q29.7812 56 35.6875 56
Q41.6562 56 45.8281 52.9688
Q50 49.9531 52 44.1875" id="DejaVuSans-6d"/>
      <path d="
M56.2031 29.5938
L56.2031 25.2031
L14.8906 25.2031
Q15.4844 15.9219 20.4844 11.0625
Q25.4844 6.20312 34.4219 6.20312
Q39.5938 6.20312 44.4531 7.46875
Q49.3125 8.73438 54.1094 11.2812
L54.1094 2.78125
Q49.2656 0.734375 44.1875 -0.34375
Q39.1094 -1.42188 33.8906 -1.42188
Q20.7969 -1.42188 13.1562 6.1875
Q5.51562 13.8125 5.51562 26.8125
Q5.51562 40.2344 12.7656 48.1094
Q20.0156 56 32.3281 56
Q43.3594 56 49.7812 48.8906
Q56.2031 41.7969 56.2031 29.5938
M47.2188 32.2344
Q47.125 39.5938 43.0938 43.9844
Q39.0625 48.3906 32.4219 48.3906
Q24.9062 48.3906 20.3906 44.1406
Q15.875 39.8906 15.1875 32.1719
z
" id="DejaVuSans-65"/>
      <path d="
M9.42188 54.6875
L18.4062 54.6875
L18.4062 0
L9.42188 0
z

M9.42188 75.9844
L18.4062 75.9844
L18.4062 64.5938
L9.42188 64.5938
z
" id="DejaVuSans-69"/>
     </defs>
     <g transform="translate(238.82125 398.473625)scale(0.12 -0.12)">
      <use xlink:href="#DejaVuSans-74"/>
      <use x="39.208984375" xlink:href="#DejaVuSans-69"/>
      <use x="66.9921875" xlink:href="#DejaVuSans-6d"/>
      <use x="164.404296875" xlink:href="#DejaVuSans-65"/>
     </g>
    </g>
   </g>
   <g id="matplotlib.axis_2">
    <g id="ytick_1">
     <g id="line2d_27">
      <defs>
       <path d="
M0 0
L4 0" id="m728421d6d4" style="stroke:#000000;stroke-width:0.5;"/>
      </defs>
      <g>
       <use style="stroke:#000000;stroke-width:0.5;" x="28.695625" xlink:href="#m728421d6d4" y="368.74175"/>
      </g>
     </g>
     <g id="line2d_28">
      <defs>
       <path d="
M0 0
L-4 0" id="mcb0005524f" style="stroke:#000000;stroke-width:0.5;"/>
      </defs>
      <g>
       <use style="stroke:#000000;stroke-width:0.5;" x="475.095625" xlink:href="#mcb0005524f" y="368.74175"/>
      </g>
     </g>
     <g id="text_7">
      <!-- 0.0 -->
      <defs>
       <path d="
M10.6875 12.4062
L21 12.4062
L21 0
L10.6875 0
z
" id="DejaVuSans-2e"/>
      </defs>
      <g transform="translate(7.2 372.053)scale(0.12 -0.12)">
       <use xlink:href="#DejaVuSans-30"/>
       <use x="63.623046875" xlink:href="#DejaVuSans-2e"/>
       <use x="95.41015625" xlink:href="#DejaVuSans-30"/>
      </g>
     </g>
    </g>
    <g id="ytick_2">
     <g id="line2d_29">
      <g>
       <use style="stroke:#000000;stroke-width:0.5;" x="28.695625" xlink:href="#m728421d6d4" y="311.14175"/>
      </g>
     </g>
     <g id="line2d_30">
      <g>
       <use style="stroke:#000000;stroke-width:0.5;" x="475.095625" xlink:href="#mcb0005524f" y="311.14175"/>
      </g>
     </g>
     <g id="text_8">
      <!-- 0.5 -->
      <defs>
       <path d="
M10.7969 72.9062
L49.5156 72.9062
L49.5156 64.5938
L19.8281 64.5938
L19.8281 46.7344
Q21.9688 47.4688 24.1094 47.8281
Q26.2656 48.1875 28.4219 48.1875
Q40.625 48.1875 47.75 41.5
Q54.8906 34.8125 54.8906 23.3906
Q54.8906 11.625 47.5625 5.09375
Q40.2344 -1.42188 26.9062 -1.42188
Q22.3125 -1.42188 17.5469 -0.640625
Q12.7969 0.140625 7.71875 1.70312
L7.71875 11.625
Q12.1094 9.23438 16.7969 8.0625
Q21.4844 6.89062 26.7031 6.89062
Q35.1562 6.89062 40.0781 11.3281
Q45.0156 15.7656 45.0156 23.3906
Q45.0156 31 40.0781 35.4375
Q35.1562 39.8906 26.7031 39.8906
Q22.75 39.8906 18.8125 39.0156
Q14.8906 38.1406 10.7969 36.2812
z
" id="DejaVuSans-35"/>
      </defs>
      <g transform="translate(7.45125 314.453)scale(0.12 -0.12)">
       <use xlink:href="#DejaVuSans-30"/>
       <use x="63.623046875" xlink:href="#DejaVuSans-2e"/>
       <use x="95.41015625" xlink:href="#DejaVuSans-35"/>
      </g>
     </g>
    </g>
    <g id="ytick_3">
     <g id="line2d_31">
      <g>
       <use style="stroke:#000000;stroke-width:0.5;" x="28.695625" xlink:href="#m728421d6d4" y="253.54175"/>
      </g>
     </g>
     <g id="line2d_32">
      <g>
       <use style="stroke:#000000;stroke-width:0.5;" x="475.095625" xlink:href="#mcb0005524f" y="253.54175"/>
      </g>
     </g>
     <g id="text_9">
      <!-- 1.0 -->
      <g transform="translate(7.726875 256.853)scale(0.12 -0.12)">
       <use xlink:href="#DejaVuSans-31"/>
       <use x="63.623046875" xlink:href="#DejaVuSans-2e"/>
       <use x="95.41015625" xlink:href="#DejaVuSans-30"/>
      </g>
     </g>
    </g>
    <g id="ytick_4">
     <g id="line2d_33">
      <g>
       <use style="stroke:#000000;stroke-width:0.5;" x="28.695625" xlink:href="#m728421d6d4" y="195.94175"/>
      </g>
     </g>
     <g id="line2d_34">
      <g>
       <use style="stroke:#000000;stroke-width:0.5;" x="475.095625" xlink:href="#mcb0005524f" y="195.94175"/>
      </g>
     </g>
     <g id="text_10">
      <!-- 1.5 -->
      <g transform="translate(7.978125 199.253)scale(0.12 -0.12)">
       <use xlink:href="#DejaVuSans-31"/>
       <use x="63.623046875" xlink:href="#DejaVuSans-2e"/>
       <use x="95.41015625" xlink:href="#DejaVuSans-35"/>
      </g>
     </g>
    </g>
    <g id="ytick_5">
     <g id="line2d_35">
      <g>
       <use style="stroke:#000000;stroke-width:0.5;" x="28.695625" xlink:href="#m728421d6d4" y="138.34175"/>
      </g>
     </g>
     <g id="line2d_36">
      <g>
       <use style="stroke:#000000;stroke-width:0.5;" x="475.095625" xlink:href="#mcb0005524f" y="138.34175"/>
      </g>
     </g>
     <g id="text_11">
      <!-- 2.0 -->
      <g transform="translate(7.288125 141.653)scale(0.12 -0.12)">
       <use xlink:href="#DejaVuSans-32"/>
       <use x="63.623046875" xlink:href="#DejaVuSans-2e"/>
       <use x="95.41015625" xlink:href="#DejaVuSans-30"/>
      </g>
     </g>
    </g>
    <g id="ytick_6">
     <g id="line2d_37">
      <g>
       <use style="stroke:#000000;stroke-width:0.5;" x="28.695625" xlink:href="#m728421d6d4" y="80.74175"/>
      </g>
     </g>
     <g id="line2d_38">
      <g>
       <use style="stroke:#000000;stroke-width:0.5;" x="475.095625" xlink:href="#mcb0005524f" y="80.74175"/>
      </g>
     </g>
     <g id="text_12">
      <!-- 2.5 -->
      <g transform="translate(7.539375 84.053)scale(0.12 -0.12)">
       <use xlink:href="#DejaVuSans-32"/>
       <use x="63.623046875" xlink:href="#DejaVuSans-2e"/>
       <use x="95.41015625" xlink:href="#DejaVuSans-35"/>
      </g>
     </g>
    </g>
    <g id="ytick_7">
     <g id="line2d_39">
      <g>
       <use style="stroke:#000000;stroke-width:0.5;" x="28.695625" xlink:href="#m728421d6d4" y="23.14175"/>
      </g>
     </g>
     <g id="line2d_40">
      <g>
       <use style="stroke:#000000;stroke-width:0.5;" x="475.095625" xlink:href="#mcb0005524f" y="23.14175"/>
      </g>
     </g>
     <g id="text_13">
      <!-- 3.0 -->
      <g transform="translate(7.32375 26.453)scale(0.12 -0.12)">
       <use xlink:href="#DejaVuSans-33"/>
       <use x="63.623046875" xlink:href="#DejaVuSans-2e"/>
       <use x="95.41015625" xlink:href="#DejaVuSans-30"/>
      </g>
     </g>
    </g>
    <g id="text_14">
     <!-- 1e10 -->
     <g transform="translate(28.695625 20.14175)scale(0.12 -0.12)">
      <use xlink:href="#DejaVuSans-31"/>
      <use x="63.623046875" xlink:href="#DejaVuSans-65"/>
      <use x="125.146484375" xlink:href="#DejaVuSans-31"/>
      <use x="188.76953125" xlink:href="#DejaVuSans-30"/>
     </g>
    </g>
   </g>
   <g id="text_15">
    <!-- /agas/time/resolve_gid -->
    <defs>
     <path d="
M2.98438 54.6875
L12.5 54.6875
L29.5938 8.79688
L46.6875 54.6875
L56.2031 54.6875
L35.6875 0
L23.4844 0
z
" id="DejaVuSans-76"/>
     <path d="
M25.3906 72.9062
L33.6875 72.9062
L8.29688 -9.28125
L0 -9.28125
z
" id="DejaVuSans-2f"/>
     <path d="
M30.6094 48.3906
Q23.3906 48.3906 19.1875 42.75
Q14.9844 37.1094 14.9844 27.2969
Q14.9844 17.4844 19.1562 11.8438
Q23.3438 6.20312 30.6094 6.20312
Q37.7969 6.20312 41.9844 11.8594
Q46.1875 17.5312 46.1875 27.2969
Q46.1875 37.0156 41.9844 42.7031
Q37.7969 48.3906 30.6094 48.3906
M30.6094 56
Q42.3281 56 49.0156 48.375
Q55.7188 40.7656 55.7188 27.2969
Q55.7188 13.875 49.0156 6.21875
Q42.3281 -1.42188 30.6094 -1.42188
Q18.8438 -1.42188 12.1719 6.21875
Q5.51562 13.875 5.51562 27.2969
Q5.51562 40.7656 12.1719 48.375
Q18.8438 56 30.6094 56" id="DejaVuSans-6f"/>
     <path d="
M9.42188 75.9844
L18.4062 75.9844
L18.4062 0
L9.42188 0
z
" id="DejaVuSans-6c"/>
     <path d="
M50.9844 -16.6094
L50.9844 -23.5781
L-0.984375 -23.5781
L-0.984375 -16.6094
z
" id="DejaVuSans-5f"/>
     <path d="
M45.4062 27.9844
Q45.4062 37.75 41.375 43.1094
Q37.3594 48.4844 30.0781 48.4844
Q22.8594 48.4844 18.8281 43.1094
Q14.7969 37.75 14.7969 27.9844
Q14.7969 18.2656 18.8281 12.8906
Q22.8594 7.51562 30.0781 7.51562
Q37.3594 7.51562 41.375 12.8906
Q45.4062 18.2656 45.4062 27.9844
M54.3906 6.78125
Q54.3906 -7.17188 48.1875 -13.9844
Q42 -20.7969 29.2031 -20.7969
Q24.4688 -20.7969 20.2656 -20.0938
Q16.0625 -19.3906 12.1094 -17.9219
L12.1094 -9.1875
Q16.0625 -11.3281 19.9219 -12.3438
Q23.7812 -13.375 27.7812 -13.375
Q36.625 -13.375 41.0156 -8.76562
Q45.4062 -4.15625 45.4062 5.17188
L45.4062 9.625
Q42.625 4.78125 38.2812 2.39062
Q33.9375 0 27.875 0
Q17.8281 0 11.6719 7.65625
Q5.51562 15.3281 5.51562 27.9844
Q5.51562 40.6719 11.6719 48.3281
Q17.8281 56 27.875 56
Q33.9375 56 38.2812 53.6094
Q42.625 51.2188 45.4062 46.3906
L45.4062 54.6875
L54.3906 54.6875
z
" id="DejaVuSans-67"/>
     <path d="
M45.4062 46.3906
L45.4062 75.9844
L54.3906 75.9844
L54.3906 0
L45.4062 0
L45.4062 8.20312
Q42.5781 3.32812 38.25 0.953125
Q33.9375 -1.42188 27.875 -1.42188
Q17.9688 -1.42188 11.7344 6.48438
Q5.51562 14.4062 5.51562 27.2969
Q5.51562 40.1875 11.7344 48.0938
Q17.9688 56 27.875 56
Q33.9375 56 38.25 53.625
Q42.5781 51.2656 45.4062 46.3906
M14.7969 27.2969
Q14.7969 17.3906 18.875 11.75
Q22.9531 6.10938 30.0781 6.10938
Q37.2031 6.10938 41.2969 11.75
Q45.4062 17.3906 45.4062 27.2969
Q45.4062 37.2031 41.2969 42.8438
Q37.2031 48.4844 30.0781 48.4844
Q22.9531 48.4844 18.875 42.8438
Q14.7969 37.2031 14.7969 27.2969" id="DejaVuSans-64"/>
     <path d="
M34.2812 27.4844
Q23.3906 27.4844 19.1875 25
Q14.9844 22.5156 14.9844 16.5
Q14.9844 11.7188 18.1406 8.90625
Q21.2969 6.10938 26.7031 6.10938
Q34.1875 6.10938 38.7031 11.4062
Q43.2188 16.7031 43.2188 25.4844
L43.2188 27.4844
z

M52.2031 31.2031
L52.2031 0
L43.2188 0
L43.2188 8.29688
Q40.1406 3.32812 35.5469 0.953125
Q30.9531 -1.42188 24.3125 -1.42188
Q15.9219 -1.42188 10.9531 3.29688
Q6 8.01562 6 15.9219
Q6 25.1406 12.1719 29.8281
Q18.3594 34.5156 30.6094 34.5156
L43.2188 34.5156
L43.2188 35.4062
Q43.2188 41.6094 39.1406 45
Q35.0625 48.3906 27.6875 48.3906
Q23 48.3906 18.5469 47.2656
Q14.1094 46.1406 10.0156 43.8906
L10.0156 52.2031
Q14.9375 54.1094 19.5781 55.0469
Q24.2188 56 28.6094 56
Q40.4844 56 46.3438 49.8438
Q52.2031 43.7031 52.2031 31.2031" id="DejaVuSans-61"/>
     <path d="
M44.2812 53.0781
L44.2812 44.5781
Q40.4844 46.5312 36.375 47.5
Q32.2812 48.4844 27.875 48.4844
Q21.1875 48.4844 17.8438 46.4375
Q14.5 44.3906 14.5 40.2812
Q14.5 37.1562 16.8906 35.375
Q19.2812 33.5938 26.5156 31.9844
L29.5938 31.2969
Q39.1562 29.25 43.1875 25.5156
Q47.2188 21.7812 47.2188 15.0938
Q47.2188 7.46875 41.1875 3.01562
Q35.1562 -1.42188 24.6094 -1.42188
Q20.2188 -1.42188 15.4531 -0.5625
Q10.6875 0.296875 5.42188 2
L5.42188 11.2812
Q10.4062 8.6875 15.2344 7.39062
Q20.0625 6.10938 24.8125 6.10938
Q31.1562 6.10938 34.5625 8.28125
Q37.9844 10.4531 37.9844 14.4062
Q37.9844 18.0625 35.5156 20.0156
Q33.0625 21.9688 24.7031 23.7812
L21.5781 24.5156
Q13.2344 26.2656 9.51562 29.9062
Q5.8125 33.5469 5.8125 39.8906
Q5.8125 47.6094 11.2812 51.7969
Q16.75 56 26.8125 56
Q31.7812 56 36.1719 55.2656
Q40.5781 54.5469 44.2812 53.0781" id="DejaVuSans-73"/>
     <path d="
M41.1094 46.2969
Q39.5938 47.1719 37.8125 47.5781
Q36.0312 48 33.8906 48
Q26.2656 48 22.1875 43.0469
Q18.1094 38.0938 18.1094 28.8125
L18.1094 0
L9.07812 0
L9.07812 54.6875
L18.1094 54.6875
L18.1094 46.1875
Q20.9531 51.1719 25.4844 53.5781
Q30.0312 56 36.5312 56
Q37.4531 56 38.5781 55.875
Q39.7031 55.7656 41.0625 55.5156
z
" id="DejaVuSans-72"/>
    </defs>
    <g transform="translate(171.043 18.14175)scale(0.144 -0.144)">
     <use xlink:href="#DejaVuSans-2f"/>
     <use x="33.69140625" xlink:href="#DejaVuSans-61"/>
     <use x="94.970703125" xlink:href="#DejaVuSans-67"/>
     <use x="158.447265625" xlink:href="#DejaVuSans-61"/>
     <use x="219.7265625" xlink:href="#DejaVuSans-73"/>
     <use x="271.826171875" xlink:href="#DejaVuSans-2f"/>
     <use x="305.517578125" xlink:href="#DejaVuSans-74"/>
     <use x="344.7265625" xlink:href="#DejaVuSans-69"/>
     <use x="372.509765625" xlink:href="#DejaVuSans-6d"/>
     <use x="469.921875" xlink:href="#DejaVuSans-65"/>
     <use x="531.4453125" xlink:href="#DejaVuSans-2f"/>
     <use x="565.13671875" xlink:href="#DejaVuSans-72"/>
     <use x="604.0" xlink:href="#DejaVuSans-65"/>
     <use x="665.5234375" xlink:href="#DejaVuSans-73"/>
     <use x="717.623046875" xlink:href="#DejaVuSans-6f"/>
     <use x="778.8046875" xlink:href="#DejaVuSans-6c"/>
     <use x="806.587890625" xlink:href="#DejaVuSans-76"/>
     <use x="865.767578125" xlink:href="#DejaVuSans-65"/>
     <use x="927.291015625" xlink:href="#DejaVuSans-5f"/>
     <use x="977.291015625" xlink:href="#DejaVuSans-67"/>
     <use x="1040.76757812" xlink:href="#DejaVuSans-69"/>
     <use x="1068.55078125" xlink:href="#DejaVuSans-64"/>
    </g>
   </g>
   <g id="legend_1">
    <g id="patch_7">
     <path d="
M482.296 367.194
L614.085 367.194
L614.085 24.6897
L482.296 24.6897
z
" style="fill:#ffffff;stroke:#000000;stroke-linejoin:miter;"/>
    </g>
    <g id="line2d_41">
     <path d="
M492.376 36.3515
L512.536 36.3515" style="fill:none;stroke:#0000ff;stroke-linecap:square;"/>
    </g>
    <g id="line2d_42"/>
    <g id="text_16">
     <!-- locality#0 -->
     <defs>
      <path d="
M51.125 44
L36.9219 44
L32.8125 27.6875
L47.125 27.6875
z

M43.7969 71.7812
L38.7188 51.5156
L52.9844 51.5156
L58.1094 71.7812
L65.9219 71.7812
L60.8906 51.5156
L76.125 51.5156
L76.125 44
L58.9844 44
L54.9844 27.6875
L70.5156 27.6875
L70.5156 20.2188
L53.0781 20.2188
L48 0
L40.1875 0
L45.2188 20.2188
L30.9062 20.2188
L25.875 0
L18.0156 0
L23.0938 20.2188
L7.71875 20.2188
L7.71875 27.6875
L24.9062 27.6875
L29 44
L13.2812 44
L13.2812 51.5156
L30.9062 51.5156
L35.8906 71.7812
z
" id="DejaVuSans-23"/>
      <path d="
M32.1719 -5.07812
Q28.375 -14.8438 24.75 -17.8125
Q21.1406 -20.7969 15.0938 -20.7969
L7.90625 -20.7969
L7.90625 -13.2812
L13.1875 -13.2812
Q16.8906 -13.2812 18.9375 -11.5156
Q21 -9.76562 23.4844 -3.21875
L25.0938 0.875
L2.98438 54.6875
L12.5 54.6875
L29.5938 11.9219
L46.6875 54.6875
L56.2031 54.6875
z
" id="DejaVuSans-79"/>
      <path d="
M48.7812 52.5938
L48.7812 44.1875
Q44.9688 46.2969 41.1406 47.3438
Q37.3125 48.3906 33.4062 48.3906
Q24.6562 48.3906 19.8125 42.8438
Q14.9844 37.3125 14.9844 27.2969
Q14.9844 17.2812 19.8125 11.7344
Q24.6562 6.20312 33.4062 6.20312
Q37.3125 6.20312 41.1406 7.25
Q44.9688 8.29688 48.7812 10.4062
L48.7812 2.09375
Q45.0156 0.34375 40.9844 -0.53125
Q36.9688 -1.42188 32.4219 -1.42188
Q20.0625 -1.42188 12.7812 6.34375
Q5.51562 14.1094 5.51562 27.2969
Q5.51562 40.6719 12.8594 48.3281
Q20.2188 56 33.0156 56
Q37.1562 56 41.1094 55.1406
Q45.0625 54.2969 48.7812 52.5938" id="DejaVuSans-63"/>
     </defs>
     <g transform="translate(528.375625 41.3915)scale(0.144 -0.144)">
      <use xlink:href="#DejaVuSans-6c"/>
      <use x="27.783203125" xlink:href="#DejaVuSans-6f"/>
      <use x="88.96484375" xlink:href="#DejaVuSans-63"/>
      <use x="143.9453125" xlink:href="#DejaVuSans-61"/>
      <use x="205.224609375" xlink:href="#DejaVuSans-6c"/>
      <use x="233.0078125" xlink:href="#DejaVuSans-69"/>
      <use x="260.791015625" xlink:href="#DejaVuSans-74"/>
      <use x="300.0" xlink:href="#DejaVuSans-79"/>
      <use x="359.1796875" xlink:href="#DejaVuSans-23"/>
      <use x="442.96875" xlink:href="#DejaVuSans-30"/>
     </g>
    </g>
    <g id="line2d_43">
     <path d="
M492.376 57.488
L512.536 57.488" style="fill:none;stroke:#008000;stroke-linecap:square;"/>
    </g>
    <g id="line2d_44"/>
    <g id="text_17">
     <!-- locality#1 -->
     <g transform="translate(528.375625 62.528)scale(0.144 -0.144)">
      <use xlink:href="#DejaVuSans-6c"/>
      <use x="27.783203125" xlink:href="#DejaVuSans-6f"/>
      <use x="88.96484375" xlink:href="#DejaVuSans-63"/>
      <use x="143.9453125" xlink:href="#DejaVuSans-61"/>
      <use x="205.224609375" xlink:href="#DejaVuSans-6c"/>
      <use x="233.0078125" xlink:href="#DejaVuSans-69"/>
      <use x="260.791015625" xlink:href="#DejaVuSans-74"/>
      <use x="300.0" xlink:href="#DejaVuSans-79"/>
      <use x="359.1796875" xlink:href="#DejaVuSans-23"/>
      <use x="442.96875" xlink:href="#DejaVuSans-31"/>
     </g>
    </g>
    <g id="line2d_45">
     <path d="
M492.376 78.6245
L512.536 78.6245" style="fill:none;stroke:#ff0000;stroke-linecap:square;"/>
    </g>
    <g id="line2d_46"/>
    <g id="text_18">
     <!-- locality#10 -->
     <g transform="translate(528.375625 83.6645)scale(0.144 -0.144)">
      <use xlink:href="#DejaVuSans-6c"/>
      <use x="27.783203125" xlink:href="#DejaVuSans-6f"/>
      <use x="88.96484375" xlink:href="#DejaVuSans-63"/>
      <use x="143.9453125" xlink:href="#DejaVuSans-61"/>
      <use x="205.224609375" xlink:href="#DejaVuSans-6c"/>
      <use x="233.0078125" xlink:href="#DejaVuSans-69"/>
      <use x="260.791015625" xlink:href="#DejaVuSans-74"/>
      <use x="300.0" xlink:href="#DejaVuSans-79"/>
      <use x="359.1796875" xlink:href="#DejaVuSans-23"/>
      <use x="442.96875" xlink:href="#DejaVuSans-31"/>
      <use x="506.591796875" xlink:href="#DejaVuSans-30"/>
     </g>
    </g>
    <g id="line2d_47">
     <path d="
M492.376 99.761
L512.536 99.761" style="fill:none;stroke:#00bfbf;stroke-linecap:square;"/>
    </g>
    <g id="line2d_48"/>
    <g id="text_19">
     <!-- locality#11 -->
     <g transform="translate(528.375625 104.801)scale(0.144 -0.144)">
      <use xlink:href="#DejaVuSans-6c"/>
      <use x="27.783203125" xlink:href="#DejaVuSans-6f"/>
      <use x="88.96484375" xlink:href="#DejaVuSans-63"/>
      <use x="143.9453125" xlink:href="#DejaVuSans-61"/>
      <use x="205.224609375" xlink:href="#DejaVuSans-6c"/>
      <use x="233.0078125" xlink:href="#DejaVuSans-69"/>
      <use x="260.791015625" xlink:href="#DejaVuSans-74"/>
      <use x="300.0" xlink:href="#DejaVuSans-79"/>
      <use x="359.1796875" xlink:href="#DejaVuSans-23"/>
      <use x="442.96875" xlink:href="#DejaVuSans-31"/>
      <use x="506.591796875" xlink:href="#DejaVuSans-31"/>
     </g>
    </g>
    <g id="line2d_49">
     <path d="
M492.376 120.897
L512.536 120.897" style="fill:none;stroke:#bf00bf;stroke-linecap:square;"/>
    </g>
    <g id="line2d_50"/>
    <g id="text_20">
     <!-- locality#12 -->
     <g transform="translate(528.375625 125.9375)scale(0.144 -0.144)">
      <use xlink:href="#DejaVuSans-6c"/>
      <use x="27.783203125" xlink:href="#DejaVuSans-6f"/>
      <use x="88.96484375" xlink:href="#DejaVuSans-63"/>
      <use x="143.9453125" xlink:href="#DejaVuSans-61"/>
      <use x="205.224609375" xlink:href="#DejaVuSans-6c"/>
      <use x="233.0078125" xlink:href="#DejaVuSans-69"/>
      <use x="260.791015625" xlink:href="#DejaVuSans-74"/>
      <use x="300.0" xlink:href="#DejaVuSans-79"/>
      <use x="359.1796875" xlink:href="#DejaVuSans-23"/>
      <use x="442.96875" xlink:href="#DejaVuSans-31"/>
      <use x="506.591796875" xlink:href="#DejaVuSans-32"/>
     </g>
    </g>
    <g id="line2d_51">
     <path d="
M492.376 142.034
L512.536 142.034" style="fill:none;stroke:#bfbf00;stroke-linecap:square;"/>
    </g>
    <g id="line2d_52"/>
    <g id="text_21">
     <!-- locality#13 -->
     <g transform="translate(528.375625 147.074)scale(0.144 -0.144)">
      <use xlink:href="#DejaVuSans-6c"/>
      <use x="27.783203125" xlink:href="#DejaVuSans-6f"/>
      <use x="88.96484375" xlink:href="#DejaVuSans-63"/>
      <use x="143.9453125" xlink:href="#DejaVuSans-61"/>
      <use x="205.224609375" xlink:href="#DejaVuSans-6c"/>
      <use x="233.0078125" xlink:href="#DejaVuSans-69"/>
      <use x="260.791015625" xlink:href="#DejaVuSans-74"/>
      <use x="300.0" xlink:href="#DejaVuSans-79"/>
      <use x="359.1796875" xlink:href="#DejaVuSans-23"/>
      <use x="442.96875" xlink:href="#DejaVuSans-31"/>
      <use x="506.591796875" xlink:href="#DejaVuSans-33"/>
     </g>
    </g>
    <g id="line2d_53">
     <path d="
M492.376 163.17
L512.536 163.17" style="fill:none;stroke:#000000;stroke-linecap:square;"/>
    </g>
    <g id="line2d_54"/>
    <g id="text_22">
     <!-- locality#14 -->
     <g transform="translate(528.375625 168.2105)scale(0.144 -0.144)">
      <use xlink:href="#DejaVuSans-6c"/>
      <use x="27.783203125" xlink:href="#DejaVuSans-6f"/>
      <use x="88.96484375" xlink:href="#DejaVuSans-63"/>
      <use x="143.9453125" xlink:href="#DejaVuSans-61"/>
      <use x="205.224609375" xlink:href="#DejaVuSans-6c"/>
      <use x="233.0078125" xlink:href="#DejaVuSans-69"/>
      <use x="260.791015625" xlink:href="#DejaVuSans-74"/>
      <use x="300.0" xlink:href="#DejaVuSans-79"/>
      <use x="359.1796875" xlink:href="#DejaVuSans-23"/>
      <use x="442.96875" xlink:href="#DejaVuSans-31"/>
      <use x="506.591796875" xlink:href="#DejaVuSans-34"/>
     </g>
    </g>
    <g id="line2d_55">
     <path d="
M492.376 184.307
L512.536 184.307" style="fill:none;stroke:#0000ff;stroke-linecap:square;"/>
    </g>
    <g id="line2d_56"/>
    <g id="text_23">
     <!-- locality#15 -->
     <g transform="translate(528.375625 189.347)scale(0.144 -0.144)">
      <use xlink:href="#DejaVuSans-6c"/>
      <use x="27.783203125" xlink:href="#DejaVuSans-6f"/>
      <use x="88.96484375" xlink:href="#DejaVuSans-63"/>
      <use x="143.9453125" xlink:href="#DejaVuSans-61"/>
      <use x="205.224609375" xlink:href="#DejaVuSans-6c"/>
      <use x="233.0078125" xlink:href="#DejaVuSans-69"/>
      <use x="260.791015625" xlink:href="#DejaVuSans-74"/>
      <use x="300.0" xlink:href="#DejaVuSans-79"/>
      <use x="359.1796875" xlink:href="#DejaVuSans-23"/>
      <use x="442.96875" xlink:href="#DejaVuSans-31"/>
      <use x="506.591796875" xlink:href="#DejaVuSans-35"/>
     </g>
    </g>
    <g id="line2d_57">
     <path d="
M492.376 205.443
L512.536 205.443" style="fill:none;stroke:#008000;stroke-linecap:square;"/>
    </g>
    <g id="line2d_58"/>
    <g id="text_24">
     <!-- locality#2 -->
     <g transform="translate(528.375625 210.4835)scale(0.144 -0.144)">
      <use xlink:href="#DejaVuSans-6c"/>
      <use x="27.783203125" xlink:href="#DejaVuSans-6f"/>
      <use x="88.96484375" xlink:href="#DejaVuSans-63"/>
      <use x="143.9453125" xlink:href="#DejaVuSans-61"/>
      <use x="205.224609375" xlink:href="#DejaVuSans-6c"/>
      <use x="233.0078125" xlink:href="#DejaVuSans-69"/>
      <use x="260.791015625" xlink:href="#DejaVuSans-74"/>
      <use x="300.0" xlink:href="#DejaVuSans-79"/>
      <use x="359.1796875" xlink:href="#DejaVuSans-23"/>
      <use x="442.96875" xlink:href="#DejaVuSans-32"/>
     </g>
    </g>
    <g id="line2d_59">
     <path d="
M492.376 226.58
L512.536 226.58" style="fill:none;stroke:#ff0000;stroke-linecap:square;"/>
    </g>
    <g id="line2d_60"/>
    <g id="text_25">
     <!-- locality#3 -->
     <g transform="translate(528.375625 231.62)scale(0.144 -0.144)">
      <use xlink:href="#DejaVuSans-6c"/>
      <use x="27.783203125" xlink:href="#DejaVuSans-6f"/>
      <use x="88.96484375" xlink:href="#DejaVuSans-63"/>
      <use x="143.9453125" xlink:href="#DejaVuSans-61"/>
      <use x="205.224609375" xlink:href="#DejaVuSans-6c"/>
      <use x="233.0078125" xlink:href="#DejaVuSans-69"/>
      <use x="260.791015625" xlink:href="#DejaVuSans-74"/>
      <use x="300.0" xlink:href="#DejaVuSans-79"/>
      <use x="359.1796875" xlink:href="#DejaVuSans-23"/>
      <use x="442.96875" xlink:href="#DejaVuSans-33"/>
     </g>
    </g>
    <g id="line2d_61">
     <path d="
M492.376 247.716
L512.536 247.716" style="fill:none;stroke:#00bfbf;stroke-linecap:square;"/>
    </g>
    <g id="line2d_62"/>
    <g id="text_26">
     <!-- locality#4 -->
     <g transform="translate(528.375625 252.7565)scale(0.144 -0.144)">
      <use xlink:href="#DejaVuSans-6c"/>
      <use x="27.783203125" xlink:href="#DejaVuSans-6f"/>
      <use x="88.96484375" xlink:href="#DejaVuSans-63"/>
      <use x="143.9453125" xlink:href="#DejaVuSans-61"/>
      <use x="205.224609375" xlink:href="#DejaVuSans-6c"/>
      <use x="233.0078125" xlink:href="#DejaVuSans-69"/>
      <use x="260.791015625" xlink:href="#DejaVuSans-74"/>
      <use x="300.0" xlink:href="#DejaVuSans-79"/>
      <use x="359.1796875" xlink:href="#DejaVuSans-23"/>
      <use x="442.96875" xlink:href="#DejaVuSans-34"/>
     </g>
    </g>
    <g id="line2d_63">
     <path d="
M492.376 268.853
L512.536 268.853" style="fill:none;stroke:#bf00bf;stroke-linecap:square;"/>
    </g>
    <g id="line2d_64"/>
    <g id="text_27">
     <!-- locality#5 -->
     <g transform="translate(528.375625 273.893)scale(0.144 -0.144)">
      <use xlink:href="#DejaVuSans-6c"/>
      <use x="27.783203125" xlink:href="#DejaVuSans-6f"/>
      <use x="88.96484375" xlink:href="#DejaVuSans-63"/>
      <use x="143.9453125" xlink:href="#DejaVuSans-61"/>
      <use x="205.224609375" xlink:href="#DejaVuSans-6c"/>
      <use x="233.0078125" xlink:href="#DejaVuSans-69"/>
      <use x="260.791015625" xlink:href="#DejaVuSans-74"/>
      <use x="300.0" xlink:href="#DejaVuSans-79"/>
      <use x="359.1796875" xlink:href="#DejaVuSans-23"/>
      <use x="442.96875" xlink:href="#DejaVuSans-35"/>
     </g>
    </g>
    <g id="line2d_65">
     <path d="
M492.376 289.989
L512.536 289.989" style="fill:none;stroke:#bfbf00;stroke-linecap:square;"/>
    </g>
    <g id="line2d_66"/>
    <g id="text_28">
     <!-- locality#6 -->
     <defs>
      <path d="
M33.0156 40.375
Q26.375 40.375 22.4844 35.8281
Q18.6094 31.2969 18.6094 23.3906
Q18.6094 15.5312 22.4844 10.9531
Q26.375 6.39062 33.0156 6.39062
Q39.6562 6.39062 43.5312 10.9531
Q47.4062 15.5312 47.4062 23.3906
Q47.4062 31.2969 43.5312 35.8281
Q39.6562 40.375 33.0156 40.375
M52.5938 71.2969
L52.5938 62.3125
Q48.875 64.0625 45.0938 64.9844
Q41.3125 65.9219 37.5938 65.9219
Q27.8281 65.9219 22.6719 59.3281
Q17.5312 52.7344 16.7969 39.4062
Q19.6719 43.6562 24.0156 45.9219
Q28.375 48.1875 33.5938 48.1875
Q44.5781 48.1875 50.9531 41.5156
Q57.3281 34.8594 57.3281 23.3906
Q57.3281 12.1562 50.6875 5.35938
Q44.0469 -1.42188 33.0156 -1.42188
Q20.3594 -1.42188 13.6719 8.26562
Q6.98438 17.9688 6.98438 36.375
Q6.98438 53.6562 15.1875 63.9375
Q23.3906 74.2188 37.2031 74.2188
Q40.9219 74.2188 44.7031 73.4844
Q48.4844 72.75 52.5938 71.2969" id="DejaVuSans-36"/>
     </defs>
     <g transform="translate(528.375625 295.0295)scale(0.144 -0.144)">
      <use xlink:href="#DejaVuSans-6c"/>
      <use x="27.783203125" xlink:href="#DejaVuSans-6f"/>
      <use x="88.96484375" xlink:href="#DejaVuSans-63"/>
      <use x="143.9453125" xlink:href="#DejaVuSans-61"/>
      <use x="205.224609375" xlink:href="#DejaVuSans-6c"/>
      <use x="233.0078125" xlink:href="#DejaVuSans-69"/>
      <use x="260.791015625" xlink:href="#DejaVuSans-74"/>
      <use x="300.0" xlink:href="#DejaVuSans-79"/>
      <use x="359.1796875" xlink:href="#DejaVuSans-23"/>
      <use x="442.96875" xlink:href="#DejaVuSans-36"/>
     </g>
    </g>
    <g id="line2d_67">
     <path d="
M492.376 311.126
L512.536 311.126" style="fill:none;stroke:#000000;stroke-linecap:square;"/>
    </g>
    <g id="line2d_68"/>
    <g id="text_29">
     <!-- locality#7 -->
     <defs>
      <path d="
M8.20312 72.9062
L55.0781 72.9062
L55.0781 68.7031
L28.6094 0
L18.3125 0
L43.2188 64.5938
L8.20312 64.5938
z
" id="DejaVuSans-37"/>
     </defs>
     <g transform="translate(528.375625 316.166)scale(0.144 -0.144)">
      <use xlink:href="#DejaVuSans-6c"/>
      <use x="27.783203125" xlink:href="#DejaVuSans-6f"/>
      <use x="88.96484375" xlink:href="#DejaVuSans-63"/>
      <use x="143.9453125" xlink:href="#DejaVuSans-61"/>
      <use x="205.224609375" xlink:href="#DejaVuSans-6c"/>
      <use x="233.0078125" xlink:href="#DejaVuSans-69"/>
      <use x="260.791015625" xlink:href="#DejaVuSans-74"/>
      <use x="300.0" xlink:href="#DejaVuSans-79"/>
      <use x="359.1796875" xlink:href="#DejaVuSans-23"/>
      <use x="442.96875" xlink:href="#DejaVuSans-37"/>
     </g>
    </g>
    <g id="line2d_69">
     <path d="
M492.376 332.262
L512.536 332.262" style="fill:none;stroke:#0000ff;stroke-linecap:square;"/>
    </g>
    <g id="line2d_70"/>
    <g id="text_30">
     <!-- locality#8 -->
     <defs>
      <path d="
M31.7812 34.625
Q24.75 34.625 20.7188 30.8594
Q16.7031 27.0938 16.7031 20.5156
Q16.7031 13.9219 20.7188 10.1562
Q24.75 6.39062 31.7812 6.39062
Q38.8125 6.39062 42.8594 10.1719
Q46.9219 13.9688 46.9219 20.5156
Q46.9219 27.0938 42.8906 30.8594
Q38.875 34.625 31.7812 34.625
M21.9219 38.8125
Q15.5781 40.375 12.0312 44.7188
Q8.5 49.0781 8.5 55.3281
Q8.5 64.0625 14.7188 69.1406
Q20.9531 74.2188 31.7812 74.2188
Q42.6719 74.2188 48.875 69.1406
Q55.0781 64.0625 55.0781 55.3281
Q55.0781 49.0781 51.5312 44.7188
Q48 40.375 41.7031 38.8125
Q48.8281 37.1562 52.7969 32.3125
Q56.7812 27.4844 56.7812 20.5156
Q56.7812 9.90625 50.3125 4.23438
Q43.8438 -1.42188 31.7812 -1.42188
Q19.7344 -1.42188 13.25 4.23438
Q6.78125 9.90625 6.78125 20.5156
Q6.78125 27.4844 10.7812 32.3125
Q14.7969 37.1562 21.9219 38.8125
M18.3125 54.3906
Q18.3125 48.7344 21.8438 45.5625
Q25.3906 42.3906 31.7812 42.3906
Q38.1406 42.3906 41.7188 45.5625
Q45.3125 48.7344 45.3125 54.3906
Q45.3125 60.0625 41.7188 63.2344
Q38.1406 66.4062 31.7812 66.4062
Q25.3906 66.4062 21.8438 63.2344
Q18.3125 60.0625 18.3125 54.3906" id="DejaVuSans-38"/>
     </defs>
     <g transform="translate(528.375625 337.3025)scale(0.144 -0.144)">
      <use xlink:href="#DejaVuSans-6c"/>
      <use x="27.783203125" xlink:href="#DejaVuSans-6f"/>
      <use x="88.96484375" xlink:href="#DejaVuSans-63"/>
      <use x="143.9453125" xlink:href="#DejaVuSans-61"/>
      <use x="205.224609375" xlink:href="#DejaVuSans-6c"/>
      <use x="233.0078125" xlink:href="#DejaVuSans-69"/>
      <use x="260.791015625" xlink:href="#DejaVuSans-74"/>
      <use x="300.0" xlink:href="#DejaVuSans-79"/>
      <use x="359.1796875" xlink:href="#DejaVuSans-23"/>
      <use x="442.96875" xlink:href="#DejaVuSans-38"/>
     </g>
    </g>
    <g id="line2d_71">
     <path d="
M492.376 353.399
L512.536 353.399" style="fill:none;stroke:#008000;stroke-linecap:square;"/>
    </g>
    <g id="line2d_72"/>
    <g id="text_31">
     <!-- locality#9 -->
     <defs>
      <path d="
M10.9844 1.51562
L10.9844 10.5
Q14.7031 8.73438 18.5 7.8125
Q22.3125 6.89062 25.9844 6.89062
Q35.75 6.89062 40.8906 13.4531
Q46.0469 20.0156 46.7812 33.4062
Q43.9531 29.2031 39.5938 26.9531
Q35.25 24.7031 29.9844 24.7031
Q19.0469 24.7031 12.6719 31.3125
Q6.29688 37.9375 6.29688 49.4219
Q6.29688 60.6406 12.9375 67.4219
Q19.5781 74.2188 30.6094 74.2188
Q43.2656 74.2188 49.9219 64.5156
Q56.5938 54.8281 56.5938 36.375
Q56.5938 19.1406 48.4062 8.85938
Q40.2344 -1.42188 26.4219 -1.42188
Q22.7031 -1.42188 18.8906 -0.6875
Q15.0938 0.046875 10.9844 1.51562
M30.6094 32.4219
Q37.25 32.4219 41.125 36.9531
Q45.0156 41.5 45.0156 49.4219
Q45.0156 57.2812 41.125 61.8438
Q37.25 66.4062 30.6094 66.4062
Q23.9688 66.4062 20.0938 61.8438
Q16.2188 57.2812 16.2188 49.4219
Q16.2188 41.5 20.0938 36.9531
Q23.9688 32.4219 30.6094 32.4219" id="DejaVuSans-39"/>
     </defs>
     <g transform="translate(528.375625 358.439)scale(0.144 -0.144)">
      <use xlink:href="#DejaVuSans-6c"/>
      <use x="27.783203125" xlink:href="#DejaVuSans-6f"/>
      <use x="88.96484375" xlink:href="#DejaVuSans-63"/>
      <use x="143.9453125" xlink:href="#DejaVuSans-61"/>
      <use x="205.224609375" xlink:href="#DejaVuSans-6c"/>
      <use x="233.0078125" xlink:href="#DejaVuSans-69"/>
      <use x="260.791015625" xlink:href="#DejaVuSans-74"/>
      <use x="300.0" xlink:href="#DejaVuSans-79"/>
      <use x="359.1796875" xlink:href="#DejaVuSans-23"/>
      <use x="442.96875" xlink:href="#DejaVuSans-39"/>
     </g>
    </g>
   </g>
  </g>
 </g>
 <defs>
  <clipPath id="p2118423672">
   <rect height="345.6" width="446.4" x="28.695625" y="23.14175"/>
  </clipPath>
 </defs>
</svg>
