<?xml version="1.0" encoding="utf-8" standalone="no"?>
<!DOCTYPE svg PUBLIC "-//W3C//DTD SVG 1.1//EN"
  "http://www.w3.org/Graphics/SVG/1.1/DTD/svg11.dtd">
<!-- Created with matplotlib (http://matplotlib.org/) -->
<svg height="408pt" version="1.1" viewBox="0 0 610 408" width="610pt" xmlns="http://www.w3.org/2000/svg" xmlns:xlink="http://www.w3.org/1999/xlink">
 <defs>
  <style type="text/css">
*{stroke-linecap:butt;stroke-linejoin:round;}
  </style>
 </defs>
 <g id="figure_1">
  <g id="patch_1">
   <path d="
M0 408.169
L610.164 408.169
L610.164 0
L0 0
z
" style="fill:#ffffff;"/>
  </g>
  <g id="axes_1">
   <g id="patch_2">
    <path d="
M17.575 368.742
L463.975 368.742
L463.975 23.1417
L17.575 23.1417
z
" style="fill:#ffffff;"/>
   </g>
   <g id="line2d_1">
    <path clip-path="url(#pf51f381abf)" d="
M17.575 368.288
L18.4696 367.726
L19.3642 367.241
L36.3614 358.49
L59.6207 346.445
L61.4099 345.448
L65.8828 343.063
L68.5666 341.509
L70.3558 340.5
L74.8287 337.85
L77.5125 336.381
L81.0908 334.282
L82.88 333.269
L86.4584 331.167
L89.1421 329.61
L93.6151 326.959
L95.4043 325.951
L98.088 324.396
L101.666 322.291
L106.139 319.641
L107.929 318.596
L115.98 313.877
L118.664 312.235
L120.453 311.217
L124.926 308.553
L138.345 300.755
L141.028 299.135
L147.29 295.404
L149.08 294.394
L151.763 292.839
L155.342 290.734
L161.604 286.988
L163.393 285.98
L170.55 281.849
L183.969 273.905
L186.652 272.437
L192.914 268.692
L194.704 267.646
L234.066 244.363
L235.855 243.355
L239.433 241.251
L243.906 238.688
L248.379 236.06
L251.957 234.022
L257.325 230.897
L262.692 227.754
L270.744 223.134
L274.322 220.942
L277.006 219.386
L281.479 216.645
L283.268 215.638
L288.636 212.437
L290.425 211.43
L293.108 209.874
L297.581 207.28
L302.949 204.113
L304.738 203.103
L311 199.356
L313.684 197.864
L327.103 190.117
L329.787 188.64
L336.943 184.35
L339.627 182.882
L342.311 181.328
L344.995 179.859
L348.573 177.758
L350.362 176.748
L354.835 174.099
L356.624 173.09
L360.203 170.986
L368.254 166.142
L370.043 165.115
L392.408 151.965
L395.092 150.497
L398.67 148.394
L401.354 146.926
L404.038 145.372
L406.721 143.905
L413.878 139.608
L415.667 138.571
L432.664 128.63
L437.137 126.127
L442.505 122.96
L444.294 121.947
L448.767 119.296
L451.451 117.829
L456.818 114.631
L459.502 113.163
L463.975 110.422
L463.975 110.422" style="fill:none;stroke:#0000ff;stroke-linecap:square;"/>
   </g>
   <g id="line2d_2">
    <path clip-path="url(#pf51f381abf)" d="
M17.575 368.72
L32.783 362.987
L58.7261 353.131
L62.3045 351.701
L65.8828 350.27
L69.4612 348.711
L73.9341 346.74
L76.6179 345.564
L79.3017 344.436
L89.1421 340.102
L93.6151 338.086
L95.4043 337.33
L98.9826 335.746
L101.666 334.557
L106.139 332.542
L107.034 332.205
L107.929 331.717
L110.612 330.559
L114.191 328.958
L129.399 322.126
L130.293 321.788
L132.082 320.95
L135.661 319.364
L137.45 318.598
L154.447 310.972
L156.236 310.198
L161.604 307.763
L163.393 307.006
L168.761 304.693
L171.444 303.477
L176.812 301.063
L178.601 300.286
L183.969 297.852
L186.652 296.75
L199.177 291.069
L202.755 289.535
L210.806 285.858
L212.595 285.042
L216.174 283.406
L218.858 282.313
L227.803 278.199
L232.276 276.266
L237.644 273.856
L248.379 269.131
L251.063 268.032
L254.641 266.437
L256.43 265.68
L258.219 264.808
L272.533 258.54
L275.217 257.304
L277.006 256.525
L279.69 255.206
L283.268 253.67
L287.741 251.576
L290.425 250.478
L294.003 248.895
L296.687 247.788
L298.476 246.891
L302.054 245.353
L308.316 242.499
L310.106 241.742
L313.684 240.168
L317.262 238.633
L319.946 237.459
L321.735 236.7
L325.314 235.119
L328.892 233.592
L330.681 232.834
L332.47 231.995
L336.943 229.979
L339.627 228.885
L342.311 227.709
L344.995 226.615
L348.573 225.019
L350.362 224.263
L354.835 222.248
L356.624 221.491
L359.308 220.232
L361.097 219.475
L365.57 217.459
L366.465 216.973
L369.149 215.864
L370.938 215.025
L378.094 211.773
L390.619 206.206
L393.302 205.112
L396.881 203.535
L401.354 201.666
L404.038 200.49
L406.721 199.395
L413.878 196.121
L416.562 194.903
L422.824 192.09
L424.613 191.333
L429.086 189.325
L431.77 188.225
L435.348 186.636
L437.137 185.892
L439.821 184.696
L441.61 183.94
L446.083 181.966
L455.924 177.638
L458.607 176.462
L460.397 175.705
L463.975 174.027
L463.975 174.027" style="fill:none;stroke:#008000;stroke-linecap:square;"/>
   </g>
   <g id="line2d_3">
    <path clip-path="url(#pf51f381abf)" d="
M17.575 368.719
L28.3101 361.76
L56.0423 343.845
L57.8315 342.547
L59.6207 341.322
L61.4099 340.094
L64.9882 337.781
L68.5666 335.042
L73.0395 331.725
L75.7233 329.706
L78.4071 327.688
L82.88 324.37
L85.5638 322.351
L90.0367 318.894
L107.034 306.057
L107.929 305.237
L109.718 303.897
L114.191 300.497
L124.926 292.13
L128.504 289.478
L132.977 286.018
L138.345 282.015
L140.134 280.68
L141.923 279.166
L143.712 277.798
L147.29 275.061
L148.185 274.482
L150.869 272.357
L152.658 271.058
L161.604 264.104
L162.498 263.524
L164.288 262.123
L166.971 260.207
L172.339 256.029
L173.234 255.449
L175.023 253.938
L178.601 251.269
L182.179 248.39
L183.074 247.809
L185.758 245.791
L187.547 244.49
L192.914 240.313
L193.809 239.733
L195.598 238.209
L201.86 233.468
L204.544 231.414
L210.806 226.518
L211.701 225.892
L214.385 223.623
L217.068 221.713
L223.331 216.813
L226.014 214.791
L230.487 211.333
L245.695 199.798
L246.59 199.219
L248.379 197.796
L251.063 195.901
L253.747 193.883
L260.903 188.265
L262.692 187.001
L265.376 185.088
L268.06 183.069
L277.9 175.368
L280.584 173.269
L286.846 168.369
L288.636 167.07
L290.425 165.771
L293.108 163.754
L315.473 146.742
L316.368 146.163
L319.052 144.144
L322.63 141.405
L323.524 140.826
L326.208 138.808
L328.892 136.795
L330.681 135.489
L331.576 134.695
L333.365 133.328
L336.049 131.31
L337.838 130.012
L339.627 128.712
L340.522 127.992
L341.416 127.415
L344.1 125.399
L344.995 124.818
L347.678 122.801
L352.151 119.341
L353.046 118.762
L359.308 113.862
L360.203 113.284
L368.254 106.942
L369.149 106.363
L370.043 105.556
L371.832 104.201
L376.305 100.744
L387.935 91.9467
L388.83 91.1409
L393.302 87.9101
L395.986 85.8935
L400.459 82.5757
L401.354 81.9969
L404.038 79.9785
L404.932 79.3997
L410.3 75.2191
L413.878 72.4796
L414.773 71.8552
L417.456 69.6739
L422.824 65.5601
L423.718 64.9807
L427.297 62.1444
L431.77 58.924
L434.454 56.9046
L438.032 54.2204
L441.61 51.5697
L445.189 48.8319
L447.872 46.8113
L449.662 45.513
L450.556 44.9341
L456.818 40.0353
L457.713 39.4569
L463.975 34.5569
L463.975 34.5569" style="fill:none;stroke:#ff0000;stroke-linecap:square;"/>
   </g>
   <g id="line2d_4">
    <path clip-path="url(#pf51f381abf)" d="
M17.575 368.721
L52.464 346.767
L56.0423 344.513
L57.8315 343.25
L59.6207 342.059
L61.4099 340.862
L64.9882 338.613
L68.5666 335.948
L73.0395 332.719
L76.6179 330.056
L77.5125 329.492
L81.0908 326.83
L84.6692 324.254
L101.666 311.671
L106.139 308.306
L107.034 307.742
L107.929 306.942
L110.612 305.002
L113.296 303.029
L118.664 298.905
L120.453 297.591
L124.031 294.835
L132.977 288.241
L135.661 286.309
L137.45 285.016
L166.077 263.757
L169.655 261.163
L171.444 259.761
L175.917 256.394
L180.39 253.027
L183.969 250.363
L184.863 249.799
L190.231 245.732
L192.914 243.769
L193.809 243.205
L195.598 241.719
L201.86 237.108
L204.544 235.109
L210.806 230.343
L211.701 229.736
L214.385 227.531
L217.068 225.669
L223.331 220.901
L226.014 218.935
L230.487 215.568
L245.695 204.344
L246.59 203.781
L249.274 201.816
L250.168 201.254
L254.641 197.888
L255.536 197.325
L260.903 193.12
L262.692 191.889
L265.376 190.029
L268.06 188.065
L277.9 180.568
L280.584 178.527
L286.846 173.757
L288.636 172.493
L290.425 171.23
L293.108 169.266
L315.473 152.709
L316.368 152.146
L319.052 150.182
L322.63 147.517
L323.524 146.954
L326.208 144.989
L328.892 143.03
L330.681 141.76
L332.47 140.358
L336.943 136.994
L338.733 135.832
L344.1 131.941
L344.995 131.376
L348.573 128.712
L349.468 128.147
L354.835 124.08
L355.73 123.517
L361.097 119.45
L363.781 117.485
L366.465 115.282
L369.149 113.416
L370.043 112.631
L371.832 111.312
L376.305 107.947
L398.67 91.5325
L399.565 90.9692
L402.248 89.0068
L403.143 88.4434
L405.827 86.4787
L406.721 85.9154
L412.983 81.1455
L420.14 75.677
L433.559 65.9046
L437.137 63.3742
L439.821 61.3622
L440.716 60.7995
L445.189 57.4345
L447.872 55.4686
L449.662 54.206
L450.556 53.6433
L456.818 48.8757
L457.713 48.3124
L463.975 43.5437
L463.975 43.5437" style="fill:none;stroke:#00bfbf;stroke-linecap:square;"/>
   </g>
   <g id="line2d_5">
    <path clip-path="url(#pf51f381abf)" d="
M17.575 368.72
L22.0479 366.065
L58.7261 344.108
L62.3045 341.849
L64.9882 340.253
L68.5666 337.731
L73.0395 334.677
L76.6179 332.156
L77.5125 331.623
L81.0908 329.104
L84.6692 326.669
L105.245 312.242
L109.718 309.057
L114.191 305.927
L127.609 296.358
L130.293 294.59
L131.188 293.85
L134.766 291.405
L150.869 280.023
L152.658 278.828
L161.604 272.425
L162.498 271.893
L165.182 270.035
L169.655 266.982
L171.444 265.656
L175.917 262.47
L181.285 258.622
L183.969 256.763
L184.863 256.231
L190.231 252.383
L192.914 250.525
L193.809 249.992
L195.598 248.588
L201.86 244.225
L204.544 242.335
L210.806 237.827
L211.701 237.254
L214.385 235.162
L217.068 233.406
L223.331 228.895
L226.014 227.035
L230.487 223.851
L242.117 215.753
L243.906 214.532
L248.379 211.388
L251.063 209.644
L254.641 207.124
L255.536 206.591
L261.798 202.08
L264.482 200.292
L270.744 195.972
L271.638 195.229
L273.428 193.932
L277.9 190.742
L279.69 189.385
L283.268 186.948
L287.741 183.649
L290.425 181.904
L293.108 180.045
L315.473 164.382
L316.368 163.849
L319.052 161.991
L322.63 159.47
L323.524 158.937
L327.103 156.419
L328.892 155.223
L330.681 154.024
L332.47 152.697
L336.943 149.514
L338.733 148.415
L344.1 144.732
L344.995 144.2
L348.573 141.68
L350.362 140.482
L354.835 137.297
L355.73 136.765
L361.097 132.917
L363.781 131.058
L366.465 128.973
L369.149 127.211
L370.043 126.468
L371.832 125.221
L376.305 122.037
L398.67 106.506
L399.565 105.973
L402.248 104.115
L403.143 103.582
L405.827 101.724
L406.721 101.191
L413.878 96.0167
L415.667 94.7305
L430.875 84.0998
L432.664 82.8753
L462.186 62.3771
L463.975 61.1042
L463.975 61.1042" style="fill:none;stroke:#bf00bf;stroke-linecap:square;"/>
   </g>
   <g id="line2d_6">
    <path clip-path="url(#pf51f381abf)" d="
M17.575 368.72
L23.8371 365.28
L59.6207 345.442
L62.3045 343.903
L65.8828 341.817
L68.5666 340.101
L73.9341 336.669
L76.6179 334.954
L78.4071 333.85
L82.88 331.029
L86.4584 328.702
L100.772 319.509
L106.139 315.957
L107.034 315.464
L107.929 314.763
L110.612 313.072
L113.296 311.347
L118.664 307.746
L120.453 306.599
L124.031 304.192
L140.134 293.895
L141.923 292.607
L145.501 290.281
L149.974 287.402
L164.288 278.119
L166.971 276.494
L172.339 272.941
L173.234 272.45
L175.023 271.165
L179.496 268.285
L183.969 265.345
L185.758 264.24
L187.547 263.136
L192.914 259.585
L193.809 259.092
L195.598 257.794
L205.439 251.414
L206.333 250.884
L208.122 249.658
L216.174 244.269
L218.858 242.674
L227.803 236.672
L230.487 234.955
L240.328 228.615
L243.011 226.955
L248.379 223.447
L251.063 221.84
L254.641 219.512
L256.43 218.407
L258.219 217.139
L272.533 207.991
L274.322 206.766
L277.9 204.387
L280.584 202.6
L286.846 198.435
L288.636 197.33
L290.425 196.227
L293.108 194.511
L302.949 188.14
L304.738 187.034
L311 182.87
L312.789 181.766
L327.103 172.698
L328.892 171.595
L330.681 170.488
L332.47 169.264
L336.943 166.324
L339.627 164.728
L342.311 163.012
L344.995 161.417
L348.573 159.092
L350.362 157.985
L354.835 155.045
L356.624 153.941
L358.413 152.659
L363.781 149.285
L366.465 147.357
L369.149 145.731
L370.043 145.046
L371.832 143.894
L376.305 140.954
L394.197 129.434
L395.986 128.33
L400.459 125.51
L403.143 123.916
L405.827 122.2
L407.616 121.096
L409.405 119.805
L412.983 117.543
L420.14 112.766
L435.348 103.099
L437.137 102.017
L439.821 100.262
L441.61 99.1593
L445.189 96.8317
L447.872 95.1153
L449.662 94.0116
L451.451 92.908
L456.818 89.3558
L458.607 88.2528
L460.397 87.148
L463.975 84.6983
L463.975 84.6983" style="fill:none;stroke:#bfbf00;stroke-linecap:square;"/>
   </g>
   <g id="line2d_7">
    <path clip-path="url(#pf51f381abf)" d="
M17.575 368.72
L28.3101 363.366
L56.0423 349.569
L57.8315 348.569
L64.9882 344.899
L68.5666 342.79
L73.9341 339.681
L76.6179 338.127
L78.4071 337.127
L82.88 334.572
L86.4584 332.463
L101.666 323.581
L106.139 320.918
L107.034 320.472
L107.929 319.836
L110.612 318.305
L113.296 316.742
L122.242 311.323
L130.293 306.708
L132.082 305.598
L135.661 303.509
L137.45 302.49
L164.288 286.643
L166.971 285.173
L172.339 281.955
L173.234 281.509
L175.023 280.345
L179.496 277.736
L183.969 275.072
L186.652 273.619
L192.914 269.855
L193.809 269.409
L195.598 268.231
L234.066 245.435
L235.855 244.435
L239.433 242.326
L249.274 236.663
L251.063 235.663
L254.641 233.555
L256.43 232.555
L258.219 231.405
L272.533 223.118
L274.322 222.009
L277.9 219.854
L280.584 218.236
L287.741 213.919
L290.425 212.463
L293.108 210.908
L302.949 205.136
L304.738 204.136
L311 200.363
L312.789 199.363
L327.103 191.147
L328.892 190.148
L330.681 189.146
L332.47 188.036
L336.943 185.373
L339.627 183.928
L342.311 182.373
L344.995 180.929
L348.573 178.821
L350.362 177.82
L354.835 175.156
L356.624 174.156
L358.413 172.993
L363.781 169.939
L366.465 168.192
L369.149 166.72
L370.938 165.611
L376.305 162.393
L394.197 151.957
L395.986 150.957
L400.459 148.403
L403.143 146.958
L405.827 145.405
L407.616 144.404
L409.405 143.234
L412.983 141.187
L420.14 136.859
L430.875 130.661
L432.664 129.642
L449.662 119.871
L451.451 118.871
L456.818 115.653
L458.607 114.654
L460.397 113.654
L463.975 111.434
L463.975 111.434" style="fill:none;stroke:#000000;stroke-linecap:square;"/>
   </g>
   <g id="line2d_8">
    <path clip-path="url(#pf51f381abf)" d="
M17.575 368.721
L56.0423 351.534
L57.8315 350.638
L64.9882 347.345
L68.5666 345.454
L73.9341 342.665
L76.6179 341.272
L78.4071 340.374
L82.88 338.083
L86.4584 336.191
L105.245 326.333
L109.718 323.944
L115.085 321.109
L121.347 317.722
L126.715 314.884
L138.345 308.828
L140.134 307.913
L141.923 306.864
L146.396 304.528
L150.869 302.157
L152.658 301.26
L164.288 295.09
L166.971 293.773
L172.339 290.887
L173.234 290.488
L175.023 289.442
L179.496 287.104
L183.969 284.715
L186.652 283.41
L192.914 280.035
L193.809 279.635
L195.598 278.578
L234.066 258.133
L235.855 257.236
L240.328 254.87
L243.011 253.521
L248.379 250.671
L251.063 249.367
L254.641 247.476
L256.43 246.579
L258.219 245.546
L272.533 238.115
L274.322 237.121
L278.795 234.666
L281.479 233.239
L284.163 231.833
L285.952 230.85
L288.636 229.455
L290.425 228.558
L294.003 226.686
L296.687 225.371
L298.476 224.311
L300.265 223.381
L302.949 221.988
L304.738 221.089
L311 217.705
L312.789 216.808
L322.63 211.728
L324.419 210.831
L328.892 208.543
L330.681 207.643
L332.47 206.648
L336.943 204.26
L339.627 202.963
L342.311 201.569
L344.995 200.273
L348.573 198.383
L350.362 197.484
L354.835 195.096
L356.624 194.198
L358.413 193.153
L363.781 190.415
L366.465 188.846
L369.149 187.528
L370.938 186.533
L378.094 182.682
L387.04 177.986
L387.935 177.572
L389.724 176.577
L392.408 175.183
L395.092 173.886
L398.67 171.995
L401.354 170.699
L404.038 169.305
L406.721 168.008
L413.878 164.126
L415.667 163.159
L433.559 153.803
L437.137 152.006
L439.821 150.584
L441.61 149.687
L445.189 147.796
L451.451 144.607
L456.818 141.72
L458.607 140.824
L460.397 139.926
L463.975 137.936
L463.975 137.936" style="fill:none;stroke:#0000ff;stroke-linecap:square;"/>
   </g>
   <g id="line2d_9">
    <path clip-path="url(#pf51f381abf)" d="
M17.575 368.719
L31.8884 363.429
L58.7261 353.433
L62.3045 352.03
L65.8828 350.627
L69.4612 349.098
L73.9341 347.168
L76.6179 346.016
L79.3017 344.907
L89.1421 340.659
L93.6151 338.683
L95.4043 337.941
L98.9826 336.389
L101.666 335.223
L106.139 333.247
L107.034 332.916
L107.929 332.439
L111.507 330.94
L118.664 327.73
L121.347 326.53
L127.609 323.793
L130.293 322.704
L132.082 321.881
L135.661 320.327
L137.45 319.576
L150.869 313.659
L153.553 312.516
L157.131 310.929
L159.815 309.776
L164.288 307.813
L166.971 306.727
L172.339 304.34
L173.234 304.009
L175.023 303.141
L179.496 301.21
L183.969 299.234
L186.652 298.15
L201.86 291.448
L206.333 289.514
L208.122 288.693
L216.174 285.071
L218.858 283.998
L227.803 279.965
L232.276 278.07
L237.644 275.705
L248.379 271.074
L251.063 269.996
L254.641 268.431
L256.43 267.688
L258.219 266.83
L270.744 261.51
L272.533 260.687
L275.217 259.475
L277.006 258.711
L279.69 257.417
L283.268 255.912
L287.741 253.861
L290.425 252.783
L294.003 251.231
L296.687 250.145
L298.476 249.266
L302.054 247.758
L308.316 244.959
L310.106 244.217
L313.684 242.674
L317.262 241.169
L319.946 240.02
L321.735 239.273
L325.314 237.722
L328.892 236.226
L330.681 235.482
L332.47 234.659
L336.943 232.683
L339.627 231.611
L342.311 230.457
L344.995 229.385
L348.573 227.821
L350.362 227.079
L354.835 225.103
L356.624 224.36
L359.308 223.126
L361.097 222.384
L365.57 220.408
L366.465 219.93
L369.149 218.843
L370.938 218.02
L378.094 214.832
L390.619 209.374
L393.302 208.302
L396.881 206.756
L401.354 204.923
L404.038 203.77
L406.721 202.698
L413.878 199.487
L416.562 198.291
L422.824 195.535
L424.613 194.793
L429.086 192.824
L431.77 191.744
L435.348 190.186
L437.137 189.457
L439.821 188.284
L441.61 187.542
L446.083 185.606
L460.397 179.468
L463.975 177.821
L463.975 177.821" style="fill:none;stroke:#008000;stroke-linecap:square;"/>
   </g>
   <g id="line2d_10">
    <path clip-path="url(#pf51f381abf)" d="
M17.575 368.721
L38.1506 360.753
L58.7261 352.705
L62.3045 351.235
L65.8828 349.766
L69.4612 348.165
L73.9341 346.142
L76.6179 344.935
L78.4071 344.157
L85.5638 340.963
L91.8259 338.061
L95.4043 336.477
L98.9826 334.852
L101.666 333.63
L106.139 331.562
L107.034 331.215
L107.929 330.716
L111.507 329.145
L118.664 325.785
L121.347 324.526
L127.609 321.663
L130.293 320.52
L132.082 319.658
L135.661 318.03
L137.45 317.245
L150.869 311.047
L153.553 309.852
L157.131 308.187
L159.815 306.978
L164.288 304.924
L166.971 303.786
L172.339 301.285
L173.234 300.938
L175.023 300.03
L179.496 298.007
L183.969 295.938
L186.652 294.802
L205.439 286.125
L207.228 285.276
L209.912 284.034
L242.117 269.284
L244.801 268.076
L248.379 266.444
L251.063 265.313
L254.641 263.676
L256.43 262.898
L258.219 261.999
L270.744 256.428
L272.533 255.565
L274.322 254.704
L278.795 252.573
L282.373 250.946
L284.163 250.119
L285.952 249.272
L288.636 248.064
L290.425 247.286
L294.003 245.662
L296.687 244.524
L298.476 243.603
L302.054 242.023
L308.316 239.092
L310.106 238.315
L313.684 236.7
L317.262 235.122
L319.946 233.92
L321.735 233.138
L325.314 231.514
L328.892 229.948
L330.681 229.167
L332.47 228.306
L336.943 226.238
L339.627 225.113
L342.311 223.907
L344.995 222.783
L348.573 221.145
L350.362 220.366
L354.835 218.298
L356.624 217.519
L358.413 216.607
L363.781 214.241
L366.465 212.879
L369.149 211.74
L370.938 210.877
L378.094 207.538
L387.04 203.469
L387.935 203.113
L389.724 202.251
L392.408 201.046
L395.092 199.921
L398.67 198.282
L401.354 197.159
L404.038 195.952
L406.721 194.829
L413.878 191.467
L416.562 190.214
L421.035 188.124
L424.613 186.55
L429.086 184.488
L431.77 183.357
L435.348 181.727
L437.137 180.962
L439.821 179.733
L441.61 178.956
L446.083 176.928
L460.397 170.501
L463.975 168.777
L463.975 168.777" style="fill:none;stroke:#ff0000;stroke-linecap:square;"/>
   </g>
   <g id="line2d_11">
    <path clip-path="url(#pf51f381abf)" d="
M17.575 368.72
L29.2047 363.824
L58.7261 351.305
L62.3045 349.706
L65.8828 348.108
L69.4612 346.365
L73.9341 344.165
L76.6179 342.852
L78.4071 342.005
L84.6692 338.962
L90.9313 335.832
L96.2988 333.181
L98.088 332.336
L124.926 318.853
L128.504 317.131
L133.872 314.425
L136.555 313.188
L145.501 308.631
L149.974 306.431
L161.604 300.614
L163.393 299.767
L167.866 297.611
L173.234 294.979
L175.023 293.99
L179.496 291.789
L183.969 289.538
L186.652 288.304
L200.966 281.091
L206.333 278.461
L208.122 277.523
L216.174 273.397
L218.858 272.172
L227.803 267.577
L232.276 265.416
L237.644 262.722
L245.695 258.753
L247.484 257.906
L249.274 257.061
L251.063 256.215
L254.641 254.433
L256.43 253.586
L258.219 252.607
L270.744 246.546
L272.533 245.607
L274.322 244.67
L278.795 242.351
L282.373 240.58
L284.163 239.681
L285.952 238.759
L288.636 237.444
L290.425 236.598
L294.003 234.833
L296.687 233.594
L298.476 232.593
L300.265 231.718
L302.949 230.406
L304.738 229.558
L311 226.37
L312.789 225.524
L319.946 222.056
L321.735 221.205
L325.314 219.441
L327.997 218.201
L335.154 214.561
L339.627 212.475
L342.311 211.163
L344.995 209.939
L348.573 208.158
L350.362 207.31
L354.835 205.06
L356.624 204.213
L358.413 203.223
L363.781 200.647
L366.465 199.167
L369.149 197.925
L370.938 196.988
L378.094 193.357
L387.04 188.932
L387.935 188.542
L389.724 187.604
L392.408 186.293
L395.092 185.068
L398.67 183.285
L401.354 182.062
L404.038 180.749
L406.721 179.527
L413.878 175.868
L416.562 174.505
L421.035 172.233
L424.613 170.519
L429.086 168.277
L431.77 167.044
L435.348 165.272
L437.137 164.442
L439.821 163.103
L441.61 162.257
L446.083 160.052
L461.291 152.589
L463.08 151.582
L463.975 151.181
L463.975 151.181" style="fill:none;stroke:#00bfbf;stroke-linecap:square;"/>
   </g>
   <g id="line2d_12">
    <path clip-path="url(#pf51f381abf)" d="
M17.575 368.72
L25.6263 364.97
L39.9397 358.285
L58.7261 349.419
L62.3045 347.648
L65.8828 345.876
L68.5666 344.42
L80.1962 338.176
L83.7746 336.201
L87.353 334.258
L93.6151 330.792
L95.4043 329.855
L98.9826 327.899
L101.666 326.422
L106.139 323.928
L107.034 323.508
L107.929 322.91
L110.612 321.47
L113.296 320.007
L122.242 314.927
L128.504 311.544
L133.872 308.547
L136.555 307.174
L145.501 302.126
L149.974 299.687
L161.604 293.24
L163.393 292.301
L168.761 289.436
L171.444 287.93
L176.812 284.946
L178.601 283.976
L183.969 280.962
L186.652 279.59
L201.86 271.125
L204.544 269.644
L210.806 266.11
L211.701 265.665
L214.385 264.022
L217.068 262.649
L223.331 259.113
L226.909 257.135
L231.382 254.66
L233.171 253.702
L236.749 251.725
L249.274 244.961
L251.063 244.023
L254.641 242.049
L256.43 241.108
L258.219 240.023
L270.744 233.306
L271.638 232.719
L273.428 231.704
L277.9 229.199
L280.584 227.69
L287.741 223.645
L290.425 222.279
L294.003 220.324
L296.687 218.948
L298.476 217.84
L300.265 216.868
L302.949 215.415
L304.738 214.476
L311 210.943
L312.789 210.005
L322.63 204.699
L324.419 203.76
L328.892 201.371
L330.681 200.428
L332.47 199.388
L336.943 196.894
L339.627 195.538
L342.311 194.084
L344.995 192.727
L348.573 190.754
L350.362 189.814
L354.835 187.32
L356.624 186.38
L358.413 185.281
L363.781 182.425
L366.465 180.787
L369.149 179.408
L370.043 178.821
L371.832 177.848
L378.094 174.343
L384.357 170.921
L387.935 169.006
L388.83 168.419
L393.302 166.092
L396.881 164.145
L401.354 161.827
L404.038 160.371
L406.721 159.016
L413.878 154.96
L415.667 153.947
L429.086 146.543
L431.77 145.177
L435.348 143.213
L437.137 142.293
L439.821 140.806
L441.61 139.87
L445.189 137.896
L452.345 134.041
L456.818 131.547
L458.607 130.611
L460.397 129.672
L463.975 127.592
L463.975 127.592" style="fill:none;stroke:#bf00bf;stroke-linecap:square;"/>
   </g>
   <g id="line2d_13">
    <path clip-path="url(#pf51f381abf)" d="
M17.575 368.721
L24.7317 365.014
L39.9397 357.131
L58.7261 347.284
L62.3045 345.316
L65.8828 343.35
L68.5666 341.732
L80.1962 334.794
L83.7746 332.598
L87.353 330.44
L93.6151 326.588
L95.4043 325.547
L98.088 323.929
L129.399 304.631
L130.293 304.166
L131.188 303.517
L134.766 301.392
L154.447 289.292
L156.236 288.221
L161.604 284.873
L163.393 283.831
L168.761 280.651
L171.444 278.977
L175.917 276.204
L181.285 272.853
L183.969 271.236
L186.652 269.716
L192.914 265.805
L193.809 265.339
L195.598 264.112
L201.86 260.311
L204.544 258.668
L210.806 254.739
L211.701 254.244
L214.385 252.423
L217.068 250.895
L223.331 246.967
L226.909 244.77
L230.487 242.576
L240.328 236.595
L243.011 235.021
L248.379 231.724
L251.063 230.207
L254.641 228.013
L256.43 226.969
L258.219 225.765
L270.744 218.3
L271.638 217.649
L273.428 216.518
L277.006 214.371
L279.69 212.562
L283.268 210.443
L287.741 207.57
L290.425 206.051
L293.108 204.434
L302.949 198.427
L304.738 197.383
L311 193.457
L312.789 192.415
L319.946 188.148
L321.735 187.098
L324.419 185.48
L328.892 182.825
L330.681 181.778
L332.47 180.623
L336.943 177.853
L339.627 176.346
L342.311 174.729
L344.995 173.223
L348.573 171.031
L350.362 169.986
L354.835 167.215
L356.624 166.172
L358.413 164.955
L363.781 161.779
L366.465 159.962
L369.149 158.428
L370.043 157.778
L371.832 156.696
L376.305 153.925
L394.197 143.063
L395.986 142.023
L400.459 139.361
L403.143 137.856
L405.827 136.239
L407.616 135.195
L409.405 133.974
L412.983 131.843
L420.14 127.337
L430.875 120.887
L432.664 119.826
L439.821 115.549
L441.61 114.508
L445.189 112.315
L452.345 108.033
L456.818 105.261
L458.607 104.221
L460.397 103.178
L463.975 100.868
L463.975 100.868" style="fill:none;stroke:#bfbf00;stroke-linecap:square;"/>
   </g>
   <g id="line2d_14">
    <path clip-path="url(#pf51f381abf)" d="
M17.575 368.72
L22.0479 366.183
L55.1477 347.34
L58.7261 345.177
L62.3045 343.015
L65.8828 340.853
L68.5666 339.075
L73.9341 335.517
L76.6179 333.742
L78.4071 332.596
L82.88 329.674
L86.4584 327.263
L101.666 317.102
L106.139 314.057
L107.034 313.545
L107.929 312.82
L110.612 311.061
L113.296 309.276
L118.664 305.549
L120.453 304.352
L124.031 301.864
L140.134 291.193
L141.923 289.855
L143.712 288.654
L147.29 286.242
L149.08 285.096
L151.763 283.319
L167.866 272.531
L171.444 270.115
L175.917 267.068
L181.285 263.386
L183.969 261.609
L185.758 260.465
L187.547 259.32
L192.914 255.64
L193.809 255.129
L195.598 253.784
L201.86 249.606
L204.544 247.802
L210.806 243.487
L211.701 242.939
L214.385 240.939
L217.068 239.258
L223.331 234.943
L226.014 233.163
L230.487 230.117
L242.117 222.367
L244.801 220.588
L248.379 218.19
L251.063 216.523
L254.641 214.112
L256.43 212.966
L258.219 211.646
L270.744 203.44
L271.638 202.729
L273.428 201.486
L277.006 199.125
L279.69 197.142
L283.268 194.81
L287.741 191.656
L290.425 189.985
L293.108 188.207
L315.473 173.223
L317.262 172.079
L319.946 170.311
L321.735 169.158
L324.419 167.381
L328.892 164.463
L330.681 163.314
L332.47 162.045
L336.943 159.001
L339.627 157.345
L342.311 155.568
L344.995 153.913
L348.573 151.504
L350.362 150.357
L354.835 147.312
L356.624 146.167
L358.413 144.832
L363.781 141.339
L366.465 139.346
L369.149 137.658
L370.043 136.945
L371.832 135.756
L376.305 132.711
L398.67 117.851
L401.354 116.196
L404.038 114.42
L406.721 112.764
L413.878 107.815
L415.667 106.586
L422.824 101.723
L424.613 100.576
L428.191 98.1646
L430.875 96.4182
L432.664 95.2443
L449.662 84.067
L451.451 82.9219
L456.818 79.2413
L458.607 78.0991
L460.397 76.9534
L463.975 74.415
L463.975 74.415" style="fill:none;stroke:#000000;stroke-linecap:square;"/>
   </g>
   <g id="line2d_15">
    <path clip-path="url(#pf51f381abf)" d="
M17.575 368.721
L21.1534 366.541
L59.6207 342.785
L62.3045 341.074
L64.9882 339.43
L68.5666 336.837
L73.9341 333.01
L76.6179 331.1
L77.5125 330.55
L81.0908 327.961
L84.6692 325.449
L90.9313 320.895
L93.6151 318.942
L94.5097 318.393
L98.088 315.798
L115.98 302.793
L117.769 301.455
L124.031 296.811
L132.977 290.391
L138.345 286.604
L140.134 285.333
L141.923 283.898
L143.712 282.604
L147.29 280.011
L148.185 279.461
L151.763 276.865
L168.761 264.642
L169.655 264.023
L170.55 263.268
L173.234 261.428
L175.023 259.994
L178.601 257.467
L183.969 253.507
L184.863 252.957
L190.231 248.998
L192.914 247.085
L193.809 246.536
L195.598 245.09
L200.966 241.211
L204.544 238.656
L210.806 234.014
L211.701 233.424
L214.385 231.275
L217.068 229.464
L223.331 224.822
L226.014 222.907
L230.487 219.629
L249.274 206.238
L250.168 205.689
L254.641 202.413
L255.536 201.863
L261.798 197.223
L267.165 193.399
L268.955 192.195
L277.006 186.289
L279.69 184.156
L283.268 181.645
L287.741 178.256
L290.425 176.455
L293.108 174.545
L322.63 153.372
L323.524 152.822
L326.208 150.909
L328.892 149.004
L330.681 147.766
L332.47 146.401
L336.943 143.127
L338.733 141.988
L344.1 138.206
L345.889 136.975
L356.624 129.32
L358.413 127.887
L363.781 124.129
L366.465 121.986
L369.149 120.168
L370.043 119.406
L371.832 118.124
L376.305 114.848
L398.67 98.869
L399.565 98.3195
L402.248 96.4078
L403.143 95.8589
L405.827 93.9471
L406.721 93.397
L413.878 88.0708
L415.667 86.7489
L429.086 77.0329
L431.77 75.2283
L434.454 73.3154
L438.032 70.7706
L441.61 68.2616
L445.189 65.6684
L447.872 63.7521
L449.662 62.5223
L450.556 61.9739
L456.818 57.3337
L457.713 56.7859
L463.975 52.1439
L463.975 52.1439" style="fill:none;stroke:#0000ff;stroke-linecap:square;"/>
   </g>
   <g id="line2d_16">
    <path clip-path="url(#pf51f381abf)" d="
M17.575 368.721
L22.0479 365.869
L56.0423 344.155
L57.8315 342.873
L59.6207 341.661
L61.4099 340.447
L64.9882 338.161
L68.5666 335.456
L73.9341 331.463
L76.6179 329.469
L77.5125 328.895
L81.0908 326.193
L84.6692 323.57
L90.9313 318.824
L93.6151 316.783
L94.5097 316.21
L98.088 313.503
L115.98 299.937
L117.769 298.538
L124.031 293.695
L132.082 287.711
L134.766 285.715
L165.182 262.774
L169.655 259.494
L171.444 258.071
L175.917 254.651
L180.39 251.23
L182.179 249.811
L183.074 249.237
L185.758 247.241
L187.547 245.957
L192.914 241.831
L193.809 241.258
L195.598 239.751
L200.966 235.703
L204.544 233.04
L210.806 228.199
L211.701 227.58
L214.385 225.338
L217.068 223.448
L223.331 218.604
L226.014 216.607
L230.487 213.188
L248.379 199.811
L251.063 197.938
L254.641 195.233
L255.536 194.66
L261.798 189.818
L264.482 187.895
L270.744 183.258
L271.638 182.465
L272.533 181.834
L274.322 180.411
L277.9 177.641
L280.584 175.567
L286.846 170.723
L288.636 169.439
L290.425 168.156
L293.108 166.161
L315.473 149.348
L316.368 148.775
L319.052 146.781
L322.63 144.076
L323.524 143.502
L326.208 141.507
L328.892 139.519
L330.681 138.228
L332.47 136.805
L336.049 134.098
L337.838 132.814
L339.627 131.53
L342.311 129.536
L343.205 128.963
L345.889 126.97
L356.624 118.986
L358.413 117.493
L363.781 113.571
L366.465 111.336
L369.149 109.44
L370.043 108.643
L371.832 107.303
L376.305 103.884
L387.935 95.189
L388.83 94.3941
L395.092 89.9151
L398.67 87.2114
L399.565 86.6383
L402.248 84.6436
L403.143 84.071
L405.827 82.0769
L406.721 81.5038
L413.878 75.9489
L415.667 74.5716
L429.086 64.434
L431.77 62.5528
L434.454 60.5587
L438.032 57.9039
L441.61 55.2854
L445.189 52.5794
L447.872 50.583
L449.662 49.2996
L450.556 48.7277
L456.818 43.8858
L457.713 43.315
L463.975 38.4697
L463.975 38.4697" style="fill:none;stroke:#008000;stroke-linecap:square;"/>
   </g>
   <g id="patch_3">
    <path d="
M17.575 23.1417
L463.975 23.1417" style="fill:none;stroke:#000000;stroke-linecap:square;stroke-linejoin:miter;"/>
   </g>
   <g id="patch_4">
    <path d="
M463.975 368.742
L463.975 23.1417" style="fill:none;stroke:#000000;stroke-linecap:square;stroke-linejoin:miter;"/>
   </g>
   <g id="patch_5">
    <path d="
M17.575 368.742
L463.975 368.742" style="fill:none;stroke:#000000;stroke-linecap:square;stroke-linejoin:miter;"/>
   </g>
   <g id="patch_6">
    <path d="
M17.575 368.742
L17.575 23.1417" style="fill:none;stroke:#000000;stroke-linecap:square;stroke-linejoin:miter;"/>
   </g>
   <g id="matplotlib.axis_1">
    <g id="xtick_1">
     <g id="line2d_17">
      <defs>
       <path d="
M0 0
L0 -4" id="m93b0483c22" style="stroke:#000000;stroke-width:0.5;"/>
      </defs>
      <g>
       <use style="stroke:#000000;stroke-width:0.5;" x="17.575" xlink:href="#m93b0483c22" y="368.74175"/>
      </g>
     </g>
     <g id="line2d_18">
      <defs>
       <path d="
M0 0
L0 4" id="m741efc42ff" style="stroke:#000000;stroke-width:0.5;"/>
      </defs>
      <g>
       <use style="stroke:#000000;stroke-width:0.5;" x="17.575" xlink:href="#m741efc42ff" y="23.14175"/>
      </g>
     </g>
     <g id="text_1">
      <!-- 0 -->
      <defs>
       <path d="
M31.7812 66.4062
Q24.1719 66.4062 20.3281 58.9062
Q16.5 51.4219 16.5 36.375
Q16.5 21.3906 20.3281 13.8906
Q24.1719 6.39062 31.7812 6.39062
Q39.4531 6.39062 43.2812 13.8906
Q47.125 21.3906 47.125 36.375
Q47.125 51.4219 43.2812 58.9062
Q39.4531 66.4062 31.7812 66.4062
M31.7812 74.2188
Q44.0469 74.2188 50.5156 64.5156
Q56.9844 54.8281 56.9844 36.375
Q56.9844 17.9688 50.5156 8.26562
Q44.0469 -1.42188 31.7812 -1.42188
Q19.5312 -1.42188 13.0625 8.26562
Q6.59375 17.9688 6.59375 36.375
Q6.59375 54.8281 13.0625 64.5156
Q19.5312 74.2188 31.7812 74.2188" id="DejaVuSans-30"/>
      </defs>
      <g transform="translate(14.5515625 381.859875)scale(0.12 -0.12)">
       <use xlink:href="#DejaVuSans-30"/>
      </g>
     </g>
    </g>
    <g id="xtick_2">
     <g id="line2d_19">
      <g>
       <use style="stroke:#000000;stroke-width:0.5;" x="107.033917836" xlink:href="#m93b0483c22" y="368.74175"/>
      </g>
     </g>
     <g id="line2d_20">
      <g>
       <use style="stroke:#000000;stroke-width:0.5;" x="107.033917836" xlink:href="#m741efc42ff" y="23.14175"/>
      </g>
     </g>
     <g id="text_2">
      <!-- 100 -->
      <defs>
       <path d="
M12.4062 8.29688
L28.5156 8.29688
L28.5156 63.9219
L10.9844 60.4062
L10.9844 69.3906
L28.4219 72.9062
L38.2812 72.9062
L38.2812 8.29688
L54.3906 8.29688
L54.3906 0
L12.4062 0
z
" id="DejaVuSans-31"/>
      </defs>
      <g transform="translate(96.6389178357 381.859875)scale(0.12 -0.12)">
       <use xlink:href="#DejaVuSans-31"/>
       <use x="63.623046875" xlink:href="#DejaVuSans-30"/>
       <use x="127.24609375" xlink:href="#DejaVuSans-30"/>
      </g>
     </g>
    </g>
    <g id="xtick_3">
     <g id="line2d_21">
      <g>
       <use style="stroke:#000000;stroke-width:0.5;" x="196.492835671" xlink:href="#m93b0483c22" y="368.74175"/>
      </g>
     </g>
     <g id="line2d_22">
      <g>
       <use style="stroke:#000000;stroke-width:0.5;" x="196.492835671" xlink:href="#m741efc42ff" y="23.14175"/>
      </g>
     </g>
     <g id="text_3">
      <!-- 200 -->
      <defs>
       <path d="
M19.1875 8.29688
L53.6094 8.29688
L53.6094 0
L7.32812 0
L7.32812 8.29688
Q12.9375 14.1094 22.625 23.8906
Q32.3281 33.6875 34.8125 36.5312
Q39.5469 41.8438 41.4219 45.5312
Q43.3125 49.2188 43.3125 52.7812
Q43.3125 58.5938 39.2344 62.25
Q35.1562 65.9219 28.6094 65.9219
Q23.9688 65.9219 18.8125 64.3125
Q13.6719 62.7031 7.8125 59.4219
L7.8125 69.3906
Q13.7656 71.7812 18.9375 73
Q24.125 74.2188 28.4219 74.2188
Q39.75 74.2188 46.4844 68.5469
Q53.2188 62.8906 53.2188 53.4219
Q53.2188 48.9219 51.5312 44.8906
Q49.8594 40.875 45.4062 35.4062
Q44.1875 33.9844 37.6406 27.2188
Q31.1094 20.4531 19.1875 8.29688" id="DejaVuSans-32"/>
      </defs>
      <g transform="translate(185.878460671 381.859875)scale(0.12 -0.12)">
       <use xlink:href="#DejaVuSans-32"/>
       <use x="63.623046875" xlink:href="#DejaVuSans-30"/>
       <use x="127.24609375" xlink:href="#DejaVuSans-30"/>
      </g>
     </g>
    </g>
    <g id="xtick_4">
     <g id="line2d_23">
      <g>
       <use style="stroke:#000000;stroke-width:0.5;" x="285.951753507" xlink:href="#m93b0483c22" y="368.74175"/>
      </g>
     </g>
     <g id="line2d_24">
      <g>
       <use style="stroke:#000000;stroke-width:0.5;" x="285.951753507" xlink:href="#m741efc42ff" y="23.14175"/>
      </g>
     </g>
     <g id="text_4">
      <!-- 300 -->
      <defs>
       <path d="
M40.5781 39.3125
Q47.6562 37.7969 51.625 33
Q55.6094 28.2188 55.6094 21.1875
Q55.6094 10.4062 48.1875 4.48438
Q40.7656 -1.42188 27.0938 -1.42188
Q22.5156 -1.42188 17.6562 -0.515625
Q12.7969 0.390625 7.625 2.20312
L7.625 11.7188
Q11.7188 9.32812 16.5938 8.10938
Q21.4844 6.89062 26.8125 6.89062
Q36.0781 6.89062 40.9375 10.5469
Q45.7969 14.2031 45.7969 21.1875
Q45.7969 27.6406 41.2812 31.2656
Q36.7656 34.9062 28.7188 34.9062
L20.2188 34.9062
L20.2188 43.0156
L29.1094 43.0156
Q36.375 43.0156 40.2344 45.9219
Q44.0938 48.8281 44.0938 54.2969
Q44.0938 59.9062 40.1094 62.9062
Q36.1406 65.9219 28.7188 65.9219
Q24.6562 65.9219 20.0156 65.0312
Q15.375 64.1562 9.8125 62.3125
L9.8125 71.0938
Q15.4375 72.6562 20.3438 73.4375
Q25.25 74.2188 29.5938 74.2188
Q40.8281 74.2188 47.3594 69.1094
Q53.9062 64.0156 53.9062 55.3281
Q53.9062 49.2656 50.4375 45.0938
Q46.9688 40.9219 40.5781 39.3125" id="DejaVuSans-33"/>
      </defs>
      <g transform="translate(275.355191007 381.859875)scale(0.12 -0.12)">
       <use xlink:href="#DejaVuSans-33"/>
       <use x="63.623046875" xlink:href="#DejaVuSans-30"/>
       <use x="127.24609375" xlink:href="#DejaVuSans-30"/>
      </g>
     </g>
    </g>
    <g id="xtick_5">
     <g id="line2d_25">
      <g>
       <use style="stroke:#000000;stroke-width:0.5;" x="375.410671343" xlink:href="#m93b0483c22" y="368.74175"/>
      </g>
     </g>
     <g id="line2d_26">
      <g>
       <use style="stroke:#000000;stroke-width:0.5;" x="375.410671343" xlink:href="#m741efc42ff" y="23.14175"/>
      </g>
     </g>
     <g id="text_5">
      <!-- 400 -->
      <defs>
       <path d="
M37.7969 64.3125
L12.8906 25.3906
L37.7969 25.3906
z

M35.2031 72.9062
L47.6094 72.9062
L47.6094 25.3906
L58.0156 25.3906
L58.0156 17.1875
L47.6094 17.1875
L47.6094 0
L37.7969 0
L37.7969 17.1875
L4.89062 17.1875
L4.89062 26.7031
z
" id="DejaVuSans-34"/>
      </defs>
      <g transform="translate(364.650046343 381.859875)scale(0.12 -0.12)">
       <use xlink:href="#DejaVuSans-34"/>
       <use x="63.623046875" xlink:href="#DejaVuSans-30"/>
       <use x="127.24609375" xlink:href="#DejaVuSans-30"/>
      </g>
     </g>
    </g>
    <g id="text_6">
     <!-- time -->
     <defs>
      <path d="
M18.3125 70.2188
L18.3125 54.6875
L36.8125 54.6875
L36.8125 47.7031
L18.3125 47.7031
L18.3125 18.0156
Q18.3125 11.3281 20.1406 9.42188
Q21.9688 7.51562 27.5938 7.51562
L36.8125 7.51562
L36.8125 0
L27.5938 0
Q17.1875 0 13.2344 3.875
Q9.28125 7.76562 9.28125 18.0156
L9.28125 47.7031
L2.6875 47.7031
L2.6875 54.6875
L9.28125 54.6875
L9.28125 70.2188
z
" id="DejaVuSans-74"/>
      <path d="
M52 44.1875
Q55.375 50.25 60.0625 53.125
Q64.75 56 71.0938 56
Q79.6406 56 84.2812 50.0156
Q88.9219 44.0469 88.9219 33.0156
L88.9219 0
L79.8906 0
L79.8906 32.7188
Q79.8906 40.5781 77.0938 44.375
Q74.3125 48.1875 68.6094 48.1875
Q61.625 48.1875 57.5625 43.5469
Q53.5156 38.9219 53.5156 30.9062
L53.5156 0
L44.4844 0
L44.4844 32.7188
Q44.4844 40.625 41.7031 44.4062
Q38.9219 48.1875 33.1094 48.1875
Q26.2188 48.1875 22.1562 43.5312
Q18.1094 38.875 18.1094 30.9062
L18.1094 0
L9.07812 0
L9.07812 54.6875
L18.1094 54.6875
L18.1094 46.1875
Q21.1875 51.2188 25.4844 53.6094
Q29.7812 56 35.6875 56
Q41.6562 56 45.8281 52.9688
Q50 49.9531 52 44.1875" id="DejaVuSans-6d"/>
      <path d="
M56.2031 29.5938
L56.2031 25.2031
L14.8906 25.2031
Q15.4844 15.9219 20.4844 11.0625
Q25.4844 6.20312 34.4219 6.20312
Q39.5938 6.20312 44.4531 7.46875
Q49.3125 8.73438 54.1094 11.2812
L54.1094 2.78125
Q49.2656 0.734375 44.1875 -0.34375
Q39.1094 -1.42188 33.8906 -1.42188
Q20.7969 -1.42188 13.1562 6.1875
Q5.51562 13.8125 5.51562 26.8125
Q5.51562 40.2344 12.7656 48.1094
Q20.0156 56 32.3281 56
Q43.3594 56 49.7812 48.8906
Q56.2031 41.7969 56.2031 29.5938
M47.2188 32.2344
Q47.125 39.5938 43.0938 43.9844
Q39.0625 48.3906 32.4219 48.3906
Q24.9062 48.3906 20.3906 44.1406
Q15.875 39.8906 15.1875 32.1719
z
" id="DejaVuSans-65"/>
      <path d="
M9.42188 54.6875
L18.4062 54.6875
L18.4062 0
L9.42188 0
z

M9.42188 75.9844
L18.4062 75.9844
L18.4062 64.5938
L9.42188 64.5938
z
" id="DejaVuSans-69"/>
     </defs>
     <g transform="translate(227.700625 398.473625)scale(0.12 -0.12)">
      <use xlink:href="#DejaVuSans-74"/>
      <use x="39.208984375" xlink:href="#DejaVuSans-69"/>
      <use x="66.9921875" xlink:href="#DejaVuSans-6d"/>
      <use x="164.404296875" xlink:href="#DejaVuSans-65"/>
     </g>
    </g>
   </g>
   <g id="matplotlib.axis_2">
    <g id="ytick_1">
     <g id="line2d_27">
      <defs>
       <path d="
M0 0
L4 0" id="m728421d6d4" style="stroke:#000000;stroke-width:0.5;"/>
      </defs>
      <g>
       <use style="stroke:#000000;stroke-width:0.5;" x="17.575" xlink:href="#m728421d6d4" y="368.74175"/>
      </g>
     </g>
     <g id="line2d_28">
      <defs>
       <path d="
M0 0
L-4 0" id="mcb0005524f" style="stroke:#000000;stroke-width:0.5;"/>
      </defs>
      <g>
       <use style="stroke:#000000;stroke-width:0.5;" x="463.975" xlink:href="#mcb0005524f" y="368.74175"/>
      </g>
     </g>
     <g id="text_7">
      <!-- 0 -->
      <g transform="translate(7.528125 372.053)scale(0.12 -0.12)">
       <use xlink:href="#DejaVuSans-30"/>
      </g>
     </g>
    </g>
    <g id="ytick_2">
     <g id="line2d_29">
      <g>
       <use style="stroke:#000000;stroke-width:0.5;" x="17.575" xlink:href="#m728421d6d4" y="311.14175"/>
      </g>
     </g>
     <g id="line2d_30">
      <g>
       <use style="stroke:#000000;stroke-width:0.5;" x="463.975" xlink:href="#mcb0005524f" y="311.14175"/>
      </g>
     </g>
     <g id="text_8">
      <!-- 1 -->
      <g transform="translate(8.36625 314.453)scale(0.12 -0.12)">
       <use xlink:href="#DejaVuSans-31"/>
      </g>
     </g>
    </g>
    <g id="ytick_3">
     <g id="line2d_31">
      <g>
       <use style="stroke:#000000;stroke-width:0.5;" x="17.575" xlink:href="#m728421d6d4" y="253.54175"/>
      </g>
     </g>
     <g id="line2d_32">
      <g>
       <use style="stroke:#000000;stroke-width:0.5;" x="463.975" xlink:href="#mcb0005524f" y="253.54175"/>
      </g>
     </g>
     <g id="text_9">
      <!-- 2 -->
      <g transform="translate(8.02125 256.853)scale(0.12 -0.12)">
       <use xlink:href="#DejaVuSans-32"/>
      </g>
     </g>
    </g>
    <g id="ytick_4">
     <g id="line2d_33">
      <g>
       <use style="stroke:#000000;stroke-width:0.5;" x="17.575" xlink:href="#m728421d6d4" y="195.94175"/>
      </g>
     </g>
     <g id="line2d_34">
      <g>
       <use style="stroke:#000000;stroke-width:0.5;" x="463.975" xlink:href="#mcb0005524f" y="195.94175"/>
      </g>
     </g>
     <g id="text_10">
      <!-- 3 -->
      <g transform="translate(7.816875 199.253)scale(0.12 -0.12)">
       <use xlink:href="#DejaVuSans-33"/>
      </g>
     </g>
    </g>
    <g id="ytick_5">
     <g id="line2d_35">
      <g>
       <use style="stroke:#000000;stroke-width:0.5;" x="17.575" xlink:href="#m728421d6d4" y="138.34175"/>
      </g>
     </g>
     <g id="line2d_36">
      <g>
       <use style="stroke:#000000;stroke-width:0.5;" x="463.975" xlink:href="#mcb0005524f" y="138.34175"/>
      </g>
     </g>
     <g id="text_11">
      <!-- 4 -->
      <g transform="translate(7.2 141.653)scale(0.12 -0.12)">
       <use xlink:href="#DejaVuSans-34"/>
      </g>
     </g>
    </g>
    <g id="ytick_6">
     <g id="line2d_37">
      <g>
       <use style="stroke:#000000;stroke-width:0.5;" x="17.575" xlink:href="#m728421d6d4" y="80.74175"/>
      </g>
     </g>
     <g id="line2d_38">
      <g>
       <use style="stroke:#000000;stroke-width:0.5;" x="463.975" xlink:href="#mcb0005524f" y="80.74175"/>
      </g>
     </g>
     <g id="text_12">
      <!-- 5 -->
      <defs>
       <path d="
M10.7969 72.9062
L49.5156 72.9062
L49.5156 64.5938
L19.8281 64.5938
L19.8281 46.7344
Q21.9688 47.4688 24.1094 47.8281
Q26.2656 48.1875 28.4219 48.1875
Q40.625 48.1875 47.75 41.5
Q54.8906 34.8125 54.8906 23.3906
Q54.8906 11.625 47.5625 5.09375
Q40.2344 -1.42188 26.9062 -1.42188
Q22.3125 -1.42188 17.5469 -0.640625
Q12.7969 0.140625 7.71875 1.70312
L7.71875 11.625
Q12.1094 9.23438 16.7969 8.0625
Q21.4844 6.89062 26.7031 6.89062
Q35.1562 6.89062 40.0781 11.3281
Q45.0156 15.7656 45.0156 23.3906
Q45.0156 31 40.0781 35.4375
Q35.1562 39.8906 26.7031 39.8906
Q22.75 39.8906 18.8125 39.0156
Q14.8906 38.1406 10.7969 36.2812
z
" id="DejaVuSans-35"/>
      </defs>
      <g transform="translate(7.914375 84.053)scale(0.12 -0.12)">
       <use xlink:href="#DejaVuSans-35"/>
      </g>
     </g>
    </g>
    <g id="ytick_7">
     <g id="line2d_39">
      <g>
       <use style="stroke:#000000;stroke-width:0.5;" x="17.575" xlink:href="#m728421d6d4" y="23.14175"/>
      </g>
     </g>
     <g id="line2d_40">
      <g>
       <use style="stroke:#000000;stroke-width:0.5;" x="463.975" xlink:href="#mcb0005524f" y="23.14175"/>
      </g>
     </g>
     <g id="text_13">
      <!-- 6 -->
      <defs>
       <path d="
M33.0156 40.375
Q26.375 40.375 22.4844 35.8281
Q18.6094 31.2969 18.6094 23.3906
Q18.6094 15.5312 22.4844 10.9531
Q26.375 6.39062 33.0156 6.39062
Q39.6562 6.39062 43.5312 10.9531
Q47.4062 15.5312 47.4062 23.3906
Q47.4062 31.2969 43.5312 35.8281
Q39.6562 40.375 33.0156 40.375
M52.5938 71.2969
L52.5938 62.3125
Q48.875 64.0625 45.0938 64.9844
Q41.3125 65.9219 37.5938 65.9219
Q27.8281 65.9219 22.6719 59.3281
Q17.5312 52.7344 16.7969 39.4062
Q19.6719 43.6562 24.0156 45.9219
Q28.375 48.1875 33.5938 48.1875
Q44.5781 48.1875 50.9531 41.5156
Q57.3281 34.8594 57.3281 23.3906
Q57.3281 12.1562 50.6875 5.35938
Q44.0469 -1.42188 33.0156 -1.42188
Q20.3594 -1.42188 13.6719 8.26562
Q6.98438 17.9688 6.98438 36.375
Q6.98438 53.6562 15.1875 63.9375
Q23.3906 74.2188 37.2031 74.2188
Q40.9219 74.2188 44.7031 73.4844
Q48.4844 72.75 52.5938 71.2969" id="DejaVuSans-36"/>
      </defs>
      <g transform="translate(7.53375 26.453)scale(0.12 -0.12)">
       <use xlink:href="#DejaVuSans-36"/>
      </g>
     </g>
    </g>
    <g id="text_14">
     <!-- 1e9 -->
     <defs>
      <path d="
M10.9844 1.51562
L10.9844 10.5
Q14.7031 8.73438 18.5 7.8125
Q22.3125 6.89062 25.9844 6.89062
Q35.75 6.89062 40.8906 13.4531
Q46.0469 20.0156 46.7812 33.4062
Q43.9531 29.2031 39.5938 26.9531
Q35.25 24.7031 29.9844 24.7031
Q19.0469 24.7031 12.6719 31.3125
Q6.29688 37.9375 6.29688 49.4219
Q6.29688 60.6406 12.9375 67.4219
Q19.5781 74.2188 30.6094 74.2188
Q43.2656 74.2188 49.9219 64.5156
Q56.5938 54.8281 56.5938 36.375
Q56.5938 19.1406 48.4062 8.85938
Q40.2344 -1.42188 26.4219 -1.42188
Q22.7031 -1.42188 18.8906 -0.6875
Q15.0938 0.046875 10.9844 1.51562
M30.6094 32.4219
Q37.25 32.4219 41.125 36.9531
Q45.0156 41.5 45.0156 49.4219
Q45.0156 57.2812 41.125 61.8438
Q37.25 66.4062 30.6094 66.4062
Q23.9688 66.4062 20.0938 61.8438
Q16.2188 57.2812 16.2188 49.4219
Q16.2188 41.5 20.0938 36.9531
Q23.9688 32.4219 30.6094 32.4219" id="DejaVuSans-39"/>
     </defs>
     <g transform="translate(17.575 20.14175)scale(0.12 -0.12)">
      <use xlink:href="#DejaVuSans-31"/>
      <use x="63.623046875" xlink:href="#DejaVuSans-65"/>
      <use x="125.146484375" xlink:href="#DejaVuSans-39"/>
     </g>
    </g>
   </g>
   <g id="text_15">
    <!-- /data/count/mpi/sent -->
    <defs>
     <path d="
M25.3906 72.9062
L33.6875 72.9062
L8.29688 -9.28125
L0 -9.28125
z
" id="DejaVuSans-2f"/>
     <path d="
M30.6094 48.3906
Q23.3906 48.3906 19.1875 42.75
Q14.9844 37.1094 14.9844 27.2969
Q14.9844 17.4844 19.1562 11.8438
Q23.3438 6.20312 30.6094 6.20312
Q37.7969 6.20312 41.9844 11.8594
Q46.1875 17.5312 46.1875 27.2969
Q46.1875 37.0156 41.9844 42.7031
Q37.7969 48.3906 30.6094 48.3906
M30.6094 56
Q42.3281 56 49.0156 48.375
Q55.7188 40.7656 55.7188 27.2969
Q55.7188 13.875 49.0156 6.21875
Q42.3281 -1.42188 30.6094 -1.42188
Q18.8438 -1.42188 12.1719 6.21875
Q5.51562 13.875 5.51562 27.2969
Q5.51562 40.7656 12.1719 48.375
Q18.8438 56 30.6094 56" id="DejaVuSans-6f"/>
     <path d="
M54.8906 33.0156
L54.8906 0
L45.9062 0
L45.9062 32.7188
Q45.9062 40.4844 42.875 44.3281
Q39.8438 48.1875 33.7969 48.1875
Q26.5156 48.1875 22.3125 43.5469
Q18.1094 38.9219 18.1094 30.9062
L18.1094 0
L9.07812 0
L9.07812 54.6875
L18.1094 54.6875
L18.1094 46.1875
Q21.3438 51.125 25.7031 53.5625
Q30.0781 56 35.7969 56
Q45.2188 56 50.0469 50.1719
Q54.8906 44.3438 54.8906 33.0156" id="DejaVuSans-6e"/>
     <path d="
M18.1094 8.20312
L18.1094 -20.7969
L9.07812 -20.7969
L9.07812 54.6875
L18.1094 54.6875
L18.1094 46.3906
Q20.9531 51.2656 25.2656 53.625
Q29.5938 56 35.5938 56
Q45.5625 56 51.7812 48.0938
Q58.0156 40.1875 58.0156 27.2969
Q58.0156 14.4062 51.7812 6.48438
Q45.5625 -1.42188 35.5938 -1.42188
Q29.5938 -1.42188 25.2656 0.953125
Q20.9531 3.32812 18.1094 8.20312
M48.6875 27.2969
Q48.6875 37.2031 44.6094 42.8438
Q40.5312 48.4844 33.4062 48.4844
Q26.2656 48.4844 22.1875 42.8438
Q18.1094 37.2031 18.1094 27.2969
Q18.1094 17.3906 22.1875 11.75
Q26.2656 6.10938 33.4062 6.10938
Q40.5312 6.10938 44.6094 11.75
Q48.6875 17.3906 48.6875 27.2969" id="DejaVuSans-70"/>
     <path d="
M8.5 21.5781
L8.5 54.6875
L17.4844 54.6875
L17.4844 21.9219
Q17.4844 14.1562 20.5 10.2656
Q23.5312 6.39062 29.5938 6.39062
Q36.8594 6.39062 41.0781 11.0312
Q45.3125 15.6719 45.3125 23.6875
L45.3125 54.6875
L54.2969 54.6875
L54.2969 0
L45.3125 0
L45.3125 8.40625
Q42.0469 3.42188 37.7188 1
Q33.4062 -1.42188 27.6875 -1.42188
Q18.2656 -1.42188 13.375 4.4375
Q8.5 10.2969 8.5 21.5781
M31.1094 56
z
" id="DejaVuSans-75"/>
     <path d="
M45.4062 46.3906
L45.4062 75.9844
L54.3906 75.9844
L54.3906 0
L45.4062 0
L45.4062 8.20312
Q42.5781 3.32812 38.25 0.953125
Q33.9375 -1.42188 27.875 -1.42188
Q17.9688 -1.42188 11.7344 6.48438
Q5.51562 14.4062 5.51562 27.2969
Q5.51562 40.1875 11.7344 48.0938
Q17.9688 56 27.875 56
Q33.9375 56 38.25 53.625
Q42.5781 51.2656 45.4062 46.3906
M14.7969 27.2969
Q14.7969 17.3906 18.875 11.75
Q22.9531 6.10938 30.0781 6.10938
Q37.2031 6.10938 41.2969 11.75
Q45.4062 17.3906 45.4062 27.2969
Q45.4062 37.2031 41.2969 42.8438
Q37.2031 48.4844 30.0781 48.4844
Q22.9531 48.4844 18.875 42.8438
Q14.7969 37.2031 14.7969 27.2969" id="DejaVuSans-64"/>
     <path d="
M48.7812 52.5938
L48.7812 44.1875
Q44.9688 46.2969 41.1406 47.3438
Q37.3125 48.3906 33.4062 48.3906
Q24.6562 48.3906 19.8125 42.8438
Q14.9844 37.3125 14.9844 27.2969
Q14.9844 17.2812 19.8125 11.7344
Q24.6562 6.20312 33.4062 6.20312
Q37.3125 6.20312 41.1406 7.25
Q44.9688 8.29688 48.7812 10.4062
L48.7812 2.09375
Q45.0156 0.34375 40.9844 -0.53125
Q36.9688 -1.42188 32.4219 -1.42188
Q20.0625 -1.42188 12.7812 6.34375
Q5.51562 14.1094 5.51562 27.2969
Q5.51562 40.6719 12.8594 48.3281
Q20.2188 56 33.0156 56
Q37.1562 56 41.1094 55.1406
Q45.0625 54.2969 48.7812 52.5938" id="DejaVuSans-63"/>
     <path d="
M44.2812 53.0781
L44.2812 44.5781
Q40.4844 46.5312 36.375 47.5
Q32.2812 48.4844 27.875 48.4844
Q21.1875 48.4844 17.8438 46.4375
Q14.5 44.3906 14.5 40.2812
Q14.5 37.1562 16.8906 35.375
Q19.2812 33.5938 26.5156 31.9844
L29.5938 31.2969
Q39.1562 29.25 43.1875 25.5156
Q47.2188 21.7812 47.2188 15.0938
Q47.2188 7.46875 41.1875 3.01562
Q35.1562 -1.42188 24.6094 -1.42188
Q20.2188 -1.42188 15.4531 -0.5625
Q10.6875 0.296875 5.42188 2
L5.42188 11.2812
Q10.4062 8.6875 15.2344 7.39062
Q20.0625 6.10938 24.8125 6.10938
Q31.1562 6.10938 34.5625 8.28125
Q37.9844 10.4531 37.9844 14.4062
Q37.9844 18.0625 35.5156 20.0156
Q33.0625 21.9688 24.7031 23.7812
L21.5781 24.5156
Q13.2344 26.2656 9.51562 29.9062
Q5.8125 33.5469 5.8125 39.8906
Q5.8125 47.6094 11.2812 51.7969
Q16.75 56 26.8125 56
Q31.7812 56 36.1719 55.2656
Q40.5781 54.5469 44.2812 53.0781" id="DejaVuSans-73"/>
     <path d="
M34.2812 27.4844
Q23.3906 27.4844 19.1875 25
Q14.9844 22.5156 14.9844 16.5
Q14.9844 11.7188 18.1406 8.90625
Q21.2969 6.10938 26.7031 6.10938
Q34.1875 6.10938 38.7031 11.4062
Q43.2188 16.7031 43.2188 25.4844
L43.2188 27.4844
z

M52.2031 31.2031
L52.2031 0
L43.2188 0
L43.2188 8.29688
Q40.1406 3.32812 35.5469 0.953125
Q30.9531 -1.42188 24.3125 -1.42188
Q15.9219 -1.42188 10.9531 3.29688
Q6 8.01562 6 15.9219
Q6 25.1406 12.1719 29.8281
Q18.3594 34.5156 30.6094 34.5156
L43.2188 34.5156
L43.2188 35.4062
Q43.2188 41.6094 39.1406 45
Q35.0625 48.3906 27.6875 48.3906
Q23 48.3906 18.5469 47.2656
Q14.1094 46.1406 10.0156 43.8906
L10.0156 52.2031
Q14.9375 54.1094 19.5781 55.0469
Q24.2188 56 28.6094 56
Q40.4844 56 46.3438 49.8438
Q52.2031 43.7031 52.2031 31.2031" id="DejaVuSans-61"/>
    </defs>
    <g transform="translate(165.563125 18.14175)scale(0.144 -0.144)">
     <use xlink:href="#DejaVuSans-2f"/>
     <use x="33.69140625" xlink:href="#DejaVuSans-64"/>
     <use x="97.16796875" xlink:href="#DejaVuSans-61"/>
     <use x="158.447265625" xlink:href="#DejaVuSans-74"/>
     <use x="197.65625" xlink:href="#DejaVuSans-61"/>
     <use x="258.935546875" xlink:href="#DejaVuSans-2f"/>
     <use x="292.626953125" xlink:href="#DejaVuSans-63"/>
     <use x="347.607421875" xlink:href="#DejaVuSans-6f"/>
     <use x="408.7890625" xlink:href="#DejaVuSans-75"/>
     <use x="472.16796875" xlink:href="#DejaVuSans-6e"/>
     <use x="535.546875" xlink:href="#DejaVuSans-74"/>
     <use x="574.755859375" xlink:href="#DejaVuSans-2f"/>
     <use x="608.447265625" xlink:href="#DejaVuSans-6d"/>
     <use x="705.859375" xlink:href="#DejaVuSans-70"/>
     <use x="769.3359375" xlink:href="#DejaVuSans-69"/>
     <use x="797.119140625" xlink:href="#DejaVuSans-2f"/>
     <use x="830.810546875" xlink:href="#DejaVuSans-73"/>
     <use x="882.91015625" xlink:href="#DejaVuSans-65"/>
     <use x="944.43359375" xlink:href="#DejaVuSans-6e"/>
     <use x="1007.8125" xlink:href="#DejaVuSans-74"/>
    </g>
   </g>
   <g id="legend_1">
    <g id="patch_7">
     <path d="
M471.175 367.194
L602.964 367.194
L602.964 24.6897
L471.175 24.6897
z
" style="fill:#ffffff;stroke:#000000;stroke-linejoin:miter;"/>
    </g>
    <g id="line2d_41">
     <path d="
M481.255 36.3515
L501.415 36.3515" style="fill:none;stroke:#0000ff;stroke-linecap:square;"/>
    </g>
    <g id="line2d_42"/>
    <g id="text_16">
     <!-- locality#0 -->
     <defs>
      <path d="
M51.125 44
L36.9219 44
L32.8125 27.6875
L47.125 27.6875
z

M43.7969 71.7812
L38.7188 51.5156
L52.9844 51.5156
L58.1094 71.7812
L65.9219 71.7812
L60.8906 51.5156
L76.125 51.5156
L76.125 44
L58.9844 44
L54.9844 27.6875
L70.5156 27.6875
L70.5156 20.2188
L53.0781 20.2188
L48 0
L40.1875 0
L45.2188 20.2188
L30.9062 20.2188
L25.875 0
L18.0156 0
L23.0938 20.2188
L7.71875 20.2188
L7.71875 27.6875
L24.9062 27.6875
L29 44
L13.2812 44
L13.2812 51.5156
L30.9062 51.5156
L35.8906 71.7812
z
" id="DejaVuSans-23"/>
      <path d="
M32.1719 -5.07812
Q28.375 -14.8438 24.75 -17.8125
Q21.1406 -20.7969 15.0938 -20.7969
L7.90625 -20.7969
L7.90625 -13.2812
L13.1875 -13.2812
Q16.8906 -13.2812 18.9375 -11.5156
Q21 -9.76562 23.4844 -3.21875
L25.0938 0.875
L2.98438 54.6875
L12.5 54.6875
L29.5938 11.9219
L46.6875 54.6875
L56.2031 54.6875
z
" id="DejaVuSans-79"/>
      <path d="
M9.42188 75.9844
L18.4062 75.9844
L18.4062 0
L9.42188 0
z
" id="DejaVuSans-6c"/>
     </defs>
     <g transform="translate(517.255 41.3915)scale(0.144 -0.144)">
      <use xlink:href="#DejaVuSans-6c"/>
      <use x="27.783203125" xlink:href="#DejaVuSans-6f"/>
      <use x="88.96484375" xlink:href="#DejaVuSans-63"/>
      <use x="143.9453125" xlink:href="#DejaVuSans-61"/>
      <use x="205.224609375" xlink:href="#DejaVuSans-6c"/>
      <use x="233.0078125" xlink:href="#DejaVuSans-69"/>
      <use x="260.791015625" xlink:href="#DejaVuSans-74"/>
      <use x="300.0" xlink:href="#DejaVuSans-79"/>
      <use x="359.1796875" xlink:href="#DejaVuSans-23"/>
      <use x="442.96875" xlink:href="#DejaVuSans-30"/>
     </g>
    </g>
    <g id="line2d_43">
     <path d="
M481.255 57.488
L501.415 57.488" style="fill:none;stroke:#008000;stroke-linecap:square;"/>
    </g>
    <g id="line2d_44"/>
    <g id="text_17">
     <!-- locality#1 -->
     <g transform="translate(517.255 62.528)scale(0.144 -0.144)">
      <use xlink:href="#DejaVuSans-6c"/>
      <use x="27.783203125" xlink:href="#DejaVuSans-6f"/>
      <use x="88.96484375" xlink:href="#DejaVuSans-63"/>
      <use x="143.9453125" xlink:href="#DejaVuSans-61"/>
      <use x="205.224609375" xlink:href="#DejaVuSans-6c"/>
      <use x="233.0078125" xlink:href="#DejaVuSans-69"/>
      <use x="260.791015625" xlink:href="#DejaVuSans-74"/>
      <use x="300.0" xlink:href="#DejaVuSans-79"/>
      <use x="359.1796875" xlink:href="#DejaVuSans-23"/>
      <use x="442.96875" xlink:href="#DejaVuSans-31"/>
     </g>
    </g>
    <g id="line2d_45">
     <path d="
M481.255 78.6245
L501.415 78.6245" style="fill:none;stroke:#ff0000;stroke-linecap:square;"/>
    </g>
    <g id="line2d_46"/>
    <g id="text_18">
     <!-- locality#10 -->
     <g transform="translate(517.255 83.6645)scale(0.144 -0.144)">
      <use xlink:href="#DejaVuSans-6c"/>
      <use x="27.783203125" xlink:href="#DejaVuSans-6f"/>
      <use x="88.96484375" xlink:href="#DejaVuSans-63"/>
      <use x="143.9453125" xlink:href="#DejaVuSans-61"/>
      <use x="205.224609375" xlink:href="#DejaVuSans-6c"/>
      <use x="233.0078125" xlink:href="#DejaVuSans-69"/>
      <use x="260.791015625" xlink:href="#DejaVuSans-74"/>
      <use x="300.0" xlink:href="#DejaVuSans-79"/>
      <use x="359.1796875" xlink:href="#DejaVuSans-23"/>
      <use x="442.96875" xlink:href="#DejaVuSans-31"/>
      <use x="506.591796875" xlink:href="#DejaVuSans-30"/>
     </g>
    </g>
    <g id="line2d_47">
     <path d="
M481.255 99.761
L501.415 99.761" style="fill:none;stroke:#00bfbf;stroke-linecap:square;"/>
    </g>
    <g id="line2d_48"/>
    <g id="text_19">
     <!-- locality#11 -->
     <g transform="translate(517.255 104.801)scale(0.144 -0.144)">
      <use xlink:href="#DejaVuSans-6c"/>
      <use x="27.783203125" xlink:href="#DejaVuSans-6f"/>
      <use x="88.96484375" xlink:href="#DejaVuSans-63"/>
      <use x="143.9453125" xlink:href="#DejaVuSans-61"/>
      <use x="205.224609375" xlink:href="#DejaVuSans-6c"/>
      <use x="233.0078125" xlink:href="#DejaVuSans-69"/>
      <use x="260.791015625" xlink:href="#DejaVuSans-74"/>
      <use x="300.0" xlink:href="#DejaVuSans-79"/>
      <use x="359.1796875" xlink:href="#DejaVuSans-23"/>
      <use x="442.96875" xlink:href="#DejaVuSans-31"/>
      <use x="506.591796875" xlink:href="#DejaVuSans-31"/>
     </g>
    </g>
    <g id="line2d_49">
     <path d="
M481.255 120.897
L501.415 120.897" style="fill:none;stroke:#bf00bf;stroke-linecap:square;"/>
    </g>
    <g id="line2d_50"/>
    <g id="text_20">
     <!-- locality#12 -->
     <g transform="translate(517.255 125.9375)scale(0.144 -0.144)">
      <use xlink:href="#DejaVuSans-6c"/>
      <use x="27.783203125" xlink:href="#DejaVuSans-6f"/>
      <use x="88.96484375" xlink:href="#DejaVuSans-63"/>
      <use x="143.9453125" xlink:href="#DejaVuSans-61"/>
      <use x="205.224609375" xlink:href="#DejaVuSans-6c"/>
      <use x="233.0078125" xlink:href="#DejaVuSans-69"/>
      <use x="260.791015625" xlink:href="#DejaVuSans-74"/>
      <use x="300.0" xlink:href="#DejaVuSans-79"/>
      <use x="359.1796875" xlink:href="#DejaVuSans-23"/>
      <use x="442.96875" xlink:href="#DejaVuSans-31"/>
      <use x="506.591796875" xlink:href="#DejaVuSans-32"/>
     </g>
    </g>
    <g id="line2d_51">
     <path d="
M481.255 142.034
L501.415 142.034" style="fill:none;stroke:#bfbf00;stroke-linecap:square;"/>
    </g>
    <g id="line2d_52"/>
    <g id="text_21">
     <!-- locality#13 -->
     <g transform="translate(517.255 147.074)scale(0.144 -0.144)">
      <use xlink:href="#DejaVuSans-6c"/>
      <use x="27.783203125" xlink:href="#DejaVuSans-6f"/>
      <use x="88.96484375" xlink:href="#DejaVuSans-63"/>
      <use x="143.9453125" xlink:href="#DejaVuSans-61"/>
      <use x="205.224609375" xlink:href="#DejaVuSans-6c"/>
      <use x="233.0078125" xlink:href="#DejaVuSans-69"/>
      <use x="260.791015625" xlink:href="#DejaVuSans-74"/>
      <use x="300.0" xlink:href="#DejaVuSans-79"/>
      <use x="359.1796875" xlink:href="#DejaVuSans-23"/>
      <use x="442.96875" xlink:href="#DejaVuSans-31"/>
      <use x="506.591796875" xlink:href="#DejaVuSans-33"/>
     </g>
    </g>
    <g id="line2d_53">
     <path d="
M481.255 163.17
L501.415 163.17" style="fill:none;stroke:#000000;stroke-linecap:square;"/>
    </g>
    <g id="line2d_54"/>
    <g id="text_22">
     <!-- locality#14 -->
     <g transform="translate(517.255 168.2105)scale(0.144 -0.144)">
      <use xlink:href="#DejaVuSans-6c"/>
      <use x="27.783203125" xlink:href="#DejaVuSans-6f"/>
      <use x="88.96484375" xlink:href="#DejaVuSans-63"/>
      <use x="143.9453125" xlink:href="#DejaVuSans-61"/>
      <use x="205.224609375" xlink:href="#DejaVuSans-6c"/>
      <use x="233.0078125" xlink:href="#DejaVuSans-69"/>
      <use x="260.791015625" xlink:href="#DejaVuSans-74"/>
      <use x="300.0" xlink:href="#DejaVuSans-79"/>
      <use x="359.1796875" xlink:href="#DejaVuSans-23"/>
      <use x="442.96875" xlink:href="#DejaVuSans-31"/>
      <use x="506.591796875" xlink:href="#DejaVuSans-34"/>
     </g>
    </g>
    <g id="line2d_55">
     <path d="
M481.255 184.307
L501.415 184.307" style="fill:none;stroke:#0000ff;stroke-linecap:square;"/>
    </g>
    <g id="line2d_56"/>
    <g id="text_23">
     <!-- locality#15 -->
     <g transform="translate(517.255 189.347)scale(0.144 -0.144)">
      <use xlink:href="#DejaVuSans-6c"/>
      <use x="27.783203125" xlink:href="#DejaVuSans-6f"/>
      <use x="88.96484375" xlink:href="#DejaVuSans-63"/>
      <use x="143.9453125" xlink:href="#DejaVuSans-61"/>
      <use x="205.224609375" xlink:href="#DejaVuSans-6c"/>
      <use x="233.0078125" xlink:href="#DejaVuSans-69"/>
      <use x="260.791015625" xlink:href="#DejaVuSans-74"/>
      <use x="300.0" xlink:href="#DejaVuSans-79"/>
      <use x="359.1796875" xlink:href="#DejaVuSans-23"/>
      <use x="442.96875" xlink:href="#DejaVuSans-31"/>
      <use x="506.591796875" xlink:href="#DejaVuSans-35"/>
     </g>
    </g>
    <g id="line2d_57">
     <path d="
M481.255 205.443
L501.415 205.443" style="fill:none;stroke:#008000;stroke-linecap:square;"/>
    </g>
    <g id="line2d_58"/>
    <g id="text_24">
     <!-- locality#2 -->
     <g transform="translate(517.255 210.4835)scale(0.144 -0.144)">
      <use xlink:href="#DejaVuSans-6c"/>
      <use x="27.783203125" xlink:href="#DejaVuSans-6f"/>
      <use x="88.96484375" xlink:href="#DejaVuSans-63"/>
      <use x="143.9453125" xlink:href="#DejaVuSans-61"/>
      <use x="205.224609375" xlink:href="#DejaVuSans-6c"/>
      <use x="233.0078125" xlink:href="#DejaVuSans-69"/>
      <use x="260.791015625" xlink:href="#DejaVuSans-74"/>
      <use x="300.0" xlink:href="#DejaVuSans-79"/>
      <use x="359.1796875" xlink:href="#DejaVuSans-23"/>
      <use x="442.96875" xlink:href="#DejaVuSans-32"/>
     </g>
    </g>
    <g id="line2d_59">
     <path d="
M481.255 226.58
L501.415 226.58" style="fill:none;stroke:#ff0000;stroke-linecap:square;"/>
    </g>
    <g id="line2d_60"/>
    <g id="text_25">
     <!-- locality#3 -->
     <g transform="translate(517.255 231.62)scale(0.144 -0.144)">
      <use xlink:href="#DejaVuSans-6c"/>
      <use x="27.783203125" xlink:href="#DejaVuSans-6f"/>
      <use x="88.96484375" xlink:href="#DejaVuSans-63"/>
      <use x="143.9453125" xlink:href="#DejaVuSans-61"/>
      <use x="205.224609375" xlink:href="#DejaVuSans-6c"/>
      <use x="233.0078125" xlink:href="#DejaVuSans-69"/>
      <use x="260.791015625" xlink:href="#DejaVuSans-74"/>
      <use x="300.0" xlink:href="#DejaVuSans-79"/>
      <use x="359.1796875" xlink:href="#DejaVuSans-23"/>
      <use x="442.96875" xlink:href="#DejaVuSans-33"/>
     </g>
    </g>
    <g id="line2d_61">
     <path d="
M481.255 247.716
L501.415 247.716" style="fill:none;stroke:#00bfbf;stroke-linecap:square;"/>
    </g>
    <g id="line2d_62"/>
    <g id="text_26">
     <!-- locality#4 -->
     <g transform="translate(517.255 252.7565)scale(0.144 -0.144)">
      <use xlink:href="#DejaVuSans-6c"/>
      <use x="27.783203125" xlink:href="#DejaVuSans-6f"/>
      <use x="88.96484375" xlink:href="#DejaVuSans-63"/>
      <use x="143.9453125" xlink:href="#DejaVuSans-61"/>
      <use x="205.224609375" xlink:href="#DejaVuSans-6c"/>
      <use x="233.0078125" xlink:href="#DejaVuSans-69"/>
      <use x="260.791015625" xlink:href="#DejaVuSans-74"/>
      <use x="300.0" xlink:href="#DejaVuSans-79"/>
      <use x="359.1796875" xlink:href="#DejaVuSans-23"/>
      <use x="442.96875" xlink:href="#DejaVuSans-34"/>
     </g>
    </g>
    <g id="line2d_63">
     <path d="
M481.255 268.853
L501.415 268.853" style="fill:none;stroke:#bf00bf;stroke-linecap:square;"/>
    </g>
    <g id="line2d_64"/>
    <g id="text_27">
     <!-- locality#5 -->
     <g transform="translate(517.255 273.893)scale(0.144 -0.144)">
      <use xlink:href="#DejaVuSans-6c"/>
      <use x="27.783203125" xlink:href="#DejaVuSans-6f"/>
      <use x="88.96484375" xlink:href="#DejaVuSans-63"/>
      <use x="143.9453125" xlink:href="#DejaVuSans-61"/>
      <use x="205.224609375" xlink:href="#DejaVuSans-6c"/>
      <use x="233.0078125" xlink:href="#DejaVuSans-69"/>
      <use x="260.791015625" xlink:href="#DejaVuSans-74"/>
      <use x="300.0" xlink:href="#DejaVuSans-79"/>
      <use x="359.1796875" xlink:href="#DejaVuSans-23"/>
      <use x="442.96875" xlink:href="#DejaVuSans-35"/>
     </g>
    </g>
    <g id="line2d_65">
     <path d="
M481.255 289.989
L501.415 289.989" style="fill:none;stroke:#bfbf00;stroke-linecap:square;"/>
    </g>
    <g id="line2d_66"/>
    <g id="text_28">
     <!-- locality#6 -->
     <g transform="translate(517.255 295.0295)scale(0.144 -0.144)">
      <use xlink:href="#DejaVuSans-6c"/>
      <use x="27.783203125" xlink:href="#DejaVuSans-6f"/>
      <use x="88.96484375" xlink:href="#DejaVuSans-63"/>
      <use x="143.9453125" xlink:href="#DejaVuSans-61"/>
      <use x="205.224609375" xlink:href="#DejaVuSans-6c"/>
      <use x="233.0078125" xlink:href="#DejaVuSans-69"/>
      <use x="260.791015625" xlink:href="#DejaVuSans-74"/>
      <use x="300.0" xlink:href="#DejaVuSans-79"/>
      <use x="359.1796875" xlink:href="#DejaVuSans-23"/>
      <use x="442.96875" xlink:href="#DejaVuSans-36"/>
     </g>
    </g>
    <g id="line2d_67">
     <path d="
M481.255 311.126
L501.415 311.126" style="fill:none;stroke:#000000;stroke-linecap:square;"/>
    </g>
    <g id="line2d_68"/>
    <g id="text_29">
     <!-- locality#7 -->
     <defs>
      <path d="
M8.20312 72.9062
L55.0781 72.9062
L55.0781 68.7031
L28.6094 0
L18.3125 0
L43.2188 64.5938
L8.20312 64.5938
z
" id="DejaVuSans-37"/>
     </defs>
     <g transform="translate(517.255 316.166)scale(0.144 -0.144)">
      <use xlink:href="#DejaVuSans-6c"/>
      <use x="27.783203125" xlink:href="#DejaVuSans-6f"/>
      <use x="88.96484375" xlink:href="#DejaVuSans-63"/>
      <use x="143.9453125" xlink:href="#DejaVuSans-61"/>
      <use x="205.224609375" xlink:href="#DejaVuSans-6c"/>
      <use x="233.0078125" xlink:href="#DejaVuSans-69"/>
      <use x="260.791015625" xlink:href="#DejaVuSans-74"/>
      <use x="300.0" xlink:href="#DejaVuSans-79"/>
      <use x="359.1796875" xlink:href="#DejaVuSans-23"/>
      <use x="442.96875" xlink:href="#DejaVuSans-37"/>
     </g>
    </g>
    <g id="line2d_69">
     <path d="
M481.255 332.262
L501.415 332.262" style="fill:none;stroke:#0000ff;stroke-linecap:square;"/>
    </g>
    <g id="line2d_70"/>
    <g id="text_30">
     <!-- locality#8 -->
     <defs>
      <path d="
M31.7812 34.625
Q24.75 34.625 20.7188 30.8594
Q16.7031 27.0938 16.7031 20.5156
Q16.7031 13.9219 20.7188 10.1562
Q24.75 6.39062 31.7812 6.39062
Q38.8125 6.39062 42.8594 10.1719
Q46.9219 13.9688 46.9219 20.5156
Q46.9219 27.0938 42.8906 30.8594
Q38.875 34.625 31.7812 34.625
M21.9219 38.8125
Q15.5781 40.375 12.0312 44.7188
Q8.5 49.0781 8.5 55.3281
Q8.5 64.0625 14.7188 69.1406
Q20.9531 74.2188 31.7812 74.2188
Q42.6719 74.2188 48.875 69.1406
Q55.0781 64.0625 55.0781 55.3281
Q55.0781 49.0781 51.5312 44.7188
Q48 40.375 41.7031 38.8125
Q48.8281 37.1562 52.7969 32.3125
Q56.7812 27.4844 56.7812 20.5156
Q56.7812 9.90625 50.3125 4.23438
Q43.8438 -1.42188 31.7812 -1.42188
Q19.7344 -1.42188 13.25 4.23438
Q6.78125 9.90625 6.78125 20.5156
Q6.78125 27.4844 10.7812 32.3125
Q14.7969 37.1562 21.9219 38.8125
M18.3125 54.3906
Q18.3125 48.7344 21.8438 45.5625
Q25.3906 42.3906 31.7812 42.3906
Q38.1406 42.3906 41.7188 45.5625
Q45.3125 48.7344 45.3125 54.3906
Q45.3125 60.0625 41.7188 63.2344
Q38.1406 66.4062 31.7812 66.4062
Q25.3906 66.4062 21.8438 63.2344
Q18.3125 60.0625 18.3125 54.3906" id="DejaVuSans-38"/>
     </defs>
     <g transform="translate(517.255 337.3025)scale(0.144 -0.144)">
      <use xlink:href="#DejaVuSans-6c"/>
      <use x="27.783203125" xlink:href="#DejaVuSans-6f"/>
      <use x="88.96484375" xlink:href="#DejaVuSans-63"/>
      <use x="143.9453125" xlink:href="#DejaVuSans-61"/>
      <use x="205.224609375" xlink:href="#DejaVuSans-6c"/>
      <use x="233.0078125" xlink:href="#DejaVuSans-69"/>
      <use x="260.791015625" xlink:href="#DejaVuSans-74"/>
      <use x="300.0" xlink:href="#DejaVuSans-79"/>
      <use x="359.1796875" xlink:href="#DejaVuSans-23"/>
      <use x="442.96875" xlink:href="#DejaVuSans-38"/>
     </g>
    </g>
    <g id="line2d_71">
     <path d="
M481.255 353.399
L501.415 353.399" style="fill:none;stroke:#008000;stroke-linecap:square;"/>
    </g>
    <g id="line2d_72"/>
    <g id="text_31">
     <!-- locality#9 -->
     <g transform="translate(517.255 358.439)scale(0.144 -0.144)">
      <use xlink:href="#DejaVuSans-6c"/>
      <use x="27.783203125" xlink:href="#DejaVuSans-6f"/>
      <use x="88.96484375" xlink:href="#DejaVuSans-63"/>
      <use x="143.9453125" xlink:href="#DejaVuSans-61"/>
      <use x="205.224609375" xlink:href="#DejaVuSans-6c"/>
      <use x="233.0078125" xlink:href="#DejaVuSans-69"/>
      <use x="260.791015625" xlink:href="#DejaVuSans-74"/>
      <use x="300.0" xlink:href="#DejaVuSans-79"/>
      <use x="359.1796875" xlink:href="#DejaVuSans-23"/>
      <use x="442.96875" xlink:href="#DejaVuSans-39"/>
     </g>
    </g>
   </g>
  </g>
 </g>
 <defs>
  <clipPath id="pf51f381abf">
   <rect height="345.6" width="446.4" x="17.575" y="23.14175"/>
  </clipPath>
 </defs>
</svg>
