<?xml version="1.0" encoding="utf-8" standalone="no"?>
<!DOCTYPE svg PUBLIC "-//W3C//DTD SVG 1.1//EN"
  "http://www.w3.org/Graphics/SVG/1.1/DTD/svg11.dtd">
<!-- Created with matplotlib (http://matplotlib.org/) -->
<svg height="408pt" version="1.1" viewBox="0 0 655 408" width="655pt" xmlns="http://www.w3.org/2000/svg" xmlns:xlink="http://www.w3.org/1999/xlink">
 <defs>
  <style type="text/css">
*{stroke-linecap:butt;stroke-linejoin:round;}
  </style>
 </defs>
 <g id="figure_1">
  <g id="patch_1">
   <path d="
M0 408.169
L655.558 408.169
L655.558 0
L0 0
z
" style="fill:#ffffff;"/>
  </g>
  <g id="axes_1">
   <g id="patch_2">
    <path d="
M62.9688 368.742
L509.369 368.742
L509.369 23.1417
L62.9688 23.1417
z
" style="fill:#ffffff;"/>
   </g>
   <g id="line2d_1">
    <path clip-path="url(#p0e537c530d)" d="
M62.9688 368.742
L63.8633 368.316
L64.7579 367.39
L65.6525 367.209
L66.5471 366.867
L68.3363 366.456
L69.2309 366.142
L80.8605 363.872
L82.6497 363.636
L84.4389 363.155
L89.8064 362.311
L92.4902 361.835
L94.2794 361.476
L98.7523 360.643
L104.12 359.657
L111.277 358.405
L113.066 358.011
L116.644 357.251
L122.012 356.326
L122.906 356.153
L123.801 355.642
L130.063 354.582
L132.747 354.009
L134.536 353.059
L135.43 352.924
L136.325 352.644
L147.06 350.658
L160.479 348.009
L164.057 347.35
L166.741 346.759
L167.636 346.232
L192.684 341.457
L198.052 340.467
L198.946 339.926
L206.998 338.45
L207.892 338.316
L209.681 337.836
L212.365 337.364
L216.838 336.416
L219.522 335.906
L221.311 334.856
L229.362 333.333
L232.941 332.708
L235.624 332.118
L240.097 331.347
L241.887 330.99
L247.254 329.98
L254.411 328.639
L257.989 328.034
L270.513 325.632
L273.197 325.034
L283.038 323.242
L285.721 322.719
L286.616 322.297
L288.405 321.911
L291.089 321.355
L292.878 321.054
L294.667 320.582
L296.457 320.296
L298.246 319.938
L300.929 319.502
L304.508 318.674
L308.086 317.886
L309.875 317.354
L316.137 316.145
L320.61 315.269
L321.505 314.738
L334.029 312.394
L337.608 311.793
L339.397 311.371
L342.081 310.903
L343.87 310.499
L345.659 310.215
L349.237 309.523
L357.289 308.163
L359.078 307.695
L359.972 307.175
L376.97 303.778
L377.864 303.304
L380.548 302.825
L381.442 302.407
L386.81 301.436
L387.705 301.151
L390.388 300.738
L393.072 300.079
L396.651 299.437
L403.807 297.964
L408.28 297.125
L410.964 296.663
L419.91 294.904
L420.804 294.485
L423.488 293.832
L424.383 293.447
L427.067 292.903
L427.961 292.717
L428.856 292.408
L436.012 291.098
L436.907 290.999
L439.591 290.393
L441.38 290.089
L443.169 289.659
L448.537 288.736
L450.326 288.273
L452.115 287.874
L453.904 287.534
L454.799 286.796
L460.166 285.721
L461.061 285.566
L461.956 285.162
L465.534 284.556
L468.218 283.885
L470.901 283.406
L473.585 282.884
L478.953 281.925
L479.847 281.433
L482.531 280.804
L487.899 279.931
L491.477 279.294
L493.266 278.919
L495.95 278.317
L503.107 276.798
L509.369 275.551
L509.369 275.551" style="fill:none;stroke:#0000ff;stroke-linecap:square;"/>
   </g>
   <g id="line2d_2">
    <path clip-path="url(#p0e537c530d)" d="
M62.9688 368.742
L63.8633 368.458
L64.7579 368.266
L71.0201 367.142
L73.7038 366.64
L75.493 366.331
L80.8605 365.447
L84.4389 364.911
L88.9118 364.16
L90.701 363.827
L91.5956 363.686
L92.4902 363.418
L105.014 361.268
L107.698 360.742
L110.382 360.308
L112.171 359.966
L115.75 359.42
L117.539 359.101
L121.117 358.534
L122.012 358.272
L124.695 357.889
L127.379 357.346
L129.168 357.022
L135.43 355.882
L173.003 349.093
L175.687 348.72
L178.371 348.113
L185.527 346.748
L187.317 346.37
L191.79 345.408
L196.263 344.476
L198.052 344.136
L202.525 343.291
L206.998 342.478
L208.787 342.174
L209.681 341.963
L211.471 341.661
L219.522 340.119
L222.206 339.555
L224.889 339.094
L227.573 338.413
L245.465 335.038
L247.254 334.597
L249.938 334.045
L256.2 332.826
L263.357 331.293
L270.513 329.92
L288.405 326.457
L290.194 326.12
L292.878 325.658
L300.929 324.128
L304.508 323.367
L314.348 321.568
L315.243 321.283
L316.137 321.157
L317.032 320.871
L321.505 320.143
L323.294 319.669
L328.662 318.65
L334.924 317.482
L338.502 316.803
L343.87 315.748
L348.343 314.899
L350.132 314.487
L351.921 314.071
L359.078 312.696
L361.762 312.212
L363.551 311.801
L383.232 308.156
L388.599 307.209
L390.388 306.83
L393.967 306.214
L402.018 304.669
L402.913 304.413
L405.596 303.965
L408.28 303.403
L412.753 302.518
L430.645 298.899
L442.275 296.876
L445.853 296.193
L452.115 295.011
L458.377 293.841
L461.956 293.198
L479.847 289.665
L488.793 288.007
L490.582 287.568
L501.317 285.569
L504.001 285.027
L509.369 283.964
L509.369 283.964" style="fill:none;stroke:#008000;stroke-linecap:square;"/>
   </g>
   <g id="line2d_3">
    <path clip-path="url(#p0e537c530d)" d="
M62.9688 368.742
L63.8633 368.161
L64.7579 367.711
L65.6525 367.32
L66.5471 366.793
L69.2309 365.535
L71.0201 364.726
L82.6497 359.326
L85.3335 358.144
L88.0172 357.127
L89.8064 356.203
L99.6469 351.59
L100.541 350.996
L101.436 350.649
L102.331 350.135
L105.014 348.992
L113.066 345.226
L117.539 342.791
L126.485 338.436
L128.274 337.411
L130.958 335.934
L131.852 335.263
L133.641 334.343
L135.43 333.581
L137.22 332.542
L138.114 332.126
L139.903 331.171
L142.587 329.809
L145.271 328.394
L146.166 328.098
L151.533 325.366
L153.322 324.583
L155.111 323.663
L164.057 319.126
L165.847 317.996
L168.53 316.52
L171.214 315.186
L175.687 313.085
L176.582 312.448
L178.371 311.647
L179.265 311.159
L180.16 310.868
L182.844 309.565
L189.106 306.11
L192.684 304.263
L195.368 302.736
L204.314 298.129
L206.103 297.034
L212.365 293.946
L214.154 292.938
L215.049 292.544
L217.733 290.921
L218.627 290.551
L220.416 289.487
L221.311 289.111
L222.206 288.576
L224.889 287.277
L226.679 286.178
L228.468 285.264
L232.046 283.754
L235.624 281.762
L239.203 279.902
L240.097 279.152
L243.676 277.39
L246.36 276.111
L248.149 275.187
L249.938 274.305
L253.516 272.411
L254.411 272.084
L258.884 269.616
L259.778 268.958
L260.673 268.528
L261.568 267.933
L264.251 266.697
L269.619 263.776
L272.303 262.563
L274.986 261.054
L277.67 259.792
L280.354 258.325
L281.249 257.912
L283.038 256.913
L293.773 251.565
L297.351 249.853
L299.14 248.905
L300.035 248.353
L300.929 247.986
L301.824 247.455
L302.719 246.658
L305.402 245.189
L306.297 244.56
L308.086 243.672
L311.665 242.068
L316.137 239.926
L317.032 239.166
L317.927 238.818
L318.821 238.235
L321.505 237.04
L322.4 236.477
L324.189 235.086
L328.662 232.926
L330.451 231.71
L331.346 231.325
L334.029 229.896
L334.924 229.455
L335.818 229.141
L342.081 225.883
L342.975 225.001
L343.87 224.367
L344.764 224.029
L346.554 223.035
L349.237 221.757
L352.816 219.919
L354.605 218.916
L355.499 218.5
L358.183 216.938
L376.075 208.085
L376.97 207.359
L377.864 207.033
L379.653 205.948
L383.232 204.231
L386.81 202.58
L391.283 200.216
L397.545 196.728
L399.334 195.921
L402.018 194.333
L402.913 193.682
L404.702 192.827
L406.491 192.043
L407.386 191.64
L408.28 191.109
L409.175 190.709
L410.069 190.165
L410.964 189.762
L411.859 189.129
L421.699 183.866
L426.172 181.113
L428.856 179.806
L433.329 177.568
L434.223 176.972
L436.907 175.767
L444.064 171.817
L448.537 169.823
L451.22 168.505
L453.01 167.524
L454.799 166.613
L455.693 166.226
L456.588 165.698
L459.272 164.509
L461.061 163.522
L463.745 161.915
L464.639 161.581
L466.428 160.471
L484.32 151.475
L493.266 146.708
L497.739 144.498
L499.528 143.549
L501.317 142.654
L502.212 142.024
L503.107 141.669
L509.369 138.106
L509.369 138.106" style="fill:none;stroke:#ff0000;stroke-linecap:square;"/>
   </g>
   <g id="line2d_4">
    <path clip-path="url(#p0e537c530d)" d="
M62.9688 368.742
L63.8633 367.632
L64.7579 367.122
L65.6525 366.797
L67.4417 365.961
L74.5984 363.169
L76.3876 362.447
L82.6497 360.055
L84.4389 359.198
L87.1227 358.217
L92.4902 355.497
L95.174 354.451
L96.9631 353.824
L98.7523 353.05
L101.436 351.925
L105.014 350.346
L106.804 349.685
L107.698 349.172
L110.382 348.163
L121.117 343.176
L122.012 342.667
L123.801 341.959
L126.485 340.683
L129.168 339.376
L131.852 338.259
L132.747 337.746
L134.536 337.058
L136.325 336.064
L140.798 334.206
L141.693 333.74
L143.482 333.097
L156.006 327.606
L156.901 327.29
L157.795 326.845
L158.69 326.217
L161.374 325.056
L162.268 324.561
L164.057 323.866
L165.847 322.802
L169.425 321.281
L173.898 319.161
L174.792 318.582
L175.687 318.237
L176.582 317.693
L178.371 316.952
L181.949 315.347
L183.738 314.39
L185.527 313.555
L186.422 312.958
L194.473 308.891
L196.263 307.832
L198.052 307.063
L199.841 306.085
L200.735 305.751
L203.419 304.339
L209.681 301.498
L210.576 301.211
L217.733 297.859
L218.627 297.532
L220.416 296.677
L221.311 296.36
L223.1 295.464
L225.784 294.08
L227.573 293.213
L229.362 292.437
L230.257 292.121
L234.73 289.998
L235.624 289.622
L236.519 289.084
L237.414 288.71
L238.308 288.193
L240.992 286.97
L242.781 286.078
L246.36 284.511
L248.149 283.667
L252.622 281.519
L255.305 280.435
L256.2 279.917
L257.989 279.064
L260.673 277.554
L263.357 276.344
L264.251 275.984
L265.146 275.495
L266.04 274.875
L272.303 272.231
L285.721 266.25
L288.405 264.87
L291.089 263.665
L291.984 263.354
L292.878 262.853
L294.667 262.133
L296.457 261.102
L300.929 259.106
L302.719 257.931
L305.402 256.715
L308.086 255.477
L310.77 254.383
L314.348 252.729
L316.137 251.991
L317.032 251.416
L322.4 249.071
L324.189 247.878
L329.556 245.767
L330.451 245.3
L332.24 244.642
L334.924 243.339
L335.818 243.072
L342.081 240.226
L343.87 239.168
L344.764 238.846
L346.554 237.958
L359.078 232.019
L360.867 231.3
L361.762 230.979
L362.656 230.505
L364.445 229.882
L365.34 229.309
L367.129 228.571
L368.024 228.154
L368.918 227.882
L372.497 226.214
L373.391 225.897
L375.18 225.066
L376.075 224.781
L376.97 224.245
L377.864 223.904
L379.653 222.933
L380.548 222.498
L381.442 222.218
L383.232 221.307
L386.81 219.991
L393.072 217.086
L394.861 216.352
L397.545 215.056
L398.44 214.787
L404.702 211.651
L405.596 211.357
L410.069 209.159
L410.964 208.816
L411.859 208.311
L414.542 207.189
L415.437 206.664
L417.226 205.845
L419.015 204.887
L423.488 202.63
L425.277 201.673
L427.961 200.436
L431.539 198.886
L432.434 198.261
L435.118 197.092
L437.802 195.877
L438.696 195.566
L439.591 195.025
L441.38 194.24
L444.064 192.813
L445.853 192.043
L449.431 190.429
L450.326 190.158
L453.904 188.489
L454.799 188.015
L457.483 187.005
L461.061 185.357
L466.428 182.672
L467.323 182.358
L469.112 181.472
L477.164 177.998
L478.953 177.022
L482.531 175.536
L483.426 174.997
L486.109 173.848
L494.161 169.803
L496.845 168.667
L500.423 166.779
L509.369 162.445
L509.369 162.445" style="fill:none;stroke:#00bfbf;stroke-linecap:square;"/>
   </g>
   <g id="line2d_5">
    <path clip-path="url(#p0e537c530d)" d="
M62.9688 368.742
L63.8633 368.304
L64.7579 367.986
L67.4417 366.908
L70.1255 365.839
L72.8092 364.919
L78.1768 362.814
L82.6497 361.116
L84.4389 360.372
L98.7523 354.566
L100.541 353.791
L111.277 349.469
L112.171 348.986
L113.96 348.333
L118.433 346.43
L120.222 345.653
L121.117 345.298
L122.906 344.334
L131.852 340.758
L132.747 340.153
L135.43 338.996
L136.325 338.433
L140.798 336.74
L147.955 333.659
L153.322 331.328
L158.69 329.042
L162.268 327.493
L164.057 326.82
L165.847 325.96
L167.636 325.319
L173.898 322.667
L176.582 321.466
L177.476 321.154
L179.265 320.33
L181.055 319.644
L182.844 318.973
L198.052 312.504
L199.841 311.623
L201.63 310.851
L206.998 308.511
L208.787 307.801
L211.471 306.64
L212.365 306.295
L214.154 305.436
L216.838 304.412
L218.627 303.599
L220.416 302.804
L221.311 302.48
L222.206 302.019
L223.1 301.708
L223.995 301.229
L232.941 297.677
L239.203 294.758
L240.097 293.248
L242.781 291.845
L245.465 290.846
L249.043 289.307
L250.832 288.354
L254.411 286.831
L261.568 283.401
L265.146 281.975
L266.04 281.384
L268.724 280.276
L270.513 279.517
L272.303 278.867
L274.092 278.053
L279.459 275.993
L282.143 274.784
L291.089 271.062
L292.878 270.425
L299.14 267.806
L300.035 267.329
L300.929 266.991
L304.508 265.163
L308.086 263.58
L310.77 262.623
L317.927 259.72
L318.821 259.243
L322.4 257.832
L323.294 257.184
L329.556 254.55
L330.451 254.086
L331.346 253.817
L333.135 252.87
L340.291 249.954
L341.186 249.48
L342.081 249.142
L342.975 248.543
L346.554 246.874
L351.026 245.112
L352.816 244.355
L355.499 243.294
L356.394 242.862
L358.183 242.186
L359.972 241.407
L362.656 240.361
L366.234 238.836
L368.918 237.693
L370.707 236.906
L371.602 236.607
L373.391 235.865
L377.864 234.101
L378.759 233.587
L381.442 232.602
L384.126 231.53
L385.915 230.869
L388.599 229.798
L394.861 227.249
L395.756 226.932
L400.229 224.862
L402.018 224.035
L402.913 223.534
L407.386 221.759
L408.28 221.249
L409.175 220.97
L410.069 220.482
L410.964 220.145
L411.859 219.626
L412.753 219.31
L415.437 218.01
L417.226 217.35
L421.699 215.364
L424.383 214.09
L427.067 212.988
L428.856 212.105
L431.539 210.92
L432.434 210.344
L449.431 203.089
L451.22 202.449
L467.323 195.741
L468.218 195.267
L470.901 194.16
L474.48 192.736
L477.164 191.839
L478.953 190.99
L479.847 190.712
L480.742 190.228
L482.531 189.46
L484.32 188.661
L487.004 187.566
L488.793 186.528
L493.266 184.61
L502.212 181.017
L509.369 177.824
L509.369 177.824" style="fill:none;stroke:#bf00bf;stroke-linecap:square;"/>
   </g>
   <g id="line2d_6">
    <path clip-path="url(#p0e537c530d)" d="
M62.9688 368.742
L63.8633 368.406
L64.7579 368.13
L69.2309 366.956
L79.9659 364.455
L81.7551 363.998
L88.9118 362.272
L96.9631 360.158
L99.6469 359.526
L105.909 357.982
L108.593 357.31
L111.277 356.731
L113.066 356.194
L115.75 355.456
L123.801 353.273
L127.379 352.349
L129.168 351.931
L131.852 351.144
L133.641 350.66
L135.43 350.198
L139.009 349.158
L140.798 348.717
L145.271 347.576
L147.06 347.166
L164.952 342.384
L174.792 339.605
L175.687 339.446
L177.476 338.917
L179.265 338.452
L181.949 337.692
L188.211 335.874
L190 335.274
L191.79 334.773
L197.157 333.113
L198.946 332.626
L201.63 331.856
L203.419 331.251
L206.998 330.321
L207.892 330.123
L209.681 329.519
L212.365 328.865
L213.26 328.508
L221.311 326.385
L222.206 325.944
L223.995 325.338
L227.573 324.359
L234.73 322.532
L247.254 319.015
L248.149 318.824
L250.832 317.997
L252.622 317.465
L257.989 315.888
L260.673 315.005
L265.146 313.784
L266.935 313.243
L274.986 311.122
L277.67 310.481
L282.143 309.109
L285.721 308.14
L290.194 306.814
L295.562 305.375
L297.351 304.93
L308.981 301.607
L313.454 300.436
L322.4 297.973
L325.083 296.998
L328.662 296.186
L333.135 294.862
L342.975 292.284
L346.554 291.188
L349.237 290.61
L352.816 289.594
L363.551 286.752
L365.34 286.324
L367.129 285.82
L371.602 284.305
L374.286 283.597
L375.18 283.431
L380.548 281.791
L383.232 281.109
L385.021 280.66
L399.334 276.746
L400.229 276.455
L401.123 276.3
L412.753 272.523
L421.699 270.024
L425.277 268.896
L427.067 268.409
L433.329 266.699
L436.907 265.689
L443.169 263.938
L444.958 263.479
L451.22 261.782
L455.693 260.499
L456.588 260.182
L457.483 260.019
L459.272 259.458
L461.956 258.781
L462.85 258.433
L464.639 257.974
L466.428 257.39
L477.164 254.703
L480.742 253.624
L482.531 253.188
L483.426 252.82
L485.215 252.368
L487.899 251.536
L499.528 248.214
L501.317 247.777
L503.107 247.16
L505.79 246.397
L509.369 245.433
L509.369 245.433" style="fill:none;stroke:#bfbf00;stroke-linecap:square;"/>
   </g>
   <g id="line2d_7">
    <path clip-path="url(#p0e537c530d)" d="
M62.9688 368.734
L63.8633 368.024
L68.3363 366.809
L76.3876 364.956
L78.1768 364.544
L85.3335 363.063
L88.0172 362.472
L90.701 361.926
L92.4902 361.495
L96.0685 360.788
L98.7523 360.233
L111.277 357.807
L113.066 357.354
L120.222 355.705
L121.117 355.562
L122.012 355.273
L128.274 354.057
L139.009 351.519
L144.376 350.423
L150.638 349.118
L154.217 348.337
L163.163 346.338
L164.952 345.925
L167.636 345.216
L173.003 343.898
L178.371 342.669
L181.949 342.028
L199.841 337.718
L201.63 337.314
L214.154 334.368
L215.943 333.934
L229.362 330.896
L230.257 330.767
L232.046 330.326
L234.73 329.633
L237.414 329.046
L240.097 328.411
L242.781 327.665
L246.36 326.882
L253.516 325.16
L257.095 324.404
L261.568 323.227
L274.092 320.579
L280.354 319.174
L283.038 318.628
L285.721 317.886
L324.189 309.447
L326.873 308.855
L329.556 308.337
L331.346 307.908
L342.081 305.689
L342.975 305.206
L345.659 304.606
L348.343 304.048
L350.132 303.692
L353.71 302.924
L371.602 298.997
L377.864 297.674
L379.653 297.086
L383.232 296.344
L385.021 295.934
L386.81 295.496
L389.494 294.81
L402.018 291.961
L404.702 291.225
L406.491 290.886
L408.28 290.341
L409.175 290.208
L411.859 289.518
L414.542 289.003
L418.121 288.079
L419.015 287.932
L420.804 287.425
L423.488 286.73
L425.277 286.221
L427.067 285.82
L430.645 285.085
L451.22 280.473
L454.799 279.618
L455.693 279.474
L457.483 279.028
L467.323 276.789
L482.531 273.324
L485.215 272.662
L489.688 271.642
L494.161 270.737
L498.634 269.685
L504.001 268.367
L509.369 267.203
L509.369 267.203" style="fill:none;stroke:#000000;stroke-linecap:square;"/>
   </g>
   <g id="line2d_8">
    <path clip-path="url(#p0e537c530d)" d="
M62.9688 368.742
L63.8633 368.403
L69.2309 367.325
L71.9146 366.725
L75.493 366.218
L83.5443 364.881
L87.1227 364.374
L100.541 362.025
L111.277 360.02
L114.855 359.288
L118.433 358.596
L122.906 357.681
L127.379 356.833
L135.43 355.14
L136.325 354.852
L146.166 353.115
L148.849 352.547
L158.69 350.683
L160.479 350.251
L164.057 349.562
L166.741 348.957
L177.476 346.799
L180.16 346.242
L186.422 344.984
L187.317 344.529
L198.946 342.406
L203.419 341.423
L211.471 339.695
L215.049 339.007
L217.733 338.323
L218.627 338.194
L221.311 337.565
L224.889 336.883
L229.362 336.011
L236.519 334.623
L239.203 334.032
L246.36 332.432
L252.622 331.068
L264.251 328.544
L267.83 327.756
L273.197 326.577
L278.565 325.613
L282.143 324.868
L283.038 324.735
L285.721 324.104
L288.405 323.613
L290.194 323.241
L307.192 319.807
L310.77 319.071
L314.348 318.379
L320.61 317.042
L322.4 316.636
L324.189 316.12
L326.873 315.546
L337.608 313.508
L339.397 313.091
L341.186 312.712
L345.659 311.691
L351.026 310.65
L352.816 310.243
L356.394 309.585
L359.078 309.098
L366.234 307.786
L385.915 303.807
L388.599 303.286
L391.283 302.743
L422.594 296.39
L424.383 295.933
L436.907 293.503
L443.169 292.284
L457.483 289.376
L461.061 288.67
L469.112 286.845
L473.585 286.014
L475.374 285.652
L477.164 285.227
L481.636 284.316
L486.109 283.404
L492.372 282.096
L496.845 281.302
L501.317 280.406
L508.474 279.052
L509.369 278.872
L509.369 278.872" style="fill:none;stroke:#0000ff;stroke-linecap:square;"/>
   </g>
   <g id="line2d_9">
    <path clip-path="url(#p0e537c530d)" d="
M62.9688 368.742
L63.8633 368.46
L64.7579 368.269
L67.4417 367.74
L69.2309 367.274
L75.493 365.865
L83.5443 364.259
L86.2281 363.696
L92.4902 362.353
L96.9631 361.495
L106.804 359.063
L110.382 358.33
L130.063 353.547
L131.852 353.148
L133.641 352.61
L135.43 352.218
L140.798 350.987
L141.693 350.659
L146.166 349.63
L178.371 341.95
L180.16 341.359
L186.422 339.764
L192.684 338.201
L196.263 337.362
L198.946 336.717
L199.841 336.333
L203.419 335.416
L205.208 334.887
L215.049 332.541
L216.838 332.085
L220.416 331.148
L223.995 330.319
L229.362 328.999
L247.254 324.679
L251.727 323.725
L256.2 322.383
L259.778 321.465
L262.462 320.89
L268.724 319.401
L270.513 318.953
L271.408 318.783
L272.303 318.377
L276.776 317.354
L280.354 316.598
L303.613 311.302
L307.192 310.48
L312.559 309.184
L313.454 309.02
L315.243 308.503
L317.032 308.064
L323.294 306.618
L325.083 306.158
L325.978 306.016
L327.767 305.513
L332.24 304.411
L334.924 303.739
L337.608 303.248
L349.237 300.375
L351.026 300.005
L351.921 299.651
L355.499 298.805
L360.867 297.479
L373.391 294.709
L375.18 294.259
L378.759 293.336
L380.548 292.908
L384.126 292.13
L399.334 288.433
L406.491 286.673
L411.859 285.242
L415.437 284.34
L419.015 283.492
L420.804 282.872
L423.488 282.195
L426.172 281.485
L427.961 281.113
L429.75 280.679
L431.539 280.317
L432.434 279.905
L437.802 278.713
L438.696 278.572
L440.485 278.149
L443.169 277.479
L446.748 276.604
L448.537 276.175
L451.22 275.496
L452.115 275.106
L454.799 274.466
L457.483 273.974
L465.534 272.063
L466.428 271.782
L468.218 271.391
L470.901 270.798
L472.691 270.344
L474.48 269.954
L476.269 269.5
L478.058 269.107
L483.426 267.812
L509.369 261.963
L509.369 261.963" style="fill:none;stroke:#008000;stroke-linecap:square;"/>
   </g>
   <g id="line2d_10">
    <path clip-path="url(#p0e537c530d)" d="
M62.9688 368.742
L63.8633 368.393
L73.7038 366.219
L78.1768 365.136
L83.5443 363.983
L112.171 357.581
L122.012 354.955
L125.59 354.176
L127.379 353.71
L130.063 353.087
L131.852 352.616
L133.641 352.02
L138.114 350.924
L145.271 349.1
L147.06 348.629
L148.849 348.115
L156.901 345.91
L158.69 345.462
L161.374 344.702
L164.952 343.649
L167.636 342.786
L192.684 336.139
L195.368 335.291
L197.157 334.858
L204.314 332.909
L207.892 332.022
L225.784 327.208
L227.573 326.708
L228.468 326.527
L231.152 325.69
L236.519 324.254
L238.308 323.705
L240.992 323.01
L242.781 322.517
L245.465 321.916
L248.149 321.249
L249.938 320.743
L254.411 319.57
L257.095 318.756
L258.884 318.152
L262.462 317.294
L268.724 315.649
L281.249 312.474
L282.143 312.157
L286.616 311.065
L289.3 310.128
L296.457 308.431
L297.351 308.106
L301.824 307.007
L303.613 306.443
L307.192 305.539
L308.981 305.039
L311.665 304.283
L313.454 303.896
L314.348 303.538
L316.137 303.175
L317.032 302.793
L317.927 302.628
L318.821 302.329
L319.716 302.154
L320.61 301.747
L322.4 301.29
L325.083 300.453
L326.873 300.031
L334.029 298.178
L338.502 297.105
L343.87 295.648
L345.659 295.219
L347.448 294.736
L356.394 292.252
L358.183 291.831
L360.867 291.143
L361.762 290.958
L363.551 290.406
L366.234 289.667
L370.707 288.416
L376.075 287.072
L376.97 286.648
L377.864 286.454
L378.759 286.134
L381.442 285.442
L386.81 283.993
L387.705 283.642
L391.283 282.806
L400.229 280.39
L402.018 279.987
L404.702 279.244
L407.386 278.559
L411.859 277.429
L412.753 277.242
L414.542 276.727
L417.226 276.023
L443.169 268.91
L444.958 268.44
L446.748 267.808
L450.326 266.843
L453.904 265.77
L455.693 265.236
L465.534 262.573
L468.218 261.848
L470.901 261.186
L472.691 260.632
L473.585 260.453
L476.269 259.649
L481.636 258.247
L483.426 257.689
L485.215 257.196
L496.845 254.214
L497.739 253.858
L498.634 253.648
L501.317 252.738
L504.001 252.015
L509.369 250.591
L509.369 250.591" style="fill:none;stroke:#ff0000;stroke-linecap:square;"/>
   </g>
   <g id="line2d_11">
    <path clip-path="url(#p0e537c530d)" d="
M62.9688 368.742
L63.8633 368.314
L71.9146 365.778
L73.7038 365.131
L77.2822 364.123
L79.0714 363.531
L91.5956 360.065
L94.2794 359.232
L96.9631 358.45
L99.6469 357.529
L101.436 356.798
L103.225 356.225
L105.014 355.694
L108.593 354.68
L109.487 354.457
L111.277 353.789
L114.855 352.597
L116.644 351.98
L118.433 351.34
L132.747 346.533
L139.903 344.123
L140.798 343.352
L144.376 342.099
L147.06 341.297
L151.533 339.641
L158.69 337.307
L160.479 336.644
L163.163 335.806
L169.425 333.573
L170.319 333.121
L172.109 332.576
L173.898 331.958
L176.582 331.034
L178.371 330.333
L185.527 327.909
L186.422 327.456
L194.473 324.662
L201.63 322.153
L209.681 319.278
L211.471 318.711
L213.26 318.058
L228.468 312.815
L230.257 311.958
L232.941 310.995
L238.308 309.193
L240.992 308.221
L242.781 307.554
L245.465 306.791
L247.254 306.139
L248.149 305.916
L250.832 304.908
L253.516 303.963
L270.513 298.27
L275.881 296.318
L278.565 295.509
L283.038 293.923
L286.616 292.869
L293.773 290.477
L295.562 289.919
L301.824 287.834
L303.613 287.102
L307.192 286.021
L309.875 285.091
L311.665 284.464
L313.454 283.822
L317.032 282.457
L317.927 282.197
L319.716 281.475
L323.294 280.163
L329.556 278.008
L331.346 277.373
L334.924 276.213
L335.818 275.963
L336.713 275.589
L337.608 275.352
L338.502 274.927
L342.081 273.67
L343.87 272.995
L345.659 272.381
L346.554 271.992
L347.448 271.744
L349.237 271.111
L352.816 269.907
L376.075 261.512
L376.97 261.119
L377.864 260.856
L379.653 260.152
L385.915 258.037
L388.599 257.163
L392.178 255.877
L393.967 255.206
L400.229 252.924
L402.018 252.367
L403.807 251.66
L408.28 250.151
L410.069 249.422
L410.964 249.166
L411.859 248.775
L414.542 247.933
L419.91 245.847
L420.804 245.58
L423.488 244.482
L427.067 243.186
L429.75 242.138
L430.645 241.921
L431.539 241.411
L446.748 236.316
L453.01 234.12
L454.799 233.404
L457.483 232.547
L464.639 229.963
L470.007 227.962
L471.796 227.4
L476.269 225.839
L479.847 224.683
L482.531 223.623
L487.004 221.9
L488.793 221.357
L490.582 220.528
L493.266 219.608
L495.055 219.028
L496.845 218.473
L498.634 217.782
L501.317 216.776
L502.212 216.412
L504.896 215.602
L506.685 215.064
L508.474 214.366
L509.369 214.106
L509.369 214.106" style="fill:none;stroke:#00bfbf;stroke-linecap:square;"/>
   </g>
   <g id="line2d_12">
    <path clip-path="url(#p0e537c530d)" d="
M62.9688 368.742
L63.8633 368.251
L70.1255 366.019
L71.9146 365.244
L74.5984 364.264
L83.5443 361.187
L84.4389 360.925
L85.3335 360.504
L87.1227 359.881
L88.9118 359.161
L97.8577 355.854
L102.331 354.066
L104.12 353.403
L105.014 352.959
L111.277 350.715
L113.96 349.534
L115.75 348.616
L121.117 346.464
L122.012 346.044
L122.906 345.777
L126.485 344.148
L127.379 343.491
L130.063 342.439
L132.747 341.066
L138.114 338.99
L139.009 338.421
L144.376 336.198
L147.955 334.525
L150.638 333.392
L151.533 332.923
L152.428 332.638
L153.322 332.168
L156.006 331.175
L157.795 330.425
L160.479 329.205
L163.163 328.165
L168.53 325.585
L173.003 323.783
L177.476 321.672
L178.371 321.362
L181.055 320.176
L182.844 319.514
L184.633 318.697
L186.422 317.537
L189.106 316.301
L198.052 312.457
L199.841 311.635
L202.525 310.583
L205.208 309.311
L206.103 309.003
L206.998 308.553
L207.892 308.281
L213.26 305.932
L215.049 305.269
L215.943 304.741
L219.522 303.206
L223.995 301.06
L225.784 300.353
L227.573 299.601
L228.468 299.231
L230.257 298.346
L242.781 292.956
L245.465 291.961
L249.043 290.356
L251.727 289.281
L256.2 287.379
L257.095 286.807
L267.83 282.371
L269.619 281.76
L287.511 274.299
L291.089 272.761
L291.984 272.452
L292.878 271.921
L295.562 270.801
L297.351 270.149
L300.929 268.701
L303.613 267.466
L305.402 266.676
L308.086 265.542
L309.875 264.868
L312.559 263.577
L313.454 263.267
L315.243 262.385
L316.137 262.07
L317.032 261.592
L317.927 261.286
L318.821 260.725
L320.61 260.049
L324.189 258.519
L325.083 258.093
L325.978 257.842
L327.767 257.011
L329.556 256.348
L333.135 254.975
L335.818 254.02
L337.608 253.279
L339.397 252.486
L340.291 252.183
L342.975 250.939
L351.026 247.35
L351.921 246.738
L356.394 244.732
L358.183 244.057
L360.867 242.936
L361.762 242.626
L362.656 242.116
L367.129 240.176
L368.918 239.469
L371.602 238.349
L372.497 237.895
L375.18 236.88
L377.864 235.785
L378.759 235.33
L380.548 234.621
L382.337 233.833
L384.126 232.939
L390.388 230.48
L394.861 228.349
L395.756 228.066
L397.545 227.239
L398.44 226.961
L403.807 224.567
L409.175 222.514
L410.069 221.997
L410.964 221.75
L411.859 221.284
L414.542 220.312
L416.331 219.487
L419.91 217.778
L421.699 217.12
L424.383 215.718
L425.277 215.429
L426.172 214.766
L430.645 213.075
L434.223 211.422
L435.118 211.122
L436.012 210.659
L438.696 209.749
L440.485 208.834
L448.537 205.252
L451.22 204.222
L452.115 203.718
L454.799 202.624
L456.588 201.831
L461.956 199.702
L464.639 198.6
L470.901 196.175
L472.691 195.347
L473.585 195.05
L476.269 193.842
L477.164 193.528
L478.953 192.7
L480.742 191.971
L481.636 191.684
L492.372 186.695
L494.161 186.073
L496.845 185.137
L498.634 184.382
L502.212 182.538
L503.107 182.239
L505.79 181.048
L507.58 180.325
L509.369 179.569
L509.369 179.569" style="fill:none;stroke:#bf00bf;stroke-linecap:square;"/>
   </g>
   <g id="line2d_13">
    <path clip-path="url(#p0e537c530d)" d="
M62.9688 368.742
L63.8633 368.124
L66.5471 366.88
L91.5956 356.181
L94.2794 354.884
L96.9631 353.574
L100.541 351.76
L103.225 350.365
L105.014 349.563
L105.909 348.989
L108.593 347.977
L116.644 344.025
L118.433 343.061
L120.222 342.224
L122.906 341.067
L126.485 339.41
L129.168 338.046
L136.325 334.643
L139.903 332.991
L140.798 332.334
L146.166 329.954
L147.955 329.031
L150.638 327.872
L151.533 327.354
L152.428 327
L153.322 326.386
L156.901 324.921
L157.795 324.483
L159.584 323.206
L162.268 321.869
L163.163 321.49
L168.53 318.491
L169.425 318.123
L170.319 317.59
L171.214 317.31
L176.582 314.559
L178.371 313.818
L179.265 313.347
L180.16 313.013
L185.527 310.13
L186.422 309.351
L188.211 308.44
L201.63 301.655
L204.314 300.171
L206.103 299.279
L207.892 298.471
L208.787 297.834
L209.681 297.348
L210.576 297.013
L214.154 295.12
L215.049 294.783
L215.943 294.103
L218.627 292.955
L220.416 291.881
L223.1 290.694
L224.889 289.706
L225.784 289.015
L233.835 284.975
L236.519 283.451
L238.308 282.645
L239.203 282.231
L240.097 281.642
L243.676 279.976
L249.043 277.516
L250.832 276.48
L257.989 273.008
L261.568 271.038
L265.146 269.424
L266.04 268.808
L268.724 267.651
L274.092 264.995
L274.986 264.679
L275.881 264.129
L278.565 262.839
L279.459 262.349
L280.354 262.013
L283.932 260.202
L285.721 259.453
L288.405 258.066
L289.3 257.482
L292.878 255.819
L294.667 254.96
L296.457 254.221
L298.246 253.325
L300.929 252.229
L306.297 249.561
L309.875 247.874
L310.77 247.291
L324.189 240.606
L325.083 240.058
L328.662 238.373
L330.451 237.38
L331.346 237.059
L340.291 232.703
L342.081 231.852
L343.87 230.87
L344.764 230.541
L356.394 224.43
L358.183 223.638
L360.867 222.196
L363.551 220.703
L365.34 219.834
L368.918 218.115
L370.707 217.185
L371.602 216.817
L372.497 216.266
L375.18 215.066
L377.864 213.858
L378.759 213.164
L381.442 212.126
L382.337 211.682
L385.021 210.655
L390.388 208.23
L394.861 205.919
L395.756 205.587
L397.545 204.683
L399.334 203.944
L401.123 203.024
L402.018 202.605
L402.913 202.033
L404.702 201.26
L405.596 200.885
L408.28 199.457
L409.175 199.094
L410.069 198.514
L410.964 198.187
L411.859 197.653
L414.542 196.449
L415.437 195.899
L416.331 195.487
L418.121 194.482
L419.015 194.138
L419.91 193.153
L420.804 192.827
L424.383 190.549
L425.277 190.18
L426.172 189.663
L428.856 188.421
L429.75 187.947
L430.645 187.613
L432.434 186.472
L435.118 185.207
L436.012 184.591
L436.907 184.251
L437.802 183.676
L441.38 182.087
L442.275 181.568
L444.064 180.85
L445.853 180.123
L449.431 178.609
L450.326 178.277
L452.115 177.34
L457.483 174.979
L459.272 174.049
L464.639 171.282
L470.901 167.941
L476.269 165.385
L478.953 163.873
L481.636 162.626
L487.899 159.352
L488.793 158.987
L489.688 158.329
L495.95 155.497
L497.739 154.658
L499.528 153.701
L500.423 153.34
L502.212 152.348
L503.107 151.995
L508.474 149.168
L509.369 148.82
L509.369 148.82" style="fill:none;stroke:#bfbf00;stroke-linecap:square;"/>
   </g>
   <g id="line2d_14">
    <path clip-path="url(#p0e537c530d)" d="
M62.9688 368.742
L63.8633 368.199
L64.7579 367.755
L67.4417 366.568
L72.8092 363.983
L75.493 362.641
L91.5956 355.399
L93.3848 354.391
L95.174 353.746
L97.8577 352.507
L99.6469 351.696
L105.909 348.483
L111.277 346.029
L113.96 344.736
L116.644 343.177
L118.433 342.349
L120.222 341.449
L121.117 341.115
L122.012 340.471
L122.906 340.104
L127.379 337.665
L128.274 337.313
L130.063 336.226
L131.852 335.324
L133.641 334.166
L135.43 333.274
L137.22 332.24
L139.903 330.964
L143.482 329.287
L144.376 328.722
L150.638 325.612
L153.322 324.231
L158.69 321.489
L162.268 319.325
L163.163 318.962
L173.898 313.057
L175.687 312.215
L176.582 311.566
L178.371 310.725
L181.055 309.45
L182.844 308.63
L185.527 307.1
L186.422 306.499
L194.473 302.481
L196.263 301.41
L198.052 300.463
L202.525 298.085
L206.998 295.186
L207.892 294.848
L208.787 294.212
L243.676 275.063
L249.043 272.452
L250.832 271.301
L251.727 270.986
L253.516 269.968
L257.095 268.051
L258.884 267.013
L259.778 266.474
L260.673 266.071
L261.568 265.539
L264.251 264.441
L265.146 263.879
L266.04 263.117
L269.619 261.417
L270.513 260.853
L272.303 259.992
L273.197 259.382
L282.143 254.832
L283.932 253.91
L286.616 252.6
L289.3 251.205
L291.089 250.316
L291.984 249.871
L293.773 248.707
L294.667 248.354
L300.035 245.518
L301.824 244.647
L302.719 243.937
L305.402 242.601
L308.086 241.274
L308.981 240.931
L316.137 237.278
L317.032 236.542
L320.61 234.367
L322.4 233.403
L325.083 231.704
L329.556 229.394
L330.451 228.821
L332.24 227.944
L334.924 226.53
L342.081 223.111
L343.87 221.881
L344.764 221.577
L345.659 220.984
L348.343 219.714
L349.237 219.373
L350.132 218.782
L351.026 218.382
L351.921 217.786
L353.71 216.758
L365.34 210.432
L366.234 210.073
L368.024 209.041
L368.918 208.642
L370.707 207.622
L372.497 206.715
L376.075 205.009
L376.97 204.385
L377.864 203.929
L378.759 203.277
L379.653 202.904
L381.442 202.02
L384.126 200.686
L386.81 199.459
L389.494 198.237
L390.388 197.884
L394.861 195.407
L395.756 195.054
L397.545 194.06
L398.44 193.698
L400.229 192.721
L402.018 191.728
L403.807 190.651
L406.491 189.474
L409.175 188.181
L410.069 187.587
L410.964 187.18
L411.859 186.416
L414.542 185.087
L416.331 183.831
L419.015 182.476
L419.91 181.75
L420.804 181.33
L426.172 178.018
L427.961 177.137
L430.645 175.753
L432.434 174.656
L435.118 173.333
L452.115 165.006
L453.904 163.975
L461.956 159.652
L463.745 158.523
L471.796 154.475
L472.691 153.918
L473.585 153.519
L474.48 152.957
L477.164 151.705
L478.953 150.661
L479.847 150.24
L480.742 149.669
L482.531 148.749
L483.426 148.19
L485.215 147.238
L491.477 143.759
L493.266 142.765
L498.634 140.131
L504.896 136.74
L509.369 134.287
L509.369 134.287" style="fill:none;stroke:#000000;stroke-linecap:square;"/>
   </g>
   <g id="line2d_15">
    <path clip-path="url(#p0e537c530d)" d="
M62.9688 368.742
L63.8633 368.07
L64.7579 367.526
L71.9146 363.686
L88.0172 354.558
L90.701 353.199
L92.4902 352.204
L93.3848 351.257
L101.436 346.608
L103.225 345.487
L104.12 345.058
L105.909 343.993
L108.593 342.622
L113.066 340.051
L115.75 338.264
L120.222 335.464
L126.485 331.486
L130.063 328.985
L130.958 328.564
L131.852 327.955
L132.747 327.153
L134.536 326.033
L136.325 325.035
L137.22 324.388
L138.114 323.904
L139.009 323.226
L139.903 322.771
L141.693 321.599
L143.482 320.437
L144.376 319.675
L152.428 314.75
L153.322 313.976
L155.111 312.982
L157.795 311.229
L158.69 310.539
L161.374 309.032
L163.163 307.933
L164.952 306.795
L165.847 306.016
L175.687 299.634
L176.582 298.89
L178.371 297.857
L179.265 297.308
L180.16 296.889
L181.055 296.319
L181.949 295.908
L184.633 294.053
L186.422 292.789
L187.317 292.088
L189.106 291.089
L190.895 289.819
L198.946 284.945
L200.735 283.786
L202.525 282.533
L203.419 281.756
L204.314 281.186
L205.208 280.457
L208.787 278.325
L215.943 273.685
L217.733 272.439
L218.627 271.999
L220.416 270.646
L222.206 269.618
L223.1 269.109
L223.995 268.393
L225.784 267.306
L231.152 264.091
L232.941 263.121
L236.519 260.787
L237.414 260.298
L240.097 258.314
L244.57 255.51
L247.254 253.713
L249.043 252.668
L250.832 251.453
L251.727 250.999
L253.516 249.701
L255.305 248.748
L257.989 246.51
L263.357 243.069
L264.251 242.645
L265.146 242.004
L266.04 241.154
L272.303 237.453
L274.092 236.268
L275.881 235.341
L276.776 234.643
L277.67 234.161
L279.459 233.013
L280.354 232.585
L283.038 230.729
L283.932 230.122
L284.827 229.7
L287.511 227.984
L289.3 226.682
L292.878 224.562
L296.457 222.419
L298.246 221.231
L300.035 220.217
L307.192 215.199
L308.981 214.165
L310.77 213.252
L312.559 212.113
L313.454 211.635
L314.348 210.923
L316.137 209.889
L317.032 209.105
L317.927 208.652
L320.61 206.935
L321.505 206.523
L322.4 205.956
L325.083 203.864
L329.556 201.297
L330.451 200.714
L331.346 200.324
L332.24 199.514
L333.135 198.893
L335.818 197.46
L337.608 196.272
L338.502 195.734
L339.397 195.054
L340.291 194.595
L342.975 192.536
L343.87 191.814
L344.764 191.406
L346.554 190.174
L347.448 189.782
L348.343 189.179
L349.237 188.757
L351.921 186.901
L352.816 186.496
L354.605 185.254
L357.289 183.467
L359.078 182.215
L360.867 181.165
L361.762 180.651
L362.656 179.938
L365.34 178.367
L367.129 176.975
L368.918 175.857
L370.707 174.712
L371.602 174.231
L372.497 173.604
L375.18 172.065
L376.075 171.533
L376.97 169.842
L377.864 169.256
L378.759 168.475
L384.126 165.306
L385.021 164.881
L385.915 164.185
L386.81 163.753
L387.705 163.122
L389.494 162.148
L390.388 161.588
L392.178 160.229
L393.967 159.222
L396.651 157.533
L397.545 156.915
L398.44 156.518
L400.229 155.385
L402.018 154.333
L402.913 153.57
L404.702 152.587
L405.596 152.135
L406.491 151.415
L409.175 149.667
L413.648 146.641
L414.542 146.199
L415.437 145.252
L425.277 138.386
L426.172 137.582
L427.067 137.132
L429.75 135.441
L430.645 134.942
L431.539 134.309
L432.434 133.427
L433.329 132.852
L434.223 132.083
L435.118 131.684
L436.012 131.11
L436.907 130.704
L444.064 125.937
L446.748 124.459
L447.642 123.827
L450.326 122.395
L452.115 121.2
L453.904 120.132
L457.483 117.811
L459.272 116.846
L462.85 114.462
L465.534 112.589
L466.428 112
L467.323 111.575
L469.112 110.458
L471.796 108.674
L472.691 108.058
L473.585 107.595
L474.48 107
L475.374 106.572
L476.269 105.961
L477.164 105.494
L478.953 104.351
L480.742 103.257
L481.636 102.821
L483.426 101.397
L485.215 100.414
L492.372 95.6155
L494.161 94.6077
L495.95 93.5999
L497.739 92.465
L499.528 91.2802
L501.317 90.0803
L502.212 89.2053
L503.107 88.709
L505.79 86.7778
L507.58 85.6235
L509.369 84.2756
L509.369 84.2756" style="fill:none;stroke:#0000ff;stroke-linecap:square;"/>
   </g>
   <g id="line2d_16">
    <path clip-path="url(#p0e537c530d)" d="
M62.9688 368.742
L67.4417 365.877
L78.1768 360.083
L81.7551 357.906
L82.6497 357.483
L83.5443 356.818
L85.3335 355.98
L94.2794 351.518
L96.0685 350.649
L102.331 347.16
L104.12 346.387
L105.014 345.845
L109.487 343.843
L113.066 341.83
L113.96 341.201
L119.328 338.271
L120.222 337.684
L121.117 337.285
L122.012 336.743
L122.906 336.38
L124.695 335.212
L126.485 334.187
L131.852 331.066
L133.641 329.815
L135.43 328.842
L137.22 327.876
L139.903 326.471
L143.482 324.332
L145.271 323.398
L146.166 323.009
L148.849 321.422
L150.638 320.491
L151.533 319.921
L152.428 319.515
L153.322 318.968
L155.111 318.076
L159.584 315.371
L161.374 314.293
L163.163 313.249
L164.952 312.15
L167.636 310.213
L169.425 309.241
L170.319 308.321
L172.109 307.392
L179.265 303.037
L182.844 301.216
L183.738 300.593
L185.527 299.583
L187.317 298.321
L188.211 297.746
L189.106 297.017
L194.473 293.976
L196.263 292.738
L198.052 291.808
L199.841 290.678
L202.525 288.961
L209.681 284.787
L210.576 284.356
L213.26 282.782
L215.943 281.124
L217.733 279.989
L218.627 279.527
L219.522 278.864
L220.416 278.355
L221.311 278.022
L223.995 276.451
L224.889 276.013
L229.362 273.219
L230.257 272.759
L231.152 272.166
L232.941 271.178
L233.835 270.535
L235.624 269.588
L236.519 268.865
L237.414 268.414
L239.203 267.046
L242.781 264.714
L245.465 263.405
L247.254 262.161
L248.149 261.74
L249.938 260.488
L250.832 259.839
L252.622 258.806
L257.989 255.648
L259.778 254.432
L262.462 252.888
L265.146 251.437
L266.04 250.676
L267.83 249.791
L275.881 245.226
L291.089 236.272
L291.984 235.847
L293.773 234.732
L295.562 233.81
L298.246 232.066
L300.929 230.606
L302.719 229.339
L304.508 228.33
L306.297 227.017
L309.875 225.174
L311.665 224.188
L314.348 222.813
L316.137 221.956
L317.032 221.223
L317.927 220.746
L318.821 220.067
L322.4 217.854
L324.189 216.591
L327.767 214.532
L328.662 214.116
L330.451 212.913
L332.24 212.08
L336.713 209.655
L337.608 209.245
L344.764 204.72
L351.026 200.834
L351.921 200.104
L353.71 199.211
L354.605 198.617
L355.499 198.181
L356.394 197.538
L357.289 197.106
L359.078 195.892
L360.867 194.859
L361.762 194.399
L363.551 193.292
L364.445 192.862
L367.129 191.063
L372.497 188.028
L375.18 186.634
L376.075 186.105
L376.97 185.268
L377.864 184.805
L378.759 184.148
L379.653 183.779
L383.232 181.827
L386.81 180.145
L387.705 179.548
L390.388 178.071
L393.967 175.864
L400.229 172.151
L401.123 171.667
L402.913 170.36
L403.807 169.813
L405.596 169.01
L408.28 167.355
L409.175 166.931
L416.331 162.618
L419.015 161.115
L420.804 159.936
L424.383 157.647
L425.277 157.165
L426.172 156.554
L427.067 156.137
L428.856 155.114
L441.38 148.042
L442.275 146.943
L443.169 146.485
L444.064 145.868
L445.853 144.922
L446.748 144.575
L447.642 144.055
L449.431 143.254
L450.326 142.769
L451.22 142.133
L452.115 141.67
L454.799 139.91
L458.377 137.986
L460.166 136.915
L461.061 136.103
L462.85 134.873
L464.639 133.988
L465.534 133.29
L467.323 132.335
L470.901 130.457
L472.691 129.271
L475.374 127.937
L481.636 124.299
L485.215 122.254
L490.582 119.122
L493.266 117.376
L495.95 116.071
L497.739 114.952
L499.528 113.899
L502.212 112.218
L504.001 111.093
L505.79 110.085
L509.369 107.93
L509.369 107.93" style="fill:none;stroke:#008000;stroke-linecap:square;"/>
   </g>
   <g id="patch_3">
    <path d="
M62.9688 23.1417
L509.369 23.1417" style="fill:none;stroke:#000000;stroke-linecap:square;stroke-linejoin:miter;"/>
   </g>
   <g id="patch_4">
    <path d="
M509.369 368.742
L509.369 23.1417" style="fill:none;stroke:#000000;stroke-linecap:square;stroke-linejoin:miter;"/>
   </g>
   <g id="patch_5">
    <path d="
M62.9688 368.742
L509.369 368.742" style="fill:none;stroke:#000000;stroke-linecap:square;stroke-linejoin:miter;"/>
   </g>
   <g id="patch_6">
    <path d="
M62.9688 368.742
L62.9688 23.1417" style="fill:none;stroke:#000000;stroke-linecap:square;stroke-linejoin:miter;"/>
   </g>
   <g id="matplotlib.axis_1">
    <g id="xtick_1">
     <g id="line2d_17">
      <defs>
       <path d="
M0 0
L0 -4" id="m93b0483c22" style="stroke:#000000;stroke-width:0.5;"/>
      </defs>
      <g>
       <use style="stroke:#000000;stroke-width:0.5;" x="62.96875" xlink:href="#m93b0483c22" y="368.74175"/>
      </g>
     </g>
     <g id="line2d_18">
      <defs>
       <path d="
M0 0
L0 4" id="m741efc42ff" style="stroke:#000000;stroke-width:0.5;"/>
      </defs>
      <g>
       <use style="stroke:#000000;stroke-width:0.5;" x="62.96875" xlink:href="#m741efc42ff" y="23.14175"/>
      </g>
     </g>
     <g id="text_1">
      <!-- 0 -->
      <defs>
       <path d="
M31.7812 66.4062
Q24.1719 66.4062 20.3281 58.9062
Q16.5 51.4219 16.5 36.375
Q16.5 21.3906 20.3281 13.8906
Q24.1719 6.39062 31.7812 6.39062
Q39.4531 6.39062 43.2812 13.8906
Q47.125 21.3906 47.125 36.375
Q47.125 51.4219 43.2812 58.9062
Q39.4531 66.4062 31.7812 66.4062
M31.7812 74.2188
Q44.0469 74.2188 50.5156 64.5156
Q56.9844 54.8281 56.9844 36.375
Q56.9844 17.9688 50.5156 8.26562
Q44.0469 -1.42188 31.7812 -1.42188
Q19.5312 -1.42188 13.0625 8.26562
Q6.59375 17.9688 6.59375 36.375
Q6.59375 54.8281 13.0625 64.5156
Q19.5312 74.2188 31.7812 74.2188" id="DejaVuSans-30"/>
      </defs>
      <g transform="translate(59.9453125 381.859875)scale(0.12 -0.12)">
       <use xlink:href="#DejaVuSans-30"/>
      </g>
     </g>
    </g>
    <g id="xtick_2">
     <g id="line2d_19">
      <g>
       <use style="stroke:#000000;stroke-width:0.5;" x="152.427667836" xlink:href="#m93b0483c22" y="368.74175"/>
      </g>
     </g>
     <g id="line2d_20">
      <g>
       <use style="stroke:#000000;stroke-width:0.5;" x="152.427667836" xlink:href="#m741efc42ff" y="23.14175"/>
      </g>
     </g>
     <g id="text_2">
      <!-- 100 -->
      <defs>
       <path d="
M12.4062 8.29688
L28.5156 8.29688
L28.5156 63.9219
L10.9844 60.4062
L10.9844 69.3906
L28.4219 72.9062
L38.2812 72.9062
L38.2812 8.29688
L54.3906 8.29688
L54.3906 0
L12.4062 0
z
" id="DejaVuSans-31"/>
      </defs>
      <g transform="translate(142.032667836 381.859875)scale(0.12 -0.12)">
       <use xlink:href="#DejaVuSans-31"/>
       <use x="63.623046875" xlink:href="#DejaVuSans-30"/>
       <use x="127.24609375" xlink:href="#DejaVuSans-30"/>
      </g>
     </g>
    </g>
    <g id="xtick_3">
     <g id="line2d_21">
      <g>
       <use style="stroke:#000000;stroke-width:0.5;" x="241.886585671" xlink:href="#m93b0483c22" y="368.74175"/>
      </g>
     </g>
     <g id="line2d_22">
      <g>
       <use style="stroke:#000000;stroke-width:0.5;" x="241.886585671" xlink:href="#m741efc42ff" y="23.14175"/>
      </g>
     </g>
     <g id="text_3">
      <!-- 200 -->
      <defs>
       <path d="
M19.1875 8.29688
L53.6094 8.29688
L53.6094 0
L7.32812 0
L7.32812 8.29688
Q12.9375 14.1094 22.625 23.8906
Q32.3281 33.6875 34.8125 36.5312
Q39.5469 41.8438 41.4219 45.5312
Q43.3125 49.2188 43.3125 52.7812
Q43.3125 58.5938 39.2344 62.25
Q35.1562 65.9219 28.6094 65.9219
Q23.9688 65.9219 18.8125 64.3125
Q13.6719 62.7031 7.8125 59.4219
L7.8125 69.3906
Q13.7656 71.7812 18.9375 73
Q24.125 74.2188 28.4219 74.2188
Q39.75 74.2188 46.4844 68.5469
Q53.2188 62.8906 53.2188 53.4219
Q53.2188 48.9219 51.5312 44.8906
Q49.8594 40.875 45.4062 35.4062
Q44.1875 33.9844 37.6406 27.2188
Q31.1094 20.4531 19.1875 8.29688" id="DejaVuSans-32"/>
      </defs>
      <g transform="translate(231.272210671 381.859875)scale(0.12 -0.12)">
       <use xlink:href="#DejaVuSans-32"/>
       <use x="63.623046875" xlink:href="#DejaVuSans-30"/>
       <use x="127.24609375" xlink:href="#DejaVuSans-30"/>
      </g>
     </g>
    </g>
    <g id="xtick_4">
     <g id="line2d_23">
      <g>
       <use style="stroke:#000000;stroke-width:0.5;" x="331.345503507" xlink:href="#m93b0483c22" y="368.74175"/>
      </g>
     </g>
     <g id="line2d_24">
      <g>
       <use style="stroke:#000000;stroke-width:0.5;" x="331.345503507" xlink:href="#m741efc42ff" y="23.14175"/>
      </g>
     </g>
     <g id="text_4">
      <!-- 300 -->
      <defs>
       <path d="
M40.5781 39.3125
Q47.6562 37.7969 51.625 33
Q55.6094 28.2188 55.6094 21.1875
Q55.6094 10.4062 48.1875 4.48438
Q40.7656 -1.42188 27.0938 -1.42188
Q22.5156 -1.42188 17.6562 -0.515625
Q12.7969 0.390625 7.625 2.20312
L7.625 11.7188
Q11.7188 9.32812 16.5938 8.10938
Q21.4844 6.89062 26.8125 6.89062
Q36.0781 6.89062 40.9375 10.5469
Q45.7969 14.2031 45.7969 21.1875
Q45.7969 27.6406 41.2812 31.2656
Q36.7656 34.9062 28.7188 34.9062
L20.2188 34.9062
L20.2188 43.0156
L29.1094 43.0156
Q36.375 43.0156 40.2344 45.9219
Q44.0938 48.8281 44.0938 54.2969
Q44.0938 59.9062 40.1094 62.9062
Q36.1406 65.9219 28.7188 65.9219
Q24.6562 65.9219 20.0156 65.0312
Q15.375 64.1562 9.8125 62.3125
L9.8125 71.0938
Q15.4375 72.6562 20.3438 73.4375
Q25.25 74.2188 29.5938 74.2188
Q40.8281 74.2188 47.3594 69.1094
Q53.9062 64.0156 53.9062 55.3281
Q53.9062 49.2656 50.4375 45.0938
Q46.9688 40.9219 40.5781 39.3125" id="DejaVuSans-33"/>
      </defs>
      <g transform="translate(320.748941007 381.859875)scale(0.12 -0.12)">
       <use xlink:href="#DejaVuSans-33"/>
       <use x="63.623046875" xlink:href="#DejaVuSans-30"/>
       <use x="127.24609375" xlink:href="#DejaVuSans-30"/>
      </g>
     </g>
    </g>
    <g id="xtick_5">
     <g id="line2d_25">
      <g>
       <use style="stroke:#000000;stroke-width:0.5;" x="420.804421343" xlink:href="#m93b0483c22" y="368.74175"/>
      </g>
     </g>
     <g id="line2d_26">
      <g>
       <use style="stroke:#000000;stroke-width:0.5;" x="420.804421343" xlink:href="#m741efc42ff" y="23.14175"/>
      </g>
     </g>
     <g id="text_5">
      <!-- 400 -->
      <defs>
       <path d="
M37.7969 64.3125
L12.8906 25.3906
L37.7969 25.3906
z

M35.2031 72.9062
L47.6094 72.9062
L47.6094 25.3906
L58.0156 25.3906
L58.0156 17.1875
L47.6094 17.1875
L47.6094 0
L37.7969 0
L37.7969 17.1875
L4.89062 17.1875
L4.89062 26.7031
z
" id="DejaVuSans-34"/>
      </defs>
      <g transform="translate(410.043796343 381.859875)scale(0.12 -0.12)">
       <use xlink:href="#DejaVuSans-34"/>
       <use x="63.623046875" xlink:href="#DejaVuSans-30"/>
       <use x="127.24609375" xlink:href="#DejaVuSans-30"/>
      </g>
     </g>
    </g>
    <g id="text_6">
     <!-- time -->
     <defs>
      <path d="
M18.3125 70.2188
L18.3125 54.6875
L36.8125 54.6875
L36.8125 47.7031
L18.3125 47.7031
L18.3125 18.0156
Q18.3125 11.3281 20.1406 9.42188
Q21.9688 7.51562 27.5938 7.51562
L36.8125 7.51562
L36.8125 0
L27.5938 0
Q17.1875 0 13.2344 3.875
Q9.28125 7.76562 9.28125 18.0156
L9.28125 47.7031
L2.6875 47.7031
L2.6875 54.6875
L9.28125 54.6875
L9.28125 70.2188
z
" id="DejaVuSans-74"/>
      <path d="
M52 44.1875
Q55.375 50.25 60.0625 53.125
Q64.75 56 71.0938 56
Q79.6406 56 84.2812 50.0156
Q88.9219 44.0469 88.9219 33.0156
L88.9219 0
L79.8906 0
L79.8906 32.7188
Q79.8906 40.5781 77.0938 44.375
Q74.3125 48.1875 68.6094 48.1875
Q61.625 48.1875 57.5625 43.5469
Q53.5156 38.9219 53.5156 30.9062
L53.5156 0
L44.4844 0
L44.4844 32.7188
Q44.4844 40.625 41.7031 44.4062
Q38.9219 48.1875 33.1094 48.1875
Q26.2188 48.1875 22.1562 43.5312
Q18.1094 38.875 18.1094 30.9062
L18.1094 0
L9.07812 0
L9.07812 54.6875
L18.1094 54.6875
L18.1094 46.1875
Q21.1875 51.2188 25.4844 53.6094
Q29.7812 56 35.6875 56
Q41.6562 56 45.8281 52.9688
Q50 49.9531 52 44.1875" id="DejaVuSans-6d"/>
      <path d="
M56.2031 29.5938
L56.2031 25.2031
L14.8906 25.2031
Q15.4844 15.9219 20.4844 11.0625
Q25.4844 6.20312 34.4219 6.20312
Q39.5938 6.20312 44.4531 7.46875
Q49.3125 8.73438 54.1094 11.2812
L54.1094 2.78125
Q49.2656 0.734375 44.1875 -0.34375
Q39.1094 -1.42188 33.8906 -1.42188
Q20.7969 -1.42188 13.1562 6.1875
Q5.51562 13.8125 5.51562 26.8125
Q5.51562 40.2344 12.7656 48.1094
Q20.0156 56 32.3281 56
Q43.3594 56 49.7812 48.8906
Q56.2031 41.7969 56.2031 29.5938
M47.2188 32.2344
Q47.125 39.5938 43.0938 43.9844
Q39.0625 48.3906 32.4219 48.3906
Q24.9062 48.3906 20.3906 44.1406
Q15.875 39.8906 15.1875 32.1719
z
" id="DejaVuSans-65"/>
      <path d="
M9.42188 54.6875
L18.4062 54.6875
L18.4062 0
L9.42188 0
z

M9.42188 75.9844
L18.4062 75.9844
L18.4062 64.5938
L9.42188 64.5938
z
" id="DejaVuSans-69"/>
     </defs>
     <g transform="translate(273.094375 398.473625)scale(0.12 -0.12)">
      <use xlink:href="#DejaVuSans-74"/>
      <use x="39.208984375" xlink:href="#DejaVuSans-69"/>
      <use x="66.9921875" xlink:href="#DejaVuSans-6d"/>
      <use x="164.404296875" xlink:href="#DejaVuSans-65"/>
     </g>
    </g>
   </g>
   <g id="matplotlib.axis_2">
    <g id="ytick_1">
     <g id="line2d_27">
      <defs>
       <path d="
M0 0
L4 0" id="m728421d6d4" style="stroke:#000000;stroke-width:0.5;"/>
      </defs>
      <g>
       <use style="stroke:#000000;stroke-width:0.5;" x="62.96875" xlink:href="#m728421d6d4" y="368.74175"/>
      </g>
     </g>
     <g id="line2d_28">
      <defs>
       <path d="
M0 0
L-4 0" id="mcb0005524f" style="stroke:#000000;stroke-width:0.5;"/>
      </defs>
      <g>
       <use style="stroke:#000000;stroke-width:0.5;" x="509.36875" xlink:href="#mcb0005524f" y="368.74175"/>
      </g>
     </g>
     <g id="text_7">
      <!-- 0 -->
      <g transform="translate(52.921875 372.053)scale(0.12 -0.12)">
       <use xlink:href="#DejaVuSans-30"/>
      </g>
     </g>
    </g>
    <g id="ytick_2">
     <g id="line2d_29">
      <g>
       <use style="stroke:#000000;stroke-width:0.5;" x="62.96875" xlink:href="#m728421d6d4" y="299.62175"/>
      </g>
     </g>
     <g id="line2d_30">
      <g>
       <use style="stroke:#000000;stroke-width:0.5;" x="509.36875" xlink:href="#mcb0005524f" y="299.62175"/>
      </g>
     </g>
     <g id="text_8">
      <!-- 500000 -->
      <defs>
       <path d="
M10.7969 72.9062
L49.5156 72.9062
L49.5156 64.5938
L19.8281 64.5938
L19.8281 46.7344
Q21.9688 47.4688 24.1094 47.8281
Q26.2656 48.1875 28.4219 48.1875
Q40.625 48.1875 47.75 41.5
Q54.8906 34.8125 54.8906 23.3906
Q54.8906 11.625 47.5625 5.09375
Q40.2344 -1.42188 26.9062 -1.42188
Q22.3125 -1.42188 17.5469 -0.640625
Q12.7969 0.140625 7.71875 1.70312
L7.71875 11.625
Q12.1094 9.23438 16.7969 8.0625
Q21.4844 6.89062 26.7031 6.89062
Q35.1562 6.89062 40.0781 11.3281
Q45.0156 15.7656 45.0156 23.3906
Q45.0156 31 40.0781 35.4375
Q35.1562 39.8906 26.7031 39.8906
Q22.75 39.8906 18.8125 39.0156
Q14.8906 38.1406 10.7969 36.2812
z
" id="DejaVuSans-35"/>
      </defs>
      <g transform="translate(14.881875 302.933)scale(0.12 -0.12)">
       <use xlink:href="#DejaVuSans-35"/>
       <use x="63.623046875" xlink:href="#DejaVuSans-30"/>
       <use x="127.24609375" xlink:href="#DejaVuSans-30"/>
       <use x="190.869140625" xlink:href="#DejaVuSans-30"/>
       <use x="254.4921875" xlink:href="#DejaVuSans-30"/>
       <use x="318.115234375" xlink:href="#DejaVuSans-30"/>
      </g>
     </g>
    </g>
    <g id="ytick_3">
     <g id="line2d_31">
      <g>
       <use style="stroke:#000000;stroke-width:0.5;" x="62.96875" xlink:href="#m728421d6d4" y="230.50175"/>
      </g>
     </g>
     <g id="line2d_32">
      <g>
       <use style="stroke:#000000;stroke-width:0.5;" x="509.36875" xlink:href="#mcb0005524f" y="230.50175"/>
      </g>
     </g>
     <g id="text_9">
      <!-- 1000000 -->
      <g transform="translate(7.63875 233.813)scale(0.12 -0.12)">
       <use xlink:href="#DejaVuSans-31"/>
       <use x="63.623046875" xlink:href="#DejaVuSans-30"/>
       <use x="127.24609375" xlink:href="#DejaVuSans-30"/>
       <use x="190.869140625" xlink:href="#DejaVuSans-30"/>
       <use x="254.4921875" xlink:href="#DejaVuSans-30"/>
       <use x="318.115234375" xlink:href="#DejaVuSans-30"/>
       <use x="381.73828125" xlink:href="#DejaVuSans-30"/>
      </g>
     </g>
    </g>
    <g id="ytick_4">
     <g id="line2d_33">
      <g>
       <use style="stroke:#000000;stroke-width:0.5;" x="62.96875" xlink:href="#m728421d6d4" y="161.38175"/>
      </g>
     </g>
     <g id="line2d_34">
      <g>
       <use style="stroke:#000000;stroke-width:0.5;" x="509.36875" xlink:href="#mcb0005524f" y="161.38175"/>
      </g>
     </g>
     <g id="text_10">
      <!-- 1500000 -->
      <g transform="translate(7.63875 164.693)scale(0.12 -0.12)">
       <use xlink:href="#DejaVuSans-31"/>
       <use x="63.623046875" xlink:href="#DejaVuSans-35"/>
       <use x="127.24609375" xlink:href="#DejaVuSans-30"/>
       <use x="190.869140625" xlink:href="#DejaVuSans-30"/>
       <use x="254.4921875" xlink:href="#DejaVuSans-30"/>
       <use x="318.115234375" xlink:href="#DejaVuSans-30"/>
       <use x="381.73828125" xlink:href="#DejaVuSans-30"/>
      </g>
     </g>
    </g>
    <g id="ytick_5">
     <g id="line2d_35">
      <g>
       <use style="stroke:#000000;stroke-width:0.5;" x="62.96875" xlink:href="#m728421d6d4" y="92.26175"/>
      </g>
     </g>
     <g id="line2d_36">
      <g>
       <use style="stroke:#000000;stroke-width:0.5;" x="509.36875" xlink:href="#mcb0005524f" y="92.26175"/>
      </g>
     </g>
     <g id="text_11">
      <!-- 2000000 -->
      <g transform="translate(7.2 95.573)scale(0.12 -0.12)">
       <use xlink:href="#DejaVuSans-32"/>
       <use x="63.623046875" xlink:href="#DejaVuSans-30"/>
       <use x="127.24609375" xlink:href="#DejaVuSans-30"/>
       <use x="190.869140625" xlink:href="#DejaVuSans-30"/>
       <use x="254.4921875" xlink:href="#DejaVuSans-30"/>
       <use x="318.115234375" xlink:href="#DejaVuSans-30"/>
       <use x="381.73828125" xlink:href="#DejaVuSans-30"/>
      </g>
     </g>
    </g>
    <g id="ytick_6">
     <g id="line2d_37">
      <g>
       <use style="stroke:#000000;stroke-width:0.5;" x="62.96875" xlink:href="#m728421d6d4" y="23.14175"/>
      </g>
     </g>
     <g id="line2d_38">
      <g>
       <use style="stroke:#000000;stroke-width:0.5;" x="509.36875" xlink:href="#mcb0005524f" y="23.14175"/>
      </g>
     </g>
     <g id="text_12">
      <!-- 2500000 -->
      <g transform="translate(7.2 26.453)scale(0.12 -0.12)">
       <use xlink:href="#DejaVuSans-32"/>
       <use x="63.623046875" xlink:href="#DejaVuSans-35"/>
       <use x="127.24609375" xlink:href="#DejaVuSans-30"/>
       <use x="190.869140625" xlink:href="#DejaVuSans-30"/>
       <use x="254.4921875" xlink:href="#DejaVuSans-30"/>
       <use x="318.115234375" xlink:href="#DejaVuSans-30"/>
       <use x="381.73828125" xlink:href="#DejaVuSans-30"/>
      </g>
     </g>
    </g>
   </g>
   <g id="text_13">
    <!-- /parcelport/count/mpi/cache-misses -->
    <defs>
     <path d="
M25.3906 72.9062
L33.6875 72.9062
L8.29688 -9.28125
L0 -9.28125
z
" id="DejaVuSans-2f"/>
     <path d="
M4.89062 31.3906
L31.2031 31.3906
L31.2031 23.3906
L4.89062 23.3906
z
" id="DejaVuSans-2d"/>
     <path d="
M30.6094 48.3906
Q23.3906 48.3906 19.1875 42.75
Q14.9844 37.1094 14.9844 27.2969
Q14.9844 17.4844 19.1562 11.8438
Q23.3438 6.20312 30.6094 6.20312
Q37.7969 6.20312 41.9844 11.8594
Q46.1875 17.5312 46.1875 27.2969
Q46.1875 37.0156 41.9844 42.7031
Q37.7969 48.3906 30.6094 48.3906
M30.6094 56
Q42.3281 56 49.0156 48.375
Q55.7188 40.7656 55.7188 27.2969
Q55.7188 13.875 49.0156 6.21875
Q42.3281 -1.42188 30.6094 -1.42188
Q18.8438 -1.42188 12.1719 6.21875
Q5.51562 13.875 5.51562 27.2969
Q5.51562 40.7656 12.1719 48.375
Q18.8438 56 30.6094 56" id="DejaVuSans-6f"/>
     <path d="
M54.8906 33.0156
L54.8906 0
L45.9062 0
L45.9062 32.7188
Q45.9062 40.4844 42.875 44.3281
Q39.8438 48.1875 33.7969 48.1875
Q26.5156 48.1875 22.3125 43.5469
Q18.1094 38.9219 18.1094 30.9062
L18.1094 0
L9.07812 0
L9.07812 54.6875
L18.1094 54.6875
L18.1094 46.1875
Q21.3438 51.125 25.7031 53.5625
Q30.0781 56 35.7969 56
Q45.2188 56 50.0469 50.1719
Q54.8906 44.3438 54.8906 33.0156" id="DejaVuSans-6e"/>
     <path d="
M9.42188 75.9844
L18.4062 75.9844
L18.4062 0
L9.42188 0
z
" id="DejaVuSans-6c"/>
     <path d="
M18.1094 8.20312
L18.1094 -20.7969
L9.07812 -20.7969
L9.07812 54.6875
L18.1094 54.6875
L18.1094 46.3906
Q20.9531 51.2656 25.2656 53.625
Q29.5938 56 35.5938 56
Q45.5625 56 51.7812 48.0938
Q58.0156 40.1875 58.0156 27.2969
Q58.0156 14.4062 51.7812 6.48438
Q45.5625 -1.42188 35.5938 -1.42188
Q29.5938 -1.42188 25.2656 0.953125
Q20.9531 3.32812 18.1094 8.20312
M48.6875 27.2969
Q48.6875 37.2031 44.6094 42.8438
Q40.5312 48.4844 33.4062 48.4844
Q26.2656 48.4844 22.1875 42.8438
Q18.1094 37.2031 18.1094 27.2969
Q18.1094 17.3906 22.1875 11.75
Q26.2656 6.10938 33.4062 6.10938
Q40.5312 6.10938 44.6094 11.75
Q48.6875 17.3906 48.6875 27.2969" id="DejaVuSans-70"/>
     <path d="
M54.8906 33.0156
L54.8906 0
L45.9062 0
L45.9062 32.7188
Q45.9062 40.4844 42.875 44.3281
Q39.8438 48.1875 33.7969 48.1875
Q26.5156 48.1875 22.3125 43.5469
Q18.1094 38.9219 18.1094 30.9062
L18.1094 0
L9.07812 0
L9.07812 75.9844
L18.1094 75.9844
L18.1094 46.1875
Q21.3438 51.125 25.7031 53.5625
Q30.0781 56 35.7969 56
Q45.2188 56 50.0469 50.1719
Q54.8906 44.3438 54.8906 33.0156" id="DejaVuSans-68"/>
     <path d="
M8.5 21.5781
L8.5 54.6875
L17.4844 54.6875
L17.4844 21.9219
Q17.4844 14.1562 20.5 10.2656
Q23.5312 6.39062 29.5938 6.39062
Q36.8594 6.39062 41.0781 11.0312
Q45.3125 15.6719 45.3125 23.6875
L45.3125 54.6875
L54.2969 54.6875
L54.2969 0
L45.3125 0
L45.3125 8.40625
Q42.0469 3.42188 37.7188 1
Q33.4062 -1.42188 27.6875 -1.42188
Q18.2656 -1.42188 13.375 4.4375
Q8.5 10.2969 8.5 21.5781
M31.1094 56
z
" id="DejaVuSans-75"/>
     <path d="
M34.2812 27.4844
Q23.3906 27.4844 19.1875 25
Q14.9844 22.5156 14.9844 16.5
Q14.9844 11.7188 18.1406 8.90625
Q21.2969 6.10938 26.7031 6.10938
Q34.1875 6.10938 38.7031 11.4062
Q43.2188 16.7031 43.2188 25.4844
L43.2188 27.4844
z

M52.2031 31.2031
L52.2031 0
L43.2188 0
L43.2188 8.29688
Q40.1406 3.32812 35.5469 0.953125
Q30.9531 -1.42188 24.3125 -1.42188
Q15.9219 -1.42188 10.9531 3.29688
Q6 8.01562 6 15.9219
Q6 25.1406 12.1719 29.8281
Q18.3594 34.5156 30.6094 34.5156
L43.2188 34.5156
L43.2188 35.4062
Q43.2188 41.6094 39.1406 45
Q35.0625 48.3906 27.6875 48.3906
Q23 48.3906 18.5469 47.2656
Q14.1094 46.1406 10.0156 43.8906
L10.0156 52.2031
Q14.9375 54.1094 19.5781 55.0469
Q24.2188 56 28.6094 56
Q40.4844 56 46.3438 49.8438
Q52.2031 43.7031 52.2031 31.2031" id="DejaVuSans-61"/>
     <path d="
M48.7812 52.5938
L48.7812 44.1875
Q44.9688 46.2969 41.1406 47.3438
Q37.3125 48.3906 33.4062 48.3906
Q24.6562 48.3906 19.8125 42.8438
Q14.9844 37.3125 14.9844 27.2969
Q14.9844 17.2812 19.8125 11.7344
Q24.6562 6.20312 33.4062 6.20312
Q37.3125 6.20312 41.1406 7.25
Q44.9688 8.29688 48.7812 10.4062
L48.7812 2.09375
Q45.0156 0.34375 40.9844 -0.53125
Q36.9688 -1.42188 32.4219 -1.42188
Q20.0625 -1.42188 12.7812 6.34375
Q5.51562 14.1094 5.51562 27.2969
Q5.51562 40.6719 12.8594 48.3281
Q20.2188 56 33.0156 56
Q37.1562 56 41.1094 55.1406
Q45.0625 54.2969 48.7812 52.5938" id="DejaVuSans-63"/>
     <path d="
M44.2812 53.0781
L44.2812 44.5781
Q40.4844 46.5312 36.375 47.5
Q32.2812 48.4844 27.875 48.4844
Q21.1875 48.4844 17.8438 46.4375
Q14.5 44.3906 14.5 40.2812
Q14.5 37.1562 16.8906 35.375
Q19.2812 33.5938 26.5156 31.9844
L29.5938 31.2969
Q39.1562 29.25 43.1875 25.5156
Q47.2188 21.7812 47.2188 15.0938
Q47.2188 7.46875 41.1875 3.01562
Q35.1562 -1.42188 24.6094 -1.42188
Q20.2188 -1.42188 15.4531 -0.5625
Q10.6875 0.296875 5.42188 2
L5.42188 11.2812
Q10.4062 8.6875 15.2344 7.39062
Q20.0625 6.10938 24.8125 6.10938
Q31.1562 6.10938 34.5625 8.28125
Q37.9844 10.4531 37.9844 14.4062
Q37.9844 18.0625 35.5156 20.0156
Q33.0625 21.9688 24.7031 23.7812
L21.5781 24.5156
Q13.2344 26.2656 9.51562 29.9062
Q5.8125 33.5469 5.8125 39.8906
Q5.8125 47.6094 11.2812 51.7969
Q16.75 56 26.8125 56
Q31.7812 56 36.1719 55.2656
Q40.5781 54.5469 44.2812 53.0781" id="DejaVuSans-73"/>
     <path d="
M41.1094 46.2969
Q39.5938 47.1719 37.8125 47.5781
Q36.0312 48 33.8906 48
Q26.2656 48 22.1875 43.0469
Q18.1094 38.0938 18.1094 28.8125
L18.1094 0
L9.07812 0
L9.07812 54.6875
L18.1094 54.6875
L18.1094 46.1875
Q20.9531 51.1719 25.4844 53.5781
Q30.0312 56 36.5312 56
Q37.4531 56 38.5781 55.875
Q39.7031 55.7656 41.0625 55.5156
z
" id="DejaVuSans-72"/>
    </defs>
    <g transform="translate(157.37425 18.14175)scale(0.144 -0.144)">
     <use xlink:href="#DejaVuSans-2f"/>
     <use x="33.69140625" xlink:href="#DejaVuSans-70"/>
     <use x="97.16796875" xlink:href="#DejaVuSans-61"/>
     <use x="158.447265625" xlink:href="#DejaVuSans-72"/>
     <use x="197.310546875" xlink:href="#DejaVuSans-63"/>
     <use x="252.291015625" xlink:href="#DejaVuSans-65"/>
     <use x="313.814453125" xlink:href="#DejaVuSans-6c"/>
     <use x="341.59765625" xlink:href="#DejaVuSans-70"/>
     <use x="405.07421875" xlink:href="#DejaVuSans-6f"/>
     <use x="466.255859375" xlink:href="#DejaVuSans-72"/>
     <use x="507.369140625" xlink:href="#DejaVuSans-74"/>
     <use x="546.578125" xlink:href="#DejaVuSans-2f"/>
     <use x="580.26953125" xlink:href="#DejaVuSans-63"/>
     <use x="635.25" xlink:href="#DejaVuSans-6f"/>
     <use x="696.431640625" xlink:href="#DejaVuSans-75"/>
     <use x="759.810546875" xlink:href="#DejaVuSans-6e"/>
     <use x="823.189453125" xlink:href="#DejaVuSans-74"/>
     <use x="862.3984375" xlink:href="#DejaVuSans-2f"/>
     <use x="896.08984375" xlink:href="#DejaVuSans-6d"/>
     <use x="993.501953125" xlink:href="#DejaVuSans-70"/>
     <use x="1056.97851562" xlink:href="#DejaVuSans-69"/>
     <use x="1084.76171875" xlink:href="#DejaVuSans-2f"/>
     <use x="1118.453125" xlink:href="#DejaVuSans-63"/>
     <use x="1173.43359375" xlink:href="#DejaVuSans-61"/>
     <use x="1234.71289062" xlink:href="#DejaVuSans-63"/>
     <use x="1289.69335938" xlink:href="#DejaVuSans-68"/>
     <use x="1353.07226562" xlink:href="#DejaVuSans-65"/>
     <use x="1414.59570312" xlink:href="#DejaVuSans-2d"/>
     <use x="1450.6796875" xlink:href="#DejaVuSans-6d"/>
     <use x="1548.09179688" xlink:href="#DejaVuSans-69"/>
     <use x="1575.875" xlink:href="#DejaVuSans-73"/>
     <use x="1627.97460938" xlink:href="#DejaVuSans-73"/>
     <use x="1680.07421875" xlink:href="#DejaVuSans-65"/>
     <use x="1741.59765625" xlink:href="#DejaVuSans-73"/>
    </g>
   </g>
   <g id="legend_1">
    <g id="patch_7">
     <path d="
M516.569 367.194
L648.358 367.194
L648.358 24.6897
L516.569 24.6897
z
" style="fill:#ffffff;stroke:#000000;stroke-linejoin:miter;"/>
    </g>
    <g id="line2d_39">
     <path d="
M526.649 36.3515
L546.809 36.3515" style="fill:none;stroke:#0000ff;stroke-linecap:square;"/>
    </g>
    <g id="line2d_40"/>
    <g id="text_14">
     <!-- locality#0 -->
     <defs>
      <path d="
M51.125 44
L36.9219 44
L32.8125 27.6875
L47.125 27.6875
z

M43.7969 71.7812
L38.7188 51.5156
L52.9844 51.5156
L58.1094 71.7812
L65.9219 71.7812
L60.8906 51.5156
L76.125 51.5156
L76.125 44
L58.9844 44
L54.9844 27.6875
L70.5156 27.6875
L70.5156 20.2188
L53.0781 20.2188
L48 0
L40.1875 0
L45.2188 20.2188
L30.9062 20.2188
L25.875 0
L18.0156 0
L23.0938 20.2188
L7.71875 20.2188
L7.71875 27.6875
L24.9062 27.6875
L29 44
L13.2812 44
L13.2812 51.5156
L30.9062 51.5156
L35.8906 71.7812
z
" id="DejaVuSans-23"/>
      <path d="
M32.1719 -5.07812
Q28.375 -14.8438 24.75 -17.8125
Q21.1406 -20.7969 15.0938 -20.7969
L7.90625 -20.7969
L7.90625 -13.2812
L13.1875 -13.2812
Q16.8906 -13.2812 18.9375 -11.5156
Q21 -9.76562 23.4844 -3.21875
L25.0938 0.875
L2.98438 54.6875
L12.5 54.6875
L29.5938 11.9219
L46.6875 54.6875
L56.2031 54.6875
z
" id="DejaVuSans-79"/>
     </defs>
     <g transform="translate(562.64875 41.3915)scale(0.144 -0.144)">
      <use xlink:href="#DejaVuSans-6c"/>
      <use x="27.783203125" xlink:href="#DejaVuSans-6f"/>
      <use x="88.96484375" xlink:href="#DejaVuSans-63"/>
      <use x="143.9453125" xlink:href="#DejaVuSans-61"/>
      <use x="205.224609375" xlink:href="#DejaVuSans-6c"/>
      <use x="233.0078125" xlink:href="#DejaVuSans-69"/>
      <use x="260.791015625" xlink:href="#DejaVuSans-74"/>
      <use x="300.0" xlink:href="#DejaVuSans-79"/>
      <use x="359.1796875" xlink:href="#DejaVuSans-23"/>
      <use x="442.96875" xlink:href="#DejaVuSans-30"/>
     </g>
    </g>
    <g id="line2d_41">
     <path d="
M526.649 57.488
L546.809 57.488" style="fill:none;stroke:#008000;stroke-linecap:square;"/>
    </g>
    <g id="line2d_42"/>
    <g id="text_15">
     <!-- locality#1 -->
     <g transform="translate(562.64875 62.528)scale(0.144 -0.144)">
      <use xlink:href="#DejaVuSans-6c"/>
      <use x="27.783203125" xlink:href="#DejaVuSans-6f"/>
      <use x="88.96484375" xlink:href="#DejaVuSans-63"/>
      <use x="143.9453125" xlink:href="#DejaVuSans-61"/>
      <use x="205.224609375" xlink:href="#DejaVuSans-6c"/>
      <use x="233.0078125" xlink:href="#DejaVuSans-69"/>
      <use x="260.791015625" xlink:href="#DejaVuSans-74"/>
      <use x="300.0" xlink:href="#DejaVuSans-79"/>
      <use x="359.1796875" xlink:href="#DejaVuSans-23"/>
      <use x="442.96875" xlink:href="#DejaVuSans-31"/>
     </g>
    </g>
    <g id="line2d_43">
     <path d="
M526.649 78.6245
L546.809 78.6245" style="fill:none;stroke:#ff0000;stroke-linecap:square;"/>
    </g>
    <g id="line2d_44"/>
    <g id="text_16">
     <!-- locality#10 -->
     <g transform="translate(562.64875 83.6645)scale(0.144 -0.144)">
      <use xlink:href="#DejaVuSans-6c"/>
      <use x="27.783203125" xlink:href="#DejaVuSans-6f"/>
      <use x="88.96484375" xlink:href="#DejaVuSans-63"/>
      <use x="143.9453125" xlink:href="#DejaVuSans-61"/>
      <use x="205.224609375" xlink:href="#DejaVuSans-6c"/>
      <use x="233.0078125" xlink:href="#DejaVuSans-69"/>
      <use x="260.791015625" xlink:href="#DejaVuSans-74"/>
      <use x="300.0" xlink:href="#DejaVuSans-79"/>
      <use x="359.1796875" xlink:href="#DejaVuSans-23"/>
      <use x="442.96875" xlink:href="#DejaVuSans-31"/>
      <use x="506.591796875" xlink:href="#DejaVuSans-30"/>
     </g>
    </g>
    <g id="line2d_45">
     <path d="
M526.649 99.761
L546.809 99.761" style="fill:none;stroke:#00bfbf;stroke-linecap:square;"/>
    </g>
    <g id="line2d_46"/>
    <g id="text_17">
     <!-- locality#11 -->
     <g transform="translate(562.64875 104.801)scale(0.144 -0.144)">
      <use xlink:href="#DejaVuSans-6c"/>
      <use x="27.783203125" xlink:href="#DejaVuSans-6f"/>
      <use x="88.96484375" xlink:href="#DejaVuSans-63"/>
      <use x="143.9453125" xlink:href="#DejaVuSans-61"/>
      <use x="205.224609375" xlink:href="#DejaVuSans-6c"/>
      <use x="233.0078125" xlink:href="#DejaVuSans-69"/>
      <use x="260.791015625" xlink:href="#DejaVuSans-74"/>
      <use x="300.0" xlink:href="#DejaVuSans-79"/>
      <use x="359.1796875" xlink:href="#DejaVuSans-23"/>
      <use x="442.96875" xlink:href="#DejaVuSans-31"/>
      <use x="506.591796875" xlink:href="#DejaVuSans-31"/>
     </g>
    </g>
    <g id="line2d_47">
     <path d="
M526.649 120.897
L546.809 120.897" style="fill:none;stroke:#bf00bf;stroke-linecap:square;"/>
    </g>
    <g id="line2d_48"/>
    <g id="text_18">
     <!-- locality#12 -->
     <g transform="translate(562.64875 125.9375)scale(0.144 -0.144)">
      <use xlink:href="#DejaVuSans-6c"/>
      <use x="27.783203125" xlink:href="#DejaVuSans-6f"/>
      <use x="88.96484375" xlink:href="#DejaVuSans-63"/>
      <use x="143.9453125" xlink:href="#DejaVuSans-61"/>
      <use x="205.224609375" xlink:href="#DejaVuSans-6c"/>
      <use x="233.0078125" xlink:href="#DejaVuSans-69"/>
      <use x="260.791015625" xlink:href="#DejaVuSans-74"/>
      <use x="300.0" xlink:href="#DejaVuSans-79"/>
      <use x="359.1796875" xlink:href="#DejaVuSans-23"/>
      <use x="442.96875" xlink:href="#DejaVuSans-31"/>
      <use x="506.591796875" xlink:href="#DejaVuSans-32"/>
     </g>
    </g>
    <g id="line2d_49">
     <path d="
M526.649 142.034
L546.809 142.034" style="fill:none;stroke:#bfbf00;stroke-linecap:square;"/>
    </g>
    <g id="line2d_50"/>
    <g id="text_19">
     <!-- locality#13 -->
     <g transform="translate(562.64875 147.074)scale(0.144 -0.144)">
      <use xlink:href="#DejaVuSans-6c"/>
      <use x="27.783203125" xlink:href="#DejaVuSans-6f"/>
      <use x="88.96484375" xlink:href="#DejaVuSans-63"/>
      <use x="143.9453125" xlink:href="#DejaVuSans-61"/>
      <use x="205.224609375" xlink:href="#DejaVuSans-6c"/>
      <use x="233.0078125" xlink:href="#DejaVuSans-69"/>
      <use x="260.791015625" xlink:href="#DejaVuSans-74"/>
      <use x="300.0" xlink:href="#DejaVuSans-79"/>
      <use x="359.1796875" xlink:href="#DejaVuSans-23"/>
      <use x="442.96875" xlink:href="#DejaVuSans-31"/>
      <use x="506.591796875" xlink:href="#DejaVuSans-33"/>
     </g>
    </g>
    <g id="line2d_51">
     <path d="
M526.649 163.17
L546.809 163.17" style="fill:none;stroke:#000000;stroke-linecap:square;"/>
    </g>
    <g id="line2d_52"/>
    <g id="text_20">
     <!-- locality#14 -->
     <g transform="translate(562.64875 168.2105)scale(0.144 -0.144)">
      <use xlink:href="#DejaVuSans-6c"/>
      <use x="27.783203125" xlink:href="#DejaVuSans-6f"/>
      <use x="88.96484375" xlink:href="#DejaVuSans-63"/>
      <use x="143.9453125" xlink:href="#DejaVuSans-61"/>
      <use x="205.224609375" xlink:href="#DejaVuSans-6c"/>
      <use x="233.0078125" xlink:href="#DejaVuSans-69"/>
      <use x="260.791015625" xlink:href="#DejaVuSans-74"/>
      <use x="300.0" xlink:href="#DejaVuSans-79"/>
      <use x="359.1796875" xlink:href="#DejaVuSans-23"/>
      <use x="442.96875" xlink:href="#DejaVuSans-31"/>
      <use x="506.591796875" xlink:href="#DejaVuSans-34"/>
     </g>
    </g>
    <g id="line2d_53">
     <path d="
M526.649 184.307
L546.809 184.307" style="fill:none;stroke:#0000ff;stroke-linecap:square;"/>
    </g>
    <g id="line2d_54"/>
    <g id="text_21">
     <!-- locality#15 -->
     <g transform="translate(562.64875 189.347)scale(0.144 -0.144)">
      <use xlink:href="#DejaVuSans-6c"/>
      <use x="27.783203125" xlink:href="#DejaVuSans-6f"/>
      <use x="88.96484375" xlink:href="#DejaVuSans-63"/>
      <use x="143.9453125" xlink:href="#DejaVuSans-61"/>
      <use x="205.224609375" xlink:href="#DejaVuSans-6c"/>
      <use x="233.0078125" xlink:href="#DejaVuSans-69"/>
      <use x="260.791015625" xlink:href="#DejaVuSans-74"/>
      <use x="300.0" xlink:href="#DejaVuSans-79"/>
      <use x="359.1796875" xlink:href="#DejaVuSans-23"/>
      <use x="442.96875" xlink:href="#DejaVuSans-31"/>
      <use x="506.591796875" xlink:href="#DejaVuSans-35"/>
     </g>
    </g>
    <g id="line2d_55">
     <path d="
M526.649 205.443
L546.809 205.443" style="fill:none;stroke:#008000;stroke-linecap:square;"/>
    </g>
    <g id="line2d_56"/>
    <g id="text_22">
     <!-- locality#2 -->
     <g transform="translate(562.64875 210.4835)scale(0.144 -0.144)">
      <use xlink:href="#DejaVuSans-6c"/>
      <use x="27.783203125" xlink:href="#DejaVuSans-6f"/>
      <use x="88.96484375" xlink:href="#DejaVuSans-63"/>
      <use x="143.9453125" xlink:href="#DejaVuSans-61"/>
      <use x="205.224609375" xlink:href="#DejaVuSans-6c"/>
      <use x="233.0078125" xlink:href="#DejaVuSans-69"/>
      <use x="260.791015625" xlink:href="#DejaVuSans-74"/>
      <use x="300.0" xlink:href="#DejaVuSans-79"/>
      <use x="359.1796875" xlink:href="#DejaVuSans-23"/>
      <use x="442.96875" xlink:href="#DejaVuSans-32"/>
     </g>
    </g>
    <g id="line2d_57">
     <path d="
M526.649 226.58
L546.809 226.58" style="fill:none;stroke:#ff0000;stroke-linecap:square;"/>
    </g>
    <g id="line2d_58"/>
    <g id="text_23">
     <!-- locality#3 -->
     <g transform="translate(562.64875 231.62)scale(0.144 -0.144)">
      <use xlink:href="#DejaVuSans-6c"/>
      <use x="27.783203125" xlink:href="#DejaVuSans-6f"/>
      <use x="88.96484375" xlink:href="#DejaVuSans-63"/>
      <use x="143.9453125" xlink:href="#DejaVuSans-61"/>
      <use x="205.224609375" xlink:href="#DejaVuSans-6c"/>
      <use x="233.0078125" xlink:href="#DejaVuSans-69"/>
      <use x="260.791015625" xlink:href="#DejaVuSans-74"/>
      <use x="300.0" xlink:href="#DejaVuSans-79"/>
      <use x="359.1796875" xlink:href="#DejaVuSans-23"/>
      <use x="442.96875" xlink:href="#DejaVuSans-33"/>
     </g>
    </g>
    <g id="line2d_59">
     <path d="
M526.649 247.716
L546.809 247.716" style="fill:none;stroke:#00bfbf;stroke-linecap:square;"/>
    </g>
    <g id="line2d_60"/>
    <g id="text_24">
     <!-- locality#4 -->
     <g transform="translate(562.64875 252.7565)scale(0.144 -0.144)">
      <use xlink:href="#DejaVuSans-6c"/>
      <use x="27.783203125" xlink:href="#DejaVuSans-6f"/>
      <use x="88.96484375" xlink:href="#DejaVuSans-63"/>
      <use x="143.9453125" xlink:href="#DejaVuSans-61"/>
      <use x="205.224609375" xlink:href="#DejaVuSans-6c"/>
      <use x="233.0078125" xlink:href="#DejaVuSans-69"/>
      <use x="260.791015625" xlink:href="#DejaVuSans-74"/>
      <use x="300.0" xlink:href="#DejaVuSans-79"/>
      <use x="359.1796875" xlink:href="#DejaVuSans-23"/>
      <use x="442.96875" xlink:href="#DejaVuSans-34"/>
     </g>
    </g>
    <g id="line2d_61">
     <path d="
M526.649 268.853
L546.809 268.853" style="fill:none;stroke:#bf00bf;stroke-linecap:square;"/>
    </g>
    <g id="line2d_62"/>
    <g id="text_25">
     <!-- locality#5 -->
     <g transform="translate(562.64875 273.893)scale(0.144 -0.144)">
      <use xlink:href="#DejaVuSans-6c"/>
      <use x="27.783203125" xlink:href="#DejaVuSans-6f"/>
      <use x="88.96484375" xlink:href="#DejaVuSans-63"/>
      <use x="143.9453125" xlink:href="#DejaVuSans-61"/>
      <use x="205.224609375" xlink:href="#DejaVuSans-6c"/>
      <use x="233.0078125" xlink:href="#DejaVuSans-69"/>
      <use x="260.791015625" xlink:href="#DejaVuSans-74"/>
      <use x="300.0" xlink:href="#DejaVuSans-79"/>
      <use x="359.1796875" xlink:href="#DejaVuSans-23"/>
      <use x="442.96875" xlink:href="#DejaVuSans-35"/>
     </g>
    </g>
    <g id="line2d_63">
     <path d="
M526.649 289.989
L546.809 289.989" style="fill:none;stroke:#bfbf00;stroke-linecap:square;"/>
    </g>
    <g id="line2d_64"/>
    <g id="text_26">
     <!-- locality#6 -->
     <defs>
      <path d="
M33.0156 40.375
Q26.375 40.375 22.4844 35.8281
Q18.6094 31.2969 18.6094 23.3906
Q18.6094 15.5312 22.4844 10.9531
Q26.375 6.39062 33.0156 6.39062
Q39.6562 6.39062 43.5312 10.9531
Q47.4062 15.5312 47.4062 23.3906
Q47.4062 31.2969 43.5312 35.8281
Q39.6562 40.375 33.0156 40.375
M52.5938 71.2969
L52.5938 62.3125
Q48.875 64.0625 45.0938 64.9844
Q41.3125 65.9219 37.5938 65.9219
Q27.8281 65.9219 22.6719 59.3281
Q17.5312 52.7344 16.7969 39.4062
Q19.6719 43.6562 24.0156 45.9219
Q28.375 48.1875 33.5938 48.1875
Q44.5781 48.1875 50.9531 41.5156
Q57.3281 34.8594 57.3281 23.3906
Q57.3281 12.1562 50.6875 5.35938
Q44.0469 -1.42188 33.0156 -1.42188
Q20.3594 -1.42188 13.6719 8.26562
Q6.98438 17.9688 6.98438 36.375
Q6.98438 53.6562 15.1875 63.9375
Q23.3906 74.2188 37.2031 74.2188
Q40.9219 74.2188 44.7031 73.4844
Q48.4844 72.75 52.5938 71.2969" id="DejaVuSans-36"/>
     </defs>
     <g transform="translate(562.64875 295.0295)scale(0.144 -0.144)">
      <use xlink:href="#DejaVuSans-6c"/>
      <use x="27.783203125" xlink:href="#DejaVuSans-6f"/>
      <use x="88.96484375" xlink:href="#DejaVuSans-63"/>
      <use x="143.9453125" xlink:href="#DejaVuSans-61"/>
      <use x="205.224609375" xlink:href="#DejaVuSans-6c"/>
      <use x="233.0078125" xlink:href="#DejaVuSans-69"/>
      <use x="260.791015625" xlink:href="#DejaVuSans-74"/>
      <use x="300.0" xlink:href="#DejaVuSans-79"/>
      <use x="359.1796875" xlink:href="#DejaVuSans-23"/>
      <use x="442.96875" xlink:href="#DejaVuSans-36"/>
     </g>
    </g>
    <g id="line2d_65">
     <path d="
M526.649 311.126
L546.809 311.126" style="fill:none;stroke:#000000;stroke-linecap:square;"/>
    </g>
    <g id="line2d_66"/>
    <g id="text_27">
     <!-- locality#7 -->
     <defs>
      <path d="
M8.20312 72.9062
L55.0781 72.9062
L55.0781 68.7031
L28.6094 0
L18.3125 0
L43.2188 64.5938
L8.20312 64.5938
z
" id="DejaVuSans-37"/>
     </defs>
     <g transform="translate(562.64875 316.166)scale(0.144 -0.144)">
      <use xlink:href="#DejaVuSans-6c"/>
      <use x="27.783203125" xlink:href="#DejaVuSans-6f"/>
      <use x="88.96484375" xlink:href="#DejaVuSans-63"/>
      <use x="143.9453125" xlink:href="#DejaVuSans-61"/>
      <use x="205.224609375" xlink:href="#DejaVuSans-6c"/>
      <use x="233.0078125" xlink:href="#DejaVuSans-69"/>
      <use x="260.791015625" xlink:href="#DejaVuSans-74"/>
      <use x="300.0" xlink:href="#DejaVuSans-79"/>
      <use x="359.1796875" xlink:href="#DejaVuSans-23"/>
      <use x="442.96875" xlink:href="#DejaVuSans-37"/>
     </g>
    </g>
    <g id="line2d_67">
     <path d="
M526.649 332.262
L546.809 332.262" style="fill:none;stroke:#0000ff;stroke-linecap:square;"/>
    </g>
    <g id="line2d_68"/>
    <g id="text_28">
     <!-- locality#8 -->
     <defs>
      <path d="
M31.7812 34.625
Q24.75 34.625 20.7188 30.8594
Q16.7031 27.0938 16.7031 20.5156
Q16.7031 13.9219 20.7188 10.1562
Q24.75 6.39062 31.7812 6.39062
Q38.8125 6.39062 42.8594 10.1719
Q46.9219 13.9688 46.9219 20.5156
Q46.9219 27.0938 42.8906 30.8594
Q38.875 34.625 31.7812 34.625
M21.9219 38.8125
Q15.5781 40.375 12.0312 44.7188
Q8.5 49.0781 8.5 55.3281
Q8.5 64.0625 14.7188 69.1406
Q20.9531 74.2188 31.7812 74.2188
Q42.6719 74.2188 48.875 69.1406
Q55.0781 64.0625 55.0781 55.3281
Q55.0781 49.0781 51.5312 44.7188
Q48 40.375 41.7031 38.8125
Q48.8281 37.1562 52.7969 32.3125
Q56.7812 27.4844 56.7812 20.5156
Q56.7812 9.90625 50.3125 4.23438
Q43.8438 -1.42188 31.7812 -1.42188
Q19.7344 -1.42188 13.25 4.23438
Q6.78125 9.90625 6.78125 20.5156
Q6.78125 27.4844 10.7812 32.3125
Q14.7969 37.1562 21.9219 38.8125
M18.3125 54.3906
Q18.3125 48.7344 21.8438 45.5625
Q25.3906 42.3906 31.7812 42.3906
Q38.1406 42.3906 41.7188 45.5625
Q45.3125 48.7344 45.3125 54.3906
Q45.3125 60.0625 41.7188 63.2344
Q38.1406 66.4062 31.7812 66.4062
Q25.3906 66.4062 21.8438 63.2344
Q18.3125 60.0625 18.3125 54.3906" id="DejaVuSans-38"/>
     </defs>
     <g transform="translate(562.64875 337.3025)scale(0.144 -0.144)">
      <use xlink:href="#DejaVuSans-6c"/>
      <use x="27.783203125" xlink:href="#DejaVuSans-6f"/>
      <use x="88.96484375" xlink:href="#DejaVuSans-63"/>
      <use x="143.9453125" xlink:href="#DejaVuSans-61"/>
      <use x="205.224609375" xlink:href="#DejaVuSans-6c"/>
      <use x="233.0078125" xlink:href="#DejaVuSans-69"/>
      <use x="260.791015625" xlink:href="#DejaVuSans-74"/>
      <use x="300.0" xlink:href="#DejaVuSans-79"/>
      <use x="359.1796875" xlink:href="#DejaVuSans-23"/>
      <use x="442.96875" xlink:href="#DejaVuSans-38"/>
     </g>
    </g>
    <g id="line2d_69">
     <path d="
M526.649 353.399
L546.809 353.399" style="fill:none;stroke:#008000;stroke-linecap:square;"/>
    </g>
    <g id="line2d_70"/>
    <g id="text_29">
     <!-- locality#9 -->
     <defs>
      <path d="
M10.9844 1.51562
L10.9844 10.5
Q14.7031 8.73438 18.5 7.8125
Q22.3125 6.89062 25.9844 6.89062
Q35.75 6.89062 40.8906 13.4531
Q46.0469 20.0156 46.7812 33.4062
Q43.9531 29.2031 39.5938 26.9531
Q35.25 24.7031 29.9844 24.7031
Q19.0469 24.7031 12.6719 31.3125
Q6.29688 37.9375 6.29688 49.4219
Q6.29688 60.6406 12.9375 67.4219
Q19.5781 74.2188 30.6094 74.2188
Q43.2656 74.2188 49.9219 64.5156
Q56.5938 54.8281 56.5938 36.375
Q56.5938 19.1406 48.4062 8.85938
Q40.2344 -1.42188 26.4219 -1.42188
Q22.7031 -1.42188 18.8906 -0.6875
Q15.0938 0.046875 10.9844 1.51562
M30.6094 32.4219
Q37.25 32.4219 41.125 36.9531
Q45.0156 41.5 45.0156 49.4219
Q45.0156 57.2812 41.125 61.8438
Q37.25 66.4062 30.6094 66.4062
Q23.9688 66.4062 20.0938 61.8438
Q16.2188 57.2812 16.2188 49.4219
Q16.2188 41.5 20.0938 36.9531
Q23.9688 32.4219 30.6094 32.4219" id="DejaVuSans-39"/>
     </defs>
     <g transform="translate(562.64875 358.439)scale(0.144 -0.144)">
      <use xlink:href="#DejaVuSans-6c"/>
      <use x="27.783203125" xlink:href="#DejaVuSans-6f"/>
      <use x="88.96484375" xlink:href="#DejaVuSans-63"/>
      <use x="143.9453125" xlink:href="#DejaVuSans-61"/>
      <use x="205.224609375" xlink:href="#DejaVuSans-6c"/>
      <use x="233.0078125" xlink:href="#DejaVuSans-69"/>
      <use x="260.791015625" xlink:href="#DejaVuSans-74"/>
      <use x="300.0" xlink:href="#DejaVuSans-79"/>
      <use x="359.1796875" xlink:href="#DejaVuSans-23"/>
      <use x="442.96875" xlink:href="#DejaVuSans-39"/>
     </g>
    </g>
   </g>
  </g>
 </g>
 <defs>
  <clipPath id="p0e537c530d">
   <rect height="345.6" width="446.4" x="62.96875" y="23.14175"/>
  </clipPath>
 </defs>
</svg>
