<?xml version="1.0" encoding="utf-8" standalone="no"?>
<!DOCTYPE svg PUBLIC "-//W3C//DTD SVG 1.1//EN"
  "http://www.w3.org/Graphics/SVG/1.1/DTD/svg11.dtd">
<!-- Created with matplotlib (http://matplotlib.org/) -->
<svg height="408pt" version="1.1" viewBox="0 0 621 408" width="621pt" xmlns="http://www.w3.org/2000/svg" xmlns:xlink="http://www.w3.org/1999/xlink">
 <defs>
  <style type="text/css">
*{stroke-linecap:butt;stroke-linejoin:round;}
  </style>
 </defs>
 <g id="figure_1">
  <g id="patch_1">
   <path d="
M0 408.169
L621.285 408.169
L621.285 0
L0 0
z
" style="fill:#ffffff;"/>
  </g>
  <g id="axes_1">
   <g id="patch_2">
    <path d="
M28.6956 368.742
L475.096 368.742
L475.096 23.1417
L28.6956 23.1417
z
" style="fill:#ffffff;"/>
   </g>
   <g id="line2d_1">
    <path clip-path="url(#p2118423672)" d="
M28.6956 368.346
L32.274 366.61
L67.163 350.366
L68.9521 349.449
L76.1089 346.034
L79.6872 344.128
L83.2656 342.294
L87.7385 339.887
L90.4223 338.54
L97.579 334.723
L100.263 333.307
L104.736 330.9
L106.525 329.983
L110.103 328.117
L116.365 324.743
L120.838 322.332
L122.627 321.417
L129.784 317.507
L131.573 316.58
L137.836 313.178
L142.308 310.831
L149.465 307.074
L153.044 305.095
L162.884 299.862
L166.462 297.948
L172.724 294.538
L175.408 293.175
L184.354 288.472
L187.038 286.973
L189.722 285.563
L195.089 282.648
L197.773 281.306
L212.086 273.578
L213.876 272.666
L221.032 268.75
L223.716 267.323
L227.294 265.337
L229.978 264.006
L238.924 259.105
L240.713 258.188
L245.186 255.771
L246.975 254.856
L250.554 252.938
L255.027 250.615
L259.5 248.235
L263.973 245.927
L270.235 242.563
L272.918 241.154
L281.864 236.498
L285.443 234.5
L288.126 233.084
L292.599 230.588
L294.389 229.674
L299.756 226.756
L301.545 225.84
L304.229 224.426
L308.702 222.069
L314.07 219.189
L315.859 218.269
L322.121 214.858
L324.805 213.511
L333.751 208.797
L336.434 207.435
L347.169 201.726
L348.959 200.81
L350.748 199.896
L353.431 198.489
L356.115 197.151
L359.694 195.251
L361.483 194.336
L365.956 191.931
L367.745 191.017
L371.323 189.102
L379.375 184.691
L381.164 183.758
L398.161 174.667
L400.845 173.212
L403.528 171.798
L406.212 170.464
L409.791 168.555
L412.474 167.224
L415.158 165.811
L417.842 164.496
L424.999 160.585
L426.788 159.643
L440.207 152.455
L445.574 149.676
L460.782 141.691
L462.571 140.779
L467.939 137.876
L470.623 136.54
L475.096 134.052
L475.096 134.052" style="fill:none;stroke:#0000ff;stroke-linecap:square;"/>
   </g>
   <g id="line2d_2">
    <path clip-path="url(#p2118423672)" d="
M28.6956 368.723
L36.7469 365.944
L77.0034 351.754
L80.5818 350.307
L85.0547 348.488
L87.7385 347.404
L90.4223 346.352
L96.6844 343.835
L102.947 341.222
L106.525 339.801
L110.103 338.337
L115.471 336.153
L121.733 333.544
L125.311 332.07
L138.73 326.477
L141.414 325.447
L143.203 324.678
L146.781 323.217
L148.571 322.51
L161.989 316.948
L164.673 315.872
L168.252 314.377
L171.83 312.905
L175.408 311.443
L178.987 310.038
L184.354 307.865
L186.143 307.046
L190.616 305.232
L195.089 303.384
L197.773 302.345
L224.611 291.172
L227.294 290.065
L229.978 289.063
L238.924 285.267
L246.975 282.009
L251.448 280.167
L254.132 279.111
L259.5 276.9
L262.183 275.885
L265.762 274.42
L267.551 273.725
L269.34 272.912
L281.864 267.915
L284.548 266.715
L289.021 264.855
L292.599 263.349
L297.967 261.097
L300.651 260.067
L331.067 247.701
L332.856 247.003
L336.434 245.541
L340.013 244.134
L343.591 242.659
L346.275 241.51
L350.748 239.785
L353.431 238.698
L356.115 237.694
L359.694 236.218
L362.377 235.137
L365.956 233.665
L367.745 232.97
L370.429 231.808
L372.218 231.111
L376.691 229.249
L377.585 228.798
L380.269 227.775
L382.058 227.001
L390.11 223.631
L396.372 221.121
L401.739 218.869
L404.423 217.862
L408.001 216.404
L412.474 214.683
L415.158 213.596
L417.842 212.571
L424.999 209.559
L427.682 208.431
L432.155 206.556
L435.734 205.145
L440.207 203.299
L442.89 202.286
L446.469 200.819
L448.258 200.13
L450.942 199.033
L452.731 198.334
L457.204 196.51
L467.939 192.137
L470.623 191.093
L473.306 189.925
L475.096 189.187
L475.096 189.187" style="fill:none;stroke:#008000;stroke-linecap:square;"/>
   </g>
   <g id="line2d_3">
    <path clip-path="url(#p2118423672)" d="
M28.6956 368.722
L33.1686 366.024
L67.163 345.546
L68.9521 344.339
L70.7413 343.186
L73.4251 341.509
L77.0034 339.219
L79.6872 337.337
L84.1602 334.253
L86.8439 332.363
L89.5277 330.487
L94.0006 327.394
L96.6844 325.519
L102.947 321.021
L106.525 318.544
L109.209 316.662
L127.1 303.823
L128.89 302.527
L134.257 298.606
L138.73 295.448
L141.414 293.653
L142.308 292.907
L145.887 290.417
L175.408 269.369
L178.092 267.581
L183.46 263.695
L184.354 263.154
L186.143 261.744
L189.722 259.248
L195.089 255.362
L196.878 254.147
L199.562 252.271
L202.246 250.286
L204.93 248.466
L207.613 246.435
L210.297 244.529
L213.876 242.057
L220.138 237.478
L225.505 233.484
L228.189 231.708
L234.451 227.14
L237.135 225.246
L239.819 223.311
L244.292 220.148
L245.186 219.476
L246.081 218.944
L249.659 216.327
L255.921 211.948
L258.605 210.061
L260.394 208.847
L262.183 207.635
L263.973 206.324
L266.656 204.55
L272.024 200.543
L273.813 199.371
L276.497 197.581
L279.181 195.691
L302.44 178.921
L304.229 177.71
L306.913 175.893
L307.807 175.297
L309.597 173.906
L311.386 172.64
L314.07 170.754
L315.859 169.54
L320.332 166.279
L326.594 161.883
L328.383 160.672
L333.751 156.901
L334.645 156.362
L336.434 155.057
L339.118 153.269
L345.38 148.703
L351.642 144.392
L352.537 143.86
L355.221 141.983
L356.115 141.448
L357.904 140.155
L361.483 137.689
L365.956 134.465
L367.745 133.262
L369.534 131.852
L374.902 128.144
L377.585 126.036
L380.269 124.249
L381.164 123.494
L382.953 122.227
L387.426 119.023
L399.056 110.798
L400.845 109.488
L402.634 108.273
L405.318 106.399
L406.212 105.868
L408.896 103.988
L411.58 102.111
L414.264 100.356
L416.947 98.4687
L418.737 97.2418
L420.526 95.8404
L424.104 93.359
L430.366 88.7781
L433.945 86.2293
L434.839 85.6884
L438.417 83.0463
L442.89 80.0396
L445.574 78.1509
L449.153 75.6488
L451.836 73.8585
L456.309 70.6462
L463.466 65.6609
L467.044 63.0983
L469.728 61.2372
L472.412 59.3554
L474.201 57.9298
L475.096 57.3527
L475.096 57.3527" style="fill:none;stroke:#ff0000;stroke-linecap:square;"/>
   </g>
   <g id="line2d_4">
    <path clip-path="url(#p2118423672)" d="
M28.6956 368.724
L36.7469 364.018
L43.0091 360.334
L69.8467 344.501
L72.5305 342.792
L76.1089 340.672
L82.371 336.384
L85.0547 334.551
L87.7385 332.725
L89.5277 331.542
L94.0006 328.531
L97.579 326.042
L102.052 322.953
L104.736 321.076
L105.63 320.551
L109.209 318.059
L127.1 305.565
L128.89 304.295
L135.152 299.838
L144.098 293.696
L149.465 290.077
L151.254 288.862
L153.044 287.483
L154.833 286.25
L156.622 285.006
L160.2 282.601
L162.884 280.783
L179.881 269.078
L180.776 268.484
L181.67 267.755
L184.354 265.989
L186.143 264.611
L190.616 261.541
L195.089 258.412
L196.878 257.231
L199.562 255.399
L202.246 253.474
L204.93 251.703
L207.613 249.716
L210.297 247.868
L213.876 245.458
L221.032 240.345
L224.611 237.784
L227.294 235.909
L229.978 234.2
L238.924 227.791
L243.397 224.774
L247.87 221.626
L271.129 205.682
L272.918 204.504
L278.286 200.834
L280.075 199.681
L289.021 193.315
L292.599 190.765
L295.283 188.878
L297.967 186.954
L299.756 185.774
L301.545 184.599
L304.229 182.767
L331.067 164.333
L332.856 163.137
L335.54 161.306
L351.642 150.304
L352.537 149.778
L355.221 147.95
L357.01 146.768
L365.061 141.264
L369.534 138.068
L374.902 134.47
L377.585 132.41
L380.269 130.665
L381.164 129.93
L382.953 128.7
L387.426 125.569
L408.001 111.498
L410.685 109.763
L413.369 107.949
L416.053 106.236
L421.42 102.438
L424.999 99.9427
L426.788 98.6778
L440.207 89.3777
L442.89 87.648
L446.469 85.189
L448.258 84.0278
L450.942 82.1529
L451.836 81.6294
L456.309 78.5
L458.993 76.6648
L460.782 75.4898
L462.571 74.3096
L467.939 70.5252
L469.728 69.3519
L472.412 67.5116
L474.201 66.1154
L475.096 65.5555
L475.096 65.5555" style="fill:none;stroke:#00bfbf;stroke-linecap:square;"/>
   </g>
   <g id="line2d_5">
    <path clip-path="url(#p2118423672)" d="
M28.6956 368.724
L32.274 366.743
L67.163 347.37
L68.9521 346.254
L70.7413 345.196
L73.4251 343.648
L77.0034 341.542
L79.6872 339.807
L85.0547 336.334
L87.7385 334.599
L89.5277 333.484
L94.0006 330.627
L97.579 328.269
L103.841 324.185
L107.419 321.828
L109.209 320.71
L131.573 305.92
L135.152 303.489
L151.254 293.081
L153.044 291.777
L154.833 290.607
L158.411 288.249
L160.2 287.139
L162.884 285.407
L192.405 265.977
L195.089 264.238
L196.878 263.117
L199.562 261.383
L204.035 258.418
L204.93 257.889
L207.613 256.021
L210.297 254.266
L213.876 251.99
L221.032 247.165
L224.611 244.734
L227.294 242.967
L229.978 241.353
L238.029 235.904
L241.608 233.549
L256.816 223.632
L258.605 222.512
L260.394 221.395
L262.183 220.282
L265.762 217.933
L267.551 216.819
L269.34 215.532
L281.864 207.519
L282.759 206.823
L284.548 205.602
L288.126 203.3
L290.81 201.373
L294.389 199.095
L297.072 197.236
L299.756 195.503
L301.545 194.385
L304.229 192.646
L326.594 178.021
L328.383 176.906
L331.067 175.182
L332.856 174.053
L335.54 172.32
L348.959 163.647
L354.326 160.295
L357.01 158.558
L367.745 151.615
L369.534 150.321
L374.902 146.922
L377.585 144.981
L380.269 143.335
L381.164 142.64
L382.953 141.473
L387.426 138.506
L411.58 122.899
L414.264 121.285
L416.947 119.547
L418.737 118.412
L420.526 117.122
L424.104 114.833
L432.155 109.435
L435.734 107.164
L439.312 104.805
L441.996 103.093
L443.785 101.951
L473.306 82.8044
L475.096 81.6311
L475.096 81.6311" style="fill:none;stroke:#bf00bf;stroke-linecap:square;"/>
   </g>
   <g id="line2d_6">
    <path clip-path="url(#p2118423672)" d="
M28.6956 368.723
L33.1686 366.435
L67.163 349.006
L68.9521 347.978
L71.6359 346.488
L77.0034 343.621
L79.6872 342.02
L85.0547 338.82
L87.7385 337.22
L89.5277 336.186
L94.0006 333.55
L97.579 331.382
L112.787 322.225
L117.26 319.478
L118.155 319.017
L119.049 318.363
L121.733 316.777
L124.417 315.167
L133.363 309.57
L151.254 298.867
L153.044 297.667
L155.727 296.014
L163.779 291.24
L172.724 285.723
L174.514 284.694
L179.881 281.552
L182.565 279.895
L187.038 277.146
L191.511 274.415
L195.089 272.238
L196.878 271.206
L199.562 269.604
L204.035 266.859
L204.93 266.37
L206.719 265.188
L212.981 261.429
L215.665 259.809
L221.927 255.925
L223.716 254.804
L227.294 252.58
L229.978 251.092
L238.924 245.49
L244.292 242.281
L247.87 240.109
L270.235 226.727
L272.918 225.126
L275.602 223.574
L281.864 219.858
L282.759 219.216
L284.548 218.09
L288.126 215.966
L290.81 214.176
L294.389 212.072
L297.072 210.355
L299.756 208.754
L301.545 207.722
L304.229 206.118
L324.805 193.701
L328.383 191.599
L331.067 190.004
L332.856 188.964
L335.54 187.371
L351.642 177.768
L354.326 176.279
L357.01 174.677
L365.061 169.878
L370.429 166.559
L372.218 165.527
L374.902 163.931
L377.585 162.132
L380.269 160.613
L381.164 159.97
L382.953 158.895
L387.426 156.149
L408.001 143.834
L410.685 142.313
L413.369 140.713
L416.053 139.225
L422.315 135.348
L424.104 134.311
L431.261 129.861
L446.469 120.831
L448.258 119.818
L450.942 118.185
L452.731 117.162
L456.309 114.988
L463.466 110.757
L467.939 108.018
L469.728 106.989
L472.412 105.388
L474.201 104.164
L475.096 103.67
L475.096 103.67" style="fill:none;stroke:#bfbf00;stroke-linecap:square;"/>
   </g>
   <g id="line2d_7">
    <path clip-path="url(#p2118423672)" d="
M28.6956 368.723
L32.274 367.083
L70.7413 349.097
L73.4251 347.809
L77.0034 346.047
L79.6872 344.601
L91.3169 338.394
L94.8952 336.426
L98.4736 334.495
L110.103 328.173
L115.471 325.25
L120.838 322.251
L126.206 319.3
L140.519 311.394
L141.414 310.979
L143.203 309.943
L146.781 307.992
L148.571 307.044
L165.568 297.672
L167.357 296.712
L172.724 293.718
L174.514 292.786
L179.881 289.946
L182.565 288.448
L187.932 285.481
L189.722 284.508
L195.089 281.517
L196.878 280.587
L199.562 279.138
L204.035 276.656
L205.824 275.647
L212.086 272.212
L217.454 269.325
L219.243 268.28
L229.084 262.811
L230.873 261.878
L233.557 260.326
L238.924 257.321
L244.292 254.428
L247.87 252.461
L288.126 230.633
L290.81 229.02
L294.389 227.12
L297.072 225.568
L299.756 224.122
L303.335 222.255
L306.018 220.805
L310.491 218.33
L314.07 216.367
L315.859 215.433
L322.121 211.917
L323.91 210.986
L336.434 204.28
L339.118 202.91
L346.275 198.905
L350.748 196.603
L353.431 195.159
L356.115 193.816
L359.694 191.852
L361.483 190.917
L365.956 188.437
L367.745 187.506
L369.534 186.419
L374.902 183.587
L377.585 181.959
L380.269 180.587
L382.058 179.555
L387.426 176.557
L405.318 166.837
L407.107 165.906
L413.369 162.595
L416.053 161.252
L422.315 157.751
L424.104 156.816
L432.155 152.294
L434.839 150.92
L439.312 148.439
L441.996 147.013
L443.785 146.065
L453.625 140.805
L455.415 139.873
L459.888 137.385
L462.571 136.044
L467.939 133.049
L469.728 132.12
L472.412 130.67
L474.201 129.562
L475.096 129.118
L475.096 129.118" style="fill:none;stroke:#000000;stroke-linecap:square;"/>
   </g>
   <g id="line2d_8">
    <path clip-path="url(#p2118423672)" d="
M28.6956 368.724
L40.3253 363.902
L70.7413 351.151
L73.4251 350
L77.0034 348.428
L80.5818 346.71
L85.0547 344.545
L87.7385 343.252
L89.5277 342.419
L96.6844 338.993
L102.052 336.343
L107.419 333.727
L109.209 332.893
L146.781 314.417
L148.571 313.568
L161.989 306.92
L164.673 305.636
L168.252 303.852
L170.935 302.555
L175.408 300.36
L178.092 299.138
L183.46 296.464
L184.354 296.092
L186.143 295.117
L189.722 293.406
L195.089 290.734
L196.878 289.901
L199.562 288.605
L204.035 286.385
L205.824 285.482
L212.981 281.992
L217.454 279.825
L219.243 278.895
L229.084 274.01
L230.873 273.181
L233.557 271.794
L239.819 268.697
L244.292 266.524
L248.765 264.332
L256.816 260.42
L258.605 259.587
L260.394 258.754
L262.183 257.922
L265.762 256.164
L267.551 255.331
L269.34 254.366
L281.864 248.394
L283.654 247.471
L285.443 246.549
L294.389 242.115
L297.967 240.265
L299.756 239.433
L303.335 237.765
L306.913 236.043
L307.807 235.639
L309.597 234.653
L311.386 233.79
L314.07 232.496
L315.859 231.661
L322.121 228.517
L323.91 227.683
L336.434 221.687
L340.013 220.003
L341.802 219.168
L343.591 218.243
L346.275 216.878
L350.748 214.821
L353.431 213.528
L356.115 212.325
L359.694 210.567
L362.377 209.27
L365.956 207.518
L367.745 206.687
L369.534 205.712
L374.902 203.174
L377.585 201.716
L380.269 200.491
L382.058 199.566
L388.32 196.445
L391.899 194.672
L393.688 193.837
L405.318 188.188
L407.107 187.355
L411.58 185.232
L414.264 184.032
L416.947 182.738
L418.737 181.89
L421.42 180.518
L429.472 176.505
L436.628 173.03
L440.207 171.285
L442.89 170.075
L446.469 168.328
L448.258 167.509
L450.942 166.191
L452.731 165.358
L457.204 163.182
L467.939 157.955
L469.728 157.124
L472.412 155.828
L474.201 154.834
L475.096 154.439
L475.096 154.439" style="fill:none;stroke:#0000ff;stroke-linecap:square;"/>
   </g>
   <g id="line2d_9">
    <path clip-path="url(#p2118423672)" d="
M28.6956 368.723
L36.7469 366.001
L77.0034 352.079
L80.5818 350.67
L85.0547 348.901
L87.7385 347.839
L90.4223 346.807
L96.6844 344.34
L102.947 341.78
L108.314 339.71
L114.576 337.165
L118.155 335.759
L119.944 334.998
L126.206 332.45
L144.992 324.833
L147.676 323.835
L156.622 320.148
L161.095 318.371
L172.724 313.678
L174.514 312.992
L179.881 310.896
L182.565 309.801
L187.932 307.621
L190.616 306.537
L195.089 304.717
L197.773 303.701
L256.816 279.817
L258.605 279.132
L260.394 278.447
L262.183 277.765
L265.762 276.32
L267.551 275.635
L269.34 274.834
L281.864 269.935
L284.548 268.759
L289.021 266.93
L292.599 265.455
L297.967 263.255
L302.44 261.509
L304.229 260.823
L314.07 256.883
L315.859 256.197
L322.121 253.618
L323.91 252.935
L340.907 246.288
L344.486 244.779
L353.431 241.307
L356.115 240.321
L359.694 238.88
L362.377 237.819
L365.956 236.374
L367.745 235.692
L369.534 234.887
L374.902 232.807
L377.585 231.607
L380.269 230.605
L382.058 229.846
L389.215 226.912
L401.739 221.882
L404.423 220.889
L408.001 219.465
L412.474 217.781
L415.158 216.718
L417.842 215.728
L429.472 210.917
L436.628 208.067
L440.207 206.631
L442.89 205.637
L446.469 204.202
L449.153 203.15
L452.731 201.761
L458.098 199.603
L472.412 193.925
L475.096 192.785
L475.096 192.785" style="fill:none;stroke:#008000;stroke-linecap:square;"/>
   </g>
   <g id="line2d_10">
    <path clip-path="url(#p2118423672)" d="
M28.6956 368.724
L41.2199 364.238
L67.163 354.941
L68.9521 354.217
L76.1089 351.556
L87.7385 346.71
L89.5277 345.986
L100.263 341.521
L104.736 339.604
L106.525 338.885
L113.682 335.859
L118.155 334.028
L119.049 333.565
L122.627 332.11
L129.784 329.016
L134.257 327.079
L146.781 321.852
L148.571 321.123
L161.989 315.397
L164.673 314.296
L168.252 312.759
L171.83 311.244
L175.408 309.74
L178.987 308.294
L184.354 306.054
L186.143 305.211
L190.616 303.35
L195.089 301.445
L196.878 300.736
L200.457 299.22
L209.403 295.386
L220.138 290.833
L227.294 287.728
L229.978 286.687
L239.819 282.42
L246.975 279.422
L251.448 277.526
L254.132 276.449
L259.5 274.177
L262.183 273.128
L265.762 271.618
L267.551 270.898
L269.34 270.066
L280.075 265.655
L289.021 261.786
L292.599 260.238
L297.967 257.92
L300.651 256.854
L336.434 241.907
L340.013 240.457
L343.591 238.948
L346.275 237.773
L350.748 235.999
L353.431 234.892
L356.115 233.849
L359.694 232.338
L362.377 231.215
L365.956 229.698
L367.745 228.975
L369.534 228.128
L374.902 225.942
L377.585 224.679
L380.269 223.625
L382.058 222.826
L389.215 219.738
L398.161 215.972
L400.845 214.848
L403.528 213.738
L406.212 212.696
L409.791 211.18
L412.474 210.153
L415.158 209.04
L417.842 207.989
L424.999 204.906
L427.682 203.74
L432.155 201.818
L435.734 200.363
L440.207 198.457
L442.89 197.413
L446.469 195.902
L449.153 194.803
L452.731 193.339
L457.204 191.459
L466.15 187.722
L472.412 185.135
L475.096 183.939
L475.096 183.939" style="fill:none;stroke:#ff0000;stroke-linecap:square;"/>
   </g>
   <g id="line2d_11">
    <path clip-path="url(#p2118423672)" d="
M28.6956 368.723
L34.9577 366.294
L76.1089 350.054
L87.7385 344.766
L89.5277 343.98
L97.579 340.323
L126.206 327.137
L138.73 321.286
L141.414 320.132
L143.203 319.27
L146.781 317.625
L148.571 316.829
L161.989 310.574
L164.673 309.371
L168.252 307.69
L171.83 306.035
L175.408 304.4
L178.092 303.257
L183.46 300.738
L184.354 300.389
L186.143 299.468
L190.616 297.431
L195.089 295.355
L196.878 294.579
L200.457 292.925
L204.035 291.272
L205.824 290.415
L212.981 287.126
L217.454 285.083
L219.243 284.194
L256.816 266.8
L258.605 266.013
L260.394 265.228
L262.183 264.444
L265.762 262.784
L267.551 261.999
L269.34 261.086
L277.391 257.47
L280.97 255.864
L283.654 254.609
L285.443 253.741
L289.916 251.588
L298.862 247.396
L301.545 246.25
L305.124 244.62
L307.807 243.477
L309.597 242.546
L311.386 241.738
L314.07 240.523
L315.859 239.734
L322.121 236.783
L323.91 235.996
L374.902 212.977
L377.585 211.601
L380.269 210.452
L382.058 209.584
L391.899 204.991
L393.688 204.208
L408.001 197.702
L412.474 195.765
L415.158 194.546
L417.842 193.398
L424.999 190.022
L427.682 188.757
L433.945 185.864
L435.734 185.078
L440.207 183.002
L442.89 181.857
L446.469 180.213
L448.258 179.448
L450.942 178.216
L452.731 177.431
L457.204 175.385
L467.939 170.483
L469.728 169.697
L472.412 168.473
L474.201 167.539
L475.096 167.167
L475.096 167.167" style="fill:none;stroke:#00bfbf;stroke-linecap:square;"/>
   </g>
   <g id="line2d_12">
    <path clip-path="url(#p2118423672)" d="
M28.6956 368.723
L33.1686 366.8
L69.8467 350.842
L73.4251 349.198
L77.0034 347.553
L79.6872 346.208
L85.0547 343.522
L87.7385 342.171
L89.5277 341.298
L100.263 335.92
L104.736 333.615
L106.525 332.752
L110.103 330.936
L116.365 327.74
L123.522 324.069
L127.1 322.191
L129.784 320.781
L134.257 318.444
L140.519 315.286
L141.414 314.909
L143.203 313.944
L146.781 312.124
L148.571 311.24
L161.989 304.338
L164.673 303.006
L168.252 301.139
L171.83 299.31
L175.408 297.497
L178.987 295.756
L184.354 293.044
L186.143 292.027
L189.722 290.237
L196.878 286.583
L200.457 284.746
L204.035 282.917
L205.824 281.979
L210.297 279.656
L213.876 277.886
L221.927 273.659
L223.716 272.722
L227.294 270.847
L229.978 269.586
L238.924 264.85
L244.292 262.158
L248.765 259.864
L253.238 257.613
L258.605 254.914
L260.394 254.043
L262.183 253.173
L265.762 251.339
L267.551 250.464
L269.34 249.452
L272.918 247.675
L278.286 244.981
L280.075 244.132
L288.126 239.971
L290.81 238.456
L294.389 236.689
L297.072 235.237
L299.756 233.881
L303.335 232.145
L306.913 230.343
L307.807 229.918
L309.597 228.889
L313.175 227.132
L319.437 223.879
L323.015 222.137
L326.594 220.299
L328.383 219.439
L331.067 218.09
L332.856 217.219
L336.434 215.403
L339.118 214.131
L346.275 210.378
L350.748 208.244
L353.431 206.898
L356.115 205.637
L359.694 203.818
L362.377 202.464
L365.956 200.625
L367.745 199.751
L369.534 198.729
L374.902 196.074
L377.585 194.551
L380.269 193.265
L382.058 192.301
L390.11 188.097
L396.372 184.981
L401.739 182.19
L404.423 180.925
L408.001 179.142
L410.685 177.862
L413.369 176.526
L416.053 175.265
L422.315 171.997
L424.104 171.116
L432.155 166.882
L435.734 165.114
L440.207 162.809
L442.89 161.539
L446.469 159.719
L448.258 158.862
L450.942 157.483
L452.731 156.63
L456.309 154.805
L464.361 150.736
L467.939 148.919
L469.728 148.05
L472.412 146.695
L474.201 145.662
L475.096 145.246
L475.096 145.246" style="fill:none;stroke:#bf00bf;stroke-linecap:square;"/>
   </g>
   <g id="line2d_13">
    <path clip-path="url(#p2118423672)" d="
M28.6956 368.724
L32.274 367.02
L69.8467 348.837
L72.5305 347.442
L77.0034 345.189
L80.5818 343.192
L85.0547 340.684
L87.7385 339.177
L89.5277 338.204
L96.6844 334.219
L101.157 331.64
L132.468 313.756
L138.73 310.204
L141.414 308.782
L143.203 307.703
L145.887 306.193
L165.568 294.976
L167.357 294.002
L172.724 290.893
L174.514 289.939
L179.881 286.987
L182.565 285.44
L187.038 282.863
L204.93 272.744
L207.613 271.115
L210.297 269.592
L213.876 267.616
L221.032 263.428
L238.029 253.664
L241.608 251.637
L251.448 246.079
L254.132 244.612
L259.5 241.567
L262.183 240.153
L265.762 238.107
L267.551 237.136
L269.34 236.007
L277.391 231.553
L280.075 230.071
L289.021 224.83
L292.599 222.745
L295.283 221.195
L297.967 219.623
L300.651 218.198
L331.067 201.094
L332.856 200.118
L336.434 198.107
L340.013 196.145
L341.802 195.169
L343.591 194.091
L346.275 192.52
L350.748 190.117
L353.431 188.612
L356.115 187.21
L359.694 185.181
L362.377 183.675
L365.956 181.63
L367.745 180.661
L369.534 179.524
L374.902 176.574
L377.585 174.883
L380.269 173.452
L381.164 172.847
L382.953 171.845
L387.426 169.277
L399.056 162.712
L400.845 161.663
L403.528 160.183
L406.212 158.781
L409.791 156.74
L412.474 155.335
L415.158 153.823
L417.842 152.401
L424.999 148.218
L427.682 146.651
L432.155 144.059
L435.734 142.102
L439.312 140.057
L441.996 138.572
L443.785 137.604
L450.942 133.639
L452.731 132.674
L456.309 130.649
L464.361 126.117
L467.939 124.079
L469.728 123.112
L472.412 121.603
L474.201 120.456
L475.096 119.989
L475.096 119.989" style="fill:none;stroke:#bfbf00;stroke-linecap:square;"/>
   </g>
   <g id="line2d_14">
    <path clip-path="url(#p2118423672)" d="
M28.6956 368.723
L32.274 366.84
L69.8467 346.86
L72.5305 345.323
L77.0034 342.835
L79.6872 341.175
L85.0547 337.861
L86.8439 336.791
L90.4223 334.615
L96.6844 330.792
L101.157 327.965
L115.471 319.093
L121.733 315.122
L125.311 312.882
L140.519 303.265
L141.414 302.79
L143.203 301.61
L145.887 299.95
L172.724 283.064
L174.514 282.003
L205.824 262.468
L212.981 257.992
L215.665 256.321
L227.294 248.857
L229.978 247.307
L238.924 241.546
L243.397 238.82
L247.87 235.977
L267.551 223.916
L269.34 222.688
L277.391 217.775
L280.075 216.143
L289.021 210.42
L292.599 208.129
L295.283 206.43
L297.967 204.703
L299.756 203.64
L303.335 201.502
L306.018 199.843
L308.702 198.116
L312.28 195.847
L314.964 194.3
L322.121 189.707
L323.91 188.641
L341.802 177.805
L343.591 176.624
L346.275 174.895
L350.748 172.251
L353.431 170.592
L356.115 169.045
L359.694 166.813
L361.483 165.752
L365.956 162.923
L367.745 161.864
L369.534 160.62
L374.902 157.359
L377.585 155.513
L380.269 153.943
L381.164 153.279
L382.953 152.187
L387.426 149.365
L399.056 142.146
L400.845 140.998
L403.528 139.339
L406.212 137.798
L409.791 135.552
L412.474 134.005
L415.158 132.358
L416.947 131.292
L418.737 130.21
L420.526 128.982
L424.104 126.811
L429.472 123.34
L435.734 119.495
L438.417 117.764
L442.89 115.125
L446.469 112.911
L448.258 111.869
L450.942 110.181
L452.731 109.115
L456.309 106.877
L462.571 103.103
L467.044 100.262
L469.728 98.6191
L472.412 96.9671
L474.201 95.7091
L475.096 95.1976
L475.096 95.1976" style="fill:none;stroke:#000000;stroke-linecap:square;"/>
   </g>
   <g id="line2d_15">
    <path clip-path="url(#p2118423672)" d="
M28.6956 368.724
L31.3794 367.228
L54.6387 354.063
L76.1089 341.682
L87.7385 334.026
L89.5277 332.883
L94.0006 330.003
L97.579 327.6
L102.052 324.615
L104.736 322.818
L106.525 321.676
L109.209 319.908
L118.155 313.972
L119.049 313.262
L122.627 310.946
L133.363 303.566
L169.146 279.734
L171.83 277.901
L174.514 276.126
L206.719 254.571
L210.297 252.167
L212.981 250.419
L215.665 248.631
L221.927 244.346
L223.716 243.12
L226.4 241.294
L229.084 239.528
L230.873 238.395
L233.557 236.509
L238.029 233.459
L241.608 231.054
L255.921 221.581
L258.605 219.809
L260.394 218.664
L262.183 217.528
L265.762 215.125
L267.551 213.993
L269.34 212.674
L276.497 208.066
L279.181 206.292
L283.654 203.262
L285.443 201.997
L289.021 199.529
L292.599 197.077
L295.283 195.252
L297.072 194.031
L299.756 192.278
L303.335 190.003
L306.018 188.24
L308.702 186.405
L314.07 182.835
L315.859 181.691
L320.332 178.624
L326.594 174.502
L328.383 173.374
L331.067 171.618
L331.961 171.116
L335.54 168.708
L348.959 159.887
L358.799 153.571
L363.272 150.54
L365.061 149.395
L370.429 145.721
L372.218 144.593
L374.902 142.826
L375.796 142.123
L376.691 141.562
L377.585 140.851
L380.269 139.165
L382.058 137.931
L389.215 133.074
L403.528 123.611
L406.212 121.985
L409.791 119.594
L412.474 117.942
L415.158 116.167
L416.947 115.03
L418.737 113.863
L420.526 112.55
L424.104 110.223
L429.472 106.507
L435.734 102.395
L439.312 100.001
L441.996 98.2614
L443.785 97.0967
L450.942 92.4294
L452.731 91.3062
L456.309 88.9129
L463.466 84.2265
L467.044 81.8367
L469.728 80.0932
L472.412 78.3306
L474.201 76.9966
L475.096 76.454
L475.096 76.454" style="fill:none;stroke:#0000ff;stroke-linecap:square;"/>
   </g>
   <g id="line2d_16">
    <path clip-path="url(#p2118423672)" d="
M28.6956 368.724
L33.1686 366.104
L67.163 345.957
L68.9521 344.768
L70.7413 343.634
L72.5305 342.504
L76.1089 340.351
L82.371 336.022
L85.0547 334.157
L87.7385 332.301
L89.5277 331.11
L94.0006 328.054
L97.579 325.546
L102.052 322.407
L104.736 320.502
L105.63 319.969
L107.419 318.646
L108.314 318.124
L111.892 315.593
L117.26 311.756
L118.155 311.219
L119.049 310.463
L121.733 308.619
L124.417 306.754
L129.784 302.865
L131.573 301.622
L135.152 299.037
L139.625 296.012
L144.992 292.212
L147.676 290.447
L155.727 284.638
L164.673 278.476
L168.252 275.92
L170.935 274.055
L175.408 270.932
L178.092 269.166
L183.46 265.34
L184.354 264.809
L186.143 263.413
L190.616 260.296
L193.3 258.326
L194.195 257.795
L196.878 255.937
L199.562 254.092
L203.141 251.59
L210.297 246.504
L213.876 244.071
L216.559 242.156
L217.454 241.579
L219.243 240.238
L227.294 234.423
L229.084 233.232
L229.978 232.698
L236.24 228.121
L240.713 225.004
L242.502 223.717
L244.292 222.506
L247.87 219.99
L255.921 214.426
L258.605 212.574
L260.394 211.38
L262.183 210.19
L263.973 208.911
L266.656 207.154
L273.813 202.042
L276.497 200.286
L279.181 198.422
L289.916 190.673
L292.599 188.771
L295.283 186.865
L297.967 184.922
L299.756 183.728
L301.545 182.532
L303.335 181.335
L306.018 179.491
L308.702 177.556
L312.28 174.993
L314.964 173.274
L322.121 168.145
L323.91 166.953
L338.223 157.171
L340.013 155.975
L341.802 154.779
L343.591 153.471
L346.275 151.522
L350.748 148.557
L353.431 146.702
L356.115 144.978
L359.694 142.458
L361.483 141.259
L365.956 138.093
L367.745 136.912
L369.534 135.517
L374.902 131.874
L375.796 131.14
L376.691 130.556
L377.585 129.801
L380.269 128.045
L381.164 127.3
L382.953 126.051
L385.637 124.098
L388.32 122.263
L391.899 119.701
L393.688 118.512
L411.58 106.21
L414.264 104.479
L416.053 103.278
L422.315 98.8022
L424.104 97.5995
L430.366 93.105
L433.945 90.5994
L434.839 90.0655
L438.417 87.4683
L442.89 84.503
L445.574 82.6644
L450.942 78.9596
L451.836 78.436
L455.415 75.9201
L458.098 74.0279
L472.412 64.161
L474.201 62.7492
L475.096 62.1686
L475.096 62.1686" style="fill:none;stroke:#008000;stroke-linecap:square;"/>
   </g>
   <g id="patch_3">
    <path d="
M28.6956 23.1417
L475.096 23.1417" style="fill:none;stroke:#000000;stroke-linecap:square;stroke-linejoin:miter;"/>
   </g>
   <g id="patch_4">
    <path d="
M475.096 368.742
L475.096 23.1417" style="fill:none;stroke:#000000;stroke-linecap:square;stroke-linejoin:miter;"/>
   </g>
   <g id="patch_5">
    <path d="
M28.6956 368.742
L475.096 368.742" style="fill:none;stroke:#000000;stroke-linecap:square;stroke-linejoin:miter;"/>
   </g>
   <g id="patch_6">
    <path d="
M28.6956 368.742
L28.6956 23.1417" style="fill:none;stroke:#000000;stroke-linecap:square;stroke-linejoin:miter;"/>
   </g>
   <g id="matplotlib.axis_1">
    <g id="xtick_1">
     <g id="line2d_17">
      <defs>
       <path d="
M0 0
L0 -4" id="m93b0483c22" style="stroke:#000000;stroke-width:0.5;"/>
      </defs>
      <g>
       <use style="stroke:#000000;stroke-width:0.5;" x="28.695625" xlink:href="#m93b0483c22" y="368.74175"/>
      </g>
     </g>
     <g id="line2d_18">
      <defs>
       <path d="
M0 0
L0 4" id="m741efc42ff" style="stroke:#000000;stroke-width:0.5;"/>
      </defs>
      <g>
       <use style="stroke:#000000;stroke-width:0.5;" x="28.695625" xlink:href="#m741efc42ff" y="23.14175"/>
      </g>
     </g>
     <g id="text_1">
      <!-- 0 -->
      <defs>
       <path d="
M31.7812 66.4062
Q24.1719 66.4062 20.3281 58.9062
Q16.5 51.4219 16.5 36.375
Q16.5 21.3906 20.3281 13.8906
Q24.1719 6.39062 31.7812 6.39062
Q39.4531 6.39062 43.2812 13.8906
Q47.125 21.3906 47.125 36.375
Q47.125 51.4219 43.2812 58.9062
Q39.4531 66.4062 31.7812 66.4062
M31.7812 74.2188
Q44.0469 74.2188 50.5156 64.5156
Q56.9844 54.8281 56.9844 36.375
Q56.9844 17.9688 50.5156 8.26562
Q44.0469 -1.42188 31.7812 -1.42188
Q19.5312 -1.42188 13.0625 8.26562
Q6.59375 17.9688 6.59375 36.375
Q6.59375 54.8281 13.0625 64.5156
Q19.5312 74.2188 31.7812 74.2188" id="DejaVuSans-30"/>
      </defs>
      <g transform="translate(25.6721875 381.859875)scale(0.12 -0.12)">
       <use xlink:href="#DejaVuSans-30"/>
      </g>
     </g>
    </g>
    <g id="xtick_2">
     <g id="line2d_19">
      <g>
       <use style="stroke:#000000;stroke-width:0.5;" x="118.154542836" xlink:href="#m93b0483c22" y="368.74175"/>
      </g>
     </g>
     <g id="line2d_20">
      <g>
       <use style="stroke:#000000;stroke-width:0.5;" x="118.154542836" xlink:href="#m741efc42ff" y="23.14175"/>
      </g>
     </g>
     <g id="text_2">
      <!-- 100 -->
      <defs>
       <path d="
M12.4062 8.29688
L28.5156 8.29688
L28.5156 63.9219
L10.9844 60.4062
L10.9844 69.3906
L28.4219 72.9062
L38.2812 72.9062
L38.2812 8.29688
L54.3906 8.29688
L54.3906 0
L12.4062 0
z
" id="DejaVuSans-31"/>
      </defs>
      <g transform="translate(107.759542836 381.859875)scale(0.12 -0.12)">
       <use xlink:href="#DejaVuSans-31"/>
       <use x="63.623046875" xlink:href="#DejaVuSans-30"/>
       <use x="127.24609375" xlink:href="#DejaVuSans-30"/>
      </g>
     </g>
    </g>
    <g id="xtick_3">
     <g id="line2d_21">
      <g>
       <use style="stroke:#000000;stroke-width:0.5;" x="207.613460671" xlink:href="#m93b0483c22" y="368.74175"/>
      </g>
     </g>
     <g id="line2d_22">
      <g>
       <use style="stroke:#000000;stroke-width:0.5;" x="207.613460671" xlink:href="#m741efc42ff" y="23.14175"/>
      </g>
     </g>
     <g id="text_3">
      <!-- 200 -->
      <defs>
       <path d="
M19.1875 8.29688
L53.6094 8.29688
L53.6094 0
L7.32812 0
L7.32812 8.29688
Q12.9375 14.1094 22.625 23.8906
Q32.3281 33.6875 34.8125 36.5312
Q39.5469 41.8438 41.4219 45.5312
Q43.3125 49.2188 43.3125 52.7812
Q43.3125 58.5938 39.2344 62.25
Q35.1562 65.9219 28.6094 65.9219
Q23.9688 65.9219 18.8125 64.3125
Q13.6719 62.7031 7.8125 59.4219
L7.8125 69.3906
Q13.7656 71.7812 18.9375 73
Q24.125 74.2188 28.4219 74.2188
Q39.75 74.2188 46.4844 68.5469
Q53.2188 62.8906 53.2188 53.4219
Q53.2188 48.9219 51.5312 44.8906
Q49.8594 40.875 45.4062 35.4062
Q44.1875 33.9844 37.6406 27.2188
Q31.1094 20.4531 19.1875 8.29688" id="DejaVuSans-32"/>
      </defs>
      <g transform="translate(196.999085671 381.859875)scale(0.12 -0.12)">
       <use xlink:href="#DejaVuSans-32"/>
       <use x="63.623046875" xlink:href="#DejaVuSans-30"/>
       <use x="127.24609375" xlink:href="#DejaVuSans-30"/>
      </g>
     </g>
    </g>
    <g id="xtick_4">
     <g id="line2d_23">
      <g>
       <use style="stroke:#000000;stroke-width:0.5;" x="297.072378507" xlink:href="#m93b0483c22" y="368.74175"/>
      </g>
     </g>
     <g id="line2d_24">
      <g>
       <use style="stroke:#000000;stroke-width:0.5;" x="297.072378507" xlink:href="#m741efc42ff" y="23.14175"/>
      </g>
     </g>
     <g id="text_4">
      <!-- 300 -->
      <defs>
       <path d="
M40.5781 39.3125
Q47.6562 37.7969 51.625 33
Q55.6094 28.2188 55.6094 21.1875
Q55.6094 10.4062 48.1875 4.48438
Q40.7656 -1.42188 27.0938 -1.42188
Q22.5156 -1.42188 17.6562 -0.515625
Q12.7969 0.390625 7.625 2.20312
L7.625 11.7188
Q11.7188 9.32812 16.5938 8.10938
Q21.4844 6.89062 26.8125 6.89062
Q36.0781 6.89062 40.9375 10.5469
Q45.7969 14.2031 45.7969 21.1875
Q45.7969 27.6406 41.2812 31.2656
Q36.7656 34.9062 28.7188 34.9062
L20.2188 34.9062
L20.2188 43.0156
L29.1094 43.0156
Q36.375 43.0156 40.2344 45.9219
Q44.0938 48.8281 44.0938 54.2969
Q44.0938 59.9062 40.1094 62.9062
Q36.1406 65.9219 28.7188 65.9219
Q24.6562 65.9219 20.0156 65.0312
Q15.375 64.1562 9.8125 62.3125
L9.8125 71.0938
Q15.4375 72.6562 20.3438 73.4375
Q25.25 74.2188 29.5938 74.2188
Q40.8281 74.2188 47.3594 69.1094
Q53.9062 64.0156 53.9062 55.3281
Q53.9062 49.2656 50.4375 45.0938
Q46.9688 40.9219 40.5781 39.3125" id="DejaVuSans-33"/>
      </defs>
      <g transform="translate(286.475816007 381.859875)scale(0.12 -0.12)">
       <use xlink:href="#DejaVuSans-33"/>
       <use x="63.623046875" xlink:href="#DejaVuSans-30"/>
       <use x="127.24609375" xlink:href="#DejaVuSans-30"/>
      </g>
     </g>
    </g>
    <g id="xtick_5">
     <g id="line2d_25">
      <g>
       <use style="stroke:#000000;stroke-width:0.5;" x="386.531296343" xlink:href="#m93b0483c22" y="368.74175"/>
      </g>
     </g>
     <g id="line2d_26">
      <g>
       <use style="stroke:#000000;stroke-width:0.5;" x="386.531296343" xlink:href="#m741efc42ff" y="23.14175"/>
      </g>
     </g>
     <g id="text_5">
      <!-- 400 -->
      <defs>
       <path d="
M37.7969 64.3125
L12.8906 25.3906
L37.7969 25.3906
z

M35.2031 72.9062
L47.6094 72.9062
L47.6094 25.3906
L58.0156 25.3906
L58.0156 17.1875
L47.6094 17.1875
L47.6094 0
L37.7969 0
L37.7969 17.1875
L4.89062 17.1875
L4.89062 26.7031
z
" id="DejaVuSans-34"/>
      </defs>
      <g transform="translate(375.770671343 381.859875)scale(0.12 -0.12)">
       <use xlink:href="#DejaVuSans-34"/>
       <use x="63.623046875" xlink:href="#DejaVuSans-30"/>
       <use x="127.24609375" xlink:href="#DejaVuSans-30"/>
      </g>
     </g>
    </g>
    <g id="text_6">
     <!-- time -->
     <defs>
      <path d="
M18.3125 70.2188
L18.3125 54.6875
L36.8125 54.6875
L36.8125 47.7031
L18.3125 47.7031
L18.3125 18.0156
Q18.3125 11.3281 20.1406 9.42188
Q21.9688 7.51562 27.5938 7.51562
L36.8125 7.51562
L36.8125 0
L27.5938 0
Q17.1875 0 13.2344 3.875
Q9.28125 7.76562 9.28125 18.0156
L9.28125 47.7031
L2.6875 47.7031
L2.6875 54.6875
L9.28125 54.6875
L9.28125 70.2188
z
" id="DejaVuSans-74"/>
      <path d="
M52 44.1875
Q55.375 50.25 60.0625 53.125
Q64.75 56 71.0938 56
Q79.6406 56 84.2812 50.0156
Q88.9219 44.0469 88.9219 33.0156
L88.9219 0
L79.8906 0
L79.8906 32.7188
Q79.8906 40.5781 77.0938 44.375
Q74.3125 48.1875 68.6094 48.1875
Q61.625 48.1875 57.5625 43.5469
Q53.5156 38.9219 53.5156 30.9062
L53.5156 0
L44.4844 0
L44.4844 32.7188
Q44.4844 40.625 41.7031 44.4062
Q38.9219 48.1875 33.1094 48.1875
Q26.2188 48.1875 22.1562 43.5312
Q18.1094 38.875 18.1094 30.9062
L18.1094 0
L9.07812 0
L9.07812 54.6875
L18.1094 54.6875
L18.1094 46.1875
Q21.1875 51.2188 25.4844 53.6094
Q29.7812 56 35.6875 56
Q41.6562 56 45.8281 52.9688
Q50 49.9531 52 44.1875" id="DejaVuSans-6d"/>
      <path d="
M56.2031 29.5938
L56.2031 25.2031
L14.8906 25.2031
Q15.4844 15.9219 20.4844 11.0625
Q25.4844 6.20312 34.4219 6.20312
Q39.5938 6.20312 44.4531 7.46875
Q49.3125 8.73438 54.1094 11.2812
L54.1094 2.78125
Q49.2656 0.734375 44.1875 -0.34375
Q39.1094 -1.42188 33.8906 -1.42188
Q20.7969 -1.42188 13.1562 6.1875
Q5.51562 13.8125 5.51562 26.8125
Q5.51562 40.2344 12.7656 48.1094
Q20.0156 56 32.3281 56
Q43.3594 56 49.7812 48.8906
Q56.2031 41.7969 56.2031 29.5938
M47.2188 32.2344
Q47.125 39.5938 43.0938 43.9844
Q39.0625 48.3906 32.4219 48.3906
Q24.9062 48.3906 20.3906 44.1406
Q15.875 39.8906 15.1875 32.1719
z
" id="DejaVuSans-65"/>
      <path d="
M9.42188 54.6875
L18.4062 54.6875
L18.4062 0
L9.42188 0
z

M9.42188 75.9844
L18.4062 75.9844
L18.4062 64.5938
L9.42188 64.5938
z
" id="DejaVuSans-69"/>
     </defs>
     <g transform="translate(238.82125 398.473625)scale(0.12 -0.12)">
      <use xlink:href="#DejaVuSans-74"/>
      <use x="39.208984375" xlink:href="#DejaVuSans-69"/>
      <use x="66.9921875" xlink:href="#DejaVuSans-6d"/>
      <use x="164.404296875" xlink:href="#DejaVuSans-65"/>
     </g>
    </g>
   </g>
   <g id="matplotlib.axis_2">
    <g id="ytick_1">
     <g id="line2d_27">
      <defs>
       <path d="
M0 0
L4 0" id="m728421d6d4" style="stroke:#000000;stroke-width:0.5;"/>
      </defs>
      <g>
       <use style="stroke:#000000;stroke-width:0.5;" x="28.695625" xlink:href="#m728421d6d4" y="368.74175"/>
      </g>
     </g>
     <g id="line2d_28">
      <defs>
       <path d="
M0 0
L-4 0" id="mcb0005524f" style="stroke:#000000;stroke-width:0.5;"/>
      </defs>
      <g>
       <use style="stroke:#000000;stroke-width:0.5;" x="475.095625" xlink:href="#mcb0005524f" y="368.74175"/>
      </g>
     </g>
     <g id="text_7">
      <!-- 0.0 -->
      <defs>
       <path d="
M10.6875 12.4062
L21 12.4062
L21 0
L10.6875 0
z
" id="DejaVuSans-2e"/>
      </defs>
      <g transform="translate(7.2 372.053)scale(0.12 -0.12)">
       <use xlink:href="#DejaVuSans-30"/>
       <use x="63.623046875" xlink:href="#DejaVuSans-2e"/>
       <use x="95.41015625" xlink:href="#DejaVuSans-30"/>
      </g>
     </g>
    </g>
    <g id="ytick_2">
     <g id="line2d_29">
      <g>
       <use style="stroke:#000000;stroke-width:0.5;" x="28.695625" xlink:href="#m728421d6d4" y="282.34175"/>
      </g>
     </g>
     <g id="line2d_30">
      <g>
       <use style="stroke:#000000;stroke-width:0.5;" x="475.095625" xlink:href="#mcb0005524f" y="282.34175"/>
      </g>
     </g>
     <g id="text_8">
      <!-- 0.5 -->
      <defs>
       <path d="
M10.7969 72.9062
L49.5156 72.9062
L49.5156 64.5938
L19.8281 64.5938
L19.8281 46.7344
Q21.9688 47.4688 24.1094 47.8281
Q26.2656 48.1875 28.4219 48.1875
Q40.625 48.1875 47.75 41.5
Q54.8906 34.8125 54.8906 23.3906
Q54.8906 11.625 47.5625 5.09375
Q40.2344 -1.42188 26.9062 -1.42188
Q22.3125 -1.42188 17.5469 -0.640625
Q12.7969 0.140625 7.71875 1.70312
L7.71875 11.625
Q12.1094 9.23438 16.7969 8.0625
Q21.4844 6.89062 26.7031 6.89062
Q35.1562 6.89062 40.0781 11.3281
Q45.0156 15.7656 45.0156 23.3906
Q45.0156 31 40.0781 35.4375
Q35.1562 39.8906 26.7031 39.8906
Q22.75 39.8906 18.8125 39.0156
Q14.8906 38.1406 10.7969 36.2812
z
" id="DejaVuSans-35"/>
      </defs>
      <g transform="translate(7.45125 285.653)scale(0.12 -0.12)">
       <use xlink:href="#DejaVuSans-30"/>
       <use x="63.623046875" xlink:href="#DejaVuSans-2e"/>
       <use x="95.41015625" xlink:href="#DejaVuSans-35"/>
      </g>
     </g>
    </g>
    <g id="ytick_3">
     <g id="line2d_31">
      <g>
       <use style="stroke:#000000;stroke-width:0.5;" x="28.695625" xlink:href="#m728421d6d4" y="195.94175"/>
      </g>
     </g>
     <g id="line2d_32">
      <g>
       <use style="stroke:#000000;stroke-width:0.5;" x="475.095625" xlink:href="#mcb0005524f" y="195.94175"/>
      </g>
     </g>
     <g id="text_9">
      <!-- 1.0 -->
      <g transform="translate(7.726875 199.253)scale(0.12 -0.12)">
       <use xlink:href="#DejaVuSans-31"/>
       <use x="63.623046875" xlink:href="#DejaVuSans-2e"/>
       <use x="95.41015625" xlink:href="#DejaVuSans-30"/>
      </g>
     </g>
    </g>
    <g id="ytick_4">
     <g id="line2d_33">
      <g>
       <use style="stroke:#000000;stroke-width:0.5;" x="28.695625" xlink:href="#m728421d6d4" y="109.54175"/>
      </g>
     </g>
     <g id="line2d_34">
      <g>
       <use style="stroke:#000000;stroke-width:0.5;" x="475.095625" xlink:href="#mcb0005524f" y="109.54175"/>
      </g>
     </g>
     <g id="text_10">
      <!-- 1.5 -->
      <g transform="translate(7.978125 112.853)scale(0.12 -0.12)">
       <use xlink:href="#DejaVuSans-31"/>
       <use x="63.623046875" xlink:href="#DejaVuSans-2e"/>
       <use x="95.41015625" xlink:href="#DejaVuSans-35"/>
      </g>
     </g>
    </g>
    <g id="ytick_5">
     <g id="line2d_35">
      <g>
       <use style="stroke:#000000;stroke-width:0.5;" x="28.695625" xlink:href="#m728421d6d4" y="23.14175"/>
      </g>
     </g>
     <g id="line2d_36">
      <g>
       <use style="stroke:#000000;stroke-width:0.5;" x="475.095625" xlink:href="#mcb0005524f" y="23.14175"/>
      </g>
     </g>
     <g id="text_11">
      <!-- 2.0 -->
      <g transform="translate(7.288125 26.453)scale(0.12 -0.12)">
       <use xlink:href="#DejaVuSans-32"/>
       <use x="63.623046875" xlink:href="#DejaVuSans-2e"/>
       <use x="95.41015625" xlink:href="#DejaVuSans-30"/>
      </g>
     </g>
    </g>
    <g id="text_12">
     <!-- 1e7 -->
     <defs>
      <path d="
M8.20312 72.9062
L55.0781 72.9062
L55.0781 68.7031
L28.6094 0
L18.3125 0
L43.2188 64.5938
L8.20312 64.5938
z
" id="DejaVuSans-37"/>
     </defs>
     <g transform="translate(28.695625 20.14175)scale(0.12 -0.12)">
      <use xlink:href="#DejaVuSans-31"/>
      <use x="63.623046875" xlink:href="#DejaVuSans-65"/>
      <use x="125.146484375" xlink:href="#DejaVuSans-37"/>
     </g>
    </g>
   </g>
   <g id="text_13">
    <!-- /parcelport/count/mpi/cache-reclaims -->
    <defs>
     <path d="
M25.3906 72.9062
L33.6875 72.9062
L8.29688 -9.28125
L0 -9.28125
z
" id="DejaVuSans-2f"/>
     <path d="
M4.89062 31.3906
L31.2031 31.3906
L31.2031 23.3906
L4.89062 23.3906
z
" id="DejaVuSans-2d"/>
     <path d="
M30.6094 48.3906
Q23.3906 48.3906 19.1875 42.75
Q14.9844 37.1094 14.9844 27.2969
Q14.9844 17.4844 19.1562 11.8438
Q23.3438 6.20312 30.6094 6.20312
Q37.7969 6.20312 41.9844 11.8594
Q46.1875 17.5312 46.1875 27.2969
Q46.1875 37.0156 41.9844 42.7031
Q37.7969 48.3906 30.6094 48.3906
M30.6094 56
Q42.3281 56 49.0156 48.375
Q55.7188 40.7656 55.7188 27.2969
Q55.7188 13.875 49.0156 6.21875
Q42.3281 -1.42188 30.6094 -1.42188
Q18.8438 -1.42188 12.1719 6.21875
Q5.51562 13.875 5.51562 27.2969
Q5.51562 40.7656 12.1719 48.375
Q18.8438 56 30.6094 56" id="DejaVuSans-6f"/>
     <path d="
M54.8906 33.0156
L54.8906 0
L45.9062 0
L45.9062 32.7188
Q45.9062 40.4844 42.875 44.3281
Q39.8438 48.1875 33.7969 48.1875
Q26.5156 48.1875 22.3125 43.5469
Q18.1094 38.9219 18.1094 30.9062
L18.1094 0
L9.07812 0
L9.07812 54.6875
L18.1094 54.6875
L18.1094 46.1875
Q21.3438 51.125 25.7031 53.5625
Q30.0781 56 35.7969 56
Q45.2188 56 50.0469 50.1719
Q54.8906 44.3438 54.8906 33.0156" id="DejaVuSans-6e"/>
     <path d="
M9.42188 75.9844
L18.4062 75.9844
L18.4062 0
L9.42188 0
z
" id="DejaVuSans-6c"/>
     <path d="
M18.1094 8.20312
L18.1094 -20.7969
L9.07812 -20.7969
L9.07812 54.6875
L18.1094 54.6875
L18.1094 46.3906
Q20.9531 51.2656 25.2656 53.625
Q29.5938 56 35.5938 56
Q45.5625 56 51.7812 48.0938
Q58.0156 40.1875 58.0156 27.2969
Q58.0156 14.4062 51.7812 6.48438
Q45.5625 -1.42188 35.5938 -1.42188
Q29.5938 -1.42188 25.2656 0.953125
Q20.9531 3.32812 18.1094 8.20312
M48.6875 27.2969
Q48.6875 37.2031 44.6094 42.8438
Q40.5312 48.4844 33.4062 48.4844
Q26.2656 48.4844 22.1875 42.8438
Q18.1094 37.2031 18.1094 27.2969
Q18.1094 17.3906 22.1875 11.75
Q26.2656 6.10938 33.4062 6.10938
Q40.5312 6.10938 44.6094 11.75
Q48.6875 17.3906 48.6875 27.2969" id="DejaVuSans-70"/>
     <path d="
M54.8906 33.0156
L54.8906 0
L45.9062 0
L45.9062 32.7188
Q45.9062 40.4844 42.875 44.3281
Q39.8438 48.1875 33.7969 48.1875
Q26.5156 48.1875 22.3125 43.5469
Q18.1094 38.9219 18.1094 30.9062
L18.1094 0
L9.07812 0
L9.07812 75.9844
L18.1094 75.9844
L18.1094 46.1875
Q21.3438 51.125 25.7031 53.5625
Q30.0781 56 35.7969 56
Q45.2188 56 50.0469 50.1719
Q54.8906 44.3438 54.8906 33.0156" id="DejaVuSans-68"/>
     <path d="
M8.5 21.5781
L8.5 54.6875
L17.4844 54.6875
L17.4844 21.9219
Q17.4844 14.1562 20.5 10.2656
Q23.5312 6.39062 29.5938 6.39062
Q36.8594 6.39062 41.0781 11.0312
Q45.3125 15.6719 45.3125 23.6875
L45.3125 54.6875
L54.2969 54.6875
L54.2969 0
L45.3125 0
L45.3125 8.40625
Q42.0469 3.42188 37.7188 1
Q33.4062 -1.42188 27.6875 -1.42188
Q18.2656 -1.42188 13.375 4.4375
Q8.5 10.2969 8.5 21.5781
M31.1094 56
z
" id="DejaVuSans-75"/>
     <path d="
M34.2812 27.4844
Q23.3906 27.4844 19.1875 25
Q14.9844 22.5156 14.9844 16.5
Q14.9844 11.7188 18.1406 8.90625
Q21.2969 6.10938 26.7031 6.10938
Q34.1875 6.10938 38.7031 11.4062
Q43.2188 16.7031 43.2188 25.4844
L43.2188 27.4844
z

M52.2031 31.2031
L52.2031 0
L43.2188 0
L43.2188 8.29688
Q40.1406 3.32812 35.5469 0.953125
Q30.9531 -1.42188 24.3125 -1.42188
Q15.9219 -1.42188 10.9531 3.29688
Q6 8.01562 6 15.9219
Q6 25.1406 12.1719 29.8281
Q18.3594 34.5156 30.6094 34.5156
L43.2188 34.5156
L43.2188 35.4062
Q43.2188 41.6094 39.1406 45
Q35.0625 48.3906 27.6875 48.3906
Q23 48.3906 18.5469 47.2656
Q14.1094 46.1406 10.0156 43.8906
L10.0156 52.2031
Q14.9375 54.1094 19.5781 55.0469
Q24.2188 56 28.6094 56
Q40.4844 56 46.3438 49.8438
Q52.2031 43.7031 52.2031 31.2031" id="DejaVuSans-61"/>
     <path d="
M48.7812 52.5938
L48.7812 44.1875
Q44.9688 46.2969 41.1406 47.3438
Q37.3125 48.3906 33.4062 48.3906
Q24.6562 48.3906 19.8125 42.8438
Q14.9844 37.3125 14.9844 27.2969
Q14.9844 17.2812 19.8125 11.7344
Q24.6562 6.20312 33.4062 6.20312
Q37.3125 6.20312 41.1406 7.25
Q44.9688 8.29688 48.7812 10.4062
L48.7812 2.09375
Q45.0156 0.34375 40.9844 -0.53125
Q36.9688 -1.42188 32.4219 -1.42188
Q20.0625 -1.42188 12.7812 6.34375
Q5.51562 14.1094 5.51562 27.2969
Q5.51562 40.6719 12.8594 48.3281
Q20.2188 56 33.0156 56
Q37.1562 56 41.1094 55.1406
Q45.0625 54.2969 48.7812 52.5938" id="DejaVuSans-63"/>
     <path d="
M44.2812 53.0781
L44.2812 44.5781
Q40.4844 46.5312 36.375 47.5
Q32.2812 48.4844 27.875 48.4844
Q21.1875 48.4844 17.8438 46.4375
Q14.5 44.3906 14.5 40.2812
Q14.5 37.1562 16.8906 35.375
Q19.2812 33.5938 26.5156 31.9844
L29.5938 31.2969
Q39.1562 29.25 43.1875 25.5156
Q47.2188 21.7812 47.2188 15.0938
Q47.2188 7.46875 41.1875 3.01562
Q35.1562 -1.42188 24.6094 -1.42188
Q20.2188 -1.42188 15.4531 -0.5625
Q10.6875 0.296875 5.42188 2
L5.42188 11.2812
Q10.4062 8.6875 15.2344 7.39062
Q20.0625 6.10938 24.8125 6.10938
Q31.1562 6.10938 34.5625 8.28125
Q37.9844 10.4531 37.9844 14.4062
Q37.9844 18.0625 35.5156 20.0156
Q33.0625 21.9688 24.7031 23.7812
L21.5781 24.5156
Q13.2344 26.2656 9.51562 29.9062
Q5.8125 33.5469 5.8125 39.8906
Q5.8125 47.6094 11.2812 51.7969
Q16.75 56 26.8125 56
Q31.7812 56 36.1719 55.2656
Q40.5781 54.5469 44.2812 53.0781" id="DejaVuSans-73"/>
     <path d="
M41.1094 46.2969
Q39.5938 47.1719 37.8125 47.5781
Q36.0312 48 33.8906 48
Q26.2656 48 22.1875 43.0469
Q18.1094 38.0938 18.1094 28.8125
L18.1094 0
L9.07812 0
L9.07812 54.6875
L18.1094 54.6875
L18.1094 46.1875
Q20.9531 51.1719 25.4844 53.5781
Q30.0312 56 36.5312 56
Q37.4531 56 38.5781 55.875
Q39.7031 55.7656 41.0625 55.5156
z
" id="DejaVuSans-72"/>
    </defs>
    <g transform="translate(117.433375 18.14175)scale(0.144 -0.144)">
     <use xlink:href="#DejaVuSans-2f"/>
     <use x="33.69140625" xlink:href="#DejaVuSans-70"/>
     <use x="97.16796875" xlink:href="#DejaVuSans-61"/>
     <use x="158.447265625" xlink:href="#DejaVuSans-72"/>
     <use x="197.310546875" xlink:href="#DejaVuSans-63"/>
     <use x="252.291015625" xlink:href="#DejaVuSans-65"/>
     <use x="313.814453125" xlink:href="#DejaVuSans-6c"/>
     <use x="341.59765625" xlink:href="#DejaVuSans-70"/>
     <use x="405.07421875" xlink:href="#DejaVuSans-6f"/>
     <use x="466.255859375" xlink:href="#DejaVuSans-72"/>
     <use x="507.369140625" xlink:href="#DejaVuSans-74"/>
     <use x="546.578125" xlink:href="#DejaVuSans-2f"/>
     <use x="580.26953125" xlink:href="#DejaVuSans-63"/>
     <use x="635.25" xlink:href="#DejaVuSans-6f"/>
     <use x="696.431640625" xlink:href="#DejaVuSans-75"/>
     <use x="759.810546875" xlink:href="#DejaVuSans-6e"/>
     <use x="823.189453125" xlink:href="#DejaVuSans-74"/>
     <use x="862.3984375" xlink:href="#DejaVuSans-2f"/>
     <use x="896.08984375" xlink:href="#DejaVuSans-6d"/>
     <use x="993.501953125" xlink:href="#DejaVuSans-70"/>
     <use x="1056.97851562" xlink:href="#DejaVuSans-69"/>
     <use x="1084.76171875" xlink:href="#DejaVuSans-2f"/>
     <use x="1118.453125" xlink:href="#DejaVuSans-63"/>
     <use x="1173.43359375" xlink:href="#DejaVuSans-61"/>
     <use x="1234.71289062" xlink:href="#DejaVuSans-63"/>
     <use x="1289.69335938" xlink:href="#DejaVuSans-68"/>
     <use x="1353.07226562" xlink:href="#DejaVuSans-65"/>
     <use x="1414.59570312" xlink:href="#DejaVuSans-2d"/>
     <use x="1450.6796875" xlink:href="#DejaVuSans-72"/>
     <use x="1489.54296875" xlink:href="#DejaVuSans-65"/>
     <use x="1551.06640625" xlink:href="#DejaVuSans-63"/>
     <use x="1606.046875" xlink:href="#DejaVuSans-6c"/>
     <use x="1633.83007812" xlink:href="#DejaVuSans-61"/>
     <use x="1695.109375" xlink:href="#DejaVuSans-69"/>
     <use x="1722.89257812" xlink:href="#DejaVuSans-6d"/>
     <use x="1820.3046875" xlink:href="#DejaVuSans-73"/>
    </g>
   </g>
   <g id="legend_1">
    <g id="patch_7">
     <path d="
M482.296 367.194
L614.085 367.194
L614.085 24.6897
L482.296 24.6897
z
" style="fill:#ffffff;stroke:#000000;stroke-linejoin:miter;"/>
    </g>
    <g id="line2d_37">
     <path d="
M492.376 36.3515
L512.536 36.3515" style="fill:none;stroke:#0000ff;stroke-linecap:square;"/>
    </g>
    <g id="line2d_38"/>
    <g id="text_14">
     <!-- locality#0 -->
     <defs>
      <path d="
M51.125 44
L36.9219 44
L32.8125 27.6875
L47.125 27.6875
z

M43.7969 71.7812
L38.7188 51.5156
L52.9844 51.5156
L58.1094 71.7812
L65.9219 71.7812
L60.8906 51.5156
L76.125 51.5156
L76.125 44
L58.9844 44
L54.9844 27.6875
L70.5156 27.6875
L70.5156 20.2188
L53.0781 20.2188
L48 0
L40.1875 0
L45.2188 20.2188
L30.9062 20.2188
L25.875 0
L18.0156 0
L23.0938 20.2188
L7.71875 20.2188
L7.71875 27.6875
L24.9062 27.6875
L29 44
L13.2812 44
L13.2812 51.5156
L30.9062 51.5156
L35.8906 71.7812
z
" id="DejaVuSans-23"/>
      <path d="
M32.1719 -5.07812
Q28.375 -14.8438 24.75 -17.8125
Q21.1406 -20.7969 15.0938 -20.7969
L7.90625 -20.7969
L7.90625 -13.2812
L13.1875 -13.2812
Q16.8906 -13.2812 18.9375 -11.5156
Q21 -9.76562 23.4844 -3.21875
L25.0938 0.875
L2.98438 54.6875
L12.5 54.6875
L29.5938 11.9219
L46.6875 54.6875
L56.2031 54.6875
z
" id="DejaVuSans-79"/>
     </defs>
     <g transform="translate(528.375625 41.3915)scale(0.144 -0.144)">
      <use xlink:href="#DejaVuSans-6c"/>
      <use x="27.783203125" xlink:href="#DejaVuSans-6f"/>
      <use x="88.96484375" xlink:href="#DejaVuSans-63"/>
      <use x="143.9453125" xlink:href="#DejaVuSans-61"/>
      <use x="205.224609375" xlink:href="#DejaVuSans-6c"/>
      <use x="233.0078125" xlink:href="#DejaVuSans-69"/>
      <use x="260.791015625" xlink:href="#DejaVuSans-74"/>
      <use x="300.0" xlink:href="#DejaVuSans-79"/>
      <use x="359.1796875" xlink:href="#DejaVuSans-23"/>
      <use x="442.96875" xlink:href="#DejaVuSans-30"/>
     </g>
    </g>
    <g id="line2d_39">
     <path d="
M492.376 57.488
L512.536 57.488" style="fill:none;stroke:#008000;stroke-linecap:square;"/>
    </g>
    <g id="line2d_40"/>
    <g id="text_15">
     <!-- locality#1 -->
     <g transform="translate(528.375625 62.528)scale(0.144 -0.144)">
      <use xlink:href="#DejaVuSans-6c"/>
      <use x="27.783203125" xlink:href="#DejaVuSans-6f"/>
      <use x="88.96484375" xlink:href="#DejaVuSans-63"/>
      <use x="143.9453125" xlink:href="#DejaVuSans-61"/>
      <use x="205.224609375" xlink:href="#DejaVuSans-6c"/>
      <use x="233.0078125" xlink:href="#DejaVuSans-69"/>
      <use x="260.791015625" xlink:href="#DejaVuSans-74"/>
      <use x="300.0" xlink:href="#DejaVuSans-79"/>
      <use x="359.1796875" xlink:href="#DejaVuSans-23"/>
      <use x="442.96875" xlink:href="#DejaVuSans-31"/>
     </g>
    </g>
    <g id="line2d_41">
     <path d="
M492.376 78.6245
L512.536 78.6245" style="fill:none;stroke:#ff0000;stroke-linecap:square;"/>
    </g>
    <g id="line2d_42"/>
    <g id="text_16">
     <!-- locality#10 -->
     <g transform="translate(528.375625 83.6645)scale(0.144 -0.144)">
      <use xlink:href="#DejaVuSans-6c"/>
      <use x="27.783203125" xlink:href="#DejaVuSans-6f"/>
      <use x="88.96484375" xlink:href="#DejaVuSans-63"/>
      <use x="143.9453125" xlink:href="#DejaVuSans-61"/>
      <use x="205.224609375" xlink:href="#DejaVuSans-6c"/>
      <use x="233.0078125" xlink:href="#DejaVuSans-69"/>
      <use x="260.791015625" xlink:href="#DejaVuSans-74"/>
      <use x="300.0" xlink:href="#DejaVuSans-79"/>
      <use x="359.1796875" xlink:href="#DejaVuSans-23"/>
      <use x="442.96875" xlink:href="#DejaVuSans-31"/>
      <use x="506.591796875" xlink:href="#DejaVuSans-30"/>
     </g>
    </g>
    <g id="line2d_43">
     <path d="
M492.376 99.761
L512.536 99.761" style="fill:none;stroke:#00bfbf;stroke-linecap:square;"/>
    </g>
    <g id="line2d_44"/>
    <g id="text_17">
     <!-- locality#11 -->
     <g transform="translate(528.375625 104.801)scale(0.144 -0.144)">
      <use xlink:href="#DejaVuSans-6c"/>
      <use x="27.783203125" xlink:href="#DejaVuSans-6f"/>
      <use x="88.96484375" xlink:href="#DejaVuSans-63"/>
      <use x="143.9453125" xlink:href="#DejaVuSans-61"/>
      <use x="205.224609375" xlink:href="#DejaVuSans-6c"/>
      <use x="233.0078125" xlink:href="#DejaVuSans-69"/>
      <use x="260.791015625" xlink:href="#DejaVuSans-74"/>
      <use x="300.0" xlink:href="#DejaVuSans-79"/>
      <use x="359.1796875" xlink:href="#DejaVuSans-23"/>
      <use x="442.96875" xlink:href="#DejaVuSans-31"/>
      <use x="506.591796875" xlink:href="#DejaVuSans-31"/>
     </g>
    </g>
    <g id="line2d_45">
     <path d="
M492.376 120.897
L512.536 120.897" style="fill:none;stroke:#bf00bf;stroke-linecap:square;"/>
    </g>
    <g id="line2d_46"/>
    <g id="text_18">
     <!-- locality#12 -->
     <g transform="translate(528.375625 125.9375)scale(0.144 -0.144)">
      <use xlink:href="#DejaVuSans-6c"/>
      <use x="27.783203125" xlink:href="#DejaVuSans-6f"/>
      <use x="88.96484375" xlink:href="#DejaVuSans-63"/>
      <use x="143.9453125" xlink:href="#DejaVuSans-61"/>
      <use x="205.224609375" xlink:href="#DejaVuSans-6c"/>
      <use x="233.0078125" xlink:href="#DejaVuSans-69"/>
      <use x="260.791015625" xlink:href="#DejaVuSans-74"/>
      <use x="300.0" xlink:href="#DejaVuSans-79"/>
      <use x="359.1796875" xlink:href="#DejaVuSans-23"/>
      <use x="442.96875" xlink:href="#DejaVuSans-31"/>
      <use x="506.591796875" xlink:href="#DejaVuSans-32"/>
     </g>
    </g>
    <g id="line2d_47">
     <path d="
M492.376 142.034
L512.536 142.034" style="fill:none;stroke:#bfbf00;stroke-linecap:square;"/>
    </g>
    <g id="line2d_48"/>
    <g id="text_19">
     <!-- locality#13 -->
     <g transform="translate(528.375625 147.074)scale(0.144 -0.144)">
      <use xlink:href="#DejaVuSans-6c"/>
      <use x="27.783203125" xlink:href="#DejaVuSans-6f"/>
      <use x="88.96484375" xlink:href="#DejaVuSans-63"/>
      <use x="143.9453125" xlink:href="#DejaVuSans-61"/>
      <use x="205.224609375" xlink:href="#DejaVuSans-6c"/>
      <use x="233.0078125" xlink:href="#DejaVuSans-69"/>
      <use x="260.791015625" xlink:href="#DejaVuSans-74"/>
      <use x="300.0" xlink:href="#DejaVuSans-79"/>
      <use x="359.1796875" xlink:href="#DejaVuSans-23"/>
      <use x="442.96875" xlink:href="#DejaVuSans-31"/>
      <use x="506.591796875" xlink:href="#DejaVuSans-33"/>
     </g>
    </g>
    <g id="line2d_49">
     <path d="
M492.376 163.17
L512.536 163.17" style="fill:none;stroke:#000000;stroke-linecap:square;"/>
    </g>
    <g id="line2d_50"/>
    <g id="text_20">
     <!-- locality#14 -->
     <g transform="translate(528.375625 168.2105)scale(0.144 -0.144)">
      <use xlink:href="#DejaVuSans-6c"/>
      <use x="27.783203125" xlink:href="#DejaVuSans-6f"/>
      <use x="88.96484375" xlink:href="#DejaVuSans-63"/>
      <use x="143.9453125" xlink:href="#DejaVuSans-61"/>
      <use x="205.224609375" xlink:href="#DejaVuSans-6c"/>
      <use x="233.0078125" xlink:href="#DejaVuSans-69"/>
      <use x="260.791015625" xlink:href="#DejaVuSans-74"/>
      <use x="300.0" xlink:href="#DejaVuSans-79"/>
      <use x="359.1796875" xlink:href="#DejaVuSans-23"/>
      <use x="442.96875" xlink:href="#DejaVuSans-31"/>
      <use x="506.591796875" xlink:href="#DejaVuSans-34"/>
     </g>
    </g>
    <g id="line2d_51">
     <path d="
M492.376 184.307
L512.536 184.307" style="fill:none;stroke:#0000ff;stroke-linecap:square;"/>
    </g>
    <g id="line2d_52"/>
    <g id="text_21">
     <!-- locality#15 -->
     <g transform="translate(528.375625 189.347)scale(0.144 -0.144)">
      <use xlink:href="#DejaVuSans-6c"/>
      <use x="27.783203125" xlink:href="#DejaVuSans-6f"/>
      <use x="88.96484375" xlink:href="#DejaVuSans-63"/>
      <use x="143.9453125" xlink:href="#DejaVuSans-61"/>
      <use x="205.224609375" xlink:href="#DejaVuSans-6c"/>
      <use x="233.0078125" xlink:href="#DejaVuSans-69"/>
      <use x="260.791015625" xlink:href="#DejaVuSans-74"/>
      <use x="300.0" xlink:href="#DejaVuSans-79"/>
      <use x="359.1796875" xlink:href="#DejaVuSans-23"/>
      <use x="442.96875" xlink:href="#DejaVuSans-31"/>
      <use x="506.591796875" xlink:href="#DejaVuSans-35"/>
     </g>
    </g>
    <g id="line2d_53">
     <path d="
M492.376 205.443
L512.536 205.443" style="fill:none;stroke:#008000;stroke-linecap:square;"/>
    </g>
    <g id="line2d_54"/>
    <g id="text_22">
     <!-- locality#2 -->
     <g transform="translate(528.375625 210.4835)scale(0.144 -0.144)">
      <use xlink:href="#DejaVuSans-6c"/>
      <use x="27.783203125" xlink:href="#DejaVuSans-6f"/>
      <use x="88.96484375" xlink:href="#DejaVuSans-63"/>
      <use x="143.9453125" xlink:href="#DejaVuSans-61"/>
      <use x="205.224609375" xlink:href="#DejaVuSans-6c"/>
      <use x="233.0078125" xlink:href="#DejaVuSans-69"/>
      <use x="260.791015625" xlink:href="#DejaVuSans-74"/>
      <use x="300.0" xlink:href="#DejaVuSans-79"/>
      <use x="359.1796875" xlink:href="#DejaVuSans-23"/>
      <use x="442.96875" xlink:href="#DejaVuSans-32"/>
     </g>
    </g>
    <g id="line2d_55">
     <path d="
M492.376 226.58
L512.536 226.58" style="fill:none;stroke:#ff0000;stroke-linecap:square;"/>
    </g>
    <g id="line2d_56"/>
    <g id="text_23">
     <!-- locality#3 -->
     <g transform="translate(528.375625 231.62)scale(0.144 -0.144)">
      <use xlink:href="#DejaVuSans-6c"/>
      <use x="27.783203125" xlink:href="#DejaVuSans-6f"/>
      <use x="88.96484375" xlink:href="#DejaVuSans-63"/>
      <use x="143.9453125" xlink:href="#DejaVuSans-61"/>
      <use x="205.224609375" xlink:href="#DejaVuSans-6c"/>
      <use x="233.0078125" xlink:href="#DejaVuSans-69"/>
      <use x="260.791015625" xlink:href="#DejaVuSans-74"/>
      <use x="300.0" xlink:href="#DejaVuSans-79"/>
      <use x="359.1796875" xlink:href="#DejaVuSans-23"/>
      <use x="442.96875" xlink:href="#DejaVuSans-33"/>
     </g>
    </g>
    <g id="line2d_57">
     <path d="
M492.376 247.716
L512.536 247.716" style="fill:none;stroke:#00bfbf;stroke-linecap:square;"/>
    </g>
    <g id="line2d_58"/>
    <g id="text_24">
     <!-- locality#4 -->
     <g transform="translate(528.375625 252.7565)scale(0.144 -0.144)">
      <use xlink:href="#DejaVuSans-6c"/>
      <use x="27.783203125" xlink:href="#DejaVuSans-6f"/>
      <use x="88.96484375" xlink:href="#DejaVuSans-63"/>
      <use x="143.9453125" xlink:href="#DejaVuSans-61"/>
      <use x="205.224609375" xlink:href="#DejaVuSans-6c"/>
      <use x="233.0078125" xlink:href="#DejaVuSans-69"/>
      <use x="260.791015625" xlink:href="#DejaVuSans-74"/>
      <use x="300.0" xlink:href="#DejaVuSans-79"/>
      <use x="359.1796875" xlink:href="#DejaVuSans-23"/>
      <use x="442.96875" xlink:href="#DejaVuSans-34"/>
     </g>
    </g>
    <g id="line2d_59">
     <path d="
M492.376 268.853
L512.536 268.853" style="fill:none;stroke:#bf00bf;stroke-linecap:square;"/>
    </g>
    <g id="line2d_60"/>
    <g id="text_25">
     <!-- locality#5 -->
     <g transform="translate(528.375625 273.893)scale(0.144 -0.144)">
      <use xlink:href="#DejaVuSans-6c"/>
      <use x="27.783203125" xlink:href="#DejaVuSans-6f"/>
      <use x="88.96484375" xlink:href="#DejaVuSans-63"/>
      <use x="143.9453125" xlink:href="#DejaVuSans-61"/>
      <use x="205.224609375" xlink:href="#DejaVuSans-6c"/>
      <use x="233.0078125" xlink:href="#DejaVuSans-69"/>
      <use x="260.791015625" xlink:href="#DejaVuSans-74"/>
      <use x="300.0" xlink:href="#DejaVuSans-79"/>
      <use x="359.1796875" xlink:href="#DejaVuSans-23"/>
      <use x="442.96875" xlink:href="#DejaVuSans-35"/>
     </g>
    </g>
    <g id="line2d_61">
     <path d="
M492.376 289.989
L512.536 289.989" style="fill:none;stroke:#bfbf00;stroke-linecap:square;"/>
    </g>
    <g id="line2d_62"/>
    <g id="text_26">
     <!-- locality#6 -->
     <defs>
      <path d="
M33.0156 40.375
Q26.375 40.375 22.4844 35.8281
Q18.6094 31.2969 18.6094 23.3906
Q18.6094 15.5312 22.4844 10.9531
Q26.375 6.39062 33.0156 6.39062
Q39.6562 6.39062 43.5312 10.9531
Q47.4062 15.5312 47.4062 23.3906
Q47.4062 31.2969 43.5312 35.8281
Q39.6562 40.375 33.0156 40.375
M52.5938 71.2969
L52.5938 62.3125
Q48.875 64.0625 45.0938 64.9844
Q41.3125 65.9219 37.5938 65.9219
Q27.8281 65.9219 22.6719 59.3281
Q17.5312 52.7344 16.7969 39.4062
Q19.6719 43.6562 24.0156 45.9219
Q28.375 48.1875 33.5938 48.1875
Q44.5781 48.1875 50.9531 41.5156
Q57.3281 34.8594 57.3281 23.3906
Q57.3281 12.1562 50.6875 5.35938
Q44.0469 -1.42188 33.0156 -1.42188
Q20.3594 -1.42188 13.6719 8.26562
Q6.98438 17.9688 6.98438 36.375
Q6.98438 53.6562 15.1875 63.9375
Q23.3906 74.2188 37.2031 74.2188
Q40.9219 74.2188 44.7031 73.4844
Q48.4844 72.75 52.5938 71.2969" id="DejaVuSans-36"/>
     </defs>
     <g transform="translate(528.375625 295.0295)scale(0.144 -0.144)">
      <use xlink:href="#DejaVuSans-6c"/>
      <use x="27.783203125" xlink:href="#DejaVuSans-6f"/>
      <use x="88.96484375" xlink:href="#DejaVuSans-63"/>
      <use x="143.9453125" xlink:href="#DejaVuSans-61"/>
      <use x="205.224609375" xlink:href="#DejaVuSans-6c"/>
      <use x="233.0078125" xlink:href="#DejaVuSans-69"/>
      <use x="260.791015625" xlink:href="#DejaVuSans-74"/>
      <use x="300.0" xlink:href="#DejaVuSans-79"/>
      <use x="359.1796875" xlink:href="#DejaVuSans-23"/>
      <use x="442.96875" xlink:href="#DejaVuSans-36"/>
     </g>
    </g>
    <g id="line2d_63">
     <path d="
M492.376 311.126
L512.536 311.126" style="fill:none;stroke:#000000;stroke-linecap:square;"/>
    </g>
    <g id="line2d_64"/>
    <g id="text_27">
     <!-- locality#7 -->
     <g transform="translate(528.375625 316.166)scale(0.144 -0.144)">
      <use xlink:href="#DejaVuSans-6c"/>
      <use x="27.783203125" xlink:href="#DejaVuSans-6f"/>
      <use x="88.96484375" xlink:href="#DejaVuSans-63"/>
      <use x="143.9453125" xlink:href="#DejaVuSans-61"/>
      <use x="205.224609375" xlink:href="#DejaVuSans-6c"/>
      <use x="233.0078125" xlink:href="#DejaVuSans-69"/>
      <use x="260.791015625" xlink:href="#DejaVuSans-74"/>
      <use x="300.0" xlink:href="#DejaVuSans-79"/>
      <use x="359.1796875" xlink:href="#DejaVuSans-23"/>
      <use x="442.96875" xlink:href="#DejaVuSans-37"/>
     </g>
    </g>
    <g id="line2d_65">
     <path d="
M492.376 332.262
L512.536 332.262" style="fill:none;stroke:#0000ff;stroke-linecap:square;"/>
    </g>
    <g id="line2d_66"/>
    <g id="text_28">
     <!-- locality#8 -->
     <defs>
      <path d="
M31.7812 34.625
Q24.75 34.625 20.7188 30.8594
Q16.7031 27.0938 16.7031 20.5156
Q16.7031 13.9219 20.7188 10.1562
Q24.75 6.39062 31.7812 6.39062
Q38.8125 6.39062 42.8594 10.1719
Q46.9219 13.9688 46.9219 20.5156
Q46.9219 27.0938 42.8906 30.8594
Q38.875 34.625 31.7812 34.625
M21.9219 38.8125
Q15.5781 40.375 12.0312 44.7188
Q8.5 49.0781 8.5 55.3281
Q8.5 64.0625 14.7188 69.1406
Q20.9531 74.2188 31.7812 74.2188
Q42.6719 74.2188 48.875 69.1406
Q55.0781 64.0625 55.0781 55.3281
Q55.0781 49.0781 51.5312 44.7188
Q48 40.375 41.7031 38.8125
Q48.8281 37.1562 52.7969 32.3125
Q56.7812 27.4844 56.7812 20.5156
Q56.7812 9.90625 50.3125 4.23438
Q43.8438 -1.42188 31.7812 -1.42188
Q19.7344 -1.42188 13.25 4.23438
Q6.78125 9.90625 6.78125 20.5156
Q6.78125 27.4844 10.7812 32.3125
Q14.7969 37.1562 21.9219 38.8125
M18.3125 54.3906
Q18.3125 48.7344 21.8438 45.5625
Q25.3906 42.3906 31.7812 42.3906
Q38.1406 42.3906 41.7188 45.5625
Q45.3125 48.7344 45.3125 54.3906
Q45.3125 60.0625 41.7188 63.2344
Q38.1406 66.4062 31.7812 66.4062
Q25.3906 66.4062 21.8438 63.2344
Q18.3125 60.0625 18.3125 54.3906" id="DejaVuSans-38"/>
     </defs>
     <g transform="translate(528.375625 337.3025)scale(0.144 -0.144)">
      <use xlink:href="#DejaVuSans-6c"/>
      <use x="27.783203125" xlink:href="#DejaVuSans-6f"/>
      <use x="88.96484375" xlink:href="#DejaVuSans-63"/>
      <use x="143.9453125" xlink:href="#DejaVuSans-61"/>
      <use x="205.224609375" xlink:href="#DejaVuSans-6c"/>
      <use x="233.0078125" xlink:href="#DejaVuSans-69"/>
      <use x="260.791015625" xlink:href="#DejaVuSans-74"/>
      <use x="300.0" xlink:href="#DejaVuSans-79"/>
      <use x="359.1796875" xlink:href="#DejaVuSans-23"/>
      <use x="442.96875" xlink:href="#DejaVuSans-38"/>
     </g>
    </g>
    <g id="line2d_67">
     <path d="
M492.376 353.399
L512.536 353.399" style="fill:none;stroke:#008000;stroke-linecap:square;"/>
    </g>
    <g id="line2d_68"/>
    <g id="text_29">
     <!-- locality#9 -->
     <defs>
      <path d="
M10.9844 1.51562
L10.9844 10.5
Q14.7031 8.73438 18.5 7.8125
Q22.3125 6.89062 25.9844 6.89062
Q35.75 6.89062 40.8906 13.4531
Q46.0469 20.0156 46.7812 33.4062
Q43.9531 29.2031 39.5938 26.9531
Q35.25 24.7031 29.9844 24.7031
Q19.0469 24.7031 12.6719 31.3125
Q6.29688 37.9375 6.29688 49.4219
Q6.29688 60.6406 12.9375 67.4219
Q19.5781 74.2188 30.6094 74.2188
Q43.2656 74.2188 49.9219 64.5156
Q56.5938 54.8281 56.5938 36.375
Q56.5938 19.1406 48.4062 8.85938
Q40.2344 -1.42188 26.4219 -1.42188
Q22.7031 -1.42188 18.8906 -0.6875
Q15.0938 0.046875 10.9844 1.51562
M30.6094 32.4219
Q37.25 32.4219 41.125 36.9531
Q45.0156 41.5 45.0156 49.4219
Q45.0156 57.2812 41.125 61.8438
Q37.25 66.4062 30.6094 66.4062
Q23.9688 66.4062 20.0938 61.8438
Q16.2188 57.2812 16.2188 49.4219
Q16.2188 41.5 20.0938 36.9531
Q23.9688 32.4219 30.6094 32.4219" id="DejaVuSans-39"/>
     </defs>
     <g transform="translate(528.375625 358.439)scale(0.144 -0.144)">
      <use xlink:href="#DejaVuSans-6c"/>
      <use x="27.783203125" xlink:href="#DejaVuSans-6f"/>
      <use x="88.96484375" xlink:href="#DejaVuSans-63"/>
      <use x="143.9453125" xlink:href="#DejaVuSans-61"/>
      <use x="205.224609375" xlink:href="#DejaVuSans-6c"/>
      <use x="233.0078125" xlink:href="#DejaVuSans-69"/>
      <use x="260.791015625" xlink:href="#DejaVuSans-74"/>
      <use x="300.0" xlink:href="#DejaVuSans-79"/>
      <use x="359.1796875" xlink:href="#DejaVuSans-23"/>
      <use x="442.96875" xlink:href="#DejaVuSans-39"/>
     </g>
    </g>
   </g>
  </g>
 </g>
 <defs>
  <clipPath id="p2118423672">
   <rect height="345.6" width="446.4" x="28.695625" y="23.14175"/>
  </clipPath>
 </defs>
</svg>
