<?xml version="1.0" encoding="utf-8" standalone="no"?>
<!DOCTYPE svg PUBLIC "-//W3C//DTD SVG 1.1//EN"
  "http://www.w3.org/Graphics/SVG/1.1/DTD/svg11.dtd">
<!-- Created with matplotlib (http://matplotlib.org/) -->
<svg height="408pt" version="1.1" viewBox="0 0 655 408" width="655pt" xmlns="http://www.w3.org/2000/svg" xmlns:xlink="http://www.w3.org/1999/xlink">
 <defs>
  <style type="text/css">
*{stroke-linecap:butt;stroke-linejoin:round;}
  </style>
 </defs>
 <g id="figure_1">
  <g id="patch_1">
   <path d="
M0 408.169
L655.85 408.169
L655.85 0
L0 0
z
" style="fill:#ffffff;"/>
  </g>
  <g id="axes_1">
   <g id="patch_2">
    <path d="
M63.2613 368.742
L509.661 368.742
L509.661 23.1417
L63.2613 23.1417
z
" style="fill:#ffffff;"/>
   </g>
   <g id="line2d_1">
    <path clip-path="url(#p3f6fae7697)" d="
M63.2613 368.498
L64.1558 367.726
L84.7314 354.691
L101.729 343.992
L103.518 342.765
L110.674 338.177
L114.253 335.617
L115.147 335.083
L116.937 333.733
L118.726 332.492
L122.304 329.958
L124.988 328.169
L126.777 326.846
L128.566 325.588
L132.145 323.039
L133.039 322.514
L135.723 320.488
L136.618 319.956
L141.985 316.028
L144.669 314.277
L148.247 311.578
L149.142 311.03
L151.826 309.035
L153.615 307.833
L155.404 306.463
L156.299 305.94
L158.088 304.57
L158.982 304.051
L169.717 296.13
L170.612 295.609
L172.401 294.245
L173.296 293.717
L175.085 292.36
L176.874 291.16
L178.663 289.785
L179.558 289.264
L180.452 288.565
L181.347 288.036
L183.136 286.701
L184.031 286.146
L186.715 284.15
L192.977 279.567
L194.766 278.328
L197.45 276.441
L198.344 275.916
L209.079 268.103
L209.974 267.578
L210.868 266.877
L211.763 266.342
L213.552 265.024
L215.341 263.753
L220.709 259.897
L221.604 259.2
L222.498 258.681
L226.076 255.98
L229.655 253.423
L232.339 251.643
L235.917 248.982
L236.812 248.448
L238.601 247.088
L240.39 245.892
L246.652 241.301
L247.547 240.763
L249.336 239.404
L250.23 238.887
L261.86 230.315
L264.544 228.512
L273.49 221.963
L274.384 221.418
L276.173 220.071
L277.068 219.549
L279.752 217.514
L281.541 216.286
L282.436 215.62
L283.33 215.102
L285.119 213.727
L286.014 213.207
L287.803 211.835
L289.592 210.622
L292.276 208.715
L294.96 206.827
L296.749 205.596
L297.644 204.93
L298.538 204.411
L300.327 203.056
L302.117 201.813
L304.8 199.818
L307.484 197.931
L308.379 197.403
L309.273 196.698
L310.168 196.166
L312.852 194.171
L316.43 191.685
L319.114 189.711
L320.008 189.029
L320.903 188.508
L323.587 186.495
L338.795 175.577
L339.689 175.054
L340.584 174.345
L341.478 173.828
L345.057 171.124
L348.635 168.582
L350.424 167.34
L356.687 162.791
L359.37 161.041
L361.159 159.673
L363.843 157.916
L365.632 156.619
L391.575 138.406
L392.47 137.877
L394.259 136.523
L396.048 135.277
L400.521 132.07
L402.311 130.825
L413.046 123.049
L418.413 119.162
L420.202 117.978
L421.992 116.61
L422.886 116.086
L428.254 112.158
L429.148 111.637
L436.305 106.382
L438.989 104.589
L441.672 102.707
L442.567 102.177
L444.356 100.81
L447.04 99.0153
L449.724 97.1301
L452.408 95.3405
L459.564 90.1138
L461.353 88.9313
L465.826 85.5646
L466.721 85.0439
L468.51 83.6828
L470.299 82.4461
L472.089 81.1156
L472.983 80.5937
L473.878 79.8835
L474.772 79.3582
L475.667 78.6601
L476.561 78.1365
L478.351 76.7714
L479.245 76.2484
L480.14 75.5439
L481.034 74.9961
L481.929 74.3165
L482.824 73.7946
L488.191 69.9014
L491.769 67.4367
L494.453 65.415
L497.137 63.6276
L502.505 59.7419
L505.188 57.9621
L509.661 54.6201
L509.661 54.6201" style="fill:none;stroke:#0000ff;stroke-linecap:square;"/>
   </g>
   <g id="line2d_2">
    <path clip-path="url(#p3f6fae7697)" d="
M63.2613 368.698
L64.1558 368.381
L66.8396 367.143
L99.0448 352.826
L105.307 349.945
L107.096 349.056
L111.569 346.974
L114.253 345.59
L116.042 344.7
L120.515 342.33
L123.199 341.041
L126.777 339.165
L128.566 338.272
L132.145 336.394
L133.934 335.502
L139.301 332.638
L141.091 331.747
L143.774 330.363
L145.563 329.472
L151.826 326.115
L153.615 325.212
L158.088 322.851
L159.877 321.959
L169.717 316.627
L171.507 315.736
L175.085 313.86
L176.874 312.965
L180.452 311.09
L182.242 310.198
L190.293 305.854
L192.082 304.961
L195.66 303.084
L199.239 301.298
L207.29 296.957
L209.974 295.653
L213.552 293.796
L215.341 292.9
L220.709 290.033
L227.866 286.184
L230.549 284.895
L235.917 282.03
L239.495 280.248
L243.968 277.779
L245.757 276.888
L249.336 275.01
L251.125 274.113
L263.649 267.401
L265.438 266.511
L273.49 262.164
L275.279 261.274
L279.752 258.902
L281.541 258.012
L285.119 256.134
L286.909 255.243
L291.381 252.872
L293.171 251.981
L304.8 245.95
L307.484 244.566
L311.062 242.784
L313.746 241.4
L316.43 240.016
L325.376 235.17
L333.427 230.877
L343.268 225.874
L348.635 223.018
L350.424 222.127
L356.687 218.768
L359.37 217.474
L362.949 215.602
L366.527 213.821
L370.105 211.942
L371.895 211.052
L374.578 209.676
L376.367 208.777
L382.63 205.42
L385.313 204.131
L387.997 202.748
L390.681 201.459
L394.259 199.583
L396.048 198.69
L400.521 196.32
L402.311 195.427
L406.783 193.056
L408.573 192.161
L418.413 186.832
L420.202 185.931
L428.254 181.692
L430.043 180.8
L436.305 177.442
L438.989 176.154
L441.672 174.77
L443.462 173.879
L446.145 172.495
L448.829 171.207
L451.513 169.824
L453.302 168.933
L459.564 165.573
L461.353 164.675
L468.51 160.831
L470.299 159.939
L473.878 158.061
L481.034 154.459
L492.664 148.468
L495.348 147.084
L497.137 146.193
L502.505 143.328
L505.188 142.04
L509.661 139.571
L509.661 139.571" style="fill:none;stroke:#008000;stroke-linecap:square;"/>
   </g>
   <g id="line2d_3">
    <path clip-path="url(#p3f6fae7697)" d="
M63.2613 368.695
L64.1558 368.254
L70.418 364.155
L73.9963 361.783
L83.8368 355.376
L101.729 343.703
L103.518 342.404
L105.307 341.235
L107.096 339.946
L111.569 336.885
L117.831 332.24
L120.515 330.109
L123.199 328.181
L125.882 326.154
L134.828 319.342
L139.301 315.876
L141.091 314.557
L143.774 312.534
L145.563 311.222
L148.247 309.059
L149.142 308.469
L151.826 306.332
L153.615 304.988
L158.088 301.517
L158.982 300.932
L169.717 292.391
L170.612 291.805
L173.296 289.773
L178.663 285.575
L180.452 284.273
L182.242 282.964
L185.82 280.209
L192.082 275.285
L195.66 272.538
L198.344 270.639
L207.29 263.579
L209.974 261.655
L212.658 259.63
L215.341 257.599
L220.709 253.399
L227.866 247.785
L230.549 245.861
L235.917 241.684
L237.706 240.355
L246.652 233.408
L247.547 232.819
L254.703 227.168
L261.86 221.557
L264.544 219.631
L273.49 212.539
L274.384 211.953
L278.857 208.474
L282.436 205.726
L283.33 205.14
L286.909 202.387
L291.381 198.919
L293.171 197.608
L295.854 195.717
L298.538 193.682
L306.59 187.348
L310.168 184.846
L312.852 182.732
L316.43 180.063
L327.165 171.523
L328.06 170.935
L333.427 166.717
L337.006 163.999
L339.689 162.09
L346.846 156.453
L349.53 154.557
L355.792 149.631
L358.476 147.617
L360.265 146.296
L362.949 144.271
L364.738 142.968
L366.527 141.656
L369.211 139.627
L371.895 137.6
L376.367 134.263
L381.735 130.062
L383.524 128.763
L384.419 128.175
L387.103 126.146
L389.786 124.164
L392.47 122.23
L396.048 119.475
L399.627 116.726
L413.046 106.29
L418.413 102.089
L419.308 101.506
L421.992 99.3581
L423.781 98.0287
L428.254 94.556
L429.148 93.969
L435.41 89.0459
L438.094 87.0633
L442.567 83.8228
L445.251 81.7929
L447.935 79.7844
L450.618 77.8785
L459.564 70.9256
L460.459 70.3409
L465.826 66.0019
L466.721 65.415
L472.089 61.2177
L473.878 59.913
L476.561 58.0157
L480.14 55.2733
L482.824 53.3812
L486.402 50.6273
L489.98 47.8758
L495.348 43.8213
L496.242 43.2344
L499.821 40.3446
L500.715 39.7565
L502.505 38.3101
L504.294 37.0303
L506.083 35.6974
L509.661 32.8013
L509.661 32.8013" style="fill:none;stroke:#ff0000;stroke-linecap:square;"/>
   </g>
   <g id="line2d_4">
    <path clip-path="url(#p3f6fae7697)" d="
M63.2613 368.699
L64.1558 368.258
L70.418 364.149
L73.1017 362.368
L94.5719 348.395
L98.1502 346.091
L105.307 341.239
L107.096 339.94
L110.674 337.608
L113.358 335.579
L116.937 332.84
L118.726 331.52
L121.41 329.493
L124.093 327.465
L124.988 326.88
L128.566 324.126
L132.145 321.391
L133.934 320.068
L138.407 316.59
L141.985 313.84
L142.88 313.255
L148.247 309.061
L149.142 308.472
L154.509 304.271
L158.088 301.519
L158.982 300.936
L169.717 292.392
L170.612 291.808
L174.19 289.055
L178.663 285.583
L181.347 283.684
L190.293 276.627
L192.082 275.287
L195.66 272.534
L198.344 270.643
L207.29 263.561
L209.974 261.658
L212.658 259.634
L217.131 256.156
L229.655 246.456
L232.339 244.56
L236.812 241.071
L243.968 235.433
L244.863 234.849
L249.336 231.377
L250.23 230.79
L260.965 222.247
L263.649 220.218
L264.544 219.636
L269.017 216.021
L269.911 215.434
L273.49 212.543
L274.384 211.956
L278.857 208.478
L282.436 205.727
L283.33 205.143
L287.803 201.672
L288.698 201.085
L292.276 198.331
L294.065 196.999
L297.644 194.275
L299.433 192.97
L306.59 187.348
L310.168 184.85
L312.852 182.728
L315.535 180.791
L320.008 177.172
L320.903 176.59
L327.165 171.523
L328.06 170.939
L333.427 166.718
L337.006 163.993
L339.689 162.094
L346.846 156.458
L349.53 154.561
L354.897 150.359
L357.581 148.33
L361.159 145.582
L362.949 144.276
L364.738 142.967
L366.527 141.66
L369.211 139.631
L371.895 137.603
L376.367 134.267
L381.735 130.066
L383.524 128.766
L384.419 128.179
L386.208 126.738
L387.997 125.458
L390.681 123.541
L394.259 120.814
L396.048 119.479
L399.627 116.729
L406.783 111.221
L407.678 110.638
L413.94 105.575
L414.835 104.988
L421.097 100.063
L426.464 95.8773
L429.148 93.973
L435.41 89.0505
L437.2 87.743
L441.672 84.4305
L443.462 83.1028
L446.145 81.0764
L447.935 79.7769
L450.618 77.8813
L455.986 73.68
L457.775 72.3736
L465.826 66.0013
L466.721 65.4178
L472.089 61.22
L472.983 60.6336
L475.667 58.6084
L477.456 57.3014
L480.14 55.2733
L482.824 53.3841
L487.297 49.9125
L495.348 43.8236
L496.242 43.2378
L501.61 39.0365
L504.294 37.0159
L505.188 36.426
L509.661 32.8053
L509.661 32.8053" style="fill:none;stroke:#00bfbf;stroke-linecap:square;"/>
   </g>
   <g id="line2d_5">
    <path clip-path="url(#p3f6fae7697)" d="
M63.2613 368.699
L64.1558 368.269
L68.6288 365.41
L81.153 357.44
L105.307 341.935
L107.096 340.681
L111.569 337.7
L117.831 333.169
L121.41 330.493
L124.093 328.519
L125.882 327.243
L134.828 320.603
L139.301 317.223
L141.091 315.939
L143.774 313.969
L145.563 312.685
L150.931 308.596
L168.823 295.034
L172.401 292.362
L174.19 291.086
L180.452 286.425
L182.242 285.151
L185.82 282.46
L192.082 277.663
L195.66 274.988
L198.344 273.134
L207.29 266.256
L209.974 264.379
L212.658 262.412
L215.341 260.43
L218.025 258.342
L219.814 257.035
L226.971 251.537
L231.444 248.292
L233.233 247.009
L237.706 243.627
L249.336 234.876
L251.125 233.591
L261.86 225.3
L264.544 223.428
L273.49 216.516
L275.279 215.239
L279.752 211.855
L281.541 210.573
L285.119 207.902
L286.909 206.622
L291.381 203.251
L294.065 201.367
L300.327 196.761
L302.117 195.457
L306.59 191.965
L310.168 189.523
L313.746 186.848
L315.535 185.568
L327.165 176.544
L328.954 175.262
L333.427 171.854
L337.006 169.207
L339.689 167.346
L346.846 161.862
L349.53 160.009
L354.003 156.505
L355.792 155.21
L358.476 153.242
L360.265 151.958
L362.949 149.986
L365.632 148.106
L372.789 142.85
L377.262 139.522
L380.84 136.833
L383.524 134.871
L385.313 133.594
L387.997 131.647
L390.681 129.778
L394.259 127.14
L396.048 125.82
L399.627 123.139
L406.783 117.775
L408.573 116.493
L418.413 108.883
L420.202 107.596
L426.464 102.827
L429.148 100.958
L435.41 96.1653
L438.094 94.2305
L442.567 91.0683
L446.145 88.3985
L448.829 86.5559
L451.513 84.5952
L453.302 83.2975
L456.88 80.5851
L464.932 74.4057
L468.51 71.7435
L470.299 70.4469
L472.983 68.4672
L475.667 66.5042
L477.456 65.2266
L480.14 63.2504
L482.824 61.4008
L486.402 58.723
L490.875 55.3615
L492.664 54.058
L495.348 52.0898
L497.137 50.8082
L500.715 48.124
L503.399 46.1541
L509.661 41.3503
L509.661 41.3503" style="fill:none;stroke:#bf00bf;stroke-linecap:square;"/>
   </g>
   <g id="line2d_6">
    <path clip-path="url(#p3f6fae7697)" d="
M63.2613 368.699
L64.1558 368.288
L68.6288 365.565
L76.6801 360.686
L83.8368 356.341
L99.9394 346.648
L105.307 343.241
L107.096 342.043
L111.569 339.21
L131.25 325.499
L135.723 322.297
L137.512 321.064
L141.985 317.85
L144.669 316.086
L151.826 310.885
L153.615 309.642
L158.088 306.428
L159.877 305.213
L168.823 298.634
L172.401 296.091
L174.19 294.877
L180.452 290.444
L182.242 289.233
L186.715 286.006
L192.082 282.114
L195.66 279.567
L198.344 277.803
L207.29 271.264
L209.974 269.477
L212.658 267.605
L216.236 265.047
L221.604 261.161
L223.393 259.946
L228.76 256.052
L231.444 254.175
L233.233 252.96
L237.706 249.74
L243.968 245.175
L245.757 243.962
L249.336 241.418
L251.125 240.198
L260.965 232.955
L263.649 231.073
L265.438 229.86
L272.595 224.623
L276.173 222.073
L277.963 220.861
L282.436 217.643
L284.225 216.428
L287.803 213.882
L289.592 212.665
L293.171 210.117
L295.854 208.364
L299.433 205.814
L307.484 200.041
L310.168 198.288
L313.746 195.739
L315.535 194.525
L327.165 185.941
L328.954 184.724
L333.427 181.476
L338.795 177.754
L341.478 175.99
L347.741 171.428
L358.476 163.774
L360.265 162.558
L362.949 160.678
L364.738 159.469
L366.527 158.256
L370.105 155.708
L371.895 154.496
L376.367 151.404
L380.84 148.175
L383.524 146.303
L385.313 145.09
L387.997 143.237
L390.681 141.461
L394.259 138.941
L396.048 137.698
L399.627 135.147
L406.783 130.044
L407.678 129.502
L413.94 124.811
L415.729 123.593
L421.097 119.701
L426.464 115.829
L429.148 114.055
L435.41 109.493
L438.094 107.65
L442.567 104.65
L446.145 102.109
L448.829 100.353
L451.513 98.4906
L453.302 97.2597
L459.564 92.7007
L461.353 91.4813
L468.51 86.2679
L470.299 85.0376
L473.878 82.4899
L476.561 80.7273
L480.14 78.1878
L482.824 76.4333
L487.297 73.2175
L507.872 58.7034
L509.661 57.3613
L509.661 57.3613" style="fill:none;stroke:#bfbf00;stroke-linecap:square;"/>
   </g>
   <g id="line2d_7">
    <path clip-path="url(#p3f6fae7697)" d="
M63.2613 368.698
L64.1558 368.31
L68.6288 365.764
L76.6801 361.224
L83.8368 357.19
L101.729 347.113
L103.518 345.99
L110.674 341.847
L114.253 339.472
L116.042 338.344
L120.515 335.363
L123.199 333.712
L125.882 331.962
L166.139 305.31
L171.507 301.684
L175.085 299.325
L176.874 298.178
L180.452 295.803
L182.242 294.676
L187.609 291.048
L192.977 287.436
L194.766 286.294
L197.45 284.546
L199.239 283.413
L206.396 278.538
L209.079 276.791
L211.763 275.156
L218.025 270.919
L219.814 269.772
L227.866 264.301
L230.549 262.647
L235.917 259.035
L237.706 257.893
L243.968 253.643
L245.757 252.514
L249.336 250.144
L251.125 249.006
L261.86 241.652
L264.544 240.004
L273.49 233.878
L275.279 232.749
L279.752 229.751
L281.541 228.621
L285.119 226.248
L286.909 225.116
L291.381 222.126
L293.171 220.989
L296.749 218.733
L300.327 216.375
L302.117 215.229
L307.484 211.603
L310.168 209.973
L313.746 207.597
L315.535 206.468
L327.165 198.473
L328.954 197.34
L334.322 193.716
L336.111 192.586
L338.795 190.845
L341.478 189.204
L347.741 184.953
L356.687 178.961
L359.37 177.317
L362.949 174.944
L365.632 173.269
L379.051 164.43
L382.63 162.074
L385.313 160.424
L387.997 158.69
L390.681 157.043
L394.259 154.693
L396.048 153.54
L399.627 151.162
L406.783 146.409
L408.573 145.279
L418.413 138.536
L420.202 137.395
L426.464 133.166
L429.148 131.517
L436.305 126.659
L438.989 125.015
L441.672 123.277
L443.462 122.136
L446.145 120.391
L448.829 118.755
L451.513 117.02
L453.302 115.875
L458.67 112.248
L465.826 107.374
L467.616 106.245
L472.089 103.243
L473.878 102.117
L476.561 100.473
L480.14 98.1105
L482.824 96.4758
L487.297 93.4788
L507.872 79.9636
L509.661 78.7137
L509.661 78.7137" style="fill:none;stroke:#000000;stroke-linecap:square;"/>
   </g>
   <g id="line2d_8">
    <path clip-path="url(#p3f6fae7697)" d="
M63.2613 368.7
L64.1558 368.337
L67.7342 366.45
L92.7827 353.499
L105.307 346.898
L107.096 345.873
L111.569 343.447
L147.353 321.939
L151.826 319.197
L153.615 318.136
L158.088 315.388
L159.877 314.347
L169.717 308.147
L171.507 307.109
L175.085 304.939
L176.874 303.886
L180.452 301.707
L182.242 300.668
L188.504 296.76
L192.977 294.015
L194.766 292.966
L197.45 291.361
L199.239 290.317
L205.501 286.413
L209.079 284.23
L211.763 282.729
L218.025 278.838
L219.814 277.78
L227.866 272.758
L230.549 271.235
L235.917 267.915
L237.706 266.866
L246.652 261.357
L248.441 260.313
L255.598 255.833
L257.387 254.795
L263.649 250.89
L265.438 249.852
L273.49 244.799
L275.279 243.76
L279.752 241.006
L281.541 239.965
L285.119 237.788
L286.909 236.745
L291.381 233.999
L293.171 232.953
L298.538 229.83
L307.484 224.327
L310.168 222.827
L313.746 220.645
L315.535 219.607
L327.165 212.262
L328.954 211.22
L334.322 207.891
L336.111 206.85
L338.795 205.252
L341.478 203.741
L348.635 199.278
L350.424 198.226
L356.687 194.331
L359.37 192.818
L362.949 190.641
L365.632 189.09
L376.367 182.699
L381.735 179.367
L383.524 178.336
L385.313 177.294
L387.997 175.704
L390.681 174.187
L394.259 172.022
L396.048 170.967
L400.521 168.226
L402.311 167.172
L406.783 164.416
L408.573 163.374
L418.413 157.18
L420.202 156.13
L426.464 152.244
L429.148 150.728
L436.305 146.264
L438.989 144.754
L441.672 143.157
L443.462 142.108
L446.145 140.506
L448.829 139.001
L451.513 137.403
L453.302 136.355
L458.67 133.021
L465.826 128.544
L467.616 127.505
L472.089 124.747
L474.772 123.223
L480.14 120.03
L483.718 117.953
L488.191 115.227
L489.98 114.163
L494.453 111.413
L497.137 109.906
L502.505 106.582
L505.188 105.075
L509.661 102.204
L509.661 102.204" style="fill:none;stroke:#0000ff;stroke-linecap:square;"/>
   </g>
   <g id="line2d_9">
    <path clip-path="url(#p3f6fae7697)" d="
M63.2613 368.696
L64.1558 368.392
L66.8396 367.188
L73.9963 364.113
L105.307 350.641
L107.096 349.784
L111.569 347.78
L114.253 346.447
L116.042 345.59
L120.515 343.309
L123.199 342.067
L126.777 340.263
L128.566 339.401
L132.145 337.595
L133.934 336.736
L139.301 333.979
L141.091 333.12
L143.774 331.788
L145.563 330.93
L151.826 327.699
L153.615 326.83
L158.088 324.556
L159.877 323.698
L169.717 318.564
L171.507 317.706
L175.085 315.9
L176.874 315.039
L180.452 313.233
L182.242 312.375
L190.293 308.193
L192.082 307.333
L195.66 305.526
L198.344 304.27
L209.079 298.769
L211.763 297.528
L218.025 294.297
L219.814 293.429
L229.655 288.397
L232.339 287.158
L238.601 283.925
L240.39 283.052
L249.336 278.5
L251.125 277.636
L263.649 271.174
L265.438 270.317
L273.49 266.133
L275.279 265.275
L279.752 262.992
L281.541 262.135
L285.119 260.327
L286.909 259.469
L291.381 257.188
L293.171 256.329
L303.906 250.998
L307.484 249.191
L311.062 247.475
L313.746 246.142
L316.43 244.81
L327.165 239.2
L328.954 238.342
L334.322 235.584
L336.111 234.726
L338.795 233.394
L341.478 232.153
L348.635 228.447
L350.424 227.588
L356.687 224.355
L359.37 223.111
L362.949 221.306
L366.527 219.592
L370.105 217.784
L371.895 216.926
L374.578 215.598
L376.367 214.735
L382.63 211.504
L385.313 210.262
L387.997 208.932
L390.681 207.69
L394.259 205.884
L396.048 205.025
L400.521 202.744
L402.311 201.884
L406.783 199.601
L408.573 198.739
L418.413 193.61
L420.202 192.741
L428.254 188.661
L430.043 187.801
L436.305 184.57
L438.989 183.33
L441.672 181.998
L443.462 181.139
L446.145 179.807
L448.829 178.567
L451.513 177.236
L453.302 176.377
L459.564 173.143
L461.353 172.28
L468.51 168.578
L470.299 167.719
L473.878 165.911
L481.034 162.444
L493.559 156.2
L495.348 155.343
L497.137 154.485
L502.505 151.727
L505.188 150.487
L509.661 148.111
L509.661 148.111" style="fill:none;stroke:#008000;stroke-linecap:square;"/>
   </g>
   <g id="line2d_10">
    <path clip-path="url(#p3f6fae7697)" d="
M63.2613 368.7
L64.1558 368.397
L66.8396 367.197
L73.1017 364.503
L111.569 347.783
L114.253 346.451
L116.042 345.593
L120.515 343.313
L123.199 342.07
L126.777 340.27
L128.566 339.405
L132.145 337.598
L133.934 336.74
L139.301 333.981
L141.091 333.123
L143.774 331.791
L145.563 330.934
L151.826 327.702
L153.615 326.835
L158.088 324.559
L159.877 323.702
L169.717 318.567
L171.507 317.709
L175.085 315.904
L176.874 315.044
L180.452 313.237
L184.031 311.508
L197.45 304.672
L199.239 303.813
L204.606 301.055
L209.079 298.773
L211.763 297.533
L218.025 294.301
L219.814 293.434
L229.655 288.401
L232.339 287.161
L238.601 283.928
L240.39 283.056
L249.336 278.503
L251.125 277.641
L261.86 272.038
L264.544 270.795
L273.49 266.136
L275.279 265.278
L279.752 262.996
L281.541 262.138
L285.119 260.33
L286.909 259.472
L291.381 257.191
L293.171 256.332
L303.011 251.476
L307.484 249.194
L310.168 247.953
L313.746 246.146
L316.43 244.812
L327.165 239.203
L328.954 238.346
L334.322 235.587
L336.111 234.73
L338.795 233.398
L341.478 232.158
L348.635 228.451
L350.424 227.591
L356.687 224.358
L359.37 223.116
L362.949 221.309
L366.527 219.595
L370.105 217.787
L371.895 216.929
L374.578 215.609
L376.367 214.739
L382.63 211.508
L385.313 210.266
L387.997 208.935
L390.681 207.693
L394.259 205.888
L396.048 205.028
L400.521 202.748
L402.311 201.887
L406.783 199.605
L408.573 198.744
L418.413 193.612
L420.202 192.747
L426.464 189.523
L429.148 188.276
L436.305 184.574
L438.989 183.333
L441.672 182.001
L443.462 181.143
L446.145 179.81
L448.829 178.57
L451.513 177.239
L453.302 176.381
L459.564 173.147
L461.353 172.284
L468.51 168.582
L470.299 167.723
L473.878 165.914
L479.245 163.34
L481.929 162.01
L483.718 161.153
L488.191 158.877
L489.98 158.011
L494.453 155.729
L497.137 154.489
L502.505 151.731
L505.188 150.491
L509.661 148.114
L509.661 148.114" style="fill:none;stroke:#ff0000;stroke-linecap:square;"/>
   </g>
   <g id="line2d_11">
    <path clip-path="url(#p3f6fae7697)" d="
M63.2613 368.699
L64.1558 368.386
L67.7342 366.75
L110.674 347.469
L114.253 345.591
L116.042 344.7
L120.515 342.333
L123.199 341.041
L126.777 339.173
L128.566 338.272
L132.145 336.395
L133.934 335.504
L139.301 332.638
L141.091 331.747
L143.774 330.363
L145.563 329.473
L151.826 326.116
L153.615 325.216
L158.088 322.851
L159.877 321.962
L169.717 316.627
L171.507 315.736
L175.085 313.861
L176.874 312.968
L180.452 311.09
L182.242 310.199
L192.977 304.469
L194.766 303.577
L197.45 302.194
L199.239 301.303
L205.501 297.944
L209.079 296.067
L211.763 294.778
L218.025 291.42
L219.814 290.522
L227.866 286.187
L230.549 284.895
L235.917 282.03
L237.706 281.138
L243.968 277.779
L245.757 276.888
L249.336 275.01
L251.125 274.118
L261.86 268.297
L264.544 267.005
L273.49 262.165
L275.279 261.274
L279.752 258.903
L281.541 258.012
L285.119 256.134
L286.909 255.243
L291.381 252.873
L293.171 251.981
L302.117 247.432
L307.484 244.566
L310.168 243.279
L313.746 241.4
L315.535 240.511
L327.165 234.189
L328.954 233.298
L334.322 230.433
L336.111 229.542
L338.795 228.159
L341.478 226.871
L348.635 223.019
L350.424 222.127
L356.687 218.769
L359.37 217.478
L362.949 215.602
L366.527 213.821
L370.105 211.943
L371.895 211.053
L382.63 205.42
L385.313 204.131
L387.997 202.748
L390.681 201.459
L394.259 199.584
L396.048 198.69
L400.521 196.323
L402.311 195.428
L406.783 193.057
L408.573 192.163
L418.413 186.832
L420.202 185.935
L426.464 182.584
L429.148 181.29
L436.305 177.444
L438.989 176.154
L441.672 174.771
L443.462 173.879
L446.145 172.495
L448.829 171.207
L451.513 169.825
L453.302 168.933
L459.564 165.573
L461.353 164.678
L468.51 160.832
L470.299 159.94
L473.878 158.062
L479.245 155.387
L481.929 154.006
L483.718 153.114
L488.191 150.754
L489.98 149.853
L494.453 147.482
L497.137 146.194
L502.505 143.328
L505.188 142.041
L509.661 139.572
L509.661 139.572" style="fill:none;stroke:#00bfbf;stroke-linecap:square;"/>
   </g>
   <g id="line2d_12">
    <path clip-path="url(#p3f6fae7697)" d="
M63.2613 368.699
L64.1558 368.367
L66.8396 367.052
L79.3639 361.072
L100.834 350.873
L105.307 348.642
L107.096 347.689
L111.569 345.462
L160.771 318.171
L169.717 312.992
L171.507 312.039
L175.085 310.033
L176.874 309.077
L180.452 307.068
L182.242 306.114
L197.45 297.55
L199.239 296.596
L205.501 293.002
L209.079 290.994
L211.763 289.615
L218.025 286.023
L219.814 285.062
L227.866 280.425
L230.549 279.04
L235.917 275.977
L237.706 275.022
L243.968 271.428
L245.757 270.474
L249.336 268.466
L251.125 267.51
L261.86 261.283
L264.544 259.9
L273.49 254.721
L275.279 253.768
L279.752 251.231
L281.541 250.278
L285.119 248.269
L286.909 247.315
L291.381 244.78
L293.171 243.826
L298.538 240.954
L307.484 235.893
L310.168 234.515
L313.746 232.505
L315.535 231.553
L327.165 224.79
L328.954 223.836
L334.322 220.771
L336.111 219.818
L338.795 218.338
L341.478 216.96
L348.635 212.839
L350.424 211.883
L356.687 208.291
L359.37 206.911
L362.949 204.903
L365.632 203.469
L371 200.557
L374.578 198.588
L376.367 197.601
L382.63 194.009
L385.313 192.63
L387.997 191.152
L390.681 189.771
L394.259 187.769
L396.048 186.809
L400.521 184.277
L402.311 183.318
L406.783 180.782
L408.573 179.826
L418.413 174.122
L420.202 173.163
L426.464 169.576
L429.148 168.194
L436.305 164.076
L438.989 162.697
L441.672 161.218
L443.462 160.264
L446.145 158.783
L448.829 157.405
L451.513 155.925
L453.302 154.971
L459.564 151.377
L461.353 150.42
L468.51 146.303
L470.299 145.349
L473.878 143.34
L477.456 141.434
L480.14 139.953
L483.718 138.047
L488.191 135.532
L489.98 134.557
L494.453 132.02
L497.137 130.642
L502.505 127.577
L505.188 126.199
L509.661 123.557
L509.661 123.557" style="fill:none;stroke:#bf00bf;stroke-linecap:square;"/>
   </g>
   <g id="line2d_13">
    <path clip-path="url(#p3f6fae7697)" d="
M63.2613 368.7
L64.1558 368.345
L67.7342 366.459
L101.729 348.859
L103.518 347.824
L110.674 344.02
L114.253 341.836
L116.042 340.799
L120.515 338.052
L123.199 336.543
L125.882 334.933
L139.301 326.771
L141.091 325.734
L143.774 324.125
L145.563 323.089
L151.826 319.19
L153.615 318.142
L158.088 315.387
L159.877 314.352
L169.717 308.147
L171.507 307.11
L175.085 304.935
L176.874 303.891
L180.452 301.706
L182.242 300.669
L188.504 296.761
L192.977 294.008
L194.766 292.967
L197.45 291.358
L199.239 290.322
L206.396 285.84
L209.079 284.231
L211.763 282.733
L218.025 278.828
L219.814 277.786
L227.866 272.745
L230.549 271.236
L235.917 267.91
L237.706 266.867
L243.968 262.96
L245.757 261.924
L249.336 259.741
L251.125 258.703
L261.86 251.936
L264.544 250.427
L273.49 244.798
L275.279 243.761
L279.752 241.003
L281.541 239.967
L285.119 237.784
L286.909 236.746
L291.381 233.994
L293.171 232.953
L296.749 230.88
L300.327 228.704
L302.117 227.66
L307.484 224.328
L310.168 222.831
L313.746 220.646
L315.535 219.611
L322.692 215.128
L332.533 208.924
L336.111 206.852
L338.795 205.243
L341.478 203.746
L347.741 199.837
L354.003 195.935
L355.792 194.893
L358.476 193.285
L360.265 192.247
L362.949 190.639
L365.632 189.093
L377.262 182.128
L382.63 178.801
L385.313 177.295
L387.997 175.693
L390.681 174.189
L394.259 172.022
L396.048 170.968
L400.521 168.219
L402.311 167.173
L406.783 164.416
L408.573 163.379
L418.413 157.175
L420.202 156.138
L426.464 152.238
L429.148 150.733
L436.305 146.254
L438.989 144.755
L441.672 143.152
L443.462 142.109
L446.145 140.501
L448.829 139.002
L451.513 137.395
L453.302 136.356
L459.564 132.449
L461.353 131.411
L468.51 126.94
L470.299 125.896
L473.878 123.711
L476.561 122.206
L480.14 120.03
L482.824 118.531
L487.297 115.773
L509.661 102.205
L509.661 102.205" style="fill:none;stroke:#bfbf00;stroke-linecap:square;"/>
   </g>
   <g id="line2d_14">
    <path clip-path="url(#p3f6fae7697)" d="
M63.2613 368.698
L64.1558 368.315
L67.7342 366.273
L80.2584 359.193
L90.0989 353.654
L105.307 344.984
L107.096 343.857
L111.569 341.223
L134.828 326.08
L139.301 323.079
L141.091 321.95
L143.774 320.199
L145.563 319.072
L150.931 315.444
L155.404 312.443
L157.193 311.315
L163.455 307.064
L178.663 296.931
L181.347 295.295
L190.293 289.183
L192.082 288.047
L195.66 285.671
L198.344 284.034
L207.29 277.916
L209.974 276.282
L212.658 274.533
L217.131 271.53
L221.604 268.529
L223.393 267.401
L229.655 263.151
L232.339 261.521
L238.601 257.271
L240.39 256.137
L246.652 251.89
L248.441 250.763
L255.598 245.886
L257.387 244.758
L263.649 240.506
L265.438 239.379
L273.49 233.877
L275.279 232.749
L279.752 229.749
L281.541 228.621
L285.119 226.245
L286.909 225.117
L291.381 222.117
L293.171 220.989
L296.749 218.733
L300.327 216.361
L302.117 215.23
L307.484 211.603
L310.168 209.975
L313.746 207.597
L315.535 206.471
L322.692 201.592
L332.533 194.84
L335.216 193.212
L338.795 190.836
L341.478 189.207
L347.741 184.953
L354.003 180.705
L355.792 179.574
L358.476 177.823
L360.265 176.695
L362.949 174.943
L364.738 173.816
L367.422 172.064
L370.105 170.313
L371.895 169.185
L379.051 164.431
L382.63 162.059
L385.313 160.425
L387.997 158.683
L390.681 157.044
L394.259 154.681
L396.048 153.54
L400.521 150.549
L402.311 149.41
L406.783 146.409
L408.573 145.281
L418.413 138.53
L420.202 137.4
L426.464 133.156
L429.148 131.521
L436.305 126.652
L438.989 125.015
L441.672 123.269
L443.462 122.136
L446.145 120.386
L448.829 118.755
L451.513 117.006
L453.302 115.876
L459.564 111.625
L461.353 110.497
L468.51 105.626
L470.299 104.493
L473.878 102.116
L476.561 100.48
L480.14 98.1105
L482.824 96.4792
L487.297 93.4794
L495.348 88.2234
L497.137 87.0956
L502.505 83.4697
L505.188 81.8402
L509.661 78.7142
L509.661 78.7142" style="fill:none;stroke:#000000;stroke-linecap:square;"/>
   </g>
   <g id="line2d_15">
    <path clip-path="url(#p3f6fae7697)" d="
M63.2613 368.699
L64.1558 368.292
L68.6288 365.563
L73.1017 362.824
L105.307 343.243
L107.096 342.034
L111.569 339.206
L128.566 327.38
L132.145 324.833
L133.934 323.62
L138.407 320.396
L141.985 317.844
L142.88 317.304
L148.247 313.411
L149.142 312.872
L154.509 308.977
L158.088 306.425
L158.982 305.887
L169.717 297.966
L170.612 297.427
L174.19 294.874
L178.663 291.651
L181.347 289.895
L190.293 283.334
L192.082 282.113
L195.66 279.562
L198.344 277.807
L207.29 271.252
L209.974 269.483
L212.658 267.604
L220.709 261.829
L226.971 257.263
L229.655 255.384
L232.339 253.633
L238.601 249.071
L239.495 248.529
L243.968 245.173
L244.863 244.633
L249.336 241.412
L250.23 240.871
L261.86 232.293
L264.544 230.531
L273.49 223.953
L274.384 223.415
L279.752 219.52
L280.646 218.981
L285.119 215.758
L286.909 214.547
L291.381 211.328
L293.171 210.115
L295.854 208.365
L299.433 205.813
L306.59 200.591
L310.168 198.29
L313.746 195.738
L315.535 194.528
L320.008 191.172
L320.903 190.633
L327.165 185.936
L328.06 185.397
L333.427 181.483
L337.006 178.951
L338.795 177.745
L341.478 175.992
L346.846 171.97
L349.53 170.215
L356.687 164.981
L359.37 163.231
L362.949 160.678
L364.738 159.469
L366.527 158.258
L370.105 155.707
L371.895 154.496
L378.157 150.063
L381.735 147.511
L383.524 146.302
L384.419 145.762
L387.103 143.881
L388.892 142.672
L394.259 138.934
L396.048 137.698
L399.627 135.147
L404.994 131.253
L405.889 130.713
L413.94 124.807
L414.835 124.267
L421.992 119.037
L423.781 117.821
L428.254 114.598
L430.043 113.389
L435.41 109.493
L438.094 107.635
L440.778 105.863
L444.356 103.315
L447.04 101.562
L449.724 99.6847
L452.408 97.9325
L459.564 92.6961
L460.459 92.1581
L465.826 88.1313
L466.721 87.5915
L472.089 83.6978
L472.983 83.1581
L475.667 81.2786
L477.456 80.0678
L480.14 78.1872
L482.824 76.4379
L487.297 73.2146
L507.872 58.7051
L509.661 57.3619
L509.661 57.3619" style="fill:none;stroke:#0000ff;stroke-linecap:square;"/>
   </g>
   <g id="line2d_16">
    <path clip-path="url(#p3f6fae7697)" d="
M63.2613 368.701
L64.1558 368.271
L70.418 364.277
L74.8909 361.41
L101.729 344.342
L103.518 343.072
L105.307 341.938
L107.096 340.67
L111.569 337.693
L118.726 332.465
L121.41 330.488
L124.093 328.511
L124.988 327.944
L128.566 325.259
L132.145 322.589
L133.934 321.305
L136.618 319.325
L141.985 315.234
L142.88 314.665
L148.247 310.576
L149.142 310.004
L153.615 306.613
L158.088 303.226
L158.982 302.66
L169.717 294.331
L170.612 293.764
L173.296 291.785
L178.663 287.695
L181.347 285.847
L190.293 278.964
L192.082 277.663
L195.66 274.984
L198.344 273.137
L207.29 266.256
L209.974 264.382
L212.658 262.409
L216.236 259.722
L221.604 255.629
L222.498 255.062
L227.866 250.854
L230.549 248.989
L235.022 245.603
L238.601 242.93
L240.39 241.642
L246.652 236.848
L247.547 236.279
L249.336 234.874
L251.125 233.595
L255.598 230.069
L256.493 229.498
L263.649 223.994
L264.544 223.427
L273.49 216.51
L274.384 215.943
L277.068 213.962
L282.436 209.871
L283.33 209.304
L286.909 206.62
L291.381 203.253
L294.065 201.369
L297.644 198.71
L299.433 197.437
L309.273 190.093
L310.168 189.526
L312.852 187.464
L316.43 184.864
L327.165 176.54
L328.06 175.969
L334.322 171.169
L335.216 170.602
L337.9 168.624
L340.584 166.648
L341.478 166.081
L346.846 161.859
L349.53 160.007
L355.792 155.207
L358.476 153.23
L359.37 152.663
L361.159 151.259
L363.843 149.406
L368.316 146.034
L371 144.185
L373.684 142.207
L377.262 139.525
L379.946 137.41
L381.735 136.135
L383.524 134.866
L384.419 134.296
L387.103 132.319
L389.786 130.368
L392.47 128.503
L397.838 124.414
L399.627 123.135
L406.783 117.769
L407.678 117.202
L417.519 109.577
L421.992 106.197
L423.781 104.917
L428.254 101.532
L429.148 100.961
L436.305 95.4637
L438.989 93.6165
L441.672 91.6483
L443.462 90.3667
L446.145 88.3939
L448.829 86.5501
L451.513 84.5871
L453.302 83.2998
L459.564 78.5
L460.459 77.9337
L465.826 73.7013
L466.721 73.1322
L472.089 69.0386
L472.983 68.4706
L475.667 66.4984
L477.456 65.2243
L480.14 63.2452
L482.824 61.4049
L487.297 58.0162
L492.664 54.0603
L495.348 52.0829
L496.242 51.5161
L499.821 48.6943
L500.715 48.1269
L503.399 46.1495
L509.661 41.348
L509.661 41.348" style="fill:none;stroke:#008000;stroke-linecap:square;"/>
   </g>
   <g id="patch_3">
    <path d="
M63.2613 23.1417
L509.661 23.1417" style="fill:none;stroke:#000000;stroke-linecap:square;stroke-linejoin:miter;"/>
   </g>
   <g id="patch_4">
    <path d="
M509.661 368.742
L509.661 23.1417" style="fill:none;stroke:#000000;stroke-linecap:square;stroke-linejoin:miter;"/>
   </g>
   <g id="patch_5">
    <path d="
M63.2613 368.742
L509.661 368.742" style="fill:none;stroke:#000000;stroke-linecap:square;stroke-linejoin:miter;"/>
   </g>
   <g id="patch_6">
    <path d="
M63.2613 368.742
L63.2613 23.1417" style="fill:none;stroke:#000000;stroke-linecap:square;stroke-linejoin:miter;"/>
   </g>
   <g id="matplotlib.axis_1">
    <g id="xtick_1">
     <g id="line2d_17">
      <defs>
       <path d="
M0 0
L0 -4" id="m93b0483c22" style="stroke:#000000;stroke-width:0.5;"/>
      </defs>
      <g>
       <use style="stroke:#000000;stroke-width:0.5;" x="63.26125" xlink:href="#m93b0483c22" y="368.74175"/>
      </g>
     </g>
     <g id="line2d_18">
      <defs>
       <path d="
M0 0
L0 4" id="m741efc42ff" style="stroke:#000000;stroke-width:0.5;"/>
      </defs>
      <g>
       <use style="stroke:#000000;stroke-width:0.5;" x="63.26125" xlink:href="#m741efc42ff" y="23.14175"/>
      </g>
     </g>
     <g id="text_1">
      <!-- 0 -->
      <defs>
       <path d="
M31.7812 66.4062
Q24.1719 66.4062 20.3281 58.9062
Q16.5 51.4219 16.5 36.375
Q16.5 21.3906 20.3281 13.8906
Q24.1719 6.39062 31.7812 6.39062
Q39.4531 6.39062 43.2812 13.8906
Q47.125 21.3906 47.125 36.375
Q47.125 51.4219 43.2812 58.9062
Q39.4531 66.4062 31.7812 66.4062
M31.7812 74.2188
Q44.0469 74.2188 50.5156 64.5156
Q56.9844 54.8281 56.9844 36.375
Q56.9844 17.9688 50.5156 8.26562
Q44.0469 -1.42188 31.7812 -1.42188
Q19.5312 -1.42188 13.0625 8.26562
Q6.59375 17.9688 6.59375 36.375
Q6.59375 54.8281 13.0625 64.5156
Q19.5312 74.2188 31.7812 74.2188" id="DejaVuSans-30"/>
      </defs>
      <g transform="translate(60.2378125 381.859875)scale(0.12 -0.12)">
       <use xlink:href="#DejaVuSans-30"/>
      </g>
     </g>
    </g>
    <g id="xtick_2">
     <g id="line2d_19">
      <g>
       <use style="stroke:#000000;stroke-width:0.5;" x="152.720167836" xlink:href="#m93b0483c22" y="368.74175"/>
      </g>
     </g>
     <g id="line2d_20">
      <g>
       <use style="stroke:#000000;stroke-width:0.5;" x="152.720167836" xlink:href="#m741efc42ff" y="23.14175"/>
      </g>
     </g>
     <g id="text_2">
      <!-- 100 -->
      <defs>
       <path d="
M12.4062 8.29688
L28.5156 8.29688
L28.5156 63.9219
L10.9844 60.4062
L10.9844 69.3906
L28.4219 72.9062
L38.2812 72.9062
L38.2812 8.29688
L54.3906 8.29688
L54.3906 0
L12.4062 0
z
" id="DejaVuSans-31"/>
      </defs>
      <g transform="translate(142.325167836 381.859875)scale(0.12 -0.12)">
       <use xlink:href="#DejaVuSans-31"/>
       <use x="63.623046875" xlink:href="#DejaVuSans-30"/>
       <use x="127.24609375" xlink:href="#DejaVuSans-30"/>
      </g>
     </g>
    </g>
    <g id="xtick_3">
     <g id="line2d_21">
      <g>
       <use style="stroke:#000000;stroke-width:0.5;" x="242.179085671" xlink:href="#m93b0483c22" y="368.74175"/>
      </g>
     </g>
     <g id="line2d_22">
      <g>
       <use style="stroke:#000000;stroke-width:0.5;" x="242.179085671" xlink:href="#m741efc42ff" y="23.14175"/>
      </g>
     </g>
     <g id="text_3">
      <!-- 200 -->
      <defs>
       <path d="
M19.1875 8.29688
L53.6094 8.29688
L53.6094 0
L7.32812 0
L7.32812 8.29688
Q12.9375 14.1094 22.625 23.8906
Q32.3281 33.6875 34.8125 36.5312
Q39.5469 41.8438 41.4219 45.5312
Q43.3125 49.2188 43.3125 52.7812
Q43.3125 58.5938 39.2344 62.25
Q35.1562 65.9219 28.6094 65.9219
Q23.9688 65.9219 18.8125 64.3125
Q13.6719 62.7031 7.8125 59.4219
L7.8125 69.3906
Q13.7656 71.7812 18.9375 73
Q24.125 74.2188 28.4219 74.2188
Q39.75 74.2188 46.4844 68.5469
Q53.2188 62.8906 53.2188 53.4219
Q53.2188 48.9219 51.5312 44.8906
Q49.8594 40.875 45.4062 35.4062
Q44.1875 33.9844 37.6406 27.2188
Q31.1094 20.4531 19.1875 8.29688" id="DejaVuSans-32"/>
      </defs>
      <g transform="translate(231.564710671 381.859875)scale(0.12 -0.12)">
       <use xlink:href="#DejaVuSans-32"/>
       <use x="63.623046875" xlink:href="#DejaVuSans-30"/>
       <use x="127.24609375" xlink:href="#DejaVuSans-30"/>
      </g>
     </g>
    </g>
    <g id="xtick_4">
     <g id="line2d_23">
      <g>
       <use style="stroke:#000000;stroke-width:0.5;" x="331.638003507" xlink:href="#m93b0483c22" y="368.74175"/>
      </g>
     </g>
     <g id="line2d_24">
      <g>
       <use style="stroke:#000000;stroke-width:0.5;" x="331.638003507" xlink:href="#m741efc42ff" y="23.14175"/>
      </g>
     </g>
     <g id="text_4">
      <!-- 300 -->
      <defs>
       <path d="
M40.5781 39.3125
Q47.6562 37.7969 51.625 33
Q55.6094 28.2188 55.6094 21.1875
Q55.6094 10.4062 48.1875 4.48438
Q40.7656 -1.42188 27.0938 -1.42188
Q22.5156 -1.42188 17.6562 -0.515625
Q12.7969 0.390625 7.625 2.20312
L7.625 11.7188
Q11.7188 9.32812 16.5938 8.10938
Q21.4844 6.89062 26.8125 6.89062
Q36.0781 6.89062 40.9375 10.5469
Q45.7969 14.2031 45.7969 21.1875
Q45.7969 27.6406 41.2812 31.2656
Q36.7656 34.9062 28.7188 34.9062
L20.2188 34.9062
L20.2188 43.0156
L29.1094 43.0156
Q36.375 43.0156 40.2344 45.9219
Q44.0938 48.8281 44.0938 54.2969
Q44.0938 59.9062 40.1094 62.9062
Q36.1406 65.9219 28.7188 65.9219
Q24.6562 65.9219 20.0156 65.0312
Q15.375 64.1562 9.8125 62.3125
L9.8125 71.0938
Q15.4375 72.6562 20.3438 73.4375
Q25.25 74.2188 29.5938 74.2188
Q40.8281 74.2188 47.3594 69.1094
Q53.9062 64.0156 53.9062 55.3281
Q53.9062 49.2656 50.4375 45.0938
Q46.9688 40.9219 40.5781 39.3125" id="DejaVuSans-33"/>
      </defs>
      <g transform="translate(321.041441007 381.859875)scale(0.12 -0.12)">
       <use xlink:href="#DejaVuSans-33"/>
       <use x="63.623046875" xlink:href="#DejaVuSans-30"/>
       <use x="127.24609375" xlink:href="#DejaVuSans-30"/>
      </g>
     </g>
    </g>
    <g id="xtick_5">
     <g id="line2d_25">
      <g>
       <use style="stroke:#000000;stroke-width:0.5;" x="421.096921343" xlink:href="#m93b0483c22" y="368.74175"/>
      </g>
     </g>
     <g id="line2d_26">
      <g>
       <use style="stroke:#000000;stroke-width:0.5;" x="421.096921343" xlink:href="#m741efc42ff" y="23.14175"/>
      </g>
     </g>
     <g id="text_5">
      <!-- 400 -->
      <defs>
       <path d="
M37.7969 64.3125
L12.8906 25.3906
L37.7969 25.3906
z

M35.2031 72.9062
L47.6094 72.9062
L47.6094 25.3906
L58.0156 25.3906
L58.0156 17.1875
L47.6094 17.1875
L47.6094 0
L37.7969 0
L37.7969 17.1875
L4.89062 17.1875
L4.89062 26.7031
z
" id="DejaVuSans-34"/>
      </defs>
      <g transform="translate(410.336296343 381.859875)scale(0.12 -0.12)">
       <use xlink:href="#DejaVuSans-34"/>
       <use x="63.623046875" xlink:href="#DejaVuSans-30"/>
       <use x="127.24609375" xlink:href="#DejaVuSans-30"/>
      </g>
     </g>
    </g>
    <g id="text_6">
     <!-- time -->
     <defs>
      <path d="
M18.3125 70.2188
L18.3125 54.6875
L36.8125 54.6875
L36.8125 47.7031
L18.3125 47.7031
L18.3125 18.0156
Q18.3125 11.3281 20.1406 9.42188
Q21.9688 7.51562 27.5938 7.51562
L36.8125 7.51562
L36.8125 0
L27.5938 0
Q17.1875 0 13.2344 3.875
Q9.28125 7.76562 9.28125 18.0156
L9.28125 47.7031
L2.6875 47.7031
L2.6875 54.6875
L9.28125 54.6875
L9.28125 70.2188
z
" id="DejaVuSans-74"/>
      <path d="
M52 44.1875
Q55.375 50.25 60.0625 53.125
Q64.75 56 71.0938 56
Q79.6406 56 84.2812 50.0156
Q88.9219 44.0469 88.9219 33.0156
L88.9219 0
L79.8906 0
L79.8906 32.7188
Q79.8906 40.5781 77.0938 44.375
Q74.3125 48.1875 68.6094 48.1875
Q61.625 48.1875 57.5625 43.5469
Q53.5156 38.9219 53.5156 30.9062
L53.5156 0
L44.4844 0
L44.4844 32.7188
Q44.4844 40.625 41.7031 44.4062
Q38.9219 48.1875 33.1094 48.1875
Q26.2188 48.1875 22.1562 43.5312
Q18.1094 38.875 18.1094 30.9062
L18.1094 0
L9.07812 0
L9.07812 54.6875
L18.1094 54.6875
L18.1094 46.1875
Q21.1875 51.2188 25.4844 53.6094
Q29.7812 56 35.6875 56
Q41.6562 56 45.8281 52.9688
Q50 49.9531 52 44.1875" id="DejaVuSans-6d"/>
      <path d="
M56.2031 29.5938
L56.2031 25.2031
L14.8906 25.2031
Q15.4844 15.9219 20.4844 11.0625
Q25.4844 6.20312 34.4219 6.20312
Q39.5938 6.20312 44.4531 7.46875
Q49.3125 8.73438 54.1094 11.2812
L54.1094 2.78125
Q49.2656 0.734375 44.1875 -0.34375
Q39.1094 -1.42188 33.8906 -1.42188
Q20.7969 -1.42188 13.1562 6.1875
Q5.51562 13.8125 5.51562 26.8125
Q5.51562 40.2344 12.7656 48.1094
Q20.0156 56 32.3281 56
Q43.3594 56 49.7812 48.8906
Q56.2031 41.7969 56.2031 29.5938
M47.2188 32.2344
Q47.125 39.5938 43.0938 43.9844
Q39.0625 48.3906 32.4219 48.3906
Q24.9062 48.3906 20.3906 44.1406
Q15.875 39.8906 15.1875 32.1719
z
" id="DejaVuSans-65"/>
      <path d="
M9.42188 54.6875
L18.4062 54.6875
L18.4062 0
L9.42188 0
z

M9.42188 75.9844
L18.4062 75.9844
L18.4062 64.5938
L9.42188 64.5938
z
" id="DejaVuSans-69"/>
     </defs>
     <g transform="translate(273.386875 398.473625)scale(0.12 -0.12)">
      <use xlink:href="#DejaVuSans-74"/>
      <use x="39.208984375" xlink:href="#DejaVuSans-69"/>
      <use x="66.9921875" xlink:href="#DejaVuSans-6d"/>
      <use x="164.404296875" xlink:href="#DejaVuSans-65"/>
     </g>
    </g>
   </g>
   <g id="matplotlib.axis_2">
    <g id="ytick_1">
     <g id="line2d_27">
      <defs>
       <path d="
M0 0
L4 0" id="m728421d6d4" style="stroke:#000000;stroke-width:0.5;"/>
      </defs>
      <g>
       <use style="stroke:#000000;stroke-width:0.5;" x="63.26125" xlink:href="#m728421d6d4" y="368.74175"/>
      </g>
     </g>
     <g id="line2d_28">
      <defs>
       <path d="
M0 0
L-4 0" id="mcb0005524f" style="stroke:#000000;stroke-width:0.5;"/>
      </defs>
      <g>
       <use style="stroke:#000000;stroke-width:0.5;" x="509.66125" xlink:href="#mcb0005524f" y="368.74175"/>
      </g>
     </g>
     <g id="text_7">
      <!-- 0 -->
      <g transform="translate(53.214375 372.053)scale(0.12 -0.12)">
       <use xlink:href="#DejaVuSans-30"/>
      </g>
     </g>
    </g>
    <g id="ytick_2">
     <g id="line2d_29">
      <g>
       <use style="stroke:#000000;stroke-width:0.5;" x="63.26125" xlink:href="#m728421d6d4" y="311.14175"/>
      </g>
     </g>
     <g id="line2d_30">
      <g>
       <use style="stroke:#000000;stroke-width:0.5;" x="509.66125" xlink:href="#mcb0005524f" y="311.14175"/>
      </g>
     </g>
     <g id="text_8">
      <!-- 1000000 -->
      <g transform="translate(7.93125 314.453)scale(0.12 -0.12)">
       <use xlink:href="#DejaVuSans-31"/>
       <use x="63.623046875" xlink:href="#DejaVuSans-30"/>
       <use x="127.24609375" xlink:href="#DejaVuSans-30"/>
       <use x="190.869140625" xlink:href="#DejaVuSans-30"/>
       <use x="254.4921875" xlink:href="#DejaVuSans-30"/>
       <use x="318.115234375" xlink:href="#DejaVuSans-30"/>
       <use x="381.73828125" xlink:href="#DejaVuSans-30"/>
      </g>
     </g>
    </g>
    <g id="ytick_3">
     <g id="line2d_31">
      <g>
       <use style="stroke:#000000;stroke-width:0.5;" x="63.26125" xlink:href="#m728421d6d4" y="253.54175"/>
      </g>
     </g>
     <g id="line2d_32">
      <g>
       <use style="stroke:#000000;stroke-width:0.5;" x="509.66125" xlink:href="#mcb0005524f" y="253.54175"/>
      </g>
     </g>
     <g id="text_9">
      <!-- 2000000 -->
      <g transform="translate(7.4925 256.853)scale(0.12 -0.12)">
       <use xlink:href="#DejaVuSans-32"/>
       <use x="63.623046875" xlink:href="#DejaVuSans-30"/>
       <use x="127.24609375" xlink:href="#DejaVuSans-30"/>
       <use x="190.869140625" xlink:href="#DejaVuSans-30"/>
       <use x="254.4921875" xlink:href="#DejaVuSans-30"/>
       <use x="318.115234375" xlink:href="#DejaVuSans-30"/>
       <use x="381.73828125" xlink:href="#DejaVuSans-30"/>
      </g>
     </g>
    </g>
    <g id="ytick_4">
     <g id="line2d_33">
      <g>
       <use style="stroke:#000000;stroke-width:0.5;" x="63.26125" xlink:href="#m728421d6d4" y="195.94175"/>
      </g>
     </g>
     <g id="line2d_34">
      <g>
       <use style="stroke:#000000;stroke-width:0.5;" x="509.66125" xlink:href="#mcb0005524f" y="195.94175"/>
      </g>
     </g>
     <g id="text_10">
      <!-- 3000000 -->
      <g transform="translate(7.528125 199.253)scale(0.12 -0.12)">
       <use xlink:href="#DejaVuSans-33"/>
       <use x="63.623046875" xlink:href="#DejaVuSans-30"/>
       <use x="127.24609375" xlink:href="#DejaVuSans-30"/>
       <use x="190.869140625" xlink:href="#DejaVuSans-30"/>
       <use x="254.4921875" xlink:href="#DejaVuSans-30"/>
       <use x="318.115234375" xlink:href="#DejaVuSans-30"/>
       <use x="381.73828125" xlink:href="#DejaVuSans-30"/>
      </g>
     </g>
    </g>
    <g id="ytick_5">
     <g id="line2d_35">
      <g>
       <use style="stroke:#000000;stroke-width:0.5;" x="63.26125" xlink:href="#m728421d6d4" y="138.34175"/>
      </g>
     </g>
     <g id="line2d_36">
      <g>
       <use style="stroke:#000000;stroke-width:0.5;" x="509.66125" xlink:href="#mcb0005524f" y="138.34175"/>
      </g>
     </g>
     <g id="text_11">
      <!-- 4000000 -->
      <g transform="translate(7.2 141.653)scale(0.12 -0.12)">
       <use xlink:href="#DejaVuSans-34"/>
       <use x="63.623046875" xlink:href="#DejaVuSans-30"/>
       <use x="127.24609375" xlink:href="#DejaVuSans-30"/>
       <use x="190.869140625" xlink:href="#DejaVuSans-30"/>
       <use x="254.4921875" xlink:href="#DejaVuSans-30"/>
       <use x="318.115234375" xlink:href="#DejaVuSans-30"/>
       <use x="381.73828125" xlink:href="#DejaVuSans-30"/>
      </g>
     </g>
    </g>
    <g id="ytick_6">
     <g id="line2d_37">
      <g>
       <use style="stroke:#000000;stroke-width:0.5;" x="63.26125" xlink:href="#m728421d6d4" y="80.74175"/>
      </g>
     </g>
     <g id="line2d_38">
      <g>
       <use style="stroke:#000000;stroke-width:0.5;" x="509.66125" xlink:href="#mcb0005524f" y="80.74175"/>
      </g>
     </g>
     <g id="text_12">
      <!-- 5000000 -->
      <defs>
       <path d="
M10.7969 72.9062
L49.5156 72.9062
L49.5156 64.5938
L19.8281 64.5938
L19.8281 46.7344
Q21.9688 47.4688 24.1094 47.8281
Q26.2656 48.1875 28.4219 48.1875
Q40.625 48.1875 47.75 41.5
Q54.8906 34.8125 54.8906 23.3906
Q54.8906 11.625 47.5625 5.09375
Q40.2344 -1.42188 26.9062 -1.42188
Q22.3125 -1.42188 17.5469 -0.640625
Q12.7969 0.140625 7.71875 1.70312
L7.71875 11.625
Q12.1094 9.23438 16.7969 8.0625
Q21.4844 6.89062 26.7031 6.89062
Q35.1562 6.89062 40.0781 11.3281
Q45.0156 15.7656 45.0156 23.3906
Q45.0156 31 40.0781 35.4375
Q35.1562 39.8906 26.7031 39.8906
Q22.75 39.8906 18.8125 39.0156
Q14.8906 38.1406 10.7969 36.2812
z
" id="DejaVuSans-35"/>
      </defs>
      <g transform="translate(7.539375 84.053)scale(0.12 -0.12)">
       <use xlink:href="#DejaVuSans-35"/>
       <use x="63.623046875" xlink:href="#DejaVuSans-30"/>
       <use x="127.24609375" xlink:href="#DejaVuSans-30"/>
       <use x="190.869140625" xlink:href="#DejaVuSans-30"/>
       <use x="254.4921875" xlink:href="#DejaVuSans-30"/>
       <use x="318.115234375" xlink:href="#DejaVuSans-30"/>
       <use x="381.73828125" xlink:href="#DejaVuSans-30"/>
      </g>
     </g>
    </g>
    <g id="ytick_7">
     <g id="line2d_39">
      <g>
       <use style="stroke:#000000;stroke-width:0.5;" x="63.26125" xlink:href="#m728421d6d4" y="23.14175"/>
      </g>
     </g>
     <g id="line2d_40">
      <g>
       <use style="stroke:#000000;stroke-width:0.5;" x="509.66125" xlink:href="#mcb0005524f" y="23.14175"/>
      </g>
     </g>
     <g id="text_13">
      <!-- 6000000 -->
      <defs>
       <path d="
M33.0156 40.375
Q26.375 40.375 22.4844 35.8281
Q18.6094 31.2969 18.6094 23.3906
Q18.6094 15.5312 22.4844 10.9531
Q26.375 6.39062 33.0156 6.39062
Q39.6562 6.39062 43.5312 10.9531
Q47.4062 15.5312 47.4062 23.3906
Q47.4062 31.2969 43.5312 35.8281
Q39.6562 40.375 33.0156 40.375
M52.5938 71.2969
L52.5938 62.3125
Q48.875 64.0625 45.0938 64.9844
Q41.3125 65.9219 37.5938 65.9219
Q27.8281 65.9219 22.6719 59.3281
Q17.5312 52.7344 16.7969 39.4062
Q19.6719 43.6562 24.0156 45.9219
Q28.375 48.1875 33.5938 48.1875
Q44.5781 48.1875 50.9531 41.5156
Q57.3281 34.8594 57.3281 23.3906
Q57.3281 12.1562 50.6875 5.35938
Q44.0469 -1.42188 33.0156 -1.42188
Q20.3594 -1.42188 13.6719 8.26562
Q6.98438 17.9688 6.98438 36.375
Q6.98438 53.6562 15.1875 63.9375
Q23.3906 74.2188 37.2031 74.2188
Q40.9219 74.2188 44.7031 73.4844
Q48.4844 72.75 52.5938 71.2969" id="DejaVuSans-36"/>
      </defs>
      <g transform="translate(7.45125 26.453)scale(0.12 -0.12)">
       <use xlink:href="#DejaVuSans-36"/>
       <use x="63.623046875" xlink:href="#DejaVuSans-30"/>
       <use x="127.24609375" xlink:href="#DejaVuSans-30"/>
       <use x="190.869140625" xlink:href="#DejaVuSans-30"/>
       <use x="254.4921875" xlink:href="#DejaVuSans-30"/>
       <use x="318.115234375" xlink:href="#DejaVuSans-30"/>
       <use x="381.73828125" xlink:href="#DejaVuSans-30"/>
      </g>
     </g>
    </g>
   </g>
   <g id="text_14">
    <!-- /runtime/count/action_invocation@update_agas_cache_entry_action -->
    <defs>
     <path d="
M2.98438 54.6875
L12.5 54.6875
L29.5938 8.79688
L46.6875 54.6875
L56.2031 54.6875
L35.6875 0
L23.4844 0
z
" id="DejaVuSans-76"/>
     <path d="
M25.3906 72.9062
L33.6875 72.9062
L8.29688 -9.28125
L0 -9.28125
z
" id="DejaVuSans-2f"/>
     <path d="
M30.6094 48.3906
Q23.3906 48.3906 19.1875 42.75
Q14.9844 37.1094 14.9844 27.2969
Q14.9844 17.4844 19.1562 11.8438
Q23.3438 6.20312 30.6094 6.20312
Q37.7969 6.20312 41.9844 11.8594
Q46.1875 17.5312 46.1875 27.2969
Q46.1875 37.0156 41.9844 42.7031
Q37.7969 48.3906 30.6094 48.3906
M30.6094 56
Q42.3281 56 49.0156 48.375
Q55.7188 40.7656 55.7188 27.2969
Q55.7188 13.875 49.0156 6.21875
Q42.3281 -1.42188 30.6094 -1.42188
Q18.8438 -1.42188 12.1719 6.21875
Q5.51562 13.875 5.51562 27.2969
Q5.51562 40.7656 12.1719 48.375
Q18.8438 56 30.6094 56" id="DejaVuSans-6f"/>
     <path d="
M54.8906 33.0156
L54.8906 0
L45.9062 0
L45.9062 32.7188
Q45.9062 40.4844 42.875 44.3281
Q39.8438 48.1875 33.7969 48.1875
Q26.5156 48.1875 22.3125 43.5469
Q18.1094 38.9219 18.1094 30.9062
L18.1094 0
L9.07812 0
L9.07812 54.6875
L18.1094 54.6875
L18.1094 46.1875
Q21.3438 51.125 25.7031 53.5625
Q30.0781 56 35.7969 56
Q45.2188 56 50.0469 50.1719
Q54.8906 44.3438 54.8906 33.0156" id="DejaVuSans-6e"/>
     <path d="
M50.9844 -16.6094
L50.9844 -23.5781
L-0.984375 -23.5781
L-0.984375 -16.6094
z
" id="DejaVuSans-5f"/>
     <path d="
M18.1094 8.20312
L18.1094 -20.7969
L9.07812 -20.7969
L9.07812 54.6875
L18.1094 54.6875
L18.1094 46.3906
Q20.9531 51.2656 25.2656 53.625
Q29.5938 56 35.5938 56
Q45.5625 56 51.7812 48.0938
Q58.0156 40.1875 58.0156 27.2969
Q58.0156 14.4062 51.7812 6.48438
Q45.5625 -1.42188 35.5938 -1.42188
Q29.5938 -1.42188 25.2656 0.953125
Q20.9531 3.32812 18.1094 8.20312
M48.6875 27.2969
Q48.6875 37.2031 44.6094 42.8438
Q40.5312 48.4844 33.4062 48.4844
Q26.2656 48.4844 22.1875 42.8438
Q18.1094 37.2031 18.1094 27.2969
Q18.1094 17.3906 22.1875 11.75
Q26.2656 6.10938 33.4062 6.10938
Q40.5312 6.10938 44.6094 11.75
Q48.6875 17.3906 48.6875 27.2969" id="DejaVuSans-70"/>
     <path d="
M32.1719 -5.07812
Q28.375 -14.8438 24.75 -17.8125
Q21.1406 -20.7969 15.0938 -20.7969
L7.90625 -20.7969
L7.90625 -13.2812
L13.1875 -13.2812
Q16.8906 -13.2812 18.9375 -11.5156
Q21 -9.76562 23.4844 -3.21875
L25.0938 0.875
L2.98438 54.6875
L12.5 54.6875
L29.5938 11.9219
L46.6875 54.6875
L56.2031 54.6875
z
" id="DejaVuSans-79"/>
     <path d="
M37.2031 26.2188
Q37.2031 19.2344 40.6719 15.25
Q44.1406 11.2812 50.2031 11.2812
Q56.2031 11.2812 59.6406 15.2812
Q63.0938 19.2812 63.0938 26.2188
Q63.0938 33.0625 59.5781 37.0781
Q56.0625 41.1094 50.0938 41.1094
Q44.1875 41.1094 40.6875 37.1094
Q37.2031 33.1094 37.2031 26.2188
M63.8125 11.625
Q60.8906 7.85938 57.1094 6.07812
Q53.3281 4.29688 48.2969 4.29688
Q39.8906 4.29688 34.6406 10.375
Q29.3906 16.4531 29.3906 26.2188
Q29.3906 35.9844 34.6562 42.0781
Q39.9375 48.1875 48.2969 48.1875
Q53.3281 48.1875 57.125 46.3594
Q60.9375 44.5312 63.8125 40.8281
L63.8125 47.2188
L70.7969 47.2188
L70.7969 11.2812
Q77.9375 12.3594 81.9531 17.7969
Q85.9844 23.25 85.9844 31.8906
Q85.9844 37.1094 84.4375 41.7031
Q82.9062 46.2969 79.7812 50.2031
Q74.7031 56.5938 67.4062 59.9844
Q60.1094 63.375 51.5156 63.375
Q45.5156 63.375 39.9844 61.7812
Q34.4688 60.2031 29.7812 57.0781
Q22.125 52.0938 17.7969 44.0156
Q13.4844 35.9375 13.4844 26.5156
Q13.4844 18.75 16.2812 11.9531
Q19.0938 5.17188 24.4219 0
Q29.5469 -5.07812 36.2812 -7.73438
Q43.0156 -10.4062 50.6875 -10.4062
Q56.9844 -10.4062 63.0625 -8.28125
Q69.1406 -6.15625 74.2188 -2.20312
L78.6094 -7.625
Q72.5156 -12.3594 65.3125 -14.875
Q58.1094 -17.3906 50.6875 -17.3906
Q41.6562 -17.3906 33.6406 -14.1875
Q25.6406 -10.9844 19.3906 -4.89062
Q13.1406 1.21875 9.85938 9.25
Q6.59375 17.2812 6.59375 26.5156
Q6.59375 35.4062 9.90625 43.4531
Q13.2344 51.5156 19.3906 57.625
Q25.6875 63.8125 33.9375 67.1094
Q42.1875 70.4062 51.4219 70.4062
Q61.7656 70.4062 70.625 66.1562
Q79.5 61.9219 85.5 54.1094
Q89.1562 49.3125 91.0781 43.7031
Q93.0156 38.0938 93.0156 32.0781
Q93.0156 19.2344 85.25 11.8125
Q77.4844 4.39062 63.8125 4.10938
z
" id="DejaVuSans-40"/>
     <path d="
M54.8906 33.0156
L54.8906 0
L45.9062 0
L45.9062 32.7188
Q45.9062 40.4844 42.875 44.3281
Q39.8438 48.1875 33.7969 48.1875
Q26.5156 48.1875 22.3125 43.5469
Q18.1094 38.9219 18.1094 30.9062
L18.1094 0
L9.07812 0
L9.07812 75.9844
L18.1094 75.9844
L18.1094 46.1875
Q21.3438 51.125 25.7031 53.5625
Q30.0781 56 35.7969 56
Q45.2188 56 50.0469 50.1719
Q54.8906 44.3438 54.8906 33.0156" id="DejaVuSans-68"/>
     <path d="
M8.5 21.5781
L8.5 54.6875
L17.4844 54.6875
L17.4844 21.9219
Q17.4844 14.1562 20.5 10.2656
Q23.5312 6.39062 29.5938 6.39062
Q36.8594 6.39062 41.0781 11.0312
Q45.3125 15.6719 45.3125 23.6875
L45.3125 54.6875
L54.2969 54.6875
L54.2969 0
L45.3125 0
L45.3125 8.40625
Q42.0469 3.42188 37.7188 1
Q33.4062 -1.42188 27.6875 -1.42188
Q18.2656 -1.42188 13.375 4.4375
Q8.5 10.2969 8.5 21.5781
M31.1094 56
z
" id="DejaVuSans-75"/>
     <path d="
M45.4062 27.9844
Q45.4062 37.75 41.375 43.1094
Q37.3594 48.4844 30.0781 48.4844
Q22.8594 48.4844 18.8281 43.1094
Q14.7969 37.75 14.7969 27.9844
Q14.7969 18.2656 18.8281 12.8906
Q22.8594 7.51562 30.0781 7.51562
Q37.3594 7.51562 41.375 12.8906
Q45.4062 18.2656 45.4062 27.9844
M54.3906 6.78125
Q54.3906 -7.17188 48.1875 -13.9844
Q42 -20.7969 29.2031 -20.7969
Q24.4688 -20.7969 20.2656 -20.0938
Q16.0625 -19.3906 12.1094 -17.9219
L12.1094 -9.1875
Q16.0625 -11.3281 19.9219 -12.3438
Q23.7812 -13.375 27.7812 -13.375
Q36.625 -13.375 41.0156 -8.76562
Q45.4062 -4.15625 45.4062 5.17188
L45.4062 9.625
Q42.625 4.78125 38.2812 2.39062
Q33.9375 0 27.875 0
Q17.8281 0 11.6719 7.65625
Q5.51562 15.3281 5.51562 27.9844
Q5.51562 40.6719 11.6719 48.3281
Q17.8281 56 27.875 56
Q33.9375 56 38.2812 53.6094
Q42.625 51.2188 45.4062 46.3906
L45.4062 54.6875
L54.3906 54.6875
z
" id="DejaVuSans-67"/>
     <path d="
M45.4062 46.3906
L45.4062 75.9844
L54.3906 75.9844
L54.3906 0
L45.4062 0
L45.4062 8.20312
Q42.5781 3.32812 38.25 0.953125
Q33.9375 -1.42188 27.875 -1.42188
Q17.9688 -1.42188 11.7344 6.48438
Q5.51562 14.4062 5.51562 27.2969
Q5.51562 40.1875 11.7344 48.0938
Q17.9688 56 27.875 56
Q33.9375 56 38.25 53.625
Q42.5781 51.2656 45.4062 46.3906
M14.7969 27.2969
Q14.7969 17.3906 18.875 11.75
Q22.9531 6.10938 30.0781 6.10938
Q37.2031 6.10938 41.2969 11.75
Q45.4062 17.3906 45.4062 27.2969
Q45.4062 37.2031 41.2969 42.8438
Q37.2031 48.4844 30.0781 48.4844
Q22.9531 48.4844 18.875 42.8438
Q14.7969 37.2031 14.7969 27.2969" id="DejaVuSans-64"/>
     <path d="
M34.2812 27.4844
Q23.3906 27.4844 19.1875 25
Q14.9844 22.5156 14.9844 16.5
Q14.9844 11.7188 18.1406 8.90625
Q21.2969 6.10938 26.7031 6.10938
Q34.1875 6.10938 38.7031 11.4062
Q43.2188 16.7031 43.2188 25.4844
L43.2188 27.4844
z

M52.2031 31.2031
L52.2031 0
L43.2188 0
L43.2188 8.29688
Q40.1406 3.32812 35.5469 0.953125
Q30.9531 -1.42188 24.3125 -1.42188
Q15.9219 -1.42188 10.9531 3.29688
Q6 8.01562 6 15.9219
Q6 25.1406 12.1719 29.8281
Q18.3594 34.5156 30.6094 34.5156
L43.2188 34.5156
L43.2188 35.4062
Q43.2188 41.6094 39.1406 45
Q35.0625 48.3906 27.6875 48.3906
Q23 48.3906 18.5469 47.2656
Q14.1094 46.1406 10.0156 43.8906
L10.0156 52.2031
Q14.9375 54.1094 19.5781 55.0469
Q24.2188 56 28.6094 56
Q40.4844 56 46.3438 49.8438
Q52.2031 43.7031 52.2031 31.2031" id="DejaVuSans-61"/>
     <path d="
M48.7812 52.5938
L48.7812 44.1875
Q44.9688 46.2969 41.1406 47.3438
Q37.3125 48.3906 33.4062 48.3906
Q24.6562 48.3906 19.8125 42.8438
Q14.9844 37.3125 14.9844 27.2969
Q14.9844 17.2812 19.8125 11.7344
Q24.6562 6.20312 33.4062 6.20312
Q37.3125 6.20312 41.1406 7.25
Q44.9688 8.29688 48.7812 10.4062
L48.7812 2.09375
Q45.0156 0.34375 40.9844 -0.53125
Q36.9688 -1.42188 32.4219 -1.42188
Q20.0625 -1.42188 12.7812 6.34375
Q5.51562 14.1094 5.51562 27.2969
Q5.51562 40.6719 12.8594 48.3281
Q20.2188 56 33.0156 56
Q37.1562 56 41.1094 55.1406
Q45.0625 54.2969 48.7812 52.5938" id="DejaVuSans-63"/>
     <path d="
M44.2812 53.0781
L44.2812 44.5781
Q40.4844 46.5312 36.375 47.5
Q32.2812 48.4844 27.875 48.4844
Q21.1875 48.4844 17.8438 46.4375
Q14.5 44.3906 14.5 40.2812
Q14.5 37.1562 16.8906 35.375
Q19.2812 33.5938 26.5156 31.9844
L29.5938 31.2969
Q39.1562 29.25 43.1875 25.5156
Q47.2188 21.7812 47.2188 15.0938
Q47.2188 7.46875 41.1875 3.01562
Q35.1562 -1.42188 24.6094 -1.42188
Q20.2188 -1.42188 15.4531 -0.5625
Q10.6875 0.296875 5.42188 2
L5.42188 11.2812
Q10.4062 8.6875 15.2344 7.39062
Q20.0625 6.10938 24.8125 6.10938
Q31.1562 6.10938 34.5625 8.28125
Q37.9844 10.4531 37.9844 14.4062
Q37.9844 18.0625 35.5156 20.0156
Q33.0625 21.9688 24.7031 23.7812
L21.5781 24.5156
Q13.2344 26.2656 9.51562 29.9062
Q5.8125 33.5469 5.8125 39.8906
Q5.8125 47.6094 11.2812 51.7969
Q16.75 56 26.8125 56
Q31.7812 56 36.1719 55.2656
Q40.5781 54.5469 44.2812 53.0781" id="DejaVuSans-73"/>
     <path d="
M41.1094 46.2969
Q39.5938 47.1719 37.8125 47.5781
Q36.0312 48 33.8906 48
Q26.2656 48 22.1875 43.0469
Q18.1094 38.0938 18.1094 28.8125
L18.1094 0
L9.07812 0
L9.07812 54.6875
L18.1094 54.6875
L18.1094 46.1875
Q20.9531 51.1719 25.4844 53.5781
Q30.0312 56 36.5312 56
Q37.4531 56 38.5781 55.875
Q39.7031 55.7656 41.0625 55.5156
z
" id="DejaVuSans-72"/>
    </defs>
    <g transform="translate(41.336125 18.14175)scale(0.144 -0.144)">
     <use xlink:href="#DejaVuSans-2f"/>
     <use x="33.69140625" xlink:href="#DejaVuSans-72"/>
     <use x="74.8046875" xlink:href="#DejaVuSans-75"/>
     <use x="138.18359375" xlink:href="#DejaVuSans-6e"/>
     <use x="201.5625" xlink:href="#DejaVuSans-74"/>
     <use x="240.771484375" xlink:href="#DejaVuSans-69"/>
     <use x="268.5546875" xlink:href="#DejaVuSans-6d"/>
     <use x="365.966796875" xlink:href="#DejaVuSans-65"/>
     <use x="427.490234375" xlink:href="#DejaVuSans-2f"/>
     <use x="461.181640625" xlink:href="#DejaVuSans-63"/>
     <use x="516.162109375" xlink:href="#DejaVuSans-6f"/>
     <use x="577.34375" xlink:href="#DejaVuSans-75"/>
     <use x="640.72265625" xlink:href="#DejaVuSans-6e"/>
     <use x="704.1015625" xlink:href="#DejaVuSans-74"/>
     <use x="743.310546875" xlink:href="#DejaVuSans-2f"/>
     <use x="777.001953125" xlink:href="#DejaVuSans-61"/>
     <use x="838.28125" xlink:href="#DejaVuSans-63"/>
     <use x="893.26171875" xlink:href="#DejaVuSans-74"/>
     <use x="932.470703125" xlink:href="#DejaVuSans-69"/>
     <use x="960.25390625" xlink:href="#DejaVuSans-6f"/>
     <use x="1021.43554688" xlink:href="#DejaVuSans-6e"/>
     <use x="1084.81445312" xlink:href="#DejaVuSans-5f"/>
     <use x="1134.81445312" xlink:href="#DejaVuSans-69"/>
     <use x="1162.59765625" xlink:href="#DejaVuSans-6e"/>
     <use x="1225.9765625" xlink:href="#DejaVuSans-76"/>
     <use x="1285.15625" xlink:href="#DejaVuSans-6f"/>
     <use x="1346.33789062" xlink:href="#DejaVuSans-63"/>
     <use x="1401.31835938" xlink:href="#DejaVuSans-61"/>
     <use x="1462.59765625" xlink:href="#DejaVuSans-74"/>
     <use x="1501.80664062" xlink:href="#DejaVuSans-69"/>
     <use x="1529.58984375" xlink:href="#DejaVuSans-6f"/>
     <use x="1590.77148438" xlink:href="#DejaVuSans-6e"/>
     <use x="1654.15039062" xlink:href="#DejaVuSans-40"/>
     <use x="1754.15039062" xlink:href="#DejaVuSans-75"/>
     <use x="1817.52929688" xlink:href="#DejaVuSans-70"/>
     <use x="1881.00585938" xlink:href="#DejaVuSans-64"/>
     <use x="1944.48242188" xlink:href="#DejaVuSans-61"/>
     <use x="2005.76171875" xlink:href="#DejaVuSans-74"/>
     <use x="2044.97070312" xlink:href="#DejaVuSans-65"/>
     <use x="2106.49414062" xlink:href="#DejaVuSans-5f"/>
     <use x="2156.49414062" xlink:href="#DejaVuSans-61"/>
     <use x="2217.7734375" xlink:href="#DejaVuSans-67"/>
     <use x="2281.25" xlink:href="#DejaVuSans-61"/>
     <use x="2342.52929688" xlink:href="#DejaVuSans-73"/>
     <use x="2394.62890625" xlink:href="#DejaVuSans-5f"/>
     <use x="2444.62890625" xlink:href="#DejaVuSans-63"/>
     <use x="2499.609375" xlink:href="#DejaVuSans-61"/>
     <use x="2560.88867188" xlink:href="#DejaVuSans-63"/>
     <use x="2615.86914062" xlink:href="#DejaVuSans-68"/>
     <use x="2679.24804688" xlink:href="#DejaVuSans-65"/>
     <use x="2740.77148438" xlink:href="#DejaVuSans-5f"/>
     <use x="2790.77148438" xlink:href="#DejaVuSans-65"/>
     <use x="2852.29492188" xlink:href="#DejaVuSans-6e"/>
     <use x="2915.67382812" xlink:href="#DejaVuSans-74"/>
     <use x="2954.8828125" xlink:href="#DejaVuSans-72"/>
     <use x="2995.99609375" xlink:href="#DejaVuSans-79"/>
     <use x="3055.17578125" xlink:href="#DejaVuSans-5f"/>
     <use x="3105.17578125" xlink:href="#DejaVuSans-61"/>
     <use x="3166.45507812" xlink:href="#DejaVuSans-63"/>
     <use x="3221.43554688" xlink:href="#DejaVuSans-74"/>
     <use x="3260.64453125" xlink:href="#DejaVuSans-69"/>
     <use x="3288.42773438" xlink:href="#DejaVuSans-6f"/>
     <use x="3349.609375" xlink:href="#DejaVuSans-6e"/>
    </g>
   </g>
   <g id="legend_1">
    <g id="patch_7">
     <path d="
M516.861 367.194
L648.65 367.194
L648.65 24.6897
L516.861 24.6897
z
" style="fill:#ffffff;stroke:#000000;stroke-linejoin:miter;"/>
    </g>
    <g id="line2d_41">
     <path d="
M526.941 36.3515
L547.101 36.3515" style="fill:none;stroke:#0000ff;stroke-linecap:square;"/>
    </g>
    <g id="line2d_42"/>
    <g id="text_15">
     <!-- locality#0 -->
     <defs>
      <path d="
M51.125 44
L36.9219 44
L32.8125 27.6875
L47.125 27.6875
z

M43.7969 71.7812
L38.7188 51.5156
L52.9844 51.5156
L58.1094 71.7812
L65.9219 71.7812
L60.8906 51.5156
L76.125 51.5156
L76.125 44
L58.9844 44
L54.9844 27.6875
L70.5156 27.6875
L70.5156 20.2188
L53.0781 20.2188
L48 0
L40.1875 0
L45.2188 20.2188
L30.9062 20.2188
L25.875 0
L18.0156 0
L23.0938 20.2188
L7.71875 20.2188
L7.71875 27.6875
L24.9062 27.6875
L29 44
L13.2812 44
L13.2812 51.5156
L30.9062 51.5156
L35.8906 71.7812
z
" id="DejaVuSans-23"/>
      <path d="
M9.42188 75.9844
L18.4062 75.9844
L18.4062 0
L9.42188 0
z
" id="DejaVuSans-6c"/>
     </defs>
     <g transform="translate(562.94125 41.3915)scale(0.144 -0.144)">
      <use xlink:href="#DejaVuSans-6c"/>
      <use x="27.783203125" xlink:href="#DejaVuSans-6f"/>
      <use x="88.96484375" xlink:href="#DejaVuSans-63"/>
      <use x="143.9453125" xlink:href="#DejaVuSans-61"/>
      <use x="205.224609375" xlink:href="#DejaVuSans-6c"/>
      <use x="233.0078125" xlink:href="#DejaVuSans-69"/>
      <use x="260.791015625" xlink:href="#DejaVuSans-74"/>
      <use x="300.0" xlink:href="#DejaVuSans-79"/>
      <use x="359.1796875" xlink:href="#DejaVuSans-23"/>
      <use x="442.96875" xlink:href="#DejaVuSans-30"/>
     </g>
    </g>
    <g id="line2d_43">
     <path d="
M526.941 57.488
L547.101 57.488" style="fill:none;stroke:#008000;stroke-linecap:square;"/>
    </g>
    <g id="line2d_44"/>
    <g id="text_16">
     <!-- locality#1 -->
     <g transform="translate(562.94125 62.528)scale(0.144 -0.144)">
      <use xlink:href="#DejaVuSans-6c"/>
      <use x="27.783203125" xlink:href="#DejaVuSans-6f"/>
      <use x="88.96484375" xlink:href="#DejaVuSans-63"/>
      <use x="143.9453125" xlink:href="#DejaVuSans-61"/>
      <use x="205.224609375" xlink:href="#DejaVuSans-6c"/>
      <use x="233.0078125" xlink:href="#DejaVuSans-69"/>
      <use x="260.791015625" xlink:href="#DejaVuSans-74"/>
      <use x="300.0" xlink:href="#DejaVuSans-79"/>
      <use x="359.1796875" xlink:href="#DejaVuSans-23"/>
      <use x="442.96875" xlink:href="#DejaVuSans-31"/>
     </g>
    </g>
    <g id="line2d_45">
     <path d="
M526.941 78.6245
L547.101 78.6245" style="fill:none;stroke:#ff0000;stroke-linecap:square;"/>
    </g>
    <g id="line2d_46"/>
    <g id="text_17">
     <!-- locality#10 -->
     <g transform="translate(562.94125 83.6645)scale(0.144 -0.144)">
      <use xlink:href="#DejaVuSans-6c"/>
      <use x="27.783203125" xlink:href="#DejaVuSans-6f"/>
      <use x="88.96484375" xlink:href="#DejaVuSans-63"/>
      <use x="143.9453125" xlink:href="#DejaVuSans-61"/>
      <use x="205.224609375" xlink:href="#DejaVuSans-6c"/>
      <use x="233.0078125" xlink:href="#DejaVuSans-69"/>
      <use x="260.791015625" xlink:href="#DejaVuSans-74"/>
      <use x="300.0" xlink:href="#DejaVuSans-79"/>
      <use x="359.1796875" xlink:href="#DejaVuSans-23"/>
      <use x="442.96875" xlink:href="#DejaVuSans-31"/>
      <use x="506.591796875" xlink:href="#DejaVuSans-30"/>
     </g>
    </g>
    <g id="line2d_47">
     <path d="
M526.941 99.761
L547.101 99.761" style="fill:none;stroke:#00bfbf;stroke-linecap:square;"/>
    </g>
    <g id="line2d_48"/>
    <g id="text_18">
     <!-- locality#11 -->
     <g transform="translate(562.94125 104.801)scale(0.144 -0.144)">
      <use xlink:href="#DejaVuSans-6c"/>
      <use x="27.783203125" xlink:href="#DejaVuSans-6f"/>
      <use x="88.96484375" xlink:href="#DejaVuSans-63"/>
      <use x="143.9453125" xlink:href="#DejaVuSans-61"/>
      <use x="205.224609375" xlink:href="#DejaVuSans-6c"/>
      <use x="233.0078125" xlink:href="#DejaVuSans-69"/>
      <use x="260.791015625" xlink:href="#DejaVuSans-74"/>
      <use x="300.0" xlink:href="#DejaVuSans-79"/>
      <use x="359.1796875" xlink:href="#DejaVuSans-23"/>
      <use x="442.96875" xlink:href="#DejaVuSans-31"/>
      <use x="506.591796875" xlink:href="#DejaVuSans-31"/>
     </g>
    </g>
    <g id="line2d_49">
     <path d="
M526.941 120.897
L547.101 120.897" style="fill:none;stroke:#bf00bf;stroke-linecap:square;"/>
    </g>
    <g id="line2d_50"/>
    <g id="text_19">
     <!-- locality#12 -->
     <g transform="translate(562.94125 125.9375)scale(0.144 -0.144)">
      <use xlink:href="#DejaVuSans-6c"/>
      <use x="27.783203125" xlink:href="#DejaVuSans-6f"/>
      <use x="88.96484375" xlink:href="#DejaVuSans-63"/>
      <use x="143.9453125" xlink:href="#DejaVuSans-61"/>
      <use x="205.224609375" xlink:href="#DejaVuSans-6c"/>
      <use x="233.0078125" xlink:href="#DejaVuSans-69"/>
      <use x="260.791015625" xlink:href="#DejaVuSans-74"/>
      <use x="300.0" xlink:href="#DejaVuSans-79"/>
      <use x="359.1796875" xlink:href="#DejaVuSans-23"/>
      <use x="442.96875" xlink:href="#DejaVuSans-31"/>
      <use x="506.591796875" xlink:href="#DejaVuSans-32"/>
     </g>
    </g>
    <g id="line2d_51">
     <path d="
M526.941 142.034
L547.101 142.034" style="fill:none;stroke:#bfbf00;stroke-linecap:square;"/>
    </g>
    <g id="line2d_52"/>
    <g id="text_20">
     <!-- locality#13 -->
     <g transform="translate(562.94125 147.074)scale(0.144 -0.144)">
      <use xlink:href="#DejaVuSans-6c"/>
      <use x="27.783203125" xlink:href="#DejaVuSans-6f"/>
      <use x="88.96484375" xlink:href="#DejaVuSans-63"/>
      <use x="143.9453125" xlink:href="#DejaVuSans-61"/>
      <use x="205.224609375" xlink:href="#DejaVuSans-6c"/>
      <use x="233.0078125" xlink:href="#DejaVuSans-69"/>
      <use x="260.791015625" xlink:href="#DejaVuSans-74"/>
      <use x="300.0" xlink:href="#DejaVuSans-79"/>
      <use x="359.1796875" xlink:href="#DejaVuSans-23"/>
      <use x="442.96875" xlink:href="#DejaVuSans-31"/>
      <use x="506.591796875" xlink:href="#DejaVuSans-33"/>
     </g>
    </g>
    <g id="line2d_53">
     <path d="
M526.941 163.17
L547.101 163.17" style="fill:none;stroke:#000000;stroke-linecap:square;"/>
    </g>
    <g id="line2d_54"/>
    <g id="text_21">
     <!-- locality#14 -->
     <g transform="translate(562.94125 168.2105)scale(0.144 -0.144)">
      <use xlink:href="#DejaVuSans-6c"/>
      <use x="27.783203125" xlink:href="#DejaVuSans-6f"/>
      <use x="88.96484375" xlink:href="#DejaVuSans-63"/>
      <use x="143.9453125" xlink:href="#DejaVuSans-61"/>
      <use x="205.224609375" xlink:href="#DejaVuSans-6c"/>
      <use x="233.0078125" xlink:href="#DejaVuSans-69"/>
      <use x="260.791015625" xlink:href="#DejaVuSans-74"/>
      <use x="300.0" xlink:href="#DejaVuSans-79"/>
      <use x="359.1796875" xlink:href="#DejaVuSans-23"/>
      <use x="442.96875" xlink:href="#DejaVuSans-31"/>
      <use x="506.591796875" xlink:href="#DejaVuSans-34"/>
     </g>
    </g>
    <g id="line2d_55">
     <path d="
M526.941 184.307
L547.101 184.307" style="fill:none;stroke:#0000ff;stroke-linecap:square;"/>
    </g>
    <g id="line2d_56"/>
    <g id="text_22">
     <!-- locality#15 -->
     <g transform="translate(562.94125 189.347)scale(0.144 -0.144)">
      <use xlink:href="#DejaVuSans-6c"/>
      <use x="27.783203125" xlink:href="#DejaVuSans-6f"/>
      <use x="88.96484375" xlink:href="#DejaVuSans-63"/>
      <use x="143.9453125" xlink:href="#DejaVuSans-61"/>
      <use x="205.224609375" xlink:href="#DejaVuSans-6c"/>
      <use x="233.0078125" xlink:href="#DejaVuSans-69"/>
      <use x="260.791015625" xlink:href="#DejaVuSans-74"/>
      <use x="300.0" xlink:href="#DejaVuSans-79"/>
      <use x="359.1796875" xlink:href="#DejaVuSans-23"/>
      <use x="442.96875" xlink:href="#DejaVuSans-31"/>
      <use x="506.591796875" xlink:href="#DejaVuSans-35"/>
     </g>
    </g>
    <g id="line2d_57">
     <path d="
M526.941 205.443
L547.101 205.443" style="fill:none;stroke:#008000;stroke-linecap:square;"/>
    </g>
    <g id="line2d_58"/>
    <g id="text_23">
     <!-- locality#2 -->
     <g transform="translate(562.94125 210.4835)scale(0.144 -0.144)">
      <use xlink:href="#DejaVuSans-6c"/>
      <use x="27.783203125" xlink:href="#DejaVuSans-6f"/>
      <use x="88.96484375" xlink:href="#DejaVuSans-63"/>
      <use x="143.9453125" xlink:href="#DejaVuSans-61"/>
      <use x="205.224609375" xlink:href="#DejaVuSans-6c"/>
      <use x="233.0078125" xlink:href="#DejaVuSans-69"/>
      <use x="260.791015625" xlink:href="#DejaVuSans-74"/>
      <use x="300.0" xlink:href="#DejaVuSans-79"/>
      <use x="359.1796875" xlink:href="#DejaVuSans-23"/>
      <use x="442.96875" xlink:href="#DejaVuSans-32"/>
     </g>
    </g>
    <g id="line2d_59">
     <path d="
M526.941 226.58
L547.101 226.58" style="fill:none;stroke:#ff0000;stroke-linecap:square;"/>
    </g>
    <g id="line2d_60"/>
    <g id="text_24">
     <!-- locality#3 -->
     <g transform="translate(562.94125 231.62)scale(0.144 -0.144)">
      <use xlink:href="#DejaVuSans-6c"/>
      <use x="27.783203125" xlink:href="#DejaVuSans-6f"/>
      <use x="88.96484375" xlink:href="#DejaVuSans-63"/>
      <use x="143.9453125" xlink:href="#DejaVuSans-61"/>
      <use x="205.224609375" xlink:href="#DejaVuSans-6c"/>
      <use x="233.0078125" xlink:href="#DejaVuSans-69"/>
      <use x="260.791015625" xlink:href="#DejaVuSans-74"/>
      <use x="300.0" xlink:href="#DejaVuSans-79"/>
      <use x="359.1796875" xlink:href="#DejaVuSans-23"/>
      <use x="442.96875" xlink:href="#DejaVuSans-33"/>
     </g>
    </g>
    <g id="line2d_61">
     <path d="
M526.941 247.716
L547.101 247.716" style="fill:none;stroke:#00bfbf;stroke-linecap:square;"/>
    </g>
    <g id="line2d_62"/>
    <g id="text_25">
     <!-- locality#4 -->
     <g transform="translate(562.94125 252.7565)scale(0.144 -0.144)">
      <use xlink:href="#DejaVuSans-6c"/>
      <use x="27.783203125" xlink:href="#DejaVuSans-6f"/>
      <use x="88.96484375" xlink:href="#DejaVuSans-63"/>
      <use x="143.9453125" xlink:href="#DejaVuSans-61"/>
      <use x="205.224609375" xlink:href="#DejaVuSans-6c"/>
      <use x="233.0078125" xlink:href="#DejaVuSans-69"/>
      <use x="260.791015625" xlink:href="#DejaVuSans-74"/>
      <use x="300.0" xlink:href="#DejaVuSans-79"/>
      <use x="359.1796875" xlink:href="#DejaVuSans-23"/>
      <use x="442.96875" xlink:href="#DejaVuSans-34"/>
     </g>
    </g>
    <g id="line2d_63">
     <path d="
M526.941 268.853
L547.101 268.853" style="fill:none;stroke:#bf00bf;stroke-linecap:square;"/>
    </g>
    <g id="line2d_64"/>
    <g id="text_26">
     <!-- locality#5 -->
     <g transform="translate(562.94125 273.893)scale(0.144 -0.144)">
      <use xlink:href="#DejaVuSans-6c"/>
      <use x="27.783203125" xlink:href="#DejaVuSans-6f"/>
      <use x="88.96484375" xlink:href="#DejaVuSans-63"/>
      <use x="143.9453125" xlink:href="#DejaVuSans-61"/>
      <use x="205.224609375" xlink:href="#DejaVuSans-6c"/>
      <use x="233.0078125" xlink:href="#DejaVuSans-69"/>
      <use x="260.791015625" xlink:href="#DejaVuSans-74"/>
      <use x="300.0" xlink:href="#DejaVuSans-79"/>
      <use x="359.1796875" xlink:href="#DejaVuSans-23"/>
      <use x="442.96875" xlink:href="#DejaVuSans-35"/>
     </g>
    </g>
    <g id="line2d_65">
     <path d="
M526.941 289.989
L547.101 289.989" style="fill:none;stroke:#bfbf00;stroke-linecap:square;"/>
    </g>
    <g id="line2d_66"/>
    <g id="text_27">
     <!-- locality#6 -->
     <g transform="translate(562.94125 295.0295)scale(0.144 -0.144)">
      <use xlink:href="#DejaVuSans-6c"/>
      <use x="27.783203125" xlink:href="#DejaVuSans-6f"/>
      <use x="88.96484375" xlink:href="#DejaVuSans-63"/>
      <use x="143.9453125" xlink:href="#DejaVuSans-61"/>
      <use x="205.224609375" xlink:href="#DejaVuSans-6c"/>
      <use x="233.0078125" xlink:href="#DejaVuSans-69"/>
      <use x="260.791015625" xlink:href="#DejaVuSans-74"/>
      <use x="300.0" xlink:href="#DejaVuSans-79"/>
      <use x="359.1796875" xlink:href="#DejaVuSans-23"/>
      <use x="442.96875" xlink:href="#DejaVuSans-36"/>
     </g>
    </g>
    <g id="line2d_67">
     <path d="
M526.941 311.126
L547.101 311.126" style="fill:none;stroke:#000000;stroke-linecap:square;"/>
    </g>
    <g id="line2d_68"/>
    <g id="text_28">
     <!-- locality#7 -->
     <defs>
      <path d="
M8.20312 72.9062
L55.0781 72.9062
L55.0781 68.7031
L28.6094 0
L18.3125 0
L43.2188 64.5938
L8.20312 64.5938
z
" id="DejaVuSans-37"/>
     </defs>
     <g transform="translate(562.94125 316.166)scale(0.144 -0.144)">
      <use xlink:href="#DejaVuSans-6c"/>
      <use x="27.783203125" xlink:href="#DejaVuSans-6f"/>
      <use x="88.96484375" xlink:href="#DejaVuSans-63"/>
      <use x="143.9453125" xlink:href="#DejaVuSans-61"/>
      <use x="205.224609375" xlink:href="#DejaVuSans-6c"/>
      <use x="233.0078125" xlink:href="#DejaVuSans-69"/>
      <use x="260.791015625" xlink:href="#DejaVuSans-74"/>
      <use x="300.0" xlink:href="#DejaVuSans-79"/>
      <use x="359.1796875" xlink:href="#DejaVuSans-23"/>
      <use x="442.96875" xlink:href="#DejaVuSans-37"/>
     </g>
    </g>
    <g id="line2d_69">
     <path d="
M526.941 332.262
L547.101 332.262" style="fill:none;stroke:#0000ff;stroke-linecap:square;"/>
    </g>
    <g id="line2d_70"/>
    <g id="text_29">
     <!-- locality#8 -->
     <defs>
      <path d="
M31.7812 34.625
Q24.75 34.625 20.7188 30.8594
Q16.7031 27.0938 16.7031 20.5156
Q16.7031 13.9219 20.7188 10.1562
Q24.75 6.39062 31.7812 6.39062
Q38.8125 6.39062 42.8594 10.1719
Q46.9219 13.9688 46.9219 20.5156
Q46.9219 27.0938 42.8906 30.8594
Q38.875 34.625 31.7812 34.625
M21.9219 38.8125
Q15.5781 40.375 12.0312 44.7188
Q8.5 49.0781 8.5 55.3281
Q8.5 64.0625 14.7188 69.1406
Q20.9531 74.2188 31.7812 74.2188
Q42.6719 74.2188 48.875 69.1406
Q55.0781 64.0625 55.0781 55.3281
Q55.0781 49.0781 51.5312 44.7188
Q48 40.375 41.7031 38.8125
Q48.8281 37.1562 52.7969 32.3125
Q56.7812 27.4844 56.7812 20.5156
Q56.7812 9.90625 50.3125 4.23438
Q43.8438 -1.42188 31.7812 -1.42188
Q19.7344 -1.42188 13.25 4.23438
Q6.78125 9.90625 6.78125 20.5156
Q6.78125 27.4844 10.7812 32.3125
Q14.7969 37.1562 21.9219 38.8125
M18.3125 54.3906
Q18.3125 48.7344 21.8438 45.5625
Q25.3906 42.3906 31.7812 42.3906
Q38.1406 42.3906 41.7188 45.5625
Q45.3125 48.7344 45.3125 54.3906
Q45.3125 60.0625 41.7188 63.2344
Q38.1406 66.4062 31.7812 66.4062
Q25.3906 66.4062 21.8438 63.2344
Q18.3125 60.0625 18.3125 54.3906" id="DejaVuSans-38"/>
     </defs>
     <g transform="translate(562.94125 337.3025)scale(0.144 -0.144)">
      <use xlink:href="#DejaVuSans-6c"/>
      <use x="27.783203125" xlink:href="#DejaVuSans-6f"/>
      <use x="88.96484375" xlink:href="#DejaVuSans-63"/>
      <use x="143.9453125" xlink:href="#DejaVuSans-61"/>
      <use x="205.224609375" xlink:href="#DejaVuSans-6c"/>
      <use x="233.0078125" xlink:href="#DejaVuSans-69"/>
      <use x="260.791015625" xlink:href="#DejaVuSans-74"/>
      <use x="300.0" xlink:href="#DejaVuSans-79"/>
      <use x="359.1796875" xlink:href="#DejaVuSans-23"/>
      <use x="442.96875" xlink:href="#DejaVuSans-38"/>
     </g>
    </g>
    <g id="line2d_71">
     <path d="
M526.941 353.399
L547.101 353.399" style="fill:none;stroke:#008000;stroke-linecap:square;"/>
    </g>
    <g id="line2d_72"/>
    <g id="text_30">
     <!-- locality#9 -->
     <defs>
      <path d="
M10.9844 1.51562
L10.9844 10.5
Q14.7031 8.73438 18.5 7.8125
Q22.3125 6.89062 25.9844 6.89062
Q35.75 6.89062 40.8906 13.4531
Q46.0469 20.0156 46.7812 33.4062
Q43.9531 29.2031 39.5938 26.9531
Q35.25 24.7031 29.9844 24.7031
Q19.0469 24.7031 12.6719 31.3125
Q6.29688 37.9375 6.29688 49.4219
Q6.29688 60.6406 12.9375 67.4219
Q19.5781 74.2188 30.6094 74.2188
Q43.2656 74.2188 49.9219 64.5156
Q56.5938 54.8281 56.5938 36.375
Q56.5938 19.1406 48.4062 8.85938
Q40.2344 -1.42188 26.4219 -1.42188
Q22.7031 -1.42188 18.8906 -0.6875
Q15.0938 0.046875 10.9844 1.51562
M30.6094 32.4219
Q37.25 32.4219 41.125 36.9531
Q45.0156 41.5 45.0156 49.4219
Q45.0156 57.2812 41.125 61.8438
Q37.25 66.4062 30.6094 66.4062
Q23.9688 66.4062 20.0938 61.8438
Q16.2188 57.2812 16.2188 49.4219
Q16.2188 41.5 20.0938 36.9531
Q23.9688 32.4219 30.6094 32.4219" id="DejaVuSans-39"/>
     </defs>
     <g transform="translate(562.94125 358.439)scale(0.144 -0.144)">
      <use xlink:href="#DejaVuSans-6c"/>
      <use x="27.783203125" xlink:href="#DejaVuSans-6f"/>
      <use x="88.96484375" xlink:href="#DejaVuSans-63"/>
      <use x="143.9453125" xlink:href="#DejaVuSans-61"/>
      <use x="205.224609375" xlink:href="#DejaVuSans-6c"/>
      <use x="233.0078125" xlink:href="#DejaVuSans-69"/>
      <use x="260.791015625" xlink:href="#DejaVuSans-74"/>
      <use x="300.0" xlink:href="#DejaVuSans-79"/>
      <use x="359.1796875" xlink:href="#DejaVuSans-23"/>
      <use x="442.96875" xlink:href="#DejaVuSans-39"/>
     </g>
    </g>
   </g>
  </g>
 </g>
 <defs>
  <clipPath id="p3f6fae7697">
   <rect height="345.6" width="446.4" x="63.26125" y="23.14175"/>
  </clipPath>
 </defs>
</svg>
