<?xml version="1.0" encoding="utf-8" standalone="no"?>
<!DOCTYPE svg PUBLIC "-//W3C//DTD SVG 1.1//EN"
  "http://www.w3.org/Graphics/SVG/1.1/DTD/svg11.dtd">
<!-- Created with matplotlib (http://matplotlib.org/) -->
<svg height="408pt" version="1.1" viewBox="0 0 655 408" width="655pt" xmlns="http://www.w3.org/2000/svg" xmlns:xlink="http://www.w3.org/1999/xlink">
 <defs>
  <style type="text/css">
*{stroke-linecap:butt;stroke-linejoin:round;}
  </style>
 </defs>
 <g id="figure_1">
  <g id="patch_1">
   <path d="
M0 408.169
L655.558 408.169
L655.558 0
L0 0
z
" style="fill:#ffffff;"/>
  </g>
  <g id="axes_1">
   <g id="patch_2">
    <path d="
M62.9688 368.742
L509.369 368.742
L509.369 23.1417
L62.9688 23.1417
z
" style="fill:#ffffff;"/>
   </g>
   <g id="line2d_1">
    <path clip-path="url(#p0e537c530d)" d="
M62.9688 366.754
L70.1255 362.872
L71.0201 362.411
L73.7038 360.522
L75.493 359.162
L100.541 340.707
L105.014 337.737
L106.804 336.459
L110.382 334.263
L113.96 331.687
L114.855 331.18
L122.012 326.14
L124.695 324.389
L131.852 319.232
L133.641 318.087
L136.325 316.234
L146.166 309.499
L148.849 307.643
L154.217 303.839
L157.795 301.435
L160.479 299.672
L164.952 296.455
L184.633 283.026
L192.684 277.303
L194.473 276.083
L197.157 274.277
L199.841 272.503
L204.314 269.463
L207.892 266.919
L209.681 265.749
L228.468 252.727
L231.152 250.833
L234.73 248.402
L239.203 245.353
L254.411 234.898
L257.095 233.075
L260.673 230.604
L262.462 229.362
L268.724 224.974
L270.513 223.83
L273.197 221.905
L274.986 220.646
L276.776 219.45
L282.143 215.74
L283.038 215.222
L284.827 213.949
L286.616 212.793
L297.351 205.381
L299.14 204.208
L302.719 201.744
L304.508 200.5
L308.981 197.458
L309.875 196.92
L313.454 194.312
L315.243 193.179
L319.716 190.091
L321.505 188.897
L334.029 180.283
L335.818 179.092
L337.608 177.832
L342.975 174.201
L347.448 171.062
L351.026 168.541
L352.816 167.299
L356.394 164.849
L364.445 159.338
L368.024 156.698
L372.497 153.742
L409.175 128.4
L417.226 122.86
L419.91 121.055
L427.067 116.195
L428.856 115.097
L434.223 111.414
L439.591 107.573
L446.748 102.818
L449.431 100.93
L453.904 98.0352
L456.588 96.0624
L465.534 89.7843
L467.323 88.552
L470.007 86.7282
L478.058 81.1927
L480.742 79.4538
L481.636 78.7616
L483.426 77.6518
L490.582 72.604
L493.266 70.7951
L495.055 69.5548
L497.739 67.8022
L504.001 63.4762
L505.79 62.3348
L509.369 59.7694
L509.369 59.7694" style="fill:none;stroke:#0000ff;stroke-linecap:square;"/>
   </g>
   <g id="line2d_2">
    <path clip-path="url(#p0e537c530d)" d="
M62.9688 368.73
L66.5471 367.179
L77.2822 362.666
L88.9118 357.638
L111.277 347.959
L113.96 346.627
L117.539 344.88
L120.222 343.466
L122.012 342.605
L130.958 338.247
L134.536 336.394
L139.009 334.094
L140.798 333.265
L155.111 326.012
L157.795 324.681
L179.265 313.807
L181.949 312.556
L189.106 308.82
L192.684 306.964
L193.579 306.592
L196.263 305.228
L198.946 303.921
L206.998 299.848
L214.154 296.412
L222.206 292.344
L226.679 290.06
L228.468 289.181
L231.152 287.867
L234.73 286.081
L237.414 284.756
L243.676 281.536
L250.832 277.952
L263.357 271.602
L264.251 271.232
L268.724 268.846
L270.513 267.93
L285.721 260.376
L290.194 258.151
L293.773 256.337
L295.562 255.529
L298.246 254.177
L300.929 252.923
L306.297 250.116
L308.981 248.923
L336.713 234.836
L338.502 233.977
L346.554 229.948
L347.448 229.579
L351.921 227.219
L376.075 215.391
L378.759 213.935
L393.072 207.122
L396.651 205.299
L404.702 201.245
L406.491 200.397
L409.175 199.068
L412.753 197.205
L419.91 193.574
L423.488 191.826
L426.172 190.488
L428.856 189.238
L436.012 185.648
L438.696 184.405
L441.38 183.086
L447.642 180.056
L450.326 178.797
L457.483 175.264
L461.956 172.938
L471.796 167.884
L505.79 151.311
L509.369 149.431
L509.369 149.431" style="fill:none;stroke:#008000;stroke-linecap:square;"/>
   </g>
   <g id="line2d_3">
    <path clip-path="url(#p0e537c530d)" d="
M62.9688 368.73
L63.8633 367.995
L68.3363 365.424
L73.7038 362.317
L78.1768 359.582
L89.8064 352.22
L96.9631 347.966
L105.014 342.987
L106.804 341.838
L110.382 339.626
L122.012 331.603
L126.485 328.571
L130.063 326.071
L139.903 319.371
L143.482 316.902
L148.849 313.188
L156.901 307.617
L173.003 296.504
L176.582 294.052
L183.738 289.049
L186.422 287.144
L190 284.577
L213.26 268.649
L215.049 267.44
L216.838 266.188
L221.311 263.075
L223.995 261.248
L230.257 256.913
L232.941 255.071
L236.519 252.507
L239.203 250.702
L242.781 248.018
L251.727 241.786
L255.305 239.238
L257.095 237.978
L260.673 235.394
L263.357 233.562
L265.146 232.387
L266.935 231.075
L268.724 229.812
L272.303 227.282
L294.667 211.997
L300.929 207.789
L306.297 203.946
L308.981 202.218
L311.665 200.391
L313.454 199.191
L317.927 196.039
L319.716 194.739
L322.4 192.899
L324.189 191.62
L325.978 190.228
L340.291 180.297
L342.081 179.153
L344.764 177.232
L350.132 173.553
L352.816 171.598
L361.762 165.518
L377.864 154.631
L380.548 152.761
L386.81 148.568
L389.494 146.753
L391.283 145.543
L396.651 141.819
L398.44 140.625
L439.591 112.161
L440.485 111.644
L442.275 110.395
L446.748 107.478
L449.431 105.616
L452.115 103.778
L456.588 100.569
L460.166 98.1034
L463.745 95.4758
L465.534 94.2287
L469.112 91.9122
L470.901 90.5476
L476.269 87.0244
L478.058 85.8168
L481.636 83.3305
L487.004 79.6552
L488.793 78.4535
L509.369 64.28
L509.369 64.28" style="fill:none;stroke:#ff0000;stroke-linecap:square;"/>
   </g>
   <g id="line2d_4">
    <path clip-path="url(#p0e537c530d)" d="
M62.9688 368.73
L63.8633 368.026
L68.3363 365.447
L70.1255 364.345
L71.9146 363.089
L73.7038 361.745
L82.6497 355.303
L90.701 350.575
L96.0685 347.524
L111.277 337.882
L113.066 336.729
L120.222 331.719
L122.012 330.568
L134.536 321.956
L137.22 319.997
L139.903 318.181
L141.693 316.885
L143.482 315.672
L145.271 314.439
L151.533 309.868
L154.217 307.964
L156.901 305.965
L161.374 302.73
L173.003 294.597
L175.687 292.748
L180.16 289.592
L191.79 281.27
L192.684 280.582
L193.579 280.065
L196.263 278.113
L198.946 276.183
L201.63 274.184
L206.103 271.044
L208.787 269.1
L214.154 265.45
L220.416 260.781
L224.889 257.622
L227.573 255.622
L229.362 254.422
L233.835 251.347
L236.519 249.37
L239.203 247.531
L245.465 242.932
L250.832 239.266
L261.568 231.493
L264.251 229.71
L267.83 226.987
L272.303 223.826
L274.986 222.011
L276.776 220.67
L287.511 213.15
L290.194 211.267
L298.246 205.642
L300.929 203.847
L308.086 198.828
L311.665 196.398
L312.559 195.689
L314.348 194.553
L318.821 191.288
L320.61 190.127
L333.135 180.907
L334.029 180.383
L336.713 178.395
L338.502 177.2
L350.132 168.973
L354.605 165.744
L358.183 163.301
L360.867 161.387
L372.497 153.408
L373.391 152.884
L379.653 148.299
L389.494 141.52
L390.388 141.018
L427.067 114.861
L429.75 112.993
L433.329 110.434
L435.118 109.132
L436.907 107.861
L439.591 105.981
L441.38 104.774
L445.853 101.825
L446.748 101.304
L447.642 100.597
L448.537 100.058
L450.326 98.8518
L463.745 89.2866
L466.428 87.4322
L469.112 85.6914
L470.901 84.2665
L473.585 82.4526
L480.742 77.4948
L483.426 75.7085
L487.899 72.6652
L489.688 71.4527
L492.372 69.4877
L497.739 65.8569
L499.528 64.5081
L503.107 62.1274
L504.896 60.8595
L507.58 58.8146
L509.369 57.4964
L509.369 57.4964" style="fill:none;stroke:#00bfbf;stroke-linecap:square;"/>
   </g>
   <g id="line2d_5">
    <path clip-path="url(#p0e537c530d)" d="
M62.9688 368.729
L65.6525 366.905
L71.0201 363.777
L75.493 361.215
L79.9659 358.786
L99.6469 348.455
L101.436 347.45
L103.225 346.321
L105.014 345.254
L107.698 343.717
L110.382 342.135
L119.328 336.332
L120.222 335.678
L121.117 335.183
L122.906 333.989
L152.428 314.842
L153.322 314.168
L155.111 313.066
L166.741 305.247
L169.425 303.371
L184.633 293.551
L190.895 289.288
L198.946 284.156
L206.103 279.399
L209.681 277.166
L216.838 272.544
L221.311 269.62
L223.995 267.882
L227.573 265.401
L230.257 263.708
L241.887 256.135
L243.676 254.942
L250.832 250.298
L261.568 243.084
L264.251 241.496
L267.83 239.041
L275.881 233.621
L283.038 229.038
L285.721 227.298
L294.667 221.483
L297.351 219.787
L308.086 212.916
L310.77 211.203
L334.924 195.064
L345.659 188.176
L348.343 186.439
L350.132 185.255
L353.71 182.799
L359.078 179.351
L363.551 176.496
L365.34 175.356
L370.707 171.885
L375.18 169.104
L378.759 166.631
L381.442 164.974
L383.232 163.872
L389.494 159.882
L391.283 158.787
L402.913 151.196
L404.702 149.993
L407.386 148.339
L430.645 133.111
L439.591 127.426
L440.485 126.948
L442.275 125.79
L452.115 119.723
L466.428 110.188
L469.112 108.57
L470.901 107.256
L492.372 93.732
L504.001 86.2611
L505.79 85.1424
L509.369 82.7183
L509.369 82.7183" style="fill:none;stroke:#bf00bf;stroke-linecap:square;"/>
   </g>
   <g id="line2d_6">
    <path clip-path="url(#p0e537c530d)" d="
M62.9688 368.73
L63.8633 368.144
L64.7579 367.62
L67.4417 366.084
L71.9146 363.364
L76.3876 360.948
L101.436 347.2
L103.225 346.099
L105.014 345.06
L106.804 344.002
L110.382 341.96
L147.06 318.183
L148.849 317.01
L156.006 312.294
L161.374 308.709
L169.425 303.273
L172.109 301.561
L179.265 296.898
L181.949 295.293
L190.895 289.337
L194.473 287.11
L224.889 267.317
L229.362 264.357
L234.73 260.849
L238.308 258.507
L240.097 257.326
L247.254 252.651
L249.938 250.943
L262.462 242.738
L266.935 239.815
L272.303 236.241
L274.092 235.111
L317.927 206.876
L319.716 205.668
L322.4 203.925
L325.083 202.019
L328.662 199.638
L332.24 197.169
L342.081 191.082
L344.764 189.189
L352.816 183.916
L354.605 182.749
L363.551 177.165
L366.234 175.474
L376.075 169.155
L380.548 166.126
L384.126 163.959
L389.494 160.565
L390.388 160.098
L392.178 158.882
L395.756 156.591
L400.229 153.647
L402.018 152.526
L404.702 150.758
L405.596 150.263
L411.859 146.002
L419.015 141.361
L420.804 140.18
L424.383 137.796
L430.645 133.833
L437.802 129.206
L440.485 127.635
L442.275 126.51
L453.01 119.743
L455.693 117.888
L459.272 115.536
L461.061 114.331
L468.218 109.614
L469.112 109.127
L471.796 107.251
L474.48 105.551
L477.164 103.961
L478.953 102.764
L483.426 99.9904
L487.004 97.7568
L494.161 93.0991
L495.95 92.0801
L502.212 88.0128
L503.107 87.5389
L509.369 83.3206
L509.369 83.3206" style="fill:none;stroke:#bfbf00;stroke-linecap:square;"/>
   </g>
   <g id="line2d_7">
    <path clip-path="url(#p0e537c530d)" d="
M62.9688 368.731
L63.8633 368.164
L84.4389 358.433
L102.331 349.268
L113.066 343.558
L114.855 342.498
L118.433 340.361
L165.847 311.992
L173.003 307.642
L176.582 305.47
L184.633 300.693
L187.317 298.966
L203.419 289.372
L206.103 287.719
L209.681 285.615
L212.365 284.162
L217.733 280.84
L218.627 280.376
L220.416 279.225
L223.995 277.134
L227.573 274.892
L228.468 274.439
L230.257 273.329
L241.887 266.285
L244.57 264.685
L258.884 255.984
L261.568 254.38
L264.251 252.911
L274.092 246.801
L277.67 244.691
L280.354 243.038
L283.038 241.417
L287.511 238.801
L291.984 236.199
L296.457 233.555
L300.929 230.979
L303.613 229.249
L307.192 227.112
L317.927 220.632
L319.716 219.53
L322.4 217.935
L325.978 215.714
L329.556 213.503
L332.24 211.839
L336.713 209.235
L338.502 208.231
L346.554 203.404
L348.343 202.369
L350.132 201.308
L353.71 199.034
L358.183 196.486
L372.497 188.121
L373.391 187.681
L380.548 183.243
L394.861 175.014
L397.545 173.351
L399.334 172.345
L432.434 152.636
L435.118 151.046
L437.802 149.461
L438.696 149.006
L440.485 147.962
L444.064 145.848
L448.537 143.321
L450.326 142.265
L468.218 131.476
L469.112 131.012
L471.796 129.296
L474.48 127.689
L477.164 126.244
L485.215 121.551
L487.004 120.535
L490.582 118.448
L496.845 114.768
L499.528 113.085
L505.79 109.418
L509.369 107.154
L509.369 107.154" style="fill:none;stroke:#000000;stroke-linecap:square;"/>
   </g>
   <g id="line2d_8">
    <path clip-path="url(#p0e537c530d)" d="
M62.9688 368.73
L63.8633 368.183
L101.436 351.691
L103.225 350.816
L105.014 349.963
L107.698 348.755
L113.066 346.213
L114.855 345.29
L118.433 343.505
L122.906 341.251
L152.428 326.275
L156.006 324.389
L164.952 319.731
L167.636 318.271
L171.214 316.41
L174.792 314.592
L177.476 313.22
L181.055 311.428
L182.844 310.532
L190.895 306.278
L194.473 304.448
L198.052 302.62
L203.419 299.861
L206.998 297.977
L213.26 294.903
L263.357 269.085
L265.146 268.221
L267.83 266.784
L274.092 263.492
L277.67 261.69
L279.459 260.739
L283.038 258.94
L291.089 254.81
L297.351 251.749
L305.402 247.582
L308.086 246.266
L310.77 244.932
L316.137 242.181
L318.821 240.655
L324.189 237.848
L334.029 232.693
L338.502 230.478
L345.659 226.768
L355.499 221.773
L358.183 220.414
L363.551 217.712
L365.34 216.83
L387.705 205.523
L389.494 204.651
L391.283 203.746
L397.545 200.569
L399.334 199.698
L406.491 196.101
L408.28 195.174
L419.91 189.109
L422.594 187.748
L439.591 179.138
L441.38 178.264
L447.642 175.168
L448.537 174.795
L450.326 173.862
L459.272 169.187
L461.061 168.289
L476.269 160.596
L479.847 158.819
L485.215 156.105
L489.688 153.913
L495.055 151.246
L496.845 150.334
L502.212 147.55
L503.107 147.185
L509.369 143.852
L509.369 143.852" style="fill:none;stroke:#0000ff;stroke-linecap:square;"/>
   </g>
   <g id="line2d_9">
    <path clip-path="url(#p0e537c530d)" d="
M62.9688 368.73
L65.6525 367.578
L99.6469 353.974
L101.436 353.26
L103.225 352.453
L109.487 349.869
L119.328 345.345
L122.012 344.082
L132.747 339.211
L139.009 336.188
L143.482 334.183
L150.638 330.796
L156.901 327.783
L161.374 325.661
L165.847 323.495
L169.425 321.78
L175.687 318.961
L178.371 317.687
L186.422 313.883
L190 312.139
L196.263 309.199
L198.946 307.955
L205.208 305.004
L223.995 296.297
L251.727 283.291
L256.2 281.134
L258.884 279.798
L263.357 277.732
L265.146 276.949
L266.935 276.028
L294.667 263.188
L297.351 261.971
L313.454 254.516
L317.927 252.357
L319.716 251.498
L322.4 250.255
L326.873 248.083
L329.556 246.797
L332.24 245.498
L336.713 243.49
L341.186 241.525
L345.659 239.385
L348.343 238.15
L350.132 237.339
L353.71 235.628
L376.075 225.505
L379.653 223.742
L387.705 220.104
L390.388 218.973
L392.178 218.127
L399.334 214.849
L404.702 212.301
L406.491 211.513
L410.069 209.813
L419.91 205.151
L422.594 203.909
L429.75 200.583
L451.22 190.899
L453.01 190.067
L454.799 189.132
L460.166 186.679
L465.534 184.081
L477.164 178.779
L478.953 177.912
L482.531 176.341
L488.793 173.458
L493.266 171.354
L502.212 167.22
L504.001 166.408
L506.685 165.124
L509.369 163.787
L509.369 163.787" style="fill:none;stroke:#008000;stroke-linecap:square;"/>
   </g>
   <g id="line2d_10">
    <path clip-path="url(#p0e537c530d)" d="
M62.9688 368.73
L65.6525 367.463
L73.7038 363.888
L88.0172 357.726
L104.12 350.517
L107.698 348.826
L111.277 347.069
L114.855 345.215
L145.271 328.909
L148.849 326.946
L156.006 323.051
L192.684 303.165
L193.579 302.761
L196.263 301.243
L200.735 298.897
L206.103 295.942
L208.787 294.549
L215.049 291.241
L217.733 289.728
L218.627 289.317
L220.416 288.258
L226.679 284.855
L227.573 284.32
L228.468 283.929
L230.257 282.986
L234.73 280.573
L238.308 278.638
L240.992 277.194
L256.2 268.829
L258.884 267.318
L261.568 265.857
L264.251 264.513
L272.303 259.995
L285.721 252.835
L291.984 249.558
L298.246 246.269
L301.824 244.357
L306.297 241.886
L308.981 240.588
L317.927 235.782
L320.61 234.355
L328.662 229.876
L332.24 227.866
L344.764 221.174
L348.343 219.233
L350.132 218.307
L353.71 216.3
L364.445 210.715
L368.024 208.772
L370.707 207.418
L373.391 206.087
L376.075 204.587
L382.337 201.168
L384.126 200.322
L402.913 190.342
L404.702 189.369
L406.491 188.448
L410.069 186.484
L418.121 182.067
L420.804 180.668
L426.172 177.767
L427.961 176.836
L436.012 172.513
L438.696 171.231
L441.38 169.799
L455.693 162.305
L468.218 155.492
L469.112 155.079
L471.796 153.547
L501.317 137.929
L509.369 133.473
L509.369 133.473" style="fill:none;stroke:#ff0000;stroke-linecap:square;"/>
   </g>
   <g id="line2d_11">
    <path clip-path="url(#p0e537c530d)" d="
M62.9688 368.729
L66.5471 367.059
L73.7038 363.893
L100.541 351.841
L104.12 350.056
L106.804 348.69
L110.382 346.984
L115.75 344.124
L120.222 341.652
L122.012 340.703
L125.59 338.863
L129.168 336.87
L133.641 334.474
L138.114 332.056
L139.903 331.119
L143.482 329.216
L147.06 327.22
L150.638 325.247
L169.425 314.785
L172.109 313.343
L184.633 306.597
L197.157 299.739
L199.841 298.247
L211.471 291.966
L215.049 290.05
L217.733 288.533
L218.627 288.098
L220.416 287.039
L223.995 285.118
L229.362 282.2
L232.941 280.32
L245.465 273.458
L250.832 270.52
L256.2 267.496
L258.884 265.993
L261.568 264.54
L265.146 262.709
L268.724 260.625
L274.986 257.216
L278.565 255.267
L284.827 251.927
L291.089 248.554
L294.667 246.714
L297.351 245.246
L310.77 237.864
L316.137 234.976
L318.821 233.442
L322.4 231.485
L326.873 228.928
L366.234 207.607
L375.18 202.937
L397.545 190.9
L399.334 189.958
L404.702 186.977
L406.491 186.053
L409.175 184.589
L415.437 181.019
L423.488 176.634
L426.172 175.178
L428.856 173.765
L437.802 168.889
L440.485 167.563
L442.275 166.569
L448.537 163.288
L450.326 162.299
L457.483 158.384
L460.166 156.898
L466.428 153.391
L470.007 151.455
L471.796 150.436
L481.636 145.318
L484.32 143.896
L502.212 134.238
L503.107 133.841
L505.79 132.344
L509.369 130.248
L509.369 130.248" style="fill:none;stroke:#00bfbf;stroke-linecap:square;"/>
   </g>
   <g id="line2d_12">
    <path clip-path="url(#p0e537c530d)" d="
M62.9688 368.73
L111.277 345.056
L161.374 316.998
L164.057 315.455
L223.995 281.89
L227.573 279.78
L228.468 279.362
L230.257 278.355
L237.414 274.36
L245.465 269.77
L249.938 267.311
L255.305 264.162
L257.989 262.647
L263.357 259.599
L265.146 258.64
L269.619 255.956
L275.881 252.347
L284.827 247.344
L293.773 242.402
L297.351 240.469
L307.192 234.918
L322.4 226.525
L325.978 224.431
L336.713 218.401
L340.291 216.488
L342.975 214.933
L356.394 207.423
L359.078 205.959
L371.602 199.214
L376.97 196.187
L381.442 193.662
L383.232 192.738
L394.861 186.488
L397.545 184.952
L399.334 183.994
L406.491 179.97
L409.175 178.4
L412.753 176.308
L417.226 173.813
L426.172 168.771
L427.961 167.788
L430.645 166.298
L433.329 164.744
L436.012 163.178
L437.802 162.22
L441.38 160.347
L444.958 158.417
L447.642 156.98
L448.537 156.559
L450.326 155.561
L461.956 148.962
L466.428 146.375
L469.112 144.946
L471.796 143.332
L480.742 138.509
L483.426 137.035
L494.161 130.993
L495.95 130.088
L502.212 126.596
L504.001 125.659
L506.685 124.103
L509.369 122.553
L509.369 122.553" style="fill:none;stroke:#bf00bf;stroke-linecap:square;"/>
   </g>
   <g id="line2d_13">
    <path clip-path="url(#p0e537c530d)" d="
M62.9688 368.73
L65.6525 367.273
L71.0201 364.248
L77.2822 360.781
L86.2281 356.119
L95.174 351.727
L110.382 343.966
L119.328 338.767
L122.012 337.202
L126.485 334.634
L138.114 327.936
L141.693 325.841
L144.376 324.355
L161.374 314.259
L166.741 311.015
L211.471 284.974
L213.26 283.955
L236.519 270.441
L240.097 268.372
L248.149 263.621
L258.884 257.226
L259.778 256.632
L262.462 255.167
L267.83 251.943
L272.303 249.31
L278.565 245.596
L293.773 236.851
L296.457 235.39
L298.246 234.317
L300.929 232.8
L308.086 228.572
L314.348 225.04
L323.294 219.573
L330.451 215.196
L334.924 212.669
L342.975 208.075
L348.343 204.954
L350.132 203.914
L353.71 201.772
L357.289 199.807
L368.024 193.663
L369.813 192.672
L372.497 191.127
L374.286 190.126
L376.075 189.062
L377.864 187.944
L383.232 184.856
L393.072 179.388
L437.802 153.149
L438.696 152.733
L441.38 151.219
L453.01 144.664
L455.693 143.027
L462.85 138.749
L465.534 137.123
L469.112 135.127
L471.796 133.468
L482.531 127.572
L504.001 115.16
L506.685 113.584
L509.369 111.859
L509.369 111.859" style="fill:none;stroke:#bfbf00;stroke-linecap:square;"/>
   </g>
   <g id="line2d_14">
    <path clip-path="url(#p0e537c530d)" d="
M62.9688 368.729
L65.6525 367.128
L70.1255 364.35
L74.5984 361.12
L82.6497 355.595
L97.8577 346.382
L101.436 344.201
L103.225 342.964
L105.014 341.828
L106.804 340.686
L110.382 338.449
L115.75 334.712
L120.222 331.431
L121.117 330.881
L122.906 329.569
L134.536 321.211
L139.903 317.382
L181.055 287.48
L184.633 284.976
L189.106 281.668
L192.684 279.085
L193.579 278.562
L196.263 276.542
L198.052 275.253
L200.735 273.252
L202.525 271.926
L204.314 270.623
L209.681 266.725
L216.838 261.649
L220.416 258.926
L223.995 256.333
L227.573 253.623
L229.362 252.405
L232.046 250.61
L241.887 243.405
L243.676 242.039
L248.149 238.976
L250.832 236.995
L252.622 235.648
L259.778 230.219
L262.462 228.335
L266.04 225.645
L279.459 215.68
L281.249 214.424
L287.511 210.023
L290.194 208.107
L293.773 205.554
L296.457 203.73
L305.402 197.253
L306.297 196.54
L308.981 194.772
L317.032 188.985
L326.873 181.745
L329.556 179.771
L332.24 177.781
L343.87 169.587
L348.343 166.351
L349.237 165.769
L352.816 163.009
L357.289 159.878
L368.918 151.856
L372.497 149.334
L375.18 147.49
L379.653 144.122
L385.021 140.423
L385.915 139.72
L386.81 139.18
L387.705 138.475
L388.599 137.959
L389.494 137.272
L390.388 136.748
L392.178 135.438
L393.967 134.19
L402.913 127.647
L404.702 126.297
L405.596 125.783
L408.28 123.808
L410.964 121.761
L413.648 119.754
L414.542 119.154
L417.226 117.051
L439.591 101.252
L440.485 100.722
L442.275 99.4226
L453.01 92.009
L454.799 90.5999
L458.377 87.9852
L462.85 84.7178
L464.639 83.3285
L468.218 80.8491
L469.112 80.2872
L471.796 78.2649
L487.004 67.7202
L488.793 66.4474
L507.58 53.0401
L509.369 51.7021
L509.369 51.7021" style="fill:none;stroke:#000000;stroke-linecap:square;"/>
   </g>
   <g id="line2d_15">
    <path clip-path="url(#p0e537c530d)" d="
M62.9688 368.731
L69.2309 364.782
L70.1255 364.153
L89.8064 353.241
L104.12 344.634
L106.804 342.982
L111.277 340.205
L113.96 338.345
L115.75 337.221
L117.539 335.998
L119.328 334.7
L121.117 333.514
L123.801 331.79
L161.374 306.004
L164.057 304.02
L165.847 302.828
L167.636 301.517
L175.687 296.18
L177.476 294.829
L181.055 292.526
L182.844 291.354
L186.422 288.961
L190.895 285.768
L194.473 283.411
L203.419 277.363
L206.998 274.819
L211.471 272.011
L216.838 268.336
L220.416 265.788
L223.995 263.433
L229.362 259.757
L235.624 255.465
L246.36 248.132
L249.043 246.178
L254.411 242.38
L262.462 236.879
L266.04 234.475
L268.724 232.465
L270.513 231.266
L273.197 229.419
L275.881 227.585
L279.459 225.052
L280.354 224.518
L282.143 223.183
L285.721 220.776
L287.511 219.535
L289.3 218.376
L291.089 217.121
L292.878 215.996
L294.667 214.838
L298.246 212.558
L316.137 200.529
L319.716 198.017
L321.505 196.866
L332.24 189.216
L342.081 182.753
L343.87 181.341
L376.075 159.483
L378.759 157.347
L385.915 152.508
L386.81 152.007
L388.599 150.772
L391.283 148.932
L395.756 145.994
L401.123 142.392
L402.913 141.136
L413.648 133.414
L415.437 132.174
L418.121 130.29
L420.804 128.536
L426.172 124.83
L428.856 123.139
L430.645 121.92
L439.591 115.924
L440.485 115.419
L442.275 114.227
L448.537 110.083
L449.431 109.372
L453.01 107.099
L455.693 105.199
L470.007 95.4551
L471.796 94.1754
L477.164 90.7559
L478.953 89.6016
L481.636 87.8874
L507.58 70.2253
L509.369 68.9426
L509.369 68.9426" style="fill:none;stroke:#0000ff;stroke-linecap:square;"/>
   </g>
   <g id="line2d_16">
    <path clip-path="url(#p0e537c530d)" d="
M62.9688 368.73
L63.8633 368.082
L64.7579 367.554
L70.1255 364.477
L75.493 361.424
L79.9659 359.011
L83.5443 356.982
L88.0172 353.938
L92.4902 350.853
L95.174 349.048
L97.8577 347.136
L111.277 337.4
L113.96 335.324
L115.75 333.992
L122.012 329.033
L125.59 326.298
L139.009 315.822
L140.798 314.521
L143.482 312.408
L148.849 308.189
L151.533 305.974
L153.322 304.605
L156.901 301.79
L167.636 293.152
L172.109 289.564
L175.687 286.819
L181.055 282.585
L182.844 281.182
L192.684 273.527
L193.579 272.963
L196.263 270.814
L198.946 268.778
L202.525 265.907
L206.103 263.16
L209.681 260.464
L216.838 255.047
L221.311 251.493
L223.1 250.117
L231.152 243.605
L233.835 241.594
L236.519 239.477
L240.992 235.97
L246.36 231.667
L248.149 230.324
L255.305 224.626
L258.884 221.816
L261.568 219.779
L262.462 219.171
L264.251 217.801
L267.83 214.985
L270.513 212.865
L276.776 207.913
L298.246 191.097
L300.929 189.074
L304.508 186.147
L317.927 175.542
L319.716 173.998
L324.189 170.441
L334.029 162.569
L335.818 161.193
L337.608 159.78
L339.397 158.42
L342.081 156.385
L344.764 154.219
L351.026 149.444
L356.394 145.315
L357.289 144.704
L359.972 142.553
L369.813 135.094
L371.602 133.69
L380.548 126.702
L387.705 121.337
L390.388 119.357
L410.069 104.194
L413.648 101.291
L421.699 94.9732
L423.488 93.6965
L426.172 91.5666
L427.067 90.9258
L428.856 89.4693
L437.802 82.4882
L440.485 80.615
L442.275 79.2484
L444.958 77.1185
L446.748 75.749
L453.01 70.8267
L455.693 68.6671
L460.166 65.14
L468.218 58.6566
L469.112 58.0395
L471.796 55.8118
L475.374 53.1063
L478.058 51.082
L480.742 49.1427
L484.32 46.4243
L486.109 45.0044
L488.793 42.915
L491.477 40.9026
L495.055 38.0174
L496.845 36.5579
L498.634 35.0531
L509.369 26.5089
L509.369 26.5089" style="fill:none;stroke:#008000;stroke-linecap:square;"/>
   </g>
   <g id="patch_3">
    <path d="
M62.9688 23.1417
L509.369 23.1417" style="fill:none;stroke:#000000;stroke-linecap:square;stroke-linejoin:miter;"/>
   </g>
   <g id="patch_4">
    <path d="
M509.369 368.742
L509.369 23.1418" style="fill:none;stroke:#000000;stroke-linecap:square;stroke-linejoin:miter;"/>
   </g>
   <g id="patch_5">
    <path d="
M62.9688 368.742
L509.369 368.742" style="fill:none;stroke:#000000;stroke-linecap:square;stroke-linejoin:miter;"/>
   </g>
   <g id="patch_6">
    <path d="
M62.9688 368.742
L62.9688 23.1418" style="fill:none;stroke:#000000;stroke-linecap:square;stroke-linejoin:miter;"/>
   </g>
   <g id="matplotlib.axis_1">
    <g id="xtick_1">
     <g id="line2d_17">
      <defs>
       <path d="
M0 0
L0 -4" id="m93b0483c22" style="stroke:#000000;stroke-width:0.5;"/>
      </defs>
      <g>
       <use style="stroke:#000000;stroke-width:0.5;" x="62.96875" xlink:href="#m93b0483c22" y="368.74175"/>
      </g>
     </g>
     <g id="line2d_18">
      <defs>
       <path d="
M0 0
L0 4" id="m741efc42ff" style="stroke:#000000;stroke-width:0.5;"/>
      </defs>
      <g>
       <use style="stroke:#000000;stroke-width:0.5;" x="62.96875" xlink:href="#m741efc42ff" y="23.14175"/>
      </g>
     </g>
     <g id="text_1">
      <!-- 0 -->
      <defs>
       <path d="
M31.7812 66.4062
Q24.1719 66.4062 20.3281 58.9062
Q16.5 51.4219 16.5 36.375
Q16.5 21.3906 20.3281 13.8906
Q24.1719 6.39062 31.7812 6.39062
Q39.4531 6.39062 43.2812 13.8906
Q47.125 21.3906 47.125 36.375
Q47.125 51.4219 43.2812 58.9062
Q39.4531 66.4062 31.7812 66.4062
M31.7812 74.2188
Q44.0469 74.2188 50.5156 64.5156
Q56.9844 54.8281 56.9844 36.375
Q56.9844 17.9688 50.5156 8.26562
Q44.0469 -1.42188 31.7812 -1.42188
Q19.5312 -1.42188 13.0625 8.26562
Q6.59375 17.9688 6.59375 36.375
Q6.59375 54.8281 13.0625 64.5156
Q19.5312 74.2188 31.7812 74.2188" id="DejaVuSans-30"/>
      </defs>
      <g transform="translate(59.9453125 381.859875)scale(0.12 -0.12)">
       <use xlink:href="#DejaVuSans-30"/>
      </g>
     </g>
    </g>
    <g id="xtick_2">
     <g id="line2d_19">
      <g>
       <use style="stroke:#000000;stroke-width:0.5;" x="152.427667836" xlink:href="#m93b0483c22" y="368.74175"/>
      </g>
     </g>
     <g id="line2d_20">
      <g>
       <use style="stroke:#000000;stroke-width:0.5;" x="152.427667836" xlink:href="#m741efc42ff" y="23.14175"/>
      </g>
     </g>
     <g id="text_2">
      <!-- 100 -->
      <defs>
       <path d="
M12.4062 8.29688
L28.5156 8.29688
L28.5156 63.9219
L10.9844 60.4062
L10.9844 69.3906
L28.4219 72.9062
L38.2812 72.9062
L38.2812 8.29688
L54.3906 8.29688
L54.3906 0
L12.4062 0
z
" id="DejaVuSans-31"/>
      </defs>
      <g transform="translate(142.032667836 381.859875)scale(0.12 -0.12)">
       <use xlink:href="#DejaVuSans-31"/>
       <use x="63.623046875" xlink:href="#DejaVuSans-30"/>
       <use x="127.24609375" xlink:href="#DejaVuSans-30"/>
      </g>
     </g>
    </g>
    <g id="xtick_3">
     <g id="line2d_21">
      <g>
       <use style="stroke:#000000;stroke-width:0.5;" x="241.886585671" xlink:href="#m93b0483c22" y="368.74175"/>
      </g>
     </g>
     <g id="line2d_22">
      <g>
       <use style="stroke:#000000;stroke-width:0.5;" x="241.886585671" xlink:href="#m741efc42ff" y="23.14175"/>
      </g>
     </g>
     <g id="text_3">
      <!-- 200 -->
      <defs>
       <path d="
M19.1875 8.29688
L53.6094 8.29688
L53.6094 0
L7.32812 0
L7.32812 8.29688
Q12.9375 14.1094 22.625 23.8906
Q32.3281 33.6875 34.8125 36.5312
Q39.5469 41.8438 41.4219 45.5312
Q43.3125 49.2188 43.3125 52.7812
Q43.3125 58.5938 39.2344 62.25
Q35.1562 65.9219 28.6094 65.9219
Q23.9688 65.9219 18.8125 64.3125
Q13.6719 62.7031 7.8125 59.4219
L7.8125 69.3906
Q13.7656 71.7812 18.9375 73
Q24.125 74.2188 28.4219 74.2188
Q39.75 74.2188 46.4844 68.5469
Q53.2188 62.8906 53.2188 53.4219
Q53.2188 48.9219 51.5312 44.8906
Q49.8594 40.875 45.4062 35.4062
Q44.1875 33.9844 37.6406 27.2188
Q31.1094 20.4531 19.1875 8.29688" id="DejaVuSans-32"/>
      </defs>
      <g transform="translate(231.272210671 381.859875)scale(0.12 -0.12)">
       <use xlink:href="#DejaVuSans-32"/>
       <use x="63.623046875" xlink:href="#DejaVuSans-30"/>
       <use x="127.24609375" xlink:href="#DejaVuSans-30"/>
      </g>
     </g>
    </g>
    <g id="xtick_4">
     <g id="line2d_23">
      <g>
       <use style="stroke:#000000;stroke-width:0.5;" x="331.345503507" xlink:href="#m93b0483c22" y="368.74175"/>
      </g>
     </g>
     <g id="line2d_24">
      <g>
       <use style="stroke:#000000;stroke-width:0.5;" x="331.345503507" xlink:href="#m741efc42ff" y="23.14175"/>
      </g>
     </g>
     <g id="text_4">
      <!-- 300 -->
      <defs>
       <path d="
M40.5781 39.3125
Q47.6562 37.7969 51.625 33
Q55.6094 28.2188 55.6094 21.1875
Q55.6094 10.4062 48.1875 4.48438
Q40.7656 -1.42188 27.0938 -1.42188
Q22.5156 -1.42188 17.6562 -0.515625
Q12.7969 0.390625 7.625 2.20312
L7.625 11.7188
Q11.7188 9.32812 16.5938 8.10938
Q21.4844 6.89062 26.8125 6.89062
Q36.0781 6.89062 40.9375 10.5469
Q45.7969 14.2031 45.7969 21.1875
Q45.7969 27.6406 41.2812 31.2656
Q36.7656 34.9062 28.7188 34.9062
L20.2188 34.9062
L20.2188 43.0156
L29.1094 43.0156
Q36.375 43.0156 40.2344 45.9219
Q44.0938 48.8281 44.0938 54.2969
Q44.0938 59.9062 40.1094 62.9062
Q36.1406 65.9219 28.7188 65.9219
Q24.6562 65.9219 20.0156 65.0312
Q15.375 64.1562 9.8125 62.3125
L9.8125 71.0938
Q15.4375 72.6562 20.3438 73.4375
Q25.25 74.2188 29.5938 74.2188
Q40.8281 74.2188 47.3594 69.1094
Q53.9062 64.0156 53.9062 55.3281
Q53.9062 49.2656 50.4375 45.0938
Q46.9688 40.9219 40.5781 39.3125" id="DejaVuSans-33"/>
      </defs>
      <g transform="translate(320.748941007 381.859875)scale(0.12 -0.12)">
       <use xlink:href="#DejaVuSans-33"/>
       <use x="63.623046875" xlink:href="#DejaVuSans-30"/>
       <use x="127.24609375" xlink:href="#DejaVuSans-30"/>
      </g>
     </g>
    </g>
    <g id="xtick_5">
     <g id="line2d_25">
      <g>
       <use style="stroke:#000000;stroke-width:0.5;" x="420.804421343" xlink:href="#m93b0483c22" y="368.74175"/>
      </g>
     </g>
     <g id="line2d_26">
      <g>
       <use style="stroke:#000000;stroke-width:0.5;" x="420.804421343" xlink:href="#m741efc42ff" y="23.14175"/>
      </g>
     </g>
     <g id="text_5">
      <!-- 400 -->
      <defs>
       <path d="
M37.7969 64.3125
L12.8906 25.3906
L37.7969 25.3906
z

M35.2031 72.9062
L47.6094 72.9062
L47.6094 25.3906
L58.0156 25.3906
L58.0156 17.1875
L47.6094 17.1875
L47.6094 0
L37.7969 0
L37.7969 17.1875
L4.89062 17.1875
L4.89062 26.7031
z
" id="DejaVuSans-34"/>
      </defs>
      <g transform="translate(410.043796343 381.859875)scale(0.12 -0.12)">
       <use xlink:href="#DejaVuSans-34"/>
       <use x="63.623046875" xlink:href="#DejaVuSans-30"/>
       <use x="127.24609375" xlink:href="#DejaVuSans-30"/>
      </g>
     </g>
    </g>
    <g id="text_6">
     <!-- time -->
     <defs>
      <path d="
M18.3125 70.2188
L18.3125 54.6875
L36.8125 54.6875
L36.8125 47.7031
L18.3125 47.7031
L18.3125 18.0156
Q18.3125 11.3281 20.1406 9.42188
Q21.9688 7.51562 27.5938 7.51562
L36.8125 7.51562
L36.8125 0
L27.5938 0
Q17.1875 0 13.2344 3.875
Q9.28125 7.76562 9.28125 18.0156
L9.28125 47.7031
L2.6875 47.7031
L2.6875 54.6875
L9.28125 54.6875
L9.28125 70.2188
z
" id="DejaVuSans-74"/>
      <path d="
M52 44.1875
Q55.375 50.25 60.0625 53.125
Q64.75 56 71.0938 56
Q79.6406 56 84.2812 50.0156
Q88.9219 44.0469 88.9219 33.0156
L88.9219 0
L79.8906 0
L79.8906 32.7188
Q79.8906 40.5781 77.0938 44.375
Q74.3125 48.1875 68.6094 48.1875
Q61.625 48.1875 57.5625 43.5469
Q53.5156 38.9219 53.5156 30.9062
L53.5156 0
L44.4844 0
L44.4844 32.7188
Q44.4844 40.625 41.7031 44.4062
Q38.9219 48.1875 33.1094 48.1875
Q26.2188 48.1875 22.1562 43.5312
Q18.1094 38.875 18.1094 30.9062
L18.1094 0
L9.07812 0
L9.07812 54.6875
L18.1094 54.6875
L18.1094 46.1875
Q21.1875 51.2188 25.4844 53.6094
Q29.7812 56 35.6875 56
Q41.6562 56 45.8281 52.9688
Q50 49.9531 52 44.1875" id="DejaVuSans-6d"/>
      <path d="
M56.2031 29.5938
L56.2031 25.2031
L14.8906 25.2031
Q15.4844 15.9219 20.4844 11.0625
Q25.4844 6.20312 34.4219 6.20312
Q39.5938 6.20312 44.4531 7.46875
Q49.3125 8.73438 54.1094 11.2812
L54.1094 2.78125
Q49.2656 0.734375 44.1875 -0.34375
Q39.1094 -1.42188 33.8906 -1.42188
Q20.7969 -1.42188 13.1562 6.1875
Q5.51562 13.8125 5.51562 26.8125
Q5.51562 40.2344 12.7656 48.1094
Q20.0156 56 32.3281 56
Q43.3594 56 49.7812 48.8906
Q56.2031 41.7969 56.2031 29.5938
M47.2188 32.2344
Q47.125 39.5938 43.0938 43.9844
Q39.0625 48.3906 32.4219 48.3906
Q24.9062 48.3906 20.3906 44.1406
Q15.875 39.8906 15.1875 32.1719
z
" id="DejaVuSans-65"/>
      <path d="
M9.42188 54.6875
L18.4062 54.6875
L18.4062 0
L9.42188 0
z

M9.42188 75.9844
L18.4062 75.9844
L18.4062 64.5938
L9.42188 64.5938
z
" id="DejaVuSans-69"/>
     </defs>
     <g transform="translate(273.094375 398.473625)scale(0.12 -0.12)">
      <use xlink:href="#DejaVuSans-74"/>
      <use x="39.208984375" xlink:href="#DejaVuSans-69"/>
      <use x="66.9921875" xlink:href="#DejaVuSans-6d"/>
      <use x="164.404296875" xlink:href="#DejaVuSans-65"/>
     </g>
    </g>
   </g>
   <g id="matplotlib.axis_2">
    <g id="ytick_1">
     <g id="line2d_27">
      <defs>
       <path d="
M0 0
L4 0" id="m728421d6d4" style="stroke:#000000;stroke-width:0.5;"/>
      </defs>
      <g>
       <use style="stroke:#000000;stroke-width:0.5;" x="62.96875" xlink:href="#m728421d6d4" y="368.74175"/>
      </g>
     </g>
     <g id="line2d_28">
      <defs>
       <path d="
M0 0
L-4 0" id="mcb0005524f" style="stroke:#000000;stroke-width:0.5;"/>
      </defs>
      <g>
       <use style="stroke:#000000;stroke-width:0.5;" x="509.36875" xlink:href="#mcb0005524f" y="368.74175"/>
      </g>
     </g>
     <g id="text_7">
      <!-- 0 -->
      <g transform="translate(52.921875 372.053)scale(0.12 -0.12)">
       <use xlink:href="#DejaVuSans-30"/>
      </g>
     </g>
    </g>
    <g id="ytick_2">
     <g id="line2d_29">
      <g>
       <use style="stroke:#000000;stroke-width:0.5;" x="62.96875" xlink:href="#m728421d6d4" y="319.370321429"/>
      </g>
     </g>
     <g id="line2d_30">
      <g>
       <use style="stroke:#000000;stroke-width:0.5;" x="509.36875" xlink:href="#mcb0005524f" y="319.370321429"/>
      </g>
     </g>
     <g id="text_8">
      <!-- 500000 -->
      <defs>
       <path d="
M10.7969 72.9062
L49.5156 72.9062
L49.5156 64.5938
L19.8281 64.5938
L19.8281 46.7344
Q21.9688 47.4688 24.1094 47.8281
Q26.2656 48.1875 28.4219 48.1875
Q40.625 48.1875 47.75 41.5
Q54.8906 34.8125 54.8906 23.3906
Q54.8906 11.625 47.5625 5.09375
Q40.2344 -1.42188 26.9062 -1.42188
Q22.3125 -1.42188 17.5469 -0.640625
Q12.7969 0.140625 7.71875 1.70312
L7.71875 11.625
Q12.1094 9.23438 16.7969 8.0625
Q21.4844 6.89062 26.7031 6.89062
Q35.1562 6.89062 40.0781 11.3281
Q45.0156 15.7656 45.0156 23.3906
Q45.0156 31 40.0781 35.4375
Q35.1562 39.8906 26.7031 39.8906
Q22.75 39.8906 18.8125 39.0156
Q14.8906 38.1406 10.7969 36.2812
z
" id="DejaVuSans-35"/>
      </defs>
      <g transform="translate(14.881875 322.681571429)scale(0.12 -0.12)">
       <use xlink:href="#DejaVuSans-35"/>
       <use x="63.623046875" xlink:href="#DejaVuSans-30"/>
       <use x="127.24609375" xlink:href="#DejaVuSans-30"/>
       <use x="190.869140625" xlink:href="#DejaVuSans-30"/>
       <use x="254.4921875" xlink:href="#DejaVuSans-30"/>
       <use x="318.115234375" xlink:href="#DejaVuSans-30"/>
      </g>
     </g>
    </g>
    <g id="ytick_3">
     <g id="line2d_31">
      <g>
       <use style="stroke:#000000;stroke-width:0.5;" x="62.96875" xlink:href="#m728421d6d4" y="269.998892857"/>
      </g>
     </g>
     <g id="line2d_32">
      <g>
       <use style="stroke:#000000;stroke-width:0.5;" x="509.36875" xlink:href="#mcb0005524f" y="269.998892857"/>
      </g>
     </g>
     <g id="text_9">
      <!-- 1000000 -->
      <g transform="translate(7.63875 273.310142857)scale(0.12 -0.12)">
       <use xlink:href="#DejaVuSans-31"/>
       <use x="63.623046875" xlink:href="#DejaVuSans-30"/>
       <use x="127.24609375" xlink:href="#DejaVuSans-30"/>
       <use x="190.869140625" xlink:href="#DejaVuSans-30"/>
       <use x="254.4921875" xlink:href="#DejaVuSans-30"/>
       <use x="318.115234375" xlink:href="#DejaVuSans-30"/>
       <use x="381.73828125" xlink:href="#DejaVuSans-30"/>
      </g>
     </g>
    </g>
    <g id="ytick_4">
     <g id="line2d_33">
      <g>
       <use style="stroke:#000000;stroke-width:0.5;" x="62.96875" xlink:href="#m728421d6d4" y="220.627464286"/>
      </g>
     </g>
     <g id="line2d_34">
      <g>
       <use style="stroke:#000000;stroke-width:0.5;" x="509.36875" xlink:href="#mcb0005524f" y="220.627464286"/>
      </g>
     </g>
     <g id="text_10">
      <!-- 1500000 -->
      <g transform="translate(7.63875 223.938714286)scale(0.12 -0.12)">
       <use xlink:href="#DejaVuSans-31"/>
       <use x="63.623046875" xlink:href="#DejaVuSans-35"/>
       <use x="127.24609375" xlink:href="#DejaVuSans-30"/>
       <use x="190.869140625" xlink:href="#DejaVuSans-30"/>
       <use x="254.4921875" xlink:href="#DejaVuSans-30"/>
       <use x="318.115234375" xlink:href="#DejaVuSans-30"/>
       <use x="381.73828125" xlink:href="#DejaVuSans-30"/>
      </g>
     </g>
    </g>
    <g id="ytick_5">
     <g id="line2d_35">
      <g>
       <use style="stroke:#000000;stroke-width:0.5;" x="62.96875" xlink:href="#m728421d6d4" y="171.256035714"/>
      </g>
     </g>
     <g id="line2d_36">
      <g>
       <use style="stroke:#000000;stroke-width:0.5;" x="509.36875" xlink:href="#mcb0005524f" y="171.256035714"/>
      </g>
     </g>
     <g id="text_11">
      <!-- 2000000 -->
      <g transform="translate(7.2 174.567285714)scale(0.12 -0.12)">
       <use xlink:href="#DejaVuSans-32"/>
       <use x="63.623046875" xlink:href="#DejaVuSans-30"/>
       <use x="127.24609375" xlink:href="#DejaVuSans-30"/>
       <use x="190.869140625" xlink:href="#DejaVuSans-30"/>
       <use x="254.4921875" xlink:href="#DejaVuSans-30"/>
       <use x="318.115234375" xlink:href="#DejaVuSans-30"/>
       <use x="381.73828125" xlink:href="#DejaVuSans-30"/>
      </g>
     </g>
    </g>
    <g id="ytick_6">
     <g id="line2d_37">
      <g>
       <use style="stroke:#000000;stroke-width:0.5;" x="62.96875" xlink:href="#m728421d6d4" y="121.884607143"/>
      </g>
     </g>
     <g id="line2d_38">
      <g>
       <use style="stroke:#000000;stroke-width:0.5;" x="509.36875" xlink:href="#mcb0005524f" y="121.884607143"/>
      </g>
     </g>
     <g id="text_12">
      <!-- 2500000 -->
      <g transform="translate(7.2 125.195857143)scale(0.12 -0.12)">
       <use xlink:href="#DejaVuSans-32"/>
       <use x="63.623046875" xlink:href="#DejaVuSans-35"/>
       <use x="127.24609375" xlink:href="#DejaVuSans-30"/>
       <use x="190.869140625" xlink:href="#DejaVuSans-30"/>
       <use x="254.4921875" xlink:href="#DejaVuSans-30"/>
       <use x="318.115234375" xlink:href="#DejaVuSans-30"/>
       <use x="381.73828125" xlink:href="#DejaVuSans-30"/>
      </g>
     </g>
    </g>
    <g id="ytick_7">
     <g id="line2d_39">
      <g>
       <use style="stroke:#000000;stroke-width:0.5;" x="62.96875" xlink:href="#m728421d6d4" y="72.5131785714"/>
      </g>
     </g>
     <g id="line2d_40">
      <g>
       <use style="stroke:#000000;stroke-width:0.5;" x="509.36875" xlink:href="#mcb0005524f" y="72.5131785714"/>
      </g>
     </g>
     <g id="text_13">
      <!-- 3000000 -->
      <g transform="translate(7.235625 75.8244285714)scale(0.12 -0.12)">
       <use xlink:href="#DejaVuSans-33"/>
       <use x="63.623046875" xlink:href="#DejaVuSans-30"/>
       <use x="127.24609375" xlink:href="#DejaVuSans-30"/>
       <use x="190.869140625" xlink:href="#DejaVuSans-30"/>
       <use x="254.4921875" xlink:href="#DejaVuSans-30"/>
       <use x="318.115234375" xlink:href="#DejaVuSans-30"/>
       <use x="381.73828125" xlink:href="#DejaVuSans-30"/>
      </g>
     </g>
    </g>
    <g id="ytick_8">
     <g id="line2d_41">
      <g>
       <use style="stroke:#000000;stroke-width:0.5;" x="62.96875" xlink:href="#m728421d6d4" y="23.14175"/>
      </g>
     </g>
     <g id="line2d_42">
      <g>
       <use style="stroke:#000000;stroke-width:0.5;" x="509.36875" xlink:href="#mcb0005524f" y="23.14175"/>
      </g>
     </g>
     <g id="text_14">
      <!-- 3500000 -->
      <g transform="translate(7.235625 26.453)scale(0.12 -0.12)">
       <use xlink:href="#DejaVuSans-33"/>
       <use x="63.623046875" xlink:href="#DejaVuSans-35"/>
       <use x="127.24609375" xlink:href="#DejaVuSans-30"/>
       <use x="190.869140625" xlink:href="#DejaVuSans-30"/>
       <use x="254.4921875" xlink:href="#DejaVuSans-30"/>
       <use x="318.115234375" xlink:href="#DejaVuSans-30"/>
       <use x="381.73828125" xlink:href="#DejaVuSans-30"/>
      </g>
     </g>
    </g>
   </g>
   <g id="text_15">
    <!-- /runtime/count/action_invocation@primary_namespace_bulk_service_action -->
    <defs>
     <path d="
M2.98438 54.6875
L12.5 54.6875
L29.5938 8.79688
L46.6875 54.6875
L56.2031 54.6875
L35.6875 0
L23.4844 0
z
" id="DejaVuSans-76"/>
     <path d="
M25.3906 72.9062
L33.6875 72.9062
L8.29688 -9.28125
L0 -9.28125
z
" id="DejaVuSans-2f"/>
     <path d="
M30.6094 48.3906
Q23.3906 48.3906 19.1875 42.75
Q14.9844 37.1094 14.9844 27.2969
Q14.9844 17.4844 19.1562 11.8438
Q23.3438 6.20312 30.6094 6.20312
Q37.7969 6.20312 41.9844 11.8594
Q46.1875 17.5312 46.1875 27.2969
Q46.1875 37.0156 41.9844 42.7031
Q37.7969 48.3906 30.6094 48.3906
M30.6094 56
Q42.3281 56 49.0156 48.375
Q55.7188 40.7656 55.7188 27.2969
Q55.7188 13.875 49.0156 6.21875
Q42.3281 -1.42188 30.6094 -1.42188
Q18.8438 -1.42188 12.1719 6.21875
Q5.51562 13.875 5.51562 27.2969
Q5.51562 40.7656 12.1719 48.375
Q18.8438 56 30.6094 56" id="DejaVuSans-6f"/>
     <path d="
M54.8906 33.0156
L54.8906 0
L45.9062 0
L45.9062 32.7188
Q45.9062 40.4844 42.875 44.3281
Q39.8438 48.1875 33.7969 48.1875
Q26.5156 48.1875 22.3125 43.5469
Q18.1094 38.9219 18.1094 30.9062
L18.1094 0
L9.07812 0
L9.07812 54.6875
L18.1094 54.6875
L18.1094 46.1875
Q21.3438 51.125 25.7031 53.5625
Q30.0781 56 35.7969 56
Q45.2188 56 50.0469 50.1719
Q54.8906 44.3438 54.8906 33.0156" id="DejaVuSans-6e"/>
     <path d="
M9.07812 75.9844
L18.1094 75.9844
L18.1094 31.1094
L44.9219 54.6875
L56.3906 54.6875
L27.3906 29.1094
L57.625 0
L45.9062 0
L18.1094 26.7031
L18.1094 0
L9.07812 0
z
" id="DejaVuSans-6b"/>
     <path d="
M50.9844 -16.6094
L50.9844 -23.5781
L-0.984375 -23.5781
L-0.984375 -16.6094
z
" id="DejaVuSans-5f"/>
     <path d="
M18.1094 8.20312
L18.1094 -20.7969
L9.07812 -20.7969
L9.07812 54.6875
L18.1094 54.6875
L18.1094 46.3906
Q20.9531 51.2656 25.2656 53.625
Q29.5938 56 35.5938 56
Q45.5625 56 51.7812 48.0938
Q58.0156 40.1875 58.0156 27.2969
Q58.0156 14.4062 51.7812 6.48438
Q45.5625 -1.42188 35.5938 -1.42188
Q29.5938 -1.42188 25.2656 0.953125
Q20.9531 3.32812 18.1094 8.20312
M48.6875 27.2969
Q48.6875 37.2031 44.6094 42.8438
Q40.5312 48.4844 33.4062 48.4844
Q26.2656 48.4844 22.1875 42.8438
Q18.1094 37.2031 18.1094 27.2969
Q18.1094 17.3906 22.1875 11.75
Q26.2656 6.10938 33.4062 6.10938
Q40.5312 6.10938 44.6094 11.75
Q48.6875 17.3906 48.6875 27.2969" id="DejaVuSans-70"/>
     <path d="
M9.42188 75.9844
L18.4062 75.9844
L18.4062 0
L9.42188 0
z
" id="DejaVuSans-6c"/>
     <path d="
M37.2031 26.2188
Q37.2031 19.2344 40.6719 15.25
Q44.1406 11.2812 50.2031 11.2812
Q56.2031 11.2812 59.6406 15.2812
Q63.0938 19.2812 63.0938 26.2188
Q63.0938 33.0625 59.5781 37.0781
Q56.0625 41.1094 50.0938 41.1094
Q44.1875 41.1094 40.6875 37.1094
Q37.2031 33.1094 37.2031 26.2188
M63.8125 11.625
Q60.8906 7.85938 57.1094 6.07812
Q53.3281 4.29688 48.2969 4.29688
Q39.8906 4.29688 34.6406 10.375
Q29.3906 16.4531 29.3906 26.2188
Q29.3906 35.9844 34.6562 42.0781
Q39.9375 48.1875 48.2969 48.1875
Q53.3281 48.1875 57.125 46.3594
Q60.9375 44.5312 63.8125 40.8281
L63.8125 47.2188
L70.7969 47.2188
L70.7969 11.2812
Q77.9375 12.3594 81.9531 17.7969
Q85.9844 23.25 85.9844 31.8906
Q85.9844 37.1094 84.4375 41.7031
Q82.9062 46.2969 79.7812 50.2031
Q74.7031 56.5938 67.4062 59.9844
Q60.1094 63.375 51.5156 63.375
Q45.5156 63.375 39.9844 61.7812
Q34.4688 60.2031 29.7812 57.0781
Q22.125 52.0938 17.7969 44.0156
Q13.4844 35.9375 13.4844 26.5156
Q13.4844 18.75 16.2812 11.9531
Q19.0938 5.17188 24.4219 0
Q29.5469 -5.07812 36.2812 -7.73438
Q43.0156 -10.4062 50.6875 -10.4062
Q56.9844 -10.4062 63.0625 -8.28125
Q69.1406 -6.15625 74.2188 -2.20312
L78.6094 -7.625
Q72.5156 -12.3594 65.3125 -14.875
Q58.1094 -17.3906 50.6875 -17.3906
Q41.6562 -17.3906 33.6406 -14.1875
Q25.6406 -10.9844 19.3906 -4.89062
Q13.1406 1.21875 9.85938 9.25
Q6.59375 17.2812 6.59375 26.5156
Q6.59375 35.4062 9.90625 43.4531
Q13.2344 51.5156 19.3906 57.625
Q25.6875 63.8125 33.9375 67.1094
Q42.1875 70.4062 51.4219 70.4062
Q61.7656 70.4062 70.625 66.1562
Q79.5 61.9219 85.5 54.1094
Q89.1562 49.3125 91.0781 43.7031
Q93.0156 38.0938 93.0156 32.0781
Q93.0156 19.2344 85.25 11.8125
Q77.4844 4.39062 63.8125 4.10938
z
" id="DejaVuSans-40"/>
     <path d="
M8.5 21.5781
L8.5 54.6875
L17.4844 54.6875
L17.4844 21.9219
Q17.4844 14.1562 20.5 10.2656
Q23.5312 6.39062 29.5938 6.39062
Q36.8594 6.39062 41.0781 11.0312
Q45.3125 15.6719 45.3125 23.6875
L45.3125 54.6875
L54.2969 54.6875
L54.2969 0
L45.3125 0
L45.3125 8.40625
Q42.0469 3.42188 37.7188 1
Q33.4062 -1.42188 27.6875 -1.42188
Q18.2656 -1.42188 13.375 4.4375
Q8.5 10.2969 8.5 21.5781
M31.1094 56
z
" id="DejaVuSans-75"/>
     <path d="
M32.1719 -5.07812
Q28.375 -14.8438 24.75 -17.8125
Q21.1406 -20.7969 15.0938 -20.7969
L7.90625 -20.7969
L7.90625 -13.2812
L13.1875 -13.2812
Q16.8906 -13.2812 18.9375 -11.5156
Q21 -9.76562 23.4844 -3.21875
L25.0938 0.875
L2.98438 54.6875
L12.5 54.6875
L29.5938 11.9219
L46.6875 54.6875
L56.2031 54.6875
z
" id="DejaVuSans-79"/>
     <path d="
M34.2812 27.4844
Q23.3906 27.4844 19.1875 25
Q14.9844 22.5156 14.9844 16.5
Q14.9844 11.7188 18.1406 8.90625
Q21.2969 6.10938 26.7031 6.10938
Q34.1875 6.10938 38.7031 11.4062
Q43.2188 16.7031 43.2188 25.4844
L43.2188 27.4844
z

M52.2031 31.2031
L52.2031 0
L43.2188 0
L43.2188 8.29688
Q40.1406 3.32812 35.5469 0.953125
Q30.9531 -1.42188 24.3125 -1.42188
Q15.9219 -1.42188 10.9531 3.29688
Q6 8.01562 6 15.9219
Q6 25.1406 12.1719 29.8281
Q18.3594 34.5156 30.6094 34.5156
L43.2188 34.5156
L43.2188 35.4062
Q43.2188 41.6094 39.1406 45
Q35.0625 48.3906 27.6875 48.3906
Q23 48.3906 18.5469 47.2656
Q14.1094 46.1406 10.0156 43.8906
L10.0156 52.2031
Q14.9375 54.1094 19.5781 55.0469
Q24.2188 56 28.6094 56
Q40.4844 56 46.3438 49.8438
Q52.2031 43.7031 52.2031 31.2031" id="DejaVuSans-61"/>
     <path d="
M48.6875 27.2969
Q48.6875 37.2031 44.6094 42.8438
Q40.5312 48.4844 33.4062 48.4844
Q26.2656 48.4844 22.1875 42.8438
Q18.1094 37.2031 18.1094 27.2969
Q18.1094 17.3906 22.1875 11.75
Q26.2656 6.10938 33.4062 6.10938
Q40.5312 6.10938 44.6094 11.75
Q48.6875 17.3906 48.6875 27.2969
M18.1094 46.3906
Q20.9531 51.2656 25.2656 53.625
Q29.5938 56 35.5938 56
Q45.5625 56 51.7812 48.0938
Q58.0156 40.1875 58.0156 27.2969
Q58.0156 14.4062 51.7812 6.48438
Q45.5625 -1.42188 35.5938 -1.42188
Q29.5938 -1.42188 25.2656 0.953125
Q20.9531 3.32812 18.1094 8.20312
L18.1094 0
L9.07812 0
L9.07812 75.9844
L18.1094 75.9844
z
" id="DejaVuSans-62"/>
     <path d="
M48.7812 52.5938
L48.7812 44.1875
Q44.9688 46.2969 41.1406 47.3438
Q37.3125 48.3906 33.4062 48.3906
Q24.6562 48.3906 19.8125 42.8438
Q14.9844 37.3125 14.9844 27.2969
Q14.9844 17.2812 19.8125 11.7344
Q24.6562 6.20312 33.4062 6.20312
Q37.3125 6.20312 41.1406 7.25
Q44.9688 8.29688 48.7812 10.4062
L48.7812 2.09375
Q45.0156 0.34375 40.9844 -0.53125
Q36.9688 -1.42188 32.4219 -1.42188
Q20.0625 -1.42188 12.7812 6.34375
Q5.51562 14.1094 5.51562 27.2969
Q5.51562 40.6719 12.8594 48.3281
Q20.2188 56 33.0156 56
Q37.1562 56 41.1094 55.1406
Q45.0625 54.2969 48.7812 52.5938" id="DejaVuSans-63"/>
     <path d="
M44.2812 53.0781
L44.2812 44.5781
Q40.4844 46.5312 36.375 47.5
Q32.2812 48.4844 27.875 48.4844
Q21.1875 48.4844 17.8438 46.4375
Q14.5 44.3906 14.5 40.2812
Q14.5 37.1562 16.8906 35.375
Q19.2812 33.5938 26.5156 31.9844
L29.5938 31.2969
Q39.1562 29.25 43.1875 25.5156
Q47.2188 21.7812 47.2188 15.0938
Q47.2188 7.46875 41.1875 3.01562
Q35.1562 -1.42188 24.6094 -1.42188
Q20.2188 -1.42188 15.4531 -0.5625
Q10.6875 0.296875 5.42188 2
L5.42188 11.2812
Q10.4062 8.6875 15.2344 7.39062
Q20.0625 6.10938 24.8125 6.10938
Q31.1562 6.10938 34.5625 8.28125
Q37.9844 10.4531 37.9844 14.4062
Q37.9844 18.0625 35.5156 20.0156
Q33.0625 21.9688 24.7031 23.7812
L21.5781 24.5156
Q13.2344 26.2656 9.51562 29.9062
Q5.8125 33.5469 5.8125 39.8906
Q5.8125 47.6094 11.2812 51.7969
Q16.75 56 26.8125 56
Q31.7812 56 36.1719 55.2656
Q40.5781 54.5469 44.2812 53.0781" id="DejaVuSans-73"/>
     <path d="
M41.1094 46.2969
Q39.5938 47.1719 37.8125 47.5781
Q36.0312 48 33.8906 48
Q26.2656 48 22.1875 43.0469
Q18.1094 38.0938 18.1094 28.8125
L18.1094 0
L9.07812 0
L9.07812 54.6875
L18.1094 54.6875
L18.1094 46.1875
Q20.9531 51.1719 25.4844 53.5781
Q30.0312 56 36.5312 56
Q37.4531 56 38.5781 55.875
Q39.7031 55.7656 41.0625 55.5156
z
" id="DejaVuSans-72"/>
    </defs>
    <g transform="translate(13.105375 18.14175)scale(0.144 -0.144)">
     <use xlink:href="#DejaVuSans-2f"/>
     <use x="33.69140625" xlink:href="#DejaVuSans-72"/>
     <use x="74.8046875" xlink:href="#DejaVuSans-75"/>
     <use x="138.18359375" xlink:href="#DejaVuSans-6e"/>
     <use x="201.5625" xlink:href="#DejaVuSans-74"/>
     <use x="240.771484375" xlink:href="#DejaVuSans-69"/>
     <use x="268.5546875" xlink:href="#DejaVuSans-6d"/>
     <use x="365.966796875" xlink:href="#DejaVuSans-65"/>
     <use x="427.490234375" xlink:href="#DejaVuSans-2f"/>
     <use x="461.181640625" xlink:href="#DejaVuSans-63"/>
     <use x="516.162109375" xlink:href="#DejaVuSans-6f"/>
     <use x="577.34375" xlink:href="#DejaVuSans-75"/>
     <use x="640.72265625" xlink:href="#DejaVuSans-6e"/>
     <use x="704.1015625" xlink:href="#DejaVuSans-74"/>
     <use x="743.310546875" xlink:href="#DejaVuSans-2f"/>
     <use x="777.001953125" xlink:href="#DejaVuSans-61"/>
     <use x="838.28125" xlink:href="#DejaVuSans-63"/>
     <use x="893.26171875" xlink:href="#DejaVuSans-74"/>
     <use x="932.470703125" xlink:href="#DejaVuSans-69"/>
     <use x="960.25390625" xlink:href="#DejaVuSans-6f"/>
     <use x="1021.43554688" xlink:href="#DejaVuSans-6e"/>
     <use x="1084.81445312" xlink:href="#DejaVuSans-5f"/>
     <use x="1134.81445312" xlink:href="#DejaVuSans-69"/>
     <use x="1162.59765625" xlink:href="#DejaVuSans-6e"/>
     <use x="1225.9765625" xlink:href="#DejaVuSans-76"/>
     <use x="1285.15625" xlink:href="#DejaVuSans-6f"/>
     <use x="1346.33789062" xlink:href="#DejaVuSans-63"/>
     <use x="1401.31835938" xlink:href="#DejaVuSans-61"/>
     <use x="1462.59765625" xlink:href="#DejaVuSans-74"/>
     <use x="1501.80664062" xlink:href="#DejaVuSans-69"/>
     <use x="1529.58984375" xlink:href="#DejaVuSans-6f"/>
     <use x="1590.77148438" xlink:href="#DejaVuSans-6e"/>
     <use x="1654.15039062" xlink:href="#DejaVuSans-40"/>
     <use x="1754.15039062" xlink:href="#DejaVuSans-70"/>
     <use x="1817.62695312" xlink:href="#DejaVuSans-72"/>
     <use x="1858.74023438" xlink:href="#DejaVuSans-69"/>
     <use x="1886.5234375" xlink:href="#DejaVuSans-6d"/>
     <use x="1983.93554688" xlink:href="#DejaVuSans-61"/>
     <use x="2045.21484375" xlink:href="#DejaVuSans-72"/>
     <use x="2086.328125" xlink:href="#DejaVuSans-79"/>
     <use x="2145.5078125" xlink:href="#DejaVuSans-5f"/>
     <use x="2195.5078125" xlink:href="#DejaVuSans-6e"/>
     <use x="2258.88671875" xlink:href="#DejaVuSans-61"/>
     <use x="2320.16601562" xlink:href="#DejaVuSans-6d"/>
     <use x="2417.578125" xlink:href="#DejaVuSans-65"/>
     <use x="2479.1015625" xlink:href="#DejaVuSans-73"/>
     <use x="2531.20117188" xlink:href="#DejaVuSans-70"/>
     <use x="2594.67773438" xlink:href="#DejaVuSans-61"/>
     <use x="2655.95703125" xlink:href="#DejaVuSans-63"/>
     <use x="2710.9375" xlink:href="#DejaVuSans-65"/>
     <use x="2772.4609375" xlink:href="#DejaVuSans-5f"/>
     <use x="2822.4609375" xlink:href="#DejaVuSans-62"/>
     <use x="2885.9375" xlink:href="#DejaVuSans-75"/>
     <use x="2949.31640625" xlink:href="#DejaVuSans-6c"/>
     <use x="2977.09960938" xlink:href="#DejaVuSans-6b"/>
     <use x="3035.00976562" xlink:href="#DejaVuSans-5f"/>
     <use x="3085.00976562" xlink:href="#DejaVuSans-73"/>
     <use x="3137.109375" xlink:href="#DejaVuSans-65"/>
     <use x="3198.6328125" xlink:href="#DejaVuSans-72"/>
     <use x="3239.74609375" xlink:href="#DejaVuSans-76"/>
     <use x="3298.92578125" xlink:href="#DejaVuSans-69"/>
     <use x="3326.70898438" xlink:href="#DejaVuSans-63"/>
     <use x="3381.68945312" xlink:href="#DejaVuSans-65"/>
     <use x="3443.21289062" xlink:href="#DejaVuSans-5f"/>
     <use x="3493.21289062" xlink:href="#DejaVuSans-61"/>
     <use x="3554.4921875" xlink:href="#DejaVuSans-63"/>
     <use x="3609.47265625" xlink:href="#DejaVuSans-74"/>
     <use x="3648.68164062" xlink:href="#DejaVuSans-69"/>
     <use x="3676.46484375" xlink:href="#DejaVuSans-6f"/>
     <use x="3737.64648438" xlink:href="#DejaVuSans-6e"/>
    </g>
   </g>
   <g id="legend_1">
    <g id="patch_7">
     <path d="
M516.569 367.194
L648.358 367.194
L648.358 24.6897
L516.569 24.6897
z
" style="fill:#ffffff;stroke:#000000;stroke-linejoin:miter;"/>
    </g>
    <g id="line2d_43">
     <path d="
M526.649 36.3515
L546.809 36.3515" style="fill:none;stroke:#0000ff;stroke-linecap:square;"/>
    </g>
    <g id="line2d_44"/>
    <g id="text_16">
     <!-- locality#0 -->
     <defs>
      <path d="
M51.125 44
L36.9219 44
L32.8125 27.6875
L47.125 27.6875
z

M43.7969 71.7812
L38.7188 51.5156
L52.9844 51.5156
L58.1094 71.7812
L65.9219 71.7812
L60.8906 51.5156
L76.125 51.5156
L76.125 44
L58.9844 44
L54.9844 27.6875
L70.5156 27.6875
L70.5156 20.2188
L53.0781 20.2188
L48 0
L40.1875 0
L45.2188 20.2188
L30.9062 20.2188
L25.875 0
L18.0156 0
L23.0938 20.2188
L7.71875 20.2188
L7.71875 27.6875
L24.9062 27.6875
L29 44
L13.2812 44
L13.2812 51.5156
L30.9062 51.5156
L35.8906 71.7812
z
" id="DejaVuSans-23"/>
     </defs>
     <g transform="translate(562.64875 41.3915)scale(0.144 -0.144)">
      <use xlink:href="#DejaVuSans-6c"/>
      <use x="27.783203125" xlink:href="#DejaVuSans-6f"/>
      <use x="88.96484375" xlink:href="#DejaVuSans-63"/>
      <use x="143.9453125" xlink:href="#DejaVuSans-61"/>
      <use x="205.224609375" xlink:href="#DejaVuSans-6c"/>
      <use x="233.0078125" xlink:href="#DejaVuSans-69"/>
      <use x="260.791015625" xlink:href="#DejaVuSans-74"/>
      <use x="300.0" xlink:href="#DejaVuSans-79"/>
      <use x="359.1796875" xlink:href="#DejaVuSans-23"/>
      <use x="442.96875" xlink:href="#DejaVuSans-30"/>
     </g>
    </g>
    <g id="line2d_45">
     <path d="
M526.649 57.488
L546.809 57.488" style="fill:none;stroke:#008000;stroke-linecap:square;"/>
    </g>
    <g id="line2d_46"/>
    <g id="text_17">
     <!-- locality#1 -->
     <g transform="translate(562.64875 62.528)scale(0.144 -0.144)">
      <use xlink:href="#DejaVuSans-6c"/>
      <use x="27.783203125" xlink:href="#DejaVuSans-6f"/>
      <use x="88.96484375" xlink:href="#DejaVuSans-63"/>
      <use x="143.9453125" xlink:href="#DejaVuSans-61"/>
      <use x="205.224609375" xlink:href="#DejaVuSans-6c"/>
      <use x="233.0078125" xlink:href="#DejaVuSans-69"/>
      <use x="260.791015625" xlink:href="#DejaVuSans-74"/>
      <use x="300.0" xlink:href="#DejaVuSans-79"/>
      <use x="359.1796875" xlink:href="#DejaVuSans-23"/>
      <use x="442.96875" xlink:href="#DejaVuSans-31"/>
     </g>
    </g>
    <g id="line2d_47">
     <path d="
M526.649 78.6245
L546.809 78.6245" style="fill:none;stroke:#ff0000;stroke-linecap:square;"/>
    </g>
    <g id="line2d_48"/>
    <g id="text_18">
     <!-- locality#10 -->
     <g transform="translate(562.64875 83.6645)scale(0.144 -0.144)">
      <use xlink:href="#DejaVuSans-6c"/>
      <use x="27.783203125" xlink:href="#DejaVuSans-6f"/>
      <use x="88.96484375" xlink:href="#DejaVuSans-63"/>
      <use x="143.9453125" xlink:href="#DejaVuSans-61"/>
      <use x="205.224609375" xlink:href="#DejaVuSans-6c"/>
      <use x="233.0078125" xlink:href="#DejaVuSans-69"/>
      <use x="260.791015625" xlink:href="#DejaVuSans-74"/>
      <use x="300.0" xlink:href="#DejaVuSans-79"/>
      <use x="359.1796875" xlink:href="#DejaVuSans-23"/>
      <use x="442.96875" xlink:href="#DejaVuSans-31"/>
      <use x="506.591796875" xlink:href="#DejaVuSans-30"/>
     </g>
    </g>
    <g id="line2d_49">
     <path d="
M526.649 99.761
L546.809 99.761" style="fill:none;stroke:#00bfbf;stroke-linecap:square;"/>
    </g>
    <g id="line2d_50"/>
    <g id="text_19">
     <!-- locality#11 -->
     <g transform="translate(562.64875 104.801)scale(0.144 -0.144)">
      <use xlink:href="#DejaVuSans-6c"/>
      <use x="27.783203125" xlink:href="#DejaVuSans-6f"/>
      <use x="88.96484375" xlink:href="#DejaVuSans-63"/>
      <use x="143.9453125" xlink:href="#DejaVuSans-61"/>
      <use x="205.224609375" xlink:href="#DejaVuSans-6c"/>
      <use x="233.0078125" xlink:href="#DejaVuSans-69"/>
      <use x="260.791015625" xlink:href="#DejaVuSans-74"/>
      <use x="300.0" xlink:href="#DejaVuSans-79"/>
      <use x="359.1796875" xlink:href="#DejaVuSans-23"/>
      <use x="442.96875" xlink:href="#DejaVuSans-31"/>
      <use x="506.591796875" xlink:href="#DejaVuSans-31"/>
     </g>
    </g>
    <g id="line2d_51">
     <path d="
M526.649 120.897
L546.809 120.897" style="fill:none;stroke:#bf00bf;stroke-linecap:square;"/>
    </g>
    <g id="line2d_52"/>
    <g id="text_20">
     <!-- locality#12 -->
     <g transform="translate(562.64875 125.9375)scale(0.144 -0.144)">
      <use xlink:href="#DejaVuSans-6c"/>
      <use x="27.783203125" xlink:href="#DejaVuSans-6f"/>
      <use x="88.96484375" xlink:href="#DejaVuSans-63"/>
      <use x="143.9453125" xlink:href="#DejaVuSans-61"/>
      <use x="205.224609375" xlink:href="#DejaVuSans-6c"/>
      <use x="233.0078125" xlink:href="#DejaVuSans-69"/>
      <use x="260.791015625" xlink:href="#DejaVuSans-74"/>
      <use x="300.0" xlink:href="#DejaVuSans-79"/>
      <use x="359.1796875" xlink:href="#DejaVuSans-23"/>
      <use x="442.96875" xlink:href="#DejaVuSans-31"/>
      <use x="506.591796875" xlink:href="#DejaVuSans-32"/>
     </g>
    </g>
    <g id="line2d_53">
     <path d="
M526.649 142.034
L546.809 142.034" style="fill:none;stroke:#bfbf00;stroke-linecap:square;"/>
    </g>
    <g id="line2d_54"/>
    <g id="text_21">
     <!-- locality#13 -->
     <g transform="translate(562.64875 147.074)scale(0.144 -0.144)">
      <use xlink:href="#DejaVuSans-6c"/>
      <use x="27.783203125" xlink:href="#DejaVuSans-6f"/>
      <use x="88.96484375" xlink:href="#DejaVuSans-63"/>
      <use x="143.9453125" xlink:href="#DejaVuSans-61"/>
      <use x="205.224609375" xlink:href="#DejaVuSans-6c"/>
      <use x="233.0078125" xlink:href="#DejaVuSans-69"/>
      <use x="260.791015625" xlink:href="#DejaVuSans-74"/>
      <use x="300.0" xlink:href="#DejaVuSans-79"/>
      <use x="359.1796875" xlink:href="#DejaVuSans-23"/>
      <use x="442.96875" xlink:href="#DejaVuSans-31"/>
      <use x="506.591796875" xlink:href="#DejaVuSans-33"/>
     </g>
    </g>
    <g id="line2d_55">
     <path d="
M526.649 163.17
L546.809 163.17" style="fill:none;stroke:#000000;stroke-linecap:square;"/>
    </g>
    <g id="line2d_56"/>
    <g id="text_22">
     <!-- locality#14 -->
     <g transform="translate(562.64875 168.2105)scale(0.144 -0.144)">
      <use xlink:href="#DejaVuSans-6c"/>
      <use x="27.783203125" xlink:href="#DejaVuSans-6f"/>
      <use x="88.96484375" xlink:href="#DejaVuSans-63"/>
      <use x="143.9453125" xlink:href="#DejaVuSans-61"/>
      <use x="205.224609375" xlink:href="#DejaVuSans-6c"/>
      <use x="233.0078125" xlink:href="#DejaVuSans-69"/>
      <use x="260.791015625" xlink:href="#DejaVuSans-74"/>
      <use x="300.0" xlink:href="#DejaVuSans-79"/>
      <use x="359.1796875" xlink:href="#DejaVuSans-23"/>
      <use x="442.96875" xlink:href="#DejaVuSans-31"/>
      <use x="506.591796875" xlink:href="#DejaVuSans-34"/>
     </g>
    </g>
    <g id="line2d_57">
     <path d="
M526.649 184.307
L546.809 184.307" style="fill:none;stroke:#0000ff;stroke-linecap:square;"/>
    </g>
    <g id="line2d_58"/>
    <g id="text_23">
     <!-- locality#15 -->
     <g transform="translate(562.64875 189.347)scale(0.144 -0.144)">
      <use xlink:href="#DejaVuSans-6c"/>
      <use x="27.783203125" xlink:href="#DejaVuSans-6f"/>
      <use x="88.96484375" xlink:href="#DejaVuSans-63"/>
      <use x="143.9453125" xlink:href="#DejaVuSans-61"/>
      <use x="205.224609375" xlink:href="#DejaVuSans-6c"/>
      <use x="233.0078125" xlink:href="#DejaVuSans-69"/>
      <use x="260.791015625" xlink:href="#DejaVuSans-74"/>
      <use x="300.0" xlink:href="#DejaVuSans-79"/>
      <use x="359.1796875" xlink:href="#DejaVuSans-23"/>
      <use x="442.96875" xlink:href="#DejaVuSans-31"/>
      <use x="506.591796875" xlink:href="#DejaVuSans-35"/>
     </g>
    </g>
    <g id="line2d_59">
     <path d="
M526.649 205.443
L546.809 205.443" style="fill:none;stroke:#008000;stroke-linecap:square;"/>
    </g>
    <g id="line2d_60"/>
    <g id="text_24">
     <!-- locality#2 -->
     <g transform="translate(562.64875 210.4835)scale(0.144 -0.144)">
      <use xlink:href="#DejaVuSans-6c"/>
      <use x="27.783203125" xlink:href="#DejaVuSans-6f"/>
      <use x="88.96484375" xlink:href="#DejaVuSans-63"/>
      <use x="143.9453125" xlink:href="#DejaVuSans-61"/>
      <use x="205.224609375" xlink:href="#DejaVuSans-6c"/>
      <use x="233.0078125" xlink:href="#DejaVuSans-69"/>
      <use x="260.791015625" xlink:href="#DejaVuSans-74"/>
      <use x="300.0" xlink:href="#DejaVuSans-79"/>
      <use x="359.1796875" xlink:href="#DejaVuSans-23"/>
      <use x="442.96875" xlink:href="#DejaVuSans-32"/>
     </g>
    </g>
    <g id="line2d_61">
     <path d="
M526.649 226.58
L546.809 226.58" style="fill:none;stroke:#ff0000;stroke-linecap:square;"/>
    </g>
    <g id="line2d_62"/>
    <g id="text_25">
     <!-- locality#3 -->
     <g transform="translate(562.64875 231.62)scale(0.144 -0.144)">
      <use xlink:href="#DejaVuSans-6c"/>
      <use x="27.783203125" xlink:href="#DejaVuSans-6f"/>
      <use x="88.96484375" xlink:href="#DejaVuSans-63"/>
      <use x="143.9453125" xlink:href="#DejaVuSans-61"/>
      <use x="205.224609375" xlink:href="#DejaVuSans-6c"/>
      <use x="233.0078125" xlink:href="#DejaVuSans-69"/>
      <use x="260.791015625" xlink:href="#DejaVuSans-74"/>
      <use x="300.0" xlink:href="#DejaVuSans-79"/>
      <use x="359.1796875" xlink:href="#DejaVuSans-23"/>
      <use x="442.96875" xlink:href="#DejaVuSans-33"/>
     </g>
    </g>
    <g id="line2d_63">
     <path d="
M526.649 247.716
L546.809 247.716" style="fill:none;stroke:#00bfbf;stroke-linecap:square;"/>
    </g>
    <g id="line2d_64"/>
    <g id="text_26">
     <!-- locality#4 -->
     <g transform="translate(562.64875 252.7565)scale(0.144 -0.144)">
      <use xlink:href="#DejaVuSans-6c"/>
      <use x="27.783203125" xlink:href="#DejaVuSans-6f"/>
      <use x="88.96484375" xlink:href="#DejaVuSans-63"/>
      <use x="143.9453125" xlink:href="#DejaVuSans-61"/>
      <use x="205.224609375" xlink:href="#DejaVuSans-6c"/>
      <use x="233.0078125" xlink:href="#DejaVuSans-69"/>
      <use x="260.791015625" xlink:href="#DejaVuSans-74"/>
      <use x="300.0" xlink:href="#DejaVuSans-79"/>
      <use x="359.1796875" xlink:href="#DejaVuSans-23"/>
      <use x="442.96875" xlink:href="#DejaVuSans-34"/>
     </g>
    </g>
    <g id="line2d_65">
     <path d="
M526.649 268.853
L546.809 268.853" style="fill:none;stroke:#bf00bf;stroke-linecap:square;"/>
    </g>
    <g id="line2d_66"/>
    <g id="text_27">
     <!-- locality#5 -->
     <g transform="translate(562.64875 273.893)scale(0.144 -0.144)">
      <use xlink:href="#DejaVuSans-6c"/>
      <use x="27.783203125" xlink:href="#DejaVuSans-6f"/>
      <use x="88.96484375" xlink:href="#DejaVuSans-63"/>
      <use x="143.9453125" xlink:href="#DejaVuSans-61"/>
      <use x="205.224609375" xlink:href="#DejaVuSans-6c"/>
      <use x="233.0078125" xlink:href="#DejaVuSans-69"/>
      <use x="260.791015625" xlink:href="#DejaVuSans-74"/>
      <use x="300.0" xlink:href="#DejaVuSans-79"/>
      <use x="359.1796875" xlink:href="#DejaVuSans-23"/>
      <use x="442.96875" xlink:href="#DejaVuSans-35"/>
     </g>
    </g>
    <g id="line2d_67">
     <path d="
M526.649 289.989
L546.809 289.989" style="fill:none;stroke:#bfbf00;stroke-linecap:square;"/>
    </g>
    <g id="line2d_68"/>
    <g id="text_28">
     <!-- locality#6 -->
     <defs>
      <path d="
M33.0156 40.375
Q26.375 40.375 22.4844 35.8281
Q18.6094 31.2969 18.6094 23.3906
Q18.6094 15.5312 22.4844 10.9531
Q26.375 6.39062 33.0156 6.39062
Q39.6562 6.39062 43.5312 10.9531
Q47.4062 15.5312 47.4062 23.3906
Q47.4062 31.2969 43.5312 35.8281
Q39.6562 40.375 33.0156 40.375
M52.5938 71.2969
L52.5938 62.3125
Q48.875 64.0625 45.0938 64.9844
Q41.3125 65.9219 37.5938 65.9219
Q27.8281 65.9219 22.6719 59.3281
Q17.5312 52.7344 16.7969 39.4062
Q19.6719 43.6562 24.0156 45.9219
Q28.375 48.1875 33.5938 48.1875
Q44.5781 48.1875 50.9531 41.5156
Q57.3281 34.8594 57.3281 23.3906
Q57.3281 12.1562 50.6875 5.35938
Q44.0469 -1.42188 33.0156 -1.42188
Q20.3594 -1.42188 13.6719 8.26562
Q6.98438 17.9688 6.98438 36.375
Q6.98438 53.6562 15.1875 63.9375
Q23.3906 74.2188 37.2031 74.2188
Q40.9219 74.2188 44.7031 73.4844
Q48.4844 72.75 52.5938 71.2969" id="DejaVuSans-36"/>
     </defs>
     <g transform="translate(562.64875 295.0295)scale(0.144 -0.144)">
      <use xlink:href="#DejaVuSans-6c"/>
      <use x="27.783203125" xlink:href="#DejaVuSans-6f"/>
      <use x="88.96484375" xlink:href="#DejaVuSans-63"/>
      <use x="143.9453125" xlink:href="#DejaVuSans-61"/>
      <use x="205.224609375" xlink:href="#DejaVuSans-6c"/>
      <use x="233.0078125" xlink:href="#DejaVuSans-69"/>
      <use x="260.791015625" xlink:href="#DejaVuSans-74"/>
      <use x="300.0" xlink:href="#DejaVuSans-79"/>
      <use x="359.1796875" xlink:href="#DejaVuSans-23"/>
      <use x="442.96875" xlink:href="#DejaVuSans-36"/>
     </g>
    </g>
    <g id="line2d_69">
     <path d="
M526.649 311.126
L546.809 311.126" style="fill:none;stroke:#000000;stroke-linecap:square;"/>
    </g>
    <g id="line2d_70"/>
    <g id="text_29">
     <!-- locality#7 -->
     <defs>
      <path d="
M8.20312 72.9062
L55.0781 72.9062
L55.0781 68.7031
L28.6094 0
L18.3125 0
L43.2188 64.5938
L8.20312 64.5938
z
" id="DejaVuSans-37"/>
     </defs>
     <g transform="translate(562.64875 316.166)scale(0.144 -0.144)">
      <use xlink:href="#DejaVuSans-6c"/>
      <use x="27.783203125" xlink:href="#DejaVuSans-6f"/>
      <use x="88.96484375" xlink:href="#DejaVuSans-63"/>
      <use x="143.9453125" xlink:href="#DejaVuSans-61"/>
      <use x="205.224609375" xlink:href="#DejaVuSans-6c"/>
      <use x="233.0078125" xlink:href="#DejaVuSans-69"/>
      <use x="260.791015625" xlink:href="#DejaVuSans-74"/>
      <use x="300.0" xlink:href="#DejaVuSans-79"/>
      <use x="359.1796875" xlink:href="#DejaVuSans-23"/>
      <use x="442.96875" xlink:href="#DejaVuSans-37"/>
     </g>
    </g>
    <g id="line2d_71">
     <path d="
M526.649 332.262
L546.809 332.262" style="fill:none;stroke:#0000ff;stroke-linecap:square;"/>
    </g>
    <g id="line2d_72"/>
    <g id="text_30">
     <!-- locality#8 -->
     <defs>
      <path d="
M31.7812 34.625
Q24.75 34.625 20.7188 30.8594
Q16.7031 27.0938 16.7031 20.5156
Q16.7031 13.9219 20.7188 10.1562
Q24.75 6.39062 31.7812 6.39062
Q38.8125 6.39062 42.8594 10.1719
Q46.9219 13.9688 46.9219 20.5156
Q46.9219 27.0938 42.8906 30.8594
Q38.875 34.625 31.7812 34.625
M21.9219 38.8125
Q15.5781 40.375 12.0312 44.7188
Q8.5 49.0781 8.5 55.3281
Q8.5 64.0625 14.7188 69.1406
Q20.9531 74.2188 31.7812 74.2188
Q42.6719 74.2188 48.875 69.1406
Q55.0781 64.0625 55.0781 55.3281
Q55.0781 49.0781 51.5312 44.7188
Q48 40.375 41.7031 38.8125
Q48.8281 37.1562 52.7969 32.3125
Q56.7812 27.4844 56.7812 20.5156
Q56.7812 9.90625 50.3125 4.23438
Q43.8438 -1.42188 31.7812 -1.42188
Q19.7344 -1.42188 13.25 4.23438
Q6.78125 9.90625 6.78125 20.5156
Q6.78125 27.4844 10.7812 32.3125
Q14.7969 37.1562 21.9219 38.8125
M18.3125 54.3906
Q18.3125 48.7344 21.8438 45.5625
Q25.3906 42.3906 31.7812 42.3906
Q38.1406 42.3906 41.7188 45.5625
Q45.3125 48.7344 45.3125 54.3906
Q45.3125 60.0625 41.7188 63.2344
Q38.1406 66.4062 31.7812 66.4062
Q25.3906 66.4062 21.8438 63.2344
Q18.3125 60.0625 18.3125 54.3906" id="DejaVuSans-38"/>
     </defs>
     <g transform="translate(562.64875 337.3025)scale(0.144 -0.144)">
      <use xlink:href="#DejaVuSans-6c"/>
      <use x="27.783203125" xlink:href="#DejaVuSans-6f"/>
      <use x="88.96484375" xlink:href="#DejaVuSans-63"/>
      <use x="143.9453125" xlink:href="#DejaVuSans-61"/>
      <use x="205.224609375" xlink:href="#DejaVuSans-6c"/>
      <use x="233.0078125" xlink:href="#DejaVuSans-69"/>
      <use x="260.791015625" xlink:href="#DejaVuSans-74"/>
      <use x="300.0" xlink:href="#DejaVuSans-79"/>
      <use x="359.1796875" xlink:href="#DejaVuSans-23"/>
      <use x="442.96875" xlink:href="#DejaVuSans-38"/>
     </g>
    </g>
    <g id="line2d_73">
     <path d="
M526.649 353.399
L546.809 353.399" style="fill:none;stroke:#008000;stroke-linecap:square;"/>
    </g>
    <g id="line2d_74"/>
    <g id="text_31">
     <!-- locality#9 -->
     <defs>
      <path d="
M10.9844 1.51562
L10.9844 10.5
Q14.7031 8.73438 18.5 7.8125
Q22.3125 6.89062 25.9844 6.89062
Q35.75 6.89062 40.8906 13.4531
Q46.0469 20.0156 46.7812 33.4062
Q43.9531 29.2031 39.5938 26.9531
Q35.25 24.7031 29.9844 24.7031
Q19.0469 24.7031 12.6719 31.3125
Q6.29688 37.9375 6.29688 49.4219
Q6.29688 60.6406 12.9375 67.4219
Q19.5781 74.2188 30.6094 74.2188
Q43.2656 74.2188 49.9219 64.5156
Q56.5938 54.8281 56.5938 36.375
Q56.5938 19.1406 48.4062 8.85938
Q40.2344 -1.42188 26.4219 -1.42188
Q22.7031 -1.42188 18.8906 -0.6875
Q15.0938 0.046875 10.9844 1.51562
M30.6094 32.4219
Q37.25 32.4219 41.125 36.9531
Q45.0156 41.5 45.0156 49.4219
Q45.0156 57.2812 41.125 61.8438
Q37.25 66.4062 30.6094 66.4062
Q23.9688 66.4062 20.0938 61.8438
Q16.2188 57.2812 16.2188 49.4219
Q16.2188 41.5 20.0938 36.9531
Q23.9688 32.4219 30.6094 32.4219" id="DejaVuSans-39"/>
     </defs>
     <g transform="translate(562.64875 358.439)scale(0.144 -0.144)">
      <use xlink:href="#DejaVuSans-6c"/>
      <use x="27.783203125" xlink:href="#DejaVuSans-6f"/>
      <use x="88.96484375" xlink:href="#DejaVuSans-63"/>
      <use x="143.9453125" xlink:href="#DejaVuSans-61"/>
      <use x="205.224609375" xlink:href="#DejaVuSans-6c"/>
      <use x="233.0078125" xlink:href="#DejaVuSans-69"/>
      <use x="260.791015625" xlink:href="#DejaVuSans-74"/>
      <use x="300.0" xlink:href="#DejaVuSans-79"/>
      <use x="359.1796875" xlink:href="#DejaVuSans-23"/>
      <use x="442.96875" xlink:href="#DejaVuSans-39"/>
     </g>
    </g>
   </g>
  </g>
 </g>
 <defs>
  <clipPath id="p0e537c530d">
   <rect height="345.6" width="446.4" x="62.96875" y="23.14175"/>
  </clipPath>
 </defs>
</svg>
