<?xml version="1.0" encoding="utf-8" standalone="no"?>
<!DOCTYPE svg PUBLIC "-//W3C//DTD SVG 1.1//EN"
  "http://www.w3.org/Graphics/SVG/1.1/DTD/svg11.dtd">
<!-- Created with matplotlib (http://matplotlib.org/) -->
<svg height="408pt" version="1.1" viewBox="0 0 621 408" width="621pt" xmlns="http://www.w3.org/2000/svg" xmlns:xlink="http://www.w3.org/1999/xlink">
 <defs>
  <style type="text/css">
*{stroke-linecap:butt;stroke-linejoin:round;}
  </style>
 </defs>
 <g id="figure_1">
  <g id="patch_1">
   <path d="
M0 408.169
L621.409 408.169
L621.409 0
L0 0
z
" style="fill:#ffffff;"/>
  </g>
  <g id="axes_1">
   <g id="patch_2">
    <path d="
M28.8194 368.742
L475.219 368.742
L475.219 23.1417
L28.8194 23.1417
z
" style="fill:#ffffff;"/>
   </g>
   <g id="line2d_1">
    <path clip-path="url(#p8c776b0f9c)" d="
M28.8194 368.684
L33.3968 366.159
L39.5664 362.642
L41.7556 361.343
L43.9448 360.089
L46.5321 358.616
L48.9203 357.26
L51.3085 355.884
L53.0997 354.833
L54.8909 353.802
L58.6723 351.627
L65.6379 347.693
L68.0262 346.283
L74.1957 342.795
L75.3899 342.083
L77.7781 340.699
L79.1712 339.887
L85.1418 336.358
L86.1369 335.776
L89.5202 333.863
L98.8741 328.358
L100.068 327.644
L102.257 326.395
L124.548 313.114
L125.742 312.373
L133.702 307.433
L136.887 305.403
L139.076 304.015
L147.236 298.659
L157.585 291.409
L171.715 281.711
L172.909 280.903
L174.899 279.632
L179.079 277.011
L184.253 273.858
L187.04 272.287
L189.627 270.884
L192.214 269.496
L193.209 268.931
L194.602 268.183
L195.796 267.526
L201.17 264.761
L205.15 262.835
L209.131 260.897
L213.907 258.608
L217.888 256.685
L240.576 245.641
L245.153 243.197
L276.001 226.627
L280.977 224.236
L350.434 191.88
L356.803 189.245
L364.764 186.012
L385.263 177.767
L414.917 165.611
L429.047 159.951
L468.453 143.927
L471.637 142.577
L475.219 141.127
L475.219 141.127" style="fill:none;stroke:#0000ff;stroke-linecap:square;"/>
   </g>
   <g id="line2d_2">
    <path clip-path="url(#p8c776b0f9c)" d="
M28.8194 368.739
L48.1242 359.988
L49.5174 359.356
L51.9056 358.265
L54.0948 357.259
L96.6849 337.652
L100.068 336.053
L102.058 335.125
L104.248 334.084
L106.636 332.983
L110.019 331.366
L111.611 330.62
L116.985 328.02
L133.901 319.655
L137.086 318.045
L141.066 316.041
L148.032 312.218
L150.619 310.718
L154.002 308.752
L169.327 300.155
L170.72 299.361
L176.094 296.52
L179.676 294.702
L181.666 293.749
L189.03 290.382
L190.622 289.706
L197.787 286.663
L200.175 285.716
L210.325 281.909
L214.703 280.272
L220.276 278.228
L227.241 275.652
L236.595 272.101
L238.387 271.386
L240.377 270.567
L248.736 267.062
L253.313 265.116
L262.07 261.402
L266.448 259.435
L268.438 258.604
L275.404 255.7
L278.588 254.481
L279.783 254.038
L289.534 250.534
L305.058 244.981
L346.255 230.184
L348.444 229.453
L350.036 228.923
L375.909 221.062
L386.457 217.894
L404.369 212.346
L406.16 211.787
L467.259 193.468
L469.448 192.723
L475.219 190.968
L475.219 190.968" style="fill:none;stroke:#008000;stroke-linecap:square;"/>
   </g>
   <g id="line2d_3">
    <path clip-path="url(#p8c776b0f9c)" d="
M28.8194 368.739
L37.7752 360.917
L39.1684 359.651
L40.9595 358.071
L42.1537 356.996
L51.9056 348.492
L54.0948 346.505
L56.8811 344.037
L58.6723 342.478
L61.0605 340.379
L62.0556 339.462
L81.1614 322.652
L87.9281 316.568
L99.2722 306.468
L100.267 305.583
L101.66 304.379
L103.054 303.122
L107.83 298.885
L112.009 295.109
L113.004 294.22
L114.796 292.664
L126.14 282.153
L128.528 279.904
L130.717 277.805
L134.897 273.784
L136.887 271.791
L139.275 269.507
L148.032 260.417
L149.624 258.528
L151.216 256.807
L152.41 255.448
L154.201 253.482
L156.59 250.896
L176.293 229.96
L179.079 227.342
L182.86 223.723
L189.03 218.245
L189.826 217.617
L191.816 215.943
L194.005 214.104
L194.801 213.392
L200.175 209.195
L232.217 186.023
L235.6 183.514
L236.595 182.726
L237.59 181.924
L239.183 180.676
L240.377 179.678
L243.959 176.709
L244.954 175.913
L255.502 167.12
L256.298 166.452
L272.618 152.68
L273.613 151.884
L276.001 149.996
L278.389 148.265
L279.783 147.251
L291.326 139.184
L300.68 132.779
L305.058 129.735
L318.591 120.338
L335.906 108.109
L339.687 105.424
L340.483 104.854
L342.275 103.592
L345.061 101.622
L346.852 100.489
L347.847 99.7993
L351.628 97.4492
L352.624 96.8309
L355.609 95.0386
L357.002 94.1712
L360.584 92.0593
L361.977 91.2321
L367.749 87.8651
L376.506 82.7782
L379.889 80.7726
L385.064 77.7581
L387.253 76.4649
L392.626 73.32
L394.219 72.3984
L396.01 71.2925
L401.582 67.8624
L405.762 65.3193
L411.533 62.0189
L440.789 45.2083
L446.959 41.6889
L453.327 38.0313
L457.905 35.3875
L460.492 33.9043
L467.458 29.7513
L471.239 27.3638
L475.219 25.0598
L475.219 25.0598" style="fill:none;stroke:#ff0000;stroke-linecap:square;"/>
   </g>
   <g id="line2d_4">
    <path clip-path="url(#p8c776b0f9c)" d="
M28.8194 368.74
L30.2125 367.546
L33.3968 364.875
L37.5762 361.372
L39.3674 359.822
L42.5517 357.093
L47.5272 352.855
L48.9203 351.668
L50.7115 350.18
L52.9007 348.298
L53.8958 347.428
L60.8615 341.574
L63.8467 339.075
L85.1418 320.92
L86.1369 320.042
L91.7094 315.398
L92.7045 314.475
L121.164 290.077
L123.951 287.539
L128.329 283.572
L130.319 281.729
L132.508 279.738
L140.071 272.618
L142.061 270.788
L147.037 265.665
L149.823 262.568
L151.216 261.135
L153.405 258.878
L163.157 248.752
L165.546 246.29
L168.332 243.386
L174.501 237.114
L176.094 235.621
L180.273 231.752
L182.661 229.562
L185.447 227.148
L191.02 222.55
L193.01 220.947
L193.806 220.309
L197.986 217.058
L201.369 214.645
L203.558 213.107
L211.917 207.272
L213.111 206.435
L216.295 204.282
L217.291 203.557
L236.993 189.94
L264.259 168.328
L265.652 167.109
L268.836 164.601
L271.623 162.387
L279.783 156.433
L294.112 146.819
L305.655 139.158
L309.635 136.511
L324.562 126.534
L328.542 123.822
L332.722 121.007
L336.702 118.346
L338.493 117.162
L339.886 116.216
L345.459 112.486
L347.051 111.52
L350.633 109.359
L354.017 107.438
L355.41 106.629
L360.584 103.703
L362.575 102.566
L370.734 98.0488
L372.326 97.1635
L382.078 91.8073
L387.054 89.0661
L392.228 86.1875
L401.98 80.4998
L410.538 75.6729
L418.499 71.2896
L423.076 68.7667
L426.062 67.1337
L432.629 63.5539
L441.386 58.7414
L443.575 57.5405
L447.357 55.4496
L452.332 52.6963
L458.502 49.2691
L467.856 44.0073
L471.239 41.9827
L475.219 39.7939
L475.219 39.7939" style="fill:none;stroke:#00bfbf;stroke-linecap:square;"/>
   </g>
   <g id="line2d_5">
    <path clip-path="url(#p8c776b0f9c)" d="
M28.8194 368.74
L32.2027 366.079
L34.79 364.058
L36.5811 362.659
L38.7703 361.001
L41.1586 359.103
L44.3429 356.617
L45.338 355.802
L46.7311 354.708
L47.5272 354.054
L49.7164 352.357
L50.9105 351.447
L52.5027 350.221
L59.2693 344.939
L62.8517 342.105
L65.6379 339.965
L74.1957 333.385
L74.9918 332.741
L79.1712 329.405
L80.7634 328.194
L83.7487 325.795
L92.1075 319.164
L93.3016 318.198
L95.4908 316.461
L96.8839 315.349
L105.044 308.876
L106.437 307.774
L116.388 299.732
L117.781 298.534
L119.174 297.422
L121.363 295.57
L131.115 287.299
L145.047 274.997
L148.032 271.995
L149.624 270.314
L153.604 266.455
L175.098 245.994
L178.482 243.134
L180.87 241.137
L188.831 234.738
L200.175 226.511
L203.16 224.542
L221.669 212.511
L226.445 209.552
L230.426 206.971
L232.615 205.556
L237.59 202.215
L239.183 201.131
L240.576 200.106
L246.944 195.509
L248.338 194.483
L251.721 192.016
L254.109 190.23
L258.089 187.309
L270.23 178.162
L271.225 177.45
L272.419 176.567
L280.38 171.223
L284.161 168.847
L288.34 166.286
L293.515 163.058
L325.358 143.351
L328.542 141.376
L333.12 138.544
L334.712 137.557
L345.857 130.704
L347.648 129.682
L350.434 128.119
L358.196 124.05
L362.376 121.884
L368.545 118.749
L377.899 113.972
L379.889 112.959
L385.263 110.215
L391.432 107.031
L401.781 101.475
L404.966 99.7397
L412.528 95.8842
L420.091 92.0002
L428.45 87.773
L432.032 85.9543
L443.774 79.9526
L457.706 72.816
L465.268 68.9741
L475.02 63.7353
L475.219 63.6345
L475.219 63.6345" style="fill:none;stroke:#bf00bf;stroke-linecap:square;"/>
   </g>
   <g id="line2d_6">
    <path clip-path="url(#p8c776b0f9c)" d="
M28.8194 368.74
L33.3968 365.533
L35.586 364.001
L36.3821 363.41
L37.9743 362.292
L40.1635 360.799
L41.5566 359.767
L84.3457 329.358
L86.3359 327.907
L118.577 304.539
L122.159 301.825
L124.15 300.35
L129.523 296.173
L130.319 295.559
L145.246 283.73
L147.236 281.845
L148.43 280.744
L149.624 279.622
L154.201 275.617
L162.361 268.452
L165.546 265.753
L166.939 264.528
L169.526 262.313
L171.516 260.527
L173.307 259.036
L175.297 257.425
L177.885 255.423
L178.88 254.633
L180.273 253.602
L183.258 251.344
L184.651 250.284
L188.035 247.921
L191.617 245.546
L193.806 244.067
L196.394 242.345
L199.976 240.07
L202.364 238.658
L225.251 225.368
L229.431 222.986
L231.421 221.82
L234.804 219.842
L246.148 212.605
L252.119 208.683
L263.861 200.831
L265.652 199.553
L268.836 197.445
L270.827 196.135
L273.414 194.492
L276.399 192.622
L286.947 186.579
L291.923 183.805
L293.913 182.705
L295.306 181.988
L301.277 178.659
L303.864 177.204
L312.422 172.463
L315.208 170.909
L319.387 168.585
L327.149 164.262
L328.343 163.589
L346.255 153.704
L348.046 152.787
L352.226 150.677
L357.798 148.057
L377.7 138.816
L384.666 135.607
L391.233 132.537
L395.612 130.479
L397.602 129.483
L400.388 128.127
L401.582 127.539
L404.369 126.184
L405.961 125.418
L416.708 120.453
L467.856 96.8001
L471.239 95.1032
L475.219 93.2755
L475.219 93.2755" style="fill:none;stroke:#bfbf00;stroke-linecap:square;"/>
   </g>
   <g id="line2d_7">
    <path clip-path="url(#p8c776b0f9c)" d="
M28.8194 368.74
L31.6056 367.031
L33.1978 366.026
L35.387 364.662
L36.1831 364.174
L38.3723 362.806
L40.7605 361.308
L42.9497 359.889
L53.0997 353.46
L64.8418 346.055
L69.8173 342.938
L70.8124 342.318
L74.5938 339.98
L78.3751 337.515
L82.9526 334.591
L83.9477 333.915
L93.8986 327.579
L104.646 320.621
L109.422 317.559
L110.616 316.781
L113.004 315.226
L114.597 314.234
L118.378 311.733
L119.97 310.686
L122.955 308.707
L124.548 307.634
L128.727 304.735
L129.921 303.946
L131.115 303.129
L140.071 296.791
L142.061 295.4
L145.246 293.036
L147.833 290.922
L161.764 279.915
L162.759 279.188
L166.541 276.313
L167.934 275.284
L176.492 268.879
L179.079 267.102
L181.069 265.731
L187.239 261.64
L190.622 259.632
L200.175 254.144
L208.335 249.852
L210.325 248.794
L213.907 246.953
L216.096 245.815
L236.595 235.288
L238.188 234.426
L262.07 220.485
L265.851 218.128
L269.832 215.798
L276.996 211.77
L280.778 209.84
L287.942 206.266
L289.335 205.588
L298.092 201.301
L313.218 193.805
L327.945 186.542
L329.338 185.821
L350.036 175.814
L355.808 173.34
L357.798 172.51
L364.963 169.503
L368.147 168.208
L374.317 165.664
L389.442 159.469
L391.432 158.635
L396.01 156.708
L399.393 155.237
L402.776 153.748
L407.155 151.886
L408.946 151.14
L431.833 141.853
L436.61 139.896
L469.05 126.454
L470.841 125.66
L475.219 123.871
L475.219 123.871" style="fill:none;stroke:#000000;stroke-linecap:square;"/>
   </g>
   <g id="line2d_8">
    <path clip-path="url(#p8c776b0f9c)" d="
M28.8194 368.74
L31.4066 367.328
L34.1929 365.811
L36.5811 364.456
L38.9694 363.156
L44.5419 360.007
L47.3282 358.461
L70.6134 345.528
L73.5987 343.917
L75.9869 342.55
L80.1663 340.2
L83.3506 338.363
L85.1418 337.373
L85.7389 337.034
L87.331 336.159
L88.1271 335.719
L90.7143 334.268
L100.466 328.771
L101.262 328.28
L103.452 327.094
L104.646 326.416
L117.582 319.01
L121.761 316.548
L126.339 313.816
L129.125 312.151
L133.105 309.715
L137.683 306.817
L142.26 303.983
L144.649 302.416
L146.241 301.338
L161.764 290.415
L163.356 289.403
L168.929 285.634
L171.317 283.983
L178.88 279.247
L180.273 278.441
L184.85 275.742
L187.04 274.551
L188.433 273.83
L194.005 270.944
L195.199 270.291
L199.976 267.956
L202.961 266.615
L204.354 265.957
L206.743 264.858
L213.907 261.621
L220.276 258.783
L230.824 254.133
L232.217 253.514
L240.974 249.352
L246.347 246.607
L248.139 245.7
L253.313 243.033
L274.608 231.99
L278.588 230.16
L279.982 229.553
L288.937 225.677
L291.127 224.688
L328.144 208.663
L331.329 207.302
L348.046 200.188
L352.027 198.628
L358.594 196.227
L360.385 195.564
L389.243 185.136
L395.015 183.011
L397.801 181.925
L407.155 178.391
L408.946 177.737
L448.551 163.523
L462.88 158.33
L467.259 156.689
L469.647 155.724
L475.219 153.696
L475.219 153.696" style="fill:none;stroke:#0000ff;stroke-linecap:square;"/>
   </g>
   <g id="line2d_9">
    <path clip-path="url(#p8c776b0f9c)" d="
M28.8194 368.739
L32.4017 367.167
L35.188 365.925
L39.9644 363.807
L42.7507 362.55
L49.1193 359.668
L68.6232 350.867
L71.6085 349.531
L75.1908 347.914
L77.7781 346.737
L78.9722 346.19
L83.9477 343.937
L85.9379 342.996
L117.383 328.391
L118.378 327.907
L120.567 326.88
L122.955 325.723
L126.538 323.952
L127.931 323.274
L129.125 322.666
L146.44 313.847
L148.629 312.541
L153.206 309.911
L157.784 307.356
L174.103 298.362
L177.089 296.853
L182.86 294.001
L189.03 291.231
L190.622 290.552
L197.588 287.612
L211.121 282.518
L215.3 280.973
L217.49 280.17
L222.664 278.286
L224.256 277.71
L241.372 271.108
L250.925 267.064
L258.886 263.743
L263.463 261.787
L268.637 259.559
L270.628 258.704
L279.584 255.181
L345.857 231.416
L348.444 230.557
L350.633 229.843
L355.609 228.297
L360.186 226.9
L394.617 216.624
L398 215.542
L401.781 214.346
L405.364 213.221
L423.673 207.744
L435.416 204.266
L466.264 195.05
L469.448 193.974
L475.219 192.241
L475.219 192.241" style="fill:none;stroke:#008000;stroke-linecap:square;"/>
   </g>
   <g id="line2d_10">
    <path clip-path="url(#p8c776b0f9c)" d="
M28.8194 368.739
L41.7556 362.508
L44.1439 361.347
L50.1144 358.426
L56.483 355.352
L84.7438 341.559
L86.5349 340.659
L94.6947 336.622
L126.339 320.526
L128.727 319.209
L131.115 317.936
L142.061 312.023
L143.852 310.997
L152.012 305.985
L153.604 305.033
L156.988 302.965
L176.691 291.26
L183.059 287.883
L184.85 286.964
L187.438 285.726
L188.831 285.056
L195 282.215
L198.583 280.611
L211.718 275.31
L217.689 272.946
L225.649 269.793
L227.839 268.921
L234.406 266.241
L236.993 265.138
L255.502 256.782
L256.895 256.149
L263.264 253.243
L268.04 250.968
L269.633 250.231
L271.623 249.304
L279.584 245.936
L287.345 242.912
L299.087 238.389
L305.655 235.801
L345.061 220.458
L347.648 219.536
L349.837 218.761
L360.982 215.02
L364.963 213.719
L371.132 211.734
L383.671 207.72
L386.855 206.697
L395.413 203.909
L429.047 192.831
L466.662 180.693
L469.846 179.516
L472.234 178.722
L475.219 177.761
L475.219 177.761" style="fill:none;stroke:#ff0000;stroke-linecap:square;"/>
   </g>
   <g id="line2d_11">
    <path clip-path="url(#p8c776b0f9c)" d="
M28.8194 368.74
L99.8692 329.764
L100.864 329.202
L107.034 325.805
L129.125 313.087
L146.042 302.712
L156.988 295.191
L166.74 288.545
L170.123 286.283
L175.895 282.57
L179.278 280.533
L183.656 277.93
L186.244 276.516
L189.627 274.724
L194.204 272.339
L197.19 270.862
L198.782 270.083
L211.519 264.32
L218.087 261.44
L221.47 259.943
L225.848 257.975
L239.183 251.858
L240.775 251.027
L246.944 247.869
L250.925 245.806
L256.696 242.844
L270.23 235.696
L272.021 234.792
L276.001 232.834
L279.982 231.039
L282.171 230.082
L288.937 227.093
L302.471 221.177
L335.508 206.714
L340.682 204.455
L352.425 199.677
L360.385 196.706
L365.759 194.727
L376.705 190.766
L380.884 189.247
L395.214 184.013
L399.194 182.45
L403.373 180.832
L406.558 179.633
L415.514 176.354
L422.877 173.691
L438.003 168.255
L450.143 163.855
L459.099 160.59
L475.219 154.557
L475.219 154.557" style="fill:none;stroke:#00bfbf;stroke-linecap:square;"/>
   </g>
   <g id="line2d_12">
    <path clip-path="url(#p8c776b0f9c)" d="
M28.8194 368.74
L39.7654 361.966
L41.5566 360.845
L43.3478 359.725
L45.537 358.375
L47.5272 357.113
L51.1095 354.915
L57.2791 350.992
L64.2448 346.731
L66.434 345.354
L69.6183 343.421
L71.0114 342.509
L73.5987 340.946
L79.1712 337.49
L81.5595 336.026
L84.9428 333.87
L92.3065 329.289
L96.6849 326.467
L99.2722 324.891
L101.262 323.613
L107.233 319.864
L109.024 318.738
L123.353 309.458
L124.349 308.795
L125.742 307.886
L133.901 302.334
L135.295 301.35
L145.445 294.247
L150.619 290.127
L152.808 288.398
L154.998 286.676
L157.585 284.662
L166.541 277.746
L169.725 275.324
L176.691 270.205
L183.059 265.888
L184.253 265.09
L200.573 255.645
L206.942 252.347
L210.325 250.611
L213.111 249.196
L217.689 246.888
L224.455 243.478
L228.436 241.486
L230.824 240.228
L232.217 239.499
L246.546 231.442
L248.139 230.518
L255.502 226.228
L256.895 225.406
L275.205 214.562
L278.986 212.569
L282.967 210.61
L290.53 206.846
L293.913 205.167
L295.704 204.321
L303.864 200.26
L307.247 198.568
L313.616 195.401
L317.198 193.615
L322.373 191.021
L326.95 188.735
L332.722 185.852
L335.11 184.65
L342.872 180.806
L344.862 179.81
L347.847 178.428
L369.54 169.255
L382.874 163.773
L394.02 159.167
L396.607 158.025
L399.194 156.899
L402.776 155.324
L406.359 153.787
L422.081 147.287
L439.396 140.215
L453.526 134.433
L454.72 133.923
L464.472 129.912
L468.254 128.225
L471.836 126.624
L475.219 125.241
L475.219 125.241" style="fill:none;stroke:#bf00bf;stroke-linecap:square;"/>
   </g>
   <g id="line2d_13">
    <path clip-path="url(#p8c776b0f9c)" d="
M28.8194 368.74
L94.6947 322.301
L98.2771 319.771
L114 308.682
L115.791 307.421
L129.921 296.848
L132.309 294.973
L133.503 294.048
L145.047 284.973
L153.007 277.848
L155.197 275.934
L158.58 273.008
L160.371 271.43
L162.958 269.144
L166.541 266.077
L168.133 264.686
L178.084 256.475
L182.263 253.326
L189.03 248.537
L190.025 247.868
L198.185 242.564
L199.379 241.849
L234.406 221.611
L235.401 220.997
L238.387 219.169
L241.372 217.185
L264.458 201.768
L265.851 200.793
L279.185 192.348
L283.564 189.867
L287.942 187.379
L290.132 186.161
L295.704 183.094
L301.078 180.059
L306.849 176.814
L313.019 173.352
L316.402 171.467
L321.776 168.424
L324.363 166.939
L345.857 154.901
L348.046 153.749
L351.031 152.235
L355.609 150.043
L357.599 149.08
L361.579 147.167
L374.118 141.392
L378.695 139.249
L387.85 134.999
L390.238 133.864
L397.204 130.505
L398.597 129.817
L410.339 124.178
L419.295 120.029
L423.076 118.284
L431.634 114.304
L435.416 112.568
L446.76 107.347
L451.536 105.134
L464.472 99.1363
L468.851 96.9066
L472.632 95.066
L475.219 93.8815
L475.219 93.8815" style="fill:none;stroke:#bfbf00;stroke-linecap:square;"/>
   </g>
   <g id="line2d_14">
    <path clip-path="url(#p8c776b0f9c)" d="
M28.8194 368.74
L35.188 363.782
L38.1733 361.482
L61.0605 343.55
L62.8517 342.117
L96.2869 316.109
L97.879 314.826
L123.353 294.494
L125.145 293.023
L126.14 292.207
L127.732 290.849
L130.717 288.328
L135.494 284.251
L141.265 279.282
L143.852 276.89
L148.43 272.418
L150.42 270.448
L156.59 264.425
L157.585 263.506
L161.764 259.497
L162.56 258.737
L165.745 255.712
L168.332 253.23
L175.297 246.784
L180.472 242.358
L181.865 241.198
L185.447 238.338
L188.632 235.868
L190.224 234.657
L194.005 231.883
L195.199 230.998
L201.966 226.413
L204.354 224.866
L210.325 220.999
L213.509 218.978
L218.485 215.82
L221.271 214.027
L235.998 204.523
L237.79 203.297
L240.178 201.612
L256.099 189.944
L258.487 188.183
L261.871 185.701
L272.419 177.816
L277.593 174.325
L279.982 172.776
L281.375 171.9
L285.355 169.416
L291.525 165.56
L294.311 163.863
L298.092 161.582
L304.063 157.896
L305.655 156.904
L310.432 153.967
L316.8 149.999
L323.567 145.787
L326.751 143.753
L328.542 142.621
L337.299 137.201
L342.076 134.261
L349.041 130.147
L350.832 129.148
L352.027 128.487
L398.398 104.344
L408.15 99.0698
L417.305 94.3702
L419.693 93.1246
L448.352 78.4493
L450.74 77.2253
L465.467 69.648
L470.841 66.5865
L475.219 64.3257
L475.219 64.3257" style="fill:none;stroke:#000000;stroke-linecap:square;"/>
   </g>
   <g id="line2d_15">
    <path clip-path="url(#p8c776b0f9c)" d="
M28.8194 368.739
L32.7998 365.364
L34.79 363.704
L36.1831 362.517
L40.7605 358.714
L43.3478 356.442
L45.1389 354.957
L48.5223 352.125
L50.7115 350.273
L53.4978 347.889
L58.4732 343.714
L59.8664 342.541
L62.8517 340.009
L88.7241 318.211
L89.5202 317.528
L92.7045 314.851
L95.0928 312.784
L102.257 306.722
L103.452 305.724
L122.756 289.023
L125.145 286.908
L125.941 286.195
L128.727 283.603
L129.921 282.509
L132.309 280.274
L133.901 278.843
L136.489 276.375
L146.44 266.737
L148.828 264.115
L150.619 262.235
L153.206 259.519
L155.197 257.44
L157.784 254.76
L165.546 246.721
L166.939 245.259
L168.133 244.045
L170.123 242.012
L173.307 238.785
L174.7 237.425
L176.094 236.092
L180.671 231.972
L181.666 231.112
L184.85 228.255
L195.796 219.447
L201.966 214.941
L203.757 213.669
L204.951 212.815
L208.335 210.444
L210.922 208.634
L214.106 206.457
L215.698 205.344
L218.286 203.549
L219.878 202.423
L226.644 197.8
L229.431 195.883
L232.217 193.925
L236.396 190.971
L238.785 189.187
L241.571 186.972
L247.541 182.271
L248.736 181.352
L256.696 175.007
L264.458 168.674
L265.652 167.652
L269.633 164.53
L271.623 162.927
L278.986 157.54
L284.161 154.061
L345.061 113.37
L347.051 112.157
L350.633 109.986
L360.982 104.029
L400.388 81.9064
L401.98 80.9508
L408.747 77.0841
L415.514 73.3401
L426.46 67.2893
L432.828 63.7555
L456.91 50.3923
L458.502 49.5053
L463.278 46.8989
L467.856 44.2032
L469.05 43.4457
L470.642 42.4982
L475.219 39.9638
L475.219 39.9638" style="fill:none;stroke:#0000ff;stroke-linecap:square;"/>
   </g>
   <g id="line2d_16">
    <path clip-path="url(#p8c776b0f9c)" d="
M28.8194 368.739
L34.79 363.542
L35.9841 362.482
L38.7703 360.068
L40.1635 358.839
L43.9448 355.503
L48.3233 351.674
L51.3085 349.059
L57.8762 343.211
L61.0605 340.449
L62.0556 339.547
L64.0458 337.828
L66.832 335.39
L68.8222 333.66
L70.8124 331.886
L72.0065 330.873
L75.1908 328.112
L76.584 326.896
L77.7781 325.844
L79.3702 324.468
L80.9624 323.088
L86.1369 318.444
L90.3163 314.807
L95.4908 310.225
L97.083 308.85
L99.4712 306.739
L101.66 304.891
L104.845 302.102
L106.636 300.566
L108.825 298.558
L117.184 291.066
L118.975 289.414
L121.164 287.354
L143.653 265.777
L144.25 265.135
L146.44 262.827
L157.983 250.03
L166.541 240.812
L167.536 239.745
L173.506 233.357
L186.443 221.224
L190.423 217.827
L195 214.12
L197.787 211.894
L209.728 203.243
L212.315 201.387
L214.703 199.691
L218.286 197.166
L225.649 191.962
L228.237 190.133
L238.984 182.256
L241.173 180.466
L247.74 175.134
L248.935 174.143
L249.731 173.499
L263.662 161.886
L264.856 160.772
L277.792 150.36
L284.559 145.523
L287.345 143.519
L297.495 136.456
L303.864 132.02
L346.454 102.629
L350.036 100.371
L352.226 99.0315
L366.754 90.4989
L378.695 83.6889
L381.083 82.3108
L389.84 77.28
L395.612 73.919
L397.403 72.7901
L401.383 70.3737
L403.572 69.0086
L408.349 66.1661
L412.13 63.9888
L416.111 61.679
L426.46 55.6627
L431.833 52.584
L437.008 49.6377
L447.755 43.4486
L454.521 39.5577
L465.467 33.2592
L471.836 29.2445
L475.219 27.3235
L475.219 27.3235" style="fill:none;stroke:#008000;stroke-linecap:square;"/>
   </g>
   <g id="patch_3">
    <path d="
M28.8194 23.1417
L475.219 23.1417" style="fill:none;stroke:#000000;stroke-linecap:square;stroke-linejoin:miter;"/>
   </g>
   <g id="patch_4">
    <path d="
M475.219 368.742
L475.219 23.1417" style="fill:none;stroke:#000000;stroke-linecap:square;stroke-linejoin:miter;"/>
   </g>
   <g id="patch_5">
    <path d="
M28.8194 368.742
L475.219 368.742" style="fill:none;stroke:#000000;stroke-linecap:square;stroke-linejoin:miter;"/>
   </g>
   <g id="patch_6">
    <path d="
M28.8194 368.742
L28.8194 23.1417" style="fill:none;stroke:#000000;stroke-linecap:square;stroke-linejoin:miter;"/>
   </g>
   <g id="matplotlib.axis_1">
    <g id="xtick_1">
     <g id="line2d_17">
      <defs>
       <path d="
M0 0
L0 -4" id="m93b0483c22" style="stroke:#000000;stroke-width:0.5;"/>
      </defs>
      <g>
       <use style="stroke:#000000;stroke-width:0.5;" x="28.819375" xlink:href="#m93b0483c22" y="368.74175"/>
      </g>
     </g>
     <g id="line2d_18">
      <defs>
       <path d="
M0 0
L0 4" id="m741efc42ff" style="stroke:#000000;stroke-width:0.5;"/>
      </defs>
      <g>
       <use style="stroke:#000000;stroke-width:0.5;" x="28.819375" xlink:href="#m741efc42ff" y="23.14175"/>
      </g>
     </g>
     <g id="text_1">
      <!-- 0 -->
      <defs>
       <path d="
M31.7812 66.4062
Q24.1719 66.4062 20.3281 58.9062
Q16.5 51.4219 16.5 36.375
Q16.5 21.3906 20.3281 13.8906
Q24.1719 6.39062 31.7812 6.39062
Q39.4531 6.39062 43.2812 13.8906
Q47.125 21.3906 47.125 36.375
Q47.125 51.4219 43.2812 58.9062
Q39.4531 66.4062 31.7812 66.4062
M31.7812 74.2188
Q44.0469 74.2188 50.5156 64.5156
Q56.9844 54.8281 56.9844 36.375
Q56.9844 17.9688 50.5156 8.26562
Q44.0469 -1.42188 31.7812 -1.42188
Q19.5312 -1.42188 13.0625 8.26562
Q6.59375 17.9688 6.59375 36.375
Q6.59375 54.8281 13.0625 64.5156
Q19.5312 74.2188 31.7812 74.2188" id="DejaVuSans-30"/>
      </defs>
      <g transform="translate(25.7959375 381.859875)scale(0.12 -0.12)">
       <use xlink:href="#DejaVuSans-30"/>
      </g>
     </g>
    </g>
    <g id="xtick_2">
     <g id="line2d_19">
      <g>
       <use style="stroke:#000000;stroke-width:0.5;" x="128.328960377" xlink:href="#m93b0483c22" y="368.74175"/>
      </g>
     </g>
     <g id="line2d_20">
      <g>
       <use style="stroke:#000000;stroke-width:0.5;" x="128.328960377" xlink:href="#m741efc42ff" y="23.14175"/>
      </g>
     </g>
     <g id="text_2">
      <!-- 500 -->
      <defs>
       <path d="
M10.7969 72.9062
L49.5156 72.9062
L49.5156 64.5938
L19.8281 64.5938
L19.8281 46.7344
Q21.9688 47.4688 24.1094 47.8281
Q26.2656 48.1875 28.4219 48.1875
Q40.625 48.1875 47.75 41.5
Q54.8906 34.8125 54.8906 23.3906
Q54.8906 11.625 47.5625 5.09375
Q40.2344 -1.42188 26.9062 -1.42188
Q22.3125 -1.42188 17.5469 -0.640625
Q12.7969 0.140625 7.71875 1.70312
L7.71875 11.625
Q12.1094 9.23438 16.7969 8.0625
Q21.4844 6.89062 26.7031 6.89062
Q35.1562 6.89062 40.0781 11.3281
Q45.0156 15.7656 45.0156 23.3906
Q45.0156 31 40.0781 35.4375
Q35.1562 39.8906 26.7031 39.8906
Q22.75 39.8906 18.8125 39.0156
Q14.8906 38.1406 10.7969 36.2812
z
" id="DejaVuSans-35"/>
      </defs>
      <g transform="translate(117.738022877 381.859875)scale(0.12 -0.12)">
       <use xlink:href="#DejaVuSans-35"/>
       <use x="63.623046875" xlink:href="#DejaVuSans-30"/>
       <use x="127.24609375" xlink:href="#DejaVuSans-30"/>
      </g>
     </g>
    </g>
    <g id="xtick_3">
     <g id="line2d_21">
      <g>
       <use style="stroke:#000000;stroke-width:0.5;" x="227.838545753" xlink:href="#m93b0483c22" y="368.74175"/>
      </g>
     </g>
     <g id="line2d_22">
      <g>
       <use style="stroke:#000000;stroke-width:0.5;" x="227.838545753" xlink:href="#m741efc42ff" y="23.14175"/>
      </g>
     </g>
     <g id="text_3">
      <!-- 1000 -->
      <defs>
       <path d="
M12.4062 8.29688
L28.5156 8.29688
L28.5156 63.9219
L10.9844 60.4062
L10.9844 69.3906
L28.4219 72.9062
L38.2812 72.9062
L38.2812 8.29688
L54.3906 8.29688
L54.3906 0
L12.4062 0
z
" id="DejaVuSans-31"/>
      </defs>
      <g transform="translate(213.626045753 381.859875)scale(0.12 -0.12)">
       <use xlink:href="#DejaVuSans-31"/>
       <use x="63.623046875" xlink:href="#DejaVuSans-30"/>
       <use x="127.24609375" xlink:href="#DejaVuSans-30"/>
       <use x="190.869140625" xlink:href="#DejaVuSans-30"/>
      </g>
     </g>
    </g>
    <g id="xtick_4">
     <g id="line2d_23">
      <g>
       <use style="stroke:#000000;stroke-width:0.5;" x="327.34813113" xlink:href="#m93b0483c22" y="368.74175"/>
      </g>
     </g>
     <g id="line2d_24">
      <g>
       <use style="stroke:#000000;stroke-width:0.5;" x="327.34813113" xlink:href="#m741efc42ff" y="23.14175"/>
      </g>
     </g>
     <g id="text_4">
      <!-- 1500 -->
      <g transform="translate(313.13563113 381.859875)scale(0.12 -0.12)">
       <use xlink:href="#DejaVuSans-31"/>
       <use x="63.623046875" xlink:href="#DejaVuSans-35"/>
       <use x="127.24609375" xlink:href="#DejaVuSans-30"/>
       <use x="190.869140625" xlink:href="#DejaVuSans-30"/>
      </g>
     </g>
    </g>
    <g id="xtick_5">
     <g id="line2d_25">
      <g>
       <use style="stroke:#000000;stroke-width:0.5;" x="426.857716507" xlink:href="#m93b0483c22" y="368.74175"/>
      </g>
     </g>
     <g id="line2d_26">
      <g>
       <use style="stroke:#000000;stroke-width:0.5;" x="426.857716507" xlink:href="#m741efc42ff" y="23.14175"/>
      </g>
     </g>
     <g id="text_5">
      <!-- 2000 -->
      <defs>
       <path d="
M19.1875 8.29688
L53.6094 8.29688
L53.6094 0
L7.32812 0
L7.32812 8.29688
Q12.9375 14.1094 22.625 23.8906
Q32.3281 33.6875 34.8125 36.5312
Q39.5469 41.8438 41.4219 45.5312
Q43.3125 49.2188 43.3125 52.7812
Q43.3125 58.5938 39.2344 62.25
Q35.1562 65.9219 28.6094 65.9219
Q23.9688 65.9219 18.8125 64.3125
Q13.6719 62.7031 7.8125 59.4219
L7.8125 69.3906
Q13.7656 71.7812 18.9375 73
Q24.125 74.2188 28.4219 74.2188
Q39.75 74.2188 46.4844 68.5469
Q53.2188 62.8906 53.2188 53.4219
Q53.2188 48.9219 51.5312 44.8906
Q49.8594 40.875 45.4062 35.4062
Q44.1875 33.9844 37.6406 27.2188
Q31.1094 20.4531 19.1875 8.29688" id="DejaVuSans-32"/>
      </defs>
      <g transform="translate(412.425841507 381.859875)scale(0.12 -0.12)">
       <use xlink:href="#DejaVuSans-32"/>
       <use x="63.623046875" xlink:href="#DejaVuSans-30"/>
       <use x="127.24609375" xlink:href="#DejaVuSans-30"/>
       <use x="190.869140625" xlink:href="#DejaVuSans-30"/>
      </g>
     </g>
    </g>
    <g id="text_6">
     <!-- time -->
     <defs>
      <path d="
M18.3125 70.2188
L18.3125 54.6875
L36.8125 54.6875
L36.8125 47.7031
L18.3125 47.7031
L18.3125 18.0156
Q18.3125 11.3281 20.1406 9.42188
Q21.9688 7.51562 27.5938 7.51562
L36.8125 7.51562
L36.8125 0
L27.5938 0
Q17.1875 0 13.2344 3.875
Q9.28125 7.76562 9.28125 18.0156
L9.28125 47.7031
L2.6875 47.7031
L2.6875 54.6875
L9.28125 54.6875
L9.28125 70.2188
z
" id="DejaVuSans-74"/>
      <path d="
M52 44.1875
Q55.375 50.25 60.0625 53.125
Q64.75 56 71.0938 56
Q79.6406 56 84.2812 50.0156
Q88.9219 44.0469 88.9219 33.0156
L88.9219 0
L79.8906 0
L79.8906 32.7188
Q79.8906 40.5781 77.0938 44.375
Q74.3125 48.1875 68.6094 48.1875
Q61.625 48.1875 57.5625 43.5469
Q53.5156 38.9219 53.5156 30.9062
L53.5156 0
L44.4844 0
L44.4844 32.7188
Q44.4844 40.625 41.7031 44.4062
Q38.9219 48.1875 33.1094 48.1875
Q26.2188 48.1875 22.1562 43.5312
Q18.1094 38.875 18.1094 30.9062
L18.1094 0
L9.07812 0
L9.07812 54.6875
L18.1094 54.6875
L18.1094 46.1875
Q21.1875 51.2188 25.4844 53.6094
Q29.7812 56 35.6875 56
Q41.6562 56 45.8281 52.9688
Q50 49.9531 52 44.1875" id="DejaVuSans-6d"/>
      <path d="
M56.2031 29.5938
L56.2031 25.2031
L14.8906 25.2031
Q15.4844 15.9219 20.4844 11.0625
Q25.4844 6.20312 34.4219 6.20312
Q39.5938 6.20312 44.4531 7.46875
Q49.3125 8.73438 54.1094 11.2812
L54.1094 2.78125
Q49.2656 0.734375 44.1875 -0.34375
Q39.1094 -1.42188 33.8906 -1.42188
Q20.7969 -1.42188 13.1562 6.1875
Q5.51562 13.8125 5.51562 26.8125
Q5.51562 40.2344 12.7656 48.1094
Q20.0156 56 32.3281 56
Q43.3594 56 49.7812 48.8906
Q56.2031 41.7969 56.2031 29.5938
M47.2188 32.2344
Q47.125 39.5938 43.0938 43.9844
Q39.0625 48.3906 32.4219 48.3906
Q24.9062 48.3906 20.3906 44.1406
Q15.875 39.8906 15.1875 32.1719
z
" id="DejaVuSans-65"/>
      <path d="
M9.42188 54.6875
L18.4062 54.6875
L18.4062 0
L9.42188 0
z

M9.42188 75.9844
L18.4062 75.9844
L18.4062 64.5938
L9.42188 64.5938
z
" id="DejaVuSans-69"/>
     </defs>
     <g transform="translate(238.945 398.473625)scale(0.12 -0.12)">
      <use xlink:href="#DejaVuSans-74"/>
      <use x="39.208984375" xlink:href="#DejaVuSans-69"/>
      <use x="66.9921875" xlink:href="#DejaVuSans-6d"/>
      <use x="164.404296875" xlink:href="#DejaVuSans-65"/>
     </g>
    </g>
   </g>
   <g id="matplotlib.axis_2">
    <g id="ytick_1">
     <g id="line2d_27">
      <defs>
       <path d="
M0 0
L4 0" id="m728421d6d4" style="stroke:#000000;stroke-width:0.5;"/>
      </defs>
      <g>
       <use style="stroke:#000000;stroke-width:0.5;" x="28.819375" xlink:href="#m728421d6d4" y="368.74175"/>
      </g>
     </g>
     <g id="line2d_28">
      <defs>
       <path d="
M0 0
L-4 0" id="mcb0005524f" style="stroke:#000000;stroke-width:0.5;"/>
      </defs>
      <g>
       <use style="stroke:#000000;stroke-width:0.5;" x="475.219375" xlink:href="#mcb0005524f" y="368.74175"/>
      </g>
     </g>
     <g id="text_7">
      <!-- 0.0 -->
      <defs>
       <path d="
M10.6875 12.4062
L21 12.4062
L21 0
L10.6875 0
z
" id="DejaVuSans-2e"/>
      </defs>
      <g transform="translate(7.32375 372.053)scale(0.12 -0.12)">
       <use xlink:href="#DejaVuSans-30"/>
       <use x="63.623046875" xlink:href="#DejaVuSans-2e"/>
       <use x="95.41015625" xlink:href="#DejaVuSans-30"/>
      </g>
     </g>
    </g>
    <g id="ytick_2">
     <g id="line2d_29">
      <g>
       <use style="stroke:#000000;stroke-width:0.5;" x="28.819375" xlink:href="#m728421d6d4" y="311.14175"/>
      </g>
     </g>
     <g id="line2d_30">
      <g>
       <use style="stroke:#000000;stroke-width:0.5;" x="475.219375" xlink:href="#mcb0005524f" y="311.14175"/>
      </g>
     </g>
     <g id="text_8">
      <!-- 0.2 -->
      <g transform="translate(7.72875 314.453)scale(0.12 -0.12)">
       <use xlink:href="#DejaVuSans-30"/>
       <use x="63.623046875" xlink:href="#DejaVuSans-2e"/>
       <use x="95.41015625" xlink:href="#DejaVuSans-32"/>
      </g>
     </g>
    </g>
    <g id="ytick_3">
     <g id="line2d_31">
      <g>
       <use style="stroke:#000000;stroke-width:0.5;" x="28.819375" xlink:href="#m728421d6d4" y="253.54175"/>
      </g>
     </g>
     <g id="line2d_32">
      <g>
       <use style="stroke:#000000;stroke-width:0.5;" x="475.219375" xlink:href="#mcb0005524f" y="253.54175"/>
      </g>
     </g>
     <g id="text_9">
      <!-- 0.4 -->
      <defs>
       <path d="
M37.7969 64.3125
L12.8906 25.3906
L37.7969 25.3906
z

M35.2031 72.9062
L47.6094 72.9062
L47.6094 25.3906
L58.0156 25.3906
L58.0156 17.1875
L47.6094 17.1875
L47.6094 0
L37.7969 0
L37.7969 17.1875
L4.89062 17.1875
L4.89062 26.7031
z
" id="DejaVuSans-34"/>
      </defs>
      <g transform="translate(7.2 256.853)scale(0.12 -0.12)">
       <use xlink:href="#DejaVuSans-30"/>
       <use x="63.623046875" xlink:href="#DejaVuSans-2e"/>
       <use x="95.41015625" xlink:href="#DejaVuSans-34"/>
      </g>
     </g>
    </g>
    <g id="ytick_4">
     <g id="line2d_33">
      <g>
       <use style="stroke:#000000;stroke-width:0.5;" x="28.819375" xlink:href="#m728421d6d4" y="195.94175"/>
      </g>
     </g>
     <g id="line2d_34">
      <g>
       <use style="stroke:#000000;stroke-width:0.5;" x="475.219375" xlink:href="#mcb0005524f" y="195.94175"/>
      </g>
     </g>
     <g id="text_10">
      <!-- 0.6 -->
      <defs>
       <path d="
M33.0156 40.375
Q26.375 40.375 22.4844 35.8281
Q18.6094 31.2969 18.6094 23.3906
Q18.6094 15.5312 22.4844 10.9531
Q26.375 6.39062 33.0156 6.39062
Q39.6562 6.39062 43.5312 10.9531
Q47.4062 15.5312 47.4062 23.3906
Q47.4062 31.2969 43.5312 35.8281
Q39.6562 40.375 33.0156 40.375
M52.5938 71.2969
L52.5938 62.3125
Q48.875 64.0625 45.0938 64.9844
Q41.3125 65.9219 37.5938 65.9219
Q27.8281 65.9219 22.6719 59.3281
Q17.5312 52.7344 16.7969 39.4062
Q19.6719 43.6562 24.0156 45.9219
Q28.375 48.1875 33.5938 48.1875
Q44.5781 48.1875 50.9531 41.5156
Q57.3281 34.8594 57.3281 23.3906
Q57.3281 12.1562 50.6875 5.35938
Q44.0469 -1.42188 33.0156 -1.42188
Q20.3594 -1.42188 13.6719 8.26562
Q6.98438 17.9688 6.98438 36.375
Q6.98438 53.6562 15.1875 63.9375
Q23.3906 74.2188 37.2031 74.2188
Q40.9219 74.2188 44.7031 73.4844
Q48.4844 72.75 52.5938 71.2969" id="DejaVuSans-36"/>
      </defs>
      <g transform="translate(7.2825 199.253)scale(0.12 -0.12)">
       <use xlink:href="#DejaVuSans-30"/>
       <use x="63.623046875" xlink:href="#DejaVuSans-2e"/>
       <use x="95.41015625" xlink:href="#DejaVuSans-36"/>
      </g>
     </g>
    </g>
    <g id="ytick_5">
     <g id="line2d_35">
      <g>
       <use style="stroke:#000000;stroke-width:0.5;" x="28.819375" xlink:href="#m728421d6d4" y="138.34175"/>
      </g>
     </g>
     <g id="line2d_36">
      <g>
       <use style="stroke:#000000;stroke-width:0.5;" x="475.219375" xlink:href="#mcb0005524f" y="138.34175"/>
      </g>
     </g>
     <g id="text_11">
      <!-- 0.8 -->
      <defs>
       <path d="
M31.7812 34.625
Q24.75 34.625 20.7188 30.8594
Q16.7031 27.0938 16.7031 20.5156
Q16.7031 13.9219 20.7188 10.1562
Q24.75 6.39062 31.7812 6.39062
Q38.8125 6.39062 42.8594 10.1719
Q46.9219 13.9688 46.9219 20.5156
Q46.9219 27.0938 42.8906 30.8594
Q38.875 34.625 31.7812 34.625
M21.9219 38.8125
Q15.5781 40.375 12.0312 44.7188
Q8.5 49.0781 8.5 55.3281
Q8.5 64.0625 14.7188 69.1406
Q20.9531 74.2188 31.7812 74.2188
Q42.6719 74.2188 48.875 69.1406
Q55.0781 64.0625 55.0781 55.3281
Q55.0781 49.0781 51.5312 44.7188
Q48 40.375 41.7031 38.8125
Q48.8281 37.1562 52.7969 32.3125
Q56.7812 27.4844 56.7812 20.5156
Q56.7812 9.90625 50.3125 4.23438
Q43.8438 -1.42188 31.7812 -1.42188
Q19.7344 -1.42188 13.25 4.23438
Q6.78125 9.90625 6.78125 20.5156
Q6.78125 27.4844 10.7812 32.3125
Q14.7969 37.1562 21.9219 38.8125
M18.3125 54.3906
Q18.3125 48.7344 21.8438 45.5625
Q25.3906 42.3906 31.7812 42.3906
Q38.1406 42.3906 41.7188 45.5625
Q45.3125 48.7344 45.3125 54.3906
Q45.3125 60.0625 41.7188 63.2344
Q38.1406 66.4062 31.7812 66.4062
Q25.3906 66.4062 21.8438 63.2344
Q18.3125 60.0625 18.3125 54.3906" id="DejaVuSans-38"/>
      </defs>
      <g transform="translate(7.348125 141.653)scale(0.12 -0.12)">
       <use xlink:href="#DejaVuSans-30"/>
       <use x="63.623046875" xlink:href="#DejaVuSans-2e"/>
       <use x="95.41015625" xlink:href="#DejaVuSans-38"/>
      </g>
     </g>
    </g>
    <g id="ytick_6">
     <g id="line2d_37">
      <g>
       <use style="stroke:#000000;stroke-width:0.5;" x="28.819375" xlink:href="#m728421d6d4" y="80.74175"/>
      </g>
     </g>
     <g id="line2d_38">
      <g>
       <use style="stroke:#000000;stroke-width:0.5;" x="475.219375" xlink:href="#mcb0005524f" y="80.74175"/>
      </g>
     </g>
     <g id="text_12">
      <!-- 1.0 -->
      <g transform="translate(7.850625 84.053)scale(0.12 -0.12)">
       <use xlink:href="#DejaVuSans-31"/>
       <use x="63.623046875" xlink:href="#DejaVuSans-2e"/>
       <use x="95.41015625" xlink:href="#DejaVuSans-30"/>
      </g>
     </g>
    </g>
    <g id="ytick_7">
     <g id="line2d_39">
      <g>
       <use style="stroke:#000000;stroke-width:0.5;" x="28.819375" xlink:href="#m728421d6d4" y="23.14175"/>
      </g>
     </g>
     <g id="line2d_40">
      <g>
       <use style="stroke:#000000;stroke-width:0.5;" x="475.219375" xlink:href="#mcb0005524f" y="23.14175"/>
      </g>
     </g>
     <g id="text_13">
      <!-- 1.2 -->
      <g transform="translate(8.255625 26.453)scale(0.12 -0.12)">
       <use xlink:href="#DejaVuSans-31"/>
       <use x="63.623046875" xlink:href="#DejaVuSans-2e"/>
       <use x="95.41015625" xlink:href="#DejaVuSans-32"/>
      </g>
     </g>
    </g>
    <g id="text_14">
     <!-- 1e7 -->
     <defs>
      <path d="
M8.20312 72.9062
L55.0781 72.9062
L55.0781 68.7031
L28.6094 0
L18.3125 0
L43.2188 64.5938
L8.20312 64.5938
z
" id="DejaVuSans-37"/>
     </defs>
     <g transform="translate(28.819375 20.14175)scale(0.12 -0.12)">
      <use xlink:href="#DejaVuSans-31"/>
      <use x="63.623046875" xlink:href="#DejaVuSans-65"/>
      <use x="125.146484375" xlink:href="#DejaVuSans-37"/>
     </g>
    </g>
   </g>
   <g id="text_15">
    <!-- /agas/count/cache/misses -->
    <defs>
     <path d="
M25.3906 72.9062
L33.6875 72.9062
L8.29688 -9.28125
L0 -9.28125
z
" id="DejaVuSans-2f"/>
     <path d="
M30.6094 48.3906
Q23.3906 48.3906 19.1875 42.75
Q14.9844 37.1094 14.9844 27.2969
Q14.9844 17.4844 19.1562 11.8438
Q23.3438 6.20312 30.6094 6.20312
Q37.7969 6.20312 41.9844 11.8594
Q46.1875 17.5312 46.1875 27.2969
Q46.1875 37.0156 41.9844 42.7031
Q37.7969 48.3906 30.6094 48.3906
M30.6094 56
Q42.3281 56 49.0156 48.375
Q55.7188 40.7656 55.7188 27.2969
Q55.7188 13.875 49.0156 6.21875
Q42.3281 -1.42188 30.6094 -1.42188
Q18.8438 -1.42188 12.1719 6.21875
Q5.51562 13.875 5.51562 27.2969
Q5.51562 40.7656 12.1719 48.375
Q18.8438 56 30.6094 56" id="DejaVuSans-6f"/>
     <path d="
M54.8906 33.0156
L54.8906 0
L45.9062 0
L45.9062 32.7188
Q45.9062 40.4844 42.875 44.3281
Q39.8438 48.1875 33.7969 48.1875
Q26.5156 48.1875 22.3125 43.5469
Q18.1094 38.9219 18.1094 30.9062
L18.1094 0
L9.07812 0
L9.07812 54.6875
L18.1094 54.6875
L18.1094 46.1875
Q21.3438 51.125 25.7031 53.5625
Q30.0781 56 35.7969 56
Q45.2188 56 50.0469 50.1719
Q54.8906 44.3438 54.8906 33.0156" id="DejaVuSans-6e"/>
     <path d="
M54.8906 33.0156
L54.8906 0
L45.9062 0
L45.9062 32.7188
Q45.9062 40.4844 42.875 44.3281
Q39.8438 48.1875 33.7969 48.1875
Q26.5156 48.1875 22.3125 43.5469
Q18.1094 38.9219 18.1094 30.9062
L18.1094 0
L9.07812 0
L9.07812 75.9844
L18.1094 75.9844
L18.1094 46.1875
Q21.3438 51.125 25.7031 53.5625
Q30.0781 56 35.7969 56
Q45.2188 56 50.0469 50.1719
Q54.8906 44.3438 54.8906 33.0156" id="DejaVuSans-68"/>
     <path d="
M8.5 21.5781
L8.5 54.6875
L17.4844 54.6875
L17.4844 21.9219
Q17.4844 14.1562 20.5 10.2656
Q23.5312 6.39062 29.5938 6.39062
Q36.8594 6.39062 41.0781 11.0312
Q45.3125 15.6719 45.3125 23.6875
L45.3125 54.6875
L54.2969 54.6875
L54.2969 0
L45.3125 0
L45.3125 8.40625
Q42.0469 3.42188 37.7188 1
Q33.4062 -1.42188 27.6875 -1.42188
Q18.2656 -1.42188 13.375 4.4375
Q8.5 10.2969 8.5 21.5781
M31.1094 56
z
" id="DejaVuSans-75"/>
     <path d="
M45.4062 27.9844
Q45.4062 37.75 41.375 43.1094
Q37.3594 48.4844 30.0781 48.4844
Q22.8594 48.4844 18.8281 43.1094
Q14.7969 37.75 14.7969 27.9844
Q14.7969 18.2656 18.8281 12.8906
Q22.8594 7.51562 30.0781 7.51562
Q37.3594 7.51562 41.375 12.8906
Q45.4062 18.2656 45.4062 27.9844
M54.3906 6.78125
Q54.3906 -7.17188 48.1875 -13.9844
Q42 -20.7969 29.2031 -20.7969
Q24.4688 -20.7969 20.2656 -20.0938
Q16.0625 -19.3906 12.1094 -17.9219
L12.1094 -9.1875
Q16.0625 -11.3281 19.9219 -12.3438
Q23.7812 -13.375 27.7812 -13.375
Q36.625 -13.375 41.0156 -8.76562
Q45.4062 -4.15625 45.4062 5.17188
L45.4062 9.625
Q42.625 4.78125 38.2812 2.39062
Q33.9375 0 27.875 0
Q17.8281 0 11.6719 7.65625
Q5.51562 15.3281 5.51562 27.9844
Q5.51562 40.6719 11.6719 48.3281
Q17.8281 56 27.875 56
Q33.9375 56 38.2812 53.6094
Q42.625 51.2188 45.4062 46.3906
L45.4062 54.6875
L54.3906 54.6875
z
" id="DejaVuSans-67"/>
     <path d="
M48.7812 52.5938
L48.7812 44.1875
Q44.9688 46.2969 41.1406 47.3438
Q37.3125 48.3906 33.4062 48.3906
Q24.6562 48.3906 19.8125 42.8438
Q14.9844 37.3125 14.9844 27.2969
Q14.9844 17.2812 19.8125 11.7344
Q24.6562 6.20312 33.4062 6.20312
Q37.3125 6.20312 41.1406 7.25
Q44.9688 8.29688 48.7812 10.4062
L48.7812 2.09375
Q45.0156 0.34375 40.9844 -0.53125
Q36.9688 -1.42188 32.4219 -1.42188
Q20.0625 -1.42188 12.7812 6.34375
Q5.51562 14.1094 5.51562 27.2969
Q5.51562 40.6719 12.8594 48.3281
Q20.2188 56 33.0156 56
Q37.1562 56 41.1094 55.1406
Q45.0625 54.2969 48.7812 52.5938" id="DejaVuSans-63"/>
     <path d="
M44.2812 53.0781
L44.2812 44.5781
Q40.4844 46.5312 36.375 47.5
Q32.2812 48.4844 27.875 48.4844
Q21.1875 48.4844 17.8438 46.4375
Q14.5 44.3906 14.5 40.2812
Q14.5 37.1562 16.8906 35.375
Q19.2812 33.5938 26.5156 31.9844
L29.5938 31.2969
Q39.1562 29.25 43.1875 25.5156
Q47.2188 21.7812 47.2188 15.0938
Q47.2188 7.46875 41.1875 3.01562
Q35.1562 -1.42188 24.6094 -1.42188
Q20.2188 -1.42188 15.4531 -0.5625
Q10.6875 0.296875 5.42188 2
L5.42188 11.2812
Q10.4062 8.6875 15.2344 7.39062
Q20.0625 6.10938 24.8125 6.10938
Q31.1562 6.10938 34.5625 8.28125
Q37.9844 10.4531 37.9844 14.4062
Q37.9844 18.0625 35.5156 20.0156
Q33.0625 21.9688 24.7031 23.7812
L21.5781 24.5156
Q13.2344 26.2656 9.51562 29.9062
Q5.8125 33.5469 5.8125 39.8906
Q5.8125 47.6094 11.2812 51.7969
Q16.75 56 26.8125 56
Q31.7812 56 36.1719 55.2656
Q40.5781 54.5469 44.2812 53.0781" id="DejaVuSans-73"/>
     <path d="
M34.2812 27.4844
Q23.3906 27.4844 19.1875 25
Q14.9844 22.5156 14.9844 16.5
Q14.9844 11.7188 18.1406 8.90625
Q21.2969 6.10938 26.7031 6.10938
Q34.1875 6.10938 38.7031 11.4062
Q43.2188 16.7031 43.2188 25.4844
L43.2188 27.4844
z

M52.2031 31.2031
L52.2031 0
L43.2188 0
L43.2188 8.29688
Q40.1406 3.32812 35.5469 0.953125
Q30.9531 -1.42188 24.3125 -1.42188
Q15.9219 -1.42188 10.9531 3.29688
Q6 8.01562 6 15.9219
Q6 25.1406 12.1719 29.8281
Q18.3594 34.5156 30.6094 34.5156
L43.2188 34.5156
L43.2188 35.4062
Q43.2188 41.6094 39.1406 45
Q35.0625 48.3906 27.6875 48.3906
Q23 48.3906 18.5469 47.2656
Q14.1094 46.1406 10.0156 43.8906
L10.0156 52.2031
Q14.9375 54.1094 19.5781 55.0469
Q24.2188 56 28.6094 56
Q40.4844 56 46.3438 49.8438
Q52.2031 43.7031 52.2031 31.2031" id="DejaVuSans-61"/>
    </defs>
    <g transform="translate(159.19 18.14175)scale(0.144 -0.144)">
     <use xlink:href="#DejaVuSans-2f"/>
     <use x="33.69140625" xlink:href="#DejaVuSans-61"/>
     <use x="94.970703125" xlink:href="#DejaVuSans-67"/>
     <use x="158.447265625" xlink:href="#DejaVuSans-61"/>
     <use x="219.7265625" xlink:href="#DejaVuSans-73"/>
     <use x="271.826171875" xlink:href="#DejaVuSans-2f"/>
     <use x="305.517578125" xlink:href="#DejaVuSans-63"/>
     <use x="360.498046875" xlink:href="#DejaVuSans-6f"/>
     <use x="421.6796875" xlink:href="#DejaVuSans-75"/>
     <use x="485.05859375" xlink:href="#DejaVuSans-6e"/>
     <use x="548.4375" xlink:href="#DejaVuSans-74"/>
     <use x="587.646484375" xlink:href="#DejaVuSans-2f"/>
     <use x="621.337890625" xlink:href="#DejaVuSans-63"/>
     <use x="676.318359375" xlink:href="#DejaVuSans-61"/>
     <use x="737.59765625" xlink:href="#DejaVuSans-63"/>
     <use x="792.578125" xlink:href="#DejaVuSans-68"/>
     <use x="855.95703125" xlink:href="#DejaVuSans-65"/>
     <use x="917.48046875" xlink:href="#DejaVuSans-2f"/>
     <use x="951.171875" xlink:href="#DejaVuSans-6d"/>
     <use x="1048.58398438" xlink:href="#DejaVuSans-69"/>
     <use x="1076.3671875" xlink:href="#DejaVuSans-73"/>
     <use x="1128.46679688" xlink:href="#DejaVuSans-73"/>
     <use x="1180.56640625" xlink:href="#DejaVuSans-65"/>
     <use x="1242.08984375" xlink:href="#DejaVuSans-73"/>
    </g>
   </g>
   <g id="legend_1">
    <g id="patch_7">
     <path d="
M482.419 367.194
L614.209 367.194
L614.209 24.6897
L482.419 24.6897
z
" style="fill:#ffffff;stroke:#000000;stroke-linejoin:miter;"/>
    </g>
    <g id="line2d_41">
     <path d="
M492.499 36.3515
L512.659 36.3515" style="fill:none;stroke:#0000ff;stroke-linecap:square;"/>
    </g>
    <g id="line2d_42"/>
    <g id="text_16">
     <!-- locality#0 -->
     <defs>
      <path d="
M51.125 44
L36.9219 44
L32.8125 27.6875
L47.125 27.6875
z

M43.7969 71.7812
L38.7188 51.5156
L52.9844 51.5156
L58.1094 71.7812
L65.9219 71.7812
L60.8906 51.5156
L76.125 51.5156
L76.125 44
L58.9844 44
L54.9844 27.6875
L70.5156 27.6875
L70.5156 20.2188
L53.0781 20.2188
L48 0
L40.1875 0
L45.2188 20.2188
L30.9062 20.2188
L25.875 0
L18.0156 0
L23.0938 20.2188
L7.71875 20.2188
L7.71875 27.6875
L24.9062 27.6875
L29 44
L13.2812 44
L13.2812 51.5156
L30.9062 51.5156
L35.8906 71.7812
z
" id="DejaVuSans-23"/>
      <path d="
M32.1719 -5.07812
Q28.375 -14.8438 24.75 -17.8125
Q21.1406 -20.7969 15.0938 -20.7969
L7.90625 -20.7969
L7.90625 -13.2812
L13.1875 -13.2812
Q16.8906 -13.2812 18.9375 -11.5156
Q21 -9.76562 23.4844 -3.21875
L25.0938 0.875
L2.98438 54.6875
L12.5 54.6875
L29.5938 11.9219
L46.6875 54.6875
L56.2031 54.6875
z
" id="DejaVuSans-79"/>
      <path d="
M9.42188 75.9844
L18.4062 75.9844
L18.4062 0
L9.42188 0
z
" id="DejaVuSans-6c"/>
     </defs>
     <g transform="translate(528.499375 41.3915)scale(0.144 -0.144)">
      <use xlink:href="#DejaVuSans-6c"/>
      <use x="27.783203125" xlink:href="#DejaVuSans-6f"/>
      <use x="88.96484375" xlink:href="#DejaVuSans-63"/>
      <use x="143.9453125" xlink:href="#DejaVuSans-61"/>
      <use x="205.224609375" xlink:href="#DejaVuSans-6c"/>
      <use x="233.0078125" xlink:href="#DejaVuSans-69"/>
      <use x="260.791015625" xlink:href="#DejaVuSans-74"/>
      <use x="300.0" xlink:href="#DejaVuSans-79"/>
      <use x="359.1796875" xlink:href="#DejaVuSans-23"/>
      <use x="442.96875" xlink:href="#DejaVuSans-30"/>
     </g>
    </g>
    <g id="line2d_43">
     <path d="
M492.499 57.488
L512.659 57.488" style="fill:none;stroke:#008000;stroke-linecap:square;"/>
    </g>
    <g id="line2d_44"/>
    <g id="text_17">
     <!-- locality#1 -->
     <g transform="translate(528.499375 62.528)scale(0.144 -0.144)">
      <use xlink:href="#DejaVuSans-6c"/>
      <use x="27.783203125" xlink:href="#DejaVuSans-6f"/>
      <use x="88.96484375" xlink:href="#DejaVuSans-63"/>
      <use x="143.9453125" xlink:href="#DejaVuSans-61"/>
      <use x="205.224609375" xlink:href="#DejaVuSans-6c"/>
      <use x="233.0078125" xlink:href="#DejaVuSans-69"/>
      <use x="260.791015625" xlink:href="#DejaVuSans-74"/>
      <use x="300.0" xlink:href="#DejaVuSans-79"/>
      <use x="359.1796875" xlink:href="#DejaVuSans-23"/>
      <use x="442.96875" xlink:href="#DejaVuSans-31"/>
     </g>
    </g>
    <g id="line2d_45">
     <path d="
M492.499 78.6245
L512.659 78.6245" style="fill:none;stroke:#ff0000;stroke-linecap:square;"/>
    </g>
    <g id="line2d_46"/>
    <g id="text_18">
     <!-- locality#10 -->
     <g transform="translate(528.499375 83.6645)scale(0.144 -0.144)">
      <use xlink:href="#DejaVuSans-6c"/>
      <use x="27.783203125" xlink:href="#DejaVuSans-6f"/>
      <use x="88.96484375" xlink:href="#DejaVuSans-63"/>
      <use x="143.9453125" xlink:href="#DejaVuSans-61"/>
      <use x="205.224609375" xlink:href="#DejaVuSans-6c"/>
      <use x="233.0078125" xlink:href="#DejaVuSans-69"/>
      <use x="260.791015625" xlink:href="#DejaVuSans-74"/>
      <use x="300.0" xlink:href="#DejaVuSans-79"/>
      <use x="359.1796875" xlink:href="#DejaVuSans-23"/>
      <use x="442.96875" xlink:href="#DejaVuSans-31"/>
      <use x="506.591796875" xlink:href="#DejaVuSans-30"/>
     </g>
    </g>
    <g id="line2d_47">
     <path d="
M492.499 99.761
L512.659 99.761" style="fill:none;stroke:#00bfbf;stroke-linecap:square;"/>
    </g>
    <g id="line2d_48"/>
    <g id="text_19">
     <!-- locality#11 -->
     <g transform="translate(528.499375 104.801)scale(0.144 -0.144)">
      <use xlink:href="#DejaVuSans-6c"/>
      <use x="27.783203125" xlink:href="#DejaVuSans-6f"/>
      <use x="88.96484375" xlink:href="#DejaVuSans-63"/>
      <use x="143.9453125" xlink:href="#DejaVuSans-61"/>
      <use x="205.224609375" xlink:href="#DejaVuSans-6c"/>
      <use x="233.0078125" xlink:href="#DejaVuSans-69"/>
      <use x="260.791015625" xlink:href="#DejaVuSans-74"/>
      <use x="300.0" xlink:href="#DejaVuSans-79"/>
      <use x="359.1796875" xlink:href="#DejaVuSans-23"/>
      <use x="442.96875" xlink:href="#DejaVuSans-31"/>
      <use x="506.591796875" xlink:href="#DejaVuSans-31"/>
     </g>
    </g>
    <g id="line2d_49">
     <path d="
M492.499 120.897
L512.659 120.897" style="fill:none;stroke:#bf00bf;stroke-linecap:square;"/>
    </g>
    <g id="line2d_50"/>
    <g id="text_20">
     <!-- locality#12 -->
     <g transform="translate(528.499375 125.9375)scale(0.144 -0.144)">
      <use xlink:href="#DejaVuSans-6c"/>
      <use x="27.783203125" xlink:href="#DejaVuSans-6f"/>
      <use x="88.96484375" xlink:href="#DejaVuSans-63"/>
      <use x="143.9453125" xlink:href="#DejaVuSans-61"/>
      <use x="205.224609375" xlink:href="#DejaVuSans-6c"/>
      <use x="233.0078125" xlink:href="#DejaVuSans-69"/>
      <use x="260.791015625" xlink:href="#DejaVuSans-74"/>
      <use x="300.0" xlink:href="#DejaVuSans-79"/>
      <use x="359.1796875" xlink:href="#DejaVuSans-23"/>
      <use x="442.96875" xlink:href="#DejaVuSans-31"/>
      <use x="506.591796875" xlink:href="#DejaVuSans-32"/>
     </g>
    </g>
    <g id="line2d_51">
     <path d="
M492.499 142.034
L512.659 142.034" style="fill:none;stroke:#bfbf00;stroke-linecap:square;"/>
    </g>
    <g id="line2d_52"/>
    <g id="text_21">
     <!-- locality#13 -->
     <defs>
      <path d="
M40.5781 39.3125
Q47.6562 37.7969 51.625 33
Q55.6094 28.2188 55.6094 21.1875
Q55.6094 10.4062 48.1875 4.48438
Q40.7656 -1.42188 27.0938 -1.42188
Q22.5156 -1.42188 17.6562 -0.515625
Q12.7969 0.390625 7.625 2.20312
L7.625 11.7188
Q11.7188 9.32812 16.5938 8.10938
Q21.4844 6.89062 26.8125 6.89062
Q36.0781 6.89062 40.9375 10.5469
Q45.7969 14.2031 45.7969 21.1875
Q45.7969 27.6406 41.2812 31.2656
Q36.7656 34.9062 28.7188 34.9062
L20.2188 34.9062
L20.2188 43.0156
L29.1094 43.0156
Q36.375 43.0156 40.2344 45.9219
Q44.0938 48.8281 44.0938 54.2969
Q44.0938 59.9062 40.1094 62.9062
Q36.1406 65.9219 28.7188 65.9219
Q24.6562 65.9219 20.0156 65.0312
Q15.375 64.1562 9.8125 62.3125
L9.8125 71.0938
Q15.4375 72.6562 20.3438 73.4375
Q25.25 74.2188 29.5938 74.2188
Q40.8281 74.2188 47.3594 69.1094
Q53.9062 64.0156 53.9062 55.3281
Q53.9062 49.2656 50.4375 45.0938
Q46.9688 40.9219 40.5781 39.3125" id="DejaVuSans-33"/>
     </defs>
     <g transform="translate(528.499375 147.074)scale(0.144 -0.144)">
      <use xlink:href="#DejaVuSans-6c"/>
      <use x="27.783203125" xlink:href="#DejaVuSans-6f"/>
      <use x="88.96484375" xlink:href="#DejaVuSans-63"/>
      <use x="143.9453125" xlink:href="#DejaVuSans-61"/>
      <use x="205.224609375" xlink:href="#DejaVuSans-6c"/>
      <use x="233.0078125" xlink:href="#DejaVuSans-69"/>
      <use x="260.791015625" xlink:href="#DejaVuSans-74"/>
      <use x="300.0" xlink:href="#DejaVuSans-79"/>
      <use x="359.1796875" xlink:href="#DejaVuSans-23"/>
      <use x="442.96875" xlink:href="#DejaVuSans-31"/>
      <use x="506.591796875" xlink:href="#DejaVuSans-33"/>
     </g>
    </g>
    <g id="line2d_53">
     <path d="
M492.499 163.17
L512.659 163.17" style="fill:none;stroke:#000000;stroke-linecap:square;"/>
    </g>
    <g id="line2d_54"/>
    <g id="text_22">
     <!-- locality#14 -->
     <g transform="translate(528.499375 168.2105)scale(0.144 -0.144)">
      <use xlink:href="#DejaVuSans-6c"/>
      <use x="27.783203125" xlink:href="#DejaVuSans-6f"/>
      <use x="88.96484375" xlink:href="#DejaVuSans-63"/>
      <use x="143.9453125" xlink:href="#DejaVuSans-61"/>
      <use x="205.224609375" xlink:href="#DejaVuSans-6c"/>
      <use x="233.0078125" xlink:href="#DejaVuSans-69"/>
      <use x="260.791015625" xlink:href="#DejaVuSans-74"/>
      <use x="300.0" xlink:href="#DejaVuSans-79"/>
      <use x="359.1796875" xlink:href="#DejaVuSans-23"/>
      <use x="442.96875" xlink:href="#DejaVuSans-31"/>
      <use x="506.591796875" xlink:href="#DejaVuSans-34"/>
     </g>
    </g>
    <g id="line2d_55">
     <path d="
M492.499 184.307
L512.659 184.307" style="fill:none;stroke:#0000ff;stroke-linecap:square;"/>
    </g>
    <g id="line2d_56"/>
    <g id="text_23">
     <!-- locality#15 -->
     <g transform="translate(528.499375 189.347)scale(0.144 -0.144)">
      <use xlink:href="#DejaVuSans-6c"/>
      <use x="27.783203125" xlink:href="#DejaVuSans-6f"/>
      <use x="88.96484375" xlink:href="#DejaVuSans-63"/>
      <use x="143.9453125" xlink:href="#DejaVuSans-61"/>
      <use x="205.224609375" xlink:href="#DejaVuSans-6c"/>
      <use x="233.0078125" xlink:href="#DejaVuSans-69"/>
      <use x="260.791015625" xlink:href="#DejaVuSans-74"/>
      <use x="300.0" xlink:href="#DejaVuSans-79"/>
      <use x="359.1796875" xlink:href="#DejaVuSans-23"/>
      <use x="442.96875" xlink:href="#DejaVuSans-31"/>
      <use x="506.591796875" xlink:href="#DejaVuSans-35"/>
     </g>
    </g>
    <g id="line2d_57">
     <path d="
M492.499 205.443
L512.659 205.443" style="fill:none;stroke:#008000;stroke-linecap:square;"/>
    </g>
    <g id="line2d_58"/>
    <g id="text_24">
     <!-- locality#2 -->
     <g transform="translate(528.499375 210.4835)scale(0.144 -0.144)">
      <use xlink:href="#DejaVuSans-6c"/>
      <use x="27.783203125" xlink:href="#DejaVuSans-6f"/>
      <use x="88.96484375" xlink:href="#DejaVuSans-63"/>
      <use x="143.9453125" xlink:href="#DejaVuSans-61"/>
      <use x="205.224609375" xlink:href="#DejaVuSans-6c"/>
      <use x="233.0078125" xlink:href="#DejaVuSans-69"/>
      <use x="260.791015625" xlink:href="#DejaVuSans-74"/>
      <use x="300.0" xlink:href="#DejaVuSans-79"/>
      <use x="359.1796875" xlink:href="#DejaVuSans-23"/>
      <use x="442.96875" xlink:href="#DejaVuSans-32"/>
     </g>
    </g>
    <g id="line2d_59">
     <path d="
M492.499 226.58
L512.659 226.58" style="fill:none;stroke:#ff0000;stroke-linecap:square;"/>
    </g>
    <g id="line2d_60"/>
    <g id="text_25">
     <!-- locality#3 -->
     <g transform="translate(528.499375 231.62)scale(0.144 -0.144)">
      <use xlink:href="#DejaVuSans-6c"/>
      <use x="27.783203125" xlink:href="#DejaVuSans-6f"/>
      <use x="88.96484375" xlink:href="#DejaVuSans-63"/>
      <use x="143.9453125" xlink:href="#DejaVuSans-61"/>
      <use x="205.224609375" xlink:href="#DejaVuSans-6c"/>
      <use x="233.0078125" xlink:href="#DejaVuSans-69"/>
      <use x="260.791015625" xlink:href="#DejaVuSans-74"/>
      <use x="300.0" xlink:href="#DejaVuSans-79"/>
      <use x="359.1796875" xlink:href="#DejaVuSans-23"/>
      <use x="442.96875" xlink:href="#DejaVuSans-33"/>
     </g>
    </g>
    <g id="line2d_61">
     <path d="
M492.499 247.716
L512.659 247.716" style="fill:none;stroke:#00bfbf;stroke-linecap:square;"/>
    </g>
    <g id="line2d_62"/>
    <g id="text_26">
     <!-- locality#4 -->
     <g transform="translate(528.499375 252.7565)scale(0.144 -0.144)">
      <use xlink:href="#DejaVuSans-6c"/>
      <use x="27.783203125" xlink:href="#DejaVuSans-6f"/>
      <use x="88.96484375" xlink:href="#DejaVuSans-63"/>
      <use x="143.9453125" xlink:href="#DejaVuSans-61"/>
      <use x="205.224609375" xlink:href="#DejaVuSans-6c"/>
      <use x="233.0078125" xlink:href="#DejaVuSans-69"/>
      <use x="260.791015625" xlink:href="#DejaVuSans-74"/>
      <use x="300.0" xlink:href="#DejaVuSans-79"/>
      <use x="359.1796875" xlink:href="#DejaVuSans-23"/>
      <use x="442.96875" xlink:href="#DejaVuSans-34"/>
     </g>
    </g>
    <g id="line2d_63">
     <path d="
M492.499 268.853
L512.659 268.853" style="fill:none;stroke:#bf00bf;stroke-linecap:square;"/>
    </g>
    <g id="line2d_64"/>
    <g id="text_27">
     <!-- locality#5 -->
     <g transform="translate(528.499375 273.893)scale(0.144 -0.144)">
      <use xlink:href="#DejaVuSans-6c"/>
      <use x="27.783203125" xlink:href="#DejaVuSans-6f"/>
      <use x="88.96484375" xlink:href="#DejaVuSans-63"/>
      <use x="143.9453125" xlink:href="#DejaVuSans-61"/>
      <use x="205.224609375" xlink:href="#DejaVuSans-6c"/>
      <use x="233.0078125" xlink:href="#DejaVuSans-69"/>
      <use x="260.791015625" xlink:href="#DejaVuSans-74"/>
      <use x="300.0" xlink:href="#DejaVuSans-79"/>
      <use x="359.1796875" xlink:href="#DejaVuSans-23"/>
      <use x="442.96875" xlink:href="#DejaVuSans-35"/>
     </g>
    </g>
    <g id="line2d_65">
     <path d="
M492.499 289.989
L512.659 289.989" style="fill:none;stroke:#bfbf00;stroke-linecap:square;"/>
    </g>
    <g id="line2d_66"/>
    <g id="text_28">
     <!-- locality#6 -->
     <g transform="translate(528.499375 295.0295)scale(0.144 -0.144)">
      <use xlink:href="#DejaVuSans-6c"/>
      <use x="27.783203125" xlink:href="#DejaVuSans-6f"/>
      <use x="88.96484375" xlink:href="#DejaVuSans-63"/>
      <use x="143.9453125" xlink:href="#DejaVuSans-61"/>
      <use x="205.224609375" xlink:href="#DejaVuSans-6c"/>
      <use x="233.0078125" xlink:href="#DejaVuSans-69"/>
      <use x="260.791015625" xlink:href="#DejaVuSans-74"/>
      <use x="300.0" xlink:href="#DejaVuSans-79"/>
      <use x="359.1796875" xlink:href="#DejaVuSans-23"/>
      <use x="442.96875" xlink:href="#DejaVuSans-36"/>
     </g>
    </g>
    <g id="line2d_67">
     <path d="
M492.499 311.126
L512.659 311.126" style="fill:none;stroke:#000000;stroke-linecap:square;"/>
    </g>
    <g id="line2d_68"/>
    <g id="text_29">
     <!-- locality#7 -->
     <g transform="translate(528.499375 316.166)scale(0.144 -0.144)">
      <use xlink:href="#DejaVuSans-6c"/>
      <use x="27.783203125" xlink:href="#DejaVuSans-6f"/>
      <use x="88.96484375" xlink:href="#DejaVuSans-63"/>
      <use x="143.9453125" xlink:href="#DejaVuSans-61"/>
      <use x="205.224609375" xlink:href="#DejaVuSans-6c"/>
      <use x="233.0078125" xlink:href="#DejaVuSans-69"/>
      <use x="260.791015625" xlink:href="#DejaVuSans-74"/>
      <use x="300.0" xlink:href="#DejaVuSans-79"/>
      <use x="359.1796875" xlink:href="#DejaVuSans-23"/>
      <use x="442.96875" xlink:href="#DejaVuSans-37"/>
     </g>
    </g>
    <g id="line2d_69">
     <path d="
M492.499 332.262
L512.659 332.262" style="fill:none;stroke:#0000ff;stroke-linecap:square;"/>
    </g>
    <g id="line2d_70"/>
    <g id="text_30">
     <!-- locality#8 -->
     <g transform="translate(528.499375 337.3025)scale(0.144 -0.144)">
      <use xlink:href="#DejaVuSans-6c"/>
      <use x="27.783203125" xlink:href="#DejaVuSans-6f"/>
      <use x="88.96484375" xlink:href="#DejaVuSans-63"/>
      <use x="143.9453125" xlink:href="#DejaVuSans-61"/>
      <use x="205.224609375" xlink:href="#DejaVuSans-6c"/>
      <use x="233.0078125" xlink:href="#DejaVuSans-69"/>
      <use x="260.791015625" xlink:href="#DejaVuSans-74"/>
      <use x="300.0" xlink:href="#DejaVuSans-79"/>
      <use x="359.1796875" xlink:href="#DejaVuSans-23"/>
      <use x="442.96875" xlink:href="#DejaVuSans-38"/>
     </g>
    </g>
    <g id="line2d_71">
     <path d="
M492.499 353.399
L512.659 353.399" style="fill:none;stroke:#008000;stroke-linecap:square;"/>
    </g>
    <g id="line2d_72"/>
    <g id="text_31">
     <!-- locality#9 -->
     <defs>
      <path d="
M10.9844 1.51562
L10.9844 10.5
Q14.7031 8.73438 18.5 7.8125
Q22.3125 6.89062 25.9844 6.89062
Q35.75 6.89062 40.8906 13.4531
Q46.0469 20.0156 46.7812 33.4062
Q43.9531 29.2031 39.5938 26.9531
Q35.25 24.7031 29.9844 24.7031
Q19.0469 24.7031 12.6719 31.3125
Q6.29688 37.9375 6.29688 49.4219
Q6.29688 60.6406 12.9375 67.4219
Q19.5781 74.2188 30.6094 74.2188
Q43.2656 74.2188 49.9219 64.5156
Q56.5938 54.8281 56.5938 36.375
Q56.5938 19.1406 48.4062 8.85938
Q40.2344 -1.42188 26.4219 -1.42188
Q22.7031 -1.42188 18.8906 -0.6875
Q15.0938 0.046875 10.9844 1.51562
M30.6094 32.4219
Q37.25 32.4219 41.125 36.9531
Q45.0156 41.5 45.0156 49.4219
Q45.0156 57.2812 41.125 61.8438
Q37.25 66.4062 30.6094 66.4062
Q23.9688 66.4062 20.0938 61.8438
Q16.2188 57.2812 16.2188 49.4219
Q16.2188 41.5 20.0938 36.9531
Q23.9688 32.4219 30.6094 32.4219" id="DejaVuSans-39"/>
     </defs>
     <g transform="translate(528.499375 358.439)scale(0.144 -0.144)">
      <use xlink:href="#DejaVuSans-6c"/>
      <use x="27.783203125" xlink:href="#DejaVuSans-6f"/>
      <use x="88.96484375" xlink:href="#DejaVuSans-63"/>
      <use x="143.9453125" xlink:href="#DejaVuSans-61"/>
      <use x="205.224609375" xlink:href="#DejaVuSans-6c"/>
      <use x="233.0078125" xlink:href="#DejaVuSans-69"/>
      <use x="260.791015625" xlink:href="#DejaVuSans-74"/>
      <use x="300.0" xlink:href="#DejaVuSans-79"/>
      <use x="359.1796875" xlink:href="#DejaVuSans-23"/>
      <use x="442.96875" xlink:href="#DejaVuSans-39"/>
     </g>
    </g>
   </g>
  </g>
 </g>
 <defs>
  <clipPath id="p8c776b0f9c">
   <rect height="345.6" width="446.4" x="28.819375" y="23.14175"/>
  </clipPath>
 </defs>
</svg>
