<?xml version="1.0" encoding="utf-8" standalone="no"?>
<!DOCTYPE svg PUBLIC "-//W3C//DTD SVG 1.1//EN"
  "http://www.w3.org/Graphics/SVG/1.1/DTD/svg11.dtd">
<!-- Created with matplotlib (http://matplotlib.org/) -->
<svg height="408pt" version="1.1" viewBox="0 0 610 408" width="610pt" xmlns="http://www.w3.org/2000/svg" xmlns:xlink="http://www.w3.org/1999/xlink">
 <defs>
  <style type="text/css">
*{stroke-linecap:butt;stroke-linejoin:round;}
  </style>
 </defs>
 <g id="figure_1">
  <g id="patch_1">
   <path d="
M0 408.169
L610.164 408.169
L610.164 0
L0 0
z
" style="fill:#ffffff;"/>
  </g>
  <g id="axes_1">
   <g id="patch_2">
    <path d="
M17.575 368.742
L463.975 368.742
L463.975 23.1417
L17.575 23.1417
z
" style="fill:#ffffff;"/>
   </g>
   <g id="line2d_1">
    <path clip-path="url(#pf51f381abf)" d="
M17.575 355.247
L18.9318 355.217
L19.271 355.217
L19.6103 355.041
L20.9671 355.041
L21.3063 354.884
L23.0024 354.884
L23.3416 354.759
L26.7337 354.656
L27.7513 354.606
L28.4297 354.606
L28.7689 354.422
L33.5179 354.389
L34.1963 354.298
L38.606 354.207
L39.9628 354.175
L40.3021 354.175
L40.6413 353.793
L45.3902 353.739
L45.7294 353.58
L49.7999 353.474
L53.8704 353.238
L58.9586 353.147
L60.3154 353.111
L62.3507 353.081
L62.6899 352.907
L64.0467 352.907
L64.3859 352.669
L67.4388 352.587
L68.1172 352.503
L72.527 352.443
L73.2054 352.34
L74.223 352.271
L74.5622 352.107
L75.9191 352.107
L76.5975 351.995
L82.0248 351.898
L82.7033 351.869
L83.0425 351.203
L89.4875 351.203
L89.8267 350.914
L99.3245 350.816
L100.003 350.735
L106.109 350.643
L106.448 350.505
L107.805 350.505
L108.144 348.118
L112.893 348.118
L113.232 347.61
L122.391 347.514
L124.426 347.458
L124.765 335.04
L140.708 334.958
L142.065 334.926
L145.457 334.869
L145.796 333.983
L156.99 333.934
L157.329 333.781
L165.131 333.7
L165.47 333.452
L169.88 333.452
L170.219 333.257
L179.039 333.161
L181.413 333.066
L185.823 333.008
L186.162 329.963
L211.264 329.877
L212.281 329.839
L219.405 329.748
L221.101 329.686
L223.136 329.652
L223.475 327.333
L245.863 327.241
L246.202 251.24
L263.502 251.184
L263.841 248.829
L291.996 248.72
L293.353 248.685
L299.458 248.626
L300.476 248.545
L304.207 248.516
L304.546 245.841
L340.503 245.731
L341.52 245.69
L352.714 245.597
L353.053 244.689
L373.067 244.598
L373.745 244.537
L374.763 244.537
L375.102 242.233
L405.292 242.142
L406.649 242.113
L430.393 242.003
L431.75 241.974
L432.428 241.974
L432.768 241.757
L445.318 241.668
L448.032 241.579
L452.103 241.549
L452.442 239.487
L463.975 239.428
L463.975 239.428" style="fill:none;stroke:#0000ff;stroke-linecap:square;"/>
   </g>
   <g id="line2d_2">
    <path clip-path="url(#pf51f381abf)" d="
M17.575 331.965
L17.9142 331.792
L21.3063 331.701
L22.6631 331.672
L29.1081 331.587
L29.4473 331.45
L32.8394 331.386
L33.8571 331.332
L39.9628 331.24
L41.3197 331.206
L43.6941 331.133
L44.0334 331.009
L45.7294 331.009
L46.0686 330.818
L47.4255 330.818
L47.7647 330.394
L51.1568 330.394
L51.496 330.127
L56.5841 330.073
L56.9233 329.846
L58.2802 329.846
L58.6194 329.267
L62.0115 329.267
L62.3507 328.931
L72.8662 328.882
L73.5446 328.808
L78.2935 328.738
L78.6328 328.548
L82.0248 328.479
L82.7033 328.422
L84.0601 328.422
L84.3993 328.301
L89.4875 328.242
L89.8267 328.109
L94.5756 328.08
L94.9148 327.913
L100.003 327.913
L100.342 327.25
L114.589 327.161
L115.267 327.1
L123.408 326.993
L124.765 326.962
L130.532 326.884
L130.871 326.499
L135.62 326.499
L135.959 326.264
L139.351 326.264
L139.691 325.937
L149.528 325.937
L149.867 323.834
L170.559 323.772
L170.898 323.258
L181.074 323.258
L181.413 322.94
L189.554 322.94
L189.894 322.489
L199.052 322.387
L200.409 322.356
L206.854 322.254
L208.889 322.2
L209.907 322.2
L210.246 322.067
L216.352 322.067
L216.691 321.826
L218.048 321.826
L218.387 321.297
L229.92 321.241
L230.259 319.399
L261.128 319.323
L261.806 319.264
L267.912 319.209
L268.251 317.756
L294.37 317.656
L295.049 317.598
L303.19 317.524
L303.868 317.452
L308.956 317.452
L309.295 317.31
L314.723 317.31
L315.062 316.854
L332.701 316.765
L334.058 316.735
L339.146 316.65
L340.842 316.623
L346.948 316.544
L347.626 316.468
L359.159 316.378
L359.498 315.997
L393.08 315.892
L394.098 315.847
L405.631 315.744
L406.309 315.669
L409.701 315.669
L410.041 315.297
L418.86 315.297
L419.199 310.423
L451.424 310.319
L452.781 310.289
L461.601 310.195
L462.618 310.152
L463.975 310.152
L463.975 310.152" style="fill:none;stroke:#008000;stroke-linecap:square;"/>
   </g>
   <g id="line2d_3">
    <path clip-path="url(#pf51f381abf)" d="
M17.575 329.447
L17.9142 329.418
L18.2534 329.418
L18.5926 329.048
L21.3063 328.963
L26.7337 328.649
L27.0729 328.386
L27.7513 328.386
L28.0905 328.112
L28.4297 328.112
L28.7689 327.972
L29.4473 327.972
L30.1258 327.858
L31.4826 327.828
L32.161 327.711
L34.1963 327.604
L34.8747 327.511
L35.2139 327.511
L35.5531 327.318
L37.9276 327.288
L38.606 327.186
L40.9805 327.127
L41.3197 326.964
L43.6941 326.888
L44.0334 326.437
L48.4431 326.399
L48.7823 326.007
L52.1744 326.007
L52.5136 324.945
L56.9233 324.851
L58.6194 324.654
L58.9586 324.654
L59.2978 324.371
L64.3859 324.345
L65.0644 324.232
L66.4212 324.232
L66.7604 324.006
L74.9014 323.907
L75.2407 323.523
L81.6856 323.452
L82.0248 323.192
L86.4346 323.138
L86.7738 322.641
L93.558 322.605
L94.2364 322.522
L95.5932 322.522
L95.9324 322.078
L101.021 321.999
L101.36 321.793
L104.073 321.793
L104.413 321.599
L107.805 321.527
L108.144 320.424
L120.695 320.424
L121.034 320.178
L128.836 320.078
L129.175 319.788
L136.298 319.788
L136.638 319.109
L144.439 319.062
L144.779 316.647
L158.008 316.647
L158.347 316.468
L161.4 316.468
L161.739 316.071
L165.81 316.071
L166.149 315.927
L168.523 315.898
L168.863 314.289
L184.805 314.232
L185.145 313.743
L192.607 313.743
L192.946 310.756
L208.889 310.756
L209.228 310.475
L211.942 310.475
L212.281 310.258
L218.726 310.166
L219.405 310.061
L222.118 310.061
L222.458 309.922
L226.867 309.863
L227.207 309.568
L231.277 309.568
L231.616 308.988
L239.418 308.988
L239.757 308.828
L243.828 308.828
L244.167 308.556
L252.647 308.449
L252.987 308.327
L255.361 308.327
L255.7 306.901
L269.947 306.799
L270.625 306.706
L275.374 306.639
L275.714 305.846
L283.515 305.816
L283.855 304.732
L291.656 304.641
L291.996 303.051
L301.833 302.98
L302.172 302.635
L317.436 302.603
L317.776 302.011
L331.344 301.939
L331.683 300.804
L345.93 300.779
L346.269 289.413
L360.516 289.413
L360.855 289.141
L369.675 289.053
L370.014 287.762
L373.745 287.762
L374.084 287.631
L380.19 287.535
L382.225 287.442
L383.243 287.442
L383.582 286.967
L405.292 286.878
L406.649 286.846
L406.988 285.705
L422.931 285.705
L423.27 285.185
L433.785 285.153
L434.125 284.628
L450.746 284.628
L451.085 284.471
L461.261 284.39
L461.601 274.088
L463.975 274.088
L463.975 274.088" style="fill:none;stroke:#ff0000;stroke-linecap:square;"/>
   </g>
   <g id="line2d_4">
    <path clip-path="url(#pf51f381abf)" d="
M17.575 332.477
L19.9495 332.362
L22.6631 332.268
L23.0024 332.134
L25.0376 332.077
L25.3768 331.879
L28.0905 331.826
L28.4297 331.697
L31.1434 331.6
L31.8218 331.542
L33.1786 331.542
L33.8571 331.425
L36.91 331.34
L37.5884 331.273
L37.9276 331.273
L38.2668 331.031
L40.9805 331.031
L41.3197 330.641
L43.0157 330.641
L43.3549 330.376
L45.051 330.376
L45.3902 330.204
L45.7294 330.204
L46.0686 330.076
L47.7647 330.046
L48.1039 329.852
L50.8176 329.852
L51.1568 329.625
L57.941 329.566
L58.2802 329.221
L61.6723 329.128
L62.3507 329.019
L63.7075 328.909
L64.0467 328.439
L67.778 328.439
L68.1172 327.757
L77.6151 327.757
L77.9543 230.144
L87.4522 230.144
L87.7914 228.746
L100.003 228.716
L100.342 228.394
L107.126 228.305
L107.466 227.758
L115.607 227.691
L116.285 227.61
L117.642 227.61
L117.981 227.326
L122.391 227.326
L122.73 226.765
L129.175 226.765
L129.514 226.531
L133.924 226.531
L134.263 226.353
L135.62 226.353
L135.959 224.828
L144.439 224.719
L145.118 224.689
L145.457 224.355
L149.867 224.355
L150.206 223.365
L159.365 223.339
L159.704 221.936
L173.611 221.838
L173.951 220.093
L182.77 220.093
L183.109 218.003
L202.444 217.909
L202.784 217.777
L205.836 217.777
L206.176 217.187
L213.299 217.128
L213.638 214.181
L231.616 214.181
L231.956 210.845
L263.502 210.802
L264.18 210.731
L270.286 210.638
L270.625 210.072
L280.802 210.072
L281.141 208.996
L288.264 208.943
L288.604 207.722
L307.599 207.643
L307.939 206.308
L336.771 206.308
L337.111 205.057
L346.608 205.057
L346.948 203.33
L367.3 203.33
L367.639 194.933
L411.397 194.87
L411.737 187.704
L463.975 187.704
L463.975 187.704" style="fill:none;stroke:#00bfbf;stroke-linecap:square;"/>
   </g>
   <g id="line2d_5">
    <path clip-path="url(#pf51f381abf)" d="
M17.575 334.745
L18.9318 334.675
L21.9847 334.592
L23.0024 334.563
L23.3416 334.32
L25.3768 334.288
L26.0552 334.197
L27.7513 334.143
L28.4297 334.058
L28.7689 334.058
L29.1081 333.885
L33.1786 333.797
L33.8571 333.695
L36.2315 333.641
L36.5707 333.501
L37.5884 333.501
L37.9276 333.17
L41.6589 333.076
L43.3549 333.023
L46.0686 332.92
L46.747 332.861
L49.1215 332.761
L57.6017 332.11
L57.941 331.743
L63.0291 331.65
L63.3683 331.465
L68.4565 331.406
L68.7957 331.287
L74.9014 331.194
L78.6328 331.002
L82.3641 330.937
L83.0425 330.867
L84.3993 330.8
L84.7385 330.214
L89.4875 330.214
L90.1659 330.101
L95.9324 330.024
L96.6109 329.919
L96.9501 329.919
L97.2893 329.788
L101.36 329.76
L101.699 328.338
L107.466 328.282
L107.805 327.139
L115.946 327.041
L116.624 326.976
L118.999 326.943
L119.677 326.851
L122.052 326.786
L123.069 326.738
L124.087 326.738
L124.426 326.387
L134.602 326.276
L135.281 326.213
L139.691 326.108
L140.369 326.025
L142.743 326.025
L143.083 325.286
L150.884 325.286
L151.224 324.849
L159.025 324.761
L159.704 324.695
L163.096 324.649
L163.435 324.165
L170.219 324.165
L170.559 321.868
L189.215 321.868
L189.554 321.714
L192.268 321.714
L192.607 318.536
L216.013 318.483
L216.691 318.405
L218.726 318.377
L219.066 318.199
L223.815 318.139
L224.493 318.03
L224.832 318.03
L225.171 317.514
L228.903 317.447
L229.242 317.313
L232.973 317.313
L233.312 316.528
L249.255 316.465
L249.594 316.231
L254.343 316.231
L254.683 313.838
L268.59 313.768
L269.269 313.699
L270.625 313.699
L270.965 313.041
L280.802 312.978
L281.819 312.926
L285.89 312.843
L286.568 312.76
L290.3 312.698
L290.978 312.625
L293.353 312.625
L293.692 312.193
L296.405 312.193
L296.745 311.588
L306.582 311.494
L307.599 311.44
L308.956 311.44
L309.295 307.544
L337.111 307.544
L337.45 307.385
L347.965 307.282
L348.304 307.073
L359.498 306.98
L361.534 306.923
L364.247 306.853
L364.926 306.782
L366.622 306.782
L366.961 306.075
L373.406 306.075
L373.745 305.692
L388.67 305.692
L389.01 305.398
L405.631 305.296
L408.005 305.19
L414.45 305.113
L415.468 305.061
L422.591 304.965
L422.931 304.306
L438.873 304.2
L439.213 303.934
L458.548 303.865
L459.226 303.794
L463.975 303.74
L463.975 303.74" style="fill:none;stroke:#bf00bf;stroke-linecap:square;"/>
   </g>
   <g id="line2d_6">
    <path clip-path="url(#pf51f381abf)" d="
M17.575 333.451
L17.9142 333.377
L18.2534 333.377
L19.9495 333.347
L20.6279 333.261
L21.3063 333.261
L21.6455 333.091
L22.6631 333.091
L23.0024 332.907
L26.3945 332.815
L27.0729 332.737
L30.1258 332.709
L30.465 332.581
L31.1434 332.581
L31.4826 332.435
L32.5002 332.435
L33.1786 332.318
L35.8923 332.232
L36.2315 332.099
L41.9981 331.997
L42.3373 331.868
L46.4078 331.776
L47.0862 331.72
L50.1391 331.614
L50.8176 331.542
L53.5312 331.442
L54.2097 331.33
L55.9057 331.33
L56.2449 331.175
L60.6546 331.077
L62.6899 331.026
L64.3859 330.995
L65.0644 330.914
L65.4036 330.914
L65.7428 330.664
L70.1525 330.627
L70.8309 330.528
L73.8838 330.528
L74.223 330.278
L78.6328 330.181
L78.972 330.018
L80.668 330.018
L81.0072 329.83
L84.3993 329.83
L84.7385 329.298
L89.1483 329.229
L89.4875 329.088
L92.5403 329.058
L93.2188 328.956
L99.6638 328.873
L100.342 328.765
L103.056 328.693
L103.734 328.632
L106.448 328.586
L106.787 327.998
L115.607 327.998
L115.946 327.845
L120.356 327.845
L120.695 327.637
L128.497 327.558
L128.836 327.229
L137.655 327.155
L137.994 326.726
L142.065 326.726
L142.404 326.553
L148.849 326.553
L149.188 325.515
L157.669 325.471
L158.347 325.368
L161.061 325.368
L161.4 325.175
L166.827 325.113
L167.845 325.061
L171.237 324.997
L171.915 324.937
L173.611 324.937
L173.951 324.815
L178.021 324.787
L178.36 324.609
L181.413 324.609
L181.753 324.15
L193.286 324.15
L193.625 324.028
L200.409 323.98
L201.087 323.878
L204.48 323.878
L204.819 323.601
L210.585 323.518
L210.925 323.39
L216.691 323.287
L217.03 323.156
L221.101 323.12
L221.779 323.038
L226.528 322.97
L226.867 284.986
L235.687 284.899
L236.026 284.736
L240.097 284.736
L240.436 284.268
L248.916 284.237
L249.255 283.775
L255.7 283.669
L256.039 283.454
L262.484 283.424
L262.824 280.789
L291.996 280.789
L292.335 280.656
L302.172 280.574
L302.511 277.736
L312.009 277.645
L312.348 277.515
L317.097 277.515
L317.436 277.219
L336.771 277.194
L337.111 277.074
L345.93 276.972
L346.608 276.909
L352.375 276.833
L352.714 275.754
L370.692 275.689
L371.032 275.486
L383.582 275.4
L383.922 271.674
L392.402 271.636
L392.741 270.968
L405.97 270.945
L406.309 270.743
L417.503 270.66
L417.842 258.474
L450.746 258.474
L451.085 256.14
L463.975 256.14
L463.975 256.14" style="fill:none;stroke:#bfbf00;stroke-linecap:square;"/>
   </g>
   <g id="line2d_7">
    <path clip-path="url(#pf51f381abf)" d="
M17.575 331.857
L17.9142 331.763
L18.2534 331.763
L20.2887 331.733
L20.9671 331.622
L26.0552 331.532
L26.3945 331.379
L28.7689 331.353
L29.4473 331.259
L34.1963 331.163
L35.2139 331.114
L36.91 331.048
L37.5884 330.975
L40.9805 330.942
L41.3197 330.798
L44.7118 330.75
L45.051 330.561
L47.4255 330.498
L48.4431 330.45
L51.496 330.386
L52.1744 330.27
L54.2097 330.27
L54.5489 329.964
L55.5665 329.964
L55.9057 329.796
L56.9233 329.796
L57.2625 328.815
L63.3683 328.759
L64.0467 328.65
L66.082 328.596
L66.4212 328.404
L67.4388 328.404
L67.778 327.851
L74.223 327.757
L75.9191 327.69
L80.668 327.598
L82.3641 327.508
L86.0954 327.451
L86.4346 327.171
L93.8972 327.077
L94.5756 326.972
L99.3245 326.93
L100.003 326.826
L104.413 326.768
L104.752 326.631
L108.483 326.631
L108.822 325.429
L116.285 325.372
L116.963 325.267
L118.999 325.267
L119.338 325.102
L124.087 325.102
L124.765 324.988
L126.461 324.988
L126.801 324.728
L135.62 324.63
L136.298 324.553
L142.065 324.456
L142.404 324.149
L148.51 324.068
L148.849 323.93
L149.528 323.93
L149.867 275.783
L152.241 275.783
L152.58 275.645
L157.329 275.548
L157.669 274.825
L164.792 274.797
L165.131 228.694
L167.506 228.668
L167.845 228.476
L174.968 228.38
L175.308 228.227
L180.056 228.227
L180.396 227.937
L185.145 227.937
L185.484 227.781
L191.25 227.697
L191.929 227.587
L194.982 227.587
L195.321 226.942
L203.801 226.942
L204.14 226.679
L206.176 226.679
L206.515 225.203
L223.815 225.1
L225.511 224.998
L231.616 224.896
L233.312 224.811
L239.079 224.719
L239.757 224.64
L246.542 224.536
L247.22 224.477
L251.63 224.406
L252.308 224.331
L259.092 224.248
L259.432 224.084
L264.18 224.024
L264.859 223.911
L269.608 223.82
L271.643 223.763
L273.339 223.729
L274.018 223.646
L277.07 223.646
L277.41 223.245
L291.317 223.245
L291.656 222.884
L313.705 222.775
L314.723 222.731
L316.758 222.731
L317.097 222.431
L328.63 222.393
L329.309 222.284
L336.093 222.252
L336.432 220.856
L341.859 220.856
L342.199 220.51
L344.912 220.51
L345.591 220.394
L353.732 220.316
L354.749 220.277
L358.142 220.219
L358.481 220.048
L369.675 219.955
L370.353 219.885
L372.728 219.885
L373.067 219.592
L388.67 219.561
L389.349 219.477
L397.49 219.379
L398.168 219.295
L403.596 219.295
L403.935 219.032
L416.486 219.001
L416.825 218.877
L428.358 218.814
L429.036 218.706
L435.142 218.706
L435.481 218.534
L445.318 218.502
L445.658 216.438
L452.103 216.438
L452.781 216.324
L463.636 216.274
L463.975 216.123
L463.975 216.123" style="fill:none;stroke:#000000;stroke-linecap:square;"/>
   </g>
   <g id="line2d_8">
    <path clip-path="url(#pf51f381abf)" d="
M17.575 334.694
L17.9142 334.354
L22.3239 334.301
L23.0024 334.229
L25.716 334.141
L27.4121 334.078
L31.8218 333.973
L33.8571 333.908
L37.9276 333.854
L38.2668 333.695
L44.0334 333.589
L46.747 333.452
L51.496 333.353
L52.8528 333.324
L53.192 333.049
L57.6017 333.003
L58.2802 332.931
L66.7604 332.822
L68.4565 332.758
L74.223 332.651
L74.9014 332.573
L75.9191 332.573
L76.2583 332.454
L80.3288 332.454
L81.0072 332.34
L84.7385 332.27
L85.4169 332.187
L87.7914 332.129
L88.4698 332.068
L92.2011 331.987
L92.5403 331.858
L99.6638 331.799
L100.003 331.64
L102.717 331.64
L103.056 331.377
L113.232 331.317
L113.571 331.196
L117.642 331.196
L117.981 331.051
L122.052 331.051
L122.391 330.878
L125.104 330.878
L125.444 330.692
L127.818 330.666
L128.157 330.534
L135.281 330.433
L136.298 330.383
L137.994 330.383
L138.334 330.201
L145.457 330.126
L145.796 329.615
L152.58 329.615
L152.92 329.449
L153.937 329.449
L154.277 329.324
L161.4 329.324
L161.739 329.187
L164.114 329.187
L164.453 328.98
L175.647 328.876
L175.986 328.749
L180.056 328.749
L180.396 328.089
L182.77 328.089
L183.109 326.024
L213.299 325.917
L214.995 325.848
L220.083 325.75
L222.118 325.694
L227.207 325.605
L228.224 325.561
L232.973 325.495
L233.991 325.442
L240.097 325.357
L241.453 325.326
L244.506 325.23
L246.881 325.154
L250.273 325.096
L251.291 325.041
L257.396 324.958
L257.735 324.766
L261.806 324.766
L262.145 324.638
L271.982 324.548
L272.322 323.461
L279.445 323.461
L279.784 321.641
L286.568 321.552
L286.908 319.303
L293.692 319.303
L294.031 319.079
L296.745 319.079
L297.084 318.923
L308.617 318.892
L309.295 318.809
L312.009 318.809
L312.348 318.681
L316.758 318.649
L317.097 318.391
L326.934 318.343
L327.613 318.27
L330.326 318.27
L330.666 318.147
L338.807 318.147
L339.146 317.759
L348.983 317.759
L349.322 316.915
L365.265 316.822
L367.639 316.767
L373.745 316.669
L375.78 316.61
L381.886 316.502
L383.243 316.466
L388.67 316.374
L389.01 316.256
L398.847 316.146
L399.864 316.095
L407.327 316.007
L409.023 315.98
L412.754 315.9
L413.433 315.834
L422.252 315.784
L422.931 315.684
L435.821 315.595
L437.177 315.56
L443.622 315.478
L443.962 315.356
L455.495 315.274
L456.512 315.227
L463.975 315.15
L463.975 315.15" style="fill:none;stroke:#0000ff;stroke-linecap:square;"/>
   </g>
   <g id="line2d_9">
    <path clip-path="url(#pf51f381abf)" d="
M17.575 331.121
L17.9142 331.004
L18.2534 331.004
L21.3063 330.925
L21.6455 330.679
L29.1081 330.599
L30.1258 330.544
L31.1434 330.544
L31.4826 330.227
L36.5707 330.196
L36.91 330.046
L41.9981 329.981
L42.3373 329.515
L47.4255 329.426
L48.1039 329.366
L53.192 329.301
L53.8704 329.222
L60.3154 329.134
L62.3507 329.079
L64.0467 329.079
L64.3859 328.748
L69.4741 328.694
L70.1525 328.582
L75.2407 328.582
L75.5799 328.449
L84.0601 328.358
L85.4169 328.321
L86.0954 328.321
L86.4346 328.027
L94.9148 327.917
L96.2717 327.889
L96.9501 327.889
L97.2893 327.634
L102.377 327.559
L103.056 327.472
L107.805 327.437
L108.483 327.336
L113.232 327.3
L113.571 326.989
L123.748 326.882
L124.765 326.827
L129.175 326.768
L129.514 326.205
L132.906 326.205
L133.246 326.041
L139.691 325.971
L140.03 325.786
L151.902 325.709
L152.241 325.398
L160.722 325.398
L161.061 325.117
L171.237 325.086
L171.576 322.678
L198.374 322.588
L199.391 322.537
L201.427 322.508
L201.766 320.914
L220.422 320.914
L220.762 316.765
L227.546 316.657
L229.92 316.579
L232.634 316.579
L232.973 315.422
L253.665 315.422
L254.004 313.704
L285.211 313.704
L285.551 197.778
L299.458 197.778
L299.797 197.635
L306.582 197.571
L307.26 197.455
L318.454 197.397
L319.132 197.328
L330.666 197.217
L331.005 195.508
L355.089 195.479
L355.428 184.114
L391.045 184.114
L391.384 183.005
L462.279 182.941
L462.618 180.902
L463.975 180.902
L463.975 180.902" style="fill:none;stroke:#008000;stroke-linecap:square;"/>
   </g>
   <g id="line2d_10">
    <path clip-path="url(#pf51f381abf)" d="
M17.575 331.988
L17.9142 331.884
L18.2534 331.884
L24.6984 331.793
L25.3768 331.698
L26.3945 331.698
L26.7337 331.457
L28.4297 331.457
L28.7689 331.319
L31.8218 331.246
L32.5002 331.149
L36.91 331.063
L37.2492 330.528
L40.3021 330.528
L40.6413 329.712
L45.3902 329.62
L46.0686 329.555
L46.747 329.555
L47.0862 329.43
L51.8352 329.339
L52.5136 329.257
L55.2273 329.146
L55.5665 328.992
L62.0115 328.917
L62.3507 327.931
L70.4917 327.854
L70.8309 327.699
L73.8838 327.699
L74.223 327.509
L77.2759 327.509
L77.6151 327.358
L80.668 327.358
L81.0072 327.113
L85.7562 327.113
L86.0954 326.771
L92.5403 326.771
L92.8796 326.401
L102.377 326.293
L102.717 325.729
L107.466 325.729
L107.805 325.508
L117.303 325.451
L117.981 325.381
L120.695 325.381
L121.034 325.219
L125.444 325.219
L125.783 324.934
L135.281 324.876
L135.959 324.767
L138.673 324.767
L139.012 323.984
L143.422 323.984
L143.761 323.535
L156.312 323.46
L156.99 323.363
L161.061 323.363
L161.4 323.163
L170.898 323.069
L171.576 322.986
L173.951 322.986
L174.29 322.778
L182.092 322.711
L183.109 322.666
L183.788 322.666
L184.127 322.527
L194.642 322.444
L194.982 322.127
L204.48 322.103
L204.819 321.917
L210.246 321.917
L210.585 320.9
L224.154 320.9
L224.493 320.677
L228.903 320.677
L229.242 320.419
L243.149 320.308
L243.828 320.239
L248.238 320.185
L248.577 319.406
L267.233 319.354
L267.573 319.164
L274.018 319.164
L274.357 318.052
L288.604 318.052
L288.943 317.879
L295.049 317.879
L295.388 315.398
L340.163 315.398
L340.503 315.218
L347.287 315.218
L347.626 314.886
L358.481 314.801
L359.159 314.742
L363.908 314.718
L364.247 312.882
L390.027 312.882
L390.366 312.58
L395.455 312.58
L395.794 309.499
L421.913 309.499
L422.252 308.15
L445.318 308.09
L445.658 307.913
L463.975 307.82
L463.975 307.82" style="fill:none;stroke:#ff0000;stroke-linecap:square;"/>
   </g>
   <g id="line2d_11">
    <path clip-path="url(#pf51f381abf)" d="
M17.575 334.608
L17.9142 334.505
L18.2534 334.505
L22.3239 334.45
L23.0024 334.335
L30.1258 334.225
L31.4826 334.192
L31.8218 334.192
L32.161 333.997
L33.1786 333.997
L33.5179 333.827
L36.2315 333.799
L36.91 333.69
L37.5884 333.69
L37.9276 333.565
L40.6413 333.534
L40.9805 333.027
L43.6941 332.956
L44.3726 332.893
L48.1039 332.798
L48.4431 332.484
L55.9057 332.389
L58.6194 332.219
L63.3683 332.166
L64.0467 332.101
L64.7252 332.101
L65.0644 331.58
L75.2407 331.469
L75.5799 330.887
L82.7033 330.793
L83.0425 330.324
L87.113 330.324
L87.4522 330.163
L93.2188 330.163
L93.558 329.621
L98.9853 329.621
L99.3245 329.224
L103.395 329.196
L103.734 329.066
L108.144 329.001
L109.162 328.947
L110.858 328.947
L111.197 328.581
L119.677 328.549
L120.016 328.242
L128.497 328.209
L128.836 327.898
L135.62 327.898
L135.959 327.117
L141.387 327.117
L141.726 81.6838
L161.4 81.6838
L161.739 81.2138
L164.453 81.2138
L164.792 80.7999
L172.933 80.7645
L173.272 80.5878
L180.056 80.5878
L180.396 80.3649
L185.823 80.3649
L186.162 79.9243
L195.321 79.9243
L195.66 79.1268
L206.854 79.0335
L207.193 78.6628
L218.387 78.5738
L220.422 78.4395
L224.154 78.4395
L224.493 76.6683
L226.867 76.6683
L227.207 74.4314
L257.057 74.3877
L257.396 61.89
L280.123 61.89
L280.463 60.7646
L294.37 60.7378
L295.049 60.6406
L298.78 60.5339
L300.137 60.5115
L300.476 60.1512
L312.348 60.1512
L312.687 59.1965
L322.185 59.1965
L322.525 58.6712
L332.362 58.6712
L332.701 58.5368
L347.287 58.4487
L347.626 56.9276
L376.798 56.8421
L378.155 56.814
L380.19 56.7902
L380.529 56.5042
L391.723 56.4671
L392.063 56.2541
L403.596 56.1997
L403.935 55.1832
L442.944 55.1832
L443.283 53.8263
L463.975 53.8263
L463.975 53.8263" style="fill:none;stroke:#00bfbf;stroke-linecap:square;"/>
   </g>
   <g id="line2d_12">
    <path clip-path="url(#pf51f381abf)" d="
M17.575 335.828
L17.9142 335.645
L20.2887 335.608
L20.6279 335.355
L21.6455 335.355
L21.9847 334.755
L24.6984 334.691
L25.3768 334.631
L26.0552 334.631
L26.3945 334.356
L27.4121 334.356
L27.7513 334.211
L30.1258 334.136
L30.465 333.847
L32.8394 333.816
L33.1786 333.528
L34.1963 333.528
L34.8747 333.414
L35.2139 333.414
L35.5531 333.248
L37.9276 333.248
L38.2668 331.967
L40.6413 331.967
L40.9805 331.836
L41.9981 331.836
L42.3373 331.701
L46.0686 331.635
L46.747 331.543
L48.4431 331.514
L48.7823 331.305
L56.5841 331.224
L56.9233 331.007
L59.2978 331.007
L59.637 330.192
L63.0291 330.192
L63.3683 329.845
L67.0996 329.845
L67.4388 329.697
L69.8133 329.664
L70.1525 329.397
L75.2407 329.397
L75.5799 329.262
L84.3993 329.154
L84.7385 328.943
L87.113 328.916
L87.4522 328.789
L88.1306 328.789
L88.4698 328.587
L92.2011 328.587
L92.5403 328.211
L98.6461 328.211
L98.9853 328.034
L103.734 328.006
L104.073 327.724
L107.805 327.724
L108.144 327.392
L116.963 327.307
L117.303 326.875
L119.338 326.875
L119.677 326.618
L128.497 326.584
L128.836 325.084
L141.047 324.99
L142.065 324.94
L142.404 324.94
L142.743 324.184
L145.118 324.184
L145.457 322.4
L162.418 322.4
L162.757 322.152
L167.506 322.152
L168.184 322.037
L173.951 321.969
L174.629 321.864
L179.039 321.864
L179.378 321.697
L185.145 321.697
L185.484 321.5
L190.233 321.5
L190.572 319.127
L200.409 319.127
L200.748 317.619
L209.568 317.553
L209.907 317.341
L214.995 317.341
L215.334 317.126
L219.744 317.126
L220.083 316.788
L226.189 316.788
L226.528 315.423
L231.277 315.396
L231.616 315.102
L240.097 315.102
L240.436 98.2367
L263.841 98.2367
L264.18 96.5947
L289.282 96.5947
L289.621 96.1009
L298.101 95.9912
L298.441 95.691
L307.26 95.6335
L307.599 93.5642
L320.15 93.5642
L320.489 93.3521
L328.97 93.3098
L329.309 93.1197
L337.789 93.1197
L338.128 91.3014
L366.961 91.3014
L367.3 89.6261
L408.005 89.6261
L408.345 87.4881
L463.975 87.4881
L463.975 87.4881" style="fill:none;stroke:#bf00bf;stroke-linecap:square;"/>
   </g>
   <g id="line2d_13">
    <path clip-path="url(#pf51f381abf)" d="
M17.575 333.893
L17.9142 333.822
L18.2534 333.822
L19.9495 333.763
L20.2887 333.285
L23.6808 333.256
L24.3592 333.166
L25.0376 333.166
L25.3768 332.945
L26.3945 332.945
L26.7337 332.772
L28.7689 332.743
L29.1081 332.593
L29.7866 332.593
L30.1258 332.375
L31.1434 332.375
L31.4826 332.167
L33.5179 332.076
L34.1963 331.971
L36.91 331.939
L37.2492 331.566
L39.2844 331.566
L39.6236 331.299
L40.6413 331.299
L40.9805 331.125
L43.0157 331.125
L43.3549 330.787
L46.4078 330.764
L46.747 330.443
L48.7823 330.375
L49.4607 330.315
L49.7999 330.315
L50.1391 330.119
L55.9057 330.049
L56.5841 329.94
L60.3154 329.851
L60.6546 329.617
L64.0467 329.591
L64.3859 329.016
L67.4388 329.016
L67.778 328.877
L74.5622 328.877
L74.9014 328.305
L81.6856 328.305
L82.0248 328.083
L87.4522 328.083
L87.7914 327.87
L94.2364 327.837
L94.9148 327.744
L98.9853 327.744
L99.3245 327.565
L104.752 327.505
L105.77 327.453
L108.144 327.427
L108.483 326.401
L129.853 326.401
L130.193 326.273
L133.246 326.273
L133.585 325.962
L139.012 325.962
L139.351 324.697
L145.796 324.697
L146.135 324.425
L149.188 324.425
L149.528 324.27
L154.616 324.235
L154.955 324.095
L161.4 323.996
L161.739 322.292
L178.021 322.183
L178.36 321.953
L180.396 321.953
L180.735 321.085
L188.197 321.085
L188.537 319.888
L208.55 319.778
L209.228 319.708
L209.568 319.708
L209.907 319.25
L214.317 319.25
L214.656 317.433
L232.973 317.433
L233.312 314.34
L276.731 314.309
L277.41 314.225
L282.498 314.13
L282.837 310.379
L317.436 310.379
L317.776 307.758
L378.155 307.73
L378.494 306.813
L389.688 306.813
L390.027 305.299
L408.345 305.271
L408.684 303.353
L451.763 303.251
L453.12 303.228
L453.459 301.874
L463.975 301.874
L463.975 301.874" style="fill:none;stroke:#bfbf00;stroke-linecap:square;"/>
   </g>
   <g id="line2d_14">
    <path clip-path="url(#pf51f381abf)" d="
M17.575 332.448
L18.5926 332.396
L20.9671 332.208
L21.3063 332.039
L21.9847 332.039
L22.3239 331.903
L23.0024 331.903
L23.3416 331.395
L26.7337 331.333
L27.0729 331.159
L29.7866 331.052
L30.465 330.965
L31.8218 330.938
L32.161 330.763
L34.1963 330.763
L34.5355 330.528
L39.2844 330.528
L39.6236 330.33
L44.7118 330.27
L45.051 329.904
L47.7647 329.871
L48.1039 329.716
L48.7823 329.716
L49.1215 329.597
L54.2097 329.573
L54.5489 329.312
L57.6017 329.246
L57.941 328.463
L64.7252 328.402
L65.0644 328.268
L67.0996 328.268
L67.4388 328.082
L73.5446 328.001
L73.8838 327.281
L78.6328 327.252
L78.972 327.065
L84.0601 327.015
L84.3993 326.653
L89.1483 326.591
L89.4875 326.329
L94.5756 326.329
L94.9148 325.988
L97.6285 325.988
L97.9677 325.579
L104.752 325.551
L105.43 325.446
L108.144 325.446
L108.483 324.936
L118.32 324.855
L118.659 324.632
L122.73 324.595
L123.069 324.411
L129.853 324.335
L130.193 323.768
L135.959 323.768
L136.298 323.19
L141.047 323.19
L141.387 321.662
L154.277 321.631
L154.616 321.495
L160.043 321.402
L161.061 321.353
L162.078 321.353
L162.418 320.889
L168.184 320.889
L168.523 320.601
L176.325 320.572
L177.004 320.458
L179.378 320.458
L179.717 316.419
L190.233 316.419
L190.572 306.793
L213.977 306.793
L214.317 303.162
L255.022 303.162
L255.361 300.03
L298.78 300.03
L299.119 298.33
L336.432 298.304
L336.771 297.726
L343.216 297.726
L343.556 297.527
L344.573 297.527
L344.912 297.118
L355.089 297.05
L355.428 296.465
L363.23 296.465
L363.569 293.71
L378.155 293.71
L378.494 293.406
L393.419 293.374
L394.098 293.274
L398.168 293.274
L398.508 292.823
L405.292 292.823
L405.631 291.479
L434.464 291.479
L434.803 291.181
L441.248 291.181
L441.587 290.195
L449.389 290.195
L449.728 290.022
L456.512 289.991
L456.852 158.212
L463.975 158.212
L463.975 158.212" style="fill:none;stroke:#000000;stroke-linecap:square;"/>
   </g>
   <g id="line2d_15">
    <path clip-path="url(#pf51f381abf)" d="
M17.575 330.315
L19.271 330.178
L19.6103 330.178
L19.9495 329.524
L21.6455 329.461
L21.9847 329.306
L23.6808 329.275
L24.3592 329.183
L26.0552 329.183
L26.3945 328.873
L29.1081 328.765
L30.465 328.696
L30.8042 328.696
L31.1434 328.446
L32.8394 328.348
L33.1786 327.909
L36.91 327.806
L37.2492 326.398
L42.6765 326.303
L43.0157 325.791
L49.4607 325.687
L50.1391 325.612
L54.5489 325.522
L56.9233 325.387
L58.6194 325.387
L58.9586 324.779
L62.3507 324.717
L62.6899 324.492
L64.3859 324.492
L64.7252 324.163
L68.4565 324.163
L68.7957 323.571
L73.2054 323.571
L73.5446 323.371
L76.2583 323.371
L76.5975 323.229
L80.3288 323.198
L80.668 322.857
L84.0601 322.857
L84.3993 321.814
L89.1483 321.717
L89.4875 321.423
L92.8796 321.338
L93.2188 321.098
L95.9324 321.098
L96.2717 320.591
L103.395 320.563
L103.734 319.382
L114.928 319.3
L115.607 319.198
L115.946 319.198
L116.285 317.688
L121.712 317.688
L122.052 317.525
L125.783 317.525
L126.122 317.347
L127.479 317.347
L127.818 315.798
L141.726 315.798
L142.065 314.272
L159.704 314.237
L160.043 314.099
L163.435 314.099
L163.774 313.298
L166.149 313.298
L166.488 312.909
L170.898 312.909
L171.237 312.769
L174.629 312.769
L174.968 310.266
L191.25 310.266
L191.59 310.065
L197.356 309.956
L197.695 307.362
L225.85 307.287
L226.189 307.031
L230.259 307.031
L230.599 304.797
L250.951 304.744
L251.63 304.657
L253.665 304.657
L254.004 179.729
L276.392 179.667
L276.731 178.201
L300.137 178.201
L300.476 177.13
L324.899 177.13
L325.238 176.678
L339.485 176.582
L339.824 175.918
L352.375 175.884
L352.714 175.098
L392.063 175.098
L392.402 172.089
L421.235 172.064
L421.574 167.726
L463.975 167.726
L463.975 167.726" style="fill:none;stroke:#0000ff;stroke-linecap:square;"/>
   </g>
   <g id="line2d_16">
    <path clip-path="url(#pf51f381abf)" d="
M17.575 334.71
L17.9142 334.554
L18.2534 334.554
L18.5926 334.396
L21.6455 334.289
L22.3239 334.2
L22.6631 334.2
L23.0024 334.007
L27.7513 333.921
L30.465 333.705
L30.8042 333.473
L33.5179 333.409
L33.8571 333.253
L36.2315 333.161
L36.5707 332.912
L38.9452 332.843
L39.9628 332.787
L42.6765 332.673
L43.6941 332.639
L44.3726 332.552
L47.4255 332.504
L47.7647 332.375
L53.192 332.279
L55.9057 332.126
L57.941 332.038
L58.6194 331.937
L60.9938 331.937
L61.3331 331.747
L63.7075 331.747
L64.0467 331.14
L67.4388 331.107
L67.778 330.868
L70.4917 330.868
L70.8309 330.418
L75.9191 330.315
L76.9367 330.287
L77.2759 329.89
L87.4522 329.801
L87.7914 325.516
L94.9148 325.516
L95.254 325.347
L97.6285 325.347
L97.9677 325.071
L100.342 325.042
L100.681 324.571
L108.144 324.501
L108.483 324.362
L110.858 324.27
L111.197 323.961
L117.981 323.961
L118.32 323.58
L125.444 323.495
L125.783 323.355
L130.193 323.28
L130.532 310.151
L146.475 310.151
L146.814 299.995
L161.061 299.995
L161.4 299.255
L167.166 299.191
L167.506 298.966
L169.88 298.966
L170.219 298.429
L176.325 298.363
L176.664 297.879
L184.466 297.847
L185.145 297.752
L186.162 297.752
L186.501 297.496
L188.876 297.496
L189.215 295.887
L198.713 295.887
L199.052 294.981
L206.854 294.917
L207.193 294.506
L212.621 294.506
L212.96 294.083
L215.673 294.051
L216.013 293.898
L221.779 293.874
L222.118 291.893
L252.308 291.787
L252.987 291.714
L255.022 291.714
L255.361 291.514
L260.449 291.485
L261.128 291.373
L264.18 291.32
L264.52 290.584
L271.643 290.584
L271.982 290.097
L280.802 290.072
L281.141 288.24
L290.639 288.24
L290.978 286.732
L298.78 286.7
L299.119 284.939
L305.225 284.861
L305.903 284.789
L307.26 284.789
L307.599 283.735
L323.542 283.735
L323.881 283.606
L328.97 283.606
L329.309 282.759
L336.432 282.732
L336.771 280.445
L365.604 280.35
L366.283 280.256
L370.692 280.203
L371.032 279.863
L379.173 279.801
L379.851 279.732
L382.225 279.702
L382.565 279.209
L392.402 279.209
L392.741 275.525
L436.16 275.525
L436.499 272.095
L447.015 272.095
L447.354 268.586
L463.975 268.586
L463.975 268.586" style="fill:none;stroke:#008000;stroke-linecap:square;"/>
   </g>
   <g id="patch_3">
    <path d="
M17.575 368.742
L17.575 23.1417" style="fill:none;stroke:#000000;stroke-linecap:square;stroke-linejoin:miter;"/>
   </g>
   <g id="patch_4">
    <path d="
M463.975 368.742
L463.975 23.1417" style="fill:none;stroke:#000000;stroke-linecap:square;stroke-linejoin:miter;"/>
   </g>
   <g id="patch_5">
    <path d="
M17.575 23.1417
L463.975 23.1417" style="fill:none;stroke:#000000;stroke-linecap:square;stroke-linejoin:miter;"/>
   </g>
   <g id="patch_6">
    <path d="
M17.575 368.742
L463.975 368.742" style="fill:none;stroke:#000000;stroke-linecap:square;stroke-linejoin:miter;"/>
   </g>
   <g id="matplotlib.axis_1">
    <g id="xtick_1">
     <g id="line2d_17">
      <defs>
       <path d="
M0 0
L0 -4" id="mc7db9fdffb" style="stroke:#000000;stroke-width:0.5;"/>
      </defs>
      <g>
       <use style="stroke:#000000;stroke-width:0.5;" x="17.575" xlink:href="#mc7db9fdffb" y="368.74175"/>
      </g>
     </g>
     <g id="line2d_18">
      <defs>
       <path d="
M0 0
L0 4" id="m5a7d422ac3" style="stroke:#000000;stroke-width:0.5;"/>
      </defs>
      <g>
       <use style="stroke:#000000;stroke-width:0.5;" x="17.575" xlink:href="#m5a7d422ac3" y="23.14175"/>
      </g>
     </g>
     <g id="text_1">
      <!-- 0 -->
      <defs>
       <path d="
M31.7812 66.4062
Q24.1719 66.4062 20.3281 58.9062
Q16.5 51.4219 16.5 36.375
Q16.5 21.3906 20.3281 13.8906
Q24.1719 6.39062 31.7812 6.39062
Q39.4531 6.39062 43.2812 13.8906
Q47.125 21.3906 47.125 36.375
Q47.125 51.4219 43.2812 58.9062
Q39.4531 66.4062 31.7812 66.4062
M31.7812 74.2188
Q44.0469 74.2188 50.5156 64.5156
Q56.9844 54.8281 56.9844 36.375
Q56.9844 17.9688 50.5156 8.26562
Q44.0469 -1.42188 31.7812 -1.42188
Q19.5312 -1.42188 13.0625 8.26562
Q6.59375 17.9688 6.59375 36.375
Q6.59375 54.8281 13.0625 64.5156
Q19.5312 74.2188 31.7812 74.2188" id="DejaVuSans-30"/>
      </defs>
      <g transform="translate(14.5515625 381.859875)scale(0.12 -0.12)">
       <use xlink:href="#DejaVuSans-30"/>
      </g>
     </g>
    </g>
    <g id="xtick_2">
     <g id="line2d_19">
      <g>
       <use style="stroke:#000000;stroke-width:0.5;" x="85.4169452888" xlink:href="#mc7db9fdffb" y="368.74175"/>
      </g>
     </g>
     <g id="line2d_20">
      <g>
       <use style="stroke:#000000;stroke-width:0.5;" x="85.4169452888" xlink:href="#m5a7d422ac3" y="23.14175"/>
      </g>
     </g>
     <g id="text_2">
      <!-- 200 -->
      <defs>
       <path d="
M19.1875 8.29688
L53.6094 8.29688
L53.6094 0
L7.32812 0
L7.32812 8.29688
Q12.9375 14.1094 22.625 23.8906
Q32.3281 33.6875 34.8125 36.5312
Q39.5469 41.8438 41.4219 45.5312
Q43.3125 49.2188 43.3125 52.7812
Q43.3125 58.5938 39.2344 62.25
Q35.1562 65.9219 28.6094 65.9219
Q23.9688 65.9219 18.8125 64.3125
Q13.6719 62.7031 7.8125 59.4219
L7.8125 69.3906
Q13.7656 71.7812 18.9375 73
Q24.125 74.2188 28.4219 74.2188
Q39.75 74.2188 46.4844 68.5469
Q53.2188 62.8906 53.2188 53.4219
Q53.2188 48.9219 51.5312 44.8906
Q49.8594 40.875 45.4062 35.4062
Q44.1875 33.9844 37.6406 27.2188
Q31.1094 20.4531 19.1875 8.29688" id="DejaVuSans-32"/>
      </defs>
      <g transform="translate(74.8025702888 381.859875)scale(0.12 -0.12)">
       <use xlink:href="#DejaVuSans-32"/>
       <use x="63.623046875" xlink:href="#DejaVuSans-30"/>
       <use x="127.24609375" xlink:href="#DejaVuSans-30"/>
      </g>
     </g>
    </g>
    <g id="xtick_3">
     <g id="line2d_21">
      <g>
       <use style="stroke:#000000;stroke-width:0.5;" x="153.258890578" xlink:href="#mc7db9fdffb" y="368.74175"/>
      </g>
     </g>
     <g id="line2d_22">
      <g>
       <use style="stroke:#000000;stroke-width:0.5;" x="153.258890578" xlink:href="#m5a7d422ac3" y="23.14175"/>
      </g>
     </g>
     <g id="text_3">
      <!-- 400 -->
      <defs>
       <path d="
M37.7969 64.3125
L12.8906 25.3906
L37.7969 25.3906
z

M35.2031 72.9062
L47.6094 72.9062
L47.6094 25.3906
L58.0156 25.3906
L58.0156 17.1875
L47.6094 17.1875
L47.6094 0
L37.7969 0
L37.7969 17.1875
L4.89062 17.1875
L4.89062 26.7031
z
" id="DejaVuSans-34"/>
      </defs>
      <g transform="translate(142.498265578 381.859875)scale(0.12 -0.12)">
       <use xlink:href="#DejaVuSans-34"/>
       <use x="63.623046875" xlink:href="#DejaVuSans-30"/>
       <use x="127.24609375" xlink:href="#DejaVuSans-30"/>
      </g>
     </g>
    </g>
    <g id="xtick_4">
     <g id="line2d_23">
      <g>
       <use style="stroke:#000000;stroke-width:0.5;" x="221.100835866" xlink:href="#mc7db9fdffb" y="368.74175"/>
      </g>
     </g>
     <g id="line2d_24">
      <g>
       <use style="stroke:#000000;stroke-width:0.5;" x="221.100835866" xlink:href="#m5a7d422ac3" y="23.14175"/>
      </g>
     </g>
     <g id="text_4">
      <!-- 600 -->
      <defs>
       <path d="
M33.0156 40.375
Q26.375 40.375 22.4844 35.8281
Q18.6094 31.2969 18.6094 23.3906
Q18.6094 15.5312 22.4844 10.9531
Q26.375 6.39062 33.0156 6.39062
Q39.6562 6.39062 43.5312 10.9531
Q47.4062 15.5312 47.4062 23.3906
Q47.4062 31.2969 43.5312 35.8281
Q39.6562 40.375 33.0156 40.375
M52.5938 71.2969
L52.5938 62.3125
Q48.875 64.0625 45.0938 64.9844
Q41.3125 65.9219 37.5938 65.9219
Q27.8281 65.9219 22.6719 59.3281
Q17.5312 52.7344 16.7969 39.4062
Q19.6719 43.6562 24.0156 45.9219
Q28.375 48.1875 33.5938 48.1875
Q44.5781 48.1875 50.9531 41.5156
Q57.3281 34.8594 57.3281 23.3906
Q57.3281 12.1562 50.6875 5.35938
Q44.0469 -1.42188 33.0156 -1.42188
Q20.3594 -1.42188 13.6719 8.26562
Q6.98438 17.9688 6.98438 36.375
Q6.98438 53.6562 15.1875 63.9375
Q23.3906 74.2188 37.2031 74.2188
Q40.9219 74.2188 44.7031 73.4844
Q48.4844 72.75 52.5938 71.2969" id="DejaVuSans-36"/>
      </defs>
      <g transform="translate(210.465835866 381.859875)scale(0.12 -0.12)">
       <use xlink:href="#DejaVuSans-36"/>
       <use x="63.623046875" xlink:href="#DejaVuSans-30"/>
       <use x="127.24609375" xlink:href="#DejaVuSans-30"/>
      </g>
     </g>
    </g>
    <g id="xtick_5">
     <g id="line2d_25">
      <g>
       <use style="stroke:#000000;stroke-width:0.5;" x="288.942781155" xlink:href="#mc7db9fdffb" y="368.74175"/>
      </g>
     </g>
     <g id="line2d_26">
      <g>
       <use style="stroke:#000000;stroke-width:0.5;" x="288.942781155" xlink:href="#m5a7d422ac3" y="23.14175"/>
      </g>
     </g>
     <g id="text_5">
      <!-- 800 -->
      <defs>
       <path d="
M31.7812 34.625
Q24.75 34.625 20.7188 30.8594
Q16.7031 27.0938 16.7031 20.5156
Q16.7031 13.9219 20.7188 10.1562
Q24.75 6.39062 31.7812 6.39062
Q38.8125 6.39062 42.8594 10.1719
Q46.9219 13.9688 46.9219 20.5156
Q46.9219 27.0938 42.8906 30.8594
Q38.875 34.625 31.7812 34.625
M21.9219 38.8125
Q15.5781 40.375 12.0312 44.7188
Q8.5 49.0781 8.5 55.3281
Q8.5 64.0625 14.7188 69.1406
Q20.9531 74.2188 31.7812 74.2188
Q42.6719 74.2188 48.875 69.1406
Q55.0781 64.0625 55.0781 55.3281
Q55.0781 49.0781 51.5312 44.7188
Q48 40.375 41.7031 38.8125
Q48.8281 37.1562 52.7969 32.3125
Q56.7812 27.4844 56.7812 20.5156
Q56.7812 9.90625 50.3125 4.23438
Q43.8438 -1.42188 31.7812 -1.42188
Q19.7344 -1.42188 13.25 4.23438
Q6.78125 9.90625 6.78125 20.5156
Q6.78125 27.4844 10.7812 32.3125
Q14.7969 37.1562 21.9219 38.8125
M18.3125 54.3906
Q18.3125 48.7344 21.8438 45.5625
Q25.3906 42.3906 31.7812 42.3906
Q38.1406 42.3906 41.7188 45.5625
Q45.3125 48.7344 45.3125 54.3906
Q45.3125 60.0625 41.7188 63.2344
Q38.1406 66.4062 31.7812 66.4062
Q25.3906 66.4062 21.8438 63.2344
Q18.3125 60.0625 18.3125 54.3906" id="DejaVuSans-38"/>
      </defs>
      <g transform="translate(278.295593655 381.859875)scale(0.12 -0.12)">
       <use xlink:href="#DejaVuSans-38"/>
       <use x="63.623046875" xlink:href="#DejaVuSans-30"/>
       <use x="127.24609375" xlink:href="#DejaVuSans-30"/>
      </g>
     </g>
    </g>
    <g id="xtick_6">
     <g id="line2d_27">
      <g>
       <use style="stroke:#000000;stroke-width:0.5;" x="356.784726444" xlink:href="#mc7db9fdffb" y="368.74175"/>
      </g>
     </g>
     <g id="line2d_28">
      <g>
       <use style="stroke:#000000;stroke-width:0.5;" x="356.784726444" xlink:href="#m5a7d422ac3" y="23.14175"/>
      </g>
     </g>
     <g id="text_6">
      <!-- 1000 -->
      <defs>
       <path d="
M12.4062 8.29688
L28.5156 8.29688
L28.5156 63.9219
L10.9844 60.4062
L10.9844 69.3906
L28.4219 72.9062
L38.2812 72.9062
L38.2812 8.29688
L54.3906 8.29688
L54.3906 0
L12.4062 0
z
" id="DejaVuSans-31"/>
      </defs>
      <g transform="translate(342.572226444 381.859875)scale(0.12 -0.12)">
       <use xlink:href="#DejaVuSans-31"/>
       <use x="63.623046875" xlink:href="#DejaVuSans-30"/>
       <use x="127.24609375" xlink:href="#DejaVuSans-30"/>
       <use x="190.869140625" xlink:href="#DejaVuSans-30"/>
      </g>
     </g>
    </g>
    <g id="xtick_7">
     <g id="line2d_29">
      <g>
       <use style="stroke:#000000;stroke-width:0.5;" x="424.626671733" xlink:href="#mc7db9fdffb" y="368.74175"/>
      </g>
     </g>
     <g id="line2d_30">
      <g>
       <use style="stroke:#000000;stroke-width:0.5;" x="424.626671733" xlink:href="#m5a7d422ac3" y="23.14175"/>
      </g>
     </g>
     <g id="text_7">
      <!-- 1200 -->
      <g transform="translate(410.414171733 381.859875)scale(0.12 -0.12)">
       <use xlink:href="#DejaVuSans-31"/>
       <use x="63.623046875" xlink:href="#DejaVuSans-32"/>
       <use x="127.24609375" xlink:href="#DejaVuSans-30"/>
       <use x="190.869140625" xlink:href="#DejaVuSans-30"/>
      </g>
     </g>
    </g>
    <g id="text_8">
     <!-- time -->
     <defs>
      <path d="
M9.42188 54.6875
L18.4062 54.6875
L18.4062 0
L9.42188 0
z

M9.42188 75.9844
L18.4062 75.9844
L18.4062 64.5938
L9.42188 64.5938
z
" id="DejaVuSans-69"/>
      <path d="
M18.3125 70.2188
L18.3125 54.6875
L36.8125 54.6875
L36.8125 47.7031
L18.3125 47.7031
L18.3125 18.0156
Q18.3125 11.3281 20.1406 9.42188
Q21.9688 7.51562 27.5938 7.51562
L36.8125 7.51562
L36.8125 0
L27.5938 0
Q17.1875 0 13.2344 3.875
Q9.28125 7.76562 9.28125 18.0156
L9.28125 47.7031
L2.6875 47.7031
L2.6875 54.6875
L9.28125 54.6875
L9.28125 70.2188
z
" id="DejaVuSans-74"/>
      <path d="
M52 44.1875
Q55.375 50.25 60.0625 53.125
Q64.75 56 71.0938 56
Q79.6406 56 84.2812 50.0156
Q88.9219 44.0469 88.9219 33.0156
L88.9219 0
L79.8906 0
L79.8906 32.7188
Q79.8906 40.5781 77.0938 44.375
Q74.3125 48.1875 68.6094 48.1875
Q61.625 48.1875 57.5625 43.5469
Q53.5156 38.9219 53.5156 30.9062
L53.5156 0
L44.4844 0
L44.4844 32.7188
Q44.4844 40.625 41.7031 44.4062
Q38.9219 48.1875 33.1094 48.1875
Q26.2188 48.1875 22.1562 43.5312
Q18.1094 38.875 18.1094 30.9062
L18.1094 0
L9.07812 0
L9.07812 54.6875
L18.1094 54.6875
L18.1094 46.1875
Q21.1875 51.2188 25.4844 53.6094
Q29.7812 56 35.6875 56
Q41.6562 56 45.8281 52.9688
Q50 49.9531 52 44.1875" id="DejaVuSans-6d"/>
      <path d="
M56.2031 29.5938
L56.2031 25.2031
L14.8906 25.2031
Q15.4844 15.9219 20.4844 11.0625
Q25.4844 6.20312 34.4219 6.20312
Q39.5938 6.20312 44.4531 7.46875
Q49.3125 8.73438 54.1094 11.2812
L54.1094 2.78125
Q49.2656 0.734375 44.1875 -0.34375
Q39.1094 -1.42188 33.8906 -1.42188
Q20.7969 -1.42188 13.1562 6.1875
Q5.51562 13.8125 5.51562 26.8125
Q5.51562 40.2344 12.7656 48.1094
Q20.0156 56 32.3281 56
Q43.3594 56 49.7812 48.8906
Q56.2031 41.7969 56.2031 29.5938
M47.2188 32.2344
Q47.125 39.5938 43.0938 43.9844
Q39.0625 48.3906 32.4219 48.3906
Q24.9062 48.3906 20.3906 44.1406
Q15.875 39.8906 15.1875 32.1719
z
" id="DejaVuSans-65"/>
     </defs>
     <g transform="translate(227.700625 398.473625)scale(0.12 -0.12)">
      <use xlink:href="#DejaVuSans-74"/>
      <use x="39.208984375" xlink:href="#DejaVuSans-69"/>
      <use x="66.9921875" xlink:href="#DejaVuSans-6d"/>
      <use x="164.404296875" xlink:href="#DejaVuSans-65"/>
     </g>
    </g>
   </g>
   <g id="matplotlib.axis_2">
    <g id="ytick_1">
     <g id="line2d_31">
      <defs>
       <path d="
M0 0
L4 0" id="md7965d1ba0" style="stroke:#000000;stroke-width:0.5;"/>
      </defs>
      <g>
       <use style="stroke:#000000;stroke-width:0.5;" x="17.575" xlink:href="#md7965d1ba0" y="368.74175"/>
      </g>
     </g>
     <g id="line2d_32">
      <defs>
       <path d="
M0 0
L-4 0" id="md9a1c1a7cd" style="stroke:#000000;stroke-width:0.5;"/>
      </defs>
      <g>
       <use style="stroke:#000000;stroke-width:0.5;" x="463.975" xlink:href="#md9a1c1a7cd" y="368.74175"/>
      </g>
     </g>
     <g id="text_9">
      <!-- 0 -->
      <g transform="translate(7.528125 372.053)scale(0.12 -0.12)">
       <use xlink:href="#DejaVuSans-30"/>
      </g>
     </g>
    </g>
    <g id="ytick_2">
     <g id="line2d_33">
      <g>
       <use style="stroke:#000000;stroke-width:0.5;" x="17.575" xlink:href="#md7965d1ba0" y="325.54175"/>
      </g>
     </g>
     <g id="line2d_34">
      <g>
       <use style="stroke:#000000;stroke-width:0.5;" x="463.975" xlink:href="#md9a1c1a7cd" y="325.54175"/>
      </g>
     </g>
     <g id="text_10">
      <!-- 1 -->
      <g transform="translate(8.36625 328.853)scale(0.12 -0.12)">
       <use xlink:href="#DejaVuSans-31"/>
      </g>
     </g>
    </g>
    <g id="ytick_3">
     <g id="line2d_35">
      <g>
       <use style="stroke:#000000;stroke-width:0.5;" x="17.575" xlink:href="#md7965d1ba0" y="282.34175"/>
      </g>
     </g>
     <g id="line2d_36">
      <g>
       <use style="stroke:#000000;stroke-width:0.5;" x="463.975" xlink:href="#md9a1c1a7cd" y="282.34175"/>
      </g>
     </g>
     <g id="text_11">
      <!-- 2 -->
      <g transform="translate(8.02125 285.653)scale(0.12 -0.12)">
       <use xlink:href="#DejaVuSans-32"/>
      </g>
     </g>
    </g>
    <g id="ytick_4">
     <g id="line2d_37">
      <g>
       <use style="stroke:#000000;stroke-width:0.5;" x="17.575" xlink:href="#md7965d1ba0" y="239.14175"/>
      </g>
     </g>
     <g id="line2d_38">
      <g>
       <use style="stroke:#000000;stroke-width:0.5;" x="463.975" xlink:href="#md9a1c1a7cd" y="239.14175"/>
      </g>
     </g>
     <g id="text_12">
      <!-- 3 -->
      <defs>
       <path d="
M40.5781 39.3125
Q47.6562 37.7969 51.625 33
Q55.6094 28.2188 55.6094 21.1875
Q55.6094 10.4062 48.1875 4.48438
Q40.7656 -1.42188 27.0938 -1.42188
Q22.5156 -1.42188 17.6562 -0.515625
Q12.7969 0.390625 7.625 2.20312
L7.625 11.7188
Q11.7188 9.32812 16.5938 8.10938
Q21.4844 6.89062 26.8125 6.89062
Q36.0781 6.89062 40.9375 10.5469
Q45.7969 14.2031 45.7969 21.1875
Q45.7969 27.6406 41.2812 31.2656
Q36.7656 34.9062 28.7188 34.9062
L20.2188 34.9062
L20.2188 43.0156
L29.1094 43.0156
Q36.375 43.0156 40.2344 45.9219
Q44.0938 48.8281 44.0938 54.2969
Q44.0938 59.9062 40.1094 62.9062
Q36.1406 65.9219 28.7188 65.9219
Q24.6562 65.9219 20.0156 65.0312
Q15.375 64.1562 9.8125 62.3125
L9.8125 71.0938
Q15.4375 72.6562 20.3438 73.4375
Q25.25 74.2188 29.5938 74.2188
Q40.8281 74.2188 47.3594 69.1094
Q53.9062 64.0156 53.9062 55.3281
Q53.9062 49.2656 50.4375 45.0938
Q46.9688 40.9219 40.5781 39.3125" id="DejaVuSans-33"/>
      </defs>
      <g transform="translate(7.816875 242.453)scale(0.12 -0.12)">
       <use xlink:href="#DejaVuSans-33"/>
      </g>
     </g>
    </g>
    <g id="ytick_5">
     <g id="line2d_39">
      <g>
       <use style="stroke:#000000;stroke-width:0.5;" x="17.575" xlink:href="#md7965d1ba0" y="195.94175"/>
      </g>
     </g>
     <g id="line2d_40">
      <g>
       <use style="stroke:#000000;stroke-width:0.5;" x="463.975" xlink:href="#md9a1c1a7cd" y="195.94175"/>
      </g>
     </g>
     <g id="text_13">
      <!-- 4 -->
      <g transform="translate(7.2 199.253)scale(0.12 -0.12)">
       <use xlink:href="#DejaVuSans-34"/>
      </g>
     </g>
    </g>
    <g id="ytick_6">
     <g id="line2d_41">
      <g>
       <use style="stroke:#000000;stroke-width:0.5;" x="17.575" xlink:href="#md7965d1ba0" y="152.74175"/>
      </g>
     </g>
     <g id="line2d_42">
      <g>
       <use style="stroke:#000000;stroke-width:0.5;" x="463.975" xlink:href="#md9a1c1a7cd" y="152.74175"/>
      </g>
     </g>
     <g id="text_14">
      <!-- 5 -->
      <defs>
       <path d="
M10.7969 72.9062
L49.5156 72.9062
L49.5156 64.5938
L19.8281 64.5938
L19.8281 46.7344
Q21.9688 47.4688 24.1094 47.8281
Q26.2656 48.1875 28.4219 48.1875
Q40.625 48.1875 47.75 41.5
Q54.8906 34.8125 54.8906 23.3906
Q54.8906 11.625 47.5625 5.09375
Q40.2344 -1.42188 26.9062 -1.42188
Q22.3125 -1.42188 17.5469 -0.640625
Q12.7969 0.140625 7.71875 1.70312
L7.71875 11.625
Q12.1094 9.23438 16.7969 8.0625
Q21.4844 6.89062 26.7031 6.89062
Q35.1562 6.89062 40.0781 11.3281
Q45.0156 15.7656 45.0156 23.3906
Q45.0156 31 40.0781 35.4375
Q35.1562 39.8906 26.7031 39.8906
Q22.75 39.8906 18.8125 39.0156
Q14.8906 38.1406 10.7969 36.2812
z
" id="DejaVuSans-35"/>
      </defs>
      <g transform="translate(7.914375 156.053)scale(0.12 -0.12)">
       <use xlink:href="#DejaVuSans-35"/>
      </g>
     </g>
    </g>
    <g id="ytick_7">
     <g id="line2d_43">
      <g>
       <use style="stroke:#000000;stroke-width:0.5;" x="17.575" xlink:href="#md7965d1ba0" y="109.54175"/>
      </g>
     </g>
     <g id="line2d_44">
      <g>
       <use style="stroke:#000000;stroke-width:0.5;" x="463.975" xlink:href="#md9a1c1a7cd" y="109.54175"/>
      </g>
     </g>
     <g id="text_15">
      <!-- 6 -->
      <g transform="translate(7.53375 112.853)scale(0.12 -0.12)">
       <use xlink:href="#DejaVuSans-36"/>
      </g>
     </g>
    </g>
    <g id="ytick_8">
     <g id="line2d_45">
      <g>
       <use style="stroke:#000000;stroke-width:0.5;" x="17.575" xlink:href="#md7965d1ba0" y="66.34175"/>
      </g>
     </g>
     <g id="line2d_46">
      <g>
       <use style="stroke:#000000;stroke-width:0.5;" x="463.975" xlink:href="#md9a1c1a7cd" y="66.34175"/>
      </g>
     </g>
     <g id="text_16">
      <!-- 7 -->
      <defs>
       <path d="
M8.20312 72.9062
L55.0781 72.9062
L55.0781 68.7031
L28.6094 0
L18.3125 0
L43.2188 64.5938
L8.20312 64.5938
z
" id="DejaVuSans-37"/>
      </defs>
      <g transform="translate(7.95 69.653)scale(0.12 -0.12)">
       <use xlink:href="#DejaVuSans-37"/>
      </g>
     </g>
    </g>
    <g id="ytick_9">
     <g id="line2d_47">
      <g>
       <use style="stroke:#000000;stroke-width:0.5;" x="17.575" xlink:href="#md7965d1ba0" y="23.14175"/>
      </g>
     </g>
     <g id="line2d_48">
      <g>
       <use style="stroke:#000000;stroke-width:0.5;" x="463.975" xlink:href="#md9a1c1a7cd" y="23.14175"/>
      </g>
     </g>
     <g id="text_17">
      <!-- 8 -->
      <g transform="translate(7.575 26.453)scale(0.12 -0.12)">
       <use xlink:href="#DejaVuSans-38"/>
      </g>
     </g>
    </g>
    <g id="text_18">
     <!-- 1e7 -->
     <g transform="translate(17.575 20.14175)scale(0.12 -0.12)">
      <use xlink:href="#DejaVuSans-31"/>
      <use x="63.623046875" xlink:href="#DejaVuSans-65"/>
      <use x="125.146484375" xlink:href="#DejaVuSans-37"/>
     </g>
    </g>
   </g>
   <g id="text_19">
    <!-- /agas/time/bind_gid -->
    <defs>
     <path d="
M48.6875 27.2969
Q48.6875 37.2031 44.6094 42.8438
Q40.5312 48.4844 33.4062 48.4844
Q26.2656 48.4844 22.1875 42.8438
Q18.1094 37.2031 18.1094 27.2969
Q18.1094 17.3906 22.1875 11.75
Q26.2656 6.10938 33.4062 6.10938
Q40.5312 6.10938 44.6094 11.75
Q48.6875 17.3906 48.6875 27.2969
M18.1094 46.3906
Q20.9531 51.2656 25.2656 53.625
Q29.5938 56 35.5938 56
Q45.5625 56 51.7812 48.0938
Q58.0156 40.1875 58.0156 27.2969
Q58.0156 14.4062 51.7812 6.48438
Q45.5625 -1.42188 35.5938 -1.42188
Q29.5938 -1.42188 25.2656 0.953125
Q20.9531 3.32812 18.1094 8.20312
L18.1094 0
L9.07812 0
L9.07812 75.9844
L18.1094 75.9844
z
" id="DejaVuSans-62"/>
     <path d="
M54.8906 33.0156
L54.8906 0
L45.9062 0
L45.9062 32.7188
Q45.9062 40.4844 42.875 44.3281
Q39.8438 48.1875 33.7969 48.1875
Q26.5156 48.1875 22.3125 43.5469
Q18.1094 38.9219 18.1094 30.9062
L18.1094 0
L9.07812 0
L9.07812 54.6875
L18.1094 54.6875
L18.1094 46.1875
Q21.3438 51.125 25.7031 53.5625
Q30.0781 56 35.7969 56
Q45.2188 56 50.0469 50.1719
Q54.8906 44.3438 54.8906 33.0156" id="DejaVuSans-6e"/>
     <path d="
M45.4062 46.3906
L45.4062 75.9844
L54.3906 75.9844
L54.3906 0
L45.4062 0
L45.4062 8.20312
Q42.5781 3.32812 38.25 0.953125
Q33.9375 -1.42188 27.875 -1.42188
Q17.9688 -1.42188 11.7344 6.48438
Q5.51562 14.4062 5.51562 27.2969
Q5.51562 40.1875 11.7344 48.0938
Q17.9688 56 27.875 56
Q33.9375 56 38.25 53.625
Q42.5781 51.2656 45.4062 46.3906
M14.7969 27.2969
Q14.7969 17.3906 18.875 11.75
Q22.9531 6.10938 30.0781 6.10938
Q37.2031 6.10938 41.2969 11.75
Q45.4062 17.3906 45.4062 27.2969
Q45.4062 37.2031 41.2969 42.8438
Q37.2031 48.4844 30.0781 48.4844
Q22.9531 48.4844 18.875 42.8438
Q14.7969 37.2031 14.7969 27.2969" id="DejaVuSans-64"/>
     <path d="
M50.9844 -16.6094
L50.9844 -23.5781
L-0.984375 -23.5781
L-0.984375 -16.6094
z
" id="DejaVuSans-5f"/>
     <path d="
M34.2812 27.4844
Q23.3906 27.4844 19.1875 25
Q14.9844 22.5156 14.9844 16.5
Q14.9844 11.7188 18.1406 8.90625
Q21.2969 6.10938 26.7031 6.10938
Q34.1875 6.10938 38.7031 11.4062
Q43.2188 16.7031 43.2188 25.4844
L43.2188 27.4844
z

M52.2031 31.2031
L52.2031 0
L43.2188 0
L43.2188 8.29688
Q40.1406 3.32812 35.5469 0.953125
Q30.9531 -1.42188 24.3125 -1.42188
Q15.9219 -1.42188 10.9531 3.29688
Q6 8.01562 6 15.9219
Q6 25.1406 12.1719 29.8281
Q18.3594 34.5156 30.6094 34.5156
L43.2188 34.5156
L43.2188 35.4062
Q43.2188 41.6094 39.1406 45
Q35.0625 48.3906 27.6875 48.3906
Q23 48.3906 18.5469 47.2656
Q14.1094 46.1406 10.0156 43.8906
L10.0156 52.2031
Q14.9375 54.1094 19.5781 55.0469
Q24.2188 56 28.6094 56
Q40.4844 56 46.3438 49.8438
Q52.2031 43.7031 52.2031 31.2031" id="DejaVuSans-61"/>
     <path d="
M25.3906 72.9062
L33.6875 72.9062
L8.29688 -9.28125
L0 -9.28125
z
" id="DejaVuSans-2f"/>
     <path d="
M45.4062 27.9844
Q45.4062 37.75 41.375 43.1094
Q37.3594 48.4844 30.0781 48.4844
Q22.8594 48.4844 18.8281 43.1094
Q14.7969 37.75 14.7969 27.9844
Q14.7969 18.2656 18.8281 12.8906
Q22.8594 7.51562 30.0781 7.51562
Q37.3594 7.51562 41.375 12.8906
Q45.4062 18.2656 45.4062 27.9844
M54.3906 6.78125
Q54.3906 -7.17188 48.1875 -13.9844
Q42 -20.7969 29.2031 -20.7969
Q24.4688 -20.7969 20.2656 -20.0938
Q16.0625 -19.3906 12.1094 -17.9219
L12.1094 -9.1875
Q16.0625 -11.3281 19.9219 -12.3438
Q23.7812 -13.375 27.7812 -13.375
Q36.625 -13.375 41.0156 -8.76562
Q45.4062 -4.15625 45.4062 5.17188
L45.4062 9.625
Q42.625 4.78125 38.2812 2.39062
Q33.9375 0 27.875 0
Q17.8281 0 11.6719 7.65625
Q5.51562 15.3281 5.51562 27.9844
Q5.51562 40.6719 11.6719 48.3281
Q17.8281 56 27.875 56
Q33.9375 56 38.2812 53.6094
Q42.625 51.2188 45.4062 46.3906
L45.4062 54.6875
L54.3906 54.6875
z
" id="DejaVuSans-67"/>
     <path d="
M44.2812 53.0781
L44.2812 44.5781
Q40.4844 46.5312 36.375 47.5
Q32.2812 48.4844 27.875 48.4844
Q21.1875 48.4844 17.8438 46.4375
Q14.5 44.3906 14.5 40.2812
Q14.5 37.1562 16.8906 35.375
Q19.2812 33.5938 26.5156 31.9844
L29.5938 31.2969
Q39.1562 29.25 43.1875 25.5156
Q47.2188 21.7812 47.2188 15.0938
Q47.2188 7.46875 41.1875 3.01562
Q35.1562 -1.42188 24.6094 -1.42188
Q20.2188 -1.42188 15.4531 -0.5625
Q10.6875 0.296875 5.42188 2
L5.42188 11.2812
Q10.4062 8.6875 15.2344 7.39062
Q20.0625 6.10938 24.8125 6.10938
Q31.1562 6.10938 34.5625 8.28125
Q37.9844 10.4531 37.9844 14.4062
Q37.9844 18.0625 35.5156 20.0156
Q33.0625 21.9688 24.7031 23.7812
L21.5781 24.5156
Q13.2344 26.2656 9.51562 29.9062
Q5.8125 33.5469 5.8125 39.8906
Q5.8125 47.6094 11.2812 51.7969
Q16.75 56 26.8125 56
Q31.7812 56 36.1719 55.2656
Q40.5781 54.5469 44.2812 53.0781" id="DejaVuSans-73"/>
    </defs>
    <g transform="translate(170.29375 18.14175)scale(0.144 -0.144)">
     <use xlink:href="#DejaVuSans-2f"/>
     <use x="33.69140625" xlink:href="#DejaVuSans-61"/>
     <use x="94.970703125" xlink:href="#DejaVuSans-67"/>
     <use x="158.447265625" xlink:href="#DejaVuSans-61"/>
     <use x="219.7265625" xlink:href="#DejaVuSans-73"/>
     <use x="271.826171875" xlink:href="#DejaVuSans-2f"/>
     <use x="305.517578125" xlink:href="#DejaVuSans-74"/>
     <use x="344.7265625" xlink:href="#DejaVuSans-69"/>
     <use x="372.509765625" xlink:href="#DejaVuSans-6d"/>
     <use x="469.921875" xlink:href="#DejaVuSans-65"/>
     <use x="531.4453125" xlink:href="#DejaVuSans-2f"/>
     <use x="565.13671875" xlink:href="#DejaVuSans-62"/>
     <use x="628.61328125" xlink:href="#DejaVuSans-69"/>
     <use x="656.396484375" xlink:href="#DejaVuSans-6e"/>
     <use x="719.775390625" xlink:href="#DejaVuSans-64"/>
     <use x="783.251953125" xlink:href="#DejaVuSans-5f"/>
     <use x="833.251953125" xlink:href="#DejaVuSans-67"/>
     <use x="896.728515625" xlink:href="#DejaVuSans-69"/>
     <use x="924.51171875" xlink:href="#DejaVuSans-64"/>
    </g>
   </g>
   <g id="legend_1">
    <g id="patch_7">
     <path d="
M471.175 367.194
L602.964 367.194
L602.964 24.6897
L471.175 24.6897
z
" style="fill:#ffffff;stroke:#000000;stroke-linejoin:miter;"/>
    </g>
    <g id="line2d_49">
     <path d="
M481.255 36.3515
L501.415 36.3515" style="fill:none;stroke:#0000ff;stroke-linecap:square;"/>
    </g>
    <g id="line2d_50"/>
    <g id="text_20">
     <!-- locality#0 -->
     <defs>
      <path d="
M48.7812 52.5938
L48.7812 44.1875
Q44.9688 46.2969 41.1406 47.3438
Q37.3125 48.3906 33.4062 48.3906
Q24.6562 48.3906 19.8125 42.8438
Q14.9844 37.3125 14.9844 27.2969
Q14.9844 17.2812 19.8125 11.7344
Q24.6562 6.20312 33.4062 6.20312
Q37.3125 6.20312 41.1406 7.25
Q44.9688 8.29688 48.7812 10.4062
L48.7812 2.09375
Q45.0156 0.34375 40.9844 -0.53125
Q36.9688 -1.42188 32.4219 -1.42188
Q20.0625 -1.42188 12.7812 6.34375
Q5.51562 14.1094 5.51562 27.2969
Q5.51562 40.6719 12.8594 48.3281
Q20.2188 56 33.0156 56
Q37.1562 56 41.1094 55.1406
Q45.0625 54.2969 48.7812 52.5938" id="DejaVuSans-63"/>
      <path d="
M51.125 44
L36.9219 44
L32.8125 27.6875
L47.125 27.6875
z

M43.7969 71.7812
L38.7188 51.5156
L52.9844 51.5156
L58.1094 71.7812
L65.9219 71.7812
L60.8906 51.5156
L76.125 51.5156
L76.125 44
L58.9844 44
L54.9844 27.6875
L70.5156 27.6875
L70.5156 20.2188
L53.0781 20.2188
L48 0
L40.1875 0
L45.2188 20.2188
L30.9062 20.2188
L25.875 0
L18.0156 0
L23.0938 20.2188
L7.71875 20.2188
L7.71875 27.6875
L24.9062 27.6875
L29 44
L13.2812 44
L13.2812 51.5156
L30.9062 51.5156
L35.8906 71.7812
z
" id="DejaVuSans-23"/>
      <path d="
M30.6094 48.3906
Q23.3906 48.3906 19.1875 42.75
Q14.9844 37.1094 14.9844 27.2969
Q14.9844 17.4844 19.1562 11.8438
Q23.3438 6.20312 30.6094 6.20312
Q37.7969 6.20312 41.9844 11.8594
Q46.1875 17.5312 46.1875 27.2969
Q46.1875 37.0156 41.9844 42.7031
Q37.7969 48.3906 30.6094 48.3906
M30.6094 56
Q42.3281 56 49.0156 48.375
Q55.7188 40.7656 55.7188 27.2969
Q55.7188 13.875 49.0156 6.21875
Q42.3281 -1.42188 30.6094 -1.42188
Q18.8438 -1.42188 12.1719 6.21875
Q5.51562 13.875 5.51562 27.2969
Q5.51562 40.7656 12.1719 48.375
Q18.8438 56 30.6094 56" id="DejaVuSans-6f"/>
      <path d="
M32.1719 -5.07812
Q28.375 -14.8438 24.75 -17.8125
Q21.1406 -20.7969 15.0938 -20.7969
L7.90625 -20.7969
L7.90625 -13.2812
L13.1875 -13.2812
Q16.8906 -13.2812 18.9375 -11.5156
Q21 -9.76562 23.4844 -3.21875
L25.0938 0.875
L2.98438 54.6875
L12.5 54.6875
L29.5938 11.9219
L46.6875 54.6875
L56.2031 54.6875
z
" id="DejaVuSans-79"/>
      <path d="
M9.42188 75.9844
L18.4062 75.9844
L18.4062 0
L9.42188 0
z
" id="DejaVuSans-6c"/>
     </defs>
     <g transform="translate(517.255 41.3915)scale(0.144 -0.144)">
      <use xlink:href="#DejaVuSans-6c"/>
      <use x="27.783203125" xlink:href="#DejaVuSans-6f"/>
      <use x="88.96484375" xlink:href="#DejaVuSans-63"/>
      <use x="143.9453125" xlink:href="#DejaVuSans-61"/>
      <use x="205.224609375" xlink:href="#DejaVuSans-6c"/>
      <use x="233.0078125" xlink:href="#DejaVuSans-69"/>
      <use x="260.791015625" xlink:href="#DejaVuSans-74"/>
      <use x="300.0" xlink:href="#DejaVuSans-79"/>
      <use x="359.1796875" xlink:href="#DejaVuSans-23"/>
      <use x="442.96875" xlink:href="#DejaVuSans-30"/>
     </g>
    </g>
    <g id="line2d_51">
     <path d="
M481.255 57.488
L501.415 57.488" style="fill:none;stroke:#008000;stroke-linecap:square;"/>
    </g>
    <g id="line2d_52"/>
    <g id="text_21">
     <!-- locality#1 -->
     <g transform="translate(517.255 62.528)scale(0.144 -0.144)">
      <use xlink:href="#DejaVuSans-6c"/>
      <use x="27.783203125" xlink:href="#DejaVuSans-6f"/>
      <use x="88.96484375" xlink:href="#DejaVuSans-63"/>
      <use x="143.9453125" xlink:href="#DejaVuSans-61"/>
      <use x="205.224609375" xlink:href="#DejaVuSans-6c"/>
      <use x="233.0078125" xlink:href="#DejaVuSans-69"/>
      <use x="260.791015625" xlink:href="#DejaVuSans-74"/>
      <use x="300.0" xlink:href="#DejaVuSans-79"/>
      <use x="359.1796875" xlink:href="#DejaVuSans-23"/>
      <use x="442.96875" xlink:href="#DejaVuSans-31"/>
     </g>
    </g>
    <g id="line2d_53">
     <path d="
M481.255 78.6245
L501.415 78.6245" style="fill:none;stroke:#ff0000;stroke-linecap:square;"/>
    </g>
    <g id="line2d_54"/>
    <g id="text_22">
     <!-- locality#10 -->
     <g transform="translate(517.255 83.6645)scale(0.144 -0.144)">
      <use xlink:href="#DejaVuSans-6c"/>
      <use x="27.783203125" xlink:href="#DejaVuSans-6f"/>
      <use x="88.96484375" xlink:href="#DejaVuSans-63"/>
      <use x="143.9453125" xlink:href="#DejaVuSans-61"/>
      <use x="205.224609375" xlink:href="#DejaVuSans-6c"/>
      <use x="233.0078125" xlink:href="#DejaVuSans-69"/>
      <use x="260.791015625" xlink:href="#DejaVuSans-74"/>
      <use x="300.0" xlink:href="#DejaVuSans-79"/>
      <use x="359.1796875" xlink:href="#DejaVuSans-23"/>
      <use x="442.96875" xlink:href="#DejaVuSans-31"/>
      <use x="506.591796875" xlink:href="#DejaVuSans-30"/>
     </g>
    </g>
    <g id="line2d_55">
     <path d="
M481.255 99.761
L501.415 99.761" style="fill:none;stroke:#00bfbf;stroke-linecap:square;"/>
    </g>
    <g id="line2d_56"/>
    <g id="text_23">
     <!-- locality#11 -->
     <g transform="translate(517.255 104.801)scale(0.144 -0.144)">
      <use xlink:href="#DejaVuSans-6c"/>
      <use x="27.783203125" xlink:href="#DejaVuSans-6f"/>
      <use x="88.96484375" xlink:href="#DejaVuSans-63"/>
      <use x="143.9453125" xlink:href="#DejaVuSans-61"/>
      <use x="205.224609375" xlink:href="#DejaVuSans-6c"/>
      <use x="233.0078125" xlink:href="#DejaVuSans-69"/>
      <use x="260.791015625" xlink:href="#DejaVuSans-74"/>
      <use x="300.0" xlink:href="#DejaVuSans-79"/>
      <use x="359.1796875" xlink:href="#DejaVuSans-23"/>
      <use x="442.96875" xlink:href="#DejaVuSans-31"/>
      <use x="506.591796875" xlink:href="#DejaVuSans-31"/>
     </g>
    </g>
    <g id="line2d_57">
     <path d="
M481.255 120.897
L501.415 120.897" style="fill:none;stroke:#bf00bf;stroke-linecap:square;"/>
    </g>
    <g id="line2d_58"/>
    <g id="text_24">
     <!-- locality#12 -->
     <g transform="translate(517.255 125.9375)scale(0.144 -0.144)">
      <use xlink:href="#DejaVuSans-6c"/>
      <use x="27.783203125" xlink:href="#DejaVuSans-6f"/>
      <use x="88.96484375" xlink:href="#DejaVuSans-63"/>
      <use x="143.9453125" xlink:href="#DejaVuSans-61"/>
      <use x="205.224609375" xlink:href="#DejaVuSans-6c"/>
      <use x="233.0078125" xlink:href="#DejaVuSans-69"/>
      <use x="260.791015625" xlink:href="#DejaVuSans-74"/>
      <use x="300.0" xlink:href="#DejaVuSans-79"/>
      <use x="359.1796875" xlink:href="#DejaVuSans-23"/>
      <use x="442.96875" xlink:href="#DejaVuSans-31"/>
      <use x="506.591796875" xlink:href="#DejaVuSans-32"/>
     </g>
    </g>
    <g id="line2d_59">
     <path d="
M481.255 142.034
L501.415 142.034" style="fill:none;stroke:#bfbf00;stroke-linecap:square;"/>
    </g>
    <g id="line2d_60"/>
    <g id="text_25">
     <!-- locality#13 -->
     <g transform="translate(517.255 147.074)scale(0.144 -0.144)">
      <use xlink:href="#DejaVuSans-6c"/>
      <use x="27.783203125" xlink:href="#DejaVuSans-6f"/>
      <use x="88.96484375" xlink:href="#DejaVuSans-63"/>
      <use x="143.9453125" xlink:href="#DejaVuSans-61"/>
      <use x="205.224609375" xlink:href="#DejaVuSans-6c"/>
      <use x="233.0078125" xlink:href="#DejaVuSans-69"/>
      <use x="260.791015625" xlink:href="#DejaVuSans-74"/>
      <use x="300.0" xlink:href="#DejaVuSans-79"/>
      <use x="359.1796875" xlink:href="#DejaVuSans-23"/>
      <use x="442.96875" xlink:href="#DejaVuSans-31"/>
      <use x="506.591796875" xlink:href="#DejaVuSans-33"/>
     </g>
    </g>
    <g id="line2d_61">
     <path d="
M481.255 163.17
L501.415 163.17" style="fill:none;stroke:#000000;stroke-linecap:square;"/>
    </g>
    <g id="line2d_62"/>
    <g id="text_26">
     <!-- locality#14 -->
     <g transform="translate(517.255 168.2105)scale(0.144 -0.144)">
      <use xlink:href="#DejaVuSans-6c"/>
      <use x="27.783203125" xlink:href="#DejaVuSans-6f"/>
      <use x="88.96484375" xlink:href="#DejaVuSans-63"/>
      <use x="143.9453125" xlink:href="#DejaVuSans-61"/>
      <use x="205.224609375" xlink:href="#DejaVuSans-6c"/>
      <use x="233.0078125" xlink:href="#DejaVuSans-69"/>
      <use x="260.791015625" xlink:href="#DejaVuSans-74"/>
      <use x="300.0" xlink:href="#DejaVuSans-79"/>
      <use x="359.1796875" xlink:href="#DejaVuSans-23"/>
      <use x="442.96875" xlink:href="#DejaVuSans-31"/>
      <use x="506.591796875" xlink:href="#DejaVuSans-34"/>
     </g>
    </g>
    <g id="line2d_63">
     <path d="
M481.255 184.307
L501.415 184.307" style="fill:none;stroke:#0000ff;stroke-linecap:square;"/>
    </g>
    <g id="line2d_64"/>
    <g id="text_27">
     <!-- locality#15 -->
     <g transform="translate(517.255 189.347)scale(0.144 -0.144)">
      <use xlink:href="#DejaVuSans-6c"/>
      <use x="27.783203125" xlink:href="#DejaVuSans-6f"/>
      <use x="88.96484375" xlink:href="#DejaVuSans-63"/>
      <use x="143.9453125" xlink:href="#DejaVuSans-61"/>
      <use x="205.224609375" xlink:href="#DejaVuSans-6c"/>
      <use x="233.0078125" xlink:href="#DejaVuSans-69"/>
      <use x="260.791015625" xlink:href="#DejaVuSans-74"/>
      <use x="300.0" xlink:href="#DejaVuSans-79"/>
      <use x="359.1796875" xlink:href="#DejaVuSans-23"/>
      <use x="442.96875" xlink:href="#DejaVuSans-31"/>
      <use x="506.591796875" xlink:href="#DejaVuSans-35"/>
     </g>
    </g>
    <g id="line2d_65">
     <path d="
M481.255 205.443
L501.415 205.443" style="fill:none;stroke:#008000;stroke-linecap:square;"/>
    </g>
    <g id="line2d_66"/>
    <g id="text_28">
     <!-- locality#2 -->
     <g transform="translate(517.255 210.4835)scale(0.144 -0.144)">
      <use xlink:href="#DejaVuSans-6c"/>
      <use x="27.783203125" xlink:href="#DejaVuSans-6f"/>
      <use x="88.96484375" xlink:href="#DejaVuSans-63"/>
      <use x="143.9453125" xlink:href="#DejaVuSans-61"/>
      <use x="205.224609375" xlink:href="#DejaVuSans-6c"/>
      <use x="233.0078125" xlink:href="#DejaVuSans-69"/>
      <use x="260.791015625" xlink:href="#DejaVuSans-74"/>
      <use x="300.0" xlink:href="#DejaVuSans-79"/>
      <use x="359.1796875" xlink:href="#DejaVuSans-23"/>
      <use x="442.96875" xlink:href="#DejaVuSans-32"/>
     </g>
    </g>
    <g id="line2d_67">
     <path d="
M481.255 226.58
L501.415 226.58" style="fill:none;stroke:#ff0000;stroke-linecap:square;"/>
    </g>
    <g id="line2d_68"/>
    <g id="text_29">
     <!-- locality#3 -->
     <g transform="translate(517.255 231.62)scale(0.144 -0.144)">
      <use xlink:href="#DejaVuSans-6c"/>
      <use x="27.783203125" xlink:href="#DejaVuSans-6f"/>
      <use x="88.96484375" xlink:href="#DejaVuSans-63"/>
      <use x="143.9453125" xlink:href="#DejaVuSans-61"/>
      <use x="205.224609375" xlink:href="#DejaVuSans-6c"/>
      <use x="233.0078125" xlink:href="#DejaVuSans-69"/>
      <use x="260.791015625" xlink:href="#DejaVuSans-74"/>
      <use x="300.0" xlink:href="#DejaVuSans-79"/>
      <use x="359.1796875" xlink:href="#DejaVuSans-23"/>
      <use x="442.96875" xlink:href="#DejaVuSans-33"/>
     </g>
    </g>
    <g id="line2d_69">
     <path d="
M481.255 247.716
L501.415 247.716" style="fill:none;stroke:#00bfbf;stroke-linecap:square;"/>
    </g>
    <g id="line2d_70"/>
    <g id="text_30">
     <!-- locality#4 -->
     <g transform="translate(517.255 252.7565)scale(0.144 -0.144)">
      <use xlink:href="#DejaVuSans-6c"/>
      <use x="27.783203125" xlink:href="#DejaVuSans-6f"/>
      <use x="88.96484375" xlink:href="#DejaVuSans-63"/>
      <use x="143.9453125" xlink:href="#DejaVuSans-61"/>
      <use x="205.224609375" xlink:href="#DejaVuSans-6c"/>
      <use x="233.0078125" xlink:href="#DejaVuSans-69"/>
      <use x="260.791015625" xlink:href="#DejaVuSans-74"/>
      <use x="300.0" xlink:href="#DejaVuSans-79"/>
      <use x="359.1796875" xlink:href="#DejaVuSans-23"/>
      <use x="442.96875" xlink:href="#DejaVuSans-34"/>
     </g>
    </g>
    <g id="line2d_71">
     <path d="
M481.255 268.853
L501.415 268.853" style="fill:none;stroke:#bf00bf;stroke-linecap:square;"/>
    </g>
    <g id="line2d_72"/>
    <g id="text_31">
     <!-- locality#5 -->
     <g transform="translate(517.255 273.893)scale(0.144 -0.144)">
      <use xlink:href="#DejaVuSans-6c"/>
      <use x="27.783203125" xlink:href="#DejaVuSans-6f"/>
      <use x="88.96484375" xlink:href="#DejaVuSans-63"/>
      <use x="143.9453125" xlink:href="#DejaVuSans-61"/>
      <use x="205.224609375" xlink:href="#DejaVuSans-6c"/>
      <use x="233.0078125" xlink:href="#DejaVuSans-69"/>
      <use x="260.791015625" xlink:href="#DejaVuSans-74"/>
      <use x="300.0" xlink:href="#DejaVuSans-79"/>
      <use x="359.1796875" xlink:href="#DejaVuSans-23"/>
      <use x="442.96875" xlink:href="#DejaVuSans-35"/>
     </g>
    </g>
    <g id="line2d_73">
     <path d="
M481.255 289.989
L501.415 289.989" style="fill:none;stroke:#bfbf00;stroke-linecap:square;"/>
    </g>
    <g id="line2d_74"/>
    <g id="text_32">
     <!-- locality#6 -->
     <g transform="translate(517.255 295.0295)scale(0.144 -0.144)">
      <use xlink:href="#DejaVuSans-6c"/>
      <use x="27.783203125" xlink:href="#DejaVuSans-6f"/>
      <use x="88.96484375" xlink:href="#DejaVuSans-63"/>
      <use x="143.9453125" xlink:href="#DejaVuSans-61"/>
      <use x="205.224609375" xlink:href="#DejaVuSans-6c"/>
      <use x="233.0078125" xlink:href="#DejaVuSans-69"/>
      <use x="260.791015625" xlink:href="#DejaVuSans-74"/>
      <use x="300.0" xlink:href="#DejaVuSans-79"/>
      <use x="359.1796875" xlink:href="#DejaVuSans-23"/>
      <use x="442.96875" xlink:href="#DejaVuSans-36"/>
     </g>
    </g>
    <g id="line2d_75">
     <path d="
M481.255 311.126
L501.415 311.126" style="fill:none;stroke:#000000;stroke-linecap:square;"/>
    </g>
    <g id="line2d_76"/>
    <g id="text_33">
     <!-- locality#7 -->
     <g transform="translate(517.255 316.166)scale(0.144 -0.144)">
      <use xlink:href="#DejaVuSans-6c"/>
      <use x="27.783203125" xlink:href="#DejaVuSans-6f"/>
      <use x="88.96484375" xlink:href="#DejaVuSans-63"/>
      <use x="143.9453125" xlink:href="#DejaVuSans-61"/>
      <use x="205.224609375" xlink:href="#DejaVuSans-6c"/>
      <use x="233.0078125" xlink:href="#DejaVuSans-69"/>
      <use x="260.791015625" xlink:href="#DejaVuSans-74"/>
      <use x="300.0" xlink:href="#DejaVuSans-79"/>
      <use x="359.1796875" xlink:href="#DejaVuSans-23"/>
      <use x="442.96875" xlink:href="#DejaVuSans-37"/>
     </g>
    </g>
    <g id="line2d_77">
     <path d="
M481.255 332.262
L501.415 332.262" style="fill:none;stroke:#0000ff;stroke-linecap:square;"/>
    </g>
    <g id="line2d_78"/>
    <g id="text_34">
     <!-- locality#8 -->
     <g transform="translate(517.255 337.3025)scale(0.144 -0.144)">
      <use xlink:href="#DejaVuSans-6c"/>
      <use x="27.783203125" xlink:href="#DejaVuSans-6f"/>
      <use x="88.96484375" xlink:href="#DejaVuSans-63"/>
      <use x="143.9453125" xlink:href="#DejaVuSans-61"/>
      <use x="205.224609375" xlink:href="#DejaVuSans-6c"/>
      <use x="233.0078125" xlink:href="#DejaVuSans-69"/>
      <use x="260.791015625" xlink:href="#DejaVuSans-74"/>
      <use x="300.0" xlink:href="#DejaVuSans-79"/>
      <use x="359.1796875" xlink:href="#DejaVuSans-23"/>
      <use x="442.96875" xlink:href="#DejaVuSans-38"/>
     </g>
    </g>
    <g id="line2d_79">
     <path d="
M481.255 353.399
L501.415 353.399" style="fill:none;stroke:#008000;stroke-linecap:square;"/>
    </g>
    <g id="line2d_80"/>
    <g id="text_35">
     <!-- locality#9 -->
     <defs>
      <path d="
M10.9844 1.51562
L10.9844 10.5
Q14.7031 8.73438 18.5 7.8125
Q22.3125 6.89062 25.9844 6.89062
Q35.75 6.89062 40.8906 13.4531
Q46.0469 20.0156 46.7812 33.4062
Q43.9531 29.2031 39.5938 26.9531
Q35.25 24.7031 29.9844 24.7031
Q19.0469 24.7031 12.6719 31.3125
Q6.29688 37.9375 6.29688 49.4219
Q6.29688 60.6406 12.9375 67.4219
Q19.5781 74.2188 30.6094 74.2188
Q43.2656 74.2188 49.9219 64.5156
Q56.5938 54.8281 56.5938 36.375
Q56.5938 19.1406 48.4062 8.85938
Q40.2344 -1.42188 26.4219 -1.42188
Q22.7031 -1.42188 18.8906 -0.6875
Q15.0938 0.046875 10.9844 1.51562
M30.6094 32.4219
Q37.25 32.4219 41.125 36.9531
Q45.0156 41.5 45.0156 49.4219
Q45.0156 57.2812 41.125 61.8438
Q37.25 66.4062 30.6094 66.4062
Q23.9688 66.4062 20.0938 61.8438
Q16.2188 57.2812 16.2188 49.4219
Q16.2188 41.5 20.0938 36.9531
Q23.9688 32.4219 30.6094 32.4219" id="DejaVuSans-39"/>
     </defs>
     <g transform="translate(517.255 358.439)scale(0.144 -0.144)">
      <use xlink:href="#DejaVuSans-6c"/>
      <use x="27.783203125" xlink:href="#DejaVuSans-6f"/>
      <use x="88.96484375" xlink:href="#DejaVuSans-63"/>
      <use x="143.9453125" xlink:href="#DejaVuSans-61"/>
      <use x="205.224609375" xlink:href="#DejaVuSans-6c"/>
      <use x="233.0078125" xlink:href="#DejaVuSans-69"/>
      <use x="260.791015625" xlink:href="#DejaVuSans-74"/>
      <use x="300.0" xlink:href="#DejaVuSans-79"/>
      <use x="359.1796875" xlink:href="#DejaVuSans-23"/>
      <use x="442.96875" xlink:href="#DejaVuSans-39"/>
     </g>
    </g>
   </g>
  </g>
 </g>
 <defs>
  <clipPath id="pf51f381abf">
   <rect height="345.6" width="446.4" x="17.575" y="23.14175"/>
  </clipPath>
 </defs>
</svg>
