<?xml version="1.0" encoding="utf-8" standalone="no"?>
<!DOCTYPE svg PUBLIC "-//W3C//DTD SVG 1.1//EN"
  "http://www.w3.org/Graphics/SVG/1.1/DTD/svg11.dtd">
<!-- Created with matplotlib (http://matplotlib.org/) -->
<svg height="408pt" version="1.1" viewBox="0 0 639 408" width="639pt" xmlns="http://www.w3.org/2000/svg" xmlns:xlink="http://www.w3.org/1999/xlink">
 <defs>
  <style type="text/css">
*{stroke-linecap:butt;stroke-linejoin:round;}
  </style>
 </defs>
 <g id="figure_1">
  <g id="patch_1">
   <path d="
M0 408.169
L639.849 408.169
L639.849 0
L0 0
z
" style="fill:#ffffff;"/>
  </g>
  <g id="axes_1">
   <g id="patch_2">
    <path d="
M47.26 368.742
L493.66 368.742
L493.66 23.1417
L47.26 23.1417
z
" style="fill:#ffffff;"/>
   </g>
   <g id="line2d_1">
    <path clip-path="url(#p7a17b32626)" d="
M47.26 368.742
L493.66 368.742
L493.66 368.742" style="fill:none;stroke:#0000ff;stroke-linecap:square;"/>
   </g>
   <g id="line2d_2">
    <path clip-path="url(#p7a17b32626)" d="
M47.26 368.742
L52.6335 368.742
L52.8325 364.545
L53.8276 364.52
L58.8031 364.52
L59.0021 364.224
L59.2012 360.299
L64.9727 360.299
L65.1717 360.003
L65.3707 356.078
L71.1423 356.078
L71.3413 355.782
L71.5403 351.857
L77.3119 351.857
L77.5109 351.56
L77.7099 347.635
L83.4815 347.635
L83.6805 347.339
L83.8795 343.414
L89.6511 343.414
L89.8501 343.118
L90.0491 339.193
L95.8207 339.193
L96.0197 338.897
L96.2187 334.972
L101.99 334.972
L102.189 334.675
L102.388 330.75
L108.16 330.75
L108.359 330.454
L108.558 326.529
L114.329 326.529
L114.528 326.233
L114.727 322.308
L120.499 322.308
L120.698 322.012
L120.897 318.087
L126.669 318.087
L126.868 316.926
L127.067 313.865
L132.838 313.865
L133.037 313.569
L133.236 309.644
L139.008 309.644
L139.207 309.348
L139.406 305.423
L145.177 305.423
L145.376 305.127
L145.575 301.202
L151.347 301.202
L151.546 300.905
L151.745 296.98
L157.517 296.98
L157.716 296.684
L157.915 292.759
L163.686 292.759
L163.885 292.463
L164.084 288.538
L169.856 288.538
L170.055 288.242
L170.254 284.317
L176.025 284.317
L176.224 284.02
L176.423 280.095
L182.195 280.095
L182.394 279.799
L182.593 275.874
L188.365 275.874
L188.564 275.578
L188.763 271.653
L194.534 271.653
L194.733 271.357
L194.932 267.432
L200.704 267.432
L200.903 267.135
L201.102 263.21
L206.873 263.21
L207.072 262.914
L207.271 258.989
L213.043 258.989
L213.242 258.693
L213.441 254.768
L219.213 254.768
L219.412 254.472
L219.611 250.547
L225.382 250.547
L225.581 250.25
L225.78 246.325
L231.552 246.325
L231.751 246.029
L231.95 242.104
L237.721 242.104
L237.92 241.808
L238.119 237.883
L243.891 237.883
L244.09 237.587
L244.289 233.662
L250.061 233.662
L250.26 233.365
L250.459 229.44
L256.23 229.44
L256.429 229.144
L256.628 225.219
L262.4 225.219
L262.599 224.923
L262.798 220.998
L268.569 220.998
L268.768 220.702
L268.967 216.776
L274.739 216.776
L274.938 216.48
L275.137 212.555
L280.909 212.555
L281.108 212.259
L281.307 208.334
L287.078 208.334
L287.277 208.038
L287.476 204.113
L293.248 204.113
L293.447 203.816
L293.646 199.891
L299.417 199.891
L299.616 199.595
L299.815 195.67
L305.587 195.67
L305.786 195.374
L305.985 191.449
L311.756 191.449
L311.955 191.153
L312.155 187.228
L317.926 187.228
L318.125 186.931
L318.324 183.006
L324.096 183.006
L324.295 182.71
L324.494 178.785
L330.265 178.785
L330.464 178.489
L330.663 174.564
L336.435 174.564
L336.634 174.268
L336.833 170.343
L342.604 170.343
L342.803 170.046
L343.002 166.121
L348.774 166.121
L348.973 165.825
L349.172 161.9
L354.944 161.9
L355.143 161.604
L355.342 157.679
L361.113 157.679
L361.312 157.383
L361.511 153.458
L367.283 153.458
L367.482 153.161
L367.681 149.236
L373.452 149.236
L373.651 148.94
L373.85 145.015
L379.622 145.015
L379.821 144.719
L380.02 140.794
L385.792 140.794
L385.991 140.498
L386.19 136.573
L391.961 136.573
L392.16 136.276
L392.359 132.351
L398.131 132.351
L398.33 132.055
L398.529 128.13
L404.3 128.13
L404.499 127.834
L404.698 123.909
L410.47 123.909
L410.669 123.613
L410.868 119.688
L416.64 119.688
L416.839 119.391
L417.038 115.466
L422.809 115.466
L423.008 115.17
L423.207 111.245
L428.979 111.245
L429.178 110.949
L429.377 107.024
L435.148 107.024
L435.347 106.728
L435.546 102.803
L441.318 102.803
L441.517 102.506
L441.716 98.5813
L447.488 98.5813
L447.687 98.2851
L447.886 94.36
L453.657 94.36
L453.856 94.0638
L454.055 90.1388
L459.827 90.1388
L460.026 89.8425
L460.225 85.9175
L465.996 85.9175
L466.195 85.6213
L466.394 81.6963
L472.166 81.6963
L472.365 81.4
L472.564 77.475
L478.336 77.475
L478.535 77.1788
L478.734 73.2537
L484.505 73.2537
L484.704 72.9575
L484.903 69.0325
L490.675 69.0325
L490.874 68.7363
L491.073 64.8112
L493.66 64.8112
L493.66 64.8112" style="fill:none;stroke:#008000;stroke-linecap:square;"/>
   </g>
   <g id="line2d_3">
    <path clip-path="url(#p7a17b32626)" d="
M47.26 368.742
L52.6335 368.742
L52.8325 364.545
L53.8276 364.52
L58.8031 364.52
L59.0021 364.101
L59.2012 360.299
L64.9727 360.299
L65.1717 360.003
L65.3707 356.078
L71.1423 356.078
L71.3413 355.782
L71.5403 351.857
L77.3119 351.857
L77.5109 351.56
L77.7099 347.635
L83.4815 347.635
L83.6805 347.339
L83.8795 343.414
L89.6511 343.414
L90.0491 339.193
L95.8207 339.193
L96.0197 337.909
L96.2187 334.972
L101.99 334.972
L102.189 334.478
L102.388 330.75
L108.16 330.75
L108.359 330.454
L108.558 326.529
L114.329 326.529
L114.528 324.925
L114.727 322.308
L120.499 322.308
L120.698 320.975
L120.897 318.087
L126.669 318.087
L126.868 316.556
L127.067 313.865
L132.838 313.865
L133.037 312.36
L133.236 309.644
L139.008 309.644
L139.207 308.336
L139.406 305.423
L145.177 305.423
L145.376 304.732
L145.575 301.202
L151.347 301.202
L151.546 299.795
L151.745 296.98
L157.517 296.98
L157.716 295.894
L157.915 292.759
L163.686 292.759
L163.885 292.463
L164.084 288.538
L169.856 288.538
L170.055 287.6
L170.254 284.317
L176.025 284.317
L176.224 283.206
L176.423 280.095
L182.195 280.095
L182.394 279.108
L182.593 275.874
L188.365 275.874
L188.564 274.961
L188.763 271.653
L194.534 271.653
L194.733 270.27
L194.932 267.432
L200.704 267.432
L200.903 266
L201.102 263.21
L206.873 263.21
L207.072 262.791
L207.271 258.989
L213.043 258.989
L213.242 258.52
L213.441 254.792
L214.436 254.768
L219.213 254.768
L219.611 250.547
L225.382 250.547
L225.78 246.325
L231.552 246.325
L232.149 242.104
L237.721 242.104
L237.92 240.524
L238.119 237.883
L243.891 237.883
L244.289 233.662
L250.061 233.662
L250.26 232.057
L250.459 229.44
L256.23 229.44
L256.429 228.157
L256.628 225.219
L262.4 225.219
L262.599 224.997
L262.798 220.998
L268.569 220.998
L268.768 219.813
L268.967 216.776
L274.739 216.776
L274.938 215.493
L275.137 212.555
L280.909 212.555
L281.108 211.79
L281.307 208.334
L287.078 208.334
L287.277 207.643
L287.476 204.113
L293.248 204.113
L293.447 203.668
L293.646 199.891
L299.417 199.891
L299.616 199.077
L299.815 195.67
L305.587 195.67
L305.786 194.979
L305.985 191.449
L311.756 191.449
L311.955 190.98
L312.155 187.228
L317.926 187.228
L318.125 186.364
L318.324 183.006
L324.096 183.006
L324.295 182.241
L324.494 178.81
L325.489 178.785
L330.265 178.785
L330.464 178.069
L330.663 174.564
L336.435 174.564
L336.634 174.194
L336.833 170.343
L342.604 170.343
L342.803 169.256
L343.002 166.121
L348.774 166.121
L348.973 164.788
L349.172 161.9
L354.944 161.9
L355.143 160.567
L355.342 157.679
L361.113 157.679
L361.312 157.358
L361.511 153.458
L367.283 153.458
L367.482 152.742
L367.681 149.236
L373.452 149.236
L373.651 148.323
L373.85 145.015
L379.622 145.015
L379.821 143.806
L380.02 140.794
L385.792 140.794
L385.991 139.683
L386.19 136.573
L391.961 136.573
L392.16 135.659
L392.359 132.351
L398.131 132.351
L398.33 131.216
L398.529 128.13
L404.3 128.13
L404.499 127.241
L404.698 123.909
L410.47 123.909
L410.669 123.489
L410.868 119.688
L416.64 119.688
L416.839 119.317
L417.038 115.466
L422.809 115.466
L423.008 115.195
L423.207 111.245
L428.979 111.245
L429.178 110.455
L429.377 107.024
L435.148 107.024
L435.347 106.209
L435.546 102.803
L441.318 102.803
L441.517 102.309
L441.716 98.606
L442.711 98.5813
L447.488 98.5813
L447.687 97.9888
L447.886 94.36
L453.657 94.36
L453.856 94.1625
L454.055 90.1388
L459.827 90.1388
L460.026 89.8919
L460.225 85.9175
L465.996 85.9175
L466.195 85.2016
L466.394 81.6963
L472.166 81.6963
L472.365 81.1038
L472.564 77.475
L478.336 77.475
L478.535 76.4135
L478.734 73.2784
L479.729 73.2537
L484.505 73.2537
L484.704 72.8588
L484.903 69.0325
L490.675 69.0325
L490.874 68.5881
L491.073 64.8359
L492.068 64.8112
L493.66 64.8112
L493.66 64.8112" style="fill:none;stroke:#ff0000;stroke-linecap:square;"/>
   </g>
   <g id="line2d_4">
    <path clip-path="url(#p7a17b32626)" d="
M47.26 368.742
L52.6335 368.742
L52.8325 364.545
L53.8276 364.52
L58.8031 364.52
L59.0021 360.324
L59.9972 360.299
L64.9727 360.299
L65.3707 356.103
L66.3658 356.078
L71.1423 356.078
L71.5403 351.857
L77.3119 351.857
L77.5109 348.697
L77.7099 347.635
L83.4815 347.635
L83.6805 344.648
L83.8795 343.414
L89.6511 343.414
L89.8501 339.366
L90.0491 339.193
L95.8207 339.193
L96.0197 335.441
L96.2187 334.972
L101.99 334.972
L102.189 331.935
L102.388 330.75
L108.16 330.75
L108.558 326.529
L114.329 326.529
L114.528 323.123
L114.727 322.308
L120.499 322.308
L120.698 319.247
L120.897 318.087
L126.669 318.087
L127.067 313.865
L132.838 313.865
L133.236 309.644
L139.008 309.644
L139.406 305.423
L145.177 305.423
L145.774 301.202
L151.347 301.202
L151.745 296.98
L157.517 296.98
L157.915 292.759
L163.686 292.759
L163.885 292.364
L164.084 288.538
L169.856 288.538
L170.055 287.55
L170.254 284.317
L176.025 284.317
L176.224 283.354
L176.423 280.095
L182.195 280.095
L182.394 279.231
L182.593 275.874
L188.365 275.874
L188.564 275.035
L188.763 271.653
L194.534 271.653
L194.733 271.036
L194.932 267.432
L200.704 267.432
L200.903 266.642
L201.102 263.21
L206.873 263.21
L207.072 262.914
L207.271 258.989
L213.043 258.989
L213.242 258.693
L213.441 254.768
L219.213 254.768
L219.412 253.953
L219.611 250.547
L225.382 250.547
L225.581 249.608
L225.78 246.325
L231.552 246.325
L231.751 245.609
L231.95 242.104
L237.721 242.104
L237.92 241.363
L238.119 237.883
L243.891 237.883
L244.09 236.994
L244.289 233.662
L250.061 233.662
L250.26 232.896
L250.459 229.44
L256.23 229.44
L256.429 228.7
L256.628 225.219
L262.4 225.219
L262.599 224.923
L262.798 220.998
L268.569 220.998
L268.768 220.232
L268.967 216.776
L274.739 216.776
L274.938 216.061
L275.137 212.555
L280.909 212.555
L281.108 211.913
L281.307 208.334
L287.078 208.334
L287.277 207.396
L287.476 204.113
L293.248 204.113
L293.447 203.57
L293.646 199.891
L299.417 199.891
L299.616 198.731
L299.815 195.67
L305.587 195.67
L305.786 194.782
L305.985 191.449
L311.756 191.449
L311.955 190.536
L312.155 187.228
L317.926 187.228
L318.125 186.364
L318.324 183.006
L324.096 183.006
L324.295 182.34
L324.494 178.785
L330.265 178.785
L330.464 178.39
L330.663 174.564
L336.435 174.564
L336.634 173.996
L336.833 170.343
L342.604 170.343
L342.803 170.096
L343.002 166.121
L348.774 166.121
L348.973 165.381
L349.172 161.9
L354.944 161.9
L355.143 161.135
L355.342 157.679
L361.113 157.679
L361.312 157.383
L361.511 153.458
L367.283 153.458
L367.482 153.161
L367.681 149.236
L373.452 149.236
L373.651 148.94
L373.85 145.015
L379.622 145.015
L379.821 144.744
L380.02 140.794
L385.792 140.794
L385.991 140.572
L386.19 136.573
L391.961 136.573
L392.16 136.227
L392.359 132.351
L398.131 132.351
L398.33 131.907
L398.529 128.13
L404.3 128.13
L404.499 127.39
L404.698 123.934
L405.694 123.909
L410.47 123.909
L410.669 123.588
L410.868 119.712
L411.863 119.688
L416.64 119.688
L416.839 118.922
L417.038 115.466
L422.809 115.466
L423.008 114.726
L423.207 111.245
L428.979 111.245
L429.178 110.949
L429.377 107.048
L430.372 107.024
L435.148 107.024
L435.347 106.53
L435.546 102.827
L436.541 102.803
L441.318 102.803
L441.517 102.334
L441.716 98.5813
L447.488 98.5813
L447.687 97.8901
L447.886 94.36
L453.657 94.36
L453.856 93.9157
L454.055 90.1635
L455.05 90.1388
L459.827 90.1388
L460.026 89.5463
L460.225 85.9175
L465.996 85.9175
L466.195 85.4485
L466.394 81.6963
L472.166 81.6963
L472.365 80.7829
L472.564 77.4997
L473.559 77.475
L478.336 77.475
L478.535 76.9813
L478.734 73.2537
L484.505 73.2537
L484.704 72.9575
L484.903 69.0325
L490.675 69.0325
L490.874 68.6128
L491.073 64.8112
L493.66 64.8112
L493.66 64.8112" style="fill:none;stroke:#00bfbf;stroke-linecap:square;"/>
   </g>
   <g id="line2d_5">
    <path clip-path="url(#p7a17b32626)" d="
M47.26 368.742
L52.6335 368.742
L52.8325 364.545
L53.8276 364.52
L58.8031 364.52
L59.0021 362.99
L59.2012 360.299
L64.9727 360.299
L65.1717 360.003
L65.3707 356.078
L71.1423 356.078
L71.3413 355.782
L71.5403 351.857
L77.3119 351.857
L77.5109 350.771
L77.7099 347.635
L83.4815 347.635
L83.6805 347.29
L83.8795 343.414
L89.6511 343.414
L89.8501 342.18
L90.0491 339.193
L95.8207 339.193
L96.0197 338.329
L96.2187 334.972
L101.99 334.972
L102.189 334.33
L102.388 330.75
L108.16 330.75
L108.359 330.355
L108.558 326.529
L114.329 326.529
L114.528 325.27
L114.727 322.308
L120.499 322.308
L120.698 321.641
L120.897 318.087
L126.669 318.087
L126.868 316.655
L127.067 313.865
L132.838 313.865
L133.037 313.1
L133.236 309.644
L139.008 309.644
L139.207 308.953
L139.406 305.423
L145.177 305.423
L145.376 305.127
L145.575 301.202
L151.347 301.202
L151.546 300.288
L151.745 296.98
L157.517 296.98
L157.716 296.264
L157.915 292.759
L163.686 292.759
L163.885 292.463
L164.084 288.538
L169.856 288.538
L170.055 287.748
L170.254 284.317
L176.025 284.317
L176.224 283.329
L176.423 280.095
L182.195 280.095
L182.394 279.157
L182.593 275.874
L188.365 275.874
L188.564 275.109
L188.763 271.653
L194.534 271.653
L194.733 271.11
L194.932 267.432
L200.704 267.432
L200.903 266.74
L201.102 263.21
L206.873 263.21
L207.072 262.914
L207.271 258.989
L213.043 258.989
L213.242 258.693
L213.441 254.768
L219.213 254.768
L219.412 254.249
L219.611 250.547
L225.382 250.547
L225.581 249.633
L225.78 246.325
L231.552 246.325
L231.751 245.683
L231.95 242.104
L237.721 242.104
L237.92 241.438
L238.119 237.883
L243.891 237.883
L244.09 237.142
L244.289 233.662
L250.061 233.662
L250.26 232.97
L250.459 229.44
L256.23 229.44
L256.429 228.65
L256.628 225.219
L262.4 225.219
L262.599 224.923
L262.798 220.998
L268.569 220.998
L268.768 220.43
L268.967 216.776
L274.739 216.776
L274.938 216.11
L275.137 212.555
L280.909 212.555
L281.108 211.963
L281.307 208.334
L287.078 208.334
L287.277 207.544
L287.476 204.113
L293.248 204.113
L293.447 203.594
L293.646 199.891
L299.417 199.891
L299.616 199.176
L299.815 195.67
L305.587 195.67
L305.786 195.004
L305.985 191.449
L311.756 191.449
L311.955 190.61
L312.155 187.228
L317.926 187.228
L318.125 186.487
L318.324 183.006
L324.096 183.006
L324.295 182.019
L324.494 178.785
L330.265 178.785
L330.464 178.291
L330.663 174.564
L336.435 174.564
L336.634 174.416
L336.833 170.343
L342.604 170.343
L342.803 169.726
L343.002 166.121
L348.774 166.121
L348.973 165.702
L349.172 161.9
L354.944 161.9
L355.143 161.16
L355.342 157.679
L361.113 157.679
L361.312 157.383
L361.511 153.458
L367.283 153.458
L367.482 153.161
L367.681 149.236
L373.452 149.236
L373.651 148.94
L373.85 145.015
L379.622 145.015
L379.821 144.694
L380.02 140.794
L385.792 140.794
L385.991 140.448
L386.19 136.573
L391.961 136.573
L392.16 136.202
L392.359 132.351
L398.131 132.351
L398.33 131.759
L398.529 128.13
L404.3 128.13
L404.499 127.612
L404.698 123.909
L410.47 123.909
L410.669 123.464
L410.868 119.712
L411.863 119.688
L416.64 119.688
L416.839 119.243
L417.038 115.466
L422.809 115.466
L423.008 114.75
L423.207 111.245
L428.979 111.245
L429.178 110.184
L429.377 107.048
L430.372 107.024
L435.148 107.024
L435.347 106.16
L435.546 102.827
L436.541 102.803
L441.318 102.803
L441.517 102.58
L441.716 98.5813
L447.488 98.5813
L447.687 97.8901
L447.886 94.3847
L448.881 94.36
L453.657 94.36
L453.856 94.1132
L454.055 90.1635
L455.05 90.1388
L459.827 90.1388
L460.026 89.2995
L460.225 85.9175
L465.996 85.9175
L466.195 85.3004
L466.394 81.6963
L472.166 81.6963
L472.365 81.4247
L472.564 77.475
L478.336 77.475
L478.535 77.2528
L478.734 73.2537
L484.505 73.2537
L484.704 72.9575
L484.903 69.0325
L490.675 69.0325
L490.874 68.8103
L491.073 64.8112
L493.66 64.8112
L493.66 64.8112" style="fill:none;stroke:#bf00bf;stroke-linecap:square;"/>
   </g>
   <g id="line2d_6">
    <path clip-path="url(#p7a17b32626)" d="
M47.26 368.742
L52.6335 368.742
L52.8325 364.545
L53.8276 364.52
L58.8031 364.52
L59.0021 363.089
L59.2012 360.299
L64.9727 360.299
L65.1717 360.003
L65.3707 356.078
L71.1423 356.078
L71.3413 355.56
L71.5403 351.857
L77.3119 351.857
L77.5109 350.968
L77.7099 347.635
L83.4815 347.635
L83.6805 346.944
L83.8795 343.414
L89.6511 343.414
L90.0491 339.193
L95.8207 339.193
L96.2187 334.972
L101.99 334.972
L102.189 333.441
L102.388 330.75
L108.16 330.75
L108.359 330.01
L108.558 326.529
L114.329 326.529
L114.528 325.048
L114.727 322.308
L120.499 322.308
L120.698 321.246
L120.897 318.087
L126.669 318.087
L127.067 313.865
L132.838 313.865
L133.037 312.804
L133.236 309.644
L139.008 309.644
L139.207 308.583
L139.406 305.423
L145.177 305.423
L145.376 305.176
L145.575 301.202
L151.347 301.202
L151.546 300.165
L151.745 296.98
L157.517 296.98
L157.716 296.413
L157.915 292.759
L163.686 292.759
L163.885 292.463
L164.084 288.538
L169.856 288.538
L170.055 287.822
L170.254 284.317
L176.025 284.317
L176.224 283.576
L176.423 280.095
L182.195 280.095
L182.394 279.478
L182.593 275.874
L188.365 275.874
L188.564 275.183
L188.763 271.653
L194.534 271.653
L194.733 271.184
L194.932 267.432
L200.704 267.432
L200.903 266.716
L201.102 263.21
L206.873 263.21
L207.072 262.914
L207.271 258.989
L213.043 258.989
L213.242 258.693
L213.441 254.768
L219.213 254.768
L219.412 253.928
L219.611 250.547
L225.382 250.547
L225.581 249.683
L225.78 246.325
L231.552 246.325
L231.751 245.461
L231.95 242.104
L237.721 242.104
L237.92 241.487
L238.119 237.883
L243.891 237.883
L244.09 237.167
L244.289 233.662
L250.061 233.662
L250.26 233.143
L250.459 229.44
L256.23 229.44
L256.429 228.798
L256.628 225.219
L262.4 225.219
L262.599 224.923
L262.798 220.998
L268.569 220.998
L268.768 220.726
L268.967 216.776
L274.739 216.776
L274.938 216.431
L275.137 212.555
L280.909 212.555
L281.108 212.185
L281.307 208.334
L287.078 208.334
L287.277 207.593
L287.476 204.113
L293.248 204.113
L293.447 203.816
L293.646 199.891
L299.417 199.891
L299.616 199.719
L299.815 195.67
L305.587 195.67
L305.786 195.078
L305.985 191.474
L306.98 191.449
L311.756 191.449
L311.955 191.054
L312.155 187.228
L317.926 187.228
L318.125 186.734
L318.324 183.006
L324.096 183.006
L324.295 182.513
L324.494 178.785
L330.265 178.785
L330.464 178.119
L330.663 174.589
L331.658 174.564
L336.435 174.564
L336.634 173.873
L336.833 170.367
L337.828 170.343
L342.604 170.343
L342.803 170.195
L343.002 166.121
L348.774 166.121
L348.973 165.183
L349.172 161.9
L354.944 161.9
L355.143 161.579
L355.342 157.679
L361.113 157.679
L361.312 157.383
L361.511 153.458
L367.283 153.458
L367.482 153.161
L367.681 149.236
L373.452 149.236
L373.651 148.94
L373.85 145.015
L379.622 145.015
L379.821 144.719
L380.02 140.794
L385.792 140.794
L385.991 140.498
L386.19 136.573
L391.961 136.573
L392.16 136.276
L392.359 132.351
L398.131 132.351
L398.33 131.907
L398.529 128.155
L399.524 128.13
L404.3 128.13
L404.499 127.76
L404.698 123.909
L410.47 123.909
L410.669 123.613
L410.868 119.688
L416.64 119.688
L416.839 119.465
L417.038 115.466
L422.809 115.466
L423.008 115.294
L423.207 111.245
L428.979 111.245
L429.178 110.825
L429.377 107.024
L435.148 107.024
L435.347 106.777
L435.546 102.803
L441.318 102.803
L441.517 102.235
L441.716 98.5813
L447.488 98.5813
L447.687 98.211
L447.886 94.3847
L448.881 94.36
L453.657 94.36
L453.856 93.6935
L454.055 90.1388
L459.827 90.1388
L460.026 89.6697
L460.225 85.9422
L461.22 85.9175
L465.996 85.9175
L466.195 84.856
L466.394 81.7209
L467.389 81.6963
L472.166 81.6963
L472.365 81.4247
L472.564 77.475
L478.336 77.475
L478.535 77.3022
L478.734 73.2537
L484.505 73.2537
L484.704 72.9575
L484.903 69.0325
L490.675 69.0325
L490.874 68.366
L491.073 64.8112
L493.66 64.8112
L493.66 64.8112" style="fill:none;stroke:#bfbf00;stroke-linecap:square;"/>
   </g>
   <g id="line2d_7">
    <path clip-path="url(#p7a17b32626)" d="
M47.26 368.742
L52.6335 368.742
L52.8325 364.545
L53.8276 364.52
L58.8031 364.52
L59.0021 364.224
L59.2012 360.299
L64.9727 360.299
L65.1717 360.003
L65.3707 356.078
L71.1423 356.078
L71.3413 355.782
L71.5403 351.857
L77.3119 351.857
L77.5109 351.56
L77.7099 347.635
L83.4815 347.635
L83.6805 347.339
L83.8795 343.414
L89.6511 343.414
L89.8501 341.958
L90.0491 339.193
L95.8207 339.193
L96.0197 338.082
L96.2187 334.972
L101.99 334.972
L102.189 334.478
L102.388 330.75
L108.16 330.75
L108.359 330.454
L108.558 326.529
L114.329 326.529
L114.528 325.64
L114.727 322.308
L120.499 322.308
L120.698 321.888
L120.897 318.087
L126.669 318.087
L126.868 316.581
L127.067 313.865
L132.838 313.865
L133.037 313.421
L133.236 309.644
L139.008 309.644
L139.207 309.175
L139.406 305.423
L145.177 305.423
L145.376 305.127
L145.575 301.202
L151.347 301.202
L151.546 300.733
L151.745 296.98
L157.517 296.98
L157.716 296.536
L157.915 292.759
L163.686 292.759
L163.885 292.463
L164.084 288.538
L169.856 288.538
L170.055 287.995
L170.254 284.317
L176.025 284.317
L176.224 283.946
L176.423 280.095
L182.195 280.095
L182.394 279.7
L182.593 275.874
L188.365 275.874
L188.564 275.553
L188.763 271.653
L194.534 271.653
L194.733 271.357
L194.932 267.432
L200.704 267.432
L200.903 267.135
L201.102 263.21
L206.873 263.21
L207.072 262.914
L207.271 258.989
L213.043 258.989
L213.242 258.693
L213.441 254.768
L219.213 254.768
L219.412 254.299
L219.611 250.571
L220.606 250.547
L225.382 250.547
L225.581 250.201
L225.78 246.325
L231.552 246.325
L231.751 245.856
L231.95 242.129
L232.945 242.104
L237.721 242.104
L237.92 241.413
L238.119 237.883
L243.891 237.883
L244.09 237.216
L244.289 233.662
L250.061 233.662
L250.26 233.242
L250.459 229.44
L256.23 229.44
L256.429 229.144
L256.628 225.219
L262.4 225.219
L262.599 224.923
L262.798 220.998
L268.569 220.998
L268.768 220.776
L268.967 216.776
L274.739 216.776
L274.938 216.53
L275.137 212.555
L280.909 212.555
L281.108 212.234
L281.307 208.334
L287.078 208.334
L287.277 208.013
L287.476 204.113
L293.248 204.113
L293.447 203.816
L293.646 199.891
L299.417 199.891
L299.616 199.546
L299.815 195.67
L305.587 195.67
L305.786 195.325
L305.985 191.449
L311.756 191.449
L311.955 191.153
L312.155 187.228
L317.926 187.228
L318.125 186.783
L318.324 183.006
L324.096 183.006
L324.295 182.611
L324.494 178.785
L330.265 178.785
L330.464 178.39
L330.663 174.564
L336.435 174.564
L336.634 174.218
L336.833 170.343
L342.604 170.343
L342.803 170.022
L343.002 166.121
L348.774 166.121
L348.973 165.48
L349.172 161.9
L354.944 161.9
L355.143 161.579
L355.342 157.679
L361.113 157.679
L361.312 157.383
L361.511 153.458
L367.283 153.458
L367.482 153.161
L367.681 149.236
L373.452 149.236
L373.651 148.94
L373.85 145.015
L379.622 145.015
L379.821 144.719
L380.02 140.794
L385.792 140.794
L385.991 140.498
L386.19 136.573
L391.961 136.573
L392.16 136.276
L392.359 132.351
L398.131 132.351
L398.33 132.03
L398.529 128.13
L404.3 128.13
L404.499 127.834
L404.698 123.909
L410.47 123.909
L410.669 123.613
L410.868 119.688
L416.64 119.688
L416.839 119.391
L417.038 115.466
L422.809 115.466
L423.008 115.17
L423.207 111.245
L428.979 111.245
L429.178 110.949
L429.377 107.024
L435.148 107.024
L435.347 106.703
L435.546 102.803
L441.318 102.803
L441.517 102.358
L441.716 98.5813
L447.488 98.5813
L447.687 98.1863
L447.886 94.36
L453.657 94.36
L453.856 94.0885
L454.055 90.1388
L459.827 90.1388
L460.026 89.8919
L460.225 85.9175
L465.996 85.9175
L466.195 85.5719
L466.394 81.6963
L472.166 81.6963
L472.365 81.326
L472.564 77.475
L478.336 77.475
L478.535 77.1788
L478.734 73.2537
L484.505 73.2537
L484.704 72.9575
L484.903 69.0325
L490.675 69.0325
L490.874 68.6128
L491.073 64.8112
L493.66 64.8112
L493.66 64.8112" style="fill:none;stroke:#000000;stroke-linecap:square;"/>
   </g>
   <g id="line2d_8">
    <path clip-path="url(#p7a17b32626)" d="
M47.26 368.742
L52.6335 368.742
L52.8325 364.545
L53.8276 364.52
L58.8031 364.52
L59.0021 364.224
L59.2012 360.299
L64.9727 360.299
L65.1717 360.003
L65.3707 356.078
L71.1423 356.078
L71.3413 355.757
L71.5403 351.857
L77.3119 351.857
L77.5109 351.56
L77.7099 347.635
L83.4815 347.635
L83.6805 347.339
L83.8795 343.414
L89.6511 343.414
L89.8501 343.019
L90.0491 339.193
L95.8207 339.193
L96.0197 338.847
L96.2187 334.972
L101.99 334.972
L102.189 334.675
L102.388 330.75
L108.16 330.75
L108.359 330.454
L108.558 326.529
L114.329 326.529
L114.528 326.233
L114.727 322.308
L120.499 322.308
L120.698 322.012
L120.897 318.087
L126.669 318.087
L126.868 316.803
L127.067 313.865
L132.838 313.865
L133.037 313.569
L133.236 309.644
L139.008 309.644
L139.207 309.348
L139.406 305.423
L145.177 305.423
L145.376 305.127
L145.575 301.202
L151.347 301.202
L151.546 300.881
L151.745 296.98
L157.517 296.98
L157.716 296.684
L157.915 292.759
L163.686 292.759
L163.885 292.463
L164.084 288.538
L169.856 288.538
L170.055 288.242
L170.254 284.317
L176.025 284.317
L176.224 284.02
L176.423 280.095
L182.195 280.095
L182.394 279.799
L182.593 275.874
L188.365 275.874
L188.564 275.578
L188.763 271.653
L194.534 271.653
L194.733 271.357
L194.932 267.432
L200.704 267.432
L200.903 267.135
L201.102 263.21
L206.873 263.21
L207.072 262.914
L207.271 258.989
L213.043 258.989
L213.242 258.693
L213.441 254.768
L219.213 254.768
L219.412 254.472
L219.611 250.547
L225.382 250.547
L225.581 250.152
L225.78 246.325
L231.552 246.325
L231.751 245.955
L231.95 242.104
L237.721 242.104
L237.92 241.882
L238.119 237.883
L243.891 237.883
L244.09 237.537
L244.289 233.662
L250.061 233.662
L250.26 233.341
L250.459 229.44
L256.23 229.44
L256.429 229.144
L256.628 225.219
L262.4 225.219
L262.599 224.923
L262.798 220.998
L268.569 220.998
L268.768 220.702
L268.967 216.776
L274.739 216.776
L274.938 216.48
L275.137 212.555
L280.909 212.555
L281.108 212.259
L281.307 208.334
L287.078 208.334
L287.277 208.038
L287.476 204.113
L293.248 204.113
L293.447 203.816
L293.646 199.891
L299.417 199.891
L299.616 199.595
L299.815 195.67
L305.587 195.67
L305.786 195.374
L305.985 191.449
L311.756 191.449
L311.955 191.153
L312.155 187.228
L317.926 187.228
L318.125 186.931
L318.324 183.006
L324.096 183.006
L324.295 182.686
L324.494 178.785
L330.265 178.785
L330.464 178.489
L330.663 174.564
L336.435 174.564
L336.634 174.243
L336.833 170.343
L342.604 170.343
L342.803 170.022
L343.002 166.121
L348.774 166.121
L348.973 165.751
L349.172 161.9
L354.944 161.9
L355.143 161.604
L355.342 157.679
L361.113 157.679
L361.312 157.383
L361.511 153.458
L367.283 153.458
L367.482 153.161
L367.681 149.236
L373.452 149.236
L373.651 148.94
L373.85 145.015
L379.622 145.015
L379.821 144.719
L380.02 140.794
L385.792 140.794
L385.991 140.498
L386.19 136.573
L391.961 136.573
L392.16 136.276
L392.359 132.351
L398.131 132.351
L398.33 132.055
L398.529 128.13
L404.3 128.13
L404.499 127.834
L404.698 123.909
L410.47 123.909
L410.669 123.613
L410.868 119.688
L416.64 119.688
L416.839 119.391
L417.038 115.466
L422.809 115.466
L423.008 115.17
L423.207 111.245
L428.979 111.245
L429.178 110.949
L429.377 107.024
L435.148 107.024
L435.347 106.728
L435.546 102.803
L441.318 102.803
L441.517 102.506
L441.716 98.5813
L447.488 98.5813
L447.687 98.2851
L447.886 94.36
L453.657 94.36
L453.856 94.0638
L454.055 90.1388
L459.827 90.1388
L460.026 89.8425
L460.225 85.9175
L465.996 85.9175
L466.195 85.6213
L466.394 81.6963
L472.166 81.6963
L472.365 81.4
L472.564 77.475
L478.336 77.475
L478.535 77.1788
L478.734 73.2537
L484.505 73.2537
L484.704 72.9575
L484.903 69.0325
L490.675 69.0325
L490.874 68.7363
L491.073 64.8112
L493.66 64.8112
L493.66 64.8112" style="fill:none;stroke:#0000ff;stroke-linecap:square;"/>
   </g>
   <g id="line2d_9">
    <path clip-path="url(#p7a17b32626)" d="
M47.26 368.742
L52.6335 368.742
L52.8325 364.545
L53.8276 364.52
L58.8031 364.52
L59.0021 364.224
L59.2012 360.299
L64.9727 360.299
L65.1717 360.003
L65.3707 356.078
L71.1423 356.078
L71.3413 355.782
L71.5403 351.857
L77.3119 351.857
L77.5109 351.56
L77.7099 347.635
L83.4815 347.635
L83.6805 347.339
L83.8795 343.414
L89.6511 343.414
L89.8501 343.118
L90.0491 339.193
L95.8207 339.193
L96.0197 338.897
L96.2187 334.972
L101.99 334.972
L102.189 334.675
L102.388 330.75
L108.16 330.75
L108.359 330.454
L108.558 326.529
L114.329 326.529
L114.528 326.233
L114.727 322.308
L120.499 322.308
L120.698 322.012
L120.897 318.087
L126.669 318.087
L126.868 316.828
L127.067 313.865
L132.838 313.865
L133.037 313.569
L133.236 309.644
L139.008 309.644
L139.207 309.348
L139.406 305.423
L145.177 305.423
L145.376 305.127
L145.575 301.202
L151.347 301.202
L151.546 300.905
L151.745 296.98
L157.517 296.98
L157.716 296.684
L157.915 292.759
L163.686 292.759
L163.885 292.463
L164.084 288.538
L169.856 288.538
L170.055 288.242
L170.254 284.317
L176.025 284.317
L176.224 284.02
L176.423 280.095
L182.195 280.095
L182.394 279.799
L182.593 275.874
L188.365 275.874
L188.564 275.578
L188.763 271.653
L194.534 271.653
L194.733 271.357
L194.932 267.432
L200.704 267.432
L200.903 267.135
L201.102 263.21
L206.873 263.21
L207.072 262.914
L207.271 258.989
L213.043 258.989
L213.242 258.693
L213.441 254.768
L219.213 254.768
L219.412 254.472
L219.611 250.547
L225.382 250.547
L225.581 250.25
L225.78 246.325
L231.552 246.325
L231.751 246.029
L231.95 242.104
L237.721 242.104
L237.92 241.808
L238.119 237.883
L243.891 237.883
L244.09 237.587
L244.289 233.662
L250.061 233.662
L250.26 233.365
L250.459 229.44
L256.23 229.44
L256.429 229.144
L256.628 225.219
L262.4 225.219
L262.599 224.923
L262.798 220.998
L268.569 220.998
L268.768 220.702
L268.967 216.776
L274.739 216.776
L274.938 216.48
L275.137 212.555
L280.909 212.555
L281.108 212.259
L281.307 208.334
L287.078 208.334
L287.277 208.038
L287.476 204.113
L293.248 204.113
L293.447 203.816
L293.646 199.891
L299.417 199.891
L299.616 199.595
L299.815 195.67
L305.587 195.67
L305.786 195.374
L305.985 191.449
L311.756 191.449
L311.955 191.153
L312.155 187.228
L317.926 187.228
L318.125 186.931
L318.324 183.006
L324.096 183.006
L324.295 182.71
L324.494 178.785
L330.265 178.785
L330.464 178.489
L330.663 174.564
L336.435 174.564
L336.634 174.268
L336.833 170.343
L342.604 170.343
L342.803 170.046
L343.002 166.121
L348.774 166.121
L348.973 165.8
L349.172 161.9
L354.944 161.9
L355.143 161.604
L355.342 157.679
L361.113 157.679
L361.312 157.383
L361.511 153.458
L367.283 153.458
L367.482 153.161
L367.681 149.236
L373.452 149.236
L373.651 148.94
L373.85 145.015
L379.622 145.015
L379.821 144.719
L380.02 140.794
L385.792 140.794
L385.991 140.498
L386.19 136.573
L391.961 136.573
L392.16 136.276
L392.359 132.351
L398.131 132.351
L398.33 132.055
L398.529 128.13
L404.3 128.13
L404.499 127.834
L404.698 123.909
L410.47 123.909
L410.669 123.613
L410.868 119.688
L416.64 119.688
L416.839 119.391
L417.038 115.466
L422.809 115.466
L423.008 115.17
L423.207 111.245
L428.979 111.245
L429.178 110.949
L429.377 107.024
L435.148 107.024
L435.347 106.728
L435.546 102.803
L441.318 102.803
L441.517 102.506
L441.716 98.5813
L447.488 98.5813
L447.687 98.2851
L447.886 94.36
L453.657 94.36
L453.856 94.0638
L454.055 90.1388
L459.827 90.1388
L460.026 89.8425
L460.225 85.9175
L465.996 85.9175
L466.195 85.6213
L466.394 81.6963
L472.166 81.6963
L472.365 81.4
L472.564 77.475
L478.336 77.475
L478.535 77.1788
L478.734 73.2537
L484.505 73.2537
L484.704 72.9575
L484.903 69.0325
L490.675 69.0325
L490.874 68.7363
L491.073 64.8112
L493.66 64.8112
L493.66 64.8112" style="fill:none;stroke:#008000;stroke-linecap:square;"/>
   </g>
   <g id="line2d_10">
    <path clip-path="url(#p7a17b32626)" d="
M47.26 368.742
L52.6335 368.742
L52.8325 364.545
L53.8276 364.52
L58.8031 364.52
L59.0021 364.224
L59.2012 360.299
L64.9727 360.299
L65.1717 360.003
L65.3707 356.078
L71.1423 356.078
L71.3413 355.782
L71.5403 351.857
L77.3119 351.857
L77.5109 351.56
L77.7099 347.635
L83.4815 347.635
L83.6805 347.339
L83.8795 343.414
L89.6511 343.414
L89.8501 342.945
L90.0491 339.193
L95.8207 339.193
L96.0197 338.897
L96.2187 334.972
L101.99 334.972
L102.189 334.675
L102.388 330.75
L108.16 330.75
L108.359 330.454
L108.558 326.529
L114.329 326.529
L114.528 326.233
L114.727 322.308
L120.499 322.308
L120.698 322.012
L120.897 318.087
L126.669 318.087
L126.868 316.828
L127.067 313.865
L132.838 313.865
L133.037 313.569
L133.236 309.644
L139.008 309.644
L139.207 309.348
L139.406 305.423
L145.177 305.423
L145.376 305.127
L145.575 301.202
L151.347 301.202
L151.546 300.905
L151.745 296.98
L157.517 296.98
L157.716 296.684
L157.915 292.759
L163.686 292.759
L163.885 292.463
L164.084 288.538
L169.856 288.538
L170.055 288.242
L170.254 284.317
L176.025 284.317
L176.224 284.02
L176.423 280.095
L182.195 280.095
L182.394 279.799
L182.593 275.874
L188.365 275.874
L188.564 275.578
L188.763 271.653
L194.534 271.653
L194.733 271.357
L194.932 267.432
L200.704 267.432
L200.903 267.135
L201.102 263.21
L206.873 263.21
L207.072 262.914
L207.271 258.989
L213.043 258.989
L213.242 258.693
L213.441 254.768
L219.213 254.768
L219.412 254.472
L219.611 250.547
L225.382 250.547
L225.581 250.25
L225.78 246.325
L231.552 246.325
L231.751 246.029
L231.95 242.104
L237.721 242.104
L237.92 241.808
L238.119 237.883
L243.891 237.883
L244.09 237.587
L244.289 233.662
L250.061 233.662
L250.26 233.365
L250.459 229.44
L256.23 229.44
L256.429 229.144
L256.628 225.219
L262.4 225.219
L262.599 224.923
L262.798 220.998
L268.569 220.998
L268.768 220.702
L268.967 216.776
L274.739 216.776
L274.938 216.48
L275.137 212.555
L280.909 212.555
L281.108 212.259
L281.307 208.334
L287.078 208.334
L287.277 208.038
L287.476 204.113
L293.248 204.113
L293.447 203.816
L293.646 199.891
L299.417 199.891
L299.616 199.595
L299.815 195.67
L305.587 195.67
L305.786 195.374
L305.985 191.449
L311.756 191.449
L311.955 191.153
L312.155 187.228
L317.926 187.228
L318.125 186.931
L318.324 183.006
L324.096 183.006
L324.295 182.71
L324.494 178.785
L330.265 178.785
L330.464 178.489
L330.663 174.564
L336.435 174.564
L336.634 174.268
L336.833 170.343
L342.604 170.343
L342.803 170.046
L343.002 166.121
L348.774 166.121
L348.973 165.8
L349.172 161.9
L354.944 161.9
L355.143 161.604
L355.342 157.679
L361.113 157.679
L361.312 157.383
L361.511 153.458
L367.283 153.458
L367.482 153.161
L367.681 149.236
L373.452 149.236
L373.651 148.94
L373.85 145.015
L379.622 145.015
L379.821 144.719
L380.02 140.794
L385.792 140.794
L385.991 140.498
L386.19 136.573
L391.961 136.573
L392.16 136.276
L392.359 132.351
L398.131 132.351
L398.33 132.055
L398.529 128.13
L404.3 128.13
L404.499 127.834
L404.698 123.909
L410.47 123.909
L410.669 123.613
L410.868 119.688
L416.64 119.688
L416.839 119.391
L417.038 115.466
L422.809 115.466
L423.008 115.17
L423.207 111.245
L428.979 111.245
L429.178 110.949
L429.377 107.024
L435.148 107.024
L435.347 106.728
L435.546 102.803
L441.318 102.803
L441.517 102.506
L441.716 98.5813
L447.488 98.5813
L447.687 98.2851
L447.886 94.36
L453.657 94.36
L453.856 94.0638
L454.055 90.1388
L459.827 90.1388
L460.026 89.8425
L460.225 85.9175
L465.996 85.9175
L466.195 85.6213
L466.394 81.6963
L472.166 81.6963
L472.365 81.4
L472.564 77.475
L478.336 77.475
L478.535 77.1788
L478.734 73.2537
L484.505 73.2537
L484.704 72.9575
L484.903 69.0325
L490.675 69.0325
L490.874 68.7363
L491.073 64.8112
L493.66 64.8112
L493.66 64.8112" style="fill:none;stroke:#ff0000;stroke-linecap:square;"/>
   </g>
   <g id="line2d_11">
    <path clip-path="url(#p7a17b32626)" d="
M47.26 368.742
L52.6335 368.742
L52.8325 364.792
L53.0316 364.52
L58.8031 364.52
L59.0021 364.224
L59.2012 360.299
L64.9727 360.299
L65.1717 360.003
L65.3707 356.078
L71.1423 356.078
L71.3413 355.782
L71.5403 351.857
L77.3119 351.857
L77.5109 351.56
L77.7099 347.635
L83.4815 347.635
L83.6805 347.339
L83.8795 343.414
L89.6511 343.414
L89.8501 343.118
L90.0491 339.193
L95.8207 339.193
L96.0197 338.897
L96.2187 334.972
L101.99 334.972
L102.189 334.675
L102.388 330.75
L108.16 330.75
L108.359 330.454
L108.558 326.529
L114.329 326.529
L114.528 326.233
L114.727 322.308
L120.499 322.308
L120.698 322.012
L120.897 318.087
L126.669 318.087
L126.868 316.828
L127.067 313.865
L132.838 313.865
L133.037 313.569
L133.236 309.644
L139.008 309.644
L139.207 309.348
L139.406 305.423
L145.177 305.423
L145.376 305.127
L145.575 301.202
L151.347 301.202
L151.546 300.905
L151.745 296.98
L157.517 296.98
L157.716 296.684
L157.915 292.759
L163.686 292.759
L163.885 292.463
L164.084 288.538
L169.856 288.538
L170.055 288.242
L170.254 284.317
L176.025 284.317
L176.224 284.02
L176.423 280.095
L182.195 280.095
L182.394 279.799
L182.593 275.874
L188.365 275.874
L188.564 275.578
L188.763 271.653
L194.534 271.653
L194.733 271.357
L194.932 267.432
L200.704 267.432
L200.903 267.135
L201.102 263.21
L206.873 263.21
L207.072 262.914
L207.271 258.989
L213.043 258.989
L213.242 258.693
L213.441 254.768
L219.213 254.768
L219.412 254.472
L219.611 250.547
L225.382 250.547
L225.581 250.25
L225.78 246.325
L231.552 246.325
L231.751 246.029
L231.95 242.104
L237.721 242.104
L237.92 241.808
L238.119 237.883
L243.891 237.883
L244.09 237.587
L244.289 233.662
L250.061 233.662
L250.26 233.365
L250.459 229.44
L256.23 229.44
L256.429 229.144
L256.628 225.219
L262.4 225.219
L262.599 224.923
L262.798 220.998
L268.569 220.998
L268.768 220.702
L268.967 216.776
L274.739 216.776
L274.938 216.48
L275.137 212.555
L280.909 212.555
L281.108 212.259
L281.307 208.334
L287.078 208.334
L287.277 208.038
L287.476 204.113
L293.248 204.113
L293.447 203.816
L293.646 199.891
L299.417 199.891
L299.616 199.595
L299.815 195.67
L305.587 195.67
L305.786 195.374
L305.985 191.449
L311.756 191.449
L311.955 191.153
L312.155 187.228
L317.926 187.228
L318.125 186.931
L318.324 183.006
L324.096 183.006
L324.295 182.71
L324.494 178.785
L330.265 178.785
L330.464 178.489
L330.663 174.564
L336.435 174.564
L336.634 174.268
L336.833 170.343
L342.604 170.343
L342.803 170.046
L343.002 166.121
L348.774 166.121
L348.973 165.8
L349.172 161.9
L354.944 161.9
L355.143 161.604
L355.342 157.679
L361.113 157.679
L361.312 157.383
L361.511 153.458
L367.283 153.458
L367.482 153.161
L367.681 149.236
L373.452 149.236
L373.651 148.94
L373.85 145.015
L379.622 145.015
L379.821 144.719
L380.02 140.794
L385.792 140.794
L385.991 140.498
L386.19 136.573
L391.961 136.573
L392.16 136.276
L392.359 132.351
L398.131 132.351
L398.33 132.055
L398.529 128.13
L404.3 128.13
L404.499 127.834
L404.698 123.909
L410.47 123.909
L410.669 123.613
L410.868 119.688
L416.64 119.688
L416.839 119.391
L417.038 115.466
L422.809 115.466
L423.008 115.17
L423.207 111.245
L428.979 111.245
L429.178 110.949
L429.377 107.024
L435.148 107.024
L435.347 106.728
L435.546 102.803
L441.318 102.803
L441.517 102.506
L441.716 98.5813
L447.488 98.5813
L447.687 98.2851
L447.886 94.36
L453.657 94.36
L453.856 94.0638
L454.055 90.1388
L459.827 90.1388
L460.026 89.8425
L460.225 85.9175
L465.996 85.9175
L466.195 85.6213
L466.394 81.6963
L472.166 81.6963
L472.365 81.4
L472.564 77.475
L478.336 77.475
L478.535 77.1788
L478.734 73.2537
L484.505 73.2537
L484.704 72.9575
L484.903 69.0325
L490.675 69.0325
L490.874 68.7363
L491.073 64.8112
L493.66 64.8112
L493.66 64.8112" style="fill:none;stroke:#00bfbf;stroke-linecap:square;"/>
   </g>
   <g id="line2d_12">
    <path clip-path="url(#p7a17b32626)" d="
M47.26 368.742
L52.6335 368.742
L52.8325 364.545
L53.8276 364.52
L58.8031 364.52
L59.0021 364.224
L59.2012 360.299
L64.9727 360.299
L65.1717 360.003
L65.3707 356.078
L71.1423 356.078
L71.3413 355.782
L71.5403 351.857
L77.3119 351.857
L77.5109 351.56
L77.7099 347.635
L83.4815 347.635
L83.6805 347.339
L83.8795 343.414
L89.6511 343.414
L89.8501 342.649
L90.0491 339.193
L95.8207 339.193
L96.0197 338.847
L96.2187 334.972
L101.99 334.972
L102.189 334.675
L102.388 330.75
L108.16 330.75
L108.359 330.454
L108.558 326.529
L114.329 326.529
L114.528 325.961
L114.727 322.308
L120.499 322.308
L120.698 322.012
L120.897 318.087
L126.669 318.087
L126.868 316.704
L127.067 313.865
L132.838 313.865
L133.037 313.569
L133.236 309.644
L139.008 309.644
L139.207 309.348
L139.406 305.423
L145.177 305.423
L145.376 305.127
L145.575 301.202
L151.347 301.202
L151.546 300.905
L151.745 296.98
L157.517 296.98
L157.716 296.684
L157.915 292.759
L163.686 292.759
L163.885 292.463
L164.084 288.538
L169.856 288.538
L170.055 288.242
L170.254 284.317
L176.025 284.317
L176.224 284.02
L176.423 280.095
L182.195 280.095
L182.394 279.799
L182.593 275.874
L188.365 275.874
L188.564 275.578
L188.763 271.653
L194.534 271.653
L194.733 271.357
L194.932 267.432
L200.704 267.432
L200.903 267.135
L201.102 263.21
L206.873 263.21
L207.072 262.914
L207.271 258.989
L213.043 258.989
L213.242 258.693
L213.441 254.768
L219.213 254.768
L219.412 254.472
L219.611 250.547
L225.382 250.547
L225.581 250.25
L225.78 246.325
L231.552 246.325
L231.751 246.029
L231.95 242.104
L237.721 242.104
L237.92 241.808
L238.119 237.883
L243.891 237.883
L244.09 237.587
L244.289 233.662
L250.061 233.662
L250.26 233.365
L250.459 229.44
L256.23 229.44
L256.429 229.144
L256.628 225.219
L262.4 225.219
L262.599 224.923
L262.798 220.998
L268.569 220.998
L268.768 220.702
L268.967 216.776
L274.739 216.776
L274.938 216.48
L275.137 212.555
L280.909 212.555
L281.108 212.259
L281.307 208.334
L287.078 208.334
L287.277 208.038
L287.476 204.113
L293.248 204.113
L293.447 203.816
L293.646 199.891
L299.417 199.891
L299.616 199.595
L299.815 195.67
L305.587 195.67
L305.786 195.374
L305.985 191.449
L311.756 191.449
L311.955 191.153
L312.155 187.228
L317.926 187.228
L318.125 186.931
L318.324 183.006
L324.096 183.006
L324.295 182.71
L324.494 178.785
L330.265 178.785
L330.464 178.489
L330.663 174.564
L336.435 174.564
L336.634 174.268
L336.833 170.343
L342.604 170.343
L342.803 170.046
L343.002 166.121
L348.774 166.121
L348.973 165.825
L349.172 161.9
L354.944 161.9
L355.143 161.604
L355.342 157.679
L361.113 157.679
L361.312 157.383
L361.511 153.458
L367.283 153.458
L367.482 153.161
L367.681 149.236
L373.452 149.236
L373.651 148.94
L373.85 145.015
L379.622 145.015
L379.821 144.719
L380.02 140.794
L385.792 140.794
L385.991 140.498
L386.19 136.573
L391.961 136.573
L392.16 136.276
L392.359 132.351
L398.131 132.351
L398.33 132.055
L398.529 128.13
L404.3 128.13
L404.499 127.834
L404.698 123.909
L410.47 123.909
L410.669 123.613
L410.868 119.688
L416.64 119.688
L416.839 119.391
L417.038 115.466
L422.809 115.466
L423.008 115.17
L423.207 111.245
L428.979 111.245
L429.178 110.949
L429.377 107.024
L435.148 107.024
L435.347 106.728
L435.546 102.803
L441.318 102.803
L441.517 102.506
L441.716 98.5813
L447.488 98.5813
L447.687 98.2851
L447.886 94.36
L453.657 94.36
L453.856 94.0638
L454.055 90.1388
L459.827 90.1388
L460.026 89.8425
L460.225 85.9175
L465.996 85.9175
L466.195 85.6213
L466.394 81.6963
L472.166 81.6963
L472.365 81.4
L472.564 77.475
L478.336 77.475
L478.535 77.1788
L478.734 73.2537
L484.505 73.2537
L484.704 72.9575
L484.903 69.0325
L490.675 69.0325
L490.874 68.7363
L491.073 64.8112
L493.66 64.8112
L493.66 64.8112" style="fill:none;stroke:#bf00bf;stroke-linecap:square;"/>
   </g>
   <g id="line2d_13">
    <path clip-path="url(#p7a17b32626)" d="
M47.26 368.742
L52.6335 368.742
L52.8325 364.545
L53.8276 364.52
L58.8031 364.52
L59.0021 364.224
L59.2012 360.299
L64.9727 360.299
L65.1717 360.003
L65.3707 356.078
L71.1423 356.078
L71.3413 355.782
L71.5403 351.857
L77.3119 351.857
L77.5109 351.56
L77.7099 347.635
L83.4815 347.635
L83.6805 347.339
L83.8795 343.414
L89.6511 343.414
L89.8501 342.353
L90.0491 339.193
L95.8207 339.193
L96.0197 338.798
L96.2187 334.972
L101.99 334.972
L102.189 334.675
L102.388 330.75
L108.16 330.75
L108.359 330.454
L108.558 326.529
L114.329 326.529
L114.528 325.739
L114.727 322.308
L120.499 322.308
L120.698 321.888
L120.897 318.087
L126.669 318.087
L126.868 316.63
L127.067 313.865
L132.838 313.865
L133.037 313.569
L133.236 309.644
L139.008 309.644
L139.207 309.348
L139.406 305.423
L145.177 305.423
L145.376 305.127
L145.575 301.202
L151.347 301.202
L151.546 300.807
L151.745 296.98
L157.517 296.98
L157.716 296.684
L157.915 292.759
L163.686 292.759
L163.885 292.463
L164.084 288.538
L169.856 288.538
L170.055 288.217
L170.254 284.317
L176.025 284.317
L176.224 283.971
L176.423 280.095
L182.195 280.095
L182.394 279.774
L182.593 275.874
L188.365 275.874
L188.564 275.578
L188.763 271.653
L194.534 271.653
L194.733 271.357
L194.932 267.432
L200.704 267.432
L200.903 267.135
L201.102 263.21
L206.873 263.21
L207.072 262.914
L207.271 258.989
L213.043 258.989
L213.242 258.693
L213.441 254.768
L219.213 254.768
L219.412 254.472
L219.611 250.547
L225.382 250.547
L225.581 250.226
L225.78 246.325
L231.552 246.325
L231.751 246.029
L231.95 242.104
L237.721 242.104
L237.92 241.808
L238.119 237.883
L243.891 237.883
L244.09 237.587
L244.289 233.662
L250.061 233.662
L250.26 233.365
L250.459 229.44
L256.23 229.44
L256.429 229.144
L256.628 225.219
L262.4 225.219
L262.599 224.923
L262.798 220.998
L268.569 220.998
L268.768 220.702
L268.967 216.776
L274.739 216.776
L274.938 216.48
L275.137 212.555
L280.909 212.555
L281.108 212.259
L281.307 208.334
L287.078 208.334
L287.277 208.038
L287.476 204.113
L293.248 204.113
L293.447 203.816
L293.646 199.891
L299.417 199.891
L299.616 199.595
L299.815 195.67
L305.587 195.67
L305.786 195.374
L305.985 191.449
L311.756 191.449
L311.955 191.153
L312.155 187.228
L317.926 187.228
L318.125 186.931
L318.324 183.006
L324.096 183.006
L324.295 182.71
L324.494 178.785
L330.265 178.785
L330.464 178.489
L330.663 174.564
L336.435 174.564
L336.634 174.268
L336.833 170.343
L342.604 170.343
L342.803 170.046
L343.002 166.121
L348.774 166.121
L348.973 165.8
L349.172 161.9
L354.944 161.9
L355.143 161.579
L355.342 157.679
L361.113 157.679
L361.312 157.383
L361.511 153.458
L367.283 153.458
L367.482 153.161
L367.681 149.236
L373.452 149.236
L373.651 148.94
L373.85 145.015
L379.622 145.015
L379.821 144.719
L380.02 140.794
L385.792 140.794
L385.991 140.498
L386.19 136.573
L391.961 136.573
L392.16 136.276
L392.359 132.351
L398.131 132.351
L398.33 132.055
L398.529 128.13
L404.3 128.13
L404.499 127.834
L404.698 123.909
L410.47 123.909
L410.669 123.613
L410.868 119.688
L416.64 119.688
L416.839 119.391
L417.038 115.466
L422.809 115.466
L423.008 115.17
L423.207 111.245
L428.979 111.245
L429.178 110.949
L429.377 107.024
L435.148 107.024
L435.347 106.728
L435.546 102.803
L441.318 102.803
L441.517 102.506
L441.716 98.5813
L447.488 98.5813
L447.687 98.2851
L447.886 94.36
L453.657 94.36
L453.856 94.0638
L454.055 90.1388
L459.827 90.1388
L460.026 89.8425
L460.225 85.9175
L465.996 85.9175
L466.195 85.6213
L466.394 81.6963
L472.166 81.6963
L472.365 81.4
L472.564 77.475
L478.336 77.475
L478.535 77.1788
L478.734 73.2537
L484.505 73.2537
L484.704 72.9575
L484.903 69.0325
L490.675 69.0325
L490.874 68.7363
L491.073 64.8112
L493.66 64.8112
L493.66 64.8112" style="fill:none;stroke:#bfbf00;stroke-linecap:square;"/>
   </g>
   <g id="line2d_14">
    <path clip-path="url(#p7a17b32626)" d="
M47.26 368.742
L52.6335 368.742
L52.8325 364.545
L58.8031 364.52
L59.0021 363.434
L59.2012 360.299
L64.9727 360.299
L65.1717 360.003
L65.3707 356.078
L71.1423 356.078
L71.3413 355.782
L71.5403 351.857
L77.3119 351.857
L77.5109 351.116
L77.7099 347.635
L83.4815 347.635
L83.6805 347.29
L83.8795 343.414
L89.6511 343.414
L89.8501 343.118
L90.0491 339.193
L95.8207 339.193
L96.2187 334.972
L101.99 334.972
L102.189 333.836
L102.388 330.75
L108.16 330.75
L108.359 330.232
L108.558 326.529
L114.329 326.529
L114.528 324.949
L114.727 322.308
L120.499 322.308
L120.698 321.469
L120.897 318.087
L126.669 318.087
L127.266 313.865
L132.838 313.865
L133.037 312.755
L133.236 309.644
L139.008 309.644
L139.207 308.879
L139.406 305.423
L145.177 305.423
L145.376 305.127
L145.575 301.202
L151.347 301.202
L151.546 300.436
L151.745 296.98
L157.517 296.98
L157.716 296.487
L157.915 292.759
L163.686 292.759
L163.885 292.463
L164.084 288.538
L169.856 288.538
L170.055 287.871
L170.254 284.317
L176.025 284.317
L176.224 283.848
L176.423 280.095
L182.195 280.095
L182.394 279.429
L182.593 275.874
L188.365 275.874
L188.564 275.356
L188.763 271.653
L194.534 271.653
L194.733 271.357
L194.932 267.432
L200.704 267.432
L200.903 266.79
L201.102 263.21
L206.873 263.21
L207.072 262.914
L207.271 258.989
L213.043 258.989
L213.242 258.693
L213.441 254.768
L219.213 254.768
L219.412 254.472
L219.611 250.547
L225.382 250.547
L225.581 249.929
L225.78 246.325
L231.552 246.325
L231.751 245.832
L231.95 242.104
L237.721 242.104
L237.92 241.684
L238.119 237.883
L243.891 237.883
L244.09 237.389
L244.289 233.662
L250.061 233.662
L250.26 233.217
L250.459 229.44
L256.23 229.44
L256.429 229.144
L256.628 225.219
L262.4 225.219
L262.599 224.923
L262.798 220.998
L268.569 220.998
L268.768 220.504
L268.967 216.776
L274.739 216.776
L274.938 216.357
L275.137 212.555
L280.909 212.555
L281.108 212.136
L281.307 208.334
L287.078 208.334
L287.277 207.865
L287.476 204.113
L293.248 204.113
L293.447 203.816
L293.646 199.891
L299.417 199.891
L299.616 199.2
L299.815 195.67
L305.587 195.67
L305.786 195.152
L305.985 191.449
L311.756 191.449
L311.955 191.202
L312.155 187.228
L317.926 187.228
L318.125 187.006
L318.324 183.006
L324.096 183.006
L324.295 182.71
L324.494 178.785
L330.265 178.785
L330.464 178.538
L330.663 174.564
L336.435 174.564
L336.634 174.268
L336.833 170.343
L342.604 170.343
L342.803 169.997
L343.002 166.121
L348.774 166.121
L348.973 165.8
L349.172 161.9
L354.944 161.9
L355.143 161.53
L355.342 157.679
L361.113 157.679
L361.312 157.383
L361.511 153.458
L367.283 153.458
L367.482 153.161
L367.681 149.236
L373.452 149.236
L373.651 148.94
L373.85 145.015
L379.622 145.015
L379.821 144.719
L380.02 140.794
L385.792 140.794
L385.991 140.498
L386.19 136.573
L391.961 136.573
L392.16 136.276
L392.359 132.351
L398.131 132.351
L398.33 132.03
L398.529 128.13
L404.3 128.13
L404.499 127.834
L404.698 123.909
L410.47 123.909
L410.669 123.613
L410.868 119.688
L416.64 119.688
L416.839 119.391
L417.038 115.466
L422.809 115.466
L423.008 115.071
L423.207 111.245
L428.979 111.245
L429.178 110.949
L429.377 107.024
L435.148 107.024
L435.347 106.604
L435.546 102.803
L441.318 102.803
L441.517 102.531
L441.716 98.5813
L447.488 98.5813
L447.687 98.2357
L447.886 94.36
L453.657 94.36
L453.856 94.0391
L454.055 90.1388
L459.827 90.1388
L460.026 89.8425
L460.225 85.9175
L465.996 85.9175
L466.195 85.6213
L466.394 81.6963
L472.166 81.6963
L472.365 81.4
L472.564 77.475
L478.336 77.475
L478.535 77.1788
L478.734 73.2537
L484.505 73.2537
L484.704 72.9575
L484.903 69.0325
L490.675 69.0325
L490.874 68.6375
L491.073 64.8112
L493.66 64.8112
L493.66 64.8112" style="fill:none;stroke:#000000;stroke-linecap:square;"/>
   </g>
   <g id="line2d_15">
    <path clip-path="url(#p7a17b32626)" d="
M47.26 368.742
L52.6335 368.742
L52.8325 364.545
L53.8276 364.52
L58.8031 364.52
L59.2012 360.299
L64.9727 360.299
L65.1717 359.336
L65.3707 356.078
L71.1423 356.078
L71.7394 351.857
L77.3119 351.857
L77.7099 347.635
L83.4815 347.635
L83.8795 343.414
L89.6511 343.414
L89.8501 340.279
L90.0491 339.193
L95.8207 339.193
L96.2187 334.972
L101.99 334.972
L102.388 330.75
L108.16 330.75
L108.757 326.529
L114.329 326.529
L114.727 322.308
L120.499 322.308
L120.897 318.087
L126.669 318.087
L127.067 313.865
L132.838 313.865
L133.435 309.644
L139.008 309.644
L139.605 305.423
L145.177 305.423
L145.376 304.312
L145.575 301.202
L151.347 301.202
L151.546 299.696
L151.745 296.98
L157.517 296.98
L157.716 295.672
L157.915 292.759
L163.686 292.759
L163.885 292.463
L164.084 288.538
L169.856 288.538
L170.055 287.674
L170.254 284.317
L176.025 284.317
L176.224 283.379
L176.423 280.095
L182.195 280.095
L182.394 279.133
L182.593 275.874
L188.365 275.874
L188.564 274.763
L188.763 271.653
L194.534 271.653
L194.733 270.888
L194.932 267.432
L200.704 267.432
L200.903 266.222
L201.102 263.21
L206.873 263.21
L207.072 262.914
L207.271 258.989
L213.043 258.989
L213.242 258.693
L213.441 254.768
L219.213 254.768
L219.412 253.706
L219.611 250.547
L225.382 250.547
L225.581 249.263
L225.78 246.325
L231.552 246.325
L231.751 245.313
L231.95 242.104
L237.721 242.104
L237.92 241.215
L238.119 237.883
L243.891 237.883
L244.09 237.043
L244.289 233.662
L250.061 233.662
L250.26 232.798
L250.459 229.44
L256.23 229.44
L256.429 228.7
L256.628 225.219
L262.4 225.219
L262.599 224.923
L262.798 220.998
L268.569 220.998
L268.768 220.084
L268.967 216.776
L274.739 216.776
L274.938 216.283
L275.137 212.555
L280.909 212.555
L281.108 211.79
L281.307 208.334
L287.078 208.334
L287.277 207.569
L287.476 204.113
L293.248 204.113
L293.447 203.644
L293.646 199.891
L299.417 199.891
L299.616 198.953
L299.815 195.695
L300.81 195.67
L305.587 195.67
L305.786 194.732
L305.985 191.449
L311.756 191.449
L311.955 189.968
L312.155 187.228
L317.926 187.228
L318.523 183.006
L324.096 183.006
L324.295 181.747
L324.494 178.785
L330.265 178.785
L330.464 177.748
L330.663 174.564
L336.435 174.564
L336.634 173.28
L336.833 170.343
L342.604 170.343
L342.803 169.405
L343.002 166.121
L348.774 166.121
L348.973 165.159
L349.172 161.9
L354.944 161.9
L355.143 161.406
L355.342 157.679
L361.113 157.679
L361.312 157.383
L361.511 153.458
L367.283 153.458
L367.482 153.161
L367.681 149.236
L373.452 149.236
L373.651 148.94
L373.85 145.015
L379.622 145.015
L379.821 144.645
L380.02 140.794
L385.792 140.794
L385.991 140.399
L386.19 136.573
L391.961 136.573
L392.16 136.276
L392.359 132.351
L398.131 132.351
L398.33 131.784
L398.529 128.155
L399.524 128.13
L404.3 128.13
L404.499 127.859
L404.698 123.934
L405.694 123.909
L410.47 123.909
L410.669 123.464
L410.868 119.688
L416.64 119.688
L416.839 119.367
L417.038 115.466
L422.809 115.466
L423.008 115.269
L423.207 111.27
L424.202 111.245
L428.979 111.245
L429.178 110.974
L429.377 107.024
L435.347 106.925
L435.546 102.827
L436.541 102.803
L441.318 102.803
L441.517 102.235
L441.716 98.5813
L447.488 98.5813
L447.687 98.3344
L447.886 94.3847
L448.881 94.36
L453.657 94.36
L453.856 93.496
L454.055 90.1388
L459.827 90.1388
L460.026 89.8672
L460.225 85.9175
L465.996 85.9175
L466.195 85.0041
L466.394 81.7209
L467.389 81.6963
L472.166 81.6963
L472.365 80.9804
L472.564 77.475
L478.336 77.475
L478.535 76.611
L478.734 73.2537
L484.505 73.2537
L484.704 72.76
L484.903 69.0325
L490.675 69.0325
L490.874 68.9091
L491.073 64.8112
L493.66 64.8112
L493.66 64.8112" style="fill:none;stroke:#0000ff;stroke-linecap:square;"/>
   </g>
   <g id="line2d_16">
    <path clip-path="url(#p7a17b32626)" d="
M47.26 368.742
L52.6335 368.742
L52.8325 364.545
L53.8276 364.52
L58.8031 364.52
L59.0021 363.36
L59.2012 360.299
L64.9727 360.299
L65.5698 356.078
L71.1423 356.078
L71.5403 351.857
L77.3119 351.857
L77.5109 350.672
L77.7099 347.635
L83.4815 347.635
L83.8795 343.414
L89.6511 343.414
L89.8501 340.131
L90.0491 339.193
L95.8207 339.193
L96.0197 335.786
L96.2187 334.972
L101.99 334.972
L102.388 330.75
L108.16 330.75
L108.558 326.529
L114.329 326.529
L114.727 322.308
L120.499 322.308
L120.698 320.926
L120.897 318.087
L126.669 318.087
L126.868 316.457
L127.067 313.865
L132.838 313.865
L133.236 309.644
L139.008 309.644
L139.406 305.423
L145.177 305.423
L145.376 304.016
L145.575 301.202
L151.347 301.202
L151.745 296.98
L157.517 296.98
L157.716 295.721
L157.915 292.759
L163.686 292.759
L163.885 292.019
L164.084 288.538
L169.856 288.538
L170.055 287.353
L170.254 284.317
L176.025 284.317
L176.224 283.082
L176.423 280.095
L182.195 280.095
L182.394 278.91
L182.593 275.874
L188.365 275.874
L188.564 274.788
L188.763 271.653
L194.534 271.653
L194.733 270.986
L194.932 267.432
L200.704 267.432
L200.903 266.419
L201.102 263.21
L206.873 263.21
L207.072 262.914
L207.271 258.989
L213.043 258.989
L213.242 258.693
L213.441 254.768
L219.213 254.768
L219.412 254.027
L219.611 250.547
L225.382 250.547
L225.581 249.559
L225.78 246.325
L231.552 246.325
L231.751 245.461
L231.95 242.104
L237.721 242.104
L237.92 241.314
L238.119 237.883
L243.891 237.883
L244.09 237.019
L244.289 233.662
L250.061 233.662
L250.26 232.551
L250.459 229.44
L256.23 229.44
L256.429 228.996
L256.628 225.219
L262.4 225.219
L262.599 224.923
L262.798 220.998
L268.569 220.998
L268.768 220.208
L268.967 216.776
L274.739 216.776
L274.938 215.962
L275.137 212.555
L280.909 212.555
L281.108 211.741
L281.307 208.334
L287.078 208.334
L287.277 207.618
L287.476 204.113
L293.248 204.113
L293.447 203.347
L293.646 199.891
L299.417 199.891
L299.616 198.657
L299.815 195.67
L305.587 195.67
L305.786 194.362
L305.985 191.449
L311.756 191.449
L311.955 190.141
L312.155 187.228
L317.926 187.228
L318.125 185.87
L318.324 183.006
L324.096 183.006
L324.295 182.76
L324.494 178.785
L330.265 178.785
L330.464 178.39
L330.663 174.589
L331.658 174.564
L336.435 174.564
L336.634 174.144
L336.833 170.367
L337.828 170.343
L342.604 170.343
L342.803 169.997
L343.002 166.121
L348.774 166.121
L348.973 165.356
L349.172 161.9
L354.944 161.9
L355.143 161.332
L355.342 157.679
L361.113 157.679
L361.312 157.383
L361.511 153.458
L367.283 153.458
L367.482 153.161
L367.681 149.236
L373.452 149.236
L373.651 148.94
L373.85 145.015
L379.622 145.015
L379.821 144.793
L380.02 140.794
L385.792 140.794
L385.991 140.325
L386.19 136.573
L391.961 136.573
L392.16 136.35
L392.359 132.351
L398.131 132.351
L398.33 131.932
L398.529 128.13
L404.3 128.13
L404.499 127.76
L404.698 123.909
L410.47 123.909
L410.669 123.415
L410.868 119.712
L411.863 119.688
L416.64 119.688
L416.839 119.144
L417.038 115.466
L422.809 115.466
L423.008 115.219
L423.207 111.245
L428.979 111.245
L429.178 110.751
L429.377 107.024
L435.148 107.024
L435.347 105.962
L435.546 102.803
L441.318 102.803
L441.517 102.062
L441.716 98.5813
L447.488 98.5813
L447.687 97.5692
L447.886 94.36
L453.657 94.36
L453.856 93.4467
L454.055 90.1388
L459.827 90.1388
L460.026 89.0032
L460.225 85.9175
L465.996 85.9175
L466.195 85.5966
L466.394 81.6963
L472.166 81.6963
L472.365 80.8076
L472.564 77.475
L478.336 77.475
L478.535 77.1047
L478.734 73.2537
L484.505 73.2537
L484.704 72.9328
L484.903 69.0572
L485.898 69.0325
L490.675 69.0325
L490.874 68.835
L491.073 64.8112
L493.66 64.8112
L493.66 64.8112" style="fill:none;stroke:#008000;stroke-linecap:square;"/>
   </g>
   <g id="patch_3">
    <path d="
M47.26 23.1417
L493.66 23.1417" style="fill:none;stroke:#000000;stroke-linecap:square;stroke-linejoin:miter;"/>
   </g>
   <g id="patch_4">
    <path d="
M493.66 368.742
L493.66 23.1417" style="fill:none;stroke:#000000;stroke-linecap:square;stroke-linejoin:miter;"/>
   </g>
   <g id="patch_5">
    <path d="
M47.26 368.742
L493.66 368.742" style="fill:none;stroke:#000000;stroke-linecap:square;stroke-linejoin:miter;"/>
   </g>
   <g id="patch_6">
    <path d="
M47.26 368.742
L47.26 23.1417" style="fill:none;stroke:#000000;stroke-linecap:square;stroke-linejoin:miter;"/>
   </g>
   <g id="matplotlib.axis_1">
    <g id="xtick_1">
     <g id="line2d_17">
      <defs>
       <path d="
M0 0
L0 -4" id="m93b0483c22" style="stroke:#000000;stroke-width:0.5;"/>
      </defs>
      <g>
       <use style="stroke:#000000;stroke-width:0.5;" x="47.26" xlink:href="#m93b0483c22" y="368.74175"/>
      </g>
     </g>
     <g id="line2d_18">
      <defs>
       <path d="
M0 0
L0 4" id="m741efc42ff" style="stroke:#000000;stroke-width:0.5;"/>
      </defs>
      <g>
       <use style="stroke:#000000;stroke-width:0.5;" x="47.26" xlink:href="#m741efc42ff" y="23.14175"/>
      </g>
     </g>
     <g id="text_1">
      <!-- 0 -->
      <defs>
       <path d="
M31.7812 66.4062
Q24.1719 66.4062 20.3281 58.9062
Q16.5 51.4219 16.5 36.375
Q16.5 21.3906 20.3281 13.8906
Q24.1719 6.39062 31.7812 6.39062
Q39.4531 6.39062 43.2812 13.8906
Q47.125 21.3906 47.125 36.375
Q47.125 51.4219 43.2812 58.9062
Q39.4531 66.4062 31.7812 66.4062
M31.7812 74.2188
Q44.0469 74.2188 50.5156 64.5156
Q56.9844 54.8281 56.9844 36.375
Q56.9844 17.9688 50.5156 8.26562
Q44.0469 -1.42188 31.7812 -1.42188
Q19.5312 -1.42188 13.0625 8.26562
Q6.59375 17.9688 6.59375 36.375
Q6.59375 54.8281 13.0625 64.5156
Q19.5312 74.2188 31.7812 74.2188" id="DejaVuSans-30"/>
      </defs>
      <g transform="translate(44.2365625 381.859875)scale(0.12 -0.12)">
       <use xlink:href="#DejaVuSans-30"/>
      </g>
     </g>
    </g>
    <g id="xtick_2">
     <g id="line2d_19">
      <g>
       <use style="stroke:#000000;stroke-width:0.5;" x="146.769585377" xlink:href="#m93b0483c22" y="368.74175"/>
      </g>
     </g>
     <g id="line2d_20">
      <g>
       <use style="stroke:#000000;stroke-width:0.5;" x="146.769585377" xlink:href="#m741efc42ff" y="23.14175"/>
      </g>
     </g>
     <g id="text_2">
      <!-- 500 -->
      <defs>
       <path d="
M10.7969 72.9062
L49.5156 72.9062
L49.5156 64.5938
L19.8281 64.5938
L19.8281 46.7344
Q21.9688 47.4688 24.1094 47.8281
Q26.2656 48.1875 28.4219 48.1875
Q40.625 48.1875 47.75 41.5
Q54.8906 34.8125 54.8906 23.3906
Q54.8906 11.625 47.5625 5.09375
Q40.2344 -1.42188 26.9062 -1.42188
Q22.3125 -1.42188 17.5469 -0.640625
Q12.7969 0.140625 7.71875 1.70312
L7.71875 11.625
Q12.1094 9.23438 16.7969 8.0625
Q21.4844 6.89062 26.7031 6.89062
Q35.1562 6.89062 40.0781 11.3281
Q45.0156 15.7656 45.0156 23.3906
Q45.0156 31 40.0781 35.4375
Q35.1562 39.8906 26.7031 39.8906
Q22.75 39.8906 18.8125 39.0156
Q14.8906 38.1406 10.7969 36.2812
z
" id="DejaVuSans-35"/>
      </defs>
      <g transform="translate(136.178647877 381.859875)scale(0.12 -0.12)">
       <use xlink:href="#DejaVuSans-35"/>
       <use x="63.623046875" xlink:href="#DejaVuSans-30"/>
       <use x="127.24609375" xlink:href="#DejaVuSans-30"/>
      </g>
     </g>
    </g>
    <g id="xtick_3">
     <g id="line2d_21">
      <g>
       <use style="stroke:#000000;stroke-width:0.5;" x="246.279170753" xlink:href="#m93b0483c22" y="368.74175"/>
      </g>
     </g>
     <g id="line2d_22">
      <g>
       <use style="stroke:#000000;stroke-width:0.5;" x="246.279170753" xlink:href="#m741efc42ff" y="23.14175"/>
      </g>
     </g>
     <g id="text_3">
      <!-- 1000 -->
      <defs>
       <path d="
M12.4062 8.29688
L28.5156 8.29688
L28.5156 63.9219
L10.9844 60.4062
L10.9844 69.3906
L28.4219 72.9062
L38.2812 72.9062
L38.2812 8.29688
L54.3906 8.29688
L54.3906 0
L12.4062 0
z
" id="DejaVuSans-31"/>
      </defs>
      <g transform="translate(232.066670753 381.859875)scale(0.12 -0.12)">
       <use xlink:href="#DejaVuSans-31"/>
       <use x="63.623046875" xlink:href="#DejaVuSans-30"/>
       <use x="127.24609375" xlink:href="#DejaVuSans-30"/>
       <use x="190.869140625" xlink:href="#DejaVuSans-30"/>
      </g>
     </g>
    </g>
    <g id="xtick_4">
     <g id="line2d_23">
      <g>
       <use style="stroke:#000000;stroke-width:0.5;" x="345.78875613" xlink:href="#m93b0483c22" y="368.74175"/>
      </g>
     </g>
     <g id="line2d_24">
      <g>
       <use style="stroke:#000000;stroke-width:0.5;" x="345.78875613" xlink:href="#m741efc42ff" y="23.14175"/>
      </g>
     </g>
     <g id="text_4">
      <!-- 1500 -->
      <g transform="translate(331.57625613 381.859875)scale(0.12 -0.12)">
       <use xlink:href="#DejaVuSans-31"/>
       <use x="63.623046875" xlink:href="#DejaVuSans-35"/>
       <use x="127.24609375" xlink:href="#DejaVuSans-30"/>
       <use x="190.869140625" xlink:href="#DejaVuSans-30"/>
      </g>
     </g>
    </g>
    <g id="xtick_5">
     <g id="line2d_25">
      <g>
       <use style="stroke:#000000;stroke-width:0.5;" x="445.298341507" xlink:href="#m93b0483c22" y="368.74175"/>
      </g>
     </g>
     <g id="line2d_26">
      <g>
       <use style="stroke:#000000;stroke-width:0.5;" x="445.298341507" xlink:href="#m741efc42ff" y="23.14175"/>
      </g>
     </g>
     <g id="text_5">
      <!-- 2000 -->
      <defs>
       <path d="
M19.1875 8.29688
L53.6094 8.29688
L53.6094 0
L7.32812 0
L7.32812 8.29688
Q12.9375 14.1094 22.625 23.8906
Q32.3281 33.6875 34.8125 36.5312
Q39.5469 41.8438 41.4219 45.5312
Q43.3125 49.2188 43.3125 52.7812
Q43.3125 58.5938 39.2344 62.25
Q35.1562 65.9219 28.6094 65.9219
Q23.9688 65.9219 18.8125 64.3125
Q13.6719 62.7031 7.8125 59.4219
L7.8125 69.3906
Q13.7656 71.7812 18.9375 73
Q24.125 74.2188 28.4219 74.2188
Q39.75 74.2188 46.4844 68.5469
Q53.2188 62.8906 53.2188 53.4219
Q53.2188 48.9219 51.5312 44.8906
Q49.8594 40.875 45.4062 35.4062
Q44.1875 33.9844 37.6406 27.2188
Q31.1094 20.4531 19.1875 8.29688" id="DejaVuSans-32"/>
      </defs>
      <g transform="translate(430.866466507 381.859875)scale(0.12 -0.12)">
       <use xlink:href="#DejaVuSans-32"/>
       <use x="63.623046875" xlink:href="#DejaVuSans-30"/>
       <use x="127.24609375" xlink:href="#DejaVuSans-30"/>
       <use x="190.869140625" xlink:href="#DejaVuSans-30"/>
      </g>
     </g>
    </g>
    <g id="text_6">
     <!-- time -->
     <defs>
      <path d="
M18.3125 70.2188
L18.3125 54.6875
L36.8125 54.6875
L36.8125 47.7031
L18.3125 47.7031
L18.3125 18.0156
Q18.3125 11.3281 20.1406 9.42188
Q21.9688 7.51562 27.5938 7.51562
L36.8125 7.51562
L36.8125 0
L27.5938 0
Q17.1875 0 13.2344 3.875
Q9.28125 7.76562 9.28125 18.0156
L9.28125 47.7031
L2.6875 47.7031
L2.6875 54.6875
L9.28125 54.6875
L9.28125 70.2188
z
" id="DejaVuSans-74"/>
      <path d="
M52 44.1875
Q55.375 50.25 60.0625 53.125
Q64.75 56 71.0938 56
Q79.6406 56 84.2812 50.0156
Q88.9219 44.0469 88.9219 33.0156
L88.9219 0
L79.8906 0
L79.8906 32.7188
Q79.8906 40.5781 77.0938 44.375
Q74.3125 48.1875 68.6094 48.1875
Q61.625 48.1875 57.5625 43.5469
Q53.5156 38.9219 53.5156 30.9062
L53.5156 0
L44.4844 0
L44.4844 32.7188
Q44.4844 40.625 41.7031 44.4062
Q38.9219 48.1875 33.1094 48.1875
Q26.2188 48.1875 22.1562 43.5312
Q18.1094 38.875 18.1094 30.9062
L18.1094 0
L9.07812 0
L9.07812 54.6875
L18.1094 54.6875
L18.1094 46.1875
Q21.1875 51.2188 25.4844 53.6094
Q29.7812 56 35.6875 56
Q41.6562 56 45.8281 52.9688
Q50 49.9531 52 44.1875" id="DejaVuSans-6d"/>
      <path d="
M56.2031 29.5938
L56.2031 25.2031
L14.8906 25.2031
Q15.4844 15.9219 20.4844 11.0625
Q25.4844 6.20312 34.4219 6.20312
Q39.5938 6.20312 44.4531 7.46875
Q49.3125 8.73438 54.1094 11.2812
L54.1094 2.78125
Q49.2656 0.734375 44.1875 -0.34375
Q39.1094 -1.42188 33.8906 -1.42188
Q20.7969 -1.42188 13.1562 6.1875
Q5.51562 13.8125 5.51562 26.8125
Q5.51562 40.2344 12.7656 48.1094
Q20.0156 56 32.3281 56
Q43.3594 56 49.7812 48.8906
Q56.2031 41.7969 56.2031 29.5938
M47.2188 32.2344
Q47.125 39.5938 43.0938 43.9844
Q39.0625 48.3906 32.4219 48.3906
Q24.9062 48.3906 20.3906 44.1406
Q15.875 39.8906 15.1875 32.1719
z
" id="DejaVuSans-65"/>
      <path d="
M9.42188 54.6875
L18.4062 54.6875
L18.4062 0
L9.42188 0
z

M9.42188 75.9844
L18.4062 75.9844
L18.4062 64.5938
L9.42188 64.5938
z
" id="DejaVuSans-69"/>
     </defs>
     <g transform="translate(257.385625 398.473625)scale(0.12 -0.12)">
      <use xlink:href="#DejaVuSans-74"/>
      <use x="39.208984375" xlink:href="#DejaVuSans-69"/>
      <use x="66.9921875" xlink:href="#DejaVuSans-6d"/>
      <use x="164.404296875" xlink:href="#DejaVuSans-65"/>
     </g>
    </g>
   </g>
   <g id="matplotlib.axis_2">
    <g id="ytick_1">
     <g id="line2d_27">
      <defs>
       <path d="
M0 0
L4 0" id="m728421d6d4" style="stroke:#000000;stroke-width:0.5;"/>
      </defs>
      <g>
       <use style="stroke:#000000;stroke-width:0.5;" x="47.26" xlink:href="#m728421d6d4" y="368.74175"/>
      </g>
     </g>
     <g id="line2d_28">
      <defs>
       <path d="
M0 0
L-4 0" id="mcb0005524f" style="stroke:#000000;stroke-width:0.5;"/>
      </defs>
      <g>
       <use style="stroke:#000000;stroke-width:0.5;" x="493.66" xlink:href="#mcb0005524f" y="368.74175"/>
      </g>
     </g>
     <g id="text_7">
      <!-- 0 -->
      <g transform="translate(37.213125 372.053)scale(0.12 -0.12)">
       <use xlink:href="#DejaVuSans-30"/>
      </g>
     </g>
    </g>
    <g id="ytick_2">
     <g id="line2d_29">
      <g>
       <use style="stroke:#000000;stroke-width:0.5;" x="47.26" xlink:href="#m728421d6d4" y="319.370321429"/>
      </g>
     </g>
     <g id="line2d_30">
      <g>
       <use style="stroke:#000000;stroke-width:0.5;" x="493.66" xlink:href="#mcb0005524f" y="319.370321429"/>
      </g>
     </g>
     <g id="text_8">
      <!-- 2000 -->
      <g transform="translate(14.39625 322.681571429)scale(0.12 -0.12)">
       <use xlink:href="#DejaVuSans-32"/>
       <use x="63.623046875" xlink:href="#DejaVuSans-30"/>
       <use x="127.24609375" xlink:href="#DejaVuSans-30"/>
       <use x="190.869140625" xlink:href="#DejaVuSans-30"/>
      </g>
     </g>
    </g>
    <g id="ytick_3">
     <g id="line2d_31">
      <g>
       <use style="stroke:#000000;stroke-width:0.5;" x="47.26" xlink:href="#m728421d6d4" y="269.998892857"/>
      </g>
     </g>
     <g id="line2d_32">
      <g>
       <use style="stroke:#000000;stroke-width:0.5;" x="493.66" xlink:href="#mcb0005524f" y="269.998892857"/>
      </g>
     </g>
     <g id="text_9">
      <!-- 4000 -->
      <defs>
       <path d="
M37.7969 64.3125
L12.8906 25.3906
L37.7969 25.3906
z

M35.2031 72.9062
L47.6094 72.9062
L47.6094 25.3906
L58.0156 25.3906
L58.0156 17.1875
L47.6094 17.1875
L47.6094 0
L37.7969 0
L37.7969 17.1875
L4.89062 17.1875
L4.89062 26.7031
z
" id="DejaVuSans-34"/>
      </defs>
      <g transform="translate(14.10375 273.310142857)scale(0.12 -0.12)">
       <use xlink:href="#DejaVuSans-34"/>
       <use x="63.623046875" xlink:href="#DejaVuSans-30"/>
       <use x="127.24609375" xlink:href="#DejaVuSans-30"/>
       <use x="190.869140625" xlink:href="#DejaVuSans-30"/>
      </g>
     </g>
    </g>
    <g id="ytick_4">
     <g id="line2d_33">
      <g>
       <use style="stroke:#000000;stroke-width:0.5;" x="47.26" xlink:href="#m728421d6d4" y="220.627464286"/>
      </g>
     </g>
     <g id="line2d_34">
      <g>
       <use style="stroke:#000000;stroke-width:0.5;" x="493.66" xlink:href="#mcb0005524f" y="220.627464286"/>
      </g>
     </g>
     <g id="text_10">
      <!-- 6000 -->
      <defs>
       <path d="
M33.0156 40.375
Q26.375 40.375 22.4844 35.8281
Q18.6094 31.2969 18.6094 23.3906
Q18.6094 15.5312 22.4844 10.9531
Q26.375 6.39062 33.0156 6.39062
Q39.6562 6.39062 43.5312 10.9531
Q47.4062 15.5312 47.4062 23.3906
Q47.4062 31.2969 43.5312 35.8281
Q39.6562 40.375 33.0156 40.375
M52.5938 71.2969
L52.5938 62.3125
Q48.875 64.0625 45.0938 64.9844
Q41.3125 65.9219 37.5938 65.9219
Q27.8281 65.9219 22.6719 59.3281
Q17.5312 52.7344 16.7969 39.4062
Q19.6719 43.6562 24.0156 45.9219
Q28.375 48.1875 33.5938 48.1875
Q44.5781 48.1875 50.9531 41.5156
Q57.3281 34.8594 57.3281 23.3906
Q57.3281 12.1562 50.6875 5.35938
Q44.0469 -1.42188 33.0156 -1.42188
Q20.3594 -1.42188 13.6719 8.26562
Q6.98438 17.9688 6.98438 36.375
Q6.98438 53.6562 15.1875 63.9375
Q23.3906 74.2188 37.2031 74.2188
Q40.9219 74.2188 44.7031 73.4844
Q48.4844 72.75 52.5938 71.2969" id="DejaVuSans-36"/>
      </defs>
      <g transform="translate(14.355 223.938714286)scale(0.12 -0.12)">
       <use xlink:href="#DejaVuSans-36"/>
       <use x="63.623046875" xlink:href="#DejaVuSans-30"/>
       <use x="127.24609375" xlink:href="#DejaVuSans-30"/>
       <use x="190.869140625" xlink:href="#DejaVuSans-30"/>
      </g>
     </g>
    </g>
    <g id="ytick_5">
     <g id="line2d_35">
      <g>
       <use style="stroke:#000000;stroke-width:0.5;" x="47.26" xlink:href="#m728421d6d4" y="171.256035714"/>
      </g>
     </g>
     <g id="line2d_36">
      <g>
       <use style="stroke:#000000;stroke-width:0.5;" x="493.66" xlink:href="#mcb0005524f" y="171.256035714"/>
      </g>
     </g>
     <g id="text_11">
      <!-- 8000 -->
      <defs>
       <path d="
M31.7812 34.625
Q24.75 34.625 20.7188 30.8594
Q16.7031 27.0938 16.7031 20.5156
Q16.7031 13.9219 20.7188 10.1562
Q24.75 6.39062 31.7812 6.39062
Q38.8125 6.39062 42.8594 10.1719
Q46.9219 13.9688 46.9219 20.5156
Q46.9219 27.0938 42.8906 30.8594
Q38.875 34.625 31.7812 34.625
M21.9219 38.8125
Q15.5781 40.375 12.0312 44.7188
Q8.5 49.0781 8.5 55.3281
Q8.5 64.0625 14.7188 69.1406
Q20.9531 74.2188 31.7812 74.2188
Q42.6719 74.2188 48.875 69.1406
Q55.0781 64.0625 55.0781 55.3281
Q55.0781 49.0781 51.5312 44.7188
Q48 40.375 41.7031 38.8125
Q48.8281 37.1562 52.7969 32.3125
Q56.7812 27.4844 56.7812 20.5156
Q56.7812 9.90625 50.3125 4.23438
Q43.8438 -1.42188 31.7812 -1.42188
Q19.7344 -1.42188 13.25 4.23438
Q6.78125 9.90625 6.78125 20.5156
Q6.78125 27.4844 10.7812 32.3125
Q14.7969 37.1562 21.9219 38.8125
M18.3125 54.3906
Q18.3125 48.7344 21.8438 45.5625
Q25.3906 42.3906 31.7812 42.3906
Q38.1406 42.3906 41.7188 45.5625
Q45.3125 48.7344 45.3125 54.3906
Q45.3125 60.0625 41.7188 63.2344
Q38.1406 66.4062 31.7812 66.4062
Q25.3906 66.4062 21.8438 63.2344
Q18.3125 60.0625 18.3125 54.3906" id="DejaVuSans-38"/>
      </defs>
      <g transform="translate(14.330625 174.567285714)scale(0.12 -0.12)">
       <use xlink:href="#DejaVuSans-38"/>
       <use x="63.623046875" xlink:href="#DejaVuSans-30"/>
       <use x="127.24609375" xlink:href="#DejaVuSans-30"/>
       <use x="190.869140625" xlink:href="#DejaVuSans-30"/>
      </g>
     </g>
    </g>
    <g id="ytick_6">
     <g id="line2d_37">
      <g>
       <use style="stroke:#000000;stroke-width:0.5;" x="47.26" xlink:href="#m728421d6d4" y="121.884607143"/>
      </g>
     </g>
     <g id="line2d_38">
      <g>
       <use style="stroke:#000000;stroke-width:0.5;" x="493.66" xlink:href="#mcb0005524f" y="121.884607143"/>
      </g>
     </g>
     <g id="text_12">
      <!-- 10000 -->
      <g transform="translate(7.2 125.195857143)scale(0.12 -0.12)">
       <use xlink:href="#DejaVuSans-31"/>
       <use x="63.623046875" xlink:href="#DejaVuSans-30"/>
       <use x="127.24609375" xlink:href="#DejaVuSans-30"/>
       <use x="190.869140625" xlink:href="#DejaVuSans-30"/>
       <use x="254.4921875" xlink:href="#DejaVuSans-30"/>
      </g>
     </g>
    </g>
    <g id="ytick_7">
     <g id="line2d_39">
      <g>
       <use style="stroke:#000000;stroke-width:0.5;" x="47.26" xlink:href="#m728421d6d4" y="72.5131785714"/>
      </g>
     </g>
     <g id="line2d_40">
      <g>
       <use style="stroke:#000000;stroke-width:0.5;" x="493.66" xlink:href="#mcb0005524f" y="72.5131785714"/>
      </g>
     </g>
     <g id="text_13">
      <!-- 12000 -->
      <g transform="translate(7.2 75.8244285714)scale(0.12 -0.12)">
       <use xlink:href="#DejaVuSans-31"/>
       <use x="63.623046875" xlink:href="#DejaVuSans-32"/>
       <use x="127.24609375" xlink:href="#DejaVuSans-30"/>
       <use x="190.869140625" xlink:href="#DejaVuSans-30"/>
       <use x="254.4921875" xlink:href="#DejaVuSans-30"/>
      </g>
     </g>
    </g>
    <g id="ytick_8">
     <g id="line2d_41">
      <g>
       <use style="stroke:#000000;stroke-width:0.5;" x="47.26" xlink:href="#m728421d6d4" y="23.14175"/>
      </g>
     </g>
     <g id="line2d_42">
      <g>
       <use style="stroke:#000000;stroke-width:0.5;" x="493.66" xlink:href="#mcb0005524f" y="23.14175"/>
      </g>
     </g>
     <g id="text_14">
      <!-- 14000 -->
      <g transform="translate(7.2 26.453)scale(0.12 -0.12)">
       <use xlink:href="#DejaVuSans-31"/>
       <use x="63.623046875" xlink:href="#DejaVuSans-34"/>
       <use x="127.24609375" xlink:href="#DejaVuSans-30"/>
       <use x="190.869140625" xlink:href="#DejaVuSans-30"/>
       <use x="254.4921875" xlink:href="#DejaVuSans-30"/>
      </g>
     </g>
    </g>
   </g>
   <g id="text_15">
    <!-- /agas/count/increment_credit -->
    <defs>
     <path d="
M25.3906 72.9062
L33.6875 72.9062
L8.29688 -9.28125
L0 -9.28125
z
" id="DejaVuSans-2f"/>
     <path d="
M30.6094 48.3906
Q23.3906 48.3906 19.1875 42.75
Q14.9844 37.1094 14.9844 27.2969
Q14.9844 17.4844 19.1562 11.8438
Q23.3438 6.20312 30.6094 6.20312
Q37.7969 6.20312 41.9844 11.8594
Q46.1875 17.5312 46.1875 27.2969
Q46.1875 37.0156 41.9844 42.7031
Q37.7969 48.3906 30.6094 48.3906
M30.6094 56
Q42.3281 56 49.0156 48.375
Q55.7188 40.7656 55.7188 27.2969
Q55.7188 13.875 49.0156 6.21875
Q42.3281 -1.42188 30.6094 -1.42188
Q18.8438 -1.42188 12.1719 6.21875
Q5.51562 13.875 5.51562 27.2969
Q5.51562 40.7656 12.1719 48.375
Q18.8438 56 30.6094 56" id="DejaVuSans-6f"/>
     <path d="
M54.8906 33.0156
L54.8906 0
L45.9062 0
L45.9062 32.7188
Q45.9062 40.4844 42.875 44.3281
Q39.8438 48.1875 33.7969 48.1875
Q26.5156 48.1875 22.3125 43.5469
Q18.1094 38.9219 18.1094 30.9062
L18.1094 0
L9.07812 0
L9.07812 54.6875
L18.1094 54.6875
L18.1094 46.1875
Q21.3438 51.125 25.7031 53.5625
Q30.0781 56 35.7969 56
Q45.2188 56 50.0469 50.1719
Q54.8906 44.3438 54.8906 33.0156" id="DejaVuSans-6e"/>
     <path d="
M50.9844 -16.6094
L50.9844 -23.5781
L-0.984375 -23.5781
L-0.984375 -16.6094
z
" id="DejaVuSans-5f"/>
     <path d="
M8.5 21.5781
L8.5 54.6875
L17.4844 54.6875
L17.4844 21.9219
Q17.4844 14.1562 20.5 10.2656
Q23.5312 6.39062 29.5938 6.39062
Q36.8594 6.39062 41.0781 11.0312
Q45.3125 15.6719 45.3125 23.6875
L45.3125 54.6875
L54.2969 54.6875
L54.2969 0
L45.3125 0
L45.3125 8.40625
Q42.0469 3.42188 37.7188 1
Q33.4062 -1.42188 27.6875 -1.42188
Q18.2656 -1.42188 13.375 4.4375
Q8.5 10.2969 8.5 21.5781
M31.1094 56
z
" id="DejaVuSans-75"/>
     <path d="
M45.4062 27.9844
Q45.4062 37.75 41.375 43.1094
Q37.3594 48.4844 30.0781 48.4844
Q22.8594 48.4844 18.8281 43.1094
Q14.7969 37.75 14.7969 27.9844
Q14.7969 18.2656 18.8281 12.8906
Q22.8594 7.51562 30.0781 7.51562
Q37.3594 7.51562 41.375 12.8906
Q45.4062 18.2656 45.4062 27.9844
M54.3906 6.78125
Q54.3906 -7.17188 48.1875 -13.9844
Q42 -20.7969 29.2031 -20.7969
Q24.4688 -20.7969 20.2656 -20.0938
Q16.0625 -19.3906 12.1094 -17.9219
L12.1094 -9.1875
Q16.0625 -11.3281 19.9219 -12.3438
Q23.7812 -13.375 27.7812 -13.375
Q36.625 -13.375 41.0156 -8.76562
Q45.4062 -4.15625 45.4062 5.17188
L45.4062 9.625
Q42.625 4.78125 38.2812 2.39062
Q33.9375 0 27.875 0
Q17.8281 0 11.6719 7.65625
Q5.51562 15.3281 5.51562 27.9844
Q5.51562 40.6719 11.6719 48.3281
Q17.8281 56 27.875 56
Q33.9375 56 38.2812 53.6094
Q42.625 51.2188 45.4062 46.3906
L45.4062 54.6875
L54.3906 54.6875
z
" id="DejaVuSans-67"/>
     <path d="
M45.4062 46.3906
L45.4062 75.9844
L54.3906 75.9844
L54.3906 0
L45.4062 0
L45.4062 8.20312
Q42.5781 3.32812 38.25 0.953125
Q33.9375 -1.42188 27.875 -1.42188
Q17.9688 -1.42188 11.7344 6.48438
Q5.51562 14.4062 5.51562 27.2969
Q5.51562 40.1875 11.7344 48.0938
Q17.9688 56 27.875 56
Q33.9375 56 38.25 53.625
Q42.5781 51.2656 45.4062 46.3906
M14.7969 27.2969
Q14.7969 17.3906 18.875 11.75
Q22.9531 6.10938 30.0781 6.10938
Q37.2031 6.10938 41.2969 11.75
Q45.4062 17.3906 45.4062 27.2969
Q45.4062 37.2031 41.2969 42.8438
Q37.2031 48.4844 30.0781 48.4844
Q22.9531 48.4844 18.875 42.8438
Q14.7969 37.2031 14.7969 27.2969" id="DejaVuSans-64"/>
     <path d="
M41.1094 46.2969
Q39.5938 47.1719 37.8125 47.5781
Q36.0312 48 33.8906 48
Q26.2656 48 22.1875 43.0469
Q18.1094 38.0938 18.1094 28.8125
L18.1094 0
L9.07812 0
L9.07812 54.6875
L18.1094 54.6875
L18.1094 46.1875
Q20.9531 51.1719 25.4844 53.5781
Q30.0312 56 36.5312 56
Q37.4531 56 38.5781 55.875
Q39.7031 55.7656 41.0625 55.5156
z
" id="DejaVuSans-72"/>
     <path d="
M48.7812 52.5938
L48.7812 44.1875
Q44.9688 46.2969 41.1406 47.3438
Q37.3125 48.3906 33.4062 48.3906
Q24.6562 48.3906 19.8125 42.8438
Q14.9844 37.3125 14.9844 27.2969
Q14.9844 17.2812 19.8125 11.7344
Q24.6562 6.20312 33.4062 6.20312
Q37.3125 6.20312 41.1406 7.25
Q44.9688 8.29688 48.7812 10.4062
L48.7812 2.09375
Q45.0156 0.34375 40.9844 -0.53125
Q36.9688 -1.42188 32.4219 -1.42188
Q20.0625 -1.42188 12.7812 6.34375
Q5.51562 14.1094 5.51562 27.2969
Q5.51562 40.6719 12.8594 48.3281
Q20.2188 56 33.0156 56
Q37.1562 56 41.1094 55.1406
Q45.0625 54.2969 48.7812 52.5938" id="DejaVuSans-63"/>
     <path d="
M44.2812 53.0781
L44.2812 44.5781
Q40.4844 46.5312 36.375 47.5
Q32.2812 48.4844 27.875 48.4844
Q21.1875 48.4844 17.8438 46.4375
Q14.5 44.3906 14.5 40.2812
Q14.5 37.1562 16.8906 35.375
Q19.2812 33.5938 26.5156 31.9844
L29.5938 31.2969
Q39.1562 29.25 43.1875 25.5156
Q47.2188 21.7812 47.2188 15.0938
Q47.2188 7.46875 41.1875 3.01562
Q35.1562 -1.42188 24.6094 -1.42188
Q20.2188 -1.42188 15.4531 -0.5625
Q10.6875 0.296875 5.42188 2
L5.42188 11.2812
Q10.4062 8.6875 15.2344 7.39062
Q20.0625 6.10938 24.8125 6.10938
Q31.1562 6.10938 34.5625 8.28125
Q37.9844 10.4531 37.9844 14.4062
Q37.9844 18.0625 35.5156 20.0156
Q33.0625 21.9688 24.7031 23.7812
L21.5781 24.5156
Q13.2344 26.2656 9.51562 29.9062
Q5.8125 33.5469 5.8125 39.8906
Q5.8125 47.6094 11.2812 51.7969
Q16.75 56 26.8125 56
Q31.7812 56 36.1719 55.2656
Q40.5781 54.5469 44.2812 53.0781" id="DejaVuSans-73"/>
     <path d="
M34.2812 27.4844
Q23.3906 27.4844 19.1875 25
Q14.9844 22.5156 14.9844 16.5
Q14.9844 11.7188 18.1406 8.90625
Q21.2969 6.10938 26.7031 6.10938
Q34.1875 6.10938 38.7031 11.4062
Q43.2188 16.7031 43.2188 25.4844
L43.2188 27.4844
z

M52.2031 31.2031
L52.2031 0
L43.2188 0
L43.2188 8.29688
Q40.1406 3.32812 35.5469 0.953125
Q30.9531 -1.42188 24.3125 -1.42188
Q15.9219 -1.42188 10.9531 3.29688
Q6 8.01562 6 15.9219
Q6 25.1406 12.1719 29.8281
Q18.3594 34.5156 30.6094 34.5156
L43.2188 34.5156
L43.2188 35.4062
Q43.2188 41.6094 39.1406 45
Q35.0625 48.3906 27.6875 48.3906
Q23 48.3906 18.5469 47.2656
Q14.1094 46.1406 10.0156 43.8906
L10.0156 52.2031
Q14.9375 54.1094 19.5781 55.0469
Q24.2188 56 28.6094 56
Q40.4844 56 46.3438 49.8438
Q52.2031 43.7031 52.2031 31.2031" id="DejaVuSans-61"/>
    </defs>
    <g transform="translate(165.136375 18.14175)scale(0.144 -0.144)">
     <use xlink:href="#DejaVuSans-2f"/>
     <use x="33.69140625" xlink:href="#DejaVuSans-61"/>
     <use x="94.970703125" xlink:href="#DejaVuSans-67"/>
     <use x="158.447265625" xlink:href="#DejaVuSans-61"/>
     <use x="219.7265625" xlink:href="#DejaVuSans-73"/>
     <use x="271.826171875" xlink:href="#DejaVuSans-2f"/>
     <use x="305.517578125" xlink:href="#DejaVuSans-63"/>
     <use x="360.498046875" xlink:href="#DejaVuSans-6f"/>
     <use x="421.6796875" xlink:href="#DejaVuSans-75"/>
     <use x="485.05859375" xlink:href="#DejaVuSans-6e"/>
     <use x="548.4375" xlink:href="#DejaVuSans-74"/>
     <use x="587.646484375" xlink:href="#DejaVuSans-2f"/>
     <use x="621.337890625" xlink:href="#DejaVuSans-69"/>
     <use x="649.12109375" xlink:href="#DejaVuSans-6e"/>
     <use x="712.5" xlink:href="#DejaVuSans-63"/>
     <use x="767.48046875" xlink:href="#DejaVuSans-72"/>
     <use x="806.34375" xlink:href="#DejaVuSans-65"/>
     <use x="867.8671875" xlink:href="#DejaVuSans-6d"/>
     <use x="965.279296875" xlink:href="#DejaVuSans-65"/>
     <use x="1026.80273438" xlink:href="#DejaVuSans-6e"/>
     <use x="1090.18164062" xlink:href="#DejaVuSans-74"/>
     <use x="1129.390625" xlink:href="#DejaVuSans-5f"/>
     <use x="1179.390625" xlink:href="#DejaVuSans-63"/>
     <use x="1234.37109375" xlink:href="#DejaVuSans-72"/>
     <use x="1273.234375" xlink:href="#DejaVuSans-65"/>
     <use x="1334.7578125" xlink:href="#DejaVuSans-64"/>
     <use x="1398.234375" xlink:href="#DejaVuSans-69"/>
     <use x="1426.01757812" xlink:href="#DejaVuSans-74"/>
    </g>
   </g>
   <g id="legend_1">
    <g id="patch_7">
     <path d="
M500.86 367.194
L632.649 367.194
L632.649 24.6897
L500.86 24.6897
z
" style="fill:#ffffff;stroke:#000000;stroke-linejoin:miter;"/>
    </g>
    <g id="line2d_43">
     <path d="
M510.94 36.3515
L531.1 36.3515" style="fill:none;stroke:#0000ff;stroke-linecap:square;"/>
    </g>
    <g id="line2d_44"/>
    <g id="text_16">
     <!-- locality#0 -->
     <defs>
      <path d="
M51.125 44
L36.9219 44
L32.8125 27.6875
L47.125 27.6875
z

M43.7969 71.7812
L38.7188 51.5156
L52.9844 51.5156
L58.1094 71.7812
L65.9219 71.7812
L60.8906 51.5156
L76.125 51.5156
L76.125 44
L58.9844 44
L54.9844 27.6875
L70.5156 27.6875
L70.5156 20.2188
L53.0781 20.2188
L48 0
L40.1875 0
L45.2188 20.2188
L30.9062 20.2188
L25.875 0
L18.0156 0
L23.0938 20.2188
L7.71875 20.2188
L7.71875 27.6875
L24.9062 27.6875
L29 44
L13.2812 44
L13.2812 51.5156
L30.9062 51.5156
L35.8906 71.7812
z
" id="DejaVuSans-23"/>
      <path d="
M32.1719 -5.07812
Q28.375 -14.8438 24.75 -17.8125
Q21.1406 -20.7969 15.0938 -20.7969
L7.90625 -20.7969
L7.90625 -13.2812
L13.1875 -13.2812
Q16.8906 -13.2812 18.9375 -11.5156
Q21 -9.76562 23.4844 -3.21875
L25.0938 0.875
L2.98438 54.6875
L12.5 54.6875
L29.5938 11.9219
L46.6875 54.6875
L56.2031 54.6875
z
" id="DejaVuSans-79"/>
      <path d="
M9.42188 75.9844
L18.4062 75.9844
L18.4062 0
L9.42188 0
z
" id="DejaVuSans-6c"/>
     </defs>
     <g transform="translate(546.94 41.3915)scale(0.144 -0.144)">
      <use xlink:href="#DejaVuSans-6c"/>
      <use x="27.783203125" xlink:href="#DejaVuSans-6f"/>
      <use x="88.96484375" xlink:href="#DejaVuSans-63"/>
      <use x="143.9453125" xlink:href="#DejaVuSans-61"/>
      <use x="205.224609375" xlink:href="#DejaVuSans-6c"/>
      <use x="233.0078125" xlink:href="#DejaVuSans-69"/>
      <use x="260.791015625" xlink:href="#DejaVuSans-74"/>
      <use x="300.0" xlink:href="#DejaVuSans-79"/>
      <use x="359.1796875" xlink:href="#DejaVuSans-23"/>
      <use x="442.96875" xlink:href="#DejaVuSans-30"/>
     </g>
    </g>
    <g id="line2d_45">
     <path d="
M510.94 57.488
L531.1 57.488" style="fill:none;stroke:#008000;stroke-linecap:square;"/>
    </g>
    <g id="line2d_46"/>
    <g id="text_17">
     <!-- locality#1 -->
     <g transform="translate(546.94 62.528)scale(0.144 -0.144)">
      <use xlink:href="#DejaVuSans-6c"/>
      <use x="27.783203125" xlink:href="#DejaVuSans-6f"/>
      <use x="88.96484375" xlink:href="#DejaVuSans-63"/>
      <use x="143.9453125" xlink:href="#DejaVuSans-61"/>
      <use x="205.224609375" xlink:href="#DejaVuSans-6c"/>
      <use x="233.0078125" xlink:href="#DejaVuSans-69"/>
      <use x="260.791015625" xlink:href="#DejaVuSans-74"/>
      <use x="300.0" xlink:href="#DejaVuSans-79"/>
      <use x="359.1796875" xlink:href="#DejaVuSans-23"/>
      <use x="442.96875" xlink:href="#DejaVuSans-31"/>
     </g>
    </g>
    <g id="line2d_47">
     <path d="
M510.94 78.6245
L531.1 78.6245" style="fill:none;stroke:#ff0000;stroke-linecap:square;"/>
    </g>
    <g id="line2d_48"/>
    <g id="text_18">
     <!-- locality#10 -->
     <g transform="translate(546.94 83.6645)scale(0.144 -0.144)">
      <use xlink:href="#DejaVuSans-6c"/>
      <use x="27.783203125" xlink:href="#DejaVuSans-6f"/>
      <use x="88.96484375" xlink:href="#DejaVuSans-63"/>
      <use x="143.9453125" xlink:href="#DejaVuSans-61"/>
      <use x="205.224609375" xlink:href="#DejaVuSans-6c"/>
      <use x="233.0078125" xlink:href="#DejaVuSans-69"/>
      <use x="260.791015625" xlink:href="#DejaVuSans-74"/>
      <use x="300.0" xlink:href="#DejaVuSans-79"/>
      <use x="359.1796875" xlink:href="#DejaVuSans-23"/>
      <use x="442.96875" xlink:href="#DejaVuSans-31"/>
      <use x="506.591796875" xlink:href="#DejaVuSans-30"/>
     </g>
    </g>
    <g id="line2d_49">
     <path d="
M510.94 99.761
L531.1 99.761" style="fill:none;stroke:#00bfbf;stroke-linecap:square;"/>
    </g>
    <g id="line2d_50"/>
    <g id="text_19">
     <!-- locality#11 -->
     <g transform="translate(546.94 104.801)scale(0.144 -0.144)">
      <use xlink:href="#DejaVuSans-6c"/>
      <use x="27.783203125" xlink:href="#DejaVuSans-6f"/>
      <use x="88.96484375" xlink:href="#DejaVuSans-63"/>
      <use x="143.9453125" xlink:href="#DejaVuSans-61"/>
      <use x="205.224609375" xlink:href="#DejaVuSans-6c"/>
      <use x="233.0078125" xlink:href="#DejaVuSans-69"/>
      <use x="260.791015625" xlink:href="#DejaVuSans-74"/>
      <use x="300.0" xlink:href="#DejaVuSans-79"/>
      <use x="359.1796875" xlink:href="#DejaVuSans-23"/>
      <use x="442.96875" xlink:href="#DejaVuSans-31"/>
      <use x="506.591796875" xlink:href="#DejaVuSans-31"/>
     </g>
    </g>
    <g id="line2d_51">
     <path d="
M510.94 120.897
L531.1 120.897" style="fill:none;stroke:#bf00bf;stroke-linecap:square;"/>
    </g>
    <g id="line2d_52"/>
    <g id="text_20">
     <!-- locality#12 -->
     <g transform="translate(546.94 125.9375)scale(0.144 -0.144)">
      <use xlink:href="#DejaVuSans-6c"/>
      <use x="27.783203125" xlink:href="#DejaVuSans-6f"/>
      <use x="88.96484375" xlink:href="#DejaVuSans-63"/>
      <use x="143.9453125" xlink:href="#DejaVuSans-61"/>
      <use x="205.224609375" xlink:href="#DejaVuSans-6c"/>
      <use x="233.0078125" xlink:href="#DejaVuSans-69"/>
      <use x="260.791015625" xlink:href="#DejaVuSans-74"/>
      <use x="300.0" xlink:href="#DejaVuSans-79"/>
      <use x="359.1796875" xlink:href="#DejaVuSans-23"/>
      <use x="442.96875" xlink:href="#DejaVuSans-31"/>
      <use x="506.591796875" xlink:href="#DejaVuSans-32"/>
     </g>
    </g>
    <g id="line2d_53">
     <path d="
M510.94 142.034
L531.1 142.034" style="fill:none;stroke:#bfbf00;stroke-linecap:square;"/>
    </g>
    <g id="line2d_54"/>
    <g id="text_21">
     <!-- locality#13 -->
     <defs>
      <path d="
M40.5781 39.3125
Q47.6562 37.7969 51.625 33
Q55.6094 28.2188 55.6094 21.1875
Q55.6094 10.4062 48.1875 4.48438
Q40.7656 -1.42188 27.0938 -1.42188
Q22.5156 -1.42188 17.6562 -0.515625
Q12.7969 0.390625 7.625 2.20312
L7.625 11.7188
Q11.7188 9.32812 16.5938 8.10938
Q21.4844 6.89062 26.8125 6.89062
Q36.0781 6.89062 40.9375 10.5469
Q45.7969 14.2031 45.7969 21.1875
Q45.7969 27.6406 41.2812 31.2656
Q36.7656 34.9062 28.7188 34.9062
L20.2188 34.9062
L20.2188 43.0156
L29.1094 43.0156
Q36.375 43.0156 40.2344 45.9219
Q44.0938 48.8281 44.0938 54.2969
Q44.0938 59.9062 40.1094 62.9062
Q36.1406 65.9219 28.7188 65.9219
Q24.6562 65.9219 20.0156 65.0312
Q15.375 64.1562 9.8125 62.3125
L9.8125 71.0938
Q15.4375 72.6562 20.3438 73.4375
Q25.25 74.2188 29.5938 74.2188
Q40.8281 74.2188 47.3594 69.1094
Q53.9062 64.0156 53.9062 55.3281
Q53.9062 49.2656 50.4375 45.0938
Q46.9688 40.9219 40.5781 39.3125" id="DejaVuSans-33"/>
     </defs>
     <g transform="translate(546.94 147.074)scale(0.144 -0.144)">
      <use xlink:href="#DejaVuSans-6c"/>
      <use x="27.783203125" xlink:href="#DejaVuSans-6f"/>
      <use x="88.96484375" xlink:href="#DejaVuSans-63"/>
      <use x="143.9453125" xlink:href="#DejaVuSans-61"/>
      <use x="205.224609375" xlink:href="#DejaVuSans-6c"/>
      <use x="233.0078125" xlink:href="#DejaVuSans-69"/>
      <use x="260.791015625" xlink:href="#DejaVuSans-74"/>
      <use x="300.0" xlink:href="#DejaVuSans-79"/>
      <use x="359.1796875" xlink:href="#DejaVuSans-23"/>
      <use x="442.96875" xlink:href="#DejaVuSans-31"/>
      <use x="506.591796875" xlink:href="#DejaVuSans-33"/>
     </g>
    </g>
    <g id="line2d_55">
     <path d="
M510.94 163.17
L531.1 163.17" style="fill:none;stroke:#000000;stroke-linecap:square;"/>
    </g>
    <g id="line2d_56"/>
    <g id="text_22">
     <!-- locality#14 -->
     <g transform="translate(546.94 168.2105)scale(0.144 -0.144)">
      <use xlink:href="#DejaVuSans-6c"/>
      <use x="27.783203125" xlink:href="#DejaVuSans-6f"/>
      <use x="88.96484375" xlink:href="#DejaVuSans-63"/>
      <use x="143.9453125" xlink:href="#DejaVuSans-61"/>
      <use x="205.224609375" xlink:href="#DejaVuSans-6c"/>
      <use x="233.0078125" xlink:href="#DejaVuSans-69"/>
      <use x="260.791015625" xlink:href="#DejaVuSans-74"/>
      <use x="300.0" xlink:href="#DejaVuSans-79"/>
      <use x="359.1796875" xlink:href="#DejaVuSans-23"/>
      <use x="442.96875" xlink:href="#DejaVuSans-31"/>
      <use x="506.591796875" xlink:href="#DejaVuSans-34"/>
     </g>
    </g>
    <g id="line2d_57">
     <path d="
M510.94 184.307
L531.1 184.307" style="fill:none;stroke:#0000ff;stroke-linecap:square;"/>
    </g>
    <g id="line2d_58"/>
    <g id="text_23">
     <!-- locality#15 -->
     <g transform="translate(546.94 189.347)scale(0.144 -0.144)">
      <use xlink:href="#DejaVuSans-6c"/>
      <use x="27.783203125" xlink:href="#DejaVuSans-6f"/>
      <use x="88.96484375" xlink:href="#DejaVuSans-63"/>
      <use x="143.9453125" xlink:href="#DejaVuSans-61"/>
      <use x="205.224609375" xlink:href="#DejaVuSans-6c"/>
      <use x="233.0078125" xlink:href="#DejaVuSans-69"/>
      <use x="260.791015625" xlink:href="#DejaVuSans-74"/>
      <use x="300.0" xlink:href="#DejaVuSans-79"/>
      <use x="359.1796875" xlink:href="#DejaVuSans-23"/>
      <use x="442.96875" xlink:href="#DejaVuSans-31"/>
      <use x="506.591796875" xlink:href="#DejaVuSans-35"/>
     </g>
    </g>
    <g id="line2d_59">
     <path d="
M510.94 205.443
L531.1 205.443" style="fill:none;stroke:#008000;stroke-linecap:square;"/>
    </g>
    <g id="line2d_60"/>
    <g id="text_24">
     <!-- locality#2 -->
     <g transform="translate(546.94 210.4835)scale(0.144 -0.144)">
      <use xlink:href="#DejaVuSans-6c"/>
      <use x="27.783203125" xlink:href="#DejaVuSans-6f"/>
      <use x="88.96484375" xlink:href="#DejaVuSans-63"/>
      <use x="143.9453125" xlink:href="#DejaVuSans-61"/>
      <use x="205.224609375" xlink:href="#DejaVuSans-6c"/>
      <use x="233.0078125" xlink:href="#DejaVuSans-69"/>
      <use x="260.791015625" xlink:href="#DejaVuSans-74"/>
      <use x="300.0" xlink:href="#DejaVuSans-79"/>
      <use x="359.1796875" xlink:href="#DejaVuSans-23"/>
      <use x="442.96875" xlink:href="#DejaVuSans-32"/>
     </g>
    </g>
    <g id="line2d_61">
     <path d="
M510.94 226.58
L531.1 226.58" style="fill:none;stroke:#ff0000;stroke-linecap:square;"/>
    </g>
    <g id="line2d_62"/>
    <g id="text_25">
     <!-- locality#3 -->
     <g transform="translate(546.94 231.62)scale(0.144 -0.144)">
      <use xlink:href="#DejaVuSans-6c"/>
      <use x="27.783203125" xlink:href="#DejaVuSans-6f"/>
      <use x="88.96484375" xlink:href="#DejaVuSans-63"/>
      <use x="143.9453125" xlink:href="#DejaVuSans-61"/>
      <use x="205.224609375" xlink:href="#DejaVuSans-6c"/>
      <use x="233.0078125" xlink:href="#DejaVuSans-69"/>
      <use x="260.791015625" xlink:href="#DejaVuSans-74"/>
      <use x="300.0" xlink:href="#DejaVuSans-79"/>
      <use x="359.1796875" xlink:href="#DejaVuSans-23"/>
      <use x="442.96875" xlink:href="#DejaVuSans-33"/>
     </g>
    </g>
    <g id="line2d_63">
     <path d="
M510.94 247.716
L531.1 247.716" style="fill:none;stroke:#00bfbf;stroke-linecap:square;"/>
    </g>
    <g id="line2d_64"/>
    <g id="text_26">
     <!-- locality#4 -->
     <g transform="translate(546.94 252.7565)scale(0.144 -0.144)">
      <use xlink:href="#DejaVuSans-6c"/>
      <use x="27.783203125" xlink:href="#DejaVuSans-6f"/>
      <use x="88.96484375" xlink:href="#DejaVuSans-63"/>
      <use x="143.9453125" xlink:href="#DejaVuSans-61"/>
      <use x="205.224609375" xlink:href="#DejaVuSans-6c"/>
      <use x="233.0078125" xlink:href="#DejaVuSans-69"/>
      <use x="260.791015625" xlink:href="#DejaVuSans-74"/>
      <use x="300.0" xlink:href="#DejaVuSans-79"/>
      <use x="359.1796875" xlink:href="#DejaVuSans-23"/>
      <use x="442.96875" xlink:href="#DejaVuSans-34"/>
     </g>
    </g>
    <g id="line2d_65">
     <path d="
M510.94 268.853
L531.1 268.853" style="fill:none;stroke:#bf00bf;stroke-linecap:square;"/>
    </g>
    <g id="line2d_66"/>
    <g id="text_27">
     <!-- locality#5 -->
     <g transform="translate(546.94 273.893)scale(0.144 -0.144)">
      <use xlink:href="#DejaVuSans-6c"/>
      <use x="27.783203125" xlink:href="#DejaVuSans-6f"/>
      <use x="88.96484375" xlink:href="#DejaVuSans-63"/>
      <use x="143.9453125" xlink:href="#DejaVuSans-61"/>
      <use x="205.224609375" xlink:href="#DejaVuSans-6c"/>
      <use x="233.0078125" xlink:href="#DejaVuSans-69"/>
      <use x="260.791015625" xlink:href="#DejaVuSans-74"/>
      <use x="300.0" xlink:href="#DejaVuSans-79"/>
      <use x="359.1796875" xlink:href="#DejaVuSans-23"/>
      <use x="442.96875" xlink:href="#DejaVuSans-35"/>
     </g>
    </g>
    <g id="line2d_67">
     <path d="
M510.94 289.989
L531.1 289.989" style="fill:none;stroke:#bfbf00;stroke-linecap:square;"/>
    </g>
    <g id="line2d_68"/>
    <g id="text_28">
     <!-- locality#6 -->
     <g transform="translate(546.94 295.0295)scale(0.144 -0.144)">
      <use xlink:href="#DejaVuSans-6c"/>
      <use x="27.783203125" xlink:href="#DejaVuSans-6f"/>
      <use x="88.96484375" xlink:href="#DejaVuSans-63"/>
      <use x="143.9453125" xlink:href="#DejaVuSans-61"/>
      <use x="205.224609375" xlink:href="#DejaVuSans-6c"/>
      <use x="233.0078125" xlink:href="#DejaVuSans-69"/>
      <use x="260.791015625" xlink:href="#DejaVuSans-74"/>
      <use x="300.0" xlink:href="#DejaVuSans-79"/>
      <use x="359.1796875" xlink:href="#DejaVuSans-23"/>
      <use x="442.96875" xlink:href="#DejaVuSans-36"/>
     </g>
    </g>
    <g id="line2d_69">
     <path d="
M510.94 311.126
L531.1 311.126" style="fill:none;stroke:#000000;stroke-linecap:square;"/>
    </g>
    <g id="line2d_70"/>
    <g id="text_29">
     <!-- locality#7 -->
     <defs>
      <path d="
M8.20312 72.9062
L55.0781 72.9062
L55.0781 68.7031
L28.6094 0
L18.3125 0
L43.2188 64.5938
L8.20312 64.5938
z
" id="DejaVuSans-37"/>
     </defs>
     <g transform="translate(546.94 316.166)scale(0.144 -0.144)">
      <use xlink:href="#DejaVuSans-6c"/>
      <use x="27.783203125" xlink:href="#DejaVuSans-6f"/>
      <use x="88.96484375" xlink:href="#DejaVuSans-63"/>
      <use x="143.9453125" xlink:href="#DejaVuSans-61"/>
      <use x="205.224609375" xlink:href="#DejaVuSans-6c"/>
      <use x="233.0078125" xlink:href="#DejaVuSans-69"/>
      <use x="260.791015625" xlink:href="#DejaVuSans-74"/>
      <use x="300.0" xlink:href="#DejaVuSans-79"/>
      <use x="359.1796875" xlink:href="#DejaVuSans-23"/>
      <use x="442.96875" xlink:href="#DejaVuSans-37"/>
     </g>
    </g>
    <g id="line2d_71">
     <path d="
M510.94 332.262
L531.1 332.262" style="fill:none;stroke:#0000ff;stroke-linecap:square;"/>
    </g>
    <g id="line2d_72"/>
    <g id="text_30">
     <!-- locality#8 -->
     <g transform="translate(546.94 337.3025)scale(0.144 -0.144)">
      <use xlink:href="#DejaVuSans-6c"/>
      <use x="27.783203125" xlink:href="#DejaVuSans-6f"/>
      <use x="88.96484375" xlink:href="#DejaVuSans-63"/>
      <use x="143.9453125" xlink:href="#DejaVuSans-61"/>
      <use x="205.224609375" xlink:href="#DejaVuSans-6c"/>
      <use x="233.0078125" xlink:href="#DejaVuSans-69"/>
      <use x="260.791015625" xlink:href="#DejaVuSans-74"/>
      <use x="300.0" xlink:href="#DejaVuSans-79"/>
      <use x="359.1796875" xlink:href="#DejaVuSans-23"/>
      <use x="442.96875" xlink:href="#DejaVuSans-38"/>
     </g>
    </g>
    <g id="line2d_73">
     <path d="
M510.94 353.399
L531.1 353.399" style="fill:none;stroke:#008000;stroke-linecap:square;"/>
    </g>
    <g id="line2d_74"/>
    <g id="text_31">
     <!-- locality#9 -->
     <defs>
      <path d="
M10.9844 1.51562
L10.9844 10.5
Q14.7031 8.73438 18.5 7.8125
Q22.3125 6.89062 25.9844 6.89062
Q35.75 6.89062 40.8906 13.4531
Q46.0469 20.0156 46.7812 33.4062
Q43.9531 29.2031 39.5938 26.9531
Q35.25 24.7031 29.9844 24.7031
Q19.0469 24.7031 12.6719 31.3125
Q6.29688 37.9375 6.29688 49.4219
Q6.29688 60.6406 12.9375 67.4219
Q19.5781 74.2188 30.6094 74.2188
Q43.2656 74.2188 49.9219 64.5156
Q56.5938 54.8281 56.5938 36.375
Q56.5938 19.1406 48.4062 8.85938
Q40.2344 -1.42188 26.4219 -1.42188
Q22.7031 -1.42188 18.8906 -0.6875
Q15.0938 0.046875 10.9844 1.51562
M30.6094 32.4219
Q37.25 32.4219 41.125 36.9531
Q45.0156 41.5 45.0156 49.4219
Q45.0156 57.2812 41.125 61.8438
Q37.25 66.4062 30.6094 66.4062
Q23.9688 66.4062 20.0938 61.8438
Q16.2188 57.2812 16.2188 49.4219
Q16.2188 41.5 20.0938 36.9531
Q23.9688 32.4219 30.6094 32.4219" id="DejaVuSans-39"/>
     </defs>
     <g transform="translate(546.94 358.439)scale(0.144 -0.144)">
      <use xlink:href="#DejaVuSans-6c"/>
      <use x="27.783203125" xlink:href="#DejaVuSans-6f"/>
      <use x="88.96484375" xlink:href="#DejaVuSans-63"/>
      <use x="143.9453125" xlink:href="#DejaVuSans-61"/>
      <use x="205.224609375" xlink:href="#DejaVuSans-6c"/>
      <use x="233.0078125" xlink:href="#DejaVuSans-69"/>
      <use x="260.791015625" xlink:href="#DejaVuSans-74"/>
      <use x="300.0" xlink:href="#DejaVuSans-79"/>
      <use x="359.1796875" xlink:href="#DejaVuSans-23"/>
      <use x="442.96875" xlink:href="#DejaVuSans-39"/>
     </g>
    </g>
   </g>
  </g>
 </g>
 <defs>
  <clipPath id="p7a17b32626">
   <rect height="345.6" width="446.4" x="47.26" y="23.14175"/>
  </clipPath>
 </defs>
</svg>
