<?xml version="1.0" encoding="utf-8" standalone="no"?>
<!DOCTYPE svg PUBLIC "-//W3C//DTD SVG 1.1//EN"
  "http://www.w3.org/Graphics/SVG/1.1/DTD/svg11.dtd">
<!-- Created with matplotlib (http://matplotlib.org/) -->
<svg height="408pt" version="1.1" viewBox="0 0 624 408" width="624pt" xmlns="http://www.w3.org/2000/svg" xmlns:xlink="http://www.w3.org/1999/xlink">
 <defs>
  <style type="text/css">
*{stroke-linecap:butt;stroke-linejoin:round;}
  </style>
 </defs>
 <g id="figure_1">
  <g id="patch_1">
   <path d="
M0 408.169
L624.579 408.169
L624.579 0
L0 0
z
" style="fill:#ffffff;"/>
  </g>
  <g id="axes_1">
   <g id="patch_2">
    <path d="
M31.99 368.742
L478.39 368.742
L478.39 23.1417
L31.99 23.1417
z
" style="fill:#ffffff;"/>
   </g>
   <g id="line2d_1">
    <path clip-path="url(#p77ac736e8d)" d="
M31.99 368.742
L478.39 368.742
L478.39 368.742" style="fill:none;stroke:#0000ff;stroke-linecap:square;"/>
   </g>
   <g id="line2d_2">
    <path clip-path="url(#p77ac736e8d)" d="
M31.99 368.742
L40.8162 368.742
L41.1556 96.1017
L41.4951 313.062
L41.8346 368.742
L51.3397 368.742
L51.6791 345.702
L52.0186 63.4617
L52.3581 368.742
L61.8632 368.742
L62.2026 345.702
L62.5421 63.4617
L62.8816 368.742
L72.3867 368.742
L72.7261 345.702
L73.0656 63.4617
L73.4051 368.742
L82.9102 368.742
L83.2496 345.702
L83.5891 63.4617
L83.9286 368.742
L93.4337 368.742
L93.7731 345.702
L94.1126 63.4617
L94.4521 368.742
L103.957 368.742
L104.297 345.702
L104.636 63.4617
L104.976 368.742
L114.481 368.742
L114.82 345.702
L115.16 63.4617
L115.499 368.742
L125.004 368.742
L125.344 345.702
L125.683 63.4617
L126.023 368.742
L135.528 368.742
L135.867 345.702
L136.207 63.4617
L136.546 368.742
L146.051 368.742
L146.391 345.702
L146.73 63.4617
L147.07 368.742
L156.575 368.742
L156.914 345.702
L157.254 63.4617
L157.593 368.742
L167.098 368.742
L167.438 345.702
L167.777 63.4617
L168.117 368.742
L177.622 368.742
L177.961 345.702
L178.301 63.4617
L178.64 368.742
L188.145 368.742
L188.485 345.702
L188.824 63.4617
L189.164 368.742
L198.669 368.742
L199.008 345.702
L199.348 63.4617
L199.687 368.742
L209.192 368.742
L209.532 345.702
L209.871 63.4617
L210.211 368.742
L219.716 368.742
L220.055 336.102
L220.395 73.0617
L220.734 368.742
L230.239 368.742
L230.579 345.702
L230.918 63.4617
L231.258 368.742
L240.763 368.742
L241.102 345.702
L241.442 63.4617
L241.781 368.742
L251.286 368.742
L251.626 345.702
L251.965 63.4617
L252.305 368.742
L261.81 368.742
L262.149 345.702
L262.489 63.4617
L262.828 368.742
L272.333 368.742
L272.673 345.702
L273.012 63.4617
L273.352 368.742
L282.857 368.742
L283.196 345.702
L283.536 63.4617
L283.875 368.742
L293.38 368.742
L293.72 345.702
L294.059 63.4617
L294.399 368.742
L303.904 368.742
L304.243 345.702
L304.583 63.4617
L304.922 368.742
L314.427 368.742
L314.767 345.702
L315.106 63.4617
L315.446 368.742
L324.951 368.742
L325.29 345.702
L325.63 63.4617
L325.969 368.742
L335.474 368.742
L335.814 345.702
L336.153 63.4617
L336.493 368.742
L345.998 368.742
L346.337 345.702
L346.677 63.4617
L347.016 368.742
L356.521 368.742
L356.861 345.702
L357.2 63.4617
L357.54 368.742
L367.045 368.742
L367.384 345.702
L367.724 63.4617
L368.063 368.742
L377.568 368.742
L377.908 345.702
L378.247 63.4617
L378.587 368.742
L388.092 368.742
L388.431 345.702
L388.771 63.4617
L389.11 368.742
L398.615 368.742
L398.955 345.702
L399.294 63.4617
L399.633 368.742
L409.139 368.742
L409.478 343.782
L409.818 65.3817
L410.157 368.742
L419.662 368.742
L420.002 345.702
L420.341 63.4617
L420.68 368.742
L430.186 368.742
L430.525 345.702
L430.865 63.4617
L431.204 368.742
L440.709 368.742
L441.049 345.702
L441.388 63.4617
L441.727 368.742
L451.233 368.742
L451.572 345.702
L451.912 63.4617
L452.251 368.742
L461.756 368.742
L462.096 345.702
L462.435 63.4617
L462.774 368.742
L472.28 368.742
L472.619 345.702
L472.959 63.4617
L473.298 368.742
L478.39 368.742
L478.39 368.742" style="fill:none;stroke:#008000;stroke-linecap:square;"/>
   </g>
   <g id="line2d_3">
    <path clip-path="url(#p77ac736e8d)" d="
M31.99 368.742
L40.8162 368.742
L41.1556 42.3417
L41.4951 366.822
L41.8346 368.742
L51.3397 368.742
L51.6791 345.702
L52.0186 63.4617
L52.3581 368.742
L61.8632 368.742
L62.2026 232.422
L62.5421 176.742
L62.8816 368.742
L72.3867 368.742
L72.7261 345.702
L73.0656 63.4617
L73.4051 368.742
L82.9102 368.742
L83.2496 345.702
L83.5891 63.4617
L83.9286 368.742
L93.4337 368.742
L93.7731 345.702
L94.1126 63.4617
L94.4521 368.742
L103.957 368.742
L104.297 345.702
L104.636 63.4617
L104.976 368.742
L114.481 368.742
L114.82 311.142
L115.16 98.0217
L115.499 368.742
L125.004 368.742
L125.344 240.102
L125.683 169.062
L126.023 368.742
L135.528 368.742
L135.867 345.702
L136.207 63.4617
L136.546 368.742
L146.051 368.742
L146.391 326.502
L146.73 82.6617
L147.07 368.742
L156.575 368.742
L156.914 305.382
L157.254 103.782
L157.593 368.742
L167.098 368.742
L167.438 274.662
L167.777 134.502
L168.117 368.742
L177.622 368.742
L177.961 301.542
L178.301 107.622
L178.64 368.742
L188.145 368.742
L188.485 286.182
L188.824 122.982
L189.164 368.742
L198.669 368.742
L199.008 341.862
L199.348 67.3017
L199.687 368.742
L209.192 368.742
L209.532 309.222
L209.871 99.9417
L210.211 368.742
L219.716 368.742
L220.395 155.622
L220.734 368.742
L230.239 368.742
L230.579 305.382
L230.918 103.782
L231.258 368.742
L240.763 368.742
L241.102 243.942
L241.442 165.222
L241.781 368.742
L251.286 368.742
L251.626 307.302
L251.965 103.782
L252.305 366.822
L252.644 368.742
L261.81 368.742
L262.489 140.262
L262.828 368.742
L272.333 368.742
L272.673 330.342
L273.012 78.8217
L273.352 368.742
L282.857 368.742
L283.196 274.662
L283.536 134.502
L283.875 368.742
L293.38 368.742
L293.72 293.862
L294.059 115.302
L294.399 368.742
L303.904 368.742
L304.243 278.502
L304.583 130.662
L304.922 368.742
L314.427 368.742
L314.767 291.942
L315.106 117.222
L315.446 368.742
L324.951 368.742
L325.29 330.342
L325.63 78.8217
L325.969 368.742
L335.474 368.742
L335.814 286.182
L336.153 122.982
L336.493 368.742
L345.998 368.742
L346.337 314.982
L346.677 94.1817
L347.016 368.742
L356.521 368.742
L356.861 307.302
L357.2 101.862
L357.54 368.742
L367.045 368.742
L367.384 320.742
L367.724 88.4217
L368.063 368.742
L377.568 368.742
L377.908 288.102
L378.247 121.062
L378.587 368.742
L388.092 368.742
L388.431 272.742
L388.771 136.422
L389.11 368.742
L398.615 368.742
L398.955 336.102
L399.294 73.0617
L399.633 368.742
L409.139 368.742
L409.478 286.182
L409.818 122.982
L410.157 368.742
L419.662 368.742
L420.002 297.702
L420.341 111.462
L420.68 368.742
L430.186 368.742
L430.525 301.542
L430.865 107.622
L431.204 368.742
L440.709 368.742
L441.049 293.862
L441.388 115.302
L441.727 368.742
L451.233 368.742
L451.912 144.102
L452.251 368.742
L461.756 368.742
L462.096 284.262
L462.435 124.902
L462.774 368.742
L472.28 368.742
L472.959 157.542
L473.298 368.742
L478.39 368.742
L478.39 368.742" style="fill:none;stroke:#ff0000;stroke-linecap:square;"/>
   </g>
   <g id="line2d_4">
    <path clip-path="url(#p77ac736e8d)" d="
M31.99 368.742
L40.8162 368.742
L41.1556 42.3417
L41.4951 366.822
L41.8346 368.742
L51.3397 368.742
L51.6791 343.782
L52.0186 65.3817
L52.3581 368.742
L61.8632 368.742
L62.2026 345.702
L62.5421 63.4617
L62.8816 368.742
L72.3867 368.742
L72.7261 345.702
L73.0656 63.4617
L73.4051 368.742
L82.9102 368.742
L83.2496 345.702
L83.5891 63.4617
L83.9286 368.742
L93.4337 368.742
L93.7731 345.702
L94.1126 63.4617
L94.4521 368.742
L103.957 368.742
L104.297 345.702
L104.636 63.4617
L104.976 368.742
L114.481 368.742
L114.82 345.702
L115.16 63.4617
L115.499 368.742
L125.004 368.742
L125.344 301.542
L125.683 107.622
L126.023 368.742
L135.528 368.742
L135.867 345.702
L136.207 63.4617
L136.546 368.742
L146.051 368.742
L146.391 345.702
L146.73 63.4617
L147.07 368.742
L156.575 368.742
L156.914 339.942
L157.254 69.2217
L157.593 368.742
L167.098 368.742
L167.438 320.742
L167.777 88.4217
L168.117 368.742
L177.622 368.742
L177.961 345.702
L178.301 63.4617
L178.64 368.742
L188.145 368.742
L188.485 332.262
L188.824 76.9017
L189.164 368.742
L198.669 368.742
L199.008 345.702
L199.348 63.4617
L199.687 368.742
L209.192 368.742
L209.532 334.182
L209.871 74.9817
L210.211 368.742
L219.716 368.742
L220.055 272.742
L220.395 136.422
L220.734 368.742
L230.239 368.742
L230.579 345.702
L230.918 63.4617
L231.258 368.742
L240.763 368.742
L241.102 286.182
L241.442 122.982
L241.781 368.742
L251.286 368.742
L251.626 345.702
L251.965 63.4617
L252.305 368.742
L261.81 368.742
L262.149 322.662
L262.489 86.5017
L262.828 368.742
L272.333 368.742
L272.673 345.702
L273.012 63.4617
L273.352 368.742
L282.857 368.742
L283.196 314.982
L283.536 94.1817
L283.875 368.742
L293.38 368.742
L293.72 318.822
L294.059 90.3417
L294.399 368.742
L303.904 368.742
L304.243 309.222
L304.583 99.9417
L304.922 368.742
L314.427 368.742
L314.767 311.142
L315.106 98.0217
L315.446 368.742
L324.951 368.742
L325.29 345.702
L325.63 63.4617
L325.969 368.742
L335.474 368.742
L335.814 320.742
L336.153 88.4217
L336.493 368.742
L345.998 368.742
L346.337 316.902
L346.677 92.2617
L347.016 368.742
L356.521 368.742
L356.861 328.422
L357.2 80.7417
L357.54 368.742
L367.045 368.742
L367.384 326.502
L367.724 82.6617
L368.063 368.742
L377.568 368.742
L377.908 297.702
L378.247 111.462
L378.587 368.742
L388.092 368.742
L388.431 305.382
L388.771 103.782
L389.11 368.742
L398.615 368.742
L398.955 345.702
L399.294 63.4617
L399.633 368.742
L409.139 368.742
L409.478 280.422
L409.818 128.742
L410.157 368.742
L419.662 368.742
L420.002 343.782
L420.341 65.3817
L420.68 368.742
L430.186 368.742
L430.525 305.382
L430.865 103.782
L431.204 368.742
L440.709 368.742
L441.049 320.742
L441.388 90.3417
L441.727 366.822
L442.067 368.742
L451.233 368.742
L451.572 297.702
L451.912 111.462
L452.251 368.742
L461.756 368.742
L462.096 339.942
L462.435 71.1417
L462.774 366.822
L463.114 368.742
L472.28 368.742
L472.619 307.302
L472.959 101.862
L473.298 368.742
L478.39 368.742
L478.39 368.742" style="fill:none;stroke:#00bfbf;stroke-linecap:square;"/>
   </g>
   <g id="line2d_5">
    <path clip-path="url(#p77ac736e8d)" d="
M31.99 368.742
L40.8162 368.742
L41.1556 42.3417
L41.4951 366.822
L41.8346 368.742
L51.3397 368.742
L51.6791 192.102
L52.0186 217.062
L52.3581 368.742
L61.8632 368.742
L62.2026 182.502
L62.5421 228.582
L62.8816 366.822
L63.221 368.742
L72.3867 368.742
L72.7261 245.862
L73.0656 163.302
L73.4051 368.742
L82.9102 368.742
L83.5891 155.622
L83.9286 366.822
L84.268 368.742
L93.4337 368.742
L93.7731 336.102
L94.1126 73.0617
L94.4521 368.742
L103.957 368.742
L104.297 242.022
L104.636 167.142
L104.976 368.742
L114.481 368.742
L114.82 245.862
L115.16 163.302
L115.499 368.742
L125.004 368.742
L125.344 121.062
L125.683 288.102
L126.023 368.742
L135.528 368.742
L135.867 303.462
L136.207 105.702
L136.546 368.742
L146.051 368.742
L146.391 245.862
L146.73 165.222
L147.07 366.822
L147.409 368.742
L156.575 368.742
L156.914 245.862
L157.254 163.302
L157.593 368.742
L167.098 368.742
L167.438 234.342
L167.777 174.822
L168.117 368.742
L177.622 368.742
L177.961 293.862
L178.301 115.302
L178.64 368.742
L188.145 368.742
L188.485 278.502
L188.824 130.662
L189.164 368.742
L198.669 368.742
L199.008 334.182
L199.348 74.9817
L199.687 368.742
L209.192 368.742
L209.532 286.182
L209.871 122.982
L210.211 368.742
L219.716 368.742
L220.055 209.382
L220.395 199.782
L220.734 368.742
L230.239 368.742
L230.579 345.702
L230.918 63.4617
L231.258 368.742
L240.763 368.742
L241.102 299.622
L241.442 109.542
L241.781 368.742
L251.286 368.742
L251.626 345.702
L251.965 63.4617
L252.305 368.742
L261.81 368.742
L262.149 322.662
L262.489 86.5017
L262.828 368.742
L272.333 368.742
L272.673 345.702
L273.012 63.4617
L273.352 368.742
L282.857 368.742
L283.196 324.582
L283.536 84.5817
L283.875 368.742
L293.38 368.742
L293.72 320.742
L294.059 88.4217
L294.399 368.742
L303.904 368.742
L304.243 309.222
L304.583 99.9417
L304.922 368.742
L314.427 368.742
L314.767 309.222
L315.106 99.9417
L315.446 368.742
L324.951 368.742
L325.29 345.702
L325.63 63.4617
L325.969 368.742
L335.474 368.742
L335.814 301.542
L336.153 107.622
L336.493 368.742
L345.998 368.742
L346.337 290.022
L346.677 119.142
L347.016 368.742
L356.521 368.742
L356.861 320.742
L357.2 88.4217
L357.54 368.742
L367.045 368.742
L367.384 322.662
L367.724 86.5017
L368.063 368.742
L377.568 368.742
L377.908 270.822
L378.247 138.342
L378.587 368.742
L388.092 368.742
L388.431 322.662
L388.771 86.5017
L389.11 368.742
L398.615 368.742
L398.955 345.702
L399.294 63.4617
L399.633 368.742
L409.139 368.742
L409.478 309.222
L409.818 99.9417
L410.157 368.742
L419.662 368.742
L420.002 345.702
L420.341 63.4617
L420.68 368.742
L430.186 368.742
L430.525 338.022
L430.865 71.1417
L431.204 368.742
L440.709 368.742
L441.049 345.702
L441.388 63.4617
L441.727 368.742
L451.233 368.742
L451.572 324.582
L451.912 86.5017
L452.251 366.822
L452.59 368.742
L461.756 368.742
L462.096 326.502
L462.435 82.6617
L462.774 368.742
L472.28 368.742
L472.619 338.022
L472.959 71.1417
L473.298 368.742
L478.39 368.742
L478.39 368.742" style="fill:none;stroke:#bf00bf;stroke-linecap:square;"/>
   </g>
   <g id="line2d_6">
    <path clip-path="url(#p77ac736e8d)" d="
M31.99 368.742
L40.8162 368.742
L41.1556 46.1817
L41.4951 362.982
L41.8346 368.742
L51.3397 368.742
L51.6791 345.702
L52.0186 63.4617
L52.3581 368.742
L61.8632 368.742
L62.2026 345.702
L62.5421 63.4617
L62.8816 368.742
L72.3867 368.742
L72.7261 345.702
L73.0656 63.4617
L73.4051 368.742
L82.9102 368.742
L83.2496 345.702
L83.5891 63.4617
L83.9286 368.742
L93.4337 368.742
L93.7731 345.702
L94.1126 63.4617
L94.4521 368.742
L103.957 368.742
L104.297 345.702
L104.636 63.4617
L104.976 368.742
L114.481 368.742
L114.82 345.702
L115.16 63.4617
L115.499 368.742
L125.004 368.742
L125.344 282.342
L125.683 126.822
L126.023 368.742
L135.528 368.742
L135.867 345.702
L136.207 63.4617
L136.546 368.742
L146.051 368.742
L146.391 345.702
L146.73 63.4617
L147.07 368.742
L156.575 368.742
L156.914 345.702
L157.254 63.4617
L157.593 368.742
L167.098 368.742
L167.438 345.702
L167.777 63.4617
L168.117 368.742
L177.622 368.742
L177.961 345.702
L178.301 63.4617
L178.64 368.742
L188.145 368.742
L188.485 345.702
L188.824 63.4617
L189.164 368.742
L198.669 368.742
L199.008 345.702
L199.348 63.4617
L199.687 368.742
L209.192 368.742
L209.532 345.702
L209.871 63.4617
L210.211 368.742
L219.716 368.742
L220.055 307.302
L220.395 101.862
L220.734 368.742
L230.239 368.742
L230.579 345.702
L230.918 63.4617
L231.258 368.742
L240.763 368.742
L241.102 307.302
L241.442 101.862
L241.781 368.742
L251.286 368.742
L251.626 345.702
L251.965 63.4617
L252.305 368.742
L261.81 368.742
L262.149 320.742
L262.489 88.4217
L262.828 368.742
L272.333 368.742
L272.673 345.702
L273.012 63.4617
L273.352 368.742
L282.857 368.742
L283.196 313.062
L283.536 96.1017
L283.875 368.742
L293.38 368.742
L293.72 318.822
L294.059 90.3417
L294.399 368.742
L303.904 368.742
L304.243 345.702
L304.583 63.4617
L304.922 368.742
L314.427 368.742
L314.767 301.542
L315.106 107.622
L315.446 368.742
L324.951 368.742
L325.29 341.862
L325.63 67.3017
L325.969 368.742
L335.474 368.742
L335.814 320.742
L336.153 88.4217
L336.493 368.742
L345.998 368.742
L346.337 339.942
L346.677 69.2217
L347.016 368.742
L356.521 368.742
L356.861 338.022
L357.2 71.1417
L357.54 368.742
L367.045 368.742
L367.384 341.862
L367.724 67.3017
L368.063 368.742
L377.568 368.742
L377.908 349.542
L378.247 59.6217
L378.587 368.742
L388.092 368.742
L388.431 343.782
L388.771 65.3817
L389.11 368.742
L398.615 368.742
L398.955 345.702
L399.294 63.4617
L399.633 368.742
L409.139 368.742
L409.478 320.742
L409.818 88.4217
L410.157 368.742
L419.662 368.742
L420.002 345.702
L420.341 63.4617
L420.68 368.742
L430.186 368.742
L430.525 336.102
L430.865 74.9817
L431.204 366.822
L431.543 368.742
L440.709 368.742
L441.049 351.462
L441.388 59.6217
L441.727 366.822
L442.067 368.742
L451.233 368.742
L451.572 343.782
L451.912 65.3817
L452.251 368.742
L461.756 368.742
L462.096 353.382
L462.435 55.7817
L462.774 368.742
L472.28 368.742
L472.619 328.422
L472.959 80.7417
L473.298 368.742
L478.39 368.742
L478.39 368.742" style="fill:none;stroke:#bfbf00;stroke-linecap:square;"/>
   </g>
   <g id="line2d_7">
    <path clip-path="url(#p77ac736e8d)" d="
M31.99 368.742
L40.8162 368.742
L41.1556 42.3417
L41.4951 366.822
L41.8346 368.742
L51.3397 368.742
L51.6791 345.702
L52.0186 63.4617
L52.3581 368.742
L61.8632 368.742
L62.2026 345.702
L62.5421 63.4617
L62.8816 368.742
L72.3867 368.742
L72.7261 345.702
L73.0656 63.4617
L73.4051 368.742
L82.9102 368.742
L83.2496 345.702
L83.5891 63.4617
L83.9286 368.742
L93.4337 368.742
L93.7731 345.702
L94.1126 63.4617
L94.4521 368.742
L103.957 368.742
L104.297 345.702
L104.636 63.4617
L104.976 368.742
L114.481 368.742
L114.82 345.702
L115.16 63.4617
L115.499 368.742
L125.004 368.742
L125.683 140.262
L126.023 368.742
L135.528 368.742
L135.867 345.702
L136.207 63.4617
L136.546 368.742
L146.051 368.742
L146.391 345.702
L146.73 63.4617
L147.07 368.742
L156.575 368.742
L156.914 345.702
L157.254 63.4617
L157.593 368.742
L167.098 368.742
L167.438 353.382
L167.777 55.7817
L168.117 368.742
L177.622 368.742
L177.961 345.702
L178.301 63.4617
L178.64 368.742
L188.145 368.742
L188.485 345.702
L188.824 63.4617
L189.164 368.742
L198.669 368.742
L199.008 345.702
L199.348 63.4617
L199.687 368.742
L209.192 368.742
L209.532 345.702
L209.871 63.4617
L210.211 368.742
L219.716 368.742
L220.055 307.302
L220.395 101.862
L220.734 368.742
L230.239 368.742
L230.579 345.702
L230.918 63.4617
L231.258 368.742
L240.763 368.742
L241.102 314.982
L241.442 94.1817
L241.781 368.742
L251.286 368.742
L251.626 345.702
L251.965 63.4617
L252.305 368.742
L261.81 368.742
L262.149 338.022
L262.489 71.1417
L262.828 368.742
L272.333 368.742
L272.673 345.702
L273.012 63.4617
L273.352 368.742
L282.857 368.742
L283.196 345.702
L283.536 63.4617
L283.875 368.742
L293.38 368.742
L293.72 343.782
L294.059 65.3817
L294.399 368.742
L303.904 368.742
L304.243 332.262
L304.583 76.9017
L304.922 368.742
L314.427 368.742
L314.767 328.422
L315.106 80.7417
L315.446 368.742
L324.951 368.742
L325.29 345.702
L325.63 63.4617
L325.969 368.742
L335.474 368.742
L335.814 345.702
L336.153 63.4617
L336.493 368.742
L345.998 368.742
L346.337 338.022
L346.677 71.1417
L347.016 368.742
L356.521 368.742
L356.861 345.702
L357.2 65.3817
L357.54 366.822
L357.879 368.742
L367.045 368.742
L367.384 345.702
L367.724 63.4617
L368.063 368.742
L377.568 368.742
L377.908 334.182
L378.247 74.9817
L378.587 368.742
L388.092 368.742
L388.431 336.102
L388.771 73.0617
L389.11 368.742
L398.615 368.742
L398.955 345.702
L399.294 63.4617
L399.633 368.742
L409.139 368.742
L409.478 301.542
L409.818 107.622
L410.157 368.742
L419.662 368.742
L420.002 345.702
L420.341 63.4617
L420.68 368.742
L430.186 368.742
L430.525 345.702
L430.865 63.4617
L431.204 368.742
L440.709 368.742
L441.049 345.702
L441.388 63.4617
L441.727 368.742
L451.233 368.742
L451.572 343.782
L451.912 65.3817
L452.251 368.742
L461.756 368.742
L462.096 341.862
L462.435 67.3017
L462.774 368.742
L472.28 368.742
L472.619 336.102
L472.959 73.0617
L473.298 368.742
L478.39 368.742
L478.39 368.742" style="fill:none;stroke:#000000;stroke-linecap:square;"/>
   </g>
   <g id="line2d_8">
    <path clip-path="url(#p77ac736e8d)" d="
M31.99 368.742
L40.8162 368.742
L41.1556 103.782
L41.4951 305.382
L41.8346 368.742
L51.3397 368.742
L51.6791 345.702
L52.0186 63.4617
L52.3581 368.742
L61.8632 368.742
L62.2026 345.702
L62.5421 63.4617
L62.8816 368.742
L72.3867 368.742
L72.7261 345.702
L73.0656 63.4617
L73.4051 368.742
L82.9102 368.742
L83.2496 345.702
L83.5891 63.4617
L83.9286 368.742
L93.4337 368.742
L93.7731 345.702
L94.1126 63.4617
L94.4521 368.742
L103.957 368.742
L104.297 345.702
L104.636 63.4617
L104.976 368.742
L114.481 368.742
L114.82 345.702
L115.16 63.4617
L115.499 368.742
L125.004 368.742
L125.344 345.702
L125.683 63.4617
L126.023 368.742
L135.528 368.742
L135.867 345.702
L136.207 63.4617
L136.546 368.742
L146.051 368.742
L146.391 345.702
L146.73 63.4617
L147.07 368.742
L156.575 368.742
L156.914 345.702
L157.254 63.4617
L157.593 368.742
L167.098 368.742
L167.438 345.702
L167.777 63.4617
L168.117 368.742
L177.622 368.742
L177.961 345.702
L178.301 63.4617
L178.64 368.742
L188.145 368.742
L188.485 345.702
L188.824 63.4617
L189.164 368.742
L198.669 368.742
L199.008 345.702
L199.348 63.4617
L199.687 368.742
L209.192 368.742
L209.532 345.702
L209.871 63.4617
L210.211 368.742
L219.716 368.742
L220.055 322.662
L220.395 86.5017
L220.734 368.742
L230.239 368.742
L230.579 345.702
L230.918 63.4617
L231.258 368.742
L240.763 368.742
L241.102 345.702
L241.442 63.4617
L241.781 368.742
L251.286 368.742
L251.626 345.702
L251.965 63.4617
L252.305 368.742
L261.81 368.742
L262.149 345.702
L262.489 63.4617
L262.828 368.742
L272.333 368.742
L272.673 345.702
L273.012 63.4617
L273.352 368.742
L282.857 368.742
L283.196 345.702
L283.536 63.4617
L283.875 368.742
L293.38 368.742
L293.72 345.702
L294.059 63.4617
L294.399 368.742
L303.904 368.742
L304.243 345.702
L304.583 63.4617
L304.922 368.742
L314.427 368.742
L314.767 345.702
L315.106 63.4617
L315.446 368.742
L324.951 368.742
L325.29 345.702
L325.63 63.4617
L325.969 368.742
L335.474 368.742
L335.814 345.702
L336.153 63.4617
L336.493 368.742
L345.998 368.742
L346.337 345.702
L346.677 63.4617
L347.016 368.742
L356.521 368.742
L356.861 345.702
L357.2 63.4617
L357.54 368.742
L367.045 368.742
L367.384 345.702
L367.724 63.4617
L368.063 368.742
L377.568 368.742
L377.908 345.702
L378.247 63.4617
L378.587 368.742
L388.092 368.742
L388.431 345.702
L388.771 63.4617
L389.11 368.742
L398.615 368.742
L398.955 345.702
L399.294 63.4617
L399.633 368.742
L409.139 368.742
L409.478 345.702
L409.818 63.4617
L410.157 368.742
L419.662 368.742
L420.002 345.702
L420.341 63.4617
L420.68 368.742
L430.186 368.742
L430.525 345.702
L430.865 63.4617
L431.204 368.742
L440.709 368.742
L441.049 345.702
L441.388 63.4617
L441.727 368.742
L451.233 368.742
L451.572 345.702
L451.912 63.4617
L452.251 368.742
L461.756 368.742
L462.096 345.702
L462.435 63.4617
L462.774 368.742
L472.28 368.742
L472.619 345.702
L472.959 63.4617
L473.298 368.742
L478.39 368.742
L478.39 368.742" style="fill:none;stroke:#0000ff;stroke-linecap:square;"/>
   </g>
   <g id="line2d_9">
    <path clip-path="url(#p77ac736e8d)" d="
M31.99 368.742
L40.8162 368.742
L41.1556 101.862
L41.4951 307.302
L41.8346 368.742
L51.3397 368.742
L51.6791 345.702
L52.0186 63.4617
L52.3581 368.742
L61.8632 368.742
L62.2026 345.702
L62.5421 63.4617
L62.8816 368.742
L72.3867 368.742
L72.7261 345.702
L73.0656 63.4617
L73.4051 368.742
L82.9102 368.742
L83.2496 345.702
L83.5891 63.4617
L83.9286 368.742
L93.4337 368.742
L93.7731 345.702
L94.1126 63.4617
L94.4521 368.742
L103.957 368.742
L104.297 345.702
L104.636 63.4617
L104.976 368.742
L114.481 368.742
L114.82 345.702
L115.16 63.4617
L115.499 368.742
L125.004 368.742
L125.344 345.702
L125.683 63.4617
L126.023 368.742
L135.528 368.742
L135.867 345.702
L136.207 63.4617
L136.546 368.742
L146.051 368.742
L146.391 345.702
L146.73 63.4617
L147.07 368.742
L156.575 368.742
L156.914 345.702
L157.254 63.4617
L157.593 368.742
L167.098 368.742
L167.438 345.702
L167.777 63.4617
L168.117 368.742
L177.622 368.742
L177.961 345.702
L178.301 63.4617
L178.64 368.742
L188.145 368.742
L188.485 345.702
L188.824 63.4617
L189.164 368.742
L198.669 368.742
L199.008 345.702
L199.348 63.4617
L199.687 368.742
L209.192 368.742
L209.532 345.702
L209.871 63.4617
L210.211 368.742
L219.716 368.742
L220.055 336.102
L220.395 73.0617
L220.734 368.742
L230.239 368.742
L230.579 345.702
L230.918 63.4617
L231.258 368.742
L240.763 368.742
L241.102 345.702
L241.442 63.4617
L241.781 368.742
L251.286 368.742
L251.626 345.702
L251.965 63.4617
L252.305 368.742
L261.81 368.742
L262.149 345.702
L262.489 63.4617
L262.828 368.742
L272.333 368.742
L272.673 345.702
L273.012 63.4617
L273.352 368.742
L282.857 368.742
L283.196 345.702
L283.536 63.4617
L283.875 368.742
L293.38 368.742
L293.72 345.702
L294.059 63.4617
L294.399 368.742
L303.904 368.742
L304.243 345.702
L304.583 63.4617
L304.922 368.742
L314.427 368.742
L314.767 345.702
L315.106 63.4617
L315.446 368.742
L324.951 368.742
L325.29 345.702
L325.63 63.4617
L325.969 368.742
L335.474 368.742
L335.814 345.702
L336.153 63.4617
L336.493 368.742
L345.998 368.742
L346.337 345.702
L346.677 63.4617
L347.016 368.742
L356.521 368.742
L356.861 345.702
L357.2 63.4617
L357.54 368.742
L367.045 368.742
L367.384 345.702
L367.724 63.4617
L368.063 368.742
L377.568 368.742
L377.908 345.702
L378.247 63.4617
L378.587 368.742
L388.092 368.742
L388.431 345.702
L388.771 63.4617
L389.11 368.742
L398.615 368.742
L398.955 345.702
L399.294 63.4617
L399.633 368.742
L409.139 368.742
L409.478 343.782
L409.818 65.3817
L410.157 368.742
L419.662 368.742
L420.002 345.702
L420.341 63.4617
L420.68 368.742
L430.186 368.742
L430.525 345.702
L430.865 63.4617
L431.204 368.742
L440.709 368.742
L441.049 345.702
L441.388 63.4617
L441.727 368.742
L451.233 368.742
L451.572 345.702
L451.912 63.4617
L452.251 368.742
L461.756 368.742
L462.096 345.702
L462.435 63.4617
L462.774 368.742
L472.28 368.742
L472.619 345.702
L472.959 63.4617
L473.298 368.742
L478.39 368.742
L478.39 368.742" style="fill:none;stroke:#008000;stroke-linecap:square;"/>
   </g>
   <g id="line2d_10">
    <path clip-path="url(#p77ac736e8d)" d="
M31.99 368.742
L40.8162 368.742
L41.1556 111.462
L41.4951 297.702
L41.8346 368.742
L51.3397 368.742
L51.6791 345.702
L52.0186 63.4617
L52.3581 368.742
L61.8632 368.742
L62.2026 345.702
L62.5421 63.4617
L62.8816 368.742
L72.3867 368.742
L72.7261 345.702
L73.0656 63.4617
L73.4051 368.742
L82.9102 368.742
L83.2496 345.702
L83.5891 63.4617
L83.9286 368.742
L93.4337 368.742
L93.7731 345.702
L94.1126 63.4617
L94.4521 368.742
L103.957 368.742
L104.297 345.702
L104.636 63.4617
L104.976 368.742
L114.481 368.742
L114.82 345.702
L115.16 63.4617
L115.499 368.742
L125.004 368.742
L125.344 345.702
L125.683 63.4617
L126.023 368.742
L135.528 368.742
L135.867 345.702
L136.207 63.4617
L136.546 368.742
L146.051 368.742
L146.391 345.702
L146.73 63.4617
L147.07 368.742
L156.575 368.742
L156.914 345.702
L157.254 63.4617
L157.593 368.742
L167.098 368.742
L167.438 345.702
L167.777 63.4617
L168.117 368.742
L177.622 368.742
L177.961 345.702
L178.301 63.4617
L178.64 368.742
L188.145 368.742
L188.485 345.702
L188.824 63.4617
L189.164 368.742
L198.669 368.742
L199.008 345.702
L199.348 63.4617
L199.687 368.742
L209.192 368.742
L209.532 345.702
L209.871 63.4617
L210.211 368.742
L219.716 368.742
L220.055 336.102
L220.395 73.0617
L220.734 368.742
L230.239 368.742
L230.579 345.702
L230.918 63.4617
L231.258 368.742
L240.763 368.742
L241.102 345.702
L241.442 63.4617
L241.781 368.742
L251.286 368.742
L251.626 345.702
L251.965 63.4617
L252.305 368.742
L261.81 368.742
L262.149 345.702
L262.489 63.4617
L262.828 368.742
L272.333 368.742
L272.673 345.702
L273.012 63.4617
L273.352 368.742
L282.857 368.742
L283.196 345.702
L283.536 63.4617
L283.875 368.742
L293.38 368.742
L293.72 345.702
L294.059 63.4617
L294.399 368.742
L303.904 368.742
L304.243 345.702
L304.583 63.4617
L304.922 368.742
L314.427 368.742
L314.767 345.702
L315.106 63.4617
L315.446 368.742
L324.951 368.742
L325.29 345.702
L325.63 63.4617
L325.969 368.742
L335.474 368.742
L335.814 345.702
L336.153 63.4617
L336.493 368.742
L345.998 368.742
L346.337 345.702
L346.677 63.4617
L347.016 368.742
L356.521 368.742
L356.861 345.702
L357.2 63.4617
L357.54 368.742
L367.045 368.742
L367.384 345.702
L367.724 63.4617
L368.063 368.742
L377.568 368.742
L377.908 345.702
L378.247 63.4617
L378.587 368.742
L388.092 368.742
L388.431 345.702
L388.771 63.4617
L389.11 368.742
L398.615 368.742
L398.955 345.702
L399.294 63.4617
L399.633 368.742
L409.139 368.742
L409.478 343.782
L409.818 65.3817
L410.157 368.742
L419.662 368.742
L420.002 345.702
L420.341 63.4617
L420.68 368.742
L430.186 368.742
L430.525 345.702
L430.865 63.4617
L431.204 368.742
L440.709 368.742
L441.049 345.702
L441.388 63.4617
L441.727 368.742
L451.233 368.742
L451.572 345.702
L451.912 63.4617
L452.251 368.742
L461.756 368.742
L462.096 345.702
L462.435 63.4617
L462.774 368.742
L472.28 368.742
L472.619 345.702
L472.959 63.4617
L473.298 368.742
L478.39 368.742
L478.39 368.742" style="fill:none;stroke:#ff0000;stroke-linecap:square;"/>
   </g>
   <g id="line2d_11">
    <path clip-path="url(#p77ac736e8d)" d="
M31.99 368.742
L40.8162 368.742
L41.1556 61.5417
L41.4951 347.622
L41.8346 368.742
L51.3397 368.742
L51.6791 345.702
L52.0186 63.4617
L52.3581 368.742
L61.8632 368.742
L62.2026 345.702
L62.5421 63.4617
L62.8816 368.742
L72.3867 368.742
L72.7261 345.702
L73.0656 63.4617
L73.4051 368.742
L82.9102 368.742
L83.2496 345.702
L83.5891 63.4617
L83.9286 368.742
L93.4337 368.742
L93.7731 345.702
L94.1126 63.4617
L94.4521 368.742
L103.957 368.742
L104.297 345.702
L104.636 63.4617
L104.976 368.742
L114.481 368.742
L114.82 345.702
L115.16 63.4617
L115.499 368.742
L125.004 368.742
L125.344 345.702
L125.683 63.4617
L126.023 368.742
L135.528 368.742
L135.867 345.702
L136.207 63.4617
L136.546 368.742
L146.051 368.742
L146.391 345.702
L146.73 63.4617
L147.07 368.742
L156.575 368.742
L156.914 345.702
L157.254 63.4617
L157.593 368.742
L167.098 368.742
L167.438 345.702
L167.777 63.4617
L168.117 368.742
L177.622 368.742
L177.961 345.702
L178.301 63.4617
L178.64 368.742
L188.145 368.742
L188.485 345.702
L188.824 63.4617
L189.164 368.742
L198.669 368.742
L199.008 345.702
L199.348 63.4617
L199.687 368.742
L209.192 368.742
L209.532 345.702
L209.871 63.4617
L210.211 368.742
L219.716 368.742
L220.055 334.182
L220.395 74.9817
L220.734 368.742
L230.239 368.742
L230.579 345.702
L230.918 63.4617
L231.258 368.742
L240.763 368.742
L241.102 345.702
L241.442 63.4617
L241.781 368.742
L251.286 368.742
L251.626 345.702
L251.965 63.4617
L252.305 368.742
L261.81 368.742
L262.149 345.702
L262.489 63.4617
L262.828 368.742
L272.333 368.742
L272.673 345.702
L273.012 63.4617
L273.352 368.742
L282.857 368.742
L283.196 345.702
L283.536 63.4617
L283.875 368.742
L293.38 368.742
L293.72 345.702
L294.059 63.4617
L294.399 368.742
L303.904 368.742
L304.243 345.702
L304.583 63.4617
L304.922 368.742
L314.427 368.742
L314.767 345.702
L315.106 63.4617
L315.446 368.742
L324.951 368.742
L325.29 345.702
L325.63 63.4617
L325.969 368.742
L335.474 368.742
L335.814 345.702
L336.153 63.4617
L336.493 368.742
L345.998 368.742
L346.337 345.702
L346.677 63.4617
L347.016 368.742
L356.521 368.742
L356.861 345.702
L357.2 63.4617
L357.54 368.742
L367.045 368.742
L367.384 345.702
L367.724 63.4617
L368.063 368.742
L377.568 368.742
L377.908 345.702
L378.247 63.4617
L378.587 368.742
L388.092 368.742
L388.431 345.702
L388.771 63.4617
L389.11 368.742
L398.615 368.742
L398.955 345.702
L399.294 63.4617
L399.633 368.742
L409.139 368.742
L409.478 345.702
L409.818 63.4617
L410.157 368.742
L419.662 368.742
L420.002 345.702
L420.341 63.4617
L420.68 368.742
L430.186 368.742
L430.525 345.702
L430.865 63.4617
L431.204 368.742
L440.709 368.742
L441.049 345.702
L441.388 63.4617
L441.727 368.742
L451.233 368.742
L451.572 345.702
L451.912 63.4617
L452.251 368.742
L461.756 368.742
L462.096 345.702
L462.435 63.4617
L462.774 368.742
L472.28 368.742
L472.619 345.702
L472.959 63.4617
L473.298 368.742
L478.39 368.742
L478.39 368.742" style="fill:none;stroke:#00bfbf;stroke-linecap:square;"/>
   </g>
   <g id="line2d_12">
    <path clip-path="url(#p77ac736e8d)" d="
M31.99 368.742
L40.8162 368.742
L41.1556 101.862
L41.4951 307.302
L41.8346 368.742
L51.3397 368.742
L51.6791 345.702
L52.0186 63.4617
L52.3581 368.742
L61.8632 368.742
L62.2026 345.702
L62.5421 63.4617
L62.8816 368.742
L72.3867 368.742
L72.7261 345.702
L73.0656 63.4617
L73.4051 368.742
L82.9102 368.742
L83.2496 345.702
L83.5891 63.4617
L83.9286 368.742
L93.4337 368.742
L93.7731 345.702
L94.1126 63.4617
L94.4521 368.742
L103.957 368.742
L104.297 345.702
L104.636 63.4617
L104.976 368.742
L114.481 368.742
L114.82 345.702
L115.16 63.4617
L115.499 368.742
L125.004 368.742
L125.344 345.702
L125.683 63.4617
L126.023 368.742
L135.528 368.742
L135.867 345.702
L136.207 63.4617
L136.546 368.742
L146.051 368.742
L146.391 345.702
L146.73 63.4617
L147.07 368.742
L156.575 368.742
L156.914 345.702
L157.254 63.4617
L157.593 368.742
L167.098 368.742
L167.438 345.702
L167.777 63.4617
L168.117 368.742
L177.622 368.742
L177.961 345.702
L178.301 63.4617
L178.64 368.742
L188.145 368.742
L188.485 345.702
L188.824 63.4617
L189.164 368.742
L198.669 368.742
L199.008 345.702
L199.348 63.4617
L199.687 368.742
L209.192 368.742
L209.532 345.702
L209.871 63.4617
L210.211 368.742
L219.716 368.742
L220.055 334.182
L220.395 74.9817
L220.734 368.742
L230.239 368.742
L230.579 345.702
L230.918 63.4617
L231.258 368.742
L240.763 368.742
L241.102 345.702
L241.442 63.4617
L241.781 368.742
L251.286 368.742
L251.626 345.702
L251.965 63.4617
L252.305 368.742
L261.81 368.742
L262.149 345.702
L262.489 63.4617
L262.828 368.742
L272.333 368.742
L272.673 345.702
L273.012 63.4617
L273.352 368.742
L282.857 368.742
L283.196 345.702
L283.536 63.4617
L283.875 368.742
L293.38 368.742
L293.72 345.702
L294.059 63.4617
L294.399 368.742
L303.904 368.742
L304.243 345.702
L304.583 63.4617
L304.922 368.742
L314.427 368.742
L314.767 345.702
L315.106 63.4617
L315.446 368.742
L324.951 368.742
L325.29 345.702
L325.63 63.4617
L325.969 368.742
L335.474 368.742
L335.814 345.702
L336.153 63.4617
L336.493 368.742
L345.998 368.742
L346.337 345.702
L346.677 63.4617
L347.016 368.742
L356.521 368.742
L356.861 345.702
L357.2 63.4617
L357.54 368.742
L367.045 368.742
L367.384 345.702
L367.724 63.4617
L368.063 368.742
L377.568 368.742
L377.908 345.702
L378.247 63.4617
L378.587 368.742
L388.092 368.742
L388.431 345.702
L388.771 63.4617
L389.11 368.742
L398.615 368.742
L398.955 345.702
L399.294 63.4617
L399.633 368.742
L409.139 368.742
L409.478 345.702
L409.818 63.4617
L410.157 368.742
L419.662 368.742
L420.002 345.702
L420.341 63.4617
L420.68 368.742
L430.186 368.742
L430.525 345.702
L430.865 63.4617
L431.204 368.742
L440.709 368.742
L441.049 345.702
L441.388 63.4617
L441.727 368.742
L451.233 368.742
L451.572 345.702
L451.912 63.4617
L452.251 368.742
L461.756 368.742
L462.096 345.702
L462.435 63.4617
L462.774 368.742
L472.28 368.742
L472.619 345.702
L472.959 63.4617
L473.298 368.742
L478.39 368.742
L478.39 368.742" style="fill:none;stroke:#bf00bf;stroke-linecap:square;"/>
   </g>
   <g id="line2d_13">
    <path clip-path="url(#p77ac736e8d)" d="
M31.99 368.742
L40.8162 368.742
L41.1556 42.3417
L41.4951 366.822
L41.8346 368.742
L51.3397 368.742
L51.6791 345.702
L52.0186 63.4617
L52.3581 368.742
L61.8632 368.742
L62.2026 345.702
L62.5421 63.4617
L62.8816 368.742
L72.3867 368.742
L72.7261 345.702
L73.0656 63.4617
L73.4051 368.742
L82.9102 368.742
L83.2496 345.702
L83.5891 63.4617
L83.9286 368.742
L93.4337 368.742
L93.7731 345.702
L94.1126 63.4617
L94.4521 368.742
L103.957 368.742
L104.297 345.702
L104.636 63.4617
L104.976 368.742
L114.481 368.742
L114.82 345.702
L115.16 63.4617
L115.499 368.742
L125.004 368.742
L125.344 338.022
L125.683 71.1417
L126.023 368.742
L135.528 368.742
L135.867 345.702
L136.207 63.4617
L136.546 368.742
L146.051 368.742
L146.391 345.702
L146.73 63.4617
L147.07 368.742
L156.575 368.742
L156.914 345.702
L157.254 63.4617
L157.593 368.742
L167.098 368.742
L167.438 345.702
L167.777 63.4617
L168.117 368.742
L177.622 368.742
L177.961 345.702
L178.301 63.4617
L178.64 368.742
L188.145 368.742
L188.485 345.702
L188.824 63.4617
L189.164 368.742
L198.669 368.742
L199.008 345.702
L199.348 63.4617
L199.687 368.742
L209.192 368.742
L209.532 345.702
L209.871 63.4617
L210.211 368.742
L219.716 368.742
L220.055 328.422
L220.395 80.7417
L220.734 368.742
L230.239 368.742
L230.579 345.702
L230.918 63.4617
L231.258 368.742
L240.763 368.742
L241.102 343.782
L241.442 65.3817
L241.781 368.742
L251.286 368.742
L251.626 345.702
L251.965 63.4617
L252.305 368.742
L261.81 368.742
L262.149 345.702
L262.489 63.4617
L262.828 368.742
L272.333 368.742
L272.673 345.702
L273.012 63.4617
L273.352 368.742
L282.857 368.742
L283.196 345.702
L283.536 63.4617
L283.875 368.742
L293.38 368.742
L293.72 345.702
L294.059 63.4617
L294.399 368.742
L303.904 368.742
L304.243 343.782
L304.583 65.3817
L304.922 368.742
L314.427 368.742
L314.767 345.702
L315.106 63.4617
L315.446 368.742
L324.951 368.742
L325.29 345.702
L325.63 63.4617
L325.969 368.742
L335.474 368.742
L335.814 345.702
L336.153 63.4617
L336.493 368.742
L345.998 368.742
L346.337 345.702
L346.677 63.4617
L347.016 368.742
L356.521 368.742
L356.861 345.702
L357.2 63.4617
L357.54 368.742
L367.045 368.742
L367.384 345.702
L367.724 63.4617
L368.063 368.742
L377.568 368.742
L377.908 345.702
L378.247 63.4617
L378.587 368.742
L388.092 368.742
L388.431 345.702
L388.771 63.4617
L389.11 368.742
L398.615 368.742
L398.955 345.702
L399.294 63.4617
L399.633 368.742
L409.139 368.742
L409.478 336.102
L409.818 73.0617
L410.157 368.742
L419.662 368.742
L420.002 345.702
L420.341 63.4617
L420.68 368.742
L430.186 368.742
L430.525 345.702
L430.865 63.4617
L431.204 368.742
L440.709 368.742
L441.049 345.702
L441.388 63.4617
L441.727 368.742
L451.233 368.742
L451.572 345.702
L451.912 63.4617
L452.251 368.742
L461.756 368.742
L462.096 343.782
L462.435 65.3817
L462.774 368.742
L472.28 368.742
L472.619 345.702
L472.959 63.4617
L473.298 368.742
L478.39 368.742
L478.39 368.742" style="fill:none;stroke:#bfbf00;stroke-linecap:square;"/>
   </g>
   <g id="line2d_14">
    <path clip-path="url(#p77ac736e8d)" d="
M31.99 368.742
L40.8162 368.742
L41.1556 42.3417
L41.4951 366.822
L41.8346 368.742
L51.3397 368.742
L51.6791 345.702
L52.0186 63.4617
L52.3581 368.742
L61.8632 368.742
L62.2026 345.702
L62.5421 63.4617
L62.8816 368.742
L72.3867 368.742
L72.7261 345.702
L73.0656 63.4617
L73.4051 368.742
L82.9102 368.742
L83.2496 345.702
L83.5891 63.4617
L83.9286 368.742
L93.4337 368.742
L93.7731 345.702
L94.1126 63.4617
L94.4521 368.742
L103.957 368.742
L104.297 345.702
L104.636 63.4617
L104.976 368.742
L114.481 368.742
L114.82 345.702
L115.16 63.4617
L115.499 368.742
L125.004 368.742
L125.344 276.582
L125.683 132.582
L126.023 368.742
L135.528 368.742
L135.867 345.702
L136.207 63.4617
L136.546 368.742
L146.051 368.742
L146.391 345.702
L146.73 63.4617
L147.07 368.742
L156.575 368.742
L156.914 345.702
L157.254 63.4617
L157.593 368.742
L167.098 368.742
L167.438 345.702
L167.777 63.4617
L168.117 368.742
L177.622 368.742
L177.961 345.702
L178.301 63.4617
L178.64 368.742
L188.145 368.742
L188.485 345.702
L188.824 63.4617
L189.164 368.742
L198.669 368.742
L199.008 345.702
L199.348 63.4617
L199.687 368.742
L209.192 368.742
L209.532 345.702
L209.871 63.4617
L210.211 368.742
L219.716 368.742
L220.055 313.062
L220.395 96.1017
L220.734 368.742
L230.239 368.742
L230.579 345.702
L230.918 63.4617
L231.258 368.742
L240.763 368.742
L241.102 313.062
L241.442 96.1017
L241.781 368.742
L251.286 368.742
L251.626 345.702
L251.965 63.4617
L252.305 368.742
L261.81 368.742
L262.149 332.262
L262.489 76.9017
L262.828 368.742
L272.333 368.742
L272.673 345.702
L273.012 63.4617
L273.352 368.742
L282.857 368.742
L283.196 320.742
L283.536 88.4217
L283.875 368.742
L293.38 368.742
L293.72 339.942
L294.059 69.2217
L294.399 368.742
L303.904 368.742
L304.243 314.982
L304.583 94.1817
L304.922 368.742
L314.427 368.742
L314.767 322.662
L315.106 86.5017
L315.446 368.742
L324.951 368.742
L325.29 345.702
L325.63 63.4617
L325.969 368.742
L335.474 368.742
L335.814 343.782
L336.153 65.3817
L336.493 368.742
L345.998 368.742
L346.337 345.702
L346.677 63.4617
L347.016 368.742
L356.521 368.742
L356.861 345.702
L357.2 63.4617
L357.54 368.742
L367.045 368.742
L367.384 345.702
L367.724 63.4617
L368.063 368.742
L377.568 368.742
L377.908 330.342
L378.247 78.8217
L378.587 368.742
L388.092 368.742
L388.431 345.702
L388.771 63.4617
L389.11 368.742
L398.615 368.742
L398.955 345.702
L399.294 63.4617
L399.633 368.742
L409.139 368.742
L409.478 316.902
L409.818 92.2617
L410.157 368.742
L419.662 368.742
L420.002 345.702
L420.341 63.4617
L420.68 368.742
L430.186 368.742
L430.525 345.702
L430.865 63.4617
L431.204 368.742
L440.709 368.742
L441.049 345.702
L441.388 63.4617
L441.727 368.742
L451.233 368.742
L451.572 324.582
L451.912 84.5817
L452.251 368.742
L461.756 368.742
L462.096 338.022
L462.435 71.1417
L462.774 368.742
L472.28 368.742
L472.619 330.342
L472.959 80.7417
L473.298 366.822
L473.637 368.742
L478.39 368.742
L478.39 368.742" style="fill:none;stroke:#000000;stroke-linecap:square;"/>
   </g>
   <g id="line2d_15">
    <path clip-path="url(#p77ac736e8d)" d="
M31.99 368.742
L40.8162 368.742
L41.1556 42.3417
L41.4951 366.822
L41.8346 368.742
L51.3397 368.742
L51.6791 286.182
L52.0186 122.982
L52.3581 368.742
L61.8632 368.742
L62.2026 307.302
L62.5421 101.862
L62.8816 368.742
L72.3867 368.742
L72.7261 334.182
L73.0656 74.9817
L73.4051 368.742
L82.9102 368.742
L83.2496 345.702
L83.5891 63.4617
L83.9286 368.742
L93.4337 368.742
L93.7731 345.702
L94.1126 63.4617
L94.4521 368.742
L103.957 368.742
L104.297 293.862
L104.636 115.302
L104.976 368.742
L114.481 368.742
L114.82 297.702
L115.16 111.462
L115.499 368.742
L125.004 368.742
L125.344 186.342
L125.683 222.822
L126.023 368.742
L135.528 368.742
L135.867 345.702
L136.207 63.4617
L136.546 368.742
L146.051 368.742
L146.391 299.622
L146.73 109.542
L147.07 368.742
L156.575 368.742
L156.914 295.782
L157.254 113.382
L157.593 368.742
L167.098 368.742
L167.438 316.902
L167.777 92.2617
L168.117 368.742
L177.622 368.742
L177.961 345.702
L178.301 63.4617
L178.64 368.742
L188.145 368.742
L188.485 311.142
L188.824 98.0217
L189.164 368.742
L198.669 368.742
L199.008 345.702
L199.348 63.4617
L199.687 368.742
L209.192 368.742
L209.532 345.702
L209.871 63.4617
L210.211 368.742
L219.716 368.742
L220.055 288.102
L220.395 121.062
L220.734 368.742
L230.239 368.742
L230.579 345.702
L230.918 63.4617
L231.258 368.742
L240.763 368.742
L241.102 297.702
L241.442 111.462
L241.781 368.742
L251.286 368.742
L251.626 345.702
L251.965 63.4617
L252.305 368.742
L261.81 368.742
L262.149 293.862
L262.489 115.302
L262.828 368.742
L272.333 368.742
L272.673 345.702
L273.012 63.4617
L273.352 368.742
L282.857 368.742
L283.196 295.782
L283.536 113.382
L283.875 368.742
L293.38 368.742
L293.72 288.102
L294.059 121.062
L294.399 368.742
L303.904 368.742
L304.583 146.022
L304.922 368.742
L314.427 368.742
L315.106 147.942
L315.446 368.742
L324.951 368.742
L325.29 290.022
L325.63 119.142
L325.969 368.742
L335.474 368.742
L336.153 144.102
L336.493 368.742
L345.998 368.742
L346.337 286.182
L346.677 122.982
L347.016 368.742
L356.521 368.742
L356.861 313.062
L357.2 96.1017
L357.54 368.742
L367.045 368.742
L367.384 305.382
L367.724 103.782
L368.063 368.742
L377.568 368.742
L377.908 291.942
L378.247 117.222
L378.587 368.742
L388.092 368.742
L388.431 332.262
L388.771 76.9017
L389.11 368.742
L398.615 368.742
L398.955 345.702
L399.294 63.4617
L399.633 368.742
L409.139 368.742
L409.478 311.142
L409.818 98.0217
L410.157 368.742
L419.662 368.742
L420.002 345.702
L420.341 63.4617
L420.68 368.742
L430.186 368.742
L430.525 332.262
L430.865 76.9017
L431.204 368.742
L440.709 368.742
L441.049 332.262
L441.388 76.9017
L441.727 368.742
L451.233 368.742
L451.572 309.222
L451.912 99.9417
L452.251 368.742
L461.756 368.742
L462.096 320.742
L462.435 88.4217
L462.774 368.742
L472.28 368.742
L472.619 299.622
L472.959 109.542
L473.298 368.742
L478.39 368.742
L478.39 368.742" style="fill:none;stroke:#0000ff;stroke-linecap:square;"/>
   </g>
   <g id="line2d_16">
    <path clip-path="url(#p77ac736e8d)" d="
M31.99 368.742
L40.8162 368.742
L41.1556 42.3417
L41.4951 366.822
L41.8346 368.742
L51.3397 368.742
L51.6791 217.062
L52.0186 192.102
L52.3581 368.742
L61.8632 368.742
L62.5421 151.782
L62.8816 368.742
L72.3867 368.742
L72.7261 280.422
L73.0656 128.742
L73.4051 368.742
L82.9102 368.742
L83.2496 226.662
L83.5891 182.502
L83.9286 368.742
L93.4337 368.742
L93.7731 316.902
L94.1126 92.2617
L94.4521 368.742
L103.957 368.742
L104.297 270.822
L104.636 138.342
L104.976 368.742
L114.481 368.742
L114.82 314.982
L115.16 94.1817
L115.499 368.742
L125.004 368.742
L125.344 174.822
L125.683 234.342
L126.023 368.742
L135.528 368.742
L135.867 307.302
L136.207 101.862
L136.546 368.742
L146.051 368.742
L146.73 155.622
L147.07 368.742
L156.575 368.742
L157.254 151.782
L157.593 368.742
L167.098 368.742
L167.438 240.102
L167.777 169.062
L168.117 368.742
L177.622 368.742
L177.961 316.902
L178.301 92.2617
L178.64 368.742
L188.145 368.742
L188.824 155.622
L189.164 368.742
L198.669 368.742
L199.008 330.342
L199.348 78.8217
L199.687 368.742
L209.192 368.742
L209.532 307.302
L209.871 101.862
L210.211 368.742
L219.716 368.742
L220.395 161.382
L220.734 368.742
L230.239 368.742
L230.579 345.702
L230.918 63.4617
L231.258 368.742
L240.763 368.742
L241.102 280.422
L241.442 128.742
L241.781 368.742
L251.286 368.742
L251.626 345.702
L251.965 63.4617
L252.305 368.742
L261.81 368.742
L262.149 284.262
L262.489 124.902
L262.828 368.742
L272.333 368.742
L272.673 303.462
L273.012 105.702
L273.352 368.742
L282.857 368.742
L283.196 282.342
L283.536 126.822
L283.875 368.742
L293.38 368.742
L293.72 274.662
L294.059 134.502
L294.399 368.742
L303.904 368.742
L304.243 278.502
L304.583 130.662
L304.922 368.742
L314.427 368.742
L314.767 284.262
L315.106 124.902
L315.446 368.742
L324.951 368.742
L325.29 332.262
L325.63 76.9017
L325.969 368.742
L335.474 368.742
L335.814 311.142
L336.153 98.0217
L336.493 368.742
L345.998 368.742
L346.337 322.662
L346.677 86.5017
L347.016 368.742
L356.521 368.742
L356.861 316.902
L357.2 92.2617
L357.54 368.742
L367.045 368.742
L367.384 336.102
L367.724 73.0617
L368.063 368.742
L377.568 368.742
L377.908 305.382
L378.247 103.782
L378.587 368.742
L388.092 368.742
L388.431 328.422
L388.771 80.7417
L389.11 368.742
L398.615 368.742
L398.955 345.702
L399.294 63.4617
L399.633 368.742
L409.139 368.742
L409.478 286.182
L409.818 122.982
L410.157 368.742
L419.662 368.742
L420.002 345.702
L420.341 63.4617
L420.68 368.742
L430.186 368.742
L430.525 320.742
L430.865 88.4217
L431.204 368.742
L440.709 368.742
L441.049 313.062
L441.388 96.1017
L441.727 368.742
L451.233 368.742
L451.572 295.782
L451.912 113.382
L452.251 368.742
L461.756 368.742
L462.096 291.942
L462.435 117.222
L462.774 368.742
L472.28 368.742
L472.619 293.862
L472.959 115.302
L473.298 368.742
L478.39 368.742
L478.39 368.742" style="fill:none;stroke:#008000;stroke-linecap:square;"/>
   </g>
   <g id="patch_3">
    <path d="
M31.99 368.742
L31.99 23.1417" style="fill:none;stroke:#000000;stroke-linecap:square;stroke-linejoin:miter;"/>
   </g>
   <g id="patch_4">
    <path d="
M478.39 368.742
L478.39 23.1417" style="fill:none;stroke:#000000;stroke-linecap:square;stroke-linejoin:miter;"/>
   </g>
   <g id="patch_5">
    <path d="
M31.99 23.1417
L478.39 23.1417" style="fill:none;stroke:#000000;stroke-linecap:square;stroke-linejoin:miter;"/>
   </g>
   <g id="patch_6">
    <path d="
M31.99 368.742
L478.39 368.742" style="fill:none;stroke:#000000;stroke-linecap:square;stroke-linejoin:miter;"/>
   </g>
   <g id="matplotlib.axis_1">
    <g id="xtick_1">
     <g id="line2d_17">
      <defs>
       <path d="
M0 0
L0 -4" id="mc7db9fdffb" style="stroke:#000000;stroke-width:0.5;"/>
      </defs>
      <g>
       <use style="stroke:#000000;stroke-width:0.5;" x="31.99" xlink:href="#mc7db9fdffb" y="368.74175"/>
      </g>
     </g>
     <g id="line2d_18">
      <defs>
       <path d="
M0 0
L0 4" id="m5a7d422ac3" style="stroke:#000000;stroke-width:0.5;"/>
      </defs>
      <g>
       <use style="stroke:#000000;stroke-width:0.5;" x="31.99" xlink:href="#m5a7d422ac3" y="23.14175"/>
      </g>
     </g>
     <g id="text_1">
      <!-- 0 -->
      <defs>
       <path d="
M31.7812 66.4062
Q24.1719 66.4062 20.3281 58.9062
Q16.5 51.4219 16.5 36.375
Q16.5 21.3906 20.3281 13.8906
Q24.1719 6.39062 31.7812 6.39062
Q39.4531 6.39062 43.2812 13.8906
Q47.125 21.3906 47.125 36.375
Q47.125 51.4219 43.2812 58.9062
Q39.4531 66.4062 31.7812 66.4062
M31.7812 74.2188
Q44.0469 74.2188 50.5156 64.5156
Q56.9844 54.8281 56.9844 36.375
Q56.9844 17.9688 50.5156 8.26562
Q44.0469 -1.42188 31.7812 -1.42188
Q19.5312 -1.42188 13.0625 8.26562
Q6.59375 17.9688 6.59375 36.375
Q6.59375 54.8281 13.0625 64.5156
Q19.5312 74.2188 31.7812 74.2188" id="DejaVuSans-30"/>
      </defs>
      <g transform="translate(28.9665625 381.859875)scale(0.12 -0.12)">
       <use xlink:href="#DejaVuSans-30"/>
      </g>
     </g>
    </g>
    <g id="xtick_2">
     <g id="line2d_19">
      <g>
       <use style="stroke:#000000;stroke-width:0.5;" x="99.8835361217" xlink:href="#mc7db9fdffb" y="368.74175"/>
      </g>
     </g>
     <g id="line2d_20">
      <g>
       <use style="stroke:#000000;stroke-width:0.5;" x="99.8835361217" xlink:href="#m5a7d422ac3" y="23.14175"/>
      </g>
     </g>
     <g id="text_2">
      <!-- 200 -->
      <defs>
       <path d="
M19.1875 8.29688
L53.6094 8.29688
L53.6094 0
L7.32812 0
L7.32812 8.29688
Q12.9375 14.1094 22.625 23.8906
Q32.3281 33.6875 34.8125 36.5312
Q39.5469 41.8438 41.4219 45.5312
Q43.3125 49.2188 43.3125 52.7812
Q43.3125 58.5938 39.2344 62.25
Q35.1562 65.9219 28.6094 65.9219
Q23.9688 65.9219 18.8125 64.3125
Q13.6719 62.7031 7.8125 59.4219
L7.8125 69.3906
Q13.7656 71.7812 18.9375 73
Q24.125 74.2188 28.4219 74.2188
Q39.75 74.2188 46.4844 68.5469
Q53.2188 62.8906 53.2188 53.4219
Q53.2188 48.9219 51.5312 44.8906
Q49.8594 40.875 45.4062 35.4062
Q44.1875 33.9844 37.6406 27.2188
Q31.1094 20.4531 19.1875 8.29688" id="DejaVuSans-32"/>
      </defs>
      <g transform="translate(89.2691611217 381.859875)scale(0.12 -0.12)">
       <use xlink:href="#DejaVuSans-32"/>
       <use x="63.623046875" xlink:href="#DejaVuSans-30"/>
       <use x="127.24609375" xlink:href="#DejaVuSans-30"/>
      </g>
     </g>
    </g>
    <g id="xtick_3">
     <g id="line2d_21">
      <g>
       <use style="stroke:#000000;stroke-width:0.5;" x="167.777072243" xlink:href="#mc7db9fdffb" y="368.74175"/>
      </g>
     </g>
     <g id="line2d_22">
      <g>
       <use style="stroke:#000000;stroke-width:0.5;" x="167.777072243" xlink:href="#m5a7d422ac3" y="23.14175"/>
      </g>
     </g>
     <g id="text_3">
      <!-- 400 -->
      <defs>
       <path d="
M37.7969 64.3125
L12.8906 25.3906
L37.7969 25.3906
z

M35.2031 72.9062
L47.6094 72.9062
L47.6094 25.3906
L58.0156 25.3906
L58.0156 17.1875
L47.6094 17.1875
L47.6094 0
L37.7969 0
L37.7969 17.1875
L4.89062 17.1875
L4.89062 26.7031
z
" id="DejaVuSans-34"/>
      </defs>
      <g transform="translate(157.016447243 381.859875)scale(0.12 -0.12)">
       <use xlink:href="#DejaVuSans-34"/>
       <use x="63.623046875" xlink:href="#DejaVuSans-30"/>
       <use x="127.24609375" xlink:href="#DejaVuSans-30"/>
      </g>
     </g>
    </g>
    <g id="xtick_4">
     <g id="line2d_23">
      <g>
       <use style="stroke:#000000;stroke-width:0.5;" x="235.670608365" xlink:href="#mc7db9fdffb" y="368.74175"/>
      </g>
     </g>
     <g id="line2d_24">
      <g>
       <use style="stroke:#000000;stroke-width:0.5;" x="235.670608365" xlink:href="#m5a7d422ac3" y="23.14175"/>
      </g>
     </g>
     <g id="text_4">
      <!-- 600 -->
      <defs>
       <path d="
M33.0156 40.375
Q26.375 40.375 22.4844 35.8281
Q18.6094 31.2969 18.6094 23.3906
Q18.6094 15.5312 22.4844 10.9531
Q26.375 6.39062 33.0156 6.39062
Q39.6562 6.39062 43.5312 10.9531
Q47.4062 15.5312 47.4062 23.3906
Q47.4062 31.2969 43.5312 35.8281
Q39.6562 40.375 33.0156 40.375
M52.5938 71.2969
L52.5938 62.3125
Q48.875 64.0625 45.0938 64.9844
Q41.3125 65.9219 37.5938 65.9219
Q27.8281 65.9219 22.6719 59.3281
Q17.5312 52.7344 16.7969 39.4062
Q19.6719 43.6562 24.0156 45.9219
Q28.375 48.1875 33.5938 48.1875
Q44.5781 48.1875 50.9531 41.5156
Q57.3281 34.8594 57.3281 23.3906
Q57.3281 12.1562 50.6875 5.35938
Q44.0469 -1.42188 33.0156 -1.42188
Q20.3594 -1.42188 13.6719 8.26562
Q6.98438 17.9688 6.98438 36.375
Q6.98438 53.6562 15.1875 63.9375
Q23.3906 74.2188 37.2031 74.2188
Q40.9219 74.2188 44.7031 73.4844
Q48.4844 72.75 52.5938 71.2969" id="DejaVuSans-36"/>
      </defs>
      <g transform="translate(225.035608365 381.859875)scale(0.12 -0.12)">
       <use xlink:href="#DejaVuSans-36"/>
       <use x="63.623046875" xlink:href="#DejaVuSans-30"/>
       <use x="127.24609375" xlink:href="#DejaVuSans-30"/>
      </g>
     </g>
    </g>
    <g id="xtick_5">
     <g id="line2d_25">
      <g>
       <use style="stroke:#000000;stroke-width:0.5;" x="303.564144487" xlink:href="#mc7db9fdffb" y="368.74175"/>
      </g>
     </g>
     <g id="line2d_26">
      <g>
       <use style="stroke:#000000;stroke-width:0.5;" x="303.564144487" xlink:href="#m5a7d422ac3" y="23.14175"/>
      </g>
     </g>
     <g id="text_5">
      <!-- 800 -->
      <defs>
       <path d="
M31.7812 34.625
Q24.75 34.625 20.7188 30.8594
Q16.7031 27.0938 16.7031 20.5156
Q16.7031 13.9219 20.7188 10.1562
Q24.75 6.39062 31.7812 6.39062
Q38.8125 6.39062 42.8594 10.1719
Q46.9219 13.9688 46.9219 20.5156
Q46.9219 27.0938 42.8906 30.8594
Q38.875 34.625 31.7812 34.625
M21.9219 38.8125
Q15.5781 40.375 12.0312 44.7188
Q8.5 49.0781 8.5 55.3281
Q8.5 64.0625 14.7188 69.1406
Q20.9531 74.2188 31.7812 74.2188
Q42.6719 74.2188 48.875 69.1406
Q55.0781 64.0625 55.0781 55.3281
Q55.0781 49.0781 51.5312 44.7188
Q48 40.375 41.7031 38.8125
Q48.8281 37.1562 52.7969 32.3125
Q56.7812 27.4844 56.7812 20.5156
Q56.7812 9.90625 50.3125 4.23438
Q43.8438 -1.42188 31.7812 -1.42188
Q19.7344 -1.42188 13.25 4.23438
Q6.78125 9.90625 6.78125 20.5156
Q6.78125 27.4844 10.7812 32.3125
Q14.7969 37.1562 21.9219 38.8125
M18.3125 54.3906
Q18.3125 48.7344 21.8438 45.5625
Q25.3906 42.3906 31.7812 42.3906
Q38.1406 42.3906 41.7188 45.5625
Q45.3125 48.7344 45.3125 54.3906
Q45.3125 60.0625 41.7188 63.2344
Q38.1406 66.4062 31.7812 66.4062
Q25.3906 66.4062 21.8438 63.2344
Q18.3125 60.0625 18.3125 54.3906" id="DejaVuSans-38"/>
      </defs>
      <g transform="translate(292.916956987 381.859875)scale(0.12 -0.12)">
       <use xlink:href="#DejaVuSans-38"/>
       <use x="63.623046875" xlink:href="#DejaVuSans-30"/>
       <use x="127.24609375" xlink:href="#DejaVuSans-30"/>
      </g>
     </g>
    </g>
    <g id="xtick_6">
     <g id="line2d_27">
      <g>
       <use style="stroke:#000000;stroke-width:0.5;" x="371.457680608" xlink:href="#mc7db9fdffb" y="368.74175"/>
      </g>
     </g>
     <g id="line2d_28">
      <g>
       <use style="stroke:#000000;stroke-width:0.5;" x="371.457680608" xlink:href="#m5a7d422ac3" y="23.14175"/>
      </g>
     </g>
     <g id="text_6">
      <!-- 1000 -->
      <defs>
       <path d="
M12.4062 8.29688
L28.5156 8.29688
L28.5156 63.9219
L10.9844 60.4062
L10.9844 69.3906
L28.4219 72.9062
L38.2812 72.9062
L38.2812 8.29688
L54.3906 8.29688
L54.3906 0
L12.4062 0
z
" id="DejaVuSans-31"/>
      </defs>
      <g transform="translate(357.245180608 381.859875)scale(0.12 -0.12)">
       <use xlink:href="#DejaVuSans-31"/>
       <use x="63.623046875" xlink:href="#DejaVuSans-30"/>
       <use x="127.24609375" xlink:href="#DejaVuSans-30"/>
       <use x="190.869140625" xlink:href="#DejaVuSans-30"/>
      </g>
     </g>
    </g>
    <g id="xtick_7">
     <g id="line2d_29">
      <g>
       <use style="stroke:#000000;stroke-width:0.5;" x="439.35121673" xlink:href="#mc7db9fdffb" y="368.74175"/>
      </g>
     </g>
     <g id="line2d_30">
      <g>
       <use style="stroke:#000000;stroke-width:0.5;" x="439.35121673" xlink:href="#m5a7d422ac3" y="23.14175"/>
      </g>
     </g>
     <g id="text_7">
      <!-- 1200 -->
      <g transform="translate(425.13871673 381.859875)scale(0.12 -0.12)">
       <use xlink:href="#DejaVuSans-31"/>
       <use x="63.623046875" xlink:href="#DejaVuSans-32"/>
       <use x="127.24609375" xlink:href="#DejaVuSans-30"/>
       <use x="190.869140625" xlink:href="#DejaVuSans-30"/>
      </g>
     </g>
    </g>
    <g id="text_8">
     <!-- time -->
     <defs>
      <path d="
M9.42188 54.6875
L18.4062 54.6875
L18.4062 0
L9.42188 0
z

M9.42188 75.9844
L18.4062 75.9844
L18.4062 64.5938
L9.42188 64.5938
z
" id="DejaVuSans-69"/>
      <path d="
M18.3125 70.2188
L18.3125 54.6875
L36.8125 54.6875
L36.8125 47.7031
L18.3125 47.7031
L18.3125 18.0156
Q18.3125 11.3281 20.1406 9.42188
Q21.9688 7.51562 27.5938 7.51562
L36.8125 7.51562
L36.8125 0
L27.5938 0
Q17.1875 0 13.2344 3.875
Q9.28125 7.76562 9.28125 18.0156
L9.28125 47.7031
L2.6875 47.7031
L2.6875 54.6875
L9.28125 54.6875
L9.28125 70.2188
z
" id="DejaVuSans-74"/>
      <path d="
M52 44.1875
Q55.375 50.25 60.0625 53.125
Q64.75 56 71.0938 56
Q79.6406 56 84.2812 50.0156
Q88.9219 44.0469 88.9219 33.0156
L88.9219 0
L79.8906 0
L79.8906 32.7188
Q79.8906 40.5781 77.0938 44.375
Q74.3125 48.1875 68.6094 48.1875
Q61.625 48.1875 57.5625 43.5469
Q53.5156 38.9219 53.5156 30.9062
L53.5156 0
L44.4844 0
L44.4844 32.7188
Q44.4844 40.625 41.7031 44.4062
Q38.9219 48.1875 33.1094 48.1875
Q26.2188 48.1875 22.1562 43.5312
Q18.1094 38.875 18.1094 30.9062
L18.1094 0
L9.07812 0
L9.07812 54.6875
L18.1094 54.6875
L18.1094 46.1875
Q21.1875 51.2188 25.4844 53.6094
Q29.7812 56 35.6875 56
Q41.6562 56 45.8281 52.9688
Q50 49.9531 52 44.1875" id="DejaVuSans-6d"/>
      <path d="
M56.2031 29.5938
L56.2031 25.2031
L14.8906 25.2031
Q15.4844 15.9219 20.4844 11.0625
Q25.4844 6.20312 34.4219 6.20312
Q39.5938 6.20312 44.4531 7.46875
Q49.3125 8.73438 54.1094 11.2812
L54.1094 2.78125
Q49.2656 0.734375 44.1875 -0.34375
Q39.1094 -1.42188 33.8906 -1.42188
Q20.7969 -1.42188 13.1562 6.1875
Q5.51562 13.8125 5.51562 26.8125
Q5.51562 40.2344 12.7656 48.1094
Q20.0156 56 32.3281 56
Q43.3594 56 49.7812 48.8906
Q56.2031 41.7969 56.2031 29.5938
M47.2188 32.2344
Q47.125 39.5938 43.0938 43.9844
Q39.0625 48.3906 32.4219 48.3906
Q24.9062 48.3906 20.3906 44.1406
Q15.875 39.8906 15.1875 32.1719
z
" id="DejaVuSans-65"/>
     </defs>
     <g transform="translate(242.115625 398.473625)scale(0.12 -0.12)">
      <use xlink:href="#DejaVuSans-74"/>
      <use x="39.208984375" xlink:href="#DejaVuSans-69"/>
      <use x="66.9921875" xlink:href="#DejaVuSans-6d"/>
      <use x="164.404296875" xlink:href="#DejaVuSans-65"/>
     </g>
    </g>
   </g>
   <g id="matplotlib.axis_2">
    <g id="ytick_1">
     <g id="line2d_31">
      <defs>
       <path d="
M0 0
L4 0" id="md7965d1ba0" style="stroke:#000000;stroke-width:0.5;"/>
      </defs>
      <g>
       <use style="stroke:#000000;stroke-width:0.5;" x="31.99" xlink:href="#md7965d1ba0" y="368.74175"/>
      </g>
     </g>
     <g id="line2d_32">
      <defs>
       <path d="
M0 0
L-4 0" id="md9a1c1a7cd" style="stroke:#000000;stroke-width:0.5;"/>
      </defs>
      <g>
       <use style="stroke:#000000;stroke-width:0.5;" x="478.39" xlink:href="#md9a1c1a7cd" y="368.74175"/>
      </g>
     </g>
     <g id="text_9">
      <!-- 0 -->
      <g transform="translate(21.943125 372.053)scale(0.12 -0.12)">
       <use xlink:href="#DejaVuSans-30"/>
      </g>
     </g>
    </g>
    <g id="ytick_2">
     <g id="line2d_33">
      <g>
       <use style="stroke:#000000;stroke-width:0.5;" x="31.99" xlink:href="#md7965d1ba0" y="330.34175"/>
      </g>
     </g>
     <g id="line2d_34">
      <g>
       <use style="stroke:#000000;stroke-width:0.5;" x="478.39" xlink:href="#md9a1c1a7cd" y="330.34175"/>
      </g>
     </g>
     <g id="text_10">
      <!-- 20 -->
      <g transform="translate(14.39625 333.653)scale(0.12 -0.12)">
       <use xlink:href="#DejaVuSans-32"/>
       <use x="63.623046875" xlink:href="#DejaVuSans-30"/>
      </g>
     </g>
    </g>
    <g id="ytick_3">
     <g id="line2d_35">
      <g>
       <use style="stroke:#000000;stroke-width:0.5;" x="31.99" xlink:href="#md7965d1ba0" y="291.94175"/>
      </g>
     </g>
     <g id="line2d_36">
      <g>
       <use style="stroke:#000000;stroke-width:0.5;" x="478.39" xlink:href="#md9a1c1a7cd" y="291.94175"/>
      </g>
     </g>
     <g id="text_11">
      <!-- 40 -->
      <g transform="translate(14.10375 295.253)scale(0.12 -0.12)">
       <use xlink:href="#DejaVuSans-34"/>
       <use x="63.623046875" xlink:href="#DejaVuSans-30"/>
      </g>
     </g>
    </g>
    <g id="ytick_4">
     <g id="line2d_37">
      <g>
       <use style="stroke:#000000;stroke-width:0.5;" x="31.99" xlink:href="#md7965d1ba0" y="253.54175"/>
      </g>
     </g>
     <g id="line2d_38">
      <g>
       <use style="stroke:#000000;stroke-width:0.5;" x="478.39" xlink:href="#md9a1c1a7cd" y="253.54175"/>
      </g>
     </g>
     <g id="text_12">
      <!-- 60 -->
      <g transform="translate(14.355 256.853)scale(0.12 -0.12)">
       <use xlink:href="#DejaVuSans-36"/>
       <use x="63.623046875" xlink:href="#DejaVuSans-30"/>
      </g>
     </g>
    </g>
    <g id="ytick_5">
     <g id="line2d_39">
      <g>
       <use style="stroke:#000000;stroke-width:0.5;" x="31.99" xlink:href="#md7965d1ba0" y="215.14175"/>
      </g>
     </g>
     <g id="line2d_40">
      <g>
       <use style="stroke:#000000;stroke-width:0.5;" x="478.39" xlink:href="#md9a1c1a7cd" y="215.14175"/>
      </g>
     </g>
     <g id="text_13">
      <!-- 80 -->
      <g transform="translate(14.330625 218.453)scale(0.12 -0.12)">
       <use xlink:href="#DejaVuSans-38"/>
       <use x="63.623046875" xlink:href="#DejaVuSans-30"/>
      </g>
     </g>
    </g>
    <g id="ytick_6">
     <g id="line2d_41">
      <g>
       <use style="stroke:#000000;stroke-width:0.5;" x="31.99" xlink:href="#md7965d1ba0" y="176.74175"/>
      </g>
     </g>
     <g id="line2d_42">
      <g>
       <use style="stroke:#000000;stroke-width:0.5;" x="478.39" xlink:href="#md9a1c1a7cd" y="176.74175"/>
      </g>
     </g>
     <g id="text_14">
      <!-- 100 -->
      <g transform="translate(7.2 180.053)scale(0.12 -0.12)">
       <use xlink:href="#DejaVuSans-31"/>
       <use x="63.623046875" xlink:href="#DejaVuSans-30"/>
       <use x="127.24609375" xlink:href="#DejaVuSans-30"/>
      </g>
     </g>
    </g>
    <g id="ytick_7">
     <g id="line2d_43">
      <g>
       <use style="stroke:#000000;stroke-width:0.5;" x="31.99" xlink:href="#md7965d1ba0" y="138.34175"/>
      </g>
     </g>
     <g id="line2d_44">
      <g>
       <use style="stroke:#000000;stroke-width:0.5;" x="478.39" xlink:href="#md9a1c1a7cd" y="138.34175"/>
      </g>
     </g>
     <g id="text_15">
      <!-- 120 -->
      <g transform="translate(7.2 141.653)scale(0.12 -0.12)">
       <use xlink:href="#DejaVuSans-31"/>
       <use x="63.623046875" xlink:href="#DejaVuSans-32"/>
       <use x="127.24609375" xlink:href="#DejaVuSans-30"/>
      </g>
     </g>
    </g>
    <g id="ytick_8">
     <g id="line2d_45">
      <g>
       <use style="stroke:#000000;stroke-width:0.5;" x="31.99" xlink:href="#md7965d1ba0" y="99.94175"/>
      </g>
     </g>
     <g id="line2d_46">
      <g>
       <use style="stroke:#000000;stroke-width:0.5;" x="478.39" xlink:href="#md9a1c1a7cd" y="99.94175"/>
      </g>
     </g>
     <g id="text_16">
      <!-- 140 -->
      <g transform="translate(7.2 103.253)scale(0.12 -0.12)">
       <use xlink:href="#DejaVuSans-31"/>
       <use x="63.623046875" xlink:href="#DejaVuSans-34"/>
       <use x="127.24609375" xlink:href="#DejaVuSans-30"/>
      </g>
     </g>
    </g>
    <g id="ytick_9">
     <g id="line2d_47">
      <g>
       <use style="stroke:#000000;stroke-width:0.5;" x="31.99" xlink:href="#md7965d1ba0" y="61.54175"/>
      </g>
     </g>
     <g id="line2d_48">
      <g>
       <use style="stroke:#000000;stroke-width:0.5;" x="478.39" xlink:href="#md9a1c1a7cd" y="61.54175"/>
      </g>
     </g>
     <g id="text_17">
      <!-- 160 -->
      <g transform="translate(7.2 64.853)scale(0.12 -0.12)">
       <use xlink:href="#DejaVuSans-31"/>
       <use x="63.623046875" xlink:href="#DejaVuSans-36"/>
       <use x="127.24609375" xlink:href="#DejaVuSans-30"/>
      </g>
     </g>
    </g>
    <g id="ytick_10">
     <g id="line2d_49">
      <g>
       <use style="stroke:#000000;stroke-width:0.5;" x="31.99" xlink:href="#md7965d1ba0" y="23.14175"/>
      </g>
     </g>
     <g id="line2d_50">
      <g>
       <use style="stroke:#000000;stroke-width:0.5;" x="478.39" xlink:href="#md9a1c1a7cd" y="23.14175"/>
      </g>
     </g>
     <g id="text_18">
      <!-- 180 -->
      <g transform="translate(7.2 26.453)scale(0.12 -0.12)">
       <use xlink:href="#DejaVuSans-31"/>
       <use x="63.623046875" xlink:href="#DejaVuSans-38"/>
       <use x="127.24609375" xlink:href="#DejaVuSans-30"/>
      </g>
     </g>
    </g>
   </g>
   <g id="text_19">
    <!-- /agas/count/increment_credit change -->
    <defs>
     <path d="
M54.8906 33.0156
L54.8906 0
L45.9062 0
L45.9062 32.7188
Q45.9062 40.4844 42.875 44.3281
Q39.8438 48.1875 33.7969 48.1875
Q26.5156 48.1875 22.3125 43.5469
Q18.1094 38.9219 18.1094 30.9062
L18.1094 0
L9.07812 0
L9.07812 54.6875
L18.1094 54.6875
L18.1094 46.1875
Q21.3438 51.125 25.7031 53.5625
Q30.0781 56 35.7969 56
Q45.2188 56 50.0469 50.1719
Q54.8906 44.3438 54.8906 33.0156" id="DejaVuSans-6e"/>
     <path d="
M41.1094 46.2969
Q39.5938 47.1719 37.8125 47.5781
Q36.0312 48 33.8906 48
Q26.2656 48 22.1875 43.0469
Q18.1094 38.0938 18.1094 28.8125
L18.1094 0
L9.07812 0
L9.07812 54.6875
L18.1094 54.6875
L18.1094 46.1875
Q20.9531 51.1719 25.4844 53.5781
Q30.0312 56 36.5312 56
Q37.4531 56 38.5781 55.875
Q39.7031 55.7656 41.0625 55.5156
z
" id="DejaVuSans-72"/>
     <path d="
M34.2812 27.4844
Q23.3906 27.4844 19.1875 25
Q14.9844 22.5156 14.9844 16.5
Q14.9844 11.7188 18.1406 8.90625
Q21.2969 6.10938 26.7031 6.10938
Q34.1875 6.10938 38.7031 11.4062
Q43.2188 16.7031 43.2188 25.4844
L43.2188 27.4844
z

M52.2031 31.2031
L52.2031 0
L43.2188 0
L43.2188 8.29688
Q40.1406 3.32812 35.5469 0.953125
Q30.9531 -1.42188 24.3125 -1.42188
Q15.9219 -1.42188 10.9531 3.29688
Q6 8.01562 6 15.9219
Q6 25.1406 12.1719 29.8281
Q18.3594 34.5156 30.6094 34.5156
L43.2188 34.5156
L43.2188 35.4062
Q43.2188 41.6094 39.1406 45
Q35.0625 48.3906 27.6875 48.3906
Q23 48.3906 18.5469 47.2656
Q14.1094 46.1406 10.0156 43.8906
L10.0156 52.2031
Q14.9375 54.1094 19.5781 55.0469
Q24.2188 56 28.6094 56
Q40.4844 56 46.3438 49.8438
Q52.2031 43.7031 52.2031 31.2031" id="DejaVuSans-61"/>
     <path d="
M48.7812 52.5938
L48.7812 44.1875
Q44.9688 46.2969 41.1406 47.3438
Q37.3125 48.3906 33.4062 48.3906
Q24.6562 48.3906 19.8125 42.8438
Q14.9844 37.3125 14.9844 27.2969
Q14.9844 17.2812 19.8125 11.7344
Q24.6562 6.20312 33.4062 6.20312
Q37.3125 6.20312 41.1406 7.25
Q44.9688 8.29688 48.7812 10.4062
L48.7812 2.09375
Q45.0156 0.34375 40.9844 -0.53125
Q36.9688 -1.42188 32.4219 -1.42188
Q20.0625 -1.42188 12.7812 6.34375
Q5.51562 14.1094 5.51562 27.2969
Q5.51562 40.6719 12.8594 48.3281
Q20.2188 56 33.0156 56
Q37.1562 56 41.1094 55.1406
Q45.0625 54.2969 48.7812 52.5938" id="DejaVuSans-63"/>
     <path d="
M30.6094 48.3906
Q23.3906 48.3906 19.1875 42.75
Q14.9844 37.1094 14.9844 27.2969
Q14.9844 17.4844 19.1562 11.8438
Q23.3438 6.20312 30.6094 6.20312
Q37.7969 6.20312 41.9844 11.8594
Q46.1875 17.5312 46.1875 27.2969
Q46.1875 37.0156 41.9844 42.7031
Q37.7969 48.3906 30.6094 48.3906
M30.6094 56
Q42.3281 56 49.0156 48.375
Q55.7188 40.7656 55.7188 27.2969
Q55.7188 13.875 49.0156 6.21875
Q42.3281 -1.42188 30.6094 -1.42188
Q18.8438 -1.42188 12.1719 6.21875
Q5.51562 13.875 5.51562 27.2969
Q5.51562 40.7656 12.1719 48.375
Q18.8438 56 30.6094 56" id="DejaVuSans-6f"/>
     <path d="
M45.4062 27.9844
Q45.4062 37.75 41.375 43.1094
Q37.3594 48.4844 30.0781 48.4844
Q22.8594 48.4844 18.8281 43.1094
Q14.7969 37.75 14.7969 27.9844
Q14.7969 18.2656 18.8281 12.8906
Q22.8594 7.51562 30.0781 7.51562
Q37.3594 7.51562 41.375 12.8906
Q45.4062 18.2656 45.4062 27.9844
M54.3906 6.78125
Q54.3906 -7.17188 48.1875 -13.9844
Q42 -20.7969 29.2031 -20.7969
Q24.4688 -20.7969 20.2656 -20.0938
Q16.0625 -19.3906 12.1094 -17.9219
L12.1094 -9.1875
Q16.0625 -11.3281 19.9219 -12.3438
Q23.7812 -13.375 27.7812 -13.375
Q36.625 -13.375 41.0156 -8.76562
Q45.4062 -4.15625 45.4062 5.17188
L45.4062 9.625
Q42.625 4.78125 38.2812 2.39062
Q33.9375 0 27.875 0
Q17.8281 0 11.6719 7.65625
Q5.51562 15.3281 5.51562 27.9844
Q5.51562 40.6719 11.6719 48.3281
Q17.8281 56 27.875 56
Q33.9375 56 38.2812 53.6094
Q42.625 51.2188 45.4062 46.3906
L45.4062 54.6875
L54.3906 54.6875
z
" id="DejaVuSans-67"/>
     <path d="
M44.2812 53.0781
L44.2812 44.5781
Q40.4844 46.5312 36.375 47.5
Q32.2812 48.4844 27.875 48.4844
Q21.1875 48.4844 17.8438 46.4375
Q14.5 44.3906 14.5 40.2812
Q14.5 37.1562 16.8906 35.375
Q19.2812 33.5938 26.5156 31.9844
L29.5938 31.2969
Q39.1562 29.25 43.1875 25.5156
Q47.2188 21.7812 47.2188 15.0938
Q47.2188 7.46875 41.1875 3.01562
Q35.1562 -1.42188 24.6094 -1.42188
Q20.2188 -1.42188 15.4531 -0.5625
Q10.6875 0.296875 5.42188 2
L5.42188 11.2812
Q10.4062 8.6875 15.2344 7.39062
Q20.0625 6.10938 24.8125 6.10938
Q31.1562 6.10938 34.5625 8.28125
Q37.9844 10.4531 37.9844 14.4062
Q37.9844 18.0625 35.5156 20.0156
Q33.0625 21.9688 24.7031 23.7812
L21.5781 24.5156
Q13.2344 26.2656 9.51562 29.9062
Q5.8125 33.5469 5.8125 39.8906
Q5.8125 47.6094 11.2812 51.7969
Q16.75 56 26.8125 56
Q31.7812 56 36.1719 55.2656
Q40.5781 54.5469 44.2812 53.0781" id="DejaVuSans-73"/>
     <path d="
M50.9844 -16.6094
L50.9844 -23.5781
L-0.984375 -23.5781
L-0.984375 -16.6094
z
" id="DejaVuSans-5f"/>
     <path d="
M8.5 21.5781
L8.5 54.6875
L17.4844 54.6875
L17.4844 21.9219
Q17.4844 14.1562 20.5 10.2656
Q23.5312 6.39062 29.5938 6.39062
Q36.8594 6.39062 41.0781 11.0312
Q45.3125 15.6719 45.3125 23.6875
L45.3125 54.6875
L54.2969 54.6875
L54.2969 0
L45.3125 0
L45.3125 8.40625
Q42.0469 3.42188 37.7188 1
Q33.4062 -1.42188 27.6875 -1.42188
Q18.2656 -1.42188 13.375 4.4375
Q8.5 10.2969 8.5 21.5781
M31.1094 56
z
" id="DejaVuSans-75"/>
     <path d="
M25.3906 72.9062
L33.6875 72.9062
L8.29688 -9.28125
L0 -9.28125
z
" id="DejaVuSans-2f"/>
     <path id="DejaVuSans-20"/>
     <path d="
M54.8906 33.0156
L54.8906 0
L45.9062 0
L45.9062 32.7188
Q45.9062 40.4844 42.875 44.3281
Q39.8438 48.1875 33.7969 48.1875
Q26.5156 48.1875 22.3125 43.5469
Q18.1094 38.9219 18.1094 30.9062
L18.1094 0
L9.07812 0
L9.07812 75.9844
L18.1094 75.9844
L18.1094 46.1875
Q21.3438 51.125 25.7031 53.5625
Q30.0781 56 35.7969 56
Q45.2188 56 50.0469 50.1719
Q54.8906 44.3438 54.8906 33.0156" id="DejaVuSans-68"/>
     <path d="
M45.4062 46.3906
L45.4062 75.9844
L54.3906 75.9844
L54.3906 0
L45.4062 0
L45.4062 8.20312
Q42.5781 3.32812 38.25 0.953125
Q33.9375 -1.42188 27.875 -1.42188
Q17.9688 -1.42188 11.7344 6.48438
Q5.51562 14.4062 5.51562 27.2969
Q5.51562 40.1875 11.7344 48.0938
Q17.9688 56 27.875 56
Q33.9375 56 38.25 53.625
Q42.5781 51.2656 45.4062 46.3906
M14.7969 27.2969
Q14.7969 17.3906 18.875 11.75
Q22.9531 6.10938 30.0781 6.10938
Q37.2031 6.10938 41.2969 11.75
Q45.4062 17.3906 45.4062 27.2969
Q45.4062 37.2031 41.2969 42.8438
Q37.2031 48.4844 30.0781 48.4844
Q22.9531 48.4844 18.875 42.8438
Q14.7969 37.2031 14.7969 27.2969" id="DejaVuSans-64"/>
    </defs>
    <g transform="translate(121.291375 18.14175)scale(0.144 -0.144)">
     <use xlink:href="#DejaVuSans-2f"/>
     <use x="33.69140625" xlink:href="#DejaVuSans-61"/>
     <use x="94.970703125" xlink:href="#DejaVuSans-67"/>
     <use x="158.447265625" xlink:href="#DejaVuSans-61"/>
     <use x="219.7265625" xlink:href="#DejaVuSans-73"/>
     <use x="271.826171875" xlink:href="#DejaVuSans-2f"/>
     <use x="305.517578125" xlink:href="#DejaVuSans-63"/>
     <use x="360.498046875" xlink:href="#DejaVuSans-6f"/>
     <use x="421.6796875" xlink:href="#DejaVuSans-75"/>
     <use x="485.05859375" xlink:href="#DejaVuSans-6e"/>
     <use x="548.4375" xlink:href="#DejaVuSans-74"/>
     <use x="587.646484375" xlink:href="#DejaVuSans-2f"/>
     <use x="621.337890625" xlink:href="#DejaVuSans-69"/>
     <use x="649.12109375" xlink:href="#DejaVuSans-6e"/>
     <use x="712.5" xlink:href="#DejaVuSans-63"/>
     <use x="767.48046875" xlink:href="#DejaVuSans-72"/>
     <use x="806.34375" xlink:href="#DejaVuSans-65"/>
     <use x="867.8671875" xlink:href="#DejaVuSans-6d"/>
     <use x="965.279296875" xlink:href="#DejaVuSans-65"/>
     <use x="1026.802734375" xlink:href="#DejaVuSans-6e"/>
     <use x="1090.181640625" xlink:href="#DejaVuSans-74"/>
     <use x="1129.390625" xlink:href="#DejaVuSans-5f"/>
     <use x="1179.390625" xlink:href="#DejaVuSans-63"/>
     <use x="1234.37109375" xlink:href="#DejaVuSans-72"/>
     <use x="1273.234375" xlink:href="#DejaVuSans-65"/>
     <use x="1334.7578125" xlink:href="#DejaVuSans-64"/>
     <use x="1398.234375" xlink:href="#DejaVuSans-69"/>
     <use x="1426.017578125" xlink:href="#DejaVuSans-74"/>
     <use x="1465.2265625" xlink:href="#DejaVuSans-20"/>
     <use x="1497.013671875" xlink:href="#DejaVuSans-63"/>
     <use x="1551.994140625" xlink:href="#DejaVuSans-68"/>
     <use x="1615.373046875" xlink:href="#DejaVuSans-61"/>
     <use x="1676.65234375" xlink:href="#DejaVuSans-6e"/>
     <use x="1740.03125" xlink:href="#DejaVuSans-67"/>
     <use x="1803.5078125" xlink:href="#DejaVuSans-65"/>
    </g>
   </g>
   <g id="legend_1">
    <g id="patch_7">
     <path d="
M485.59 367.194
L617.379 367.194
L617.379 24.6897
L485.59 24.6897
z
" style="fill:#ffffff;stroke:#000000;stroke-linejoin:miter;"/>
    </g>
    <g id="line2d_51">
     <path d="
M495.67 36.3515
L515.83 36.3515" style="fill:none;stroke:#0000ff;stroke-linecap:square;"/>
    </g>
    <g id="line2d_52"/>
    <g id="text_20">
     <!-- locality#0 -->
     <defs>
      <path d="
M51.125 44
L36.9219 44
L32.8125 27.6875
L47.125 27.6875
z

M43.7969 71.7812
L38.7188 51.5156
L52.9844 51.5156
L58.1094 71.7812
L65.9219 71.7812
L60.8906 51.5156
L76.125 51.5156
L76.125 44
L58.9844 44
L54.9844 27.6875
L70.5156 27.6875
L70.5156 20.2188
L53.0781 20.2188
L48 0
L40.1875 0
L45.2188 20.2188
L30.9062 20.2188
L25.875 0
L18.0156 0
L23.0938 20.2188
L7.71875 20.2188
L7.71875 27.6875
L24.9062 27.6875
L29 44
L13.2812 44
L13.2812 51.5156
L30.9062 51.5156
L35.8906 71.7812
z
" id="DejaVuSans-23"/>
      <path d="
M32.1719 -5.07812
Q28.375 -14.8438 24.75 -17.8125
Q21.1406 -20.7969 15.0938 -20.7969
L7.90625 -20.7969
L7.90625 -13.2812
L13.1875 -13.2812
Q16.8906 -13.2812 18.9375 -11.5156
Q21 -9.76562 23.4844 -3.21875
L25.0938 0.875
L2.98438 54.6875
L12.5 54.6875
L29.5938 11.9219
L46.6875 54.6875
L56.2031 54.6875
z
" id="DejaVuSans-79"/>
      <path d="
M9.42188 75.9844
L18.4062 75.9844
L18.4062 0
L9.42188 0
z
" id="DejaVuSans-6c"/>
     </defs>
     <g transform="translate(531.67 41.3915)scale(0.144 -0.144)">
      <use xlink:href="#DejaVuSans-6c"/>
      <use x="27.783203125" xlink:href="#DejaVuSans-6f"/>
      <use x="88.96484375" xlink:href="#DejaVuSans-63"/>
      <use x="143.9453125" xlink:href="#DejaVuSans-61"/>
      <use x="205.224609375" xlink:href="#DejaVuSans-6c"/>
      <use x="233.0078125" xlink:href="#DejaVuSans-69"/>
      <use x="260.791015625" xlink:href="#DejaVuSans-74"/>
      <use x="300.0" xlink:href="#DejaVuSans-79"/>
      <use x="359.1796875" xlink:href="#DejaVuSans-23"/>
      <use x="442.96875" xlink:href="#DejaVuSans-30"/>
     </g>
    </g>
    <g id="line2d_53">
     <path d="
M495.67 57.488
L515.83 57.488" style="fill:none;stroke:#008000;stroke-linecap:square;"/>
    </g>
    <g id="line2d_54"/>
    <g id="text_21">
     <!-- locality#1 -->
     <g transform="translate(531.67 62.528)scale(0.144 -0.144)">
      <use xlink:href="#DejaVuSans-6c"/>
      <use x="27.783203125" xlink:href="#DejaVuSans-6f"/>
      <use x="88.96484375" xlink:href="#DejaVuSans-63"/>
      <use x="143.9453125" xlink:href="#DejaVuSans-61"/>
      <use x="205.224609375" xlink:href="#DejaVuSans-6c"/>
      <use x="233.0078125" xlink:href="#DejaVuSans-69"/>
      <use x="260.791015625" xlink:href="#DejaVuSans-74"/>
      <use x="300.0" xlink:href="#DejaVuSans-79"/>
      <use x="359.1796875" xlink:href="#DejaVuSans-23"/>
      <use x="442.96875" xlink:href="#DejaVuSans-31"/>
     </g>
    </g>
    <g id="line2d_55">
     <path d="
M495.67 78.6245
L515.83 78.6245" style="fill:none;stroke:#ff0000;stroke-linecap:square;"/>
    </g>
    <g id="line2d_56"/>
    <g id="text_22">
     <!-- locality#10 -->
     <g transform="translate(531.67 83.6645)scale(0.144 -0.144)">
      <use xlink:href="#DejaVuSans-6c"/>
      <use x="27.783203125" xlink:href="#DejaVuSans-6f"/>
      <use x="88.96484375" xlink:href="#DejaVuSans-63"/>
      <use x="143.9453125" xlink:href="#DejaVuSans-61"/>
      <use x="205.224609375" xlink:href="#DejaVuSans-6c"/>
      <use x="233.0078125" xlink:href="#DejaVuSans-69"/>
      <use x="260.791015625" xlink:href="#DejaVuSans-74"/>
      <use x="300.0" xlink:href="#DejaVuSans-79"/>
      <use x="359.1796875" xlink:href="#DejaVuSans-23"/>
      <use x="442.96875" xlink:href="#DejaVuSans-31"/>
      <use x="506.591796875" xlink:href="#DejaVuSans-30"/>
     </g>
    </g>
    <g id="line2d_57">
     <path d="
M495.67 99.761
L515.83 99.761" style="fill:none;stroke:#00bfbf;stroke-linecap:square;"/>
    </g>
    <g id="line2d_58"/>
    <g id="text_23">
     <!-- locality#11 -->
     <g transform="translate(531.67 104.801)scale(0.144 -0.144)">
      <use xlink:href="#DejaVuSans-6c"/>
      <use x="27.783203125" xlink:href="#DejaVuSans-6f"/>
      <use x="88.96484375" xlink:href="#DejaVuSans-63"/>
      <use x="143.9453125" xlink:href="#DejaVuSans-61"/>
      <use x="205.224609375" xlink:href="#DejaVuSans-6c"/>
      <use x="233.0078125" xlink:href="#DejaVuSans-69"/>
      <use x="260.791015625" xlink:href="#DejaVuSans-74"/>
      <use x="300.0" xlink:href="#DejaVuSans-79"/>
      <use x="359.1796875" xlink:href="#DejaVuSans-23"/>
      <use x="442.96875" xlink:href="#DejaVuSans-31"/>
      <use x="506.591796875" xlink:href="#DejaVuSans-31"/>
     </g>
    </g>
    <g id="line2d_59">
     <path d="
M495.67 120.897
L515.83 120.897" style="fill:none;stroke:#bf00bf;stroke-linecap:square;"/>
    </g>
    <g id="line2d_60"/>
    <g id="text_24">
     <!-- locality#12 -->
     <g transform="translate(531.67 125.9375)scale(0.144 -0.144)">
      <use xlink:href="#DejaVuSans-6c"/>
      <use x="27.783203125" xlink:href="#DejaVuSans-6f"/>
      <use x="88.96484375" xlink:href="#DejaVuSans-63"/>
      <use x="143.9453125" xlink:href="#DejaVuSans-61"/>
      <use x="205.224609375" xlink:href="#DejaVuSans-6c"/>
      <use x="233.0078125" xlink:href="#DejaVuSans-69"/>
      <use x="260.791015625" xlink:href="#DejaVuSans-74"/>
      <use x="300.0" xlink:href="#DejaVuSans-79"/>
      <use x="359.1796875" xlink:href="#DejaVuSans-23"/>
      <use x="442.96875" xlink:href="#DejaVuSans-31"/>
      <use x="506.591796875" xlink:href="#DejaVuSans-32"/>
     </g>
    </g>
    <g id="line2d_61">
     <path d="
M495.67 142.034
L515.83 142.034" style="fill:none;stroke:#bfbf00;stroke-linecap:square;"/>
    </g>
    <g id="line2d_62"/>
    <g id="text_25">
     <!-- locality#13 -->
     <defs>
      <path d="
M40.5781 39.3125
Q47.6562 37.7969 51.625 33
Q55.6094 28.2188 55.6094 21.1875
Q55.6094 10.4062 48.1875 4.48438
Q40.7656 -1.42188 27.0938 -1.42188
Q22.5156 -1.42188 17.6562 -0.515625
Q12.7969 0.390625 7.625 2.20312
L7.625 11.7188
Q11.7188 9.32812 16.5938 8.10938
Q21.4844 6.89062 26.8125 6.89062
Q36.0781 6.89062 40.9375 10.5469
Q45.7969 14.2031 45.7969 21.1875
Q45.7969 27.6406 41.2812 31.2656
Q36.7656 34.9062 28.7188 34.9062
L20.2188 34.9062
L20.2188 43.0156
L29.1094 43.0156
Q36.375 43.0156 40.2344 45.9219
Q44.0938 48.8281 44.0938 54.2969
Q44.0938 59.9062 40.1094 62.9062
Q36.1406 65.9219 28.7188 65.9219
Q24.6562 65.9219 20.0156 65.0312
Q15.375 64.1562 9.8125 62.3125
L9.8125 71.0938
Q15.4375 72.6562 20.3438 73.4375
Q25.25 74.2188 29.5938 74.2188
Q40.8281 74.2188 47.3594 69.1094
Q53.9062 64.0156 53.9062 55.3281
Q53.9062 49.2656 50.4375 45.0938
Q46.9688 40.9219 40.5781 39.3125" id="DejaVuSans-33"/>
     </defs>
     <g transform="translate(531.67 147.074)scale(0.144 -0.144)">
      <use xlink:href="#DejaVuSans-6c"/>
      <use x="27.783203125" xlink:href="#DejaVuSans-6f"/>
      <use x="88.96484375" xlink:href="#DejaVuSans-63"/>
      <use x="143.9453125" xlink:href="#DejaVuSans-61"/>
      <use x="205.224609375" xlink:href="#DejaVuSans-6c"/>
      <use x="233.0078125" xlink:href="#DejaVuSans-69"/>
      <use x="260.791015625" xlink:href="#DejaVuSans-74"/>
      <use x="300.0" xlink:href="#DejaVuSans-79"/>
      <use x="359.1796875" xlink:href="#DejaVuSans-23"/>
      <use x="442.96875" xlink:href="#DejaVuSans-31"/>
      <use x="506.591796875" xlink:href="#DejaVuSans-33"/>
     </g>
    </g>
    <g id="line2d_63">
     <path d="
M495.67 163.17
L515.83 163.17" style="fill:none;stroke:#000000;stroke-linecap:square;"/>
    </g>
    <g id="line2d_64"/>
    <g id="text_26">
     <!-- locality#14 -->
     <g transform="translate(531.67 168.2105)scale(0.144 -0.144)">
      <use xlink:href="#DejaVuSans-6c"/>
      <use x="27.783203125" xlink:href="#DejaVuSans-6f"/>
      <use x="88.96484375" xlink:href="#DejaVuSans-63"/>
      <use x="143.9453125" xlink:href="#DejaVuSans-61"/>
      <use x="205.224609375" xlink:href="#DejaVuSans-6c"/>
      <use x="233.0078125" xlink:href="#DejaVuSans-69"/>
      <use x="260.791015625" xlink:href="#DejaVuSans-74"/>
      <use x="300.0" xlink:href="#DejaVuSans-79"/>
      <use x="359.1796875" xlink:href="#DejaVuSans-23"/>
      <use x="442.96875" xlink:href="#DejaVuSans-31"/>
      <use x="506.591796875" xlink:href="#DejaVuSans-34"/>
     </g>
    </g>
    <g id="line2d_65">
     <path d="
M495.67 184.307
L515.83 184.307" style="fill:none;stroke:#0000ff;stroke-linecap:square;"/>
    </g>
    <g id="line2d_66"/>
    <g id="text_27">
     <!-- locality#15 -->
     <defs>
      <path d="
M10.7969 72.9062
L49.5156 72.9062
L49.5156 64.5938
L19.8281 64.5938
L19.8281 46.7344
Q21.9688 47.4688 24.1094 47.8281
Q26.2656 48.1875 28.4219 48.1875
Q40.625 48.1875 47.75 41.5
Q54.8906 34.8125 54.8906 23.3906
Q54.8906 11.625 47.5625 5.09375
Q40.2344 -1.42188 26.9062 -1.42188
Q22.3125 -1.42188 17.5469 -0.640625
Q12.7969 0.140625 7.71875 1.70312
L7.71875 11.625
Q12.1094 9.23438 16.7969 8.0625
Q21.4844 6.89062 26.7031 6.89062
Q35.1562 6.89062 40.0781 11.3281
Q45.0156 15.7656 45.0156 23.3906
Q45.0156 31 40.0781 35.4375
Q35.1562 39.8906 26.7031 39.8906
Q22.75 39.8906 18.8125 39.0156
Q14.8906 38.1406 10.7969 36.2812
z
" id="DejaVuSans-35"/>
     </defs>
     <g transform="translate(531.67 189.347)scale(0.144 -0.144)">
      <use xlink:href="#DejaVuSans-6c"/>
      <use x="27.783203125" xlink:href="#DejaVuSans-6f"/>
      <use x="88.96484375" xlink:href="#DejaVuSans-63"/>
      <use x="143.9453125" xlink:href="#DejaVuSans-61"/>
      <use x="205.224609375" xlink:href="#DejaVuSans-6c"/>
      <use x="233.0078125" xlink:href="#DejaVuSans-69"/>
      <use x="260.791015625" xlink:href="#DejaVuSans-74"/>
      <use x="300.0" xlink:href="#DejaVuSans-79"/>
      <use x="359.1796875" xlink:href="#DejaVuSans-23"/>
      <use x="442.96875" xlink:href="#DejaVuSans-31"/>
      <use x="506.591796875" xlink:href="#DejaVuSans-35"/>
     </g>
    </g>
    <g id="line2d_67">
     <path d="
M495.67 205.443
L515.83 205.443" style="fill:none;stroke:#008000;stroke-linecap:square;"/>
    </g>
    <g id="line2d_68"/>
    <g id="text_28">
     <!-- locality#2 -->
     <g transform="translate(531.67 210.4835)scale(0.144 -0.144)">
      <use xlink:href="#DejaVuSans-6c"/>
      <use x="27.783203125" xlink:href="#DejaVuSans-6f"/>
      <use x="88.96484375" xlink:href="#DejaVuSans-63"/>
      <use x="143.9453125" xlink:href="#DejaVuSans-61"/>
      <use x="205.224609375" xlink:href="#DejaVuSans-6c"/>
      <use x="233.0078125" xlink:href="#DejaVuSans-69"/>
      <use x="260.791015625" xlink:href="#DejaVuSans-74"/>
      <use x="300.0" xlink:href="#DejaVuSans-79"/>
      <use x="359.1796875" xlink:href="#DejaVuSans-23"/>
      <use x="442.96875" xlink:href="#DejaVuSans-32"/>
     </g>
    </g>
    <g id="line2d_69">
     <path d="
M495.67 226.58
L515.83 226.58" style="fill:none;stroke:#ff0000;stroke-linecap:square;"/>
    </g>
    <g id="line2d_70"/>
    <g id="text_29">
     <!-- locality#3 -->
     <g transform="translate(531.67 231.62)scale(0.144 -0.144)">
      <use xlink:href="#DejaVuSans-6c"/>
      <use x="27.783203125" xlink:href="#DejaVuSans-6f"/>
      <use x="88.96484375" xlink:href="#DejaVuSans-63"/>
      <use x="143.9453125" xlink:href="#DejaVuSans-61"/>
      <use x="205.224609375" xlink:href="#DejaVuSans-6c"/>
      <use x="233.0078125" xlink:href="#DejaVuSans-69"/>
      <use x="260.791015625" xlink:href="#DejaVuSans-74"/>
      <use x="300.0" xlink:href="#DejaVuSans-79"/>
      <use x="359.1796875" xlink:href="#DejaVuSans-23"/>
      <use x="442.96875" xlink:href="#DejaVuSans-33"/>
     </g>
    </g>
    <g id="line2d_71">
     <path d="
M495.67 247.716
L515.83 247.716" style="fill:none;stroke:#00bfbf;stroke-linecap:square;"/>
    </g>
    <g id="line2d_72"/>
    <g id="text_30">
     <!-- locality#4 -->
     <g transform="translate(531.67 252.7565)scale(0.144 -0.144)">
      <use xlink:href="#DejaVuSans-6c"/>
      <use x="27.783203125" xlink:href="#DejaVuSans-6f"/>
      <use x="88.96484375" xlink:href="#DejaVuSans-63"/>
      <use x="143.9453125" xlink:href="#DejaVuSans-61"/>
      <use x="205.224609375" xlink:href="#DejaVuSans-6c"/>
      <use x="233.0078125" xlink:href="#DejaVuSans-69"/>
      <use x="260.791015625" xlink:href="#DejaVuSans-74"/>
      <use x="300.0" xlink:href="#DejaVuSans-79"/>
      <use x="359.1796875" xlink:href="#DejaVuSans-23"/>
      <use x="442.96875" xlink:href="#DejaVuSans-34"/>
     </g>
    </g>
    <g id="line2d_73">
     <path d="
M495.67 268.853
L515.83 268.853" style="fill:none;stroke:#bf00bf;stroke-linecap:square;"/>
    </g>
    <g id="line2d_74"/>
    <g id="text_31">
     <!-- locality#5 -->
     <g transform="translate(531.67 273.893)scale(0.144 -0.144)">
      <use xlink:href="#DejaVuSans-6c"/>
      <use x="27.783203125" xlink:href="#DejaVuSans-6f"/>
      <use x="88.96484375" xlink:href="#DejaVuSans-63"/>
      <use x="143.9453125" xlink:href="#DejaVuSans-61"/>
      <use x="205.224609375" xlink:href="#DejaVuSans-6c"/>
      <use x="233.0078125" xlink:href="#DejaVuSans-69"/>
      <use x="260.791015625" xlink:href="#DejaVuSans-74"/>
      <use x="300.0" xlink:href="#DejaVuSans-79"/>
      <use x="359.1796875" xlink:href="#DejaVuSans-23"/>
      <use x="442.96875" xlink:href="#DejaVuSans-35"/>
     </g>
    </g>
    <g id="line2d_75">
     <path d="
M495.67 289.989
L515.83 289.989" style="fill:none;stroke:#bfbf00;stroke-linecap:square;"/>
    </g>
    <g id="line2d_76"/>
    <g id="text_32">
     <!-- locality#6 -->
     <g transform="translate(531.67 295.0295)scale(0.144 -0.144)">
      <use xlink:href="#DejaVuSans-6c"/>
      <use x="27.783203125" xlink:href="#DejaVuSans-6f"/>
      <use x="88.96484375" xlink:href="#DejaVuSans-63"/>
      <use x="143.9453125" xlink:href="#DejaVuSans-61"/>
      <use x="205.224609375" xlink:href="#DejaVuSans-6c"/>
      <use x="233.0078125" xlink:href="#DejaVuSans-69"/>
      <use x="260.791015625" xlink:href="#DejaVuSans-74"/>
      <use x="300.0" xlink:href="#DejaVuSans-79"/>
      <use x="359.1796875" xlink:href="#DejaVuSans-23"/>
      <use x="442.96875" xlink:href="#DejaVuSans-36"/>
     </g>
    </g>
    <g id="line2d_77">
     <path d="
M495.67 311.126
L515.83 311.126" style="fill:none;stroke:#000000;stroke-linecap:square;"/>
    </g>
    <g id="line2d_78"/>
    <g id="text_33">
     <!-- locality#7 -->
     <defs>
      <path d="
M8.20312 72.9062
L55.0781 72.9062
L55.0781 68.7031
L28.6094 0
L18.3125 0
L43.2188 64.5938
L8.20312 64.5938
z
" id="DejaVuSans-37"/>
     </defs>
     <g transform="translate(531.67 316.166)scale(0.144 -0.144)">
      <use xlink:href="#DejaVuSans-6c"/>
      <use x="27.783203125" xlink:href="#DejaVuSans-6f"/>
      <use x="88.96484375" xlink:href="#DejaVuSans-63"/>
      <use x="143.9453125" xlink:href="#DejaVuSans-61"/>
      <use x="205.224609375" xlink:href="#DejaVuSans-6c"/>
      <use x="233.0078125" xlink:href="#DejaVuSans-69"/>
      <use x="260.791015625" xlink:href="#DejaVuSans-74"/>
      <use x="300.0" xlink:href="#DejaVuSans-79"/>
      <use x="359.1796875" xlink:href="#DejaVuSans-23"/>
      <use x="442.96875" xlink:href="#DejaVuSans-37"/>
     </g>
    </g>
    <g id="line2d_79">
     <path d="
M495.67 332.262
L515.83 332.262" style="fill:none;stroke:#0000ff;stroke-linecap:square;"/>
    </g>
    <g id="line2d_80"/>
    <g id="text_34">
     <!-- locality#8 -->
     <g transform="translate(531.67 337.3025)scale(0.144 -0.144)">
      <use xlink:href="#DejaVuSans-6c"/>
      <use x="27.783203125" xlink:href="#DejaVuSans-6f"/>
      <use x="88.96484375" xlink:href="#DejaVuSans-63"/>
      <use x="143.9453125" xlink:href="#DejaVuSans-61"/>
      <use x="205.224609375" xlink:href="#DejaVuSans-6c"/>
      <use x="233.0078125" xlink:href="#DejaVuSans-69"/>
      <use x="260.791015625" xlink:href="#DejaVuSans-74"/>
      <use x="300.0" xlink:href="#DejaVuSans-79"/>
      <use x="359.1796875" xlink:href="#DejaVuSans-23"/>
      <use x="442.96875" xlink:href="#DejaVuSans-38"/>
     </g>
    </g>
    <g id="line2d_81">
     <path d="
M495.67 353.399
L515.83 353.399" style="fill:none;stroke:#008000;stroke-linecap:square;"/>
    </g>
    <g id="line2d_82"/>
    <g id="text_35">
     <!-- locality#9 -->
     <defs>
      <path d="
M10.9844 1.51562
L10.9844 10.5
Q14.7031 8.73438 18.5 7.8125
Q22.3125 6.89062 25.9844 6.89062
Q35.75 6.89062 40.8906 13.4531
Q46.0469 20.0156 46.7812 33.4062
Q43.9531 29.2031 39.5938 26.9531
Q35.25 24.7031 29.9844 24.7031
Q19.0469 24.7031 12.6719 31.3125
Q6.29688 37.9375 6.29688 49.4219
Q6.29688 60.6406 12.9375 67.4219
Q19.5781 74.2188 30.6094 74.2188
Q43.2656 74.2188 49.9219 64.5156
Q56.5938 54.8281 56.5938 36.375
Q56.5938 19.1406 48.4062 8.85938
Q40.2344 -1.42188 26.4219 -1.42188
Q22.7031 -1.42188 18.8906 -0.6875
Q15.0938 0.046875 10.9844 1.51562
M30.6094 32.4219
Q37.25 32.4219 41.125 36.9531
Q45.0156 41.5 45.0156 49.4219
Q45.0156 57.2812 41.125 61.8438
Q37.25 66.4062 30.6094 66.4062
Q23.9688 66.4062 20.0938 61.8438
Q16.2188 57.2812 16.2188 49.4219
Q16.2188 41.5 20.0938 36.9531
Q23.9688 32.4219 30.6094 32.4219" id="DejaVuSans-39"/>
     </defs>
     <g transform="translate(531.67 358.439)scale(0.144 -0.144)">
      <use xlink:href="#DejaVuSans-6c"/>
      <use x="27.783203125" xlink:href="#DejaVuSans-6f"/>
      <use x="88.96484375" xlink:href="#DejaVuSans-63"/>
      <use x="143.9453125" xlink:href="#DejaVuSans-61"/>
      <use x="205.224609375" xlink:href="#DejaVuSans-6c"/>
      <use x="233.0078125" xlink:href="#DejaVuSans-69"/>
      <use x="260.791015625" xlink:href="#DejaVuSans-74"/>
      <use x="300.0" xlink:href="#DejaVuSans-79"/>
      <use x="359.1796875" xlink:href="#DejaVuSans-23"/>
      <use x="442.96875" xlink:href="#DejaVuSans-39"/>
     </g>
    </g>
   </g>
  </g>
 </g>
 <defs>
  <clipPath id="p77ac736e8d">
   <rect height="345.6" width="446.4" x="31.99" y="23.14175"/>
  </clipPath>
 </defs>
</svg>
