<?xml version="1.0" encoding="utf-8" standalone="no"?>
<!DOCTYPE svg PUBLIC "-//W3C//DTD SVG 1.1//EN"
  "http://www.w3.org/Graphics/SVG/1.1/DTD/svg11.dtd">
<!-- Created with matplotlib (http://matplotlib.org/) -->
<svg height="408pt" version="1.1" viewBox="0 0 610 408" width="610pt" xmlns="http://www.w3.org/2000/svg" xmlns:xlink="http://www.w3.org/1999/xlink">
 <defs>
  <style type="text/css">
*{stroke-linecap:butt;stroke-linejoin:round;}
  </style>
 </defs>
 <g id="figure_1">
  <g id="patch_1">
   <path d="
M0 408.169
L610.164 408.169
L610.164 0
L0 0
z
" style="fill:#ffffff;"/>
  </g>
  <g id="axes_1">
   <g id="patch_2">
    <path d="
M17.575 368.742
L463.975 368.742
L463.975 23.1417
L17.575 23.1417
z
" style="fill:#ffffff;"/>
   </g>
   <g id="line2d_1">
    <path clip-path="url(#pf51f381abf)" d="
M17.575 368.741
L28.7201 368.444
L38.074 367.98
L46.6318 367.338
L55.9857 366.398
L65.5386 365.225
L73.4994 364.018
L79.868 362.891
L86.4356 361.575
L93.9984 359.885
L99.5709 358.541
L107.93 356.414
L120.667 352.715
L128.23 350.181
L132.608 348.535
L137.783 346.264
L143.355 343.649
L149.923 340.397
L156.092 337.106
L170.223 329.303
L177.785 325.351
L188.134 320.259
L193.707 317.651
L204.056 312.679
L211.022 309.16
L218.186 305.361
L220.376 304.14
L225.152 301.409
L234.506 295.297
L242.666 289.474
L250.626 283.489
L253.413 281.182
L255.403 279.57
L264.558 272.434
L288.44 255.648
L297.396 248.907
L306.551 241.694
L316.104 233.811
L322.472 228.324
L342.573 210.843
L347.35 206.803
L348.743 205.604
L366.655 190.663
L380.188 179.436
L385.362 174.951
L387.154 173.333
L390.139 170.631
L392.129 168.778
L396.109 165.166
L407.454 154.81
L417.803 145.048
L427.953 135.203
L439.496 123.593
L447.854 114.872
L454.422 107.84
L457.009 104.791
L458.402 103.153
L459.597 101.835
L463.975 97.1589
L463.975 97.1589" style="fill:none;stroke:#0000ff;stroke-linecap:square;"/>
   </g>
   <g id="line2d_2">
    <path clip-path="url(#pf51f381abf)" d="
M17.575 368.742
L28.9191 368.589
L39.8651 368.207
L49.02 367.701
L64.5435 366.439
L72.3053 365.617
L79.669 364.68
L87.4307 363.534
L107.134 360.025
L111.711 359.097
L121.463 356.862
L128.23 355.076
L133.006 353.66
L138.579 351.689
L145.942 348.902
L155.495 345.066
L169.427 339.449
L171.815 338.499
L176.392 336.752
L184.154 333.804
L188.931 332.051
L196.095 329.479
L205.847 325.842
L215.201 322.138
L222.167 319.194
L225.55 317.638
L231.521 314.717
L252.219 304.223
L255.801 302.206
L269.931 294.643
L286.649 285.911
L295.605 280.837
L303.964 275.876
L316.104 268.625
L332.423 258.957
L335.807 256.993
L338.991 255.208
L340.782 254.201
L347.35 250.599
L348.743 249.812
L355.709 245.898
L367.252 239.224
L378.198 232.617
L379.392 231.854
L384.964 228.293
L386.557 227.212
L389.144 225.462
L390.736 224.367
L395.91 220.948
L397.105 220.161
L407.454 213.703
L421.385 204.904
L430.142 199.174
L439.496 192.845
L448.053 186.843
L454.82 181.933
L458.601 178.856
L463.975 174.868
L463.975 174.868" style="fill:none;stroke:#008000;stroke-linecap:square;"/>
   </g>
   <g id="line2d_3">
    <path clip-path="url(#pf51f381abf)" d="
M17.575 368.742
L26.5309 368.582
L33.6956 368.232
L44.2436 367.452
L54.5926 366.381
L61.9563 365.403
L68.7229 364.303
L75.0915 363.065
L81.2611 361.691
L91.2121 359.062
L96.9836 357.369
L102.755 355.578
L107.333 354.039
L121.065 348.861
L123.453 347.862
L131.016 344.525
L132.807 343.616
L135.394 342.283
L142.957 337.9
L149.127 334.195
L156.092 329.671
L189.528 306.841
L197.687 301.442
L207.24 294.952
L211.619 291.81
L227.739 279.651
L236.695 271.943
L252.219 257.938
L254.607 255.589
L266.349 244.818
L276.3 236.322
L287.843 226.153
L294.013 220.384
L306.551 208.003
L314.313 199.966
L324.065 189.309
L340.185 171.545
L343.767 167.816
L350.932 160.316
L357.699 153.188
L369.839 140.385
L388.746 120.384
L389.94 119.065
L392.527 116.227
L393.721 114.916
L408.051 99.8315
L426.559 79.6416
L440.093 64.0925
L454.422 46.6431
L456.611 43.6024
L458.004 41.6832
L459 40.3497
L463.975 34.0598
L463.975 34.0598" style="fill:none;stroke:#ff0000;stroke-linecap:square;"/>
   </g>
   <g id="line2d_4">
    <path clip-path="url(#pf51f381abf)" d="
M17.575 368.742
L27.1279 368.575
L35.8848 368.203
L44.0445 367.628
L51.6073 366.868
L59.7671 365.847
L67.9269 364.63
L74.8925 363.416
L82.0572 362.005
L96.3866 358.584
L109.92 354.507
L118.876 351.245
L125.244 348.572
L130.618 346.104
L133.404 344.665
L136.389 343
L141.564 339.856
L151.714 333.658
L170.223 321.831
L177.586 317.373
L191.12 309.654
L197.886 305.928
L209.031 299.646
L217.589 294.479
L219.778 293.068
L224.754 289.83
L228.137 287.413
L229.53 286.364
L236.496 280.846
L246.248 272.569
L247.641 271.318
L253.015 266.317
L255.204 264.164
L268.538 251.608
L276.499 244.458
L298.391 224.731
L324.861 200.451
L337.598 188.43
L339.787 186.449
L344.364 182.408
L345.559 181.336
L353.32 174.406
L365.261 163.476
L376.009 153.215
L381.581 147.724
L384.964 144.251
L386.557 142.537
L388.746 140.192
L389.94 138.895
L392.527 136.081
L393.721 134.765
L400.289 127.823
L409.245 118.181
L421.982 103.94
L437.306 86.3226
L455.815 65.1679
L458.601 61.6629
L463.975 55.6137
L463.975 55.6137" style="fill:none;stroke:#00bfbf;stroke-linecap:square;"/>
   </g>
   <g id="line2d_5">
    <path clip-path="url(#pf51f381abf)" d="
M17.575 368.742
L27.1279 368.575
L36.4818 368.18
L44.4426 367.635
L52.6024 366.839
L60.1651 365.876
L68.9219 364.536
L83.4503 361.788
L98.9738 358.127
L104.148 356.713
L115.691 352.978
L124.249 349.67
L130.419 346.996
L133.006 345.736
L137.385 343.32
L140.569 341.411
L146.738 337.691
L155.296 332.27
L167.635 324.239
L169.228 323.259
L176.392 318.921
L192.314 309.968
L196.692 307.627
L204.852 303.183
L212.216 298.968
L220.177 294.096
L224.953 290.997
L227.341 289.329
L234.307 284.018
L242.268 277.518
L249.631 271.175
L252.219 268.798
L254.806 266.283
L259.98 261.431
L260.975 260.483
L262.568 258.987
L265.752 256.076
L275.504 247.493
L318.492 209.281
L332.423 196.109
L334.812 193.907
L336.404 192.462
L337.797 191.212
L340.384 188.911
L341.578 187.865
L344.364 185.401
L345.559 184.331
L351.927 178.674
L362.276 169.332
L370.038 162.108
L379.989 152.509
L384.964 147.508
L386.557 145.813
L388.746 143.509
L389.94 142.23
L392.527 139.452
L393.721 138.155
L402.08 129.438
L417.205 113.079
L456.412 70.2534
L459 67.1602
L463.975 61.7165
L463.975 61.7165" style="fill:none;stroke:#bf00bf;stroke-linecap:square;"/>
   </g>
   <g id="line2d_6">
    <path clip-path="url(#pf51f381abf)" d="
M17.575 368.742
L27.526 368.576
L35.4867 368.236
L46.6318 367.428
L55.5877 366.523
L62.7524 365.631
L70.9121 364.385
L81.4602 362.361
L88.2268 360.821
L95.1925 359.045
L101.76 357.228
L107.333 355.587
L121.264 350.977
L128.628 348.178
L132.608 346.489
L137.982 343.837
L142.36 341.542
L145.345 339.921
L147.136 338.937
L149.326 337.729
L157.087 333.057
L174.203 322.192
L177.387 320.202
L194.503 309.763
L207.041 302.452
L217.589 296.188
L219.778 294.831
L224.754 291.778
L228.137 289.524
L229.53 288.552
L236.695 283.299
L245.054 276.847
L251.423 271.685
L254.408 269.004
L269.334 256.402
L277.892 249.477
L285.853 242.822
L293.814 235.764
L306.551 223.787
L318.89 211.729
L331.627 199.533
L334.613 196.807
L336.802 194.925
L338.593 193.385
L341.976 190.593
L347.35 186.109
L348.544 185.096
L356.704 178.317
L368.645 168.124
L383.969 154.33
L385.76 152.537
L388.149 150.199
L389.542 148.779
L391.731 146.594
L392.925 145.385
L403.075 135.451
L415.016 123.376
L423.375 114.654
L435.117 101.952
L456.213 78.1065
L458.203 75.6476
L463.975 69.3473
L463.975 69.3473" style="fill:none;stroke:#bfbf00;stroke-linecap:square;"/>
   </g>
   <g id="line2d_7">
    <path clip-path="url(#pf51f381abf)" d="
M17.575 368.742
L27.725 368.579
L36.6808 368.213
L46.0347 367.626
L54.3935 366.889
L61.9563 366.022
L69.718 364.92
L85.8386 362.099
L103.551 358.156
L116.089 354.535
L119.075 353.545
L126.837 350.716
L131.812 348.672
L134.399 347.496
L136.987 346.198
L140.967 344.118
L143.156 343.011
L154.5 337.039
L168.631 329.345
L178.382 324.229
L184.154 321.225
L187.935 319.306
L195.1 315.805
L196.692 315.003
L202.265 312.168
L212.017 306.953
L218.186 303.442
L219.778 302.48
L224.754 299.476
L228.137 297.235
L229.53 296.262
L238.287 289.846
L265.752 268.916
L272.32 264.392
L285.455 255.255
L294.212 248.711
L301.774 242.752
L309.934 236.068
L318.691 228.601
L328.443 219.933
L336.205 213.004
L340.384 209.47
L341.578 208.485
L344.364 206.167
L345.559 205.161
L364.465 189.815
L382.178 175.578
L385.362 172.851
L386.557 171.803
L389.144 169.519
L390.736 168.09
L393.124 165.978
L394.119 165.1
L399.095 160.783
L410.041 151.071
L418.002 143.787
L431.137 131.323
L441.486 121.106
L448.85 113.556
L455.417 106.549
L458.203 103.202
L463.975 96.9631
L463.975 96.9631" style="fill:none;stroke:#000000;stroke-linecap:square;"/>
   </g>
   <g id="line2d_8">
    <path clip-path="url(#pf51f381abf)" d="
M17.575 368.742
L28.322 368.579
L37.2779 368.22
L47.6269 367.598
L56.3837 366.85
L64.7425 365.917
L73.3004 364.732
L82.4552 363.305
L97.9787 360.367
L103.551 359.105
L116.289 355.68
L124.846 352.897
L131.016 350.718
L133.006 349.935
L138.181 347.717
L144.151 345.09
L155.097 340.107
L163.058 336.186
L166.242 334.66
L189.528 323.655
L195.1 321.16
L196.891 320.342
L206.245 315.937
L212.813 312.666
L224.754 306.419
L228.137 304.522
L229.729 303.592
L245.452 294.138
L252.219 289.792
L255.005 287.855
L271.324 277.165
L279.683 271.857
L290.43 264.727
L298.59 258.95
L306.949 252.769
L335.807 231.013
L338.394 229.222
L341.379 227.207
L347.35 223.21
L348.544 222.386
L358.694 215.439
L366.257 210.119
L376.606 202.589
L384.367 196.663
L386.159 195.176
L389.144 192.748
L390.736 191.418
L395.512 187.545
L405.662 179.3
L450.442 141.704
L454.82 137.833
L458.203 134.514
L463.975 129.343
L463.975 129.343" style="fill:none;stroke:#0000ff;stroke-linecap:square;"/>
   </g>
   <g id="line2d_9">
    <path clip-path="url(#pf51f381abf)" d="
M17.575 368.742
L29.5162 368.587
L40.8602 368.201
L50.4132 367.685
L65.7376 366.48
L73.3004 365.712
L81.8582 364.671
L89.0229 363.651
L97.7797 362.218
L116.886 358.609
L126.239 356.402
L133.006 354.55
L138.977 352.567
L144.748 350.505
L158.68 345.263
L165.844 342.592
L198.085 331.314
L206.643 328.314
L214.803 325.274
L223.162 321.932
L226.346 320.585
L229.132 319.375
L248.238 310.476
L253.214 307.915
L255.602 306.651
L268.936 299.861
L278.688 295.081
L291.027 288.707
L320.482 272.64
L332.423 265.774
L335.807 263.878
L338.991 262.156
L340.782 261.189
L349.141 256.759
L358.694 251.574
L369.242 245.649
L388.746 234.306
L390.736 233.097
L394.517 230.847
L401.682 226.656
L413.822 219.362
L426.161 211.664
L439.496 203.008
L448.452 196.943
L455.019 192.305
L456.81 190.911
L459 189.201
L463.975 185.669
L463.975 185.669" style="fill:none;stroke:#008000;stroke-linecap:square;"/>
   </g>
   <g id="line2d_10">
    <path clip-path="url(#pf51f381abf)" d="
M17.575 368.742
L29.3171 368.588
L41.0593 368.197
L50.6122 367.664
L62.7524 366.773
L71.9072 365.883
L80.067 364.91
L88.0278 363.796
L109.124 360.31
L120.269 357.926
L129.225 355.64
L133.603 354.361
L151.515 348.071
L161.068 344.481
L165.645 342.783
L181.766 336.908
L184.154 336.022
L189.13 334.257
L198.085 331.131
L207.638 327.651
L219.579 323.037
L221.968 322.107
L225.55 320.644
L241.87 313.212
L249.432 309.449
L253.413 307.289
L255.602 306.1
L268.936 299.081
L279.882 293.54
L292.221 286.987
L305.158 280.074
L313.716 275.418
L325.458 268.771
L337.598 261.732
L340.384 260.21
L341.777 259.462
L347.35 256.437
L348.743 255.663
L354.514 252.485
L367.252 245.281
L388.746 232.662
L390.736 231.425
L395.91 228.319
L397.304 227.475
L406.657 221.881
L418.201 214.735
L429.346 207.572
L442.083 199.073
L452.432 191.872
L455.417 189.657
L458.601 187.092
L463.975 183.217
L463.975 183.217" style="fill:none;stroke:#ff0000;stroke-linecap:square;"/>
   </g>
   <g id="line2d_11">
    <path clip-path="url(#pf51f381abf)" d="
M17.575 368.742
L29.1181 368.584
L40.6612 368.187
L52.8014 367.456
L64.1455 366.496
L73.1013 365.557
L88.0278 363.512
L105.541 360.364
L122.259 356.694
L130.817 354.448
L134.399 353.337
L138.38 351.936
L144.947 349.53
L148.928 348.011
L157.087 344.669
L165.645 341.003
L181.169 334.961
L189.528 331.894
L197.289 329.149
L208.434 325.061
L218.186 321.211
L220.376 320.29
L224.754 318.413
L236.098 312.809
L249.83 305.371
L267.344 295.863
L278.688 290.227
L292.619 282.886
L298.59 279.531
L308.939 273.445
L319.487 266.908
L329.04 260.723
L334.812 257.067
L337.001 255.765
L338.792 254.748
L347.35 250.07
L348.743 249.29
L356.704 244.903
L367.65 238.757
L378.198 232.608
L379.591 231.756
L384.765 228.573
L387.552 226.773
L389.343 225.573
L393.124 223.097
L394.318 222.317
L403.473 216.385
L413.026 210.007
L424.569 202.057
L439.894 191.723
L452.631 182.97
L453.825 182.116
L455.815 180.616
L458.801 178.239
L463.975 174.5
L463.975 174.5" style="fill:none;stroke:#00bfbf;stroke-linecap:square;"/>
   </g>
   <g id="line2d_12">
    <path clip-path="url(#pf51f381abf)" d="
M17.575 368.742
L29.1181 368.583
L38.472 368.24
L49.4181 367.618
L58.3739 366.909
L70.9121 365.537
L90.018 362.731
L96.7846 361.555
L104.148 360.147
L116.687 357.233
L124.647 355.003
L131.613 352.787
L140.37 349.401
L143.156 348.283
L156.092 343.002
L169.427 337.293
L171.616 336.36
L175.994 334.542
L177.586 333.891
L205.847 322.389
L215.4 318.196
L223.162 314.529
L227.54 312.341
L229.729 311.187
L246.248 302.215
L248.238 301.082
L252.617 298.522
L255.801 296.578
L268.737 288.988
L275.902 284.968
L288.838 277.432
L295.605 273.212
L305.357 266.815
L313.716 261.122
L329.637 250.243
L334.812 246.869
L336.802 245.631
L338.792 244.401
L344.364 241.045
L345.758 240.21
L354.116 235.17
L368.645 226.173
L383.372 216.509
L385.561 214.909
L388.746 212.628
L390.338 211.454
L393.124 209.417
L394.318 208.549
L405.463 200.545
L413.822 194.362
L425.962 185.123
L435.117 178.291
L445.665 170.479
L446.859 169.555
L454.024 164.1
L456.611 161.874
L458.004 160.681
L459.199 159.698
L463.975 155.926
L463.975 155.926" style="fill:none;stroke:#bf00bf;stroke-linecap:square;"/>
   </g>
   <g id="line2d_13">
    <path clip-path="url(#pf51f381abf)" d="
M17.575 368.742
L28.5211 368.582
L37.875 368.207
L47.6269 367.61
L56.1847 366.895
L64.9416 365.956
L79.2709 363.871
L87.2317 362.515
L94.9935 361.05
L100.964 359.825
L106.537 358.574
L111.313 357.407
L121.264 354.583
L127.235 352.633
L132.608 350.666
L138.181 348.226
L144.151 345.41
L156.49 339.392
L166.043 334.593
L176.79 329.556
L184.353 326.103
L188.134 324.441
L196.095 321.052
L206.245 316.586
L215.002 312.478
L222.963 308.499
L225.948 306.844
L228.535 305.408
L235.899 300.809
L245.651 294.245
L252.02 289.694
L254.806 287.549
L264.757 280.534
L270.528 276.932
L288.042 266.059
L296.401 260.538
L306.949 253.201
L315.308 247.091
L327.448 237.711
L338.593 229.034
L343.568 225.423
L344.962 224.377
L352.723 218.694
L376.208 201.498
L386.756 193.76
L388.348 192.516
L391.333 190.209
L392.925 188.952
L397.901 185.171
L411.036 175.038
L420.191 167.692
L430.341 159.272
L445.864 145.827
L454.422 138.116
L457.606 134.864
L463.975 128.85
L463.975 128.85" style="fill:none;stroke:#bfbf00;stroke-linecap:square;"/>
   </g>
   <g id="line2d_14">
    <path clip-path="url(#pf51f381abf)" d="
M17.575 368.742
L27.725 368.576
L37.2779 368.174
L46.0347 367.613
L54.3935 366.886
L61.7573 366.055
L68.7229 365.08
L74.8925 364.048
L83.0523 362.558
L101.959 358.491
L115.492 354.799
L124.05 351.975
L131.016 349.367
L133.006 348.511
L137.385 346.42
L140.967 344.552
L142.957 343.526
L149.326 340.095
L157.485 335.375
L164.053 331.466
L176.79 324.48
L186.144 319.63
L188.731 318.372
L199.08 313.438
L212.813 306.573
L218.186 303.699
L220.177 302.589
L225.351 299.635
L236.098 292.446
L244.059 286.578
L251.423 280.855
L254.408 278.275
L268.936 266.471
L283.863 255.203
L285.057 254.32
L313.118 232.746
L323.069 224.511
L333.219 215.775
L334.414 214.782
L337.598 212.176
L339.588 210.587
L340.981 209.462
L344.763 206.446
L353.718 199.307
L364.067 190.87
L373.222 183.182
L383.372 174.3
L384.765 172.963
L386.756 171.079
L388.348 169.54
L391.333 166.69
L392.726 165.308
L399.095 159.315
L417.405 142.614
L427.754 133.336
L443.675 118.625
L451.636 111.01
L454.82 107.813
L457.009 105.405
L458.402 103.883
L459.597 102.665
L463.975 98.2625
L463.975 98.2625" style="fill:none;stroke:#000000;stroke-linecap:square;"/>
   </g>
   <g id="line2d_15">
    <path clip-path="url(#pf51f381abf)" d="
M17.575 368.742
L27.1279 368.581
L35.0887 368.224
L43.8455 367.611
L55.7867 366.399
L63.5484 365.357
L70.1161 364.264
L76.0866 363.086
L91.4111 359.49
L99.1729 357.417
L116.488 352.046
L125.045 348.821
L131.016 346.319
L133.205 345.251
L135.394 344.142
L147.933 336.772
L153.107 333.437
L160.869 328.004
L164.65 325.376
L171.019 320.921
L175.596 317.756
L188.731 309.131
L199.28 302.899
L217.589 291.925
L219.181 290.907
L224.754 287.324
L236.098 278.855
L243.462 272.788
L251.024 266.233
L253.214 264.155
L255.403 262.073
L259.383 258.338
L264.956 253.202
L269.732 249.05
L280.28 239.778
L287.047 233.645
L295.406 225.634
L307.347 213.594
L334.812 185.355
L336.404 183.865
L337.797 182.585
L343.568 177.463
L344.962 176.19
L357.699 164.91
L367.849 155.685
L376.208 147.866
L383.969 140.321
L385.76 138.415
L388.149 135.928
L389.542 134.418
L391.731 132.103
L392.925 130.817
L398.1 125.423
L415.812 106.448
L424.967 96.2419
L432.53 87.5616
L441.287 77.2581
L448.053 68.9643
L455.417 59.6849
L457.805 56.347
L460.99 52.3012
L463.975 48.7029
L463.975 48.7029" style="fill:none;stroke:#0000ff;stroke-linecap:square;"/>
   </g>
   <g id="line2d_16">
    <path clip-path="url(#pf51f381abf)" d="
M17.575 368.742
L26.9289 368.576
L35.4867 368.215
L45.2387 367.516
L53.0004 366.702
L59.568 365.831
L66.5337 364.759
L81.2611 361.976
L92.2072 359.427
L107.333 355.117
L116.289 351.999
L123.851 348.916
L131.016 345.629
L132.807 344.666
L135.195 343.35
L137.385 341.985
L139.574 340.622
L145.743 336.641
L156.49 329.396
L165.446 323.157
L177.785 315.176
L189.329 308.157
L195.1 304.922
L196.692 304.014
L204.255 299.643
L212.813 294.517
L219.181 290.443
L224.754 286.7
L235.501 278.328
L242.865 272.069
L250.029 265.68
L252.617 263.186
L255.005 260.798
L268.737 247.784
L276.101 241.094
L286.848 230.996
L332.224 186.461
L334.215 184.484
L336.006 182.819
L337.797 181.14
L340.384 178.745
L341.578 177.664
L344.364 175.123
L345.559 174.024
L349.539 170.386
L365.261 155.814
L378.596 142.771
L384.367 136.874
L386.159 134.886
L388.746 132.092
L389.94 130.77
L391.731 128.784
L392.925 127.446
L399.493 120.352
L413.026 105.422
L417.205 100.664
L429.545 86.2477
L456.213 54.1346
L458.601 50.9862
L463.975 44.679
L463.975 44.679" style="fill:none;stroke:#008000;stroke-linecap:square;"/>
   </g>
   <g id="patch_3">
    <path d="
M17.575 23.1417
L463.975 23.1417" style="fill:none;stroke:#000000;stroke-linecap:square;stroke-linejoin:miter;"/>
   </g>
   <g id="patch_4">
    <path d="
M463.975 368.742
L463.975 23.1417" style="fill:none;stroke:#000000;stroke-linecap:square;stroke-linejoin:miter;"/>
   </g>
   <g id="patch_5">
    <path d="
M17.575 368.742
L463.975 368.742" style="fill:none;stroke:#000000;stroke-linecap:square;stroke-linejoin:miter;"/>
   </g>
   <g id="patch_6">
    <path d="
M17.575 368.742
L17.575 23.1417" style="fill:none;stroke:#000000;stroke-linecap:square;stroke-linejoin:miter;"/>
   </g>
   <g id="matplotlib.axis_1">
    <g id="xtick_1">
     <g id="line2d_17">
      <defs>
       <path d="
M0 0
L0 -4" id="m93b0483c22" style="stroke:#000000;stroke-width:0.5;"/>
      </defs>
      <g>
       <use style="stroke:#000000;stroke-width:0.5;" x="17.575" xlink:href="#m93b0483c22" y="368.74175"/>
      </g>
     </g>
     <g id="line2d_18">
      <defs>
       <path d="
M0 0
L0 4" id="m741efc42ff" style="stroke:#000000;stroke-width:0.5;"/>
      </defs>
      <g>
       <use style="stroke:#000000;stroke-width:0.5;" x="17.575" xlink:href="#m741efc42ff" y="23.14175"/>
      </g>
     </g>
     <g id="text_1">
      <!-- 0 -->
      <defs>
       <path d="
M31.7812 66.4062
Q24.1719 66.4062 20.3281 58.9062
Q16.5 51.4219 16.5 36.375
Q16.5 21.3906 20.3281 13.8906
Q24.1719 6.39062 31.7812 6.39062
Q39.4531 6.39062 43.2812 13.8906
Q47.125 21.3906 47.125 36.375
Q47.125 51.4219 43.2812 58.9062
Q39.4531 66.4062 31.7812 66.4062
M31.7812 74.2188
Q44.0469 74.2188 50.5156 64.5156
Q56.9844 54.8281 56.9844 36.375
Q56.9844 17.9688 50.5156 8.26562
Q44.0469 -1.42188 31.7812 -1.42188
Q19.5312 -1.42188 13.0625 8.26562
Q6.59375 17.9688 6.59375 36.375
Q6.59375 54.8281 13.0625 64.5156
Q19.5312 74.2188 31.7812 74.2188" id="DejaVuSans-30"/>
      </defs>
      <g transform="translate(14.5515625 381.859875)scale(0.12 -0.12)">
       <use xlink:href="#DejaVuSans-30"/>
      </g>
     </g>
    </g>
    <g id="xtick_2">
     <g id="line2d_19">
      <g>
       <use style="stroke:#000000;stroke-width:0.5;" x="117.084585377" xlink:href="#m93b0483c22" y="368.74175"/>
      </g>
     </g>
     <g id="line2d_20">
      <g>
       <use style="stroke:#000000;stroke-width:0.5;" x="117.084585377" xlink:href="#m741efc42ff" y="23.14175"/>
      </g>
     </g>
     <g id="text_2">
      <!-- 500 -->
      <defs>
       <path d="
M10.7969 72.9062
L49.5156 72.9062
L49.5156 64.5938
L19.8281 64.5938
L19.8281 46.7344
Q21.9688 47.4688 24.1094 47.8281
Q26.2656 48.1875 28.4219 48.1875
Q40.625 48.1875 47.75 41.5
Q54.8906 34.8125 54.8906 23.3906
Q54.8906 11.625 47.5625 5.09375
Q40.2344 -1.42188 26.9062 -1.42188
Q22.3125 -1.42188 17.5469 -0.640625
Q12.7969 0.140625 7.71875 1.70312
L7.71875 11.625
Q12.1094 9.23438 16.7969 8.0625
Q21.4844 6.89062 26.7031 6.89062
Q35.1562 6.89062 40.0781 11.3281
Q45.0156 15.7656 45.0156 23.3906
Q45.0156 31 40.0781 35.4375
Q35.1562 39.8906 26.7031 39.8906
Q22.75 39.8906 18.8125 39.0156
Q14.8906 38.1406 10.7969 36.2812
z
" id="DejaVuSans-35"/>
      </defs>
      <g transform="translate(106.493647877 381.859875)scale(0.12 -0.12)">
       <use xlink:href="#DejaVuSans-35"/>
       <use x="63.623046875" xlink:href="#DejaVuSans-30"/>
       <use x="127.24609375" xlink:href="#DejaVuSans-30"/>
      </g>
     </g>
    </g>
    <g id="xtick_3">
     <g id="line2d_21">
      <g>
       <use style="stroke:#000000;stroke-width:0.5;" x="216.594170753" xlink:href="#m93b0483c22" y="368.74175"/>
      </g>
     </g>
     <g id="line2d_22">
      <g>
       <use style="stroke:#000000;stroke-width:0.5;" x="216.594170753" xlink:href="#m741efc42ff" y="23.14175"/>
      </g>
     </g>
     <g id="text_3">
      <!-- 1000 -->
      <defs>
       <path d="
M12.4062 8.29688
L28.5156 8.29688
L28.5156 63.9219
L10.9844 60.4062
L10.9844 69.3906
L28.4219 72.9062
L38.2812 72.9062
L38.2812 8.29688
L54.3906 8.29688
L54.3906 0
L12.4062 0
z
" id="DejaVuSans-31"/>
      </defs>
      <g transform="translate(202.381670753 381.859875)scale(0.12 -0.12)">
       <use xlink:href="#DejaVuSans-31"/>
       <use x="63.623046875" xlink:href="#DejaVuSans-30"/>
       <use x="127.24609375" xlink:href="#DejaVuSans-30"/>
       <use x="190.869140625" xlink:href="#DejaVuSans-30"/>
      </g>
     </g>
    </g>
    <g id="xtick_4">
     <g id="line2d_23">
      <g>
       <use style="stroke:#000000;stroke-width:0.5;" x="316.10375613" xlink:href="#m93b0483c22" y="368.74175"/>
      </g>
     </g>
     <g id="line2d_24">
      <g>
       <use style="stroke:#000000;stroke-width:0.5;" x="316.10375613" xlink:href="#m741efc42ff" y="23.14175"/>
      </g>
     </g>
     <g id="text_4">
      <!-- 1500 -->
      <g transform="translate(301.89125613 381.859875)scale(0.12 -0.12)">
       <use xlink:href="#DejaVuSans-31"/>
       <use x="63.623046875" xlink:href="#DejaVuSans-35"/>
       <use x="127.24609375" xlink:href="#DejaVuSans-30"/>
       <use x="190.869140625" xlink:href="#DejaVuSans-30"/>
      </g>
     </g>
    </g>
    <g id="xtick_5">
     <g id="line2d_25">
      <g>
       <use style="stroke:#000000;stroke-width:0.5;" x="415.613341507" xlink:href="#m93b0483c22" y="368.74175"/>
      </g>
     </g>
     <g id="line2d_26">
      <g>
       <use style="stroke:#000000;stroke-width:0.5;" x="415.613341507" xlink:href="#m741efc42ff" y="23.14175"/>
      </g>
     </g>
     <g id="text_5">
      <!-- 2000 -->
      <defs>
       <path d="
M19.1875 8.29688
L53.6094 8.29688
L53.6094 0
L7.32812 0
L7.32812 8.29688
Q12.9375 14.1094 22.625 23.8906
Q32.3281 33.6875 34.8125 36.5312
Q39.5469 41.8438 41.4219 45.5312
Q43.3125 49.2188 43.3125 52.7812
Q43.3125 58.5938 39.2344 62.25
Q35.1562 65.9219 28.6094 65.9219
Q23.9688 65.9219 18.8125 64.3125
Q13.6719 62.7031 7.8125 59.4219
L7.8125 69.3906
Q13.7656 71.7812 18.9375 73
Q24.125 74.2188 28.4219 74.2188
Q39.75 74.2188 46.4844 68.5469
Q53.2188 62.8906 53.2188 53.4219
Q53.2188 48.9219 51.5312 44.8906
Q49.8594 40.875 45.4062 35.4062
Q44.1875 33.9844 37.6406 27.2188
Q31.1094 20.4531 19.1875 8.29688" id="DejaVuSans-32"/>
      </defs>
      <g transform="translate(401.181466507 381.859875)scale(0.12 -0.12)">
       <use xlink:href="#DejaVuSans-32"/>
       <use x="63.623046875" xlink:href="#DejaVuSans-30"/>
       <use x="127.24609375" xlink:href="#DejaVuSans-30"/>
       <use x="190.869140625" xlink:href="#DejaVuSans-30"/>
      </g>
     </g>
    </g>
    <g id="text_6">
     <!-- time -->
     <defs>
      <path d="
M18.3125 70.2188
L18.3125 54.6875
L36.8125 54.6875
L36.8125 47.7031
L18.3125 47.7031
L18.3125 18.0156
Q18.3125 11.3281 20.1406 9.42188
Q21.9688 7.51562 27.5938 7.51562
L36.8125 7.51562
L36.8125 0
L27.5938 0
Q17.1875 0 13.2344 3.875
Q9.28125 7.76562 9.28125 18.0156
L9.28125 47.7031
L2.6875 47.7031
L2.6875 54.6875
L9.28125 54.6875
L9.28125 70.2188
z
" id="DejaVuSans-74"/>
      <path d="
M52 44.1875
Q55.375 50.25 60.0625 53.125
Q64.75 56 71.0938 56
Q79.6406 56 84.2812 50.0156
Q88.9219 44.0469 88.9219 33.0156
L88.9219 0
L79.8906 0
L79.8906 32.7188
Q79.8906 40.5781 77.0938 44.375
Q74.3125 48.1875 68.6094 48.1875
Q61.625 48.1875 57.5625 43.5469
Q53.5156 38.9219 53.5156 30.9062
L53.5156 0
L44.4844 0
L44.4844 32.7188
Q44.4844 40.625 41.7031 44.4062
Q38.9219 48.1875 33.1094 48.1875
Q26.2188 48.1875 22.1562 43.5312
Q18.1094 38.875 18.1094 30.9062
L18.1094 0
L9.07812 0
L9.07812 54.6875
L18.1094 54.6875
L18.1094 46.1875
Q21.1875 51.2188 25.4844 53.6094
Q29.7812 56 35.6875 56
Q41.6562 56 45.8281 52.9688
Q50 49.9531 52 44.1875" id="DejaVuSans-6d"/>
      <path d="
M56.2031 29.5938
L56.2031 25.2031
L14.8906 25.2031
Q15.4844 15.9219 20.4844 11.0625
Q25.4844 6.20312 34.4219 6.20312
Q39.5938 6.20312 44.4531 7.46875
Q49.3125 8.73438 54.1094 11.2812
L54.1094 2.78125
Q49.2656 0.734375 44.1875 -0.34375
Q39.1094 -1.42188 33.8906 -1.42188
Q20.7969 -1.42188 13.1562 6.1875
Q5.51562 13.8125 5.51562 26.8125
Q5.51562 40.2344 12.7656 48.1094
Q20.0156 56 32.3281 56
Q43.3594 56 49.7812 48.8906
Q56.2031 41.7969 56.2031 29.5938
M47.2188 32.2344
Q47.125 39.5938 43.0938 43.9844
Q39.0625 48.3906 32.4219 48.3906
Q24.9062 48.3906 20.3906 44.1406
Q15.875 39.8906 15.1875 32.1719
z
" id="DejaVuSans-65"/>
      <path d="
M9.42188 54.6875
L18.4062 54.6875
L18.4062 0
L9.42188 0
z

M9.42188 75.9844
L18.4062 75.9844
L18.4062 64.5938
L9.42188 64.5938
z
" id="DejaVuSans-69"/>
     </defs>
     <g transform="translate(227.700625 398.473625)scale(0.12 -0.12)">
      <use xlink:href="#DejaVuSans-74"/>
      <use x="39.208984375" xlink:href="#DejaVuSans-69"/>
      <use x="66.9921875" xlink:href="#DejaVuSans-6d"/>
      <use x="164.404296875" xlink:href="#DejaVuSans-65"/>
     </g>
    </g>
   </g>
   <g id="matplotlib.axis_2">
    <g id="ytick_1">
     <g id="line2d_27">
      <defs>
       <path d="
M0 0
L4 0" id="m728421d6d4" style="stroke:#000000;stroke-width:0.5;"/>
      </defs>
      <g>
       <use style="stroke:#000000;stroke-width:0.5;" x="17.575" xlink:href="#m728421d6d4" y="368.74175"/>
      </g>
     </g>
     <g id="line2d_28">
      <defs>
       <path d="
M0 0
L-4 0" id="mcb0005524f" style="stroke:#000000;stroke-width:0.5;"/>
      </defs>
      <g>
       <use style="stroke:#000000;stroke-width:0.5;" x="463.975" xlink:href="#mcb0005524f" y="368.74175"/>
      </g>
     </g>
     <g id="text_7">
      <!-- 0 -->
      <g transform="translate(7.528125 372.053)scale(0.12 -0.12)">
       <use xlink:href="#DejaVuSans-30"/>
      </g>
     </g>
    </g>
    <g id="ytick_2">
     <g id="line2d_29">
      <g>
       <use style="stroke:#000000;stroke-width:0.5;" x="17.575" xlink:href="#m728421d6d4" y="311.14175"/>
      </g>
     </g>
     <g id="line2d_30">
      <g>
       <use style="stroke:#000000;stroke-width:0.5;" x="463.975" xlink:href="#mcb0005524f" y="311.14175"/>
      </g>
     </g>
     <g id="text_8">
      <!-- 1 -->
      <g transform="translate(8.36625 314.453)scale(0.12 -0.12)">
       <use xlink:href="#DejaVuSans-31"/>
      </g>
     </g>
    </g>
    <g id="ytick_3">
     <g id="line2d_31">
      <g>
       <use style="stroke:#000000;stroke-width:0.5;" x="17.575" xlink:href="#m728421d6d4" y="253.54175"/>
      </g>
     </g>
     <g id="line2d_32">
      <g>
       <use style="stroke:#000000;stroke-width:0.5;" x="463.975" xlink:href="#mcb0005524f" y="253.54175"/>
      </g>
     </g>
     <g id="text_9">
      <!-- 2 -->
      <g transform="translate(8.02125 256.853)scale(0.12 -0.12)">
       <use xlink:href="#DejaVuSans-32"/>
      </g>
     </g>
    </g>
    <g id="ytick_4">
     <g id="line2d_33">
      <g>
       <use style="stroke:#000000;stroke-width:0.5;" x="17.575" xlink:href="#m728421d6d4" y="195.94175"/>
      </g>
     </g>
     <g id="line2d_34">
      <g>
       <use style="stroke:#000000;stroke-width:0.5;" x="463.975" xlink:href="#mcb0005524f" y="195.94175"/>
      </g>
     </g>
     <g id="text_10">
      <!-- 3 -->
      <defs>
       <path d="
M40.5781 39.3125
Q47.6562 37.7969 51.625 33
Q55.6094 28.2188 55.6094 21.1875
Q55.6094 10.4062 48.1875 4.48438
Q40.7656 -1.42188 27.0938 -1.42188
Q22.5156 -1.42188 17.6562 -0.515625
Q12.7969 0.390625 7.625 2.20312
L7.625 11.7188
Q11.7188 9.32812 16.5938 8.10938
Q21.4844 6.89062 26.8125 6.89062
Q36.0781 6.89062 40.9375 10.5469
Q45.7969 14.2031 45.7969 21.1875
Q45.7969 27.6406 41.2812 31.2656
Q36.7656 34.9062 28.7188 34.9062
L20.2188 34.9062
L20.2188 43.0156
L29.1094 43.0156
Q36.375 43.0156 40.2344 45.9219
Q44.0938 48.8281 44.0938 54.2969
Q44.0938 59.9062 40.1094 62.9062
Q36.1406 65.9219 28.7188 65.9219
Q24.6562 65.9219 20.0156 65.0312
Q15.375 64.1562 9.8125 62.3125
L9.8125 71.0938
Q15.4375 72.6562 20.3438 73.4375
Q25.25 74.2188 29.5938 74.2188
Q40.8281 74.2188 47.3594 69.1094
Q53.9062 64.0156 53.9062 55.3281
Q53.9062 49.2656 50.4375 45.0938
Q46.9688 40.9219 40.5781 39.3125" id="DejaVuSans-33"/>
      </defs>
      <g transform="translate(7.816875 199.253)scale(0.12 -0.12)">
       <use xlink:href="#DejaVuSans-33"/>
      </g>
     </g>
    </g>
    <g id="ytick_5">
     <g id="line2d_35">
      <g>
       <use style="stroke:#000000;stroke-width:0.5;" x="17.575" xlink:href="#m728421d6d4" y="138.34175"/>
      </g>
     </g>
     <g id="line2d_36">
      <g>
       <use style="stroke:#000000;stroke-width:0.5;" x="463.975" xlink:href="#mcb0005524f" y="138.34175"/>
      </g>
     </g>
     <g id="text_11">
      <!-- 4 -->
      <defs>
       <path d="
M37.7969 64.3125
L12.8906 25.3906
L37.7969 25.3906
z

M35.2031 72.9062
L47.6094 72.9062
L47.6094 25.3906
L58.0156 25.3906
L58.0156 17.1875
L47.6094 17.1875
L47.6094 0
L37.7969 0
L37.7969 17.1875
L4.89062 17.1875
L4.89062 26.7031
z
" id="DejaVuSans-34"/>
      </defs>
      <g transform="translate(7.2 141.653)scale(0.12 -0.12)">
       <use xlink:href="#DejaVuSans-34"/>
      </g>
     </g>
    </g>
    <g id="ytick_6">
     <g id="line2d_37">
      <g>
       <use style="stroke:#000000;stroke-width:0.5;" x="17.575" xlink:href="#m728421d6d4" y="80.74175"/>
      </g>
     </g>
     <g id="line2d_38">
      <g>
       <use style="stroke:#000000;stroke-width:0.5;" x="463.975" xlink:href="#mcb0005524f" y="80.74175"/>
      </g>
     </g>
     <g id="text_12">
      <!-- 5 -->
      <g transform="translate(7.914375 84.053)scale(0.12 -0.12)">
       <use xlink:href="#DejaVuSans-35"/>
      </g>
     </g>
    </g>
    <g id="ytick_7">
     <g id="line2d_39">
      <g>
       <use style="stroke:#000000;stroke-width:0.5;" x="17.575" xlink:href="#m728421d6d4" y="23.14175"/>
      </g>
     </g>
     <g id="line2d_40">
      <g>
       <use style="stroke:#000000;stroke-width:0.5;" x="463.975" xlink:href="#mcb0005524f" y="23.14175"/>
      </g>
     </g>
     <g id="text_13">
      <!-- 6 -->
      <defs>
       <path d="
M33.0156 40.375
Q26.375 40.375 22.4844 35.8281
Q18.6094 31.2969 18.6094 23.3906
Q18.6094 15.5312 22.4844 10.9531
Q26.375 6.39062 33.0156 6.39062
Q39.6562 6.39062 43.5312 10.9531
Q47.4062 15.5312 47.4062 23.3906
Q47.4062 31.2969 43.5312 35.8281
Q39.6562 40.375 33.0156 40.375
M52.5938 71.2969
L52.5938 62.3125
Q48.875 64.0625 45.0938 64.9844
Q41.3125 65.9219 37.5938 65.9219
Q27.8281 65.9219 22.6719 59.3281
Q17.5312 52.7344 16.7969 39.4062
Q19.6719 43.6562 24.0156 45.9219
Q28.375 48.1875 33.5938 48.1875
Q44.5781 48.1875 50.9531 41.5156
Q57.3281 34.8594 57.3281 23.3906
Q57.3281 12.1562 50.6875 5.35938
Q44.0469 -1.42188 33.0156 -1.42188
Q20.3594 -1.42188 13.6719 8.26562
Q6.98438 17.9688 6.98438 36.375
Q6.98438 53.6562 15.1875 63.9375
Q23.3906 74.2188 37.2031 74.2188
Q40.9219 74.2188 44.7031 73.4844
Q48.4844 72.75 52.5938 71.2969" id="DejaVuSans-36"/>
      </defs>
      <g transform="translate(7.53375 26.453)scale(0.12 -0.12)">
       <use xlink:href="#DejaVuSans-36"/>
      </g>
     </g>
    </g>
    <g id="text_14">
     <!-- 1e12 -->
     <g transform="translate(17.575 20.14175)scale(0.12 -0.12)">
      <use xlink:href="#DejaVuSans-31"/>
      <use x="63.623046875" xlink:href="#DejaVuSans-65"/>
      <use x="125.146484375" xlink:href="#DejaVuSans-31"/>
      <use x="188.76953125" xlink:href="#DejaVuSans-32"/>
     </g>
    </g>
   </g>
   <g id="text_15">
    <!-- /agas/time/cache/get_entry -->
    <defs>
     <path d="
M25.3906 72.9062
L33.6875 72.9062
L8.29688 -9.28125
L0 -9.28125
z
" id="DejaVuSans-2f"/>
     <path d="
M54.8906 33.0156
L54.8906 0
L45.9062 0
L45.9062 32.7188
Q45.9062 40.4844 42.875 44.3281
Q39.8438 48.1875 33.7969 48.1875
Q26.5156 48.1875 22.3125 43.5469
Q18.1094 38.9219 18.1094 30.9062
L18.1094 0
L9.07812 0
L9.07812 54.6875
L18.1094 54.6875
L18.1094 46.1875
Q21.3438 51.125 25.7031 53.5625
Q30.0781 56 35.7969 56
Q45.2188 56 50.0469 50.1719
Q54.8906 44.3438 54.8906 33.0156" id="DejaVuSans-6e"/>
     <path d="
M50.9844 -16.6094
L50.9844 -23.5781
L-0.984375 -23.5781
L-0.984375 -16.6094
z
" id="DejaVuSans-5f"/>
     <path d="
M32.1719 -5.07812
Q28.375 -14.8438 24.75 -17.8125
Q21.1406 -20.7969 15.0938 -20.7969
L7.90625 -20.7969
L7.90625 -13.2812
L13.1875 -13.2812
Q16.8906 -13.2812 18.9375 -11.5156
Q21 -9.76562 23.4844 -3.21875
L25.0938 0.875
L2.98438 54.6875
L12.5 54.6875
L29.5938 11.9219
L46.6875 54.6875
L56.2031 54.6875
z
" id="DejaVuSans-79"/>
     <path d="
M54.8906 33.0156
L54.8906 0
L45.9062 0
L45.9062 32.7188
Q45.9062 40.4844 42.875 44.3281
Q39.8438 48.1875 33.7969 48.1875
Q26.5156 48.1875 22.3125 43.5469
Q18.1094 38.9219 18.1094 30.9062
L18.1094 0
L9.07812 0
L9.07812 75.9844
L18.1094 75.9844
L18.1094 46.1875
Q21.3438 51.125 25.7031 53.5625
Q30.0781 56 35.7969 56
Q45.2188 56 50.0469 50.1719
Q54.8906 44.3438 54.8906 33.0156" id="DejaVuSans-68"/>
     <path d="
M45.4062 27.9844
Q45.4062 37.75 41.375 43.1094
Q37.3594 48.4844 30.0781 48.4844
Q22.8594 48.4844 18.8281 43.1094
Q14.7969 37.75 14.7969 27.9844
Q14.7969 18.2656 18.8281 12.8906
Q22.8594 7.51562 30.0781 7.51562
Q37.3594 7.51562 41.375 12.8906
Q45.4062 18.2656 45.4062 27.9844
M54.3906 6.78125
Q54.3906 -7.17188 48.1875 -13.9844
Q42 -20.7969 29.2031 -20.7969
Q24.4688 -20.7969 20.2656 -20.0938
Q16.0625 -19.3906 12.1094 -17.9219
L12.1094 -9.1875
Q16.0625 -11.3281 19.9219 -12.3438
Q23.7812 -13.375 27.7812 -13.375
Q36.625 -13.375 41.0156 -8.76562
Q45.4062 -4.15625 45.4062 5.17188
L45.4062 9.625
Q42.625 4.78125 38.2812 2.39062
Q33.9375 0 27.875 0
Q17.8281 0 11.6719 7.65625
Q5.51562 15.3281 5.51562 27.9844
Q5.51562 40.6719 11.6719 48.3281
Q17.8281 56 27.875 56
Q33.9375 56 38.2812 53.6094
Q42.625 51.2188 45.4062 46.3906
L45.4062 54.6875
L54.3906 54.6875
z
" id="DejaVuSans-67"/>
     <path d="
M41.1094 46.2969
Q39.5938 47.1719 37.8125 47.5781
Q36.0312 48 33.8906 48
Q26.2656 48 22.1875 43.0469
Q18.1094 38.0938 18.1094 28.8125
L18.1094 0
L9.07812 0
L9.07812 54.6875
L18.1094 54.6875
L18.1094 46.1875
Q20.9531 51.1719 25.4844 53.5781
Q30.0312 56 36.5312 56
Q37.4531 56 38.5781 55.875
Q39.7031 55.7656 41.0625 55.5156
z
" id="DejaVuSans-72"/>
     <path d="
M48.7812 52.5938
L48.7812 44.1875
Q44.9688 46.2969 41.1406 47.3438
Q37.3125 48.3906 33.4062 48.3906
Q24.6562 48.3906 19.8125 42.8438
Q14.9844 37.3125 14.9844 27.2969
Q14.9844 17.2812 19.8125 11.7344
Q24.6562 6.20312 33.4062 6.20312
Q37.3125 6.20312 41.1406 7.25
Q44.9688 8.29688 48.7812 10.4062
L48.7812 2.09375
Q45.0156 0.34375 40.9844 -0.53125
Q36.9688 -1.42188 32.4219 -1.42188
Q20.0625 -1.42188 12.7812 6.34375
Q5.51562 14.1094 5.51562 27.2969
Q5.51562 40.6719 12.8594 48.3281
Q20.2188 56 33.0156 56
Q37.1562 56 41.1094 55.1406
Q45.0625 54.2969 48.7812 52.5938" id="DejaVuSans-63"/>
     <path d="
M44.2812 53.0781
L44.2812 44.5781
Q40.4844 46.5312 36.375 47.5
Q32.2812 48.4844 27.875 48.4844
Q21.1875 48.4844 17.8438 46.4375
Q14.5 44.3906 14.5 40.2812
Q14.5 37.1562 16.8906 35.375
Q19.2812 33.5938 26.5156 31.9844
L29.5938 31.2969
Q39.1562 29.25 43.1875 25.5156
Q47.2188 21.7812 47.2188 15.0938
Q47.2188 7.46875 41.1875 3.01562
Q35.1562 -1.42188 24.6094 -1.42188
Q20.2188 -1.42188 15.4531 -0.5625
Q10.6875 0.296875 5.42188 2
L5.42188 11.2812
Q10.4062 8.6875 15.2344 7.39062
Q20.0625 6.10938 24.8125 6.10938
Q31.1562 6.10938 34.5625 8.28125
Q37.9844 10.4531 37.9844 14.4062
Q37.9844 18.0625 35.5156 20.0156
Q33.0625 21.9688 24.7031 23.7812
L21.5781 24.5156
Q13.2344 26.2656 9.51562 29.9062
Q5.8125 33.5469 5.8125 39.8906
Q5.8125 47.6094 11.2812 51.7969
Q16.75 56 26.8125 56
Q31.7812 56 36.1719 55.2656
Q40.5781 54.5469 44.2812 53.0781" id="DejaVuSans-73"/>
     <path d="
M34.2812 27.4844
Q23.3906 27.4844 19.1875 25
Q14.9844 22.5156 14.9844 16.5
Q14.9844 11.7188 18.1406 8.90625
Q21.2969 6.10938 26.7031 6.10938
Q34.1875 6.10938 38.7031 11.4062
Q43.2188 16.7031 43.2188 25.4844
L43.2188 27.4844
z

M52.2031 31.2031
L52.2031 0
L43.2188 0
L43.2188 8.29688
Q40.1406 3.32812 35.5469 0.953125
Q30.9531 -1.42188 24.3125 -1.42188
Q15.9219 -1.42188 10.9531 3.29688
Q6 8.01562 6 15.9219
Q6 25.1406 12.1719 29.8281
Q18.3594 34.5156 30.6094 34.5156
L43.2188 34.5156
L43.2188 35.4062
Q43.2188 41.6094 39.1406 45
Q35.0625 48.3906 27.6875 48.3906
Q23 48.3906 18.5469 47.2656
Q14.1094 46.1406 10.0156 43.8906
L10.0156 52.2031
Q14.9375 54.1094 19.5781 55.0469
Q24.2188 56 28.6094 56
Q40.4844 56 46.3438 49.8438
Q52.2031 43.7031 52.2031 31.2031" id="DejaVuSans-61"/>
    </defs>
    <g transform="translate(142.091125 18.14175)scale(0.144 -0.144)">
     <use xlink:href="#DejaVuSans-2f"/>
     <use x="33.69140625" xlink:href="#DejaVuSans-61"/>
     <use x="94.970703125" xlink:href="#DejaVuSans-67"/>
     <use x="158.447265625" xlink:href="#DejaVuSans-61"/>
     <use x="219.7265625" xlink:href="#DejaVuSans-73"/>
     <use x="271.826171875" xlink:href="#DejaVuSans-2f"/>
     <use x="305.517578125" xlink:href="#DejaVuSans-74"/>
     <use x="344.7265625" xlink:href="#DejaVuSans-69"/>
     <use x="372.509765625" xlink:href="#DejaVuSans-6d"/>
     <use x="469.921875" xlink:href="#DejaVuSans-65"/>
     <use x="531.4453125" xlink:href="#DejaVuSans-2f"/>
     <use x="565.13671875" xlink:href="#DejaVuSans-63"/>
     <use x="620.1171875" xlink:href="#DejaVuSans-61"/>
     <use x="681.396484375" xlink:href="#DejaVuSans-63"/>
     <use x="736.376953125" xlink:href="#DejaVuSans-68"/>
     <use x="799.755859375" xlink:href="#DejaVuSans-65"/>
     <use x="861.279296875" xlink:href="#DejaVuSans-2f"/>
     <use x="894.970703125" xlink:href="#DejaVuSans-67"/>
     <use x="958.447265625" xlink:href="#DejaVuSans-65"/>
     <use x="1019.97070312" xlink:href="#DejaVuSans-74"/>
     <use x="1059.1796875" xlink:href="#DejaVuSans-5f"/>
     <use x="1109.1796875" xlink:href="#DejaVuSans-65"/>
     <use x="1170.703125" xlink:href="#DejaVuSans-6e"/>
     <use x="1234.08203125" xlink:href="#DejaVuSans-74"/>
     <use x="1273.29101562" xlink:href="#DejaVuSans-72"/>
     <use x="1314.40429688" xlink:href="#DejaVuSans-79"/>
    </g>
   </g>
   <g id="legend_1">
    <g id="patch_7">
     <path d="
M471.175 367.194
L602.964 367.194
L602.964 24.6897
L471.175 24.6897
z
" style="fill:#ffffff;stroke:#000000;stroke-linejoin:miter;"/>
    </g>
    <g id="line2d_41">
     <path d="
M481.255 36.3515
L501.415 36.3515" style="fill:none;stroke:#0000ff;stroke-linecap:square;"/>
    </g>
    <g id="line2d_42"/>
    <g id="text_16">
     <!-- locality#0 -->
     <defs>
      <path d="
M30.6094 48.3906
Q23.3906 48.3906 19.1875 42.75
Q14.9844 37.1094 14.9844 27.2969
Q14.9844 17.4844 19.1562 11.8438
Q23.3438 6.20312 30.6094 6.20312
Q37.7969 6.20312 41.9844 11.8594
Q46.1875 17.5312 46.1875 27.2969
Q46.1875 37.0156 41.9844 42.7031
Q37.7969 48.3906 30.6094 48.3906
M30.6094 56
Q42.3281 56 49.0156 48.375
Q55.7188 40.7656 55.7188 27.2969
Q55.7188 13.875 49.0156 6.21875
Q42.3281 -1.42188 30.6094 -1.42188
Q18.8438 -1.42188 12.1719 6.21875
Q5.51562 13.875 5.51562 27.2969
Q5.51562 40.7656 12.1719 48.375
Q18.8438 56 30.6094 56" id="DejaVuSans-6f"/>
      <path d="
M51.125 44
L36.9219 44
L32.8125 27.6875
L47.125 27.6875
z

M43.7969 71.7812
L38.7188 51.5156
L52.9844 51.5156
L58.1094 71.7812
L65.9219 71.7812
L60.8906 51.5156
L76.125 51.5156
L76.125 44
L58.9844 44
L54.9844 27.6875
L70.5156 27.6875
L70.5156 20.2188
L53.0781 20.2188
L48 0
L40.1875 0
L45.2188 20.2188
L30.9062 20.2188
L25.875 0
L18.0156 0
L23.0938 20.2188
L7.71875 20.2188
L7.71875 27.6875
L24.9062 27.6875
L29 44
L13.2812 44
L13.2812 51.5156
L30.9062 51.5156
L35.8906 71.7812
z
" id="DejaVuSans-23"/>
      <path d="
M9.42188 75.9844
L18.4062 75.9844
L18.4062 0
L9.42188 0
z
" id="DejaVuSans-6c"/>
     </defs>
     <g transform="translate(517.255 41.3915)scale(0.144 -0.144)">
      <use xlink:href="#DejaVuSans-6c"/>
      <use x="27.783203125" xlink:href="#DejaVuSans-6f"/>
      <use x="88.96484375" xlink:href="#DejaVuSans-63"/>
      <use x="143.9453125" xlink:href="#DejaVuSans-61"/>
      <use x="205.224609375" xlink:href="#DejaVuSans-6c"/>
      <use x="233.0078125" xlink:href="#DejaVuSans-69"/>
      <use x="260.791015625" xlink:href="#DejaVuSans-74"/>
      <use x="300.0" xlink:href="#DejaVuSans-79"/>
      <use x="359.1796875" xlink:href="#DejaVuSans-23"/>
      <use x="442.96875" xlink:href="#DejaVuSans-30"/>
     </g>
    </g>
    <g id="line2d_43">
     <path d="
M481.255 57.488
L501.415 57.488" style="fill:none;stroke:#008000;stroke-linecap:square;"/>
    </g>
    <g id="line2d_44"/>
    <g id="text_17">
     <!-- locality#1 -->
     <g transform="translate(517.255 62.528)scale(0.144 -0.144)">
      <use xlink:href="#DejaVuSans-6c"/>
      <use x="27.783203125" xlink:href="#DejaVuSans-6f"/>
      <use x="88.96484375" xlink:href="#DejaVuSans-63"/>
      <use x="143.9453125" xlink:href="#DejaVuSans-61"/>
      <use x="205.224609375" xlink:href="#DejaVuSans-6c"/>
      <use x="233.0078125" xlink:href="#DejaVuSans-69"/>
      <use x="260.791015625" xlink:href="#DejaVuSans-74"/>
      <use x="300.0" xlink:href="#DejaVuSans-79"/>
      <use x="359.1796875" xlink:href="#DejaVuSans-23"/>
      <use x="442.96875" xlink:href="#DejaVuSans-31"/>
     </g>
    </g>
    <g id="line2d_45">
     <path d="
M481.255 78.6245
L501.415 78.6245" style="fill:none;stroke:#ff0000;stroke-linecap:square;"/>
    </g>
    <g id="line2d_46"/>
    <g id="text_18">
     <!-- locality#10 -->
     <g transform="translate(517.255 83.6645)scale(0.144 -0.144)">
      <use xlink:href="#DejaVuSans-6c"/>
      <use x="27.783203125" xlink:href="#DejaVuSans-6f"/>
      <use x="88.96484375" xlink:href="#DejaVuSans-63"/>
      <use x="143.9453125" xlink:href="#DejaVuSans-61"/>
      <use x="205.224609375" xlink:href="#DejaVuSans-6c"/>
      <use x="233.0078125" xlink:href="#DejaVuSans-69"/>
      <use x="260.791015625" xlink:href="#DejaVuSans-74"/>
      <use x="300.0" xlink:href="#DejaVuSans-79"/>
      <use x="359.1796875" xlink:href="#DejaVuSans-23"/>
      <use x="442.96875" xlink:href="#DejaVuSans-31"/>
      <use x="506.591796875" xlink:href="#DejaVuSans-30"/>
     </g>
    </g>
    <g id="line2d_47">
     <path d="
M481.255 99.761
L501.415 99.761" style="fill:none;stroke:#00bfbf;stroke-linecap:square;"/>
    </g>
    <g id="line2d_48"/>
    <g id="text_19">
     <!-- locality#11 -->
     <g transform="translate(517.255 104.801)scale(0.144 -0.144)">
      <use xlink:href="#DejaVuSans-6c"/>
      <use x="27.783203125" xlink:href="#DejaVuSans-6f"/>
      <use x="88.96484375" xlink:href="#DejaVuSans-63"/>
      <use x="143.9453125" xlink:href="#DejaVuSans-61"/>
      <use x="205.224609375" xlink:href="#DejaVuSans-6c"/>
      <use x="233.0078125" xlink:href="#DejaVuSans-69"/>
      <use x="260.791015625" xlink:href="#DejaVuSans-74"/>
      <use x="300.0" xlink:href="#DejaVuSans-79"/>
      <use x="359.1796875" xlink:href="#DejaVuSans-23"/>
      <use x="442.96875" xlink:href="#DejaVuSans-31"/>
      <use x="506.591796875" xlink:href="#DejaVuSans-31"/>
     </g>
    </g>
    <g id="line2d_49">
     <path d="
M481.255 120.897
L501.415 120.897" style="fill:none;stroke:#bf00bf;stroke-linecap:square;"/>
    </g>
    <g id="line2d_50"/>
    <g id="text_20">
     <!-- locality#12 -->
     <g transform="translate(517.255 125.9375)scale(0.144 -0.144)">
      <use xlink:href="#DejaVuSans-6c"/>
      <use x="27.783203125" xlink:href="#DejaVuSans-6f"/>
      <use x="88.96484375" xlink:href="#DejaVuSans-63"/>
      <use x="143.9453125" xlink:href="#DejaVuSans-61"/>
      <use x="205.224609375" xlink:href="#DejaVuSans-6c"/>
      <use x="233.0078125" xlink:href="#DejaVuSans-69"/>
      <use x="260.791015625" xlink:href="#DejaVuSans-74"/>
      <use x="300.0" xlink:href="#DejaVuSans-79"/>
      <use x="359.1796875" xlink:href="#DejaVuSans-23"/>
      <use x="442.96875" xlink:href="#DejaVuSans-31"/>
      <use x="506.591796875" xlink:href="#DejaVuSans-32"/>
     </g>
    </g>
    <g id="line2d_51">
     <path d="
M481.255 142.034
L501.415 142.034" style="fill:none;stroke:#bfbf00;stroke-linecap:square;"/>
    </g>
    <g id="line2d_52"/>
    <g id="text_21">
     <!-- locality#13 -->
     <g transform="translate(517.255 147.074)scale(0.144 -0.144)">
      <use xlink:href="#DejaVuSans-6c"/>
      <use x="27.783203125" xlink:href="#DejaVuSans-6f"/>
      <use x="88.96484375" xlink:href="#DejaVuSans-63"/>
      <use x="143.9453125" xlink:href="#DejaVuSans-61"/>
      <use x="205.224609375" xlink:href="#DejaVuSans-6c"/>
      <use x="233.0078125" xlink:href="#DejaVuSans-69"/>
      <use x="260.791015625" xlink:href="#DejaVuSans-74"/>
      <use x="300.0" xlink:href="#DejaVuSans-79"/>
      <use x="359.1796875" xlink:href="#DejaVuSans-23"/>
      <use x="442.96875" xlink:href="#DejaVuSans-31"/>
      <use x="506.591796875" xlink:href="#DejaVuSans-33"/>
     </g>
    </g>
    <g id="line2d_53">
     <path d="
M481.255 163.17
L501.415 163.17" style="fill:none;stroke:#000000;stroke-linecap:square;"/>
    </g>
    <g id="line2d_54"/>
    <g id="text_22">
     <!-- locality#14 -->
     <g transform="translate(517.255 168.2105)scale(0.144 -0.144)">
      <use xlink:href="#DejaVuSans-6c"/>
      <use x="27.783203125" xlink:href="#DejaVuSans-6f"/>
      <use x="88.96484375" xlink:href="#DejaVuSans-63"/>
      <use x="143.9453125" xlink:href="#DejaVuSans-61"/>
      <use x="205.224609375" xlink:href="#DejaVuSans-6c"/>
      <use x="233.0078125" xlink:href="#DejaVuSans-69"/>
      <use x="260.791015625" xlink:href="#DejaVuSans-74"/>
      <use x="300.0" xlink:href="#DejaVuSans-79"/>
      <use x="359.1796875" xlink:href="#DejaVuSans-23"/>
      <use x="442.96875" xlink:href="#DejaVuSans-31"/>
      <use x="506.591796875" xlink:href="#DejaVuSans-34"/>
     </g>
    </g>
    <g id="line2d_55">
     <path d="
M481.255 184.307
L501.415 184.307" style="fill:none;stroke:#0000ff;stroke-linecap:square;"/>
    </g>
    <g id="line2d_56"/>
    <g id="text_23">
     <!-- locality#15 -->
     <g transform="translate(517.255 189.347)scale(0.144 -0.144)">
      <use xlink:href="#DejaVuSans-6c"/>
      <use x="27.783203125" xlink:href="#DejaVuSans-6f"/>
      <use x="88.96484375" xlink:href="#DejaVuSans-63"/>
      <use x="143.9453125" xlink:href="#DejaVuSans-61"/>
      <use x="205.224609375" xlink:href="#DejaVuSans-6c"/>
      <use x="233.0078125" xlink:href="#DejaVuSans-69"/>
      <use x="260.791015625" xlink:href="#DejaVuSans-74"/>
      <use x="300.0" xlink:href="#DejaVuSans-79"/>
      <use x="359.1796875" xlink:href="#DejaVuSans-23"/>
      <use x="442.96875" xlink:href="#DejaVuSans-31"/>
      <use x="506.591796875" xlink:href="#DejaVuSans-35"/>
     </g>
    </g>
    <g id="line2d_57">
     <path d="
M481.255 205.443
L501.415 205.443" style="fill:none;stroke:#008000;stroke-linecap:square;"/>
    </g>
    <g id="line2d_58"/>
    <g id="text_24">
     <!-- locality#2 -->
     <g transform="translate(517.255 210.4835)scale(0.144 -0.144)">
      <use xlink:href="#DejaVuSans-6c"/>
      <use x="27.783203125" xlink:href="#DejaVuSans-6f"/>
      <use x="88.96484375" xlink:href="#DejaVuSans-63"/>
      <use x="143.9453125" xlink:href="#DejaVuSans-61"/>
      <use x="205.224609375" xlink:href="#DejaVuSans-6c"/>
      <use x="233.0078125" xlink:href="#DejaVuSans-69"/>
      <use x="260.791015625" xlink:href="#DejaVuSans-74"/>
      <use x="300.0" xlink:href="#DejaVuSans-79"/>
      <use x="359.1796875" xlink:href="#DejaVuSans-23"/>
      <use x="442.96875" xlink:href="#DejaVuSans-32"/>
     </g>
    </g>
    <g id="line2d_59">
     <path d="
M481.255 226.58
L501.415 226.58" style="fill:none;stroke:#ff0000;stroke-linecap:square;"/>
    </g>
    <g id="line2d_60"/>
    <g id="text_25">
     <!-- locality#3 -->
     <g transform="translate(517.255 231.62)scale(0.144 -0.144)">
      <use xlink:href="#DejaVuSans-6c"/>
      <use x="27.783203125" xlink:href="#DejaVuSans-6f"/>
      <use x="88.96484375" xlink:href="#DejaVuSans-63"/>
      <use x="143.9453125" xlink:href="#DejaVuSans-61"/>
      <use x="205.224609375" xlink:href="#DejaVuSans-6c"/>
      <use x="233.0078125" xlink:href="#DejaVuSans-69"/>
      <use x="260.791015625" xlink:href="#DejaVuSans-74"/>
      <use x="300.0" xlink:href="#DejaVuSans-79"/>
      <use x="359.1796875" xlink:href="#DejaVuSans-23"/>
      <use x="442.96875" xlink:href="#DejaVuSans-33"/>
     </g>
    </g>
    <g id="line2d_61">
     <path d="
M481.255 247.716
L501.415 247.716" style="fill:none;stroke:#00bfbf;stroke-linecap:square;"/>
    </g>
    <g id="line2d_62"/>
    <g id="text_26">
     <!-- locality#4 -->
     <g transform="translate(517.255 252.7565)scale(0.144 -0.144)">
      <use xlink:href="#DejaVuSans-6c"/>
      <use x="27.783203125" xlink:href="#DejaVuSans-6f"/>
      <use x="88.96484375" xlink:href="#DejaVuSans-63"/>
      <use x="143.9453125" xlink:href="#DejaVuSans-61"/>
      <use x="205.224609375" xlink:href="#DejaVuSans-6c"/>
      <use x="233.0078125" xlink:href="#DejaVuSans-69"/>
      <use x="260.791015625" xlink:href="#DejaVuSans-74"/>
      <use x="300.0" xlink:href="#DejaVuSans-79"/>
      <use x="359.1796875" xlink:href="#DejaVuSans-23"/>
      <use x="442.96875" xlink:href="#DejaVuSans-34"/>
     </g>
    </g>
    <g id="line2d_63">
     <path d="
M481.255 268.853
L501.415 268.853" style="fill:none;stroke:#bf00bf;stroke-linecap:square;"/>
    </g>
    <g id="line2d_64"/>
    <g id="text_27">
     <!-- locality#5 -->
     <g transform="translate(517.255 273.893)scale(0.144 -0.144)">
      <use xlink:href="#DejaVuSans-6c"/>
      <use x="27.783203125" xlink:href="#DejaVuSans-6f"/>
      <use x="88.96484375" xlink:href="#DejaVuSans-63"/>
      <use x="143.9453125" xlink:href="#DejaVuSans-61"/>
      <use x="205.224609375" xlink:href="#DejaVuSans-6c"/>
      <use x="233.0078125" xlink:href="#DejaVuSans-69"/>
      <use x="260.791015625" xlink:href="#DejaVuSans-74"/>
      <use x="300.0" xlink:href="#DejaVuSans-79"/>
      <use x="359.1796875" xlink:href="#DejaVuSans-23"/>
      <use x="442.96875" xlink:href="#DejaVuSans-35"/>
     </g>
    </g>
    <g id="line2d_65">
     <path d="
M481.255 289.989
L501.415 289.989" style="fill:none;stroke:#bfbf00;stroke-linecap:square;"/>
    </g>
    <g id="line2d_66"/>
    <g id="text_28">
     <!-- locality#6 -->
     <g transform="translate(517.255 295.0295)scale(0.144 -0.144)">
      <use xlink:href="#DejaVuSans-6c"/>
      <use x="27.783203125" xlink:href="#DejaVuSans-6f"/>
      <use x="88.96484375" xlink:href="#DejaVuSans-63"/>
      <use x="143.9453125" xlink:href="#DejaVuSans-61"/>
      <use x="205.224609375" xlink:href="#DejaVuSans-6c"/>
      <use x="233.0078125" xlink:href="#DejaVuSans-69"/>
      <use x="260.791015625" xlink:href="#DejaVuSans-74"/>
      <use x="300.0" xlink:href="#DejaVuSans-79"/>
      <use x="359.1796875" xlink:href="#DejaVuSans-23"/>
      <use x="442.96875" xlink:href="#DejaVuSans-36"/>
     </g>
    </g>
    <g id="line2d_67">
     <path d="
M481.255 311.126
L501.415 311.126" style="fill:none;stroke:#000000;stroke-linecap:square;"/>
    </g>
    <g id="line2d_68"/>
    <g id="text_29">
     <!-- locality#7 -->
     <defs>
      <path d="
M8.20312 72.9062
L55.0781 72.9062
L55.0781 68.7031
L28.6094 0
L18.3125 0
L43.2188 64.5938
L8.20312 64.5938
z
" id="DejaVuSans-37"/>
     </defs>
     <g transform="translate(517.255 316.166)scale(0.144 -0.144)">
      <use xlink:href="#DejaVuSans-6c"/>
      <use x="27.783203125" xlink:href="#DejaVuSans-6f"/>
      <use x="88.96484375" xlink:href="#DejaVuSans-63"/>
      <use x="143.9453125" xlink:href="#DejaVuSans-61"/>
      <use x="205.224609375" xlink:href="#DejaVuSans-6c"/>
      <use x="233.0078125" xlink:href="#DejaVuSans-69"/>
      <use x="260.791015625" xlink:href="#DejaVuSans-74"/>
      <use x="300.0" xlink:href="#DejaVuSans-79"/>
      <use x="359.1796875" xlink:href="#DejaVuSans-23"/>
      <use x="442.96875" xlink:href="#DejaVuSans-37"/>
     </g>
    </g>
    <g id="line2d_69">
     <path d="
M481.255 332.262
L501.415 332.262" style="fill:none;stroke:#0000ff;stroke-linecap:square;"/>
    </g>
    <g id="line2d_70"/>
    <g id="text_30">
     <!-- locality#8 -->
     <defs>
      <path d="
M31.7812 34.625
Q24.75 34.625 20.7188 30.8594
Q16.7031 27.0938 16.7031 20.5156
Q16.7031 13.9219 20.7188 10.1562
Q24.75 6.39062 31.7812 6.39062
Q38.8125 6.39062 42.8594 10.1719
Q46.9219 13.9688 46.9219 20.5156
Q46.9219 27.0938 42.8906 30.8594
Q38.875 34.625 31.7812 34.625
M21.9219 38.8125
Q15.5781 40.375 12.0312 44.7188
Q8.5 49.0781 8.5 55.3281
Q8.5 64.0625 14.7188 69.1406
Q20.9531 74.2188 31.7812 74.2188
Q42.6719 74.2188 48.875 69.1406
Q55.0781 64.0625 55.0781 55.3281
Q55.0781 49.0781 51.5312 44.7188
Q48 40.375 41.7031 38.8125
Q48.8281 37.1562 52.7969 32.3125
Q56.7812 27.4844 56.7812 20.5156
Q56.7812 9.90625 50.3125 4.23438
Q43.8438 -1.42188 31.7812 -1.42188
Q19.7344 -1.42188 13.25 4.23438
Q6.78125 9.90625 6.78125 20.5156
Q6.78125 27.4844 10.7812 32.3125
Q14.7969 37.1562 21.9219 38.8125
M18.3125 54.3906
Q18.3125 48.7344 21.8438 45.5625
Q25.3906 42.3906 31.7812 42.3906
Q38.1406 42.3906 41.7188 45.5625
Q45.3125 48.7344 45.3125 54.3906
Q45.3125 60.0625 41.7188 63.2344
Q38.1406 66.4062 31.7812 66.4062
Q25.3906 66.4062 21.8438 63.2344
Q18.3125 60.0625 18.3125 54.3906" id="DejaVuSans-38"/>
     </defs>
     <g transform="translate(517.255 337.3025)scale(0.144 -0.144)">
      <use xlink:href="#DejaVuSans-6c"/>
      <use x="27.783203125" xlink:href="#DejaVuSans-6f"/>
      <use x="88.96484375" xlink:href="#DejaVuSans-63"/>
      <use x="143.9453125" xlink:href="#DejaVuSans-61"/>
      <use x="205.224609375" xlink:href="#DejaVuSans-6c"/>
      <use x="233.0078125" xlink:href="#DejaVuSans-69"/>
      <use x="260.791015625" xlink:href="#DejaVuSans-74"/>
      <use x="300.0" xlink:href="#DejaVuSans-79"/>
      <use x="359.1796875" xlink:href="#DejaVuSans-23"/>
      <use x="442.96875" xlink:href="#DejaVuSans-38"/>
     </g>
    </g>
    <g id="line2d_71">
     <path d="
M481.255 353.399
L501.415 353.399" style="fill:none;stroke:#008000;stroke-linecap:square;"/>
    </g>
    <g id="line2d_72"/>
    <g id="text_31">
     <!-- locality#9 -->
     <defs>
      <path d="
M10.9844 1.51562
L10.9844 10.5
Q14.7031 8.73438 18.5 7.8125
Q22.3125 6.89062 25.9844 6.89062
Q35.75 6.89062 40.8906 13.4531
Q46.0469 20.0156 46.7812 33.4062
Q43.9531 29.2031 39.5938 26.9531
Q35.25 24.7031 29.9844 24.7031
Q19.0469 24.7031 12.6719 31.3125
Q6.29688 37.9375 6.29688 49.4219
Q6.29688 60.6406 12.9375 67.4219
Q19.5781 74.2188 30.6094 74.2188
Q43.2656 74.2188 49.9219 64.5156
Q56.5938 54.8281 56.5938 36.375
Q56.5938 19.1406 48.4062 8.85938
Q40.2344 -1.42188 26.4219 -1.42188
Q22.7031 -1.42188 18.8906 -0.6875
Q15.0938 0.046875 10.9844 1.51562
M30.6094 32.4219
Q37.25 32.4219 41.125 36.9531
Q45.0156 41.5 45.0156 49.4219
Q45.0156 57.2812 41.125 61.8438
Q37.25 66.4062 30.6094 66.4062
Q23.9688 66.4062 20.0938 61.8438
Q16.2188 57.2812 16.2188 49.4219
Q16.2188 41.5 20.0938 36.9531
Q23.9688 32.4219 30.6094 32.4219" id="DejaVuSans-39"/>
     </defs>
     <g transform="translate(517.255 358.439)scale(0.144 -0.144)">
      <use xlink:href="#DejaVuSans-6c"/>
      <use x="27.783203125" xlink:href="#DejaVuSans-6f"/>
      <use x="88.96484375" xlink:href="#DejaVuSans-63"/>
      <use x="143.9453125" xlink:href="#DejaVuSans-61"/>
      <use x="205.224609375" xlink:href="#DejaVuSans-6c"/>
      <use x="233.0078125" xlink:href="#DejaVuSans-69"/>
      <use x="260.791015625" xlink:href="#DejaVuSans-74"/>
      <use x="300.0" xlink:href="#DejaVuSans-79"/>
      <use x="359.1796875" xlink:href="#DejaVuSans-23"/>
      <use x="442.96875" xlink:href="#DejaVuSans-39"/>
     </g>
    </g>
   </g>
  </g>
 </g>
 <defs>
  <clipPath id="pf51f381abf">
   <rect height="345.6" width="446.4" x="17.575" y="23.14175"/>
  </clipPath>
 </defs>
</svg>
