<?xml version="1.0" encoding="utf-8" standalone="no"?>
<!DOCTYPE svg PUBLIC "-//W3C//DTD SVG 1.1//EN"
  "http://www.w3.org/Graphics/SVG/1.1/DTD/svg11.dtd">
<!-- Created with matplotlib (http://matplotlib.org/) -->
<svg height="408pt" version="1.1" viewBox="0 0 655 408" width="655pt" xmlns="http://www.w3.org/2000/svg" xmlns:xlink="http://www.w3.org/1999/xlink">
 <defs>
  <style type="text/css">
*{stroke-linecap:butt;stroke-linejoin:round;}
  </style>
 </defs>
 <g id="figure_1">
  <g id="patch_1">
   <path d="
M0 408.169
L655.85 408.169
L655.85 0
L0 0
z
" style="fill:#ffffff;"/>
  </g>
  <g id="axes_1">
   <g id="patch_2">
    <path d="
M63.2613 368.742
L509.661 368.742
L509.661 23.1417
L63.2613 23.1417
z
" style="fill:#ffffff;"/>
   </g>
   <g id="line2d_1">
    <path clip-path="url(#p3f6fae7697)" d="
M63.2613 357.122
L63.6005 356.839
L72.4199 356.839
L72.7591 356.68
L74.116 356.68
L74.4552 356.436
L91.0764 356.436
L91.4157 356.1
L108.037 356.1
L108.376 355.79
L119.909 355.79
L120.248 355.25
L128.39 355.25
L128.729 354.836
L148.403 354.836
L148.742 354.665
L158.579 354.665
L158.918 354.501
L170.112 354.501
L170.452 353.883
L191.143 353.883
L191.483 353.751
L192.5 353.751
L192.839 353.594
L209.121 353.594
L209.461 353.458
L215.566 353.458
L215.906 353.274
L231.509 353.274
L231.848 352.637
L268.822 352.637
L269.162 351.653
L291.549 351.653
L291.889 351.211
L309.188 351.211
L309.528 350.545
L321.739 350.545
L322.078 350.417
L349.893 350.417
L350.233 349.898
L398.4 349.898
L398.74 349.517
L420.449 349.517
L420.788 348.854
L450.978 348.854
L451.317 348.731
L476.079 348.731
L476.419 348.544
L497.789 348.544
L498.128 347.61
L509.661 347.61
L509.661 347.61" style="fill:none;stroke:#0000ff;stroke-linecap:square;"/>
   </g>
   <g id="line2d_2">
    <path clip-path="url(#p3f6fae7697)" d="
M63.2613 232.637
L63.6005 232.351
L87.6844 232.351
L88.0236 232.057
L93.1117 232.057
L93.4509 231.875
L103.966 231.875
L104.306 231.571
L118.552 231.571
L118.892 231.389
L135.174 231.389
L135.513 231.24
L145.689 231.24
L146.028 230.858
L172.487 230.858
L172.826 230.701
L181.306 230.701
L181.645 230.281
L195.214 230.281
L195.553 229.777
L216.245 229.777
L216.584 229.438
L226.76 229.438
L227.1 229.27
L239.99 229.27
L240.329 229.135
L262.038 229.135
L262.377 228.602
L275.607 228.602
L275.946 228.136
L310.206 228.136
L310.545 228.004
L313.598 228.004
L313.937 227.404
L338.36 227.404
L338.7 227.268
L360.409 227.268
L360.748 226.661
L398.74 226.661
L399.079 226.54
L404.845 226.54
L405.185 226.23
L451.317 226.23
L451.656 226.061
L464.546 226.061
L464.886 225.433
L492.362 225.433
L492.701 225.245
L509.661 225.245
L509.661 225.245" style="fill:none;stroke:#008000;stroke-linecap:square;"/>
   </g>
   <g id="line2d_3">
    <path clip-path="url(#p3f6fae7697)" d="
M63.2613 225.061
L63.6005 224.902
L72.4199 224.902
L72.7591 224.466
L76.1512 224.466
L76.4904 224.246
L83.6138 224.246
L83.953 223.934
L89.3804 223.934
L89.7196 223.74
L97.8606 223.74
L98.1999 223.422
L100.914 223.422
L101.253 223.021
L104.645 223.021
L104.984 222.641
L117.874 222.641
L118.213 222.426
L125.337 222.426
L125.676 222.076
L132.121 222.076
L132.46 221.733
L141.279 221.733
L141.619 221.54
L149.76 221.54
L150.099 221.171
L153.491 221.171
L153.83 220.872
L166.381 220.872
L166.72 220.654
L174.522 220.654
L174.861 220.298
L181.985 220.298
L182.324 220.034
L190.126 220.034
L190.465 218.866
L203.694 218.866
L204.033 218.709
L211.496 218.709
L211.835 218.368
L214.21 218.368
L214.549 217.934
L230.492 217.934
L230.831 217.577
L238.293 217.577
L238.633 216.483
L257.628 216.483
L257.968 216.24
L267.805 216.24
L268.144 215.869
L272.554 215.869
L272.893 215.699
L285.104 215.699
L285.444 215.562
L289.514 215.562
L289.853 215.287
L301.047 215.287
L301.386 214.802
L315.633 214.802
L315.972 214.632
L321.061 214.632
L321.4 214.379
L329.202 214.379
L329.541 214.219
L335.647 214.219
L335.986 214.078
L337.343 214.078
L337.682 213.843
L347.519 213.843
L347.858 213.667
L363.123 213.667
L363.462 213.518
L374.656 213.518
L374.995 213.374
L377.03 213.374
L377.369 212.957
L391.616 212.957
L391.955 212.513
L406.202 212.513
L406.541 212.361
L415.361 212.361
L415.7 211.931
L423.841 211.931
L424.18 211.796
L428.929 211.796
L429.269 211.605
L452.335 211.605
L452.674 211.046
L468.617 211.046
L468.956 210.899
L479.472 210.899
L479.811 210.633
L506.948 210.633
L507.287 210.241
L509.661 210.241
L509.661 210.241" style="fill:none;stroke:#ff0000;stroke-linecap:square;"/>
   </g>
   <g id="line2d_4">
    <path clip-path="url(#p3f6fae7697)" d="
M63.2613 232.07
L63.6005 231.893
L72.7591 231.893
L73.0983 231.696
L82.5962 231.696
L82.9354 231.351
L86.6667 231.351
L87.0059 231.093
L93.4509 231.093
L93.7901 230.968
L103.627 230.968
L103.966 230.596
L109.394 230.596
L109.733 230.449
L113.464 230.449
L113.803 230.099
L123.301 230.099
L123.641 229.697
L133.138 229.697
L133.478 229.432
L152.813 229.432
L153.152 229.262
L161.293 229.262
L161.632 229.097
L168.077 229.097
L168.416 228.946
L174.861 228.946
L175.2 228.613
L181.306 228.613
L181.645 228.336
L190.804 228.336
L191.143 228.138
L195.553 228.138
L195.892 227.91
L205.051 227.91
L205.39 227.4
L219.298 227.4
L219.637 226.847
L228.456 226.847
L228.796 226.05
L245.417 226.05
L245.756 225.87
L251.523 225.87
L251.862 225.602
L258.985 225.602
L259.324 224.818
L277.303 224.818
L277.642 223.975
L315.972 223.975
L316.312 223.835
L326.488 223.835
L326.827 223.644
L333.951 223.644
L334.29 223.342
L353.286 223.342
L353.625 223.016
L382.458 223.016
L382.797 222.825
L392.295 222.825
L392.634 222.243
L412.986 222.243
L413.326 221.428
L457.084 221.428
L457.423 220.723
L509.661 220.723
L509.661 220.723" style="fill:none;stroke:#00bfbf;stroke-linecap:square;"/>
   </g>
   <g id="line2d_5">
    <path clip-path="url(#p3f6fae7697)" d="
M63.2613 37.3901
L63.6005 37.2201
L73.4375 37.2201
L73.7768 36.8628
L83.2746 36.8628
L83.6138 36.0651
L94.8078 36.0651
L95.147 35.9027
L102.27 35.9027
L102.61 35.7485
L108.715 35.7485
L109.055 35.4154
L122.623 35.4154
L122.962 35.2426
L130.086 35.2426
L130.764 35.1278
L142.636 35.1278
L142.976 34.9841
L147.046 34.9841
L147.385 34.5438
L153.152 34.5438
L153.83 34.427
L164.685 34.427
L165.024 34.0987
L169.773 34.0987
L170.112 33.9238
L188.43 33.9238
L188.769 33.7724
L196.571 33.7724
L196.91 33.5256
L208.782 33.5256
L209.121 33.3598
L215.906 33.3598
L216.245 32.0914
L237.954 32.0914
L238.293 31.3166
L264.413 31.3166
L264.752 31.1818
L274.589 31.1818
L275.267 31.0643
L278.659 31.0643
L278.999 30.718
L300.03 30.718
L300.369 30.024
L316.312 30.024
L316.651 29.8595
L324.453 29.8595
L324.792 29.6798
L339.039 29.6798
L339.378 29.357
L342.092 29.357
L342.431 28.9464
L354.642 28.9464
L354.982 28.7011
L382.797 28.7011
L383.136 28.5559
L393.652 28.5559
L393.991 28.3845
L412.308 28.3845
L412.647 28.164
L419.092 28.164
L419.431 27.9076
L434.357 27.9076
L434.696 27.7541
L452.335 27.7541
L452.674 27.618
L468.278 27.618
L468.617 27.4631
L484.56 27.4631
L484.899 27.3145
L508.983 27.3145
L509.322 27.1231
L509.661 27.1231
L509.661 27.1231" style="fill:none;stroke:#bf00bf;stroke-linecap:square;"/>
   </g>
   <g id="line2d_6">
    <path clip-path="url(#p3f6fae7697)" d="
M63.2613 238.304
L63.6005 237.452
L72.0807 237.452
L72.4199 237.307
L81.5786 237.307
L81.9178 237.135
L94.4685 237.135
L94.8078 236.699
L103.966 236.699
L104.306 236.554
L119.57 236.554
L119.909 236.373
L126.354 236.373
L126.693 235.939
L136.87 235.939
L137.209 235.789
L149.76 235.789
L150.099 235.632
L152.134 235.632
L152.473 235.306
L166.042 235.306
L166.381 235.159
L174.183 235.159
L174.522 235.037
L187.751 235.037
L188.09 234.721
L194.535 234.721
L194.875 234.557
L214.549 234.557
L214.888 234.398
L227.1 234.398
L227.439 234.228
L238.972 234.228
L239.311 234.035
L250.166 234.035
L250.505 233.468
L258.307 233.468
L258.646 233.297
L272.214 233.297
L272.554 233.161
L285.783 233.161
L286.122 232.883
L294.602 232.883
L294.941 232.645
L301.386 232.645
L301.726 232.342
L308.171 232.342
L308.51 231.895
L347.858 231.895
L348.197 231.724
L362.783 231.724
L363.123 231.506
L381.101 231.506
L381.44 231.348
L398.061 231.348
L398.4 230.901
L416.379 230.901
L416.718 230.731
L429.269 230.731
L429.608 230.326
L438.088 230.326
L438.427 229.765
L458.78 229.765
L459.119 229.555
L463.19 229.555
L463.529 229.376
L496.432 229.376
L496.771 228.975
L509.661 228.975
L509.661 228.975" style="fill:none;stroke:#bfbf00;stroke-linecap:square;"/>
   </g>
   <g id="line2d_7">
    <path clip-path="url(#p3f6fae7697)" d="
M63.2613 237.075
L63.6005 236.633
L74.4552 236.633
L74.7944 236.458
L90.398 236.458
L90.7372 236.29
L99.8959 236.29
L100.235 236.102
L102.61 236.102
L102.949 235.734
L113.125 235.734
L113.464 235.212
L130.425 235.212
L130.764 235.086
L139.583 235.086
L139.923 234.903
L154.169 234.903
L154.509 234.414
L161.971 234.414
L162.31 234.275
L172.148 234.275
L172.487 234.072
L187.751 234.072
L188.09 233.802
L195.214 233.802
L195.553 233.616
L203.016 233.616
L203.355 233.457
L210.478 233.457
L210.817 233.237
L225.743 233.237
L226.082 233.061
L236.937 233.061
L237.276 232.928
L240.668 232.928
L241.007 232.524
L251.862 232.524
L252.201 231.96
L278.32 231.96
L278.659 231.78
L293.585 231.78
L293.924 231.612
L312.58 231.612
L312.92 231.403
L322.757 231.403
L323.096 231.163
L337.003 231.163
L337.343 230.845
L359.731 230.845
L360.07 230.701
L374.317 230.701
L374.656 230.527
L390.599 230.527
L390.938 230.404
L403.828 230.404
L404.167 230.234
L418.414 230.234
L418.753 230.01
L443.176 230.01
L443.515 229.84
L462.172 229.84
L462.511 229.716
L480.828 229.716
L481.168 229.533
L509.322 229.533
L509.661 229.399
L509.661 229.399" style="fill:none;stroke:#000000;stroke-linecap:square;"/>
   </g>
   <g id="line2d_8">
    <path clip-path="url(#p3f6fae7697)" d="
M63.2613 235.295
L63.6005 234.995
L83.6138 234.995
L83.953 234.427
L98.5391 234.427
L98.8783 234.285
L119.909 234.285
L120.248 233.962
L133.478 233.962
L133.817 233.795
L148.403 233.795
L148.742 233.451
L163.328 233.451
L163.667 233.28
L176.557 233.28
L176.897 233.15
L191.143 233.15
L191.483 232.606
L207.086 232.606
L207.425 232.465
L216.923 232.465
L217.262 232.291
L225.743 232.291
L226.082 231.861
L228.456 231.861
L228.796 231.245
L258.985 231.245
L259.324 231.103
L281.712 231.103
L282.052 230.948
L300.369 230.948
L300.708 230.777
L317.669 230.777
L318.008 230.608
L332.255 230.608
L332.594 230.461
L354.303 230.461
L354.642 230.268
L369.228 230.268
L369.568 230.123
L384.493 230.123
L384.832 229.97
L394.669 229.97
L395.008 229.426
L410.951 229.426
L411.29 229.278
L434.357 229.278
L434.696 229.133
L464.207 229.133
L464.546 228.923
L489.309 228.923
L489.648 228.768
L509.661 228.768
L509.661 228.768" style="fill:none;stroke:#0000ff;stroke-linecap:square;"/>
   </g>
   <g id="line2d_9">
    <path clip-path="url(#p3f6fae7697)" d="
M63.2613 243.962
L63.6005 242.854
L76.8296 242.854
L77.1688 242.481
L95.147 242.481
L95.4862 242.301
L115.16 242.301
L115.5 242.075
L131.782 242.075
L132.121 241.645
L144.332 241.645
L144.672 241.477
L166.042 241.477
L166.381 241.291
L178.593 241.291
L178.932 240.955
L192.5 240.955
L192.839 240.758
L206.408 240.758
L206.747 240.439
L216.923 240.439
L217.262 239.648
L247.113 239.648
L247.452 239.213
L278.32 239.213
L278.659 238.426
L299.351 238.426
L299.69 237.902
L330.898 237.902
L331.237 237.193
L364.14 237.193
L364.479 237.061
L376.352 237.061
L376.691 236.403
L400.775 236.403
L401.114 236.046
L436.731 236.046
L437.07 235.711
L507.965 235.711
L508.304 235.452
L509.661 235.452
L509.661 235.452" style="fill:none;stroke:#008000;stroke-linecap:square;"/>
   </g>
   <g id="line2d_10">
    <path clip-path="url(#p3f6fae7697)" d="
M63.2613 227.194
L63.6005 226.577
L77.5081 226.577
L77.8473 226.229
L85.9883 226.229
L86.3275 225.788
L97.5214 225.788
L97.8606 225.504
L107.698 225.504
L108.037 225.061
L122.962 225.061
L123.301 224.88
L131.442 224.88
L131.782 224.621
L148.064 224.621
L148.403 224.414
L153.152 224.414
L153.491 224.166
L166.381 224.166
L166.72 224.022
L184.359 224.022
L184.698 223.798
L189.108 223.798
L189.447 223.584
L206.747 223.584
L207.086 223.187
L227.778 223.187
L228.117 222.972
L240.329 222.972
L240.668 222.565
L255.932 222.565
L256.272 221.623
L274.589 221.623
L274.928 221.466
L292.228 221.466
L292.567 221.268
L293.924 221.268
L294.263 220.873
L312.92 220.873
L313.259 220.623
L319.704 220.623
L320.043 220.228
L334.29 220.228
L334.629 220.054
L340.735 220.054
L341.074 219.718
L392.973 219.718
L393.312 219.593
L409.594 219.593
L409.934 218.867
L435.714 218.867
L436.053 218.749
L441.141 218.749
L441.48 217.88
L467.599 217.88
L467.938 217.601
L502.199 217.601
L502.538 217.361
L509.661 217.361
L509.661 217.361" style="fill:none;stroke:#ff0000;stroke-linecap:square;"/>
   </g>
   <g id="line2d_11">
    <path clip-path="url(#p3f6fae7697)" d="
M63.2613 240.808
L63.6005 240.147
L78.8649 240.147
L79.2041 239.893
L91.0764 239.893
L91.4157 239.761
L102.949 239.761
L103.288 239.599
L117.874 239.599
L118.213 239.469
L128.39 239.469
L128.729 239.118
L138.905 239.118
L139.244 238.953
L144.672 238.953
L145.011 238.742
L156.544 238.742
L156.883 238.611
L165.363 238.611
L165.703 238.349
L181.306 238.349
L181.645 237.457
L187.073 237.457
L187.412 236.537
L207.086 236.537
L207.425 235.622
L218.619 235.622
L218.959 235.283
L231.509 235.283
L231.848 235.058
L241.007 235.058
L241.346 234.668
L248.809 234.668
L249.148 234.498
L260.003 234.498
L260.342 234.351
L272.554 234.351
L272.893 233.6
L299.69 233.6
L300.03 233.474
L302.743 233.474
L303.083 232.866
L325.81 232.866
L326.149 232.591
L344.466 232.591
L344.805 232.441
L358.035 232.441
L358.374 231.883
L378.048 231.883
L378.387 231.723
L392.973 231.723
L393.312 231.27
L425.876 231.27
L426.216 231.06
L449.282 231.06
L449.621 230.509
L488.63 230.509
L488.969 229.707
L509.661 229.707
L509.661 229.707" style="fill:none;stroke:#00bfbf;stroke-linecap:square;"/>
   </g>
   <g id="line2d_12">
    <path clip-path="url(#p3f6fae7697)" d="
M63.2613 254.312
L63.6005 254.018
L70.3847 254.018
L70.7239 253.798
L77.1688 253.798
L77.5081 253.575
L83.6138 253.575
L83.953 253.034
L91.7549 253.034
L92.0941 252.698
L104.984 252.698
L105.323 252.176
L108.715 252.176
L109.055 251.828
L120.927 251.828
L121.266 251.491
L132.799 251.491
L133.138 251.101
L137.887 251.101
L138.227 250.93
L149.421 250.93
L149.76 250.435
L159.936 250.435
L160.275 250.222
L165.024 250.222
L165.363 249.837
L174.183 249.837
L174.522 249.067
L188.09 249.067
L188.43 248.152
L190.804 248.152
L191.143 247.494
L216.923 247.494
L217.262 247.31
L230.831 247.31
L231.17 247.062
L235.919 247.062
L236.258 246.942
L246.095 246.942
L246.435 246.642
L255.254 246.642
L255.593 246.396
L265.43 246.396
L265.769 246.045
L276.963 246.045
L277.303 245.869
L285.783 245.869
L286.122 245.098
L309.528 245.098
L309.867 244.632
L334.968 244.632
L335.307 244.33
L350.233 244.33
L350.572 244.156
L352.946 244.156
L353.286 243.953
L365.836 243.953
L366.176 243.756
L383.475 243.756
L383.814 243.03
L412.647 243.03
L412.986 242.65
L453.692 242.65
L454.031 242.144
L509.661 242.144
L509.661 242.144" style="fill:none;stroke:#bf00bf;stroke-linecap:square;"/>
   </g>
   <g id="line2d_13">
    <path clip-path="url(#p3f6fae7697)" d="
M63.2613 245.93
L63.6005 245.604
L72.0807 245.604
L72.4199 245.072
L77.8473 245.072
L78.1865 244.84
L84.9707 244.84
L85.3099 244.261
L92.0941 244.261
L92.4333 243.635
L101.592 243.635
L101.931 243.508
L109.733 243.508
L110.072 243.371
L120.248 243.371
L120.588 242.853
L127.372 242.853
L127.711 242.489
L133.138 242.489
L133.478 242.36
L152.813 242.36
L153.152 242.153
L153.83 242.153
L154.169 241.924
L178.932 241.924
L179.271 241.456
L184.698 241.456
L185.038 241.14
L194.875 241.14
L195.214 240.866
L207.086 240.866
L207.425 240.396
L226.082 240.396
L226.421 239.897
L233.884 239.897
L234.223 239.119
L254.236 239.119
L254.576 238.73
L260.003 238.73
L260.342 237.904
L278.659 237.904
L278.999 237.023
L328.184 237.023
L328.523 236.063
L363.123 236.063
L363.462 235.775
L422.484 235.775
L422.824 235.621
L423.841 235.621
L424.18 235.314
L435.374 235.314
L435.714 235.088
L454.031 235.088
L454.37 234.751
L498.807 234.751
L499.146 233.855
L509.661 233.855
L509.661 233.855" style="fill:none;stroke:#bfbf00;stroke-linecap:square;"/>
   </g>
   <g id="line2d_14">
    <path clip-path="url(#p3f6fae7697)" d="
M63.2613 238.816
L63.6005 238.46
L68.6886 238.46
L69.0278 237.932
L77.5081 237.932
L77.8473 237.752
L89.3804 237.752
L89.7196 237.549
L98.8783 237.549
L99.2175 237.419
L103.288 237.419
L103.627 237.056
L112.786 237.056
L113.125 236.877
L124.319 236.877
L124.658 236.731
L129.746 236.731
L130.086 236.431
L140.262 236.431
L140.601 236.097
L143.315 236.097
L143.654 235.955
L153.83 235.955
L154.169 235.831
L164.007 235.831
L164.346 235.667
L175.54 235.667
L175.879 235.359
L181.645 235.359
L181.985 234.8
L186.734 234.8
L187.073 233.204
L205.729 233.204
L206.069 233.007
L207.765 233.007
L208.104 232.874
L222.011 232.874
L222.351 232.57
L225.064 232.57
L225.403 231.97
L235.919 231.97
L236.258 231.426
L259.664 231.426
L260.003 230.487
L300.708 230.487
L301.047 229.672
L344.466 229.672
L344.805 229.265
L382.118 229.265
L382.458 229.109
L390.259 229.109
L390.599 228.949
L408.916 228.949
L409.255 228.423
L423.841 228.423
L424.18 228.257
L443.855 228.257
L444.194 228.065
L450.978 228.065
L451.317 227.675
L480.15 227.675
L480.489 227.427
L495.075 227.427
L495.414 227.263
L502.199 227.263
L502.538 226.924
L509.661 226.924
L509.661 226.924" style="fill:none;stroke:#000000;stroke-linecap:square;"/>
   </g>
   <g id="line2d_15">
    <path clip-path="url(#p3f6fae7697)" d="
M63.2613 239.044
L63.6005 238.863
L69.367 238.863
L69.7062 238.717
L78.5257 238.717
L78.8649 238.545
L82.5962 238.545
L82.9354 238.36
L88.3628 238.36
L88.702 238.003
L101.253 238.003
L101.592 237.73
L107.019 237.73
L107.359 237.597
L114.143 237.597
L114.482 237.428
L118.892 237.428
L119.231 237.036
L126.015 237.036
L126.354 236.856
L134.835 236.856
L135.174 236.705
L141.619 236.705
L141.958 236.45
L149.081 236.45
L149.421 236.192
L157.901 236.192
L158.24 236.035
L161.632 236.035
L161.971 235.672
L173.165 235.672
L173.504 235.315
L187.412 235.315
L187.751 235.052
L205.39 235.052
L205.729 234.802
L211.835 234.802
L212.174 234.663
L220.315 234.663
L220.655 234.172
L243.042 234.172
L243.382 233.61
L268.483 233.61
L268.822 233.367
L275.946 233.367
L276.285 232.547
L299.351 232.547
L299.69 231.761
L322.078 231.761
L322.417 231.019
L345.823 231.019
L346.162 230.715
L370.585 230.715
L370.924 230.589
L385.171 230.589
L385.51 230.299
L398.061 230.299
L398.4 229.996
L437.749 229.996
L438.088 229.296
L466.921 229.296
L467.26 228.501
L509.661 228.501
L509.661 228.501" style="fill:none;stroke:#0000ff;stroke-linecap:square;"/>
   </g>
   <g id="line2d_16">
    <path clip-path="url(#p3f6fae7697)" d="
M63.2613 191.654
L63.6005 191.346
L71.4023 191.346
L71.7415 191.132
L79.8825 191.132
L80.2217 190.964
L89.3804 190.964
L89.7196 190.773
L99.8959 190.773
L100.235 190.652
L109.394 190.652
L109.733 190.221
L113.125 190.221
L113.464 190.049
L122.623 190.049
L122.962 189.836
L133.138 189.836
L133.478 189.445
L145.35 189.445
L145.689 189.28
L151.795 189.28
L152.134 189.107
L156.544 189.107
L156.883 188.817
L163.667 188.817
L164.007 188.475
L175.879 188.475
L176.218 187.584
L192.161 187.584
L192.5 187.123
L206.747 187.123
L207.086 186.734
L215.566 186.734
L215.906 186.539
L222.011 186.539
L222.351 186.329
L231.848 186.329
L232.188 185.839
L234.562 185.839
L234.901 185.301
L244.399 185.301
L244.738 185.095
L252.54 185.095
L253.219 184.983
L258.307 184.983
L258.646 184.53
L267.466 184.53
L267.805 184.176
L297.994 184.176
L298.334 183.996
L309.867 183.996
L310.206 183.669
L317.329 183.669
L317.669 183.533
L326.488 183.533
L326.827 182.939
L336.325 182.939
L336.664 182.677
L348.197 182.677
L348.537 182.384
L352.946 182.384
L353.286 181.991
L374.656 181.991
L374.995 181.185
L382.118 181.185
L382.458 180.505
L407.22 180.505
L407.559 180.372
L416.379 180.372
L416.718 180.047
L427.912 180.047
L428.251 179.901
L438.088 179.901
L438.427 179.009
L481.846 179.009
L482.185 178.85
L492.701 178.85
L493.04 178.399
L509.661 178.399
L509.661 178.399" style="fill:none;stroke:#008000;stroke-linecap:square;"/>
   </g>
   <g id="patch_3">
    <path d="
M63.2613 368.742
L63.2613 23.1417" style="fill:none;stroke:#000000;stroke-linecap:square;stroke-linejoin:miter;"/>
   </g>
   <g id="patch_4">
    <path d="
M509.661 368.742
L509.661 23.1417" style="fill:none;stroke:#000000;stroke-linecap:square;stroke-linejoin:miter;"/>
   </g>
   <g id="patch_5">
    <path d="
M63.2613 23.1417
L509.661 23.1417" style="fill:none;stroke:#000000;stroke-linecap:square;stroke-linejoin:miter;"/>
   </g>
   <g id="patch_6">
    <path d="
M63.2613 368.742
L509.661 368.742" style="fill:none;stroke:#000000;stroke-linecap:square;stroke-linejoin:miter;"/>
   </g>
   <g id="matplotlib.axis_1">
    <g id="xtick_1">
     <g id="line2d_17">
      <defs>
       <path d="
M0 0
L0 -4" id="mc7db9fdffb" style="stroke:#000000;stroke-width:0.5;"/>
      </defs>
      <g>
       <use style="stroke:#000000;stroke-width:0.5;" x="63.26125" xlink:href="#mc7db9fdffb" y="368.74175"/>
      </g>
     </g>
     <g id="line2d_18">
      <defs>
       <path d="
M0 0
L0 4" id="m5a7d422ac3" style="stroke:#000000;stroke-width:0.5;"/>
      </defs>
      <g>
       <use style="stroke:#000000;stroke-width:0.5;" x="63.26125" xlink:href="#m5a7d422ac3" y="23.14175"/>
      </g>
     </g>
     <g id="text_1">
      <!-- 0 -->
      <defs>
       <path d="
M31.7812 66.4062
Q24.1719 66.4062 20.3281 58.9062
Q16.5 51.4219 16.5 36.375
Q16.5 21.3906 20.3281 13.8906
Q24.1719 6.39062 31.7812 6.39062
Q39.4531 6.39062 43.2812 13.8906
Q47.125 21.3906 47.125 36.375
Q47.125 51.4219 43.2812 58.9062
Q39.4531 66.4062 31.7812 66.4062
M31.7812 74.2188
Q44.0469 74.2188 50.5156 64.5156
Q56.9844 54.8281 56.9844 36.375
Q56.9844 17.9688 50.5156 8.26562
Q44.0469 -1.42188 31.7812 -1.42188
Q19.5312 -1.42188 13.0625 8.26562
Q6.59375 17.9688 6.59375 36.375
Q6.59375 54.8281 13.0625 64.5156
Q19.5312 74.2188 31.7812 74.2188" id="DejaVuSans-30"/>
      </defs>
      <g transform="translate(60.2378125 381.859875)scale(0.12 -0.12)">
       <use xlink:href="#DejaVuSans-30"/>
      </g>
     </g>
    </g>
    <g id="xtick_2">
     <g id="line2d_19">
      <g>
       <use style="stroke:#000000;stroke-width:0.5;" x="131.103195289" xlink:href="#mc7db9fdffb" y="368.74175"/>
      </g>
     </g>
     <g id="line2d_20">
      <g>
       <use style="stroke:#000000;stroke-width:0.5;" x="131.103195289" xlink:href="#m5a7d422ac3" y="23.14175"/>
      </g>
     </g>
     <g id="text_2">
      <!-- 200 -->
      <defs>
       <path d="
M19.1875 8.29688
L53.6094 8.29688
L53.6094 0
L7.32812 0
L7.32812 8.29688
Q12.9375 14.1094 22.625 23.8906
Q32.3281 33.6875 34.8125 36.5312
Q39.5469 41.8438 41.4219 45.5312
Q43.3125 49.2188 43.3125 52.7812
Q43.3125 58.5938 39.2344 62.25
Q35.1562 65.9219 28.6094 65.9219
Q23.9688 65.9219 18.8125 64.3125
Q13.6719 62.7031 7.8125 59.4219
L7.8125 69.3906
Q13.7656 71.7812 18.9375 73
Q24.125 74.2188 28.4219 74.2188
Q39.75 74.2188 46.4844 68.5469
Q53.2188 62.8906 53.2188 53.4219
Q53.2188 48.9219 51.5312 44.8906
Q49.8594 40.875 45.4062 35.4062
Q44.1875 33.9844 37.6406 27.2188
Q31.1094 20.4531 19.1875 8.29688" id="DejaVuSans-32"/>
      </defs>
      <g transform="translate(120.488820289 381.859875)scale(0.12 -0.12)">
       <use xlink:href="#DejaVuSans-32"/>
       <use x="63.623046875" xlink:href="#DejaVuSans-30"/>
       <use x="127.24609375" xlink:href="#DejaVuSans-30"/>
      </g>
     </g>
    </g>
    <g id="xtick_3">
     <g id="line2d_21">
      <g>
       <use style="stroke:#000000;stroke-width:0.5;" x="198.945140578" xlink:href="#mc7db9fdffb" y="368.74175"/>
      </g>
     </g>
     <g id="line2d_22">
      <g>
       <use style="stroke:#000000;stroke-width:0.5;" x="198.945140578" xlink:href="#m5a7d422ac3" y="23.14175"/>
      </g>
     </g>
     <g id="text_3">
      <!-- 400 -->
      <defs>
       <path d="
M37.7969 64.3125
L12.8906 25.3906
L37.7969 25.3906
z

M35.2031 72.9062
L47.6094 72.9062
L47.6094 25.3906
L58.0156 25.3906
L58.0156 17.1875
L47.6094 17.1875
L47.6094 0
L37.7969 0
L37.7969 17.1875
L4.89062 17.1875
L4.89062 26.7031
z
" id="DejaVuSans-34"/>
      </defs>
      <g transform="translate(188.184515578 381.859875)scale(0.12 -0.12)">
       <use xlink:href="#DejaVuSans-34"/>
       <use x="63.623046875" xlink:href="#DejaVuSans-30"/>
       <use x="127.24609375" xlink:href="#DejaVuSans-30"/>
      </g>
     </g>
    </g>
    <g id="xtick_4">
     <g id="line2d_23">
      <g>
       <use style="stroke:#000000;stroke-width:0.5;" x="266.787085866" xlink:href="#mc7db9fdffb" y="368.74175"/>
      </g>
     </g>
     <g id="line2d_24">
      <g>
       <use style="stroke:#000000;stroke-width:0.5;" x="266.787085866" xlink:href="#m5a7d422ac3" y="23.14175"/>
      </g>
     </g>
     <g id="text_4">
      <!-- 600 -->
      <defs>
       <path d="
M33.0156 40.375
Q26.375 40.375 22.4844 35.8281
Q18.6094 31.2969 18.6094 23.3906
Q18.6094 15.5312 22.4844 10.9531
Q26.375 6.39062 33.0156 6.39062
Q39.6562 6.39062 43.5312 10.9531
Q47.4062 15.5312 47.4062 23.3906
Q47.4062 31.2969 43.5312 35.8281
Q39.6562 40.375 33.0156 40.375
M52.5938 71.2969
L52.5938 62.3125
Q48.875 64.0625 45.0938 64.9844
Q41.3125 65.9219 37.5938 65.9219
Q27.8281 65.9219 22.6719 59.3281
Q17.5312 52.7344 16.7969 39.4062
Q19.6719 43.6562 24.0156 45.9219
Q28.375 48.1875 33.5938 48.1875
Q44.5781 48.1875 50.9531 41.5156
Q57.3281 34.8594 57.3281 23.3906
Q57.3281 12.1562 50.6875 5.35938
Q44.0469 -1.42188 33.0156 -1.42188
Q20.3594 -1.42188 13.6719 8.26562
Q6.98438 17.9688 6.98438 36.375
Q6.98438 53.6562 15.1875 63.9375
Q23.3906 74.2188 37.2031 74.2188
Q40.9219 74.2188 44.7031 73.4844
Q48.4844 72.75 52.5938 71.2969" id="DejaVuSans-36"/>
      </defs>
      <g transform="translate(256.152085866 381.859875)scale(0.12 -0.12)">
       <use xlink:href="#DejaVuSans-36"/>
       <use x="63.623046875" xlink:href="#DejaVuSans-30"/>
       <use x="127.24609375" xlink:href="#DejaVuSans-30"/>
      </g>
     </g>
    </g>
    <g id="xtick_5">
     <g id="line2d_25">
      <g>
       <use style="stroke:#000000;stroke-width:0.5;" x="334.629031155" xlink:href="#mc7db9fdffb" y="368.74175"/>
      </g>
     </g>
     <g id="line2d_26">
      <g>
       <use style="stroke:#000000;stroke-width:0.5;" x="334.629031155" xlink:href="#m5a7d422ac3" y="23.14175"/>
      </g>
     </g>
     <g id="text_5">
      <!-- 800 -->
      <defs>
       <path d="
M31.7812 34.625
Q24.75 34.625 20.7188 30.8594
Q16.7031 27.0938 16.7031 20.5156
Q16.7031 13.9219 20.7188 10.1562
Q24.75 6.39062 31.7812 6.39062
Q38.8125 6.39062 42.8594 10.1719
Q46.9219 13.9688 46.9219 20.5156
Q46.9219 27.0938 42.8906 30.8594
Q38.875 34.625 31.7812 34.625
M21.9219 38.8125
Q15.5781 40.375 12.0312 44.7188
Q8.5 49.0781 8.5 55.3281
Q8.5 64.0625 14.7188 69.1406
Q20.9531 74.2188 31.7812 74.2188
Q42.6719 74.2188 48.875 69.1406
Q55.0781 64.0625 55.0781 55.3281
Q55.0781 49.0781 51.5312 44.7188
Q48 40.375 41.7031 38.8125
Q48.8281 37.1562 52.7969 32.3125
Q56.7812 27.4844 56.7812 20.5156
Q56.7812 9.90625 50.3125 4.23438
Q43.8438 -1.42188 31.7812 -1.42188
Q19.7344 -1.42188 13.25 4.23438
Q6.78125 9.90625 6.78125 20.5156
Q6.78125 27.4844 10.7812 32.3125
Q14.7969 37.1562 21.9219 38.8125
M18.3125 54.3906
Q18.3125 48.7344 21.8438 45.5625
Q25.3906 42.3906 31.7812 42.3906
Q38.1406 42.3906 41.7188 45.5625
Q45.3125 48.7344 45.3125 54.3906
Q45.3125 60.0625 41.7188 63.2344
Q38.1406 66.4062 31.7812 66.4062
Q25.3906 66.4062 21.8438 63.2344
Q18.3125 60.0625 18.3125 54.3906" id="DejaVuSans-38"/>
      </defs>
      <g transform="translate(323.981843655 381.859875)scale(0.12 -0.12)">
       <use xlink:href="#DejaVuSans-38"/>
       <use x="63.623046875" xlink:href="#DejaVuSans-30"/>
       <use x="127.24609375" xlink:href="#DejaVuSans-30"/>
      </g>
     </g>
    </g>
    <g id="xtick_6">
     <g id="line2d_27">
      <g>
       <use style="stroke:#000000;stroke-width:0.5;" x="402.470976444" xlink:href="#mc7db9fdffb" y="368.74175"/>
      </g>
     </g>
     <g id="line2d_28">
      <g>
       <use style="stroke:#000000;stroke-width:0.5;" x="402.470976444" xlink:href="#m5a7d422ac3" y="23.14175"/>
      </g>
     </g>
     <g id="text_6">
      <!-- 1000 -->
      <defs>
       <path d="
M12.4062 8.29688
L28.5156 8.29688
L28.5156 63.9219
L10.9844 60.4062
L10.9844 69.3906
L28.4219 72.9062
L38.2812 72.9062
L38.2812 8.29688
L54.3906 8.29688
L54.3906 0
L12.4062 0
z
" id="DejaVuSans-31"/>
      </defs>
      <g transform="translate(388.258476444 381.859875)scale(0.12 -0.12)">
       <use xlink:href="#DejaVuSans-31"/>
       <use x="63.623046875" xlink:href="#DejaVuSans-30"/>
       <use x="127.24609375" xlink:href="#DejaVuSans-30"/>
       <use x="190.869140625" xlink:href="#DejaVuSans-30"/>
      </g>
     </g>
    </g>
    <g id="xtick_7">
     <g id="line2d_29">
      <g>
       <use style="stroke:#000000;stroke-width:0.5;" x="470.312921733" xlink:href="#mc7db9fdffb" y="368.74175"/>
      </g>
     </g>
     <g id="line2d_30">
      <g>
       <use style="stroke:#000000;stroke-width:0.5;" x="470.312921733" xlink:href="#m5a7d422ac3" y="23.14175"/>
      </g>
     </g>
     <g id="text_7">
      <!-- 1200 -->
      <g transform="translate(456.100421733 381.859875)scale(0.12 -0.12)">
       <use xlink:href="#DejaVuSans-31"/>
       <use x="63.623046875" xlink:href="#DejaVuSans-32"/>
       <use x="127.24609375" xlink:href="#DejaVuSans-30"/>
       <use x="190.869140625" xlink:href="#DejaVuSans-30"/>
      </g>
     </g>
    </g>
    <g id="text_8">
     <!-- time -->
     <defs>
      <path d="
M9.42188 54.6875
L18.4062 54.6875
L18.4062 0
L9.42188 0
z

M9.42188 75.9844
L18.4062 75.9844
L18.4062 64.5938
L9.42188 64.5938
z
" id="DejaVuSans-69"/>
      <path d="
M18.3125 70.2188
L18.3125 54.6875
L36.8125 54.6875
L36.8125 47.7031
L18.3125 47.7031
L18.3125 18.0156
Q18.3125 11.3281 20.1406 9.42188
Q21.9688 7.51562 27.5938 7.51562
L36.8125 7.51562
L36.8125 0
L27.5938 0
Q17.1875 0 13.2344 3.875
Q9.28125 7.76562 9.28125 18.0156
L9.28125 47.7031
L2.6875 47.7031
L2.6875 54.6875
L9.28125 54.6875
L9.28125 70.2188
z
" id="DejaVuSans-74"/>
      <path d="
M52 44.1875
Q55.375 50.25 60.0625 53.125
Q64.75 56 71.0938 56
Q79.6406 56 84.2812 50.0156
Q88.9219 44.0469 88.9219 33.0156
L88.9219 0
L79.8906 0
L79.8906 32.7188
Q79.8906 40.5781 77.0938 44.375
Q74.3125 48.1875 68.6094 48.1875
Q61.625 48.1875 57.5625 43.5469
Q53.5156 38.9219 53.5156 30.9062
L53.5156 0
L44.4844 0
L44.4844 32.7188
Q44.4844 40.625 41.7031 44.4062
Q38.9219 48.1875 33.1094 48.1875
Q26.2188 48.1875 22.1562 43.5312
Q18.1094 38.875 18.1094 30.9062
L18.1094 0
L9.07812 0
L9.07812 54.6875
L18.1094 54.6875
L18.1094 46.1875
Q21.1875 51.2188 25.4844 53.6094
Q29.7812 56 35.6875 56
Q41.6562 56 45.8281 52.9688
Q50 49.9531 52 44.1875" id="DejaVuSans-6d"/>
      <path d="
M56.2031 29.5938
L56.2031 25.2031
L14.8906 25.2031
Q15.4844 15.9219 20.4844 11.0625
Q25.4844 6.20312 34.4219 6.20312
Q39.5938 6.20312 44.4531 7.46875
Q49.3125 8.73438 54.1094 11.2812
L54.1094 2.78125
Q49.2656 0.734375 44.1875 -0.34375
Q39.1094 -1.42188 33.8906 -1.42188
Q20.7969 -1.42188 13.1562 6.1875
Q5.51562 13.8125 5.51562 26.8125
Q5.51562 40.2344 12.7656 48.1094
Q20.0156 56 32.3281 56
Q43.3594 56 49.7812 48.8906
Q56.2031 41.7969 56.2031 29.5938
M47.2188 32.2344
Q47.125 39.5938 43.0938 43.9844
Q39.0625 48.3906 32.4219 48.3906
Q24.9062 48.3906 20.3906 44.1406
Q15.875 39.8906 15.1875 32.1719
z
" id="DejaVuSans-65"/>
     </defs>
     <g transform="translate(273.386875 398.473625)scale(0.12 -0.12)">
      <use xlink:href="#DejaVuSans-74"/>
      <use x="39.208984375" xlink:href="#DejaVuSans-69"/>
      <use x="66.9921875" xlink:href="#DejaVuSans-6d"/>
      <use x="164.404296875" xlink:href="#DejaVuSans-65"/>
     </g>
    </g>
   </g>
   <g id="matplotlib.axis_2">
    <g id="ytick_1">
     <g id="line2d_31">
      <defs>
       <path d="
M0 0
L4 0" id="md7965d1ba0" style="stroke:#000000;stroke-width:0.5;"/>
      </defs>
      <g>
       <use style="stroke:#000000;stroke-width:0.5;" x="63.26125" xlink:href="#md7965d1ba0" y="368.74175"/>
      </g>
     </g>
     <g id="line2d_32">
      <defs>
       <path d="
M0 0
L-4 0" id="md9a1c1a7cd" style="stroke:#000000;stroke-width:0.5;"/>
      </defs>
      <g>
       <use style="stroke:#000000;stroke-width:0.5;" x="509.66125" xlink:href="#md9a1c1a7cd" y="368.74175"/>
      </g>
     </g>
     <g id="text_9">
      <!-- 0 -->
      <g transform="translate(53.214375 372.053)scale(0.12 -0.12)">
       <use xlink:href="#DejaVuSans-30"/>
      </g>
     </g>
    </g>
    <g id="ytick_2">
     <g id="line2d_33">
      <g>
       <use style="stroke:#000000;stroke-width:0.5;" x="63.26125" xlink:href="#md7965d1ba0" y="299.62175"/>
      </g>
     </g>
     <g id="line2d_34">
      <g>
       <use style="stroke:#000000;stroke-width:0.5;" x="509.66125" xlink:href="#md9a1c1a7cd" y="299.62175"/>
      </g>
     </g>
     <g id="text_10">
      <!-- 1000000 -->
      <g transform="translate(7.93125 302.933)scale(0.12 -0.12)">
       <use xlink:href="#DejaVuSans-31"/>
       <use x="63.623046875" xlink:href="#DejaVuSans-30"/>
       <use x="127.24609375" xlink:href="#DejaVuSans-30"/>
       <use x="190.869140625" xlink:href="#DejaVuSans-30"/>
       <use x="254.4921875" xlink:href="#DejaVuSans-30"/>
       <use x="318.115234375" xlink:href="#DejaVuSans-30"/>
       <use x="381.73828125" xlink:href="#DejaVuSans-30"/>
      </g>
     </g>
    </g>
    <g id="ytick_3">
     <g id="line2d_35">
      <g>
       <use style="stroke:#000000;stroke-width:0.5;" x="63.26125" xlink:href="#md7965d1ba0" y="230.50175"/>
      </g>
     </g>
     <g id="line2d_36">
      <g>
       <use style="stroke:#000000;stroke-width:0.5;" x="509.66125" xlink:href="#md9a1c1a7cd" y="230.50175"/>
      </g>
     </g>
     <g id="text_11">
      <!-- 2000000 -->
      <g transform="translate(7.4925 233.813)scale(0.12 -0.12)">
       <use xlink:href="#DejaVuSans-32"/>
       <use x="63.623046875" xlink:href="#DejaVuSans-30"/>
       <use x="127.24609375" xlink:href="#DejaVuSans-30"/>
       <use x="190.869140625" xlink:href="#DejaVuSans-30"/>
       <use x="254.4921875" xlink:href="#DejaVuSans-30"/>
       <use x="318.115234375" xlink:href="#DejaVuSans-30"/>
       <use x="381.73828125" xlink:href="#DejaVuSans-30"/>
      </g>
     </g>
    </g>
    <g id="ytick_4">
     <g id="line2d_37">
      <g>
       <use style="stroke:#000000;stroke-width:0.5;" x="63.26125" xlink:href="#md7965d1ba0" y="161.38175"/>
      </g>
     </g>
     <g id="line2d_38">
      <g>
       <use style="stroke:#000000;stroke-width:0.5;" x="509.66125" xlink:href="#md9a1c1a7cd" y="161.38175"/>
      </g>
     </g>
     <g id="text_12">
      <!-- 3000000 -->
      <defs>
       <path d="
M40.5781 39.3125
Q47.6562 37.7969 51.625 33
Q55.6094 28.2188 55.6094 21.1875
Q55.6094 10.4062 48.1875 4.48438
Q40.7656 -1.42188 27.0938 -1.42188
Q22.5156 -1.42188 17.6562 -0.515625
Q12.7969 0.390625 7.625 2.20312
L7.625 11.7188
Q11.7188 9.32812 16.5938 8.10938
Q21.4844 6.89062 26.8125 6.89062
Q36.0781 6.89062 40.9375 10.5469
Q45.7969 14.2031 45.7969 21.1875
Q45.7969 27.6406 41.2812 31.2656
Q36.7656 34.9062 28.7188 34.9062
L20.2188 34.9062
L20.2188 43.0156
L29.1094 43.0156
Q36.375 43.0156 40.2344 45.9219
Q44.0938 48.8281 44.0938 54.2969
Q44.0938 59.9062 40.1094 62.9062
Q36.1406 65.9219 28.7188 65.9219
Q24.6562 65.9219 20.0156 65.0312
Q15.375 64.1562 9.8125 62.3125
L9.8125 71.0938
Q15.4375 72.6562 20.3438 73.4375
Q25.25 74.2188 29.5938 74.2188
Q40.8281 74.2188 47.3594 69.1094
Q53.9062 64.0156 53.9062 55.3281
Q53.9062 49.2656 50.4375 45.0938
Q46.9688 40.9219 40.5781 39.3125" id="DejaVuSans-33"/>
      </defs>
      <g transform="translate(7.528125 164.693)scale(0.12 -0.12)">
       <use xlink:href="#DejaVuSans-33"/>
       <use x="63.623046875" xlink:href="#DejaVuSans-30"/>
       <use x="127.24609375" xlink:href="#DejaVuSans-30"/>
       <use x="190.869140625" xlink:href="#DejaVuSans-30"/>
       <use x="254.4921875" xlink:href="#DejaVuSans-30"/>
       <use x="318.115234375" xlink:href="#DejaVuSans-30"/>
       <use x="381.73828125" xlink:href="#DejaVuSans-30"/>
      </g>
     </g>
    </g>
    <g id="ytick_5">
     <g id="line2d_39">
      <g>
       <use style="stroke:#000000;stroke-width:0.5;" x="63.26125" xlink:href="#md7965d1ba0" y="92.26175"/>
      </g>
     </g>
     <g id="line2d_40">
      <g>
       <use style="stroke:#000000;stroke-width:0.5;" x="509.66125" xlink:href="#md9a1c1a7cd" y="92.26175"/>
      </g>
     </g>
     <g id="text_13">
      <!-- 4000000 -->
      <g transform="translate(7.2 95.573)scale(0.12 -0.12)">
       <use xlink:href="#DejaVuSans-34"/>
       <use x="63.623046875" xlink:href="#DejaVuSans-30"/>
       <use x="127.24609375" xlink:href="#DejaVuSans-30"/>
       <use x="190.869140625" xlink:href="#DejaVuSans-30"/>
       <use x="254.4921875" xlink:href="#DejaVuSans-30"/>
       <use x="318.115234375" xlink:href="#DejaVuSans-30"/>
       <use x="381.73828125" xlink:href="#DejaVuSans-30"/>
      </g>
     </g>
    </g>
    <g id="ytick_6">
     <g id="line2d_41">
      <g>
       <use style="stroke:#000000;stroke-width:0.5;" x="63.26125" xlink:href="#md7965d1ba0" y="23.14175"/>
      </g>
     </g>
     <g id="line2d_42">
      <g>
       <use style="stroke:#000000;stroke-width:0.5;" x="509.66125" xlink:href="#md9a1c1a7cd" y="23.14175"/>
      </g>
     </g>
     <g id="text_14">
      <!-- 5000000 -->
      <defs>
       <path d="
M10.7969 72.9062
L49.5156 72.9062
L49.5156 64.5938
L19.8281 64.5938
L19.8281 46.7344
Q21.9688 47.4688 24.1094 47.8281
Q26.2656 48.1875 28.4219 48.1875
Q40.625 48.1875 47.75 41.5
Q54.8906 34.8125 54.8906 23.3906
Q54.8906 11.625 47.5625 5.09375
Q40.2344 -1.42188 26.9062 -1.42188
Q22.3125 -1.42188 17.5469 -0.640625
Q12.7969 0.140625 7.71875 1.70312
L7.71875 11.625
Q12.1094 9.23438 16.7969 8.0625
Q21.4844 6.89062 26.7031 6.89062
Q35.1562 6.89062 40.0781 11.3281
Q45.0156 15.7656 45.0156 23.3906
Q45.0156 31 40.0781 35.4375
Q35.1562 39.8906 26.7031 39.8906
Q22.75 39.8906 18.8125 39.0156
Q14.8906 38.1406 10.7969 36.2812
z
" id="DejaVuSans-35"/>
      </defs>
      <g transform="translate(7.539375 26.453)scale(0.12 -0.12)">
       <use xlink:href="#DejaVuSans-35"/>
       <use x="63.623046875" xlink:href="#DejaVuSans-30"/>
       <use x="127.24609375" xlink:href="#DejaVuSans-30"/>
       <use x="190.869140625" xlink:href="#DejaVuSans-30"/>
       <use x="254.4921875" xlink:href="#DejaVuSans-30"/>
       <use x="318.115234375" xlink:href="#DejaVuSans-30"/>
       <use x="381.73828125" xlink:href="#DejaVuSans-30"/>
      </g>
     </g>
    </g>
   </g>
   <g id="text_15">
    <!-- /agas/time/allocate -->
    <defs>
     <path d="
M48.7812 52.5938
L48.7812 44.1875
Q44.9688 46.2969 41.1406 47.3438
Q37.3125 48.3906 33.4062 48.3906
Q24.6562 48.3906 19.8125 42.8438
Q14.9844 37.3125 14.9844 27.2969
Q14.9844 17.2812 19.8125 11.7344
Q24.6562 6.20312 33.4062 6.20312
Q37.3125 6.20312 41.1406 7.25
Q44.9688 8.29688 48.7812 10.4062
L48.7812 2.09375
Q45.0156 0.34375 40.9844 -0.53125
Q36.9688 -1.42188 32.4219 -1.42188
Q20.0625 -1.42188 12.7812 6.34375
Q5.51562 14.1094 5.51562 27.2969
Q5.51562 40.6719 12.8594 48.3281
Q20.2188 56 33.0156 56
Q37.1562 56 41.1094 55.1406
Q45.0625 54.2969 48.7812 52.5938" id="DejaVuSans-63"/>
     <path d="
M9.42188 75.9844
L18.4062 75.9844
L18.4062 0
L9.42188 0
z
" id="DejaVuSans-6c"/>
     <path d="
M34.2812 27.4844
Q23.3906 27.4844 19.1875 25
Q14.9844 22.5156 14.9844 16.5
Q14.9844 11.7188 18.1406 8.90625
Q21.2969 6.10938 26.7031 6.10938
Q34.1875 6.10938 38.7031 11.4062
Q43.2188 16.7031 43.2188 25.4844
L43.2188 27.4844
z

M52.2031 31.2031
L52.2031 0
L43.2188 0
L43.2188 8.29688
Q40.1406 3.32812 35.5469 0.953125
Q30.9531 -1.42188 24.3125 -1.42188
Q15.9219 -1.42188 10.9531 3.29688
Q6 8.01562 6 15.9219
Q6 25.1406 12.1719 29.8281
Q18.3594 34.5156 30.6094 34.5156
L43.2188 34.5156
L43.2188 35.4062
Q43.2188 41.6094 39.1406 45
Q35.0625 48.3906 27.6875 48.3906
Q23 48.3906 18.5469 47.2656
Q14.1094 46.1406 10.0156 43.8906
L10.0156 52.2031
Q14.9375 54.1094 19.5781 55.0469
Q24.2188 56 28.6094 56
Q40.4844 56 46.3438 49.8438
Q52.2031 43.7031 52.2031 31.2031" id="DejaVuSans-61"/>
     <path d="
M30.6094 48.3906
Q23.3906 48.3906 19.1875 42.75
Q14.9844 37.1094 14.9844 27.2969
Q14.9844 17.4844 19.1562 11.8438
Q23.3438 6.20312 30.6094 6.20312
Q37.7969 6.20312 41.9844 11.8594
Q46.1875 17.5312 46.1875 27.2969
Q46.1875 37.0156 41.9844 42.7031
Q37.7969 48.3906 30.6094 48.3906
M30.6094 56
Q42.3281 56 49.0156 48.375
Q55.7188 40.7656 55.7188 27.2969
Q55.7188 13.875 49.0156 6.21875
Q42.3281 -1.42188 30.6094 -1.42188
Q18.8438 -1.42188 12.1719 6.21875
Q5.51562 13.875 5.51562 27.2969
Q5.51562 40.7656 12.1719 48.375
Q18.8438 56 30.6094 56" id="DejaVuSans-6f"/>
     <path d="
M25.3906 72.9062
L33.6875 72.9062
L8.29688 -9.28125
L0 -9.28125
z
" id="DejaVuSans-2f"/>
     <path d="
M45.4062 27.9844
Q45.4062 37.75 41.375 43.1094
Q37.3594 48.4844 30.0781 48.4844
Q22.8594 48.4844 18.8281 43.1094
Q14.7969 37.75 14.7969 27.9844
Q14.7969 18.2656 18.8281 12.8906
Q22.8594 7.51562 30.0781 7.51562
Q37.3594 7.51562 41.375 12.8906
Q45.4062 18.2656 45.4062 27.9844
M54.3906 6.78125
Q54.3906 -7.17188 48.1875 -13.9844
Q42 -20.7969 29.2031 -20.7969
Q24.4688 -20.7969 20.2656 -20.0938
Q16.0625 -19.3906 12.1094 -17.9219
L12.1094 -9.1875
Q16.0625 -11.3281 19.9219 -12.3438
Q23.7812 -13.375 27.7812 -13.375
Q36.625 -13.375 41.0156 -8.76562
Q45.4062 -4.15625 45.4062 5.17188
L45.4062 9.625
Q42.625 4.78125 38.2812 2.39062
Q33.9375 0 27.875 0
Q17.8281 0 11.6719 7.65625
Q5.51562 15.3281 5.51562 27.9844
Q5.51562 40.6719 11.6719 48.3281
Q17.8281 56 27.875 56
Q33.9375 56 38.2812 53.6094
Q42.625 51.2188 45.4062 46.3906
L45.4062 54.6875
L54.3906 54.6875
z
" id="DejaVuSans-67"/>
     <path d="
M44.2812 53.0781
L44.2812 44.5781
Q40.4844 46.5312 36.375 47.5
Q32.2812 48.4844 27.875 48.4844
Q21.1875 48.4844 17.8438 46.4375
Q14.5 44.3906 14.5 40.2812
Q14.5 37.1562 16.8906 35.375
Q19.2812 33.5938 26.5156 31.9844
L29.5938 31.2969
Q39.1562 29.25 43.1875 25.5156
Q47.2188 21.7812 47.2188 15.0938
Q47.2188 7.46875 41.1875 3.01562
Q35.1562 -1.42188 24.6094 -1.42188
Q20.2188 -1.42188 15.4531 -0.5625
Q10.6875 0.296875 5.42188 2
L5.42188 11.2812
Q10.4062 8.6875 15.2344 7.39062
Q20.0625 6.10938 24.8125 6.10938
Q31.1562 6.10938 34.5625 8.28125
Q37.9844 10.4531 37.9844 14.4062
Q37.9844 18.0625 35.5156 20.0156
Q33.0625 21.9688 24.7031 23.7812
L21.5781 24.5156
Q13.2344 26.2656 9.51562 29.9062
Q5.8125 33.5469 5.8125 39.8906
Q5.8125 47.6094 11.2812 51.7969
Q16.75 56 26.8125 56
Q31.7812 56 36.1719 55.2656
Q40.5781 54.5469 44.2812 53.0781" id="DejaVuSans-73"/>
    </defs>
    <g transform="translate(217.713625 18.14175)scale(0.144 -0.144)">
     <use xlink:href="#DejaVuSans-2f"/>
     <use x="33.69140625" xlink:href="#DejaVuSans-61"/>
     <use x="94.970703125" xlink:href="#DejaVuSans-67"/>
     <use x="158.447265625" xlink:href="#DejaVuSans-61"/>
     <use x="219.7265625" xlink:href="#DejaVuSans-73"/>
     <use x="271.826171875" xlink:href="#DejaVuSans-2f"/>
     <use x="305.517578125" xlink:href="#DejaVuSans-74"/>
     <use x="344.7265625" xlink:href="#DejaVuSans-69"/>
     <use x="372.509765625" xlink:href="#DejaVuSans-6d"/>
     <use x="469.921875" xlink:href="#DejaVuSans-65"/>
     <use x="531.4453125" xlink:href="#DejaVuSans-2f"/>
     <use x="565.13671875" xlink:href="#DejaVuSans-61"/>
     <use x="626.416015625" xlink:href="#DejaVuSans-6c"/>
     <use x="654.19921875" xlink:href="#DejaVuSans-6c"/>
     <use x="681.982421875" xlink:href="#DejaVuSans-6f"/>
     <use x="743.1640625" xlink:href="#DejaVuSans-63"/>
     <use x="798.14453125" xlink:href="#DejaVuSans-61"/>
     <use x="859.423828125" xlink:href="#DejaVuSans-74"/>
     <use x="898.6328125" xlink:href="#DejaVuSans-65"/>
    </g>
   </g>
   <g id="legend_1">
    <g id="patch_7">
     <path d="
M516.861 367.194
L648.65 367.194
L648.65 24.6897
L516.861 24.6897
z
" style="fill:#ffffff;stroke:#000000;stroke-linejoin:miter;"/>
    </g>
    <g id="line2d_43">
     <path d="
M526.941 36.3515
L547.101 36.3515" style="fill:none;stroke:#0000ff;stroke-linecap:square;"/>
    </g>
    <g id="line2d_44"/>
    <g id="text_16">
     <!-- locality#0 -->
     <defs>
      <path d="
M51.125 44
L36.9219 44
L32.8125 27.6875
L47.125 27.6875
z

M43.7969 71.7812
L38.7188 51.5156
L52.9844 51.5156
L58.1094 71.7812
L65.9219 71.7812
L60.8906 51.5156
L76.125 51.5156
L76.125 44
L58.9844 44
L54.9844 27.6875
L70.5156 27.6875
L70.5156 20.2188
L53.0781 20.2188
L48 0
L40.1875 0
L45.2188 20.2188
L30.9062 20.2188
L25.875 0
L18.0156 0
L23.0938 20.2188
L7.71875 20.2188
L7.71875 27.6875
L24.9062 27.6875
L29 44
L13.2812 44
L13.2812 51.5156
L30.9062 51.5156
L35.8906 71.7812
z
" id="DejaVuSans-23"/>
      <path d="
M32.1719 -5.07812
Q28.375 -14.8438 24.75 -17.8125
Q21.1406 -20.7969 15.0938 -20.7969
L7.90625 -20.7969
L7.90625 -13.2812
L13.1875 -13.2812
Q16.8906 -13.2812 18.9375 -11.5156
Q21 -9.76562 23.4844 -3.21875
L25.0938 0.875
L2.98438 54.6875
L12.5 54.6875
L29.5938 11.9219
L46.6875 54.6875
L56.2031 54.6875
z
" id="DejaVuSans-79"/>
     </defs>
     <g transform="translate(562.94125 41.3915)scale(0.144 -0.144)">
      <use xlink:href="#DejaVuSans-6c"/>
      <use x="27.783203125" xlink:href="#DejaVuSans-6f"/>
      <use x="88.96484375" xlink:href="#DejaVuSans-63"/>
      <use x="143.9453125" xlink:href="#DejaVuSans-61"/>
      <use x="205.224609375" xlink:href="#DejaVuSans-6c"/>
      <use x="233.0078125" xlink:href="#DejaVuSans-69"/>
      <use x="260.791015625" xlink:href="#DejaVuSans-74"/>
      <use x="300.0" xlink:href="#DejaVuSans-79"/>
      <use x="359.1796875" xlink:href="#DejaVuSans-23"/>
      <use x="442.96875" xlink:href="#DejaVuSans-30"/>
     </g>
    </g>
    <g id="line2d_45">
     <path d="
M526.941 57.488
L547.101 57.488" style="fill:none;stroke:#008000;stroke-linecap:square;"/>
    </g>
    <g id="line2d_46"/>
    <g id="text_17">
     <!-- locality#1 -->
     <g transform="translate(562.94125 62.528)scale(0.144 -0.144)">
      <use xlink:href="#DejaVuSans-6c"/>
      <use x="27.783203125" xlink:href="#DejaVuSans-6f"/>
      <use x="88.96484375" xlink:href="#DejaVuSans-63"/>
      <use x="143.9453125" xlink:href="#DejaVuSans-61"/>
      <use x="205.224609375" xlink:href="#DejaVuSans-6c"/>
      <use x="233.0078125" xlink:href="#DejaVuSans-69"/>
      <use x="260.791015625" xlink:href="#DejaVuSans-74"/>
      <use x="300.0" xlink:href="#DejaVuSans-79"/>
      <use x="359.1796875" xlink:href="#DejaVuSans-23"/>
      <use x="442.96875" xlink:href="#DejaVuSans-31"/>
     </g>
    </g>
    <g id="line2d_47">
     <path d="
M526.941 78.6245
L547.101 78.6245" style="fill:none;stroke:#ff0000;stroke-linecap:square;"/>
    </g>
    <g id="line2d_48"/>
    <g id="text_18">
     <!-- locality#10 -->
     <g transform="translate(562.94125 83.6645)scale(0.144 -0.144)">
      <use xlink:href="#DejaVuSans-6c"/>
      <use x="27.783203125" xlink:href="#DejaVuSans-6f"/>
      <use x="88.96484375" xlink:href="#DejaVuSans-63"/>
      <use x="143.9453125" xlink:href="#DejaVuSans-61"/>
      <use x="205.224609375" xlink:href="#DejaVuSans-6c"/>
      <use x="233.0078125" xlink:href="#DejaVuSans-69"/>
      <use x="260.791015625" xlink:href="#DejaVuSans-74"/>
      <use x="300.0" xlink:href="#DejaVuSans-79"/>
      <use x="359.1796875" xlink:href="#DejaVuSans-23"/>
      <use x="442.96875" xlink:href="#DejaVuSans-31"/>
      <use x="506.591796875" xlink:href="#DejaVuSans-30"/>
     </g>
    </g>
    <g id="line2d_49">
     <path d="
M526.941 99.761
L547.101 99.761" style="fill:none;stroke:#00bfbf;stroke-linecap:square;"/>
    </g>
    <g id="line2d_50"/>
    <g id="text_19">
     <!-- locality#11 -->
     <g transform="translate(562.94125 104.801)scale(0.144 -0.144)">
      <use xlink:href="#DejaVuSans-6c"/>
      <use x="27.783203125" xlink:href="#DejaVuSans-6f"/>
      <use x="88.96484375" xlink:href="#DejaVuSans-63"/>
      <use x="143.9453125" xlink:href="#DejaVuSans-61"/>
      <use x="205.224609375" xlink:href="#DejaVuSans-6c"/>
      <use x="233.0078125" xlink:href="#DejaVuSans-69"/>
      <use x="260.791015625" xlink:href="#DejaVuSans-74"/>
      <use x="300.0" xlink:href="#DejaVuSans-79"/>
      <use x="359.1796875" xlink:href="#DejaVuSans-23"/>
      <use x="442.96875" xlink:href="#DejaVuSans-31"/>
      <use x="506.591796875" xlink:href="#DejaVuSans-31"/>
     </g>
    </g>
    <g id="line2d_51">
     <path d="
M526.941 120.897
L547.101 120.897" style="fill:none;stroke:#bf00bf;stroke-linecap:square;"/>
    </g>
    <g id="line2d_52"/>
    <g id="text_20">
     <!-- locality#12 -->
     <g transform="translate(562.94125 125.9375)scale(0.144 -0.144)">
      <use xlink:href="#DejaVuSans-6c"/>
      <use x="27.783203125" xlink:href="#DejaVuSans-6f"/>
      <use x="88.96484375" xlink:href="#DejaVuSans-63"/>
      <use x="143.9453125" xlink:href="#DejaVuSans-61"/>
      <use x="205.224609375" xlink:href="#DejaVuSans-6c"/>
      <use x="233.0078125" xlink:href="#DejaVuSans-69"/>
      <use x="260.791015625" xlink:href="#DejaVuSans-74"/>
      <use x="300.0" xlink:href="#DejaVuSans-79"/>
      <use x="359.1796875" xlink:href="#DejaVuSans-23"/>
      <use x="442.96875" xlink:href="#DejaVuSans-31"/>
      <use x="506.591796875" xlink:href="#DejaVuSans-32"/>
     </g>
    </g>
    <g id="line2d_53">
     <path d="
M526.941 142.034
L547.101 142.034" style="fill:none;stroke:#bfbf00;stroke-linecap:square;"/>
    </g>
    <g id="line2d_54"/>
    <g id="text_21">
     <!-- locality#13 -->
     <g transform="translate(562.94125 147.074)scale(0.144 -0.144)">
      <use xlink:href="#DejaVuSans-6c"/>
      <use x="27.783203125" xlink:href="#DejaVuSans-6f"/>
      <use x="88.96484375" xlink:href="#DejaVuSans-63"/>
      <use x="143.9453125" xlink:href="#DejaVuSans-61"/>
      <use x="205.224609375" xlink:href="#DejaVuSans-6c"/>
      <use x="233.0078125" xlink:href="#DejaVuSans-69"/>
      <use x="260.791015625" xlink:href="#DejaVuSans-74"/>
      <use x="300.0" xlink:href="#DejaVuSans-79"/>
      <use x="359.1796875" xlink:href="#DejaVuSans-23"/>
      <use x="442.96875" xlink:href="#DejaVuSans-31"/>
      <use x="506.591796875" xlink:href="#DejaVuSans-33"/>
     </g>
    </g>
    <g id="line2d_55">
     <path d="
M526.941 163.17
L547.101 163.17" style="fill:none;stroke:#000000;stroke-linecap:square;"/>
    </g>
    <g id="line2d_56"/>
    <g id="text_22">
     <!-- locality#14 -->
     <g transform="translate(562.94125 168.2105)scale(0.144 -0.144)">
      <use xlink:href="#DejaVuSans-6c"/>
      <use x="27.783203125" xlink:href="#DejaVuSans-6f"/>
      <use x="88.96484375" xlink:href="#DejaVuSans-63"/>
      <use x="143.9453125" xlink:href="#DejaVuSans-61"/>
      <use x="205.224609375" xlink:href="#DejaVuSans-6c"/>
      <use x="233.0078125" xlink:href="#DejaVuSans-69"/>
      <use x="260.791015625" xlink:href="#DejaVuSans-74"/>
      <use x="300.0" xlink:href="#DejaVuSans-79"/>
      <use x="359.1796875" xlink:href="#DejaVuSans-23"/>
      <use x="442.96875" xlink:href="#DejaVuSans-31"/>
      <use x="506.591796875" xlink:href="#DejaVuSans-34"/>
     </g>
    </g>
    <g id="line2d_57">
     <path d="
M526.941 184.307
L547.101 184.307" style="fill:none;stroke:#0000ff;stroke-linecap:square;"/>
    </g>
    <g id="line2d_58"/>
    <g id="text_23">
     <!-- locality#15 -->
     <g transform="translate(562.94125 189.347)scale(0.144 -0.144)">
      <use xlink:href="#DejaVuSans-6c"/>
      <use x="27.783203125" xlink:href="#DejaVuSans-6f"/>
      <use x="88.96484375" xlink:href="#DejaVuSans-63"/>
      <use x="143.9453125" xlink:href="#DejaVuSans-61"/>
      <use x="205.224609375" xlink:href="#DejaVuSans-6c"/>
      <use x="233.0078125" xlink:href="#DejaVuSans-69"/>
      <use x="260.791015625" xlink:href="#DejaVuSans-74"/>
      <use x="300.0" xlink:href="#DejaVuSans-79"/>
      <use x="359.1796875" xlink:href="#DejaVuSans-23"/>
      <use x="442.96875" xlink:href="#DejaVuSans-31"/>
      <use x="506.591796875" xlink:href="#DejaVuSans-35"/>
     </g>
    </g>
    <g id="line2d_59">
     <path d="
M526.941 205.443
L547.101 205.443" style="fill:none;stroke:#008000;stroke-linecap:square;"/>
    </g>
    <g id="line2d_60"/>
    <g id="text_24">
     <!-- locality#2 -->
     <g transform="translate(562.94125 210.4835)scale(0.144 -0.144)">
      <use xlink:href="#DejaVuSans-6c"/>
      <use x="27.783203125" xlink:href="#DejaVuSans-6f"/>
      <use x="88.96484375" xlink:href="#DejaVuSans-63"/>
      <use x="143.9453125" xlink:href="#DejaVuSans-61"/>
      <use x="205.224609375" xlink:href="#DejaVuSans-6c"/>
      <use x="233.0078125" xlink:href="#DejaVuSans-69"/>
      <use x="260.791015625" xlink:href="#DejaVuSans-74"/>
      <use x="300.0" xlink:href="#DejaVuSans-79"/>
      <use x="359.1796875" xlink:href="#DejaVuSans-23"/>
      <use x="442.96875" xlink:href="#DejaVuSans-32"/>
     </g>
    </g>
    <g id="line2d_61">
     <path d="
M526.941 226.58
L547.101 226.58" style="fill:none;stroke:#ff0000;stroke-linecap:square;"/>
    </g>
    <g id="line2d_62"/>
    <g id="text_25">
     <!-- locality#3 -->
     <g transform="translate(562.94125 231.62)scale(0.144 -0.144)">
      <use xlink:href="#DejaVuSans-6c"/>
      <use x="27.783203125" xlink:href="#DejaVuSans-6f"/>
      <use x="88.96484375" xlink:href="#DejaVuSans-63"/>
      <use x="143.9453125" xlink:href="#DejaVuSans-61"/>
      <use x="205.224609375" xlink:href="#DejaVuSans-6c"/>
      <use x="233.0078125" xlink:href="#DejaVuSans-69"/>
      <use x="260.791015625" xlink:href="#DejaVuSans-74"/>
      <use x="300.0" xlink:href="#DejaVuSans-79"/>
      <use x="359.1796875" xlink:href="#DejaVuSans-23"/>
      <use x="442.96875" xlink:href="#DejaVuSans-33"/>
     </g>
    </g>
    <g id="line2d_63">
     <path d="
M526.941 247.716
L547.101 247.716" style="fill:none;stroke:#00bfbf;stroke-linecap:square;"/>
    </g>
    <g id="line2d_64"/>
    <g id="text_26">
     <!-- locality#4 -->
     <g transform="translate(562.94125 252.7565)scale(0.144 -0.144)">
      <use xlink:href="#DejaVuSans-6c"/>
      <use x="27.783203125" xlink:href="#DejaVuSans-6f"/>
      <use x="88.96484375" xlink:href="#DejaVuSans-63"/>
      <use x="143.9453125" xlink:href="#DejaVuSans-61"/>
      <use x="205.224609375" xlink:href="#DejaVuSans-6c"/>
      <use x="233.0078125" xlink:href="#DejaVuSans-69"/>
      <use x="260.791015625" xlink:href="#DejaVuSans-74"/>
      <use x="300.0" xlink:href="#DejaVuSans-79"/>
      <use x="359.1796875" xlink:href="#DejaVuSans-23"/>
      <use x="442.96875" xlink:href="#DejaVuSans-34"/>
     </g>
    </g>
    <g id="line2d_65">
     <path d="
M526.941 268.853
L547.101 268.853" style="fill:none;stroke:#bf00bf;stroke-linecap:square;"/>
    </g>
    <g id="line2d_66"/>
    <g id="text_27">
     <!-- locality#5 -->
     <g transform="translate(562.94125 273.893)scale(0.144 -0.144)">
      <use xlink:href="#DejaVuSans-6c"/>
      <use x="27.783203125" xlink:href="#DejaVuSans-6f"/>
      <use x="88.96484375" xlink:href="#DejaVuSans-63"/>
      <use x="143.9453125" xlink:href="#DejaVuSans-61"/>
      <use x="205.224609375" xlink:href="#DejaVuSans-6c"/>
      <use x="233.0078125" xlink:href="#DejaVuSans-69"/>
      <use x="260.791015625" xlink:href="#DejaVuSans-74"/>
      <use x="300.0" xlink:href="#DejaVuSans-79"/>
      <use x="359.1796875" xlink:href="#DejaVuSans-23"/>
      <use x="442.96875" xlink:href="#DejaVuSans-35"/>
     </g>
    </g>
    <g id="line2d_67">
     <path d="
M526.941 289.989
L547.101 289.989" style="fill:none;stroke:#bfbf00;stroke-linecap:square;"/>
    </g>
    <g id="line2d_68"/>
    <g id="text_28">
     <!-- locality#6 -->
     <g transform="translate(562.94125 295.0295)scale(0.144 -0.144)">
      <use xlink:href="#DejaVuSans-6c"/>
      <use x="27.783203125" xlink:href="#DejaVuSans-6f"/>
      <use x="88.96484375" xlink:href="#DejaVuSans-63"/>
      <use x="143.9453125" xlink:href="#DejaVuSans-61"/>
      <use x="205.224609375" xlink:href="#DejaVuSans-6c"/>
      <use x="233.0078125" xlink:href="#DejaVuSans-69"/>
      <use x="260.791015625" xlink:href="#DejaVuSans-74"/>
      <use x="300.0" xlink:href="#DejaVuSans-79"/>
      <use x="359.1796875" xlink:href="#DejaVuSans-23"/>
      <use x="442.96875" xlink:href="#DejaVuSans-36"/>
     </g>
    </g>
    <g id="line2d_69">
     <path d="
M526.941 311.126
L547.101 311.126" style="fill:none;stroke:#000000;stroke-linecap:square;"/>
    </g>
    <g id="line2d_70"/>
    <g id="text_29">
     <!-- locality#7 -->
     <defs>
      <path d="
M8.20312 72.9062
L55.0781 72.9062
L55.0781 68.7031
L28.6094 0
L18.3125 0
L43.2188 64.5938
L8.20312 64.5938
z
" id="DejaVuSans-37"/>
     </defs>
     <g transform="translate(562.94125 316.166)scale(0.144 -0.144)">
      <use xlink:href="#DejaVuSans-6c"/>
      <use x="27.783203125" xlink:href="#DejaVuSans-6f"/>
      <use x="88.96484375" xlink:href="#DejaVuSans-63"/>
      <use x="143.9453125" xlink:href="#DejaVuSans-61"/>
      <use x="205.224609375" xlink:href="#DejaVuSans-6c"/>
      <use x="233.0078125" xlink:href="#DejaVuSans-69"/>
      <use x="260.791015625" xlink:href="#DejaVuSans-74"/>
      <use x="300.0" xlink:href="#DejaVuSans-79"/>
      <use x="359.1796875" xlink:href="#DejaVuSans-23"/>
      <use x="442.96875" xlink:href="#DejaVuSans-37"/>
     </g>
    </g>
    <g id="line2d_71">
     <path d="
M526.941 332.262
L547.101 332.262" style="fill:none;stroke:#0000ff;stroke-linecap:square;"/>
    </g>
    <g id="line2d_72"/>
    <g id="text_30">
     <!-- locality#8 -->
     <g transform="translate(562.94125 337.3025)scale(0.144 -0.144)">
      <use xlink:href="#DejaVuSans-6c"/>
      <use x="27.783203125" xlink:href="#DejaVuSans-6f"/>
      <use x="88.96484375" xlink:href="#DejaVuSans-63"/>
      <use x="143.9453125" xlink:href="#DejaVuSans-61"/>
      <use x="205.224609375" xlink:href="#DejaVuSans-6c"/>
      <use x="233.0078125" xlink:href="#DejaVuSans-69"/>
      <use x="260.791015625" xlink:href="#DejaVuSans-74"/>
      <use x="300.0" xlink:href="#DejaVuSans-79"/>
      <use x="359.1796875" xlink:href="#DejaVuSans-23"/>
      <use x="442.96875" xlink:href="#DejaVuSans-38"/>
     </g>
    </g>
    <g id="line2d_73">
     <path d="
M526.941 353.399
L547.101 353.399" style="fill:none;stroke:#008000;stroke-linecap:square;"/>
    </g>
    <g id="line2d_74"/>
    <g id="text_31">
     <!-- locality#9 -->
     <defs>
      <path d="
M10.9844 1.51562
L10.9844 10.5
Q14.7031 8.73438 18.5 7.8125
Q22.3125 6.89062 25.9844 6.89062
Q35.75 6.89062 40.8906 13.4531
Q46.0469 20.0156 46.7812 33.4062
Q43.9531 29.2031 39.5938 26.9531
Q35.25 24.7031 29.9844 24.7031
Q19.0469 24.7031 12.6719 31.3125
Q6.29688 37.9375 6.29688 49.4219
Q6.29688 60.6406 12.9375 67.4219
Q19.5781 74.2188 30.6094 74.2188
Q43.2656 74.2188 49.9219 64.5156
Q56.5938 54.8281 56.5938 36.375
Q56.5938 19.1406 48.4062 8.85938
Q40.2344 -1.42188 26.4219 -1.42188
Q22.7031 -1.42188 18.8906 -0.6875
Q15.0938 0.046875 10.9844 1.51562
M30.6094 32.4219
Q37.25 32.4219 41.125 36.9531
Q45.0156 41.5 45.0156 49.4219
Q45.0156 57.2812 41.125 61.8438
Q37.25 66.4062 30.6094 66.4062
Q23.9688 66.4062 20.0938 61.8438
Q16.2188 57.2812 16.2188 49.4219
Q16.2188 41.5 20.0938 36.9531
Q23.9688 32.4219 30.6094 32.4219" id="DejaVuSans-39"/>
     </defs>
     <g transform="translate(562.94125 358.439)scale(0.144 -0.144)">
      <use xlink:href="#DejaVuSans-6c"/>
      <use x="27.783203125" xlink:href="#DejaVuSans-6f"/>
      <use x="88.96484375" xlink:href="#DejaVuSans-63"/>
      <use x="143.9453125" xlink:href="#DejaVuSans-61"/>
      <use x="205.224609375" xlink:href="#DejaVuSans-6c"/>
      <use x="233.0078125" xlink:href="#DejaVuSans-69"/>
      <use x="260.791015625" xlink:href="#DejaVuSans-74"/>
      <use x="300.0" xlink:href="#DejaVuSans-79"/>
      <use x="359.1796875" xlink:href="#DejaVuSans-23"/>
      <use x="442.96875" xlink:href="#DejaVuSans-39"/>
     </g>
    </g>
   </g>
  </g>
 </g>
 <defs>
  <clipPath id="p3f6fae7697">
   <rect height="345.6" width="446.4" x="63.26125" y="23.14175"/>
  </clipPath>
 </defs>
</svg>
