<?xml version="1.0" encoding="utf-8" standalone="no"?>
<!DOCTYPE svg PUBLIC "-//W3C//DTD SVG 1.1//EN"
  "http://www.w3.org/Graphics/SVG/1.1/DTD/svg11.dtd">
<!-- Created with matplotlib (http://matplotlib.org/) -->
<svg height="408pt" version="1.1" viewBox="0 0 655 408" width="655pt" xmlns="http://www.w3.org/2000/svg" xmlns:xlink="http://www.w3.org/1999/xlink">
 <defs>
  <style type="text/css">
*{stroke-linecap:butt;stroke-linejoin:round;}
  </style>
 </defs>
 <g id="figure_1">
  <g id="patch_1">
   <path d="
M0 408.169
L655.85 408.169
L655.85 0
L0 0
z
" style="fill:#ffffff;"/>
  </g>
  <g id="axes_1">
   <g id="patch_2">
    <path d="
M63.2613 368.742
L509.661 368.742
L509.661 23.1417
L63.2613 23.1417
z
" style="fill:#ffffff;"/>
   </g>
   <g id="line2d_1">
    <path clip-path="url(#p3f6fae7697)" d="
M63.2613 368.666
L66.3141 367.347
L71.4023 365.117
L74.4552 363.746
L76.1512 362.901
L77.8473 362.108
L82.9354 359.643
L92.0941 355.288
L96.1646 353.334
L98.1999 352.405
L103.627 349.719
L105.662 348.769
L109.394 346.953
L113.464 345.085
L129.068 337.63
L131.442 336.471
L137.209 333.678
L139.583 332.563
L141.279 331.731
L145.35 329.759
L148.403 328.23
L172.826 316.359
L216.923 294.356
L217.941 293.831
L220.655 292.48
L232.188 286.81
L254.576 274.979
L257.968 273.111
L259.664 272.225
L264.073 269.942
L267.805 268.099
L274.589 264.705
L275.607 264.177
L276.963 263.478
L278.32 262.825
L280.355 261.775
L282.052 260.966
L283.748 260.144
L290.193 257.082
L293.245 255.577
L297.316 253.537
L302.404 251
L309.867 247.399
L313.937 245.445
L315.972 244.471
L319.365 242.825
L321.739 241.66
L328.523 238.413
L344.466 230.679
L348.537 228.726
L351.25 227.505
L353.286 226.603
L358.035 224.501
L363.462 222.133
L365.497 221.316
L371.603 218.782
L405.185 204.76
L408.238 203.456
L449.96 186.094
L453.692 184.6
L458.101 182.86
L463.529 180.822
L467.26 179.421
L486.934 172.209
L507.965 164.845
L509.661 164.307
L509.661 164.307" style="fill:none;stroke:#0000ff;stroke-linecap:square;"/>
   </g>
   <g id="line2d_2">
    <path clip-path="url(#p3f6fae7697)" d="
M63.2613 368.739
L72.4199 365.512
L85.6491 360.464
L92.0941 358.01
L96.5038 356.292
L98.5391 355.54
L100.574 354.724
L102.61 353.961
L104.306 353.308
L107.019 352.281
L109.055 351.526
L112.107 350.338
L135.852 341.208
L137.209 340.627
L139.583 339.726
L141.958 338.791
L150.777 335.37
L154.169 334.043
L168.755 328.328
L170.452 327.681
L174.183 326.213
L179.949 323.904
L188.43 320.495
L192.161 319.014
L204.712 313.908
L208.443 312.416
L213.87 310.204
L226.082 305.267
L231.17 303.22
L233.884 302.124
L248.809 295.755
L252.879 293.867
L258.985 291.231
L261.36 290.171
L272.214 285.844
L273.91 285.122
L277.642 283.675
L280.695 282.451
L284.087 281.109
L292.567 277.789
L293.924 277.231
L301.726 274.088
L304.439 273.024
L349.554 255.671
L368.889 249.015
L382.797 244.496
L408.916 235.828
L415.361 233.681
L418.075 232.791
L434.357 227.459
L442.837 224.695
L452.674 221.523
L459.458 219.486
L466.921 217.347
L502.199 207.427
L507.965 206.005
L509.661 205.597
L509.661 205.597" style="fill:none;stroke:#008000;stroke-linecap:square;"/>
   </g>
   <g id="line2d_3">
    <path clip-path="url(#p3f6fae7697)" d="
M63.2613 368.739
L68.3494 365.223
L69.7062 364.239
L71.7415 362.881
L75.1336 360.438
L77.8473 358.446
L79.5433 357.138
L80.5609 356.382
L85.6491 352.58
L87.0059 351.61
L91.4157 348.408
L92.4333 347.631
L101.592 340.946
L105.323 338.143
L106.68 337.163
L108.037 336.162
L109.394 335.175
L117.874 329.062
L119.231 328.093
L121.266 326.601
L124.319 324.33
L127.372 322.017
L130.425 319.747
L166.72 292.725
L174.522 286.798
L178.932 283.427
L183.681 279.871
L189.786 275.243
L190.804 274.48
L194.196 271.854
L195.892 270.566
L198.945 268.18
L220.315 251.883
L225.743 247.813
L229.135 245.283
L246.435 231.421
L247.452 230.489
L249.487 228.73
L253.219 225.572
L258.985 220.782
L260.003 219.835
L262.717 217.683
L264.413 216.349
L266.109 215.037
L268.483 213.271
L270.858 211.423
L274.25 208.832
L288.836 197.849
L291.21 196.062
L300.03 189.252
L301.047 188.401
L303.083 186.853
L306.814 183.969
L309.188 182.163
L351.59 150.868
L352.268 150.414
L353.964 149.271
L357.356 147.017
L359.391 145.622
L365.497 141.688
L372.621 137.215
L398.4 120.684
L405.185 116.348
L410.951 112.597
L413.326 111.004
L429.947 100.248
L431.304 99.4295
L432.661 98.5259
L434.017 97.6838
L437.749 95.2942
L438.766 94.6076
L460.476 81.4648
L463.868 79.5705
L466.582 78.0837
L470.991 75.643
L494.058 62.918
L495.414 62.2203
L499.485 60.0322
L502.538 58.4064
L504.234 57.5981
L509.661 55.0333
L509.661 55.0333" style="fill:none;stroke:#ff0000;stroke-linecap:square;"/>
   </g>
   <g id="line2d_4">
    <path clip-path="url(#p3f6fae7697)" d="
M63.2613 368.739
L71.0631 363.564
L74.4552 361.282
L75.4728 360.523
L77.1688 359.326
L80.5609 356.891
L84.9707 353.691
L87.3451 351.985
L88.702 351.04
L91.7549 348.852
L93.1117 347.918
L100.574 342.569
L101.592 341.869
L111.09 335.136
L149.76 307.752
L150.777 306.98
L152.134 306.028
L154.509 304.285
L163.667 297.824
L164.346 297.304
L168.416 294.388
L171.469 292.146
L174.183 290.184
L176.557 288.439
L178.253 287.251
L184.698 282.574
L186.734 281.085
L189.786 278.826
L190.804 278.105
L197.928 272.888
L199.284 271.875
L201.659 270.169
L205.39 267.396
L210.817 263.448
L212.514 262.186
L214.888 260.372
L226.76 251.794
L229.474 249.767
L236.937 244.125
L237.954 243.319
L241.686 240.391
L243.382 239.143
L244.738 238.013
L246.435 236.705
L247.452 235.819
L258.307 227.058
L259.664 225.905
L262.038 224.029
L280.355 210.291
L282.052 209.097
L283.069 208.376
L289.514 203.809
L296.298 198.84
L297.994 197.548
L299.012 196.802
L300.03 196.042
L301.386 194.945
L303.083 193.761
L333.272 172.397
L335.307 170.908
L339.717 167.727
L342.77 165.568
L346.501 162.859
L349.893 160.536
L354.982 157.228
L356.338 156.344
L358.713 154.755
L369.568 148.098
L374.656 145.034
L376.013 144.176
L381.44 140.967
L382.458 140.348
L398.74 130.346
L404.167 126.979
L407.559 124.884
L420.11 117.021
L425.537 113.69
L438.088 105.95
L439.106 105.325
L440.802 104.287
L455.388 95.7834
L460.137 93.1964
L462.511 91.9353
L466.921 89.591
L472.009 86.9153
L480.489 82.4901
L498.128 73.3597
L499.485 72.6889
L501.859 71.4601
L506.269 69.4836
L509.661 67.9665
L509.661 67.9665" style="fill:none;stroke:#00bfbf;stroke-linecap:square;"/>
   </g>
   <g id="line2d_5">
    <path clip-path="url(#p3f6fae7697)" d="
M63.2613 368.739
L65.2965 367.466
L67.671 365.999
L69.367 364.987
L70.0454 364.543
L72.0807 363.304
L74.116 362.028
L79.8825 358.188
L81.2394 357.25
L82.5962 356.371
L85.6491 354.346
L86.6667 353.663
L89.0412 352.094
L90.0588 351.422
L100.574 344.489
L102.61 343.171
L103.627 342.465
L108.037 339.52
L109.394 338.653
L111.429 337.319
L118.552 332.713
L119.909 331.837
L120.927 331.149
L122.623 330.089
L124.658 328.675
L125.676 328.005
L138.227 319.759
L140.601 318.209
L142.976 316.627
L148.064 313.203
L152.813 310.024
L153.83 309.286
L165.703 301.302
L166.72 300.636
L170.452 298.196
L185.377 288.069
L186.734 287.115
L189.786 285.014
L190.465 284.557
L203.016 275.995
L204.712 274.817
L208.104 272.554
L209.461 271.607
L211.496 270.202
L215.227 267.624
L216.923 266.468
L218.959 265.101
L220.315 264.138
L226.421 260.009
L230.492 257.23
L231.509 256.517
L238.972 251.258
L249.487 243.456
L251.523 241.897
L261.36 234.463
L285.783 217.714
L288.157 216.175
L290.532 214.543
L292.567 213.16
L293.924 212.237
L296.298 210.666
L303.761 205.453
L306.135 203.861
L307.153 203.122
L312.241 199.802
L316.312 197.167
L318.347 195.807
L323.774 192.195
L324.792 191.542
L331.237 187.188
L334.29 185.171
L335.986 184.012
L351.929 173.675
L358.374 169.788
L368.211 164.059
L397.722 147.375
L400.097 145.993
L407.898 141.54
L412.986 138.66
L415.7 137.041
L416.718 136.452
L421.467 133.755
L423.502 132.608
L427.912 130.105
L429.608 129.109
L435.374 125.882
L438.427 124.075
L440.123 123.172
L442.837 121.691
L458.101 113.465
L462.172 111.472
L465.564 109.772
L475.74 104.861
L477.436 104.014
L485.917 99.9003
L503.216 91.7134
L507.287 89.9865
L509.661 89.0315
L509.661 89.0315" style="fill:none;stroke:#bf00bf;stroke-linecap:square;"/>
   </g>
   <g id="line2d_6">
    <path clip-path="url(#p3f6fae7697)" d="
M63.2613 368.739
L67.3318 366.52
L70.0454 365.023
L73.4375 363.144
L88.3628 354.167
L90.398 352.989
L92.4333 351.754
L95.147 350.115
L96.843 349.146
L101.592 346.339
L109.055 341.885
L130.425 329.154
L132.799 327.754
L139.583 323.797
L140.601 323.181
L173.844 302.873
L175.54 301.807
L196.571 288.79
L197.588 288.129
L200.98 286.026
L213.87 278.08
L216.584 276.332
L219.637 274.468
L234.901 265.009
L237.954 263.025
L242.703 259.965
L243.721 259.274
L248.809 255.85
L254.576 251.896
L255.593 251.204
L262.717 246.349
L264.413 245.287
L265.769 244.381
L271.536 240.829
L273.232 239.735
L274.589 238.885
L276.624 237.664
L283.069 233.706
L292.567 227.957
L295.959 225.914
L313.937 214.821
L315.972 213.652
L322.078 209.958
L351.59 192.331
L352.946 191.643
L354.642 190.66
L356.338 189.762
L359.052 188.302
L364.14 185.584
L367.532 183.875
L404.506 165.159
L408.577 163.049
L410.612 161.977
L441.819 145.921
L444.533 144.611
L454.709 139.665
L476.758 129.824
L504.573 117.914
L507.965 116.606
L509.661 115.989
L509.661 115.989" style="fill:none;stroke:#bfbf00;stroke-linecap:square;"/>
   </g>
   <g id="line2d_7">
    <path clip-path="url(#p3f6fae7697)" d="
M63.2613 368.739
L74.4552 363.212
L79.5433 360.457
L80.5609 359.916
L89.0412 355.37
L90.0588 354.842
L97.5214 350.871
L104.306 347.232
L106.002 346.306
L107.359 345.599
L110.072 344.129
L112.107 343.097
L114.143 342.049
L115.839 341.136
L126.693 335.326
L128.05 334.649
L130.425 333.319
L136.87 329.864
L139.923 328.219
L141.619 327.298
L149.081 323.221
L153.491 320.838
L154.848 320.092
L156.544 319.235
L163.667 315.412
L165.363 314.483
L169.095 312.469
L172.148 310.752
L192.839 299.374
L196.91 297.044
L237.954 274.349
L239.99 273.117
L242.025 271.991
L246.435 269.433
L248.809 267.986
L256.611 263.185
L259.664 261.298
L266.448 257.43
L268.822 256.176
L269.84 255.601
L277.642 251.261
L278.999 250.477
L281.034 249.393
L286.122 246.697
L291.549 243.774
L295.959 241.279
L297.316 240.514
L299.351 239.391
L301.386 238.236
L303.422 237.144
L308.171 234.56
L309.528 233.824
L316.312 230.223
L323.774 226.22
L325.131 225.505
L328.523 223.708
L341.752 216.638
L350.233 212.176
L351.25 211.636
L352.607 210.945
L354.303 210.151
L355.321 209.648
L356.678 208.938
L359.052 207.791
L360.748 206.956
L370.585 202.471
L372.96 201.383
L382.797 196.964
L385.51 195.765
L390.259 193.571
L395.348 191.238
L401.114 188.621
L403.489 187.564
L407.559 185.682
L414.004 182.662
L419.431 180.201
L421.128 179.386
L426.555 176.882
L432.661 174.128
L434.357 173.359
L441.819 169.961
L443.855 169.091
L455.048 164.193
L459.119 162.508
L467.599 159.146
L478.115 155.083
L482.524 153.347
L493.379 149.172
L505.93 144.586
L509.661 143.371
L509.661 143.371" style="fill:none;stroke:#000000;stroke-linecap:square;"/>
   </g>
   <g id="line2d_8">
    <path clip-path="url(#p3f6fae7697)" d="
M63.2613 368.739
L67.3318 366.989
L75.812 363.22
L76.4904 362.88
L82.9354 359.876
L89.0412 356.964
L90.0588 356.492
L96.1646 353.61
L98.5391 352.543
L100.574 351.537
L126.354 339.533
L129.407 338.083
L131.103 337.317
L135.174 335.473
L137.209 334.445
L138.566 333.827
L140.94 332.665
L145.35 330.577
L149.421 328.638
L167.738 320.077
L170.452 318.76
L174.183 316.977
L177.236 315.564
L179.949 314.236
L188.09 310.252
L206.069 301.552
L209.121 300.104
L226.421 291.693
L229.135 290.39
L235.919 287.088
L236.597 286.712
L240.668 284.585
L252.201 278.494
L253.558 277.741
L256.272 276.293
L257.968 275.346
L263.395 272.522
L280.355 264.181
L282.052 263.41
L284.087 262.447
L289.175 260.078
L301.047 254.314
L302.743 253.497
L306.135 251.906
L307.492 251.217
L313.937 248.222
L315.972 247.299
L320.043 245.426
L331.915 239.88
L333.272 239.239
L346.841 232.879
L358.035 227.995
L361.766 226.454
L377.03 220.383
L397.044 212.448
L444.533 193.534
L457.762 188.455
L504.234 172.836
L508.983 171.447
L509.661 171.252
L509.661 171.252" style="fill:none;stroke:#0000ff;stroke-linecap:square;"/>
   </g>
   <g id="line2d_9">
    <path clip-path="url(#p3f6fae7697)" d="
M63.2613 368.739
L77.5081 363.661
L81.9178 362.019
L85.9883 360.489
L136.87 341.17
L138.227 340.634
L157.222 333.348
L201.998 315.757
L206.747 313.906
L214.21 310.888
L216.245 310.031
L223.368 307.202
L233.205 303.301
L236.937 301.795
L237.954 301.341
L244.399 298.687
L248.131 297.084
L249.487 296.48
L253.219 294.794
L265.091 289.678
L328.862 264.953
L335.307 262.514
L353.625 255.608
L357.356 254.324
L359.731 253.5
L366.515 251.217
L382.797 245.963
L388.563 244.08
L390.599 243.424
L395.348 241.844
L403.828 239.072
L405.524 238.477
L414.683 235.458
L429.947 230.455
L431.982 229.778
L442.498 226.367
L444.872 225.614
L449.96 223.97
L453.352 222.94
L496.093 210.763
L505.591 208.286
L509.661 207.315
L509.661 207.315" style="fill:none;stroke:#008000;stroke-linecap:square;"/>
   </g>
   <g id="line2d_10">
    <path clip-path="url(#p3f6fae7697)" d="
M63.2613 368.739
L68.6886 366.664
L88.0236 358.911
L94.4685 356.237
L99.5567 354.176
L101.931 353.217
L103.627 352.526
L107.698 350.873
L110.072 349.881
L113.125 348.67
L117.196 347.02
L120.927 345.535
L124.319 344.132
L127.711 342.746
L130.086 341.782
L133.478 340.327
L135.852 339.347
L140.94 337.239
L143.993 336.007
L147.385 334.58
L153.83 331.932
L157.562 330.314
L159.258 329.621
L166.381 326.68
L168.755 325.689
L170.452 324.993
L182.663 319.758
L184.359 319.079
L193.857 314.972
L197.249 313.529
L228.117 300.366
L230.492 299.33
L233.205 298.131
L236.597 296.673
L247.791 291.643
L254.915 288.281
L256.611 287.49
L258.307 286.686
L260.003 285.88
L263.395 284.332
L269.162 281.854
L272.214 280.563
L275.946 278.945
L287.479 274.177
L289.853 273.186
L295.62 270.782
L296.977 270.204
L301.386 268.349
L302.743 267.795
L308.51 265.332
L310.884 264.353
L319.704 260.777
L322.417 259.66
L325.47 258.397
L333.951 254.959
L339.378 252.721
L342.092 251.609
L360.07 244.598
L371.603 240.469
L378.387 238.031
L382.458 236.609
L392.973 232.876
L396.026 231.769
L405.185 228.469
L429.947 219.691
L433 218.611
L460.476 209.242
L468.617 206.74
L471.331 205.908
L478.454 203.712
L487.952 200.784
L489.987 200.191
L503.555 196.204
L509.661 194.612
L509.661 194.612" style="fill:none;stroke:#ff0000;stroke-linecap:square;"/>
   </g>
   <g id="line2d_11">
    <path clip-path="url(#p3f6fae7697)" d="
M63.2613 368.739
L80.9002 360.946
L82.5962 360.158
L96.5038 353.699
L98.5391 352.795
L111.09 346.968
L113.125 346.044
L126.693 339.816
L128.729 338.909
L132.121 337.307
L136.531 335.259
L138.566 334.282
L142.636 332.381
L145.35 331.111
L181.645 314.082
L183.341 313.285
L186.734 311.664
L189.786 310.216
L191.483 309.416
L222.351 294.715
L225.064 293.416
L226.76 292.609
L240.329 285.976
L242.025 285.1
L244.06 284.109
L248.47 281.79
L251.183 280.343
L252.54 279.59
L254.915 278.311
L255.932 277.757
L266.787 272.272
L273.232 269.25
L283.408 264.423
L289.853 261.443
L311.224 251.332
L312.92 250.568
L314.955 249.643
L316.99 248.72
L333.272 241.246
L344.466 236.059
L350.911 233.101
L359.731 229.335
L364.14 227.543
L366.515 226.575
L370.924 224.827
L374.656 223.346
L378.048 221.947
L404.167 211.48
L423.163 203.807
L431.643 200.435
L449.96 193.275
L451.656 192.613
L459.458 189.713
L466.582 187.242
L473.027 184.977
L480.15 182.511
L482.524 181.68
L494.058 177.751
L495.754 177.19
L501.859 175.14
L507.287 173.532
L509.322 172.929
L509.661 172.836
L509.661 172.836" style="fill:none;stroke:#00bfbf;stroke-linecap:square;"/>
   </g>
   <g id="line2d_12">
    <path clip-path="url(#p3f6fae7697)" d="
M63.2613 368.739
L74.116 363.444
L89.0412 355.59
L90.398 354.892
L96.5038 351.647
L97.8606 350.947
L103.288 348.096
L104.645 347.354
L119.231 339.886
L121.266 338.81
L186.734 304.134
L192.161 301.204
L201.998 295.871
L210.478 291.289
L213.531 289.634
L219.298 286.542
L222.011 285.052
L225.403 283.164
L230.152 280.664
L235.919 277.442
L237.276 276.619
L241.007 274.492
L242.364 273.737
L255.593 265.802
L256.95 264.978
L258.985 263.798
L261.36 262.393
L265.091 260.327
L269.162 258.151
L272.214 256.508
L316.99 232.699
L322.078 230.054
L323.774 229.112
L325.81 228.057
L330.219 225.761
L336.664 222.399
L344.466 218.274
L349.554 215.583
L373.299 204.55
L378.387 202.213
L381.44 200.889
L385.171 199.251
L388.903 197.532
L394.33 195.043
L402.471 191.271
L404.167 190.505
L440.462 173.9
L457.084 166.731
L469.974 161.597
L477.436 158.665
L487.952 154.571
L489.648 153.95
L494.397 152.133
L505.591 148.045
L509.661 146.722
L509.661 146.722" style="fill:none;stroke:#bf00bf;stroke-linecap:square;"/>
   </g>
   <g id="line2d_13">
    <path clip-path="url(#p3f6fae7697)" d="
M63.2613 368.739
L70.7239 364.593
L72.7591 363.466
L77.5081 360.736
L79.5433 359.485
L80.9002 358.695
L87.0059 355.099
L91.4157 352.534
L92.7725 351.677
L94.1293 350.883
L99.5567 347.683
L111.09 340.855
L112.786 339.91
L114.821 338.699
L118.552 336.49
L119.57 335.884
L126.354 331.853
L128.39 330.648
L130.425 329.445
L137.209 325.414
L139.583 324.066
L143.315 321.858
L144.332 321.25
L147.385 319.438
L151.456 317.053
L153.152 316.1
L167.059 307.804
L168.077 307.207
L177.914 301.257
L184.359 297.432
L208.104 282.934
L210.817 281.273
L216.923 277.524
L219.298 276.057
L233.884 267.13
L235.241 266.256
L241.686 262.027
L243.382 260.976
L246.774 258.704
L251.862 255.347
L266.109 245.917
L269.84 243.679
L276.285 239.727
L277.642 238.972
L280.355 237.291
L282.052 236.279
L283.069 235.679
L290.193 231.41
L292.228 230.152
L300.03 225.476
L301.386 224.595
L303.422 223.369
L309.188 219.887
L317.329 215.143
L320.382 213.331
L324.792 210.727
L327.166 209.292
L343.448 199.647
L348.876 196.371
L355.999 192.462
L358.374 191.174
L362.105 189.254
L368.211 186.097
L370.246 185.079
L373.977 183.133
L378.387 180.843
L381.44 179.347
L382.797 178.659
L397.722 171.056
L405.863 166.795
L410.951 164.181
L414.343 162.436
L426.216 156.348
L437.41 150.61
L441.819 148.319
L443.855 147.342
L446.229 146.162
L454.37 142.22
L457.084 140.957
L469.974 135.234
L474.723 133.11
L479.811 130.882
L485.577 128.33
L487.613 127.417
L500.503 121.87
L502.199 121.173
L507.965 119
L509.661 118.387
L509.661 118.387" style="fill:none;stroke:#bfbf00;stroke-linecap:square;"/>
   </g>
   <g id="line2d_14">
    <path clip-path="url(#p3f6fae7697)" d="
M63.2613 368.739
L79.2041 358.641
L80.9002 357.519
L83.953 355.46
L91.4157 350.66
L92.7725 349.701
L93.7901 349.049
L110.072 338.352
L112.786 336.664
L118.552 332.894
L119.57 332.228
L124.319 329.121
L128.39 326.439
L130.425 325.088
L138.227 319.976
L140.262 318.7
L142.636 317.065
L143.993 316.204
L148.064 313.519
L150.099 312.121
L151.795 311.1
L160.614 305.269
L165.024 302.388
L174.522 295.998
L175.879 295.087
L182.663 290.514
L184.359 289.431
L201.998 277.561
L204.033 276.152
L207.086 274.135
L208.443 273.185
L212.514 270.396
L214.888 268.786
L222.011 263.973
L223.368 263.028
L228.456 259.578
L230.492 258.218
L231.848 257.239
L239.65 251.77
L254.576 240.584
L255.593 239.775
L259.664 236.711
L269.501 229.84
L271.875 228.185
L283.069 220.677
L288.836 216.871
L295.281 212.529
L296.638 211.69
L311.563 201.8
L317.329 198.081
L323.774 193.873
L325.131 192.981
L328.184 190.962
L331.576 188.719
L350.572 176.253
L352.268 175.197
L354.642 173.767
L355.999 172.995
L363.123 168.835
L363.801 168.379
L371.942 163.822
L378.726 159.937
L380.422 159.044
L387.546 155.035
L411.29 141.448
L416.718 138.318
L420.11 136.34
L426.216 132.858
L437.41 126.528
L441.819 124.031
L443.515 123.15
L445.211 122.2
L446.907 121.301
L448.603 120.353
L451.317 118.928
L453.013 117.974
L455.048 116.903
L458.78 115
L465.225 111.849
L494.058 97.7883
L495.754 97.0095
L502.199 93.9782
L509.322 90.9815
L509.661 90.8494
L509.661 90.8494" style="fill:none;stroke:#000000;stroke-linecap:square;"/>
   </g>
   <g id="line2d_15">
    <path clip-path="url(#p3f6fae7697)" d="
M63.2613 368.739
L72.4199 362.667
L75.1336 360.744
L80.9002 356.652
L82.5962 355.434
L84.6315 354.001
L85.9883 352.977
L87.6844 351.819
L90.0588 350.138
L92.4333 348.418
L95.147 346.495
L96.843 345.342
L97.8606 344.613
L108.376 337.165
L109.055 336.64
L116.517 331.486
L117.874 330.567
L123.301 326.773
L124.997 325.549
L130.764 321.426
L132.799 320.003
L138.227 316.121
L139.923 314.995
L141.619 313.773
L147.724 309.389
L157.222 302.612
L158.24 301.836
L167.738 295.047
L189.786 279.049
L190.804 278.336
L192.5 277.046
L201.32 270.687
L203.694 268.959
L206.408 266.976
L215.227 260.544
L216.923 259.29
L221.333 256.02
L224.047 254.079
L236.937 244.536
L238.633 243.233
L252.879 231.901
L255.932 229.391
L264.073 222.968
L273.232 216.202
L274.589 215.231
L276.285 214.028
L277.303 213.323
L286.122 206.873
L289.514 204.496
L290.871 203.504
L307.153 191.596
L310.545 189.118
L312.241 187.961
L315.972 185.318
L320.382 182.214
L323.435 180.024
L332.255 173.809
L338.7 169.245
L342.431 166.597
L354.642 158.164
L355.66 157.528
L358.035 156.013
L359.391 155.138
L366.854 150.507
L372.281 147.177
L379.066 143.053
L387.885 137.694
L389.242 136.866
L398.061 131.404
L401.114 129.492
L404.506 127.465
L409.594 124.352
L411.969 122.893
L418.753 118.709
L427.912 113.042
L429.608 112.014
L436.731 107.694
L438.427 106.567
L439.784 105.78
L458.101 95.1729
L463.529 92.2905
L465.564 91.2104
L473.366 87.1534
L474.383 86.5908
L480.15 83.5833
L482.524 82.3265
L500.163 73.2852
L503.216 71.7765
L506.948 70.1103
L508.304 69.5025
L509.661 68.9057
L509.661 68.9057" style="fill:none;stroke:#0000ff;stroke-linecap:square;"/>
   </g>
   <g id="line2d_16">
    <path clip-path="url(#p3f6fae7697)" d="
M63.2613 368.739
L74.116 361.243
L78.5257 357.941
L82.5962 354.875
L85.6491 352.588
L87.3451 351.324
L89.3804 349.892
L91.0764 348.66
L94.1293 346.402
L96.5038 344.619
L98.1999 343.413
L101.253 341.198
L131.782 318.778
L133.478 317.482
L134.835 316.528
L138.227 313.967
L139.583 313.01
L147.724 306.991
L152.473 303.428
L153.491 302.684
L156.544 300.411
L163.328 295.368
L185.038 279.015
L187.412 277.226
L189.108 275.918
L197.249 269.841
L201.32 266.842
L206.408 262.924
L217.941 254.158
L220.315 252.372
L222.351 250.838
L224.725 249.06
L227.1 247.274
L231.17 244.232
L247.113 231.499
L249.827 229.192
L251.183 228.063
L253.219 226.315
L255.593 224.308
L256.95 223.145
L258.985 221.46
L260.681 219.985
L263.056 218.167
L264.413 217.071
L265.769 215.932
L287.14 199.826
L289.853 197.783
L294.941 193.96
L295.959 193.159
L297.316 192.112
L299.351 190.574
L301.386 188.953
L302.743 187.923
L317.669 176.741
L322.078 173.541
L324.792 171.585
L345.145 156.629
L347.519 154.862
L348.537 154.124
L364.479 143.429
L370.585 139.587
L374.317 137.214
L375.334 136.561
L380.422 133.368
L382.118 132.303
L392.973 125.297
L399.079 121.386
L407.898 115.721
L410.951 113.73
L413.326 112.153
L423.841 105.48
L425.537 104.359
L430.286 101.353
L431.982 100.23
L436.392 97.4396
L437.749 96.5457
L438.766 95.9151
L449.96 89.1256
L452.674 87.451
L456.066 85.4492
L469.295 78.0964
L478.454 73.122
L497.789 62.6315
L504.234 59.3272
L509.661 56.8308
L509.661 56.8308" style="fill:none;stroke:#008000;stroke-linecap:square;"/>
   </g>
   <g id="patch_3">
    <path d="
M63.2613 368.742
L63.2613 23.1417" style="fill:none;stroke:#000000;stroke-linecap:square;stroke-linejoin:miter;"/>
   </g>
   <g id="patch_4">
    <path d="
M509.661 368.742
L509.661 23.1417" style="fill:none;stroke:#000000;stroke-linecap:square;stroke-linejoin:miter;"/>
   </g>
   <g id="patch_5">
    <path d="
M63.2613 23.1417
L509.661 23.1417" style="fill:none;stroke:#000000;stroke-linecap:square;stroke-linejoin:miter;"/>
   </g>
   <g id="patch_6">
    <path d="
M63.2613 368.742
L509.661 368.742" style="fill:none;stroke:#000000;stroke-linecap:square;stroke-linejoin:miter;"/>
   </g>
   <g id="matplotlib.axis_1">
    <g id="xtick_1">
     <g id="line2d_17">
      <defs>
       <path d="
M0 0
L0 -4" id="mc7db9fdffb" style="stroke:#000000;stroke-width:0.5;"/>
      </defs>
      <g>
       <use style="stroke:#000000;stroke-width:0.5;" x="63.26125" xlink:href="#mc7db9fdffb" y="368.74175"/>
      </g>
     </g>
     <g id="line2d_18">
      <defs>
       <path d="
M0 0
L0 4" id="m5a7d422ac3" style="stroke:#000000;stroke-width:0.5;"/>
      </defs>
      <g>
       <use style="stroke:#000000;stroke-width:0.5;" x="63.26125" xlink:href="#m5a7d422ac3" y="23.14175"/>
      </g>
     </g>
     <g id="text_1">
      <!-- 0 -->
      <defs>
       <path d="
M31.7812 66.4062
Q24.1719 66.4062 20.3281 58.9062
Q16.5 51.4219 16.5 36.375
Q16.5 21.3906 20.3281 13.8906
Q24.1719 6.39062 31.7812 6.39062
Q39.4531 6.39062 43.2812 13.8906
Q47.125 21.3906 47.125 36.375
Q47.125 51.4219 43.2812 58.9062
Q39.4531 66.4062 31.7812 66.4062
M31.7812 74.2188
Q44.0469 74.2188 50.5156 64.5156
Q56.9844 54.8281 56.9844 36.375
Q56.9844 17.9688 50.5156 8.26562
Q44.0469 -1.42188 31.7812 -1.42188
Q19.5312 -1.42188 13.0625 8.26562
Q6.59375 17.9688 6.59375 36.375
Q6.59375 54.8281 13.0625 64.5156
Q19.5312 74.2188 31.7812 74.2188" id="DejaVuSans-30"/>
      </defs>
      <g transform="translate(60.2378125 381.859875)scale(0.12 -0.12)">
       <use xlink:href="#DejaVuSans-30"/>
      </g>
     </g>
    </g>
    <g id="xtick_2">
     <g id="line2d_19">
      <g>
       <use style="stroke:#000000;stroke-width:0.5;" x="131.103195289" xlink:href="#mc7db9fdffb" y="368.74175"/>
      </g>
     </g>
     <g id="line2d_20">
      <g>
       <use style="stroke:#000000;stroke-width:0.5;" x="131.103195289" xlink:href="#m5a7d422ac3" y="23.14175"/>
      </g>
     </g>
     <g id="text_2">
      <!-- 200 -->
      <defs>
       <path d="
M19.1875 8.29688
L53.6094 8.29688
L53.6094 0
L7.32812 0
L7.32812 8.29688
Q12.9375 14.1094 22.625 23.8906
Q32.3281 33.6875 34.8125 36.5312
Q39.5469 41.8438 41.4219 45.5312
Q43.3125 49.2188 43.3125 52.7812
Q43.3125 58.5938 39.2344 62.25
Q35.1562 65.9219 28.6094 65.9219
Q23.9688 65.9219 18.8125 64.3125
Q13.6719 62.7031 7.8125 59.4219
L7.8125 69.3906
Q13.7656 71.7812 18.9375 73
Q24.125 74.2188 28.4219 74.2188
Q39.75 74.2188 46.4844 68.5469
Q53.2188 62.8906 53.2188 53.4219
Q53.2188 48.9219 51.5312 44.8906
Q49.8594 40.875 45.4062 35.4062
Q44.1875 33.9844 37.6406 27.2188
Q31.1094 20.4531 19.1875 8.29688" id="DejaVuSans-32"/>
      </defs>
      <g transform="translate(120.488820289 381.859875)scale(0.12 -0.12)">
       <use xlink:href="#DejaVuSans-32"/>
       <use x="63.623046875" xlink:href="#DejaVuSans-30"/>
       <use x="127.24609375" xlink:href="#DejaVuSans-30"/>
      </g>
     </g>
    </g>
    <g id="xtick_3">
     <g id="line2d_21">
      <g>
       <use style="stroke:#000000;stroke-width:0.5;" x="198.945140578" xlink:href="#mc7db9fdffb" y="368.74175"/>
      </g>
     </g>
     <g id="line2d_22">
      <g>
       <use style="stroke:#000000;stroke-width:0.5;" x="198.945140578" xlink:href="#m5a7d422ac3" y="23.14175"/>
      </g>
     </g>
     <g id="text_3">
      <!-- 400 -->
      <defs>
       <path d="
M37.7969 64.3125
L12.8906 25.3906
L37.7969 25.3906
z

M35.2031 72.9062
L47.6094 72.9062
L47.6094 25.3906
L58.0156 25.3906
L58.0156 17.1875
L47.6094 17.1875
L47.6094 0
L37.7969 0
L37.7969 17.1875
L4.89062 17.1875
L4.89062 26.7031
z
" id="DejaVuSans-34"/>
      </defs>
      <g transform="translate(188.184515578 381.859875)scale(0.12 -0.12)">
       <use xlink:href="#DejaVuSans-34"/>
       <use x="63.623046875" xlink:href="#DejaVuSans-30"/>
       <use x="127.24609375" xlink:href="#DejaVuSans-30"/>
      </g>
     </g>
    </g>
    <g id="xtick_4">
     <g id="line2d_23">
      <g>
       <use style="stroke:#000000;stroke-width:0.5;" x="266.787085866" xlink:href="#mc7db9fdffb" y="368.74175"/>
      </g>
     </g>
     <g id="line2d_24">
      <g>
       <use style="stroke:#000000;stroke-width:0.5;" x="266.787085866" xlink:href="#m5a7d422ac3" y="23.14175"/>
      </g>
     </g>
     <g id="text_4">
      <!-- 600 -->
      <defs>
       <path d="
M33.0156 40.375
Q26.375 40.375 22.4844 35.8281
Q18.6094 31.2969 18.6094 23.3906
Q18.6094 15.5312 22.4844 10.9531
Q26.375 6.39062 33.0156 6.39062
Q39.6562 6.39062 43.5312 10.9531
Q47.4062 15.5312 47.4062 23.3906
Q47.4062 31.2969 43.5312 35.8281
Q39.6562 40.375 33.0156 40.375
M52.5938 71.2969
L52.5938 62.3125
Q48.875 64.0625 45.0938 64.9844
Q41.3125 65.9219 37.5938 65.9219
Q27.8281 65.9219 22.6719 59.3281
Q17.5312 52.7344 16.7969 39.4062
Q19.6719 43.6562 24.0156 45.9219
Q28.375 48.1875 33.5938 48.1875
Q44.5781 48.1875 50.9531 41.5156
Q57.3281 34.8594 57.3281 23.3906
Q57.3281 12.1562 50.6875 5.35938
Q44.0469 -1.42188 33.0156 -1.42188
Q20.3594 -1.42188 13.6719 8.26562
Q6.98438 17.9688 6.98438 36.375
Q6.98438 53.6562 15.1875 63.9375
Q23.3906 74.2188 37.2031 74.2188
Q40.9219 74.2188 44.7031 73.4844
Q48.4844 72.75 52.5938 71.2969" id="DejaVuSans-36"/>
      </defs>
      <g transform="translate(256.152085866 381.859875)scale(0.12 -0.12)">
       <use xlink:href="#DejaVuSans-36"/>
       <use x="63.623046875" xlink:href="#DejaVuSans-30"/>
       <use x="127.24609375" xlink:href="#DejaVuSans-30"/>
      </g>
     </g>
    </g>
    <g id="xtick_5">
     <g id="line2d_25">
      <g>
       <use style="stroke:#000000;stroke-width:0.5;" x="334.629031155" xlink:href="#mc7db9fdffb" y="368.74175"/>
      </g>
     </g>
     <g id="line2d_26">
      <g>
       <use style="stroke:#000000;stroke-width:0.5;" x="334.629031155" xlink:href="#m5a7d422ac3" y="23.14175"/>
      </g>
     </g>
     <g id="text_5">
      <!-- 800 -->
      <defs>
       <path d="
M31.7812 34.625
Q24.75 34.625 20.7188 30.8594
Q16.7031 27.0938 16.7031 20.5156
Q16.7031 13.9219 20.7188 10.1562
Q24.75 6.39062 31.7812 6.39062
Q38.8125 6.39062 42.8594 10.1719
Q46.9219 13.9688 46.9219 20.5156
Q46.9219 27.0938 42.8906 30.8594
Q38.875 34.625 31.7812 34.625
M21.9219 38.8125
Q15.5781 40.375 12.0312 44.7188
Q8.5 49.0781 8.5 55.3281
Q8.5 64.0625 14.7188 69.1406
Q20.9531 74.2188 31.7812 74.2188
Q42.6719 74.2188 48.875 69.1406
Q55.0781 64.0625 55.0781 55.3281
Q55.0781 49.0781 51.5312 44.7188
Q48 40.375 41.7031 38.8125
Q48.8281 37.1562 52.7969 32.3125
Q56.7812 27.4844 56.7812 20.5156
Q56.7812 9.90625 50.3125 4.23438
Q43.8438 -1.42188 31.7812 -1.42188
Q19.7344 -1.42188 13.25 4.23438
Q6.78125 9.90625 6.78125 20.5156
Q6.78125 27.4844 10.7812 32.3125
Q14.7969 37.1562 21.9219 38.8125
M18.3125 54.3906
Q18.3125 48.7344 21.8438 45.5625
Q25.3906 42.3906 31.7812 42.3906
Q38.1406 42.3906 41.7188 45.5625
Q45.3125 48.7344 45.3125 54.3906
Q45.3125 60.0625 41.7188 63.2344
Q38.1406 66.4062 31.7812 66.4062
Q25.3906 66.4062 21.8438 63.2344
Q18.3125 60.0625 18.3125 54.3906" id="DejaVuSans-38"/>
      </defs>
      <g transform="translate(323.981843655 381.859875)scale(0.12 -0.12)">
       <use xlink:href="#DejaVuSans-38"/>
       <use x="63.623046875" xlink:href="#DejaVuSans-30"/>
       <use x="127.24609375" xlink:href="#DejaVuSans-30"/>
      </g>
     </g>
    </g>
    <g id="xtick_6">
     <g id="line2d_27">
      <g>
       <use style="stroke:#000000;stroke-width:0.5;" x="402.470976444" xlink:href="#mc7db9fdffb" y="368.74175"/>
      </g>
     </g>
     <g id="line2d_28">
      <g>
       <use style="stroke:#000000;stroke-width:0.5;" x="402.470976444" xlink:href="#m5a7d422ac3" y="23.14175"/>
      </g>
     </g>
     <g id="text_6">
      <!-- 1000 -->
      <defs>
       <path d="
M12.4062 8.29688
L28.5156 8.29688
L28.5156 63.9219
L10.9844 60.4062
L10.9844 69.3906
L28.4219 72.9062
L38.2812 72.9062
L38.2812 8.29688
L54.3906 8.29688
L54.3906 0
L12.4062 0
z
" id="DejaVuSans-31"/>
      </defs>
      <g transform="translate(388.258476444 381.859875)scale(0.12 -0.12)">
       <use xlink:href="#DejaVuSans-31"/>
       <use x="63.623046875" xlink:href="#DejaVuSans-30"/>
       <use x="127.24609375" xlink:href="#DejaVuSans-30"/>
       <use x="190.869140625" xlink:href="#DejaVuSans-30"/>
      </g>
     </g>
    </g>
    <g id="xtick_7">
     <g id="line2d_29">
      <g>
       <use style="stroke:#000000;stroke-width:0.5;" x="470.312921733" xlink:href="#mc7db9fdffb" y="368.74175"/>
      </g>
     </g>
     <g id="line2d_30">
      <g>
       <use style="stroke:#000000;stroke-width:0.5;" x="470.312921733" xlink:href="#m5a7d422ac3" y="23.14175"/>
      </g>
     </g>
     <g id="text_7">
      <!-- 1200 -->
      <g transform="translate(456.100421733 381.859875)scale(0.12 -0.12)">
       <use xlink:href="#DejaVuSans-31"/>
       <use x="63.623046875" xlink:href="#DejaVuSans-32"/>
       <use x="127.24609375" xlink:href="#DejaVuSans-30"/>
       <use x="190.869140625" xlink:href="#DejaVuSans-30"/>
      </g>
     </g>
    </g>
    <g id="text_8">
     <!-- time -->
     <defs>
      <path d="
M9.42188 54.6875
L18.4062 54.6875
L18.4062 0
L9.42188 0
z

M9.42188 75.9844
L18.4062 75.9844
L18.4062 64.5938
L9.42188 64.5938
z
" id="DejaVuSans-69"/>
      <path d="
M18.3125 70.2188
L18.3125 54.6875
L36.8125 54.6875
L36.8125 47.7031
L18.3125 47.7031
L18.3125 18.0156
Q18.3125 11.3281 20.1406 9.42188
Q21.9688 7.51562 27.5938 7.51562
L36.8125 7.51562
L36.8125 0
L27.5938 0
Q17.1875 0 13.2344 3.875
Q9.28125 7.76562 9.28125 18.0156
L9.28125 47.7031
L2.6875 47.7031
L2.6875 54.6875
L9.28125 54.6875
L9.28125 70.2188
z
" id="DejaVuSans-74"/>
      <path d="
M52 44.1875
Q55.375 50.25 60.0625 53.125
Q64.75 56 71.0938 56
Q79.6406 56 84.2812 50.0156
Q88.9219 44.0469 88.9219 33.0156
L88.9219 0
L79.8906 0
L79.8906 32.7188
Q79.8906 40.5781 77.0938 44.375
Q74.3125 48.1875 68.6094 48.1875
Q61.625 48.1875 57.5625 43.5469
Q53.5156 38.9219 53.5156 30.9062
L53.5156 0
L44.4844 0
L44.4844 32.7188
Q44.4844 40.625 41.7031 44.4062
Q38.9219 48.1875 33.1094 48.1875
Q26.2188 48.1875 22.1562 43.5312
Q18.1094 38.875 18.1094 30.9062
L18.1094 0
L9.07812 0
L9.07812 54.6875
L18.1094 54.6875
L18.1094 46.1875
Q21.1875 51.2188 25.4844 53.6094
Q29.7812 56 35.6875 56
Q41.6562 56 45.8281 52.9688
Q50 49.9531 52 44.1875" id="DejaVuSans-6d"/>
      <path d="
M56.2031 29.5938
L56.2031 25.2031
L14.8906 25.2031
Q15.4844 15.9219 20.4844 11.0625
Q25.4844 6.20312 34.4219 6.20312
Q39.5938 6.20312 44.4531 7.46875
Q49.3125 8.73438 54.1094 11.2812
L54.1094 2.78125
Q49.2656 0.734375 44.1875 -0.34375
Q39.1094 -1.42188 33.8906 -1.42188
Q20.7969 -1.42188 13.1562 6.1875
Q5.51562 13.8125 5.51562 26.8125
Q5.51562 40.2344 12.7656 48.1094
Q20.0156 56 32.3281 56
Q43.3594 56 49.7812 48.8906
Q56.2031 41.7969 56.2031 29.5938
M47.2188 32.2344
Q47.125 39.5938 43.0938 43.9844
Q39.0625 48.3906 32.4219 48.3906
Q24.9062 48.3906 20.3906 44.1406
Q15.875 39.8906 15.1875 32.1719
z
" id="DejaVuSans-65"/>
     </defs>
     <g transform="translate(273.386875 398.473625)scale(0.12 -0.12)">
      <use xlink:href="#DejaVuSans-74"/>
      <use x="39.208984375" xlink:href="#DejaVuSans-69"/>
      <use x="66.9921875" xlink:href="#DejaVuSans-6d"/>
      <use x="164.404296875" xlink:href="#DejaVuSans-65"/>
     </g>
    </g>
   </g>
   <g id="matplotlib.axis_2">
    <g id="ytick_1">
     <g id="line2d_31">
      <defs>
       <path d="
M0 0
L4 0" id="md7965d1ba0" style="stroke:#000000;stroke-width:0.5;"/>
      </defs>
      <g>
       <use style="stroke:#000000;stroke-width:0.5;" x="63.26125" xlink:href="#md7965d1ba0" y="368.74175"/>
      </g>
     </g>
     <g id="line2d_32">
      <defs>
       <path d="
M0 0
L-4 0" id="md9a1c1a7cd" style="stroke:#000000;stroke-width:0.5;"/>
      </defs>
      <g>
       <use style="stroke:#000000;stroke-width:0.5;" x="509.66125" xlink:href="#md9a1c1a7cd" y="368.74175"/>
      </g>
     </g>
     <g id="text_9">
      <!-- 0 -->
      <g transform="translate(53.214375 372.053)scale(0.12 -0.12)">
       <use xlink:href="#DejaVuSans-30"/>
      </g>
     </g>
    </g>
    <g id="ytick_2">
     <g id="line2d_33">
      <g>
       <use style="stroke:#000000;stroke-width:0.5;" x="63.26125" xlink:href="#md7965d1ba0" y="330.34175"/>
      </g>
     </g>
     <g id="line2d_34">
      <g>
       <use style="stroke:#000000;stroke-width:0.5;" x="509.66125" xlink:href="#md9a1c1a7cd" y="330.34175"/>
      </g>
     </g>
     <g id="text_10">
      <!-- 1000000 -->
      <g transform="translate(7.93125 333.653)scale(0.12 -0.12)">
       <use xlink:href="#DejaVuSans-31"/>
       <use x="63.623046875" xlink:href="#DejaVuSans-30"/>
       <use x="127.24609375" xlink:href="#DejaVuSans-30"/>
       <use x="190.869140625" xlink:href="#DejaVuSans-30"/>
       <use x="254.4921875" xlink:href="#DejaVuSans-30"/>
       <use x="318.115234375" xlink:href="#DejaVuSans-30"/>
       <use x="381.73828125" xlink:href="#DejaVuSans-30"/>
      </g>
     </g>
    </g>
    <g id="ytick_3">
     <g id="line2d_35">
      <g>
       <use style="stroke:#000000;stroke-width:0.5;" x="63.26125" xlink:href="#md7965d1ba0" y="291.94175"/>
      </g>
     </g>
     <g id="line2d_36">
      <g>
       <use style="stroke:#000000;stroke-width:0.5;" x="509.66125" xlink:href="#md9a1c1a7cd" y="291.94175"/>
      </g>
     </g>
     <g id="text_11">
      <!-- 2000000 -->
      <g transform="translate(7.4925 295.253)scale(0.12 -0.12)">
       <use xlink:href="#DejaVuSans-32"/>
       <use x="63.623046875" xlink:href="#DejaVuSans-30"/>
       <use x="127.24609375" xlink:href="#DejaVuSans-30"/>
       <use x="190.869140625" xlink:href="#DejaVuSans-30"/>
       <use x="254.4921875" xlink:href="#DejaVuSans-30"/>
       <use x="318.115234375" xlink:href="#DejaVuSans-30"/>
       <use x="381.73828125" xlink:href="#DejaVuSans-30"/>
      </g>
     </g>
    </g>
    <g id="ytick_4">
     <g id="line2d_37">
      <g>
       <use style="stroke:#000000;stroke-width:0.5;" x="63.26125" xlink:href="#md7965d1ba0" y="253.54175"/>
      </g>
     </g>
     <g id="line2d_38">
      <g>
       <use style="stroke:#000000;stroke-width:0.5;" x="509.66125" xlink:href="#md9a1c1a7cd" y="253.54175"/>
      </g>
     </g>
     <g id="text_12">
      <!-- 3000000 -->
      <defs>
       <path d="
M40.5781 39.3125
Q47.6562 37.7969 51.625 33
Q55.6094 28.2188 55.6094 21.1875
Q55.6094 10.4062 48.1875 4.48438
Q40.7656 -1.42188 27.0938 -1.42188
Q22.5156 -1.42188 17.6562 -0.515625
Q12.7969 0.390625 7.625 2.20312
L7.625 11.7188
Q11.7188 9.32812 16.5938 8.10938
Q21.4844 6.89062 26.8125 6.89062
Q36.0781 6.89062 40.9375 10.5469
Q45.7969 14.2031 45.7969 21.1875
Q45.7969 27.6406 41.2812 31.2656
Q36.7656 34.9062 28.7188 34.9062
L20.2188 34.9062
L20.2188 43.0156
L29.1094 43.0156
Q36.375 43.0156 40.2344 45.9219
Q44.0938 48.8281 44.0938 54.2969
Q44.0938 59.9062 40.1094 62.9062
Q36.1406 65.9219 28.7188 65.9219
Q24.6562 65.9219 20.0156 65.0312
Q15.375 64.1562 9.8125 62.3125
L9.8125 71.0938
Q15.4375 72.6562 20.3438 73.4375
Q25.25 74.2188 29.5938 74.2188
Q40.8281 74.2188 47.3594 69.1094
Q53.9062 64.0156 53.9062 55.3281
Q53.9062 49.2656 50.4375 45.0938
Q46.9688 40.9219 40.5781 39.3125" id="DejaVuSans-33"/>
      </defs>
      <g transform="translate(7.528125 256.853)scale(0.12 -0.12)">
       <use xlink:href="#DejaVuSans-33"/>
       <use x="63.623046875" xlink:href="#DejaVuSans-30"/>
       <use x="127.24609375" xlink:href="#DejaVuSans-30"/>
       <use x="190.869140625" xlink:href="#DejaVuSans-30"/>
       <use x="254.4921875" xlink:href="#DejaVuSans-30"/>
       <use x="318.115234375" xlink:href="#DejaVuSans-30"/>
       <use x="381.73828125" xlink:href="#DejaVuSans-30"/>
      </g>
     </g>
    </g>
    <g id="ytick_5">
     <g id="line2d_39">
      <g>
       <use style="stroke:#000000;stroke-width:0.5;" x="63.26125" xlink:href="#md7965d1ba0" y="215.14175"/>
      </g>
     </g>
     <g id="line2d_40">
      <g>
       <use style="stroke:#000000;stroke-width:0.5;" x="509.66125" xlink:href="#md9a1c1a7cd" y="215.14175"/>
      </g>
     </g>
     <g id="text_13">
      <!-- 4000000 -->
      <g transform="translate(7.2 218.453)scale(0.12 -0.12)">
       <use xlink:href="#DejaVuSans-34"/>
       <use x="63.623046875" xlink:href="#DejaVuSans-30"/>
       <use x="127.24609375" xlink:href="#DejaVuSans-30"/>
       <use x="190.869140625" xlink:href="#DejaVuSans-30"/>
       <use x="254.4921875" xlink:href="#DejaVuSans-30"/>
       <use x="318.115234375" xlink:href="#DejaVuSans-30"/>
       <use x="381.73828125" xlink:href="#DejaVuSans-30"/>
      </g>
     </g>
    </g>
    <g id="ytick_6">
     <g id="line2d_41">
      <g>
       <use style="stroke:#000000;stroke-width:0.5;" x="63.26125" xlink:href="#md7965d1ba0" y="176.74175"/>
      </g>
     </g>
     <g id="line2d_42">
      <g>
       <use style="stroke:#000000;stroke-width:0.5;" x="509.66125" xlink:href="#md9a1c1a7cd" y="176.74175"/>
      </g>
     </g>
     <g id="text_14">
      <!-- 5000000 -->
      <defs>
       <path d="
M10.7969 72.9062
L49.5156 72.9062
L49.5156 64.5938
L19.8281 64.5938
L19.8281 46.7344
Q21.9688 47.4688 24.1094 47.8281
Q26.2656 48.1875 28.4219 48.1875
Q40.625 48.1875 47.75 41.5
Q54.8906 34.8125 54.8906 23.3906
Q54.8906 11.625 47.5625 5.09375
Q40.2344 -1.42188 26.9062 -1.42188
Q22.3125 -1.42188 17.5469 -0.640625
Q12.7969 0.140625 7.71875 1.70312
L7.71875 11.625
Q12.1094 9.23438 16.7969 8.0625
Q21.4844 6.89062 26.7031 6.89062
Q35.1562 6.89062 40.0781 11.3281
Q45.0156 15.7656 45.0156 23.3906
Q45.0156 31 40.0781 35.4375
Q35.1562 39.8906 26.7031 39.8906
Q22.75 39.8906 18.8125 39.0156
Q14.8906 38.1406 10.7969 36.2812
z
" id="DejaVuSans-35"/>
      </defs>
      <g transform="translate(7.539375 180.053)scale(0.12 -0.12)">
       <use xlink:href="#DejaVuSans-35"/>
       <use x="63.623046875" xlink:href="#DejaVuSans-30"/>
       <use x="127.24609375" xlink:href="#DejaVuSans-30"/>
       <use x="190.869140625" xlink:href="#DejaVuSans-30"/>
       <use x="254.4921875" xlink:href="#DejaVuSans-30"/>
       <use x="318.115234375" xlink:href="#DejaVuSans-30"/>
       <use x="381.73828125" xlink:href="#DejaVuSans-30"/>
      </g>
     </g>
    </g>
    <g id="ytick_7">
     <g id="line2d_43">
      <g>
       <use style="stroke:#000000;stroke-width:0.5;" x="63.26125" xlink:href="#md7965d1ba0" y="138.34175"/>
      </g>
     </g>
     <g id="line2d_44">
      <g>
       <use style="stroke:#000000;stroke-width:0.5;" x="509.66125" xlink:href="#md9a1c1a7cd" y="138.34175"/>
      </g>
     </g>
     <g id="text_15">
      <!-- 6000000 -->
      <g transform="translate(7.45125 141.653)scale(0.12 -0.12)">
       <use xlink:href="#DejaVuSans-36"/>
       <use x="63.623046875" xlink:href="#DejaVuSans-30"/>
       <use x="127.24609375" xlink:href="#DejaVuSans-30"/>
       <use x="190.869140625" xlink:href="#DejaVuSans-30"/>
       <use x="254.4921875" xlink:href="#DejaVuSans-30"/>
       <use x="318.115234375" xlink:href="#DejaVuSans-30"/>
       <use x="381.73828125" xlink:href="#DejaVuSans-30"/>
      </g>
     </g>
    </g>
    <g id="ytick_8">
     <g id="line2d_45">
      <g>
       <use style="stroke:#000000;stroke-width:0.5;" x="63.26125" xlink:href="#md7965d1ba0" y="99.94175"/>
      </g>
     </g>
     <g id="line2d_46">
      <g>
       <use style="stroke:#000000;stroke-width:0.5;" x="509.66125" xlink:href="#md9a1c1a7cd" y="99.94175"/>
      </g>
     </g>
     <g id="text_16">
      <!-- 7000000 -->
      <defs>
       <path d="
M8.20312 72.9062
L55.0781 72.9062
L55.0781 68.7031
L28.6094 0
L18.3125 0
L43.2188 64.5938
L8.20312 64.5938
z
" id="DejaVuSans-37"/>
      </defs>
      <g transform="translate(7.5975 103.253)scale(0.12 -0.12)">
       <use xlink:href="#DejaVuSans-37"/>
       <use x="63.623046875" xlink:href="#DejaVuSans-30"/>
       <use x="127.24609375" xlink:href="#DejaVuSans-30"/>
       <use x="190.869140625" xlink:href="#DejaVuSans-30"/>
       <use x="254.4921875" xlink:href="#DejaVuSans-30"/>
       <use x="318.115234375" xlink:href="#DejaVuSans-30"/>
       <use x="381.73828125" xlink:href="#DejaVuSans-30"/>
      </g>
     </g>
    </g>
    <g id="ytick_9">
     <g id="line2d_47">
      <g>
       <use style="stroke:#000000;stroke-width:0.5;" x="63.26125" xlink:href="#md7965d1ba0" y="61.54175"/>
      </g>
     </g>
     <g id="line2d_48">
      <g>
       <use style="stroke:#000000;stroke-width:0.5;" x="509.66125" xlink:href="#md9a1c1a7cd" y="61.54175"/>
      </g>
     </g>
     <g id="text_17">
      <!-- 8000000 -->
      <g transform="translate(7.426875 64.853)scale(0.12 -0.12)">
       <use xlink:href="#DejaVuSans-38"/>
       <use x="63.623046875" xlink:href="#DejaVuSans-30"/>
       <use x="127.24609375" xlink:href="#DejaVuSans-30"/>
       <use x="190.869140625" xlink:href="#DejaVuSans-30"/>
       <use x="254.4921875" xlink:href="#DejaVuSans-30"/>
       <use x="318.115234375" xlink:href="#DejaVuSans-30"/>
       <use x="381.73828125" xlink:href="#DejaVuSans-30"/>
      </g>
     </g>
    </g>
    <g id="ytick_10">
     <g id="line2d_49">
      <g>
       <use style="stroke:#000000;stroke-width:0.5;" x="63.26125" xlink:href="#md7965d1ba0" y="23.14175"/>
      </g>
     </g>
     <g id="line2d_50">
      <g>
       <use style="stroke:#000000;stroke-width:0.5;" x="509.66125" xlink:href="#md9a1c1a7cd" y="23.14175"/>
      </g>
     </g>
     <g id="text_18">
      <!-- 9000000 -->
      <defs>
       <path d="
M10.9844 1.51562
L10.9844 10.5
Q14.7031 8.73438 18.5 7.8125
Q22.3125 6.89062 25.9844 6.89062
Q35.75 6.89062 40.8906 13.4531
Q46.0469 20.0156 46.7812 33.4062
Q43.9531 29.2031 39.5938 26.9531
Q35.25 24.7031 29.9844 24.7031
Q19.0469 24.7031 12.6719 31.3125
Q6.29688 37.9375 6.29688 49.4219
Q6.29688 60.6406 12.9375 67.4219
Q19.5781 74.2188 30.6094 74.2188
Q43.2656 74.2188 49.9219 64.5156
Q56.5938 54.8281 56.5938 36.375
Q56.5938 19.1406 48.4062 8.85938
Q40.2344 -1.42188 26.4219 -1.42188
Q22.7031 -1.42188 18.8906 -0.6875
Q15.0938 0.046875 10.9844 1.51562
M30.6094 32.4219
Q37.25 32.4219 41.125 36.9531
Q45.0156 41.5 45.0156 49.4219
Q45.0156 57.2812 41.125 61.8438
Q37.25 66.4062 30.6094 66.4062
Q23.9688 66.4062 20.0938 61.8438
Q16.2188 57.2812 16.2188 49.4219
Q16.2188 41.5 20.0938 36.9531
Q23.9688 32.4219 30.6094 32.4219" id="DejaVuSans-39"/>
      </defs>
      <g transform="translate(7.36875 26.453)scale(0.12 -0.12)">
       <use xlink:href="#DejaVuSans-39"/>
       <use x="63.623046875" xlink:href="#DejaVuSans-30"/>
       <use x="127.24609375" xlink:href="#DejaVuSans-30"/>
       <use x="190.869140625" xlink:href="#DejaVuSans-30"/>
       <use x="254.4921875" xlink:href="#DejaVuSans-30"/>
       <use x="318.115234375" xlink:href="#DejaVuSans-30"/>
       <use x="381.73828125" xlink:href="#DejaVuSans-30"/>
      </g>
     </g>
    </g>
   </g>
   <g id="text_19">
    <!-- /agas/count/cache/misses -->
    <defs>
     <path d="
M54.8906 33.0156
L54.8906 0
L45.9062 0
L45.9062 32.7188
Q45.9062 40.4844 42.875 44.3281
Q39.8438 48.1875 33.7969 48.1875
Q26.5156 48.1875 22.3125 43.5469
Q18.1094 38.9219 18.1094 30.9062
L18.1094 0
L9.07812 0
L9.07812 54.6875
L18.1094 54.6875
L18.1094 46.1875
Q21.3438 51.125 25.7031 53.5625
Q30.0781 56 35.7969 56
Q45.2188 56 50.0469 50.1719
Q54.8906 44.3438 54.8906 33.0156" id="DejaVuSans-6e"/>
     <path d="
M30.6094 48.3906
Q23.3906 48.3906 19.1875 42.75
Q14.9844 37.1094 14.9844 27.2969
Q14.9844 17.4844 19.1562 11.8438
Q23.3438 6.20312 30.6094 6.20312
Q37.7969 6.20312 41.9844 11.8594
Q46.1875 17.5312 46.1875 27.2969
Q46.1875 37.0156 41.9844 42.7031
Q37.7969 48.3906 30.6094 48.3906
M30.6094 56
Q42.3281 56 49.0156 48.375
Q55.7188 40.7656 55.7188 27.2969
Q55.7188 13.875 49.0156 6.21875
Q42.3281 -1.42188 30.6094 -1.42188
Q18.8438 -1.42188 12.1719 6.21875
Q5.51562 13.875 5.51562 27.2969
Q5.51562 40.7656 12.1719 48.375
Q18.8438 56 30.6094 56" id="DejaVuSans-6f"/>
     <path d="
M8.5 21.5781
L8.5 54.6875
L17.4844 54.6875
L17.4844 21.9219
Q17.4844 14.1562 20.5 10.2656
Q23.5312 6.39062 29.5938 6.39062
Q36.8594 6.39062 41.0781 11.0312
Q45.3125 15.6719 45.3125 23.6875
L45.3125 54.6875
L54.2969 54.6875
L54.2969 0
L45.3125 0
L45.3125 8.40625
Q42.0469 3.42188 37.7188 1
Q33.4062 -1.42188 27.6875 -1.42188
Q18.2656 -1.42188 13.375 4.4375
Q8.5 10.2969 8.5 21.5781
M31.1094 56
z
" id="DejaVuSans-75"/>
     <path d="
M34.2812 27.4844
Q23.3906 27.4844 19.1875 25
Q14.9844 22.5156 14.9844 16.5
Q14.9844 11.7188 18.1406 8.90625
Q21.2969 6.10938 26.7031 6.10938
Q34.1875 6.10938 38.7031 11.4062
Q43.2188 16.7031 43.2188 25.4844
L43.2188 27.4844
z

M52.2031 31.2031
L52.2031 0
L43.2188 0
L43.2188 8.29688
Q40.1406 3.32812 35.5469 0.953125
Q30.9531 -1.42188 24.3125 -1.42188
Q15.9219 -1.42188 10.9531 3.29688
Q6 8.01562 6 15.9219
Q6 25.1406 12.1719 29.8281
Q18.3594 34.5156 30.6094 34.5156
L43.2188 34.5156
L43.2188 35.4062
Q43.2188 41.6094 39.1406 45
Q35.0625 48.3906 27.6875 48.3906
Q23 48.3906 18.5469 47.2656
Q14.1094 46.1406 10.0156 43.8906
L10.0156 52.2031
Q14.9375 54.1094 19.5781 55.0469
Q24.2188 56 28.6094 56
Q40.4844 56 46.3438 49.8438
Q52.2031 43.7031 52.2031 31.2031" id="DejaVuSans-61"/>
     <path d="
M48.7812 52.5938
L48.7812 44.1875
Q44.9688 46.2969 41.1406 47.3438
Q37.3125 48.3906 33.4062 48.3906
Q24.6562 48.3906 19.8125 42.8438
Q14.9844 37.3125 14.9844 27.2969
Q14.9844 17.2812 19.8125 11.7344
Q24.6562 6.20312 33.4062 6.20312
Q37.3125 6.20312 41.1406 7.25
Q44.9688 8.29688 48.7812 10.4062
L48.7812 2.09375
Q45.0156 0.34375 40.9844 -0.53125
Q36.9688 -1.42188 32.4219 -1.42188
Q20.0625 -1.42188 12.7812 6.34375
Q5.51562 14.1094 5.51562 27.2969
Q5.51562 40.6719 12.8594 48.3281
Q20.2188 56 33.0156 56
Q37.1562 56 41.1094 55.1406
Q45.0625 54.2969 48.7812 52.5938" id="DejaVuSans-63"/>
     <path d="
M54.8906 33.0156
L54.8906 0
L45.9062 0
L45.9062 32.7188
Q45.9062 40.4844 42.875 44.3281
Q39.8438 48.1875 33.7969 48.1875
Q26.5156 48.1875 22.3125 43.5469
Q18.1094 38.9219 18.1094 30.9062
L18.1094 0
L9.07812 0
L9.07812 75.9844
L18.1094 75.9844
L18.1094 46.1875
Q21.3438 51.125 25.7031 53.5625
Q30.0781 56 35.7969 56
Q45.2188 56 50.0469 50.1719
Q54.8906 44.3438 54.8906 33.0156" id="DejaVuSans-68"/>
     <path d="
M25.3906 72.9062
L33.6875 72.9062
L8.29688 -9.28125
L0 -9.28125
z
" id="DejaVuSans-2f"/>
     <path d="
M45.4062 27.9844
Q45.4062 37.75 41.375 43.1094
Q37.3594 48.4844 30.0781 48.4844
Q22.8594 48.4844 18.8281 43.1094
Q14.7969 37.75 14.7969 27.9844
Q14.7969 18.2656 18.8281 12.8906
Q22.8594 7.51562 30.0781 7.51562
Q37.3594 7.51562 41.375 12.8906
Q45.4062 18.2656 45.4062 27.9844
M54.3906 6.78125
Q54.3906 -7.17188 48.1875 -13.9844
Q42 -20.7969 29.2031 -20.7969
Q24.4688 -20.7969 20.2656 -20.0938
Q16.0625 -19.3906 12.1094 -17.9219
L12.1094 -9.1875
Q16.0625 -11.3281 19.9219 -12.3438
Q23.7812 -13.375 27.7812 -13.375
Q36.625 -13.375 41.0156 -8.76562
Q45.4062 -4.15625 45.4062 5.17188
L45.4062 9.625
Q42.625 4.78125 38.2812 2.39062
Q33.9375 0 27.875 0
Q17.8281 0 11.6719 7.65625
Q5.51562 15.3281 5.51562 27.9844
Q5.51562 40.6719 11.6719 48.3281
Q17.8281 56 27.875 56
Q33.9375 56 38.2812 53.6094
Q42.625 51.2188 45.4062 46.3906
L45.4062 54.6875
L54.3906 54.6875
z
" id="DejaVuSans-67"/>
     <path d="
M44.2812 53.0781
L44.2812 44.5781
Q40.4844 46.5312 36.375 47.5
Q32.2812 48.4844 27.875 48.4844
Q21.1875 48.4844 17.8438 46.4375
Q14.5 44.3906 14.5 40.2812
Q14.5 37.1562 16.8906 35.375
Q19.2812 33.5938 26.5156 31.9844
L29.5938 31.2969
Q39.1562 29.25 43.1875 25.5156
Q47.2188 21.7812 47.2188 15.0938
Q47.2188 7.46875 41.1875 3.01562
Q35.1562 -1.42188 24.6094 -1.42188
Q20.2188 -1.42188 15.4531 -0.5625
Q10.6875 0.296875 5.42188 2
L5.42188 11.2812
Q10.4062 8.6875 15.2344 7.39062
Q20.0625 6.10938 24.8125 6.10938
Q31.1562 6.10938 34.5625 8.28125
Q37.9844 10.4531 37.9844 14.4062
Q37.9844 18.0625 35.5156 20.0156
Q33.0625 21.9688 24.7031 23.7812
L21.5781 24.5156
Q13.2344 26.2656 9.51562 29.9062
Q5.8125 33.5469 5.8125 39.8906
Q5.8125 47.6094 11.2812 51.7969
Q16.75 56 26.8125 56
Q31.7812 56 36.1719 55.2656
Q40.5781 54.5469 44.2812 53.0781" id="DejaVuSans-73"/>
    </defs>
    <g transform="translate(193.631875 18.14175)scale(0.144 -0.144)">
     <use xlink:href="#DejaVuSans-2f"/>
     <use x="33.69140625" xlink:href="#DejaVuSans-61"/>
     <use x="94.970703125" xlink:href="#DejaVuSans-67"/>
     <use x="158.447265625" xlink:href="#DejaVuSans-61"/>
     <use x="219.7265625" xlink:href="#DejaVuSans-73"/>
     <use x="271.826171875" xlink:href="#DejaVuSans-2f"/>
     <use x="305.517578125" xlink:href="#DejaVuSans-63"/>
     <use x="360.498046875" xlink:href="#DejaVuSans-6f"/>
     <use x="421.6796875" xlink:href="#DejaVuSans-75"/>
     <use x="485.05859375" xlink:href="#DejaVuSans-6e"/>
     <use x="548.4375" xlink:href="#DejaVuSans-74"/>
     <use x="587.646484375" xlink:href="#DejaVuSans-2f"/>
     <use x="621.337890625" xlink:href="#DejaVuSans-63"/>
     <use x="676.318359375" xlink:href="#DejaVuSans-61"/>
     <use x="737.59765625" xlink:href="#DejaVuSans-63"/>
     <use x="792.578125" xlink:href="#DejaVuSans-68"/>
     <use x="855.95703125" xlink:href="#DejaVuSans-65"/>
     <use x="917.48046875" xlink:href="#DejaVuSans-2f"/>
     <use x="951.171875" xlink:href="#DejaVuSans-6d"/>
     <use x="1048.583984375" xlink:href="#DejaVuSans-69"/>
     <use x="1076.3671875" xlink:href="#DejaVuSans-73"/>
     <use x="1128.466796875" xlink:href="#DejaVuSans-73"/>
     <use x="1180.56640625" xlink:href="#DejaVuSans-65"/>
     <use x="1242.08984375" xlink:href="#DejaVuSans-73"/>
    </g>
   </g>
   <g id="legend_1">
    <g id="patch_7">
     <path d="
M516.861 367.194
L648.65 367.194
L648.65 24.6897
L516.861 24.6897
z
" style="fill:#ffffff;stroke:#000000;stroke-linejoin:miter;"/>
    </g>
    <g id="line2d_51">
     <path d="
M526.941 36.3515
L547.101 36.3515" style="fill:none;stroke:#0000ff;stroke-linecap:square;"/>
    </g>
    <g id="line2d_52"/>
    <g id="text_20">
     <!-- locality#0 -->
     <defs>
      <path d="
M51.125 44
L36.9219 44
L32.8125 27.6875
L47.125 27.6875
z

M43.7969 71.7812
L38.7188 51.5156
L52.9844 51.5156
L58.1094 71.7812
L65.9219 71.7812
L60.8906 51.5156
L76.125 51.5156
L76.125 44
L58.9844 44
L54.9844 27.6875
L70.5156 27.6875
L70.5156 20.2188
L53.0781 20.2188
L48 0
L40.1875 0
L45.2188 20.2188
L30.9062 20.2188
L25.875 0
L18.0156 0
L23.0938 20.2188
L7.71875 20.2188
L7.71875 27.6875
L24.9062 27.6875
L29 44
L13.2812 44
L13.2812 51.5156
L30.9062 51.5156
L35.8906 71.7812
z
" id="DejaVuSans-23"/>
      <path d="
M32.1719 -5.07812
Q28.375 -14.8438 24.75 -17.8125
Q21.1406 -20.7969 15.0938 -20.7969
L7.90625 -20.7969
L7.90625 -13.2812
L13.1875 -13.2812
Q16.8906 -13.2812 18.9375 -11.5156
Q21 -9.76562 23.4844 -3.21875
L25.0938 0.875
L2.98438 54.6875
L12.5 54.6875
L29.5938 11.9219
L46.6875 54.6875
L56.2031 54.6875
z
" id="DejaVuSans-79"/>
      <path d="
M9.42188 75.9844
L18.4062 75.9844
L18.4062 0
L9.42188 0
z
" id="DejaVuSans-6c"/>
     </defs>
     <g transform="translate(562.94125 41.3915)scale(0.144 -0.144)">
      <use xlink:href="#DejaVuSans-6c"/>
      <use x="27.783203125" xlink:href="#DejaVuSans-6f"/>
      <use x="88.96484375" xlink:href="#DejaVuSans-63"/>
      <use x="143.9453125" xlink:href="#DejaVuSans-61"/>
      <use x="205.224609375" xlink:href="#DejaVuSans-6c"/>
      <use x="233.0078125" xlink:href="#DejaVuSans-69"/>
      <use x="260.791015625" xlink:href="#DejaVuSans-74"/>
      <use x="300.0" xlink:href="#DejaVuSans-79"/>
      <use x="359.1796875" xlink:href="#DejaVuSans-23"/>
      <use x="442.96875" xlink:href="#DejaVuSans-30"/>
     </g>
    </g>
    <g id="line2d_53">
     <path d="
M526.941 57.488
L547.101 57.488" style="fill:none;stroke:#008000;stroke-linecap:square;"/>
    </g>
    <g id="line2d_54"/>
    <g id="text_21">
     <!-- locality#1 -->
     <g transform="translate(562.94125 62.528)scale(0.144 -0.144)">
      <use xlink:href="#DejaVuSans-6c"/>
      <use x="27.783203125" xlink:href="#DejaVuSans-6f"/>
      <use x="88.96484375" xlink:href="#DejaVuSans-63"/>
      <use x="143.9453125" xlink:href="#DejaVuSans-61"/>
      <use x="205.224609375" xlink:href="#DejaVuSans-6c"/>
      <use x="233.0078125" xlink:href="#DejaVuSans-69"/>
      <use x="260.791015625" xlink:href="#DejaVuSans-74"/>
      <use x="300.0" xlink:href="#DejaVuSans-79"/>
      <use x="359.1796875" xlink:href="#DejaVuSans-23"/>
      <use x="442.96875" xlink:href="#DejaVuSans-31"/>
     </g>
    </g>
    <g id="line2d_55">
     <path d="
M526.941 78.6245
L547.101 78.6245" style="fill:none;stroke:#ff0000;stroke-linecap:square;"/>
    </g>
    <g id="line2d_56"/>
    <g id="text_22">
     <!-- locality#10 -->
     <g transform="translate(562.94125 83.6645)scale(0.144 -0.144)">
      <use xlink:href="#DejaVuSans-6c"/>
      <use x="27.783203125" xlink:href="#DejaVuSans-6f"/>
      <use x="88.96484375" xlink:href="#DejaVuSans-63"/>
      <use x="143.9453125" xlink:href="#DejaVuSans-61"/>
      <use x="205.224609375" xlink:href="#DejaVuSans-6c"/>
      <use x="233.0078125" xlink:href="#DejaVuSans-69"/>
      <use x="260.791015625" xlink:href="#DejaVuSans-74"/>
      <use x="300.0" xlink:href="#DejaVuSans-79"/>
      <use x="359.1796875" xlink:href="#DejaVuSans-23"/>
      <use x="442.96875" xlink:href="#DejaVuSans-31"/>
      <use x="506.591796875" xlink:href="#DejaVuSans-30"/>
     </g>
    </g>
    <g id="line2d_57">
     <path d="
M526.941 99.761
L547.101 99.761" style="fill:none;stroke:#00bfbf;stroke-linecap:square;"/>
    </g>
    <g id="line2d_58"/>
    <g id="text_23">
     <!-- locality#11 -->
     <g transform="translate(562.94125 104.801)scale(0.144 -0.144)">
      <use xlink:href="#DejaVuSans-6c"/>
      <use x="27.783203125" xlink:href="#DejaVuSans-6f"/>
      <use x="88.96484375" xlink:href="#DejaVuSans-63"/>
      <use x="143.9453125" xlink:href="#DejaVuSans-61"/>
      <use x="205.224609375" xlink:href="#DejaVuSans-6c"/>
      <use x="233.0078125" xlink:href="#DejaVuSans-69"/>
      <use x="260.791015625" xlink:href="#DejaVuSans-74"/>
      <use x="300.0" xlink:href="#DejaVuSans-79"/>
      <use x="359.1796875" xlink:href="#DejaVuSans-23"/>
      <use x="442.96875" xlink:href="#DejaVuSans-31"/>
      <use x="506.591796875" xlink:href="#DejaVuSans-31"/>
     </g>
    </g>
    <g id="line2d_59">
     <path d="
M526.941 120.897
L547.101 120.897" style="fill:none;stroke:#bf00bf;stroke-linecap:square;"/>
    </g>
    <g id="line2d_60"/>
    <g id="text_24">
     <!-- locality#12 -->
     <g transform="translate(562.94125 125.9375)scale(0.144 -0.144)">
      <use xlink:href="#DejaVuSans-6c"/>
      <use x="27.783203125" xlink:href="#DejaVuSans-6f"/>
      <use x="88.96484375" xlink:href="#DejaVuSans-63"/>
      <use x="143.9453125" xlink:href="#DejaVuSans-61"/>
      <use x="205.224609375" xlink:href="#DejaVuSans-6c"/>
      <use x="233.0078125" xlink:href="#DejaVuSans-69"/>
      <use x="260.791015625" xlink:href="#DejaVuSans-74"/>
      <use x="300.0" xlink:href="#DejaVuSans-79"/>
      <use x="359.1796875" xlink:href="#DejaVuSans-23"/>
      <use x="442.96875" xlink:href="#DejaVuSans-31"/>
      <use x="506.591796875" xlink:href="#DejaVuSans-32"/>
     </g>
    </g>
    <g id="line2d_61">
     <path d="
M526.941 142.034
L547.101 142.034" style="fill:none;stroke:#bfbf00;stroke-linecap:square;"/>
    </g>
    <g id="line2d_62"/>
    <g id="text_25">
     <!-- locality#13 -->
     <g transform="translate(562.94125 147.074)scale(0.144 -0.144)">
      <use xlink:href="#DejaVuSans-6c"/>
      <use x="27.783203125" xlink:href="#DejaVuSans-6f"/>
      <use x="88.96484375" xlink:href="#DejaVuSans-63"/>
      <use x="143.9453125" xlink:href="#DejaVuSans-61"/>
      <use x="205.224609375" xlink:href="#DejaVuSans-6c"/>
      <use x="233.0078125" xlink:href="#DejaVuSans-69"/>
      <use x="260.791015625" xlink:href="#DejaVuSans-74"/>
      <use x="300.0" xlink:href="#DejaVuSans-79"/>
      <use x="359.1796875" xlink:href="#DejaVuSans-23"/>
      <use x="442.96875" xlink:href="#DejaVuSans-31"/>
      <use x="506.591796875" xlink:href="#DejaVuSans-33"/>
     </g>
    </g>
    <g id="line2d_63">
     <path d="
M526.941 163.17
L547.101 163.17" style="fill:none;stroke:#000000;stroke-linecap:square;"/>
    </g>
    <g id="line2d_64"/>
    <g id="text_26">
     <!-- locality#14 -->
     <g transform="translate(562.94125 168.2105)scale(0.144 -0.144)">
      <use xlink:href="#DejaVuSans-6c"/>
      <use x="27.783203125" xlink:href="#DejaVuSans-6f"/>
      <use x="88.96484375" xlink:href="#DejaVuSans-63"/>
      <use x="143.9453125" xlink:href="#DejaVuSans-61"/>
      <use x="205.224609375" xlink:href="#DejaVuSans-6c"/>
      <use x="233.0078125" xlink:href="#DejaVuSans-69"/>
      <use x="260.791015625" xlink:href="#DejaVuSans-74"/>
      <use x="300.0" xlink:href="#DejaVuSans-79"/>
      <use x="359.1796875" xlink:href="#DejaVuSans-23"/>
      <use x="442.96875" xlink:href="#DejaVuSans-31"/>
      <use x="506.591796875" xlink:href="#DejaVuSans-34"/>
     </g>
    </g>
    <g id="line2d_65">
     <path d="
M526.941 184.307
L547.101 184.307" style="fill:none;stroke:#0000ff;stroke-linecap:square;"/>
    </g>
    <g id="line2d_66"/>
    <g id="text_27">
     <!-- locality#15 -->
     <g transform="translate(562.94125 189.347)scale(0.144 -0.144)">
      <use xlink:href="#DejaVuSans-6c"/>
      <use x="27.783203125" xlink:href="#DejaVuSans-6f"/>
      <use x="88.96484375" xlink:href="#DejaVuSans-63"/>
      <use x="143.9453125" xlink:href="#DejaVuSans-61"/>
      <use x="205.224609375" xlink:href="#DejaVuSans-6c"/>
      <use x="233.0078125" xlink:href="#DejaVuSans-69"/>
      <use x="260.791015625" xlink:href="#DejaVuSans-74"/>
      <use x="300.0" xlink:href="#DejaVuSans-79"/>
      <use x="359.1796875" xlink:href="#DejaVuSans-23"/>
      <use x="442.96875" xlink:href="#DejaVuSans-31"/>
      <use x="506.591796875" xlink:href="#DejaVuSans-35"/>
     </g>
    </g>
    <g id="line2d_67">
     <path d="
M526.941 205.443
L547.101 205.443" style="fill:none;stroke:#008000;stroke-linecap:square;"/>
    </g>
    <g id="line2d_68"/>
    <g id="text_28">
     <!-- locality#2 -->
     <g transform="translate(562.94125 210.4835)scale(0.144 -0.144)">
      <use xlink:href="#DejaVuSans-6c"/>
      <use x="27.783203125" xlink:href="#DejaVuSans-6f"/>
      <use x="88.96484375" xlink:href="#DejaVuSans-63"/>
      <use x="143.9453125" xlink:href="#DejaVuSans-61"/>
      <use x="205.224609375" xlink:href="#DejaVuSans-6c"/>
      <use x="233.0078125" xlink:href="#DejaVuSans-69"/>
      <use x="260.791015625" xlink:href="#DejaVuSans-74"/>
      <use x="300.0" xlink:href="#DejaVuSans-79"/>
      <use x="359.1796875" xlink:href="#DejaVuSans-23"/>
      <use x="442.96875" xlink:href="#DejaVuSans-32"/>
     </g>
    </g>
    <g id="line2d_69">
     <path d="
M526.941 226.58
L547.101 226.58" style="fill:none;stroke:#ff0000;stroke-linecap:square;"/>
    </g>
    <g id="line2d_70"/>
    <g id="text_29">
     <!-- locality#3 -->
     <g transform="translate(562.94125 231.62)scale(0.144 -0.144)">
      <use xlink:href="#DejaVuSans-6c"/>
      <use x="27.783203125" xlink:href="#DejaVuSans-6f"/>
      <use x="88.96484375" xlink:href="#DejaVuSans-63"/>
      <use x="143.9453125" xlink:href="#DejaVuSans-61"/>
      <use x="205.224609375" xlink:href="#DejaVuSans-6c"/>
      <use x="233.0078125" xlink:href="#DejaVuSans-69"/>
      <use x="260.791015625" xlink:href="#DejaVuSans-74"/>
      <use x="300.0" xlink:href="#DejaVuSans-79"/>
      <use x="359.1796875" xlink:href="#DejaVuSans-23"/>
      <use x="442.96875" xlink:href="#DejaVuSans-33"/>
     </g>
    </g>
    <g id="line2d_71">
     <path d="
M526.941 247.716
L547.101 247.716" style="fill:none;stroke:#00bfbf;stroke-linecap:square;"/>
    </g>
    <g id="line2d_72"/>
    <g id="text_30">
     <!-- locality#4 -->
     <g transform="translate(562.94125 252.7565)scale(0.144 -0.144)">
      <use xlink:href="#DejaVuSans-6c"/>
      <use x="27.783203125" xlink:href="#DejaVuSans-6f"/>
      <use x="88.96484375" xlink:href="#DejaVuSans-63"/>
      <use x="143.9453125" xlink:href="#DejaVuSans-61"/>
      <use x="205.224609375" xlink:href="#DejaVuSans-6c"/>
      <use x="233.0078125" xlink:href="#DejaVuSans-69"/>
      <use x="260.791015625" xlink:href="#DejaVuSans-74"/>
      <use x="300.0" xlink:href="#DejaVuSans-79"/>
      <use x="359.1796875" xlink:href="#DejaVuSans-23"/>
      <use x="442.96875" xlink:href="#DejaVuSans-34"/>
     </g>
    </g>
    <g id="line2d_73">
     <path d="
M526.941 268.853
L547.101 268.853" style="fill:none;stroke:#bf00bf;stroke-linecap:square;"/>
    </g>
    <g id="line2d_74"/>
    <g id="text_31">
     <!-- locality#5 -->
     <g transform="translate(562.94125 273.893)scale(0.144 -0.144)">
      <use xlink:href="#DejaVuSans-6c"/>
      <use x="27.783203125" xlink:href="#DejaVuSans-6f"/>
      <use x="88.96484375" xlink:href="#DejaVuSans-63"/>
      <use x="143.9453125" xlink:href="#DejaVuSans-61"/>
      <use x="205.224609375" xlink:href="#DejaVuSans-6c"/>
      <use x="233.0078125" xlink:href="#DejaVuSans-69"/>
      <use x="260.791015625" xlink:href="#DejaVuSans-74"/>
      <use x="300.0" xlink:href="#DejaVuSans-79"/>
      <use x="359.1796875" xlink:href="#DejaVuSans-23"/>
      <use x="442.96875" xlink:href="#DejaVuSans-35"/>
     </g>
    </g>
    <g id="line2d_75">
     <path d="
M526.941 289.989
L547.101 289.989" style="fill:none;stroke:#bfbf00;stroke-linecap:square;"/>
    </g>
    <g id="line2d_76"/>
    <g id="text_32">
     <!-- locality#6 -->
     <g transform="translate(562.94125 295.0295)scale(0.144 -0.144)">
      <use xlink:href="#DejaVuSans-6c"/>
      <use x="27.783203125" xlink:href="#DejaVuSans-6f"/>
      <use x="88.96484375" xlink:href="#DejaVuSans-63"/>
      <use x="143.9453125" xlink:href="#DejaVuSans-61"/>
      <use x="205.224609375" xlink:href="#DejaVuSans-6c"/>
      <use x="233.0078125" xlink:href="#DejaVuSans-69"/>
      <use x="260.791015625" xlink:href="#DejaVuSans-74"/>
      <use x="300.0" xlink:href="#DejaVuSans-79"/>
      <use x="359.1796875" xlink:href="#DejaVuSans-23"/>
      <use x="442.96875" xlink:href="#DejaVuSans-36"/>
     </g>
    </g>
    <g id="line2d_77">
     <path d="
M526.941 311.126
L547.101 311.126" style="fill:none;stroke:#000000;stroke-linecap:square;"/>
    </g>
    <g id="line2d_78"/>
    <g id="text_33">
     <!-- locality#7 -->
     <g transform="translate(562.94125 316.166)scale(0.144 -0.144)">
      <use xlink:href="#DejaVuSans-6c"/>
      <use x="27.783203125" xlink:href="#DejaVuSans-6f"/>
      <use x="88.96484375" xlink:href="#DejaVuSans-63"/>
      <use x="143.9453125" xlink:href="#DejaVuSans-61"/>
      <use x="205.224609375" xlink:href="#DejaVuSans-6c"/>
      <use x="233.0078125" xlink:href="#DejaVuSans-69"/>
      <use x="260.791015625" xlink:href="#DejaVuSans-74"/>
      <use x="300.0" xlink:href="#DejaVuSans-79"/>
      <use x="359.1796875" xlink:href="#DejaVuSans-23"/>
      <use x="442.96875" xlink:href="#DejaVuSans-37"/>
     </g>
    </g>
    <g id="line2d_79">
     <path d="
M526.941 332.262
L547.101 332.262" style="fill:none;stroke:#0000ff;stroke-linecap:square;"/>
    </g>
    <g id="line2d_80"/>
    <g id="text_34">
     <!-- locality#8 -->
     <g transform="translate(562.94125 337.3025)scale(0.144 -0.144)">
      <use xlink:href="#DejaVuSans-6c"/>
      <use x="27.783203125" xlink:href="#DejaVuSans-6f"/>
      <use x="88.96484375" xlink:href="#DejaVuSans-63"/>
      <use x="143.9453125" xlink:href="#DejaVuSans-61"/>
      <use x="205.224609375" xlink:href="#DejaVuSans-6c"/>
      <use x="233.0078125" xlink:href="#DejaVuSans-69"/>
      <use x="260.791015625" xlink:href="#DejaVuSans-74"/>
      <use x="300.0" xlink:href="#DejaVuSans-79"/>
      <use x="359.1796875" xlink:href="#DejaVuSans-23"/>
      <use x="442.96875" xlink:href="#DejaVuSans-38"/>
     </g>
    </g>
    <g id="line2d_81">
     <path d="
M526.941 353.399
L547.101 353.399" style="fill:none;stroke:#008000;stroke-linecap:square;"/>
    </g>
    <g id="line2d_82"/>
    <g id="text_35">
     <!-- locality#9 -->
     <g transform="translate(562.94125 358.439)scale(0.144 -0.144)">
      <use xlink:href="#DejaVuSans-6c"/>
      <use x="27.783203125" xlink:href="#DejaVuSans-6f"/>
      <use x="88.96484375" xlink:href="#DejaVuSans-63"/>
      <use x="143.9453125" xlink:href="#DejaVuSans-61"/>
      <use x="205.224609375" xlink:href="#DejaVuSans-6c"/>
      <use x="233.0078125" xlink:href="#DejaVuSans-69"/>
      <use x="260.791015625" xlink:href="#DejaVuSans-74"/>
      <use x="300.0" xlink:href="#DejaVuSans-79"/>
      <use x="359.1796875" xlink:href="#DejaVuSans-23"/>
      <use x="442.96875" xlink:href="#DejaVuSans-39"/>
     </g>
    </g>
   </g>
  </g>
 </g>
 <defs>
  <clipPath id="p3f6fae7697">
   <rect height="345.6" width="446.4" x="63.26125" y="23.14175"/>
  </clipPath>
 </defs>
</svg>
