<?xml version="1.0" encoding="utf-8" standalone="no"?>
<!DOCTYPE svg PUBLIC "-//W3C//DTD SVG 1.1//EN"
  "http://www.w3.org/Graphics/SVG/1.1/DTD/svg11.dtd">
<!-- Created with matplotlib (http://matplotlib.org/) -->
<svg height="408pt" version="1.1" viewBox="0 0 621 408" width="621pt" xmlns="http://www.w3.org/2000/svg" xmlns:xlink="http://www.w3.org/1999/xlink">
 <defs>
  <style type="text/css">
*{stroke-linecap:butt;stroke-linejoin:round;}
  </style>
 </defs>
 <g id="figure_1">
  <g id="patch_1">
   <path d="
M0 408.169
L621.285 408.169
L621.285 0
L0 0
z
" style="fill:#ffffff;"/>
  </g>
  <g id="axes_1">
   <g id="patch_2">
    <path d="
M28.6956 368.742
L475.096 368.742
L475.096 23.1417
L28.6956 23.1417
z
" style="fill:#ffffff;"/>
   </g>
   <g id="line2d_1">
    <path clip-path="url(#p2118423672)" d="
M28.6956 368.732
L45.6928 367.533
L54.6387 366.642
L66.2684 365.279
L81.4764 363.247
L91.3169 361.656
L101.157 359.898
L109.209 358.288
L131.573 353.032
L137.836 351.299
L145.887 348.994
L153.938 346.473
L158.411 344.975
L166.462 342.18
L174.514 339.22
L190.616 332.998
L197.773 330.034
L206.719 326.319
L217.454 321.563
L229.084 316.177
L236.24 312.652
L243.397 308.921
L248.765 306.051
L266.656 296.056
L270.235 293.845
L275.602 290.596
L279.181 288.311
L285.443 284.363
L305.124 270.979
L307.807 269.071
L314.07 264.606
L319.437 260.527
L323.015 257.824
L326.594 255.024
L331.067 251.557
L335.54 248.04
L337.329 246.554
L341.802 243.055
L345.38 240.122
L347.169 238.589
L352.537 234.088
L357.01 230.217
L371.323 217.673
L377.585 212.297
L379.375 210.648
L381.164 209.001
L387.426 203.182
L391.899 199.089
L394.583 196.488
L396.372 194.764
L399.056 192.238
L400.845 190.627
L403.528 187.999
L412.474 179.681
L416.947 175.258
L421.42 170.974
L424.999 167.321
L426.788 165.545
L433.05 159.112
L435.734 156.447
L439.312 152.704
L441.996 150.008
L448.258 143.459
L450.942 140.718
L454.52 136.916
L457.204 134.204
L461.677 129.301
L463.466 127.384
L471.517 118.21
L473.306 116.224
L475.096 114.128
L475.096 114.128" style="fill:none;stroke:#0000ff;stroke-linecap:square;"/>
   </g>
   <g id="line2d_2">
    <path clip-path="url(#p2118423672)" d="
M28.6956 368.741
L43.0091 368.416
L53.7441 367.97
L65.3738 367.301
L75.2143 366.532
L85.9493 365.477
L95.7898 364.321
L107.419 362.796
L117.26 361.378
L130.679 359.265
L137.836 357.951
L146.781 356.233
L156.622 354.095
L165.568 352
L173.619 349.961
L178.987 348.482
L190.616 345.208
L198.668 342.757
L210.297 339.175
L219.243 336.274
L231.767 332.133
L239.819 329.262
L246.081 326.955
L253.238 324.174
L260.394 321.321
L267.551 318.294
L275.602 314.792
L277.391 313.964
L281.864 311.941
L286.337 309.815
L291.705 307.196
L295.283 305.443
L302.44 301.91
L305.124 300.513
L307.807 299.114
L314.07 295.842
L317.648 293.835
L320.332 292.354
L323.91 290.302
L329.278 287.306
L331.961 285.738
L333.751 284.663
L337.329 282.564
L342.696 279.472
L346.275 277.212
L353.431 272.821
L357.01 270.492
L358.799 269.31
L360.588 268.117
L364.167 265.821
L365.956 264.636
L374.902 258.956
L376.691 257.737
L380.269 255.376
L383.848 252.82
L389.215 249.251
L391.004 248.007
L393.688 246.163
L398.161 242.961
L401.739 240.51
L404.423 238.671
L412.474 233.175
L416.947 229.895
L421.42 226.778
L424.999 224.078
L426.788 222.754
L446.469 207.597
L448.258 206.223
L450.942 204.166
L454.52 201.24
L457.204 199.167
L461.677 195.394
L463.466 193.949
L471.517 186.949
L473.306 185.457
L475.096 183.858
L475.096 183.858" style="fill:none;stroke:#008000;stroke-linecap:square;"/>
   </g>
   <g id="line2d_3">
    <path clip-path="url(#p2118423672)" d="
M28.6956 368.741
L39.4307 368.408
L48.3766 367.955
L57.3225 367.28
L65.3738 366.451
L73.4251 365.4
L80.5818 364.291
L89.5277 362.615
L101.157 360.007
L108.314 358.176
L136.941 350.337
L139.625 349.493
L147.676 346.922
L156.622 343.854
L164.673 340.966
L167.357 339.915
L173.619 337.467
L178.987 335.239
L187.038 331.897
L195.089 328.28
L201.351 325.352
L212.086 320.141
L214.77 318.717
L220.138 315.915
L230.873 310.006
L237.135 306.258
L243.397 302.409
L247.87 299.575
L256.816 293.809
L261.289 290.774
L266.656 287.028
L270.235 284.359
L274.708 281.088
L278.286 278.388
L280.97 276.331
L285.443 272.883
L289.021 269.93
L291.705 267.733
L294.389 265.521
L301.545 259.634
L305.124 256.541
L306.913 254.961
L311.386 251.133
L313.175 249.517
L314.964 247.865
L317.648 245.414
L320.332 242.911
L322.121 241.197
L324.805 238.683
L326.594 236.929
L331.067 232.686
L335.54 228.363
L337.329 226.506
L341.802 222.19
L345.38 218.484
L347.169 216.55
L350.748 212.852
L354.326 208.878
L357.01 205.937
L358.799 203.889
L360.588 201.864
L364.167 197.897
L365.956 195.867
L374.902 186.138
L376.691 184.086
L380.269 180.091
L383.848 175.758
L386.531 172.647
L391.899 166.518
L394.583 163.248
L396.372 161.054
L398.161 158.89
L401.739 154.664
L403.528 152.521
L411.58 143.07
L414.264 139.735
L416.947 136.266
L417.842 135.222
L419.631 132.966
L422.315 129.627
L424.999 126.111
L426.788 123.812
L431.261 117.772
L433.05 115.432
L435.734 111.977
L437.523 109.482
L440.207 106.003
L445.574 98.6099
L446.469 97.4833
L448.258 95.0621
L450.047 92.8098
L453.625 87.8065
L456.309 84.0789
L457.204 82.9552
L458.993 80.4452
L467.044 68.7027
L467.939 67.345
L468.834 66.1956
L475.096 56.8141
L475.096 56.8141" style="fill:none;stroke:#ff0000;stroke-linecap:square;"/>
   </g>
   <g id="line2d_4">
    <path clip-path="url(#p2118423672)" d="
M28.6956 368.741
L40.3253 368.379
L50.1658 367.837
L60.9008 366.991
L73.4251 365.683
L82.371 364.536
L94.8952 362.598
L104.736 360.795
L113.682 358.913
L122.627 356.792
L129.784 354.974
L136.941 352.982
L141.414 351.638
L147.676 349.645
L155.727 346.894
L163.779 343.993
L171.83 340.792
L177.197 338.537
L192.405 331.849
L195.089 330.558
L204.93 325.825
L221.927 317.258
L234.451 310.421
L239.819 307.332
L245.186 304.165
L249.659 301.438
L266.656 290.93
L270.235 288.5
L275.602 284.929
L279.181 282.435
L285.443 278.142
L287.232 276.828
L289.916 274.868
L292.599 272.847
L299.756 267.666
L305.124 263.66
L306.913 262.266
L314.07 256.833
L317.648 253.955
L320.332 251.773
L322.121 250.275
L324.805 248.061
L326.594 246.551
L330.172 243.718
L332.856 241.382
L342.696 233.112
L344.486 231.467
L350.748 225.836
L352.537 224.152
L356.115 220.845
L360.588 216.45
L364.167 213.042
L365.956 211.282
L374.902 202.785
L376.691 200.968
L378.48 199.153
L381.164 196.453
L384.742 192.739
L387.426 190.019
L391.899 185.427
L394.583 182.48
L396.372 180.511
L398.161 178.547
L401.739 174.704
L403.528 172.735
L410.685 165.063
L414.264 161.028
L416.947 157.828
L417.842 156.862
L419.631 154.728
L421.42 152.754
L424.999 148.344
L426.788 146.209
L431.261 140.522
L433.05 138.317
L435.734 135.047
L439.312 130.435
L441.996 127.134
L447.363 120.038
L450.047 116.825
L453.625 112.042
L456.309 108.465
L458.098 106.12
L459.888 103.771
L474.201 83.3561
L475.096 82.0172
L475.096 82.0172" style="fill:none;stroke:#00bfbf;stroke-linecap:square;"/>
   </g>
   <g id="line2d_5">
    <path clip-path="url(#p2118423672)" d="
M28.6956 368.741
L40.3253 368.376
L50.1658 367.849
L59.1117 367.166
L73.4251 365.674
L83.2656 364.414
L104.736 360.868
L113.682 359.104
L122.627 357.128
L129.784 355.398
L136.941 353.506
L141.414 352.237
L147.676 350.351
L155.727 347.731
L164.673 344.686
L168.252 343.354
L172.724 341.649
L177.197 339.832
L191.511 333.782
L195.984 331.687
L198.668 330.374
L207.613 326.068
L214.77 322.397
L227.294 315.769
L233.557 312.239
L242.502 306.957
L254.132 299.913
L259.5 296.638
L262.183 294.892
L266.656 291.995
L270.235 289.54
L275.602 285.987
L277.391 284.733
L281.864 281.683
L283.654 280.409
L288.126 277.272
L290.81 275.248
L297.072 270.813
L303.335 266.264
L306.018 264.122
L311.386 260.197
L315.859 256.614
L323.015 250.985
L325.699 248.75
L331.961 243.789
L334.645 241.601
L337.329 239.359
L342.696 235.021
L344.486 233.459
L349.853 228.849
L356.115 223.349
L360.588 219.171
L364.167 215.92
L365.956 214.267
L370.429 210.195
L377.585 203.656
L379.375 201.895
L380.269 201.098
L383.848 197.438
L387.426 193.97
L391.899 189.579
L394.583 186.775
L396.372 184.917
L398.161 183.053
L401.739 179.399
L403.528 177.535
L411.58 169.347
L414.264 166.486
L416.947 163.462
L420.526 159.598
L422.315 157.569
L424.999 154.477
L426.788 152.431
L431.261 147.05
L433.05 144.971
L435.734 141.862
L439.312 137.456
L441.996 134.302
L448.258 126.431
L450.047 124.365
L456.309 116.312
L458.993 112.993
L469.728 98.5023
L475.096 91.0383
L475.096 91.0383" style="fill:none;stroke:#bf00bf;stroke-linecap:square;"/>
   </g>
   <g id="line2d_6">
    <path clip-path="url(#p2118423672)" d="
M28.6956 368.741
L40.3253 368.395
L51.0604 367.826
L61.7954 367.026
L70.7413 366.191
L78.7926 365.256
L86.8439 364.124
L97.579 362.374
L113.682 359.091
L123.522 356.765
L134.257 353.974
L142.308 351.687
L149.465 349.446
L159.306 346.225
L170.041 342.508
L175.408 340.474
L183.46 337.394
L195.089 332.638
L204.93 328.401
L212.086 325.208
L214.77 323.901
L225.505 318.649
L236.24 312.993
L238.029 311.95
L246.975 307.034
L250.554 304.9
L259.5 299.743
L261.289 298.598
L266.656 295.232
L271.129 292.297
L278.286 287.514
L280.075 286.239
L283.654 283.791
L288.126 280.618
L290.81 278.564
L297.072 274.029
L303.335 269.35
L306.018 267.145
L311.386 263.102
L313.175 261.627
L314.964 260.141
L317.648 257.933
L320.332 255.707
L322.121 254.162
L324.805 251.896
L326.594 250.327
L331.067 246.534
L335.54 242.689
L337.329 241.036
L342.696 236.376
L344.486 234.668
L349.853 229.68
L357.904 221.894
L360.588 219.138
L364.167 215.635
L365.956 213.859
L371.323 208.659
L377.585 202.515
L379.375 200.638
L381.164 198.764
L384.742 194.993
L385.637 194.122
L387.426 192.21
L391.004 188.517
L393.688 185.674
L397.266 181.671
L400.845 178.02
L403.528 175.037
L412.474 165.65
L416.053 161.504
L417.842 159.643
L419.631 157.6
L422.315 154.615
L424.999 151.546
L426.788 149.504
L431.261 144.191
L433.05 142.134
L435.734 139.089
L439.312 134.756
L441.996 131.658
L447.363 125.026
L450.047 122.039
L456.309 114.33
L458.993 111.171
L475.096 90.4548
L475.096 90.4548" style="fill:none;stroke:#bfbf00;stroke-linecap:square;"/>
   </g>
   <g id="line2d_7">
    <path clip-path="url(#p2118423672)" d="
M28.6956 368.741
L41.2199 368.385
L53.7441 367.753
L63.5846 367.022
L73.4251 366.045
L83.2656 364.875
L103.841 361.688
L125.311 357.469
L133.363 355.664
L142.308 353.491
L150.36 351.358
L159.306 348.834
L168.252 346.091
L173.619 344.337
L178.987 342.488
L189.722 338.711
L195.984 336.28
L200.457 334.463
L208.508 331.137
L216.559 327.555
L228.189 322.113
L236.24 318.074
L238.924 316.637
L242.502 314.726
L246.975 312.336
L250.554 310.263
L259.5 305.337
L262.183 303.745
L266.656 301.091
L271.129 298.341
L275.602 295.619
L279.181 293.336
L285.443 289.428
L289.021 287.055
L297.967 281.247
L299.756 280.033
L305.124 276.457
L307.807 274.634
L313.175 270.988
L314.964 269.698
L317.648 267.798
L320.332 265.877
L322.121 264.557
L324.805 262.642
L326.594 261.319
L331.961 257.467
L334.645 255.49
L336.434 254.128
L345.38 247.584
L347.169 246.184
L353.431 241.425
L355.221 239.993
L357.904 237.87
L360.588 235.624
L364.167 232.758
L365.956 231.294
L374.902 224.068
L376.691 222.522
L379.375 220.204
L381.164 218.582
L384.742 215.364
L387.426 213.004
L391.899 209.046
L394.583 206.518
L396.372 204.843
L398.161 203.17
L401.739 199.9
L403.528 198.207
L411.58 190.813
L414.264 188.22
L416.947 185.483
L421.42 181.15
L424.999 177.403
L425.893 176.566
L431.261 170.765
L434.839 167.111
L441.101 160.267
L442.89 158.329
L447.363 153.247
L450.047 150.485
L465.255 132.881
L471.517 125.198
L473.306 123.046
L475.096 120.749
L475.096 120.749" style="fill:none;stroke:#000000;stroke-linecap:square;"/>
   </g>
   <g id="line2d_8">
    <path clip-path="url(#p2118423672)" d="
M28.6956 368.741
L41.2199 368.402
L52.8495 367.86
L65.3738 367.038
L73.4251 366.317
L82.371 365.347
L91.3169 364.172
L101.157 362.683
L109.209 361.304
L115.471 360.156
L125.311 358.249
L135.152 356.214
L144.992 353.96
L153.938 351.753
L158.411 350.572
L166.462 348.364
L175.408 345.705
L183.46 343.175
L193.3 339.86
L201.351 336.968
L212.086 332.894
L215.665 331.399
L225.505 327.277
L232.662 324.128
L237.135 321.982
L246.975 317.234
L251.448 314.914
L259.5 310.869
L262.183 309.427
L266.656 307.029
L271.129 304.542
L276.497 301.544
L284.548 297.002
L289.916 293.874
L292.599 292.255
L305.124 284.944
L307.807 283.31
L314.07 279.529
L317.648 277.233
L320.332 275.547
L322.121 274.374
L324.805 272.673
L326.594 271.507
L331.961 268.092
L334.645 266.344
L338.223 263.989
L345.38 259.19
L347.169 257.905
L353.431 253.521
L357.01 250.854
L358.799 249.485
L360.588 248.111
L364.167 245.46
L365.956 244.095
L374.902 237.507
L376.691 236.102
L380.269 233.311
L383.848 230.271
L389.215 225.963
L391.004 224.463
L393.688 222.22
L397.266 219.025
L401.739 215.249
L403.528 213.677
L408.896 209.122
L414.264 204.435
L416.947 201.878
L421.42 197.865
L424.999 194.38
L426.788 192.67
L431.261 188.192
L434.839 184.814
L439.312 180.208
L441.996 177.572
L448.258 171.071
L450.942 168.383
L455.415 163.654
L458.098 160.807
L459.888 158.944
L467.939 149.828
L468.834 148.933
L475.096 141.642
L475.096 141.642" style="fill:none;stroke:#0000ff;stroke-linecap:square;"/>
   </g>
   <g id="line2d_9">
    <path clip-path="url(#p2118423672)" d="
M28.6956 368.741
L43.0091 368.424
L54.6387 367.963
L67.163 367.285
L77.898 366.485
L89.5277 365.381
L108.314 363.096
L122.627 361.12
L132.468 359.635
L158.411 354.756
L170.041 352.172
L178.092 350.154
L187.038 347.868
L194.195 345.865
L206.719 342.249
L220.138 338.173
L232.662 334.222
L235.346 333.311
L241.608 331.219
L244.292 330.28
L250.554 328.042
L259.5 324.821
L262.183 323.767
L266.656 322.016
L270.235 320.524
L275.602 318.348
L278.286 317.218
L280.97 316.069
L285.443 314.157
L289.021 312.52
L292.599 310.861
L303.335 306.017
L306.018 304.662
L311.386 302.156
L315.859 299.834
L321.226 297.076
L324.805 295.209
L326.594 294.232
L331.961 291.407
L333.751 290.413
L340.907 286.542
L345.38 284.028
L347.169 282.98
L353.431 279.387
L355.221 278.288
L357.904 276.66
L361.483 274.403
L365.061 272.149
L373.112 267.256
L377.585 264.481
L379.375 263.302
L381.164 262.129
L384.742 259.76
L389.215 256.903
L391.004 255.73
L393.688 253.976
L397.266 251.501
L401.739 248.606
L403.528 247.41
L411.58 242.217
L414.264 240.399
L416.947 238.517
L421.42 235.552
L424.999 232.968
L426.788 231.704
L450.942 214.17
L454.52 211.412
L457.204 209.457
L461.677 205.906
L463.466 204.54
L471.517 197.936
L473.306 196.534
L475.096 195.04
L475.096 195.04" style="fill:none;stroke:#008000;stroke-linecap:square;"/>
   </g>
   <g id="line2d_10">
    <path clip-path="url(#p2118423672)" d="
M28.6956 368.741
L43.0091 368.429
L53.7441 368.017
L65.3738 367.363
L77.0034 366.487
L90.4223 365.227
L109.209 363.125
L133.363 359.552
L144.098 357.638
L152.149 356.028
L160.2 354.328
L168.252 352.484
L176.303 350.512
L180.776 349.385
L193.3 346.171
L206.719 342.486
L219.243 338.849
L230.873 335.279
L236.24 333.508
L239.819 332.279
L246.975 329.769
L251.448 328.097
L259.5 325.152
L262.183 324.096
L266.656 322.34
L270.235 320.84
L275.602 318.646
L279.181 317.065
L285.443 314.379
L289.021 312.729
L292.599 311.049
L303.335 306.132
L306.913 304.338
L314.07 300.838
L317.648 298.96
L321.226 297.043
L324.805 295.163
L326.594 294.176
L331.961 291.314
L333.751 290.307
L341.802 285.954
L345.38 283.959
L348.064 282.438
L350.748 280.977
L352.537 279.929
L356.115 277.857
L360.588 275.141
L368.64 270.477
L370.429 269.395
L377.585 265.271
L379.375 264.171
L381.164 263.053
L384.742 260.831
L389.215 258.152
L391.004 257.052
L395.477 254.268
L398.161 252.535
L401.739 250.324
L403.528 249.185
L410.685 244.753
L414.264 242.437
L416.947 240.591
L421.42 237.664
L424.999 235.111
L426.788 233.863
L433.945 228.717
L436.628 226.766
L439.312 224.806
L441.996 222.889
L448.258 218.161
L450.942 216.208
L454.52 213.415
L457.204 211.421
L461.677 207.824
L463.466 206.452
L471.517 199.73
L473.306 198.292
L475.096 196.749
L475.096 196.749" style="fill:none;stroke:#ff0000;stroke-linecap:square;"/>
   </g>
   <g id="line2d_11">
    <path clip-path="url(#p2118423672)" d="
M28.6956 368.741
L43.0091 368.399
L54.6387 367.922
L66.2684 367.225
L77.0034 366.36
L87.7385 365.289
L103.841 363.442
L123.522 360.702
L134.257 358.906
L143.203 357.242
L150.36 355.782
L160.2 353.642
L170.041 351.296
L181.67 348.197
L189.722 345.935
L195.984 344.052
L199.562 342.936
L213.876 338.441
L232.662 332.205
L235.346 331.222
L241.608 328.964
L244.292 327.952
L248.765 326.285
L252.343 324.914
L263.078 320.723
L267.551 318.821
L272.024 316.933
L274.708 315.748
L281.864 312.525
L286.337 310.45
L290.81 308.31
L297.967 304.963
L300.651 303.624
L304.229 301.84
L309.597 299.12
L314.07 296.796
L317.648 294.834
L320.332 293.379
L322.121 292.372
L324.805 290.891
L326.594 289.865
L331.961 286.876
L334.645 285.322
L342.696 280.723
L346.275 278.503
L350.748 275.874
L352.537 274.733
L356.115 272.466
L360.588 269.452
L364.167 267.146
L365.956 265.936
L374.902 260.134
L376.691 258.886
L379.375 257.055
L381.164 255.788
L384.742 253.251
L389.215 250.186
L391.004 248.916
L393.688 247.03
L398.161 243.78
L401.739 241.286
L404.423 239.391
L414.264 232.44
L416.947 230.384
L421.42 227.179
L424.999 224.394
L426.788 223.046
L431.261 219.521
L433.945 217.521
L435.734 216.161
L439.312 213.336
L441.996 211.314
L447.363 206.966
L450.942 204.251
L454.52 201.341
L457.204 199.262
L461.677 195.512
L463.466 194.092
L471.517 187.211
L473.306 185.75
L475.096 184.158
L475.096 184.158" style="fill:none;stroke:#00bfbf;stroke-linecap:square;"/>
   </g>
   <g id="line2d_12">
    <path clip-path="url(#p2118423672)" d="
M28.6956 368.741
L42.1145 368.412
L52.8495 367.952
L68.0575 367.066
L77.898 366.27
L88.6331 365.175
L97.579 364.088
L116.365 361.226
L122.627 360.132
L134.257 357.949
L143.203 356.137
L149.465 354.771
L164.673 351.294
L168.252 350.397
L173.619 349.017
L178.987 347.544
L187.038 345.288
L195.089 342.857
L205.824 339.411
L213.876 336.659
L226.4 332.152
L235.346 328.654
L241.608 326.072
L244.292 324.897
L248.765 322.946
L251.448 321.733
L258.605 318.544
L263.973 315.972
L272.024 312.027
L274.708 310.645
L278.286 308.817
L280.97 307.423
L285.443 305.113
L287.232 304.132
L289.916 302.692
L293.494 300.719
L299.756 297.399
L305.124 294.498
L306.913 293.491
L314.07 289.553
L316.753 287.968
L320.332 285.93
L322.121 284.867
L324.805 283.324
L326.594 282.262
L331.961 279.19
L334.645 277.603
L342.696 272.907
L346.275 270.664
L350.748 268.017
L354.326 265.706
L357.904 263.459
L362.377 260.483
L365.956 258.169
L374.902 252.401
L376.691 251.163
L380.269 248.749
L384.742 245.533
L389.215 242.459
L391.004 241.178
L393.688 239.284
L398.161 235.98
L401.739 233.403
L403.528 232.074
L410.685 226.943
L414.264 224.222
L416.947 222.06
L420.526 219.33
L422.315 217.883
L424.999 215.678
L426.788 214.234
L433.05 208.915
L435.734 206.731
L439.312 203.625
L441.996 201.387
L445.574 198.099
L448.258 195.806
L450.942 193.476
L456.309 188.606
L458.993 186.207
L475.096 170.533
L475.096 170.533" style="fill:none;stroke:#bf00bf;stroke-linecap:square;"/>
   </g>
   <g id="line2d_13">
    <path clip-path="url(#p2118423672)" d="
M28.6956 368.741
L41.2199 368.411
L52.8495 367.883
L66.2684 367.037
L75.2143 366.268
L84.1602 365.28
L93.106 364.135
L102.947 362.663
L113.682 360.781
L124.417 358.703
L135.152 356.432
L145.887 353.965
L153.938 351.945
L157.516 351.009
L169.146 347.842
L176.303 345.733
L194.195 339.938
L206.719 335.476
L212.981 333.1
L226.4 327.745
L233.557 324.646
L241.608 320.99
L244.292 319.696
L248.765 317.532
L251.448 316.188
L259.5 312.224
L262.183 310.794
L264.867 309.369
L269.34 306.908
L278.286 301.868
L280.97 300.307
L286.337 297.136
L291.705 293.909
L294.389 292.287
L303.335 286.984
L306.913 284.708
L314.964 279.625
L317.648 277.886
L320.332 276.134
L322.121 274.938
L324.805 273.186
L326.594 271.977
L331.961 268.518
L333.751 267.308
L342.696 261.41
L344.486 260.14
L349.853 256.455
L356.115 251.97
L362.377 247.243
L365.061 245.284
L373.112 239.496
L377.585 236.248
L379.375 234.872
L381.164 233.491
L384.742 230.718
L387.426 228.671
L391.899 225.311
L394.583 223.126
L396.372 221.677
L398.161 220.214
L401.739 217.366
L403.528 215.889
L408.001 212.372
L409.791 210.849
L414.264 207.107
L416.947 204.706
L418.737 203.156
L422.315 200.126
L424.999 197.723
L426.788 196.124
L433.05 190.353
L435.734 187.957
L439.312 184.548
L441.996 182.115
L447.363 176.816
L450.942 173.496
L456.309 168.155
L458.098 166.369
L459.888 164.588
L467.939 156.017
L469.728 154.188
L471.517 152.227
L473.306 150.344
L475.096 148.336
L475.096 148.336" style="fill:none;stroke:#bfbf00;stroke-linecap:square;"/>
   </g>
   <g id="line2d_14">
    <path clip-path="url(#p2118423672)" d="
M28.6956 368.741
L41.2199 368.376
L51.9549 367.831
L62.69 367.066
L72.5305 366.106
L84.1602 364.677
L92.2115 363.506
L102.947 361.757
L115.471 359.401
L125.311 357.318
L136.046 354.859
L146.781 352.156
L153.044 350.419
L163.779 347.347
L172.724 344.519
L177.197 343.012
L192.405 337.652
L195.089 336.592
L202.246 333.724
L212.086 329.648
L214.77 328.429
L224.611 323.963
L231.767 320.517
L238.029 317.27
L242.502 314.886
L249.659 310.954
L262.183 303.805
L266.656 301.069
L270.235 298.742
L272.918 297.025
L281.864 291.272
L284.548 289.492
L288.126 287.129
L290.81 285.244
L297.967 280.519
L300.651 278.668
L304.229 276.199
L309.597 272.477
L314.07 269.315
L316.753 267.295
L320.332 264.705
L322.121 263.357
L324.805 261.391
L326.594 260.033
L331.961 256.137
L333.751 254.785
L342.696 248.186
L344.486 246.749
L350.748 241.875
L352.537 240.415
L356.115 237.526
L360.588 233.737
L364.167 230.833
L365.956 229.324
L374.902 222.066
L376.691 220.528
L380.269 217.564
L383.848 214.329
L388.32 210.546
L391.899 207.42
L394.583 204.954
L396.372 203.323
L398.161 201.691
L401.739 198.527
L403.528 196.897
L410.685 190.549
L414.264 187.211
L416.947 184.561
L418.737 182.826
L422.315 179.446
L424.999 176.734
L426.788 174.941
L431.261 170.248
L432.155 169.424
L433.945 167.583
L435.734 165.748
L439.312 161.948
L441.996 159.235
L445.574 155.289
L449.153 151.664
L450.942 149.749
L456.309 143.886
L458.098 141.94
L459.888 139.988
L475.096 122.229
L475.096 122.229" style="fill:none;stroke:#000000;stroke-linecap:square;"/>
   </g>
   <g id="line2d_15">
    <path clip-path="url(#p2118423672)" d="
M28.6956 368.741
L40.3253 368.391
L50.1658 367.879
L60.9008 367.096
L70.7413 366.098
L78.7926 365.062
L87.7385 363.7
L94.8952 362.452
L102.052 361.039
L110.998 359.048
L119.944 356.912
L127.995 354.835
L136.941 352.337
L140.519 351.267
L146.781 349.357
L152.149 347.565
L157.516 345.758
L165.568 342.956
L173.619 340.008
L177.197 338.568
L189.722 333.444
L195.984 330.651
L198.668 329.384
L210.297 323.951
L213.876 322.145
L222.821 317.585
L232.662 312.27
L235.346 310.711
L240.713 307.542
L246.975 303.738
L250.554 301.387
L258.605 296.28
L263.078 293.251
L265.762 291.365
L268.446 289.444
L271.129 287.493
L275.602 284.268
L277.391 282.888
L281.864 279.549
L284.548 277.493
L288.126 274.715
L290.81 272.472
L295.283 268.923
L301.545 263.886
L305.124 260.884
L306.913 259.329
L312.28 254.825
L314.964 252.5
L316.753 250.926
L320.332 247.79
L322.121 246.175
L324.805 243.789
L326.594 242.147
L331.961 237.394
L333.751 235.734
L338.223 231.679
L345.38 225.119
L347.169 223.374
L350.748 220.032
L352.537 218.232
L356.115 214.711
L360.588 210.133
L364.167 206.603
L365.956 204.766
L371.323 199.482
L377.585 193.315
L379.375 191.443
L381.164 189.57
L383.848 186.682
L388.32 182.126
L391.899 178.434
L394.583 175.5
L396.372 173.56
L398.161 171.605
L401.739 167.825
L403.528 165.894
L412.474 156.502
L416.053 152.321
L417.842 150.461
L419.631 148.404
L422.315 145.399
L424.999 142.24
L426.788 140.181
L431.261 134.748
L432.155 133.791
L433.945 131.664
L435.734 129.557
L437.523 127.284
L440.207 124.165
L447.363 115.307
L450.047 112.285
L454.52 106.618
L457.204 103.392
L461.677 97.6482
L463.466 95.4393
L475.096 80.0473
L475.096 80.0473" style="fill:none;stroke:#0000ff;stroke-linecap:square;"/>
   </g>
   <g id="line2d_16">
    <path clip-path="url(#p2118423672)" d="
M28.6956 368.741
L40.3253 368.378
L49.2712 367.882
L60.0062 367.021
L70.7413 365.906
L79.6872 364.789
L87.7385 363.603
L97.579 361.993
L115.471 358.36
L121.733 356.882
L129.784 354.844
L136.046 353.104
L144.992 350.409
L150.36 348.611
L159.306 345.504
L166.462 342.827
L173.619 340.001
L178.987 337.685
L187.038 334.178
L194.195 330.813
L198.668 328.596
L211.192 322.263
L225.505 314.421
L236.24 308.213
L238.924 306.561
L246.081 302.185
L258.605 294.246
L263.078 291.289
L265.762 289.454
L269.34 286.95
L278.286 280.685
L280.97 278.762
L288.126 273.556
L290.81 271.448
L297.967 266.123
L299.756 264.718
L305.124 260.572
L306.913 259.129
L311.386 255.707
L313.175 254.242
L314.964 252.757
L317.648 250.586
L320.332 248.381
L322.121 246.867
L324.805 244.629
L326.594 243.091
L330.172 240.175
L332.856 237.789
L340.013 231.703
L343.591 228.498
L350.748 222.038
L352.537 220.31
L356.115 216.963
L360.588 212.517
L364.167 209.067
L365.956 207.279
L374.902 198.645
L376.691 196.823
L380.269 193.234
L383.848 189.35
L387.426 185.666
L391.899 181.04
L394.583 178.058
L396.372 176.1
L398.161 174.134
L401.739 170.276
L403.528 168.302
L412.474 158.733
L416.053 154.41
L418.737 151.35
L422.315 147.248
L424.999 143.987
L426.788 141.848
L431.261 136.191
L433.945 132.989
L435.734 130.79
L437.523 128.429
L439.312 126.201
L441.996 122.905
L448.258 114.767
L450.047 112.591
L454.52 106.552
L457.204 103.119
L461.677 96.8938
L463.466 94.4973
L475.096 77.6695
L475.096 77.6695" style="fill:none;stroke:#008000;stroke-linecap:square;"/>
   </g>
   <g id="patch_3">
    <path d="
M28.6956 23.1417
L475.096 23.1417" style="fill:none;stroke:#000000;stroke-linecap:square;stroke-linejoin:miter;"/>
   </g>
   <g id="patch_4">
    <path d="
M475.096 368.742
L475.096 23.1417" style="fill:none;stroke:#000000;stroke-linecap:square;stroke-linejoin:miter;"/>
   </g>
   <g id="patch_5">
    <path d="
M28.6956 368.742
L475.096 368.742" style="fill:none;stroke:#000000;stroke-linecap:square;stroke-linejoin:miter;"/>
   </g>
   <g id="patch_6">
    <path d="
M28.6956 368.742
L28.6956 23.1417" style="fill:none;stroke:#000000;stroke-linecap:square;stroke-linejoin:miter;"/>
   </g>
   <g id="matplotlib.axis_1">
    <g id="xtick_1">
     <g id="line2d_17">
      <defs>
       <path d="
M0 0
L0 -4" id="m93b0483c22" style="stroke:#000000;stroke-width:0.5;"/>
      </defs>
      <g>
       <use style="stroke:#000000;stroke-width:0.5;" x="28.695625" xlink:href="#m93b0483c22" y="368.74175"/>
      </g>
     </g>
     <g id="line2d_18">
      <defs>
       <path d="
M0 0
L0 4" id="m741efc42ff" style="stroke:#000000;stroke-width:0.5;"/>
      </defs>
      <g>
       <use style="stroke:#000000;stroke-width:0.5;" x="28.695625" xlink:href="#m741efc42ff" y="23.14175"/>
      </g>
     </g>
     <g id="text_1">
      <!-- 0 -->
      <defs>
       <path d="
M31.7812 66.4062
Q24.1719 66.4062 20.3281 58.9062
Q16.5 51.4219 16.5 36.375
Q16.5 21.3906 20.3281 13.8906
Q24.1719 6.39062 31.7812 6.39062
Q39.4531 6.39062 43.2812 13.8906
Q47.125 21.3906 47.125 36.375
Q47.125 51.4219 43.2812 58.9062
Q39.4531 66.4062 31.7812 66.4062
M31.7812 74.2188
Q44.0469 74.2188 50.5156 64.5156
Q56.9844 54.8281 56.9844 36.375
Q56.9844 17.9688 50.5156 8.26562
Q44.0469 -1.42188 31.7812 -1.42188
Q19.5312 -1.42188 13.0625 8.26562
Q6.59375 17.9688 6.59375 36.375
Q6.59375 54.8281 13.0625 64.5156
Q19.5312 74.2188 31.7812 74.2188" id="DejaVuSans-30"/>
      </defs>
      <g transform="translate(25.6721875 381.859875)scale(0.12 -0.12)">
       <use xlink:href="#DejaVuSans-30"/>
      </g>
     </g>
    </g>
    <g id="xtick_2">
     <g id="line2d_19">
      <g>
       <use style="stroke:#000000;stroke-width:0.5;" x="118.154542836" xlink:href="#m93b0483c22" y="368.74175"/>
      </g>
     </g>
     <g id="line2d_20">
      <g>
       <use style="stroke:#000000;stroke-width:0.5;" x="118.154542836" xlink:href="#m741efc42ff" y="23.14175"/>
      </g>
     </g>
     <g id="text_2">
      <!-- 100 -->
      <defs>
       <path d="
M12.4062 8.29688
L28.5156 8.29688
L28.5156 63.9219
L10.9844 60.4062
L10.9844 69.3906
L28.4219 72.9062
L38.2812 72.9062
L38.2812 8.29688
L54.3906 8.29688
L54.3906 0
L12.4062 0
z
" id="DejaVuSans-31"/>
      </defs>
      <g transform="translate(107.759542836 381.859875)scale(0.12 -0.12)">
       <use xlink:href="#DejaVuSans-31"/>
       <use x="63.623046875" xlink:href="#DejaVuSans-30"/>
       <use x="127.24609375" xlink:href="#DejaVuSans-30"/>
      </g>
     </g>
    </g>
    <g id="xtick_3">
     <g id="line2d_21">
      <g>
       <use style="stroke:#000000;stroke-width:0.5;" x="207.613460671" xlink:href="#m93b0483c22" y="368.74175"/>
      </g>
     </g>
     <g id="line2d_22">
      <g>
       <use style="stroke:#000000;stroke-width:0.5;" x="207.613460671" xlink:href="#m741efc42ff" y="23.14175"/>
      </g>
     </g>
     <g id="text_3">
      <!-- 200 -->
      <defs>
       <path d="
M19.1875 8.29688
L53.6094 8.29688
L53.6094 0
L7.32812 0
L7.32812 8.29688
Q12.9375 14.1094 22.625 23.8906
Q32.3281 33.6875 34.8125 36.5312
Q39.5469 41.8438 41.4219 45.5312
Q43.3125 49.2188 43.3125 52.7812
Q43.3125 58.5938 39.2344 62.25
Q35.1562 65.9219 28.6094 65.9219
Q23.9688 65.9219 18.8125 64.3125
Q13.6719 62.7031 7.8125 59.4219
L7.8125 69.3906
Q13.7656 71.7812 18.9375 73
Q24.125 74.2188 28.4219 74.2188
Q39.75 74.2188 46.4844 68.5469
Q53.2188 62.8906 53.2188 53.4219
Q53.2188 48.9219 51.5312 44.8906
Q49.8594 40.875 45.4062 35.4062
Q44.1875 33.9844 37.6406 27.2188
Q31.1094 20.4531 19.1875 8.29688" id="DejaVuSans-32"/>
      </defs>
      <g transform="translate(196.999085671 381.859875)scale(0.12 -0.12)">
       <use xlink:href="#DejaVuSans-32"/>
       <use x="63.623046875" xlink:href="#DejaVuSans-30"/>
       <use x="127.24609375" xlink:href="#DejaVuSans-30"/>
      </g>
     </g>
    </g>
    <g id="xtick_4">
     <g id="line2d_23">
      <g>
       <use style="stroke:#000000;stroke-width:0.5;" x="297.072378507" xlink:href="#m93b0483c22" y="368.74175"/>
      </g>
     </g>
     <g id="line2d_24">
      <g>
       <use style="stroke:#000000;stroke-width:0.5;" x="297.072378507" xlink:href="#m741efc42ff" y="23.14175"/>
      </g>
     </g>
     <g id="text_4">
      <!-- 300 -->
      <defs>
       <path d="
M40.5781 39.3125
Q47.6562 37.7969 51.625 33
Q55.6094 28.2188 55.6094 21.1875
Q55.6094 10.4062 48.1875 4.48438
Q40.7656 -1.42188 27.0938 -1.42188
Q22.5156 -1.42188 17.6562 -0.515625
Q12.7969 0.390625 7.625 2.20312
L7.625 11.7188
Q11.7188 9.32812 16.5938 8.10938
Q21.4844 6.89062 26.8125 6.89062
Q36.0781 6.89062 40.9375 10.5469
Q45.7969 14.2031 45.7969 21.1875
Q45.7969 27.6406 41.2812 31.2656
Q36.7656 34.9062 28.7188 34.9062
L20.2188 34.9062
L20.2188 43.0156
L29.1094 43.0156
Q36.375 43.0156 40.2344 45.9219
Q44.0938 48.8281 44.0938 54.2969
Q44.0938 59.9062 40.1094 62.9062
Q36.1406 65.9219 28.7188 65.9219
Q24.6562 65.9219 20.0156 65.0312
Q15.375 64.1562 9.8125 62.3125
L9.8125 71.0938
Q15.4375 72.6562 20.3438 73.4375
Q25.25 74.2188 29.5938 74.2188
Q40.8281 74.2188 47.3594 69.1094
Q53.9062 64.0156 53.9062 55.3281
Q53.9062 49.2656 50.4375 45.0938
Q46.9688 40.9219 40.5781 39.3125" id="DejaVuSans-33"/>
      </defs>
      <g transform="translate(286.475816007 381.859875)scale(0.12 -0.12)">
       <use xlink:href="#DejaVuSans-33"/>
       <use x="63.623046875" xlink:href="#DejaVuSans-30"/>
       <use x="127.24609375" xlink:href="#DejaVuSans-30"/>
      </g>
     </g>
    </g>
    <g id="xtick_5">
     <g id="line2d_25">
      <g>
       <use style="stroke:#000000;stroke-width:0.5;" x="386.531296343" xlink:href="#m93b0483c22" y="368.74175"/>
      </g>
     </g>
     <g id="line2d_26">
      <g>
       <use style="stroke:#000000;stroke-width:0.5;" x="386.531296343" xlink:href="#m741efc42ff" y="23.14175"/>
      </g>
     </g>
     <g id="text_5">
      <!-- 400 -->
      <defs>
       <path d="
M37.7969 64.3125
L12.8906 25.3906
L37.7969 25.3906
z

M35.2031 72.9062
L47.6094 72.9062
L47.6094 25.3906
L58.0156 25.3906
L58.0156 17.1875
L47.6094 17.1875
L47.6094 0
L37.7969 0
L37.7969 17.1875
L4.89062 17.1875
L4.89062 26.7031
z
" id="DejaVuSans-34"/>
      </defs>
      <g transform="translate(375.770671343 381.859875)scale(0.12 -0.12)">
       <use xlink:href="#DejaVuSans-34"/>
       <use x="63.623046875" xlink:href="#DejaVuSans-30"/>
       <use x="127.24609375" xlink:href="#DejaVuSans-30"/>
      </g>
     </g>
    </g>
    <g id="text_6">
     <!-- time -->
     <defs>
      <path d="
M18.3125 70.2188
L18.3125 54.6875
L36.8125 54.6875
L36.8125 47.7031
L18.3125 47.7031
L18.3125 18.0156
Q18.3125 11.3281 20.1406 9.42188
Q21.9688 7.51562 27.5938 7.51562
L36.8125 7.51562
L36.8125 0
L27.5938 0
Q17.1875 0 13.2344 3.875
Q9.28125 7.76562 9.28125 18.0156
L9.28125 47.7031
L2.6875 47.7031
L2.6875 54.6875
L9.28125 54.6875
L9.28125 70.2188
z
" id="DejaVuSans-74"/>
      <path d="
M52 44.1875
Q55.375 50.25 60.0625 53.125
Q64.75 56 71.0938 56
Q79.6406 56 84.2812 50.0156
Q88.9219 44.0469 88.9219 33.0156
L88.9219 0
L79.8906 0
L79.8906 32.7188
Q79.8906 40.5781 77.0938 44.375
Q74.3125 48.1875 68.6094 48.1875
Q61.625 48.1875 57.5625 43.5469
Q53.5156 38.9219 53.5156 30.9062
L53.5156 0
L44.4844 0
L44.4844 32.7188
Q44.4844 40.625 41.7031 44.4062
Q38.9219 48.1875 33.1094 48.1875
Q26.2188 48.1875 22.1562 43.5312
Q18.1094 38.875 18.1094 30.9062
L18.1094 0
L9.07812 0
L9.07812 54.6875
L18.1094 54.6875
L18.1094 46.1875
Q21.1875 51.2188 25.4844 53.6094
Q29.7812 56 35.6875 56
Q41.6562 56 45.8281 52.9688
Q50 49.9531 52 44.1875" id="DejaVuSans-6d"/>
      <path d="
M56.2031 29.5938
L56.2031 25.2031
L14.8906 25.2031
Q15.4844 15.9219 20.4844 11.0625
Q25.4844 6.20312 34.4219 6.20312
Q39.5938 6.20312 44.4531 7.46875
Q49.3125 8.73438 54.1094 11.2812
L54.1094 2.78125
Q49.2656 0.734375 44.1875 -0.34375
Q39.1094 -1.42188 33.8906 -1.42188
Q20.7969 -1.42188 13.1562 6.1875
Q5.51562 13.8125 5.51562 26.8125
Q5.51562 40.2344 12.7656 48.1094
Q20.0156 56 32.3281 56
Q43.3594 56 49.7812 48.8906
Q56.2031 41.7969 56.2031 29.5938
M47.2188 32.2344
Q47.125 39.5938 43.0938 43.9844
Q39.0625 48.3906 32.4219 48.3906
Q24.9062 48.3906 20.3906 44.1406
Q15.875 39.8906 15.1875 32.1719
z
" id="DejaVuSans-65"/>
      <path d="
M9.42188 54.6875
L18.4062 54.6875
L18.4062 0
L9.42188 0
z

M9.42188 75.9844
L18.4062 75.9844
L18.4062 64.5938
L9.42188 64.5938
z
" id="DejaVuSans-69"/>
     </defs>
     <g transform="translate(238.82125 398.473625)scale(0.12 -0.12)">
      <use xlink:href="#DejaVuSans-74"/>
      <use x="39.208984375" xlink:href="#DejaVuSans-69"/>
      <use x="66.9921875" xlink:href="#DejaVuSans-6d"/>
      <use x="164.404296875" xlink:href="#DejaVuSans-65"/>
     </g>
    </g>
   </g>
   <g id="matplotlib.axis_2">
    <g id="ytick_1">
     <g id="line2d_27">
      <defs>
       <path d="
M0 0
L4 0" id="m728421d6d4" style="stroke:#000000;stroke-width:0.5;"/>
      </defs>
      <g>
       <use style="stroke:#000000;stroke-width:0.5;" x="28.695625" xlink:href="#m728421d6d4" y="368.74175"/>
      </g>
     </g>
     <g id="line2d_28">
      <defs>
       <path d="
M0 0
L-4 0" id="mcb0005524f" style="stroke:#000000;stroke-width:0.5;"/>
      </defs>
      <g>
       <use style="stroke:#000000;stroke-width:0.5;" x="475.095625" xlink:href="#mcb0005524f" y="368.74175"/>
      </g>
     </g>
     <g id="text_7">
      <!-- 0.0 -->
      <defs>
       <path d="
M10.6875 12.4062
L21 12.4062
L21 0
L10.6875 0
z
" id="DejaVuSans-2e"/>
      </defs>
      <g transform="translate(7.2 372.053)scale(0.12 -0.12)">
       <use xlink:href="#DejaVuSans-30"/>
       <use x="63.623046875" xlink:href="#DejaVuSans-2e"/>
       <use x="95.41015625" xlink:href="#DejaVuSans-30"/>
      </g>
     </g>
    </g>
    <g id="ytick_2">
     <g id="line2d_29">
      <g>
       <use style="stroke:#000000;stroke-width:0.5;" x="28.695625" xlink:href="#m728421d6d4" y="319.370321429"/>
      </g>
     </g>
     <g id="line2d_30">
      <g>
       <use style="stroke:#000000;stroke-width:0.5;" x="475.095625" xlink:href="#mcb0005524f" y="319.370321429"/>
      </g>
     </g>
     <g id="text_8">
      <!-- 0.5 -->
      <defs>
       <path d="
M10.7969 72.9062
L49.5156 72.9062
L49.5156 64.5938
L19.8281 64.5938
L19.8281 46.7344
Q21.9688 47.4688 24.1094 47.8281
Q26.2656 48.1875 28.4219 48.1875
Q40.625 48.1875 47.75 41.5
Q54.8906 34.8125 54.8906 23.3906
Q54.8906 11.625 47.5625 5.09375
Q40.2344 -1.42188 26.9062 -1.42188
Q22.3125 -1.42188 17.5469 -0.640625
Q12.7969 0.140625 7.71875 1.70312
L7.71875 11.625
Q12.1094 9.23438 16.7969 8.0625
Q21.4844 6.89062 26.7031 6.89062
Q35.1562 6.89062 40.0781 11.3281
Q45.0156 15.7656 45.0156 23.3906
Q45.0156 31 40.0781 35.4375
Q35.1562 39.8906 26.7031 39.8906
Q22.75 39.8906 18.8125 39.0156
Q14.8906 38.1406 10.7969 36.2812
z
" id="DejaVuSans-35"/>
      </defs>
      <g transform="translate(7.45125 322.681571429)scale(0.12 -0.12)">
       <use xlink:href="#DejaVuSans-30"/>
       <use x="63.623046875" xlink:href="#DejaVuSans-2e"/>
       <use x="95.41015625" xlink:href="#DejaVuSans-35"/>
      </g>
     </g>
    </g>
    <g id="ytick_3">
     <g id="line2d_31">
      <g>
       <use style="stroke:#000000;stroke-width:0.5;" x="28.695625" xlink:href="#m728421d6d4" y="269.998892857"/>
      </g>
     </g>
     <g id="line2d_32">
      <g>
       <use style="stroke:#000000;stroke-width:0.5;" x="475.095625" xlink:href="#mcb0005524f" y="269.998892857"/>
      </g>
     </g>
     <g id="text_9">
      <!-- 1.0 -->
      <g transform="translate(7.726875 273.310142857)scale(0.12 -0.12)">
       <use xlink:href="#DejaVuSans-31"/>
       <use x="63.623046875" xlink:href="#DejaVuSans-2e"/>
       <use x="95.41015625" xlink:href="#DejaVuSans-30"/>
      </g>
     </g>
    </g>
    <g id="ytick_4">
     <g id="line2d_33">
      <g>
       <use style="stroke:#000000;stroke-width:0.5;" x="28.695625" xlink:href="#m728421d6d4" y="220.627464286"/>
      </g>
     </g>
     <g id="line2d_34">
      <g>
       <use style="stroke:#000000;stroke-width:0.5;" x="475.095625" xlink:href="#mcb0005524f" y="220.627464286"/>
      </g>
     </g>
     <g id="text_10">
      <!-- 1.5 -->
      <g transform="translate(7.978125 223.938714286)scale(0.12 -0.12)">
       <use xlink:href="#DejaVuSans-31"/>
       <use x="63.623046875" xlink:href="#DejaVuSans-2e"/>
       <use x="95.41015625" xlink:href="#DejaVuSans-35"/>
      </g>
     </g>
    </g>
    <g id="ytick_5">
     <g id="line2d_35">
      <g>
       <use style="stroke:#000000;stroke-width:0.5;" x="28.695625" xlink:href="#m728421d6d4" y="171.256035714"/>
      </g>
     </g>
     <g id="line2d_36">
      <g>
       <use style="stroke:#000000;stroke-width:0.5;" x="475.095625" xlink:href="#mcb0005524f" y="171.256035714"/>
      </g>
     </g>
     <g id="text_11">
      <!-- 2.0 -->
      <g transform="translate(7.288125 174.567285714)scale(0.12 -0.12)">
       <use xlink:href="#DejaVuSans-32"/>
       <use x="63.623046875" xlink:href="#DejaVuSans-2e"/>
       <use x="95.41015625" xlink:href="#DejaVuSans-30"/>
      </g>
     </g>
    </g>
    <g id="ytick_6">
     <g id="line2d_37">
      <g>
       <use style="stroke:#000000;stroke-width:0.5;" x="28.695625" xlink:href="#m728421d6d4" y="121.884607143"/>
      </g>
     </g>
     <g id="line2d_38">
      <g>
       <use style="stroke:#000000;stroke-width:0.5;" x="475.095625" xlink:href="#mcb0005524f" y="121.884607143"/>
      </g>
     </g>
     <g id="text_12">
      <!-- 2.5 -->
      <g transform="translate(7.539375 125.195857143)scale(0.12 -0.12)">
       <use xlink:href="#DejaVuSans-32"/>
       <use x="63.623046875" xlink:href="#DejaVuSans-2e"/>
       <use x="95.41015625" xlink:href="#DejaVuSans-35"/>
      </g>
     </g>
    </g>
    <g id="ytick_7">
     <g id="line2d_39">
      <g>
       <use style="stroke:#000000;stroke-width:0.5;" x="28.695625" xlink:href="#m728421d6d4" y="72.5131785714"/>
      </g>
     </g>
     <g id="line2d_40">
      <g>
       <use style="stroke:#000000;stroke-width:0.5;" x="475.095625" xlink:href="#mcb0005524f" y="72.5131785714"/>
      </g>
     </g>
     <g id="text_13">
      <!-- 3.0 -->
      <g transform="translate(7.32375 75.8244285714)scale(0.12 -0.12)">
       <use xlink:href="#DejaVuSans-33"/>
       <use x="63.623046875" xlink:href="#DejaVuSans-2e"/>
       <use x="95.41015625" xlink:href="#DejaVuSans-30"/>
      </g>
     </g>
    </g>
    <g id="ytick_8">
     <g id="line2d_41">
      <g>
       <use style="stroke:#000000;stroke-width:0.5;" x="28.695625" xlink:href="#m728421d6d4" y="23.14175"/>
      </g>
     </g>
     <g id="line2d_42">
      <g>
       <use style="stroke:#000000;stroke-width:0.5;" x="475.095625" xlink:href="#mcb0005524f" y="23.14175"/>
      </g>
     </g>
     <g id="text_14">
      <!-- 3.5 -->
      <g transform="translate(7.575 26.453)scale(0.12 -0.12)">
       <use xlink:href="#DejaVuSans-33"/>
       <use x="63.623046875" xlink:href="#DejaVuSans-2e"/>
       <use x="95.41015625" xlink:href="#DejaVuSans-35"/>
      </g>
     </g>
    </g>
    <g id="text_15">
     <!-- 1e11 -->
     <g transform="translate(28.695625 20.14175)scale(0.12 -0.12)">
      <use xlink:href="#DejaVuSans-31"/>
      <use x="63.623046875" xlink:href="#DejaVuSans-65"/>
      <use x="125.146484375" xlink:href="#DejaVuSans-31"/>
      <use x="188.76953125" xlink:href="#DejaVuSans-31"/>
     </g>
    </g>
   </g>
   <g id="text_16">
    <!-- /agas/time/cache/get_entry -->
    <defs>
     <path d="
M25.3906 72.9062
L33.6875 72.9062
L8.29688 -9.28125
L0 -9.28125
z
" id="DejaVuSans-2f"/>
     <path d="
M54.8906 33.0156
L54.8906 0
L45.9062 0
L45.9062 32.7188
Q45.9062 40.4844 42.875 44.3281
Q39.8438 48.1875 33.7969 48.1875
Q26.5156 48.1875 22.3125 43.5469
Q18.1094 38.9219 18.1094 30.9062
L18.1094 0
L9.07812 0
L9.07812 54.6875
L18.1094 54.6875
L18.1094 46.1875
Q21.3438 51.125 25.7031 53.5625
Q30.0781 56 35.7969 56
Q45.2188 56 50.0469 50.1719
Q54.8906 44.3438 54.8906 33.0156" id="DejaVuSans-6e"/>
     <path d="
M50.9844 -16.6094
L50.9844 -23.5781
L-0.984375 -23.5781
L-0.984375 -16.6094
z
" id="DejaVuSans-5f"/>
     <path d="
M32.1719 -5.07812
Q28.375 -14.8438 24.75 -17.8125
Q21.1406 -20.7969 15.0938 -20.7969
L7.90625 -20.7969
L7.90625 -13.2812
L13.1875 -13.2812
Q16.8906 -13.2812 18.9375 -11.5156
Q21 -9.76562 23.4844 -3.21875
L25.0938 0.875
L2.98438 54.6875
L12.5 54.6875
L29.5938 11.9219
L46.6875 54.6875
L56.2031 54.6875
z
" id="DejaVuSans-79"/>
     <path d="
M54.8906 33.0156
L54.8906 0
L45.9062 0
L45.9062 32.7188
Q45.9062 40.4844 42.875 44.3281
Q39.8438 48.1875 33.7969 48.1875
Q26.5156 48.1875 22.3125 43.5469
Q18.1094 38.9219 18.1094 30.9062
L18.1094 0
L9.07812 0
L9.07812 75.9844
L18.1094 75.9844
L18.1094 46.1875
Q21.3438 51.125 25.7031 53.5625
Q30.0781 56 35.7969 56
Q45.2188 56 50.0469 50.1719
Q54.8906 44.3438 54.8906 33.0156" id="DejaVuSans-68"/>
     <path d="
M45.4062 27.9844
Q45.4062 37.75 41.375 43.1094
Q37.3594 48.4844 30.0781 48.4844
Q22.8594 48.4844 18.8281 43.1094
Q14.7969 37.75 14.7969 27.9844
Q14.7969 18.2656 18.8281 12.8906
Q22.8594 7.51562 30.0781 7.51562
Q37.3594 7.51562 41.375 12.8906
Q45.4062 18.2656 45.4062 27.9844
M54.3906 6.78125
Q54.3906 -7.17188 48.1875 -13.9844
Q42 -20.7969 29.2031 -20.7969
Q24.4688 -20.7969 20.2656 -20.0938
Q16.0625 -19.3906 12.1094 -17.9219
L12.1094 -9.1875
Q16.0625 -11.3281 19.9219 -12.3438
Q23.7812 -13.375 27.7812 -13.375
Q36.625 -13.375 41.0156 -8.76562
Q45.4062 -4.15625 45.4062 5.17188
L45.4062 9.625
Q42.625 4.78125 38.2812 2.39062
Q33.9375 0 27.875 0
Q17.8281 0 11.6719 7.65625
Q5.51562 15.3281 5.51562 27.9844
Q5.51562 40.6719 11.6719 48.3281
Q17.8281 56 27.875 56
Q33.9375 56 38.2812 53.6094
Q42.625 51.2188 45.4062 46.3906
L45.4062 54.6875
L54.3906 54.6875
z
" id="DejaVuSans-67"/>
     <path d="
M41.1094 46.2969
Q39.5938 47.1719 37.8125 47.5781
Q36.0312 48 33.8906 48
Q26.2656 48 22.1875 43.0469
Q18.1094 38.0938 18.1094 28.8125
L18.1094 0
L9.07812 0
L9.07812 54.6875
L18.1094 54.6875
L18.1094 46.1875
Q20.9531 51.1719 25.4844 53.5781
Q30.0312 56 36.5312 56
Q37.4531 56 38.5781 55.875
Q39.7031 55.7656 41.0625 55.5156
z
" id="DejaVuSans-72"/>
     <path d="
M48.7812 52.5938
L48.7812 44.1875
Q44.9688 46.2969 41.1406 47.3438
Q37.3125 48.3906 33.4062 48.3906
Q24.6562 48.3906 19.8125 42.8438
Q14.9844 37.3125 14.9844 27.2969
Q14.9844 17.2812 19.8125 11.7344
Q24.6562 6.20312 33.4062 6.20312
Q37.3125 6.20312 41.1406 7.25
Q44.9688 8.29688 48.7812 10.4062
L48.7812 2.09375
Q45.0156 0.34375 40.9844 -0.53125
Q36.9688 -1.42188 32.4219 -1.42188
Q20.0625 -1.42188 12.7812 6.34375
Q5.51562 14.1094 5.51562 27.2969
Q5.51562 40.6719 12.8594 48.3281
Q20.2188 56 33.0156 56
Q37.1562 56 41.1094 55.1406
Q45.0625 54.2969 48.7812 52.5938" id="DejaVuSans-63"/>
     <path d="
M44.2812 53.0781
L44.2812 44.5781
Q40.4844 46.5312 36.375 47.5
Q32.2812 48.4844 27.875 48.4844
Q21.1875 48.4844 17.8438 46.4375
Q14.5 44.3906 14.5 40.2812
Q14.5 37.1562 16.8906 35.375
Q19.2812 33.5938 26.5156 31.9844
L29.5938 31.2969
Q39.1562 29.25 43.1875 25.5156
Q47.2188 21.7812 47.2188 15.0938
Q47.2188 7.46875 41.1875 3.01562
Q35.1562 -1.42188 24.6094 -1.42188
Q20.2188 -1.42188 15.4531 -0.5625
Q10.6875 0.296875 5.42188 2
L5.42188 11.2812
Q10.4062 8.6875 15.2344 7.39062
Q20.0625 6.10938 24.8125 6.10938
Q31.1562 6.10938 34.5625 8.28125
Q37.9844 10.4531 37.9844 14.4062
Q37.9844 18.0625 35.5156 20.0156
Q33.0625 21.9688 24.7031 23.7812
L21.5781 24.5156
Q13.2344 26.2656 9.51562 29.9062
Q5.8125 33.5469 5.8125 39.8906
Q5.8125 47.6094 11.2812 51.7969
Q16.75 56 26.8125 56
Q31.7812 56 36.1719 55.2656
Q40.5781 54.5469 44.2812 53.0781" id="DejaVuSans-73"/>
     <path d="
M34.2812 27.4844
Q23.3906 27.4844 19.1875 25
Q14.9844 22.5156 14.9844 16.5
Q14.9844 11.7188 18.1406 8.90625
Q21.2969 6.10938 26.7031 6.10938
Q34.1875 6.10938 38.7031 11.4062
Q43.2188 16.7031 43.2188 25.4844
L43.2188 27.4844
z

M52.2031 31.2031
L52.2031 0
L43.2188 0
L43.2188 8.29688
Q40.1406 3.32812 35.5469 0.953125
Q30.9531 -1.42188 24.3125 -1.42188
Q15.9219 -1.42188 10.9531 3.29688
Q6 8.01562 6 15.9219
Q6 25.1406 12.1719 29.8281
Q18.3594 34.5156 30.6094 34.5156
L43.2188 34.5156
L43.2188 35.4062
Q43.2188 41.6094 39.1406 45
Q35.0625 48.3906 27.6875 48.3906
Q23 48.3906 18.5469 47.2656
Q14.1094 46.1406 10.0156 43.8906
L10.0156 52.2031
Q14.9375 54.1094 19.5781 55.0469
Q24.2188 56 28.6094 56
Q40.4844 56 46.3438 49.8438
Q52.2031 43.7031 52.2031 31.2031" id="DejaVuSans-61"/>
    </defs>
    <g transform="translate(153.21175 18.14175)scale(0.144 -0.144)">
     <use xlink:href="#DejaVuSans-2f"/>
     <use x="33.69140625" xlink:href="#DejaVuSans-61"/>
     <use x="94.970703125" xlink:href="#DejaVuSans-67"/>
     <use x="158.447265625" xlink:href="#DejaVuSans-61"/>
     <use x="219.7265625" xlink:href="#DejaVuSans-73"/>
     <use x="271.826171875" xlink:href="#DejaVuSans-2f"/>
     <use x="305.517578125" xlink:href="#DejaVuSans-74"/>
     <use x="344.7265625" xlink:href="#DejaVuSans-69"/>
     <use x="372.509765625" xlink:href="#DejaVuSans-6d"/>
     <use x="469.921875" xlink:href="#DejaVuSans-65"/>
     <use x="531.4453125" xlink:href="#DejaVuSans-2f"/>
     <use x="565.13671875" xlink:href="#DejaVuSans-63"/>
     <use x="620.1171875" xlink:href="#DejaVuSans-61"/>
     <use x="681.396484375" xlink:href="#DejaVuSans-63"/>
     <use x="736.376953125" xlink:href="#DejaVuSans-68"/>
     <use x="799.755859375" xlink:href="#DejaVuSans-65"/>
     <use x="861.279296875" xlink:href="#DejaVuSans-2f"/>
     <use x="894.970703125" xlink:href="#DejaVuSans-67"/>
     <use x="958.447265625" xlink:href="#DejaVuSans-65"/>
     <use x="1019.97070312" xlink:href="#DejaVuSans-74"/>
     <use x="1059.1796875" xlink:href="#DejaVuSans-5f"/>
     <use x="1109.1796875" xlink:href="#DejaVuSans-65"/>
     <use x="1170.703125" xlink:href="#DejaVuSans-6e"/>
     <use x="1234.08203125" xlink:href="#DejaVuSans-74"/>
     <use x="1273.29101562" xlink:href="#DejaVuSans-72"/>
     <use x="1314.40429688" xlink:href="#DejaVuSans-79"/>
    </g>
   </g>
   <g id="legend_1">
    <g id="patch_7">
     <path d="
M482.296 367.194
L614.085 367.194
L614.085 24.6897
L482.296 24.6897
z
" style="fill:#ffffff;stroke:#000000;stroke-linejoin:miter;"/>
    </g>
    <g id="line2d_43">
     <path d="
M492.376 36.3515
L512.536 36.3515" style="fill:none;stroke:#0000ff;stroke-linecap:square;"/>
    </g>
    <g id="line2d_44"/>
    <g id="text_17">
     <!-- locality#0 -->
     <defs>
      <path d="
M30.6094 48.3906
Q23.3906 48.3906 19.1875 42.75
Q14.9844 37.1094 14.9844 27.2969
Q14.9844 17.4844 19.1562 11.8438
Q23.3438 6.20312 30.6094 6.20312
Q37.7969 6.20312 41.9844 11.8594
Q46.1875 17.5312 46.1875 27.2969
Q46.1875 37.0156 41.9844 42.7031
Q37.7969 48.3906 30.6094 48.3906
M30.6094 56
Q42.3281 56 49.0156 48.375
Q55.7188 40.7656 55.7188 27.2969
Q55.7188 13.875 49.0156 6.21875
Q42.3281 -1.42188 30.6094 -1.42188
Q18.8438 -1.42188 12.1719 6.21875
Q5.51562 13.875 5.51562 27.2969
Q5.51562 40.7656 12.1719 48.375
Q18.8438 56 30.6094 56" id="DejaVuSans-6f"/>
      <path d="
M51.125 44
L36.9219 44
L32.8125 27.6875
L47.125 27.6875
z

M43.7969 71.7812
L38.7188 51.5156
L52.9844 51.5156
L58.1094 71.7812
L65.9219 71.7812
L60.8906 51.5156
L76.125 51.5156
L76.125 44
L58.9844 44
L54.9844 27.6875
L70.5156 27.6875
L70.5156 20.2188
L53.0781 20.2188
L48 0
L40.1875 0
L45.2188 20.2188
L30.9062 20.2188
L25.875 0
L18.0156 0
L23.0938 20.2188
L7.71875 20.2188
L7.71875 27.6875
L24.9062 27.6875
L29 44
L13.2812 44
L13.2812 51.5156
L30.9062 51.5156
L35.8906 71.7812
z
" id="DejaVuSans-23"/>
      <path d="
M9.42188 75.9844
L18.4062 75.9844
L18.4062 0
L9.42188 0
z
" id="DejaVuSans-6c"/>
     </defs>
     <g transform="translate(528.375625 41.3915)scale(0.144 -0.144)">
      <use xlink:href="#DejaVuSans-6c"/>
      <use x="27.783203125" xlink:href="#DejaVuSans-6f"/>
      <use x="88.96484375" xlink:href="#DejaVuSans-63"/>
      <use x="143.9453125" xlink:href="#DejaVuSans-61"/>
      <use x="205.224609375" xlink:href="#DejaVuSans-6c"/>
      <use x="233.0078125" xlink:href="#DejaVuSans-69"/>
      <use x="260.791015625" xlink:href="#DejaVuSans-74"/>
      <use x="300.0" xlink:href="#DejaVuSans-79"/>
      <use x="359.1796875" xlink:href="#DejaVuSans-23"/>
      <use x="442.96875" xlink:href="#DejaVuSans-30"/>
     </g>
    </g>
    <g id="line2d_45">
     <path d="
M492.376 57.488
L512.536 57.488" style="fill:none;stroke:#008000;stroke-linecap:square;"/>
    </g>
    <g id="line2d_46"/>
    <g id="text_18">
     <!-- locality#1 -->
     <g transform="translate(528.375625 62.528)scale(0.144 -0.144)">
      <use xlink:href="#DejaVuSans-6c"/>
      <use x="27.783203125" xlink:href="#DejaVuSans-6f"/>
      <use x="88.96484375" xlink:href="#DejaVuSans-63"/>
      <use x="143.9453125" xlink:href="#DejaVuSans-61"/>
      <use x="205.224609375" xlink:href="#DejaVuSans-6c"/>
      <use x="233.0078125" xlink:href="#DejaVuSans-69"/>
      <use x="260.791015625" xlink:href="#DejaVuSans-74"/>
      <use x="300.0" xlink:href="#DejaVuSans-79"/>
      <use x="359.1796875" xlink:href="#DejaVuSans-23"/>
      <use x="442.96875" xlink:href="#DejaVuSans-31"/>
     </g>
    </g>
    <g id="line2d_47">
     <path d="
M492.376 78.6245
L512.536 78.6245" style="fill:none;stroke:#ff0000;stroke-linecap:square;"/>
    </g>
    <g id="line2d_48"/>
    <g id="text_19">
     <!-- locality#10 -->
     <g transform="translate(528.375625 83.6645)scale(0.144 -0.144)">
      <use xlink:href="#DejaVuSans-6c"/>
      <use x="27.783203125" xlink:href="#DejaVuSans-6f"/>
      <use x="88.96484375" xlink:href="#DejaVuSans-63"/>
      <use x="143.9453125" xlink:href="#DejaVuSans-61"/>
      <use x="205.224609375" xlink:href="#DejaVuSans-6c"/>
      <use x="233.0078125" xlink:href="#DejaVuSans-69"/>
      <use x="260.791015625" xlink:href="#DejaVuSans-74"/>
      <use x="300.0" xlink:href="#DejaVuSans-79"/>
      <use x="359.1796875" xlink:href="#DejaVuSans-23"/>
      <use x="442.96875" xlink:href="#DejaVuSans-31"/>
      <use x="506.591796875" xlink:href="#DejaVuSans-30"/>
     </g>
    </g>
    <g id="line2d_49">
     <path d="
M492.376 99.761
L512.536 99.761" style="fill:none;stroke:#00bfbf;stroke-linecap:square;"/>
    </g>
    <g id="line2d_50"/>
    <g id="text_20">
     <!-- locality#11 -->
     <g transform="translate(528.375625 104.801)scale(0.144 -0.144)">
      <use xlink:href="#DejaVuSans-6c"/>
      <use x="27.783203125" xlink:href="#DejaVuSans-6f"/>
      <use x="88.96484375" xlink:href="#DejaVuSans-63"/>
      <use x="143.9453125" xlink:href="#DejaVuSans-61"/>
      <use x="205.224609375" xlink:href="#DejaVuSans-6c"/>
      <use x="233.0078125" xlink:href="#DejaVuSans-69"/>
      <use x="260.791015625" xlink:href="#DejaVuSans-74"/>
      <use x="300.0" xlink:href="#DejaVuSans-79"/>
      <use x="359.1796875" xlink:href="#DejaVuSans-23"/>
      <use x="442.96875" xlink:href="#DejaVuSans-31"/>
      <use x="506.591796875" xlink:href="#DejaVuSans-31"/>
     </g>
    </g>
    <g id="line2d_51">
     <path d="
M492.376 120.897
L512.536 120.897" style="fill:none;stroke:#bf00bf;stroke-linecap:square;"/>
    </g>
    <g id="line2d_52"/>
    <g id="text_21">
     <!-- locality#12 -->
     <g transform="translate(528.375625 125.9375)scale(0.144 -0.144)">
      <use xlink:href="#DejaVuSans-6c"/>
      <use x="27.783203125" xlink:href="#DejaVuSans-6f"/>
      <use x="88.96484375" xlink:href="#DejaVuSans-63"/>
      <use x="143.9453125" xlink:href="#DejaVuSans-61"/>
      <use x="205.224609375" xlink:href="#DejaVuSans-6c"/>
      <use x="233.0078125" xlink:href="#DejaVuSans-69"/>
      <use x="260.791015625" xlink:href="#DejaVuSans-74"/>
      <use x="300.0" xlink:href="#DejaVuSans-79"/>
      <use x="359.1796875" xlink:href="#DejaVuSans-23"/>
      <use x="442.96875" xlink:href="#DejaVuSans-31"/>
      <use x="506.591796875" xlink:href="#DejaVuSans-32"/>
     </g>
    </g>
    <g id="line2d_53">
     <path d="
M492.376 142.034
L512.536 142.034" style="fill:none;stroke:#bfbf00;stroke-linecap:square;"/>
    </g>
    <g id="line2d_54"/>
    <g id="text_22">
     <!-- locality#13 -->
     <g transform="translate(528.375625 147.074)scale(0.144 -0.144)">
      <use xlink:href="#DejaVuSans-6c"/>
      <use x="27.783203125" xlink:href="#DejaVuSans-6f"/>
      <use x="88.96484375" xlink:href="#DejaVuSans-63"/>
      <use x="143.9453125" xlink:href="#DejaVuSans-61"/>
      <use x="205.224609375" xlink:href="#DejaVuSans-6c"/>
      <use x="233.0078125" xlink:href="#DejaVuSans-69"/>
      <use x="260.791015625" xlink:href="#DejaVuSans-74"/>
      <use x="300.0" xlink:href="#DejaVuSans-79"/>
      <use x="359.1796875" xlink:href="#DejaVuSans-23"/>
      <use x="442.96875" xlink:href="#DejaVuSans-31"/>
      <use x="506.591796875" xlink:href="#DejaVuSans-33"/>
     </g>
    </g>
    <g id="line2d_55">
     <path d="
M492.376 163.17
L512.536 163.17" style="fill:none;stroke:#000000;stroke-linecap:square;"/>
    </g>
    <g id="line2d_56"/>
    <g id="text_23">
     <!-- locality#14 -->
     <g transform="translate(528.375625 168.2105)scale(0.144 -0.144)">
      <use xlink:href="#DejaVuSans-6c"/>
      <use x="27.783203125" xlink:href="#DejaVuSans-6f"/>
      <use x="88.96484375" xlink:href="#DejaVuSans-63"/>
      <use x="143.9453125" xlink:href="#DejaVuSans-61"/>
      <use x="205.224609375" xlink:href="#DejaVuSans-6c"/>
      <use x="233.0078125" xlink:href="#DejaVuSans-69"/>
      <use x="260.791015625" xlink:href="#DejaVuSans-74"/>
      <use x="300.0" xlink:href="#DejaVuSans-79"/>
      <use x="359.1796875" xlink:href="#DejaVuSans-23"/>
      <use x="442.96875" xlink:href="#DejaVuSans-31"/>
      <use x="506.591796875" xlink:href="#DejaVuSans-34"/>
     </g>
    </g>
    <g id="line2d_57">
     <path d="
M492.376 184.307
L512.536 184.307" style="fill:none;stroke:#0000ff;stroke-linecap:square;"/>
    </g>
    <g id="line2d_58"/>
    <g id="text_24">
     <!-- locality#15 -->
     <g transform="translate(528.375625 189.347)scale(0.144 -0.144)">
      <use xlink:href="#DejaVuSans-6c"/>
      <use x="27.783203125" xlink:href="#DejaVuSans-6f"/>
      <use x="88.96484375" xlink:href="#DejaVuSans-63"/>
      <use x="143.9453125" xlink:href="#DejaVuSans-61"/>
      <use x="205.224609375" xlink:href="#DejaVuSans-6c"/>
      <use x="233.0078125" xlink:href="#DejaVuSans-69"/>
      <use x="260.791015625" xlink:href="#DejaVuSans-74"/>
      <use x="300.0" xlink:href="#DejaVuSans-79"/>
      <use x="359.1796875" xlink:href="#DejaVuSans-23"/>
      <use x="442.96875" xlink:href="#DejaVuSans-31"/>
      <use x="506.591796875" xlink:href="#DejaVuSans-35"/>
     </g>
    </g>
    <g id="line2d_59">
     <path d="
M492.376 205.443
L512.536 205.443" style="fill:none;stroke:#008000;stroke-linecap:square;"/>
    </g>
    <g id="line2d_60"/>
    <g id="text_25">
     <!-- locality#2 -->
     <g transform="translate(528.375625 210.4835)scale(0.144 -0.144)">
      <use xlink:href="#DejaVuSans-6c"/>
      <use x="27.783203125" xlink:href="#DejaVuSans-6f"/>
      <use x="88.96484375" xlink:href="#DejaVuSans-63"/>
      <use x="143.9453125" xlink:href="#DejaVuSans-61"/>
      <use x="205.224609375" xlink:href="#DejaVuSans-6c"/>
      <use x="233.0078125" xlink:href="#DejaVuSans-69"/>
      <use x="260.791015625" xlink:href="#DejaVuSans-74"/>
      <use x="300.0" xlink:href="#DejaVuSans-79"/>
      <use x="359.1796875" xlink:href="#DejaVuSans-23"/>
      <use x="442.96875" xlink:href="#DejaVuSans-32"/>
     </g>
    </g>
    <g id="line2d_61">
     <path d="
M492.376 226.58
L512.536 226.58" style="fill:none;stroke:#ff0000;stroke-linecap:square;"/>
    </g>
    <g id="line2d_62"/>
    <g id="text_26">
     <!-- locality#3 -->
     <g transform="translate(528.375625 231.62)scale(0.144 -0.144)">
      <use xlink:href="#DejaVuSans-6c"/>
      <use x="27.783203125" xlink:href="#DejaVuSans-6f"/>
      <use x="88.96484375" xlink:href="#DejaVuSans-63"/>
      <use x="143.9453125" xlink:href="#DejaVuSans-61"/>
      <use x="205.224609375" xlink:href="#DejaVuSans-6c"/>
      <use x="233.0078125" xlink:href="#DejaVuSans-69"/>
      <use x="260.791015625" xlink:href="#DejaVuSans-74"/>
      <use x="300.0" xlink:href="#DejaVuSans-79"/>
      <use x="359.1796875" xlink:href="#DejaVuSans-23"/>
      <use x="442.96875" xlink:href="#DejaVuSans-33"/>
     </g>
    </g>
    <g id="line2d_63">
     <path d="
M492.376 247.716
L512.536 247.716" style="fill:none;stroke:#00bfbf;stroke-linecap:square;"/>
    </g>
    <g id="line2d_64"/>
    <g id="text_27">
     <!-- locality#4 -->
     <g transform="translate(528.375625 252.7565)scale(0.144 -0.144)">
      <use xlink:href="#DejaVuSans-6c"/>
      <use x="27.783203125" xlink:href="#DejaVuSans-6f"/>
      <use x="88.96484375" xlink:href="#DejaVuSans-63"/>
      <use x="143.9453125" xlink:href="#DejaVuSans-61"/>
      <use x="205.224609375" xlink:href="#DejaVuSans-6c"/>
      <use x="233.0078125" xlink:href="#DejaVuSans-69"/>
      <use x="260.791015625" xlink:href="#DejaVuSans-74"/>
      <use x="300.0" xlink:href="#DejaVuSans-79"/>
      <use x="359.1796875" xlink:href="#DejaVuSans-23"/>
      <use x="442.96875" xlink:href="#DejaVuSans-34"/>
     </g>
    </g>
    <g id="line2d_65">
     <path d="
M492.376 268.853
L512.536 268.853" style="fill:none;stroke:#bf00bf;stroke-linecap:square;"/>
    </g>
    <g id="line2d_66"/>
    <g id="text_28">
     <!-- locality#5 -->
     <g transform="translate(528.375625 273.893)scale(0.144 -0.144)">
      <use xlink:href="#DejaVuSans-6c"/>
      <use x="27.783203125" xlink:href="#DejaVuSans-6f"/>
      <use x="88.96484375" xlink:href="#DejaVuSans-63"/>
      <use x="143.9453125" xlink:href="#DejaVuSans-61"/>
      <use x="205.224609375" xlink:href="#DejaVuSans-6c"/>
      <use x="233.0078125" xlink:href="#DejaVuSans-69"/>
      <use x="260.791015625" xlink:href="#DejaVuSans-74"/>
      <use x="300.0" xlink:href="#DejaVuSans-79"/>
      <use x="359.1796875" xlink:href="#DejaVuSans-23"/>
      <use x="442.96875" xlink:href="#DejaVuSans-35"/>
     </g>
    </g>
    <g id="line2d_67">
     <path d="
M492.376 289.989
L512.536 289.989" style="fill:none;stroke:#bfbf00;stroke-linecap:square;"/>
    </g>
    <g id="line2d_68"/>
    <g id="text_29">
     <!-- locality#6 -->
     <defs>
      <path d="
M33.0156 40.375
Q26.375 40.375 22.4844 35.8281
Q18.6094 31.2969 18.6094 23.3906
Q18.6094 15.5312 22.4844 10.9531
Q26.375 6.39062 33.0156 6.39062
Q39.6562 6.39062 43.5312 10.9531
Q47.4062 15.5312 47.4062 23.3906
Q47.4062 31.2969 43.5312 35.8281
Q39.6562 40.375 33.0156 40.375
M52.5938 71.2969
L52.5938 62.3125
Q48.875 64.0625 45.0938 64.9844
Q41.3125 65.9219 37.5938 65.9219
Q27.8281 65.9219 22.6719 59.3281
Q17.5312 52.7344 16.7969 39.4062
Q19.6719 43.6562 24.0156 45.9219
Q28.375 48.1875 33.5938 48.1875
Q44.5781 48.1875 50.9531 41.5156
Q57.3281 34.8594 57.3281 23.3906
Q57.3281 12.1562 50.6875 5.35938
Q44.0469 -1.42188 33.0156 -1.42188
Q20.3594 -1.42188 13.6719 8.26562
Q6.98438 17.9688 6.98438 36.375
Q6.98438 53.6562 15.1875 63.9375
Q23.3906 74.2188 37.2031 74.2188
Q40.9219 74.2188 44.7031 73.4844
Q48.4844 72.75 52.5938 71.2969" id="DejaVuSans-36"/>
     </defs>
     <g transform="translate(528.375625 295.0295)scale(0.144 -0.144)">
      <use xlink:href="#DejaVuSans-6c"/>
      <use x="27.783203125" xlink:href="#DejaVuSans-6f"/>
      <use x="88.96484375" xlink:href="#DejaVuSans-63"/>
      <use x="143.9453125" xlink:href="#DejaVuSans-61"/>
      <use x="205.224609375" xlink:href="#DejaVuSans-6c"/>
      <use x="233.0078125" xlink:href="#DejaVuSans-69"/>
      <use x="260.791015625" xlink:href="#DejaVuSans-74"/>
      <use x="300.0" xlink:href="#DejaVuSans-79"/>
      <use x="359.1796875" xlink:href="#DejaVuSans-23"/>
      <use x="442.96875" xlink:href="#DejaVuSans-36"/>
     </g>
    </g>
    <g id="line2d_69">
     <path d="
M492.376 311.126
L512.536 311.126" style="fill:none;stroke:#000000;stroke-linecap:square;"/>
    </g>
    <g id="line2d_70"/>
    <g id="text_30">
     <!-- locality#7 -->
     <defs>
      <path d="
M8.20312 72.9062
L55.0781 72.9062
L55.0781 68.7031
L28.6094 0
L18.3125 0
L43.2188 64.5938
L8.20312 64.5938
z
" id="DejaVuSans-37"/>
     </defs>
     <g transform="translate(528.375625 316.166)scale(0.144 -0.144)">
      <use xlink:href="#DejaVuSans-6c"/>
      <use x="27.783203125" xlink:href="#DejaVuSans-6f"/>
      <use x="88.96484375" xlink:href="#DejaVuSans-63"/>
      <use x="143.9453125" xlink:href="#DejaVuSans-61"/>
      <use x="205.224609375" xlink:href="#DejaVuSans-6c"/>
      <use x="233.0078125" xlink:href="#DejaVuSans-69"/>
      <use x="260.791015625" xlink:href="#DejaVuSans-74"/>
      <use x="300.0" xlink:href="#DejaVuSans-79"/>
      <use x="359.1796875" xlink:href="#DejaVuSans-23"/>
      <use x="442.96875" xlink:href="#DejaVuSans-37"/>
     </g>
    </g>
    <g id="line2d_71">
     <path d="
M492.376 332.262
L512.536 332.262" style="fill:none;stroke:#0000ff;stroke-linecap:square;"/>
    </g>
    <g id="line2d_72"/>
    <g id="text_31">
     <!-- locality#8 -->
     <defs>
      <path d="
M31.7812 34.625
Q24.75 34.625 20.7188 30.8594
Q16.7031 27.0938 16.7031 20.5156
Q16.7031 13.9219 20.7188 10.1562
Q24.75 6.39062 31.7812 6.39062
Q38.8125 6.39062 42.8594 10.1719
Q46.9219 13.9688 46.9219 20.5156
Q46.9219 27.0938 42.8906 30.8594
Q38.875 34.625 31.7812 34.625
M21.9219 38.8125
Q15.5781 40.375 12.0312 44.7188
Q8.5 49.0781 8.5 55.3281
Q8.5 64.0625 14.7188 69.1406
Q20.9531 74.2188 31.7812 74.2188
Q42.6719 74.2188 48.875 69.1406
Q55.0781 64.0625 55.0781 55.3281
Q55.0781 49.0781 51.5312 44.7188
Q48 40.375 41.7031 38.8125
Q48.8281 37.1562 52.7969 32.3125
Q56.7812 27.4844 56.7812 20.5156
Q56.7812 9.90625 50.3125 4.23438
Q43.8438 -1.42188 31.7812 -1.42188
Q19.7344 -1.42188 13.25 4.23438
Q6.78125 9.90625 6.78125 20.5156
Q6.78125 27.4844 10.7812 32.3125
Q14.7969 37.1562 21.9219 38.8125
M18.3125 54.3906
Q18.3125 48.7344 21.8438 45.5625
Q25.3906 42.3906 31.7812 42.3906
Q38.1406 42.3906 41.7188 45.5625
Q45.3125 48.7344 45.3125 54.3906
Q45.3125 60.0625 41.7188 63.2344
Q38.1406 66.4062 31.7812 66.4062
Q25.3906 66.4062 21.8438 63.2344
Q18.3125 60.0625 18.3125 54.3906" id="DejaVuSans-38"/>
     </defs>
     <g transform="translate(528.375625 337.3025)scale(0.144 -0.144)">
      <use xlink:href="#DejaVuSans-6c"/>
      <use x="27.783203125" xlink:href="#DejaVuSans-6f"/>
      <use x="88.96484375" xlink:href="#DejaVuSans-63"/>
      <use x="143.9453125" xlink:href="#DejaVuSans-61"/>
      <use x="205.224609375" xlink:href="#DejaVuSans-6c"/>
      <use x="233.0078125" xlink:href="#DejaVuSans-69"/>
      <use x="260.791015625" xlink:href="#DejaVuSans-74"/>
      <use x="300.0" xlink:href="#DejaVuSans-79"/>
      <use x="359.1796875" xlink:href="#DejaVuSans-23"/>
      <use x="442.96875" xlink:href="#DejaVuSans-38"/>
     </g>
    </g>
    <g id="line2d_73">
     <path d="
M492.376 353.399
L512.536 353.399" style="fill:none;stroke:#008000;stroke-linecap:square;"/>
    </g>
    <g id="line2d_74"/>
    <g id="text_32">
     <!-- locality#9 -->
     <defs>
      <path d="
M10.9844 1.51562
L10.9844 10.5
Q14.7031 8.73438 18.5 7.8125
Q22.3125 6.89062 25.9844 6.89062
Q35.75 6.89062 40.8906 13.4531
Q46.0469 20.0156 46.7812 33.4062
Q43.9531 29.2031 39.5938 26.9531
Q35.25 24.7031 29.9844 24.7031
Q19.0469 24.7031 12.6719 31.3125
Q6.29688 37.9375 6.29688 49.4219
Q6.29688 60.6406 12.9375 67.4219
Q19.5781 74.2188 30.6094 74.2188
Q43.2656 74.2188 49.9219 64.5156
Q56.5938 54.8281 56.5938 36.375
Q56.5938 19.1406 48.4062 8.85938
Q40.2344 -1.42188 26.4219 -1.42188
Q22.7031 -1.42188 18.8906 -0.6875
Q15.0938 0.046875 10.9844 1.51562
M30.6094 32.4219
Q37.25 32.4219 41.125 36.9531
Q45.0156 41.5 45.0156 49.4219
Q45.0156 57.2812 41.125 61.8438
Q37.25 66.4062 30.6094 66.4062
Q23.9688 66.4062 20.0938 61.8438
Q16.2188 57.2812 16.2188 49.4219
Q16.2188 41.5 20.0938 36.9531
Q23.9688 32.4219 30.6094 32.4219" id="DejaVuSans-39"/>
     </defs>
     <g transform="translate(528.375625 358.439)scale(0.144 -0.144)">
      <use xlink:href="#DejaVuSans-6c"/>
      <use x="27.783203125" xlink:href="#DejaVuSans-6f"/>
      <use x="88.96484375" xlink:href="#DejaVuSans-63"/>
      <use x="143.9453125" xlink:href="#DejaVuSans-61"/>
      <use x="205.224609375" xlink:href="#DejaVuSans-6c"/>
      <use x="233.0078125" xlink:href="#DejaVuSans-69"/>
      <use x="260.791015625" xlink:href="#DejaVuSans-74"/>
      <use x="300.0" xlink:href="#DejaVuSans-79"/>
      <use x="359.1796875" xlink:href="#DejaVuSans-23"/>
      <use x="442.96875" xlink:href="#DejaVuSans-39"/>
     </g>
    </g>
   </g>
  </g>
 </g>
 <defs>
  <clipPath id="p2118423672">
   <rect height="345.6" width="446.4" x="28.695625" y="23.14175"/>
  </clipPath>
 </defs>
</svg>
