<?xml version="1.0" encoding="utf-8" standalone="no"?>
<!DOCTYPE svg PUBLIC "-//W3C//DTD SVG 1.1//EN"
  "http://www.w3.org/Graphics/SVG/1.1/DTD/svg11.dtd">
<!-- Created with matplotlib (http://matplotlib.org/) -->
<svg height="408pt" version="1.1" viewBox="0 0 624 408" width="624pt" xmlns="http://www.w3.org/2000/svg" xmlns:xlink="http://www.w3.org/1999/xlink">
 <defs>
  <style type="text/css">
*{stroke-linecap:butt;stroke-linejoin:round;}
  </style>
 </defs>
 <g id="figure_1">
  <g id="patch_1">
   <path d="
M0 408.169
L624.579 408.169
L624.579 0
L0 0
z
" style="fill:#ffffff;"/>
  </g>
  <g id="axes_1">
   <g id="patch_2">
    <path d="
M31.99 368.742
L478.39 368.742
L478.39 23.1417
L31.99 23.1417
z
" style="fill:#ffffff;"/>
   </g>
   <g id="line2d_1">
    <path clip-path="url(#p77ac736e8d)" d="
M31.99 347.142
L32.189 342.822
L37.3635 342.822
L37.7616 338.502
L45.9213 338.502
L46.1204 334.182
L55.4743 334.182
L55.6733 332.022
L63.037 332.022
L63.236 327.702
L72.5899 327.702
L72.7889 323.382
L80.9487 323.382
L81.1477 319.062
L92.4918 319.062
L92.6908 316.902
L106.025 316.902
L106.224 314.742
L107.816 314.742
L108.015 312.582
L114.384 312.582
L114.583 308.262
L121.549 308.262
L121.748 306.102
L134.286 306.102
L134.485 303.942
L137.271 303.942
L137.47 295.302
L147.421 295.302
L147.62 293.142
L149.212 293.142
L149.411 288.822
L158.964 288.822
L159.163 280.182
L169.91 280.182
L170.109 273.702
L183.643 273.702
L183.842 271.542
L193.594 271.542
L193.793 265.062
L223.844 265.062
L224.043 254.262
L253.1 254.262
L253.299 249.942
L259.469 249.942
L259.668 247.782
L280.366 247.782
L280.565 236.982
L296.685 236.982
L296.885 232.662
L312.01 232.662
L312.209 226.182
L335.295 226.182
L335.494 224.022
L342.261 224.022
L342.46 221.862
L343.455 221.862
L343.654 213.222
L379.876 213.222
L380.075 211.062
L381.269 211.062
L381.468 206.742
L411.122 206.742
L411.321 204.582
L418.485 204.582
L418.684 202.422
L436.596 202.422
L436.795 187.302
L468.24 187.302
L468.439 185.142
L473.813 185.142
L474.012 170.022
L478.39 170.022
L478.39 170.022" style="fill:none;stroke:#0000ff;stroke-linecap:square;"/>
   </g>
   <g id="line2d_2">
    <path clip-path="url(#p77ac736e8d)" d="
M31.99 357.942
L32.189 347.142
L44.7272 347.142
L44.9262 344.982
L52.688 344.982
L52.887 340.662
L58.4595 340.662
L58.6586 334.182
L69.8036 334.182
L70.0027 332.022
L77.9634 332.022
L78.1624 329.862
L85.9242 329.862
L86.1232 323.382
L99.2585 323.382
L99.4575 321.222
L109.408 321.222
L109.607 310.422
L134.286 310.422
L134.485 303.942
L140.256 303.942
L140.455 295.302
L150.804 295.302
L151.003 293.142
L162.547 293.142
L162.746 284.502
L176.279 284.502
L176.478 282.342
L183.245 282.342
L183.444 275.862
L210.709 275.862
L210.908 273.702
L225.437 273.702
L225.636 271.542
L244.941 271.542
L245.14 267.222
L249.717 267.222
L249.916 252.102
L275.191 252.102
L275.39 245.622
L305.84 245.622
L306.039 241.302
L312.607 241.302
L312.806 228.342
L344.052 228.342
L344.251 217.542
L366.939 217.542
L367.138 215.382
L379.876 215.382
L380.075 211.062
L416.694 211.062
L416.893 208.902
L419.878 208.902
L420.077 206.742
L444.358 206.742
L444.557 204.582
L457.294 204.582
L457.493 193.782
L462.269 193.782
L462.468 178.662
L478.39 178.662
L478.39 178.662" style="fill:none;stroke:#008000;stroke-linecap:square;"/>
   </g>
   <g id="line2d_3">
    <path clip-path="url(#p77ac736e8d)" d="
M31.99 357.942
L32.189 351.462
L37.9606 351.462
L38.1596 349.302
L42.737 349.302
L42.9361 344.982
L47.5135 344.982
L47.7125 342.822
L51.0958 342.822
L51.2949 338.502
L54.6782 338.502
L54.8772 336.342
L59.8527 336.342
L60.0517 334.182
L65.8233 334.182
L66.0223 332.022
L71.7938 332.022
L71.9929 329.862
L75.9732 329.862
L76.1723 327.702
L77.7644 327.702
L77.9634 323.382
L83.1379 323.382
L83.3369 316.902
L88.3124 316.902
L88.5114 314.742
L90.7007 314.742
L90.8997 303.942
L95.8752 303.942
L96.0742 301.782
L101.05 301.782
L101.249 290.982
L111.598 290.982
L111.797 282.342
L126.325 282.342
L126.524 278.022
L129.509 278.022
L129.708 269.382
L135.48 269.382
L135.679 265.062
L141.849 265.062
L142.048 262.902
L146.426 262.902
L146.625 258.582
L150.207 258.582
L150.406 245.622
L165.134 245.622
L165.333 241.302
L175.881 241.302
L176.08 239.142
L177.871 239.142
L178.07 230.502
L191.006 230.502
L191.205 228.342
L192.797 228.342
L192.997 226.182
L199.564 226.182
L199.763 224.022
L205.535 224.022
L205.734 221.862
L213.097 221.862
L213.296 213.222
L225.835 213.222
L226.034 211.062
L236.184 211.062
L236.383 204.582
L238.174 204.582
L238.373 198.102
L249.518 198.102
L249.717 195.942
L256.683 195.942
L256.882 193.782
L260.464 193.782
L260.663 185.142
L266.435 185.142
L266.634 178.662
L273.997 178.662
L274.196 172.182
L295.093 172.182
L295.292 161.382
L320.568 161.382
L320.767 157.062
L333.305 157.062
L333.504 152.742
L336.091 152.742
L336.29 144.102
L348.829 144.102
L349.028 135.462
L355.993 135.462
L356.192 124.662
L375.298 124.662
L375.497 118.182
L390.424 118.182
L390.623 113.862
L397.986 113.862
L398.185 109.542
L405.151 109.542
L405.35 107.382
L415.898 107.382
L416.097 96.5817
L438.586 96.5817
L438.785 87.9417
L461.473 87.9417
L461.672 83.6217
L478.39 83.6217
L478.39 83.6217" style="fill:none;stroke:#ff0000;stroke-linecap:square;"/>
   </g>
   <g id="line2d_4">
    <path clip-path="url(#p77ac736e8d)" d="
M31.99 357.942
L32.189 353.622
L38.1596 353.622
L38.3586 349.302
L41.941 349.302
L42.14 344.982
L47.5135 344.982
L47.7125 340.662
L51.8919 340.662
L52.0909 336.342
L56.8674 336.342
L57.0664 329.862
L63.037 329.862
L63.236 319.062
L66.8184 319.062
L67.0174 312.582
L72.3909 312.582
L72.5899 310.422
L76.7693 310.422
L76.9683 306.102
L84.9291 306.102
L85.1281 301.782
L93.885 301.782
L94.084 299.622
L100.055 299.622
L100.254 295.302
L109.209 295.302
L109.408 267.222
L119.956 267.222
L120.155 265.062
L123.937 265.062
L124.136 260.742
L129.708 260.742
L129.907 249.942
L135.281 249.942
L135.48 245.622
L147.819 245.622
L148.018 243.462
L148.814 243.462
L149.013 232.662
L158.964 232.662
L159.163 230.502
L163.343 230.502
L163.542 211.062
L178.866 211.062
L179.065 208.902
L187.225 208.902
L187.424 206.742
L189.613 206.742
L189.812 195.942
L214.889 195.942
L215.088 193.782
L224.442 193.782
L224.641 178.662
L245.538 178.662
L245.737 170.022
L267.43 170.022
L267.629 167.862
L273.599 167.862
L273.798 154.902
L294.894 154.902
L295.093 150.582
L306.238 150.582
L306.437 139.782
L328.33 139.782
L328.529 131.142
L353.804 131.142
L354.003 128.982
L354.799 128.982
L354.998 124.662
L367.735 124.662
L367.934 116.022
L392.414 116.022
L392.613 113.862
L394.205 113.862
L394.404 105.222
L411.122 105.222
L411.321 92.2617
L442.169 92.2617
L442.368 90.1017
L454.508 90.1017
L454.707 87.9417
L459.682 87.9417
L459.881 81.4617
L478.39 81.4617
L478.39 81.4617" style="fill:none;stroke:#00bfbf;stroke-linecap:square;"/>
   </g>
   <g id="line2d_5">
    <path clip-path="url(#p77ac736e8d)" d="
M31.99 357.942
L32.189 353.622
L38.7567 353.622
L38.9557 351.462
L42.14 351.462
L42.339 347.142
L47.5135 347.142
L47.7125 344.982
L54.8772 344.982
L55.0762 336.342
L58.8576 336.342
L59.0566 332.022
L62.838 332.022
L63.037 329.862
L67.6144 329.862
L67.8135 325.542
L72.1919 325.542
L72.3909 323.382
L80.3517 323.382
L80.5507 319.062
L83.735 319.062
L83.934 316.902
L88.3124 316.902
L88.5114 310.422
L92.8899 310.422
L93.0889 306.102
L97.4673 306.102
L97.6663 299.622
L101.448 299.622
L101.647 293.142
L108.612 293.142
L108.811 290.982
L113.787 290.982
L113.986 284.502
L122.146 284.502
L122.345 282.342
L127.718 282.342
L127.917 278.022
L136.276 278.022
L136.475 275.862
L141.65 275.862
L141.849 271.542
L148.416 271.542
L148.615 269.382
L151.601 269.382
L151.8 265.062
L159.362 265.062
L159.561 260.742
L162.547 260.742
L162.746 254.262
L171.701 254.262
L171.9 247.782
L175.284 247.782
L175.483 241.302
L179.861 241.302
L180.06 239.142
L184.638 239.142
L184.837 234.822
L187.822 234.822
L188.021 230.502
L197.176 230.502
L197.375 228.342
L203.744 228.342
L203.943 226.182
L215.486 226.182
L215.685 221.862
L225.039 221.862
L225.238 219.702
L230.611 219.702
L230.81 217.542
L243.348 217.542
L243.547 213.222
L248.125 213.222
L248.324 211.062
L262.454 211.062
L262.653 208.902
L263.847 208.902
L264.046 204.582
L280.366 204.582
L280.565 200.262
L290.516 200.262
L290.715 198.102
L297.88 198.102
L298.079 193.782
L305.84 193.782
L306.039 191.622
L310.617 191.622
L310.816 189.462
L326.538 189.462
L326.737 187.302
L328.927 187.302
L329.126 180.822
L366.342 180.822
L366.541 178.662
L378.681 178.662
L378.88 176.502
L392.016 176.502
L392.215 174.342
L400.374 174.342
L400.574 167.862
L440.775 167.862
L440.974 165.702
L456.1 165.702
L456.299 163.542
L465.454 163.542
L465.653 161.382
L478.39 161.382
L478.39 161.382" style="fill:none;stroke:#bf00bf;stroke-linecap:square;"/>
   </g>
   <g id="line2d_6">
    <path clip-path="url(#p77ac736e8d)" d="
M31.99 357.942
L32.189 353.622
L37.9606 353.622
L38.1596 351.462
L43.1351 351.462
L43.3341 347.142
L48.3096 347.142
L48.5086 340.662
L54.2801 340.662
L54.4792 336.342
L63.8331 336.342
L64.0321 334.182
L71.3958 334.182
L71.5948 327.702
L75.7742 327.702
L75.9732 325.542
L83.3369 325.542
L83.536 321.222
L94.084 321.222
L94.283 319.062
L99.8555 319.062
L100.055 314.742
L104.234 314.742
L104.433 310.422
L114.384 310.422
L114.583 308.262
L117.369 308.262
L117.568 306.102
L120.155 306.102
L120.355 303.942
L131.102 303.942
L131.301 299.622
L134.485 299.622
L134.684 297.462
L142.446 297.462
L142.645 293.142
L146.227 293.142
L146.426 290.982
L153.193 290.982
L153.392 286.662
L161.95 286.662
L162.149 284.502
L164.338 284.502
L164.537 282.342
L174.886 282.342
L175.085 278.022
L185.235 278.022
L185.434 275.862
L193.196 275.862
L193.395 273.702
L209.316 273.702
L209.515 271.542
L219.864 271.542
L220.063 267.222
L229.616 267.222
L229.815 265.062
L239.766 265.062
L239.965 260.742
L250.513 260.742
L250.712 258.582
L259.668 258.582
L259.867 256.422
L263.449 256.422
L263.648 254.262
L272.206 254.262
L272.405 241.302
L301.263 241.302
L301.462 239.142
L310.816 239.142
L311.015 236.982
L326.737 236.982
L326.936 234.822
L340.868 234.822
L341.067 232.662
L347.037 232.662
L347.236 230.502
L356.789 230.502
L356.988 226.182
L377.686 226.182
L377.885 221.862
L409.728 221.862
L409.927 217.542
L443.363 217.542
L443.562 215.382
L444.358 215.382
L444.557 213.222
L469.434 213.222
L469.633 211.062
L478.39 211.062
L478.39 211.062" style="fill:none;stroke:#bfbf00;stroke-linecap:square;"/>
   </g>
   <g id="line2d_7">
    <path clip-path="url(#p77ac736e8d)" d="
M31.99 357.942
L32.189 353.622
L37.7616 353.622
L37.9606 349.302
L44.5282 349.302
L44.7272 340.662
L51.2949 340.662
L51.4939 336.342
L58.8576 336.342
L59.0566 334.182
L68.8085 334.182
L69.0076 329.862
L76.3713 329.862
L76.5703 327.702
L87.9144 327.702
L88.1134 323.382
L98.6614 323.382
L98.8604 321.222
L107.617 321.222
L107.816 319.062
L116.573 319.062
L116.772 316.902
L125.33 316.902
L125.529 314.742
L132.893 314.742
L133.092 308.262
L135.281 308.262
L135.48 306.102
L140.455 306.102
L140.654 303.942
L152.795 303.942
L152.994 297.462
L162.547 297.462
L162.746 295.302
L167.92 295.302
L168.119 293.142
L177.473 293.142
L177.672 290.982
L185.434 290.982
L185.633 288.822
L192.797 288.822
L192.997 286.662
L205.336 286.662
L205.535 284.502
L216.083 284.502
L216.282 282.342
L227.029 282.342
L227.228 280.182
L233.994 280.182
L234.193 278.022
L248.324 278.022
L248.523 275.862
L262.056 275.862
L262.255 273.702
L269.42 273.702
L269.619 265.062
L290.715 265.062
L290.914 262.902
L303.651 262.902
L303.85 260.742
L318.578 260.742
L318.777 258.582
L331.514 258.582
L331.713 256.422
L345.445 256.422
L345.644 254.262
L354.003 254.262
L354.202 252.102
L365.546 252.102
L365.745 241.302
L390.623 241.302
L390.822 234.822
L419.48 234.822
L419.679 232.662
L430.227 232.662
L430.426 230.502
L452.916 230.502
L453.115 228.342
L456.498 228.342
L456.697 226.182
L478.39 226.182
L478.39 226.182" style="fill:none;stroke:#000000;stroke-linecap:square;"/>
   </g>
   <g id="line2d_8">
    <path clip-path="url(#p77ac736e8d)" d="
M31.99 357.942
L32.189 351.462
L41.5429 351.462
L41.7419 349.302
L52.0909 349.302
L52.29 342.822
L59.6537 342.822
L59.8527 340.662
L71.9929 340.662
L72.1919 334.182
L78.7595 334.182
L78.9585 332.022
L87.1183 332.022
L87.3173 329.862
L100.055 329.862
L100.254 327.702
L107.617 327.702
L107.816 325.542
L120.554 325.542
L120.753 323.382
L128.514 323.382
L128.713 321.222
L130.106 321.222
L130.305 319.062
L149.411 319.062
L149.61 316.902
L161.153 316.902
L161.352 314.742
L168.716 314.742
L168.915 312.582
L180.458 312.582
L180.657 310.422
L189.016 310.422
L189.215 308.262
L203.943 308.262
L204.142 306.102
L216.282 306.102
L216.481 303.942
L228.621 303.942
L228.82 299.622
L236.383 299.622
L236.582 293.142
L279.371 293.142
L279.57 290.982
L297.482 290.982
L297.681 288.822
L315.592 288.822
L315.791 286.662
L331.315 286.662
L331.514 284.502
L347.236 284.502
L347.435 282.342
L359.974 282.342
L360.173 275.862
L402.763 275.862
L402.962 273.702
L424.058 273.702
L424.257 271.542
L440.178 271.542
L440.377 269.382
L463.066 269.382
L463.265 267.222
L478.39 267.222
L478.39 267.222" style="fill:none;stroke:#0000ff;stroke-linecap:square;"/>
   </g>
   <g id="line2d_9">
    <path clip-path="url(#p77ac736e8d)" d="
M31.99 357.942
L32.189 347.142
L37.7616 347.142
L37.9606 344.982
L43.5331 344.982
L43.7321 340.662
L57.4645 340.662
L57.6635 338.502
L67.8135 338.502
L68.0125 334.182
L74.7791 334.182
L74.9781 329.862
L81.5458 329.862
L81.7448 319.062
L90.5016 319.062
L90.7007 312.582
L101.846 312.582
L102.045 308.262
L108.612 308.262
L108.811 301.782
L115.379 301.782
L115.578 297.462
L127.32 297.462
L127.519 290.982
L129.509 290.982
L129.708 286.662
L141.849 286.662
L142.048 278.022
L146.824 278.022
L147.023 262.902
L153.989 262.902
L154.188 256.422
L159.362 256.422
L159.561 252.102
L170.308 252.102
L170.507 245.622
L174.886 245.622
L175.085 239.142
L179.861 239.142
L180.06 236.982
L180.856 236.982
L181.055 226.182
L193.992 226.182
L194.191 224.022
L201.156 224.022
L201.355 219.702
L217.277 219.702
L217.476 200.262
L241.358 200.262
L241.557 182.982
L262.653 182.982
L262.852 170.022
L285.54 170.022
L285.739 167.862
L293.7 167.862
L293.899 163.542
L310.219 163.542
L310.418 159.222
L326.737 159.222
L326.936 148.422
L343.057 148.422
L343.256 141.942
L361.168 141.942
L361.367 128.982
L390.424 128.982
L390.623 122.502
L420.873 122.502
L421.072 113.862
L438.984 113.862
L439.183 98.7417
L478.39 98.7417
L478.39 98.7417" style="fill:none;stroke:#008000;stroke-linecap:square;"/>
   </g>
   <g id="line2d_10">
    <path clip-path="url(#p77ac736e8d)" d="
M31.99 357.942
L32.189 349.302
L42.737 349.302
L42.9361 344.982
L49.1056 344.982
L49.3047 342.822
L56.4694 342.822
L56.6684 336.342
L59.6537 336.342
L59.8527 327.702
L71.3958 327.702
L71.5948 323.382
L84.133 323.382
L84.332 321.222
L91.2977 321.222
L91.4967 316.902
L100.652 316.902
L100.851 314.742
L110.006 314.742
L110.205 310.422
L114.981 310.422
L115.18 303.942
L127.121 303.942
L127.32 284.502
L134.883 284.502
L135.082 278.022
L139.659 278.022
L139.858 269.382
L151.202 269.382
L151.402 265.062
L162.746 265.062
L162.945 258.582
L169.512 258.582
L169.711 252.102
L182.847 252.102
L183.046 247.782
L187.623 247.782
L187.822 239.142
L212.699 239.142
L212.898 234.822
L230.412 234.822
L230.611 226.182
L247.926 226.182
L248.125 219.702
L258.673 219.702
L258.872 215.382
L263.051 215.382
L263.25 204.582
L275.788 204.582
L275.988 200.262
L290.317 200.262
L290.516 198.102
L291.511 198.102
L291.71 189.462
L306.835 189.462
L307.034 182.982
L316.786 182.982
L316.985 180.822
L328.131 180.822
L328.33 174.342
L354.003 174.342
L354.202 172.182
L358.381 172.182
L358.58 167.862
L380.871 167.862
L381.07 165.702
L401.768 165.702
L401.967 163.542
L407.34 163.542
L407.539 144.102
L476.002 144.102
L476.201 141.942
L478.39 141.942
L478.39 141.942" style="fill:none;stroke:#ff0000;stroke-linecap:square;"/>
   </g>
   <g id="line2d_11">
    <path clip-path="url(#p77ac736e8d)" d="
M31.99 357.942
L32.189 353.622
L40.5478 353.622
L40.7468 351.462
L48.1106 351.462
L48.3096 349.302
L53.6831 349.302
L53.8821 342.822
L57.4645 342.822
L57.6635 340.662
L67.0174 340.662
L67.2164 336.342
L72.5899 336.342
L72.7889 332.022
L81.9438 332.022
L82.1428 329.862
L89.5065 329.862
L89.7056 327.702
L95.0791 327.702
L95.2781 321.222
L105.229 321.222
L105.428 319.062
L114.185 319.062
L114.384 316.902
L120.554 316.902
L120.753 312.582
L130.305 312.582
L130.504 306.102
L138.863 306.102
L139.062 303.942
L144.635 303.942
L144.834 299.622
L151.999 299.622
L152.198 297.462
L157.969 297.462
L158.168 286.662
L171.502 286.662
L171.701 284.502
L176.08 284.502
L176.279 280.182
L182.648 280.182
L182.847 267.222
L191.404 267.222
L191.603 249.942
L212.102 249.942
L212.301 245.622
L219.864 245.622
L220.063 239.142
L242.751 239.142
L242.95 236.982
L259.071 236.982
L259.27 234.822
L266.833 234.822
L267.032 219.702
L293.7 219.702
L293.899 217.542
L303.85 217.542
L304.049 200.262
L344.052 200.262
L344.251 195.942
L360.173 195.942
L360.372 193.782
L368.133 193.782
L368.332 187.302
L386.841 187.302
L387.04 180.822
L405.151 180.822
L405.35 174.342
L445.154 174.342
L445.353 172.182
L459.881 172.182
L460.08 161.382
L465.255 161.382
L465.454 152.742
L478.39 152.742
L478.39 152.742" style="fill:none;stroke:#00bfbf;stroke-linecap:square;"/>
   </g>
   <g id="line2d_12">
    <path clip-path="url(#p77ac736e8d)" d="
M31.99 357.942
L32.189 353.622
L37.7616 353.622
L37.9606 351.462
L44.5282 351.462
L44.7272 349.302
L50.2998 349.302
L50.4988 347.142
L52.887 347.142
L53.086 342.822
L61.0468 342.822
L61.2458 340.662
L67.8135 340.662
L68.0125 336.342
L73.585 336.342
L73.784 329.862
L76.1723 329.862
L76.3713 319.062
L80.1526 319.062
L80.3517 314.742
L87.5163 314.742
L87.7154 312.582
L93.2879 312.582
L93.4869 310.422
L96.4722 310.422
L96.6712 303.942
L101.448 303.942
L101.647 297.462
L118.364 297.462
L118.563 295.302
L125.33 295.302
L125.529 293.142
L132.296 293.142
L132.495 290.982
L139.659 290.982
L139.858 288.822
L144.834 288.822
L145.033 284.502
L149.61 284.502
L149.809 275.862
L152.795 275.862
L152.994 269.382
L167.124 269.382
L167.323 267.222
L169.711 267.222
L169.91 258.582
L180.657 258.582
L180.856 249.942
L189.016 249.942
L189.215 247.782
L194.987 247.782
L195.186 234.822
L209.515 234.822
L209.714 226.182
L222.252 226.182
L222.451 208.902
L252.702 208.902
L252.901 206.742
L262.056 206.742
L262.255 198.102
L286.536 198.102
L286.735 178.662
L322.956 178.662
L323.155 167.862
L383.458 167.862
L383.657 165.702
L409.927 165.702
L410.126 154.902
L459.483 154.902
L459.682 152.742
L468.837 152.742
L469.036 144.102
L478.39 144.102
L478.39 144.102" style="fill:none;stroke:#bf00bf;stroke-linecap:square;"/>
   </g>
   <g id="line2d_13">
    <path clip-path="url(#p77ac736e8d)" d="
M31.99 357.942
L32.189 351.462
L35.5723 351.462
L35.7714 347.142
L40.9459 347.142
L41.1449 344.982
L46.7174 344.982
L46.9164 340.662
L50.4988 340.662
L50.6978 336.342
L56.4694 336.342
L56.6684 329.862
L63.037 329.862
L63.236 325.542
L68.2115 325.542
L68.4105 323.382
L73.983 323.382
L74.1821 319.062
L77.7644 319.062
L77.9634 312.582
L85.7252 312.582
L85.9242 310.422
L90.8997 310.422
L91.0987 303.942
L98.0644 303.942
L98.2634 299.622
L103.04 299.622
L103.239 288.822
L114.583 288.822
L114.782 282.342
L118.762 282.342
L118.961 278.022
L124.335 278.022
L124.534 273.702
L130.504 273.702
L130.704 265.062
L136.475 265.062
L136.674 260.742
L143.64 260.742
L143.839 247.782
L152.596 247.782
L152.795 243.462
L161.153 243.462
L161.352 241.302
L164.139 241.302
L164.338 226.182
L176.478 226.182
L176.677 217.542
L184.24 217.542
L184.439 208.902
L190.608 208.902
L190.807 202.422
L198.768 202.422
L198.967 180.822
L216.68 180.822
L216.879 178.662
L222.65 178.662
L222.849 176.502
L228.024 176.502
L228.223 174.342
L239.169 174.342
L239.368 170.022
L246.135 170.022
L246.334 161.382
L268.425 161.382
L268.624 150.582
L292.904 150.582
L293.103 146.262
L305.243 146.262
L305.442 137.622
L317.383 137.622
L317.583 128.982
L338.48 128.982
L338.679 124.662
L354.003 124.662
L354.202 113.862
L394.404 113.862
L394.603 111.702
L399.578 111.702
L399.777 94.4217
L439.979 94.4217
L440.178 83.6217
L458.687 83.6217
L458.886 79.3017
L472.817 79.3017
L473.016 66.3417
L478.39 66.3417
L478.39 66.3417" style="fill:none;stroke:#bfbf00;stroke-linecap:square;"/>
   </g>
   <g id="line2d_14">
    <path clip-path="url(#p77ac736e8d)" d="
M31.99 357.942
L32.189 353.622
L35.3733 353.622
L35.5723 340.662
L38.7567 340.662
L38.9557 334.182
L42.14 334.182
L42.339 332.022
L46.1204 332.022
L46.3194 321.222
L50.6978 321.222
L50.8968 319.062
L56.0713 319.062
L56.2703 316.902
L63.435 316.902
L63.634 312.582
L66.0223 312.582
L66.2213 310.422
L73.386 310.422
L73.585 306.102
L75.9732 306.102
L76.1723 303.942
L80.7497 303.942
L80.9487 295.302
L86.5213 295.302
L86.7203 293.142
L91.8948 293.142
L92.0938 290.982
L97.6663 290.982
L97.8653 288.822
L100.851 288.822
L101.05 286.662
L102.841 286.662
L103.04 269.382
L115.777 269.382
L115.976 265.062
L124.733 265.062
L124.932 262.902
L130.903 262.902
L131.102 254.262
L133.291 254.262
L133.49 249.942
L139.261 249.942
L139.46 245.622
L142.844 245.622
L143.043 241.302
L145.63 241.302
L145.829 219.702
L159.76 219.702
L159.959 204.582
L186.23 204.582
L186.429 198.102
L195.385 198.102
L195.584 195.942
L207.127 195.942
L207.326 193.782
L213.296 193.782
L213.495 187.302
L221.257 187.302
L221.456 174.342
L233.795 174.342
L233.994 172.182
L244.741 172.182
L244.941 170.022
L249.717 170.022
L249.916 167.862
L259.867 167.862
L260.066 161.382
L263.25 161.382
L263.449 159.222
L267.629 159.222
L267.828 148.422
L281.56 148.422
L281.759 139.782
L308.627 139.782
L308.826 120.342
L342.659 120.342
L342.858 107.382
L385.448 107.382
L385.647 100.902
L399.379 100.902
L399.578 98.7417
L410.325 98.7417
L410.524 96.5817
L419.679 96.5817
L419.878 94.4217
L429.232 94.4217
L429.431 85.7817
L451.92 85.7817
L452.119 57.7017
L478.39 57.7017
L478.39 57.7017" style="fill:none;stroke:#000000;stroke-linecap:square;"/>
   </g>
   <g id="line2d_15">
    <path clip-path="url(#p77ac736e8d)" d="
M31.99 357.942
L32.189 353.622
L37.5625 353.622
L37.7616 349.302
L41.941 349.302
L42.14 347.142
L46.9164 347.142
L47.1155 344.982
L47.5135 344.982
L47.7125 342.822
L55.4743 342.822
L55.6733 338.502
L61.0468 338.502
L61.2458 334.182
L65.4252 334.182
L65.6242 332.022
L68.4105 332.022
L68.6095 323.382
L75.3762 323.382
L75.5752 319.062
L81.5458 319.062
L81.7448 314.742
L85.7252 314.742
L85.9242 306.102
L93.6859 306.102
L93.885 301.782
L100.851 301.782
L101.05 275.862
L110.404 275.862
L110.603 273.702
L116.573 273.702
L116.772 269.382
L122.345 269.382
L122.544 262.902
L126.922 262.902
L127.121 258.582
L130.305 258.582
L130.504 252.102
L137.072 252.102
L137.271 247.782
L149.411 247.782
L149.61 245.622
L150.207 245.622
L150.406 236.982
L169.711 236.982
L169.91 219.702
L195.584 219.702
L195.783 202.422
L223.844 202.422
L224.043 191.622
L265.639 191.622
L265.838 187.302
L278.774 187.302
L278.973 176.502
L307.234 176.502
L307.433 161.382
L352.411 161.382
L352.61 150.582
L383.657 150.582
L383.856 148.422
L384.652 148.422
L384.851 137.622
L418.087 137.622
L418.286 135.462
L427.839 135.462
L428.038 126.822
L461.075 126.822
L461.274 120.342
L478.39 120.342
L478.39 120.342" style="fill:none;stroke:#0000ff;stroke-linecap:square;"/>
   </g>
   <g id="line2d_16">
    <path clip-path="url(#p77ac736e8d)" d="
M31.99 357.942
L32.189 351.462
L35.5723 351.462
L35.7714 349.302
L38.5576 349.302
L38.7567 347.142
L43.3341 347.142
L43.5331 342.822
L47.5135 342.822
L47.7125 340.662
L51.6929 340.662
L51.8919 336.342
L55.8723 336.342
L56.0713 332.022
L62.4399 332.022
L62.639 327.702
L66.6193 327.702
L66.8184 325.542
L69.0076 325.542
L69.2066 323.382
L74.9781 323.382
L75.1772 321.222
L80.9487 321.222
L81.1477 319.062
L84.332 319.062
L84.5311 314.742
L90.3026 314.742
L90.5016 312.582
L94.8801 312.582
L95.0791 310.422
L102.443 310.422
L102.642 299.622
L112.394 299.622
L112.593 297.462
L115.777 297.462
L115.976 293.142
L121.549 293.142
L121.748 288.822
L129.708 288.822
L129.907 278.022
L135.679 278.022
L135.878 271.542
L139.46 271.542
L139.659 262.902
L146.625 262.902
L146.824 258.582
L151.402 258.582
L151.601 252.102
L163.542 252.102
L163.741 243.462
L177.274 243.462
L177.473 236.982
L186.827 236.982
L187.026 217.542
L246.334 217.542
L246.533 180.822
L327.135 180.822
L327.334 165.702
L401.569 165.702
L401.768 152.742
L422.267 152.742
L422.466 150.582
L434.208 150.582
L434.407 137.622
L449.333 137.622
L449.532 128.982
L478.39 128.982
L478.39 128.982" style="fill:none;stroke:#008000;stroke-linecap:square;"/>
   </g>
   <g id="patch_3">
    <path d="
M31.99 23.1417
L478.39 23.1417" style="fill:none;stroke:#000000;stroke-linecap:square;stroke-linejoin:miter;"/>
   </g>
   <g id="patch_4">
    <path d="
M478.39 368.742
L478.39 23.1417" style="fill:none;stroke:#000000;stroke-linecap:square;stroke-linejoin:miter;"/>
   </g>
   <g id="patch_5">
    <path d="
M31.99 368.742
L478.39 368.742" style="fill:none;stroke:#000000;stroke-linecap:square;stroke-linejoin:miter;"/>
   </g>
   <g id="patch_6">
    <path d="
M31.99 368.742
L31.99 23.1417" style="fill:none;stroke:#000000;stroke-linecap:square;stroke-linejoin:miter;"/>
   </g>
   <g id="matplotlib.axis_1">
    <g id="xtick_1">
     <g id="line2d_17">
      <defs>
       <path d="
M0 0
L0 -4" id="m93b0483c22" style="stroke:#000000;stroke-width:0.5;"/>
      </defs>
      <g>
       <use style="stroke:#000000;stroke-width:0.5;" x="31.99" xlink:href="#m93b0483c22" y="368.74175"/>
      </g>
     </g>
     <g id="line2d_18">
      <defs>
       <path d="
M0 0
L0 4" id="m741efc42ff" style="stroke:#000000;stroke-width:0.5;"/>
      </defs>
      <g>
       <use style="stroke:#000000;stroke-width:0.5;" x="31.99" xlink:href="#m741efc42ff" y="23.14175"/>
      </g>
     </g>
     <g id="text_1">
      <!-- 0 -->
      <defs>
       <path d="
M31.7812 66.4062
Q24.1719 66.4062 20.3281 58.9062
Q16.5 51.4219 16.5 36.375
Q16.5 21.3906 20.3281 13.8906
Q24.1719 6.39062 31.7812 6.39062
Q39.4531 6.39062 43.2812 13.8906
Q47.125 21.3906 47.125 36.375
Q47.125 51.4219 43.2812 58.9062
Q39.4531 66.4062 31.7812 66.4062
M31.7812 74.2188
Q44.0469 74.2188 50.5156 64.5156
Q56.9844 54.8281 56.9844 36.375
Q56.9844 17.9688 50.5156 8.26562
Q44.0469 -1.42188 31.7812 -1.42188
Q19.5312 -1.42188 13.0625 8.26562
Q6.59375 17.9688 6.59375 36.375
Q6.59375 54.8281 13.0625 64.5156
Q19.5312 74.2188 31.7812 74.2188" id="DejaVuSans-30"/>
      </defs>
      <g transform="translate(28.9665625 381.859875)scale(0.12 -0.12)">
       <use xlink:href="#DejaVuSans-30"/>
      </g>
     </g>
    </g>
    <g id="xtick_2">
     <g id="line2d_19">
      <g>
       <use style="stroke:#000000;stroke-width:0.5;" x="131.499585377" xlink:href="#m93b0483c22" y="368.74175"/>
      </g>
     </g>
     <g id="line2d_20">
      <g>
       <use style="stroke:#000000;stroke-width:0.5;" x="131.499585377" xlink:href="#m741efc42ff" y="23.14175"/>
      </g>
     </g>
     <g id="text_2">
      <!-- 500 -->
      <defs>
       <path d="
M10.7969 72.9062
L49.5156 72.9062
L49.5156 64.5938
L19.8281 64.5938
L19.8281 46.7344
Q21.9688 47.4688 24.1094 47.8281
Q26.2656 48.1875 28.4219 48.1875
Q40.625 48.1875 47.75 41.5
Q54.8906 34.8125 54.8906 23.3906
Q54.8906 11.625 47.5625 5.09375
Q40.2344 -1.42188 26.9062 -1.42188
Q22.3125 -1.42188 17.5469 -0.640625
Q12.7969 0.140625 7.71875 1.70312
L7.71875 11.625
Q12.1094 9.23438 16.7969 8.0625
Q21.4844 6.89062 26.7031 6.89062
Q35.1562 6.89062 40.0781 11.3281
Q45.0156 15.7656 45.0156 23.3906
Q45.0156 31 40.0781 35.4375
Q35.1562 39.8906 26.7031 39.8906
Q22.75 39.8906 18.8125 39.0156
Q14.8906 38.1406 10.7969 36.2812
z
" id="DejaVuSans-35"/>
      </defs>
      <g transform="translate(120.908647877 381.859875)scale(0.12 -0.12)">
       <use xlink:href="#DejaVuSans-35"/>
       <use x="63.623046875" xlink:href="#DejaVuSans-30"/>
       <use x="127.24609375" xlink:href="#DejaVuSans-30"/>
      </g>
     </g>
    </g>
    <g id="xtick_3">
     <g id="line2d_21">
      <g>
       <use style="stroke:#000000;stroke-width:0.5;" x="231.009170753" xlink:href="#m93b0483c22" y="368.74175"/>
      </g>
     </g>
     <g id="line2d_22">
      <g>
       <use style="stroke:#000000;stroke-width:0.5;" x="231.009170753" xlink:href="#m741efc42ff" y="23.14175"/>
      </g>
     </g>
     <g id="text_3">
      <!-- 1000 -->
      <defs>
       <path d="
M12.4062 8.29688
L28.5156 8.29688
L28.5156 63.9219
L10.9844 60.4062
L10.9844 69.3906
L28.4219 72.9062
L38.2812 72.9062
L38.2812 8.29688
L54.3906 8.29688
L54.3906 0
L12.4062 0
z
" id="DejaVuSans-31"/>
      </defs>
      <g transform="translate(216.796670753 381.859875)scale(0.12 -0.12)">
       <use xlink:href="#DejaVuSans-31"/>
       <use x="63.623046875" xlink:href="#DejaVuSans-30"/>
       <use x="127.24609375" xlink:href="#DejaVuSans-30"/>
       <use x="190.869140625" xlink:href="#DejaVuSans-30"/>
      </g>
     </g>
    </g>
    <g id="xtick_4">
     <g id="line2d_23">
      <g>
       <use style="stroke:#000000;stroke-width:0.5;" x="330.51875613" xlink:href="#m93b0483c22" y="368.74175"/>
      </g>
     </g>
     <g id="line2d_24">
      <g>
       <use style="stroke:#000000;stroke-width:0.5;" x="330.51875613" xlink:href="#m741efc42ff" y="23.14175"/>
      </g>
     </g>
     <g id="text_4">
      <!-- 1500 -->
      <g transform="translate(316.30625613 381.859875)scale(0.12 -0.12)">
       <use xlink:href="#DejaVuSans-31"/>
       <use x="63.623046875" xlink:href="#DejaVuSans-35"/>
       <use x="127.24609375" xlink:href="#DejaVuSans-30"/>
       <use x="190.869140625" xlink:href="#DejaVuSans-30"/>
      </g>
     </g>
    </g>
    <g id="xtick_5">
     <g id="line2d_25">
      <g>
       <use style="stroke:#000000;stroke-width:0.5;" x="430.028341507" xlink:href="#m93b0483c22" y="368.74175"/>
      </g>
     </g>
     <g id="line2d_26">
      <g>
       <use style="stroke:#000000;stroke-width:0.5;" x="430.028341507" xlink:href="#m741efc42ff" y="23.14175"/>
      </g>
     </g>
     <g id="text_5">
      <!-- 2000 -->
      <defs>
       <path d="
M19.1875 8.29688
L53.6094 8.29688
L53.6094 0
L7.32812 0
L7.32812 8.29688
Q12.9375 14.1094 22.625 23.8906
Q32.3281 33.6875 34.8125 36.5312
Q39.5469 41.8438 41.4219 45.5312
Q43.3125 49.2188 43.3125 52.7812
Q43.3125 58.5938 39.2344 62.25
Q35.1562 65.9219 28.6094 65.9219
Q23.9688 65.9219 18.8125 64.3125
Q13.6719 62.7031 7.8125 59.4219
L7.8125 69.3906
Q13.7656 71.7812 18.9375 73
Q24.125 74.2188 28.4219 74.2188
Q39.75 74.2188 46.4844 68.5469
Q53.2188 62.8906 53.2188 53.4219
Q53.2188 48.9219 51.5312 44.8906
Q49.8594 40.875 45.4062 35.4062
Q44.1875 33.9844 37.6406 27.2188
Q31.1094 20.4531 19.1875 8.29688" id="DejaVuSans-32"/>
      </defs>
      <g transform="translate(415.596466507 381.859875)scale(0.12 -0.12)">
       <use xlink:href="#DejaVuSans-32"/>
       <use x="63.623046875" xlink:href="#DejaVuSans-30"/>
       <use x="127.24609375" xlink:href="#DejaVuSans-30"/>
       <use x="190.869140625" xlink:href="#DejaVuSans-30"/>
      </g>
     </g>
    </g>
    <g id="text_6">
     <!-- time -->
     <defs>
      <path d="
M18.3125 70.2188
L18.3125 54.6875
L36.8125 54.6875
L36.8125 47.7031
L18.3125 47.7031
L18.3125 18.0156
Q18.3125 11.3281 20.1406 9.42188
Q21.9688 7.51562 27.5938 7.51562
L36.8125 7.51562
L36.8125 0
L27.5938 0
Q17.1875 0 13.2344 3.875
Q9.28125 7.76562 9.28125 18.0156
L9.28125 47.7031
L2.6875 47.7031
L2.6875 54.6875
L9.28125 54.6875
L9.28125 70.2188
z
" id="DejaVuSans-74"/>
      <path d="
M52 44.1875
Q55.375 50.25 60.0625 53.125
Q64.75 56 71.0938 56
Q79.6406 56 84.2812 50.0156
Q88.9219 44.0469 88.9219 33.0156
L88.9219 0
L79.8906 0
L79.8906 32.7188
Q79.8906 40.5781 77.0938 44.375
Q74.3125 48.1875 68.6094 48.1875
Q61.625 48.1875 57.5625 43.5469
Q53.5156 38.9219 53.5156 30.9062
L53.5156 0
L44.4844 0
L44.4844 32.7188
Q44.4844 40.625 41.7031 44.4062
Q38.9219 48.1875 33.1094 48.1875
Q26.2188 48.1875 22.1562 43.5312
Q18.1094 38.875 18.1094 30.9062
L18.1094 0
L9.07812 0
L9.07812 54.6875
L18.1094 54.6875
L18.1094 46.1875
Q21.1875 51.2188 25.4844 53.6094
Q29.7812 56 35.6875 56
Q41.6562 56 45.8281 52.9688
Q50 49.9531 52 44.1875" id="DejaVuSans-6d"/>
      <path d="
M56.2031 29.5938
L56.2031 25.2031
L14.8906 25.2031
Q15.4844 15.9219 20.4844 11.0625
Q25.4844 6.20312 34.4219 6.20312
Q39.5938 6.20312 44.4531 7.46875
Q49.3125 8.73438 54.1094 11.2812
L54.1094 2.78125
Q49.2656 0.734375 44.1875 -0.34375
Q39.1094 -1.42188 33.8906 -1.42188
Q20.7969 -1.42188 13.1562 6.1875
Q5.51562 13.8125 5.51562 26.8125
Q5.51562 40.2344 12.7656 48.1094
Q20.0156 56 32.3281 56
Q43.3594 56 49.7812 48.8906
Q56.2031 41.7969 56.2031 29.5938
M47.2188 32.2344
Q47.125 39.5938 43.0938 43.9844
Q39.0625 48.3906 32.4219 48.3906
Q24.9062 48.3906 20.3906 44.1406
Q15.875 39.8906 15.1875 32.1719
z
" id="DejaVuSans-65"/>
      <path d="
M9.42188 54.6875
L18.4062 54.6875
L18.4062 0
L9.42188 0
z

M9.42188 75.9844
L18.4062 75.9844
L18.4062 64.5938
L9.42188 64.5938
z
" id="DejaVuSans-69"/>
     </defs>
     <g transform="translate(242.115625 398.473625)scale(0.12 -0.12)">
      <use xlink:href="#DejaVuSans-74"/>
      <use x="39.208984375" xlink:href="#DejaVuSans-69"/>
      <use x="66.9921875" xlink:href="#DejaVuSans-6d"/>
      <use x="164.404296875" xlink:href="#DejaVuSans-65"/>
     </g>
    </g>
   </g>
   <g id="matplotlib.axis_2">
    <g id="ytick_1">
     <g id="line2d_27">
      <defs>
       <path d="
M0 0
L4 0" id="m728421d6d4" style="stroke:#000000;stroke-width:0.5;"/>
      </defs>
      <g>
       <use style="stroke:#000000;stroke-width:0.5;" x="31.99" xlink:href="#m728421d6d4" y="368.74175"/>
      </g>
     </g>
     <g id="line2d_28">
      <defs>
       <path d="
M0 0
L-4 0" id="mcb0005524f" style="stroke:#000000;stroke-width:0.5;"/>
      </defs>
      <g>
       <use style="stroke:#000000;stroke-width:0.5;" x="478.39" xlink:href="#mcb0005524f" y="368.74175"/>
      </g>
     </g>
     <g id="text_7">
      <!-- 0 -->
      <g transform="translate(21.943125 372.053)scale(0.12 -0.12)">
       <use xlink:href="#DejaVuSans-30"/>
      </g>
     </g>
    </g>
    <g id="ytick_2">
     <g id="line2d_29">
      <g>
       <use style="stroke:#000000;stroke-width:0.5;" x="31.99" xlink:href="#m728421d6d4" y="325.54175"/>
      </g>
     </g>
     <g id="line2d_30">
      <g>
       <use style="stroke:#000000;stroke-width:0.5;" x="478.39" xlink:href="#mcb0005524f" y="325.54175"/>
      </g>
     </g>
     <g id="text_8">
      <!-- 20 -->
      <g transform="translate(14.39625 328.853)scale(0.12 -0.12)">
       <use xlink:href="#DejaVuSans-32"/>
       <use x="63.623046875" xlink:href="#DejaVuSans-30"/>
      </g>
     </g>
    </g>
    <g id="ytick_3">
     <g id="line2d_31">
      <g>
       <use style="stroke:#000000;stroke-width:0.5;" x="31.99" xlink:href="#m728421d6d4" y="282.34175"/>
      </g>
     </g>
     <g id="line2d_32">
      <g>
       <use style="stroke:#000000;stroke-width:0.5;" x="478.39" xlink:href="#mcb0005524f" y="282.34175"/>
      </g>
     </g>
     <g id="text_9">
      <!-- 40 -->
      <defs>
       <path d="
M37.7969 64.3125
L12.8906 25.3906
L37.7969 25.3906
z

M35.2031 72.9062
L47.6094 72.9062
L47.6094 25.3906
L58.0156 25.3906
L58.0156 17.1875
L47.6094 17.1875
L47.6094 0
L37.7969 0
L37.7969 17.1875
L4.89062 17.1875
L4.89062 26.7031
z
" id="DejaVuSans-34"/>
      </defs>
      <g transform="translate(14.10375 285.653)scale(0.12 -0.12)">
       <use xlink:href="#DejaVuSans-34"/>
       <use x="63.623046875" xlink:href="#DejaVuSans-30"/>
      </g>
     </g>
    </g>
    <g id="ytick_4">
     <g id="line2d_33">
      <g>
       <use style="stroke:#000000;stroke-width:0.5;" x="31.99" xlink:href="#m728421d6d4" y="239.14175"/>
      </g>
     </g>
     <g id="line2d_34">
      <g>
       <use style="stroke:#000000;stroke-width:0.5;" x="478.39" xlink:href="#mcb0005524f" y="239.14175"/>
      </g>
     </g>
     <g id="text_10">
      <!-- 60 -->
      <defs>
       <path d="
M33.0156 40.375
Q26.375 40.375 22.4844 35.8281
Q18.6094 31.2969 18.6094 23.3906
Q18.6094 15.5312 22.4844 10.9531
Q26.375 6.39062 33.0156 6.39062
Q39.6562 6.39062 43.5312 10.9531
Q47.4062 15.5312 47.4062 23.3906
Q47.4062 31.2969 43.5312 35.8281
Q39.6562 40.375 33.0156 40.375
M52.5938 71.2969
L52.5938 62.3125
Q48.875 64.0625 45.0938 64.9844
Q41.3125 65.9219 37.5938 65.9219
Q27.8281 65.9219 22.6719 59.3281
Q17.5312 52.7344 16.7969 39.4062
Q19.6719 43.6562 24.0156 45.9219
Q28.375 48.1875 33.5938 48.1875
Q44.5781 48.1875 50.9531 41.5156
Q57.3281 34.8594 57.3281 23.3906
Q57.3281 12.1562 50.6875 5.35938
Q44.0469 -1.42188 33.0156 -1.42188
Q20.3594 -1.42188 13.6719 8.26562
Q6.98438 17.9688 6.98438 36.375
Q6.98438 53.6562 15.1875 63.9375
Q23.3906 74.2188 37.2031 74.2188
Q40.9219 74.2188 44.7031 73.4844
Q48.4844 72.75 52.5938 71.2969" id="DejaVuSans-36"/>
      </defs>
      <g transform="translate(14.355 242.453)scale(0.12 -0.12)">
       <use xlink:href="#DejaVuSans-36"/>
       <use x="63.623046875" xlink:href="#DejaVuSans-30"/>
      </g>
     </g>
    </g>
    <g id="ytick_5">
     <g id="line2d_35">
      <g>
       <use style="stroke:#000000;stroke-width:0.5;" x="31.99" xlink:href="#m728421d6d4" y="195.94175"/>
      </g>
     </g>
     <g id="line2d_36">
      <g>
       <use style="stroke:#000000;stroke-width:0.5;" x="478.39" xlink:href="#mcb0005524f" y="195.94175"/>
      </g>
     </g>
     <g id="text_11">
      <!-- 80 -->
      <defs>
       <path d="
M31.7812 34.625
Q24.75 34.625 20.7188 30.8594
Q16.7031 27.0938 16.7031 20.5156
Q16.7031 13.9219 20.7188 10.1562
Q24.75 6.39062 31.7812 6.39062
Q38.8125 6.39062 42.8594 10.1719
Q46.9219 13.9688 46.9219 20.5156
Q46.9219 27.0938 42.8906 30.8594
Q38.875 34.625 31.7812 34.625
M21.9219 38.8125
Q15.5781 40.375 12.0312 44.7188
Q8.5 49.0781 8.5 55.3281
Q8.5 64.0625 14.7188 69.1406
Q20.9531 74.2188 31.7812 74.2188
Q42.6719 74.2188 48.875 69.1406
Q55.0781 64.0625 55.0781 55.3281
Q55.0781 49.0781 51.5312 44.7188
Q48 40.375 41.7031 38.8125
Q48.8281 37.1562 52.7969 32.3125
Q56.7812 27.4844 56.7812 20.5156
Q56.7812 9.90625 50.3125 4.23438
Q43.8438 -1.42188 31.7812 -1.42188
Q19.7344 -1.42188 13.25 4.23438
Q6.78125 9.90625 6.78125 20.5156
Q6.78125 27.4844 10.7812 32.3125
Q14.7969 37.1562 21.9219 38.8125
M18.3125 54.3906
Q18.3125 48.7344 21.8438 45.5625
Q25.3906 42.3906 31.7812 42.3906
Q38.1406 42.3906 41.7188 45.5625
Q45.3125 48.7344 45.3125 54.3906
Q45.3125 60.0625 41.7188 63.2344
Q38.1406 66.4062 31.7812 66.4062
Q25.3906 66.4062 21.8438 63.2344
Q18.3125 60.0625 18.3125 54.3906" id="DejaVuSans-38"/>
      </defs>
      <g transform="translate(14.330625 199.253)scale(0.12 -0.12)">
       <use xlink:href="#DejaVuSans-38"/>
       <use x="63.623046875" xlink:href="#DejaVuSans-30"/>
      </g>
     </g>
    </g>
    <g id="ytick_6">
     <g id="line2d_37">
      <g>
       <use style="stroke:#000000;stroke-width:0.5;" x="31.99" xlink:href="#m728421d6d4" y="152.74175"/>
      </g>
     </g>
     <g id="line2d_38">
      <g>
       <use style="stroke:#000000;stroke-width:0.5;" x="478.39" xlink:href="#mcb0005524f" y="152.74175"/>
      </g>
     </g>
     <g id="text_12">
      <!-- 100 -->
      <g transform="translate(7.2 156.053)scale(0.12 -0.12)">
       <use xlink:href="#DejaVuSans-31"/>
       <use x="63.623046875" xlink:href="#DejaVuSans-30"/>
       <use x="127.24609375" xlink:href="#DejaVuSans-30"/>
      </g>
     </g>
    </g>
    <g id="ytick_7">
     <g id="line2d_39">
      <g>
       <use style="stroke:#000000;stroke-width:0.5;" x="31.99" xlink:href="#m728421d6d4" y="109.54175"/>
      </g>
     </g>
     <g id="line2d_40">
      <g>
       <use style="stroke:#000000;stroke-width:0.5;" x="478.39" xlink:href="#mcb0005524f" y="109.54175"/>
      </g>
     </g>
     <g id="text_13">
      <!-- 120 -->
      <g transform="translate(7.2 112.853)scale(0.12 -0.12)">
       <use xlink:href="#DejaVuSans-31"/>
       <use x="63.623046875" xlink:href="#DejaVuSans-32"/>
       <use x="127.24609375" xlink:href="#DejaVuSans-30"/>
      </g>
     </g>
    </g>
    <g id="ytick_8">
     <g id="line2d_41">
      <g>
       <use style="stroke:#000000;stroke-width:0.5;" x="31.99" xlink:href="#m728421d6d4" y="66.34175"/>
      </g>
     </g>
     <g id="line2d_42">
      <g>
       <use style="stroke:#000000;stroke-width:0.5;" x="478.39" xlink:href="#mcb0005524f" y="66.34175"/>
      </g>
     </g>
     <g id="text_14">
      <!-- 140 -->
      <g transform="translate(7.2 69.653)scale(0.12 -0.12)">
       <use xlink:href="#DejaVuSans-31"/>
       <use x="63.623046875" xlink:href="#DejaVuSans-34"/>
       <use x="127.24609375" xlink:href="#DejaVuSans-30"/>
      </g>
     </g>
    </g>
    <g id="ytick_9">
     <g id="line2d_43">
      <g>
       <use style="stroke:#000000;stroke-width:0.5;" x="31.99" xlink:href="#m728421d6d4" y="23.14175"/>
      </g>
     </g>
     <g id="line2d_44">
      <g>
       <use style="stroke:#000000;stroke-width:0.5;" x="478.39" xlink:href="#mcb0005524f" y="23.14175"/>
      </g>
     </g>
     <g id="text_15">
      <!-- 160 -->
      <g transform="translate(7.2 26.453)scale(0.12 -0.12)">
       <use xlink:href="#DejaVuSans-31"/>
       <use x="63.623046875" xlink:href="#DejaVuSans-36"/>
       <use x="127.24609375" xlink:href="#DejaVuSans-30"/>
      </g>
     </g>
    </g>
   </g>
   <g id="text_16">
    <!-- /agas/count/allocate -->
    <defs>
     <path d="
M25.3906 72.9062
L33.6875 72.9062
L8.29688 -9.28125
L0 -9.28125
z
" id="DejaVuSans-2f"/>
     <path d="
M30.6094 48.3906
Q23.3906 48.3906 19.1875 42.75
Q14.9844 37.1094 14.9844 27.2969
Q14.9844 17.4844 19.1562 11.8438
Q23.3438 6.20312 30.6094 6.20312
Q37.7969 6.20312 41.9844 11.8594
Q46.1875 17.5312 46.1875 27.2969
Q46.1875 37.0156 41.9844 42.7031
Q37.7969 48.3906 30.6094 48.3906
M30.6094 56
Q42.3281 56 49.0156 48.375
Q55.7188 40.7656 55.7188 27.2969
Q55.7188 13.875 49.0156 6.21875
Q42.3281 -1.42188 30.6094 -1.42188
Q18.8438 -1.42188 12.1719 6.21875
Q5.51562 13.875 5.51562 27.2969
Q5.51562 40.7656 12.1719 48.375
Q18.8438 56 30.6094 56" id="DejaVuSans-6f"/>
     <path d="
M54.8906 33.0156
L54.8906 0
L45.9062 0
L45.9062 32.7188
Q45.9062 40.4844 42.875 44.3281
Q39.8438 48.1875 33.7969 48.1875
Q26.5156 48.1875 22.3125 43.5469
Q18.1094 38.9219 18.1094 30.9062
L18.1094 0
L9.07812 0
L9.07812 54.6875
L18.1094 54.6875
L18.1094 46.1875
Q21.3438 51.125 25.7031 53.5625
Q30.0781 56 35.7969 56
Q45.2188 56 50.0469 50.1719
Q54.8906 44.3438 54.8906 33.0156" id="DejaVuSans-6e"/>
     <path d="
M9.42188 75.9844
L18.4062 75.9844
L18.4062 0
L9.42188 0
z
" id="DejaVuSans-6c"/>
     <path d="
M8.5 21.5781
L8.5 54.6875
L17.4844 54.6875
L17.4844 21.9219
Q17.4844 14.1562 20.5 10.2656
Q23.5312 6.39062 29.5938 6.39062
Q36.8594 6.39062 41.0781 11.0312
Q45.3125 15.6719 45.3125 23.6875
L45.3125 54.6875
L54.2969 54.6875
L54.2969 0
L45.3125 0
L45.3125 8.40625
Q42.0469 3.42188 37.7188 1
Q33.4062 -1.42188 27.6875 -1.42188
Q18.2656 -1.42188 13.375 4.4375
Q8.5 10.2969 8.5 21.5781
M31.1094 56
z
" id="DejaVuSans-75"/>
     <path d="
M45.4062 27.9844
Q45.4062 37.75 41.375 43.1094
Q37.3594 48.4844 30.0781 48.4844
Q22.8594 48.4844 18.8281 43.1094
Q14.7969 37.75 14.7969 27.9844
Q14.7969 18.2656 18.8281 12.8906
Q22.8594 7.51562 30.0781 7.51562
Q37.3594 7.51562 41.375 12.8906
Q45.4062 18.2656 45.4062 27.9844
M54.3906 6.78125
Q54.3906 -7.17188 48.1875 -13.9844
Q42 -20.7969 29.2031 -20.7969
Q24.4688 -20.7969 20.2656 -20.0938
Q16.0625 -19.3906 12.1094 -17.9219
L12.1094 -9.1875
Q16.0625 -11.3281 19.9219 -12.3438
Q23.7812 -13.375 27.7812 -13.375
Q36.625 -13.375 41.0156 -8.76562
Q45.4062 -4.15625 45.4062 5.17188
L45.4062 9.625
Q42.625 4.78125 38.2812 2.39062
Q33.9375 0 27.875 0
Q17.8281 0 11.6719 7.65625
Q5.51562 15.3281 5.51562 27.9844
Q5.51562 40.6719 11.6719 48.3281
Q17.8281 56 27.875 56
Q33.9375 56 38.2812 53.6094
Q42.625 51.2188 45.4062 46.3906
L45.4062 54.6875
L54.3906 54.6875
z
" id="DejaVuSans-67"/>
     <path d="
M48.7812 52.5938
L48.7812 44.1875
Q44.9688 46.2969 41.1406 47.3438
Q37.3125 48.3906 33.4062 48.3906
Q24.6562 48.3906 19.8125 42.8438
Q14.9844 37.3125 14.9844 27.2969
Q14.9844 17.2812 19.8125 11.7344
Q24.6562 6.20312 33.4062 6.20312
Q37.3125 6.20312 41.1406 7.25
Q44.9688 8.29688 48.7812 10.4062
L48.7812 2.09375
Q45.0156 0.34375 40.9844 -0.53125
Q36.9688 -1.42188 32.4219 -1.42188
Q20.0625 -1.42188 12.7812 6.34375
Q5.51562 14.1094 5.51562 27.2969
Q5.51562 40.6719 12.8594 48.3281
Q20.2188 56 33.0156 56
Q37.1562 56 41.1094 55.1406
Q45.0625 54.2969 48.7812 52.5938" id="DejaVuSans-63"/>
     <path d="
M44.2812 53.0781
L44.2812 44.5781
Q40.4844 46.5312 36.375 47.5
Q32.2812 48.4844 27.875 48.4844
Q21.1875 48.4844 17.8438 46.4375
Q14.5 44.3906 14.5 40.2812
Q14.5 37.1562 16.8906 35.375
Q19.2812 33.5938 26.5156 31.9844
L29.5938 31.2969
Q39.1562 29.25 43.1875 25.5156
Q47.2188 21.7812 47.2188 15.0938
Q47.2188 7.46875 41.1875 3.01562
Q35.1562 -1.42188 24.6094 -1.42188
Q20.2188 -1.42188 15.4531 -0.5625
Q10.6875 0.296875 5.42188 2
L5.42188 11.2812
Q10.4062 8.6875 15.2344 7.39062
Q20.0625 6.10938 24.8125 6.10938
Q31.1562 6.10938 34.5625 8.28125
Q37.9844 10.4531 37.9844 14.4062
Q37.9844 18.0625 35.5156 20.0156
Q33.0625 21.9688 24.7031 23.7812
L21.5781 24.5156
Q13.2344 26.2656 9.51562 29.9062
Q5.8125 33.5469 5.8125 39.8906
Q5.8125 47.6094 11.2812 51.7969
Q16.75 56 26.8125 56
Q31.7812 56 36.1719 55.2656
Q40.5781 54.5469 44.2812 53.0781" id="DejaVuSans-73"/>
     <path d="
M34.2812 27.4844
Q23.3906 27.4844 19.1875 25
Q14.9844 22.5156 14.9844 16.5
Q14.9844 11.7188 18.1406 8.90625
Q21.2969 6.10938 26.7031 6.10938
Q34.1875 6.10938 38.7031 11.4062
Q43.2188 16.7031 43.2188 25.4844
L43.2188 27.4844
z

M52.2031 31.2031
L52.2031 0
L43.2188 0
L43.2188 8.29688
Q40.1406 3.32812 35.5469 0.953125
Q30.9531 -1.42188 24.3125 -1.42188
Q15.9219 -1.42188 10.9531 3.29688
Q6 8.01562 6 15.9219
Q6 25.1406 12.1719 29.8281
Q18.3594 34.5156 30.6094 34.5156
L43.2188 34.5156
L43.2188 35.4062
Q43.2188 41.6094 39.1406 45
Q35.0625 48.3906 27.6875 48.3906
Q23 48.3906 18.5469 47.2656
Q14.1094 46.1406 10.0156 43.8906
L10.0156 52.2031
Q14.9375 54.1094 19.5781 55.0469
Q24.2188 56 28.6094 56
Q40.4844 56 46.3438 49.8438
Q52.2031 43.7031 52.2031 31.2031" id="DejaVuSans-61"/>
    </defs>
    <g transform="translate(182.39575 18.14175)scale(0.144 -0.144)">
     <use xlink:href="#DejaVuSans-2f"/>
     <use x="33.69140625" xlink:href="#DejaVuSans-61"/>
     <use x="94.970703125" xlink:href="#DejaVuSans-67"/>
     <use x="158.447265625" xlink:href="#DejaVuSans-61"/>
     <use x="219.7265625" xlink:href="#DejaVuSans-73"/>
     <use x="271.826171875" xlink:href="#DejaVuSans-2f"/>
     <use x="305.517578125" xlink:href="#DejaVuSans-63"/>
     <use x="360.498046875" xlink:href="#DejaVuSans-6f"/>
     <use x="421.6796875" xlink:href="#DejaVuSans-75"/>
     <use x="485.05859375" xlink:href="#DejaVuSans-6e"/>
     <use x="548.4375" xlink:href="#DejaVuSans-74"/>
     <use x="587.646484375" xlink:href="#DejaVuSans-2f"/>
     <use x="621.337890625" xlink:href="#DejaVuSans-61"/>
     <use x="682.6171875" xlink:href="#DejaVuSans-6c"/>
     <use x="710.400390625" xlink:href="#DejaVuSans-6c"/>
     <use x="738.18359375" xlink:href="#DejaVuSans-6f"/>
     <use x="799.365234375" xlink:href="#DejaVuSans-63"/>
     <use x="854.345703125" xlink:href="#DejaVuSans-61"/>
     <use x="915.625" xlink:href="#DejaVuSans-74"/>
     <use x="954.833984375" xlink:href="#DejaVuSans-65"/>
    </g>
   </g>
   <g id="legend_1">
    <g id="patch_7">
     <path d="
M485.59 367.194
L617.379 367.194
L617.379 24.6897
L485.59 24.6897
z
" style="fill:#ffffff;stroke:#000000;stroke-linejoin:miter;"/>
    </g>
    <g id="line2d_45">
     <path d="
M495.67 36.3515
L515.83 36.3515" style="fill:none;stroke:#0000ff;stroke-linecap:square;"/>
    </g>
    <g id="line2d_46"/>
    <g id="text_17">
     <!-- locality#0 -->
     <defs>
      <path d="
M51.125 44
L36.9219 44
L32.8125 27.6875
L47.125 27.6875
z

M43.7969 71.7812
L38.7188 51.5156
L52.9844 51.5156
L58.1094 71.7812
L65.9219 71.7812
L60.8906 51.5156
L76.125 51.5156
L76.125 44
L58.9844 44
L54.9844 27.6875
L70.5156 27.6875
L70.5156 20.2188
L53.0781 20.2188
L48 0
L40.1875 0
L45.2188 20.2188
L30.9062 20.2188
L25.875 0
L18.0156 0
L23.0938 20.2188
L7.71875 20.2188
L7.71875 27.6875
L24.9062 27.6875
L29 44
L13.2812 44
L13.2812 51.5156
L30.9062 51.5156
L35.8906 71.7812
z
" id="DejaVuSans-23"/>
      <path d="
M32.1719 -5.07812
Q28.375 -14.8438 24.75 -17.8125
Q21.1406 -20.7969 15.0938 -20.7969
L7.90625 -20.7969
L7.90625 -13.2812
L13.1875 -13.2812
Q16.8906 -13.2812 18.9375 -11.5156
Q21 -9.76562 23.4844 -3.21875
L25.0938 0.875
L2.98438 54.6875
L12.5 54.6875
L29.5938 11.9219
L46.6875 54.6875
L56.2031 54.6875
z
" id="DejaVuSans-79"/>
     </defs>
     <g transform="translate(531.67 41.3915)scale(0.144 -0.144)">
      <use xlink:href="#DejaVuSans-6c"/>
      <use x="27.783203125" xlink:href="#DejaVuSans-6f"/>
      <use x="88.96484375" xlink:href="#DejaVuSans-63"/>
      <use x="143.9453125" xlink:href="#DejaVuSans-61"/>
      <use x="205.224609375" xlink:href="#DejaVuSans-6c"/>
      <use x="233.0078125" xlink:href="#DejaVuSans-69"/>
      <use x="260.791015625" xlink:href="#DejaVuSans-74"/>
      <use x="300.0" xlink:href="#DejaVuSans-79"/>
      <use x="359.1796875" xlink:href="#DejaVuSans-23"/>
      <use x="442.96875" xlink:href="#DejaVuSans-30"/>
     </g>
    </g>
    <g id="line2d_47">
     <path d="
M495.67 57.488
L515.83 57.488" style="fill:none;stroke:#008000;stroke-linecap:square;"/>
    </g>
    <g id="line2d_48"/>
    <g id="text_18">
     <!-- locality#1 -->
     <g transform="translate(531.67 62.528)scale(0.144 -0.144)">
      <use xlink:href="#DejaVuSans-6c"/>
      <use x="27.783203125" xlink:href="#DejaVuSans-6f"/>
      <use x="88.96484375" xlink:href="#DejaVuSans-63"/>
      <use x="143.9453125" xlink:href="#DejaVuSans-61"/>
      <use x="205.224609375" xlink:href="#DejaVuSans-6c"/>
      <use x="233.0078125" xlink:href="#DejaVuSans-69"/>
      <use x="260.791015625" xlink:href="#DejaVuSans-74"/>
      <use x="300.0" xlink:href="#DejaVuSans-79"/>
      <use x="359.1796875" xlink:href="#DejaVuSans-23"/>
      <use x="442.96875" xlink:href="#DejaVuSans-31"/>
     </g>
    </g>
    <g id="line2d_49">
     <path d="
M495.67 78.6245
L515.83 78.6245" style="fill:none;stroke:#ff0000;stroke-linecap:square;"/>
    </g>
    <g id="line2d_50"/>
    <g id="text_19">
     <!-- locality#10 -->
     <g transform="translate(531.67 83.6645)scale(0.144 -0.144)">
      <use xlink:href="#DejaVuSans-6c"/>
      <use x="27.783203125" xlink:href="#DejaVuSans-6f"/>
      <use x="88.96484375" xlink:href="#DejaVuSans-63"/>
      <use x="143.9453125" xlink:href="#DejaVuSans-61"/>
      <use x="205.224609375" xlink:href="#DejaVuSans-6c"/>
      <use x="233.0078125" xlink:href="#DejaVuSans-69"/>
      <use x="260.791015625" xlink:href="#DejaVuSans-74"/>
      <use x="300.0" xlink:href="#DejaVuSans-79"/>
      <use x="359.1796875" xlink:href="#DejaVuSans-23"/>
      <use x="442.96875" xlink:href="#DejaVuSans-31"/>
      <use x="506.591796875" xlink:href="#DejaVuSans-30"/>
     </g>
    </g>
    <g id="line2d_51">
     <path d="
M495.67 99.761
L515.83 99.761" style="fill:none;stroke:#00bfbf;stroke-linecap:square;"/>
    </g>
    <g id="line2d_52"/>
    <g id="text_20">
     <!-- locality#11 -->
     <g transform="translate(531.67 104.801)scale(0.144 -0.144)">
      <use xlink:href="#DejaVuSans-6c"/>
      <use x="27.783203125" xlink:href="#DejaVuSans-6f"/>
      <use x="88.96484375" xlink:href="#DejaVuSans-63"/>
      <use x="143.9453125" xlink:href="#DejaVuSans-61"/>
      <use x="205.224609375" xlink:href="#DejaVuSans-6c"/>
      <use x="233.0078125" xlink:href="#DejaVuSans-69"/>
      <use x="260.791015625" xlink:href="#DejaVuSans-74"/>
      <use x="300.0" xlink:href="#DejaVuSans-79"/>
      <use x="359.1796875" xlink:href="#DejaVuSans-23"/>
      <use x="442.96875" xlink:href="#DejaVuSans-31"/>
      <use x="506.591796875" xlink:href="#DejaVuSans-31"/>
     </g>
    </g>
    <g id="line2d_53">
     <path d="
M495.67 120.897
L515.83 120.897" style="fill:none;stroke:#bf00bf;stroke-linecap:square;"/>
    </g>
    <g id="line2d_54"/>
    <g id="text_21">
     <!-- locality#12 -->
     <g transform="translate(531.67 125.9375)scale(0.144 -0.144)">
      <use xlink:href="#DejaVuSans-6c"/>
      <use x="27.783203125" xlink:href="#DejaVuSans-6f"/>
      <use x="88.96484375" xlink:href="#DejaVuSans-63"/>
      <use x="143.9453125" xlink:href="#DejaVuSans-61"/>
      <use x="205.224609375" xlink:href="#DejaVuSans-6c"/>
      <use x="233.0078125" xlink:href="#DejaVuSans-69"/>
      <use x="260.791015625" xlink:href="#DejaVuSans-74"/>
      <use x="300.0" xlink:href="#DejaVuSans-79"/>
      <use x="359.1796875" xlink:href="#DejaVuSans-23"/>
      <use x="442.96875" xlink:href="#DejaVuSans-31"/>
      <use x="506.591796875" xlink:href="#DejaVuSans-32"/>
     </g>
    </g>
    <g id="line2d_55">
     <path d="
M495.67 142.034
L515.83 142.034" style="fill:none;stroke:#bfbf00;stroke-linecap:square;"/>
    </g>
    <g id="line2d_56"/>
    <g id="text_22">
     <!-- locality#13 -->
     <defs>
      <path d="
M40.5781 39.3125
Q47.6562 37.7969 51.625 33
Q55.6094 28.2188 55.6094 21.1875
Q55.6094 10.4062 48.1875 4.48438
Q40.7656 -1.42188 27.0938 -1.42188
Q22.5156 -1.42188 17.6562 -0.515625
Q12.7969 0.390625 7.625 2.20312
L7.625 11.7188
Q11.7188 9.32812 16.5938 8.10938
Q21.4844 6.89062 26.8125 6.89062
Q36.0781 6.89062 40.9375 10.5469
Q45.7969 14.2031 45.7969 21.1875
Q45.7969 27.6406 41.2812 31.2656
Q36.7656 34.9062 28.7188 34.9062
L20.2188 34.9062
L20.2188 43.0156
L29.1094 43.0156
Q36.375 43.0156 40.2344 45.9219
Q44.0938 48.8281 44.0938 54.2969
Q44.0938 59.9062 40.1094 62.9062
Q36.1406 65.9219 28.7188 65.9219
Q24.6562 65.9219 20.0156 65.0312
Q15.375 64.1562 9.8125 62.3125
L9.8125 71.0938
Q15.4375 72.6562 20.3438 73.4375
Q25.25 74.2188 29.5938 74.2188
Q40.8281 74.2188 47.3594 69.1094
Q53.9062 64.0156 53.9062 55.3281
Q53.9062 49.2656 50.4375 45.0938
Q46.9688 40.9219 40.5781 39.3125" id="DejaVuSans-33"/>
     </defs>
     <g transform="translate(531.67 147.074)scale(0.144 -0.144)">
      <use xlink:href="#DejaVuSans-6c"/>
      <use x="27.783203125" xlink:href="#DejaVuSans-6f"/>
      <use x="88.96484375" xlink:href="#DejaVuSans-63"/>
      <use x="143.9453125" xlink:href="#DejaVuSans-61"/>
      <use x="205.224609375" xlink:href="#DejaVuSans-6c"/>
      <use x="233.0078125" xlink:href="#DejaVuSans-69"/>
      <use x="260.791015625" xlink:href="#DejaVuSans-74"/>
      <use x="300.0" xlink:href="#DejaVuSans-79"/>
      <use x="359.1796875" xlink:href="#DejaVuSans-23"/>
      <use x="442.96875" xlink:href="#DejaVuSans-31"/>
      <use x="506.591796875" xlink:href="#DejaVuSans-33"/>
     </g>
    </g>
    <g id="line2d_57">
     <path d="
M495.67 163.17
L515.83 163.17" style="fill:none;stroke:#000000;stroke-linecap:square;"/>
    </g>
    <g id="line2d_58"/>
    <g id="text_23">
     <!-- locality#14 -->
     <g transform="translate(531.67 168.2105)scale(0.144 -0.144)">
      <use xlink:href="#DejaVuSans-6c"/>
      <use x="27.783203125" xlink:href="#DejaVuSans-6f"/>
      <use x="88.96484375" xlink:href="#DejaVuSans-63"/>
      <use x="143.9453125" xlink:href="#DejaVuSans-61"/>
      <use x="205.224609375" xlink:href="#DejaVuSans-6c"/>
      <use x="233.0078125" xlink:href="#DejaVuSans-69"/>
      <use x="260.791015625" xlink:href="#DejaVuSans-74"/>
      <use x="300.0" xlink:href="#DejaVuSans-79"/>
      <use x="359.1796875" xlink:href="#DejaVuSans-23"/>
      <use x="442.96875" xlink:href="#DejaVuSans-31"/>
      <use x="506.591796875" xlink:href="#DejaVuSans-34"/>
     </g>
    </g>
    <g id="line2d_59">
     <path d="
M495.67 184.307
L515.83 184.307" style="fill:none;stroke:#0000ff;stroke-linecap:square;"/>
    </g>
    <g id="line2d_60"/>
    <g id="text_24">
     <!-- locality#15 -->
     <g transform="translate(531.67 189.347)scale(0.144 -0.144)">
      <use xlink:href="#DejaVuSans-6c"/>
      <use x="27.783203125" xlink:href="#DejaVuSans-6f"/>
      <use x="88.96484375" xlink:href="#DejaVuSans-63"/>
      <use x="143.9453125" xlink:href="#DejaVuSans-61"/>
      <use x="205.224609375" xlink:href="#DejaVuSans-6c"/>
      <use x="233.0078125" xlink:href="#DejaVuSans-69"/>
      <use x="260.791015625" xlink:href="#DejaVuSans-74"/>
      <use x="300.0" xlink:href="#DejaVuSans-79"/>
      <use x="359.1796875" xlink:href="#DejaVuSans-23"/>
      <use x="442.96875" xlink:href="#DejaVuSans-31"/>
      <use x="506.591796875" xlink:href="#DejaVuSans-35"/>
     </g>
    </g>
    <g id="line2d_61">
     <path d="
M495.67 205.443
L515.83 205.443" style="fill:none;stroke:#008000;stroke-linecap:square;"/>
    </g>
    <g id="line2d_62"/>
    <g id="text_25">
     <!-- locality#2 -->
     <g transform="translate(531.67 210.4835)scale(0.144 -0.144)">
      <use xlink:href="#DejaVuSans-6c"/>
      <use x="27.783203125" xlink:href="#DejaVuSans-6f"/>
      <use x="88.96484375" xlink:href="#DejaVuSans-63"/>
      <use x="143.9453125" xlink:href="#DejaVuSans-61"/>
      <use x="205.224609375" xlink:href="#DejaVuSans-6c"/>
      <use x="233.0078125" xlink:href="#DejaVuSans-69"/>
      <use x="260.791015625" xlink:href="#DejaVuSans-74"/>
      <use x="300.0" xlink:href="#DejaVuSans-79"/>
      <use x="359.1796875" xlink:href="#DejaVuSans-23"/>
      <use x="442.96875" xlink:href="#DejaVuSans-32"/>
     </g>
    </g>
    <g id="line2d_63">
     <path d="
M495.67 226.58
L515.83 226.58" style="fill:none;stroke:#ff0000;stroke-linecap:square;"/>
    </g>
    <g id="line2d_64"/>
    <g id="text_26">
     <!-- locality#3 -->
     <g transform="translate(531.67 231.62)scale(0.144 -0.144)">
      <use xlink:href="#DejaVuSans-6c"/>
      <use x="27.783203125" xlink:href="#DejaVuSans-6f"/>
      <use x="88.96484375" xlink:href="#DejaVuSans-63"/>
      <use x="143.9453125" xlink:href="#DejaVuSans-61"/>
      <use x="205.224609375" xlink:href="#DejaVuSans-6c"/>
      <use x="233.0078125" xlink:href="#DejaVuSans-69"/>
      <use x="260.791015625" xlink:href="#DejaVuSans-74"/>
      <use x="300.0" xlink:href="#DejaVuSans-79"/>
      <use x="359.1796875" xlink:href="#DejaVuSans-23"/>
      <use x="442.96875" xlink:href="#DejaVuSans-33"/>
     </g>
    </g>
    <g id="line2d_65">
     <path d="
M495.67 247.716
L515.83 247.716" style="fill:none;stroke:#00bfbf;stroke-linecap:square;"/>
    </g>
    <g id="line2d_66"/>
    <g id="text_27">
     <!-- locality#4 -->
     <g transform="translate(531.67 252.7565)scale(0.144 -0.144)">
      <use xlink:href="#DejaVuSans-6c"/>
      <use x="27.783203125" xlink:href="#DejaVuSans-6f"/>
      <use x="88.96484375" xlink:href="#DejaVuSans-63"/>
      <use x="143.9453125" xlink:href="#DejaVuSans-61"/>
      <use x="205.224609375" xlink:href="#DejaVuSans-6c"/>
      <use x="233.0078125" xlink:href="#DejaVuSans-69"/>
      <use x="260.791015625" xlink:href="#DejaVuSans-74"/>
      <use x="300.0" xlink:href="#DejaVuSans-79"/>
      <use x="359.1796875" xlink:href="#DejaVuSans-23"/>
      <use x="442.96875" xlink:href="#DejaVuSans-34"/>
     </g>
    </g>
    <g id="line2d_67">
     <path d="
M495.67 268.853
L515.83 268.853" style="fill:none;stroke:#bf00bf;stroke-linecap:square;"/>
    </g>
    <g id="line2d_68"/>
    <g id="text_28">
     <!-- locality#5 -->
     <g transform="translate(531.67 273.893)scale(0.144 -0.144)">
      <use xlink:href="#DejaVuSans-6c"/>
      <use x="27.783203125" xlink:href="#DejaVuSans-6f"/>
      <use x="88.96484375" xlink:href="#DejaVuSans-63"/>
      <use x="143.9453125" xlink:href="#DejaVuSans-61"/>
      <use x="205.224609375" xlink:href="#DejaVuSans-6c"/>
      <use x="233.0078125" xlink:href="#DejaVuSans-69"/>
      <use x="260.791015625" xlink:href="#DejaVuSans-74"/>
      <use x="300.0" xlink:href="#DejaVuSans-79"/>
      <use x="359.1796875" xlink:href="#DejaVuSans-23"/>
      <use x="442.96875" xlink:href="#DejaVuSans-35"/>
     </g>
    </g>
    <g id="line2d_69">
     <path d="
M495.67 289.989
L515.83 289.989" style="fill:none;stroke:#bfbf00;stroke-linecap:square;"/>
    </g>
    <g id="line2d_70"/>
    <g id="text_29">
     <!-- locality#6 -->
     <g transform="translate(531.67 295.0295)scale(0.144 -0.144)">
      <use xlink:href="#DejaVuSans-6c"/>
      <use x="27.783203125" xlink:href="#DejaVuSans-6f"/>
      <use x="88.96484375" xlink:href="#DejaVuSans-63"/>
      <use x="143.9453125" xlink:href="#DejaVuSans-61"/>
      <use x="205.224609375" xlink:href="#DejaVuSans-6c"/>
      <use x="233.0078125" xlink:href="#DejaVuSans-69"/>
      <use x="260.791015625" xlink:href="#DejaVuSans-74"/>
      <use x="300.0" xlink:href="#DejaVuSans-79"/>
      <use x="359.1796875" xlink:href="#DejaVuSans-23"/>
      <use x="442.96875" xlink:href="#DejaVuSans-36"/>
     </g>
    </g>
    <g id="line2d_71">
     <path d="
M495.67 311.126
L515.83 311.126" style="fill:none;stroke:#000000;stroke-linecap:square;"/>
    </g>
    <g id="line2d_72"/>
    <g id="text_30">
     <!-- locality#7 -->
     <defs>
      <path d="
M8.20312 72.9062
L55.0781 72.9062
L55.0781 68.7031
L28.6094 0
L18.3125 0
L43.2188 64.5938
L8.20312 64.5938
z
" id="DejaVuSans-37"/>
     </defs>
     <g transform="translate(531.67 316.166)scale(0.144 -0.144)">
      <use xlink:href="#DejaVuSans-6c"/>
      <use x="27.783203125" xlink:href="#DejaVuSans-6f"/>
      <use x="88.96484375" xlink:href="#DejaVuSans-63"/>
      <use x="143.9453125" xlink:href="#DejaVuSans-61"/>
      <use x="205.224609375" xlink:href="#DejaVuSans-6c"/>
      <use x="233.0078125" xlink:href="#DejaVuSans-69"/>
      <use x="260.791015625" xlink:href="#DejaVuSans-74"/>
      <use x="300.0" xlink:href="#DejaVuSans-79"/>
      <use x="359.1796875" xlink:href="#DejaVuSans-23"/>
      <use x="442.96875" xlink:href="#DejaVuSans-37"/>
     </g>
    </g>
    <g id="line2d_73">
     <path d="
M495.67 332.262
L515.83 332.262" style="fill:none;stroke:#0000ff;stroke-linecap:square;"/>
    </g>
    <g id="line2d_74"/>
    <g id="text_31">
     <!-- locality#8 -->
     <g transform="translate(531.67 337.3025)scale(0.144 -0.144)">
      <use xlink:href="#DejaVuSans-6c"/>
      <use x="27.783203125" xlink:href="#DejaVuSans-6f"/>
      <use x="88.96484375" xlink:href="#DejaVuSans-63"/>
      <use x="143.9453125" xlink:href="#DejaVuSans-61"/>
      <use x="205.224609375" xlink:href="#DejaVuSans-6c"/>
      <use x="233.0078125" xlink:href="#DejaVuSans-69"/>
      <use x="260.791015625" xlink:href="#DejaVuSans-74"/>
      <use x="300.0" xlink:href="#DejaVuSans-79"/>
      <use x="359.1796875" xlink:href="#DejaVuSans-23"/>
      <use x="442.96875" xlink:href="#DejaVuSans-38"/>
     </g>
    </g>
    <g id="line2d_75">
     <path d="
M495.67 353.399
L515.83 353.399" style="fill:none;stroke:#008000;stroke-linecap:square;"/>
    </g>
    <g id="line2d_76"/>
    <g id="text_32">
     <!-- locality#9 -->
     <defs>
      <path d="
M10.9844 1.51562
L10.9844 10.5
Q14.7031 8.73438 18.5 7.8125
Q22.3125 6.89062 25.9844 6.89062
Q35.75 6.89062 40.8906 13.4531
Q46.0469 20.0156 46.7812 33.4062
Q43.9531 29.2031 39.5938 26.9531
Q35.25 24.7031 29.9844 24.7031
Q19.0469 24.7031 12.6719 31.3125
Q6.29688 37.9375 6.29688 49.4219
Q6.29688 60.6406 12.9375 67.4219
Q19.5781 74.2188 30.6094 74.2188
Q43.2656 74.2188 49.9219 64.5156
Q56.5938 54.8281 56.5938 36.375
Q56.5938 19.1406 48.4062 8.85938
Q40.2344 -1.42188 26.4219 -1.42188
Q22.7031 -1.42188 18.8906 -0.6875
Q15.0938 0.046875 10.9844 1.51562
M30.6094 32.4219
Q37.25 32.4219 41.125 36.9531
Q45.0156 41.5 45.0156 49.4219
Q45.0156 57.2812 41.125 61.8438
Q37.25 66.4062 30.6094 66.4062
Q23.9688 66.4062 20.0938 61.8438
Q16.2188 57.2812 16.2188 49.4219
Q16.2188 41.5 20.0938 36.9531
Q23.9688 32.4219 30.6094 32.4219" id="DejaVuSans-39"/>
     </defs>
     <g transform="translate(531.67 358.439)scale(0.144 -0.144)">
      <use xlink:href="#DejaVuSans-6c"/>
      <use x="27.783203125" xlink:href="#DejaVuSans-6f"/>
      <use x="88.96484375" xlink:href="#DejaVuSans-63"/>
      <use x="143.9453125" xlink:href="#DejaVuSans-61"/>
      <use x="205.224609375" xlink:href="#DejaVuSans-6c"/>
      <use x="233.0078125" xlink:href="#DejaVuSans-69"/>
      <use x="260.791015625" xlink:href="#DejaVuSans-74"/>
      <use x="300.0" xlink:href="#DejaVuSans-79"/>
      <use x="359.1796875" xlink:href="#DejaVuSans-23"/>
      <use x="442.96875" xlink:href="#DejaVuSans-39"/>
     </g>
    </g>
   </g>
  </g>
 </g>
 <defs>
  <clipPath id="p77ac736e8d">
   <rect height="345.6" width="446.4" x="31.99" y="23.14175"/>
  </clipPath>
 </defs>
</svg>
