<?xml version="1.0" encoding="utf-8" standalone="no"?>
<!DOCTYPE svg PUBLIC "-//W3C//DTD SVG 1.1//EN"
  "http://www.w3.org/Graphics/SVG/1.1/DTD/svg11.dtd">
<!-- Created with matplotlib (http://matplotlib.org/) -->
<svg height="408pt" version="1.1" viewBox="0 0 655 408" width="655pt" xmlns="http://www.w3.org/2000/svg" xmlns:xlink="http://www.w3.org/1999/xlink">
 <defs>
  <style type="text/css">
*{stroke-linecap:butt;stroke-linejoin:round;}
  </style>
 </defs>
 <g id="figure_1">
  <g id="patch_1">
   <path d="
M0 408.169
L655.558 408.169
L655.558 0
L0 0
z
" style="fill:#ffffff;"/>
  </g>
  <g id="axes_1">
   <g id="patch_2">
    <path d="
M62.9688 368.742
L509.369 368.742
L509.369 23.1417
L62.9688 23.1417
z
" style="fill:#ffffff;"/>
   </g>
   <g id="line2d_1">
    <path clip-path="url(#p0e537c530d)" d="
M62.9688 368.545
L66.5471 367.054
L73.7038 364.063
L111.277 347.828
L113.066 347.015
L117.539 345.037
L119.328 344.229
L137.22 336.3
L140.798 334.793
L147.955 331.694
L150.638 330.539
L152.428 329.73
L156.901 327.846
L158.69 327.036
L165.847 323.9
L193.579 311.567
L198.946 309.312
L200.735 308.503
L204.314 306.978
L211.471 303.842
L230.257 295.779
L232.046 294.952
L235.624 293.3
L238.308 292.17
L241.887 290.546
L243.676 289.816
L245.465 288.96
L247.254 288.155
L249.043 287.373
L255.305 284.708
L257.989 283.582
L259.778 282.831
L261.568 282.034
L265.146 280.523
L270.513 278.176
L272.303 277.34
L274.092 276.544
L278.565 274.56
L281.249 273.393
L283.932 272.136
L286.616 270.949
L299.14 265.413
L300.929 264.625
L305.402 262.642
L306.297 262.264
L308.086 261.318
L309.875 260.607
L311.665 259.721
L312.559 259.357
L313.454 258.872
L316.137 257.713
L317.927 256.879
L321.505 255.353
L333.135 250.272
L369.813 233.894
L374.286 231.912
L376.075 231.121
L415.437 213.55
L418.121 212.278
L420.804 211.178
L422.594 210.322
L427.067 208.37
L444.958 200.28
L448.537 198.712
L451.22 197.475
L453.904 196.318
L478.058 185.181
L483.426 182.637
L485.215 181.841
L492.372 178.399
L494.161 177.518
L509.369 170.508
L509.369 170.508" style="fill:none;stroke:#0000ff;stroke-linecap:square;"/>
   </g>
   <g id="line2d_2">
    <path clip-path="url(#p0e537c530d)" d="
M62.9688 368.734
L105.909 354
L107.698 353.351
L111.277 352.152
L122.012 348.422
L123.801 347.857
L125.59 347.183
L140.798 341.803
L149.744 338.729
L151.533 338.045
L156.901 336.285
L158.69 335.642
L175.687 329.653
L181.055 327.847
L191.79 324.074
L203.419 320.032
L206.998 318.735
L259.778 300.548
L261.568 299.873
L264.251 298.963
L279.459 293.566
L283.038 292.279
L284.827 291.627
L287.511 290.697
L310.77 282.549
L313.454 281.521
L316.137 280.593
L317.927 279.914
L319.716 279.309
L322.4 278.337
L328.662 276.121
L333.135 274.588
L339.397 272.415
L342.081 271.426
L346.554 269.853
L352.816 267.583
L355.499 266.575
L358.183 265.621
L395.756 252.163
L397.545 251.505
L413.648 245.837
L416.331 244.778
L419.91 243.537
L422.594 242.547
L436.012 237.724
L437.802 236.994
L445.853 234.102
L447.642 233.438
L452.115 231.823
L454.799 230.768
L456.588 230.162
L459.272 229.123
L504.896 212.036
L509.369 210.325
L509.369 210.325" style="fill:none;stroke:#008000;stroke-linecap:square;"/>
   </g>
   <g id="line2d_3">
    <path clip-path="url(#p0e537c530d)" d="
M62.9688 368.734
L73.7038 361.607
L75.493 360.351
L76.3876 359.811
L77.2822 359.084
L79.0714 357.952
L81.7551 356.161
L82.6497 355.633
L84.4389 354.392
L103.225 341.913
L104.12 341.229
L105.909 340.037
L114.855 333.924
L116.644 332.819
L119.328 330.905
L123.801 327.886
L125.59 326.59
L127.379 325.387
L130.958 323.092
L132.747 321.931
L134.536 320.694
L136.325 319.61
L139.009 317.749
L153.322 308.207
L158.69 304.631
L161.374 302.924
L164.057 301.101
L170.319 296.86
L176.582 292.501
L182.844 288.408
L184.633 286.994
L186.422 285.869
L188.211 284.675
L192.684 281.587
L202.525 275.206
L204.314 273.937
L206.998 272.036
L207.892 271.499
L208.787 270.782
L210.576 269.661
L211.471 268.932
L218.627 264.233
L220.416 262.899
L222.206 261.799
L223.995 260.538
L226.679 258.873
L228.468 257.626
L232.046 255.209
L234.73 253.34
L240.097 249.79
L241.887 248.532
L244.57 246.768
L246.36 245.627
L248.149 244.3
L281.249 222.219
L305.402 205.843
L306.297 205.303
L307.192 204.557
L309.875 202.774
L310.77 202.042
L312.559 200.897
L313.454 200.143
L316.137 198.448
L318.821 196.478
L322.4 194.135
L329.556 189.262
L332.24 187.582
L333.135 186.837
L338.502 183.373
L339.397 182.825
L341.186 181.513
L348.343 176.76
L350.132 175.368
L354.605 172.404
L356.394 171.193
L366.234 164.439
L367.129 163.707
L369.813 161.941
L376.075 157.661
L379.653 155.233
L380.548 154.528
L382.337 153.366
L384.126 152.199
L385.021 151.662
L385.915 150.945
L387.705 149.864
L389.494 148.612
L390.388 148.068
L391.283 147.381
L392.178 146.84
L394.861 144.946
L396.651 143.761
L411.859 133.712
L418.121 129.232
L426.172 123.793
L431.539 119.919
L435.118 117.578
L436.907 116.288
L437.802 115.599
L439.591 114.532
L441.38 113.24
L443.169 112.058
L444.958 110.847
L449.431 107.903
L467.323 95.4748
L469.112 94.3334
L477.164 88.6685
L481.636 85.3853
L487.899 80.9735
L488.793 80.1993
L490.582 79.0154
L492.372 77.7525
L493.266 77.2173
L495.95 75.1496
L497.739 73.8827
L507.58 66.6972
L509.369 65.4195
L509.369 65.4195" style="fill:none;stroke:#ff0000;stroke-linecap:square;"/>
   </g>
   <g id="line2d_4">
    <path clip-path="url(#p0e537c530d)" d="
M62.9688 368.734
L63.8633 368.085
L65.6525 367.065
L66.5471 366.347
L68.3363 365.314
L70.1255 364.099
L72.8092 362.417
L74.5984 361.223
L89.8064 351.47
L90.701 350.773
L93.3848 349.192
L94.2794 348.445
L96.9631 346.802
L105.909 341.026
L111.277 337.604
L121.117 331.176
L122.906 330.063
L124.695 328.803
L129.168 325.922
L131.852 324.241
L137.22 320.702
L138.114 320.191
L139.009 319.48
L140.798 318.441
L141.693 317.739
L143.482 316.687
L144.376 315.938
L148.849 313.189
L151.533 311.369
L155.111 309.003
L156.901 307.906
L158.69 306.731
L161.374 305.101
L163.163 303.927
L169.425 299.814
L171.214 298.648
L172.109 297.957
L174.792 296.282
L177.476 294.532
L186.422 288.804
L187.317 288.118
L189.106 286.938
L191.79 285.191
L210.576 273.287
L211.471 272.584
L216.838 269.318
L225.784 263.654
L228.468 261.94
L235.624 257.228
L237.414 256.076
L239.203 254.94
L240.992 253.751
L242.781 252.619
L246.36 250.315
L248.149 248.988
L266.04 237.679
L266.935 237.148
L267.83 236.408
L270.513 234.746
L272.303 233.525
L275.881 231.308
L278.565 229.524
L280.354 228.46
L284.827 225.459
L290.194 221.932
L293.773 219.678
L294.667 219.022
L296.457 217.954
L299.14 216.096
L300.929 214.955
L301.824 214.286
L303.613 213.122
L323.294 200.097
L325.978 198.411
L327.767 197.115
L332.24 194.436
L333.135 193.723
L339.397 189.832
L342.081 188.054
L345.659 185.85
L346.554 185.11
L348.343 184.039
L350.132 182.684
L356.394 178.693
L358.183 177.552
L361.762 175.277
L382.337 161.683
L386.81 158.903
L390.388 156.544
L391.283 155.879
L393.072 154.728
L400.229 150.145
L403.807 147.977
L405.596 146.881
L408.28 145.25
L411.859 142.882
L427.961 132.251
L428.856 131.556
L430.645 130.422
L432.434 129.245
L434.223 128.113
L436.012 126.979
L437.802 125.702
L439.591 124.651
L441.38 123.371
L443.169 122.212
L445.853 120.532
L446.748 120.011
L447.642 119.301
L449.431 118.183
L453.01 115.766
L454.799 114.64
L456.588 113.427
L473.585 102.104
L474.48 101.559
L475.374 100.843
L477.164 99.6833
L483.426 95.2349
L485.215 94.1408
L486.109 93.3835
L493.266 88.5619
L495.055 87.1706
L503.107 81.5245
L509.369 77.3249
L509.369 77.3249" style="fill:none;stroke:#00bfbf;stroke-linecap:square;"/>
   </g>
   <g id="line2d_5">
    <path clip-path="url(#p0e537c530d)" d="
M62.9688 368.734
L63.8633 368.172
L64.7579 367.699
L65.6525 367.227
L66.5471 366.515
L68.3363 365.561
L69.2309 364.913
L73.7038 362.349
L74.5984 361.72
L76.3876 360.77
L77.2822 360.084
L79.0714 359.11
L80.8605 357.959
L82.6497 356.951
L84.4389 355.876
L91.5956 351.604
L93.3848 350.618
L94.2794 349.959
L96.9631 348.447
L98.7523 347.404
L100.541 346.384
L138.114 323.904
L139.009 323.229
L143.482 320.625
L144.376 319.944
L149.744 316.866
L151.533 315.688
L160.479 310.474
L164.952 307.928
L173.003 303.037
L175.687 301.476
L178.371 299.934
L183.738 296.692
L192.684 291.376
L194.473 290.398
L196.263 289.328
L199.841 287.132
L201.63 286.095
L204.314 284.463
L211.471 280.003
L221.311 274.254
L228.468 270.078
L239.203 263.748
L246.36 259.47
L247.254 258.83
L249.938 257.343
L254.411 254.694
L257.095 253.167
L261.568 250.582
L271.408 244.744
L274.986 242.55
L276.776 241.469
L280.354 239.366
L282.143 238.182
L283.038 237.708
L284.827 236.599
L293.773 231.325
L295.562 230.196
L297.351 229.139
L305.402 224.256
L306.297 223.782
L308.086 222.511
L309.875 221.495
L328.662 210.025
L332.24 207.972
L334.029 206.766
L337.608 204.723
L384.126 176.552
L385.021 176.074
L386.81 174.862
L390.388 172.653
L393.072 170.978
L396.651 168.841
L398.44 167.795
L400.229 166.625
L406.491 163.014
L410.069 160.889
L415.437 157.462
L416.331 156.772
L418.121 155.681
L427.961 149.677
L432.434 146.923
L435.118 145.43
L446.748 138.383
L448.537 137.175
L454.799 133.226
L455.693 132.748
L460.166 129.8
L468.218 124.711
L469.112 124.218
L471.796 122.469
L495.055 107.658
L498.634 105.357
L501.317 103.637
L505.79 100.641
L507.58 99.5776
L509.369 98.3779
L509.369 98.3779" style="fill:none;stroke:#bf00bf;stroke-linecap:square;"/>
   </g>
   <g id="line2d_6">
    <path clip-path="url(#p0e537c530d)" d="
M62.9688 368.734
L63.8633 368.237
L64.7579 367.809
L65.6525 367.383
L66.5471 366.784
L68.3363 365.898
L70.1255 364.909
L73.7038 363.067
L75.493 362.095
L76.3876 361.665
L78.1768 360.647
L87.1227 355.868
L88.0172 355.291
L91.5956 353.403
L93.3848 352.489
L94.2794 351.873
L96.9631 350.461
L98.7523 349.49
L100.541 348.552
L106.804 345.212
L108.593 344.299
L110.382 343.34
L113.96 341.51
L115.75 340.453
L117.539 339.479
L119.328 338.498
L121.117 337.49
L122.012 337.061
L124.695 335.509
L126.485 334.522
L130.063 332.633
L134.536 330.163
L140.798 326.827
L142.587 325.833
L143.482 325.401
L145.271 324.377
L148.849 322.589
L157.795 317.639
L163.163 314.85
L166.741 312.851
L170.319 310.846
L176.582 307.349
L180.16 305.524
L181.055 305.079
L181.949 304.431
L183.738 303.501
L184.633 302.941
L186.422 302.082
L189.106 300.515
L195.368 297.19
L198.946 295.315
L200.735 294.206
L202.525 293.307
L205.208 291.822
L210.576 288.933
L212.365 287.882
L217.733 285.056
L219.522 284.124
L222.206 282.644
L224.889 281.276
L247.254 269.175
L249.043 268.137
L249.938 267.703
L251.727 266.649
L264.251 260.295
L266.04 259.326
L266.935 258.877
L267.83 258.3
L270.513 256.862
L272.303 255.88
L274.092 254.953
L279.459 251.998
L283.038 250.033
L284.827 249.039
L293.773 244.199
L297.351 242.25
L316.137 231.719
L317.927 230.571
L321.505 228.738
L366.234 204.126
L367.129 203.489
L369.813 202.051
L371.602 201.1
L375.18 199.09
L390.388 190.872
L391.283 190.274
L395.756 187.9
L397.545 186.948
L398.44 186.52
L400.229 185.466
L415.437 177.199
L416.331 176.57
L419.015 175.189
L422.594 173.153
L423.488 172.724
L425.277 171.65
L427.961 170.248
L429.75 169.172
L448.537 158.793
L453.01 156.254
L455.693 154.957
L459.272 152.708
L466.428 148.617
L468.218 147.648
L469.112 147.182
L470.901 146.049
L500.423 128.957
L504.001 126.733
L509.369 123.64
L509.369 123.64" style="fill:none;stroke:#bfbf00;stroke-linecap:square;"/>
   </g>
   <g id="line2d_7">
    <path clip-path="url(#p0e537c530d)" d="
M62.9688 368.734
L63.8633 368.284
L64.7579 367.905
L65.6525 367.527
L66.5471 367
L69.2309 365.742
L79.0714 361.174
L83.5443 358.966
L89.8064 356.063
L91.5956 355.163
L96.9631 352.612
L101.436 350.468
L108.593 347.158
L115.75 343.641
L117.539 342.774
L119.328 341.895
L129.168 337.163
L130.063 336.776
L130.958 336.235
L132.747 335.417
L134.536 334.568
L135.43 334.188
L137.22 333.21
L138.114 332.832
L139.903 331.903
L144.376 329.724
L147.955 328.066
L149.744 327.233
L152.428 325.808
L166.741 318.991
L168.53 318.068
L180.16 312.473
L182.844 311.183
L185.527 309.861
L186.422 309.481
L189.106 308.07
L191.79 306.828
L193.579 305.99
L197.157 304.347
L198.946 303.461
L200.735 302.56
L202.525 301.757
L206.103 299.967
L207.892 299.139
L211.471 297.329
L215.049 295.66
L220.416 293.118
L229.362 288.81
L230.257 288.427
L231.152 287.91
L233.835 286.703
L237.414 284.984
L240.097 283.723
L242.781 282.513
L244.57 281.638
L248.149 279.77
L253.516 277.353
L255.305 276.489
L260.673 273.953
L270.513 269.233
L274.986 267.027
L276.776 266.12
L283.932 262.527
L286.616 261.259
L291.089 259.07
L293.773 257.769
L295.562 256.852
L302.719 253.385
L305.402 252.054
L306.297 251.653
L308.086 250.657
L312.559 248.511
L313.454 247.983
L316.137 246.79
L317.032 246.214
L319.716 245.046
L320.61 244.525
L324.189 242.872
L331.346 239.414
L335.818 237.283
L383.232 213.924
L385.021 213.159
L386.81 212.24
L406.491 202.524
L410.069 200.863
L413.648 199.028
L415.437 198.2
L416.331 197.627
L419.015 196.391
L425.277 193.258
L427.961 192.011
L429.75 191.024
L436.012 187.907
L436.907 187.35
L440.485 185.68
L452.115 180.111
L453.904 179.188
L456.588 177.919
L457.483 177.395
L459.272 176.552
L462.85 174.648
L464.639 173.773
L467.323 172.397
L469.112 171.599
L471.796 170.156
L475.374 168.341
L476.269 167.962
L478.953 166.522
L481.636 165.154
L483.426 164.298
L484.32 163.895
L486.109 162.908
L487.899 162.063
L490.582 160.601
L493.266 159.231
L495.95 157.764
L496.845 157.385
L499.528 155.863
L504.001 153.504
L507.58 151.643
L509.369 150.697
L509.369 150.697" style="fill:none;stroke:#000000;stroke-linecap:square;"/>
   </g>
   <g id="line2d_8">
    <path clip-path="url(#p0e537c530d)" d="
M62.9688 368.734
L63.8633 368.331
L64.7579 367.998
L67.4417 366.896
L75.493 363.55
L78.1768 362.448
L83.5443 360.169
L96.9631 354.486
L98.7523 353.708
L102.331 352.215
L107.698 349.984
L113.96 347.336
L117.539 345.797
L119.328 345.028
L122.906 343.449
L123.801 343.115
L125.59 342.206
L130.958 339.974
L137.22 337.244
L139.903 336.132
L149.744 332.047
L151.533 331.14
L155.111 329.683
L164.057 325.877
L173.898 321.529
L175.687 320.747
L181.055 318.609
L183.738 317.416
L185.527 316.664
L188.211 315.544
L190.895 314.398
L194.473 312.917
L197.157 311.795
L201.63 309.916
L203.419 309.119
L215.049 304.198
L216.838 303.499
L218.627 302.719
L223.1 300.92
L227.573 298.962
L230.257 297.844
L232.046 297.053
L237.414 294.711
L240.097 293.589
L241.887 292.836
L244.57 291.707
L249.938 289.51
L259.778 285.505
L261.568 284.736
L298.246 268.916
L300.929 267.817
L301.824 267.324
L303.613 266.588
L305.402 265.816
L306.297 265.461
L308.086 264.587
L309.875 263.893
L310.77 263.425
L312.559 262.709
L315.243 261.537
L316.137 261.192
L317.032 260.7
L319.716 259.697
L320.61 259.226
L322.4 258.498
L325.083 257.382
L330.451 255.17
L334.029 253.557
L336.713 252.482
L359.972 242.497
L361.762 241.724
L366.234 239.882
L368.024 239.066
L383.232 232.377
L385.021 231.699
L385.915 231.195
L390.388 229.338
L393.967 227.755
L395.756 227.066
L397.545 226.291
L399.334 225.489
L402.913 224.024
L406.491 222.523
L410.069 221.003
L411.859 220.154
L415.437 218.57
L417.226 217.768
L419.015 217.012
L427.961 213.09
L429.75 212.286
L435.118 210.012
L466.428 196.244
L468.218 195.444
L471.796 193.799
L493.266 184.176
L495.055 183.293
L500.423 180.82
L508.474 177.154
L509.369 176.714
L509.369 176.714" style="fill:none;stroke:#0000ff;stroke-linecap:square;"/>
   </g>
   <g id="line2d_9">
    <path clip-path="url(#p0e537c530d)" d="
M62.9688 368.734
L65.6525 367.863
L71.9146 365.782
L79.0714 363.341
L82.6497 362.127
L87.1227 360.63
L90.701 359.361
L94.2794 358.138
L101.436 355.756
L103.225 355.132
L105.909 354.252
L108.593 353.307
L115.75 350.944
L117.539 350.308
L129.168 346.279
L130.958 345.664
L133.641 344.702
L138.114 343.204
L141.693 341.964
L155.111 337.32
L156.901 336.743
L158.69 336.098
L174.792 330.464
L182.844 327.745
L184.633 327.078
L187.317 326.195
L192.684 324.263
L197.157 322.786
L209.681 318.392
L212.365 317.477
L215.049 316.578
L219.522 315.098
L240.097 308.091
L241.887 307.456
L244.57 306.525
L260.673 301.045
L264.251 299.871
L266.04 299.246
L268.724 298.318
L283.038 293.298
L284.827 292.623
L295.562 289.028
L298.246 288.115
L316.137 281.746
L317.927 281.074
L321.505 279.876
L326.873 277.958
L331.346 276.479
L336.713 274.592
L340.291 273.3
L342.975 272.355
L345.659 271.433
L351.026 269.488
L352.816 268.891
L353.71 268.483
L357.289 267.269
L359.972 266.313
L366.234 264.159
L374.286 261.278
L376.97 260.341
L381.442 258.692
L385.021 257.49
L388.599 256.129
L407.386 249.523
L410.964 248.277
L418.121 245.66
L422.594 244.167
L431.539 240.929
L445.853 235.849
L448.537 234.943
L453.01 233.242
L455.693 232.326
L478.953 223.871
L481.636 222.877
L486.109 221.25
L488.793 220.254
L493.266 218.589
L495.95 217.561
L496.845 217.284
L498.634 216.56
L509.369 212.441
L509.369 212.441" style="fill:none;stroke:#008000;stroke-linecap:square;"/>
   </g>
   <g id="line2d_10">
    <path clip-path="url(#p0e537c530d)" d="
M62.9688 368.734
L79.9659 362.488
L86.2281 360.197
L92.4902 357.899
L93.3848 357.639
L95.174 356.923
L99.6469 355.304
L105.014 353.314
L126.485 345.425
L128.274 344.746
L130.958 343.78
L133.641 342.693
L136.325 341.67
L158.69 333.372
L165.847 330.73
L176.582 326.765
L181.055 325.148
L191.79 321.146
L194.473 320.113
L240.992 302.858
L246.36 300.913
L248.149 300.215
L249.938 299.559
L252.622 298.528
L257.095 296.939
L275.881 289.908
L280.354 288.173
L283.038 287.172
L284.827 286.471
L290.194 284.522
L293.773 283.255
L297.351 281.923
L393.072 245.718
L399.334 243.255
L402.913 241.959
L404.702 241.263
L407.386 240.293
L413.648 237.888
L415.437 237.241
L418.121 236.185
L423.488 234.201
L427.067 232.742
L428.856 232.056
L436.012 229.253
L438.696 228.188
L441.38 227.2
L448.537 224.504
L453.01 222.673
L472.691 214.964
L474.48 214.248
L487.899 208.93
L491.477 207.502
L496.845 205.385
L497.739 204.906
L501.317 203.431
L503.107 202.719
L508.474 200.469
L509.369 200.011
L509.369 200.011" style="fill:none;stroke:#ff0000;stroke-linecap:square;"/>
   </g>
   <g id="line2d_11">
    <path clip-path="url(#p0e537c530d)" d="
M62.9688 368.734
L92.4902 356.487
L93.3848 356.193
L94.2794 355.694
L99.6469 353.519
L109.487 349.408
L126.485 342.386
L128.274 341.605
L130.958 340.52
L133.641 339.38
L136.325 338.248
L143.482 335.184
L148.849 332.991
L156.901 329.539
L173.003 322.761
L175.687 321.619
L188.211 316.417
L190.895 315.232
L197.157 312.75
L204.314 309.721
L206.103 308.946
L207.892 308.176
L211.471 306.686
L222.206 302.324
L301.824 269.152
L304.508 267.955
L306.297 267.204
L308.981 266.011
L311.665 264.893
L325.978 258.919
L327.767 258.122
L331.346 256.598
L342.975 251.724
L345.659 250.645
L351.026 248.378
L352.816 247.675
L354.605 246.879
L374.286 238.548
L376.075 237.833
L378.759 236.629
L381.442 235.5
L388.599 232.408
L392.178 230.958
L398.44 228.249
L401.123 227.17
L430.645 214.571
L432.434 213.796
L435.118 212.661
L465.534 199.509
L468.218 198.366
L470.901 197.154
L473.585 195.924
L476.269 194.8
L482.531 191.964
L486.109 190.451
L488.793 189.202
L491.477 188.069
L500.423 184.054
L509.369 179.936
L509.369 179.936" style="fill:none;stroke:#00bfbf;stroke-linecap:square;"/>
   </g>
   <g id="line2d_12">
    <path clip-path="url(#p0e537c530d)" d="
M62.9688 368.734
L70.1255 365.379
L72.8092 364.108
L79.0714 361.071
L81.7551 359.86
L85.3335 358.183
L89.8064 356.059
L92.4902 354.826
L93.3848 354.491
L94.2794 353.958
L99.6469 351.545
L101.436 350.679
L112.171 345.512
L114.855 344.245
L120.222 341.666
L122.012 340.813
L126.485 338.705
L128.274 337.828
L131.852 336.198
L134.536 334.94
L135.43 334.552
L136.325 333.997
L143.482 330.649
L145.271 329.747
L150.638 327.203
L154.217 325.478
L161.374 322.17
L165.847 320.062
L171.214 317.525
L172.109 316.958
L174.792 315.646
L191.79 307.48
L213.26 297.36
L216.838 295.707
L222.206 293.277
L224.889 291.945
L227.573 290.681
L230.257 289.43
L232.941 288.166
L255.305 277.574
L257.095 276.695
L262.462 274.287
L266.04 272.621
L269.619 270.939
L271.408 270.029
L274.092 268.769
L277.67 267.122
L282.143 265.053
L287.511 262.438
L301.824 255.67
L307.192 253.075
L309.875 251.829
L313.454 249.998
L316.137 248.77
L318.821 247.432
L321.505 246.198
L328.662 242.802
L349.237 233.017
L351.921 231.657
L356.394 229.514
L362.656 226.419
L367.129 224.256
L368.918 223.419
L371.602 222.157
L381.442 217.44
L386.81 214.887
L388.599 214.016
L392.178 212.309
L393.967 211.348
L396.651 210.024
L400.229 208.335
L402.913 207.105
L406.491 205.432
L409.175 204.185
L413.648 202.037
L415.437 201.16
L418.121 199.834
L422.594 197.745
L438.696 189.863
L440.485 189.053
L444.064 187.161
L453.01 182.929
L460.166 179.462
L461.956 178.453
L470.901 174.03
L475.374 171.726
L477.164 170.889
L478.953 169.837
L499.528 159.637
L502.212 158.21
L504.896 156.877
L506.685 155.854
L509.369 154.477
L509.369 154.477" style="fill:none;stroke:#bf00bf;stroke-linecap:square;"/>
   </g>
   <g id="line2d_13">
    <path clip-path="url(#p0e537c530d)" d="
M62.9688 368.734
L92.4902 352.99
L93.3848 352.552
L94.2794 351.974
L96.9631 350.608
L125.59 335.194
L132.747 331.405
L134.536 330.449
L135.43 330.011
L136.325 329.428
L138.114 328.564
L139.009 327.939
L140.798 327.067
L141.693 326.458
L150.638 321.689
L158.69 317.386
L163.163 315.011
L168.53 312.169
L170.319 311.174
L196.263 296.981
L198.946 295.592
L203.419 293.163
L207.892 290.685
L209.681 289.665
L210.576 289.235
L211.471 288.648
L221.311 283.557
L224.889 281.612
L228.468 279.774
L246.36 270.359
L247.254 269.763
L249.043 268.84
L250.832 267.828
L254.411 266.021
L262.462 261.722
L266.935 259.468
L267.83 258.84
L270.513 257.486
L272.303 256.441
L283.038 250.695
L284.827 249.715
L302.719 240.04
L305.402 238.553
L312.559 234.651
L314.348 233.663
L317.927 231.598
L321.505 229.783
L344.764 217.251
L346.554 216.283
L357.289 210.518
L359.972 209.009
L361.762 208.101
L363.551 207.093
L364.445 206.658
L365.34 206.024
L367.129 205.075
L368.918 204.13
L371.602 202.748
L386.81 194.471
L388.599 193.488
L392.178 191.578
L394.861 190.08
L396.651 189.147
L398.44 188.176
L401.123 186.792
L403.807 185.398
L415.437 179.265
L418.121 177.761
L419.91 176.812
L435.118 168.529
L444.958 163.253
L448.537 161.429
L465.534 151.977
L467.323 150.921
L470.007 149.448
L474.48 146.928
L476.269 145.844
L484.32 141.205
L487.899 139.136
L489.688 138.14
L492.372 136.635
L493.266 136.201
L495.055 135.119
L501.317 131.592
L507.58 127.943
L509.369 126.908
L509.369 126.908" style="fill:none;stroke:#bfbf00;stroke-linecap:square;"/>
   </g>
   <g id="line2d_14">
    <path clip-path="url(#p0e537c530d)" d="
M62.9688 368.734
L63.8633 368.189
L64.7579 367.714
L65.6525 367.239
L66.5471 366.566
L71.0201 363.959
L72.8092 362.882
L76.3876 360.745
L77.2822 360.085
L84.4389 355.984
L88.9118 353.275
L93.3848 350.722
L94.2794 350.105
L96.9631 348.589
L143.482 320.973
L144.376 320.311
L148.849 317.772
L153.322 314.987
L156.006 313.443
L164.952 308.296
L167.636 306.661
L179.265 299.547
L181.055 298.546
L184.633 296.245
L186.422 295.237
L193.579 290.869
L198.946 287.779
L200.735 286.634
L202.525 285.603
L204.314 284.493
L215.049 277.957
L220.416 274.846
L223.1 273.194
L225.784 271.645
L240.992 262.717
L243.676 261.193
L266.04 247.988
L266.935 247.505
L267.83 246.867
L268.724 246.389
L270.513 245.246
L277.67 240.976
L279.459 239.961
L283.932 237.094
L287.511 235.085
L296.457 229.777
L316.137 218.135
L317.927 217.039
L321.505 215.009
L325.083 212.864
L336.713 205.915
L337.608 205.437
L339.397 204.261
L343.87 201.591
L345.659 200.632
L346.554 199.994
L349.237 198.396
L376.97 181.755
L384.126 177.452
L385.915 176.401
L389.494 174.279
L392.178 172.642
L394.861 170.961
L396.651 169.85
L408.28 163.1
L411.859 160.976
L415.437 158.713
L417.226 157.576
L461.956 130.31
L467.323 126.936
L469.112 125.979
L470.901 124.783
L478.058 120.348
L480.742 118.584
L494.161 110.311
L508.474 101.137
L509.369 100.559
L509.369 100.559" style="fill:none;stroke:#000000;stroke-linecap:square;"/>
   </g>
   <g id="line2d_15">
    <path clip-path="url(#p0e537c530d)" d="
M62.9688 368.734
L63.8633 368.132
L64.7579 367.619
L65.6525 367.107
L66.5471 366.384
L71.9146 362.976
L76.3876 360.124
L77.2822 359.435
L79.9659 357.736
L112.171 337.13
L113.96 336.048
L115.75 334.903
L117.539 333.726
L121.117 331.369
L122.906 330.218
L129.168 326.06
L131.852 324.407
L137.22 320.935
L138.114 320.421
L139.009 319.756
L140.798 318.719
L142.587 317.505
L150.638 312.356
L163.163 304.292
L166.741 301.982
L169.425 300.21
L180.16 293.249
L182.844 291.553
L184.633 290.265
L186.422 289.214
L188.211 288.037
L190.895 286.259
L197.157 282.42
L201.63 279.455
L204.314 277.76
L206.103 276.49
L207.892 275.382
L215.049 270.767
L219.522 267.958
L223.1 265.708
L249.938 248.671
L251.727 247.458
L253.516 246.349
L258.884 243.027
L260.673 241.896
L282.143 227.952
L294.667 219.871
L298.246 217.557
L300.035 216.429
L302.719 214.678
L304.508 213.525
L306.297 212.424
L307.192 211.685
L308.981 210.552
L331.346 196.048
L332.24 195.493
L334.029 194.252
L339.397 190.887
L342.081 189.173
L345.659 186.983
L348.343 185.209
L351.921 182.83
L353.71 181.667
L357.289 179.282
L359.972 177.463
L379.653 164.748
L380.548 164.042
L382.337 162.935
L384.126 161.792
L387.705 159.619
L389.494 158.493
L390.388 157.978
L391.283 157.314
L392.178 156.793
L393.967 155.454
L396.651 153.804
L403.807 149.296
L406.491 147.636
L408.28 146.606
L410.069 145.324
L411.859 144.171
L430.645 131.802
L432.434 130.644
L435.118 128.911
L458.377 113.567
L467.323 107.506
L469.112 106.43
L471.796 104.544
L476.269 101.6
L479.847 98.9299
L482.531 97.2078
L487.004 94.2129
L489.688 92.4661
L492.372 90.6216
L493.266 90.1062
L495.95 88.1698
L496.845 87.6564
L498.634 86.3155
L500.423 85.0575
L504.001 82.425
L509.369 78.7577
L509.369 78.7577" style="fill:none;stroke:#0000ff;stroke-linecap:square;"/>
   </g>
   <g id="line2d_16">
    <path clip-path="url(#p0e537c530d)" d="
M62.9688 368.734
L68.3363 365.252
L69.2309 364.547
L72.8092 362.207
L76.3876 359.868
L77.2822 359.162
L79.0714 358.016
L81.7551 356.237
L93.3848 348.628
L94.2794 347.826
L96.9631 346.115
L98.7523 344.956
L100.541 343.761
L117.539 332.358
L119.328 331.107
L121.117 329.907
L122.906 328.757
L128.274 325.025
L131.852 322.777
L136.325 319.77
L138.114 318.672
L139.009 317.937
L143.482 315.015
L145.271 313.762
L148.849 311.497
L161.374 303.028
L164.057 301.258
L178.371 291.419
L182.844 288.491
L184.633 287.173
L186.422 286.05
L187.317 285.322
L189.106 284.106
L195.368 280.064
L198.946 277.817
L200.735 276.6
L202.525 275.411
L206.103 272.856
L207.892 271.738
L208.787 271.024
L212.365 268.645
L214.154 267.43
L218.627 264.608
L227.573 258.527
L231.152 256.151
L246.36 246.062
L248.149 244.711
L249.938 243.565
L252.622 241.726
L258.884 237.786
L262.462 235.384
L268.724 231.308
L269.619 230.633
L270.513 230.102
L273.197 228.248
L275.881 226.525
L276.776 225.827
L281.249 222.965
L286.616 219.252
L296.457 212.805
L301.824 209.131
L309.875 203.722
L310.77 203.004
L312.559 201.876
L313.454 201.143
L316.137 199.443
L317.927 198.054
L325.978 192.753
L328.662 190.85
L332.24 188.51
L334.029 187.264
L338.502 184.407
L348.343 177.916
L355.499 172.904
L375.18 159.803
L380.548 156.161
L382.337 155.035
L384.126 153.854
L387.705 151.572
L389.494 150.371
L392.178 148.626
L394.861 146.733
L398.44 144.392
L400.229 143.2
L402.913 141.471
L405.596 139.73
L409.175 137.524
L412.753 134.996
L414.542 133.789
L422.594 128.11
L430.645 122.565
L432.434 121.349
L435.118 119.642
L443.169 114.052
L445.853 112.182
L446.748 111.645
L448.537 110.41
L454.799 106.165
L456.588 104.94
L458.377 103.661
L499.528 74.336
L504.001 71.0162
L508.474 67.8456
L509.369 67.1929
L509.369 67.1929" style="fill:none;stroke:#008000;stroke-linecap:square;"/>
   </g>
   <g id="patch_3">
    <path d="
M62.9688 23.1417
L509.369 23.1417" style="fill:none;stroke:#000000;stroke-linecap:square;stroke-linejoin:miter;"/>
   </g>
   <g id="patch_4">
    <path d="
M509.369 368.742
L509.369 23.1418" style="fill:none;stroke:#000000;stroke-linecap:square;stroke-linejoin:miter;"/>
   </g>
   <g id="patch_5">
    <path d="
M62.9688 368.742
L509.369 368.742" style="fill:none;stroke:#000000;stroke-linecap:square;stroke-linejoin:miter;"/>
   </g>
   <g id="patch_6">
    <path d="
M62.9688 368.742
L62.9688 23.1418" style="fill:none;stroke:#000000;stroke-linecap:square;stroke-linejoin:miter;"/>
   </g>
   <g id="matplotlib.axis_1">
    <g id="xtick_1">
     <g id="line2d_17">
      <defs>
       <path d="
M0 0
L0 -4" id="m93b0483c22" style="stroke:#000000;stroke-width:0.5;"/>
      </defs>
      <g>
       <use style="stroke:#000000;stroke-width:0.5;" x="62.96875" xlink:href="#m93b0483c22" y="368.74175"/>
      </g>
     </g>
     <g id="line2d_18">
      <defs>
       <path d="
M0 0
L0 4" id="m741efc42ff" style="stroke:#000000;stroke-width:0.5;"/>
      </defs>
      <g>
       <use style="stroke:#000000;stroke-width:0.5;" x="62.96875" xlink:href="#m741efc42ff" y="23.14175"/>
      </g>
     </g>
     <g id="text_1">
      <!-- 0 -->
      <defs>
       <path d="
M31.7812 66.4062
Q24.1719 66.4062 20.3281 58.9062
Q16.5 51.4219 16.5 36.375
Q16.5 21.3906 20.3281 13.8906
Q24.1719 6.39062 31.7812 6.39062
Q39.4531 6.39062 43.2812 13.8906
Q47.125 21.3906 47.125 36.375
Q47.125 51.4219 43.2812 58.9062
Q39.4531 66.4062 31.7812 66.4062
M31.7812 74.2188
Q44.0469 74.2188 50.5156 64.5156
Q56.9844 54.8281 56.9844 36.375
Q56.9844 17.9688 50.5156 8.26562
Q44.0469 -1.42188 31.7812 -1.42188
Q19.5312 -1.42188 13.0625 8.26562
Q6.59375 17.9688 6.59375 36.375
Q6.59375 54.8281 13.0625 64.5156
Q19.5312 74.2188 31.7812 74.2188" id="DejaVuSans-30"/>
      </defs>
      <g transform="translate(59.9453125 381.859875)scale(0.12 -0.12)">
       <use xlink:href="#DejaVuSans-30"/>
      </g>
     </g>
    </g>
    <g id="xtick_2">
     <g id="line2d_19">
      <g>
       <use style="stroke:#000000;stroke-width:0.5;" x="152.427667836" xlink:href="#m93b0483c22" y="368.74175"/>
      </g>
     </g>
     <g id="line2d_20">
      <g>
       <use style="stroke:#000000;stroke-width:0.5;" x="152.427667836" xlink:href="#m741efc42ff" y="23.14175"/>
      </g>
     </g>
     <g id="text_2">
      <!-- 100 -->
      <defs>
       <path d="
M12.4062 8.29688
L28.5156 8.29688
L28.5156 63.9219
L10.9844 60.4062
L10.9844 69.3906
L28.4219 72.9062
L38.2812 72.9062
L38.2812 8.29688
L54.3906 8.29688
L54.3906 0
L12.4062 0
z
" id="DejaVuSans-31"/>
      </defs>
      <g transform="translate(142.032667836 381.859875)scale(0.12 -0.12)">
       <use xlink:href="#DejaVuSans-31"/>
       <use x="63.623046875" xlink:href="#DejaVuSans-30"/>
       <use x="127.24609375" xlink:href="#DejaVuSans-30"/>
      </g>
     </g>
    </g>
    <g id="xtick_3">
     <g id="line2d_21">
      <g>
       <use style="stroke:#000000;stroke-width:0.5;" x="241.886585671" xlink:href="#m93b0483c22" y="368.74175"/>
      </g>
     </g>
     <g id="line2d_22">
      <g>
       <use style="stroke:#000000;stroke-width:0.5;" x="241.886585671" xlink:href="#m741efc42ff" y="23.14175"/>
      </g>
     </g>
     <g id="text_3">
      <!-- 200 -->
      <defs>
       <path d="
M19.1875 8.29688
L53.6094 8.29688
L53.6094 0
L7.32812 0
L7.32812 8.29688
Q12.9375 14.1094 22.625 23.8906
Q32.3281 33.6875 34.8125 36.5312
Q39.5469 41.8438 41.4219 45.5312
Q43.3125 49.2188 43.3125 52.7812
Q43.3125 58.5938 39.2344 62.25
Q35.1562 65.9219 28.6094 65.9219
Q23.9688 65.9219 18.8125 64.3125
Q13.6719 62.7031 7.8125 59.4219
L7.8125 69.3906
Q13.7656 71.7812 18.9375 73
Q24.125 74.2188 28.4219 74.2188
Q39.75 74.2188 46.4844 68.5469
Q53.2188 62.8906 53.2188 53.4219
Q53.2188 48.9219 51.5312 44.8906
Q49.8594 40.875 45.4062 35.4062
Q44.1875 33.9844 37.6406 27.2188
Q31.1094 20.4531 19.1875 8.29688" id="DejaVuSans-32"/>
      </defs>
      <g transform="translate(231.272210671 381.859875)scale(0.12 -0.12)">
       <use xlink:href="#DejaVuSans-32"/>
       <use x="63.623046875" xlink:href="#DejaVuSans-30"/>
       <use x="127.24609375" xlink:href="#DejaVuSans-30"/>
      </g>
     </g>
    </g>
    <g id="xtick_4">
     <g id="line2d_23">
      <g>
       <use style="stroke:#000000;stroke-width:0.5;" x="331.345503507" xlink:href="#m93b0483c22" y="368.74175"/>
      </g>
     </g>
     <g id="line2d_24">
      <g>
       <use style="stroke:#000000;stroke-width:0.5;" x="331.345503507" xlink:href="#m741efc42ff" y="23.14175"/>
      </g>
     </g>
     <g id="text_4">
      <!-- 300 -->
      <defs>
       <path d="
M40.5781 39.3125
Q47.6562 37.7969 51.625 33
Q55.6094 28.2188 55.6094 21.1875
Q55.6094 10.4062 48.1875 4.48438
Q40.7656 -1.42188 27.0938 -1.42188
Q22.5156 -1.42188 17.6562 -0.515625
Q12.7969 0.390625 7.625 2.20312
L7.625 11.7188
Q11.7188 9.32812 16.5938 8.10938
Q21.4844 6.89062 26.8125 6.89062
Q36.0781 6.89062 40.9375 10.5469
Q45.7969 14.2031 45.7969 21.1875
Q45.7969 27.6406 41.2812 31.2656
Q36.7656 34.9062 28.7188 34.9062
L20.2188 34.9062
L20.2188 43.0156
L29.1094 43.0156
Q36.375 43.0156 40.2344 45.9219
Q44.0938 48.8281 44.0938 54.2969
Q44.0938 59.9062 40.1094 62.9062
Q36.1406 65.9219 28.7188 65.9219
Q24.6562 65.9219 20.0156 65.0312
Q15.375 64.1562 9.8125 62.3125
L9.8125 71.0938
Q15.4375 72.6562 20.3438 73.4375
Q25.25 74.2188 29.5938 74.2188
Q40.8281 74.2188 47.3594 69.1094
Q53.9062 64.0156 53.9062 55.3281
Q53.9062 49.2656 50.4375 45.0938
Q46.9688 40.9219 40.5781 39.3125" id="DejaVuSans-33"/>
      </defs>
      <g transform="translate(320.748941007 381.859875)scale(0.12 -0.12)">
       <use xlink:href="#DejaVuSans-33"/>
       <use x="63.623046875" xlink:href="#DejaVuSans-30"/>
       <use x="127.24609375" xlink:href="#DejaVuSans-30"/>
      </g>
     </g>
    </g>
    <g id="xtick_5">
     <g id="line2d_25">
      <g>
       <use style="stroke:#000000;stroke-width:0.5;" x="420.804421343" xlink:href="#m93b0483c22" y="368.74175"/>
      </g>
     </g>
     <g id="line2d_26">
      <g>
       <use style="stroke:#000000;stroke-width:0.5;" x="420.804421343" xlink:href="#m741efc42ff" y="23.14175"/>
      </g>
     </g>
     <g id="text_5">
      <!-- 400 -->
      <defs>
       <path d="
M37.7969 64.3125
L12.8906 25.3906
L37.7969 25.3906
z

M35.2031 72.9062
L47.6094 72.9062
L47.6094 25.3906
L58.0156 25.3906
L58.0156 17.1875
L47.6094 17.1875
L47.6094 0
L37.7969 0
L37.7969 17.1875
L4.89062 17.1875
L4.89062 26.7031
z
" id="DejaVuSans-34"/>
      </defs>
      <g transform="translate(410.043796343 381.859875)scale(0.12 -0.12)">
       <use xlink:href="#DejaVuSans-34"/>
       <use x="63.623046875" xlink:href="#DejaVuSans-30"/>
       <use x="127.24609375" xlink:href="#DejaVuSans-30"/>
      </g>
     </g>
    </g>
    <g id="text_6">
     <!-- time -->
     <defs>
      <path d="
M18.3125 70.2188
L18.3125 54.6875
L36.8125 54.6875
L36.8125 47.7031
L18.3125 47.7031
L18.3125 18.0156
Q18.3125 11.3281 20.1406 9.42188
Q21.9688 7.51562 27.5938 7.51562
L36.8125 7.51562
L36.8125 0
L27.5938 0
Q17.1875 0 13.2344 3.875
Q9.28125 7.76562 9.28125 18.0156
L9.28125 47.7031
L2.6875 47.7031
L2.6875 54.6875
L9.28125 54.6875
L9.28125 70.2188
z
" id="DejaVuSans-74"/>
      <path d="
M52 44.1875
Q55.375 50.25 60.0625 53.125
Q64.75 56 71.0938 56
Q79.6406 56 84.2812 50.0156
Q88.9219 44.0469 88.9219 33.0156
L88.9219 0
L79.8906 0
L79.8906 32.7188
Q79.8906 40.5781 77.0938 44.375
Q74.3125 48.1875 68.6094 48.1875
Q61.625 48.1875 57.5625 43.5469
Q53.5156 38.9219 53.5156 30.9062
L53.5156 0
L44.4844 0
L44.4844 32.7188
Q44.4844 40.625 41.7031 44.4062
Q38.9219 48.1875 33.1094 48.1875
Q26.2188 48.1875 22.1562 43.5312
Q18.1094 38.875 18.1094 30.9062
L18.1094 0
L9.07812 0
L9.07812 54.6875
L18.1094 54.6875
L18.1094 46.1875
Q21.1875 51.2188 25.4844 53.6094
Q29.7812 56 35.6875 56
Q41.6562 56 45.8281 52.9688
Q50 49.9531 52 44.1875" id="DejaVuSans-6d"/>
      <path d="
M56.2031 29.5938
L56.2031 25.2031
L14.8906 25.2031
Q15.4844 15.9219 20.4844 11.0625
Q25.4844 6.20312 34.4219 6.20312
Q39.5938 6.20312 44.4531 7.46875
Q49.3125 8.73438 54.1094 11.2812
L54.1094 2.78125
Q49.2656 0.734375 44.1875 -0.34375
Q39.1094 -1.42188 33.8906 -1.42188
Q20.7969 -1.42188 13.1562 6.1875
Q5.51562 13.8125 5.51562 26.8125
Q5.51562 40.2344 12.7656 48.1094
Q20.0156 56 32.3281 56
Q43.3594 56 49.7812 48.8906
Q56.2031 41.7969 56.2031 29.5938
M47.2188 32.2344
Q47.125 39.5938 43.0938 43.9844
Q39.0625 48.3906 32.4219 48.3906
Q24.9062 48.3906 20.3906 44.1406
Q15.875 39.8906 15.1875 32.1719
z
" id="DejaVuSans-65"/>
      <path d="
M9.42188 54.6875
L18.4062 54.6875
L18.4062 0
L9.42188 0
z

M9.42188 75.9844
L18.4062 75.9844
L18.4062 64.5938
L9.42188 64.5938
z
" id="DejaVuSans-69"/>
     </defs>
     <g transform="translate(273.094375 398.473625)scale(0.12 -0.12)">
      <use xlink:href="#DejaVuSans-74"/>
      <use x="39.208984375" xlink:href="#DejaVuSans-69"/>
      <use x="66.9921875" xlink:href="#DejaVuSans-6d"/>
      <use x="164.404296875" xlink:href="#DejaVuSans-65"/>
     </g>
    </g>
   </g>
   <g id="matplotlib.axis_2">
    <g id="ytick_1">
     <g id="line2d_27">
      <defs>
       <path d="
M0 0
L4 0" id="m728421d6d4" style="stroke:#000000;stroke-width:0.5;"/>
      </defs>
      <g>
       <use style="stroke:#000000;stroke-width:0.5;" x="62.96875" xlink:href="#m728421d6d4" y="368.74175"/>
      </g>
     </g>
     <g id="line2d_28">
      <defs>
       <path d="
M0 0
L-4 0" id="mcb0005524f" style="stroke:#000000;stroke-width:0.5;"/>
      </defs>
      <g>
       <use style="stroke:#000000;stroke-width:0.5;" x="509.36875" xlink:href="#mcb0005524f" y="368.74175"/>
      </g>
     </g>
     <g id="text_7">
      <!-- 0 -->
      <g transform="translate(52.921875 372.053)scale(0.12 -0.12)">
       <use xlink:href="#DejaVuSans-30"/>
      </g>
     </g>
    </g>
    <g id="ytick_2">
     <g id="line2d_29">
      <g>
       <use style="stroke:#000000;stroke-width:0.5;" x="62.96875" xlink:href="#m728421d6d4" y="319.370321429"/>
      </g>
     </g>
     <g id="line2d_30">
      <g>
       <use style="stroke:#000000;stroke-width:0.5;" x="509.36875" xlink:href="#mcb0005524f" y="319.370321429"/>
      </g>
     </g>
     <g id="text_8">
      <!-- 500000 -->
      <defs>
       <path d="
M10.7969 72.9062
L49.5156 72.9062
L49.5156 64.5938
L19.8281 64.5938
L19.8281 46.7344
Q21.9688 47.4688 24.1094 47.8281
Q26.2656 48.1875 28.4219 48.1875
Q40.625 48.1875 47.75 41.5
Q54.8906 34.8125 54.8906 23.3906
Q54.8906 11.625 47.5625 5.09375
Q40.2344 -1.42188 26.9062 -1.42188
Q22.3125 -1.42188 17.5469 -0.640625
Q12.7969 0.140625 7.71875 1.70312
L7.71875 11.625
Q12.1094 9.23438 16.7969 8.0625
Q21.4844 6.89062 26.7031 6.89062
Q35.1562 6.89062 40.0781 11.3281
Q45.0156 15.7656 45.0156 23.3906
Q45.0156 31 40.0781 35.4375
Q35.1562 39.8906 26.7031 39.8906
Q22.75 39.8906 18.8125 39.0156
Q14.8906 38.1406 10.7969 36.2812
z
" id="DejaVuSans-35"/>
      </defs>
      <g transform="translate(14.881875 322.681571429)scale(0.12 -0.12)">
       <use xlink:href="#DejaVuSans-35"/>
       <use x="63.623046875" xlink:href="#DejaVuSans-30"/>
       <use x="127.24609375" xlink:href="#DejaVuSans-30"/>
       <use x="190.869140625" xlink:href="#DejaVuSans-30"/>
       <use x="254.4921875" xlink:href="#DejaVuSans-30"/>
       <use x="318.115234375" xlink:href="#DejaVuSans-30"/>
      </g>
     </g>
    </g>
    <g id="ytick_3">
     <g id="line2d_31">
      <g>
       <use style="stroke:#000000;stroke-width:0.5;" x="62.96875" xlink:href="#m728421d6d4" y="269.998892857"/>
      </g>
     </g>
     <g id="line2d_32">
      <g>
       <use style="stroke:#000000;stroke-width:0.5;" x="509.36875" xlink:href="#mcb0005524f" y="269.998892857"/>
      </g>
     </g>
     <g id="text_9">
      <!-- 1000000 -->
      <g transform="translate(7.63875 273.310142857)scale(0.12 -0.12)">
       <use xlink:href="#DejaVuSans-31"/>
       <use x="63.623046875" xlink:href="#DejaVuSans-30"/>
       <use x="127.24609375" xlink:href="#DejaVuSans-30"/>
       <use x="190.869140625" xlink:href="#DejaVuSans-30"/>
       <use x="254.4921875" xlink:href="#DejaVuSans-30"/>
       <use x="318.115234375" xlink:href="#DejaVuSans-30"/>
       <use x="381.73828125" xlink:href="#DejaVuSans-30"/>
      </g>
     </g>
    </g>
    <g id="ytick_4">
     <g id="line2d_33">
      <g>
       <use style="stroke:#000000;stroke-width:0.5;" x="62.96875" xlink:href="#m728421d6d4" y="220.627464286"/>
      </g>
     </g>
     <g id="line2d_34">
      <g>
       <use style="stroke:#000000;stroke-width:0.5;" x="509.36875" xlink:href="#mcb0005524f" y="220.627464286"/>
      </g>
     </g>
     <g id="text_10">
      <!-- 1500000 -->
      <g transform="translate(7.63875 223.938714286)scale(0.12 -0.12)">
       <use xlink:href="#DejaVuSans-31"/>
       <use x="63.623046875" xlink:href="#DejaVuSans-35"/>
       <use x="127.24609375" xlink:href="#DejaVuSans-30"/>
       <use x="190.869140625" xlink:href="#DejaVuSans-30"/>
       <use x="254.4921875" xlink:href="#DejaVuSans-30"/>
       <use x="318.115234375" xlink:href="#DejaVuSans-30"/>
       <use x="381.73828125" xlink:href="#DejaVuSans-30"/>
      </g>
     </g>
    </g>
    <g id="ytick_5">
     <g id="line2d_35">
      <g>
       <use style="stroke:#000000;stroke-width:0.5;" x="62.96875" xlink:href="#m728421d6d4" y="171.256035714"/>
      </g>
     </g>
     <g id="line2d_36">
      <g>
       <use style="stroke:#000000;stroke-width:0.5;" x="509.36875" xlink:href="#mcb0005524f" y="171.256035714"/>
      </g>
     </g>
     <g id="text_11">
      <!-- 2000000 -->
      <g transform="translate(7.2 174.567285714)scale(0.12 -0.12)">
       <use xlink:href="#DejaVuSans-32"/>
       <use x="63.623046875" xlink:href="#DejaVuSans-30"/>
       <use x="127.24609375" xlink:href="#DejaVuSans-30"/>
       <use x="190.869140625" xlink:href="#DejaVuSans-30"/>
       <use x="254.4921875" xlink:href="#DejaVuSans-30"/>
       <use x="318.115234375" xlink:href="#DejaVuSans-30"/>
       <use x="381.73828125" xlink:href="#DejaVuSans-30"/>
      </g>
     </g>
    </g>
    <g id="ytick_6">
     <g id="line2d_37">
      <g>
       <use style="stroke:#000000;stroke-width:0.5;" x="62.96875" xlink:href="#m728421d6d4" y="121.884607143"/>
      </g>
     </g>
     <g id="line2d_38">
      <g>
       <use style="stroke:#000000;stroke-width:0.5;" x="509.36875" xlink:href="#mcb0005524f" y="121.884607143"/>
      </g>
     </g>
     <g id="text_12">
      <!-- 2500000 -->
      <g transform="translate(7.2 125.195857143)scale(0.12 -0.12)">
       <use xlink:href="#DejaVuSans-32"/>
       <use x="63.623046875" xlink:href="#DejaVuSans-35"/>
       <use x="127.24609375" xlink:href="#DejaVuSans-30"/>
       <use x="190.869140625" xlink:href="#DejaVuSans-30"/>
       <use x="254.4921875" xlink:href="#DejaVuSans-30"/>
       <use x="318.115234375" xlink:href="#DejaVuSans-30"/>
       <use x="381.73828125" xlink:href="#DejaVuSans-30"/>
      </g>
     </g>
    </g>
    <g id="ytick_7">
     <g id="line2d_39">
      <g>
       <use style="stroke:#000000;stroke-width:0.5;" x="62.96875" xlink:href="#m728421d6d4" y="72.5131785714"/>
      </g>
     </g>
     <g id="line2d_40">
      <g>
       <use style="stroke:#000000;stroke-width:0.5;" x="509.36875" xlink:href="#mcb0005524f" y="72.5131785714"/>
      </g>
     </g>
     <g id="text_13">
      <!-- 3000000 -->
      <g transform="translate(7.235625 75.8244285714)scale(0.12 -0.12)">
       <use xlink:href="#DejaVuSans-33"/>
       <use x="63.623046875" xlink:href="#DejaVuSans-30"/>
       <use x="127.24609375" xlink:href="#DejaVuSans-30"/>
       <use x="190.869140625" xlink:href="#DejaVuSans-30"/>
       <use x="254.4921875" xlink:href="#DejaVuSans-30"/>
       <use x="318.115234375" xlink:href="#DejaVuSans-30"/>
       <use x="381.73828125" xlink:href="#DejaVuSans-30"/>
      </g>
     </g>
    </g>
    <g id="ytick_8">
     <g id="line2d_41">
      <g>
       <use style="stroke:#000000;stroke-width:0.5;" x="62.96875" xlink:href="#m728421d6d4" y="23.14175"/>
      </g>
     </g>
     <g id="line2d_42">
      <g>
       <use style="stroke:#000000;stroke-width:0.5;" x="509.36875" xlink:href="#mcb0005524f" y="23.14175"/>
      </g>
     </g>
     <g id="text_14">
      <!-- 3500000 -->
      <g transform="translate(7.235625 26.453)scale(0.12 -0.12)">
       <use xlink:href="#DejaVuSans-33"/>
       <use x="63.623046875" xlink:href="#DejaVuSans-35"/>
       <use x="127.24609375" xlink:href="#DejaVuSans-30"/>
       <use x="190.869140625" xlink:href="#DejaVuSans-30"/>
       <use x="254.4921875" xlink:href="#DejaVuSans-30"/>
       <use x="318.115234375" xlink:href="#DejaVuSans-30"/>
       <use x="381.73828125" xlink:href="#DejaVuSans-30"/>
      </g>
     </g>
    </g>
   </g>
   <g id="text_15">
    <!-- /agas/count/cache/misses -->
    <defs>
     <path d="
M25.3906 72.9062
L33.6875 72.9062
L8.29688 -9.28125
L0 -9.28125
z
" id="DejaVuSans-2f"/>
     <path d="
M30.6094 48.3906
Q23.3906 48.3906 19.1875 42.75
Q14.9844 37.1094 14.9844 27.2969
Q14.9844 17.4844 19.1562 11.8438
Q23.3438 6.20312 30.6094 6.20312
Q37.7969 6.20312 41.9844 11.8594
Q46.1875 17.5312 46.1875 27.2969
Q46.1875 37.0156 41.9844 42.7031
Q37.7969 48.3906 30.6094 48.3906
M30.6094 56
Q42.3281 56 49.0156 48.375
Q55.7188 40.7656 55.7188 27.2969
Q55.7188 13.875 49.0156 6.21875
Q42.3281 -1.42188 30.6094 -1.42188
Q18.8438 -1.42188 12.1719 6.21875
Q5.51562 13.875 5.51562 27.2969
Q5.51562 40.7656 12.1719 48.375
Q18.8438 56 30.6094 56" id="DejaVuSans-6f"/>
     <path d="
M54.8906 33.0156
L54.8906 0
L45.9062 0
L45.9062 32.7188
Q45.9062 40.4844 42.875 44.3281
Q39.8438 48.1875 33.7969 48.1875
Q26.5156 48.1875 22.3125 43.5469
Q18.1094 38.9219 18.1094 30.9062
L18.1094 0
L9.07812 0
L9.07812 54.6875
L18.1094 54.6875
L18.1094 46.1875
Q21.3438 51.125 25.7031 53.5625
Q30.0781 56 35.7969 56
Q45.2188 56 50.0469 50.1719
Q54.8906 44.3438 54.8906 33.0156" id="DejaVuSans-6e"/>
     <path d="
M54.8906 33.0156
L54.8906 0
L45.9062 0
L45.9062 32.7188
Q45.9062 40.4844 42.875 44.3281
Q39.8438 48.1875 33.7969 48.1875
Q26.5156 48.1875 22.3125 43.5469
Q18.1094 38.9219 18.1094 30.9062
L18.1094 0
L9.07812 0
L9.07812 75.9844
L18.1094 75.9844
L18.1094 46.1875
Q21.3438 51.125 25.7031 53.5625
Q30.0781 56 35.7969 56
Q45.2188 56 50.0469 50.1719
Q54.8906 44.3438 54.8906 33.0156" id="DejaVuSans-68"/>
     <path d="
M8.5 21.5781
L8.5 54.6875
L17.4844 54.6875
L17.4844 21.9219
Q17.4844 14.1562 20.5 10.2656
Q23.5312 6.39062 29.5938 6.39062
Q36.8594 6.39062 41.0781 11.0312
Q45.3125 15.6719 45.3125 23.6875
L45.3125 54.6875
L54.2969 54.6875
L54.2969 0
L45.3125 0
L45.3125 8.40625
Q42.0469 3.42188 37.7188 1
Q33.4062 -1.42188 27.6875 -1.42188
Q18.2656 -1.42188 13.375 4.4375
Q8.5 10.2969 8.5 21.5781
M31.1094 56
z
" id="DejaVuSans-75"/>
     <path d="
M45.4062 27.9844
Q45.4062 37.75 41.375 43.1094
Q37.3594 48.4844 30.0781 48.4844
Q22.8594 48.4844 18.8281 43.1094
Q14.7969 37.75 14.7969 27.9844
Q14.7969 18.2656 18.8281 12.8906
Q22.8594 7.51562 30.0781 7.51562
Q37.3594 7.51562 41.375 12.8906
Q45.4062 18.2656 45.4062 27.9844
M54.3906 6.78125
Q54.3906 -7.17188 48.1875 -13.9844
Q42 -20.7969 29.2031 -20.7969
Q24.4688 -20.7969 20.2656 -20.0938
Q16.0625 -19.3906 12.1094 -17.9219
L12.1094 -9.1875
Q16.0625 -11.3281 19.9219 -12.3438
Q23.7812 -13.375 27.7812 -13.375
Q36.625 -13.375 41.0156 -8.76562
Q45.4062 -4.15625 45.4062 5.17188
L45.4062 9.625
Q42.625 4.78125 38.2812 2.39062
Q33.9375 0 27.875 0
Q17.8281 0 11.6719 7.65625
Q5.51562 15.3281 5.51562 27.9844
Q5.51562 40.6719 11.6719 48.3281
Q17.8281 56 27.875 56
Q33.9375 56 38.2812 53.6094
Q42.625 51.2188 45.4062 46.3906
L45.4062 54.6875
L54.3906 54.6875
z
" id="DejaVuSans-67"/>
     <path d="
M48.7812 52.5938
L48.7812 44.1875
Q44.9688 46.2969 41.1406 47.3438
Q37.3125 48.3906 33.4062 48.3906
Q24.6562 48.3906 19.8125 42.8438
Q14.9844 37.3125 14.9844 27.2969
Q14.9844 17.2812 19.8125 11.7344
Q24.6562 6.20312 33.4062 6.20312
Q37.3125 6.20312 41.1406 7.25
Q44.9688 8.29688 48.7812 10.4062
L48.7812 2.09375
Q45.0156 0.34375 40.9844 -0.53125
Q36.9688 -1.42188 32.4219 -1.42188
Q20.0625 -1.42188 12.7812 6.34375
Q5.51562 14.1094 5.51562 27.2969
Q5.51562 40.6719 12.8594 48.3281
Q20.2188 56 33.0156 56
Q37.1562 56 41.1094 55.1406
Q45.0625 54.2969 48.7812 52.5938" id="DejaVuSans-63"/>
     <path d="
M44.2812 53.0781
L44.2812 44.5781
Q40.4844 46.5312 36.375 47.5
Q32.2812 48.4844 27.875 48.4844
Q21.1875 48.4844 17.8438 46.4375
Q14.5 44.3906 14.5 40.2812
Q14.5 37.1562 16.8906 35.375
Q19.2812 33.5938 26.5156 31.9844
L29.5938 31.2969
Q39.1562 29.25 43.1875 25.5156
Q47.2188 21.7812 47.2188 15.0938
Q47.2188 7.46875 41.1875 3.01562
Q35.1562 -1.42188 24.6094 -1.42188
Q20.2188 -1.42188 15.4531 -0.5625
Q10.6875 0.296875 5.42188 2
L5.42188 11.2812
Q10.4062 8.6875 15.2344 7.39062
Q20.0625 6.10938 24.8125 6.10938
Q31.1562 6.10938 34.5625 8.28125
Q37.9844 10.4531 37.9844 14.4062
Q37.9844 18.0625 35.5156 20.0156
Q33.0625 21.9688 24.7031 23.7812
L21.5781 24.5156
Q13.2344 26.2656 9.51562 29.9062
Q5.8125 33.5469 5.8125 39.8906
Q5.8125 47.6094 11.2812 51.7969
Q16.75 56 26.8125 56
Q31.7812 56 36.1719 55.2656
Q40.5781 54.5469 44.2812 53.0781" id="DejaVuSans-73"/>
     <path d="
M34.2812 27.4844
Q23.3906 27.4844 19.1875 25
Q14.9844 22.5156 14.9844 16.5
Q14.9844 11.7188 18.1406 8.90625
Q21.2969 6.10938 26.7031 6.10938
Q34.1875 6.10938 38.7031 11.4062
Q43.2188 16.7031 43.2188 25.4844
L43.2188 27.4844
z

M52.2031 31.2031
L52.2031 0
L43.2188 0
L43.2188 8.29688
Q40.1406 3.32812 35.5469 0.953125
Q30.9531 -1.42188 24.3125 -1.42188
Q15.9219 -1.42188 10.9531 3.29688
Q6 8.01562 6 15.9219
Q6 25.1406 12.1719 29.8281
Q18.3594 34.5156 30.6094 34.5156
L43.2188 34.5156
L43.2188 35.4062
Q43.2188 41.6094 39.1406 45
Q35.0625 48.3906 27.6875 48.3906
Q23 48.3906 18.5469 47.2656
Q14.1094 46.1406 10.0156 43.8906
L10.0156 52.2031
Q14.9375 54.1094 19.5781 55.0469
Q24.2188 56 28.6094 56
Q40.4844 56 46.3438 49.8438
Q52.2031 43.7031 52.2031 31.2031" id="DejaVuSans-61"/>
    </defs>
    <g transform="translate(193.339375 18.14175)scale(0.144 -0.144)">
     <use xlink:href="#DejaVuSans-2f"/>
     <use x="33.69140625" xlink:href="#DejaVuSans-61"/>
     <use x="94.970703125" xlink:href="#DejaVuSans-67"/>
     <use x="158.447265625" xlink:href="#DejaVuSans-61"/>
     <use x="219.7265625" xlink:href="#DejaVuSans-73"/>
     <use x="271.826171875" xlink:href="#DejaVuSans-2f"/>
     <use x="305.517578125" xlink:href="#DejaVuSans-63"/>
     <use x="360.498046875" xlink:href="#DejaVuSans-6f"/>
     <use x="421.6796875" xlink:href="#DejaVuSans-75"/>
     <use x="485.05859375" xlink:href="#DejaVuSans-6e"/>
     <use x="548.4375" xlink:href="#DejaVuSans-74"/>
     <use x="587.646484375" xlink:href="#DejaVuSans-2f"/>
     <use x="621.337890625" xlink:href="#DejaVuSans-63"/>
     <use x="676.318359375" xlink:href="#DejaVuSans-61"/>
     <use x="737.59765625" xlink:href="#DejaVuSans-63"/>
     <use x="792.578125" xlink:href="#DejaVuSans-68"/>
     <use x="855.95703125" xlink:href="#DejaVuSans-65"/>
     <use x="917.48046875" xlink:href="#DejaVuSans-2f"/>
     <use x="951.171875" xlink:href="#DejaVuSans-6d"/>
     <use x="1048.58398438" xlink:href="#DejaVuSans-69"/>
     <use x="1076.3671875" xlink:href="#DejaVuSans-73"/>
     <use x="1128.46679688" xlink:href="#DejaVuSans-73"/>
     <use x="1180.56640625" xlink:href="#DejaVuSans-65"/>
     <use x="1242.08984375" xlink:href="#DejaVuSans-73"/>
    </g>
   </g>
   <g id="legend_1">
    <g id="patch_7">
     <path d="
M516.569 367.194
L648.358 367.194
L648.358 24.6897
L516.569 24.6897
z
" style="fill:#ffffff;stroke:#000000;stroke-linejoin:miter;"/>
    </g>
    <g id="line2d_43">
     <path d="
M526.649 36.3515
L546.809 36.3515" style="fill:none;stroke:#0000ff;stroke-linecap:square;"/>
    </g>
    <g id="line2d_44"/>
    <g id="text_16">
     <!-- locality#0 -->
     <defs>
      <path d="
M51.125 44
L36.9219 44
L32.8125 27.6875
L47.125 27.6875
z

M43.7969 71.7812
L38.7188 51.5156
L52.9844 51.5156
L58.1094 71.7812
L65.9219 71.7812
L60.8906 51.5156
L76.125 51.5156
L76.125 44
L58.9844 44
L54.9844 27.6875
L70.5156 27.6875
L70.5156 20.2188
L53.0781 20.2188
L48 0
L40.1875 0
L45.2188 20.2188
L30.9062 20.2188
L25.875 0
L18.0156 0
L23.0938 20.2188
L7.71875 20.2188
L7.71875 27.6875
L24.9062 27.6875
L29 44
L13.2812 44
L13.2812 51.5156
L30.9062 51.5156
L35.8906 71.7812
z
" id="DejaVuSans-23"/>
      <path d="
M32.1719 -5.07812
Q28.375 -14.8438 24.75 -17.8125
Q21.1406 -20.7969 15.0938 -20.7969
L7.90625 -20.7969
L7.90625 -13.2812
L13.1875 -13.2812
Q16.8906 -13.2812 18.9375 -11.5156
Q21 -9.76562 23.4844 -3.21875
L25.0938 0.875
L2.98438 54.6875
L12.5 54.6875
L29.5938 11.9219
L46.6875 54.6875
L56.2031 54.6875
z
" id="DejaVuSans-79"/>
      <path d="
M9.42188 75.9844
L18.4062 75.9844
L18.4062 0
L9.42188 0
z
" id="DejaVuSans-6c"/>
     </defs>
     <g transform="translate(562.64875 41.3915)scale(0.144 -0.144)">
      <use xlink:href="#DejaVuSans-6c"/>
      <use x="27.783203125" xlink:href="#DejaVuSans-6f"/>
      <use x="88.96484375" xlink:href="#DejaVuSans-63"/>
      <use x="143.9453125" xlink:href="#DejaVuSans-61"/>
      <use x="205.224609375" xlink:href="#DejaVuSans-6c"/>
      <use x="233.0078125" xlink:href="#DejaVuSans-69"/>
      <use x="260.791015625" xlink:href="#DejaVuSans-74"/>
      <use x="300.0" xlink:href="#DejaVuSans-79"/>
      <use x="359.1796875" xlink:href="#DejaVuSans-23"/>
      <use x="442.96875" xlink:href="#DejaVuSans-30"/>
     </g>
    </g>
    <g id="line2d_45">
     <path d="
M526.649 57.488
L546.809 57.488" style="fill:none;stroke:#008000;stroke-linecap:square;"/>
    </g>
    <g id="line2d_46"/>
    <g id="text_17">
     <!-- locality#1 -->
     <g transform="translate(562.64875 62.528)scale(0.144 -0.144)">
      <use xlink:href="#DejaVuSans-6c"/>
      <use x="27.783203125" xlink:href="#DejaVuSans-6f"/>
      <use x="88.96484375" xlink:href="#DejaVuSans-63"/>
      <use x="143.9453125" xlink:href="#DejaVuSans-61"/>
      <use x="205.224609375" xlink:href="#DejaVuSans-6c"/>
      <use x="233.0078125" xlink:href="#DejaVuSans-69"/>
      <use x="260.791015625" xlink:href="#DejaVuSans-74"/>
      <use x="300.0" xlink:href="#DejaVuSans-79"/>
      <use x="359.1796875" xlink:href="#DejaVuSans-23"/>
      <use x="442.96875" xlink:href="#DejaVuSans-31"/>
     </g>
    </g>
    <g id="line2d_47">
     <path d="
M526.649 78.6245
L546.809 78.6245" style="fill:none;stroke:#ff0000;stroke-linecap:square;"/>
    </g>
    <g id="line2d_48"/>
    <g id="text_18">
     <!-- locality#10 -->
     <g transform="translate(562.64875 83.6645)scale(0.144 -0.144)">
      <use xlink:href="#DejaVuSans-6c"/>
      <use x="27.783203125" xlink:href="#DejaVuSans-6f"/>
      <use x="88.96484375" xlink:href="#DejaVuSans-63"/>
      <use x="143.9453125" xlink:href="#DejaVuSans-61"/>
      <use x="205.224609375" xlink:href="#DejaVuSans-6c"/>
      <use x="233.0078125" xlink:href="#DejaVuSans-69"/>
      <use x="260.791015625" xlink:href="#DejaVuSans-74"/>
      <use x="300.0" xlink:href="#DejaVuSans-79"/>
      <use x="359.1796875" xlink:href="#DejaVuSans-23"/>
      <use x="442.96875" xlink:href="#DejaVuSans-31"/>
      <use x="506.591796875" xlink:href="#DejaVuSans-30"/>
     </g>
    </g>
    <g id="line2d_49">
     <path d="
M526.649 99.761
L546.809 99.761" style="fill:none;stroke:#00bfbf;stroke-linecap:square;"/>
    </g>
    <g id="line2d_50"/>
    <g id="text_19">
     <!-- locality#11 -->
     <g transform="translate(562.64875 104.801)scale(0.144 -0.144)">
      <use xlink:href="#DejaVuSans-6c"/>
      <use x="27.783203125" xlink:href="#DejaVuSans-6f"/>
      <use x="88.96484375" xlink:href="#DejaVuSans-63"/>
      <use x="143.9453125" xlink:href="#DejaVuSans-61"/>
      <use x="205.224609375" xlink:href="#DejaVuSans-6c"/>
      <use x="233.0078125" xlink:href="#DejaVuSans-69"/>
      <use x="260.791015625" xlink:href="#DejaVuSans-74"/>
      <use x="300.0" xlink:href="#DejaVuSans-79"/>
      <use x="359.1796875" xlink:href="#DejaVuSans-23"/>
      <use x="442.96875" xlink:href="#DejaVuSans-31"/>
      <use x="506.591796875" xlink:href="#DejaVuSans-31"/>
     </g>
    </g>
    <g id="line2d_51">
     <path d="
M526.649 120.897
L546.809 120.897" style="fill:none;stroke:#bf00bf;stroke-linecap:square;"/>
    </g>
    <g id="line2d_52"/>
    <g id="text_20">
     <!-- locality#12 -->
     <g transform="translate(562.64875 125.9375)scale(0.144 -0.144)">
      <use xlink:href="#DejaVuSans-6c"/>
      <use x="27.783203125" xlink:href="#DejaVuSans-6f"/>
      <use x="88.96484375" xlink:href="#DejaVuSans-63"/>
      <use x="143.9453125" xlink:href="#DejaVuSans-61"/>
      <use x="205.224609375" xlink:href="#DejaVuSans-6c"/>
      <use x="233.0078125" xlink:href="#DejaVuSans-69"/>
      <use x="260.791015625" xlink:href="#DejaVuSans-74"/>
      <use x="300.0" xlink:href="#DejaVuSans-79"/>
      <use x="359.1796875" xlink:href="#DejaVuSans-23"/>
      <use x="442.96875" xlink:href="#DejaVuSans-31"/>
      <use x="506.591796875" xlink:href="#DejaVuSans-32"/>
     </g>
    </g>
    <g id="line2d_53">
     <path d="
M526.649 142.034
L546.809 142.034" style="fill:none;stroke:#bfbf00;stroke-linecap:square;"/>
    </g>
    <g id="line2d_54"/>
    <g id="text_21">
     <!-- locality#13 -->
     <g transform="translate(562.64875 147.074)scale(0.144 -0.144)">
      <use xlink:href="#DejaVuSans-6c"/>
      <use x="27.783203125" xlink:href="#DejaVuSans-6f"/>
      <use x="88.96484375" xlink:href="#DejaVuSans-63"/>
      <use x="143.9453125" xlink:href="#DejaVuSans-61"/>
      <use x="205.224609375" xlink:href="#DejaVuSans-6c"/>
      <use x="233.0078125" xlink:href="#DejaVuSans-69"/>
      <use x="260.791015625" xlink:href="#DejaVuSans-74"/>
      <use x="300.0" xlink:href="#DejaVuSans-79"/>
      <use x="359.1796875" xlink:href="#DejaVuSans-23"/>
      <use x="442.96875" xlink:href="#DejaVuSans-31"/>
      <use x="506.591796875" xlink:href="#DejaVuSans-33"/>
     </g>
    </g>
    <g id="line2d_55">
     <path d="
M526.649 163.17
L546.809 163.17" style="fill:none;stroke:#000000;stroke-linecap:square;"/>
    </g>
    <g id="line2d_56"/>
    <g id="text_22">
     <!-- locality#14 -->
     <g transform="translate(562.64875 168.2105)scale(0.144 -0.144)">
      <use xlink:href="#DejaVuSans-6c"/>
      <use x="27.783203125" xlink:href="#DejaVuSans-6f"/>
      <use x="88.96484375" xlink:href="#DejaVuSans-63"/>
      <use x="143.9453125" xlink:href="#DejaVuSans-61"/>
      <use x="205.224609375" xlink:href="#DejaVuSans-6c"/>
      <use x="233.0078125" xlink:href="#DejaVuSans-69"/>
      <use x="260.791015625" xlink:href="#DejaVuSans-74"/>
      <use x="300.0" xlink:href="#DejaVuSans-79"/>
      <use x="359.1796875" xlink:href="#DejaVuSans-23"/>
      <use x="442.96875" xlink:href="#DejaVuSans-31"/>
      <use x="506.591796875" xlink:href="#DejaVuSans-34"/>
     </g>
    </g>
    <g id="line2d_57">
     <path d="
M526.649 184.307
L546.809 184.307" style="fill:none;stroke:#0000ff;stroke-linecap:square;"/>
    </g>
    <g id="line2d_58"/>
    <g id="text_23">
     <!-- locality#15 -->
     <g transform="translate(562.64875 189.347)scale(0.144 -0.144)">
      <use xlink:href="#DejaVuSans-6c"/>
      <use x="27.783203125" xlink:href="#DejaVuSans-6f"/>
      <use x="88.96484375" xlink:href="#DejaVuSans-63"/>
      <use x="143.9453125" xlink:href="#DejaVuSans-61"/>
      <use x="205.224609375" xlink:href="#DejaVuSans-6c"/>
      <use x="233.0078125" xlink:href="#DejaVuSans-69"/>
      <use x="260.791015625" xlink:href="#DejaVuSans-74"/>
      <use x="300.0" xlink:href="#DejaVuSans-79"/>
      <use x="359.1796875" xlink:href="#DejaVuSans-23"/>
      <use x="442.96875" xlink:href="#DejaVuSans-31"/>
      <use x="506.591796875" xlink:href="#DejaVuSans-35"/>
     </g>
    </g>
    <g id="line2d_59">
     <path d="
M526.649 205.443
L546.809 205.443" style="fill:none;stroke:#008000;stroke-linecap:square;"/>
    </g>
    <g id="line2d_60"/>
    <g id="text_24">
     <!-- locality#2 -->
     <g transform="translate(562.64875 210.4835)scale(0.144 -0.144)">
      <use xlink:href="#DejaVuSans-6c"/>
      <use x="27.783203125" xlink:href="#DejaVuSans-6f"/>
      <use x="88.96484375" xlink:href="#DejaVuSans-63"/>
      <use x="143.9453125" xlink:href="#DejaVuSans-61"/>
      <use x="205.224609375" xlink:href="#DejaVuSans-6c"/>
      <use x="233.0078125" xlink:href="#DejaVuSans-69"/>
      <use x="260.791015625" xlink:href="#DejaVuSans-74"/>
      <use x="300.0" xlink:href="#DejaVuSans-79"/>
      <use x="359.1796875" xlink:href="#DejaVuSans-23"/>
      <use x="442.96875" xlink:href="#DejaVuSans-32"/>
     </g>
    </g>
    <g id="line2d_61">
     <path d="
M526.649 226.58
L546.809 226.58" style="fill:none;stroke:#ff0000;stroke-linecap:square;"/>
    </g>
    <g id="line2d_62"/>
    <g id="text_25">
     <!-- locality#3 -->
     <g transform="translate(562.64875 231.62)scale(0.144 -0.144)">
      <use xlink:href="#DejaVuSans-6c"/>
      <use x="27.783203125" xlink:href="#DejaVuSans-6f"/>
      <use x="88.96484375" xlink:href="#DejaVuSans-63"/>
      <use x="143.9453125" xlink:href="#DejaVuSans-61"/>
      <use x="205.224609375" xlink:href="#DejaVuSans-6c"/>
      <use x="233.0078125" xlink:href="#DejaVuSans-69"/>
      <use x="260.791015625" xlink:href="#DejaVuSans-74"/>
      <use x="300.0" xlink:href="#DejaVuSans-79"/>
      <use x="359.1796875" xlink:href="#DejaVuSans-23"/>
      <use x="442.96875" xlink:href="#DejaVuSans-33"/>
     </g>
    </g>
    <g id="line2d_63">
     <path d="
M526.649 247.716
L546.809 247.716" style="fill:none;stroke:#00bfbf;stroke-linecap:square;"/>
    </g>
    <g id="line2d_64"/>
    <g id="text_26">
     <!-- locality#4 -->
     <g transform="translate(562.64875 252.7565)scale(0.144 -0.144)">
      <use xlink:href="#DejaVuSans-6c"/>
      <use x="27.783203125" xlink:href="#DejaVuSans-6f"/>
      <use x="88.96484375" xlink:href="#DejaVuSans-63"/>
      <use x="143.9453125" xlink:href="#DejaVuSans-61"/>
      <use x="205.224609375" xlink:href="#DejaVuSans-6c"/>
      <use x="233.0078125" xlink:href="#DejaVuSans-69"/>
      <use x="260.791015625" xlink:href="#DejaVuSans-74"/>
      <use x="300.0" xlink:href="#DejaVuSans-79"/>
      <use x="359.1796875" xlink:href="#DejaVuSans-23"/>
      <use x="442.96875" xlink:href="#DejaVuSans-34"/>
     </g>
    </g>
    <g id="line2d_65">
     <path d="
M526.649 268.853
L546.809 268.853" style="fill:none;stroke:#bf00bf;stroke-linecap:square;"/>
    </g>
    <g id="line2d_66"/>
    <g id="text_27">
     <!-- locality#5 -->
     <g transform="translate(562.64875 273.893)scale(0.144 -0.144)">
      <use xlink:href="#DejaVuSans-6c"/>
      <use x="27.783203125" xlink:href="#DejaVuSans-6f"/>
      <use x="88.96484375" xlink:href="#DejaVuSans-63"/>
      <use x="143.9453125" xlink:href="#DejaVuSans-61"/>
      <use x="205.224609375" xlink:href="#DejaVuSans-6c"/>
      <use x="233.0078125" xlink:href="#DejaVuSans-69"/>
      <use x="260.791015625" xlink:href="#DejaVuSans-74"/>
      <use x="300.0" xlink:href="#DejaVuSans-79"/>
      <use x="359.1796875" xlink:href="#DejaVuSans-23"/>
      <use x="442.96875" xlink:href="#DejaVuSans-35"/>
     </g>
    </g>
    <g id="line2d_67">
     <path d="
M526.649 289.989
L546.809 289.989" style="fill:none;stroke:#bfbf00;stroke-linecap:square;"/>
    </g>
    <g id="line2d_68"/>
    <g id="text_28">
     <!-- locality#6 -->
     <defs>
      <path d="
M33.0156 40.375
Q26.375 40.375 22.4844 35.8281
Q18.6094 31.2969 18.6094 23.3906
Q18.6094 15.5312 22.4844 10.9531
Q26.375 6.39062 33.0156 6.39062
Q39.6562 6.39062 43.5312 10.9531
Q47.4062 15.5312 47.4062 23.3906
Q47.4062 31.2969 43.5312 35.8281
Q39.6562 40.375 33.0156 40.375
M52.5938 71.2969
L52.5938 62.3125
Q48.875 64.0625 45.0938 64.9844
Q41.3125 65.9219 37.5938 65.9219
Q27.8281 65.9219 22.6719 59.3281
Q17.5312 52.7344 16.7969 39.4062
Q19.6719 43.6562 24.0156 45.9219
Q28.375 48.1875 33.5938 48.1875
Q44.5781 48.1875 50.9531 41.5156
Q57.3281 34.8594 57.3281 23.3906
Q57.3281 12.1562 50.6875 5.35938
Q44.0469 -1.42188 33.0156 -1.42188
Q20.3594 -1.42188 13.6719 8.26562
Q6.98438 17.9688 6.98438 36.375
Q6.98438 53.6562 15.1875 63.9375
Q23.3906 74.2188 37.2031 74.2188
Q40.9219 74.2188 44.7031 73.4844
Q48.4844 72.75 52.5938 71.2969" id="DejaVuSans-36"/>
     </defs>
     <g transform="translate(562.64875 295.0295)scale(0.144 -0.144)">
      <use xlink:href="#DejaVuSans-6c"/>
      <use x="27.783203125" xlink:href="#DejaVuSans-6f"/>
      <use x="88.96484375" xlink:href="#DejaVuSans-63"/>
      <use x="143.9453125" xlink:href="#DejaVuSans-61"/>
      <use x="205.224609375" xlink:href="#DejaVuSans-6c"/>
      <use x="233.0078125" xlink:href="#DejaVuSans-69"/>
      <use x="260.791015625" xlink:href="#DejaVuSans-74"/>
      <use x="300.0" xlink:href="#DejaVuSans-79"/>
      <use x="359.1796875" xlink:href="#DejaVuSans-23"/>
      <use x="442.96875" xlink:href="#DejaVuSans-36"/>
     </g>
    </g>
    <g id="line2d_69">
     <path d="
M526.649 311.126
L546.809 311.126" style="fill:none;stroke:#000000;stroke-linecap:square;"/>
    </g>
    <g id="line2d_70"/>
    <g id="text_29">
     <!-- locality#7 -->
     <defs>
      <path d="
M8.20312 72.9062
L55.0781 72.9062
L55.0781 68.7031
L28.6094 0
L18.3125 0
L43.2188 64.5938
L8.20312 64.5938
z
" id="DejaVuSans-37"/>
     </defs>
     <g transform="translate(562.64875 316.166)scale(0.144 -0.144)">
      <use xlink:href="#DejaVuSans-6c"/>
      <use x="27.783203125" xlink:href="#DejaVuSans-6f"/>
      <use x="88.96484375" xlink:href="#DejaVuSans-63"/>
      <use x="143.9453125" xlink:href="#DejaVuSans-61"/>
      <use x="205.224609375" xlink:href="#DejaVuSans-6c"/>
      <use x="233.0078125" xlink:href="#DejaVuSans-69"/>
      <use x="260.791015625" xlink:href="#DejaVuSans-74"/>
      <use x="300.0" xlink:href="#DejaVuSans-79"/>
      <use x="359.1796875" xlink:href="#DejaVuSans-23"/>
      <use x="442.96875" xlink:href="#DejaVuSans-37"/>
     </g>
    </g>
    <g id="line2d_71">
     <path d="
M526.649 332.262
L546.809 332.262" style="fill:none;stroke:#0000ff;stroke-linecap:square;"/>
    </g>
    <g id="line2d_72"/>
    <g id="text_30">
     <!-- locality#8 -->
     <defs>
      <path d="
M31.7812 34.625
Q24.75 34.625 20.7188 30.8594
Q16.7031 27.0938 16.7031 20.5156
Q16.7031 13.9219 20.7188 10.1562
Q24.75 6.39062 31.7812 6.39062
Q38.8125 6.39062 42.8594 10.1719
Q46.9219 13.9688 46.9219 20.5156
Q46.9219 27.0938 42.8906 30.8594
Q38.875 34.625 31.7812 34.625
M21.9219 38.8125
Q15.5781 40.375 12.0312 44.7188
Q8.5 49.0781 8.5 55.3281
Q8.5 64.0625 14.7188 69.1406
Q20.9531 74.2188 31.7812 74.2188
Q42.6719 74.2188 48.875 69.1406
Q55.0781 64.0625 55.0781 55.3281
Q55.0781 49.0781 51.5312 44.7188
Q48 40.375 41.7031 38.8125
Q48.8281 37.1562 52.7969 32.3125
Q56.7812 27.4844 56.7812 20.5156
Q56.7812 9.90625 50.3125 4.23438
Q43.8438 -1.42188 31.7812 -1.42188
Q19.7344 -1.42188 13.25 4.23438
Q6.78125 9.90625 6.78125 20.5156
Q6.78125 27.4844 10.7812 32.3125
Q14.7969 37.1562 21.9219 38.8125
M18.3125 54.3906
Q18.3125 48.7344 21.8438 45.5625
Q25.3906 42.3906 31.7812 42.3906
Q38.1406 42.3906 41.7188 45.5625
Q45.3125 48.7344 45.3125 54.3906
Q45.3125 60.0625 41.7188 63.2344
Q38.1406 66.4062 31.7812 66.4062
Q25.3906 66.4062 21.8438 63.2344
Q18.3125 60.0625 18.3125 54.3906" id="DejaVuSans-38"/>
     </defs>
     <g transform="translate(562.64875 337.3025)scale(0.144 -0.144)">
      <use xlink:href="#DejaVuSans-6c"/>
      <use x="27.783203125" xlink:href="#DejaVuSans-6f"/>
      <use x="88.96484375" xlink:href="#DejaVuSans-63"/>
      <use x="143.9453125" xlink:href="#DejaVuSans-61"/>
      <use x="205.224609375" xlink:href="#DejaVuSans-6c"/>
      <use x="233.0078125" xlink:href="#DejaVuSans-69"/>
      <use x="260.791015625" xlink:href="#DejaVuSans-74"/>
      <use x="300.0" xlink:href="#DejaVuSans-79"/>
      <use x="359.1796875" xlink:href="#DejaVuSans-23"/>
      <use x="442.96875" xlink:href="#DejaVuSans-38"/>
     </g>
    </g>
    <g id="line2d_73">
     <path d="
M526.649 353.399
L546.809 353.399" style="fill:none;stroke:#008000;stroke-linecap:square;"/>
    </g>
    <g id="line2d_74"/>
    <g id="text_31">
     <!-- locality#9 -->
     <defs>
      <path d="
M10.9844 1.51562
L10.9844 10.5
Q14.7031 8.73438 18.5 7.8125
Q22.3125 6.89062 25.9844 6.89062
Q35.75 6.89062 40.8906 13.4531
Q46.0469 20.0156 46.7812 33.4062
Q43.9531 29.2031 39.5938 26.9531
Q35.25 24.7031 29.9844 24.7031
Q19.0469 24.7031 12.6719 31.3125
Q6.29688 37.9375 6.29688 49.4219
Q6.29688 60.6406 12.9375 67.4219
Q19.5781 74.2188 30.6094 74.2188
Q43.2656 74.2188 49.9219 64.5156
Q56.5938 54.8281 56.5938 36.375
Q56.5938 19.1406 48.4062 8.85938
Q40.2344 -1.42188 26.4219 -1.42188
Q22.7031 -1.42188 18.8906 -0.6875
Q15.0938 0.046875 10.9844 1.51562
M30.6094 32.4219
Q37.25 32.4219 41.125 36.9531
Q45.0156 41.5 45.0156 49.4219
Q45.0156 57.2812 41.125 61.8438
Q37.25 66.4062 30.6094 66.4062
Q23.9688 66.4062 20.0938 61.8438
Q16.2188 57.2812 16.2188 49.4219
Q16.2188 41.5 20.0938 36.9531
Q23.9688 32.4219 30.6094 32.4219" id="DejaVuSans-39"/>
     </defs>
     <g transform="translate(562.64875 358.439)scale(0.144 -0.144)">
      <use xlink:href="#DejaVuSans-6c"/>
      <use x="27.783203125" xlink:href="#DejaVuSans-6f"/>
      <use x="88.96484375" xlink:href="#DejaVuSans-63"/>
      <use x="143.9453125" xlink:href="#DejaVuSans-61"/>
      <use x="205.224609375" xlink:href="#DejaVuSans-6c"/>
      <use x="233.0078125" xlink:href="#DejaVuSans-69"/>
      <use x="260.791015625" xlink:href="#DejaVuSans-74"/>
      <use x="300.0" xlink:href="#DejaVuSans-79"/>
      <use x="359.1796875" xlink:href="#DejaVuSans-23"/>
      <use x="442.96875" xlink:href="#DejaVuSans-39"/>
     </g>
    </g>
   </g>
  </g>
 </g>
 <defs>
  <clipPath id="p0e537c530d">
   <rect height="345.6" width="446.4" x="62.96875" y="23.14175"/>
  </clipPath>
 </defs>
</svg>
