<?xml version="1.0" encoding="utf-8" standalone="no"?>
<!DOCTYPE svg PUBLIC "-//W3C//DTD SVG 1.1//EN"
  "http://www.w3.org/Graphics/SVG/1.1/DTD/svg11.dtd">
<!-- Created with matplotlib (http://matplotlib.org/) -->
<svg height="408pt" version="1.1" viewBox="0 0 610 408" width="610pt" xmlns="http://www.w3.org/2000/svg" xmlns:xlink="http://www.w3.org/1999/xlink">
 <defs>
  <style type="text/css">
*{stroke-linecap:butt;stroke-linejoin:round;}
  </style>
 </defs>
 <g id="figure_1">
  <g id="patch_1">
   <path d="
M0 408.169
L610.164 408.169
L610.164 0
L0 0
z
" style="fill:#ffffff;"/>
  </g>
  <g id="axes_1">
   <g id="patch_2">
    <path d="
M17.575 368.742
L463.975 368.742
L463.975 23.1417
L17.575 23.1417
z
" style="fill:#ffffff;"/>
   </g>
   <g id="line2d_1">
    <path clip-path="url(#pf51f381abf)" d="
M17.575 368.608
L29.7866 362.209
L91.1835 328.186
L95.254 325.93
L98.3069 324.244
L105.091 320.425
L107.805 318.926
L118.999 312.634
L127.479 307.806
L202.105 264.849
L209.568 260.617
L211.603 259.54
L213.299 258.624
L220.762 254.82
L229.92 250.483
L235.348 248.025
L241.114 245.493
L260.788 236.893
L276.392 230.361
L289.96 224.623
L291.656 223.886
L305.903 217.897
L308.617 216.829
L313.705 214.815
L321.507 211.838
L323.203 211.17
L333.718 207.207
L337.789 205.68
L363.908 195.806
L368.318 194.124
L374.084 191.944
L376.12 191.14
L395.115 184.046
L396.472 183.541
L409.023 179.006
L416.146 176.592
L418.182 175.88
L463.975 160.871
L463.975 160.871" style="fill:none;stroke:#0000ff;stroke-linecap:square;"/>
   </g>
   <g id="line2d_2">
    <path clip-path="url(#pf51f381abf)" d="
M17.575 368.74
L31.4826 363.172
L39.6236 359.723
L46.747 356.707
L52.5136 354.261
L90.1659 338.258
L94.2364 336.492
L96.6109 335.47
L153.937 310.394
L183.109 297.43
L191.25 293.975
L194.642 292.554
L208.211 286.911
L220.083 282.261
L228.903 279.184
L238.74 275.843
L268.251 266.078
L270.625 265.314
L274.018 264.187
L277.07 263.219
L283.855 261.077
L287.925 259.786
L312.687 252.116
L351.357 241.497
L384.261 232.272
L388.331 231.153
L402.239 227.322
L405.631 226.444
L407.327 225.986
L446.336 216.559
L459.904 213.514
L463.975 212.728
L463.975 212.728" style="fill:none;stroke:#008000;stroke-linecap:square;"/>
   </g>
   <g id="line2d_3">
    <path clip-path="url(#pf51f381abf)" d="
M17.575 368.739
L29.1081 359.904
L33.8571 355.995
L36.2315 354.053
L41.3197 349.874
L50.4783 342.336
L53.192 340.153
L56.2449 337.671
L58.2802 336.012
L63.0291 332.081
L65.7428 329.899
L70.8309 325.751
L73.5446 323.566
L82.7033 316.004
L84.7385 314.356
L92.5403 307.868
L95.5932 305.371
L98.9853 302.531
L101.021 300.841
L105.77 296.899
L108.144 294.956
L114.25 289.814
L117.303 287.294
L130.871 275.855
L132.567 274.433
L139.012 268.941
L171.915 240.754
L182.431 231.771
L190.233 225.002
L192.268 223.111
L194.982 220.643
L215.673 201.244
L219.744 197.695
L221.101 196.518
L228.903 189.993
L252.308 170.629
L254.004 169.192
L261.467 163.223
L272.661 154.31
L276.053 151.626
L291.317 139.809
L302.85 131.494
L304.886 130.099
L308.278 127.866
L312.348 125.218
L313.705 124.346
L325.238 117.228
L326.934 116.207
L332.701 112.669
L345.93 104.685
L349.661 102.404
L354.749 99.2578
L362.551 94.4269
L366.622 91.8378
L374.084 86.9211
L378.833 83.7197
L398.508 70.9256
L400.204 69.8841
L409.701 64.1426
L413.433 62.0027
L417.503 59.7396
L421.913 57.3095
L444.64 44.8886
L459.904 36.9721
L463.975 35.0753
L463.975 35.0753" style="fill:none;stroke:#ff0000;stroke-linecap:square;"/>
   </g>
   <g id="line2d_4">
    <path clip-path="url(#pf51f381abf)" d="
M17.575 368.74
L27.4121 361.594
L29.1081 360.293
L31.8218 358.128
L34.1963 356.314
L36.2315 354.693
L38.2668 353.081
L41.6589 350.42
L43.6941 348.856
L47.0862 346.164
L48.4431 345.085
L52.1744 342.182
L56.5841 338.755
L60.6546 335.529
L68.4565 329.476
L70.4917 327.878
L75.2407 324.191
L77.2759 322.595
L83.7209 317.502
L87.113 314.846
L95.254 308.392
L97.2893 306.787
L101.36 303.535
L103.056 302.182
L107.805 298.44
L111.536 295.441
L152.241 262.471
L163.774 253.016
L174.29 244.376
L180.735 239.108
L187.519 233.523
L192.607 229.187
L196.339 225.912
L198.713 223.813
L200.748 221.943
L203.801 219.151
L216.691 207.582
L227.885 198.617
L240.436 189.059
L245.863 184.975
L247.22 183.903
L248.577 182.906
L259.771 174.506
L266.894 169.37
L275.374 163.527
L300.476 146.31
L307.26 141.984
L312.348 138.919
L314.384 137.743
L328.63 129.63
L330.666 128.486
L333.379 126.975
L346.608 119.57
L351.357 116.852
L363.908 109.673
L375.441 103.055
L382.225 99.1864
L386.974 96.4861
L388.67 95.5449
L396.133 91.3494
L398.168 90.2388
L404.953 86.5323
L408.005 84.8884
L411.058 83.2785
L417.842 79.9014
L420.217 78.7211
L452.781 62.9693
L463.297 58.3388
L463.975 58.0641
L463.975 58.0641" style="fill:none;stroke:#00bfbf;stroke-linecap:square;"/>
   </g>
   <g id="line2d_5">
    <path clip-path="url(#pf51f381abf)" d="
M17.575 368.74
L28.4297 361.449
L33.8571 357.477
L36.5707 355.508
L63.7075 335.762
L68.7957 332.151
L72.8662 329.192
L74.9014 327.739
L77.9543 325.481
L80.3288 323.713
L86.4346 319.266
L105.091 305.549
L107.126 304.081
L111.875 300.532
L113.571 299.281
L121.373 293.499
L123.069 292.243
L125.444 290.451
L167.166 258.858
L182.092 247.517
L188.876 242.326
L192.268 239.582
L198.035 234.871
L220.422 216.121
L230.259 208.65
L235.687 204.599
L238.401 202.668
L258.075 188.627
L259.432 187.681
L266.555 182.829
L272.322 179.056
L291.996 166.617
L302.172 160.481
L304.207 159.324
L307.939 157.202
L309.635 156.302
L323.881 148.925
L330.666 145.523
L335.754 143.027
L337.111 142.357
L354.071 133.782
L359.498 131.081
L362.551 129.418
L368.657 126.103
L373.406 123.718
L383.243 118.735
L387.653 116.523
L403.596 108.641
L405.631 107.691
L406.649 107.182
L425.644 98.7498
L429.376 97.1428
L445.997 89.967
L449.05 88.6738
L456.173 85.708
L463.975 82.7658
L463.975 82.7658" style="fill:none;stroke:#bf00bf;stroke-linecap:square;"/>
   </g>
   <g id="line2d_6">
    <path clip-path="url(#pf51f381abf)" d="
M17.575 368.739
L28.7689 361.901
L46.0686 350.519
L48.1039 349.175
L52.1744 346.519
L56.9233 343.422
L61.3331 340.505
L64.0467 338.747
L68.4565 335.889
L70.4917 334.553
L74.5622 331.915
L76.9367 330.357
L86.7738 323.828
L89.8267 321.811
L101.36 314.134
L103.734 312.554
L120.016 301.669
L122.052 300.324
L192.607 251.788
L195.999 249.268
L198.035 247.767
L201.766 244.913
L209.568 238.981
L210.925 237.952
L220.422 231.229
L233.652 222.935
L254.004 211.342
L259.432 208.423
L265.877 205.043
L273 201.453
L277.41 199.306
L281.819 197.131
L303.868 186.569
L305.564 185.797
L306.921 185.197
L318.115 180.394
L341.859 170.73
L344.573 169.61
L349.322 167.656
L354.41 165.516
L408.684 143.235
L411.737 142.083
L413.433 141.446
L418.86 139.475
L424.966 137.29
L439.891 132.012
L443.622 130.697
L445.997 129.872
L451.424 127.993
L455.495 126.534
L463.975 123.892
L463.975 123.892" style="fill:none;stroke:#bfbf00;stroke-linecap:square;"/>
   </g>
   <g id="line2d_7">
    <path clip-path="url(#pf51f381abf)" d="
M17.575 368.74
L30.8042 361.492
L33.8571 359.71
L36.5707 358.147
L50.8176 349.822
L53.192 348.443
L57.941 345.68
L60.3154 344.284
L70.4917 338.396
L82.0248 331.661
L87.4522 328.495
L96.9501 322.868
L99.6638 321.28
L105.43 317.873
L114.25 312.63
L117.303 310.838
L142.065 295.913
L147.492 292.611
L161.4 284.123
L194.982 263.426
L198.374 261.251
L201.427 259.242
L204.14 257.44
L205.497 256.584
L207.532 255.231
L220.762 247.154
L240.436 236.719
L241.793 236.057
L243.149 235.399
L249.255 232.388
L250.612 231.718
L252.308 230.887
L257.396 228.363
L267.573 223.591
L283.855 216.313
L286.229 215.313
L287.925 214.562
L293.353 212.335
L295.388 211.526
L313.027 204.686
L316.758 203.393
L320.489 202.108
L331.344 198.481
L333.04 197.911
L370.014 185.449
L372.049 184.797
L389.688 178.862
L412.754 171.376
L419.539 169.352
L438.195 163.854
L443.962 162.171
L450.067 160.42
L457.869 158.24
L463.975 156.72
L463.975 156.72" style="fill:none;stroke:#000000;stroke-linecap:square;"/>
   </g>
   <g id="line2d_8">
    <path clip-path="url(#pf51f381abf)" d="
M17.575 368.739
L26.0552 364.742
L30.8042 362.391
L33.8571 360.826
L36.91 359.28
L39.6236 357.872
L48.1039 353.543
L53.5312 350.769
L58.2802 348.373
L63.7075 345.577
L69.1349 342.845
L73.8838 340.421
L76.9367 338.863
L88.809 332.743
L90.8443 331.668
L96.2717 328.857
L106.787 323.407
L109.501 322.019
L129.514 311.475
L132.228 310.061
L140.03 305.879
L153.598 298.588
L194.642 276.815
L197.356 275.426
L216.691 265.463
L219.744 264.095
L221.779 263.217
L227.885 260.614
L236.026 257.223
L269.608 244.394
L307.939 230.9
L339.485 221.369
L344.912 219.729
L377.137 209.822
L392.063 205.218
L403.256 201.884
L407.666 200.561
L411.058 199.6
L425.984 195.605
L459.904 186.895
L463.975 186.016
L463.975 186.016" style="fill:none;stroke:#0000ff;stroke-linecap:square;"/>
   </g>
   <g id="line2d_9">
    <path clip-path="url(#pf51f381abf)" d="
M17.575 368.739
L32.8394 362.635
L36.2315 361.206
L39.2844 359.911
L72.1878 346.06
L76.2583 344.354
L86.7738 339.882
L89.8267 338.583
L96.9501 335.522
L102.377 333.21
L106.787 331.33
L109.501 330.183
L114.589 327.968
L124.765 323.569
L153.937 310.739
L168.184 304.424
L194.982 292.522
L200.748 289.838
L203.801 288.413
L210.585 285.324
L221.44 280.737
L230.599 277.289
L239.079 274.234
L262.824 265.921
L266.555 264.668
L273 262.504
L294.37 255.434
L297.084 254.539
L313.705 249.291
L331.683 244.052
L334.736 243.201
L338.467 242.12
L341.181 241.346
L364.247 234.613
L378.833 230.366
L410.38 221.579
L455.495 210.502
L459.565 209.626
L463.975 208.687
L463.975 208.687" style="fill:none;stroke:#008000;stroke-linecap:square;"/>
   </g>
   <g id="line2d_10">
    <path clip-path="url(#pf51f381abf)" d="
M17.575 368.74
L24.6984 365.727
L31.4826 362.726
L39.6236 358.994
L44.7118 356.686
L54.2097 352.326
L58.2802 350.491
L63.7075 347.981
L67.0996 346.459
L71.5093 344.445
L74.9014 342.92
L85.4169 338.064
L90.5051 335.698
L101.36 330.672
L104.073 329.408
L108.483 327.384
L159.704 303.086
L181.753 292.5
L191.929 287.524
L196.339 285.284
L198.713 284.078
L201.087 282.851
L211.264 277.719
L213.977 276.418
L218.387 274.393
L238.401 266.142
L244.506 263.746
L257.057 258.796
L261.806 256.917
L285.89 247.667
L300.476 242.125
L304.546 240.647
L307.939 239.465
L309.974 238.796
L312.687 237.855
L331.683 231.765
L336.093 230.42
L350.679 225.776
L356.785 223.826
L359.498 222.965
L411.397 206.507
L458.208 193.496
L463.975 192.119
L463.975 192.119" style="fill:none;stroke:#ff0000;stroke-linecap:square;"/>
   </g>
   <g id="line2d_11">
    <path clip-path="url(#pf51f381abf)" d="
M17.575 368.74
L27.4121 364.049
L30.8042 362.335
L33.5179 360.931
L39.6236 357.77
L44.3726 355.352
L52.1744 351.321
L58.9586 347.827
L66.7604 343.818
L69.4741 342.444
L72.8662 340.705
L75.5799 339.322
L83.7209 335.095
L86.4346 333.686
L128.836 311.451
L136.977 307.099
L139.012 306.027
L181.413 283.183
L191.25 277.805
L195.999 275.047
L198.713 273.501
L200.748 272.269
L202.784 271.077
L220.083 261.117
L228.563 256.851
L238.061 252.117
L251.969 245.291
L262.145 240.283
L269.608 236.83
L287.247 228.617
L290.3 227.236
L299.458 223.109
L307.939 219.538
L309.635 218.891
L317.436 215.872
L319.132 215.211
L335.754 209.17
L339.824 207.689
L348.983 204.355
L367.639 197.567
L402.917 184.853
L405.631 183.91
L406.988 183.432
L409.023 182.71
L416.146 180.396
L437.856 173.542
L459.904 166.881
L463.975 165.8
L463.975 165.8" style="fill:none;stroke:#00bfbf;stroke-linecap:square;"/>
   </g>
   <g id="line2d_12">
    <path clip-path="url(#pf51f381abf)" d="
M17.575 368.74
L29.4473 362.243
L44.7118 353.329
L49.4607 350.516
L59.2978 344.78
L65.0644 341.421
L72.8662 336.901
L75.5799 335.333
L82.7033 331.131
L85.0777 329.743
L91.5227 325.897
L93.8972 324.515
L100.342 320.687
L102.377 319.49
L106.787 316.89
L108.822 315.688
L145.457 293.608
L190.233 266.198
L192.607 264.652
L197.017 261.783
L200.409 259.52
L202.444 258.135
L204.48 256.788
L206.176 255.623
L208.55 254.033
L212.96 251.081
L216.013 249.135
L220.422 246.422
L249.594 230.031
L251.291 229.115
L254.683 227.191
L265.537 221.462
L268.59 219.913
L275.714 216.277
L283.855 212.156
L285.211 211.508
L287.925 210.168
L293.013 207.636
L305.903 201.405
L307.26 200.793
L315.401 197.237
L324.221 193.524
L326.256 192.691
L388.331 166.876
L404.953 160.389
L409.362 158.757
L412.754 157.51
L452.781 143.617
L460.583 141.251
L463.975 140.31
L463.975 140.31" style="fill:none;stroke:#bf00bf;stroke-linecap:square;"/>
   </g>
   <g id="line2d_13">
    <path clip-path="url(#pf51f381abf)" d="
M17.575 368.739
L24.3592 364.581
L29.1081 361.628
L35.5531 357.371
L37.5884 356.041
L39.6236 354.669
L43.6941 352.022
L48.7823 348.62
L52.1744 346.417
L59.9762 341.277
L65.4036 337.702
L69.1349 335.292
L72.8662 332.833
L74.9014 331.5
L86.7738 323.615
L89.1483 322.05
L95.254 317.962
L97.2893 316.612
L105.091 311.393
L107.805 309.617
L110.518 307.799
L121.373 300.498
L123.408 299.152
L153.937 278.23
L194.642 249.904
L201.087 245.074
L205.158 241.958
L217.709 232.568
L220.083 230.908
L232.295 222.928
L233.991 221.838
L247.898 212.994
L254.343 208.948
L255.7 208.08
L257.057 207.262
L261.806 204.322
L268.251 200.513
L269.947 199.618
L274.018 197.394
L275.714 196.503
L283.855 191.604
L285.551 190.609
L301.833 180.893
L305.903 178.617
L308.617 177.191
L312.009 175.404
L322.525 170.161
L325.238 168.807
L327.273 167.801
L349.322 157.099
L358.82 152.726
L380.529 143.174
L399.525 134.426
L403.256 132.789
L408.684 130.404
L415.129 127.812
L440.23 117.85
L449.05 114.418
L462.279 109.564
L463.975 108.993
L463.975 108.993" style="fill:none;stroke:#bfbf00;stroke-linecap:square;"/>
   </g>
   <g id="line2d_14">
    <path clip-path="url(#pf51f381abf)" d="
M17.575 368.739
L27.4121 362.087
L29.4473 360.62
L102.717 307.025
L105.77 304.797
L107.805 303.309
L110.518 301.293
L157.329 265.95
L165.131 259.979
L191.25 239.897
L194.642 237.138
L199.391 233.208
L201.427 231.465
L212.281 222.218
L213.977 220.821
L216.691 218.592
L231.277 207.69
L232.973 206.451
L239.079 202.151
L244.846 198.176
L247.559 196.373
L256.039 191.026
L258.753 189.125
L268.251 182.67
L269.947 181.57
L289.282 169.078
L299.797 162.725
L305.225 159.347
L319.472 151.268
L328.63 146.401
L330.326 145.494
L335.754 142.66
L337.111 141.952
L343.216 138.729
L346.269 137.083
L354.749 132.509
L365.265 126.813
L369.335 124.576
L393.08 112.239
L407.327 105.158
L410.041 103.885
L412.076 102.924
L434.464 93.0843
L436.838 92.0313
L448.371 86.9925
L452.103 85.4091
L457.53 83.1408
L463.975 80.7429
L463.975 80.7429" style="fill:none;stroke:#000000;stroke-linecap:square;"/>
   </g>
   <g id="line2d_15">
    <path clip-path="url(#pf51f381abf)" d="
M17.575 368.74
L28.4297 360.79
L33.8571 356.495
L37.5884 353.569
L39.2844 352.207
L54.8881 339.946
L56.9233 338.361
L61.3331 334.857
L65.0644 331.938
L112.554 294.322
L130.871 279.553
L132.567 278.188
L161.4 254.546
L171.915 245.88
L183.109 236.674
L191.929 229.25
L195.999 225.644
L197.695 224.186
L199.731 222.295
L201.087 221.077
L204.819 217.624
L206.515 216.103
L208.55 214.196
L211.603 211.407
L213.299 209.815
L216.352 207.156
L219.066 204.84
L221.779 202.645
L232.295 194.313
L233.312 193.527
L239.418 188.815
L245.863 183.967
L247.22 182.903
L248.577 181.908
L262.824 171.175
L264.52 169.96
L293.353 149.754
L302.511 143.203
L304.546 141.801
L313.705 135.77
L338.467 120.551
L340.503 119.342
L344.234 117.06
L354.749 110.692
L358.82 108.26
L361.873 106.452
L364.247 105.082
L384.261 93.5802
L386.635 92.2099
L392.741 88.6969
L394.437 87.7822
L396.811 86.4695
L400.543 84.4305
L412.076 78.2586
L422.591 73.1017
L434.125 67.4759
L439.891 64.7186
L442.944 63.2555
L453.459 58.2639
L456.512 56.8078
L463.975 53.63
L463.975 53.63" style="fill:none;stroke:#0000ff;stroke-linecap:square;"/>
   </g>
   <g id="line2d_16">
    <path clip-path="url(#pf51f381abf)" d="
M17.575 368.739
L31.4826 357.973
L34.8747 355.201
L37.5884 353.001
L39.2844 351.577
L55.5665 338.305
L57.6017 336.659
L61.3331 333.567
L64.0467 331.37
L67.778 328.36
L69.4741 326.984
L73.8838 323.392
L76.2583 321.462
L83.7209 315.319
L88.1306 311.701
L92.5403 308.031
L95.5932 305.556
L103.395 299.064
L108.483 294.884
L141.047 267.487
L150.884 259.113
L172.255 240.855
L179.039 235.054
L186.501 228.635
L192.607 223.237
L196.339 219.821
L198.374 217.947
L203.462 213.098
L205.158 211.473
L215.673 201.513
L230.599 188.796
L241.453 180.102
L252.308 171.508
L253.665 170.405
L257.396 167.508
L265.537 161.141
L267.233 159.862
L290.3 142.485
L302.85 133.488
L304.886 132.099
L307.599 130.306
L313.027 126.81
L315.401 125.35
L321.168 121.789
L328.97 117.061
L331.683 115.352
L333.718 114.146
L338.467 111.303
L340.163 110.317
L357.802 99.5441
L364.247 95.5905
L368.996 92.6482
L396.133 76.2201
L398.847 74.6805
L412.076 67.0957
L414.79 65.6678
L425.305 60.1446
L429.715 57.8146
L457.53 43.4849
L463.975 40.6066
L463.975 40.6066" style="fill:none;stroke:#008000;stroke-linecap:square;"/>
   </g>
   <g id="patch_3">
    <path d="
M17.575 368.742
L17.575 23.1417" style="fill:none;stroke:#000000;stroke-linecap:square;stroke-linejoin:miter;"/>
   </g>
   <g id="patch_4">
    <path d="
M463.975 368.742
L463.975 23.1417" style="fill:none;stroke:#000000;stroke-linecap:square;stroke-linejoin:miter;"/>
   </g>
   <g id="patch_5">
    <path d="
M17.575 23.1417
L463.975 23.1417" style="fill:none;stroke:#000000;stroke-linecap:square;stroke-linejoin:miter;"/>
   </g>
   <g id="patch_6">
    <path d="
M17.575 368.742
L463.975 368.742" style="fill:none;stroke:#000000;stroke-linecap:square;stroke-linejoin:miter;"/>
   </g>
   <g id="matplotlib.axis_1">
    <g id="xtick_1">
     <g id="line2d_17">
      <defs>
       <path d="
M0 0
L0 -4" id="mc7db9fdffb" style="stroke:#000000;stroke-width:0.5;"/>
      </defs>
      <g>
       <use style="stroke:#000000;stroke-width:0.5;" x="17.575" xlink:href="#mc7db9fdffb" y="368.74175"/>
      </g>
     </g>
     <g id="line2d_18">
      <defs>
       <path d="
M0 0
L0 4" id="m5a7d422ac3" style="stroke:#000000;stroke-width:0.5;"/>
      </defs>
      <g>
       <use style="stroke:#000000;stroke-width:0.5;" x="17.575" xlink:href="#m5a7d422ac3" y="23.14175"/>
      </g>
     </g>
     <g id="text_1">
      <!-- 0 -->
      <defs>
       <path d="
M31.7812 66.4062
Q24.1719 66.4062 20.3281 58.9062
Q16.5 51.4219 16.5 36.375
Q16.5 21.3906 20.3281 13.8906
Q24.1719 6.39062 31.7812 6.39062
Q39.4531 6.39062 43.2812 13.8906
Q47.125 21.3906 47.125 36.375
Q47.125 51.4219 43.2812 58.9062
Q39.4531 66.4062 31.7812 66.4062
M31.7812 74.2188
Q44.0469 74.2188 50.5156 64.5156
Q56.9844 54.8281 56.9844 36.375
Q56.9844 17.9688 50.5156 8.26562
Q44.0469 -1.42188 31.7812 -1.42188
Q19.5312 -1.42188 13.0625 8.26562
Q6.59375 17.9688 6.59375 36.375
Q6.59375 54.8281 13.0625 64.5156
Q19.5312 74.2188 31.7812 74.2188" id="DejaVuSans-30"/>
      </defs>
      <g transform="translate(14.5515625 381.859875)scale(0.12 -0.12)">
       <use xlink:href="#DejaVuSans-30"/>
      </g>
     </g>
    </g>
    <g id="xtick_2">
     <g id="line2d_19">
      <g>
       <use style="stroke:#000000;stroke-width:0.5;" x="85.4169452888" xlink:href="#mc7db9fdffb" y="368.74175"/>
      </g>
     </g>
     <g id="line2d_20">
      <g>
       <use style="stroke:#000000;stroke-width:0.5;" x="85.4169452888" xlink:href="#m5a7d422ac3" y="23.14175"/>
      </g>
     </g>
     <g id="text_2">
      <!-- 200 -->
      <defs>
       <path d="
M19.1875 8.29688
L53.6094 8.29688
L53.6094 0
L7.32812 0
L7.32812 8.29688
Q12.9375 14.1094 22.625 23.8906
Q32.3281 33.6875 34.8125 36.5312
Q39.5469 41.8438 41.4219 45.5312
Q43.3125 49.2188 43.3125 52.7812
Q43.3125 58.5938 39.2344 62.25
Q35.1562 65.9219 28.6094 65.9219
Q23.9688 65.9219 18.8125 64.3125
Q13.6719 62.7031 7.8125 59.4219
L7.8125 69.3906
Q13.7656 71.7812 18.9375 73
Q24.125 74.2188 28.4219 74.2188
Q39.75 74.2188 46.4844 68.5469
Q53.2188 62.8906 53.2188 53.4219
Q53.2188 48.9219 51.5312 44.8906
Q49.8594 40.875 45.4062 35.4062
Q44.1875 33.9844 37.6406 27.2188
Q31.1094 20.4531 19.1875 8.29688" id="DejaVuSans-32"/>
      </defs>
      <g transform="translate(74.8025702888 381.859875)scale(0.12 -0.12)">
       <use xlink:href="#DejaVuSans-32"/>
       <use x="63.623046875" xlink:href="#DejaVuSans-30"/>
       <use x="127.24609375" xlink:href="#DejaVuSans-30"/>
      </g>
     </g>
    </g>
    <g id="xtick_3">
     <g id="line2d_21">
      <g>
       <use style="stroke:#000000;stroke-width:0.5;" x="153.258890578" xlink:href="#mc7db9fdffb" y="368.74175"/>
      </g>
     </g>
     <g id="line2d_22">
      <g>
       <use style="stroke:#000000;stroke-width:0.5;" x="153.258890578" xlink:href="#m5a7d422ac3" y="23.14175"/>
      </g>
     </g>
     <g id="text_3">
      <!-- 400 -->
      <defs>
       <path d="
M37.7969 64.3125
L12.8906 25.3906
L37.7969 25.3906
z

M35.2031 72.9062
L47.6094 72.9062
L47.6094 25.3906
L58.0156 25.3906
L58.0156 17.1875
L47.6094 17.1875
L47.6094 0
L37.7969 0
L37.7969 17.1875
L4.89062 17.1875
L4.89062 26.7031
z
" id="DejaVuSans-34"/>
      </defs>
      <g transform="translate(142.498265578 381.859875)scale(0.12 -0.12)">
       <use xlink:href="#DejaVuSans-34"/>
       <use x="63.623046875" xlink:href="#DejaVuSans-30"/>
       <use x="127.24609375" xlink:href="#DejaVuSans-30"/>
      </g>
     </g>
    </g>
    <g id="xtick_4">
     <g id="line2d_23">
      <g>
       <use style="stroke:#000000;stroke-width:0.5;" x="221.100835866" xlink:href="#mc7db9fdffb" y="368.74175"/>
      </g>
     </g>
     <g id="line2d_24">
      <g>
       <use style="stroke:#000000;stroke-width:0.5;" x="221.100835866" xlink:href="#m5a7d422ac3" y="23.14175"/>
      </g>
     </g>
     <g id="text_4">
      <!-- 600 -->
      <defs>
       <path d="
M33.0156 40.375
Q26.375 40.375 22.4844 35.8281
Q18.6094 31.2969 18.6094 23.3906
Q18.6094 15.5312 22.4844 10.9531
Q26.375 6.39062 33.0156 6.39062
Q39.6562 6.39062 43.5312 10.9531
Q47.4062 15.5312 47.4062 23.3906
Q47.4062 31.2969 43.5312 35.8281
Q39.6562 40.375 33.0156 40.375
M52.5938 71.2969
L52.5938 62.3125
Q48.875 64.0625 45.0938 64.9844
Q41.3125 65.9219 37.5938 65.9219
Q27.8281 65.9219 22.6719 59.3281
Q17.5312 52.7344 16.7969 39.4062
Q19.6719 43.6562 24.0156 45.9219
Q28.375 48.1875 33.5938 48.1875
Q44.5781 48.1875 50.9531 41.5156
Q57.3281 34.8594 57.3281 23.3906
Q57.3281 12.1562 50.6875 5.35938
Q44.0469 -1.42188 33.0156 -1.42188
Q20.3594 -1.42188 13.6719 8.26562
Q6.98438 17.9688 6.98438 36.375
Q6.98438 53.6562 15.1875 63.9375
Q23.3906 74.2188 37.2031 74.2188
Q40.9219 74.2188 44.7031 73.4844
Q48.4844 72.75 52.5938 71.2969" id="DejaVuSans-36"/>
      </defs>
      <g transform="translate(210.465835866 381.859875)scale(0.12 -0.12)">
       <use xlink:href="#DejaVuSans-36"/>
       <use x="63.623046875" xlink:href="#DejaVuSans-30"/>
       <use x="127.24609375" xlink:href="#DejaVuSans-30"/>
      </g>
     </g>
    </g>
    <g id="xtick_5">
     <g id="line2d_25">
      <g>
       <use style="stroke:#000000;stroke-width:0.5;" x="288.942781155" xlink:href="#mc7db9fdffb" y="368.74175"/>
      </g>
     </g>
     <g id="line2d_26">
      <g>
       <use style="stroke:#000000;stroke-width:0.5;" x="288.942781155" xlink:href="#m5a7d422ac3" y="23.14175"/>
      </g>
     </g>
     <g id="text_5">
      <!-- 800 -->
      <defs>
       <path d="
M31.7812 34.625
Q24.75 34.625 20.7188 30.8594
Q16.7031 27.0938 16.7031 20.5156
Q16.7031 13.9219 20.7188 10.1562
Q24.75 6.39062 31.7812 6.39062
Q38.8125 6.39062 42.8594 10.1719
Q46.9219 13.9688 46.9219 20.5156
Q46.9219 27.0938 42.8906 30.8594
Q38.875 34.625 31.7812 34.625
M21.9219 38.8125
Q15.5781 40.375 12.0312 44.7188
Q8.5 49.0781 8.5 55.3281
Q8.5 64.0625 14.7188 69.1406
Q20.9531 74.2188 31.7812 74.2188
Q42.6719 74.2188 48.875 69.1406
Q55.0781 64.0625 55.0781 55.3281
Q55.0781 49.0781 51.5312 44.7188
Q48 40.375 41.7031 38.8125
Q48.8281 37.1562 52.7969 32.3125
Q56.7812 27.4844 56.7812 20.5156
Q56.7812 9.90625 50.3125 4.23438
Q43.8438 -1.42188 31.7812 -1.42188
Q19.7344 -1.42188 13.25 4.23438
Q6.78125 9.90625 6.78125 20.5156
Q6.78125 27.4844 10.7812 32.3125
Q14.7969 37.1562 21.9219 38.8125
M18.3125 54.3906
Q18.3125 48.7344 21.8438 45.5625
Q25.3906 42.3906 31.7812 42.3906
Q38.1406 42.3906 41.7188 45.5625
Q45.3125 48.7344 45.3125 54.3906
Q45.3125 60.0625 41.7188 63.2344
Q38.1406 66.4062 31.7812 66.4062
Q25.3906 66.4062 21.8438 63.2344
Q18.3125 60.0625 18.3125 54.3906" id="DejaVuSans-38"/>
      </defs>
      <g transform="translate(278.295593655 381.859875)scale(0.12 -0.12)">
       <use xlink:href="#DejaVuSans-38"/>
       <use x="63.623046875" xlink:href="#DejaVuSans-30"/>
       <use x="127.24609375" xlink:href="#DejaVuSans-30"/>
      </g>
     </g>
    </g>
    <g id="xtick_6">
     <g id="line2d_27">
      <g>
       <use style="stroke:#000000;stroke-width:0.5;" x="356.784726444" xlink:href="#mc7db9fdffb" y="368.74175"/>
      </g>
     </g>
     <g id="line2d_28">
      <g>
       <use style="stroke:#000000;stroke-width:0.5;" x="356.784726444" xlink:href="#m5a7d422ac3" y="23.14175"/>
      </g>
     </g>
     <g id="text_6">
      <!-- 1000 -->
      <defs>
       <path d="
M12.4062 8.29688
L28.5156 8.29688
L28.5156 63.9219
L10.9844 60.4062
L10.9844 69.3906
L28.4219 72.9062
L38.2812 72.9062
L38.2812 8.29688
L54.3906 8.29688
L54.3906 0
L12.4062 0
z
" id="DejaVuSans-31"/>
      </defs>
      <g transform="translate(342.572226444 381.859875)scale(0.12 -0.12)">
       <use xlink:href="#DejaVuSans-31"/>
       <use x="63.623046875" xlink:href="#DejaVuSans-30"/>
       <use x="127.24609375" xlink:href="#DejaVuSans-30"/>
       <use x="190.869140625" xlink:href="#DejaVuSans-30"/>
      </g>
     </g>
    </g>
    <g id="xtick_7">
     <g id="line2d_29">
      <g>
       <use style="stroke:#000000;stroke-width:0.5;" x="424.626671733" xlink:href="#mc7db9fdffb" y="368.74175"/>
      </g>
     </g>
     <g id="line2d_30">
      <g>
       <use style="stroke:#000000;stroke-width:0.5;" x="424.626671733" xlink:href="#m5a7d422ac3" y="23.14175"/>
      </g>
     </g>
     <g id="text_7">
      <!-- 1200 -->
      <g transform="translate(410.414171733 381.859875)scale(0.12 -0.12)">
       <use xlink:href="#DejaVuSans-31"/>
       <use x="63.623046875" xlink:href="#DejaVuSans-32"/>
       <use x="127.24609375" xlink:href="#DejaVuSans-30"/>
       <use x="190.869140625" xlink:href="#DejaVuSans-30"/>
      </g>
     </g>
    </g>
    <g id="text_8">
     <!-- time -->
     <defs>
      <path d="
M9.42188 54.6875
L18.4062 54.6875
L18.4062 0
L9.42188 0
z

M9.42188 75.9844
L18.4062 75.9844
L18.4062 64.5938
L9.42188 64.5938
z
" id="DejaVuSans-69"/>
      <path d="
M18.3125 70.2188
L18.3125 54.6875
L36.8125 54.6875
L36.8125 47.7031
L18.3125 47.7031
L18.3125 18.0156
Q18.3125 11.3281 20.1406 9.42188
Q21.9688 7.51562 27.5938 7.51562
L36.8125 7.51562
L36.8125 0
L27.5938 0
Q17.1875 0 13.2344 3.875
Q9.28125 7.76562 9.28125 18.0156
L9.28125 47.7031
L2.6875 47.7031
L2.6875 54.6875
L9.28125 54.6875
L9.28125 70.2188
z
" id="DejaVuSans-74"/>
      <path d="
M52 44.1875
Q55.375 50.25 60.0625 53.125
Q64.75 56 71.0938 56
Q79.6406 56 84.2812 50.0156
Q88.9219 44.0469 88.9219 33.0156
L88.9219 0
L79.8906 0
L79.8906 32.7188
Q79.8906 40.5781 77.0938 44.375
Q74.3125 48.1875 68.6094 48.1875
Q61.625 48.1875 57.5625 43.5469
Q53.5156 38.9219 53.5156 30.9062
L53.5156 0
L44.4844 0
L44.4844 32.7188
Q44.4844 40.625 41.7031 44.4062
Q38.9219 48.1875 33.1094 48.1875
Q26.2188 48.1875 22.1562 43.5312
Q18.1094 38.875 18.1094 30.9062
L18.1094 0
L9.07812 0
L9.07812 54.6875
L18.1094 54.6875
L18.1094 46.1875
Q21.1875 51.2188 25.4844 53.6094
Q29.7812 56 35.6875 56
Q41.6562 56 45.8281 52.9688
Q50 49.9531 52 44.1875" id="DejaVuSans-6d"/>
      <path d="
M56.2031 29.5938
L56.2031 25.2031
L14.8906 25.2031
Q15.4844 15.9219 20.4844 11.0625
Q25.4844 6.20312 34.4219 6.20312
Q39.5938 6.20312 44.4531 7.46875
Q49.3125 8.73438 54.1094 11.2812
L54.1094 2.78125
Q49.2656 0.734375 44.1875 -0.34375
Q39.1094 -1.42188 33.8906 -1.42188
Q20.7969 -1.42188 13.1562 6.1875
Q5.51562 13.8125 5.51562 26.8125
Q5.51562 40.2344 12.7656 48.1094
Q20.0156 56 32.3281 56
Q43.3594 56 49.7812 48.8906
Q56.2031 41.7969 56.2031 29.5938
M47.2188 32.2344
Q47.125 39.5938 43.0938 43.9844
Q39.0625 48.3906 32.4219 48.3906
Q24.9062 48.3906 20.3906 44.1406
Q15.875 39.8906 15.1875 32.1719
z
" id="DejaVuSans-65"/>
     </defs>
     <g transform="translate(227.700625 398.473625)scale(0.12 -0.12)">
      <use xlink:href="#DejaVuSans-74"/>
      <use x="39.208984375" xlink:href="#DejaVuSans-69"/>
      <use x="66.9921875" xlink:href="#DejaVuSans-6d"/>
      <use x="164.404296875" xlink:href="#DejaVuSans-65"/>
     </g>
    </g>
   </g>
   <g id="matplotlib.axis_2">
    <g id="ytick_1">
     <g id="line2d_31">
      <defs>
       <path d="
M0 0
L4 0" id="md7965d1ba0" style="stroke:#000000;stroke-width:0.5;"/>
      </defs>
      <g>
       <use style="stroke:#000000;stroke-width:0.5;" x="17.575" xlink:href="#md7965d1ba0" y="368.74175"/>
      </g>
     </g>
     <g id="line2d_32">
      <defs>
       <path d="
M0 0
L-4 0" id="md9a1c1a7cd" style="stroke:#000000;stroke-width:0.5;"/>
      </defs>
      <g>
       <use style="stroke:#000000;stroke-width:0.5;" x="463.975" xlink:href="#md9a1c1a7cd" y="368.74175"/>
      </g>
     </g>
     <g id="text_9">
      <!-- 0 -->
      <g transform="translate(7.528125 372.053)scale(0.12 -0.12)">
       <use xlink:href="#DejaVuSans-30"/>
      </g>
     </g>
    </g>
    <g id="ytick_2">
     <g id="line2d_33">
      <g>
       <use style="stroke:#000000;stroke-width:0.5;" x="17.575" xlink:href="#md7965d1ba0" y="311.14175"/>
      </g>
     </g>
     <g id="line2d_34">
      <g>
       <use style="stroke:#000000;stroke-width:0.5;" x="463.975" xlink:href="#md9a1c1a7cd" y="311.14175"/>
      </g>
     </g>
     <g id="text_10">
      <!-- 1 -->
      <g transform="translate(8.36625 314.453)scale(0.12 -0.12)">
       <use xlink:href="#DejaVuSans-31"/>
      </g>
     </g>
    </g>
    <g id="ytick_3">
     <g id="line2d_35">
      <g>
       <use style="stroke:#000000;stroke-width:0.5;" x="17.575" xlink:href="#md7965d1ba0" y="253.54175"/>
      </g>
     </g>
     <g id="line2d_36">
      <g>
       <use style="stroke:#000000;stroke-width:0.5;" x="463.975" xlink:href="#md9a1c1a7cd" y="253.54175"/>
      </g>
     </g>
     <g id="text_11">
      <!-- 2 -->
      <g transform="translate(8.02125 256.853)scale(0.12 -0.12)">
       <use xlink:href="#DejaVuSans-32"/>
      </g>
     </g>
    </g>
    <g id="ytick_4">
     <g id="line2d_37">
      <g>
       <use style="stroke:#000000;stroke-width:0.5;" x="17.575" xlink:href="#md7965d1ba0" y="195.94175"/>
      </g>
     </g>
     <g id="line2d_38">
      <g>
       <use style="stroke:#000000;stroke-width:0.5;" x="463.975" xlink:href="#md9a1c1a7cd" y="195.94175"/>
      </g>
     </g>
     <g id="text_12">
      <!-- 3 -->
      <defs>
       <path d="
M40.5781 39.3125
Q47.6562 37.7969 51.625 33
Q55.6094 28.2188 55.6094 21.1875
Q55.6094 10.4062 48.1875 4.48438
Q40.7656 -1.42188 27.0938 -1.42188
Q22.5156 -1.42188 17.6562 -0.515625
Q12.7969 0.390625 7.625 2.20312
L7.625 11.7188
Q11.7188 9.32812 16.5938 8.10938
Q21.4844 6.89062 26.8125 6.89062
Q36.0781 6.89062 40.9375 10.5469
Q45.7969 14.2031 45.7969 21.1875
Q45.7969 27.6406 41.2812 31.2656
Q36.7656 34.9062 28.7188 34.9062
L20.2188 34.9062
L20.2188 43.0156
L29.1094 43.0156
Q36.375 43.0156 40.2344 45.9219
Q44.0938 48.8281 44.0938 54.2969
Q44.0938 59.9062 40.1094 62.9062
Q36.1406 65.9219 28.7188 65.9219
Q24.6562 65.9219 20.0156 65.0312
Q15.375 64.1562 9.8125 62.3125
L9.8125 71.0938
Q15.4375 72.6562 20.3438 73.4375
Q25.25 74.2188 29.5938 74.2188
Q40.8281 74.2188 47.3594 69.1094
Q53.9062 64.0156 53.9062 55.3281
Q53.9062 49.2656 50.4375 45.0938
Q46.9688 40.9219 40.5781 39.3125" id="DejaVuSans-33"/>
      </defs>
      <g transform="translate(7.816875 199.253)scale(0.12 -0.12)">
       <use xlink:href="#DejaVuSans-33"/>
      </g>
     </g>
    </g>
    <g id="ytick_5">
     <g id="line2d_39">
      <g>
       <use style="stroke:#000000;stroke-width:0.5;" x="17.575" xlink:href="#md7965d1ba0" y="138.34175"/>
      </g>
     </g>
     <g id="line2d_40">
      <g>
       <use style="stroke:#000000;stroke-width:0.5;" x="463.975" xlink:href="#md9a1c1a7cd" y="138.34175"/>
      </g>
     </g>
     <g id="text_13">
      <!-- 4 -->
      <g transform="translate(7.2 141.653)scale(0.12 -0.12)">
       <use xlink:href="#DejaVuSans-34"/>
      </g>
     </g>
    </g>
    <g id="ytick_6">
     <g id="line2d_41">
      <g>
       <use style="stroke:#000000;stroke-width:0.5;" x="17.575" xlink:href="#md7965d1ba0" y="80.74175"/>
      </g>
     </g>
     <g id="line2d_42">
      <g>
       <use style="stroke:#000000;stroke-width:0.5;" x="463.975" xlink:href="#md9a1c1a7cd" y="80.74175"/>
      </g>
     </g>
     <g id="text_14">
      <!-- 5 -->
      <defs>
       <path d="
M10.7969 72.9062
L49.5156 72.9062
L49.5156 64.5938
L19.8281 64.5938
L19.8281 46.7344
Q21.9688 47.4688 24.1094 47.8281
Q26.2656 48.1875 28.4219 48.1875
Q40.625 48.1875 47.75 41.5
Q54.8906 34.8125 54.8906 23.3906
Q54.8906 11.625 47.5625 5.09375
Q40.2344 -1.42188 26.9062 -1.42188
Q22.3125 -1.42188 17.5469 -0.640625
Q12.7969 0.140625 7.71875 1.70312
L7.71875 11.625
Q12.1094 9.23438 16.7969 8.0625
Q21.4844 6.89062 26.7031 6.89062
Q35.1562 6.89062 40.0781 11.3281
Q45.0156 15.7656 45.0156 23.3906
Q45.0156 31 40.0781 35.4375
Q35.1562 39.8906 26.7031 39.8906
Q22.75 39.8906 18.8125 39.0156
Q14.8906 38.1406 10.7969 36.2812
z
" id="DejaVuSans-35"/>
      </defs>
      <g transform="translate(7.914375 84.053)scale(0.12 -0.12)">
       <use xlink:href="#DejaVuSans-35"/>
      </g>
     </g>
    </g>
    <g id="ytick_7">
     <g id="line2d_43">
      <g>
       <use style="stroke:#000000;stroke-width:0.5;" x="17.575" xlink:href="#md7965d1ba0" y="23.14175"/>
      </g>
     </g>
     <g id="line2d_44">
      <g>
       <use style="stroke:#000000;stroke-width:0.5;" x="463.975" xlink:href="#md9a1c1a7cd" y="23.14175"/>
      </g>
     </g>
     <g id="text_15">
      <!-- 6 -->
      <g transform="translate(7.53375 26.453)scale(0.12 -0.12)">
       <use xlink:href="#DejaVuSans-36"/>
      </g>
     </g>
    </g>
    <g id="text_16">
     <!-- 1e7 -->
     <defs>
      <path d="
M8.20312 72.9062
L55.0781 72.9062
L55.0781 68.7031
L28.6094 0
L18.3125 0
L43.2188 64.5938
L8.20312 64.5938
z
" id="DejaVuSans-37"/>
     </defs>
     <g transform="translate(17.575 20.14175)scale(0.12 -0.12)">
      <use xlink:href="#DejaVuSans-31"/>
      <use x="63.623046875" xlink:href="#DejaVuSans-65"/>
      <use x="125.146484375" xlink:href="#DejaVuSans-37"/>
     </g>
    </g>
   </g>
   <g id="text_17">
    <!-- /agas/primary/count -->
    <defs>
     <path d="
M54.8906 33.0156
L54.8906 0
L45.9062 0
L45.9062 32.7188
Q45.9062 40.4844 42.875 44.3281
Q39.8438 48.1875 33.7969 48.1875
Q26.5156 48.1875 22.3125 43.5469
Q18.1094 38.9219 18.1094 30.9062
L18.1094 0
L9.07812 0
L9.07812 54.6875
L18.1094 54.6875
L18.1094 46.1875
Q21.3438 51.125 25.7031 53.5625
Q30.0781 56 35.7969 56
Q45.2188 56 50.0469 50.1719
Q54.8906 44.3438 54.8906 33.0156" id="DejaVuSans-6e"/>
     <path d="
M18.1094 8.20312
L18.1094 -20.7969
L9.07812 -20.7969
L9.07812 54.6875
L18.1094 54.6875
L18.1094 46.3906
Q20.9531 51.2656 25.2656 53.625
Q29.5938 56 35.5938 56
Q45.5625 56 51.7812 48.0938
Q58.0156 40.1875 58.0156 27.2969
Q58.0156 14.4062 51.7812 6.48438
Q45.5625 -1.42188 35.5938 -1.42188
Q29.5938 -1.42188 25.2656 0.953125
Q20.9531 3.32812 18.1094 8.20312
M48.6875 27.2969
Q48.6875 37.2031 44.6094 42.8438
Q40.5312 48.4844 33.4062 48.4844
Q26.2656 48.4844 22.1875 42.8438
Q18.1094 37.2031 18.1094 27.2969
Q18.1094 17.3906 22.1875 11.75
Q26.2656 6.10938 33.4062 6.10938
Q40.5312 6.10938 44.6094 11.75
Q48.6875 17.3906 48.6875 27.2969" id="DejaVuSans-70"/>
     <path d="
M32.1719 -5.07812
Q28.375 -14.8438 24.75 -17.8125
Q21.1406 -20.7969 15.0938 -20.7969
L7.90625 -20.7969
L7.90625 -13.2812
L13.1875 -13.2812
Q16.8906 -13.2812 18.9375 -11.5156
Q21 -9.76562 23.4844 -3.21875
L25.0938 0.875
L2.98438 54.6875
L12.5 54.6875
L29.5938 11.9219
L46.6875 54.6875
L56.2031 54.6875
z
" id="DejaVuSans-79"/>
     <path d="
M41.1094 46.2969
Q39.5938 47.1719 37.8125 47.5781
Q36.0312 48 33.8906 48
Q26.2656 48 22.1875 43.0469
Q18.1094 38.0938 18.1094 28.8125
L18.1094 0
L9.07812 0
L9.07812 54.6875
L18.1094 54.6875
L18.1094 46.1875
Q20.9531 51.1719 25.4844 53.5781
Q30.0312 56 36.5312 56
Q37.4531 56 38.5781 55.875
Q39.7031 55.7656 41.0625 55.5156
z
" id="DejaVuSans-72"/>
     <path d="
M34.2812 27.4844
Q23.3906 27.4844 19.1875 25
Q14.9844 22.5156 14.9844 16.5
Q14.9844 11.7188 18.1406 8.90625
Q21.2969 6.10938 26.7031 6.10938
Q34.1875 6.10938 38.7031 11.4062
Q43.2188 16.7031 43.2188 25.4844
L43.2188 27.4844
z

M52.2031 31.2031
L52.2031 0
L43.2188 0
L43.2188 8.29688
Q40.1406 3.32812 35.5469 0.953125
Q30.9531 -1.42188 24.3125 -1.42188
Q15.9219 -1.42188 10.9531 3.29688
Q6 8.01562 6 15.9219
Q6 25.1406 12.1719 29.8281
Q18.3594 34.5156 30.6094 34.5156
L43.2188 34.5156
L43.2188 35.4062
Q43.2188 41.6094 39.1406 45
Q35.0625 48.3906 27.6875 48.3906
Q23 48.3906 18.5469 47.2656
Q14.1094 46.1406 10.0156 43.8906
L10.0156 52.2031
Q14.9375 54.1094 19.5781 55.0469
Q24.2188 56 28.6094 56
Q40.4844 56 46.3438 49.8438
Q52.2031 43.7031 52.2031 31.2031" id="DejaVuSans-61"/>
     <path d="
M48.7812 52.5938
L48.7812 44.1875
Q44.9688 46.2969 41.1406 47.3438
Q37.3125 48.3906 33.4062 48.3906
Q24.6562 48.3906 19.8125 42.8438
Q14.9844 37.3125 14.9844 27.2969
Q14.9844 17.2812 19.8125 11.7344
Q24.6562 6.20312 33.4062 6.20312
Q37.3125 6.20312 41.1406 7.25
Q44.9688 8.29688 48.7812 10.4062
L48.7812 2.09375
Q45.0156 0.34375 40.9844 -0.53125
Q36.9688 -1.42188 32.4219 -1.42188
Q20.0625 -1.42188 12.7812 6.34375
Q5.51562 14.1094 5.51562 27.2969
Q5.51562 40.6719 12.8594 48.3281
Q20.2188 56 33.0156 56
Q37.1562 56 41.1094 55.1406
Q45.0625 54.2969 48.7812 52.5938" id="DejaVuSans-63"/>
     <path d="
M30.6094 48.3906
Q23.3906 48.3906 19.1875 42.75
Q14.9844 37.1094 14.9844 27.2969
Q14.9844 17.4844 19.1562 11.8438
Q23.3438 6.20312 30.6094 6.20312
Q37.7969 6.20312 41.9844 11.8594
Q46.1875 17.5312 46.1875 27.2969
Q46.1875 37.0156 41.9844 42.7031
Q37.7969 48.3906 30.6094 48.3906
M30.6094 56
Q42.3281 56 49.0156 48.375
Q55.7188 40.7656 55.7188 27.2969
Q55.7188 13.875 49.0156 6.21875
Q42.3281 -1.42188 30.6094 -1.42188
Q18.8438 -1.42188 12.1719 6.21875
Q5.51562 13.875 5.51562 27.2969
Q5.51562 40.7656 12.1719 48.375
Q18.8438 56 30.6094 56" id="DejaVuSans-6f"/>
     <path d="
M8.5 21.5781
L8.5 54.6875
L17.4844 54.6875
L17.4844 21.9219
Q17.4844 14.1562 20.5 10.2656
Q23.5312 6.39062 29.5938 6.39062
Q36.8594 6.39062 41.0781 11.0312
Q45.3125 15.6719 45.3125 23.6875
L45.3125 54.6875
L54.2969 54.6875
L54.2969 0
L45.3125 0
L45.3125 8.40625
Q42.0469 3.42188 37.7188 1
Q33.4062 -1.42188 27.6875 -1.42188
Q18.2656 -1.42188 13.375 4.4375
Q8.5 10.2969 8.5 21.5781
M31.1094 56
z
" id="DejaVuSans-75"/>
     <path d="
M25.3906 72.9062
L33.6875 72.9062
L8.29688 -9.28125
L0 -9.28125
z
" id="DejaVuSans-2f"/>
     <path d="
M45.4062 27.9844
Q45.4062 37.75 41.375 43.1094
Q37.3594 48.4844 30.0781 48.4844
Q22.8594 48.4844 18.8281 43.1094
Q14.7969 37.75 14.7969 27.9844
Q14.7969 18.2656 18.8281 12.8906
Q22.8594 7.51562 30.0781 7.51562
Q37.3594 7.51562 41.375 12.8906
Q45.4062 18.2656 45.4062 27.9844
M54.3906 6.78125
Q54.3906 -7.17188 48.1875 -13.9844
Q42 -20.7969 29.2031 -20.7969
Q24.4688 -20.7969 20.2656 -20.0938
Q16.0625 -19.3906 12.1094 -17.9219
L12.1094 -9.1875
Q16.0625 -11.3281 19.9219 -12.3438
Q23.7812 -13.375 27.7812 -13.375
Q36.625 -13.375 41.0156 -8.76562
Q45.4062 -4.15625 45.4062 5.17188
L45.4062 9.625
Q42.625 4.78125 38.2812 2.39062
Q33.9375 0 27.875 0
Q17.8281 0 11.6719 7.65625
Q5.51562 15.3281 5.51562 27.9844
Q5.51562 40.6719 11.6719 48.3281
Q17.8281 56 27.875 56
Q33.9375 56 38.2812 53.6094
Q42.625 51.2188 45.4062 46.3906
L45.4062 54.6875
L54.3906 54.6875
z
" id="DejaVuSans-67"/>
     <path d="
M44.2812 53.0781
L44.2812 44.5781
Q40.4844 46.5312 36.375 47.5
Q32.2812 48.4844 27.875 48.4844
Q21.1875 48.4844 17.8438 46.4375
Q14.5 44.3906 14.5 40.2812
Q14.5 37.1562 16.8906 35.375
Q19.2812 33.5938 26.5156 31.9844
L29.5938 31.2969
Q39.1562 29.25 43.1875 25.5156
Q47.2188 21.7812 47.2188 15.0938
Q47.2188 7.46875 41.1875 3.01562
Q35.1562 -1.42188 24.6094 -1.42188
Q20.2188 -1.42188 15.4531 -0.5625
Q10.6875 0.296875 5.42188 2
L5.42188 11.2812
Q10.4062 8.6875 15.2344 7.39062
Q20.0625 6.10938 24.8125 6.10938
Q31.1562 6.10938 34.5625 8.28125
Q37.9844 10.4531 37.9844 14.4062
Q37.9844 18.0625 35.5156 20.0156
Q33.0625 21.9688 24.7031 23.7812
L21.5781 24.5156
Q13.2344 26.2656 9.51562 29.9062
Q5.8125 33.5469 5.8125 39.8906
Q5.8125 47.6094 11.2812 51.7969
Q16.75 56 26.8125 56
Q31.7812 56 36.1719 55.2656
Q40.5781 54.5469 44.2812 53.0781" id="DejaVuSans-73"/>
    </defs>
    <g transform="translate(168.033625 18.14175)scale(0.144 -0.144)">
     <use xlink:href="#DejaVuSans-2f"/>
     <use x="33.69140625" xlink:href="#DejaVuSans-61"/>
     <use x="94.970703125" xlink:href="#DejaVuSans-67"/>
     <use x="158.447265625" xlink:href="#DejaVuSans-61"/>
     <use x="219.7265625" xlink:href="#DejaVuSans-73"/>
     <use x="271.826171875" xlink:href="#DejaVuSans-2f"/>
     <use x="305.517578125" xlink:href="#DejaVuSans-70"/>
     <use x="368.994140625" xlink:href="#DejaVuSans-72"/>
     <use x="410.107421875" xlink:href="#DejaVuSans-69"/>
     <use x="437.890625" xlink:href="#DejaVuSans-6d"/>
     <use x="535.302734375" xlink:href="#DejaVuSans-61"/>
     <use x="596.58203125" xlink:href="#DejaVuSans-72"/>
     <use x="637.6953125" xlink:href="#DejaVuSans-79"/>
     <use x="696.875" xlink:href="#DejaVuSans-2f"/>
     <use x="730.56640625" xlink:href="#DejaVuSans-63"/>
     <use x="785.546875" xlink:href="#DejaVuSans-6f"/>
     <use x="846.728515625" xlink:href="#DejaVuSans-75"/>
     <use x="910.107421875" xlink:href="#DejaVuSans-6e"/>
     <use x="973.486328125" xlink:href="#DejaVuSans-74"/>
    </g>
   </g>
   <g id="legend_1">
    <g id="patch_7">
     <path d="
M471.175 367.194
L602.964 367.194
L602.964 24.6897
L471.175 24.6897
z
" style="fill:#ffffff;stroke:#000000;stroke-linejoin:miter;"/>
    </g>
    <g id="line2d_45">
     <path d="
M481.255 36.3515
L501.415 36.3515" style="fill:none;stroke:#0000ff;stroke-linecap:square;"/>
    </g>
    <g id="line2d_46"/>
    <g id="text_18">
     <!-- locality#0 -->
     <defs>
      <path d="
M51.125 44
L36.9219 44
L32.8125 27.6875
L47.125 27.6875
z

M43.7969 71.7812
L38.7188 51.5156
L52.9844 51.5156
L58.1094 71.7812
L65.9219 71.7812
L60.8906 51.5156
L76.125 51.5156
L76.125 44
L58.9844 44
L54.9844 27.6875
L70.5156 27.6875
L70.5156 20.2188
L53.0781 20.2188
L48 0
L40.1875 0
L45.2188 20.2188
L30.9062 20.2188
L25.875 0
L18.0156 0
L23.0938 20.2188
L7.71875 20.2188
L7.71875 27.6875
L24.9062 27.6875
L29 44
L13.2812 44
L13.2812 51.5156
L30.9062 51.5156
L35.8906 71.7812
z
" id="DejaVuSans-23"/>
      <path d="
M9.42188 75.9844
L18.4062 75.9844
L18.4062 0
L9.42188 0
z
" id="DejaVuSans-6c"/>
     </defs>
     <g transform="translate(517.255 41.3915)scale(0.144 -0.144)">
      <use xlink:href="#DejaVuSans-6c"/>
      <use x="27.783203125" xlink:href="#DejaVuSans-6f"/>
      <use x="88.96484375" xlink:href="#DejaVuSans-63"/>
      <use x="143.9453125" xlink:href="#DejaVuSans-61"/>
      <use x="205.224609375" xlink:href="#DejaVuSans-6c"/>
      <use x="233.0078125" xlink:href="#DejaVuSans-69"/>
      <use x="260.791015625" xlink:href="#DejaVuSans-74"/>
      <use x="300.0" xlink:href="#DejaVuSans-79"/>
      <use x="359.1796875" xlink:href="#DejaVuSans-23"/>
      <use x="442.96875" xlink:href="#DejaVuSans-30"/>
     </g>
    </g>
    <g id="line2d_47">
     <path d="
M481.255 57.488
L501.415 57.488" style="fill:none;stroke:#008000;stroke-linecap:square;"/>
    </g>
    <g id="line2d_48"/>
    <g id="text_19">
     <!-- locality#1 -->
     <g transform="translate(517.255 62.528)scale(0.144 -0.144)">
      <use xlink:href="#DejaVuSans-6c"/>
      <use x="27.783203125" xlink:href="#DejaVuSans-6f"/>
      <use x="88.96484375" xlink:href="#DejaVuSans-63"/>
      <use x="143.9453125" xlink:href="#DejaVuSans-61"/>
      <use x="205.224609375" xlink:href="#DejaVuSans-6c"/>
      <use x="233.0078125" xlink:href="#DejaVuSans-69"/>
      <use x="260.791015625" xlink:href="#DejaVuSans-74"/>
      <use x="300.0" xlink:href="#DejaVuSans-79"/>
      <use x="359.1796875" xlink:href="#DejaVuSans-23"/>
      <use x="442.96875" xlink:href="#DejaVuSans-31"/>
     </g>
    </g>
    <g id="line2d_49">
     <path d="
M481.255 78.6245
L501.415 78.6245" style="fill:none;stroke:#ff0000;stroke-linecap:square;"/>
    </g>
    <g id="line2d_50"/>
    <g id="text_20">
     <!-- locality#10 -->
     <g transform="translate(517.255 83.6645)scale(0.144 -0.144)">
      <use xlink:href="#DejaVuSans-6c"/>
      <use x="27.783203125" xlink:href="#DejaVuSans-6f"/>
      <use x="88.96484375" xlink:href="#DejaVuSans-63"/>
      <use x="143.9453125" xlink:href="#DejaVuSans-61"/>
      <use x="205.224609375" xlink:href="#DejaVuSans-6c"/>
      <use x="233.0078125" xlink:href="#DejaVuSans-69"/>
      <use x="260.791015625" xlink:href="#DejaVuSans-74"/>
      <use x="300.0" xlink:href="#DejaVuSans-79"/>
      <use x="359.1796875" xlink:href="#DejaVuSans-23"/>
      <use x="442.96875" xlink:href="#DejaVuSans-31"/>
      <use x="506.591796875" xlink:href="#DejaVuSans-30"/>
     </g>
    </g>
    <g id="line2d_51">
     <path d="
M481.255 99.761
L501.415 99.761" style="fill:none;stroke:#00bfbf;stroke-linecap:square;"/>
    </g>
    <g id="line2d_52"/>
    <g id="text_21">
     <!-- locality#11 -->
     <g transform="translate(517.255 104.801)scale(0.144 -0.144)">
      <use xlink:href="#DejaVuSans-6c"/>
      <use x="27.783203125" xlink:href="#DejaVuSans-6f"/>
      <use x="88.96484375" xlink:href="#DejaVuSans-63"/>
      <use x="143.9453125" xlink:href="#DejaVuSans-61"/>
      <use x="205.224609375" xlink:href="#DejaVuSans-6c"/>
      <use x="233.0078125" xlink:href="#DejaVuSans-69"/>
      <use x="260.791015625" xlink:href="#DejaVuSans-74"/>
      <use x="300.0" xlink:href="#DejaVuSans-79"/>
      <use x="359.1796875" xlink:href="#DejaVuSans-23"/>
      <use x="442.96875" xlink:href="#DejaVuSans-31"/>
      <use x="506.591796875" xlink:href="#DejaVuSans-31"/>
     </g>
    </g>
    <g id="line2d_53">
     <path d="
M481.255 120.897
L501.415 120.897" style="fill:none;stroke:#bf00bf;stroke-linecap:square;"/>
    </g>
    <g id="line2d_54"/>
    <g id="text_22">
     <!-- locality#12 -->
     <g transform="translate(517.255 125.9375)scale(0.144 -0.144)">
      <use xlink:href="#DejaVuSans-6c"/>
      <use x="27.783203125" xlink:href="#DejaVuSans-6f"/>
      <use x="88.96484375" xlink:href="#DejaVuSans-63"/>
      <use x="143.9453125" xlink:href="#DejaVuSans-61"/>
      <use x="205.224609375" xlink:href="#DejaVuSans-6c"/>
      <use x="233.0078125" xlink:href="#DejaVuSans-69"/>
      <use x="260.791015625" xlink:href="#DejaVuSans-74"/>
      <use x="300.0" xlink:href="#DejaVuSans-79"/>
      <use x="359.1796875" xlink:href="#DejaVuSans-23"/>
      <use x="442.96875" xlink:href="#DejaVuSans-31"/>
      <use x="506.591796875" xlink:href="#DejaVuSans-32"/>
     </g>
    </g>
    <g id="line2d_55">
     <path d="
M481.255 142.034
L501.415 142.034" style="fill:none;stroke:#bfbf00;stroke-linecap:square;"/>
    </g>
    <g id="line2d_56"/>
    <g id="text_23">
     <!-- locality#13 -->
     <g transform="translate(517.255 147.074)scale(0.144 -0.144)">
      <use xlink:href="#DejaVuSans-6c"/>
      <use x="27.783203125" xlink:href="#DejaVuSans-6f"/>
      <use x="88.96484375" xlink:href="#DejaVuSans-63"/>
      <use x="143.9453125" xlink:href="#DejaVuSans-61"/>
      <use x="205.224609375" xlink:href="#DejaVuSans-6c"/>
      <use x="233.0078125" xlink:href="#DejaVuSans-69"/>
      <use x="260.791015625" xlink:href="#DejaVuSans-74"/>
      <use x="300.0" xlink:href="#DejaVuSans-79"/>
      <use x="359.1796875" xlink:href="#DejaVuSans-23"/>
      <use x="442.96875" xlink:href="#DejaVuSans-31"/>
      <use x="506.591796875" xlink:href="#DejaVuSans-33"/>
     </g>
    </g>
    <g id="line2d_57">
     <path d="
M481.255 163.17
L501.415 163.17" style="fill:none;stroke:#000000;stroke-linecap:square;"/>
    </g>
    <g id="line2d_58"/>
    <g id="text_24">
     <!-- locality#14 -->
     <g transform="translate(517.255 168.2105)scale(0.144 -0.144)">
      <use xlink:href="#DejaVuSans-6c"/>
      <use x="27.783203125" xlink:href="#DejaVuSans-6f"/>
      <use x="88.96484375" xlink:href="#DejaVuSans-63"/>
      <use x="143.9453125" xlink:href="#DejaVuSans-61"/>
      <use x="205.224609375" xlink:href="#DejaVuSans-6c"/>
      <use x="233.0078125" xlink:href="#DejaVuSans-69"/>
      <use x="260.791015625" xlink:href="#DejaVuSans-74"/>
      <use x="300.0" xlink:href="#DejaVuSans-79"/>
      <use x="359.1796875" xlink:href="#DejaVuSans-23"/>
      <use x="442.96875" xlink:href="#DejaVuSans-31"/>
      <use x="506.591796875" xlink:href="#DejaVuSans-34"/>
     </g>
    </g>
    <g id="line2d_59">
     <path d="
M481.255 184.307
L501.415 184.307" style="fill:none;stroke:#0000ff;stroke-linecap:square;"/>
    </g>
    <g id="line2d_60"/>
    <g id="text_25">
     <!-- locality#15 -->
     <g transform="translate(517.255 189.347)scale(0.144 -0.144)">
      <use xlink:href="#DejaVuSans-6c"/>
      <use x="27.783203125" xlink:href="#DejaVuSans-6f"/>
      <use x="88.96484375" xlink:href="#DejaVuSans-63"/>
      <use x="143.9453125" xlink:href="#DejaVuSans-61"/>
      <use x="205.224609375" xlink:href="#DejaVuSans-6c"/>
      <use x="233.0078125" xlink:href="#DejaVuSans-69"/>
      <use x="260.791015625" xlink:href="#DejaVuSans-74"/>
      <use x="300.0" xlink:href="#DejaVuSans-79"/>
      <use x="359.1796875" xlink:href="#DejaVuSans-23"/>
      <use x="442.96875" xlink:href="#DejaVuSans-31"/>
      <use x="506.591796875" xlink:href="#DejaVuSans-35"/>
     </g>
    </g>
    <g id="line2d_61">
     <path d="
M481.255 205.443
L501.415 205.443" style="fill:none;stroke:#008000;stroke-linecap:square;"/>
    </g>
    <g id="line2d_62"/>
    <g id="text_26">
     <!-- locality#2 -->
     <g transform="translate(517.255 210.4835)scale(0.144 -0.144)">
      <use xlink:href="#DejaVuSans-6c"/>
      <use x="27.783203125" xlink:href="#DejaVuSans-6f"/>
      <use x="88.96484375" xlink:href="#DejaVuSans-63"/>
      <use x="143.9453125" xlink:href="#DejaVuSans-61"/>
      <use x="205.224609375" xlink:href="#DejaVuSans-6c"/>
      <use x="233.0078125" xlink:href="#DejaVuSans-69"/>
      <use x="260.791015625" xlink:href="#DejaVuSans-74"/>
      <use x="300.0" xlink:href="#DejaVuSans-79"/>
      <use x="359.1796875" xlink:href="#DejaVuSans-23"/>
      <use x="442.96875" xlink:href="#DejaVuSans-32"/>
     </g>
    </g>
    <g id="line2d_63">
     <path d="
M481.255 226.58
L501.415 226.58" style="fill:none;stroke:#ff0000;stroke-linecap:square;"/>
    </g>
    <g id="line2d_64"/>
    <g id="text_27">
     <!-- locality#3 -->
     <g transform="translate(517.255 231.62)scale(0.144 -0.144)">
      <use xlink:href="#DejaVuSans-6c"/>
      <use x="27.783203125" xlink:href="#DejaVuSans-6f"/>
      <use x="88.96484375" xlink:href="#DejaVuSans-63"/>
      <use x="143.9453125" xlink:href="#DejaVuSans-61"/>
      <use x="205.224609375" xlink:href="#DejaVuSans-6c"/>
      <use x="233.0078125" xlink:href="#DejaVuSans-69"/>
      <use x="260.791015625" xlink:href="#DejaVuSans-74"/>
      <use x="300.0" xlink:href="#DejaVuSans-79"/>
      <use x="359.1796875" xlink:href="#DejaVuSans-23"/>
      <use x="442.96875" xlink:href="#DejaVuSans-33"/>
     </g>
    </g>
    <g id="line2d_65">
     <path d="
M481.255 247.716
L501.415 247.716" style="fill:none;stroke:#00bfbf;stroke-linecap:square;"/>
    </g>
    <g id="line2d_66"/>
    <g id="text_28">
     <!-- locality#4 -->
     <g transform="translate(517.255 252.7565)scale(0.144 -0.144)">
      <use xlink:href="#DejaVuSans-6c"/>
      <use x="27.783203125" xlink:href="#DejaVuSans-6f"/>
      <use x="88.96484375" xlink:href="#DejaVuSans-63"/>
      <use x="143.9453125" xlink:href="#DejaVuSans-61"/>
      <use x="205.224609375" xlink:href="#DejaVuSans-6c"/>
      <use x="233.0078125" xlink:href="#DejaVuSans-69"/>
      <use x="260.791015625" xlink:href="#DejaVuSans-74"/>
      <use x="300.0" xlink:href="#DejaVuSans-79"/>
      <use x="359.1796875" xlink:href="#DejaVuSans-23"/>
      <use x="442.96875" xlink:href="#DejaVuSans-34"/>
     </g>
    </g>
    <g id="line2d_67">
     <path d="
M481.255 268.853
L501.415 268.853" style="fill:none;stroke:#bf00bf;stroke-linecap:square;"/>
    </g>
    <g id="line2d_68"/>
    <g id="text_29">
     <!-- locality#5 -->
     <g transform="translate(517.255 273.893)scale(0.144 -0.144)">
      <use xlink:href="#DejaVuSans-6c"/>
      <use x="27.783203125" xlink:href="#DejaVuSans-6f"/>
      <use x="88.96484375" xlink:href="#DejaVuSans-63"/>
      <use x="143.9453125" xlink:href="#DejaVuSans-61"/>
      <use x="205.224609375" xlink:href="#DejaVuSans-6c"/>
      <use x="233.0078125" xlink:href="#DejaVuSans-69"/>
      <use x="260.791015625" xlink:href="#DejaVuSans-74"/>
      <use x="300.0" xlink:href="#DejaVuSans-79"/>
      <use x="359.1796875" xlink:href="#DejaVuSans-23"/>
      <use x="442.96875" xlink:href="#DejaVuSans-35"/>
     </g>
    </g>
    <g id="line2d_69">
     <path d="
M481.255 289.989
L501.415 289.989" style="fill:none;stroke:#bfbf00;stroke-linecap:square;"/>
    </g>
    <g id="line2d_70"/>
    <g id="text_30">
     <!-- locality#6 -->
     <g transform="translate(517.255 295.0295)scale(0.144 -0.144)">
      <use xlink:href="#DejaVuSans-6c"/>
      <use x="27.783203125" xlink:href="#DejaVuSans-6f"/>
      <use x="88.96484375" xlink:href="#DejaVuSans-63"/>
      <use x="143.9453125" xlink:href="#DejaVuSans-61"/>
      <use x="205.224609375" xlink:href="#DejaVuSans-6c"/>
      <use x="233.0078125" xlink:href="#DejaVuSans-69"/>
      <use x="260.791015625" xlink:href="#DejaVuSans-74"/>
      <use x="300.0" xlink:href="#DejaVuSans-79"/>
      <use x="359.1796875" xlink:href="#DejaVuSans-23"/>
      <use x="442.96875" xlink:href="#DejaVuSans-36"/>
     </g>
    </g>
    <g id="line2d_71">
     <path d="
M481.255 311.126
L501.415 311.126" style="fill:none;stroke:#000000;stroke-linecap:square;"/>
    </g>
    <g id="line2d_72"/>
    <g id="text_31">
     <!-- locality#7 -->
     <g transform="translate(517.255 316.166)scale(0.144 -0.144)">
      <use xlink:href="#DejaVuSans-6c"/>
      <use x="27.783203125" xlink:href="#DejaVuSans-6f"/>
      <use x="88.96484375" xlink:href="#DejaVuSans-63"/>
      <use x="143.9453125" xlink:href="#DejaVuSans-61"/>
      <use x="205.224609375" xlink:href="#DejaVuSans-6c"/>
      <use x="233.0078125" xlink:href="#DejaVuSans-69"/>
      <use x="260.791015625" xlink:href="#DejaVuSans-74"/>
      <use x="300.0" xlink:href="#DejaVuSans-79"/>
      <use x="359.1796875" xlink:href="#DejaVuSans-23"/>
      <use x="442.96875" xlink:href="#DejaVuSans-37"/>
     </g>
    </g>
    <g id="line2d_73">
     <path d="
M481.255 332.262
L501.415 332.262" style="fill:none;stroke:#0000ff;stroke-linecap:square;"/>
    </g>
    <g id="line2d_74"/>
    <g id="text_32">
     <!-- locality#8 -->
     <g transform="translate(517.255 337.3025)scale(0.144 -0.144)">
      <use xlink:href="#DejaVuSans-6c"/>
      <use x="27.783203125" xlink:href="#DejaVuSans-6f"/>
      <use x="88.96484375" xlink:href="#DejaVuSans-63"/>
      <use x="143.9453125" xlink:href="#DejaVuSans-61"/>
      <use x="205.224609375" xlink:href="#DejaVuSans-6c"/>
      <use x="233.0078125" xlink:href="#DejaVuSans-69"/>
      <use x="260.791015625" xlink:href="#DejaVuSans-74"/>
      <use x="300.0" xlink:href="#DejaVuSans-79"/>
      <use x="359.1796875" xlink:href="#DejaVuSans-23"/>
      <use x="442.96875" xlink:href="#DejaVuSans-38"/>
     </g>
    </g>
    <g id="line2d_75">
     <path d="
M481.255 353.399
L501.415 353.399" style="fill:none;stroke:#008000;stroke-linecap:square;"/>
    </g>
    <g id="line2d_76"/>
    <g id="text_33">
     <!-- locality#9 -->
     <defs>
      <path d="
M10.9844 1.51562
L10.9844 10.5
Q14.7031 8.73438 18.5 7.8125
Q22.3125 6.89062 25.9844 6.89062
Q35.75 6.89062 40.8906 13.4531
Q46.0469 20.0156 46.7812 33.4062
Q43.9531 29.2031 39.5938 26.9531
Q35.25 24.7031 29.9844 24.7031
Q19.0469 24.7031 12.6719 31.3125
Q6.29688 37.9375 6.29688 49.4219
Q6.29688 60.6406 12.9375 67.4219
Q19.5781 74.2188 30.6094 74.2188
Q43.2656 74.2188 49.9219 64.5156
Q56.5938 54.8281 56.5938 36.375
Q56.5938 19.1406 48.4062 8.85938
Q40.2344 -1.42188 26.4219 -1.42188
Q22.7031 -1.42188 18.8906 -0.6875
Q15.0938 0.046875 10.9844 1.51562
M30.6094 32.4219
Q37.25 32.4219 41.125 36.9531
Q45.0156 41.5 45.0156 49.4219
Q45.0156 57.2812 41.125 61.8438
Q37.25 66.4062 30.6094 66.4062
Q23.9688 66.4062 20.0938 61.8438
Q16.2188 57.2812 16.2188 49.4219
Q16.2188 41.5 20.0938 36.9531
Q23.9688 32.4219 30.6094 32.4219" id="DejaVuSans-39"/>
     </defs>
     <g transform="translate(517.255 358.439)scale(0.144 -0.144)">
      <use xlink:href="#DejaVuSans-6c"/>
      <use x="27.783203125" xlink:href="#DejaVuSans-6f"/>
      <use x="88.96484375" xlink:href="#DejaVuSans-63"/>
      <use x="143.9453125" xlink:href="#DejaVuSans-61"/>
      <use x="205.224609375" xlink:href="#DejaVuSans-6c"/>
      <use x="233.0078125" xlink:href="#DejaVuSans-69"/>
      <use x="260.791015625" xlink:href="#DejaVuSans-74"/>
      <use x="300.0" xlink:href="#DejaVuSans-79"/>
      <use x="359.1796875" xlink:href="#DejaVuSans-23"/>
      <use x="442.96875" xlink:href="#DejaVuSans-39"/>
     </g>
    </g>
   </g>
  </g>
 </g>
 <defs>
  <clipPath id="pf51f381abf">
   <rect height="345.6" width="446.4" x="17.575" y="23.14175"/>
  </clipPath>
 </defs>
</svg>
