<?xml version="1.0" encoding="utf-8" standalone="no"?>
<!DOCTYPE svg PUBLIC "-//W3C//DTD SVG 1.1//EN"
  "http://www.w3.org/Graphics/SVG/1.1/DTD/svg11.dtd">
<!-- Created with matplotlib (http://matplotlib.org/) -->
<svg height="408pt" version="1.1" viewBox="0 0 621 408" width="621pt" xmlns="http://www.w3.org/2000/svg" xmlns:xlink="http://www.w3.org/1999/xlink">
 <defs>
  <style type="text/css">
*{stroke-linecap:butt;stroke-linejoin:round;}
  </style>
 </defs>
 <g id="figure_1">
  <g id="patch_1">
   <path d="
M0 408.169
L621.285 408.169
L621.285 0
L0 0
z
" style="fill:#ffffff;"/>
  </g>
  <g id="axes_1">
   <g id="patch_2">
    <path d="
M28.6956 368.742
L475.096 368.742
L475.096 23.1417
L28.6956 23.1417
z
" style="fill:#ffffff;"/>
   </g>
   <g id="line2d_1">
    <path clip-path="url(#p2118423672)" d="
M28.6956 368.742
L475.096 368.742
L475.096 368.742" style="fill:none;stroke:#0000ff;stroke-linecap:square;"/>
   </g>
   <g id="line2d_2">
    <path clip-path="url(#p2118423672)" d="
M28.6956 368.742
L37.8543 368.742
L38.1935 276.166
L38.5327 276.015
L48.3698 276.015
L48.709 275.847
L49.0482 275.102
L58.8853 275.102
L59.2245 274.939
L59.5637 274.151
L69.4008 274.151
L69.74 273.985
L70.0792 273.187
L79.9163 273.187
L80.2555 273.028
L80.5947 272.277
L90.4318 272.277
L90.771 271.998
L91.1102 271.336
L100.947 271.336
L101.287 271.176
L101.626 270.409
L111.463 270.409
L111.802 270.247
L112.141 269.478
L121.978 269.478
L122.318 269.312
L122.657 268.547
L132.494 268.547
L132.833 268.378
L133.172 267.608
L143.009 267.608
L143.349 267.439
L143.688 266.697
L153.525 266.697
L153.864 266.526
L154.203 265.782
L164.04 265.782
L164.38 265.623
L164.719 264.855
L174.556 264.855
L174.895 264.689
L175.234 263.922
L185.071 263.922
L185.411 263.759
L185.75 263.013
L195.587 263.013
L195.926 258.173
L196.265 256.099
L206.102 256.099
L206.442 255.934
L206.781 255.207
L216.618 255.207
L216.957 255.041
L217.296 254.318
L227.133 254.318
L227.473 254.149
L227.812 253.401
L237.649 253.401
L237.988 253.239
L238.327 251.452
L248.164 251.452
L248.504 251.287
L248.843 250.563
L258.68 250.563
L259.019 250.394
L259.358 249.655
L269.195 249.655
L269.535 249.488
L269.874 248.744
L279.711 248.744
L280.05 248.574
L280.389 247.821
L290.226 247.821
L290.566 247.652
L290.905 246.897
L300.742 246.897
L301.081 246.735
L301.42 246.01
L311.257 246.01
L311.597 245.842
L311.936 245.1
L321.773 245.1
L322.112 244.932
L322.451 244.193
L332.288 244.193
L332.628 244.027
L332.967 243.281
L342.804 243.281
L343.143 243.113
L343.482 242.136
L353.319 242.136
L353.659 241.968
L353.998 241.225
L363.835 241.225
L364.174 241.058
L364.513 240.306
L374.35 240.306
L374.69 240.136
L375.029 239.396
L384.866 239.396
L385.205 239.227
L385.544 238.483
L395.381 238.483
L395.721 238.307
L396.06 237.557
L405.897 237.557
L406.236 237.386
L406.575 236.634
L416.412 236.634
L416.752 236.461
L417.091 235.706
L426.928 235.706
L427.267 235.538
L427.606 234.781
L437.443 234.781
L437.783 234.613
L438.122 233.874
L447.959 233.874
L448.298 233.704
L448.637 232.957
L458.474 232.957
L458.814 232.785
L459.153 232.027
L468.99 232.027
L469.329 231.854
L469.668 231.1
L475.096 231.1
L475.096 231.1" style="fill:none;stroke:#008000;stroke-linecap:square;"/>
   </g>
   <g id="line2d_3">
    <path clip-path="url(#p2118423672)" d="
M28.6956 368.742
L37.8543 368.742
L38.1935 332.875
L40.9072 332.859
L48.3698 332.859
L48.709 332.696
L49.0482 331.925
L58.8853 331.925
L59.5637 330.886
L69.4008 330.886
L69.74 330.709
L70.0792 329.957
L79.9163 329.957
L80.2555 329.783
L80.5947 329.03
L90.4318 329.03
L91.1102 328.034
L100.947 328.034
L101.287 327.869
L101.626 327.036
L111.463 327.036
L111.802 326.866
L112.141 326.103
L121.978 326.103
L122.657 325.069
L132.494 325.069
L132.833 324.904
L133.172 324.067
L143.009 324.067
L143.349 323.845
L143.688 323.014
L153.525 323.014
L153.864 322.771
L154.203 321.933
L164.04 321.933
L164.38 321.516
L164.719 320.854
L174.556 320.854
L174.895 320.634
L175.234 319.786
L185.071 319.786
L185.411 319.455
L185.75 318.678
L195.587 318.678
L196.265 317.661
L206.102 317.661
L206.442 317.412
L206.781 314.273
L216.618 314.273
L216.957 313.84
L217.296 313.206
L227.133 313.206
L227.473 312.941
L227.812 312.171
L237.649 312.171
L237.988 311.762
L238.327 311.143
L248.164 311.143
L248.504 310.901
L248.843 309.939
L258.68 309.939
L259.019 309.556
L259.358 308.929
L269.195 308.929
L269.535 308.671
L269.874 306.022
L279.711 306.022
L280.05 305.687
L280.389 304.949
L290.226 304.949
L290.566 304.634
L290.905 298.386
L300.742 298.386
L301.081 298.029
L301.42 282.551
L311.257 282.551
L311.936 275.137
L321.773 275.137
L322.112 274.915
L322.451 271.301
L332.288 271.301
L332.628 271.028
L332.967 270.283
L342.804 270.283
L343.143 270.061
L343.482 267.493
L353.319 267.493
L353.659 267.259
L353.998 266.45
L363.835 266.45
L364.174 266.217
L364.513 257.209
L374.35 257.209
L375.029 251.591
L384.866 251.591
L385.205 251.166
L385.544 250.397
L395.381 250.397
L396.06 249.287
L405.897 249.287
L406.236 247.862
L406.575 241.871
L416.412 241.871
L416.752 241.583
L417.091 240.774
L426.928 240.774
L427.267 240.53
L427.606 239.665
L437.443 239.665
L437.783 237.952
L438.122 237.11
L447.959 237.11
L448.298 236.757
L448.637 233.859
L458.474 233.859
L458.814 233.459
L459.153 232.731
L468.99 232.731
L469.329 232.295
L469.668 230.42
L475.096 230.42
L475.096 230.42" style="fill:none;stroke:#ff0000;stroke-linecap:square;"/>
   </g>
   <g id="line2d_4">
    <path clip-path="url(#p2118423672)" d="
M28.6956 368.742
L37.8543 368.742
L38.1935 222.781
L41.5856 222.77
L48.3698 222.77
L48.709 222.607
L49.0482 221.859
L58.8853 221.859
L59.2245 221.691
L59.5637 220.931
L69.4008 220.931
L69.74 220.771
L70.0792 220.021
L79.9163 220.021
L80.2555 219.864
L80.5947 219.055
L90.4318 219.055
L91.1102 218.041
L100.947 218.041
L101.287 217.869
L101.626 217.087
L111.463 217.087
L111.802 216.923
L112.141 216.083
L121.978 216.083
L122.318 215.794
L122.657 215.103
L132.494 215.103
L132.833 214.944
L133.172 214.12
L143.009 214.12
L143.349 213.942
L143.688 213.127
L153.525 213.127
L153.864 212.925
L154.203 212.066
L164.04 212.066
L164.38 211.842
L164.719 211.025
L174.556 211.025
L174.895 210.868
L175.234 210.101
L185.071 210.101
L185.411 209.918
L185.75 209.064
L195.587 209.064
L195.926 208.648
L196.265 208.037
L206.102 208.037
L206.442 207.806
L206.781 207.003
L216.618 207.003
L216.957 206.645
L217.296 205.784
L227.133 205.784
L227.473 205.628
L227.812 204.82
L237.649 204.82
L237.988 204.525
L238.327 203.788
L248.164 203.788
L248.504 203.621
L248.843 202.812
L258.68 202.812
L259.019 194.261
L259.358 177.017
L269.195 177.017
L269.535 176.846
L269.874 176.065
L279.711 176.065
L280.05 175.841
L280.389 175.032
L290.226 175.032
L290.566 173.66
L290.905 169.87
L300.742 169.87
L301.081 169.64
L301.42 161.087
L311.257 161.087
L311.597 160.829
L311.936 159.797
L321.773 159.797
L322.112 159.602
L322.451 155.206
L332.288 155.206
L332.628 151.637
L332.967 150.27
L342.804 150.27
L343.143 147.301
L343.482 141.059
L353.319 141.059
L353.659 140.815
L353.998 139.86
L363.835 139.86
L364.174 139.65
L364.513 131.676
L374.35 131.676
L374.69 131.386
L375.029 113.627
L384.866 113.627
L385.205 113.4
L385.544 112.016
L395.381 112.016
L395.721 109.908
L396.06 101.712
L405.897 101.712
L406.236 101.511
L406.575 97.031
L416.412 97.031
L416.752 96.8386
L417.091 95.6429
L426.928 95.6429
L427.267 95.4171
L427.606 94.727
L437.443 94.727
L437.783 94.5001
L438.122 93.6799
L447.959 93.6799
L448.298 93.3838
L448.637 91.9104
L458.474 91.9104
L458.814 91.7169
L459.153 82.972
L468.99 82.972
L469.329 82.6921
L469.668 78.7569
L475.096 78.7569
L475.096 78.7569" style="fill:none;stroke:#00bfbf;stroke-linecap:square;"/>
   </g>
   <g id="line2d_5">
    <path clip-path="url(#p2118423672)" d="
M28.6956 368.742
L37.8543 368.742
L38.1935 333.344
L38.5327 332.772
L48.3698 332.772
L49.0482 331.753
L58.8853 331.753
L59.2245 331.153
L59.5637 330.797
L65.3303 330.79
L69.4008 330.79
L69.74 330.391
L70.0792 329.79
L79.9163 329.79
L80.2555 329.405
L80.5947 328.795
L90.4318 328.795
L90.771 307.764
L91.1102 307.239
L100.947 307.239
L101.287 306.77
L101.626 306.095
L111.463 306.095
L112.141 305.089
L121.978 305.089
L122.318 304.181
L122.657 303.935
L132.494 303.935
L132.833 303.713
L133.172 302.882
L143.009 302.882
L143.688 301.587
L146.741 301.575
L153.525 301.575
L154.203 300.227
L164.04 300.227
L164.38 299.747
L164.719 299.038
L174.556 299.038
L174.895 298.728
L175.234 297.869
L185.071 297.869
L185.411 297.513
L185.75 296.735
L195.587 296.735
L196.265 295.547
L206.102 295.547
L206.442 295.129
L206.781 294.295
L216.618 294.295
L217.296 293.127
L227.133 293.127
L227.473 292.951
L227.812 292.122
L237.649 292.122
L237.988 291.855
L238.327 291.149
L248.164 291.149
L248.504 290.979
L248.843 290.183
L258.68 290.183
L259.019 289.962
L259.358 284.757
L269.195 284.757
L269.535 284.586
L269.874 283.766
L279.711 283.766
L280.05 283.561
L280.389 282.695
L290.226 282.695
L290.566 282.516
L290.905 281.682
L300.742 281.682
L301.081 281.48
L301.42 269.951
L311.257 269.951
L311.597 269.376
L311.936 268.55
L321.773 268.55
L322.112 268.371
L322.451 265.558
L332.288 265.558
L332.628 265.359
L332.967 264.544
L342.804 264.544
L343.143 264.277
L343.482 259.257
L353.319 259.257
L353.659 259.069
L353.998 258.189
L363.835 258.189
L364.513 252.645
L374.35 252.645
L374.69 252.238
L375.029 251.512
L384.866 251.512
L385.205 251.332
L385.544 250.601
L395.381 250.601
L395.721 250.279
L396.06 249.562
L405.897 249.562
L406.236 249.388
L406.575 245.231
L416.412 245.231
L416.752 245.054
L417.091 242.071
L426.928 242.071
L427.267 241.813
L427.606 241.033
L437.443 241.033
L438.122 235.315
L447.959 235.315
L448.298 233.667
L448.637 232.886
L458.474 232.886
L458.814 232.653
L459.153 228.891
L468.99 228.891
L469.329 228.727
L469.668 225.804
L475.096 225.804
L475.096 225.804" style="fill:none;stroke:#bf00bf;stroke-linecap:square;"/>
   </g>
   <g id="line2d_6">
    <path clip-path="url(#p2118423672)" d="
M28.6956 368.742
L37.8543 368.742
L38.1935 198.626
L42.9424 198.618
L48.3698 198.618
L48.709 198.458
L49.0482 197.709
L58.8853 197.709
L59.2245 197.551
L59.5637 196.765
L69.4008 196.765
L69.74 196.609
L70.0792 195.825
L79.9163 195.825
L80.2555 195.661
L80.5947 194.897
L90.4318 194.897
L90.771 194.512
L91.1102 193.887
L100.947 193.887
L101.287 193.72
L101.626 192.874
L111.463 192.874
L111.802 192.714
L112.141 191.856
L121.978 191.856
L122.318 191.575
L122.657 190.934
L132.494 190.934
L132.833 190.77
L133.172 189.98
L143.009 189.98
L143.349 189.817
L143.688 188.997
L153.525 188.997
L153.864 188.837
L154.203 187.996
L164.04 187.996
L164.38 187.833
L164.719 187.06
L174.556 187.06
L174.895 186.896
L175.234 186.132
L185.071 186.132
L185.411 185.97
L185.75 185.201
L195.587 185.201
L195.926 184.885
L196.265 184.241
L206.102 184.241
L206.442 184.07
L206.781 176.88
L216.618 176.88
L216.957 176.647
L217.296 175.914
L227.133 175.914
L227.473 175.752
L227.812 174.945
L237.649 174.945
L237.988 174.725
L238.327 174
L248.164 174
L248.504 173.834
L248.843 172.982
L258.68 172.982
L259.019 172.806
L259.358 169.42
L269.195 169.42
L269.535 169.244
L269.874 166.61
L279.711 166.61
L280.05 149.969
L280.389 145.673
L290.226 145.673
L290.566 145.459
L290.905 140.804
L301.081 140.703
L301.42 139.773
L311.257 139.773
L311.597 131.614
L311.936 130.789
L321.773 130.789
L322.112 130.595
L322.451 129.843
L332.288 129.843
L332.628 129.687
L332.967 128.886
L342.804 128.886
L343.143 127.586
L343.482 123.957
L353.319 123.957
L353.659 123.765
L353.998 116.64
L363.835 116.64
L364.174 115.022
L364.513 110.886
L374.35 110.886
L374.69 110.698
L375.029 106.555
L384.866 106.555
L385.205 106.373
L385.544 103.425
L395.381 103.425
L395.721 103.187
L396.06 102.375
L405.897 102.375
L406.236 102.216
L406.575 101.458
L416.412 101.458
L416.752 101.28
L417.091 97.7003
L426.928 97.7003
L427.267 97.5103
L427.606 92.5774
L437.443 92.5774
L437.783 86.8669
L438.122 86.1147
L447.959 86.1147
L448.298 85.9315
L448.637 84.2473
L458.474 84.2473
L458.814 84.0457
L459.153 76.1188
L468.99 76.1188
L469.329 75.9874
L469.668 70.7286
L475.096 70.7286
L475.096 70.7286" style="fill:none;stroke:#bfbf00;stroke-linecap:square;"/>
   </g>
   <g id="line2d_7">
    <path clip-path="url(#p2118423672)" d="
M28.6956 368.742
L37.8543 368.742
L38.1935 166.714
L44.9777 166.709
L48.3698 166.709
L48.709 166.548
L49.0482 165.756
L58.8853 165.756
L59.2245 165.591
L59.5637 164.825
L69.4008 164.825
L69.74 164.664
L70.0792 163.84
L79.9163 163.84
L80.2555 163.673
L80.5947 162.822
L90.4318 162.822
L90.771 162.445
L91.1102 161.745
L100.947 161.745
L101.287 161.581
L101.626 160.765
L111.463 160.765
L111.802 160.6
L112.141 159.8
L121.978 159.8
L122.318 159.436
L122.657 158.823
L132.494 158.823
L132.833 158.663
L133.172 157.782
L143.009 157.782
L143.349 157.616
L143.688 156.828
L153.525 156.828
L153.864 156.664
L154.203 155.772
L164.04 155.772
L164.38 155.603
L164.719 154.81
L174.556 154.81
L174.895 154.639
L175.234 153.826
L185.071 153.826
L185.411 153.666
L185.75 152.856
L195.587 152.856
L195.926 152.534
L196.265 151.843
L206.102 151.843
L206.442 151.678
L206.781 150.874
L216.618 150.874
L216.957 150.591
L217.296 149.853
L227.133 149.853
L227.473 149.694
L227.812 148.94
L237.649 148.94
L237.988 148.742
L238.327 146.219
L248.164 146.219
L248.504 146.056
L248.843 145.278
L258.68 145.278
L259.019 145.105
L259.358 137.628
L269.195 137.628
L269.535 137.464
L269.874 136.682
L279.711 136.682
L280.05 136.508
L280.389 133.081
L290.226 133.081
L290.566 132.896
L290.905 132.078
L300.742 132.078
L301.081 131.902
L301.42 127.779
L311.257 127.779
L311.936 120.425
L321.773 120.425
L322.112 120.253
L322.451 119.486
L332.288 119.486
L332.628 119.3
L332.967 118.505
L342.804 118.505
L343.143 118.247
L343.482 111.605
L353.319 111.605
L353.998 109.932
L363.835 109.932
L364.174 108.273
L364.513 107.536
L374.35 107.536
L374.69 107.368
L375.029 106.621
L384.866 106.621
L385.205 106.412
L385.544 105.664
L395.381 105.664
L395.721 105.358
L396.06 104.705
L405.897 104.705
L406.236 104.457
L406.575 102.116
L416.412 102.116
L416.752 101.948
L417.091 100.728
L426.928 100.728
L427.267 100.55
L427.606 96.6347
L437.443 96.6347
L437.783 96.4516
L438.122 95.6671
L447.959 95.6671
L448.298 95.4966
L448.637 94.7339
L458.474 94.7339
L458.814 94.5404
L459.153 93.7605
L468.99 93.7605
L469.329 93.567
L469.668 92.8205
L475.096 92.8205
L475.096 92.8205" style="fill:none;stroke:#000000;stroke-linecap:square;"/>
   </g>
   <g id="line2d_8">
    <path clip-path="url(#p2118423672)" d="
M28.6956 368.742
L37.8543 368.742
L38.1935 312.085
L38.5327 311.937
L48.3698 311.937
L48.709 311.775
L49.0482 311.014
L58.8853 311.014
L59.2245 310.851
L59.5637 310.09
L69.4008 310.09
L69.74 309.934
L70.0792 309.148
L79.9163 309.148
L80.2555 308.989
L80.5947 308.153
L90.4318 308.153
L90.771 307.781
L91.1102 307.175
L100.947 307.175
L101.287 307.016
L101.626 306.211
L111.463 306.211
L111.802 306.052
L112.141 305.275
L121.978 305.275
L122.318 305.11
L122.657 304.367
L132.494 304.367
L132.833 304.214
L133.172 303.396
L143.009 303.396
L143.349 303.239
L143.688 302.433
L153.525 302.433
L153.864 302.269
L154.203 301.523
L164.04 301.523
L164.38 301.363
L164.719 300.614
L174.556 300.614
L174.895 300.455
L175.234 299.692
L185.071 299.692
L185.411 299.528
L185.75 298.813
L195.587 298.813
L195.926 298.553
L196.265 297.904
L206.102 297.904
L206.442 297.738
L206.781 296.983
L216.618 296.983
L216.957 296.815
L217.296 296.095
L227.133 296.095
L227.473 295.93
L227.812 295.14
L237.649 295.14
L237.988 292.422
L238.327 291.696
L248.164 291.696
L248.504 291.533
L248.843 290.719
L258.68 290.719
L259.019 290.558
L259.358 289.809
L269.195 289.809
L269.535 289.637
L269.874 288.884
L279.711 288.884
L280.05 288.709
L280.389 286.102
L290.226 286.102
L290.566 285.232
L290.905 282.671
L300.742 282.671
L301.081 282.497
L301.42 281.74
L311.257 281.74
L311.597 281.567
L311.936 279.573
L321.773 279.573
L322.112 279.406
L322.451 278.651
L332.288 278.651
L332.628 276.388
L332.967 275.618
L342.804 275.618
L343.143 273.292
L343.482 272.518
L353.319 272.518
L353.659 272.346
L353.998 271.573
L363.835 271.573
L364.174 271.405
L364.513 270.653
L374.35 270.653
L374.69 270.473
L375.029 266.967
L384.866 266.967
L385.205 266.788
L385.544 263.983
L395.381 263.983
L395.721 263.811
L396.06 260.849
L405.897 260.849
L406.236 258.059
L406.575 257.28
L416.412 257.28
L416.752 257.118
L417.091 256.356
L426.928 256.356
L427.267 256.192
L427.606 254.811
L437.443 254.811
L437.783 254.648
L438.122 253.845
L447.959 253.845
L448.298 249.155
L448.637 246.884
L458.474 246.884
L458.814 246.701
L459.153 245.929
L468.99 245.929
L469.329 245.717
L469.668 244.903
L475.096 244.903
L475.096 244.903" style="fill:none;stroke:#0000ff;stroke-linecap:square;"/>
   </g>
   <g id="line2d_9">
    <path clip-path="url(#p2118423672)" d="
M28.6956 368.742
L37.8543 368.742
L38.1935 330.95
L38.5327 330.787
L48.3698 330.787
L48.709 330.625
L49.0482 329.86
L58.8853 329.86
L59.2245 329.698
L59.5637 328.962
L69.4008 328.962
L69.74 328.796
L70.0792 328.02
L79.9163 328.02
L80.2555 327.851
L80.5947 327.053
L90.4318 327.053
L90.771 326.736
L91.1102 326.111
L100.947 326.111
L101.287 325.946
L101.626 325.179
L111.463 325.179
L111.802 325.018
L112.141 324.202
L121.978 324.202
L122.318 324.029
L122.657 323.303
L132.494 323.303
L132.833 323.136
L133.172 322.349
L143.009 322.349
L143.349 322.18
L143.688 321.432
L153.525 321.432
L153.864 321.269
L154.203 320.494
L164.04 320.494
L164.38 320.322
L164.719 319.561
L174.556 319.561
L174.895 319.399
L175.234 318.67
L185.071 318.67
L185.411 318.504
L185.75 317.766
L195.587 317.766
L195.926 317.521
L196.265 316.841
L206.102 316.841
L206.442 316.68
L206.781 315.946
L216.618 315.946
L216.957 315.762
L217.296 315.02
L227.133 315.02
L227.473 314.85
L227.812 314.107
L237.649 314.107
L237.988 313.947
L238.327 313.206
L248.164 313.206
L248.504 313.031
L248.843 312.305
L258.68 312.305
L259.019 312.145
L259.358 311.419
L269.195 311.419
L269.535 311.25
L269.874 310.513
L279.711 310.513
L280.05 310.346
L280.389 309.6
L290.226 309.6
L290.566 309.431
L290.905 308.693
L300.742 308.693
L301.081 308.519
L301.42 307.761
L311.257 307.761
L311.597 307.592
L311.936 306.842
L321.773 306.842
L322.112 306.671
L322.451 305.924
L332.288 305.924
L332.628 305.758
L332.967 305.024
L342.804 305.024
L343.143 304.844
L343.482 304.103
L353.319 304.103
L353.659 303.939
L353.998 303.186
L363.835 303.186
L364.174 303.014
L364.513 302.268
L374.35 302.268
L374.69 302.103
L375.029 301.367
L384.866 301.367
L385.205 301.191
L385.544 300.447
L395.381 300.447
L395.721 300.278
L396.06 299.529
L405.897 299.529
L406.236 299.361
L406.575 298.613
L416.412 298.613
L416.752 298.445
L417.091 297.693
L426.928 297.693
L427.267 297.522
L427.606 296.763
L437.443 296.763
L437.783 296.596
L438.122 294.42
L447.959 294.42
L448.298 294.247
L448.637 293.496
L458.474 293.496
L458.814 293.319
L459.153 292.547
L468.99 292.547
L469.329 292.378
L469.668 291.624
L475.096 291.624
L475.096 291.624" style="fill:none;stroke:#008000;stroke-linecap:square;"/>
   </g>
   <g id="line2d_10">
    <path clip-path="url(#p2118423672)" d="
M28.6956 368.742
L37.8543 368.742
L38.1935 350.875
L38.5327 350.678
L48.3698 350.678
L48.709 350.517
L49.0482 349.756
L58.8853 349.756
L59.2245 349.599
L59.5637 348.823
L69.4008 348.823
L69.74 348.659
L70.0792 347.827
L79.9163 347.827
L80.2555 347.658
L80.5947 346.851
L90.4318 346.851
L90.771 346.484
L91.1102 345.934
L100.947 345.934
L101.287 345.775
L101.626 345.03
L111.463 345.03
L111.802 344.874
L112.141 344.116
L121.978 344.116
L122.318 343.96
L122.657 343.211
L132.494 343.211
L132.833 343.044
L133.172 342.303
L143.009 342.303
L143.349 342.137
L143.688 341.351
L153.525 341.351
L153.864 341.191
L154.203 337.326
L164.04 337.326
L164.38 337.171
L164.719 336.44
L174.556 336.44
L174.895 336.289
L175.234 335.55
L185.071 335.55
L185.411 335.391
L185.75 334.619
L195.587 334.619
L195.926 334.385
L196.265 333.719
L206.102 333.719
L206.442 333.561
L206.781 332.829
L216.618 332.829
L216.957 330.35
L217.296 329.636
L227.133 329.636
L227.473 329.475
L227.812 328.742
L237.649 328.742
L237.988 328.581
L238.327 327.855
L248.164 327.855
L248.504 327.695
L248.843 326.969
L258.68 326.969
L259.019 326.807
L259.358 326.084
L269.195 326.084
L269.535 325.922
L269.874 325.209
L279.711 325.209
L280.05 325.046
L280.389 324.314
L290.226 324.314
L290.566 324.148
L290.905 323.421
L300.742 323.421
L301.081 323.255
L301.42 322.526
L311.257 322.526
L311.597 320.356
L311.936 319.627
L321.773 319.627
L322.112 319.454
L322.451 318.716
L332.288 318.716
L332.628 318.553
L332.967 317.816
L342.804 317.816
L343.143 317.658
L343.482 316.916
L353.319 316.916
L353.659 316.755
L353.998 316.013
L363.835 316.013
L364.174 315.846
L364.513 315.109
L374.35 315.109
L374.69 314.943
L375.029 314.21
L384.866 314.21
L385.205 314.05
L385.544 313.306
L395.381 313.306
L395.721 313.141
L396.06 312.411
L405.897 312.411
L406.236 312.247
L406.575 311.526
L416.412 311.526
L416.752 311.357
L417.091 310.635
L426.928 310.635
L427.267 310.472
L427.606 309.734
L437.443 309.734
L437.783 309.568
L438.122 308.815
L447.959 308.815
L448.298 308.649
L448.637 307.898
L458.474 307.898
L458.814 307.74
L459.153 306.997
L468.99 306.997
L469.329 306.829
L469.668 306.098
L475.096 306.098
L475.096 306.098" style="fill:none;stroke:#ff0000;stroke-linecap:square;"/>
   </g>
   <g id="line2d_11">
    <path clip-path="url(#p2118423672)" d="
M28.6956 368.742
L37.8543 368.742
L38.1935 215.52
L38.8719 215.459
L48.3698 215.459
L48.709 215.303
L49.0482 214.552
L58.8853 214.552
L59.2245 214.4
L59.5637 213.638
L69.4008 213.638
L69.74 213.475
L70.0792 212.69
L79.9163 212.69
L80.2555 212.535
L80.5947 211.716
L90.4318 211.716
L90.771 211.347
L91.1102 210.752
L100.947 210.752
L101.287 210.594
L101.626 209.74
L111.463 209.74
L111.802 209.58
L112.141 208.76
L121.978 208.76
L122.318 208.611
L122.657 207.88
L132.494 207.88
L132.833 207.717
L133.172 206.964
L143.009 206.964
L143.349 206.803
L143.688 206.063
L153.525 206.063
L153.864 205.908
L154.203 205.178
L164.04 205.178
L164.38 205.023
L164.719 204.289
L174.556 204.289
L174.895 204.135
L175.234 203.355
L185.071 203.355
L185.411 203.19
L185.75 202.441
L195.587 202.441
L195.926 202.188
L196.265 201.475
L206.102 201.475
L206.442 201.311
L206.781 200.6
L216.618 200.6
L216.957 200.436
L217.296 199.738
L227.133 199.738
L227.473 199.576
L227.812 198.863
L237.649 198.863
L237.988 198.698
L238.327 195.76
L248.164 195.76
L248.504 195.6
L248.843 194.789
L258.68 194.789
L259.019 194.628
L259.358 193.471
L269.195 193.471
L269.535 193.314
L269.874 192.602
L279.711 192.602
L280.05 192.447
L280.389 191.72
L290.226 191.72
L290.566 191.558
L290.905 190.825
L300.742 190.825
L301.081 190.656
L301.42 189.931
L311.257 189.931
L311.936 188.41
L321.773 188.41
L322.112 188.252
L322.451 187.521
L332.288 187.521
L332.628 187.356
L332.967 186.644
L342.804 186.644
L343.143 186.485
L343.482 185.743
L353.319 185.743
L353.659 185.582
L353.998 184.823
L363.835 184.823
L364.174 184.658
L364.513 183.939
L374.35 183.939
L374.69 183.773
L375.029 183.049
L384.866 183.049
L385.205 182.883
L385.544 182.162
L395.381 182.162
L395.721 181.996
L396.06 181.261
L405.897 181.261
L406.236 181.097
L406.575 180.368
L416.412 180.368
L416.752 180.202
L417.091 179.454
L426.928 179.454
L427.267 179.287
L427.606 178.555
L437.443 178.555
L437.783 178.391
L438.122 177.663
L447.959 177.663
L448.298 177.504
L448.637 176.762
L458.474 176.762
L458.814 176.593
L459.153 175.838
L468.99 175.838
L469.329 175.675
L469.668 172.554
L475.096 172.554
L475.096 172.554" style="fill:none;stroke:#00bfbf;stroke-linecap:square;"/>
   </g>
   <g id="line2d_12">
    <path clip-path="url(#p2118423672)" d="
M28.6956 368.742
L37.8543 368.742
L38.1935 289.528
L38.5327 289.364
L48.3698 289.364
L48.709 289.209
L49.0482 288.499
L58.8853 288.499
L59.2245 288.346
L59.5637 287.563
L69.4008 287.563
L69.74 287.404
L70.0792 286.662
L79.9163 286.662
L80.2555 286.503
L80.5947 285.72
L90.4318 285.72
L91.1102 284.699
L100.947 284.699
L101.287 284.541
L101.626 283.761
L111.463 283.761
L111.802 283.603
L112.141 282.822
L121.978 282.822
L122.318 282.657
L122.657 281.939
L132.494 281.939
L132.833 281.78
L133.172 280.986
L143.009 280.986
L143.349 280.825
L143.688 280.068
L153.525 280.068
L153.864 279.91
L154.203 279.152
L164.04 279.152
L164.38 278.987
L164.719 278.267
L174.556 278.267
L174.895 278.108
L175.234 277.347
L185.071 277.347
L185.411 277.183
L185.75 276.454
L195.587 276.454
L195.926 276.206
L196.265 275.569
L206.102 275.569
L206.442 275.412
L206.781 274.707
L216.618 274.707
L216.957 274.54
L217.296 273.827
L227.133 273.827
L227.473 273.659
L227.812 272.951
L237.649 272.951
L237.988 272.786
L238.327 272.065
L248.164 272.065
L248.504 271.91
L248.843 271.176
L258.68 271.176
L259.019 271.008
L259.358 270.296
L269.195 270.296
L269.535 270.132
L269.874 269.409
L279.711 269.409
L280.05 269.249
L280.389 268.522
L290.226 268.522
L290.566 268.359
L290.905 267.592
L300.742 267.592
L301.081 266.046
L301.42 261.687
L311.257 261.687
L311.597 261.512
L311.936 258.646
L321.773 258.646
L322.112 258.479
L322.451 257.756
L332.288 257.756
L332.628 257.584
L332.967 256.839
L342.804 256.839
L343.143 256.669
L343.482 255.919
L353.319 255.919
L353.659 255.754
L353.998 255.017
L363.835 255.017
L364.174 254.853
L364.513 254.129
L374.35 254.129
L374.69 253.954
L375.029 253.216
L384.866 253.216
L385.205 253.046
L385.544 252.299
L395.381 252.299
L395.721 252.125
L396.06 251.408
L405.897 251.408
L406.236 251.24
L406.575 250.498
L416.412 250.498
L416.752 250.332
L417.091 249.583
L426.928 249.583
L427.267 249.421
L427.606 248.681
L437.443 248.681
L437.783 248.513
L438.122 247.724
L447.959 247.724
L448.298 247.55
L448.637 246.822
L458.474 246.822
L458.814 246.655
L459.153 245.917
L468.99 245.917
L469.329 245.747
L469.668 244.988
L475.096 244.988
L475.096 244.988" style="fill:none;stroke:#bf00bf;stroke-linecap:square;"/>
   </g>
   <g id="line2d_13">
    <path clip-path="url(#p2118423672)" d="
M28.6956 368.742
L37.8543 368.742
L38.1935 279.363
L44.6385 279.357
L48.3698 279.357
L48.709 279.2
L49.0482 278.464
L58.8853 278.464
L59.2245 278.31
L59.5637 277.592
L69.4008 277.592
L69.74 277.437
L70.0792 276.572
L79.9163 276.572
L80.2555 276.415
L80.5947 275.607
L90.4318 275.607
L91.1102 274.628
L100.947 274.628
L101.287 274.469
L101.626 273.678
L111.463 273.678
L111.802 273.522
L112.141 272.755
L121.978 272.755
L122.318 272.586
L122.657 271.889
L132.494 271.889
L132.833 271.733
L133.172 270.961
L143.009 270.961
L143.349 270.806
L143.688 270.046
L153.525 270.046
L153.864 269.887
L154.203 269.099
L164.04 269.099
L164.38 268.937
L164.719 268.194
L174.556 268.194
L174.895 268.041
L175.234 267.26
L185.071 267.26
L185.411 265.068
L185.75 264.319
L195.587 264.319
L195.926 264.066
L196.265 263.407
L206.102 263.407
L206.442 263.235
L206.781 262.507
L216.618 262.507
L216.957 253.804
L217.296 252.196
L227.133 252.196
L227.473 252.036
L227.812 251.28
L237.649 251.28
L237.988 242.794
L238.327 239.59
L248.164 239.59
L248.504 239.425
L248.843 236.589
L258.68 236.589
L259.019 236.42
L259.358 232.648
L269.195 232.648
L269.535 232.485
L269.874 217.848
L279.711 217.848
L280.389 213.669
L290.226 213.669
L290.566 213.484
L290.905 212.769
L300.742 212.769
L301.081 212.558
L301.42 206.533
L311.257 206.533
L311.936 202.65
L321.773 202.65
L322.112 202.47
L322.451 201.716
L332.288 201.716
L332.628 201.553
L332.967 199.311
L342.804 199.311
L343.143 199.129
L343.482 198.323
L353.319 198.323
L353.659 198.158
L353.998 196.34
L363.835 196.34
L364.174 196.177
L364.513 195.391
L374.35 195.391
L374.69 195.2
L375.029 194.445
L384.866 194.445
L385.205 194.273
L385.544 193.529
L395.381 193.529
L395.721 193.341
L396.06 188.378
L405.897 188.378
L406.236 186.532
L406.575 185.767
L416.412 185.767
L416.752 185.601
L417.091 184.774
L426.928 184.774
L427.267 184.613
L427.606 180.328
L437.443 180.328
L437.783 180.159
L438.122 179.383
L447.959 179.383
L448.298 179.18
L448.637 178.394
L458.474 178.394
L458.814 178.218
L459.153 173.261
L468.99 173.261
L469.329 173.088
L469.668 172.344
L475.096 172.344
L475.096 172.344" style="fill:none;stroke:#bfbf00;stroke-linecap:square;"/>
   </g>
   <g id="line2d_14">
    <path clip-path="url(#p2118423672)" d="
M28.6956 368.742
L37.8543 368.742
L38.1935 207.198
L43.9601 207.191
L48.3698 207.191
L48.709 207.036
L49.0482 206.276
L58.8853 206.276
L59.2245 206.119
L59.5637 205.369
L69.4008 205.369
L69.74 205.205
L70.0792 204.425
L79.9163 204.425
L80.2555 204.268
L80.5947 203.439
L90.4318 203.439
L91.1102 202.431
L100.947 202.431
L101.287 202.271
L101.626 201.466
L111.463 201.466
L111.802 201.31
L112.141 200.379
L121.978 200.379
L122.318 199.988
L122.657 199.38
L132.494 199.38
L132.833 199.226
L133.172 198.322
L143.009 198.322
L143.349 198.161
L143.688 197.354
L153.525 197.354
L153.864 197.196
L154.203 196.45
L164.04 196.45
L164.38 196.261
L164.719 195.443
L174.556 195.443
L174.895 195.282
L175.234 194.537
L185.071 194.537
L185.411 194.377
L185.75 192.247
L195.587 192.247
L195.926 191.927
L196.265 191.31
L206.102 191.31
L206.442 191.149
L206.781 190.406
L216.618 190.406
L216.957 190.196
L217.296 189.434
L227.133 189.434
L227.473 189.273
L227.812 186.202
L237.649 186.202
L237.988 185.963
L238.327 185.167
L248.164 185.167
L248.504 185.004
L248.843 177.89
L258.68 177.89
L259.019 177.694
L259.358 172.095
L269.195 172.095
L269.535 171.929
L269.874 161.714
L279.711 161.714
L280.05 161.51
L280.389 160.732
L290.226 160.732
L290.566 158.693
L290.905 153.987
L300.742 153.987
L301.081 140.493
L301.42 139.721
L311.257 139.721
L311.597 139.538
L311.936 138.759
L321.773 138.759
L322.112 138.576
L322.451 136.125
L332.288 136.125
L332.628 135.906
L332.967 135.158
L342.804 135.158
L343.143 134.981
L343.482 134.176
L353.319 134.176
L353.659 133.979
L353.998 132.016
L363.835 132.016
L364.174 131.857
L364.513 129.943
L374.35 129.943
L374.69 129.726
L375.029 128.667
L384.866 128.667
L385.205 128.499
L385.544 126.424
L395.381 126.424
L395.721 126.166
L396.06 125.43
L405.897 125.43
L406.236 123.426
L406.575 122.653
L416.412 122.653
L416.752 122.482
L417.091 119.19
L426.928 119.19
L427.267 118.093
L427.606 113.218
L437.443 113.218
L437.783 113.044
L438.122 112.263
L447.959 112.263
L448.298 107.98
L448.637 107.123
L458.474 107.123
L458.814 106.962
L459.153 106.133
L468.99 106.133
L469.329 105.931
L469.668 102.754
L475.096 102.754
L475.096 102.754" style="fill:none;stroke:#000000;stroke-linecap:square;"/>
   </g>
   <g id="line2d_15">
    <path clip-path="url(#p2118423672)" d="
M28.6956 368.742
L37.8543 368.742
L38.1935 366.684
L47.6914 366.68
L48.3698 366.68
L48.709 366.367
L49.0482 365.684
L58.8853 365.684
L59.2245 365.454
L59.5637 364.691
L69.4008 364.691
L69.74 364.507
L70.0792 363.736
L79.9163 363.736
L80.2555 363.537
L80.5947 362.744
L90.4318 362.744
L90.771 362.282
L91.1102 356.445
L100.947 356.445
L101.287 356.14
L101.626 355.343
L111.463 355.343
L111.802 355.111
L112.141 354.35
L121.978 354.35
L122.657 353.315
L132.494 353.315
L132.833 353.138
L133.172 352.246
L143.009 352.246
L143.349 351.962
L143.688 351.105
L153.525 351.105
L153.864 350.741
L154.203 349.865
L164.04 349.865
L164.38 349.636
L164.719 348.845
L174.556 348.845
L174.895 348.661
L175.234 347.855
L185.071 347.855
L185.411 347.653
L185.75 346.844
L195.587 346.844
L195.926 346.441
L196.265 345.829
L206.102 345.829
L206.442 345.649
L206.781 344.811
L216.618 344.811
L216.957 344.408
L217.296 343.741
L227.133 343.741
L227.473 343.584
L227.812 342.703
L237.649 342.703
L237.988 342.449
L238.327 341.741
L248.164 341.741
L248.504 341.581
L248.843 340.754
L258.68 340.754
L259.019 340.52
L259.358 333.864
L269.195 333.864
L269.535 333.676
L269.874 332.833
L279.711 332.833
L280.05 332.568
L280.389 316.668
L290.226 316.668
L290.566 316.372
L290.905 312.056
L300.742 312.056
L301.081 311.624
L301.42 310.988
L311.257 310.988
L311.597 310.583
L311.936 305.096
L321.773 305.096
L322.112 304.833
L322.451 300.938
L332.288 300.938
L332.628 298.853
L332.967 298.176
L342.804 298.176
L343.143 297.87
L343.482 297.023
L353.319 297.023
L353.659 296.806
L353.998 288.941
L363.835 288.941
L364.174 288.609
L364.513 287.822
L374.35 287.822
L374.69 287.503
L375.029 284.838
L384.866 284.838
L385.205 284.64
L385.544 282.936
L395.381 282.936
L395.721 282.611
L396.06 274.793
L405.897 274.793
L406.236 274.561
L406.575 268.406
L416.412 268.406
L416.752 266.445
L417.091 259.941
L426.928 259.941
L427.606 250.585
L437.443 250.585
L437.783 250.365
L438.122 249.542
L447.959 249.542
L448.298 249.324
L448.637 244.217
L458.474 244.217
L458.814 244.044
L459.153 243.075
L468.99 243.075
L469.329 242.78
L469.668 242.011
L475.096 242.011
L475.096 242.011" style="fill:none;stroke:#0000ff;stroke-linecap:square;"/>
   </g>
   <g id="line2d_16">
    <path clip-path="url(#p2118423672)" d="
M28.6956 368.742
L37.8543 368.742
L38.1935 367.411
L43.9601 367.405
L48.3698 367.405
L49.0482 366.456
L58.8853 366.456
L59.2245 366.07
L59.5637 365.483
L69.4008 365.483
L69.74 365.165
L70.0792 364.494
L79.9163 364.494
L80.5947 363.428
L90.4318 363.428
L91.1102 362.439
L100.947 362.439
L101.287 362.094
L101.626 361.379
L111.463 361.379
L111.802 361.133
L112.141 360.332
L121.978 360.332
L122.318 345.469
L122.657 345.113
L132.494 345.113
L132.833 344.854
L133.172 343.999
L143.009 343.999
L143.349 343.63
L143.688 343.004
L153.525 343.004
L153.864 342.573
L154.203 341.887
L164.04 341.887
L164.719 340.78
L174.556 340.78
L174.895 337.469
L175.234 336.523
L185.071 336.523
L185.411 336.117
L185.75 335.377
L195.587 335.377
L196.265 334.327
L206.102 334.327
L206.442 334.061
L206.781 333.138
L216.618 333.138
L217.296 332.032
L227.133 332.032
L227.473 331.853
L227.812 331.012
L237.649 331.012
L238.327 329.176
L248.164 329.176
L248.504 328.996
L248.843 328.113
L258.68 328.113
L259.019 327.833
L259.358 321.081
L269.195 321.081
L269.535 320.884
L269.874 319.976
L279.711 319.976
L280.05 319.561
L280.389 318.87
L290.226 318.87
L290.566 318.534
L290.905 317.847
L300.742 317.847
L301.081 317.465
L301.42 307.337
L311.257 307.337
L311.597 299.475
L311.936 287.659
L321.773 287.659
L322.112 287.462
L322.451 280.263
L332.288 280.263
L332.628 279.997
L332.967 274.703
L342.804 274.703
L343.143 274.507
L343.482 270.556
L353.319 270.556
L353.659 270.37
L353.998 269.544
L363.835 269.544
L364.174 269.342
L364.513 264.871
L374.35 264.871
L374.69 264.652
L375.029 259.261
L384.866 259.261
L385.205 259.099
L385.544 257.715
L395.381 257.715
L395.721 257.399
L396.06 251.336
L405.897 251.336
L406.236 248.65
L406.575 238.431
L416.412 238.431
L416.752 238.249
L417.091 229.198
L426.928 229.198
L427.267 229.012
L427.606 212.213
L437.443 212.213
L437.783 211.927
L438.122 208.115
L447.959 208.115
L448.298 205.613
L448.637 204.689
L458.474 204.689
L458.814 202.013
L459.153 191.29
L468.99 191.29
L469.329 190.927
L469.668 185.748
L475.096 185.748
L475.096 185.748" style="fill:none;stroke:#008000;stroke-linecap:square;"/>
   </g>
   <g id="patch_3">
    <path d="
M28.6956 368.742
L28.6956 23.1417" style="fill:none;stroke:#000000;stroke-linecap:square;stroke-linejoin:miter;"/>
   </g>
   <g id="patch_4">
    <path d="
M475.096 368.742
L475.096 23.1417" style="fill:none;stroke:#000000;stroke-linecap:square;stroke-linejoin:miter;"/>
   </g>
   <g id="patch_5">
    <path d="
M28.6956 23.1417
L475.096 23.1417" style="fill:none;stroke:#000000;stroke-linecap:square;stroke-linejoin:miter;"/>
   </g>
   <g id="patch_6">
    <path d="
M28.6956 368.742
L475.096 368.742" style="fill:none;stroke:#000000;stroke-linecap:square;stroke-linejoin:miter;"/>
   </g>
   <g id="matplotlib.axis_1">
    <g id="xtick_1">
     <g id="line2d_17">
      <defs>
       <path d="
M0 0
L0 -4" id="mc7db9fdffb" style="stroke:#000000;stroke-width:0.5;"/>
      </defs>
      <g>
       <use style="stroke:#000000;stroke-width:0.5;" x="28.695625" xlink:href="#mc7db9fdffb" y="368.74175"/>
      </g>
     </g>
     <g id="line2d_18">
      <defs>
       <path d="
M0 0
L0 4" id="m5a7d422ac3" style="stroke:#000000;stroke-width:0.5;"/>
      </defs>
      <g>
       <use style="stroke:#000000;stroke-width:0.5;" x="28.695625" xlink:href="#m5a7d422ac3" y="23.14175"/>
      </g>
     </g>
     <g id="text_1">
      <!-- 0 -->
      <defs>
       <path d="
M31.7812 66.4062
Q24.1719 66.4062 20.3281 58.9062
Q16.5 51.4219 16.5 36.375
Q16.5 21.3906 20.3281 13.8906
Q24.1719 6.39062 31.7812 6.39062
Q39.4531 6.39062 43.2812 13.8906
Q47.125 21.3906 47.125 36.375
Q47.125 51.4219 43.2812 58.9062
Q39.4531 66.4062 31.7812 66.4062
M31.7812 74.2188
Q44.0469 74.2188 50.5156 64.5156
Q56.9844 54.8281 56.9844 36.375
Q56.9844 17.9688 50.5156 8.26562
Q44.0469 -1.42188 31.7812 -1.42188
Q19.5312 -1.42188 13.0625 8.26562
Q6.59375 17.9688 6.59375 36.375
Q6.59375 54.8281 13.0625 64.5156
Q19.5312 74.2188 31.7812 74.2188" id="DejaVuSans-30"/>
      </defs>
      <g transform="translate(25.6721875 381.859875)scale(0.12 -0.12)">
       <use xlink:href="#DejaVuSans-30"/>
      </g>
     </g>
    </g>
    <g id="xtick_2">
     <g id="line2d_19">
      <g>
       <use style="stroke:#000000;stroke-width:0.5;" x="96.5375702888" xlink:href="#mc7db9fdffb" y="368.74175"/>
      </g>
     </g>
     <g id="line2d_20">
      <g>
       <use style="stroke:#000000;stroke-width:0.5;" x="96.5375702888" xlink:href="#m5a7d422ac3" y="23.14175"/>
      </g>
     </g>
     <g id="text_2">
      <!-- 200 -->
      <defs>
       <path d="
M19.1875 8.29688
L53.6094 8.29688
L53.6094 0
L7.32812 0
L7.32812 8.29688
Q12.9375 14.1094 22.625 23.8906
Q32.3281 33.6875 34.8125 36.5312
Q39.5469 41.8438 41.4219 45.5312
Q43.3125 49.2188 43.3125 52.7812
Q43.3125 58.5938 39.2344 62.25
Q35.1562 65.9219 28.6094 65.9219
Q23.9688 65.9219 18.8125 64.3125
Q13.6719 62.7031 7.8125 59.4219
L7.8125 69.3906
Q13.7656 71.7812 18.9375 73
Q24.125 74.2188 28.4219 74.2188
Q39.75 74.2188 46.4844 68.5469
Q53.2188 62.8906 53.2188 53.4219
Q53.2188 48.9219 51.5312 44.8906
Q49.8594 40.875 45.4062 35.4062
Q44.1875 33.9844 37.6406 27.2188
Q31.1094 20.4531 19.1875 8.29688" id="DejaVuSans-32"/>
      </defs>
      <g transform="translate(85.9231952888 381.859875)scale(0.12 -0.12)">
       <use xlink:href="#DejaVuSans-32"/>
       <use x="63.623046875" xlink:href="#DejaVuSans-30"/>
       <use x="127.24609375" xlink:href="#DejaVuSans-30"/>
      </g>
     </g>
    </g>
    <g id="xtick_3">
     <g id="line2d_21">
      <g>
       <use style="stroke:#000000;stroke-width:0.5;" x="164.379515578" xlink:href="#mc7db9fdffb" y="368.74175"/>
      </g>
     </g>
     <g id="line2d_22">
      <g>
       <use style="stroke:#000000;stroke-width:0.5;" x="164.379515578" xlink:href="#m5a7d422ac3" y="23.14175"/>
      </g>
     </g>
     <g id="text_3">
      <!-- 400 -->
      <defs>
       <path d="
M37.7969 64.3125
L12.8906 25.3906
L37.7969 25.3906
z

M35.2031 72.9062
L47.6094 72.9062
L47.6094 25.3906
L58.0156 25.3906
L58.0156 17.1875
L47.6094 17.1875
L47.6094 0
L37.7969 0
L37.7969 17.1875
L4.89062 17.1875
L4.89062 26.7031
z
" id="DejaVuSans-34"/>
      </defs>
      <g transform="translate(153.618890578 381.859875)scale(0.12 -0.12)">
       <use xlink:href="#DejaVuSans-34"/>
       <use x="63.623046875" xlink:href="#DejaVuSans-30"/>
       <use x="127.24609375" xlink:href="#DejaVuSans-30"/>
      </g>
     </g>
    </g>
    <g id="xtick_4">
     <g id="line2d_23">
      <g>
       <use style="stroke:#000000;stroke-width:0.5;" x="232.221460866" xlink:href="#mc7db9fdffb" y="368.74175"/>
      </g>
     </g>
     <g id="line2d_24">
      <g>
       <use style="stroke:#000000;stroke-width:0.5;" x="232.221460866" xlink:href="#m5a7d422ac3" y="23.14175"/>
      </g>
     </g>
     <g id="text_4">
      <!-- 600 -->
      <defs>
       <path d="
M33.0156 40.375
Q26.375 40.375 22.4844 35.8281
Q18.6094 31.2969 18.6094 23.3906
Q18.6094 15.5312 22.4844 10.9531
Q26.375 6.39062 33.0156 6.39062
Q39.6562 6.39062 43.5312 10.9531
Q47.4062 15.5312 47.4062 23.3906
Q47.4062 31.2969 43.5312 35.8281
Q39.6562 40.375 33.0156 40.375
M52.5938 71.2969
L52.5938 62.3125
Q48.875 64.0625 45.0938 64.9844
Q41.3125 65.9219 37.5938 65.9219
Q27.8281 65.9219 22.6719 59.3281
Q17.5312 52.7344 16.7969 39.4062
Q19.6719 43.6562 24.0156 45.9219
Q28.375 48.1875 33.5938 48.1875
Q44.5781 48.1875 50.9531 41.5156
Q57.3281 34.8594 57.3281 23.3906
Q57.3281 12.1562 50.6875 5.35938
Q44.0469 -1.42188 33.0156 -1.42188
Q20.3594 -1.42188 13.6719 8.26562
Q6.98438 17.9688 6.98438 36.375
Q6.98438 53.6562 15.1875 63.9375
Q23.3906 74.2188 37.2031 74.2188
Q40.9219 74.2188 44.7031 73.4844
Q48.4844 72.75 52.5938 71.2969" id="DejaVuSans-36"/>
      </defs>
      <g transform="translate(221.586460866 381.859875)scale(0.12 -0.12)">
       <use xlink:href="#DejaVuSans-36"/>
       <use x="63.623046875" xlink:href="#DejaVuSans-30"/>
       <use x="127.24609375" xlink:href="#DejaVuSans-30"/>
      </g>
     </g>
    </g>
    <g id="xtick_5">
     <g id="line2d_25">
      <g>
       <use style="stroke:#000000;stroke-width:0.5;" x="300.063406155" xlink:href="#mc7db9fdffb" y="368.74175"/>
      </g>
     </g>
     <g id="line2d_26">
      <g>
       <use style="stroke:#000000;stroke-width:0.5;" x="300.063406155" xlink:href="#m5a7d422ac3" y="23.14175"/>
      </g>
     </g>
     <g id="text_5">
      <!-- 800 -->
      <defs>
       <path d="
M31.7812 34.625
Q24.75 34.625 20.7188 30.8594
Q16.7031 27.0938 16.7031 20.5156
Q16.7031 13.9219 20.7188 10.1562
Q24.75 6.39062 31.7812 6.39062
Q38.8125 6.39062 42.8594 10.1719
Q46.9219 13.9688 46.9219 20.5156
Q46.9219 27.0938 42.8906 30.8594
Q38.875 34.625 31.7812 34.625
M21.9219 38.8125
Q15.5781 40.375 12.0312 44.7188
Q8.5 49.0781 8.5 55.3281
Q8.5 64.0625 14.7188 69.1406
Q20.9531 74.2188 31.7812 74.2188
Q42.6719 74.2188 48.875 69.1406
Q55.0781 64.0625 55.0781 55.3281
Q55.0781 49.0781 51.5312 44.7188
Q48 40.375 41.7031 38.8125
Q48.8281 37.1562 52.7969 32.3125
Q56.7812 27.4844 56.7812 20.5156
Q56.7812 9.90625 50.3125 4.23438
Q43.8438 -1.42188 31.7812 -1.42188
Q19.7344 -1.42188 13.25 4.23438
Q6.78125 9.90625 6.78125 20.5156
Q6.78125 27.4844 10.7812 32.3125
Q14.7969 37.1562 21.9219 38.8125
M18.3125 54.3906
Q18.3125 48.7344 21.8438 45.5625
Q25.3906 42.3906 31.7812 42.3906
Q38.1406 42.3906 41.7188 45.5625
Q45.3125 48.7344 45.3125 54.3906
Q45.3125 60.0625 41.7188 63.2344
Q38.1406 66.4062 31.7812 66.4062
Q25.3906 66.4062 21.8438 63.2344
Q18.3125 60.0625 18.3125 54.3906" id="DejaVuSans-38"/>
      </defs>
      <g transform="translate(289.416218655 381.859875)scale(0.12 -0.12)">
       <use xlink:href="#DejaVuSans-38"/>
       <use x="63.623046875" xlink:href="#DejaVuSans-30"/>
       <use x="127.24609375" xlink:href="#DejaVuSans-30"/>
      </g>
     </g>
    </g>
    <g id="xtick_6">
     <g id="line2d_27">
      <g>
       <use style="stroke:#000000;stroke-width:0.5;" x="367.905351444" xlink:href="#mc7db9fdffb" y="368.74175"/>
      </g>
     </g>
     <g id="line2d_28">
      <g>
       <use style="stroke:#000000;stroke-width:0.5;" x="367.905351444" xlink:href="#m5a7d422ac3" y="23.14175"/>
      </g>
     </g>
     <g id="text_6">
      <!-- 1000 -->
      <defs>
       <path d="
M12.4062 8.29688
L28.5156 8.29688
L28.5156 63.9219
L10.9844 60.4062
L10.9844 69.3906
L28.4219 72.9062
L38.2812 72.9062
L38.2812 8.29688
L54.3906 8.29688
L54.3906 0
L12.4062 0
z
" id="DejaVuSans-31"/>
      </defs>
      <g transform="translate(353.692851444 381.859875)scale(0.12 -0.12)">
       <use xlink:href="#DejaVuSans-31"/>
       <use x="63.623046875" xlink:href="#DejaVuSans-30"/>
       <use x="127.24609375" xlink:href="#DejaVuSans-30"/>
       <use x="190.869140625" xlink:href="#DejaVuSans-30"/>
      </g>
     </g>
    </g>
    <g id="xtick_7">
     <g id="line2d_29">
      <g>
       <use style="stroke:#000000;stroke-width:0.5;" x="435.747296733" xlink:href="#mc7db9fdffb" y="368.74175"/>
      </g>
     </g>
     <g id="line2d_30">
      <g>
       <use style="stroke:#000000;stroke-width:0.5;" x="435.747296733" xlink:href="#m5a7d422ac3" y="23.14175"/>
      </g>
     </g>
     <g id="text_7">
      <!-- 1200 -->
      <g transform="translate(421.534796733 381.859875)scale(0.12 -0.12)">
       <use xlink:href="#DejaVuSans-31"/>
       <use x="63.623046875" xlink:href="#DejaVuSans-32"/>
       <use x="127.24609375" xlink:href="#DejaVuSans-30"/>
       <use x="190.869140625" xlink:href="#DejaVuSans-30"/>
      </g>
     </g>
    </g>
    <g id="text_8">
     <!-- time -->
     <defs>
      <path d="
M9.42188 54.6875
L18.4062 54.6875
L18.4062 0
L9.42188 0
z

M9.42188 75.9844
L18.4062 75.9844
L18.4062 64.5938
L9.42188 64.5938
z
" id="DejaVuSans-69"/>
      <path d="
M18.3125 70.2188
L18.3125 54.6875
L36.8125 54.6875
L36.8125 47.7031
L18.3125 47.7031
L18.3125 18.0156
Q18.3125 11.3281 20.1406 9.42188
Q21.9688 7.51562 27.5938 7.51562
L36.8125 7.51562
L36.8125 0
L27.5938 0
Q17.1875 0 13.2344 3.875
Q9.28125 7.76562 9.28125 18.0156
L9.28125 47.7031
L2.6875 47.7031
L2.6875 54.6875
L9.28125 54.6875
L9.28125 70.2188
z
" id="DejaVuSans-74"/>
      <path d="
M52 44.1875
Q55.375 50.25 60.0625 53.125
Q64.75 56 71.0938 56
Q79.6406 56 84.2812 50.0156
Q88.9219 44.0469 88.9219 33.0156
L88.9219 0
L79.8906 0
L79.8906 32.7188
Q79.8906 40.5781 77.0938 44.375
Q74.3125 48.1875 68.6094 48.1875
Q61.625 48.1875 57.5625 43.5469
Q53.5156 38.9219 53.5156 30.9062
L53.5156 0
L44.4844 0
L44.4844 32.7188
Q44.4844 40.625 41.7031 44.4062
Q38.9219 48.1875 33.1094 48.1875
Q26.2188 48.1875 22.1562 43.5312
Q18.1094 38.875 18.1094 30.9062
L18.1094 0
L9.07812 0
L9.07812 54.6875
L18.1094 54.6875
L18.1094 46.1875
Q21.1875 51.2188 25.4844 53.6094
Q29.7812 56 35.6875 56
Q41.6562 56 45.8281 52.9688
Q50 49.9531 52 44.1875" id="DejaVuSans-6d"/>
      <path d="
M56.2031 29.5938
L56.2031 25.2031
L14.8906 25.2031
Q15.4844 15.9219 20.4844 11.0625
Q25.4844 6.20312 34.4219 6.20312
Q39.5938 6.20312 44.4531 7.46875
Q49.3125 8.73438 54.1094 11.2812
L54.1094 2.78125
Q49.2656 0.734375 44.1875 -0.34375
Q39.1094 -1.42188 33.8906 -1.42188
Q20.7969 -1.42188 13.1562 6.1875
Q5.51562 13.8125 5.51562 26.8125
Q5.51562 40.2344 12.7656 48.1094
Q20.0156 56 32.3281 56
Q43.3594 56 49.7812 48.8906
Q56.2031 41.7969 56.2031 29.5938
M47.2188 32.2344
Q47.125 39.5938 43.0938 43.9844
Q39.0625 48.3906 32.4219 48.3906
Q24.9062 48.3906 20.3906 44.1406
Q15.875 39.8906 15.1875 32.1719
z
" id="DejaVuSans-65"/>
     </defs>
     <g transform="translate(238.82125 398.473625)scale(0.12 -0.12)">
      <use xlink:href="#DejaVuSans-74"/>
      <use x="39.208984375" xlink:href="#DejaVuSans-69"/>
      <use x="66.9921875" xlink:href="#DejaVuSans-6d"/>
      <use x="164.404296875" xlink:href="#DejaVuSans-65"/>
     </g>
    </g>
   </g>
   <g id="matplotlib.axis_2">
    <g id="ytick_1">
     <g id="line2d_31">
      <defs>
       <path d="
M0 0
L4 0" id="md7965d1ba0" style="stroke:#000000;stroke-width:0.5;"/>
      </defs>
      <g>
       <use style="stroke:#000000;stroke-width:0.5;" x="28.695625" xlink:href="#md7965d1ba0" y="368.74175"/>
      </g>
     </g>
     <g id="line2d_32">
      <defs>
       <path d="
M0 0
L-4 0" id="md9a1c1a7cd" style="stroke:#000000;stroke-width:0.5;"/>
      </defs>
      <g>
       <use style="stroke:#000000;stroke-width:0.5;" x="475.095625" xlink:href="#md9a1c1a7cd" y="368.74175"/>
      </g>
     </g>
     <g id="text_9">
      <!-- 0.0 -->
      <defs>
       <path d="
M10.6875 12.4062
L21 12.4062
L21 0
L10.6875 0
z
" id="DejaVuSans-2e"/>
      </defs>
      <g transform="translate(7.2 372.053)scale(0.12 -0.12)">
       <use xlink:href="#DejaVuSans-30"/>
       <use x="63.623046875" xlink:href="#DejaVuSans-2e"/>
       <use x="95.41015625" xlink:href="#DejaVuSans-30"/>
      </g>
     </g>
    </g>
    <g id="ytick_2">
     <g id="line2d_33">
      <g>
       <use style="stroke:#000000;stroke-width:0.5;" x="28.695625" xlink:href="#md7965d1ba0" y="311.14175"/>
      </g>
     </g>
     <g id="line2d_34">
      <g>
       <use style="stroke:#000000;stroke-width:0.5;" x="475.095625" xlink:href="#md9a1c1a7cd" y="311.14175"/>
      </g>
     </g>
     <g id="text_10">
      <!-- 0.5 -->
      <defs>
       <path d="
M10.7969 72.9062
L49.5156 72.9062
L49.5156 64.5938
L19.8281 64.5938
L19.8281 46.7344
Q21.9688 47.4688 24.1094 47.8281
Q26.2656 48.1875 28.4219 48.1875
Q40.625 48.1875 47.75 41.5
Q54.8906 34.8125 54.8906 23.3906
Q54.8906 11.625 47.5625 5.09375
Q40.2344 -1.42188 26.9062 -1.42188
Q22.3125 -1.42188 17.5469 -0.640625
Q12.7969 0.140625 7.71875 1.70312
L7.71875 11.625
Q12.1094 9.23438 16.7969 8.0625
Q21.4844 6.89062 26.7031 6.89062
Q35.1562 6.89062 40.0781 11.3281
Q45.0156 15.7656 45.0156 23.3906
Q45.0156 31 40.0781 35.4375
Q35.1562 39.8906 26.7031 39.8906
Q22.75 39.8906 18.8125 39.0156
Q14.8906 38.1406 10.7969 36.2812
z
" id="DejaVuSans-35"/>
      </defs>
      <g transform="translate(7.45125 314.453)scale(0.12 -0.12)">
       <use xlink:href="#DejaVuSans-30"/>
       <use x="63.623046875" xlink:href="#DejaVuSans-2e"/>
       <use x="95.41015625" xlink:href="#DejaVuSans-35"/>
      </g>
     </g>
    </g>
    <g id="ytick_3">
     <g id="line2d_35">
      <g>
       <use style="stroke:#000000;stroke-width:0.5;" x="28.695625" xlink:href="#md7965d1ba0" y="253.54175"/>
      </g>
     </g>
     <g id="line2d_36">
      <g>
       <use style="stroke:#000000;stroke-width:0.5;" x="475.095625" xlink:href="#md9a1c1a7cd" y="253.54175"/>
      </g>
     </g>
     <g id="text_11">
      <!-- 1.0 -->
      <g transform="translate(7.726875 256.853)scale(0.12 -0.12)">
       <use xlink:href="#DejaVuSans-31"/>
       <use x="63.623046875" xlink:href="#DejaVuSans-2e"/>
       <use x="95.41015625" xlink:href="#DejaVuSans-30"/>
      </g>
     </g>
    </g>
    <g id="ytick_4">
     <g id="line2d_37">
      <g>
       <use style="stroke:#000000;stroke-width:0.5;" x="28.695625" xlink:href="#md7965d1ba0" y="195.94175"/>
      </g>
     </g>
     <g id="line2d_38">
      <g>
       <use style="stroke:#000000;stroke-width:0.5;" x="475.095625" xlink:href="#md9a1c1a7cd" y="195.94175"/>
      </g>
     </g>
     <g id="text_12">
      <!-- 1.5 -->
      <g transform="translate(7.978125 199.253)scale(0.12 -0.12)">
       <use xlink:href="#DejaVuSans-31"/>
       <use x="63.623046875" xlink:href="#DejaVuSans-2e"/>
       <use x="95.41015625" xlink:href="#DejaVuSans-35"/>
      </g>
     </g>
    </g>
    <g id="ytick_5">
     <g id="line2d_39">
      <g>
       <use style="stroke:#000000;stroke-width:0.5;" x="28.695625" xlink:href="#md7965d1ba0" y="138.34175"/>
      </g>
     </g>
     <g id="line2d_40">
      <g>
       <use style="stroke:#000000;stroke-width:0.5;" x="475.095625" xlink:href="#md9a1c1a7cd" y="138.34175"/>
      </g>
     </g>
     <g id="text_13">
      <!-- 2.0 -->
      <g transform="translate(7.288125 141.653)scale(0.12 -0.12)">
       <use xlink:href="#DejaVuSans-32"/>
       <use x="63.623046875" xlink:href="#DejaVuSans-2e"/>
       <use x="95.41015625" xlink:href="#DejaVuSans-30"/>
      </g>
     </g>
    </g>
    <g id="ytick_6">
     <g id="line2d_41">
      <g>
       <use style="stroke:#000000;stroke-width:0.5;" x="28.695625" xlink:href="#md7965d1ba0" y="80.74175"/>
      </g>
     </g>
     <g id="line2d_42">
      <g>
       <use style="stroke:#000000;stroke-width:0.5;" x="475.095625" xlink:href="#md9a1c1a7cd" y="80.74175"/>
      </g>
     </g>
     <g id="text_14">
      <!-- 2.5 -->
      <g transform="translate(7.539375 84.053)scale(0.12 -0.12)">
       <use xlink:href="#DejaVuSans-32"/>
       <use x="63.623046875" xlink:href="#DejaVuSans-2e"/>
       <use x="95.41015625" xlink:href="#DejaVuSans-35"/>
      </g>
     </g>
    </g>
    <g id="ytick_7">
     <g id="line2d_43">
      <g>
       <use style="stroke:#000000;stroke-width:0.5;" x="28.695625" xlink:href="#md7965d1ba0" y="23.14175"/>
      </g>
     </g>
     <g id="line2d_44">
      <g>
       <use style="stroke:#000000;stroke-width:0.5;" x="475.095625" xlink:href="#md9a1c1a7cd" y="23.14175"/>
      </g>
     </g>
     <g id="text_15">
      <!-- 3.0 -->
      <defs>
       <path d="
M40.5781 39.3125
Q47.6562 37.7969 51.625 33
Q55.6094 28.2188 55.6094 21.1875
Q55.6094 10.4062 48.1875 4.48438
Q40.7656 -1.42188 27.0938 -1.42188
Q22.5156 -1.42188 17.6562 -0.515625
Q12.7969 0.390625 7.625 2.20312
L7.625 11.7188
Q11.7188 9.32812 16.5938 8.10938
Q21.4844 6.89062 26.8125 6.89062
Q36.0781 6.89062 40.9375 10.5469
Q45.7969 14.2031 45.7969 21.1875
Q45.7969 27.6406 41.2812 31.2656
Q36.7656 34.9062 28.7188 34.9062
L20.2188 34.9062
L20.2188 43.0156
L29.1094 43.0156
Q36.375 43.0156 40.2344 45.9219
Q44.0938 48.8281 44.0938 54.2969
Q44.0938 59.9062 40.1094 62.9062
Q36.1406 65.9219 28.7188 65.9219
Q24.6562 65.9219 20.0156 65.0312
Q15.375 64.1562 9.8125 62.3125
L9.8125 71.0938
Q15.4375 72.6562 20.3438 73.4375
Q25.25 74.2188 29.5938 74.2188
Q40.8281 74.2188 47.3594 69.1094
Q53.9062 64.0156 53.9062 55.3281
Q53.9062 49.2656 50.4375 45.0938
Q46.9688 40.9219 40.5781 39.3125" id="DejaVuSans-33"/>
      </defs>
      <g transform="translate(7.32375 26.453)scale(0.12 -0.12)">
       <use xlink:href="#DejaVuSans-33"/>
       <use x="63.623046875" xlink:href="#DejaVuSans-2e"/>
       <use x="95.41015625" xlink:href="#DejaVuSans-30"/>
      </g>
     </g>
    </g>
    <g id="text_16">
     <!-- 1e8 -->
     <g transform="translate(28.695625 20.14175)scale(0.12 -0.12)">
      <use xlink:href="#DejaVuSans-31"/>
      <use x="63.623046875" xlink:href="#DejaVuSans-65"/>
      <use x="125.146484375" xlink:href="#DejaVuSans-38"/>
     </g>
    </g>
   </g>
   <g id="text_17">
    <!-- /agas/time/increment_credit -->
    <defs>
     <path d="
M54.8906 33.0156
L54.8906 0
L45.9062 0
L45.9062 32.7188
Q45.9062 40.4844 42.875 44.3281
Q39.8438 48.1875 33.7969 48.1875
Q26.5156 48.1875 22.3125 43.5469
Q18.1094 38.9219 18.1094 30.9062
L18.1094 0
L9.07812 0
L9.07812 54.6875
L18.1094 54.6875
L18.1094 46.1875
Q21.3438 51.125 25.7031 53.5625
Q30.0781 56 35.7969 56
Q45.2188 56 50.0469 50.1719
Q54.8906 44.3438 54.8906 33.0156" id="DejaVuSans-6e"/>
     <path d="
M45.4062 46.3906
L45.4062 75.9844
L54.3906 75.9844
L54.3906 0
L45.4062 0
L45.4062 8.20312
Q42.5781 3.32812 38.25 0.953125
Q33.9375 -1.42188 27.875 -1.42188
Q17.9688 -1.42188 11.7344 6.48438
Q5.51562 14.4062 5.51562 27.2969
Q5.51562 40.1875 11.7344 48.0938
Q17.9688 56 27.875 56
Q33.9375 56 38.25 53.625
Q42.5781 51.2656 45.4062 46.3906
M14.7969 27.2969
Q14.7969 17.3906 18.875 11.75
Q22.9531 6.10938 30.0781 6.10938
Q37.2031 6.10938 41.2969 11.75
Q45.4062 17.3906 45.4062 27.2969
Q45.4062 37.2031 41.2969 42.8438
Q37.2031 48.4844 30.0781 48.4844
Q22.9531 48.4844 18.875 42.8438
Q14.7969 37.2031 14.7969 27.2969" id="DejaVuSans-64"/>
     <path d="
M50.9844 -16.6094
L50.9844 -23.5781
L-0.984375 -23.5781
L-0.984375 -16.6094
z
" id="DejaVuSans-5f"/>
     <path d="
M41.1094 46.2969
Q39.5938 47.1719 37.8125 47.5781
Q36.0312 48 33.8906 48
Q26.2656 48 22.1875 43.0469
Q18.1094 38.0938 18.1094 28.8125
L18.1094 0
L9.07812 0
L9.07812 54.6875
L18.1094 54.6875
L18.1094 46.1875
Q20.9531 51.1719 25.4844 53.5781
Q30.0312 56 36.5312 56
Q37.4531 56 38.5781 55.875
Q39.7031 55.7656 41.0625 55.5156
z
" id="DejaVuSans-72"/>
     <path d="
M34.2812 27.4844
Q23.3906 27.4844 19.1875 25
Q14.9844 22.5156 14.9844 16.5
Q14.9844 11.7188 18.1406 8.90625
Q21.2969 6.10938 26.7031 6.10938
Q34.1875 6.10938 38.7031 11.4062
Q43.2188 16.7031 43.2188 25.4844
L43.2188 27.4844
z

M52.2031 31.2031
L52.2031 0
L43.2188 0
L43.2188 8.29688
Q40.1406 3.32812 35.5469 0.953125
Q30.9531 -1.42188 24.3125 -1.42188
Q15.9219 -1.42188 10.9531 3.29688
Q6 8.01562 6 15.9219
Q6 25.1406 12.1719 29.8281
Q18.3594 34.5156 30.6094 34.5156
L43.2188 34.5156
L43.2188 35.4062
Q43.2188 41.6094 39.1406 45
Q35.0625 48.3906 27.6875 48.3906
Q23 48.3906 18.5469 47.2656
Q14.1094 46.1406 10.0156 43.8906
L10.0156 52.2031
Q14.9375 54.1094 19.5781 55.0469
Q24.2188 56 28.6094 56
Q40.4844 56 46.3438 49.8438
Q52.2031 43.7031 52.2031 31.2031" id="DejaVuSans-61"/>
     <path d="
M48.7812 52.5938
L48.7812 44.1875
Q44.9688 46.2969 41.1406 47.3438
Q37.3125 48.3906 33.4062 48.3906
Q24.6562 48.3906 19.8125 42.8438
Q14.9844 37.3125 14.9844 27.2969
Q14.9844 17.2812 19.8125 11.7344
Q24.6562 6.20312 33.4062 6.20312
Q37.3125 6.20312 41.1406 7.25
Q44.9688 8.29688 48.7812 10.4062
L48.7812 2.09375
Q45.0156 0.34375 40.9844 -0.53125
Q36.9688 -1.42188 32.4219 -1.42188
Q20.0625 -1.42188 12.7812 6.34375
Q5.51562 14.1094 5.51562 27.2969
Q5.51562 40.6719 12.8594 48.3281
Q20.2188 56 33.0156 56
Q37.1562 56 41.1094 55.1406
Q45.0625 54.2969 48.7812 52.5938" id="DejaVuSans-63"/>
     <path d="
M25.3906 72.9062
L33.6875 72.9062
L8.29688 -9.28125
L0 -9.28125
z
" id="DejaVuSans-2f"/>
     <path d="
M45.4062 27.9844
Q45.4062 37.75 41.375 43.1094
Q37.3594 48.4844 30.0781 48.4844
Q22.8594 48.4844 18.8281 43.1094
Q14.7969 37.75 14.7969 27.9844
Q14.7969 18.2656 18.8281 12.8906
Q22.8594 7.51562 30.0781 7.51562
Q37.3594 7.51562 41.375 12.8906
Q45.4062 18.2656 45.4062 27.9844
M54.3906 6.78125
Q54.3906 -7.17188 48.1875 -13.9844
Q42 -20.7969 29.2031 -20.7969
Q24.4688 -20.7969 20.2656 -20.0938
Q16.0625 -19.3906 12.1094 -17.9219
L12.1094 -9.1875
Q16.0625 -11.3281 19.9219 -12.3438
Q23.7812 -13.375 27.7812 -13.375
Q36.625 -13.375 41.0156 -8.76562
Q45.4062 -4.15625 45.4062 5.17188
L45.4062 9.625
Q42.625 4.78125 38.2812 2.39062
Q33.9375 0 27.875 0
Q17.8281 0 11.6719 7.65625
Q5.51562 15.3281 5.51562 27.9844
Q5.51562 40.6719 11.6719 48.3281
Q17.8281 56 27.875 56
Q33.9375 56 38.2812 53.6094
Q42.625 51.2188 45.4062 46.3906
L45.4062 54.6875
L54.3906 54.6875
z
" id="DejaVuSans-67"/>
     <path d="
M44.2812 53.0781
L44.2812 44.5781
Q40.4844 46.5312 36.375 47.5
Q32.2812 48.4844 27.875 48.4844
Q21.1875 48.4844 17.8438 46.4375
Q14.5 44.3906 14.5 40.2812
Q14.5 37.1562 16.8906 35.375
Q19.2812 33.5938 26.5156 31.9844
L29.5938 31.2969
Q39.1562 29.25 43.1875 25.5156
Q47.2188 21.7812 47.2188 15.0938
Q47.2188 7.46875 41.1875 3.01562
Q35.1562 -1.42188 24.6094 -1.42188
Q20.2188 -1.42188 15.4531 -0.5625
Q10.6875 0.296875 5.42188 2
L5.42188 11.2812
Q10.4062 8.6875 15.2344 7.39062
Q20.0625 6.10938 24.8125 6.10938
Q31.1562 6.10938 34.5625 8.28125
Q37.9844 10.4531 37.9844 14.4062
Q37.9844 18.0625 35.5156 20.0156
Q33.0625 21.9688 24.7031 23.7812
L21.5781 24.5156
Q13.2344 26.2656 9.51562 29.9062
Q5.8125 33.5469 5.8125 39.8906
Q5.8125 47.6094 11.2812 51.7969
Q16.75 56 26.8125 56
Q31.7812 56 36.1719 55.2656
Q40.5781 54.5469 44.2812 53.0781" id="DejaVuSans-73"/>
    </defs>
    <g transform="translate(150.618625 18.14175)scale(0.144 -0.144)">
     <use xlink:href="#DejaVuSans-2f"/>
     <use x="33.69140625" xlink:href="#DejaVuSans-61"/>
     <use x="94.970703125" xlink:href="#DejaVuSans-67"/>
     <use x="158.447265625" xlink:href="#DejaVuSans-61"/>
     <use x="219.7265625" xlink:href="#DejaVuSans-73"/>
     <use x="271.826171875" xlink:href="#DejaVuSans-2f"/>
     <use x="305.517578125" xlink:href="#DejaVuSans-74"/>
     <use x="344.7265625" xlink:href="#DejaVuSans-69"/>
     <use x="372.509765625" xlink:href="#DejaVuSans-6d"/>
     <use x="469.921875" xlink:href="#DejaVuSans-65"/>
     <use x="531.4453125" xlink:href="#DejaVuSans-2f"/>
     <use x="565.13671875" xlink:href="#DejaVuSans-69"/>
     <use x="592.919921875" xlink:href="#DejaVuSans-6e"/>
     <use x="656.298828125" xlink:href="#DejaVuSans-63"/>
     <use x="711.279296875" xlink:href="#DejaVuSans-72"/>
     <use x="750.142578125" xlink:href="#DejaVuSans-65"/>
     <use x="811.666015625" xlink:href="#DejaVuSans-6d"/>
     <use x="909.078125" xlink:href="#DejaVuSans-65"/>
     <use x="970.6015625" xlink:href="#DejaVuSans-6e"/>
     <use x="1033.98046875" xlink:href="#DejaVuSans-74"/>
     <use x="1073.189453125" xlink:href="#DejaVuSans-5f"/>
     <use x="1123.189453125" xlink:href="#DejaVuSans-63"/>
     <use x="1178.169921875" xlink:href="#DejaVuSans-72"/>
     <use x="1217.033203125" xlink:href="#DejaVuSans-65"/>
     <use x="1278.556640625" xlink:href="#DejaVuSans-64"/>
     <use x="1342.033203125" xlink:href="#DejaVuSans-69"/>
     <use x="1369.81640625" xlink:href="#DejaVuSans-74"/>
    </g>
   </g>
   <g id="legend_1">
    <g id="patch_7">
     <path d="
M482.296 367.194
L614.085 367.194
L614.085 24.6897
L482.296 24.6897
z
" style="fill:#ffffff;stroke:#000000;stroke-linejoin:miter;"/>
    </g>
    <g id="line2d_45">
     <path d="
M492.376 36.3515
L512.536 36.3515" style="fill:none;stroke:#0000ff;stroke-linecap:square;"/>
    </g>
    <g id="line2d_46"/>
    <g id="text_18">
     <!-- locality#0 -->
     <defs>
      <path d="
M51.125 44
L36.9219 44
L32.8125 27.6875
L47.125 27.6875
z

M43.7969 71.7812
L38.7188 51.5156
L52.9844 51.5156
L58.1094 71.7812
L65.9219 71.7812
L60.8906 51.5156
L76.125 51.5156
L76.125 44
L58.9844 44
L54.9844 27.6875
L70.5156 27.6875
L70.5156 20.2188
L53.0781 20.2188
L48 0
L40.1875 0
L45.2188 20.2188
L30.9062 20.2188
L25.875 0
L18.0156 0
L23.0938 20.2188
L7.71875 20.2188
L7.71875 27.6875
L24.9062 27.6875
L29 44
L13.2812 44
L13.2812 51.5156
L30.9062 51.5156
L35.8906 71.7812
z
" id="DejaVuSans-23"/>
      <path d="
M30.6094 48.3906
Q23.3906 48.3906 19.1875 42.75
Q14.9844 37.1094 14.9844 27.2969
Q14.9844 17.4844 19.1562 11.8438
Q23.3438 6.20312 30.6094 6.20312
Q37.7969 6.20312 41.9844 11.8594
Q46.1875 17.5312 46.1875 27.2969
Q46.1875 37.0156 41.9844 42.7031
Q37.7969 48.3906 30.6094 48.3906
M30.6094 56
Q42.3281 56 49.0156 48.375
Q55.7188 40.7656 55.7188 27.2969
Q55.7188 13.875 49.0156 6.21875
Q42.3281 -1.42188 30.6094 -1.42188
Q18.8438 -1.42188 12.1719 6.21875
Q5.51562 13.875 5.51562 27.2969
Q5.51562 40.7656 12.1719 48.375
Q18.8438 56 30.6094 56" id="DejaVuSans-6f"/>
      <path d="
M32.1719 -5.07812
Q28.375 -14.8438 24.75 -17.8125
Q21.1406 -20.7969 15.0938 -20.7969
L7.90625 -20.7969
L7.90625 -13.2812
L13.1875 -13.2812
Q16.8906 -13.2812 18.9375 -11.5156
Q21 -9.76562 23.4844 -3.21875
L25.0938 0.875
L2.98438 54.6875
L12.5 54.6875
L29.5938 11.9219
L46.6875 54.6875
L56.2031 54.6875
z
" id="DejaVuSans-79"/>
      <path d="
M9.42188 75.9844
L18.4062 75.9844
L18.4062 0
L9.42188 0
z
" id="DejaVuSans-6c"/>
     </defs>
     <g transform="translate(528.375625 41.3915)scale(0.144 -0.144)">
      <use xlink:href="#DejaVuSans-6c"/>
      <use x="27.783203125" xlink:href="#DejaVuSans-6f"/>
      <use x="88.96484375" xlink:href="#DejaVuSans-63"/>
      <use x="143.9453125" xlink:href="#DejaVuSans-61"/>
      <use x="205.224609375" xlink:href="#DejaVuSans-6c"/>
      <use x="233.0078125" xlink:href="#DejaVuSans-69"/>
      <use x="260.791015625" xlink:href="#DejaVuSans-74"/>
      <use x="300.0" xlink:href="#DejaVuSans-79"/>
      <use x="359.1796875" xlink:href="#DejaVuSans-23"/>
      <use x="442.96875" xlink:href="#DejaVuSans-30"/>
     </g>
    </g>
    <g id="line2d_47">
     <path d="
M492.376 57.488
L512.536 57.488" style="fill:none;stroke:#008000;stroke-linecap:square;"/>
    </g>
    <g id="line2d_48"/>
    <g id="text_19">
     <!-- locality#1 -->
     <g transform="translate(528.375625 62.528)scale(0.144 -0.144)">
      <use xlink:href="#DejaVuSans-6c"/>
      <use x="27.783203125" xlink:href="#DejaVuSans-6f"/>
      <use x="88.96484375" xlink:href="#DejaVuSans-63"/>
      <use x="143.9453125" xlink:href="#DejaVuSans-61"/>
      <use x="205.224609375" xlink:href="#DejaVuSans-6c"/>
      <use x="233.0078125" xlink:href="#DejaVuSans-69"/>
      <use x="260.791015625" xlink:href="#DejaVuSans-74"/>
      <use x="300.0" xlink:href="#DejaVuSans-79"/>
      <use x="359.1796875" xlink:href="#DejaVuSans-23"/>
      <use x="442.96875" xlink:href="#DejaVuSans-31"/>
     </g>
    </g>
    <g id="line2d_49">
     <path d="
M492.376 78.6245
L512.536 78.6245" style="fill:none;stroke:#ff0000;stroke-linecap:square;"/>
    </g>
    <g id="line2d_50"/>
    <g id="text_20">
     <!-- locality#10 -->
     <g transform="translate(528.375625 83.6645)scale(0.144 -0.144)">
      <use xlink:href="#DejaVuSans-6c"/>
      <use x="27.783203125" xlink:href="#DejaVuSans-6f"/>
      <use x="88.96484375" xlink:href="#DejaVuSans-63"/>
      <use x="143.9453125" xlink:href="#DejaVuSans-61"/>
      <use x="205.224609375" xlink:href="#DejaVuSans-6c"/>
      <use x="233.0078125" xlink:href="#DejaVuSans-69"/>
      <use x="260.791015625" xlink:href="#DejaVuSans-74"/>
      <use x="300.0" xlink:href="#DejaVuSans-79"/>
      <use x="359.1796875" xlink:href="#DejaVuSans-23"/>
      <use x="442.96875" xlink:href="#DejaVuSans-31"/>
      <use x="506.591796875" xlink:href="#DejaVuSans-30"/>
     </g>
    </g>
    <g id="line2d_51">
     <path d="
M492.376 99.761
L512.536 99.761" style="fill:none;stroke:#00bfbf;stroke-linecap:square;"/>
    </g>
    <g id="line2d_52"/>
    <g id="text_21">
     <!-- locality#11 -->
     <g transform="translate(528.375625 104.801)scale(0.144 -0.144)">
      <use xlink:href="#DejaVuSans-6c"/>
      <use x="27.783203125" xlink:href="#DejaVuSans-6f"/>
      <use x="88.96484375" xlink:href="#DejaVuSans-63"/>
      <use x="143.9453125" xlink:href="#DejaVuSans-61"/>
      <use x="205.224609375" xlink:href="#DejaVuSans-6c"/>
      <use x="233.0078125" xlink:href="#DejaVuSans-69"/>
      <use x="260.791015625" xlink:href="#DejaVuSans-74"/>
      <use x="300.0" xlink:href="#DejaVuSans-79"/>
      <use x="359.1796875" xlink:href="#DejaVuSans-23"/>
      <use x="442.96875" xlink:href="#DejaVuSans-31"/>
      <use x="506.591796875" xlink:href="#DejaVuSans-31"/>
     </g>
    </g>
    <g id="line2d_53">
     <path d="
M492.376 120.897
L512.536 120.897" style="fill:none;stroke:#bf00bf;stroke-linecap:square;"/>
    </g>
    <g id="line2d_54"/>
    <g id="text_22">
     <!-- locality#12 -->
     <g transform="translate(528.375625 125.9375)scale(0.144 -0.144)">
      <use xlink:href="#DejaVuSans-6c"/>
      <use x="27.783203125" xlink:href="#DejaVuSans-6f"/>
      <use x="88.96484375" xlink:href="#DejaVuSans-63"/>
      <use x="143.9453125" xlink:href="#DejaVuSans-61"/>
      <use x="205.224609375" xlink:href="#DejaVuSans-6c"/>
      <use x="233.0078125" xlink:href="#DejaVuSans-69"/>
      <use x="260.791015625" xlink:href="#DejaVuSans-74"/>
      <use x="300.0" xlink:href="#DejaVuSans-79"/>
      <use x="359.1796875" xlink:href="#DejaVuSans-23"/>
      <use x="442.96875" xlink:href="#DejaVuSans-31"/>
      <use x="506.591796875" xlink:href="#DejaVuSans-32"/>
     </g>
    </g>
    <g id="line2d_55">
     <path d="
M492.376 142.034
L512.536 142.034" style="fill:none;stroke:#bfbf00;stroke-linecap:square;"/>
    </g>
    <g id="line2d_56"/>
    <g id="text_23">
     <!-- locality#13 -->
     <g transform="translate(528.375625 147.074)scale(0.144 -0.144)">
      <use xlink:href="#DejaVuSans-6c"/>
      <use x="27.783203125" xlink:href="#DejaVuSans-6f"/>
      <use x="88.96484375" xlink:href="#DejaVuSans-63"/>
      <use x="143.9453125" xlink:href="#DejaVuSans-61"/>
      <use x="205.224609375" xlink:href="#DejaVuSans-6c"/>
      <use x="233.0078125" xlink:href="#DejaVuSans-69"/>
      <use x="260.791015625" xlink:href="#DejaVuSans-74"/>
      <use x="300.0" xlink:href="#DejaVuSans-79"/>
      <use x="359.1796875" xlink:href="#DejaVuSans-23"/>
      <use x="442.96875" xlink:href="#DejaVuSans-31"/>
      <use x="506.591796875" xlink:href="#DejaVuSans-33"/>
     </g>
    </g>
    <g id="line2d_57">
     <path d="
M492.376 163.17
L512.536 163.17" style="fill:none;stroke:#000000;stroke-linecap:square;"/>
    </g>
    <g id="line2d_58"/>
    <g id="text_24">
     <!-- locality#14 -->
     <g transform="translate(528.375625 168.2105)scale(0.144 -0.144)">
      <use xlink:href="#DejaVuSans-6c"/>
      <use x="27.783203125" xlink:href="#DejaVuSans-6f"/>
      <use x="88.96484375" xlink:href="#DejaVuSans-63"/>
      <use x="143.9453125" xlink:href="#DejaVuSans-61"/>
      <use x="205.224609375" xlink:href="#DejaVuSans-6c"/>
      <use x="233.0078125" xlink:href="#DejaVuSans-69"/>
      <use x="260.791015625" xlink:href="#DejaVuSans-74"/>
      <use x="300.0" xlink:href="#DejaVuSans-79"/>
      <use x="359.1796875" xlink:href="#DejaVuSans-23"/>
      <use x="442.96875" xlink:href="#DejaVuSans-31"/>
      <use x="506.591796875" xlink:href="#DejaVuSans-34"/>
     </g>
    </g>
    <g id="line2d_59">
     <path d="
M492.376 184.307
L512.536 184.307" style="fill:none;stroke:#0000ff;stroke-linecap:square;"/>
    </g>
    <g id="line2d_60"/>
    <g id="text_25">
     <!-- locality#15 -->
     <g transform="translate(528.375625 189.347)scale(0.144 -0.144)">
      <use xlink:href="#DejaVuSans-6c"/>
      <use x="27.783203125" xlink:href="#DejaVuSans-6f"/>
      <use x="88.96484375" xlink:href="#DejaVuSans-63"/>
      <use x="143.9453125" xlink:href="#DejaVuSans-61"/>
      <use x="205.224609375" xlink:href="#DejaVuSans-6c"/>
      <use x="233.0078125" xlink:href="#DejaVuSans-69"/>
      <use x="260.791015625" xlink:href="#DejaVuSans-74"/>
      <use x="300.0" xlink:href="#DejaVuSans-79"/>
      <use x="359.1796875" xlink:href="#DejaVuSans-23"/>
      <use x="442.96875" xlink:href="#DejaVuSans-31"/>
      <use x="506.591796875" xlink:href="#DejaVuSans-35"/>
     </g>
    </g>
    <g id="line2d_61">
     <path d="
M492.376 205.443
L512.536 205.443" style="fill:none;stroke:#008000;stroke-linecap:square;"/>
    </g>
    <g id="line2d_62"/>
    <g id="text_26">
     <!-- locality#2 -->
     <g transform="translate(528.375625 210.4835)scale(0.144 -0.144)">
      <use xlink:href="#DejaVuSans-6c"/>
      <use x="27.783203125" xlink:href="#DejaVuSans-6f"/>
      <use x="88.96484375" xlink:href="#DejaVuSans-63"/>
      <use x="143.9453125" xlink:href="#DejaVuSans-61"/>
      <use x="205.224609375" xlink:href="#DejaVuSans-6c"/>
      <use x="233.0078125" xlink:href="#DejaVuSans-69"/>
      <use x="260.791015625" xlink:href="#DejaVuSans-74"/>
      <use x="300.0" xlink:href="#DejaVuSans-79"/>
      <use x="359.1796875" xlink:href="#DejaVuSans-23"/>
      <use x="442.96875" xlink:href="#DejaVuSans-32"/>
     </g>
    </g>
    <g id="line2d_63">
     <path d="
M492.376 226.58
L512.536 226.58" style="fill:none;stroke:#ff0000;stroke-linecap:square;"/>
    </g>
    <g id="line2d_64"/>
    <g id="text_27">
     <!-- locality#3 -->
     <g transform="translate(528.375625 231.62)scale(0.144 -0.144)">
      <use xlink:href="#DejaVuSans-6c"/>
      <use x="27.783203125" xlink:href="#DejaVuSans-6f"/>
      <use x="88.96484375" xlink:href="#DejaVuSans-63"/>
      <use x="143.9453125" xlink:href="#DejaVuSans-61"/>
      <use x="205.224609375" xlink:href="#DejaVuSans-6c"/>
      <use x="233.0078125" xlink:href="#DejaVuSans-69"/>
      <use x="260.791015625" xlink:href="#DejaVuSans-74"/>
      <use x="300.0" xlink:href="#DejaVuSans-79"/>
      <use x="359.1796875" xlink:href="#DejaVuSans-23"/>
      <use x="442.96875" xlink:href="#DejaVuSans-33"/>
     </g>
    </g>
    <g id="line2d_65">
     <path d="
M492.376 247.716
L512.536 247.716" style="fill:none;stroke:#00bfbf;stroke-linecap:square;"/>
    </g>
    <g id="line2d_66"/>
    <g id="text_28">
     <!-- locality#4 -->
     <g transform="translate(528.375625 252.7565)scale(0.144 -0.144)">
      <use xlink:href="#DejaVuSans-6c"/>
      <use x="27.783203125" xlink:href="#DejaVuSans-6f"/>
      <use x="88.96484375" xlink:href="#DejaVuSans-63"/>
      <use x="143.9453125" xlink:href="#DejaVuSans-61"/>
      <use x="205.224609375" xlink:href="#DejaVuSans-6c"/>
      <use x="233.0078125" xlink:href="#DejaVuSans-69"/>
      <use x="260.791015625" xlink:href="#DejaVuSans-74"/>
      <use x="300.0" xlink:href="#DejaVuSans-79"/>
      <use x="359.1796875" xlink:href="#DejaVuSans-23"/>
      <use x="442.96875" xlink:href="#DejaVuSans-34"/>
     </g>
    </g>
    <g id="line2d_67">
     <path d="
M492.376 268.853
L512.536 268.853" style="fill:none;stroke:#bf00bf;stroke-linecap:square;"/>
    </g>
    <g id="line2d_68"/>
    <g id="text_29">
     <!-- locality#5 -->
     <g transform="translate(528.375625 273.893)scale(0.144 -0.144)">
      <use xlink:href="#DejaVuSans-6c"/>
      <use x="27.783203125" xlink:href="#DejaVuSans-6f"/>
      <use x="88.96484375" xlink:href="#DejaVuSans-63"/>
      <use x="143.9453125" xlink:href="#DejaVuSans-61"/>
      <use x="205.224609375" xlink:href="#DejaVuSans-6c"/>
      <use x="233.0078125" xlink:href="#DejaVuSans-69"/>
      <use x="260.791015625" xlink:href="#DejaVuSans-74"/>
      <use x="300.0" xlink:href="#DejaVuSans-79"/>
      <use x="359.1796875" xlink:href="#DejaVuSans-23"/>
      <use x="442.96875" xlink:href="#DejaVuSans-35"/>
     </g>
    </g>
    <g id="line2d_69">
     <path d="
M492.376 289.989
L512.536 289.989" style="fill:none;stroke:#bfbf00;stroke-linecap:square;"/>
    </g>
    <g id="line2d_70"/>
    <g id="text_30">
     <!-- locality#6 -->
     <g transform="translate(528.375625 295.0295)scale(0.144 -0.144)">
      <use xlink:href="#DejaVuSans-6c"/>
      <use x="27.783203125" xlink:href="#DejaVuSans-6f"/>
      <use x="88.96484375" xlink:href="#DejaVuSans-63"/>
      <use x="143.9453125" xlink:href="#DejaVuSans-61"/>
      <use x="205.224609375" xlink:href="#DejaVuSans-6c"/>
      <use x="233.0078125" xlink:href="#DejaVuSans-69"/>
      <use x="260.791015625" xlink:href="#DejaVuSans-74"/>
      <use x="300.0" xlink:href="#DejaVuSans-79"/>
      <use x="359.1796875" xlink:href="#DejaVuSans-23"/>
      <use x="442.96875" xlink:href="#DejaVuSans-36"/>
     </g>
    </g>
    <g id="line2d_71">
     <path d="
M492.376 311.126
L512.536 311.126" style="fill:none;stroke:#000000;stroke-linecap:square;"/>
    </g>
    <g id="line2d_72"/>
    <g id="text_31">
     <!-- locality#7 -->
     <defs>
      <path d="
M8.20312 72.9062
L55.0781 72.9062
L55.0781 68.7031
L28.6094 0
L18.3125 0
L43.2188 64.5938
L8.20312 64.5938
z
" id="DejaVuSans-37"/>
     </defs>
     <g transform="translate(528.375625 316.166)scale(0.144 -0.144)">
      <use xlink:href="#DejaVuSans-6c"/>
      <use x="27.783203125" xlink:href="#DejaVuSans-6f"/>
      <use x="88.96484375" xlink:href="#DejaVuSans-63"/>
      <use x="143.9453125" xlink:href="#DejaVuSans-61"/>
      <use x="205.224609375" xlink:href="#DejaVuSans-6c"/>
      <use x="233.0078125" xlink:href="#DejaVuSans-69"/>
      <use x="260.791015625" xlink:href="#DejaVuSans-74"/>
      <use x="300.0" xlink:href="#DejaVuSans-79"/>
      <use x="359.1796875" xlink:href="#DejaVuSans-23"/>
      <use x="442.96875" xlink:href="#DejaVuSans-37"/>
     </g>
    </g>
    <g id="line2d_73">
     <path d="
M492.376 332.262
L512.536 332.262" style="fill:none;stroke:#0000ff;stroke-linecap:square;"/>
    </g>
    <g id="line2d_74"/>
    <g id="text_32">
     <!-- locality#8 -->
     <g transform="translate(528.375625 337.3025)scale(0.144 -0.144)">
      <use xlink:href="#DejaVuSans-6c"/>
      <use x="27.783203125" xlink:href="#DejaVuSans-6f"/>
      <use x="88.96484375" xlink:href="#DejaVuSans-63"/>
      <use x="143.9453125" xlink:href="#DejaVuSans-61"/>
      <use x="205.224609375" xlink:href="#DejaVuSans-6c"/>
      <use x="233.0078125" xlink:href="#DejaVuSans-69"/>
      <use x="260.791015625" xlink:href="#DejaVuSans-74"/>
      <use x="300.0" xlink:href="#DejaVuSans-79"/>
      <use x="359.1796875" xlink:href="#DejaVuSans-23"/>
      <use x="442.96875" xlink:href="#DejaVuSans-38"/>
     </g>
    </g>
    <g id="line2d_75">
     <path d="
M492.376 353.399
L512.536 353.399" style="fill:none;stroke:#008000;stroke-linecap:square;"/>
    </g>
    <g id="line2d_76"/>
    <g id="text_33">
     <!-- locality#9 -->
     <defs>
      <path d="
M10.9844 1.51562
L10.9844 10.5
Q14.7031 8.73438 18.5 7.8125
Q22.3125 6.89062 25.9844 6.89062
Q35.75 6.89062 40.8906 13.4531
Q46.0469 20.0156 46.7812 33.4062
Q43.9531 29.2031 39.5938 26.9531
Q35.25 24.7031 29.9844 24.7031
Q19.0469 24.7031 12.6719 31.3125
Q6.29688 37.9375 6.29688 49.4219
Q6.29688 60.6406 12.9375 67.4219
Q19.5781 74.2188 30.6094 74.2188
Q43.2656 74.2188 49.9219 64.5156
Q56.5938 54.8281 56.5938 36.375
Q56.5938 19.1406 48.4062 8.85938
Q40.2344 -1.42188 26.4219 -1.42188
Q22.7031 -1.42188 18.8906 -0.6875
Q15.0938 0.046875 10.9844 1.51562
M30.6094 32.4219
Q37.25 32.4219 41.125 36.9531
Q45.0156 41.5 45.0156 49.4219
Q45.0156 57.2812 41.125 61.8438
Q37.25 66.4062 30.6094 66.4062
Q23.9688 66.4062 20.0938 61.8438
Q16.2188 57.2812 16.2188 49.4219
Q16.2188 41.5 20.0938 36.9531
Q23.9688 32.4219 30.6094 32.4219" id="DejaVuSans-39"/>
     </defs>
     <g transform="translate(528.375625 358.439)scale(0.144 -0.144)">
      <use xlink:href="#DejaVuSans-6c"/>
      <use x="27.783203125" xlink:href="#DejaVuSans-6f"/>
      <use x="88.96484375" xlink:href="#DejaVuSans-63"/>
      <use x="143.9453125" xlink:href="#DejaVuSans-61"/>
      <use x="205.224609375" xlink:href="#DejaVuSans-6c"/>
      <use x="233.0078125" xlink:href="#DejaVuSans-69"/>
      <use x="260.791015625" xlink:href="#DejaVuSans-74"/>
      <use x="300.0" xlink:href="#DejaVuSans-79"/>
      <use x="359.1796875" xlink:href="#DejaVuSans-23"/>
      <use x="442.96875" xlink:href="#DejaVuSans-39"/>
     </g>
    </g>
   </g>
  </g>
 </g>
 <defs>
  <clipPath id="p2118423672">
   <rect height="345.6" width="446.4" x="28.695625" y="23.14175"/>
  </clipPath>
 </defs>
</svg>
