<?xml version="1.0" encoding="utf-8" standalone="no"?>
<!DOCTYPE svg PUBLIC "-//W3C//DTD SVG 1.1//EN"
  "http://www.w3.org/Graphics/SVG/1.1/DTD/svg11.dtd">
<!-- Created with matplotlib (http://matplotlib.org/) -->
<svg height="408pt" version="1.1" viewBox="0 0 655 408" width="655pt" xmlns="http://www.w3.org/2000/svg" xmlns:xlink="http://www.w3.org/1999/xlink">
 <defs>
  <style type="text/css">
*{stroke-linecap:butt;stroke-linejoin:round;}
  </style>
 </defs>
 <g id="figure_1">
  <g id="patch_1">
   <path d="
M0 408.169
L655.85 408.169
L655.85 0
L0 0
z
" style="fill:#ffffff;"/>
  </g>
  <g id="axes_1">
   <g id="patch_2">
    <path d="
M63.2613 368.742
L509.661 368.742
L509.661 23.1417
L63.2613 23.1417
z
" style="fill:#ffffff;"/>
   </g>
   <g id="line2d_1">
    <path clip-path="url(#p3f6fae7697)" d="
M63.2613 368.656
L64.9573 367.839
L77.8473 361.285
L82.9354 358.438
L85.3099 357.153
L87.0059 356.21
L89.3804 354.986
L90.7372 354.214
L92.0941 353.522
L95.147 351.87
L96.843 351.03
L97.8606 350.428
L98.5391 350.075
L99.8959 349.282
L102.27 347.967
L103.627 347.155
L104.645 346.601
L117.535 339.865
L120.588 338.317
L122.284 337.363
L122.962 336.963
L124.997 335.786
L126.354 335.027
L127.033 334.631
L128.05 334.076
L129.068 333.494
L130.425 332.723
L136.87 329.218
L138.905 328.071
L140.262 327.367
L153.152 320.125
L154.169 319.563
L166.042 313.196
L167.059 312.588
L168.077 312.027
L176.218 307.463
L176.897 306.995
L178.932 305.881
L182.663 303.837
L183.681 303.292
L191.143 299.003
L195.214 296.626
L216.923 284.33
L217.602 283.883
L218.959 283.119
L220.994 282.012
L224.386 280.214
L226.421 279.064
L227.778 278.301
L231.17 276.443
L235.919 273.691
L236.597 273.272
L238.293 272.265
L239.99 271.294
L241.007 270.718
L242.703 269.756
L244.399 268.835
L245.756 268.044
L247.452 267.013
L249.148 265.985
L260.003 259.382
L268.822 254.474
L270.858 253.317
L274.589 251.181
L275.267 250.731
L276.624 249.991
L277.303 249.608
L280.016 248.039
L281.712 247.116
L287.818 243.902
L290.532 242.452
L294.941 240.048
L295.62 239.636
L299.351 237.508
L301.386 236.38
L304.779 234.588
L309.188 232.213
L349.554 210.558
L351.25 209.741
L352.607 209.064
L356.338 207.287
L362.105 204.482
L368.55 201.487
L370.924 200.389
L372.621 199.668
L375.673 198.302
L378.387 197.045
L379.744 196.425
L381.101 195.837
L383.136 194.876
L387.885 192.744
L388.903 192.267
L391.277 191.153
L392.634 190.49
L423.502 176.286
L428.251 174.154
L441.48 168.146
L442.837 167.541
L447.586 165.438
L454.031 162.583
L460.815 159.719
L463.19 158.736
L465.225 157.871
L468.278 156.619
L470.313 155.8
L478.115 152.752
L503.895 142.59
L508.983 140.806
L509.661 140.559
L509.661 140.559" style="fill:none;stroke:#0000ff;stroke-linecap:square;"/>
   </g>
   <g id="line2d_2">
    <path clip-path="url(#p3f6fae7697)" d="
M63.2613 368.738
L68.6886 366.68
L70.0454 366.156
L71.4023 365.599
L73.0983 364.915
L135.852 338.504
L136.531 338.165
L142.976 335.388
L144.332 334.798
L168.416 324.482
L170.452 323.627
L172.148 322.903
L174.522 321.867
L176.218 321.143
L176.897 320.806
L178.253 320.192
L196.571 312.131
L198.606 311.163
L199.963 310.552
L225.403 299.236
L226.76 298.627
L228.456 297.895
L229.813 297.251
L231.509 296.563
L232.188 296.204
L234.223 295.316
L236.258 294.403
L237.615 293.806
L243.042 291.307
L247.452 289.278
L249.827 288.069
L250.844 287.566
L255.254 285.429
L269.162 279.214
L271.197 278.379
L310.545 261.45
L311.902 260.921
L316.312 259.138
L318.008 258.408
L330.219 253.425
L331.915 252.733
L332.933 252.291
L344.466 247.538
L346.162 246.809
L350.233 245.255
L351.25 244.859
L361.766 240.986
L366.854 239.199
L390.259 231.139
L393.652 229.923
L395.687 229.226
L405.185 225.912
L407.559 225.069
L412.308 223.456
L416.379 222.017
L420.11 220.727
L436.731 215.1
L438.427 214.461
L440.123 213.903
L461.154 207.004
L463.868 206.163
L467.26 205.185
L474.723 202.981
L480.15 201.345
L505.252 194.128
L509.661 193.008
L509.661 193.008" style="fill:none;stroke:#008000;stroke-linecap:square;"/>
   </g>
   <g id="line2d_3">
    <path clip-path="url(#p3f6fae7697)" d="
M63.2613 368.738
L67.3318 365.655
L69.0278 364.263
L70.0454 363.508
L71.4023 362.498
L74.4552 360.185
L75.1336 359.528
L76.4904 358.478
L77.8473 357.355
L79.5433 355.865
L79.8825 355.656
L80.5609 355.036
L87.3451 349.53
L88.702 348.507
L89.3804 347.96
L91.0764 346.554
L93.4509 344.674
L94.8078 343.515
L99.2175 340.055
L100.574 338.924
L102.27 337.593
L104.645 335.537
L106.68 333.991
L107.698 333.198
L110.411 331.038
L112.447 329.511
L113.125 329.019
L114.482 327.902
L116.178 326.562
L116.856 325.995
L117.535 325.445
L119.231 324.161
L120.927 322.764
L123.301 320.906
L124.997 319.483
L126.015 318.599
L127.711 317.173
L136.531 310.042
L138.566 308.451
L140.94 306.427
L142.297 305.384
L143.654 304.18
L144.332 303.676
L150.099 298.989
L154.848 294.992
L155.866 294.247
L172.826 280.532
L173.504 279.895
L174.522 279.026
L178.253 275.867
L179.61 274.816
L180.628 273.929
L184.02 271.207
L187.412 268.459
L188.769 267.339
L190.465 266.008
L191.483 265.081
L193.518 263.359
L194.535 262.554
L209.461 250.1
L211.835 248.289
L212.853 247.407
L217.262 243.727
L217.941 243.175
L218.959 242.373
L220.994 240.609
L224.047 238.183
L225.743 236.792
L227.1 235.72
L228.796 234.346
L230.152 233.3
L232.527 231.213
L233.545 230.367
L234.562 229.495
L236.597 227.709
L237.615 226.809
L239.311 225.289
L240.329 224.488
L241.346 223.527
L246.095 219.507
L246.774 218.788
L247.452 218.126
L249.148 216.588
L251.862 214.074
L252.54 213.507
L253.219 212.878
L257.289 209.386
L257.968 208.714
L258.646 208.047
L261.699 205.321
L270.518 198.087
L271.875 196.887
L274.589 194.701
L275.267 194.091
L277.303 192.457
L283.408 187.417
L286.8 184.805
L288.497 183.448
L290.871 181.581
L293.585 179.335
L295.62 177.715
L296.638 176.855
L302.404 171.841
L305.796 169.07
L308.171 167.004
L309.528 165.923
L312.241 163.827
L322.757 155.513
L327.506 151.588
L330.219 149.502
L332.933 147.401
L333.951 146.687
L335.647 145.261
L336.325 144.71
L337.682 143.559
L343.448 139.092
L344.805 138.019
L345.823 137.19
L347.858 135.616
L351.59 132.864
L352.268 132.369
L354.642 130.666
L355.999 129.752
L357.695 128.51
L365.497 123.14
L369.228 120.755
L370.924 119.58
L372.621 118.438
L382.797 111.616
L383.814 110.935
L398.061 101.145
L399.418 100.185
L401.793 98.564
L408.577 94.0366
L410.273 92.7863
L411.969 91.6427
L416.039 88.7351
L416.718 88.1929
L419.431 86.3428
L421.128 85.1524
L424.859 82.7048
L425.537 82.1948
L426.894 81.2555
L428.929 79.8708
L430.286 79.0475
L430.965 78.5737
L431.643 78.1329
L435.714 75.4157
L438.088 73.7537
L438.766 73.2929
L442.837 70.6978
L447.925 67.2918
L451.317 65.2159
L451.996 64.699
L466.242 56.0936
L468.617 54.7281
L480.828 47.6863
L482.185 46.8837
L483.881 45.8431
L485.577 44.8401
L487.613 43.6473
L490.326 42.1367
L491.683 41.3288
L504.912 33.9613
L506.948 32.9683
L509.322 31.7794
L509.661 31.6281
L509.661 31.6281" style="fill:none;stroke:#ff0000;stroke-linecap:square;"/>
   </g>
   <g id="line2d_4">
    <path clip-path="url(#p3f6fae7697)" d="
M63.2613 368.738
L66.6533 366.251
L68.3494 365.037
L69.0278 364.429
L70.3847 363.501
L72.0807 362.247
L73.4375 361.282
L74.116 360.699
L74.4552 360.46
L75.1336 359.841
L77.5081 357.997
L83.2746 353.335
L85.9883 351.094
L86.6667 350.583
L88.0236 349.568
L92.4333 346.113
L93.7901 345.046
L95.147 343.982
L97.1822 342.308
L102.27 338.379
L102.949 337.722
L103.288 337.517
L103.966 336.912
L117.874 326.37
L118.892 325.6
L120.248 324.44
L120.927 323.928
L123.641 321.862
L126.693 319.28
L127.711 318.569
L129.746 317.064
L131.442 315.685
L133.138 314.4
L134.495 313.362
L135.513 312.645
L137.548 311.13
L139.923 309.286
L140.601 308.813
L141.958 307.659
L142.976 306.877
L147.724 303.047
L150.099 301.179
L156.205 296.427
L158.918 294.391
L160.614 293.02
L171.808 284.206
L173.844 282.563
L179.271 278.318
L216.923 248.198
L217.602 247.632
L219.298 246.367
L230.492 237.539
L231.17 236.978
L232.527 235.851
L239.65 229.882
L250.166 220.94
L251.523 219.762
L257.289 214.847
L257.968 214.179
L258.646 213.544
L259.664 212.62
L261.36 211.165
L274.589 200.323
L275.267 199.708
L286.461 190.926
L288.836 189.219
L291.21 187.356
L296.298 183.261
L296.977 182.757
L298.334 181.537
L300.369 179.907
L301.726 178.759
L308.171 173.786
L309.188 172.988
L318.347 166.193
L320.382 164.691
L321.739 163.672
L323.774 162.031
L324.792 161.319
L328.184 158.781
L333.951 154.481
L335.986 152.858
L342.77 147.669
L344.805 146.047
L345.823 145.296
L347.18 144.259
L349.893 142.288
L357.695 136.858
L359.391 135.658
L361.427 134.345
L363.123 133.217
L363.462 132.857
L364.14 132.489
L364.819 132.024
L370.246 128.716
L374.317 126.061
L374.995 125.576
L376.352 124.729
L381.101 121.823
L384.154 119.831
L386.189 118.539
L392.295 114.436
L395.687 112.327
L404.167 106.752
L406.202 105.475
L407.22 104.765
L412.308 101.412
L413.665 100.481
L420.449 95.9389
L421.128 95.4382
L434.357 86.9257
L435.374 86.246
L437.749 84.7423
L439.106 83.7876
L440.462 82.9014
L442.159 81.8822
L446.229 79.357
L448.603 77.9255
L449.96 77.0976
L464.546 68.5367
L477.097 61.7391
L481.168 59.5065
L488.63 55.4914
L492.701 53.2927
L493.718 52.7159
L505.93 46.4406
L509.661 44.7041
L509.661 44.7041" style="fill:none;stroke:#00bfbf;stroke-linecap:square;"/>
   </g>
   <g id="line2d_5">
    <path clip-path="url(#p3f6fae7697)" d="
M63.2613 368.738
L64.2789 368.057
L64.9573 367.566
L68.0102 365.495
L68.3494 365.31
L69.0278 364.765
L69.367 364.575
L70.0454 364.055
L70.7239 363.609
L72.0807 362.681
L73.4375 361.775
L75.4728 360.192
L75.812 360
L76.4904 359.462
L78.1865 358.234
L79.2041 357.444
L91.4157 348.428
L91.7549 348.072
L92.4333 347.631
L93.1117 347.139
L98.1999 343.444
L101.931 340.795
L103.627 339.545
L104.984 338.479
L106.341 337.527
L107.698 336.526
L126.015 323.4
L127.033 322.6
L129.068 321.171
L130.086 320.388
L133.138 318.227
L134.156 317.42
L136.191 316.01
L138.566 314.42
L139.923 313.409
L141.619 312.198
L143.654 310.65
L144.672 309.938
L145.689 309.164
L148.742 306.934
L149.421 306.395
L150.099 305.826
L158.24 299.766
L159.258 299.03
L165.703 294.221
L166.381 293.756
L168.755 292.025
L170.112 291.158
L171.808 289.857
L176.218 286.585
L177.236 285.756
L178.253 285.014
L185.038 280.002
L186.394 279.048
L187.412 278.168
L188.769 277.094
L190.126 276.214
L190.804 275.633
L196.231 271.725
L198.606 269.962
L204.033 265.742
L224.047 250.858
L225.064 250.101
L227.1 248.618
L227.778 248.051
L228.796 247.243
L236.937 241.238
L237.615 240.703
L240.668 238.275
L245.078 234.752
L246.774 233.323
L247.791 232.502
L252.54 228.681
L255.254 226.478
L256.272 225.615
L261.021 221.677
L265.769 218.044
L267.126 217.017
L268.822 215.741
L269.501 215.208
L270.858 214.241
L272.554 212.941
L273.91 211.907
L281.712 206.119
L284.765 204.014
L285.783 203.258
L289.175 200.848
L292.228 198.639
L293.245 197.846
L295.281 196.333
L295.959 195.909
L299.69 192.96
L300.708 192.181
L302.404 190.863
L304.779 189.22
L306.475 187.896
L310.206 185.246
L311.563 184.343
L313.598 182.968
L314.276 182.483
L315.972 181.329
L319.704 178.646
L321.739 177.235
L323.774 175.731
L324.453 175.278
L339.039 164.716
L342.092 162.741
L344.127 161.27
L345.823 160.096
L347.858 158.58
L352.607 155.421
L357.017 152.591
L363.123 148.711
L363.462 148.395
L364.14 148.026
L365.497 147.2
L368.889 145.219
L370.585 144.2
L371.264 143.73
L372.621 142.898
L375.334 141.131
L377.03 140.131
L378.048 139.541
L382.118 137.232
L384.154 135.985
L385.171 135.468
L386.867 134.387
L395.008 129.488
L398.061 127.634
L399.079 127.007
L405.185 123.363
L406.541 122.509
L409.255 120.947
L411.969 119.34
L418.075 115.507
L419.431 114.716
L420.11 114.259
L424.859 111.505
L425.876 110.876
L430.965 107.805
L433 106.594
L435.374 105.171
L437.749 103.759
L441.48 101.498
L445.89 98.981
L448.603 97.3935
L449.282 96.9734
L453.692 94.5496
L456.066 93.188
L463.529 89.2896
L464.886 88.56
L503.895 69.0728
L506.608 67.9192
L508.304 67.1213
L509.661 66.5553
L509.661 66.5553" style="fill:none;stroke:#bf00bf;stroke-linecap:square;"/>
   </g>
   <g id="line2d_6">
    <path clip-path="url(#p3f6fae7697)" d="
M63.2613 368.738
L64.9573 367.717
L65.9749 367.091
L74.116 362.105
L77.1688 360.029
L79.2041 358.679
L89.0412 352.121
L89.3804 351.955
L90.0588 351.475
L91.4157 350.601
L92.0941 350.12
L98.8783 345.755
L99.5567 345.272
L101.592 343.949
L115.839 334.579
L116.856 333.991
L117.874 333.34
L120.588 331.669
L121.945 330.744
L123.301 329.865
L127.711 326.812
L129.068 325.957
L129.746 325.42
L131.103 324.521
L135.513 321.716
L138.566 319.823
L140.262 318.737
L145.011 315.63
L147.385 313.96
L148.742 313.082
L150.438 311.84
L153.83 309.481
L157.562 307.051
L158.579 306.406
L160.614 304.984
L173.844 296.018
L174.861 295.264
L187.751 286.563
L194.196 282.161
L195.553 281.247
L196.91 280.172
L214.888 267.999
L218.959 265.26
L219.637 264.781
L223.029 262.648
L224.725 261.518
L226.421 260.336
L228.796 258.701
L232.188 256.381
L233.545 255.408
L234.562 254.75
L235.58 253.995
L235.919 253.804
L236.597 253.256
L237.954 252.305
L239.99 250.849
L241.007 250.169
L244.399 247.766
L245.756 246.795
L247.113 245.886
L248.131 245.118
L252.54 241.865
L253.897 240.825
L255.932 239.38
L256.95 238.618
L259.664 236.558
L260.342 236.024
L262.717 234.328
L264.073 233.481
L265.769 232.198
L269.84 229.5
L273.91 226.6
L275.267 225.716
L277.303 224.41
L280.355 222.167
L281.712 221.402
L287.479 217.749
L288.157 217.295
L290.193 216.035
L292.906 214.151
L294.941 212.872
L295.62 212.431
L297.994 210.766
L298.673 210.231
L299.351 209.775
L300.708 208.83
L302.065 207.903
L308.171 203.94
L309.528 203.038
L310.884 202.148
L311.902 201.484
L314.276 199.941
L325.47 192.626
L326.149 192.186
L328.184 190.921
L333.951 187.253
L334.968 186.506
L352.607 175.405
L354.303 174.432
L354.982 173.998
L357.017 172.809
L363.123 169.292
L364.14 168.722
L365.497 167.997
L368.55 166.414
L371.264 164.911
L374.656 163.112
L375.673 162.548
L381.779 159.343
L384.154 158.018
L385.85 157.185
L387.546 156.28
L399.079 150.155
L402.132 148.542
L403.149 148.005
L406.202 146.387
L406.881 145.965
L409.594 144.52
L421.128 138.235
L423.841 136.815
L424.52 136.385
L425.876 135.631
L427.233 134.873
L429.947 133.432
L432.661 131.937
L434.357 131.023
L436.392 129.87
L438.088 128.946
L438.766 128.568
L449.282 123.244
L451.317 122.231
L451.996 121.847
L466.582 114.802
L469.635 113.408
L471.331 112.648
L475.74 110.669
L476.758 110.175
L489.309 104.403
L494.736 101.975
L497.789 100.572
L498.807 100.128
L503.555 98.0724
L506.948 96.7837
L507.965 96.3321
L509.661 95.6932
L509.661 95.6932" style="fill:none;stroke:#bfbf00;stroke-linecap:square;"/>
   </g>
   <g id="line2d_7">
    <path clip-path="url(#p3f6fae7697)" d="
M63.2613 368.738
L73.4375 363.263
L74.4552 362.614
L76.4904 361.377
L78.8649 359.94
L80.2217 359.091
L80.9002 358.687
L81.5786 358.279
L89.0412 353.826
L89.7196 353.43
L99.5567 347.595
L101.931 346.161
L102.61 345.782
L104.984 344.292
L106.341 343.552
L107.359 342.946
L110.072 341.292
L111.429 340.553
L112.786 339.79
L114.482 338.86
L117.874 336.883
L119.57 335.912
L121.605 334.675
L122.623 334.061
L124.319 333.036
L124.658 332.728
L125.337 332.401
L126.354 331.736
L129.068 330.21
L129.407 329.906
L130.086 329.571
L130.764 329.1
L131.782 328.493
L140.601 323.242
L142.297 322.226
L145.011 320.577
L148.064 318.677
L149.76 317.675
L150.438 317.189
L170.791 305.141
L171.469 304.669
L174.183 303.121
L175.2 302.459
L188.09 294.627
L189.786 293.571
L190.465 293.16
L191.483 292.548
L194.535 290.671
L195.214 290.172
L195.553 289.987
L196.231 289.494
L200.302 287.019
L202.337 285.869
L208.443 282.109
L209.8 281.373
L210.478 280.905
L211.157 280.446
L212.514 279.64
L213.531 279.019
L215.566 277.794
L216.584 277.076
L218.619 275.849
L221.672 274.008
L223.368 273.053
L227.439 270.632
L228.456 270.055
L229.135 269.584
L231.509 268.211
L232.188 267.707
L237.954 264.206
L238.972 263.465
L249.148 257.185
L251.523 255.615
L261.36 249.056
L263.395 247.859
L266.109 246.131
L270.518 243.589
L274.928 240.847
L276.624 239.861
L278.32 238.735
L293.245 230.05
L294.263 229.356
L296.977 227.744
L297.655 227.305
L302.743 224.187
L306.814 221.839
L309.528 220.231
L312.58 218.495
L325.47 211.007
L326.149 210.597
L328.523 209.293
L340.396 202.383
L342.092 201.482
L343.109 200.84
L345.145 199.717
L346.501 198.921
L348.537 197.8
L349.893 197.095
L353.625 194.997
L354.303 194.701
L354.982 194.285
L357.695 192.851
L359.731 191.705
L362.783 190.23
L364.479 189.337
L366.176 188.547
L370.585 186.422
L371.942 185.764
L408.577 168.188
L409.255 167.804
L411.29 166.784
L414.343 165.287
L416.379 164.325
L417.735 163.657
L419.431 162.852
L420.11 162.481
L422.484 161.336
L427.233 158.979
L434.017 155.801
L436.392 154.627
L438.088 153.8
L438.766 153.461
L452.335 147.149
L453.013 146.784
L455.388 145.754
L457.423 144.84
L458.441 144.411
L462.85 142.521
L466.242 141.137
L469.635 139.755
L470.991 139.206
L478.454 136.234
L485.238 133.48
L487.273 132.634
L503.895 126.122
L506.948 125.075
L508.983 124.378
L509.661 124.159
L509.661 124.159" style="fill:none;stroke:#000000;stroke-linecap:square;"/>
   </g>
   <g id="line2d_8">
    <path clip-path="url(#p3f6fae7697)" d="
M63.2613 368.738
L65.6357 367.593
L69.367 365.866
L70.3847 365.389
L94.1293 352.936
L95.8254 352.049
L110.072 344.586
L111.09 344.095
L121.266 339.021
L129.407 334.628
L130.086 334.33
L130.764 333.95
L133.138 332.837
L134.495 332.141
L135.513 331.593
L138.566 329.972
L139.923 329.21
L142.976 327.634
L145.011 326.497
L148.742 324.586
L150.438 323.566
L152.134 322.732
L155.866 320.851
L158.579 319.552
L160.275 318.653
L163.667 316.95
L165.363 316.038
L167.738 314.822
L169.095 314.073
L171.808 312.683
L174.183 311.404
L175.879 310.567
L177.575 309.721
L178.253 309.311
L179.61 308.618
L180.967 307.905
L186.055 305.134
L187.073 304.589
L188.769 303.619
L190.126 302.939
L191.483 302.138
L193.179 301.222
L194.535 300.546
L195.214 300.126
L210.817 291.974
L211.496 291.56
L216.923 288.591
L217.602 288.178
L218.959 287.477
L236.937 277.983
L237.615 277.575
L239.311 276.537
L242.364 274.894
L247.452 272.051
L263.056 262.869
L264.413 262.138
L268.144 260.261
L271.536 258.484
L272.893 257.677
L273.571 257.336
L274.25 256.918
L275.607 256.171
L276.285 255.784
L277.642 255.075
L279.677 253.937
L292.567 247.44
L294.263 246.54
L295.959 245.659
L296.638 245.263
L297.994 244.525
L313.598 236.488
L320.721 232.979
L335.986 225.272
L338.36 224.057
L342.092 222.257
L343.109 221.755
L344.466 221.065
L346.841 219.88
L364.819 211.697
L368.889 209.984
L370.585 209.236
L372.281 208.53
L382.458 204.343
L383.475 203.861
L389.242 201.533
L393.991 199.459
L398.74 197.529
L428.929 184.772
L430.286 184.207
L433.339 182.985
L440.123 180.196
L444.872 178.251
L446.229 177.676
L448.603 176.733
L450.3 176.028
L454.37 174.321
L469.974 168.567
L475.062 166.791
L477.097 166.07
L481.846 164.391
L489.309 161.795
L492.362 160.76
L503.555 156.962
L507.965 155.624
L509.661 155.128
L509.661 155.128" style="fill:none;stroke:#0000ff;stroke-linecap:square;"/>
   </g>
   <g id="line2d_9">
    <path clip-path="url(#p3f6fae7697)" d="
M63.2613 368.738
L75.812 363.951
L76.4904 363.61
L95.8254 355.707
L97.5214 355.013
L102.61 352.851
L103.627 352.401
L110.411 349.615
L111.768 349.041
L128.05 342.371
L131.103 341.116
L132.799 340.444
L137.548 338.365
L139.244 337.639
L141.619 336.621
L142.636 336.171
L144.332 335.502
L176.218 322.044
L177.236 321.579
L178.932 320.857
L183.341 318.942
L185.377 318.062
L187.751 317.039
L194.535 314.115
L196.231 313.378
L213.192 306.062
L214.549 305.383
L217.262 304.14
L249.487 290.03
L250.844 289.387
L256.272 286.725
L258.646 285.642
L260.003 284.929
L262.038 284.017
L262.717 283.675
L265.43 282.501
L266.448 282.048
L268.822 281.052
L271.197 280.057
L274.589 278.552
L275.946 277.952
L281.373 275.7
L284.426 274.431
L293.585 270.669
L304.1 266.262
L310.206 263.685
L311.224 263.289
L313.598 262.299
L327.166 256.856
L331.915 254.978
L333.272 254.425
L335.307 253.616
L354.642 245.894
L357.017 245.032
L360.748 243.651
L362.444 243.035
L363.462 242.587
L365.836 241.834
L368.211 241.016
L376.013 238.358
L377.709 237.785
L395.008 231.885
L397.722 230.976
L442.498 215.583
L444.194 215.021
L466.242 207.999
L470.652 206.68
L504.912 196.858
L509.661 195.688
L509.661 195.688" style="fill:none;stroke:#008000;stroke-linecap:square;"/>
   </g>
   <g id="line2d_10">
    <path clip-path="url(#p3f6fae7697)" d="
M63.2613 368.738
L65.6357 367.754
L70.7239 365.641
L135.513 336.917
L174.183 319.488
L175.879 318.693
L177.236 318.063
L184.02 314.895
L185.377 314.267
L186.394 313.805
L188.09 313.016
L189.108 312.536
L204.372 305.452
L208.104 303.7
L210.478 302.569
L212.853 301.508
L214.549 300.714
L218.619 298.849
L219.637 298.385
L222.011 297.245
L223.029 296.794
L225.743 295.574
L226.76 295.054
L242.025 287.971
L243.382 287.347
L244.738 286.664
L246.095 286.053
L247.113 285.55
L249.487 284.344
L266.787 275.811
L269.501 274.616
L277.981 270.746
L278.659 270.458
L279.677 269.985
L291.549 264.801
L292.906 264.168
L294.263 263.555
L295.959 262.779
L301.386 260.42
L302.743 259.844
L305.118 258.764
L307.492 257.677
L313.937 254.81
L315.972 253.976
L320.382 252.112
L322.417 251.218
L324.114 250.465
L336.325 245.269
L339.039 244.058
L342.431 242.609
L344.805 241.577
L348.197 240.131
L360.07 235.354
L370.585 231.351
L374.995 229.722
L378.726 228.265
L398.74 220.765
L407.559 217.469
L417.735 213.691
L450.3 201.86
L467.938 195.9
L496.432 186.834
L498.807 186.139
L501.52 185.263
L505.591 184.158
L509.661 183.05
L509.661 183.05" style="fill:none;stroke:#ff0000;stroke-linecap:square;"/>
   </g>
   <g id="line2d_11">
    <path clip-path="url(#p3f6fae7697)" d="
M63.2613 368.738
L68.3494 366.37
L70.3847 365.46
L71.7415 364.805
L77.8473 361.785
L81.2394 360.007
L82.257 359.544
L84.6315 358.297
L86.3275 357.455
L87.0059 357.088
L89.3804 355.94
L90.0588 355.585
L91.4157 354.913
L92.4333 354.347
L95.8254 352.633
L97.1822 351.935
L98.5391 351.322
L116.517 342.306
L118.213 341.472
L119.909 340.611
L125.337 337.885
L127.033 337.044
L128.729 336.204
L131.103 334.944
L132.121 334.439
L133.817 333.593
L135.513 332.71
L151.456 324.556
L153.491 323.518
L154.848 322.785
L156.205 322.146
L165.024 317.802
L165.703 317.405
L167.399 316.646
L222.69 288.271
L224.047 287.559
L228.117 285.48
L230.492 284.301
L232.188 283.419
L235.919 281.483
L236.597 281.066
L238.972 279.788
L239.99 279.217
L248.809 274.479
L250.505 273.442
L251.183 273.098
L251.862 272.678
L255.254 270.733
L256.611 269.925
L259.324 268.39
L262.038 266.914
L263.056 266.39
L265.43 265.186
L266.109 264.79
L268.822 263.51
L270.179 262.82
L272.893 261.477
L305.118 245.316
L306.814 244.456
L308.849 243.428
L310.206 242.721
L314.616 240.644
L319.025 238.55
L319.704 238.163
L326.149 235.014
L330.898 232.747
L332.933 231.788
L334.29 231.172
L337.343 229.603
L340.056 228.313
L343.448 226.688
L354.642 221.346
L356.338 220.591
L358.713 219.455
L360.07 218.904
L364.14 217.152
L365.158 216.683
L368.211 215.39
L369.907 214.715
L370.924 214.28
L376.013 212.153
L377.03 211.664
L379.066 210.782
L384.832 208.38
L386.867 207.549
L388.563 206.845
L389.92 206.287
L392.634 205.145
L395.348 203.981
L398.4 202.691
L400.097 201.918
L403.828 200.362
L405.524 199.571
L408.238 198.43
L411.969 196.832
L414.683 195.684
L415.7 195.232
L417.057 194.671
L422.145 192.555
L427.233 190.482
L428.929 189.758
L430.625 189.08
L437.749 186.114
L441.819 184.399
L443.855 183.626
L445.551 182.892
L454.031 179.503
L455.388 178.978
L498.467 163.392
L509.661 159.782
L509.661 159.782" style="fill:none;stroke:#00bfbf;stroke-linecap:square;"/>
   </g>
   <g id="line2d_12">
    <path clip-path="url(#p3f6fae7697)" d="
M63.2613 368.738
L68.0102 366.181
L69.7062 365.239
L71.0631 364.568
L73.0983 363.474
L76.8296 361.479
L78.1865 360.608
L78.8649 360.22
L84.2923 357.008
L86.3275 355.9
L87.0059 355.492
L88.702 354.548
L99.8959 348.108
L111.768 341.412
L114.482 339.95
L122.284 335.554
L123.301 334.968
L146.368 321.734
L147.046 321.286
L151.117 318.969
L152.134 318.368
L153.83 317.422
L154.509 316.996
L156.883 315.708
L157.562 315.308
L158.918 314.593
L195.892 293.375
L196.571 292.956
L197.928 292.179
L198.945 291.517
L200.98 290.353
L206.747 286.998
L209.8 285.174
L211.835 284.081
L212.514 283.642
L213.531 283.027
L216.245 281.482
L219.976 279.367
L222.351 277.88
L223.707 277.102
L238.972 267.997
L239.99 267.351
L241.007 266.734
L242.025 266.115
L243.382 265.324
L264.073 252.299
L267.466 250.421
L274.589 246.349
L276.963 244.9
L278.32 244.194
L280.695 242.811
L288.497 238.531
L289.853 237.722
L298.673 232.768
L299.351 232.389
L300.708 231.564
L321.739 219.911
L323.096 219.112
L324.114 218.54
L326.149 217.374
L329.202 215.717
L330.559 214.997
L338.36 210.707
L339.717 209.921
L341.752 208.806
L342.77 208.198
L345.823 206.489
L347.858 205.23
L362.444 198.051
L374.317 192.383
L374.995 192.053
L376.013 191.544
L377.709 190.659
L382.797 188.324
L384.154 187.688
L386.189 186.74
L387.885 185.924
L399.418 180.329
L402.471 178.838
L403.489 178.361
L406.541 176.841
L419.771 170.358
L424.859 168.002
L427.572 166.694
L430.965 165.106
L432.321 164.497
L439.784 160.91
L444.872 158.578
L447.247 157.522
L449.282 156.649
L454.709 154.189
L456.405 153.438
L460.815 151.626
L463.868 150.368
L478.454 144.28
L482.524 142.641
L494.397 137.945
L500.503 135.559
L501.859 135.033
L504.573 134.08
L506.269 133.486
L509.661 132.346
L509.661 132.346" style="fill:none;stroke:#bf00bf;stroke-linecap:square;"/>
   </g>
   <g id="line2d_13">
    <path clip-path="url(#p3f6fae7697)" d="
M63.2613 368.738
L66.6533 366.652
L74.4552 361.889
L75.4728 361.259
L76.4904 360.64
L79.2041 358.798
L80.9002 357.692
L87.3451 353.585
L88.3628 352.947
L100.235 345.234
L102.27 343.95
L102.949 343.43
L104.306 342.605
L105.662 341.711
L109.394 339.264
L116.856 334.561
L117.874 333.896
L120.927 331.931
L121.605 331.44
L124.658 329.542
L129.407 326.437
L130.086 325.988
L136.87 321.625
L140.601 319.417
L142.976 317.837
L164.685 304.021
L166.042 303.177
L170.452 300.315
L171.13 299.813
L172.148 299.144
L174.183 297.863
L177.914 295.412
L182.324 292.594
L185.377 290.746
L187.073 289.569
L188.769 288.461
L190.804 287.188
L192.5 285.978
L195.553 284.098
L197.928 282.575
L198.945 281.826
L200.641 280.722
L203.355 278.837
L208.104 275.746
L209.8 274.597
L211.835 273.326
L215.227 271.019
L216.584 270.134
L224.386 264.947
L230.152 261.161
L233.884 258.704
L234.562 258.207
L236.258 256.984
L238.633 255.388
L242.703 252.565
L243.382 252.091
L249.827 247.622
L250.844 246.926
L252.54 245.733
L253.219 245.208
L256.272 243.07
L260.342 240.105
L276.624 229.374
L278.32 228.389
L278.999 227.887
L306.475 210.226
L308.849 208.711
L309.867 208.036
L310.884 207.373
L313.598 205.73
L314.955 204.947
L318.347 202.855
L330.898 195.016
L332.255 194.154
L334.968 192.416
L337.343 190.898
L338.021 190.436
L341.413 188.425
L342.431 187.736
L350.911 182.346
L352.946 181.145
L353.964 180.546
L357.356 178.712
L359.052 177.713
L363.123 175.611
L363.462 175.303
L364.14 174.992
L364.819 174.564
L368.211 172.792
L369.907 171.857
L371.264 171.195
L376.691 168.073
L382.118 165.308
L382.797 164.902
L390.259 160.973
L392.295 159.855
L400.775 155.233
L401.793 154.627
L405.863 152.437
L408.916 150.831
L411.29 149.517
L427.233 141.029
L429.947 139.561
L435.035 136.86
L439.106 134.589
L457.762 125.141
L462.511 122.999
L471.67 118.722
L474.044 117.596
L476.419 116.475
L496.432 107.391
L499.485 106.031
L501.859 104.963
L504.573 103.908
L507.287 102.846
L509.661 101.974
L509.661 101.974" style="fill:none;stroke:#bfbf00;stroke-linecap:square;"/>
   </g>
   <g id="line2d_14">
    <path clip-path="url(#p3f6fae7697)" d="
M63.2613 368.738
L69.7062 364.287
L71.0631 363.425
L72.7591 362.238
L75.1336 360.562
L76.8296 359.372
L85.3099 353.09
L85.9883 352.597
L88.0236 351.183
L91.4157 348.822
L92.0941 348.281
L111.768 334.181
L112.786 333.502
L123.641 325.719
L125.337 324.536
L127.033 323.304
L129.068 321.876
L137.209 316.054
L137.887 315.576
L166.042 295.6
L166.72 295.084
L169.095 293.424
L171.13 291.907
L171.808 291.367
L174.522 289.362
L175.2 288.826
L175.879 288.361
L178.932 286.168
L180.289 285.15
L181.645 284.147
L200.641 270.521
L203.355 268.501
L207.086 265.845
L207.765 265.306
L208.443 264.794
L210.478 263.281
L216.584 258.794
L217.602 258.029
L218.619 257.27
L220.315 256.067
L221.333 255.3
L222.011 254.834
L222.69 254.294
L230.492 248.616
L231.17 248.06
L231.848 247.53
L243.721 238.507
L252.879 231.085
L253.558 230.476
L254.576 229.633
L255.593 228.737
L265.091 221.399
L265.769 220.87
L267.126 219.89
L271.875 216.324
L281.373 209.413
L286.461 205.981
L287.818 204.973
L288.497 204.51
L291.549 202.318
L303.422 193.86
L305.457 192.473
L309.528 189.707
L311.902 188.13
L313.598 186.947
L314.276 186.477
L319.365 183.068
L324.792 179.332
L326.149 178.334
L327.845 177.141
L333.272 173.43
L334.968 172.242
L337.343 170.609
L338.021 170.069
L340.735 168.254
L345.823 164.668
L347.18 163.69
L353.964 159.077
L355.999 157.845
L359.391 155.687
L361.427 154.467
L363.123 153.465
L363.462 153.086
L364.14 152.742
L364.819 152.296
L367.872 150.504
L371.264 148.586
L372.96 147.545
L374.317 146.708
L374.995 146.274
L376.013 145.65
L379.744 143.468
L381.779 142.414
L386.528 139.587
L387.546 138.88
L398.74 132.156
L401.453 130.432
L404.506 128.65
L406.881 127.177
L410.951 124.825
L413.326 123.291
L417.396 120.859
L418.075 120.406
L419.431 119.625
L420.11 119.16
L423.163 117.359
L425.876 115.759
L427.572 114.741
L434.017 110.928
L436.392 109.493
L438.088 108.493
L438.766 108.074
L441.141 106.663
L444.194 104.906
L445.89 103.998
L460.815 95.8437
L463.529 94.4667
L466.242 93.1042
L481.846 85.0932
L482.864 84.5625
L484.899 83.492
L496.771 77.5991
L498.467 76.7819
L505.93 73.2945
L508.983 71.9827
L509.661 71.697
L509.661 71.697" style="fill:none;stroke:#000000;stroke-linecap:square;"/>
   </g>
   <g id="line2d_15">
    <path clip-path="url(#p3f6fae7697)" d="
M63.2613 368.738
L68.3494 364.998
L69.0278 364.438
L70.3847 363.515
L74.7944 360.131
L76.8296 358.591
L79.2041 356.677
L81.2394 355.044
L81.9178 354.557
L82.9354 353.757
L87.3451 350.234
L88.702 349.252
L89.7196 348.37
L90.398 347.941
L91.0764 347.366
L91.4157 347.13
L92.0941 346.531
L108.376 333.977
L109.055 333.356
L120.588 324.704
L122.962 322.95
L123.641 322.406
L124.997 321.359
L126.354 320.263
L127.033 319.77
L128.729 318.48
L135.174 313.407
L136.87 312.134
L137.548 311.615
L139.583 310.15
L141.279 308.888
L142.636 307.703
L143.315 307.23
L143.993 306.675
L145.689 305.376
L147.724 303.759
L149.76 302.201
L150.438 301.654
L151.456 300.839
L152.813 299.881
L153.83 298.976
L154.509 298.397
L157.901 295.8
L159.936 294.14
L167.738 288.142
L189.786 270.836
L190.804 270.068
L191.483 269.485
L196.231 265.695
L201.659 261.539
L207.086 257.283
L207.765 256.717
L218.28 248.505
L218.959 247.931
L225.743 242.516
L226.76 241.678
L228.456 240.477
L229.813 239.378
L233.205 236.671
L235.58 234.721
L236.597 233.903
L247.791 224.536
L255.254 218.122
L256.95 216.649
L258.646 215.123
L260.003 213.915
L262.717 211.702
L264.413 210.376
L265.091 209.824
L272.554 203.963
L273.232 203.373
L278.32 199.512
L279.338 198.646
L309.867 174.955
L311.224 173.898
L311.902 173.467
L313.598 172.093
L315.294 170.853
L316.99 169.561
L328.184 161.157
L328.862 160.62
L331.237 158.903
L332.594 157.917
L334.29 156.648
L342.77 150.276
L344.466 149.033
L345.145 148.495
L346.162 147.707
L348.197 146.109
L350.233 144.715
L350.911 144.177
L352.946 142.77
L354.642 141.56
L355.321 141.151
L356.678 140.213
L358.374 139.009
L360.409 137.701
L363.123 135.978
L363.462 135.589
L364.14 135.218
L364.819 134.719
L368.211 132.605
L369.568 131.71
L371.603 130.399
L372.281 129.911
L378.387 125.98
L386.867 120.621
L388.563 119.421
L389.581 118.787
L402.81 110.216
L406.202 108.101
L407.898 107.007
L417.396 100.879
L419.092 99.7797
L421.467 98.2537
L422.824 97.3881
L424.859 96.0787
L425.537 95.5887
L433.678 90.3817
L436.053 88.8449
L438.088 87.5324
L438.766 87.0632
L440.462 85.9503
L442.159 84.9235
L450.3 80.0905
L452.335 78.8141
L455.388 76.9709
L457.084 75.9909
L460.476 74.0302
L462.85 72.7469
L464.207 71.9666
L467.26 70.3745
L470.313 68.7087
L475.062 66.0837
L479.132 63.9087
L485.238 60.6355
L491.344 57.4491
L493.04 56.4837
L496.432 54.6743
L497.789 53.9032
L507.965 48.882
L509.661 48.114
L509.661 48.114" style="fill:none;stroke:#0000ff;stroke-linecap:square;"/>
   </g>
   <g id="line2d_16">
    <path clip-path="url(#p3f6fae7697)" d="
M63.2613 368.738
L68.3494 364.865
L69.7062 363.741
L70.7239 363.034
L73.0983 361.226
L74.4552 360.178
L75.1336 359.531
L77.1688 357.897
L82.5962 353.326
L99.8959 339.39
L101.253 338.374
L107.019 333.599
L108.376 332.578
L109.055 331.955
L116.178 326.478
L117.874 325.159
L119.231 324.09
L120.588 322.973
L121.945 321.895
L124.319 320.037
L124.997 319.412
L126.015 318.589
L126.693 318.013
L127.372 317.525
L132.46 313.195
L133.138 312.699
L134.156 311.832
L145.689 302.626
L146.707 301.769
L149.76 299.3
L150.777 298.459
L151.795 297.671
L154.848 295.066
L155.866 294.306
L158.918 291.817
L160.275 290.694
L164.346 287.499
L166.042 286.038
L167.738 284.653
L169.095 283.534
L170.791 282.13
L172.148 280.947
L174.183 279.304
L176.218 277.571
L185.038 270.521
L186.394 269.515
L187.751 268.258
L195.553 262.072
L196.571 261.227
L199.284 259.075
L201.998 256.927
L205.39 254.049
L207.765 252.126
L209.121 251.004
L210.478 249.967
L211.496 249.169
L212.514 248.288
L213.87 247.139
L214.888 246.197
L216.245 245.109
L217.941 243.75
L219.298 242.693
L222.351 240.189
L224.047 238.861
L225.403 237.669
L227.778 235.889
L230.152 233.988
L232.188 232.33
L233.205 231.447
L234.901 230.023
L236.258 228.785
L236.937 228.259
L237.954 227.375
L244.399 221.93
L263.056 205.308
L264.073 204.444
L266.448 202.293
L268.483 200.743
L272.214 197.626
L273.232 196.791
L275.267 195.085
L277.642 193.041
L278.999 191.806
L281.373 189.94
L288.157 184.823
L290.871 182.565
L294.941 179.273
L295.959 178.41
L318.008 160.466
L320.721 158.414
L324.114 155.779
L326.488 154
L328.523 152.345
L333.611 148.458
L334.629 147.64
L350.911 134.982
L352.268 134.029
L353.964 132.788
L355.321 131.848
L357.356 130.363
L360.748 128.026
L363.123 126.477
L363.462 126.138
L364.14 125.697
L365.497 124.803
L367.532 123.475
L369.228 122.313
L371.264 120.965
L374.317 118.915
L374.995 118.474
L376.352 117.499
L379.405 115.489
L384.493 112.04
L386.528 110.731
L387.885 109.689
L403.828 98.8289
L406.202 97.2714
L407.22 96.5718
L408.916 95.4121
L415.7 90.6797
L417.396 89.5791
L418.753 88.6644
L421.467 86.8458
L430.965 80.5014
L431.982 79.7917
L436.053 77.0469
L437.749 75.9172
L438.427 75.4318
L439.445 74.802
L441.819 73.2246
L443.515 72.2185
L452.674 66.4316
L456.745 63.9379
L458.441 62.8996
L459.458 62.3097
L462.85 60.4136
L464.207 59.5787
L468.617 57.0712
L469.974 56.2472
L473.366 54.3763
L475.401 53.2351
L479.132 51.1361
L485.917 47.2047
L494.058 42.6205
L495.075 42.1167
L496.432 41.2827
L498.128 40.3227
L499.146 39.7674
L504.234 37.0326
L508.983 34.7969
L509.661 34.4667
L509.661 34.4667" style="fill:none;stroke:#008000;stroke-linecap:square;"/>
   </g>
   <g id="patch_3">
    <path d="
M63.2613 368.742
L63.2613 23.1417" style="fill:none;stroke:#000000;stroke-linecap:square;stroke-linejoin:miter;"/>
   </g>
   <g id="patch_4">
    <path d="
M509.661 368.742
L509.661 23.1417" style="fill:none;stroke:#000000;stroke-linecap:square;stroke-linejoin:miter;"/>
   </g>
   <g id="patch_5">
    <path d="
M63.2613 23.1417
L509.661 23.1417" style="fill:none;stroke:#000000;stroke-linecap:square;stroke-linejoin:miter;"/>
   </g>
   <g id="patch_6">
    <path d="
M63.2613 368.742
L509.661 368.742" style="fill:none;stroke:#000000;stroke-linecap:square;stroke-linejoin:miter;"/>
   </g>
   <g id="matplotlib.axis_1">
    <g id="xtick_1">
     <g id="line2d_17">
      <defs>
       <path d="
M0 0
L0 -4" id="mc7db9fdffb" style="stroke:#000000;stroke-width:0.5;"/>
      </defs>
      <g>
       <use style="stroke:#000000;stroke-width:0.5;" x="63.26125" xlink:href="#mc7db9fdffb" y="368.74175"/>
      </g>
     </g>
     <g id="line2d_18">
      <defs>
       <path d="
M0 0
L0 4" id="m5a7d422ac3" style="stroke:#000000;stroke-width:0.5;"/>
      </defs>
      <g>
       <use style="stroke:#000000;stroke-width:0.5;" x="63.26125" xlink:href="#m5a7d422ac3" y="23.14175"/>
      </g>
     </g>
     <g id="text_1">
      <!-- 0 -->
      <defs>
       <path d="
M31.7812 66.4062
Q24.1719 66.4062 20.3281 58.9062
Q16.5 51.4219 16.5 36.375
Q16.5 21.3906 20.3281 13.8906
Q24.1719 6.39062 31.7812 6.39062
Q39.4531 6.39062 43.2812 13.8906
Q47.125 21.3906 47.125 36.375
Q47.125 51.4219 43.2812 58.9062
Q39.4531 66.4062 31.7812 66.4062
M31.7812 74.2188
Q44.0469 74.2188 50.5156 64.5156
Q56.9844 54.8281 56.9844 36.375
Q56.9844 17.9688 50.5156 8.26562
Q44.0469 -1.42188 31.7812 -1.42188
Q19.5312 -1.42188 13.0625 8.26562
Q6.59375 17.9688 6.59375 36.375
Q6.59375 54.8281 13.0625 64.5156
Q19.5312 74.2188 31.7812 74.2188" id="DejaVuSans-30"/>
      </defs>
      <g transform="translate(60.2378125 381.859875)scale(0.12 -0.12)">
       <use xlink:href="#DejaVuSans-30"/>
      </g>
     </g>
    </g>
    <g id="xtick_2">
     <g id="line2d_19">
      <g>
       <use style="stroke:#000000;stroke-width:0.5;" x="131.103195289" xlink:href="#mc7db9fdffb" y="368.74175"/>
      </g>
     </g>
     <g id="line2d_20">
      <g>
       <use style="stroke:#000000;stroke-width:0.5;" x="131.103195289" xlink:href="#m5a7d422ac3" y="23.14175"/>
      </g>
     </g>
     <g id="text_2">
      <!-- 200 -->
      <defs>
       <path d="
M19.1875 8.29688
L53.6094 8.29688
L53.6094 0
L7.32812 0
L7.32812 8.29688
Q12.9375 14.1094 22.625 23.8906
Q32.3281 33.6875 34.8125 36.5312
Q39.5469 41.8438 41.4219 45.5312
Q43.3125 49.2188 43.3125 52.7812
Q43.3125 58.5938 39.2344 62.25
Q35.1562 65.9219 28.6094 65.9219
Q23.9688 65.9219 18.8125 64.3125
Q13.6719 62.7031 7.8125 59.4219
L7.8125 69.3906
Q13.7656 71.7812 18.9375 73
Q24.125 74.2188 28.4219 74.2188
Q39.75 74.2188 46.4844 68.5469
Q53.2188 62.8906 53.2188 53.4219
Q53.2188 48.9219 51.5312 44.8906
Q49.8594 40.875 45.4062 35.4062
Q44.1875 33.9844 37.6406 27.2188
Q31.1094 20.4531 19.1875 8.29688" id="DejaVuSans-32"/>
      </defs>
      <g transform="translate(120.488820289 381.859875)scale(0.12 -0.12)">
       <use xlink:href="#DejaVuSans-32"/>
       <use x="63.623046875" xlink:href="#DejaVuSans-30"/>
       <use x="127.24609375" xlink:href="#DejaVuSans-30"/>
      </g>
     </g>
    </g>
    <g id="xtick_3">
     <g id="line2d_21">
      <g>
       <use style="stroke:#000000;stroke-width:0.5;" x="198.945140578" xlink:href="#mc7db9fdffb" y="368.74175"/>
      </g>
     </g>
     <g id="line2d_22">
      <g>
       <use style="stroke:#000000;stroke-width:0.5;" x="198.945140578" xlink:href="#m5a7d422ac3" y="23.14175"/>
      </g>
     </g>
     <g id="text_3">
      <!-- 400 -->
      <defs>
       <path d="
M37.7969 64.3125
L12.8906 25.3906
L37.7969 25.3906
z

M35.2031 72.9062
L47.6094 72.9062
L47.6094 25.3906
L58.0156 25.3906
L58.0156 17.1875
L47.6094 17.1875
L47.6094 0
L37.7969 0
L37.7969 17.1875
L4.89062 17.1875
L4.89062 26.7031
z
" id="DejaVuSans-34"/>
      </defs>
      <g transform="translate(188.184515578 381.859875)scale(0.12 -0.12)">
       <use xlink:href="#DejaVuSans-34"/>
       <use x="63.623046875" xlink:href="#DejaVuSans-30"/>
       <use x="127.24609375" xlink:href="#DejaVuSans-30"/>
      </g>
     </g>
    </g>
    <g id="xtick_4">
     <g id="line2d_23">
      <g>
       <use style="stroke:#000000;stroke-width:0.5;" x="266.787085866" xlink:href="#mc7db9fdffb" y="368.74175"/>
      </g>
     </g>
     <g id="line2d_24">
      <g>
       <use style="stroke:#000000;stroke-width:0.5;" x="266.787085866" xlink:href="#m5a7d422ac3" y="23.14175"/>
      </g>
     </g>
     <g id="text_4">
      <!-- 600 -->
      <defs>
       <path d="
M33.0156 40.375
Q26.375 40.375 22.4844 35.8281
Q18.6094 31.2969 18.6094 23.3906
Q18.6094 15.5312 22.4844 10.9531
Q26.375 6.39062 33.0156 6.39062
Q39.6562 6.39062 43.5312 10.9531
Q47.4062 15.5312 47.4062 23.3906
Q47.4062 31.2969 43.5312 35.8281
Q39.6562 40.375 33.0156 40.375
M52.5938 71.2969
L52.5938 62.3125
Q48.875 64.0625 45.0938 64.9844
Q41.3125 65.9219 37.5938 65.9219
Q27.8281 65.9219 22.6719 59.3281
Q17.5312 52.7344 16.7969 39.4062
Q19.6719 43.6562 24.0156 45.9219
Q28.375 48.1875 33.5938 48.1875
Q44.5781 48.1875 50.9531 41.5156
Q57.3281 34.8594 57.3281 23.3906
Q57.3281 12.1562 50.6875 5.35938
Q44.0469 -1.42188 33.0156 -1.42188
Q20.3594 -1.42188 13.6719 8.26562
Q6.98438 17.9688 6.98438 36.375
Q6.98438 53.6562 15.1875 63.9375
Q23.3906 74.2188 37.2031 74.2188
Q40.9219 74.2188 44.7031 73.4844
Q48.4844 72.75 52.5938 71.2969" id="DejaVuSans-36"/>
      </defs>
      <g transform="translate(256.152085866 381.859875)scale(0.12 -0.12)">
       <use xlink:href="#DejaVuSans-36"/>
       <use x="63.623046875" xlink:href="#DejaVuSans-30"/>
       <use x="127.24609375" xlink:href="#DejaVuSans-30"/>
      </g>
     </g>
    </g>
    <g id="xtick_5">
     <g id="line2d_25">
      <g>
       <use style="stroke:#000000;stroke-width:0.5;" x="334.629031155" xlink:href="#mc7db9fdffb" y="368.74175"/>
      </g>
     </g>
     <g id="line2d_26">
      <g>
       <use style="stroke:#000000;stroke-width:0.5;" x="334.629031155" xlink:href="#m5a7d422ac3" y="23.14175"/>
      </g>
     </g>
     <g id="text_5">
      <!-- 800 -->
      <defs>
       <path d="
M31.7812 34.625
Q24.75 34.625 20.7188 30.8594
Q16.7031 27.0938 16.7031 20.5156
Q16.7031 13.9219 20.7188 10.1562
Q24.75 6.39062 31.7812 6.39062
Q38.8125 6.39062 42.8594 10.1719
Q46.9219 13.9688 46.9219 20.5156
Q46.9219 27.0938 42.8906 30.8594
Q38.875 34.625 31.7812 34.625
M21.9219 38.8125
Q15.5781 40.375 12.0312 44.7188
Q8.5 49.0781 8.5 55.3281
Q8.5 64.0625 14.7188 69.1406
Q20.9531 74.2188 31.7812 74.2188
Q42.6719 74.2188 48.875 69.1406
Q55.0781 64.0625 55.0781 55.3281
Q55.0781 49.0781 51.5312 44.7188
Q48 40.375 41.7031 38.8125
Q48.8281 37.1562 52.7969 32.3125
Q56.7812 27.4844 56.7812 20.5156
Q56.7812 9.90625 50.3125 4.23438
Q43.8438 -1.42188 31.7812 -1.42188
Q19.7344 -1.42188 13.25 4.23438
Q6.78125 9.90625 6.78125 20.5156
Q6.78125 27.4844 10.7812 32.3125
Q14.7969 37.1562 21.9219 38.8125
M18.3125 54.3906
Q18.3125 48.7344 21.8438 45.5625
Q25.3906 42.3906 31.7812 42.3906
Q38.1406 42.3906 41.7188 45.5625
Q45.3125 48.7344 45.3125 54.3906
Q45.3125 60.0625 41.7188 63.2344
Q38.1406 66.4062 31.7812 66.4062
Q25.3906 66.4062 21.8438 63.2344
Q18.3125 60.0625 18.3125 54.3906" id="DejaVuSans-38"/>
      </defs>
      <g transform="translate(323.981843655 381.859875)scale(0.12 -0.12)">
       <use xlink:href="#DejaVuSans-38"/>
       <use x="63.623046875" xlink:href="#DejaVuSans-30"/>
       <use x="127.24609375" xlink:href="#DejaVuSans-30"/>
      </g>
     </g>
    </g>
    <g id="xtick_6">
     <g id="line2d_27">
      <g>
       <use style="stroke:#000000;stroke-width:0.5;" x="402.470976444" xlink:href="#mc7db9fdffb" y="368.74175"/>
      </g>
     </g>
     <g id="line2d_28">
      <g>
       <use style="stroke:#000000;stroke-width:0.5;" x="402.470976444" xlink:href="#m5a7d422ac3" y="23.14175"/>
      </g>
     </g>
     <g id="text_6">
      <!-- 1000 -->
      <defs>
       <path d="
M12.4062 8.29688
L28.5156 8.29688
L28.5156 63.9219
L10.9844 60.4062
L10.9844 69.3906
L28.4219 72.9062
L38.2812 72.9062
L38.2812 8.29688
L54.3906 8.29688
L54.3906 0
L12.4062 0
z
" id="DejaVuSans-31"/>
      </defs>
      <g transform="translate(388.258476444 381.859875)scale(0.12 -0.12)">
       <use xlink:href="#DejaVuSans-31"/>
       <use x="63.623046875" xlink:href="#DejaVuSans-30"/>
       <use x="127.24609375" xlink:href="#DejaVuSans-30"/>
       <use x="190.869140625" xlink:href="#DejaVuSans-30"/>
      </g>
     </g>
    </g>
    <g id="xtick_7">
     <g id="line2d_29">
      <g>
       <use style="stroke:#000000;stroke-width:0.5;" x="470.312921733" xlink:href="#mc7db9fdffb" y="368.74175"/>
      </g>
     </g>
     <g id="line2d_30">
      <g>
       <use style="stroke:#000000;stroke-width:0.5;" x="470.312921733" xlink:href="#m5a7d422ac3" y="23.14175"/>
      </g>
     </g>
     <g id="text_7">
      <!-- 1200 -->
      <g transform="translate(456.100421733 381.859875)scale(0.12 -0.12)">
       <use xlink:href="#DejaVuSans-31"/>
       <use x="63.623046875" xlink:href="#DejaVuSans-32"/>
       <use x="127.24609375" xlink:href="#DejaVuSans-30"/>
       <use x="190.869140625" xlink:href="#DejaVuSans-30"/>
      </g>
     </g>
    </g>
    <g id="text_8">
     <!-- time -->
     <defs>
      <path d="
M9.42188 54.6875
L18.4062 54.6875
L18.4062 0
L9.42188 0
z

M9.42188 75.9844
L18.4062 75.9844
L18.4062 64.5938
L9.42188 64.5938
z
" id="DejaVuSans-69"/>
      <path d="
M18.3125 70.2188
L18.3125 54.6875
L36.8125 54.6875
L36.8125 47.7031
L18.3125 47.7031
L18.3125 18.0156
Q18.3125 11.3281 20.1406 9.42188
Q21.9688 7.51562 27.5938 7.51562
L36.8125 7.51562
L36.8125 0
L27.5938 0
Q17.1875 0 13.2344 3.875
Q9.28125 7.76562 9.28125 18.0156
L9.28125 47.7031
L2.6875 47.7031
L2.6875 54.6875
L9.28125 54.6875
L9.28125 70.2188
z
" id="DejaVuSans-74"/>
      <path d="
M52 44.1875
Q55.375 50.25 60.0625 53.125
Q64.75 56 71.0938 56
Q79.6406 56 84.2812 50.0156
Q88.9219 44.0469 88.9219 33.0156
L88.9219 0
L79.8906 0
L79.8906 32.7188
Q79.8906 40.5781 77.0938 44.375
Q74.3125 48.1875 68.6094 48.1875
Q61.625 48.1875 57.5625 43.5469
Q53.5156 38.9219 53.5156 30.9062
L53.5156 0
L44.4844 0
L44.4844 32.7188
Q44.4844 40.625 41.7031 44.4062
Q38.9219 48.1875 33.1094 48.1875
Q26.2188 48.1875 22.1562 43.5312
Q18.1094 38.875 18.1094 30.9062
L18.1094 0
L9.07812 0
L9.07812 54.6875
L18.1094 54.6875
L18.1094 46.1875
Q21.1875 51.2188 25.4844 53.6094
Q29.7812 56 35.6875 56
Q41.6562 56 45.8281 52.9688
Q50 49.9531 52 44.1875" id="DejaVuSans-6d"/>
      <path d="
M56.2031 29.5938
L56.2031 25.2031
L14.8906 25.2031
Q15.4844 15.9219 20.4844 11.0625
Q25.4844 6.20312 34.4219 6.20312
Q39.5938 6.20312 44.4531 7.46875
Q49.3125 8.73438 54.1094 11.2812
L54.1094 2.78125
Q49.2656 0.734375 44.1875 -0.34375
Q39.1094 -1.42188 33.8906 -1.42188
Q20.7969 -1.42188 13.1562 6.1875
Q5.51562 13.8125 5.51562 26.8125
Q5.51562 40.2344 12.7656 48.1094
Q20.0156 56 32.3281 56
Q43.3594 56 49.7812 48.8906
Q56.2031 41.7969 56.2031 29.5938
M47.2188 32.2344
Q47.125 39.5938 43.0938 43.9844
Q39.0625 48.3906 32.4219 48.3906
Q24.9062 48.3906 20.3906 44.1406
Q15.875 39.8906 15.1875 32.1719
z
" id="DejaVuSans-65"/>
     </defs>
     <g transform="translate(273.386875 398.473625)scale(0.12 -0.12)">
      <use xlink:href="#DejaVuSans-74"/>
      <use x="39.208984375" xlink:href="#DejaVuSans-69"/>
      <use x="66.9921875" xlink:href="#DejaVuSans-6d"/>
      <use x="164.404296875" xlink:href="#DejaVuSans-65"/>
     </g>
    </g>
   </g>
   <g id="matplotlib.axis_2">
    <g id="ytick_1">
     <g id="line2d_31">
      <defs>
       <path d="
M0 0
L4 0" id="md7965d1ba0" style="stroke:#000000;stroke-width:0.5;"/>
      </defs>
      <g>
       <use style="stroke:#000000;stroke-width:0.5;" x="63.26125" xlink:href="#md7965d1ba0" y="368.74175"/>
      </g>
     </g>
     <g id="line2d_32">
      <defs>
       <path d="
M0 0
L-4 0" id="md9a1c1a7cd" style="stroke:#000000;stroke-width:0.5;"/>
      </defs>
      <g>
       <use style="stroke:#000000;stroke-width:0.5;" x="509.66125" xlink:href="#md9a1c1a7cd" y="368.74175"/>
      </g>
     </g>
     <g id="text_9">
      <!-- 0 -->
      <g transform="translate(53.214375 372.053)scale(0.12 -0.12)">
       <use xlink:href="#DejaVuSans-30"/>
      </g>
     </g>
    </g>
    <g id="ytick_2">
     <g id="line2d_33">
      <g>
       <use style="stroke:#000000;stroke-width:0.5;" x="63.26125" xlink:href="#md7965d1ba0" y="330.34175"/>
      </g>
     </g>
     <g id="line2d_34">
      <g>
       <use style="stroke:#000000;stroke-width:0.5;" x="509.66125" xlink:href="#md9a1c1a7cd" y="330.34175"/>
      </g>
     </g>
     <g id="text_10">
      <!-- 500000 -->
      <defs>
       <path d="
M10.7969 72.9062
L49.5156 72.9062
L49.5156 64.5938
L19.8281 64.5938
L19.8281 46.7344
Q21.9688 47.4688 24.1094 47.8281
Q26.2656 48.1875 28.4219 48.1875
Q40.625 48.1875 47.75 41.5
Q54.8906 34.8125 54.8906 23.3906
Q54.8906 11.625 47.5625 5.09375
Q40.2344 -1.42188 26.9062 -1.42188
Q22.3125 -1.42188 17.5469 -0.640625
Q12.7969 0.140625 7.71875 1.70312
L7.71875 11.625
Q12.1094 9.23438 16.7969 8.0625
Q21.4844 6.89062 26.7031 6.89062
Q35.1562 6.89062 40.0781 11.3281
Q45.0156 15.7656 45.0156 23.3906
Q45.0156 31 40.0781 35.4375
Q35.1562 39.8906 26.7031 39.8906
Q22.75 39.8906 18.8125 39.0156
Q14.8906 38.1406 10.7969 36.2812
z
" id="DejaVuSans-35"/>
      </defs>
      <g transform="translate(15.174375 333.653)scale(0.12 -0.12)">
       <use xlink:href="#DejaVuSans-35"/>
       <use x="63.623046875" xlink:href="#DejaVuSans-30"/>
       <use x="127.24609375" xlink:href="#DejaVuSans-30"/>
       <use x="190.869140625" xlink:href="#DejaVuSans-30"/>
       <use x="254.4921875" xlink:href="#DejaVuSans-30"/>
       <use x="318.115234375" xlink:href="#DejaVuSans-30"/>
      </g>
     </g>
    </g>
    <g id="ytick_3">
     <g id="line2d_35">
      <g>
       <use style="stroke:#000000;stroke-width:0.5;" x="63.26125" xlink:href="#md7965d1ba0" y="291.94175"/>
      </g>
     </g>
     <g id="line2d_36">
      <g>
       <use style="stroke:#000000;stroke-width:0.5;" x="509.66125" xlink:href="#md9a1c1a7cd" y="291.94175"/>
      </g>
     </g>
     <g id="text_11">
      <!-- 1000000 -->
      <g transform="translate(7.93125 295.253)scale(0.12 -0.12)">
       <use xlink:href="#DejaVuSans-31"/>
       <use x="63.623046875" xlink:href="#DejaVuSans-30"/>
       <use x="127.24609375" xlink:href="#DejaVuSans-30"/>
       <use x="190.869140625" xlink:href="#DejaVuSans-30"/>
       <use x="254.4921875" xlink:href="#DejaVuSans-30"/>
       <use x="318.115234375" xlink:href="#DejaVuSans-30"/>
       <use x="381.73828125" xlink:href="#DejaVuSans-30"/>
      </g>
     </g>
    </g>
    <g id="ytick_4">
     <g id="line2d_37">
      <g>
       <use style="stroke:#000000;stroke-width:0.5;" x="63.26125" xlink:href="#md7965d1ba0" y="253.54175"/>
      </g>
     </g>
     <g id="line2d_38">
      <g>
       <use style="stroke:#000000;stroke-width:0.5;" x="509.66125" xlink:href="#md9a1c1a7cd" y="253.54175"/>
      </g>
     </g>
     <g id="text_12">
      <!-- 1500000 -->
      <g transform="translate(7.93125 256.853)scale(0.12 -0.12)">
       <use xlink:href="#DejaVuSans-31"/>
       <use x="63.623046875" xlink:href="#DejaVuSans-35"/>
       <use x="127.24609375" xlink:href="#DejaVuSans-30"/>
       <use x="190.869140625" xlink:href="#DejaVuSans-30"/>
       <use x="254.4921875" xlink:href="#DejaVuSans-30"/>
       <use x="318.115234375" xlink:href="#DejaVuSans-30"/>
       <use x="381.73828125" xlink:href="#DejaVuSans-30"/>
      </g>
     </g>
    </g>
    <g id="ytick_5">
     <g id="line2d_39">
      <g>
       <use style="stroke:#000000;stroke-width:0.5;" x="63.26125" xlink:href="#md7965d1ba0" y="215.14175"/>
      </g>
     </g>
     <g id="line2d_40">
      <g>
       <use style="stroke:#000000;stroke-width:0.5;" x="509.66125" xlink:href="#md9a1c1a7cd" y="215.14175"/>
      </g>
     </g>
     <g id="text_13">
      <!-- 2000000 -->
      <g transform="translate(7.4925 218.453)scale(0.12 -0.12)">
       <use xlink:href="#DejaVuSans-32"/>
       <use x="63.623046875" xlink:href="#DejaVuSans-30"/>
       <use x="127.24609375" xlink:href="#DejaVuSans-30"/>
       <use x="190.869140625" xlink:href="#DejaVuSans-30"/>
       <use x="254.4921875" xlink:href="#DejaVuSans-30"/>
       <use x="318.115234375" xlink:href="#DejaVuSans-30"/>
       <use x="381.73828125" xlink:href="#DejaVuSans-30"/>
      </g>
     </g>
    </g>
    <g id="ytick_6">
     <g id="line2d_41">
      <g>
       <use style="stroke:#000000;stroke-width:0.5;" x="63.26125" xlink:href="#md7965d1ba0" y="176.74175"/>
      </g>
     </g>
     <g id="line2d_42">
      <g>
       <use style="stroke:#000000;stroke-width:0.5;" x="509.66125" xlink:href="#md9a1c1a7cd" y="176.74175"/>
      </g>
     </g>
     <g id="text_14">
      <!-- 2500000 -->
      <g transform="translate(7.4925 180.053)scale(0.12 -0.12)">
       <use xlink:href="#DejaVuSans-32"/>
       <use x="63.623046875" xlink:href="#DejaVuSans-35"/>
       <use x="127.24609375" xlink:href="#DejaVuSans-30"/>
       <use x="190.869140625" xlink:href="#DejaVuSans-30"/>
       <use x="254.4921875" xlink:href="#DejaVuSans-30"/>
       <use x="318.115234375" xlink:href="#DejaVuSans-30"/>
       <use x="381.73828125" xlink:href="#DejaVuSans-30"/>
      </g>
     </g>
    </g>
    <g id="ytick_7">
     <g id="line2d_43">
      <g>
       <use style="stroke:#000000;stroke-width:0.5;" x="63.26125" xlink:href="#md7965d1ba0" y="138.34175"/>
      </g>
     </g>
     <g id="line2d_44">
      <g>
       <use style="stroke:#000000;stroke-width:0.5;" x="509.66125" xlink:href="#md9a1c1a7cd" y="138.34175"/>
      </g>
     </g>
     <g id="text_15">
      <!-- 3000000 -->
      <defs>
       <path d="
M40.5781 39.3125
Q47.6562 37.7969 51.625 33
Q55.6094 28.2188 55.6094 21.1875
Q55.6094 10.4062 48.1875 4.48438
Q40.7656 -1.42188 27.0938 -1.42188
Q22.5156 -1.42188 17.6562 -0.515625
Q12.7969 0.390625 7.625 2.20312
L7.625 11.7188
Q11.7188 9.32812 16.5938 8.10938
Q21.4844 6.89062 26.8125 6.89062
Q36.0781 6.89062 40.9375 10.5469
Q45.7969 14.2031 45.7969 21.1875
Q45.7969 27.6406 41.2812 31.2656
Q36.7656 34.9062 28.7188 34.9062
L20.2188 34.9062
L20.2188 43.0156
L29.1094 43.0156
Q36.375 43.0156 40.2344 45.9219
Q44.0938 48.8281 44.0938 54.2969
Q44.0938 59.9062 40.1094 62.9062
Q36.1406 65.9219 28.7188 65.9219
Q24.6562 65.9219 20.0156 65.0312
Q15.375 64.1562 9.8125 62.3125
L9.8125 71.0938
Q15.4375 72.6562 20.3438 73.4375
Q25.25 74.2188 29.5938 74.2188
Q40.8281 74.2188 47.3594 69.1094
Q53.9062 64.0156 53.9062 55.3281
Q53.9062 49.2656 50.4375 45.0938
Q46.9688 40.9219 40.5781 39.3125" id="DejaVuSans-33"/>
      </defs>
      <g transform="translate(7.528125 141.653)scale(0.12 -0.12)">
       <use xlink:href="#DejaVuSans-33"/>
       <use x="63.623046875" xlink:href="#DejaVuSans-30"/>
       <use x="127.24609375" xlink:href="#DejaVuSans-30"/>
       <use x="190.869140625" xlink:href="#DejaVuSans-30"/>
       <use x="254.4921875" xlink:href="#DejaVuSans-30"/>
       <use x="318.115234375" xlink:href="#DejaVuSans-30"/>
       <use x="381.73828125" xlink:href="#DejaVuSans-30"/>
      </g>
     </g>
    </g>
    <g id="ytick_8">
     <g id="line2d_45">
      <g>
       <use style="stroke:#000000;stroke-width:0.5;" x="63.26125" xlink:href="#md7965d1ba0" y="99.94175"/>
      </g>
     </g>
     <g id="line2d_46">
      <g>
       <use style="stroke:#000000;stroke-width:0.5;" x="509.66125" xlink:href="#md9a1c1a7cd" y="99.94175"/>
      </g>
     </g>
     <g id="text_16">
      <!-- 3500000 -->
      <g transform="translate(7.528125 103.253)scale(0.12 -0.12)">
       <use xlink:href="#DejaVuSans-33"/>
       <use x="63.623046875" xlink:href="#DejaVuSans-35"/>
       <use x="127.24609375" xlink:href="#DejaVuSans-30"/>
       <use x="190.869140625" xlink:href="#DejaVuSans-30"/>
       <use x="254.4921875" xlink:href="#DejaVuSans-30"/>
       <use x="318.115234375" xlink:href="#DejaVuSans-30"/>
       <use x="381.73828125" xlink:href="#DejaVuSans-30"/>
      </g>
     </g>
    </g>
    <g id="ytick_9">
     <g id="line2d_47">
      <g>
       <use style="stroke:#000000;stroke-width:0.5;" x="63.26125" xlink:href="#md7965d1ba0" y="61.54175"/>
      </g>
     </g>
     <g id="line2d_48">
      <g>
       <use style="stroke:#000000;stroke-width:0.5;" x="509.66125" xlink:href="#md9a1c1a7cd" y="61.54175"/>
      </g>
     </g>
     <g id="text_17">
      <!-- 4000000 -->
      <g transform="translate(7.2 64.853)scale(0.12 -0.12)">
       <use xlink:href="#DejaVuSans-34"/>
       <use x="63.623046875" xlink:href="#DejaVuSans-30"/>
       <use x="127.24609375" xlink:href="#DejaVuSans-30"/>
       <use x="190.869140625" xlink:href="#DejaVuSans-30"/>
       <use x="254.4921875" xlink:href="#DejaVuSans-30"/>
       <use x="318.115234375" xlink:href="#DejaVuSans-30"/>
       <use x="381.73828125" xlink:href="#DejaVuSans-30"/>
      </g>
     </g>
    </g>
    <g id="ytick_10">
     <g id="line2d_49">
      <g>
       <use style="stroke:#000000;stroke-width:0.5;" x="63.26125" xlink:href="#md7965d1ba0" y="23.14175"/>
      </g>
     </g>
     <g id="line2d_50">
      <g>
       <use style="stroke:#000000;stroke-width:0.5;" x="509.66125" xlink:href="#md9a1c1a7cd" y="23.14175"/>
      </g>
     </g>
     <g id="text_18">
      <!-- 4500000 -->
      <g transform="translate(7.2 26.453)scale(0.12 -0.12)">
       <use xlink:href="#DejaVuSans-34"/>
       <use x="63.623046875" xlink:href="#DejaVuSans-35"/>
       <use x="127.24609375" xlink:href="#DejaVuSans-30"/>
       <use x="190.869140625" xlink:href="#DejaVuSans-30"/>
       <use x="254.4921875" xlink:href="#DejaVuSans-30"/>
       <use x="318.115234375" xlink:href="#DejaVuSans-30"/>
       <use x="381.73828125" xlink:href="#DejaVuSans-30"/>
      </g>
     </g>
    </g>
   </g>
   <g id="text_19">
    <!-- /agas/count/resolve_gid -->
    <defs>
     <path d="
M54.8906 33.0156
L54.8906 0
L45.9062 0
L45.9062 32.7188
Q45.9062 40.4844 42.875 44.3281
Q39.8438 48.1875 33.7969 48.1875
Q26.5156 48.1875 22.3125 43.5469
Q18.1094 38.9219 18.1094 30.9062
L18.1094 0
L9.07812 0
L9.07812 54.6875
L18.1094 54.6875
L18.1094 46.1875
Q21.3438 51.125 25.7031 53.5625
Q30.0781 56 35.7969 56
Q45.2188 56 50.0469 50.1719
Q54.8906 44.3438 54.8906 33.0156" id="DejaVuSans-6e"/>
     <path d="
M9.42188 75.9844
L18.4062 75.9844
L18.4062 0
L9.42188 0
z
" id="DejaVuSans-6c"/>
     <path d="
M34.2812 27.4844
Q23.3906 27.4844 19.1875 25
Q14.9844 22.5156 14.9844 16.5
Q14.9844 11.7188 18.1406 8.90625
Q21.2969 6.10938 26.7031 6.10938
Q34.1875 6.10938 38.7031 11.4062
Q43.2188 16.7031 43.2188 25.4844
L43.2188 27.4844
z

M52.2031 31.2031
L52.2031 0
L43.2188 0
L43.2188 8.29688
Q40.1406 3.32812 35.5469 0.953125
Q30.9531 -1.42188 24.3125 -1.42188
Q15.9219 -1.42188 10.9531 3.29688
Q6 8.01562 6 15.9219
Q6 25.1406 12.1719 29.8281
Q18.3594 34.5156 30.6094 34.5156
L43.2188 34.5156
L43.2188 35.4062
Q43.2188 41.6094 39.1406 45
Q35.0625 48.3906 27.6875 48.3906
Q23 48.3906 18.5469 47.2656
Q14.1094 46.1406 10.0156 43.8906
L10.0156 52.2031
Q14.9375 54.1094 19.5781 55.0469
Q24.2188 56 28.6094 56
Q40.4844 56 46.3438 49.8438
Q52.2031 43.7031 52.2031 31.2031" id="DejaVuSans-61"/>
     <path d="
M48.7812 52.5938
L48.7812 44.1875
Q44.9688 46.2969 41.1406 47.3438
Q37.3125 48.3906 33.4062 48.3906
Q24.6562 48.3906 19.8125 42.8438
Q14.9844 37.3125 14.9844 27.2969
Q14.9844 17.2812 19.8125 11.7344
Q24.6562 6.20312 33.4062 6.20312
Q37.3125 6.20312 41.1406 7.25
Q44.9688 8.29688 48.7812 10.4062
L48.7812 2.09375
Q45.0156 0.34375 40.9844 -0.53125
Q36.9688 -1.42188 32.4219 -1.42188
Q20.0625 -1.42188 12.7812 6.34375
Q5.51562 14.1094 5.51562 27.2969
Q5.51562 40.6719 12.8594 48.3281
Q20.2188 56 33.0156 56
Q37.1562 56 41.1094 55.1406
Q45.0625 54.2969 48.7812 52.5938" id="DejaVuSans-63"/>
     <path d="
M41.1094 46.2969
Q39.5938 47.1719 37.8125 47.5781
Q36.0312 48 33.8906 48
Q26.2656 48 22.1875 43.0469
Q18.1094 38.0938 18.1094 28.8125
L18.1094 0
L9.07812 0
L9.07812 54.6875
L18.1094 54.6875
L18.1094 46.1875
Q20.9531 51.1719 25.4844 53.5781
Q30.0312 56 36.5312 56
Q37.4531 56 38.5781 55.875
Q39.7031 55.7656 41.0625 55.5156
z
" id="DejaVuSans-72"/>
     <path d="
M30.6094 48.3906
Q23.3906 48.3906 19.1875 42.75
Q14.9844 37.1094 14.9844 27.2969
Q14.9844 17.4844 19.1562 11.8438
Q23.3438 6.20312 30.6094 6.20312
Q37.7969 6.20312 41.9844 11.8594
Q46.1875 17.5312 46.1875 27.2969
Q46.1875 37.0156 41.9844 42.7031
Q37.7969 48.3906 30.6094 48.3906
M30.6094 56
Q42.3281 56 49.0156 48.375
Q55.7188 40.7656 55.7188 27.2969
Q55.7188 13.875 49.0156 6.21875
Q42.3281 -1.42188 30.6094 -1.42188
Q18.8438 -1.42188 12.1719 6.21875
Q5.51562 13.875 5.51562 27.2969
Q5.51562 40.7656 12.1719 48.375
Q18.8438 56 30.6094 56" id="DejaVuSans-6f"/>
     <path d="
M45.4062 27.9844
Q45.4062 37.75 41.375 43.1094
Q37.3594 48.4844 30.0781 48.4844
Q22.8594 48.4844 18.8281 43.1094
Q14.7969 37.75 14.7969 27.9844
Q14.7969 18.2656 18.8281 12.8906
Q22.8594 7.51562 30.0781 7.51562
Q37.3594 7.51562 41.375 12.8906
Q45.4062 18.2656 45.4062 27.9844
M54.3906 6.78125
Q54.3906 -7.17188 48.1875 -13.9844
Q42 -20.7969 29.2031 -20.7969
Q24.4688 -20.7969 20.2656 -20.0938
Q16.0625 -19.3906 12.1094 -17.9219
L12.1094 -9.1875
Q16.0625 -11.3281 19.9219 -12.3438
Q23.7812 -13.375 27.7812 -13.375
Q36.625 -13.375 41.0156 -8.76562
Q45.4062 -4.15625 45.4062 5.17188
L45.4062 9.625
Q42.625 4.78125 38.2812 2.39062
Q33.9375 0 27.875 0
Q17.8281 0 11.6719 7.65625
Q5.51562 15.3281 5.51562 27.9844
Q5.51562 40.6719 11.6719 48.3281
Q17.8281 56 27.875 56
Q33.9375 56 38.2812 53.6094
Q42.625 51.2188 45.4062 46.3906
L45.4062 54.6875
L54.3906 54.6875
z
" id="DejaVuSans-67"/>
     <path d="
M44.2812 53.0781
L44.2812 44.5781
Q40.4844 46.5312 36.375 47.5
Q32.2812 48.4844 27.875 48.4844
Q21.1875 48.4844 17.8438 46.4375
Q14.5 44.3906 14.5 40.2812
Q14.5 37.1562 16.8906 35.375
Q19.2812 33.5938 26.5156 31.9844
L29.5938 31.2969
Q39.1562 29.25 43.1875 25.5156
Q47.2188 21.7812 47.2188 15.0938
Q47.2188 7.46875 41.1875 3.01562
Q35.1562 -1.42188 24.6094 -1.42188
Q20.2188 -1.42188 15.4531 -0.5625
Q10.6875 0.296875 5.42188 2
L5.42188 11.2812
Q10.4062 8.6875 15.2344 7.39062
Q20.0625 6.10938 24.8125 6.10938
Q31.1562 6.10938 34.5625 8.28125
Q37.9844 10.4531 37.9844 14.4062
Q37.9844 18.0625 35.5156 20.0156
Q33.0625 21.9688 24.7031 23.7812
L21.5781 24.5156
Q13.2344 26.2656 9.51562 29.9062
Q5.8125 33.5469 5.8125 39.8906
Q5.8125 47.6094 11.2812 51.7969
Q16.75 56 26.8125 56
Q31.7812 56 36.1719 55.2656
Q40.5781 54.5469 44.2812 53.0781" id="DejaVuSans-73"/>
     <path d="
M45.4062 46.3906
L45.4062 75.9844
L54.3906 75.9844
L54.3906 0
L45.4062 0
L45.4062 8.20312
Q42.5781 3.32812 38.25 0.953125
Q33.9375 -1.42188 27.875 -1.42188
Q17.9688 -1.42188 11.7344 6.48438
Q5.51562 14.4062 5.51562 27.2969
Q5.51562 40.1875 11.7344 48.0938
Q17.9688 56 27.875 56
Q33.9375 56 38.25 53.625
Q42.5781 51.2656 45.4062 46.3906
M14.7969 27.2969
Q14.7969 17.3906 18.875 11.75
Q22.9531 6.10938 30.0781 6.10938
Q37.2031 6.10938 41.2969 11.75
Q45.4062 17.3906 45.4062 27.2969
Q45.4062 37.2031 41.2969 42.8438
Q37.2031 48.4844 30.0781 48.4844
Q22.9531 48.4844 18.875 42.8438
Q14.7969 37.2031 14.7969 27.2969" id="DejaVuSans-64"/>
     <path d="
M50.9844 -16.6094
L50.9844 -23.5781
L-0.984375 -23.5781
L-0.984375 -16.6094
z
" id="DejaVuSans-5f"/>
     <path d="
M8.5 21.5781
L8.5 54.6875
L17.4844 54.6875
L17.4844 21.9219
Q17.4844 14.1562 20.5 10.2656
Q23.5312 6.39062 29.5938 6.39062
Q36.8594 6.39062 41.0781 11.0312
Q45.3125 15.6719 45.3125 23.6875
L45.3125 54.6875
L54.2969 54.6875
L54.2969 0
L45.3125 0
L45.3125 8.40625
Q42.0469 3.42188 37.7188 1
Q33.4062 -1.42188 27.6875 -1.42188
Q18.2656 -1.42188 13.375 4.4375
Q8.5 10.2969 8.5 21.5781
M31.1094 56
z
" id="DejaVuSans-75"/>
     <path d="
M25.3906 72.9062
L33.6875 72.9062
L8.29688 -9.28125
L0 -9.28125
z
" id="DejaVuSans-2f"/>
     <path d="
M2.98438 54.6875
L12.5 54.6875
L29.5938 8.79688
L46.6875 54.6875
L56.2031 54.6875
L35.6875 0
L23.4844 0
z
" id="DejaVuSans-76"/>
    </defs>
    <g transform="translate(201.562 18.14175)scale(0.144 -0.144)">
     <use xlink:href="#DejaVuSans-2f"/>
     <use x="33.69140625" xlink:href="#DejaVuSans-61"/>
     <use x="94.970703125" xlink:href="#DejaVuSans-67"/>
     <use x="158.447265625" xlink:href="#DejaVuSans-61"/>
     <use x="219.7265625" xlink:href="#DejaVuSans-73"/>
     <use x="271.826171875" xlink:href="#DejaVuSans-2f"/>
     <use x="305.517578125" xlink:href="#DejaVuSans-63"/>
     <use x="360.498046875" xlink:href="#DejaVuSans-6f"/>
     <use x="421.6796875" xlink:href="#DejaVuSans-75"/>
     <use x="485.05859375" xlink:href="#DejaVuSans-6e"/>
     <use x="548.4375" xlink:href="#DejaVuSans-74"/>
     <use x="587.646484375" xlink:href="#DejaVuSans-2f"/>
     <use x="621.337890625" xlink:href="#DejaVuSans-72"/>
     <use x="660.201171875" xlink:href="#DejaVuSans-65"/>
     <use x="721.724609375" xlink:href="#DejaVuSans-73"/>
     <use x="773.82421875" xlink:href="#DejaVuSans-6f"/>
     <use x="835.005859375" xlink:href="#DejaVuSans-6c"/>
     <use x="862.7890625" xlink:href="#DejaVuSans-76"/>
     <use x="921.96875" xlink:href="#DejaVuSans-65"/>
     <use x="983.4921875" xlink:href="#DejaVuSans-5f"/>
     <use x="1033.4921875" xlink:href="#DejaVuSans-67"/>
     <use x="1096.96875" xlink:href="#DejaVuSans-69"/>
     <use x="1124.751953125" xlink:href="#DejaVuSans-64"/>
    </g>
   </g>
   <g id="legend_1">
    <g id="patch_7">
     <path d="
M516.861 367.194
L648.65 367.194
L648.65 24.6897
L516.861 24.6897
z
" style="fill:#ffffff;stroke:#000000;stroke-linejoin:miter;"/>
    </g>
    <g id="line2d_51">
     <path d="
M526.941 36.3515
L547.101 36.3515" style="fill:none;stroke:#0000ff;stroke-linecap:square;"/>
    </g>
    <g id="line2d_52"/>
    <g id="text_20">
     <!-- locality#0 -->
     <defs>
      <path d="
M51.125 44
L36.9219 44
L32.8125 27.6875
L47.125 27.6875
z

M43.7969 71.7812
L38.7188 51.5156
L52.9844 51.5156
L58.1094 71.7812
L65.9219 71.7812
L60.8906 51.5156
L76.125 51.5156
L76.125 44
L58.9844 44
L54.9844 27.6875
L70.5156 27.6875
L70.5156 20.2188
L53.0781 20.2188
L48 0
L40.1875 0
L45.2188 20.2188
L30.9062 20.2188
L25.875 0
L18.0156 0
L23.0938 20.2188
L7.71875 20.2188
L7.71875 27.6875
L24.9062 27.6875
L29 44
L13.2812 44
L13.2812 51.5156
L30.9062 51.5156
L35.8906 71.7812
z
" id="DejaVuSans-23"/>
      <path d="
M32.1719 -5.07812
Q28.375 -14.8438 24.75 -17.8125
Q21.1406 -20.7969 15.0938 -20.7969
L7.90625 -20.7969
L7.90625 -13.2812
L13.1875 -13.2812
Q16.8906 -13.2812 18.9375 -11.5156
Q21 -9.76562 23.4844 -3.21875
L25.0938 0.875
L2.98438 54.6875
L12.5 54.6875
L29.5938 11.9219
L46.6875 54.6875
L56.2031 54.6875
z
" id="DejaVuSans-79"/>
     </defs>
     <g transform="translate(562.94125 41.3915)scale(0.144 -0.144)">
      <use xlink:href="#DejaVuSans-6c"/>
      <use x="27.783203125" xlink:href="#DejaVuSans-6f"/>
      <use x="88.96484375" xlink:href="#DejaVuSans-63"/>
      <use x="143.9453125" xlink:href="#DejaVuSans-61"/>
      <use x="205.224609375" xlink:href="#DejaVuSans-6c"/>
      <use x="233.0078125" xlink:href="#DejaVuSans-69"/>
      <use x="260.791015625" xlink:href="#DejaVuSans-74"/>
      <use x="300.0" xlink:href="#DejaVuSans-79"/>
      <use x="359.1796875" xlink:href="#DejaVuSans-23"/>
      <use x="442.96875" xlink:href="#DejaVuSans-30"/>
     </g>
    </g>
    <g id="line2d_53">
     <path d="
M526.941 57.488
L547.101 57.488" style="fill:none;stroke:#008000;stroke-linecap:square;"/>
    </g>
    <g id="line2d_54"/>
    <g id="text_21">
     <!-- locality#1 -->
     <g transform="translate(562.94125 62.528)scale(0.144 -0.144)">
      <use xlink:href="#DejaVuSans-6c"/>
      <use x="27.783203125" xlink:href="#DejaVuSans-6f"/>
      <use x="88.96484375" xlink:href="#DejaVuSans-63"/>
      <use x="143.9453125" xlink:href="#DejaVuSans-61"/>
      <use x="205.224609375" xlink:href="#DejaVuSans-6c"/>
      <use x="233.0078125" xlink:href="#DejaVuSans-69"/>
      <use x="260.791015625" xlink:href="#DejaVuSans-74"/>
      <use x="300.0" xlink:href="#DejaVuSans-79"/>
      <use x="359.1796875" xlink:href="#DejaVuSans-23"/>
      <use x="442.96875" xlink:href="#DejaVuSans-31"/>
     </g>
    </g>
    <g id="line2d_55">
     <path d="
M526.941 78.6245
L547.101 78.6245" style="fill:none;stroke:#ff0000;stroke-linecap:square;"/>
    </g>
    <g id="line2d_56"/>
    <g id="text_22">
     <!-- locality#10 -->
     <g transform="translate(562.94125 83.6645)scale(0.144 -0.144)">
      <use xlink:href="#DejaVuSans-6c"/>
      <use x="27.783203125" xlink:href="#DejaVuSans-6f"/>
      <use x="88.96484375" xlink:href="#DejaVuSans-63"/>
      <use x="143.9453125" xlink:href="#DejaVuSans-61"/>
      <use x="205.224609375" xlink:href="#DejaVuSans-6c"/>
      <use x="233.0078125" xlink:href="#DejaVuSans-69"/>
      <use x="260.791015625" xlink:href="#DejaVuSans-74"/>
      <use x="300.0" xlink:href="#DejaVuSans-79"/>
      <use x="359.1796875" xlink:href="#DejaVuSans-23"/>
      <use x="442.96875" xlink:href="#DejaVuSans-31"/>
      <use x="506.591796875" xlink:href="#DejaVuSans-30"/>
     </g>
    </g>
    <g id="line2d_57">
     <path d="
M526.941 99.761
L547.101 99.761" style="fill:none;stroke:#00bfbf;stroke-linecap:square;"/>
    </g>
    <g id="line2d_58"/>
    <g id="text_23">
     <!-- locality#11 -->
     <g transform="translate(562.94125 104.801)scale(0.144 -0.144)">
      <use xlink:href="#DejaVuSans-6c"/>
      <use x="27.783203125" xlink:href="#DejaVuSans-6f"/>
      <use x="88.96484375" xlink:href="#DejaVuSans-63"/>
      <use x="143.9453125" xlink:href="#DejaVuSans-61"/>
      <use x="205.224609375" xlink:href="#DejaVuSans-6c"/>
      <use x="233.0078125" xlink:href="#DejaVuSans-69"/>
      <use x="260.791015625" xlink:href="#DejaVuSans-74"/>
      <use x="300.0" xlink:href="#DejaVuSans-79"/>
      <use x="359.1796875" xlink:href="#DejaVuSans-23"/>
      <use x="442.96875" xlink:href="#DejaVuSans-31"/>
      <use x="506.591796875" xlink:href="#DejaVuSans-31"/>
     </g>
    </g>
    <g id="line2d_59">
     <path d="
M526.941 120.897
L547.101 120.897" style="fill:none;stroke:#bf00bf;stroke-linecap:square;"/>
    </g>
    <g id="line2d_60"/>
    <g id="text_24">
     <!-- locality#12 -->
     <g transform="translate(562.94125 125.9375)scale(0.144 -0.144)">
      <use xlink:href="#DejaVuSans-6c"/>
      <use x="27.783203125" xlink:href="#DejaVuSans-6f"/>
      <use x="88.96484375" xlink:href="#DejaVuSans-63"/>
      <use x="143.9453125" xlink:href="#DejaVuSans-61"/>
      <use x="205.224609375" xlink:href="#DejaVuSans-6c"/>
      <use x="233.0078125" xlink:href="#DejaVuSans-69"/>
      <use x="260.791015625" xlink:href="#DejaVuSans-74"/>
      <use x="300.0" xlink:href="#DejaVuSans-79"/>
      <use x="359.1796875" xlink:href="#DejaVuSans-23"/>
      <use x="442.96875" xlink:href="#DejaVuSans-31"/>
      <use x="506.591796875" xlink:href="#DejaVuSans-32"/>
     </g>
    </g>
    <g id="line2d_61">
     <path d="
M526.941 142.034
L547.101 142.034" style="fill:none;stroke:#bfbf00;stroke-linecap:square;"/>
    </g>
    <g id="line2d_62"/>
    <g id="text_25">
     <!-- locality#13 -->
     <g transform="translate(562.94125 147.074)scale(0.144 -0.144)">
      <use xlink:href="#DejaVuSans-6c"/>
      <use x="27.783203125" xlink:href="#DejaVuSans-6f"/>
      <use x="88.96484375" xlink:href="#DejaVuSans-63"/>
      <use x="143.9453125" xlink:href="#DejaVuSans-61"/>
      <use x="205.224609375" xlink:href="#DejaVuSans-6c"/>
      <use x="233.0078125" xlink:href="#DejaVuSans-69"/>
      <use x="260.791015625" xlink:href="#DejaVuSans-74"/>
      <use x="300.0" xlink:href="#DejaVuSans-79"/>
      <use x="359.1796875" xlink:href="#DejaVuSans-23"/>
      <use x="442.96875" xlink:href="#DejaVuSans-31"/>
      <use x="506.591796875" xlink:href="#DejaVuSans-33"/>
     </g>
    </g>
    <g id="line2d_63">
     <path d="
M526.941 163.17
L547.101 163.17" style="fill:none;stroke:#000000;stroke-linecap:square;"/>
    </g>
    <g id="line2d_64"/>
    <g id="text_26">
     <!-- locality#14 -->
     <g transform="translate(562.94125 168.2105)scale(0.144 -0.144)">
      <use xlink:href="#DejaVuSans-6c"/>
      <use x="27.783203125" xlink:href="#DejaVuSans-6f"/>
      <use x="88.96484375" xlink:href="#DejaVuSans-63"/>
      <use x="143.9453125" xlink:href="#DejaVuSans-61"/>
      <use x="205.224609375" xlink:href="#DejaVuSans-6c"/>
      <use x="233.0078125" xlink:href="#DejaVuSans-69"/>
      <use x="260.791015625" xlink:href="#DejaVuSans-74"/>
      <use x="300.0" xlink:href="#DejaVuSans-79"/>
      <use x="359.1796875" xlink:href="#DejaVuSans-23"/>
      <use x="442.96875" xlink:href="#DejaVuSans-31"/>
      <use x="506.591796875" xlink:href="#DejaVuSans-34"/>
     </g>
    </g>
    <g id="line2d_65">
     <path d="
M526.941 184.307
L547.101 184.307" style="fill:none;stroke:#0000ff;stroke-linecap:square;"/>
    </g>
    <g id="line2d_66"/>
    <g id="text_27">
     <!-- locality#15 -->
     <g transform="translate(562.94125 189.347)scale(0.144 -0.144)">
      <use xlink:href="#DejaVuSans-6c"/>
      <use x="27.783203125" xlink:href="#DejaVuSans-6f"/>
      <use x="88.96484375" xlink:href="#DejaVuSans-63"/>
      <use x="143.9453125" xlink:href="#DejaVuSans-61"/>
      <use x="205.224609375" xlink:href="#DejaVuSans-6c"/>
      <use x="233.0078125" xlink:href="#DejaVuSans-69"/>
      <use x="260.791015625" xlink:href="#DejaVuSans-74"/>
      <use x="300.0" xlink:href="#DejaVuSans-79"/>
      <use x="359.1796875" xlink:href="#DejaVuSans-23"/>
      <use x="442.96875" xlink:href="#DejaVuSans-31"/>
      <use x="506.591796875" xlink:href="#DejaVuSans-35"/>
     </g>
    </g>
    <g id="line2d_67">
     <path d="
M526.941 205.443
L547.101 205.443" style="fill:none;stroke:#008000;stroke-linecap:square;"/>
    </g>
    <g id="line2d_68"/>
    <g id="text_28">
     <!-- locality#2 -->
     <g transform="translate(562.94125 210.4835)scale(0.144 -0.144)">
      <use xlink:href="#DejaVuSans-6c"/>
      <use x="27.783203125" xlink:href="#DejaVuSans-6f"/>
      <use x="88.96484375" xlink:href="#DejaVuSans-63"/>
      <use x="143.9453125" xlink:href="#DejaVuSans-61"/>
      <use x="205.224609375" xlink:href="#DejaVuSans-6c"/>
      <use x="233.0078125" xlink:href="#DejaVuSans-69"/>
      <use x="260.791015625" xlink:href="#DejaVuSans-74"/>
      <use x="300.0" xlink:href="#DejaVuSans-79"/>
      <use x="359.1796875" xlink:href="#DejaVuSans-23"/>
      <use x="442.96875" xlink:href="#DejaVuSans-32"/>
     </g>
    </g>
    <g id="line2d_69">
     <path d="
M526.941 226.58
L547.101 226.58" style="fill:none;stroke:#ff0000;stroke-linecap:square;"/>
    </g>
    <g id="line2d_70"/>
    <g id="text_29">
     <!-- locality#3 -->
     <g transform="translate(562.94125 231.62)scale(0.144 -0.144)">
      <use xlink:href="#DejaVuSans-6c"/>
      <use x="27.783203125" xlink:href="#DejaVuSans-6f"/>
      <use x="88.96484375" xlink:href="#DejaVuSans-63"/>
      <use x="143.9453125" xlink:href="#DejaVuSans-61"/>
      <use x="205.224609375" xlink:href="#DejaVuSans-6c"/>
      <use x="233.0078125" xlink:href="#DejaVuSans-69"/>
      <use x="260.791015625" xlink:href="#DejaVuSans-74"/>
      <use x="300.0" xlink:href="#DejaVuSans-79"/>
      <use x="359.1796875" xlink:href="#DejaVuSans-23"/>
      <use x="442.96875" xlink:href="#DejaVuSans-33"/>
     </g>
    </g>
    <g id="line2d_71">
     <path d="
M526.941 247.716
L547.101 247.716" style="fill:none;stroke:#00bfbf;stroke-linecap:square;"/>
    </g>
    <g id="line2d_72"/>
    <g id="text_30">
     <!-- locality#4 -->
     <g transform="translate(562.94125 252.7565)scale(0.144 -0.144)">
      <use xlink:href="#DejaVuSans-6c"/>
      <use x="27.783203125" xlink:href="#DejaVuSans-6f"/>
      <use x="88.96484375" xlink:href="#DejaVuSans-63"/>
      <use x="143.9453125" xlink:href="#DejaVuSans-61"/>
      <use x="205.224609375" xlink:href="#DejaVuSans-6c"/>
      <use x="233.0078125" xlink:href="#DejaVuSans-69"/>
      <use x="260.791015625" xlink:href="#DejaVuSans-74"/>
      <use x="300.0" xlink:href="#DejaVuSans-79"/>
      <use x="359.1796875" xlink:href="#DejaVuSans-23"/>
      <use x="442.96875" xlink:href="#DejaVuSans-34"/>
     </g>
    </g>
    <g id="line2d_73">
     <path d="
M526.941 268.853
L547.101 268.853" style="fill:none;stroke:#bf00bf;stroke-linecap:square;"/>
    </g>
    <g id="line2d_74"/>
    <g id="text_31">
     <!-- locality#5 -->
     <g transform="translate(562.94125 273.893)scale(0.144 -0.144)">
      <use xlink:href="#DejaVuSans-6c"/>
      <use x="27.783203125" xlink:href="#DejaVuSans-6f"/>
      <use x="88.96484375" xlink:href="#DejaVuSans-63"/>
      <use x="143.9453125" xlink:href="#DejaVuSans-61"/>
      <use x="205.224609375" xlink:href="#DejaVuSans-6c"/>
      <use x="233.0078125" xlink:href="#DejaVuSans-69"/>
      <use x="260.791015625" xlink:href="#DejaVuSans-74"/>
      <use x="300.0" xlink:href="#DejaVuSans-79"/>
      <use x="359.1796875" xlink:href="#DejaVuSans-23"/>
      <use x="442.96875" xlink:href="#DejaVuSans-35"/>
     </g>
    </g>
    <g id="line2d_75">
     <path d="
M526.941 289.989
L547.101 289.989" style="fill:none;stroke:#bfbf00;stroke-linecap:square;"/>
    </g>
    <g id="line2d_76"/>
    <g id="text_32">
     <!-- locality#6 -->
     <g transform="translate(562.94125 295.0295)scale(0.144 -0.144)">
      <use xlink:href="#DejaVuSans-6c"/>
      <use x="27.783203125" xlink:href="#DejaVuSans-6f"/>
      <use x="88.96484375" xlink:href="#DejaVuSans-63"/>
      <use x="143.9453125" xlink:href="#DejaVuSans-61"/>
      <use x="205.224609375" xlink:href="#DejaVuSans-6c"/>
      <use x="233.0078125" xlink:href="#DejaVuSans-69"/>
      <use x="260.791015625" xlink:href="#DejaVuSans-74"/>
      <use x="300.0" xlink:href="#DejaVuSans-79"/>
      <use x="359.1796875" xlink:href="#DejaVuSans-23"/>
      <use x="442.96875" xlink:href="#DejaVuSans-36"/>
     </g>
    </g>
    <g id="line2d_77">
     <path d="
M526.941 311.126
L547.101 311.126" style="fill:none;stroke:#000000;stroke-linecap:square;"/>
    </g>
    <g id="line2d_78"/>
    <g id="text_33">
     <!-- locality#7 -->
     <defs>
      <path d="
M8.20312 72.9062
L55.0781 72.9062
L55.0781 68.7031
L28.6094 0
L18.3125 0
L43.2188 64.5938
L8.20312 64.5938
z
" id="DejaVuSans-37"/>
     </defs>
     <g transform="translate(562.94125 316.166)scale(0.144 -0.144)">
      <use xlink:href="#DejaVuSans-6c"/>
      <use x="27.783203125" xlink:href="#DejaVuSans-6f"/>
      <use x="88.96484375" xlink:href="#DejaVuSans-63"/>
      <use x="143.9453125" xlink:href="#DejaVuSans-61"/>
      <use x="205.224609375" xlink:href="#DejaVuSans-6c"/>
      <use x="233.0078125" xlink:href="#DejaVuSans-69"/>
      <use x="260.791015625" xlink:href="#DejaVuSans-74"/>
      <use x="300.0" xlink:href="#DejaVuSans-79"/>
      <use x="359.1796875" xlink:href="#DejaVuSans-23"/>
      <use x="442.96875" xlink:href="#DejaVuSans-37"/>
     </g>
    </g>
    <g id="line2d_79">
     <path d="
M526.941 332.262
L547.101 332.262" style="fill:none;stroke:#0000ff;stroke-linecap:square;"/>
    </g>
    <g id="line2d_80"/>
    <g id="text_34">
     <!-- locality#8 -->
     <g transform="translate(562.94125 337.3025)scale(0.144 -0.144)">
      <use xlink:href="#DejaVuSans-6c"/>
      <use x="27.783203125" xlink:href="#DejaVuSans-6f"/>
      <use x="88.96484375" xlink:href="#DejaVuSans-63"/>
      <use x="143.9453125" xlink:href="#DejaVuSans-61"/>
      <use x="205.224609375" xlink:href="#DejaVuSans-6c"/>
      <use x="233.0078125" xlink:href="#DejaVuSans-69"/>
      <use x="260.791015625" xlink:href="#DejaVuSans-74"/>
      <use x="300.0" xlink:href="#DejaVuSans-79"/>
      <use x="359.1796875" xlink:href="#DejaVuSans-23"/>
      <use x="442.96875" xlink:href="#DejaVuSans-38"/>
     </g>
    </g>
    <g id="line2d_81">
     <path d="
M526.941 353.399
L547.101 353.399" style="fill:none;stroke:#008000;stroke-linecap:square;"/>
    </g>
    <g id="line2d_82"/>
    <g id="text_35">
     <!-- locality#9 -->
     <defs>
      <path d="
M10.9844 1.51562
L10.9844 10.5
Q14.7031 8.73438 18.5 7.8125
Q22.3125 6.89062 25.9844 6.89062
Q35.75 6.89062 40.8906 13.4531
Q46.0469 20.0156 46.7812 33.4062
Q43.9531 29.2031 39.5938 26.9531
Q35.25 24.7031 29.9844 24.7031
Q19.0469 24.7031 12.6719 31.3125
Q6.29688 37.9375 6.29688 49.4219
Q6.29688 60.6406 12.9375 67.4219
Q19.5781 74.2188 30.6094 74.2188
Q43.2656 74.2188 49.9219 64.5156
Q56.5938 54.8281 56.5938 36.375
Q56.5938 19.1406 48.4062 8.85938
Q40.2344 -1.42188 26.4219 -1.42188
Q22.7031 -1.42188 18.8906 -0.6875
Q15.0938 0.046875 10.9844 1.51562
M30.6094 32.4219
Q37.25 32.4219 41.125 36.9531
Q45.0156 41.5 45.0156 49.4219
Q45.0156 57.2812 41.125 61.8438
Q37.25 66.4062 30.6094 66.4062
Q23.9688 66.4062 20.0938 61.8438
Q16.2188 57.2812 16.2188 49.4219
Q16.2188 41.5 20.0938 36.9531
Q23.9688 32.4219 30.6094 32.4219" id="DejaVuSans-39"/>
     </defs>
     <g transform="translate(562.94125 358.439)scale(0.144 -0.144)">
      <use xlink:href="#DejaVuSans-6c"/>
      <use x="27.783203125" xlink:href="#DejaVuSans-6f"/>
      <use x="88.96484375" xlink:href="#DejaVuSans-63"/>
      <use x="143.9453125" xlink:href="#DejaVuSans-61"/>
      <use x="205.224609375" xlink:href="#DejaVuSans-6c"/>
      <use x="233.0078125" xlink:href="#DejaVuSans-69"/>
      <use x="260.791015625" xlink:href="#DejaVuSans-74"/>
      <use x="300.0" xlink:href="#DejaVuSans-79"/>
      <use x="359.1796875" xlink:href="#DejaVuSans-23"/>
      <use x="442.96875" xlink:href="#DejaVuSans-39"/>
     </g>
    </g>
   </g>
  </g>
 </g>
 <defs>
  <clipPath id="p3f6fae7697">
   <rect height="345.6" width="446.4" x="63.26125" y="23.14175"/>
  </clipPath>
 </defs>
</svg>
