<?xml version="1.0" encoding="utf-8" standalone="no"?>
<!DOCTYPE svg PUBLIC "-//W3C//DTD SVG 1.1//EN"
  "http://www.w3.org/Graphics/SVG/1.1/DTD/svg11.dtd">
<!-- Created with matplotlib (http://matplotlib.org/) -->
<svg height="408pt" version="1.1" viewBox="0 0 640 408" width="640pt" xmlns="http://www.w3.org/2000/svg" xmlns:xlink="http://www.w3.org/1999/xlink">
 <defs>
  <style type="text/css">
*{stroke-linecap:butt;stroke-linejoin:round;}
  </style>
 </defs>
 <g id="figure_1">
  <g id="patch_1">
   <path d="
M0 408.169
L640.288 408.169
L640.288 0
L0 0
z
" style="fill:#ffffff;"/>
  </g>
  <g id="axes_1">
   <g id="patch_2">
    <path d="
M47.6988 368.742
L494.099 368.742
L494.099 23.1417
L47.6988 23.1417
z
" style="fill:#ffffff;"/>
   </g>
   <g id="line2d_1">
    <path clip-path="url(#p80302bff2a)" d="
M47.6988 330.035
L47.8979 368.742
L52.8756 368.742
L53.0747 312.985
L53.2738 368.742
L61.4372 368.742
L61.6363 322.662
L61.8354 368.742
L70.9944 368.742
L71.1935 334.643
L71.3926 368.742
L78.5605 368.742
L78.7596 330.035
L78.9587 368.742
L88.1177 368.742
L88.3168 317.593
L88.5159 368.742
L96.4802 368.742
L96.6793 317.363
L96.8784 368.742
L108.028 368.742
L108.228 325.542
L108.427 368.742
L121.568 368.742
L121.767 345.356
L121.966 368.742
L123.36 368.742
L123.559 338.214
L123.758 368.742
L129.93 368.742
L130.129 322.662
L130.329 368.742
L137.098 368.742
L137.297 351.577
L137.496 368.742
L149.841 368.742
L150.04 345.702
L150.239 368.742
L152.828 368.742
L153.027 265.177
L153.226 368.742
L162.982 368.742
L163.181 333.721
L163.38 368.742
L164.774 368.742
L164.973 325.311
L165.172 368.742
L174.531 368.742
L174.73 292.825
L174.929 368.742
L185.481 368.742
L185.681 306.764
L185.88 368.742
L199.22 368.742
L199.419 336.486
L199.618 368.742
L209.175 368.742
L209.374 301.235
L209.574 368.742
L239.44 368.742
L239.639 274.393
L239.838 368.742
L268.709 368.742
L268.908 327.961
L269.107 368.742
L275.08 368.742
L275.279 345.817
L275.478 368.742
L295.986 368.742
L296.185 276.697
L296.385 368.742
L312.313 368.742
L312.512 329.113
L312.711 368.742
L327.645 368.742
L327.844 291.558
L328.043 368.742
L350.94 368.742
L351.139 342.707
L351.338 368.742
L357.909 368.742
L358.108 346.739
L358.307 368.742
L359.104 368.742
L359.303 277.964
L359.502 368.742
L395.54 368.742
L395.739 346.623
L395.939 368.742
L396.934 368.742
L397.133 332.108
L397.332 368.742
L426.8 368.742
L426.999 346.047
L427.198 368.742
L434.167 368.742
L434.366 347.199
L434.565 368.742
L452.286 368.742
L452.485 245.478
L452.684 368.742
L483.944 368.742
L484.143 334.182
L484.342 368.742
L489.519 368.742
L489.718 233.151
L489.917 368.742
L494.099 368.742
L494.099 368.742" style="fill:none;stroke:#0000ff;stroke-linecap:square;"/>
   </g>
   <g id="line2d_2">
    <path clip-path="url(#p80302bff2a)" d="
M47.6988 255.27
L47.8979 368.742
L60.2426 368.742
L60.4417 343.167
L60.6408 368.742
L68.2069 368.742
L68.406 318.399
L68.6051 368.742
L73.981 368.742
L74.1801 281.996
L74.3792 368.742
L85.3302 368.742
L85.5293 340.979
L85.7284 368.742
L93.4936 368.742
L93.6927 339.596
L93.8918 368.742
L101.458 368.742
L101.657 306.879
L101.856 368.742
L114.798 368.742
L114.997 332.569
L115.196 368.742
L124.953 368.742
L125.152 275.315
L125.351 368.742
L149.841 368.742
L150.04 301.811
L150.239 368.742
L155.814 368.742
L156.013 286.835
L156.213 368.742
L166.367 368.742
L166.566 346.393
L166.765 368.742
L178.114 368.742
L178.314 286.719
L178.513 368.742
L191.853 368.742
L192.052 343.628
L192.251 368.742
L198.822 368.742
L199.021 303.308
L199.22 368.742
L226.299 368.742
L226.498 342.822
L226.697 368.742
L241.033 368.742
L241.232 339.135
L241.431 368.742
L260.545 368.742
L260.744 324.851
L260.943 368.742
L265.324 368.742
L265.523 251.353
L265.722 368.742
L290.61 368.742
L290.81 296.051
L291.009 368.742
L321.472 368.742
L321.671 314.022
L321.87 368.742
L328.242 368.742
L328.441 260.569
L328.64 368.742
L359.502 368.742
L359.701 249.74
L359.9 368.742
L382.598 368.742
L382.797 345.702
L382.997 368.742
L395.54 368.742
L395.739 315.404
L395.939 368.742
L432.375 368.742
L432.574 345.471
L432.774 368.742
L435.561 368.742
L435.76 341.67
L435.959 368.742
L460.051 368.742
L460.25 336.371
L460.45 368.742
L472.993 368.742
L473.192 249.855
L473.392 368.742
L477.971 368.742
L478.17 208.729
L478.369 368.742
L494.099 368.742
L494.099 368.742" style="fill:none;stroke:#008000;stroke-linecap:square;"/>
   </g>
   <g id="line2d_3">
    <path clip-path="url(#p80302bff2a)" d="
M47.6988 287.641
L47.8979 368.742
L53.4729 368.742
L53.672 338.559
L53.8711 368.742
L58.2515 368.742
L58.4506 312.755
L58.6497 368.742
L63.0301 368.742
L63.2292 336.601
L63.4283 368.742
L66.614 368.742
L66.8131 312.294
L67.0122 368.742
L70.1979 368.742
L70.3971 337.868
L70.5962 368.742
L75.3748 368.742
L75.5739 335.219
L75.773 368.742
L81.348 368.742
L81.5471 349.849
L81.7462 368.742
L87.3212 368.742
L87.5203 341.555
L87.7194 368.742
L91.5025 368.742
L91.7016 343.398
L91.9007 368.742
L93.2945 368.742
L93.4936 314.828
L93.6927 368.742
L98.6704 368.742
L98.8695 300.198
L99.0686 368.742
L103.847 368.742
L104.046 344.665
L104.245 368.742
L106.236 368.742
L106.436 266.329
L106.635 368.742
L111.413 368.742
L111.612 348.582
L111.812 368.742
L116.59 368.742
L116.789 282.687
L116.988 368.742
L127.143 368.742
L127.342 297.433
L127.541 368.742
L141.877 368.742
L142.076 300.428
L142.275 368.742
L145.063 368.742
L145.262 273.241
L145.461 368.742
L151.036 368.742
L151.235 321.164
L151.434 368.742
L157.407 368.742
L157.606 338.559
L157.805 368.742
L161.987 368.742
L162.186 326.694
L162.385 368.742
L165.77 368.742
L165.969 243.404
L166.168 368.742
L180.703 368.742
L180.902 322.086
L181.101 368.742
L191.455 368.742
L191.654 339.596
L191.853 368.742
L193.446 368.742
L193.645 309.875
L193.844 368.742
L206.587 368.742
L206.786 344.55
L206.985 368.742
L208.379 368.742
L208.578 348.582
L208.777 368.742
L215.149 368.742
L215.348 342.361
L215.547 368.742
L221.122 368.742
L221.321 339.135
L221.52 368.742
L228.688 368.742
L228.887 278.195
L229.086 368.742
L241.431 368.742
L241.63 347.43
L241.829 368.742
L251.784 368.742
L251.983 300.198
L252.183 368.742
L253.775 368.742
L253.975 309.875
L254.174 368.742
L265.125 368.742
L265.324 334.412
L265.523 368.742
L272.293 368.742
L272.492 341.9
L272.691 368.742
L276.076 368.742
L276.275 287.526
L276.474 368.742
L282.049 368.742
L282.248 309.299
L282.447 368.742
L289.615 368.742
L289.814 309.414
L290.013 368.742
L310.72 368.742
L310.919 279.692
L311.119 368.742
L336.206 368.742
L336.405 325.772
L336.604 368.742
L348.949 368.742
L349.148 319.436
L349.347 368.742
L351.737 368.742
L351.936 272.089
L352.135 368.742
L364.479 368.742
L364.679 258.726
L364.878 368.742
L371.647 368.742
L371.846 266.444
L372.046 368.742
L390.961 368.742
L391.16 307.34
L391.359 368.742
L406.093 368.742
L406.292 311.372
L406.491 368.742
L413.659 368.742
L413.858 314.598
L414.057 368.742
L420.827 368.742
L421.026 344.78
L421.225 368.742
L431.579 368.742
L431.778 276.236
L431.977 368.742
L454.277 368.742
L454.476 304.921
L454.675 368.742
L477.175 368.742
L477.374 334.182
L477.573 368.742
L494.099 368.742
L494.099 368.742" style="fill:none;stroke:#ff0000;stroke-linecap:square;"/>
   </g>
   <g id="line2d_4">
    <path clip-path="url(#p80302bff2a)" d="
M47.6988 331.302
L47.8979 368.742
L53.672 368.742
L53.8711 322.777
L54.0702 368.742
L57.455 368.742
L57.6541 324.966
L57.8533 368.742
L63.0301 368.742
L63.2292 317.247
L63.4283 368.742
L67.4104 368.742
L67.6095 316.902
L67.8087 368.742
L72.3881 368.742
L72.5872 294.323
L72.7864 368.742
L78.5605 368.742
L78.7596 284.07
L78.9587 368.742
L82.3435 368.742
L82.5426 301.465
L82.7417 368.742
L87.9186 368.742
L88.1177 344.089
L88.3168 368.742
L92.2989 368.742
L92.498 312.179
L92.6971 368.742
L100.462 368.742
L100.661 317.593
L100.861 368.742
L109.422 368.742
L109.621 347.545
L109.82 368.742
L115.595 368.742
L115.794 326.348
L115.993 368.742
L124.754 368.742
L124.953 110.233
L125.152 368.742
L135.505 368.742
L135.704 348.812
L135.904 368.742
L139.488 368.742
L139.687 313.1
L139.886 368.742
L145.262 368.742
L145.461 277.273
L145.66 368.742
L150.837 368.742
L151.036 321.51
L151.235 368.742
L163.38 368.742
L163.58 347.084
L163.779 368.742
L164.376 368.742
L164.575 262.527
L164.774 368.742
L174.531 368.742
L174.73 331.417
L174.929 368.742
L178.911 368.742
L179.11 215.871
L179.309 368.742
L194.441 368.742
L194.64 345.471
L194.84 368.742
L202.804 368.742
L203.003 333.951
L203.202 368.742
L205.193 368.742
L205.392 285.798
L205.591 368.742
L230.48 368.742
L230.679 340.057
L230.878 368.742
L240.037 368.742
L240.236 210.111
L240.435 368.742
L261.142 368.742
L261.342 289.484
L261.541 368.742
L283.044 368.742
L283.243 350.195
L283.443 368.742
L289.217 368.742
L289.416 280.038
L289.615 368.742
L310.521 368.742
L310.72 321.74
L310.919 368.742
L321.87 368.742
L322.069 270.476
L322.269 368.742
L343.971 368.742
L344.17 275.775
L344.37 368.742
L369.457 368.742
L369.656 333.03
L369.855 368.742
L370.453 368.742
L370.652 322.777
L370.851 368.742
L383.395 368.742
L383.594 270.591
L383.793 368.742
L408.084 368.742
L408.283 343.283
L408.482 368.742
L409.876 368.742
L410.075 282.342
L410.274 368.742
L426.8 368.742
L426.999 255.039
L427.198 368.742
L457.861 368.742
L458.06 348.927
L458.259 368.742
L470.206 368.742
L470.405 345.011
L470.604 368.742
L475.383 368.742
L475.582 322.316
L475.781 368.742
L494.099 368.742
L494.099 368.742" style="fill:none;stroke:#00bfbf;stroke-linecap:square;"/>
   </g>
   <g id="line2d_5">
    <path clip-path="url(#p80302bff2a)" d="
M47.6988 338.214
L47.8979 368.742
L54.2693 368.742
L54.4684 331.763
L54.6675 368.742
L57.6541 368.742
L57.8533 326.579
L58.0524 368.742
L63.0301 368.742
L63.2292 339.481
L63.4283 368.742
L70.3971 368.742
L70.5962 281.996
L70.7953 368.742
L74.3792 368.742
L74.5783 325.311
L74.7774 368.742
L78.3614 368.742
L78.5605 342.476
L78.7596 368.742
L83.14 368.742
L83.3391 317.478
L83.5382 368.742
L87.7194 368.742
L87.9186 330.495
L88.1177 368.742
L95.8829 368.742
L96.082 315.635
L96.2811 368.742
L99.2677 368.742
L99.4668 337.753
L99.6659 368.742
L103.847 368.742
L104.046 306.879
L104.245 368.742
L108.427 368.742
L108.626 334.067
L108.825 368.742
L113.006 368.742
L113.205 309.759
L113.404 368.742
L116.988 368.742
L117.187 295.359
L117.387 368.742
L124.156 368.742
L124.355 349.503
L124.554 368.742
L129.333 368.742
L129.532 319.897
L129.731 368.742
L137.696 368.742
L137.895 342.937
L138.094 368.742
L143.271 368.742
L143.47 326.348
L143.669 368.742
L151.832 368.742
L152.031 347.084
L152.23 368.742
L157.208 368.742
L157.407 332.108
L157.606 368.742
L163.978 368.742
L164.177 347.315
L164.376 368.742
L167.164 368.742
L167.363 327.385
L167.562 368.742
L174.929 368.742
L175.128 333.721
L175.327 368.742
L178.114 368.742
L178.314 305.151
L178.513 368.742
L187.273 368.742
L187.473 299.161
L187.672 368.742
L190.857 368.742
L191.056 304.806
L191.256 368.742
L195.437 368.742
L195.636 342.937
L195.835 368.742
L200.215 368.742
L200.415 322.892
L200.614 368.742
L203.401 368.742
L203.6 334.758
L203.799 368.742
L212.759 368.742
L212.958 332.108
L213.157 368.742
L219.33 368.742
L219.529 345.471
L219.728 368.742
L231.077 368.742
L231.276 331.993
L231.475 368.742
L240.634 368.742
L240.833 348.006
L241.033 368.742
L246.209 368.742
L246.408 337.062
L246.608 368.742
L258.952 368.742
L259.151 312.409
L259.35 368.742
L263.731 368.742
L263.93 340.057
L264.129 368.742
L278.067 368.742
L278.266 345.587
L278.465 368.742
L279.46 368.742
L279.659 334.067
L279.859 368.742
L295.986 368.742
L296.185 333.26
L296.385 368.742
L306.141 368.742
L306.34 337.523
L306.539 368.742
L313.508 368.742
L313.707 325.081
L313.906 368.742
L321.472 368.742
L321.671 334.988
L321.87 368.742
L326.251 368.742
L326.45 348.927
L326.649 368.742
L342.179 368.742
L342.379 345.471
L342.578 368.742
L344.569 368.742
L344.768 313.1
L344.967 368.742
L382.001 368.742
L382.2 332.569
L382.399 368.742
L394.346 368.742
L394.545 339.827
L394.744 368.742
L407.686 368.742
L407.885 332.569
L408.084 368.742
L416.048 368.742
L416.248 308.492
L416.447 368.742
L456.467 368.742
L456.666 341.9
L456.866 368.742
L471.799 368.742
L471.998 345.241
L472.197 368.742
L481.157 368.742
L481.356 343.628
L481.555 368.742
L494.099 368.742
L494.099 368.742" style="fill:none;stroke:#bf00bf;stroke-linecap:square;"/>
   </g>
   <g id="line2d_6">
    <path clip-path="url(#p80302bff2a)" d="
M47.6988 337.638
L47.8979 368.742
L53.4729 368.742
L53.672 341.094
L53.8711 368.742
L58.6497 368.742
L58.8488 311.027
L59.0479 368.742
L63.8265 368.742
L64.0256 311.027
L64.2247 368.742
L69.7997 368.742
L69.9988 319.551
L70.1979 368.742
L79.3569 368.742
L79.556 340.057
L79.7551 368.742
L86.923 368.742
L87.1221 280.729
L87.3212 368.742
L91.3034 368.742
L91.5025 347.084
L91.7016 368.742
L98.8695 368.742
L99.0686 321.74
L99.2677 368.742
L109.621 368.742
L109.82 336.255
L110.02 368.742
L115.395 368.742
L115.595 318.054
L115.794 368.742
L119.776 368.742
L119.975 323.123
L120.174 368.742
L129.93 368.742
L130.129 336.947
L130.329 368.742
L132.917 368.742
L133.116 342.707
L133.315 368.742
L135.704 368.742
L135.904 346.969
L136.103 368.742
L146.655 368.742
L146.855 321.625
L147.054 368.742
L150.04 368.742
L150.239 352.038
L150.438 368.742
L158.005 368.742
L158.204 316.211
L158.403 368.742
L161.788 368.742
L161.987 346.854
L162.186 368.742
L168.756 368.742
L168.955 325.196
L169.155 368.742
L177.517 368.742
L177.716 338.099
L177.915 368.742
L179.906 368.742
L180.106 337.868
L180.305 368.742
L190.459 368.742
L190.658 322.316
L190.857 368.742
L200.813 368.742
L201.012 347.084
L201.211 368.742
L208.777 368.742
L208.976 341.094
L209.175 368.742
L224.905 368.742
L225.104 340.748
L225.303 368.742
L235.458 368.742
L235.657 317.132
L235.856 368.742
L245.214 368.742
L245.413 344.895
L245.612 368.742
L255.368 368.742
L255.567 332.915
L255.767 368.742
L266.12 368.742
L266.319 328.191
L266.518 368.742
L275.279 368.742
L275.478 343.052
L275.677 368.742
L279.062 368.742
L279.261 350.655
L279.46 368.742
L287.823 368.742
L288.022 263.103
L288.221 368.742
L316.893 368.742
L317.092 346.969
L317.291 368.742
L326.45 368.742
L326.649 345.011
L326.848 368.742
L342.379 368.742
L342.578 344.204
L342.777 368.742
L356.316 368.742
L356.515 342.707
L356.714 368.742
L362.688 368.742
L362.887 345.817
L363.086 368.742
L372.444 368.742
L372.643 329.574
L372.842 368.742
L393.35 368.742
L393.549 337.177
L393.748 368.742
L425.407 368.742
L425.606 330.035
L425.805 368.742
L459.056 368.742
L459.255 338.214
L459.454 368.742
L460.051 368.742
L460.25 342.361
L460.45 368.742
L485.139 368.742
L485.338 333.491
L485.537 368.742
L494.099 368.742
L494.099 368.742" style="fill:none;stroke:#bfbf00;stroke-linecap:square;"/>
   </g>
   <g id="line2d_7">
    <path clip-path="url(#p80302bff2a)" d="
M47.6988 342.338
L47.8979 368.742
L53.2738 368.742
L53.4729 325.334
L53.672 368.742
L60.0434 368.742
L60.2426 284.139
L60.4417 368.742
L66.8131 368.742
L67.0122 316.879
L67.2113 368.742
L74.3792 368.742
L74.5783 339.435
L74.7774 368.742
L84.3346 368.742
L84.5337 314.874
L84.7328 368.742
L91.9007 368.742
L92.0998 339.285
L92.2989 368.742
L103.449 368.742
L103.648 319.344
L103.847 368.742
L114.201 368.742
L114.4 349.411
L114.599 368.742
L123.161 368.742
L123.36 344.17
L123.559 368.742
L132.121 368.742
L132.32 341.186
L132.519 368.742
L140.881 368.742
L141.08 345.264
L141.279 368.742
L148.447 368.742
L148.646 293.228
L148.846 368.742
L150.837 368.742
L151.036 342.96
L151.235 368.742
L156.013 368.742
L156.213 328.548
L156.412 368.742
L168.358 368.742
L168.557 273.379
L168.756 368.742
L178.114 368.742
L178.314 341.727
L178.513 368.742
L183.49 368.742
L183.689 347.361
L183.889 368.742
L193.048 368.742
L193.247 332.834
L193.446 368.742
L201.012 368.742
L201.211 343.824
L201.41 368.742
L208.379 368.742
L208.578 345.679
L208.777 368.742
L220.923 368.742
L221.122 345.241
L221.321 368.742
L231.674 368.742
L231.874 340.541
L232.073 368.742
L242.625 368.742
L242.825 335.357
L243.024 368.742
L249.594 368.742
L249.793 344.262
L249.992 368.742
L263.93 368.742
L264.129 342.038
L264.328 368.742
L277.668 368.742
L277.868 339.089
L278.067 368.742
L285.035 368.742
L285.235 283.978
L285.434 368.742
L306.34 368.742
L306.539 341.347
L306.738 368.742
L319.282 368.742
L319.481 341.808
L319.68 368.742
L334.215 368.742
L334.414 342.879
L334.613 368.742
L347.157 368.742
L347.356 341.485
L347.555 368.742
L361.095 368.742
L361.294 346.163
L361.493 368.742
L369.656 368.742
L369.855 348.524
L370.055 368.742
L381.205 368.742
L381.404 274.923
L381.603 368.742
L406.292 368.742
L406.491 310.116
L406.69 368.742
L435.163 368.742
L435.362 346.243
L435.561 368.742
L445.915 368.742
L446.114 337.592
L446.313 368.742
L468.613 368.742
L468.812 337.154
L469.011 368.742
L472.197 368.742
L472.396 336.267
L472.595 368.742
L494.099 368.742
L494.099 368.742" style="fill:none;stroke:#000000;stroke-linecap:square;"/>
   </g>
   <g id="line2d_8">
    <path clip-path="url(#p80302bff2a)" d="
M47.6988 142.961
L47.8979 368.742
L57.0568 368.742
L57.2559 341.889
L57.455 368.742
L67.6095 368.742
L67.8087 295.302
L68.0078 368.742
L75.1756 368.742
L75.3748 337.615
L75.5739 368.742
L87.5203 368.742
L87.7194 279.75
L87.9186 368.742
L94.29 368.742
L94.4891 335.795
L94.6882 368.742
L102.653 368.742
L102.852 338.778
L103.051 368.742
L115.595 368.742
L115.794 340.541
L115.993 368.742
L123.161 368.742
L123.36 348.524
L123.559 368.742
L136.103 368.742
L136.302 324.701
L136.501 368.742
L144.067 368.742
L144.266 340.437
L144.465 368.742
L145.66 368.742
L145.859 345.31
L146.058 368.742
L164.973 368.742
L165.172 335.437
L165.372 368.742
L176.721 368.742
L176.92 346.116
L177.119 368.742
L184.287 368.742
L184.486 347.257
L184.685 368.742
L196.034 368.742
L196.233 341.359
L196.432 368.742
L204.596 368.742
L204.795 346.957
L204.994 368.742
L219.529 368.742
L219.728 335.207
L219.927 368.742
L231.874 368.742
L232.073 345.241
L232.272 368.742
L244.218 368.742
L244.417 318.883
L244.617 368.742
L251.983 368.742
L252.183 301.788
L252.382 368.742
L294.991 368.742
L295.19 344.308
L295.389 368.742
L313.11 368.742
L313.309 336.647
L313.508 368.742
L331.228 368.742
L331.428 345.875
L331.627 368.742
L346.958 368.742
L347.157 345.425
L347.356 368.742
L362.887 368.742
L363.086 340.472
L363.285 368.742
L375.63 368.742
L375.829 314.068
L376.028 368.742
L418.438 368.742
L418.637 339.596
L418.836 368.742
L439.742 368.742
L439.941 346.128
L440.14 368.742
L455.87 368.742
L456.069 348.236
L456.268 368.742
L478.767 368.742
L478.967 335.795
L479.166 368.742
L494.099 368.742
L494.099 368.742" style="fill:none;stroke:#0000ff;stroke-linecap:square;"/>
   </g>
   <g id="line2d_9">
    <path clip-path="url(#p80302bff2a)" d="
M47.6988 262.297
L47.8979 368.742
L53.2738 368.742
L53.4729 346.739
L53.672 368.742
L59.0479 368.742
L59.247 326.233
L59.4461 368.742
L72.9855 368.742
L73.1846 331.647
L73.3837 368.742
L83.3391 368.742
L83.5382 315.865
L83.7373 368.742
L90.3078 368.742
L90.507 311.603
L90.7061 368.742
L97.0775 368.742
L97.2766 263.334
L97.4757 368.742
L106.037 368.742
L106.236 300.083
L106.436 368.742
L117.387 368.742
L117.586 331.532
L117.785 368.742
L124.156 368.742
L124.355 296.051
L124.554 368.742
L130.926 368.742
L131.125 328.998
L131.324 368.742
L142.872 368.742
L143.071 306.419
L143.271 368.742
L145.063 368.742
L145.262 327.615
L145.461 368.742
L157.407 368.742
L157.606 266.559
L157.805 368.742
L162.385 368.742
L162.584 239.257
L162.783 368.742
L169.553 368.742
L169.752 295.244
L169.951 368.742
L174.929 368.742
L175.128 313.446
L175.327 368.742
L185.88 368.742
L186.079 294.323
L186.278 368.742
L190.459 368.742
L190.658 310.105
L190.857 368.742
L195.437 368.742
L195.636 336.371
L195.835 368.742
L196.432 368.742
L196.631 246.284
L196.831 368.742
L209.574 368.742
L209.773 337.983
L209.972 368.742
L216.741 368.742
L216.94 319.897
L217.14 368.742
L232.869 368.742
L233.068 193.062
L233.267 368.742
L256.961 368.742
L257.16 163.455
L257.359 368.742
L278.266 368.742
L278.465 256.076
L278.664 368.742
L301.163 368.742
L301.362 346.047
L301.561 368.742
L309.327 368.742
L309.526 332.915
L309.725 368.742
L325.853 368.742
L326.052 316.787
L326.251 368.742
L342.379 368.742
L342.578 245.939
L342.777 368.742
L358.705 368.742
L358.904 308.607
L359.104 368.742
L376.824 368.742
L377.023 244.787
L377.222 368.742
L406.093 368.742
L406.292 297.548
L406.491 368.742
L436.557 368.742
L436.756 255.731
L436.955 368.742
L454.675 368.742
L454.874 239.257
L455.074 368.742
L494.099 368.742
L494.099 368.742" style="fill:none;stroke:#008000;stroke-linecap:square;"/>
   </g>
   <g id="line2d_10">
    <path clip-path="url(#p80302bff2a)" d="
M47.6988 258.495
L47.8979 368.742
L58.2515 368.742
L58.4506 321.855
L58.6497 368.742
L64.6229 368.742
L64.822 329.919
L65.0211 368.742
L71.9899 368.742
L72.189 302.732
L72.3881 368.742
L75.1756 368.742
L75.3748 254.809
L75.5739 368.742
L86.923 368.742
L87.1221 318.745
L87.3212 368.742
L99.6659 368.742
L99.865 334.988
L100.064 368.742
L106.834 368.742
L107.033 332.339
L107.232 368.742
L116.192 368.742
L116.391 334.297
L116.59 368.742
L125.55 368.742
L125.749 324.505
L125.948 368.742
L130.528 368.742
L130.727 304.921
L130.926 368.742
L142.673 368.742
L142.872 149.862
L143.071 368.742
L150.438 368.742
L150.638 314.022
L150.837 368.742
L155.217 368.742
L155.416 294.783
L155.615 368.742
L166.765 368.742
L166.964 326.118
L167.164 368.742
L178.314 368.742
L178.513 301.926
L178.712 368.742
L185.083 368.742
L185.282 305.267
L185.481 368.742
L198.423 368.742
L198.623 327.846
L198.822 368.742
L203.202 368.742
L203.401 293.631
L203.6 368.742
L228.29 368.742
L228.489 307.455
L228.688 368.742
L246.01 368.742
L246.209 266.559
L246.408 368.742
L263.532 368.742
L263.731 294.092
L263.93 368.742
L274.284 368.742
L274.483 323.238
L274.682 368.742
L278.664 368.742
L278.863 268.748
L279.062 368.742
L291.407 368.742
L291.606 303.423
L291.805 368.742
L305.942 368.742
L306.141 343.513
L306.34 368.742
L307.136 368.742
L307.336 293.401
L307.535 368.742
L322.468 368.742
L322.667 307.455
L322.866 368.742
L332.423 368.742
L332.622 345.011
L332.821 368.742
L343.772 368.742
L343.971 298.239
L344.17 368.742
L369.656 368.742
L369.855 346.393
L370.055 368.742
L374.037 368.742
L374.236 319.206
L374.435 368.742
L396.536 368.742
L396.735 340.979
L396.934 368.742
L417.442 368.742
L417.641 340.287
L417.84 368.742
L423.017 368.742
L423.216 186.38
L423.415 368.742
L491.709 368.742
L491.909 335.564
L492.108 368.742
L494.099 368.742
L494.099 368.742" style="fill:none;stroke:#ff0000;stroke-linecap:square;"/>
   </g>
   <g id="line2d_11">
    <path clip-path="url(#p80302bff2a)" d="
M47.6988 345.149
L47.8979 368.742
L56.0613 368.742
L56.2604 337.672
L56.4595 368.742
L63.6274 368.742
L63.8265 343.87
L64.0256 368.742
L69.2024 368.742
L69.4015 269.347
L69.6006 368.742
L72.9855 368.742
L73.1846 342.05
L73.3837 368.742
L82.5426 368.742
L82.7417 317.685
L82.9409 368.742
L88.1177 368.742
L88.3168 305.255
L88.5159 368.742
L97.4757 368.742
L97.6748 331.682
L97.874 368.742
L105.042 368.742
L105.241 329.908
L105.44 368.742
L110.617 368.742
L110.816 316.222
L111.015 368.742
L120.771 368.742
L120.97 340.633
L121.17 368.742
L129.731 368.742
L129.93 346.232
L130.129 368.742
L136.103 368.742
L136.302 339.331
L136.501 368.742
L145.859 368.742
L146.058 279.98
L146.257 368.742
L154.421 368.742
L154.62 334.804
L154.819 368.742
L160.195 368.742
L160.394 324.424
L160.593 368.742
L167.562 368.742
L167.761 346.128
L167.96 368.742
L173.535 368.742
L173.734 280.084
L173.933 368.742
L187.074 368.742
L187.273 335.691
L187.473 368.742
L191.654 368.742
L191.853 301.661
L192.052 368.742
L198.224 368.742
L198.423 246.48
L198.623 368.742
L206.985 368.742
L207.184 221.424
L207.383 368.742
L227.692 368.742
L227.891 327.35
L228.091 368.742
L235.458 368.742
L235.657 311.372
L235.856 368.742
L258.355 368.742
L258.554 348.858
L258.753 368.742
L274.682 368.742
L274.881 345.264
L275.08 368.742
L282.248 368.742
L282.447 236.469
L282.646 368.742
L309.327 368.742
L309.526 340.656
L309.725 368.742
L319.481 368.742
L319.68 234.015
L319.879 368.742
L359.701 368.742
L359.9 319.436
L360.099 368.742
L375.829 368.742
L376.028 332.961
L376.227 368.742
L383.793 368.742
L383.992 287.019
L384.191 368.742
L402.509 368.742
L402.708 305.082
L402.907 368.742
L420.827 368.742
L421.026 314.874
L421.225 368.742
L460.848 368.742
L461.047 342.303
L461.246 368.742
L475.582 368.742
L475.781 264.866
L475.98 368.742
L480.958 368.742
L481.157 285.291
L481.356 368.742
L494.099 368.742
L494.099 368.742" style="fill:none;stroke:#00bfbf;stroke-linecap:square;"/>
   </g>
   <g id="line2d_12">
    <path clip-path="url(#p80302bff2a)" d="
M47.6988 345.31
L47.8979 368.742
L53.2738 368.742
L53.4729 339.688
L53.672 368.742
L60.0434 368.742
L60.2426 340.391
L60.4417 368.742
L65.8176 368.742
L66.0167 342.188
L66.2158 368.742
L68.406 368.742
L68.6051 329.09
L68.8042 368.742
L76.5694 368.742
L76.7685 343.559
L76.9676 368.742
L83.3391 368.742
L83.5382 308.941
L83.7373 368.742
L89.1132 368.742
L89.3123 271.306
L89.5114 368.742
L91.7016 368.742
L91.9007 241.607
L92.0998 368.742
L95.6838 368.742
L95.8829 326.844
L96.082 368.742
L103.051 368.742
L103.25 336.14
L103.449 368.742
L108.825 368.742
L109.024 345.206
L109.223 368.742
L112.011 368.742
L112.21 322.57
L112.409 368.742
L116.988 368.742
L117.187 308.446
L117.387 368.742
L133.912 368.742
L134.112 347.28
L134.311 368.742
L140.881 368.742
L141.08 341.946
L141.279 368.742
L147.85 368.742
L148.049 340.184
L148.248 368.742
L155.217 368.742
L155.416 338.26
L155.615 368.742
L160.394 368.742
L160.593 336.094
L160.792 368.742
L165.172 368.742
L165.372 285.107
L165.571 368.742
L168.358 368.742
L168.557 304.437
L168.756 368.742
L182.694 368.742
L182.893 336.106
L183.092 368.742
L185.282 368.742
L185.481 299.656
L185.681 368.742
L196.233 368.742
L196.432 293.332
L196.631 368.742
L204.596 368.742
L204.795 338.375
L204.994 368.742
L210.569 368.742
L210.768 213.752
L210.967 368.742
L225.104 368.742
L225.303 280.487
L225.502 368.742
L237.847 368.742
L238.046 224.316
L238.245 368.742
L268.31 368.742
L268.509 321.844
L268.709 368.742
L277.668 368.742
L277.868 289.277
L278.067 368.742
L302.159 368.742
L302.358 195.32
L302.557 368.742
L338.595 368.742
L338.795 279.853
L338.994 368.742
L399.124 368.742
L399.323 347.257
L399.522 368.742
L425.606 368.742
L425.805 267.861
L426.004 368.742
L475.183 368.742
L475.383 335.967
L475.582 368.742
L484.542 368.742
L484.741 289.196
L484.94 368.742
L494.099 368.742
L494.099 368.742" style="fill:none;stroke:#bf00bf;stroke-linecap:square;"/>
   </g>
   <g id="line2d_13">
    <path clip-path="url(#p80302bff2a)" d="
M47.6988 111.316
L47.8979 368.742
L51.0836 368.742
L51.2827 320.208
L51.4818 368.742
L56.4595 368.742
L56.6586 340.886
L56.8577 368.742
L62.2336 368.742
L62.4327 321.648
L62.6318 368.742
L66.0167 368.742
L66.2158 313.319
L66.4149 368.742
L71.9899 368.742
L72.189 301.88
L72.3881 368.742
L78.5605 368.742
L78.7596 313.423
L78.9587 368.742
L83.7373 368.742
L83.9364 333.272
L84.1355 368.742
L89.5114 368.742
L89.7105 316.234
L89.9096 368.742
L93.2945 368.742
L93.4936 274.462
L93.6927 368.742
L101.259 368.742
L101.458 340.426
L101.657 368.742
L106.436 368.742
L106.635 302.214
L106.834 368.742
L113.603 368.742
L113.803 320.577
L114.002 368.742
L118.581 368.742
L118.78 260.765
L118.979 368.742
L130.129 368.742
L130.329 291.477
L130.528 368.742
L134.311 368.742
L134.51 318.63
L134.709 368.742
L139.886 368.742
L140.085 325.461
L140.284 368.742
L146.058 368.742
L146.257 258.599
L146.456 368.742
L152.031 368.742
L152.23 316.107
L152.43 368.742
L159.199 368.742
L159.398 260.488
L159.597 368.742
L168.159 368.742
L168.358 320.116
L168.557 368.742
L176.721 368.742
L176.92 335.668
L177.119 368.742
L179.707 368.742
L179.906 243.658
L180.106 368.742
L192.052 368.742
L192.251 288.482
L192.45 368.742
L199.817 368.742
L200.016 281.363
L200.215 368.742
L206.189 368.742
L206.388 295.947
L206.587 368.742
L214.352 368.742
L214.551 193.212
L214.75 368.742
L232.272 368.742
L232.471 346.093
L232.67 368.742
L238.245 368.742
L238.444 346.669
L238.643 368.742
L243.621 368.742
L243.82 337.96
L244.019 368.742
L254.771 368.742
L254.97 326.521
L255.169 368.742
L261.74 368.742
L261.939 293.666
L262.138 368.742
L284.04 368.742
L284.239 283.92
L284.438 368.742
L308.53 368.742
L308.729 321.867
L308.928 368.742
L320.875 368.742
L321.074 279.542
L321.273 368.742
L333.02 368.742
L333.22 298.32
L333.419 368.742
L354.126 368.742
L354.325 323.042
L354.524 368.742
L369.656 368.742
L369.855 265.384
L370.055 368.742
L410.075 368.742
L410.274 346.739
L410.473 368.742
L415.252 368.742
L415.451 210.146
L415.65 368.742
L455.671 368.742
L455.87 254.797
L456.069 368.742
L474.387 368.742
L474.586 324.447
L474.785 368.742
L488.524 368.742
L488.723 244.141
L488.922 368.742
L494.099 368.742
L494.099 368.742" style="fill:none;stroke:#bfbf00;stroke-linecap:square;"/>
   </g>
   <g id="line2d_14">
    <path clip-path="url(#p80302bff2a)" d="
M47.6988 342.545
L47.8979 368.742
L50.8845 368.742
L51.0836 213.291
L51.2827 368.742
L54.2693 368.742
L54.4684 279.577
L54.6675 368.742
L57.6541 368.742
L57.8533 332.235
L58.0524 368.742
L61.6363 368.742
L61.8354 273.506
L62.0345 368.742
L66.2158 368.742
L66.4149 336.808
L66.614 368.742
L71.5917 368.742
L71.7908 341.485
L71.9899 368.742
L78.9587 368.742
L79.1578 316.072
L79.3569 368.742
L81.5471 368.742
L81.7462 343.709
L81.9453 368.742
L88.9141 368.742
L89.1132 308.227
L89.3123 368.742
L91.5025 368.742
L91.7016 343.225
L91.9007 368.742
L96.2811 368.742
L96.4802 291.293
L96.6793 368.742
L102.055 368.742
L102.254 345.206
L102.453 368.742
L107.431 368.742
L107.63 351.888
L107.829 368.742
L113.205 368.742
L113.404 340.483
L113.603 368.742
L116.391 368.742
L116.59 345.921
L116.789 368.742
L118.382 368.742
L118.581 198.695
L118.78 368.742
L131.324 368.742
L131.523 317.19
L131.722 368.742
L140.284 368.742
L140.483 338.767
L140.682 368.742
L146.456 368.742
L146.655 293.677
L146.855 368.742
L148.846 368.742
L149.045 329.228
L149.244 368.742
L154.819 368.742
L155.018 331.279
L155.217 368.742
L158.403 368.742
L158.602 318.883
L158.801 368.742
L161.19 368.742
L161.389 191.219
L161.588 368.742
L175.327 368.742
L175.526 250.028
L175.725 368.742
L201.808 368.742
L202.007 303.516
L202.207 368.742
L210.967 368.742
L211.166 345.644
L211.365 368.742
L222.715 368.742
L222.914 344.388
L223.113 368.742
L228.887 368.742
L229.086 311.591
L229.285 368.742
L236.851 368.742
L237.05 243.807
L237.25 368.742
L249.395 368.742
L249.594 349.584
L249.793 368.742
L260.346 368.742
L260.545 345.114
L260.744 368.742
L265.324 368.742
L265.523 338.847
L265.722 368.742
L275.478 368.742
L275.677 307.49
L275.876 368.742
L278.863 368.742
L279.062 342.96
L279.261 368.742
L283.243 368.742
L283.443 263.633
L283.642 368.742
L297.181 368.742
L297.38 298.274
L297.579 368.742
L324.26 368.742
L324.459 217.242
L324.658 368.742
L358.307 368.742
L358.506 257.332
L358.705 368.742
L401.115 368.742
L401.314 317.109
L401.514 368.742
L415.053 368.742
L415.252 339.251
L415.451 368.742
L426.004 368.742
L426.203 348.582
L426.402 368.742
L435.362 368.742
L435.561 347.891
L435.76 368.742
L444.919 368.742
L445.118 267.297
L445.317 368.742
L467.617 368.742
L467.817 152.88
L468.016 368.742
L494.099 368.742
L494.099 368.742" style="fill:none;stroke:#000000;stroke-linecap:square;"/>
   </g>
   <g id="line2d_15">
    <path clip-path="url(#p80302bff2a)" d="
M47.6988 314.252
L47.8979 368.742
L53.0747 368.742
L53.2738 314.137
L53.4729 368.742
L57.455 368.742
L57.6541 331.763
L57.8533 368.742
L62.4327 368.742
L62.6318 335.795
L62.831 368.742
L63.0301 368.742
L63.2292 341.209
L63.4283 368.742
L70.9944 368.742
L71.1935 315.519
L71.3926 368.742
L76.5694 368.742
L76.7685 317.593
L76.9676 368.742
L80.9498 368.742
L81.1489 339.827
L81.348 368.742
L83.9364 368.742
L84.1355 273.817
L84.3346 368.742
L90.9052 368.742
L91.1043 322.547
L91.3034 368.742
L97.0775 368.742
L97.2766 320.934
L97.4757 368.742
L101.259 368.742
L101.458 303.193
L101.657 368.742
L109.223 368.742
L109.422 329.343
L109.621 368.742
L116.391 368.742
L116.59 140.991
L116.789 368.742
L125.948 368.742
L126.147 342.246
L126.346 368.742
L132.121 368.742
L132.32 319.436
L132.519 368.742
L137.895 368.742
L138.094 252.62
L138.293 368.742
L142.474 368.742
L142.673 315.98
L142.872 368.742
L145.859 368.742
L146.058 307.225
L146.257 368.742
L152.629 368.742
L152.828 329.689
L153.027 368.742
L164.973 368.742
L165.172 340.403
L165.372 368.742
L165.77 368.742
L165.969 293.747
L166.168 368.742
L185.282 368.742
L185.481 205.503
L185.681 368.742
L211.166 368.742
L211.365 227.622
L211.565 368.742
L239.44 368.742
L239.639 259.763
L239.838 368.742
L281.252 368.742
L281.451 315.404
L281.651 368.742
L294.393 368.742
L294.593 285.222
L294.792 368.742
L322.866 368.742
L323.065 226.124
L323.264 368.742
L368.063 368.742
L368.263 262.527
L368.462 368.742
L399.323 368.742
L399.522 332.223
L399.722 368.742
L400.319 368.742
L400.518 272.78
L400.717 368.742
L433.769 368.742
L433.968 347.315
L434.167 368.742
L443.525 368.742
L443.724 293.401
L443.924 368.742
L476.776 368.742
L476.975 264.716
L477.175 368.742
L494.099 368.742
L494.099 368.742" style="fill:none;stroke:#0000ff;stroke-linecap:square;"/>
   </g>
   <g id="line2d_16">
    <path clip-path="url(#p80302bff2a)" d="
M47.6988 294.553
L47.8979 368.742
L51.0836 368.742
L51.2827 340.633
L51.4818 368.742
L54.0702 368.742
L54.2693 346.508
L54.4684 368.742
L58.8488 368.742
L59.0479 323.123
L59.247 368.742
L63.0301 368.742
L63.2292 337.062
L63.4283 368.742
L67.2113 368.742
L67.4104 316.671
L67.6095 368.742
L71.3926 368.742
L71.5917 328.307
L71.7908 368.742
L77.9632 368.742
L78.1623 309.529
L78.3614 368.742
L82.1444 368.742
L82.3435 337.523
L82.5426 368.742
L84.5337 368.742
L84.7328 338.905
L84.9319 368.742
L90.507 368.742
L90.7061 332.454
L90.9052 368.742
L96.4802 368.742
L96.6793 337.638
L96.8784 368.742
L99.865 368.742
L100.064 323.814
L100.263 368.742
L105.838 368.742
L106.037 331.187
L106.236 368.742
L110.418 368.742
L110.617 349.503
L110.816 368.742
L117.984 368.742
L118.183 257.574
L118.382 368.742
L127.939 368.742
L128.138 331.532
L128.337 368.742
L131.324 368.742
L131.523 322.777
L131.722 368.742
L137.098 368.742
L137.297 288.793
L137.496 368.742
L145.262 368.742
L145.461 251.007
L145.66 368.742
L151.235 368.742
L151.434 298.7
L151.633 368.742
L155.018 368.742
L155.217 287.641
L155.416 368.742
L162.186 368.742
L162.385 333.836
L162.584 368.742
L166.964 368.742
L167.164 304.921
L167.363 368.742
L179.11 368.742
L179.309 295.359
L179.508 368.742
L192.848 368.742
L193.048 320.703
L193.247 368.742
L202.406 368.742
L202.605 187.417
L202.804 368.742
L261.939 368.742
L262.138 65.5353
L262.337 368.742
L342.777 368.742
L342.976 232.806
L343.175 368.742
L417.243 368.742
L417.442 260.684
L417.641 368.742
L437.95 368.742
L438.149 338.559
L438.349 368.742
L449.897 368.742
L450.096 252.505
L450.295 368.742
L465.029 368.742
L465.228 281.996
L465.427 368.742
L494.099 368.742
L494.099 368.742" style="fill:none;stroke:#008000;stroke-linecap:square;"/>
   </g>
   <g id="patch_3">
    <path d="
M47.6988 23.1417
L494.099 23.1417" style="fill:none;stroke:#000000;stroke-linecap:square;stroke-linejoin:miter;"/>
   </g>
   <g id="patch_4">
    <path d="
M494.099 368.742
L494.099 23.1417" style="fill:none;stroke:#000000;stroke-linecap:square;stroke-linejoin:miter;"/>
   </g>
   <g id="patch_5">
    <path d="
M47.6988 368.742
L494.099 368.742" style="fill:none;stroke:#000000;stroke-linecap:square;stroke-linejoin:miter;"/>
   </g>
   <g id="patch_6">
    <path d="
M47.6988 368.742
L47.6988 23.1417" style="fill:none;stroke:#000000;stroke-linecap:square;stroke-linejoin:miter;"/>
   </g>
   <g id="matplotlib.axis_1">
    <g id="xtick_1">
     <g id="line2d_17">
      <defs>
       <path d="
M0 0
L0 -4" id="m93b0483c22" style="stroke:#000000;stroke-width:0.5;"/>
      </defs>
      <g>
       <use style="stroke:#000000;stroke-width:0.5;" x="47.69875" xlink:href="#m93b0483c22" y="368.74175"/>
      </g>
     </g>
     <g id="line2d_18">
      <defs>
       <path d="
M0 0
L0 4" id="m741efc42ff" style="stroke:#000000;stroke-width:0.5;"/>
      </defs>
      <g>
       <use style="stroke:#000000;stroke-width:0.5;" x="47.69875" xlink:href="#m741efc42ff" y="23.14175"/>
      </g>
     </g>
     <g id="text_1">
      <!-- 0 -->
      <defs>
       <path d="
M31.7812 66.4062
Q24.1719 66.4062 20.3281 58.9062
Q16.5 51.4219 16.5 36.375
Q16.5 21.3906 20.3281 13.8906
Q24.1719 6.39062 31.7812 6.39062
Q39.4531 6.39062 43.2812 13.8906
Q47.125 21.3906 47.125 36.375
Q47.125 51.4219 43.2812 58.9062
Q39.4531 66.4062 31.7812 66.4062
M31.7812 74.2188
Q44.0469 74.2188 50.5156 64.5156
Q56.9844 54.8281 56.9844 36.375
Q56.9844 17.9688 50.5156 8.26562
Q44.0469 -1.42188 31.7812 -1.42188
Q19.5312 -1.42188 13.0625 8.26562
Q6.59375 17.9688 6.59375 36.375
Q6.59375 54.8281 13.0625 64.5156
Q19.5312 74.2188 31.7812 74.2188" id="DejaVuSans-30"/>
      </defs>
      <g transform="translate(44.6753125 381.859875)scale(0.12 -0.12)">
       <use xlink:href="#DejaVuSans-30"/>
      </g>
     </g>
    </g>
    <g id="xtick_2">
     <g id="line2d_19">
      <g>
       <use style="stroke:#000000;stroke-width:0.5;" x="147.25271967" xlink:href="#m93b0483c22" y="368.74175"/>
      </g>
     </g>
     <g id="line2d_20">
      <g>
       <use style="stroke:#000000;stroke-width:0.5;" x="147.25271967" xlink:href="#m741efc42ff" y="23.14175"/>
      </g>
     </g>
     <g id="text_2">
      <!-- 500 -->
      <defs>
       <path d="
M10.7969 72.9062
L49.5156 72.9062
L49.5156 64.5938
L19.8281 64.5938
L19.8281 46.7344
Q21.9688 47.4688 24.1094 47.8281
Q26.2656 48.1875 28.4219 48.1875
Q40.625 48.1875 47.75 41.5
Q54.8906 34.8125 54.8906 23.3906
Q54.8906 11.625 47.5625 5.09375
Q40.2344 -1.42188 26.9062 -1.42188
Q22.3125 -1.42188 17.5469 -0.640625
Q12.7969 0.140625 7.71875 1.70312
L7.71875 11.625
Q12.1094 9.23438 16.7969 8.0625
Q21.4844 6.89062 26.7031 6.89062
Q35.1562 6.89062 40.0781 11.3281
Q45.0156 15.7656 45.0156 23.3906
Q45.0156 31 40.0781 35.4375
Q35.1562 39.8906 26.7031 39.8906
Q22.75 39.8906 18.8125 39.0156
Q14.8906 38.1406 10.7969 36.2812
z
" id="DejaVuSans-35"/>
      </defs>
      <g transform="translate(136.66178217 381.859875)scale(0.12 -0.12)">
       <use xlink:href="#DejaVuSans-35"/>
       <use x="63.623046875" xlink:href="#DejaVuSans-30"/>
       <use x="127.24609375" xlink:href="#DejaVuSans-30"/>
      </g>
     </g>
    </g>
    <g id="xtick_3">
     <g id="line2d_21">
      <g>
       <use style="stroke:#000000;stroke-width:0.5;" x="246.80668934" xlink:href="#m93b0483c22" y="368.74175"/>
      </g>
     </g>
     <g id="line2d_22">
      <g>
       <use style="stroke:#000000;stroke-width:0.5;" x="246.80668934" xlink:href="#m741efc42ff" y="23.14175"/>
      </g>
     </g>
     <g id="text_3">
      <!-- 1000 -->
      <defs>
       <path d="
M12.4062 8.29688
L28.5156 8.29688
L28.5156 63.9219
L10.9844 60.4062
L10.9844 69.3906
L28.4219 72.9062
L38.2812 72.9062
L38.2812 8.29688
L54.3906 8.29688
L54.3906 0
L12.4062 0
z
" id="DejaVuSans-31"/>
      </defs>
      <g transform="translate(232.59418934 381.859875)scale(0.12 -0.12)">
       <use xlink:href="#DejaVuSans-31"/>
       <use x="63.623046875" xlink:href="#DejaVuSans-30"/>
       <use x="127.24609375" xlink:href="#DejaVuSans-30"/>
       <use x="190.869140625" xlink:href="#DejaVuSans-30"/>
      </g>
     </g>
    </g>
    <g id="xtick_4">
     <g id="line2d_23">
      <g>
       <use style="stroke:#000000;stroke-width:0.5;" x="346.36065901" xlink:href="#m93b0483c22" y="368.74175"/>
      </g>
     </g>
     <g id="line2d_24">
      <g>
       <use style="stroke:#000000;stroke-width:0.5;" x="346.36065901" xlink:href="#m741efc42ff" y="23.14175"/>
      </g>
     </g>
     <g id="text_4">
      <!-- 1500 -->
      <g transform="translate(332.14815901 381.859875)scale(0.12 -0.12)">
       <use xlink:href="#DejaVuSans-31"/>
       <use x="63.623046875" xlink:href="#DejaVuSans-35"/>
       <use x="127.24609375" xlink:href="#DejaVuSans-30"/>
       <use x="190.869140625" xlink:href="#DejaVuSans-30"/>
      </g>
     </g>
    </g>
    <g id="xtick_5">
     <g id="line2d_25">
      <g>
       <use style="stroke:#000000;stroke-width:0.5;" x="445.91462868" xlink:href="#m93b0483c22" y="368.74175"/>
      </g>
     </g>
     <g id="line2d_26">
      <g>
       <use style="stroke:#000000;stroke-width:0.5;" x="445.91462868" xlink:href="#m741efc42ff" y="23.14175"/>
      </g>
     </g>
     <g id="text_5">
      <!-- 2000 -->
      <defs>
       <path d="
M19.1875 8.29688
L53.6094 8.29688
L53.6094 0
L7.32812 0
L7.32812 8.29688
Q12.9375 14.1094 22.625 23.8906
Q32.3281 33.6875 34.8125 36.5312
Q39.5469 41.8438 41.4219 45.5312
Q43.3125 49.2188 43.3125 52.7812
Q43.3125 58.5938 39.2344 62.25
Q35.1562 65.9219 28.6094 65.9219
Q23.9688 65.9219 18.8125 64.3125
Q13.6719 62.7031 7.8125 59.4219
L7.8125 69.3906
Q13.7656 71.7812 18.9375 73
Q24.125 74.2188 28.4219 74.2188
Q39.75 74.2188 46.4844 68.5469
Q53.2188 62.8906 53.2188 53.4219
Q53.2188 48.9219 51.5312 44.8906
Q49.8594 40.875 45.4062 35.4062
Q44.1875 33.9844 37.6406 27.2188
Q31.1094 20.4531 19.1875 8.29688" id="DejaVuSans-32"/>
      </defs>
      <g transform="translate(431.48275368 381.859875)scale(0.12 -0.12)">
       <use xlink:href="#DejaVuSans-32"/>
       <use x="63.623046875" xlink:href="#DejaVuSans-30"/>
       <use x="127.24609375" xlink:href="#DejaVuSans-30"/>
       <use x="190.869140625" xlink:href="#DejaVuSans-30"/>
      </g>
     </g>
    </g>
    <g id="text_6">
     <!-- time -->
     <defs>
      <path d="
M18.3125 70.2188
L18.3125 54.6875
L36.8125 54.6875
L36.8125 47.7031
L18.3125 47.7031
L18.3125 18.0156
Q18.3125 11.3281 20.1406 9.42188
Q21.9688 7.51562 27.5938 7.51562
L36.8125 7.51562
L36.8125 0
L27.5938 0
Q17.1875 0 13.2344 3.875
Q9.28125 7.76562 9.28125 18.0156
L9.28125 47.7031
L2.6875 47.7031
L2.6875 54.6875
L9.28125 54.6875
L9.28125 70.2188
z
" id="DejaVuSans-74"/>
      <path d="
M52 44.1875
Q55.375 50.25 60.0625 53.125
Q64.75 56 71.0938 56
Q79.6406 56 84.2812 50.0156
Q88.9219 44.0469 88.9219 33.0156
L88.9219 0
L79.8906 0
L79.8906 32.7188
Q79.8906 40.5781 77.0938 44.375
Q74.3125 48.1875 68.6094 48.1875
Q61.625 48.1875 57.5625 43.5469
Q53.5156 38.9219 53.5156 30.9062
L53.5156 0
L44.4844 0
L44.4844 32.7188
Q44.4844 40.625 41.7031 44.4062
Q38.9219 48.1875 33.1094 48.1875
Q26.2188 48.1875 22.1562 43.5312
Q18.1094 38.875 18.1094 30.9062
L18.1094 0
L9.07812 0
L9.07812 54.6875
L18.1094 54.6875
L18.1094 46.1875
Q21.1875 51.2188 25.4844 53.6094
Q29.7812 56 35.6875 56
Q41.6562 56 45.8281 52.9688
Q50 49.9531 52 44.1875" id="DejaVuSans-6d"/>
      <path d="
M56.2031 29.5938
L56.2031 25.2031
L14.8906 25.2031
Q15.4844 15.9219 20.4844 11.0625
Q25.4844 6.20312 34.4219 6.20312
Q39.5938 6.20312 44.4531 7.46875
Q49.3125 8.73438 54.1094 11.2812
L54.1094 2.78125
Q49.2656 0.734375 44.1875 -0.34375
Q39.1094 -1.42188 33.8906 -1.42188
Q20.7969 -1.42188 13.1562 6.1875
Q5.51562 13.8125 5.51562 26.8125
Q5.51562 40.2344 12.7656 48.1094
Q20.0156 56 32.3281 56
Q43.3594 56 49.7812 48.8906
Q56.2031 41.7969 56.2031 29.5938
M47.2188 32.2344
Q47.125 39.5938 43.0938 43.9844
Q39.0625 48.3906 32.4219 48.3906
Q24.9062 48.3906 20.3906 44.1406
Q15.875 39.8906 15.1875 32.1719
z
" id="DejaVuSans-65"/>
      <path d="
M9.42188 54.6875
L18.4062 54.6875
L18.4062 0
L9.42188 0
z

M9.42188 75.9844
L18.4062 75.9844
L18.4062 64.5938
L9.42188 64.5938
z
" id="DejaVuSans-69"/>
     </defs>
     <g transform="translate(257.824375 398.473625)scale(0.12 -0.12)">
      <use xlink:href="#DejaVuSans-74"/>
      <use x="39.208984375" xlink:href="#DejaVuSans-69"/>
      <use x="66.9921875" xlink:href="#DejaVuSans-6d"/>
      <use x="164.404296875" xlink:href="#DejaVuSans-65"/>
     </g>
    </g>
   </g>
   <g id="matplotlib.axis_2">
    <g id="ytick_1">
     <g id="line2d_27">
      <defs>
       <path d="
M0 0
L4 0" id="m728421d6d4" style="stroke:#000000;stroke-width:0.5;"/>
      </defs>
      <g>
       <use style="stroke:#000000;stroke-width:0.5;" x="47.69875" xlink:href="#m728421d6d4" y="368.74175"/>
      </g>
     </g>
     <g id="line2d_28">
      <defs>
       <path d="
M0 0
L-4 0" id="mcb0005524f" style="stroke:#000000;stroke-width:0.5;"/>
      </defs>
      <g>
       <use style="stroke:#000000;stroke-width:0.5;" x="494.09875" xlink:href="#mcb0005524f" y="368.74175"/>
      </g>
     </g>
     <g id="text_7">
      <!-- 0 -->
      <g transform="translate(37.651875 372.053)scale(0.12 -0.12)">
       <use xlink:href="#DejaVuSans-30"/>
      </g>
     </g>
    </g>
    <g id="ytick_2">
     <g id="line2d_29">
      <g>
       <use style="stroke:#000000;stroke-width:0.5;" x="47.69875" xlink:href="#m728421d6d4" y="311.14175"/>
      </g>
     </g>
     <g id="line2d_30">
      <g>
       <use style="stroke:#000000;stroke-width:0.5;" x="494.09875" xlink:href="#mcb0005524f" y="311.14175"/>
      </g>
     </g>
     <g id="text_8">
      <!-- 5000 -->
      <g transform="translate(14.881875 314.453)scale(0.12 -0.12)">
       <use xlink:href="#DejaVuSans-35"/>
       <use x="63.623046875" xlink:href="#DejaVuSans-30"/>
       <use x="127.24609375" xlink:href="#DejaVuSans-30"/>
       <use x="190.869140625" xlink:href="#DejaVuSans-30"/>
      </g>
     </g>
    </g>
    <g id="ytick_3">
     <g id="line2d_31">
      <g>
       <use style="stroke:#000000;stroke-width:0.5;" x="47.69875" xlink:href="#m728421d6d4" y="253.54175"/>
      </g>
     </g>
     <g id="line2d_32">
      <g>
       <use style="stroke:#000000;stroke-width:0.5;" x="494.09875" xlink:href="#mcb0005524f" y="253.54175"/>
      </g>
     </g>
     <g id="text_9">
      <!-- 10000 -->
      <g transform="translate(7.63875 256.853)scale(0.12 -0.12)">
       <use xlink:href="#DejaVuSans-31"/>
       <use x="63.623046875" xlink:href="#DejaVuSans-30"/>
       <use x="127.24609375" xlink:href="#DejaVuSans-30"/>
       <use x="190.869140625" xlink:href="#DejaVuSans-30"/>
       <use x="254.4921875" xlink:href="#DejaVuSans-30"/>
      </g>
     </g>
    </g>
    <g id="ytick_4">
     <g id="line2d_33">
      <g>
       <use style="stroke:#000000;stroke-width:0.5;" x="47.69875" xlink:href="#m728421d6d4" y="195.94175"/>
      </g>
     </g>
     <g id="line2d_34">
      <g>
       <use style="stroke:#000000;stroke-width:0.5;" x="494.09875" xlink:href="#mcb0005524f" y="195.94175"/>
      </g>
     </g>
     <g id="text_10">
      <!-- 15000 -->
      <g transform="translate(7.63875 199.253)scale(0.12 -0.12)">
       <use xlink:href="#DejaVuSans-31"/>
       <use x="63.623046875" xlink:href="#DejaVuSans-35"/>
       <use x="127.24609375" xlink:href="#DejaVuSans-30"/>
       <use x="190.869140625" xlink:href="#DejaVuSans-30"/>
       <use x="254.4921875" xlink:href="#DejaVuSans-30"/>
      </g>
     </g>
    </g>
    <g id="ytick_5">
     <g id="line2d_35">
      <g>
       <use style="stroke:#000000;stroke-width:0.5;" x="47.69875" xlink:href="#m728421d6d4" y="138.34175"/>
      </g>
     </g>
     <g id="line2d_36">
      <g>
       <use style="stroke:#000000;stroke-width:0.5;" x="494.09875" xlink:href="#mcb0005524f" y="138.34175"/>
      </g>
     </g>
     <g id="text_11">
      <!-- 20000 -->
      <g transform="translate(7.2 141.653)scale(0.12 -0.12)">
       <use xlink:href="#DejaVuSans-32"/>
       <use x="63.623046875" xlink:href="#DejaVuSans-30"/>
       <use x="127.24609375" xlink:href="#DejaVuSans-30"/>
       <use x="190.869140625" xlink:href="#DejaVuSans-30"/>
       <use x="254.4921875" xlink:href="#DejaVuSans-30"/>
      </g>
     </g>
    </g>
    <g id="ytick_6">
     <g id="line2d_37">
      <g>
       <use style="stroke:#000000;stroke-width:0.5;" x="47.69875" xlink:href="#m728421d6d4" y="80.74175"/>
      </g>
     </g>
     <g id="line2d_38">
      <g>
       <use style="stroke:#000000;stroke-width:0.5;" x="494.09875" xlink:href="#mcb0005524f" y="80.74175"/>
      </g>
     </g>
     <g id="text_12">
      <!-- 25000 -->
      <g transform="translate(7.2 84.053)scale(0.12 -0.12)">
       <use xlink:href="#DejaVuSans-32"/>
       <use x="63.623046875" xlink:href="#DejaVuSans-35"/>
       <use x="127.24609375" xlink:href="#DejaVuSans-30"/>
       <use x="190.869140625" xlink:href="#DejaVuSans-30"/>
       <use x="254.4921875" xlink:href="#DejaVuSans-30"/>
      </g>
     </g>
    </g>
    <g id="ytick_7">
     <g id="line2d_39">
      <g>
       <use style="stroke:#000000;stroke-width:0.5;" x="47.69875" xlink:href="#m728421d6d4" y="23.14175"/>
      </g>
     </g>
     <g id="line2d_40">
      <g>
       <use style="stroke:#000000;stroke-width:0.5;" x="494.09875" xlink:href="#mcb0005524f" y="23.14175"/>
      </g>
     </g>
     <g id="text_13">
      <!-- 30000 -->
      <defs>
       <path d="
M40.5781 39.3125
Q47.6562 37.7969 51.625 33
Q55.6094 28.2188 55.6094 21.1875
Q55.6094 10.4062 48.1875 4.48438
Q40.7656 -1.42188 27.0938 -1.42188
Q22.5156 -1.42188 17.6562 -0.515625
Q12.7969 0.390625 7.625 2.20312
L7.625 11.7188
Q11.7188 9.32812 16.5938 8.10938
Q21.4844 6.89062 26.8125 6.89062
Q36.0781 6.89062 40.9375 10.5469
Q45.7969 14.2031 45.7969 21.1875
Q45.7969 27.6406 41.2812 31.2656
Q36.7656 34.9062 28.7188 34.9062
L20.2188 34.9062
L20.2188 43.0156
L29.1094 43.0156
Q36.375 43.0156 40.2344 45.9219
Q44.0938 48.8281 44.0938 54.2969
Q44.0938 59.9062 40.1094 62.9062
Q36.1406 65.9219 28.7188 65.9219
Q24.6562 65.9219 20.0156 65.0312
Q15.375 64.1562 9.8125 62.3125
L9.8125 71.0938
Q15.4375 72.6562 20.3438 73.4375
Q25.25 74.2188 29.5938 74.2188
Q40.8281 74.2188 47.3594 69.1094
Q53.9062 64.0156 53.9062 55.3281
Q53.9062 49.2656 50.4375 45.0938
Q46.9688 40.9219 40.5781 39.3125" id="DejaVuSans-33"/>
      </defs>
      <g transform="translate(7.235625 26.453)scale(0.12 -0.12)">
       <use xlink:href="#DejaVuSans-33"/>
       <use x="63.623046875" xlink:href="#DejaVuSans-30"/>
       <use x="127.24609375" xlink:href="#DejaVuSans-30"/>
       <use x="190.869140625" xlink:href="#DejaVuSans-30"/>
       <use x="254.4921875" xlink:href="#DejaVuSans-30"/>
      </g>
     </g>
    </g>
   </g>
   <g id="text_14">
    <!-- /agas/time/allocate change -->
    <defs>
     <path d="
M25.3906 72.9062
L33.6875 72.9062
L8.29688 -9.28125
L0 -9.28125
z
" id="DejaVuSans-2f"/>
     <path d="
M30.6094 48.3906
Q23.3906 48.3906 19.1875 42.75
Q14.9844 37.1094 14.9844 27.2969
Q14.9844 17.4844 19.1562 11.8438
Q23.3438 6.20312 30.6094 6.20312
Q37.7969 6.20312 41.9844 11.8594
Q46.1875 17.5312 46.1875 27.2969
Q46.1875 37.0156 41.9844 42.7031
Q37.7969 48.3906 30.6094 48.3906
M30.6094 56
Q42.3281 56 49.0156 48.375
Q55.7188 40.7656 55.7188 27.2969
Q55.7188 13.875 49.0156 6.21875
Q42.3281 -1.42188 30.6094 -1.42188
Q18.8438 -1.42188 12.1719 6.21875
Q5.51562 13.875 5.51562 27.2969
Q5.51562 40.7656 12.1719 48.375
Q18.8438 56 30.6094 56" id="DejaVuSans-6f"/>
     <path d="
M54.8906 33.0156
L54.8906 0
L45.9062 0
L45.9062 32.7188
Q45.9062 40.4844 42.875 44.3281
Q39.8438 48.1875 33.7969 48.1875
Q26.5156 48.1875 22.3125 43.5469
Q18.1094 38.9219 18.1094 30.9062
L18.1094 0
L9.07812 0
L9.07812 54.6875
L18.1094 54.6875
L18.1094 46.1875
Q21.3438 51.125 25.7031 53.5625
Q30.0781 56 35.7969 56
Q45.2188 56 50.0469 50.1719
Q54.8906 44.3438 54.8906 33.0156" id="DejaVuSans-6e"/>
     <path d="
M9.42188 75.9844
L18.4062 75.9844
L18.4062 0
L9.42188 0
z
" id="DejaVuSans-6c"/>
     <path id="DejaVuSans-20"/>
     <path d="
M54.8906 33.0156
L54.8906 0
L45.9062 0
L45.9062 32.7188
Q45.9062 40.4844 42.875 44.3281
Q39.8438 48.1875 33.7969 48.1875
Q26.5156 48.1875 22.3125 43.5469
Q18.1094 38.9219 18.1094 30.9062
L18.1094 0
L9.07812 0
L9.07812 75.9844
L18.1094 75.9844
L18.1094 46.1875
Q21.3438 51.125 25.7031 53.5625
Q30.0781 56 35.7969 56
Q45.2188 56 50.0469 50.1719
Q54.8906 44.3438 54.8906 33.0156" id="DejaVuSans-68"/>
     <path d="
M45.4062 27.9844
Q45.4062 37.75 41.375 43.1094
Q37.3594 48.4844 30.0781 48.4844
Q22.8594 48.4844 18.8281 43.1094
Q14.7969 37.75 14.7969 27.9844
Q14.7969 18.2656 18.8281 12.8906
Q22.8594 7.51562 30.0781 7.51562
Q37.3594 7.51562 41.375 12.8906
Q45.4062 18.2656 45.4062 27.9844
M54.3906 6.78125
Q54.3906 -7.17188 48.1875 -13.9844
Q42 -20.7969 29.2031 -20.7969
Q24.4688 -20.7969 20.2656 -20.0938
Q16.0625 -19.3906 12.1094 -17.9219
L12.1094 -9.1875
Q16.0625 -11.3281 19.9219 -12.3438
Q23.7812 -13.375 27.7812 -13.375
Q36.625 -13.375 41.0156 -8.76562
Q45.4062 -4.15625 45.4062 5.17188
L45.4062 9.625
Q42.625 4.78125 38.2812 2.39062
Q33.9375 0 27.875 0
Q17.8281 0 11.6719 7.65625
Q5.51562 15.3281 5.51562 27.9844
Q5.51562 40.6719 11.6719 48.3281
Q17.8281 56 27.875 56
Q33.9375 56 38.2812 53.6094
Q42.625 51.2188 45.4062 46.3906
L45.4062 54.6875
L54.3906 54.6875
z
" id="DejaVuSans-67"/>
     <path d="
M48.7812 52.5938
L48.7812 44.1875
Q44.9688 46.2969 41.1406 47.3438
Q37.3125 48.3906 33.4062 48.3906
Q24.6562 48.3906 19.8125 42.8438
Q14.9844 37.3125 14.9844 27.2969
Q14.9844 17.2812 19.8125 11.7344
Q24.6562 6.20312 33.4062 6.20312
Q37.3125 6.20312 41.1406 7.25
Q44.9688 8.29688 48.7812 10.4062
L48.7812 2.09375
Q45.0156 0.34375 40.9844 -0.53125
Q36.9688 -1.42188 32.4219 -1.42188
Q20.0625 -1.42188 12.7812 6.34375
Q5.51562 14.1094 5.51562 27.2969
Q5.51562 40.6719 12.8594 48.3281
Q20.2188 56 33.0156 56
Q37.1562 56 41.1094 55.1406
Q45.0625 54.2969 48.7812 52.5938" id="DejaVuSans-63"/>
     <path d="
M44.2812 53.0781
L44.2812 44.5781
Q40.4844 46.5312 36.375 47.5
Q32.2812 48.4844 27.875 48.4844
Q21.1875 48.4844 17.8438 46.4375
Q14.5 44.3906 14.5 40.2812
Q14.5 37.1562 16.8906 35.375
Q19.2812 33.5938 26.5156 31.9844
L29.5938 31.2969
Q39.1562 29.25 43.1875 25.5156
Q47.2188 21.7812 47.2188 15.0938
Q47.2188 7.46875 41.1875 3.01562
Q35.1562 -1.42188 24.6094 -1.42188
Q20.2188 -1.42188 15.4531 -0.5625
Q10.6875 0.296875 5.42188 2
L5.42188 11.2812
Q10.4062 8.6875 15.2344 7.39062
Q20.0625 6.10938 24.8125 6.10938
Q31.1562 6.10938 34.5625 8.28125
Q37.9844 10.4531 37.9844 14.4062
Q37.9844 18.0625 35.5156 20.0156
Q33.0625 21.9688 24.7031 23.7812
L21.5781 24.5156
Q13.2344 26.2656 9.51562 29.9062
Q5.8125 33.5469 5.8125 39.8906
Q5.8125 47.6094 11.2812 51.7969
Q16.75 56 26.8125 56
Q31.7812 56 36.1719 55.2656
Q40.5781 54.5469 44.2812 53.0781" id="DejaVuSans-73"/>
     <path d="
M34.2812 27.4844
Q23.3906 27.4844 19.1875 25
Q14.9844 22.5156 14.9844 16.5
Q14.9844 11.7188 18.1406 8.90625
Q21.2969 6.10938 26.7031 6.10938
Q34.1875 6.10938 38.7031 11.4062
Q43.2188 16.7031 43.2188 25.4844
L43.2188 27.4844
z

M52.2031 31.2031
L52.2031 0
L43.2188 0
L43.2188 8.29688
Q40.1406 3.32812 35.5469 0.953125
Q30.9531 -1.42188 24.3125 -1.42188
Q15.9219 -1.42188 10.9531 3.29688
Q6 8.01562 6 15.9219
Q6 25.1406 12.1719 29.8281
Q18.3594 34.5156 30.6094 34.5156
L43.2188 34.5156
L43.2188 35.4062
Q43.2188 41.6094 39.1406 45
Q35.0625 48.3906 27.6875 48.3906
Q23 48.3906 18.5469 47.2656
Q14.1094 46.1406 10.0156 43.8906
L10.0156 52.2031
Q14.9375 54.1094 19.5781 55.0469
Q24.2188 56 28.6094 56
Q40.4844 56 46.3438 49.8438
Q52.2031 43.7031 52.2031 31.2031" id="DejaVuSans-61"/>
    </defs>
    <g transform="translate(173.364625 18.14175)scale(0.144 -0.144)">
     <use xlink:href="#DejaVuSans-2f"/>
     <use x="33.69140625" xlink:href="#DejaVuSans-61"/>
     <use x="94.970703125" xlink:href="#DejaVuSans-67"/>
     <use x="158.447265625" xlink:href="#DejaVuSans-61"/>
     <use x="219.7265625" xlink:href="#DejaVuSans-73"/>
     <use x="271.826171875" xlink:href="#DejaVuSans-2f"/>
     <use x="305.517578125" xlink:href="#DejaVuSans-74"/>
     <use x="344.7265625" xlink:href="#DejaVuSans-69"/>
     <use x="372.509765625" xlink:href="#DejaVuSans-6d"/>
     <use x="469.921875" xlink:href="#DejaVuSans-65"/>
     <use x="531.4453125" xlink:href="#DejaVuSans-2f"/>
     <use x="565.13671875" xlink:href="#DejaVuSans-61"/>
     <use x="626.416015625" xlink:href="#DejaVuSans-6c"/>
     <use x="654.19921875" xlink:href="#DejaVuSans-6c"/>
     <use x="681.982421875" xlink:href="#DejaVuSans-6f"/>
     <use x="743.1640625" xlink:href="#DejaVuSans-63"/>
     <use x="798.14453125" xlink:href="#DejaVuSans-61"/>
     <use x="859.423828125" xlink:href="#DejaVuSans-74"/>
     <use x="898.6328125" xlink:href="#DejaVuSans-65"/>
     <use x="960.15625" xlink:href="#DejaVuSans-20"/>
     <use x="991.943359375" xlink:href="#DejaVuSans-63"/>
     <use x="1046.92382812" xlink:href="#DejaVuSans-68"/>
     <use x="1110.30273438" xlink:href="#DejaVuSans-61"/>
     <use x="1171.58203125" xlink:href="#DejaVuSans-6e"/>
     <use x="1234.9609375" xlink:href="#DejaVuSans-67"/>
     <use x="1298.4375" xlink:href="#DejaVuSans-65"/>
    </g>
   </g>
   <g id="legend_1">
    <g id="patch_7">
     <path d="
M501.299 367.194
L633.088 367.194
L633.088 24.6897
L501.299 24.6897
z
" style="fill:#ffffff;stroke:#000000;stroke-linejoin:miter;"/>
    </g>
    <g id="line2d_41">
     <path d="
M511.379 36.3515
L531.539 36.3515" style="fill:none;stroke:#0000ff;stroke-linecap:square;"/>
    </g>
    <g id="line2d_42"/>
    <g id="text_15">
     <!-- locality#0 -->
     <defs>
      <path d="
M51.125 44
L36.9219 44
L32.8125 27.6875
L47.125 27.6875
z

M43.7969 71.7812
L38.7188 51.5156
L52.9844 51.5156
L58.1094 71.7812
L65.9219 71.7812
L60.8906 51.5156
L76.125 51.5156
L76.125 44
L58.9844 44
L54.9844 27.6875
L70.5156 27.6875
L70.5156 20.2188
L53.0781 20.2188
L48 0
L40.1875 0
L45.2188 20.2188
L30.9062 20.2188
L25.875 0
L18.0156 0
L23.0938 20.2188
L7.71875 20.2188
L7.71875 27.6875
L24.9062 27.6875
L29 44
L13.2812 44
L13.2812 51.5156
L30.9062 51.5156
L35.8906 71.7812
z
" id="DejaVuSans-23"/>
      <path d="
M32.1719 -5.07812
Q28.375 -14.8438 24.75 -17.8125
Q21.1406 -20.7969 15.0938 -20.7969
L7.90625 -20.7969
L7.90625 -13.2812
L13.1875 -13.2812
Q16.8906 -13.2812 18.9375 -11.5156
Q21 -9.76562 23.4844 -3.21875
L25.0938 0.875
L2.98438 54.6875
L12.5 54.6875
L29.5938 11.9219
L46.6875 54.6875
L56.2031 54.6875
z
" id="DejaVuSans-79"/>
     </defs>
     <g transform="translate(547.37875 41.3915)scale(0.144 -0.144)">
      <use xlink:href="#DejaVuSans-6c"/>
      <use x="27.783203125" xlink:href="#DejaVuSans-6f"/>
      <use x="88.96484375" xlink:href="#DejaVuSans-63"/>
      <use x="143.9453125" xlink:href="#DejaVuSans-61"/>
      <use x="205.224609375" xlink:href="#DejaVuSans-6c"/>
      <use x="233.0078125" xlink:href="#DejaVuSans-69"/>
      <use x="260.791015625" xlink:href="#DejaVuSans-74"/>
      <use x="300.0" xlink:href="#DejaVuSans-79"/>
      <use x="359.1796875" xlink:href="#DejaVuSans-23"/>
      <use x="442.96875" xlink:href="#DejaVuSans-30"/>
     </g>
    </g>
    <g id="line2d_43">
     <path d="
M511.379 57.488
L531.539 57.488" style="fill:none;stroke:#008000;stroke-linecap:square;"/>
    </g>
    <g id="line2d_44"/>
    <g id="text_16">
     <!-- locality#1 -->
     <g transform="translate(547.37875 62.528)scale(0.144 -0.144)">
      <use xlink:href="#DejaVuSans-6c"/>
      <use x="27.783203125" xlink:href="#DejaVuSans-6f"/>
      <use x="88.96484375" xlink:href="#DejaVuSans-63"/>
      <use x="143.9453125" xlink:href="#DejaVuSans-61"/>
      <use x="205.224609375" xlink:href="#DejaVuSans-6c"/>
      <use x="233.0078125" xlink:href="#DejaVuSans-69"/>
      <use x="260.791015625" xlink:href="#DejaVuSans-74"/>
      <use x="300.0" xlink:href="#DejaVuSans-79"/>
      <use x="359.1796875" xlink:href="#DejaVuSans-23"/>
      <use x="442.96875" xlink:href="#DejaVuSans-31"/>
     </g>
    </g>
    <g id="line2d_45">
     <path d="
M511.379 78.6245
L531.539 78.6245" style="fill:none;stroke:#ff0000;stroke-linecap:square;"/>
    </g>
    <g id="line2d_46"/>
    <g id="text_17">
     <!-- locality#10 -->
     <g transform="translate(547.37875 83.6645)scale(0.144 -0.144)">
      <use xlink:href="#DejaVuSans-6c"/>
      <use x="27.783203125" xlink:href="#DejaVuSans-6f"/>
      <use x="88.96484375" xlink:href="#DejaVuSans-63"/>
      <use x="143.9453125" xlink:href="#DejaVuSans-61"/>
      <use x="205.224609375" xlink:href="#DejaVuSans-6c"/>
      <use x="233.0078125" xlink:href="#DejaVuSans-69"/>
      <use x="260.791015625" xlink:href="#DejaVuSans-74"/>
      <use x="300.0" xlink:href="#DejaVuSans-79"/>
      <use x="359.1796875" xlink:href="#DejaVuSans-23"/>
      <use x="442.96875" xlink:href="#DejaVuSans-31"/>
      <use x="506.591796875" xlink:href="#DejaVuSans-30"/>
     </g>
    </g>
    <g id="line2d_47">
     <path d="
M511.379 99.761
L531.539 99.761" style="fill:none;stroke:#00bfbf;stroke-linecap:square;"/>
    </g>
    <g id="line2d_48"/>
    <g id="text_18">
     <!-- locality#11 -->
     <g transform="translate(547.37875 104.801)scale(0.144 -0.144)">
      <use xlink:href="#DejaVuSans-6c"/>
      <use x="27.783203125" xlink:href="#DejaVuSans-6f"/>
      <use x="88.96484375" xlink:href="#DejaVuSans-63"/>
      <use x="143.9453125" xlink:href="#DejaVuSans-61"/>
      <use x="205.224609375" xlink:href="#DejaVuSans-6c"/>
      <use x="233.0078125" xlink:href="#DejaVuSans-69"/>
      <use x="260.791015625" xlink:href="#DejaVuSans-74"/>
      <use x="300.0" xlink:href="#DejaVuSans-79"/>
      <use x="359.1796875" xlink:href="#DejaVuSans-23"/>
      <use x="442.96875" xlink:href="#DejaVuSans-31"/>
      <use x="506.591796875" xlink:href="#DejaVuSans-31"/>
     </g>
    </g>
    <g id="line2d_49">
     <path d="
M511.379 120.897
L531.539 120.897" style="fill:none;stroke:#bf00bf;stroke-linecap:square;"/>
    </g>
    <g id="line2d_50"/>
    <g id="text_19">
     <!-- locality#12 -->
     <g transform="translate(547.37875 125.9375)scale(0.144 -0.144)">
      <use xlink:href="#DejaVuSans-6c"/>
      <use x="27.783203125" xlink:href="#DejaVuSans-6f"/>
      <use x="88.96484375" xlink:href="#DejaVuSans-63"/>
      <use x="143.9453125" xlink:href="#DejaVuSans-61"/>
      <use x="205.224609375" xlink:href="#DejaVuSans-6c"/>
      <use x="233.0078125" xlink:href="#DejaVuSans-69"/>
      <use x="260.791015625" xlink:href="#DejaVuSans-74"/>
      <use x="300.0" xlink:href="#DejaVuSans-79"/>
      <use x="359.1796875" xlink:href="#DejaVuSans-23"/>
      <use x="442.96875" xlink:href="#DejaVuSans-31"/>
      <use x="506.591796875" xlink:href="#DejaVuSans-32"/>
     </g>
    </g>
    <g id="line2d_51">
     <path d="
M511.379 142.034
L531.539 142.034" style="fill:none;stroke:#bfbf00;stroke-linecap:square;"/>
    </g>
    <g id="line2d_52"/>
    <g id="text_20">
     <!-- locality#13 -->
     <g transform="translate(547.37875 147.074)scale(0.144 -0.144)">
      <use xlink:href="#DejaVuSans-6c"/>
      <use x="27.783203125" xlink:href="#DejaVuSans-6f"/>
      <use x="88.96484375" xlink:href="#DejaVuSans-63"/>
      <use x="143.9453125" xlink:href="#DejaVuSans-61"/>
      <use x="205.224609375" xlink:href="#DejaVuSans-6c"/>
      <use x="233.0078125" xlink:href="#DejaVuSans-69"/>
      <use x="260.791015625" xlink:href="#DejaVuSans-74"/>
      <use x="300.0" xlink:href="#DejaVuSans-79"/>
      <use x="359.1796875" xlink:href="#DejaVuSans-23"/>
      <use x="442.96875" xlink:href="#DejaVuSans-31"/>
      <use x="506.591796875" xlink:href="#DejaVuSans-33"/>
     </g>
    </g>
    <g id="line2d_53">
     <path d="
M511.379 163.17
L531.539 163.17" style="fill:none;stroke:#000000;stroke-linecap:square;"/>
    </g>
    <g id="line2d_54"/>
    <g id="text_21">
     <!-- locality#14 -->
     <defs>
      <path d="
M37.7969 64.3125
L12.8906 25.3906
L37.7969 25.3906
z

M35.2031 72.9062
L47.6094 72.9062
L47.6094 25.3906
L58.0156 25.3906
L58.0156 17.1875
L47.6094 17.1875
L47.6094 0
L37.7969 0
L37.7969 17.1875
L4.89062 17.1875
L4.89062 26.7031
z
" id="DejaVuSans-34"/>
     </defs>
     <g transform="translate(547.37875 168.2105)scale(0.144 -0.144)">
      <use xlink:href="#DejaVuSans-6c"/>
      <use x="27.783203125" xlink:href="#DejaVuSans-6f"/>
      <use x="88.96484375" xlink:href="#DejaVuSans-63"/>
      <use x="143.9453125" xlink:href="#DejaVuSans-61"/>
      <use x="205.224609375" xlink:href="#DejaVuSans-6c"/>
      <use x="233.0078125" xlink:href="#DejaVuSans-69"/>
      <use x="260.791015625" xlink:href="#DejaVuSans-74"/>
      <use x="300.0" xlink:href="#DejaVuSans-79"/>
      <use x="359.1796875" xlink:href="#DejaVuSans-23"/>
      <use x="442.96875" xlink:href="#DejaVuSans-31"/>
      <use x="506.591796875" xlink:href="#DejaVuSans-34"/>
     </g>
    </g>
    <g id="line2d_55">
     <path d="
M511.379 184.307
L531.539 184.307" style="fill:none;stroke:#0000ff;stroke-linecap:square;"/>
    </g>
    <g id="line2d_56"/>
    <g id="text_22">
     <!-- locality#15 -->
     <g transform="translate(547.37875 189.347)scale(0.144 -0.144)">
      <use xlink:href="#DejaVuSans-6c"/>
      <use x="27.783203125" xlink:href="#DejaVuSans-6f"/>
      <use x="88.96484375" xlink:href="#DejaVuSans-63"/>
      <use x="143.9453125" xlink:href="#DejaVuSans-61"/>
      <use x="205.224609375" xlink:href="#DejaVuSans-6c"/>
      <use x="233.0078125" xlink:href="#DejaVuSans-69"/>
      <use x="260.791015625" xlink:href="#DejaVuSans-74"/>
      <use x="300.0" xlink:href="#DejaVuSans-79"/>
      <use x="359.1796875" xlink:href="#DejaVuSans-23"/>
      <use x="442.96875" xlink:href="#DejaVuSans-31"/>
      <use x="506.591796875" xlink:href="#DejaVuSans-35"/>
     </g>
    </g>
    <g id="line2d_57">
     <path d="
M511.379 205.443
L531.539 205.443" style="fill:none;stroke:#008000;stroke-linecap:square;"/>
    </g>
    <g id="line2d_58"/>
    <g id="text_23">
     <!-- locality#2 -->
     <g transform="translate(547.37875 210.4835)scale(0.144 -0.144)">
      <use xlink:href="#DejaVuSans-6c"/>
      <use x="27.783203125" xlink:href="#DejaVuSans-6f"/>
      <use x="88.96484375" xlink:href="#DejaVuSans-63"/>
      <use x="143.9453125" xlink:href="#DejaVuSans-61"/>
      <use x="205.224609375" xlink:href="#DejaVuSans-6c"/>
      <use x="233.0078125" xlink:href="#DejaVuSans-69"/>
      <use x="260.791015625" xlink:href="#DejaVuSans-74"/>
      <use x="300.0" xlink:href="#DejaVuSans-79"/>
      <use x="359.1796875" xlink:href="#DejaVuSans-23"/>
      <use x="442.96875" xlink:href="#DejaVuSans-32"/>
     </g>
    </g>
    <g id="line2d_59">
     <path d="
M511.379 226.58
L531.539 226.58" style="fill:none;stroke:#ff0000;stroke-linecap:square;"/>
    </g>
    <g id="line2d_60"/>
    <g id="text_24">
     <!-- locality#3 -->
     <g transform="translate(547.37875 231.62)scale(0.144 -0.144)">
      <use xlink:href="#DejaVuSans-6c"/>
      <use x="27.783203125" xlink:href="#DejaVuSans-6f"/>
      <use x="88.96484375" xlink:href="#DejaVuSans-63"/>
      <use x="143.9453125" xlink:href="#DejaVuSans-61"/>
      <use x="205.224609375" xlink:href="#DejaVuSans-6c"/>
      <use x="233.0078125" xlink:href="#DejaVuSans-69"/>
      <use x="260.791015625" xlink:href="#DejaVuSans-74"/>
      <use x="300.0" xlink:href="#DejaVuSans-79"/>
      <use x="359.1796875" xlink:href="#DejaVuSans-23"/>
      <use x="442.96875" xlink:href="#DejaVuSans-33"/>
     </g>
    </g>
    <g id="line2d_61">
     <path d="
M511.379 247.716
L531.539 247.716" style="fill:none;stroke:#00bfbf;stroke-linecap:square;"/>
    </g>
    <g id="line2d_62"/>
    <g id="text_25">
     <!-- locality#4 -->
     <g transform="translate(547.37875 252.7565)scale(0.144 -0.144)">
      <use xlink:href="#DejaVuSans-6c"/>
      <use x="27.783203125" xlink:href="#DejaVuSans-6f"/>
      <use x="88.96484375" xlink:href="#DejaVuSans-63"/>
      <use x="143.9453125" xlink:href="#DejaVuSans-61"/>
      <use x="205.224609375" xlink:href="#DejaVuSans-6c"/>
      <use x="233.0078125" xlink:href="#DejaVuSans-69"/>
      <use x="260.791015625" xlink:href="#DejaVuSans-74"/>
      <use x="300.0" xlink:href="#DejaVuSans-79"/>
      <use x="359.1796875" xlink:href="#DejaVuSans-23"/>
      <use x="442.96875" xlink:href="#DejaVuSans-34"/>
     </g>
    </g>
    <g id="line2d_63">
     <path d="
M511.379 268.853
L531.539 268.853" style="fill:none;stroke:#bf00bf;stroke-linecap:square;"/>
    </g>
    <g id="line2d_64"/>
    <g id="text_26">
     <!-- locality#5 -->
     <g transform="translate(547.37875 273.893)scale(0.144 -0.144)">
      <use xlink:href="#DejaVuSans-6c"/>
      <use x="27.783203125" xlink:href="#DejaVuSans-6f"/>
      <use x="88.96484375" xlink:href="#DejaVuSans-63"/>
      <use x="143.9453125" xlink:href="#DejaVuSans-61"/>
      <use x="205.224609375" xlink:href="#DejaVuSans-6c"/>
      <use x="233.0078125" xlink:href="#DejaVuSans-69"/>
      <use x="260.791015625" xlink:href="#DejaVuSans-74"/>
      <use x="300.0" xlink:href="#DejaVuSans-79"/>
      <use x="359.1796875" xlink:href="#DejaVuSans-23"/>
      <use x="442.96875" xlink:href="#DejaVuSans-35"/>
     </g>
    </g>
    <g id="line2d_65">
     <path d="
M511.379 289.989
L531.539 289.989" style="fill:none;stroke:#bfbf00;stroke-linecap:square;"/>
    </g>
    <g id="line2d_66"/>
    <g id="text_27">
     <!-- locality#6 -->
     <defs>
      <path d="
M33.0156 40.375
Q26.375 40.375 22.4844 35.8281
Q18.6094 31.2969 18.6094 23.3906
Q18.6094 15.5312 22.4844 10.9531
Q26.375 6.39062 33.0156 6.39062
Q39.6562 6.39062 43.5312 10.9531
Q47.4062 15.5312 47.4062 23.3906
Q47.4062 31.2969 43.5312 35.8281
Q39.6562 40.375 33.0156 40.375
M52.5938 71.2969
L52.5938 62.3125
Q48.875 64.0625 45.0938 64.9844
Q41.3125 65.9219 37.5938 65.9219
Q27.8281 65.9219 22.6719 59.3281
Q17.5312 52.7344 16.7969 39.4062
Q19.6719 43.6562 24.0156 45.9219
Q28.375 48.1875 33.5938 48.1875
Q44.5781 48.1875 50.9531 41.5156
Q57.3281 34.8594 57.3281 23.3906
Q57.3281 12.1562 50.6875 5.35938
Q44.0469 -1.42188 33.0156 -1.42188
Q20.3594 -1.42188 13.6719 8.26562
Q6.98438 17.9688 6.98438 36.375
Q6.98438 53.6562 15.1875 63.9375
Q23.3906 74.2188 37.2031 74.2188
Q40.9219 74.2188 44.7031 73.4844
Q48.4844 72.75 52.5938 71.2969" id="DejaVuSans-36"/>
     </defs>
     <g transform="translate(547.37875 295.0295)scale(0.144 -0.144)">
      <use xlink:href="#DejaVuSans-6c"/>
      <use x="27.783203125" xlink:href="#DejaVuSans-6f"/>
      <use x="88.96484375" xlink:href="#DejaVuSans-63"/>
      <use x="143.9453125" xlink:href="#DejaVuSans-61"/>
      <use x="205.224609375" xlink:href="#DejaVuSans-6c"/>
      <use x="233.0078125" xlink:href="#DejaVuSans-69"/>
      <use x="260.791015625" xlink:href="#DejaVuSans-74"/>
      <use x="300.0" xlink:href="#DejaVuSans-79"/>
      <use x="359.1796875" xlink:href="#DejaVuSans-23"/>
      <use x="442.96875" xlink:href="#DejaVuSans-36"/>
     </g>
    </g>
    <g id="line2d_67">
     <path d="
M511.379 311.126
L531.539 311.126" style="fill:none;stroke:#000000;stroke-linecap:square;"/>
    </g>
    <g id="line2d_68"/>
    <g id="text_28">
     <!-- locality#7 -->
     <defs>
      <path d="
M8.20312 72.9062
L55.0781 72.9062
L55.0781 68.7031
L28.6094 0
L18.3125 0
L43.2188 64.5938
L8.20312 64.5938
z
" id="DejaVuSans-37"/>
     </defs>
     <g transform="translate(547.37875 316.166)scale(0.144 -0.144)">
      <use xlink:href="#DejaVuSans-6c"/>
      <use x="27.783203125" xlink:href="#DejaVuSans-6f"/>
      <use x="88.96484375" xlink:href="#DejaVuSans-63"/>
      <use x="143.9453125" xlink:href="#DejaVuSans-61"/>
      <use x="205.224609375" xlink:href="#DejaVuSans-6c"/>
      <use x="233.0078125" xlink:href="#DejaVuSans-69"/>
      <use x="260.791015625" xlink:href="#DejaVuSans-74"/>
      <use x="300.0" xlink:href="#DejaVuSans-79"/>
      <use x="359.1796875" xlink:href="#DejaVuSans-23"/>
      <use x="442.96875" xlink:href="#DejaVuSans-37"/>
     </g>
    </g>
    <g id="line2d_69">
     <path d="
M511.379 332.262
L531.539 332.262" style="fill:none;stroke:#0000ff;stroke-linecap:square;"/>
    </g>
    <g id="line2d_70"/>
    <g id="text_29">
     <!-- locality#8 -->
     <defs>
      <path d="
M31.7812 34.625
Q24.75 34.625 20.7188 30.8594
Q16.7031 27.0938 16.7031 20.5156
Q16.7031 13.9219 20.7188 10.1562
Q24.75 6.39062 31.7812 6.39062
Q38.8125 6.39062 42.8594 10.1719
Q46.9219 13.9688 46.9219 20.5156
Q46.9219 27.0938 42.8906 30.8594
Q38.875 34.625 31.7812 34.625
M21.9219 38.8125
Q15.5781 40.375 12.0312 44.7188
Q8.5 49.0781 8.5 55.3281
Q8.5 64.0625 14.7188 69.1406
Q20.9531 74.2188 31.7812 74.2188
Q42.6719 74.2188 48.875 69.1406
Q55.0781 64.0625 55.0781 55.3281
Q55.0781 49.0781 51.5312 44.7188
Q48 40.375 41.7031 38.8125
Q48.8281 37.1562 52.7969 32.3125
Q56.7812 27.4844 56.7812 20.5156
Q56.7812 9.90625 50.3125 4.23438
Q43.8438 -1.42188 31.7812 -1.42188
Q19.7344 -1.42188 13.25 4.23438
Q6.78125 9.90625 6.78125 20.5156
Q6.78125 27.4844 10.7812 32.3125
Q14.7969 37.1562 21.9219 38.8125
M18.3125 54.3906
Q18.3125 48.7344 21.8438 45.5625
Q25.3906 42.3906 31.7812 42.3906
Q38.1406 42.3906 41.7188 45.5625
Q45.3125 48.7344 45.3125 54.3906
Q45.3125 60.0625 41.7188 63.2344
Q38.1406 66.4062 31.7812 66.4062
Q25.3906 66.4062 21.8438 63.2344
Q18.3125 60.0625 18.3125 54.3906" id="DejaVuSans-38"/>
     </defs>
     <g transform="translate(547.37875 337.3025)scale(0.144 -0.144)">
      <use xlink:href="#DejaVuSans-6c"/>
      <use x="27.783203125" xlink:href="#DejaVuSans-6f"/>
      <use x="88.96484375" xlink:href="#DejaVuSans-63"/>
      <use x="143.9453125" xlink:href="#DejaVuSans-61"/>
      <use x="205.224609375" xlink:href="#DejaVuSans-6c"/>
      <use x="233.0078125" xlink:href="#DejaVuSans-69"/>
      <use x="260.791015625" xlink:href="#DejaVuSans-74"/>
      <use x="300.0" xlink:href="#DejaVuSans-79"/>
      <use x="359.1796875" xlink:href="#DejaVuSans-23"/>
      <use x="442.96875" xlink:href="#DejaVuSans-38"/>
     </g>
    </g>
    <g id="line2d_71">
     <path d="
M511.379 353.399
L531.539 353.399" style="fill:none;stroke:#008000;stroke-linecap:square;"/>
    </g>
    <g id="line2d_72"/>
    <g id="text_30">
     <!-- locality#9 -->
     <defs>
      <path d="
M10.9844 1.51562
L10.9844 10.5
Q14.7031 8.73438 18.5 7.8125
Q22.3125 6.89062 25.9844 6.89062
Q35.75 6.89062 40.8906 13.4531
Q46.0469 20.0156 46.7812 33.4062
Q43.9531 29.2031 39.5938 26.9531
Q35.25 24.7031 29.9844 24.7031
Q19.0469 24.7031 12.6719 31.3125
Q6.29688 37.9375 6.29688 49.4219
Q6.29688 60.6406 12.9375 67.4219
Q19.5781 74.2188 30.6094 74.2188
Q43.2656 74.2188 49.9219 64.5156
Q56.5938 54.8281 56.5938 36.375
Q56.5938 19.1406 48.4062 8.85938
Q40.2344 -1.42188 26.4219 -1.42188
Q22.7031 -1.42188 18.8906 -0.6875
Q15.0938 0.046875 10.9844 1.51562
M30.6094 32.4219
Q37.25 32.4219 41.125 36.9531
Q45.0156 41.5 45.0156 49.4219
Q45.0156 57.2812 41.125 61.8438
Q37.25 66.4062 30.6094 66.4062
Q23.9688 66.4062 20.0938 61.8438
Q16.2188 57.2812 16.2188 49.4219
Q16.2188 41.5 20.0938 36.9531
Q23.9688 32.4219 30.6094 32.4219" id="DejaVuSans-39"/>
     </defs>
     <g transform="translate(547.37875 358.439)scale(0.144 -0.144)">
      <use xlink:href="#DejaVuSans-6c"/>
      <use x="27.783203125" xlink:href="#DejaVuSans-6f"/>
      <use x="88.96484375" xlink:href="#DejaVuSans-63"/>
      <use x="143.9453125" xlink:href="#DejaVuSans-61"/>
      <use x="205.224609375" xlink:href="#DejaVuSans-6c"/>
      <use x="233.0078125" xlink:href="#DejaVuSans-69"/>
      <use x="260.791015625" xlink:href="#DejaVuSans-74"/>
      <use x="300.0" xlink:href="#DejaVuSans-79"/>
      <use x="359.1796875" xlink:href="#DejaVuSans-23"/>
      <use x="442.96875" xlink:href="#DejaVuSans-39"/>
     </g>
    </g>
   </g>
  </g>
 </g>
 <defs>
  <clipPath id="p80302bff2a">
   <rect height="345.6" width="446.4" x="47.69875" y="23.14175"/>
  </clipPath>
 </defs>
</svg>
