<?xml version="1.0" encoding="utf-8" standalone="no"?>
<!DOCTYPE svg PUBLIC "-//W3C//DTD SVG 1.1//EN"
  "http://www.w3.org/Graphics/SVG/1.1/DTD/svg11.dtd">
<!-- Created with matplotlib (http://matplotlib.org/) -->
<svg height="408pt" version="1.1" viewBox="0 0 621 408" width="621pt" xmlns="http://www.w3.org/2000/svg" xmlns:xlink="http://www.w3.org/1999/xlink">
 <defs>
  <style type="text/css">
*{stroke-linecap:butt;stroke-linejoin:round;}
  </style>
 </defs>
 <g id="figure_1">
  <g id="patch_1">
   <path d="
M0 408.169
L621.285 408.169
L621.285 0
L0 0
z
" style="fill:#ffffff;"/>
  </g>
  <g id="axes_1">
   <g id="patch_2">
    <path d="
M28.6956 368.742
L475.096 368.742
L475.096 23.1417
L28.6956 23.1417
z
" style="fill:#ffffff;"/>
   </g>
   <g id="line2d_1">
    <path clip-path="url(#p2118423672)" d="
M28.6956 368.565
L39.8895 362.926
L41.5856 362.03
L45.9953 359.696
L58.8853 352.862
L59.9029 352.205
L66.6871 348.643
L82.63 340.119
L101.287 330.438
L101.965 329.998
L124.353 318.672
L133.511 314.223
L136.904 312.633
L141.652 310.397
L152.846 304.966
L157.256 303.006
L177.269 293.952
L185.411 290.416
L187.446 289.435
L190.499 288.075
L191.856 287.373
L195.926 285.652
L196.944 285.183
L198.979 284.268
L201.353 283.034
L202.71 282.339
L205.085 281.025
L206.442 280.273
L213.226 276.007
L214.583 275.145
L219.671 271.719
L221.367 270.712
L232.9 264.203
L236.97 262.214
L237.988 261.721
L240.023 260.767
L241.041 260.257
L251.556 255.07
L254.949 253.452
L257.323 252.317
L259.697 251.347
L261.054 250.76
L264.786 248.96
L266.821 248.074
L268.178 247.453
L270.552 246.328
L271.57 245.845
L273.266 245.103
L285.477 239.677
L287.852 238.638
L291.583 236.978
L293.958 235.693
L295.654 234.879
L297.689 233.844
L300.063 232.788
L302.438 231.603
L306.508 229.61
L310.918 227.634
L311.936 227.19
L315.667 225.561
L318.042 224.5
L319.059 224.022
L322.112 222.814
L323.13 222.418
L324.826 221.744
L329.575 219.785
L337.376 216.656
L347.892 212.127
L349.588 211.353
L350.945 210.793
L353.998 209.444
L355.694 208.773
L358.407 207.586
L362.478 205.948
L364.174 205.322
L365.531 204.858
L370.958 202.947
L373.333 202.05
L376.046 201.039
L377.742 200.312
L379.099 199.784
L388.258 196.38
L391.65 195.161
L395.042 193.938
L396.06 193.486
L421.5 183.918
L423.875 183.036
L433.034 179.488
L435.408 178.656
L446.941 174.53
L448.298 174.068
L449.316 173.693
L472.382 166.129
L475.096 165.33
L475.096 165.33" style="fill:none;stroke:#0000ff;stroke-linecap:square;"/>
   </g>
   <g id="line2d_2">
    <path clip-path="url(#p2118423672)" d="
M28.6956 368.721
L42.9424 363.528
L44.6385 362.865
L95.5199 342.855
L98.2336 341.829
L108.749 337.855
L125.37 331.767
L127.406 331.014
L144.705 324.947
L176.93 314.083
L177.609 313.779
L182.697 312.171
L186.089 311.108
L187.107 310.715
L193.891 307.893
L195.248 307.101
L195.926 306.786
L200.675 304.49
L202.71 303.534
L204.745 302.58
L205.424 302.182
L207.459 301.249
L209.834 300.351
L216.957 297.025
L218.653 296.165
L219.331 295.811
L221.028 295.157
L224.759 293.485
L225.437 293.194
L226.455 292.722
L228.829 291.742
L229.508 291.389
L231.204 290.73
L232.561 290.203
L234.257 289.576
L234.935 289.327
L235.953 288.953
L236.631 288.666
L238.327 288.097
L239.345 287.701
L242.398 286.757
L243.755 286.31
L263.429 279.152
L269.874 276.915
L271.231 276.504
L272.587 276.046
L273.605 275.684
L278.015 274.346
L280.728 273.536
L282.085 273.031
L283.781 272.581
L285.477 272
L291.244 270.063
L292.601 269.633
L297.689 267.917
L298.367 267.615
L309.222 264.097
L310.579 263.66
L312.953 262.94
L316.685 261.903
L318.72 261.3
L320.755 260.769
L323.13 260.123
L348.231 253.693
L349.927 253.202
L363.496 249.683
L365.192 249.181
L367.566 248.641
L370.28 247.921
L371.637 247.52
L372.654 247.218
L387.58 242.758
L389.954 242.036
L398.434 239.669
L399.791 239.362
L401.148 239.004
L405.218 237.981
L420.822 234.219
L429.981 232.189
L432.355 231.653
L436.087 230.835
L438.8 230.312
L452.029 227.391
L453.047 227.093
L463.223 225.062
L474.417 222.931
L475.096 222.825
L475.096 222.825" style="fill:none;stroke:#008000;stroke-linecap:square;"/>
   </g>
   <g id="line2d_3">
    <path clip-path="url(#p2118423672)" d="
M28.6956 368.725
L33.7838 365.524
L35.1406 364.628
L38.5327 362.505
L39.8895 361.626
L42.264 359.933
L44.2993 358.426
L46.3345 357
L53.4579 351.88
L57.1892 349.129
L59.5637 347.37
L64.6519 343.577
L66.6871 342.081
L68.044 341.133
L71.4361 338.59
L74.4889 336.363
L78.8987 333.182
L79.5771 332.652
L80.5947 331.823
L86.3613 327.68
L87.3789 326.911
L90.4318 324.588
L92.8063 322.813
L101.287 316.667
L106.375 312.903
L108.071 311.716
L110.784 309.691
L115.194 306.516
L119.604 303.462
L130.459 295.152
L132.494 293.561
L133.851 292.638
L137.243 290.138
L143.009 286.187
L146.062 283.941
L155.899 276.803
L158.274 275.085
L160.648 273.33
L164.38 270.6
L168.789 266.972
L169.468 266.455
L181.34 258.544
L184.054 256.784
L186.428 255.131
L189.82 252.727
L191.177 251.689
L193.552 249.937
L195.248 248.798
L198.3 246.909
L200.336 245.608
L201.693 244.585
L204.406 242.749
L205.763 241.746
L207.798 240.355
L209.494 239.028
L210.512 238.104
L216.279 232.756
L221.706 227.418
L222.724 226.553
L224.08 225.218
L225.098 224.388
L225.776 223.629
L227.133 222.605
L230.525 219.631
L232.221 218.163
L235.614 215.1
L239.006 212.315
L240.702 210.958
L241.719 209.943
L243.415 208.522
L244.094 208.048
L245.451 206.877
L247.147 205.195
L248.504 204.192
L250.2 202.664
L254.609 198.975
L255.966 197.546
L258.001 195.905
L258.341 195.355
L289.209 169.669
L289.887 169.241
L293.618 166.313
L294.975 165.256
L296.671 163.974
L298.028 162.899
L309.561 154.799
L311.257 153.587
L312.614 152.661
L325.165 144.992
L326.183 144.292
L334.324 139.764
L335.68 138.986
L337.037 138.208
L340.769 136.011
L341.447 135.637
L342.465 135.12
L344.161 134.249
L345.857 133.308
L346.535 132.832
L359.086 125.824
L361.8 124.439
L369.941 119.742
L370.958 119.031
L373.333 117.663
L374.35 117.114
L375.368 116.394
L377.403 115.142
L378.421 114.616
L380.795 113.305
L381.474 113.008
L382.152 112.543
L395.042 104.224
L398.095 102.361
L398.773 101.986
L403.522 98.9364
L404.879 98.0782
L409.628 94.9713
L413.359 92.4472
L414.038 92.1005
L415.056 91.4669
L419.126 89.3345
L420.144 88.6422
L421.5 87.9406
L422.179 87.4902
L422.857 87.0916
L423.875 86.4799
L427.606 84.5629
L429.302 83.639
L430.659 82.9835
L434.39 80.6507
L435.069 80.3362
L438.461 78.5172
L442.531 76.3618
L444.228 75.4287
L458.814 68.4349
L463.902 65.8487
L464.58 65.5089
L465.937 64.7704
L467.972 63.9018
L470.686 62.7037
L475.096 61.0207
L475.096 61.0207" style="fill:none;stroke:#ff0000;stroke-linecap:square;"/>
   </g>
   <g id="line2d_4">
    <path clip-path="url(#p2118423672)" d="
M28.6956 368.717
L32.4269 366.421
L34.123 365.372
L38.1935 362.747
L48.0306 355.876
L49.0482 355.126
L50.0658 354.392
L70.7576 339.751
L72.4537 338.559
L75.1674 336.741
L76.5242 335.749
L79.9163 333.456
L81.6123 332.232
L84.6652 329.899
L86.3613 328.577
L87.7181 327.561
L90.0926 325.781
L91.1102 325.06
L116.212 306.811
L117.908 305.708
L135.207 293.873
L138.6 291.562
L152.507 282.16
L154.542 280.735
L158.274 278.339
L160.309 276.956
L161.666 276.004
L165.397 273.649
L168.45 271.586
L169.468 270.867
L188.124 258.933
L190.838 257.299
L192.534 256.209
L197.622 253.126
L200.675 251.225
L204.745 248.294
L205.763 247.585
L208.138 245.707
L208.816 245.175
L210.512 243.472
L213.565 241.053
L214.583 240.287
L215.261 239.755
L216.618 238.795
L217.296 238.154
L218.314 237.375
L220.688 235.567
L223.741 233.153
L225.776 231.298
L227.133 230.27
L227.812 229.657
L228.829 228.819
L229.847 227.998
L233.239 225.28
L245.111 215.134
L247.825 213.092
L248.843 212.293
L250.2 211.101
L251.217 210.401
L252.913 208.773
L256.984 205.59
L257.662 204.957
L259.019 203.768
L261.054 201.846
L263.429 199.692
L267.838 195.609
L269.195 194.355
L269.874 193.686
L272.927 190.646
L274.283 189.753
L275.98 188.451
L277.336 187.51
L278.015 187.044
L281.746 184.684
L285.138 182.423
L288.191 180.461
L292.262 177.336
L294.975 175.701
L312.275 164.961
L313.632 164.014
L317.024 161.709
L319.398 160.454
L320.077 160.065
L321.773 159.097
L322.79 158.493
L324.826 157.342
L326.183 156.656
L327.539 155.881
L329.914 154.554
L330.592 154.254
L344.5 146.349
L349.588 143.314
L351.284 142.409
L353.659 141.153
L355.015 140.54
L357.051 139.461
L361.46 137.434
L363.496 136.455
L366.209 135.064
L367.227 134.531
L368.923 133.653
L369.941 133.044
L372.993 131.45
L380.456 127.4
L382.831 126.371
L384.187 125.74
L387.919 123.969
L389.954 122.925
L391.65 121.953
L397.756 118.887
L404.201 115.441
L405.558 114.742
L408.611 113.096
L409.628 112.522
L412.681 110.809
L420.822 106.194
L436.765 100.304
L439.139 99.3465
L456.1 92.1811
L457.457 91.5659
L461.866 89.5603
L463.562 88.7412
L467.633 86.8692
L475.096 83.616
L475.096 83.616" style="fill:none;stroke:#00bfbf;stroke-linecap:square;"/>
   </g>
   <g id="line2d_5">
    <path clip-path="url(#p2118423672)" d="
M28.6956 368.693
L39.2111 362.867
L40.2288 362.186
L42.9424 360.553
L47.3522 358.107
L52.1011 355.367
L53.4579 354.529
L56.5108 352.648
L61.599 349.725
L63.9734 348.436
L64.6519 347.969
L69.4008 345.251
L73.1321 343.022
L74.4889 342.128
L75.5066 341.483
L78.2202 339.948
L81.2731 338.149
L82.63 337.301
L83.9868 336.513
L85.0044 335.895
L87.7181 334.337
L91.1102 332.215
L91.7886 331.723
L94.1631 330.357
L95.5199 329.56
L97.216 328.573
L97.8944 328.122
L99.5905 327.107
L107.392 322.499
L108.41 321.868
L113.498 318.915
L115.194 317.91
L123.674 312.951
L126.388 311.163
L127.745 310.357
L134.529 306.491
L135.207 306.016
L137.921 304.35
L145.384 299.896
L147.758 298.522
L149.115 297.752
L158.274 292.343
L160.987 290.602
L168.111 286.286
L171.842 284.176
L183.714 277.161
L185.071 276.362
L192.534 271.901
L202.032 265.528
L203.728 264.508
L206.442 262.826
L208.816 261.28
L210.851 259.953
L212.208 259.103
L215.261 256.992
L216.618 256.047
L223.063 251.169
L225.437 249.406
L230.865 246.418
L232.9 245.239
L244.094 239.007
L245.79 237.855
L246.807 237.22
L251.217 234.219
L252.574 233.091
L258.68 228.691
L259.358 228.311
L265.464 224.392
L266.821 223.476
L268.178 222.652
L269.874 221.453
L270.552 220.927
L273.266 218.996
L274.623 218.133
L276.997 216.723
L279.032 215.46
L280.389 214.388
L298.707 203.32
L307.526 198.372
L310.24 197
L313.632 195.071
L315.328 194.246
L317.702 193.089
L318.72 192.52
L336.02 184.13
L339.073 182.582
L349.927 177.389
L356.033 174.991
L360.782 173.156
L366.888 170.904
L371.976 168.965
L372.654 168.544
L376.386 166.668
L377.742 166.16
L378.76 165.589
L381.813 164.416
L386.562 162.481
L389.954 161.11
L392.668 159.892
L395.042 158.878
L397.756 157.707
L398.773 157.285
L403.862 155.179
L405.897 154.425
L407.254 153.871
L408.271 153.449
L409.628 152.931
L413.359 151.488
L416.412 150.393
L417.769 149.931
L420.822 148.74
L423.875 147.788
L425.232 147.354
L427.267 146.697
L429.302 146.064
L432.016 145.088
L435.069 143.996
L441.175 141.9
L446.263 140.043
L449.316 139.02
L450.333 138.674
L453.386 137.603
L459.831 135.412
L461.527 134.774
L471.364 131.533
L474.078 130.728
L475.096 130.469
L475.096 130.469" style="fill:none;stroke:#bf00bf;stroke-linecap:square;"/>
   </g>
   <g id="line2d_6">
    <path clip-path="url(#p2118423672)" d="
M28.6956 368.726
L41.9248 361.334
L43.2816 360.465
L44.9777 359.49
L54.4756 353.551
L56.85 352.094
L78.5595 339.281
L80.5947 338.107
L93.8239 330.407
L95.1807 329.609
L104.339 324.303
L106.714 322.987
L112.48 319.736
L113.837 318.963
L114.855 318.363
L138.939 304.833
L141.313 303.635
L152.846 297.436
L171.842 287.392
L201.693 272.244
L205.763 270.006
L206.442 269.663
L207.798 268.928
L210.512 267.374
L212.887 265.901
L213.565 265.396
L214.243 265.001
L215.6 264.117
L218.992 261.848
L219.671 261.34
L222.384 259.389
L223.402 258.759
L224.42 258.114
L227.133 256.44
L228.49 255.601
L244.094 246
L245.79 245.048
L246.468 244.62
L248.843 243.254
L249.86 242.669
L250.539 242.273
L252.574 241.086
L252.913 240.736
L254.609 239.903
L255.627 239.219
L256.984 238.493
L258.341 237.764
L259.019 237.332
L261.393 235.936
L264.446 234.506
L265.803 233.902
L267.499 232.976
L270.891 231.281
L274.962 229.101
L279.032 227.136
L280.05 226.565
L297.689 217.763
L299.046 217.057
L305.491 214.092
L308.544 212.925
L313.971 210.759
L327.2 206.249
L332.288 204.662
L333.984 204.082
L339.412 202.318
L344.161 200.634
L353.998 197.489
L356.711 196.677
L372.654 191.507
L374.011 190.997
L380.795 188.648
L387.919 186.267
L390.632 185.371
L394.025 184.241
L396.399 183.538
L398.095 182.999
L401.148 182.009
L402.844 181.43
L406.914 180.245
L414.038 177.942
L418.108 176.681
L420.822 175.941
L422.857 175.379
L423.875 175.076
L432.355 172.79
L436.426 171.694
L438.8 171.008
L440.835 170.446
L445.924 169.069
L450.673 167.582
L452.369 167.078
L460.849 164.426
L469.329 162.203
L472.382 161.423
L473.06 161.226
L474.756 160.859
L475.096 160.755
L475.096 160.755" style="fill:none;stroke:#bfbf00;stroke-linecap:square;"/>
   </g>
   <g id="line2d_7">
    <path clip-path="url(#p2118423672)" d="
M28.6956 368.727
L31.4093 367.334
L39.8895 363.228
L42.9424 361.556
L45.3169 360.332
L46.6737 359.576
L52.1011 356.761
L55.8324 354.888
L79.5771 342.375
L81.9516 341.168
L86.0221 339.144
L105.357 329.47
L107.731 328.309
L112.48 325.992
L114.516 324.988
L119.604 322.524
L132.833 315.997
L153.186 306.102
L170.825 297.894
L171.842 297.398
L192.534 288.274
L198.64 285.606
L205.085 282.563
L211.19 279.096
L212.547 278.102
L218.314 274.159
L220.01 273.226
L224.42 270.321
L226.455 269.07
L233.578 264.852
L235.274 264.04
L237.988 262.634
L239.006 262.023
L240.702 261.061
L241.719 260.438
L242.737 259.922
L251.896 255.409
L254.609 254.131
L255.288 253.751
L272.927 245.846
L273.605 245.584
L275.98 244.6
L280.389 242.88
L281.746 242.244
L285.817 240.57
L288.53 239.397
L289.548 238.98
L290.566 238.566
L291.583 238.154
L293.279 237.481
L297.689 235.765
L300.742 234.531
L303.795 233.279
L304.473 232.998
L307.865 231.846
L310.579 230.914
L318.72 227.988
L322.112 226.871
L323.808 226.355
L324.826 226.044
L333.984 223.481
L340.429 221.57
L343.821 220.628
L370.28 213.01
L374.011 212.013
L375.029 211.707
L383.17 209.472
L386.562 208.55
L389.954 207.621
L392.328 206.97
L396.06 206.003
L399.113 205.144
L416.073 200.649
L421.5 199.171
L424.553 198.334
L428.624 197.32
L443.21 193.57
L447.28 192.562
L471.364 186.861
L473.06 186.543
L475.096 186.135
L475.096 186.135" style="fill:none;stroke:#000000;stroke-linecap:square;"/>
   </g>
   <g id="line2d_8">
    <path clip-path="url(#p2118423672)" d="
M28.6956 368.626
L35.819 365.468
L39.5503 363.781
L51.0835 358.177
L59.2245 354.28
L60.5813 353.604
L71.7753 348.374
L95.5199 337.275
L99.2512 335.598
L112.141 329.719
L141.992 316.638
L144.705 315.512
L177.609 302.205
L181.34 300.789
L183.375 299.951
L186.089 298.836
L190.159 296.773
L196.944 293.383
L202.032 290.69
L224.759 277.252
L225.437 276.932
L226.794 276.325
L229.508 275.183
L230.865 274.554
L246.129 268.288
L247.486 267.781
L249.182 267.092
L257.662 263.94
L260.037 263.067
L262.75 262.106
L263.429 261.856
L264.107 261.57
L265.125 261.225
L268.178 260.147
L270.891 259.243
L272.248 258.757
L274.962 257.82
L293.618 251.836
L300.063 249.805
L305.152 248.193
L307.865 247.406
L308.544 247.137
L309.9 246.708
L317.024 244.51
L321.094 243.322
L332.288 240.282
L340.09 238.267
L345.178 236.964
L347.892 236.309
L349.927 235.738
L368.584 230.901
L370.619 230.343
L374.35 229.273
L376.386 228.714
L377.403 228.395
L401.487 222.126
L409.289 220.219
L410.646 219.833
L416.412 218.359
L421.84 217.061
L423.875 216.628
L427.606 215.815
L429.642 215.324
L433.373 214.453
L454.065 209.78
L460.17 208.486
L467.633 206.936
L475.096 205.579
L475.096 205.579" style="fill:none;stroke:#0000ff;stroke-linecap:square;"/>
   </g>
   <g id="line2d_9">
    <path clip-path="url(#p2118423672)" d="
M28.6956 368.724
L31.0701 367.786
L70.0792 352.527
L74.1497 350.928
L84.6652 346.84
L86.0221 346.286
L110.784 336.658
L144.705 323.767
L164.38 316.722
L180.322 311.288
L183.714 310.178
L190.159 308.069
L194.569 306.41
L202.371 303.08
L220.349 294.62
L221.706 293.906
L222.724 293.474
L223.402 293.044
L224.42 292.578
L226.794 291.252
L228.151 290.603
L230.865 289.24
L233.918 287.938
L237.31 286.604
L239.006 285.781
L240.023 285.413
L244.433 283.629
L265.464 274.843
L267.499 274.115
L270.213 273.007
L271.231 272.636
L272.587 271.998
L277.336 270.195
L283.781 267.659
L285.138 267.128
L286.495 266.596
L290.226 265.138
L291.583 264.572
L295.314 263.016
L317.024 255.258
L319.738 254.371
L324.147 252.854
L326.522 252.185
L335.68 249.275
L337.037 248.808
L338.394 248.423
L339.751 247.996
L344.161 246.736
L345.178 246.442
L347.892 245.633
L348.57 245.351
L350.945 244.527
L351.962 244.161
L356.372 242.567
L358.747 241.797
L361.46 240.869
L365.192 239.654
L368.584 238.648
L377.742 235.821
L379.778 235.092
L393.685 230.564
L395.042 230.114
L399.113 228.709
L401.148 228.049
L404.201 227.163
L405.558 226.819
L407.593 226.245
L416.073 223.794
L418.108 223.15
L422.518 222.002
L437.783 217.698
L445.584 215.279
L449.655 214.104
L453.047 213.047
L455.421 212.332
L464.241 209.738
L465.598 209.253
L468.651 208.42
L470.686 207.984
L475.096 207.091
L475.096 207.091" style="fill:none;stroke:#008000;stroke-linecap:square;"/>
   </g>
   <g id="line2d_10">
    <path clip-path="url(#p2118423672)" d="
M28.6956 368.72
L33.1054 366.986
L39.2111 364.598
L59.2245 356.17
L63.6342 354.309
L78.8987 347.953
L80.5947 347.208
L86.0221 344.966
L100.269 338.919
L111.463 334.152
L114.855 332.757
L118.925 331.088
L123.335 329.276
L134.19 324.786
L137.243 323.557
L172.181 310.064
L187.785 304.411
L193.552 302.308
L196.604 301.193
L201.014 299.478
L201.693 299.101
L208.138 296.227
L211.19 294.616
L213.226 293.598
L215.6 292.532
L217.635 291.625
L221.028 289.778
L221.706 289.416
L223.063 288.804
L224.759 288.043
L225.776 287.585
L228.151 286.357
L231.543 284.741
L232.9 283.951
L236.292 282.427
L238.666 281.537
L241.041 280.597
L242.059 280.161
L244.433 279.153
L251.556 276.338
L254.609 275.165
L259.358 273.247
L260.715 272.553
L267.16 269.794
L268.517 269.299
L270.552 268.526
L271.57 268.105
L273.605 267.204
L274.623 266.743
L279.372 264.861
L280.728 264.395
L295.993 258.41
L297.011 257.991
L298.367 257.49
L301.081 256.418
L307.187 254.1
L308.883 253.529
L310.918 252.795
L312.953 251.954
L315.667 250.973
L317.363 250.388
L319.398 249.713
L323.13 248.407
L324.147 247.986
L327.2 246.898
L329.914 245.884
L331.61 245.146
L333.306 244.541
L339.073 242.37
L341.447 241.515
L355.015 236.675
L358.407 235.636
L359.425 235.321
L361.8 234.482
L363.156 234.007
L365.87 233.24
L367.227 232.754
L369.941 231.976
L372.315 231.23
L374.011 230.756
L381.474 228.468
L399.791 222.09
L401.487 221.46
L419.465 215.998
L421.161 215.46
L435.069 211.254
L438.461 210.345
L440.157 209.868
L443.549 208.956
L456.778 205.324
L461.527 204.18
L467.972 202.474
L471.025 201.782
L475.096 200.894
L475.096 200.894" style="fill:none;stroke:#ff0000;stroke-linecap:square;"/>
   </g>
   <g id="line2d_11">
    <path clip-path="url(#p2118423672)" d="
M28.6956 368.719
L44.9777 361.42
L57.8677 355.285
L74.8281 347.076
L77.2026 345.96
L81.9516 343.585
L85.6829 341.834
L92.1278 338.729
L96.1984 336.867
L132.494 319.616
L134.529 318.657
L140.635 315.769
L142.67 314.852
L158.952 307.116
L162.005 305.548
L165.736 303.645
L174.217 299.374
L179.305 297.075
L182.018 295.838
L193.212 290.892
L200.336 287.927
L202.371 286.884
L204.067 286.03
L205.424 285.295
L206.442 284.73
L209.155 283.255
L210.851 282.148
L212.208 281.296
L216.957 278.416
L229.847 270.627
L230.865 270.098
L231.882 269.527
L232.9 269.025
L234.935 268.009
L244.772 262.582
L248.164 260.742
L249.182 260.177
L249.86 259.786
L269.195 248.936
L270.552 248.323
L278.015 244.583
L279.372 243.879
L280.389 243.357
L287.852 239.259
L288.53 238.842
L293.958 236.052
L296.671 234.861
L299.385 233.62
L300.063 233.214
L305.491 230.622
L307.187 229.932
L308.883 229.124
L312.614 227.456
L314.31 226.701
L325.504 221.899
L328.557 220.754
L329.235 220.455
L331.61 219.532
L334.324 218.348
L336.02 217.716
L340.09 216.207
L345.518 214.096
L347.214 213.469
L348.57 212.942
L349.588 212.456
L350.945 211.941
L352.98 211.108
L354.676 210.413
L357.39 209.464
L362.478 207.465
L367.566 205.543
L368.923 205.051
L370.619 204.354
L372.654 203.569
L375.029 202.656
L376.725 201.971
L378.421 201.289
L380.795 200.297
L382.831 199.507
L387.58 197.734
L416.073 187.378
L418.108 186.71
L421.5 185.545
L424.553 184.493
L426.589 183.817
L428.624 183.135
L442.871 178.195
L444.906 177.465
L449.655 175.778
L450.673 175.394
L454.404 174.027
L475.096 167.763
L475.096 167.763" style="fill:none;stroke:#00bfbf;stroke-linecap:square;"/>
   </g>
   <g id="line2d_12">
    <path clip-path="url(#p2118423672)" d="
M28.6956 368.725
L39.8895 362.882
L44.2993 360.401
L46.6737 359.074
L47.6914 358.456
L68.3832 346.696
L71.4361 344.978
L102.643 327.474
L105.018 326.123
L115.194 320.401
L133.172 310.551
L136.904 308.392
L152.507 299.84
L162.344 294.803
L166.754 292.313
L172.521 288.983
L175.234 287.493
L177.948 286.16
L183.714 283.103
L185.411 282.226
L195.248 276.731
L197.622 275.224
L198.3 274.763
L199.657 273.944
L200.675 273.258
L201.693 272.713
L202.71 272.07
L204.745 270.633
L205.424 270.089
L206.102 269.503
L207.459 268.573
L208.138 268.03
L208.816 267.577
L212.887 264.155
L217.296 261.008
L218.314 260.258
L218.992 259.693
L220.01 259.037
L221.367 257.978
L223.063 256.897
L224.759 255.664
L226.455 254.489
L227.473 253.964
L228.49 253.409
L242.059 244.561
L244.433 243.23
L249.182 240.465
L250.2 239.722
L251.217 239.046
L253.252 237.89
L254.27 237.333
L255.288 236.733
L261.393 233.081
L266.142 230.085
L269.195 228.148
L271.57 226.609
L274.623 224.622
L279.032 222.191
L280.389 221.472
L282.425 220.398
L284.46 219.161
L285.477 218.598
L286.495 218.049
L287.513 217.283
L296.332 211.905
L297.35 211.306
L299.724 209.872
L301.42 208.888
L305.152 206.981
L306.848 206.081
L309.222 204.876
L310.918 204.021
L312.614 203.241
L313.632 202.651
L321.773 198.899
L322.451 198.489
L336.359 192.262
L337.716 191.668
L342.804 189.459
L344.161 188.897
L345.518 188.317
L346.874 187.708
L348.231 187.157
L350.266 186.256
L355.694 184.016
L359.425 182.356
L372.654 176.355
L381.135 172.403
L383.509 171.48
L388.258 169.447
L392.668 167.6
L396.399 165.931
L397.077 165.642
L397.417 165.274
L400.13 163.897
L420.144 154.363
L421.161 153.972
L422.518 153.478
L425.571 152.363
L426.589 151.953
L428.963 151.117
L434.39 149.032
L436.765 148.112
L438.461 147.436
L456.778 139.995
L459.492 138.815
L466.955 135.688
L475.096 132.561
L475.096 132.561" style="fill:none;stroke:#bf00bf;stroke-linecap:square;"/>
   </g>
   <g id="line2d_13">
    <path clip-path="url(#p2118423672)" d="
M28.6956 368.725
L41.2464 361.923
L43.2816 360.73
L53.4579 354.804
L116.212 317.981
L119.265 316.311
L129.78 309.917
L134.868 306.568
L143.009 301.113
L175.913 282.673
L180.662 279.998
L186.767 276.529
L201.353 268.888
L204.067 267.049
L205.424 266.243
L208.816 263.709
L211.53 261.603
L212.547 260.775
L217.296 256.9
L217.975 256.378
L219.671 255.045
L223.063 252.287
L226.455 249.56
L227.812 248.584
L234.257 243.386
L236.631 241.663
L237.988 240.548
L238.666 240.041
L242.398 237.121
L243.415 236.382
L246.807 233.748
L248.164 232.847
L251.217 230.732
L252.235 230.054
L253.252 229.205
L254.27 228.497
L254.949 227.994
L255.966 227.214
L257.323 226.295
L261.733 223.117
L264.446 221.038
L265.125 220.417
L269.535 217.043
L273.266 214.151
L274.283 213.34
L275.64 212.26
L276.997 211.286
L283.442 206.328
L284.799 205.343
L286.834 203.853
L298.028 197.239
L298.707 196.821
L306.848 191.443
L312.953 187.734
L316.685 185.326
L318.042 184.428
L329.914 177.408
L332.967 176.019
L334.324 175.379
L336.02 174.551
L338.055 173.631
L341.447 171.889
L343.482 170.897
L344.839 170.218
L352.98 165.893
L355.015 164.773
L358.068 163.116
L359.086 162.492
L363.835 159.865
L366.549 158.299
L368.584 157.177
L372.654 154.815
L374.011 154.023
L375.368 153.23
L378.421 151.477
L381.135 149.886
L382.831 148.926
L384.527 147.906
L389.954 144.953
L399.113 140.903
L400.13 140.387
L403.522 138.874
L407.593 137.167
L425.232 130.144
L428.963 128.709
L431.677 127.682
L434.73 126.542
L435.747 126.088
L437.443 125.295
L438.461 124.852
L440.835 123.874
L443.549 122.738
L444.567 122.234
L445.584 121.786
L449.994 119.782
L452.029 118.793
L455.421 117.19
L459.492 115.61
L460.849 115.135
L464.58 113.805
L473.4 110.873
L475.096 110.331
L475.096 110.331" style="fill:none;stroke:#bfbf00;stroke-linecap:square;"/>
   </g>
   <g id="line2d_14">
    <path clip-path="url(#p2118423672)" d="
M28.6956 368.73
L32.0877 366.604
L33.7838 365.516
L36.1582 364.104
L38.1935 362.799
L39.5503 361.942
L45.3169 358.085
L45.9953 357.534
L50.7443 354.278
L56.5108 350.6
L57.1892 350.075
L59.2245 348.74
L63.295 345.96
L64.3126 345.119
L65.3303 344.443
L68.7224 342.268
L71.0968 340.699
L72.4537 339.749
L74.8281 338.163
L76.185 337.282
L78.5595 335.66
L80.2555 334.582
L92.4671 326.434
L94.5023 325.064
L97.5552 323.089
L106.714 317.065
L107.731 316.31
L117.908 309.759
L119.943 308.491
L124.353 305.622
L129.78 302.135
L133.851 299.541
L138.939 296.25
L141.313 294.809
L146.062 291.655
L159.291 282.897
L160.987 281.712
L169.807 275.829
L172.86 273.857
L174.217 273.011
L177.948 270.651
L181.001 268.693
L184.393 266.6
L187.107 264.811
L190.159 263.007
L191.856 261.971
L195.587 259.668
L197.622 258.347
L201.693 255.647
L208.816 250.748
L209.834 249.916
L212.547 247.605
L213.565 246.497
L214.243 245.967
L214.922 245.156
L218.992 241.212
L219.671 240.372
L220.688 239.215
L224.759 234.698
L225.776 233.553
L228.49 231.221
L229.847 230.062
L230.525 229.347
L232.221 227.715
L232.561 227.229
L233.578 226.288
L234.935 224.924
L237.31 222.736
L240.023 220.553
L241.041 219.554
L243.755 217.223
L244.772 216.268
L246.129 215.186
L250.878 210.868
L251.896 209.983
L252.235 209.69
L252.913 208.949
L254.27 207.616
L255.627 206.226
L261.054 201.307
L262.75 199.629
L264.107 198.132
L264.786 197.543
L267.16 195.474
L268.517 194.488
L270.552 192.808
L271.909 191.886
L273.605 190.509
L276.997 188.175
L278.354 187.168
L280.389 185.499
L284.799 182.022
L286.495 180.804
L287.513 180.025
L288.191 179.535
L289.209 178.668
L290.226 177.886
L295.993 172.904
L296.671 172.188
L303.456 166.582
L304.812 165.434
L307.526 163.179
L308.883 162.068
L309.9 161.121
L311.257 160.15
L312.275 159.55
L313.632 158.55
L323.808 152.21
L325.504 151.119
L325.843 150.943
L326.522 150.432
L330.253 147.913
L338.055 142.979
L339.412 142.002
L347.892 136.67
L351.962 134.633
L353.659 133.685
L358.068 131.691
L359.764 130.851
L364.852 128.236
L365.531 127.84
L367.227 126.976
L368.245 126.455
L370.958 125.049
L373.333 123.727
L374.35 123.172
L379.438 120.381
L384.187 117.978
L385.205 117.352
L391.311 114.05
L394.025 112.589
L396.399 111.273
L404.201 107.014
L405.218 106.53
L406.236 105.921
L407.932 105.085
L409.289 104.478
L410.307 104.006
L413.359 102.466
L415.056 101.71
L417.091 100.677
L418.448 99.9882
L419.465 99.5631
L422.179 98.2003
L423.875 97.4054
L443.21 88.2954
L445.924 86.8197
L467.294 78.0956
L467.972 77.8756
L468.99 77.4712
L471.025 76.7109
L472.043 76.3204
L473.06 75.9206
L475.096 75.2214
L475.096 75.2214" style="fill:none;stroke:#000000;stroke-linecap:square;"/>
   </g>
   <g id="line2d_15">
    <path clip-path="url(#p2118423672)" d="
M28.6956 368.728
L33.4446 365.691
L37.1759 363.16
L41.2464 360.437
L45.3169 357.556
L46.3345 356.795
L55.154 350.592
L56.85 349.381
L59.5637 347.3
L64.3126 343.722
L66.3479 342.255
L70.0792 339.334
L71.4361 338.313
L72.1145 337.78
L74.1497 336.286
L79.9163 331.995
L82.9692 329.816
L85.3436 327.952
L86.7005 326.924
L89.075 325.136
L90.4318 324.179
L91.4494 323.435
L94.8415 321.078
L96.1984 320.079
L111.124 309.275
L116.212 305.503
L117.229 304.859
L118.247 304.109
L120.621 302.354
L121.978 301.246
L126.727 297.876
L128.762 296.48
L134.868 292.064
L136.564 290.852
L138.6 289.393
L141.992 287.143
L151.49 279.901
L153.186 278.48
L154.542 277.571
L155.221 277.037
L158.613 274.609
L159.97 273.567
L162.683 271.579
L164.38 270.121
L165.736 269.054
L167.772 267.389
L170.485 265.09
L171.842 264.201
L172.86 263.463
L176.252 261.164
L177.609 260.212
L179.983 258.692
L183.036 256.563
L187.785 253.371
L190.838 251.311
L193.891 249.095
L197.622 246.303
L202.032 242.578
L203.049 241.78
L204.406 240.816
L205.424 240.046
L209.834 236.767
L217.296 230.52
L224.08 223.975
L225.098 222.768
L227.812 219.888
L234.596 212.581
L236.292 211.125
L237.649 209.913
L240.702 207.409
L245.79 202.971
L246.468 202.428
L247.825 201.27
L249.182 200.332
L250.878 198.968
L251.896 198.12
L252.574 197.469
L255.627 194.723
L256.645 193.805
L259.358 191.403
L262.75 188.546
L265.464 186.433
L275.98 178.113
L276.658 177.551
L277.336 177.057
L284.46 171.046
L288.191 168.264
L296.671 162.416
L297.35 161.834
L299.046 160.62
L303.456 157.184
L304.812 155.969
L306.169 154.917
L311.936 149.925
L312.614 149.508
L319.398 144.89
L320.755 143.856
L326.522 139.93
L331.271 136.524
L331.949 136.073
L336.02 133.043
L337.037 132.404
L339.412 131.078
L340.769 130.16
L341.786 129.58
L343.143 128.61
L345.857 126.894
L349.249 124.899
L349.927 124.473
L352.302 123.126
L353.319 122.44
L361.8 117.42
L363.156 116.592
L365.192 115.378
L367.905 113.664
L369.941 112.403
L371.637 111.392
L373.333 110.456
L374.69 109.575
L385.883 102.921
L387.24 102.008
L387.919 101.63
L389.615 100.59
L390.293 100.102
L394.703 96.9435
L403.522 90.4969
L404.879 89.8414
L409.628 87.5731
L411.324 86.701
L412.342 86.1838
L413.02 85.7829
L416.752 83.783
L417.43 83.389
L428.624 77.538
L429.642 77.0473
L430.998 76.3319
L432.355 75.7778
L436.087 74.218
L440.835 72.1882
L442.531 71.4681
L445.245 70.2724
L448.298 68.9303
L448.976 68.5375
L450.673 67.6735
L453.386 66.4224
L455.082 65.6817
L458.814 63.9145
L459.831 63.3592
L463.562 61.5448
L466.615 59.6797
L467.633 59.1947
L470.347 57.7098
L475.096 55.4968
L475.096 55.4968" style="fill:none;stroke:#0000ff;stroke-linecap:square;"/>
   </g>
   <g id="line2d_16">
    <path clip-path="url(#p2118423672)" d="
M28.6956 368.721
L29.0348 368.387
L29.374 368.165
L35.4798 364.087
L49.3874 354.123
L50.0658 353.554
L55.4932 349.452
L58.5461 347.203
L59.2245 346.63
L64.3126 342.924
L68.044 340.224
L74.4889 335.708
L75.5066 334.955
L76.5242 334.206
L78.8987 332.438
L80.5947 331.285
L90.0926 324.328
L93.1455 321.985
L97.8944 318.511
L99.9297 316.998
L100.608 316.547
L101.287 315.896
L103.322 314.37
L105.357 312.707
L112.141 307.821
L114.176 306.283
L118.925 302.765
L120.282 301.796
L122.318 300.409
L133.172 292.431
L135.886 290.439
L137.582 289.259
L140.974 286.873
L141.992 286.119
L143.009 285.418
L145.384 283.75
L150.472 279.694
L151.15 279.036
L154.882 276.006
L156.238 274.758
L158.613 272.875
L162.005 270.521
L169.128 265.126
L175.573 260.284
L183.375 254.876
L186.767 252.515
L188.803 251.191
L190.838 249.798
L194.23 247.48
L198.979 244.355
L202.032 242.339
L209.155 237.084
L211.53 235.167
L212.547 234.389
L213.904 233.204
L215.6 231.725
L216.279 231.156
L217.296 230.239
L218.653 229.05
L219.671 228.109
L221.367 226.576
L223.063 224.958
L233.239 216.361
L233.918 215.731
L234.596 215.003
L236.292 213.716
L237.31 212.733
L239.006 211.334
L240.702 209.889
L243.076 207.914
L243.415 207.516
L244.094 206.969
L247.486 203.869
L249.182 202.297
L250.2 201.33
L252.913 198.734
L253.592 198.068
L254.609 197.238
L255.288 196.507
L255.966 195.859
L261.733 190.295
L262.75 189.564
L263.768 188.789
L267.16 185.963
L268.517 185.036
L283.442 173.128
L284.121 172.568
L286.495 170.654
L291.583 166.536
L303.795 157.188
L304.473 156.717
L305.83 155.723
L307.526 154.562
L308.883 153.623
L309.9 152.969
L312.953 150.873
L316.006 148.953
L317.702 147.922
L318.381 147.396
L319.398 146.793
L321.434 145.489
L325.843 142.775
L328.557 140.99
L340.09 134.054
L345.857 130.876
L347.553 129.848
L348.57 129.31
L351.962 127.342
L354.337 126.052
L357.39 124.283
L359.086 123.202
L359.764 122.81
L364.513 119.647
L365.531 118.946
L366.549 118.232
L368.923 116.533
L369.601 116.054
L371.297 114.912
L373.333 113.594
L374.69 112.74
L377.742 111.039
L380.795 109.413
L381.813 108.916
L384.187 107.597
L395.381 101.224
L401.148 97.9169
L402.844 96.9089
L405.558 95.4332
L406.575 94.9102
L407.254 94.5266
L409.628 93.2847
L417.769 88.8345
L419.804 87.5812
L420.822 87.0489
L423.536 85.564
L425.91 84.2346
L435.069 78.9435
L435.747 78.5288
L437.443 77.5772
L439.139 76.5243
L442.192 74.6258
L445.584 72.3702
L448.298 70.7516
L460.51 65.0976
L465.259 63.1173
L467.294 62.1439
L469.668 61.2084
L474.417 59.2086
L475.096 58.9632
L475.096 58.9632" style="fill:none;stroke:#008000;stroke-linecap:square;"/>
   </g>
   <g id="patch_3">
    <path d="
M28.6956 368.742
L28.6956 23.1418" style="fill:none;stroke:#000000;stroke-linecap:square;stroke-linejoin:miter;"/>
   </g>
   <g id="patch_4">
    <path d="
M475.096 368.742
L475.096 23.1418" style="fill:none;stroke:#000000;stroke-linecap:square;stroke-linejoin:miter;"/>
   </g>
   <g id="patch_5">
    <path d="
M28.6956 23.1417
L475.096 23.1417" style="fill:none;stroke:#000000;stroke-linecap:square;stroke-linejoin:miter;"/>
   </g>
   <g id="patch_6">
    <path d="
M28.6956 368.742
L475.096 368.742" style="fill:none;stroke:#000000;stroke-linecap:square;stroke-linejoin:miter;"/>
   </g>
   <g id="matplotlib.axis_1">
    <g id="xtick_1">
     <g id="line2d_17">
      <defs>
       <path d="
M0 0
L0 -4" id="mc7db9fdffb" style="stroke:#000000;stroke-width:0.5;"/>
      </defs>
      <g>
       <use style="stroke:#000000;stroke-width:0.5;" x="28.695625" xlink:href="#mc7db9fdffb" y="368.74175"/>
      </g>
     </g>
     <g id="line2d_18">
      <defs>
       <path d="
M0 0
L0 4" id="m5a7d422ac3" style="stroke:#000000;stroke-width:0.5;"/>
      </defs>
      <g>
       <use style="stroke:#000000;stroke-width:0.5;" x="28.695625" xlink:href="#m5a7d422ac3" y="23.14175"/>
      </g>
     </g>
     <g id="text_1">
      <!-- 0 -->
      <defs>
       <path d="
M31.7812 66.4062
Q24.1719 66.4062 20.3281 58.9062
Q16.5 51.4219 16.5 36.375
Q16.5 21.3906 20.3281 13.8906
Q24.1719 6.39062 31.7812 6.39062
Q39.4531 6.39062 43.2812 13.8906
Q47.125 21.3906 47.125 36.375
Q47.125 51.4219 43.2812 58.9062
Q39.4531 66.4062 31.7812 66.4062
M31.7812 74.2188
Q44.0469 74.2188 50.5156 64.5156
Q56.9844 54.8281 56.9844 36.375
Q56.9844 17.9688 50.5156 8.26562
Q44.0469 -1.42188 31.7812 -1.42188
Q19.5312 -1.42188 13.0625 8.26562
Q6.59375 17.9688 6.59375 36.375
Q6.59375 54.8281 13.0625 64.5156
Q19.5312 74.2188 31.7812 74.2188" id="DejaVuSans-30"/>
      </defs>
      <g transform="translate(25.6721875 381.859875)scale(0.12 -0.12)">
       <use xlink:href="#DejaVuSans-30"/>
      </g>
     </g>
    </g>
    <g id="xtick_2">
     <g id="line2d_19">
      <g>
       <use style="stroke:#000000;stroke-width:0.5;" x="96.5375702888" xlink:href="#mc7db9fdffb" y="368.74175"/>
      </g>
     </g>
     <g id="line2d_20">
      <g>
       <use style="stroke:#000000;stroke-width:0.5;" x="96.5375702888" xlink:href="#m5a7d422ac3" y="23.14175"/>
      </g>
     </g>
     <g id="text_2">
      <!-- 200 -->
      <defs>
       <path d="
M19.1875 8.29688
L53.6094 8.29688
L53.6094 0
L7.32812 0
L7.32812 8.29688
Q12.9375 14.1094 22.625 23.8906
Q32.3281 33.6875 34.8125 36.5312
Q39.5469 41.8438 41.4219 45.5312
Q43.3125 49.2188 43.3125 52.7812
Q43.3125 58.5938 39.2344 62.25
Q35.1562 65.9219 28.6094 65.9219
Q23.9688 65.9219 18.8125 64.3125
Q13.6719 62.7031 7.8125 59.4219
L7.8125 69.3906
Q13.7656 71.7812 18.9375 73
Q24.125 74.2188 28.4219 74.2188
Q39.75 74.2188 46.4844 68.5469
Q53.2188 62.8906 53.2188 53.4219
Q53.2188 48.9219 51.5312 44.8906
Q49.8594 40.875 45.4062 35.4062
Q44.1875 33.9844 37.6406 27.2188
Q31.1094 20.4531 19.1875 8.29688" id="DejaVuSans-32"/>
      </defs>
      <g transform="translate(85.9231952888 381.859875)scale(0.12 -0.12)">
       <use xlink:href="#DejaVuSans-32"/>
       <use x="63.623046875" xlink:href="#DejaVuSans-30"/>
       <use x="127.24609375" xlink:href="#DejaVuSans-30"/>
      </g>
     </g>
    </g>
    <g id="xtick_3">
     <g id="line2d_21">
      <g>
       <use style="stroke:#000000;stroke-width:0.5;" x="164.379515578" xlink:href="#mc7db9fdffb" y="368.74175"/>
      </g>
     </g>
     <g id="line2d_22">
      <g>
       <use style="stroke:#000000;stroke-width:0.5;" x="164.379515578" xlink:href="#m5a7d422ac3" y="23.14175"/>
      </g>
     </g>
     <g id="text_3">
      <!-- 400 -->
      <defs>
       <path d="
M37.7969 64.3125
L12.8906 25.3906
L37.7969 25.3906
z

M35.2031 72.9062
L47.6094 72.9062
L47.6094 25.3906
L58.0156 25.3906
L58.0156 17.1875
L47.6094 17.1875
L47.6094 0
L37.7969 0
L37.7969 17.1875
L4.89062 17.1875
L4.89062 26.7031
z
" id="DejaVuSans-34"/>
      </defs>
      <g transform="translate(153.618890578 381.859875)scale(0.12 -0.12)">
       <use xlink:href="#DejaVuSans-34"/>
       <use x="63.623046875" xlink:href="#DejaVuSans-30"/>
       <use x="127.24609375" xlink:href="#DejaVuSans-30"/>
      </g>
     </g>
    </g>
    <g id="xtick_4">
     <g id="line2d_23">
      <g>
       <use style="stroke:#000000;stroke-width:0.5;" x="232.221460866" xlink:href="#mc7db9fdffb" y="368.74175"/>
      </g>
     </g>
     <g id="line2d_24">
      <g>
       <use style="stroke:#000000;stroke-width:0.5;" x="232.221460866" xlink:href="#m5a7d422ac3" y="23.14175"/>
      </g>
     </g>
     <g id="text_4">
      <!-- 600 -->
      <defs>
       <path d="
M33.0156 40.375
Q26.375 40.375 22.4844 35.8281
Q18.6094 31.2969 18.6094 23.3906
Q18.6094 15.5312 22.4844 10.9531
Q26.375 6.39062 33.0156 6.39062
Q39.6562 6.39062 43.5312 10.9531
Q47.4062 15.5312 47.4062 23.3906
Q47.4062 31.2969 43.5312 35.8281
Q39.6562 40.375 33.0156 40.375
M52.5938 71.2969
L52.5938 62.3125
Q48.875 64.0625 45.0938 64.9844
Q41.3125 65.9219 37.5938 65.9219
Q27.8281 65.9219 22.6719 59.3281
Q17.5312 52.7344 16.7969 39.4062
Q19.6719 43.6562 24.0156 45.9219
Q28.375 48.1875 33.5938 48.1875
Q44.5781 48.1875 50.9531 41.5156
Q57.3281 34.8594 57.3281 23.3906
Q57.3281 12.1562 50.6875 5.35938
Q44.0469 -1.42188 33.0156 -1.42188
Q20.3594 -1.42188 13.6719 8.26562
Q6.98438 17.9688 6.98438 36.375
Q6.98438 53.6562 15.1875 63.9375
Q23.3906 74.2188 37.2031 74.2188
Q40.9219 74.2188 44.7031 73.4844
Q48.4844 72.75 52.5938 71.2969" id="DejaVuSans-36"/>
      </defs>
      <g transform="translate(221.586460866 381.859875)scale(0.12 -0.12)">
       <use xlink:href="#DejaVuSans-36"/>
       <use x="63.623046875" xlink:href="#DejaVuSans-30"/>
       <use x="127.24609375" xlink:href="#DejaVuSans-30"/>
      </g>
     </g>
    </g>
    <g id="xtick_5">
     <g id="line2d_25">
      <g>
       <use style="stroke:#000000;stroke-width:0.5;" x="300.063406155" xlink:href="#mc7db9fdffb" y="368.74175"/>
      </g>
     </g>
     <g id="line2d_26">
      <g>
       <use style="stroke:#000000;stroke-width:0.5;" x="300.063406155" xlink:href="#m5a7d422ac3" y="23.14175"/>
      </g>
     </g>
     <g id="text_5">
      <!-- 800 -->
      <defs>
       <path d="
M31.7812 34.625
Q24.75 34.625 20.7188 30.8594
Q16.7031 27.0938 16.7031 20.5156
Q16.7031 13.9219 20.7188 10.1562
Q24.75 6.39062 31.7812 6.39062
Q38.8125 6.39062 42.8594 10.1719
Q46.9219 13.9688 46.9219 20.5156
Q46.9219 27.0938 42.8906 30.8594
Q38.875 34.625 31.7812 34.625
M21.9219 38.8125
Q15.5781 40.375 12.0312 44.7188
Q8.5 49.0781 8.5 55.3281
Q8.5 64.0625 14.7188 69.1406
Q20.9531 74.2188 31.7812 74.2188
Q42.6719 74.2188 48.875 69.1406
Q55.0781 64.0625 55.0781 55.3281
Q55.0781 49.0781 51.5312 44.7188
Q48 40.375 41.7031 38.8125
Q48.8281 37.1562 52.7969 32.3125
Q56.7812 27.4844 56.7812 20.5156
Q56.7812 9.90625 50.3125 4.23438
Q43.8438 -1.42188 31.7812 -1.42188
Q19.7344 -1.42188 13.25 4.23438
Q6.78125 9.90625 6.78125 20.5156
Q6.78125 27.4844 10.7812 32.3125
Q14.7969 37.1562 21.9219 38.8125
M18.3125 54.3906
Q18.3125 48.7344 21.8438 45.5625
Q25.3906 42.3906 31.7812 42.3906
Q38.1406 42.3906 41.7188 45.5625
Q45.3125 48.7344 45.3125 54.3906
Q45.3125 60.0625 41.7188 63.2344
Q38.1406 66.4062 31.7812 66.4062
Q25.3906 66.4062 21.8438 63.2344
Q18.3125 60.0625 18.3125 54.3906" id="DejaVuSans-38"/>
      </defs>
      <g transform="translate(289.416218655 381.859875)scale(0.12 -0.12)">
       <use xlink:href="#DejaVuSans-38"/>
       <use x="63.623046875" xlink:href="#DejaVuSans-30"/>
       <use x="127.24609375" xlink:href="#DejaVuSans-30"/>
      </g>
     </g>
    </g>
    <g id="xtick_6">
     <g id="line2d_27">
      <g>
       <use style="stroke:#000000;stroke-width:0.5;" x="367.905351444" xlink:href="#mc7db9fdffb" y="368.74175"/>
      </g>
     </g>
     <g id="line2d_28">
      <g>
       <use style="stroke:#000000;stroke-width:0.5;" x="367.905351444" xlink:href="#m5a7d422ac3" y="23.14175"/>
      </g>
     </g>
     <g id="text_6">
      <!-- 1000 -->
      <defs>
       <path d="
M12.4062 8.29688
L28.5156 8.29688
L28.5156 63.9219
L10.9844 60.4062
L10.9844 69.3906
L28.4219 72.9062
L38.2812 72.9062
L38.2812 8.29688
L54.3906 8.29688
L54.3906 0
L12.4062 0
z
" id="DejaVuSans-31"/>
      </defs>
      <g transform="translate(353.692851444 381.859875)scale(0.12 -0.12)">
       <use xlink:href="#DejaVuSans-31"/>
       <use x="63.623046875" xlink:href="#DejaVuSans-30"/>
       <use x="127.24609375" xlink:href="#DejaVuSans-30"/>
       <use x="190.869140625" xlink:href="#DejaVuSans-30"/>
      </g>
     </g>
    </g>
    <g id="xtick_7">
     <g id="line2d_29">
      <g>
       <use style="stroke:#000000;stroke-width:0.5;" x="435.747296733" xlink:href="#mc7db9fdffb" y="368.74175"/>
      </g>
     </g>
     <g id="line2d_30">
      <g>
       <use style="stroke:#000000;stroke-width:0.5;" x="435.747296733" xlink:href="#m5a7d422ac3" y="23.14175"/>
      </g>
     </g>
     <g id="text_7">
      <!-- 1200 -->
      <g transform="translate(421.534796733 381.859875)scale(0.12 -0.12)">
       <use xlink:href="#DejaVuSans-31"/>
       <use x="63.623046875" xlink:href="#DejaVuSans-32"/>
       <use x="127.24609375" xlink:href="#DejaVuSans-30"/>
       <use x="190.869140625" xlink:href="#DejaVuSans-30"/>
      </g>
     </g>
    </g>
    <g id="text_8">
     <!-- time -->
     <defs>
      <path d="
M9.42188 54.6875
L18.4062 54.6875
L18.4062 0
L9.42188 0
z

M9.42188 75.9844
L18.4062 75.9844
L18.4062 64.5938
L9.42188 64.5938
z
" id="DejaVuSans-69"/>
      <path d="
M18.3125 70.2188
L18.3125 54.6875
L36.8125 54.6875
L36.8125 47.7031
L18.3125 47.7031
L18.3125 18.0156
Q18.3125 11.3281 20.1406 9.42188
Q21.9688 7.51562 27.5938 7.51562
L36.8125 7.51562
L36.8125 0
L27.5938 0
Q17.1875 0 13.2344 3.875
Q9.28125 7.76562 9.28125 18.0156
L9.28125 47.7031
L2.6875 47.7031
L2.6875 54.6875
L9.28125 54.6875
L9.28125 70.2188
z
" id="DejaVuSans-74"/>
      <path d="
M52 44.1875
Q55.375 50.25 60.0625 53.125
Q64.75 56 71.0938 56
Q79.6406 56 84.2812 50.0156
Q88.9219 44.0469 88.9219 33.0156
L88.9219 0
L79.8906 0
L79.8906 32.7188
Q79.8906 40.5781 77.0938 44.375
Q74.3125 48.1875 68.6094 48.1875
Q61.625 48.1875 57.5625 43.5469
Q53.5156 38.9219 53.5156 30.9062
L53.5156 0
L44.4844 0
L44.4844 32.7188
Q44.4844 40.625 41.7031 44.4062
Q38.9219 48.1875 33.1094 48.1875
Q26.2188 48.1875 22.1562 43.5312
Q18.1094 38.875 18.1094 30.9062
L18.1094 0
L9.07812 0
L9.07812 54.6875
L18.1094 54.6875
L18.1094 46.1875
Q21.1875 51.2188 25.4844 53.6094
Q29.7812 56 35.6875 56
Q41.6562 56 45.8281 52.9688
Q50 49.9531 52 44.1875" id="DejaVuSans-6d"/>
      <path d="
M56.2031 29.5938
L56.2031 25.2031
L14.8906 25.2031
Q15.4844 15.9219 20.4844 11.0625
Q25.4844 6.20312 34.4219 6.20312
Q39.5938 6.20312 44.4531 7.46875
Q49.3125 8.73438 54.1094 11.2812
L54.1094 2.78125
Q49.2656 0.734375 44.1875 -0.34375
Q39.1094 -1.42188 33.8906 -1.42188
Q20.7969 -1.42188 13.1562 6.1875
Q5.51562 13.8125 5.51562 26.8125
Q5.51562 40.2344 12.7656 48.1094
Q20.0156 56 32.3281 56
Q43.3594 56 49.7812 48.8906
Q56.2031 41.7969 56.2031 29.5938
M47.2188 32.2344
Q47.125 39.5938 43.0938 43.9844
Q39.0625 48.3906 32.4219 48.3906
Q24.9062 48.3906 20.3906 44.1406
Q15.875 39.8906 15.1875 32.1719
z
" id="DejaVuSans-65"/>
     </defs>
     <g transform="translate(238.82125 398.473625)scale(0.12 -0.12)">
      <use xlink:href="#DejaVuSans-74"/>
      <use x="39.208984375" xlink:href="#DejaVuSans-69"/>
      <use x="66.9921875" xlink:href="#DejaVuSans-6d"/>
      <use x="164.404296875" xlink:href="#DejaVuSans-65"/>
     </g>
    </g>
   </g>
   <g id="matplotlib.axis_2">
    <g id="ytick_1">
     <g id="line2d_31">
      <defs>
       <path d="
M0 0
L4 0" id="md7965d1ba0" style="stroke:#000000;stroke-width:0.5;"/>
      </defs>
      <g>
       <use style="stroke:#000000;stroke-width:0.5;" x="28.695625" xlink:href="#md7965d1ba0" y="368.74175"/>
      </g>
     </g>
     <g id="line2d_32">
      <defs>
       <path d="
M0 0
L-4 0" id="md9a1c1a7cd" style="stroke:#000000;stroke-width:0.5;"/>
      </defs>
      <g>
       <use style="stroke:#000000;stroke-width:0.5;" x="475.095625" xlink:href="#md9a1c1a7cd" y="368.74175"/>
      </g>
     </g>
     <g id="text_9">
      <!-- 0.0 -->
      <defs>
       <path d="
M10.6875 12.4062
L21 12.4062
L21 0
L10.6875 0
z
" id="DejaVuSans-2e"/>
      </defs>
      <g transform="translate(7.2 372.053)scale(0.12 -0.12)">
       <use xlink:href="#DejaVuSans-30"/>
       <use x="63.623046875" xlink:href="#DejaVuSans-2e"/>
       <use x="95.41015625" xlink:href="#DejaVuSans-30"/>
      </g>
     </g>
    </g>
    <g id="ytick_2">
     <g id="line2d_33">
      <g>
       <use style="stroke:#000000;stroke-width:0.5;" x="28.695625" xlink:href="#md7965d1ba0" y="311.14175"/>
      </g>
     </g>
     <g id="line2d_34">
      <g>
       <use style="stroke:#000000;stroke-width:0.5;" x="475.095625" xlink:href="#md9a1c1a7cd" y="311.14175"/>
      </g>
     </g>
     <g id="text_10">
      <!-- 0.5 -->
      <defs>
       <path d="
M10.7969 72.9062
L49.5156 72.9062
L49.5156 64.5938
L19.8281 64.5938
L19.8281 46.7344
Q21.9688 47.4688 24.1094 47.8281
Q26.2656 48.1875 28.4219 48.1875
Q40.625 48.1875 47.75 41.5
Q54.8906 34.8125 54.8906 23.3906
Q54.8906 11.625 47.5625 5.09375
Q40.2344 -1.42188 26.9062 -1.42188
Q22.3125 -1.42188 17.5469 -0.640625
Q12.7969 0.140625 7.71875 1.70312
L7.71875 11.625
Q12.1094 9.23438 16.7969 8.0625
Q21.4844 6.89062 26.7031 6.89062
Q35.1562 6.89062 40.0781 11.3281
Q45.0156 15.7656 45.0156 23.3906
Q45.0156 31 40.0781 35.4375
Q35.1562 39.8906 26.7031 39.8906
Q22.75 39.8906 18.8125 39.0156
Q14.8906 38.1406 10.7969 36.2812
z
" id="DejaVuSans-35"/>
      </defs>
      <g transform="translate(7.45125 314.453)scale(0.12 -0.12)">
       <use xlink:href="#DejaVuSans-30"/>
       <use x="63.623046875" xlink:href="#DejaVuSans-2e"/>
       <use x="95.41015625" xlink:href="#DejaVuSans-35"/>
      </g>
     </g>
    </g>
    <g id="ytick_3">
     <g id="line2d_35">
      <g>
       <use style="stroke:#000000;stroke-width:0.5;" x="28.695625" xlink:href="#md7965d1ba0" y="253.54175"/>
      </g>
     </g>
     <g id="line2d_36">
      <g>
       <use style="stroke:#000000;stroke-width:0.5;" x="475.095625" xlink:href="#md9a1c1a7cd" y="253.54175"/>
      </g>
     </g>
     <g id="text_11">
      <!-- 1.0 -->
      <g transform="translate(7.726875 256.853)scale(0.12 -0.12)">
       <use xlink:href="#DejaVuSans-31"/>
       <use x="63.623046875" xlink:href="#DejaVuSans-2e"/>
       <use x="95.41015625" xlink:href="#DejaVuSans-30"/>
      </g>
     </g>
    </g>
    <g id="ytick_4">
     <g id="line2d_37">
      <g>
       <use style="stroke:#000000;stroke-width:0.5;" x="28.695625" xlink:href="#md7965d1ba0" y="195.94175"/>
      </g>
     </g>
     <g id="line2d_38">
      <g>
       <use style="stroke:#000000;stroke-width:0.5;" x="475.095625" xlink:href="#md9a1c1a7cd" y="195.94175"/>
      </g>
     </g>
     <g id="text_12">
      <!-- 1.5 -->
      <g transform="translate(7.978125 199.253)scale(0.12 -0.12)">
       <use xlink:href="#DejaVuSans-31"/>
       <use x="63.623046875" xlink:href="#DejaVuSans-2e"/>
       <use x="95.41015625" xlink:href="#DejaVuSans-35"/>
      </g>
     </g>
    </g>
    <g id="ytick_5">
     <g id="line2d_39">
      <g>
       <use style="stroke:#000000;stroke-width:0.5;" x="28.695625" xlink:href="#md7965d1ba0" y="138.34175"/>
      </g>
     </g>
     <g id="line2d_40">
      <g>
       <use style="stroke:#000000;stroke-width:0.5;" x="475.095625" xlink:href="#md9a1c1a7cd" y="138.34175"/>
      </g>
     </g>
     <g id="text_13">
      <!-- 2.0 -->
      <g transform="translate(7.288125 141.653)scale(0.12 -0.12)">
       <use xlink:href="#DejaVuSans-32"/>
       <use x="63.623046875" xlink:href="#DejaVuSans-2e"/>
       <use x="95.41015625" xlink:href="#DejaVuSans-30"/>
      </g>
     </g>
    </g>
    <g id="ytick_6">
     <g id="line2d_41">
      <g>
       <use style="stroke:#000000;stroke-width:0.5;" x="28.695625" xlink:href="#md7965d1ba0" y="80.74175"/>
      </g>
     </g>
     <g id="line2d_42">
      <g>
       <use style="stroke:#000000;stroke-width:0.5;" x="475.095625" xlink:href="#md9a1c1a7cd" y="80.74175"/>
      </g>
     </g>
     <g id="text_14">
      <!-- 2.5 -->
      <g transform="translate(7.539375 84.053)scale(0.12 -0.12)">
       <use xlink:href="#DejaVuSans-32"/>
       <use x="63.623046875" xlink:href="#DejaVuSans-2e"/>
       <use x="95.41015625" xlink:href="#DejaVuSans-35"/>
      </g>
     </g>
    </g>
    <g id="ytick_7">
     <g id="line2d_43">
      <g>
       <use style="stroke:#000000;stroke-width:0.5;" x="28.695625" xlink:href="#md7965d1ba0" y="23.14175"/>
      </g>
     </g>
     <g id="line2d_44">
      <g>
       <use style="stroke:#000000;stroke-width:0.5;" x="475.095625" xlink:href="#md9a1c1a7cd" y="23.14175"/>
      </g>
     </g>
     <g id="text_15">
      <!-- 3.0 -->
      <defs>
       <path d="
M40.5781 39.3125
Q47.6562 37.7969 51.625 33
Q55.6094 28.2188 55.6094 21.1875
Q55.6094 10.4062 48.1875 4.48438
Q40.7656 -1.42188 27.0938 -1.42188
Q22.5156 -1.42188 17.6562 -0.515625
Q12.7969 0.390625 7.625 2.20312
L7.625 11.7188
Q11.7188 9.32812 16.5938 8.10938
Q21.4844 6.89062 26.8125 6.89062
Q36.0781 6.89062 40.9375 10.5469
Q45.7969 14.2031 45.7969 21.1875
Q45.7969 27.6406 41.2812 31.2656
Q36.7656 34.9062 28.7188 34.9062
L20.2188 34.9062
L20.2188 43.0156
L29.1094 43.0156
Q36.375 43.0156 40.2344 45.9219
Q44.0938 48.8281 44.0938 54.2969
Q44.0938 59.9062 40.1094 62.9062
Q36.1406 65.9219 28.7188 65.9219
Q24.6562 65.9219 20.0156 65.0312
Q15.375 64.1562 9.8125 62.3125
L9.8125 71.0938
Q15.4375 72.6562 20.3438 73.4375
Q25.25 74.2188 29.5938 74.2188
Q40.8281 74.2188 47.3594 69.1094
Q53.9062 64.0156 53.9062 55.3281
Q53.9062 49.2656 50.4375 45.0938
Q46.9688 40.9219 40.5781 39.3125" id="DejaVuSans-33"/>
      </defs>
      <g transform="translate(7.32375 26.453)scale(0.12 -0.12)">
       <use xlink:href="#DejaVuSans-33"/>
       <use x="63.623046875" xlink:href="#DejaVuSans-2e"/>
       <use x="95.41015625" xlink:href="#DejaVuSans-30"/>
      </g>
     </g>
    </g>
    <g id="text_16">
     <!-- 1e11 -->
     <g transform="translate(28.695625 20.14175)scale(0.12 -0.12)">
      <use xlink:href="#DejaVuSans-31"/>
      <use x="63.623046875" xlink:href="#DejaVuSans-65"/>
      <use x="125.146484375" xlink:href="#DejaVuSans-31"/>
      <use x="188.76953125" xlink:href="#DejaVuSans-31"/>
     </g>
    </g>
   </g>
   <g id="text_17">
    <!-- /agas/time/decrement_credit -->
    <defs>
     <path d="
M54.8906 33.0156
L54.8906 0
L45.9062 0
L45.9062 32.7188
Q45.9062 40.4844 42.875 44.3281
Q39.8438 48.1875 33.7969 48.1875
Q26.5156 48.1875 22.3125 43.5469
Q18.1094 38.9219 18.1094 30.9062
L18.1094 0
L9.07812 0
L9.07812 54.6875
L18.1094 54.6875
L18.1094 46.1875
Q21.3438 51.125 25.7031 53.5625
Q30.0781 56 35.7969 56
Q45.2188 56 50.0469 50.1719
Q54.8906 44.3438 54.8906 33.0156" id="DejaVuSans-6e"/>
     <path d="
M45.4062 27.9844
Q45.4062 37.75 41.375 43.1094
Q37.3594 48.4844 30.0781 48.4844
Q22.8594 48.4844 18.8281 43.1094
Q14.7969 37.75 14.7969 27.9844
Q14.7969 18.2656 18.8281 12.8906
Q22.8594 7.51562 30.0781 7.51562
Q37.3594 7.51562 41.375 12.8906
Q45.4062 18.2656 45.4062 27.9844
M54.3906 6.78125
Q54.3906 -7.17188 48.1875 -13.9844
Q42 -20.7969 29.2031 -20.7969
Q24.4688 -20.7969 20.2656 -20.0938
Q16.0625 -19.3906 12.1094 -17.9219
L12.1094 -9.1875
Q16.0625 -11.3281 19.9219 -12.3438
Q23.7812 -13.375 27.7812 -13.375
Q36.625 -13.375 41.0156 -8.76562
Q45.4062 -4.15625 45.4062 5.17188
L45.4062 9.625
Q42.625 4.78125 38.2812 2.39062
Q33.9375 0 27.875 0
Q17.8281 0 11.6719 7.65625
Q5.51562 15.3281 5.51562 27.9844
Q5.51562 40.6719 11.6719 48.3281
Q17.8281 56 27.875 56
Q33.9375 56 38.2812 53.6094
Q42.625 51.2188 45.4062 46.3906
L45.4062 54.6875
L54.3906 54.6875
z
" id="DejaVuSans-67"/>
     <path d="
M50.9844 -16.6094
L50.9844 -23.5781
L-0.984375 -23.5781
L-0.984375 -16.6094
z
" id="DejaVuSans-5f"/>
     <path d="
M41.1094 46.2969
Q39.5938 47.1719 37.8125 47.5781
Q36.0312 48 33.8906 48
Q26.2656 48 22.1875 43.0469
Q18.1094 38.0938 18.1094 28.8125
L18.1094 0
L9.07812 0
L9.07812 54.6875
L18.1094 54.6875
L18.1094 46.1875
Q20.9531 51.1719 25.4844 53.5781
Q30.0312 56 36.5312 56
Q37.4531 56 38.5781 55.875
Q39.7031 55.7656 41.0625 55.5156
z
" id="DejaVuSans-72"/>
     <path d="
M34.2812 27.4844
Q23.3906 27.4844 19.1875 25
Q14.9844 22.5156 14.9844 16.5
Q14.9844 11.7188 18.1406 8.90625
Q21.2969 6.10938 26.7031 6.10938
Q34.1875 6.10938 38.7031 11.4062
Q43.2188 16.7031 43.2188 25.4844
L43.2188 27.4844
z

M52.2031 31.2031
L52.2031 0
L43.2188 0
L43.2188 8.29688
Q40.1406 3.32812 35.5469 0.953125
Q30.9531 -1.42188 24.3125 -1.42188
Q15.9219 -1.42188 10.9531 3.29688
Q6 8.01562 6 15.9219
Q6 25.1406 12.1719 29.8281
Q18.3594 34.5156 30.6094 34.5156
L43.2188 34.5156
L43.2188 35.4062
Q43.2188 41.6094 39.1406 45
Q35.0625 48.3906 27.6875 48.3906
Q23 48.3906 18.5469 47.2656
Q14.1094 46.1406 10.0156 43.8906
L10.0156 52.2031
Q14.9375 54.1094 19.5781 55.0469
Q24.2188 56 28.6094 56
Q40.4844 56 46.3438 49.8438
Q52.2031 43.7031 52.2031 31.2031" id="DejaVuSans-61"/>
     <path d="
M48.7812 52.5938
L48.7812 44.1875
Q44.9688 46.2969 41.1406 47.3438
Q37.3125 48.3906 33.4062 48.3906
Q24.6562 48.3906 19.8125 42.8438
Q14.9844 37.3125 14.9844 27.2969
Q14.9844 17.2812 19.8125 11.7344
Q24.6562 6.20312 33.4062 6.20312
Q37.3125 6.20312 41.1406 7.25
Q44.9688 8.29688 48.7812 10.4062
L48.7812 2.09375
Q45.0156 0.34375 40.9844 -0.53125
Q36.9688 -1.42188 32.4219 -1.42188
Q20.0625 -1.42188 12.7812 6.34375
Q5.51562 14.1094 5.51562 27.2969
Q5.51562 40.6719 12.8594 48.3281
Q20.2188 56 33.0156 56
Q37.1562 56 41.1094 55.1406
Q45.0625 54.2969 48.7812 52.5938" id="DejaVuSans-63"/>
     <path d="
M25.3906 72.9062
L33.6875 72.9062
L8.29688 -9.28125
L0 -9.28125
z
" id="DejaVuSans-2f"/>
     <path d="
M45.4062 46.3906
L45.4062 75.9844
L54.3906 75.9844
L54.3906 0
L45.4062 0
L45.4062 8.20312
Q42.5781 3.32812 38.25 0.953125
Q33.9375 -1.42188 27.875 -1.42188
Q17.9688 -1.42188 11.7344 6.48438
Q5.51562 14.4062 5.51562 27.2969
Q5.51562 40.1875 11.7344 48.0938
Q17.9688 56 27.875 56
Q33.9375 56 38.25 53.625
Q42.5781 51.2656 45.4062 46.3906
M14.7969 27.2969
Q14.7969 17.3906 18.875 11.75
Q22.9531 6.10938 30.0781 6.10938
Q37.2031 6.10938 41.2969 11.75
Q45.4062 17.3906 45.4062 27.2969
Q45.4062 37.2031 41.2969 42.8438
Q37.2031 48.4844 30.0781 48.4844
Q22.9531 48.4844 18.875 42.8438
Q14.7969 37.2031 14.7969 27.2969" id="DejaVuSans-64"/>
     <path d="
M44.2812 53.0781
L44.2812 44.5781
Q40.4844 46.5312 36.375 47.5
Q32.2812 48.4844 27.875 48.4844
Q21.1875 48.4844 17.8438 46.4375
Q14.5 44.3906 14.5 40.2812
Q14.5 37.1562 16.8906 35.375
Q19.2812 33.5938 26.5156 31.9844
L29.5938 31.2969
Q39.1562 29.25 43.1875 25.5156
Q47.2188 21.7812 47.2188 15.0938
Q47.2188 7.46875 41.1875 3.01562
Q35.1562 -1.42188 24.6094 -1.42188
Q20.2188 -1.42188 15.4531 -0.5625
Q10.6875 0.296875 5.42188 2
L5.42188 11.2812
Q10.4062 8.6875 15.2344 7.39062
Q20.0625 6.10938 24.8125 6.10938
Q31.1562 6.10938 34.5625 8.28125
Q37.9844 10.4531 37.9844 14.4062
Q37.9844 18.0625 35.5156 20.0156
Q33.0625 21.9688 24.7031 23.7812
L21.5781 24.5156
Q13.2344 26.2656 9.51562 29.9062
Q5.8125 33.5469 5.8125 39.8906
Q5.8125 47.6094 11.2812 51.7969
Q16.75 56 26.8125 56
Q31.7812 56 36.1719 55.2656
Q40.5781 54.5469 44.2812 53.0781" id="DejaVuSans-73"/>
    </defs>
    <g transform="translate(148.18075 18.14175)scale(0.144 -0.144)">
     <use xlink:href="#DejaVuSans-2f"/>
     <use x="33.69140625" xlink:href="#DejaVuSans-61"/>
     <use x="94.970703125" xlink:href="#DejaVuSans-67"/>
     <use x="158.447265625" xlink:href="#DejaVuSans-61"/>
     <use x="219.7265625" xlink:href="#DejaVuSans-73"/>
     <use x="271.826171875" xlink:href="#DejaVuSans-2f"/>
     <use x="305.517578125" xlink:href="#DejaVuSans-74"/>
     <use x="344.7265625" xlink:href="#DejaVuSans-69"/>
     <use x="372.509765625" xlink:href="#DejaVuSans-6d"/>
     <use x="469.921875" xlink:href="#DejaVuSans-65"/>
     <use x="531.4453125" xlink:href="#DejaVuSans-2f"/>
     <use x="565.13671875" xlink:href="#DejaVuSans-64"/>
     <use x="628.61328125" xlink:href="#DejaVuSans-65"/>
     <use x="690.13671875" xlink:href="#DejaVuSans-63"/>
     <use x="745.1171875" xlink:href="#DejaVuSans-72"/>
     <use x="783.98046875" xlink:href="#DejaVuSans-65"/>
     <use x="845.50390625" xlink:href="#DejaVuSans-6d"/>
     <use x="942.916015625" xlink:href="#DejaVuSans-65"/>
     <use x="1004.439453125" xlink:href="#DejaVuSans-6e"/>
     <use x="1067.818359375" xlink:href="#DejaVuSans-74"/>
     <use x="1107.02734375" xlink:href="#DejaVuSans-5f"/>
     <use x="1157.02734375" xlink:href="#DejaVuSans-63"/>
     <use x="1212.0078125" xlink:href="#DejaVuSans-72"/>
     <use x="1250.87109375" xlink:href="#DejaVuSans-65"/>
     <use x="1312.39453125" xlink:href="#DejaVuSans-64"/>
     <use x="1375.87109375" xlink:href="#DejaVuSans-69"/>
     <use x="1403.654296875" xlink:href="#DejaVuSans-74"/>
    </g>
   </g>
   <g id="legend_1">
    <g id="patch_7">
     <path d="
M482.296 367.194
L614.085 367.194
L614.085 24.6897
L482.296 24.6897
z
" style="fill:#ffffff;stroke:#000000;stroke-linejoin:miter;"/>
    </g>
    <g id="line2d_45">
     <path d="
M492.376 36.3515
L512.536 36.3515" style="fill:none;stroke:#0000ff;stroke-linecap:square;"/>
    </g>
    <g id="line2d_46"/>
    <g id="text_18">
     <!-- locality#0 -->
     <defs>
      <path d="
M51.125 44
L36.9219 44
L32.8125 27.6875
L47.125 27.6875
z

M43.7969 71.7812
L38.7188 51.5156
L52.9844 51.5156
L58.1094 71.7812
L65.9219 71.7812
L60.8906 51.5156
L76.125 51.5156
L76.125 44
L58.9844 44
L54.9844 27.6875
L70.5156 27.6875
L70.5156 20.2188
L53.0781 20.2188
L48 0
L40.1875 0
L45.2188 20.2188
L30.9062 20.2188
L25.875 0
L18.0156 0
L23.0938 20.2188
L7.71875 20.2188
L7.71875 27.6875
L24.9062 27.6875
L29 44
L13.2812 44
L13.2812 51.5156
L30.9062 51.5156
L35.8906 71.7812
z
" id="DejaVuSans-23"/>
      <path d="
M30.6094 48.3906
Q23.3906 48.3906 19.1875 42.75
Q14.9844 37.1094 14.9844 27.2969
Q14.9844 17.4844 19.1562 11.8438
Q23.3438 6.20312 30.6094 6.20312
Q37.7969 6.20312 41.9844 11.8594
Q46.1875 17.5312 46.1875 27.2969
Q46.1875 37.0156 41.9844 42.7031
Q37.7969 48.3906 30.6094 48.3906
M30.6094 56
Q42.3281 56 49.0156 48.375
Q55.7188 40.7656 55.7188 27.2969
Q55.7188 13.875 49.0156 6.21875
Q42.3281 -1.42188 30.6094 -1.42188
Q18.8438 -1.42188 12.1719 6.21875
Q5.51562 13.875 5.51562 27.2969
Q5.51562 40.7656 12.1719 48.375
Q18.8438 56 30.6094 56" id="DejaVuSans-6f"/>
      <path d="
M32.1719 -5.07812
Q28.375 -14.8438 24.75 -17.8125
Q21.1406 -20.7969 15.0938 -20.7969
L7.90625 -20.7969
L7.90625 -13.2812
L13.1875 -13.2812
Q16.8906 -13.2812 18.9375 -11.5156
Q21 -9.76562 23.4844 -3.21875
L25.0938 0.875
L2.98438 54.6875
L12.5 54.6875
L29.5938 11.9219
L46.6875 54.6875
L56.2031 54.6875
z
" id="DejaVuSans-79"/>
      <path d="
M9.42188 75.9844
L18.4062 75.9844
L18.4062 0
L9.42188 0
z
" id="DejaVuSans-6c"/>
     </defs>
     <g transform="translate(528.375625 41.3915)scale(0.144 -0.144)">
      <use xlink:href="#DejaVuSans-6c"/>
      <use x="27.783203125" xlink:href="#DejaVuSans-6f"/>
      <use x="88.96484375" xlink:href="#DejaVuSans-63"/>
      <use x="143.9453125" xlink:href="#DejaVuSans-61"/>
      <use x="205.224609375" xlink:href="#DejaVuSans-6c"/>
      <use x="233.0078125" xlink:href="#DejaVuSans-69"/>
      <use x="260.791015625" xlink:href="#DejaVuSans-74"/>
      <use x="300.0" xlink:href="#DejaVuSans-79"/>
      <use x="359.1796875" xlink:href="#DejaVuSans-23"/>
      <use x="442.96875" xlink:href="#DejaVuSans-30"/>
     </g>
    </g>
    <g id="line2d_47">
     <path d="
M492.376 57.488
L512.536 57.488" style="fill:none;stroke:#008000;stroke-linecap:square;"/>
    </g>
    <g id="line2d_48"/>
    <g id="text_19">
     <!-- locality#1 -->
     <g transform="translate(528.375625 62.528)scale(0.144 -0.144)">
      <use xlink:href="#DejaVuSans-6c"/>
      <use x="27.783203125" xlink:href="#DejaVuSans-6f"/>
      <use x="88.96484375" xlink:href="#DejaVuSans-63"/>
      <use x="143.9453125" xlink:href="#DejaVuSans-61"/>
      <use x="205.224609375" xlink:href="#DejaVuSans-6c"/>
      <use x="233.0078125" xlink:href="#DejaVuSans-69"/>
      <use x="260.791015625" xlink:href="#DejaVuSans-74"/>
      <use x="300.0" xlink:href="#DejaVuSans-79"/>
      <use x="359.1796875" xlink:href="#DejaVuSans-23"/>
      <use x="442.96875" xlink:href="#DejaVuSans-31"/>
     </g>
    </g>
    <g id="line2d_49">
     <path d="
M492.376 78.6245
L512.536 78.6245" style="fill:none;stroke:#ff0000;stroke-linecap:square;"/>
    </g>
    <g id="line2d_50"/>
    <g id="text_20">
     <!-- locality#10 -->
     <g transform="translate(528.375625 83.6645)scale(0.144 -0.144)">
      <use xlink:href="#DejaVuSans-6c"/>
      <use x="27.783203125" xlink:href="#DejaVuSans-6f"/>
      <use x="88.96484375" xlink:href="#DejaVuSans-63"/>
      <use x="143.9453125" xlink:href="#DejaVuSans-61"/>
      <use x="205.224609375" xlink:href="#DejaVuSans-6c"/>
      <use x="233.0078125" xlink:href="#DejaVuSans-69"/>
      <use x="260.791015625" xlink:href="#DejaVuSans-74"/>
      <use x="300.0" xlink:href="#DejaVuSans-79"/>
      <use x="359.1796875" xlink:href="#DejaVuSans-23"/>
      <use x="442.96875" xlink:href="#DejaVuSans-31"/>
      <use x="506.591796875" xlink:href="#DejaVuSans-30"/>
     </g>
    </g>
    <g id="line2d_51">
     <path d="
M492.376 99.761
L512.536 99.761" style="fill:none;stroke:#00bfbf;stroke-linecap:square;"/>
    </g>
    <g id="line2d_52"/>
    <g id="text_21">
     <!-- locality#11 -->
     <g transform="translate(528.375625 104.801)scale(0.144 -0.144)">
      <use xlink:href="#DejaVuSans-6c"/>
      <use x="27.783203125" xlink:href="#DejaVuSans-6f"/>
      <use x="88.96484375" xlink:href="#DejaVuSans-63"/>
      <use x="143.9453125" xlink:href="#DejaVuSans-61"/>
      <use x="205.224609375" xlink:href="#DejaVuSans-6c"/>
      <use x="233.0078125" xlink:href="#DejaVuSans-69"/>
      <use x="260.791015625" xlink:href="#DejaVuSans-74"/>
      <use x="300.0" xlink:href="#DejaVuSans-79"/>
      <use x="359.1796875" xlink:href="#DejaVuSans-23"/>
      <use x="442.96875" xlink:href="#DejaVuSans-31"/>
      <use x="506.591796875" xlink:href="#DejaVuSans-31"/>
     </g>
    </g>
    <g id="line2d_53">
     <path d="
M492.376 120.897
L512.536 120.897" style="fill:none;stroke:#bf00bf;stroke-linecap:square;"/>
    </g>
    <g id="line2d_54"/>
    <g id="text_22">
     <!-- locality#12 -->
     <g transform="translate(528.375625 125.9375)scale(0.144 -0.144)">
      <use xlink:href="#DejaVuSans-6c"/>
      <use x="27.783203125" xlink:href="#DejaVuSans-6f"/>
      <use x="88.96484375" xlink:href="#DejaVuSans-63"/>
      <use x="143.9453125" xlink:href="#DejaVuSans-61"/>
      <use x="205.224609375" xlink:href="#DejaVuSans-6c"/>
      <use x="233.0078125" xlink:href="#DejaVuSans-69"/>
      <use x="260.791015625" xlink:href="#DejaVuSans-74"/>
      <use x="300.0" xlink:href="#DejaVuSans-79"/>
      <use x="359.1796875" xlink:href="#DejaVuSans-23"/>
      <use x="442.96875" xlink:href="#DejaVuSans-31"/>
      <use x="506.591796875" xlink:href="#DejaVuSans-32"/>
     </g>
    </g>
    <g id="line2d_55">
     <path d="
M492.376 142.034
L512.536 142.034" style="fill:none;stroke:#bfbf00;stroke-linecap:square;"/>
    </g>
    <g id="line2d_56"/>
    <g id="text_23">
     <!-- locality#13 -->
     <g transform="translate(528.375625 147.074)scale(0.144 -0.144)">
      <use xlink:href="#DejaVuSans-6c"/>
      <use x="27.783203125" xlink:href="#DejaVuSans-6f"/>
      <use x="88.96484375" xlink:href="#DejaVuSans-63"/>
      <use x="143.9453125" xlink:href="#DejaVuSans-61"/>
      <use x="205.224609375" xlink:href="#DejaVuSans-6c"/>
      <use x="233.0078125" xlink:href="#DejaVuSans-69"/>
      <use x="260.791015625" xlink:href="#DejaVuSans-74"/>
      <use x="300.0" xlink:href="#DejaVuSans-79"/>
      <use x="359.1796875" xlink:href="#DejaVuSans-23"/>
      <use x="442.96875" xlink:href="#DejaVuSans-31"/>
      <use x="506.591796875" xlink:href="#DejaVuSans-33"/>
     </g>
    </g>
    <g id="line2d_57">
     <path d="
M492.376 163.17
L512.536 163.17" style="fill:none;stroke:#000000;stroke-linecap:square;"/>
    </g>
    <g id="line2d_58"/>
    <g id="text_24">
     <!-- locality#14 -->
     <g transform="translate(528.375625 168.2105)scale(0.144 -0.144)">
      <use xlink:href="#DejaVuSans-6c"/>
      <use x="27.783203125" xlink:href="#DejaVuSans-6f"/>
      <use x="88.96484375" xlink:href="#DejaVuSans-63"/>
      <use x="143.9453125" xlink:href="#DejaVuSans-61"/>
      <use x="205.224609375" xlink:href="#DejaVuSans-6c"/>
      <use x="233.0078125" xlink:href="#DejaVuSans-69"/>
      <use x="260.791015625" xlink:href="#DejaVuSans-74"/>
      <use x="300.0" xlink:href="#DejaVuSans-79"/>
      <use x="359.1796875" xlink:href="#DejaVuSans-23"/>
      <use x="442.96875" xlink:href="#DejaVuSans-31"/>
      <use x="506.591796875" xlink:href="#DejaVuSans-34"/>
     </g>
    </g>
    <g id="line2d_59">
     <path d="
M492.376 184.307
L512.536 184.307" style="fill:none;stroke:#0000ff;stroke-linecap:square;"/>
    </g>
    <g id="line2d_60"/>
    <g id="text_25">
     <!-- locality#15 -->
     <g transform="translate(528.375625 189.347)scale(0.144 -0.144)">
      <use xlink:href="#DejaVuSans-6c"/>
      <use x="27.783203125" xlink:href="#DejaVuSans-6f"/>
      <use x="88.96484375" xlink:href="#DejaVuSans-63"/>
      <use x="143.9453125" xlink:href="#DejaVuSans-61"/>
      <use x="205.224609375" xlink:href="#DejaVuSans-6c"/>
      <use x="233.0078125" xlink:href="#DejaVuSans-69"/>
      <use x="260.791015625" xlink:href="#DejaVuSans-74"/>
      <use x="300.0" xlink:href="#DejaVuSans-79"/>
      <use x="359.1796875" xlink:href="#DejaVuSans-23"/>
      <use x="442.96875" xlink:href="#DejaVuSans-31"/>
      <use x="506.591796875" xlink:href="#DejaVuSans-35"/>
     </g>
    </g>
    <g id="line2d_61">
     <path d="
M492.376 205.443
L512.536 205.443" style="fill:none;stroke:#008000;stroke-linecap:square;"/>
    </g>
    <g id="line2d_62"/>
    <g id="text_26">
     <!-- locality#2 -->
     <g transform="translate(528.375625 210.4835)scale(0.144 -0.144)">
      <use xlink:href="#DejaVuSans-6c"/>
      <use x="27.783203125" xlink:href="#DejaVuSans-6f"/>
      <use x="88.96484375" xlink:href="#DejaVuSans-63"/>
      <use x="143.9453125" xlink:href="#DejaVuSans-61"/>
      <use x="205.224609375" xlink:href="#DejaVuSans-6c"/>
      <use x="233.0078125" xlink:href="#DejaVuSans-69"/>
      <use x="260.791015625" xlink:href="#DejaVuSans-74"/>
      <use x="300.0" xlink:href="#DejaVuSans-79"/>
      <use x="359.1796875" xlink:href="#DejaVuSans-23"/>
      <use x="442.96875" xlink:href="#DejaVuSans-32"/>
     </g>
    </g>
    <g id="line2d_63">
     <path d="
M492.376 226.58
L512.536 226.58" style="fill:none;stroke:#ff0000;stroke-linecap:square;"/>
    </g>
    <g id="line2d_64"/>
    <g id="text_27">
     <!-- locality#3 -->
     <g transform="translate(528.375625 231.62)scale(0.144 -0.144)">
      <use xlink:href="#DejaVuSans-6c"/>
      <use x="27.783203125" xlink:href="#DejaVuSans-6f"/>
      <use x="88.96484375" xlink:href="#DejaVuSans-63"/>
      <use x="143.9453125" xlink:href="#DejaVuSans-61"/>
      <use x="205.224609375" xlink:href="#DejaVuSans-6c"/>
      <use x="233.0078125" xlink:href="#DejaVuSans-69"/>
      <use x="260.791015625" xlink:href="#DejaVuSans-74"/>
      <use x="300.0" xlink:href="#DejaVuSans-79"/>
      <use x="359.1796875" xlink:href="#DejaVuSans-23"/>
      <use x="442.96875" xlink:href="#DejaVuSans-33"/>
     </g>
    </g>
    <g id="line2d_65">
     <path d="
M492.376 247.716
L512.536 247.716" style="fill:none;stroke:#00bfbf;stroke-linecap:square;"/>
    </g>
    <g id="line2d_66"/>
    <g id="text_28">
     <!-- locality#4 -->
     <g transform="translate(528.375625 252.7565)scale(0.144 -0.144)">
      <use xlink:href="#DejaVuSans-6c"/>
      <use x="27.783203125" xlink:href="#DejaVuSans-6f"/>
      <use x="88.96484375" xlink:href="#DejaVuSans-63"/>
      <use x="143.9453125" xlink:href="#DejaVuSans-61"/>
      <use x="205.224609375" xlink:href="#DejaVuSans-6c"/>
      <use x="233.0078125" xlink:href="#DejaVuSans-69"/>
      <use x="260.791015625" xlink:href="#DejaVuSans-74"/>
      <use x="300.0" xlink:href="#DejaVuSans-79"/>
      <use x="359.1796875" xlink:href="#DejaVuSans-23"/>
      <use x="442.96875" xlink:href="#DejaVuSans-34"/>
     </g>
    </g>
    <g id="line2d_67">
     <path d="
M492.376 268.853
L512.536 268.853" style="fill:none;stroke:#bf00bf;stroke-linecap:square;"/>
    </g>
    <g id="line2d_68"/>
    <g id="text_29">
     <!-- locality#5 -->
     <g transform="translate(528.375625 273.893)scale(0.144 -0.144)">
      <use xlink:href="#DejaVuSans-6c"/>
      <use x="27.783203125" xlink:href="#DejaVuSans-6f"/>
      <use x="88.96484375" xlink:href="#DejaVuSans-63"/>
      <use x="143.9453125" xlink:href="#DejaVuSans-61"/>
      <use x="205.224609375" xlink:href="#DejaVuSans-6c"/>
      <use x="233.0078125" xlink:href="#DejaVuSans-69"/>
      <use x="260.791015625" xlink:href="#DejaVuSans-74"/>
      <use x="300.0" xlink:href="#DejaVuSans-79"/>
      <use x="359.1796875" xlink:href="#DejaVuSans-23"/>
      <use x="442.96875" xlink:href="#DejaVuSans-35"/>
     </g>
    </g>
    <g id="line2d_69">
     <path d="
M492.376 289.989
L512.536 289.989" style="fill:none;stroke:#bfbf00;stroke-linecap:square;"/>
    </g>
    <g id="line2d_70"/>
    <g id="text_30">
     <!-- locality#6 -->
     <g transform="translate(528.375625 295.0295)scale(0.144 -0.144)">
      <use xlink:href="#DejaVuSans-6c"/>
      <use x="27.783203125" xlink:href="#DejaVuSans-6f"/>
      <use x="88.96484375" xlink:href="#DejaVuSans-63"/>
      <use x="143.9453125" xlink:href="#DejaVuSans-61"/>
      <use x="205.224609375" xlink:href="#DejaVuSans-6c"/>
      <use x="233.0078125" xlink:href="#DejaVuSans-69"/>
      <use x="260.791015625" xlink:href="#DejaVuSans-74"/>
      <use x="300.0" xlink:href="#DejaVuSans-79"/>
      <use x="359.1796875" xlink:href="#DejaVuSans-23"/>
      <use x="442.96875" xlink:href="#DejaVuSans-36"/>
     </g>
    </g>
    <g id="line2d_71">
     <path d="
M492.376 311.126
L512.536 311.126" style="fill:none;stroke:#000000;stroke-linecap:square;"/>
    </g>
    <g id="line2d_72"/>
    <g id="text_31">
     <!-- locality#7 -->
     <defs>
      <path d="
M8.20312 72.9062
L55.0781 72.9062
L55.0781 68.7031
L28.6094 0
L18.3125 0
L43.2188 64.5938
L8.20312 64.5938
z
" id="DejaVuSans-37"/>
     </defs>
     <g transform="translate(528.375625 316.166)scale(0.144 -0.144)">
      <use xlink:href="#DejaVuSans-6c"/>
      <use x="27.783203125" xlink:href="#DejaVuSans-6f"/>
      <use x="88.96484375" xlink:href="#DejaVuSans-63"/>
      <use x="143.9453125" xlink:href="#DejaVuSans-61"/>
      <use x="205.224609375" xlink:href="#DejaVuSans-6c"/>
      <use x="233.0078125" xlink:href="#DejaVuSans-69"/>
      <use x="260.791015625" xlink:href="#DejaVuSans-74"/>
      <use x="300.0" xlink:href="#DejaVuSans-79"/>
      <use x="359.1796875" xlink:href="#DejaVuSans-23"/>
      <use x="442.96875" xlink:href="#DejaVuSans-37"/>
     </g>
    </g>
    <g id="line2d_73">
     <path d="
M492.376 332.262
L512.536 332.262" style="fill:none;stroke:#0000ff;stroke-linecap:square;"/>
    </g>
    <g id="line2d_74"/>
    <g id="text_32">
     <!-- locality#8 -->
     <g transform="translate(528.375625 337.3025)scale(0.144 -0.144)">
      <use xlink:href="#DejaVuSans-6c"/>
      <use x="27.783203125" xlink:href="#DejaVuSans-6f"/>
      <use x="88.96484375" xlink:href="#DejaVuSans-63"/>
      <use x="143.9453125" xlink:href="#DejaVuSans-61"/>
      <use x="205.224609375" xlink:href="#DejaVuSans-6c"/>
      <use x="233.0078125" xlink:href="#DejaVuSans-69"/>
      <use x="260.791015625" xlink:href="#DejaVuSans-74"/>
      <use x="300.0" xlink:href="#DejaVuSans-79"/>
      <use x="359.1796875" xlink:href="#DejaVuSans-23"/>
      <use x="442.96875" xlink:href="#DejaVuSans-38"/>
     </g>
    </g>
    <g id="line2d_75">
     <path d="
M492.376 353.399
L512.536 353.399" style="fill:none;stroke:#008000;stroke-linecap:square;"/>
    </g>
    <g id="line2d_76"/>
    <g id="text_33">
     <!-- locality#9 -->
     <defs>
      <path d="
M10.9844 1.51562
L10.9844 10.5
Q14.7031 8.73438 18.5 7.8125
Q22.3125 6.89062 25.9844 6.89062
Q35.75 6.89062 40.8906 13.4531
Q46.0469 20.0156 46.7812 33.4062
Q43.9531 29.2031 39.5938 26.9531
Q35.25 24.7031 29.9844 24.7031
Q19.0469 24.7031 12.6719 31.3125
Q6.29688 37.9375 6.29688 49.4219
Q6.29688 60.6406 12.9375 67.4219
Q19.5781 74.2188 30.6094 74.2188
Q43.2656 74.2188 49.9219 64.5156
Q56.5938 54.8281 56.5938 36.375
Q56.5938 19.1406 48.4062 8.85938
Q40.2344 -1.42188 26.4219 -1.42188
Q22.7031 -1.42188 18.8906 -0.6875
Q15.0938 0.046875 10.9844 1.51562
M30.6094 32.4219
Q37.25 32.4219 41.125 36.9531
Q45.0156 41.5 45.0156 49.4219
Q45.0156 57.2812 41.125 61.8438
Q37.25 66.4062 30.6094 66.4062
Q23.9688 66.4062 20.0938 61.8438
Q16.2188 57.2812 16.2188 49.4219
Q16.2188 41.5 20.0938 36.9531
Q23.9688 32.4219 30.6094 32.4219" id="DejaVuSans-39"/>
     </defs>
     <g transform="translate(528.375625 358.439)scale(0.144 -0.144)">
      <use xlink:href="#DejaVuSans-6c"/>
      <use x="27.783203125" xlink:href="#DejaVuSans-6f"/>
      <use x="88.96484375" xlink:href="#DejaVuSans-63"/>
      <use x="143.9453125" xlink:href="#DejaVuSans-61"/>
      <use x="205.224609375" xlink:href="#DejaVuSans-6c"/>
      <use x="233.0078125" xlink:href="#DejaVuSans-69"/>
      <use x="260.791015625" xlink:href="#DejaVuSans-74"/>
      <use x="300.0" xlink:href="#DejaVuSans-79"/>
      <use x="359.1796875" xlink:href="#DejaVuSans-23"/>
      <use x="442.96875" xlink:href="#DejaVuSans-39"/>
     </g>
    </g>
   </g>
  </g>
 </g>
 <defs>
  <clipPath id="p2118423672">
   <rect height="345.6" width="446.4" x="28.695625" y="23.14175"/>
  </clipPath>
 </defs>
</svg>
