<?xml version="1.0" encoding="utf-8" standalone="no"?>
<!DOCTYPE svg PUBLIC "-//W3C//DTD SVG 1.1//EN"
  "http://www.w3.org/Graphics/SVG/1.1/DTD/svg11.dtd">
<!-- Created with matplotlib (http://matplotlib.org/) -->
<svg height="408pt" version="1.1" viewBox="0 0 655 408" width="655pt" xmlns="http://www.w3.org/2000/svg" xmlns:xlink="http://www.w3.org/1999/xlink">
 <defs>
  <style type="text/css">
*{stroke-linecap:butt;stroke-linejoin:round;}
  </style>
 </defs>
 <g id="figure_1">
  <g id="patch_1">
   <path d="
M0 408.169
L655.558 408.169
L655.558 0
L0 0
z
" style="fill:#ffffff;"/>
  </g>
  <g id="axes_1">
   <g id="patch_2">
    <path d="
M62.9688 368.742
L509.369 368.742
L509.369 23.1417
L62.9688 23.1417
z
" style="fill:#ffffff;"/>
   </g>
   <g id="line2d_1">
    <path clip-path="url(#p0e537c530d)" d="
M62.9688 368.742
L63.8633 368.435
L74.5984 366.727
L88.0172 364.545
L88.9118 364.129
L129.168 357.319
L159.584 352.548
L173.898 350.212
L178.371 349.48
L202.525 345.581
L207.892 344.707
L215.049 343.547
L219.522 342.801
L246.36 338.256
L252.622 337.22
L255.305 336.747
L258.884 336.189
L266.935 334.888
L268.724 334.574
L274.092 333.739
L292.878 330.686
L307.192 328.08
L312.559 327.05
L316.137 326.424
L322.4 325.304
L326.873 324.449
L329.556 323.937
L339.397 322.232
L341.186 321.827
L359.078 318.234
L360.867 317.805
L373.391 315.143
L376.075 314.602
L378.759 314.058
L380.548 313.668
L384.126 312.982
L385.915 312.466
L390.388 311.411
L393.072 310.71
L397.545 309.686
L399.334 309.293
L409.175 307.168
L425.277 303.538
L430.645 302.291
L432.434 301.849
L461.061 294.891
L469.112 292.834
L477.164 290.88
L481.636 289.659
L484.32 288.989
L495.95 285.657
L504.001 283.197
L506.685 282.362
L509.369 281.332
L509.369 281.332" style="fill:none;stroke:#0000ff;stroke-linecap:square;"/>
   </g>
   <g id="line2d_2">
    <path clip-path="url(#p0e537c530d)" d="
M62.9688 368.742
L63.8633 368.426
L69.2309 367.557
L82.6497 365.368
L92.4902 363.755
L96.9631 363.196
L102.331 362.262
L109.487 361.173
L122.012 359.246
L134.536 357.347
L150.638 354.854
L153.322 354.419
L159.584 353.528
L163.163 352.924
L170.319 351.843
L173.898 351.219
L180.16 350.284
L181.949 349.946
L185.527 349.412
L187.317 349.065
L197.157 347.638
L201.63 346.963
L280.354 335.061
L283.038 334.628
L298.246 332.252
L300.929 331.798
L304.508 331.213
L326.873 327.534
L328.662 327.196
L333.135 326.416
L336.713 325.875
L359.972 321.767
L364.445 321.093
L368.024 320.433
L374.286 319.186
L376.075 318.814
L388.599 316.472
L391.283 315.886
L394.861 315.161
L405.596 312.92
L409.175 312.227
L419.015 310.124
L422.594 309.373
L433.329 307.094
L435.118 306.469
L437.802 305.869
L440.485 305.352
L444.064 304.587
L448.537 303.664
L451.22 303.056
L453.01 302.648
L454.799 302.27
L458.377 301.505
L460.166 301.058
L466.428 299.828
L470.007 299.189
L476.269 297.942
L482.531 296.566
L484.32 296.196
L487.899 295.389
L493.266 294.202
L498.634 292.737
L502.212 291.772
L505.79 290.868
L509.369 289.896
L509.369 289.896" style="fill:none;stroke:#008000;stroke-linecap:square;"/>
   </g>
   <g id="line2d_3">
    <path clip-path="url(#p0e537c530d)" d="
M62.9688 368.742
L63.8633 368.107
L65.6525 367.133
L67.4417 365.976
L68.3363 365.331
L70.1255 364.302
L71.9146 363.122
L106.804 341.821
L109.487 340.15
L113.96 337.476
L115.75 336.292
L117.539 335.341
L119.328 334.211
L122.906 332.454
L123.801 331.961
L125.59 330.704
L138.114 323.471
L140.798 321.759
L145.271 319.069
L146.166 318.451
L149.744 316.459
L151.533 315.456
L153.322 314.516
L160.479 310.524
L161.374 309.833
L164.057 308.351
L176.582 300.648
L178.371 299.719
L179.265 299.096
L182.844 297.189
L187.317 294.552
L188.211 294.111
L189.106 293.481
L190.895 292.454
L193.579 290.898
L196.263 289.352
L198.052 288.286
L198.946 287.522
L208.787 281.989
L210.576 280.99
L212.365 279.873
L214.154 279.03
L215.049 278.572
L216.838 277.505
L222.206 274.652
L223.995 273.732
L228.468 271.114
L231.152 269.655
L232.941 268.567
L234.73 267.559
L235.624 266.9
L236.519 266.494
L239.203 264.879
L240.097 264.202
L244.57 261.926
L249.043 259.508
L250.832 258.62
L252.622 257.677
L254.411 256.59
L270.513 247.682
L272.303 246.503
L274.986 245.043
L277.67 243.527
L283.932 239.944
L285.721 238.927
L289.3 236.914
L292.878 234.811
L293.773 234.379
L294.667 233.619
L297.351 232.105
L299.14 231.07
L300.929 229.994
L304.508 227.816
L307.192 226.242
L308.086 225.675
L309.875 224.768
L313.454 222.596
L317.032 220.698
L318.821 219.728
L324.189 216.651
L325.083 215.977
L326.873 214.897
L328.662 213.85
L332.24 211.899
L334.029 210.877
L342.081 206.387
L348.343 203.085
L349.237 202.35
L351.026 201.297
L352.816 200.431
L355.499 198.809
L361.762 194.739
L366.234 192.164
L369.813 189.758
L370.707 189.292
L373.391 187.566
L376.97 185.594
L377.864 184.948
L381.442 182.949
L384.126 181.195
L385.021 180.321
L388.599 178.337
L393.967 175.044
L395.756 174.116
L397.545 172.842
L398.44 172.434
L399.334 171.78
L400.229 171.374
L401.123 170.798
L402.018 170.369
L403.807 169.181
L406.491 167.56
L408.28 166.664
L409.175 165.963
L415.437 162.139
L416.331 161.396
L419.015 159.761
L420.804 158.574
L425.277 156.155
L427.067 154.883
L427.961 154.442
L428.856 153.806
L429.75 153.378
L430.645 152.669
L438.696 147.762
L443.169 145.221
L445.853 143.678
L446.748 143.256
L447.642 142.588
L449.431 141.572
L455.693 137.492
L461.061 134.148
L461.956 133.386
L467.323 129.952
L468.218 129.247
L470.007 128.17
L471.796 126.877
L475.374 124.71
L476.269 124.18
L477.164 123.233
L478.058 122.472
L486.109 117.019
L487.899 116.011
L493.266 112.627
L494.161 111.818
L499.528 108.134
L500.423 107.564
L501.317 106.677
L503.107 105.357
L504.896 104.107
L506.685 102.813
L507.58 102.311
L509.369 100.918
L509.369 100.918" style="fill:none;stroke:#ff0000;stroke-linecap:square;"/>
   </g>
   <g id="line2d_4">
    <path clip-path="url(#p0e537c530d)" d="
M62.9688 368.742
L63.8633 368.102
L66.5471 366.711
L67.4417 366.143
L69.2309 365.282
L79.9659 359.511
L81.7551 358.473
L82.6497 358.08
L83.5443 357.528
L87.1227 355.791
L90.701 353.92
L93.3848 352.638
L104.12 347.217
L107.698 345.126
L109.487 344.189
L111.277 343.203
L114.855 341.577
L118.433 339.688
L128.274 334.747
L130.958 333.373
L134.536 331.327
L147.06 324.952
L148.849 323.916
L156.006 320.224
L158.69 319.037
L160.479 318.133
L162.268 317.187
L165.847 315.356
L167.636 314.416
L168.53 313.864
L170.319 313.01
L173.003 311.49
L174.792 310.523
L176.582 309.545
L179.265 308.366
L180.16 308.016
L183.738 305.949
L184.633 305.579
L187.317 304.162
L188.211 303.746
L189.106 303.153
L194.473 300.614
L208.787 293.442
L212.365 291.559
L214.154 290.762
L229.362 283.333
L231.152 282.554
L233.835 281.232
L243.676 276.689
L249.043 274.095
L251.727 272.866
L253.516 272.013
L256.2 270.618
L265.146 266.472
L267.83 265.076
L269.619 264.279
L270.513 263.943
L271.408 263.346
L274.986 261.687
L275.881 261.291
L277.67 260.298
L279.459 259.417
L280.354 258.924
L281.249 258.1
L283.038 257.31
L289.3 254.206
L291.984 252.813
L298.246 250.04
L315.243 241.571
L317.032 240.688
L320.61 238.863
L321.505 238.472
L323.294 237.501
L324.189 237.09
L325.978 236.021
L332.24 233.157
L334.029 232.186
L337.608 230.569
L343.87 227.51
L345.659 226.746
L350.132 224.39
L353.71 222.721
L354.605 222.146
L364.445 217.489
L365.34 217.157
L366.234 216.631
L368.918 215.466
L373.391 213.12
L377.864 211.096
L379.653 210.18
L381.442 209.424
L390.388 205.144
L391.283 204.445
L393.967 203.152
L410.964 195.498
L421.699 190.124
L425.277 188.531
L427.067 187.714
L428.856 186.865
L431.539 185.388
L432.434 185.053
L437.802 182.387
L439.591 181.658
L444.958 179.217
L446.748 178.489
L453.904 174.821
L455.693 173.966
L464.639 169.447
L465.534 168.882
L470.007 166.865
L470.901 166.27
L474.48 164.523
L476.269 163.677
L478.058 162.596
L479.847 161.731
L480.742 161.345
L481.636 160.731
L483.426 159.884
L493.266 155.053
L495.055 154.071
L500.423 151.29
L504.001 149.476
L504.896 148.81
L509.369 146.213
L509.369 146.213" style="fill:none;stroke:#00bfbf;stroke-linecap:square;"/>
   </g>
   <g id="line2d_5">
    <path clip-path="url(#p0e537c530d)" d="
M62.9688 368.742
L75.493 363.613
L82.6497 360.888
L84.4389 360.189
L109.487 350.407
L111.277 349.588
L123.801 344.922
L124.695 344.428
L129.168 342.864
L134.536 340.92
L136.325 340.274
L155.111 333.124
L160.479 331.327
L190.895 320.025
L193.579 318.966
L196.263 317.914
L199.841 316.481
L207.892 313.593
L209.681 312.922
L211.471 312.301
L214.154 311.376
L215.943 310.729
L217.733 310.009
L219.522 309.305
L223.1 307.839
L242.781 300.53
L243.676 300.242
L244.57 299.639
L246.36 298.953
L249.043 297.911
L251.727 296.984
L257.989 294.741
L264.251 292.47
L266.935 291.502
L269.619 290.58
L273.197 289.274
L286.616 284.152
L306.297 276.967
L314.348 273.926
L316.137 273.35
L317.032 272.919
L319.716 271.959
L333.135 266.769
L339.397 264.58
L340.291 264.113
L342.975 263.147
L351.026 260.134
L353.71 259.077
L356.394 258.025
L357.289 257.69
L359.078 256.873
L362.656 255.583
L364.445 254.962
L366.234 254.261
L403.807 239.391
L407.386 237.953
L409.175 237.262
L410.964 236.399
L411.859 236.052
L412.753 235.528
L414.542 234.816
L416.331 233.996
L418.121 233.26
L419.015 232.806
L419.91 232.528
L425.277 230.199
L427.961 229.115
L431.539 227.519
L436.012 225.789
L438.696 224.729
L441.38 223.661
L442.275 223.176
L444.064 222.385
L455.693 217.461
L459.272 215.767
L460.166 215.446
L467.323 211.861
L469.112 211.188
L471.796 209.778
L472.691 209.425
L475.374 208.109
L477.164 207.311
L479.847 205.872
L487.004 202.686
L490.582 201.002
L495.055 198.625
L495.95 198.079
L497.739 197.167
L499.528 196.187
L501.317 195.313
L502.212 194.718
L504.896 193.405
L505.79 192.782
L507.58 191.827
L509.369 190.762
L509.369 190.762" style="fill:none;stroke:#bf00bf;stroke-linecap:square;"/>
   </g>
   <g id="line2d_6">
    <path clip-path="url(#p0e537c530d)" d="
M62.9688 368.742
L63.8633 368.414
L64.7579 368.182
L66.5471 367.697
L68.3363 367.182
L71.0201 366.422
L77.2822 364.731
L79.0714 364.303
L82.6497 363.236
L83.5443 362.922
L86.2281 362.23
L88.0172 361.71
L89.8064 361.28
L91.5956 360.705
L101.436 358.005
L104.12 357.245
L105.909 356.756
L107.698 356.153
L109.487 355.658
L149.744 344.84
L153.322 343.797
L166.741 340.302
L169.425 339.518
L182.844 336.248
L183.738 335.899
L188.211 334.657
L190.895 333.901
L196.263 332.584
L200.735 331.397
L204.314 330.479
L206.998 329.702
L211.471 328.576
L219.522 326.56
L239.203 321.672
L242.781 320.686
L252.622 318.235
L255.305 317.363
L266.935 314.463
L268.724 313.917
L277.67 311.496
L280.354 310.88
L283.038 310.161
L292.878 307.853
L294.667 307.273
L297.351 306.673
L298.246 306.355
L300.929 305.724
L306.297 304.38
L307.192 303.836
L317.032 301.279
L319.716 300.687
L326.873 298.909
L332.24 297.469
L333.135 297.118
L335.818 296.493
L337.608 296.023
L339.397 295.537
L342.975 294.466
L352.816 291.88
L376.97 284.887
L379.653 283.99
L405.596 276.397
L409.175 275.428
L410.964 274.81
L416.331 273.031
L420.804 271.705
L438.696 265.965
L440.485 265.331
L443.169 264.464
L449.431 262.52
L450.326 262.094
L452.115 261.551
L461.956 257.964
L462.85 257.544
L465.534 256.679
L472.691 254.389
L473.585 253.962
L476.269 253.116
L479.847 251.76
L486.109 249.456
L487.899 248.632
L491.477 247.323
L495.95 245.553
L498.634 244.454
L504.001 242.302
L508.474 240.461
L509.369 240.041
L509.369 240.041" style="fill:none;stroke:#bfbf00;stroke-linecap:square;"/>
   </g>
   <g id="line2d_7">
    <path clip-path="url(#p0e537c530d)" d="
M62.9688 368.742
L63.8633 368.469
L64.7579 368.289
L79.0714 365.093
L83.5443 363.97
L85.3335 363.616
L91.5956 362.188
L97.8577 360.711
L141.693 350.369
L144.376 349.83
L156.006 346.962
L161.374 345.761
L176.582 342.309
L179.265 341.748
L181.949 341.059
L184.633 340.511
L201.63 336.576
L205.208 335.749
L211.471 334.363
L222.206 332.113
L225.784 331.31
L249.043 326.138
L252.622 325.406
L258.884 323.942
L287.511 317.856
L292.878 316.631
L294.667 316.289
L300.929 314.884
L307.192 313.539
L315.243 311.867
L324.189 309.691
L325.083 309.379
L328.662 308.623
L337.608 306.631
L352.816 303.313
L356.394 302.403
L359.972 301.561
L372.497 298.734
L375.18 298.112
L379.653 297.119
L383.232 296.29
L388.599 295.05
L396.651 293.112
L402.018 291.913
L406.491 290.8
L409.175 290.012
L411.859 289.237
L414.542 288.526
L417.226 287.705
L423.488 286.128
L429.75 284.578
L431.539 284.027
L435.118 283.058
L444.958 280.588
L448.537 279.729
L452.115 278.621
L455.693 277.65
L461.061 276.095
L464.639 275.157
L466.428 274.559
L470.901 273.161
L472.691 272.635
L478.058 271.051
L487.004 268.39
L487.899 268.164
L489.688 267.572
L501.317 263.783
L507.58 261.564
L509.369 260.788
L509.369 260.788" style="fill:none;stroke:#000000;stroke-linecap:square;"/>
   </g>
   <g id="line2d_8">
    <path clip-path="url(#p0e537c530d)" d="
M62.9688 368.742
L63.8633 368.464
L67.4417 367.777
L70.1255 367.183
L83.5443 364.69
L85.3335 364.368
L105.909 360.675
L107.698 360.3
L110.382 359.796
L141.693 354.174
L144.376 353.735
L149.744 352.798
L154.217 352.065
L159.584 351.139
L164.057 350.272
L174.792 348.464
L180.16 347.518
L186.422 346.439
L189.106 345.94
L193.579 345.224
L201.63 343.875
L251.727 335.13
L255.305 334.507
L259.778 333.748
L262.462 333.303
L266.04 332.715
L269.619 332.089
L281.249 329.964
L283.932 329.417
L288.405 328.687
L306.297 325.449
L310.77 324.551
L319.716 322.941
L323.294 322.264
L327.767 321.508
L331.346 320.829
L336.713 319.751
L339.397 319.278
L341.186 318.948
L352.816 316.904
L354.605 316.479
L355.499 316.309
L356.394 315.979
L359.078 315.505
L361.762 314.971
L365.34 314.373
L369.813 313.521
L375.18 312.528
L388.599 309.779
L390.388 309.436
L393.967 308.637
L397.545 307.851
L426.172 301.477
L431.539 300.257
L439.591 298.628
L450.326 296.238
L453.904 295.42
L457.483 294.634
L478.953 289.01
L484.32 287.57
L487.004 286.876
L495.055 284.767
L496.845 284.104
L504.896 281.661
L507.58 280.848
L509.369 280.307
L509.369 280.307" style="fill:none;stroke:#0000ff;stroke-linecap:square;"/>
   </g>
   <g id="line2d_9">
    <path clip-path="url(#p0e537c530d)" d="
M62.9688 368.742
L63.8633 368.47
L64.7579 368.255
L72.8092 366.651
L76.3876 365.824
L95.174 362.065
L101.436 360.867
L109.487 359.216
L113.066 358.493
L114.855 358.116
L116.644 357.717
L123.801 356.265
L129.168 355.088
L156.901 349.675
L165.847 347.885
L167.636 347.466
L171.214 346.822
L176.582 345.718
L178.371 345.39
L188.211 343.345
L201.63 340.67
L205.208 339.987
L206.998 339.619
L209.681 339.14
L220.416 337.056
L289.3 323.706
L300.929 321.401
L306.297 320.397
L309.875 319.544
L314.348 318.629
L340.291 313.265
L342.081 312.866
L351.026 311.037
L359.972 309.14
L368.024 307.452
L385.021 303.923
L402.018 300.066
L402.913 299.894
L404.702 299.404
L407.386 298.791
L420.804 295.383
L423.488 294.794
L425.277 294.31
L434.223 292.092
L439.591 290.781
L458.377 286.153
L461.956 285.265
L465.534 284.278
L478.058 281.211
L487.004 278.921
L491.477 277.86
L493.266 277.348
L495.055 276.872
L500.423 275.294
L501.317 275.063
L503.107 274.429
L506.685 273.436
L509.369 272.658
L509.369 272.658" style="fill:none;stroke:#008000;stroke-linecap:square;"/>
   </g>
   <g id="line2d_10">
    <path clip-path="url(#p0e537c530d)" d="
M62.9688 368.742
L65.6525 367.871
L79.0714 364.386
L79.9659 364.07
L83.5443 363.197
L86.2281 362.444
L92.4902 360.711
L98.7523 359.145
L113.96 355.192
L114.855 355.021
L117.539 354.232
L159.584 342.773
L164.057 341.54
L188.211 335.252
L190 334.669
L207.892 329.965
L251.727 318.433
L255.305 317.58
L260.673 316.207
L266.935 314.674
L268.724 314.115
L274.986 312.405
L277.67 311.672
L279.459 311.145
L283.038 310.132
L284.827 309.575
L296.457 306.465
L298.246 305.945
L302.719 304.851
L303.613 304.509
L306.297 303.85
L312.559 302.173
L319.716 300.243
L329.556 297.531
L334.029 296.458
L350.132 291.933
L351.921 291.384
L354.605 290.62
L356.394 290.117
L359.972 289.128
L362.656 288.41
L366.234 287.369
L373.391 285.392
L385.021 282.164
L386.81 281.718
L388.599 281.128
L398.44 278.305
L402.018 277.094
L404.702 276.388
L413.648 273.827
L416.331 272.913
L418.121 272.385
L420.804 271.573
L426.172 269.993
L428.856 269.118
L430.645 268.636
L433.329 267.839
L435.118 267.313
L448.537 263.327
L451.22 262.488
L455.693 261.286
L457.483 260.636
L470.007 256.636
L470.901 256.37
L471.796 255.944
L478.058 254.026
L479.847 253.318
L492.372 249.304
L495.95 248.05
L498.634 247.195
L501.317 246.16
L506.685 244.217
L509.369 243.151
L509.369 243.151" style="fill:none;stroke:#ff0000;stroke-linecap:square;"/>
   </g>
   <g id="line2d_11">
    <path clip-path="url(#p0e537c530d)" d="
M62.9688 368.742
L65.6525 367.545
L67.4417 366.886
L69.2309 366.26
L71.9146 365.262
L81.7551 361.529
L122.906 346.638
L124.695 345.834
L130.063 343.833
L130.958 343.29
L161.374 332.041
L164.952 330.722
L174.792 327.207
L176.582 326.647
L178.371 325.981
L181.055 325.123
L182.844 324.495
L190 321.787
L192.684 320.855
L195.368 319.916
L206.998 315.73
L209.681 314.816
L213.26 313.413
L215.049 312.781
L219.522 311.193
L227.573 308.312
L232.046 306.546
L235.624 305.231
L250.832 299.637
L253.516 298.813
L256.2 297.888
L258.884 297.014
L264.251 294.991
L269.619 293.094
L270.513 292.805
L271.408 292.371
L275.881 290.896
L278.565 289.935
L280.354 289.36
L283.038 288.364
L304.508 280.709
L307.192 279.69
L318.821 275.36
L320.61 274.585
L325.083 272.896
L325.978 272.62
L327.767 271.906
L339.397 267.785
L341.186 266.956
L345.659 265.433
L351.921 263.048
L354.605 262.134
L356.394 261.451
L366.234 257.601
L367.129 257.107
L378.759 252.574
L379.653 252.101
L382.337 251.186
L408.28 240.81
L410.069 239.953
L411.859 239.21
L418.121 236.609
L426.172 233.313
L432.434 230.557
L436.012 229.093
L440.485 227.191
L442.275 226.545
L445.853 224.807
L449.431 223.334
L469.112 214.838
L472.691 213.378
L475.374 212.142
L476.269 211.842
L481.636 209.351
L485.215 207.823
L487.899 206.462
L494.161 203.718
L496.845 202.502
L499.528 201.246
L509.369 196.794
L509.369 196.794" style="fill:none;stroke:#00bfbf;stroke-linecap:square;"/>
   </g>
   <g id="line2d_12">
    <path clip-path="url(#p0e537c530d)" d="
M62.9688 368.742
L71.0201 364.839
L74.5984 363.141
L90.701 355.92
L96.0685 353.768
L105.909 349.33
L108.593 347.932
L110.382 347.079
L112.171 346.199
L114.855 344.966
L116.644 344.034
L120.222 342.294
L139.903 333.325
L142.587 332.027
L149.744 328.627
L154.217 326.587
L160.479 323.884
L163.163 322.605
L166.741 320.876
L168.53 320.067
L172.109 318.36
L174.792 317.103
L182.844 313.428
L185.527 312.29
L191.79 309.46
L196.263 307.57
L199.841 305.96
L207.892 302.434
L209.681 301.5
L214.154 299.603
L216.838 298.316
L218.627 297.566
L221.311 296.317
L223.995 295.277
L233.835 290.828
L235.624 290.017
L237.414 289.145
L240.097 287.902
L241.887 287.182
L248.149 284.603
L250.832 283.412
L253.516 282.361
L254.411 281.914
L255.305 281.644
L262.462 278.652
L267.83 276.506
L269.619 275.685
L271.408 274.893
L273.197 273.939
L274.092 273.607
L274.986 273.149
L276.776 272.408
L293.773 264.927
L300.035 262.332
L303.613 260.718
L306.297 259.55
L310.77 257.544
L317.032 255.042
L320.61 253.377
L322.4 252.451
L331.346 248.449
L338.502 245.252
L342.081 243.456
L343.87 242.698
L347.448 240.881
L351.026 239.364
L351.921 238.896
L352.816 238.591
L355.499 237.355
L365.34 233.155
L367.129 232.322
L384.126 225.163
L388.599 223.184
L390.388 222.422
L398.44 218.827
L399.334 218.329
L402.018 217.175
L408.28 214.215
L410.069 213.41
L412.753 211.998
L415.437 210.729
L418.121 209.199
L424.383 206.332
L432.434 202.364
L433.329 201.84
L435.118 201.128
L436.907 200.015
L439.591 198.656
L441.38 197.959
L460.166 189.068
L462.85 187.488
L464.639 186.685
L473.585 182.242
L476.269 181.023
L482.531 177.655
L487.004 175.473
L488.793 174.39
L490.582 173.678
L499.528 169.164
L502.212 167.618
L509.369 163.751
L509.369 163.751" style="fill:none;stroke:#bf00bf;stroke-linecap:square;"/>
   </g>
   <g id="line2d_13">
    <path clip-path="url(#p0e537c530d)" d="
M62.9688 368.742
L63.8633 368.027
L66.5471 366.552
L71.0201 364.035
L73.7038 362.302
L75.493 361.217
L80.8605 358.031
L84.4389 356.159
L90.701 352.728
L94.2794 350.912
L97.8577 348.907
L102.331 346.542
L112.171 341.107
L113.96 340.258
L118.433 337.789
L131.852 330.507
L133.641 329.482
L138.114 327.192
L139.009 326.495
L142.587 324.681
L146.166 322.584
L148.849 321.061
L150.638 320.096
L155.111 317.586
L161.374 314.016
L165.847 311.387
L166.741 310.814
L170.319 308.955
L173.898 306.991
L174.792 306.397
L176.582 305.48
L189.106 298.649
L190.895 297.575
L197.157 294.461
L198.946 293.625
L201.63 292.16
L203.419 291.295
L206.103 289.806
L208.787 288.412
L210.576 287.415
L214.154 285.402
L215.943 284.475
L217.733 283.436
L220.416 282.086
L223.995 280.16
L225.784 279.135
L230.257 276.856
L231.152 276.242
L232.941 275.424
L234.73 274.502
L236.519 273.647
L238.308 272.642
L246.36 268.578
L248.149 267.636
L249.043 267.273
L258.884 261.962
L265.146 258.98
L273.197 254.679
L275.881 253.317
L276.776 252.613
L283.038 249.323
L289.3 246.01
L290.194 245.357
L307.192 236.391
L313.454 233.013
L316.137 231.703
L322.4 228.329
L325.083 226.889
L332.24 223.394
L333.135 222.76
L337.608 220.475
L343.87 217.154
L348.343 214.79
L350.132 213.738
L351.921 212.866
L352.816 212.506
L355.499 210.944
L362.656 207.484
L366.234 205.537
L372.497 202.273
L375.18 200.885
L380.548 198.072
L386.81 194.875
L389.494 193.452
L390.388 193.073
L391.283 192.483
L392.178 192.068
L393.967 191.038
L402.913 186.68
L409.175 183.234
L410.964 182.226
L413.648 180.89
L415.437 179.869
L419.015 178.012
L420.804 176.858
L427.067 173.561
L427.961 173.175
L428.856 172.609
L429.75 172.193
L431.539 171.128
L435.118 169.365
L437.802 167.8
L439.591 166.789
L445.853 163.382
L446.748 163.003
L447.642 162.351
L456.588 157.516
L457.483 156.899
L460.166 155.42
L463.745 153.368
L467.323 151.298
L470.007 149.819
L471.796 148.775
L476.269 146.249
L478.058 145.118
L482.531 142.446
L484.32 141.428
L492.372 136.669
L494.161 135.562
L495.95 134.413
L502.212 130.679
L503.107 129.993
L504.896 128.971
L506.685 127.847
L509.369 126.31
L509.369 126.31" style="fill:none;stroke:#bfbf00;stroke-linecap:square;"/>
   </g>
   <g id="line2d_14">
    <path clip-path="url(#p0e537c530d)" d="
M62.9688 368.742
L65.6525 366.901
L68.3363 365.237
L71.0201 363.493
L72.8092 362.406
L74.5984 361.258
L79.0714 358.372
L92.4902 350.035
L93.3848 349.569
L96.0685 347.755
L99.6469 345.419
L102.331 343.768
L105.014 341.802
L106.804 340.76
L108.593 339.464
L113.066 336.797
L116.644 334.7
L119.328 332.977
L125.59 329.162
L129.168 326.762
L136.325 321.955
L138.114 320.881
L139.903 319.66
L141.693 318.496
L150.638 312.69
L152.428 311.693
L154.217 310.651
L156.006 309.456
L157.795 308.342
L169.425 301.45
L172.109 299.711
L175.687 297.518
L181.949 293.74
L184.633 292.201
L188.211 289.925
L189.106 289.202
L190.895 288.109
L193.579 286.717
L199.841 282.703
L205.208 279.524
L206.103 278.792
L209.681 276.797
L210.576 276.321
L212.365 275.09
L215.049 273.66
L219.522 270.966
L259.778 247.058
L261.568 245.808
L263.357 244.762
L271.408 240.195
L275.881 237.721
L276.776 236.982
L290.194 229.303
L293.773 227.26
L295.562 226.242
L297.351 225.296
L300.929 223.022
L302.719 221.986
L304.508 220.924
L309.875 217.856
L312.559 216.258
L316.137 214.399
L317.927 213.35
L322.4 210.849
L325.083 209.124
L326.873 208.077
L332.24 205.047
L334.924 203.491
L371.602 181.854
L373.391 180.938
L385.021 173.793
L386.81 172.836
L389.494 171.315
L392.178 169.885
L393.967 168.723
L395.756 167.8
L396.651 167.108
L398.44 166.157
L400.229 164.96
L404.702 162.529
L406.491 161.393
L409.175 160.015
L410.069 159.363
L411.859 158.267
L413.648 157.276
L414.542 156.775
L416.331 155.478
L417.226 155.019
L419.015 153.845
L432.434 146.11
L436.012 144.134
L436.907 143.401
L439.591 141.89
L448.537 136.737
L449.431 136.201
L450.326 135.456
L453.01 133.781
L454.799 132.702
L456.588 131.618
L459.272 129.838
L460.166 129.338
L462.85 127.347
L464.639 126.354
L467.323 124.739
L469.112 123.563
L472.691 121.392
L475.374 119.829
L477.164 118.825
L488.793 111.456
L490.582 110.448
L499.528 104.741
L501.317 103.556
L504.001 101.975
L505.79 100.79
L508.474 99.2198
L509.369 98.5056
L509.369 98.5056" style="fill:none;stroke:#000000;stroke-linecap:square;"/>
   </g>
   <g id="line2d_15">
    <path clip-path="url(#p0e537c530d)" d="
M62.9688 368.742
L68.3363 364.746
L71.0201 362.827
L74.5984 360.278
L77.2822 358.433
L79.0714 357.297
L79.9659 356.384
L81.7551 355.098
L83.5443 353.954
L92.4902 347.636
L97.8577 344.044
L101.436 341.313
L104.12 339.521
L105.909 338.351
L109.487 335.393
L118.433 329.054
L120.222 327.711
L126.485 323.601
L128.274 322.377
L135.43 317.327
L136.325 316.735
L139.903 313.912
L149.744 306.936
L150.638 306.226
L152.428 305.124
L154.217 303.693
L156.901 302.007
L158.69 300.701
L164.057 296.922
L166.741 295.015
L174.792 289.052
L180.16 285.432
L184.633 282.151
L188.211 279.698
L190 278.118
L191.79 276.68
L192.684 276.02
L195.368 274.333
L197.157 273.126
L201.63 270.203
L202.525 269.453
L204.314 268.292
L205.208 267.492
L214.154 261.25
L218.627 258.244
L220.416 256.978
L222.206 255.763
L223.995 254.642
L229.362 251.086
L230.257 250.573
L232.046 249.298
L233.835 248.104
L236.519 246.523
L237.414 245.78
L239.203 244.576
L241.887 242.576
L249.043 237.879
L249.938 237.141
L251.727 236.027
L255.305 233.472
L259.778 230.612
L262.462 228.862
L272.303 222.588
L273.197 221.829
L279.459 217.712
L280.354 217.193
L282.143 216.025
L286.616 213.128
L289.3 211.374
L290.194 210.553
L291.984 209.394
L293.773 208.274
L295.562 207.026
L300.035 204.071
L301.824 202.716
L302.719 202.189
L304.508 200.943
L309.875 197.321
L310.77 196.571
L313.454 194.898
L324.189 188.026
L327.767 185.494
L334.924 180.944
L335.818 180.182
L340.291 177.513
L341.186 176.782
L342.081 176.225
L344.764 174.251
L345.659 173.823
L351.026 170.2
L354.605 168.023
L359.972 163.975
L361.762 163.013
L365.34 160.753
L372.497 155.956
L373.391 155.174
L374.286 154.648
L376.075 153.321
L378.759 151.66
L380.548 150.416
L385.021 147.531
L385.915 146.844
L390.388 144.184
L391.283 143.508
L392.178 143.076
L393.967 141.754
L395.756 140.486
L399.334 138.057
L401.123 136.948
L402.913 135.828
L403.807 135.161
L406.491 133.578
L414.542 128.074
L416.331 126.597
L418.121 125.461
L419.015 124.724
L430.645 117.466
L431.539 116.653
L433.329 115.563
L435.118 114.492
L437.802 112.585
L441.38 110.469
L443.169 109.225
L445.853 107.493
L447.642 106.174
L453.01 102.094
L454.799 100.992
L455.693 100.158
L458.377 98.3167
L459.272 97.4976
L460.166 96.9884
L465.534 93.1557
L466.428 92.6765
L467.323 91.8505
L468.218 91.3194
L471.796 88.5719
L477.164 85.0318
L478.058 84.2669
L483.426 80.7164
L485.215 79.3121
L487.004 77.7396
L487.899 77.197
L490.582 75.2168
L492.372 73.9945
L498.634 69.2724
L499.528 68.731
L501.317 67.435
L504.896 65.0123
L506.685 63.6806
L509.369 61.6197
L509.369 61.6197" style="fill:none;stroke:#0000ff;stroke-linecap:square;"/>
   </g>
   <g id="line2d_16">
    <path clip-path="url(#p0e537c530d)" d="
M62.9688 368.742
L65.6525 366.859
L66.5471 366.287
L67.4417 365.543
L70.1255 363.865
L71.9146 362.412
L75.493 360.022
L77.2822 358.641
L85.3335 353.135
L88.0172 351.095
L92.4902 347.875
L96.0685 345.504
L97.8577 344.266
L103.225 340.477
L109.487 336.209
L111.277 335.031
L114.855 332.765
L121.117 328.459
L122.012 328.011
L128.274 323.746
L130.063 322.422
L131.852 321.275
L133.641 320.023
L138.114 317.084
L139.903 315.506
L141.693 314.36
L143.482 313.244
L146.166 311.331
L147.06 310.836
L148.849 309.384
L150.638 307.855
L154.217 305.392
L158.69 302.532
L160.479 301.167
L163.163 299.253
L164.952 298.117
L166.741 296.794
L169.425 294.875
L172.109 292.924
L174.792 290.863
L175.687 290.309
L176.582 289.556
L182.844 285.699
L183.738 284.881
L186.422 283.147
L190 280.439
L199.841 273.89
L200.735 273.416
L206.103 269.816
L207.892 268.781
L208.787 268.109
L210.576 267.071
L211.471 266.138
L214.154 264.43
L215.943 263.337
L216.838 262.635
L218.627 261.509
L224.889 257.225
L226.679 256.014
L227.573 255.371
L228.468 254.872
L229.362 254.027
L235.624 250.044
L236.519 249.598
L238.308 248.372
L248.149 242.09
L249.043 241.378
L252.622 239.167
L255.305 237.225
L258.884 234.891
L260.673 233.674
L268.724 228.935
L269.619 228.293
L270.513 227.806
L271.408 227.122
L274.092 225.585
L274.986 224.93
L275.881 224.417
L276.776 223.707
L283.038 219.744
L285.721 217.945
L290.194 215.063
L291.089 214.287
L292.878 213.21
L301.824 207.544
L303.613 206.43
L306.297 204.856
L307.192 204.032
L310.77 201.455
L312.559 200.241
L314.348 199.076
L317.032 197.373
L318.821 196.009
L324.189 192.543
L326.873 190.507
L328.662 189.218
L330.451 188.195
L333.135 186.437
L339.397 182.474
L342.081 180.605
L342.975 179.893
L346.554 177.916
L347.448 177.04
L348.343 176.615
L354.605 172.177
L356.394 170.972
L357.289 170.489
L359.972 168.732
L360.867 168.243
L361.762 167.568
L363.551 166.689
L364.445 166.184
L366.234 164.795
L368.024 163.659
L369.813 162.607
L370.707 161.749
L372.497 160.582
L378.759 156.377
L379.653 155.554
L382.337 153.7
L384.126 152.578
L386.81 150.753
L388.599 149.388
L392.178 147.219
L399.334 141.986
L410.069 135.042
L410.964 134.246
L412.753 132.97
L416.331 130.251
L417.226 129.777
L424.383 124.716
L430.645 120.48
L433.329 118.399
L435.118 117.345
L437.802 115.251
L439.591 114.063
L440.485 113.333
L441.38 112.794
L443.169 111.501
L446.748 109.233
L447.642 108.385
L448.537 107.849
L450.326 106.538
L454.799 103.781
L459.272 100.616
L460.166 100.079
L461.956 98.4584
L464.639 96.6082
L465.534 95.9136
L469.112 93.6177
L470.007 93.0198
L470.901 92.0936
L477.164 88.1088
L478.953 86.8013
L480.742 85.5825
L485.215 82.1944
L486.109 81.1761
L488.793 79.3605
L494.161 75.6994
L500.423 70.9785
L501.317 70.156
L502.212 69.489
L503.107 68.6584
L505.79 66.5768
L506.685 65.8061
L509.369 63.9168
L509.369 63.9168" style="fill:none;stroke:#008000;stroke-linecap:square;"/>
   </g>
   <g id="patch_3">
    <path d="
M62.9688 23.1417
L509.369 23.1417" style="fill:none;stroke:#000000;stroke-linecap:square;stroke-linejoin:miter;"/>
   </g>
   <g id="patch_4">
    <path d="
M509.369 368.742
L509.369 23.1417" style="fill:none;stroke:#000000;stroke-linecap:square;stroke-linejoin:miter;"/>
   </g>
   <g id="patch_5">
    <path d="
M62.9688 368.742
L509.369 368.742" style="fill:none;stroke:#000000;stroke-linecap:square;stroke-linejoin:miter;"/>
   </g>
   <g id="patch_6">
    <path d="
M62.9688 368.742
L62.9688 23.1417" style="fill:none;stroke:#000000;stroke-linecap:square;stroke-linejoin:miter;"/>
   </g>
   <g id="matplotlib.axis_1">
    <g id="xtick_1">
     <g id="line2d_17">
      <defs>
       <path d="
M0 0
L0 -4" id="m93b0483c22" style="stroke:#000000;stroke-width:0.5;"/>
      </defs>
      <g>
       <use style="stroke:#000000;stroke-width:0.5;" x="62.96875" xlink:href="#m93b0483c22" y="368.74175"/>
      </g>
     </g>
     <g id="line2d_18">
      <defs>
       <path d="
M0 0
L0 4" id="m741efc42ff" style="stroke:#000000;stroke-width:0.5;"/>
      </defs>
      <g>
       <use style="stroke:#000000;stroke-width:0.5;" x="62.96875" xlink:href="#m741efc42ff" y="23.14175"/>
      </g>
     </g>
     <g id="text_1">
      <!-- 0 -->
      <defs>
       <path d="
M31.7812 66.4062
Q24.1719 66.4062 20.3281 58.9062
Q16.5 51.4219 16.5 36.375
Q16.5 21.3906 20.3281 13.8906
Q24.1719 6.39062 31.7812 6.39062
Q39.4531 6.39062 43.2812 13.8906
Q47.125 21.3906 47.125 36.375
Q47.125 51.4219 43.2812 58.9062
Q39.4531 66.4062 31.7812 66.4062
M31.7812 74.2188
Q44.0469 74.2188 50.5156 64.5156
Q56.9844 54.8281 56.9844 36.375
Q56.9844 17.9688 50.5156 8.26562
Q44.0469 -1.42188 31.7812 -1.42188
Q19.5312 -1.42188 13.0625 8.26562
Q6.59375 17.9688 6.59375 36.375
Q6.59375 54.8281 13.0625 64.5156
Q19.5312 74.2188 31.7812 74.2188" id="DejaVuSans-30"/>
      </defs>
      <g transform="translate(59.9453125 381.859875)scale(0.12 -0.12)">
       <use xlink:href="#DejaVuSans-30"/>
      </g>
     </g>
    </g>
    <g id="xtick_2">
     <g id="line2d_19">
      <g>
       <use style="stroke:#000000;stroke-width:0.5;" x="152.427667836" xlink:href="#m93b0483c22" y="368.74175"/>
      </g>
     </g>
     <g id="line2d_20">
      <g>
       <use style="stroke:#000000;stroke-width:0.5;" x="152.427667836" xlink:href="#m741efc42ff" y="23.14175"/>
      </g>
     </g>
     <g id="text_2">
      <!-- 100 -->
      <defs>
       <path d="
M12.4062 8.29688
L28.5156 8.29688
L28.5156 63.9219
L10.9844 60.4062
L10.9844 69.3906
L28.4219 72.9062
L38.2812 72.9062
L38.2812 8.29688
L54.3906 8.29688
L54.3906 0
L12.4062 0
z
" id="DejaVuSans-31"/>
      </defs>
      <g transform="translate(142.032667836 381.859875)scale(0.12 -0.12)">
       <use xlink:href="#DejaVuSans-31"/>
       <use x="63.623046875" xlink:href="#DejaVuSans-30"/>
       <use x="127.24609375" xlink:href="#DejaVuSans-30"/>
      </g>
     </g>
    </g>
    <g id="xtick_3">
     <g id="line2d_21">
      <g>
       <use style="stroke:#000000;stroke-width:0.5;" x="241.886585671" xlink:href="#m93b0483c22" y="368.74175"/>
      </g>
     </g>
     <g id="line2d_22">
      <g>
       <use style="stroke:#000000;stroke-width:0.5;" x="241.886585671" xlink:href="#m741efc42ff" y="23.14175"/>
      </g>
     </g>
     <g id="text_3">
      <!-- 200 -->
      <defs>
       <path d="
M19.1875 8.29688
L53.6094 8.29688
L53.6094 0
L7.32812 0
L7.32812 8.29688
Q12.9375 14.1094 22.625 23.8906
Q32.3281 33.6875 34.8125 36.5312
Q39.5469 41.8438 41.4219 45.5312
Q43.3125 49.2188 43.3125 52.7812
Q43.3125 58.5938 39.2344 62.25
Q35.1562 65.9219 28.6094 65.9219
Q23.9688 65.9219 18.8125 64.3125
Q13.6719 62.7031 7.8125 59.4219
L7.8125 69.3906
Q13.7656 71.7812 18.9375 73
Q24.125 74.2188 28.4219 74.2188
Q39.75 74.2188 46.4844 68.5469
Q53.2188 62.8906 53.2188 53.4219
Q53.2188 48.9219 51.5312 44.8906
Q49.8594 40.875 45.4062 35.4062
Q44.1875 33.9844 37.6406 27.2188
Q31.1094 20.4531 19.1875 8.29688" id="DejaVuSans-32"/>
      </defs>
      <g transform="translate(231.272210671 381.859875)scale(0.12 -0.12)">
       <use xlink:href="#DejaVuSans-32"/>
       <use x="63.623046875" xlink:href="#DejaVuSans-30"/>
       <use x="127.24609375" xlink:href="#DejaVuSans-30"/>
      </g>
     </g>
    </g>
    <g id="xtick_4">
     <g id="line2d_23">
      <g>
       <use style="stroke:#000000;stroke-width:0.5;" x="331.345503507" xlink:href="#m93b0483c22" y="368.74175"/>
      </g>
     </g>
     <g id="line2d_24">
      <g>
       <use style="stroke:#000000;stroke-width:0.5;" x="331.345503507" xlink:href="#m741efc42ff" y="23.14175"/>
      </g>
     </g>
     <g id="text_4">
      <!-- 300 -->
      <defs>
       <path d="
M40.5781 39.3125
Q47.6562 37.7969 51.625 33
Q55.6094 28.2188 55.6094 21.1875
Q55.6094 10.4062 48.1875 4.48438
Q40.7656 -1.42188 27.0938 -1.42188
Q22.5156 -1.42188 17.6562 -0.515625
Q12.7969 0.390625 7.625 2.20312
L7.625 11.7188
Q11.7188 9.32812 16.5938 8.10938
Q21.4844 6.89062 26.8125 6.89062
Q36.0781 6.89062 40.9375 10.5469
Q45.7969 14.2031 45.7969 21.1875
Q45.7969 27.6406 41.2812 31.2656
Q36.7656 34.9062 28.7188 34.9062
L20.2188 34.9062
L20.2188 43.0156
L29.1094 43.0156
Q36.375 43.0156 40.2344 45.9219
Q44.0938 48.8281 44.0938 54.2969
Q44.0938 59.9062 40.1094 62.9062
Q36.1406 65.9219 28.7188 65.9219
Q24.6562 65.9219 20.0156 65.0312
Q15.375 64.1562 9.8125 62.3125
L9.8125 71.0938
Q15.4375 72.6562 20.3438 73.4375
Q25.25 74.2188 29.5938 74.2188
Q40.8281 74.2188 47.3594 69.1094
Q53.9062 64.0156 53.9062 55.3281
Q53.9062 49.2656 50.4375 45.0938
Q46.9688 40.9219 40.5781 39.3125" id="DejaVuSans-33"/>
      </defs>
      <g transform="translate(320.748941007 381.859875)scale(0.12 -0.12)">
       <use xlink:href="#DejaVuSans-33"/>
       <use x="63.623046875" xlink:href="#DejaVuSans-30"/>
       <use x="127.24609375" xlink:href="#DejaVuSans-30"/>
      </g>
     </g>
    </g>
    <g id="xtick_5">
     <g id="line2d_25">
      <g>
       <use style="stroke:#000000;stroke-width:0.5;" x="420.804421343" xlink:href="#m93b0483c22" y="368.74175"/>
      </g>
     </g>
     <g id="line2d_26">
      <g>
       <use style="stroke:#000000;stroke-width:0.5;" x="420.804421343" xlink:href="#m741efc42ff" y="23.14175"/>
      </g>
     </g>
     <g id="text_5">
      <!-- 400 -->
      <defs>
       <path d="
M37.7969 64.3125
L12.8906 25.3906
L37.7969 25.3906
z

M35.2031 72.9062
L47.6094 72.9062
L47.6094 25.3906
L58.0156 25.3906
L58.0156 17.1875
L47.6094 17.1875
L47.6094 0
L37.7969 0
L37.7969 17.1875
L4.89062 17.1875
L4.89062 26.7031
z
" id="DejaVuSans-34"/>
      </defs>
      <g transform="translate(410.043796343 381.859875)scale(0.12 -0.12)">
       <use xlink:href="#DejaVuSans-34"/>
       <use x="63.623046875" xlink:href="#DejaVuSans-30"/>
       <use x="127.24609375" xlink:href="#DejaVuSans-30"/>
      </g>
     </g>
    </g>
    <g id="text_6">
     <!-- time -->
     <defs>
      <path d="
M18.3125 70.2188
L18.3125 54.6875
L36.8125 54.6875
L36.8125 47.7031
L18.3125 47.7031
L18.3125 18.0156
Q18.3125 11.3281 20.1406 9.42188
Q21.9688 7.51562 27.5938 7.51562
L36.8125 7.51562
L36.8125 0
L27.5938 0
Q17.1875 0 13.2344 3.875
Q9.28125 7.76562 9.28125 18.0156
L9.28125 47.7031
L2.6875 47.7031
L2.6875 54.6875
L9.28125 54.6875
L9.28125 70.2188
z
" id="DejaVuSans-74"/>
      <path d="
M52 44.1875
Q55.375 50.25 60.0625 53.125
Q64.75 56 71.0938 56
Q79.6406 56 84.2812 50.0156
Q88.9219 44.0469 88.9219 33.0156
L88.9219 0
L79.8906 0
L79.8906 32.7188
Q79.8906 40.5781 77.0938 44.375
Q74.3125 48.1875 68.6094 48.1875
Q61.625 48.1875 57.5625 43.5469
Q53.5156 38.9219 53.5156 30.9062
L53.5156 0
L44.4844 0
L44.4844 32.7188
Q44.4844 40.625 41.7031 44.4062
Q38.9219 48.1875 33.1094 48.1875
Q26.2188 48.1875 22.1562 43.5312
Q18.1094 38.875 18.1094 30.9062
L18.1094 0
L9.07812 0
L9.07812 54.6875
L18.1094 54.6875
L18.1094 46.1875
Q21.1875 51.2188 25.4844 53.6094
Q29.7812 56 35.6875 56
Q41.6562 56 45.8281 52.9688
Q50 49.9531 52 44.1875" id="DejaVuSans-6d"/>
      <path d="
M56.2031 29.5938
L56.2031 25.2031
L14.8906 25.2031
Q15.4844 15.9219 20.4844 11.0625
Q25.4844 6.20312 34.4219 6.20312
Q39.5938 6.20312 44.4531 7.46875
Q49.3125 8.73438 54.1094 11.2812
L54.1094 2.78125
Q49.2656 0.734375 44.1875 -0.34375
Q39.1094 -1.42188 33.8906 -1.42188
Q20.7969 -1.42188 13.1562 6.1875
Q5.51562 13.8125 5.51562 26.8125
Q5.51562 40.2344 12.7656 48.1094
Q20.0156 56 32.3281 56
Q43.3594 56 49.7812 48.8906
Q56.2031 41.7969 56.2031 29.5938
M47.2188 32.2344
Q47.125 39.5938 43.0938 43.9844
Q39.0625 48.3906 32.4219 48.3906
Q24.9062 48.3906 20.3906 44.1406
Q15.875 39.8906 15.1875 32.1719
z
" id="DejaVuSans-65"/>
      <path d="
M9.42188 54.6875
L18.4062 54.6875
L18.4062 0
L9.42188 0
z

M9.42188 75.9844
L18.4062 75.9844
L18.4062 64.5938
L9.42188 64.5938
z
" id="DejaVuSans-69"/>
     </defs>
     <g transform="translate(273.094375 398.473625)scale(0.12 -0.12)">
      <use xlink:href="#DejaVuSans-74"/>
      <use x="39.208984375" xlink:href="#DejaVuSans-69"/>
      <use x="66.9921875" xlink:href="#DejaVuSans-6d"/>
      <use x="164.404296875" xlink:href="#DejaVuSans-65"/>
     </g>
    </g>
   </g>
   <g id="matplotlib.axis_2">
    <g id="ytick_1">
     <g id="line2d_27">
      <defs>
       <path d="
M0 0
L4 0" id="m728421d6d4" style="stroke:#000000;stroke-width:0.5;"/>
      </defs>
      <g>
       <use style="stroke:#000000;stroke-width:0.5;" x="62.96875" xlink:href="#m728421d6d4" y="368.74175"/>
      </g>
     </g>
     <g id="line2d_28">
      <defs>
       <path d="
M0 0
L-4 0" id="mcb0005524f" style="stroke:#000000;stroke-width:0.5;"/>
      </defs>
      <g>
       <use style="stroke:#000000;stroke-width:0.5;" x="509.36875" xlink:href="#mcb0005524f" y="368.74175"/>
      </g>
     </g>
     <g id="text_7">
      <!-- 0 -->
      <g transform="translate(52.921875 372.053)scale(0.12 -0.12)">
       <use xlink:href="#DejaVuSans-30"/>
      </g>
     </g>
    </g>
    <g id="ytick_2">
     <g id="line2d_29">
      <g>
       <use style="stroke:#000000;stroke-width:0.5;" x="62.96875" xlink:href="#m728421d6d4" y="311.14175"/>
      </g>
     </g>
     <g id="line2d_30">
      <g>
       <use style="stroke:#000000;stroke-width:0.5;" x="509.36875" xlink:href="#mcb0005524f" y="311.14175"/>
      </g>
     </g>
     <g id="text_8">
      <!-- 500000 -->
      <defs>
       <path d="
M10.7969 72.9062
L49.5156 72.9062
L49.5156 64.5938
L19.8281 64.5938
L19.8281 46.7344
Q21.9688 47.4688 24.1094 47.8281
Q26.2656 48.1875 28.4219 48.1875
Q40.625 48.1875 47.75 41.5
Q54.8906 34.8125 54.8906 23.3906
Q54.8906 11.625 47.5625 5.09375
Q40.2344 -1.42188 26.9062 -1.42188
Q22.3125 -1.42188 17.5469 -0.640625
Q12.7969 0.140625 7.71875 1.70312
L7.71875 11.625
Q12.1094 9.23438 16.7969 8.0625
Q21.4844 6.89062 26.7031 6.89062
Q35.1562 6.89062 40.0781 11.3281
Q45.0156 15.7656 45.0156 23.3906
Q45.0156 31 40.0781 35.4375
Q35.1562 39.8906 26.7031 39.8906
Q22.75 39.8906 18.8125 39.0156
Q14.8906 38.1406 10.7969 36.2812
z
" id="DejaVuSans-35"/>
      </defs>
      <g transform="translate(14.881875 314.453)scale(0.12 -0.12)">
       <use xlink:href="#DejaVuSans-35"/>
       <use x="63.623046875" xlink:href="#DejaVuSans-30"/>
       <use x="127.24609375" xlink:href="#DejaVuSans-30"/>
       <use x="190.869140625" xlink:href="#DejaVuSans-30"/>
       <use x="254.4921875" xlink:href="#DejaVuSans-30"/>
       <use x="318.115234375" xlink:href="#DejaVuSans-30"/>
      </g>
     </g>
    </g>
    <g id="ytick_3">
     <g id="line2d_31">
      <g>
       <use style="stroke:#000000;stroke-width:0.5;" x="62.96875" xlink:href="#m728421d6d4" y="253.54175"/>
      </g>
     </g>
     <g id="line2d_32">
      <g>
       <use style="stroke:#000000;stroke-width:0.5;" x="509.36875" xlink:href="#mcb0005524f" y="253.54175"/>
      </g>
     </g>
     <g id="text_9">
      <!-- 1000000 -->
      <g transform="translate(7.63875 256.853)scale(0.12 -0.12)">
       <use xlink:href="#DejaVuSans-31"/>
       <use x="63.623046875" xlink:href="#DejaVuSans-30"/>
       <use x="127.24609375" xlink:href="#DejaVuSans-30"/>
       <use x="190.869140625" xlink:href="#DejaVuSans-30"/>
       <use x="254.4921875" xlink:href="#DejaVuSans-30"/>
       <use x="318.115234375" xlink:href="#DejaVuSans-30"/>
       <use x="381.73828125" xlink:href="#DejaVuSans-30"/>
      </g>
     </g>
    </g>
    <g id="ytick_4">
     <g id="line2d_33">
      <g>
       <use style="stroke:#000000;stroke-width:0.5;" x="62.96875" xlink:href="#m728421d6d4" y="195.94175"/>
      </g>
     </g>
     <g id="line2d_34">
      <g>
       <use style="stroke:#000000;stroke-width:0.5;" x="509.36875" xlink:href="#mcb0005524f" y="195.94175"/>
      </g>
     </g>
     <g id="text_10">
      <!-- 1500000 -->
      <g transform="translate(7.63875 199.253)scale(0.12 -0.12)">
       <use xlink:href="#DejaVuSans-31"/>
       <use x="63.623046875" xlink:href="#DejaVuSans-35"/>
       <use x="127.24609375" xlink:href="#DejaVuSans-30"/>
       <use x="190.869140625" xlink:href="#DejaVuSans-30"/>
       <use x="254.4921875" xlink:href="#DejaVuSans-30"/>
       <use x="318.115234375" xlink:href="#DejaVuSans-30"/>
       <use x="381.73828125" xlink:href="#DejaVuSans-30"/>
      </g>
     </g>
    </g>
    <g id="ytick_5">
     <g id="line2d_35">
      <g>
       <use style="stroke:#000000;stroke-width:0.5;" x="62.96875" xlink:href="#m728421d6d4" y="138.34175"/>
      </g>
     </g>
     <g id="line2d_36">
      <g>
       <use style="stroke:#000000;stroke-width:0.5;" x="509.36875" xlink:href="#mcb0005524f" y="138.34175"/>
      </g>
     </g>
     <g id="text_11">
      <!-- 2000000 -->
      <g transform="translate(7.2 141.653)scale(0.12 -0.12)">
       <use xlink:href="#DejaVuSans-32"/>
       <use x="63.623046875" xlink:href="#DejaVuSans-30"/>
       <use x="127.24609375" xlink:href="#DejaVuSans-30"/>
       <use x="190.869140625" xlink:href="#DejaVuSans-30"/>
       <use x="254.4921875" xlink:href="#DejaVuSans-30"/>
       <use x="318.115234375" xlink:href="#DejaVuSans-30"/>
       <use x="381.73828125" xlink:href="#DejaVuSans-30"/>
      </g>
     </g>
    </g>
    <g id="ytick_6">
     <g id="line2d_37">
      <g>
       <use style="stroke:#000000;stroke-width:0.5;" x="62.96875" xlink:href="#m728421d6d4" y="80.74175"/>
      </g>
     </g>
     <g id="line2d_38">
      <g>
       <use style="stroke:#000000;stroke-width:0.5;" x="509.36875" xlink:href="#mcb0005524f" y="80.74175"/>
      </g>
     </g>
     <g id="text_12">
      <!-- 2500000 -->
      <g transform="translate(7.2 84.053)scale(0.12 -0.12)">
       <use xlink:href="#DejaVuSans-32"/>
       <use x="63.623046875" xlink:href="#DejaVuSans-35"/>
       <use x="127.24609375" xlink:href="#DejaVuSans-30"/>
       <use x="190.869140625" xlink:href="#DejaVuSans-30"/>
       <use x="254.4921875" xlink:href="#DejaVuSans-30"/>
       <use x="318.115234375" xlink:href="#DejaVuSans-30"/>
       <use x="381.73828125" xlink:href="#DejaVuSans-30"/>
      </g>
     </g>
    </g>
    <g id="ytick_7">
     <g id="line2d_39">
      <g>
       <use style="stroke:#000000;stroke-width:0.5;" x="62.96875" xlink:href="#m728421d6d4" y="23.14175"/>
      </g>
     </g>
     <g id="line2d_40">
      <g>
       <use style="stroke:#000000;stroke-width:0.5;" x="509.36875" xlink:href="#mcb0005524f" y="23.14175"/>
      </g>
     </g>
     <g id="text_13">
      <!-- 3000000 -->
      <g transform="translate(7.235625 26.453)scale(0.12 -0.12)">
       <use xlink:href="#DejaVuSans-33"/>
       <use x="63.623046875" xlink:href="#DejaVuSans-30"/>
       <use x="127.24609375" xlink:href="#DejaVuSans-30"/>
       <use x="190.869140625" xlink:href="#DejaVuSans-30"/>
       <use x="254.4921875" xlink:href="#DejaVuSans-30"/>
       <use x="318.115234375" xlink:href="#DejaVuSans-30"/>
       <use x="381.73828125" xlink:href="#DejaVuSans-30"/>
      </g>
     </g>
    </g>
   </g>
   <g id="text_14">
    <!-- /parcelport/count/mpi/cache-misses -->
    <defs>
     <path d="
M25.3906 72.9062
L33.6875 72.9062
L8.29688 -9.28125
L0 -9.28125
z
" id="DejaVuSans-2f"/>
     <path d="
M4.89062 31.3906
L31.2031 31.3906
L31.2031 23.3906
L4.89062 23.3906
z
" id="DejaVuSans-2d"/>
     <path d="
M30.6094 48.3906
Q23.3906 48.3906 19.1875 42.75
Q14.9844 37.1094 14.9844 27.2969
Q14.9844 17.4844 19.1562 11.8438
Q23.3438 6.20312 30.6094 6.20312
Q37.7969 6.20312 41.9844 11.8594
Q46.1875 17.5312 46.1875 27.2969
Q46.1875 37.0156 41.9844 42.7031
Q37.7969 48.3906 30.6094 48.3906
M30.6094 56
Q42.3281 56 49.0156 48.375
Q55.7188 40.7656 55.7188 27.2969
Q55.7188 13.875 49.0156 6.21875
Q42.3281 -1.42188 30.6094 -1.42188
Q18.8438 -1.42188 12.1719 6.21875
Q5.51562 13.875 5.51562 27.2969
Q5.51562 40.7656 12.1719 48.375
Q18.8438 56 30.6094 56" id="DejaVuSans-6f"/>
     <path d="
M54.8906 33.0156
L54.8906 0
L45.9062 0
L45.9062 32.7188
Q45.9062 40.4844 42.875 44.3281
Q39.8438 48.1875 33.7969 48.1875
Q26.5156 48.1875 22.3125 43.5469
Q18.1094 38.9219 18.1094 30.9062
L18.1094 0
L9.07812 0
L9.07812 54.6875
L18.1094 54.6875
L18.1094 46.1875
Q21.3438 51.125 25.7031 53.5625
Q30.0781 56 35.7969 56
Q45.2188 56 50.0469 50.1719
Q54.8906 44.3438 54.8906 33.0156" id="DejaVuSans-6e"/>
     <path d="
M9.42188 75.9844
L18.4062 75.9844
L18.4062 0
L9.42188 0
z
" id="DejaVuSans-6c"/>
     <path d="
M18.1094 8.20312
L18.1094 -20.7969
L9.07812 -20.7969
L9.07812 54.6875
L18.1094 54.6875
L18.1094 46.3906
Q20.9531 51.2656 25.2656 53.625
Q29.5938 56 35.5938 56
Q45.5625 56 51.7812 48.0938
Q58.0156 40.1875 58.0156 27.2969
Q58.0156 14.4062 51.7812 6.48438
Q45.5625 -1.42188 35.5938 -1.42188
Q29.5938 -1.42188 25.2656 0.953125
Q20.9531 3.32812 18.1094 8.20312
M48.6875 27.2969
Q48.6875 37.2031 44.6094 42.8438
Q40.5312 48.4844 33.4062 48.4844
Q26.2656 48.4844 22.1875 42.8438
Q18.1094 37.2031 18.1094 27.2969
Q18.1094 17.3906 22.1875 11.75
Q26.2656 6.10938 33.4062 6.10938
Q40.5312 6.10938 44.6094 11.75
Q48.6875 17.3906 48.6875 27.2969" id="DejaVuSans-70"/>
     <path d="
M54.8906 33.0156
L54.8906 0
L45.9062 0
L45.9062 32.7188
Q45.9062 40.4844 42.875 44.3281
Q39.8438 48.1875 33.7969 48.1875
Q26.5156 48.1875 22.3125 43.5469
Q18.1094 38.9219 18.1094 30.9062
L18.1094 0
L9.07812 0
L9.07812 75.9844
L18.1094 75.9844
L18.1094 46.1875
Q21.3438 51.125 25.7031 53.5625
Q30.0781 56 35.7969 56
Q45.2188 56 50.0469 50.1719
Q54.8906 44.3438 54.8906 33.0156" id="DejaVuSans-68"/>
     <path d="
M8.5 21.5781
L8.5 54.6875
L17.4844 54.6875
L17.4844 21.9219
Q17.4844 14.1562 20.5 10.2656
Q23.5312 6.39062 29.5938 6.39062
Q36.8594 6.39062 41.0781 11.0312
Q45.3125 15.6719 45.3125 23.6875
L45.3125 54.6875
L54.2969 54.6875
L54.2969 0
L45.3125 0
L45.3125 8.40625
Q42.0469 3.42188 37.7188 1
Q33.4062 -1.42188 27.6875 -1.42188
Q18.2656 -1.42188 13.375 4.4375
Q8.5 10.2969 8.5 21.5781
M31.1094 56
z
" id="DejaVuSans-75"/>
     <path d="
M34.2812 27.4844
Q23.3906 27.4844 19.1875 25
Q14.9844 22.5156 14.9844 16.5
Q14.9844 11.7188 18.1406 8.90625
Q21.2969 6.10938 26.7031 6.10938
Q34.1875 6.10938 38.7031 11.4062
Q43.2188 16.7031 43.2188 25.4844
L43.2188 27.4844
z

M52.2031 31.2031
L52.2031 0
L43.2188 0
L43.2188 8.29688
Q40.1406 3.32812 35.5469 0.953125
Q30.9531 -1.42188 24.3125 -1.42188
Q15.9219 -1.42188 10.9531 3.29688
Q6 8.01562 6 15.9219
Q6 25.1406 12.1719 29.8281
Q18.3594 34.5156 30.6094 34.5156
L43.2188 34.5156
L43.2188 35.4062
Q43.2188 41.6094 39.1406 45
Q35.0625 48.3906 27.6875 48.3906
Q23 48.3906 18.5469 47.2656
Q14.1094 46.1406 10.0156 43.8906
L10.0156 52.2031
Q14.9375 54.1094 19.5781 55.0469
Q24.2188 56 28.6094 56
Q40.4844 56 46.3438 49.8438
Q52.2031 43.7031 52.2031 31.2031" id="DejaVuSans-61"/>
     <path d="
M48.7812 52.5938
L48.7812 44.1875
Q44.9688 46.2969 41.1406 47.3438
Q37.3125 48.3906 33.4062 48.3906
Q24.6562 48.3906 19.8125 42.8438
Q14.9844 37.3125 14.9844 27.2969
Q14.9844 17.2812 19.8125 11.7344
Q24.6562 6.20312 33.4062 6.20312
Q37.3125 6.20312 41.1406 7.25
Q44.9688 8.29688 48.7812 10.4062
L48.7812 2.09375
Q45.0156 0.34375 40.9844 -0.53125
Q36.9688 -1.42188 32.4219 -1.42188
Q20.0625 -1.42188 12.7812 6.34375
Q5.51562 14.1094 5.51562 27.2969
Q5.51562 40.6719 12.8594 48.3281
Q20.2188 56 33.0156 56
Q37.1562 56 41.1094 55.1406
Q45.0625 54.2969 48.7812 52.5938" id="DejaVuSans-63"/>
     <path d="
M44.2812 53.0781
L44.2812 44.5781
Q40.4844 46.5312 36.375 47.5
Q32.2812 48.4844 27.875 48.4844
Q21.1875 48.4844 17.8438 46.4375
Q14.5 44.3906 14.5 40.2812
Q14.5 37.1562 16.8906 35.375
Q19.2812 33.5938 26.5156 31.9844
L29.5938 31.2969
Q39.1562 29.25 43.1875 25.5156
Q47.2188 21.7812 47.2188 15.0938
Q47.2188 7.46875 41.1875 3.01562
Q35.1562 -1.42188 24.6094 -1.42188
Q20.2188 -1.42188 15.4531 -0.5625
Q10.6875 0.296875 5.42188 2
L5.42188 11.2812
Q10.4062 8.6875 15.2344 7.39062
Q20.0625 6.10938 24.8125 6.10938
Q31.1562 6.10938 34.5625 8.28125
Q37.9844 10.4531 37.9844 14.4062
Q37.9844 18.0625 35.5156 20.0156
Q33.0625 21.9688 24.7031 23.7812
L21.5781 24.5156
Q13.2344 26.2656 9.51562 29.9062
Q5.8125 33.5469 5.8125 39.8906
Q5.8125 47.6094 11.2812 51.7969
Q16.75 56 26.8125 56
Q31.7812 56 36.1719 55.2656
Q40.5781 54.5469 44.2812 53.0781" id="DejaVuSans-73"/>
     <path d="
M41.1094 46.2969
Q39.5938 47.1719 37.8125 47.5781
Q36.0312 48 33.8906 48
Q26.2656 48 22.1875 43.0469
Q18.1094 38.0938 18.1094 28.8125
L18.1094 0
L9.07812 0
L9.07812 54.6875
L18.1094 54.6875
L18.1094 46.1875
Q20.9531 51.1719 25.4844 53.5781
Q30.0312 56 36.5312 56
Q37.4531 56 38.5781 55.875
Q39.7031 55.7656 41.0625 55.5156
z
" id="DejaVuSans-72"/>
    </defs>
    <g transform="translate(157.37425 18.14175)scale(0.144 -0.144)">
     <use xlink:href="#DejaVuSans-2f"/>
     <use x="33.69140625" xlink:href="#DejaVuSans-70"/>
     <use x="97.16796875" xlink:href="#DejaVuSans-61"/>
     <use x="158.447265625" xlink:href="#DejaVuSans-72"/>
     <use x="197.310546875" xlink:href="#DejaVuSans-63"/>
     <use x="252.291015625" xlink:href="#DejaVuSans-65"/>
     <use x="313.814453125" xlink:href="#DejaVuSans-6c"/>
     <use x="341.59765625" xlink:href="#DejaVuSans-70"/>
     <use x="405.07421875" xlink:href="#DejaVuSans-6f"/>
     <use x="466.255859375" xlink:href="#DejaVuSans-72"/>
     <use x="507.369140625" xlink:href="#DejaVuSans-74"/>
     <use x="546.578125" xlink:href="#DejaVuSans-2f"/>
     <use x="580.26953125" xlink:href="#DejaVuSans-63"/>
     <use x="635.25" xlink:href="#DejaVuSans-6f"/>
     <use x="696.431640625" xlink:href="#DejaVuSans-75"/>
     <use x="759.810546875" xlink:href="#DejaVuSans-6e"/>
     <use x="823.189453125" xlink:href="#DejaVuSans-74"/>
     <use x="862.3984375" xlink:href="#DejaVuSans-2f"/>
     <use x="896.08984375" xlink:href="#DejaVuSans-6d"/>
     <use x="993.501953125" xlink:href="#DejaVuSans-70"/>
     <use x="1056.97851562" xlink:href="#DejaVuSans-69"/>
     <use x="1084.76171875" xlink:href="#DejaVuSans-2f"/>
     <use x="1118.453125" xlink:href="#DejaVuSans-63"/>
     <use x="1173.43359375" xlink:href="#DejaVuSans-61"/>
     <use x="1234.71289062" xlink:href="#DejaVuSans-63"/>
     <use x="1289.69335938" xlink:href="#DejaVuSans-68"/>
     <use x="1353.07226562" xlink:href="#DejaVuSans-65"/>
     <use x="1414.59570312" xlink:href="#DejaVuSans-2d"/>
     <use x="1450.6796875" xlink:href="#DejaVuSans-6d"/>
     <use x="1548.09179688" xlink:href="#DejaVuSans-69"/>
     <use x="1575.875" xlink:href="#DejaVuSans-73"/>
     <use x="1627.97460938" xlink:href="#DejaVuSans-73"/>
     <use x="1680.07421875" xlink:href="#DejaVuSans-65"/>
     <use x="1741.59765625" xlink:href="#DejaVuSans-73"/>
    </g>
   </g>
   <g id="legend_1">
    <g id="patch_7">
     <path d="
M516.569 367.194
L648.358 367.194
L648.358 24.6897
L516.569 24.6897
z
" style="fill:#ffffff;stroke:#000000;stroke-linejoin:miter;"/>
    </g>
    <g id="line2d_41">
     <path d="
M526.649 36.3515
L546.809 36.3515" style="fill:none;stroke:#0000ff;stroke-linecap:square;"/>
    </g>
    <g id="line2d_42"/>
    <g id="text_15">
     <!-- locality#0 -->
     <defs>
      <path d="
M51.125 44
L36.9219 44
L32.8125 27.6875
L47.125 27.6875
z

M43.7969 71.7812
L38.7188 51.5156
L52.9844 51.5156
L58.1094 71.7812
L65.9219 71.7812
L60.8906 51.5156
L76.125 51.5156
L76.125 44
L58.9844 44
L54.9844 27.6875
L70.5156 27.6875
L70.5156 20.2188
L53.0781 20.2188
L48 0
L40.1875 0
L45.2188 20.2188
L30.9062 20.2188
L25.875 0
L18.0156 0
L23.0938 20.2188
L7.71875 20.2188
L7.71875 27.6875
L24.9062 27.6875
L29 44
L13.2812 44
L13.2812 51.5156
L30.9062 51.5156
L35.8906 71.7812
z
" id="DejaVuSans-23"/>
      <path d="
M32.1719 -5.07812
Q28.375 -14.8438 24.75 -17.8125
Q21.1406 -20.7969 15.0938 -20.7969
L7.90625 -20.7969
L7.90625 -13.2812
L13.1875 -13.2812
Q16.8906 -13.2812 18.9375 -11.5156
Q21 -9.76562 23.4844 -3.21875
L25.0938 0.875
L2.98438 54.6875
L12.5 54.6875
L29.5938 11.9219
L46.6875 54.6875
L56.2031 54.6875
z
" id="DejaVuSans-79"/>
     </defs>
     <g transform="translate(562.64875 41.3915)scale(0.144 -0.144)">
      <use xlink:href="#DejaVuSans-6c"/>
      <use x="27.783203125" xlink:href="#DejaVuSans-6f"/>
      <use x="88.96484375" xlink:href="#DejaVuSans-63"/>
      <use x="143.9453125" xlink:href="#DejaVuSans-61"/>
      <use x="205.224609375" xlink:href="#DejaVuSans-6c"/>
      <use x="233.0078125" xlink:href="#DejaVuSans-69"/>
      <use x="260.791015625" xlink:href="#DejaVuSans-74"/>
      <use x="300.0" xlink:href="#DejaVuSans-79"/>
      <use x="359.1796875" xlink:href="#DejaVuSans-23"/>
      <use x="442.96875" xlink:href="#DejaVuSans-30"/>
     </g>
    </g>
    <g id="line2d_43">
     <path d="
M526.649 57.488
L546.809 57.488" style="fill:none;stroke:#008000;stroke-linecap:square;"/>
    </g>
    <g id="line2d_44"/>
    <g id="text_16">
     <!-- locality#1 -->
     <g transform="translate(562.64875 62.528)scale(0.144 -0.144)">
      <use xlink:href="#DejaVuSans-6c"/>
      <use x="27.783203125" xlink:href="#DejaVuSans-6f"/>
      <use x="88.96484375" xlink:href="#DejaVuSans-63"/>
      <use x="143.9453125" xlink:href="#DejaVuSans-61"/>
      <use x="205.224609375" xlink:href="#DejaVuSans-6c"/>
      <use x="233.0078125" xlink:href="#DejaVuSans-69"/>
      <use x="260.791015625" xlink:href="#DejaVuSans-74"/>
      <use x="300.0" xlink:href="#DejaVuSans-79"/>
      <use x="359.1796875" xlink:href="#DejaVuSans-23"/>
      <use x="442.96875" xlink:href="#DejaVuSans-31"/>
     </g>
    </g>
    <g id="line2d_45">
     <path d="
M526.649 78.6245
L546.809 78.6245" style="fill:none;stroke:#ff0000;stroke-linecap:square;"/>
    </g>
    <g id="line2d_46"/>
    <g id="text_17">
     <!-- locality#10 -->
     <g transform="translate(562.64875 83.6645)scale(0.144 -0.144)">
      <use xlink:href="#DejaVuSans-6c"/>
      <use x="27.783203125" xlink:href="#DejaVuSans-6f"/>
      <use x="88.96484375" xlink:href="#DejaVuSans-63"/>
      <use x="143.9453125" xlink:href="#DejaVuSans-61"/>
      <use x="205.224609375" xlink:href="#DejaVuSans-6c"/>
      <use x="233.0078125" xlink:href="#DejaVuSans-69"/>
      <use x="260.791015625" xlink:href="#DejaVuSans-74"/>
      <use x="300.0" xlink:href="#DejaVuSans-79"/>
      <use x="359.1796875" xlink:href="#DejaVuSans-23"/>
      <use x="442.96875" xlink:href="#DejaVuSans-31"/>
      <use x="506.591796875" xlink:href="#DejaVuSans-30"/>
     </g>
    </g>
    <g id="line2d_47">
     <path d="
M526.649 99.761
L546.809 99.761" style="fill:none;stroke:#00bfbf;stroke-linecap:square;"/>
    </g>
    <g id="line2d_48"/>
    <g id="text_18">
     <!-- locality#11 -->
     <g transform="translate(562.64875 104.801)scale(0.144 -0.144)">
      <use xlink:href="#DejaVuSans-6c"/>
      <use x="27.783203125" xlink:href="#DejaVuSans-6f"/>
      <use x="88.96484375" xlink:href="#DejaVuSans-63"/>
      <use x="143.9453125" xlink:href="#DejaVuSans-61"/>
      <use x="205.224609375" xlink:href="#DejaVuSans-6c"/>
      <use x="233.0078125" xlink:href="#DejaVuSans-69"/>
      <use x="260.791015625" xlink:href="#DejaVuSans-74"/>
      <use x="300.0" xlink:href="#DejaVuSans-79"/>
      <use x="359.1796875" xlink:href="#DejaVuSans-23"/>
      <use x="442.96875" xlink:href="#DejaVuSans-31"/>
      <use x="506.591796875" xlink:href="#DejaVuSans-31"/>
     </g>
    </g>
    <g id="line2d_49">
     <path d="
M526.649 120.897
L546.809 120.897" style="fill:none;stroke:#bf00bf;stroke-linecap:square;"/>
    </g>
    <g id="line2d_50"/>
    <g id="text_19">
     <!-- locality#12 -->
     <g transform="translate(562.64875 125.9375)scale(0.144 -0.144)">
      <use xlink:href="#DejaVuSans-6c"/>
      <use x="27.783203125" xlink:href="#DejaVuSans-6f"/>
      <use x="88.96484375" xlink:href="#DejaVuSans-63"/>
      <use x="143.9453125" xlink:href="#DejaVuSans-61"/>
      <use x="205.224609375" xlink:href="#DejaVuSans-6c"/>
      <use x="233.0078125" xlink:href="#DejaVuSans-69"/>
      <use x="260.791015625" xlink:href="#DejaVuSans-74"/>
      <use x="300.0" xlink:href="#DejaVuSans-79"/>
      <use x="359.1796875" xlink:href="#DejaVuSans-23"/>
      <use x="442.96875" xlink:href="#DejaVuSans-31"/>
      <use x="506.591796875" xlink:href="#DejaVuSans-32"/>
     </g>
    </g>
    <g id="line2d_51">
     <path d="
M526.649 142.034
L546.809 142.034" style="fill:none;stroke:#bfbf00;stroke-linecap:square;"/>
    </g>
    <g id="line2d_52"/>
    <g id="text_20">
     <!-- locality#13 -->
     <g transform="translate(562.64875 147.074)scale(0.144 -0.144)">
      <use xlink:href="#DejaVuSans-6c"/>
      <use x="27.783203125" xlink:href="#DejaVuSans-6f"/>
      <use x="88.96484375" xlink:href="#DejaVuSans-63"/>
      <use x="143.9453125" xlink:href="#DejaVuSans-61"/>
      <use x="205.224609375" xlink:href="#DejaVuSans-6c"/>
      <use x="233.0078125" xlink:href="#DejaVuSans-69"/>
      <use x="260.791015625" xlink:href="#DejaVuSans-74"/>
      <use x="300.0" xlink:href="#DejaVuSans-79"/>
      <use x="359.1796875" xlink:href="#DejaVuSans-23"/>
      <use x="442.96875" xlink:href="#DejaVuSans-31"/>
      <use x="506.591796875" xlink:href="#DejaVuSans-33"/>
     </g>
    </g>
    <g id="line2d_53">
     <path d="
M526.649 163.17
L546.809 163.17" style="fill:none;stroke:#000000;stroke-linecap:square;"/>
    </g>
    <g id="line2d_54"/>
    <g id="text_21">
     <!-- locality#14 -->
     <g transform="translate(562.64875 168.2105)scale(0.144 -0.144)">
      <use xlink:href="#DejaVuSans-6c"/>
      <use x="27.783203125" xlink:href="#DejaVuSans-6f"/>
      <use x="88.96484375" xlink:href="#DejaVuSans-63"/>
      <use x="143.9453125" xlink:href="#DejaVuSans-61"/>
      <use x="205.224609375" xlink:href="#DejaVuSans-6c"/>
      <use x="233.0078125" xlink:href="#DejaVuSans-69"/>
      <use x="260.791015625" xlink:href="#DejaVuSans-74"/>
      <use x="300.0" xlink:href="#DejaVuSans-79"/>
      <use x="359.1796875" xlink:href="#DejaVuSans-23"/>
      <use x="442.96875" xlink:href="#DejaVuSans-31"/>
      <use x="506.591796875" xlink:href="#DejaVuSans-34"/>
     </g>
    </g>
    <g id="line2d_55">
     <path d="
M526.649 184.307
L546.809 184.307" style="fill:none;stroke:#0000ff;stroke-linecap:square;"/>
    </g>
    <g id="line2d_56"/>
    <g id="text_22">
     <!-- locality#15 -->
     <g transform="translate(562.64875 189.347)scale(0.144 -0.144)">
      <use xlink:href="#DejaVuSans-6c"/>
      <use x="27.783203125" xlink:href="#DejaVuSans-6f"/>
      <use x="88.96484375" xlink:href="#DejaVuSans-63"/>
      <use x="143.9453125" xlink:href="#DejaVuSans-61"/>
      <use x="205.224609375" xlink:href="#DejaVuSans-6c"/>
      <use x="233.0078125" xlink:href="#DejaVuSans-69"/>
      <use x="260.791015625" xlink:href="#DejaVuSans-74"/>
      <use x="300.0" xlink:href="#DejaVuSans-79"/>
      <use x="359.1796875" xlink:href="#DejaVuSans-23"/>
      <use x="442.96875" xlink:href="#DejaVuSans-31"/>
      <use x="506.591796875" xlink:href="#DejaVuSans-35"/>
     </g>
    </g>
    <g id="line2d_57">
     <path d="
M526.649 205.443
L546.809 205.443" style="fill:none;stroke:#008000;stroke-linecap:square;"/>
    </g>
    <g id="line2d_58"/>
    <g id="text_23">
     <!-- locality#2 -->
     <g transform="translate(562.64875 210.4835)scale(0.144 -0.144)">
      <use xlink:href="#DejaVuSans-6c"/>
      <use x="27.783203125" xlink:href="#DejaVuSans-6f"/>
      <use x="88.96484375" xlink:href="#DejaVuSans-63"/>
      <use x="143.9453125" xlink:href="#DejaVuSans-61"/>
      <use x="205.224609375" xlink:href="#DejaVuSans-6c"/>
      <use x="233.0078125" xlink:href="#DejaVuSans-69"/>
      <use x="260.791015625" xlink:href="#DejaVuSans-74"/>
      <use x="300.0" xlink:href="#DejaVuSans-79"/>
      <use x="359.1796875" xlink:href="#DejaVuSans-23"/>
      <use x="442.96875" xlink:href="#DejaVuSans-32"/>
     </g>
    </g>
    <g id="line2d_59">
     <path d="
M526.649 226.58
L546.809 226.58" style="fill:none;stroke:#ff0000;stroke-linecap:square;"/>
    </g>
    <g id="line2d_60"/>
    <g id="text_24">
     <!-- locality#3 -->
     <g transform="translate(562.64875 231.62)scale(0.144 -0.144)">
      <use xlink:href="#DejaVuSans-6c"/>
      <use x="27.783203125" xlink:href="#DejaVuSans-6f"/>
      <use x="88.96484375" xlink:href="#DejaVuSans-63"/>
      <use x="143.9453125" xlink:href="#DejaVuSans-61"/>
      <use x="205.224609375" xlink:href="#DejaVuSans-6c"/>
      <use x="233.0078125" xlink:href="#DejaVuSans-69"/>
      <use x="260.791015625" xlink:href="#DejaVuSans-74"/>
      <use x="300.0" xlink:href="#DejaVuSans-79"/>
      <use x="359.1796875" xlink:href="#DejaVuSans-23"/>
      <use x="442.96875" xlink:href="#DejaVuSans-33"/>
     </g>
    </g>
    <g id="line2d_61">
     <path d="
M526.649 247.716
L546.809 247.716" style="fill:none;stroke:#00bfbf;stroke-linecap:square;"/>
    </g>
    <g id="line2d_62"/>
    <g id="text_25">
     <!-- locality#4 -->
     <g transform="translate(562.64875 252.7565)scale(0.144 -0.144)">
      <use xlink:href="#DejaVuSans-6c"/>
      <use x="27.783203125" xlink:href="#DejaVuSans-6f"/>
      <use x="88.96484375" xlink:href="#DejaVuSans-63"/>
      <use x="143.9453125" xlink:href="#DejaVuSans-61"/>
      <use x="205.224609375" xlink:href="#DejaVuSans-6c"/>
      <use x="233.0078125" xlink:href="#DejaVuSans-69"/>
      <use x="260.791015625" xlink:href="#DejaVuSans-74"/>
      <use x="300.0" xlink:href="#DejaVuSans-79"/>
      <use x="359.1796875" xlink:href="#DejaVuSans-23"/>
      <use x="442.96875" xlink:href="#DejaVuSans-34"/>
     </g>
    </g>
    <g id="line2d_63">
     <path d="
M526.649 268.853
L546.809 268.853" style="fill:none;stroke:#bf00bf;stroke-linecap:square;"/>
    </g>
    <g id="line2d_64"/>
    <g id="text_26">
     <!-- locality#5 -->
     <g transform="translate(562.64875 273.893)scale(0.144 -0.144)">
      <use xlink:href="#DejaVuSans-6c"/>
      <use x="27.783203125" xlink:href="#DejaVuSans-6f"/>
      <use x="88.96484375" xlink:href="#DejaVuSans-63"/>
      <use x="143.9453125" xlink:href="#DejaVuSans-61"/>
      <use x="205.224609375" xlink:href="#DejaVuSans-6c"/>
      <use x="233.0078125" xlink:href="#DejaVuSans-69"/>
      <use x="260.791015625" xlink:href="#DejaVuSans-74"/>
      <use x="300.0" xlink:href="#DejaVuSans-79"/>
      <use x="359.1796875" xlink:href="#DejaVuSans-23"/>
      <use x="442.96875" xlink:href="#DejaVuSans-35"/>
     </g>
    </g>
    <g id="line2d_65">
     <path d="
M526.649 289.989
L546.809 289.989" style="fill:none;stroke:#bfbf00;stroke-linecap:square;"/>
    </g>
    <g id="line2d_66"/>
    <g id="text_27">
     <!-- locality#6 -->
     <defs>
      <path d="
M33.0156 40.375
Q26.375 40.375 22.4844 35.8281
Q18.6094 31.2969 18.6094 23.3906
Q18.6094 15.5312 22.4844 10.9531
Q26.375 6.39062 33.0156 6.39062
Q39.6562 6.39062 43.5312 10.9531
Q47.4062 15.5312 47.4062 23.3906
Q47.4062 31.2969 43.5312 35.8281
Q39.6562 40.375 33.0156 40.375
M52.5938 71.2969
L52.5938 62.3125
Q48.875 64.0625 45.0938 64.9844
Q41.3125 65.9219 37.5938 65.9219
Q27.8281 65.9219 22.6719 59.3281
Q17.5312 52.7344 16.7969 39.4062
Q19.6719 43.6562 24.0156 45.9219
Q28.375 48.1875 33.5938 48.1875
Q44.5781 48.1875 50.9531 41.5156
Q57.3281 34.8594 57.3281 23.3906
Q57.3281 12.1562 50.6875 5.35938
Q44.0469 -1.42188 33.0156 -1.42188
Q20.3594 -1.42188 13.6719 8.26562
Q6.98438 17.9688 6.98438 36.375
Q6.98438 53.6562 15.1875 63.9375
Q23.3906 74.2188 37.2031 74.2188
Q40.9219 74.2188 44.7031 73.4844
Q48.4844 72.75 52.5938 71.2969" id="DejaVuSans-36"/>
     </defs>
     <g transform="translate(562.64875 295.0295)scale(0.144 -0.144)">
      <use xlink:href="#DejaVuSans-6c"/>
      <use x="27.783203125" xlink:href="#DejaVuSans-6f"/>
      <use x="88.96484375" xlink:href="#DejaVuSans-63"/>
      <use x="143.9453125" xlink:href="#DejaVuSans-61"/>
      <use x="205.224609375" xlink:href="#DejaVuSans-6c"/>
      <use x="233.0078125" xlink:href="#DejaVuSans-69"/>
      <use x="260.791015625" xlink:href="#DejaVuSans-74"/>
      <use x="300.0" xlink:href="#DejaVuSans-79"/>
      <use x="359.1796875" xlink:href="#DejaVuSans-23"/>
      <use x="442.96875" xlink:href="#DejaVuSans-36"/>
     </g>
    </g>
    <g id="line2d_67">
     <path d="
M526.649 311.126
L546.809 311.126" style="fill:none;stroke:#000000;stroke-linecap:square;"/>
    </g>
    <g id="line2d_68"/>
    <g id="text_28">
     <!-- locality#7 -->
     <defs>
      <path d="
M8.20312 72.9062
L55.0781 72.9062
L55.0781 68.7031
L28.6094 0
L18.3125 0
L43.2188 64.5938
L8.20312 64.5938
z
" id="DejaVuSans-37"/>
     </defs>
     <g transform="translate(562.64875 316.166)scale(0.144 -0.144)">
      <use xlink:href="#DejaVuSans-6c"/>
      <use x="27.783203125" xlink:href="#DejaVuSans-6f"/>
      <use x="88.96484375" xlink:href="#DejaVuSans-63"/>
      <use x="143.9453125" xlink:href="#DejaVuSans-61"/>
      <use x="205.224609375" xlink:href="#DejaVuSans-6c"/>
      <use x="233.0078125" xlink:href="#DejaVuSans-69"/>
      <use x="260.791015625" xlink:href="#DejaVuSans-74"/>
      <use x="300.0" xlink:href="#DejaVuSans-79"/>
      <use x="359.1796875" xlink:href="#DejaVuSans-23"/>
      <use x="442.96875" xlink:href="#DejaVuSans-37"/>
     </g>
    </g>
    <g id="line2d_69">
     <path d="
M526.649 332.262
L546.809 332.262" style="fill:none;stroke:#0000ff;stroke-linecap:square;"/>
    </g>
    <g id="line2d_70"/>
    <g id="text_29">
     <!-- locality#8 -->
     <defs>
      <path d="
M31.7812 34.625
Q24.75 34.625 20.7188 30.8594
Q16.7031 27.0938 16.7031 20.5156
Q16.7031 13.9219 20.7188 10.1562
Q24.75 6.39062 31.7812 6.39062
Q38.8125 6.39062 42.8594 10.1719
Q46.9219 13.9688 46.9219 20.5156
Q46.9219 27.0938 42.8906 30.8594
Q38.875 34.625 31.7812 34.625
M21.9219 38.8125
Q15.5781 40.375 12.0312 44.7188
Q8.5 49.0781 8.5 55.3281
Q8.5 64.0625 14.7188 69.1406
Q20.9531 74.2188 31.7812 74.2188
Q42.6719 74.2188 48.875 69.1406
Q55.0781 64.0625 55.0781 55.3281
Q55.0781 49.0781 51.5312 44.7188
Q48 40.375 41.7031 38.8125
Q48.8281 37.1562 52.7969 32.3125
Q56.7812 27.4844 56.7812 20.5156
Q56.7812 9.90625 50.3125 4.23438
Q43.8438 -1.42188 31.7812 -1.42188
Q19.7344 -1.42188 13.25 4.23438
Q6.78125 9.90625 6.78125 20.5156
Q6.78125 27.4844 10.7812 32.3125
Q14.7969 37.1562 21.9219 38.8125
M18.3125 54.3906
Q18.3125 48.7344 21.8438 45.5625
Q25.3906 42.3906 31.7812 42.3906
Q38.1406 42.3906 41.7188 45.5625
Q45.3125 48.7344 45.3125 54.3906
Q45.3125 60.0625 41.7188 63.2344
Q38.1406 66.4062 31.7812 66.4062
Q25.3906 66.4062 21.8438 63.2344
Q18.3125 60.0625 18.3125 54.3906" id="DejaVuSans-38"/>
     </defs>
     <g transform="translate(562.64875 337.3025)scale(0.144 -0.144)">
      <use xlink:href="#DejaVuSans-6c"/>
      <use x="27.783203125" xlink:href="#DejaVuSans-6f"/>
      <use x="88.96484375" xlink:href="#DejaVuSans-63"/>
      <use x="143.9453125" xlink:href="#DejaVuSans-61"/>
      <use x="205.224609375" xlink:href="#DejaVuSans-6c"/>
      <use x="233.0078125" xlink:href="#DejaVuSans-69"/>
      <use x="260.791015625" xlink:href="#DejaVuSans-74"/>
      <use x="300.0" xlink:href="#DejaVuSans-79"/>
      <use x="359.1796875" xlink:href="#DejaVuSans-23"/>
      <use x="442.96875" xlink:href="#DejaVuSans-38"/>
     </g>
    </g>
    <g id="line2d_71">
     <path d="
M526.649 353.399
L546.809 353.399" style="fill:none;stroke:#008000;stroke-linecap:square;"/>
    </g>
    <g id="line2d_72"/>
    <g id="text_30">
     <!-- locality#9 -->
     <defs>
      <path d="
M10.9844 1.51562
L10.9844 10.5
Q14.7031 8.73438 18.5 7.8125
Q22.3125 6.89062 25.9844 6.89062
Q35.75 6.89062 40.8906 13.4531
Q46.0469 20.0156 46.7812 33.4062
Q43.9531 29.2031 39.5938 26.9531
Q35.25 24.7031 29.9844 24.7031
Q19.0469 24.7031 12.6719 31.3125
Q6.29688 37.9375 6.29688 49.4219
Q6.29688 60.6406 12.9375 67.4219
Q19.5781 74.2188 30.6094 74.2188
Q43.2656 74.2188 49.9219 64.5156
Q56.5938 54.8281 56.5938 36.375
Q56.5938 19.1406 48.4062 8.85938
Q40.2344 -1.42188 26.4219 -1.42188
Q22.7031 -1.42188 18.8906 -0.6875
Q15.0938 0.046875 10.9844 1.51562
M30.6094 32.4219
Q37.25 32.4219 41.125 36.9531
Q45.0156 41.5 45.0156 49.4219
Q45.0156 57.2812 41.125 61.8438
Q37.25 66.4062 30.6094 66.4062
Q23.9688 66.4062 20.0938 61.8438
Q16.2188 57.2812 16.2188 49.4219
Q16.2188 41.5 20.0938 36.9531
Q23.9688 32.4219 30.6094 32.4219" id="DejaVuSans-39"/>
     </defs>
     <g transform="translate(562.64875 358.439)scale(0.144 -0.144)">
      <use xlink:href="#DejaVuSans-6c"/>
      <use x="27.783203125" xlink:href="#DejaVuSans-6f"/>
      <use x="88.96484375" xlink:href="#DejaVuSans-63"/>
      <use x="143.9453125" xlink:href="#DejaVuSans-61"/>
      <use x="205.224609375" xlink:href="#DejaVuSans-6c"/>
      <use x="233.0078125" xlink:href="#DejaVuSans-69"/>
      <use x="260.791015625" xlink:href="#DejaVuSans-74"/>
      <use x="300.0" xlink:href="#DejaVuSans-79"/>
      <use x="359.1796875" xlink:href="#DejaVuSans-23"/>
      <use x="442.96875" xlink:href="#DejaVuSans-39"/>
     </g>
    </g>
   </g>
  </g>
 </g>
 <defs>
  <clipPath id="p0e537c530d">
   <rect height="345.6" width="446.4" x="62.96875" y="23.14175"/>
  </clipPath>
 </defs>
</svg>
