<?xml version="1.0" encoding="utf-8" standalone="no"?>
<!DOCTYPE svg PUBLIC "-//W3C//DTD SVG 1.1//EN"
  "http://www.w3.org/Graphics/SVG/1.1/DTD/svg11.dtd">
<!-- Created with matplotlib (http://matplotlib.org/) -->
<svg height="408pt" version="1.1" viewBox="0 0 610 408" width="610pt" xmlns="http://www.w3.org/2000/svg" xmlns:xlink="http://www.w3.org/1999/xlink">
 <defs>
  <style type="text/css">
*{stroke-linecap:butt;stroke-linejoin:round;}
  </style>
 </defs>
 <g id="figure_1">
  <g id="patch_1">
   <path d="
M0 408.169
L610.164 408.169
L610.164 0
L0 0
z
" style="fill:#ffffff;"/>
  </g>
  <g id="axes_1">
   <g id="patch_2">
    <path d="
M17.575 368.742
L463.975 368.742
L463.975 23.1417
L17.575 23.1417
z
" style="fill:#ffffff;"/>
   </g>
   <g id="line2d_1">
    <path clip-path="url(#pf51f381abf)" d="
M17.575 368.659
L19.6103 367.55
L25.3768 364.556
L31.4826 361.194
L35.5531 358.92
L37.9276 357.579
L58.6194 345.971
L60.9938 344.614
L66.7604 341.385
L69.4741 339.86
L78.972 334.529
L81.3464 333.191
L87.7914 329.552
L90.5051 327.981
L97.9677 323.748
L100.681 322.225
L103.395 320.659
L108.483 317.799
L174.29 279.58
L178.021 277.392
L195.321 267.077
L196.339 266.427
L198.374 265.138
L219.405 251.676
L237.044 241.401
L239.079 240.183
L241.453 238.832
L306.921 201.185
L311.67 198.653
L313.705 197.583
L322.864 192.91
L325.577 191.578
L400.543 153.356
L403.256 152.023
L407.666 149.839
L411.397 148.066
L413.433 147.103
L415.468 146.213
L457.191 127.527
L463.975 124.873
L463.975 124.873" style="fill:none;stroke:#0000ff;stroke-linecap:square;"/>
   </g>
   <g id="line2d_2">
    <path clip-path="url(#pf51f381abf)" d="
M17.575 368.736
L28.0905 364.128
L36.2315 360.261
L38.9452 358.96
L44.0334 356.541
L48.4431 354.417
L54.2097 351.678
L57.2625 350.228
L68.4565 344.928
L71.1701 343.636
L75.2407 341.71
L79.3112 339.761
L81.0072 338.933
L84.0601 337.492
L87.7914 335.682
L90.1659 334.535
L97.9677 330.758
L100.681 329.452
L106.787 326.501
L109.501 325.208
L120.016 320.079
L122.391 318.934
L196.678 281.806
L219.066 269.519
L247.559 255.402
L249.255 254.565
L269.269 244.72
L271.304 243.773
L286.908 236.146
L306.242 226.733
L338.467 212.917
L340.842 211.931
L376.798 196.443
L410.041 182.536
L457.869 164.912
L463.975 162.967
L463.975 162.967" style="fill:none;stroke:#008000;stroke-linecap:square;"/>
   </g>
   <g id="line2d_3">
    <path clip-path="url(#pf51f381abf)" d="
M17.575 368.736
L21.9847 365.51
L29.1081 360.251
L33.8571 356.489
L41.9981 350.079
L45.3902 347.394
L50.8176 343.069
L52.8528 341.493
L56.2449 338.825
L58.2802 337.235
L65.4036 331.592
L69.8133 328.14
L73.8838 324.941
L75.9191 323.348
L80.668 319.526
L84.0601 316.893
L98.9853 304.941
L100.681 303.601
L105.091 300.045
L107.466 298.19
L123.069 285.568
L124.765 284.202
L176.664 241.45
L178.021 240.324
L186.501 233.308
L192.268 228.387
L195.999 225.078
L198.035 223.279
L212.96 209.576
L216.352 206.501
L225.85 198.503
L227.546 197.048
L237.383 188.823
L238.74 187.703
L255.361 173.815
L258.753 171.033
L261.467 168.739
L263.502 167.101
L266.894 164.37
L278.088 155.23
L279.784 153.893
L283.855 150.559
L285.551 149.197
L302.511 135.366
L304.886 133.527
L307.939 131.213
L313.366 127.263
L314.723 126.249
L328.63 116.491
L329.987 115.556
L335.075 112.026
L336.432 111.137
L337.789 110.166
L379.173 80.7692
L385.278 76.3759
L394.098 70.0569
L395.794 68.8819
L399.525 66.3037
L401.221 65.1522
L404.613 62.8464
L405.97 61.9015
L409.023 59.8479
L448.371 35.5799
L451.085 34.0019
L456.173 30.9599
L461.261 28.2414
L463.975 26.8362
L463.975 26.8362" style="fill:none;stroke:#ff0000;stroke-linecap:square;"/>
   </g>
   <g id="line2d_4">
    <path clip-path="url(#pf51f381abf)" d="
M17.575 368.736
L23.6808 364.352
L31.4826 358.546
L35.5531 355.403
L37.5884 353.849
L38.9452 352.779
L40.9805 351.175
L44.7118 348.303
L53.8704 341.191
L55.9057 339.627
L58.2802 337.793
L63.0291 334.065
L65.0644 332.502
L67.778 330.442
L71.1701 327.806
L74.9014 324.923
L77.6151 322.811
L80.3288 320.646
L84.3993 317.497
L87.113 315.384
L93.2188 310.537
L95.9324 308.419
L104.413 301.702
L106.448 300.148
L121.712 287.992
L123.408 286.68
L129.514 281.75
L131.549 280.171
L134.602 277.696
L190.572 232.396
L193.964 229.479
L197.356 226.552
L210.246 214.932
L220.083 206.393
L240.436 190.131
L241.453 189.326
L278.088 160.113
L279.784 158.793
L284.872 154.787
L305.225 138.768
L309.635 135.576
L311.331 134.321
L325.577 124.498
L335.075 118.007
L336.432 117.117
L337.789 116.166
L345.252 111.069
L394.098 77.2385
L395.794 76.0814
L402.239 71.7234
L403.256 71.0737
L407.327 68.3379
L410.38 66.3894
L412.415 65.0699
L417.842 61.8407
L432.089 53.3444
L458.208 38.0682
L463.975 35.0933
L463.975 35.0933" style="fill:none;stroke:#00bfbf;stroke-linecap:square;"/>
   </g>
   <g id="line2d_5">
    <path clip-path="url(#pf51f381abf)" d="
M17.575 368.736
L28.4297 361.332
L33.1786 357.795
L37.5884 354.542
L38.606 353.743
L45.3902 348.773
L50.4783 344.953
L52.8528 343.234
L56.2449 340.724
L58.2802 339.233
L63.3683 335.44
L66.7604 332.952
L69.1349 331.243
L70.8309 329.958
L73.2054 328.244
L81.0072 322.383
L83.0425 320.883
L88.809 316.557
L90.5051 315.27
L95.254 311.714
L96.9501 310.434
L100.003 308.141
L104.413 304.812
L107.466 302.554
L109.84 300.771
L164.792 258.485
L187.858 240.588
L198.713 231.627
L218.387 214.84
L225.85 209.062
L227.546 207.718
L234.33 202.492
L235.687 201.441
L237.044 200.441
L238.74 199.129
L282.159 166.265
L308.617 146.558
L331.683 131.292
L333.718 130.003
L338.467 126.928
L340.503 125.645
L400.882 85.7921
L404.613 83.4503
L405.97 82.5773
L409.023 80.6821
L412.076 78.8407
L413.433 78.0445
L414.45 77.4984
L415.468 76.9157
L443.622 60.8626
L444.979 60.1216
L455.495 54.2229
L460.922 51.5266
L462.618 50.6875
L463.975 50.0433
L463.975 50.0433" style="fill:none;stroke:#bf00bf;stroke-linecap:square;"/>
   </g>
   <g id="line2d_6">
    <path clip-path="url(#pf51f381abf)" d="
M17.575 368.736
L28.4297 361.787
L32.5002 358.951
L37.5884 355.459
L38.9452 354.506
L44.0334 350.999
L47.7647 348.407
L51.496 345.817
L53.8704 344.184
L57.941 341.389
L59.2978 340.438
L66.082 335.763
L69.1349 333.71
L71.1701 332.299
L75.2407 329.497
L78.6328 327.132
L81.0072 325.451
L83.0425 324.073
L85.7562 322.158
L88.4698 320.272
L97.9677 313.584
L99.6638 312.42
L102.377 310.5
L107.805 306.72
L109.84 305.307
L120.016 298.102
L122.052 296.686
L189.894 247.893
L203.123 237.515
L218.387 225.467
L234.33 214.078
L235.687 213.098
L238.061 211.445
L239.757 210.267
L246.881 205.285
L248.238 204.291
L249.934 203.069
L261.128 194.951
L263.841 193.058
L274.018 185.953
L275.714 184.781
L301.833 166.339
L305.903 163.559
L311.67 159.874
L313.027 159.005
L314.384 158.193
L316.08 157.115
L324.56 151.957
L371.371 123.406
L384.939 114.99
L397.151 107.552
L407.666 101.31
L411.737 98.9947
L428.697 89.9601
L456.173 75.6266
L463.975 72.0421
L463.975 72.0421" style="fill:none;stroke:#bfbf00;stroke-linecap:square;"/>
   </g>
   <g id="line2d_7">
    <path clip-path="url(#pf51f381abf)" d="
M17.575 368.736
L29.4473 361.747
L36.2315 357.492
L38.2668 356.203
L40.9805 354.488
L45.7294 351.503
L50.8176 348.278
L53.192 346.788
L57.941 343.8
L59.9762 342.511
L64.3859 339.736
L67.0996 338.045
L71.5093 335.266
L74.223 333.587
L78.972 330.551
L81.3464 329.053
L86.7738 325.603
L89.1483 324.114
L97.9677 318.437
L100.681 316.727
L105.091 313.88
L107.466 312.385
L120.016 304.279
L122.052 302.983
L190.911 257.714
L194.642 255.113
L197.017 253.459
L217.37 238.746
L225.85 233.119
L227.885 231.759
L260.788 210.458
L262.824 209.098
L264.18 208.237
L266.894 206.516
L283.855 195.611
L285.551 194.542
L308.956 179.643
L335.075 164.916
L337.111 163.819
L343.895 160.089
L354.749 153.996
L402.239 127.217
L403.256 126.69
L407.327 124.48
L411.397 122.395
L413.433 121.347
L415.129 120.543
L444.64 106.173
L457.191 100.245
L463.975 97.4091
L463.975 97.4091" style="fill:none;stroke:#000000;stroke-linecap:square;"/>
   </g>
   <g id="line2d_8">
    <path clip-path="url(#pf51f381abf)" d="
M17.575 368.736
L29.4473 362.489
L35.5531 359.046
L38.2668 357.512
L42.6765 355.024
L45.7294 353.313
L51.496 350.049
L54.5489 348.339
L57.941 346.423
L59.9762 345.264
L66.082 341.814
L69.1349 340.124
L71.1701 338.965
L74.5622 337.047
L113.571 314.692
L123.069 309.196
L125.104 308.015
L129.853 305.234
L192.268 268.289
L219.066 250.988
L254.343 230.242
L256.718 228.82
L258.753 227.676
L277.07 217.061
L307.939 199.249
L312.687 196.726
L325.238 190.371
L327.273 189.344
L335.754 185.105
L337.45 184.263
L359.159 173.283
L396.472 154.46
L398.508 153.459
L403.596 150.936
L406.649 149.468
L409.362 148.172
L414.45 145.853
L416.146 145.106
L446.675 131.666
L457.53 127.064
L463.975 124.636
L463.975 124.636" style="fill:none;stroke:#0000ff;stroke-linecap:square;"/>
   </g>
   <g id="line2d_9">
    <path clip-path="url(#pf51f381abf)" d="
M17.575 368.736
L30.465 363.119
L37.5884 359.825
L39.2844 359.019
L45.051 356.353
L47.7647 355.092
L52.5136 352.893
L56.9233 350.858
L63.0291 348.01
L66.4212 346.456
L72.1878 343.788
L79.3112 340.486
L81.0072 339.679
L84.0601 338.278
L92.2011 334.428
L100.342 330.604
L102.717 329.482
L109.162 326.471
L111.197 325.497
L115.267 323.548
L117.642 322.438
L194.303 285.223
L217.03 273.031
L264.859 249.931
L266.894 249.018
L309.295 228.995
L400.543 190.983
L403.935 189.628
L423.948 182.079
L457.869 169.954
L463.975 168.062
L463.975 168.062" style="fill:none;stroke:#008000;stroke-linecap:square;"/>
   </g>
   <g id="line2d_10">
    <path clip-path="url(#pf51f381abf)" d="
M17.575 368.736
L30.1258 363.117
L33.1786 361.641
L36.5707 360.034
L42.6765 357.08
L45.7294 355.638
L52.5136 352.381
L57.2625 350.109
L68.4565 344.766
L71.1701 343.462
L76.5975 340.858
L100.342 329.346
L102.717 328.186
L108.144 325.575
L121.712 318.9
L124.087 317.747
L129.514 315.027
L131.889 313.866
L134.602 312.52
L184.466 287.591
L186.841 286.388
L195.321 281.928
L196.678 281.21
L219.405 268.681
L276.053 240.635
L289.621 234.017
L307.26 225.356
L335.754 213.04
L337.789 212.175
L402.239 184.428
L403.256 184.026
L407.666 182.215
L452.781 165.312
L454.816 164.572
L458.208 163.43
L463.975 161.584
L463.975 161.584" style="fill:none;stroke:#ff0000;stroke-linecap:square;"/>
   </g>
   <g id="line2d_11">
    <path clip-path="url(#pf51f381abf)" d="
M17.575 368.736
L30.8042 362.346
L33.8571 360.771
L78.6328 337.776
L84.3993 334.797
L88.1306 332.87
L97.9677 327.706
L100.681 326.314
L105.77 323.662
L108.483 322.259
L118.32 317.064
L121.034 315.635
L193.625 276.47
L199.052 273.304
L201.087 272.116
L203.123 270.882
L210.585 266.399
L219.066 261.481
L232.973 254.073
L278.088 230.285
L281.141 228.736
L293.353 222.292
L305.564 215.873
L308.617 214.375
L339.146 200.307
L341.181 199.378
L396.133 174.067
L398.847 172.876
L407.666 168.996
L410.38 167.848
L412.754 166.83
L414.45 166.166
L416.146 165.482
L456.512 149.397
L463.975 146.828
L463.975 146.828" style="fill:none;stroke:#00bfbf;stroke-linecap:square;"/>
   </g>
   <g id="line2d_12">
    <path clip-path="url(#pf51f381abf)" d="
M17.575 368.736
L28.0905 363.233
L36.91 358.233
L39.2844 356.874
L43.6941 354.386
L48.1039 351.885
L52.1744 349.591
L67.778 340.78
L69.8133 339.624
L72.8662 337.911
L75.9191 336.2
L82.7033 332.329
L85.0777 330.982
L93.2188 326.29
L95.254 325.133
L97.6285 323.773
L105.77 319.113
L108.144 317.766
L120.016 310.861
L122.052 309.699
L129.514 305.324
L131.549 304.163
L133.924 302.753
L188.876 270.419
L192.607 268.088
L195.321 266.398
L196.339 265.754
L198.374 264.444
L214.995 253.494
L239.418 239.036
L252.308 231.543
L254.683 230.13
L280.123 215.42
L281.819 214.454
L294.709 206.955
L296.405 205.985
L306.921 199.976
L311.67 197.474
L313.705 196.412
L339.146 183.612
L340.842 182.768
L367.3 169.22
L382.904 161.264
L411.737 146.921
L443.622 132.801
L445.318 132.068
L455.495 127.608
L460.922 125.483
L462.618 124.813
L463.975 124.299
L463.975 124.299" style="fill:none;stroke:#bf00bf;stroke-linecap:square;"/>
   </g>
   <g id="line2d_13">
    <path clip-path="url(#pf51f381abf)" d="
M17.575 368.737
L31.8218 360.282
L66.7604 338.471
L69.1349 337.018
L70.8309 335.936
L73.5446 334.267
L76.9367 332.125
L80.3288 329.98
L82.3641 328.71
L87.7914 325.27
L89.8267 323.987
L94.2364 321.179
L97.6285 319.026
L105.77 313.852
L108.144 312.378
L111.875 309.955
L113.571 308.873
L121.712 303.673
L123.748 302.387
L195.321 255.355
L196.339 254.635
L198.035 253.426
L220.083 237.649
L257.057 213.736
L258.753 212.643
L287.925 193.811
L308.956 180.555
L312.348 178.571
L314.044 177.58
L315.74 176.64
L317.776 175.436
L319.811 174.322
L359.159 152.239
L364.247 149.269
L370.353 145.753
L387.314 136.051
L389.349 134.921
L399.525 129.269
L401.9 127.974
L407.327 125.05
L411.397 122.961
L413.433 121.914
L415.129 121.115
L455.495 101.566
L460.922 99.2802
L462.957 98.4203
L463.975 98.0042
L463.975 98.0042" style="fill:none;stroke:#bfbf00;stroke-linecap:square;"/>
   </g>
   <g id="line2d_14">
    <path clip-path="url(#pf51f381abf)" d="
M17.575 368.736
L30.1258 360.695
L36.2315 356.518
L38.2668 355.121
L41.6589 352.799
L44.3726 350.953
L48.7823 347.898
L52.8528 345.146
L57.941 341.656
L59.9762 340.257
L64.3859 337.242
L67.0996 335.418
L69.4741 333.771
L76.5975 328.905
L84.3993 323.526
L86.4346 322.113
L92.5403 317.83
L94.5756 316.46
L97.9677 314.058
L100.003 312.67
L105.77 308.664
L107.466 307.49
L120.016 298.647
L122.052 297.241
L133.585 289.03
L139.691 284.69
L185.484 251.719
L187.519 250.258
L191.59 247.217
L194.642 244.898
L196.678 243.356
L219.066 225.676
L230.938 217.195
L239.079 211.431
L241.114 210.053
L242.471 209.088
L246.881 205.923
L248.238 204.914
L250.951 202.977
L252.987 201.446
L254.343 200.47
L256.718 198.718
L258.414 197.534
L278.088 183.692
L279.784 182.517
L288.604 176.305
L298.101 169.431
L305.225 164.442
L310.991 160.721
L313.027 159.375
L314.384 158.559
L316.419 157.264
L318.115 156.226
L346.608 138.736
L356.785 132.438
L358.481 131.409
L381.208 117.294
L396.472 107.904
L398.508 106.69
L403.596 103.647
L405.97 102.252
L409.023 100.477
L448.371 79.3349
L450.407 78.3133
L456.512 75.1767
L463.975 71.7303
L463.975 71.7303" style="fill:none;stroke:#000000;stroke-linecap:square;"/>
   </g>
   <g id="line2d_15">
    <path clip-path="url(#pf51f381abf)" d="
M17.575 368.736
L21.9847 365.724
L29.4473 360.577
L34.8747 356.585
L37.5884 354.613
L38.9452 353.596
L42.6765 350.861
L47.7647 347.109
L50.4783 345.064
L53.192 343.097
L57.6017 339.862
L85.0777 319.659
L88.809 316.886
L90.1659 315.875
L95.254 312.066
L96.6109 311.048
L99.3245 309.049
L105.091 304.739
L107.126 303.252
L115.267 297.107
L117.303 295.591
L131.549 284.856
L133.585 283.289
L163.435 260.346
L167.166 257.472
L173.951 252.257
L185.484 243.382
L188.197 241.271
L190.233 239.683
L194.303 236.371
L219.066 215.415
L225.85 210.212
L227.207 209.144
L244.506 196.045
L246.202 194.711
L254.343 188.466
L256.039 187.138
L269.269 177.119
L270.965 175.869
L284.533 165.668
L294.37 158.133
L303.19 151.355
L304.886 150.114
L307.26 148.412
L310.991 145.842
L313.027 144.399
L314.384 143.494
L316.08 142.312
L324.221 136.863
L325.917 135.759
L327.273 134.833
L331.683 131.849
L333.379 130.762
L339.146 126.975
L340.503 126.08
L344.573 123.334
L363.23 110.767
L379.173 100.047
L388.67 93.6773
L396.133 88.7159
L398.168 87.4551
L403.596 83.9473
L405.631 82.6831
L408.684 80.7249
L412.076 78.6679
L413.433 77.8585
L415.129 76.9109
L456.512 53.2511
L463.975 49.5048
L463.975 49.5048" style="fill:none;stroke:#0000ff;stroke-linecap:square;"/>
   </g>
   <g id="line2d_16">
    <path clip-path="url(#pf51f381abf)" d="
M17.575 368.737
L22.3239 365.337
L29.4473 360.157
L34.1963 356.476
L48.1039 345.678
L50.8176 343.587
L53.192 341.776
L54.8881 340.448
L56.9233 338.89
L62.3507 334.64
L64.7252 332.833
L67.778 330.483
L69.8133 328.907
L73.8838 325.763
L75.9191 324.219
L81.0072 320.222
L83.3817 318.392
L88.809 314.156
L90.5051 312.819
L94.2364 309.903
L95.9324 308.59
L101.36 304.281
L103.734 302.426
L114.25 294.101
L115.946 292.787
L162.757 255.067
L178.7 242.084
L189.894 232.906
L206.176 218.461
L219.066 207.018
L230.599 197.706
L236.365 193.023
L242.471 188.171
L248.916 182.976
L250.273 181.843
L260.788 173.263
L262.484 171.865
L287.586 152.059
L300.815 141.432
L306.242 137.249
L322.185 125.918
L334.058 117.741
L336.432 116.179
L337.45 115.457
L348.304 107.94
L350.001 106.796
L370.014 92.7663
L371.371 91.8353
L399.525 72.2716
L401.221 71.1546
L404.274 69.1383
L414.79 62.3805
L416.146 61.5939
L425.644 55.7975
L442.266 45.7122
L443.962 44.7639
L457.191 37.0217
L463.975 33.5409
L463.975 33.5409" style="fill:none;stroke:#008000;stroke-linecap:square;"/>
   </g>
   <g id="patch_3">
    <path d="
M17.575 368.742
L17.575 23.1417" style="fill:none;stroke:#000000;stroke-linecap:square;stroke-linejoin:miter;"/>
   </g>
   <g id="patch_4">
    <path d="
M463.975 368.742
L463.975 23.1417" style="fill:none;stroke:#000000;stroke-linecap:square;stroke-linejoin:miter;"/>
   </g>
   <g id="patch_5">
    <path d="
M17.575 23.1417
L463.975 23.1417" style="fill:none;stroke:#000000;stroke-linecap:square;stroke-linejoin:miter;"/>
   </g>
   <g id="patch_6">
    <path d="
M17.575 368.742
L463.975 368.742" style="fill:none;stroke:#000000;stroke-linecap:square;stroke-linejoin:miter;"/>
   </g>
   <g id="matplotlib.axis_1">
    <g id="xtick_1">
     <g id="line2d_17">
      <defs>
       <path d="
M0 0
L0 -4" id="mc7db9fdffb" style="stroke:#000000;stroke-width:0.5;"/>
      </defs>
      <g>
       <use style="stroke:#000000;stroke-width:0.5;" x="17.575" xlink:href="#mc7db9fdffb" y="368.74175"/>
      </g>
     </g>
     <g id="line2d_18">
      <defs>
       <path d="
M0 0
L0 4" id="m5a7d422ac3" style="stroke:#000000;stroke-width:0.5;"/>
      </defs>
      <g>
       <use style="stroke:#000000;stroke-width:0.5;" x="17.575" xlink:href="#m5a7d422ac3" y="23.14175"/>
      </g>
     </g>
     <g id="text_1">
      <!-- 0 -->
      <defs>
       <path d="
M31.7812 66.4062
Q24.1719 66.4062 20.3281 58.9062
Q16.5 51.4219 16.5 36.375
Q16.5 21.3906 20.3281 13.8906
Q24.1719 6.39062 31.7812 6.39062
Q39.4531 6.39062 43.2812 13.8906
Q47.125 21.3906 47.125 36.375
Q47.125 51.4219 43.2812 58.9062
Q39.4531 66.4062 31.7812 66.4062
M31.7812 74.2188
Q44.0469 74.2188 50.5156 64.5156
Q56.9844 54.8281 56.9844 36.375
Q56.9844 17.9688 50.5156 8.26562
Q44.0469 -1.42188 31.7812 -1.42188
Q19.5312 -1.42188 13.0625 8.26562
Q6.59375 17.9688 6.59375 36.375
Q6.59375 54.8281 13.0625 64.5156
Q19.5312 74.2188 31.7812 74.2188" id="DejaVuSans-30"/>
      </defs>
      <g transform="translate(14.5515625 381.859875)scale(0.12 -0.12)">
       <use xlink:href="#DejaVuSans-30"/>
      </g>
     </g>
    </g>
    <g id="xtick_2">
     <g id="line2d_19">
      <g>
       <use style="stroke:#000000;stroke-width:0.5;" x="85.4169452888" xlink:href="#mc7db9fdffb" y="368.74175"/>
      </g>
     </g>
     <g id="line2d_20">
      <g>
       <use style="stroke:#000000;stroke-width:0.5;" x="85.4169452888" xlink:href="#m5a7d422ac3" y="23.14175"/>
      </g>
     </g>
     <g id="text_2">
      <!-- 200 -->
      <defs>
       <path d="
M19.1875 8.29688
L53.6094 8.29688
L53.6094 0
L7.32812 0
L7.32812 8.29688
Q12.9375 14.1094 22.625 23.8906
Q32.3281 33.6875 34.8125 36.5312
Q39.5469 41.8438 41.4219 45.5312
Q43.3125 49.2188 43.3125 52.7812
Q43.3125 58.5938 39.2344 62.25
Q35.1562 65.9219 28.6094 65.9219
Q23.9688 65.9219 18.8125 64.3125
Q13.6719 62.7031 7.8125 59.4219
L7.8125 69.3906
Q13.7656 71.7812 18.9375 73
Q24.125 74.2188 28.4219 74.2188
Q39.75 74.2188 46.4844 68.5469
Q53.2188 62.8906 53.2188 53.4219
Q53.2188 48.9219 51.5312 44.8906
Q49.8594 40.875 45.4062 35.4062
Q44.1875 33.9844 37.6406 27.2188
Q31.1094 20.4531 19.1875 8.29688" id="DejaVuSans-32"/>
      </defs>
      <g transform="translate(74.8025702888 381.859875)scale(0.12 -0.12)">
       <use xlink:href="#DejaVuSans-32"/>
       <use x="63.623046875" xlink:href="#DejaVuSans-30"/>
       <use x="127.24609375" xlink:href="#DejaVuSans-30"/>
      </g>
     </g>
    </g>
    <g id="xtick_3">
     <g id="line2d_21">
      <g>
       <use style="stroke:#000000;stroke-width:0.5;" x="153.258890578" xlink:href="#mc7db9fdffb" y="368.74175"/>
      </g>
     </g>
     <g id="line2d_22">
      <g>
       <use style="stroke:#000000;stroke-width:0.5;" x="153.258890578" xlink:href="#m5a7d422ac3" y="23.14175"/>
      </g>
     </g>
     <g id="text_3">
      <!-- 400 -->
      <defs>
       <path d="
M37.7969 64.3125
L12.8906 25.3906
L37.7969 25.3906
z

M35.2031 72.9062
L47.6094 72.9062
L47.6094 25.3906
L58.0156 25.3906
L58.0156 17.1875
L47.6094 17.1875
L47.6094 0
L37.7969 0
L37.7969 17.1875
L4.89062 17.1875
L4.89062 26.7031
z
" id="DejaVuSans-34"/>
      </defs>
      <g transform="translate(142.498265578 381.859875)scale(0.12 -0.12)">
       <use xlink:href="#DejaVuSans-34"/>
       <use x="63.623046875" xlink:href="#DejaVuSans-30"/>
       <use x="127.24609375" xlink:href="#DejaVuSans-30"/>
      </g>
     </g>
    </g>
    <g id="xtick_4">
     <g id="line2d_23">
      <g>
       <use style="stroke:#000000;stroke-width:0.5;" x="221.100835866" xlink:href="#mc7db9fdffb" y="368.74175"/>
      </g>
     </g>
     <g id="line2d_24">
      <g>
       <use style="stroke:#000000;stroke-width:0.5;" x="221.100835866" xlink:href="#m5a7d422ac3" y="23.14175"/>
      </g>
     </g>
     <g id="text_4">
      <!-- 600 -->
      <defs>
       <path d="
M33.0156 40.375
Q26.375 40.375 22.4844 35.8281
Q18.6094 31.2969 18.6094 23.3906
Q18.6094 15.5312 22.4844 10.9531
Q26.375 6.39062 33.0156 6.39062
Q39.6562 6.39062 43.5312 10.9531
Q47.4062 15.5312 47.4062 23.3906
Q47.4062 31.2969 43.5312 35.8281
Q39.6562 40.375 33.0156 40.375
M52.5938 71.2969
L52.5938 62.3125
Q48.875 64.0625 45.0938 64.9844
Q41.3125 65.9219 37.5938 65.9219
Q27.8281 65.9219 22.6719 59.3281
Q17.5312 52.7344 16.7969 39.4062
Q19.6719 43.6562 24.0156 45.9219
Q28.375 48.1875 33.5938 48.1875
Q44.5781 48.1875 50.9531 41.5156
Q57.3281 34.8594 57.3281 23.3906
Q57.3281 12.1562 50.6875 5.35938
Q44.0469 -1.42188 33.0156 -1.42188
Q20.3594 -1.42188 13.6719 8.26562
Q6.98438 17.9688 6.98438 36.375
Q6.98438 53.6562 15.1875 63.9375
Q23.3906 74.2188 37.2031 74.2188
Q40.9219 74.2188 44.7031 73.4844
Q48.4844 72.75 52.5938 71.2969" id="DejaVuSans-36"/>
      </defs>
      <g transform="translate(210.465835866 381.859875)scale(0.12 -0.12)">
       <use xlink:href="#DejaVuSans-36"/>
       <use x="63.623046875" xlink:href="#DejaVuSans-30"/>
       <use x="127.24609375" xlink:href="#DejaVuSans-30"/>
      </g>
     </g>
    </g>
    <g id="xtick_5">
     <g id="line2d_25">
      <g>
       <use style="stroke:#000000;stroke-width:0.5;" x="288.942781155" xlink:href="#mc7db9fdffb" y="368.74175"/>
      </g>
     </g>
     <g id="line2d_26">
      <g>
       <use style="stroke:#000000;stroke-width:0.5;" x="288.942781155" xlink:href="#m5a7d422ac3" y="23.14175"/>
      </g>
     </g>
     <g id="text_5">
      <!-- 800 -->
      <defs>
       <path d="
M31.7812 34.625
Q24.75 34.625 20.7188 30.8594
Q16.7031 27.0938 16.7031 20.5156
Q16.7031 13.9219 20.7188 10.1562
Q24.75 6.39062 31.7812 6.39062
Q38.8125 6.39062 42.8594 10.1719
Q46.9219 13.9688 46.9219 20.5156
Q46.9219 27.0938 42.8906 30.8594
Q38.875 34.625 31.7812 34.625
M21.9219 38.8125
Q15.5781 40.375 12.0312 44.7188
Q8.5 49.0781 8.5 55.3281
Q8.5 64.0625 14.7188 69.1406
Q20.9531 74.2188 31.7812 74.2188
Q42.6719 74.2188 48.875 69.1406
Q55.0781 64.0625 55.0781 55.3281
Q55.0781 49.0781 51.5312 44.7188
Q48 40.375 41.7031 38.8125
Q48.8281 37.1562 52.7969 32.3125
Q56.7812 27.4844 56.7812 20.5156
Q56.7812 9.90625 50.3125 4.23438
Q43.8438 -1.42188 31.7812 -1.42188
Q19.7344 -1.42188 13.25 4.23438
Q6.78125 9.90625 6.78125 20.5156
Q6.78125 27.4844 10.7812 32.3125
Q14.7969 37.1562 21.9219 38.8125
M18.3125 54.3906
Q18.3125 48.7344 21.8438 45.5625
Q25.3906 42.3906 31.7812 42.3906
Q38.1406 42.3906 41.7188 45.5625
Q45.3125 48.7344 45.3125 54.3906
Q45.3125 60.0625 41.7188 63.2344
Q38.1406 66.4062 31.7812 66.4062
Q25.3906 66.4062 21.8438 63.2344
Q18.3125 60.0625 18.3125 54.3906" id="DejaVuSans-38"/>
      </defs>
      <g transform="translate(278.295593655 381.859875)scale(0.12 -0.12)">
       <use xlink:href="#DejaVuSans-38"/>
       <use x="63.623046875" xlink:href="#DejaVuSans-30"/>
       <use x="127.24609375" xlink:href="#DejaVuSans-30"/>
      </g>
     </g>
    </g>
    <g id="xtick_6">
     <g id="line2d_27">
      <g>
       <use style="stroke:#000000;stroke-width:0.5;" x="356.784726444" xlink:href="#mc7db9fdffb" y="368.74175"/>
      </g>
     </g>
     <g id="line2d_28">
      <g>
       <use style="stroke:#000000;stroke-width:0.5;" x="356.784726444" xlink:href="#m5a7d422ac3" y="23.14175"/>
      </g>
     </g>
     <g id="text_6">
      <!-- 1000 -->
      <defs>
       <path d="
M12.4062 8.29688
L28.5156 8.29688
L28.5156 63.9219
L10.9844 60.4062
L10.9844 69.3906
L28.4219 72.9062
L38.2812 72.9062
L38.2812 8.29688
L54.3906 8.29688
L54.3906 0
L12.4062 0
z
" id="DejaVuSans-31"/>
      </defs>
      <g transform="translate(342.572226444 381.859875)scale(0.12 -0.12)">
       <use xlink:href="#DejaVuSans-31"/>
       <use x="63.623046875" xlink:href="#DejaVuSans-30"/>
       <use x="127.24609375" xlink:href="#DejaVuSans-30"/>
       <use x="190.869140625" xlink:href="#DejaVuSans-30"/>
      </g>
     </g>
    </g>
    <g id="xtick_7">
     <g id="line2d_29">
      <g>
       <use style="stroke:#000000;stroke-width:0.5;" x="424.626671733" xlink:href="#mc7db9fdffb" y="368.74175"/>
      </g>
     </g>
     <g id="line2d_30">
      <g>
       <use style="stroke:#000000;stroke-width:0.5;" x="424.626671733" xlink:href="#m5a7d422ac3" y="23.14175"/>
      </g>
     </g>
     <g id="text_7">
      <!-- 1200 -->
      <g transform="translate(410.414171733 381.859875)scale(0.12 -0.12)">
       <use xlink:href="#DejaVuSans-31"/>
       <use x="63.623046875" xlink:href="#DejaVuSans-32"/>
       <use x="127.24609375" xlink:href="#DejaVuSans-30"/>
       <use x="190.869140625" xlink:href="#DejaVuSans-30"/>
      </g>
     </g>
    </g>
    <g id="text_8">
     <!-- time -->
     <defs>
      <path d="
M9.42188 54.6875
L18.4062 54.6875
L18.4062 0
L9.42188 0
z

M9.42188 75.9844
L18.4062 75.9844
L18.4062 64.5938
L9.42188 64.5938
z
" id="DejaVuSans-69"/>
      <path d="
M18.3125 70.2188
L18.3125 54.6875
L36.8125 54.6875
L36.8125 47.7031
L18.3125 47.7031
L18.3125 18.0156
Q18.3125 11.3281 20.1406 9.42188
Q21.9688 7.51562 27.5938 7.51562
L36.8125 7.51562
L36.8125 0
L27.5938 0
Q17.1875 0 13.2344 3.875
Q9.28125 7.76562 9.28125 18.0156
L9.28125 47.7031
L2.6875 47.7031
L2.6875 54.6875
L9.28125 54.6875
L9.28125 70.2188
z
" id="DejaVuSans-74"/>
      <path d="
M52 44.1875
Q55.375 50.25 60.0625 53.125
Q64.75 56 71.0938 56
Q79.6406 56 84.2812 50.0156
Q88.9219 44.0469 88.9219 33.0156
L88.9219 0
L79.8906 0
L79.8906 32.7188
Q79.8906 40.5781 77.0938 44.375
Q74.3125 48.1875 68.6094 48.1875
Q61.625 48.1875 57.5625 43.5469
Q53.5156 38.9219 53.5156 30.9062
L53.5156 0
L44.4844 0
L44.4844 32.7188
Q44.4844 40.625 41.7031 44.4062
Q38.9219 48.1875 33.1094 48.1875
Q26.2188 48.1875 22.1562 43.5312
Q18.1094 38.875 18.1094 30.9062
L18.1094 0
L9.07812 0
L9.07812 54.6875
L18.1094 54.6875
L18.1094 46.1875
Q21.1875 51.2188 25.4844 53.6094
Q29.7812 56 35.6875 56
Q41.6562 56 45.8281 52.9688
Q50 49.9531 52 44.1875" id="DejaVuSans-6d"/>
      <path d="
M56.2031 29.5938
L56.2031 25.2031
L14.8906 25.2031
Q15.4844 15.9219 20.4844 11.0625
Q25.4844 6.20312 34.4219 6.20312
Q39.5938 6.20312 44.4531 7.46875
Q49.3125 8.73438 54.1094 11.2812
L54.1094 2.78125
Q49.2656 0.734375 44.1875 -0.34375
Q39.1094 -1.42188 33.8906 -1.42188
Q20.7969 -1.42188 13.1562 6.1875
Q5.51562 13.8125 5.51562 26.8125
Q5.51562 40.2344 12.7656 48.1094
Q20.0156 56 32.3281 56
Q43.3594 56 49.7812 48.8906
Q56.2031 41.7969 56.2031 29.5938
M47.2188 32.2344
Q47.125 39.5938 43.0938 43.9844
Q39.0625 48.3906 32.4219 48.3906
Q24.9062 48.3906 20.3906 44.1406
Q15.875 39.8906 15.1875 32.1719
z
" id="DejaVuSans-65"/>
     </defs>
     <g transform="translate(227.700625 398.473625)scale(0.12 -0.12)">
      <use xlink:href="#DejaVuSans-74"/>
      <use x="39.208984375" xlink:href="#DejaVuSans-69"/>
      <use x="66.9921875" xlink:href="#DejaVuSans-6d"/>
      <use x="164.404296875" xlink:href="#DejaVuSans-65"/>
     </g>
    </g>
   </g>
   <g id="matplotlib.axis_2">
    <g id="ytick_1">
     <g id="line2d_31">
      <defs>
       <path d="
M0 0
L4 0" id="md7965d1ba0" style="stroke:#000000;stroke-width:0.5;"/>
      </defs>
      <g>
       <use style="stroke:#000000;stroke-width:0.5;" x="17.575" xlink:href="#md7965d1ba0" y="368.74175"/>
      </g>
     </g>
     <g id="line2d_32">
      <defs>
       <path d="
M0 0
L-4 0" id="md9a1c1a7cd" style="stroke:#000000;stroke-width:0.5;"/>
      </defs>
      <g>
       <use style="stroke:#000000;stroke-width:0.5;" x="463.975" xlink:href="#md9a1c1a7cd" y="368.74175"/>
      </g>
     </g>
     <g id="text_9">
      <!-- 0 -->
      <g transform="translate(7.528125 372.053)scale(0.12 -0.12)">
       <use xlink:href="#DejaVuSans-30"/>
      </g>
     </g>
    </g>
    <g id="ytick_2">
     <g id="line2d_33">
      <g>
       <use style="stroke:#000000;stroke-width:0.5;" x="17.575" xlink:href="#md7965d1ba0" y="299.62175"/>
      </g>
     </g>
     <g id="line2d_34">
      <g>
       <use style="stroke:#000000;stroke-width:0.5;" x="463.975" xlink:href="#md9a1c1a7cd" y="299.62175"/>
      </g>
     </g>
     <g id="text_10">
      <!-- 1 -->
      <g transform="translate(8.36625 302.933)scale(0.12 -0.12)">
       <use xlink:href="#DejaVuSans-31"/>
      </g>
     </g>
    </g>
    <g id="ytick_3">
     <g id="line2d_35">
      <g>
       <use style="stroke:#000000;stroke-width:0.5;" x="17.575" xlink:href="#md7965d1ba0" y="230.50175"/>
      </g>
     </g>
     <g id="line2d_36">
      <g>
       <use style="stroke:#000000;stroke-width:0.5;" x="463.975" xlink:href="#md9a1c1a7cd" y="230.50175"/>
      </g>
     </g>
     <g id="text_11">
      <!-- 2 -->
      <g transform="translate(8.02125 233.813)scale(0.12 -0.12)">
       <use xlink:href="#DejaVuSans-32"/>
      </g>
     </g>
    </g>
    <g id="ytick_4">
     <g id="line2d_37">
      <g>
       <use style="stroke:#000000;stroke-width:0.5;" x="17.575" xlink:href="#md7965d1ba0" y="161.38175"/>
      </g>
     </g>
     <g id="line2d_38">
      <g>
       <use style="stroke:#000000;stroke-width:0.5;" x="463.975" xlink:href="#md9a1c1a7cd" y="161.38175"/>
      </g>
     </g>
     <g id="text_12">
      <!-- 3 -->
      <defs>
       <path d="
M40.5781 39.3125
Q47.6562 37.7969 51.625 33
Q55.6094 28.2188 55.6094 21.1875
Q55.6094 10.4062 48.1875 4.48438
Q40.7656 -1.42188 27.0938 -1.42188
Q22.5156 -1.42188 17.6562 -0.515625
Q12.7969 0.390625 7.625 2.20312
L7.625 11.7188
Q11.7188 9.32812 16.5938 8.10938
Q21.4844 6.89062 26.8125 6.89062
Q36.0781 6.89062 40.9375 10.5469
Q45.7969 14.2031 45.7969 21.1875
Q45.7969 27.6406 41.2812 31.2656
Q36.7656 34.9062 28.7188 34.9062
L20.2188 34.9062
L20.2188 43.0156
L29.1094 43.0156
Q36.375 43.0156 40.2344 45.9219
Q44.0938 48.8281 44.0938 54.2969
Q44.0938 59.9062 40.1094 62.9062
Q36.1406 65.9219 28.7188 65.9219
Q24.6562 65.9219 20.0156 65.0312
Q15.375 64.1562 9.8125 62.3125
L9.8125 71.0938
Q15.4375 72.6562 20.3438 73.4375
Q25.25 74.2188 29.5938 74.2188
Q40.8281 74.2188 47.3594 69.1094
Q53.9062 64.0156 53.9062 55.3281
Q53.9062 49.2656 50.4375 45.0938
Q46.9688 40.9219 40.5781 39.3125" id="DejaVuSans-33"/>
      </defs>
      <g transform="translate(7.816875 164.693)scale(0.12 -0.12)">
       <use xlink:href="#DejaVuSans-33"/>
      </g>
     </g>
    </g>
    <g id="ytick_5">
     <g id="line2d_39">
      <g>
       <use style="stroke:#000000;stroke-width:0.5;" x="17.575" xlink:href="#md7965d1ba0" y="92.26175"/>
      </g>
     </g>
     <g id="line2d_40">
      <g>
       <use style="stroke:#000000;stroke-width:0.5;" x="463.975" xlink:href="#md9a1c1a7cd" y="92.26175"/>
      </g>
     </g>
     <g id="text_13">
      <!-- 4 -->
      <g transform="translate(7.2 95.573)scale(0.12 -0.12)">
       <use xlink:href="#DejaVuSans-34"/>
      </g>
     </g>
    </g>
    <g id="ytick_6">
     <g id="line2d_41">
      <g>
       <use style="stroke:#000000;stroke-width:0.5;" x="17.575" xlink:href="#md7965d1ba0" y="23.14175"/>
      </g>
     </g>
     <g id="line2d_42">
      <g>
       <use style="stroke:#000000;stroke-width:0.5;" x="463.975" xlink:href="#md9a1c1a7cd" y="23.14175"/>
      </g>
     </g>
     <g id="text_14">
      <!-- 5 -->
      <defs>
       <path d="
M10.7969 72.9062
L49.5156 72.9062
L49.5156 64.5938
L19.8281 64.5938
L19.8281 46.7344
Q21.9688 47.4688 24.1094 47.8281
Q26.2656 48.1875 28.4219 48.1875
Q40.625 48.1875 47.75 41.5
Q54.8906 34.8125 54.8906 23.3906
Q54.8906 11.625 47.5625 5.09375
Q40.2344 -1.42188 26.9062 -1.42188
Q22.3125 -1.42188 17.5469 -0.640625
Q12.7969 0.140625 7.71875 1.70312
L7.71875 11.625
Q12.1094 9.23438 16.7969 8.0625
Q21.4844 6.89062 26.7031 6.89062
Q35.1562 6.89062 40.0781 11.3281
Q45.0156 15.7656 45.0156 23.3906
Q45.0156 31 40.0781 35.4375
Q35.1562 39.8906 26.7031 39.8906
Q22.75 39.8906 18.8125 39.0156
Q14.8906 38.1406 10.7969 36.2812
z
" id="DejaVuSans-35"/>
      </defs>
      <g transform="translate(7.914375 26.453)scale(0.12 -0.12)">
       <use xlink:href="#DejaVuSans-35"/>
      </g>
     </g>
    </g>
    <g id="text_15">
     <!-- 1e7 -->
     <defs>
      <path d="
M8.20312 72.9062
L55.0781 72.9062
L55.0781 68.7031
L28.6094 0
L18.3125 0
L43.2188 64.5938
L8.20312 64.5938
z
" id="DejaVuSans-37"/>
     </defs>
     <g transform="translate(17.575 20.14175)scale(0.12 -0.12)">
      <use xlink:href="#DejaVuSans-31"/>
      <use x="63.623046875" xlink:href="#DejaVuSans-65"/>
      <use x="125.146484375" xlink:href="#DejaVuSans-37"/>
     </g>
    </g>
   </g>
   <g id="text_16">
    <!-- /parcelport/count/mpi/cache-hits -->
    <defs>
     <path d="
M54.8906 33.0156
L54.8906 0
L45.9062 0
L45.9062 32.7188
Q45.9062 40.4844 42.875 44.3281
Q39.8438 48.1875 33.7969 48.1875
Q26.5156 48.1875 22.3125 43.5469
Q18.1094 38.9219 18.1094 30.9062
L18.1094 0
L9.07812 0
L9.07812 54.6875
L18.1094 54.6875
L18.1094 46.1875
Q21.3438 51.125 25.7031 53.5625
Q30.0781 56 35.7969 56
Q45.2188 56 50.0469 50.1719
Q54.8906 44.3438 54.8906 33.0156" id="DejaVuSans-6e"/>
     <path d="
M18.1094 8.20312
L18.1094 -20.7969
L9.07812 -20.7969
L9.07812 54.6875
L18.1094 54.6875
L18.1094 46.3906
Q20.9531 51.2656 25.2656 53.625
Q29.5938 56 35.5938 56
Q45.5625 56 51.7812 48.0938
Q58.0156 40.1875 58.0156 27.2969
Q58.0156 14.4062 51.7812 6.48438
Q45.5625 -1.42188 35.5938 -1.42188
Q29.5938 -1.42188 25.2656 0.953125
Q20.9531 3.32812 18.1094 8.20312
M48.6875 27.2969
Q48.6875 37.2031 44.6094 42.8438
Q40.5312 48.4844 33.4062 48.4844
Q26.2656 48.4844 22.1875 42.8438
Q18.1094 37.2031 18.1094 27.2969
Q18.1094 17.3906 22.1875 11.75
Q26.2656 6.10938 33.4062 6.10938
Q40.5312 6.10938 44.6094 11.75
Q48.6875 17.3906 48.6875 27.2969" id="DejaVuSans-70"/>
     <path d="
M41.1094 46.2969
Q39.5938 47.1719 37.8125 47.5781
Q36.0312 48 33.8906 48
Q26.2656 48 22.1875 43.0469
Q18.1094 38.0938 18.1094 28.8125
L18.1094 0
L9.07812 0
L9.07812 54.6875
L18.1094 54.6875
L18.1094 46.1875
Q20.9531 51.1719 25.4844 53.5781
Q30.0312 56 36.5312 56
Q37.4531 56 38.5781 55.875
Q39.7031 55.7656 41.0625 55.5156
z
" id="DejaVuSans-72"/>
     <path d="
M34.2812 27.4844
Q23.3906 27.4844 19.1875 25
Q14.9844 22.5156 14.9844 16.5
Q14.9844 11.7188 18.1406 8.90625
Q21.2969 6.10938 26.7031 6.10938
Q34.1875 6.10938 38.7031 11.4062
Q43.2188 16.7031 43.2188 25.4844
L43.2188 27.4844
z

M52.2031 31.2031
L52.2031 0
L43.2188 0
L43.2188 8.29688
Q40.1406 3.32812 35.5469 0.953125
Q30.9531 -1.42188 24.3125 -1.42188
Q15.9219 -1.42188 10.9531 3.29688
Q6 8.01562 6 15.9219
Q6 25.1406 12.1719 29.8281
Q18.3594 34.5156 30.6094 34.5156
L43.2188 34.5156
L43.2188 35.4062
Q43.2188 41.6094 39.1406 45
Q35.0625 48.3906 27.6875 48.3906
Q23 48.3906 18.5469 47.2656
Q14.1094 46.1406 10.0156 43.8906
L10.0156 52.2031
Q14.9375 54.1094 19.5781 55.0469
Q24.2188 56 28.6094 56
Q40.4844 56 46.3438 49.8438
Q52.2031 43.7031 52.2031 31.2031" id="DejaVuSans-61"/>
     <path d="
M48.7812 52.5938
L48.7812 44.1875
Q44.9688 46.2969 41.1406 47.3438
Q37.3125 48.3906 33.4062 48.3906
Q24.6562 48.3906 19.8125 42.8438
Q14.9844 37.3125 14.9844 27.2969
Q14.9844 17.2812 19.8125 11.7344
Q24.6562 6.20312 33.4062 6.20312
Q37.3125 6.20312 41.1406 7.25
Q44.9688 8.29688 48.7812 10.4062
L48.7812 2.09375
Q45.0156 0.34375 40.9844 -0.53125
Q36.9688 -1.42188 32.4219 -1.42188
Q20.0625 -1.42188 12.7812 6.34375
Q5.51562 14.1094 5.51562 27.2969
Q5.51562 40.6719 12.8594 48.3281
Q20.2188 56 33.0156 56
Q37.1562 56 41.1094 55.1406
Q45.0625 54.2969 48.7812 52.5938" id="DejaVuSans-63"/>
     <path d="
M9.42188 75.9844
L18.4062 75.9844
L18.4062 0
L9.42188 0
z
" id="DejaVuSans-6c"/>
     <path d="
M25.3906 72.9062
L33.6875 72.9062
L8.29688 -9.28125
L0 -9.28125
z
" id="DejaVuSans-2f"/>
     <path d="
M44.2812 53.0781
L44.2812 44.5781
Q40.4844 46.5312 36.375 47.5
Q32.2812 48.4844 27.875 48.4844
Q21.1875 48.4844 17.8438 46.4375
Q14.5 44.3906 14.5 40.2812
Q14.5 37.1562 16.8906 35.375
Q19.2812 33.5938 26.5156 31.9844
L29.5938 31.2969
Q39.1562 29.25 43.1875 25.5156
Q47.2188 21.7812 47.2188 15.0938
Q47.2188 7.46875 41.1875 3.01562
Q35.1562 -1.42188 24.6094 -1.42188
Q20.2188 -1.42188 15.4531 -0.5625
Q10.6875 0.296875 5.42188 2
L5.42188 11.2812
Q10.4062 8.6875 15.2344 7.39062
Q20.0625 6.10938 24.8125 6.10938
Q31.1562 6.10938 34.5625 8.28125
Q37.9844 10.4531 37.9844 14.4062
Q37.9844 18.0625 35.5156 20.0156
Q33.0625 21.9688 24.7031 23.7812
L21.5781 24.5156
Q13.2344 26.2656 9.51562 29.9062
Q5.8125 33.5469 5.8125 39.8906
Q5.8125 47.6094 11.2812 51.7969
Q16.75 56 26.8125 56
Q31.7812 56 36.1719 55.2656
Q40.5781 54.5469 44.2812 53.0781" id="DejaVuSans-73"/>
     <path d="
M4.89062 31.3906
L31.2031 31.3906
L31.2031 23.3906
L4.89062 23.3906
z
" id="DejaVuSans-2d"/>
     <path d="
M30.6094 48.3906
Q23.3906 48.3906 19.1875 42.75
Q14.9844 37.1094 14.9844 27.2969
Q14.9844 17.4844 19.1562 11.8438
Q23.3438 6.20312 30.6094 6.20312
Q37.7969 6.20312 41.9844 11.8594
Q46.1875 17.5312 46.1875 27.2969
Q46.1875 37.0156 41.9844 42.7031
Q37.7969 48.3906 30.6094 48.3906
M30.6094 56
Q42.3281 56 49.0156 48.375
Q55.7188 40.7656 55.7188 27.2969
Q55.7188 13.875 49.0156 6.21875
Q42.3281 -1.42188 30.6094 -1.42188
Q18.8438 -1.42188 12.1719 6.21875
Q5.51562 13.875 5.51562 27.2969
Q5.51562 40.7656 12.1719 48.375
Q18.8438 56 30.6094 56" id="DejaVuSans-6f"/>
     <path d="
M8.5 21.5781
L8.5 54.6875
L17.4844 54.6875
L17.4844 21.9219
Q17.4844 14.1562 20.5 10.2656
Q23.5312 6.39062 29.5938 6.39062
Q36.8594 6.39062 41.0781 11.0312
Q45.3125 15.6719 45.3125 23.6875
L45.3125 54.6875
L54.2969 54.6875
L54.2969 0
L45.3125 0
L45.3125 8.40625
Q42.0469 3.42188 37.7188 1
Q33.4062 -1.42188 27.6875 -1.42188
Q18.2656 -1.42188 13.375 4.4375
Q8.5 10.2969 8.5 21.5781
M31.1094 56
z
" id="DejaVuSans-75"/>
     <path d="
M54.8906 33.0156
L54.8906 0
L45.9062 0
L45.9062 32.7188
Q45.9062 40.4844 42.875 44.3281
Q39.8438 48.1875 33.7969 48.1875
Q26.5156 48.1875 22.3125 43.5469
Q18.1094 38.9219 18.1094 30.9062
L18.1094 0
L9.07812 0
L9.07812 75.9844
L18.1094 75.9844
L18.1094 46.1875
Q21.3438 51.125 25.7031 53.5625
Q30.0781 56 35.7969 56
Q45.2188 56 50.0469 50.1719
Q54.8906 44.3438 54.8906 33.0156" id="DejaVuSans-68"/>
    </defs>
    <g transform="translate(123.539875 18.14175)scale(0.144 -0.144)">
     <use xlink:href="#DejaVuSans-2f"/>
     <use x="33.69140625" xlink:href="#DejaVuSans-70"/>
     <use x="97.16796875" xlink:href="#DejaVuSans-61"/>
     <use x="158.447265625" xlink:href="#DejaVuSans-72"/>
     <use x="197.310546875" xlink:href="#DejaVuSans-63"/>
     <use x="252.291015625" xlink:href="#DejaVuSans-65"/>
     <use x="313.814453125" xlink:href="#DejaVuSans-6c"/>
     <use x="341.59765625" xlink:href="#DejaVuSans-70"/>
     <use x="405.07421875" xlink:href="#DejaVuSans-6f"/>
     <use x="466.255859375" xlink:href="#DejaVuSans-72"/>
     <use x="507.369140625" xlink:href="#DejaVuSans-74"/>
     <use x="546.578125" xlink:href="#DejaVuSans-2f"/>
     <use x="580.26953125" xlink:href="#DejaVuSans-63"/>
     <use x="635.25" xlink:href="#DejaVuSans-6f"/>
     <use x="696.431640625" xlink:href="#DejaVuSans-75"/>
     <use x="759.810546875" xlink:href="#DejaVuSans-6e"/>
     <use x="823.189453125" xlink:href="#DejaVuSans-74"/>
     <use x="862.3984375" xlink:href="#DejaVuSans-2f"/>
     <use x="896.08984375" xlink:href="#DejaVuSans-6d"/>
     <use x="993.501953125" xlink:href="#DejaVuSans-70"/>
     <use x="1056.978515625" xlink:href="#DejaVuSans-69"/>
     <use x="1084.76171875" xlink:href="#DejaVuSans-2f"/>
     <use x="1118.453125" xlink:href="#DejaVuSans-63"/>
     <use x="1173.43359375" xlink:href="#DejaVuSans-61"/>
     <use x="1234.712890625" xlink:href="#DejaVuSans-63"/>
     <use x="1289.693359375" xlink:href="#DejaVuSans-68"/>
     <use x="1353.072265625" xlink:href="#DejaVuSans-65"/>
     <use x="1414.595703125" xlink:href="#DejaVuSans-2d"/>
     <use x="1450.6796875" xlink:href="#DejaVuSans-68"/>
     <use x="1514.05859375" xlink:href="#DejaVuSans-69"/>
     <use x="1541.841796875" xlink:href="#DejaVuSans-74"/>
     <use x="1581.05078125" xlink:href="#DejaVuSans-73"/>
    </g>
   </g>
   <g id="legend_1">
    <g id="patch_7">
     <path d="
M471.175 367.194
L602.964 367.194
L602.964 24.6897
L471.175 24.6897
z
" style="fill:#ffffff;stroke:#000000;stroke-linejoin:miter;"/>
    </g>
    <g id="line2d_43">
     <path d="
M481.255 36.3515
L501.415 36.3515" style="fill:none;stroke:#0000ff;stroke-linecap:square;"/>
    </g>
    <g id="line2d_44"/>
    <g id="text_17">
     <!-- locality#0 -->
     <defs>
      <path d="
M51.125 44
L36.9219 44
L32.8125 27.6875
L47.125 27.6875
z

M43.7969 71.7812
L38.7188 51.5156
L52.9844 51.5156
L58.1094 71.7812
L65.9219 71.7812
L60.8906 51.5156
L76.125 51.5156
L76.125 44
L58.9844 44
L54.9844 27.6875
L70.5156 27.6875
L70.5156 20.2188
L53.0781 20.2188
L48 0
L40.1875 0
L45.2188 20.2188
L30.9062 20.2188
L25.875 0
L18.0156 0
L23.0938 20.2188
L7.71875 20.2188
L7.71875 27.6875
L24.9062 27.6875
L29 44
L13.2812 44
L13.2812 51.5156
L30.9062 51.5156
L35.8906 71.7812
z
" id="DejaVuSans-23"/>
      <path d="
M32.1719 -5.07812
Q28.375 -14.8438 24.75 -17.8125
Q21.1406 -20.7969 15.0938 -20.7969
L7.90625 -20.7969
L7.90625 -13.2812
L13.1875 -13.2812
Q16.8906 -13.2812 18.9375 -11.5156
Q21 -9.76562 23.4844 -3.21875
L25.0938 0.875
L2.98438 54.6875
L12.5 54.6875
L29.5938 11.9219
L46.6875 54.6875
L56.2031 54.6875
z
" id="DejaVuSans-79"/>
     </defs>
     <g transform="translate(517.255 41.3915)scale(0.144 -0.144)">
      <use xlink:href="#DejaVuSans-6c"/>
      <use x="27.783203125" xlink:href="#DejaVuSans-6f"/>
      <use x="88.96484375" xlink:href="#DejaVuSans-63"/>
      <use x="143.9453125" xlink:href="#DejaVuSans-61"/>
      <use x="205.224609375" xlink:href="#DejaVuSans-6c"/>
      <use x="233.0078125" xlink:href="#DejaVuSans-69"/>
      <use x="260.791015625" xlink:href="#DejaVuSans-74"/>
      <use x="300.0" xlink:href="#DejaVuSans-79"/>
      <use x="359.1796875" xlink:href="#DejaVuSans-23"/>
      <use x="442.96875" xlink:href="#DejaVuSans-30"/>
     </g>
    </g>
    <g id="line2d_45">
     <path d="
M481.255 57.488
L501.415 57.488" style="fill:none;stroke:#008000;stroke-linecap:square;"/>
    </g>
    <g id="line2d_46"/>
    <g id="text_18">
     <!-- locality#1 -->
     <g transform="translate(517.255 62.528)scale(0.144 -0.144)">
      <use xlink:href="#DejaVuSans-6c"/>
      <use x="27.783203125" xlink:href="#DejaVuSans-6f"/>
      <use x="88.96484375" xlink:href="#DejaVuSans-63"/>
      <use x="143.9453125" xlink:href="#DejaVuSans-61"/>
      <use x="205.224609375" xlink:href="#DejaVuSans-6c"/>
      <use x="233.0078125" xlink:href="#DejaVuSans-69"/>
      <use x="260.791015625" xlink:href="#DejaVuSans-74"/>
      <use x="300.0" xlink:href="#DejaVuSans-79"/>
      <use x="359.1796875" xlink:href="#DejaVuSans-23"/>
      <use x="442.96875" xlink:href="#DejaVuSans-31"/>
     </g>
    </g>
    <g id="line2d_47">
     <path d="
M481.255 78.6245
L501.415 78.6245" style="fill:none;stroke:#ff0000;stroke-linecap:square;"/>
    </g>
    <g id="line2d_48"/>
    <g id="text_19">
     <!-- locality#10 -->
     <g transform="translate(517.255 83.6645)scale(0.144 -0.144)">
      <use xlink:href="#DejaVuSans-6c"/>
      <use x="27.783203125" xlink:href="#DejaVuSans-6f"/>
      <use x="88.96484375" xlink:href="#DejaVuSans-63"/>
      <use x="143.9453125" xlink:href="#DejaVuSans-61"/>
      <use x="205.224609375" xlink:href="#DejaVuSans-6c"/>
      <use x="233.0078125" xlink:href="#DejaVuSans-69"/>
      <use x="260.791015625" xlink:href="#DejaVuSans-74"/>
      <use x="300.0" xlink:href="#DejaVuSans-79"/>
      <use x="359.1796875" xlink:href="#DejaVuSans-23"/>
      <use x="442.96875" xlink:href="#DejaVuSans-31"/>
      <use x="506.591796875" xlink:href="#DejaVuSans-30"/>
     </g>
    </g>
    <g id="line2d_49">
     <path d="
M481.255 99.761
L501.415 99.761" style="fill:none;stroke:#00bfbf;stroke-linecap:square;"/>
    </g>
    <g id="line2d_50"/>
    <g id="text_20">
     <!-- locality#11 -->
     <g transform="translate(517.255 104.801)scale(0.144 -0.144)">
      <use xlink:href="#DejaVuSans-6c"/>
      <use x="27.783203125" xlink:href="#DejaVuSans-6f"/>
      <use x="88.96484375" xlink:href="#DejaVuSans-63"/>
      <use x="143.9453125" xlink:href="#DejaVuSans-61"/>
      <use x="205.224609375" xlink:href="#DejaVuSans-6c"/>
      <use x="233.0078125" xlink:href="#DejaVuSans-69"/>
      <use x="260.791015625" xlink:href="#DejaVuSans-74"/>
      <use x="300.0" xlink:href="#DejaVuSans-79"/>
      <use x="359.1796875" xlink:href="#DejaVuSans-23"/>
      <use x="442.96875" xlink:href="#DejaVuSans-31"/>
      <use x="506.591796875" xlink:href="#DejaVuSans-31"/>
     </g>
    </g>
    <g id="line2d_51">
     <path d="
M481.255 120.897
L501.415 120.897" style="fill:none;stroke:#bf00bf;stroke-linecap:square;"/>
    </g>
    <g id="line2d_52"/>
    <g id="text_21">
     <!-- locality#12 -->
     <g transform="translate(517.255 125.9375)scale(0.144 -0.144)">
      <use xlink:href="#DejaVuSans-6c"/>
      <use x="27.783203125" xlink:href="#DejaVuSans-6f"/>
      <use x="88.96484375" xlink:href="#DejaVuSans-63"/>
      <use x="143.9453125" xlink:href="#DejaVuSans-61"/>
      <use x="205.224609375" xlink:href="#DejaVuSans-6c"/>
      <use x="233.0078125" xlink:href="#DejaVuSans-69"/>
      <use x="260.791015625" xlink:href="#DejaVuSans-74"/>
      <use x="300.0" xlink:href="#DejaVuSans-79"/>
      <use x="359.1796875" xlink:href="#DejaVuSans-23"/>
      <use x="442.96875" xlink:href="#DejaVuSans-31"/>
      <use x="506.591796875" xlink:href="#DejaVuSans-32"/>
     </g>
    </g>
    <g id="line2d_53">
     <path d="
M481.255 142.034
L501.415 142.034" style="fill:none;stroke:#bfbf00;stroke-linecap:square;"/>
    </g>
    <g id="line2d_54"/>
    <g id="text_22">
     <!-- locality#13 -->
     <g transform="translate(517.255 147.074)scale(0.144 -0.144)">
      <use xlink:href="#DejaVuSans-6c"/>
      <use x="27.783203125" xlink:href="#DejaVuSans-6f"/>
      <use x="88.96484375" xlink:href="#DejaVuSans-63"/>
      <use x="143.9453125" xlink:href="#DejaVuSans-61"/>
      <use x="205.224609375" xlink:href="#DejaVuSans-6c"/>
      <use x="233.0078125" xlink:href="#DejaVuSans-69"/>
      <use x="260.791015625" xlink:href="#DejaVuSans-74"/>
      <use x="300.0" xlink:href="#DejaVuSans-79"/>
      <use x="359.1796875" xlink:href="#DejaVuSans-23"/>
      <use x="442.96875" xlink:href="#DejaVuSans-31"/>
      <use x="506.591796875" xlink:href="#DejaVuSans-33"/>
     </g>
    </g>
    <g id="line2d_55">
     <path d="
M481.255 163.17
L501.415 163.17" style="fill:none;stroke:#000000;stroke-linecap:square;"/>
    </g>
    <g id="line2d_56"/>
    <g id="text_23">
     <!-- locality#14 -->
     <g transform="translate(517.255 168.2105)scale(0.144 -0.144)">
      <use xlink:href="#DejaVuSans-6c"/>
      <use x="27.783203125" xlink:href="#DejaVuSans-6f"/>
      <use x="88.96484375" xlink:href="#DejaVuSans-63"/>
      <use x="143.9453125" xlink:href="#DejaVuSans-61"/>
      <use x="205.224609375" xlink:href="#DejaVuSans-6c"/>
      <use x="233.0078125" xlink:href="#DejaVuSans-69"/>
      <use x="260.791015625" xlink:href="#DejaVuSans-74"/>
      <use x="300.0" xlink:href="#DejaVuSans-79"/>
      <use x="359.1796875" xlink:href="#DejaVuSans-23"/>
      <use x="442.96875" xlink:href="#DejaVuSans-31"/>
      <use x="506.591796875" xlink:href="#DejaVuSans-34"/>
     </g>
    </g>
    <g id="line2d_57">
     <path d="
M481.255 184.307
L501.415 184.307" style="fill:none;stroke:#0000ff;stroke-linecap:square;"/>
    </g>
    <g id="line2d_58"/>
    <g id="text_24">
     <!-- locality#15 -->
     <g transform="translate(517.255 189.347)scale(0.144 -0.144)">
      <use xlink:href="#DejaVuSans-6c"/>
      <use x="27.783203125" xlink:href="#DejaVuSans-6f"/>
      <use x="88.96484375" xlink:href="#DejaVuSans-63"/>
      <use x="143.9453125" xlink:href="#DejaVuSans-61"/>
      <use x="205.224609375" xlink:href="#DejaVuSans-6c"/>
      <use x="233.0078125" xlink:href="#DejaVuSans-69"/>
      <use x="260.791015625" xlink:href="#DejaVuSans-74"/>
      <use x="300.0" xlink:href="#DejaVuSans-79"/>
      <use x="359.1796875" xlink:href="#DejaVuSans-23"/>
      <use x="442.96875" xlink:href="#DejaVuSans-31"/>
      <use x="506.591796875" xlink:href="#DejaVuSans-35"/>
     </g>
    </g>
    <g id="line2d_59">
     <path d="
M481.255 205.443
L501.415 205.443" style="fill:none;stroke:#008000;stroke-linecap:square;"/>
    </g>
    <g id="line2d_60"/>
    <g id="text_25">
     <!-- locality#2 -->
     <g transform="translate(517.255 210.4835)scale(0.144 -0.144)">
      <use xlink:href="#DejaVuSans-6c"/>
      <use x="27.783203125" xlink:href="#DejaVuSans-6f"/>
      <use x="88.96484375" xlink:href="#DejaVuSans-63"/>
      <use x="143.9453125" xlink:href="#DejaVuSans-61"/>
      <use x="205.224609375" xlink:href="#DejaVuSans-6c"/>
      <use x="233.0078125" xlink:href="#DejaVuSans-69"/>
      <use x="260.791015625" xlink:href="#DejaVuSans-74"/>
      <use x="300.0" xlink:href="#DejaVuSans-79"/>
      <use x="359.1796875" xlink:href="#DejaVuSans-23"/>
      <use x="442.96875" xlink:href="#DejaVuSans-32"/>
     </g>
    </g>
    <g id="line2d_61">
     <path d="
M481.255 226.58
L501.415 226.58" style="fill:none;stroke:#ff0000;stroke-linecap:square;"/>
    </g>
    <g id="line2d_62"/>
    <g id="text_26">
     <!-- locality#3 -->
     <g transform="translate(517.255 231.62)scale(0.144 -0.144)">
      <use xlink:href="#DejaVuSans-6c"/>
      <use x="27.783203125" xlink:href="#DejaVuSans-6f"/>
      <use x="88.96484375" xlink:href="#DejaVuSans-63"/>
      <use x="143.9453125" xlink:href="#DejaVuSans-61"/>
      <use x="205.224609375" xlink:href="#DejaVuSans-6c"/>
      <use x="233.0078125" xlink:href="#DejaVuSans-69"/>
      <use x="260.791015625" xlink:href="#DejaVuSans-74"/>
      <use x="300.0" xlink:href="#DejaVuSans-79"/>
      <use x="359.1796875" xlink:href="#DejaVuSans-23"/>
      <use x="442.96875" xlink:href="#DejaVuSans-33"/>
     </g>
    </g>
    <g id="line2d_63">
     <path d="
M481.255 247.716
L501.415 247.716" style="fill:none;stroke:#00bfbf;stroke-linecap:square;"/>
    </g>
    <g id="line2d_64"/>
    <g id="text_27">
     <!-- locality#4 -->
     <g transform="translate(517.255 252.7565)scale(0.144 -0.144)">
      <use xlink:href="#DejaVuSans-6c"/>
      <use x="27.783203125" xlink:href="#DejaVuSans-6f"/>
      <use x="88.96484375" xlink:href="#DejaVuSans-63"/>
      <use x="143.9453125" xlink:href="#DejaVuSans-61"/>
      <use x="205.224609375" xlink:href="#DejaVuSans-6c"/>
      <use x="233.0078125" xlink:href="#DejaVuSans-69"/>
      <use x="260.791015625" xlink:href="#DejaVuSans-74"/>
      <use x="300.0" xlink:href="#DejaVuSans-79"/>
      <use x="359.1796875" xlink:href="#DejaVuSans-23"/>
      <use x="442.96875" xlink:href="#DejaVuSans-34"/>
     </g>
    </g>
    <g id="line2d_65">
     <path d="
M481.255 268.853
L501.415 268.853" style="fill:none;stroke:#bf00bf;stroke-linecap:square;"/>
    </g>
    <g id="line2d_66"/>
    <g id="text_28">
     <!-- locality#5 -->
     <g transform="translate(517.255 273.893)scale(0.144 -0.144)">
      <use xlink:href="#DejaVuSans-6c"/>
      <use x="27.783203125" xlink:href="#DejaVuSans-6f"/>
      <use x="88.96484375" xlink:href="#DejaVuSans-63"/>
      <use x="143.9453125" xlink:href="#DejaVuSans-61"/>
      <use x="205.224609375" xlink:href="#DejaVuSans-6c"/>
      <use x="233.0078125" xlink:href="#DejaVuSans-69"/>
      <use x="260.791015625" xlink:href="#DejaVuSans-74"/>
      <use x="300.0" xlink:href="#DejaVuSans-79"/>
      <use x="359.1796875" xlink:href="#DejaVuSans-23"/>
      <use x="442.96875" xlink:href="#DejaVuSans-35"/>
     </g>
    </g>
    <g id="line2d_67">
     <path d="
M481.255 289.989
L501.415 289.989" style="fill:none;stroke:#bfbf00;stroke-linecap:square;"/>
    </g>
    <g id="line2d_68"/>
    <g id="text_29">
     <!-- locality#6 -->
     <g transform="translate(517.255 295.0295)scale(0.144 -0.144)">
      <use xlink:href="#DejaVuSans-6c"/>
      <use x="27.783203125" xlink:href="#DejaVuSans-6f"/>
      <use x="88.96484375" xlink:href="#DejaVuSans-63"/>
      <use x="143.9453125" xlink:href="#DejaVuSans-61"/>
      <use x="205.224609375" xlink:href="#DejaVuSans-6c"/>
      <use x="233.0078125" xlink:href="#DejaVuSans-69"/>
      <use x="260.791015625" xlink:href="#DejaVuSans-74"/>
      <use x="300.0" xlink:href="#DejaVuSans-79"/>
      <use x="359.1796875" xlink:href="#DejaVuSans-23"/>
      <use x="442.96875" xlink:href="#DejaVuSans-36"/>
     </g>
    </g>
    <g id="line2d_69">
     <path d="
M481.255 311.126
L501.415 311.126" style="fill:none;stroke:#000000;stroke-linecap:square;"/>
    </g>
    <g id="line2d_70"/>
    <g id="text_30">
     <!-- locality#7 -->
     <g transform="translate(517.255 316.166)scale(0.144 -0.144)">
      <use xlink:href="#DejaVuSans-6c"/>
      <use x="27.783203125" xlink:href="#DejaVuSans-6f"/>
      <use x="88.96484375" xlink:href="#DejaVuSans-63"/>
      <use x="143.9453125" xlink:href="#DejaVuSans-61"/>
      <use x="205.224609375" xlink:href="#DejaVuSans-6c"/>
      <use x="233.0078125" xlink:href="#DejaVuSans-69"/>
      <use x="260.791015625" xlink:href="#DejaVuSans-74"/>
      <use x="300.0" xlink:href="#DejaVuSans-79"/>
      <use x="359.1796875" xlink:href="#DejaVuSans-23"/>
      <use x="442.96875" xlink:href="#DejaVuSans-37"/>
     </g>
    </g>
    <g id="line2d_71">
     <path d="
M481.255 332.262
L501.415 332.262" style="fill:none;stroke:#0000ff;stroke-linecap:square;"/>
    </g>
    <g id="line2d_72"/>
    <g id="text_31">
     <!-- locality#8 -->
     <g transform="translate(517.255 337.3025)scale(0.144 -0.144)">
      <use xlink:href="#DejaVuSans-6c"/>
      <use x="27.783203125" xlink:href="#DejaVuSans-6f"/>
      <use x="88.96484375" xlink:href="#DejaVuSans-63"/>
      <use x="143.9453125" xlink:href="#DejaVuSans-61"/>
      <use x="205.224609375" xlink:href="#DejaVuSans-6c"/>
      <use x="233.0078125" xlink:href="#DejaVuSans-69"/>
      <use x="260.791015625" xlink:href="#DejaVuSans-74"/>
      <use x="300.0" xlink:href="#DejaVuSans-79"/>
      <use x="359.1796875" xlink:href="#DejaVuSans-23"/>
      <use x="442.96875" xlink:href="#DejaVuSans-38"/>
     </g>
    </g>
    <g id="line2d_73">
     <path d="
M481.255 353.399
L501.415 353.399" style="fill:none;stroke:#008000;stroke-linecap:square;"/>
    </g>
    <g id="line2d_74"/>
    <g id="text_32">
     <!-- locality#9 -->
     <defs>
      <path d="
M10.9844 1.51562
L10.9844 10.5
Q14.7031 8.73438 18.5 7.8125
Q22.3125 6.89062 25.9844 6.89062
Q35.75 6.89062 40.8906 13.4531
Q46.0469 20.0156 46.7812 33.4062
Q43.9531 29.2031 39.5938 26.9531
Q35.25 24.7031 29.9844 24.7031
Q19.0469 24.7031 12.6719 31.3125
Q6.29688 37.9375 6.29688 49.4219
Q6.29688 60.6406 12.9375 67.4219
Q19.5781 74.2188 30.6094 74.2188
Q43.2656 74.2188 49.9219 64.5156
Q56.5938 54.8281 56.5938 36.375
Q56.5938 19.1406 48.4062 8.85938
Q40.2344 -1.42188 26.4219 -1.42188
Q22.7031 -1.42188 18.8906 -0.6875
Q15.0938 0.046875 10.9844 1.51562
M30.6094 32.4219
Q37.25 32.4219 41.125 36.9531
Q45.0156 41.5 45.0156 49.4219
Q45.0156 57.2812 41.125 61.8438
Q37.25 66.4062 30.6094 66.4062
Q23.9688 66.4062 20.0938 61.8438
Q16.2188 57.2812 16.2188 49.4219
Q16.2188 41.5 20.0938 36.9531
Q23.9688 32.4219 30.6094 32.4219" id="DejaVuSans-39"/>
     </defs>
     <g transform="translate(517.255 358.439)scale(0.144 -0.144)">
      <use xlink:href="#DejaVuSans-6c"/>
      <use x="27.783203125" xlink:href="#DejaVuSans-6f"/>
      <use x="88.96484375" xlink:href="#DejaVuSans-63"/>
      <use x="143.9453125" xlink:href="#DejaVuSans-61"/>
      <use x="205.224609375" xlink:href="#DejaVuSans-6c"/>
      <use x="233.0078125" xlink:href="#DejaVuSans-69"/>
      <use x="260.791015625" xlink:href="#DejaVuSans-74"/>
      <use x="300.0" xlink:href="#DejaVuSans-79"/>
      <use x="359.1796875" xlink:href="#DejaVuSans-23"/>
      <use x="442.96875" xlink:href="#DejaVuSans-39"/>
     </g>
    </g>
   </g>
  </g>
 </g>
 <defs>
  <clipPath id="pf51f381abf">
   <rect height="345.6" width="446.4" x="17.575" y="23.14175"/>
  </clipPath>
 </defs>
</svg>
