<?xml version="1.0" encoding="utf-8" standalone="no"?>
<!DOCTYPE svg PUBLIC "-//W3C//DTD SVG 1.1//EN"
  "http://www.w3.org/Graphics/SVG/1.1/DTD/svg11.dtd">
<!-- Created with matplotlib (http://matplotlib.org/) -->
<svg height="408pt" version="1.1" viewBox="0 0 662 408" width="662pt" xmlns="http://www.w3.org/2000/svg" xmlns:xlink="http://www.w3.org/1999/xlink">
 <defs>
  <style type="text/css">
*{stroke-linecap:butt;stroke-linejoin:round;}
  </style>
 </defs>
 <g id="figure_1">
  <g id="patch_1">
   <path d="
M0 408.169
L662.888 408.169
L662.888 0
L0 0
z
" style="fill:#ffffff;"/>
  </g>
  <g id="axes_1">
   <g id="patch_2">
    <path d="
M70.299 368.742
L516.699 368.742
L516.699 23.1417
L70.299 23.1417
z
" style="fill:#ffffff;"/>
   </g>
   <g id="line2d_1">
    <path clip-path="url(#p020d36cde1)" d="
M70.299 162.611
L70.6385 295.014
L70.9779 53.1705
L71.3174 261.759
L71.6569 67.2249
L72.3358 242.713
L72.6753 62.5401
L73.0147 231.731
L73.3542 178.124
L73.6937 43.5705
L74.0331 185.881
L74.3726 242.943
L75.0515 72.0633
L75.391 242.867
L76.07 65.9193
L76.4094 252.236
L77.0884 62.4633
L77.4278 252.467
L78.1068 87.5001
L78.4462 132.505
L78.7857 156.083
L79.1252 253.772
L79.8041 52.9401
L80.483 249.702
L80.8225 157.465
L81.162 157.465
L81.5014 28.5945
L82.1804 290.175
L82.5198 34.4313
L82.8593 166.681
L83.1988 224.665
L83.5382 187.033
L83.8777 59.3145
L84.5566 250.47
L84.8961 64.3833
L85.2356 150.323
L85.575 174.207
L85.9145 138.726
L86.254 231.884
L86.5934 172.748
L86.9329 67.5321
L87.2724 287.948
L87.6119 83.8905
L87.9513 123.289
L88.2908 195.865
L88.6303 115.379
L88.9697 138.495
L89.3092 214.297
L89.6487 174.054
L89.9881 98.6361
L90.3276 275.66
L90.6671 71.3721
L91.346 150.399
L91.6855 173.977
L92.0249 280.959
L92.3644 24.6777
L92.7039 290.252
L93.0433 48.9465
L93.3828 189.875
L93.7223 105.779
L94.4012 209.996
L94.7407 104.857
L95.0801 204.62
L95.4196 127.436
L95.7591 149.631
L96.0985 240.255
L96.438 65.2281
L96.7775 230.579
L97.4564 82.9689
L97.7959 204.774
L98.1353 115.916
L98.4748 160.998
L98.8143 239.487
L99.1538 113.305
L99.4932 129.126
L99.8327 200.012
L100.172 163.609
L100.512 91.1097
L100.851 160.998
L101.191 156.543
L101.53 180.121
L101.869 130.892
L102.209 269.055
L102.548 44.8761
L102.888 168.678
L103.227 137.804
L103.567 231.193
L103.906 93.4137
L104.246 157.235
L104.585 167.142
L104.925 249.241
L105.264 107.775
L105.604 96.0249
L105.943 202.854
L106.283 104.396
L106.622 184.345
L106.962 178.585
L107.301 136.268
L107.64 193.254
L107.98 102.783
L108.319 174.131
L108.659 150.092
L108.998 224.588
L109.338 77.4393
L109.677 208.46
L110.017 215.603
L110.356 61.3881
L110.696 218.675
L111.035 141.337
L111.375 102.783
L112.054 256.921
L112.393 34.5849
L112.732 187.494
L113.072 237.107
L113.411 31.8969
L113.751 226.508
L114.43 83.5065
L114.769 180.044
L115.109 177.74
L115.448 140.492
L115.788 132.121
L116.127 192.409
L116.467 121.369
L116.806 183.961
L117.146 200.857
L117.485 96.7161
L117.824 218.291
L118.164 90.0345
L118.503 172.595
L118.843 184.575
L119.182 129.817
L119.522 160.691
L119.861 162.841
L120.201 146.867
L120.54 177.971
L120.88 138.803
L121.219 203.699
L121.559 140.799
L121.898 206.694
L122.238 78.6681
L122.577 265.523
L122.916 40.5753
L123.256 204.39
L123.595 121.523
L123.935 155.391
L124.274 157.388
L124.614 178.739
L124.953 208.844
L125.293 84.7353
L125.632 218.214
L125.972 82.4313
L126.311 202.547
L126.651 117.222
L126.99 204.774
L127.33 214.374
L127.669 54.7833
L128.009 238.873
L128.348 145.177
L128.687 86.8857
L129.366 248.703
L129.706 62.4633
L130.385 196.71
L130.724 122.291
L131.403 178.355
L131.743 145.791
L132.082 247.859
L132.761 70.9113
L133.101 213.145
L133.44 101.631
L133.779 218.521
L134.119 105.932
L134.458 199.551
L134.798 138.649
L135.137 142.259
L135.477 194.252
L135.816 111.001
L136.156 210.38
L136.495 94.7193
L136.835 175.82
L137.174 134.886
L137.514 167.065
L137.853 163.532
L138.193 256.383
L138.532 116.454
L138.871 90.0345
L139.211 215.142
L139.55 125.516
L139.89 131.737
L140.229 214.374
L140.569 148.249
L140.908 109.772
L141.248 209.535
L141.587 132.505
L141.927 187.263
L142.266 139.187
L142.606 165.452
L142.945 155.084
L143.285 155.315
L143.624 114.841
L143.963 186.572
L144.642 134.425
L144.982 265.062
L145.321 59.1609
L145.661 150.399
L146 197.401
L146.34 100.249
L146.679 172.518
L147.019 212.607
L147.358 89.7273
L147.698 179.583
L148.037 201.318
L148.716 92.7225
L149.056 173.132
L149.395 195.635
L149.734 126.207
L150.074 140.415
L150.413 170.598
L150.753 151.014
L151.092 141.414
L151.432 175.743
L151.771 145.177
L152.45 163.609
L152.79 196.095
L153.469 132.966
L153.808 139.801
L154.148 211.302
L154.487 122.675
L154.826 160.998
L155.166 121.062
L155.505 173.286
L155.845 272.895
L156.184 26.3673
L156.524 156.851
L156.863 188.953
L157.203 132.275
L157.542 167.526
L157.882 138.572
L158.221 185.651
L158.561 197.939
L158.9 98.0217
L159.24 189.875
L159.579 184.268
L159.918 107.852
L160.258 190.796
L160.597 159.769
L160.937 115.763
L161.276 156.313
L161.616 174.515
L161.955 207.462
L162.295 144.793
L162.634 146.79
L162.974 101.631
L163.313 169.753
L163.653 155.084
L163.992 180.275
L164.332 143.871
L164.671 184.652
L165.01 122.675
L165.689 191.027
L166.029 132.505
L166.368 159.615
L166.708 172.134
L167.047 136.115
L167.387 164.454
L167.726 182.886
L168.066 161.228
L168.405 158.771
L168.745 107.929
L169.084 166.604
L169.424 167.679
L169.763 193.254
L170.102 110.924
L170.442 167.526
L170.781 173.055
L171.121 194.79
L171.46 133.427
L171.8 125.977
L172.139 166.835
L172.479 167.142
L172.818 156.006
L173.158 160.998
L173.497 129.663
L174.176 229.119
L174.516 89.8041
L174.855 146.79
L175.195 157.926
L175.534 177.279
L175.873 178.278
L176.213 128.204
L176.552 127.667
L176.892 166.911
L177.571 163.455
L177.91 140.492
L178.589 186.649
L178.929 124.364
L179.268 164.915
L179.608 148.403
L179.947 159.001
L180.287 164.607
L180.626 200.473
L180.965 101.708
L181.305 163.148
L181.644 166.374
L181.984 166.143
L182.323 139.033
L182.663 151.244
L183.002 174.054
L183.342 154.7
L183.681 176.895
L184.021 184.959
L184.36 130.739
L184.7 178.047
L185.039 162.995
L185.379 133.503
L185.718 152.627
L186.057 163.148
L186.397 168.063
L186.736 121.523
L187.415 164.454
L187.755 181.887
L188.094 146.252
L188.434 148.863
L188.773 154.7
L189.113 166.604
L189.452 169.292
L189.792 135.5
L190.131 153.702
L190.471 158.847
L190.81 171.98
L191.149 155.468
L191.489 149.631
L191.828 152.934
L192.168 164.223
L192.507 168.831
L192.847 135.577
L193.186 177.433
L193.526 142.95
L193.865 172.902
L194.205 150.63
L194.544 152.166
L194.884 185.19
L195.223 170.598
L195.563 126.054
L195.902 167.526
L196.242 149.862
L196.581 152.934
L196.92 177.51
L197.599 126.822
L197.939 156.774
L198.278 175.974
L198.618 147.558
L198.957 173.67
L199.297 145.254
L199.636 144.486
L199.976 179.814
L200.315 149.094
L200.655 141.414
L200.994 181.35
L201.334 151.398
L201.673 147.558
L202.012 156.006
L202.352 199.014
L202.691 138.342
L203.031 128.358
L203.37 185.958
L203.71 141.414
L204.049 153.702
L204.389 161.382
L204.728 147.558
L205.068 161.382
L205.407 165.99
L205.747 164.454
L206.086 172.134
L206.426 119.91
L206.765 172.902
L207.104 158.31
L207.444 168.294
L207.783 155.238
L208.123 157.542
L208.462 135.27
L208.802 172.902
L209.141 146.79
L209.481 172.134
L209.82 134.502
L210.16 164.454
L210.499 173.67
L210.839 153.702
L211.178 167.526
L211.518 152.934
L211.857 152.934
L212.196 162.918
L212.536 161.382
L212.875 130.662
L213.215 175.206
L213.554 162.918
L213.894 165.99
L214.233 140.646
L214.573 160.614
L214.912 138.342
L215.252 177.51
L215.931 139.878
L216.27 179.046
L216.61 156.006
L216.949 153.702
L217.289 156.774
L217.628 155.238
L217.967 162.918
L218.307 156.774
L218.646 175.974
L218.986 131.43
L219.325 162.15
L219.665 162.15
L220.004 149.094
L220.344 173.67
L220.683 146.79
L221.023 146.022
L221.362 165.222
L221.702 161.382
L222.041 153.702
L222.381 159.846
L222.72 154.47
L223.059 142.182
L223.399 177.51
L223.738 153.702
L224.078 155.238
L224.417 162.918
L225.096 153.702
L225.436 146.79
L225.775 174.438
L226.115 157.542
L226.454 159.846
L226.794 154.47
L227.133 145.254
L227.473 163.686
L228.151 155.238
L228.491 163.686
L229.17 148.326
L229.509 169.83
L229.849 149.094
L230.188 156.006
L230.528 159.846
L230.867 159.078
L231.207 166.758
L231.546 150.63
L231.886 149.862
L232.225 161.382
L232.565 151.398
L232.904 171.366
L233.243 150.63
L233.583 161.382
L233.922 158.31
L234.262 150.63
L234.601 160.614
L234.941 158.31
L235.28 153.702
L235.62 159.078
L235.959 156.006
L236.299 159.078
L236.638 156.774
L236.978 160.614
L237.317 151.398
L237.657 164.454
L237.996 156.774
L238.336 159.078
L238.675 147.558
L239.014 166.758
L239.354 156.774
L239.693 155.238
L240.033 161.382
L240.372 153.702
L240.712 160.614
L241.391 154.47
L241.73 139.11
L242.07 161.382
L242.409 167.526
L242.749 165.222
L243.088 146.022
L243.428 158.31
L243.767 160.614
L244.106 149.862
L244.446 162.15
L244.785 161.382
L245.125 154.47
L245.464 159.846
L245.804 145.254
L246.143 172.134
L246.483 148.326
L246.822 162.15
L247.501 156.006
L247.841 161.382
L248.18 153.702
L248.52 159.846
L248.859 159.846
L249.198 155.238
L249.538 141.414
L249.877 164.454
L250.217 150.63
L250.556 157.542
L250.896 155.238
L251.235 159.846
L251.575 156.774
L251.914 172.902
L252.254 139.878
L252.593 159.846
L252.933 161.382
L253.272 165.222
L253.612 161.382
L253.951 143.718
L254.29 151.398
L254.63 162.918
L254.969 163.686
L255.309 151.398
L255.648 156.774
L255.988 158.31
L256.327 165.99
L256.667 146.79
L257.346 165.99
L257.685 149.862
L258.025 156.006
L258.364 167.526
L258.704 152.166
L259.043 155.238
L259.382 168.294
L260.061 150.63
L260.401 162.15
L260.74 152.166
L261.08 155.238
L261.419 149.862
L261.759 172.134
L262.098 152.166
L262.438 149.094
L262.777 171.366
L263.117 156.006
L263.456 154.47
L263.796 161.382
L264.135 150.63
L264.475 166.758
L265.153 147.558
L265.493 167.526
L265.832 152.934
L266.172 149.094
L266.511 157.542
L266.851 155.238
L267.19 165.222
L267.53 152.934
L267.869 169.83
L268.209 152.934
L268.548 155.238
L268.888 154.47
L269.227 161.382
L269.567 162.918
L269.906 156.006
L270.245 159.078
L270.585 159.078
L270.924 152.166
L271.264 159.846
L271.603 157.542
L271.943 156.006
L272.282 151.398
L272.622 165.222
L272.961 155.238
L273.301 156.006
L273.64 162.15
L273.98 155.238
L274.319 156.774
L274.659 159.846
L274.998 154.47
L275.337 153.702
L275.677 167.526
L276.016 153.702
L276.356 155.238
L276.695 160.614
L277.035 156.774
L277.374 156.006
L277.714 153.702
L278.053 162.15
L278.393 152.934
L279.072 163.686
L279.411 152.934
L279.751 157.542
L280.09 155.238
L280.429 149.094
L280.769 168.294
L281.108 159.846
L281.448 159.846
L282.127 152.934
L282.466 162.15
L282.806 155.238
L283.145 157.542
L283.485 147.558
L283.824 169.062
L284.164 152.166
L284.503 157.542
L284.843 159.078
L285.182 148.326
L285.522 169.83
L285.861 156.774
L286.2 154.47
L286.54 156.006
L286.879 156.006
L287.219 160.614
L287.558 149.094
L287.898 162.15
L288.237 156.006
L288.577 159.846
L288.916 152.934
L289.256 164.454
L289.595 149.862
L289.935 158.31
L290.274 161.382
L290.953 152.934
L291.292 158.31
L291.632 153.702
L291.971 161.382
L292.311 165.222
L292.65 158.31
L292.99 146.022
L293.329 162.918
L293.669 152.934
L294.008 156.774
L294.348 156.774
L294.687 167.526
L295.027 152.166
L295.366 154.47
L295.706 159.846
L296.045 155.238
L296.384 159.078
L296.724 159.846
L297.403 154.47
L297.742 161.382
L298.082 156.774
L298.421 153.702
L298.761 165.222
L299.1 146.79
L299.44 165.222
L299.779 161.382
L300.119 144.486
L300.458 165.99
L300.798 152.166
L301.137 159.078
L301.476 159.846
L301.816 159.846
L302.155 161.382
L302.495 145.254
L302.834 170.598
L303.174 154.47
L303.513 151.398
L303.853 160.614
L304.192 160.614
L304.532 150.63
L304.871 161.382
L305.211 161.382
L305.89 147.558
L306.229 172.134
L306.569 150.63
L306.908 152.934
L307.247 161.382
L307.587 156.006
L307.926 159.846
L308.266 160.614
L308.605 152.934
L308.945 159.078
L309.284 151.398
L309.624 162.918
L309.963 151.398
L310.303 162.918
L310.642 159.078
L310.982 161.382
L311.321 150.63
L311.661 159.846
L312 156.774
L312.339 152.166
L312.679 156.006
L313.018 167.526
L313.358 156.774
L313.697 159.078
L314.037 146.022
L314.376 159.846
L314.716 162.15
L315.055 159.078
L315.395 158.31
L315.734 153.702
L316.074 162.15
L316.413 154.47
L316.753 161.382
L317.092 150.63
L317.431 165.99
L317.771 150.63
L318.11 162.918
L318.45 155.238
L318.789 153.702
L319.129 159.846
L319.468 157.542
L319.808 156.774
L320.147 162.918
L320.487 151.398
L320.826 159.846
L321.166 154.47
L321.505 154.47
L321.845 165.222
L322.184 150.63
L322.863 162.15
L323.542 152.166
L324.221 161.382
L324.56 160.614
L324.9 156.774
L325.239 156.774
L325.579 157.542
L325.918 157.542
L326.258 159.846
L326.597 161.382
L326.937 151.398
L327.276 156.774
L327.616 158.31
L327.955 149.094
L328.294 165.222
L328.634 155.238
L328.973 158.31
L329.313 159.846
L329.652 157.542
L329.992 159.846
L330.331 153.702
L330.671 160.614
L331.01 152.934
L331.35 159.846
L331.689 160.614
L332.029 152.934
L332.368 152.166
L332.708 160.614
L333.047 159.846
L333.386 154.47
L333.726 156.006
L334.065 165.99
L334.405 152.934
L334.744 162.918
L335.084 153.702
L335.423 159.078
L335.763 158.31
L336.102 156.006
L336.442 158.31
L336.781 157.542
L337.121 157.542
L337.46 158.31
L337.8 151.398
L338.478 162.15
L338.818 158.31
L339.157 160.614
L339.497 156.006
L339.836 157.542
L340.176 156.006
L340.515 155.238
L340.855 163.686
L341.194 142.95
L341.534 162.15
L342.213 160.614
L342.552 155.238
L342.892 153.702
L343.231 162.15
L343.91 152.166
L344.249 159.078
L344.589 156.774
L344.928 156.774
L345.268 159.846
L345.607 161.382
L345.947 153.702
L346.626 162.15
L346.965 162.15
L347.305 149.094
L347.644 152.934
L348.323 164.454
L348.662 155.238
L349.002 157.542
L349.341 160.614
L349.681 153.702
L350.02 156.774
L350.699 155.238
L351.039 164.454
L351.378 154.47
L351.718 159.078
L352.057 160.614
L352.397 156.774
L352.736 146.79
L353.076 165.222
L353.415 155.238
L353.755 162.15
L354.433 150.63
L354.773 164.454
L355.112 159.846
L355.452 146.79
L355.791 161.382
L356.131 162.15
L356.81 156.006
L357.149 157.542
L357.489 153.702
L357.828 161.382
L358.168 153.702
L358.507 159.846
L358.847 157.542
L359.186 154.47
L359.525 163.686
L359.865 156.006
L360.204 156.006
L360.544 158.31
L360.883 147.558
L361.223 166.758
L361.562 159.846
L361.902 142.95
L362.241 172.134
L362.581 154.47
L362.92 156.006
L363.26 161.382
L363.599 146.79
L363.939 165.99
L364.278 161.382
L364.617 142.95
L364.957 160.614
L365.296 165.99
L365.636 156.774
L365.975 156.006
L366.315 146.022
L366.654 162.918
L366.994 158.31
L367.333 152.166
L368.012 161.382
L368.352 156.774
L368.691 158.31
L369.031 153.702
L369.37 160.614
L369.709 156.006
L370.049 159.078
L370.388 169.062
L370.728 145.254
L371.067 161.382
L371.407 164.454
L371.746 145.254
L372.086 163.686
L372.765 158.31
L373.104 146.022
L373.444 164.454
L373.783 159.846
L374.123 151.398
L374.462 157.542
L374.802 161.382
L375.141 159.078
L375.48 163.686
L375.82 144.486
L376.159 160.614
L376.499 165.99
L377.178 148.326
L377.517 166.758
L377.857 145.254
L378.196 166.758
L378.536 151.398
L378.875 152.166
L379.215 171.366
L379.554 151.398
L380.233 162.15
L380.572 157.542
L380.912 150.63
L381.251 165.222
L381.591 146.79
L381.93 164.454
L382.27 148.326
L382.609 168.294
L382.949 151.398
L383.288 162.15
L383.628 159.846
L383.967 149.094
L384.307 165.99
L384.646 148.326
L384.986 157.542
L385.325 163.686
L385.664 159.846
L386.004 146.79
L386.343 162.918
L386.683 161.382
L387.022 159.078
L387.362 155.238
L387.701 156.774
L388.041 152.934
L388.38 165.99
L388.72 145.254
L389.059 167.526
L389.399 147.558
L390.078 166.758
L390.417 153.702
L390.756 162.918
L391.435 152.934
L391.775 163.686
L392.114 148.326
L392.454 165.99
L393.133 153.702
L393.472 158.31
L393.812 154.47
L394.151 156.774
L394.491 159.846
L394.83 157.542
L395.17 152.934
L395.509 160.614
L395.849 160.614
L396.527 155.238
L397.206 159.846
L397.546 155.238
L397.885 159.078
L398.225 154.47
L398.564 151.398
L398.904 154.47
L399.243 168.294
L399.583 153.702
L399.922 160.614
L400.262 155.238
L400.601 161.382
L400.941 151.398
L401.619 162.15
L401.959 158.31
L402.298 156.774
L402.638 157.542
L402.977 156.006
L403.317 159.846
L403.656 157.542
L403.996 156.774
L404.335 158.31
L404.675 156.006
L405.014 157.542
L405.354 159.846
L405.693 149.862
L406.033 162.15
L406.711 152.934
L407.051 162.15
L407.39 159.846
L408.069 148.326
L408.409 165.222
L408.748 160.614
L409.088 152.934
L409.427 161.382
L409.767 157.542
L410.106 158.31
L410.446 149.094
L410.785 159.846
L411.125 165.99
L411.464 155.238
L411.803 155.238
L412.143 149.094
L412.482 156.774
L412.822 158.31
L413.161 167.526
L413.501 150.63
L413.84 165.99
L414.18 154.47
L414.519 159.846
L414.859 154.47
L415.198 158.31
L415.877 153.702
L416.217 161.382
L416.556 154.47
L416.896 154.47
L417.235 166.758
L417.574 154.47
L417.914 157.542
L418.253 149.094
L418.593 159.078
L418.932 165.222
L419.272 156.006
L419.611 155.238
L419.951 159.078
L420.29 149.094
L420.63 169.83
L420.969 155.238
L421.309 156.006
L421.648 153.702
L421.988 165.222
L422.327 150.63
L422.666 163.686
L423.006 156.006
L423.345 151.398
L423.685 159.846
L424.024 159.078
L424.364 156.774
L424.703 151.398
L425.043 166.758
L425.382 156.774
L425.722 155.238
L426.061 159.846
L426.401 152.934
L426.74 155.238
L427.08 164.454
L427.419 154.47
L427.758 152.934
L428.098 164.454
L428.437 154.47
L429.116 160.614
L429.456 152.934
L429.795 159.078
L430.135 158.31
L430.474 155.238
L430.814 153.702
L431.153 163.686
L431.493 159.078
L431.832 151.398
L432.511 163.686
L432.85 149.862
L433.19 162.15
L433.869 153.702
L434.208 156.006
L434.548 163.686
L434.887 156.774
L435.227 152.934
L435.566 163.686
L435.906 156.774
L436.245 156.006
L436.585 158.31
L436.924 158.31
L437.264 160.614
L437.603 151.398
L437.942 161.382
L438.282 157.542
L438.621 152.166
L438.961 158.31
L439.3 157.542
L439.64 158.31
L439.979 162.918
L440.319 150.63
L440.658 159.846
L440.998 154.47
L441.337 161.382
L441.677 153.702
L442.016 159.078
L442.356 160.614
L442.695 147.558
L443.035 162.15
L443.374 161.382
L443.713 157.542
L444.053 149.862
L444.392 165.222
L444.732 154.47
L445.071 155.238
L445.75 162.15
L446.09 152.934
L446.429 158.31
L446.769 160.614
L447.108 153.702
L447.448 154.47
L447.787 159.846
L448.127 157.542
L448.466 158.31
L448.805 162.15
L449.145 156.006
L449.484 153.702
L449.824 159.078
L450.163 159.078
L450.503 157.542
L450.842 157.542
L451.182 153.702
L451.521 162.15
L451.861 156.774
L452.2 159.846
L452.54 155.238
L452.879 157.542
L453.219 153.702
L453.558 157.542
L453.897 156.774
L454.237 157.542
L454.576 162.918
L454.916 149.094
L455.255 157.542
L455.595 159.078
L455.934 163.686
L456.274 157.542
L456.613 157.542
L456.953 151.398
L457.292 161.382
L457.632 156.006
L457.971 159.078
L458.311 155.238
L458.65 159.846
L458.989 156.774
L459.329 150.63
L459.668 165.99
L460.008 154.47
L460.347 159.846
L460.687 157.542
L461.026 156.006
L461.705 159.078
L462.045 156.774
L462.384 152.166
L462.724 162.918
L463.063 152.166
L463.403 163.686
L463.742 150.63
L464.082 156.006
L464.421 165.99
L464.76 147.558
L465.1 165.222
L465.439 152.934
L465.779 159.078
L466.118 160.614
L466.458 150.63
L466.797 159.846
L467.476 159.846
L467.816 150.63
L468.155 156.774
L468.495 157.542
L468.834 159.846
L469.174 156.006
L469.513 159.078
L469.852 157.542
L470.192 155.238
L470.531 165.222
L470.871 150.63
L471.21 160.614
L471.55 154.47
L471.889 160.614
L472.229 154.47
L472.568 159.846
L472.908 155.238
L473.247 156.006
L473.926 159.078
L474.266 158.31
L474.605 160.614
L474.944 152.934
L475.284 162.918
L475.623 151.398
L475.963 160.614
L476.302 153.702
L476.642 159.078
L477.321 156.006
L477.66 159.078
L478 159.078
L478.339 156.006
L478.679 157.542
L479.018 156.774
L479.358 156.774
L479.697 157.542
L480.036 162.15
L480.376 153.702
L480.715 160.614
L481.055 157.542
L481.394 158.31
L481.734 156.006
L482.073 154.47
L482.413 156.774
L482.752 159.846
L483.092 157.542
L483.431 159.078
L483.771 157.542
L484.11 156.774
L484.45 156.774
L484.789 157.542
L485.129 159.846
L485.468 157.542
L485.807 154.47
L486.147 158.31
L486.486 154.47
L486.826 162.15
L487.165 157.542
L487.505 156.774
L487.844 159.846
L488.184 154.47
L488.523 155.238
L488.863 158.31
L489.202 158.31
L489.542 155.238
L489.881 162.918
L490.221 155.238
L490.56 156.006
L490.899 158.31
L491.239 161.382
L491.578 154.47
L491.918 156.774
L492.257 158.31
L492.597 158.31
L492.936 156.774
L493.276 158.31
L493.615 157.542
L493.955 154.47
L494.294 159.078
L494.634 158.31
L494.973 160.614
L495.313 151.398
L495.652 160.614
L495.991 158.31
L496.331 157.542
L496.67 158.31
L497.01 155.238
L497.349 156.006
L497.689 159.846
L498.028 157.542
L498.368 156.006
L498.707 159.078
L499.047 157.542
L499.386 158.31
L499.726 158.31
L500.065 152.934
L500.405 160.614
L500.744 156.774
L501.083 159.846
L501.423 150.63
L501.762 162.15
L502.441 156.006
L502.781 159.078
L503.12 157.542
L503.46 159.078
L503.799 153.702
L504.139 158.31
L504.478 159.078
L504.818 155.238
L505.157 160.614
L505.497 159.846
L505.836 155.238
L506.176 156.006
L506.515 157.542
L506.854 156.006
L507.194 159.078
L507.533 156.774
L507.873 157.542
L508.212 159.078
L508.552 157.542
L508.891 156.774
L509.231 160.614
L509.57 156.006
L509.91 156.006
L510.249 158.31
L510.589 156.006
L510.928 162.15
L511.268 152.934
L511.946 159.846
L512.286 154.47
L512.625 159.846
L512.965 158.31
L513.304 157.542
L513.644 149.094
L513.983 163.686
L514.323 160.614
L514.662 155.238
L515.341 159.846
L515.681 152.934
L516.02 159.846
L516.36 159.078
L516.699 156.006
L516.699 156.006" style="fill:none;stroke:#0000ff;stroke-linecap:square;"/>
   </g>
   <g id="line2d_2">
    <path clip-path="url(#p020d36cde1)" d="
M70.299 368.742
L516.699 368.742
L516.699 368.742" style="fill:none;stroke:#008000;stroke-linecap:square;"/>
   </g>
   <g id="line2d_3">
    <path clip-path="url(#p020d36cde1)" d="
M70.299 368.742
L516.699 368.742
L516.699 368.742" style="fill:none;stroke:#ff0000;stroke-linecap:square;"/>
   </g>
   <g id="line2d_4">
    <path clip-path="url(#p020d36cde1)" d="
M70.299 368.742
L516.699 368.742
L516.699 368.742" style="fill:none;stroke:#00bfbf;stroke-linecap:square;"/>
   </g>
   <g id="line2d_5">
    <path clip-path="url(#p020d36cde1)" d="
M70.299 368.742
L516.699 368.742
L516.699 368.742" style="fill:none;stroke:#bf00bf;stroke-linecap:square;"/>
   </g>
   <g id="line2d_6">
    <path clip-path="url(#p020d36cde1)" d="
M70.299 368.742
L516.699 368.742
L516.699 368.742" style="fill:none;stroke:#bfbf00;stroke-linecap:square;"/>
   </g>
   <g id="line2d_7">
    <path clip-path="url(#p020d36cde1)" d="
M70.299 368.742
L516.699 368.742
L516.699 368.742" style="fill:none;stroke:#000000;stroke-linecap:square;"/>
   </g>
   <g id="line2d_8">
    <path clip-path="url(#p020d36cde1)" d="
M70.299 368.742
L516.699 368.742
L516.699 368.742" style="fill:none;stroke:#0000ff;stroke-linecap:square;"/>
   </g>
   <g id="line2d_9">
    <path clip-path="url(#p020d36cde1)" d="
M70.299 368.742
L516.699 368.742
L516.699 368.742" style="fill:none;stroke:#008000;stroke-linecap:square;"/>
   </g>
   <g id="line2d_10">
    <path clip-path="url(#p020d36cde1)" d="
M70.299 368.742
L516.699 368.742
L516.699 368.742" style="fill:none;stroke:#ff0000;stroke-linecap:square;"/>
   </g>
   <g id="line2d_11">
    <path clip-path="url(#p020d36cde1)" d="
M70.299 368.742
L516.699 368.742
L516.699 368.742" style="fill:none;stroke:#00bfbf;stroke-linecap:square;"/>
   </g>
   <g id="line2d_12">
    <path clip-path="url(#p020d36cde1)" d="
M70.299 368.742
L516.699 368.742
L516.699 368.742" style="fill:none;stroke:#bf00bf;stroke-linecap:square;"/>
   </g>
   <g id="line2d_13">
    <path clip-path="url(#p020d36cde1)" d="
M70.299 368.742
L516.699 368.742
L516.699 368.742" style="fill:none;stroke:#bfbf00;stroke-linecap:square;"/>
   </g>
   <g id="line2d_14">
    <path clip-path="url(#p020d36cde1)" d="
M70.299 368.742
L516.699 368.742
L516.699 368.742" style="fill:none;stroke:#000000;stroke-linecap:square;"/>
   </g>
   <g id="line2d_15">
    <path clip-path="url(#p020d36cde1)" d="
M70.299 368.742
L516.699 368.742
L516.699 368.742" style="fill:none;stroke:#0000ff;stroke-linecap:square;"/>
   </g>
   <g id="line2d_16">
    <path clip-path="url(#p020d36cde1)" d="
M70.299 368.742
L516.699 368.742
L516.699 368.742" style="fill:none;stroke:#008000;stroke-linecap:square;"/>
   </g>
   <g id="patch_3">
    <path d="
M70.299 368.742
L70.299 23.1417" style="fill:none;stroke:#000000;stroke-linecap:square;stroke-linejoin:miter;"/>
   </g>
   <g id="patch_4">
    <path d="
M516.699 368.742
L516.699 23.1417" style="fill:none;stroke:#000000;stroke-linecap:square;stroke-linejoin:miter;"/>
   </g>
   <g id="patch_5">
    <path d="
M70.299 23.1417
L516.699 23.1417" style="fill:none;stroke:#000000;stroke-linecap:square;stroke-linejoin:miter;"/>
   </g>
   <g id="patch_6">
    <path d="
M70.299 368.742
L516.699 368.742" style="fill:none;stroke:#000000;stroke-linecap:square;stroke-linejoin:miter;"/>
   </g>
   <g id="matplotlib.axis_1">
    <g id="xtick_1">
     <g id="line2d_17">
      <defs>
       <path d="
M0 0
L0 -4" id="mc7db9fdffb" style="stroke:#000000;stroke-width:0.5;"/>
      </defs>
      <g>
       <use style="stroke:#000000;stroke-width:0.5;" x="70.299" xlink:href="#mc7db9fdffb" y="368.74175"/>
      </g>
     </g>
     <g id="line2d_18">
      <defs>
       <path d="
M0 0
L0 4" id="m5a7d422ac3" style="stroke:#000000;stroke-width:0.5;"/>
      </defs>
      <g>
       <use style="stroke:#000000;stroke-width:0.5;" x="70.299" xlink:href="#m5a7d422ac3" y="23.14175"/>
      </g>
     </g>
     <g id="text_1">
      <!-- 0 -->
      <defs>
       <path d="
M31.7812 66.4062
Q24.1719 66.4062 20.3281 58.9062
Q16.5 51.4219 16.5 36.375
Q16.5 21.3906 20.3281 13.8906
Q24.1719 6.39062 31.7812 6.39062
Q39.4531 6.39062 43.2812 13.8906
Q47.125 21.3906 47.125 36.375
Q47.125 51.4219 43.2812 58.9062
Q39.4531 66.4062 31.7812 66.4062
M31.7812 74.2188
Q44.0469 74.2188 50.5156 64.5156
Q56.9844 54.8281 56.9844 36.375
Q56.9844 17.9688 50.5156 8.26562
Q44.0469 -1.42188 31.7812 -1.42188
Q19.5312 -1.42188 13.0625 8.26562
Q6.59375 17.9688 6.59375 36.375
Q6.59375 54.8281 13.0625 64.5156
Q19.5312 74.2188 31.7812 74.2188" id="DejaVuSans-30"/>
      </defs>
      <g transform="translate(67.2755625 381.859875)scale(0.12 -0.12)">
       <use xlink:href="#DejaVuSans-30"/>
      </g>
     </g>
    </g>
    <g id="xtick_2">
     <g id="line2d_19">
      <g>
       <use style="stroke:#000000;stroke-width:0.5;" x="138.192536122" xlink:href="#mc7db9fdffb" y="368.74175"/>
      </g>
     </g>
     <g id="line2d_20">
      <g>
       <use style="stroke:#000000;stroke-width:0.5;" x="138.192536122" xlink:href="#m5a7d422ac3" y="23.14175"/>
      </g>
     </g>
     <g id="text_2">
      <!-- 200 -->
      <defs>
       <path d="
M19.1875 8.29688
L53.6094 8.29688
L53.6094 0
L7.32812 0
L7.32812 8.29688
Q12.9375 14.1094 22.625 23.8906
Q32.3281 33.6875 34.8125 36.5312
Q39.5469 41.8438 41.4219 45.5312
Q43.3125 49.2188 43.3125 52.7812
Q43.3125 58.5938 39.2344 62.25
Q35.1562 65.9219 28.6094 65.9219
Q23.9688 65.9219 18.8125 64.3125
Q13.6719 62.7031 7.8125 59.4219
L7.8125 69.3906
Q13.7656 71.7812 18.9375 73
Q24.125 74.2188 28.4219 74.2188
Q39.75 74.2188 46.4844 68.5469
Q53.2188 62.8906 53.2188 53.4219
Q53.2188 48.9219 51.5312 44.8906
Q49.8594 40.875 45.4062 35.4062
Q44.1875 33.9844 37.6406 27.2188
Q31.1094 20.4531 19.1875 8.29688" id="DejaVuSans-32"/>
      </defs>
      <g transform="translate(127.578161122 381.859875)scale(0.12 -0.12)">
       <use xlink:href="#DejaVuSans-32"/>
       <use x="63.623046875" xlink:href="#DejaVuSans-30"/>
       <use x="127.24609375" xlink:href="#DejaVuSans-30"/>
      </g>
     </g>
    </g>
    <g id="xtick_3">
     <g id="line2d_21">
      <g>
       <use style="stroke:#000000;stroke-width:0.5;" x="206.086072243" xlink:href="#mc7db9fdffb" y="368.74175"/>
      </g>
     </g>
     <g id="line2d_22">
      <g>
       <use style="stroke:#000000;stroke-width:0.5;" x="206.086072243" xlink:href="#m5a7d422ac3" y="23.14175"/>
      </g>
     </g>
     <g id="text_3">
      <!-- 400 -->
      <defs>
       <path d="
M37.7969 64.3125
L12.8906 25.3906
L37.7969 25.3906
z

M35.2031 72.9062
L47.6094 72.9062
L47.6094 25.3906
L58.0156 25.3906
L58.0156 17.1875
L47.6094 17.1875
L47.6094 0
L37.7969 0
L37.7969 17.1875
L4.89062 17.1875
L4.89062 26.7031
z
" id="DejaVuSans-34"/>
      </defs>
      <g transform="translate(195.325447243 381.859875)scale(0.12 -0.12)">
       <use xlink:href="#DejaVuSans-34"/>
       <use x="63.623046875" xlink:href="#DejaVuSans-30"/>
       <use x="127.24609375" xlink:href="#DejaVuSans-30"/>
      </g>
     </g>
    </g>
    <g id="xtick_4">
     <g id="line2d_23">
      <g>
       <use style="stroke:#000000;stroke-width:0.5;" x="273.979608365" xlink:href="#mc7db9fdffb" y="368.74175"/>
      </g>
     </g>
     <g id="line2d_24">
      <g>
       <use style="stroke:#000000;stroke-width:0.5;" x="273.979608365" xlink:href="#m5a7d422ac3" y="23.14175"/>
      </g>
     </g>
     <g id="text_4">
      <!-- 600 -->
      <defs>
       <path d="
M33.0156 40.375
Q26.375 40.375 22.4844 35.8281
Q18.6094 31.2969 18.6094 23.3906
Q18.6094 15.5312 22.4844 10.9531
Q26.375 6.39062 33.0156 6.39062
Q39.6562 6.39062 43.5312 10.9531
Q47.4062 15.5312 47.4062 23.3906
Q47.4062 31.2969 43.5312 35.8281
Q39.6562 40.375 33.0156 40.375
M52.5938 71.2969
L52.5938 62.3125
Q48.875 64.0625 45.0938 64.9844
Q41.3125 65.9219 37.5938 65.9219
Q27.8281 65.9219 22.6719 59.3281
Q17.5312 52.7344 16.7969 39.4062
Q19.6719 43.6562 24.0156 45.9219
Q28.375 48.1875 33.5938 48.1875
Q44.5781 48.1875 50.9531 41.5156
Q57.3281 34.8594 57.3281 23.3906
Q57.3281 12.1562 50.6875 5.35938
Q44.0469 -1.42188 33.0156 -1.42188
Q20.3594 -1.42188 13.6719 8.26562
Q6.98438 17.9688 6.98438 36.375
Q6.98438 53.6562 15.1875 63.9375
Q23.3906 74.2188 37.2031 74.2188
Q40.9219 74.2188 44.7031 73.4844
Q48.4844 72.75 52.5938 71.2969" id="DejaVuSans-36"/>
      </defs>
      <g transform="translate(263.344608365 381.859875)scale(0.12 -0.12)">
       <use xlink:href="#DejaVuSans-36"/>
       <use x="63.623046875" xlink:href="#DejaVuSans-30"/>
       <use x="127.24609375" xlink:href="#DejaVuSans-30"/>
      </g>
     </g>
    </g>
    <g id="xtick_5">
     <g id="line2d_25">
      <g>
       <use style="stroke:#000000;stroke-width:0.5;" x="341.873144487" xlink:href="#mc7db9fdffb" y="368.74175"/>
      </g>
     </g>
     <g id="line2d_26">
      <g>
       <use style="stroke:#000000;stroke-width:0.5;" x="341.873144487" xlink:href="#m5a7d422ac3" y="23.14175"/>
      </g>
     </g>
     <g id="text_5">
      <!-- 800 -->
      <defs>
       <path d="
M31.7812 34.625
Q24.75 34.625 20.7188 30.8594
Q16.7031 27.0938 16.7031 20.5156
Q16.7031 13.9219 20.7188 10.1562
Q24.75 6.39062 31.7812 6.39062
Q38.8125 6.39062 42.8594 10.1719
Q46.9219 13.9688 46.9219 20.5156
Q46.9219 27.0938 42.8906 30.8594
Q38.875 34.625 31.7812 34.625
M21.9219 38.8125
Q15.5781 40.375 12.0312 44.7188
Q8.5 49.0781 8.5 55.3281
Q8.5 64.0625 14.7188 69.1406
Q20.9531 74.2188 31.7812 74.2188
Q42.6719 74.2188 48.875 69.1406
Q55.0781 64.0625 55.0781 55.3281
Q55.0781 49.0781 51.5312 44.7188
Q48 40.375 41.7031 38.8125
Q48.8281 37.1562 52.7969 32.3125
Q56.7812 27.4844 56.7812 20.5156
Q56.7812 9.90625 50.3125 4.23438
Q43.8438 -1.42188 31.7812 -1.42188
Q19.7344 -1.42188 13.25 4.23438
Q6.78125 9.90625 6.78125 20.5156
Q6.78125 27.4844 10.7812 32.3125
Q14.7969 37.1562 21.9219 38.8125
M18.3125 54.3906
Q18.3125 48.7344 21.8438 45.5625
Q25.3906 42.3906 31.7812 42.3906
Q38.1406 42.3906 41.7188 45.5625
Q45.3125 48.7344 45.3125 54.3906
Q45.3125 60.0625 41.7188 63.2344
Q38.1406 66.4062 31.7812 66.4062
Q25.3906 66.4062 21.8438 63.2344
Q18.3125 60.0625 18.3125 54.3906" id="DejaVuSans-38"/>
      </defs>
      <g transform="translate(331.225956987 381.859875)scale(0.12 -0.12)">
       <use xlink:href="#DejaVuSans-38"/>
       <use x="63.623046875" xlink:href="#DejaVuSans-30"/>
       <use x="127.24609375" xlink:href="#DejaVuSans-30"/>
      </g>
     </g>
    </g>
    <g id="xtick_6">
     <g id="line2d_27">
      <g>
       <use style="stroke:#000000;stroke-width:0.5;" x="409.766680608" xlink:href="#mc7db9fdffb" y="368.74175"/>
      </g>
     </g>
     <g id="line2d_28">
      <g>
       <use style="stroke:#000000;stroke-width:0.5;" x="409.766680608" xlink:href="#m5a7d422ac3" y="23.14175"/>
      </g>
     </g>
     <g id="text_6">
      <!-- 1000 -->
      <defs>
       <path d="
M12.4062 8.29688
L28.5156 8.29688
L28.5156 63.9219
L10.9844 60.4062
L10.9844 69.3906
L28.4219 72.9062
L38.2812 72.9062
L38.2812 8.29688
L54.3906 8.29688
L54.3906 0
L12.4062 0
z
" id="DejaVuSans-31"/>
      </defs>
      <g transform="translate(395.554180608 381.859875)scale(0.12 -0.12)">
       <use xlink:href="#DejaVuSans-31"/>
       <use x="63.623046875" xlink:href="#DejaVuSans-30"/>
       <use x="127.24609375" xlink:href="#DejaVuSans-30"/>
       <use x="190.869140625" xlink:href="#DejaVuSans-30"/>
      </g>
     </g>
    </g>
    <g id="xtick_7">
     <g id="line2d_29">
      <g>
       <use style="stroke:#000000;stroke-width:0.5;" x="477.66021673" xlink:href="#mc7db9fdffb" y="368.74175"/>
      </g>
     </g>
     <g id="line2d_30">
      <g>
       <use style="stroke:#000000;stroke-width:0.5;" x="477.66021673" xlink:href="#m5a7d422ac3" y="23.14175"/>
      </g>
     </g>
     <g id="text_7">
      <!-- 1200 -->
      <g transform="translate(463.44771673 381.859875)scale(0.12 -0.12)">
       <use xlink:href="#DejaVuSans-31"/>
       <use x="63.623046875" xlink:href="#DejaVuSans-32"/>
       <use x="127.24609375" xlink:href="#DejaVuSans-30"/>
       <use x="190.869140625" xlink:href="#DejaVuSans-30"/>
      </g>
     </g>
    </g>
    <g id="text_8">
     <!-- time -->
     <defs>
      <path d="
M9.42188 54.6875
L18.4062 54.6875
L18.4062 0
L9.42188 0
z

M9.42188 75.9844
L18.4062 75.9844
L18.4062 64.5938
L9.42188 64.5938
z
" id="DejaVuSans-69"/>
      <path d="
M18.3125 70.2188
L18.3125 54.6875
L36.8125 54.6875
L36.8125 47.7031
L18.3125 47.7031
L18.3125 18.0156
Q18.3125 11.3281 20.1406 9.42188
Q21.9688 7.51562 27.5938 7.51562
L36.8125 7.51562
L36.8125 0
L27.5938 0
Q17.1875 0 13.2344 3.875
Q9.28125 7.76562 9.28125 18.0156
L9.28125 47.7031
L2.6875 47.7031
L2.6875 54.6875
L9.28125 54.6875
L9.28125 70.2188
z
" id="DejaVuSans-74"/>
      <path d="
M52 44.1875
Q55.375 50.25 60.0625 53.125
Q64.75 56 71.0938 56
Q79.6406 56 84.2812 50.0156
Q88.9219 44.0469 88.9219 33.0156
L88.9219 0
L79.8906 0
L79.8906 32.7188
Q79.8906 40.5781 77.0938 44.375
Q74.3125 48.1875 68.6094 48.1875
Q61.625 48.1875 57.5625 43.5469
Q53.5156 38.9219 53.5156 30.9062
L53.5156 0
L44.4844 0
L44.4844 32.7188
Q44.4844 40.625 41.7031 44.4062
Q38.9219 48.1875 33.1094 48.1875
Q26.2188 48.1875 22.1562 43.5312
Q18.1094 38.875 18.1094 30.9062
L18.1094 0
L9.07812 0
L9.07812 54.6875
L18.1094 54.6875
L18.1094 46.1875
Q21.1875 51.2188 25.4844 53.6094
Q29.7812 56 35.6875 56
Q41.6562 56 45.8281 52.9688
Q50 49.9531 52 44.1875" id="DejaVuSans-6d"/>
      <path d="
M56.2031 29.5938
L56.2031 25.2031
L14.8906 25.2031
Q15.4844 15.9219 20.4844 11.0625
Q25.4844 6.20312 34.4219 6.20312
Q39.5938 6.20312 44.4531 7.46875
Q49.3125 8.73438 54.1094 11.2812
L54.1094 2.78125
Q49.2656 0.734375 44.1875 -0.34375
Q39.1094 -1.42188 33.8906 -1.42188
Q20.7969 -1.42188 13.1562 6.1875
Q5.51562 13.8125 5.51562 26.8125
Q5.51562 40.2344 12.7656 48.1094
Q20.0156 56 32.3281 56
Q43.3594 56 49.7812 48.8906
Q56.2031 41.7969 56.2031 29.5938
M47.2188 32.2344
Q47.125 39.5938 43.0938 43.9844
Q39.0625 48.3906 32.4219 48.3906
Q24.9062 48.3906 20.3906 44.1406
Q15.875 39.8906 15.1875 32.1719
z
" id="DejaVuSans-65"/>
     </defs>
     <g transform="translate(280.424625 398.473625)scale(0.12 -0.12)">
      <use xlink:href="#DejaVuSans-74"/>
      <use x="39.208984375" xlink:href="#DejaVuSans-69"/>
      <use x="66.9921875" xlink:href="#DejaVuSans-6d"/>
      <use x="164.404296875" xlink:href="#DejaVuSans-65"/>
     </g>
    </g>
   </g>
   <g id="matplotlib.axis_2">
    <g id="ytick_1">
     <g id="line2d_31">
      <defs>
       <path d="
M0 0
L4 0" id="md7965d1ba0" style="stroke:#000000;stroke-width:0.5;"/>
      </defs>
      <g>
       <use style="stroke:#000000;stroke-width:0.5;" x="70.299" xlink:href="#md7965d1ba0" y="368.74175"/>
      </g>
     </g>
     <g id="line2d_32">
      <defs>
       <path d="
M0 0
L-4 0" id="md9a1c1a7cd" style="stroke:#000000;stroke-width:0.5;"/>
      </defs>
      <g>
       <use style="stroke:#000000;stroke-width:0.5;" x="516.699" xlink:href="#md9a1c1a7cd" y="368.74175"/>
      </g>
     </g>
     <g id="text_9">
      <!-- 0 -->
      <g transform="translate(60.252125 372.053)scale(0.12 -0.12)">
       <use xlink:href="#DejaVuSans-30"/>
      </g>
     </g>
    </g>
    <g id="ytick_2">
     <g id="line2d_33">
      <g>
       <use style="stroke:#000000;stroke-width:0.5;" x="70.299" xlink:href="#md7965d1ba0" y="330.34175"/>
      </g>
     </g>
     <g id="line2d_34">
      <g>
       <use style="stroke:#000000;stroke-width:0.5;" x="516.699" xlink:href="#md9a1c1a7cd" y="330.34175"/>
      </g>
     </g>
     <g id="text_10">
      <!-- 500 -->
      <defs>
       <path d="
M10.7969 72.9062
L49.5156 72.9062
L49.5156 64.5938
L19.8281 64.5938
L19.8281 46.7344
Q21.9688 47.4688 24.1094 47.8281
Q26.2656 48.1875 28.4219 48.1875
Q40.625 48.1875 47.75 41.5
Q54.8906 34.8125 54.8906 23.3906
Q54.8906 11.625 47.5625 5.09375
Q40.2344 -1.42188 26.9062 -1.42188
Q22.3125 -1.42188 17.5469 -0.640625
Q12.7969 0.140625 7.71875 1.70312
L7.71875 11.625
Q12.1094 9.23438 16.7969 8.0625
Q21.4844 6.89062 26.7031 6.89062
Q35.1562 6.89062 40.0781 11.3281
Q45.0156 15.7656 45.0156 23.3906
Q45.0156 31 40.0781 35.4375
Q35.1562 39.8906 26.7031 39.8906
Q22.75 39.8906 18.8125 39.0156
Q14.8906 38.1406 10.7969 36.2812
z
" id="DejaVuSans-35"/>
      </defs>
      <g transform="translate(45.117125 333.653)scale(0.12 -0.12)">
       <use xlink:href="#DejaVuSans-35"/>
       <use x="63.623046875" xlink:href="#DejaVuSans-30"/>
       <use x="127.24609375" xlink:href="#DejaVuSans-30"/>
      </g>
     </g>
    </g>
    <g id="ytick_3">
     <g id="line2d_35">
      <g>
       <use style="stroke:#000000;stroke-width:0.5;" x="70.299" xlink:href="#md7965d1ba0" y="291.94175"/>
      </g>
     </g>
     <g id="line2d_36">
      <g>
       <use style="stroke:#000000;stroke-width:0.5;" x="516.699" xlink:href="#md9a1c1a7cd" y="291.94175"/>
      </g>
     </g>
     <g id="text_11">
      <!-- 1000 -->
      <g transform="translate(37.874 295.253)scale(0.12 -0.12)">
       <use xlink:href="#DejaVuSans-31"/>
       <use x="63.623046875" xlink:href="#DejaVuSans-30"/>
       <use x="127.24609375" xlink:href="#DejaVuSans-30"/>
       <use x="190.869140625" xlink:href="#DejaVuSans-30"/>
      </g>
     </g>
    </g>
    <g id="ytick_4">
     <g id="line2d_37">
      <g>
       <use style="stroke:#000000;stroke-width:0.5;" x="70.299" xlink:href="#md7965d1ba0" y="253.54175"/>
      </g>
     </g>
     <g id="line2d_38">
      <g>
       <use style="stroke:#000000;stroke-width:0.5;" x="516.699" xlink:href="#md9a1c1a7cd" y="253.54175"/>
      </g>
     </g>
     <g id="text_12">
      <!-- 1500 -->
      <g transform="translate(37.874 256.853)scale(0.12 -0.12)">
       <use xlink:href="#DejaVuSans-31"/>
       <use x="63.623046875" xlink:href="#DejaVuSans-35"/>
       <use x="127.24609375" xlink:href="#DejaVuSans-30"/>
       <use x="190.869140625" xlink:href="#DejaVuSans-30"/>
      </g>
     </g>
    </g>
    <g id="ytick_5">
     <g id="line2d_39">
      <g>
       <use style="stroke:#000000;stroke-width:0.5;" x="70.299" xlink:href="#md7965d1ba0" y="215.14175"/>
      </g>
     </g>
     <g id="line2d_40">
      <g>
       <use style="stroke:#000000;stroke-width:0.5;" x="516.699" xlink:href="#md9a1c1a7cd" y="215.14175"/>
      </g>
     </g>
     <g id="text_13">
      <!-- 2000 -->
      <g transform="translate(37.43525 218.453)scale(0.12 -0.12)">
       <use xlink:href="#DejaVuSans-32"/>
       <use x="63.623046875" xlink:href="#DejaVuSans-30"/>
       <use x="127.24609375" xlink:href="#DejaVuSans-30"/>
       <use x="190.869140625" xlink:href="#DejaVuSans-30"/>
      </g>
     </g>
    </g>
    <g id="ytick_6">
     <g id="line2d_41">
      <g>
       <use style="stroke:#000000;stroke-width:0.5;" x="70.299" xlink:href="#md7965d1ba0" y="176.74175"/>
      </g>
     </g>
     <g id="line2d_42">
      <g>
       <use style="stroke:#000000;stroke-width:0.5;" x="516.699" xlink:href="#md9a1c1a7cd" y="176.74175"/>
      </g>
     </g>
     <g id="text_14">
      <!-- 2500 -->
      <g transform="translate(37.43525 180.053)scale(0.12 -0.12)">
       <use xlink:href="#DejaVuSans-32"/>
       <use x="63.623046875" xlink:href="#DejaVuSans-35"/>
       <use x="127.24609375" xlink:href="#DejaVuSans-30"/>
       <use x="190.869140625" xlink:href="#DejaVuSans-30"/>
      </g>
     </g>
    </g>
    <g id="ytick_7">
     <g id="line2d_43">
      <g>
       <use style="stroke:#000000;stroke-width:0.5;" x="70.299" xlink:href="#md7965d1ba0" y="138.34175"/>
      </g>
     </g>
     <g id="line2d_44">
      <g>
       <use style="stroke:#000000;stroke-width:0.5;" x="516.699" xlink:href="#md9a1c1a7cd" y="138.34175"/>
      </g>
     </g>
     <g id="text_15">
      <!-- 3000 -->
      <defs>
       <path d="
M40.5781 39.3125
Q47.6562 37.7969 51.625 33
Q55.6094 28.2188 55.6094 21.1875
Q55.6094 10.4062 48.1875 4.48438
Q40.7656 -1.42188 27.0938 -1.42188
Q22.5156 -1.42188 17.6562 -0.515625
Q12.7969 0.390625 7.625 2.20312
L7.625 11.7188
Q11.7188 9.32812 16.5938 8.10938
Q21.4844 6.89062 26.8125 6.89062
Q36.0781 6.89062 40.9375 10.5469
Q45.7969 14.2031 45.7969 21.1875
Q45.7969 27.6406 41.2812 31.2656
Q36.7656 34.9062 28.7188 34.9062
L20.2188 34.9062
L20.2188 43.0156
L29.1094 43.0156
Q36.375 43.0156 40.2344 45.9219
Q44.0938 48.8281 44.0938 54.2969
Q44.0938 59.9062 40.1094 62.9062
Q36.1406 65.9219 28.7188 65.9219
Q24.6562 65.9219 20.0156 65.0312
Q15.375 64.1562 9.8125 62.3125
L9.8125 71.0938
Q15.4375 72.6562 20.3438 73.4375
Q25.25 74.2188 29.5938 74.2188
Q40.8281 74.2188 47.3594 69.1094
Q53.9062 64.0156 53.9062 55.3281
Q53.9062 49.2656 50.4375 45.0938
Q46.9688 40.9219 40.5781 39.3125" id="DejaVuSans-33"/>
      </defs>
      <g transform="translate(37.470875 141.653)scale(0.12 -0.12)">
       <use xlink:href="#DejaVuSans-33"/>
       <use x="63.623046875" xlink:href="#DejaVuSans-30"/>
       <use x="127.24609375" xlink:href="#DejaVuSans-30"/>
       <use x="190.869140625" xlink:href="#DejaVuSans-30"/>
      </g>
     </g>
    </g>
    <g id="ytick_8">
     <g id="line2d_45">
      <g>
       <use style="stroke:#000000;stroke-width:0.5;" x="70.299" xlink:href="#md7965d1ba0" y="99.94175"/>
      </g>
     </g>
     <g id="line2d_46">
      <g>
       <use style="stroke:#000000;stroke-width:0.5;" x="516.699" xlink:href="#md9a1c1a7cd" y="99.94175"/>
      </g>
     </g>
     <g id="text_16">
      <!-- 3500 -->
      <g transform="translate(37.470875 103.253)scale(0.12 -0.12)">
       <use xlink:href="#DejaVuSans-33"/>
       <use x="63.623046875" xlink:href="#DejaVuSans-35"/>
       <use x="127.24609375" xlink:href="#DejaVuSans-30"/>
       <use x="190.869140625" xlink:href="#DejaVuSans-30"/>
      </g>
     </g>
    </g>
    <g id="ytick_9">
     <g id="line2d_47">
      <g>
       <use style="stroke:#000000;stroke-width:0.5;" x="70.299" xlink:href="#md7965d1ba0" y="61.54175"/>
      </g>
     </g>
     <g id="line2d_48">
      <g>
       <use style="stroke:#000000;stroke-width:0.5;" x="516.699" xlink:href="#md9a1c1a7cd" y="61.54175"/>
      </g>
     </g>
     <g id="text_17">
      <!-- 4000 -->
      <g transform="translate(37.14275 64.853)scale(0.12 -0.12)">
       <use xlink:href="#DejaVuSans-34"/>
       <use x="63.623046875" xlink:href="#DejaVuSans-30"/>
       <use x="127.24609375" xlink:href="#DejaVuSans-30"/>
       <use x="190.869140625" xlink:href="#DejaVuSans-30"/>
      </g>
     </g>
    </g>
    <g id="ytick_10">
     <g id="line2d_49">
      <g>
       <use style="stroke:#000000;stroke-width:0.5;" x="70.299" xlink:href="#md7965d1ba0" y="23.14175"/>
      </g>
     </g>
     <g id="line2d_50">
      <g>
       <use style="stroke:#000000;stroke-width:0.5;" x="516.699" xlink:href="#md9a1c1a7cd" y="23.14175"/>
      </g>
     </g>
     <g id="text_18">
      <!-- 4500 -->
      <g transform="translate(37.14275 26.453)scale(0.12 -0.12)">
       <use xlink:href="#DejaVuSans-34"/>
       <use x="63.623046875" xlink:href="#DejaVuSans-35"/>
       <use x="127.24609375" xlink:href="#DejaVuSans-30"/>
       <use x="190.869140625" xlink:href="#DejaVuSans-30"/>
      </g>
     </g>
    </g>
   </g>
   <g id="text_19">
    <!-- /runtime/count/action_invocation@set_value_action_hpx_counter_value change -->
    <defs>
     <path d="
M54.8906 33.0156
L54.8906 0
L45.9062 0
L45.9062 32.7188
Q45.9062 40.4844 42.875 44.3281
Q39.8438 48.1875 33.7969 48.1875
Q26.5156 48.1875 22.3125 43.5469
Q18.1094 38.9219 18.1094 30.9062
L18.1094 0
L9.07812 0
L9.07812 54.6875
L18.1094 54.6875
L18.1094 46.1875
Q21.3438 51.125 25.7031 53.5625
Q30.0781 56 35.7969 56
Q45.2188 56 50.0469 50.1719
Q54.8906 44.3438 54.8906 33.0156" id="DejaVuSans-6e"/>
     <path d="
M18.1094 8.20312
L18.1094 -20.7969
L9.07812 -20.7969
L9.07812 54.6875
L18.1094 54.6875
L18.1094 46.3906
Q20.9531 51.2656 25.2656 53.625
Q29.5938 56 35.5938 56
Q45.5625 56 51.7812 48.0938
Q58.0156 40.1875 58.0156 27.2969
Q58.0156 14.4062 51.7812 6.48438
Q45.5625 -1.42188 35.5938 -1.42188
Q29.5938 -1.42188 25.2656 0.953125
Q20.9531 3.32812 18.1094 8.20312
M48.6875 27.2969
Q48.6875 37.2031 44.6094 42.8438
Q40.5312 48.4844 33.4062 48.4844
Q26.2656 48.4844 22.1875 42.8438
Q18.1094 37.2031 18.1094 27.2969
Q18.1094 17.3906 22.1875 11.75
Q26.2656 6.10938 33.4062 6.10938
Q40.5312 6.10938 44.6094 11.75
Q48.6875 17.3906 48.6875 27.2969" id="DejaVuSans-70"/>
     <path d="
M41.1094 46.2969
Q39.5938 47.1719 37.8125 47.5781
Q36.0312 48 33.8906 48
Q26.2656 48 22.1875 43.0469
Q18.1094 38.0938 18.1094 28.8125
L18.1094 0
L9.07812 0
L9.07812 54.6875
L18.1094 54.6875
L18.1094 46.1875
Q20.9531 51.1719 25.4844 53.5781
Q30.0312 56 36.5312 56
Q37.4531 56 38.5781 55.875
Q39.7031 55.7656 41.0625 55.5156
z
" id="DejaVuSans-72"/>
     <path d="
M34.2812 27.4844
Q23.3906 27.4844 19.1875 25
Q14.9844 22.5156 14.9844 16.5
Q14.9844 11.7188 18.1406 8.90625
Q21.2969 6.10938 26.7031 6.10938
Q34.1875 6.10938 38.7031 11.4062
Q43.2188 16.7031 43.2188 25.4844
L43.2188 27.4844
z

M52.2031 31.2031
L52.2031 0
L43.2188 0
L43.2188 8.29688
Q40.1406 3.32812 35.5469 0.953125
Q30.9531 -1.42188 24.3125 -1.42188
Q15.9219 -1.42188 10.9531 3.29688
Q6 8.01562 6 15.9219
Q6 25.1406 12.1719 29.8281
Q18.3594 34.5156 30.6094 34.5156
L43.2188 34.5156
L43.2188 35.4062
Q43.2188 41.6094 39.1406 45
Q35.0625 48.3906 27.6875 48.3906
Q23 48.3906 18.5469 47.2656
Q14.1094 46.1406 10.0156 43.8906
L10.0156 52.2031
Q14.9375 54.1094 19.5781 55.0469
Q24.2188 56 28.6094 56
Q40.4844 56 46.3438 49.8438
Q52.2031 43.7031 52.2031 31.2031" id="DejaVuSans-61"/>
     <path d="
M48.7812 52.5938
L48.7812 44.1875
Q44.9688 46.2969 41.1406 47.3438
Q37.3125 48.3906 33.4062 48.3906
Q24.6562 48.3906 19.8125 42.8438
Q14.9844 37.3125 14.9844 27.2969
Q14.9844 17.2812 19.8125 11.7344
Q24.6562 6.20312 33.4062 6.20312
Q37.3125 6.20312 41.1406 7.25
Q44.9688 8.29688 48.7812 10.4062
L48.7812 2.09375
Q45.0156 0.34375 40.9844 -0.53125
Q36.9688 -1.42188 32.4219 -1.42188
Q20.0625 -1.42188 12.7812 6.34375
Q5.51562 14.1094 5.51562 27.2969
Q5.51562 40.6719 12.8594 48.3281
Q20.2188 56 33.0156 56
Q37.1562 56 41.1094 55.1406
Q45.0625 54.2969 48.7812 52.5938" id="DejaVuSans-63"/>
     <path d="
M37.2031 26.2188
Q37.2031 19.2344 40.6719 15.25
Q44.1406 11.2812 50.2031 11.2812
Q56.2031 11.2812 59.6406 15.2812
Q63.0938 19.2812 63.0938 26.2188
Q63.0938 33.0625 59.5781 37.0781
Q56.0625 41.1094 50.0938 41.1094
Q44.1875 41.1094 40.6875 37.1094
Q37.2031 33.1094 37.2031 26.2188
M63.8125 11.625
Q60.8906 7.85938 57.1094 6.07812
Q53.3281 4.29688 48.2969 4.29688
Q39.8906 4.29688 34.6406 10.375
Q29.3906 16.4531 29.3906 26.2188
Q29.3906 35.9844 34.6562 42.0781
Q39.9375 48.1875 48.2969 48.1875
Q53.3281 48.1875 57.125 46.3594
Q60.9375 44.5312 63.8125 40.8281
L63.8125 47.2188
L70.7969 47.2188
L70.7969 11.2812
Q77.9375 12.3594 81.9531 17.7969
Q85.9844 23.25 85.9844 31.8906
Q85.9844 37.1094 84.4375 41.7031
Q82.9062 46.2969 79.7812 50.2031
Q74.7031 56.5938 67.4062 59.9844
Q60.1094 63.375 51.5156 63.375
Q45.5156 63.375 39.9844 61.7812
Q34.4688 60.2031 29.7812 57.0781
Q22.125 52.0938 17.7969 44.0156
Q13.4844 35.9375 13.4844 26.5156
Q13.4844 18.75 16.2812 11.9531
Q19.0938 5.17188 24.4219 0
Q29.5469 -5.07812 36.2812 -7.73438
Q43.0156 -10.4062 50.6875 -10.4062
Q56.9844 -10.4062 63.0625 -8.28125
Q69.1406 -6.15625 74.2188 -2.20312
L78.6094 -7.625
Q72.5156 -12.3594 65.3125 -14.875
Q58.1094 -17.3906 50.6875 -17.3906
Q41.6562 -17.3906 33.6406 -14.1875
Q25.6406 -10.9844 19.3906 -4.89062
Q13.1406 1.21875 9.85938 9.25
Q6.59375 17.2812 6.59375 26.5156
Q6.59375 35.4062 9.90625 43.4531
Q13.2344 51.5156 19.3906 57.625
Q25.6875 63.8125 33.9375 67.1094
Q42.1875 70.4062 51.4219 70.4062
Q61.7656 70.4062 70.625 66.1562
Q79.5 61.9219 85.5 54.1094
Q89.1562 49.3125 91.0781 43.7031
Q93.0156 38.0938 93.0156 32.0781
Q93.0156 19.2344 85.25 11.8125
Q77.4844 4.39062 63.8125 4.10938
z
" id="DejaVuSans-40"/>
     <path d="
M9.42188 75.9844
L18.4062 75.9844
L18.4062 0
L9.42188 0
z
" id="DejaVuSans-6c"/>
     <path d="
M30.6094 48.3906
Q23.3906 48.3906 19.1875 42.75
Q14.9844 37.1094 14.9844 27.2969
Q14.9844 17.4844 19.1562 11.8438
Q23.3438 6.20312 30.6094 6.20312
Q37.7969 6.20312 41.9844 11.8594
Q46.1875 17.5312 46.1875 27.2969
Q46.1875 37.0156 41.9844 42.7031
Q37.7969 48.3906 30.6094 48.3906
M30.6094 56
Q42.3281 56 49.0156 48.375
Q55.7188 40.7656 55.7188 27.2969
Q55.7188 13.875 49.0156 6.21875
Q42.3281 -1.42188 30.6094 -1.42188
Q18.8438 -1.42188 12.1719 6.21875
Q5.51562 13.875 5.51562 27.2969
Q5.51562 40.7656 12.1719 48.375
Q18.8438 56 30.6094 56" id="DejaVuSans-6f"/>
     <path d="
M45.4062 27.9844
Q45.4062 37.75 41.375 43.1094
Q37.3594 48.4844 30.0781 48.4844
Q22.8594 48.4844 18.8281 43.1094
Q14.7969 37.75 14.7969 27.9844
Q14.7969 18.2656 18.8281 12.8906
Q22.8594 7.51562 30.0781 7.51562
Q37.3594 7.51562 41.375 12.8906
Q45.4062 18.2656 45.4062 27.9844
M54.3906 6.78125
Q54.3906 -7.17188 48.1875 -13.9844
Q42 -20.7969 29.2031 -20.7969
Q24.4688 -20.7969 20.2656 -20.0938
Q16.0625 -19.3906 12.1094 -17.9219
L12.1094 -9.1875
Q16.0625 -11.3281 19.9219 -12.3438
Q23.7812 -13.375 27.7812 -13.375
Q36.625 -13.375 41.0156 -8.76562
Q45.4062 -4.15625 45.4062 5.17188
L45.4062 9.625
Q42.625 4.78125 38.2812 2.39062
Q33.9375 0 27.875 0
Q17.8281 0 11.6719 7.65625
Q5.51562 15.3281 5.51562 27.9844
Q5.51562 40.6719 11.6719 48.3281
Q17.8281 56 27.875 56
Q33.9375 56 38.2812 53.6094
Q42.625 51.2188 45.4062 46.3906
L45.4062 54.6875
L54.3906 54.6875
z
" id="DejaVuSans-67"/>
     <path d="
M44.2812 53.0781
L44.2812 44.5781
Q40.4844 46.5312 36.375 47.5
Q32.2812 48.4844 27.875 48.4844
Q21.1875 48.4844 17.8438 46.4375
Q14.5 44.3906 14.5 40.2812
Q14.5 37.1562 16.8906 35.375
Q19.2812 33.5938 26.5156 31.9844
L29.5938 31.2969
Q39.1562 29.25 43.1875 25.5156
Q47.2188 21.7812 47.2188 15.0938
Q47.2188 7.46875 41.1875 3.01562
Q35.1562 -1.42188 24.6094 -1.42188
Q20.2188 -1.42188 15.4531 -0.5625
Q10.6875 0.296875 5.42188 2
L5.42188 11.2812
Q10.4062 8.6875 15.2344 7.39062
Q20.0625 6.10938 24.8125 6.10938
Q31.1562 6.10938 34.5625 8.28125
Q37.9844 10.4531 37.9844 14.4062
Q37.9844 18.0625 35.5156 20.0156
Q33.0625 21.9688 24.7031 23.7812
L21.5781 24.5156
Q13.2344 26.2656 9.51562 29.9062
Q5.8125 33.5469 5.8125 39.8906
Q5.8125 47.6094 11.2812 51.7969
Q16.75 56 26.8125 56
Q31.7812 56 36.1719 55.2656
Q40.5781 54.5469 44.2812 53.0781" id="DejaVuSans-73"/>
     <path d="
M54.8906 54.6875
L35.1094 28.0781
L55.9062 0
L45.3125 0
L29.3906 21.4844
L13.4844 0
L2.875 0
L24.125 28.6094
L4.6875 54.6875
L15.2812 54.6875
L29.7812 35.2031
L44.2812 54.6875
z
" id="DejaVuSans-78"/>
     <path d="
M50.9844 -16.6094
L50.9844 -23.5781
L-0.984375 -23.5781
L-0.984375 -16.6094
z
" id="DejaVuSans-5f"/>
     <path d="
M8.5 21.5781
L8.5 54.6875
L17.4844 54.6875
L17.4844 21.9219
Q17.4844 14.1562 20.5 10.2656
Q23.5312 6.39062 29.5938 6.39062
Q36.8594 6.39062 41.0781 11.0312
Q45.3125 15.6719 45.3125 23.6875
L45.3125 54.6875
L54.2969 54.6875
L54.2969 0
L45.3125 0
L45.3125 8.40625
Q42.0469 3.42188 37.7188 1
Q33.4062 -1.42188 27.6875 -1.42188
Q18.2656 -1.42188 13.375 4.4375
Q8.5 10.2969 8.5 21.5781
M31.1094 56
z
" id="DejaVuSans-75"/>
     <path d="
M25.3906 72.9062
L33.6875 72.9062
L8.29688 -9.28125
L0 -9.28125
z
" id="DejaVuSans-2f"/>
     <path d="
M54.8906 33.0156
L54.8906 0
L45.9062 0
L45.9062 32.7188
Q45.9062 40.4844 42.875 44.3281
Q39.8438 48.1875 33.7969 48.1875
Q26.5156 48.1875 22.3125 43.5469
Q18.1094 38.9219 18.1094 30.9062
L18.1094 0
L9.07812 0
L9.07812 75.9844
L18.1094 75.9844
L18.1094 46.1875
Q21.3438 51.125 25.7031 53.5625
Q30.0781 56 35.7969 56
Q45.2188 56 50.0469 50.1719
Q54.8906 44.3438 54.8906 33.0156" id="DejaVuSans-68"/>
     <path id="DejaVuSans-20"/>
     <path d="
M2.98438 54.6875
L12.5 54.6875
L29.5938 8.79688
L46.6875 54.6875
L56.2031 54.6875
L35.6875 0
L23.4844 0
z
" id="DejaVuSans-76"/>
    </defs>
    <g transform="translate(7.2 18.14175)scale(0.144 -0.144)">
     <use xlink:href="#DejaVuSans-2f"/>
     <use x="33.69140625" xlink:href="#DejaVuSans-72"/>
     <use x="74.8046875" xlink:href="#DejaVuSans-75"/>
     <use x="138.18359375" xlink:href="#DejaVuSans-6e"/>
     <use x="201.5625" xlink:href="#DejaVuSans-74"/>
     <use x="240.771484375" xlink:href="#DejaVuSans-69"/>
     <use x="268.5546875" xlink:href="#DejaVuSans-6d"/>
     <use x="365.966796875" xlink:href="#DejaVuSans-65"/>
     <use x="427.490234375" xlink:href="#DejaVuSans-2f"/>
     <use x="461.181640625" xlink:href="#DejaVuSans-63"/>
     <use x="516.162109375" xlink:href="#DejaVuSans-6f"/>
     <use x="577.34375" xlink:href="#DejaVuSans-75"/>
     <use x="640.72265625" xlink:href="#DejaVuSans-6e"/>
     <use x="704.1015625" xlink:href="#DejaVuSans-74"/>
     <use x="743.310546875" xlink:href="#DejaVuSans-2f"/>
     <use x="777.001953125" xlink:href="#DejaVuSans-61"/>
     <use x="838.28125" xlink:href="#DejaVuSans-63"/>
     <use x="893.26171875" xlink:href="#DejaVuSans-74"/>
     <use x="932.470703125" xlink:href="#DejaVuSans-69"/>
     <use x="960.25390625" xlink:href="#DejaVuSans-6f"/>
     <use x="1021.435546875" xlink:href="#DejaVuSans-6e"/>
     <use x="1084.814453125" xlink:href="#DejaVuSans-5f"/>
     <use x="1134.814453125" xlink:href="#DejaVuSans-69"/>
     <use x="1162.59765625" xlink:href="#DejaVuSans-6e"/>
     <use x="1225.9765625" xlink:href="#DejaVuSans-76"/>
     <use x="1285.15625" xlink:href="#DejaVuSans-6f"/>
     <use x="1346.337890625" xlink:href="#DejaVuSans-63"/>
     <use x="1401.318359375" xlink:href="#DejaVuSans-61"/>
     <use x="1462.59765625" xlink:href="#DejaVuSans-74"/>
     <use x="1501.806640625" xlink:href="#DejaVuSans-69"/>
     <use x="1529.58984375" xlink:href="#DejaVuSans-6f"/>
     <use x="1590.771484375" xlink:href="#DejaVuSans-6e"/>
     <use x="1654.150390625" xlink:href="#DejaVuSans-40"/>
     <use x="1754.150390625" xlink:href="#DejaVuSans-73"/>
     <use x="1806.25" xlink:href="#DejaVuSans-65"/>
     <use x="1867.7734375" xlink:href="#DejaVuSans-74"/>
     <use x="1906.982421875" xlink:href="#DejaVuSans-5f"/>
     <use x="1956.982421875" xlink:href="#DejaVuSans-76"/>
     <use x="2016.162109375" xlink:href="#DejaVuSans-61"/>
     <use x="2077.44140625" xlink:href="#DejaVuSans-6c"/>
     <use x="2105.224609375" xlink:href="#DejaVuSans-75"/>
     <use x="2168.603515625" xlink:href="#DejaVuSans-65"/>
     <use x="2230.126953125" xlink:href="#DejaVuSans-5f"/>
     <use x="2280.126953125" xlink:href="#DejaVuSans-61"/>
     <use x="2341.40625" xlink:href="#DejaVuSans-63"/>
     <use x="2396.38671875" xlink:href="#DejaVuSans-74"/>
     <use x="2435.595703125" xlink:href="#DejaVuSans-69"/>
     <use x="2463.37890625" xlink:href="#DejaVuSans-6f"/>
     <use x="2524.560546875" xlink:href="#DejaVuSans-6e"/>
     <use x="2587.939453125" xlink:href="#DejaVuSans-5f"/>
     <use x="2637.939453125" xlink:href="#DejaVuSans-68"/>
     <use x="2701.318359375" xlink:href="#DejaVuSans-70"/>
     <use x="2764.794921875" xlink:href="#DejaVuSans-78"/>
     <use x="2823.974609375" xlink:href="#DejaVuSans-5f"/>
     <use x="2873.974609375" xlink:href="#DejaVuSans-63"/>
     <use x="2928.955078125" xlink:href="#DejaVuSans-6f"/>
     <use x="2990.13671875" xlink:href="#DejaVuSans-75"/>
     <use x="3053.515625" xlink:href="#DejaVuSans-6e"/>
     <use x="3116.89453125" xlink:href="#DejaVuSans-74"/>
     <use x="3156.103515625" xlink:href="#DejaVuSans-65"/>
     <use x="3217.626953125" xlink:href="#DejaVuSans-72"/>
     <use x="3258.740234375" xlink:href="#DejaVuSans-5f"/>
     <use x="3308.740234375" xlink:href="#DejaVuSans-76"/>
     <use x="3367.919921875" xlink:href="#DejaVuSans-61"/>
     <use x="3429.19921875" xlink:href="#DejaVuSans-6c"/>
     <use x="3456.982421875" xlink:href="#DejaVuSans-75"/>
     <use x="3520.361328125" xlink:href="#DejaVuSans-65"/>
     <use x="3581.884765625" xlink:href="#DejaVuSans-20"/>
     <use x="3613.671875" xlink:href="#DejaVuSans-63"/>
     <use x="3668.65234375" xlink:href="#DejaVuSans-68"/>
     <use x="3732.03125" xlink:href="#DejaVuSans-61"/>
     <use x="3793.310546875" xlink:href="#DejaVuSans-6e"/>
     <use x="3856.689453125" xlink:href="#DejaVuSans-67"/>
     <use x="3920.166015625" xlink:href="#DejaVuSans-65"/>
    </g>
   </g>
   <g id="legend_1">
    <g id="patch_7">
     <path d="
M523.899 367.194
L655.688 367.194
L655.688 24.6897
L523.899 24.6897
z
" style="fill:#ffffff;stroke:#000000;stroke-linejoin:miter;"/>
    </g>
    <g id="line2d_51">
     <path d="
M533.979 36.3515
L554.139 36.3515" style="fill:none;stroke:#0000ff;stroke-linecap:square;"/>
    </g>
    <g id="line2d_52"/>
    <g id="text_20">
     <!-- locality#0 -->
     <defs>
      <path d="
M51.125 44
L36.9219 44
L32.8125 27.6875
L47.125 27.6875
z

M43.7969 71.7812
L38.7188 51.5156
L52.9844 51.5156
L58.1094 71.7812
L65.9219 71.7812
L60.8906 51.5156
L76.125 51.5156
L76.125 44
L58.9844 44
L54.9844 27.6875
L70.5156 27.6875
L70.5156 20.2188
L53.0781 20.2188
L48 0
L40.1875 0
L45.2188 20.2188
L30.9062 20.2188
L25.875 0
L18.0156 0
L23.0938 20.2188
L7.71875 20.2188
L7.71875 27.6875
L24.9062 27.6875
L29 44
L13.2812 44
L13.2812 51.5156
L30.9062 51.5156
L35.8906 71.7812
z
" id="DejaVuSans-23"/>
      <path d="
M32.1719 -5.07812
Q28.375 -14.8438 24.75 -17.8125
Q21.1406 -20.7969 15.0938 -20.7969
L7.90625 -20.7969
L7.90625 -13.2812
L13.1875 -13.2812
Q16.8906 -13.2812 18.9375 -11.5156
Q21 -9.76562 23.4844 -3.21875
L25.0938 0.875
L2.98438 54.6875
L12.5 54.6875
L29.5938 11.9219
L46.6875 54.6875
L56.2031 54.6875
z
" id="DejaVuSans-79"/>
     </defs>
     <g transform="translate(569.979 41.3915)scale(0.144 -0.144)">
      <use xlink:href="#DejaVuSans-6c"/>
      <use x="27.783203125" xlink:href="#DejaVuSans-6f"/>
      <use x="88.96484375" xlink:href="#DejaVuSans-63"/>
      <use x="143.9453125" xlink:href="#DejaVuSans-61"/>
      <use x="205.224609375" xlink:href="#DejaVuSans-6c"/>
      <use x="233.0078125" xlink:href="#DejaVuSans-69"/>
      <use x="260.791015625" xlink:href="#DejaVuSans-74"/>
      <use x="300.0" xlink:href="#DejaVuSans-79"/>
      <use x="359.1796875" xlink:href="#DejaVuSans-23"/>
      <use x="442.96875" xlink:href="#DejaVuSans-30"/>
     </g>
    </g>
    <g id="line2d_53">
     <path d="
M533.979 57.488
L554.139 57.488" style="fill:none;stroke:#008000;stroke-linecap:square;"/>
    </g>
    <g id="line2d_54"/>
    <g id="text_21">
     <!-- locality#1 -->
     <g transform="translate(569.979 62.528)scale(0.144 -0.144)">
      <use xlink:href="#DejaVuSans-6c"/>
      <use x="27.783203125" xlink:href="#DejaVuSans-6f"/>
      <use x="88.96484375" xlink:href="#DejaVuSans-63"/>
      <use x="143.9453125" xlink:href="#DejaVuSans-61"/>
      <use x="205.224609375" xlink:href="#DejaVuSans-6c"/>
      <use x="233.0078125" xlink:href="#DejaVuSans-69"/>
      <use x="260.791015625" xlink:href="#DejaVuSans-74"/>
      <use x="300.0" xlink:href="#DejaVuSans-79"/>
      <use x="359.1796875" xlink:href="#DejaVuSans-23"/>
      <use x="442.96875" xlink:href="#DejaVuSans-31"/>
     </g>
    </g>
    <g id="line2d_55">
     <path d="
M533.979 78.6245
L554.139 78.6245" style="fill:none;stroke:#ff0000;stroke-linecap:square;"/>
    </g>
    <g id="line2d_56"/>
    <g id="text_22">
     <!-- locality#10 -->
     <g transform="translate(569.979 83.6645)scale(0.144 -0.144)">
      <use xlink:href="#DejaVuSans-6c"/>
      <use x="27.783203125" xlink:href="#DejaVuSans-6f"/>
      <use x="88.96484375" xlink:href="#DejaVuSans-63"/>
      <use x="143.9453125" xlink:href="#DejaVuSans-61"/>
      <use x="205.224609375" xlink:href="#DejaVuSans-6c"/>
      <use x="233.0078125" xlink:href="#DejaVuSans-69"/>
      <use x="260.791015625" xlink:href="#DejaVuSans-74"/>
      <use x="300.0" xlink:href="#DejaVuSans-79"/>
      <use x="359.1796875" xlink:href="#DejaVuSans-23"/>
      <use x="442.96875" xlink:href="#DejaVuSans-31"/>
      <use x="506.591796875" xlink:href="#DejaVuSans-30"/>
     </g>
    </g>
    <g id="line2d_57">
     <path d="
M533.979 99.761
L554.139 99.761" style="fill:none;stroke:#00bfbf;stroke-linecap:square;"/>
    </g>
    <g id="line2d_58"/>
    <g id="text_23">
     <!-- locality#11 -->
     <g transform="translate(569.979 104.801)scale(0.144 -0.144)">
      <use xlink:href="#DejaVuSans-6c"/>
      <use x="27.783203125" xlink:href="#DejaVuSans-6f"/>
      <use x="88.96484375" xlink:href="#DejaVuSans-63"/>
      <use x="143.9453125" xlink:href="#DejaVuSans-61"/>
      <use x="205.224609375" xlink:href="#DejaVuSans-6c"/>
      <use x="233.0078125" xlink:href="#DejaVuSans-69"/>
      <use x="260.791015625" xlink:href="#DejaVuSans-74"/>
      <use x="300.0" xlink:href="#DejaVuSans-79"/>
      <use x="359.1796875" xlink:href="#DejaVuSans-23"/>
      <use x="442.96875" xlink:href="#DejaVuSans-31"/>
      <use x="506.591796875" xlink:href="#DejaVuSans-31"/>
     </g>
    </g>
    <g id="line2d_59">
     <path d="
M533.979 120.897
L554.139 120.897" style="fill:none;stroke:#bf00bf;stroke-linecap:square;"/>
    </g>
    <g id="line2d_60"/>
    <g id="text_24">
     <!-- locality#12 -->
     <g transform="translate(569.979 125.9375)scale(0.144 -0.144)">
      <use xlink:href="#DejaVuSans-6c"/>
      <use x="27.783203125" xlink:href="#DejaVuSans-6f"/>
      <use x="88.96484375" xlink:href="#DejaVuSans-63"/>
      <use x="143.9453125" xlink:href="#DejaVuSans-61"/>
      <use x="205.224609375" xlink:href="#DejaVuSans-6c"/>
      <use x="233.0078125" xlink:href="#DejaVuSans-69"/>
      <use x="260.791015625" xlink:href="#DejaVuSans-74"/>
      <use x="300.0" xlink:href="#DejaVuSans-79"/>
      <use x="359.1796875" xlink:href="#DejaVuSans-23"/>
      <use x="442.96875" xlink:href="#DejaVuSans-31"/>
      <use x="506.591796875" xlink:href="#DejaVuSans-32"/>
     </g>
    </g>
    <g id="line2d_61">
     <path d="
M533.979 142.034
L554.139 142.034" style="fill:none;stroke:#bfbf00;stroke-linecap:square;"/>
    </g>
    <g id="line2d_62"/>
    <g id="text_25">
     <!-- locality#13 -->
     <g transform="translate(569.979 147.074)scale(0.144 -0.144)">
      <use xlink:href="#DejaVuSans-6c"/>
      <use x="27.783203125" xlink:href="#DejaVuSans-6f"/>
      <use x="88.96484375" xlink:href="#DejaVuSans-63"/>
      <use x="143.9453125" xlink:href="#DejaVuSans-61"/>
      <use x="205.224609375" xlink:href="#DejaVuSans-6c"/>
      <use x="233.0078125" xlink:href="#DejaVuSans-69"/>
      <use x="260.791015625" xlink:href="#DejaVuSans-74"/>
      <use x="300.0" xlink:href="#DejaVuSans-79"/>
      <use x="359.1796875" xlink:href="#DejaVuSans-23"/>
      <use x="442.96875" xlink:href="#DejaVuSans-31"/>
      <use x="506.591796875" xlink:href="#DejaVuSans-33"/>
     </g>
    </g>
    <g id="line2d_63">
     <path d="
M533.979 163.17
L554.139 163.17" style="fill:none;stroke:#000000;stroke-linecap:square;"/>
    </g>
    <g id="line2d_64"/>
    <g id="text_26">
     <!-- locality#14 -->
     <g transform="translate(569.979 168.2105)scale(0.144 -0.144)">
      <use xlink:href="#DejaVuSans-6c"/>
      <use x="27.783203125" xlink:href="#DejaVuSans-6f"/>
      <use x="88.96484375" xlink:href="#DejaVuSans-63"/>
      <use x="143.9453125" xlink:href="#DejaVuSans-61"/>
      <use x="205.224609375" xlink:href="#DejaVuSans-6c"/>
      <use x="233.0078125" xlink:href="#DejaVuSans-69"/>
      <use x="260.791015625" xlink:href="#DejaVuSans-74"/>
      <use x="300.0" xlink:href="#DejaVuSans-79"/>
      <use x="359.1796875" xlink:href="#DejaVuSans-23"/>
      <use x="442.96875" xlink:href="#DejaVuSans-31"/>
      <use x="506.591796875" xlink:href="#DejaVuSans-34"/>
     </g>
    </g>
    <g id="line2d_65">
     <path d="
M533.979 184.307
L554.139 184.307" style="fill:none;stroke:#0000ff;stroke-linecap:square;"/>
    </g>
    <g id="line2d_66"/>
    <g id="text_27">
     <!-- locality#15 -->
     <g transform="translate(569.979 189.347)scale(0.144 -0.144)">
      <use xlink:href="#DejaVuSans-6c"/>
      <use x="27.783203125" xlink:href="#DejaVuSans-6f"/>
      <use x="88.96484375" xlink:href="#DejaVuSans-63"/>
      <use x="143.9453125" xlink:href="#DejaVuSans-61"/>
      <use x="205.224609375" xlink:href="#DejaVuSans-6c"/>
      <use x="233.0078125" xlink:href="#DejaVuSans-69"/>
      <use x="260.791015625" xlink:href="#DejaVuSans-74"/>
      <use x="300.0" xlink:href="#DejaVuSans-79"/>
      <use x="359.1796875" xlink:href="#DejaVuSans-23"/>
      <use x="442.96875" xlink:href="#DejaVuSans-31"/>
      <use x="506.591796875" xlink:href="#DejaVuSans-35"/>
     </g>
    </g>
    <g id="line2d_67">
     <path d="
M533.979 205.443
L554.139 205.443" style="fill:none;stroke:#008000;stroke-linecap:square;"/>
    </g>
    <g id="line2d_68"/>
    <g id="text_28">
     <!-- locality#2 -->
     <g transform="translate(569.979 210.4835)scale(0.144 -0.144)">
      <use xlink:href="#DejaVuSans-6c"/>
      <use x="27.783203125" xlink:href="#DejaVuSans-6f"/>
      <use x="88.96484375" xlink:href="#DejaVuSans-63"/>
      <use x="143.9453125" xlink:href="#DejaVuSans-61"/>
      <use x="205.224609375" xlink:href="#DejaVuSans-6c"/>
      <use x="233.0078125" xlink:href="#DejaVuSans-69"/>
      <use x="260.791015625" xlink:href="#DejaVuSans-74"/>
      <use x="300.0" xlink:href="#DejaVuSans-79"/>
      <use x="359.1796875" xlink:href="#DejaVuSans-23"/>
      <use x="442.96875" xlink:href="#DejaVuSans-32"/>
     </g>
    </g>
    <g id="line2d_69">
     <path d="
M533.979 226.58
L554.139 226.58" style="fill:none;stroke:#ff0000;stroke-linecap:square;"/>
    </g>
    <g id="line2d_70"/>
    <g id="text_29">
     <!-- locality#3 -->
     <g transform="translate(569.979 231.62)scale(0.144 -0.144)">
      <use xlink:href="#DejaVuSans-6c"/>
      <use x="27.783203125" xlink:href="#DejaVuSans-6f"/>
      <use x="88.96484375" xlink:href="#DejaVuSans-63"/>
      <use x="143.9453125" xlink:href="#DejaVuSans-61"/>
      <use x="205.224609375" xlink:href="#DejaVuSans-6c"/>
      <use x="233.0078125" xlink:href="#DejaVuSans-69"/>
      <use x="260.791015625" xlink:href="#DejaVuSans-74"/>
      <use x="300.0" xlink:href="#DejaVuSans-79"/>
      <use x="359.1796875" xlink:href="#DejaVuSans-23"/>
      <use x="442.96875" xlink:href="#DejaVuSans-33"/>
     </g>
    </g>
    <g id="line2d_71">
     <path d="
M533.979 247.716
L554.139 247.716" style="fill:none;stroke:#00bfbf;stroke-linecap:square;"/>
    </g>
    <g id="line2d_72"/>
    <g id="text_30">
     <!-- locality#4 -->
     <g transform="translate(569.979 252.7565)scale(0.144 -0.144)">
      <use xlink:href="#DejaVuSans-6c"/>
      <use x="27.783203125" xlink:href="#DejaVuSans-6f"/>
      <use x="88.96484375" xlink:href="#DejaVuSans-63"/>
      <use x="143.9453125" xlink:href="#DejaVuSans-61"/>
      <use x="205.224609375" xlink:href="#DejaVuSans-6c"/>
      <use x="233.0078125" xlink:href="#DejaVuSans-69"/>
      <use x="260.791015625" xlink:href="#DejaVuSans-74"/>
      <use x="300.0" xlink:href="#DejaVuSans-79"/>
      <use x="359.1796875" xlink:href="#DejaVuSans-23"/>
      <use x="442.96875" xlink:href="#DejaVuSans-34"/>
     </g>
    </g>
    <g id="line2d_73">
     <path d="
M533.979 268.853
L554.139 268.853" style="fill:none;stroke:#bf00bf;stroke-linecap:square;"/>
    </g>
    <g id="line2d_74"/>
    <g id="text_31">
     <!-- locality#5 -->
     <g transform="translate(569.979 273.893)scale(0.144 -0.144)">
      <use xlink:href="#DejaVuSans-6c"/>
      <use x="27.783203125" xlink:href="#DejaVuSans-6f"/>
      <use x="88.96484375" xlink:href="#DejaVuSans-63"/>
      <use x="143.9453125" xlink:href="#DejaVuSans-61"/>
      <use x="205.224609375" xlink:href="#DejaVuSans-6c"/>
      <use x="233.0078125" xlink:href="#DejaVuSans-69"/>
      <use x="260.791015625" xlink:href="#DejaVuSans-74"/>
      <use x="300.0" xlink:href="#DejaVuSans-79"/>
      <use x="359.1796875" xlink:href="#DejaVuSans-23"/>
      <use x="442.96875" xlink:href="#DejaVuSans-35"/>
     </g>
    </g>
    <g id="line2d_75">
     <path d="
M533.979 289.989
L554.139 289.989" style="fill:none;stroke:#bfbf00;stroke-linecap:square;"/>
    </g>
    <g id="line2d_76"/>
    <g id="text_32">
     <!-- locality#6 -->
     <g transform="translate(569.979 295.0295)scale(0.144 -0.144)">
      <use xlink:href="#DejaVuSans-6c"/>
      <use x="27.783203125" xlink:href="#DejaVuSans-6f"/>
      <use x="88.96484375" xlink:href="#DejaVuSans-63"/>
      <use x="143.9453125" xlink:href="#DejaVuSans-61"/>
      <use x="205.224609375" xlink:href="#DejaVuSans-6c"/>
      <use x="233.0078125" xlink:href="#DejaVuSans-69"/>
      <use x="260.791015625" xlink:href="#DejaVuSans-74"/>
      <use x="300.0" xlink:href="#DejaVuSans-79"/>
      <use x="359.1796875" xlink:href="#DejaVuSans-23"/>
      <use x="442.96875" xlink:href="#DejaVuSans-36"/>
     </g>
    </g>
    <g id="line2d_77">
     <path d="
M533.979 311.126
L554.139 311.126" style="fill:none;stroke:#000000;stroke-linecap:square;"/>
    </g>
    <g id="line2d_78"/>
    <g id="text_33">
     <!-- locality#7 -->
     <defs>
      <path d="
M8.20312 72.9062
L55.0781 72.9062
L55.0781 68.7031
L28.6094 0
L18.3125 0
L43.2188 64.5938
L8.20312 64.5938
z
" id="DejaVuSans-37"/>
     </defs>
     <g transform="translate(569.979 316.166)scale(0.144 -0.144)">
      <use xlink:href="#DejaVuSans-6c"/>
      <use x="27.783203125" xlink:href="#DejaVuSans-6f"/>
      <use x="88.96484375" xlink:href="#DejaVuSans-63"/>
      <use x="143.9453125" xlink:href="#DejaVuSans-61"/>
      <use x="205.224609375" xlink:href="#DejaVuSans-6c"/>
      <use x="233.0078125" xlink:href="#DejaVuSans-69"/>
      <use x="260.791015625" xlink:href="#DejaVuSans-74"/>
      <use x="300.0" xlink:href="#DejaVuSans-79"/>
      <use x="359.1796875" xlink:href="#DejaVuSans-23"/>
      <use x="442.96875" xlink:href="#DejaVuSans-37"/>
     </g>
    </g>
    <g id="line2d_79">
     <path d="
M533.979 332.262
L554.139 332.262" style="fill:none;stroke:#0000ff;stroke-linecap:square;"/>
    </g>
    <g id="line2d_80"/>
    <g id="text_34">
     <!-- locality#8 -->
     <g transform="translate(569.979 337.3025)scale(0.144 -0.144)">
      <use xlink:href="#DejaVuSans-6c"/>
      <use x="27.783203125" xlink:href="#DejaVuSans-6f"/>
      <use x="88.96484375" xlink:href="#DejaVuSans-63"/>
      <use x="143.9453125" xlink:href="#DejaVuSans-61"/>
      <use x="205.224609375" xlink:href="#DejaVuSans-6c"/>
      <use x="233.0078125" xlink:href="#DejaVuSans-69"/>
      <use x="260.791015625" xlink:href="#DejaVuSans-74"/>
      <use x="300.0" xlink:href="#DejaVuSans-79"/>
      <use x="359.1796875" xlink:href="#DejaVuSans-23"/>
      <use x="442.96875" xlink:href="#DejaVuSans-38"/>
     </g>
    </g>
    <g id="line2d_81">
     <path d="
M533.979 353.399
L554.139 353.399" style="fill:none;stroke:#008000;stroke-linecap:square;"/>
    </g>
    <g id="line2d_82"/>
    <g id="text_35">
     <!-- locality#9 -->
     <defs>
      <path d="
M10.9844 1.51562
L10.9844 10.5
Q14.7031 8.73438 18.5 7.8125
Q22.3125 6.89062 25.9844 6.89062
Q35.75 6.89062 40.8906 13.4531
Q46.0469 20.0156 46.7812 33.4062
Q43.9531 29.2031 39.5938 26.9531
Q35.25 24.7031 29.9844 24.7031
Q19.0469 24.7031 12.6719 31.3125
Q6.29688 37.9375 6.29688 49.4219
Q6.29688 60.6406 12.9375 67.4219
Q19.5781 74.2188 30.6094 74.2188
Q43.2656 74.2188 49.9219 64.5156
Q56.5938 54.8281 56.5938 36.375
Q56.5938 19.1406 48.4062 8.85938
Q40.2344 -1.42188 26.4219 -1.42188
Q22.7031 -1.42188 18.8906 -0.6875
Q15.0938 0.046875 10.9844 1.51562
M30.6094 32.4219
Q37.25 32.4219 41.125 36.9531
Q45.0156 41.5 45.0156 49.4219
Q45.0156 57.2812 41.125 61.8438
Q37.25 66.4062 30.6094 66.4062
Q23.9688 66.4062 20.0938 61.8438
Q16.2188 57.2812 16.2188 49.4219
Q16.2188 41.5 20.0938 36.9531
Q23.9688 32.4219 30.6094 32.4219" id="DejaVuSans-39"/>
     </defs>
     <g transform="translate(569.979 358.439)scale(0.144 -0.144)">
      <use xlink:href="#DejaVuSans-6c"/>
      <use x="27.783203125" xlink:href="#DejaVuSans-6f"/>
      <use x="88.96484375" xlink:href="#DejaVuSans-63"/>
      <use x="143.9453125" xlink:href="#DejaVuSans-61"/>
      <use x="205.224609375" xlink:href="#DejaVuSans-6c"/>
      <use x="233.0078125" xlink:href="#DejaVuSans-69"/>
      <use x="260.791015625" xlink:href="#DejaVuSans-74"/>
      <use x="300.0" xlink:href="#DejaVuSans-79"/>
      <use x="359.1796875" xlink:href="#DejaVuSans-23"/>
      <use x="442.96875" xlink:href="#DejaVuSans-39"/>
     </g>
    </g>
   </g>
  </g>
 </g>
 <defs>
  <clipPath id="p020d36cde1">
   <rect height="345.6" width="446.4" x="70.299" y="23.14175"/>
  </clipPath>
 </defs>
</svg>
