<?xml version="1.0" encoding="utf-8" standalone="no"?>
<!DOCTYPE svg PUBLIC "-//W3C//DTD SVG 1.1//EN"
  "http://www.w3.org/Graphics/SVG/1.1/DTD/svg11.dtd">
<!-- Created with matplotlib (http://matplotlib.org/) -->
<svg height="408pt" version="1.1" viewBox="0 0 662 408" width="662pt" xmlns="http://www.w3.org/2000/svg" xmlns:xlink="http://www.w3.org/1999/xlink">
 <defs>
  <style type="text/css">
*{stroke-linecap:butt;stroke-linejoin:round;}
  </style>
 </defs>
 <g id="figure_1">
  <g id="patch_1">
   <path d="
M0 408.169
L662.888 408.169
L662.888 0
L0 0
z
" style="fill:#ffffff;"/>
  </g>
  <g id="axes_1">
   <g id="patch_2">
    <path d="
M70.299 368.742
L516.699 368.742
L516.699 23.1417
L70.299 23.1417
z
" style="fill:#ffffff;"/>
   </g>
   <g id="line2d_1">
    <path clip-path="url(#p020d36cde1)" d="
M70.299 192.025
L70.4981 151.782
L70.8963 239.795
L71.0954 43.8009
L71.2945 166.681
L71.4936 185.804
L71.6928 129.356
L71.8919 166.835
L72.091 157.388
L72.2901 157.542
L72.4892 166.835
L72.6883 242.943
L72.8874 116.3
L73.0865 104.089
L73.2856 185.727
L73.4847 128.819
L73.6838 252.39
L73.8829 157.465
L74.0821 157.465
L74.2812 90.9561
L74.4803 223.974
L74.6794 157.465
L75.6749 157.465
L75.874 53.4009
L76.2722 245.939
L76.4713 157.465
L76.6705 157.465
L76.8696 127.667
L77.0687 187.263
L77.2678 157.465
L77.8651 157.465
L78.0642 43.7241
L78.4624 284.876
L78.6615 71.9865
L78.8606 118.143
L79.0597 282.265
L79.2589 53.0937
L79.458 129.049
L79.6571 290.252
L79.8562 34.2009
L80.2544 280.729
L80.4535 68.3001
L80.6526 132.966
L80.8517 157.311
L81.2499 157.619
L81.449 157.311
L81.6482 185.881
L81.8473 119.91
L82.2455 199.244
L82.6437 119.603
L82.8428 148.172
L83.0419 147.865
L83.241 176.281
L83.4401 148.095
L83.6392 148.095
L83.8383 290.099
L84.0374 81.3561
L84.2366 111.769
L84.4357 165.529
L84.8339 153.164
L85.033 160.076
L85.2321 148.556
L85.4312 151.321
L85.6303 279.5
L85.8294 61.6953
L86.0285 138.342
L86.2276 167.065
L86.4267 166.988
L86.825 144.486
L87.0241 199.091
L87.2232 147.481
L87.4223 129.587
L87.6214 166.835
L87.8205 147.942
L88.0196 140.646
L88.2187 177.049
L88.4178 154.854
L88.6169 155.238
L88.816 159.462
L89.0151 157.542
L89.2143 147.865
L89.4134 144.332
L89.6125 245.631
L89.8116 101.555
L90.0107 147.942
L90.2098 157.388
L90.4089 138.495
L90.608 176.511
L90.8071 152.78
L91.0062 143.103
L91.2053 167.295
L91.4044 147.711
L91.6035 195.251
L91.8027 129.203
L92.2009 162.764
L92.4 166.988
L92.5991 157.465
L92.7982 167.065
L92.9973 146.406
L93.1964 225.126
L93.3955 114.457
L93.5946 162.841
L93.7937 136.038
L93.9928 140.799
L94.192 148.787
L94.3911 166.374
L94.5902 160.537
L94.7893 172.441
L94.9884 139.647
L95.1875 166.604
L95.3866 152.473
L95.5857 162.611
L95.7848 157.388
L95.9839 157.465
L96.3821 141.183
L96.5812 218.982
L96.7804 102.707
L96.9795 290.406
L97.1786 43.4937
L97.3777 141.03
L97.5768 176.819
L97.7759 164.07
L97.975 128.972
L98.1741 219.212
L98.3732 114.687
L98.5723 157.465
L98.7714 149.094
L99.1697 166.911
L99.3688 155.468
L99.5679 197.247
L99.767 119.756
L100.165 185.881
L100.364 110.463
L100.563 188.415
L100.962 133.119
L101.161 167.065
L101.36 164.377
L101.559 126.975
L101.758 224.588
L101.957 113.843
L102.355 157.542
L102.554 214.374
L102.754 108.697
L102.953 145.791
L103.152 293.324
L103.351 72.5241
L103.749 161.843
L103.948 138.265
L104.147 165.836
L104.346 168.217
L104.546 157.542
L104.745 138.419
L105.143 201.779
L105.342 113.228
L105.541 157.465
L105.74 166.911
L105.939 166.988
L106.138 139.11
L106.338 166.451
L106.537 138.572
L106.935 166.911
L107.134 166.988
L107.333 145.484
L107.532 204.62
L107.731 119.372
L107.93 160.383
L108.13 138.419
L108.329 166.374
L108.528 167.526
L108.727 138.419
L109.125 176.435
L109.523 147.865
L109.722 166.988
L109.921 165.99
L110.121 149.017
L110.32 157.388
L110.519 157.542
L110.718 166.911
L110.917 125.439
L111.116 208.153
L111.315 129.279
L111.514 138.572
L111.713 176.358
L111.913 154.009
L112.112 160.767
L112.311 157.619
L112.51 148.095
L112.709 173.209
L112.908 140.339
L113.107 149.247
L113.306 168.755
L113.505 170.137
L113.705 152.55
L113.904 157.619
L114.103 143.718
L114.302 170.905
L114.501 157.619
L114.7 155.161
L114.899 143.257
L115.098 173.823
L115.297 138.649
L115.497 209.305
L115.696 124.518
L115.895 157.465
L116.094 138.495
L116.293 152.55
L116.492 216.14
L116.691 113.305
L116.89 166.297
L117.089 160.307
L117.288 145.638
L117.488 141.721
L117.687 189.107
L117.886 137.651
L118.085 170.982
L118.284 138.419
L118.483 166.451
L118.682 248.166
L118.881 76.7481
L119.08 138.419
L119.28 259.839
L119.479 70.5273
L119.678 142.105
L119.877 173.67
L120.076 160.383
L120.275 157.465
L120.474 157.311
L120.673 148.172
L120.872 157.388
L121.072 147.865
L121.271 157.542
L121.47 189.567
L121.669 144.255
L121.868 157.465
L122.067 138.803
L122.266 157.004
L122.465 284.569
L122.664 40.1913
L123.063 244.479
L123.262 108.927
L123.461 135.5
L123.66 262.604
L123.859 35.9673
L124.058 176.204
L124.257 138.342
L124.456 192.639
L124.655 141.875
L124.855 147.404
L125.054 148.019
L125.253 176.358
L125.452 138.572
L125.651 247.551
L125.85 86.0409
L126.049 138.879
L126.248 157.235
L126.447 228.198
L126.647 107.622
L126.846 164.377
L127.244 138.572
L127.443 199.398
L127.642 123.75
L128.04 171.212
L128.239 148.019
L128.439 185.267
L128.638 133.196
L128.837 194.559
L129.036 136.038
L129.235 161.228
L129.434 140.492
L129.633 169.523
L129.832 167.526
L130.031 127.667
L130.23 185.727
L130.43 145.791
L130.629 152.012
L130.828 169.215
L131.226 143.795
L131.425 157.695
L131.624 207.846
L131.823 122.06
L132.222 168.371
L132.421 155.007
L132.62 160.383
L133.018 138.572
L133.217 190.105
L133.416 134.579
L133.615 156.236
L133.814 158.233
L134.014 187.263
L134.213 146.79
L134.412 157.388
L134.611 135.27
L134.81 183.423
L135.009 125.516
L135.208 185.651
L135.407 156.851
L135.606 197.631
L135.806 109.849
L136.204 179.66
L136.403 135.193
L136.602 170.214
L136.801 163.763
L137 153.702
L137.199 171.443
L137.398 141.721
L137.597 143.871
L137.797 170.598
L137.996 163.455
L138.394 144.409
L138.593 168.217
L138.792 152.934
L138.991 166.681
L139.19 151.475
L139.389 162.687
L139.589 161.228
L139.987 145.331
L140.186 177.817
L140.385 144.025
L140.584 171.596
L140.982 139.187
L141.181 168.985
L141.381 159.846
L141.58 144.409
L141.779 177.894
L141.978 151.782
L142.177 141.107
L142.376 179.276
L142.575 145.254
L142.774 156.006
L142.973 149.094
L143.173 173.67
L143.372 141.414
L143.571 157.542
L143.77 164.454
L143.969 150.63
L144.168 175.974
L144.367 152.934
L144.566 155.238
L144.765 146.022
L144.964 178.278
L145.164 154.47
L145.363 158.31
L145.562 155.238
L145.761 140.646
L145.96 165.99
L146.159 166.758
L146.358 156.774
L146.557 139.878
L146.756 169.83
L146.956 155.238
L147.155 174.438
L147.354 131.43
L147.553 175.974
L147.752 133.734
L147.951 179.814
L148.349 132.966
L148.548 174.438
L148.748 162.918
L148.947 136.806
L149.146 172.134
L149.544 147.558
L149.743 177.51
L149.942 140.646
L150.141 159.078
L150.34 147.558
L150.539 174.438
L150.739 159.078
L150.938 133.734
L151.137 177.51
L151.336 151.398
L151.535 164.454
L151.734 141.414
L152.132 171.366
L152.331 154.47
L152.531 156.774
L152.73 144.486
L152.929 172.134
L153.128 142.95
L153.327 175.206
L153.526 152.934
L153.725 159.078
L153.924 146.79
L154.123 162.15
L154.323 149.094
L154.522 172.134
L154.721 155.238
L154.92 160.614
L155.119 152.166
L155.318 159.078
L155.517 144.486
L155.716 172.134
L155.915 142.182
L156.115 152.934
L156.314 172.902
L156.513 154.47
L156.911 164.454
L157.11 156.006
L157.309 155.238
L157.508 166.758
L157.707 134.502
L157.906 172.902
L158.106 142.182
L158.305 172.134
L158.504 142.182
L158.703 160.614
L158.902 154.47
L159.101 173.67
L159.3 132.198
L159.499 183.654
L159.698 154.47
L159.898 143.718
L160.097 171.366
L160.296 150.63
L160.495 169.83
L160.694 132.966
L160.893 165.222
L161.092 168.294
L161.291 142.95
L161.49 162.15
L161.69 152.166
L161.889 167.526
L162.088 149.094
L162.287 159.078
L162.486 155.238
L162.685 174.438
L162.884 154.47
L163.083 149.862
L163.282 162.15
L163.482 158.31
L163.681 146.022
L163.88 174.438
L164.079 139.11
L164.278 161.382
L164.477 169.062
L164.676 148.326
L164.875 160.614
L165.074 165.222
L165.273 153.702
L165.473 153.702
L165.672 156.774
L165.871 171.366
L166.07 133.734
L166.269 163.686
L166.468 159.846
L166.667 166.758
L166.866 146.79
L167.065 150.63
L167.265 159.078
L167.464 148.326
L167.663 173.67
L167.862 156.006
L168.061 163.686
L168.26 159.846
L168.459 149.094
L168.658 165.222
L168.857 157.542
L169.057 137.574
L169.256 163.686
L169.455 164.454
L169.654 152.934
L169.853 152.166
L170.251 171.366
L170.45 139.878
L170.849 168.294
L171.048 145.254
L171.247 169.062
L171.446 152.166
L171.645 159.846
L171.844 162.15
L172.043 159.846
L172.242 150.63
L172.441 154.47
L172.64 162.918
L172.84 154.47
L173.039 157.542
L173.238 157.542
L173.437 165.222
L173.636 149.862
L173.835 157.542
L174.034 156.006
L174.233 159.078
L174.432 158.31
L174.632 153.702
L174.831 158.31
L175.03 159.078
L175.229 156.006
L175.428 157.542
L175.627 157.542
L175.826 159.846
L176.224 154.47
L176.424 159.078
L176.623 157.542
L177.021 157.542
L177.22 154.47
L177.419 162.15
L177.618 152.166
L178.016 159.078
L178.216 156.774
L178.415 159.078
L178.614 157.542
L178.813 152.934
L179.012 162.15
L179.211 155.238
L179.41 153.702
L179.609 163.686
L179.808 150.63
L180.007 160.614
L180.207 157.542
L180.406 159.846
L180.605 167.526
L180.804 143.718
L181.003 159.078
L181.202 156.006
L181.401 164.454
L181.6 153.702
L181.799 165.222
L182.397 149.862
L182.596 155.238
L182.795 170.598
L182.994 154.47
L183.193 158.31
L183.392 156.006
L183.591 149.862
L184.189 164.454
L184.786 153.702
L184.985 149.862
L185.184 172.902
L185.383 151.398
L185.582 147.558
L185.782 152.166
L185.981 172.134
L186.18 144.486
L186.379 164.454
L186.578 156.006
L186.777 162.15
L186.976 153.702
L187.175 154.47
L187.374 167.526
L187.574 146.79
L187.773 166.758
L187.972 145.254
L188.171 170.598
L188.37 157.542
L188.569 156.006
L188.768 162.918
L188.967 155.238
L189.366 155.238
L189.565 159.846
L189.764 161.382
L189.963 156.006
L190.162 154.47
L190.361 159.078
L190.56 154.47
L190.759 160.614
L190.958 146.022
L191.158 160.614
L191.357 163.686
L191.556 158.31
L191.755 156.774
L191.954 156.774
L192.153 147.558
L192.352 159.846
L192.551 160.614
L192.75 165.222
L192.949 141.414
L193.149 172.134
L193.547 147.558
L193.746 158.31
L193.945 152.934
L194.144 162.918
L194.343 156.774
L194.542 154.47
L194.741 166.758
L194.941 149.094
L195.14 168.294
L195.339 159.078
L195.538 142.95
L195.737 161.382
L195.936 154.47
L196.135 163.686
L196.334 149.862
L196.533 156.006
L196.733 167.526
L196.932 149.862
L197.131 168.294
L197.33 155.238
L197.728 160.614
L198.126 149.862
L198.325 162.15
L198.525 158.31
L198.724 159.846
L198.923 156.006
L199.122 145.254
L199.321 162.15
L199.52 165.99
L199.719 155.238
L199.918 152.166
L200.117 164.454
L200.316 156.006
L200.516 159.078
L200.715 158.31
L200.914 156.006
L201.113 157.542
L201.312 144.486
L201.71 163.686
L202.108 154.47
L202.308 164.454
L202.507 152.934
L202.706 164.454
L202.905 160.614
L203.104 159.846
L203.303 149.094
L203.701 159.078
L203.9 154.47
L204.299 162.918
L204.498 156.006
L204.697 158.31
L204.896 153.702
L205.095 157.542
L205.294 151.398
L205.493 160.614
L205.692 159.846
L205.892 162.918
L206.091 151.398
L206.29 156.006
L206.489 152.934
L206.887 163.686
L207.086 148.326
L207.285 170.598
L207.484 147.558
L207.883 159.846
L208.281 155.238
L208.48 165.99
L208.679 155.238
L208.878 159.846
L209.077 150.63
L209.276 162.918
L209.475 157.542
L209.675 161.382
L209.874 157.542
L210.073 146.79
L210.272 159.078
L210.471 163.686
L210.67 156.774
L210.869 160.614
L211.068 149.094
L211.467 160.614
L211.666 158.31
L211.865 153.702
L212.064 157.542
L212.263 163.686
L212.462 152.934
L212.661 154.47
L212.86 168.294
L213.259 148.326
L213.458 159.078
L213.657 153.702
L213.856 165.222
L214.055 155.238
L214.254 152.934
L214.453 162.918
L214.652 152.166
L214.851 158.31
L215.05 158.31
L215.25 163.686
L215.449 151.398
L215.847 164.454
L216.046 153.702
L216.245 157.542
L216.444 155.238
L216.643 159.078
L216.842 155.238
L217.042 156.006
L217.241 165.222
L217.639 152.934
L217.838 152.934
L218.037 158.31
L218.236 159.078
L218.435 165.222
L218.634 148.326
L218.834 162.15
L219.033 155.238
L219.232 163.686
L219.431 156.774
L219.63 156.774
L219.829 152.934
L220.028 154.47
L220.227 160.614
L220.426 156.774
L220.625 157.542
L220.825 155.238
L221.223 163.686
L221.621 155.238
L221.82 162.15
L222.019 159.078
L222.218 153.702
L222.417 155.238
L222.617 158.31
L222.816 156.774
L223.015 156.774
L223.214 162.918
L223.612 149.094
L223.811 162.918
L224.209 156.006
L224.409 159.078
L224.608 156.774
L224.807 157.542
L225.006 156.006
L225.205 162.15
L225.404 145.254
L225.603 169.83
L225.802 147.558
L226.001 168.294
L226.4 146.79
L226.599 167.526
L226.798 156.774
L226.997 157.542
L227.196 156.006
L227.395 159.846
L227.594 156.774
L227.793 159.078
L228.192 149.862
L228.391 165.99
L228.59 154.47
L228.789 152.934
L228.988 162.918
L229.585 154.47
L229.784 158.31
L229.984 156.774
L230.183 159.078
L230.382 158.31
L230.581 153.702
L230.78 161.382
L231.178 147.558
L231.377 167.526
L231.576 158.31
L231.776 158.31
L231.975 155.238
L232.174 161.382
L232.373 152.166
L232.572 158.31
L232.771 159.846
L232.97 152.934
L233.169 160.614
L233.368 158.31
L233.568 146.022
L233.767 169.83
L233.966 154.47
L234.165 153.702
L234.364 155.238
L234.563 166.758
L234.762 152.166
L234.961 152.166
L235.16 156.774
L235.359 157.542
L235.559 167.526
L235.758 149.094
L235.957 154.47
L236.156 164.454
L236.355 152.166
L236.753 162.15
L236.952 162.15
L237.151 146.022
L237.351 165.99
L237.55 155.238
L237.749 153.702
L237.948 166.758
L238.147 148.326
L238.545 162.15
L238.943 156.006
L239.143 156.006
L239.342 155.238
L239.541 158.31
L239.74 163.686
L240.138 158.31
L240.337 142.95
L240.536 163.686
L240.935 152.166
L241.333 165.222
L241.532 155.238
L241.731 159.846
L241.93 153.702
L242.129 161.382
L242.328 157.542
L242.527 146.79
L242.726 165.222
L242.926 155.238
L243.125 162.15
L243.324 158.31
L243.523 158.31
L243.722 156.774
L243.921 152.934
L244.12 160.614
L244.319 151.398
L244.518 166.758
L244.718 154.47
L244.917 157.542
L245.116 152.166
L245.514 164.454
L245.713 151.398
L245.912 157.542
L246.111 159.078
L246.31 155.238
L246.51 158.31
L246.709 158.31
L246.908 159.078
L247.107 159.078
L247.306 156.006
L247.505 156.774
L247.704 155.238
L247.903 156.774
L248.102 161.382
L248.501 153.702
L248.7 156.774
L248.899 152.934
L249.098 164.454
L249.297 159.846
L249.496 149.862
L249.894 159.846
L250.093 153.702
L250.293 164.454
L250.492 157.542
L250.691 157.542
L250.89 153.702
L251.089 158.31
L251.288 158.31
L251.487 156.774
L251.686 162.15
L251.885 156.774
L252.085 159.078
L252.483 154.47
L252.682 162.918
L252.881 156.006
L253.08 154.47
L253.279 158.31
L253.478 158.31
L253.677 154.47
L253.877 160.614
L254.076 159.078
L254.275 156.006
L254.474 156.774
L254.673 159.846
L254.872 153.702
L255.071 155.238
L255.27 160.614
L255.469 152.934
L255.668 156.006
L255.868 163.686
L256.266 156.774
L256.465 158.31
L256.863 154.47
L257.062 159.078
L257.261 157.542
L257.46 157.542
L257.66 155.238
L257.859 155.238
L258.058 161.382
L258.456 154.47
L258.655 159.846
L258.854 159.078
L259.053 156.774
L259.252 158.31
L259.452 154.47
L259.85 159.078
L260.049 157.542
L260.248 157.542
L260.646 156.006
L260.845 164.454
L261.044 152.166
L261.244 160.614
L261.443 155.238
L261.642 156.774
L261.841 156.006
L262.04 157.542
L262.239 157.542
L262.438 155.238
L262.637 162.918
L262.836 154.47
L263.035 158.31
L263.235 157.542
L263.633 155.238
L263.832 160.614
L264.031 159.846
L264.23 150.63
L264.429 162.918
L264.827 156.006
L265.027 156.774
L265.226 156.006
L265.425 159.078
L265.624 156.006
L266.022 159.846
L266.221 157.542
L266.42 157.542
L266.619 153.702
L267.018 162.15
L267.217 154.47
L267.416 156.774
L267.615 156.006
L267.814 158.31
L268.013 158.31
L268.212 156.006
L268.411 159.078
L268.81 157.542
L269.009 152.934
L269.208 161.382
L269.606 156.006
L269.805 158.31
L270.004 157.542
L270.203 155.238
L270.402 159.078
L270.602 156.774
L270.801 152.166
L271 162.918
L271.199 157.542
L271.398 159.078
L271.597 156.774
L271.796 156.774
L271.995 156.006
L272.194 152.934
L272.394 160.614
L272.593 154.47
L272.792 164.454
L272.991 153.702
L273.19 159.846
L273.389 157.542
L273.588 158.31
L273.787 152.934
L273.986 156.774
L274.186 162.918
L274.385 156.006
L274.584 158.31
L274.982 156.774
L275.181 154.47
L275.38 161.382
L275.579 155.238
L275.778 156.006
L275.978 157.542
L276.177 156.006
L276.376 163.686
L276.575 151.398
L276.774 160.614
L276.973 159.078
L277.172 156.006
L277.371 157.542
L277.769 156.006
L278.168 156.006
L278.367 158.31
L278.566 156.774
L278.765 161.382
L278.964 157.542
L279.163 158.31
L279.362 152.934
L279.561 161.382
L279.761 154.47
L280.159 161.382
L280.358 152.166
L280.557 162.15
L280.756 155.238
L280.955 158.31
L281.154 153.702
L281.353 157.542
L281.553 158.31
L281.752 158.31
L281.951 157.542
L282.15 156.006
L282.349 156.774
L282.548 158.31
L282.747 156.774
L282.946 158.31
L283.145 156.006
L283.344 159.078
L283.544 156.774
L283.743 157.542
L284.141 157.542
L284.34 156.774
L284.539 158.31
L284.738 156.774
L284.937 163.686
L285.136 151.398
L285.535 163.686
L285.734 148.326
L286.132 163.686
L286.331 154.47
L286.53 153.702
L286.729 157.542
L286.928 163.686
L287.128 153.702
L287.327 155.238
L287.526 158.31
L287.725 159.078
L287.924 161.382
L288.123 152.166
L288.322 155.238
L288.521 160.614
L288.72 156.006
L288.92 155.238
L289.119 163.686
L289.318 154.47
L289.517 159.078
L289.716 154.47
L289.915 159.078
L290.114 158.31
L290.313 156.006
L290.512 162.918
L290.711 150.63
L290.911 159.846
L291.11 154.47
L291.309 157.542
L291.508 157.542
L291.707 159.078
L291.906 155.238
L292.105 157.542
L292.304 157.542
L292.503 158.31
L292.703 157.542
L292.902 158.31
L293.101 158.31
L293.3 153.702
L293.499 159.078
L293.897 157.542
L294.096 156.006
L294.295 158.31
L294.495 158.31
L294.694 153.702
L294.893 159.846
L295.092 157.542
L295.49 157.542
L295.689 156.006
L296.087 158.31
L296.287 156.774
L296.486 159.078
L296.884 156.774
L297.083 159.846
L297.282 155.238
L297.481 156.006
L297.879 159.846
L298.078 154.47
L298.278 156.006
L298.477 159.078
L298.676 156.774
L298.875 165.99
L299.074 148.326
L299.273 159.078
L299.472 158.31
L299.671 155.238
L299.87 157.542
L300.07 156.774
L300.269 162.918
L300.468 152.934
L300.667 159.078
L300.866 155.238
L301.065 157.542
L301.264 161.382
L301.463 155.238
L301.662 156.774
L301.862 156.006
L302.26 160.614
L302.658 158.31
L302.857 152.934
L303.056 163.686
L303.255 151.398
L303.454 162.15
L303.654 152.166
L304.052 164.454
L304.251 149.862
L304.45 155.238
L304.649 164.454
L304.848 156.006
L305.047 152.934
L305.246 165.222
L305.445 152.934
L305.645 159.078
L306.043 157.542
L306.242 152.166
L306.441 162.918
L306.64 152.166
L306.839 158.31
L307.038 159.078
L307.237 155.238
L307.437 155.238
L307.636 162.15
L307.835 152.934
L308.034 159.078
L308.233 160.614
L308.432 154.47
L308.83 161.382
L309.029 161.382
L309.229 154.47
L309.428 152.166
L309.627 156.774
L309.826 157.542
L310.025 157.542
L310.224 163.686
L310.423 153.702
L310.622 163.686
L310.821 158.31
L311.02 157.542
L311.22 148.326
L311.419 157.542
L311.618 157.542
L311.817 165.222
L312.016 152.166
L312.215 159.078
L312.414 159.846
L312.613 158.31
L312.812 153.702
L313.012 162.15
L313.211 150.63
L313.41 159.846
L313.609 159.078
L313.808 159.078
L314.007 151.398
L314.206 163.686
L314.405 149.094
L314.604 167.526
L314.804 153.702
L315.003 157.542
L315.202 157.542
L315.401 159.078
L315.6 156.006
L315.799 158.31
L315.998 149.862
L316.197 166.758
L316.396 158.31
L316.596 156.006
L316.795 150.63
L316.994 165.222
L317.193 159.078
L317.392 146.79
L317.591 159.078
L317.79 156.774
L317.989 166.758
L318.188 146.79
L318.587 165.99
L318.985 150.63
L319.184 161.382
L319.383 159.078
L319.582 149.862
L319.98 163.686
L320.179 160.614
L320.578 150.63
L320.777 157.542
L320.976 156.774
L321.175 157.542
L321.374 156.774
L321.772 162.15
L322.171 153.702
L322.37 162.918
L322.569 162.15
L322.768 149.094
L322.967 162.918
L323.365 152.934
L323.564 157.542
L323.763 155.238
L323.963 156.006
L324.162 162.15
L324.56 159.846
L324.759 152.934
L324.958 155.238
L325.157 162.918
L325.356 156.774
L325.555 160.614
L325.754 152.166
L325.954 162.15
L326.153 158.31
L326.352 158.31
L326.551 151.398
L326.949 162.918
L327.148 150.63
L327.546 162.918
L327.746 151.398
L327.945 161.382
L328.144 158.31
L328.343 157.542
L328.542 155.238
L328.741 163.686
L328.94 150.63
L329.139 160.614
L329.338 156.774
L329.538 159.846
L329.737 152.166
L329.936 161.382
L330.334 151.398
L330.533 165.222
L330.732 156.774
L330.931 159.846
L331.33 155.238
L331.529 159.846
L331.728 156.774
L331.927 156.006
L332.126 152.934
L332.325 165.222
L332.524 156.006
L332.922 158.31
L333.321 154.47
L333.52 158.31
L333.719 159.846
L333.918 159.078
L334.117 155.238
L334.316 156.006
L334.515 158.31
L334.714 157.542
L334.913 162.918
L335.113 152.166
L335.312 159.846
L335.511 154.47
L335.909 159.846
L336.307 156.006
L336.506 157.542
L336.705 157.542
L336.905 158.31
L337.104 156.774
L337.303 156.774
L337.701 158.31
L337.9 153.702
L338.099 159.846
L338.298 151.398
L338.497 162.15
L338.697 159.846
L338.896 155.238
L339.095 158.31
L339.294 156.774
L339.493 162.15
L339.692 152.166
L339.891 158.31
L340.09 156.774
L340.289 159.078
L340.488 156.006
L340.688 158.31
L340.887 154.47
L341.086 165.222
L341.285 149.094
L341.484 164.454
L341.683 151.398
L341.882 159.078
L342.28 154.47
L342.48 159.078
L342.679 158.31
L342.878 159.846
L343.077 154.47
L343.276 159.078
L343.475 155.238
L343.674 161.382
L343.873 159.846
L344.072 152.934
L344.272 158.31
L344.471 152.166
L344.67 160.614
L345.068 156.006
L345.267 158.31
L345.466 158.31
L345.665 159.846
L345.864 154.47
L346.063 158.31
L346.263 153.702
L346.462 159.078
L346.661 161.382
L346.86 156.774
L347.059 155.238
L347.258 161.382
L347.457 153.702
L347.656 157.542
L347.855 158.31
L348.055 156.774
L348.254 158.31
L348.453 156.774
L348.652 156.774
L348.851 157.542
L349.05 157.542
L349.249 156.774
L349.448 159.078
L349.647 156.006
L349.847 156.774
L350.046 158.31
L350.643 156.006
L350.842 159.846
L351.439 156.006
L351.639 158.31
L351.838 156.006
L352.037 159.846
L352.236 157.542
L352.435 158.31
L352.634 153.702
L352.833 159.846
L353.032 159.846
L353.231 156.006
L353.43 154.47
L353.63 159.846
L353.829 159.078
L354.028 152.166
L354.227 162.15
L354.426 153.702
L354.625 159.078
L354.824 157.542
L355.023 159.846
L355.222 158.31
L355.422 153.702
L355.621 158.31
L355.82 154.47
L356.019 163.686
L356.218 155.238
L356.417 158.31
L356.616 153.702
L356.815 161.382
L357.014 153.702
L357.214 159.846
L357.612 156.774
L357.811 158.31
L358.01 155.238
L358.209 159.846
L358.408 153.702
L358.607 159.078
L358.806 154.47
L359.006 160.614
L359.205 156.774
L359.404 157.542
L359.603 156.774
L359.802 158.31
L360.001 158.31
L360.598 156.006
L360.797 159.846
L360.997 155.238
L361.196 156.006
L361.594 161.382
L361.793 153.702
L361.992 159.078
L362.191 156.006
L362.39 158.31
L362.589 156.774
L362.789 158.31
L363.187 156.774
L363.386 156.774
L363.585 156.006
L363.784 162.918
L363.983 153.702
L364.182 159.078
L364.381 155.238
L364.581 160.614
L364.78 157.542
L364.979 157.542
L365.178 155.238
L365.377 160.614
L365.576 155.238
L365.775 160.614
L366.173 152.934
L366.373 163.686
L366.572 152.934
L366.771 161.382
L366.97 157.542
L367.169 158.31
L367.368 154.47
L367.567 156.006
L367.766 159.846
L367.965 160.614
L368.164 155.238
L368.364 155.238
L368.563 159.078
L368.762 159.846
L368.961 153.702
L369.16 160.614
L369.359 157.542
L369.558 159.846
L369.757 152.934
L369.956 158.31
L370.156 155.238
L370.355 162.15
L370.554 152.934
L370.952 160.614
L371.151 156.774
L371.35 155.238
L371.549 158.31
L371.748 159.078
L371.948 158.31
L372.147 156.006
L372.545 158.31
L372.744 156.006
L372.943 159.078
L373.142 154.47
L373.341 157.542
L373.54 157.542
L373.739 158.31
L373.939 156.006
L374.138 157.542
L374.337 157.542
L374.536 159.846
L374.735 156.774
L374.934 156.774
L375.332 158.31
L375.531 156.006
L375.731 157.542
L375.93 157.542
L376.129 156.774
L376.328 158.31
L376.527 156.774
L376.726 158.31
L376.925 157.542
L377.124 155.238
L377.323 158.31
L377.523 158.31
L377.921 156.774
L378.12 159.846
L378.319 156.774
L378.518 159.078
L378.717 156.006
L378.916 156.774
L379.115 155.238
L379.315 158.31
L379.514 159.078
L379.713 158.31
L379.912 156.774
L380.111 156.774
L380.31 156.006
L380.509 158.31
L380.708 157.542
L381.306 157.542
L381.505 159.078
L381.704 156.774
L381.903 156.774
L382.102 158.31
L382.301 158.31
L382.699 156.774
L382.898 158.31
L383.098 156.006
L383.496 159.846
L383.894 155.238
L384.093 158.31
L384.292 159.078
L384.491 154.47
L384.69 159.078
L385.089 157.542
L385.288 158.31
L385.487 154.47
L385.885 160.614
L386.084 156.774
L386.283 159.078
L386.482 152.934
L386.682 162.15
L386.881 155.238
L387.08 157.542
L387.279 157.542
L387.478 154.47
L387.677 160.614
L387.876 157.542
L388.075 151.398
L388.274 160.614
L388.473 158.31
L388.673 157.542
L388.872 159.078
L389.071 157.542
L389.27 153.702
L389.469 162.15
L389.668 154.47
L389.867 159.078
L390.066 158.31
L390.465 158.31
L390.863 153.702
L391.062 162.15
L391.261 149.862
L391.46 162.918
L391.659 157.542
L391.858 155.238
L392.057 158.31
L392.257 159.078
L392.456 154.47
L392.655 160.614
L392.854 155.238
L393.053 159.846
L393.252 156.774
L393.451 157.542
L393.65 152.166
L393.849 163.686
L394.049 156.774
L394.248 159.078
L394.447 153.702
L394.646 159.078
L394.845 158.31
L395.044 156.774
L395.243 158.31
L395.641 154.47
L395.84 162.15
L396.04 156.774
L396.239 157.542
L396.438 152.166
L396.637 163.686
L396.836 153.702
L397.234 159.078
L397.433 155.238
L397.632 159.078
L397.832 158.31
L398.031 154.47
L398.23 159.846
L398.827 156.006
L399.026 162.15
L399.225 155.238
L399.424 154.47
L399.624 160.614
L399.823 153.702
L400.022 162.15
L400.221 155.238
L400.619 159.078
L400.818 154.47
L401.017 156.774
L401.216 156.774
L401.416 157.542
L401.615 159.846
L401.814 159.846
L402.013 156.774
L402.212 156.006
L402.61 157.542
L402.809 159.078
L403.008 156.006
L403.207 155.238
L403.407 159.846
L403.606 155.238
L404.004 159.078
L404.402 156.774
L404.601 162.15
L404.8 153.702
L405.199 158.31
L405.597 159.846
L405.796 151.398
L405.995 160.614
L406.194 157.542
L406.393 158.31
L406.592 156.006
L406.791 158.31
L407.389 156.006
L407.588 159.078
L407.986 156.006
L408.185 158.31
L408.583 158.31
L408.782 156.774
L408.982 159.078
L409.181 156.006
L409.38 157.542
L409.579 156.774
L409.778 156.774
L409.977 159.078
L410.176 156.774
L410.375 158.31
L410.574 157.542
L410.774 157.542
L410.973 156.774
L411.172 157.542
L411.371 156.774
L411.57 158.31
L411.769 157.542
L411.968 157.542
L412.167 156.774
L412.366 157.542
L412.566 157.542
L412.765 158.31
L412.964 156.006
L413.163 159.078
L413.561 155.238
L413.76 160.614
L413.959 156.774
L414.158 155.238
L414.358 156.774
L414.557 159.846
L414.756 157.542
L414.955 156.774
L415.154 156.774
L415.353 159.846
L415.552 159.078
L415.751 155.238
L416.149 157.542
L416.548 157.542
L416.747 156.774
L416.946 158.31
L417.145 156.774
L417.344 157.542
L417.543 157.542
L417.742 156.006
L417.941 159.078
L418.141 156.006
L418.34 158.31
L418.539 158.31
L418.738 156.774
L418.937 158.31
L419.136 156.774
L419.335 158.31
L419.534 156.774
L419.733 158.31
L419.933 156.006
L420.132 157.542
L420.331 156.006
L420.53 159.846
L420.729 157.542
L420.928 156.774
L421.127 158.31
L421.326 158.31
L421.525 156.006
L421.725 157.542
L422.123 157.542
L422.521 156.006
L422.919 158.31
L423.118 158.31
L423.317 157.542
L423.516 157.542
L423.716 155.238
L423.915 160.614
L424.114 159.846
L424.313 153.702
L424.512 157.542
L424.711 157.542
L424.91 156.774
L425.109 158.31
L425.308 157.542
L425.508 157.542
L425.707 158.31
L425.906 155.238
L426.105 158.31
L426.304 157.542
L426.503 155.238
L426.702 157.542
L426.901 157.542
L427.1 159.846
L427.3 156.006
L427.499 161.382
L427.698 152.934
L427.897 156.774
L428.096 157.542
L428.295 160.614
L428.693 156.774
L428.892 155.238
L429.291 158.31
L429.49 157.542
L429.689 159.078
L429.888 158.31
L430.087 159.078
L430.286 152.166
L430.485 158.31
L430.883 160.614
L431.083 153.702
L431.282 156.006
L431.481 156.774
L431.68 159.846
L432.078 157.542
L432.277 159.846
L432.476 156.006
L432.675 160.614
L432.875 156.006
L433.074 155.238
L433.273 160.614
L433.472 155.238
L433.671 159.846
L433.87 151.398
L434.069 159.846
L434.268 160.614
L434.467 156.774
L434.667 155.238
L434.866 156.774
L435.065 160.614
L435.264 156.006
L435.463 156.006
L435.662 155.238
L435.861 161.382
L436.06 159.078
L436.459 152.166
L436.658 165.222
L436.857 151.398
L437.056 162.918
L437.255 152.934
L437.454 161.382
L437.852 156.774
L438.051 157.542
L438.25 152.166
L438.45 160.614
L438.649 161.382
L438.848 149.094
L439.047 162.918
L439.644 152.166
L439.843 166.758
L440.042 153.702
L440.242 157.542
L440.441 156.006
L440.64 158.31
L440.839 158.31
L441.038 152.166
L441.237 161.382
L441.436 159.846
L441.635 150.63
L441.834 162.918
L442.034 152.166
L442.233 162.918
L442.432 157.542
L442.631 158.31
L442.83 157.542
L443.029 151.398
L443.228 163.686
L443.427 153.702
L443.626 159.846
L443.825 156.774
L444.025 159.078
L444.224 150.63
L444.423 164.454
L444.622 151.398
L444.821 160.614
L445.219 158.31
L445.418 152.166
L445.817 162.15
L446.016 153.702
L446.215 159.078
L446.414 155.238
L446.812 160.614
L447.011 156.006
L447.21 154.47
L447.409 160.614
L447.609 158.31
L447.808 158.31
L448.007 152.934
L448.206 159.846
L448.405 159.078
L448.604 160.614
L448.803 149.094
L449.002 158.31
L449.201 157.542
L449.401 157.542
L449.6 159.078
L449.799 155.238
L449.998 159.078
L450.197 156.774
L450.396 156.774
L450.595 157.542
L450.794 157.542
L450.993 156.774
L451.192 157.542
L451.392 157.542
L451.591 158.31
L451.79 156.774
L451.989 157.542
L452.188 157.542
L452.387 159.078
L452.785 156.006
L452.984 157.542
L453.184 157.542
L453.383 156.774
L453.582 158.31
L453.781 156.774
L453.98 157.542
L454.179 159.846
L454.378 156.774
L454.577 156.006
L454.776 157.542
L454.976 156.774
L455.374 159.078
L455.573 156.774
L455.971 156.774
L456.17 157.542
L456.369 157.542
L456.568 156.774
L456.768 158.31
L457.166 156.774
L457.365 158.31
L457.564 156.774
L457.763 157.542
L458.759 157.542
L458.958 159.846
L459.157 158.31
L459.356 153.702
L459.555 157.542
L459.754 157.542
L460.152 159.846
L460.351 153.702
L460.551 157.542
L460.75 157.542
L460.949 156.774
L461.148 157.542
L461.347 157.542
L461.546 158.31
L461.745 158.31
L461.944 156.006
L462.143 157.542
L462.343 157.542
L462.542 156.774
L462.741 157.542
L463.139 157.542
L463.338 158.31
L463.537 157.542
L463.736 160.614
L463.935 154.47
L464.135 156.774
L464.334 157.542
L465.727 157.542
L465.926 156.774
L466.126 157.542
L466.325 157.542
L466.524 156.774
L466.723 158.31
L466.922 157.542
L467.519 157.542
L467.718 156.774
L467.918 158.31
L468.117 156.774
L468.316 159.846
L468.515 155.238
L468.714 157.542
L468.913 158.31
L469.112 158.31
L469.311 156.006
L469.51 158.31
L469.71 156.006
L470.108 159.078
L470.307 156.006
L470.705 159.078
L470.904 156.774
L471.302 156.774
L471.501 158.31
L471.701 158.31
L471.9 156.774
L472.298 156.774
L472.497 159.078
L472.696 156.006
L472.895 158.31
L473.094 158.31
L473.293 156.774
L473.493 157.542
L474.09 157.542
L474.289 156.774
L474.488 158.31
L474.886 156.774
L475.085 158.31
L475.484 156.774
L475.683 156.774
L475.882 159.078
L476.081 156.774
L476.28 157.542
L476.479 157.542
L476.678 156.006
L476.877 159.078
L477.077 156.006
L477.276 159.846
L477.475 156.006
L477.674 157.542
L477.873 156.774
L478.271 158.31
L478.47 156.774
L478.669 157.542
L479.665 157.542
L479.864 156.774
L480.063 157.542
L480.86 157.542
L481.059 156.774
L481.258 157.542
L481.656 157.542
L482.054 159.078
L482.253 155.238
L482.452 158.31
L482.652 156.774
L483.05 158.31
L483.249 156.006
L483.448 159.078
L483.647 156.774
L483.846 156.774
L484.045 157.542
L484.444 157.542
L484.643 159.078
L484.842 156.006
L485.041 157.542
L485.24 157.542
L485.439 156.774
L485.837 158.31
L486.235 156.774
L486.435 157.542
L486.833 157.542
L487.032 156.774
L487.231 157.542
L487.629 157.542
L487.828 158.31
L488.027 156.774
L488.227 157.542
L488.426 159.846
L488.625 154.47
L489.023 159.078
L489.421 156.006
L489.62 158.31
L489.819 156.774
L490.218 159.078
L490.417 154.47
L490.616 159.078
L490.815 156.774
L491.014 158.31
L491.213 156.774
L491.412 156.774
L491.611 159.078
L491.811 156.006
L492.01 159.846
L492.209 156.006
L492.408 157.542
L492.607 157.542
L493.005 159.078
L493.204 156.006
L493.403 156.006
L493.802 159.078
L494.001 159.078
L494.2 155.238
L494.399 158.31
L494.598 156.774
L494.797 158.31
L494.996 156.774
L495.195 158.31
L495.394 157.542
L495.594 156.006
L495.793 156.774
L495.992 159.078
L496.191 157.542
L496.589 157.542
L496.788 156.774
L496.987 158.31
L497.186 156.006
L497.386 157.542
L497.585 156.774
L497.784 159.078
L497.983 157.542
L498.182 159.078
L498.381 157.542
L498.58 154.47
L498.779 158.31
L498.978 156.006
L499.178 157.542
L499.377 157.542
L499.576 156.774
L499.775 159.846
L499.974 156.006
L500.173 156.774
L500.372 161.382
L500.571 155.238
L500.77 157.542
L500.969 156.774
L501.169 157.542
L501.368 157.542
L501.567 156.774
L501.766 158.31
L501.965 157.542
L502.164 157.542
L502.363 156.774
L502.562 159.846
L502.761 155.238
L502.961 156.006
L503.16 159.846
L503.359 156.774
L503.558 158.31
L503.757 157.542
L503.956 155.238
L504.155 158.31
L504.354 158.31
L504.553 157.542
L504.753 158.31
L504.952 158.31
L505.151 156.006
L505.35 159.078
L505.549 154.47
L505.748 159.846
L505.947 156.006
L506.146 159.078
L506.345 157.542
L506.544 157.542
L506.744 158.31
L506.943 153.702
L507.142 160.614
L507.341 157.542
L507.54 157.542
L507.739 159.078
L507.938 154.47
L508.137 158.31
L508.336 157.542
L508.536 159.846
L508.735 156.006
L508.934 159.078
L509.133 155.238
L509.332 154.47
L509.531 160.614
L509.73 154.47
L509.929 159.846
L510.527 156.006
L510.726 159.846
L510.925 154.47
L511.124 160.614
L511.323 156.006
L511.522 157.542
L511.721 156.774
L511.92 158.31
L512.12 158.31
L512.319 155.238
L512.518 160.614
L512.717 153.702
L512.916 159.078
L513.115 154.47
L513.314 159.078
L513.513 156.006
L513.911 159.078
L514.111 156.006
L514.509 157.542
L514.708 160.614
L514.907 156.006
L515.106 156.006
L515.305 158.31
L515.504 158.31
L515.703 156.006
L515.903 159.078
L516.102 156.774
L516.301 156.774
L516.5 158.31
L516.699 156.774
L516.699 156.774" style="fill:none;stroke:#0000ff;stroke-linecap:square;"/>
   </g>
   <g id="line2d_2">
    <path clip-path="url(#p020d36cde1)" d="
M70.299 368.742
L516.699 368.742
L516.699 368.742" style="fill:none;stroke:#008000;stroke-linecap:square;"/>
   </g>
   <g id="line2d_3">
    <path clip-path="url(#p020d36cde1)" d="
M70.299 368.742
L516.699 368.742
L516.699 368.742" style="fill:none;stroke:#ff0000;stroke-linecap:square;"/>
   </g>
   <g id="line2d_4">
    <path clip-path="url(#p020d36cde1)" d="
M70.299 368.742
L516.699 368.742
L516.699 368.742" style="fill:none;stroke:#00bfbf;stroke-linecap:square;"/>
   </g>
   <g id="line2d_5">
    <path clip-path="url(#p020d36cde1)" d="
M70.299 368.742
L516.699 368.742
L516.699 368.742" style="fill:none;stroke:#bf00bf;stroke-linecap:square;"/>
   </g>
   <g id="line2d_6">
    <path clip-path="url(#p020d36cde1)" d="
M70.299 368.742
L516.699 368.742
L516.699 368.742" style="fill:none;stroke:#bfbf00;stroke-linecap:square;"/>
   </g>
   <g id="line2d_7">
    <path clip-path="url(#p020d36cde1)" d="
M70.299 368.742
L516.699 368.742
L516.699 368.742" style="fill:none;stroke:#000000;stroke-linecap:square;"/>
   </g>
   <g id="line2d_8">
    <path clip-path="url(#p020d36cde1)" d="
M70.299 368.742
L516.699 368.742
L516.699 368.742" style="fill:none;stroke:#0000ff;stroke-linecap:square;"/>
   </g>
   <g id="line2d_9">
    <path clip-path="url(#p020d36cde1)" d="
M70.299 368.742
L516.699 368.742
L516.699 368.742" style="fill:none;stroke:#008000;stroke-linecap:square;"/>
   </g>
   <g id="line2d_10">
    <path clip-path="url(#p020d36cde1)" d="
M70.299 368.742
L516.699 368.742
L516.699 368.742" style="fill:none;stroke:#ff0000;stroke-linecap:square;"/>
   </g>
   <g id="line2d_11">
    <path clip-path="url(#p020d36cde1)" d="
M70.299 368.742
L516.699 368.742
L516.699 368.742" style="fill:none;stroke:#00bfbf;stroke-linecap:square;"/>
   </g>
   <g id="line2d_12">
    <path clip-path="url(#p020d36cde1)" d="
M70.299 368.742
L516.699 368.742
L516.699 368.742" style="fill:none;stroke:#bf00bf;stroke-linecap:square;"/>
   </g>
   <g id="line2d_13">
    <path clip-path="url(#p020d36cde1)" d="
M70.299 368.742
L516.699 368.742
L516.699 368.742" style="fill:none;stroke:#bfbf00;stroke-linecap:square;"/>
   </g>
   <g id="line2d_14">
    <path clip-path="url(#p020d36cde1)" d="
M70.299 368.742
L516.699 368.742
L516.699 368.742" style="fill:none;stroke:#000000;stroke-linecap:square;"/>
   </g>
   <g id="line2d_15">
    <path clip-path="url(#p020d36cde1)" d="
M70.299 368.742
L516.699 368.742
L516.699 368.742" style="fill:none;stroke:#0000ff;stroke-linecap:square;"/>
   </g>
   <g id="line2d_16">
    <path clip-path="url(#p020d36cde1)" d="
M70.299 368.742
L516.699 368.742
L516.699 368.742" style="fill:none;stroke:#008000;stroke-linecap:square;"/>
   </g>
   <g id="patch_3">
    <path d="
M70.299 23.1417
L516.699 23.1417" style="fill:none;stroke:#000000;stroke-linecap:square;stroke-linejoin:miter;"/>
   </g>
   <g id="patch_4">
    <path d="
M516.699 368.742
L516.699 23.1417" style="fill:none;stroke:#000000;stroke-linecap:square;stroke-linejoin:miter;"/>
   </g>
   <g id="patch_5">
    <path d="
M70.299 368.742
L516.699 368.742" style="fill:none;stroke:#000000;stroke-linecap:square;stroke-linejoin:miter;"/>
   </g>
   <g id="patch_6">
    <path d="
M70.299 368.742
L70.299 23.1417" style="fill:none;stroke:#000000;stroke-linecap:square;stroke-linejoin:miter;"/>
   </g>
   <g id="matplotlib.axis_1">
    <g id="xtick_1">
     <g id="line2d_17">
      <defs>
       <path d="
M0 0
L0 -4" id="m93b0483c22" style="stroke:#000000;stroke-width:0.5;"/>
      </defs>
      <g>
       <use style="stroke:#000000;stroke-width:0.5;" x="70.299" xlink:href="#m93b0483c22" y="368.74175"/>
      </g>
     </g>
     <g id="line2d_18">
      <defs>
       <path d="
M0 0
L0 4" id="m741efc42ff" style="stroke:#000000;stroke-width:0.5;"/>
      </defs>
      <g>
       <use style="stroke:#000000;stroke-width:0.5;" x="70.299" xlink:href="#m741efc42ff" y="23.14175"/>
      </g>
     </g>
     <g id="text_1">
      <!-- 0 -->
      <defs>
       <path d="
M31.7812 66.4062
Q24.1719 66.4062 20.3281 58.9062
Q16.5 51.4219 16.5 36.375
Q16.5 21.3906 20.3281 13.8906
Q24.1719 6.39062 31.7812 6.39062
Q39.4531 6.39062 43.2812 13.8906
Q47.125 21.3906 47.125 36.375
Q47.125 51.4219 43.2812 58.9062
Q39.4531 66.4062 31.7812 66.4062
M31.7812 74.2188
Q44.0469 74.2188 50.5156 64.5156
Q56.9844 54.8281 56.9844 36.375
Q56.9844 17.9688 50.5156 8.26562
Q44.0469 -1.42188 31.7812 -1.42188
Q19.5312 -1.42188 13.0625 8.26562
Q6.59375 17.9688 6.59375 36.375
Q6.59375 54.8281 13.0625 64.5156
Q19.5312 74.2188 31.7812 74.2188" id="DejaVuSans-30"/>
      </defs>
      <g transform="translate(67.2755625 381.859875)scale(0.12 -0.12)">
       <use xlink:href="#DejaVuSans-30"/>
      </g>
     </g>
    </g>
    <g id="xtick_2">
     <g id="line2d_19">
      <g>
       <use style="stroke:#000000;stroke-width:0.5;" x="169.85296967" xlink:href="#m93b0483c22" y="368.74175"/>
      </g>
     </g>
     <g id="line2d_20">
      <g>
       <use style="stroke:#000000;stroke-width:0.5;" x="169.85296967" xlink:href="#m741efc42ff" y="23.14175"/>
      </g>
     </g>
     <g id="text_2">
      <!-- 500 -->
      <defs>
       <path d="
M10.7969 72.9062
L49.5156 72.9062
L49.5156 64.5938
L19.8281 64.5938
L19.8281 46.7344
Q21.9688 47.4688 24.1094 47.8281
Q26.2656 48.1875 28.4219 48.1875
Q40.625 48.1875 47.75 41.5
Q54.8906 34.8125 54.8906 23.3906
Q54.8906 11.625 47.5625 5.09375
Q40.2344 -1.42188 26.9062 -1.42188
Q22.3125 -1.42188 17.5469 -0.640625
Q12.7969 0.140625 7.71875 1.70312
L7.71875 11.625
Q12.1094 9.23438 16.7969 8.0625
Q21.4844 6.89062 26.7031 6.89062
Q35.1562 6.89062 40.0781 11.3281
Q45.0156 15.7656 45.0156 23.3906
Q45.0156 31 40.0781 35.4375
Q35.1562 39.8906 26.7031 39.8906
Q22.75 39.8906 18.8125 39.0156
Q14.8906 38.1406 10.7969 36.2812
z
" id="DejaVuSans-35"/>
      </defs>
      <g transform="translate(159.26203217 381.859875)scale(0.12 -0.12)">
       <use xlink:href="#DejaVuSans-35"/>
       <use x="63.623046875" xlink:href="#DejaVuSans-30"/>
       <use x="127.24609375" xlink:href="#DejaVuSans-30"/>
      </g>
     </g>
    </g>
    <g id="xtick_3">
     <g id="line2d_21">
      <g>
       <use style="stroke:#000000;stroke-width:0.5;" x="269.40693934" xlink:href="#m93b0483c22" y="368.74175"/>
      </g>
     </g>
     <g id="line2d_22">
      <g>
       <use style="stroke:#000000;stroke-width:0.5;" x="269.40693934" xlink:href="#m741efc42ff" y="23.14175"/>
      </g>
     </g>
     <g id="text_3">
      <!-- 1000 -->
      <defs>
       <path d="
M12.4062 8.29688
L28.5156 8.29688
L28.5156 63.9219
L10.9844 60.4062
L10.9844 69.3906
L28.4219 72.9062
L38.2812 72.9062
L38.2812 8.29688
L54.3906 8.29688
L54.3906 0
L12.4062 0
z
" id="DejaVuSans-31"/>
      </defs>
      <g transform="translate(255.19443934 381.859875)scale(0.12 -0.12)">
       <use xlink:href="#DejaVuSans-31"/>
       <use x="63.623046875" xlink:href="#DejaVuSans-30"/>
       <use x="127.24609375" xlink:href="#DejaVuSans-30"/>
       <use x="190.869140625" xlink:href="#DejaVuSans-30"/>
      </g>
     </g>
    </g>
    <g id="xtick_4">
     <g id="line2d_23">
      <g>
       <use style="stroke:#000000;stroke-width:0.5;" x="368.96090901" xlink:href="#m93b0483c22" y="368.74175"/>
      </g>
     </g>
     <g id="line2d_24">
      <g>
       <use style="stroke:#000000;stroke-width:0.5;" x="368.96090901" xlink:href="#m741efc42ff" y="23.14175"/>
      </g>
     </g>
     <g id="text_4">
      <!-- 1500 -->
      <g transform="translate(354.74840901 381.859875)scale(0.12 -0.12)">
       <use xlink:href="#DejaVuSans-31"/>
       <use x="63.623046875" xlink:href="#DejaVuSans-35"/>
       <use x="127.24609375" xlink:href="#DejaVuSans-30"/>
       <use x="190.869140625" xlink:href="#DejaVuSans-30"/>
      </g>
     </g>
    </g>
    <g id="xtick_5">
     <g id="line2d_25">
      <g>
       <use style="stroke:#000000;stroke-width:0.5;" x="468.51487868" xlink:href="#m93b0483c22" y="368.74175"/>
      </g>
     </g>
     <g id="line2d_26">
      <g>
       <use style="stroke:#000000;stroke-width:0.5;" x="468.51487868" xlink:href="#m741efc42ff" y="23.14175"/>
      </g>
     </g>
     <g id="text_5">
      <!-- 2000 -->
      <defs>
       <path d="
M19.1875 8.29688
L53.6094 8.29688
L53.6094 0
L7.32812 0
L7.32812 8.29688
Q12.9375 14.1094 22.625 23.8906
Q32.3281 33.6875 34.8125 36.5312
Q39.5469 41.8438 41.4219 45.5312
Q43.3125 49.2188 43.3125 52.7812
Q43.3125 58.5938 39.2344 62.25
Q35.1562 65.9219 28.6094 65.9219
Q23.9688 65.9219 18.8125 64.3125
Q13.6719 62.7031 7.8125 59.4219
L7.8125 69.3906
Q13.7656 71.7812 18.9375 73
Q24.125 74.2188 28.4219 74.2188
Q39.75 74.2188 46.4844 68.5469
Q53.2188 62.8906 53.2188 53.4219
Q53.2188 48.9219 51.5312 44.8906
Q49.8594 40.875 45.4062 35.4062
Q44.1875 33.9844 37.6406 27.2188
Q31.1094 20.4531 19.1875 8.29688" id="DejaVuSans-32"/>
      </defs>
      <g transform="translate(454.08300368 381.859875)scale(0.12 -0.12)">
       <use xlink:href="#DejaVuSans-32"/>
       <use x="63.623046875" xlink:href="#DejaVuSans-30"/>
       <use x="127.24609375" xlink:href="#DejaVuSans-30"/>
       <use x="190.869140625" xlink:href="#DejaVuSans-30"/>
      </g>
     </g>
    </g>
    <g id="text_6">
     <!-- time -->
     <defs>
      <path d="
M18.3125 70.2188
L18.3125 54.6875
L36.8125 54.6875
L36.8125 47.7031
L18.3125 47.7031
L18.3125 18.0156
Q18.3125 11.3281 20.1406 9.42188
Q21.9688 7.51562 27.5938 7.51562
L36.8125 7.51562
L36.8125 0
L27.5938 0
Q17.1875 0 13.2344 3.875
Q9.28125 7.76562 9.28125 18.0156
L9.28125 47.7031
L2.6875 47.7031
L2.6875 54.6875
L9.28125 54.6875
L9.28125 70.2188
z
" id="DejaVuSans-74"/>
      <path d="
M52 44.1875
Q55.375 50.25 60.0625 53.125
Q64.75 56 71.0938 56
Q79.6406 56 84.2812 50.0156
Q88.9219 44.0469 88.9219 33.0156
L88.9219 0
L79.8906 0
L79.8906 32.7188
Q79.8906 40.5781 77.0938 44.375
Q74.3125 48.1875 68.6094 48.1875
Q61.625 48.1875 57.5625 43.5469
Q53.5156 38.9219 53.5156 30.9062
L53.5156 0
L44.4844 0
L44.4844 32.7188
Q44.4844 40.625 41.7031 44.4062
Q38.9219 48.1875 33.1094 48.1875
Q26.2188 48.1875 22.1562 43.5312
Q18.1094 38.875 18.1094 30.9062
L18.1094 0
L9.07812 0
L9.07812 54.6875
L18.1094 54.6875
L18.1094 46.1875
Q21.1875 51.2188 25.4844 53.6094
Q29.7812 56 35.6875 56
Q41.6562 56 45.8281 52.9688
Q50 49.9531 52 44.1875" id="DejaVuSans-6d"/>
      <path d="
M56.2031 29.5938
L56.2031 25.2031
L14.8906 25.2031
Q15.4844 15.9219 20.4844 11.0625
Q25.4844 6.20312 34.4219 6.20312
Q39.5938 6.20312 44.4531 7.46875
Q49.3125 8.73438 54.1094 11.2812
L54.1094 2.78125
Q49.2656 0.734375 44.1875 -0.34375
Q39.1094 -1.42188 33.8906 -1.42188
Q20.7969 -1.42188 13.1562 6.1875
Q5.51562 13.8125 5.51562 26.8125
Q5.51562 40.2344 12.7656 48.1094
Q20.0156 56 32.3281 56
Q43.3594 56 49.7812 48.8906
Q56.2031 41.7969 56.2031 29.5938
M47.2188 32.2344
Q47.125 39.5938 43.0938 43.9844
Q39.0625 48.3906 32.4219 48.3906
Q24.9062 48.3906 20.3906 44.1406
Q15.875 39.8906 15.1875 32.1719
z
" id="DejaVuSans-65"/>
      <path d="
M9.42188 54.6875
L18.4062 54.6875
L18.4062 0
L9.42188 0
z

M9.42188 75.9844
L18.4062 75.9844
L18.4062 64.5938
L9.42188 64.5938
z
" id="DejaVuSans-69"/>
     </defs>
     <g transform="translate(280.424625 398.473625)scale(0.12 -0.12)">
      <use xlink:href="#DejaVuSans-74"/>
      <use x="39.208984375" xlink:href="#DejaVuSans-69"/>
      <use x="66.9921875" xlink:href="#DejaVuSans-6d"/>
      <use x="164.404296875" xlink:href="#DejaVuSans-65"/>
     </g>
    </g>
   </g>
   <g id="matplotlib.axis_2">
    <g id="ytick_1">
     <g id="line2d_27">
      <defs>
       <path d="
M0 0
L4 0" id="m728421d6d4" style="stroke:#000000;stroke-width:0.5;"/>
      </defs>
      <g>
       <use style="stroke:#000000;stroke-width:0.5;" x="70.299" xlink:href="#m728421d6d4" y="368.74175"/>
      </g>
     </g>
     <g id="line2d_28">
      <defs>
       <path d="
M0 0
L-4 0" id="mcb0005524f" style="stroke:#000000;stroke-width:0.5;"/>
      </defs>
      <g>
       <use style="stroke:#000000;stroke-width:0.5;" x="516.699" xlink:href="#mcb0005524f" y="368.74175"/>
      </g>
     </g>
     <g id="text_7">
      <!-- 0 -->
      <g transform="translate(60.252125 372.053)scale(0.12 -0.12)">
       <use xlink:href="#DejaVuSans-30"/>
      </g>
     </g>
    </g>
    <g id="ytick_2">
     <g id="line2d_29">
      <g>
       <use style="stroke:#000000;stroke-width:0.5;" x="70.299" xlink:href="#m728421d6d4" y="330.34175"/>
      </g>
     </g>
     <g id="line2d_30">
      <g>
       <use style="stroke:#000000;stroke-width:0.5;" x="516.699" xlink:href="#mcb0005524f" y="330.34175"/>
      </g>
     </g>
     <g id="text_8">
      <!-- 500 -->
      <g transform="translate(45.117125 333.653)scale(0.12 -0.12)">
       <use xlink:href="#DejaVuSans-35"/>
       <use x="63.623046875" xlink:href="#DejaVuSans-30"/>
       <use x="127.24609375" xlink:href="#DejaVuSans-30"/>
      </g>
     </g>
    </g>
    <g id="ytick_3">
     <g id="line2d_31">
      <g>
       <use style="stroke:#000000;stroke-width:0.5;" x="70.299" xlink:href="#m728421d6d4" y="291.94175"/>
      </g>
     </g>
     <g id="line2d_32">
      <g>
       <use style="stroke:#000000;stroke-width:0.5;" x="516.699" xlink:href="#mcb0005524f" y="291.94175"/>
      </g>
     </g>
     <g id="text_9">
      <!-- 1000 -->
      <g transform="translate(37.874 295.253)scale(0.12 -0.12)">
       <use xlink:href="#DejaVuSans-31"/>
       <use x="63.623046875" xlink:href="#DejaVuSans-30"/>
       <use x="127.24609375" xlink:href="#DejaVuSans-30"/>
       <use x="190.869140625" xlink:href="#DejaVuSans-30"/>
      </g>
     </g>
    </g>
    <g id="ytick_4">
     <g id="line2d_33">
      <g>
       <use style="stroke:#000000;stroke-width:0.5;" x="70.299" xlink:href="#m728421d6d4" y="253.54175"/>
      </g>
     </g>
     <g id="line2d_34">
      <g>
       <use style="stroke:#000000;stroke-width:0.5;" x="516.699" xlink:href="#mcb0005524f" y="253.54175"/>
      </g>
     </g>
     <g id="text_10">
      <!-- 1500 -->
      <g transform="translate(37.874 256.853)scale(0.12 -0.12)">
       <use xlink:href="#DejaVuSans-31"/>
       <use x="63.623046875" xlink:href="#DejaVuSans-35"/>
       <use x="127.24609375" xlink:href="#DejaVuSans-30"/>
       <use x="190.869140625" xlink:href="#DejaVuSans-30"/>
      </g>
     </g>
    </g>
    <g id="ytick_5">
     <g id="line2d_35">
      <g>
       <use style="stroke:#000000;stroke-width:0.5;" x="70.299" xlink:href="#m728421d6d4" y="215.14175"/>
      </g>
     </g>
     <g id="line2d_36">
      <g>
       <use style="stroke:#000000;stroke-width:0.5;" x="516.699" xlink:href="#mcb0005524f" y="215.14175"/>
      </g>
     </g>
     <g id="text_11">
      <!-- 2000 -->
      <g transform="translate(37.43525 218.453)scale(0.12 -0.12)">
       <use xlink:href="#DejaVuSans-32"/>
       <use x="63.623046875" xlink:href="#DejaVuSans-30"/>
       <use x="127.24609375" xlink:href="#DejaVuSans-30"/>
       <use x="190.869140625" xlink:href="#DejaVuSans-30"/>
      </g>
     </g>
    </g>
    <g id="ytick_6">
     <g id="line2d_37">
      <g>
       <use style="stroke:#000000;stroke-width:0.5;" x="70.299" xlink:href="#m728421d6d4" y="176.74175"/>
      </g>
     </g>
     <g id="line2d_38">
      <g>
       <use style="stroke:#000000;stroke-width:0.5;" x="516.699" xlink:href="#mcb0005524f" y="176.74175"/>
      </g>
     </g>
     <g id="text_12">
      <!-- 2500 -->
      <g transform="translate(37.43525 180.053)scale(0.12 -0.12)">
       <use xlink:href="#DejaVuSans-32"/>
       <use x="63.623046875" xlink:href="#DejaVuSans-35"/>
       <use x="127.24609375" xlink:href="#DejaVuSans-30"/>
       <use x="190.869140625" xlink:href="#DejaVuSans-30"/>
      </g>
     </g>
    </g>
    <g id="ytick_7">
     <g id="line2d_39">
      <g>
       <use style="stroke:#000000;stroke-width:0.5;" x="70.299" xlink:href="#m728421d6d4" y="138.34175"/>
      </g>
     </g>
     <g id="line2d_40">
      <g>
       <use style="stroke:#000000;stroke-width:0.5;" x="516.699" xlink:href="#mcb0005524f" y="138.34175"/>
      </g>
     </g>
     <g id="text_13">
      <!-- 3000 -->
      <defs>
       <path d="
M40.5781 39.3125
Q47.6562 37.7969 51.625 33
Q55.6094 28.2188 55.6094 21.1875
Q55.6094 10.4062 48.1875 4.48438
Q40.7656 -1.42188 27.0938 -1.42188
Q22.5156 -1.42188 17.6562 -0.515625
Q12.7969 0.390625 7.625 2.20312
L7.625 11.7188
Q11.7188 9.32812 16.5938 8.10938
Q21.4844 6.89062 26.8125 6.89062
Q36.0781 6.89062 40.9375 10.5469
Q45.7969 14.2031 45.7969 21.1875
Q45.7969 27.6406 41.2812 31.2656
Q36.7656 34.9062 28.7188 34.9062
L20.2188 34.9062
L20.2188 43.0156
L29.1094 43.0156
Q36.375 43.0156 40.2344 45.9219
Q44.0938 48.8281 44.0938 54.2969
Q44.0938 59.9062 40.1094 62.9062
Q36.1406 65.9219 28.7188 65.9219
Q24.6562 65.9219 20.0156 65.0312
Q15.375 64.1562 9.8125 62.3125
L9.8125 71.0938
Q15.4375 72.6562 20.3438 73.4375
Q25.25 74.2188 29.5938 74.2188
Q40.8281 74.2188 47.3594 69.1094
Q53.9062 64.0156 53.9062 55.3281
Q53.9062 49.2656 50.4375 45.0938
Q46.9688 40.9219 40.5781 39.3125" id="DejaVuSans-33"/>
      </defs>
      <g transform="translate(37.470875 141.653)scale(0.12 -0.12)">
       <use xlink:href="#DejaVuSans-33"/>
       <use x="63.623046875" xlink:href="#DejaVuSans-30"/>
       <use x="127.24609375" xlink:href="#DejaVuSans-30"/>
       <use x="190.869140625" xlink:href="#DejaVuSans-30"/>
      </g>
     </g>
    </g>
    <g id="ytick_8">
     <g id="line2d_41">
      <g>
       <use style="stroke:#000000;stroke-width:0.5;" x="70.299" xlink:href="#m728421d6d4" y="99.94175"/>
      </g>
     </g>
     <g id="line2d_42">
      <g>
       <use style="stroke:#000000;stroke-width:0.5;" x="516.699" xlink:href="#mcb0005524f" y="99.94175"/>
      </g>
     </g>
     <g id="text_14">
      <!-- 3500 -->
      <g transform="translate(37.470875 103.253)scale(0.12 -0.12)">
       <use xlink:href="#DejaVuSans-33"/>
       <use x="63.623046875" xlink:href="#DejaVuSans-35"/>
       <use x="127.24609375" xlink:href="#DejaVuSans-30"/>
       <use x="190.869140625" xlink:href="#DejaVuSans-30"/>
      </g>
     </g>
    </g>
    <g id="ytick_9">
     <g id="line2d_43">
      <g>
       <use style="stroke:#000000;stroke-width:0.5;" x="70.299" xlink:href="#m728421d6d4" y="61.54175"/>
      </g>
     </g>
     <g id="line2d_44">
      <g>
       <use style="stroke:#000000;stroke-width:0.5;" x="516.699" xlink:href="#mcb0005524f" y="61.54175"/>
      </g>
     </g>
     <g id="text_15">
      <!-- 4000 -->
      <defs>
       <path d="
M37.7969 64.3125
L12.8906 25.3906
L37.7969 25.3906
z

M35.2031 72.9062
L47.6094 72.9062
L47.6094 25.3906
L58.0156 25.3906
L58.0156 17.1875
L47.6094 17.1875
L47.6094 0
L37.7969 0
L37.7969 17.1875
L4.89062 17.1875
L4.89062 26.7031
z
" id="DejaVuSans-34"/>
      </defs>
      <g transform="translate(37.14275 64.853)scale(0.12 -0.12)">
       <use xlink:href="#DejaVuSans-34"/>
       <use x="63.623046875" xlink:href="#DejaVuSans-30"/>
       <use x="127.24609375" xlink:href="#DejaVuSans-30"/>
       <use x="190.869140625" xlink:href="#DejaVuSans-30"/>
      </g>
     </g>
    </g>
    <g id="ytick_10">
     <g id="line2d_45">
      <g>
       <use style="stroke:#000000;stroke-width:0.5;" x="70.299" xlink:href="#m728421d6d4" y="23.14175"/>
      </g>
     </g>
     <g id="line2d_46">
      <g>
       <use style="stroke:#000000;stroke-width:0.5;" x="516.699" xlink:href="#mcb0005524f" y="23.14175"/>
      </g>
     </g>
     <g id="text_16">
      <!-- 4500 -->
      <g transform="translate(37.14275 26.453)scale(0.12 -0.12)">
       <use xlink:href="#DejaVuSans-34"/>
       <use x="63.623046875" xlink:href="#DejaVuSans-35"/>
       <use x="127.24609375" xlink:href="#DejaVuSans-30"/>
       <use x="190.869140625" xlink:href="#DejaVuSans-30"/>
      </g>
     </g>
    </g>
   </g>
   <g id="text_17">
    <!-- /runtime/count/action_invocation@set_value_action_hpx_counter_value change -->
    <defs>
     <path d="
M2.98438 54.6875
L12.5 54.6875
L29.5938 8.79688
L46.6875 54.6875
L56.2031 54.6875
L35.6875 0
L23.4844 0
z
" id="DejaVuSans-76"/>
     <path d="
M25.3906 72.9062
L33.6875 72.9062
L8.29688 -9.28125
L0 -9.28125
z
" id="DejaVuSans-2f"/>
     <path d="
M30.6094 48.3906
Q23.3906 48.3906 19.1875 42.75
Q14.9844 37.1094 14.9844 27.2969
Q14.9844 17.4844 19.1562 11.8438
Q23.3438 6.20312 30.6094 6.20312
Q37.7969 6.20312 41.9844 11.8594
Q46.1875 17.5312 46.1875 27.2969
Q46.1875 37.0156 41.9844 42.7031
Q37.7969 48.3906 30.6094 48.3906
M30.6094 56
Q42.3281 56 49.0156 48.375
Q55.7188 40.7656 55.7188 27.2969
Q55.7188 13.875 49.0156 6.21875
Q42.3281 -1.42188 30.6094 -1.42188
Q18.8438 -1.42188 12.1719 6.21875
Q5.51562 13.875 5.51562 27.2969
Q5.51562 40.7656 12.1719 48.375
Q18.8438 56 30.6094 56" id="DejaVuSans-6f"/>
     <path d="
M54.8906 33.0156
L54.8906 0
L45.9062 0
L45.9062 32.7188
Q45.9062 40.4844 42.875 44.3281
Q39.8438 48.1875 33.7969 48.1875
Q26.5156 48.1875 22.3125 43.5469
Q18.1094 38.9219 18.1094 30.9062
L18.1094 0
L9.07812 0
L9.07812 54.6875
L18.1094 54.6875
L18.1094 46.1875
Q21.3438 51.125 25.7031 53.5625
Q30.0781 56 35.7969 56
Q45.2188 56 50.0469 50.1719
Q54.8906 44.3438 54.8906 33.0156" id="DejaVuSans-6e"/>
     <path d="
M50.9844 -16.6094
L50.9844 -23.5781
L-0.984375 -23.5781
L-0.984375 -16.6094
z
" id="DejaVuSans-5f"/>
     <path d="
M9.42188 75.9844
L18.4062 75.9844
L18.4062 0
L9.42188 0
z
" id="DejaVuSans-6c"/>
     <path d="
M18.1094 8.20312
L18.1094 -20.7969
L9.07812 -20.7969
L9.07812 54.6875
L18.1094 54.6875
L18.1094 46.3906
Q20.9531 51.2656 25.2656 53.625
Q29.5938 56 35.5938 56
Q45.5625 56 51.7812 48.0938
Q58.0156 40.1875 58.0156 27.2969
Q58.0156 14.4062 51.7812 6.48438
Q45.5625 -1.42188 35.5938 -1.42188
Q29.5938 -1.42188 25.2656 0.953125
Q20.9531 3.32812 18.1094 8.20312
M48.6875 27.2969
Q48.6875 37.2031 44.6094 42.8438
Q40.5312 48.4844 33.4062 48.4844
Q26.2656 48.4844 22.1875 42.8438
Q18.1094 37.2031 18.1094 27.2969
Q18.1094 17.3906 22.1875 11.75
Q26.2656 6.10938 33.4062 6.10938
Q40.5312 6.10938 44.6094 11.75
Q48.6875 17.3906 48.6875 27.2969" id="DejaVuSans-70"/>
     <path id="DejaVuSans-20"/>
     <path d="
M37.2031 26.2188
Q37.2031 19.2344 40.6719 15.25
Q44.1406 11.2812 50.2031 11.2812
Q56.2031 11.2812 59.6406 15.2812
Q63.0938 19.2812 63.0938 26.2188
Q63.0938 33.0625 59.5781 37.0781
Q56.0625 41.1094 50.0938 41.1094
Q44.1875 41.1094 40.6875 37.1094
Q37.2031 33.1094 37.2031 26.2188
M63.8125 11.625
Q60.8906 7.85938 57.1094 6.07812
Q53.3281 4.29688 48.2969 4.29688
Q39.8906 4.29688 34.6406 10.375
Q29.3906 16.4531 29.3906 26.2188
Q29.3906 35.9844 34.6562 42.0781
Q39.9375 48.1875 48.2969 48.1875
Q53.3281 48.1875 57.125 46.3594
Q60.9375 44.5312 63.8125 40.8281
L63.8125 47.2188
L70.7969 47.2188
L70.7969 11.2812
Q77.9375 12.3594 81.9531 17.7969
Q85.9844 23.25 85.9844 31.8906
Q85.9844 37.1094 84.4375 41.7031
Q82.9062 46.2969 79.7812 50.2031
Q74.7031 56.5938 67.4062 59.9844
Q60.1094 63.375 51.5156 63.375
Q45.5156 63.375 39.9844 61.7812
Q34.4688 60.2031 29.7812 57.0781
Q22.125 52.0938 17.7969 44.0156
Q13.4844 35.9375 13.4844 26.5156
Q13.4844 18.75 16.2812 11.9531
Q19.0938 5.17188 24.4219 0
Q29.5469 -5.07812 36.2812 -7.73438
Q43.0156 -10.4062 50.6875 -10.4062
Q56.9844 -10.4062 63.0625 -8.28125
Q69.1406 -6.15625 74.2188 -2.20312
L78.6094 -7.625
Q72.5156 -12.3594 65.3125 -14.875
Q58.1094 -17.3906 50.6875 -17.3906
Q41.6562 -17.3906 33.6406 -14.1875
Q25.6406 -10.9844 19.3906 -4.89062
Q13.1406 1.21875 9.85938 9.25
Q6.59375 17.2812 6.59375 26.5156
Q6.59375 35.4062 9.90625 43.4531
Q13.2344 51.5156 19.3906 57.625
Q25.6875 63.8125 33.9375 67.1094
Q42.1875 70.4062 51.4219 70.4062
Q61.7656 70.4062 70.625 66.1562
Q79.5 61.9219 85.5 54.1094
Q89.1562 49.3125 91.0781 43.7031
Q93.0156 38.0938 93.0156 32.0781
Q93.0156 19.2344 85.25 11.8125
Q77.4844 4.39062 63.8125 4.10938
z
" id="DejaVuSans-40"/>
     <path d="
M54.8906 54.6875
L35.1094 28.0781
L55.9062 0
L45.3125 0
L29.3906 21.4844
L13.4844 0
L2.875 0
L24.125 28.6094
L4.6875 54.6875
L15.2812 54.6875
L29.7812 35.2031
L44.2812 54.6875
z
" id="DejaVuSans-78"/>
     <path d="
M54.8906 33.0156
L54.8906 0
L45.9062 0
L45.9062 32.7188
Q45.9062 40.4844 42.875 44.3281
Q39.8438 48.1875 33.7969 48.1875
Q26.5156 48.1875 22.3125 43.5469
Q18.1094 38.9219 18.1094 30.9062
L18.1094 0
L9.07812 0
L9.07812 75.9844
L18.1094 75.9844
L18.1094 46.1875
Q21.3438 51.125 25.7031 53.5625
Q30.0781 56 35.7969 56
Q45.2188 56 50.0469 50.1719
Q54.8906 44.3438 54.8906 33.0156" id="DejaVuSans-68"/>
     <path d="
M8.5 21.5781
L8.5 54.6875
L17.4844 54.6875
L17.4844 21.9219
Q17.4844 14.1562 20.5 10.2656
Q23.5312 6.39062 29.5938 6.39062
Q36.8594 6.39062 41.0781 11.0312
Q45.3125 15.6719 45.3125 23.6875
L45.3125 54.6875
L54.2969 54.6875
L54.2969 0
L45.3125 0
L45.3125 8.40625
Q42.0469 3.42188 37.7188 1
Q33.4062 -1.42188 27.6875 -1.42188
Q18.2656 -1.42188 13.375 4.4375
Q8.5 10.2969 8.5 21.5781
M31.1094 56
z
" id="DejaVuSans-75"/>
     <path d="
M45.4062 27.9844
Q45.4062 37.75 41.375 43.1094
Q37.3594 48.4844 30.0781 48.4844
Q22.8594 48.4844 18.8281 43.1094
Q14.7969 37.75 14.7969 27.9844
Q14.7969 18.2656 18.8281 12.8906
Q22.8594 7.51562 30.0781 7.51562
Q37.3594 7.51562 41.375 12.8906
Q45.4062 18.2656 45.4062 27.9844
M54.3906 6.78125
Q54.3906 -7.17188 48.1875 -13.9844
Q42 -20.7969 29.2031 -20.7969
Q24.4688 -20.7969 20.2656 -20.0938
Q16.0625 -19.3906 12.1094 -17.9219
L12.1094 -9.1875
Q16.0625 -11.3281 19.9219 -12.3438
Q23.7812 -13.375 27.7812 -13.375
Q36.625 -13.375 41.0156 -8.76562
Q45.4062 -4.15625 45.4062 5.17188
L45.4062 9.625
Q42.625 4.78125 38.2812 2.39062
Q33.9375 0 27.875 0
Q17.8281 0 11.6719 7.65625
Q5.51562 15.3281 5.51562 27.9844
Q5.51562 40.6719 11.6719 48.3281
Q17.8281 56 27.875 56
Q33.9375 56 38.2812 53.6094
Q42.625 51.2188 45.4062 46.3906
L45.4062 54.6875
L54.3906 54.6875
z
" id="DejaVuSans-67"/>
     <path d="
M34.2812 27.4844
Q23.3906 27.4844 19.1875 25
Q14.9844 22.5156 14.9844 16.5
Q14.9844 11.7188 18.1406 8.90625
Q21.2969 6.10938 26.7031 6.10938
Q34.1875 6.10938 38.7031 11.4062
Q43.2188 16.7031 43.2188 25.4844
L43.2188 27.4844
z

M52.2031 31.2031
L52.2031 0
L43.2188 0
L43.2188 8.29688
Q40.1406 3.32812 35.5469 0.953125
Q30.9531 -1.42188 24.3125 -1.42188
Q15.9219 -1.42188 10.9531 3.29688
Q6 8.01562 6 15.9219
Q6 25.1406 12.1719 29.8281
Q18.3594 34.5156 30.6094 34.5156
L43.2188 34.5156
L43.2188 35.4062
Q43.2188 41.6094 39.1406 45
Q35.0625 48.3906 27.6875 48.3906
Q23 48.3906 18.5469 47.2656
Q14.1094 46.1406 10.0156 43.8906
L10.0156 52.2031
Q14.9375 54.1094 19.5781 55.0469
Q24.2188 56 28.6094 56
Q40.4844 56 46.3438 49.8438
Q52.2031 43.7031 52.2031 31.2031" id="DejaVuSans-61"/>
     <path d="
M48.7812 52.5938
L48.7812 44.1875
Q44.9688 46.2969 41.1406 47.3438
Q37.3125 48.3906 33.4062 48.3906
Q24.6562 48.3906 19.8125 42.8438
Q14.9844 37.3125 14.9844 27.2969
Q14.9844 17.2812 19.8125 11.7344
Q24.6562 6.20312 33.4062 6.20312
Q37.3125 6.20312 41.1406 7.25
Q44.9688 8.29688 48.7812 10.4062
L48.7812 2.09375
Q45.0156 0.34375 40.9844 -0.53125
Q36.9688 -1.42188 32.4219 -1.42188
Q20.0625 -1.42188 12.7812 6.34375
Q5.51562 14.1094 5.51562 27.2969
Q5.51562 40.6719 12.8594 48.3281
Q20.2188 56 33.0156 56
Q37.1562 56 41.1094 55.1406
Q45.0625 54.2969 48.7812 52.5938" id="DejaVuSans-63"/>
     <path d="
M44.2812 53.0781
L44.2812 44.5781
Q40.4844 46.5312 36.375 47.5
Q32.2812 48.4844 27.875 48.4844
Q21.1875 48.4844 17.8438 46.4375
Q14.5 44.3906 14.5 40.2812
Q14.5 37.1562 16.8906 35.375
Q19.2812 33.5938 26.5156 31.9844
L29.5938 31.2969
Q39.1562 29.25 43.1875 25.5156
Q47.2188 21.7812 47.2188 15.0938
Q47.2188 7.46875 41.1875 3.01562
Q35.1562 -1.42188 24.6094 -1.42188
Q20.2188 -1.42188 15.4531 -0.5625
Q10.6875 0.296875 5.42188 2
L5.42188 11.2812
Q10.4062 8.6875 15.2344 7.39062
Q20.0625 6.10938 24.8125 6.10938
Q31.1562 6.10938 34.5625 8.28125
Q37.9844 10.4531 37.9844 14.4062
Q37.9844 18.0625 35.5156 20.0156
Q33.0625 21.9688 24.7031 23.7812
L21.5781 24.5156
Q13.2344 26.2656 9.51562 29.9062
Q5.8125 33.5469 5.8125 39.8906
Q5.8125 47.6094 11.2812 51.7969
Q16.75 56 26.8125 56
Q31.7812 56 36.1719 55.2656
Q40.5781 54.5469 44.2812 53.0781" id="DejaVuSans-73"/>
     <path d="
M41.1094 46.2969
Q39.5938 47.1719 37.8125 47.5781
Q36.0312 48 33.8906 48
Q26.2656 48 22.1875 43.0469
Q18.1094 38.0938 18.1094 28.8125
L18.1094 0
L9.07812 0
L9.07812 54.6875
L18.1094 54.6875
L18.1094 46.1875
Q20.9531 51.1719 25.4844 53.5781
Q30.0312 56 36.5312 56
Q37.4531 56 38.5781 55.875
Q39.7031 55.7656 41.0625 55.5156
z
" id="DejaVuSans-72"/>
    </defs>
    <g transform="translate(7.2 18.14175)scale(0.144 -0.144)">
     <use xlink:href="#DejaVuSans-2f"/>
     <use x="33.69140625" xlink:href="#DejaVuSans-72"/>
     <use x="74.8046875" xlink:href="#DejaVuSans-75"/>
     <use x="138.18359375" xlink:href="#DejaVuSans-6e"/>
     <use x="201.5625" xlink:href="#DejaVuSans-74"/>
     <use x="240.771484375" xlink:href="#DejaVuSans-69"/>
     <use x="268.5546875" xlink:href="#DejaVuSans-6d"/>
     <use x="365.966796875" xlink:href="#DejaVuSans-65"/>
     <use x="427.490234375" xlink:href="#DejaVuSans-2f"/>
     <use x="461.181640625" xlink:href="#DejaVuSans-63"/>
     <use x="516.162109375" xlink:href="#DejaVuSans-6f"/>
     <use x="577.34375" xlink:href="#DejaVuSans-75"/>
     <use x="640.72265625" xlink:href="#DejaVuSans-6e"/>
     <use x="704.1015625" xlink:href="#DejaVuSans-74"/>
     <use x="743.310546875" xlink:href="#DejaVuSans-2f"/>
     <use x="777.001953125" xlink:href="#DejaVuSans-61"/>
     <use x="838.28125" xlink:href="#DejaVuSans-63"/>
     <use x="893.26171875" xlink:href="#DejaVuSans-74"/>
     <use x="932.470703125" xlink:href="#DejaVuSans-69"/>
     <use x="960.25390625" xlink:href="#DejaVuSans-6f"/>
     <use x="1021.43554688" xlink:href="#DejaVuSans-6e"/>
     <use x="1084.81445312" xlink:href="#DejaVuSans-5f"/>
     <use x="1134.81445312" xlink:href="#DejaVuSans-69"/>
     <use x="1162.59765625" xlink:href="#DejaVuSans-6e"/>
     <use x="1225.9765625" xlink:href="#DejaVuSans-76"/>
     <use x="1285.15625" xlink:href="#DejaVuSans-6f"/>
     <use x="1346.33789062" xlink:href="#DejaVuSans-63"/>
     <use x="1401.31835938" xlink:href="#DejaVuSans-61"/>
     <use x="1462.59765625" xlink:href="#DejaVuSans-74"/>
     <use x="1501.80664062" xlink:href="#DejaVuSans-69"/>
     <use x="1529.58984375" xlink:href="#DejaVuSans-6f"/>
     <use x="1590.77148438" xlink:href="#DejaVuSans-6e"/>
     <use x="1654.15039062" xlink:href="#DejaVuSans-40"/>
     <use x="1754.15039062" xlink:href="#DejaVuSans-73"/>
     <use x="1806.25" xlink:href="#DejaVuSans-65"/>
     <use x="1867.7734375" xlink:href="#DejaVuSans-74"/>
     <use x="1906.98242188" xlink:href="#DejaVuSans-5f"/>
     <use x="1956.98242188" xlink:href="#DejaVuSans-76"/>
     <use x="2016.16210938" xlink:href="#DejaVuSans-61"/>
     <use x="2077.44140625" xlink:href="#DejaVuSans-6c"/>
     <use x="2105.22460938" xlink:href="#DejaVuSans-75"/>
     <use x="2168.60351562" xlink:href="#DejaVuSans-65"/>
     <use x="2230.12695312" xlink:href="#DejaVuSans-5f"/>
     <use x="2280.12695312" xlink:href="#DejaVuSans-61"/>
     <use x="2341.40625" xlink:href="#DejaVuSans-63"/>
     <use x="2396.38671875" xlink:href="#DejaVuSans-74"/>
     <use x="2435.59570312" xlink:href="#DejaVuSans-69"/>
     <use x="2463.37890625" xlink:href="#DejaVuSans-6f"/>
     <use x="2524.56054688" xlink:href="#DejaVuSans-6e"/>
     <use x="2587.93945312" xlink:href="#DejaVuSans-5f"/>
     <use x="2637.93945312" xlink:href="#DejaVuSans-68"/>
     <use x="2701.31835938" xlink:href="#DejaVuSans-70"/>
     <use x="2764.79492188" xlink:href="#DejaVuSans-78"/>
     <use x="2823.97460938" xlink:href="#DejaVuSans-5f"/>
     <use x="2873.97460938" xlink:href="#DejaVuSans-63"/>
     <use x="2928.95507812" xlink:href="#DejaVuSans-6f"/>
     <use x="2990.13671875" xlink:href="#DejaVuSans-75"/>
     <use x="3053.515625" xlink:href="#DejaVuSans-6e"/>
     <use x="3116.89453125" xlink:href="#DejaVuSans-74"/>
     <use x="3156.10351562" xlink:href="#DejaVuSans-65"/>
     <use x="3217.62695312" xlink:href="#DejaVuSans-72"/>
     <use x="3258.74023438" xlink:href="#DejaVuSans-5f"/>
     <use x="3308.74023438" xlink:href="#DejaVuSans-76"/>
     <use x="3367.91992188" xlink:href="#DejaVuSans-61"/>
     <use x="3429.19921875" xlink:href="#DejaVuSans-6c"/>
     <use x="3456.98242188" xlink:href="#DejaVuSans-75"/>
     <use x="3520.36132812" xlink:href="#DejaVuSans-65"/>
     <use x="3581.88476562" xlink:href="#DejaVuSans-20"/>
     <use x="3613.671875" xlink:href="#DejaVuSans-63"/>
     <use x="3668.65234375" xlink:href="#DejaVuSans-68"/>
     <use x="3732.03125" xlink:href="#DejaVuSans-61"/>
     <use x="3793.31054688" xlink:href="#DejaVuSans-6e"/>
     <use x="3856.68945312" xlink:href="#DejaVuSans-67"/>
     <use x="3920.16601562" xlink:href="#DejaVuSans-65"/>
    </g>
   </g>
   <g id="legend_1">
    <g id="patch_7">
     <path d="
M523.899 367.194
L655.688 367.194
L655.688 24.6897
L523.899 24.6897
z
" style="fill:#ffffff;stroke:#000000;stroke-linejoin:miter;"/>
    </g>
    <g id="line2d_47">
     <path d="
M533.979 36.3515
L554.139 36.3515" style="fill:none;stroke:#0000ff;stroke-linecap:square;"/>
    </g>
    <g id="line2d_48"/>
    <g id="text_18">
     <!-- locality#0 -->
     <defs>
      <path d="
M51.125 44
L36.9219 44
L32.8125 27.6875
L47.125 27.6875
z

M43.7969 71.7812
L38.7188 51.5156
L52.9844 51.5156
L58.1094 71.7812
L65.9219 71.7812
L60.8906 51.5156
L76.125 51.5156
L76.125 44
L58.9844 44
L54.9844 27.6875
L70.5156 27.6875
L70.5156 20.2188
L53.0781 20.2188
L48 0
L40.1875 0
L45.2188 20.2188
L30.9062 20.2188
L25.875 0
L18.0156 0
L23.0938 20.2188
L7.71875 20.2188
L7.71875 27.6875
L24.9062 27.6875
L29 44
L13.2812 44
L13.2812 51.5156
L30.9062 51.5156
L35.8906 71.7812
z
" id="DejaVuSans-23"/>
      <path d="
M32.1719 -5.07812
Q28.375 -14.8438 24.75 -17.8125
Q21.1406 -20.7969 15.0938 -20.7969
L7.90625 -20.7969
L7.90625 -13.2812
L13.1875 -13.2812
Q16.8906 -13.2812 18.9375 -11.5156
Q21 -9.76562 23.4844 -3.21875
L25.0938 0.875
L2.98438 54.6875
L12.5 54.6875
L29.5938 11.9219
L46.6875 54.6875
L56.2031 54.6875
z
" id="DejaVuSans-79"/>
     </defs>
     <g transform="translate(569.979 41.3915)scale(0.144 -0.144)">
      <use xlink:href="#DejaVuSans-6c"/>
      <use x="27.783203125" xlink:href="#DejaVuSans-6f"/>
      <use x="88.96484375" xlink:href="#DejaVuSans-63"/>
      <use x="143.9453125" xlink:href="#DejaVuSans-61"/>
      <use x="205.224609375" xlink:href="#DejaVuSans-6c"/>
      <use x="233.0078125" xlink:href="#DejaVuSans-69"/>
      <use x="260.791015625" xlink:href="#DejaVuSans-74"/>
      <use x="300.0" xlink:href="#DejaVuSans-79"/>
      <use x="359.1796875" xlink:href="#DejaVuSans-23"/>
      <use x="442.96875" xlink:href="#DejaVuSans-30"/>
     </g>
    </g>
    <g id="line2d_49">
     <path d="
M533.979 57.488
L554.139 57.488" style="fill:none;stroke:#008000;stroke-linecap:square;"/>
    </g>
    <g id="line2d_50"/>
    <g id="text_19">
     <!-- locality#1 -->
     <g transform="translate(569.979 62.528)scale(0.144 -0.144)">
      <use xlink:href="#DejaVuSans-6c"/>
      <use x="27.783203125" xlink:href="#DejaVuSans-6f"/>
      <use x="88.96484375" xlink:href="#DejaVuSans-63"/>
      <use x="143.9453125" xlink:href="#DejaVuSans-61"/>
      <use x="205.224609375" xlink:href="#DejaVuSans-6c"/>
      <use x="233.0078125" xlink:href="#DejaVuSans-69"/>
      <use x="260.791015625" xlink:href="#DejaVuSans-74"/>
      <use x="300.0" xlink:href="#DejaVuSans-79"/>
      <use x="359.1796875" xlink:href="#DejaVuSans-23"/>
      <use x="442.96875" xlink:href="#DejaVuSans-31"/>
     </g>
    </g>
    <g id="line2d_51">
     <path d="
M533.979 78.6245
L554.139 78.6245" style="fill:none;stroke:#ff0000;stroke-linecap:square;"/>
    </g>
    <g id="line2d_52"/>
    <g id="text_20">
     <!-- locality#10 -->
     <g transform="translate(569.979 83.6645)scale(0.144 -0.144)">
      <use xlink:href="#DejaVuSans-6c"/>
      <use x="27.783203125" xlink:href="#DejaVuSans-6f"/>
      <use x="88.96484375" xlink:href="#DejaVuSans-63"/>
      <use x="143.9453125" xlink:href="#DejaVuSans-61"/>
      <use x="205.224609375" xlink:href="#DejaVuSans-6c"/>
      <use x="233.0078125" xlink:href="#DejaVuSans-69"/>
      <use x="260.791015625" xlink:href="#DejaVuSans-74"/>
      <use x="300.0" xlink:href="#DejaVuSans-79"/>
      <use x="359.1796875" xlink:href="#DejaVuSans-23"/>
      <use x="442.96875" xlink:href="#DejaVuSans-31"/>
      <use x="506.591796875" xlink:href="#DejaVuSans-30"/>
     </g>
    </g>
    <g id="line2d_53">
     <path d="
M533.979 99.761
L554.139 99.761" style="fill:none;stroke:#00bfbf;stroke-linecap:square;"/>
    </g>
    <g id="line2d_54"/>
    <g id="text_21">
     <!-- locality#11 -->
     <g transform="translate(569.979 104.801)scale(0.144 -0.144)">
      <use xlink:href="#DejaVuSans-6c"/>
      <use x="27.783203125" xlink:href="#DejaVuSans-6f"/>
      <use x="88.96484375" xlink:href="#DejaVuSans-63"/>
      <use x="143.9453125" xlink:href="#DejaVuSans-61"/>
      <use x="205.224609375" xlink:href="#DejaVuSans-6c"/>
      <use x="233.0078125" xlink:href="#DejaVuSans-69"/>
      <use x="260.791015625" xlink:href="#DejaVuSans-74"/>
      <use x="300.0" xlink:href="#DejaVuSans-79"/>
      <use x="359.1796875" xlink:href="#DejaVuSans-23"/>
      <use x="442.96875" xlink:href="#DejaVuSans-31"/>
      <use x="506.591796875" xlink:href="#DejaVuSans-31"/>
     </g>
    </g>
    <g id="line2d_55">
     <path d="
M533.979 120.897
L554.139 120.897" style="fill:none;stroke:#bf00bf;stroke-linecap:square;"/>
    </g>
    <g id="line2d_56"/>
    <g id="text_22">
     <!-- locality#12 -->
     <g transform="translate(569.979 125.9375)scale(0.144 -0.144)">
      <use xlink:href="#DejaVuSans-6c"/>
      <use x="27.783203125" xlink:href="#DejaVuSans-6f"/>
      <use x="88.96484375" xlink:href="#DejaVuSans-63"/>
      <use x="143.9453125" xlink:href="#DejaVuSans-61"/>
      <use x="205.224609375" xlink:href="#DejaVuSans-6c"/>
      <use x="233.0078125" xlink:href="#DejaVuSans-69"/>
      <use x="260.791015625" xlink:href="#DejaVuSans-74"/>
      <use x="300.0" xlink:href="#DejaVuSans-79"/>
      <use x="359.1796875" xlink:href="#DejaVuSans-23"/>
      <use x="442.96875" xlink:href="#DejaVuSans-31"/>
      <use x="506.591796875" xlink:href="#DejaVuSans-32"/>
     </g>
    </g>
    <g id="line2d_57">
     <path d="
M533.979 142.034
L554.139 142.034" style="fill:none;stroke:#bfbf00;stroke-linecap:square;"/>
    </g>
    <g id="line2d_58"/>
    <g id="text_23">
     <!-- locality#13 -->
     <g transform="translate(569.979 147.074)scale(0.144 -0.144)">
      <use xlink:href="#DejaVuSans-6c"/>
      <use x="27.783203125" xlink:href="#DejaVuSans-6f"/>
      <use x="88.96484375" xlink:href="#DejaVuSans-63"/>
      <use x="143.9453125" xlink:href="#DejaVuSans-61"/>
      <use x="205.224609375" xlink:href="#DejaVuSans-6c"/>
      <use x="233.0078125" xlink:href="#DejaVuSans-69"/>
      <use x="260.791015625" xlink:href="#DejaVuSans-74"/>
      <use x="300.0" xlink:href="#DejaVuSans-79"/>
      <use x="359.1796875" xlink:href="#DejaVuSans-23"/>
      <use x="442.96875" xlink:href="#DejaVuSans-31"/>
      <use x="506.591796875" xlink:href="#DejaVuSans-33"/>
     </g>
    </g>
    <g id="line2d_59">
     <path d="
M533.979 163.17
L554.139 163.17" style="fill:none;stroke:#000000;stroke-linecap:square;"/>
    </g>
    <g id="line2d_60"/>
    <g id="text_24">
     <!-- locality#14 -->
     <g transform="translate(569.979 168.2105)scale(0.144 -0.144)">
      <use xlink:href="#DejaVuSans-6c"/>
      <use x="27.783203125" xlink:href="#DejaVuSans-6f"/>
      <use x="88.96484375" xlink:href="#DejaVuSans-63"/>
      <use x="143.9453125" xlink:href="#DejaVuSans-61"/>
      <use x="205.224609375" xlink:href="#DejaVuSans-6c"/>
      <use x="233.0078125" xlink:href="#DejaVuSans-69"/>
      <use x="260.791015625" xlink:href="#DejaVuSans-74"/>
      <use x="300.0" xlink:href="#DejaVuSans-79"/>
      <use x="359.1796875" xlink:href="#DejaVuSans-23"/>
      <use x="442.96875" xlink:href="#DejaVuSans-31"/>
      <use x="506.591796875" xlink:href="#DejaVuSans-34"/>
     </g>
    </g>
    <g id="line2d_61">
     <path d="
M533.979 184.307
L554.139 184.307" style="fill:none;stroke:#0000ff;stroke-linecap:square;"/>
    </g>
    <g id="line2d_62"/>
    <g id="text_25">
     <!-- locality#15 -->
     <g transform="translate(569.979 189.347)scale(0.144 -0.144)">
      <use xlink:href="#DejaVuSans-6c"/>
      <use x="27.783203125" xlink:href="#DejaVuSans-6f"/>
      <use x="88.96484375" xlink:href="#DejaVuSans-63"/>
      <use x="143.9453125" xlink:href="#DejaVuSans-61"/>
      <use x="205.224609375" xlink:href="#DejaVuSans-6c"/>
      <use x="233.0078125" xlink:href="#DejaVuSans-69"/>
      <use x="260.791015625" xlink:href="#DejaVuSans-74"/>
      <use x="300.0" xlink:href="#DejaVuSans-79"/>
      <use x="359.1796875" xlink:href="#DejaVuSans-23"/>
      <use x="442.96875" xlink:href="#DejaVuSans-31"/>
      <use x="506.591796875" xlink:href="#DejaVuSans-35"/>
     </g>
    </g>
    <g id="line2d_63">
     <path d="
M533.979 205.443
L554.139 205.443" style="fill:none;stroke:#008000;stroke-linecap:square;"/>
    </g>
    <g id="line2d_64"/>
    <g id="text_26">
     <!-- locality#2 -->
     <g transform="translate(569.979 210.4835)scale(0.144 -0.144)">
      <use xlink:href="#DejaVuSans-6c"/>
      <use x="27.783203125" xlink:href="#DejaVuSans-6f"/>
      <use x="88.96484375" xlink:href="#DejaVuSans-63"/>
      <use x="143.9453125" xlink:href="#DejaVuSans-61"/>
      <use x="205.224609375" xlink:href="#DejaVuSans-6c"/>
      <use x="233.0078125" xlink:href="#DejaVuSans-69"/>
      <use x="260.791015625" xlink:href="#DejaVuSans-74"/>
      <use x="300.0" xlink:href="#DejaVuSans-79"/>
      <use x="359.1796875" xlink:href="#DejaVuSans-23"/>
      <use x="442.96875" xlink:href="#DejaVuSans-32"/>
     </g>
    </g>
    <g id="line2d_65">
     <path d="
M533.979 226.58
L554.139 226.58" style="fill:none;stroke:#ff0000;stroke-linecap:square;"/>
    </g>
    <g id="line2d_66"/>
    <g id="text_27">
     <!-- locality#3 -->
     <g transform="translate(569.979 231.62)scale(0.144 -0.144)">
      <use xlink:href="#DejaVuSans-6c"/>
      <use x="27.783203125" xlink:href="#DejaVuSans-6f"/>
      <use x="88.96484375" xlink:href="#DejaVuSans-63"/>
      <use x="143.9453125" xlink:href="#DejaVuSans-61"/>
      <use x="205.224609375" xlink:href="#DejaVuSans-6c"/>
      <use x="233.0078125" xlink:href="#DejaVuSans-69"/>
      <use x="260.791015625" xlink:href="#DejaVuSans-74"/>
      <use x="300.0" xlink:href="#DejaVuSans-79"/>
      <use x="359.1796875" xlink:href="#DejaVuSans-23"/>
      <use x="442.96875" xlink:href="#DejaVuSans-33"/>
     </g>
    </g>
    <g id="line2d_67">
     <path d="
M533.979 247.716
L554.139 247.716" style="fill:none;stroke:#00bfbf;stroke-linecap:square;"/>
    </g>
    <g id="line2d_68"/>
    <g id="text_28">
     <!-- locality#4 -->
     <g transform="translate(569.979 252.7565)scale(0.144 -0.144)">
      <use xlink:href="#DejaVuSans-6c"/>
      <use x="27.783203125" xlink:href="#DejaVuSans-6f"/>
      <use x="88.96484375" xlink:href="#DejaVuSans-63"/>
      <use x="143.9453125" xlink:href="#DejaVuSans-61"/>
      <use x="205.224609375" xlink:href="#DejaVuSans-6c"/>
      <use x="233.0078125" xlink:href="#DejaVuSans-69"/>
      <use x="260.791015625" xlink:href="#DejaVuSans-74"/>
      <use x="300.0" xlink:href="#DejaVuSans-79"/>
      <use x="359.1796875" xlink:href="#DejaVuSans-23"/>
      <use x="442.96875" xlink:href="#DejaVuSans-34"/>
     </g>
    </g>
    <g id="line2d_69">
     <path d="
M533.979 268.853
L554.139 268.853" style="fill:none;stroke:#bf00bf;stroke-linecap:square;"/>
    </g>
    <g id="line2d_70"/>
    <g id="text_29">
     <!-- locality#5 -->
     <g transform="translate(569.979 273.893)scale(0.144 -0.144)">
      <use xlink:href="#DejaVuSans-6c"/>
      <use x="27.783203125" xlink:href="#DejaVuSans-6f"/>
      <use x="88.96484375" xlink:href="#DejaVuSans-63"/>
      <use x="143.9453125" xlink:href="#DejaVuSans-61"/>
      <use x="205.224609375" xlink:href="#DejaVuSans-6c"/>
      <use x="233.0078125" xlink:href="#DejaVuSans-69"/>
      <use x="260.791015625" xlink:href="#DejaVuSans-74"/>
      <use x="300.0" xlink:href="#DejaVuSans-79"/>
      <use x="359.1796875" xlink:href="#DejaVuSans-23"/>
      <use x="442.96875" xlink:href="#DejaVuSans-35"/>
     </g>
    </g>
    <g id="line2d_71">
     <path d="
M533.979 289.989
L554.139 289.989" style="fill:none;stroke:#bfbf00;stroke-linecap:square;"/>
    </g>
    <g id="line2d_72"/>
    <g id="text_30">
     <!-- locality#6 -->
     <defs>
      <path d="
M33.0156 40.375
Q26.375 40.375 22.4844 35.8281
Q18.6094 31.2969 18.6094 23.3906
Q18.6094 15.5312 22.4844 10.9531
Q26.375 6.39062 33.0156 6.39062
Q39.6562 6.39062 43.5312 10.9531
Q47.4062 15.5312 47.4062 23.3906
Q47.4062 31.2969 43.5312 35.8281
Q39.6562 40.375 33.0156 40.375
M52.5938 71.2969
L52.5938 62.3125
Q48.875 64.0625 45.0938 64.9844
Q41.3125 65.9219 37.5938 65.9219
Q27.8281 65.9219 22.6719 59.3281
Q17.5312 52.7344 16.7969 39.4062
Q19.6719 43.6562 24.0156 45.9219
Q28.375 48.1875 33.5938 48.1875
Q44.5781 48.1875 50.9531 41.5156
Q57.3281 34.8594 57.3281 23.3906
Q57.3281 12.1562 50.6875 5.35938
Q44.0469 -1.42188 33.0156 -1.42188
Q20.3594 -1.42188 13.6719 8.26562
Q6.98438 17.9688 6.98438 36.375
Q6.98438 53.6562 15.1875 63.9375
Q23.3906 74.2188 37.2031 74.2188
Q40.9219 74.2188 44.7031 73.4844
Q48.4844 72.75 52.5938 71.2969" id="DejaVuSans-36"/>
     </defs>
     <g transform="translate(569.979 295.0295)scale(0.144 -0.144)">
      <use xlink:href="#DejaVuSans-6c"/>
      <use x="27.783203125" xlink:href="#DejaVuSans-6f"/>
      <use x="88.96484375" xlink:href="#DejaVuSans-63"/>
      <use x="143.9453125" xlink:href="#DejaVuSans-61"/>
      <use x="205.224609375" xlink:href="#DejaVuSans-6c"/>
      <use x="233.0078125" xlink:href="#DejaVuSans-69"/>
      <use x="260.791015625" xlink:href="#DejaVuSans-74"/>
      <use x="300.0" xlink:href="#DejaVuSans-79"/>
      <use x="359.1796875" xlink:href="#DejaVuSans-23"/>
      <use x="442.96875" xlink:href="#DejaVuSans-36"/>
     </g>
    </g>
    <g id="line2d_73">
     <path d="
M533.979 311.126
L554.139 311.126" style="fill:none;stroke:#000000;stroke-linecap:square;"/>
    </g>
    <g id="line2d_74"/>
    <g id="text_31">
     <!-- locality#7 -->
     <defs>
      <path d="
M8.20312 72.9062
L55.0781 72.9062
L55.0781 68.7031
L28.6094 0
L18.3125 0
L43.2188 64.5938
L8.20312 64.5938
z
" id="DejaVuSans-37"/>
     </defs>
     <g transform="translate(569.979 316.166)scale(0.144 -0.144)">
      <use xlink:href="#DejaVuSans-6c"/>
      <use x="27.783203125" xlink:href="#DejaVuSans-6f"/>
      <use x="88.96484375" xlink:href="#DejaVuSans-63"/>
      <use x="143.9453125" xlink:href="#DejaVuSans-61"/>
      <use x="205.224609375" xlink:href="#DejaVuSans-6c"/>
      <use x="233.0078125" xlink:href="#DejaVuSans-69"/>
      <use x="260.791015625" xlink:href="#DejaVuSans-74"/>
      <use x="300.0" xlink:href="#DejaVuSans-79"/>
      <use x="359.1796875" xlink:href="#DejaVuSans-23"/>
      <use x="442.96875" xlink:href="#DejaVuSans-37"/>
     </g>
    </g>
    <g id="line2d_75">
     <path d="
M533.979 332.262
L554.139 332.262" style="fill:none;stroke:#0000ff;stroke-linecap:square;"/>
    </g>
    <g id="line2d_76"/>
    <g id="text_32">
     <!-- locality#8 -->
     <defs>
      <path d="
M31.7812 34.625
Q24.75 34.625 20.7188 30.8594
Q16.7031 27.0938 16.7031 20.5156
Q16.7031 13.9219 20.7188 10.1562
Q24.75 6.39062 31.7812 6.39062
Q38.8125 6.39062 42.8594 10.1719
Q46.9219 13.9688 46.9219 20.5156
Q46.9219 27.0938 42.8906 30.8594
Q38.875 34.625 31.7812 34.625
M21.9219 38.8125
Q15.5781 40.375 12.0312 44.7188
Q8.5 49.0781 8.5 55.3281
Q8.5 64.0625 14.7188 69.1406
Q20.9531 74.2188 31.7812 74.2188
Q42.6719 74.2188 48.875 69.1406
Q55.0781 64.0625 55.0781 55.3281
Q55.0781 49.0781 51.5312 44.7188
Q48 40.375 41.7031 38.8125
Q48.8281 37.1562 52.7969 32.3125
Q56.7812 27.4844 56.7812 20.5156
Q56.7812 9.90625 50.3125 4.23438
Q43.8438 -1.42188 31.7812 -1.42188
Q19.7344 -1.42188 13.25 4.23438
Q6.78125 9.90625 6.78125 20.5156
Q6.78125 27.4844 10.7812 32.3125
Q14.7969 37.1562 21.9219 38.8125
M18.3125 54.3906
Q18.3125 48.7344 21.8438 45.5625
Q25.3906 42.3906 31.7812 42.3906
Q38.1406 42.3906 41.7188 45.5625
Q45.3125 48.7344 45.3125 54.3906
Q45.3125 60.0625 41.7188 63.2344
Q38.1406 66.4062 31.7812 66.4062
Q25.3906 66.4062 21.8438 63.2344
Q18.3125 60.0625 18.3125 54.3906" id="DejaVuSans-38"/>
     </defs>
     <g transform="translate(569.979 337.3025)scale(0.144 -0.144)">
      <use xlink:href="#DejaVuSans-6c"/>
      <use x="27.783203125" xlink:href="#DejaVuSans-6f"/>
      <use x="88.96484375" xlink:href="#DejaVuSans-63"/>
      <use x="143.9453125" xlink:href="#DejaVuSans-61"/>
      <use x="205.224609375" xlink:href="#DejaVuSans-6c"/>
      <use x="233.0078125" xlink:href="#DejaVuSans-69"/>
      <use x="260.791015625" xlink:href="#DejaVuSans-74"/>
      <use x="300.0" xlink:href="#DejaVuSans-79"/>
      <use x="359.1796875" xlink:href="#DejaVuSans-23"/>
      <use x="442.96875" xlink:href="#DejaVuSans-38"/>
     </g>
    </g>
    <g id="line2d_77">
     <path d="
M533.979 353.399
L554.139 353.399" style="fill:none;stroke:#008000;stroke-linecap:square;"/>
    </g>
    <g id="line2d_78"/>
    <g id="text_33">
     <!-- locality#9 -->
     <defs>
      <path d="
M10.9844 1.51562
L10.9844 10.5
Q14.7031 8.73438 18.5 7.8125
Q22.3125 6.89062 25.9844 6.89062
Q35.75 6.89062 40.8906 13.4531
Q46.0469 20.0156 46.7812 33.4062
Q43.9531 29.2031 39.5938 26.9531
Q35.25 24.7031 29.9844 24.7031
Q19.0469 24.7031 12.6719 31.3125
Q6.29688 37.9375 6.29688 49.4219
Q6.29688 60.6406 12.9375 67.4219
Q19.5781 74.2188 30.6094 74.2188
Q43.2656 74.2188 49.9219 64.5156
Q56.5938 54.8281 56.5938 36.375
Q56.5938 19.1406 48.4062 8.85938
Q40.2344 -1.42188 26.4219 -1.42188
Q22.7031 -1.42188 18.8906 -0.6875
Q15.0938 0.046875 10.9844 1.51562
M30.6094 32.4219
Q37.25 32.4219 41.125 36.9531
Q45.0156 41.5 45.0156 49.4219
Q45.0156 57.2812 41.125 61.8438
Q37.25 66.4062 30.6094 66.4062
Q23.9688 66.4062 20.0938 61.8438
Q16.2188 57.2812 16.2188 49.4219
Q16.2188 41.5 20.0938 36.9531
Q23.9688 32.4219 30.6094 32.4219" id="DejaVuSans-39"/>
     </defs>
     <g transform="translate(569.979 358.439)scale(0.144 -0.144)">
      <use xlink:href="#DejaVuSans-6c"/>
      <use x="27.783203125" xlink:href="#DejaVuSans-6f"/>
      <use x="88.96484375" xlink:href="#DejaVuSans-63"/>
      <use x="143.9453125" xlink:href="#DejaVuSans-61"/>
      <use x="205.224609375" xlink:href="#DejaVuSans-6c"/>
      <use x="233.0078125" xlink:href="#DejaVuSans-69"/>
      <use x="260.791015625" xlink:href="#DejaVuSans-74"/>
      <use x="300.0" xlink:href="#DejaVuSans-79"/>
      <use x="359.1796875" xlink:href="#DejaVuSans-23"/>
      <use x="442.96875" xlink:href="#DejaVuSans-39"/>
     </g>
    </g>
   </g>
  </g>
 </g>
 <defs>
  <clipPath id="p020d36cde1">
   <rect height="345.6" width="446.4" x="70.299" y="23.14175"/>
  </clipPath>
 </defs>
</svg>
