<?xml version="1.0" encoding="utf-8" standalone="no"?>
<!DOCTYPE svg PUBLIC "-//W3C//DTD SVG 1.1//EN"
  "http://www.w3.org/Graphics/SVG/1.1/DTD/svg11.dtd">
<!-- Created with matplotlib (http://matplotlib.org/) -->
<svg height="408pt" version="1.1" viewBox="0 0 621 408" width="621pt" xmlns="http://www.w3.org/2000/svg" xmlns:xlink="http://www.w3.org/1999/xlink">
 <defs>
  <style type="text/css">
*{stroke-linecap:butt;stroke-linejoin:round;}
  </style>
 </defs>
 <g id="figure_1">
  <g id="patch_1">
   <path d="
M0 408.169
L621.489 408.169
L621.489 0
L0 0
z
" style="fill:#ffffff;"/>
  </g>
  <g id="axes_1">
   <g id="patch_2">
    <path d="
M28.9 368.742
L475.3 368.742
L475.3 23.1417
L28.9 23.1417
z
" style="fill:#ffffff;"/>
   </g>
   <g id="line2d_1">
    <path clip-path="url(#p5aa982905d)" d="
M28.9 368.651
L30.2514 367.994
L32.2033 367.019
L38.6598 363.697
L44.816 360.277
L46.3176 359.431
L50.9723 356.831
L56.8282 353.559
L58.7801 352.479
L63.4348 349.851
L65.3868 348.769
L70.0415 346.195
L76.498 342.575
L78.6001 341.42
L82.0536 339.504
L84.3059 338.287
L91.8134 334.082
L94.5161 332.617
L99.1708 330.029
L100.973 329.034
L105.777 326.36
L108.18 325.044
L113.585 322.02
L115.687 320.863
L121.543 317.579
L123.646 316.409
L129.802 312.966
L132.955 311.236
L139.261 307.702
L146.168 303.846
L147.82 302.913
L158.18 297.115
L159.982 296.121
L163.886 293.97
L165.838 292.889
L171.694 289.578
L173.646 288.496
L178.901 285.56
L180.553 284.639
L185.958 281.617
L188.06 280.46
L203.976 271.514
L205.628 270.582
L213.436 266.08
L232.205 255.48
L245.869 247.66
L247.37 246.801
L269.442 233.973
L274.698 230.915
L296.32 218.353
L320.043 204.577
L325.749 201.257
L349.323 187.565
L360.434 181.108
L380.705 169.202
L383.107 167.728
L387.311 165.169
L390.014 163.494
L393.017 161.632
L397.371 158.856
L428.152 140.741
L441.366 133.013
L443.918 131.44
L448.873 128.405
L451.876 126.53
L460.285 121.529
L475.3 112.806
L475.3 112.806" style="fill:none;stroke:#0000ff;stroke-linecap:square;"/>
   </g>
   <g id="line2d_2">
    <path clip-path="url(#p5aa982905d)" d="
M28.9 368.74
L32.6538 367.492
L38.3595 365.488
L43.1644 363.627
L45.1163 362.869
L54.1254 359.335
L56.0774 358.565
L62.5339 356.023
L64.3357 355.315
L69.7412 353.206
L71.8433 352.399
L78.1496 349.919
L80.5521 349.007
L95.2669 343.304
L99.7714 341.554
L101.874 340.748
L106.378 338.998
L108.33 338.239
L120.492 333.489
L122.144 332.832
L127.099 330.897
L129.051 330.14
L134.006 328.212
L143.465 324.495
L149.472 322.126
L151.424 321.369
L157.279 319.072
L164.337 316.344
L166.439 315.537
L174.247 312.425
L176.349 311.618
L181.754 309.504
L193.316 304.956
L199.472 302.526
L201.424 301.756
L214.187 296.599
L215.989 295.882
L218.391 294.936
L236.559 287.72
L238.061 287.112
L241.514 285.681
L245.118 284.225
L254.728 280.263
L257.731 279.026
L274.097 272.27
L304.278 259.821
L313.437 256.039
L342.866 243.896
L382.807 227.237
L384.909 226.309
L389.113 224.453
L392.266 223.032
L394.819 221.857
L398.122 220.337
L410.284 215.25
L420.194 211.038
L444.969 200.658
L447.672 199.458
L451.126 197.907
L457.282 195.228
L475.3 187.794
L475.3 187.794" style="fill:none;stroke:#008000;stroke-linecap:square;"/>
   </g>
   <g id="line2d_3">
    <path clip-path="url(#p5aa982905d)" d="
M28.9 368.74
L30.7018 367.595
L37.0082 363.54
L40.4617 361.009
L41.813 360.014
L45.8671 356.965
L47.0683 356.064
L50.6719 353.368
L51.8732 352.489
L58.3297 347.667
L59.3807 346.883
L67.6391 340.698
L70.6421 338.488
L75.4469 334.893
L76.6481 333.994
L79.6512 331.777
L81.9034 330.114
L84.0055 328.6
L85.3569 327.606
L89.8615 324.2
L91.0627 323.324
L93.1648 321.786
L94.5161 320.815
L98.1198 318.119
L100.522 316.368
L103.976 313.79
L105.327 312.796
L108.931 310.146
L110.282 309.176
L114.336 306.125
L115.537 305.247
L120.492 301.535
L121.393 300.849
L125.297 297.917
L126.649 296.946
L130.252 294.25
L131.153 293.564
L133.856 291.576
L135.357 290.464
L139.411 287.414
L140.763 286.419
L143.616 284.267
L146.919 281.807
L147.82 281.121
L150.973 278.756
L152.324 277.762
L156.529 274.593
L157.73 273.716
L160.883 271.353
L162.535 270.168
L165.688 267.827
L167.039 266.855
L170.943 263.852
L174.847 260.933
L179.652 257.348
L182.205 255.464
L184.757 253.563
L187.91 251.2
L189.262 250.203
L193.916 246.68
L194.967 245.889
L199.172 242.729
L203.376 239.56
L204.727 238.566
L214.187 231.19
L215.088 230.504
L218.841 227.686
L227.55 221.053
L230.553 218.82
L234.457 215.838
L253.076 201.345
L265.238 191.758
L271.394 186.915
L275.449 183.721
L306.68 159.141
L317.941 150.27
L321.545 147.436
L379.353 101.736
L380.554 100.744
L383.257 98.4756
L392.717 90.4456
L395.57 87.9201
L396.921 86.7157
L398.723 85.1588
L413.738 73.1043
L414.789 72.255
L441.366 51.1699
L443.168 49.6354
L446.02 47.2491
L447.672 45.8321
L449.624 44.156
L451.576 42.4789
L457.282 37.7563
L465.991 30.9022
L475.3 23.5729
L475.3 23.5729" style="fill:none;stroke:#ff0000;stroke-linecap:square;"/>
   </g>
   <g id="line2d_4">
    <path clip-path="url(#p5aa982905d)" d="
M28.9 368.74
L31.1523 367.373
L38.2094 362.926
L41.0623 360.913
L42.7139 359.758
L47.2185 356.5
L48.8701 355.346
L53.675 351.907
L54.726 351.16
L58.3297 348.581
L59.5309 347.721
L64.1856 344.35
L65.3868 343.512
L68.2397 341.498
L70.4919 339.914
L74.8463 336.77
L76.0475 335.93
L80.1016 333.058
L81.453 332.13
L83.7052 330.546
L85.2068 329.504
L89.8615 326.134
L91.0627 325.296
L93.1648 323.825
L94.5161 322.896
L98.1198 320.317
L100.823 318.438
L104.576 315.746
L105.928 314.818
L108.931 312.691
L110.432 311.649
L114.336 308.844
L115.537 308.005
L120.492 304.454
L121.393 303.798
L125.297 300.993
L126.649 300.064
L130.252 297.485
L131.153 296.829
L133.856 294.928
L135.507 293.751
L145.267 286.76
L146.619 285.809
L150.973 282.665
L152.174 281.827
L156.529 278.683
L157.88 277.731
L162.084 274.745
L163.736 273.613
L166.589 271.599
L167.64 270.83
L172.895 267.007
L173.946 266.26
L176.949 264.133
L178.301 263.179
L183.856 259.222
L184.757 258.566
L188.361 255.987
L190.012 254.81
L194.817 251.327
L197.52 249.402
L202.175 246.032
L203.226 245.286
L213.436 237.723
L218.241 234.243
L251.424 209.857
L256.229 206.236
L258.031 204.882
L263.887 200.47
L291.365 179.784
L294.518 177.403
L380.254 112.642
L381.756 111.422
L384.759 109.023
L386.711 107.446
L389.113 105.503
L391.365 103.651
L393.167 102.16
L400.675 95.996
L412.537 86.9291
L414.038 85.7092
L428.753 74.5644
L443.768 63.0344
L445.42 61.7012
L447.822 59.7572
L449.924 58.0197
L451.876 56.4161
L457.132 52.262
L468.543 43.6678
L475.3 38.5797
L475.3 38.5797" style="fill:none;stroke:#00bfbf;stroke-linecap:square;"/>
   </g>
   <g id="line2d_5">
    <path clip-path="url(#p5aa982905d)" d="
M28.9 368.74
L30.2514 367.99
L32.3535 366.801
L37.7589 363.645
L40.4617 361.881
L41.9632 360.894
L45.8671 358.291
L47.0683 357.493
L50.6719 355.1
L52.0233 354.218
L55.4768 351.93
L56.9783 350.943
L61.1825 348.13
L62.8342 347.038
L66.588 344.54
L68.0895 343.574
L70.9424 341.705
L72.7442 340.485
L76.7983 337.801
L77.9995 337.003
L80.4019 335.449
L82.3539 334.168
L84.456 332.824
L85.8074 331.941
L90.1618 329.024
L91.6633 328.037
L94.0657 326.504
L95.2669 325.706
L98.5702 323.522
L100.372 322.367
L103.976 319.974
L105.327 319.092
L109.381 316.451
L111.033 315.354
L114.336 313.171
L115.687 312.289
L119.892 309.48
L121.694 308.294
L141.664 295.074
L145.267 292.681
L146.619 291.798
L151.724 288.377
L153.375 287.327
L158.18 284.094
L159.532 283.212
L162.234 281.448
L164.637 279.894
L166.288 278.803
L167.49 278.004
L173.496 273.954
L174.697 273.157
L178.451 270.699
L182.205 268.209
L184.907 266.417
L192.265 261.505
L193.466 260.707
L196.619 258.621
L208.781 250.381
L211.634 248.376
L246.77 224.588
L298.572 188.386
L307.431 182.201
L362.837 143.49
L382.807 129.227
L384.458 127.992
L387.461 125.749
L399.774 116.322
L410.134 109.041
L414.339 105.939
L439.714 88.15
L442.267 86.2328
L456.381 75.6427
L475.3 62.4235
L475.3 62.4235" style="fill:none;stroke:#bf00bf;stroke-linecap:square;"/>
   </g>
   <g id="line2d_6">
    <path clip-path="url(#p5aa982905d)" d="
M28.9 368.74
L30.7018 367.822
L37.3085 364.393
L40.4617 362.531
L41.9632 361.637
L46.768 358.731
L48.4197 357.756
L61.7831 349.724
L63.8853 348.453
L67.4889 346.306
L129.351 309.443
L132.204 307.74
L134.306 306.501
L138.21 304.145
L139.712 303.252
L145.267 299.909
L146.769 299.016
L151.724 296.014
L153.375 295.064
L158.781 291.778
L160.132 290.98
L162.985 289.307
L164.637 288.338
L166.288 287.35
L167.49 286.628
L173.496 282.962
L174.847 282.154
L178.751 279.827
L182.955 277.319
L184.307 276.521
L188.511 273.99
L209.082 261.439
L212.235 259.447
L213.736 258.554
L218.691 255.534
L220.043 254.696
L224.998 251.66
L227.25 250.312
L231.905 247.495
L239.713 242.695
L347.521 174.588
L370.344 160.143
L379.353 154.317
L381.005 153.217
L383.858 151.284
L387.461 148.855
L392.266 145.557
L394.068 144.287
L398.723 141.009
L416.891 129.276
L418.543 128.222
L440.165 114.532
L441.816 113.414
L444.669 111.478
L446.621 110.153
L449.174 108.406
L451.876 106.532
L456.982 103.137
L469.294 95.3549
L475.3 91.5576
L475.3 91.5576" style="fill:none;stroke:#bfbf00;stroke-linecap:square;"/>
   </g>
   <g id="line2d_7">
    <path clip-path="url(#p5aa982905d)" d="
M28.9 368.74
L31.6027 367.516
L37.7589 364.639
L41.3626 362.746
L47.6689 359.371
L49.3206 358.51
L53.675 356.181
L55.1765 355.383
L82.6542 340.784
L84.6062 339.787
L89.8615 336.952
L91.363 336.158
L93.7654 334.925
L95.2669 334.131
L99.0207 332.145
L102.474 330.332
L106.228 328.351
L118.841 321.654
L123.796 319.004
L126.198 317.738
L131.604 314.851
L133.255 313.99
L137.459 311.746
L139.111 310.867
L143.916 308.293
L148.12 306.039
L152.024 303.963
L153.826 303.034
L159.231 300.114
L161.183 299.084
L164.036 297.614
L169.892 294.458
L171.093 293.8
L175.298 291.555
L177.099 290.626
L181.604 288.212
L184.307 286.794
L188.811 284.38
L190.163 283.654
L195.118 280.987
L196.469 280.261
L200.373 278.167
L214.187 270.577
L215.538 269.847
L245.719 253.398
L283.256 232.319
L339.263 200.863
L371.245 182.885
L380.254 177.692
L382.056 176.602
L392.717 170.163
L396.02 168.077
L398.272 166.678
L399.924 165.703
L413.738 157.794
L415.089 157.019
L443.017 141.151
L445.12 139.872
L448.873 137.614
L451.126 136.229
L455.03 133.842
L468.693 126.169
L475.3 122.458
L475.3 122.458" style="fill:none;stroke:#000000;stroke-linecap:square;"/>
   </g>
   <g id="line2d_8">
    <path clip-path="url(#p5aa982905d)" d="
M28.9 368.74
L33.1042 367.062
L38.2094 364.913
L42.1133 363.096
L43.9151 362.263
L46.6179 360.968
L51.1224 358.854
L55.3266 356.889
L61.1825 354.121
L63.7351 352.914
L68.6901 350.608
L70.4919 349.774
L75.4469 347.437
L77.2487 346.588
L80.2518 345.203
L83.7052 343.61
L85.6572 342.716
L91.5131 339.933
L93.9155 338.861
L98.5702 336.672
L101.123 335.496
L105.477 333.457
L107.579 332.5
L128.3 322.768
L129.952 321.994
L135.357 319.478
L140.312 317.141
L142.264 316.218
L154.727 310.367
L160.883 307.451
L163.135 306.435
L181.604 297.73
L184.607 296.331
L189.712 293.92
L191.214 293.205
L196.469 290.72
L203.076 287.594
L215.989 281.32
L218.091 280.332
L223.346 277.762
L225.298 276.867
L229.953 274.68
L231.604 273.876
L243.166 268.27
L245.118 267.331
L255.478 262.209
L274.848 252.612
L378.152 201.368
L381.155 199.8
L388.362 195.995
L390.464 194.867
L393.017 193.486
L396.471 191.558
L407.582 185.925
L413.287 182.983
L414.789 182.211
L441.366 168.95
L443.318 167.91
L446.921 166.005
L452.477 162.996
L475.3 151.593
L475.3 151.593" style="fill:none;stroke:#0000ff;stroke-linecap:square;"/>
   </g>
   <g id="line2d_9">
    <path clip-path="url(#p5aa982905d)" d="
M28.9 368.74
L32.8039 367.449
L38.3595 365.504
L43.1644 363.652
L45.1163 362.898
L53.675 359.553
L55.7771 358.738
L62.2336 356.196
L64.0354 355.492
L68.3898 353.818
L73.495 351.825
L78.6001 349.847
L93.7654 344.009
L95.7174 343.252
L147.369 323.192
L153.225 320.908
L155.027 320.205
L160.883 317.909
L163.285 317.007
L169.892 314.415
L171.544 313.761
L176.949 311.662
L178.901 310.896
L182.355 309.563
L188.361 307.217
L191.364 306.032
L197.97 303.44
L199.772 302.737
L212.835 297.482
L214.637 296.778
L216.289 296.124
L218.992 295.061
L263.436 277.121
L267.941 275.27
L326.5 251.227
L359.083 237.847
L378.152 229.941
L384.008 227.397
L388.062 225.624
L390.765 224.419
L393.768 223.065
L397.972 221.123
L416.891 213.169
L420.194 211.807
L442.117 202.734
L446.621 200.753
L450.375 199.079
L459.234 195.274
L475.3 188.677
L475.3 188.677" style="fill:none;stroke:#008000;stroke-linecap:square;"/>
   </g>
   <g id="line2d_10">
    <path clip-path="url(#p5aa982905d)" d="
M28.9 368.74
L32.8039 367.341
L38.2094 365.302
L42.4136 363.55
L46.6179 361.758
L51.4227 359.738
L57.4288 357.21
L64.1856 354.323
L66.1375 353.507
L70.3418 351.767
L76.498 349.147
L78.6001 348.275
L86.5581 344.972
L88.2098 344.264
L92.8645 342.311
L95.1168 341.388
L99.7714 339.435
L101.874 338.565
L106.378 336.679
L108.18 335.928
L113.285 333.764
L115.537 332.838
L125.898 328.454
L127.7 327.692
L132.805 325.552
L134.607 324.789
L142.414 321.491
L146.018 319.975
L152.024 317.421
L154.276 316.496
L162.385 313.069
L174.096 308.099
L179.802 305.693
L181.904 304.822
L187.31 302.536
L189.262 301.72
L195.418 299.099
L197.07 298.39
L203.376 295.703
L205.178 294.941
L218.691 289.048
L220.643 288.192
L223.796 286.822
L229.352 284.488
L236.559 281.401
L238.061 280.745
L241.815 279.069
L247.22 276.709
L252.926 274.169
L261.635 270.293
L267.491 267.684
L283.707 260.473
L291.515 256.998
L307.731 249.788
L313.587 247.18
L371.996 221.184
L373.648 220.424
L382.807 216.193
L384.909 215.193
L388.362 213.552
L391.065 212.245
L393.918 210.846
L397.522 209.04
L401.576 207.178
L412.987 202.01
L414.939 201.103
L440.465 189.685
L442.567 188.684
L450.975 184.643
L457.282 181.682
L475.3 173.668
L475.3 173.668" style="fill:none;stroke:#ff0000;stroke-linecap:square;"/>
   </g>
   <g id="line2d_11">
    <path clip-path="url(#p5aa982905d)" d="
M28.9 368.74
L31.7529 367.595
L38.3595 364.809
L43.1644 362.558
L44.9662 361.716
L51.1224 358.777
L55.7771 356.585
L61.1825 354.005
L63.585 352.864
L67.6391 350.947
L70.4919 349.622
L75.4469 347.266
L77.0986 346.486
L80.8524 344.732
L83.2548 343.619
L89.1107 340.843
L91.6633 339.642
L96.9186 337.181
L98.8705 336.279
L121.994 325.383
L126.348 323.329
L128.751 322.187
L133.405 319.996
L136.408 318.584
L140.312 316.724
L142.264 315.794
L154.427 310.046
L157.88 308.38
L162.234 306.34
L166.889 304.178
L174.247 300.623
L176.048 299.782
L181.604 297.156
L184.607 295.745
L189.712 293.314
L191.214 292.594
L196.619 290.019
L205.028 286.007
L217.49 279.904
L218.992 279.182
L233.706 272.103
L235.959 271.037
L239.562 269.251
L255.779 261.196
L347.521 215.392
L371.996 203.16
L373.648 202.306
L380.254 198.92
L382.506 197.709
L387.311 195.162
L389.413 194.025
L393.017 192.064
L396.471 190.12
L404.879 185.791
L413.738 181.236
L415.239 180.472
L438.663 168.735
L442.717 166.606
L445.42 165.157
L448.423 163.54
L452.027 161.569
L460.135 157.401
L475.3 149.83
L475.3 149.83" style="fill:none;stroke:#00bfbf;stroke-linecap:square;"/>
   </g>
   <g id="line2d_12">
    <path clip-path="url(#p5aa982905d)" d="
M28.9 368.74
L31.1523 367.716
L38.3595 364.288
L42.5638 362.072
L60.8822 352.216
L65.8372 349.545
L70.1916 347.234
L71.6931 346.435
L76.498 343.835
L77.9995 343.035
L81.1527 341.387
L83.2548 340.279
L89.1107 337.134
L91.2128 336.01
L95.4171 333.8
L96.7684 333.069
L100.222 331.251
L102.024 330.297
L106.078 328.138
L110.432 325.841
L114.787 323.495
L116.138 322.764
L120.192 320.591
L121.994 319.619
L125.898 317.528
L127.399 316.727
L133.405 313.515
L135.958 312.154
L142.414 308.677
L146.469 306.509
L151.724 303.654
L153.676 302.65
L159.231 299.624
L161.033 298.672
L164.337 296.937
L165.838 296.137
L172.144 292.704
L173.646 291.905
L177.55 289.814
L179.051 289.011
L239.863 255.852
L260.433 244.257
L264.487 241.964
L272.746 237.291
L344.368 196.776
L383.558 174.324
L386.561 172.508
L389.564 170.691
L392.266 169.013
L394.519 167.605
L397.972 165.402
L413.287 156.555
L414.789 155.672
L440.315 141.151
L443.768 139.064
L446.171 137.604
L449.474 135.585
L452.027 133.999
L457.282 130.888
L475.3 120.695
L475.3 120.695" style="fill:none;stroke:#bf00bf;stroke-linecap:square;"/>
   </g>
   <g id="line2d_13">
    <path clip-path="url(#p5aa982905d)" d="
M28.9 368.74
L30.5517 367.895
L38.2094 363.83
L41.6629 361.765
L43.0142 360.962
L47.6689 358.133
L49.3206 357.157
L53.5248 354.609
L143.616 300.465
L148.571 297.445
L149.922 296.642
L153.225 294.672
L154.577 293.866
L162.835 288.888
L167.49 286.106
L172.895 282.781
L174.397 281.881
L177.85 279.825
L180.703 278.077
L183.406 276.47
L184.907 275.553
L193.616 270.267
L197.67 267.809
L203.976 263.968
L205.178 263.241
L215.989 256.465
L218.241 255.096
L249.623 235.646
L251.424 234.493
L256.229 231.432
L257.881 230.382
L272.145 221.305
L323.197 188.829
L363.888 162.942
L382.807 150.623
L384.458 149.497
L387.461 147.455
L390.464 145.394
L392.717 143.83
L395.419 141.887
L397.522 140.392
L399.924 138.778
L413.287 130.124
L414.639 129.227
L442.717 111.176
L444.819 109.727
L447.522 107.895
L449.774 106.313
L452.627 104.347
L454.729 102.878
L469.594 93.4247
L475.3 89.7942
L475.3 89.7942" style="fill:none;stroke:#bfbf00;stroke-linecap:square;"/>
   </g>
   <g id="line2d_14">
    <path clip-path="url(#p5aa982905d)" d="
M28.9 368.74
L30.2514 367.987
L32.6538 366.623
L37.7589 363.617
L41.0623 361.442
L42.7139 360.364
L47.2185 357.324
L49.1704 356.052
L81.1527 334.775
L82.8043 333.695
L85.5071 331.922
L86.8584 331.032
L92.8645 327.023
L94.5161 325.965
L98.1198 323.559
L100.522 321.996
L104.576 319.294
L106.228 318.231
L138.661 296.657
L142.414 294.156
L147.52 290.744
L151.724 287.916
L153.375 286.859
L158.781 283.207
L160.132 282.32
L162.835 280.557
L167.49 277.483
L172.895 273.811
L174.096 273.009
L177.55 270.728
L178.751 269.924
L182.655 267.329
L184.157 266.356
L188.361 263.527
L189.862 262.535
L194.967 259.084
L198.271 256.876
L200.223 255.551
L202.025 254.344
L212.835 246.874
L214.037 246.07
L223.646 239.506
L225.748 238.112
L229.652 235.516
L230.854 234.712
L287.16 195.378
L290.614 192.949
L297.521 188.085
L319.293 172.792
L332.056 163.82
L353.377 148.84
L376.801 132.268
L380.104 129.873
L383.407 127.404
L385.359 125.931
L388.062 123.907
L390.014 122.411
L392.416 120.578
L395.57 118.092
L396.921 117.016
L398.873 115.521
L412.086 106.112
L413.888 104.743
L444.219 83.1414
L447.372 80.7593
L449.474 79.1566
L451.576 77.5349
L461.636 70.2609
L475.3 60.6592
L475.3 60.6592" style="fill:none;stroke:#000000;stroke-linecap:square;"/>
   </g>
   <g id="line2d_15">
    <path clip-path="url(#p5aa982905d)" d="
M28.9 368.74
L30.1012 368.015
L33.4045 366.003
L37.6088 363.335
L40.4617 361.311
L41.813 360.354
L45.8671 357.422
L47.0683 356.556
L50.6719 353.964
L52.0233 353.007
L55.4768 350.528
L56.678 349.663
L60.1315 347.184
L61.4828 346.205
L65.6871 343.158
L67.0384 342.202
L69.8913 340.177
L71.8433 338.789
L75.4469 336.196
L76.6481 335.332
L80.1016 332.875
L81.6031 331.827
L84.0055 330.145
L85.3569 329.188
L90.3119 325.614
L93.4651 323.388
L94.8164 322.432
L155.478 278.982
L158.781 276.594
L159.982 275.751
L162.835 273.739
L168.391 269.768
L172.895 266.471
L174.096 265.606
L177.55 263.149
L178.601 262.398
L181.754 260.142
L195.118 250.502
L196.319 249.637
L201.274 246.04
L235.809 220.733
L237.01 219.868
L266.439 197.641
L267.941 196.508
L277.25 189.469
L279.803 187.525
L281.455 186.281
L284.157 184.237
L288.061 181.273
L304.728 168.671
L308.482 165.826
L313.437 162.069
L328.752 150.474
L345.719 137.624
L351.125 133.537
L368.392 120.461
L375.449 115.051
L377.551 113.393
L381.606 110.19
L383.107 108.964
L385.81 106.783
L387.461 105.443
L391.966 101.744
L393.918 100.106
L397.071 97.406
L399.323 95.5683
L411.185 86.498
L413.438 84.681
L441.966 62.8832
L443.618 61.5215
L446.321 59.339
L448.273 57.7285
L450.525 55.8873
L452.927 53.869
L470.795 40.2317
L475.3 36.8215
L475.3 36.8215" style="fill:none;stroke:#0000ff;stroke-linecap:square;"/>
   </g>
   <g id="line2d_16">
    <path clip-path="url(#p5aa982905d)" d="
M28.9 368.74
L30.2514 367.898
L32.3535 366.561
L37.3085 363.345
L40.0112 361.363
L41.2124 360.487
L45.8671 356.999
L47.0683 356.101
L50.6719 353.412
L51.8732 352.535
L57.1285 348.621
L58.1795 347.843
L63.4348 343.88
L64.4859 343.1
L67.4889 340.883
L73.6451 336.305
L76.498 334.182
L77.549 333.403
L80.1016 331.539
L81.6031 330.452
L84.0055 328.707
L85.3569 327.715
L90.1618 324.105
L91.363 323.209
L93.4651 321.698
L94.6663 320.824
L98.2699 318.151
L143.616 284.487
L146.919 282.033
L147.82 281.349
L150.673 279.225
L153.526 277.126
L154.577 276.344
L160.883 271.606
L162.535 270.425
L165.688 268.089
L167.189 267
L174.247 261.649
L175.598 260.657
L178.901 258.202
L180.102 257.305
L183.406 254.876
L184.757 253.861
L188.361 251.171
L189.862 250.062
L194.967 246.208
L199.172 243.056
L203.376 239.895
L204.727 238.903
L215.238 230.744
L216.739 229.635
L218.391 228.383
L226.199 222.441
L227.25 221.661
L231.754 218.265
L233.106 217.25
L244.217 208.69
L245.118 208.005
L284.758 176.892
L287.461 174.766
L294.368 169.341
L311.935 155.558
L318.842 150.134
L367.942 111.57
L378.903 102.799
L380.104 101.811
L382.807 99.5479
L384.458 98.1585
L387.311 95.7782
L388.963 94.3656
L391.215 92.457
L393.317 90.6348
L400.224 84.6914
L411.185 75.9857
L414.188 73.4896
L439.714 53.3766
L441.816 51.6097
L444.219 49.5836
L447.222 47.0391
L449.174 45.3889
L451.276 43.5771
L453.078 42.0219
L454.729 40.6092
L471.696 27.2898
L475.3 24.4593
L475.3 24.4593" style="fill:none;stroke:#008000;stroke-linecap:square;"/>
   </g>
   <g id="patch_3">
    <path d="
M28.9 23.1417
L475.3 23.1417" style="fill:none;stroke:#000000;stroke-linecap:square;stroke-linejoin:miter;"/>
   </g>
   <g id="patch_4">
    <path d="
M475.3 368.742
L475.3 23.1417" style="fill:none;stroke:#000000;stroke-linecap:square;stroke-linejoin:miter;"/>
   </g>
   <g id="patch_5">
    <path d="
M28.9 368.742
L475.3 368.742" style="fill:none;stroke:#000000;stroke-linecap:square;stroke-linejoin:miter;"/>
   </g>
   <g id="patch_6">
    <path d="
M28.9 368.742
L28.9 23.1417" style="fill:none;stroke:#000000;stroke-linecap:square;stroke-linejoin:miter;"/>
   </g>
   <g id="matplotlib.axis_1">
    <g id="xtick_1">
     <g id="line2d_17">
      <defs>
       <path d="
M0 0
L0 -4" id="m93b0483c22" style="stroke:#000000;stroke-width:0.5;"/>
      </defs>
      <g>
       <use style="stroke:#000000;stroke-width:0.5;" x="28.9" xlink:href="#m93b0483c22" y="368.74175"/>
      </g>
     </g>
     <g id="line2d_18">
      <defs>
       <path d="
M0 0
L0 4" id="m741efc42ff" style="stroke:#000000;stroke-width:0.5;"/>
      </defs>
      <g>
       <use style="stroke:#000000;stroke-width:0.5;" x="28.9" xlink:href="#m741efc42ff" y="23.14175"/>
      </g>
     </g>
     <g id="text_1">
      <!-- 0 -->
      <defs>
       <path d="
M31.7812 66.4062
Q24.1719 66.4062 20.3281 58.9062
Q16.5 51.4219 16.5 36.375
Q16.5 21.3906 20.3281 13.8906
Q24.1719 6.39062 31.7812 6.39062
Q39.4531 6.39062 43.2812 13.8906
Q47.125 21.3906 47.125 36.375
Q47.125 51.4219 43.2812 58.9062
Q39.4531 66.4062 31.7812 66.4062
M31.7812 74.2188
Q44.0469 74.2188 50.5156 64.5156
Q56.9844 54.8281 56.9844 36.375
Q56.9844 17.9688 50.5156 8.26562
Q44.0469 -1.42188 31.7812 -1.42188
Q19.5312 -1.42188 13.0625 8.26562
Q6.59375 17.9688 6.59375 36.375
Q6.59375 54.8281 13.0625 64.5156
Q19.5312 74.2188 31.7812 74.2188" id="DejaVuSans-30"/>
      </defs>
      <g transform="translate(25.8765625 381.859875)scale(0.12 -0.12)">
       <use xlink:href="#DejaVuSans-30"/>
      </g>
     </g>
    </g>
    <g id="xtick_2">
     <g id="line2d_19">
      <g>
       <use style="stroke:#000000;stroke-width:0.5;" x="103.97568113" xlink:href="#m93b0483c22" y="368.74175"/>
      </g>
     </g>
     <g id="line2d_20">
      <g>
       <use style="stroke:#000000;stroke-width:0.5;" x="103.97568113" xlink:href="#m741efc42ff" y="23.14175"/>
      </g>
     </g>
     <g id="text_2">
      <!-- 500 -->
      <defs>
       <path d="
M10.7969 72.9062
L49.5156 72.9062
L49.5156 64.5938
L19.8281 64.5938
L19.8281 46.7344
Q21.9688 47.4688 24.1094 47.8281
Q26.2656 48.1875 28.4219 48.1875
Q40.625 48.1875 47.75 41.5
Q54.8906 34.8125 54.8906 23.3906
Q54.8906 11.625 47.5625 5.09375
Q40.2344 -1.42188 26.9062 -1.42188
Q22.3125 -1.42188 17.5469 -0.640625
Q12.7969 0.140625 7.71875 1.70312
L7.71875 11.625
Q12.1094 9.23438 16.7969 8.0625
Q21.4844 6.89062 26.7031 6.89062
Q35.1562 6.89062 40.0781 11.3281
Q45.0156 15.7656 45.0156 23.3906
Q45.0156 31 40.0781 35.4375
Q35.1562 39.8906 26.7031 39.8906
Q22.75 39.8906 18.8125 39.0156
Q14.8906 38.1406 10.7969 36.2812
z
" id="DejaVuSans-35"/>
      </defs>
      <g transform="translate(93.3847436302 381.859875)scale(0.12 -0.12)">
       <use xlink:href="#DejaVuSans-35"/>
       <use x="63.623046875" xlink:href="#DejaVuSans-30"/>
       <use x="127.24609375" xlink:href="#DejaVuSans-30"/>
      </g>
     </g>
    </g>
    <g id="xtick_3">
     <g id="line2d_21">
      <g>
       <use style="stroke:#000000;stroke-width:0.5;" x="179.05136226" xlink:href="#m93b0483c22" y="368.74175"/>
      </g>
     </g>
     <g id="line2d_22">
      <g>
       <use style="stroke:#000000;stroke-width:0.5;" x="179.05136226" xlink:href="#m741efc42ff" y="23.14175"/>
      </g>
     </g>
     <g id="text_3">
      <!-- 1000 -->
      <defs>
       <path d="
M12.4062 8.29688
L28.5156 8.29688
L28.5156 63.9219
L10.9844 60.4062
L10.9844 69.3906
L28.4219 72.9062
L38.2812 72.9062
L38.2812 8.29688
L54.3906 8.29688
L54.3906 0
L12.4062 0
z
" id="DejaVuSans-31"/>
      </defs>
      <g transform="translate(164.83886226 381.859875)scale(0.12 -0.12)">
       <use xlink:href="#DejaVuSans-31"/>
       <use x="63.623046875" xlink:href="#DejaVuSans-30"/>
       <use x="127.24609375" xlink:href="#DejaVuSans-30"/>
       <use x="190.869140625" xlink:href="#DejaVuSans-30"/>
      </g>
     </g>
    </g>
    <g id="xtick_4">
     <g id="line2d_23">
      <g>
       <use style="stroke:#000000;stroke-width:0.5;" x="254.127043391" xlink:href="#m93b0483c22" y="368.74175"/>
      </g>
     </g>
     <g id="line2d_24">
      <g>
       <use style="stroke:#000000;stroke-width:0.5;" x="254.127043391" xlink:href="#m741efc42ff" y="23.14175"/>
      </g>
     </g>
     <g id="text_4">
      <!-- 1500 -->
      <g transform="translate(239.914543391 381.859875)scale(0.12 -0.12)">
       <use xlink:href="#DejaVuSans-31"/>
       <use x="63.623046875" xlink:href="#DejaVuSans-35"/>
       <use x="127.24609375" xlink:href="#DejaVuSans-30"/>
       <use x="190.869140625" xlink:href="#DejaVuSans-30"/>
      </g>
     </g>
    </g>
    <g id="xtick_5">
     <g id="line2d_25">
      <g>
       <use style="stroke:#000000;stroke-width:0.5;" x="329.202724521" xlink:href="#m93b0483c22" y="368.74175"/>
      </g>
     </g>
     <g id="line2d_26">
      <g>
       <use style="stroke:#000000;stroke-width:0.5;" x="329.202724521" xlink:href="#m741efc42ff" y="23.14175"/>
      </g>
     </g>
     <g id="text_5">
      <!-- 2000 -->
      <defs>
       <path d="
M19.1875 8.29688
L53.6094 8.29688
L53.6094 0
L7.32812 0
L7.32812 8.29688
Q12.9375 14.1094 22.625 23.8906
Q32.3281 33.6875 34.8125 36.5312
Q39.5469 41.8438 41.4219 45.5312
Q43.3125 49.2188 43.3125 52.7812
Q43.3125 58.5938 39.2344 62.25
Q35.1562 65.9219 28.6094 65.9219
Q23.9688 65.9219 18.8125 64.3125
Q13.6719 62.7031 7.8125 59.4219
L7.8125 69.3906
Q13.7656 71.7812 18.9375 73
Q24.125 74.2188 28.4219 74.2188
Q39.75 74.2188 46.4844 68.5469
Q53.2188 62.8906 53.2188 53.4219
Q53.2188 48.9219 51.5312 44.8906
Q49.8594 40.875 45.4062 35.4062
Q44.1875 33.9844 37.6406 27.2188
Q31.1094 20.4531 19.1875 8.29688" id="DejaVuSans-32"/>
      </defs>
      <g transform="translate(314.770849521 381.859875)scale(0.12 -0.12)">
       <use xlink:href="#DejaVuSans-32"/>
       <use x="63.623046875" xlink:href="#DejaVuSans-30"/>
       <use x="127.24609375" xlink:href="#DejaVuSans-30"/>
       <use x="190.869140625" xlink:href="#DejaVuSans-30"/>
      </g>
     </g>
    </g>
    <g id="xtick_6">
     <g id="line2d_27">
      <g>
       <use style="stroke:#000000;stroke-width:0.5;" x="404.278405651" xlink:href="#m93b0483c22" y="368.74175"/>
      </g>
     </g>
     <g id="line2d_28">
      <g>
       <use style="stroke:#000000;stroke-width:0.5;" x="404.278405651" xlink:href="#m741efc42ff" y="23.14175"/>
      </g>
     </g>
     <g id="text_6">
      <!-- 2500 -->
      <g transform="translate(389.846530651 381.859875)scale(0.12 -0.12)">
       <use xlink:href="#DejaVuSans-32"/>
       <use x="63.623046875" xlink:href="#DejaVuSans-35"/>
       <use x="127.24609375" xlink:href="#DejaVuSans-30"/>
       <use x="190.869140625" xlink:href="#DejaVuSans-30"/>
      </g>
     </g>
    </g>
    <g id="text_7">
     <!-- time -->
     <defs>
      <path d="
M18.3125 70.2188
L18.3125 54.6875
L36.8125 54.6875
L36.8125 47.7031
L18.3125 47.7031
L18.3125 18.0156
Q18.3125 11.3281 20.1406 9.42188
Q21.9688 7.51562 27.5938 7.51562
L36.8125 7.51562
L36.8125 0
L27.5938 0
Q17.1875 0 13.2344 3.875
Q9.28125 7.76562 9.28125 18.0156
L9.28125 47.7031
L2.6875 47.7031
L2.6875 54.6875
L9.28125 54.6875
L9.28125 70.2188
z
" id="DejaVuSans-74"/>
      <path d="
M52 44.1875
Q55.375 50.25 60.0625 53.125
Q64.75 56 71.0938 56
Q79.6406 56 84.2812 50.0156
Q88.9219 44.0469 88.9219 33.0156
L88.9219 0
L79.8906 0
L79.8906 32.7188
Q79.8906 40.5781 77.0938 44.375
Q74.3125 48.1875 68.6094 48.1875
Q61.625 48.1875 57.5625 43.5469
Q53.5156 38.9219 53.5156 30.9062
L53.5156 0
L44.4844 0
L44.4844 32.7188
Q44.4844 40.625 41.7031 44.4062
Q38.9219 48.1875 33.1094 48.1875
Q26.2188 48.1875 22.1562 43.5312
Q18.1094 38.875 18.1094 30.9062
L18.1094 0
L9.07812 0
L9.07812 54.6875
L18.1094 54.6875
L18.1094 46.1875
Q21.1875 51.2188 25.4844 53.6094
Q29.7812 56 35.6875 56
Q41.6562 56 45.8281 52.9688
Q50 49.9531 52 44.1875" id="DejaVuSans-6d"/>
      <path d="
M56.2031 29.5938
L56.2031 25.2031
L14.8906 25.2031
Q15.4844 15.9219 20.4844 11.0625
Q25.4844 6.20312 34.4219 6.20312
Q39.5938 6.20312 44.4531 7.46875
Q49.3125 8.73438 54.1094 11.2812
L54.1094 2.78125
Q49.2656 0.734375 44.1875 -0.34375
Q39.1094 -1.42188 33.8906 -1.42188
Q20.7969 -1.42188 13.1562 6.1875
Q5.51562 13.8125 5.51562 26.8125
Q5.51562 40.2344 12.7656 48.1094
Q20.0156 56 32.3281 56
Q43.3594 56 49.7812 48.8906
Q56.2031 41.7969 56.2031 29.5938
M47.2188 32.2344
Q47.125 39.5938 43.0938 43.9844
Q39.0625 48.3906 32.4219 48.3906
Q24.9062 48.3906 20.3906 44.1406
Q15.875 39.8906 15.1875 32.1719
z
" id="DejaVuSans-65"/>
      <path d="
M9.42188 54.6875
L18.4062 54.6875
L18.4062 0
L9.42188 0
z

M9.42188 75.9844
L18.4062 75.9844
L18.4062 64.5938
L9.42188 64.5938
z
" id="DejaVuSans-69"/>
     </defs>
     <g transform="translate(239.025625 398.473625)scale(0.12 -0.12)">
      <use xlink:href="#DejaVuSans-74"/>
      <use x="39.208984375" xlink:href="#DejaVuSans-69"/>
      <use x="66.9921875" xlink:href="#DejaVuSans-6d"/>
      <use x="164.404296875" xlink:href="#DejaVuSans-65"/>
     </g>
    </g>
   </g>
   <g id="matplotlib.axis_2">
    <g id="ytick_1">
     <g id="line2d_29">
      <defs>
       <path d="
M0 0
L4 0" id="m728421d6d4" style="stroke:#000000;stroke-width:0.5;"/>
      </defs>
      <g>
       <use style="stroke:#000000;stroke-width:0.5;" x="28.9" xlink:href="#m728421d6d4" y="368.74175"/>
      </g>
     </g>
     <g id="line2d_30">
      <defs>
       <path d="
M0 0
L-4 0" id="mcb0005524f" style="stroke:#000000;stroke-width:0.5;"/>
      </defs>
      <g>
       <use style="stroke:#000000;stroke-width:0.5;" x="475.3" xlink:href="#mcb0005524f" y="368.74175"/>
      </g>
     </g>
     <g id="text_8">
      <!-- 0.0 -->
      <defs>
       <path d="
M10.6875 12.4062
L21 12.4062
L21 0
L10.6875 0
z
" id="DejaVuSans-2e"/>
      </defs>
      <g transform="translate(7.404375 372.053)scale(0.12 -0.12)">
       <use xlink:href="#DejaVuSans-30"/>
       <use x="63.623046875" xlink:href="#DejaVuSans-2e"/>
       <use x="95.41015625" xlink:href="#DejaVuSans-30"/>
      </g>
     </g>
    </g>
    <g id="ytick_2">
     <g id="line2d_31">
      <g>
       <use style="stroke:#000000;stroke-width:0.5;" x="28.9" xlink:href="#m728421d6d4" y="325.54175"/>
      </g>
     </g>
     <g id="line2d_32">
      <g>
       <use style="stroke:#000000;stroke-width:0.5;" x="475.3" xlink:href="#mcb0005524f" y="325.54175"/>
      </g>
     </g>
     <g id="text_9">
      <!-- 0.5 -->
      <g transform="translate(7.655625 328.853)scale(0.12 -0.12)">
       <use xlink:href="#DejaVuSans-30"/>
       <use x="63.623046875" xlink:href="#DejaVuSans-2e"/>
       <use x="95.41015625" xlink:href="#DejaVuSans-35"/>
      </g>
     </g>
    </g>
    <g id="ytick_3">
     <g id="line2d_33">
      <g>
       <use style="stroke:#000000;stroke-width:0.5;" x="28.9" xlink:href="#m728421d6d4" y="282.34175"/>
      </g>
     </g>
     <g id="line2d_34">
      <g>
       <use style="stroke:#000000;stroke-width:0.5;" x="475.3" xlink:href="#mcb0005524f" y="282.34175"/>
      </g>
     </g>
     <g id="text_10">
      <!-- 1.0 -->
      <g transform="translate(7.93125 285.653)scale(0.12 -0.12)">
       <use xlink:href="#DejaVuSans-31"/>
       <use x="63.623046875" xlink:href="#DejaVuSans-2e"/>
       <use x="95.41015625" xlink:href="#DejaVuSans-30"/>
      </g>
     </g>
    </g>
    <g id="ytick_4">
     <g id="line2d_35">
      <g>
       <use style="stroke:#000000;stroke-width:0.5;" x="28.9" xlink:href="#m728421d6d4" y="239.14175"/>
      </g>
     </g>
     <g id="line2d_36">
      <g>
       <use style="stroke:#000000;stroke-width:0.5;" x="475.3" xlink:href="#mcb0005524f" y="239.14175"/>
      </g>
     </g>
     <g id="text_11">
      <!-- 1.5 -->
      <g transform="translate(8.1825 242.453)scale(0.12 -0.12)">
       <use xlink:href="#DejaVuSans-31"/>
       <use x="63.623046875" xlink:href="#DejaVuSans-2e"/>
       <use x="95.41015625" xlink:href="#DejaVuSans-35"/>
      </g>
     </g>
    </g>
    <g id="ytick_5">
     <g id="line2d_37">
      <g>
       <use style="stroke:#000000;stroke-width:0.5;" x="28.9" xlink:href="#m728421d6d4" y="195.94175"/>
      </g>
     </g>
     <g id="line2d_38">
      <g>
       <use style="stroke:#000000;stroke-width:0.5;" x="475.3" xlink:href="#mcb0005524f" y="195.94175"/>
      </g>
     </g>
     <g id="text_12">
      <!-- 2.0 -->
      <g transform="translate(7.4925 199.253)scale(0.12 -0.12)">
       <use xlink:href="#DejaVuSans-32"/>
       <use x="63.623046875" xlink:href="#DejaVuSans-2e"/>
       <use x="95.41015625" xlink:href="#DejaVuSans-30"/>
      </g>
     </g>
    </g>
    <g id="ytick_6">
     <g id="line2d_39">
      <g>
       <use style="stroke:#000000;stroke-width:0.5;" x="28.9" xlink:href="#m728421d6d4" y="152.74175"/>
      </g>
     </g>
     <g id="line2d_40">
      <g>
       <use style="stroke:#000000;stroke-width:0.5;" x="475.3" xlink:href="#mcb0005524f" y="152.74175"/>
      </g>
     </g>
     <g id="text_13">
      <!-- 2.5 -->
      <g transform="translate(7.74375 156.053)scale(0.12 -0.12)">
       <use xlink:href="#DejaVuSans-32"/>
       <use x="63.623046875" xlink:href="#DejaVuSans-2e"/>
       <use x="95.41015625" xlink:href="#DejaVuSans-35"/>
      </g>
     </g>
    </g>
    <g id="ytick_7">
     <g id="line2d_41">
      <g>
       <use style="stroke:#000000;stroke-width:0.5;" x="28.9" xlink:href="#m728421d6d4" y="109.54175"/>
      </g>
     </g>
     <g id="line2d_42">
      <g>
       <use style="stroke:#000000;stroke-width:0.5;" x="475.3" xlink:href="#mcb0005524f" y="109.54175"/>
      </g>
     </g>
     <g id="text_14">
      <!-- 3.0 -->
      <defs>
       <path d="
M40.5781 39.3125
Q47.6562 37.7969 51.625 33
Q55.6094 28.2188 55.6094 21.1875
Q55.6094 10.4062 48.1875 4.48438
Q40.7656 -1.42188 27.0938 -1.42188
Q22.5156 -1.42188 17.6562 -0.515625
Q12.7969 0.390625 7.625 2.20312
L7.625 11.7188
Q11.7188 9.32812 16.5938 8.10938
Q21.4844 6.89062 26.8125 6.89062
Q36.0781 6.89062 40.9375 10.5469
Q45.7969 14.2031 45.7969 21.1875
Q45.7969 27.6406 41.2812 31.2656
Q36.7656 34.9062 28.7188 34.9062
L20.2188 34.9062
L20.2188 43.0156
L29.1094 43.0156
Q36.375 43.0156 40.2344 45.9219
Q44.0938 48.8281 44.0938 54.2969
Q44.0938 59.9062 40.1094 62.9062
Q36.1406 65.9219 28.7188 65.9219
Q24.6562 65.9219 20.0156 65.0312
Q15.375 64.1562 9.8125 62.3125
L9.8125 71.0938
Q15.4375 72.6562 20.3438 73.4375
Q25.25 74.2188 29.5938 74.2188
Q40.8281 74.2188 47.3594 69.1094
Q53.9062 64.0156 53.9062 55.3281
Q53.9062 49.2656 50.4375 45.0938
Q46.9688 40.9219 40.5781 39.3125" id="DejaVuSans-33"/>
      </defs>
      <g transform="translate(7.528125 112.853)scale(0.12 -0.12)">
       <use xlink:href="#DejaVuSans-33"/>
       <use x="63.623046875" xlink:href="#DejaVuSans-2e"/>
       <use x="95.41015625" xlink:href="#DejaVuSans-30"/>
      </g>
     </g>
    </g>
    <g id="ytick_8">
     <g id="line2d_43">
      <g>
       <use style="stroke:#000000;stroke-width:0.5;" x="28.9" xlink:href="#m728421d6d4" y="66.34175"/>
      </g>
     </g>
     <g id="line2d_44">
      <g>
       <use style="stroke:#000000;stroke-width:0.5;" x="475.3" xlink:href="#mcb0005524f" y="66.34175"/>
      </g>
     </g>
     <g id="text_15">
      <!-- 3.5 -->
      <g transform="translate(7.779375 69.653)scale(0.12 -0.12)">
       <use xlink:href="#DejaVuSans-33"/>
       <use x="63.623046875" xlink:href="#DejaVuSans-2e"/>
       <use x="95.41015625" xlink:href="#DejaVuSans-35"/>
      </g>
     </g>
    </g>
    <g id="ytick_9">
     <g id="line2d_45">
      <g>
       <use style="stroke:#000000;stroke-width:0.5;" x="28.9" xlink:href="#m728421d6d4" y="23.14175"/>
      </g>
     </g>
     <g id="line2d_46">
      <g>
       <use style="stroke:#000000;stroke-width:0.5;" x="475.3" xlink:href="#mcb0005524f" y="23.14175"/>
      </g>
     </g>
     <g id="text_16">
      <!-- 4.0 -->
      <defs>
       <path d="
M37.7969 64.3125
L12.8906 25.3906
L37.7969 25.3906
z

M35.2031 72.9062
L47.6094 72.9062
L47.6094 25.3906
L58.0156 25.3906
L58.0156 17.1875
L47.6094 17.1875
L47.6094 0
L37.7969 0
L37.7969 17.1875
L4.89062 17.1875
L4.89062 26.7031
z
" id="DejaVuSans-34"/>
      </defs>
      <g transform="translate(7.2 26.453)scale(0.12 -0.12)">
       <use xlink:href="#DejaVuSans-34"/>
       <use x="63.623046875" xlink:href="#DejaVuSans-2e"/>
       <use x="95.41015625" xlink:href="#DejaVuSans-30"/>
      </g>
     </g>
    </g>
    <g id="text_17">
     <!-- 1e7 -->
     <defs>
      <path d="
M8.20312 72.9062
L55.0781 72.9062
L55.0781 68.7031
L28.6094 0
L18.3125 0
L43.2188 64.5938
L8.20312 64.5938
z
" id="DejaVuSans-37"/>
     </defs>
     <g transform="translate(28.9 20.14175)scale(0.12 -0.12)">
      <use xlink:href="#DejaVuSans-31"/>
      <use x="63.623046875" xlink:href="#DejaVuSans-65"/>
      <use x="125.146484375" xlink:href="#DejaVuSans-37"/>
     </g>
    </g>
   </g>
   <g id="text_18">
    <!-- /agas/count/route -->
    <defs>
     <path d="
M25.3906 72.9062
L33.6875 72.9062
L8.29688 -9.28125
L0 -9.28125
z
" id="DejaVuSans-2f"/>
     <path d="
M30.6094 48.3906
Q23.3906 48.3906 19.1875 42.75
Q14.9844 37.1094 14.9844 27.2969
Q14.9844 17.4844 19.1562 11.8438
Q23.3438 6.20312 30.6094 6.20312
Q37.7969 6.20312 41.9844 11.8594
Q46.1875 17.5312 46.1875 27.2969
Q46.1875 37.0156 41.9844 42.7031
Q37.7969 48.3906 30.6094 48.3906
M30.6094 56
Q42.3281 56 49.0156 48.375
Q55.7188 40.7656 55.7188 27.2969
Q55.7188 13.875 49.0156 6.21875
Q42.3281 -1.42188 30.6094 -1.42188
Q18.8438 -1.42188 12.1719 6.21875
Q5.51562 13.875 5.51562 27.2969
Q5.51562 40.7656 12.1719 48.375
Q18.8438 56 30.6094 56" id="DejaVuSans-6f"/>
     <path d="
M54.8906 33.0156
L54.8906 0
L45.9062 0
L45.9062 32.7188
Q45.9062 40.4844 42.875 44.3281
Q39.8438 48.1875 33.7969 48.1875
Q26.5156 48.1875 22.3125 43.5469
Q18.1094 38.9219 18.1094 30.9062
L18.1094 0
L9.07812 0
L9.07812 54.6875
L18.1094 54.6875
L18.1094 46.1875
Q21.3438 51.125 25.7031 53.5625
Q30.0781 56 35.7969 56
Q45.2188 56 50.0469 50.1719
Q54.8906 44.3438 54.8906 33.0156" id="DejaVuSans-6e"/>
     <path d="
M8.5 21.5781
L8.5 54.6875
L17.4844 54.6875
L17.4844 21.9219
Q17.4844 14.1562 20.5 10.2656
Q23.5312 6.39062 29.5938 6.39062
Q36.8594 6.39062 41.0781 11.0312
Q45.3125 15.6719 45.3125 23.6875
L45.3125 54.6875
L54.2969 54.6875
L54.2969 0
L45.3125 0
L45.3125 8.40625
Q42.0469 3.42188 37.7188 1
Q33.4062 -1.42188 27.6875 -1.42188
Q18.2656 -1.42188 13.375 4.4375
Q8.5 10.2969 8.5 21.5781
M31.1094 56
z
" id="DejaVuSans-75"/>
     <path d="
M45.4062 27.9844
Q45.4062 37.75 41.375 43.1094
Q37.3594 48.4844 30.0781 48.4844
Q22.8594 48.4844 18.8281 43.1094
Q14.7969 37.75 14.7969 27.9844
Q14.7969 18.2656 18.8281 12.8906
Q22.8594 7.51562 30.0781 7.51562
Q37.3594 7.51562 41.375 12.8906
Q45.4062 18.2656 45.4062 27.9844
M54.3906 6.78125
Q54.3906 -7.17188 48.1875 -13.9844
Q42 -20.7969 29.2031 -20.7969
Q24.4688 -20.7969 20.2656 -20.0938
Q16.0625 -19.3906 12.1094 -17.9219
L12.1094 -9.1875
Q16.0625 -11.3281 19.9219 -12.3438
Q23.7812 -13.375 27.7812 -13.375
Q36.625 -13.375 41.0156 -8.76562
Q45.4062 -4.15625 45.4062 5.17188
L45.4062 9.625
Q42.625 4.78125 38.2812 2.39062
Q33.9375 0 27.875 0
Q17.8281 0 11.6719 7.65625
Q5.51562 15.3281 5.51562 27.9844
Q5.51562 40.6719 11.6719 48.3281
Q17.8281 56 27.875 56
Q33.9375 56 38.2812 53.6094
Q42.625 51.2188 45.4062 46.3906
L45.4062 54.6875
L54.3906 54.6875
z
" id="DejaVuSans-67"/>
     <path d="
M41.1094 46.2969
Q39.5938 47.1719 37.8125 47.5781
Q36.0312 48 33.8906 48
Q26.2656 48 22.1875 43.0469
Q18.1094 38.0938 18.1094 28.8125
L18.1094 0
L9.07812 0
L9.07812 54.6875
L18.1094 54.6875
L18.1094 46.1875
Q20.9531 51.1719 25.4844 53.5781
Q30.0312 56 36.5312 56
Q37.4531 56 38.5781 55.875
Q39.7031 55.7656 41.0625 55.5156
z
" id="DejaVuSans-72"/>
     <path d="
M48.7812 52.5938
L48.7812 44.1875
Q44.9688 46.2969 41.1406 47.3438
Q37.3125 48.3906 33.4062 48.3906
Q24.6562 48.3906 19.8125 42.8438
Q14.9844 37.3125 14.9844 27.2969
Q14.9844 17.2812 19.8125 11.7344
Q24.6562 6.20312 33.4062 6.20312
Q37.3125 6.20312 41.1406 7.25
Q44.9688 8.29688 48.7812 10.4062
L48.7812 2.09375
Q45.0156 0.34375 40.9844 -0.53125
Q36.9688 -1.42188 32.4219 -1.42188
Q20.0625 -1.42188 12.7812 6.34375
Q5.51562 14.1094 5.51562 27.2969
Q5.51562 40.6719 12.8594 48.3281
Q20.2188 56 33.0156 56
Q37.1562 56 41.1094 55.1406
Q45.0625 54.2969 48.7812 52.5938" id="DejaVuSans-63"/>
     <path d="
M44.2812 53.0781
L44.2812 44.5781
Q40.4844 46.5312 36.375 47.5
Q32.2812 48.4844 27.875 48.4844
Q21.1875 48.4844 17.8438 46.4375
Q14.5 44.3906 14.5 40.2812
Q14.5 37.1562 16.8906 35.375
Q19.2812 33.5938 26.5156 31.9844
L29.5938 31.2969
Q39.1562 29.25 43.1875 25.5156
Q47.2188 21.7812 47.2188 15.0938
Q47.2188 7.46875 41.1875 3.01562
Q35.1562 -1.42188 24.6094 -1.42188
Q20.2188 -1.42188 15.4531 -0.5625
Q10.6875 0.296875 5.42188 2
L5.42188 11.2812
Q10.4062 8.6875 15.2344 7.39062
Q20.0625 6.10938 24.8125 6.10938
Q31.1562 6.10938 34.5625 8.28125
Q37.9844 10.4531 37.9844 14.4062
Q37.9844 18.0625 35.5156 20.0156
Q33.0625 21.9688 24.7031 23.7812
L21.5781 24.5156
Q13.2344 26.2656 9.51562 29.9062
Q5.8125 33.5469 5.8125 39.8906
Q5.8125 47.6094 11.2812 51.7969
Q16.75 56 26.8125 56
Q31.7812 56 36.1719 55.2656
Q40.5781 54.5469 44.2812 53.0781" id="DejaVuSans-73"/>
     <path d="
M34.2812 27.4844
Q23.3906 27.4844 19.1875 25
Q14.9844 22.5156 14.9844 16.5
Q14.9844 11.7188 18.1406 8.90625
Q21.2969 6.10938 26.7031 6.10938
Q34.1875 6.10938 38.7031 11.4062
Q43.2188 16.7031 43.2188 25.4844
L43.2188 27.4844
z

M52.2031 31.2031
L52.2031 0
L43.2188 0
L43.2188 8.29688
Q40.1406 3.32812 35.5469 0.953125
Q30.9531 -1.42188 24.3125 -1.42188
Q15.9219 -1.42188 10.9531 3.29688
Q6 8.01562 6 15.9219
Q6 25.1406 12.1719 29.8281
Q18.3594 34.5156 30.6094 34.5156
L43.2188 34.5156
L43.2188 35.4062
Q43.2188 41.6094 39.1406 45
Q35.0625 48.3906 27.6875 48.3906
Q23 48.3906 18.5469 47.2656
Q14.1094 46.1406 10.0156 43.8906
L10.0156 52.2031
Q14.9375 54.1094 19.5781 55.0469
Q24.2188 56 28.6094 56
Q40.4844 56 46.3438 49.8438
Q52.2031 43.7031 52.2031 31.2031" id="DejaVuSans-61"/>
    </defs>
    <g transform="translate(188.72875 18.14175)scale(0.144 -0.144)">
     <use xlink:href="#DejaVuSans-2f"/>
     <use x="33.69140625" xlink:href="#DejaVuSans-61"/>
     <use x="94.970703125" xlink:href="#DejaVuSans-67"/>
     <use x="158.447265625" xlink:href="#DejaVuSans-61"/>
     <use x="219.7265625" xlink:href="#DejaVuSans-73"/>
     <use x="271.826171875" xlink:href="#DejaVuSans-2f"/>
     <use x="305.517578125" xlink:href="#DejaVuSans-63"/>
     <use x="360.498046875" xlink:href="#DejaVuSans-6f"/>
     <use x="421.6796875" xlink:href="#DejaVuSans-75"/>
     <use x="485.05859375" xlink:href="#DejaVuSans-6e"/>
     <use x="548.4375" xlink:href="#DejaVuSans-74"/>
     <use x="587.646484375" xlink:href="#DejaVuSans-2f"/>
     <use x="621.337890625" xlink:href="#DejaVuSans-72"/>
     <use x="660.201171875" xlink:href="#DejaVuSans-6f"/>
     <use x="721.3828125" xlink:href="#DejaVuSans-75"/>
     <use x="784.76171875" xlink:href="#DejaVuSans-74"/>
     <use x="823.970703125" xlink:href="#DejaVuSans-65"/>
    </g>
   </g>
   <g id="legend_1">
    <g id="patch_7">
     <path d="
M482.5 367.194
L614.289 367.194
L614.289 24.6897
L482.5 24.6897
z
" style="fill:#ffffff;stroke:#000000;stroke-linejoin:miter;"/>
    </g>
    <g id="line2d_47">
     <path d="
M492.58 36.3515
L512.74 36.3515" style="fill:none;stroke:#0000ff;stroke-linecap:square;"/>
    </g>
    <g id="line2d_48"/>
    <g id="text_19">
     <!-- locality#0 -->
     <defs>
      <path d="
M51.125 44
L36.9219 44
L32.8125 27.6875
L47.125 27.6875
z

M43.7969 71.7812
L38.7188 51.5156
L52.9844 51.5156
L58.1094 71.7812
L65.9219 71.7812
L60.8906 51.5156
L76.125 51.5156
L76.125 44
L58.9844 44
L54.9844 27.6875
L70.5156 27.6875
L70.5156 20.2188
L53.0781 20.2188
L48 0
L40.1875 0
L45.2188 20.2188
L30.9062 20.2188
L25.875 0
L18.0156 0
L23.0938 20.2188
L7.71875 20.2188
L7.71875 27.6875
L24.9062 27.6875
L29 44
L13.2812 44
L13.2812 51.5156
L30.9062 51.5156
L35.8906 71.7812
z
" id="DejaVuSans-23"/>
      <path d="
M32.1719 -5.07812
Q28.375 -14.8438 24.75 -17.8125
Q21.1406 -20.7969 15.0938 -20.7969
L7.90625 -20.7969
L7.90625 -13.2812
L13.1875 -13.2812
Q16.8906 -13.2812 18.9375 -11.5156
Q21 -9.76562 23.4844 -3.21875
L25.0938 0.875
L2.98438 54.6875
L12.5 54.6875
L29.5938 11.9219
L46.6875 54.6875
L56.2031 54.6875
z
" id="DejaVuSans-79"/>
      <path d="
M9.42188 75.9844
L18.4062 75.9844
L18.4062 0
L9.42188 0
z
" id="DejaVuSans-6c"/>
     </defs>
     <g transform="translate(528.58 41.3915)scale(0.144 -0.144)">
      <use xlink:href="#DejaVuSans-6c"/>
      <use x="27.783203125" xlink:href="#DejaVuSans-6f"/>
      <use x="88.96484375" xlink:href="#DejaVuSans-63"/>
      <use x="143.9453125" xlink:href="#DejaVuSans-61"/>
      <use x="205.224609375" xlink:href="#DejaVuSans-6c"/>
      <use x="233.0078125" xlink:href="#DejaVuSans-69"/>
      <use x="260.791015625" xlink:href="#DejaVuSans-74"/>
      <use x="300.0" xlink:href="#DejaVuSans-79"/>
      <use x="359.1796875" xlink:href="#DejaVuSans-23"/>
      <use x="442.96875" xlink:href="#DejaVuSans-30"/>
     </g>
    </g>
    <g id="line2d_49">
     <path d="
M492.58 57.488
L512.74 57.488" style="fill:none;stroke:#008000;stroke-linecap:square;"/>
    </g>
    <g id="line2d_50"/>
    <g id="text_20">
     <!-- locality#1 -->
     <g transform="translate(528.58 62.528)scale(0.144 -0.144)">
      <use xlink:href="#DejaVuSans-6c"/>
      <use x="27.783203125" xlink:href="#DejaVuSans-6f"/>
      <use x="88.96484375" xlink:href="#DejaVuSans-63"/>
      <use x="143.9453125" xlink:href="#DejaVuSans-61"/>
      <use x="205.224609375" xlink:href="#DejaVuSans-6c"/>
      <use x="233.0078125" xlink:href="#DejaVuSans-69"/>
      <use x="260.791015625" xlink:href="#DejaVuSans-74"/>
      <use x="300.0" xlink:href="#DejaVuSans-79"/>
      <use x="359.1796875" xlink:href="#DejaVuSans-23"/>
      <use x="442.96875" xlink:href="#DejaVuSans-31"/>
     </g>
    </g>
    <g id="line2d_51">
     <path d="
M492.58 78.6245
L512.74 78.6245" style="fill:none;stroke:#ff0000;stroke-linecap:square;"/>
    </g>
    <g id="line2d_52"/>
    <g id="text_21">
     <!-- locality#10 -->
     <g transform="translate(528.58 83.6645)scale(0.144 -0.144)">
      <use xlink:href="#DejaVuSans-6c"/>
      <use x="27.783203125" xlink:href="#DejaVuSans-6f"/>
      <use x="88.96484375" xlink:href="#DejaVuSans-63"/>
      <use x="143.9453125" xlink:href="#DejaVuSans-61"/>
      <use x="205.224609375" xlink:href="#DejaVuSans-6c"/>
      <use x="233.0078125" xlink:href="#DejaVuSans-69"/>
      <use x="260.791015625" xlink:href="#DejaVuSans-74"/>
      <use x="300.0" xlink:href="#DejaVuSans-79"/>
      <use x="359.1796875" xlink:href="#DejaVuSans-23"/>
      <use x="442.96875" xlink:href="#DejaVuSans-31"/>
      <use x="506.591796875" xlink:href="#DejaVuSans-30"/>
     </g>
    </g>
    <g id="line2d_53">
     <path d="
M492.58 99.761
L512.74 99.761" style="fill:none;stroke:#00bfbf;stroke-linecap:square;"/>
    </g>
    <g id="line2d_54"/>
    <g id="text_22">
     <!-- locality#11 -->
     <g transform="translate(528.58 104.801)scale(0.144 -0.144)">
      <use xlink:href="#DejaVuSans-6c"/>
      <use x="27.783203125" xlink:href="#DejaVuSans-6f"/>
      <use x="88.96484375" xlink:href="#DejaVuSans-63"/>
      <use x="143.9453125" xlink:href="#DejaVuSans-61"/>
      <use x="205.224609375" xlink:href="#DejaVuSans-6c"/>
      <use x="233.0078125" xlink:href="#DejaVuSans-69"/>
      <use x="260.791015625" xlink:href="#DejaVuSans-74"/>
      <use x="300.0" xlink:href="#DejaVuSans-79"/>
      <use x="359.1796875" xlink:href="#DejaVuSans-23"/>
      <use x="442.96875" xlink:href="#DejaVuSans-31"/>
      <use x="506.591796875" xlink:href="#DejaVuSans-31"/>
     </g>
    </g>
    <g id="line2d_55">
     <path d="
M492.58 120.897
L512.74 120.897" style="fill:none;stroke:#bf00bf;stroke-linecap:square;"/>
    </g>
    <g id="line2d_56"/>
    <g id="text_23">
     <!-- locality#12 -->
     <g transform="translate(528.58 125.9375)scale(0.144 -0.144)">
      <use xlink:href="#DejaVuSans-6c"/>
      <use x="27.783203125" xlink:href="#DejaVuSans-6f"/>
      <use x="88.96484375" xlink:href="#DejaVuSans-63"/>
      <use x="143.9453125" xlink:href="#DejaVuSans-61"/>
      <use x="205.224609375" xlink:href="#DejaVuSans-6c"/>
      <use x="233.0078125" xlink:href="#DejaVuSans-69"/>
      <use x="260.791015625" xlink:href="#DejaVuSans-74"/>
      <use x="300.0" xlink:href="#DejaVuSans-79"/>
      <use x="359.1796875" xlink:href="#DejaVuSans-23"/>
      <use x="442.96875" xlink:href="#DejaVuSans-31"/>
      <use x="506.591796875" xlink:href="#DejaVuSans-32"/>
     </g>
    </g>
    <g id="line2d_57">
     <path d="
M492.58 142.034
L512.74 142.034" style="fill:none;stroke:#bfbf00;stroke-linecap:square;"/>
    </g>
    <g id="line2d_58"/>
    <g id="text_24">
     <!-- locality#13 -->
     <g transform="translate(528.58 147.074)scale(0.144 -0.144)">
      <use xlink:href="#DejaVuSans-6c"/>
      <use x="27.783203125" xlink:href="#DejaVuSans-6f"/>
      <use x="88.96484375" xlink:href="#DejaVuSans-63"/>
      <use x="143.9453125" xlink:href="#DejaVuSans-61"/>
      <use x="205.224609375" xlink:href="#DejaVuSans-6c"/>
      <use x="233.0078125" xlink:href="#DejaVuSans-69"/>
      <use x="260.791015625" xlink:href="#DejaVuSans-74"/>
      <use x="300.0" xlink:href="#DejaVuSans-79"/>
      <use x="359.1796875" xlink:href="#DejaVuSans-23"/>
      <use x="442.96875" xlink:href="#DejaVuSans-31"/>
      <use x="506.591796875" xlink:href="#DejaVuSans-33"/>
     </g>
    </g>
    <g id="line2d_59">
     <path d="
M492.58 163.17
L512.74 163.17" style="fill:none;stroke:#000000;stroke-linecap:square;"/>
    </g>
    <g id="line2d_60"/>
    <g id="text_25">
     <!-- locality#14 -->
     <g transform="translate(528.58 168.2105)scale(0.144 -0.144)">
      <use xlink:href="#DejaVuSans-6c"/>
      <use x="27.783203125" xlink:href="#DejaVuSans-6f"/>
      <use x="88.96484375" xlink:href="#DejaVuSans-63"/>
      <use x="143.9453125" xlink:href="#DejaVuSans-61"/>
      <use x="205.224609375" xlink:href="#DejaVuSans-6c"/>
      <use x="233.0078125" xlink:href="#DejaVuSans-69"/>
      <use x="260.791015625" xlink:href="#DejaVuSans-74"/>
      <use x="300.0" xlink:href="#DejaVuSans-79"/>
      <use x="359.1796875" xlink:href="#DejaVuSans-23"/>
      <use x="442.96875" xlink:href="#DejaVuSans-31"/>
      <use x="506.591796875" xlink:href="#DejaVuSans-34"/>
     </g>
    </g>
    <g id="line2d_61">
     <path d="
M492.58 184.307
L512.74 184.307" style="fill:none;stroke:#0000ff;stroke-linecap:square;"/>
    </g>
    <g id="line2d_62"/>
    <g id="text_26">
     <!-- locality#15 -->
     <g transform="translate(528.58 189.347)scale(0.144 -0.144)">
      <use xlink:href="#DejaVuSans-6c"/>
      <use x="27.783203125" xlink:href="#DejaVuSans-6f"/>
      <use x="88.96484375" xlink:href="#DejaVuSans-63"/>
      <use x="143.9453125" xlink:href="#DejaVuSans-61"/>
      <use x="205.224609375" xlink:href="#DejaVuSans-6c"/>
      <use x="233.0078125" xlink:href="#DejaVuSans-69"/>
      <use x="260.791015625" xlink:href="#DejaVuSans-74"/>
      <use x="300.0" xlink:href="#DejaVuSans-79"/>
      <use x="359.1796875" xlink:href="#DejaVuSans-23"/>
      <use x="442.96875" xlink:href="#DejaVuSans-31"/>
      <use x="506.591796875" xlink:href="#DejaVuSans-35"/>
     </g>
    </g>
    <g id="line2d_63">
     <path d="
M492.58 205.443
L512.74 205.443" style="fill:none;stroke:#008000;stroke-linecap:square;"/>
    </g>
    <g id="line2d_64"/>
    <g id="text_27">
     <!-- locality#2 -->
     <g transform="translate(528.58 210.4835)scale(0.144 -0.144)">
      <use xlink:href="#DejaVuSans-6c"/>
      <use x="27.783203125" xlink:href="#DejaVuSans-6f"/>
      <use x="88.96484375" xlink:href="#DejaVuSans-63"/>
      <use x="143.9453125" xlink:href="#DejaVuSans-61"/>
      <use x="205.224609375" xlink:href="#DejaVuSans-6c"/>
      <use x="233.0078125" xlink:href="#DejaVuSans-69"/>
      <use x="260.791015625" xlink:href="#DejaVuSans-74"/>
      <use x="300.0" xlink:href="#DejaVuSans-79"/>
      <use x="359.1796875" xlink:href="#DejaVuSans-23"/>
      <use x="442.96875" xlink:href="#DejaVuSans-32"/>
     </g>
    </g>
    <g id="line2d_65">
     <path d="
M492.58 226.58
L512.74 226.58" style="fill:none;stroke:#ff0000;stroke-linecap:square;"/>
    </g>
    <g id="line2d_66"/>
    <g id="text_28">
     <!-- locality#3 -->
     <g transform="translate(528.58 231.62)scale(0.144 -0.144)">
      <use xlink:href="#DejaVuSans-6c"/>
      <use x="27.783203125" xlink:href="#DejaVuSans-6f"/>
      <use x="88.96484375" xlink:href="#DejaVuSans-63"/>
      <use x="143.9453125" xlink:href="#DejaVuSans-61"/>
      <use x="205.224609375" xlink:href="#DejaVuSans-6c"/>
      <use x="233.0078125" xlink:href="#DejaVuSans-69"/>
      <use x="260.791015625" xlink:href="#DejaVuSans-74"/>
      <use x="300.0" xlink:href="#DejaVuSans-79"/>
      <use x="359.1796875" xlink:href="#DejaVuSans-23"/>
      <use x="442.96875" xlink:href="#DejaVuSans-33"/>
     </g>
    </g>
    <g id="line2d_67">
     <path d="
M492.58 247.716
L512.74 247.716" style="fill:none;stroke:#00bfbf;stroke-linecap:square;"/>
    </g>
    <g id="line2d_68"/>
    <g id="text_29">
     <!-- locality#4 -->
     <g transform="translate(528.58 252.7565)scale(0.144 -0.144)">
      <use xlink:href="#DejaVuSans-6c"/>
      <use x="27.783203125" xlink:href="#DejaVuSans-6f"/>
      <use x="88.96484375" xlink:href="#DejaVuSans-63"/>
      <use x="143.9453125" xlink:href="#DejaVuSans-61"/>
      <use x="205.224609375" xlink:href="#DejaVuSans-6c"/>
      <use x="233.0078125" xlink:href="#DejaVuSans-69"/>
      <use x="260.791015625" xlink:href="#DejaVuSans-74"/>
      <use x="300.0" xlink:href="#DejaVuSans-79"/>
      <use x="359.1796875" xlink:href="#DejaVuSans-23"/>
      <use x="442.96875" xlink:href="#DejaVuSans-34"/>
     </g>
    </g>
    <g id="line2d_69">
     <path d="
M492.58 268.853
L512.74 268.853" style="fill:none;stroke:#bf00bf;stroke-linecap:square;"/>
    </g>
    <g id="line2d_70"/>
    <g id="text_30">
     <!-- locality#5 -->
     <g transform="translate(528.58 273.893)scale(0.144 -0.144)">
      <use xlink:href="#DejaVuSans-6c"/>
      <use x="27.783203125" xlink:href="#DejaVuSans-6f"/>
      <use x="88.96484375" xlink:href="#DejaVuSans-63"/>
      <use x="143.9453125" xlink:href="#DejaVuSans-61"/>
      <use x="205.224609375" xlink:href="#DejaVuSans-6c"/>
      <use x="233.0078125" xlink:href="#DejaVuSans-69"/>
      <use x="260.791015625" xlink:href="#DejaVuSans-74"/>
      <use x="300.0" xlink:href="#DejaVuSans-79"/>
      <use x="359.1796875" xlink:href="#DejaVuSans-23"/>
      <use x="442.96875" xlink:href="#DejaVuSans-35"/>
     </g>
    </g>
    <g id="line2d_71">
     <path d="
M492.58 289.989
L512.74 289.989" style="fill:none;stroke:#bfbf00;stroke-linecap:square;"/>
    </g>
    <g id="line2d_72"/>
    <g id="text_31">
     <!-- locality#6 -->
     <defs>
      <path d="
M33.0156 40.375
Q26.375 40.375 22.4844 35.8281
Q18.6094 31.2969 18.6094 23.3906
Q18.6094 15.5312 22.4844 10.9531
Q26.375 6.39062 33.0156 6.39062
Q39.6562 6.39062 43.5312 10.9531
Q47.4062 15.5312 47.4062 23.3906
Q47.4062 31.2969 43.5312 35.8281
Q39.6562 40.375 33.0156 40.375
M52.5938 71.2969
L52.5938 62.3125
Q48.875 64.0625 45.0938 64.9844
Q41.3125 65.9219 37.5938 65.9219
Q27.8281 65.9219 22.6719 59.3281
Q17.5312 52.7344 16.7969 39.4062
Q19.6719 43.6562 24.0156 45.9219
Q28.375 48.1875 33.5938 48.1875
Q44.5781 48.1875 50.9531 41.5156
Q57.3281 34.8594 57.3281 23.3906
Q57.3281 12.1562 50.6875 5.35938
Q44.0469 -1.42188 33.0156 -1.42188
Q20.3594 -1.42188 13.6719 8.26562
Q6.98438 17.9688 6.98438 36.375
Q6.98438 53.6562 15.1875 63.9375
Q23.3906 74.2188 37.2031 74.2188
Q40.9219 74.2188 44.7031 73.4844
Q48.4844 72.75 52.5938 71.2969" id="DejaVuSans-36"/>
     </defs>
     <g transform="translate(528.58 295.0295)scale(0.144 -0.144)">
      <use xlink:href="#DejaVuSans-6c"/>
      <use x="27.783203125" xlink:href="#DejaVuSans-6f"/>
      <use x="88.96484375" xlink:href="#DejaVuSans-63"/>
      <use x="143.9453125" xlink:href="#DejaVuSans-61"/>
      <use x="205.224609375" xlink:href="#DejaVuSans-6c"/>
      <use x="233.0078125" xlink:href="#DejaVuSans-69"/>
      <use x="260.791015625" xlink:href="#DejaVuSans-74"/>
      <use x="300.0" xlink:href="#DejaVuSans-79"/>
      <use x="359.1796875" xlink:href="#DejaVuSans-23"/>
      <use x="442.96875" xlink:href="#DejaVuSans-36"/>
     </g>
    </g>
    <g id="line2d_73">
     <path d="
M492.58 311.126
L512.74 311.126" style="fill:none;stroke:#000000;stroke-linecap:square;"/>
    </g>
    <g id="line2d_74"/>
    <g id="text_32">
     <!-- locality#7 -->
     <g transform="translate(528.58 316.166)scale(0.144 -0.144)">
      <use xlink:href="#DejaVuSans-6c"/>
      <use x="27.783203125" xlink:href="#DejaVuSans-6f"/>
      <use x="88.96484375" xlink:href="#DejaVuSans-63"/>
      <use x="143.9453125" xlink:href="#DejaVuSans-61"/>
      <use x="205.224609375" xlink:href="#DejaVuSans-6c"/>
      <use x="233.0078125" xlink:href="#DejaVuSans-69"/>
      <use x="260.791015625" xlink:href="#DejaVuSans-74"/>
      <use x="300.0" xlink:href="#DejaVuSans-79"/>
      <use x="359.1796875" xlink:href="#DejaVuSans-23"/>
      <use x="442.96875" xlink:href="#DejaVuSans-37"/>
     </g>
    </g>
    <g id="line2d_75">
     <path d="
M492.58 332.262
L512.74 332.262" style="fill:none;stroke:#0000ff;stroke-linecap:square;"/>
    </g>
    <g id="line2d_76"/>
    <g id="text_33">
     <!-- locality#8 -->
     <defs>
      <path d="
M31.7812 34.625
Q24.75 34.625 20.7188 30.8594
Q16.7031 27.0938 16.7031 20.5156
Q16.7031 13.9219 20.7188 10.1562
Q24.75 6.39062 31.7812 6.39062
Q38.8125 6.39062 42.8594 10.1719
Q46.9219 13.9688 46.9219 20.5156
Q46.9219 27.0938 42.8906 30.8594
Q38.875 34.625 31.7812 34.625
M21.9219 38.8125
Q15.5781 40.375 12.0312 44.7188
Q8.5 49.0781 8.5 55.3281
Q8.5 64.0625 14.7188 69.1406
Q20.9531 74.2188 31.7812 74.2188
Q42.6719 74.2188 48.875 69.1406
Q55.0781 64.0625 55.0781 55.3281
Q55.0781 49.0781 51.5312 44.7188
Q48 40.375 41.7031 38.8125
Q48.8281 37.1562 52.7969 32.3125
Q56.7812 27.4844 56.7812 20.5156
Q56.7812 9.90625 50.3125 4.23438
Q43.8438 -1.42188 31.7812 -1.42188
Q19.7344 -1.42188 13.25 4.23438
Q6.78125 9.90625 6.78125 20.5156
Q6.78125 27.4844 10.7812 32.3125
Q14.7969 37.1562 21.9219 38.8125
M18.3125 54.3906
Q18.3125 48.7344 21.8438 45.5625
Q25.3906 42.3906 31.7812 42.3906
Q38.1406 42.3906 41.7188 45.5625
Q45.3125 48.7344 45.3125 54.3906
Q45.3125 60.0625 41.7188 63.2344
Q38.1406 66.4062 31.7812 66.4062
Q25.3906 66.4062 21.8438 63.2344
Q18.3125 60.0625 18.3125 54.3906" id="DejaVuSans-38"/>
     </defs>
     <g transform="translate(528.58 337.3025)scale(0.144 -0.144)">
      <use xlink:href="#DejaVuSans-6c"/>
      <use x="27.783203125" xlink:href="#DejaVuSans-6f"/>
      <use x="88.96484375" xlink:href="#DejaVuSans-63"/>
      <use x="143.9453125" xlink:href="#DejaVuSans-61"/>
      <use x="205.224609375" xlink:href="#DejaVuSans-6c"/>
      <use x="233.0078125" xlink:href="#DejaVuSans-69"/>
      <use x="260.791015625" xlink:href="#DejaVuSans-74"/>
      <use x="300.0" xlink:href="#DejaVuSans-79"/>
      <use x="359.1796875" xlink:href="#DejaVuSans-23"/>
      <use x="442.96875" xlink:href="#DejaVuSans-38"/>
     </g>
    </g>
    <g id="line2d_77">
     <path d="
M492.58 353.399
L512.74 353.399" style="fill:none;stroke:#008000;stroke-linecap:square;"/>
    </g>
    <g id="line2d_78"/>
    <g id="text_34">
     <!-- locality#9 -->
     <defs>
      <path d="
M10.9844 1.51562
L10.9844 10.5
Q14.7031 8.73438 18.5 7.8125
Q22.3125 6.89062 25.9844 6.89062
Q35.75 6.89062 40.8906 13.4531
Q46.0469 20.0156 46.7812 33.4062
Q43.9531 29.2031 39.5938 26.9531
Q35.25 24.7031 29.9844 24.7031
Q19.0469 24.7031 12.6719 31.3125
Q6.29688 37.9375 6.29688 49.4219
Q6.29688 60.6406 12.9375 67.4219
Q19.5781 74.2188 30.6094 74.2188
Q43.2656 74.2188 49.9219 64.5156
Q56.5938 54.8281 56.5938 36.375
Q56.5938 19.1406 48.4062 8.85938
Q40.2344 -1.42188 26.4219 -1.42188
Q22.7031 -1.42188 18.8906 -0.6875
Q15.0938 0.046875 10.9844 1.51562
M30.6094 32.4219
Q37.25 32.4219 41.125 36.9531
Q45.0156 41.5 45.0156 49.4219
Q45.0156 57.2812 41.125 61.8438
Q37.25 66.4062 30.6094 66.4062
Q23.9688 66.4062 20.0938 61.8438
Q16.2188 57.2812 16.2188 49.4219
Q16.2188 41.5 20.0938 36.9531
Q23.9688 32.4219 30.6094 32.4219" id="DejaVuSans-39"/>
     </defs>
     <g transform="translate(528.58 358.439)scale(0.144 -0.144)">
      <use xlink:href="#DejaVuSans-6c"/>
      <use x="27.783203125" xlink:href="#DejaVuSans-6f"/>
      <use x="88.96484375" xlink:href="#DejaVuSans-63"/>
      <use x="143.9453125" xlink:href="#DejaVuSans-61"/>
      <use x="205.224609375" xlink:href="#DejaVuSans-6c"/>
      <use x="233.0078125" xlink:href="#DejaVuSans-69"/>
      <use x="260.791015625" xlink:href="#DejaVuSans-74"/>
      <use x="300.0" xlink:href="#DejaVuSans-79"/>
      <use x="359.1796875" xlink:href="#DejaVuSans-23"/>
      <use x="442.96875" xlink:href="#DejaVuSans-39"/>
     </g>
    </g>
   </g>
  </g>
 </g>
 <defs>
  <clipPath id="p5aa982905d">
   <rect height="345.6" width="446.4" x="28.9" y="23.14175"/>
  </clipPath>
 </defs>
</svg>
