<?xml version="1.0" encoding="utf-8" standalone="no"?>
<!DOCTYPE svg PUBLIC "-//W3C//DTD SVG 1.1//EN"
  "http://www.w3.org/Graphics/SVG/1.1/DTD/svg11.dtd">
<!-- Created with matplotlib (http://matplotlib.org/) -->
<svg height="408pt" version="1.1" viewBox="0 0 617 408" width="617pt" xmlns="http://www.w3.org/2000/svg" xmlns:xlink="http://www.w3.org/1999/xlink">
 <defs>
  <style type="text/css">
*{stroke-linecap:butt;stroke-linejoin:round;}
  </style>
 </defs>
 <g id="figure_1">
  <g id="patch_1">
   <path d="
M0 408.169
L617.383 408.169
L617.383 0
L0 0
z
" style="fill:#ffffff;"/>
  </g>
  <g id="axes_1">
   <g id="patch_2">
    <path d="
M24.7938 368.742
L471.194 368.742
L471.194 23.1417
L24.7938 23.1417
z
" style="fill:#ffffff;"/>
   </g>
   <g id="line2d_1">
    <path clip-path="url(#p75e4a4db2e)" d="
M24.7938 345.702
L26.1931 368.742
L35.9887 368.742
L37.3881 345.702
L38.7875 368.742
L49.9825 368.742
L51.3818 322.662
L52.7812 368.742
L55.58 368.742
L56.9793 357.222
L58.3787 368.742
L62.5768 368.742
L63.9762 311.142
L65.3756 368.742
L76.5706 368.742
L77.9699 345.702
L79.3693 368.742
L89.1649 368.742
L90.5643 322.662
L91.9637 368.742
L103.159 368.742
L104.558 322.662
L105.957 368.742
L122.75 368.742
L124.149 357.222
L125.549 368.742
L129.747 368.742
L131.146 345.702
L132.545 368.742
L142.341 368.742
L143.74 357.222
L145.14 368.742
L156.335 368.742
L157.734 311.142
L159.134 368.742
L168.929 368.742
L170.329 357.222
L171.728 368.742
L182.923 368.742
L184.322 357.222
L185.722 368.742
L189.92 368.742
L191.319 357.222
L192.719 368.742
L195.517 368.742
L196.917 253.542
L198.316 368.742
L222.105 368.742
L223.505 357.222
L224.904 368.742
L248.693 368.742
L250.093 357.222
L251.492 368.742
L255.69 368.742
L257.09 357.222
L258.489 368.742
L262.687 368.742
L264.087 357.222
L265.486 368.742
L275.282 368.742
L276.681 345.702
L278.08 368.742
L289.275 368.742
L290.675 345.702
L292.074 368.742
L301.87 368.742
L303.269 357.222
L304.668 368.742
L315.863 368.742
L317.263 357.222
L318.662 368.742
L322.86 368.742
L324.26 357.222
L325.659 368.742
L328.458 368.742
L329.857 345.702
L331.256 368.742
L355.046 368.742
L356.445 357.222
L357.845 357.222
L359.244 368.742
L369.04 368.742
L370.439 276.582
L371.838 368.742
L390.03 368.742
L391.429 357.222
L392.829 368.742
L408.222 368.742
L409.621 311.142
L411.021 368.742
L422.216 368.742
L423.615 357.222
L425.014 368.742
L448.804 368.742
L450.203 345.702
L451.603 368.742
L455.801 368.742
L457.2 357.222
L458.599 368.742
L461.398 368.742
L462.798 345.702
L464.197 368.742
L471.194 368.742
L471.194 368.742" style="fill:none;stroke:#0000ff;stroke-linecap:square;"/>
   </g>
   <g id="line2d_2">
    <path clip-path="url(#p75e4a4db2e)" d="
M24.7938 322.662
L26.1931 368.742
L37.3881 368.742
L38.7875 357.222
L40.1869 368.742
L51.3818 368.742
L52.7812 345.702
L54.1806 368.742
L65.3756 368.742
L66.7749 345.702
L68.1743 368.742
L79.3693 368.742
L80.7687 357.222
L82.168 368.742
L94.7624 368.742
L96.1618 357.222
L97.5611 368.742
L108.756 368.742
L110.156 345.702
L111.555 368.742
L122.75 368.742
L124.149 357.222
L125.549 368.742
L136.744 368.742
L138.143 345.702
L139.542 368.742
L152.137 368.742
L153.536 345.702
L154.935 368.742
L166.13 368.742
L167.53 357.222
L168.929 368.742
L180.124 368.742
L181.524 357.222
L182.923 368.742
L194.118 368.742
L195.517 345.702
L196.917 368.742
L209.511 368.742
L210.91 357.222
L212.31 368.742
L223.505 368.742
L224.904 357.222
L226.303 368.742
L237.498 368.742
L238.898 357.222
L240.297 368.742
L251.492 368.742
L252.892 311.142
L254.291 368.742
L280.879 368.742
L282.278 345.702
L283.678 368.742
L294.873 368.742
L296.272 345.702
L297.671 368.742
L308.866 368.742
L310.266 288.102
L311.665 368.742
L338.253 368.742
L339.653 357.222
L341.052 368.742
L352.247 368.742
L353.646 265.062
L355.046 368.742
L380.235 368.742
L381.634 357.222
L383.033 368.742
L395.628 368.742
L397.027 357.222
L398.426 368.742
L409.621 368.742
L411.021 357.222
L412.42 368.742
L423.615 368.742
L425.014 345.702
L426.414 368.742
L451.603 368.742
L453.002 357.222
L454.401 368.742
L466.996 368.742
L468.395 357.222
L469.794 368.742
L471.194 368.742
L471.194 368.742" style="fill:none;stroke:#008000;stroke-linecap:square;"/>
   </g>
   <g id="line2d_3">
    <path clip-path="url(#p75e4a4db2e)" d="
M24.7938 345.702
L26.1931 368.742
L30.3912 368.742
L31.7906 311.142
L33.19 368.742
L37.3881 368.742
L38.7875 345.702
L40.1869 368.742
L44.385 368.742
L45.7843 345.702
L47.1837 368.742
L52.7812 368.742
L54.1806 357.222
L55.58 368.742
L59.7781 368.742
L61.1774 345.702
L62.5768 368.742
L66.7749 368.742
L68.1743 334.182
L69.5737 368.742
L75.1712 368.742
L76.5706 357.222
L77.9699 368.742
L82.168 368.742
L83.5674 345.702
L84.9668 368.742
L97.5611 368.742
L98.9605 345.702
L100.36 368.742
L104.558 368.742
L105.957 334.182
L107.357 368.742
L111.555 368.742
L112.954 345.702
L114.354 368.742
L126.948 368.742
L128.347 345.702
L129.747 368.742
L133.945 368.742
L135.344 345.702
L136.744 368.742
L140.942 368.742
L142.341 357.222
L143.74 368.742
L149.338 368.742
L150.737 357.222
L152.137 368.742
L156.335 368.742
L157.734 334.182
L159.134 368.742
L163.332 368.742
L164.731 345.702
L166.13 368.742
L171.728 368.742
L173.127 345.702
L174.527 368.742
L178.725 368.742
L180.124 357.222
L181.524 368.742
L185.722 368.742
L187.121 334.182
L188.52 368.742
L208.112 368.742
L209.511 345.702
L210.91 368.742
L223.505 368.742
L224.904 218.982
L226.303 368.742
L252.892 368.742
L254.291 357.222
L255.69 368.742
L259.888 368.742
L261.288 322.662
L262.687 368.742
L282.278 368.742
L283.678 311.142
L285.077 368.742
L304.668 368.742
L306.068 334.182
L307.467 368.742
L320.061 368.742
L321.461 357.222
L322.86 368.742
L327.058 368.742
L328.458 288.102
L329.857 368.742
L349.448 368.742
L350.848 357.222
L352.247 368.742
L356.445 368.742
L357.845 288.102
L359.244 368.742
L371.838 368.742
L373.238 334.182
L374.637 368.742
L394.228 368.742
L395.628 311.142
L397.027 368.742
L408.222 368.742
L409.621 322.662
L411.021 368.742
L423.615 368.742
L425.014 253.542
L426.414 368.742
L453.002 368.742
L454.401 357.222
L455.801 368.742
L459.999 368.742
L461.398 149.862
L462.798 368.742
L471.194 368.742
L471.194 368.742" style="fill:none;stroke:#ff0000;stroke-linecap:square;"/>
   </g>
   <g id="line2d_4">
    <path clip-path="url(#p75e4a4db2e)" d="
M24.7938 288.102
L26.1931 368.742
L30.3912 368.742
L31.7906 334.182
L33.19 368.742
L38.7875 368.742
L40.1869 334.182
L41.5862 368.742
L45.7843 368.742
L47.1837 357.222
L48.5831 368.742
L54.1806 368.742
L55.58 322.662
L56.9793 368.742
L61.1774 368.742
L62.5768 334.182
L63.9762 368.742
L69.5737 368.742
L70.9731 345.702
L72.3724 368.742
L76.5706 368.742
L77.9699 334.182
L79.3693 368.742
L84.9668 368.742
L86.3662 357.222
L87.7655 368.742
L91.9637 368.742
L93.363 357.222
L94.7624 368.742
L100.36 368.742
L101.759 322.662
L103.159 368.742
L108.756 368.742
L110.156 357.222
L111.555 368.742
L115.753 368.742
L117.152 357.222
L118.552 368.742
L124.149 368.742
L125.549 322.662
L126.948 368.742
L139.542 368.742
L140.942 322.662
L142.341 368.742
L154.935 368.742
L156.335 322.662
L157.734 368.742
L170.329 368.742
L171.728 357.222
L173.127 368.742
L178.725 368.742
L180.124 322.662
L181.524 368.742
L185.722 368.742
L187.121 357.222
L188.52 368.742
L194.118 368.742
L195.517 345.702
L196.917 368.742
L201.115 368.742
L202.514 345.702
L203.913 368.742
L209.511 368.742
L210.91 345.702
L212.31 368.742
L216.508 368.742
L217.907 322.662
L219.307 368.742
L231.901 368.742
L233.3 345.702
L234.7 368.742
L240.297 368.742
L241.697 357.222
L243.096 368.742
L247.294 368.742
L248.693 334.182
L250.093 368.742
L264.087 368.742
L265.486 322.662
L266.885 368.742
L279.48 368.742
L280.879 299.622
L282.278 368.742
L301.87 368.742
L303.269 230.502
L304.668 368.742
L334.055 368.742
L335.455 149.862
L336.854 368.742
L371.838 368.742
L373.238 322.662
L374.637 368.742
L387.231 368.742
L388.631 276.582
L390.03 368.742
L418.018 368.742
L419.417 334.182
L420.816 368.742
L433.411 368.742
L434.81 334.182
L436.209 368.742
L450.203 368.742
L451.603 149.862
L453.002 368.742
L471.194 368.742
L471.194 368.742" style="fill:none;stroke:#00bfbf;stroke-linecap:square;"/>
   </g>
   <g id="line2d_5">
    <path clip-path="url(#p75e4a4db2e)" d="
M24.7938 345.702
L26.1931 368.742
L30.3912 368.742
L31.7906 357.222
L33.19 368.742
L38.7875 368.742
L40.1869 334.182
L41.5862 368.742
L47.1837 368.742
L48.5831 345.702
L49.9825 368.742
L55.58 368.742
L56.9793 357.222
L58.3787 368.742
L63.9762 368.742
L65.3756 334.182
L66.7749 368.742
L72.3724 368.742
L73.7718 357.222
L75.1712 368.742
L80.7687 368.742
L82.168 345.702
L83.5674 368.742
L97.5611 368.742
L98.9605 345.702
L100.36 368.742
L105.957 368.742
L107.357 334.182
L108.756 368.742
L122.75 368.742
L124.149 322.662
L125.549 368.742
L131.146 368.742
L132.545 322.662
L133.945 368.742
L139.542 368.742
L140.942 322.662
L142.341 368.742
L147.939 368.742
L149.338 322.662
L150.737 368.742
L156.335 368.742
L157.734 345.702
L159.134 368.742
L164.731 368.742
L166.13 322.662
L167.53 368.742
L173.127 368.742
L174.527 322.662
L175.926 368.742
L181.524 368.742
L182.923 322.662
L184.322 368.742
L189.92 368.742
L191.319 322.662
L192.719 368.742
L198.316 368.742
L199.715 322.662
L201.115 368.742
L206.712 368.742
L208.112 357.222
L209.511 368.742
L215.108 368.742
L216.508 357.222
L217.907 368.742
L223.505 368.742
L224.904 345.702
L226.303 368.742
L240.297 368.742
L241.697 357.222
L243.096 368.742
L248.693 368.742
L250.093 357.222
L251.492 368.742
L257.09 368.742
L258.489 311.142
L259.888 368.742
L282.278 368.742
L283.678 311.142
L285.077 368.742
L307.467 368.742
L308.866 311.142
L310.266 368.742
L332.656 368.742
L334.055 334.182
L335.455 368.742
L341.052 368.742
L342.451 299.622
L343.851 368.742
L374.637 368.742
L376.036 334.182
L377.436 368.742
L391.429 368.742
L392.829 322.662
L394.228 368.742
L408.222 368.742
L409.621 357.222
L411.021 368.742
L416.618 368.742
L418.018 345.702
L419.417 368.742
L433.411 368.742
L434.81 322.662
L436.209 368.742
L450.203 368.742
L451.603 345.702
L453.002 368.742
L466.996 368.742
L468.395 345.702
L469.794 368.742
L471.194 368.742
L471.194 368.742" style="fill:none;stroke:#bf00bf;stroke-linecap:square;"/>
   </g>
   <g id="line2d_6">
    <path clip-path="url(#p75e4a4db2e)" d="
M24.7938 334.182
L26.1931 368.742
L31.7906 368.742
L33.19 357.222
L34.5894 368.742
L41.5862 368.742
L42.9856 357.222
L44.385 368.742
L49.9825 368.742
L51.3818 322.662
L52.7812 368.742
L69.5737 368.742
L70.9731 334.182
L72.3724 368.742
L77.9699 368.742
L79.3693 345.702
L80.7687 368.742
L87.7655 368.742
L89.1649 357.222
L90.5643 368.742
L97.5611 368.742
L98.9605 322.662
L100.36 368.742
L115.753 368.742
L117.152 357.222
L118.552 368.742
L124.149 368.742
L125.549 334.182
L126.948 368.742
L143.74 368.742
L145.14 345.702
L146.539 368.742
L152.137 368.742
L153.536 345.702
L154.935 368.742
L161.932 368.742
L163.332 357.222
L164.731 368.742
L171.728 368.742
L173.127 288.102
L174.527 368.742
L189.92 368.742
L191.319 334.182
L192.719 368.742
L198.316 368.742
L199.715 345.702
L201.115 368.742
L208.112 368.742
L209.511 322.662
L210.91 368.742
L236.099 368.742
L237.498 345.702
L238.898 368.742
L245.895 368.742
L247.294 357.222
L248.693 368.742
L254.291 368.742
L255.69 345.702
L257.09 368.742
L264.087 368.742
L265.486 288.102
L266.885 368.742
L292.074 368.742
L293.473 357.222
L294.873 368.742
L300.47 368.742
L301.87 345.702
L303.269 368.742
L310.266 368.742
L311.665 357.222
L313.065 368.742
L320.061 368.742
L321.461 357.222
L322.86 368.742
L328.458 368.742
L329.857 357.222
L331.256 368.742
L338.253 368.742
L339.653 299.622
L341.052 368.742
L366.241 368.742
L367.64 345.702
L369.04 368.742
L384.433 368.742
L385.832 345.702
L387.231 368.742
L394.228 368.742
L395.628 357.222
L397.027 368.742
L402.624 368.742
L404.024 345.702
L405.423 368.742
L412.42 368.742
L413.819 357.222
L415.219 368.742
L420.816 368.742
L422.216 357.222
L423.615 368.742
L430.612 368.742
L432.011 288.102
L433.411 368.742
L458.599 368.742
L459.999 253.542
L461.398 368.742
L471.194 368.742
L471.194 368.742" style="fill:none;stroke:#bfbf00;stroke-linecap:square;"/>
   </g>
   <g id="line2d_7">
    <path clip-path="url(#p75e4a4db2e)" d="
M24.7938 311.142
L26.1931 368.742
L33.19 368.742
L34.5894 357.222
L35.9887 368.742
L42.9856 368.742
L44.385 357.222
L45.7843 368.742
L54.1806 368.742
L55.58 357.222
L56.9793 368.742
L63.9762 368.742
L65.3756 345.702
L66.7749 368.742
L75.1712 368.742
L76.5706 334.182
L77.9699 368.742
L84.9668 368.742
L86.3662 345.702
L87.7655 368.742
L96.1618 368.742
L97.5611 345.702
L98.9605 368.742
L105.957 368.742
L107.357 334.182
L108.756 368.742
L117.152 368.742
L118.552 334.182
L119.951 368.742
L126.948 368.742
L128.347 345.702
L129.747 368.742
L138.143 368.742
L139.542 345.702
L140.942 368.742
L147.939 368.742
L149.338 357.222
L150.737 368.742
L159.134 368.742
L160.533 357.222
L161.932 368.742
L168.929 368.742
L170.329 357.222
L171.728 368.742
L180.124 368.742
L181.524 357.222
L182.923 368.742
L189.92 368.742
L191.319 345.702
L192.719 368.742
L201.115 368.742
L202.514 334.182
L203.913 368.742
L222.105 368.742
L223.505 345.702
L224.904 368.742
L231.901 368.742
L233.3 357.222
L234.7 368.742
L241.697 368.742
L243.096 345.702
L244.495 368.742
L262.687 368.742
L264.087 334.182
L265.486 368.742
L283.678 368.742
L285.077 334.182
L286.477 368.742
L304.668 368.742
L306.068 334.182
L307.467 368.742
L315.863 368.742
L317.263 334.182
L318.662 368.742
L346.65 368.742
L348.049 357.222
L349.448 368.742
L357.845 368.742
L359.244 357.222
L360.643 368.742
L367.64 368.742
L369.04 357.222
L370.439 368.742
L378.835 368.742
L380.235 334.182
L381.634 368.742
L398.426 368.742
L399.826 334.182
L401.225 368.742
L419.417 368.742
L420.816 299.622
L422.216 368.742
L451.603 368.742
L453.002 357.222
L454.401 368.742
L461.398 368.742
L462.798 357.222
L464.197 368.742
L471.194 368.742
L471.194 368.742" style="fill:none;stroke:#000000;stroke-linecap:square;"/>
   </g>
   <g id="line2d_8">
    <path clip-path="url(#p75e4a4db2e)" d="
M24.7938 345.702
L26.1931 368.742
L34.5894 368.742
L35.9887 357.222
L37.3881 368.742
L45.7843 368.742
L47.1837 357.222
L48.5831 368.742
L58.3787 368.742
L59.7781 345.702
L61.1774 368.742
L69.5737 368.742
L70.9731 357.222
L72.3724 368.742
L82.168 368.742
L83.5674 357.222
L84.9668 368.742
L93.363 368.742
L94.7624 357.222
L96.1618 368.742
L105.957 368.742
L107.357 357.222
L108.756 368.742
L117.152 368.742
L118.552 357.222
L119.951 368.742
L129.747 368.742
L131.146 357.222
L132.545 368.742
L140.942 368.742
L142.341 357.222
L143.74 368.742
L153.536 368.742
L154.935 357.222
L156.335 368.742
L164.731 368.742
L166.13 357.222
L167.53 368.742
L177.325 368.742
L178.725 357.222
L180.124 368.742
L188.52 368.742
L189.92 357.222
L191.319 368.742
L201.115 368.742
L202.514 357.222
L203.913 368.742
L212.31 368.742
L213.709 357.222
L215.108 368.742
L224.904 368.742
L226.303 357.222
L227.703 368.742
L236.099 368.742
L237.498 357.222
L238.898 368.742
L248.693 368.742
L250.093 357.222
L251.492 368.742
L259.888 368.742
L261.288 357.222
L262.687 368.742
L272.483 368.742
L273.882 357.222
L275.282 368.742
L283.678 368.742
L285.077 357.222
L286.477 368.742
L296.272 368.742
L297.671 345.702
L299.071 368.742
L320.061 368.742
L321.461 345.702
L322.86 368.742
L343.851 368.742
L345.25 357.222
L346.65 368.742
L355.046 368.742
L356.445 357.222
L357.845 368.742
L367.64 368.742
L369.04 345.702
L370.439 368.742
L378.835 368.742
L380.235 357.222
L381.634 368.742
L391.429 368.742
L392.829 345.702
L394.228 368.742
L415.219 368.742
L416.618 311.142
L418.018 368.742
L462.798 368.742
L464.197 345.702
L465.596 368.742
L471.194 368.742
L471.194 368.742" style="fill:none;stroke:#0000ff;stroke-linecap:square;"/>
   </g>
   <g id="line2d_9">
    <path clip-path="url(#p75e4a4db2e)" d="
M24.7938 322.662
L26.1931 368.742
L37.3881 368.742
L38.7875 345.702
L40.1869 368.742
L51.3818 368.742
L52.7812 357.222
L54.1806 368.742
L65.3756 368.742
L66.7749 345.702
L68.1743 368.742
L80.7687 368.742
L82.168 357.222
L83.5674 368.742
L94.7624 368.742
L96.1618 345.702
L97.5611 368.742
L108.756 368.742
L110.156 357.222
L111.555 368.742
L124.149 368.742
L125.549 334.182
L126.948 368.742
L138.143 368.742
L139.542 334.182
L140.942 368.742
L152.137 368.742
L153.536 311.142
L154.935 368.742
L166.13 368.742
L167.53 334.182
L168.929 368.742
L181.524 368.742
L182.923 357.222
L184.322 368.742
L195.517 368.742
L196.917 357.222
L198.316 368.742
L209.511 368.742
L210.91 345.702
L212.31 368.742
L224.904 368.742
L226.303 334.182
L227.703 368.742
L238.898 368.742
L240.297 322.662
L241.697 368.742
L266.885 368.742
L268.285 345.702
L269.684 368.742
L282.278 368.742
L283.678 357.222
L285.077 368.742
L296.272 368.742
L297.671 276.582
L299.071 368.742
L325.659 368.742
L327.058 345.702
L328.458 368.742
L339.653 368.742
L341.052 322.662
L342.451 368.742
L353.646 368.742
L355.046 357.222
L356.445 368.742
L367.64 368.742
L369.04 357.222
L370.439 368.742
L383.033 368.742
L384.433 265.062
L385.832 368.742
L411.021 368.742
L412.42 322.662
L413.819 368.742
L425.014 368.742
L426.414 334.182
L427.813 368.742
L440.408 368.742
L441.807 357.222
L443.206 368.742
L454.401 368.742
L455.801 357.222
L457.2 368.742
L468.395 368.742
L469.794 334.182
L471.194 368.742
L471.194 368.742" style="fill:none;stroke:#008000;stroke-linecap:square;"/>
   </g>
   <g id="line2d_10">
    <path clip-path="url(#p75e4a4db2e)" d="
M24.7938 322.662
L26.1931 368.742
L35.9887 368.742
L37.3881 357.222
L38.7875 368.742
L48.5831 368.742
L49.9825 357.222
L51.3818 368.742
L62.5768 368.742
L63.9762 357.222
L65.3756 368.742
L75.1712 368.742
L76.5706 357.222
L77.9699 368.742
L89.1649 368.742
L90.5643 322.662
L91.9637 368.742
L101.759 368.742
L103.159 311.142
L104.558 368.742
L142.341 368.742
L143.74 311.142
L145.14 368.742
L168.929 368.742
L170.329 299.622
L171.728 368.742
L181.524 368.742
L182.923 311.142
L184.322 368.742
L195.517 368.742
L196.917 311.142
L198.316 368.742
L208.112 368.742
L209.511 357.222
L210.91 368.742
L222.105 368.742
L223.505 357.222
L224.904 368.742
L234.7 368.742
L236.099 357.222
L237.498 368.742
L248.693 368.742
L250.093 345.702
L251.492 368.742
L261.288 368.742
L262.687 334.182
L264.087 368.742
L275.282 368.742
L276.681 345.702
L278.08 368.742
L287.876 368.742
L289.275 311.142
L290.675 368.742
L314.464 368.742
L315.863 322.662
L317.263 368.742
L341.052 368.742
L342.451 299.622
L343.851 368.742
L367.64 368.742
L369.04 299.622
L370.439 368.742
L394.228 368.742
L395.628 357.222
L397.027 368.742
L406.823 368.742
L408.222 334.182
L409.621 368.742
L420.816 368.742
L422.216 334.182
L423.615 368.742
L459.999 368.742
L461.398 345.702
L462.798 368.742
L471.194 368.742
L471.194 368.742" style="fill:none;stroke:#ff0000;stroke-linecap:square;"/>
   </g>
   <g id="line2d_11">
    <path clip-path="url(#p75e4a4db2e)" d="
M24.7938 322.662
L26.1931 368.742
L34.5894 368.742
L35.9887 357.222
L37.3881 368.742
L45.7843 368.742
L47.1837 357.222
L48.5831 368.742
L58.3787 368.742
L59.7781 322.662
L61.1774 368.742
L69.5737 368.742
L70.9731 357.222
L72.3724 368.742
L82.168 368.742
L83.5674 322.662
L84.9668 368.742
L93.363 368.742
L94.7624 311.142
L96.1618 368.742
L104.558 368.742
L105.957 357.222
L107.357 368.742
L117.152 368.742
L118.552 357.222
L119.951 368.742
L128.347 368.742
L129.747 311.142
L131.146 368.742
L152.137 368.742
L153.536 357.222
L154.935 368.742
L164.731 368.742
L166.13 357.222
L167.53 368.742
L175.926 368.742
L177.325 288.102
L178.725 368.742
L199.715 368.742
L201.115 345.702
L202.514 368.742
L210.91 368.742
L212.31 334.182
L213.709 368.742
L223.505 368.742
L224.904 334.182
L226.303 368.742
L234.7 368.742
L236.099 357.222
L237.498 368.742
L247.294 368.742
L248.693 345.702
L250.093 368.742
L258.489 368.742
L259.888 322.662
L261.288 368.742
L293.473 368.742
L294.873 334.182
L296.272 368.742
L317.263 368.742
L318.662 357.222
L320.061 368.742
L329.857 368.742
L331.256 345.702
L332.656 368.742
L341.052 368.742
L342.451 345.702
L343.851 368.742
L352.247 368.742
L353.646 357.222
L355.046 368.742
L364.841 368.742
L366.241 334.182
L367.64 368.742
L376.036 368.742
L377.436 334.182
L378.835 368.742
L388.631 368.742
L390.03 288.102
L391.429 368.742
L411.021 368.742
L412.42 299.622
L413.819 368.742
L423.615 368.742
L425.014 265.062
L426.414 368.742
L447.404 368.742
L448.804 345.702
L450.203 368.742
L458.599 368.742
L459.999 322.662
L461.398 368.742
L471.194 368.742
L471.194 368.742" style="fill:none;stroke:#00bfbf;stroke-linecap:square;"/>
   </g>
   <g id="line2d_12">
    <path clip-path="url(#p75e4a4db2e)" d="
M24.7938 322.662
L26.1931 368.742
L33.19 368.742
L34.5894 357.222
L35.9887 368.742
L42.9856 368.742
L44.385 345.702
L45.7843 368.742
L54.1806 368.742
L55.58 334.182
L56.9793 368.742
L63.9762 368.742
L65.3756 357.222
L66.7749 368.742
L75.1712 368.742
L76.5706 357.222
L77.9699 368.742
L84.9668 368.742
L86.3662 288.102
L87.7655 368.742
L94.7624 368.742
L96.1618 345.702
L97.5611 368.742
L105.957 368.742
L107.357 345.702
L108.756 368.742
L115.753 368.742
L117.152 334.182
L118.552 368.742
L136.744 368.742
L138.143 299.622
L139.542 368.742
L157.734 368.742
L159.134 357.222
L160.533 368.742
L167.53 368.742
L168.929 311.142
L170.329 368.742
L178.725 368.742
L180.124 345.702
L181.524 368.742
L188.52 368.742
L189.92 357.222
L191.319 368.742
L199.715 368.742
L201.115 345.702
L202.514 368.742
L219.307 368.742
L220.706 357.222
L222.105 368.742
L230.502 368.742
L231.901 311.142
L233.3 368.742
L272.483 368.742
L273.882 334.182
L275.282 368.742
L282.278 368.742
L283.678 299.622
L285.077 368.742
L303.269 368.742
L304.668 311.142
L306.068 368.742
L324.26 368.742
L325.659 276.582
L327.058 368.742
L364.841 368.742
L366.241 322.662
L367.64 368.742
L385.832 368.742
L387.231 357.222
L388.631 368.742
L397.027 368.742
L398.426 334.182
L399.826 368.742
L406.823 368.742
L408.222 322.662
L409.621 368.742
L416.618 368.742
L418.018 345.702
L419.417 368.742
L427.813 368.742
L429.213 334.182
L430.612 368.742
L458.599 368.742
L459.999 322.662
L461.398 368.742
L471.194 368.742
L471.194 368.742" style="fill:none;stroke:#bf00bf;stroke-linecap:square;"/>
   </g>
   <g id="line2d_13">
    <path clip-path="url(#p75e4a4db2e)" d="
M24.7938 322.662
L26.1931 368.742
L31.7906 368.742
L33.19 345.702
L34.5894 368.742
L41.5862 368.742
L42.9856 345.702
L44.385 368.742
L49.9825 368.742
L51.3818 322.662
L52.7812 368.742
L59.7781 368.742
L61.1774 334.182
L62.5768 368.742
L68.1743 368.742
L69.5737 345.702
L70.9731 368.742
L77.9699 368.742
L79.3693 288.102
L80.7687 368.742
L96.1618 368.742
L97.5611 334.182
L98.9605 368.742
L105.957 368.742
L107.357 299.622
L108.756 368.742
L124.149 368.742
L125.549 345.702
L126.948 368.742
L133.945 368.742
L135.344 299.622
L136.744 368.742
L152.137 368.742
L153.536 334.182
L154.935 368.742
L160.533 368.742
L161.932 276.582
L163.332 368.742
L188.52 368.742
L189.92 299.622
L191.319 368.742
L206.712 368.742
L208.112 345.702
L209.511 368.742
L224.904 368.742
L226.303 311.142
L227.703 368.742
L252.892 368.742
L254.291 345.702
L255.69 368.742
L262.687 368.742
L264.087 357.222
L265.486 368.742
L271.083 368.742
L272.483 311.142
L273.882 368.742
L280.879 368.742
L282.278 334.182
L283.678 368.742
L299.071 368.742
L300.47 334.182
L301.87 368.742
L327.058 368.742
L328.458 276.582
L329.857 368.742
L363.442 368.742
L364.841 357.222
L366.241 368.742
L373.238 368.742
L374.637 357.222
L376.036 368.742
L381.634 368.742
L383.033 311.142
L384.433 368.742
L409.621 368.742
L411.021 265.062
L412.42 368.742
L446.005 368.742
L447.404 311.142
L448.804 368.742
L464.197 368.742
L465.596 357.222
L466.996 368.742
L471.194 368.742
L471.194 368.742" style="fill:none;stroke:#bfbf00;stroke-linecap:square;"/>
   </g>
   <g id="line2d_14">
    <path clip-path="url(#p75e4a4db2e)" d="
M24.7938 334.182
L26.1931 368.742
L30.3912 368.742
L31.7906 345.702
L33.19 368.742
L38.7875 368.742
L40.1869 357.222
L41.5862 368.742
L47.1837 368.742
L48.5831 322.662
L49.9825 368.742
L55.58 368.742
L56.9793 299.622
L58.3787 368.742
L63.9762 368.742
L65.3756 334.182
L66.7749 368.742
L72.3724 368.742
L73.7718 334.182
L75.1712 368.742
L80.7687 368.742
L82.168 357.222
L83.5674 368.742
L89.1649 368.742
L90.5643 299.622
L91.9637 368.742
L105.957 368.742
L107.357 299.622
L108.756 368.742
L122.75 368.742
L124.149 322.662
L125.549 368.742
L131.146 368.742
L132.545 334.182
L133.945 368.742
L139.542 368.742
L140.942 322.662
L142.341 368.742
L156.335 368.742
L157.734 288.102
L159.134 368.742
L181.524 368.742
L182.923 334.182
L184.322 368.742
L189.92 368.742
L191.319 299.622
L192.719 368.742
L213.709 368.742
L215.108 334.182
L216.508 368.742
L222.105 368.742
L223.505 357.222
L224.904 368.742
L230.502 368.742
L231.901 345.702
L233.3 368.742
L238.898 368.742
L240.297 311.142
L241.697 368.742
L255.69 368.742
L257.09 357.222
L258.489 368.742
L264.087 368.742
L265.486 311.142
L266.885 368.742
L280.879 368.742
L282.278 322.662
L283.678 368.742
L297.671 368.742
L299.071 357.222
L300.47 368.742
L306.068 368.742
L307.467 345.702
L308.866 368.742
L314.464 368.742
L315.863 345.702
L317.263 368.742
L331.256 368.742
L332.656 242.022
L334.055 368.742
L356.445 368.742
L357.845 299.622
L359.244 368.742
L373.238 368.742
L374.637 311.142
L376.036 368.742
L388.631 368.742
L390.03 334.182
L391.429 368.742
L405.423 368.742
L406.823 322.662
L408.222 368.742
L422.216 368.742
L423.615 218.982
L425.014 368.742
L447.404 368.742
L448.804 299.622
L450.203 368.742
L471.194 368.742
L471.194 368.742" style="fill:none;stroke:#000000;stroke-linecap:square;"/>
   </g>
   <g id="line2d_15">
    <path clip-path="url(#p75e4a4db2e)" d="
M24.7938 334.182
L26.1931 368.742
L30.3912 368.742
L31.7906 322.662
L33.19 368.742
L38.7875 368.742
L40.1869 322.662
L41.5862 368.742
L45.7843 368.742
L47.1837 334.182
L48.5831 368.742
L54.1806 368.742
L55.58 322.662
L56.9793 368.742
L61.1774 368.742
L62.5768 334.182
L63.9762 368.742
L69.5737 368.742
L70.9731 311.142
L72.3724 368.742
L84.9668 368.742
L86.3662 345.702
L87.7655 368.742
L91.9637 368.742
L93.363 345.702
L94.7624 368.742
L100.36 368.742
L101.759 357.222
L103.159 368.742
L107.357 368.742
L108.756 357.222
L110.156 368.742
L115.753 368.742
L117.152 357.222
L118.552 368.742
L122.75 368.742
L124.149 288.102
L125.549 368.742
L138.143 368.742
L139.542 265.062
L140.942 368.742
L153.536 368.742
L154.935 345.702
L156.335 368.742
L161.932 368.742
L163.332 357.222
L164.731 368.742
L168.929 368.742
L170.329 334.182
L171.728 368.742
L184.322 368.742
L185.722 299.622
L187.121 368.742
L208.112 368.742
L209.511 357.222
L210.91 368.742
L216.508 368.742
L217.907 276.582
L219.307 368.742
L238.898 368.742
L240.297 322.662
L241.697 368.742
L254.291 368.742
L255.69 322.662
L257.09 368.742
L269.684 368.742
L271.083 322.662
L272.483 368.742
L285.077 368.742
L286.477 345.702
L287.876 368.742
L293.473 368.742
L294.873 345.702
L296.272 368.742
L300.47 368.742
L301.87 357.222
L303.269 368.742
L308.866 368.742
L310.266 357.222
L311.665 368.742
L315.863 368.742
L317.263 172.902
L318.662 368.742
L346.65 368.742
L348.049 299.622
L349.448 368.742
L362.043 368.742
L363.442 288.102
L364.841 368.742
L392.829 368.742
L394.228 357.222
L395.628 368.742
L401.225 368.742
L402.624 357.222
L404.024 368.742
L408.222 368.742
L409.621 69.2217
L411.021 368.742
L471.194 368.742
L471.194 368.742" style="fill:none;stroke:#0000ff;stroke-linecap:square;"/>
   </g>
   <g id="line2d_16">
    <path clip-path="url(#p75e4a4db2e)" d="
M24.7938 334.182
L26.1931 368.742
L30.3912 368.742
L31.7906 345.702
L33.19 368.742
L37.3881 368.742
L38.7875 357.222
L40.1869 368.742
L44.385 368.742
L45.7843 357.222
L47.1837 368.742
L52.7812 368.742
L54.1806 357.222
L55.58 368.742
L59.7781 368.742
L61.1774 345.702
L62.5768 368.742
L66.7749 368.742
L68.1743 345.702
L69.5737 368.742
L75.1712 368.742
L76.5706 357.222
L77.9699 368.742
L82.168 368.742
L83.5674 334.182
L84.9668 368.742
L89.1649 368.742
L90.5643 322.662
L91.9637 368.742
L97.5611 368.742
L98.9605 334.182
L100.36 368.742
L111.555 368.742
L112.954 345.702
L114.354 368.742
L119.951 368.742
L121.35 311.142
L122.75 368.742
L126.948 368.742
L128.347 357.222
L129.747 368.742
L133.945 368.742
L135.344 334.182
L136.744 368.742
L142.341 368.742
L143.74 334.182
L145.14 368.742
L149.338 368.742
L150.737 334.182
L152.137 368.742
L156.335 368.742
L157.734 357.222
L159.134 368.742
L164.731 368.742
L166.13 288.102
L167.53 368.742
L187.121 368.742
L188.52 334.182
L189.92 368.742
L194.118 368.742
L195.517 299.622
L196.917 368.742
L216.508 368.742
L217.907 334.182
L219.307 368.742
L230.502 368.742
L231.901 357.222
L233.3 368.742
L238.898 368.742
L240.297 345.702
L241.697 368.742
L245.895 368.742
L247.294 322.662
L248.693 368.742
L268.285 368.742
L269.684 322.662
L271.083 368.742
L283.678 368.742
L285.077 334.182
L286.477 368.742
L290.675 368.742
L292.074 357.222
L293.473 368.742
L297.671 368.742
L299.071 334.182
L300.47 368.742
L306.068 368.742
L307.467 345.702
L308.866 368.742
L313.065 368.742
L314.464 357.222
L315.863 368.742
L320.061 368.742
L321.461 299.622
L322.86 368.742
L350.848 368.742
L352.247 265.062
L353.646 368.742
L373.238 368.742
L374.637 218.982
L376.036 368.742
L409.621 368.742
L411.021 345.702
L412.42 368.742
L423.615 368.742
L425.014 357.222
L426.414 368.742
L432.011 368.742
L433.411 334.182
L434.81 368.742
L446.005 368.742
L447.404 357.222
L448.804 368.742
L454.401 368.742
L455.801 276.582
L457.2 368.742
L471.194 368.742
L471.194 368.742" style="fill:none;stroke:#008000;stroke-linecap:square;"/>
   </g>
   <g id="patch_3">
    <path d="
M24.7938 23.1417
L471.194 23.1417" style="fill:none;stroke:#000000;stroke-linecap:square;stroke-linejoin:miter;"/>
   </g>
   <g id="patch_4">
    <path d="
M471.194 368.742
L471.194 23.1417" style="fill:none;stroke:#000000;stroke-linecap:square;stroke-linejoin:miter;"/>
   </g>
   <g id="patch_5">
    <path d="
M24.7938 368.742
L471.194 368.742" style="fill:none;stroke:#000000;stroke-linecap:square;stroke-linejoin:miter;"/>
   </g>
   <g id="patch_6">
    <path d="
M24.7938 368.742
L24.7938 23.1417" style="fill:none;stroke:#000000;stroke-linecap:square;stroke-linejoin:miter;"/>
   </g>
   <g id="matplotlib.axis_1">
    <g id="xtick_1">
     <g id="line2d_17">
      <defs>
       <path d="
M0 0
L0 -4" id="m93b0483c22" style="stroke:#000000;stroke-width:0.5;"/>
      </defs>
      <g>
       <use style="stroke:#000000;stroke-width:0.5;" x="24.79375" xlink:href="#m93b0483c22" y="368.74175"/>
      </g>
     </g>
     <g id="line2d_18">
      <defs>
       <path d="
M0 0
L0 4" id="m741efc42ff" style="stroke:#000000;stroke-width:0.5;"/>
      </defs>
      <g>
       <use style="stroke:#000000;stroke-width:0.5;" x="24.79375" xlink:href="#m741efc42ff" y="23.14175"/>
      </g>
     </g>
     <g id="text_1">
      <!-- 0 -->
      <defs>
       <path d="
M31.7812 66.4062
Q24.1719 66.4062 20.3281 58.9062
Q16.5 51.4219 16.5 36.375
Q16.5 21.3906 20.3281 13.8906
Q24.1719 6.39062 31.7812 6.39062
Q39.4531 6.39062 43.2812 13.8906
Q47.125 21.3906 47.125 36.375
Q47.125 51.4219 43.2812 58.9062
Q39.4531 66.4062 31.7812 66.4062
M31.7812 74.2188
Q44.0469 74.2188 50.5156 64.5156
Q56.9844 54.8281 56.9844 36.375
Q56.9844 17.9688 50.5156 8.26562
Q44.0469 -1.42188 31.7812 -1.42188
Q19.5312 -1.42188 13.0625 8.26562
Q6.59375 17.9688 6.59375 36.375
Q6.59375 54.8281 13.0625 64.5156
Q19.5312 74.2188 31.7812 74.2188" id="DejaVuSans-30"/>
      </defs>
      <g transform="translate(21.7703125 381.859875)scale(0.12 -0.12)">
       <use xlink:href="#DejaVuSans-30"/>
      </g>
     </g>
    </g>
    <g id="xtick_2">
     <g id="line2d_19">
      <g>
       <use style="stroke:#000000;stroke-width:0.5;" x="94.7624020376" xlink:href="#m93b0483c22" y="368.74175"/>
      </g>
     </g>
     <g id="line2d_20">
      <g>
       <use style="stroke:#000000;stroke-width:0.5;" x="94.7624020376" xlink:href="#m741efc42ff" y="23.14175"/>
      </g>
     </g>
     <g id="text_2">
      <!-- 50 -->
      <defs>
       <path d="
M10.7969 72.9062
L49.5156 72.9062
L49.5156 64.5938
L19.8281 64.5938
L19.8281 46.7344
Q21.9688 47.4688 24.1094 47.8281
Q26.2656 48.1875 28.4219 48.1875
Q40.625 48.1875 47.75 41.5
Q54.8906 34.8125 54.8906 23.3906
Q54.8906 11.625 47.5625 5.09375
Q40.2344 -1.42188 26.9062 -1.42188
Q22.3125 -1.42188 17.5469 -0.640625
Q12.7969 0.140625 7.71875 1.70312
L7.71875 11.625
Q12.1094 9.23438 16.7969 8.0625
Q21.4844 6.89062 26.7031 6.89062
Q35.1562 6.89062 40.0781 11.3281
Q45.0156 15.7656 45.0156 23.3906
Q45.0156 31 40.0781 35.4375
Q35.1562 39.8906 26.7031 39.8906
Q22.75 39.8906 18.8125 39.0156
Q14.8906 38.1406 10.7969 36.2812
z
" id="DejaVuSans-35"/>
      </defs>
      <g transform="translate(87.9889645376 381.859875)scale(0.12 -0.12)">
       <use xlink:href="#DejaVuSans-35"/>
       <use x="63.623046875" xlink:href="#DejaVuSans-30"/>
      </g>
     </g>
    </g>
    <g id="xtick_3">
     <g id="line2d_21">
      <g>
       <use style="stroke:#000000;stroke-width:0.5;" x="164.731054075" xlink:href="#m93b0483c22" y="368.74175"/>
      </g>
     </g>
     <g id="line2d_22">
      <g>
       <use style="stroke:#000000;stroke-width:0.5;" x="164.731054075" xlink:href="#m741efc42ff" y="23.14175"/>
      </g>
     </g>
     <g id="text_3">
      <!-- 100 -->
      <defs>
       <path d="
M12.4062 8.29688
L28.5156 8.29688
L28.5156 63.9219
L10.9844 60.4062
L10.9844 69.3906
L28.4219 72.9062
L38.2812 72.9062
L38.2812 8.29688
L54.3906 8.29688
L54.3906 0
L12.4062 0
z
" id="DejaVuSans-31"/>
      </defs>
      <g transform="translate(154.336054075 381.859875)scale(0.12 -0.12)">
       <use xlink:href="#DejaVuSans-31"/>
       <use x="63.623046875" xlink:href="#DejaVuSans-30"/>
       <use x="127.24609375" xlink:href="#DejaVuSans-30"/>
      </g>
     </g>
    </g>
    <g id="xtick_4">
     <g id="line2d_23">
      <g>
       <use style="stroke:#000000;stroke-width:0.5;" x="234.699706113" xlink:href="#m93b0483c22" y="368.74175"/>
      </g>
     </g>
     <g id="line2d_24">
      <g>
       <use style="stroke:#000000;stroke-width:0.5;" x="234.699706113" xlink:href="#m741efc42ff" y="23.14175"/>
      </g>
     </g>
     <g id="text_4">
      <!-- 150 -->
      <g transform="translate(224.304706113 381.859875)scale(0.12 -0.12)">
       <use xlink:href="#DejaVuSans-31"/>
       <use x="63.623046875" xlink:href="#DejaVuSans-35"/>
       <use x="127.24609375" xlink:href="#DejaVuSans-30"/>
      </g>
     </g>
    </g>
    <g id="xtick_5">
     <g id="line2d_25">
      <g>
       <use style="stroke:#000000;stroke-width:0.5;" x="304.66835815" xlink:href="#m93b0483c22" y="368.74175"/>
      </g>
     </g>
     <g id="line2d_26">
      <g>
       <use style="stroke:#000000;stroke-width:0.5;" x="304.66835815" xlink:href="#m741efc42ff" y="23.14175"/>
      </g>
     </g>
     <g id="text_5">
      <!-- 200 -->
      <defs>
       <path d="
M19.1875 8.29688
L53.6094 8.29688
L53.6094 0
L7.32812 0
L7.32812 8.29688
Q12.9375 14.1094 22.625 23.8906
Q32.3281 33.6875 34.8125 36.5312
Q39.5469 41.8438 41.4219 45.5312
Q43.3125 49.2188 43.3125 52.7812
Q43.3125 58.5938 39.2344 62.25
Q35.1562 65.9219 28.6094 65.9219
Q23.9688 65.9219 18.8125 64.3125
Q13.6719 62.7031 7.8125 59.4219
L7.8125 69.3906
Q13.7656 71.7812 18.9375 73
Q24.125 74.2188 28.4219 74.2188
Q39.75 74.2188 46.4844 68.5469
Q53.2188 62.8906 53.2188 53.4219
Q53.2188 48.9219 51.5312 44.8906
Q49.8594 40.875 45.4062 35.4062
Q44.1875 33.9844 37.6406 27.2188
Q31.1094 20.4531 19.1875 8.29688" id="DejaVuSans-32"/>
      </defs>
      <g transform="translate(294.05398315 381.859875)scale(0.12 -0.12)">
       <use xlink:href="#DejaVuSans-32"/>
       <use x="63.623046875" xlink:href="#DejaVuSans-30"/>
       <use x="127.24609375" xlink:href="#DejaVuSans-30"/>
      </g>
     </g>
    </g>
    <g id="xtick_6">
     <g id="line2d_27">
      <g>
       <use style="stroke:#000000;stroke-width:0.5;" x="374.637010188" xlink:href="#m93b0483c22" y="368.74175"/>
      </g>
     </g>
     <g id="line2d_28">
      <g>
       <use style="stroke:#000000;stroke-width:0.5;" x="374.637010188" xlink:href="#m741efc42ff" y="23.14175"/>
      </g>
     </g>
     <g id="text_6">
      <!-- 250 -->
      <g transform="translate(364.022635188 381.859875)scale(0.12 -0.12)">
       <use xlink:href="#DejaVuSans-32"/>
       <use x="63.623046875" xlink:href="#DejaVuSans-35"/>
       <use x="127.24609375" xlink:href="#DejaVuSans-30"/>
      </g>
     </g>
    </g>
    <g id="xtick_7">
     <g id="line2d_29">
      <g>
       <use style="stroke:#000000;stroke-width:0.5;" x="444.605662226" xlink:href="#m93b0483c22" y="368.74175"/>
      </g>
     </g>
     <g id="line2d_30">
      <g>
       <use style="stroke:#000000;stroke-width:0.5;" x="444.605662226" xlink:href="#m741efc42ff" y="23.14175"/>
      </g>
     </g>
     <g id="text_7">
      <!-- 300 -->
      <defs>
       <path d="
M40.5781 39.3125
Q47.6562 37.7969 51.625 33
Q55.6094 28.2188 55.6094 21.1875
Q55.6094 10.4062 48.1875 4.48438
Q40.7656 -1.42188 27.0938 -1.42188
Q22.5156 -1.42188 17.6562 -0.515625
Q12.7969 0.390625 7.625 2.20312
L7.625 11.7188
Q11.7188 9.32812 16.5938 8.10938
Q21.4844 6.89062 26.8125 6.89062
Q36.0781 6.89062 40.9375 10.5469
Q45.7969 14.2031 45.7969 21.1875
Q45.7969 27.6406 41.2812 31.2656
Q36.7656 34.9062 28.7188 34.9062
L20.2188 34.9062
L20.2188 43.0156
L29.1094 43.0156
Q36.375 43.0156 40.2344 45.9219
Q44.0938 48.8281 44.0938 54.2969
Q44.0938 59.9062 40.1094 62.9062
Q36.1406 65.9219 28.7188 65.9219
Q24.6562 65.9219 20.0156 65.0312
Q15.375 64.1562 9.8125 62.3125
L9.8125 71.0938
Q15.4375 72.6562 20.3438 73.4375
Q25.25 74.2188 29.5938 74.2188
Q40.8281 74.2188 47.3594 69.1094
Q53.9062 64.0156 53.9062 55.3281
Q53.9062 49.2656 50.4375 45.0938
Q46.9688 40.9219 40.5781 39.3125" id="DejaVuSans-33"/>
      </defs>
      <g transform="translate(434.009099726 381.859875)scale(0.12 -0.12)">
       <use xlink:href="#DejaVuSans-33"/>
       <use x="63.623046875" xlink:href="#DejaVuSans-30"/>
       <use x="127.24609375" xlink:href="#DejaVuSans-30"/>
      </g>
     </g>
    </g>
    <g id="text_8">
     <!-- time -->
     <defs>
      <path d="
M18.3125 70.2188
L18.3125 54.6875
L36.8125 54.6875
L36.8125 47.7031
L18.3125 47.7031
L18.3125 18.0156
Q18.3125 11.3281 20.1406 9.42188
Q21.9688 7.51562 27.5938 7.51562
L36.8125 7.51562
L36.8125 0
L27.5938 0
Q17.1875 0 13.2344 3.875
Q9.28125 7.76562 9.28125 18.0156
L9.28125 47.7031
L2.6875 47.7031
L2.6875 54.6875
L9.28125 54.6875
L9.28125 70.2188
z
" id="DejaVuSans-74"/>
      <path d="
M52 44.1875
Q55.375 50.25 60.0625 53.125
Q64.75 56 71.0938 56
Q79.6406 56 84.2812 50.0156
Q88.9219 44.0469 88.9219 33.0156
L88.9219 0
L79.8906 0
L79.8906 32.7188
Q79.8906 40.5781 77.0938 44.375
Q74.3125 48.1875 68.6094 48.1875
Q61.625 48.1875 57.5625 43.5469
Q53.5156 38.9219 53.5156 30.9062
L53.5156 0
L44.4844 0
L44.4844 32.7188
Q44.4844 40.625 41.7031 44.4062
Q38.9219 48.1875 33.1094 48.1875
Q26.2188 48.1875 22.1562 43.5312
Q18.1094 38.875 18.1094 30.9062
L18.1094 0
L9.07812 0
L9.07812 54.6875
L18.1094 54.6875
L18.1094 46.1875
Q21.1875 51.2188 25.4844 53.6094
Q29.7812 56 35.6875 56
Q41.6562 56 45.8281 52.9688
Q50 49.9531 52 44.1875" id="DejaVuSans-6d"/>
      <path d="
M56.2031 29.5938
L56.2031 25.2031
L14.8906 25.2031
Q15.4844 15.9219 20.4844 11.0625
Q25.4844 6.20312 34.4219 6.20312
Q39.5938 6.20312 44.4531 7.46875
Q49.3125 8.73438 54.1094 11.2812
L54.1094 2.78125
Q49.2656 0.734375 44.1875 -0.34375
Q39.1094 -1.42188 33.8906 -1.42188
Q20.7969 -1.42188 13.1562 6.1875
Q5.51562 13.8125 5.51562 26.8125
Q5.51562 40.2344 12.7656 48.1094
Q20.0156 56 32.3281 56
Q43.3594 56 49.7812 48.8906
Q56.2031 41.7969 56.2031 29.5938
M47.2188 32.2344
Q47.125 39.5938 43.0938 43.9844
Q39.0625 48.3906 32.4219 48.3906
Q24.9062 48.3906 20.3906 44.1406
Q15.875 39.8906 15.1875 32.1719
z
" id="DejaVuSans-65"/>
      <path d="
M9.42188 54.6875
L18.4062 54.6875
L18.4062 0
L9.42188 0
z

M9.42188 75.9844
L18.4062 75.9844
L18.4062 64.5938
L9.42188 64.5938
z
" id="DejaVuSans-69"/>
     </defs>
     <g transform="translate(234.919375 398.473625)scale(0.12 -0.12)">
      <use xlink:href="#DejaVuSans-74"/>
      <use x="39.208984375" xlink:href="#DejaVuSans-69"/>
      <use x="66.9921875" xlink:href="#DejaVuSans-6d"/>
      <use x="164.404296875" xlink:href="#DejaVuSans-65"/>
     </g>
    </g>
   </g>
   <g id="matplotlib.axis_2">
    <g id="ytick_1">
     <g id="line2d_31">
      <defs>
       <path d="
M0 0
L4 0" id="m728421d6d4" style="stroke:#000000;stroke-width:0.5;"/>
      </defs>
      <g>
       <use style="stroke:#000000;stroke-width:0.5;" x="24.79375" xlink:href="#m728421d6d4" y="368.74175"/>
      </g>
     </g>
     <g id="line2d_32">
      <defs>
       <path d="
M0 0
L-4 0" id="mcb0005524f" style="stroke:#000000;stroke-width:0.5;"/>
      </defs>
      <g>
       <use style="stroke:#000000;stroke-width:0.5;" x="471.19375" xlink:href="#mcb0005524f" y="368.74175"/>
      </g>
     </g>
     <g id="text_9">
      <!-- 0 -->
      <g transform="translate(14.746875 372.053)scale(0.12 -0.12)">
       <use xlink:href="#DejaVuSans-30"/>
      </g>
     </g>
    </g>
    <g id="ytick_2">
     <g id="line2d_33">
      <g>
       <use style="stroke:#000000;stroke-width:0.5;" x="24.79375" xlink:href="#m728421d6d4" y="311.14175"/>
      </g>
     </g>
     <g id="line2d_34">
      <g>
       <use style="stroke:#000000;stroke-width:0.5;" x="471.19375" xlink:href="#mcb0005524f" y="311.14175"/>
      </g>
     </g>
     <g id="text_10">
      <!-- 5 -->
      <g transform="translate(15.133125 314.453)scale(0.12 -0.12)">
       <use xlink:href="#DejaVuSans-35"/>
      </g>
     </g>
    </g>
    <g id="ytick_3">
     <g id="line2d_35">
      <g>
       <use style="stroke:#000000;stroke-width:0.5;" x="24.79375" xlink:href="#m728421d6d4" y="253.54175"/>
      </g>
     </g>
     <g id="line2d_36">
      <g>
       <use style="stroke:#000000;stroke-width:0.5;" x="471.19375" xlink:href="#mcb0005524f" y="253.54175"/>
      </g>
     </g>
     <g id="text_11">
      <!-- 10 -->
      <g transform="translate(7.63875 256.853)scale(0.12 -0.12)">
       <use xlink:href="#DejaVuSans-31"/>
       <use x="63.623046875" xlink:href="#DejaVuSans-30"/>
      </g>
     </g>
    </g>
    <g id="ytick_4">
     <g id="line2d_37">
      <g>
       <use style="stroke:#000000;stroke-width:0.5;" x="24.79375" xlink:href="#m728421d6d4" y="195.94175"/>
      </g>
     </g>
     <g id="line2d_38">
      <g>
       <use style="stroke:#000000;stroke-width:0.5;" x="471.19375" xlink:href="#mcb0005524f" y="195.94175"/>
      </g>
     </g>
     <g id="text_12">
      <!-- 15 -->
      <g transform="translate(7.89 199.253)scale(0.12 -0.12)">
       <use xlink:href="#DejaVuSans-31"/>
       <use x="63.623046875" xlink:href="#DejaVuSans-35"/>
      </g>
     </g>
    </g>
    <g id="ytick_5">
     <g id="line2d_39">
      <g>
       <use style="stroke:#000000;stroke-width:0.5;" x="24.79375" xlink:href="#m728421d6d4" y="138.34175"/>
      </g>
     </g>
     <g id="line2d_40">
      <g>
       <use style="stroke:#000000;stroke-width:0.5;" x="471.19375" xlink:href="#mcb0005524f" y="138.34175"/>
      </g>
     </g>
     <g id="text_13">
      <!-- 20 -->
      <g transform="translate(7.2 141.653)scale(0.12 -0.12)">
       <use xlink:href="#DejaVuSans-32"/>
       <use x="63.623046875" xlink:href="#DejaVuSans-30"/>
      </g>
     </g>
    </g>
    <g id="ytick_6">
     <g id="line2d_41">
      <g>
       <use style="stroke:#000000;stroke-width:0.5;" x="24.79375" xlink:href="#m728421d6d4" y="80.74175"/>
      </g>
     </g>
     <g id="line2d_42">
      <g>
       <use style="stroke:#000000;stroke-width:0.5;" x="471.19375" xlink:href="#mcb0005524f" y="80.74175"/>
      </g>
     </g>
     <g id="text_14">
      <!-- 25 -->
      <g transform="translate(7.45125 84.053)scale(0.12 -0.12)">
       <use xlink:href="#DejaVuSans-32"/>
       <use x="63.623046875" xlink:href="#DejaVuSans-35"/>
      </g>
     </g>
    </g>
    <g id="ytick_7">
     <g id="line2d_43">
      <g>
       <use style="stroke:#000000;stroke-width:0.5;" x="24.79375" xlink:href="#m728421d6d4" y="23.14175"/>
      </g>
     </g>
     <g id="line2d_44">
      <g>
       <use style="stroke:#000000;stroke-width:0.5;" x="471.19375" xlink:href="#mcb0005524f" y="23.14175"/>
      </g>
     </g>
     <g id="text_15">
      <!-- 30 -->
      <g transform="translate(7.235625 26.453)scale(0.12 -0.12)">
       <use xlink:href="#DejaVuSans-33"/>
       <use x="63.623046875" xlink:href="#DejaVuSans-30"/>
      </g>
     </g>
    </g>
   </g>
   <g id="text_16">
    <!-- /agas/count/bind_gid change -->
    <defs>
     <path d="
M25.3906 72.9062
L33.6875 72.9062
L8.29688 -9.28125
L0 -9.28125
z
" id="DejaVuSans-2f"/>
     <path d="
M30.6094 48.3906
Q23.3906 48.3906 19.1875 42.75
Q14.9844 37.1094 14.9844 27.2969
Q14.9844 17.4844 19.1562 11.8438
Q23.3438 6.20312 30.6094 6.20312
Q37.7969 6.20312 41.9844 11.8594
Q46.1875 17.5312 46.1875 27.2969
Q46.1875 37.0156 41.9844 42.7031
Q37.7969 48.3906 30.6094 48.3906
M30.6094 56
Q42.3281 56 49.0156 48.375
Q55.7188 40.7656 55.7188 27.2969
Q55.7188 13.875 49.0156 6.21875
Q42.3281 -1.42188 30.6094 -1.42188
Q18.8438 -1.42188 12.1719 6.21875
Q5.51562 13.875 5.51562 27.2969
Q5.51562 40.7656 12.1719 48.375
Q18.8438 56 30.6094 56" id="DejaVuSans-6f"/>
     <path d="
M54.8906 33.0156
L54.8906 0
L45.9062 0
L45.9062 32.7188
Q45.9062 40.4844 42.875 44.3281
Q39.8438 48.1875 33.7969 48.1875
Q26.5156 48.1875 22.3125 43.5469
Q18.1094 38.9219 18.1094 30.9062
L18.1094 0
L9.07812 0
L9.07812 54.6875
L18.1094 54.6875
L18.1094 46.1875
Q21.3438 51.125 25.7031 53.5625
Q30.0781 56 35.7969 56
Q45.2188 56 50.0469 50.1719
Q54.8906 44.3438 54.8906 33.0156" id="DejaVuSans-6e"/>
     <path d="
M50.9844 -16.6094
L50.9844 -23.5781
L-0.984375 -23.5781
L-0.984375 -16.6094
z
" id="DejaVuSans-5f"/>
     <path id="DejaVuSans-20"/>
     <path d="
M54.8906 33.0156
L54.8906 0
L45.9062 0
L45.9062 32.7188
Q45.9062 40.4844 42.875 44.3281
Q39.8438 48.1875 33.7969 48.1875
Q26.5156 48.1875 22.3125 43.5469
Q18.1094 38.9219 18.1094 30.9062
L18.1094 0
L9.07812 0
L9.07812 75.9844
L18.1094 75.9844
L18.1094 46.1875
Q21.3438 51.125 25.7031 53.5625
Q30.0781 56 35.7969 56
Q45.2188 56 50.0469 50.1719
Q54.8906 44.3438 54.8906 33.0156" id="DejaVuSans-68"/>
     <path d="
M8.5 21.5781
L8.5 54.6875
L17.4844 54.6875
L17.4844 21.9219
Q17.4844 14.1562 20.5 10.2656
Q23.5312 6.39062 29.5938 6.39062
Q36.8594 6.39062 41.0781 11.0312
Q45.3125 15.6719 45.3125 23.6875
L45.3125 54.6875
L54.2969 54.6875
L54.2969 0
L45.3125 0
L45.3125 8.40625
Q42.0469 3.42188 37.7188 1
Q33.4062 -1.42188 27.6875 -1.42188
Q18.2656 -1.42188 13.375 4.4375
Q8.5 10.2969 8.5 21.5781
M31.1094 56
z
" id="DejaVuSans-75"/>
     <path d="
M45.4062 27.9844
Q45.4062 37.75 41.375 43.1094
Q37.3594 48.4844 30.0781 48.4844
Q22.8594 48.4844 18.8281 43.1094
Q14.7969 37.75 14.7969 27.9844
Q14.7969 18.2656 18.8281 12.8906
Q22.8594 7.51562 30.0781 7.51562
Q37.3594 7.51562 41.375 12.8906
Q45.4062 18.2656 45.4062 27.9844
M54.3906 6.78125
Q54.3906 -7.17188 48.1875 -13.9844
Q42 -20.7969 29.2031 -20.7969
Q24.4688 -20.7969 20.2656 -20.0938
Q16.0625 -19.3906 12.1094 -17.9219
L12.1094 -9.1875
Q16.0625 -11.3281 19.9219 -12.3438
Q23.7812 -13.375 27.7812 -13.375
Q36.625 -13.375 41.0156 -8.76562
Q45.4062 -4.15625 45.4062 5.17188
L45.4062 9.625
Q42.625 4.78125 38.2812 2.39062
Q33.9375 0 27.875 0
Q17.8281 0 11.6719 7.65625
Q5.51562 15.3281 5.51562 27.9844
Q5.51562 40.6719 11.6719 48.3281
Q17.8281 56 27.875 56
Q33.9375 56 38.2812 53.6094
Q42.625 51.2188 45.4062 46.3906
L45.4062 54.6875
L54.3906 54.6875
z
" id="DejaVuSans-67"/>
     <path d="
M45.4062 46.3906
L45.4062 75.9844
L54.3906 75.9844
L54.3906 0
L45.4062 0
L45.4062 8.20312
Q42.5781 3.32812 38.25 0.953125
Q33.9375 -1.42188 27.875 -1.42188
Q17.9688 -1.42188 11.7344 6.48438
Q5.51562 14.4062 5.51562 27.2969
Q5.51562 40.1875 11.7344 48.0938
Q17.9688 56 27.875 56
Q33.9375 56 38.25 53.625
Q42.5781 51.2656 45.4062 46.3906
M14.7969 27.2969
Q14.7969 17.3906 18.875 11.75
Q22.9531 6.10938 30.0781 6.10938
Q37.2031 6.10938 41.2969 11.75
Q45.4062 17.3906 45.4062 27.2969
Q45.4062 37.2031 41.2969 42.8438
Q37.2031 48.4844 30.0781 48.4844
Q22.9531 48.4844 18.875 42.8438
Q14.7969 37.2031 14.7969 27.2969" id="DejaVuSans-64"/>
     <path d="
M48.6875 27.2969
Q48.6875 37.2031 44.6094 42.8438
Q40.5312 48.4844 33.4062 48.4844
Q26.2656 48.4844 22.1875 42.8438
Q18.1094 37.2031 18.1094 27.2969
Q18.1094 17.3906 22.1875 11.75
Q26.2656 6.10938 33.4062 6.10938
Q40.5312 6.10938 44.6094 11.75
Q48.6875 17.3906 48.6875 27.2969
M18.1094 46.3906
Q20.9531 51.2656 25.2656 53.625
Q29.5938 56 35.5938 56
Q45.5625 56 51.7812 48.0938
Q58.0156 40.1875 58.0156 27.2969
Q58.0156 14.4062 51.7812 6.48438
Q45.5625 -1.42188 35.5938 -1.42188
Q29.5938 -1.42188 25.2656 0.953125
Q20.9531 3.32812 18.1094 8.20312
L18.1094 0
L9.07812 0
L9.07812 75.9844
L18.1094 75.9844
z
" id="DejaVuSans-62"/>
     <path d="
M48.7812 52.5938
L48.7812 44.1875
Q44.9688 46.2969 41.1406 47.3438
Q37.3125 48.3906 33.4062 48.3906
Q24.6562 48.3906 19.8125 42.8438
Q14.9844 37.3125 14.9844 27.2969
Q14.9844 17.2812 19.8125 11.7344
Q24.6562 6.20312 33.4062 6.20312
Q37.3125 6.20312 41.1406 7.25
Q44.9688 8.29688 48.7812 10.4062
L48.7812 2.09375
Q45.0156 0.34375 40.9844 -0.53125
Q36.9688 -1.42188 32.4219 -1.42188
Q20.0625 -1.42188 12.7812 6.34375
Q5.51562 14.1094 5.51562 27.2969
Q5.51562 40.6719 12.8594 48.3281
Q20.2188 56 33.0156 56
Q37.1562 56 41.1094 55.1406
Q45.0625 54.2969 48.7812 52.5938" id="DejaVuSans-63"/>
     <path d="
M44.2812 53.0781
L44.2812 44.5781
Q40.4844 46.5312 36.375 47.5
Q32.2812 48.4844 27.875 48.4844
Q21.1875 48.4844 17.8438 46.4375
Q14.5 44.3906 14.5 40.2812
Q14.5 37.1562 16.8906 35.375
Q19.2812 33.5938 26.5156 31.9844
L29.5938 31.2969
Q39.1562 29.25 43.1875 25.5156
Q47.2188 21.7812 47.2188 15.0938
Q47.2188 7.46875 41.1875 3.01562
Q35.1562 -1.42188 24.6094 -1.42188
Q20.2188 -1.42188 15.4531 -0.5625
Q10.6875 0.296875 5.42188 2
L5.42188 11.2812
Q10.4062 8.6875 15.2344 7.39062
Q20.0625 6.10938 24.8125 6.10938
Q31.1562 6.10938 34.5625 8.28125
Q37.9844 10.4531 37.9844 14.4062
Q37.9844 18.0625 35.5156 20.0156
Q33.0625 21.9688 24.7031 23.7812
L21.5781 24.5156
Q13.2344 26.2656 9.51562 29.9062
Q5.8125 33.5469 5.8125 39.8906
Q5.8125 47.6094 11.2812 51.7969
Q16.75 56 26.8125 56
Q31.7812 56 36.1719 55.2656
Q40.5781 54.5469 44.2812 53.0781" id="DejaVuSans-73"/>
     <path d="
M34.2812 27.4844
Q23.3906 27.4844 19.1875 25
Q14.9844 22.5156 14.9844 16.5
Q14.9844 11.7188 18.1406 8.90625
Q21.2969 6.10938 26.7031 6.10938
Q34.1875 6.10938 38.7031 11.4062
Q43.2188 16.7031 43.2188 25.4844
L43.2188 27.4844
z

M52.2031 31.2031
L52.2031 0
L43.2188 0
L43.2188 8.29688
Q40.1406 3.32812 35.5469 0.953125
Q30.9531 -1.42188 24.3125 -1.42188
Q15.9219 -1.42188 10.9531 3.29688
Q6 8.01562 6 15.9219
Q6 25.1406 12.1719 29.8281
Q18.3594 34.5156 30.6094 34.5156
L43.2188 34.5156
L43.2188 35.4062
Q43.2188 41.6094 39.1406 45
Q35.0625 48.3906 27.6875 48.3906
Q23 48.3906 18.5469 47.2656
Q14.1094 46.1406 10.0156 43.8906
L10.0156 52.2031
Q14.9375 54.1094 19.5781 55.0469
Q24.2188 56 28.6094 56
Q40.4844 56 46.3438 49.8438
Q52.2031 43.7031 52.2031 31.2031" id="DejaVuSans-61"/>
    </defs>
    <g transform="translate(144.40825 18.14175)scale(0.144 -0.144)">
     <use xlink:href="#DejaVuSans-2f"/>
     <use x="33.69140625" xlink:href="#DejaVuSans-61"/>
     <use x="94.970703125" xlink:href="#DejaVuSans-67"/>
     <use x="158.447265625" xlink:href="#DejaVuSans-61"/>
     <use x="219.7265625" xlink:href="#DejaVuSans-73"/>
     <use x="271.826171875" xlink:href="#DejaVuSans-2f"/>
     <use x="305.517578125" xlink:href="#DejaVuSans-63"/>
     <use x="360.498046875" xlink:href="#DejaVuSans-6f"/>
     <use x="421.6796875" xlink:href="#DejaVuSans-75"/>
     <use x="485.05859375" xlink:href="#DejaVuSans-6e"/>
     <use x="548.4375" xlink:href="#DejaVuSans-74"/>
     <use x="587.646484375" xlink:href="#DejaVuSans-2f"/>
     <use x="621.337890625" xlink:href="#DejaVuSans-62"/>
     <use x="684.814453125" xlink:href="#DejaVuSans-69"/>
     <use x="712.59765625" xlink:href="#DejaVuSans-6e"/>
     <use x="775.9765625" xlink:href="#DejaVuSans-64"/>
     <use x="839.453125" xlink:href="#DejaVuSans-5f"/>
     <use x="889.453125" xlink:href="#DejaVuSans-67"/>
     <use x="952.9296875" xlink:href="#DejaVuSans-69"/>
     <use x="980.712890625" xlink:href="#DejaVuSans-64"/>
     <use x="1044.18945312" xlink:href="#DejaVuSans-20"/>
     <use x="1075.9765625" xlink:href="#DejaVuSans-63"/>
     <use x="1130.95703125" xlink:href="#DejaVuSans-68"/>
     <use x="1194.3359375" xlink:href="#DejaVuSans-61"/>
     <use x="1255.61523438" xlink:href="#DejaVuSans-6e"/>
     <use x="1318.99414062" xlink:href="#DejaVuSans-67"/>
     <use x="1382.47070312" xlink:href="#DejaVuSans-65"/>
    </g>
   </g>
   <g id="legend_1">
    <g id="patch_7">
     <path d="
M478.394 367.194
L610.183 367.194
L610.183 24.6897
L478.394 24.6897
z
" style="fill:#ffffff;stroke:#000000;stroke-linejoin:miter;"/>
    </g>
    <g id="line2d_45">
     <path d="
M488.474 36.3515
L508.634 36.3515" style="fill:none;stroke:#0000ff;stroke-linecap:square;"/>
    </g>
    <g id="line2d_46"/>
    <g id="text_17">
     <!-- locality#0 -->
     <defs>
      <path d="
M51.125 44
L36.9219 44
L32.8125 27.6875
L47.125 27.6875
z

M43.7969 71.7812
L38.7188 51.5156
L52.9844 51.5156
L58.1094 71.7812
L65.9219 71.7812
L60.8906 51.5156
L76.125 51.5156
L76.125 44
L58.9844 44
L54.9844 27.6875
L70.5156 27.6875
L70.5156 20.2188
L53.0781 20.2188
L48 0
L40.1875 0
L45.2188 20.2188
L30.9062 20.2188
L25.875 0
L18.0156 0
L23.0938 20.2188
L7.71875 20.2188
L7.71875 27.6875
L24.9062 27.6875
L29 44
L13.2812 44
L13.2812 51.5156
L30.9062 51.5156
L35.8906 71.7812
z
" id="DejaVuSans-23"/>
      <path d="
M32.1719 -5.07812
Q28.375 -14.8438 24.75 -17.8125
Q21.1406 -20.7969 15.0938 -20.7969
L7.90625 -20.7969
L7.90625 -13.2812
L13.1875 -13.2812
Q16.8906 -13.2812 18.9375 -11.5156
Q21 -9.76562 23.4844 -3.21875
L25.0938 0.875
L2.98438 54.6875
L12.5 54.6875
L29.5938 11.9219
L46.6875 54.6875
L56.2031 54.6875
z
" id="DejaVuSans-79"/>
      <path d="
M9.42188 75.9844
L18.4062 75.9844
L18.4062 0
L9.42188 0
z
" id="DejaVuSans-6c"/>
     </defs>
     <g transform="translate(524.47375 41.3915)scale(0.144 -0.144)">
      <use xlink:href="#DejaVuSans-6c"/>
      <use x="27.783203125" xlink:href="#DejaVuSans-6f"/>
      <use x="88.96484375" xlink:href="#DejaVuSans-63"/>
      <use x="143.9453125" xlink:href="#DejaVuSans-61"/>
      <use x="205.224609375" xlink:href="#DejaVuSans-6c"/>
      <use x="233.0078125" xlink:href="#DejaVuSans-69"/>
      <use x="260.791015625" xlink:href="#DejaVuSans-74"/>
      <use x="300.0" xlink:href="#DejaVuSans-79"/>
      <use x="359.1796875" xlink:href="#DejaVuSans-23"/>
      <use x="442.96875" xlink:href="#DejaVuSans-30"/>
     </g>
    </g>
    <g id="line2d_47">
     <path d="
M488.474 57.488
L508.634 57.488" style="fill:none;stroke:#008000;stroke-linecap:square;"/>
    </g>
    <g id="line2d_48"/>
    <g id="text_18">
     <!-- locality#1 -->
     <g transform="translate(524.47375 62.528)scale(0.144 -0.144)">
      <use xlink:href="#DejaVuSans-6c"/>
      <use x="27.783203125" xlink:href="#DejaVuSans-6f"/>
      <use x="88.96484375" xlink:href="#DejaVuSans-63"/>
      <use x="143.9453125" xlink:href="#DejaVuSans-61"/>
      <use x="205.224609375" xlink:href="#DejaVuSans-6c"/>
      <use x="233.0078125" xlink:href="#DejaVuSans-69"/>
      <use x="260.791015625" xlink:href="#DejaVuSans-74"/>
      <use x="300.0" xlink:href="#DejaVuSans-79"/>
      <use x="359.1796875" xlink:href="#DejaVuSans-23"/>
      <use x="442.96875" xlink:href="#DejaVuSans-31"/>
     </g>
    </g>
    <g id="line2d_49">
     <path d="
M488.474 78.6245
L508.634 78.6245" style="fill:none;stroke:#ff0000;stroke-linecap:square;"/>
    </g>
    <g id="line2d_50"/>
    <g id="text_19">
     <!-- locality#10 -->
     <g transform="translate(524.47375 83.6645)scale(0.144 -0.144)">
      <use xlink:href="#DejaVuSans-6c"/>
      <use x="27.783203125" xlink:href="#DejaVuSans-6f"/>
      <use x="88.96484375" xlink:href="#DejaVuSans-63"/>
      <use x="143.9453125" xlink:href="#DejaVuSans-61"/>
      <use x="205.224609375" xlink:href="#DejaVuSans-6c"/>
      <use x="233.0078125" xlink:href="#DejaVuSans-69"/>
      <use x="260.791015625" xlink:href="#DejaVuSans-74"/>
      <use x="300.0" xlink:href="#DejaVuSans-79"/>
      <use x="359.1796875" xlink:href="#DejaVuSans-23"/>
      <use x="442.96875" xlink:href="#DejaVuSans-31"/>
      <use x="506.591796875" xlink:href="#DejaVuSans-30"/>
     </g>
    </g>
    <g id="line2d_51">
     <path d="
M488.474 99.761
L508.634 99.761" style="fill:none;stroke:#00bfbf;stroke-linecap:square;"/>
    </g>
    <g id="line2d_52"/>
    <g id="text_20">
     <!-- locality#11 -->
     <g transform="translate(524.47375 104.801)scale(0.144 -0.144)">
      <use xlink:href="#DejaVuSans-6c"/>
      <use x="27.783203125" xlink:href="#DejaVuSans-6f"/>
      <use x="88.96484375" xlink:href="#DejaVuSans-63"/>
      <use x="143.9453125" xlink:href="#DejaVuSans-61"/>
      <use x="205.224609375" xlink:href="#DejaVuSans-6c"/>
      <use x="233.0078125" xlink:href="#DejaVuSans-69"/>
      <use x="260.791015625" xlink:href="#DejaVuSans-74"/>
      <use x="300.0" xlink:href="#DejaVuSans-79"/>
      <use x="359.1796875" xlink:href="#DejaVuSans-23"/>
      <use x="442.96875" xlink:href="#DejaVuSans-31"/>
      <use x="506.591796875" xlink:href="#DejaVuSans-31"/>
     </g>
    </g>
    <g id="line2d_53">
     <path d="
M488.474 120.897
L508.634 120.897" style="fill:none;stroke:#bf00bf;stroke-linecap:square;"/>
    </g>
    <g id="line2d_54"/>
    <g id="text_21">
     <!-- locality#12 -->
     <g transform="translate(524.47375 125.9375)scale(0.144 -0.144)">
      <use xlink:href="#DejaVuSans-6c"/>
      <use x="27.783203125" xlink:href="#DejaVuSans-6f"/>
      <use x="88.96484375" xlink:href="#DejaVuSans-63"/>
      <use x="143.9453125" xlink:href="#DejaVuSans-61"/>
      <use x="205.224609375" xlink:href="#DejaVuSans-6c"/>
      <use x="233.0078125" xlink:href="#DejaVuSans-69"/>
      <use x="260.791015625" xlink:href="#DejaVuSans-74"/>
      <use x="300.0" xlink:href="#DejaVuSans-79"/>
      <use x="359.1796875" xlink:href="#DejaVuSans-23"/>
      <use x="442.96875" xlink:href="#DejaVuSans-31"/>
      <use x="506.591796875" xlink:href="#DejaVuSans-32"/>
     </g>
    </g>
    <g id="line2d_55">
     <path d="
M488.474 142.034
L508.634 142.034" style="fill:none;stroke:#bfbf00;stroke-linecap:square;"/>
    </g>
    <g id="line2d_56"/>
    <g id="text_22">
     <!-- locality#13 -->
     <g transform="translate(524.47375 147.074)scale(0.144 -0.144)">
      <use xlink:href="#DejaVuSans-6c"/>
      <use x="27.783203125" xlink:href="#DejaVuSans-6f"/>
      <use x="88.96484375" xlink:href="#DejaVuSans-63"/>
      <use x="143.9453125" xlink:href="#DejaVuSans-61"/>
      <use x="205.224609375" xlink:href="#DejaVuSans-6c"/>
      <use x="233.0078125" xlink:href="#DejaVuSans-69"/>
      <use x="260.791015625" xlink:href="#DejaVuSans-74"/>
      <use x="300.0" xlink:href="#DejaVuSans-79"/>
      <use x="359.1796875" xlink:href="#DejaVuSans-23"/>
      <use x="442.96875" xlink:href="#DejaVuSans-31"/>
      <use x="506.591796875" xlink:href="#DejaVuSans-33"/>
     </g>
    </g>
    <g id="line2d_57">
     <path d="
M488.474 163.17
L508.634 163.17" style="fill:none;stroke:#000000;stroke-linecap:square;"/>
    </g>
    <g id="line2d_58"/>
    <g id="text_23">
     <!-- locality#14 -->
     <defs>
      <path d="
M37.7969 64.3125
L12.8906 25.3906
L37.7969 25.3906
z

M35.2031 72.9062
L47.6094 72.9062
L47.6094 25.3906
L58.0156 25.3906
L58.0156 17.1875
L47.6094 17.1875
L47.6094 0
L37.7969 0
L37.7969 17.1875
L4.89062 17.1875
L4.89062 26.7031
z
" id="DejaVuSans-34"/>
     </defs>
     <g transform="translate(524.47375 168.2105)scale(0.144 -0.144)">
      <use xlink:href="#DejaVuSans-6c"/>
      <use x="27.783203125" xlink:href="#DejaVuSans-6f"/>
      <use x="88.96484375" xlink:href="#DejaVuSans-63"/>
      <use x="143.9453125" xlink:href="#DejaVuSans-61"/>
      <use x="205.224609375" xlink:href="#DejaVuSans-6c"/>
      <use x="233.0078125" xlink:href="#DejaVuSans-69"/>
      <use x="260.791015625" xlink:href="#DejaVuSans-74"/>
      <use x="300.0" xlink:href="#DejaVuSans-79"/>
      <use x="359.1796875" xlink:href="#DejaVuSans-23"/>
      <use x="442.96875" xlink:href="#DejaVuSans-31"/>
      <use x="506.591796875" xlink:href="#DejaVuSans-34"/>
     </g>
    </g>
    <g id="line2d_59">
     <path d="
M488.474 184.307
L508.634 184.307" style="fill:none;stroke:#0000ff;stroke-linecap:square;"/>
    </g>
    <g id="line2d_60"/>
    <g id="text_24">
     <!-- locality#15 -->
     <g transform="translate(524.47375 189.347)scale(0.144 -0.144)">
      <use xlink:href="#DejaVuSans-6c"/>
      <use x="27.783203125" xlink:href="#DejaVuSans-6f"/>
      <use x="88.96484375" xlink:href="#DejaVuSans-63"/>
      <use x="143.9453125" xlink:href="#DejaVuSans-61"/>
      <use x="205.224609375" xlink:href="#DejaVuSans-6c"/>
      <use x="233.0078125" xlink:href="#DejaVuSans-69"/>
      <use x="260.791015625" xlink:href="#DejaVuSans-74"/>
      <use x="300.0" xlink:href="#DejaVuSans-79"/>
      <use x="359.1796875" xlink:href="#DejaVuSans-23"/>
      <use x="442.96875" xlink:href="#DejaVuSans-31"/>
      <use x="506.591796875" xlink:href="#DejaVuSans-35"/>
     </g>
    </g>
    <g id="line2d_61">
     <path d="
M488.474 205.443
L508.634 205.443" style="fill:none;stroke:#008000;stroke-linecap:square;"/>
    </g>
    <g id="line2d_62"/>
    <g id="text_25">
     <!-- locality#2 -->
     <g transform="translate(524.47375 210.4835)scale(0.144 -0.144)">
      <use xlink:href="#DejaVuSans-6c"/>
      <use x="27.783203125" xlink:href="#DejaVuSans-6f"/>
      <use x="88.96484375" xlink:href="#DejaVuSans-63"/>
      <use x="143.9453125" xlink:href="#DejaVuSans-61"/>
      <use x="205.224609375" xlink:href="#DejaVuSans-6c"/>
      <use x="233.0078125" xlink:href="#DejaVuSans-69"/>
      <use x="260.791015625" xlink:href="#DejaVuSans-74"/>
      <use x="300.0" xlink:href="#DejaVuSans-79"/>
      <use x="359.1796875" xlink:href="#DejaVuSans-23"/>
      <use x="442.96875" xlink:href="#DejaVuSans-32"/>
     </g>
    </g>
    <g id="line2d_63">
     <path d="
M488.474 226.58
L508.634 226.58" style="fill:none;stroke:#ff0000;stroke-linecap:square;"/>
    </g>
    <g id="line2d_64"/>
    <g id="text_26">
     <!-- locality#3 -->
     <g transform="translate(524.47375 231.62)scale(0.144 -0.144)">
      <use xlink:href="#DejaVuSans-6c"/>
      <use x="27.783203125" xlink:href="#DejaVuSans-6f"/>
      <use x="88.96484375" xlink:href="#DejaVuSans-63"/>
      <use x="143.9453125" xlink:href="#DejaVuSans-61"/>
      <use x="205.224609375" xlink:href="#DejaVuSans-6c"/>
      <use x="233.0078125" xlink:href="#DejaVuSans-69"/>
      <use x="260.791015625" xlink:href="#DejaVuSans-74"/>
      <use x="300.0" xlink:href="#DejaVuSans-79"/>
      <use x="359.1796875" xlink:href="#DejaVuSans-23"/>
      <use x="442.96875" xlink:href="#DejaVuSans-33"/>
     </g>
    </g>
    <g id="line2d_65">
     <path d="
M488.474 247.716
L508.634 247.716" style="fill:none;stroke:#00bfbf;stroke-linecap:square;"/>
    </g>
    <g id="line2d_66"/>
    <g id="text_27">
     <!-- locality#4 -->
     <g transform="translate(524.47375 252.7565)scale(0.144 -0.144)">
      <use xlink:href="#DejaVuSans-6c"/>
      <use x="27.783203125" xlink:href="#DejaVuSans-6f"/>
      <use x="88.96484375" xlink:href="#DejaVuSans-63"/>
      <use x="143.9453125" xlink:href="#DejaVuSans-61"/>
      <use x="205.224609375" xlink:href="#DejaVuSans-6c"/>
      <use x="233.0078125" xlink:href="#DejaVuSans-69"/>
      <use x="260.791015625" xlink:href="#DejaVuSans-74"/>
      <use x="300.0" xlink:href="#DejaVuSans-79"/>
      <use x="359.1796875" xlink:href="#DejaVuSans-23"/>
      <use x="442.96875" xlink:href="#DejaVuSans-34"/>
     </g>
    </g>
    <g id="line2d_67">
     <path d="
M488.474 268.853
L508.634 268.853" style="fill:none;stroke:#bf00bf;stroke-linecap:square;"/>
    </g>
    <g id="line2d_68"/>
    <g id="text_28">
     <!-- locality#5 -->
     <g transform="translate(524.47375 273.893)scale(0.144 -0.144)">
      <use xlink:href="#DejaVuSans-6c"/>
      <use x="27.783203125" xlink:href="#DejaVuSans-6f"/>
      <use x="88.96484375" xlink:href="#DejaVuSans-63"/>
      <use x="143.9453125" xlink:href="#DejaVuSans-61"/>
      <use x="205.224609375" xlink:href="#DejaVuSans-6c"/>
      <use x="233.0078125" xlink:href="#DejaVuSans-69"/>
      <use x="260.791015625" xlink:href="#DejaVuSans-74"/>
      <use x="300.0" xlink:href="#DejaVuSans-79"/>
      <use x="359.1796875" xlink:href="#DejaVuSans-23"/>
      <use x="442.96875" xlink:href="#DejaVuSans-35"/>
     </g>
    </g>
    <g id="line2d_69">
     <path d="
M488.474 289.989
L508.634 289.989" style="fill:none;stroke:#bfbf00;stroke-linecap:square;"/>
    </g>
    <g id="line2d_70"/>
    <g id="text_29">
     <!-- locality#6 -->
     <defs>
      <path d="
M33.0156 40.375
Q26.375 40.375 22.4844 35.8281
Q18.6094 31.2969 18.6094 23.3906
Q18.6094 15.5312 22.4844 10.9531
Q26.375 6.39062 33.0156 6.39062
Q39.6562 6.39062 43.5312 10.9531
Q47.4062 15.5312 47.4062 23.3906
Q47.4062 31.2969 43.5312 35.8281
Q39.6562 40.375 33.0156 40.375
M52.5938 71.2969
L52.5938 62.3125
Q48.875 64.0625 45.0938 64.9844
Q41.3125 65.9219 37.5938 65.9219
Q27.8281 65.9219 22.6719 59.3281
Q17.5312 52.7344 16.7969 39.4062
Q19.6719 43.6562 24.0156 45.9219
Q28.375 48.1875 33.5938 48.1875
Q44.5781 48.1875 50.9531 41.5156
Q57.3281 34.8594 57.3281 23.3906
Q57.3281 12.1562 50.6875 5.35938
Q44.0469 -1.42188 33.0156 -1.42188
Q20.3594 -1.42188 13.6719 8.26562
Q6.98438 17.9688 6.98438 36.375
Q6.98438 53.6562 15.1875 63.9375
Q23.3906 74.2188 37.2031 74.2188
Q40.9219 74.2188 44.7031 73.4844
Q48.4844 72.75 52.5938 71.2969" id="DejaVuSans-36"/>
     </defs>
     <g transform="translate(524.47375 295.0295)scale(0.144 -0.144)">
      <use xlink:href="#DejaVuSans-6c"/>
      <use x="27.783203125" xlink:href="#DejaVuSans-6f"/>
      <use x="88.96484375" xlink:href="#DejaVuSans-63"/>
      <use x="143.9453125" xlink:href="#DejaVuSans-61"/>
      <use x="205.224609375" xlink:href="#DejaVuSans-6c"/>
      <use x="233.0078125" xlink:href="#DejaVuSans-69"/>
      <use x="260.791015625" xlink:href="#DejaVuSans-74"/>
      <use x="300.0" xlink:href="#DejaVuSans-79"/>
      <use x="359.1796875" xlink:href="#DejaVuSans-23"/>
      <use x="442.96875" xlink:href="#DejaVuSans-36"/>
     </g>
    </g>
    <g id="line2d_71">
     <path d="
M488.474 311.126
L508.634 311.126" style="fill:none;stroke:#000000;stroke-linecap:square;"/>
    </g>
    <g id="line2d_72"/>
    <g id="text_30">
     <!-- locality#7 -->
     <defs>
      <path d="
M8.20312 72.9062
L55.0781 72.9062
L55.0781 68.7031
L28.6094 0
L18.3125 0
L43.2188 64.5938
L8.20312 64.5938
z
" id="DejaVuSans-37"/>
     </defs>
     <g transform="translate(524.47375 316.166)scale(0.144 -0.144)">
      <use xlink:href="#DejaVuSans-6c"/>
      <use x="27.783203125" xlink:href="#DejaVuSans-6f"/>
      <use x="88.96484375" xlink:href="#DejaVuSans-63"/>
      <use x="143.9453125" xlink:href="#DejaVuSans-61"/>
      <use x="205.224609375" xlink:href="#DejaVuSans-6c"/>
      <use x="233.0078125" xlink:href="#DejaVuSans-69"/>
      <use x="260.791015625" xlink:href="#DejaVuSans-74"/>
      <use x="300.0" xlink:href="#DejaVuSans-79"/>
      <use x="359.1796875" xlink:href="#DejaVuSans-23"/>
      <use x="442.96875" xlink:href="#DejaVuSans-37"/>
     </g>
    </g>
    <g id="line2d_73">
     <path d="
M488.474 332.262
L508.634 332.262" style="fill:none;stroke:#0000ff;stroke-linecap:square;"/>
    </g>
    <g id="line2d_74"/>
    <g id="text_31">
     <!-- locality#8 -->
     <defs>
      <path d="
M31.7812 34.625
Q24.75 34.625 20.7188 30.8594
Q16.7031 27.0938 16.7031 20.5156
Q16.7031 13.9219 20.7188 10.1562
Q24.75 6.39062 31.7812 6.39062
Q38.8125 6.39062 42.8594 10.1719
Q46.9219 13.9688 46.9219 20.5156
Q46.9219 27.0938 42.8906 30.8594
Q38.875 34.625 31.7812 34.625
M21.9219 38.8125
Q15.5781 40.375 12.0312 44.7188
Q8.5 49.0781 8.5 55.3281
Q8.5 64.0625 14.7188 69.1406
Q20.9531 74.2188 31.7812 74.2188
Q42.6719 74.2188 48.875 69.1406
Q55.0781 64.0625 55.0781 55.3281
Q55.0781 49.0781 51.5312 44.7188
Q48 40.375 41.7031 38.8125
Q48.8281 37.1562 52.7969 32.3125
Q56.7812 27.4844 56.7812 20.5156
Q56.7812 9.90625 50.3125 4.23438
Q43.8438 -1.42188 31.7812 -1.42188
Q19.7344 -1.42188 13.25 4.23438
Q6.78125 9.90625 6.78125 20.5156
Q6.78125 27.4844 10.7812 32.3125
Q14.7969 37.1562 21.9219 38.8125
M18.3125 54.3906
Q18.3125 48.7344 21.8438 45.5625
Q25.3906 42.3906 31.7812 42.3906
Q38.1406 42.3906 41.7188 45.5625
Q45.3125 48.7344 45.3125 54.3906
Q45.3125 60.0625 41.7188 63.2344
Q38.1406 66.4062 31.7812 66.4062
Q25.3906 66.4062 21.8438 63.2344
Q18.3125 60.0625 18.3125 54.3906" id="DejaVuSans-38"/>
     </defs>
     <g transform="translate(524.47375 337.3025)scale(0.144 -0.144)">
      <use xlink:href="#DejaVuSans-6c"/>
      <use x="27.783203125" xlink:href="#DejaVuSans-6f"/>
      <use x="88.96484375" xlink:href="#DejaVuSans-63"/>
      <use x="143.9453125" xlink:href="#DejaVuSans-61"/>
      <use x="205.224609375" xlink:href="#DejaVuSans-6c"/>
      <use x="233.0078125" xlink:href="#DejaVuSans-69"/>
      <use x="260.791015625" xlink:href="#DejaVuSans-74"/>
      <use x="300.0" xlink:href="#DejaVuSans-79"/>
      <use x="359.1796875" xlink:href="#DejaVuSans-23"/>
      <use x="442.96875" xlink:href="#DejaVuSans-38"/>
     </g>
    </g>
    <g id="line2d_75">
     <path d="
M488.474 353.399
L508.634 353.399" style="fill:none;stroke:#008000;stroke-linecap:square;"/>
    </g>
    <g id="line2d_76"/>
    <g id="text_32">
     <!-- locality#9 -->
     <defs>
      <path d="
M10.9844 1.51562
L10.9844 10.5
Q14.7031 8.73438 18.5 7.8125
Q22.3125 6.89062 25.9844 6.89062
Q35.75 6.89062 40.8906 13.4531
Q46.0469 20.0156 46.7812 33.4062
Q43.9531 29.2031 39.5938 26.9531
Q35.25 24.7031 29.9844 24.7031
Q19.0469 24.7031 12.6719 31.3125
Q6.29688 37.9375 6.29688 49.4219
Q6.29688 60.6406 12.9375 67.4219
Q19.5781 74.2188 30.6094 74.2188
Q43.2656 74.2188 49.9219 64.5156
Q56.5938 54.8281 56.5938 36.375
Q56.5938 19.1406 48.4062 8.85938
Q40.2344 -1.42188 26.4219 -1.42188
Q22.7031 -1.42188 18.8906 -0.6875
Q15.0938 0.046875 10.9844 1.51562
M30.6094 32.4219
Q37.25 32.4219 41.125 36.9531
Q45.0156 41.5 45.0156 49.4219
Q45.0156 57.2812 41.125 61.8438
Q37.25 66.4062 30.6094 66.4062
Q23.9688 66.4062 20.0938 61.8438
Q16.2188 57.2812 16.2188 49.4219
Q16.2188 41.5 20.0938 36.9531
Q23.9688 32.4219 30.6094 32.4219" id="DejaVuSans-39"/>
     </defs>
     <g transform="translate(524.47375 358.439)scale(0.144 -0.144)">
      <use xlink:href="#DejaVuSans-6c"/>
      <use x="27.783203125" xlink:href="#DejaVuSans-6f"/>
      <use x="88.96484375" xlink:href="#DejaVuSans-63"/>
      <use x="143.9453125" xlink:href="#DejaVuSans-61"/>
      <use x="205.224609375" xlink:href="#DejaVuSans-6c"/>
      <use x="233.0078125" xlink:href="#DejaVuSans-69"/>
      <use x="260.791015625" xlink:href="#DejaVuSans-74"/>
      <use x="300.0" xlink:href="#DejaVuSans-79"/>
      <use x="359.1796875" xlink:href="#DejaVuSans-23"/>
      <use x="442.96875" xlink:href="#DejaVuSans-39"/>
     </g>
    </g>
   </g>
  </g>
 </g>
 <defs>
  <clipPath id="p75e4a4db2e">
   <rect height="345.6" width="446.4" x="24.79375" y="23.14175"/>
  </clipPath>
 </defs>
</svg>
