<?xml version="1.0" encoding="utf-8" standalone="no"?>
<!DOCTYPE svg PUBLIC "-//W3C//DTD SVG 1.1//EN"
  "http://www.w3.org/Graphics/SVG/1.1/DTD/svg11.dtd">
<!-- Created with matplotlib (http://matplotlib.org/) -->
<svg height="408pt" version="1.1" viewBox="0 0 621 408" width="621pt" xmlns="http://www.w3.org/2000/svg" xmlns:xlink="http://www.w3.org/1999/xlink">
 <defs>
  <style type="text/css">
*{stroke-linecap:butt;stroke-linejoin:round;}
  </style>
 </defs>
 <g id="figure_1">
  <g id="patch_1">
   <path d="
M0 408.169
L621.409 408.169
L621.409 0
L0 0
z
" style="fill:#ffffff;"/>
  </g>
  <g id="axes_1">
   <g id="patch_2">
    <path d="
M28.8194 368.742
L475.219 368.742
L475.219 23.1417
L28.8194 23.1417
z
" style="fill:#ffffff;"/>
   </g>
   <g id="line2d_1">
    <path clip-path="url(#p8c776b0f9c)" d="
M28.8194 367.096
L30.2144 365.894
L42.7694 358.602
L45.5594 357.033
L49.7444 354.713
L55.3244 351.455
L56.7194 350.61
L58.1144 349.601
L63.6944 346.226
L66.4844 344.265
L77.6444 337.541
L83.2244 334.171
L84.6194 332.448
L91.5944 328.29
L92.9894 327.271
L98.5694 323.919
L99.9644 322.904
L102.754 321.219
L106.939 318.357
L108.334 317.525
L109.729 316.426
L116.704 312.113
L122.284 308.591
L127.864 305.16
L129.259 303.012
L132.049 301.238
L134.839 299.574
L136.234 298.536
L141.814 295.18
L143.209 294.174
L145.999 292.472
L147.394 291.446
L159.949 283.827
L161.344 282.708
L168.319 278.154
L173.899 274.843
L175.294 273.847
L176.689 273.014
L179.479 271.175
L189.244 264.834
L190.639 263.771
L201.799 256.947
L221.329 244.741
L224.119 242.998
L225.514 241.992
L226.909 241.155
L229.699 239.037
L231.094 238.2
L232.489 237.029
L235.279 235.157
L238.069 233.463
L239.464 232.313
L245.044 228.56
L246.439 227.312
L249.229 225.289
L250.624 224.415
L252.019 223.362
L265.969 214.872
L267.364 213.874
L268.759 212.469
L278.524 206.582
L288.289 200.263
L289.684 199.055
L292.474 197.393
L293.869 196.333
L302.239 191.205
L305.029 189.241
L306.424 187.873
L310.609 185.372
L314.794 182.394
L317.584 180.628
L324.559 176.431
L325.954 175.306
L327.349 174.017
L331.534 171.456
L337.114 167.812
L342.694 164.358
L344.089 163.215
L345.484 162.372
L349.669 159.5
L351.064 158.108
L352.459 156.924
L359.434 152.565
L360.829 151.726
L366.409 147.934
L367.804 147.095
L369.199 146.097
L373.384 143.558
L374.779 142.522
L377.569 140.851
L380.359 138.96
L381.754 138.115
L383.149 137.082
L384.544 136.228
L385.939 135.155
L387.334 133.847
L388.729 133.023
L392.914 130.189
L397.099 127.346
L399.889 125.255
L406.864 120.925
L409.654 118.986
L423.604 110.481
L424.999 109.455
L426.394 108.609
L427.789 107.497
L431.974 104.957
L434.764 102.931
L438.949 100.404
L440.344 99.3926
L445.924 96
L447.319 94.9824
L448.714 94.1472
L450.109 92.7917
L459.874 86.8704
L462.664 84.8736
L468.244 81.4867
L471.034 79.4688
L475.219 76.8557
L475.219 76.8557" style="fill:none;stroke:#0000ff;stroke-linecap:square;"/>
   </g>
   <g id="line2d_2">
    <path clip-path="url(#p8c776b0f9c)" d="
M28.8194 368.644
L30.2144 367.786
L33.0044 366.705
L34.3994 365.769
L38.5844 364.148
L39.9794 363.29
L49.7444 359.43
L51.1394 358.877
L55.3244 356.807
L60.9044 354.659
L62.2994 353.967
L69.2744 351.332
L70.6694 350.668
L87.4094 344.335
L90.1994 342.628
L94.3844 341.061
L95.7794 340.209
L99.9644 338.527
L101.359 337.797
L111.124 334.112
L113.914 332.965
L119.494 330.857
L120.889 330.19
L122.284 329.088
L143.209 321.154
L144.604 320.365
L147.394 319.313
L148.789 318.439
L150.184 317.723
L166.924 311.413
L168.319 310.691
L173.899 308.316
L175.294 307.565
L178.084 306.516
L179.479 305.827
L186.454 303.21
L187.849 302.225
L189.244 301.396
L192.034 300.229
L193.429 299.713
L194.824 298.97
L204.589 295.169
L208.774 293.3
L210.169 292.775
L211.564 291.995
L217.144 289.889
L218.539 289.095
L224.119 286.869
L226.909 285.701
L233.884 283.014
L236.674 281.798
L238.069 281.268
L240.859 279.951
L243.649 278.792
L247.834 276.946
L261.784 271.617
L263.179 270.67
L265.969 269.199
L267.364 268.665
L268.759 267.855
L270.154 267.333
L271.549 266.447
L274.339 265.284
L286.894 260.441
L296.659 256.717
L298.054 255.816
L299.449 255.294
L300.844 254.638
L302.239 254.115
L303.634 253.315
L305.029 252.789
L307.819 251.586
L310.609 250.544
L312.004 249.824
L316.189 248.257
L318.979 246.815
L324.559 244.721
L325.954 244.068
L327.349 243.544
L332.929 240.809
L341.299 237.567
L342.694 236.679
L344.089 236.147
L345.484 235.363
L348.274 234.21
L359.434 229.812
L360.829 228.791
L366.409 226.693
L367.804 226.013
L370.594 224.961
L371.989 224.269
L374.779 223.103
L377.569 221.923
L384.544 219.223
L388.729 217.536
L390.124 216.848
L401.284 212.627
L404.074 211.444
L405.469 210.922
L406.864 210.182
L409.654 209.098
L411.049 208.418
L413.839 207.366
L416.629 206.048
L420.814 204.413
L422.209 203.704
L427.789 201.546
L437.554 197.264
L440.344 195.845
L444.529 194.25
L445.924 193.48
L447.319 192.945
L448.714 192.18
L451.504 191.09
L454.294 189.929
L457.084 188.873
L458.479 188.066
L459.874 187.415
L462.664 186.367
L464.059 185.624
L468.244 184.037
L469.639 183.37
L473.824 181.685
L475.219 180.827
L475.219 180.827" style="fill:none;stroke:#008000;stroke-linecap:square;"/>
   </g>
   <g id="line2d_3">
    <path clip-path="url(#p8c776b0f9c)" d="
M28.8194 368.633
L30.2144 365.899
L33.0044 364.159
L34.3994 362.529
L38.5844 359.797
L44.1644 356.039
L45.5594 354.926
L59.5094 345.623
L60.9044 344.442
L66.4844 340.839
L74.8544 335.316
L77.6444 333.155
L79.0394 332.273
L80.4344 331.233
L90.1994 324.91
L91.5944 323.984
L92.9894 322.73
L95.7794 320.933
L97.1744 319.767
L102.754 316.076
L108.334 311.918
L109.729 310.806
L111.124 309.903
L112.519 308.776
L122.284 302.456
L123.679 301.32
L127.864 298.507
L129.259 297.463
L132.049 295.611
L144.604 287.264
L145.999 285.734
L150.184 282.87
L151.579 281.683
L161.344 275.297
L162.739 274.214
L165.529 272.403
L166.924 271.186
L172.504 267.595
L173.899 266.409
L193.429 253.694
L196.219 251.135
L199.009 249.187
L201.799 247.363
L204.589 245.44
L205.984 244.461
L207.379 243.282
L214.354 238.358
L219.934 234.69
L225.514 231.05
L226.909 229.804
L229.699 227.988
L232.489 225.675
L238.069 222.032
L243.649 218.234
L249.229 214.546
L250.624 213.371
L258.994 207.818
L260.389 206.672
L261.784 205.357
L264.574 203.528
L265.969 202.334
L271.549 198.689
L278.524 193.835
L296.659 181.606
L298.054 180.516
L300.844 178.625
L305.029 175.884
L307.819 174.09
L312.004 170.842
L316.189 168.127
L318.979 166.205
L325.954 161.651
L330.139 158.88
L339.904 152.392
L341.299 151.288
L359.434 139.281
L360.829 138.079
L362.224 137.034
L369.199 132.47
L371.989 130.51
L376.174 127.809
L377.569 126.572
L385.939 121.158
L387.334 120.008
L399.889 111.828
L401.284 110.905
L402.679 109.632
L405.469 107.676
L412.444 103.152
L419.419 98.4211
L420.814 97.3344
L452.899 76.295
L457.084 73.4745
L462.664 69.815
L464.059 68.6054
L465.454 67.7126
L468.244 65.2973
L469.639 64.3949
L471.034 63.335
L475.219 60.6355
L475.219 60.6355" style="fill:none;stroke:#ff0000;stroke-linecap:square;"/>
   </g>
   <g id="line2d_4">
    <path clip-path="url(#p8c776b0f9c)" d="
M28.8194 368.627
L30.2144 366.383
L34.3994 363.588
L37.1894 361.131
L39.9794 359.259
L42.7694 357.424
L44.1644 356.282
L45.5594 355.373
L48.3494 353.001
L49.7444 352.074
L51.1394 350.305
L53.9294 348.537
L55.3244 346.371
L56.7194 345.47
L58.1144 344.387
L62.2994 341.606
L63.6944 340.47
L65.0894 339.062
L74.8544 332.402
L76.2494 331.416
L77.6444 330.199
L81.8294 327.381
L84.6194 324.927
L87.4094 323.067
L90.1994 320.677
L91.5944 319.464
L95.7794 316.614
L98.5694 314.184
L108.334 307.389
L109.729 305.754
L113.914 302.874
L116.704 300.861
L120.889 297.988
L122.284 296.37
L125.074 294.494
L127.864 292.486
L130.654 290.617
L132.049 289.337
L133.444 288.415
L136.234 286.398
L139.024 284.516
L140.419 283.352
L145.999 278.222
L148.789 276.357
L151.579 273.78
L155.764 270.903
L157.159 269.704
L165.529 264.034
L168.319 262.038
L171.109 260.173
L173.899 257.917
L175.294 256.637
L178.084 254.746
L179.479 253.642
L180.874 252.722
L185.059 249.563
L193.429 243.338
L194.824 242.049
L196.219 240.952
L197.614 240.01
L199.009 238.571
L200.404 237.642
L205.984 233.473
L212.959 228.809
L217.144 225.983
L224.119 220.833
L225.514 219.507
L226.909 218.575
L228.304 217.216
L229.699 216.222
L232.489 213.98
L235.279 211.974
L238.069 209.887
L240.859 207.942
L252.019 200.124
L253.414 198.977
L257.599 196.199
L261.784 193.214
L263.179 191.859
L264.574 190.758
L271.549 185.935
L272.944 184.731
L274.339 183.791
L275.734 182.58
L282.709 177.777
L284.104 176.602
L289.684 172.754
L295.264 168.789
L299.449 165.9
L300.844 164.842
L302.239 163.555
L306.424 160.658
L307.819 159.276
L309.214 158.168
L310.609 157.21
L313.399 155.03
L317.584 152.083
L321.769 149.184
L323.164 148.243
L327.349 144.574
L328.744 143.604
L330.139 142.303
L332.929 140.296
L338.509 136.504
L339.904 135.348
L342.694 133.459
L345.484 131.272
L352.459 126.495
L355.249 123.076
L362.224 118.295
L363.619 117.014
L365.014 116.07
L367.804 113.981
L369.199 112.986
L371.989 110.588
L374.779 108.445
L380.359 104.538
L381.754 103.402
L387.334 99.527
L390.124 97.5168
L394.309 94.4582
L395.704 93.3197
L398.494 91.3728
L404.074 86.7341
L405.469 85.7817
L406.864 84.6566
L412.444 80.8166
L413.839 79.463
L416.629 77.4681
L418.024 76.5062
L420.814 74.3347
L426.394 70.5216
L427.789 69.2909
L429.184 68.2387
L430.579 67.0118
L431.974 66.0422
L434.764 63.7862
L438.949 60.9734
L441.739 58.992
L450.109 52.6905
L452.899 50.7993
L454.294 49.7606
L455.689 48.4857
L461.269 44.6707
L464.059 42.0038
L468.244 39.1545
L471.034 36.8601
L472.429 35.8925
L475.219 33.6941
L475.219 33.6941" style="fill:none;stroke:#00bfbf;stroke-linecap:square;"/>
   </g>
   <g id="line2d_5">
    <path clip-path="url(#p8c776b0f9c)" d="
M28.8194 368.62
L30.2144 367.687
L31.6094 365.624
L33.0044 364.8
L34.3994 363.774
L35.7944 362.923
L37.1894 361.601
L41.3744 358.887
L45.5594 355.538
L46.9544 354.596
L48.3494 353.37
L49.7444 352.375
L51.1394 350.934
L55.3244 348.286
L56.7194 346.745
L59.5094 344.727
L63.6944 342.16
L65.0894 341.129
L66.4844 340.288
L67.8794 339.225
L73.4594 335.883
L77.6444 333.346
L79.0394 332.194
L90.1994 325.413
L97.1744 320.882
L98.5694 319.64
L99.9644 318.795
L101.359 317.812
L105.544 315.266
L106.939 314.289
L109.729 312.563
L112.519 310.752
L115.309 309.074
L116.704 307.847
L120.889 305.308
L123.679 303.013
L130.654 298.787
L132.049 297.05
L133.444 295.955
L136.234 294.252
L137.629 293.257
L143.209 289.786
L161.344 278.755
L162.739 277.617
L165.529 275.851
L169.714 273.342
L171.109 272.308
L178.084 267.997
L180.874 266.074
L183.664 264.398
L186.454 262.635
L190.639 260.135
L192.034 259.061
L193.429 258.207
L196.219 256.199
L203.194 252.039
L205.984 249.991
L210.169 247.363
L218.539 242.168
L219.934 241.015
L224.119 238.493
L225.514 237.458
L242.254 227.177
L246.439 224.598
L250.624 221.993
L253.414 219.984
L254.809 219.154
L256.204 218.173
L257.599 216.964
L260.389 215.301
L261.784 214.202
L268.759 209.975
L271.549 208.161
L279.919 202.999
L284.104 200.412
L291.079 196.1
L292.474 195.063
L295.264 193.273
L299.449 190.487
L309.214 184.48
L313.399 181.883
L314.794 180.788
L324.559 174.816
L325.954 173.647
L337.114 166.854
L338.509 165.817
L344.089 162.298
L353.854 156.338
L355.249 154.925
L358.039 153.239
L359.434 151.928
L362.224 150.146
L367.804 146.721
L369.199 145.659
L373.384 143.101
L377.569 139.745
L378.964 138.895
L380.359 137.898
L381.754 137.05
L383.149 135.98
L390.124 131.658
L395.704 128.185
L401.284 124.602
L402.679 123.575
L404.074 122.365
L405.469 121.348
L409.654 118.694
L413.839 115.989
L415.234 114.981
L416.629 114.142
L418.024 112.785
L424.999 108.582
L427.789 106.42
L438.949 99.6749
L440.344 98.5478
L441.739 97.6723
L444.529 95.7024
L445.924 94.5024
L448.714 92.7168
L451.504 90.7104
L454.294 88.9747
L455.689 87.8438
L458.479 86.1773
L462.664 83.2704
L464.059 82.0454
L469.639 78.6816
L472.429 76.8825
L475.219 75.0893
L475.219 75.0893" style="fill:none;stroke:#bf00bf;stroke-linecap:square;"/>
   </g>
   <g id="line2d_6">
    <path clip-path="url(#p8c776b0f9c)" d="
M28.8194 368.626
L30.2144 367.02
L33.0044 365.467
L49.7444 356.367
L51.1394 355.308
L52.5344 354.431
L56.7194 352.146
L63.6944 348.207
L65.0894 347.218
L69.2744 344.958
L70.6694 343.874
L73.4594 342.271
L74.8544 341.527
L77.6444 339.907
L90.1994 333.183
L91.5944 332.366
L92.9894 331.377
L98.5694 328.423
L101.359 326.833
L104.149 325.243
L105.544 324.359
L106.939 323.625
L108.334 322.636
L109.729 321.886
L111.124 321.005
L119.494 316.514
L122.284 314.629
L133.444 308.681
L136.234 307.049
L139.024 305.437
L140.419 304.314
L147.394 300.537
L148.789 299.603
L152.974 297.355
L154.369 296.436
L165.529 290.457
L166.924 289.435
L172.504 286.437
L173.899 285.561
L175.294 284.822
L178.084 282.754
L180.874 281.237
L182.269 280.207
L187.849 277.22
L189.244 276.332
L193.429 274.111
L194.824 273.152
L205.984 267.219
L218.539 260.526
L221.329 258.924
L222.724 258.194
L224.119 257.288
L228.304 255.013
L231.094 253.427
L232.489 252.674
L233.884 251.361
L235.279 250.61
L238.069 248.37
L240.859 246.772
L249.229 242.228
L250.624 241.327
L252.019 240.585
L253.414 239.617
L260.389 235.911
L261.784 234.668
L265.969 232.331
L268.759 230.702
L270.154 229.967
L271.549 228.901
L282.709 222.934
L284.104 221.564
L285.499 220.827
L286.894 219.298
L292.474 216.289
L295.264 214.463
L298.054 212.972
L302.239 210.418
L307.819 207.472
L309.214 206.435
L318.979 201.197
L320.374 200.281
L325.954 197.298
L327.349 196.323
L332.929 193.329
L334.324 192.384
L337.114 190.896
L338.509 189.905
L351.064 183.165
L352.459 182.077
L353.854 181.331
L355.249 180.308
L356.644 179.556
L358.039 178.294
L359.434 177.397
L360.829 176.653
L362.224 175.692
L371.989 170.364
L374.779 168.768
L387.334 162.035
L390.124 160.376
L392.914 158.803
L401.284 154.322
L402.679 153.408
L404.074 152.646
L405.469 151.636
L408.259 150.142
L411.049 148.508
L413.839 146.974
L415.234 145.991
L418.024 144.503
L419.419 143.434
L430.579 137.366
L431.974 136.389
L438.949 132.559
L444.529 129.137
L450.109 126.056
L454.294 123.827
L455.689 122.88
L459.874 120.641
L461.269 119.336
L464.059 117.681
L471.034 113.902
L473.824 111.769
L475.219 111.011
L475.219 111.011" style="fill:none;stroke:#bfbf00;stroke-linecap:square;"/>
   </g>
   <g id="line2d_7">
    <path clip-path="url(#p8c776b0f9c)" d="
M28.8194 368.532
L30.2144 366.617
L31.6094 365.793
L34.3994 364.427
L35.7944 361.809
L37.1894 361.092
L38.5844 360.111
L46.9544 356.023
L48.3494 355.341
L51.1394 353.667
L58.1144 350.167
L63.6944 347.096
L65.0894 346.17
L67.8794 344.844
L70.6694 342.999
L74.8544 340.974
L76.2494 340.161
L84.6194 336.177
L86.0144 335.365
L88.8044 334.023
L90.1994 333.14
L91.5944 331.725
L99.9644 327.764
L101.359 326.682
L105.544 324.691
L106.939 323.742
L111.124 321.74
L113.914 320.307
L126.469 314.338
L130.654 312.108
L152.974 301.32
L155.764 299.925
L165.529 295.23
L166.924 294.251
L180.874 287.484
L186.454 284.598
L187.849 283.608
L204.589 275.441
L205.984 274.533
L214.354 270.531
L215.749 269.728
L217.144 268.464
L225.514 264.352
L226.909 263.534
L233.884 260.134
L235.279 259.201
L242.254 255.823
L243.649 255.03
L246.439 253.71
L247.834 252.802
L250.624 251.412
L258.994 246.982
L260.389 246.31
L261.784 245.296
L292.474 230.496
L293.869 229.688
L303.634 224.919
L305.029 223.849
L307.819 222.515
L309.214 221.703
L313.399 219.698
L314.794 218.781
L334.324 209.325
L338.509 207.045
L345.484 203.599
L346.879 202.512
L349.669 201.172
L351.064 200.194
L353.854 198.852
L355.249 197.993
L358.039 196.671
L359.434 195.741
L362.224 194.421
L363.619 193.555
L365.014 192.471
L367.804 191.105
L370.594 189.201
L371.989 188.47
L373.384 187.514
L378.964 184.855
L380.359 184.044
L394.309 177.288
L397.099 175.859
L401.284 173.841
L402.679 172.787
L413.839 167.409
L418.024 165.406
L419.419 164.446
L433.369 157.542
L443.134 152.767
L465.454 141.777
L466.849 140.945
L475.219 136.963
L475.219 136.963" style="fill:none;stroke:#000000;stroke-linecap:square;"/>
   </g>
   <g id="line2d_8">
    <path clip-path="url(#p8c776b0f9c)" d="
M28.8194 368.62
L30.2144 367.807
L35.7944 365.365
L37.1894 364.103
L41.3744 362.228
L42.7694 361.317
L53.9294 356.288
L55.3244 355.352
L56.7194 354.747
L58.1144 353.864
L59.5094 353.257
L60.9044 352.313
L62.2994 351.715
L65.0894 350.39
L81.8294 343.13
L84.6194 341.419
L95.7794 336.494
L105.544 332.1
L106.939 330.856
L108.334 330.254
L112.519 327.829
L113.914 327.221
L118.099 324.928
L120.889 323.715
L122.284 322.912
L130.654 319.286
L137.629 315.523
L151.579 309.175
L152.974 308.103
L154.369 307.254
L161.344 304.118
L164.134 302.847
L166.924 301.636
L168.319 300.872
L172.504 298.97
L175.294 297.656
L180.874 295.241
L182.269 294.482
L183.664 293.876
L185.059 293.064
L187.849 291.852
L189.244 291.101
L190.639 290.497
L192.034 289.485
L194.824 288.266
L196.219 287.431
L201.799 284.99
L204.589 283.127
L207.379 281.517
L214.354 278.476
L219.934 275.548
L221.329 274.32
L242.254 265.078
L250.624 261.24
L260.389 256.929
L261.784 256.124
L285.499 245.828
L286.894 245.013
L291.079 243.211
L293.869 241.408
L300.844 238.403
L302.239 237.656
L309.214 234.578
L310.609 233.705
L316.189 231.271
L317.584 229.99
L337.114 221.511
L338.509 220.623
L341.299 219.414
L342.694 218.575
L345.484 217.355
L348.274 215.674
L363.619 209.012
L366.409 207.269
L377.569 202.457
L378.964 201.517
L380.359 200.91
L381.754 199.655
L390.124 196.033
L391.519 194.813
L394.309 193.613
L397.099 192.294
L399.889 191.088
L402.679 188.873
L419.419 181.589
L420.814 180.727
L426.394 178.312
L427.789 177.412
L431.974 175.582
L433.369 174.657
L436.159 173.389
L445.924 169.108
L451.504 166.654
L452.899 165.884
L459.874 162.841
L462.664 161.512
L472.429 157.244
L473.824 156.445
L475.219 155.835
L475.219 155.835" style="fill:none;stroke:#0000ff;stroke-linecap:square;"/>
   </g>
   <g id="line2d_9">
    <path clip-path="url(#p8c776b0f9c)" d="
M28.8194 368.627
L30.2144 366.136
L33.0044 365.088
L35.7944 363.914
L38.5844 362.853
L39.9794 362.113
L41.3744 361.582
L42.7694 360.861
L55.3244 356.006
L58.1144 354.838
L59.5094 354.321
L60.9044 353.451
L66.4844 351.352
L67.8794 350.66
L73.4594 348.469
L79.0394 346.341
L88.8044 342.682
L90.1994 341.991
L95.7794 339.875
L97.1744 339.184
L105.544 336.045
L108.334 334.875
L109.729 334.351
L111.124 333.549
L116.704 331.438
L118.099 330.558
L126.469 327.406
L127.864 326.636
L130.654 325.476
L139.024 322.284
L140.419 321.201
L143.209 320.155
L144.604 319.46
L154.369 315.667
L155.764 314.993
L165.529 311.331
L166.924 310.501
L169.714 309.464
L171.109 308.776
L173.899 307.726
L175.294 307.019
L178.084 305.975
L179.479 304.993
L180.874 304.469
L183.664 303.134
L186.454 302.093
L192.034 299.466
L194.824 298.407
L196.219 297.711
L204.589 294.564
L205.984 293.917
L214.354 290.776
L215.749 289.919
L221.329 287.728
L222.724 287.006
L236.674 281.723
L238.069 280.938
L240.859 279.875
L242.254 279.138
L253.414 274.913
L256.204 273.776
L260.389 272.074
L263.179 271.019
L264.574 270.235
L279.919 264.343
L282.709 263.193
L288.289 261.104
L289.684 260.335
L303.634 254.993
L305.029 254.1
L307.819 252.858
L309.214 252.339
L310.609 251.673
L314.794 250.086
L317.584 248.844
L320.374 247.698
L325.954 245.575
L327.349 244.798
L334.324 242.063
L335.719 241.385
L337.114 240.862
L339.904 239.69
L345.484 237.544
L353.854 234.388
L359.434 231.967
L360.829 231.449
L363.619 229.8
L380.359 223.3
L381.754 222.511
L383.149 221.984
L384.544 221.198
L387.334 220.079
L392.914 217.95
L394.309 217.043
L398.494 215.473
L399.889 214.592
L401.284 214.065
L402.679 213.16
L411.049 209.956
L412.444 209.241
L419.419 206.582
L426.394 203.967
L427.789 203.148
L431.974 201.534
L438.949 198.921
L440.344 198.252
L441.739 197.728
L444.529 196.244
L448.714 194.563
L451.504 193.385
L459.874 190.213
L461.269 189.247
L462.664 188.533
L468.244 186.319
L471.034 185.156
L473.824 184
L475.219 183.464
L475.219 183.464" style="fill:none;stroke:#008000;stroke-linecap:square;"/>
   </g>
   <g id="line2d_10">
    <path clip-path="url(#p8c776b0f9c)" d="
M28.8194 368.642
L30.2144 367.974
L31.6094 366.911
L35.7944 365.227
L37.1894 363.95
L38.5844 363.389
L41.3744 362.004
L45.5594 360.253
L46.9544 359.214
L51.1394 357.403
L53.9294 356.235
L92.9894 340.447
L95.7794 339.243
L97.1744 338.689
L98.5694 337.8
L99.9644 337.242
L101.359 336.388
L116.704 330.333
L118.099 329.436
L119.494 328.874
L120.889 328.032
L130.654 324.112
L132.049 323.125
L139.024 320.299
L141.814 319.101
L147.394 316.872
L148.789 315.869
L151.579 314.668
L155.764 312.871
L166.924 308.411
L172.504 306.102
L173.899 305.174
L183.664 301.287
L185.059 300.743
L186.454 300.021
L192.034 297.809
L193.429 296.55
L196.219 295.448
L197.614 294.762
L203.194 292.449
L207.379 290.798
L208.774 289.955
L221.329 284.938
L222.724 283.6
L225.514 282.497
L226.909 281.726
L228.304 281.184
L229.699 280.392
L249.229 272.547
L250.624 271.418
L253.414 270.227
L254.809 269.676
L256.204 268.844
L257.599 268.281
L258.994 267.412
L264.574 265.221
L267.364 263.838
L271.549 262.182
L272.944 261.408
L277.129 259.75
L278.524 259.065
L295.264 252.4
L300.844 249.884
L303.634 248.226
L313.399 244.327
L314.794 243.535
L337.114 234.632
L338.509 233.927
L339.904 233.367
L341.299 232.471
L345.484 230.809
L346.879 230.05
L353.854 227.286
L355.249 226.445
L362.224 223.677
L365.014 222.343
L374.779 218.438
L376.174 217.688
L384.544 214.276
L385.939 213.561
L392.914 210.733
L395.704 209.511
L401.284 207.268
L402.679 206.587
L406.864 204.843
L408.259 204.079
L409.654 203.533
L411.049 202.841
L424.999 197.225
L444.529 189.335
L448.714 187.474
L450.109 186.621
L452.899 185.518
L454.294 184.482
L459.874 182.25
L461.269 181.288
L475.219 175.738
L475.219 175.738" style="fill:none;stroke:#ff0000;stroke-linecap:square;"/>
   </g>
   <g id="line2d_11">
    <path clip-path="url(#p8c776b0f9c)" d="
M28.8194 368.63
L30.2144 366.656
L31.6094 364.102
L33.0044 363.487
L34.3994 362.74
L37.1894 361.439
L52.5344 354.473
L55.3244 353.246
L56.7194 352.294
L63.6944 349.238
L67.8794 347.432
L69.2744 346.635
L74.8544 344.242
L76.2494 343.411
L80.4344 341.609
L81.8294 340.531
L84.6194 339.242
L87.4094 338.029
L88.8044 337.292
L90.1994 336.415
L99.9644 332.084
L101.359 331.208
L115.309 325.205
L118.099 323.996
L120.889 322.215
L123.679 320.864
L132.049 317.199
L133.444 316.436
L145.999 310.93
L147.394 309.871
L148.789 309.106
L155.764 306.074
L157.159 305.163
L173.899 297.892
L175.294 297.005
L178.084 295.683
L185.059 292.665
L186.454 291.804
L187.849 291.188
L189.244 289.732
L199.009 285.487
L205.984 282.453
L207.379 281.369
L210.169 280.159
L211.564 279.152
L212.959 278.546
L214.354 277.705
L217.144 276.491
L218.539 275.587
L243.649 264.575
L246.439 263.26
L264.574 255.233
L268.759 253.307
L270.154 252.709
L272.944 251.092
L281.314 247.452
L284.104 246.087
L289.684 243.458
L291.079 242.509
L298.054 239.442
L303.634 236.714
L306.424 235.483
L307.819 234.494
L310.609 233.281
L312.004 232.461
L316.189 230.659
L318.979 228.996
L324.559 226.525
L328.744 224.721
L330.139 223.962
L332.929 222.758
L335.719 221.249
L337.114 220.638
L338.509 219.838
L346.879 216.243
L348.274 214.511
L355.249 211.184
L356.644 210.217
L376.174 201.603
L377.569 200.778
L380.359 199.569
L381.754 198.636
L392.914 193.846
L395.704 192.521
L401.284 190.091
L404.074 188.69
L411.049 185.55
L413.839 184.238
L415.234 183.272
L443.134 171.155
L444.529 170.248
L445.924 169.647
L447.319 168.703
L458.479 163.83
L459.874 163.16
L462.664 160.871
L471.034 157.125
L473.824 155.547
L475.219 154.95
L475.219 154.95" style="fill:none;stroke:#00bfbf;stroke-linecap:square;"/>
   </g>
   <g id="line2d_12">
    <path clip-path="url(#p8c776b0f9c)" d="
M28.8194 368.629
L30.2144 366.538
L33.0044 365.174
L34.3994 364.056
L37.1894 362.527
L46.9544 357.469
L51.1394 354.527
L56.7194 351.756
L58.1144 350.857
L63.6944 347.961
L65.0894 347.086
L67.8794 345.084
L69.2744 344.374
L72.0644 342.535
L73.4594 341.603
L74.8544 340.817
L76.2494 339.885
L77.6444 339.166
L79.0394 338.147
L83.2244 335.975
L86.0144 334.523
L87.4094 333.813
L88.8044 332.872
L90.1994 331.787
L97.1744 328.04
L105.544 323.81
L106.939 322.954
L115.309 318.692
L119.494 316.397
L123.679 314.257
L125.074 313.452
L127.864 311.41
L132.049 309.271
L133.444 308.398
L139.024 305.586
L148.789 300.229
L161.344 293.391
L162.739 292.234
L168.319 289.326
L169.714 288.293
L173.899 286.131
L178.084 284.005
L179.479 283.172
L183.664 281.025
L185.059 279.707
L189.244 277.231
L197.614 272.912
L200.404 271.356
L201.799 270.37
L204.589 268.958
L205.984 268.042
L207.379 267.321
L208.774 266.216
L210.169 265.337
L212.959 263.909
L214.354 262.768
L218.539 260.535
L222.724 258.119
L228.304 254.964
L229.699 254.087
L236.674 250.444
L238.069 249.564
L239.464 248.854
L240.859 247.943
L245.044 245.783
L247.834 244.291
L252.019 242.095
L254.809 240.531
L256.204 239.5
L264.574 235.1
L267.364 233.434
L268.759 232.229
L271.549 230.802
L272.944 229.788
L275.734 228.375
L284.104 223.339
L288.289 221.204
L289.684 220.232
L295.264 217.314
L296.659 216.562
L299.449 214.33
L300.844 213.614
L302.239 212.714
L303.634 211.99
L306.424 210.17
L310.609 207.999
L313.399 206.343
L314.794 205.634
L316.189 204.707
L317.584 203.549
L320.374 202.019
L323.164 200.379
L324.559 199.392
L325.954 198.688
L327.349 197.622
L341.299 190.377
L342.694 189.379
L346.879 187.253
L348.274 186.341
L358.039 181.296
L359.434 180.322
L363.619 178.172
L365.014 177.306
L369.199 175.183
L370.594 173.869
L377.569 170.244
L378.964 169.313
L388.729 164.402
L390.124 162.885
L391.519 162.054
L401.284 157.121
L402.679 156.263
L409.654 152.659
L411.049 151.761
L412.444 151.068
L413.839 150.058
L420.814 146.5
L423.604 144.979
L426.394 143.495
L429.184 141.625
L436.159 137.983
L437.554 137.121
L443.134 134.289
L447.319 131.725
L450.109 130.316
L451.504 129.283
L457.084 126.463
L461.269 123.996
L465.454 121.523
L475.219 116.436
L475.219 116.436" style="fill:none;stroke:#bf00bf;stroke-linecap:square;"/>
   </g>
   <g id="line2d_13">
    <path clip-path="url(#p8c776b0f9c)" d="
M28.8194 368.642
L30.2144 365.426
L35.7944 362.099
L37.1894 361.126
L38.5844 360.326
L39.9794 359.121
L45.5594 356.032
L46.9544 354.812
L49.7444 353.25
L51.1394 352.302
L52.5344 351.106
L55.3244 349.564
L56.7194 348.557
L58.1144 347.377
L65.0894 343.294
L67.8794 341.569
L72.0644 339.088
L74.8544 337.12
L76.2494 336.327
L77.6444 335.395
L79.0394 334.13
L81.8294 332.439
L84.6194 330.754
L91.5944 326.677
L94.3844 324.929
L95.7794 324.136
L97.1744 323.213
L102.754 320.018
L104.149 319.008
L105.544 317.849
L122.284 308.044
L123.679 306.723
L130.654 302.735
L132.049 301.748
L140.419 296.995
L144.604 294.175
L145.999 293.113
L147.394 292.319
L150.184 290.154
L152.974 288.567
L155.764 286.443
L158.554 284.803
L159.949 283.497
L161.344 282.708
L162.739 281.634
L165.529 280.062
L166.924 278.645
L178.084 272.161
L180.874 270.419
L183.664 268.823
L185.059 267.807
L192.034 263.743
L193.429 262.412
L199.009 259.075
L200.404 257.808
L205.984 254.598
L207.379 253.559
L210.169 251.926
L211.564 250.903
L212.959 249.66
L215.749 248.085
L217.144 247.078
L221.329 244.497
L224.119 242.752
L226.909 241.123
L228.304 240.122
L232.489 237.645
L233.884 236.68
L247.834 228.699
L249.229 227.646
L253.414 225.225
L254.809 224.081
L260.389 220.445
L264.574 218.018
L265.969 217.109
L267.364 216.033
L268.759 215.24
L272.944 212.415
L277.129 210.035
L279.919 208.309
L282.709 206.744
L284.104 205.437
L285.499 204.647
L286.894 203.585
L288.289 202.785
L289.684 201.816
L291.079 200.493
L293.869 198.921
L295.264 197.972
L296.659 197.189
L298.054 196.206
L302.239 193.744
L312.004 187.527
L316.189 185.017
L317.584 183.764
L325.954 178.792
L328.744 176.828
L334.324 173.497
L344.089 167.868
L345.484 166.835
L352.459 162.57
L358.039 159.268
L362.224 156.605
L363.619 155.278
L367.804 152.824
L370.594 151.215
L371.989 150.163
L380.359 145.306
L385.939 142.128
L394.309 137.338
L398.494 134.187
L401.284 132.388
L402.679 131.414
L406.864 129.018
L408.259 127.741
L409.654 126.931
L411.049 125.887
L415.234 123.516
L416.629 122.465
L422.209 119.211
L431.974 113.242
L433.369 112.458
L434.764 111.235
L437.554 109.521
L443.134 106.232
L459.874 96.5011
L461.269 95.5161
L462.664 94.7289
L464.059 93.4464
L465.454 92.6419
L468.244 90.7104
L472.429 88.0205
L473.824 86.8646
L475.219 86.0736
L475.219 86.0736" style="fill:none;stroke:#bfbf00;stroke-linecap:square;"/>
   </g>
   <g id="line2d_14">
    <path clip-path="url(#p8c776b0f9c)" d="
M28.8194 368.625
L30.2144 366.175
L33.0044 364.53
L34.3994 361.533
L38.5844 358.896
L39.9794 357.482
L46.9544 353.014
L51.1394 350.018
L52.5344 348.784
L53.9294 347.962
L55.3244 346.94
L56.7194 346.085
L59.5094 343.844
L66.4844 339.639
L70.6694 336.291
L72.0644 335.463
L73.4594 328.618
L74.8544 327.398
L77.6444 325.729
L79.0394 324.626
L83.2244 322.095
L84.6194 320.685
L87.4094 318.91
L92.9894 315.265
L97.1744 312.764
L102.754 308.988
L104.149 307.893
L111.124 303.693
L112.519 302.689
L115.309 301.042
L116.704 299.865
L120.889 297.303
L123.679 295.296
L127.864 292.682
L133.444 288.962
L151.579 277.624
L152.974 276.747
L155.764 274.741
L159.949 272.144
L164.134 269.195
L171.109 264.871
L172.504 263.659
L173.899 262.798
L175.294 261.477
L176.689 260.323
L178.084 259.478
L179.479 258.158
L183.664 255.611
L185.059 254.541
L192.034 250.261
L196.219 247.118
L199.009 245.463
L210.169 237.662
L215.749 234.259
L219.934 231.163
L221.329 230.335
L222.724 229.241
L225.514 227.559
L226.909 226.52
L228.304 225.676
L229.699 224.537
L232.489 222.851
L233.884 221.575
L238.069 218.747
L239.464 217.574
L242.254 215.806
L245.044 214.128
L247.834 212.115
L249.229 211.275
L250.624 209.912
L258.994 204.674
L270.154 197.927
L271.549 196.932
L272.944 196.096
L274.339 195.045
L279.919 191.687
L281.314 190.7
L285.499 188.179
L286.894 187.138
L289.684 185.459
L291.079 184.423
L293.869 182.745
L295.264 181.796
L296.659 180.684
L298.054 179.842
L299.449 178.849
L302.239 177.158
L303.634 175.991
L310.609 171.702
L312.004 170.707
L314.794 168.983
L317.584 167.148
L323.164 163.811
L324.559 162.77
L328.744 160.18
L332.929 157.615
L346.879 148.992
L348.274 147.982
L355.249 143.752
L356.644 142.6
L365.014 137.324
L366.409 135.917
L369.199 134.237
L370.594 132.545
L374.779 129.917
L377.569 128.049
L378.964 126.979
L388.729 121.071
L394.309 117.648
L395.704 116.652
L399.889 114.109
L402.679 112.082
L408.259 108.499
L409.654 107.484
L413.839 103.876
L418.024 101.34
L419.419 100.218
L422.209 98.5497
L423.604 97.5014
L430.579 93.239
L434.764 90.1017
L441.739 85.8585
L443.134 84.6605
L448.714 81.2006
L451.504 79.4515
L452.899 78.2784
L455.689 76.5619
L458.479 74.7763
L464.059 71.3625
L466.849 69.6902
L469.639 66.9773
L475.219 63.479
L475.219 63.479" style="fill:none;stroke:#000000;stroke-linecap:square;"/>
   </g>
   <g id="line2d_15">
    <path clip-path="url(#p8c776b0f9c)" d="
M28.8194 368.585
L30.2144 367.452
L33.0044 365.793
L34.3994 364.72
L38.5844 362.094
L44.1644 358.578
L48.3494 356.026
L59.5094 348.876
L69.2744 342.501
L72.0644 340.407
L73.4594 339.024
L84.6194 331.728
L87.4094 329.965
L88.8044 328.883
L104.149 319.096
L106.939 317.049
L112.519 313.543
L115.309 311.411
L118.099 309.556
L134.839 298.86
L136.234 297.82
L145.999 291.64
L147.394 290.613
L151.579 288.007
L155.764 285.096
L162.739 280.685
L165.529 278.866
L173.899 273.513
L175.294 272.414
L178.084 270.654
L179.479 269.536
L185.059 265.998
L186.454 264.881
L199.009 256.803
L200.404 255.778
L203.194 254.017
L205.984 252.113
L211.564 248.574
L212.959 247.106
L214.354 245.956
L222.724 240.552
L246.439 225.365
L253.414 220.887
L261.784 215.612
L263.179 214.541
L264.574 213.669
L268.759 210.495
L270.154 209.618
L272.944 207.718
L275.734 205.869
L277.129 204.921
L278.524 203.775
L279.919 202.462
L282.709 200.731
L284.104 199.407
L291.079 194.961
L296.659 191.262
L312.004 181.536
L314.794 179.471
L318.979 176.817
L320.374 175.498
L321.769 174.38
L328.744 169.926
L331.534 168.052
L332.929 166.562
L338.509 163.031
L339.904 161.875
L344.089 159.274
L345.484 158.131
L346.879 157.26
L348.274 156.163
L349.669 155.268
L351.064 154.222
L356.644 150.689
L360.829 147.635
L362.224 146.709
L363.619 145.548
L369.199 142.017
L370.594 140.824
L377.569 136.381
L378.964 134.613
L380.359 133.16
L399.889 120.755
L401.284 119.843
L402.679 118.748
L404.074 117.832
L406.864 115.82
L411.049 113.18
L412.444 112.105
L422.209 105.944
L423.604 104.918
L429.184 101.355
L430.579 99.8745
L434.764 96.7584
L436.159 95.5833
L438.949 93.7286
L443.134 91.008
L450.109 86.5056
L451.504 85.1577
L452.899 84.0173
L459.874 79.4822
L464.059 76.6809
L466.849 74.7302
L469.639 72.8025
L472.429 70.8115
L475.219 68.976
L475.219 68.976" style="fill:none;stroke:#0000ff;stroke-linecap:square;"/>
   </g>
   <g id="line2d_16">
    <path clip-path="url(#p8c776b0f9c)" d="
M28.8194 368.608
L30.2144 366.609
L33.0044 364.869
L34.3994 363.685
L38.5844 360.913
L39.9794 359.444
L44.1644 356.61
L46.9544 354.694
L49.7444 352.86
L51.1394 351.906
L52.5344 350.8
L53.9294 349.913
L56.7194 347.253
L66.4844 340.788
L67.8794 339.646
L72.0644 336.921
L73.4594 335.865
L80.4344 331.316
L84.6194 328.303
L86.0144 327.407
L87.4094 326.051
L88.8044 324.877
L92.9894 322.138
L94.3844 320.796
L95.7794 319.728
L97.1744 318.807
L98.5694 317.616
L102.754 314.872
L104.149 313.724
L106.939 311.813
L111.124 309.047
L112.519 307.827
L119.494 303.182
L123.679 299.893
L133.444 293.34
L134.839 292.154
L147.394 283.737
L150.184 281.932
L152.974 279.587
L158.554 275.824
L159.949 274.647
L165.529 270.768
L169.714 268.024
L171.109 266.743
L176.689 262.987
L178.084 261.95
L179.479 259.911
L180.874 258.996
L182.269 257.938
L183.664 256.67
L196.219 248.116
L199.009 245.885
L201.799 244.042
L203.194 242.408
L204.589 241.504
L205.984 240.251
L210.169 237.457
L211.564 236.242
L212.959 235.19
L219.934 230.551
L221.329 229.487
L224.119 227.667
L225.514 226.229
L228.304 224.381
L229.699 223.172
L231.094 221.621
L246.439 211.449
L247.834 210.305
L254.809 205.426
L256.204 204.524
L261.784 200.114
L272.944 192.626
L274.339 191.219
L278.524 188.5
L279.919 187.115
L285.499 183.431
L296.659 175.905
L298.054 174.781
L303.634 171.155
L306.424 168.893
L310.609 166.034
L316.189 162.282
L317.584 160.752
L321.769 158.031
L323.164 156.902
L324.559 154.193
L328.744 151.459
L331.534 149.19
L332.929 147.919
L335.719 146.093
L339.904 142.898
L342.694 141.085
L345.484 138.958
L346.879 137.9
L351.064 135.049
L355.249 132.263
L358.039 130.301
L365.014 125.748
L366.409 124.522
L374.779 119.032
L376.174 117.873
L380.359 114.989
L385.939 111.266
L388.729 109.344
L390.124 108.436
L391.519 107.251
L392.914 105.66
L397.099 102.835
L398.494 101.345
L399.889 100.435
L402.679 98.2061
L411.049 92.4153
L412.444 91.2518
L413.839 90.3321
L415.234 89.2704
L416.629 88.3565
L422.209 84.1901
L424.999 82.3853
L426.394 81.2813
L430.579 78.407
L433.369 76.5043
L434.764 75.168
L436.159 74.1177
L437.554 73.2153
L438.949 71.9865
L441.739 70.1549
L443.134 68.9453
L444.529 68.0313
L445.924 66.8525
L457.084 59.5104
L458.479 58.4313
L464.059 54.7238
L465.454 53.6467
L471.034 49.8835
L472.429 48.6739
L475.219 46.8576
L475.219 46.8576" style="fill:none;stroke:#008000;stroke-linecap:square;"/>
   </g>
   <g id="patch_3">
    <path d="
M28.8194 23.1417
L475.219 23.1417" style="fill:none;stroke:#000000;stroke-linecap:square;stroke-linejoin:miter;"/>
   </g>
   <g id="patch_4">
    <path d="
M475.219 368.742
L475.219 23.1417" style="fill:none;stroke:#000000;stroke-linecap:square;stroke-linejoin:miter;"/>
   </g>
   <g id="patch_5">
    <path d="
M28.8194 368.742
L475.219 368.742" style="fill:none;stroke:#000000;stroke-linecap:square;stroke-linejoin:miter;"/>
   </g>
   <g id="patch_6">
    <path d="
M28.8194 368.742
L28.8194 23.1417" style="fill:none;stroke:#000000;stroke-linecap:square;stroke-linejoin:miter;"/>
   </g>
   <g id="matplotlib.axis_1">
    <g id="xtick_1">
     <g id="line2d_17">
      <defs>
       <path d="
M0 0
L0 -4" id="m93b0483c22" style="stroke:#000000;stroke-width:0.5;"/>
      </defs>
      <g>
       <use style="stroke:#000000;stroke-width:0.5;" x="28.819375" xlink:href="#m93b0483c22" y="368.74175"/>
      </g>
     </g>
     <g id="line2d_18">
      <defs>
       <path d="
M0 0
L0 4" id="m741efc42ff" style="stroke:#000000;stroke-width:0.5;"/>
      </defs>
      <g>
       <use style="stroke:#000000;stroke-width:0.5;" x="28.819375" xlink:href="#m741efc42ff" y="23.14175"/>
      </g>
     </g>
     <g id="text_1">
      <!-- 0 -->
      <defs>
       <path d="
M31.7812 66.4062
Q24.1719 66.4062 20.3281 58.9062
Q16.5 51.4219 16.5 36.375
Q16.5 21.3906 20.3281 13.8906
Q24.1719 6.39062 31.7812 6.39062
Q39.4531 6.39062 43.2812 13.8906
Q47.125 21.3906 47.125 36.375
Q47.125 51.4219 43.2812 58.9062
Q39.4531 66.4062 31.7812 66.4062
M31.7812 74.2188
Q44.0469 74.2188 50.5156 64.5156
Q56.9844 54.8281 56.9844 36.375
Q56.9844 17.9688 50.5156 8.26562
Q44.0469 -1.42188 31.7812 -1.42188
Q19.5312 -1.42188 13.0625 8.26562
Q6.59375 17.9688 6.59375 36.375
Q6.59375 54.8281 13.0625 64.5156
Q19.5312 74.2188 31.7812 74.2188" id="DejaVuSans-30"/>
      </defs>
      <g transform="translate(25.7959375 381.859875)scale(0.12 -0.12)">
       <use xlink:href="#DejaVuSans-30"/>
      </g>
     </g>
    </g>
    <g id="xtick_2">
     <g id="line2d_19">
      <g>
       <use style="stroke:#000000;stroke-width:0.5;" x="98.569375" xlink:href="#m93b0483c22" y="368.74175"/>
      </g>
     </g>
     <g id="line2d_20">
      <g>
       <use style="stroke:#000000;stroke-width:0.5;" x="98.569375" xlink:href="#m741efc42ff" y="23.14175"/>
      </g>
     </g>
     <g id="text_2">
      <!-- 50 -->
      <defs>
       <path d="
M10.7969 72.9062
L49.5156 72.9062
L49.5156 64.5938
L19.8281 64.5938
L19.8281 46.7344
Q21.9688 47.4688 24.1094 47.8281
Q26.2656 48.1875 28.4219 48.1875
Q40.625 48.1875 47.75 41.5
Q54.8906 34.8125 54.8906 23.3906
Q54.8906 11.625 47.5625 5.09375
Q40.2344 -1.42188 26.9062 -1.42188
Q22.3125 -1.42188 17.5469 -0.640625
Q12.7969 0.140625 7.71875 1.70312
L7.71875 11.625
Q12.1094 9.23438 16.7969 8.0625
Q21.4844 6.89062 26.7031 6.89062
Q35.1562 6.89062 40.0781 11.3281
Q45.0156 15.7656 45.0156 23.3906
Q45.0156 31 40.0781 35.4375
Q35.1562 39.8906 26.7031 39.8906
Q22.75 39.8906 18.8125 39.0156
Q14.8906 38.1406 10.7969 36.2812
z
" id="DejaVuSans-35"/>
      </defs>
      <g transform="translate(91.7959375 381.859875)scale(0.12 -0.12)">
       <use xlink:href="#DejaVuSans-35"/>
       <use x="63.623046875" xlink:href="#DejaVuSans-30"/>
      </g>
     </g>
    </g>
    <g id="xtick_3">
     <g id="line2d_21">
      <g>
       <use style="stroke:#000000;stroke-width:0.5;" x="168.319375" xlink:href="#m93b0483c22" y="368.74175"/>
      </g>
     </g>
     <g id="line2d_22">
      <g>
       <use style="stroke:#000000;stroke-width:0.5;" x="168.319375" xlink:href="#m741efc42ff" y="23.14175"/>
      </g>
     </g>
     <g id="text_3">
      <!-- 100 -->
      <defs>
       <path d="
M12.4062 8.29688
L28.5156 8.29688
L28.5156 63.9219
L10.9844 60.4062
L10.9844 69.3906
L28.4219 72.9062
L38.2812 72.9062
L38.2812 8.29688
L54.3906 8.29688
L54.3906 0
L12.4062 0
z
" id="DejaVuSans-31"/>
      </defs>
      <g transform="translate(157.924375 381.859875)scale(0.12 -0.12)">
       <use xlink:href="#DejaVuSans-31"/>
       <use x="63.623046875" xlink:href="#DejaVuSans-30"/>
       <use x="127.24609375" xlink:href="#DejaVuSans-30"/>
      </g>
     </g>
    </g>
    <g id="xtick_4">
     <g id="line2d_23">
      <g>
       <use style="stroke:#000000;stroke-width:0.5;" x="238.069375" xlink:href="#m93b0483c22" y="368.74175"/>
      </g>
     </g>
     <g id="line2d_24">
      <g>
       <use style="stroke:#000000;stroke-width:0.5;" x="238.069375" xlink:href="#m741efc42ff" y="23.14175"/>
      </g>
     </g>
     <g id="text_4">
      <!-- 150 -->
      <g transform="translate(227.674375 381.859875)scale(0.12 -0.12)">
       <use xlink:href="#DejaVuSans-31"/>
       <use x="63.623046875" xlink:href="#DejaVuSans-35"/>
       <use x="127.24609375" xlink:href="#DejaVuSans-30"/>
      </g>
     </g>
    </g>
    <g id="xtick_5">
     <g id="line2d_25">
      <g>
       <use style="stroke:#000000;stroke-width:0.5;" x="307.819375" xlink:href="#m93b0483c22" y="368.74175"/>
      </g>
     </g>
     <g id="line2d_26">
      <g>
       <use style="stroke:#000000;stroke-width:0.5;" x="307.819375" xlink:href="#m741efc42ff" y="23.14175"/>
      </g>
     </g>
     <g id="text_5">
      <!-- 200 -->
      <defs>
       <path d="
M19.1875 8.29688
L53.6094 8.29688
L53.6094 0
L7.32812 0
L7.32812 8.29688
Q12.9375 14.1094 22.625 23.8906
Q32.3281 33.6875 34.8125 36.5312
Q39.5469 41.8438 41.4219 45.5312
Q43.3125 49.2188 43.3125 52.7812
Q43.3125 58.5938 39.2344 62.25
Q35.1562 65.9219 28.6094 65.9219
Q23.9688 65.9219 18.8125 64.3125
Q13.6719 62.7031 7.8125 59.4219
L7.8125 69.3906
Q13.7656 71.7812 18.9375 73
Q24.125 74.2188 28.4219 74.2188
Q39.75 74.2188 46.4844 68.5469
Q53.2188 62.8906 53.2188 53.4219
Q53.2188 48.9219 51.5312 44.8906
Q49.8594 40.875 45.4062 35.4062
Q44.1875 33.9844 37.6406 27.2188
Q31.1094 20.4531 19.1875 8.29688" id="DejaVuSans-32"/>
      </defs>
      <g transform="translate(297.205 381.859875)scale(0.12 -0.12)">
       <use xlink:href="#DejaVuSans-32"/>
       <use x="63.623046875" xlink:href="#DejaVuSans-30"/>
       <use x="127.24609375" xlink:href="#DejaVuSans-30"/>
      </g>
     </g>
    </g>
    <g id="xtick_6">
     <g id="line2d_27">
      <g>
       <use style="stroke:#000000;stroke-width:0.5;" x="377.569375" xlink:href="#m93b0483c22" y="368.74175"/>
      </g>
     </g>
     <g id="line2d_28">
      <g>
       <use style="stroke:#000000;stroke-width:0.5;" x="377.569375" xlink:href="#m741efc42ff" y="23.14175"/>
      </g>
     </g>
     <g id="text_6">
      <!-- 250 -->
      <g transform="translate(366.955 381.859875)scale(0.12 -0.12)">
       <use xlink:href="#DejaVuSans-32"/>
       <use x="63.623046875" xlink:href="#DejaVuSans-35"/>
       <use x="127.24609375" xlink:href="#DejaVuSans-30"/>
      </g>
     </g>
    </g>
    <g id="xtick_7">
     <g id="line2d_29">
      <g>
       <use style="stroke:#000000;stroke-width:0.5;" x="447.319375" xlink:href="#m93b0483c22" y="368.74175"/>
      </g>
     </g>
     <g id="line2d_30">
      <g>
       <use style="stroke:#000000;stroke-width:0.5;" x="447.319375" xlink:href="#m741efc42ff" y="23.14175"/>
      </g>
     </g>
     <g id="text_7">
      <!-- 300 -->
      <defs>
       <path d="
M40.5781 39.3125
Q47.6562 37.7969 51.625 33
Q55.6094 28.2188 55.6094 21.1875
Q55.6094 10.4062 48.1875 4.48438
Q40.7656 -1.42188 27.0938 -1.42188
Q22.5156 -1.42188 17.6562 -0.515625
Q12.7969 0.390625 7.625 2.20312
L7.625 11.7188
Q11.7188 9.32812 16.5938 8.10938
Q21.4844 6.89062 26.8125 6.89062
Q36.0781 6.89062 40.9375 10.5469
Q45.7969 14.2031 45.7969 21.1875
Q45.7969 27.6406 41.2812 31.2656
Q36.7656 34.9062 28.7188 34.9062
L20.2188 34.9062
L20.2188 43.0156
L29.1094 43.0156
Q36.375 43.0156 40.2344 45.9219
Q44.0938 48.8281 44.0938 54.2969
Q44.0938 59.9062 40.1094 62.9062
Q36.1406 65.9219 28.7188 65.9219
Q24.6562 65.9219 20.0156 65.0312
Q15.375 64.1562 9.8125 62.3125
L9.8125 71.0938
Q15.4375 72.6562 20.3438 73.4375
Q25.25 74.2188 29.5938 74.2188
Q40.8281 74.2188 47.3594 69.1094
Q53.9062 64.0156 53.9062 55.3281
Q53.9062 49.2656 50.4375 45.0938
Q46.9688 40.9219 40.5781 39.3125" id="DejaVuSans-33"/>
      </defs>
      <g transform="translate(436.7228125 381.859875)scale(0.12 -0.12)">
       <use xlink:href="#DejaVuSans-33"/>
       <use x="63.623046875" xlink:href="#DejaVuSans-30"/>
       <use x="127.24609375" xlink:href="#DejaVuSans-30"/>
      </g>
     </g>
    </g>
    <g id="text_8">
     <!-- time -->
     <defs>
      <path d="
M18.3125 70.2188
L18.3125 54.6875
L36.8125 54.6875
L36.8125 47.7031
L18.3125 47.7031
L18.3125 18.0156
Q18.3125 11.3281 20.1406 9.42188
Q21.9688 7.51562 27.5938 7.51562
L36.8125 7.51562
L36.8125 0
L27.5938 0
Q17.1875 0 13.2344 3.875
Q9.28125 7.76562 9.28125 18.0156
L9.28125 47.7031
L2.6875 47.7031
L2.6875 54.6875
L9.28125 54.6875
L9.28125 70.2188
z
" id="DejaVuSans-74"/>
      <path d="
M52 44.1875
Q55.375 50.25 60.0625 53.125
Q64.75 56 71.0938 56
Q79.6406 56 84.2812 50.0156
Q88.9219 44.0469 88.9219 33.0156
L88.9219 0
L79.8906 0
L79.8906 32.7188
Q79.8906 40.5781 77.0938 44.375
Q74.3125 48.1875 68.6094 48.1875
Q61.625 48.1875 57.5625 43.5469
Q53.5156 38.9219 53.5156 30.9062
L53.5156 0
L44.4844 0
L44.4844 32.7188
Q44.4844 40.625 41.7031 44.4062
Q38.9219 48.1875 33.1094 48.1875
Q26.2188 48.1875 22.1562 43.5312
Q18.1094 38.875 18.1094 30.9062
L18.1094 0
L9.07812 0
L9.07812 54.6875
L18.1094 54.6875
L18.1094 46.1875
Q21.1875 51.2188 25.4844 53.6094
Q29.7812 56 35.6875 56
Q41.6562 56 45.8281 52.9688
Q50 49.9531 52 44.1875" id="DejaVuSans-6d"/>
      <path d="
M56.2031 29.5938
L56.2031 25.2031
L14.8906 25.2031
Q15.4844 15.9219 20.4844 11.0625
Q25.4844 6.20312 34.4219 6.20312
Q39.5938 6.20312 44.4531 7.46875
Q49.3125 8.73438 54.1094 11.2812
L54.1094 2.78125
Q49.2656 0.734375 44.1875 -0.34375
Q39.1094 -1.42188 33.8906 -1.42188
Q20.7969 -1.42188 13.1562 6.1875
Q5.51562 13.8125 5.51562 26.8125
Q5.51562 40.2344 12.7656 48.1094
Q20.0156 56 32.3281 56
Q43.3594 56 49.7812 48.8906
Q56.2031 41.7969 56.2031 29.5938
M47.2188 32.2344
Q47.125 39.5938 43.0938 43.9844
Q39.0625 48.3906 32.4219 48.3906
Q24.9062 48.3906 20.3906 44.1406
Q15.875 39.8906 15.1875 32.1719
z
" id="DejaVuSans-65"/>
      <path d="
M9.42188 54.6875
L18.4062 54.6875
L18.4062 0
L9.42188 0
z

M9.42188 75.9844
L18.4062 75.9844
L18.4062 64.5938
L9.42188 64.5938
z
" id="DejaVuSans-69"/>
     </defs>
     <g transform="translate(238.945 398.473625)scale(0.12 -0.12)">
      <use xlink:href="#DejaVuSans-74"/>
      <use x="39.208984375" xlink:href="#DejaVuSans-69"/>
      <use x="66.9921875" xlink:href="#DejaVuSans-6d"/>
      <use x="164.404296875" xlink:href="#DejaVuSans-65"/>
     </g>
    </g>
   </g>
   <g id="matplotlib.axis_2">
    <g id="ytick_1">
     <g id="line2d_31">
      <defs>
       <path d="
M0 0
L4 0" id="m728421d6d4" style="stroke:#000000;stroke-width:0.5;"/>
      </defs>
      <g>
       <use style="stroke:#000000;stroke-width:0.5;" x="28.819375" xlink:href="#m728421d6d4" y="368.74175"/>
      </g>
     </g>
     <g id="line2d_32">
      <defs>
       <path d="
M0 0
L-4 0" id="mcb0005524f" style="stroke:#000000;stroke-width:0.5;"/>
      </defs>
      <g>
       <use style="stroke:#000000;stroke-width:0.5;" x="475.219375" xlink:href="#mcb0005524f" y="368.74175"/>
      </g>
     </g>
     <g id="text_9">
      <!-- 0.0 -->
      <defs>
       <path d="
M10.6875 12.4062
L21 12.4062
L21 0
L10.6875 0
z
" id="DejaVuSans-2e"/>
      </defs>
      <g transform="translate(7.32375 372.053)scale(0.12 -0.12)">
       <use xlink:href="#DejaVuSans-30"/>
       <use x="63.623046875" xlink:href="#DejaVuSans-2e"/>
       <use x="95.41015625" xlink:href="#DejaVuSans-30"/>
      </g>
     </g>
    </g>
    <g id="ytick_2">
     <g id="line2d_33">
      <g>
       <use style="stroke:#000000;stroke-width:0.5;" x="28.819375" xlink:href="#m728421d6d4" y="330.34175"/>
      </g>
     </g>
     <g id="line2d_34">
      <g>
       <use style="stroke:#000000;stroke-width:0.5;" x="475.219375" xlink:href="#mcb0005524f" y="330.34175"/>
      </g>
     </g>
     <g id="text_10">
      <!-- 0.2 -->
      <g transform="translate(7.72875 333.653)scale(0.12 -0.12)">
       <use xlink:href="#DejaVuSans-30"/>
       <use x="63.623046875" xlink:href="#DejaVuSans-2e"/>
       <use x="95.41015625" xlink:href="#DejaVuSans-32"/>
      </g>
     </g>
    </g>
    <g id="ytick_3">
     <g id="line2d_35">
      <g>
       <use style="stroke:#000000;stroke-width:0.5;" x="28.819375" xlink:href="#m728421d6d4" y="291.94175"/>
      </g>
     </g>
     <g id="line2d_36">
      <g>
       <use style="stroke:#000000;stroke-width:0.5;" x="475.219375" xlink:href="#mcb0005524f" y="291.94175"/>
      </g>
     </g>
     <g id="text_11">
      <!-- 0.4 -->
      <defs>
       <path d="
M37.7969 64.3125
L12.8906 25.3906
L37.7969 25.3906
z

M35.2031 72.9062
L47.6094 72.9062
L47.6094 25.3906
L58.0156 25.3906
L58.0156 17.1875
L47.6094 17.1875
L47.6094 0
L37.7969 0
L37.7969 17.1875
L4.89062 17.1875
L4.89062 26.7031
z
" id="DejaVuSans-34"/>
      </defs>
      <g transform="translate(7.2 295.253)scale(0.12 -0.12)">
       <use xlink:href="#DejaVuSans-30"/>
       <use x="63.623046875" xlink:href="#DejaVuSans-2e"/>
       <use x="95.41015625" xlink:href="#DejaVuSans-34"/>
      </g>
     </g>
    </g>
    <g id="ytick_4">
     <g id="line2d_37">
      <g>
       <use style="stroke:#000000;stroke-width:0.5;" x="28.819375" xlink:href="#m728421d6d4" y="253.54175"/>
      </g>
     </g>
     <g id="line2d_38">
      <g>
       <use style="stroke:#000000;stroke-width:0.5;" x="475.219375" xlink:href="#mcb0005524f" y="253.54175"/>
      </g>
     </g>
     <g id="text_12">
      <!-- 0.6 -->
      <defs>
       <path d="
M33.0156 40.375
Q26.375 40.375 22.4844 35.8281
Q18.6094 31.2969 18.6094 23.3906
Q18.6094 15.5312 22.4844 10.9531
Q26.375 6.39062 33.0156 6.39062
Q39.6562 6.39062 43.5312 10.9531
Q47.4062 15.5312 47.4062 23.3906
Q47.4062 31.2969 43.5312 35.8281
Q39.6562 40.375 33.0156 40.375
M52.5938 71.2969
L52.5938 62.3125
Q48.875 64.0625 45.0938 64.9844
Q41.3125 65.9219 37.5938 65.9219
Q27.8281 65.9219 22.6719 59.3281
Q17.5312 52.7344 16.7969 39.4062
Q19.6719 43.6562 24.0156 45.9219
Q28.375 48.1875 33.5938 48.1875
Q44.5781 48.1875 50.9531 41.5156
Q57.3281 34.8594 57.3281 23.3906
Q57.3281 12.1562 50.6875 5.35938
Q44.0469 -1.42188 33.0156 -1.42188
Q20.3594 -1.42188 13.6719 8.26562
Q6.98438 17.9688 6.98438 36.375
Q6.98438 53.6562 15.1875 63.9375
Q23.3906 74.2188 37.2031 74.2188
Q40.9219 74.2188 44.7031 73.4844
Q48.4844 72.75 52.5938 71.2969" id="DejaVuSans-36"/>
      </defs>
      <g transform="translate(7.2825 256.853)scale(0.12 -0.12)">
       <use xlink:href="#DejaVuSans-30"/>
       <use x="63.623046875" xlink:href="#DejaVuSans-2e"/>
       <use x="95.41015625" xlink:href="#DejaVuSans-36"/>
      </g>
     </g>
    </g>
    <g id="ytick_5">
     <g id="line2d_39">
      <g>
       <use style="stroke:#000000;stroke-width:0.5;" x="28.819375" xlink:href="#m728421d6d4" y="215.14175"/>
      </g>
     </g>
     <g id="line2d_40">
      <g>
       <use style="stroke:#000000;stroke-width:0.5;" x="475.219375" xlink:href="#mcb0005524f" y="215.14175"/>
      </g>
     </g>
     <g id="text_13">
      <!-- 0.8 -->
      <defs>
       <path d="
M31.7812 34.625
Q24.75 34.625 20.7188 30.8594
Q16.7031 27.0938 16.7031 20.5156
Q16.7031 13.9219 20.7188 10.1562
Q24.75 6.39062 31.7812 6.39062
Q38.8125 6.39062 42.8594 10.1719
Q46.9219 13.9688 46.9219 20.5156
Q46.9219 27.0938 42.8906 30.8594
Q38.875 34.625 31.7812 34.625
M21.9219 38.8125
Q15.5781 40.375 12.0312 44.7188
Q8.5 49.0781 8.5 55.3281
Q8.5 64.0625 14.7188 69.1406
Q20.9531 74.2188 31.7812 74.2188
Q42.6719 74.2188 48.875 69.1406
Q55.0781 64.0625 55.0781 55.3281
Q55.0781 49.0781 51.5312 44.7188
Q48 40.375 41.7031 38.8125
Q48.8281 37.1562 52.7969 32.3125
Q56.7812 27.4844 56.7812 20.5156
Q56.7812 9.90625 50.3125 4.23438
Q43.8438 -1.42188 31.7812 -1.42188
Q19.7344 -1.42188 13.25 4.23438
Q6.78125 9.90625 6.78125 20.5156
Q6.78125 27.4844 10.7812 32.3125
Q14.7969 37.1562 21.9219 38.8125
M18.3125 54.3906
Q18.3125 48.7344 21.8438 45.5625
Q25.3906 42.3906 31.7812 42.3906
Q38.1406 42.3906 41.7188 45.5625
Q45.3125 48.7344 45.3125 54.3906
Q45.3125 60.0625 41.7188 63.2344
Q38.1406 66.4062 31.7812 66.4062
Q25.3906 66.4062 21.8438 63.2344
Q18.3125 60.0625 18.3125 54.3906" id="DejaVuSans-38"/>
      </defs>
      <g transform="translate(7.348125 218.453)scale(0.12 -0.12)">
       <use xlink:href="#DejaVuSans-30"/>
       <use x="63.623046875" xlink:href="#DejaVuSans-2e"/>
       <use x="95.41015625" xlink:href="#DejaVuSans-38"/>
      </g>
     </g>
    </g>
    <g id="ytick_6">
     <g id="line2d_41">
      <g>
       <use style="stroke:#000000;stroke-width:0.5;" x="28.819375" xlink:href="#m728421d6d4" y="176.74175"/>
      </g>
     </g>
     <g id="line2d_42">
      <g>
       <use style="stroke:#000000;stroke-width:0.5;" x="475.219375" xlink:href="#mcb0005524f" y="176.74175"/>
      </g>
     </g>
     <g id="text_14">
      <!-- 1.0 -->
      <g transform="translate(7.850625 180.053)scale(0.12 -0.12)">
       <use xlink:href="#DejaVuSans-31"/>
       <use x="63.623046875" xlink:href="#DejaVuSans-2e"/>
       <use x="95.41015625" xlink:href="#DejaVuSans-30"/>
      </g>
     </g>
    </g>
    <g id="ytick_7">
     <g id="line2d_43">
      <g>
       <use style="stroke:#000000;stroke-width:0.5;" x="28.819375" xlink:href="#m728421d6d4" y="138.34175"/>
      </g>
     </g>
     <g id="line2d_44">
      <g>
       <use style="stroke:#000000;stroke-width:0.5;" x="475.219375" xlink:href="#mcb0005524f" y="138.34175"/>
      </g>
     </g>
     <g id="text_15">
      <!-- 1.2 -->
      <g transform="translate(8.255625 141.653)scale(0.12 -0.12)">
       <use xlink:href="#DejaVuSans-31"/>
       <use x="63.623046875" xlink:href="#DejaVuSans-2e"/>
       <use x="95.41015625" xlink:href="#DejaVuSans-32"/>
      </g>
     </g>
    </g>
    <g id="ytick_8">
     <g id="line2d_45">
      <g>
       <use style="stroke:#000000;stroke-width:0.5;" x="28.819375" xlink:href="#m728421d6d4" y="99.94175"/>
      </g>
     </g>
     <g id="line2d_46">
      <g>
       <use style="stroke:#000000;stroke-width:0.5;" x="475.219375" xlink:href="#mcb0005524f" y="99.94175"/>
      </g>
     </g>
     <g id="text_16">
      <!-- 1.4 -->
      <g transform="translate(7.726875 103.253)scale(0.12 -0.12)">
       <use xlink:href="#DejaVuSans-31"/>
       <use x="63.623046875" xlink:href="#DejaVuSans-2e"/>
       <use x="95.41015625" xlink:href="#DejaVuSans-34"/>
      </g>
     </g>
    </g>
    <g id="ytick_9">
     <g id="line2d_47">
      <g>
       <use style="stroke:#000000;stroke-width:0.5;" x="28.819375" xlink:href="#m728421d6d4" y="61.54175"/>
      </g>
     </g>
     <g id="line2d_48">
      <g>
       <use style="stroke:#000000;stroke-width:0.5;" x="475.219375" xlink:href="#mcb0005524f" y="61.54175"/>
      </g>
     </g>
     <g id="text_17">
      <!-- 1.6 -->
      <g transform="translate(7.809375 64.853)scale(0.12 -0.12)">
       <use xlink:href="#DejaVuSans-31"/>
       <use x="63.623046875" xlink:href="#DejaVuSans-2e"/>
       <use x="95.41015625" xlink:href="#DejaVuSans-36"/>
      </g>
     </g>
    </g>
    <g id="ytick_10">
     <g id="line2d_49">
      <g>
       <use style="stroke:#000000;stroke-width:0.5;" x="28.819375" xlink:href="#m728421d6d4" y="23.14175"/>
      </g>
     </g>
     <g id="line2d_50">
      <g>
       <use style="stroke:#000000;stroke-width:0.5;" x="475.219375" xlink:href="#mcb0005524f" y="23.14175"/>
      </g>
     </g>
     <g id="text_18">
      <!-- 1.8 -->
      <g transform="translate(7.875 26.453)scale(0.12 -0.12)">
       <use xlink:href="#DejaVuSans-31"/>
       <use x="63.623046875" xlink:href="#DejaVuSans-2e"/>
       <use x="95.41015625" xlink:href="#DejaVuSans-38"/>
      </g>
     </g>
    </g>
    <g id="text_19">
     <!-- 1e11 -->
     <g transform="translate(28.819375 20.14175)scale(0.12 -0.12)">
      <use xlink:href="#DejaVuSans-31"/>
      <use x="63.623046875" xlink:href="#DejaVuSans-65"/>
      <use x="125.146484375" xlink:href="#DejaVuSans-31"/>
      <use x="188.76953125" xlink:href="#DejaVuSans-31"/>
     </g>
    </g>
   </g>
   <g id="text_20">
    <!-- /agas/primary/time -->
    <defs>
     <path d="
M25.3906 72.9062
L33.6875 72.9062
L8.29688 -9.28125
L0 -9.28125
z
" id="DejaVuSans-2f"/>
     <path d="
M32.1719 -5.07812
Q28.375 -14.8438 24.75 -17.8125
Q21.1406 -20.7969 15.0938 -20.7969
L7.90625 -20.7969
L7.90625 -13.2812
L13.1875 -13.2812
Q16.8906 -13.2812 18.9375 -11.5156
Q21 -9.76562 23.4844 -3.21875
L25.0938 0.875
L2.98438 54.6875
L12.5 54.6875
L29.5938 11.9219
L46.6875 54.6875
L56.2031 54.6875
z
" id="DejaVuSans-79"/>
     <path d="
M45.4062 27.9844
Q45.4062 37.75 41.375 43.1094
Q37.3594 48.4844 30.0781 48.4844
Q22.8594 48.4844 18.8281 43.1094
Q14.7969 37.75 14.7969 27.9844
Q14.7969 18.2656 18.8281 12.8906
Q22.8594 7.51562 30.0781 7.51562
Q37.3594 7.51562 41.375 12.8906
Q45.4062 18.2656 45.4062 27.9844
M54.3906 6.78125
Q54.3906 -7.17188 48.1875 -13.9844
Q42 -20.7969 29.2031 -20.7969
Q24.4688 -20.7969 20.2656 -20.0938
Q16.0625 -19.3906 12.1094 -17.9219
L12.1094 -9.1875
Q16.0625 -11.3281 19.9219 -12.3438
Q23.7812 -13.375 27.7812 -13.375
Q36.625 -13.375 41.0156 -8.76562
Q45.4062 -4.15625 45.4062 5.17188
L45.4062 9.625
Q42.625 4.78125 38.2812 2.39062
Q33.9375 0 27.875 0
Q17.8281 0 11.6719 7.65625
Q5.51562 15.3281 5.51562 27.9844
Q5.51562 40.6719 11.6719 48.3281
Q17.8281 56 27.875 56
Q33.9375 56 38.2812 53.6094
Q42.625 51.2188 45.4062 46.3906
L45.4062 54.6875
L54.3906 54.6875
z
" id="DejaVuSans-67"/>
     <path d="
M34.2812 27.4844
Q23.3906 27.4844 19.1875 25
Q14.9844 22.5156 14.9844 16.5
Q14.9844 11.7188 18.1406 8.90625
Q21.2969 6.10938 26.7031 6.10938
Q34.1875 6.10938 38.7031 11.4062
Q43.2188 16.7031 43.2188 25.4844
L43.2188 27.4844
z

M52.2031 31.2031
L52.2031 0
L43.2188 0
L43.2188 8.29688
Q40.1406 3.32812 35.5469 0.953125
Q30.9531 -1.42188 24.3125 -1.42188
Q15.9219 -1.42188 10.9531 3.29688
Q6 8.01562 6 15.9219
Q6 25.1406 12.1719 29.8281
Q18.3594 34.5156 30.6094 34.5156
L43.2188 34.5156
L43.2188 35.4062
Q43.2188 41.6094 39.1406 45
Q35.0625 48.3906 27.6875 48.3906
Q23 48.3906 18.5469 47.2656
Q14.1094 46.1406 10.0156 43.8906
L10.0156 52.2031
Q14.9375 54.1094 19.5781 55.0469
Q24.2188 56 28.6094 56
Q40.4844 56 46.3438 49.8438
Q52.2031 43.7031 52.2031 31.2031" id="DejaVuSans-61"/>
     <path d="
M18.1094 8.20312
L18.1094 -20.7969
L9.07812 -20.7969
L9.07812 54.6875
L18.1094 54.6875
L18.1094 46.3906
Q20.9531 51.2656 25.2656 53.625
Q29.5938 56 35.5938 56
Q45.5625 56 51.7812 48.0938
Q58.0156 40.1875 58.0156 27.2969
Q58.0156 14.4062 51.7812 6.48438
Q45.5625 -1.42188 35.5938 -1.42188
Q29.5938 -1.42188 25.2656 0.953125
Q20.9531 3.32812 18.1094 8.20312
M48.6875 27.2969
Q48.6875 37.2031 44.6094 42.8438
Q40.5312 48.4844 33.4062 48.4844
Q26.2656 48.4844 22.1875 42.8438
Q18.1094 37.2031 18.1094 27.2969
Q18.1094 17.3906 22.1875 11.75
Q26.2656 6.10938 33.4062 6.10938
Q40.5312 6.10938 44.6094 11.75
Q48.6875 17.3906 48.6875 27.2969" id="DejaVuSans-70"/>
     <path d="
M44.2812 53.0781
L44.2812 44.5781
Q40.4844 46.5312 36.375 47.5
Q32.2812 48.4844 27.875 48.4844
Q21.1875 48.4844 17.8438 46.4375
Q14.5 44.3906 14.5 40.2812
Q14.5 37.1562 16.8906 35.375
Q19.2812 33.5938 26.5156 31.9844
L29.5938 31.2969
Q39.1562 29.25 43.1875 25.5156
Q47.2188 21.7812 47.2188 15.0938
Q47.2188 7.46875 41.1875 3.01562
Q35.1562 -1.42188 24.6094 -1.42188
Q20.2188 -1.42188 15.4531 -0.5625
Q10.6875 0.296875 5.42188 2
L5.42188 11.2812
Q10.4062 8.6875 15.2344 7.39062
Q20.0625 6.10938 24.8125 6.10938
Q31.1562 6.10938 34.5625 8.28125
Q37.9844 10.4531 37.9844 14.4062
Q37.9844 18.0625 35.5156 20.0156
Q33.0625 21.9688 24.7031 23.7812
L21.5781 24.5156
Q13.2344 26.2656 9.51562 29.9062
Q5.8125 33.5469 5.8125 39.8906
Q5.8125 47.6094 11.2812 51.7969
Q16.75 56 26.8125 56
Q31.7812 56 36.1719 55.2656
Q40.5781 54.5469 44.2812 53.0781" id="DejaVuSans-73"/>
     <path d="
M41.1094 46.2969
Q39.5938 47.1719 37.8125 47.5781
Q36.0312 48 33.8906 48
Q26.2656 48 22.1875 43.0469
Q18.1094 38.0938 18.1094 28.8125
L18.1094 0
L9.07812 0
L9.07812 54.6875
L18.1094 54.6875
L18.1094 46.1875
Q20.9531 51.1719 25.4844 53.5781
Q30.0312 56 36.5312 56
Q37.4531 56 38.5781 55.875
Q39.7031 55.7656 41.0625 55.5156
z
" id="DejaVuSans-72"/>
    </defs>
    <g transform="translate(183.536125 18.14175)scale(0.144 -0.144)">
     <use xlink:href="#DejaVuSans-2f"/>
     <use x="33.69140625" xlink:href="#DejaVuSans-61"/>
     <use x="94.970703125" xlink:href="#DejaVuSans-67"/>
     <use x="158.447265625" xlink:href="#DejaVuSans-61"/>
     <use x="219.7265625" xlink:href="#DejaVuSans-73"/>
     <use x="271.826171875" xlink:href="#DejaVuSans-2f"/>
     <use x="305.517578125" xlink:href="#DejaVuSans-70"/>
     <use x="368.994140625" xlink:href="#DejaVuSans-72"/>
     <use x="410.107421875" xlink:href="#DejaVuSans-69"/>
     <use x="437.890625" xlink:href="#DejaVuSans-6d"/>
     <use x="535.302734375" xlink:href="#DejaVuSans-61"/>
     <use x="596.58203125" xlink:href="#DejaVuSans-72"/>
     <use x="637.6953125" xlink:href="#DejaVuSans-79"/>
     <use x="696.875" xlink:href="#DejaVuSans-2f"/>
     <use x="730.56640625" xlink:href="#DejaVuSans-74"/>
     <use x="769.775390625" xlink:href="#DejaVuSans-69"/>
     <use x="797.55859375" xlink:href="#DejaVuSans-6d"/>
     <use x="894.970703125" xlink:href="#DejaVuSans-65"/>
    </g>
   </g>
   <g id="legend_1">
    <g id="patch_7">
     <path d="
M482.419 367.194
L614.209 367.194
L614.209 24.6897
L482.419 24.6897
z
" style="fill:#ffffff;stroke:#000000;stroke-linejoin:miter;"/>
    </g>
    <g id="line2d_51">
     <path d="
M492.499 36.3515
L512.659 36.3515" style="fill:none;stroke:#0000ff;stroke-linecap:square;"/>
    </g>
    <g id="line2d_52"/>
    <g id="text_21">
     <!-- locality#0 -->
     <defs>
      <path d="
M30.6094 48.3906
Q23.3906 48.3906 19.1875 42.75
Q14.9844 37.1094 14.9844 27.2969
Q14.9844 17.4844 19.1562 11.8438
Q23.3438 6.20312 30.6094 6.20312
Q37.7969 6.20312 41.9844 11.8594
Q46.1875 17.5312 46.1875 27.2969
Q46.1875 37.0156 41.9844 42.7031
Q37.7969 48.3906 30.6094 48.3906
M30.6094 56
Q42.3281 56 49.0156 48.375
Q55.7188 40.7656 55.7188 27.2969
Q55.7188 13.875 49.0156 6.21875
Q42.3281 -1.42188 30.6094 -1.42188
Q18.8438 -1.42188 12.1719 6.21875
Q5.51562 13.875 5.51562 27.2969
Q5.51562 40.7656 12.1719 48.375
Q18.8438 56 30.6094 56" id="DejaVuSans-6f"/>
      <path d="
M51.125 44
L36.9219 44
L32.8125 27.6875
L47.125 27.6875
z

M43.7969 71.7812
L38.7188 51.5156
L52.9844 51.5156
L58.1094 71.7812
L65.9219 71.7812
L60.8906 51.5156
L76.125 51.5156
L76.125 44
L58.9844 44
L54.9844 27.6875
L70.5156 27.6875
L70.5156 20.2188
L53.0781 20.2188
L48 0
L40.1875 0
L45.2188 20.2188
L30.9062 20.2188
L25.875 0
L18.0156 0
L23.0938 20.2188
L7.71875 20.2188
L7.71875 27.6875
L24.9062 27.6875
L29 44
L13.2812 44
L13.2812 51.5156
L30.9062 51.5156
L35.8906 71.7812
z
" id="DejaVuSans-23"/>
      <path d="
M9.42188 75.9844
L18.4062 75.9844
L18.4062 0
L9.42188 0
z
" id="DejaVuSans-6c"/>
      <path d="
M48.7812 52.5938
L48.7812 44.1875
Q44.9688 46.2969 41.1406 47.3438
Q37.3125 48.3906 33.4062 48.3906
Q24.6562 48.3906 19.8125 42.8438
Q14.9844 37.3125 14.9844 27.2969
Q14.9844 17.2812 19.8125 11.7344
Q24.6562 6.20312 33.4062 6.20312
Q37.3125 6.20312 41.1406 7.25
Q44.9688 8.29688 48.7812 10.4062
L48.7812 2.09375
Q45.0156 0.34375 40.9844 -0.53125
Q36.9688 -1.42188 32.4219 -1.42188
Q20.0625 -1.42188 12.7812 6.34375
Q5.51562 14.1094 5.51562 27.2969
Q5.51562 40.6719 12.8594 48.3281
Q20.2188 56 33.0156 56
Q37.1562 56 41.1094 55.1406
Q45.0625 54.2969 48.7812 52.5938" id="DejaVuSans-63"/>
     </defs>
     <g transform="translate(528.499375 41.3915)scale(0.144 -0.144)">
      <use xlink:href="#DejaVuSans-6c"/>
      <use x="27.783203125" xlink:href="#DejaVuSans-6f"/>
      <use x="88.96484375" xlink:href="#DejaVuSans-63"/>
      <use x="143.9453125" xlink:href="#DejaVuSans-61"/>
      <use x="205.224609375" xlink:href="#DejaVuSans-6c"/>
      <use x="233.0078125" xlink:href="#DejaVuSans-69"/>
      <use x="260.791015625" xlink:href="#DejaVuSans-74"/>
      <use x="300.0" xlink:href="#DejaVuSans-79"/>
      <use x="359.1796875" xlink:href="#DejaVuSans-23"/>
      <use x="442.96875" xlink:href="#DejaVuSans-30"/>
     </g>
    </g>
    <g id="line2d_53">
     <path d="
M492.499 57.488
L512.659 57.488" style="fill:none;stroke:#008000;stroke-linecap:square;"/>
    </g>
    <g id="line2d_54"/>
    <g id="text_22">
     <!-- locality#1 -->
     <g transform="translate(528.499375 62.528)scale(0.144 -0.144)">
      <use xlink:href="#DejaVuSans-6c"/>
      <use x="27.783203125" xlink:href="#DejaVuSans-6f"/>
      <use x="88.96484375" xlink:href="#DejaVuSans-63"/>
      <use x="143.9453125" xlink:href="#DejaVuSans-61"/>
      <use x="205.224609375" xlink:href="#DejaVuSans-6c"/>
      <use x="233.0078125" xlink:href="#DejaVuSans-69"/>
      <use x="260.791015625" xlink:href="#DejaVuSans-74"/>
      <use x="300.0" xlink:href="#DejaVuSans-79"/>
      <use x="359.1796875" xlink:href="#DejaVuSans-23"/>
      <use x="442.96875" xlink:href="#DejaVuSans-31"/>
     </g>
    </g>
    <g id="line2d_55">
     <path d="
M492.499 78.6245
L512.659 78.6245" style="fill:none;stroke:#ff0000;stroke-linecap:square;"/>
    </g>
    <g id="line2d_56"/>
    <g id="text_23">
     <!-- locality#10 -->
     <g transform="translate(528.499375 83.6645)scale(0.144 -0.144)">
      <use xlink:href="#DejaVuSans-6c"/>
      <use x="27.783203125" xlink:href="#DejaVuSans-6f"/>
      <use x="88.96484375" xlink:href="#DejaVuSans-63"/>
      <use x="143.9453125" xlink:href="#DejaVuSans-61"/>
      <use x="205.224609375" xlink:href="#DejaVuSans-6c"/>
      <use x="233.0078125" xlink:href="#DejaVuSans-69"/>
      <use x="260.791015625" xlink:href="#DejaVuSans-74"/>
      <use x="300.0" xlink:href="#DejaVuSans-79"/>
      <use x="359.1796875" xlink:href="#DejaVuSans-23"/>
      <use x="442.96875" xlink:href="#DejaVuSans-31"/>
      <use x="506.591796875" xlink:href="#DejaVuSans-30"/>
     </g>
    </g>
    <g id="line2d_57">
     <path d="
M492.499 99.761
L512.659 99.761" style="fill:none;stroke:#00bfbf;stroke-linecap:square;"/>
    </g>
    <g id="line2d_58"/>
    <g id="text_24">
     <!-- locality#11 -->
     <g transform="translate(528.499375 104.801)scale(0.144 -0.144)">
      <use xlink:href="#DejaVuSans-6c"/>
      <use x="27.783203125" xlink:href="#DejaVuSans-6f"/>
      <use x="88.96484375" xlink:href="#DejaVuSans-63"/>
      <use x="143.9453125" xlink:href="#DejaVuSans-61"/>
      <use x="205.224609375" xlink:href="#DejaVuSans-6c"/>
      <use x="233.0078125" xlink:href="#DejaVuSans-69"/>
      <use x="260.791015625" xlink:href="#DejaVuSans-74"/>
      <use x="300.0" xlink:href="#DejaVuSans-79"/>
      <use x="359.1796875" xlink:href="#DejaVuSans-23"/>
      <use x="442.96875" xlink:href="#DejaVuSans-31"/>
      <use x="506.591796875" xlink:href="#DejaVuSans-31"/>
     </g>
    </g>
    <g id="line2d_59">
     <path d="
M492.499 120.897
L512.659 120.897" style="fill:none;stroke:#bf00bf;stroke-linecap:square;"/>
    </g>
    <g id="line2d_60"/>
    <g id="text_25">
     <!-- locality#12 -->
     <g transform="translate(528.499375 125.9375)scale(0.144 -0.144)">
      <use xlink:href="#DejaVuSans-6c"/>
      <use x="27.783203125" xlink:href="#DejaVuSans-6f"/>
      <use x="88.96484375" xlink:href="#DejaVuSans-63"/>
      <use x="143.9453125" xlink:href="#DejaVuSans-61"/>
      <use x="205.224609375" xlink:href="#DejaVuSans-6c"/>
      <use x="233.0078125" xlink:href="#DejaVuSans-69"/>
      <use x="260.791015625" xlink:href="#DejaVuSans-74"/>
      <use x="300.0" xlink:href="#DejaVuSans-79"/>
      <use x="359.1796875" xlink:href="#DejaVuSans-23"/>
      <use x="442.96875" xlink:href="#DejaVuSans-31"/>
      <use x="506.591796875" xlink:href="#DejaVuSans-32"/>
     </g>
    </g>
    <g id="line2d_61">
     <path d="
M492.499 142.034
L512.659 142.034" style="fill:none;stroke:#bfbf00;stroke-linecap:square;"/>
    </g>
    <g id="line2d_62"/>
    <g id="text_26">
     <!-- locality#13 -->
     <g transform="translate(528.499375 147.074)scale(0.144 -0.144)">
      <use xlink:href="#DejaVuSans-6c"/>
      <use x="27.783203125" xlink:href="#DejaVuSans-6f"/>
      <use x="88.96484375" xlink:href="#DejaVuSans-63"/>
      <use x="143.9453125" xlink:href="#DejaVuSans-61"/>
      <use x="205.224609375" xlink:href="#DejaVuSans-6c"/>
      <use x="233.0078125" xlink:href="#DejaVuSans-69"/>
      <use x="260.791015625" xlink:href="#DejaVuSans-74"/>
      <use x="300.0" xlink:href="#DejaVuSans-79"/>
      <use x="359.1796875" xlink:href="#DejaVuSans-23"/>
      <use x="442.96875" xlink:href="#DejaVuSans-31"/>
      <use x="506.591796875" xlink:href="#DejaVuSans-33"/>
     </g>
    </g>
    <g id="line2d_63">
     <path d="
M492.499 163.17
L512.659 163.17" style="fill:none;stroke:#000000;stroke-linecap:square;"/>
    </g>
    <g id="line2d_64"/>
    <g id="text_27">
     <!-- locality#14 -->
     <g transform="translate(528.499375 168.2105)scale(0.144 -0.144)">
      <use xlink:href="#DejaVuSans-6c"/>
      <use x="27.783203125" xlink:href="#DejaVuSans-6f"/>
      <use x="88.96484375" xlink:href="#DejaVuSans-63"/>
      <use x="143.9453125" xlink:href="#DejaVuSans-61"/>
      <use x="205.224609375" xlink:href="#DejaVuSans-6c"/>
      <use x="233.0078125" xlink:href="#DejaVuSans-69"/>
      <use x="260.791015625" xlink:href="#DejaVuSans-74"/>
      <use x="300.0" xlink:href="#DejaVuSans-79"/>
      <use x="359.1796875" xlink:href="#DejaVuSans-23"/>
      <use x="442.96875" xlink:href="#DejaVuSans-31"/>
      <use x="506.591796875" xlink:href="#DejaVuSans-34"/>
     </g>
    </g>
    <g id="line2d_65">
     <path d="
M492.499 184.307
L512.659 184.307" style="fill:none;stroke:#0000ff;stroke-linecap:square;"/>
    </g>
    <g id="line2d_66"/>
    <g id="text_28">
     <!-- locality#15 -->
     <g transform="translate(528.499375 189.347)scale(0.144 -0.144)">
      <use xlink:href="#DejaVuSans-6c"/>
      <use x="27.783203125" xlink:href="#DejaVuSans-6f"/>
      <use x="88.96484375" xlink:href="#DejaVuSans-63"/>
      <use x="143.9453125" xlink:href="#DejaVuSans-61"/>
      <use x="205.224609375" xlink:href="#DejaVuSans-6c"/>
      <use x="233.0078125" xlink:href="#DejaVuSans-69"/>
      <use x="260.791015625" xlink:href="#DejaVuSans-74"/>
      <use x="300.0" xlink:href="#DejaVuSans-79"/>
      <use x="359.1796875" xlink:href="#DejaVuSans-23"/>
      <use x="442.96875" xlink:href="#DejaVuSans-31"/>
      <use x="506.591796875" xlink:href="#DejaVuSans-35"/>
     </g>
    </g>
    <g id="line2d_67">
     <path d="
M492.499 205.443
L512.659 205.443" style="fill:none;stroke:#008000;stroke-linecap:square;"/>
    </g>
    <g id="line2d_68"/>
    <g id="text_29">
     <!-- locality#2 -->
     <g transform="translate(528.499375 210.4835)scale(0.144 -0.144)">
      <use xlink:href="#DejaVuSans-6c"/>
      <use x="27.783203125" xlink:href="#DejaVuSans-6f"/>
      <use x="88.96484375" xlink:href="#DejaVuSans-63"/>
      <use x="143.9453125" xlink:href="#DejaVuSans-61"/>
      <use x="205.224609375" xlink:href="#DejaVuSans-6c"/>
      <use x="233.0078125" xlink:href="#DejaVuSans-69"/>
      <use x="260.791015625" xlink:href="#DejaVuSans-74"/>
      <use x="300.0" xlink:href="#DejaVuSans-79"/>
      <use x="359.1796875" xlink:href="#DejaVuSans-23"/>
      <use x="442.96875" xlink:href="#DejaVuSans-32"/>
     </g>
    </g>
    <g id="line2d_69">
     <path d="
M492.499 226.58
L512.659 226.58" style="fill:none;stroke:#ff0000;stroke-linecap:square;"/>
    </g>
    <g id="line2d_70"/>
    <g id="text_30">
     <!-- locality#3 -->
     <g transform="translate(528.499375 231.62)scale(0.144 -0.144)">
      <use xlink:href="#DejaVuSans-6c"/>
      <use x="27.783203125" xlink:href="#DejaVuSans-6f"/>
      <use x="88.96484375" xlink:href="#DejaVuSans-63"/>
      <use x="143.9453125" xlink:href="#DejaVuSans-61"/>
      <use x="205.224609375" xlink:href="#DejaVuSans-6c"/>
      <use x="233.0078125" xlink:href="#DejaVuSans-69"/>
      <use x="260.791015625" xlink:href="#DejaVuSans-74"/>
      <use x="300.0" xlink:href="#DejaVuSans-79"/>
      <use x="359.1796875" xlink:href="#DejaVuSans-23"/>
      <use x="442.96875" xlink:href="#DejaVuSans-33"/>
     </g>
    </g>
    <g id="line2d_71">
     <path d="
M492.499 247.716
L512.659 247.716" style="fill:none;stroke:#00bfbf;stroke-linecap:square;"/>
    </g>
    <g id="line2d_72"/>
    <g id="text_31">
     <!-- locality#4 -->
     <g transform="translate(528.499375 252.7565)scale(0.144 -0.144)">
      <use xlink:href="#DejaVuSans-6c"/>
      <use x="27.783203125" xlink:href="#DejaVuSans-6f"/>
      <use x="88.96484375" xlink:href="#DejaVuSans-63"/>
      <use x="143.9453125" xlink:href="#DejaVuSans-61"/>
      <use x="205.224609375" xlink:href="#DejaVuSans-6c"/>
      <use x="233.0078125" xlink:href="#DejaVuSans-69"/>
      <use x="260.791015625" xlink:href="#DejaVuSans-74"/>
      <use x="300.0" xlink:href="#DejaVuSans-79"/>
      <use x="359.1796875" xlink:href="#DejaVuSans-23"/>
      <use x="442.96875" xlink:href="#DejaVuSans-34"/>
     </g>
    </g>
    <g id="line2d_73">
     <path d="
M492.499 268.853
L512.659 268.853" style="fill:none;stroke:#bf00bf;stroke-linecap:square;"/>
    </g>
    <g id="line2d_74"/>
    <g id="text_32">
     <!-- locality#5 -->
     <g transform="translate(528.499375 273.893)scale(0.144 -0.144)">
      <use xlink:href="#DejaVuSans-6c"/>
      <use x="27.783203125" xlink:href="#DejaVuSans-6f"/>
      <use x="88.96484375" xlink:href="#DejaVuSans-63"/>
      <use x="143.9453125" xlink:href="#DejaVuSans-61"/>
      <use x="205.224609375" xlink:href="#DejaVuSans-6c"/>
      <use x="233.0078125" xlink:href="#DejaVuSans-69"/>
      <use x="260.791015625" xlink:href="#DejaVuSans-74"/>
      <use x="300.0" xlink:href="#DejaVuSans-79"/>
      <use x="359.1796875" xlink:href="#DejaVuSans-23"/>
      <use x="442.96875" xlink:href="#DejaVuSans-35"/>
     </g>
    </g>
    <g id="line2d_75">
     <path d="
M492.499 289.989
L512.659 289.989" style="fill:none;stroke:#bfbf00;stroke-linecap:square;"/>
    </g>
    <g id="line2d_76"/>
    <g id="text_33">
     <!-- locality#6 -->
     <g transform="translate(528.499375 295.0295)scale(0.144 -0.144)">
      <use xlink:href="#DejaVuSans-6c"/>
      <use x="27.783203125" xlink:href="#DejaVuSans-6f"/>
      <use x="88.96484375" xlink:href="#DejaVuSans-63"/>
      <use x="143.9453125" xlink:href="#DejaVuSans-61"/>
      <use x="205.224609375" xlink:href="#DejaVuSans-6c"/>
      <use x="233.0078125" xlink:href="#DejaVuSans-69"/>
      <use x="260.791015625" xlink:href="#DejaVuSans-74"/>
      <use x="300.0" xlink:href="#DejaVuSans-79"/>
      <use x="359.1796875" xlink:href="#DejaVuSans-23"/>
      <use x="442.96875" xlink:href="#DejaVuSans-36"/>
     </g>
    </g>
    <g id="line2d_77">
     <path d="
M492.499 311.126
L512.659 311.126" style="fill:none;stroke:#000000;stroke-linecap:square;"/>
    </g>
    <g id="line2d_78"/>
    <g id="text_34">
     <!-- locality#7 -->
     <defs>
      <path d="
M8.20312 72.9062
L55.0781 72.9062
L55.0781 68.7031
L28.6094 0
L18.3125 0
L43.2188 64.5938
L8.20312 64.5938
z
" id="DejaVuSans-37"/>
     </defs>
     <g transform="translate(528.499375 316.166)scale(0.144 -0.144)">
      <use xlink:href="#DejaVuSans-6c"/>
      <use x="27.783203125" xlink:href="#DejaVuSans-6f"/>
      <use x="88.96484375" xlink:href="#DejaVuSans-63"/>
      <use x="143.9453125" xlink:href="#DejaVuSans-61"/>
      <use x="205.224609375" xlink:href="#DejaVuSans-6c"/>
      <use x="233.0078125" xlink:href="#DejaVuSans-69"/>
      <use x="260.791015625" xlink:href="#DejaVuSans-74"/>
      <use x="300.0" xlink:href="#DejaVuSans-79"/>
      <use x="359.1796875" xlink:href="#DejaVuSans-23"/>
      <use x="442.96875" xlink:href="#DejaVuSans-37"/>
     </g>
    </g>
    <g id="line2d_79">
     <path d="
M492.499 332.262
L512.659 332.262" style="fill:none;stroke:#0000ff;stroke-linecap:square;"/>
    </g>
    <g id="line2d_80"/>
    <g id="text_35">
     <!-- locality#8 -->
     <g transform="translate(528.499375 337.3025)scale(0.144 -0.144)">
      <use xlink:href="#DejaVuSans-6c"/>
      <use x="27.783203125" xlink:href="#DejaVuSans-6f"/>
      <use x="88.96484375" xlink:href="#DejaVuSans-63"/>
      <use x="143.9453125" xlink:href="#DejaVuSans-61"/>
      <use x="205.224609375" xlink:href="#DejaVuSans-6c"/>
      <use x="233.0078125" xlink:href="#DejaVuSans-69"/>
      <use x="260.791015625" xlink:href="#DejaVuSans-74"/>
      <use x="300.0" xlink:href="#DejaVuSans-79"/>
      <use x="359.1796875" xlink:href="#DejaVuSans-23"/>
      <use x="442.96875" xlink:href="#DejaVuSans-38"/>
     </g>
    </g>
    <g id="line2d_81">
     <path d="
M492.499 353.399
L512.659 353.399" style="fill:none;stroke:#008000;stroke-linecap:square;"/>
    </g>
    <g id="line2d_82"/>
    <g id="text_36">
     <!-- locality#9 -->
     <defs>
      <path d="
M10.9844 1.51562
L10.9844 10.5
Q14.7031 8.73438 18.5 7.8125
Q22.3125 6.89062 25.9844 6.89062
Q35.75 6.89062 40.8906 13.4531
Q46.0469 20.0156 46.7812 33.4062
Q43.9531 29.2031 39.5938 26.9531
Q35.25 24.7031 29.9844 24.7031
Q19.0469 24.7031 12.6719 31.3125
Q6.29688 37.9375 6.29688 49.4219
Q6.29688 60.6406 12.9375 67.4219
Q19.5781 74.2188 30.6094 74.2188
Q43.2656 74.2188 49.9219 64.5156
Q56.5938 54.8281 56.5938 36.375
Q56.5938 19.1406 48.4062 8.85938
Q40.2344 -1.42188 26.4219 -1.42188
Q22.7031 -1.42188 18.8906 -0.6875
Q15.0938 0.046875 10.9844 1.51562
M30.6094 32.4219
Q37.25 32.4219 41.125 36.9531
Q45.0156 41.5 45.0156 49.4219
Q45.0156 57.2812 41.125 61.8438
Q37.25 66.4062 30.6094 66.4062
Q23.9688 66.4062 20.0938 61.8438
Q16.2188 57.2812 16.2188 49.4219
Q16.2188 41.5 20.0938 36.9531
Q23.9688 32.4219 30.6094 32.4219" id="DejaVuSans-39"/>
     </defs>
     <g transform="translate(528.499375 358.439)scale(0.144 -0.144)">
      <use xlink:href="#DejaVuSans-6c"/>
      <use x="27.783203125" xlink:href="#DejaVuSans-6f"/>
      <use x="88.96484375" xlink:href="#DejaVuSans-63"/>
      <use x="143.9453125" xlink:href="#DejaVuSans-61"/>
      <use x="205.224609375" xlink:href="#DejaVuSans-6c"/>
      <use x="233.0078125" xlink:href="#DejaVuSans-69"/>
      <use x="260.791015625" xlink:href="#DejaVuSans-74"/>
      <use x="300.0" xlink:href="#DejaVuSans-79"/>
      <use x="359.1796875" xlink:href="#DejaVuSans-23"/>
      <use x="442.96875" xlink:href="#DejaVuSans-39"/>
     </g>
    </g>
   </g>
  </g>
 </g>
 <defs>
  <clipPath id="p8c776b0f9c">
   <rect height="345.6" width="446.4" x="28.819375" y="23.14175"/>
  </clipPath>
 </defs>
</svg>
