<?xml version="1.0" encoding="utf-8" standalone="no"?>
<!DOCTYPE svg PUBLIC "-//W3C//DTD SVG 1.1//EN"
  "http://www.w3.org/Graphics/SVG/1.1/DTD/svg11.dtd">
<!-- Created with matplotlib (http://matplotlib.org/) -->
<svg height="408pt" version="1.1" viewBox="0 0 617 408" width="617pt" xmlns="http://www.w3.org/2000/svg" xmlns:xlink="http://www.w3.org/1999/xlink">
 <defs>
  <style type="text/css">
*{stroke-linecap:butt;stroke-linejoin:round;}
  </style>
 </defs>
 <g id="figure_1">
  <g id="patch_1">
   <path d="
M0 408.169
L617.068 408.169
L617.068 0
L0 0
z
" style="fill:#ffffff;"/>
  </g>
  <g id="axes_1">
   <g id="patch_2">
    <path d="
M24.4788 368.742
L470.879 368.742
L470.879 23.1417
L24.4788 23.1417
z
" style="fill:#ffffff;"/>
   </g>
   <g id="line2d_1">
    <path clip-path="url(#p3262714fab)" d="
M24.4788 325.542
L24.629 368.742
L28.6844 368.742
L28.8346 347.142
L28.9848 368.742
L33.9415 368.742
L34.0917 325.542
L34.2419 368.742
L41.1512 368.742
L41.3014 347.142
L41.4516 368.742
L50.7641 368.742
L50.9143 347.142
L51.0645 368.742
L65.3337 368.742
L65.4839 325.542
L65.6341 368.742
L71.3417 368.742
L71.4919 282.342
L71.6421 368.742
L81.5555 368.742
L81.7057 347.142
L81.8559 368.742
L83.5081 368.742
L83.6583 347.142
L83.8085 368.742
L94.4728 368.742
L94.623 347.142
L94.7732 368.742
L106.789 368.742
L106.94 303.942
L107.09 368.742
L117.604 368.742
L117.754 325.542
L117.904 368.742
L127.217 368.742
L127.367 282.342
L127.517 368.742
L132.174 368.742
L132.324 325.542
L132.474 368.742
L136.98 368.742
L137.13 325.542
L137.28 368.742
L138.782 368.742
L138.933 347.142
L139.083 368.742
L147.794 368.742
L147.945 282.342
L148.095 368.742
L168.222 368.742
L168.372 325.542
L168.522 368.742
L177.985 368.742
L178.135 260.742
L178.285 368.742
L191.203 368.742
L191.353 347.142
L191.503 368.742
L196.009 368.742
L196.16 347.142
L196.31 368.742
L207.575 368.742
L207.725 260.742
L207.875 368.742
L229.054 368.742
L229.204 347.142
L229.354 368.742
L238.366 368.742
L238.516 347.142
L238.667 368.742
L245.276 368.742
L245.426 303.942
L245.576 368.742
L252.185 368.742
L252.335 239.142
L252.485 368.742
L253.236 368.742
L253.386 347.142
L253.537 368.742
L279.522 368.742
L279.672 347.142
L279.822 368.742
L280.723 368.742
L280.873 282.342
L281.024 368.742
L308.21 368.742
L308.36 347.142
L308.511 368.742
L310.463 368.742
L310.613 260.742
L310.764 368.742
L327.586 368.742
L327.736 325.542
L327.887 368.742
L339.001 368.742
L339.152 303.942
L339.302 368.742
L352.82 368.742
L352.97 260.742
L353.12 368.742
L367.69 368.742
L367.84 347.142
L367.99 368.742
L381.809 368.742
L381.959 239.142
L382.109 368.742
L407.794 368.742
L407.944 260.742
L408.094 368.742
L425.067 368.742
L425.217 347.142
L425.368 368.742
L446.696 368.742
L446.846 347.142
L446.997 368.742
L450.902 368.742
L451.052 347.142
L451.202 368.742
L463.519 368.742
L463.669 66.3417
L463.819 368.742
L470.879 368.742
L470.879 368.742" style="fill:none;stroke:#0000ff;stroke-linecap:square;"/>
   </g>
   <g id="line2d_2">
    <path clip-path="url(#p3262714fab)" d="
M24.4788 282.342
L24.629 368.742
L39.7993 368.742
L39.9495 347.142
L40.0997 368.742
L48.8115 368.742
L48.9617 325.542
L49.1119 368.742
L56.622 368.742
L56.7722 347.142
L56.9224 368.742
L73.4446 368.742
L73.5948 347.142
L73.745 368.742
L85.3105 368.742
L85.4607 325.542
L85.6109 368.742
L98.5283 368.742
L98.6785 325.542
L98.8287 368.742
L116.703 368.742
L116.853 347.142
L117.003 368.742
L127.067 368.742
L127.217 347.142
L127.367 368.742
L138.782 368.742
L138.933 303.942
L139.083 368.742
L146.593 368.742
L146.743 260.742
L146.893 368.742
L153.052 368.742
L153.202 260.742
L153.352 368.742
L165.969 368.742
L166.119 347.142
L166.269 368.742
L180.388 368.742
L180.539 239.142
L180.689 368.742
L200.966 368.742
L201.116 347.142
L201.266 368.742
L214.785 368.742
L214.935 303.942
L215.085 368.742
L228.904 368.742
L229.054 347.142
L229.204 368.742
L237.615 368.742
L237.765 325.542
L237.916 368.742
L246.327 368.742
L246.477 131.142
L246.627 368.742
L262.248 368.742
L262.399 347.142
L262.549 368.742
L273.363 368.742
L273.513 217.542
L273.664 368.742
L297.996 368.742
L298.147 347.142
L298.297 368.742
L302.953 368.742
L303.103 282.342
L303.253 368.742
L331.191 368.742
L331.341 303.942
L331.491 368.742
L349.666 368.742
L349.816 325.542
L349.966 368.742
L358.227 368.742
L358.378 174.342
L358.528 368.742
L385.564 368.742
L385.714 347.142
L385.864 368.742
L393.375 368.742
L393.525 303.942
L393.675 368.742
L422.364 368.742
L422.514 174.342
L422.664 368.742
L470.879 368.742
L470.879 368.742" style="fill:none;stroke:#008000;stroke-linecap:square;"/>
   </g>
   <g id="line2d_3">
    <path clip-path="url(#p3262714fab)" d="
M24.4788 325.542
L24.629 368.742
L28.2338 368.742
L28.384 282.342
L28.5342 368.742
L32.8901 368.742
L33.0403 325.542
L33.1905 368.742
L37.6965 368.742
L37.8467 347.142
L37.9969 368.742
L41.6018 368.742
L41.752 282.342
L41.9022 368.742
L43.7046 368.742
L43.8548 347.142
L44.005 368.742
L49.7127 368.742
L49.8629 347.142
L50.0131 368.742
L53.0171 368.742
L53.1673 347.142
L53.3175 368.742
L56.4718 368.742
L56.622 303.942
L56.7722 368.742
L61.7288 368.742
L61.879 239.142
L62.0292 368.742
L69.8397 368.742
L69.9899 303.942
L70.1401 368.742
L73.8952 368.742
L74.0454 325.542
L74.1956 368.742
L80.2036 368.742
L80.3539 282.342
L80.5041 368.742
L89.6664 368.742
L89.8166 347.142
L89.9668 368.742
L96.4255 368.742
L96.5757 347.142
L96.7259 368.742
L99.1291 368.742
L99.2793 325.542
L99.4295 368.742
L111.295 368.742
L111.446 347.142
L111.596 368.742
L116.703 368.742
L116.853 217.542
L117.003 368.742
L128.869 368.742
L129.019 174.342
L129.169 368.742
L150.949 368.742
L151.099 347.142
L151.249 368.742
L159.06 368.742
L159.21 217.542
L159.36 368.742
L168.522 368.742
L168.673 347.142
L168.823 368.742
L174.53 368.742
L174.681 152.742
L174.831 368.742
L183.242 368.742
L183.392 239.142
L183.543 368.742
L205.021 368.742
L205.172 260.742
L205.322 368.742
L216.136 368.742
L216.287 260.742
L216.437 368.742
L227.552 368.742
L227.702 347.142
L227.852 368.742
L230.856 368.742
L231.006 195.942
L231.157 368.742
L253.987 368.742
L254.137 325.542
L254.288 368.742
L264.201 368.742
L264.351 325.542
L264.501 368.742
L266.003 368.742
L266.154 303.942
L266.304 368.742
L274.415 368.742
L274.565 239.142
L274.715 368.742
L287.032 368.742
L287.182 347.142
L287.332 368.742
L291.538 368.742
L291.688 325.542
L291.838 368.742
L308.811 368.742
L308.961 325.542
L309.111 368.742
L322.78 368.742
L322.93 325.542
L323.08 368.742
L334.345 368.742
L334.495 325.542
L334.646 368.742
L347.713 368.742
L347.863 347.142
L348.014 368.742
L348.314 368.742
L348.464 260.742
L348.614 368.742
L374.299 368.742
L374.449 282.342
L374.599 368.742
L384.963 368.742
L385.113 195.942
L385.264 368.742
L409.146 368.742
L409.296 217.542
L409.446 368.742
L435.131 368.742
L435.281 195.942
L435.431 368.742
L459.463 368.742
L459.614 260.742
L459.764 368.742
L470.879 368.742
L470.879 368.742" style="fill:none;stroke:#ff0000;stroke-linecap:square;"/>
   </g>
   <g id="line2d_4">
    <path clip-path="url(#p3262714fab)" d="
M24.4788 282.342
L24.629 368.742
L30.9374 368.742
L31.0876 347.142
L31.2378 368.742
L36.0443 368.742
L36.1945 347.142
L36.3447 368.742
L41.001 368.742
L41.1512 282.342
L41.3014 368.742
L44.4556 368.742
L44.6058 347.142
L44.756 368.742
L49.4123 368.742
L49.5625 347.142
L49.7127 368.742
L57.0726 368.742
L57.2228 303.942
L57.373 368.742
L64.2822 368.742
L64.4325 195.942
L64.5827 368.742
L74.0454 368.742
L74.1956 325.542
L74.3458 368.742
L78.4012 368.742
L78.5514 260.742
L78.7016 368.742
L89.0656 368.742
L89.2158 303.942
L89.366 368.742
L94.0222 368.742
L94.1724 347.142
L94.3226 368.742
L103.185 368.742
L103.335 325.542
L103.485 368.742
L106.789 368.742
L106.94 260.742
L107.09 368.742
L120.007 368.742
L120.157 347.142
L120.308 368.742
L125.114 368.742
L125.264 325.542
L125.414 368.742
L131.422 368.742
L131.573 239.142
L131.723 368.742
L139.834 368.742
L139.984 347.142
L140.134 368.742
L148.996 368.742
L149.146 260.742
L149.297 368.742
L156.056 368.742
L156.206 282.342
L156.356 368.742
L166.57 368.742
L166.72 239.142
L166.87 368.742
L178.586 368.742
L178.736 347.142
L178.886 368.742
L181.29 368.742
L181.44 347.142
L181.59 368.742
L188.349 368.742
L188.499 325.542
L188.649 368.742
L194.657 368.742
L194.808 260.742
L194.958 368.742
L205.622 368.742
L205.772 174.342
L205.923 368.742
L222.144 368.742
L222.295 260.742
L222.445 368.742
L229.054 368.742
L229.204 152.742
L229.354 368.742
L255.94 368.742
L256.09 239.142
L256.24 368.742
L283.277 368.742
L283.427 303.942
L283.577 368.742
L316.621 368.742
L316.772 260.742
L316.922 368.742
L354.622 368.742
L354.773 347.142
L354.923 368.742
L357.326 368.742
L357.476 347.142
L357.627 368.742
L363.334 368.742
L363.484 325.542
L363.635 368.742
L366.038 368.742
L366.188 347.142
L366.338 368.742
L372.497 368.742
L372.647 303.942
L372.797 368.742
L394.126 368.742
L394.276 325.542
L394.426 368.742
L400.734 368.742
L400.885 260.742
L401.035 368.742
L417.707 368.742
L417.857 303.942
L418.008 368.742
L424.316 368.742
L424.466 239.142
L424.617 368.742
L433.629 368.742
L433.779 282.342
L433.929 368.742
L453.756 368.742
L453.906 347.142
L454.056 368.742
L457.811 368.742
L457.961 303.942
L458.112 368.742
L459.764 368.742
L459.914 260.742
L460.064 368.742
L469.076 368.742
L469.227 239.142
L469.377 368.742
L470.879 368.742
L470.879 368.742" style="fill:none;stroke:#00bfbf;stroke-linecap:square;"/>
   </g>
   <g id="line2d_5">
    <path clip-path="url(#p3262714fab)" d="
M24.4788 303.942
L24.629 368.742
L33.7913 368.742
L33.9415 347.142
L34.0917 368.742
L40.7006 368.742
L40.8508 325.542
L41.001 368.742
L48.2106 368.742
L48.3608 347.142
L48.5111 368.742
L55.1199 368.742
L55.2701 282.342
L55.4203 368.742
L62.63 368.742
L62.7802 347.142
L62.9304 368.742
L68.7883 368.742
L68.9385 303.942
L69.0887 368.742
L73.2944 368.742
L73.4446 325.542
L73.5948 368.742
L84.1089 368.742
L84.2591 347.142
L84.4093 368.742
L92.5202 368.742
L92.6704 347.142
L92.8206 368.742
L100.932 368.742
L101.082 347.142
L101.232 368.742
L107.841 368.742
L107.991 347.142
L108.141 368.742
L111.596 368.742
L111.746 347.142
L111.896 368.742
L119.256 368.742
L119.406 347.142
L119.557 368.742
L126.766 368.742
L126.916 347.142
L127.067 368.742
L131.422 368.742
L131.573 303.942
L131.723 368.742
L146.593 368.742
L146.743 325.542
L146.893 368.742
L151.85 368.742
L152 303.942
L152.15 368.742
L161.913 368.742
L162.064 325.542
L162.214 368.742
L164.767 368.742
L164.918 325.542
L165.068 368.742
L168.522 368.742
L168.673 282.342
L168.823 368.742
L179.187 368.742
L179.337 325.542
L179.487 368.742
L182.191 368.742
L182.341 325.542
L182.491 368.742
L185.345 368.742
L185.495 282.342
L185.645 368.742
L195.859 368.742
L196.009 325.542
L196.16 368.742
L200.365 368.742
L200.515 325.542
L200.666 368.742
L205.322 368.742
L205.472 347.142
L205.622 368.742
L213.583 368.742
L213.733 282.342
L213.883 368.742
L217.188 368.742
L217.338 217.542
L217.488 368.742
L226.35 368.742
L226.5 303.942
L226.65 368.742
L231.457 368.742
L231.607 303.942
L231.757 368.742
L238.066 368.742
L238.216 325.542
L238.366 368.742
L243.924 368.742
L244.074 325.542
L244.224 368.742
L253.987 368.742
L254.137 347.142
L254.288 368.742
L259.695 368.742
L259.845 303.942
L259.995 368.742
L266.154 368.742
L266.304 347.142
L266.454 368.742
L272.612 368.742
L272.762 303.942
L272.913 368.742
L276.968 368.742
L277.118 260.742
L277.269 368.742
L284.178 368.742
L284.328 347.142
L284.478 368.742
L289.134 368.742
L289.285 325.542
L289.435 368.742
L294.992 368.742
L295.143 239.142
L295.293 368.742
L304.305 368.742
L304.455 347.142
L304.605 368.742
L308.661 368.742
L308.811 239.142
L308.961 368.742
L324.432 368.742
L324.582 282.342
L324.732 368.742
L338.851 368.742
L339.001 325.542
L339.152 368.742
L354.022 368.742
L354.172 347.142
L354.322 368.742
L364.085 368.742
L364.235 347.142
L364.386 368.742
L366.939 368.742
L367.089 260.742
L367.239 368.742
L383.311 368.742
L383.461 325.542
L383.611 368.742
L395.177 368.742
L395.327 347.142
L395.477 368.742
L398.031 368.742
L398.181 303.942
L398.331 368.742
L412 368.742
L412.15 260.742
L412.3 368.742
L427.921 368.742
L428.071 347.142
L428.221 368.742
L437.684 368.742
L437.834 347.142
L437.985 368.742
L443.692 368.742
L443.842 303.942
L443.993 368.742
L456.159 368.742
L456.309 325.542
L456.459 368.742
L457.511 368.742
L457.661 347.142
L457.811 368.742
L468.325 368.742
L468.476 347.142
L468.626 368.742
L470.879 368.742
L470.879 368.742" style="fill:none;stroke:#bf00bf;stroke-linecap:square;"/>
   </g>
   <g id="line2d_6">
    <path clip-path="url(#p3262714fab)" d="
M24.4788 303.942
L24.629 368.742
L31.2378 368.742
L31.388 347.142
L31.5382 368.742
L37.2459 368.742
L37.3961 325.542
L37.5463 368.742
L44.005 368.742
L44.1552 347.142
L44.3054 368.742
L52.4163 368.742
L52.5665 325.542
L52.7167 368.742
L60.6774 368.742
L60.8276 325.542
L60.9778 368.742
L69.9899 368.742
L70.1401 347.142
L70.2903 368.742
L75.998 368.742
L76.1482 347.142
L76.2984 368.742
L82.7571 368.742
L82.9073 303.942
L83.0575 368.742
L92.0696 368.742
L92.2198 347.142
L92.37 368.742
L100.631 368.742
L100.781 325.542
L100.932 368.742
L109.042 368.742
L109.193 325.542
L109.343 368.742
L119.106 368.742
L119.256 347.142
L119.406 368.742
L128.418 368.742
L128.569 347.142
L128.719 368.742
L133.375 368.742
L133.525 303.942
L133.676 368.742
L142.688 368.742
L142.838 325.542
L142.988 368.742
L149.447 368.742
L149.597 260.742
L149.747 368.742
L165.368 368.742
L165.518 347.142
L165.669 368.742
L172.878 368.742
L173.028 303.942
L173.179 368.742
L183.843 368.742
L183.993 325.542
L184.143 368.742
L191.353 368.742
L191.503 325.542
L191.653 368.742
L193.756 368.742
L193.906 303.942
L194.057 368.742
L200.515 368.742
L200.666 325.542
L200.816 368.742
L210.128 368.742
L210.278 347.142
L210.429 368.742
L217.488 368.742
L217.638 347.142
L217.789 368.742
L222.595 368.742
L222.745 347.142
L222.895 368.742
L232.508 368.742
L232.659 347.142
L232.809 368.742
L242.271 368.742
L242.422 325.542
L242.572 368.742
L248.58 368.742
L248.73 347.142
L248.88 368.742
L253.386 368.742
L253.537 347.142
L253.687 368.742
L258.944 368.742
L259.094 325.542
L259.244 368.742
L271.711 368.742
L271.861 325.542
L272.011 368.742
L278.02 368.742
L278.17 347.142
L278.32 368.742
L284.328 368.742
L284.478 217.542
L284.628 368.742
L296.344 368.742
L296.494 303.942
L296.645 368.742
L328.187 368.742
L328.337 325.542
L328.487 368.742
L332.242 368.742
L332.393 239.142
L332.543 368.742
L349.666 368.742
L349.816 282.342
L349.966 368.742
L356.125 368.742
L356.275 347.142
L356.425 368.742
L364.836 368.742
L364.986 303.942
L365.137 368.742
L372.647 368.742
L372.797 303.942
L372.947 368.742
L378.655 368.742
L378.805 347.142
L378.955 368.742
L386.165 368.742
L386.315 303.942
L386.465 368.742
L390.371 368.742
L390.521 347.142
L390.671 368.742
L401.936 368.742
L402.086 303.942
L402.236 368.742
L420.561 368.742
L420.711 347.142
L420.862 368.742
L423.715 368.742
L423.866 347.142
L424.016 368.742
L437.234 368.742
L437.384 282.342
L437.534 368.742
L448.949 368.742
L449.099 347.142
L449.25 368.742
L451.953 368.742
L452.104 347.142
L452.254 368.742
L459.914 368.742
L460.064 325.542
L460.214 368.742
L467.875 368.742
L468.025 347.142
L468.175 368.742
L470.278 368.742
L470.428 152.742
L470.578 368.742
L470.879 368.742
L470.879 368.742" style="fill:none;stroke:#bfbf00;stroke-linecap:square;"/>
   </g>
   <g id="line2d_7">
    <path clip-path="url(#p3262714fab)" d="
M24.4788 325.542
L24.629 368.742
L33.0403 368.742
L33.1905 325.542
L33.3407 368.742
L42.503 368.742
L42.6532 325.542
L42.8034 368.742
L50.1633 368.742
L50.3135 282.342
L50.4637 368.742
L57.6734 368.742
L57.8236 325.542
L57.9738 368.742
L68.0373 368.742
L68.1875 347.142
L68.3377 368.742
L78.7016 368.742
L78.8518 347.142
L79.002 368.742
L87.2631 368.742
L87.4133 347.142
L87.5635 368.742
L90.117 368.742
L90.2672 325.542
L90.4174 368.742
L102.584 368.742
L102.734 347.142
L102.884 368.742
L111.145 368.742
L111.295 347.142
L111.446 368.742
L121.509 368.742
L121.659 347.142
L121.81 368.742
L131.122 368.742
L131.272 347.142
L131.422 368.742
L142.387 368.742
L142.537 347.142
L142.688 368.742
L150.048 368.742
L150.198 325.542
L150.348 368.742
L151.85 368.742
L152 347.142
L152.15 368.742
L166.119 368.742
L166.269 347.142
L166.42 368.742
L175.582 368.742
L175.732 347.142
L175.882 368.742
L187.898 368.742
L188.049 347.142
L188.199 368.742
L190.752 368.742
L190.902 347.142
L191.053 368.742
L203.67 368.742
L203.82 347.142
L203.97 368.742
L208.176 368.742
L208.326 325.542
L208.476 368.742
L217.488 368.742
L217.638 303.942
L217.789 368.742
L232.508 368.742
L232.659 303.942
L232.809 368.742
L241.671 368.742
L241.821 347.142
L241.971 368.742
L244.224 368.742
L244.374 303.942
L244.525 368.742
L252.335 368.742
L252.485 347.142
L252.635 368.742
L269.458 368.742
L269.608 347.142
L269.758 368.742
L277.569 368.742
L277.719 347.142
L277.869 368.742
L285.53 368.742
L285.68 347.142
L285.83 368.742
L294.542 368.742
L294.692 325.542
L294.842 368.742
L297.245 368.742
L297.396 303.942
L297.546 368.742
L308.06 368.742
L308.21 347.142
L308.36 368.742
L314.368 368.742
L314.519 347.142
L314.669 368.742
L319.776 368.742
L319.926 347.142
L320.076 368.742
L329.539 368.742
L329.689 325.542
L329.839 368.742
L338.551 368.742
L338.701 347.142
L338.851 368.742
L348.464 368.742
L348.614 303.942
L348.765 368.742
L353.871 368.742
L354.022 325.542
L354.172 368.742
L362.884 368.742
L363.034 347.142
L363.184 368.742
L373.398 368.742
L373.548 325.542
L373.698 368.742
L381.058 368.742
L381.208 347.142
L381.358 368.742
L389.319 368.742
L389.469 347.142
L389.62 368.742
L391.722 368.742
L391.873 347.142
L392.023 368.742
L399.533 368.742
L399.683 303.942
L399.833 368.742
L409.146 368.742
L409.296 325.542
L409.446 368.742
L418.008 368.742
L418.158 303.942
L418.308 368.742
L433.178 368.742
L433.328 347.142
L433.478 368.742
L440.838 368.742
L440.989 347.142
L441.139 368.742
L447.447 368.742
L447.597 325.542
L447.748 368.742
L457.961 368.742
L458.112 347.142
L458.262 368.742
L466.072 368.742
L466.222 347.142
L466.373 368.742
L470.879 368.742
L470.879 368.742" style="fill:none;stroke:#000000;stroke-linecap:square;"/>
   </g>
   <g id="line2d_8">
    <path clip-path="url(#p3262714fab)" d="
M24.4788 325.542
L24.629 368.742
L42.6532 368.742
L42.8034 347.142
L42.9536 368.742
L53.4677 368.742
L53.6179 325.542
L53.7681 368.742
L63.2308 368.742
L63.381 347.142
L63.5312 368.742
L75.0968 368.742
L75.247 282.342
L75.3972 368.742
L88.1643 368.742
L88.3146 347.142
L88.4648 368.742
L92.5202 368.742
L92.6704 325.542
L92.8206 368.742
L104.536 368.742
L104.687 347.142
L104.837 368.742
L116.402 368.742
L116.553 325.542
L116.703 368.742
L128.268 368.742
L128.418 303.942
L128.569 368.742
L133.676 368.742
L133.826 347.142
L133.976 368.742
L138.933 368.742
L139.083 325.542
L139.233 368.742
L145.391 368.742
L145.541 217.542
L145.692 368.742
L165.969 368.742
L166.119 325.542
L166.269 368.742
L175.582 368.742
L175.732 347.142
L175.882 368.742
L191.653 368.742
L191.804 347.142
L191.954 368.742
L204.27 368.742
L204.421 347.142
L204.571 368.742
L214.935 368.742
L215.085 325.542
L215.235 368.742
L228.603 368.742
L228.753 347.142
L228.904 368.742
L237.014 368.742
L237.165 303.942
L237.315 368.742
L247.228 368.742
L247.378 260.742
L247.529 368.742
L255.489 368.742
L255.639 347.142
L255.79 368.742
L258.493 368.742
L258.643 303.942
L258.794 368.742
L272.762 368.742
L272.913 347.142
L273.063 368.742
L289.134 368.742
L289.285 325.542
L289.435 368.742
L299.348 368.742
L299.498 325.542
L299.649 368.742
L311.665 368.742
L311.815 347.142
L311.965 368.742
L322.78 368.742
L322.93 347.142
L323.08 368.742
L335.096 368.742
L335.246 347.142
L335.397 368.742
L343.207 368.742
L343.357 347.142
L343.508 368.742
L353.421 368.742
L353.571 325.542
L353.721 368.742
L362.733 368.742
L362.884 303.942
L363.034 368.742
L379.556 368.742
L379.706 239.142
L379.856 368.742
L414.403 368.742
L414.553 347.142
L414.703 368.742
L424.617 368.742
L424.767 347.142
L424.917 368.742
L436.783 368.742
L436.933 347.142
L437.083 368.742
L445.194 368.742
L445.344 347.142
L445.495 368.742
L457.06 368.742
L457.21 347.142
L457.361 368.742
L463.218 368.742
L463.369 347.142
L463.519 368.742
L470.879 368.742
L470.879 368.742" style="fill:none;stroke:#0000ff;stroke-linecap:square;"/>
   </g>
   <g id="line2d_9">
    <path clip-path="url(#p3262714fab)" d="
M24.4788 325.542
L24.629 368.742
L35.8941 368.742
L36.0443 325.542
L36.1945 368.742
L43.7046 368.742
L43.8548 325.542
L44.005 368.742
L50.3135 368.742
L50.4637 347.142
L50.6139 368.742
L58.124 368.742
L58.2742 325.542
L58.4244 368.742
L65.9345 368.742
L66.0847 347.142
L66.2349 368.742
L81.7057 368.742
L81.8559 347.142
L82.0061 368.742
L89.6664 368.742
L89.8166 325.542
L89.9668 368.742
L97.4769 368.742
L97.6271 282.342
L97.7773 368.742
L106.789 368.742
L106.94 347.142
L107.09 368.742
L121.059 368.742
L121.209 325.542
L121.359 368.742
L136.83 368.742
L136.98 325.542
L137.13 368.742
L144.49 368.742
L144.64 282.342
L144.79 368.742
L156.356 368.742
L156.506 282.342
L156.656 368.742
L161.613 368.742
L161.763 303.942
L161.913 368.742
L177.234 368.742
L177.384 325.542
L177.534 368.742
L192.855 368.742
L193.005 260.742
L193.155 368.742
L208.025 368.742
L208.176 239.142
L208.326 368.742
L215.686 368.742
L215.836 303.942
L215.986 368.742
L223.496 368.742
L223.646 282.342
L223.797 368.742
L238.667 368.742
L238.817 303.942
L238.967 368.742
L253.537 368.742
L253.687 325.542
L253.837 368.742
L261.047 368.742
L261.197 325.542
L261.347 368.742
L291.838 368.742
L291.988 303.942
L292.139 368.742
L300.55 368.742
L300.7 325.542
L300.85 368.742
L306.708 368.742
L306.858 239.142
L307.008 368.742
L340.053 368.742
L340.203 325.542
L340.353 368.742
L343.808 368.742
L343.958 239.142
L344.108 368.742
L381.509 368.742
L381.659 325.542
L381.809 368.742
L393.825 368.742
L393.975 195.942
L394.126 368.742
L430.474 368.742
L430.625 303.942
L430.775 368.742
L470.879 368.742
L470.879 368.742" style="fill:none;stroke:#008000;stroke-linecap:square;"/>
   </g>
   <g id="line2d_10">
    <path clip-path="url(#p3262714fab)" d="
M24.4788 325.542
L24.629 368.742
L35.1431 368.742
L35.2933 325.542
L35.4435 368.742
L41.1512 368.742
L41.3014 325.542
L41.4516 368.742
L47.1592 368.742
L47.3094 282.342
L47.4596 368.742
L53.1673 368.742
L53.3175 347.142
L53.4677 368.742
L66.3851 368.742
L66.5353 325.542
L66.6855 368.742
L80.9547 368.742
L81.1049 347.142
L81.2551 368.742
L94.1724 368.742
L94.3226 347.142
L94.4728 368.742
L99.1291 368.742
L99.2793 347.142
L99.4295 368.742
L105.287 368.742
L105.438 325.542
L105.588 368.742
L116.102 368.742
L116.252 303.942
L116.402 368.742
L119.557 368.742
L119.707 347.142
L119.857 368.742
L135.328 368.742
L135.478 217.542
L135.628 368.742
L145.992 368.742
L146.142 325.542
L146.292 368.742
L164.167 368.742
L164.317 260.742
L164.467 368.742
L174.831 368.742
L174.981 347.142
L175.131 368.742
L184.594 368.742
L184.744 282.342
L184.894 368.742
L192.855 368.742
L193.005 303.942
L193.155 368.742
L216.287 368.742
L216.437 347.142
L216.587 368.742
L228.153 368.742
L228.303 260.742
L228.453 368.742
L245.576 368.742
L245.726 282.342
L245.876 368.742
L251.284 368.742
L251.434 347.142
L251.584 368.742
L255.79 368.742
L255.94 347.142
L256.09 368.742
L262.699 368.742
L262.849 260.742
L262.999 368.742
L288.834 368.742
L288.984 282.342
L289.134 368.742
L305.957 368.742
L306.107 174.342
L306.257 368.742
L350.417 368.742
L350.567 282.342
L350.717 368.742
L376.252 368.742
L376.402 347.142
L376.552 368.742
L383.762 368.742
L383.912 260.742
L384.062 368.742
L398.481 368.742
L398.632 303.942
L398.782 368.742
L409.596 368.742
L409.747 282.342
L409.897 368.742
L424.316 368.742
L424.466 303.942
L424.617 368.742
L436.783 368.742
L436.933 347.142
L437.083 368.742
L444.143 368.742
L444.293 152.742
L444.443 368.742
L470.879 368.742
L470.879 368.742" style="fill:none;stroke:#ff0000;stroke-linecap:square;"/>
   </g>
   <g id="line2d_11">
    <path clip-path="url(#p3262714fab)" d="
M24.4788 303.942
L24.629 368.742
L33.9415 368.742
L34.0917 347.142
L34.2419 368.742
L41.4516 368.742
L41.6018 347.142
L41.752 368.742
L51.2147 368.742
L51.3649 325.542
L51.5151 368.742
L57.5232 368.742
L57.6734 347.142
L57.8236 368.742
L61.7288 368.742
L61.879 325.542
L62.0292 368.742
L66.0847 368.742
L66.2349 282.342
L66.3851 368.742
L71.3417 368.742
L71.4919 347.142
L71.6421 368.742
L86.5121 368.742
L86.6623 347.142
L86.8125 368.742
L90.868 368.742
L91.0182 303.942
L91.1684 368.742
L98.5283 368.742
L98.6785 303.942
L98.8287 368.742
L108.141 368.742
L108.291 347.142
L108.442 368.742
L117.754 368.742
L117.904 347.142
L118.055 368.742
L120.908 368.742
L121.059 282.342
L121.209 368.742
L129.62 368.742
L129.77 303.942
L129.92 368.742
L134.877 368.742
L135.027 347.142
L135.178 368.742
L140.134 368.742
L140.284 325.542
L140.435 368.742
L147.644 368.742
L147.794 174.342
L147.945 368.742
L163.716 368.742
L163.866 303.942
L164.016 368.742
L165.819 368.742
L165.969 347.142
L166.119 368.742
L178.736 368.742
L178.886 347.142
L179.036 368.742
L183.993 368.742
L184.143 303.942
L184.294 368.742
L188.199 368.742
L188.349 195.942
L188.499 368.742
L202.017 368.742
L202.168 217.542
L202.318 368.742
L216.437 368.742
L216.587 174.342
L216.737 368.742
L245.576 368.742
L245.726 282.342
L245.876 368.742
L279.972 368.742
L280.122 217.542
L280.273 368.742
L323.531 368.742
L323.681 217.542
L323.831 368.742
L364.085 368.742
L364.235 260.742
L364.386 368.742
L422.364 368.742
L422.514 131.142
L422.664 368.742
L470.879 368.742
L470.879 368.742" style="fill:none;stroke:#00bfbf;stroke-linecap:square;"/>
   </g>
   <g id="line2d_12">
    <path clip-path="url(#p3262714fab)" d="
M24.4788 303.942
L24.629 368.742
L33.0403 368.742
L33.1905 303.942
L33.3407 368.742
L40.5504 368.742
L40.7006 347.142
L40.8508 368.742
L48.0604 368.742
L48.2106 325.542
L48.3608 368.742
L52.7167 368.742
L52.8669 347.142
L53.0171 368.742
L57.373 368.742
L57.5232 282.342
L57.6734 368.742
L62.1794 368.742
L62.3296 325.542
L62.4798 368.742
L70.5907 368.742
L70.7409 303.942
L70.8911 368.742
L74.496 368.742
L74.6462 347.142
L74.7964 368.742
L80.2036 368.742
L80.3539 303.942
L80.5041 368.742
L90.5676 368.742
L90.7178 347.142
L90.868 368.742
L95.374 368.742
L95.5242 282.342
L95.6744 368.742
L102.884 368.742
L103.034 325.542
L103.185 368.742
L113.398 368.742
L113.548 325.542
L113.699 368.742
L124.663 368.742
L124.814 347.142
L124.964 368.742
L130.371 368.742
L130.521 325.542
L130.671 368.742
L140.585 368.742
L140.735 239.142
L140.885 368.742
L153.803 368.742
L153.953 325.542
L154.103 368.742
L164.167 368.742
L164.317 152.742
L164.467 368.742
L183.843 368.742
L183.993 325.542
L184.143 368.742
L193.306 368.742
L193.456 239.142
L193.606 368.742
L203.369 368.742
L203.519 325.542
L203.67 368.742
L206.974 368.742
L207.124 217.542
L207.274 368.742
L220.793 368.742
L220.943 347.142
L221.093 368.742
L228.303 368.742
L228.453 152.742
L228.603 368.742
L258.794 368.742
L258.944 239.142
L259.094 368.742
L310.463 368.742
L310.613 174.342
L310.764 368.742
L392.473 368.742
L392.624 131.142
L392.774 368.742
L470.879 368.742
L470.879 368.742" style="fill:none;stroke:#bf00bf;stroke-linecap:square;"/>
   </g>
   <g id="line2d_13">
    <path clip-path="url(#p3262714fab)" d="
M24.4788 325.542
L24.629 368.742
L32.139 368.742
L32.2892 347.142
L32.4394 368.742
L37.9969 368.742
L38.1471 303.942
L38.2973 368.742
L42.9536 368.742
L43.1038 303.942
L43.254 368.742
L48.0604 368.742
L48.2106 347.142
L48.3608 368.742
L53.0171 368.742
L53.1673 325.542
L53.3175 368.742
L57.9738 368.742
L58.124 347.142
L58.2742 368.742
L67.2863 368.742
L67.4365 260.742
L67.5867 368.742
L79.9032 368.742
L80.0534 325.542
L80.2036 368.742
L82.4567 368.742
L82.6069 325.542
L82.7571 368.742
L91.619 368.742
L91.7692 347.142
L91.9194 368.742
L100.03 368.742
L100.18 347.142
L100.331 368.742
L104.386 368.742
L104.536 347.142
L104.687 368.742
L109.343 368.742
L109.493 347.142
L109.643 368.742
L114.299 368.742
L114.45 347.142
L114.6 368.742
L121.81 368.742
L121.96 347.142
L122.11 368.742
L131.122 368.742
L131.272 347.142
L131.422 368.742
L131.873 368.742
L132.023 347.142
L132.174 368.742
L139.383 368.742
L139.533 347.142
L139.684 368.742
L143.589 368.742
L143.739 195.942
L143.889 368.742
L150.198 368.742
L150.348 347.142
L150.498 368.742
L154.403 368.742
L154.554 260.742
L154.704 368.742
L163.716 368.742
L163.866 282.342
L164.016 368.742
L173.629 368.742
L173.779 347.142
L173.93 368.742
L179.487 368.742
L179.637 325.542
L179.787 368.742
L186.096 368.742
L186.246 303.942
L186.396 368.742
L195.258 368.742
L195.408 217.542
L195.559 368.742
L213.132 368.742
L213.283 325.542
L213.433 368.742
L219.591 368.742
L219.741 325.542
L219.891 368.742
L227.101 368.742
L227.251 325.542
L227.401 368.742
L235.963 368.742
L236.113 260.742
L236.263 368.742
L252.786 368.742
L252.936 195.942
L253.086 368.742
L274.114 368.742
L274.264 260.742
L274.415 368.742
L288.383 368.742
L288.534 325.542
L288.684 368.742
L297.095 368.742
L297.245 282.342
L297.396 368.742
L304.906 368.742
L305.056 282.342
L305.206 368.742
L327.136 368.742
L327.286 217.542
L327.436 368.742
L361.982 368.742
L362.133 174.342
L362.283 368.742
L409.446 368.742
L409.596 217.542
L409.747 368.742
L470.879 368.742
L470.879 368.742" style="fill:none;stroke:#bfbf00;stroke-linecap:square;"/>
   </g>
   <g id="line2d_14">
    <path clip-path="url(#p3262714fab)" d="
M24.4788 325.542
L24.629 368.742
L33.0403 368.742
L33.1905 282.342
L33.3407 368.742
L37.5463 368.742
L37.6965 325.542
L37.8467 368.742
L41.3014 368.742
L41.4516 325.542
L41.6018 368.742
L46.5584 368.742
L46.7086 325.542
L46.8588 368.742
L51.8155 368.742
L51.9657 347.142
L52.1159 368.742
L55.7207 368.742
L55.8709 303.942
L56.0211 368.742
L60.9778 368.742
L61.128 303.942
L61.2782 368.742
L66.2349 368.742
L66.3851 347.142
L66.5353 368.742
L72.2429 368.742
L72.3932 347.142
L72.5434 368.742
L79.1522 368.742
L79.3024 347.142
L79.4526 368.742
L81.5555 368.742
L81.7057 325.542
L81.8559 368.742
L97.4769 368.742
L97.6271 282.342
L97.7773 368.742
L104.386 368.742
L104.536 325.542
L104.687 368.742
L108.141 368.742
L108.291 325.542
L108.442 368.742
L114.149 368.742
L114.299 347.142
L114.45 368.742
L125.414 368.742
L125.565 347.142
L125.715 368.742
L133.075 368.742
L133.225 347.142
L133.375 368.742
L138.332 368.742
L138.482 260.742
L138.632 368.742
L144.34 368.742
L144.49 325.542
L144.64 368.742
L151.099 368.742
L151.249 109.542
L151.399 368.742
L175.281 368.742
L175.432 195.942
L175.582 368.742
L207.274 368.742
L207.425 282.342
L207.575 368.742
L238.216 368.742
L238.366 87.9417
L238.516 368.742
L294.842 368.742
L294.992 87.9417
L295.143 368.742
L394.576 368.742
L394.726 87.9417
L394.877 368.742
L460.064 368.742
L460.214 109.542
L460.365 368.742
L470.879 368.742
L470.879 368.742" style="fill:none;stroke:#000000;stroke-linecap:square;"/>
   </g>
   <g id="line2d_15">
    <path clip-path="url(#p3262714fab)" d="
M24.4788 303.942
L24.629 368.742
L30.0362 368.742
L30.1864 347.142
L30.3366 368.742
L36.0443 368.742
L36.1945 303.942
L36.3447 368.742
L40.8508 368.742
L41.001 347.142
L41.1512 368.742
L42.9536 368.742
L43.1038 325.542
L43.254 368.742
L50.0131 368.742
L50.1633 325.542
L50.3135 368.742
L54.8195 368.742
L54.9697 347.142
L55.1199 368.742
L60.377 368.742
L60.5272 325.542
L60.6774 368.742
L64.7329 368.742
L64.8831 347.142
L65.0333 368.742
L71.0413 368.742
L71.1915 347.142
L71.3417 368.742
L78.8518 368.742
L79.002 325.542
L79.1522 368.742
L84.4093 368.742
L84.5595 325.542
L84.7097 368.742
L86.5121 368.742
L86.6623 347.142
L86.8125 368.742
L94.3226 368.742
L94.4728 347.142
L94.623 368.742
L97.1765 368.742
L97.3267 303.942
L97.4769 368.742
L105.738 368.742
L105.888 303.942
L106.038 368.742
L122.41 368.742
L122.561 303.942
L122.711 368.742
L130.822 368.742
L130.972 260.742
L131.122 368.742
L140.585 368.742
L140.735 325.542
L140.885 368.742
L146.893 368.742
L147.043 347.142
L147.194 368.742
L149.146 368.742
L149.297 260.742
L149.447 368.742
L157.407 368.742
L157.558 174.342
L157.708 368.742
L176.333 368.742
L176.483 325.542
L176.633 368.742
L183.392 368.742
L183.543 282.342
L183.693 368.742
L191.053 368.742
L191.203 217.542
L191.353 368.742
L218.239 368.742
L218.389 174.342
L218.54 368.742
L261.497 368.742
L261.648 87.9417
L261.798 368.742
L343.658 368.742
L343.808 23.1417
L343.958 368.742
L450.151 368.742
L450.301 109.542
L450.451 368.742
L470.879 368.742
L470.879 368.742" style="fill:none;stroke:#0000ff;stroke-linecap:square;"/>
   </g>
   <g id="line2d_16">
    <path clip-path="url(#p3262714fab)" d="
M24.4788 325.542
L24.629 368.742
L30.637 368.742
L30.7872 347.142
L30.9374 368.742
L34.2419 368.742
L34.3921 347.142
L34.5423 368.742
L39.6491 368.742
L39.7993 325.542
L39.9495 368.742
L44.3054 368.742
L44.4556 325.542
L44.6058 368.742
L47.009 368.742
L47.1592 325.542
L47.3094 368.742
L55.1199 368.742
L55.2701 325.542
L55.4203 368.742
L60.5272 368.742
L60.6774 303.942
L60.8276 368.742
L64.5827 368.742
L64.7329 325.542
L64.8831 368.742
L69.2389 368.742
L69.3891 347.142
L69.5393 368.742
L72.0927 368.742
L72.2429 282.342
L72.3932 368.742
L77.5 368.742
L77.6502 282.342
L77.8004 368.742
L85.0101 368.742
L85.1603 347.142
L85.3105 368.742
L92.5202 368.742
L92.6704 347.142
L92.8206 368.742
L96.5757 368.742
L96.7259 303.942
L96.8761 368.742
L99.2793 368.742
L99.4295 347.142
L99.5797 368.742
L101.983 368.742
L102.133 303.942
L102.283 368.742
L106.189 368.742
L106.339 239.142
L106.489 368.742
L118.956 368.742
L119.106 303.942
L119.256 368.742
L128.418 368.742
L128.569 303.942
L128.719 368.742
L130.371 368.742
L130.521 239.142
L130.671 368.742
L145.241 368.742
L145.391 195.942
L145.541 368.742
L167.471 368.742
L167.621 23.1417
L167.771 368.742
L204.27 368.742
L204.421 174.342
L204.571 368.742
L270.509 368.742
L270.66 174.342
L270.81 368.742
L324.132 368.742
L324.282 131.142
L324.432 368.742
L412.6 368.742
L412.751 23.1417
L412.901 368.742
L470.879 368.742
L470.879 368.742" style="fill:none;stroke:#008000;stroke-linecap:square;"/>
   </g>
   <g id="patch_3">
    <path d="
M24.4788 23.1417
L470.879 23.1417" style="fill:none;stroke:#000000;stroke-linecap:square;stroke-linejoin:miter;"/>
   </g>
   <g id="patch_4">
    <path d="
M470.879 368.742
L470.879 23.1417" style="fill:none;stroke:#000000;stroke-linecap:square;stroke-linejoin:miter;"/>
   </g>
   <g id="patch_5">
    <path d="
M24.4788 368.742
L470.879 368.742" style="fill:none;stroke:#000000;stroke-linecap:square;stroke-linejoin:miter;"/>
   </g>
   <g id="patch_6">
    <path d="
M24.4788 368.742
L24.4788 23.1417" style="fill:none;stroke:#000000;stroke-linecap:square;stroke-linejoin:miter;"/>
   </g>
   <g id="matplotlib.axis_1">
    <g id="xtick_1">
     <g id="line2d_17">
      <defs>
       <path d="
M0 0
L0 -4" id="m93b0483c22" style="stroke:#000000;stroke-width:0.5;"/>
      </defs>
      <g>
       <use style="stroke:#000000;stroke-width:0.5;" x="24.47875" xlink:href="#m93b0483c22" y="368.74175"/>
      </g>
     </g>
     <g id="line2d_18">
      <defs>
       <path d="
M0 0
L0 4" id="m741efc42ff" style="stroke:#000000;stroke-width:0.5;"/>
      </defs>
      <g>
       <use style="stroke:#000000;stroke-width:0.5;" x="24.47875" xlink:href="#m741efc42ff" y="23.14175"/>
      </g>
     </g>
     <g id="text_1">
      <!-- 0 -->
      <defs>
       <path d="
M31.7812 66.4062
Q24.1719 66.4062 20.3281 58.9062
Q16.5 51.4219 16.5 36.375
Q16.5 21.3906 20.3281 13.8906
Q24.1719 6.39062 31.7812 6.39062
Q39.4531 6.39062 43.2812 13.8906
Q47.125 21.3906 47.125 36.375
Q47.125 51.4219 43.2812 58.9062
Q39.4531 66.4062 31.7812 66.4062
M31.7812 74.2188
Q44.0469 74.2188 50.5156 64.5156
Q56.9844 54.8281 56.9844 36.375
Q56.9844 17.9688 50.5156 8.26562
Q44.0469 -1.42188 31.7812 -1.42188
Q19.5312 -1.42188 13.0625 8.26562
Q6.59375 17.9688 6.59375 36.375
Q6.59375 54.8281 13.0625 64.5156
Q19.5312 74.2188 31.7812 74.2188" id="DejaVuSans-30"/>
      </defs>
      <g transform="translate(21.4553125 381.859875)scale(0.12 -0.12)">
       <use xlink:href="#DejaVuSans-30"/>
      </g>
     </g>
    </g>
    <g id="xtick_2">
     <g id="line2d_19">
      <g>
       <use style="stroke:#000000;stroke-width:0.5;" x="99.5796921265" xlink:href="#m93b0483c22" y="368.74175"/>
      </g>
     </g>
     <g id="line2d_20">
      <g>
       <use style="stroke:#000000;stroke-width:0.5;" x="99.5796921265" xlink:href="#m741efc42ff" y="23.14175"/>
      </g>
     </g>
     <g id="text_2">
      <!-- 500 -->
      <defs>
       <path d="
M10.7969 72.9062
L49.5156 72.9062
L49.5156 64.5938
L19.8281 64.5938
L19.8281 46.7344
Q21.9688 47.4688 24.1094 47.8281
Q26.2656 48.1875 28.4219 48.1875
Q40.625 48.1875 47.75 41.5
Q54.8906 34.8125 54.8906 23.3906
Q54.8906 11.625 47.5625 5.09375
Q40.2344 -1.42188 26.9062 -1.42188
Q22.3125 -1.42188 17.5469 -0.640625
Q12.7969 0.140625 7.71875 1.70312
L7.71875 11.625
Q12.1094 9.23438 16.7969 8.0625
Q21.4844 6.89062 26.7031 6.89062
Q35.1562 6.89062 40.0781 11.3281
Q45.0156 15.7656 45.0156 23.3906
Q45.0156 31 40.0781 35.4375
Q35.1562 39.8906 26.7031 39.8906
Q22.75 39.8906 18.8125 39.0156
Q14.8906 38.1406 10.7969 36.2812
z
" id="DejaVuSans-35"/>
      </defs>
      <g transform="translate(88.9887546265 381.859875)scale(0.12 -0.12)">
       <use xlink:href="#DejaVuSans-35"/>
       <use x="63.623046875" xlink:href="#DejaVuSans-30"/>
       <use x="127.24609375" xlink:href="#DejaVuSans-30"/>
      </g>
     </g>
    </g>
    <g id="xtick_3">
     <g id="line2d_21">
      <g>
       <use style="stroke:#000000;stroke-width:0.5;" x="174.680634253" xlink:href="#m93b0483c22" y="368.74175"/>
      </g>
     </g>
     <g id="line2d_22">
      <g>
       <use style="stroke:#000000;stroke-width:0.5;" x="174.680634253" xlink:href="#m741efc42ff" y="23.14175"/>
      </g>
     </g>
     <g id="text_3">
      <!-- 1000 -->
      <defs>
       <path d="
M12.4062 8.29688
L28.5156 8.29688
L28.5156 63.9219
L10.9844 60.4062
L10.9844 69.3906
L28.4219 72.9062
L38.2812 72.9062
L38.2812 8.29688
L54.3906 8.29688
L54.3906 0
L12.4062 0
z
" id="DejaVuSans-31"/>
      </defs>
      <g transform="translate(160.468134253 381.859875)scale(0.12 -0.12)">
       <use xlink:href="#DejaVuSans-31"/>
       <use x="63.623046875" xlink:href="#DejaVuSans-30"/>
       <use x="127.24609375" xlink:href="#DejaVuSans-30"/>
       <use x="190.869140625" xlink:href="#DejaVuSans-30"/>
      </g>
     </g>
    </g>
    <g id="xtick_4">
     <g id="line2d_23">
      <g>
       <use style="stroke:#000000;stroke-width:0.5;" x="249.78157638" xlink:href="#m93b0483c22" y="368.74175"/>
      </g>
     </g>
     <g id="line2d_24">
      <g>
       <use style="stroke:#000000;stroke-width:0.5;" x="249.78157638" xlink:href="#m741efc42ff" y="23.14175"/>
      </g>
     </g>
     <g id="text_4">
      <!-- 1500 -->
      <g transform="translate(235.56907638 381.859875)scale(0.12 -0.12)">
       <use xlink:href="#DejaVuSans-31"/>
       <use x="63.623046875" xlink:href="#DejaVuSans-35"/>
       <use x="127.24609375" xlink:href="#DejaVuSans-30"/>
       <use x="190.869140625" xlink:href="#DejaVuSans-30"/>
      </g>
     </g>
    </g>
    <g id="xtick_5">
     <g id="line2d_25">
      <g>
       <use style="stroke:#000000;stroke-width:0.5;" x="324.882518506" xlink:href="#m93b0483c22" y="368.74175"/>
      </g>
     </g>
     <g id="line2d_26">
      <g>
       <use style="stroke:#000000;stroke-width:0.5;" x="324.882518506" xlink:href="#m741efc42ff" y="23.14175"/>
      </g>
     </g>
     <g id="text_5">
      <!-- 2000 -->
      <defs>
       <path d="
M19.1875 8.29688
L53.6094 8.29688
L53.6094 0
L7.32812 0
L7.32812 8.29688
Q12.9375 14.1094 22.625 23.8906
Q32.3281 33.6875 34.8125 36.5312
Q39.5469 41.8438 41.4219 45.5312
Q43.3125 49.2188 43.3125 52.7812
Q43.3125 58.5938 39.2344 62.25
Q35.1562 65.9219 28.6094 65.9219
Q23.9688 65.9219 18.8125 64.3125
Q13.6719 62.7031 7.8125 59.4219
L7.8125 69.3906
Q13.7656 71.7812 18.9375 73
Q24.125 74.2188 28.4219 74.2188
Q39.75 74.2188 46.4844 68.5469
Q53.2188 62.8906 53.2188 53.4219
Q53.2188 48.9219 51.5312 44.8906
Q49.8594 40.875 45.4062 35.4062
Q44.1875 33.9844 37.6406 27.2188
Q31.1094 20.4531 19.1875 8.29688" id="DejaVuSans-32"/>
      </defs>
      <g transform="translate(310.450643506 381.859875)scale(0.12 -0.12)">
       <use xlink:href="#DejaVuSans-32"/>
       <use x="63.623046875" xlink:href="#DejaVuSans-30"/>
       <use x="127.24609375" xlink:href="#DejaVuSans-30"/>
       <use x="190.869140625" xlink:href="#DejaVuSans-30"/>
      </g>
     </g>
    </g>
    <g id="xtick_6">
     <g id="line2d_27">
      <g>
       <use style="stroke:#000000;stroke-width:0.5;" x="399.983460633" xlink:href="#m93b0483c22" y="368.74175"/>
      </g>
     </g>
     <g id="line2d_28">
      <g>
       <use style="stroke:#000000;stroke-width:0.5;" x="399.983460633" xlink:href="#m741efc42ff" y="23.14175"/>
      </g>
     </g>
     <g id="text_6">
      <!-- 2500 -->
      <g transform="translate(385.551585633 381.859875)scale(0.12 -0.12)">
       <use xlink:href="#DejaVuSans-32"/>
       <use x="63.623046875" xlink:href="#DejaVuSans-35"/>
       <use x="127.24609375" xlink:href="#DejaVuSans-30"/>
       <use x="190.869140625" xlink:href="#DejaVuSans-30"/>
      </g>
     </g>
    </g>
    <g id="text_7">
     <!-- time -->
     <defs>
      <path d="
M18.3125 70.2188
L18.3125 54.6875
L36.8125 54.6875
L36.8125 47.7031
L18.3125 47.7031
L18.3125 18.0156
Q18.3125 11.3281 20.1406 9.42188
Q21.9688 7.51562 27.5938 7.51562
L36.8125 7.51562
L36.8125 0
L27.5938 0
Q17.1875 0 13.2344 3.875
Q9.28125 7.76562 9.28125 18.0156
L9.28125 47.7031
L2.6875 47.7031
L2.6875 54.6875
L9.28125 54.6875
L9.28125 70.2188
z
" id="DejaVuSans-74"/>
      <path d="
M52 44.1875
Q55.375 50.25 60.0625 53.125
Q64.75 56 71.0938 56
Q79.6406 56 84.2812 50.0156
Q88.9219 44.0469 88.9219 33.0156
L88.9219 0
L79.8906 0
L79.8906 32.7188
Q79.8906 40.5781 77.0938 44.375
Q74.3125 48.1875 68.6094 48.1875
Q61.625 48.1875 57.5625 43.5469
Q53.5156 38.9219 53.5156 30.9062
L53.5156 0
L44.4844 0
L44.4844 32.7188
Q44.4844 40.625 41.7031 44.4062
Q38.9219 48.1875 33.1094 48.1875
Q26.2188 48.1875 22.1562 43.5312
Q18.1094 38.875 18.1094 30.9062
L18.1094 0
L9.07812 0
L9.07812 54.6875
L18.1094 54.6875
L18.1094 46.1875
Q21.1875 51.2188 25.4844 53.6094
Q29.7812 56 35.6875 56
Q41.6562 56 45.8281 52.9688
Q50 49.9531 52 44.1875" id="DejaVuSans-6d"/>
      <path d="
M56.2031 29.5938
L56.2031 25.2031
L14.8906 25.2031
Q15.4844 15.9219 20.4844 11.0625
Q25.4844 6.20312 34.4219 6.20312
Q39.5938 6.20312 44.4531 7.46875
Q49.3125 8.73438 54.1094 11.2812
L54.1094 2.78125
Q49.2656 0.734375 44.1875 -0.34375
Q39.1094 -1.42188 33.8906 -1.42188
Q20.7969 -1.42188 13.1562 6.1875
Q5.51562 13.8125 5.51562 26.8125
Q5.51562 40.2344 12.7656 48.1094
Q20.0156 56 32.3281 56
Q43.3594 56 49.7812 48.8906
Q56.2031 41.7969 56.2031 29.5938
M47.2188 32.2344
Q47.125 39.5938 43.0938 43.9844
Q39.0625 48.3906 32.4219 48.3906
Q24.9062 48.3906 20.3906 44.1406
Q15.875 39.8906 15.1875 32.1719
z
" id="DejaVuSans-65"/>
      <path d="
M9.42188 54.6875
L18.4062 54.6875
L18.4062 0
L9.42188 0
z

M9.42188 75.9844
L18.4062 75.9844
L18.4062 64.5938
L9.42188 64.5938
z
" id="DejaVuSans-69"/>
     </defs>
     <g transform="translate(234.604375 398.473625)scale(0.12 -0.12)">
      <use xlink:href="#DejaVuSans-74"/>
      <use x="39.208984375" xlink:href="#DejaVuSans-69"/>
      <use x="66.9921875" xlink:href="#DejaVuSans-6d"/>
      <use x="164.404296875" xlink:href="#DejaVuSans-65"/>
     </g>
    </g>
   </g>
   <g id="matplotlib.axis_2">
    <g id="ytick_1">
     <g id="line2d_29">
      <defs>
       <path d="
M0 0
L4 0" id="m728421d6d4" style="stroke:#000000;stroke-width:0.5;"/>
      </defs>
      <g>
       <use style="stroke:#000000;stroke-width:0.5;" x="24.47875" xlink:href="#m728421d6d4" y="368.74175"/>
      </g>
     </g>
     <g id="line2d_30">
      <defs>
       <path d="
M0 0
L-4 0" id="mcb0005524f" style="stroke:#000000;stroke-width:0.5;"/>
      </defs>
      <g>
       <use style="stroke:#000000;stroke-width:0.5;" x="470.87875" xlink:href="#mcb0005524f" y="368.74175"/>
      </g>
     </g>
     <g id="text_8">
      <!-- 0 -->
      <g transform="translate(14.431875 372.053)scale(0.12 -0.12)">
       <use xlink:href="#DejaVuSans-30"/>
      </g>
     </g>
    </g>
    <g id="ytick_2">
     <g id="line2d_31">
      <g>
       <use style="stroke:#000000;stroke-width:0.5;" x="24.47875" xlink:href="#m728421d6d4" y="325.54175"/>
      </g>
     </g>
     <g id="line2d_32">
      <g>
       <use style="stroke:#000000;stroke-width:0.5;" x="470.87875" xlink:href="#mcb0005524f" y="325.54175"/>
      </g>
     </g>
     <g id="text_9">
      <!-- 2 -->
      <g transform="translate(14.925 328.853)scale(0.12 -0.12)">
       <use xlink:href="#DejaVuSans-32"/>
      </g>
     </g>
    </g>
    <g id="ytick_3">
     <g id="line2d_33">
      <g>
       <use style="stroke:#000000;stroke-width:0.5;" x="24.47875" xlink:href="#m728421d6d4" y="282.34175"/>
      </g>
     </g>
     <g id="line2d_34">
      <g>
       <use style="stroke:#000000;stroke-width:0.5;" x="470.87875" xlink:href="#mcb0005524f" y="282.34175"/>
      </g>
     </g>
     <g id="text_10">
      <!-- 4 -->
      <defs>
       <path d="
M37.7969 64.3125
L12.8906 25.3906
L37.7969 25.3906
z

M35.2031 72.9062
L47.6094 72.9062
L47.6094 25.3906
L58.0156 25.3906
L58.0156 17.1875
L47.6094 17.1875
L47.6094 0
L37.7969 0
L37.7969 17.1875
L4.89062 17.1875
L4.89062 26.7031
z
" id="DejaVuSans-34"/>
      </defs>
      <g transform="translate(14.10375 285.653)scale(0.12 -0.12)">
       <use xlink:href="#DejaVuSans-34"/>
      </g>
     </g>
    </g>
    <g id="ytick_4">
     <g id="line2d_35">
      <g>
       <use style="stroke:#000000;stroke-width:0.5;" x="24.47875" xlink:href="#m728421d6d4" y="239.14175"/>
      </g>
     </g>
     <g id="line2d_36">
      <g>
       <use style="stroke:#000000;stroke-width:0.5;" x="470.87875" xlink:href="#mcb0005524f" y="239.14175"/>
      </g>
     </g>
     <g id="text_11">
      <!-- 6 -->
      <defs>
       <path d="
M33.0156 40.375
Q26.375 40.375 22.4844 35.8281
Q18.6094 31.2969 18.6094 23.3906
Q18.6094 15.5312 22.4844 10.9531
Q26.375 6.39062 33.0156 6.39062
Q39.6562 6.39062 43.5312 10.9531
Q47.4062 15.5312 47.4062 23.3906
Q47.4062 31.2969 43.5312 35.8281
Q39.6562 40.375 33.0156 40.375
M52.5938 71.2969
L52.5938 62.3125
Q48.875 64.0625 45.0938 64.9844
Q41.3125 65.9219 37.5938 65.9219
Q27.8281 65.9219 22.6719 59.3281
Q17.5312 52.7344 16.7969 39.4062
Q19.6719 43.6562 24.0156 45.9219
Q28.375 48.1875 33.5938 48.1875
Q44.5781 48.1875 50.9531 41.5156
Q57.3281 34.8594 57.3281 23.3906
Q57.3281 12.1562 50.6875 5.35938
Q44.0469 -1.42188 33.0156 -1.42188
Q20.3594 -1.42188 13.6719 8.26562
Q6.98438 17.9688 6.98438 36.375
Q6.98438 53.6562 15.1875 63.9375
Q23.3906 74.2188 37.2031 74.2188
Q40.9219 74.2188 44.7031 73.4844
Q48.4844 72.75 52.5938 71.2969" id="DejaVuSans-36"/>
      </defs>
      <g transform="translate(14.4375 242.453)scale(0.12 -0.12)">
       <use xlink:href="#DejaVuSans-36"/>
      </g>
     </g>
    </g>
    <g id="ytick_5">
     <g id="line2d_37">
      <g>
       <use style="stroke:#000000;stroke-width:0.5;" x="24.47875" xlink:href="#m728421d6d4" y="195.94175"/>
      </g>
     </g>
     <g id="line2d_38">
      <g>
       <use style="stroke:#000000;stroke-width:0.5;" x="470.87875" xlink:href="#mcb0005524f" y="195.94175"/>
      </g>
     </g>
     <g id="text_12">
      <!-- 8 -->
      <defs>
       <path d="
M31.7812 34.625
Q24.75 34.625 20.7188 30.8594
Q16.7031 27.0938 16.7031 20.5156
Q16.7031 13.9219 20.7188 10.1562
Q24.75 6.39062 31.7812 6.39062
Q38.8125 6.39062 42.8594 10.1719
Q46.9219 13.9688 46.9219 20.5156
Q46.9219 27.0938 42.8906 30.8594
Q38.875 34.625 31.7812 34.625
M21.9219 38.8125
Q15.5781 40.375 12.0312 44.7188
Q8.5 49.0781 8.5 55.3281
Q8.5 64.0625 14.7188 69.1406
Q20.9531 74.2188 31.7812 74.2188
Q42.6719 74.2188 48.875 69.1406
Q55.0781 64.0625 55.0781 55.3281
Q55.0781 49.0781 51.5312 44.7188
Q48 40.375 41.7031 38.8125
Q48.8281 37.1562 52.7969 32.3125
Q56.7812 27.4844 56.7812 20.5156
Q56.7812 9.90625 50.3125 4.23438
Q43.8438 -1.42188 31.7812 -1.42188
Q19.7344 -1.42188 13.25 4.23438
Q6.78125 9.90625 6.78125 20.5156
Q6.78125 27.4844 10.7812 32.3125
Q14.7969 37.1562 21.9219 38.8125
M18.3125 54.3906
Q18.3125 48.7344 21.8438 45.5625
Q25.3906 42.3906 31.7812 42.3906
Q38.1406 42.3906 41.7188 45.5625
Q45.3125 48.7344 45.3125 54.3906
Q45.3125 60.0625 41.7188 63.2344
Q38.1406 66.4062 31.7812 66.4062
Q25.3906 66.4062 21.8438 63.2344
Q18.3125 60.0625 18.3125 54.3906" id="DejaVuSans-38"/>
      </defs>
      <g transform="translate(14.47875 199.253)scale(0.12 -0.12)">
       <use xlink:href="#DejaVuSans-38"/>
      </g>
     </g>
    </g>
    <g id="ytick_6">
     <g id="line2d_39">
      <g>
       <use style="stroke:#000000;stroke-width:0.5;" x="24.47875" xlink:href="#m728421d6d4" y="152.74175"/>
      </g>
     </g>
     <g id="line2d_40">
      <g>
       <use style="stroke:#000000;stroke-width:0.5;" x="470.87875" xlink:href="#mcb0005524f" y="152.74175"/>
      </g>
     </g>
     <g id="text_13">
      <!-- 10 -->
      <g transform="translate(7.32375 156.053)scale(0.12 -0.12)">
       <use xlink:href="#DejaVuSans-31"/>
       <use x="63.623046875" xlink:href="#DejaVuSans-30"/>
      </g>
     </g>
    </g>
    <g id="ytick_7">
     <g id="line2d_41">
      <g>
       <use style="stroke:#000000;stroke-width:0.5;" x="24.47875" xlink:href="#m728421d6d4" y="109.54175"/>
      </g>
     </g>
     <g id="line2d_42">
      <g>
       <use style="stroke:#000000;stroke-width:0.5;" x="470.87875" xlink:href="#mcb0005524f" y="109.54175"/>
      </g>
     </g>
     <g id="text_14">
      <!-- 12 -->
      <g transform="translate(7.72875 112.853)scale(0.12 -0.12)">
       <use xlink:href="#DejaVuSans-31"/>
       <use x="63.623046875" xlink:href="#DejaVuSans-32"/>
      </g>
     </g>
    </g>
    <g id="ytick_8">
     <g id="line2d_43">
      <g>
       <use style="stroke:#000000;stroke-width:0.5;" x="24.47875" xlink:href="#m728421d6d4" y="66.34175"/>
      </g>
     </g>
     <g id="line2d_44">
      <g>
       <use style="stroke:#000000;stroke-width:0.5;" x="470.87875" xlink:href="#mcb0005524f" y="66.34175"/>
      </g>
     </g>
     <g id="text_15">
      <!-- 14 -->
      <g transform="translate(7.2 69.653)scale(0.12 -0.12)">
       <use xlink:href="#DejaVuSans-31"/>
       <use x="63.623046875" xlink:href="#DejaVuSans-34"/>
      </g>
     </g>
    </g>
    <g id="ytick_9">
     <g id="line2d_45">
      <g>
       <use style="stroke:#000000;stroke-width:0.5;" x="24.47875" xlink:href="#m728421d6d4" y="23.14175"/>
      </g>
     </g>
     <g id="line2d_46">
      <g>
       <use style="stroke:#000000;stroke-width:0.5;" x="470.87875" xlink:href="#mcb0005524f" y="23.14175"/>
      </g>
     </g>
     <g id="text_16">
      <!-- 16 -->
      <g transform="translate(7.2825 26.453)scale(0.12 -0.12)">
       <use xlink:href="#DejaVuSans-31"/>
       <use x="63.623046875" xlink:href="#DejaVuSans-36"/>
      </g>
     </g>
    </g>
   </g>
   <g id="text_17">
    <!-- /agas/count/allocate change -->
    <defs>
     <path d="
M25.3906 72.9062
L33.6875 72.9062
L8.29688 -9.28125
L0 -9.28125
z
" id="DejaVuSans-2f"/>
     <path d="
M30.6094 48.3906
Q23.3906 48.3906 19.1875 42.75
Q14.9844 37.1094 14.9844 27.2969
Q14.9844 17.4844 19.1562 11.8438
Q23.3438 6.20312 30.6094 6.20312
Q37.7969 6.20312 41.9844 11.8594
Q46.1875 17.5312 46.1875 27.2969
Q46.1875 37.0156 41.9844 42.7031
Q37.7969 48.3906 30.6094 48.3906
M30.6094 56
Q42.3281 56 49.0156 48.375
Q55.7188 40.7656 55.7188 27.2969
Q55.7188 13.875 49.0156 6.21875
Q42.3281 -1.42188 30.6094 -1.42188
Q18.8438 -1.42188 12.1719 6.21875
Q5.51562 13.875 5.51562 27.2969
Q5.51562 40.7656 12.1719 48.375
Q18.8438 56 30.6094 56" id="DejaVuSans-6f"/>
     <path d="
M54.8906 33.0156
L54.8906 0
L45.9062 0
L45.9062 32.7188
Q45.9062 40.4844 42.875 44.3281
Q39.8438 48.1875 33.7969 48.1875
Q26.5156 48.1875 22.3125 43.5469
Q18.1094 38.9219 18.1094 30.9062
L18.1094 0
L9.07812 0
L9.07812 54.6875
L18.1094 54.6875
L18.1094 46.1875
Q21.3438 51.125 25.7031 53.5625
Q30.0781 56 35.7969 56
Q45.2188 56 50.0469 50.1719
Q54.8906 44.3438 54.8906 33.0156" id="DejaVuSans-6e"/>
     <path d="
M9.42188 75.9844
L18.4062 75.9844
L18.4062 0
L9.42188 0
z
" id="DejaVuSans-6c"/>
     <path id="DejaVuSans-20"/>
     <path d="
M54.8906 33.0156
L54.8906 0
L45.9062 0
L45.9062 32.7188
Q45.9062 40.4844 42.875 44.3281
Q39.8438 48.1875 33.7969 48.1875
Q26.5156 48.1875 22.3125 43.5469
Q18.1094 38.9219 18.1094 30.9062
L18.1094 0
L9.07812 0
L9.07812 75.9844
L18.1094 75.9844
L18.1094 46.1875
Q21.3438 51.125 25.7031 53.5625
Q30.0781 56 35.7969 56
Q45.2188 56 50.0469 50.1719
Q54.8906 44.3438 54.8906 33.0156" id="DejaVuSans-68"/>
     <path d="
M8.5 21.5781
L8.5 54.6875
L17.4844 54.6875
L17.4844 21.9219
Q17.4844 14.1562 20.5 10.2656
Q23.5312 6.39062 29.5938 6.39062
Q36.8594 6.39062 41.0781 11.0312
Q45.3125 15.6719 45.3125 23.6875
L45.3125 54.6875
L54.2969 54.6875
L54.2969 0
L45.3125 0
L45.3125 8.40625
Q42.0469 3.42188 37.7188 1
Q33.4062 -1.42188 27.6875 -1.42188
Q18.2656 -1.42188 13.375 4.4375
Q8.5 10.2969 8.5 21.5781
M31.1094 56
z
" id="DejaVuSans-75"/>
     <path d="
M45.4062 27.9844
Q45.4062 37.75 41.375 43.1094
Q37.3594 48.4844 30.0781 48.4844
Q22.8594 48.4844 18.8281 43.1094
Q14.7969 37.75 14.7969 27.9844
Q14.7969 18.2656 18.8281 12.8906
Q22.8594 7.51562 30.0781 7.51562
Q37.3594 7.51562 41.375 12.8906
Q45.4062 18.2656 45.4062 27.9844
M54.3906 6.78125
Q54.3906 -7.17188 48.1875 -13.9844
Q42 -20.7969 29.2031 -20.7969
Q24.4688 -20.7969 20.2656 -20.0938
Q16.0625 -19.3906 12.1094 -17.9219
L12.1094 -9.1875
Q16.0625 -11.3281 19.9219 -12.3438
Q23.7812 -13.375 27.7812 -13.375
Q36.625 -13.375 41.0156 -8.76562
Q45.4062 -4.15625 45.4062 5.17188
L45.4062 9.625
Q42.625 4.78125 38.2812 2.39062
Q33.9375 0 27.875 0
Q17.8281 0 11.6719 7.65625
Q5.51562 15.3281 5.51562 27.9844
Q5.51562 40.6719 11.6719 48.3281
Q17.8281 56 27.875 56
Q33.9375 56 38.2812 53.6094
Q42.625 51.2188 45.4062 46.3906
L45.4062 54.6875
L54.3906 54.6875
z
" id="DejaVuSans-67"/>
     <path d="
M48.7812 52.5938
L48.7812 44.1875
Q44.9688 46.2969 41.1406 47.3438
Q37.3125 48.3906 33.4062 48.3906
Q24.6562 48.3906 19.8125 42.8438
Q14.9844 37.3125 14.9844 27.2969
Q14.9844 17.2812 19.8125 11.7344
Q24.6562 6.20312 33.4062 6.20312
Q37.3125 6.20312 41.1406 7.25
Q44.9688 8.29688 48.7812 10.4062
L48.7812 2.09375
Q45.0156 0.34375 40.9844 -0.53125
Q36.9688 -1.42188 32.4219 -1.42188
Q20.0625 -1.42188 12.7812 6.34375
Q5.51562 14.1094 5.51562 27.2969
Q5.51562 40.6719 12.8594 48.3281
Q20.2188 56 33.0156 56
Q37.1562 56 41.1094 55.1406
Q45.0625 54.2969 48.7812 52.5938" id="DejaVuSans-63"/>
     <path d="
M44.2812 53.0781
L44.2812 44.5781
Q40.4844 46.5312 36.375 47.5
Q32.2812 48.4844 27.875 48.4844
Q21.1875 48.4844 17.8438 46.4375
Q14.5 44.3906 14.5 40.2812
Q14.5 37.1562 16.8906 35.375
Q19.2812 33.5938 26.5156 31.9844
L29.5938 31.2969
Q39.1562 29.25 43.1875 25.5156
Q47.2188 21.7812 47.2188 15.0938
Q47.2188 7.46875 41.1875 3.01562
Q35.1562 -1.42188 24.6094 -1.42188
Q20.2188 -1.42188 15.4531 -0.5625
Q10.6875 0.296875 5.42188 2
L5.42188 11.2812
Q10.4062 8.6875 15.2344 7.39062
Q20.0625 6.10938 24.8125 6.10938
Q31.1562 6.10938 34.5625 8.28125
Q37.9844 10.4531 37.9844 14.4062
Q37.9844 18.0625 35.5156 20.0156
Q33.0625 21.9688 24.7031 23.7812
L21.5781 24.5156
Q13.2344 26.2656 9.51562 29.9062
Q5.8125 33.5469 5.8125 39.8906
Q5.8125 47.6094 11.2812 51.7969
Q16.75 56 26.8125 56
Q31.7812 56 36.1719 55.2656
Q40.5781 54.5469 44.2812 53.0781" id="DejaVuSans-73"/>
     <path d="
M34.2812 27.4844
Q23.3906 27.4844 19.1875 25
Q14.9844 22.5156 14.9844 16.5
Q14.9844 11.7188 18.1406 8.90625
Q21.2969 6.10938 26.7031 6.10938
Q34.1875 6.10938 38.7031 11.4062
Q43.2188 16.7031 43.2188 25.4844
L43.2188 27.4844
z

M52.2031 31.2031
L52.2031 0
L43.2188 0
L43.2188 8.29688
Q40.1406 3.32812 35.5469 0.953125
Q30.9531 -1.42188 24.3125 -1.42188
Q15.9219 -1.42188 10.9531 3.29688
Q6 8.01562 6 15.9219
Q6 25.1406 12.1719 29.8281
Q18.3594 34.5156 30.6094 34.5156
L43.2188 34.5156
L43.2188 35.4062
Q43.2188 41.6094 39.1406 45
Q35.0625 48.3906 27.6875 48.3906
Q23 48.3906 18.5469 47.2656
Q14.1094 46.1406 10.0156 43.8906
L10.0156 52.2031
Q14.9375 54.1094 19.5781 55.0469
Q24.2188 56 28.6094 56
Q40.4844 56 46.3438 49.8438
Q52.2031 43.7031 52.2031 31.2031" id="DejaVuSans-61"/>
    </defs>
    <g transform="translate(146.098 18.14175)scale(0.144 -0.144)">
     <use xlink:href="#DejaVuSans-2f"/>
     <use x="33.69140625" xlink:href="#DejaVuSans-61"/>
     <use x="94.970703125" xlink:href="#DejaVuSans-67"/>
     <use x="158.447265625" xlink:href="#DejaVuSans-61"/>
     <use x="219.7265625" xlink:href="#DejaVuSans-73"/>
     <use x="271.826171875" xlink:href="#DejaVuSans-2f"/>
     <use x="305.517578125" xlink:href="#DejaVuSans-63"/>
     <use x="360.498046875" xlink:href="#DejaVuSans-6f"/>
     <use x="421.6796875" xlink:href="#DejaVuSans-75"/>
     <use x="485.05859375" xlink:href="#DejaVuSans-6e"/>
     <use x="548.4375" xlink:href="#DejaVuSans-74"/>
     <use x="587.646484375" xlink:href="#DejaVuSans-2f"/>
     <use x="621.337890625" xlink:href="#DejaVuSans-61"/>
     <use x="682.6171875" xlink:href="#DejaVuSans-6c"/>
     <use x="710.400390625" xlink:href="#DejaVuSans-6c"/>
     <use x="738.18359375" xlink:href="#DejaVuSans-6f"/>
     <use x="799.365234375" xlink:href="#DejaVuSans-63"/>
     <use x="854.345703125" xlink:href="#DejaVuSans-61"/>
     <use x="915.625" xlink:href="#DejaVuSans-74"/>
     <use x="954.833984375" xlink:href="#DejaVuSans-65"/>
     <use x="1016.35742188" xlink:href="#DejaVuSans-20"/>
     <use x="1048.14453125" xlink:href="#DejaVuSans-63"/>
     <use x="1103.125" xlink:href="#DejaVuSans-68"/>
     <use x="1166.50390625" xlink:href="#DejaVuSans-61"/>
     <use x="1227.78320312" xlink:href="#DejaVuSans-6e"/>
     <use x="1291.16210938" xlink:href="#DejaVuSans-67"/>
     <use x="1354.63867188" xlink:href="#DejaVuSans-65"/>
    </g>
   </g>
   <g id="legend_1">
    <g id="patch_7">
     <path d="
M478.079 367.194
L609.868 367.194
L609.868 24.6897
L478.079 24.6897
z
" style="fill:#ffffff;stroke:#000000;stroke-linejoin:miter;"/>
    </g>
    <g id="line2d_47">
     <path d="
M488.159 36.3515
L508.319 36.3515" style="fill:none;stroke:#0000ff;stroke-linecap:square;"/>
    </g>
    <g id="line2d_48"/>
    <g id="text_18">
     <!-- locality#0 -->
     <defs>
      <path d="
M51.125 44
L36.9219 44
L32.8125 27.6875
L47.125 27.6875
z

M43.7969 71.7812
L38.7188 51.5156
L52.9844 51.5156
L58.1094 71.7812
L65.9219 71.7812
L60.8906 51.5156
L76.125 51.5156
L76.125 44
L58.9844 44
L54.9844 27.6875
L70.5156 27.6875
L70.5156 20.2188
L53.0781 20.2188
L48 0
L40.1875 0
L45.2188 20.2188
L30.9062 20.2188
L25.875 0
L18.0156 0
L23.0938 20.2188
L7.71875 20.2188
L7.71875 27.6875
L24.9062 27.6875
L29 44
L13.2812 44
L13.2812 51.5156
L30.9062 51.5156
L35.8906 71.7812
z
" id="DejaVuSans-23"/>
      <path d="
M32.1719 -5.07812
Q28.375 -14.8438 24.75 -17.8125
Q21.1406 -20.7969 15.0938 -20.7969
L7.90625 -20.7969
L7.90625 -13.2812
L13.1875 -13.2812
Q16.8906 -13.2812 18.9375 -11.5156
Q21 -9.76562 23.4844 -3.21875
L25.0938 0.875
L2.98438 54.6875
L12.5 54.6875
L29.5938 11.9219
L46.6875 54.6875
L56.2031 54.6875
z
" id="DejaVuSans-79"/>
     </defs>
     <g transform="translate(524.15875 41.3915)scale(0.144 -0.144)">
      <use xlink:href="#DejaVuSans-6c"/>
      <use x="27.783203125" xlink:href="#DejaVuSans-6f"/>
      <use x="88.96484375" xlink:href="#DejaVuSans-63"/>
      <use x="143.9453125" xlink:href="#DejaVuSans-61"/>
      <use x="205.224609375" xlink:href="#DejaVuSans-6c"/>
      <use x="233.0078125" xlink:href="#DejaVuSans-69"/>
      <use x="260.791015625" xlink:href="#DejaVuSans-74"/>
      <use x="300.0" xlink:href="#DejaVuSans-79"/>
      <use x="359.1796875" xlink:href="#DejaVuSans-23"/>
      <use x="442.96875" xlink:href="#DejaVuSans-30"/>
     </g>
    </g>
    <g id="line2d_49">
     <path d="
M488.159 57.488
L508.319 57.488" style="fill:none;stroke:#008000;stroke-linecap:square;"/>
    </g>
    <g id="line2d_50"/>
    <g id="text_19">
     <!-- locality#1 -->
     <g transform="translate(524.15875 62.528)scale(0.144 -0.144)">
      <use xlink:href="#DejaVuSans-6c"/>
      <use x="27.783203125" xlink:href="#DejaVuSans-6f"/>
      <use x="88.96484375" xlink:href="#DejaVuSans-63"/>
      <use x="143.9453125" xlink:href="#DejaVuSans-61"/>
      <use x="205.224609375" xlink:href="#DejaVuSans-6c"/>
      <use x="233.0078125" xlink:href="#DejaVuSans-69"/>
      <use x="260.791015625" xlink:href="#DejaVuSans-74"/>
      <use x="300.0" xlink:href="#DejaVuSans-79"/>
      <use x="359.1796875" xlink:href="#DejaVuSans-23"/>
      <use x="442.96875" xlink:href="#DejaVuSans-31"/>
     </g>
    </g>
    <g id="line2d_51">
     <path d="
M488.159 78.6245
L508.319 78.6245" style="fill:none;stroke:#ff0000;stroke-linecap:square;"/>
    </g>
    <g id="line2d_52"/>
    <g id="text_20">
     <!-- locality#10 -->
     <g transform="translate(524.15875 83.6645)scale(0.144 -0.144)">
      <use xlink:href="#DejaVuSans-6c"/>
      <use x="27.783203125" xlink:href="#DejaVuSans-6f"/>
      <use x="88.96484375" xlink:href="#DejaVuSans-63"/>
      <use x="143.9453125" xlink:href="#DejaVuSans-61"/>
      <use x="205.224609375" xlink:href="#DejaVuSans-6c"/>
      <use x="233.0078125" xlink:href="#DejaVuSans-69"/>
      <use x="260.791015625" xlink:href="#DejaVuSans-74"/>
      <use x="300.0" xlink:href="#DejaVuSans-79"/>
      <use x="359.1796875" xlink:href="#DejaVuSans-23"/>
      <use x="442.96875" xlink:href="#DejaVuSans-31"/>
      <use x="506.591796875" xlink:href="#DejaVuSans-30"/>
     </g>
    </g>
    <g id="line2d_53">
     <path d="
M488.159 99.761
L508.319 99.761" style="fill:none;stroke:#00bfbf;stroke-linecap:square;"/>
    </g>
    <g id="line2d_54"/>
    <g id="text_21">
     <!-- locality#11 -->
     <g transform="translate(524.15875 104.801)scale(0.144 -0.144)">
      <use xlink:href="#DejaVuSans-6c"/>
      <use x="27.783203125" xlink:href="#DejaVuSans-6f"/>
      <use x="88.96484375" xlink:href="#DejaVuSans-63"/>
      <use x="143.9453125" xlink:href="#DejaVuSans-61"/>
      <use x="205.224609375" xlink:href="#DejaVuSans-6c"/>
      <use x="233.0078125" xlink:href="#DejaVuSans-69"/>
      <use x="260.791015625" xlink:href="#DejaVuSans-74"/>
      <use x="300.0" xlink:href="#DejaVuSans-79"/>
      <use x="359.1796875" xlink:href="#DejaVuSans-23"/>
      <use x="442.96875" xlink:href="#DejaVuSans-31"/>
      <use x="506.591796875" xlink:href="#DejaVuSans-31"/>
     </g>
    </g>
    <g id="line2d_55">
     <path d="
M488.159 120.897
L508.319 120.897" style="fill:none;stroke:#bf00bf;stroke-linecap:square;"/>
    </g>
    <g id="line2d_56"/>
    <g id="text_22">
     <!-- locality#12 -->
     <g transform="translate(524.15875 125.9375)scale(0.144 -0.144)">
      <use xlink:href="#DejaVuSans-6c"/>
      <use x="27.783203125" xlink:href="#DejaVuSans-6f"/>
      <use x="88.96484375" xlink:href="#DejaVuSans-63"/>
      <use x="143.9453125" xlink:href="#DejaVuSans-61"/>
      <use x="205.224609375" xlink:href="#DejaVuSans-6c"/>
      <use x="233.0078125" xlink:href="#DejaVuSans-69"/>
      <use x="260.791015625" xlink:href="#DejaVuSans-74"/>
      <use x="300.0" xlink:href="#DejaVuSans-79"/>
      <use x="359.1796875" xlink:href="#DejaVuSans-23"/>
      <use x="442.96875" xlink:href="#DejaVuSans-31"/>
      <use x="506.591796875" xlink:href="#DejaVuSans-32"/>
     </g>
    </g>
    <g id="line2d_57">
     <path d="
M488.159 142.034
L508.319 142.034" style="fill:none;stroke:#bfbf00;stroke-linecap:square;"/>
    </g>
    <g id="line2d_58"/>
    <g id="text_23">
     <!-- locality#13 -->
     <defs>
      <path d="
M40.5781 39.3125
Q47.6562 37.7969 51.625 33
Q55.6094 28.2188 55.6094 21.1875
Q55.6094 10.4062 48.1875 4.48438
Q40.7656 -1.42188 27.0938 -1.42188
Q22.5156 -1.42188 17.6562 -0.515625
Q12.7969 0.390625 7.625 2.20312
L7.625 11.7188
Q11.7188 9.32812 16.5938 8.10938
Q21.4844 6.89062 26.8125 6.89062
Q36.0781 6.89062 40.9375 10.5469
Q45.7969 14.2031 45.7969 21.1875
Q45.7969 27.6406 41.2812 31.2656
Q36.7656 34.9062 28.7188 34.9062
L20.2188 34.9062
L20.2188 43.0156
L29.1094 43.0156
Q36.375 43.0156 40.2344 45.9219
Q44.0938 48.8281 44.0938 54.2969
Q44.0938 59.9062 40.1094 62.9062
Q36.1406 65.9219 28.7188 65.9219
Q24.6562 65.9219 20.0156 65.0312
Q15.375 64.1562 9.8125 62.3125
L9.8125 71.0938
Q15.4375 72.6562 20.3438 73.4375
Q25.25 74.2188 29.5938 74.2188
Q40.8281 74.2188 47.3594 69.1094
Q53.9062 64.0156 53.9062 55.3281
Q53.9062 49.2656 50.4375 45.0938
Q46.9688 40.9219 40.5781 39.3125" id="DejaVuSans-33"/>
     </defs>
     <g transform="translate(524.15875 147.074)scale(0.144 -0.144)">
      <use xlink:href="#DejaVuSans-6c"/>
      <use x="27.783203125" xlink:href="#DejaVuSans-6f"/>
      <use x="88.96484375" xlink:href="#DejaVuSans-63"/>
      <use x="143.9453125" xlink:href="#DejaVuSans-61"/>
      <use x="205.224609375" xlink:href="#DejaVuSans-6c"/>
      <use x="233.0078125" xlink:href="#DejaVuSans-69"/>
      <use x="260.791015625" xlink:href="#DejaVuSans-74"/>
      <use x="300.0" xlink:href="#DejaVuSans-79"/>
      <use x="359.1796875" xlink:href="#DejaVuSans-23"/>
      <use x="442.96875" xlink:href="#DejaVuSans-31"/>
      <use x="506.591796875" xlink:href="#DejaVuSans-33"/>
     </g>
    </g>
    <g id="line2d_59">
     <path d="
M488.159 163.17
L508.319 163.17" style="fill:none;stroke:#000000;stroke-linecap:square;"/>
    </g>
    <g id="line2d_60"/>
    <g id="text_24">
     <!-- locality#14 -->
     <g transform="translate(524.15875 168.2105)scale(0.144 -0.144)">
      <use xlink:href="#DejaVuSans-6c"/>
      <use x="27.783203125" xlink:href="#DejaVuSans-6f"/>
      <use x="88.96484375" xlink:href="#DejaVuSans-63"/>
      <use x="143.9453125" xlink:href="#DejaVuSans-61"/>
      <use x="205.224609375" xlink:href="#DejaVuSans-6c"/>
      <use x="233.0078125" xlink:href="#DejaVuSans-69"/>
      <use x="260.791015625" xlink:href="#DejaVuSans-74"/>
      <use x="300.0" xlink:href="#DejaVuSans-79"/>
      <use x="359.1796875" xlink:href="#DejaVuSans-23"/>
      <use x="442.96875" xlink:href="#DejaVuSans-31"/>
      <use x="506.591796875" xlink:href="#DejaVuSans-34"/>
     </g>
    </g>
    <g id="line2d_61">
     <path d="
M488.159 184.307
L508.319 184.307" style="fill:none;stroke:#0000ff;stroke-linecap:square;"/>
    </g>
    <g id="line2d_62"/>
    <g id="text_25">
     <!-- locality#15 -->
     <g transform="translate(524.15875 189.347)scale(0.144 -0.144)">
      <use xlink:href="#DejaVuSans-6c"/>
      <use x="27.783203125" xlink:href="#DejaVuSans-6f"/>
      <use x="88.96484375" xlink:href="#DejaVuSans-63"/>
      <use x="143.9453125" xlink:href="#DejaVuSans-61"/>
      <use x="205.224609375" xlink:href="#DejaVuSans-6c"/>
      <use x="233.0078125" xlink:href="#DejaVuSans-69"/>
      <use x="260.791015625" xlink:href="#DejaVuSans-74"/>
      <use x="300.0" xlink:href="#DejaVuSans-79"/>
      <use x="359.1796875" xlink:href="#DejaVuSans-23"/>
      <use x="442.96875" xlink:href="#DejaVuSans-31"/>
      <use x="506.591796875" xlink:href="#DejaVuSans-35"/>
     </g>
    </g>
    <g id="line2d_63">
     <path d="
M488.159 205.443
L508.319 205.443" style="fill:none;stroke:#008000;stroke-linecap:square;"/>
    </g>
    <g id="line2d_64"/>
    <g id="text_26">
     <!-- locality#2 -->
     <g transform="translate(524.15875 210.4835)scale(0.144 -0.144)">
      <use xlink:href="#DejaVuSans-6c"/>
      <use x="27.783203125" xlink:href="#DejaVuSans-6f"/>
      <use x="88.96484375" xlink:href="#DejaVuSans-63"/>
      <use x="143.9453125" xlink:href="#DejaVuSans-61"/>
      <use x="205.224609375" xlink:href="#DejaVuSans-6c"/>
      <use x="233.0078125" xlink:href="#DejaVuSans-69"/>
      <use x="260.791015625" xlink:href="#DejaVuSans-74"/>
      <use x="300.0" xlink:href="#DejaVuSans-79"/>
      <use x="359.1796875" xlink:href="#DejaVuSans-23"/>
      <use x="442.96875" xlink:href="#DejaVuSans-32"/>
     </g>
    </g>
    <g id="line2d_65">
     <path d="
M488.159 226.58
L508.319 226.58" style="fill:none;stroke:#ff0000;stroke-linecap:square;"/>
    </g>
    <g id="line2d_66"/>
    <g id="text_27">
     <!-- locality#3 -->
     <g transform="translate(524.15875 231.62)scale(0.144 -0.144)">
      <use xlink:href="#DejaVuSans-6c"/>
      <use x="27.783203125" xlink:href="#DejaVuSans-6f"/>
      <use x="88.96484375" xlink:href="#DejaVuSans-63"/>
      <use x="143.9453125" xlink:href="#DejaVuSans-61"/>
      <use x="205.224609375" xlink:href="#DejaVuSans-6c"/>
      <use x="233.0078125" xlink:href="#DejaVuSans-69"/>
      <use x="260.791015625" xlink:href="#DejaVuSans-74"/>
      <use x="300.0" xlink:href="#DejaVuSans-79"/>
      <use x="359.1796875" xlink:href="#DejaVuSans-23"/>
      <use x="442.96875" xlink:href="#DejaVuSans-33"/>
     </g>
    </g>
    <g id="line2d_67">
     <path d="
M488.159 247.716
L508.319 247.716" style="fill:none;stroke:#00bfbf;stroke-linecap:square;"/>
    </g>
    <g id="line2d_68"/>
    <g id="text_28">
     <!-- locality#4 -->
     <g transform="translate(524.15875 252.7565)scale(0.144 -0.144)">
      <use xlink:href="#DejaVuSans-6c"/>
      <use x="27.783203125" xlink:href="#DejaVuSans-6f"/>
      <use x="88.96484375" xlink:href="#DejaVuSans-63"/>
      <use x="143.9453125" xlink:href="#DejaVuSans-61"/>
      <use x="205.224609375" xlink:href="#DejaVuSans-6c"/>
      <use x="233.0078125" xlink:href="#DejaVuSans-69"/>
      <use x="260.791015625" xlink:href="#DejaVuSans-74"/>
      <use x="300.0" xlink:href="#DejaVuSans-79"/>
      <use x="359.1796875" xlink:href="#DejaVuSans-23"/>
      <use x="442.96875" xlink:href="#DejaVuSans-34"/>
     </g>
    </g>
    <g id="line2d_69">
     <path d="
M488.159 268.853
L508.319 268.853" style="fill:none;stroke:#bf00bf;stroke-linecap:square;"/>
    </g>
    <g id="line2d_70"/>
    <g id="text_29">
     <!-- locality#5 -->
     <g transform="translate(524.15875 273.893)scale(0.144 -0.144)">
      <use xlink:href="#DejaVuSans-6c"/>
      <use x="27.783203125" xlink:href="#DejaVuSans-6f"/>
      <use x="88.96484375" xlink:href="#DejaVuSans-63"/>
      <use x="143.9453125" xlink:href="#DejaVuSans-61"/>
      <use x="205.224609375" xlink:href="#DejaVuSans-6c"/>
      <use x="233.0078125" xlink:href="#DejaVuSans-69"/>
      <use x="260.791015625" xlink:href="#DejaVuSans-74"/>
      <use x="300.0" xlink:href="#DejaVuSans-79"/>
      <use x="359.1796875" xlink:href="#DejaVuSans-23"/>
      <use x="442.96875" xlink:href="#DejaVuSans-35"/>
     </g>
    </g>
    <g id="line2d_71">
     <path d="
M488.159 289.989
L508.319 289.989" style="fill:none;stroke:#bfbf00;stroke-linecap:square;"/>
    </g>
    <g id="line2d_72"/>
    <g id="text_30">
     <!-- locality#6 -->
     <g transform="translate(524.15875 295.0295)scale(0.144 -0.144)">
      <use xlink:href="#DejaVuSans-6c"/>
      <use x="27.783203125" xlink:href="#DejaVuSans-6f"/>
      <use x="88.96484375" xlink:href="#DejaVuSans-63"/>
      <use x="143.9453125" xlink:href="#DejaVuSans-61"/>
      <use x="205.224609375" xlink:href="#DejaVuSans-6c"/>
      <use x="233.0078125" xlink:href="#DejaVuSans-69"/>
      <use x="260.791015625" xlink:href="#DejaVuSans-74"/>
      <use x="300.0" xlink:href="#DejaVuSans-79"/>
      <use x="359.1796875" xlink:href="#DejaVuSans-23"/>
      <use x="442.96875" xlink:href="#DejaVuSans-36"/>
     </g>
    </g>
    <g id="line2d_73">
     <path d="
M488.159 311.126
L508.319 311.126" style="fill:none;stroke:#000000;stroke-linecap:square;"/>
    </g>
    <g id="line2d_74"/>
    <g id="text_31">
     <!-- locality#7 -->
     <defs>
      <path d="
M8.20312 72.9062
L55.0781 72.9062
L55.0781 68.7031
L28.6094 0
L18.3125 0
L43.2188 64.5938
L8.20312 64.5938
z
" id="DejaVuSans-37"/>
     </defs>
     <g transform="translate(524.15875 316.166)scale(0.144 -0.144)">
      <use xlink:href="#DejaVuSans-6c"/>
      <use x="27.783203125" xlink:href="#DejaVuSans-6f"/>
      <use x="88.96484375" xlink:href="#DejaVuSans-63"/>
      <use x="143.9453125" xlink:href="#DejaVuSans-61"/>
      <use x="205.224609375" xlink:href="#DejaVuSans-6c"/>
      <use x="233.0078125" xlink:href="#DejaVuSans-69"/>
      <use x="260.791015625" xlink:href="#DejaVuSans-74"/>
      <use x="300.0" xlink:href="#DejaVuSans-79"/>
      <use x="359.1796875" xlink:href="#DejaVuSans-23"/>
      <use x="442.96875" xlink:href="#DejaVuSans-37"/>
     </g>
    </g>
    <g id="line2d_75">
     <path d="
M488.159 332.262
L508.319 332.262" style="fill:none;stroke:#0000ff;stroke-linecap:square;"/>
    </g>
    <g id="line2d_76"/>
    <g id="text_32">
     <!-- locality#8 -->
     <g transform="translate(524.15875 337.3025)scale(0.144 -0.144)">
      <use xlink:href="#DejaVuSans-6c"/>
      <use x="27.783203125" xlink:href="#DejaVuSans-6f"/>
      <use x="88.96484375" xlink:href="#DejaVuSans-63"/>
      <use x="143.9453125" xlink:href="#DejaVuSans-61"/>
      <use x="205.224609375" xlink:href="#DejaVuSans-6c"/>
      <use x="233.0078125" xlink:href="#DejaVuSans-69"/>
      <use x="260.791015625" xlink:href="#DejaVuSans-74"/>
      <use x="300.0" xlink:href="#DejaVuSans-79"/>
      <use x="359.1796875" xlink:href="#DejaVuSans-23"/>
      <use x="442.96875" xlink:href="#DejaVuSans-38"/>
     </g>
    </g>
    <g id="line2d_77">
     <path d="
M488.159 353.399
L508.319 353.399" style="fill:none;stroke:#008000;stroke-linecap:square;"/>
    </g>
    <g id="line2d_78"/>
    <g id="text_33">
     <!-- locality#9 -->
     <defs>
      <path d="
M10.9844 1.51562
L10.9844 10.5
Q14.7031 8.73438 18.5 7.8125
Q22.3125 6.89062 25.9844 6.89062
Q35.75 6.89062 40.8906 13.4531
Q46.0469 20.0156 46.7812 33.4062
Q43.9531 29.2031 39.5938 26.9531
Q35.25 24.7031 29.9844 24.7031
Q19.0469 24.7031 12.6719 31.3125
Q6.29688 37.9375 6.29688 49.4219
Q6.29688 60.6406 12.9375 67.4219
Q19.5781 74.2188 30.6094 74.2188
Q43.2656 74.2188 49.9219 64.5156
Q56.5938 54.8281 56.5938 36.375
Q56.5938 19.1406 48.4062 8.85938
Q40.2344 -1.42188 26.4219 -1.42188
Q22.7031 -1.42188 18.8906 -0.6875
Q15.0938 0.046875 10.9844 1.51562
M30.6094 32.4219
Q37.25 32.4219 41.125 36.9531
Q45.0156 41.5 45.0156 49.4219
Q45.0156 57.2812 41.125 61.8438
Q37.25 66.4062 30.6094 66.4062
Q23.9688 66.4062 20.0938 61.8438
Q16.2188 57.2812 16.2188 49.4219
Q16.2188 41.5 20.0938 36.9531
Q23.9688 32.4219 30.6094 32.4219" id="DejaVuSans-39"/>
     </defs>
     <g transform="translate(524.15875 358.439)scale(0.144 -0.144)">
      <use xlink:href="#DejaVuSans-6c"/>
      <use x="27.783203125" xlink:href="#DejaVuSans-6f"/>
      <use x="88.96484375" xlink:href="#DejaVuSans-63"/>
      <use x="143.9453125" xlink:href="#DejaVuSans-61"/>
      <use x="205.224609375" xlink:href="#DejaVuSans-6c"/>
      <use x="233.0078125" xlink:href="#DejaVuSans-69"/>
      <use x="260.791015625" xlink:href="#DejaVuSans-74"/>
      <use x="300.0" xlink:href="#DejaVuSans-79"/>
      <use x="359.1796875" xlink:href="#DejaVuSans-23"/>
      <use x="442.96875" xlink:href="#DejaVuSans-39"/>
     </g>
    </g>
   </g>
  </g>
 </g>
 <defs>
  <clipPath id="p3262714fab">
   <rect height="345.6" width="446.4" x="24.47875" y="23.14175"/>
  </clipPath>
 </defs>
</svg>
