<?xml version="1.0" encoding="utf-8" standalone="no"?>
<!DOCTYPE svg PUBLIC "-//W3C//DTD SVG 1.1//EN"
  "http://www.w3.org/Graphics/SVG/1.1/DTD/svg11.dtd">
<!-- Created with matplotlib (http://matplotlib.org/) -->
<svg height="408pt" version="1.1" viewBox="0 0 624 408" width="624pt" xmlns="http://www.w3.org/2000/svg" xmlns:xlink="http://www.w3.org/1999/xlink">
 <defs>
  <style type="text/css">
*{stroke-linecap:butt;stroke-linejoin:round;}
  </style>
 </defs>
 <g id="figure_1">
  <g id="patch_1">
   <path d="
M0 408.169
L624.579 408.169
L624.579 0
L0 0
z
" style="fill:#ffffff;"/>
  </g>
  <g id="axes_1">
   <g id="patch_2">
    <path d="
M31.99 368.742
L478.39 368.742
L478.39 23.1417
L31.99 23.1417
z
" style="fill:#ffffff;"/>
   </g>
   <g id="line2d_1">
    <path clip-path="url(#p77ac736e8d)" d="
M31.99 349.542
L32.1402 345.702
L36.3444 345.702
L36.4945 343.782
L41.5997 343.782
L41.7498 339.942
L48.807 339.942
L48.9571 338.022
L58.4166 338.022
L58.5668 336.102
L72.9813 336.102
L73.1315 332.262
L78.9874 332.262
L79.1375 324.582
L89.1977 324.582
L89.3478 322.662
L91.1496 322.662
L91.2998 320.742
L102.111 320.742
L102.261 318.822
L114.423 318.822
L114.573 313.062
L125.234 313.062
L125.384 309.222
L134.844 309.222
L134.994 301.542
L139.799 301.542
L139.949 297.702
L144.604 297.702
L144.754 293.862
L146.405 293.862
L146.555 291.942
L155.414 291.942
L155.565 284.262
L175.835 284.262
L175.985 280.422
L185.595 280.422
L185.745 270.822
L198.808 270.822
L198.958 268.902
L203.613 268.902
L203.763 266.982
L215.175 266.982
L215.325 257.382
L236.646 257.382
L236.796 255.462
L245.956 255.462
L246.106 253.542
L252.863 253.542
L253.013 247.782
L259.77 247.782
L259.92 236.262
L260.821 236.262
L260.971 234.342
L287.097 234.342
L287.247 232.422
L288.298 232.422
L288.449 224.742
L315.776 224.742
L315.926 222.822
L318.028 222.822
L318.178 213.222
L335.146 213.222
L335.296 209.382
L346.557 209.382
L346.707 203.622
L360.371 203.622
L360.521 194.022
L375.236 194.022
L375.386 192.102
L389.35 192.102
L389.5 180.582
L415.326 180.582
L415.477 170.982
L432.594 170.982
L432.744 169.062
L454.216 169.062
L454.366 167.142
L458.42 167.142
L458.57 165.222
L471.033 165.222
L471.183 138.342
L478.39 138.342
L478.39 138.342" style="fill:none;stroke:#0000ff;stroke-linecap:square;"/>
   </g>
   <g id="line2d_2">
    <path clip-path="url(#p77ac736e8d)" d="
M31.99 359.142
L32.1402 351.462
L47.4556 351.462
L47.6057 349.542
L56.4647 349.542
L56.6148 345.702
L64.2725 345.702
L64.4227 343.782
L81.0895 343.782
L81.2396 341.862
L92.9515 341.862
L93.1016 338.022
L106.165 338.022
L106.315 334.182
L124.333 334.182
L124.483 332.262
L134.694 332.262
L134.844 330.342
L146.405 330.342
L146.555 324.582
L154.213 324.582
L154.363 314.982
L160.67 314.982
L160.82 305.382
L173.583 305.382
L173.733 303.462
L187.997 303.462
L188.147 291.942
L208.568 291.942
L208.718 290.022
L222.382 290.022
L222.532 284.262
L236.496 284.262
L236.646 282.342
L245.205 282.342
L245.355 278.502
L253.914 278.502
L254.064 257.382
L269.83 257.382
L269.98 255.462
L280.941 255.462
L281.091 242.022
L305.566 242.022
L305.716 240.102
L310.521 240.102
L310.671 232.422
L338.749 232.422
L338.899 226.662
L357.218 226.662
L357.368 222.822
L365.776 222.822
L365.927 205.542
L393.104 205.542
L393.254 203.622
L400.912 203.622
L401.062 197.862
L429.891 197.862
L430.041 180.582
L478.39 180.582
L478.39 180.582" style="fill:none;stroke:#008000;stroke-linecap:square;"/>
   </g>
   <g id="line2d_3">
    <path clip-path="url(#p77ac736e8d)" d="
M31.99 359.142
L32.1402 355.302
L35.8939 355.302
L36.0441 347.622
L40.5486 347.622
L40.6988 343.782
L45.3535 343.782
L45.5036 341.862
L49.2574 341.862
L49.4076 334.182
L51.3595 334.182
L51.5097 332.262
L57.3656 332.262
L57.5157 330.342
L60.6689 330.342
L60.8191 328.422
L64.1224 328.422
L64.2725 322.662
L69.3777 322.662
L69.5278 311.142
L77.4859 311.142
L77.636 305.382
L81.5399 305.382
L81.6901 301.542
L87.8463 301.542
L87.9965 293.862
L97.3058 293.862
L97.456 291.942
L104.063 291.942
L104.213 290.022
L106.765 290.022
L106.916 286.182
L118.928 286.182
L119.078 284.262
L124.333 284.262
L124.483 270.822
L136.495 270.822
L136.645 253.542
L158.568 253.542
L158.718 251.622
L166.676 251.622
L166.826 238.182
L176.135 238.182
L176.285 236.262
L182.141 236.262
L182.292 217.062
L190.85 217.062
L191 205.542
L212.622 205.542
L212.772 195.942
L223.733 195.942
L223.883 186.342
L235.145 186.342
L235.295 184.422
L238.448 184.422
L238.598 169.062
L261.571 169.062
L261.722 165.222
L271.782 165.222
L271.932 161.382
L273.584 161.382
L273.734 155.622
L281.992 155.622
L282.142 144.102
L294.605 144.102
L294.755 142.182
L299.109 142.182
L299.259 138.342
L316.377 138.342
L316.527 134.502
L330.341 134.502
L330.491 130.662
L341.902 130.662
L342.053 126.822
L355.266 126.822
L355.416 124.902
L355.866 124.902
L356.017 115.302
L381.843 115.302
L381.993 107.622
L392.503 107.622
L392.654 92.2617
L416.678 92.2617
L416.828 78.8217
L442.654 78.8217
L442.804 63.4617
L466.978 63.4617
L467.129 53.8617
L478.39 53.8617
L478.39 53.8617" style="fill:none;stroke:#ff0000;stroke-linecap:square;"/>
   </g>
   <g id="line2d_4">
    <path clip-path="url(#p77ac736e8d)" d="
M31.99 359.142
L32.1402 351.462
L38.5967 351.462
L38.7468 349.542
L43.7018 349.542
L43.852 347.622
L48.6568 347.622
L48.807 339.942
L52.1103 339.942
L52.2604 338.022
L57.0653 338.022
L57.2154 336.102
L64.723 336.102
L64.8731 330.342
L71.9303 330.342
L72.0804 314.982
L81.6901 314.982
L81.8403 311.142
L86.0445 311.142
L86.1946 301.542
L96.7052 301.542
L96.8554 295.782
L101.66 295.782
L101.81 293.862
L110.819 293.862
L110.97 290.022
L114.423 290.022
L114.573 280.422
L127.636 280.422
L127.787 278.502
L132.742 278.502
L132.892 274.662
L139.048 274.662
L139.198 263.142
L147.456 263.142
L147.607 261.222
L156.616 261.222
L156.766 251.622
L163.673 251.622
L163.823 243.942
L174.183 243.942
L174.333 232.422
L186.195 232.422
L186.346 230.502
L188.898 230.502
L189.048 228.582
L195.955 228.582
L196.105 224.742
L202.262 224.742
L202.412 215.142
L213.223 215.142
L213.373 197.862
L229.739 197.862
L229.889 188.262
L236.646 188.262
L236.796 169.062
L263.523 169.062
L263.674 157.542
L290.851 157.542
L291.001 151.782
L324.185 151.782
L324.335 142.182
L362.173 142.182
L362.323 140.262
L364.876 140.262
L365.026 138.342
L370.882 138.342
L371.032 134.502
L373.584 134.502
L373.735 132.582
L380.041 132.582
L380.191 126.822
L401.663 126.822
L401.813 122.982
L408.269 122.982
L408.419 113.382
L425.236 113.382
L425.387 107.622
L431.843 107.622
L431.993 96.1017
L441.152 96.1017
L441.303 88.4217
L461.273 88.4217
L461.423 86.5017
L465.327 86.5017
L465.477 80.7417
L467.279 80.7417
L467.429 71.1417
L476.588 71.1417
L476.738 59.6217
L478.39 59.6217
L478.39 59.6217" style="fill:none;stroke:#00bfbf;stroke-linecap:square;"/>
   </g>
   <g id="line2d_5">
    <path clip-path="url(#p77ac736e8d)" d="
M31.99 359.142
L32.1402 353.382
L41.4495 353.382
L41.5997 351.462
L48.3565 351.462
L48.5066 347.622
L55.8641 347.622
L56.0142 345.702
L62.771 345.702
L62.9212 338.022
L70.2786 338.022
L70.4287 336.102
L76.4348 336.102
L76.585 330.342
L80.9393 330.342
L81.0895 326.502
L91.7502 326.502
L91.9004 324.582
L100.159 324.582
L100.309 322.662
L108.567 322.662
L108.717 320.742
L115.474 320.742
L115.624 318.822
L119.228 318.822
L119.378 316.902
L126.886 316.902
L127.036 314.982
L134.393 314.982
L134.543 313.062
L139.048 313.062
L139.198 307.302
L154.213 307.302
L154.363 303.462
L159.469 303.462
L159.619 297.702
L169.529 297.702
L169.679 293.862
L172.382 293.862
L172.532 290.022
L176.135 290.022
L176.285 282.342
L186.796 282.342
L186.946 278.502
L189.799 278.502
L189.949 274.662
L192.952 274.662
L193.102 266.982
L203.463 266.982
L203.613 263.142
L207.967 263.142
L208.118 259.302
L212.922 259.302
L213.073 257.382
L221.181 257.382
L221.331 249.702
L224.784 249.702
L224.935 236.262
L233.944 236.262
L234.094 230.502
L239.049 230.502
L239.199 224.742
L245.655 224.742
L245.806 220.902
L251.511 220.902
L251.661 217.062
L261.571 217.062
L261.722 215.142
L267.277 215.142
L267.427 209.382
L273.734 209.382
L273.884 207.462
L280.19 207.462
L280.34 201.702
L284.545 201.702
L284.695 192.102
L291.752 192.102
L291.902 190.182
L296.707 190.182
L296.857 186.342
L302.563 186.342
L302.713 174.822
L311.872 174.822
L312.022 172.902
L316.227 172.902
L316.377 161.382
L331.992 161.382
L332.143 153.702
L346.407 153.702
L346.557 149.862
L361.572 149.862
L361.722 147.942
L371.632 147.942
L371.783 146.022
L374.485 146.022
L374.635 136.422
L390.852 136.422
L391.002 132.582
L402.714 132.582
L402.864 130.662
L405.567 130.662
L405.717 124.902
L419.531 124.902
L419.681 115.302
L435.447 115.302
L435.597 113.382
L445.207 113.382
L445.357 111.462
L451.213 111.462
L451.363 105.702
L463.675 105.702
L463.825 101.862
L465.027 101.862
L465.177 99.9417
L475.837 99.9417
L475.988 98.0217
L478.39 98.0217
L478.39 98.0217" style="fill:none;stroke:#bf00bf;stroke-linecap:square;"/>
   </g>
   <g id="line2d_6">
    <path clip-path="url(#p77ac736e8d)" d="
M31.99 359.142
L32.1402 353.382
L38.897 353.382
L39.0471 351.462
L44.903 351.462
L45.0532 347.622
L51.6598 347.622
L51.81 345.702
L60.0683 345.702
L60.2185 341.862
L68.3266 341.862
L68.4768 338.022
L77.636 338.022
L77.7862 336.102
L83.6421 336.102
L83.7922 334.182
L90.3989 334.182
L90.549 328.422
L99.7083 328.422
L99.8584 326.502
L108.267 326.502
L108.417 322.662
L116.675 322.662
L116.826 318.822
L126.736 318.822
L126.886 316.902
L136.045 316.902
L136.195 314.982
L141 314.982
L141.15 309.222
L150.309 309.222
L150.459 305.382
L157.066 305.382
L157.216 295.782
L172.982 295.782
L173.132 293.862
L180.49 293.862
L180.64 288.102
L191.451 288.102
L191.601 284.262
L198.958 284.262
L199.108 280.422
L201.361 280.422
L201.511 274.662
L208.118 274.662
L208.268 270.822
L217.727 270.822
L217.877 268.902
L225.085 268.902
L225.235 266.982
L230.19 266.982
L230.34 265.062
L240.1 265.062
L240.25 263.142
L249.86 263.142
L250.01 259.302
L256.166 259.302
L256.316 257.382
L260.971 257.382
L261.121 255.462
L266.526 255.462
L266.677 251.622
L279.289 251.622
L279.439 247.782
L285.596 247.782
L285.746 245.862
L291.902 245.862
L292.052 232.422
L303.914 232.422
L304.064 226.662
L335.746 226.662
L335.896 222.822
L339.8 222.822
L339.95 211.302
L357.218 211.302
L357.368 203.622
L363.674 203.622
L363.825 201.702
L372.383 201.702
L372.533 195.942
L380.191 195.942
L380.341 190.182
L386.197 190.182
L386.347 188.262
L393.705 188.262
L393.855 182.502
L397.909 182.502
L398.059 180.582
L409.471 180.582
L409.621 174.822
L428.089 174.822
L428.239 172.902
L431.242 172.902
L431.393 170.982
L444.756 170.982
L444.906 163.302
L456.468 163.302
L456.618 161.382
L459.471 161.382
L459.621 159.462
L467.429 159.462
L467.579 155.622
L475.387 155.622
L475.537 153.702
L477.789 153.702
L477.94 134.502
L478.39 134.502
L478.39 134.502" style="fill:none;stroke:#bfbf00;stroke-linecap:square;"/>
   </g>
   <g id="line2d_7">
    <path clip-path="url(#p77ac736e8d)" d="
M31.99 359.142
L32.1402 355.302
L40.6988 355.302
L40.8489 351.462
L50.1583 351.462
L50.3085 347.622
L57.816 347.622
L57.9662 339.942
L65.3236 339.942
L65.4738 336.102
L75.684 336.102
L75.8342 334.182
L86.3448 334.182
L86.4949 332.262
L94.9034 332.262
L95.0536 330.342
L97.7563 330.342
L97.9064 326.502
L110.219 326.502
L110.369 324.582
L118.777 324.582
L118.928 322.662
L129.138 322.662
L129.288 320.742
L138.748 320.742
L138.898 318.822
L150.009 318.822
L150.159 316.902
L157.667 316.902
L157.817 313.062
L159.469 313.062
L159.619 311.142
L173.733 311.142
L173.883 309.222
L183.192 309.222
L183.343 307.302
L195.505 307.302
L195.655 305.382
L198.358 305.382
L198.508 303.462
L211.271 303.462
L211.421 301.542
L215.775 301.542
L215.925 297.702
L225.085 297.702
L225.235 291.942
L240.1 291.942
L240.25 286.182
L249.259 286.182
L249.409 284.262
L251.812 284.262
L251.962 278.502
L259.92 278.502
L260.07 276.582
L277.037 276.582
L277.187 274.662
L285.145 274.662
L285.295 272.742
L293.103 272.742
L293.253 270.822
L302.112 270.822
L302.262 266.982
L304.815 266.982
L304.965 261.222
L315.626 261.222
L315.776 259.302
L321.932 259.302
L322.082 257.382
L327.338 257.382
L327.488 255.462
L337.098 255.462
L337.248 251.622
L346.107 251.622
L346.257 249.702
L356.017 249.702
L356.167 243.942
L361.422 243.942
L361.572 240.102
L370.431 240.102
L370.581 238.182
L380.942 238.182
L381.092 234.342
L388.599 234.342
L388.75 232.422
L396.858 232.422
L397.008 230.502
L399.26 230.502
L399.41 228.582
L407.068 228.582
L407.218 222.822
L416.678 222.822
L416.828 218.982
L425.537 218.982
L425.687 213.222
L440.702 213.222
L440.852 211.302
L448.36 211.302
L448.51 209.382
L454.966 209.382
L455.117 205.542
L465.477 205.542
L465.627 203.622
L473.585 203.622
L473.735 201.702
L478.39 201.702
L478.39 201.702" style="fill:none;stroke:#000000;stroke-linecap:square;"/>
   </g>
   <g id="line2d_8">
    <path clip-path="url(#p77ac736e8d)" d="
M31.99 359.142
L32.1402 355.302
L50.3085 355.302
L50.4586 353.382
L61.1194 353.382
L61.2695 349.542
L70.8792 349.542
L71.0294 347.622
L82.7412 347.622
L82.8913 339.942
L95.8043 339.942
L95.9545 338.022
L100.159 338.022
L100.309 334.182
L112.171 334.182
L112.321 332.262
L124.033 332.262
L124.183 328.422
L135.895 328.422
L136.045 322.662
L141.3 322.662
L141.45 320.742
L146.555 320.742
L146.706 316.902
L153.012 316.902
L153.162 303.462
L173.583 303.462
L173.733 299.622
L183.192 299.622
L183.343 297.702
L199.259 297.702
L199.409 295.782
L211.871 295.782
L212.021 293.862
L222.532 293.862
L222.682 290.022
L236.196 290.022
L236.346 288.102
L244.604 288.102
L244.754 282.342
L254.815 282.342
L254.965 272.742
L263.073 272.742
L263.223 270.822
L266.076 270.822
L266.226 265.062
L280.34 265.062
L280.491 263.142
L296.707 263.142
L296.857 259.302
L306.917 259.302
L307.067 255.462
L319.23 255.462
L319.38 253.542
L330.341 253.542
L330.491 251.622
L342.653 251.622
L342.803 249.702
L350.761 249.702
L350.911 247.782
L360.972 247.782
L361.122 243.942
L370.281 243.942
L370.431 238.182
L387.098 238.182
L387.248 226.662
L421.933 226.662
L422.083 224.742
L432.143 224.742
L432.294 222.822
L444.306 222.822
L444.456 220.902
L452.714 220.902
L452.864 218.982
L464.576 218.982
L464.726 217.062
L470.732 217.062
L470.882 215.142
L478.39 215.142
L478.39 215.142" style="fill:none;stroke:#0000ff;stroke-linecap:square;"/>
   </g>
   <g id="line2d_9">
    <path clip-path="url(#p77ac736e8d)" d="
M31.99 359.142
L32.1402 355.302
L43.5517 355.302
L43.7018 351.462
L51.3595 351.462
L51.5097 347.622
L57.9662 347.622
L58.1163 345.702
L65.7741 345.702
L65.9242 341.862
L73.5819 341.862
L73.7321 339.942
L89.3478 339.942
L89.498 338.022
L97.3058 338.022
L97.456 334.182
L105.114 334.182
L105.264 326.502
L114.423 326.502
L114.573 324.582
L128.687 324.582
L128.838 320.742
L144.453 320.742
L144.604 316.902
L152.111 316.902
L152.261 309.222
L163.973 309.222
L164.123 301.542
L169.228 301.542
L169.378 295.782
L184.844 295.782
L184.994 291.942
L200.46 291.942
L200.61 282.342
L215.625 282.342
L215.775 270.822
L223.283 270.822
L223.433 265.062
L231.091 265.062
L231.241 257.382
L246.256 257.382
L246.406 251.622
L261.121 251.622
L261.271 247.782
L268.629 247.782
L268.779 243.942
L299.41 243.942
L299.56 238.182
L308.118 238.182
L308.269 234.342
L314.275 234.342
L314.425 222.822
L347.608 222.822
L347.758 218.982
L351.362 218.982
L351.512 207.462
L389.05 207.462
L389.2 203.622
L401.362 203.622
L401.513 188.262
L437.999 188.262
L438.149 182.502
L478.39 182.502
L478.39 182.502" style="fill:none;stroke:#008000;stroke-linecap:square;"/>
   </g>
   <g id="line2d_10">
    <path clip-path="url(#p77ac736e8d)" d="
M31.99 359.142
L32.1402 355.302
L42.8009 355.302
L42.951 351.462
L48.807 351.462
L48.9571 347.622
L54.813 347.622
L54.9632 339.942
L60.8191 339.942
L60.9692 338.022
L74.0324 338.022
L74.1825 334.182
L88.5971 334.182
L88.7472 332.262
L101.81 332.262
L101.961 330.342
L106.765 330.342
L106.916 328.422
L112.922 328.422
L113.072 324.582
L123.732 324.582
L123.883 318.822
L127.186 318.822
L127.336 316.902
L142.952 316.902
L143.102 303.462
L153.613 303.462
L153.763 299.622
L171.781 299.622
L171.931 290.022
L182.442 290.022
L182.592 288.102
L192.202 288.102
L192.352 280.422
L200.46 280.422
L200.61 274.662
L223.883 274.662
L224.034 272.742
L235.745 272.742
L235.896 263.142
L253.163 263.142
L253.313 255.462
L258.869 255.462
L259.019 253.542
L263.373 253.542
L263.523 251.622
L270.28 251.622
L270.43 242.022
L296.407 242.022
L296.557 234.342
L313.524 234.342
L313.674 217.062
L357.969 217.062
L358.119 209.382
L383.795 209.382
L383.945 207.462
L391.302 207.462
L391.452 197.862
L406.017 197.862
L406.167 192.102
L417.128 192.102
L417.278 184.422
L431.843 184.422
L431.993 178.662
L444.306 178.662
L444.456 176.742
L451.663 176.742
L451.813 157.542
L478.39 157.542
L478.39 157.542" style="fill:none;stroke:#ff0000;stroke-linecap:square;"/>
   </g>
   <g id="line2d_11">
    <path clip-path="url(#p77ac736e8d)" d="
M31.99 359.142
L32.1402 353.382
L41.5997 353.382
L41.7498 351.462
L49.1073 351.462
L49.2574 349.542
L58.8671 349.542
L59.0172 345.702
L65.1735 345.702
L65.3236 343.782
L69.3777 343.782
L69.5278 339.942
L73.7321 339.942
L73.8822 332.262
L78.9874 332.262
L79.1375 330.342
L94.1527 330.342
L94.3028 328.422
L98.5071 328.422
L98.6572 322.662
L106.165 322.662
L106.315 316.902
L115.774 316.902
L115.925 314.982
L125.384 314.982
L125.534 313.062
L128.537 313.062
L128.687 305.382
L137.246 305.382
L137.396 299.622
L142.501 299.622
L142.652 297.702
L147.757 297.702
L147.907 293.862
L155.264 293.862
L155.414 276.582
L171.33 276.582
L171.481 270.822
L173.433 270.822
L173.583 268.902
L186.346 268.902
L186.496 266.982
L191.601 266.982
L191.751 261.222
L195.805 261.222
L195.955 245.862
L209.619 245.862
L209.769 232.422
L224.034 232.422
L224.184 215.142
L253.163 215.142
L253.313 207.462
L287.548 207.462
L287.698 194.022
L331.092 194.022
L331.242 180.582
L371.632 180.582
L371.783 170.982
L429.891 170.982
L430.041 149.862
L478.39 149.862
L478.39 149.862" style="fill:none;stroke:#00bfbf;stroke-linecap:square;"/>
   </g>
   <g id="line2d_12">
    <path clip-path="url(#p77ac736e8d)" d="
M31.99 359.142
L32.1402 353.382
L40.6988 353.382
L40.8489 347.622
L48.2063 347.622
L48.3565 345.702
L55.7139 345.702
L55.8641 341.862
L60.3686 341.862
L60.5188 339.942
L65.0233 339.942
L65.1735 332.262
L69.8281 332.262
L69.9783 328.422
L78.2366 328.422
L78.3868 322.662
L82.1406 322.662
L82.2907 320.742
L87.8463 320.742
L87.9965 314.982
L98.2068 314.982
L98.3569 313.062
L103.012 313.062
L103.162 305.382
L110.519 305.382
L110.669 301.542
L121.03 301.542
L121.18 297.702
L132.291 297.702
L132.441 295.782
L137.997 295.782
L138.147 291.942
L148.207 291.942
L148.357 280.422
L161.42 280.422
L161.571 276.582
L171.781 276.582
L171.931 257.382
L191.451 257.382
L191.601 253.542
L200.91 253.542
L201.06 242.022
L210.97 242.022
L211.121 238.182
L214.574 238.182
L214.724 224.742
L228.388 224.742
L228.538 222.822
L235.896 222.822
L236.046 203.622
L266.376 203.622
L266.526 192.102
L318.028 192.102
L318.178 174.822
L400.011 174.822
L400.161 153.702
L478.39 153.702
L478.39 153.702" style="fill:none;stroke:#bf00bf;stroke-linecap:square;"/>
   </g>
   <g id="line2d_13">
    <path clip-path="url(#p77ac736e8d)" d="
M31.99 359.142
L32.1402 355.302
L39.7979 355.302
L39.948 353.382
L45.6538 353.382
L45.8039 347.622
L50.6088 347.622
L50.7589 341.862
L55.7139 341.862
L55.8641 339.942
L60.6689 339.942
L60.8191 336.102
L65.6239 336.102
L65.7741 334.182
L74.9333 334.182
L75.0834 324.582
L87.546 324.582
L87.6962 320.742
L90.0986 320.742
L90.2487 316.902
L99.2578 316.902
L99.408 314.982
L107.666 314.982
L107.816 313.062
L112.021 313.062
L112.171 311.142
L116.976 311.142
L117.126 309.222
L121.931 309.222
L122.081 307.302
L129.438 307.302
L129.588 305.382
L138.748 305.382
L138.898 303.462
L139.498 303.462
L139.649 301.542
L147.006 301.542
L147.156 299.622
L151.21 299.622
L151.36 284.262
L157.817 284.262
L157.967 282.342
L162.021 282.342
L162.171 272.742
L171.33 272.742
L171.481 265.062
L181.24 265.062
L181.391 263.142
L187.096 263.142
L187.247 259.302
L193.703 259.302
L193.853 253.542
L202.862 253.542
L203.012 240.102
L220.73 240.102
L220.88 236.262
L227.187 236.262
L227.337 232.422
L234.694 232.422
L234.844 228.582
L243.553 228.582
L243.703 218.982
L260.37 218.982
L260.52 203.622
L281.692 203.622
L281.842 194.022
L295.956 194.022
L296.106 190.182
L304.665 190.182
L304.815 182.502
L312.473 182.502
L312.623 174.822
L334.695 174.822
L334.845 161.382
L369.53 161.382
L369.68 144.102
L416.978 144.102
L417.128 130.662
L478.39 130.662
L478.39 130.662" style="fill:none;stroke:#bfbf00;stroke-linecap:square;"/>
   </g>
   <g id="line2d_14">
    <path clip-path="url(#p77ac736e8d)" d="
M31.99 359.142
L32.1402 355.302
L40.6988 355.302
L40.8489 347.622
L45.2033 347.622
L45.3535 343.782
L48.9571 343.782
L49.1073 339.942
L54.2124 339.942
L54.3626 336.102
L59.4677 336.102
L59.6179 334.182
L63.3716 334.182
L63.5218 328.422
L68.6269 328.422
L68.7771 322.662
L73.8822 322.662
L74.0324 320.742
L79.8883 320.742
L80.0384 318.822
L86.7952 318.822
L86.9454 316.902
L89.1977 316.902
L89.3478 313.062
L105.114 313.062
L105.264 305.382
L112.021 305.382
L112.171 301.542
L115.774 301.542
L115.925 297.702
L121.781 297.702
L121.931 295.782
L133.042 295.782
L133.192 293.862
L140.7 293.862
L140.85 291.942
L145.955 291.942
L146.105 282.342
L151.961 282.342
L152.111 278.502
L158.718 278.502
L158.868 255.462
L182.892 255.462
L183.042 240.102
L214.874 240.102
L215.025 232.422
L245.806 232.422
L245.956 207.462
L302.413 207.462
L302.563 182.502
L402.113 182.502
L402.263 157.542
L467.579 157.542
L467.729 134.502
L478.39 134.502
L478.39 134.502" style="fill:none;stroke:#000000;stroke-linecap:square;"/>
   </g>
   <g id="line2d_15">
    <path clip-path="url(#p77ac736e8d)" d="
M31.99 359.142
L32.1402 353.382
L37.6958 353.382
L37.8459 351.462
L43.7018 351.462
L43.852 345.702
L48.5066 345.702
L48.6568 343.782
L50.6088 343.782
L50.7589 339.942
L57.6659 339.942
L57.816 336.102
L62.4707 336.102
L62.6209 334.182
L68.0263 334.182
L68.1765 330.342
L72.3807 330.342
L72.5309 328.422
L78.6871 328.422
L78.8372 326.502
L86.4949 326.502
L86.6451 322.662
L92.0505 322.662
L92.2007 318.822
L94.1527 318.822
L94.3028 316.902
L101.961 316.902
L102.111 314.982
L104.813 314.982
L104.964 309.222
L113.372 309.222
L113.522 303.462
L130.039 303.462
L130.189 297.702
L138.447 297.702
L138.597 288.102
L148.207 288.102
L148.357 284.262
L154.514 284.262
L154.664 282.342
L156.766 282.342
L156.916 272.742
L165.024 272.742
L165.174 255.462
L183.943 255.462
L184.093 251.622
L191 251.622
L191.15 243.942
L198.658 243.942
L198.808 230.502
L225.835 230.502
L225.986 213.222
L269.079 213.222
L269.229 188.262
L351.212 188.262
L351.362 157.542
L457.669 157.542
L457.819 134.502
L478.39 134.502
L478.39 134.502" style="fill:none;stroke:#0000ff;stroke-linecap:square;"/>
   </g>
   <g id="line2d_16">
    <path clip-path="url(#p77ac736e8d)" d="
M31.99 359.142
L32.1402 355.302
L38.2964 355.302
L38.4465 353.382
L41.9 353.382
L42.0501 351.462
L47.3054 351.462
L47.4556 347.622
L51.9601 347.622
L52.1103 343.782
L54.6629 343.782
L54.813 339.942
L62.771 339.942
L62.9212 336.102
L68.1765 336.102
L68.3266 330.342
L72.2306 330.342
L72.3807 326.502
L76.8853 326.502
L77.0354 324.582
L79.7381 324.582
L79.8883 316.902
L85.1436 316.902
L85.2937 309.222
L92.6512 309.222
L92.8013 307.302
L100.159 307.302
L100.309 305.382
L104.213 305.382
L104.363 299.622
L106.916 299.622
L107.066 297.702
L109.618 297.702
L109.768 291.942
L113.822 291.942
L113.973 280.422
L126.585 280.422
L126.736 274.662
L136.045 274.662
L136.195 268.902
L137.997 268.902
L138.147 257.382
L152.862 257.382
L153.012 242.022
L175.084 242.022
L175.234 211.302
L211.871 211.302
L212.021 194.022
L278.088 194.022
L278.238 176.742
L331.692 176.742
L331.842 155.622
L420.131 155.622
L420.281 124.902
L478.39 124.902
L478.39 124.902" style="fill:none;stroke:#008000;stroke-linecap:square;"/>
   </g>
   <g id="patch_3">
    <path d="
M31.99 23.1417
L478.39 23.1417" style="fill:none;stroke:#000000;stroke-linecap:square;stroke-linejoin:miter;"/>
   </g>
   <g id="patch_4">
    <path d="
M478.39 368.742
L478.39 23.1417" style="fill:none;stroke:#000000;stroke-linecap:square;stroke-linejoin:miter;"/>
   </g>
   <g id="patch_5">
    <path d="
M31.99 368.742
L478.39 368.742" style="fill:none;stroke:#000000;stroke-linecap:square;stroke-linejoin:miter;"/>
   </g>
   <g id="patch_6">
    <path d="
M31.99 368.742
L31.99 23.1417" style="fill:none;stroke:#000000;stroke-linecap:square;stroke-linejoin:miter;"/>
   </g>
   <g id="matplotlib.axis_1">
    <g id="xtick_1">
     <g id="line2d_17">
      <defs>
       <path d="
M0 0
L0 -4" id="m93b0483c22" style="stroke:#000000;stroke-width:0.5;"/>
      </defs>
      <g>
       <use style="stroke:#000000;stroke-width:0.5;" x="31.99" xlink:href="#m93b0483c22" y="368.74175"/>
      </g>
     </g>
     <g id="line2d_18">
      <defs>
       <path d="
M0 0
L0 4" id="m741efc42ff" style="stroke:#000000;stroke-width:0.5;"/>
      </defs>
      <g>
       <use style="stroke:#000000;stroke-width:0.5;" x="31.99" xlink:href="#m741efc42ff" y="23.14175"/>
      </g>
     </g>
     <g id="text_1">
      <!-- 0 -->
      <defs>
       <path d="
M31.7812 66.4062
Q24.1719 66.4062 20.3281 58.9062
Q16.5 51.4219 16.5 36.375
Q16.5 21.3906 20.3281 13.8906
Q24.1719 6.39062 31.7812 6.39062
Q39.4531 6.39062 43.2812 13.8906
Q47.125 21.3906 47.125 36.375
Q47.125 51.4219 43.2812 58.9062
Q39.4531 66.4062 31.7812 66.4062
M31.7812 74.2188
Q44.0469 74.2188 50.5156 64.5156
Q56.9844 54.8281 56.9844 36.375
Q56.9844 17.9688 50.5156 8.26562
Q44.0469 -1.42188 31.7812 -1.42188
Q19.5312 -1.42188 13.0625 8.26562
Q6.59375 17.9688 6.59375 36.375
Q6.59375 54.8281 13.0625 64.5156
Q19.5312 74.2188 31.7812 74.2188" id="DejaVuSans-30"/>
      </defs>
      <g transform="translate(28.9665625 381.859875)scale(0.12 -0.12)">
       <use xlink:href="#DejaVuSans-30"/>
      </g>
     </g>
    </g>
    <g id="xtick_2">
     <g id="line2d_19">
      <g>
       <use style="stroke:#000000;stroke-width:0.5;" x="107.06568113" xlink:href="#m93b0483c22" y="368.74175"/>
      </g>
     </g>
     <g id="line2d_20">
      <g>
       <use style="stroke:#000000;stroke-width:0.5;" x="107.06568113" xlink:href="#m741efc42ff" y="23.14175"/>
      </g>
     </g>
     <g id="text_2">
      <!-- 500 -->
      <defs>
       <path d="
M10.7969 72.9062
L49.5156 72.9062
L49.5156 64.5938
L19.8281 64.5938
L19.8281 46.7344
Q21.9688 47.4688 24.1094 47.8281
Q26.2656 48.1875 28.4219 48.1875
Q40.625 48.1875 47.75 41.5
Q54.8906 34.8125 54.8906 23.3906
Q54.8906 11.625 47.5625 5.09375
Q40.2344 -1.42188 26.9062 -1.42188
Q22.3125 -1.42188 17.5469 -0.640625
Q12.7969 0.140625 7.71875 1.70312
L7.71875 11.625
Q12.1094 9.23438 16.7969 8.0625
Q21.4844 6.89062 26.7031 6.89062
Q35.1562 6.89062 40.0781 11.3281
Q45.0156 15.7656 45.0156 23.3906
Q45.0156 31 40.0781 35.4375
Q35.1562 39.8906 26.7031 39.8906
Q22.75 39.8906 18.8125 39.0156
Q14.8906 38.1406 10.7969 36.2812
z
" id="DejaVuSans-35"/>
      </defs>
      <g transform="translate(96.4747436302 381.859875)scale(0.12 -0.12)">
       <use xlink:href="#DejaVuSans-35"/>
       <use x="63.623046875" xlink:href="#DejaVuSans-30"/>
       <use x="127.24609375" xlink:href="#DejaVuSans-30"/>
      </g>
     </g>
    </g>
    <g id="xtick_3">
     <g id="line2d_21">
      <g>
       <use style="stroke:#000000;stroke-width:0.5;" x="182.14136226" xlink:href="#m93b0483c22" y="368.74175"/>
      </g>
     </g>
     <g id="line2d_22">
      <g>
       <use style="stroke:#000000;stroke-width:0.5;" x="182.14136226" xlink:href="#m741efc42ff" y="23.14175"/>
      </g>
     </g>
     <g id="text_3">
      <!-- 1000 -->
      <defs>
       <path d="
M12.4062 8.29688
L28.5156 8.29688
L28.5156 63.9219
L10.9844 60.4062
L10.9844 69.3906
L28.4219 72.9062
L38.2812 72.9062
L38.2812 8.29688
L54.3906 8.29688
L54.3906 0
L12.4062 0
z
" id="DejaVuSans-31"/>
      </defs>
      <g transform="translate(167.92886226 381.859875)scale(0.12 -0.12)">
       <use xlink:href="#DejaVuSans-31"/>
       <use x="63.623046875" xlink:href="#DejaVuSans-30"/>
       <use x="127.24609375" xlink:href="#DejaVuSans-30"/>
       <use x="190.869140625" xlink:href="#DejaVuSans-30"/>
      </g>
     </g>
    </g>
    <g id="xtick_4">
     <g id="line2d_23">
      <g>
       <use style="stroke:#000000;stroke-width:0.5;" x="257.217043391" xlink:href="#m93b0483c22" y="368.74175"/>
      </g>
     </g>
     <g id="line2d_24">
      <g>
       <use style="stroke:#000000;stroke-width:0.5;" x="257.217043391" xlink:href="#m741efc42ff" y="23.14175"/>
      </g>
     </g>
     <g id="text_4">
      <!-- 1500 -->
      <g transform="translate(243.004543391 381.859875)scale(0.12 -0.12)">
       <use xlink:href="#DejaVuSans-31"/>
       <use x="63.623046875" xlink:href="#DejaVuSans-35"/>
       <use x="127.24609375" xlink:href="#DejaVuSans-30"/>
       <use x="190.869140625" xlink:href="#DejaVuSans-30"/>
      </g>
     </g>
    </g>
    <g id="xtick_5">
     <g id="line2d_25">
      <g>
       <use style="stroke:#000000;stroke-width:0.5;" x="332.292724521" xlink:href="#m93b0483c22" y="368.74175"/>
      </g>
     </g>
     <g id="line2d_26">
      <g>
       <use style="stroke:#000000;stroke-width:0.5;" x="332.292724521" xlink:href="#m741efc42ff" y="23.14175"/>
      </g>
     </g>
     <g id="text_5">
      <!-- 2000 -->
      <defs>
       <path d="
M19.1875 8.29688
L53.6094 8.29688
L53.6094 0
L7.32812 0
L7.32812 8.29688
Q12.9375 14.1094 22.625 23.8906
Q32.3281 33.6875 34.8125 36.5312
Q39.5469 41.8438 41.4219 45.5312
Q43.3125 49.2188 43.3125 52.7812
Q43.3125 58.5938 39.2344 62.25
Q35.1562 65.9219 28.6094 65.9219
Q23.9688 65.9219 18.8125 64.3125
Q13.6719 62.7031 7.8125 59.4219
L7.8125 69.3906
Q13.7656 71.7812 18.9375 73
Q24.125 74.2188 28.4219 74.2188
Q39.75 74.2188 46.4844 68.5469
Q53.2188 62.8906 53.2188 53.4219
Q53.2188 48.9219 51.5312 44.8906
Q49.8594 40.875 45.4062 35.4062
Q44.1875 33.9844 37.6406 27.2188
Q31.1094 20.4531 19.1875 8.29688" id="DejaVuSans-32"/>
      </defs>
      <g transform="translate(317.860849521 381.859875)scale(0.12 -0.12)">
       <use xlink:href="#DejaVuSans-32"/>
       <use x="63.623046875" xlink:href="#DejaVuSans-30"/>
       <use x="127.24609375" xlink:href="#DejaVuSans-30"/>
       <use x="190.869140625" xlink:href="#DejaVuSans-30"/>
      </g>
     </g>
    </g>
    <g id="xtick_6">
     <g id="line2d_27">
      <g>
       <use style="stroke:#000000;stroke-width:0.5;" x="407.368405651" xlink:href="#m93b0483c22" y="368.74175"/>
      </g>
     </g>
     <g id="line2d_28">
      <g>
       <use style="stroke:#000000;stroke-width:0.5;" x="407.368405651" xlink:href="#m741efc42ff" y="23.14175"/>
      </g>
     </g>
     <g id="text_6">
      <!-- 2500 -->
      <g transform="translate(392.936530651 381.859875)scale(0.12 -0.12)">
       <use xlink:href="#DejaVuSans-32"/>
       <use x="63.623046875" xlink:href="#DejaVuSans-35"/>
       <use x="127.24609375" xlink:href="#DejaVuSans-30"/>
       <use x="190.869140625" xlink:href="#DejaVuSans-30"/>
      </g>
     </g>
    </g>
    <g id="text_7">
     <!-- time -->
     <defs>
      <path d="
M18.3125 70.2188
L18.3125 54.6875
L36.8125 54.6875
L36.8125 47.7031
L18.3125 47.7031
L18.3125 18.0156
Q18.3125 11.3281 20.1406 9.42188
Q21.9688 7.51562 27.5938 7.51562
L36.8125 7.51562
L36.8125 0
L27.5938 0
Q17.1875 0 13.2344 3.875
Q9.28125 7.76562 9.28125 18.0156
L9.28125 47.7031
L2.6875 47.7031
L2.6875 54.6875
L9.28125 54.6875
L9.28125 70.2188
z
" id="DejaVuSans-74"/>
      <path d="
M52 44.1875
Q55.375 50.25 60.0625 53.125
Q64.75 56 71.0938 56
Q79.6406 56 84.2812 50.0156
Q88.9219 44.0469 88.9219 33.0156
L88.9219 0
L79.8906 0
L79.8906 32.7188
Q79.8906 40.5781 77.0938 44.375
Q74.3125 48.1875 68.6094 48.1875
Q61.625 48.1875 57.5625 43.5469
Q53.5156 38.9219 53.5156 30.9062
L53.5156 0
L44.4844 0
L44.4844 32.7188
Q44.4844 40.625 41.7031 44.4062
Q38.9219 48.1875 33.1094 48.1875
Q26.2188 48.1875 22.1562 43.5312
Q18.1094 38.875 18.1094 30.9062
L18.1094 0
L9.07812 0
L9.07812 54.6875
L18.1094 54.6875
L18.1094 46.1875
Q21.1875 51.2188 25.4844 53.6094
Q29.7812 56 35.6875 56
Q41.6562 56 45.8281 52.9688
Q50 49.9531 52 44.1875" id="DejaVuSans-6d"/>
      <path d="
M56.2031 29.5938
L56.2031 25.2031
L14.8906 25.2031
Q15.4844 15.9219 20.4844 11.0625
Q25.4844 6.20312 34.4219 6.20312
Q39.5938 6.20312 44.4531 7.46875
Q49.3125 8.73438 54.1094 11.2812
L54.1094 2.78125
Q49.2656 0.734375 44.1875 -0.34375
Q39.1094 -1.42188 33.8906 -1.42188
Q20.7969 -1.42188 13.1562 6.1875
Q5.51562 13.8125 5.51562 26.8125
Q5.51562 40.2344 12.7656 48.1094
Q20.0156 56 32.3281 56
Q43.3594 56 49.7812 48.8906
Q56.2031 41.7969 56.2031 29.5938
M47.2188 32.2344
Q47.125 39.5938 43.0938 43.9844
Q39.0625 48.3906 32.4219 48.3906
Q24.9062 48.3906 20.3906 44.1406
Q15.875 39.8906 15.1875 32.1719
z
" id="DejaVuSans-65"/>
      <path d="
M9.42188 54.6875
L18.4062 54.6875
L18.4062 0
L9.42188 0
z

M9.42188 75.9844
L18.4062 75.9844
L18.4062 64.5938
L9.42188 64.5938
z
" id="DejaVuSans-69"/>
     </defs>
     <g transform="translate(242.115625 398.473625)scale(0.12 -0.12)">
      <use xlink:href="#DejaVuSans-74"/>
      <use x="39.208984375" xlink:href="#DejaVuSans-69"/>
      <use x="66.9921875" xlink:href="#DejaVuSans-6d"/>
      <use x="164.404296875" xlink:href="#DejaVuSans-65"/>
     </g>
    </g>
   </g>
   <g id="matplotlib.axis_2">
    <g id="ytick_1">
     <g id="line2d_29">
      <defs>
       <path d="
M0 0
L4 0" id="m728421d6d4" style="stroke:#000000;stroke-width:0.5;"/>
      </defs>
      <g>
       <use style="stroke:#000000;stroke-width:0.5;" x="31.99" xlink:href="#m728421d6d4" y="368.74175"/>
      </g>
     </g>
     <g id="line2d_30">
      <defs>
       <path d="
M0 0
L-4 0" id="mcb0005524f" style="stroke:#000000;stroke-width:0.5;"/>
      </defs>
      <g>
       <use style="stroke:#000000;stroke-width:0.5;" x="478.39" xlink:href="#mcb0005524f" y="368.74175"/>
      </g>
     </g>
     <g id="text_8">
      <!-- 0 -->
      <g transform="translate(21.943125 372.053)scale(0.12 -0.12)">
       <use xlink:href="#DejaVuSans-30"/>
      </g>
     </g>
    </g>
    <g id="ytick_2">
     <g id="line2d_31">
      <g>
       <use style="stroke:#000000;stroke-width:0.5;" x="31.99" xlink:href="#m728421d6d4" y="330.34175"/>
      </g>
     </g>
     <g id="line2d_32">
      <g>
       <use style="stroke:#000000;stroke-width:0.5;" x="478.39" xlink:href="#mcb0005524f" y="330.34175"/>
      </g>
     </g>
     <g id="text_9">
      <!-- 20 -->
      <g transform="translate(14.39625 333.653)scale(0.12 -0.12)">
       <use xlink:href="#DejaVuSans-32"/>
       <use x="63.623046875" xlink:href="#DejaVuSans-30"/>
      </g>
     </g>
    </g>
    <g id="ytick_3">
     <g id="line2d_33">
      <g>
       <use style="stroke:#000000;stroke-width:0.5;" x="31.99" xlink:href="#m728421d6d4" y="291.94175"/>
      </g>
     </g>
     <g id="line2d_34">
      <g>
       <use style="stroke:#000000;stroke-width:0.5;" x="478.39" xlink:href="#mcb0005524f" y="291.94175"/>
      </g>
     </g>
     <g id="text_10">
      <!-- 40 -->
      <defs>
       <path d="
M37.7969 64.3125
L12.8906 25.3906
L37.7969 25.3906
z

M35.2031 72.9062
L47.6094 72.9062
L47.6094 25.3906
L58.0156 25.3906
L58.0156 17.1875
L47.6094 17.1875
L47.6094 0
L37.7969 0
L37.7969 17.1875
L4.89062 17.1875
L4.89062 26.7031
z
" id="DejaVuSans-34"/>
      </defs>
      <g transform="translate(14.10375 295.253)scale(0.12 -0.12)">
       <use xlink:href="#DejaVuSans-34"/>
       <use x="63.623046875" xlink:href="#DejaVuSans-30"/>
      </g>
     </g>
    </g>
    <g id="ytick_4">
     <g id="line2d_35">
      <g>
       <use style="stroke:#000000;stroke-width:0.5;" x="31.99" xlink:href="#m728421d6d4" y="253.54175"/>
      </g>
     </g>
     <g id="line2d_36">
      <g>
       <use style="stroke:#000000;stroke-width:0.5;" x="478.39" xlink:href="#mcb0005524f" y="253.54175"/>
      </g>
     </g>
     <g id="text_11">
      <!-- 60 -->
      <defs>
       <path d="
M33.0156 40.375
Q26.375 40.375 22.4844 35.8281
Q18.6094 31.2969 18.6094 23.3906
Q18.6094 15.5312 22.4844 10.9531
Q26.375 6.39062 33.0156 6.39062
Q39.6562 6.39062 43.5312 10.9531
Q47.4062 15.5312 47.4062 23.3906
Q47.4062 31.2969 43.5312 35.8281
Q39.6562 40.375 33.0156 40.375
M52.5938 71.2969
L52.5938 62.3125
Q48.875 64.0625 45.0938 64.9844
Q41.3125 65.9219 37.5938 65.9219
Q27.8281 65.9219 22.6719 59.3281
Q17.5312 52.7344 16.7969 39.4062
Q19.6719 43.6562 24.0156 45.9219
Q28.375 48.1875 33.5938 48.1875
Q44.5781 48.1875 50.9531 41.5156
Q57.3281 34.8594 57.3281 23.3906
Q57.3281 12.1562 50.6875 5.35938
Q44.0469 -1.42188 33.0156 -1.42188
Q20.3594 -1.42188 13.6719 8.26562
Q6.98438 17.9688 6.98438 36.375
Q6.98438 53.6562 15.1875 63.9375
Q23.3906 74.2188 37.2031 74.2188
Q40.9219 74.2188 44.7031 73.4844
Q48.4844 72.75 52.5938 71.2969" id="DejaVuSans-36"/>
      </defs>
      <g transform="translate(14.355 256.853)scale(0.12 -0.12)">
       <use xlink:href="#DejaVuSans-36"/>
       <use x="63.623046875" xlink:href="#DejaVuSans-30"/>
      </g>
     </g>
    </g>
    <g id="ytick_5">
     <g id="line2d_37">
      <g>
       <use style="stroke:#000000;stroke-width:0.5;" x="31.99" xlink:href="#m728421d6d4" y="215.14175"/>
      </g>
     </g>
     <g id="line2d_38">
      <g>
       <use style="stroke:#000000;stroke-width:0.5;" x="478.39" xlink:href="#mcb0005524f" y="215.14175"/>
      </g>
     </g>
     <g id="text_12">
      <!-- 80 -->
      <defs>
       <path d="
M31.7812 34.625
Q24.75 34.625 20.7188 30.8594
Q16.7031 27.0938 16.7031 20.5156
Q16.7031 13.9219 20.7188 10.1562
Q24.75 6.39062 31.7812 6.39062
Q38.8125 6.39062 42.8594 10.1719
Q46.9219 13.9688 46.9219 20.5156
Q46.9219 27.0938 42.8906 30.8594
Q38.875 34.625 31.7812 34.625
M21.9219 38.8125
Q15.5781 40.375 12.0312 44.7188
Q8.5 49.0781 8.5 55.3281
Q8.5 64.0625 14.7188 69.1406
Q20.9531 74.2188 31.7812 74.2188
Q42.6719 74.2188 48.875 69.1406
Q55.0781 64.0625 55.0781 55.3281
Q55.0781 49.0781 51.5312 44.7188
Q48 40.375 41.7031 38.8125
Q48.8281 37.1562 52.7969 32.3125
Q56.7812 27.4844 56.7812 20.5156
Q56.7812 9.90625 50.3125 4.23438
Q43.8438 -1.42188 31.7812 -1.42188
Q19.7344 -1.42188 13.25 4.23438
Q6.78125 9.90625 6.78125 20.5156
Q6.78125 27.4844 10.7812 32.3125
Q14.7969 37.1562 21.9219 38.8125
M18.3125 54.3906
Q18.3125 48.7344 21.8438 45.5625
Q25.3906 42.3906 31.7812 42.3906
Q38.1406 42.3906 41.7188 45.5625
Q45.3125 48.7344 45.3125 54.3906
Q45.3125 60.0625 41.7188 63.2344
Q38.1406 66.4062 31.7812 66.4062
Q25.3906 66.4062 21.8438 63.2344
Q18.3125 60.0625 18.3125 54.3906" id="DejaVuSans-38"/>
      </defs>
      <g transform="translate(14.330625 218.453)scale(0.12 -0.12)">
       <use xlink:href="#DejaVuSans-38"/>
       <use x="63.623046875" xlink:href="#DejaVuSans-30"/>
      </g>
     </g>
    </g>
    <g id="ytick_6">
     <g id="line2d_39">
      <g>
       <use style="stroke:#000000;stroke-width:0.5;" x="31.99" xlink:href="#m728421d6d4" y="176.74175"/>
      </g>
     </g>
     <g id="line2d_40">
      <g>
       <use style="stroke:#000000;stroke-width:0.5;" x="478.39" xlink:href="#mcb0005524f" y="176.74175"/>
      </g>
     </g>
     <g id="text_13">
      <!-- 100 -->
      <g transform="translate(7.2 180.053)scale(0.12 -0.12)">
       <use xlink:href="#DejaVuSans-31"/>
       <use x="63.623046875" xlink:href="#DejaVuSans-30"/>
       <use x="127.24609375" xlink:href="#DejaVuSans-30"/>
      </g>
     </g>
    </g>
    <g id="ytick_7">
     <g id="line2d_41">
      <g>
       <use style="stroke:#000000;stroke-width:0.5;" x="31.99" xlink:href="#m728421d6d4" y="138.34175"/>
      </g>
     </g>
     <g id="line2d_42">
      <g>
       <use style="stroke:#000000;stroke-width:0.5;" x="478.39" xlink:href="#mcb0005524f" y="138.34175"/>
      </g>
     </g>
     <g id="text_14">
      <!-- 120 -->
      <g transform="translate(7.2 141.653)scale(0.12 -0.12)">
       <use xlink:href="#DejaVuSans-31"/>
       <use x="63.623046875" xlink:href="#DejaVuSans-32"/>
       <use x="127.24609375" xlink:href="#DejaVuSans-30"/>
      </g>
     </g>
    </g>
    <g id="ytick_8">
     <g id="line2d_43">
      <g>
       <use style="stroke:#000000;stroke-width:0.5;" x="31.99" xlink:href="#m728421d6d4" y="99.94175"/>
      </g>
     </g>
     <g id="line2d_44">
      <g>
       <use style="stroke:#000000;stroke-width:0.5;" x="478.39" xlink:href="#mcb0005524f" y="99.94175"/>
      </g>
     </g>
     <g id="text_15">
      <!-- 140 -->
      <g transform="translate(7.2 103.253)scale(0.12 -0.12)">
       <use xlink:href="#DejaVuSans-31"/>
       <use x="63.623046875" xlink:href="#DejaVuSans-34"/>
       <use x="127.24609375" xlink:href="#DejaVuSans-30"/>
      </g>
     </g>
    </g>
    <g id="ytick_9">
     <g id="line2d_45">
      <g>
       <use style="stroke:#000000;stroke-width:0.5;" x="31.99" xlink:href="#m728421d6d4" y="61.54175"/>
      </g>
     </g>
     <g id="line2d_46">
      <g>
       <use style="stroke:#000000;stroke-width:0.5;" x="478.39" xlink:href="#mcb0005524f" y="61.54175"/>
      </g>
     </g>
     <g id="text_16">
      <!-- 160 -->
      <g transform="translate(7.2 64.853)scale(0.12 -0.12)">
       <use xlink:href="#DejaVuSans-31"/>
       <use x="63.623046875" xlink:href="#DejaVuSans-36"/>
       <use x="127.24609375" xlink:href="#DejaVuSans-30"/>
      </g>
     </g>
    </g>
    <g id="ytick_10">
     <g id="line2d_47">
      <g>
       <use style="stroke:#000000;stroke-width:0.5;" x="31.99" xlink:href="#m728421d6d4" y="23.14175"/>
      </g>
     </g>
     <g id="line2d_48">
      <g>
       <use style="stroke:#000000;stroke-width:0.5;" x="478.39" xlink:href="#mcb0005524f" y="23.14175"/>
      </g>
     </g>
     <g id="text_17">
      <!-- 180 -->
      <g transform="translate(7.2 26.453)scale(0.12 -0.12)">
       <use xlink:href="#DejaVuSans-31"/>
       <use x="63.623046875" xlink:href="#DejaVuSans-38"/>
       <use x="127.24609375" xlink:href="#DejaVuSans-30"/>
      </g>
     </g>
    </g>
   </g>
   <g id="text_18">
    <!-- /agas/count/allocate -->
    <defs>
     <path d="
M25.3906 72.9062
L33.6875 72.9062
L8.29688 -9.28125
L0 -9.28125
z
" id="DejaVuSans-2f"/>
     <path d="
M30.6094 48.3906
Q23.3906 48.3906 19.1875 42.75
Q14.9844 37.1094 14.9844 27.2969
Q14.9844 17.4844 19.1562 11.8438
Q23.3438 6.20312 30.6094 6.20312
Q37.7969 6.20312 41.9844 11.8594
Q46.1875 17.5312 46.1875 27.2969
Q46.1875 37.0156 41.9844 42.7031
Q37.7969 48.3906 30.6094 48.3906
M30.6094 56
Q42.3281 56 49.0156 48.375
Q55.7188 40.7656 55.7188 27.2969
Q55.7188 13.875 49.0156 6.21875
Q42.3281 -1.42188 30.6094 -1.42188
Q18.8438 -1.42188 12.1719 6.21875
Q5.51562 13.875 5.51562 27.2969
Q5.51562 40.7656 12.1719 48.375
Q18.8438 56 30.6094 56" id="DejaVuSans-6f"/>
     <path d="
M54.8906 33.0156
L54.8906 0
L45.9062 0
L45.9062 32.7188
Q45.9062 40.4844 42.875 44.3281
Q39.8438 48.1875 33.7969 48.1875
Q26.5156 48.1875 22.3125 43.5469
Q18.1094 38.9219 18.1094 30.9062
L18.1094 0
L9.07812 0
L9.07812 54.6875
L18.1094 54.6875
L18.1094 46.1875
Q21.3438 51.125 25.7031 53.5625
Q30.0781 56 35.7969 56
Q45.2188 56 50.0469 50.1719
Q54.8906 44.3438 54.8906 33.0156" id="DejaVuSans-6e"/>
     <path d="
M9.42188 75.9844
L18.4062 75.9844
L18.4062 0
L9.42188 0
z
" id="DejaVuSans-6c"/>
     <path d="
M8.5 21.5781
L8.5 54.6875
L17.4844 54.6875
L17.4844 21.9219
Q17.4844 14.1562 20.5 10.2656
Q23.5312 6.39062 29.5938 6.39062
Q36.8594 6.39062 41.0781 11.0312
Q45.3125 15.6719 45.3125 23.6875
L45.3125 54.6875
L54.2969 54.6875
L54.2969 0
L45.3125 0
L45.3125 8.40625
Q42.0469 3.42188 37.7188 1
Q33.4062 -1.42188 27.6875 -1.42188
Q18.2656 -1.42188 13.375 4.4375
Q8.5 10.2969 8.5 21.5781
M31.1094 56
z
" id="DejaVuSans-75"/>
     <path d="
M45.4062 27.9844
Q45.4062 37.75 41.375 43.1094
Q37.3594 48.4844 30.0781 48.4844
Q22.8594 48.4844 18.8281 43.1094
Q14.7969 37.75 14.7969 27.9844
Q14.7969 18.2656 18.8281 12.8906
Q22.8594 7.51562 30.0781 7.51562
Q37.3594 7.51562 41.375 12.8906
Q45.4062 18.2656 45.4062 27.9844
M54.3906 6.78125
Q54.3906 -7.17188 48.1875 -13.9844
Q42 -20.7969 29.2031 -20.7969
Q24.4688 -20.7969 20.2656 -20.0938
Q16.0625 -19.3906 12.1094 -17.9219
L12.1094 -9.1875
Q16.0625 -11.3281 19.9219 -12.3438
Q23.7812 -13.375 27.7812 -13.375
Q36.625 -13.375 41.0156 -8.76562
Q45.4062 -4.15625 45.4062 5.17188
L45.4062 9.625
Q42.625 4.78125 38.2812 2.39062
Q33.9375 0 27.875 0
Q17.8281 0 11.6719 7.65625
Q5.51562 15.3281 5.51562 27.9844
Q5.51562 40.6719 11.6719 48.3281
Q17.8281 56 27.875 56
Q33.9375 56 38.2812 53.6094
Q42.625 51.2188 45.4062 46.3906
L45.4062 54.6875
L54.3906 54.6875
z
" id="DejaVuSans-67"/>
     <path d="
M48.7812 52.5938
L48.7812 44.1875
Q44.9688 46.2969 41.1406 47.3438
Q37.3125 48.3906 33.4062 48.3906
Q24.6562 48.3906 19.8125 42.8438
Q14.9844 37.3125 14.9844 27.2969
Q14.9844 17.2812 19.8125 11.7344
Q24.6562 6.20312 33.4062 6.20312
Q37.3125 6.20312 41.1406 7.25
Q44.9688 8.29688 48.7812 10.4062
L48.7812 2.09375
Q45.0156 0.34375 40.9844 -0.53125
Q36.9688 -1.42188 32.4219 -1.42188
Q20.0625 -1.42188 12.7812 6.34375
Q5.51562 14.1094 5.51562 27.2969
Q5.51562 40.6719 12.8594 48.3281
Q20.2188 56 33.0156 56
Q37.1562 56 41.1094 55.1406
Q45.0625 54.2969 48.7812 52.5938" id="DejaVuSans-63"/>
     <path d="
M44.2812 53.0781
L44.2812 44.5781
Q40.4844 46.5312 36.375 47.5
Q32.2812 48.4844 27.875 48.4844
Q21.1875 48.4844 17.8438 46.4375
Q14.5 44.3906 14.5 40.2812
Q14.5 37.1562 16.8906 35.375
Q19.2812 33.5938 26.5156 31.9844
L29.5938 31.2969
Q39.1562 29.25 43.1875 25.5156
Q47.2188 21.7812 47.2188 15.0938
Q47.2188 7.46875 41.1875 3.01562
Q35.1562 -1.42188 24.6094 -1.42188
Q20.2188 -1.42188 15.4531 -0.5625
Q10.6875 0.296875 5.42188 2
L5.42188 11.2812
Q10.4062 8.6875 15.2344 7.39062
Q20.0625 6.10938 24.8125 6.10938
Q31.1562 6.10938 34.5625 8.28125
Q37.9844 10.4531 37.9844 14.4062
Q37.9844 18.0625 35.5156 20.0156
Q33.0625 21.9688 24.7031 23.7812
L21.5781 24.5156
Q13.2344 26.2656 9.51562 29.9062
Q5.8125 33.5469 5.8125 39.8906
Q5.8125 47.6094 11.2812 51.7969
Q16.75 56 26.8125 56
Q31.7812 56 36.1719 55.2656
Q40.5781 54.5469 44.2812 53.0781" id="DejaVuSans-73"/>
     <path d="
M34.2812 27.4844
Q23.3906 27.4844 19.1875 25
Q14.9844 22.5156 14.9844 16.5
Q14.9844 11.7188 18.1406 8.90625
Q21.2969 6.10938 26.7031 6.10938
Q34.1875 6.10938 38.7031 11.4062
Q43.2188 16.7031 43.2188 25.4844
L43.2188 27.4844
z

M52.2031 31.2031
L52.2031 0
L43.2188 0
L43.2188 8.29688
Q40.1406 3.32812 35.5469 0.953125
Q30.9531 -1.42188 24.3125 -1.42188
Q15.9219 -1.42188 10.9531 3.29688
Q6 8.01562 6 15.9219
Q6 25.1406 12.1719 29.8281
Q18.3594 34.5156 30.6094 34.5156
L43.2188 34.5156
L43.2188 35.4062
Q43.2188 41.6094 39.1406 45
Q35.0625 48.3906 27.6875 48.3906
Q23 48.3906 18.5469 47.2656
Q14.1094 46.1406 10.0156 43.8906
L10.0156 52.2031
Q14.9375 54.1094 19.5781 55.0469
Q24.2188 56 28.6094 56
Q40.4844 56 46.3438 49.8438
Q52.2031 43.7031 52.2031 31.2031" id="DejaVuSans-61"/>
    </defs>
    <g transform="translate(182.39575 18.14175)scale(0.144 -0.144)">
     <use xlink:href="#DejaVuSans-2f"/>
     <use x="33.69140625" xlink:href="#DejaVuSans-61"/>
     <use x="94.970703125" xlink:href="#DejaVuSans-67"/>
     <use x="158.447265625" xlink:href="#DejaVuSans-61"/>
     <use x="219.7265625" xlink:href="#DejaVuSans-73"/>
     <use x="271.826171875" xlink:href="#DejaVuSans-2f"/>
     <use x="305.517578125" xlink:href="#DejaVuSans-63"/>
     <use x="360.498046875" xlink:href="#DejaVuSans-6f"/>
     <use x="421.6796875" xlink:href="#DejaVuSans-75"/>
     <use x="485.05859375" xlink:href="#DejaVuSans-6e"/>
     <use x="548.4375" xlink:href="#DejaVuSans-74"/>
     <use x="587.646484375" xlink:href="#DejaVuSans-2f"/>
     <use x="621.337890625" xlink:href="#DejaVuSans-61"/>
     <use x="682.6171875" xlink:href="#DejaVuSans-6c"/>
     <use x="710.400390625" xlink:href="#DejaVuSans-6c"/>
     <use x="738.18359375" xlink:href="#DejaVuSans-6f"/>
     <use x="799.365234375" xlink:href="#DejaVuSans-63"/>
     <use x="854.345703125" xlink:href="#DejaVuSans-61"/>
     <use x="915.625" xlink:href="#DejaVuSans-74"/>
     <use x="954.833984375" xlink:href="#DejaVuSans-65"/>
    </g>
   </g>
   <g id="legend_1">
    <g id="patch_7">
     <path d="
M485.59 367.194
L617.379 367.194
L617.379 24.6897
L485.59 24.6897
z
" style="fill:#ffffff;stroke:#000000;stroke-linejoin:miter;"/>
    </g>
    <g id="line2d_49">
     <path d="
M495.67 36.3515
L515.83 36.3515" style="fill:none;stroke:#0000ff;stroke-linecap:square;"/>
    </g>
    <g id="line2d_50"/>
    <g id="text_19">
     <!-- locality#0 -->
     <defs>
      <path d="
M51.125 44
L36.9219 44
L32.8125 27.6875
L47.125 27.6875
z

M43.7969 71.7812
L38.7188 51.5156
L52.9844 51.5156
L58.1094 71.7812
L65.9219 71.7812
L60.8906 51.5156
L76.125 51.5156
L76.125 44
L58.9844 44
L54.9844 27.6875
L70.5156 27.6875
L70.5156 20.2188
L53.0781 20.2188
L48 0
L40.1875 0
L45.2188 20.2188
L30.9062 20.2188
L25.875 0
L18.0156 0
L23.0938 20.2188
L7.71875 20.2188
L7.71875 27.6875
L24.9062 27.6875
L29 44
L13.2812 44
L13.2812 51.5156
L30.9062 51.5156
L35.8906 71.7812
z
" id="DejaVuSans-23"/>
      <path d="
M32.1719 -5.07812
Q28.375 -14.8438 24.75 -17.8125
Q21.1406 -20.7969 15.0938 -20.7969
L7.90625 -20.7969
L7.90625 -13.2812
L13.1875 -13.2812
Q16.8906 -13.2812 18.9375 -11.5156
Q21 -9.76562 23.4844 -3.21875
L25.0938 0.875
L2.98438 54.6875
L12.5 54.6875
L29.5938 11.9219
L46.6875 54.6875
L56.2031 54.6875
z
" id="DejaVuSans-79"/>
     </defs>
     <g transform="translate(531.67 41.3915)scale(0.144 -0.144)">
      <use xlink:href="#DejaVuSans-6c"/>
      <use x="27.783203125" xlink:href="#DejaVuSans-6f"/>
      <use x="88.96484375" xlink:href="#DejaVuSans-63"/>
      <use x="143.9453125" xlink:href="#DejaVuSans-61"/>
      <use x="205.224609375" xlink:href="#DejaVuSans-6c"/>
      <use x="233.0078125" xlink:href="#DejaVuSans-69"/>
      <use x="260.791015625" xlink:href="#DejaVuSans-74"/>
      <use x="300.0" xlink:href="#DejaVuSans-79"/>
      <use x="359.1796875" xlink:href="#DejaVuSans-23"/>
      <use x="442.96875" xlink:href="#DejaVuSans-30"/>
     </g>
    </g>
    <g id="line2d_51">
     <path d="
M495.67 57.488
L515.83 57.488" style="fill:none;stroke:#008000;stroke-linecap:square;"/>
    </g>
    <g id="line2d_52"/>
    <g id="text_20">
     <!-- locality#1 -->
     <g transform="translate(531.67 62.528)scale(0.144 -0.144)">
      <use xlink:href="#DejaVuSans-6c"/>
      <use x="27.783203125" xlink:href="#DejaVuSans-6f"/>
      <use x="88.96484375" xlink:href="#DejaVuSans-63"/>
      <use x="143.9453125" xlink:href="#DejaVuSans-61"/>
      <use x="205.224609375" xlink:href="#DejaVuSans-6c"/>
      <use x="233.0078125" xlink:href="#DejaVuSans-69"/>
      <use x="260.791015625" xlink:href="#DejaVuSans-74"/>
      <use x="300.0" xlink:href="#DejaVuSans-79"/>
      <use x="359.1796875" xlink:href="#DejaVuSans-23"/>
      <use x="442.96875" xlink:href="#DejaVuSans-31"/>
     </g>
    </g>
    <g id="line2d_53">
     <path d="
M495.67 78.6245
L515.83 78.6245" style="fill:none;stroke:#ff0000;stroke-linecap:square;"/>
    </g>
    <g id="line2d_54"/>
    <g id="text_21">
     <!-- locality#10 -->
     <g transform="translate(531.67 83.6645)scale(0.144 -0.144)">
      <use xlink:href="#DejaVuSans-6c"/>
      <use x="27.783203125" xlink:href="#DejaVuSans-6f"/>
      <use x="88.96484375" xlink:href="#DejaVuSans-63"/>
      <use x="143.9453125" xlink:href="#DejaVuSans-61"/>
      <use x="205.224609375" xlink:href="#DejaVuSans-6c"/>
      <use x="233.0078125" xlink:href="#DejaVuSans-69"/>
      <use x="260.791015625" xlink:href="#DejaVuSans-74"/>
      <use x="300.0" xlink:href="#DejaVuSans-79"/>
      <use x="359.1796875" xlink:href="#DejaVuSans-23"/>
      <use x="442.96875" xlink:href="#DejaVuSans-31"/>
      <use x="506.591796875" xlink:href="#DejaVuSans-30"/>
     </g>
    </g>
    <g id="line2d_55">
     <path d="
M495.67 99.761
L515.83 99.761" style="fill:none;stroke:#00bfbf;stroke-linecap:square;"/>
    </g>
    <g id="line2d_56"/>
    <g id="text_22">
     <!-- locality#11 -->
     <g transform="translate(531.67 104.801)scale(0.144 -0.144)">
      <use xlink:href="#DejaVuSans-6c"/>
      <use x="27.783203125" xlink:href="#DejaVuSans-6f"/>
      <use x="88.96484375" xlink:href="#DejaVuSans-63"/>
      <use x="143.9453125" xlink:href="#DejaVuSans-61"/>
      <use x="205.224609375" xlink:href="#DejaVuSans-6c"/>
      <use x="233.0078125" xlink:href="#DejaVuSans-69"/>
      <use x="260.791015625" xlink:href="#DejaVuSans-74"/>
      <use x="300.0" xlink:href="#DejaVuSans-79"/>
      <use x="359.1796875" xlink:href="#DejaVuSans-23"/>
      <use x="442.96875" xlink:href="#DejaVuSans-31"/>
      <use x="506.591796875" xlink:href="#DejaVuSans-31"/>
     </g>
    </g>
    <g id="line2d_57">
     <path d="
M495.67 120.897
L515.83 120.897" style="fill:none;stroke:#bf00bf;stroke-linecap:square;"/>
    </g>
    <g id="line2d_58"/>
    <g id="text_23">
     <!-- locality#12 -->
     <g transform="translate(531.67 125.9375)scale(0.144 -0.144)">
      <use xlink:href="#DejaVuSans-6c"/>
      <use x="27.783203125" xlink:href="#DejaVuSans-6f"/>
      <use x="88.96484375" xlink:href="#DejaVuSans-63"/>
      <use x="143.9453125" xlink:href="#DejaVuSans-61"/>
      <use x="205.224609375" xlink:href="#DejaVuSans-6c"/>
      <use x="233.0078125" xlink:href="#DejaVuSans-69"/>
      <use x="260.791015625" xlink:href="#DejaVuSans-74"/>
      <use x="300.0" xlink:href="#DejaVuSans-79"/>
      <use x="359.1796875" xlink:href="#DejaVuSans-23"/>
      <use x="442.96875" xlink:href="#DejaVuSans-31"/>
      <use x="506.591796875" xlink:href="#DejaVuSans-32"/>
     </g>
    </g>
    <g id="line2d_59">
     <path d="
M495.67 142.034
L515.83 142.034" style="fill:none;stroke:#bfbf00;stroke-linecap:square;"/>
    </g>
    <g id="line2d_60"/>
    <g id="text_24">
     <!-- locality#13 -->
     <defs>
      <path d="
M40.5781 39.3125
Q47.6562 37.7969 51.625 33
Q55.6094 28.2188 55.6094 21.1875
Q55.6094 10.4062 48.1875 4.48438
Q40.7656 -1.42188 27.0938 -1.42188
Q22.5156 -1.42188 17.6562 -0.515625
Q12.7969 0.390625 7.625 2.20312
L7.625 11.7188
Q11.7188 9.32812 16.5938 8.10938
Q21.4844 6.89062 26.8125 6.89062
Q36.0781 6.89062 40.9375 10.5469
Q45.7969 14.2031 45.7969 21.1875
Q45.7969 27.6406 41.2812 31.2656
Q36.7656 34.9062 28.7188 34.9062
L20.2188 34.9062
L20.2188 43.0156
L29.1094 43.0156
Q36.375 43.0156 40.2344 45.9219
Q44.0938 48.8281 44.0938 54.2969
Q44.0938 59.9062 40.1094 62.9062
Q36.1406 65.9219 28.7188 65.9219
Q24.6562 65.9219 20.0156 65.0312
Q15.375 64.1562 9.8125 62.3125
L9.8125 71.0938
Q15.4375 72.6562 20.3438 73.4375
Q25.25 74.2188 29.5938 74.2188
Q40.8281 74.2188 47.3594 69.1094
Q53.9062 64.0156 53.9062 55.3281
Q53.9062 49.2656 50.4375 45.0938
Q46.9688 40.9219 40.5781 39.3125" id="DejaVuSans-33"/>
     </defs>
     <g transform="translate(531.67 147.074)scale(0.144 -0.144)">
      <use xlink:href="#DejaVuSans-6c"/>
      <use x="27.783203125" xlink:href="#DejaVuSans-6f"/>
      <use x="88.96484375" xlink:href="#DejaVuSans-63"/>
      <use x="143.9453125" xlink:href="#DejaVuSans-61"/>
      <use x="205.224609375" xlink:href="#DejaVuSans-6c"/>
      <use x="233.0078125" xlink:href="#DejaVuSans-69"/>
      <use x="260.791015625" xlink:href="#DejaVuSans-74"/>
      <use x="300.0" xlink:href="#DejaVuSans-79"/>
      <use x="359.1796875" xlink:href="#DejaVuSans-23"/>
      <use x="442.96875" xlink:href="#DejaVuSans-31"/>
      <use x="506.591796875" xlink:href="#DejaVuSans-33"/>
     </g>
    </g>
    <g id="line2d_61">
     <path d="
M495.67 163.17
L515.83 163.17" style="fill:none;stroke:#000000;stroke-linecap:square;"/>
    </g>
    <g id="line2d_62"/>
    <g id="text_25">
     <!-- locality#14 -->
     <g transform="translate(531.67 168.2105)scale(0.144 -0.144)">
      <use xlink:href="#DejaVuSans-6c"/>
      <use x="27.783203125" xlink:href="#DejaVuSans-6f"/>
      <use x="88.96484375" xlink:href="#DejaVuSans-63"/>
      <use x="143.9453125" xlink:href="#DejaVuSans-61"/>
      <use x="205.224609375" xlink:href="#DejaVuSans-6c"/>
      <use x="233.0078125" xlink:href="#DejaVuSans-69"/>
      <use x="260.791015625" xlink:href="#DejaVuSans-74"/>
      <use x="300.0" xlink:href="#DejaVuSans-79"/>
      <use x="359.1796875" xlink:href="#DejaVuSans-23"/>
      <use x="442.96875" xlink:href="#DejaVuSans-31"/>
      <use x="506.591796875" xlink:href="#DejaVuSans-34"/>
     </g>
    </g>
    <g id="line2d_63">
     <path d="
M495.67 184.307
L515.83 184.307" style="fill:none;stroke:#0000ff;stroke-linecap:square;"/>
    </g>
    <g id="line2d_64"/>
    <g id="text_26">
     <!-- locality#15 -->
     <g transform="translate(531.67 189.347)scale(0.144 -0.144)">
      <use xlink:href="#DejaVuSans-6c"/>
      <use x="27.783203125" xlink:href="#DejaVuSans-6f"/>
      <use x="88.96484375" xlink:href="#DejaVuSans-63"/>
      <use x="143.9453125" xlink:href="#DejaVuSans-61"/>
      <use x="205.224609375" xlink:href="#DejaVuSans-6c"/>
      <use x="233.0078125" xlink:href="#DejaVuSans-69"/>
      <use x="260.791015625" xlink:href="#DejaVuSans-74"/>
      <use x="300.0" xlink:href="#DejaVuSans-79"/>
      <use x="359.1796875" xlink:href="#DejaVuSans-23"/>
      <use x="442.96875" xlink:href="#DejaVuSans-31"/>
      <use x="506.591796875" xlink:href="#DejaVuSans-35"/>
     </g>
    </g>
    <g id="line2d_65">
     <path d="
M495.67 205.443
L515.83 205.443" style="fill:none;stroke:#008000;stroke-linecap:square;"/>
    </g>
    <g id="line2d_66"/>
    <g id="text_27">
     <!-- locality#2 -->
     <g transform="translate(531.67 210.4835)scale(0.144 -0.144)">
      <use xlink:href="#DejaVuSans-6c"/>
      <use x="27.783203125" xlink:href="#DejaVuSans-6f"/>
      <use x="88.96484375" xlink:href="#DejaVuSans-63"/>
      <use x="143.9453125" xlink:href="#DejaVuSans-61"/>
      <use x="205.224609375" xlink:href="#DejaVuSans-6c"/>
      <use x="233.0078125" xlink:href="#DejaVuSans-69"/>
      <use x="260.791015625" xlink:href="#DejaVuSans-74"/>
      <use x="300.0" xlink:href="#DejaVuSans-79"/>
      <use x="359.1796875" xlink:href="#DejaVuSans-23"/>
      <use x="442.96875" xlink:href="#DejaVuSans-32"/>
     </g>
    </g>
    <g id="line2d_67">
     <path d="
M495.67 226.58
L515.83 226.58" style="fill:none;stroke:#ff0000;stroke-linecap:square;"/>
    </g>
    <g id="line2d_68"/>
    <g id="text_28">
     <!-- locality#3 -->
     <g transform="translate(531.67 231.62)scale(0.144 -0.144)">
      <use xlink:href="#DejaVuSans-6c"/>
      <use x="27.783203125" xlink:href="#DejaVuSans-6f"/>
      <use x="88.96484375" xlink:href="#DejaVuSans-63"/>
      <use x="143.9453125" xlink:href="#DejaVuSans-61"/>
      <use x="205.224609375" xlink:href="#DejaVuSans-6c"/>
      <use x="233.0078125" xlink:href="#DejaVuSans-69"/>
      <use x="260.791015625" xlink:href="#DejaVuSans-74"/>
      <use x="300.0" xlink:href="#DejaVuSans-79"/>
      <use x="359.1796875" xlink:href="#DejaVuSans-23"/>
      <use x="442.96875" xlink:href="#DejaVuSans-33"/>
     </g>
    </g>
    <g id="line2d_69">
     <path d="
M495.67 247.716
L515.83 247.716" style="fill:none;stroke:#00bfbf;stroke-linecap:square;"/>
    </g>
    <g id="line2d_70"/>
    <g id="text_29">
     <!-- locality#4 -->
     <g transform="translate(531.67 252.7565)scale(0.144 -0.144)">
      <use xlink:href="#DejaVuSans-6c"/>
      <use x="27.783203125" xlink:href="#DejaVuSans-6f"/>
      <use x="88.96484375" xlink:href="#DejaVuSans-63"/>
      <use x="143.9453125" xlink:href="#DejaVuSans-61"/>
      <use x="205.224609375" xlink:href="#DejaVuSans-6c"/>
      <use x="233.0078125" xlink:href="#DejaVuSans-69"/>
      <use x="260.791015625" xlink:href="#DejaVuSans-74"/>
      <use x="300.0" xlink:href="#DejaVuSans-79"/>
      <use x="359.1796875" xlink:href="#DejaVuSans-23"/>
      <use x="442.96875" xlink:href="#DejaVuSans-34"/>
     </g>
    </g>
    <g id="line2d_71">
     <path d="
M495.67 268.853
L515.83 268.853" style="fill:none;stroke:#bf00bf;stroke-linecap:square;"/>
    </g>
    <g id="line2d_72"/>
    <g id="text_30">
     <!-- locality#5 -->
     <g transform="translate(531.67 273.893)scale(0.144 -0.144)">
      <use xlink:href="#DejaVuSans-6c"/>
      <use x="27.783203125" xlink:href="#DejaVuSans-6f"/>
      <use x="88.96484375" xlink:href="#DejaVuSans-63"/>
      <use x="143.9453125" xlink:href="#DejaVuSans-61"/>
      <use x="205.224609375" xlink:href="#DejaVuSans-6c"/>
      <use x="233.0078125" xlink:href="#DejaVuSans-69"/>
      <use x="260.791015625" xlink:href="#DejaVuSans-74"/>
      <use x="300.0" xlink:href="#DejaVuSans-79"/>
      <use x="359.1796875" xlink:href="#DejaVuSans-23"/>
      <use x="442.96875" xlink:href="#DejaVuSans-35"/>
     </g>
    </g>
    <g id="line2d_73">
     <path d="
M495.67 289.989
L515.83 289.989" style="fill:none;stroke:#bfbf00;stroke-linecap:square;"/>
    </g>
    <g id="line2d_74"/>
    <g id="text_31">
     <!-- locality#6 -->
     <g transform="translate(531.67 295.0295)scale(0.144 -0.144)">
      <use xlink:href="#DejaVuSans-6c"/>
      <use x="27.783203125" xlink:href="#DejaVuSans-6f"/>
      <use x="88.96484375" xlink:href="#DejaVuSans-63"/>
      <use x="143.9453125" xlink:href="#DejaVuSans-61"/>
      <use x="205.224609375" xlink:href="#DejaVuSans-6c"/>
      <use x="233.0078125" xlink:href="#DejaVuSans-69"/>
      <use x="260.791015625" xlink:href="#DejaVuSans-74"/>
      <use x="300.0" xlink:href="#DejaVuSans-79"/>
      <use x="359.1796875" xlink:href="#DejaVuSans-23"/>
      <use x="442.96875" xlink:href="#DejaVuSans-36"/>
     </g>
    </g>
    <g id="line2d_75">
     <path d="
M495.67 311.126
L515.83 311.126" style="fill:none;stroke:#000000;stroke-linecap:square;"/>
    </g>
    <g id="line2d_76"/>
    <g id="text_32">
     <!-- locality#7 -->
     <defs>
      <path d="
M8.20312 72.9062
L55.0781 72.9062
L55.0781 68.7031
L28.6094 0
L18.3125 0
L43.2188 64.5938
L8.20312 64.5938
z
" id="DejaVuSans-37"/>
     </defs>
     <g transform="translate(531.67 316.166)scale(0.144 -0.144)">
      <use xlink:href="#DejaVuSans-6c"/>
      <use x="27.783203125" xlink:href="#DejaVuSans-6f"/>
      <use x="88.96484375" xlink:href="#DejaVuSans-63"/>
      <use x="143.9453125" xlink:href="#DejaVuSans-61"/>
      <use x="205.224609375" xlink:href="#DejaVuSans-6c"/>
      <use x="233.0078125" xlink:href="#DejaVuSans-69"/>
      <use x="260.791015625" xlink:href="#DejaVuSans-74"/>
      <use x="300.0" xlink:href="#DejaVuSans-79"/>
      <use x="359.1796875" xlink:href="#DejaVuSans-23"/>
      <use x="442.96875" xlink:href="#DejaVuSans-37"/>
     </g>
    </g>
    <g id="line2d_77">
     <path d="
M495.67 332.262
L515.83 332.262" style="fill:none;stroke:#0000ff;stroke-linecap:square;"/>
    </g>
    <g id="line2d_78"/>
    <g id="text_33">
     <!-- locality#8 -->
     <g transform="translate(531.67 337.3025)scale(0.144 -0.144)">
      <use xlink:href="#DejaVuSans-6c"/>
      <use x="27.783203125" xlink:href="#DejaVuSans-6f"/>
      <use x="88.96484375" xlink:href="#DejaVuSans-63"/>
      <use x="143.9453125" xlink:href="#DejaVuSans-61"/>
      <use x="205.224609375" xlink:href="#DejaVuSans-6c"/>
      <use x="233.0078125" xlink:href="#DejaVuSans-69"/>
      <use x="260.791015625" xlink:href="#DejaVuSans-74"/>
      <use x="300.0" xlink:href="#DejaVuSans-79"/>
      <use x="359.1796875" xlink:href="#DejaVuSans-23"/>
      <use x="442.96875" xlink:href="#DejaVuSans-38"/>
     </g>
    </g>
    <g id="line2d_79">
     <path d="
M495.67 353.399
L515.83 353.399" style="fill:none;stroke:#008000;stroke-linecap:square;"/>
    </g>
    <g id="line2d_80"/>
    <g id="text_34">
     <!-- locality#9 -->
     <defs>
      <path d="
M10.9844 1.51562
L10.9844 10.5
Q14.7031 8.73438 18.5 7.8125
Q22.3125 6.89062 25.9844 6.89062
Q35.75 6.89062 40.8906 13.4531
Q46.0469 20.0156 46.7812 33.4062
Q43.9531 29.2031 39.5938 26.9531
Q35.25 24.7031 29.9844 24.7031
Q19.0469 24.7031 12.6719 31.3125
Q6.29688 37.9375 6.29688 49.4219
Q6.29688 60.6406 12.9375 67.4219
Q19.5781 74.2188 30.6094 74.2188
Q43.2656 74.2188 49.9219 64.5156
Q56.5938 54.8281 56.5938 36.375
Q56.5938 19.1406 48.4062 8.85938
Q40.2344 -1.42188 26.4219 -1.42188
Q22.7031 -1.42188 18.8906 -0.6875
Q15.0938 0.046875 10.9844 1.51562
M30.6094 32.4219
Q37.25 32.4219 41.125 36.9531
Q45.0156 41.5 45.0156 49.4219
Q45.0156 57.2812 41.125 61.8438
Q37.25 66.4062 30.6094 66.4062
Q23.9688 66.4062 20.0938 61.8438
Q16.2188 57.2812 16.2188 49.4219
Q16.2188 41.5 20.0938 36.9531
Q23.9688 32.4219 30.6094 32.4219" id="DejaVuSans-39"/>
     </defs>
     <g transform="translate(531.67 358.439)scale(0.144 -0.144)">
      <use xlink:href="#DejaVuSans-6c"/>
      <use x="27.783203125" xlink:href="#DejaVuSans-6f"/>
      <use x="88.96484375" xlink:href="#DejaVuSans-63"/>
      <use x="143.9453125" xlink:href="#DejaVuSans-61"/>
      <use x="205.224609375" xlink:href="#DejaVuSans-6c"/>
      <use x="233.0078125" xlink:href="#DejaVuSans-69"/>
      <use x="260.791015625" xlink:href="#DejaVuSans-74"/>
      <use x="300.0" xlink:href="#DejaVuSans-79"/>
      <use x="359.1796875" xlink:href="#DejaVuSans-23"/>
      <use x="442.96875" xlink:href="#DejaVuSans-39"/>
     </g>
    </g>
   </g>
  </g>
 </g>
 <defs>
  <clipPath id="p77ac736e8d">
   <rect height="345.6" width="446.4" x="31.99" y="23.14175"/>
  </clipPath>
 </defs>
</svg>
