<?xml version="1.0" encoding="utf-8" standalone="no"?>
<!DOCTYPE svg PUBLIC "-//W3C//DTD SVG 1.1//EN"
  "http://www.w3.org/Graphics/SVG/1.1/DTD/svg11.dtd">
<!-- Created with matplotlib (http://matplotlib.org/) -->
<svg height="408pt" version="1.1" viewBox="0 0 621 408" width="621pt" xmlns="http://www.w3.org/2000/svg" xmlns:xlink="http://www.w3.org/1999/xlink">
 <defs>
  <style type="text/css">
*{stroke-linecap:butt;stroke-linejoin:round;}
  </style>
 </defs>
 <g id="figure_1">
  <g id="patch_1">
   <path d="
M0 408.169
L621.409 408.169
L621.409 0
L0 0
z
" style="fill:#ffffff;"/>
  </g>
  <g id="axes_1">
   <g id="patch_2">
    <path d="
M28.8194 368.742
L475.219 368.742
L475.219 23.1417
L28.8194 23.1417
z
" style="fill:#ffffff;"/>
   </g>
   <g id="line2d_1">
    <path clip-path="url(#p8c776b0f9c)" d="
M28.8194 367.013
L30.2144 365.9
L39.9794 361.137
L56.7194 352.881
L58.1144 351.969
L63.6944 349.157
L65.0894 348.206
L67.8794 346.712
L83.2244 338.943
L84.6194 337.243
L91.5944 333.809
L92.9894 332.882
L102.754 327.935
L105.544 326.236
L108.334 324.849
L109.729 323.831
L111.124 323.141
L112.519 322.313
L119.494 318.77
L122.284 317.275
L123.679 316.585
L125.074 315.763
L127.864 314.394
L129.259 312.535
L145.999 303.67
L150.184 301.365
L159.949 296.523
L162.739 294.768
L164.134 294.088
L166.924 292.368
L176.689 287.36
L187.849 281.397
L189.244 280.608
L190.639 279.642
L200.404 274.773
L203.194 273.205
L205.984 271.824
L207.379 270.981
L210.169 269.494
L212.959 267.993
L217.144 265.923
L218.539 265.082
L226.909 260.767
L228.304 259.721
L229.699 258.842
L231.094 258.156
L232.489 257.15
L235.279 255.585
L238.069 254.173
L239.464 253.098
L240.859 252.273
L242.254 251.591
L243.649 250.683
L245.044 249.992
L246.439 248.892
L247.834 247.977
L250.624 246.46
L252.019 245.537
L261.784 240.623
L264.574 239.159
L267.364 237.718
L268.759 236.32
L278.524 231.457
L286.894 226.701
L288.289 226.012
L289.684 224.85
L292.474 223.473
L293.869 222.516
L302.239 218.254
L303.634 217.363
L305.029 216.625
L306.424 215.269
L310.609 213.189
L314.794 210.509
L317.584 209.016
L324.559 205.524
L327.349 203.647
L331.534 201.501
L332.929 200.681
L334.324 199.994
L337.114 198.361
L342.694 195.43
L344.089 194.343
L345.484 193.638
L348.274 191.949
L349.669 191.254
L351.064 189.955
L352.459 189.001
L359.434 185.354
L363.619 183.184
L366.409 181.724
L367.804 181.025
L369.199 180.125
L377.569 175.794
L380.359 174.155
L381.754 173.456
L383.149 172.518
L384.544 171.816
L387.334 169.738
L388.729 169.062
L391.519 167.288
L394.309 165.876
L395.704 164.938
L397.099 164.243
L399.889 162.513
L406.864 158.957
L415.234 154.535
L423.604 150.361
L424.999 149.446
L426.394 148.751
L427.789 147.866
L431.974 145.754
L434.764 144.174
L445.924 138.518
L447.319 137.615
L448.714 136.932
L450.109 135.59
L459.874 130.688
L462.664 128.906
L468.244 126.097
L471.034 124.391
L475.219 122.208
L475.219 122.208" style="fill:none;stroke:#0000ff;stroke-linecap:square;"/>
   </g>
   <g id="line2d_2">
    <path clip-path="url(#p8c776b0f9c)" d="
M28.8194 368.691
L30.2144 367.874
L33.0044 366.992
L34.3994 366.093
L38.5844 364.73
L39.9794 364.007
L42.7694 363.113
L44.1644 362.507
L51.1394 360.262
L52.5344 359.737
L53.9294 358.936
L69.2744 353.962
L70.6694 353.346
L87.4094 347.988
L90.1994 346.533
L94.3844 345.218
L95.7794 344.353
L98.5694 343.48
L102.754 341.744
L119.494 336.356
L120.889 335.737
L122.284 334.692
L143.209 327.969
L144.604 327.363
L147.394 326.472
L148.789 325.716
L150.184 325.138
L166.924 319.801
L171.109 318.335
L172.504 317.89
L175.294 316.732
L186.454 313.112
L187.849 312.081
L189.244 311.333
L193.429 309.995
L194.824 309.278
L196.219 308.828
L197.614 308.241
L204.589 306.018
L205.984 305.439
L207.379 304.992
L208.774 304.314
L210.169 303.863
L211.564 303.106
L217.144 301.326
L218.539 300.536
L224.119 298.738
L225.514 298.148
L233.884 295.423
L235.279 294.799
L243.649 291.869
L247.834 290.191
L261.784 285.643
L264.574 284.111
L268.759 282.407
L270.154 281.969
L271.549 281.177
L274.339 280.163
L275.734 279.726
L277.129 279.141
L293.869 273.793
L296.659 272.871
L298.054 272.089
L299.449 271.65
L300.844 271.045
L302.239 270.603
L303.634 269.953
L310.609 267.653
L313.399 266.704
L316.189 265.819
L318.979 264.445
L324.559 262.678
L325.954 262.082
L328.744 261.114
L330.139 260.482
L331.534 260.041
L334.324 259.023
L341.299 256.714
L342.694 255.966
L344.089 255.516
L345.484 254.741
L346.879 254.156
L352.459 252.382
L353.854 251.789
L359.434 249.94
L360.829 249.176
L366.409 247.393
L367.804 246.757
L370.594 245.869
L371.989 245.21
L373.384 244.759
L377.569 243.147
L383.149 241.3
L397.099 236.779
L405.469 233.968
L406.864 233.385
L409.654 232.446
L411.049 231.805
L415.234 230.385
L418.024 229.365
L424.999 226.858
L427.789 225.882
L431.974 224.312
L434.764 223.383
L436.159 222.571
L437.554 222.124
L440.344 220.91
L447.319 218.484
L448.714 217.742
L451.504 216.801
L452.899 216.224
L457.084 214.899
L458.479 214.105
L459.874 213.503
L462.664 212.619
L464.059 211.994
L468.244 210.652
L469.639 210.034
L473.824 208.565
L475.219 207.702
L475.219 207.702" style="fill:none;stroke:#008000;stroke-linecap:square;"/>
   </g>
   <g id="line2d_3">
    <path clip-path="url(#p8c776b0f9c)" d="
M28.8194 368.679
L30.2144 365.552
L33.0044 363.962
L34.3994 362.525
L39.9794 359.193
L41.3744 358.263
L44.1644 356.611
L45.5594 355.529
L59.5094 347.038
L60.9044 345.862
L67.8794 341.719
L74.8544 337.531
L76.2494 336.396
L77.6444 335.439
L79.0394 334.632
L80.4344 333.673
L91.5944 327.08
L92.9894 325.813
L95.7794 324.176
L97.1744 323.054
L98.5694 322.234
L99.9644 321.279
L105.544 317.902
L106.939 316.772
L108.334 315.845
L109.729 314.764
L111.124 313.95
L112.519 312.836
L122.284 307.082
L123.679 306.071
L127.864 303.489
L129.259 302.491
L134.839 299.15
L143.209 294.114
L144.604 293.211
L145.999 291.673
L150.184 289.003
L151.579 287.815
L161.344 281.968
L164.134 280.215
L165.529 279.374
L166.924 278.237
L172.504 274.957
L173.899 273.769
L193.429 262.162
L196.219 259.756
L197.614 258.768
L204.589 254.5
L205.984 253.595
L207.379 252.471
L212.959 249.025
L214.354 248.071
L219.934 244.733
L225.514 241.402
L226.909 240.257
L229.699 238.595
L232.489 236.351
L238.069 233.018
L243.649 229.528
L249.229 226.169
L250.624 225.013
L258.994 219.979
L260.389 218.973
L261.784 217.61
L264.574 215.933
L265.969 214.851
L271.549 211.519
L277.129 207.826
L296.659 195.981
L298.054 194.936
L300.844 193.183
L305.029 190.687
L307.819 189.061
L312.004 186.013
L317.584 182.587
L332.929 173.37
L351.064 162.227
L359.434 157.296
L360.829 156.168
L367.804 151.981
L376.174 146.92
L377.569 145.763
L385.939 140.819
L387.334 139.687
L399.889 132.236
L401.284 131.394
L404.074 129.272
L416.629 121.835
L418.024 120.764
L419.419 119.937
L420.814 118.885
L452.899 99.707
L455.689 97.9469
L462.664 93.7799
L464.059 92.5629
L465.454 91.7483
L468.244 89.3883
L469.639 88.5614
L471.034 87.5542
L475.219 85.093
L475.219 85.093" style="fill:none;stroke:#ff0000;stroke-linecap:square;"/>
   </g>
   <g id="line2d_4">
    <path clip-path="url(#p8c776b0f9c)" d="
M28.8194 368.678
L30.2144 366.294
L34.3994 363.794
L35.7944 362.839
L37.1894 361.623
L41.3744 359.195
L45.5594 356.497
L48.3494 354.377
L49.7444 353.538
L51.1394 351.915
L53.9294 350.331
L55.3244 348.095
L56.7194 347.283
L58.1144 346.255
L62.2994 343.773
L63.6944 342.709
L65.0894 341.297
L74.8544 335.371
L76.2494 334.488
L77.6444 333.299
L81.8294 330.797
L84.6194 328.385
L87.4094 326.73
L88.8044 325.639
L90.1994 324.717
L91.5944 323.544
L95.7794 321.02
L98.5694 318.928
L108.334 312.823
L109.729 311.175
L113.914 308.602
L115.309 307.768
L116.704 306.778
L120.889 304.227
L122.284 302.663
L129.259 298.468
L130.654 297.612
L132.049 296.454
L133.444 295.63
L134.839 294.604
L139.024 292.075
L140.419 291.09
L144.604 287.386
L145.999 286.396
L148.789 284.734
L151.579 282.219
L155.764 279.651
L157.159 278.641
L165.529 273.598
L166.924 272.632
L171.109 270.167
L172.504 269.178
L175.294 266.849
L178.084 265.168
L179.479 264.121
L180.874 263.309
L182.269 262.305
L185.059 260.502
L187.849 258.753
L189.244 257.564
L190.639 256.742
L197.614 251.667
L199.009 250.349
L203.194 247.768
L205.984 245.917
L219.934 237.489
L221.329 236.401
L222.724 235.573
L225.514 233.437
L226.909 232.613
L228.304 231.394
L229.699 230.518
L232.489 228.427
L235.279 226.741
L238.069 224.841
L239.464 224.033
L242.254 222.204
L243.649 221.364
L245.044 220.318
L250.624 216.995
L253.414 215.013
L257.599 212.534
L261.784 209.838
L263.179 208.5
L264.574 207.455
L271.549 203.161
L272.944 202.117
L274.339 201.29
L275.734 200.11
L282.709 195.847
L284.104 194.751
L286.894 193.11
L288.289 192.133
L292.474 189.517
L300.844 184.309
L302.239 183.029
L306.424 180.469
L307.819 179.065
L309.214 178.027
L310.609 177.188
L312.004 176.086
L316.189 173.31
L323.164 169.024
L325.954 166.609
L327.349 165.609
L328.744 164.756
L330.139 163.616
L331.534 162.642
L338.509 158.458
L339.904 157.353
L344.089 154.814
L345.484 153.795
L352.459 149.562
L355.249 146.101
L362.224 141.878
L363.619 140.65
L367.804 138.033
L369.199 137.142
L373.384 133.987
L376.174 132.334
L378.964 130.519
L380.359 129.695
L381.754 128.602
L384.544 126.846
L391.519 122.392
L392.914 121.339
L395.704 119.599
L399.889 116.812
L404.074 113.709
L412.444 108.522
L413.839 107.202
L416.629 105.424
L418.024 104.59
L420.814 102.578
L426.394 99.1836
L427.789 97.979
L431.974 95.0957
L433.369 93.9503
L434.764 92.9801
L440.344 89.6253
L445.924 85.725
L447.319 84.6437
L454.294 80.3114
L455.689 79.045
L461.269 75.7347
L462.664 74.5967
L464.059 73.2463
L468.244 70.721
L471.034 68.5511
L475.219 65.9097
L475.219 65.9097" style="fill:none;stroke:#00bfbf;stroke-linecap:square;"/>
   </g>
   <g id="line2d_5">
    <path clip-path="url(#p8c776b0f9c)" d="
M28.8194 368.68
L30.2144 367.823
L31.6094 365.473
L33.0044 364.731
L34.3994 363.79
L35.7944 363.035
L37.1894 361.981
L41.3744 359.641
L44.1644 357.41
L46.9544 355.762
L48.3494 354.544
L49.7444 353.636
L51.1394 352.25
L55.3244 349.911
L56.7194 348.303
L58.1144 347.287
L62.2994 345.001
L63.6944 344.245
L65.0894 343.262
L66.4844 342.495
L69.2744 340.775
L77.6444 336.256
L79.0394 335.275
L90.1994 329.207
L95.7794 325.949
L99.9644 323.638
L101.359 322.732
L108.334 318.909
L113.914 315.795
L115.309 315.05
L116.704 313.827
L120.889 311.557
L123.679 309.297
L130.654 305.498
L132.049 303.648
L133.444 302.595
L136.234 301.067
L137.629 300.122
L140.419 298.5
L152.974 291.695
L154.369 290.789
L161.344 286.995
L162.739 285.989
L165.529 284.372
L169.714 282.118
L171.109 281.119
L178.084 277.214
L180.874 275.415
L190.639 270.124
L192.034 269.081
L193.429 268.316
L196.219 266.381
L203.194 262.625
L207.379 259.957
L210.169 258.31
L218.539 253.562
L219.934 252.4
L232.489 245.447
L239.464 241.607
L249.229 236.265
L256.204 231.875
L257.599 230.677
L260.389 229.169
L261.784 228.213
L268.759 224.385
L270.154 223.478
L285.499 214.925
L289.684 212.536
L291.079 211.789
L292.474 210.882
L295.264 209.246
L296.659 208.331
L298.054 207.576
L299.449 206.661
L310.609 200.466
L313.399 198.896
L314.794 197.815
L324.559 192.418
L325.954 191.232
L337.114 185.106
L339.904 183.458
L342.694 181.954
L344.089 181.022
L353.854 175.646
L355.249 174.488
L358.039 172.979
L359.434 171.985
L373.384 164.205
L377.569 161.157
L378.964 160.402
L380.359 159.445
L381.754 158.681
L383.149 157.639
L387.334 155.365
L390.124 153.707
L394.309 151.308
L401.284 147.377
L402.679 146.457
L404.074 145.238
L405.469 144.263
L409.654 141.878
L412.444 140.331
L415.234 138.51
L416.629 137.753
L418.024 136.451
L424.999 132.666
L427.789 130.556
L438.949 124.518
L440.344 123.414
L441.739 122.621
L443.134 121.65
L444.529 120.882
L445.924 119.779
L450.109 117.296
L451.504 116.382
L454.294 114.824
L455.689 113.701
L458.479 112.195
L461.269 110.416
L462.664 109.623
L464.059 108.396
L469.639 105.387
L472.429 103.743
L475.219 102.21
L475.219 102.21" style="fill:none;stroke:#bf00bf;stroke-linecap:square;"/>
   </g>
   <g id="line2d_6">
    <path clip-path="url(#p8c776b0f9c)" d="
M28.8194 368.681
L30.2144 366.944
L49.7444 357.347
L52.5344 355.546
L56.7194 353.507
L63.6944 350.062
L65.0894 349.074
L69.2744 347.058
L70.6694 346.001
L73.4594 344.546
L74.8544 343.881
L76.2494 343.067
L91.5944 335.578
L92.9894 334.594
L98.5694 331.947
L99.9644 331.149
L104.149 329.136
L105.544 328.296
L106.939 327.633
L108.334 326.767
L109.729 326.095
L111.124 325.254
L119.494 321.223
L122.284 319.523
L133.444 314.181
L139.024 311.432
L140.419 310.38
L147.394 306.985
L150.184 305.515
L152.974 304.181
L154.369 303.291
L165.529 297.918
L166.924 296.899
L175.294 292.817
L176.689 291.751
L179.479 290.278
L180.874 289.591
L182.269 288.578
L193.429 283.184
L194.824 282.36
L212.959 273.703
L218.539 271.002
L219.934 270.198
L222.724 268.872
L224.119 267.993
L228.304 265.949
L231.094 264.495
L232.489 263.824
L233.884 262.584
L235.279 261.915
L236.674 260.976
L238.069 259.884
L239.464 259.223
L240.859 258.419
L249.229 254.316
L250.624 253.522
L252.019 252.857
L253.414 252.023
L260.389 248.684
L261.784 247.809
L265.969 245.746
L268.759 244.219
L270.154 243.56
L271.549 242.536
L282.709 237.193
L284.104 235.765
L285.499 235.103
L286.894 233.591
L293.869 230.142
L296.659 228.727
L298.054 228.054
L299.449 227.245
L300.844 226.569
L302.239 225.631
L307.819 222.988
L309.214 221.947
L318.979 217.208
L320.374 216.323
L325.954 213.64
L327.349 212.683
L332.929 209.988
L334.324 209.143
L337.114 207.804
L338.509 206.947
L351.064 200.88
L352.459 199.886
L353.854 199.218
L355.249 198.329
L356.644 197.657
L358.039 196.564
L359.434 195.71
L360.829 195.042
L362.224 194.103
L369.199 190.691
L380.359 185.177
L388.729 181.097
L394.309 178.35
L401.284 174.991
L402.679 174.175
L404.074 173.488
L405.469 172.544
L408.259 171.201
L409.654 170.384
L413.839 168.295
L415.234 167.355
L418.024 166.024
L419.419 164.99
L430.579 159.628
L431.974 158.665
L436.159 156.665
L438.949 155.2
L443.134 153.016
L444.529 152.188
L447.319 150.855
L450.109 149.388
L454.294 147.393
L455.689 146.468
L459.874 144.468
L461.269 143.092
L464.059 141.571
L469.639 138.907
L471.034 138.158
L473.824 136.233
L475.219 135.546
L475.219 135.546" style="fill:none;stroke:#bfbf00;stroke-linecap:square;"/>
   </g>
   <g id="line2d_7">
    <path clip-path="url(#p8c776b0f9c)" d="
M28.8194 368.673
L30.2144 366.598
L33.0044 365.298
L34.3994 364.684
L35.7944 361.738
L37.1894 361.097
L38.5844 360.241
L46.9544 356.589
L48.3494 355.98
L51.1394 354.367
L53.9294 353.02
L59.5094 350.52
L60.9044 349.756
L62.2994 349.17
L65.0894 347.552
L67.8794 346.362
L70.6694 344.832
L84.6194 338.752
L86.0144 337.965
L88.8044 336.761
L90.1994 335.898
L91.5944 334.34
L99.9644 330.784
L101.359 329.666
L105.544 327.877
L106.939 327.053
L126.469 318.686
L130.654 316.586
L150.184 308.216
L151.579 307.598
L154.369 306.153
L165.529 301.334
L166.924 300.51
L182.269 293.831
L185.059 292.575
L186.454 291.983
L187.849 290.97
L204.589 283.572
L205.984 282.79
L215.749 278.503
L217.144 277.172
L233.884 269.823
L235.279 269.008
L242.254 265.959
L243.649 265.199
L246.439 264.015
L247.834 263.114
L250.624 261.844
L254.809 259.868
L260.389 257.367
L261.784 256.325
L292.474 243.155
L293.869 242.371
L303.634 238.057
L305.029 236.944
L309.214 235.049
L313.399 233.247
L314.794 232.417
L335.719 223.174
L337.114 222.44
L345.484 218.838
L346.879 217.723
L349.669 216.529
L351.064 215.631
L353.854 214.424
L355.249 213.596
L358.039 212.411
L359.434 211.475
L362.224 210.287
L363.619 209.431
L365.014 208.302
L367.804 207.069
L370.594 205.172
L371.989 204.498
L373.384 203.575
L378.964 201.179
L380.359 200.396
L394.309 194.3
L395.704 193.574
L401.284 191.176
L402.679 190.153
L418.024 183.527
L419.419 182.658
L429.184 178.299
L434.764 175.802
L436.159 175.074
L455.689 166.635
L457.084 165.816
L465.454 162.11
L468.244 160.832
L475.219 157.826
L475.219 157.826" style="fill:none;stroke:#000000;stroke-linecap:square;"/>
   </g>
   <g id="line2d_8">
    <path clip-path="url(#p8c776b0f9c)" d="
M28.8194 368.674
L30.2144 367.897
L35.7944 365.729
L37.1894 364.453
L41.3744 362.797
L42.7694 361.876
L53.9294 357.412
L55.3244 356.548
L56.7194 356.008
L58.1144 355.238
L59.5094 354.7
L60.9044 353.729
L62.2994 353.201
L63.6944 352.535
L81.8294 345.558
L84.6194 343.846
L98.5694 338.443
L99.9644 337.754
L105.544 335.592
L106.939 334.339
L108.334 333.806
L116.704 329.673
L123.679 326.781
L130.654 324.093
L132.049 323.348
L133.444 322.762
L136.234 321.259
L137.629 320.471
L151.579 314.859
L154.369 313.019
L161.344 310.29
L164.134 309.13
L166.924 308.058
L168.319 307.321
L172.504 305.609
L175.294 304.411
L180.874 302.259
L182.269 301.53
L183.664 300.988
L185.059 300.193
L187.849 299.117
L189.244 298.401
L190.639 297.87
L192.034 296.915
L194.824 295.828
L196.219 295.001
L201.799 292.835
L205.984 290.239
L208.774 289.053
L214.354 286.895
L217.144 285.475
L218.539 284.938
L219.934 284.236
L221.329 283.297
L242.254 275.051
L247.834 272.762
L252.019 271.092
L257.599 268.941
L263.179 266.435
L285.499 257.801
L288.289 256.623
L291.079 255.564
L292.474 254.668
L293.869 253.937
L300.844 251.265
L302.239 250.547
L309.214 247.787
L310.609 247.032
L316.189 244.876
L317.584 243.472
L327.349 239.667
L337.114 235.935
L338.509 235.176
L341.299 234.11
L342.694 233.356
L345.484 232.269
L346.879 231.6
L348.274 230.796
L363.619 224.88
L366.409 223.118
L377.569 218.847
L378.964 217.884
L380.359 217.346
L381.754 216.047
L390.124 212.831
L391.519 211.708
L394.309 210.644
L395.704 209.978
L399.889 208.371
L401.284 207.532
L402.679 206.499
L419.419 200.025
L420.814 199.258
L426.394 197.104
L427.789 196.311
L431.974 194.689
L434.764 193.383
L451.504 186.883
L452.899 186.139
L459.874 183.466
L461.269 182.789
L472.429 178.474
L473.824 177.692
L475.219 177.144
L475.219 177.144" style="fill:none;stroke:#0000ff;stroke-linecap:square;"/>
   </g>
   <g id="line2d_9">
    <path clip-path="url(#p8c776b0f9c)" d="
M28.8194 368.678
L30.2144 365.749
L33.0044 364.849
L34.3994 364.24
L38.5844 362.87
L39.9794 362.152
L48.3494 359.337
L52.5344 357.876
L55.3244 356.967
L56.7194 356.368
L59.5094 355.463
L60.9044 354.729
L66.4844 352.929
L67.8794 352.266
L69.2744 351.819
L70.6694 351.248
L88.8044 345.374
L90.1994 344.713
L95.7794 342.898
L97.1744 342.229
L105.544 339.531
L106.939 338.924
L109.729 338.014
L111.124 337.205
L116.704 335.387
L118.099 334.566
L129.259 330.763
L130.654 330.174
L139.024 327.432
L140.419 326.402
L148.789 323.625
L155.764 321.168
L165.529 318.026
L166.924 317.325
L173.899 315.018
L176.689 314.039
L178.084 313.594
L179.479 312.705
L180.874 312.255
L183.664 311.1
L186.454 310.208
L190.639 308.307
L200.404 305.071
L204.589 303.713
L205.984 303.1
L214.354 300.398
L215.749 299.654
L228.304 295.434
L236.674 292.688
L238.069 292.037
L240.859 291.123
L242.254 290.404
L253.414 286.778
L256.204 285.775
L257.599 285.327
L258.994 284.738
L263.179 283.371
L264.574 282.709
L288.289 274.907
L289.684 274.297
L303.634 269.679
L305.029 268.852
L307.819 267.721
L309.214 267.274
L310.609 266.641
L314.794 265.278
L316.189 264.632
L323.164 262.247
L325.954 261.335
L327.349 260.704
L330.139 259.795
L331.534 259.208
L334.324 258.311
L335.719 257.665
L353.854 251.734
L355.249 251.15
L356.644 250.702
L358.039 249.981
L360.829 249.082
L365.014 247.28
L374.779 244.099
L376.174 243.437
L380.359 242.06
L381.754 241.367
L383.149 240.906
L384.544 240.242
L387.334 239.256
L392.914 237.414
L394.309 236.577
L398.494 235.216
L399.889 234.438
L401.284 233.984
L402.679 233.118
L411.049 230.356
L412.444 229.662
L418.024 227.822
L426.394 225.116
L427.789 224.425
L431.974 223.036
L438.949 220.79
L440.344 220.147
L441.739 219.693
L444.529 218.258
L448.714 216.793
L451.504 215.725
L459.874 212.994
L461.269 212.123
L462.664 211.435
L464.059 210.978
L465.454 210.38
L469.639 208.997
L472.429 207.838
L475.219 206.921
L475.219 206.921" style="fill:none;stroke:#008000;stroke-linecap:square;"/>
   </g>
   <g id="line2d_10">
    <path clip-path="url(#p8c776b0f9c)" d="
M28.8194 368.681
L30.2144 368.086
L31.6094 367.138
L35.7944 365.664
L37.1894 364.399
L38.5844 363.91
L39.9794 363.223
L45.5594 361.19
L46.9544 360.23
L49.7444 359.242
L52.5344 358.076
L66.4844 353.188
L69.2744 352.139
L83.2244 347.219
L92.9894 343.698
L95.7794 342.604
L97.1744 342.116
L98.5694 341.335
L99.9644 340.846
L101.359 340.119
L116.704 334.826
L118.099 333.913
L119.494 333.418
L120.889 332.569
L130.654 329.138
L132.049 328.205
L147.394 322.826
L148.789 321.764
L150.184 321.277
L152.974 320.09
L172.504 313.131
L173.899 312.365
L189.244 306.944
L192.034 305.982
L193.429 304.671
L196.219 303.704
L197.614 303.045
L207.379 299.65
L210.169 298.581
L221.329 294.652
L222.724 293.374
L225.514 292.402
L226.909 291.751
L228.304 291.273
L229.699 290.49
L249.229 283.554
L250.624 282.494
L252.019 281.888
L254.809 280.926
L256.204 280.216
L257.599 279.723
L258.994 278.928
L264.574 277
L267.364 275.687
L271.549 274.228
L272.944 273.528
L277.129 272.082
L278.524 271.423
L295.264 265.544
L296.659 264.929
L300.844 263.376
L302.239 262.476
L303.634 261.81
L339.904 248.894
L341.299 248.072
L345.484 246.616
L346.879 245.864
L353.854 243.433
L355.249 242.578
L362.224 240.155
L365.014 238.912
L374.779 235.476
L376.174 234.739
L384.544 231.731
L388.729 230.224
L392.914 228.705
L394.309 228.087
L401.284 225.641
L405.469 223.97
L406.864 223.479
L408.259 222.84
L419.419 218.908
L427.789 215.867
L445.924 209.314
L447.319 208.663
L448.714 208.184
L450.109 207.427
L452.899 206.46
L454.294 205.53
L459.874 203.59
L461.269 202.685
L475.219 197.81
L475.219 197.81" style="fill:none;stroke:#ff0000;stroke-linecap:square;"/>
   </g>
   <g id="line2d_11">
    <path clip-path="url(#p8c776b0f9c)" d="
M28.8194 368.679
L30.2144 366.414
L31.6094 363.55
L33.0044 363.003
L34.3994 362.291
L37.1894 361.113
L44.1644 358.333
L45.5594 357.811
L46.9544 357.067
L55.3244 353.803
L56.7194 352.917
L62.2994 350.749
L67.8794 348.598
L69.2744 347.81
L74.8544 345.673
L76.2494 344.845
L80.4344 343.241
L81.8294 342.25
L84.6194 341.08
L87.4094 340.005
L88.8044 339.29
L90.1994 338.409
L98.5694 335.187
L102.754 333.238
L118.099 327.341
L120.889 325.775
L122.284 325.066
L145.999 315.683
L147.394 314.701
L148.789 313.955
L155.764 311.258
L157.159 310.493
L173.899 303.992
L175.294 303.093
L176.689 302.426
L185.059 299.205
L186.454 298.424
L187.849 297.876
L189.244 296.243
L203.194 290.857
L205.984 289.783
L207.379 288.735
L210.169 287.652
L211.564 286.804
L212.959 286.261
L214.354 285.547
L217.144 284.465
L218.539 283.543
L233.884 277.624
L236.674 276.371
L243.649 273.667
L245.044 272.994
L247.834 271.914
L250.624 270.736
L264.574 265.259
L268.759 263.523
L270.154 262.988
L271.549 262.126
L272.944 261.467
L281.314 258.238
L282.709 257.525
L286.894 255.81
L288.289 255.115
L289.684 254.578
L291.079 253.711
L298.054 250.991
L302.239 249.107
L306.424 247.472
L307.819 246.492
L316.189 243.152
L317.584 242.258
L320.374 241.053
L328.744 237.818
L330.139 237.082
L337.114 234.298
L338.509 233.509
L346.879 230.31
L348.274 229.047
L351.064 227.898
L352.459 227.364
L353.854 226.618
L355.249 226.094
L356.644 225.244
L376.174 217.615
L377.569 216.929
L380.359 215.86
L381.754 214.978
L392.914 210.711
L394.309 210.032
L401.284 207.327
L404.074 206.06
L406.864 204.994
L408.259 204.307
L413.839 202.025
L415.234 201.044
L443.134 190.257
L444.529 189.419
L445.924 188.886
L447.319 187.946
L458.479 183.593
L459.874 182.981
L462.664 180.786
L471.034 177.416
L472.429 176.575
L475.219 175.444
L475.219 175.444" style="fill:none;stroke:#00bfbf;stroke-linecap:square;"/>
   </g>
   <g id="line2d_12">
    <path clip-path="url(#p8c776b0f9c)" d="
M28.8194 368.673
L30.2144 366.301
L33.0044 365.092
L34.3994 363.964
L37.1894 362.569
L42.7694 360.017
L44.1644 359.222
L46.9544 357.986
L51.1394 355.388
L56.7194 352.945
L58.1144 352.084
L63.6944 349.56
L65.0894 348.734
L67.8794 346.826
L69.2744 346.206
L73.4594 343.722
L74.8544 343.119
L76.2494 342.218
L77.6444 341.589
L79.0394 340.712
L83.2244 338.802
L86.0144 337.508
L87.4094 336.898
L88.8044 335.977
L90.1994 334.893
L94.3844 332.954
L105.544 328.017
L106.939 327.213
L116.704 322.78
L119.494 321.469
L125.074 318.952
L127.864 317.156
L132.049 315.282
L133.444 314.465
L140.419 311.363
L141.814 310.681
L143.209 309.781
L152.974 305.349
L157.159 303.074
L161.344 301.159
L162.739 300.203
L168.319 297.658
L169.714 296.621
L173.899 294.729
L182.269 291.015
L183.664 290.33
L185.059 288.94
L189.244 286.652
L197.614 282.845
L203.194 280.047
L204.589 279.436
L205.984 278.568
L207.379 277.948
L208.774 276.933
L210.169 276.106
L212.959 274.855
L214.354 273.847
L217.144 272.597
L219.934 271.11
L221.329 270.312
L225.514 268.352
L226.909 267.594
L228.304 266.977
L229.699 266.148
L236.674 262.92
L238.069 262.083
L239.464 261.464
L240.859 260.6
L245.044 258.702
L247.834 257.372
L252.019 255.437
L254.809 254.056
L256.204 253.193
L261.784 250.635
L267.364 247.795
L268.759 246.756
L271.549 245.529
L272.944 244.689
L277.129 242.836
L278.524 242.144
L279.919 241.245
L282.709 239.921
L284.104 239.061
L288.289 237.177
L289.684 236.236
L295.264 233.657
L296.659 232.983
L298.054 232.168
L299.449 231.164
L300.844 230.534
L302.239 229.677
L305.029 228.291
L306.424 227.445
L310.609 225.551
L313.399 224.027
L314.794 223.402
L316.189 222.623
L317.584 221.607
L320.374 220.242
L323.164 218.732
L324.559 217.942
L325.954 217.337
L327.349 216.435
L341.299 210.192
L342.694 209.316
L346.879 207.473
L348.274 206.604
L358.039 202.21
L359.434 201.4
L363.619 199.531
L365.014 198.723
L369.199 196.899
L370.594 195.532
L377.569 192.335
L378.964 191.571
L388.729 187.303
L390.124 185.662
L391.519 184.902
L401.284 180.603
L402.679 179.858
L409.654 176.681
L411.049 175.82
L412.444 175.223
L413.839 174.341
L420.814 171.234
L422.209 170.475
L426.394 168.551
L429.184 166.73
L430.579 166.119
L431.974 165.371
L436.159 163.529
L437.554 162.72
L443.134 160.256
L444.529 159.476
L445.924 158.556
L448.714 157.276
L450.109 156.649
L451.504 155.625
L458.479 152.503
L475.219 144.581
L475.219 144.581" style="fill:none;stroke:#bf00bf;stroke-linecap:square;"/>
   </g>
   <g id="line2d_13">
    <path clip-path="url(#p8c776b0f9c)" d="
M28.8194 368.681
L30.2144 364.878
L38.5844 360.234
L39.9794 359.252
L45.5594 356.483
L46.9544 355.419
L49.7444 354.021
L51.1394 353.108
L52.5344 352.02
L55.3244 350.652
L56.7194 349.842
L58.1144 348.675
L60.9044 347.208
L66.4844 344.343
L67.8794 343.484
L72.0644 341.285
L74.8544 339.436
L77.6444 338.016
L79.0394 336.809
L80.4344 335.975
L81.8294 335.294
L84.6194 333.787
L91.5944 330.193
L94.3844 328.635
L102.754 324.446
L105.544 322.417
L122.284 313.901
L123.679 312.668
L130.654 309.161
L132.049 308.242
L140.419 304.071
L144.604 301.446
L145.999 300.414
L147.394 299.722
L151.579 297.183
L152.974 296.492
L155.764 294.752
L158.554 293.304
L159.949 292.097
L161.344 291.41
L162.739 290.348
L165.529 288.971
L166.924 287.494
L173.899 284.034
L175.294 283.135
L178.084 281.757
L180.874 280.183
L183.664 278.79
L185.059 277.824
L192.034 274.253
L193.429 273.2
L196.219 271.78
L197.614 270.941
L199.009 270.248
L200.404 269.036
L205.984 266.231
L208.774 264.638
L211.564 263.127
L212.959 261.863
L217.144 259.707
L218.539 258.974
L219.934 258.11
L226.909 254.545
L228.304 253.646
L232.489 251.454
L233.884 250.538
L247.834 243.542
L250.624 242.047
L253.414 240.634
L254.809 239.56
L260.389 236.215
L264.574 234.059
L272.944 229.115
L277.129 227.042
L278.524 226.17
L282.709 224.103
L284.104 222.758
L285.499 222.076
L286.894 221.055
L288.289 220.358
L292.474 217.746
L293.869 217.052
L295.264 216.163
L298.054 214.674
L303.634 211.815
L305.029 210.972
L307.819 209.461
L312.004 207.094
L316.189 204.996
L317.584 203.764
L325.954 199.483
L328.744 197.657
L334.324 194.684
L344.089 189.752
L346.879 188.107
L348.274 187.41
L349.669 186.441
L356.644 182.864
L359.434 181.387
L360.829 180.486
L362.224 179.747
L363.619 178.372
L367.804 176.227
L370.594 174.815
L371.989 173.921
L374.779 172.549
L377.569 171.021
L394.309 162.636
L395.704 161.619
L397.099 160.783
L398.494 159.713
L401.284 158.083
L402.679 157.238
L406.864 155.15
L408.259 154.104
L409.654 153.384
L411.049 152.51
L415.234 150.448
L416.629 149.436
L422.209 146.56
L427.789 143.487
L433.369 140.674
L434.764 139.443
L436.159 138.596
L447.319 133.01
L450.109 131.485
L459.874 126.559
L461.269 125.61
L462.664 124.92
L464.059 123.602
L465.454 122.894
L468.244 121.109
L472.429 118.863
L473.824 117.723
L475.219 117.031
L475.219 117.031" style="fill:none;stroke:#bfbf00;stroke-linecap:square;"/>
   </g>
   <g id="line2d_14">
    <path clip-path="url(#p8c776b0f9c)" d="
M28.8194 368.678
L30.2144 366.06
L33.0044 364.583
L34.3994 361.328
L38.5844 358.959
L39.9794 357.656
L46.9544 353.646
L49.7444 351.905
L51.1394 351.055
L52.5344 349.999
L53.9294 349.278
L56.7194 347.672
L59.5094 345.523
L66.4844 341.77
L70.6694 338.693
L72.0644 337.955
L73.4594 329.904
L74.8544 328.814
L77.6444 327.32
L79.0394 326.268
L83.2244 324.011
L84.6194 322.551
L87.4094 320.948
L91.5944 318.38
L99.9644 313.903
L101.359 313.048
L104.149 311.039
L111.124 307.306
L112.519 306.362
L115.309 304.895
L116.704 303.878
L120.889 301.588
L123.679 299.97
L129.259 296.924
L130.654 295.994
L136.234 292.919
L139.024 291.32
L143.209 289.023
L145.999 287.532
L147.394 286.579
L150.184 285.088
L155.764 281.678
L159.949 279.357
L161.344 278.506
L162.739 277.437
L171.109 272.771
L172.504 271.669
L173.899 270.897
L175.294 269.556
L176.689 268.481
L178.084 267.728
L179.479 266.41
L183.664 264.142
L185.059 263.259
L186.454 262.526
L189.244 260.901
L192.034 259.41
L196.219 256.481
L199.009 255.009
L201.799 253.136
L203.194 252.399
L204.589 251.307
L208.774 248.983
L210.169 247.958
L215.749 244.918
L219.934 242.15
L221.329 241.406
L222.724 240.461
L228.304 237.342
L229.699 236.207
L232.489 234.704
L233.884 233.512
L235.279 232.632
L236.674 231.896
L238.069 230.888
L239.464 229.707
L242.254 228.1
L249.229 224.227
L250.624 222.947
L253.414 221.39
L263.179 216.102
L272.944 210.752
L274.339 209.839
L279.919 206.85
L281.314 205.915
L285.499 203.674
L286.894 202.7
L289.684 201.2
L291.079 200.212
L293.869 198.716
L299.449 195.226
L302.239 193.72
L303.634 192.622
L310.609 188.754
L318.979 183.979
L323.164 181.744
L324.559 180.748
L328.744 178.428
L335.719 174.649
L345.484 169.343
L348.274 167.45
L355.249 163.663
L356.644 162.524
L365.014 157.874
L366.409 156.639
L369.199 155.133
L370.594 153.402
L374.779 151.032
L377.569 149.456
L378.964 148.431
L385.939 144.66
L399.889 137.026
L402.679 135.168
L406.864 132.909
L409.654 130.961
L413.839 127.547
L418.024 125.282
L419.419 124.344
L422.209 122.857
L423.604 121.853
L430.579 118.051
L434.764 115.395
L441.739 111.581
L443.134 110.5
L445.924 109.018
L447.319 108.12
L451.504 105.807
L452.899 104.629
L466.849 97.0532
L468.244 95.9424
L469.639 94.6143
L475.219 91.4817
L475.219 91.4817" style="fill:none;stroke:#000000;stroke-linecap:square;"/>
   </g>
   <g id="line2d_15">
    <path clip-path="url(#p8c776b0f9c)" d="
M28.8194 368.675
L30.2144 367.636
L33.0044 366.125
L34.3994 365.083
L38.5844 362.693
L44.1644 359.49
L49.7444 356.358
L62.2994 349.094
L70.6694 343.964
L72.0644 342.956
L73.4594 341.586
L77.6444 339.128
L80.4344 337.528
L83.2244 335.782
L104.149 323.731
L106.939 321.885
L112.519 318.695
L115.309 316.621
L133.444 306.213
L136.234 304.364
L145.999 298.753
L147.394 297.768
L152.974 294.472
L154.369 293.467
L171.109 283.882
L173.899 282.22
L175.294 281.144
L178.084 279.532
L179.479 278.535
L185.059 275.311
L186.454 274.32
L199.009 266.943
L201.799 265.245
L211.564 259.598
L212.959 258.143
L214.354 256.991
L225.514 250.403
L239.464 242.371
L242.254 240.653
L247.834 237.266
L252.019 234.809
L261.784 229.227
L263.179 228.182
L264.574 227.393
L267.364 225.382
L272.944 221.932
L275.734 220.206
L277.129 219.317
L279.919 217.018
L282.709 215.442
L284.104 214.225
L291.079 210.163
L293.869 208.475
L307.819 200.326
L312.004 197.856
L313.399 196.808
L317.584 194.275
L318.979 193.489
L320.374 192.249
L321.769 191.207
L328.744 187.137
L331.534 185.418
L332.929 183.846
L338.509 180.652
L339.904 179.501
L344.089 177.134
L345.484 176.006
L346.879 175.212
L351.064 172.47
L356.644 169.263
L358.039 168.241
L367.804 162.3
L369.199 161.52
L370.594 160.39
L376.174 157.136
L377.569 156.334
L378.964 154.393
L380.359 152.981
L401.284 140.879
L404.074 139.075
L406.864 137.221
L411.049 134.803
L412.444 133.75
L422.209 128.133
L423.604 127.162
L429.184 123.919
L430.579 122.359
L434.764 119.752
L436.159 118.587
L450.109 110.428
L451.504 109.157
L452.899 108.117
L455.689 106.53
L457.084 105.599
L462.664 102.375
L466.849 99.665
L468.244 98.8578
L472.429 96.0658
L475.219 94.4217
L475.219 94.4217" style="fill:none;stroke:#0000ff;stroke-linecap:square;"/>
   </g>
   <g id="line2d_16">
    <path clip-path="url(#p8c776b0f9c)" d="
M28.8194 368.677
L30.2144 366.478
L33.0044 364.883
L34.3994 363.836
L38.5844 361.292
L39.9794 359.88
L42.7694 358.123
L46.9544 355.569
L51.1394 353.042
L52.5344 351.971
L53.9294 351.153
L56.7194 348.453
L66.4844 342.492
L67.8794 341.451
L72.0644 338.963
L73.4594 337.981
L80.4344 333.809
L83.2244 331.894
L86.0144 330.242
L87.4094 329.054
L88.8044 328.03
L92.9894 325.535
L94.3844 324.285
L95.7794 323.265
L97.1744 322.424
L98.5694 321.379
L102.754 318.862
L105.544 316.942
L111.124 313.598
L112.519 312.524
L122.284 306.452
L123.679 305.407
L133.444 299.354
L134.839 298.163
L145.999 291.239
L150.184 288.756
L151.579 287.526
L152.974 286.465
L158.554 282.992
L162.739 279.986
L169.714 275.816
L171.109 274.601
L178.084 270.234
L179.479 268.04
L180.874 267.199
L182.269 266.196
L183.664 265.037
L193.429 259.06
L194.824 257.943
L196.219 257.113
L199.009 254.963
L201.799 253.269
L203.194 251.87
L204.589 251.04
L205.984 249.804
L210.169 247.248
L212.959 245.185
L219.934 240.946
L221.329 239.935
L224.119 238.28
L225.514 236.934
L228.304 235.239
L229.699 234.027
L231.094 232.639
L243.649 225.19
L245.044 224.111
L246.439 223.288
L247.834 222.209
L254.809 217.673
L257.599 215.908
L258.994 214.836
L272.944 206.224
L274.339 204.88
L278.524 202.401
L279.919 201.19
L286.894 196.971
L289.684 195.216
L296.659 190.974
L298.054 189.866
L303.634 186.544
L305.029 185.414
L306.424 184.439
L307.819 183.612
L310.609 181.818
L316.189 178.469
L317.584 177.084
L321.769 174.591
L323.164 173.485
L324.559 170.539
L328.744 168.036
L331.534 165.967
L332.929 164.67
L335.719 162.997
L338.509 160.877
L342.694 158.397
L344.089 157.283
L345.484 156.424
L346.879 155.406
L349.669 153.749
L351.064 152.781
L358.039 148.528
L365.014 144.363
L366.409 143.278
L374.779 138.28
L376.174 137.219
L381.754 133.712
L390.124 128.531
L391.519 127.338
L392.914 125.787
L397.099 123.23
L398.494 121.825
L399.889 121.001
L402.679 118.895
L411.049 113.664
L412.444 112.521
L413.839 111.684
L415.234 110.67
L416.629 109.838
L418.024 108.811
L419.419 107.94
L420.814 106.893
L424.999 104.424
L426.394 103.363
L433.369 99.117
L434.764 97.7444
L436.159 96.7274
L437.554 95.9004
L438.949 94.8167
L441.739 93.1455
L443.134 91.9359
L444.529 91.1015
L445.924 90.0721
L457.084 83.3231
L458.479 82.2714
L464.059 78.8747
L465.454 77.8404
L471.034 74.3844
L472.429 73.1723
L475.219 71.5183
L475.219 71.5183" style="fill:none;stroke:#008000;stroke-linecap:square;"/>
   </g>
   <g id="patch_3">
    <path d="
M28.8194 23.1417
L475.219 23.1417" style="fill:none;stroke:#000000;stroke-linecap:square;stroke-linejoin:miter;"/>
   </g>
   <g id="patch_4">
    <path d="
M475.219 368.742
L475.219 23.1417" style="fill:none;stroke:#000000;stroke-linecap:square;stroke-linejoin:miter;"/>
   </g>
   <g id="patch_5">
    <path d="
M28.8194 368.742
L475.219 368.742" style="fill:none;stroke:#000000;stroke-linecap:square;stroke-linejoin:miter;"/>
   </g>
   <g id="patch_6">
    <path d="
M28.8194 368.742
L28.8194 23.1417" style="fill:none;stroke:#000000;stroke-linecap:square;stroke-linejoin:miter;"/>
   </g>
   <g id="matplotlib.axis_1">
    <g id="xtick_1">
     <g id="line2d_17">
      <defs>
       <path d="
M0 0
L0 -4" id="m93b0483c22" style="stroke:#000000;stroke-width:0.5;"/>
      </defs>
      <g>
       <use style="stroke:#000000;stroke-width:0.5;" x="28.819375" xlink:href="#m93b0483c22" y="368.74175"/>
      </g>
     </g>
     <g id="line2d_18">
      <defs>
       <path d="
M0 0
L0 4" id="m741efc42ff" style="stroke:#000000;stroke-width:0.5;"/>
      </defs>
      <g>
       <use style="stroke:#000000;stroke-width:0.5;" x="28.819375" xlink:href="#m741efc42ff" y="23.14175"/>
      </g>
     </g>
     <g id="text_1">
      <!-- 0 -->
      <defs>
       <path d="
M31.7812 66.4062
Q24.1719 66.4062 20.3281 58.9062
Q16.5 51.4219 16.5 36.375
Q16.5 21.3906 20.3281 13.8906
Q24.1719 6.39062 31.7812 6.39062
Q39.4531 6.39062 43.2812 13.8906
Q47.125 21.3906 47.125 36.375
Q47.125 51.4219 43.2812 58.9062
Q39.4531 66.4062 31.7812 66.4062
M31.7812 74.2188
Q44.0469 74.2188 50.5156 64.5156
Q56.9844 54.8281 56.9844 36.375
Q56.9844 17.9688 50.5156 8.26562
Q44.0469 -1.42188 31.7812 -1.42188
Q19.5312 -1.42188 13.0625 8.26562
Q6.59375 17.9688 6.59375 36.375
Q6.59375 54.8281 13.0625 64.5156
Q19.5312 74.2188 31.7812 74.2188" id="DejaVuSans-30"/>
      </defs>
      <g transform="translate(25.7959375 381.859875)scale(0.12 -0.12)">
       <use xlink:href="#DejaVuSans-30"/>
      </g>
     </g>
    </g>
    <g id="xtick_2">
     <g id="line2d_19">
      <g>
       <use style="stroke:#000000;stroke-width:0.5;" x="98.569375" xlink:href="#m93b0483c22" y="368.74175"/>
      </g>
     </g>
     <g id="line2d_20">
      <g>
       <use style="stroke:#000000;stroke-width:0.5;" x="98.569375" xlink:href="#m741efc42ff" y="23.14175"/>
      </g>
     </g>
     <g id="text_2">
      <!-- 50 -->
      <defs>
       <path d="
M10.7969 72.9062
L49.5156 72.9062
L49.5156 64.5938
L19.8281 64.5938
L19.8281 46.7344
Q21.9688 47.4688 24.1094 47.8281
Q26.2656 48.1875 28.4219 48.1875
Q40.625 48.1875 47.75 41.5
Q54.8906 34.8125 54.8906 23.3906
Q54.8906 11.625 47.5625 5.09375
Q40.2344 -1.42188 26.9062 -1.42188
Q22.3125 -1.42188 17.5469 -0.640625
Q12.7969 0.140625 7.71875 1.70312
L7.71875 11.625
Q12.1094 9.23438 16.7969 8.0625
Q21.4844 6.89062 26.7031 6.89062
Q35.1562 6.89062 40.0781 11.3281
Q45.0156 15.7656 45.0156 23.3906
Q45.0156 31 40.0781 35.4375
Q35.1562 39.8906 26.7031 39.8906
Q22.75 39.8906 18.8125 39.0156
Q14.8906 38.1406 10.7969 36.2812
z
" id="DejaVuSans-35"/>
      </defs>
      <g transform="translate(91.7959375 381.859875)scale(0.12 -0.12)">
       <use xlink:href="#DejaVuSans-35"/>
       <use x="63.623046875" xlink:href="#DejaVuSans-30"/>
      </g>
     </g>
    </g>
    <g id="xtick_3">
     <g id="line2d_21">
      <g>
       <use style="stroke:#000000;stroke-width:0.5;" x="168.319375" xlink:href="#m93b0483c22" y="368.74175"/>
      </g>
     </g>
     <g id="line2d_22">
      <g>
       <use style="stroke:#000000;stroke-width:0.5;" x="168.319375" xlink:href="#m741efc42ff" y="23.14175"/>
      </g>
     </g>
     <g id="text_3">
      <!-- 100 -->
      <defs>
       <path d="
M12.4062 8.29688
L28.5156 8.29688
L28.5156 63.9219
L10.9844 60.4062
L10.9844 69.3906
L28.4219 72.9062
L38.2812 72.9062
L38.2812 8.29688
L54.3906 8.29688
L54.3906 0
L12.4062 0
z
" id="DejaVuSans-31"/>
      </defs>
      <g transform="translate(157.924375 381.859875)scale(0.12 -0.12)">
       <use xlink:href="#DejaVuSans-31"/>
       <use x="63.623046875" xlink:href="#DejaVuSans-30"/>
       <use x="127.24609375" xlink:href="#DejaVuSans-30"/>
      </g>
     </g>
    </g>
    <g id="xtick_4">
     <g id="line2d_23">
      <g>
       <use style="stroke:#000000;stroke-width:0.5;" x="238.069375" xlink:href="#m93b0483c22" y="368.74175"/>
      </g>
     </g>
     <g id="line2d_24">
      <g>
       <use style="stroke:#000000;stroke-width:0.5;" x="238.069375" xlink:href="#m741efc42ff" y="23.14175"/>
      </g>
     </g>
     <g id="text_4">
      <!-- 150 -->
      <g transform="translate(227.674375 381.859875)scale(0.12 -0.12)">
       <use xlink:href="#DejaVuSans-31"/>
       <use x="63.623046875" xlink:href="#DejaVuSans-35"/>
       <use x="127.24609375" xlink:href="#DejaVuSans-30"/>
      </g>
     </g>
    </g>
    <g id="xtick_5">
     <g id="line2d_25">
      <g>
       <use style="stroke:#000000;stroke-width:0.5;" x="307.819375" xlink:href="#m93b0483c22" y="368.74175"/>
      </g>
     </g>
     <g id="line2d_26">
      <g>
       <use style="stroke:#000000;stroke-width:0.5;" x="307.819375" xlink:href="#m741efc42ff" y="23.14175"/>
      </g>
     </g>
     <g id="text_5">
      <!-- 200 -->
      <defs>
       <path d="
M19.1875 8.29688
L53.6094 8.29688
L53.6094 0
L7.32812 0
L7.32812 8.29688
Q12.9375 14.1094 22.625 23.8906
Q32.3281 33.6875 34.8125 36.5312
Q39.5469 41.8438 41.4219 45.5312
Q43.3125 49.2188 43.3125 52.7812
Q43.3125 58.5938 39.2344 62.25
Q35.1562 65.9219 28.6094 65.9219
Q23.9688 65.9219 18.8125 64.3125
Q13.6719 62.7031 7.8125 59.4219
L7.8125 69.3906
Q13.7656 71.7812 18.9375 73
Q24.125 74.2188 28.4219 74.2188
Q39.75 74.2188 46.4844 68.5469
Q53.2188 62.8906 53.2188 53.4219
Q53.2188 48.9219 51.5312 44.8906
Q49.8594 40.875 45.4062 35.4062
Q44.1875 33.9844 37.6406 27.2188
Q31.1094 20.4531 19.1875 8.29688" id="DejaVuSans-32"/>
      </defs>
      <g transform="translate(297.205 381.859875)scale(0.12 -0.12)">
       <use xlink:href="#DejaVuSans-32"/>
       <use x="63.623046875" xlink:href="#DejaVuSans-30"/>
       <use x="127.24609375" xlink:href="#DejaVuSans-30"/>
      </g>
     </g>
    </g>
    <g id="xtick_6">
     <g id="line2d_27">
      <g>
       <use style="stroke:#000000;stroke-width:0.5;" x="377.569375" xlink:href="#m93b0483c22" y="368.74175"/>
      </g>
     </g>
     <g id="line2d_28">
      <g>
       <use style="stroke:#000000;stroke-width:0.5;" x="377.569375" xlink:href="#m741efc42ff" y="23.14175"/>
      </g>
     </g>
     <g id="text_6">
      <!-- 250 -->
      <g transform="translate(366.955 381.859875)scale(0.12 -0.12)">
       <use xlink:href="#DejaVuSans-32"/>
       <use x="63.623046875" xlink:href="#DejaVuSans-35"/>
       <use x="127.24609375" xlink:href="#DejaVuSans-30"/>
      </g>
     </g>
    </g>
    <g id="xtick_7">
     <g id="line2d_29">
      <g>
       <use style="stroke:#000000;stroke-width:0.5;" x="447.319375" xlink:href="#m93b0483c22" y="368.74175"/>
      </g>
     </g>
     <g id="line2d_30">
      <g>
       <use style="stroke:#000000;stroke-width:0.5;" x="447.319375" xlink:href="#m741efc42ff" y="23.14175"/>
      </g>
     </g>
     <g id="text_7">
      <!-- 300 -->
      <defs>
       <path d="
M40.5781 39.3125
Q47.6562 37.7969 51.625 33
Q55.6094 28.2188 55.6094 21.1875
Q55.6094 10.4062 48.1875 4.48438
Q40.7656 -1.42188 27.0938 -1.42188
Q22.5156 -1.42188 17.6562 -0.515625
Q12.7969 0.390625 7.625 2.20312
L7.625 11.7188
Q11.7188 9.32812 16.5938 8.10938
Q21.4844 6.89062 26.8125 6.89062
Q36.0781 6.89062 40.9375 10.5469
Q45.7969 14.2031 45.7969 21.1875
Q45.7969 27.6406 41.2812 31.2656
Q36.7656 34.9062 28.7188 34.9062
L20.2188 34.9062
L20.2188 43.0156
L29.1094 43.0156
Q36.375 43.0156 40.2344 45.9219
Q44.0938 48.8281 44.0938 54.2969
Q44.0938 59.9062 40.1094 62.9062
Q36.1406 65.9219 28.7188 65.9219
Q24.6562 65.9219 20.0156 65.0312
Q15.375 64.1562 9.8125 62.3125
L9.8125 71.0938
Q15.4375 72.6562 20.3438 73.4375
Q25.25 74.2188 29.5938 74.2188
Q40.8281 74.2188 47.3594 69.1094
Q53.9062 64.0156 53.9062 55.3281
Q53.9062 49.2656 50.4375 45.0938
Q46.9688 40.9219 40.5781 39.3125" id="DejaVuSans-33"/>
      </defs>
      <g transform="translate(436.7228125 381.859875)scale(0.12 -0.12)">
       <use xlink:href="#DejaVuSans-33"/>
       <use x="63.623046875" xlink:href="#DejaVuSans-30"/>
       <use x="127.24609375" xlink:href="#DejaVuSans-30"/>
      </g>
     </g>
    </g>
    <g id="text_8">
     <!-- time -->
     <defs>
      <path d="
M18.3125 70.2188
L18.3125 54.6875
L36.8125 54.6875
L36.8125 47.7031
L18.3125 47.7031
L18.3125 18.0156
Q18.3125 11.3281 20.1406 9.42188
Q21.9688 7.51562 27.5938 7.51562
L36.8125 7.51562
L36.8125 0
L27.5938 0
Q17.1875 0 13.2344 3.875
Q9.28125 7.76562 9.28125 18.0156
L9.28125 47.7031
L2.6875 47.7031
L2.6875 54.6875
L9.28125 54.6875
L9.28125 70.2188
z
" id="DejaVuSans-74"/>
      <path d="
M52 44.1875
Q55.375 50.25 60.0625 53.125
Q64.75 56 71.0938 56
Q79.6406 56 84.2812 50.0156
Q88.9219 44.0469 88.9219 33.0156
L88.9219 0
L79.8906 0
L79.8906 32.7188
Q79.8906 40.5781 77.0938 44.375
Q74.3125 48.1875 68.6094 48.1875
Q61.625 48.1875 57.5625 43.5469
Q53.5156 38.9219 53.5156 30.9062
L53.5156 0
L44.4844 0
L44.4844 32.7188
Q44.4844 40.625 41.7031 44.4062
Q38.9219 48.1875 33.1094 48.1875
Q26.2188 48.1875 22.1562 43.5312
Q18.1094 38.875 18.1094 30.9062
L18.1094 0
L9.07812 0
L9.07812 54.6875
L18.1094 54.6875
L18.1094 46.1875
Q21.1875 51.2188 25.4844 53.6094
Q29.7812 56 35.6875 56
Q41.6562 56 45.8281 52.9688
Q50 49.9531 52 44.1875" id="DejaVuSans-6d"/>
      <path d="
M56.2031 29.5938
L56.2031 25.2031
L14.8906 25.2031
Q15.4844 15.9219 20.4844 11.0625
Q25.4844 6.20312 34.4219 6.20312
Q39.5938 6.20312 44.4531 7.46875
Q49.3125 8.73438 54.1094 11.2812
L54.1094 2.78125
Q49.2656 0.734375 44.1875 -0.34375
Q39.1094 -1.42188 33.8906 -1.42188
Q20.7969 -1.42188 13.1562 6.1875
Q5.51562 13.8125 5.51562 26.8125
Q5.51562 40.2344 12.7656 48.1094
Q20.0156 56 32.3281 56
Q43.3594 56 49.7812 48.8906
Q56.2031 41.7969 56.2031 29.5938
M47.2188 32.2344
Q47.125 39.5938 43.0938 43.9844
Q39.0625 48.3906 32.4219 48.3906
Q24.9062 48.3906 20.3906 44.1406
Q15.875 39.8906 15.1875 32.1719
z
" id="DejaVuSans-65"/>
      <path d="
M9.42188 54.6875
L18.4062 54.6875
L18.4062 0
L9.42188 0
z

M9.42188 75.9844
L18.4062 75.9844
L18.4062 64.5938
L9.42188 64.5938
z
" id="DejaVuSans-69"/>
     </defs>
     <g transform="translate(238.945 398.473625)scale(0.12 -0.12)">
      <use xlink:href="#DejaVuSans-74"/>
      <use x="39.208984375" xlink:href="#DejaVuSans-69"/>
      <use x="66.9921875" xlink:href="#DejaVuSans-6d"/>
      <use x="164.404296875" xlink:href="#DejaVuSans-65"/>
     </g>
    </g>
   </g>
   <g id="matplotlib.axis_2">
    <g id="ytick_1">
     <g id="line2d_31">
      <defs>
       <path d="
M0 0
L4 0" id="m728421d6d4" style="stroke:#000000;stroke-width:0.5;"/>
      </defs>
      <g>
       <use style="stroke:#000000;stroke-width:0.5;" x="28.819375" xlink:href="#m728421d6d4" y="368.74175"/>
      </g>
     </g>
     <g id="line2d_32">
      <defs>
       <path d="
M0 0
L-4 0" id="mcb0005524f" style="stroke:#000000;stroke-width:0.5;"/>
      </defs>
      <g>
       <use style="stroke:#000000;stroke-width:0.5;" x="475.219375" xlink:href="#mcb0005524f" y="368.74175"/>
      </g>
     </g>
     <g id="text_9">
      <!-- 0.0 -->
      <defs>
       <path d="
M10.6875 12.4062
L21 12.4062
L21 0
L10.6875 0
z
" id="DejaVuSans-2e"/>
      </defs>
      <g transform="translate(7.32375 372.053)scale(0.12 -0.12)">
       <use xlink:href="#DejaVuSans-30"/>
       <use x="63.623046875" xlink:href="#DejaVuSans-2e"/>
       <use x="95.41015625" xlink:href="#DejaVuSans-30"/>
      </g>
     </g>
    </g>
    <g id="ytick_2">
     <g id="line2d_33">
      <g>
       <use style="stroke:#000000;stroke-width:0.5;" x="28.819375" xlink:href="#m728421d6d4" y="319.370321429"/>
      </g>
     </g>
     <g id="line2d_34">
      <g>
       <use style="stroke:#000000;stroke-width:0.5;" x="475.219375" xlink:href="#mcb0005524f" y="319.370321429"/>
      </g>
     </g>
     <g id="text_10">
      <!-- 0.2 -->
      <g transform="translate(7.72875 322.681571429)scale(0.12 -0.12)">
       <use xlink:href="#DejaVuSans-30"/>
       <use x="63.623046875" xlink:href="#DejaVuSans-2e"/>
       <use x="95.41015625" xlink:href="#DejaVuSans-32"/>
      </g>
     </g>
    </g>
    <g id="ytick_3">
     <g id="line2d_35">
      <g>
       <use style="stroke:#000000;stroke-width:0.5;" x="28.819375" xlink:href="#m728421d6d4" y="269.998892857"/>
      </g>
     </g>
     <g id="line2d_36">
      <g>
       <use style="stroke:#000000;stroke-width:0.5;" x="475.219375" xlink:href="#mcb0005524f" y="269.998892857"/>
      </g>
     </g>
     <g id="text_11">
      <!-- 0.4 -->
      <defs>
       <path d="
M37.7969 64.3125
L12.8906 25.3906
L37.7969 25.3906
z

M35.2031 72.9062
L47.6094 72.9062
L47.6094 25.3906
L58.0156 25.3906
L58.0156 17.1875
L47.6094 17.1875
L47.6094 0
L37.7969 0
L37.7969 17.1875
L4.89062 17.1875
L4.89062 26.7031
z
" id="DejaVuSans-34"/>
      </defs>
      <g transform="translate(7.2 273.310142857)scale(0.12 -0.12)">
       <use xlink:href="#DejaVuSans-30"/>
       <use x="63.623046875" xlink:href="#DejaVuSans-2e"/>
       <use x="95.41015625" xlink:href="#DejaVuSans-34"/>
      </g>
     </g>
    </g>
    <g id="ytick_4">
     <g id="line2d_37">
      <g>
       <use style="stroke:#000000;stroke-width:0.5;" x="28.819375" xlink:href="#m728421d6d4" y="220.627464286"/>
      </g>
     </g>
     <g id="line2d_38">
      <g>
       <use style="stroke:#000000;stroke-width:0.5;" x="475.219375" xlink:href="#mcb0005524f" y="220.627464286"/>
      </g>
     </g>
     <g id="text_12">
      <!-- 0.6 -->
      <defs>
       <path d="
M33.0156 40.375
Q26.375 40.375 22.4844 35.8281
Q18.6094 31.2969 18.6094 23.3906
Q18.6094 15.5312 22.4844 10.9531
Q26.375 6.39062 33.0156 6.39062
Q39.6562 6.39062 43.5312 10.9531
Q47.4062 15.5312 47.4062 23.3906
Q47.4062 31.2969 43.5312 35.8281
Q39.6562 40.375 33.0156 40.375
M52.5938 71.2969
L52.5938 62.3125
Q48.875 64.0625 45.0938 64.9844
Q41.3125 65.9219 37.5938 65.9219
Q27.8281 65.9219 22.6719 59.3281
Q17.5312 52.7344 16.7969 39.4062
Q19.6719 43.6562 24.0156 45.9219
Q28.375 48.1875 33.5938 48.1875
Q44.5781 48.1875 50.9531 41.5156
Q57.3281 34.8594 57.3281 23.3906
Q57.3281 12.1562 50.6875 5.35938
Q44.0469 -1.42188 33.0156 -1.42188
Q20.3594 -1.42188 13.6719 8.26562
Q6.98438 17.9688 6.98438 36.375
Q6.98438 53.6562 15.1875 63.9375
Q23.3906 74.2188 37.2031 74.2188
Q40.9219 74.2188 44.7031 73.4844
Q48.4844 72.75 52.5938 71.2969" id="DejaVuSans-36"/>
      </defs>
      <g transform="translate(7.2825 223.938714286)scale(0.12 -0.12)">
       <use xlink:href="#DejaVuSans-30"/>
       <use x="63.623046875" xlink:href="#DejaVuSans-2e"/>
       <use x="95.41015625" xlink:href="#DejaVuSans-36"/>
      </g>
     </g>
    </g>
    <g id="ytick_5">
     <g id="line2d_39">
      <g>
       <use style="stroke:#000000;stroke-width:0.5;" x="28.819375" xlink:href="#m728421d6d4" y="171.256035714"/>
      </g>
     </g>
     <g id="line2d_40">
      <g>
       <use style="stroke:#000000;stroke-width:0.5;" x="475.219375" xlink:href="#mcb0005524f" y="171.256035714"/>
      </g>
     </g>
     <g id="text_13">
      <!-- 0.8 -->
      <defs>
       <path d="
M31.7812 34.625
Q24.75 34.625 20.7188 30.8594
Q16.7031 27.0938 16.7031 20.5156
Q16.7031 13.9219 20.7188 10.1562
Q24.75 6.39062 31.7812 6.39062
Q38.8125 6.39062 42.8594 10.1719
Q46.9219 13.9688 46.9219 20.5156
Q46.9219 27.0938 42.8906 30.8594
Q38.875 34.625 31.7812 34.625
M21.9219 38.8125
Q15.5781 40.375 12.0312 44.7188
Q8.5 49.0781 8.5 55.3281
Q8.5 64.0625 14.7188 69.1406
Q20.9531 74.2188 31.7812 74.2188
Q42.6719 74.2188 48.875 69.1406
Q55.0781 64.0625 55.0781 55.3281
Q55.0781 49.0781 51.5312 44.7188
Q48 40.375 41.7031 38.8125
Q48.8281 37.1562 52.7969 32.3125
Q56.7812 27.4844 56.7812 20.5156
Q56.7812 9.90625 50.3125 4.23438
Q43.8438 -1.42188 31.7812 -1.42188
Q19.7344 -1.42188 13.25 4.23438
Q6.78125 9.90625 6.78125 20.5156
Q6.78125 27.4844 10.7812 32.3125
Q14.7969 37.1562 21.9219 38.8125
M18.3125 54.3906
Q18.3125 48.7344 21.8438 45.5625
Q25.3906 42.3906 31.7812 42.3906
Q38.1406 42.3906 41.7188 45.5625
Q45.3125 48.7344 45.3125 54.3906
Q45.3125 60.0625 41.7188 63.2344
Q38.1406 66.4062 31.7812 66.4062
Q25.3906 66.4062 21.8438 63.2344
Q18.3125 60.0625 18.3125 54.3906" id="DejaVuSans-38"/>
      </defs>
      <g transform="translate(7.348125 174.567285714)scale(0.12 -0.12)">
       <use xlink:href="#DejaVuSans-30"/>
       <use x="63.623046875" xlink:href="#DejaVuSans-2e"/>
       <use x="95.41015625" xlink:href="#DejaVuSans-38"/>
      </g>
     </g>
    </g>
    <g id="ytick_6">
     <g id="line2d_41">
      <g>
       <use style="stroke:#000000;stroke-width:0.5;" x="28.819375" xlink:href="#m728421d6d4" y="121.884607143"/>
      </g>
     </g>
     <g id="line2d_42">
      <g>
       <use style="stroke:#000000;stroke-width:0.5;" x="475.219375" xlink:href="#mcb0005524f" y="121.884607143"/>
      </g>
     </g>
     <g id="text_14">
      <!-- 1.0 -->
      <g transform="translate(7.850625 125.195857143)scale(0.12 -0.12)">
       <use xlink:href="#DejaVuSans-31"/>
       <use x="63.623046875" xlink:href="#DejaVuSans-2e"/>
       <use x="95.41015625" xlink:href="#DejaVuSans-30"/>
      </g>
     </g>
    </g>
    <g id="ytick_7">
     <g id="line2d_43">
      <g>
       <use style="stroke:#000000;stroke-width:0.5;" x="28.819375" xlink:href="#m728421d6d4" y="72.5131785714"/>
      </g>
     </g>
     <g id="line2d_44">
      <g>
       <use style="stroke:#000000;stroke-width:0.5;" x="475.219375" xlink:href="#mcb0005524f" y="72.5131785714"/>
      </g>
     </g>
     <g id="text_15">
      <!-- 1.2 -->
      <g transform="translate(8.255625 75.8244285714)scale(0.12 -0.12)">
       <use xlink:href="#DejaVuSans-31"/>
       <use x="63.623046875" xlink:href="#DejaVuSans-2e"/>
       <use x="95.41015625" xlink:href="#DejaVuSans-32"/>
      </g>
     </g>
    </g>
    <g id="ytick_8">
     <g id="line2d_45">
      <g>
       <use style="stroke:#000000;stroke-width:0.5;" x="28.819375" xlink:href="#m728421d6d4" y="23.14175"/>
      </g>
     </g>
     <g id="line2d_46">
      <g>
       <use style="stroke:#000000;stroke-width:0.5;" x="475.219375" xlink:href="#mcb0005524f" y="23.14175"/>
      </g>
     </g>
     <g id="text_16">
      <!-- 1.4 -->
      <g transform="translate(7.726875 26.453)scale(0.12 -0.12)">
       <use xlink:href="#DejaVuSans-31"/>
       <use x="63.623046875" xlink:href="#DejaVuSans-2e"/>
       <use x="95.41015625" xlink:href="#DejaVuSans-34"/>
      </g>
     </g>
    </g>
    <g id="text_17">
     <!-- 1e11 -->
     <g transform="translate(28.819375 20.14175)scale(0.12 -0.12)">
      <use xlink:href="#DejaVuSans-31"/>
      <use x="63.623046875" xlink:href="#DejaVuSans-65"/>
      <use x="125.146484375" xlink:href="#DejaVuSans-31"/>
      <use x="188.76953125" xlink:href="#DejaVuSans-31"/>
     </g>
    </g>
   </g>
   <g id="text_18">
    <!-- /agas/time/route -->
    <defs>
     <path d="
M25.3906 72.9062
L33.6875 72.9062
L8.29688 -9.28125
L0 -9.28125
z
" id="DejaVuSans-2f"/>
     <path d="
M30.6094 48.3906
Q23.3906 48.3906 19.1875 42.75
Q14.9844 37.1094 14.9844 27.2969
Q14.9844 17.4844 19.1562 11.8438
Q23.3438 6.20312 30.6094 6.20312
Q37.7969 6.20312 41.9844 11.8594
Q46.1875 17.5312 46.1875 27.2969
Q46.1875 37.0156 41.9844 42.7031
Q37.7969 48.3906 30.6094 48.3906
M30.6094 56
Q42.3281 56 49.0156 48.375
Q55.7188 40.7656 55.7188 27.2969
Q55.7188 13.875 49.0156 6.21875
Q42.3281 -1.42188 30.6094 -1.42188
Q18.8438 -1.42188 12.1719 6.21875
Q5.51562 13.875 5.51562 27.2969
Q5.51562 40.7656 12.1719 48.375
Q18.8438 56 30.6094 56" id="DejaVuSans-6f"/>
     <path d="
M8.5 21.5781
L8.5 54.6875
L17.4844 54.6875
L17.4844 21.9219
Q17.4844 14.1562 20.5 10.2656
Q23.5312 6.39062 29.5938 6.39062
Q36.8594 6.39062 41.0781 11.0312
Q45.3125 15.6719 45.3125 23.6875
L45.3125 54.6875
L54.2969 54.6875
L54.2969 0
L45.3125 0
L45.3125 8.40625
Q42.0469 3.42188 37.7188 1
Q33.4062 -1.42188 27.6875 -1.42188
Q18.2656 -1.42188 13.375 4.4375
Q8.5 10.2969 8.5 21.5781
M31.1094 56
z
" id="DejaVuSans-75"/>
     <path d="
M45.4062 27.9844
Q45.4062 37.75 41.375 43.1094
Q37.3594 48.4844 30.0781 48.4844
Q22.8594 48.4844 18.8281 43.1094
Q14.7969 37.75 14.7969 27.9844
Q14.7969 18.2656 18.8281 12.8906
Q22.8594 7.51562 30.0781 7.51562
Q37.3594 7.51562 41.375 12.8906
Q45.4062 18.2656 45.4062 27.9844
M54.3906 6.78125
Q54.3906 -7.17188 48.1875 -13.9844
Q42 -20.7969 29.2031 -20.7969
Q24.4688 -20.7969 20.2656 -20.0938
Q16.0625 -19.3906 12.1094 -17.9219
L12.1094 -9.1875
Q16.0625 -11.3281 19.9219 -12.3438
Q23.7812 -13.375 27.7812 -13.375
Q36.625 -13.375 41.0156 -8.76562
Q45.4062 -4.15625 45.4062 5.17188
L45.4062 9.625
Q42.625 4.78125 38.2812 2.39062
Q33.9375 0 27.875 0
Q17.8281 0 11.6719 7.65625
Q5.51562 15.3281 5.51562 27.9844
Q5.51562 40.6719 11.6719 48.3281
Q17.8281 56 27.875 56
Q33.9375 56 38.2812 53.6094
Q42.625 51.2188 45.4062 46.3906
L45.4062 54.6875
L54.3906 54.6875
z
" id="DejaVuSans-67"/>
     <path d="
M34.2812 27.4844
Q23.3906 27.4844 19.1875 25
Q14.9844 22.5156 14.9844 16.5
Q14.9844 11.7188 18.1406 8.90625
Q21.2969 6.10938 26.7031 6.10938
Q34.1875 6.10938 38.7031 11.4062
Q43.2188 16.7031 43.2188 25.4844
L43.2188 27.4844
z

M52.2031 31.2031
L52.2031 0
L43.2188 0
L43.2188 8.29688
Q40.1406 3.32812 35.5469 0.953125
Q30.9531 -1.42188 24.3125 -1.42188
Q15.9219 -1.42188 10.9531 3.29688
Q6 8.01562 6 15.9219
Q6 25.1406 12.1719 29.8281
Q18.3594 34.5156 30.6094 34.5156
L43.2188 34.5156
L43.2188 35.4062
Q43.2188 41.6094 39.1406 45
Q35.0625 48.3906 27.6875 48.3906
Q23 48.3906 18.5469 47.2656
Q14.1094 46.1406 10.0156 43.8906
L10.0156 52.2031
Q14.9375 54.1094 19.5781 55.0469
Q24.2188 56 28.6094 56
Q40.4844 56 46.3438 49.8438
Q52.2031 43.7031 52.2031 31.2031" id="DejaVuSans-61"/>
     <path d="
M44.2812 53.0781
L44.2812 44.5781
Q40.4844 46.5312 36.375 47.5
Q32.2812 48.4844 27.875 48.4844
Q21.1875 48.4844 17.8438 46.4375
Q14.5 44.3906 14.5 40.2812
Q14.5 37.1562 16.8906 35.375
Q19.2812 33.5938 26.5156 31.9844
L29.5938 31.2969
Q39.1562 29.25 43.1875 25.5156
Q47.2188 21.7812 47.2188 15.0938
Q47.2188 7.46875 41.1875 3.01562
Q35.1562 -1.42188 24.6094 -1.42188
Q20.2188 -1.42188 15.4531 -0.5625
Q10.6875 0.296875 5.42188 2
L5.42188 11.2812
Q10.4062 8.6875 15.2344 7.39062
Q20.0625 6.10938 24.8125 6.10938
Q31.1562 6.10938 34.5625 8.28125
Q37.9844 10.4531 37.9844 14.4062
Q37.9844 18.0625 35.5156 20.0156
Q33.0625 21.9688 24.7031 23.7812
L21.5781 24.5156
Q13.2344 26.2656 9.51562 29.9062
Q5.8125 33.5469 5.8125 39.8906
Q5.8125 47.6094 11.2812 51.7969
Q16.75 56 26.8125 56
Q31.7812 56 36.1719 55.2656
Q40.5781 54.5469 44.2812 53.0781" id="DejaVuSans-73"/>
     <path d="
M41.1094 46.2969
Q39.5938 47.1719 37.8125 47.5781
Q36.0312 48 33.8906 48
Q26.2656 48 22.1875 43.0469
Q18.1094 38.0938 18.1094 28.8125
L18.1094 0
L9.07812 0
L9.07812 54.6875
L18.1094 54.6875
L18.1094 46.1875
Q20.9531 51.1719 25.4844 53.5781
Q30.0312 56 36.5312 56
Q37.4531 56 38.5781 55.875
Q39.7031 55.7656 41.0625 55.5156
z
" id="DejaVuSans-72"/>
    </defs>
    <g transform="translate(192.69475 18.14175)scale(0.144 -0.144)">
     <use xlink:href="#DejaVuSans-2f"/>
     <use x="33.69140625" xlink:href="#DejaVuSans-61"/>
     <use x="94.970703125" xlink:href="#DejaVuSans-67"/>
     <use x="158.447265625" xlink:href="#DejaVuSans-61"/>
     <use x="219.7265625" xlink:href="#DejaVuSans-73"/>
     <use x="271.826171875" xlink:href="#DejaVuSans-2f"/>
     <use x="305.517578125" xlink:href="#DejaVuSans-74"/>
     <use x="344.7265625" xlink:href="#DejaVuSans-69"/>
     <use x="372.509765625" xlink:href="#DejaVuSans-6d"/>
     <use x="469.921875" xlink:href="#DejaVuSans-65"/>
     <use x="531.4453125" xlink:href="#DejaVuSans-2f"/>
     <use x="565.13671875" xlink:href="#DejaVuSans-72"/>
     <use x="604.0" xlink:href="#DejaVuSans-6f"/>
     <use x="665.181640625" xlink:href="#DejaVuSans-75"/>
     <use x="728.560546875" xlink:href="#DejaVuSans-74"/>
     <use x="767.76953125" xlink:href="#DejaVuSans-65"/>
    </g>
   </g>
   <g id="legend_1">
    <g id="patch_7">
     <path d="
M482.419 367.194
L614.209 367.194
L614.209 24.6897
L482.419 24.6897
z
" style="fill:#ffffff;stroke:#000000;stroke-linejoin:miter;"/>
    </g>
    <g id="line2d_47">
     <path d="
M492.499 36.3515
L512.659 36.3515" style="fill:none;stroke:#0000ff;stroke-linecap:square;"/>
    </g>
    <g id="line2d_48"/>
    <g id="text_19">
     <!-- locality#0 -->
     <defs>
      <path d="
M51.125 44
L36.9219 44
L32.8125 27.6875
L47.125 27.6875
z

M43.7969 71.7812
L38.7188 51.5156
L52.9844 51.5156
L58.1094 71.7812
L65.9219 71.7812
L60.8906 51.5156
L76.125 51.5156
L76.125 44
L58.9844 44
L54.9844 27.6875
L70.5156 27.6875
L70.5156 20.2188
L53.0781 20.2188
L48 0
L40.1875 0
L45.2188 20.2188
L30.9062 20.2188
L25.875 0
L18.0156 0
L23.0938 20.2188
L7.71875 20.2188
L7.71875 27.6875
L24.9062 27.6875
L29 44
L13.2812 44
L13.2812 51.5156
L30.9062 51.5156
L35.8906 71.7812
z
" id="DejaVuSans-23"/>
      <path d="
M32.1719 -5.07812
Q28.375 -14.8438 24.75 -17.8125
Q21.1406 -20.7969 15.0938 -20.7969
L7.90625 -20.7969
L7.90625 -13.2812
L13.1875 -13.2812
Q16.8906 -13.2812 18.9375 -11.5156
Q21 -9.76562 23.4844 -3.21875
L25.0938 0.875
L2.98438 54.6875
L12.5 54.6875
L29.5938 11.9219
L46.6875 54.6875
L56.2031 54.6875
z
" id="DejaVuSans-79"/>
      <path d="
M9.42188 75.9844
L18.4062 75.9844
L18.4062 0
L9.42188 0
z
" id="DejaVuSans-6c"/>
      <path d="
M48.7812 52.5938
L48.7812 44.1875
Q44.9688 46.2969 41.1406 47.3438
Q37.3125 48.3906 33.4062 48.3906
Q24.6562 48.3906 19.8125 42.8438
Q14.9844 37.3125 14.9844 27.2969
Q14.9844 17.2812 19.8125 11.7344
Q24.6562 6.20312 33.4062 6.20312
Q37.3125 6.20312 41.1406 7.25
Q44.9688 8.29688 48.7812 10.4062
L48.7812 2.09375
Q45.0156 0.34375 40.9844 -0.53125
Q36.9688 -1.42188 32.4219 -1.42188
Q20.0625 -1.42188 12.7812 6.34375
Q5.51562 14.1094 5.51562 27.2969
Q5.51562 40.6719 12.8594 48.3281
Q20.2188 56 33.0156 56
Q37.1562 56 41.1094 55.1406
Q45.0625 54.2969 48.7812 52.5938" id="DejaVuSans-63"/>
     </defs>
     <g transform="translate(528.499375 41.3915)scale(0.144 -0.144)">
      <use xlink:href="#DejaVuSans-6c"/>
      <use x="27.783203125" xlink:href="#DejaVuSans-6f"/>
      <use x="88.96484375" xlink:href="#DejaVuSans-63"/>
      <use x="143.9453125" xlink:href="#DejaVuSans-61"/>
      <use x="205.224609375" xlink:href="#DejaVuSans-6c"/>
      <use x="233.0078125" xlink:href="#DejaVuSans-69"/>
      <use x="260.791015625" xlink:href="#DejaVuSans-74"/>
      <use x="300.0" xlink:href="#DejaVuSans-79"/>
      <use x="359.1796875" xlink:href="#DejaVuSans-23"/>
      <use x="442.96875" xlink:href="#DejaVuSans-30"/>
     </g>
    </g>
    <g id="line2d_49">
     <path d="
M492.499 57.488
L512.659 57.488" style="fill:none;stroke:#008000;stroke-linecap:square;"/>
    </g>
    <g id="line2d_50"/>
    <g id="text_20">
     <!-- locality#1 -->
     <g transform="translate(528.499375 62.528)scale(0.144 -0.144)">
      <use xlink:href="#DejaVuSans-6c"/>
      <use x="27.783203125" xlink:href="#DejaVuSans-6f"/>
      <use x="88.96484375" xlink:href="#DejaVuSans-63"/>
      <use x="143.9453125" xlink:href="#DejaVuSans-61"/>
      <use x="205.224609375" xlink:href="#DejaVuSans-6c"/>
      <use x="233.0078125" xlink:href="#DejaVuSans-69"/>
      <use x="260.791015625" xlink:href="#DejaVuSans-74"/>
      <use x="300.0" xlink:href="#DejaVuSans-79"/>
      <use x="359.1796875" xlink:href="#DejaVuSans-23"/>
      <use x="442.96875" xlink:href="#DejaVuSans-31"/>
     </g>
    </g>
    <g id="line2d_51">
     <path d="
M492.499 78.6245
L512.659 78.6245" style="fill:none;stroke:#ff0000;stroke-linecap:square;"/>
    </g>
    <g id="line2d_52"/>
    <g id="text_21">
     <!-- locality#10 -->
     <g transform="translate(528.499375 83.6645)scale(0.144 -0.144)">
      <use xlink:href="#DejaVuSans-6c"/>
      <use x="27.783203125" xlink:href="#DejaVuSans-6f"/>
      <use x="88.96484375" xlink:href="#DejaVuSans-63"/>
      <use x="143.9453125" xlink:href="#DejaVuSans-61"/>
      <use x="205.224609375" xlink:href="#DejaVuSans-6c"/>
      <use x="233.0078125" xlink:href="#DejaVuSans-69"/>
      <use x="260.791015625" xlink:href="#DejaVuSans-74"/>
      <use x="300.0" xlink:href="#DejaVuSans-79"/>
      <use x="359.1796875" xlink:href="#DejaVuSans-23"/>
      <use x="442.96875" xlink:href="#DejaVuSans-31"/>
      <use x="506.591796875" xlink:href="#DejaVuSans-30"/>
     </g>
    </g>
    <g id="line2d_53">
     <path d="
M492.499 99.761
L512.659 99.761" style="fill:none;stroke:#00bfbf;stroke-linecap:square;"/>
    </g>
    <g id="line2d_54"/>
    <g id="text_22">
     <!-- locality#11 -->
     <g transform="translate(528.499375 104.801)scale(0.144 -0.144)">
      <use xlink:href="#DejaVuSans-6c"/>
      <use x="27.783203125" xlink:href="#DejaVuSans-6f"/>
      <use x="88.96484375" xlink:href="#DejaVuSans-63"/>
      <use x="143.9453125" xlink:href="#DejaVuSans-61"/>
      <use x="205.224609375" xlink:href="#DejaVuSans-6c"/>
      <use x="233.0078125" xlink:href="#DejaVuSans-69"/>
      <use x="260.791015625" xlink:href="#DejaVuSans-74"/>
      <use x="300.0" xlink:href="#DejaVuSans-79"/>
      <use x="359.1796875" xlink:href="#DejaVuSans-23"/>
      <use x="442.96875" xlink:href="#DejaVuSans-31"/>
      <use x="506.591796875" xlink:href="#DejaVuSans-31"/>
     </g>
    </g>
    <g id="line2d_55">
     <path d="
M492.499 120.897
L512.659 120.897" style="fill:none;stroke:#bf00bf;stroke-linecap:square;"/>
    </g>
    <g id="line2d_56"/>
    <g id="text_23">
     <!-- locality#12 -->
     <g transform="translate(528.499375 125.9375)scale(0.144 -0.144)">
      <use xlink:href="#DejaVuSans-6c"/>
      <use x="27.783203125" xlink:href="#DejaVuSans-6f"/>
      <use x="88.96484375" xlink:href="#DejaVuSans-63"/>
      <use x="143.9453125" xlink:href="#DejaVuSans-61"/>
      <use x="205.224609375" xlink:href="#DejaVuSans-6c"/>
      <use x="233.0078125" xlink:href="#DejaVuSans-69"/>
      <use x="260.791015625" xlink:href="#DejaVuSans-74"/>
      <use x="300.0" xlink:href="#DejaVuSans-79"/>
      <use x="359.1796875" xlink:href="#DejaVuSans-23"/>
      <use x="442.96875" xlink:href="#DejaVuSans-31"/>
      <use x="506.591796875" xlink:href="#DejaVuSans-32"/>
     </g>
    </g>
    <g id="line2d_57">
     <path d="
M492.499 142.034
L512.659 142.034" style="fill:none;stroke:#bfbf00;stroke-linecap:square;"/>
    </g>
    <g id="line2d_58"/>
    <g id="text_24">
     <!-- locality#13 -->
     <g transform="translate(528.499375 147.074)scale(0.144 -0.144)">
      <use xlink:href="#DejaVuSans-6c"/>
      <use x="27.783203125" xlink:href="#DejaVuSans-6f"/>
      <use x="88.96484375" xlink:href="#DejaVuSans-63"/>
      <use x="143.9453125" xlink:href="#DejaVuSans-61"/>
      <use x="205.224609375" xlink:href="#DejaVuSans-6c"/>
      <use x="233.0078125" xlink:href="#DejaVuSans-69"/>
      <use x="260.791015625" xlink:href="#DejaVuSans-74"/>
      <use x="300.0" xlink:href="#DejaVuSans-79"/>
      <use x="359.1796875" xlink:href="#DejaVuSans-23"/>
      <use x="442.96875" xlink:href="#DejaVuSans-31"/>
      <use x="506.591796875" xlink:href="#DejaVuSans-33"/>
     </g>
    </g>
    <g id="line2d_59">
     <path d="
M492.499 163.17
L512.659 163.17" style="fill:none;stroke:#000000;stroke-linecap:square;"/>
    </g>
    <g id="line2d_60"/>
    <g id="text_25">
     <!-- locality#14 -->
     <g transform="translate(528.499375 168.2105)scale(0.144 -0.144)">
      <use xlink:href="#DejaVuSans-6c"/>
      <use x="27.783203125" xlink:href="#DejaVuSans-6f"/>
      <use x="88.96484375" xlink:href="#DejaVuSans-63"/>
      <use x="143.9453125" xlink:href="#DejaVuSans-61"/>
      <use x="205.224609375" xlink:href="#DejaVuSans-6c"/>
      <use x="233.0078125" xlink:href="#DejaVuSans-69"/>
      <use x="260.791015625" xlink:href="#DejaVuSans-74"/>
      <use x="300.0" xlink:href="#DejaVuSans-79"/>
      <use x="359.1796875" xlink:href="#DejaVuSans-23"/>
      <use x="442.96875" xlink:href="#DejaVuSans-31"/>
      <use x="506.591796875" xlink:href="#DejaVuSans-34"/>
     </g>
    </g>
    <g id="line2d_61">
     <path d="
M492.499 184.307
L512.659 184.307" style="fill:none;stroke:#0000ff;stroke-linecap:square;"/>
    </g>
    <g id="line2d_62"/>
    <g id="text_26">
     <!-- locality#15 -->
     <g transform="translate(528.499375 189.347)scale(0.144 -0.144)">
      <use xlink:href="#DejaVuSans-6c"/>
      <use x="27.783203125" xlink:href="#DejaVuSans-6f"/>
      <use x="88.96484375" xlink:href="#DejaVuSans-63"/>
      <use x="143.9453125" xlink:href="#DejaVuSans-61"/>
      <use x="205.224609375" xlink:href="#DejaVuSans-6c"/>
      <use x="233.0078125" xlink:href="#DejaVuSans-69"/>
      <use x="260.791015625" xlink:href="#DejaVuSans-74"/>
      <use x="300.0" xlink:href="#DejaVuSans-79"/>
      <use x="359.1796875" xlink:href="#DejaVuSans-23"/>
      <use x="442.96875" xlink:href="#DejaVuSans-31"/>
      <use x="506.591796875" xlink:href="#DejaVuSans-35"/>
     </g>
    </g>
    <g id="line2d_63">
     <path d="
M492.499 205.443
L512.659 205.443" style="fill:none;stroke:#008000;stroke-linecap:square;"/>
    </g>
    <g id="line2d_64"/>
    <g id="text_27">
     <!-- locality#2 -->
     <g transform="translate(528.499375 210.4835)scale(0.144 -0.144)">
      <use xlink:href="#DejaVuSans-6c"/>
      <use x="27.783203125" xlink:href="#DejaVuSans-6f"/>
      <use x="88.96484375" xlink:href="#DejaVuSans-63"/>
      <use x="143.9453125" xlink:href="#DejaVuSans-61"/>
      <use x="205.224609375" xlink:href="#DejaVuSans-6c"/>
      <use x="233.0078125" xlink:href="#DejaVuSans-69"/>
      <use x="260.791015625" xlink:href="#DejaVuSans-74"/>
      <use x="300.0" xlink:href="#DejaVuSans-79"/>
      <use x="359.1796875" xlink:href="#DejaVuSans-23"/>
      <use x="442.96875" xlink:href="#DejaVuSans-32"/>
     </g>
    </g>
    <g id="line2d_65">
     <path d="
M492.499 226.58
L512.659 226.58" style="fill:none;stroke:#ff0000;stroke-linecap:square;"/>
    </g>
    <g id="line2d_66"/>
    <g id="text_28">
     <!-- locality#3 -->
     <g transform="translate(528.499375 231.62)scale(0.144 -0.144)">
      <use xlink:href="#DejaVuSans-6c"/>
      <use x="27.783203125" xlink:href="#DejaVuSans-6f"/>
      <use x="88.96484375" xlink:href="#DejaVuSans-63"/>
      <use x="143.9453125" xlink:href="#DejaVuSans-61"/>
      <use x="205.224609375" xlink:href="#DejaVuSans-6c"/>
      <use x="233.0078125" xlink:href="#DejaVuSans-69"/>
      <use x="260.791015625" xlink:href="#DejaVuSans-74"/>
      <use x="300.0" xlink:href="#DejaVuSans-79"/>
      <use x="359.1796875" xlink:href="#DejaVuSans-23"/>
      <use x="442.96875" xlink:href="#DejaVuSans-33"/>
     </g>
    </g>
    <g id="line2d_67">
     <path d="
M492.499 247.716
L512.659 247.716" style="fill:none;stroke:#00bfbf;stroke-linecap:square;"/>
    </g>
    <g id="line2d_68"/>
    <g id="text_29">
     <!-- locality#4 -->
     <g transform="translate(528.499375 252.7565)scale(0.144 -0.144)">
      <use xlink:href="#DejaVuSans-6c"/>
      <use x="27.783203125" xlink:href="#DejaVuSans-6f"/>
      <use x="88.96484375" xlink:href="#DejaVuSans-63"/>
      <use x="143.9453125" xlink:href="#DejaVuSans-61"/>
      <use x="205.224609375" xlink:href="#DejaVuSans-6c"/>
      <use x="233.0078125" xlink:href="#DejaVuSans-69"/>
      <use x="260.791015625" xlink:href="#DejaVuSans-74"/>
      <use x="300.0" xlink:href="#DejaVuSans-79"/>
      <use x="359.1796875" xlink:href="#DejaVuSans-23"/>
      <use x="442.96875" xlink:href="#DejaVuSans-34"/>
     </g>
    </g>
    <g id="line2d_69">
     <path d="
M492.499 268.853
L512.659 268.853" style="fill:none;stroke:#bf00bf;stroke-linecap:square;"/>
    </g>
    <g id="line2d_70"/>
    <g id="text_30">
     <!-- locality#5 -->
     <g transform="translate(528.499375 273.893)scale(0.144 -0.144)">
      <use xlink:href="#DejaVuSans-6c"/>
      <use x="27.783203125" xlink:href="#DejaVuSans-6f"/>
      <use x="88.96484375" xlink:href="#DejaVuSans-63"/>
      <use x="143.9453125" xlink:href="#DejaVuSans-61"/>
      <use x="205.224609375" xlink:href="#DejaVuSans-6c"/>
      <use x="233.0078125" xlink:href="#DejaVuSans-69"/>
      <use x="260.791015625" xlink:href="#DejaVuSans-74"/>
      <use x="300.0" xlink:href="#DejaVuSans-79"/>
      <use x="359.1796875" xlink:href="#DejaVuSans-23"/>
      <use x="442.96875" xlink:href="#DejaVuSans-35"/>
     </g>
    </g>
    <g id="line2d_71">
     <path d="
M492.499 289.989
L512.659 289.989" style="fill:none;stroke:#bfbf00;stroke-linecap:square;"/>
    </g>
    <g id="line2d_72"/>
    <g id="text_31">
     <!-- locality#6 -->
     <g transform="translate(528.499375 295.0295)scale(0.144 -0.144)">
      <use xlink:href="#DejaVuSans-6c"/>
      <use x="27.783203125" xlink:href="#DejaVuSans-6f"/>
      <use x="88.96484375" xlink:href="#DejaVuSans-63"/>
      <use x="143.9453125" xlink:href="#DejaVuSans-61"/>
      <use x="205.224609375" xlink:href="#DejaVuSans-6c"/>
      <use x="233.0078125" xlink:href="#DejaVuSans-69"/>
      <use x="260.791015625" xlink:href="#DejaVuSans-74"/>
      <use x="300.0" xlink:href="#DejaVuSans-79"/>
      <use x="359.1796875" xlink:href="#DejaVuSans-23"/>
      <use x="442.96875" xlink:href="#DejaVuSans-36"/>
     </g>
    </g>
    <g id="line2d_73">
     <path d="
M492.499 311.126
L512.659 311.126" style="fill:none;stroke:#000000;stroke-linecap:square;"/>
    </g>
    <g id="line2d_74"/>
    <g id="text_32">
     <!-- locality#7 -->
     <defs>
      <path d="
M8.20312 72.9062
L55.0781 72.9062
L55.0781 68.7031
L28.6094 0
L18.3125 0
L43.2188 64.5938
L8.20312 64.5938
z
" id="DejaVuSans-37"/>
     </defs>
     <g transform="translate(528.499375 316.166)scale(0.144 -0.144)">
      <use xlink:href="#DejaVuSans-6c"/>
      <use x="27.783203125" xlink:href="#DejaVuSans-6f"/>
      <use x="88.96484375" xlink:href="#DejaVuSans-63"/>
      <use x="143.9453125" xlink:href="#DejaVuSans-61"/>
      <use x="205.224609375" xlink:href="#DejaVuSans-6c"/>
      <use x="233.0078125" xlink:href="#DejaVuSans-69"/>
      <use x="260.791015625" xlink:href="#DejaVuSans-74"/>
      <use x="300.0" xlink:href="#DejaVuSans-79"/>
      <use x="359.1796875" xlink:href="#DejaVuSans-23"/>
      <use x="442.96875" xlink:href="#DejaVuSans-37"/>
     </g>
    </g>
    <g id="line2d_75">
     <path d="
M492.499 332.262
L512.659 332.262" style="fill:none;stroke:#0000ff;stroke-linecap:square;"/>
    </g>
    <g id="line2d_76"/>
    <g id="text_33">
     <!-- locality#8 -->
     <g transform="translate(528.499375 337.3025)scale(0.144 -0.144)">
      <use xlink:href="#DejaVuSans-6c"/>
      <use x="27.783203125" xlink:href="#DejaVuSans-6f"/>
      <use x="88.96484375" xlink:href="#DejaVuSans-63"/>
      <use x="143.9453125" xlink:href="#DejaVuSans-61"/>
      <use x="205.224609375" xlink:href="#DejaVuSans-6c"/>
      <use x="233.0078125" xlink:href="#DejaVuSans-69"/>
      <use x="260.791015625" xlink:href="#DejaVuSans-74"/>
      <use x="300.0" xlink:href="#DejaVuSans-79"/>
      <use x="359.1796875" xlink:href="#DejaVuSans-23"/>
      <use x="442.96875" xlink:href="#DejaVuSans-38"/>
     </g>
    </g>
    <g id="line2d_77">
     <path d="
M492.499 353.399
L512.659 353.399" style="fill:none;stroke:#008000;stroke-linecap:square;"/>
    </g>
    <g id="line2d_78"/>
    <g id="text_34">
     <!-- locality#9 -->
     <defs>
      <path d="
M10.9844 1.51562
L10.9844 10.5
Q14.7031 8.73438 18.5 7.8125
Q22.3125 6.89062 25.9844 6.89062
Q35.75 6.89062 40.8906 13.4531
Q46.0469 20.0156 46.7812 33.4062
Q43.9531 29.2031 39.5938 26.9531
Q35.25 24.7031 29.9844 24.7031
Q19.0469 24.7031 12.6719 31.3125
Q6.29688 37.9375 6.29688 49.4219
Q6.29688 60.6406 12.9375 67.4219
Q19.5781 74.2188 30.6094 74.2188
Q43.2656 74.2188 49.9219 64.5156
Q56.5938 54.8281 56.5938 36.375
Q56.5938 19.1406 48.4062 8.85938
Q40.2344 -1.42188 26.4219 -1.42188
Q22.7031 -1.42188 18.8906 -0.6875
Q15.0938 0.046875 10.9844 1.51562
M30.6094 32.4219
Q37.25 32.4219 41.125 36.9531
Q45.0156 41.5 45.0156 49.4219
Q45.0156 57.2812 41.125 61.8438
Q37.25 66.4062 30.6094 66.4062
Q23.9688 66.4062 20.0938 61.8438
Q16.2188 57.2812 16.2188 49.4219
Q16.2188 41.5 20.0938 36.9531
Q23.9688 32.4219 30.6094 32.4219" id="DejaVuSans-39"/>
     </defs>
     <g transform="translate(528.499375 358.439)scale(0.144 -0.144)">
      <use xlink:href="#DejaVuSans-6c"/>
      <use x="27.783203125" xlink:href="#DejaVuSans-6f"/>
      <use x="88.96484375" xlink:href="#DejaVuSans-63"/>
      <use x="143.9453125" xlink:href="#DejaVuSans-61"/>
      <use x="205.224609375" xlink:href="#DejaVuSans-6c"/>
      <use x="233.0078125" xlink:href="#DejaVuSans-69"/>
      <use x="260.791015625" xlink:href="#DejaVuSans-74"/>
      <use x="300.0" xlink:href="#DejaVuSans-79"/>
      <use x="359.1796875" xlink:href="#DejaVuSans-23"/>
      <use x="442.96875" xlink:href="#DejaVuSans-39"/>
     </g>
    </g>
   </g>
  </g>
 </g>
 <defs>
  <clipPath id="p8c776b0f9c">
   <rect height="345.6" width="446.4" x="28.819375" y="23.14175"/>
  </clipPath>
 </defs>
</svg>
