<?xml version="1.0" encoding="utf-8" standalone="no"?>
<!DOCTYPE svg PUBLIC "-//W3C//DTD SVG 1.1//EN"
  "http://www.w3.org/Graphics/SVG/1.1/DTD/svg11.dtd">
<!-- Created with matplotlib (http://matplotlib.org/) -->
<svg height="408pt" version="1.1" viewBox="0 0 621 408" width="621pt" xmlns="http://www.w3.org/2000/svg" xmlns:xlink="http://www.w3.org/1999/xlink">
 <defs>
  <style type="text/css">
*{stroke-linecap:butt;stroke-linejoin:round;}
  </style>
 </defs>
 <g id="figure_1">
  <g id="patch_1">
   <path d="
M0 408.169
L621.409 408.169
L621.409 0
L0 0
z
" style="fill:#ffffff;"/>
  </g>
  <g id="axes_1">
   <g id="patch_2">
    <path d="
M28.8194 368.742
L475.219 368.742
L475.219 23.1417
L28.8194 23.1417
z
" style="fill:#ffffff;"/>
   </g>
   <g id="line2d_1">
    <path clip-path="url(#p8c776b0f9c)" d="
M28.8194 368.609
L34.375 366.159
L34.9756 365.842
L38.5792 364.375
L39.6303 363.916
L43.6844 362.144
L48.3391 360.131
L49.24 359.654
L54.0448 357.619
L54.6454 357.314
L55.5463 356.923
L62.6034 353.969
L79.7207 346.696
L80.3213 346.369
L82.7237 345.337
L84.6757 344.514
L90.0811 342.198
L90.5316 341.95
L103.144 336.696
L105.096 335.874
L109.15 334.071
L111.703 332.93
L113.805 332.073
L119.961 329.44
L121.763 328.645
L128.97 325.543
L130.172 325.036
L133.024 323.817
L141.883 319.963
L142.934 319.483
L147.589 317.517
L152.094 315.545
L152.694 315.264
L163.055 310.885
L163.505 310.6
L171.013 307.399
L177.92 304.447
L181.673 302.879
L200.893 294.51
L202.545 293.774
L211.554 289.814
L213.205 289.107
L215.458 288.15
L218.31 286.898
L249.842 273.269
L250.593 272.841
L255.998 270.511
L262.305 267.652
L262.755 267.409
L277.32 260.52
L278.521 259.985
L293.536 252.885
L295.638 251.798
L297.59 250.884
L298.041 250.626
L300.593 249.436
L302.996 248.34
L304.798 247.474
L306.9 246.475
L309.302 245.384
L325.518 237.689
L327.32 236.814
L328.221 236.347
L328.972 235.922
L329.723 235.557
L331.525 234.685
L337.531 231.778
L342.335 229.594
L345.789 227.962
L349.242 226.372
L350.744 225.594
L352.696 224.662
L353.296 224.369
L356.45 222.932
L357.05 222.577
L358.251 221.997
L361.405 220.491
L362.155 220.132
L363.807 219.314
L364.708 218.771
L366.059 218.059
L367.261 217.43
L368.462 216.869
L370.113 216.046
L371.465 215.37
L374.318 214.049
L379.123 211.493
L379.573 211.139
L380.774 210.534
L382.126 209.852
L383.777 209.033
L385.129 208.365
L398.042 201.81
L399.393 201.112
L400.594 200.477
L404.198 198.69
L404.498 198.484
L405.549 197.92
L406.45 197.437
L457.652 172.506
L459.604 171.546
L461.405 170.68
L462.006 170.387
L463.207 169.788
L463.958 169.382
L465.309 168.722
L465.91 168.355
L469.514 166.679
L470.865 165.984
L473.718 164.559
L475.219 163.818
L475.219 163.818" style="fill:none;stroke:#0000ff;stroke-linecap:square;"/>
   </g>
   <g id="line2d_2">
    <path clip-path="url(#p8c776b0f9c)" d="
M28.8194 368.734
L28.9695 368.586
L29.1197 368.546
L30.1707 368.17
L32.2729 367.548
L34.375 366.95
L37.5282 366.031
L42.6333 364.449
L45.1859 363.624
L49.8406 362.156
L50.5913 361.854
L51.9427 361.436
L53.294 360.992
L55.9968 360.138
L57.7986 359.549
L60.3512 358.71
L75.3663 353.687
L77.018 353.165
L78.8198 352.529
L85.2763 350.554
L88.2793 349.468
L93.6848 347.774
L95.0361 347.334
L97.5887 346.481
L99.6908 345.78
L101.793 345.147
L104.346 344.279
L104.946 344.053
L108.4 342.967
L110.051 342.46
L119.21 339.592
L119.961 339.328
L123.715 338.135
L124.766 337.609
L133.175 334.978
L135.277 334.263
L138.43 333.155
L139.781 332.681
L141.433 332.174
L143.385 331.573
L147.589 330.22
L148.04 330.036
L149.541 329.511
L150.142 329.283
L151.943 328.742
L160.052 326.097
L161.253 325.647
L163.805 324.86
L164.857 324.515
L170.112 322.803
L171.613 322.264
L173.115 321.789
L179.271 319.7
L180.472 319.321
L193.085 315.291
L194.286 314.883
L204.797 311.484
L205.397 311.259
L208.4 310.202
L210.953 309.304
L212.605 308.762
L216.659 307.449
L218.611 306.706
L225.217 304.463
L225.518 304.126
L231.674 302.186
L233.175 301.684
L238.581 299.939
L240.683 299.199
L241.884 298.752
L246.239 297.243
L247.139 296.919
L269.962 288.978
L270.413 288.763
L271.014 288.516
L273.866 287.548
L274.317 287.333
L276.269 286.634
L277.47 286.215
L280.773 285.025
L281.224 284.844
L284.527 283.764
L287.53 282.692
L288.731 282.279
L292.485 281.051
L295.939 279.742
L298.942 278.724
L308.101 275.409
L310.804 274.514
L311.254 274.308
L313.657 273.491
L314.557 273.063
L315.608 272.636
L317.11 272.047
L342.035 263.105
L344.888 262.138
L346.089 261.681
L350.444 260.234
L352.546 259.502
L355.999 258.379
L357.05 258.017
L364.408 255.408
L366.96 254.515
L368.762 253.924
L372.366 252.709
L374.318 252.047
L376.57 251.25
L378.222 250.669
L380.474 249.874
L380.924 249.668
L385.279 247.976
L385.729 247.765
L388.582 246.643
L394.588 244.054
L398.492 242.539
L398.942 242.339
L401.195 241.569
L406 239.985
L407.051 239.549
L409.453 238.624
L412.156 237.701
L415.009 236.612
L418.462 235.471
L419.814 234.955
L420.714 234.642
L424.618 233.355
L443.537 226.59
L446.39 225.538
L448.192 224.912
L449.093 224.539
L459.754 220.427
L462.457 219.497
L472.216 216.215
L475.219 215.253
L475.219 215.253" style="fill:none;stroke:#008000;stroke-linecap:square;"/>
   </g>
   <g id="line2d_3">
    <path clip-path="url(#p8c776b0f9c)" d="
M28.8194 368.737
L28.9695 368.519
L29.1197 368.448
L31.8224 367.215
L36.1768 365.145
L36.4771 364.777
L37.0777 364.426
L38.1288 363.859
L38.8795 363.455
L45.4862 359.764
L45.9366 359.452
L51.9427 356.049
L52.6934 355.54
L54.4953 354.532
L54.6454 353.537
L55.0959 353.236
L60.9518 350.059
L62.7536 349.014
L67.4083 346.382
L71.0119 344.376
L72.3633 343.58
L73.2642 343.056
L75.8168 341.565
L78.5195 340.058
L84.8258 336.569
L85.5766 336.162
L87.3784 335.125
L93.3845 331.802
L94.7358 331.101
L119.811 317.303
L120.562 316.898
L127.919 312.927
L128.97 312.269
L132.874 310.096
L133.475 309.733
L137.979 307.161
L138.73 306.742
L139.631 306.247
L140.082 305.972
L146.538 302.368
L149.541 300.576
L163.355 292.978
L164.706 292.205
L168.16 290.301
L169.061 289.758
L179.421 283.993
L181.673 282.768
L186.328 280.233
L187.379 279.692
L199.842 272.736
L201.644 271.682
L203.445 270.709
L204.797 269.938
L206.899 268.707
L208.701 267.686
L228.671 256.36
L229.872 255.692
L232.725 254.009
L233.926 253.361
L242.635 248.435
L243.836 247.759
L248.341 245.222
L248.941 244.856
L250.593 243.924
L255.998 240.842
L258.701 239.176
L267.71 233.925
L271.314 231.776
L279.422 227.114
L282.125 225.571
L292.785 219.271
L293.386 218.87
L295.939 217.403
L296.99 216.757
L300.593 214.608
L301.344 214.154
L305.548 211.831
L307.951 210.421
L312.455 207.758
L313.807 206.914
L316.509 205.322
L318.461 204.116
L320.563 202.841
L321.164 202.457
L323.717 200.936
L325.368 199.953
L333.927 194.936
L339.182 191.877
L340.233 191.216
L344.287 188.801
L345.188 188.246
L350.444 185.084
L352.846 183.613
L353.447 183.159
L355.098 182.159
L357.651 180.654
L358.702 180.022
L363.507 177.118
L368.011 174.417
L369.513 173.539
L374.168 170.738
L376.42 169.308
L379.273 167.478
L380.023 166.956
L383.477 164.652
L383.927 164.333
L385.729 163.175
L386.93 162.357
L388.282 161.459
L388.732 161.086
L390.084 160.191
L396.54 155.626
L396.991 155.263
L400.594 152.938
L405.699 149.942
L413.657 144.937
L415.159 144.031
L417.111 142.714
L417.561 142.389
L427.021 136.589
L429.423 135.155
L432.426 133.321
L436.18 131.088
L444.739 125.71
L445.339 125.309
L447.441 123.944
L451.796 120.931
L452.997 120.086
L456.601 117.867
L471.916 108.743
L472.667 108.238
L474.919 106.875
L475.219 106.681
L475.219 106.681" style="fill:none;stroke:#ff0000;stroke-linecap:square;"/>
   </g>
   <g id="line2d_4">
    <path clip-path="url(#p8c776b0f9c)" d="
M28.8194 368.734
L29.8704 368.157
L32.1227 367.086
L34.2248 365.97
L36.9275 364.685
L39.4801 363.364
L40.5312 362.809
L44.5853 360.566
L47.5883 358.886
L48.6394 358.322
L51.1919 356.832
L52.8436 355.899
L77.7687 342.288
L80.021 341.032
L80.9219 340.554
L82.5736 339.53
L84.0751 338.767
L89.3304 335.928
L89.931 335.546
L95.1863 332.681
L98.7899 330.674
L102.844 328.31
L103.745 327.818
L111.252 323.725
L111.553 323.415
L115.757 321.167
L116.358 320.801
L117.709 320.062
L122.664 317.352
L124.165 316.546
L127.469 314.704
L129.12 313.725
L136.027 309.891
L137.229 309.267
L139.331 308.03
L140.082 307.659
L140.682 307.268
L146.388 304.039
L147.889 303.121
L149.992 301.906
L152.394 300.581
L153.745 299.879
L157.049 298.056
L164.106 294.296
L165.607 293.405
L166.808 292.764
L169.061 291.455
L169.962 290.908
L177.92 286.484
L178.37 286.164
L181.073 284.625
L182.424 283.805
L188.43 280.504
L189.181 280.085
L193.385 277.765
L196.689 275.932
L200.743 273.718
L217.56 264.358
L220.863 262.488
L221.614 262.051
L226.419 259.46
L227.47 258.888
L229.422 257.845
L229.872 257.578
L231.524 256.646
L240.983 251.485
L241.884 250.919
L245.638 248.8
L249.692 246.521
L250.593 245.988
L251.494 245.434
L253.146 244.519
L258.401 241.418
L268.761 235.305
L270.413 234.315
L275.518 231.308
L297.14 218.801
L298.942 217.716
L300.743 216.548
L301.795 215.881
L308.401 212.048
L309.602 211.301
L311.254 210.326
L313.056 209.301
L313.206 208.807
L316.359 206.966
L317.11 206.481
L318.762 205.431
L319.362 205.06
L320.263 204.446
L322.065 203.356
L324.467 201.893
L324.768 201.646
L325.669 201.022
L341.735 191.328
L343.537 190.238
L343.837 189.951
L345.038 189.15
L346.84 188.091
L355.549 183.093
L356.149 182.7
L359.002 181.053
L361.855 179.313
L363.056 178.605
L364.558 177.674
L367.11 176.195
L370.113 174.399
L371.315 173.664
L372.816 172.721
L376.42 170.502
L378.522 169.223
L383.627 165.936
L384.077 165.625
L386.63 164.108
L397.741 156.745
L398.792 156.061
L400.294 155.123
L400.894 154.735
L402.546 153.746
L402.997 153.423
L404.648 152.456
L406 151.617
L407.201 150.916
L409.003 149.831
L422.516 141.31
L425.219 139.703
L427.471 138.236
L431.375 135.955
L431.826 135.606
L435.579 133.29
L438.432 131.581
L438.883 131.228
L440.835 129.936
L443.237 128.3
L444.588 127.448
L445.339 126.945
L446.24 126.33
L447.592 125.478
L449.093 124.525
L451.045 123.178
L451.946 122.569
L454.348 121.012
L455.099 120.545
L457.802 118.98
L459.303 118.019
L461.405 116.772
L475.219 108.499
L475.219 108.499" style="fill:none;stroke:#00bfbf;stroke-linecap:square;"/>
   </g>
   <g id="line2d_5">
    <path clip-path="url(#p8c776b0f9c)" d="
M28.8194 368.736
L28.9695 368.578
L29.1197 368.513
L39.33 364.291
L61.7025 353.737
L62.153 353.485
L68.6095 350.466
L70.2612 349.73
L79.2702 345.656
L85.8769 342.704
L86.4775 342.41
L87.3784 341.954
L94.5857 338.664
L103.445 334.478
L106.748 332.933
L109.901 331.529
L113.355 329.909
L129.571 322.286
L131.223 321.511
L133.625 320.417
L143.835 315.72
L145.937 314.701
L175.217 300.915
L177.169 300.024
L206.899 285.954
L209.451 284.693
L211.103 283.861
L211.854 283.405
L215.007 281.912
L220.413 279.27
L226.118 276.546
L227.169 276.045
L228.07 275.572
L237.53 271.069
L241.434 269.101
L244.287 267.754
L245.037 267.349
L246.389 266.687
L251.194 264.28
L251.794 263.954
L260.052 259.728
L260.353 259.498
L265.908 256.678
L267.56 255.791
L270.563 254.194
L271.914 253.411
L274.017 252.299
L274.917 251.814
L276.719 250.858
L277.62 250.347
L278.821 249.686
L283.176 247.488
L287.23 245.449
L292.485 242.734
L293.837 241.975
L298.491 239.585
L299.542 239.057
L301.644 237.987
L303.596 236.952
L306.299 235.594
L307.801 234.809
L310.353 233.551
L312.906 232.263
L313.807 231.789
L315.008 231.184
L317.56 229.879
L320.263 228.491
L329.723 223.56
L334.978 220.863
L338.431 219.114
L343.236 216.669
L345.639 215.322
L349.693 213.271
L350.293 212.918
L353.597 211.218
L382.426 195.651
L385.879 193.71
L387.981 192.552
L390.234 191.24
L391.735 190.379
L392.786 189.771
L394.288 188.913
L396.24 187.716
L399.843 185.608
L426.12 171.817
L429.273 170.206
L430.925 169.354
L433.627 167.96
L448.793 159.694
L452.396 157.692
L454.198 156.707
L456 155.752
L458.703 154.351
L461.255 152.961
L463.658 151.665
L469.664 148.556
L470.415 148.145
L473.267 146.7
L473.718 146.412
L475.219 145.645
L475.219 145.645" style="fill:none;stroke:#bf00bf;stroke-linecap:square;"/>
   </g>
   <g id="line2d_6">
    <path clip-path="url(#p8c776b0f9c)" d="
M28.8194 368.737
L30.0206 368.265
L36.7774 365.556
L38.4291 364.773
L40.6813 363.839
L49.8406 359.672
L53.5943 357.95
L54.4953 357.513
L61.7025 354.294
L62.4533 353.957
L63.8046 353.362
L74.0149 348.798
L80.1711 346.125
L80.6216 345.843
L86.1772 343.413
L87.3784 342.883
L90.2313 341.633
L108.7 333.476
L109.15 333.237
L111.553 332.084
L117.859 329.256
L118.61 328.869
L119.961 328.241
L124.316 326.251
L130.472 323.401
L131.223 323.001
L132.724 322.351
L133.925 321.822
L138.58 319.757
L138.88 319.526
L174.466 303.623
L175.968 302.978
L191.884 295.803
L192.635 295.454
L194.136 294.772
L206.148 289.415
L243.986 271.692
L245.037 271.205
L252.094 267.84
L253.296 267.181
L279.422 253.901
L279.572 252.184
L281.074 251.46
L284.077 249.991
L285.578 249.223
L287.83 248.154
L288.281 247.898
L290.834 246.658
L292.485 245.823
L293.987 245.021
L296.539 243.755
L298.041 243.005
L301.945 241.076
L321.915 231.276
L323.266 230.618
L324.918 229.838
L326.419 229.053
L326.87 228.782
L329.272 227.578
L332.726 225.854
L334.227 225.154
L336.93 223.829
L340.684 221.885
L342.185 221.09
L343.086 220.603
L345.939 219.212
L346.99 218.667
L348.792 217.796
L350.444 216.945
L351.945 216.225
L356.299 214.138
L359.303 212.601
L371.765 206.361
L378.672 202.74
L380.624 201.703
L381.074 201.416
L383.777 200.017
L386.63 198.501
L388.132 197.703
L400.894 190.915
L405.549 188.705
L409.603 186.608
L410.204 186.202
L414.859 183.761
L420.264 180.901
L422.666 179.709
L423.567 179.261
L424.018 178.956
L424.468 178.685
L426.27 177.772
L426.72 177.517
L430.174 175.866
L431.826 175.071
L433.778 174.096
L434.378 173.697
L435.88 172.908
L440.234 170.63
L441.886 169.686
L454.799 162.712
L458.102 161.136
L459.303 160.516
L462.457 158.947
L475.219 152.544
L475.219 152.544" style="fill:none;stroke:#bfbf00;stroke-linecap:square;"/>
   </g>
   <g id="line2d_7">
    <path clip-path="url(#p8c776b0f9c)" d="
M28.8194 368.735
L29.42 368.48
L34.375 366.818
L35.426 366.456
L36.3269 366.062
L43.3841 363.263
L61.2521 356.2
L61.8527 355.881
L64.7056 354.796
L65.4563 354.45
L86.027 346.221
L87.3784 345.624
L89.3304 344.801
L91.1322 344.031
L99.0902 340.906
L100.291 340.421
L105.547 338.323
L141.433 324.077
L142.484 323.636
L153.895 318.928
L154.346 318.704
L174.616 310.503
L177.92 309.169
L180.022 308.286
L186.328 305.81
L188.28 304.995
L199.541 300.496
L200.593 300.073
L235.277 285.805
L240.383 283.642
L245.638 281.49
L249.842 279.641
L250.893 279.078
L253.296 278.053
L257.95 275.941
L260.953 274.603
L263.056 273.704
L265.308 272.685
L265.908 272.407
L268.311 271.346
L269.812 270.693
L272.665 269.462
L273.716 269.016
L278.521 266.915
L279.122 266.627
L279.872 266.28
L292.035 261.094
L292.936 260.698
L296.99 258.982
L298.491 258.289
L302.245 256.684
L303.446 256.18
L313.957 251.369
L318.461 249.381
L319.512 248.939
L319.813 248.704
L334.528 242.138
L339.182 240.193
L340.083 239.801
L342.936 238.541
L349.092 235.623
L349.843 235.294
L351.945 234.442
L359.002 231.557
L361.104 230.595
L362.155 230.073
L363.056 229.625
L365.309 228.601
L366.209 228.179
L368.612 227.115
L369.062 226.827
L372.065 225.31
L375.219 223.97
L375.819 223.649
L378.522 222.347
L379.723 221.727
L381.675 220.849
L382.576 220.42
L384.528 219.527
L387.831 217.964
L389.183 217.302
L402.997 210.719
L405.249 209.715
L406 209.326
L409.303 207.886
L411.105 207.061
L418.312 203.72
L421.015 202.531
L422.666 201.742
L424.168 201.094
L424.618 200.832
L426.871 199.807
L428.973 198.885
L430.324 198.182
L432.576 197.207
L433.327 196.819
L436.48 195.475
L437.531 194.967
L442.486 192.709
L450.294 189.049
L452.847 187.854
L454.949 186.782
L462.306 183.376
L463.057 183.03
L466.811 181.3
L468.913 180.335
L471.315 179.262
L473.117 178.42
L475.219 177.513
L475.219 177.513" style="fill:none;stroke:#000000;stroke-linecap:square;"/>
   </g>
   <g id="line2d_8">
    <path clip-path="url(#p8c776b0f9c)" d="
M28.8194 368.737
L30.6212 368.192
L33.9245 367.254
L34.2248 367.021
L37.5282 365.994
L42.333 364.299
L42.6333 364.106
L45.336 363.071
L46.0868 362.777
L57.9487 358.695
L60.5013 357.811
L63.0539 356.938
L87.3784 348.476
L88.4295 348.107
L90.3814 347.446
L110.652 340.531
L111.102 340.331
L112.904 339.727
L123.114 336.217
L124.616 335.657
L131.523 333.303
L132.274 333.002
L134.075 332.405
L158.4 323.822
L159.001 323.568
L164.706 321.555
L165.007 321.37
L166.508 320.838
L168.01 320.311
L169.211 319.841
L172.364 318.778
L175.667 317.563
L178.22 316.737
L194.887 311.028
L196.238 310.543
L203.145 308.042
L203.896 307.769
L205.548 307.209
L207.499 306.464
L210.503 305.353
L211.253 305.056
L213.055 304.363
L214.256 303.942
L227.77 299.117
L234.226 296.789
L235.127 296.46
L237.229 295.717
L246.389 292.439
L249.842 291.12
L250.743 290.765
L252.245 290.187
L252.395 289.753
L254.347 289.025
L291.134 275.17
L298.792 272.399
L299.542 272.095
L303.296 270.573
L306.9 269.246
L307.35 269.006
L309.753 268.069
L312.155 267.169
L319.062 264.552
L322.666 263.143
L326.269 261.77
L331.374 259.818
L332.425 259.4
L334.828 258.449
L336.329 257.867
L347.741 253.614
L348.642 253.263
L351.044 252.293
L354.047 251.133
L354.498 250.925
L358.402 249.473
L364.858 247.077
L366.66 246.392
L371.915 244.447
L373.116 243.944
L376.42 242.692
L378.071 242.064
L384.828 239.3
L385.429 239.007
L399.243 233.261
L402.696 231.938
L403.897 231.479
L415.609 226.954
L416.51 226.598
L421.465 224.701
L425.369 223.223
L430.775 221.214
L431.525 220.922
L436.931 218.811
L439.483 217.801
L440.234 217.444
L442.486 216.529
L442.937 216.299
L444.588 215.575
L459.003 209.734
L461.556 208.75
L462.457 208.411
L466.511 206.911
L467.412 206.505
L475.219 203.599
L475.219 203.599" style="fill:none;stroke:#0000ff;stroke-linecap:square;"/>
   </g>
   <g id="line2d_9">
    <path clip-path="url(#p8c776b0f9c)" d="
M28.8194 368.736
L29.7203 368.507
L30.0206 368.247
L33.7744 367.284
L35.8765 366.7
L36.4771 366.529
L37.8285 366.114
L47.1378 363.44
L48.9397 362.874
L50.1409 362.47
L52.243 361.86
L57.3481 360.278
L58.0989 359.993
L60.201 359.4
L66.0569 357.62
L67.108 357.313
L68.4593 356.898
L78.3693 353.936
L79.2702 353.672
L82.7237 352.72
L84.0751 352.313
L86.1772 351.668
L87.8289 351.162
L104.796 346.182
L106.598 345.632
L113.805 343.473
L117.709 342.267
L123.565 340.493
L124.165 340.297
L130.622 338.293
L132.874 337.62
L134.526 337.029
L137.679 336.052
L140.982 335.018
L141.883 334.729
L171.613 325.888
L172.214 325.693
L175.818 324.568
L176.118 324.406
L179.271 323.47
L183.325 322.219
L183.926 322.029
L196.989 318.021
L197.89 317.704
L205.848 315.169
L207.049 314.776
L208.4 314.303
L221.013 310.451
L250.443 301.605
L251.194 301.349
L255.998 299.821
L256.749 299.541
L259.902 298.583
L260.503 298.316
L274.317 293.919
L275.818 293.412
L279.422 292.32
L283.176 291.122
L286.029 290.262
L300.743 285.593
L302.095 285.066
L304.647 284.294
L312.005 281.975
L312.906 281.612
L322.515 278.496
L323.266 278.24
L325.518 277.474
L335.579 274.155
L336.029 273.95
L339.483 272.848
L340.684 272.456
L343.987 271.379
L344.738 271.121
L353.146 268.491
L356.9 267.28
L360.804 266.069
L361.405 265.812
L364.858 264.718
L366.66 264.157
L368.912 263.455
L369.213 263.287
L371.915 262.388
L373.116 261.952
L376.119 260.963
L381.975 259.079
L385.879 257.738
L387.831 257.076
L388.432 256.842
L393.987 254.878
L401.195 252.451
L405.249 251.169
L406.15 250.868
L407.952 250.24
L408.852 249.921
L410.204 249.435
L413.657 248.288
L414.408 248.013
L417.711 246.948
L420.865 245.94
L426.871 244.097
L434.378 241.8
L434.979 241.588
L448.042 237.163
L456.45 234.344
L460.204 233.149
L460.955 232.903
L464.559 231.736
L465.309 231.488
L469.063 230.316
L470.415 229.844
L472.066 229.331
L474.769 228.452
L475.219 228.293
L475.219 228.293" style="fill:none;stroke:#008000;stroke-linecap:square;"/>
   </g>
   <g id="line2d_10">
    <path clip-path="url(#p8c776b0f9c)" d="
M28.8194 368.737
L39.7804 365.499
L47.5883 362.913
L48.6394 362.555
L51.3421 361.703
L58.8496 359.078
L63.8046 357.353
L64.5554 357.086
L66.0569 356.536
L66.9578 356.174
L70.2612 355.067
L70.5615 354.869
L77.3183 352.653
L77.6186 352.404
L79.1201 351.906
L80.021 351.604
L83.024 350.544
L84.976 349.933
L88.1292 348.938
L92.0331 347.536
L93.5346 347.049
L101.643 344.382
L102.243 344.137
L108.249 342.028
L109.301 341.683
L110.652 341.213
L121.913 337.414
L125.517 336.219
L126.568 335.836
L128.22 335.21
L128.82 334.979
L130.172 334.522
L134.226 333.173
L142.484 330.423
L143.535 330.068
L148.79 328.336
L149.091 328.156
L150.442 327.706
L159.902 324.505
L164.256 323.04
L177.469 318.592
L178.971 318.096
L183.625 316.614
L186.478 315.595
L187.079 315.384
L190.532 314.216
L192.935 313.387
L195.938 312.328
L196.538 312.104
L197.89 311.634
L199.692 311.042
L203.295 309.796
L204.496 309.37
L214.106 305.901
L215.458 305.434
L246.389 294.725
L247.74 294.225
L251.194 293.024
L257.35 290.822
L258.401 290.453
L263.356 288.762
L264.707 288.192
L269.062 286.645
L269.962 286.313
L275.518 284.366
L276.269 284.097
L279.872 282.872
L282.425 282.008
L285.428 280.953
L286.479 280.596
L309.602 272.241
L310.053 272.031
L313.056 270.939
L314.107 270.52
L318.461 268.997
L322.065 267.647
L322.816 267.319
L325.669 266.292
L326.119 266.098
L330.774 264.383
L336.48 262.365
L337.08 262.118
L341.435 260.615
L358.552 254.533
L362.756 253.075
L367.411 251.357
L372.065 249.733
L373.717 249.162
L375.819 248.382
L383.026 245.548
L386.18 244.37
L388.282 243.598
L388.882 243.356
L390.084 242.882
L390.834 242.555
L392.936 241.677
L401.495 238.431
L406.15 236.827
L408.252 236.011
L410.204 235.314
L413.357 234.165
L414.859 233.533
L416.961 232.743
L418.612 232.098
L421.315 231.107
L424.018 230.131
L428.372 228.638
L431.675 227.476
L432.877 227.064
L437.231 225.569
L438.582 225.051
L441.285 224.091
L442.036 223.811
L449.393 221.054
L449.844 220.851
L450.895 220.398
L456.601 218.224
L457.351 217.945
L459.604 217.148
L463.958 215.584
L465.76 214.963
L469.363 213.684
L470.865 213.095
L472.667 212.391
L474.619 211.653
L475.219 211.442
L475.219 211.442" style="fill:none;stroke:#ff0000;stroke-linecap:square;"/>
   </g>
   <g id="line2d_11">
    <path clip-path="url(#p8c776b0f9c)" d="
M28.8194 368.736
L29.42 368.524
L29.8704 368.277
L30.9215 367.946
L34.9756 366.691
L36.0266 366.346
L37.6783 365.77
L41.7324 364.348
L42.0327 364.071
L43.6844 363.494
L45.4862 362.795
L47.8886 361.914
L48.1889 361.727
L52.8436 360.084
L53.294 359.883
L56.2971 358.766
L57.7986 358.204
L61.7025 356.807
L65.6065 355.361
L67.4083 354.705
L73.2642 352.597
L74.4654 352.166
L86.4775 347.861
L88.4295 347.181
L94.886 344.818
L95.937 344.412
L103.445 341.713
L104.346 341.383
L132.124 331.547
L134.075 330.86
L134.676 330.588
L137.079 329.777
L149.391 325.292
L151.043 324.718
L151.643 324.468
L153.295 323.869
L155.847 322.851
L157.499 322.185
L159.001 321.633
L174.316 316.159
L175.217 315.812
L177.169 315.132
L190.532 310.276
L191.133 310.028
L198.19 307.419
L198.641 307.219
L200.292 306.612
L207.65 303.896
L208.25 303.643
L220.713 298.991
L225.818 297.164
L227.47 296.571
L230.022 295.649
L236.929 293.11
L237.53 292.85
L243.986 290.425
L245.488 289.831
L247.89 288.932
L248.491 288.673
L256.449 285.568
L258.401 284.802
L259.902 284.202
L261.854 283.415
L262.605 283.118
L265.908 281.864
L270.263 280.15
L270.563 279.946
L274.167 278.555
L317.26 262.087
L319.813 261.093
L321.164 260.593
L328.071 258.062
L331.074 256.85
L333.176 255.999
L333.927 255.697
L336.329 254.726
L343.236 252.093
L345.789 251.083
L347.891 250.298
L360.804 245.412
L365.909 243.523
L367.261 242.939
L371.915 241.176
L372.366 240.947
L392.336 232.595
L393.537 232.02
L394.288 231.623
L395.339 231.137
L396.991 230.426
L399.543 229.341
L411.405 224.966
L419.814 221.715
L425.069 219.76
L427.772 218.726
L432.426 216.965
L433.778 216.415
L436.781 215.226
L437.231 215.016
L441.135 213.532
L443.537 212.531
L447.592 210.838
L449.844 209.821
L450.895 209.329
L460.054 205.777
L462.757 204.704
L463.508 204.337
L467.562 202.802
L468.463 202.455
L472.366 200.96
L473.267 200.592
L475.219 199.854
L475.219 199.854" style="fill:none;stroke:#00bfbf;stroke-linecap:square;"/>
   </g>
   <g id="line2d_12">
    <path clip-path="url(#p8c776b0f9c)" d="
M28.8194 368.737
L29.2698 368.493
L37.5282 365.616
L76.2672 349.689
L98.9401 340.519
L100.892 339.72
L106.598 337.41
L107.048 337.187
L110.352 335.786
L112.304 334.942
L118.76 332.486
L119.661 332.102
L123.265 330.627
L124.766 329.974
L132.424 326.916
L133.175 326.574
L141.283 323.28
L142.484 322.759
L153.895 318.178
L154.496 317.916
L157.649 316.598
L158.7 316.174
L160.652 315.442
L170.562 311.447
L177.77 308.641
L179.121 308.116
L179.721 307.81
L210.352 295.079
L225.067 288.874
L226.719 288.178
L227.319 287.916
L230.773 286.513
L231.374 286.22
L239.031 282.997
L240.683 282.278
L242.635 281.371
L243.686 280.936
L245.638 280.1
L246.088 279.872
L248.941 278.614
L249.992 278.161
L251.344 277.547
L267.11 270.959
L268.161 270.461
L271.464 269.03
L273.266 268.22
L278.071 266.19
L281.674 264.595
L282.875 264.038
L288.131 261.842
L289.782 261.077
L292.936 259.704
L294.137 259.186
L304.798 254.82
L308.101 253.445
L313.056 251.363
L313.657 251.087
L314.858 250.569
L315.158 250.357
L317.41 249.348
L321.615 247.476
L325.819 245.634
L331.224 243.366
L332.425 242.835
L336.93 240.867
L339.032 239.786
L341.585 238.699
L347.741 236.031
L348.642 235.605
L351.495 234.342
L363.507 229.184
L367.861 227.211
L374.168 224.188
L378.672 221.869
L380.174 221.141
L380.774 220.724
L381.375 220.331
L383.927 218.827
L384.528 218.446
L384.828 218.165
L386.48 217.145
L390.234 214.563
L391.285 213.914
L392.486 213.01
L393.387 212.489
L395.339 211.005
L395.789 210.729
L396.09 210.427
L396.54 210.101
L396.991 209.653
L402.997 206.883
L408.102 204.674
L410.354 203.462
L412.907 202.298
L413.807 201.84
L416.81 200.48
L418.762 199.662
L420.865 198.711
L421.315 198.472
L425.519 196.66
L427.021 196.016
L432.727 193.592
L434.078 192.965
L436.03 192.087
L438.132 191.159
L441.886 189.537
L456.3 182.449
L459.003 181.193
L460.655 180.397
L463.508 179.029
L464.709 178.443
L466.811 177.391
L469.664 175.72
L470.565 175.198
L471.015 174.808
L471.315 174.561
L473.117 173.422
L474.018 172.556
L475.219 171.692
L475.219 171.692" style="fill:none;stroke:#bf00bf;stroke-linecap:square;"/>
   </g>
   <g id="line2d_13">
    <path clip-path="url(#p8c776b0f9c)" d="
M28.8194 368.732
L28.9695 368.488
L29.1197 368.418
L34.0747 366.544
L36.4771 365.617
L37.378 365.191
L39.4801 364.265
L43.6844 362.354
L45.1859 361.701
L47.288 360.675
L48.4892 360.111
L50.291 359.282
L55.8466 356.703
L62.7536 353.53
L63.3542 353.224
L64.8557 352.573
L65.6065 352.159
L67.2581 351.426
L79.5705 345.805
L80.7717 345.173
L82.2733 344.51
L91.5826 340.243
L92.1832 339.9
L93.0842 339.462
L94.4355 338.87
L104.796 334.273
L106.898 333.383
L128.069 323.841
L131.823 322.094
L152.995 312.56
L153.445 312.309
L154.646 311.771
L163.205 307.925
L163.655 307.69
L166.058 306.509
L170.712 304.417
L175.818 302.1
L176.869 301.606
L178.52 300.9
L179.872 300.283
L202.244 290.105
L208.1 287.404
L210.202 286.405
L215.307 284.111
L224.016 280.033
L225.968 279.216
L232.124 276.407
L232.725 276.058
L234.377 275.339
L237.83 273.744
L242.485 271.494
L243.085 271.187
L244.437 270.554
L251.494 267.125
L253.296 266.253
L255.548 265.189
L258.251 263.887
L283.476 251.812
L286.329 250.457
L287.68 249.763
L290.383 248.467
L291.584 247.892
L294.437 246.491
L296.089 245.677
L299.692 243.957
L300.443 243.535
L303.446 242.009
L311.855 237.97
L317.11 235.462
L318.612 234.764
L325.518 231.534
L326.72 230.954
L328.071 230.225
L330.473 229.071
L334.528 227.109
L335.879 226.395
L339.783 224.534
L340.984 223.958
L343.537 222.687
L344.888 221.984
L355.248 217.062
L357.05 216.232
L360.954 214.338
L362.756 213.482
L365.759 212.01
L368.762 210.527
L372.516 208.684
L375.219 207.353
L376.119 206.878
L376.42 206.661
L378.822 205.438
L381.675 203.895
L384.228 202.608
L385.579 201.83
L387.081 201.057
L388.432 200.329
L398.192 194.84
L398.792 194.469
L399.543 194.066
L407.201 190.273
L413.207 187.061
L413.657 186.769
L415.009 186.043
L418.012 184.575
L418.612 184.263
L421.465 182.843
L423.117 181.971
L427.772 179.696
L428.973 179.121
L433.477 176.957
L435.579 175.914
L439.934 173.795
L442.486 172.418
L443.688 171.748
L443.988 171.529
L445.039 170.938
L449.393 168.601
L450.294 168.061
L458.102 163.885
L463.207 161.357
L465.309 160.159
L469.514 157.953
L475.219 154.452
L475.219 154.452" style="fill:none;stroke:#bfbf00;stroke-linecap:square;"/>
   </g>
   <g id="line2d_14">
    <path clip-path="url(#p8c776b0f9c)" d="
M28.8194 368.737
L29.42 368.437
L30.471 367.921
L32.2729 367.068
L33.3239 366.529
L35.5762 365.56
L37.5282 364.703
L38.4291 364.254
L39.7804 363.61
L41.5822 362.688
L43.2339 361.923
L43.8345 361.595
L51.0418 358
L53.294 356.915
L60.8016 352.997
L63.6545 351.495
L72.3633 347.131
L74.0149 346.249
L85.5766 340.523
L86.1772 340.158
L87.2283 339.648
L90.5316 337.941
L102.694 331.728
L103.895 331.073
L105.246 330.426
L106.147 329.966
L113.054 326.444
L114.406 325.788
L127.919 318.831
L130.021 317.671
L132.874 316.266
L133.475 315.91
L134.676 315.272
L136.178 314.565
L140.082 312.556
L147.889 308.554
L152.844 305.92
L154.046 305.319
L155.247 304.709
L156.298 304.126
L160.502 301.936
L161.253 301.533
L163.956 300.133
L164.706 299.721
L168.76 297.585
L170.562 296.605
L173.866 294.829
L177.169 293.124
L186.028 288.543
L186.628 288.196
L194.136 284.361
L196.989 282.851
L208.25 277.126
L225.217 268.377
L231.073 265.378
L239.031 261.287
L246.389 257.472
L251.494 254.722
L251.794 254.578
L252.094 254.313
L252.845 253.852
L258.251 251.059
L260.052 250.135
L285.278 236.339
L288.431 234.386
L289.032 233.978
L292.785 231.28
L294.287 229.981
L294.587 229.632
L295.338 229.038
L297.14 227.595
L298.041 226.865
L299.242 225.649
L299.692 225.361
L305.398 222.35
L306.75 221.649
L309.903 219.943
L313.957 217.718
L315.759 216.69
L316.509 216.279
L320.864 213.943
L321.765 213.441
L324.167 212.066
L329.723 208.98
L332.576 207.398
L333.777 206.703
L341.585 202.259
L342.486 201.71
L344.438 200.535
L345.939 199.608
L348.191 198.265
L349.993 196.906
L351.645 195.415
L354.498 193.093
L355.098 192.46
L357.351 190.582
L358.251 189.778
L359.453 188.822
L360.504 187.761
L360.954 187.342
L361.705 186.574
L362.606 185.643
L363.957 184.371
L368.011 179.729
L368.762 179.025
L371.014 176.6
L372.366 174.964
L373.717 173.301
L374.017 172.758
L374.468 172.12
L378.522 165.481
L379.273 164.221
L379.573 163.774
L380.023 162.655
L380.474 161.988
L383.777 155.361
L384.678 153.629
L387.831 147.504
L388.282 146.661
L389.032 144.981
L399.243 128.339
L425.069 113.603
L429.423 111.252
L431.826 109.932
L436.03 107.658
L439.634 105.602
L443.537 103.221
L445.339 102.159
L447.441 100.804
L453.147 96.7603
L454.949 95.2109
L456.15 94.3853
L457.351 93.4579
L457.652 93.1008
L458.402 92.471
L464.258 87.4253
L464.709 86.8896
L466.511 85.8547
L467.111 85.4861
L475.219 81.0585
L475.219 81.0585" style="fill:none;stroke:#000000;stroke-linecap:square;"/>
   </g>
   <g id="line2d_15">
    <path clip-path="url(#p8c776b0f9c)" d="
M28.8194 368.735
L28.9695 368.508
L29.1197 368.423
L33.7744 366.204
L33.9245 365.819
L36.3269 364.734
L37.9786 363.912
L44.5853 360.299
L45.0357 360.015
L52.0928 356.1
L53.4442 355.389
L56.2971 353.799
L64.7056 349.049
L68.0089 347.277
L68.6095 346.868
L69.5104 346.337
L73.114 344.4
L74.4654 343.698
L82.5736 339.251
L83.6246 338.697
L107.649 324.875
L116.658 319.81
L118.009 319.028
L127.319 313.97
L128.52 313.244
L137.679 307.942
L138.43 307.509
L143.535 304.624
L144.736 303.947
L147.139 302.647
L147.739 302.278
L163.956 293.081
L164.706 292.583
L168.01 290.81
L168.46 290.476
L169.661 289.714
L171.013 288.93
L179.571 284.066
L180.172 283.719
L183.325 281.94
L184.076 281.511
L184.977 280.945
L185.728 280.482
L193.686 276.022
L196.238 274.465
L205.998 269.029
L206.599 268.649
L211.103 265.959
L211.554 265.638
L217.109 262.712
L217.56 262.416
L221.464 260.117
L222.965 259.289
L225.518 257.789
L226.268 257.378
L237.079 251.197
L237.98 250.642
L240.983 248.763
L242.635 247.81
L250.443 243.355
L255.698 240.248
L256.599 239.694
L262.155 236.293
L267.56 232.82
L269.962 231.327
L275.969 227.656
L279.122 225.804
L279.722 225.425
L280.773 224.79
L283.776 223.037
L285.879 221.791
L286.329 221.478
L291.284 218.636
L291.734 218.339
L295.038 216.415
L295.939 215.829
L305.548 210.078
L306.149 209.673
L309.452 207.586
L310.954 206.526
L312.455 205.438
L312.906 205.038
L315.909 202.697
L323.566 194.866
L324.467 193.887
L327.32 190.629
L328.521 189.063
L330.323 186.122
L330.774 185.239
L331.224 184.465
L331.525 183.68
L332.125 182.713
L334.077 178.789
L334.828 177.429
L335.128 176.817
L335.278 176.561
L335.579 175.632
L336.329 174.357
L337.08 172.581
L338.281 170.116
L338.732 169.19
L338.882 168.914
L339.182 167.977
L339.633 167.132
L340.233 165.663
L340.834 164.515
L342.486 161.261
L342.786 160.6
L345.489 154.264
L346.089 153.304
L346.54 152.191
L346.99 151.492
L347.741 149.956
L348.341 148.668
L354.197 145.246
L374.918 132.676
L376.119 131.879
L378.972 130.036
L381.375 128.442
L383.777 126.768
L385.429 125.66
L386.029 125.144
L388.282 123.462
L391.735 120.637
L396.69 115.933
L397.291 115.165
L398.192 114.353
L402.997 109.903
L403.447 109.44
L404.648 108.315
L407.351 105.588
L407.952 104.859
L409.003 103.63
L409.453 102.927
L409.904 102.409
L410.504 101.526
L411.105 100.717
L411.555 100.082
L412.306 98.7917
L413.807 96.4185
L414.708 94.6829
L415.91 91.8125
L416.961 89.7427
L417.862 88.2681
L419.063 86.4768
L426.57 75.8438
L429.273 71.8272
L430.024 70.8614
L430.474 70.151
L431.075 69.3408
L431.675 68.4288
L432.276 67.6301
L433.778 65.6294
L436.03 62.6208
L445.94 49.8086
L446.54 48.9465
L448.042 47.1033
L451.646 42.672
L453.147 40.7693
L455.099 38.6342
L462.457 33.8669
L465.76 31.8067
L466.21 31.4381
L470.565 28.6675
L472.366 27.4579
L475.069 25.6781
L475.219 25.5878
L475.219 25.5878" style="fill:none;stroke:#0000ff;stroke-linecap:square;"/>
   </g>
   <g id="line2d_16">
    <path clip-path="url(#p8c776b0f9c)" d="
M28.8194 368.735
L29.42 368.127
L33.1738 366.327
L35.2759 365.3
L35.8765 364.975
L38.8795 363.295
L39.1798 362.986
L39.9306 362.538
L40.5312 362.151
L41.4321 361.609
L43.6844 360.274
L44.7354 359.683
L46.0868 358.901
L51.1919 355.748
L52.3931 355
L54.6454 353.67
L55.0959 353.297
L59.6004 350.726
L77.3183 340.188
L78.5195 339.485
L85.4264 335.387
L86.3273 334.856
L87.2283 334.319
L92.3334 331.24
L92.6337 330.92
L96.2373 328.787
L96.6878 328.468
L103.895 324.301
L104.796 323.758
L105.547 323.311
L105.997 322.977
L107.799 321.996
L109 321.247
L111.102 320.016
L114.706 317.819
L115.156 317.519
L129.12 309.409
L129.571 309.011
L131.223 308.08
L131.823 307.733
L132.574 307.281
L136.178 305.121
L136.628 304.79
L143.385 300.84
L144.136 300.409
L146.088 299.203
L186.929 275.196
L190.082 273.436
L191.133 272.791
L210.803 261.526
L211.704 260.962
L215.458 258.743
L219.512 256.441
L223.115 254.278
L223.716 253.872
L226.118 252.512
L227.019 251.909
L228.371 251.172
L229.572 250.483
L230.773 249.738
L235.578 246.959
L237.079 246.129
L242.485 242.941
L250.443 237.933
L251.494 237.147
L252.845 236.237
L256.899 232.632
L257.95 231.68
L258.251 231.313
L259.001 230.628
L263.206 226.391
L264.557 224.88
L265.608 223.809
L266.059 223.159
L266.809 222.319
L267.26 221.779
L268.461 220.313
L268.761 219.843
L269.662 218.721
L270.713 217.487
L271.764 215.95
L272.065 215.026
L273.566 212.783
L275.218 210.333
L277.47 209.007
L281.374 206.732
L283.626 205.435
L284.377 204.962
L287.08 203.398
L287.83 202.946
L306.9 191.539
L308.702 190.434
L309.753 189.804
L316.359 185.604
L319.062 183.718
L321.164 182.184
L324.017 180.043
L324.918 179.33
L325.669 178.695
L327.47 177.068
L328.521 176.077
L328.822 175.657
L330.473 174.595
L333.326 172.752
L359.002 157.213
L359.453 156.866
L370.113 150.069
L371.465 149.148
L372.666 148.268
L375.519 146.028
L378.972 142.871
L379.423 142.326
L381.525 140.25
L381.975 139.699
L385.729 135.425
L386.18 134.792
L386.63 134.244
L387.531 133.05
L389.032 130.919
L389.333 130.236
L391.435 126.92
L393.837 122.657
L394.288 121.761
L396.991 117.137
L397.741 115.476
L398.642 113.687
L399.994 110.84
L400.744 109.142
L401.345 107.977
L401.645 107.397
L401.946 106.648
L402.846 104.208
L403.447 103.043
L405.099 99.6288
L405.549 98.7686
L406.3 97.4361
L406.901 96.5529
L407.351 95.7638
L407.651 95.1705
L408.252 93.9705
L409.153 92.471
L409.453 91.6128
L412.456 86.9088
L413.057 86.0275
L414.258 84.1133
L416.66 80.6093
L417.411 79.6992
L419.663 78.2016
L421.165 77.2262
L423.717 75.6173
L426.27 73.9872
L434.078 68.8224
L437.381 66.7507
L441.435 64.0281
L446.09 60.7641
L446.54 60.3686
L447.441 59.7465
L453.898 55.0867
L455.099 54.192
L457.802 52.3123
L458.853 51.5117
L459.904 50.7686
L460.655 50.1081
L464.258 47.1859
L470.715 40.1491
L471.315 39.4003
L472.066 38.471
L472.517 37.8105
L475.219 33.9091
L475.219 33.9091" style="fill:none;stroke:#008000;stroke-linecap:square;"/>
   </g>
   <g id="patch_3">
    <path d="
M28.8194 23.1417
L475.219 23.1417" style="fill:none;stroke:#000000;stroke-linecap:square;stroke-linejoin:miter;"/>
   </g>
   <g id="patch_4">
    <path d="
M475.219 368.742
L475.219 23.1417" style="fill:none;stroke:#000000;stroke-linecap:square;stroke-linejoin:miter;"/>
   </g>
   <g id="patch_5">
    <path d="
M28.8194 368.742
L475.219 368.742" style="fill:none;stroke:#000000;stroke-linecap:square;stroke-linejoin:miter;"/>
   </g>
   <g id="patch_6">
    <path d="
M28.8194 368.742
L28.8194 23.1417" style="fill:none;stroke:#000000;stroke-linecap:square;stroke-linejoin:miter;"/>
   </g>
   <g id="matplotlib.axis_1">
    <g id="xtick_1">
     <g id="line2d_17">
      <defs>
       <path d="
M0 0
L0 -4" id="m93b0483c22" style="stroke:#000000;stroke-width:0.5;"/>
      </defs>
      <g>
       <use style="stroke:#000000;stroke-width:0.5;" x="28.819375" xlink:href="#m93b0483c22" y="368.74175"/>
      </g>
     </g>
     <g id="line2d_18">
      <defs>
       <path d="
M0 0
L0 4" id="m741efc42ff" style="stroke:#000000;stroke-width:0.5;"/>
      </defs>
      <g>
       <use style="stroke:#000000;stroke-width:0.5;" x="28.819375" xlink:href="#m741efc42ff" y="23.14175"/>
      </g>
     </g>
     <g id="text_1">
      <!-- 0 -->
      <defs>
       <path d="
M31.7812 66.4062
Q24.1719 66.4062 20.3281 58.9062
Q16.5 51.4219 16.5 36.375
Q16.5 21.3906 20.3281 13.8906
Q24.1719 6.39062 31.7812 6.39062
Q39.4531 6.39062 43.2812 13.8906
Q47.125 21.3906 47.125 36.375
Q47.125 51.4219 43.2812 58.9062
Q39.4531 66.4062 31.7812 66.4062
M31.7812 74.2188
Q44.0469 74.2188 50.5156 64.5156
Q56.9844 54.8281 56.9844 36.375
Q56.9844 17.9688 50.5156 8.26562
Q44.0469 -1.42188 31.7812 -1.42188
Q19.5312 -1.42188 13.0625 8.26562
Q6.59375 17.9688 6.59375 36.375
Q6.59375 54.8281 13.0625 64.5156
Q19.5312 74.2188 31.7812 74.2188" id="DejaVuSans-30"/>
      </defs>
      <g transform="translate(25.7959375 381.859875)scale(0.12 -0.12)">
       <use xlink:href="#DejaVuSans-30"/>
      </g>
     </g>
    </g>
    <g id="xtick_2">
     <g id="line2d_19">
      <g>
       <use style="stroke:#000000;stroke-width:0.5;" x="103.89505613" xlink:href="#m93b0483c22" y="368.74175"/>
      </g>
     </g>
     <g id="line2d_20">
      <g>
       <use style="stroke:#000000;stroke-width:0.5;" x="103.89505613" xlink:href="#m741efc42ff" y="23.14175"/>
      </g>
     </g>
     <g id="text_2">
      <!-- 500 -->
      <defs>
       <path d="
M10.7969 72.9062
L49.5156 72.9062
L49.5156 64.5938
L19.8281 64.5938
L19.8281 46.7344
Q21.9688 47.4688 24.1094 47.8281
Q26.2656 48.1875 28.4219 48.1875
Q40.625 48.1875 47.75 41.5
Q54.8906 34.8125 54.8906 23.3906
Q54.8906 11.625 47.5625 5.09375
Q40.2344 -1.42188 26.9062 -1.42188
Q22.3125 -1.42188 17.5469 -0.640625
Q12.7969 0.140625 7.71875 1.70312
L7.71875 11.625
Q12.1094 9.23438 16.7969 8.0625
Q21.4844 6.89062 26.7031 6.89062
Q35.1562 6.89062 40.0781 11.3281
Q45.0156 15.7656 45.0156 23.3906
Q45.0156 31 40.0781 35.4375
Q35.1562 39.8906 26.7031 39.8906
Q22.75 39.8906 18.8125 39.0156
Q14.8906 38.1406 10.7969 36.2812
z
" id="DejaVuSans-35"/>
      </defs>
      <g transform="translate(93.3041186302 381.859875)scale(0.12 -0.12)">
       <use xlink:href="#DejaVuSans-35"/>
       <use x="63.623046875" xlink:href="#DejaVuSans-30"/>
       <use x="127.24609375" xlink:href="#DejaVuSans-30"/>
      </g>
     </g>
    </g>
    <g id="xtick_3">
     <g id="line2d_21">
      <g>
       <use style="stroke:#000000;stroke-width:0.5;" x="178.97073726" xlink:href="#m93b0483c22" y="368.74175"/>
      </g>
     </g>
     <g id="line2d_22">
      <g>
       <use style="stroke:#000000;stroke-width:0.5;" x="178.97073726" xlink:href="#m741efc42ff" y="23.14175"/>
      </g>
     </g>
     <g id="text_3">
      <!-- 1000 -->
      <defs>
       <path d="
M12.4062 8.29688
L28.5156 8.29688
L28.5156 63.9219
L10.9844 60.4062
L10.9844 69.3906
L28.4219 72.9062
L38.2812 72.9062
L38.2812 8.29688
L54.3906 8.29688
L54.3906 0
L12.4062 0
z
" id="DejaVuSans-31"/>
      </defs>
      <g transform="translate(164.75823726 381.859875)scale(0.12 -0.12)">
       <use xlink:href="#DejaVuSans-31"/>
       <use x="63.623046875" xlink:href="#DejaVuSans-30"/>
       <use x="127.24609375" xlink:href="#DejaVuSans-30"/>
       <use x="190.869140625" xlink:href="#DejaVuSans-30"/>
      </g>
     </g>
    </g>
    <g id="xtick_4">
     <g id="line2d_23">
      <g>
       <use style="stroke:#000000;stroke-width:0.5;" x="254.046418391" xlink:href="#m93b0483c22" y="368.74175"/>
      </g>
     </g>
     <g id="line2d_24">
      <g>
       <use style="stroke:#000000;stroke-width:0.5;" x="254.046418391" xlink:href="#m741efc42ff" y="23.14175"/>
      </g>
     </g>
     <g id="text_4">
      <!-- 1500 -->
      <g transform="translate(239.833918391 381.859875)scale(0.12 -0.12)">
       <use xlink:href="#DejaVuSans-31"/>
       <use x="63.623046875" xlink:href="#DejaVuSans-35"/>
       <use x="127.24609375" xlink:href="#DejaVuSans-30"/>
       <use x="190.869140625" xlink:href="#DejaVuSans-30"/>
      </g>
     </g>
    </g>
    <g id="xtick_5">
     <g id="line2d_25">
      <g>
       <use style="stroke:#000000;stroke-width:0.5;" x="329.122099521" xlink:href="#m93b0483c22" y="368.74175"/>
      </g>
     </g>
     <g id="line2d_26">
      <g>
       <use style="stroke:#000000;stroke-width:0.5;" x="329.122099521" xlink:href="#m741efc42ff" y="23.14175"/>
      </g>
     </g>
     <g id="text_5">
      <!-- 2000 -->
      <defs>
       <path d="
M19.1875 8.29688
L53.6094 8.29688
L53.6094 0
L7.32812 0
L7.32812 8.29688
Q12.9375 14.1094 22.625 23.8906
Q32.3281 33.6875 34.8125 36.5312
Q39.5469 41.8438 41.4219 45.5312
Q43.3125 49.2188 43.3125 52.7812
Q43.3125 58.5938 39.2344 62.25
Q35.1562 65.9219 28.6094 65.9219
Q23.9688 65.9219 18.8125 64.3125
Q13.6719 62.7031 7.8125 59.4219
L7.8125 69.3906
Q13.7656 71.7812 18.9375 73
Q24.125 74.2188 28.4219 74.2188
Q39.75 74.2188 46.4844 68.5469
Q53.2188 62.8906 53.2188 53.4219
Q53.2188 48.9219 51.5312 44.8906
Q49.8594 40.875 45.4062 35.4062
Q44.1875 33.9844 37.6406 27.2188
Q31.1094 20.4531 19.1875 8.29688" id="DejaVuSans-32"/>
      </defs>
      <g transform="translate(314.690224521 381.859875)scale(0.12 -0.12)">
       <use xlink:href="#DejaVuSans-32"/>
       <use x="63.623046875" xlink:href="#DejaVuSans-30"/>
       <use x="127.24609375" xlink:href="#DejaVuSans-30"/>
       <use x="190.869140625" xlink:href="#DejaVuSans-30"/>
      </g>
     </g>
    </g>
    <g id="xtick_6">
     <g id="line2d_27">
      <g>
       <use style="stroke:#000000;stroke-width:0.5;" x="404.197780651" xlink:href="#m93b0483c22" y="368.74175"/>
      </g>
     </g>
     <g id="line2d_28">
      <g>
       <use style="stroke:#000000;stroke-width:0.5;" x="404.197780651" xlink:href="#m741efc42ff" y="23.14175"/>
      </g>
     </g>
     <g id="text_6">
      <!-- 2500 -->
      <g transform="translate(389.765905651 381.859875)scale(0.12 -0.12)">
       <use xlink:href="#DejaVuSans-32"/>
       <use x="63.623046875" xlink:href="#DejaVuSans-35"/>
       <use x="127.24609375" xlink:href="#DejaVuSans-30"/>
       <use x="190.869140625" xlink:href="#DejaVuSans-30"/>
      </g>
     </g>
    </g>
    <g id="text_7">
     <!-- time -->
     <defs>
      <path d="
M18.3125 70.2188
L18.3125 54.6875
L36.8125 54.6875
L36.8125 47.7031
L18.3125 47.7031
L18.3125 18.0156
Q18.3125 11.3281 20.1406 9.42188
Q21.9688 7.51562 27.5938 7.51562
L36.8125 7.51562
L36.8125 0
L27.5938 0
Q17.1875 0 13.2344 3.875
Q9.28125 7.76562 9.28125 18.0156
L9.28125 47.7031
L2.6875 47.7031
L2.6875 54.6875
L9.28125 54.6875
L9.28125 70.2188
z
" id="DejaVuSans-74"/>
      <path d="
M52 44.1875
Q55.375 50.25 60.0625 53.125
Q64.75 56 71.0938 56
Q79.6406 56 84.2812 50.0156
Q88.9219 44.0469 88.9219 33.0156
L88.9219 0
L79.8906 0
L79.8906 32.7188
Q79.8906 40.5781 77.0938 44.375
Q74.3125 48.1875 68.6094 48.1875
Q61.625 48.1875 57.5625 43.5469
Q53.5156 38.9219 53.5156 30.9062
L53.5156 0
L44.4844 0
L44.4844 32.7188
Q44.4844 40.625 41.7031 44.4062
Q38.9219 48.1875 33.1094 48.1875
Q26.2188 48.1875 22.1562 43.5312
Q18.1094 38.875 18.1094 30.9062
L18.1094 0
L9.07812 0
L9.07812 54.6875
L18.1094 54.6875
L18.1094 46.1875
Q21.1875 51.2188 25.4844 53.6094
Q29.7812 56 35.6875 56
Q41.6562 56 45.8281 52.9688
Q50 49.9531 52 44.1875" id="DejaVuSans-6d"/>
      <path d="
M56.2031 29.5938
L56.2031 25.2031
L14.8906 25.2031
Q15.4844 15.9219 20.4844 11.0625
Q25.4844 6.20312 34.4219 6.20312
Q39.5938 6.20312 44.4531 7.46875
Q49.3125 8.73438 54.1094 11.2812
L54.1094 2.78125
Q49.2656 0.734375 44.1875 -0.34375
Q39.1094 -1.42188 33.8906 -1.42188
Q20.7969 -1.42188 13.1562 6.1875
Q5.51562 13.8125 5.51562 26.8125
Q5.51562 40.2344 12.7656 48.1094
Q20.0156 56 32.3281 56
Q43.3594 56 49.7812 48.8906
Q56.2031 41.7969 56.2031 29.5938
M47.2188 32.2344
Q47.125 39.5938 43.0938 43.9844
Q39.0625 48.3906 32.4219 48.3906
Q24.9062 48.3906 20.3906 44.1406
Q15.875 39.8906 15.1875 32.1719
z
" id="DejaVuSans-65"/>
      <path d="
M9.42188 54.6875
L18.4062 54.6875
L18.4062 0
L9.42188 0
z

M9.42188 75.9844
L18.4062 75.9844
L18.4062 64.5938
L9.42188 64.5938
z
" id="DejaVuSans-69"/>
     </defs>
     <g transform="translate(238.945 398.473625)scale(0.12 -0.12)">
      <use xlink:href="#DejaVuSans-74"/>
      <use x="39.208984375" xlink:href="#DejaVuSans-69"/>
      <use x="66.9921875" xlink:href="#DejaVuSans-6d"/>
      <use x="164.404296875" xlink:href="#DejaVuSans-65"/>
     </g>
    </g>
   </g>
   <g id="matplotlib.axis_2">
    <g id="ytick_1">
     <g id="line2d_29">
      <defs>
       <path d="
M0 0
L4 0" id="m728421d6d4" style="stroke:#000000;stroke-width:0.5;"/>
      </defs>
      <g>
       <use style="stroke:#000000;stroke-width:0.5;" x="28.819375" xlink:href="#m728421d6d4" y="368.74175"/>
      </g>
     </g>
     <g id="line2d_30">
      <defs>
       <path d="
M0 0
L-4 0" id="mcb0005524f" style="stroke:#000000;stroke-width:0.5;"/>
      </defs>
      <g>
       <use style="stroke:#000000;stroke-width:0.5;" x="475.219375" xlink:href="#mcb0005524f" y="368.74175"/>
      </g>
     </g>
     <g id="text_8">
      <!-- 0.0 -->
      <defs>
       <path d="
M10.6875 12.4062
L21 12.4062
L21 0
L10.6875 0
z
" id="DejaVuSans-2e"/>
      </defs>
      <g transform="translate(7.32375 372.053)scale(0.12 -0.12)">
       <use xlink:href="#DejaVuSans-30"/>
       <use x="63.623046875" xlink:href="#DejaVuSans-2e"/>
       <use x="95.41015625" xlink:href="#DejaVuSans-30"/>
      </g>
     </g>
    </g>
    <g id="ytick_2">
     <g id="line2d_31">
      <g>
       <use style="stroke:#000000;stroke-width:0.5;" x="28.819375" xlink:href="#m728421d6d4" y="330.34175"/>
      </g>
     </g>
     <g id="line2d_32">
      <g>
       <use style="stroke:#000000;stroke-width:0.5;" x="475.219375" xlink:href="#mcb0005524f" y="330.34175"/>
      </g>
     </g>
     <g id="text_9">
      <!-- 0.2 -->
      <g transform="translate(7.72875 333.653)scale(0.12 -0.12)">
       <use xlink:href="#DejaVuSans-30"/>
       <use x="63.623046875" xlink:href="#DejaVuSans-2e"/>
       <use x="95.41015625" xlink:href="#DejaVuSans-32"/>
      </g>
     </g>
    </g>
    <g id="ytick_3">
     <g id="line2d_33">
      <g>
       <use style="stroke:#000000;stroke-width:0.5;" x="28.819375" xlink:href="#m728421d6d4" y="291.94175"/>
      </g>
     </g>
     <g id="line2d_34">
      <g>
       <use style="stroke:#000000;stroke-width:0.5;" x="475.219375" xlink:href="#mcb0005524f" y="291.94175"/>
      </g>
     </g>
     <g id="text_10">
      <!-- 0.4 -->
      <defs>
       <path d="
M37.7969 64.3125
L12.8906 25.3906
L37.7969 25.3906
z

M35.2031 72.9062
L47.6094 72.9062
L47.6094 25.3906
L58.0156 25.3906
L58.0156 17.1875
L47.6094 17.1875
L47.6094 0
L37.7969 0
L37.7969 17.1875
L4.89062 17.1875
L4.89062 26.7031
z
" id="DejaVuSans-34"/>
      </defs>
      <g transform="translate(7.2 295.253)scale(0.12 -0.12)">
       <use xlink:href="#DejaVuSans-30"/>
       <use x="63.623046875" xlink:href="#DejaVuSans-2e"/>
       <use x="95.41015625" xlink:href="#DejaVuSans-34"/>
      </g>
     </g>
    </g>
    <g id="ytick_4">
     <g id="line2d_35">
      <g>
       <use style="stroke:#000000;stroke-width:0.5;" x="28.819375" xlink:href="#m728421d6d4" y="253.54175"/>
      </g>
     </g>
     <g id="line2d_36">
      <g>
       <use style="stroke:#000000;stroke-width:0.5;" x="475.219375" xlink:href="#mcb0005524f" y="253.54175"/>
      </g>
     </g>
     <g id="text_11">
      <!-- 0.6 -->
      <defs>
       <path d="
M33.0156 40.375
Q26.375 40.375 22.4844 35.8281
Q18.6094 31.2969 18.6094 23.3906
Q18.6094 15.5312 22.4844 10.9531
Q26.375 6.39062 33.0156 6.39062
Q39.6562 6.39062 43.5312 10.9531
Q47.4062 15.5312 47.4062 23.3906
Q47.4062 31.2969 43.5312 35.8281
Q39.6562 40.375 33.0156 40.375
M52.5938 71.2969
L52.5938 62.3125
Q48.875 64.0625 45.0938 64.9844
Q41.3125 65.9219 37.5938 65.9219
Q27.8281 65.9219 22.6719 59.3281
Q17.5312 52.7344 16.7969 39.4062
Q19.6719 43.6562 24.0156 45.9219
Q28.375 48.1875 33.5938 48.1875
Q44.5781 48.1875 50.9531 41.5156
Q57.3281 34.8594 57.3281 23.3906
Q57.3281 12.1562 50.6875 5.35938
Q44.0469 -1.42188 33.0156 -1.42188
Q20.3594 -1.42188 13.6719 8.26562
Q6.98438 17.9688 6.98438 36.375
Q6.98438 53.6562 15.1875 63.9375
Q23.3906 74.2188 37.2031 74.2188
Q40.9219 74.2188 44.7031 73.4844
Q48.4844 72.75 52.5938 71.2969" id="DejaVuSans-36"/>
      </defs>
      <g transform="translate(7.2825 256.853)scale(0.12 -0.12)">
       <use xlink:href="#DejaVuSans-30"/>
       <use x="63.623046875" xlink:href="#DejaVuSans-2e"/>
       <use x="95.41015625" xlink:href="#DejaVuSans-36"/>
      </g>
     </g>
    </g>
    <g id="ytick_5">
     <g id="line2d_37">
      <g>
       <use style="stroke:#000000;stroke-width:0.5;" x="28.819375" xlink:href="#m728421d6d4" y="215.14175"/>
      </g>
     </g>
     <g id="line2d_38">
      <g>
       <use style="stroke:#000000;stroke-width:0.5;" x="475.219375" xlink:href="#mcb0005524f" y="215.14175"/>
      </g>
     </g>
     <g id="text_12">
      <!-- 0.8 -->
      <defs>
       <path d="
M31.7812 34.625
Q24.75 34.625 20.7188 30.8594
Q16.7031 27.0938 16.7031 20.5156
Q16.7031 13.9219 20.7188 10.1562
Q24.75 6.39062 31.7812 6.39062
Q38.8125 6.39062 42.8594 10.1719
Q46.9219 13.9688 46.9219 20.5156
Q46.9219 27.0938 42.8906 30.8594
Q38.875 34.625 31.7812 34.625
M21.9219 38.8125
Q15.5781 40.375 12.0312 44.7188
Q8.5 49.0781 8.5 55.3281
Q8.5 64.0625 14.7188 69.1406
Q20.9531 74.2188 31.7812 74.2188
Q42.6719 74.2188 48.875 69.1406
Q55.0781 64.0625 55.0781 55.3281
Q55.0781 49.0781 51.5312 44.7188
Q48 40.375 41.7031 38.8125
Q48.8281 37.1562 52.7969 32.3125
Q56.7812 27.4844 56.7812 20.5156
Q56.7812 9.90625 50.3125 4.23438
Q43.8438 -1.42188 31.7812 -1.42188
Q19.7344 -1.42188 13.25 4.23438
Q6.78125 9.90625 6.78125 20.5156
Q6.78125 27.4844 10.7812 32.3125
Q14.7969 37.1562 21.9219 38.8125
M18.3125 54.3906
Q18.3125 48.7344 21.8438 45.5625
Q25.3906 42.3906 31.7812 42.3906
Q38.1406 42.3906 41.7188 45.5625
Q45.3125 48.7344 45.3125 54.3906
Q45.3125 60.0625 41.7188 63.2344
Q38.1406 66.4062 31.7812 66.4062
Q25.3906 66.4062 21.8438 63.2344
Q18.3125 60.0625 18.3125 54.3906" id="DejaVuSans-38"/>
      </defs>
      <g transform="translate(7.348125 218.453)scale(0.12 -0.12)">
       <use xlink:href="#DejaVuSans-30"/>
       <use x="63.623046875" xlink:href="#DejaVuSans-2e"/>
       <use x="95.41015625" xlink:href="#DejaVuSans-38"/>
      </g>
     </g>
    </g>
    <g id="ytick_6">
     <g id="line2d_39">
      <g>
       <use style="stroke:#000000;stroke-width:0.5;" x="28.819375" xlink:href="#m728421d6d4" y="176.74175"/>
      </g>
     </g>
     <g id="line2d_40">
      <g>
       <use style="stroke:#000000;stroke-width:0.5;" x="475.219375" xlink:href="#mcb0005524f" y="176.74175"/>
      </g>
     </g>
     <g id="text_13">
      <!-- 1.0 -->
      <g transform="translate(7.850625 180.053)scale(0.12 -0.12)">
       <use xlink:href="#DejaVuSans-31"/>
       <use x="63.623046875" xlink:href="#DejaVuSans-2e"/>
       <use x="95.41015625" xlink:href="#DejaVuSans-30"/>
      </g>
     </g>
    </g>
    <g id="ytick_7">
     <g id="line2d_41">
      <g>
       <use style="stroke:#000000;stroke-width:0.5;" x="28.819375" xlink:href="#m728421d6d4" y="138.34175"/>
      </g>
     </g>
     <g id="line2d_42">
      <g>
       <use style="stroke:#000000;stroke-width:0.5;" x="475.219375" xlink:href="#mcb0005524f" y="138.34175"/>
      </g>
     </g>
     <g id="text_14">
      <!-- 1.2 -->
      <g transform="translate(8.255625 141.653)scale(0.12 -0.12)">
       <use xlink:href="#DejaVuSans-31"/>
       <use x="63.623046875" xlink:href="#DejaVuSans-2e"/>
       <use x="95.41015625" xlink:href="#DejaVuSans-32"/>
      </g>
     </g>
    </g>
    <g id="ytick_8">
     <g id="line2d_43">
      <g>
       <use style="stroke:#000000;stroke-width:0.5;" x="28.819375" xlink:href="#m728421d6d4" y="99.94175"/>
      </g>
     </g>
     <g id="line2d_44">
      <g>
       <use style="stroke:#000000;stroke-width:0.5;" x="475.219375" xlink:href="#mcb0005524f" y="99.94175"/>
      </g>
     </g>
     <g id="text_15">
      <!-- 1.4 -->
      <g transform="translate(7.726875 103.253)scale(0.12 -0.12)">
       <use xlink:href="#DejaVuSans-31"/>
       <use x="63.623046875" xlink:href="#DejaVuSans-2e"/>
       <use x="95.41015625" xlink:href="#DejaVuSans-34"/>
      </g>
     </g>
    </g>
    <g id="ytick_9">
     <g id="line2d_45">
      <g>
       <use style="stroke:#000000;stroke-width:0.5;" x="28.819375" xlink:href="#m728421d6d4" y="61.54175"/>
      </g>
     </g>
     <g id="line2d_46">
      <g>
       <use style="stroke:#000000;stroke-width:0.5;" x="475.219375" xlink:href="#mcb0005524f" y="61.54175"/>
      </g>
     </g>
     <g id="text_16">
      <!-- 1.6 -->
      <g transform="translate(7.809375 64.853)scale(0.12 -0.12)">
       <use xlink:href="#DejaVuSans-31"/>
       <use x="63.623046875" xlink:href="#DejaVuSans-2e"/>
       <use x="95.41015625" xlink:href="#DejaVuSans-36"/>
      </g>
     </g>
    </g>
    <g id="ytick_10">
     <g id="line2d_47">
      <g>
       <use style="stroke:#000000;stroke-width:0.5;" x="28.819375" xlink:href="#m728421d6d4" y="23.14175"/>
      </g>
     </g>
     <g id="line2d_48">
      <g>
       <use style="stroke:#000000;stroke-width:0.5;" x="475.219375" xlink:href="#mcb0005524f" y="23.14175"/>
      </g>
     </g>
     <g id="text_17">
      <!-- 1.8 -->
      <g transform="translate(7.875 26.453)scale(0.12 -0.12)">
       <use xlink:href="#DejaVuSans-31"/>
       <use x="63.623046875" xlink:href="#DejaVuSans-2e"/>
       <use x="95.41015625" xlink:href="#DejaVuSans-38"/>
      </g>
     </g>
    </g>
    <g id="text_18">
     <!-- 1e12 -->
     <g transform="translate(28.819375 20.14175)scale(0.12 -0.12)">
      <use xlink:href="#DejaVuSans-31"/>
      <use x="63.623046875" xlink:href="#DejaVuSans-65"/>
      <use x="125.146484375" xlink:href="#DejaVuSans-31"/>
      <use x="188.76953125" xlink:href="#DejaVuSans-32"/>
     </g>
    </g>
   </g>
   <g id="text_19">
    <!-- /agas/time/route -->
    <defs>
     <path d="
M25.3906 72.9062
L33.6875 72.9062
L8.29688 -9.28125
L0 -9.28125
z
" id="DejaVuSans-2f"/>
     <path d="
M30.6094 48.3906
Q23.3906 48.3906 19.1875 42.75
Q14.9844 37.1094 14.9844 27.2969
Q14.9844 17.4844 19.1562 11.8438
Q23.3438 6.20312 30.6094 6.20312
Q37.7969 6.20312 41.9844 11.8594
Q46.1875 17.5312 46.1875 27.2969
Q46.1875 37.0156 41.9844 42.7031
Q37.7969 48.3906 30.6094 48.3906
M30.6094 56
Q42.3281 56 49.0156 48.375
Q55.7188 40.7656 55.7188 27.2969
Q55.7188 13.875 49.0156 6.21875
Q42.3281 -1.42188 30.6094 -1.42188
Q18.8438 -1.42188 12.1719 6.21875
Q5.51562 13.875 5.51562 27.2969
Q5.51562 40.7656 12.1719 48.375
Q18.8438 56 30.6094 56" id="DejaVuSans-6f"/>
     <path d="
M8.5 21.5781
L8.5 54.6875
L17.4844 54.6875
L17.4844 21.9219
Q17.4844 14.1562 20.5 10.2656
Q23.5312 6.39062 29.5938 6.39062
Q36.8594 6.39062 41.0781 11.0312
Q45.3125 15.6719 45.3125 23.6875
L45.3125 54.6875
L54.2969 54.6875
L54.2969 0
L45.3125 0
L45.3125 8.40625
Q42.0469 3.42188 37.7188 1
Q33.4062 -1.42188 27.6875 -1.42188
Q18.2656 -1.42188 13.375 4.4375
Q8.5 10.2969 8.5 21.5781
M31.1094 56
z
" id="DejaVuSans-75"/>
     <path d="
M45.4062 27.9844
Q45.4062 37.75 41.375 43.1094
Q37.3594 48.4844 30.0781 48.4844
Q22.8594 48.4844 18.8281 43.1094
Q14.7969 37.75 14.7969 27.9844
Q14.7969 18.2656 18.8281 12.8906
Q22.8594 7.51562 30.0781 7.51562
Q37.3594 7.51562 41.375 12.8906
Q45.4062 18.2656 45.4062 27.9844
M54.3906 6.78125
Q54.3906 -7.17188 48.1875 -13.9844
Q42 -20.7969 29.2031 -20.7969
Q24.4688 -20.7969 20.2656 -20.0938
Q16.0625 -19.3906 12.1094 -17.9219
L12.1094 -9.1875
Q16.0625 -11.3281 19.9219 -12.3438
Q23.7812 -13.375 27.7812 -13.375
Q36.625 -13.375 41.0156 -8.76562
Q45.4062 -4.15625 45.4062 5.17188
L45.4062 9.625
Q42.625 4.78125 38.2812 2.39062
Q33.9375 0 27.875 0
Q17.8281 0 11.6719 7.65625
Q5.51562 15.3281 5.51562 27.9844
Q5.51562 40.6719 11.6719 48.3281
Q17.8281 56 27.875 56
Q33.9375 56 38.2812 53.6094
Q42.625 51.2188 45.4062 46.3906
L45.4062 54.6875
L54.3906 54.6875
z
" id="DejaVuSans-67"/>
     <path d="
M34.2812 27.4844
Q23.3906 27.4844 19.1875 25
Q14.9844 22.5156 14.9844 16.5
Q14.9844 11.7188 18.1406 8.90625
Q21.2969 6.10938 26.7031 6.10938
Q34.1875 6.10938 38.7031 11.4062
Q43.2188 16.7031 43.2188 25.4844
L43.2188 27.4844
z

M52.2031 31.2031
L52.2031 0
L43.2188 0
L43.2188 8.29688
Q40.1406 3.32812 35.5469 0.953125
Q30.9531 -1.42188 24.3125 -1.42188
Q15.9219 -1.42188 10.9531 3.29688
Q6 8.01562 6 15.9219
Q6 25.1406 12.1719 29.8281
Q18.3594 34.5156 30.6094 34.5156
L43.2188 34.5156
L43.2188 35.4062
Q43.2188 41.6094 39.1406 45
Q35.0625 48.3906 27.6875 48.3906
Q23 48.3906 18.5469 47.2656
Q14.1094 46.1406 10.0156 43.8906
L10.0156 52.2031
Q14.9375 54.1094 19.5781 55.0469
Q24.2188 56 28.6094 56
Q40.4844 56 46.3438 49.8438
Q52.2031 43.7031 52.2031 31.2031" id="DejaVuSans-61"/>
     <path d="
M44.2812 53.0781
L44.2812 44.5781
Q40.4844 46.5312 36.375 47.5
Q32.2812 48.4844 27.875 48.4844
Q21.1875 48.4844 17.8438 46.4375
Q14.5 44.3906 14.5 40.2812
Q14.5 37.1562 16.8906 35.375
Q19.2812 33.5938 26.5156 31.9844
L29.5938 31.2969
Q39.1562 29.25 43.1875 25.5156
Q47.2188 21.7812 47.2188 15.0938
Q47.2188 7.46875 41.1875 3.01562
Q35.1562 -1.42188 24.6094 -1.42188
Q20.2188 -1.42188 15.4531 -0.5625
Q10.6875 0.296875 5.42188 2
L5.42188 11.2812
Q10.4062 8.6875 15.2344 7.39062
Q20.0625 6.10938 24.8125 6.10938
Q31.1562 6.10938 34.5625 8.28125
Q37.9844 10.4531 37.9844 14.4062
Q37.9844 18.0625 35.5156 20.0156
Q33.0625 21.9688 24.7031 23.7812
L21.5781 24.5156
Q13.2344 26.2656 9.51562 29.9062
Q5.8125 33.5469 5.8125 39.8906
Q5.8125 47.6094 11.2812 51.7969
Q16.75 56 26.8125 56
Q31.7812 56 36.1719 55.2656
Q40.5781 54.5469 44.2812 53.0781" id="DejaVuSans-73"/>
     <path d="
M41.1094 46.2969
Q39.5938 47.1719 37.8125 47.5781
Q36.0312 48 33.8906 48
Q26.2656 48 22.1875 43.0469
Q18.1094 38.0938 18.1094 28.8125
L18.1094 0
L9.07812 0
L9.07812 54.6875
L18.1094 54.6875
L18.1094 46.1875
Q20.9531 51.1719 25.4844 53.5781
Q30.0312 56 36.5312 56
Q37.4531 56 38.5781 55.875
Q39.7031 55.7656 41.0625 55.5156
z
" id="DejaVuSans-72"/>
    </defs>
    <g transform="translate(192.69475 18.14175)scale(0.144 -0.144)">
     <use xlink:href="#DejaVuSans-2f"/>
     <use x="33.69140625" xlink:href="#DejaVuSans-61"/>
     <use x="94.970703125" xlink:href="#DejaVuSans-67"/>
     <use x="158.447265625" xlink:href="#DejaVuSans-61"/>
     <use x="219.7265625" xlink:href="#DejaVuSans-73"/>
     <use x="271.826171875" xlink:href="#DejaVuSans-2f"/>
     <use x="305.517578125" xlink:href="#DejaVuSans-74"/>
     <use x="344.7265625" xlink:href="#DejaVuSans-69"/>
     <use x="372.509765625" xlink:href="#DejaVuSans-6d"/>
     <use x="469.921875" xlink:href="#DejaVuSans-65"/>
     <use x="531.4453125" xlink:href="#DejaVuSans-2f"/>
     <use x="565.13671875" xlink:href="#DejaVuSans-72"/>
     <use x="604.0" xlink:href="#DejaVuSans-6f"/>
     <use x="665.181640625" xlink:href="#DejaVuSans-75"/>
     <use x="728.560546875" xlink:href="#DejaVuSans-74"/>
     <use x="767.76953125" xlink:href="#DejaVuSans-65"/>
    </g>
   </g>
   <g id="legend_1">
    <g id="patch_7">
     <path d="
M482.419 367.194
L614.209 367.194
L614.209 24.6897
L482.419 24.6897
z
" style="fill:#ffffff;stroke:#000000;stroke-linejoin:miter;"/>
    </g>
    <g id="line2d_49">
     <path d="
M492.499 36.3515
L512.659 36.3515" style="fill:none;stroke:#0000ff;stroke-linecap:square;"/>
    </g>
    <g id="line2d_50"/>
    <g id="text_20">
     <!-- locality#0 -->
     <defs>
      <path d="
M51.125 44
L36.9219 44
L32.8125 27.6875
L47.125 27.6875
z

M43.7969 71.7812
L38.7188 51.5156
L52.9844 51.5156
L58.1094 71.7812
L65.9219 71.7812
L60.8906 51.5156
L76.125 51.5156
L76.125 44
L58.9844 44
L54.9844 27.6875
L70.5156 27.6875
L70.5156 20.2188
L53.0781 20.2188
L48 0
L40.1875 0
L45.2188 20.2188
L30.9062 20.2188
L25.875 0
L18.0156 0
L23.0938 20.2188
L7.71875 20.2188
L7.71875 27.6875
L24.9062 27.6875
L29 44
L13.2812 44
L13.2812 51.5156
L30.9062 51.5156
L35.8906 71.7812
z
" id="DejaVuSans-23"/>
      <path d="
M32.1719 -5.07812
Q28.375 -14.8438 24.75 -17.8125
Q21.1406 -20.7969 15.0938 -20.7969
L7.90625 -20.7969
L7.90625 -13.2812
L13.1875 -13.2812
Q16.8906 -13.2812 18.9375 -11.5156
Q21 -9.76562 23.4844 -3.21875
L25.0938 0.875
L2.98438 54.6875
L12.5 54.6875
L29.5938 11.9219
L46.6875 54.6875
L56.2031 54.6875
z
" id="DejaVuSans-79"/>
      <path d="
M9.42188 75.9844
L18.4062 75.9844
L18.4062 0
L9.42188 0
z
" id="DejaVuSans-6c"/>
      <path d="
M48.7812 52.5938
L48.7812 44.1875
Q44.9688 46.2969 41.1406 47.3438
Q37.3125 48.3906 33.4062 48.3906
Q24.6562 48.3906 19.8125 42.8438
Q14.9844 37.3125 14.9844 27.2969
Q14.9844 17.2812 19.8125 11.7344
Q24.6562 6.20312 33.4062 6.20312
Q37.3125 6.20312 41.1406 7.25
Q44.9688 8.29688 48.7812 10.4062
L48.7812 2.09375
Q45.0156 0.34375 40.9844 -0.53125
Q36.9688 -1.42188 32.4219 -1.42188
Q20.0625 -1.42188 12.7812 6.34375
Q5.51562 14.1094 5.51562 27.2969
Q5.51562 40.6719 12.8594 48.3281
Q20.2188 56 33.0156 56
Q37.1562 56 41.1094 55.1406
Q45.0625 54.2969 48.7812 52.5938" id="DejaVuSans-63"/>
     </defs>
     <g transform="translate(528.499375 41.3915)scale(0.144 -0.144)">
      <use xlink:href="#DejaVuSans-6c"/>
      <use x="27.783203125" xlink:href="#DejaVuSans-6f"/>
      <use x="88.96484375" xlink:href="#DejaVuSans-63"/>
      <use x="143.9453125" xlink:href="#DejaVuSans-61"/>
      <use x="205.224609375" xlink:href="#DejaVuSans-6c"/>
      <use x="233.0078125" xlink:href="#DejaVuSans-69"/>
      <use x="260.791015625" xlink:href="#DejaVuSans-74"/>
      <use x="300.0" xlink:href="#DejaVuSans-79"/>
      <use x="359.1796875" xlink:href="#DejaVuSans-23"/>
      <use x="442.96875" xlink:href="#DejaVuSans-30"/>
     </g>
    </g>
    <g id="line2d_51">
     <path d="
M492.499 57.488
L512.659 57.488" style="fill:none;stroke:#008000;stroke-linecap:square;"/>
    </g>
    <g id="line2d_52"/>
    <g id="text_21">
     <!-- locality#1 -->
     <g transform="translate(528.499375 62.528)scale(0.144 -0.144)">
      <use xlink:href="#DejaVuSans-6c"/>
      <use x="27.783203125" xlink:href="#DejaVuSans-6f"/>
      <use x="88.96484375" xlink:href="#DejaVuSans-63"/>
      <use x="143.9453125" xlink:href="#DejaVuSans-61"/>
      <use x="205.224609375" xlink:href="#DejaVuSans-6c"/>
      <use x="233.0078125" xlink:href="#DejaVuSans-69"/>
      <use x="260.791015625" xlink:href="#DejaVuSans-74"/>
      <use x="300.0" xlink:href="#DejaVuSans-79"/>
      <use x="359.1796875" xlink:href="#DejaVuSans-23"/>
      <use x="442.96875" xlink:href="#DejaVuSans-31"/>
     </g>
    </g>
    <g id="line2d_53">
     <path d="
M492.499 78.6245
L512.659 78.6245" style="fill:none;stroke:#ff0000;stroke-linecap:square;"/>
    </g>
    <g id="line2d_54"/>
    <g id="text_22">
     <!-- locality#10 -->
     <g transform="translate(528.499375 83.6645)scale(0.144 -0.144)">
      <use xlink:href="#DejaVuSans-6c"/>
      <use x="27.783203125" xlink:href="#DejaVuSans-6f"/>
      <use x="88.96484375" xlink:href="#DejaVuSans-63"/>
      <use x="143.9453125" xlink:href="#DejaVuSans-61"/>
      <use x="205.224609375" xlink:href="#DejaVuSans-6c"/>
      <use x="233.0078125" xlink:href="#DejaVuSans-69"/>
      <use x="260.791015625" xlink:href="#DejaVuSans-74"/>
      <use x="300.0" xlink:href="#DejaVuSans-79"/>
      <use x="359.1796875" xlink:href="#DejaVuSans-23"/>
      <use x="442.96875" xlink:href="#DejaVuSans-31"/>
      <use x="506.591796875" xlink:href="#DejaVuSans-30"/>
     </g>
    </g>
    <g id="line2d_55">
     <path d="
M492.499 99.761
L512.659 99.761" style="fill:none;stroke:#00bfbf;stroke-linecap:square;"/>
    </g>
    <g id="line2d_56"/>
    <g id="text_23">
     <!-- locality#11 -->
     <g transform="translate(528.499375 104.801)scale(0.144 -0.144)">
      <use xlink:href="#DejaVuSans-6c"/>
      <use x="27.783203125" xlink:href="#DejaVuSans-6f"/>
      <use x="88.96484375" xlink:href="#DejaVuSans-63"/>
      <use x="143.9453125" xlink:href="#DejaVuSans-61"/>
      <use x="205.224609375" xlink:href="#DejaVuSans-6c"/>
      <use x="233.0078125" xlink:href="#DejaVuSans-69"/>
      <use x="260.791015625" xlink:href="#DejaVuSans-74"/>
      <use x="300.0" xlink:href="#DejaVuSans-79"/>
      <use x="359.1796875" xlink:href="#DejaVuSans-23"/>
      <use x="442.96875" xlink:href="#DejaVuSans-31"/>
      <use x="506.591796875" xlink:href="#DejaVuSans-31"/>
     </g>
    </g>
    <g id="line2d_57">
     <path d="
M492.499 120.897
L512.659 120.897" style="fill:none;stroke:#bf00bf;stroke-linecap:square;"/>
    </g>
    <g id="line2d_58"/>
    <g id="text_24">
     <!-- locality#12 -->
     <g transform="translate(528.499375 125.9375)scale(0.144 -0.144)">
      <use xlink:href="#DejaVuSans-6c"/>
      <use x="27.783203125" xlink:href="#DejaVuSans-6f"/>
      <use x="88.96484375" xlink:href="#DejaVuSans-63"/>
      <use x="143.9453125" xlink:href="#DejaVuSans-61"/>
      <use x="205.224609375" xlink:href="#DejaVuSans-6c"/>
      <use x="233.0078125" xlink:href="#DejaVuSans-69"/>
      <use x="260.791015625" xlink:href="#DejaVuSans-74"/>
      <use x="300.0" xlink:href="#DejaVuSans-79"/>
      <use x="359.1796875" xlink:href="#DejaVuSans-23"/>
      <use x="442.96875" xlink:href="#DejaVuSans-31"/>
      <use x="506.591796875" xlink:href="#DejaVuSans-32"/>
     </g>
    </g>
    <g id="line2d_59">
     <path d="
M492.499 142.034
L512.659 142.034" style="fill:none;stroke:#bfbf00;stroke-linecap:square;"/>
    </g>
    <g id="line2d_60"/>
    <g id="text_25">
     <!-- locality#13 -->
     <defs>
      <path d="
M40.5781 39.3125
Q47.6562 37.7969 51.625 33
Q55.6094 28.2188 55.6094 21.1875
Q55.6094 10.4062 48.1875 4.48438
Q40.7656 -1.42188 27.0938 -1.42188
Q22.5156 -1.42188 17.6562 -0.515625
Q12.7969 0.390625 7.625 2.20312
L7.625 11.7188
Q11.7188 9.32812 16.5938 8.10938
Q21.4844 6.89062 26.8125 6.89062
Q36.0781 6.89062 40.9375 10.5469
Q45.7969 14.2031 45.7969 21.1875
Q45.7969 27.6406 41.2812 31.2656
Q36.7656 34.9062 28.7188 34.9062
L20.2188 34.9062
L20.2188 43.0156
L29.1094 43.0156
Q36.375 43.0156 40.2344 45.9219
Q44.0938 48.8281 44.0938 54.2969
Q44.0938 59.9062 40.1094 62.9062
Q36.1406 65.9219 28.7188 65.9219
Q24.6562 65.9219 20.0156 65.0312
Q15.375 64.1562 9.8125 62.3125
L9.8125 71.0938
Q15.4375 72.6562 20.3438 73.4375
Q25.25 74.2188 29.5938 74.2188
Q40.8281 74.2188 47.3594 69.1094
Q53.9062 64.0156 53.9062 55.3281
Q53.9062 49.2656 50.4375 45.0938
Q46.9688 40.9219 40.5781 39.3125" id="DejaVuSans-33"/>
     </defs>
     <g transform="translate(528.499375 147.074)scale(0.144 -0.144)">
      <use xlink:href="#DejaVuSans-6c"/>
      <use x="27.783203125" xlink:href="#DejaVuSans-6f"/>
      <use x="88.96484375" xlink:href="#DejaVuSans-63"/>
      <use x="143.9453125" xlink:href="#DejaVuSans-61"/>
      <use x="205.224609375" xlink:href="#DejaVuSans-6c"/>
      <use x="233.0078125" xlink:href="#DejaVuSans-69"/>
      <use x="260.791015625" xlink:href="#DejaVuSans-74"/>
      <use x="300.0" xlink:href="#DejaVuSans-79"/>
      <use x="359.1796875" xlink:href="#DejaVuSans-23"/>
      <use x="442.96875" xlink:href="#DejaVuSans-31"/>
      <use x="506.591796875" xlink:href="#DejaVuSans-33"/>
     </g>
    </g>
    <g id="line2d_61">
     <path d="
M492.499 163.17
L512.659 163.17" style="fill:none;stroke:#000000;stroke-linecap:square;"/>
    </g>
    <g id="line2d_62"/>
    <g id="text_26">
     <!-- locality#14 -->
     <g transform="translate(528.499375 168.2105)scale(0.144 -0.144)">
      <use xlink:href="#DejaVuSans-6c"/>
      <use x="27.783203125" xlink:href="#DejaVuSans-6f"/>
      <use x="88.96484375" xlink:href="#DejaVuSans-63"/>
      <use x="143.9453125" xlink:href="#DejaVuSans-61"/>
      <use x="205.224609375" xlink:href="#DejaVuSans-6c"/>
      <use x="233.0078125" xlink:href="#DejaVuSans-69"/>
      <use x="260.791015625" xlink:href="#DejaVuSans-74"/>
      <use x="300.0" xlink:href="#DejaVuSans-79"/>
      <use x="359.1796875" xlink:href="#DejaVuSans-23"/>
      <use x="442.96875" xlink:href="#DejaVuSans-31"/>
      <use x="506.591796875" xlink:href="#DejaVuSans-34"/>
     </g>
    </g>
    <g id="line2d_63">
     <path d="
M492.499 184.307
L512.659 184.307" style="fill:none;stroke:#0000ff;stroke-linecap:square;"/>
    </g>
    <g id="line2d_64"/>
    <g id="text_27">
     <!-- locality#15 -->
     <g transform="translate(528.499375 189.347)scale(0.144 -0.144)">
      <use xlink:href="#DejaVuSans-6c"/>
      <use x="27.783203125" xlink:href="#DejaVuSans-6f"/>
      <use x="88.96484375" xlink:href="#DejaVuSans-63"/>
      <use x="143.9453125" xlink:href="#DejaVuSans-61"/>
      <use x="205.224609375" xlink:href="#DejaVuSans-6c"/>
      <use x="233.0078125" xlink:href="#DejaVuSans-69"/>
      <use x="260.791015625" xlink:href="#DejaVuSans-74"/>
      <use x="300.0" xlink:href="#DejaVuSans-79"/>
      <use x="359.1796875" xlink:href="#DejaVuSans-23"/>
      <use x="442.96875" xlink:href="#DejaVuSans-31"/>
      <use x="506.591796875" xlink:href="#DejaVuSans-35"/>
     </g>
    </g>
    <g id="line2d_65">
     <path d="
M492.499 205.443
L512.659 205.443" style="fill:none;stroke:#008000;stroke-linecap:square;"/>
    </g>
    <g id="line2d_66"/>
    <g id="text_28">
     <!-- locality#2 -->
     <g transform="translate(528.499375 210.4835)scale(0.144 -0.144)">
      <use xlink:href="#DejaVuSans-6c"/>
      <use x="27.783203125" xlink:href="#DejaVuSans-6f"/>
      <use x="88.96484375" xlink:href="#DejaVuSans-63"/>
      <use x="143.9453125" xlink:href="#DejaVuSans-61"/>
      <use x="205.224609375" xlink:href="#DejaVuSans-6c"/>
      <use x="233.0078125" xlink:href="#DejaVuSans-69"/>
      <use x="260.791015625" xlink:href="#DejaVuSans-74"/>
      <use x="300.0" xlink:href="#DejaVuSans-79"/>
      <use x="359.1796875" xlink:href="#DejaVuSans-23"/>
      <use x="442.96875" xlink:href="#DejaVuSans-32"/>
     </g>
    </g>
    <g id="line2d_67">
     <path d="
M492.499 226.58
L512.659 226.58" style="fill:none;stroke:#ff0000;stroke-linecap:square;"/>
    </g>
    <g id="line2d_68"/>
    <g id="text_29">
     <!-- locality#3 -->
     <g transform="translate(528.499375 231.62)scale(0.144 -0.144)">
      <use xlink:href="#DejaVuSans-6c"/>
      <use x="27.783203125" xlink:href="#DejaVuSans-6f"/>
      <use x="88.96484375" xlink:href="#DejaVuSans-63"/>
      <use x="143.9453125" xlink:href="#DejaVuSans-61"/>
      <use x="205.224609375" xlink:href="#DejaVuSans-6c"/>
      <use x="233.0078125" xlink:href="#DejaVuSans-69"/>
      <use x="260.791015625" xlink:href="#DejaVuSans-74"/>
      <use x="300.0" xlink:href="#DejaVuSans-79"/>
      <use x="359.1796875" xlink:href="#DejaVuSans-23"/>
      <use x="442.96875" xlink:href="#DejaVuSans-33"/>
     </g>
    </g>
    <g id="line2d_69">
     <path d="
M492.499 247.716
L512.659 247.716" style="fill:none;stroke:#00bfbf;stroke-linecap:square;"/>
    </g>
    <g id="line2d_70"/>
    <g id="text_30">
     <!-- locality#4 -->
     <g transform="translate(528.499375 252.7565)scale(0.144 -0.144)">
      <use xlink:href="#DejaVuSans-6c"/>
      <use x="27.783203125" xlink:href="#DejaVuSans-6f"/>
      <use x="88.96484375" xlink:href="#DejaVuSans-63"/>
      <use x="143.9453125" xlink:href="#DejaVuSans-61"/>
      <use x="205.224609375" xlink:href="#DejaVuSans-6c"/>
      <use x="233.0078125" xlink:href="#DejaVuSans-69"/>
      <use x="260.791015625" xlink:href="#DejaVuSans-74"/>
      <use x="300.0" xlink:href="#DejaVuSans-79"/>
      <use x="359.1796875" xlink:href="#DejaVuSans-23"/>
      <use x="442.96875" xlink:href="#DejaVuSans-34"/>
     </g>
    </g>
    <g id="line2d_71">
     <path d="
M492.499 268.853
L512.659 268.853" style="fill:none;stroke:#bf00bf;stroke-linecap:square;"/>
    </g>
    <g id="line2d_72"/>
    <g id="text_31">
     <!-- locality#5 -->
     <g transform="translate(528.499375 273.893)scale(0.144 -0.144)">
      <use xlink:href="#DejaVuSans-6c"/>
      <use x="27.783203125" xlink:href="#DejaVuSans-6f"/>
      <use x="88.96484375" xlink:href="#DejaVuSans-63"/>
      <use x="143.9453125" xlink:href="#DejaVuSans-61"/>
      <use x="205.224609375" xlink:href="#DejaVuSans-6c"/>
      <use x="233.0078125" xlink:href="#DejaVuSans-69"/>
      <use x="260.791015625" xlink:href="#DejaVuSans-74"/>
      <use x="300.0" xlink:href="#DejaVuSans-79"/>
      <use x="359.1796875" xlink:href="#DejaVuSans-23"/>
      <use x="442.96875" xlink:href="#DejaVuSans-35"/>
     </g>
    </g>
    <g id="line2d_73">
     <path d="
M492.499 289.989
L512.659 289.989" style="fill:none;stroke:#bfbf00;stroke-linecap:square;"/>
    </g>
    <g id="line2d_74"/>
    <g id="text_32">
     <!-- locality#6 -->
     <g transform="translate(528.499375 295.0295)scale(0.144 -0.144)">
      <use xlink:href="#DejaVuSans-6c"/>
      <use x="27.783203125" xlink:href="#DejaVuSans-6f"/>
      <use x="88.96484375" xlink:href="#DejaVuSans-63"/>
      <use x="143.9453125" xlink:href="#DejaVuSans-61"/>
      <use x="205.224609375" xlink:href="#DejaVuSans-6c"/>
      <use x="233.0078125" xlink:href="#DejaVuSans-69"/>
      <use x="260.791015625" xlink:href="#DejaVuSans-74"/>
      <use x="300.0" xlink:href="#DejaVuSans-79"/>
      <use x="359.1796875" xlink:href="#DejaVuSans-23"/>
      <use x="442.96875" xlink:href="#DejaVuSans-36"/>
     </g>
    </g>
    <g id="line2d_75">
     <path d="
M492.499 311.126
L512.659 311.126" style="fill:none;stroke:#000000;stroke-linecap:square;"/>
    </g>
    <g id="line2d_76"/>
    <g id="text_33">
     <!-- locality#7 -->
     <defs>
      <path d="
M8.20312 72.9062
L55.0781 72.9062
L55.0781 68.7031
L28.6094 0
L18.3125 0
L43.2188 64.5938
L8.20312 64.5938
z
" id="DejaVuSans-37"/>
     </defs>
     <g transform="translate(528.499375 316.166)scale(0.144 -0.144)">
      <use xlink:href="#DejaVuSans-6c"/>
      <use x="27.783203125" xlink:href="#DejaVuSans-6f"/>
      <use x="88.96484375" xlink:href="#DejaVuSans-63"/>
      <use x="143.9453125" xlink:href="#DejaVuSans-61"/>
      <use x="205.224609375" xlink:href="#DejaVuSans-6c"/>
      <use x="233.0078125" xlink:href="#DejaVuSans-69"/>
      <use x="260.791015625" xlink:href="#DejaVuSans-74"/>
      <use x="300.0" xlink:href="#DejaVuSans-79"/>
      <use x="359.1796875" xlink:href="#DejaVuSans-23"/>
      <use x="442.96875" xlink:href="#DejaVuSans-37"/>
     </g>
    </g>
    <g id="line2d_77">
     <path d="
M492.499 332.262
L512.659 332.262" style="fill:none;stroke:#0000ff;stroke-linecap:square;"/>
    </g>
    <g id="line2d_78"/>
    <g id="text_34">
     <!-- locality#8 -->
     <g transform="translate(528.499375 337.3025)scale(0.144 -0.144)">
      <use xlink:href="#DejaVuSans-6c"/>
      <use x="27.783203125" xlink:href="#DejaVuSans-6f"/>
      <use x="88.96484375" xlink:href="#DejaVuSans-63"/>
      <use x="143.9453125" xlink:href="#DejaVuSans-61"/>
      <use x="205.224609375" xlink:href="#DejaVuSans-6c"/>
      <use x="233.0078125" xlink:href="#DejaVuSans-69"/>
      <use x="260.791015625" xlink:href="#DejaVuSans-74"/>
      <use x="300.0" xlink:href="#DejaVuSans-79"/>
      <use x="359.1796875" xlink:href="#DejaVuSans-23"/>
      <use x="442.96875" xlink:href="#DejaVuSans-38"/>
     </g>
    </g>
    <g id="line2d_79">
     <path d="
M492.499 353.399
L512.659 353.399" style="fill:none;stroke:#008000;stroke-linecap:square;"/>
    </g>
    <g id="line2d_80"/>
    <g id="text_35">
     <!-- locality#9 -->
     <defs>
      <path d="
M10.9844 1.51562
L10.9844 10.5
Q14.7031 8.73438 18.5 7.8125
Q22.3125 6.89062 25.9844 6.89062
Q35.75 6.89062 40.8906 13.4531
Q46.0469 20.0156 46.7812 33.4062
Q43.9531 29.2031 39.5938 26.9531
Q35.25 24.7031 29.9844 24.7031
Q19.0469 24.7031 12.6719 31.3125
Q6.29688 37.9375 6.29688 49.4219
Q6.29688 60.6406 12.9375 67.4219
Q19.5781 74.2188 30.6094 74.2188
Q43.2656 74.2188 49.9219 64.5156
Q56.5938 54.8281 56.5938 36.375
Q56.5938 19.1406 48.4062 8.85938
Q40.2344 -1.42188 26.4219 -1.42188
Q22.7031 -1.42188 18.8906 -0.6875
Q15.0938 0.046875 10.9844 1.51562
M30.6094 32.4219
Q37.25 32.4219 41.125 36.9531
Q45.0156 41.5 45.0156 49.4219
Q45.0156 57.2812 41.125 61.8438
Q37.25 66.4062 30.6094 66.4062
Q23.9688 66.4062 20.0938 61.8438
Q16.2188 57.2812 16.2188 49.4219
Q16.2188 41.5 20.0938 36.9531
Q23.9688 32.4219 30.6094 32.4219" id="DejaVuSans-39"/>
     </defs>
     <g transform="translate(528.499375 358.439)scale(0.144 -0.144)">
      <use xlink:href="#DejaVuSans-6c"/>
      <use x="27.783203125" xlink:href="#DejaVuSans-6f"/>
      <use x="88.96484375" xlink:href="#DejaVuSans-63"/>
      <use x="143.9453125" xlink:href="#DejaVuSans-61"/>
      <use x="205.224609375" xlink:href="#DejaVuSans-6c"/>
      <use x="233.0078125" xlink:href="#DejaVuSans-69"/>
      <use x="260.791015625" xlink:href="#DejaVuSans-74"/>
      <use x="300.0" xlink:href="#DejaVuSans-79"/>
      <use x="359.1796875" xlink:href="#DejaVuSans-23"/>
      <use x="442.96875" xlink:href="#DejaVuSans-39"/>
     </g>
    </g>
   </g>
  </g>
 </g>
 <defs>
  <clipPath id="p8c776b0f9c">
   <rect height="345.6" width="446.4" x="28.819375" y="23.14175"/>
  </clipPath>
 </defs>
</svg>
