<?xml version="1.0" encoding="utf-8" standalone="no"?>
<!DOCTYPE svg PUBLIC "-//W3C//DTD SVG 1.1//EN"
  "http://www.w3.org/Graphics/SVG/1.1/DTD/svg11.dtd">
<!-- Created with matplotlib (http://matplotlib.org/) -->
<svg height="408pt" version="1.1" viewBox="0 0 610 408" width="610pt" xmlns="http://www.w3.org/2000/svg" xmlns:xlink="http://www.w3.org/1999/xlink">
 <defs>
  <style type="text/css">
*{stroke-linecap:butt;stroke-linejoin:round;}
  </style>
 </defs>
 <g id="figure_1">
  <g id="patch_1">
   <path d="
M0 408.169
L610.164 408.169
L610.164 0
L0 0
z
" style="fill:#ffffff;"/>
  </g>
  <g id="axes_1">
   <g id="patch_2">
    <path d="
M17.575 368.742
L463.975 368.742
L463.975 23.1417
L17.575 23.1417
z
" style="fill:#ffffff;"/>
   </g>
   <g id="line2d_1">
    <path clip-path="url(#pf51f381abf)" d="
M17.575 368.659
L21.0285 367.502
L30.6382 364.002
L36.1938 361.914
L46.7044 358.011
L66.224 350.719
L75.8337 347.134
L94.002 340.371
L97.6057 339.024
L101.359 337.618
L110.969 334.018
L114.122 332.832
L122.681 329.588
L134.693 325.019
L140.849 322.666
L151.21 318.671
L168.477 311.691
L176.435 308.67
L181.54 306.653
L188.898 303.852
L209.769 295.706
L228.838 287.862
L254.214 277.489
L273.883 268.351
L278.388 266.488
L284.094 263.909
L295.505 258.501
L298.058 257.309
L311.722 251.268
L317.427 248.496
L361.271 228.344
L374.184 221.628
L385.746 216.078
L391.452 213.163
L397.908 209.75
L401.212 207.96
L410.371 203.715
L416.527 200.741
L422.984 197.526
L425.686 196.129
L432.143 192.673
L434.846 191.142
L437.849 189.389
L439.951 188.136
L444.305 186.184
L456.768 180.575
L460.972 178.649
L463.975 177.259
L463.975 177.259" style="fill:none;stroke:#0000ff;stroke-linecap:square;"/>
   </g>
   <g id="line2d_2">
    <path clip-path="url(#pf51f381abf)" d="
M17.575 368.728
L25.9835 366.737
L37.395 363.654
L41.1488 362.622
L44.3019 361.761
L52.4101 359.517
L136.495 336.543
L140.399 335.423
L142.951 334.741
L154.063 331.614
L159.918 329.853
L162.471 329.153
L168.928 327.287
L173.732 325.926
L176.435 325.188
L245.355 305.294
L259.619 300.812
L278.688 294.993
L291.902 290.721
L297.908 288.902
L303.463 287.193
L305.265 286.605
L324.334 280.071
L335.896 276.422
L342.653 274.359
L359.92 269.193
L365.025 267.484
L369.38 265.931
L371.482 265.185
L374.785 264.139
L378.839 262.867
L384.695 260.937
L387.248 260.101
L389.35 259.447
L395.206 257.619
L402.413 255.086
L404.215 254.427
L412.323 251.432
L417.428 249.601
L427.939 246.172
L432.143 244.59
L448.66 237.922
L456.768 234.505
L459.921 233.113
L463.975 231.378
L463.975 231.378" style="fill:none;stroke:#008000;stroke-linecap:square;"/>
   </g>
   <g id="line2d_3">
    <path clip-path="url(#pf51f381abf)" d="
M17.575 368.717
L19.0765 368.215
L24.1817 366.436
L26.8844 365.419
L32.44 363.215
L34.392 362.433
L42.6503 359.136
L72.8307 346.819
L75.2331 345.812
L77.3352 344.922
L80.1881 343.648
L85.8939 341.329
L88.8969 340.07
L90.8489 339.308
L93.5516 338.219
L96.2543 337.119
L100.158 335.375
L102.711 334.167
L104.362 333.375
L105.564 332.873
L114.873 329.058
L120.729 326.343
L123.282 325.186
L128.687 322.856
L137.696 318.347
L142.351 315.807
L153.012 311.503
L155.564 310.478
L160.219 308.356
L163.222 307.039
L182.892 298.711
L187.847 296.308
L194.453 292.721
L198.357 290.355
L201.811 288.885
L231.24 276.001
L238.598 272.14
L245.955 267.614
L246.856 267.075
L251.361 265.061
L255.565 263.008
L259.018 261.345
L263.223 259.504
L275.535 254.004
L283.493 250.146
L287.697 248.3
L292.352 246.085
L297.157 243.533
L300.61 241.727
L307.667 238.505
L314.875 234.687
L316.226 234.032
L321.031 231.859
L325.836 229.448
L329.59 227.634
L334.244 225.405
L339.65 222.562
L342.202 221.303
L347.157 219.022
L351.361 216.857
L357.067 213.582
L360.671 211.274
L362.172 210.211
L367.728 206.43
L370.281 205.177
L374.935 202.638
L384.545 197.302
L388.899 194.68
L392.503 192.564
L396.857 189.75
L402.563 185.477
L405.266 184.197
L415.176 178.933
L421.933 174.811
L429.29 170.125
L431.692 168.903
L440.551 163.592
L445.657 160.196
L449.711 157.481
L452.714 155.441
L457.669 153.075
L462.173 150.692
L463.975 149.665
L463.975 149.665" style="fill:none;stroke:#ff0000;stroke-linecap:square;"/>
   </g>
   <g id="line2d_4">
    <path clip-path="url(#pf51f381abf)" d="
M17.575 368.726
L31.6892 363.515
L35.7433 361.864
L45.5032 357.888
L47.1548 357.233
L49.7074 356.166
L56.9147 353.193
L62.3201 350.932
L65.4733 349.55
L67.4253 348.757
L72.0799 346.897
L74.7827 345.782
L78.5365 344.136
L80.038 343.529
L82.7407 342.455
L84.2422 341.846
L87.3954 340.539
L107.215 332.282
L109.317 331.275
L113.071 329.423
L113.972 329.004
L115.924 328.221
L118.327 327.168
L129.137 322.794
L132.891 321.075
L134.393 320.464
L136.495 319.567
L138.447 318.718
L150.459 313.783
L153.612 312.476
L156.015 311.432
L160.219 309.684
L167.126 306.727
L173.732 303.856
L175.084 303.292
L199.258 293.159
L207.216 289.588
L211.871 287.187
L215.324 285.458
L218.177 284.297
L222.832 282.271
L225.985 280.942
L238.298 274.753
L247.907 268.789
L249.409 267.827
L253.012 266.245
L258.718 263.46
L265.475 259.737
L271.181 256.25
L274.634 254.012
L277.337 252.397
L283.944 249.283
L287.697 247.314
L294.604 243.38
L302.112 238.438
L310.37 232.723
L314.424 230.862
L318.929 228.593
L322.683 226.532
L326.737 224.132
L331.692 220.939
L347.157 209.973
L348.208 209.294
L353.764 206.786
L359.47 204.128
L363.524 202.194
L371.482 198.258
L373.584 197.114
L375.986 195.755
L378.088 194.488
L382.743 191.437
L385.296 189.69
L387.698 188.519
L389.8 187.569
L398.509 183.525
L401.662 181.871
L411.722 176.21
L419.23 172.784
L423.885 170.519
L426.737 169.115
L430.041 167.512
L432.744 166.049
L434.996 164.773
L442.654 159.891
L443.705 159.197
L460.221 151.535
L462.323 150.557
L463.975 149.817
L463.975 149.817" style="fill:none;stroke:#00bfbf;stroke-linecap:square;"/>
   </g>
   <g id="line2d_5">
    <path clip-path="url(#pf51f381abf)" d="
M17.575 368.719
L20.7282 367.754
L27.6351 365.613
L33.9415 363.407
L65.0228 352.396
L69.2271 350.927
L75.6836 348.679
L79.4374 347.339
L85.8939 345.082
L90.0981 343.627
L92.0501 342.933
L94.7528 341.96
L99.4075 340.305
L103.762 338.777
L107.816 337.315
L114.573 334.877
L116.375 334.228
L121.48 332.452
L123.282 331.813
L137.846 326.455
L139.798 325.784
L142.201 324.943
L144.453 324.121
L149.558 322.302
L151.96 321.491
L195.655 305.513
L202.411 302.915
L208.718 300.579
L212.321 299.232
L215.625 297.996
L224.484 294.585
L226.736 293.739
L233.643 291.043
L237.697 289.504
L241.15 288.147
L247.006 285.856
L285.745 270.324
L296.556 265.796
L299.709 264.486
L307.517 261.26
L312.622 258.91
L314.875 257.956
L326.737 252.966
L331.692 250.783
L337.548 248.296
L345.506 244.83
L352.863 241.762
L358.118 239.65
L361.722 238.145
L365.326 236.566
L375.836 231.089
L377.938 230.049
L380.491 228.867
L383.644 227.333
L385.596 226.419
L388.149 225.312
L394.905 222.554
L399.71 220.338
L404.365 217.939
L405.566 217.333
L409.921 215.521
L413.975 213.713
L418.179 211.671
L422.683 209.537
L436.798 203.477
L438.9 202.516
L441.302 201.382
L444.005 200.049
L451.663 196.642
L463.975 191.673
L463.975 191.673" style="fill:none;stroke:#bf00bf;stroke-linecap:square;"/>
   </g>
   <g id="line2d_6">
    <path clip-path="url(#pf51f381abf)" d="
M17.575 368.725
L29.2868 364.984
L54.8125 355.82
L60.0678 353.975
L63.0709 352.861
L65.0228 352.175
L71.179 350.019
L73.4313 349.25
L76.4343 348.168
L78.086 347.572
L81.2392 346.482
L92.0501 342.705
L95.5036 341.485
L97.6057 340.737
L99.7078 339.963
L102.711 338.896
L104.513 338.259
L107.966 337.009
L115.023 334.522
L118.026 333.428
L122.08 331.986
L125.384 330.781
L128.687 329.601
L137.246 326.52
L139.047 325.88
L154.963 320.028
L157.066 319.272
L160.97 317.835
L183.492 309.497
L201.51 302.683
L204.213 301.717
L208.568 300.117
L211.42 299.042
L230.339 291.898
L232.892 290.876
L234.994 290.098
L242.051 287.336
L257.667 281.057
L271.781 275.049
L281.541 271.081
L287.697 268.308
L291.902 266.475
L296.706 264.386
L307.818 258.892
L314.424 255.098
L318.929 252.261
L322.232 250.284
L330.641 246.714
L336.346 244.025
L345.806 239.544
L351.512 237.169
L363.374 232.18
L367.127 230.519
L370.581 228.97
L372.833 227.924
L375.686 226.616
L389.5 220.188
L397.308 216.962
L400.311 215.589
L404.215 213.683
L407.068 212.383
L414.275 209.423
L421.482 206.486
L428.389 203.687
L432.293 201.939
L434.695 200.847
L440.401 197.985
L444.455 196.187
L463.975 188.062
L463.975 188.062" style="fill:none;stroke:#bfbf00;stroke-linecap:square;"/>
   </g>
   <g id="line2d_7">
    <path clip-path="url(#pf51f381abf)" d="
M17.575 368.63
L22.0795 367.477
L26.4339 366.245
L31.8394 364.526
L33.9415 363.857
L68.6265 352.703
L71.7796 351.697
L74.4824 350.848
L78.8368 349.414
L84.2422 347.723
L87.3954 346.69
L123.131 335.154
L127.185 333.829
L142.801 328.728
L145.354 327.884
L162.922 322.154
L164.723 321.571
L168.777 320.222
L182.141 315.909
L195.054 311.591
L198.658 310.319
L241.601 295.375
L271.331 284.544
L277.637 282.273
L288.448 278.374
L294.154 276.308
L309.169 270.699
L352.563 254.837
L361.572 251.493
L375.536 246.003
L389.049 240.345
L409.77 232.256
L412.924 231.059
L418.479 228.913
L422.984 227.091
L429.59 224.608
L438.149 221.062
L439.65 220.412
L444.155 218.567
L453.915 215.016
L463.975 211.383
L463.975 211.383" style="fill:none;stroke:#000000;stroke-linecap:square;"/>
   </g>
   <g id="line2d_8">
    <path clip-path="url(#pf51f381abf)" d="
M17.575 368.731
L19.0765 368.371
L25.9835 366.742
L30.3379 365.574
L32.8904 364.881
L42.0497 362.391
L55.1128 358.852
L63.0709 356.683
L65.6234 356.001
L71.7796 354.321
L75.3833 353.362
L80.7887 351.898
L84.8428 350.803
L89.3474 349.579
L93.4014 348.447
L98.2063 347.155
L104.963 345.312
L109.167 344.167
L112.921 343.131
L118.927 341.483
L122.681 340.46
L126.735 339.332
L134.393 337.216
L137.546 336.31
L140.399 335.519
L143.102 334.785
L146.105 333.889
L151.96 332.184
L163.522 329.03
L167.426 327.98
L185.144 323.164
L195.655 320.199
L207.667 316.805
L220.279 313.249
L248.358 304.917
L271.781 297.793
L287.547 293.274
L289.649 292.654
L311.421 285.952
L365.326 269.361
L367.127 268.726
L371.482 267.253
L373.584 266.527
L377.188 265.262
L380.191 264.158
L383.644 262.782
L386.046 261.781
L388.599 260.757
L393.704 258.728
L399.56 256.202
L400.611 255.838
L434.545 245.012
L442.654 242.153
L444.305 241.635
L459.921 236.903
L463.975 235.584
L463.975 235.584" style="fill:none;stroke:#0000ff;stroke-linecap:square;"/>
   </g>
   <g id="line2d_9">
    <path clip-path="url(#pf51f381abf)" d="
M17.575 368.73
L20.7282 368.028
L27.9354 366.402
L91.2993 350.44
L93.8519 349.795
L106.314 346.56
L108.417 345.99
L112.02 345.072
L121.029 342.768
L123.582 342.068
L131.54 339.845
L134.243 339.151
L150.159 334.946
L193.853 323.756
L205.114 320.705
L211.27 319.061
L214.874 318.133
L218.628 317.18
L222.982 316.025
L226.586 315.022
L230.339 313.909
L232.291 313.383
L240.85 311.05
L246.105 309.571
L255.565 306.999
L265.175 304.293
L273.583 301.667
L280.64 299.34
L291.451 296.418
L310.52 291.101
L323.133 287.087
L330.34 284.6
L334.995 283.086
L346.406 279.858
L358.719 276.062
L367.728 272.954
L373.584 270.967
L384.395 267.69
L387.848 266.561
L396.557 264.1
L402.863 262.077
L411.272 259.34
L423.434 255.128
L428.99 253.572
L432.894 252.353
L449.11 246.852
L462.173 242.182
L463.975 241.508
L463.975 241.508" style="fill:none;stroke:#008000;stroke-linecap:square;"/>
   </g>
   <g id="line2d_10">
    <path clip-path="url(#pf51f381abf)" d="
M17.575 368.725
L28.536 366.069
L40.0977 362.82
L46.4041 361.062
L54.8125 358.652
L61.7195 356.747
L69.8277 354.488
L73.2812 353.553
L80.4884 351.504
L83.4914 350.693
L94.4525 347.65
L96.8549 346.977
L103.011 345.234
L106.014 344.353
L111.269 342.825
L119.227 340.545
L129.588 337.535
L134.092 336.251
L156.615 329.813
L159.018 329.128
L164.423 327.539
L166.675 326.878
L168.477 326.353
L171.48 325.527
L178.387 323.567
L181.54 322.673
L197.606 317.813
L217.877 311.797
L239.198 305.373
L266.826 296.899
L275.085 294.042
L281.841 291.688
L288.598 289.643
L297.157 286.974
L305.715 284.325
L312.022 282.221
L318.929 279.767
L329.59 275.69
L335.746 273.377
L350.761 268.919
L357.668 266.648
L364.124 264.326
L367.278 263.109
L374.184 260.96
L377.488 259.852
L380.191 258.98
L389.35 255.755
L393.104 254.523
L399.56 252.498
L404.966 250.713
L412.773 248.245
L416.527 246.977
L420.431 245.767
L429.14 243.021
L433.044 241.765
L456.918 233.721
L462.023 231.808
L463.975 231.054
L463.975 231.054" style="fill:none;stroke:#ff0000;stroke-linecap:square;"/>
   </g>
   <g id="line2d_11">
    <path clip-path="url(#pf51f381abf)" d="
M17.575 368.728
L23.8814 367.181
L28.3859 365.94
L36.9445 363.406
L53.7615 358.453
L67.2751 354.468
L99.4075 345.059
L103.011 343.981
L105.263 343.318
L112.17 341.27
L114.423 340.618
L152.411 329.151
L158.567 327.143
L160.669 326.52
L175.084 322.251
L181.69 320.277
L194.754 316.105
L196.856 315.428
L204.513 312.974
L208.868 311.629
L222.231 307.386
L231.24 304.014
L238.448 301.046
L241 300.208
L253.012 296.063
L259.018 293.775
L272.832 288.115
L273.883 287.744
L279.889 285.835
L285.895 283.764
L291.751 281.587
L303.163 276.894
L318.328 270.318
L323.433 268.677
L331.241 265.942
L338.448 263.198
L354.214 256.547
L358.419 254.867
L364.124 253.029
L367.127 251.981
L371.031 250.53
L372.833 249.813
L377.037 248.088
L379.89 246.83
L402.413 236.203
L403.914 235.462
L416.677 229.079
L424.785 226.38
L430.491 224.238
L433.644 222.936
L436.647 221.628
L438.75 220.678
L441.002 219.636
L445.807 217.494
L451.212 215.153
L456.918 212.609
L463.975 209.381
L463.975 209.381" style="fill:none;stroke:#00bfbf;stroke-linecap:square;"/>
   </g>
   <g id="line2d_12">
    <path clip-path="url(#pf51f381abf)" d="
M17.575 368.73
L25.0826 366.663
L27.6351 365.879
L33.0406 364.159
L36.7944 362.964
L43.5512 360.804
L45.9536 360.029
L50.0077 358.729
L53.7615 357.51
L58.5663 355.99
L66.224 353.54
L71.3292 351.902
L75.3833 350.612
L78.6866 349.542
L82.1401 348.444
L84.2422 347.784
L88.4464 346.428
L91.1492 345.571
L96.5546 343.82
L101.51 342.226
L104.813 341.172
L112.02 338.823
L115.774 337.524
L117.726 336.905
L124.783 334.629
L126.735 333.984
L130.489 332.75
L132.741 332.017
L168.627 319.737
L170.88 318.899
L173.132 318.033
L175.234 317.251
L183.042 314.726
L186.645 313.529
L188.597 312.895
L196.405 310.111
L198.958 309.238
L209.318 305.658
L211.42 304.85
L214.874 303.591
L216.826 302.964
L227.487 299.348
L232.892 297.311
L234.694 296.608
L238.598 295.026
L253.463 288.547
L258.117 286.87
L263.223 284.907
L270.88 281.722
L285.145 275.037
L294.004 270.518
L301.812 266.261
L304.064 265.037
L310.67 262.64
L319.379 259.174
L325.085 256.655
L333.644 252.622
L339.65 249.642
L354.515 241.551
L361.121 237.52
L362.773 236.449
L364.725 235.168
L366.076 234.24
L370.581 231.041
L372.683 229.468
L374.034 228.438
L375.836 226.999
L378.539 224.788
L379.44 223.984
L381.091 222.593
L383.043 220.897
L384.395 219.76
L385.896 218.431
L391.902 216.222
L397.158 214.152
L400.761 212.593
L403.614 211.27
L410.521 208.017
L428.84 198.809
L431.993 196.972
L433.344 196.153
L440.251 191.839
L441.602 190.93
L443.705 189.577
L444.906 188.825
L448.359 186.647
L450.161 185.509
L453.615 183.269
L460.221 178.443
L463.525 175.799
L463.975 175.438
L463.975 175.438" style="fill:none;stroke:#bf00bf;stroke-linecap:square;"/>
   </g>
   <g id="line2d_13">
    <path clip-path="url(#pf51f381abf)" d="
M17.575 368.663
L25.2327 366.438
L28.0856 365.53
L39.9476 361.609
L50.4581 358.131
L52.5603 357.432
L58.266 355.562
L98.8069 342.028
L100.759 341.371
L105.113 339.883
L107.215 339.174
L109.017 338.563
L162.621 320.047
L167.576 318.363
L171.78 316.938
L175.985 315.514
L178.687 314.618
L181.09 313.804
L198.057 307.67
L201.961 306.111
L210.97 303.065
L215.775 301.455
L219.078 300.363
L238.298 293.307
L241.751 291.862
L248.358 289.128
L251.961 287.784
L257.367 285.605
L268.478 280.678
L274.334 278.485
L283.793 274.806
L289.499 272.645
L292.352 271.6
L301.661 268.259
L306.616 266.382
L310.37 264.861
L315.926 262.422
L321.181 260.04
L326.436 258.092
L330.791 256.346
L336.346 253.906
L343.554 250.446
L356.166 244.077
L360.671 242.378
L362.473 241.636
L370.581 238.004
L372.833 236.863
L375.536 235.448
L383.194 231.001
L387.848 228.109
L393.404 224.975
L400.611 220.426
L403.014 218.82
L406.767 217.396
L418.179 212.631
L426.437 208.631
L433.494 204.726
L436.047 203.216
L438.449 201.771
L452.413 192.879
L454.365 191.54
L458.419 188.601
L459.47 187.802
L463.975 184.23
L463.975 184.23" style="fill:none;stroke:#bfbf00;stroke-linecap:square;"/>
   </g>
   <g id="line2d_14">
    <path clip-path="url(#pf51f381abf)" d="
M17.575 368.719
L19.6771 367.981
L32.1397 363.402
L38.5962 360.811
L46.7044 357.579
L49.7074 356.371
L53.9116 354.648
L56.1639 353.777
L75.6836 346.009
L78.8368 344.67
L82.2902 343.202
L85.7437 341.646
L90.8489 339.624
L92.5005 338.962
L95.954 337.595
L97.906 336.779
L106.314 333.394
L107.666 332.836
L115.774 329.412
L118.026 328.509
L120.279 327.619
L121.93 326.971
L124.783 325.836
L126.585 325.102
L136.345 321.063
L139.648 319.665
L141.3 318.984
L157.366 311.739
L164.273 308.009
L166.525 306.788
L168.027 305.905
L169.078 305.38
L172.832 303.818
L175.985 302.386
L178.387 301.263
L181.24 299.887
L186.045 297.39
L193.853 293.083
L199.108 289.884
L201.06 288.732
L205.114 286.989
L208.568 285.4
L213.523 282.95
L218.928 280.076
L229.589 273.61
L231.691 272.266
L238.147 269.407
L241.901 267.56
L253.012 261.484
L262.172 255.813
L265.625 253.354
L273.133 247.097
L276.586 243.945
L278.388 242.248
L280.34 240.343
L281.691 238.925
L284.244 236.256
L288.448 231.747
L292.502 229.936
L300.31 226.117
L306.166 222.899
L318.628 215.312
L322.082 213.002
L329.89 207.328
L336.346 202.068
L339.349 198.982
L346.557 191.131
L363.374 170.616
L364.875 168.622
L371.181 160.426
L373.584 156.942
L374.335 155.853
L375.836 153.724
L377.488 151.368
L378.689 149.746
L384.545 141.082
L386.647 137.847
L387.248 137.005
L387.698 136.349
L388.899 135.836
L393.254 133.917
L399.41 130.872
L412.473 123.233
L419.83 118.534
L428.84 112.278
L430.491 110.96
L432.443 109.362
L434.545 107.592
L435.596 106.686
L444.605 98.012
L453.314 88.313
L459.771 85.411
L463.825 83.363
L463.975 83.2831
L463.975 83.2831" style="fill:none;stroke:#000000;stroke-linecap:square;"/>
   </g>
   <g id="line2d_15">
    <path clip-path="url(#pf51f381abf)" d="
M17.575 368.648
L28.536 364.695
L95.8039 337.097
L110.519 330.399
L112.17 329.618
L113.522 329.057
L116.975 327.602
L118.927 326.792
L120.729 325.996
L123.732 324.761
L125.384 324.094
L154.963 311.068
L156.165 310.523
L161.27 308.005
L168.928 303.91
L169.828 303.439
L178.687 299.74
L193.853 292.945
L197.456 290.998
L209.318 284.084
L212.021 282.379
L213.973 281.569
L222.832 277.461
L225.985 275.805
L237.697 268.758
L246.706 262.344
L254.214 256.27
L254.814 255.767
L261.421 252.739
L266.826 249.95
L272.682 246.533
L276.586 244.039
L287.397 236.555
L289.349 234.906
L295.355 229.308
L298.358 226.332
L301.211 223.425
L302.412 222.189
L304.214 220.274
L305.866 218.338
L310.37 212.827
L314.875 206.676
L321.031 198.315
L323.133 195.477
L324.334 193.88
L325.986 191.701
L329.59 186.705
L330.941 184.825
L334.394 179.769
L335.896 177.574
L336.947 175.998
L341.451 173.954
L347.608 170.819
L352.262 168.188
L356.467 165.599
L359.019 163.937
L362.923 161.25
L367.578 157.751
L369.53 156.097
L371.482 154.399
L372.833 153.17
L375.536 150.648
L377.638 148.496
L380.791 145.247
L386.347 138.864
L395.206 127.88
L400.761 119.608
L401.962 117.731
L403.464 115.562
L404.365 114.189
L404.966 113.173
L406.317 111.261
L406.617 110.733
L408.569 107.904
L409.32 106.776
L416.077 96.207
L419.83 90.8102
L424.635 83.6316
L425.386 82.46
L425.987 81.4608
L428.539 77.5634
L431.843 72.0274
L433.194 69.5884
L442.353 53.2247
L443.254 51.5293
L443.554 51.2761
L448.96 48.7087
L455.116 45.4285
L459.17 43.0661
L462.473 40.9614
L463.975 39.9794
L463.975 39.9794" style="fill:none;stroke:#0000ff;stroke-linecap:square;"/>
   </g>
   <g id="line2d_16">
    <path clip-path="url(#pf51f381abf)" d="
M17.575 368.731
L19.8273 367.982
L23.2808 366.716
L26.8844 365.218
L36.0436 361.104
L46.8545 356.244
L57.215 351.545
L83.4914 339.377
L86.1942 338.116
L89.7978 336.512
L95.5036 333.936
L97.1552 333.201
L109.468 327.174
L110.969 326.471
L112.771 325.656
L119.528 322.387
L121.029 321.658
L122.981 320.788
L133.041 315.858
L138.297 312.965
L145.804 309.346
L153.312 305.226
L156.615 303.203
L157.516 302.627
L162.171 299.86
L165.024 298.527
L171.78 295.038
L184.243 287.385
L186.195 286.051
L191 282.625
L195.204 279.185
L196.255 278.246
L197.757 276.977
L206.315 272.753
L216.826 266.551
L225.384 260.823
L230.94 256.435
L233.643 254.071
L238.748 249.233
L246.856 240.571
L248.508 238.636
L249.409 237.537
L250.46 236.228
L251.661 234.712
L252.562 233.584
L253.313 232.569
L255.265 230.075
L257.517 227.094
L258.418 225.94
L263.823 219.071
L267.127 217.524
L273.583 214.205
L282.442 208.843
L293.103 201.314
L295.505 199.444
L300.76 194.91
L309.619 186.136
L316.977 177.76
L317.577 177.089
L323.884 173.964
L328.989 171.121
L333.944 168.082
L340.851 163.48
L347.157 159.087
L355.115 152.812
L360.671 147.688
L361.422 146.9
L363.974 144.279
L365.326 142.778
L370.881 136.096
L378.839 125.125
L380.341 123.015
L380.791 122.36
L381.992 120.403
L383.344 118.267
L384.245 116.876
L384.845 115.956
L385.596 114.751
L388.749 109.998
L394.455 101.872
L395.806 99.9064
L401.062 91.6446
L401.662 90.7416
L401.962 90.1166
L403.764 87.2619
L404.515 86.0326
L405.716 84.0809
L406.017 83.8518
L411.722 80.9399
L416.677 78.1292
L419.981 76.1153
L423.434 73.8615
L428.539 70.3048
L430.641 68.7303
L432.744 67.0942
L434.695 65.5202
L441.302 59.6322
L442.053 58.8827
L444.305 56.6773
L446.107 55.0604
L453.164 48.3212
L454.215 47.0578
L455.717 45.1767
L457.669 42.6647
L463.975 34.1901
L463.975 34.1901" style="fill:none;stroke:#008000;stroke-linecap:square;"/>
   </g>
   <g id="patch_3">
    <path d="
M17.575 23.1417
L463.975 23.1417" style="fill:none;stroke:#000000;stroke-linecap:square;stroke-linejoin:miter;"/>
   </g>
   <g id="patch_4">
    <path d="
M463.975 368.742
L463.975 23.1417" style="fill:none;stroke:#000000;stroke-linecap:square;stroke-linejoin:miter;"/>
   </g>
   <g id="patch_5">
    <path d="
M17.575 368.742
L463.975 368.742" style="fill:none;stroke:#000000;stroke-linecap:square;stroke-linejoin:miter;"/>
   </g>
   <g id="patch_6">
    <path d="
M17.575 368.742
L17.575 23.1417" style="fill:none;stroke:#000000;stroke-linecap:square;stroke-linejoin:miter;"/>
   </g>
   <g id="matplotlib.axis_1">
    <g id="xtick_1">
     <g id="line2d_17">
      <defs>
       <path d="
M0 0
L0 -4" id="m93b0483c22" style="stroke:#000000;stroke-width:0.5;"/>
      </defs>
      <g>
       <use style="stroke:#000000;stroke-width:0.5;" x="17.575" xlink:href="#m93b0483c22" y="368.74175"/>
      </g>
     </g>
     <g id="line2d_18">
      <defs>
       <path d="
M0 0
L0 4" id="m741efc42ff" style="stroke:#000000;stroke-width:0.5;"/>
      </defs>
      <g>
       <use style="stroke:#000000;stroke-width:0.5;" x="17.575" xlink:href="#m741efc42ff" y="23.14175"/>
      </g>
     </g>
     <g id="text_1">
      <!-- 0 -->
      <defs>
       <path d="
M31.7812 66.4062
Q24.1719 66.4062 20.3281 58.9062
Q16.5 51.4219 16.5 36.375
Q16.5 21.3906 20.3281 13.8906
Q24.1719 6.39062 31.7812 6.39062
Q39.4531 6.39062 43.2812 13.8906
Q47.125 21.3906 47.125 36.375
Q47.125 51.4219 43.2812 58.9062
Q39.4531 66.4062 31.7812 66.4062
M31.7812 74.2188
Q44.0469 74.2188 50.5156 64.5156
Q56.9844 54.8281 56.9844 36.375
Q56.9844 17.9688 50.5156 8.26562
Q44.0469 -1.42188 31.7812 -1.42188
Q19.5312 -1.42188 13.0625 8.26562
Q6.59375 17.9688 6.59375 36.375
Q6.59375 54.8281 13.0625 64.5156
Q19.5312 74.2188 31.7812 74.2188" id="DejaVuSans-30"/>
      </defs>
      <g transform="translate(14.5515625 381.859875)scale(0.12 -0.12)">
       <use xlink:href="#DejaVuSans-30"/>
      </g>
     </g>
    </g>
    <g id="xtick_2">
     <g id="line2d_19">
      <g>
       <use style="stroke:#000000;stroke-width:0.5;" x="92.6506811302" xlink:href="#m93b0483c22" y="368.74175"/>
      </g>
     </g>
     <g id="line2d_20">
      <g>
       <use style="stroke:#000000;stroke-width:0.5;" x="92.6506811302" xlink:href="#m741efc42ff" y="23.14175"/>
      </g>
     </g>
     <g id="text_2">
      <!-- 500 -->
      <defs>
       <path d="
M10.7969 72.9062
L49.5156 72.9062
L49.5156 64.5938
L19.8281 64.5938
L19.8281 46.7344
Q21.9688 47.4688 24.1094 47.8281
Q26.2656 48.1875 28.4219 48.1875
Q40.625 48.1875 47.75 41.5
Q54.8906 34.8125 54.8906 23.3906
Q54.8906 11.625 47.5625 5.09375
Q40.2344 -1.42188 26.9062 -1.42188
Q22.3125 -1.42188 17.5469 -0.640625
Q12.7969 0.140625 7.71875 1.70312
L7.71875 11.625
Q12.1094 9.23438 16.7969 8.0625
Q21.4844 6.89062 26.7031 6.89062
Q35.1562 6.89062 40.0781 11.3281
Q45.0156 15.7656 45.0156 23.3906
Q45.0156 31 40.0781 35.4375
Q35.1562 39.8906 26.7031 39.8906
Q22.75 39.8906 18.8125 39.0156
Q14.8906 38.1406 10.7969 36.2812
z
" id="DejaVuSans-35"/>
      </defs>
      <g transform="translate(82.0597436302 381.859875)scale(0.12 -0.12)">
       <use xlink:href="#DejaVuSans-35"/>
       <use x="63.623046875" xlink:href="#DejaVuSans-30"/>
       <use x="127.24609375" xlink:href="#DejaVuSans-30"/>
      </g>
     </g>
    </g>
    <g id="xtick_3">
     <g id="line2d_21">
      <g>
       <use style="stroke:#000000;stroke-width:0.5;" x="167.72636226" xlink:href="#m93b0483c22" y="368.74175"/>
      </g>
     </g>
     <g id="line2d_22">
      <g>
       <use style="stroke:#000000;stroke-width:0.5;" x="167.72636226" xlink:href="#m741efc42ff" y="23.14175"/>
      </g>
     </g>
     <g id="text_3">
      <!-- 1000 -->
      <defs>
       <path d="
M12.4062 8.29688
L28.5156 8.29688
L28.5156 63.9219
L10.9844 60.4062
L10.9844 69.3906
L28.4219 72.9062
L38.2812 72.9062
L38.2812 8.29688
L54.3906 8.29688
L54.3906 0
L12.4062 0
z
" id="DejaVuSans-31"/>
      </defs>
      <g transform="translate(153.51386226 381.859875)scale(0.12 -0.12)">
       <use xlink:href="#DejaVuSans-31"/>
       <use x="63.623046875" xlink:href="#DejaVuSans-30"/>
       <use x="127.24609375" xlink:href="#DejaVuSans-30"/>
       <use x="190.869140625" xlink:href="#DejaVuSans-30"/>
      </g>
     </g>
    </g>
    <g id="xtick_4">
     <g id="line2d_23">
      <g>
       <use style="stroke:#000000;stroke-width:0.5;" x="242.802043391" xlink:href="#m93b0483c22" y="368.74175"/>
      </g>
     </g>
     <g id="line2d_24">
      <g>
       <use style="stroke:#000000;stroke-width:0.5;" x="242.802043391" xlink:href="#m741efc42ff" y="23.14175"/>
      </g>
     </g>
     <g id="text_4">
      <!-- 1500 -->
      <g transform="translate(228.589543391 381.859875)scale(0.12 -0.12)">
       <use xlink:href="#DejaVuSans-31"/>
       <use x="63.623046875" xlink:href="#DejaVuSans-35"/>
       <use x="127.24609375" xlink:href="#DejaVuSans-30"/>
       <use x="190.869140625" xlink:href="#DejaVuSans-30"/>
      </g>
     </g>
    </g>
    <g id="xtick_5">
     <g id="line2d_25">
      <g>
       <use style="stroke:#000000;stroke-width:0.5;" x="317.877724521" xlink:href="#m93b0483c22" y="368.74175"/>
      </g>
     </g>
     <g id="line2d_26">
      <g>
       <use style="stroke:#000000;stroke-width:0.5;" x="317.877724521" xlink:href="#m741efc42ff" y="23.14175"/>
      </g>
     </g>
     <g id="text_5">
      <!-- 2000 -->
      <defs>
       <path d="
M19.1875 8.29688
L53.6094 8.29688
L53.6094 0
L7.32812 0
L7.32812 8.29688
Q12.9375 14.1094 22.625 23.8906
Q32.3281 33.6875 34.8125 36.5312
Q39.5469 41.8438 41.4219 45.5312
Q43.3125 49.2188 43.3125 52.7812
Q43.3125 58.5938 39.2344 62.25
Q35.1562 65.9219 28.6094 65.9219
Q23.9688 65.9219 18.8125 64.3125
Q13.6719 62.7031 7.8125 59.4219
L7.8125 69.3906
Q13.7656 71.7812 18.9375 73
Q24.125 74.2188 28.4219 74.2188
Q39.75 74.2188 46.4844 68.5469
Q53.2188 62.8906 53.2188 53.4219
Q53.2188 48.9219 51.5312 44.8906
Q49.8594 40.875 45.4062 35.4062
Q44.1875 33.9844 37.6406 27.2188
Q31.1094 20.4531 19.1875 8.29688" id="DejaVuSans-32"/>
      </defs>
      <g transform="translate(303.445849521 381.859875)scale(0.12 -0.12)">
       <use xlink:href="#DejaVuSans-32"/>
       <use x="63.623046875" xlink:href="#DejaVuSans-30"/>
       <use x="127.24609375" xlink:href="#DejaVuSans-30"/>
       <use x="190.869140625" xlink:href="#DejaVuSans-30"/>
      </g>
     </g>
    </g>
    <g id="xtick_6">
     <g id="line2d_27">
      <g>
       <use style="stroke:#000000;stroke-width:0.5;" x="392.953405651" xlink:href="#m93b0483c22" y="368.74175"/>
      </g>
     </g>
     <g id="line2d_28">
      <g>
       <use style="stroke:#000000;stroke-width:0.5;" x="392.953405651" xlink:href="#m741efc42ff" y="23.14175"/>
      </g>
     </g>
     <g id="text_6">
      <!-- 2500 -->
      <g transform="translate(378.521530651 381.859875)scale(0.12 -0.12)">
       <use xlink:href="#DejaVuSans-32"/>
       <use x="63.623046875" xlink:href="#DejaVuSans-35"/>
       <use x="127.24609375" xlink:href="#DejaVuSans-30"/>
       <use x="190.869140625" xlink:href="#DejaVuSans-30"/>
      </g>
     </g>
    </g>
    <g id="text_7">
     <!-- time -->
     <defs>
      <path d="
M18.3125 70.2188
L18.3125 54.6875
L36.8125 54.6875
L36.8125 47.7031
L18.3125 47.7031
L18.3125 18.0156
Q18.3125 11.3281 20.1406 9.42188
Q21.9688 7.51562 27.5938 7.51562
L36.8125 7.51562
L36.8125 0
L27.5938 0
Q17.1875 0 13.2344 3.875
Q9.28125 7.76562 9.28125 18.0156
L9.28125 47.7031
L2.6875 47.7031
L2.6875 54.6875
L9.28125 54.6875
L9.28125 70.2188
z
" id="DejaVuSans-74"/>
      <path d="
M52 44.1875
Q55.375 50.25 60.0625 53.125
Q64.75 56 71.0938 56
Q79.6406 56 84.2812 50.0156
Q88.9219 44.0469 88.9219 33.0156
L88.9219 0
L79.8906 0
L79.8906 32.7188
Q79.8906 40.5781 77.0938 44.375
Q74.3125 48.1875 68.6094 48.1875
Q61.625 48.1875 57.5625 43.5469
Q53.5156 38.9219 53.5156 30.9062
L53.5156 0
L44.4844 0
L44.4844 32.7188
Q44.4844 40.625 41.7031 44.4062
Q38.9219 48.1875 33.1094 48.1875
Q26.2188 48.1875 22.1562 43.5312
Q18.1094 38.875 18.1094 30.9062
L18.1094 0
L9.07812 0
L9.07812 54.6875
L18.1094 54.6875
L18.1094 46.1875
Q21.1875 51.2188 25.4844 53.6094
Q29.7812 56 35.6875 56
Q41.6562 56 45.8281 52.9688
Q50 49.9531 52 44.1875" id="DejaVuSans-6d"/>
      <path d="
M56.2031 29.5938
L56.2031 25.2031
L14.8906 25.2031
Q15.4844 15.9219 20.4844 11.0625
Q25.4844 6.20312 34.4219 6.20312
Q39.5938 6.20312 44.4531 7.46875
Q49.3125 8.73438 54.1094 11.2812
L54.1094 2.78125
Q49.2656 0.734375 44.1875 -0.34375
Q39.1094 -1.42188 33.8906 -1.42188
Q20.7969 -1.42188 13.1562 6.1875
Q5.51562 13.8125 5.51562 26.8125
Q5.51562 40.2344 12.7656 48.1094
Q20.0156 56 32.3281 56
Q43.3594 56 49.7812 48.8906
Q56.2031 41.7969 56.2031 29.5938
M47.2188 32.2344
Q47.125 39.5938 43.0938 43.9844
Q39.0625 48.3906 32.4219 48.3906
Q24.9062 48.3906 20.3906 44.1406
Q15.875 39.8906 15.1875 32.1719
z
" id="DejaVuSans-65"/>
      <path d="
M9.42188 54.6875
L18.4062 54.6875
L18.4062 0
L9.42188 0
z

M9.42188 75.9844
L18.4062 75.9844
L18.4062 64.5938
L9.42188 64.5938
z
" id="DejaVuSans-69"/>
     </defs>
     <g transform="translate(227.700625 398.473625)scale(0.12 -0.12)">
      <use xlink:href="#DejaVuSans-74"/>
      <use x="39.208984375" xlink:href="#DejaVuSans-69"/>
      <use x="66.9921875" xlink:href="#DejaVuSans-6d"/>
      <use x="164.404296875" xlink:href="#DejaVuSans-65"/>
     </g>
    </g>
   </g>
   <g id="matplotlib.axis_2">
    <g id="ytick_1">
     <g id="line2d_29">
      <defs>
       <path d="
M0 0
L4 0" id="m728421d6d4" style="stroke:#000000;stroke-width:0.5;"/>
      </defs>
      <g>
       <use style="stroke:#000000;stroke-width:0.5;" x="17.575" xlink:href="#m728421d6d4" y="368.74175"/>
      </g>
     </g>
     <g id="line2d_30">
      <defs>
       <path d="
M0 0
L-4 0" id="mcb0005524f" style="stroke:#000000;stroke-width:0.5;"/>
      </defs>
      <g>
       <use style="stroke:#000000;stroke-width:0.5;" x="463.975" xlink:href="#mcb0005524f" y="368.74175"/>
      </g>
     </g>
     <g id="text_8">
      <!-- 0 -->
      <g transform="translate(7.528125 372.053)scale(0.12 -0.12)">
       <use xlink:href="#DejaVuSans-30"/>
      </g>
     </g>
    </g>
    <g id="ytick_2">
     <g id="line2d_31">
      <g>
       <use style="stroke:#000000;stroke-width:0.5;" x="17.575" xlink:href="#m728421d6d4" y="319.370321429"/>
      </g>
     </g>
     <g id="line2d_32">
      <g>
       <use style="stroke:#000000;stroke-width:0.5;" x="463.975" xlink:href="#mcb0005524f" y="319.370321429"/>
      </g>
     </g>
     <g id="text_9">
      <!-- 1 -->
      <g transform="translate(8.36625 322.681571429)scale(0.12 -0.12)">
       <use xlink:href="#DejaVuSans-31"/>
      </g>
     </g>
    </g>
    <g id="ytick_3">
     <g id="line2d_33">
      <g>
       <use style="stroke:#000000;stroke-width:0.5;" x="17.575" xlink:href="#m728421d6d4" y="269.998892857"/>
      </g>
     </g>
     <g id="line2d_34">
      <g>
       <use style="stroke:#000000;stroke-width:0.5;" x="463.975" xlink:href="#mcb0005524f" y="269.998892857"/>
      </g>
     </g>
     <g id="text_10">
      <!-- 2 -->
      <g transform="translate(8.02125 273.310142857)scale(0.12 -0.12)">
       <use xlink:href="#DejaVuSans-32"/>
      </g>
     </g>
    </g>
    <g id="ytick_4">
     <g id="line2d_35">
      <g>
       <use style="stroke:#000000;stroke-width:0.5;" x="17.575" xlink:href="#m728421d6d4" y="220.627464286"/>
      </g>
     </g>
     <g id="line2d_36">
      <g>
       <use style="stroke:#000000;stroke-width:0.5;" x="463.975" xlink:href="#mcb0005524f" y="220.627464286"/>
      </g>
     </g>
     <g id="text_11">
      <!-- 3 -->
      <defs>
       <path d="
M40.5781 39.3125
Q47.6562 37.7969 51.625 33
Q55.6094 28.2188 55.6094 21.1875
Q55.6094 10.4062 48.1875 4.48438
Q40.7656 -1.42188 27.0938 -1.42188
Q22.5156 -1.42188 17.6562 -0.515625
Q12.7969 0.390625 7.625 2.20312
L7.625 11.7188
Q11.7188 9.32812 16.5938 8.10938
Q21.4844 6.89062 26.8125 6.89062
Q36.0781 6.89062 40.9375 10.5469
Q45.7969 14.2031 45.7969 21.1875
Q45.7969 27.6406 41.2812 31.2656
Q36.7656 34.9062 28.7188 34.9062
L20.2188 34.9062
L20.2188 43.0156
L29.1094 43.0156
Q36.375 43.0156 40.2344 45.9219
Q44.0938 48.8281 44.0938 54.2969
Q44.0938 59.9062 40.1094 62.9062
Q36.1406 65.9219 28.7188 65.9219
Q24.6562 65.9219 20.0156 65.0312
Q15.375 64.1562 9.8125 62.3125
L9.8125 71.0938
Q15.4375 72.6562 20.3438 73.4375
Q25.25 74.2188 29.5938 74.2188
Q40.8281 74.2188 47.3594 69.1094
Q53.9062 64.0156 53.9062 55.3281
Q53.9062 49.2656 50.4375 45.0938
Q46.9688 40.9219 40.5781 39.3125" id="DejaVuSans-33"/>
      </defs>
      <g transform="translate(7.816875 223.938714286)scale(0.12 -0.12)">
       <use xlink:href="#DejaVuSans-33"/>
      </g>
     </g>
    </g>
    <g id="ytick_5">
     <g id="line2d_37">
      <g>
       <use style="stroke:#000000;stroke-width:0.5;" x="17.575" xlink:href="#m728421d6d4" y="171.256035714"/>
      </g>
     </g>
     <g id="line2d_38">
      <g>
       <use style="stroke:#000000;stroke-width:0.5;" x="463.975" xlink:href="#mcb0005524f" y="171.256035714"/>
      </g>
     </g>
     <g id="text_12">
      <!-- 4 -->
      <defs>
       <path d="
M37.7969 64.3125
L12.8906 25.3906
L37.7969 25.3906
z

M35.2031 72.9062
L47.6094 72.9062
L47.6094 25.3906
L58.0156 25.3906
L58.0156 17.1875
L47.6094 17.1875
L47.6094 0
L37.7969 0
L37.7969 17.1875
L4.89062 17.1875
L4.89062 26.7031
z
" id="DejaVuSans-34"/>
      </defs>
      <g transform="translate(7.2 174.567285714)scale(0.12 -0.12)">
       <use xlink:href="#DejaVuSans-34"/>
      </g>
     </g>
    </g>
    <g id="ytick_6">
     <g id="line2d_39">
      <g>
       <use style="stroke:#000000;stroke-width:0.5;" x="17.575" xlink:href="#m728421d6d4" y="121.884607143"/>
      </g>
     </g>
     <g id="line2d_40">
      <g>
       <use style="stroke:#000000;stroke-width:0.5;" x="463.975" xlink:href="#mcb0005524f" y="121.884607143"/>
      </g>
     </g>
     <g id="text_13">
      <!-- 5 -->
      <g transform="translate(7.914375 125.195857143)scale(0.12 -0.12)">
       <use xlink:href="#DejaVuSans-35"/>
      </g>
     </g>
    </g>
    <g id="ytick_7">
     <g id="line2d_41">
      <g>
       <use style="stroke:#000000;stroke-width:0.5;" x="17.575" xlink:href="#m728421d6d4" y="72.5131785714"/>
      </g>
     </g>
     <g id="line2d_42">
      <g>
       <use style="stroke:#000000;stroke-width:0.5;" x="463.975" xlink:href="#mcb0005524f" y="72.5131785714"/>
      </g>
     </g>
     <g id="text_14">
      <!-- 6 -->
      <defs>
       <path d="
M33.0156 40.375
Q26.375 40.375 22.4844 35.8281
Q18.6094 31.2969 18.6094 23.3906
Q18.6094 15.5312 22.4844 10.9531
Q26.375 6.39062 33.0156 6.39062
Q39.6562 6.39062 43.5312 10.9531
Q47.4062 15.5312 47.4062 23.3906
Q47.4062 31.2969 43.5312 35.8281
Q39.6562 40.375 33.0156 40.375
M52.5938 71.2969
L52.5938 62.3125
Q48.875 64.0625 45.0938 64.9844
Q41.3125 65.9219 37.5938 65.9219
Q27.8281 65.9219 22.6719 59.3281
Q17.5312 52.7344 16.7969 39.4062
Q19.6719 43.6562 24.0156 45.9219
Q28.375 48.1875 33.5938 48.1875
Q44.5781 48.1875 50.9531 41.5156
Q57.3281 34.8594 57.3281 23.3906
Q57.3281 12.1562 50.6875 5.35938
Q44.0469 -1.42188 33.0156 -1.42188
Q20.3594 -1.42188 13.6719 8.26562
Q6.98438 17.9688 6.98438 36.375
Q6.98438 53.6562 15.1875 63.9375
Q23.3906 74.2188 37.2031 74.2188
Q40.9219 74.2188 44.7031 73.4844
Q48.4844 72.75 52.5938 71.2969" id="DejaVuSans-36"/>
      </defs>
      <g transform="translate(7.53375 75.8244285714)scale(0.12 -0.12)">
       <use xlink:href="#DejaVuSans-36"/>
      </g>
     </g>
    </g>
    <g id="ytick_8">
     <g id="line2d_43">
      <g>
       <use style="stroke:#000000;stroke-width:0.5;" x="17.575" xlink:href="#m728421d6d4" y="23.14175"/>
      </g>
     </g>
     <g id="line2d_44">
      <g>
       <use style="stroke:#000000;stroke-width:0.5;" x="463.975" xlink:href="#mcb0005524f" y="23.14175"/>
      </g>
     </g>
     <g id="text_15">
      <!-- 7 -->
      <defs>
       <path d="
M8.20312 72.9062
L55.0781 72.9062
L55.0781 68.7031
L28.6094 0
L18.3125 0
L43.2188 64.5938
L8.20312 64.5938
z
" id="DejaVuSans-37"/>
      </defs>
      <g transform="translate(7.95 26.453)scale(0.12 -0.12)">
       <use xlink:href="#DejaVuSans-37"/>
      </g>
     </g>
    </g>
    <g id="text_16">
     <!-- 1e11 -->
     <g transform="translate(17.575 20.14175)scale(0.12 -0.12)">
      <use xlink:href="#DejaVuSans-31"/>
      <use x="63.623046875" xlink:href="#DejaVuSans-65"/>
      <use x="125.146484375" xlink:href="#DejaVuSans-31"/>
      <use x="188.76953125" xlink:href="#DejaVuSans-31"/>
     </g>
    </g>
   </g>
   <g id="text_17">
    <!-- /agas/time/decrement_credit -->
    <defs>
     <path d="
M25.3906 72.9062
L33.6875 72.9062
L8.29688 -9.28125
L0 -9.28125
z
" id="DejaVuSans-2f"/>
     <path d="
M54.8906 33.0156
L54.8906 0
L45.9062 0
L45.9062 32.7188
Q45.9062 40.4844 42.875 44.3281
Q39.8438 48.1875 33.7969 48.1875
Q26.5156 48.1875 22.3125 43.5469
Q18.1094 38.9219 18.1094 30.9062
L18.1094 0
L9.07812 0
L9.07812 54.6875
L18.1094 54.6875
L18.1094 46.1875
Q21.3438 51.125 25.7031 53.5625
Q30.0781 56 35.7969 56
Q45.2188 56 50.0469 50.1719
Q54.8906 44.3438 54.8906 33.0156" id="DejaVuSans-6e"/>
     <path d="
M50.9844 -16.6094
L50.9844 -23.5781
L-0.984375 -23.5781
L-0.984375 -16.6094
z
" id="DejaVuSans-5f"/>
     <path d="
M45.4062 27.9844
Q45.4062 37.75 41.375 43.1094
Q37.3594 48.4844 30.0781 48.4844
Q22.8594 48.4844 18.8281 43.1094
Q14.7969 37.75 14.7969 27.9844
Q14.7969 18.2656 18.8281 12.8906
Q22.8594 7.51562 30.0781 7.51562
Q37.3594 7.51562 41.375 12.8906
Q45.4062 18.2656 45.4062 27.9844
M54.3906 6.78125
Q54.3906 -7.17188 48.1875 -13.9844
Q42 -20.7969 29.2031 -20.7969
Q24.4688 -20.7969 20.2656 -20.0938
Q16.0625 -19.3906 12.1094 -17.9219
L12.1094 -9.1875
Q16.0625 -11.3281 19.9219 -12.3438
Q23.7812 -13.375 27.7812 -13.375
Q36.625 -13.375 41.0156 -8.76562
Q45.4062 -4.15625 45.4062 5.17188
L45.4062 9.625
Q42.625 4.78125 38.2812 2.39062
Q33.9375 0 27.875 0
Q17.8281 0 11.6719 7.65625
Q5.51562 15.3281 5.51562 27.9844
Q5.51562 40.6719 11.6719 48.3281
Q17.8281 56 27.875 56
Q33.9375 56 38.2812 53.6094
Q42.625 51.2188 45.4062 46.3906
L45.4062 54.6875
L54.3906 54.6875
z
" id="DejaVuSans-67"/>
     <path d="
M45.4062 46.3906
L45.4062 75.9844
L54.3906 75.9844
L54.3906 0
L45.4062 0
L45.4062 8.20312
Q42.5781 3.32812 38.25 0.953125
Q33.9375 -1.42188 27.875 -1.42188
Q17.9688 -1.42188 11.7344 6.48438
Q5.51562 14.4062 5.51562 27.2969
Q5.51562 40.1875 11.7344 48.0938
Q17.9688 56 27.875 56
Q33.9375 56 38.25 53.625
Q42.5781 51.2656 45.4062 46.3906
M14.7969 27.2969
Q14.7969 17.3906 18.875 11.75
Q22.9531 6.10938 30.0781 6.10938
Q37.2031 6.10938 41.2969 11.75
Q45.4062 17.3906 45.4062 27.2969
Q45.4062 37.2031 41.2969 42.8438
Q37.2031 48.4844 30.0781 48.4844
Q22.9531 48.4844 18.875 42.8438
Q14.7969 37.2031 14.7969 27.2969" id="DejaVuSans-64"/>
     <path d="
M41.1094 46.2969
Q39.5938 47.1719 37.8125 47.5781
Q36.0312 48 33.8906 48
Q26.2656 48 22.1875 43.0469
Q18.1094 38.0938 18.1094 28.8125
L18.1094 0
L9.07812 0
L9.07812 54.6875
L18.1094 54.6875
L18.1094 46.1875
Q20.9531 51.1719 25.4844 53.5781
Q30.0312 56 36.5312 56
Q37.4531 56 38.5781 55.875
Q39.7031 55.7656 41.0625 55.5156
z
" id="DejaVuSans-72"/>
     <path d="
M48.7812 52.5938
L48.7812 44.1875
Q44.9688 46.2969 41.1406 47.3438
Q37.3125 48.3906 33.4062 48.3906
Q24.6562 48.3906 19.8125 42.8438
Q14.9844 37.3125 14.9844 27.2969
Q14.9844 17.2812 19.8125 11.7344
Q24.6562 6.20312 33.4062 6.20312
Q37.3125 6.20312 41.1406 7.25
Q44.9688 8.29688 48.7812 10.4062
L48.7812 2.09375
Q45.0156 0.34375 40.9844 -0.53125
Q36.9688 -1.42188 32.4219 -1.42188
Q20.0625 -1.42188 12.7812 6.34375
Q5.51562 14.1094 5.51562 27.2969
Q5.51562 40.6719 12.8594 48.3281
Q20.2188 56 33.0156 56
Q37.1562 56 41.1094 55.1406
Q45.0625 54.2969 48.7812 52.5938" id="DejaVuSans-63"/>
     <path d="
M44.2812 53.0781
L44.2812 44.5781
Q40.4844 46.5312 36.375 47.5
Q32.2812 48.4844 27.875 48.4844
Q21.1875 48.4844 17.8438 46.4375
Q14.5 44.3906 14.5 40.2812
Q14.5 37.1562 16.8906 35.375
Q19.2812 33.5938 26.5156 31.9844
L29.5938 31.2969
Q39.1562 29.25 43.1875 25.5156
Q47.2188 21.7812 47.2188 15.0938
Q47.2188 7.46875 41.1875 3.01562
Q35.1562 -1.42188 24.6094 -1.42188
Q20.2188 -1.42188 15.4531 -0.5625
Q10.6875 0.296875 5.42188 2
L5.42188 11.2812
Q10.4062 8.6875 15.2344 7.39062
Q20.0625 6.10938 24.8125 6.10938
Q31.1562 6.10938 34.5625 8.28125
Q37.9844 10.4531 37.9844 14.4062
Q37.9844 18.0625 35.5156 20.0156
Q33.0625 21.9688 24.7031 23.7812
L21.5781 24.5156
Q13.2344 26.2656 9.51562 29.9062
Q5.8125 33.5469 5.8125 39.8906
Q5.8125 47.6094 11.2812 51.7969
Q16.75 56 26.8125 56
Q31.7812 56 36.1719 55.2656
Q40.5781 54.5469 44.2812 53.0781" id="DejaVuSans-73"/>
     <path d="
M34.2812 27.4844
Q23.3906 27.4844 19.1875 25
Q14.9844 22.5156 14.9844 16.5
Q14.9844 11.7188 18.1406 8.90625
Q21.2969 6.10938 26.7031 6.10938
Q34.1875 6.10938 38.7031 11.4062
Q43.2188 16.7031 43.2188 25.4844
L43.2188 27.4844
z

M52.2031 31.2031
L52.2031 0
L43.2188 0
L43.2188 8.29688
Q40.1406 3.32812 35.5469 0.953125
Q30.9531 -1.42188 24.3125 -1.42188
Q15.9219 -1.42188 10.9531 3.29688
Q6 8.01562 6 15.9219
Q6 25.1406 12.1719 29.8281
Q18.3594 34.5156 30.6094 34.5156
L43.2188 34.5156
L43.2188 35.4062
Q43.2188 41.6094 39.1406 45
Q35.0625 48.3906 27.6875 48.3906
Q23 48.3906 18.5469 47.2656
Q14.1094 46.1406 10.0156 43.8906
L10.0156 52.2031
Q14.9375 54.1094 19.5781 55.0469
Q24.2188 56 28.6094 56
Q40.4844 56 46.3438 49.8438
Q52.2031 43.7031 52.2031 31.2031" id="DejaVuSans-61"/>
    </defs>
    <g transform="translate(137.060125 18.14175)scale(0.144 -0.144)">
     <use xlink:href="#DejaVuSans-2f"/>
     <use x="33.69140625" xlink:href="#DejaVuSans-61"/>
     <use x="94.970703125" xlink:href="#DejaVuSans-67"/>
     <use x="158.447265625" xlink:href="#DejaVuSans-61"/>
     <use x="219.7265625" xlink:href="#DejaVuSans-73"/>
     <use x="271.826171875" xlink:href="#DejaVuSans-2f"/>
     <use x="305.517578125" xlink:href="#DejaVuSans-74"/>
     <use x="344.7265625" xlink:href="#DejaVuSans-69"/>
     <use x="372.509765625" xlink:href="#DejaVuSans-6d"/>
     <use x="469.921875" xlink:href="#DejaVuSans-65"/>
     <use x="531.4453125" xlink:href="#DejaVuSans-2f"/>
     <use x="565.13671875" xlink:href="#DejaVuSans-64"/>
     <use x="628.61328125" xlink:href="#DejaVuSans-65"/>
     <use x="690.13671875" xlink:href="#DejaVuSans-63"/>
     <use x="745.1171875" xlink:href="#DejaVuSans-72"/>
     <use x="783.98046875" xlink:href="#DejaVuSans-65"/>
     <use x="845.50390625" xlink:href="#DejaVuSans-6d"/>
     <use x="942.916015625" xlink:href="#DejaVuSans-65"/>
     <use x="1004.43945312" xlink:href="#DejaVuSans-6e"/>
     <use x="1067.81835938" xlink:href="#DejaVuSans-74"/>
     <use x="1107.02734375" xlink:href="#DejaVuSans-5f"/>
     <use x="1157.02734375" xlink:href="#DejaVuSans-63"/>
     <use x="1212.0078125" xlink:href="#DejaVuSans-72"/>
     <use x="1250.87109375" xlink:href="#DejaVuSans-65"/>
     <use x="1312.39453125" xlink:href="#DejaVuSans-64"/>
     <use x="1375.87109375" xlink:href="#DejaVuSans-69"/>
     <use x="1403.65429688" xlink:href="#DejaVuSans-74"/>
    </g>
   </g>
   <g id="legend_1">
    <g id="patch_7">
     <path d="
M471.175 367.194
L602.964 367.194
L602.964 24.6897
L471.175 24.6897
z
" style="fill:#ffffff;stroke:#000000;stroke-linejoin:miter;"/>
    </g>
    <g id="line2d_45">
     <path d="
M481.255 36.3515
L501.415 36.3515" style="fill:none;stroke:#0000ff;stroke-linecap:square;"/>
    </g>
    <g id="line2d_46"/>
    <g id="text_18">
     <!-- locality#0 -->
     <defs>
      <path d="
M30.6094 48.3906
Q23.3906 48.3906 19.1875 42.75
Q14.9844 37.1094 14.9844 27.2969
Q14.9844 17.4844 19.1562 11.8438
Q23.3438 6.20312 30.6094 6.20312
Q37.7969 6.20312 41.9844 11.8594
Q46.1875 17.5312 46.1875 27.2969
Q46.1875 37.0156 41.9844 42.7031
Q37.7969 48.3906 30.6094 48.3906
M30.6094 56
Q42.3281 56 49.0156 48.375
Q55.7188 40.7656 55.7188 27.2969
Q55.7188 13.875 49.0156 6.21875
Q42.3281 -1.42188 30.6094 -1.42188
Q18.8438 -1.42188 12.1719 6.21875
Q5.51562 13.875 5.51562 27.2969
Q5.51562 40.7656 12.1719 48.375
Q18.8438 56 30.6094 56" id="DejaVuSans-6f"/>
      <path d="
M51.125 44
L36.9219 44
L32.8125 27.6875
L47.125 27.6875
z

M43.7969 71.7812
L38.7188 51.5156
L52.9844 51.5156
L58.1094 71.7812
L65.9219 71.7812
L60.8906 51.5156
L76.125 51.5156
L76.125 44
L58.9844 44
L54.9844 27.6875
L70.5156 27.6875
L70.5156 20.2188
L53.0781 20.2188
L48 0
L40.1875 0
L45.2188 20.2188
L30.9062 20.2188
L25.875 0
L18.0156 0
L23.0938 20.2188
L7.71875 20.2188
L7.71875 27.6875
L24.9062 27.6875
L29 44
L13.2812 44
L13.2812 51.5156
L30.9062 51.5156
L35.8906 71.7812
z
" id="DejaVuSans-23"/>
      <path d="
M32.1719 -5.07812
Q28.375 -14.8438 24.75 -17.8125
Q21.1406 -20.7969 15.0938 -20.7969
L7.90625 -20.7969
L7.90625 -13.2812
L13.1875 -13.2812
Q16.8906 -13.2812 18.9375 -11.5156
Q21 -9.76562 23.4844 -3.21875
L25.0938 0.875
L2.98438 54.6875
L12.5 54.6875
L29.5938 11.9219
L46.6875 54.6875
L56.2031 54.6875
z
" id="DejaVuSans-79"/>
      <path d="
M9.42188 75.9844
L18.4062 75.9844
L18.4062 0
L9.42188 0
z
" id="DejaVuSans-6c"/>
     </defs>
     <g transform="translate(517.255 41.3915)scale(0.144 -0.144)">
      <use xlink:href="#DejaVuSans-6c"/>
      <use x="27.783203125" xlink:href="#DejaVuSans-6f"/>
      <use x="88.96484375" xlink:href="#DejaVuSans-63"/>
      <use x="143.9453125" xlink:href="#DejaVuSans-61"/>
      <use x="205.224609375" xlink:href="#DejaVuSans-6c"/>
      <use x="233.0078125" xlink:href="#DejaVuSans-69"/>
      <use x="260.791015625" xlink:href="#DejaVuSans-74"/>
      <use x="300.0" xlink:href="#DejaVuSans-79"/>
      <use x="359.1796875" xlink:href="#DejaVuSans-23"/>
      <use x="442.96875" xlink:href="#DejaVuSans-30"/>
     </g>
    </g>
    <g id="line2d_47">
     <path d="
M481.255 57.488
L501.415 57.488" style="fill:none;stroke:#008000;stroke-linecap:square;"/>
    </g>
    <g id="line2d_48"/>
    <g id="text_19">
     <!-- locality#1 -->
     <g transform="translate(517.255 62.528)scale(0.144 -0.144)">
      <use xlink:href="#DejaVuSans-6c"/>
      <use x="27.783203125" xlink:href="#DejaVuSans-6f"/>
      <use x="88.96484375" xlink:href="#DejaVuSans-63"/>
      <use x="143.9453125" xlink:href="#DejaVuSans-61"/>
      <use x="205.224609375" xlink:href="#DejaVuSans-6c"/>
      <use x="233.0078125" xlink:href="#DejaVuSans-69"/>
      <use x="260.791015625" xlink:href="#DejaVuSans-74"/>
      <use x="300.0" xlink:href="#DejaVuSans-79"/>
      <use x="359.1796875" xlink:href="#DejaVuSans-23"/>
      <use x="442.96875" xlink:href="#DejaVuSans-31"/>
     </g>
    </g>
    <g id="line2d_49">
     <path d="
M481.255 78.6245
L501.415 78.6245" style="fill:none;stroke:#ff0000;stroke-linecap:square;"/>
    </g>
    <g id="line2d_50"/>
    <g id="text_20">
     <!-- locality#10 -->
     <g transform="translate(517.255 83.6645)scale(0.144 -0.144)">
      <use xlink:href="#DejaVuSans-6c"/>
      <use x="27.783203125" xlink:href="#DejaVuSans-6f"/>
      <use x="88.96484375" xlink:href="#DejaVuSans-63"/>
      <use x="143.9453125" xlink:href="#DejaVuSans-61"/>
      <use x="205.224609375" xlink:href="#DejaVuSans-6c"/>
      <use x="233.0078125" xlink:href="#DejaVuSans-69"/>
      <use x="260.791015625" xlink:href="#DejaVuSans-74"/>
      <use x="300.0" xlink:href="#DejaVuSans-79"/>
      <use x="359.1796875" xlink:href="#DejaVuSans-23"/>
      <use x="442.96875" xlink:href="#DejaVuSans-31"/>
      <use x="506.591796875" xlink:href="#DejaVuSans-30"/>
     </g>
    </g>
    <g id="line2d_51">
     <path d="
M481.255 99.761
L501.415 99.761" style="fill:none;stroke:#00bfbf;stroke-linecap:square;"/>
    </g>
    <g id="line2d_52"/>
    <g id="text_21">
     <!-- locality#11 -->
     <g transform="translate(517.255 104.801)scale(0.144 -0.144)">
      <use xlink:href="#DejaVuSans-6c"/>
      <use x="27.783203125" xlink:href="#DejaVuSans-6f"/>
      <use x="88.96484375" xlink:href="#DejaVuSans-63"/>
      <use x="143.9453125" xlink:href="#DejaVuSans-61"/>
      <use x="205.224609375" xlink:href="#DejaVuSans-6c"/>
      <use x="233.0078125" xlink:href="#DejaVuSans-69"/>
      <use x="260.791015625" xlink:href="#DejaVuSans-74"/>
      <use x="300.0" xlink:href="#DejaVuSans-79"/>
      <use x="359.1796875" xlink:href="#DejaVuSans-23"/>
      <use x="442.96875" xlink:href="#DejaVuSans-31"/>
      <use x="506.591796875" xlink:href="#DejaVuSans-31"/>
     </g>
    </g>
    <g id="line2d_53">
     <path d="
M481.255 120.897
L501.415 120.897" style="fill:none;stroke:#bf00bf;stroke-linecap:square;"/>
    </g>
    <g id="line2d_54"/>
    <g id="text_22">
     <!-- locality#12 -->
     <g transform="translate(517.255 125.9375)scale(0.144 -0.144)">
      <use xlink:href="#DejaVuSans-6c"/>
      <use x="27.783203125" xlink:href="#DejaVuSans-6f"/>
      <use x="88.96484375" xlink:href="#DejaVuSans-63"/>
      <use x="143.9453125" xlink:href="#DejaVuSans-61"/>
      <use x="205.224609375" xlink:href="#DejaVuSans-6c"/>
      <use x="233.0078125" xlink:href="#DejaVuSans-69"/>
      <use x="260.791015625" xlink:href="#DejaVuSans-74"/>
      <use x="300.0" xlink:href="#DejaVuSans-79"/>
      <use x="359.1796875" xlink:href="#DejaVuSans-23"/>
      <use x="442.96875" xlink:href="#DejaVuSans-31"/>
      <use x="506.591796875" xlink:href="#DejaVuSans-32"/>
     </g>
    </g>
    <g id="line2d_55">
     <path d="
M481.255 142.034
L501.415 142.034" style="fill:none;stroke:#bfbf00;stroke-linecap:square;"/>
    </g>
    <g id="line2d_56"/>
    <g id="text_23">
     <!-- locality#13 -->
     <g transform="translate(517.255 147.074)scale(0.144 -0.144)">
      <use xlink:href="#DejaVuSans-6c"/>
      <use x="27.783203125" xlink:href="#DejaVuSans-6f"/>
      <use x="88.96484375" xlink:href="#DejaVuSans-63"/>
      <use x="143.9453125" xlink:href="#DejaVuSans-61"/>
      <use x="205.224609375" xlink:href="#DejaVuSans-6c"/>
      <use x="233.0078125" xlink:href="#DejaVuSans-69"/>
      <use x="260.791015625" xlink:href="#DejaVuSans-74"/>
      <use x="300.0" xlink:href="#DejaVuSans-79"/>
      <use x="359.1796875" xlink:href="#DejaVuSans-23"/>
      <use x="442.96875" xlink:href="#DejaVuSans-31"/>
      <use x="506.591796875" xlink:href="#DejaVuSans-33"/>
     </g>
    </g>
    <g id="line2d_57">
     <path d="
M481.255 163.17
L501.415 163.17" style="fill:none;stroke:#000000;stroke-linecap:square;"/>
    </g>
    <g id="line2d_58"/>
    <g id="text_24">
     <!-- locality#14 -->
     <g transform="translate(517.255 168.2105)scale(0.144 -0.144)">
      <use xlink:href="#DejaVuSans-6c"/>
      <use x="27.783203125" xlink:href="#DejaVuSans-6f"/>
      <use x="88.96484375" xlink:href="#DejaVuSans-63"/>
      <use x="143.9453125" xlink:href="#DejaVuSans-61"/>
      <use x="205.224609375" xlink:href="#DejaVuSans-6c"/>
      <use x="233.0078125" xlink:href="#DejaVuSans-69"/>
      <use x="260.791015625" xlink:href="#DejaVuSans-74"/>
      <use x="300.0" xlink:href="#DejaVuSans-79"/>
      <use x="359.1796875" xlink:href="#DejaVuSans-23"/>
      <use x="442.96875" xlink:href="#DejaVuSans-31"/>
      <use x="506.591796875" xlink:href="#DejaVuSans-34"/>
     </g>
    </g>
    <g id="line2d_59">
     <path d="
M481.255 184.307
L501.415 184.307" style="fill:none;stroke:#0000ff;stroke-linecap:square;"/>
    </g>
    <g id="line2d_60"/>
    <g id="text_25">
     <!-- locality#15 -->
     <g transform="translate(517.255 189.347)scale(0.144 -0.144)">
      <use xlink:href="#DejaVuSans-6c"/>
      <use x="27.783203125" xlink:href="#DejaVuSans-6f"/>
      <use x="88.96484375" xlink:href="#DejaVuSans-63"/>
      <use x="143.9453125" xlink:href="#DejaVuSans-61"/>
      <use x="205.224609375" xlink:href="#DejaVuSans-6c"/>
      <use x="233.0078125" xlink:href="#DejaVuSans-69"/>
      <use x="260.791015625" xlink:href="#DejaVuSans-74"/>
      <use x="300.0" xlink:href="#DejaVuSans-79"/>
      <use x="359.1796875" xlink:href="#DejaVuSans-23"/>
      <use x="442.96875" xlink:href="#DejaVuSans-31"/>
      <use x="506.591796875" xlink:href="#DejaVuSans-35"/>
     </g>
    </g>
    <g id="line2d_61">
     <path d="
M481.255 205.443
L501.415 205.443" style="fill:none;stroke:#008000;stroke-linecap:square;"/>
    </g>
    <g id="line2d_62"/>
    <g id="text_26">
     <!-- locality#2 -->
     <g transform="translate(517.255 210.4835)scale(0.144 -0.144)">
      <use xlink:href="#DejaVuSans-6c"/>
      <use x="27.783203125" xlink:href="#DejaVuSans-6f"/>
      <use x="88.96484375" xlink:href="#DejaVuSans-63"/>
      <use x="143.9453125" xlink:href="#DejaVuSans-61"/>
      <use x="205.224609375" xlink:href="#DejaVuSans-6c"/>
      <use x="233.0078125" xlink:href="#DejaVuSans-69"/>
      <use x="260.791015625" xlink:href="#DejaVuSans-74"/>
      <use x="300.0" xlink:href="#DejaVuSans-79"/>
      <use x="359.1796875" xlink:href="#DejaVuSans-23"/>
      <use x="442.96875" xlink:href="#DejaVuSans-32"/>
     </g>
    </g>
    <g id="line2d_63">
     <path d="
M481.255 226.58
L501.415 226.58" style="fill:none;stroke:#ff0000;stroke-linecap:square;"/>
    </g>
    <g id="line2d_64"/>
    <g id="text_27">
     <!-- locality#3 -->
     <g transform="translate(517.255 231.62)scale(0.144 -0.144)">
      <use xlink:href="#DejaVuSans-6c"/>
      <use x="27.783203125" xlink:href="#DejaVuSans-6f"/>
      <use x="88.96484375" xlink:href="#DejaVuSans-63"/>
      <use x="143.9453125" xlink:href="#DejaVuSans-61"/>
      <use x="205.224609375" xlink:href="#DejaVuSans-6c"/>
      <use x="233.0078125" xlink:href="#DejaVuSans-69"/>
      <use x="260.791015625" xlink:href="#DejaVuSans-74"/>
      <use x="300.0" xlink:href="#DejaVuSans-79"/>
      <use x="359.1796875" xlink:href="#DejaVuSans-23"/>
      <use x="442.96875" xlink:href="#DejaVuSans-33"/>
     </g>
    </g>
    <g id="line2d_65">
     <path d="
M481.255 247.716
L501.415 247.716" style="fill:none;stroke:#00bfbf;stroke-linecap:square;"/>
    </g>
    <g id="line2d_66"/>
    <g id="text_28">
     <!-- locality#4 -->
     <g transform="translate(517.255 252.7565)scale(0.144 -0.144)">
      <use xlink:href="#DejaVuSans-6c"/>
      <use x="27.783203125" xlink:href="#DejaVuSans-6f"/>
      <use x="88.96484375" xlink:href="#DejaVuSans-63"/>
      <use x="143.9453125" xlink:href="#DejaVuSans-61"/>
      <use x="205.224609375" xlink:href="#DejaVuSans-6c"/>
      <use x="233.0078125" xlink:href="#DejaVuSans-69"/>
      <use x="260.791015625" xlink:href="#DejaVuSans-74"/>
      <use x="300.0" xlink:href="#DejaVuSans-79"/>
      <use x="359.1796875" xlink:href="#DejaVuSans-23"/>
      <use x="442.96875" xlink:href="#DejaVuSans-34"/>
     </g>
    </g>
    <g id="line2d_67">
     <path d="
M481.255 268.853
L501.415 268.853" style="fill:none;stroke:#bf00bf;stroke-linecap:square;"/>
    </g>
    <g id="line2d_68"/>
    <g id="text_29">
     <!-- locality#5 -->
     <g transform="translate(517.255 273.893)scale(0.144 -0.144)">
      <use xlink:href="#DejaVuSans-6c"/>
      <use x="27.783203125" xlink:href="#DejaVuSans-6f"/>
      <use x="88.96484375" xlink:href="#DejaVuSans-63"/>
      <use x="143.9453125" xlink:href="#DejaVuSans-61"/>
      <use x="205.224609375" xlink:href="#DejaVuSans-6c"/>
      <use x="233.0078125" xlink:href="#DejaVuSans-69"/>
      <use x="260.791015625" xlink:href="#DejaVuSans-74"/>
      <use x="300.0" xlink:href="#DejaVuSans-79"/>
      <use x="359.1796875" xlink:href="#DejaVuSans-23"/>
      <use x="442.96875" xlink:href="#DejaVuSans-35"/>
     </g>
    </g>
    <g id="line2d_69">
     <path d="
M481.255 289.989
L501.415 289.989" style="fill:none;stroke:#bfbf00;stroke-linecap:square;"/>
    </g>
    <g id="line2d_70"/>
    <g id="text_30">
     <!-- locality#6 -->
     <g transform="translate(517.255 295.0295)scale(0.144 -0.144)">
      <use xlink:href="#DejaVuSans-6c"/>
      <use x="27.783203125" xlink:href="#DejaVuSans-6f"/>
      <use x="88.96484375" xlink:href="#DejaVuSans-63"/>
      <use x="143.9453125" xlink:href="#DejaVuSans-61"/>
      <use x="205.224609375" xlink:href="#DejaVuSans-6c"/>
      <use x="233.0078125" xlink:href="#DejaVuSans-69"/>
      <use x="260.791015625" xlink:href="#DejaVuSans-74"/>
      <use x="300.0" xlink:href="#DejaVuSans-79"/>
      <use x="359.1796875" xlink:href="#DejaVuSans-23"/>
      <use x="442.96875" xlink:href="#DejaVuSans-36"/>
     </g>
    </g>
    <g id="line2d_71">
     <path d="
M481.255 311.126
L501.415 311.126" style="fill:none;stroke:#000000;stroke-linecap:square;"/>
    </g>
    <g id="line2d_72"/>
    <g id="text_31">
     <!-- locality#7 -->
     <g transform="translate(517.255 316.166)scale(0.144 -0.144)">
      <use xlink:href="#DejaVuSans-6c"/>
      <use x="27.783203125" xlink:href="#DejaVuSans-6f"/>
      <use x="88.96484375" xlink:href="#DejaVuSans-63"/>
      <use x="143.9453125" xlink:href="#DejaVuSans-61"/>
      <use x="205.224609375" xlink:href="#DejaVuSans-6c"/>
      <use x="233.0078125" xlink:href="#DejaVuSans-69"/>
      <use x="260.791015625" xlink:href="#DejaVuSans-74"/>
      <use x="300.0" xlink:href="#DejaVuSans-79"/>
      <use x="359.1796875" xlink:href="#DejaVuSans-23"/>
      <use x="442.96875" xlink:href="#DejaVuSans-37"/>
     </g>
    </g>
    <g id="line2d_73">
     <path d="
M481.255 332.262
L501.415 332.262" style="fill:none;stroke:#0000ff;stroke-linecap:square;"/>
    </g>
    <g id="line2d_74"/>
    <g id="text_32">
     <!-- locality#8 -->
     <defs>
      <path d="
M31.7812 34.625
Q24.75 34.625 20.7188 30.8594
Q16.7031 27.0938 16.7031 20.5156
Q16.7031 13.9219 20.7188 10.1562
Q24.75 6.39062 31.7812 6.39062
Q38.8125 6.39062 42.8594 10.1719
Q46.9219 13.9688 46.9219 20.5156
Q46.9219 27.0938 42.8906 30.8594
Q38.875 34.625 31.7812 34.625
M21.9219 38.8125
Q15.5781 40.375 12.0312 44.7188
Q8.5 49.0781 8.5 55.3281
Q8.5 64.0625 14.7188 69.1406
Q20.9531 74.2188 31.7812 74.2188
Q42.6719 74.2188 48.875 69.1406
Q55.0781 64.0625 55.0781 55.3281
Q55.0781 49.0781 51.5312 44.7188
Q48 40.375 41.7031 38.8125
Q48.8281 37.1562 52.7969 32.3125
Q56.7812 27.4844 56.7812 20.5156
Q56.7812 9.90625 50.3125 4.23438
Q43.8438 -1.42188 31.7812 -1.42188
Q19.7344 -1.42188 13.25 4.23438
Q6.78125 9.90625 6.78125 20.5156
Q6.78125 27.4844 10.7812 32.3125
Q14.7969 37.1562 21.9219 38.8125
M18.3125 54.3906
Q18.3125 48.7344 21.8438 45.5625
Q25.3906 42.3906 31.7812 42.3906
Q38.1406 42.3906 41.7188 45.5625
Q45.3125 48.7344 45.3125 54.3906
Q45.3125 60.0625 41.7188 63.2344
Q38.1406 66.4062 31.7812 66.4062
Q25.3906 66.4062 21.8438 63.2344
Q18.3125 60.0625 18.3125 54.3906" id="DejaVuSans-38"/>
     </defs>
     <g transform="translate(517.255 337.3025)scale(0.144 -0.144)">
      <use xlink:href="#DejaVuSans-6c"/>
      <use x="27.783203125" xlink:href="#DejaVuSans-6f"/>
      <use x="88.96484375" xlink:href="#DejaVuSans-63"/>
      <use x="143.9453125" xlink:href="#DejaVuSans-61"/>
      <use x="205.224609375" xlink:href="#DejaVuSans-6c"/>
      <use x="233.0078125" xlink:href="#DejaVuSans-69"/>
      <use x="260.791015625" xlink:href="#DejaVuSans-74"/>
      <use x="300.0" xlink:href="#DejaVuSans-79"/>
      <use x="359.1796875" xlink:href="#DejaVuSans-23"/>
      <use x="442.96875" xlink:href="#DejaVuSans-38"/>
     </g>
    </g>
    <g id="line2d_75">
     <path d="
M481.255 353.399
L501.415 353.399" style="fill:none;stroke:#008000;stroke-linecap:square;"/>
    </g>
    <g id="line2d_76"/>
    <g id="text_33">
     <!-- locality#9 -->
     <defs>
      <path d="
M10.9844 1.51562
L10.9844 10.5
Q14.7031 8.73438 18.5 7.8125
Q22.3125 6.89062 25.9844 6.89062
Q35.75 6.89062 40.8906 13.4531
Q46.0469 20.0156 46.7812 33.4062
Q43.9531 29.2031 39.5938 26.9531
Q35.25 24.7031 29.9844 24.7031
Q19.0469 24.7031 12.6719 31.3125
Q6.29688 37.9375 6.29688 49.4219
Q6.29688 60.6406 12.9375 67.4219
Q19.5781 74.2188 30.6094 74.2188
Q43.2656 74.2188 49.9219 64.5156
Q56.5938 54.8281 56.5938 36.375
Q56.5938 19.1406 48.4062 8.85938
Q40.2344 -1.42188 26.4219 -1.42188
Q22.7031 -1.42188 18.8906 -0.6875
Q15.0938 0.046875 10.9844 1.51562
M30.6094 32.4219
Q37.25 32.4219 41.125 36.9531
Q45.0156 41.5 45.0156 49.4219
Q45.0156 57.2812 41.125 61.8438
Q37.25 66.4062 30.6094 66.4062
Q23.9688 66.4062 20.0938 61.8438
Q16.2188 57.2812 16.2188 49.4219
Q16.2188 41.5 20.0938 36.9531
Q23.9688 32.4219 30.6094 32.4219" id="DejaVuSans-39"/>
     </defs>
     <g transform="translate(517.255 358.439)scale(0.144 -0.144)">
      <use xlink:href="#DejaVuSans-6c"/>
      <use x="27.783203125" xlink:href="#DejaVuSans-6f"/>
      <use x="88.96484375" xlink:href="#DejaVuSans-63"/>
      <use x="143.9453125" xlink:href="#DejaVuSans-61"/>
      <use x="205.224609375" xlink:href="#DejaVuSans-6c"/>
      <use x="233.0078125" xlink:href="#DejaVuSans-69"/>
      <use x="260.791015625" xlink:href="#DejaVuSans-74"/>
      <use x="300.0" xlink:href="#DejaVuSans-79"/>
      <use x="359.1796875" xlink:href="#DejaVuSans-23"/>
      <use x="442.96875" xlink:href="#DejaVuSans-39"/>
     </g>
    </g>
   </g>
  </g>
 </g>
 <defs>
  <clipPath id="pf51f381abf">
   <rect height="345.6" width="446.4" x="17.575" y="23.14175"/>
  </clipPath>
 </defs>
</svg>
