<?xml version="1.0" encoding="utf-8" standalone="no"?>
<!DOCTYPE svg PUBLIC "-//W3C//DTD SVG 1.1//EN"
  "http://www.w3.org/Graphics/SVG/1.1/DTD/svg11.dtd">
<!-- Created with matplotlib (http://matplotlib.org/) -->
<svg height="408pt" version="1.1" viewBox="0 0 648 408" width="648pt" xmlns="http://www.w3.org/2000/svg" xmlns:xlink="http://www.w3.org/1999/xlink">
 <defs>
  <style type="text/css">
*{stroke-linecap:butt;stroke-linejoin:round;}
  </style>
 </defs>
 <g id="figure_1">
  <g id="patch_1">
   <path d="
M0 408.169
L648.215 408.169
L648.215 0
L0 0
z
" style="fill:#ffffff;"/>
  </g>
  <g id="axes_1">
   <g id="patch_2">
    <path d="
M55.6262 368.742
L502.026 368.742
L502.026 23.1417
L55.6262 23.1417
z
" style="fill:#ffffff;"/>
   </g>
   <g id="line2d_1">
    <path clip-path="url(#p395fe44e94)" d="
M55.6262 368.742
L502.026 368.742
L502.026 368.742" style="fill:none;stroke:#0000ff;stroke-linecap:square;"/>
   </g>
   <g id="line2d_2">
    <path clip-path="url(#p395fe44e94)" d="
M55.6262 368.742
L59.8305 368.742
L59.9806 361.158
L64.4852 361.158
L64.6353 358.127
L69.1399 358.127
L69.29 354.302
L73.7946 354.302
L73.9447 351.876
L78.4493 351.876
L78.5994 348.387
L83.1039 348.387
L83.2541 345.457
L87.7586 345.457
L87.9088 342.98
L92.4133 342.98
L92.5635 340.169
L97.068 340.169
L97.2182 337.965
L101.723 337.965
L101.873 335.436
L106.377 335.436
L106.528 332.784
L111.032 332.784
L111.182 329.482
L115.687 329.482
L115.837 326.769
L120.341 326.769
L120.492 324.301
L124.996 324.301
L125.146 321.413
L129.651 321.413
L129.801 318.258
L134.306 318.258
L134.456 315.432
L138.96 315.432
L139.11 312.223
L143.615 312.223
L143.765 309.234
L148.27 309.234
L148.42 306.171
L152.924 306.171
L153.074 303.203
L157.579 303.203
L157.729 300.523
L162.234 300.523
L162.384 297.656
L166.888 297.656
L167.039 294.992
L171.543 294.992
L171.693 291.895
L176.198 291.895
L176.348 288.84
L180.852 288.84
L181.003 286.362
L185.507 286.362
L185.657 283.74
L190.162 283.74
L190.312 280.571
L194.817 280.571
L194.967 277.309
L199.471 277.309
L199.621 274.673
L204.126 274.673
L204.276 271.63
L208.781 271.63
L208.931 267.917
L213.435 267.917
L213.585 265.252
L218.09 265.252
L218.24 262.397
L222.745 262.397
L222.895 260.096
L227.399 260.096
L227.55 257.645
L232.054 257.645
L232.204 254.937
L236.709 254.937
L236.859 252.27
L241.363 252.27
L241.514 248.409
L246.018 248.409
L246.168 246.015
L250.673 246.015
L250.823 243.563
L255.328 243.563
L255.478 240.463
L259.982 240.463
L260.132 237.958
L264.637 237.958
L264.787 235.064
L269.292 235.064
L269.442 231.754
L273.946 231.754
L274.096 228.711
L278.601 228.711
L278.751 225.618
L283.256 225.618
L283.406 218.909
L287.91 218.909
L288.061 216.185
L292.565 216.185
L292.715 213.342
L297.22 213.342
L297.37 210.339
L301.874 210.339
L302.025 207.752
L306.529 207.752
L306.679 204.052
L311.184 204.052
L311.334 200.914
L315.839 200.914
L315.989 197.699
L320.493 197.699
L320.643 194.665
L325.148 194.665
L325.298 191.772
L329.803 191.772
L329.953 188.513
L334.457 188.513
L334.607 185.445
L339.112 185.445
L339.262 182.718
L343.767 182.718
L343.917 180.286
L348.421 180.286
L348.572 177.202
L353.076 177.202
L353.226 174.652
L357.731 174.652
L357.881 171.745
L362.385 171.745
L362.536 169.422
L367.04 169.422
L367.19 166.23
L371.695 166.23
L371.845 163.582
L376.35 163.582
L376.5 160.349
L381.004 160.349
L381.154 157.149
L385.659 157.149
L385.809 154.766
L390.314 154.766
L390.464 152.193
L394.968 152.193
L395.118 149.427
L399.623 149.427
L399.773 146.553
L404.278 146.553
L404.428 143.833
L408.932 143.833
L409.083 141.524
L413.587 141.524
L413.737 138.23
L418.242 138.23
L418.392 135.185
L422.896 135.185
L423.047 132.003
L427.551 132.003
L427.701 129.066
L432.206 129.066
L432.356 125.9
L436.861 125.9
L437.011 122.113
L441.515 122.113
L441.665 119.069
L446.17 119.069
L446.32 116.282
L450.825 116.282
L450.975 113.679
L455.479 113.679
L455.629 110.323
L460.134 110.323
L460.284 107.147
L464.789 107.147
L464.939 104.671
L469.443 104.671
L469.594 101.863
L474.098 101.863
L474.248 98.9076
L478.753 98.9076
L478.903 96.2085
L483.407 96.2085
L483.558 92.9332
L488.062 92.9332
L488.212 89.6075
L492.717 89.6075
L492.867 86.8255
L497.372 86.8255
L497.522 83.7896
L502.026 83.7896
L502.026 83.7896" style="fill:none;stroke:#008000;stroke-linecap:square;"/>
   </g>
   <g id="line2d_3">
    <path clip-path="url(#p395fe44e94)" d="
M55.6262 368.742
L59.9806 368.742
L60.1308 360.823
L64.4852 360.823
L64.6353 357.679
L69.1399 357.679
L69.29 354.782
L73.7946 354.782
L73.9447 352.026
L78.4493 352.026
L78.5994 349.053
L83.1039 349.053
L83.2541 346.541
L87.7586 346.541
L87.9088 344.444
L92.4133 344.444
L92.5635 341.499
L97.068 341.499
L97.2182 338.749
L101.723 338.749
L101.873 333.834
L106.377 333.834
L106.528 331.067
L111.032 331.067
L111.182 327.674
L115.687 327.674
L115.837 324.326
L120.341 324.326
L120.492 321.123
L124.996 321.123
L125.146 318.064
L129.651 318.064
L129.801 315.181
L134.306 315.181
L134.456 312.04
L138.96 312.04
L139.11 309.093
L143.615 309.093
L143.765 306.114
L148.27 306.114
L148.42 302.83
L152.924 302.83
L153.074 299.818
L157.579 299.818
L157.729 297.268
L162.234 297.268
L162.384 294.419
L166.888 294.419
L167.039 291.903
L171.543 291.903
L171.693 289.019
L176.198 289.019
L176.348 286.535
L180.852 286.535
L181.003 283.133
L185.507 283.133
L185.657 280.678
L190.162 280.678
L190.312 278.091
L194.817 278.091
L194.967 275.323
L199.471 275.323
L199.621 272.593
L204.126 272.593
L204.276 269.891
L208.781 269.891
L208.931 266.979
L213.435 266.979
L213.585 263.62
L218.09 263.62
L218.24 260.577
L222.745 260.577
L222.895 257.897
L227.399 257.897
L227.55 255.626
L232.054 255.626
L232.204 252.435
L236.709 252.435
L236.859 250.112
L241.363 250.112
L241.514 247.088
L246.018 247.088
L246.168 244.591
L250.673 244.591
L250.823 242.02
L255.328 242.02
L255.478 238.127
L259.982 238.127
L260.132 234.762
L264.637 234.762
L264.787 231.972
L269.292 231.972
L269.442 228.621
L273.946 228.621
L274.096 225.969
L278.601 225.969
L278.751 222.804
L283.256 222.804
L283.406 219.728
L287.91 219.728
L288.061 216.076
L292.565 216.076
L292.715 212.747
L297.22 212.747
L297.37 209.217
L301.874 209.217
L302.025 206.697
L306.529 206.697
L306.679 203.439
L311.184 203.439
L311.334 199.808
L315.839 199.808
L315.989 196.91
L320.493 196.91
L320.643 189.266
L325.148 189.266
L325.298 186.028
L329.803 186.028
L329.953 182.704
L334.457 182.704
L334.607 178.9
L339.112 178.9
L339.262 175.578
L343.767 175.578
L343.917 172.379
L348.421 172.379
L348.572 166.282
L353.076 166.282
L353.226 162.59
L357.731 162.59
L357.881 159.727
L362.385 159.727
L362.536 156.327
L367.04 156.327
L367.19 153.405
L371.695 153.405
L371.845 151.12
L376.35 151.12
L376.5 147.68
L381.004 147.68
L381.154 144.824
L385.659 144.824
L385.809 141.546
L390.314 141.546
L390.464 138.986
L394.968 138.986
L395.118 135.998
L399.623 135.998
L399.773 133.032
L404.278 133.032
L404.428 130.163
L408.932 130.163
L409.083 127.454
L413.587 127.454
L413.737 124.824
L418.242 124.824
L418.392 121.66
L422.896 121.66
L423.047 118.945
L427.551 118.945
L427.701 115.491
L432.206 115.491
L432.356 112.49
L436.861 112.49
L437.011 109.515
L441.515 109.515
L441.665 106.386
L446.17 106.386
L446.32 103.557
L450.825 103.557
L450.975 99.9277
L455.479 99.9277
L455.629 97.2157
L460.134 97.2157
L460.284 94.5659
L464.789 94.5659
L464.939 92.2701
L469.443 92.2701
L469.594 89.7853
L474.098 89.7853
L474.248 86.5742
L478.753 86.5742
L478.903 83.9965
L483.407 83.9965
L483.558 81.2801
L488.062 81.2801
L488.212 77.9272
L492.717 77.9272
L492.867 74.4515
L497.372 74.4515
L497.522 71.6383
L502.026 71.6383
L502.026 71.6383" style="fill:none;stroke:#ff0000;stroke-linecap:square;"/>
   </g>
   <g id="line2d_4">
    <path clip-path="url(#p395fe44e94)" d="
M55.6262 368.742
L59.9806 368.742
L60.1308 362.522
L64.4852 362.522
L64.6353 359.641
L69.1399 359.641
L69.29 356.027
L73.7946 356.027
L73.9447 353.261
L78.4493 353.261
L78.5994 350.133
L83.1039 350.133
L83.2541 347.774
L87.7586 347.774
L87.9088 345.394
L92.4133 345.394
L92.5635 341.947
L97.068 341.947
L97.2182 339.502
L101.723 339.502
L101.873 336.707
L106.377 336.707
L106.528 334.42
L111.032 334.42
L111.182 331.349
L115.687 331.349
L115.837 328.596
L120.341 328.596
L120.492 325.437
L124.996 325.437
L125.146 322.63
L129.651 322.63
L129.801 319.693
L134.306 319.693
L134.456 317.28
L138.96 317.28
L139.11 315.036
L143.615 315.036
L143.765 312.26
L148.27 312.26
L148.42 309.161
L152.924 309.161
L153.074 304
L157.579 304
L157.729 301.543
L162.234 301.543
L162.384 298.565
L166.888 298.565
L167.039 294.542
L171.543 294.542
L171.693 291.826
L176.198 291.826
L176.348 289.136
L180.852 289.136
L181.003 285.924
L185.507 285.924
L185.657 282.925
L190.162 282.925
L190.312 280.154
L194.817 280.154
L194.967 277.043
L199.471 277.043
L199.621 274.289
L204.126 274.289
L204.276 271.666
L208.781 271.666
L208.931 268.821
L213.435 268.821
L213.585 266.354
L218.09 266.354
L218.24 263.207
L222.745 263.207
L222.895 260.143
L227.399 260.143
L227.55 257.009
L232.054 257.009
L232.204 254.249
L236.709 254.249
L236.859 251.962
L241.363 251.962
L241.514 248.88
L246.018 248.88
L246.168 246.225
L250.673 246.225
L250.823 242.219
L255.328 242.219
L255.478 239.048
L259.982 239.048
L260.132 236.295
L264.637 236.295
L264.787 233.424
L269.292 233.424
L269.442 230.326
L273.946 230.326
L274.096 227.4
L278.601 227.4
L278.751 224.538
L283.256 224.538
L283.406 220.469
L287.91 220.469
L288.061 217.82
L292.565 217.82
L292.715 215.058
L297.22 215.058
L297.37 211.948
L301.874 211.948
L302.025 209.221
L306.529 209.221
L306.679 204.899
L311.184 204.899
L311.334 201.747
L315.839 201.747
L315.989 198.904
L320.493 198.904
L320.643 195.641
L325.148 195.641
L325.298 193.057
L329.803 193.057
L329.953 189.978
L334.457 189.978
L334.607 187.025
L339.112 187.025
L339.262 184.432
L343.767 184.432
L343.917 181.353
L348.421 181.353
L348.572 178.492
L353.076 178.492
L353.226 175.797
L357.731 175.797
L357.881 172.548
L362.385 172.548
L362.536 168.671
L367.04 168.671
L367.19 165.89
L371.695 165.89
L371.845 163.245
L376.35 163.245
L376.5 160.605
L381.004 160.605
L381.154 158.058
L385.659 158.058
L385.809 155.356
L390.314 155.356
L390.464 152.148
L394.968 152.148
L395.118 149.253
L399.623 149.253
L399.773 146.563
L404.278 146.563
L404.428 143.234
L408.932 143.234
L409.083 140.019
L413.587 140.019
L413.737 137.332
L418.242 137.332
L418.392 134.689
L422.896 134.689
L423.047 131.787
L427.551 131.787
L427.701 129.34
L432.206 129.34
L432.356 126.914
L436.861 126.914
L437.011 123.892
L441.515 123.892
L441.665 120.965
L446.17 120.965
L446.32 118.271
L450.825 118.271
L450.975 115.755
L455.479 115.755
L455.629 112.645
L460.134 112.645
L460.284 109.7
L464.789 109.7
L464.939 107.442
L469.443 107.442
L469.594 104.818
L474.098 104.818
L474.248 102.167
L478.753 102.167
L478.903 99.3377
L483.407 99.3377
L483.558 96.4322
L488.062 96.4322
L488.212 91.3444
L492.717 91.3444
L492.867 89.0299
L497.372 89.0299
L497.522 85.5063
L502.026 85.5063
L502.026 85.5063" style="fill:none;stroke:#00bfbf;stroke-linecap:square;"/>
   </g>
   <g id="line2d_5">
    <path clip-path="url(#p395fe44e94)" d="
M55.6262 368.742
L59.9806 368.742
L60.1308 360.975
L64.4852 360.975
L64.6353 358.183
L69.1399 358.183
L69.29 354.786
L73.7946 354.786
L73.9447 352.178
L78.4493 352.178
L78.5994 349.001
L83.1039 349.001
L83.2541 345.993
L87.7586 345.993
L87.9088 341.502
L92.4133 341.502
L92.5635 337.981
L97.068 337.981
L97.2182 328.641
L101.723 328.641
L101.873 325.371
L106.377 325.371
L106.528 322.408
L111.032 322.408
L111.182 319.286
L115.687 319.286
L115.837 316.453
L120.341 316.453
L120.492 313.582
L124.996 313.582
L125.146 310.73
L129.651 310.73
L129.801 307.993
L134.306 307.993
L134.456 305.373
L138.96 305.373
L139.11 301.766
L143.615 301.766
L143.765 298.963
L148.27 298.963
L148.42 296.053
L152.924 296.053
L153.074 293.19
L157.579 293.19
L157.729 290.611
L162.234 290.611
L162.384 286.857
L166.888 286.857
L167.039 284.165
L171.543 284.165
L171.693 281.459
L176.198 281.459
L176.348 278.895
L180.852 278.895
L181.003 274.549
L185.507 274.549
L185.657 271.801
L190.162 271.801
L190.312 268.801
L194.817 268.801
L194.967 266.39
L199.471 266.39
L199.621 264.062
L204.126 264.062
L204.276 260.892
L208.781 260.892
L208.931 258.054
L213.435 258.054
L213.585 255.097
L218.09 255.097
L218.24 252.215
L222.745 252.215
L222.895 248.786
L227.399 248.786
L227.55 242.55
L232.054 242.55
L232.204 239.499
L236.709 239.499
L236.859 233.067
L241.363 233.067
L241.514 229.698
L246.018 229.698
L246.168 227.262
L250.673 227.262
L250.823 224.183
L255.328 224.183
L255.478 220.588
L259.982 220.588
L260.132 216.896
L264.637 216.896
L264.787 214.027
L269.292 214.027
L269.442 210.544
L273.946 210.544
L274.096 207.352
L278.601 207.352
L278.751 201.568
L283.256 201.568
L283.406 198.289
L287.91 198.289
L288.061 192.622
L292.565 192.622
L292.715 189.312
L297.22 189.312
L297.37 186.008
L301.874 186.008
L302.025 183.323
L306.529 183.323
L306.679 180.617
L311.184 180.617
L311.334 177.801
L315.839 177.801
L315.989 174.752
L320.493 174.752
L320.643 171.696
L325.148 171.696
L325.298 168.759
L329.803 168.759
L329.953 163.669
L334.457 163.669
L334.607 160.206
L339.112 160.206
L339.262 156.826
L343.767 156.826
L343.917 153.193
L348.421 153.193
L348.572 150.248
L353.076 150.248
L353.226 146.81
L357.731 146.81
L357.881 143.768
L362.385 143.768
L362.536 140.53
L367.04 140.53
L367.19 137.182
L371.695 137.182
L371.845 134.25
L376.35 134.25
L376.5 131.838
L381.004 131.838
L381.154 129.207
L385.659 129.207
L385.809 125.694
L390.314 125.694
L390.464 123.349
L394.968 123.349
L395.118 120.572
L399.623 120.572
L399.773 118.167
L404.278 118.167
L404.428 115.393
L408.932 115.393
L409.083 112.391
L413.587 112.391
L413.737 109.613
L418.242 109.613
L418.392 106.542
L422.896 106.542
L423.047 104.15
L427.551 104.15
L427.701 100.674
L432.206 100.674
L432.356 97.6729
L436.861 97.6729
L437.011 94.8577
L441.515 94.8577
L441.665 91.497
L446.17 91.497
L446.32 88.1689
L450.825 88.1689
L450.975 85.6465
L455.479 85.6465
L455.629 82.2532
L460.134 82.2532
L460.284 79.4341
L464.789 79.4341
L464.939 76.3039
L469.443 76.3039
L469.594 72.2485
L474.098 72.2485
L474.248 68.9012
L478.753 68.9012
L478.903 65.3923
L483.407 65.3923
L483.558 62.826
L488.062 62.826
L488.212 59.2955
L492.717 59.2955
L492.867 56.6057
L497.372 56.6057
L497.522 53.0258
L502.026 53.0258
L502.026 53.0258" style="fill:none;stroke:#bf00bf;stroke-linecap:square;"/>
   </g>
   <g id="line2d_6">
    <path clip-path="url(#p395fe44e94)" d="
M55.6262 368.742
L59.9806 368.742
L60.1308 361.088
L64.4852 361.088
L64.6353 358.167
L69.1399 358.167
L69.29 355.486
L73.7946 355.486
L73.9447 352.674
L78.4493 352.674
L78.5994 349.866
L83.1039 349.866
L83.2541 346.852
L87.7586 346.852
L87.9088 344.146
L92.4133 344.146
L92.5635 338.715
L97.068 338.715
L97.2182 336.24
L101.723 336.24
L101.873 333.438
L106.377 333.438
L106.528 331.285
L111.032 331.285
L111.182 328.077
L115.687 328.077
L115.837 325.287
L120.341 325.287
L120.492 322.879
L124.996 322.879
L125.146 320.212
L129.651 320.212
L129.801 317.619
L134.306 317.619
L134.456 315.181
L138.96 315.181
L139.11 312.34
L143.615 312.34
L143.765 310.216
L148.27 310.216
L148.42 307.7
L152.924 307.7
L153.074 304.753
L157.579 304.753
L157.729 302.033
L162.234 302.033
L162.384 298.874
L166.888 298.874
L167.039 296.237
L171.543 296.237
L171.693 293.662
L176.198 293.662
L176.348 291.374
L180.852 291.374
L181.003 287.698
L185.507 287.698
L185.657 285.352
L190.162 285.352
L190.312 282.902
L194.817 282.902
L194.967 280.823
L199.471 280.823
L199.621 278.379
L204.126 278.379
L204.276 275.949
L208.781 275.949
L208.931 272.89
L213.435 272.89
L213.585 269.796
L218.09 269.796
L218.24 266.768
L222.745 266.768
L222.895 263.078
L227.399 263.078
L227.55 260.575
L232.054 260.575
L232.204 258.12
L236.709 258.12
L236.859 255.753
L241.363 255.753
L241.514 252.341
L246.018 252.341
L246.168 249.592
L250.673 249.592
L250.823 247.066
L255.328 247.066
L255.478 244.458
L259.982 244.458
L260.132 237.21
L264.637 237.21
L264.787 234.6
L269.292 234.6
L269.442 231.383
L273.946 231.383
L274.096 228.776
L278.601 228.776
L278.751 226.343
L283.256 226.343
L283.406 223.057
L287.91 223.057
L288.061 216.62
L292.565 216.62
L292.715 213.787
L297.22 213.787
L297.37 207.673
L301.874 207.673
L302.025 204.767
L306.529 204.767
L306.679 202.12
L311.184 202.12
L311.334 198.032
L315.839 198.032
L315.989 195.305
L320.493 195.305
L320.643 192.551
L325.148 192.551
L325.298 189.729
L329.803 189.729
L329.953 186.977
L334.457 186.977
L334.607 184.131
L339.112 184.131
L339.262 181.215
L343.767 181.215
L343.917 169.391
L348.421 169.391
L348.572 164.536
L353.076 164.536
L353.226 161.804
L357.731 161.804
L357.881 158.021
L362.385 158.021
L362.536 155.188
L367.04 155.188
L367.19 152.62
L371.695 152.62
L371.845 149.222
L376.35 149.222
L376.5 146.704
L381.004 146.704
L381.154 143.955
L385.659 143.955
L385.809 141.23
L390.314 141.23
L390.464 138.77
L394.968 138.77
L395.118 135.976
L399.623 135.976
L399.773 132.912
L404.278 132.912
L404.428 129.996
L408.932 129.996
L409.083 127.471
L413.587 127.471
L413.737 124.825
L418.242 124.825
L418.392 122.087
L422.896 122.087
L423.047 119.407
L427.551 119.407
L427.701 116.895
L432.206 116.895
L432.356 114.519
L436.861 114.519
L437.011 111.011
L441.515 111.011
L441.665 108.027
L446.17 108.027
L446.32 104.736
L450.825 104.736
L450.975 101.699
L455.479 101.699
L455.629 99.0256
L460.134 99.0256
L460.284 96.2944
L464.789 96.2944
L464.939 93.4407
L469.443 93.4407
L469.594 90.714
L474.098 90.714
L474.248 88.0163
L478.753 88.0163
L478.903 85.2387
L483.407 85.2387
L483.558 82.0192
L488.062 82.0192
L488.212 79.6029
L492.717 79.6029
L492.867 73.316
L497.372 73.316
L497.522 70.128
L502.026 70.128
L502.026 70.128" style="fill:none;stroke:#bfbf00;stroke-linecap:square;"/>
   </g>
   <g id="line2d_7">
    <path clip-path="url(#p395fe44e94)" d="
M55.6262 368.742
L59.9806 368.742
L60.1308 362.426
L64.4852 362.426
L64.6353 359.291
L69.1399 359.291
L69.29 356.574
L73.7946 356.574
L73.9447 354.184
L78.4493 354.184
L78.5994 346.609
L83.1039 346.609
L83.2541 344.148
L87.7586 344.148
L87.9088 341.855
L92.4133 341.855
L92.5635 339.109
L97.068 339.109
L97.2182 336.297
L101.723 336.297
L101.873 333.862
L106.377 333.862
L106.528 331.507
L111.032 331.507
L111.182 328.645
L115.687 328.645
L115.837 325.664
L120.341 325.664
L120.492 322.726
L124.996 322.726
L125.146 320.184
L129.651 320.184
L129.801 317.584
L134.306 317.584
L134.456 314.826
L138.96 314.826
L139.11 312.161
L143.615 312.161
L143.765 309.363
L148.27 309.363
L148.42 306.676
L152.924 306.676
L153.074 304.273
L157.579 304.273
L157.729 301.725
L162.234 301.725
L162.384 299.104
L166.888 299.104
L167.039 296.538
L171.543 296.538
L171.693 293.931
L176.198 293.931
L176.348 291.338
L180.852 291.338
L181.003 288.217
L185.507 288.217
L185.657 284.781
L190.162 284.781
L190.312 282.387
L194.817 282.387
L194.967 279.499
L199.471 279.499
L199.621 277.333
L204.126 277.333
L204.276 274.46
L208.781 274.46
L208.931 272.077
L213.435 272.077
L213.585 269.187
L218.09 269.187
L218.24 266.725
L222.745 266.725
L222.895 263.604
L227.399 263.604
L227.55 260.595
L232.054 260.595
L232.204 257.866
L236.709 257.866
L236.859 255.304
L241.363 255.304
L241.514 251.55
L246.018 251.55
L246.168 248.876
L250.673 248.876
L250.823 246.071
L255.328 246.071
L255.478 243.678
L259.982 243.678
L260.132 240.961
L264.637 240.961
L264.787 238.741
L269.292 238.741
L269.442 236.356
L273.946 236.356
L274.096 232.965
L278.601 232.965
L278.751 229.86
L283.256 229.86
L283.406 227.135
L287.91 227.135
L288.061 223.938
L292.565 223.938
L292.715 221.167
L297.22 221.167
L297.37 218.09
L301.874 218.09
L302.025 214.805
L306.529 214.805
L306.679 211.386
L311.184 211.386
L311.334 208.72
L315.839 208.72
L315.989 205.593
L320.493 205.593
L320.643 203.206
L325.148 203.206
L325.298 190.245
L329.803 190.245
L329.953 187.542
L334.457 187.542
L334.607 185.262
L339.112 185.262
L339.262 182.642
L343.767 182.642
L343.917 179.495
L348.421 179.495
L348.572 176.477
L353.076 176.477
L353.226 173.866
L357.731 173.866
L357.881 170.288
L362.385 170.288
L362.536 167.382
L367.04 167.382
L367.19 164.29
L371.695 164.29
L371.845 161.827
L376.35 161.827
L376.5 159.439
L381.004 159.439
L381.154 156.823
L385.659 156.823
L385.809 154.155
L390.314 154.155
L390.464 151.386
L394.968 151.386
L395.118 148.683
L399.623 148.683
L399.773 145.865
L404.278 145.865
L404.428 143.138
L408.932 143.138
L409.083 140.423
L413.587 140.423
L413.737 137.277
L418.242 137.277
L418.392 134.475
L422.896 134.475
L423.047 131.957
L427.551 131.957
L427.701 129.627
L432.206 129.627
L432.356 126.791
L436.861 126.791
L437.011 124.102
L441.515 124.102
L441.665 121.579
L446.17 121.579
L446.32 118.958
L450.825 118.958
L450.975 116.222
L455.479 116.222
L455.629 113.159
L460.134 113.159
L460.284 109.534
L464.789 109.534
L464.939 106.921
L469.443 106.921
L469.594 104.031
L474.098 104.031
L474.248 101.514
L478.753 101.514
L478.903 98.6371
L483.407 98.6371
L483.558 95.2586
L488.062 95.2586
L488.212 92.0786
L492.717 92.0786
L492.867 89.6554
L497.372 89.6554
L497.522 86.863
L502.026 86.863
L502.026 86.863" style="fill:none;stroke:#000000;stroke-linecap:square;"/>
   </g>
   <g id="line2d_8">
    <path clip-path="url(#p395fe44e94)" d="
M55.6262 368.742
L59.8305 368.742
L59.9806 362.481
L64.4852 362.481
L64.6353 359.682
L69.1399 359.682
L69.29 356.152
L73.7946 356.152
L73.9447 353.906
L78.4493 353.906
L78.5994 351.098
L83.1039 351.098
L83.2541 348.477
L87.7586 348.477
L87.9088 345.889
L92.4133 345.889
L92.5635 343.12
L97.068 343.12
L97.2182 340.389
L101.723 340.389
L101.873 337.065
L106.377 337.065
L106.528 334.9
L111.032 334.9
L111.182 331.974
L115.687 331.974
L115.837 329.279
L120.341 329.279
L120.492 326.87
L124.996 326.87
L125.146 323.905
L129.651 323.905
L129.801 321.422
L134.306 321.422
L134.456 318.892
L138.96 318.892
L139.11 316.259
L143.615 316.259
L143.765 313.839
L148.27 313.839
L148.42 310.582
L152.924 310.582
L153.074 306.297
L157.579 306.297
L157.729 303.514
L162.234 303.514
L162.384 300.117
L166.888 300.117
L167.039 297.56
L171.543 297.56
L171.693 294.958
L176.198 294.958
L176.348 291.985
L180.852 291.985
L181.003 289.29
L185.507 289.29
L185.657 286.341
L190.162 286.341
L190.312 283.769
L194.817 283.769
L194.967 281.136
L199.471 281.136
L199.621 278.505
L204.126 278.505
L204.276 275.727
L208.781 275.727
L208.931 271.161
L213.435 271.161
L213.585 268.851
L218.09 268.851
L218.24 265.718
L222.745 265.718
L222.895 262.713
L227.399 262.713
L227.55 259.621
L232.054 259.621
L232.204 256.828
L236.709 256.828
L236.859 254.12
L241.363 254.12
L241.514 251.242
L246.018 251.242
L246.168 248.358
L250.673 248.358
L250.823 245.408
L255.328 245.408
L255.478 243.111
L259.982 243.111
L260.132 240.237
L264.637 240.237
L264.787 237.585
L269.292 237.585
L269.442 234.745
L273.946 234.745
L274.096 231.228
L278.601 231.228
L278.751 227.964
L283.256 227.964
L283.406 224.79
L287.91 224.79
L288.061 220.86
L292.565 220.86
L292.715 217.598
L297.22 217.598
L297.37 210.971
L301.874 210.971
L302.025 207.422
L306.529 207.422
L306.679 204.468
L311.184 204.468
L311.334 201.421
L315.839 201.421
L315.989 197.665
L320.493 197.665
L320.643 194.937
L325.148 194.937
L325.298 191.934
L329.803 191.934
L329.953 189.231
L334.457 189.231
L334.607 186.271
L339.112 186.271
L339.262 183.347
L343.767 183.347
L343.917 180.567
L348.421 180.567
L348.572 177.213
L353.076 177.213
L353.226 174.936
L357.731 174.936
L357.881 172.328
L362.385 172.328
L362.536 169.64
L367.04 169.64
L367.19 166.854
L371.695 166.854
L371.845 163.515
L376.35 163.515
L376.5 160.347
L381.004 160.347
L381.154 157.249
L385.659 157.249
L385.809 154.451
L390.314 154.451
L390.464 151.214
L394.968 151.214
L395.118 148.392
L399.623 148.392
L399.773 145.707
L404.278 145.707
L404.428 142.994
L408.932 142.994
L409.083 140.133
L413.587 140.133
L413.737 136.963
L418.242 136.963
L418.392 134.248
L422.896 134.248
L423.047 131.735
L427.551 131.735
L427.701 129.337
L432.206 129.337
L432.356 126.754
L436.861 126.754
L437.011 123.852
L441.515 123.852
L441.665 120.841
L446.17 120.841
L446.32 118.21
L450.825 118.21
L450.975 115.47
L455.479 115.47
L455.629 112.919
L460.134 112.919
L460.284 110.088
L464.789 110.088
L464.939 107.388
L469.443 107.388
L469.594 104.805
L474.098 104.805
L474.248 101.984
L478.753 101.984
L478.903 98.6968
L483.407 98.6968
L483.558 96.0337
L488.062 96.0337
L488.212 92.1995
L492.717 92.1995
L492.867 89.7739
L497.372 89.7739
L497.522 86.9716
L502.026 86.9716
L502.026 86.9716" style="fill:none;stroke:#0000ff;stroke-linecap:square;"/>
   </g>
   <g id="line2d_9">
    <path clip-path="url(#p395fe44e94)" d="
M55.6262 368.742
L59.8305 368.742
L59.9806 358.087
L64.4852 358.087
L64.6353 355.323
L69.1399 355.323
L69.29 352.177
L73.7946 352.177
L73.9447 348.864
L78.4493 348.864
L78.5994 346.15
L83.1039 346.15
L83.2541 343.366
L87.7586 343.366
L87.9088 340.898
L92.4133 340.898
L92.5635 337.84
L97.068 337.84
L97.2182 335.185
L101.723 335.185
L101.873 332.558
L106.377 332.558
L106.528 330.55
L111.032 330.55
L111.182 327.926
L115.687 327.926
L115.837 325.03
L120.341 325.03
L120.492 322.48
L124.996 322.48
L125.146 319.386
L129.651 319.386
L129.801 316.034
L134.306 316.034
L134.456 313.077
L138.96 313.077
L139.11 310.214
L143.615 310.214
L143.765 307.795
L148.27 307.795
L148.42 304.555
L152.924 304.555
L153.074 301.339
L157.579 301.339
L157.729 298.809
L162.234 298.809
L162.384 295.343
L166.888 295.343
L167.039 292.819
L171.543 292.819
L171.693 290.202
L176.198 290.202
L176.348 286.868
L180.852 286.868
L181.003 284.039
L185.507 284.039
L185.657 281.132
L190.162 281.132
L190.312 278.507
L194.817 278.507
L194.967 276.002
L199.471 276.002
L199.621 273.343
L204.126 273.343
L204.276 270.77
L208.781 270.77
L208.931 267.477
L213.435 267.477
L213.585 264.628
L218.09 264.628
L218.24 262.155
L222.745 262.155
L222.895 259.394
L227.399 259.394
L227.55 256.243
L232.054 256.243
L232.204 253.661
L236.709 253.661
L236.859 251.049
L241.363 251.049
L241.514 248.443
L246.018 248.443
L246.168 245.921
L250.673 245.921
L250.823 242.223
L255.328 242.223
L255.478 239.131
L259.982 239.131
L260.132 235.89
L264.637 235.89
L264.787 233.204
L269.292 233.204
L269.442 229.039
L273.946 229.039
L274.096 225.75
L278.601 225.75
L278.751 223.237
L283.256 223.237
L283.406 220.156
L287.91 220.156
L288.061 217.428
L292.565 217.428
L292.715 214.494
L297.22 214.494
L297.37 211.749
L301.874 211.749
L302.025 208.968
L306.529 208.968
L306.679 205.97
L311.184 205.97
L311.334 203.173
L315.839 203.173
L315.989 200.585
L320.493 200.585
L320.643 197.513
L325.148 197.513
L325.298 194.985
L329.803 194.985
L329.953 191.53
L334.457 191.53
L334.607 188.772
L339.112 188.772
L339.262 184.581
L343.767 184.581
L343.917 181.331
L348.421 181.331
L348.572 178.965
L353.076 178.965
L353.226 176.246
L357.731 176.246
L357.881 173.657
L362.385 173.657
L362.536 171.055
L367.04 171.055
L367.19 168.905
L371.695 168.905
L371.845 166.061
L376.35 166.061
L376.5 163.414
L381.004 163.414
L381.154 160.636
L385.659 160.636
L385.809 157.901
L390.314 157.901
L390.464 155.027
L394.968 155.027
L395.118 152.43
L399.623 152.43
L399.773 149.967
L404.278 149.967
L404.428 146.906
L408.932 146.906
L409.083 144.346
L413.587 144.346
L413.737 136.898
L418.242 136.898
L418.392 133.845
L422.896 133.845
L423.047 131.157
L427.551 131.157
L427.701 128.461
L432.206 128.461
L432.356 125.869
L436.861 125.869
L437.011 122.077
L441.515 122.077
L441.665 119.26
L446.17 119.26
L446.32 116.658
L450.825 116.658
L450.975 113.912
L455.479 113.912
L455.629 110.636
L460.134 110.636
L460.284 107.674
L464.789 107.674
L464.939 105.213
L469.443 105.213
L469.594 102.396
L474.098 102.396
L474.248 99.3648
L478.753 99.3648
L478.903 96.291
L483.407 96.291
L483.558 93.9088
L488.062 93.9088
L488.212 91.0763
L492.717 91.0763
L492.867 88.0726
L497.372 88.0726
L497.522 85.294
L502.026 85.294
L502.026 85.294" style="fill:none;stroke:#008000;stroke-linecap:square;"/>
   </g>
   <g id="line2d_10">
    <path clip-path="url(#p395fe44e94)" d="
M55.6262 368.742
L59.8305 368.742
L59.9806 362.702
L64.4852 362.702
L64.6353 360.118
L69.1399 360.118
L69.29 357.523
L73.7946 357.523
L73.9447 354.857
L78.4493 354.857
L78.5994 351.485
L83.1039 351.485
L83.2541 348.337
L87.7586 348.337
L87.9088 345.927
L92.4133 345.927
L92.5635 342.597
L97.068 342.597
L97.2182 340.065
L101.723 340.065
L101.873 337.56
L106.377 337.56
L106.528 334.566
L111.032 334.566
L111.182 331.724
L115.687 331.724
L115.837 328.866
L120.341 328.866
L120.492 326.174
L124.996 326.174
L125.146 323.067
L129.651 323.067
L129.801 320.446
L134.306 320.446
L134.456 317.536
L138.96 317.536
L139.11 314.977
L143.615 314.977
L143.765 311.307
L148.27 311.307
L148.42 307.851
L152.924 307.851
L153.074 305.142
L157.579 305.142
L157.729 302.588
L162.234 302.588
L162.384 299.418
L166.888 299.418
L167.039 296.524
L171.543 296.524
L171.693 293.492
L176.198 293.492
L176.348 290.404
L180.852 290.404
L181.003 287.644
L185.507 287.644
L185.657 285.152
L190.162 285.152
L190.312 282.612
L194.817 282.612
L194.967 279.88
L199.471 279.88
L199.621 277.04
L204.126 277.04
L204.276 274.089
L208.781 274.089
L208.931 270.508
L213.435 270.508
L213.585 267.668
L218.09 267.668
L218.24 265.33
L222.745 265.33
L222.895 262.359
L227.399 262.359
L227.55 259.854
L232.054 259.854
L232.204 257.422
L236.709 257.422
L236.859 254.531
L241.363 254.531
L241.514 251.677
L246.018 251.677
L246.168 248.934
L250.673 248.934
L250.823 246.002
L255.328 246.002
L255.478 243.399
L259.982 243.399
L260.132 240.277
L264.637 240.277
L264.787 237.908
L269.292 237.908
L269.442 235.099
L273.946 235.099
L274.096 231.324
L278.601 231.324
L278.751 227.655
L283.256 227.655
L283.406 223.887
L287.91 223.887
L288.061 220.865
L292.565 220.865
L292.715 218.169
L297.22 218.169
L297.37 214.963
L301.874 214.963
L302.025 212.473
L306.529 212.473
L306.679 208.168
L311.184 208.168
L311.334 205.246
L315.839 205.246
L315.989 201.933
L320.493 201.933
L320.643 199.384
L325.148 199.384
L325.298 196.783
L329.803 196.783
L329.953 193.604
L334.457 193.604
L334.607 190.778
L339.112 190.778
L339.262 188.318
L343.767 188.318
L343.917 185.889
L348.421 185.889
L348.572 182.916
L353.076 182.916
L353.226 180.565
L357.731 180.565
L357.881 177.861
L362.385 177.861
L362.536 174.958
L367.04 174.958
L367.19 172.051
L371.695 172.051
L371.845 168.319
L376.35 168.319
L376.5 165.861
L381.004 165.861
L381.154 163.203
L385.659 163.203
L385.809 160.303
L390.314 160.303
L390.464 157.519
L394.968 157.519
L395.118 154.826
L399.623 154.826
L399.773 152.4
L404.278 152.4
L404.428 149.432
L408.932 149.432
L409.083 146.224
L413.587 146.224
L413.737 142.488
L418.242 142.488
L418.392 139.631
L422.896 139.631
L423.047 137.007
L427.551 137.007
L427.701 133.622
L432.206 133.622
L432.356 130.934
L436.861 130.934
L437.011 127.723
L441.515 127.723
L441.665 124.904
L446.17 124.904
L446.32 121.986
L450.825 121.986
L450.975 119.537
L455.479 119.537
L455.629 116.932
L460.134 116.932
L460.284 114.065
L464.789 114.065
L464.939 111.397
L469.443 111.397
L469.594 107.216
L474.098 107.216
L474.248 104.464
L478.753 104.464
L478.903 101.701
L483.407 101.701
L483.558 98.9057
L488.062 98.9057
L488.212 96.0179
L492.717 96.0179
L492.867 93.4047
L497.372 93.4047
L497.522 90.9776
L502.026 90.9776
L502.026 90.9776" style="fill:none;stroke:#ff0000;stroke-linecap:square;"/>
   </g>
   <g id="line2d_11">
    <path clip-path="url(#p395fe44e94)" d="
M55.6262 368.742
L59.8305 368.742
L59.9806 362.212
L64.4852 362.212
L64.6353 359.426
L69.1399 359.426
L69.29 355.807
L73.7946 355.807
L73.9447 352.973
L78.4493 352.973
L78.5994 349.97
L83.1039 349.97
L83.2541 346.573
L87.7586 346.573
L87.9088 343.96
L92.4133 343.96
L92.5635 340.769
L97.068 340.769
L97.2182 338.249
L101.723 338.249
L101.873 335.089
L106.377 335.089
L106.528 332.512
L111.032 332.512
L111.182 329.185
L115.687 329.185
L115.837 326.443
L120.341 326.443
L120.492 323.418
L124.996 323.418
L125.146 319.891
L129.651 319.891
L129.801 317.355
L134.306 317.355
L134.456 313.885
L138.96 313.885
L139.11 310.759
L143.615 310.759
L143.765 307.922
L148.27 307.922
L148.42 305.001
L152.924 305.001
L153.074 301.806
L157.579 301.806
L157.729 298.892
L162.234 298.892
L162.384 295.484
L166.888 295.484
L167.039 291.638
L171.543 291.638
L171.693 288.958
L176.198 288.958
L176.348 286.109
L180.852 286.109
L181.003 282.98
L185.507 282.98
L185.657 279.515
L190.162 279.515
L190.312 276.902
L194.817 276.902
L194.967 274.184
L199.471 274.184
L199.621 271.266
L204.126 271.266
L204.276 268.399
L208.781 268.399
L208.931 265.429
L213.435 265.429
L213.585 262.796
L218.09 262.796
L218.24 260.237
L222.745 260.237
L222.895 256.345
L227.399 256.345
L227.55 254.013
L232.054 254.013
L232.204 251.199
L236.709 251.199
L236.859 248.58
L241.363 248.58
L241.514 246.007
L246.018 246.007
L246.168 243.343
L250.673 243.343
L250.823 240.56
L255.328 240.56
L255.478 237.431
L259.982 237.431
L260.132 234.582
L264.637 234.582
L264.787 231.563
L269.292 231.563
L269.442 228.799
L273.946 228.799
L274.096 225.753
L278.601 225.753
L278.751 223.482
L283.256 223.482
L283.406 220.286
L287.91 220.286
L288.061 217.698
L292.565 217.698
L292.715 213.364
L297.22 213.364
L297.37 210.266
L301.874 210.266
L302.025 207.584
L306.529 207.584
L306.679 204.816
L311.184 204.816
L311.334 202.098
L315.839 202.098
L315.989 199.323
L320.493 199.323
L320.643 196.17
L325.148 196.17
L325.298 193.531
L329.803 193.531
L329.953 191.18
L334.457 191.18
L334.607 188.423
L339.112 188.423
L339.262 185.6
L343.767 185.6
L343.917 183.052
L348.421 183.052
L348.572 180.252
L353.076 180.252
L353.226 177.138
L357.731 177.138
L357.881 174.71
L362.385 174.71
L362.536 172.42
L367.04 172.42
L367.19 169.498
L371.695 169.498
L371.845 166.907
L376.35 166.907
L376.5 162.9
L381.004 162.9
L381.154 160.262
L385.659 160.262
L385.809 157.386
L390.314 157.386
L390.464 154.128
L394.968 154.128
L395.118 151.232
L399.623 151.232
L399.773 148.263
L404.278 148.263
L404.428 145.901
L408.932 145.901
L409.083 143.082
L413.587 143.082
L413.737 140.154
L418.242 140.154
L418.392 137.286
L422.896 137.286
L423.047 134.877
L427.551 134.877
L427.701 131.833
L432.206 131.833
L432.356 128.822
L436.861 128.822
L437.011 124.754
L441.515 124.754
L441.665 121.773
L446.17 121.773
L446.32 118.811
L450.825 118.811
L450.975 116.546
L455.479 116.546
L455.629 113.41
L460.134 113.41
L460.284 110.796
L464.789 110.796
L464.939 108.218
L469.443 108.218
L469.594 105.486
L474.098 105.486
L474.248 102.403
L478.753 102.403
L478.903 99.7336
L483.407 99.7336
L483.558 93.3287
L488.062 93.3287
L488.212 90.437
L492.717 90.437
L492.867 87.9339
L497.372 87.9339
L497.522 85.6909
L502.026 85.6909
L502.026 85.6909" style="fill:none;stroke:#00bfbf;stroke-linecap:square;"/>
   </g>
   <g id="line2d_12">
    <path clip-path="url(#p395fe44e94)" d="
M55.6262 368.742
L59.8305 368.742
L59.9806 361.578
L64.4852 361.578
L64.6353 358.17
L69.1399 358.17
L69.29 355.158
L73.7946 355.158
L73.9447 352.414
L78.4493 352.414
L78.5994 349.302
L83.1039 349.302
L83.2541 346.624
L87.7586 346.624
L87.9088 343.465
L92.4133 343.465
L92.5635 340.72
L97.068 340.72
L97.2182 337.112
L101.723 337.112
L101.873 333.909
L106.377 333.909
L106.528 331.243
L111.032 331.243
L111.182 327.943
L115.687 327.943
L115.837 325.04
L120.341 325.04
L120.492 321.741
L124.996 321.741
L125.146 318.907
L129.651 318.907
L129.801 316.038
L134.306 316.038
L134.456 313.11
L138.96 313.11
L139.11 310.843
L143.615 310.843
L143.765 307.595
L148.27 307.595
L148.42 303.378
L152.924 303.378
L153.074 300.239
L157.579 300.239
L157.729 297.5
L162.234 297.5
L162.384 294.857
L166.888 294.857
L167.039 291.753
L171.543 291.753
L171.693 288.805
L176.198 288.805
L176.348 285.969
L180.852 285.969
L181.003 282.796
L185.507 282.796
L185.657 280.251
L190.162 280.251
L190.312 277.678
L194.817 277.678
L194.967 274.852
L199.471 274.852
L199.621 272.097
L204.126 272.097
L204.276 269.417
L208.781 269.417
L208.931 266.574
L213.435 266.574
L213.585 263.451
L218.09 263.451
L218.24 259.345
L222.745 259.345
L222.895 256.699
L227.399 256.699
L227.55 253.9
L232.054 253.9
L232.204 251.132
L236.709 251.132
L236.859 248.505
L241.363 248.505
L241.514 240.101
L246.018 240.101
L246.168 237.392
L250.673 237.392
L250.823 234.983
L255.328 234.983
L255.478 232.294
L259.982 232.294
L260.132 229.681
L264.637 229.681
L264.787 226.772
L269.292 226.772
L269.442 223.578
L273.946 223.578
L274.096 220.654
L278.601 220.654
L278.751 217.333
L283.256 217.333
L283.406 213.98
L287.91 213.98
L288.061 210.81
L292.565 210.81
L292.715 207.041
L297.22 207.041
L297.37 204.651
L301.874 204.651
L302.025 201.448
L306.529 201.448
L306.679 198.012
L311.184 198.012
L311.334 195.543
L315.839 195.543
L315.989 191.081
L320.493 191.081
L320.643 187.522
L325.148 187.522
L325.298 184.498
L329.803 184.498
L329.953 181.754
L334.457 181.754
L334.607 179.095
L339.112 179.095
L339.262 176.222
L343.767 176.222
L343.917 172.909
L348.421 172.909
L348.572 170.249
L353.076 170.249
L353.226 167.508
L357.731 167.508
L357.881 164.49
L362.385 164.49
L362.536 161.913
L367.04 161.913
L367.19 159.071
L371.695 159.071
L371.845 156.122
L376.35 156.122
L376.5 153.295
L381.004 153.295
L381.154 150.395
L385.659 150.395
L385.809 147.094
L390.314 147.094
L390.464 144.256
L394.968 144.256
L395.118 141.384
L399.623 141.384
L399.773 138.402
L404.278 138.402
L404.428 135.905
L408.932 135.905
L409.083 129.759
L413.587 129.759
L413.737 127.088
L418.242 127.088
L418.392 124.311
L422.896 124.311
L423.047 121.363
L427.551 121.363
L427.701 118.284
L432.206 118.284
L432.356 115.302
L436.861 115.302
L437.011 112.519
L441.515 112.519
L441.665 109.596
L446.17 109.596
L446.32 103.997
L450.825 103.997
L450.975 100.485
L455.479 100.485
L455.629 97.5672
L460.134 97.5672
L460.284 94.6513
L464.789 94.6513
L464.939 91.5419
L469.443 91.5419
L469.594 87.493
L474.098 87.493
L474.248 84.7988
L478.753 84.7988
L478.903 81.9703
L483.407 81.9703
L483.558 78.7878
L488.062 78.7878
L488.212 76.0595
L492.717 76.0595
L492.867 73.311
L497.372 73.311
L497.522 69.3924
L502.026 69.3924
L502.026 69.3924" style="fill:none;stroke:#bf00bf;stroke-linecap:square;"/>
   </g>
   <g id="line2d_13">
    <path clip-path="url(#p395fe44e94)" d="
M55.6262 368.742
L59.9806 368.742
L60.1308 361.898
L64.4852 361.898
L64.6353 359.175
L69.1399 359.175
L69.29 356.518
L73.7946 356.518
L73.9447 353.706
L78.4493 353.706
L78.5994 350.719
L83.1039 350.719
L83.2541 347.854
L87.7586 347.854
L87.9088 345.293
L92.4133 345.293
L92.5635 341.35
L97.068 341.35
L97.2182 338.334
L101.723 338.334
L101.873 335.334
L106.377 335.334
L106.528 332.395
L111.032 332.395
L111.182 329.745
L115.687 329.745
L115.837 327.254
L120.341 327.254
L120.492 323.637
L124.996 323.637
L125.146 320.779
L129.651 320.779
L129.801 317.956
L134.306 317.956
L134.456 315.416
L138.96 315.416
L139.11 312.436
L143.615 312.436
L143.765 310.105
L148.27 310.105
L148.42 307.514
L152.924 307.514
L153.074 305.095
L157.579 305.095
L157.729 302.454
L162.234 302.454
L162.384 299.67
L166.888 299.67
L167.039 296.495
L171.543 296.495
L171.693 294.201
L176.198 294.201
L176.348 290.776
L180.852 290.776
L181.003 287.961
L185.507 287.961
L185.657 285.569
L190.162 285.569
L190.312 282.293
L194.817 282.293
L194.967 279.565
L199.471 279.565
L199.621 276.481
L204.126 276.481
L204.276 274.152
L208.781 274.152
L208.931 271.32
L213.435 271.32
L213.585 268.471
L218.09 268.471
L218.24 265.584
L222.745 265.584
L222.895 262.838
L227.399 262.838
L227.55 259.861
L232.054 259.861
L232.204 257.204
L236.709 257.204
L236.859 254.347
L241.363 254.347
L241.514 250.66
L246.018 250.66
L246.168 248.047
L250.673 248.047
L250.823 244.509
L255.328 244.509
L255.478 241.893
L259.982 241.893
L260.132 239.575
L264.637 239.575
L264.787 237.122
L269.292 237.122
L269.442 234.141
L273.946 234.141
L274.096 231.55
L278.601 231.55
L278.751 227.964
L283.256 227.964
L283.406 225.212
L287.91 225.212
L288.061 222.75
L292.565 222.75
L292.715 219.076
L297.22 219.076
L297.37 215.382
L301.874 215.382
L302.025 212.491
L306.529 212.491
L306.679 209.739
L311.184 209.739
L311.334 200.536
L315.839 200.536
L315.989 197.001
L320.493 197.001
L320.643 193.28
L325.148 193.28
L325.298 190.497
L329.803 190.497
L329.953 187.713
L334.457 187.713
L334.607 185.063
L339.112 185.063
L339.262 182.851
L343.767 182.851
L343.917 179.983
L348.421 179.983
L348.572 176.718
L353.076 176.718
L353.226 173.848
L357.731 173.848
L357.881 169.852
L362.385 169.852
L362.536 166.449
L367.04 166.449
L367.19 163.884
L371.695 163.884
L371.845 160.241
L376.35 160.241
L376.5 157.091
L381.004 157.091
L381.154 153.12
L385.659 153.12
L385.809 150.324
L390.314 150.324
L390.464 147.475
L394.968 147.475
L395.118 143.988
L399.623 143.988
L399.773 141.155
L404.278 141.155
L404.428 138.484
L408.932 138.484
L409.083 135.775
L413.587 135.775
L413.737 133.092
L418.242 133.092
L418.392 130.142
L422.896 130.142
L423.047 127.182
L427.551 127.182
L427.701 124.454
L432.206 124.454
L432.356 121.438
L436.861 121.438
L437.011 118.553
L441.515 118.553
L441.665 115.907
L446.17 115.907
L446.32 112.565
L450.825 112.565
L450.975 109.645
L455.479 109.645
L455.629 106.906
L460.134 106.906
L460.284 103.883
L464.789 103.883
L464.939 100.514
L469.443 100.514
L469.594 97.6951
L474.098 97.6951
L474.248 95.0873
L478.753 95.0873
L478.903 91.9665
L483.407 91.9665
L483.558 89.101
L488.062 89.101
L488.212 84.3371
L492.717 84.3371
L492.867 81.207
L497.372 81.207
L497.522 78.0507
L502.026 78.0507
L502.026 78.0507" style="fill:none;stroke:#bfbf00;stroke-linecap:square;"/>
   </g>
   <g id="line2d_14">
    <path clip-path="url(#p395fe44e94)" d="
M55.6262 368.742
L59.9806 368.742
L60.1308 361.82
L64.4852 361.82
L64.6353 359.189
L69.1399 359.189
L69.29 355.23
L73.7946 355.23
L73.9447 353.058
L78.4493 353.058
L78.5994 350.614
L83.1039 350.614
L83.2541 347.882
L87.7586 347.882
L87.9088 344.787
L92.4133 344.787
L92.5635 341.721
L97.068 341.721
L97.2182 338.889
L101.723 338.889
L101.873 336.191
L106.377 336.191
L106.528 332.536
L111.032 332.536
L111.182 329.422
L115.687 329.422
L115.837 326.613
L120.341 326.613
L120.492 324.418
L124.996 324.418
L125.146 321.259
L129.651 321.259
L129.801 317.829
L134.306 317.829
L134.456 314.526
L138.96 314.526
L139.11 311.586
L143.615 311.586
L143.765 308.711
L148.27 308.711
L148.42 305.77
L152.924 305.77
L153.074 302.396
L157.579 302.396
L157.729 299.601
L162.234 299.601
L162.384 296.403
L166.888 296.403
L167.039 293.356
L171.543 293.356
L171.693 289.95
L176.198 289.95
L176.348 287.381
L180.852 287.381
L181.003 282.311
L185.507 282.311
L185.657 279.31
L190.162 279.31
L190.312 276.226
L194.817 276.226
L194.967 273.515
L199.471 273.515
L199.621 270.531
L204.126 270.531
L204.276 267.995
L208.781 267.995
L208.931 265.631
L213.435 265.631
L213.585 262.29
L218.09 262.29
L218.24 258.87
L222.745 258.87
L222.895 255.842
L227.399 255.842
L227.55 253.014
L232.054 253.014
L232.204 250.252
L236.709 250.252
L236.859 247.523
L241.363 247.523
L241.514 244.704
L246.018 244.704
L246.168 242.247
L250.673 242.247
L250.823 238.842
L255.328 238.842
L255.478 235.296
L259.982 235.296
L260.132 232.113
L264.637 232.113
L264.787 229.731
L269.292 229.731
L269.442 226.199
L273.946 226.199
L274.096 222.884
L278.601 222.884
L278.751 220.1
L283.256 220.1
L283.406 217.362
L287.91 217.362
L288.061 214.164
L292.565 214.164
L292.715 211.028
L297.22 211.028
L297.37 207.53
L301.874 207.53
L302.025 204.763
L306.529 204.763
L306.679 201.061
L311.184 201.061
L311.334 196.989
L315.839 196.989
L315.989 193.819
L320.493 193.819
L320.643 187.445
L325.148 187.445
L325.298 184.355
L329.803 184.355
L329.953 180.306
L334.457 180.306
L334.607 177.233
L339.112 177.233
L339.262 174.651
L343.767 174.651
L343.917 171.729
L348.421 171.729
L348.572 168.819
L353.076 168.819
L353.226 166.023
L357.731 166.023
L357.881 159.266
L362.385 159.266
L362.536 156.846
L367.04 156.846
L367.19 153.405
L371.695 153.405
L371.845 150.011
L376.35 150.011
L376.5 145.155
L381.004 145.155
L381.154 142.185
L385.659 142.185
L385.809 139.179
L390.314 139.179
L390.464 136.745
L394.968 136.745
L395.118 133.521
L399.623 133.521
L399.773 130.72
L404.278 130.72
L404.428 127.566
L408.932 127.566
L409.083 124.745
L413.587 124.745
L413.737 120.995
L418.242 120.995
L418.392 118.098
L422.896 118.098
L423.047 115.033
L427.551 115.033
L427.701 112.159
L432.206 112.159
L432.356 108.667
L436.861 108.667
L437.011 105.973
L441.515 105.973
L441.665 102.848
L446.17 102.848
L446.32 100.017
L450.825 100.017
L450.975 96.8883
L455.479 96.8883
L455.629 93.5958
L460.134 93.5958
L460.284 87.258
L464.789 87.258
L464.939 84.3144
L469.443 84.3144
L469.594 81.7313
L474.098 81.7313
L474.248 79.0534
L478.753 79.0534
L478.903 76.2743
L483.407 76.2743
L483.558 72.3488
L488.062 72.3488
L488.212 70.0204
L492.717 70.0204
L492.867 66.7629
L497.372 66.7629
L497.522 61.9003
L502.026 61.9003
L502.026 61.9003" style="fill:none;stroke:#000000;stroke-linecap:square;"/>
   </g>
   <g id="line2d_15">
    <path clip-path="url(#p395fe44e94)" d="
M55.6262 368.742
L59.9806 368.742
L60.1308 360.937
L64.4852 360.937
L64.6353 358.133
L69.1399 358.133
L69.29 355.328
L73.7946 355.328
L73.9447 352.464
L78.4493 352.464
L78.5994 349.691
L83.1039 349.691
L83.2541 346.082
L87.7586 346.082
L87.9088 343.313
L92.4133 343.313
L92.5635 340.097
L97.068 340.097
L97.2182 337.454
L101.723 337.454
L101.873 334.38
L106.377 334.38
L106.528 331.415
L111.032 331.415
L111.182 328.844
L115.687 328.844
L115.837 326.158
L120.341 326.158
L120.492 322.945
L124.996 322.945
L125.146 319.903
L129.651 319.903
L129.801 316.965
L134.306 316.965
L134.456 313.576
L138.96 313.576
L139.11 310.357
L143.615 310.357
L143.765 307.405
L148.27 307.405
L148.42 304.549
L152.924 304.549
L153.074 302.189
L157.579 302.189
L157.729 299.203
L162.234 299.203
L162.384 296.229
L166.888 296.229
L167.039 293.996
L171.543 293.996
L171.693 291.041
L176.198 291.041
L176.348 288.576
L180.852 288.576
L181.003 286.158
L185.507 286.158
L185.657 283.381
L190.162 283.381
L190.312 280.245
L194.817 280.245
L194.967 277.306
L199.471 277.306
L199.621 274.76
L204.126 274.76
L204.276 272.239
L208.781 272.239
L208.931 269.293
L213.435 269.293
L213.585 266.215
L218.09 266.215
L218.24 263.633
L222.745 263.633
L222.895 260.455
L227.399 260.455
L227.55 257.949
L232.054 257.949
L232.204 254.656
L236.709 254.656
L236.859 251.323
L241.363 251.323
L241.514 247.891
L246.018 247.891
L246.168 245.388
L250.673 245.388
L250.823 242.052
L255.328 242.052
L255.478 238.645
L259.982 238.645
L260.132 236.02
L264.637 236.02
L264.787 233.797
L269.292 233.797
L269.442 231.754
L273.946 231.754
L274.096 228.015
L278.601 228.015
L278.751 224.771
L283.256 224.771
L283.406 221.744
L287.91 221.744
L288.061 219.064
L292.565 219.064
L292.715 216.314
L297.22 216.314
L297.37 212.621
L301.874 212.621
L302.025 210.181
L306.529 210.181
L306.679 203.762
L311.184 203.762
L311.334 201.25
L315.839 201.25
L315.989 198.735
L320.493 198.735
L320.643 196.385
L325.148 196.385
L325.298 193.547
L329.803 193.547
L329.953 190.234
L334.457 190.234
L334.607 186.85
L339.112 186.85
L339.262 184.152
L343.767 184.152
L343.917 180.993
L348.421 180.993
L348.572 178.428
L353.076 178.428
L353.226 175.803
L357.731 175.803
L357.881 172.794
L362.385 172.794
L362.536 169.935
L367.04 169.935
L367.19 166.297
L371.695 166.297
L371.845 163.357
L376.35 163.357
L376.5 159.968
L381.004 159.968
L381.154 156.878
L385.659 156.878
L385.809 153.343
L390.314 153.343
L390.464 150.725
L394.968 150.725
L395.118 148.099
L399.623 148.099
L399.773 144.968
L404.278 144.968
L404.428 142.6
L408.932 142.6
L409.083 139.974
L413.587 139.974
L413.737 137.048
L418.242 137.048
L418.392 133.78
L422.896 133.78
L423.047 130.393
L427.551 130.393
L427.701 127.193
L432.206 127.193
L432.356 124.693
L436.861 124.693
L437.011 121.66
L441.515 121.66
L441.665 118.646
L446.17 118.646
L446.32 115.968
L450.825 115.968
L450.975 112.86
L455.479 112.86
L455.629 109.665
L460.134 109.665
L460.284 106.693
L464.789 106.693
L464.939 101.704
L469.443 101.704
L469.594 98.7432
L474.098 98.7432
L474.248 96.1157
L478.753 96.1157
L478.903 92.2785
L483.407 92.2785
L483.558 89.8198
L488.062 89.8198
L488.212 87.0812
L492.717 87.0812
L492.867 83.7363
L497.372 83.7363
L497.522 80.7671
L502.026 80.7671
L502.026 80.7671" style="fill:none;stroke:#0000ff;stroke-linecap:square;"/>
   </g>
   <g id="line2d_16">
    <path clip-path="url(#p395fe44e94)" d="
M55.6262 368.742
L59.9806 368.742
L60.1308 361.651
L64.4852 361.651
L64.6353 358.625
L69.1399 358.625
L69.29 354.78
L73.7946 354.78
L73.9447 351.9
L78.4493 351.9
L78.5994 349.535
L83.1039 349.535
L83.2541 347.029
L87.7586 347.029
L87.9088 344.4
L92.4133 344.4
L92.5635 340.99
L97.068 340.99
L97.2182 338.209
L101.723 338.209
L101.873 335.349
L106.377 335.349
L106.528 332.801
L111.032 332.801
L111.182 329.301
L115.687 329.301
L115.837 326.553
L120.341 326.553
L120.492 323.85
L124.996 323.85
L125.146 321.23
L129.651 321.23
L129.801 318.391
L134.306 318.391
L134.456 315.704
L138.96 315.704
L139.11 312.78
L143.615 312.78
L143.765 309.976
L148.27 309.976
L148.42 307.743
L152.924 307.743
L153.074 304.592
L157.579 304.592
L157.729 302.54
L162.234 302.54
L162.384 299.444
L166.888 299.444
L167.039 296.788
L171.543 296.788
L171.693 294.305
L176.198 294.305
L176.348 291.93
L180.852 291.93
L181.003 288.563
L185.507 288.563
L185.657 285.458
L190.162 285.458
L190.312 282.955
L194.817 282.955
L194.967 280.329
L199.471 280.329
L199.621 277.439
L204.126 277.439
L204.276 274.62
L208.781 274.62
L208.931 271.898
L213.435 271.898
L213.585 269.348
L218.09 269.348
L218.24 266.791
L222.745 266.791
L222.895 263.703
L227.399 263.703
L227.55 261.067
L232.054 261.067
L232.204 258.343
L236.709 258.343
L236.859 255.913
L241.363 255.913
L241.514 253.168
L246.018 253.168
L246.168 250.225
L250.673 250.225
L250.823 247.254
L255.328 247.254
L255.478 244.585
L259.982 244.585
L260.132 241.746
L264.637 241.746
L264.787 239.076
L269.292 239.076
L269.442 234.767
L273.946 234.767
L274.096 231.17
L278.601 231.17
L278.751 228.343
L283.256 228.343
L283.406 225.888
L287.91 225.888
L288.061 222.968
L292.565 222.968
L292.715 219.628
L297.22 219.628
L297.37 217.11
L301.874 217.11
L302.025 214.152
L306.529 214.152
L306.679 211.872
L311.184 211.872
L311.334 208.961
L315.839 208.961
L315.989 206.196
L320.493 206.196
L320.643 202.733
L325.148 202.733
L325.298 199.778
L329.803 199.778
L329.953 193.958
L334.457 193.958
L334.607 190.668
L339.112 190.668
L339.262 188.207
L343.767 188.207
L343.917 185.1
L348.421 185.1
L348.572 182.28
L353.076 182.28
L353.226 179.681
L357.731 179.681
L357.881 176.464
L362.385 176.464
L362.536 173.702
L367.04 173.702
L367.19 170.184
L371.695 170.184
L371.845 165.92
L376.35 165.92
L376.5 162.385
L381.004 162.385
L381.154 159.793
L385.659 159.793
L385.809 156.695
L390.314 156.695
L390.464 153.056
L394.968 153.056
L395.118 150.21
L399.623 150.21
L399.773 147.498
L404.278 147.498
L404.428 145.044
L408.932 145.044
L409.083 141.703
L413.587 141.703
L413.737 138.291
L418.242 138.291
L418.392 135.395
L422.896 135.395
L423.047 132.594
L427.551 132.594
L427.701 129.818
L432.206 129.818
L432.356 127.161
L436.861 127.161
L437.011 123.931
L441.515 123.931
L441.665 120.58
L446.17 120.58
L446.32 117.352
L450.825 117.352
L450.975 114.017
L455.479 114.017
L455.629 107.62
L460.134 107.62
L460.284 104.25
L464.789 104.25
L464.939 100.721
L469.443 100.721
L469.594 97.3875
L474.098 97.3875
L474.248 95.2695
L478.753 95.2695
L478.903 92.791
L483.407 92.791
L483.558 89.0748
L488.062 89.0748
L488.212 84.7464
L492.717 84.7464
L492.867 82.0458
L497.372 82.0458
L497.522 78.616
L502.026 78.616
L502.026 78.616" style="fill:none;stroke:#008000;stroke-linecap:square;"/>
   </g>
   <g id="patch_3">
    <path d="
M55.6262 23.1417
L502.026 23.1417" style="fill:none;stroke:#000000;stroke-linecap:square;stroke-linejoin:miter;"/>
   </g>
   <g id="patch_4">
    <path d="
M502.026 368.742
L502.026 23.1417" style="fill:none;stroke:#000000;stroke-linecap:square;stroke-linejoin:miter;"/>
   </g>
   <g id="patch_5">
    <path d="
M55.6262 368.742
L502.026 368.742" style="fill:none;stroke:#000000;stroke-linecap:square;stroke-linejoin:miter;"/>
   </g>
   <g id="patch_6">
    <path d="
M55.6262 368.742
L55.6262 23.1417" style="fill:none;stroke:#000000;stroke-linecap:square;stroke-linejoin:miter;"/>
   </g>
   <g id="matplotlib.axis_1">
    <g id="xtick_1">
     <g id="line2d_17">
      <defs>
       <path d="
M0 0
L0 -4" id="m93b0483c22" style="stroke:#000000;stroke-width:0.5;"/>
      </defs>
      <g>
       <use style="stroke:#000000;stroke-width:0.5;" x="55.62625" xlink:href="#m93b0483c22" y="368.74175"/>
      </g>
     </g>
     <g id="line2d_18">
      <defs>
       <path d="
M0 0
L0 4" id="m741efc42ff" style="stroke:#000000;stroke-width:0.5;"/>
      </defs>
      <g>
       <use style="stroke:#000000;stroke-width:0.5;" x="55.62625" xlink:href="#m741efc42ff" y="23.14175"/>
      </g>
     </g>
     <g id="text_1">
      <!-- 0 -->
      <defs>
       <path d="
M31.7812 66.4062
Q24.1719 66.4062 20.3281 58.9062
Q16.5 51.4219 16.5 36.375
Q16.5 21.3906 20.3281 13.8906
Q24.1719 6.39062 31.7812 6.39062
Q39.4531 6.39062 43.2812 13.8906
Q47.125 21.3906 47.125 36.375
Q47.125 51.4219 43.2812 58.9062
Q39.4531 66.4062 31.7812 66.4062
M31.7812 74.2188
Q44.0469 74.2188 50.5156 64.5156
Q56.9844 54.8281 56.9844 36.375
Q56.9844 17.9688 50.5156 8.26562
Q44.0469 -1.42188 31.7812 -1.42188
Q19.5312 -1.42188 13.0625 8.26562
Q6.59375 17.9688 6.59375 36.375
Q6.59375 54.8281 13.0625 64.5156
Q19.5312 74.2188 31.7812 74.2188" id="DejaVuSans-30"/>
      </defs>
      <g transform="translate(52.6028125 381.859875)scale(0.12 -0.12)">
       <use xlink:href="#DejaVuSans-30"/>
      </g>
     </g>
    </g>
    <g id="xtick_2">
     <g id="line2d_19">
      <g>
       <use style="stroke:#000000;stroke-width:0.5;" x="130.70193113" xlink:href="#m93b0483c22" y="368.74175"/>
      </g>
     </g>
     <g id="line2d_20">
      <g>
       <use style="stroke:#000000;stroke-width:0.5;" x="130.70193113" xlink:href="#m741efc42ff" y="23.14175"/>
      </g>
     </g>
     <g id="text_2">
      <!-- 500 -->
      <defs>
       <path d="
M10.7969 72.9062
L49.5156 72.9062
L49.5156 64.5938
L19.8281 64.5938
L19.8281 46.7344
Q21.9688 47.4688 24.1094 47.8281
Q26.2656 48.1875 28.4219 48.1875
Q40.625 48.1875 47.75 41.5
Q54.8906 34.8125 54.8906 23.3906
Q54.8906 11.625 47.5625 5.09375
Q40.2344 -1.42188 26.9062 -1.42188
Q22.3125 -1.42188 17.5469 -0.640625
Q12.7969 0.140625 7.71875 1.70312
L7.71875 11.625
Q12.1094 9.23438 16.7969 8.0625
Q21.4844 6.89062 26.7031 6.89062
Q35.1562 6.89062 40.0781 11.3281
Q45.0156 15.7656 45.0156 23.3906
Q45.0156 31 40.0781 35.4375
Q35.1562 39.8906 26.7031 39.8906
Q22.75 39.8906 18.8125 39.0156
Q14.8906 38.1406 10.7969 36.2812
z
" id="DejaVuSans-35"/>
      </defs>
      <g transform="translate(120.11099363 381.859875)scale(0.12 -0.12)">
       <use xlink:href="#DejaVuSans-35"/>
       <use x="63.623046875" xlink:href="#DejaVuSans-30"/>
       <use x="127.24609375" xlink:href="#DejaVuSans-30"/>
      </g>
     </g>
    </g>
    <g id="xtick_3">
     <g id="line2d_21">
      <g>
       <use style="stroke:#000000;stroke-width:0.5;" x="205.77761226" xlink:href="#m93b0483c22" y="368.74175"/>
      </g>
     </g>
     <g id="line2d_22">
      <g>
       <use style="stroke:#000000;stroke-width:0.5;" x="205.77761226" xlink:href="#m741efc42ff" y="23.14175"/>
      </g>
     </g>
     <g id="text_3">
      <!-- 1000 -->
      <defs>
       <path d="
M12.4062 8.29688
L28.5156 8.29688
L28.5156 63.9219
L10.9844 60.4062
L10.9844 69.3906
L28.4219 72.9062
L38.2812 72.9062
L38.2812 8.29688
L54.3906 8.29688
L54.3906 0
L12.4062 0
z
" id="DejaVuSans-31"/>
      </defs>
      <g transform="translate(191.56511226 381.859875)scale(0.12 -0.12)">
       <use xlink:href="#DejaVuSans-31"/>
       <use x="63.623046875" xlink:href="#DejaVuSans-30"/>
       <use x="127.24609375" xlink:href="#DejaVuSans-30"/>
       <use x="190.869140625" xlink:href="#DejaVuSans-30"/>
      </g>
     </g>
    </g>
    <g id="xtick_4">
     <g id="line2d_23">
      <g>
       <use style="stroke:#000000;stroke-width:0.5;" x="280.853293391" xlink:href="#m93b0483c22" y="368.74175"/>
      </g>
     </g>
     <g id="line2d_24">
      <g>
       <use style="stroke:#000000;stroke-width:0.5;" x="280.853293391" xlink:href="#m741efc42ff" y="23.14175"/>
      </g>
     </g>
     <g id="text_4">
      <!-- 1500 -->
      <g transform="translate(266.640793391 381.859875)scale(0.12 -0.12)">
       <use xlink:href="#DejaVuSans-31"/>
       <use x="63.623046875" xlink:href="#DejaVuSans-35"/>
       <use x="127.24609375" xlink:href="#DejaVuSans-30"/>
       <use x="190.869140625" xlink:href="#DejaVuSans-30"/>
      </g>
     </g>
    </g>
    <g id="xtick_5">
     <g id="line2d_25">
      <g>
       <use style="stroke:#000000;stroke-width:0.5;" x="355.928974521" xlink:href="#m93b0483c22" y="368.74175"/>
      </g>
     </g>
     <g id="line2d_26">
      <g>
       <use style="stroke:#000000;stroke-width:0.5;" x="355.928974521" xlink:href="#m741efc42ff" y="23.14175"/>
      </g>
     </g>
     <g id="text_5">
      <!-- 2000 -->
      <defs>
       <path d="
M19.1875 8.29688
L53.6094 8.29688
L53.6094 0
L7.32812 0
L7.32812 8.29688
Q12.9375 14.1094 22.625 23.8906
Q32.3281 33.6875 34.8125 36.5312
Q39.5469 41.8438 41.4219 45.5312
Q43.3125 49.2188 43.3125 52.7812
Q43.3125 58.5938 39.2344 62.25
Q35.1562 65.9219 28.6094 65.9219
Q23.9688 65.9219 18.8125 64.3125
Q13.6719 62.7031 7.8125 59.4219
L7.8125 69.3906
Q13.7656 71.7812 18.9375 73
Q24.125 74.2188 28.4219 74.2188
Q39.75 74.2188 46.4844 68.5469
Q53.2188 62.8906 53.2188 53.4219
Q53.2188 48.9219 51.5312 44.8906
Q49.8594 40.875 45.4062 35.4062
Q44.1875 33.9844 37.6406 27.2188
Q31.1094 20.4531 19.1875 8.29688" id="DejaVuSans-32"/>
      </defs>
      <g transform="translate(341.497099521 381.859875)scale(0.12 -0.12)">
       <use xlink:href="#DejaVuSans-32"/>
       <use x="63.623046875" xlink:href="#DejaVuSans-30"/>
       <use x="127.24609375" xlink:href="#DejaVuSans-30"/>
       <use x="190.869140625" xlink:href="#DejaVuSans-30"/>
      </g>
     </g>
    </g>
    <g id="xtick_6">
     <g id="line2d_27">
      <g>
       <use style="stroke:#000000;stroke-width:0.5;" x="431.004655651" xlink:href="#m93b0483c22" y="368.74175"/>
      </g>
     </g>
     <g id="line2d_28">
      <g>
       <use style="stroke:#000000;stroke-width:0.5;" x="431.004655651" xlink:href="#m741efc42ff" y="23.14175"/>
      </g>
     </g>
     <g id="text_6">
      <!-- 2500 -->
      <g transform="translate(416.572780651 381.859875)scale(0.12 -0.12)">
       <use xlink:href="#DejaVuSans-32"/>
       <use x="63.623046875" xlink:href="#DejaVuSans-35"/>
       <use x="127.24609375" xlink:href="#DejaVuSans-30"/>
       <use x="190.869140625" xlink:href="#DejaVuSans-30"/>
      </g>
     </g>
    </g>
    <g id="text_7">
     <!-- time -->
     <defs>
      <path d="
M18.3125 70.2188
L18.3125 54.6875
L36.8125 54.6875
L36.8125 47.7031
L18.3125 47.7031
L18.3125 18.0156
Q18.3125 11.3281 20.1406 9.42188
Q21.9688 7.51562 27.5938 7.51562
L36.8125 7.51562
L36.8125 0
L27.5938 0
Q17.1875 0 13.2344 3.875
Q9.28125 7.76562 9.28125 18.0156
L9.28125 47.7031
L2.6875 47.7031
L2.6875 54.6875
L9.28125 54.6875
L9.28125 70.2188
z
" id="DejaVuSans-74"/>
      <path d="
M52 44.1875
Q55.375 50.25 60.0625 53.125
Q64.75 56 71.0938 56
Q79.6406 56 84.2812 50.0156
Q88.9219 44.0469 88.9219 33.0156
L88.9219 0
L79.8906 0
L79.8906 32.7188
Q79.8906 40.5781 77.0938 44.375
Q74.3125 48.1875 68.6094 48.1875
Q61.625 48.1875 57.5625 43.5469
Q53.5156 38.9219 53.5156 30.9062
L53.5156 0
L44.4844 0
L44.4844 32.7188
Q44.4844 40.625 41.7031 44.4062
Q38.9219 48.1875 33.1094 48.1875
Q26.2188 48.1875 22.1562 43.5312
Q18.1094 38.875 18.1094 30.9062
L18.1094 0
L9.07812 0
L9.07812 54.6875
L18.1094 54.6875
L18.1094 46.1875
Q21.1875 51.2188 25.4844 53.6094
Q29.7812 56 35.6875 56
Q41.6562 56 45.8281 52.9688
Q50 49.9531 52 44.1875" id="DejaVuSans-6d"/>
      <path d="
M56.2031 29.5938
L56.2031 25.2031
L14.8906 25.2031
Q15.4844 15.9219 20.4844 11.0625
Q25.4844 6.20312 34.4219 6.20312
Q39.5938 6.20312 44.4531 7.46875
Q49.3125 8.73438 54.1094 11.2812
L54.1094 2.78125
Q49.2656 0.734375 44.1875 -0.34375
Q39.1094 -1.42188 33.8906 -1.42188
Q20.7969 -1.42188 13.1562 6.1875
Q5.51562 13.8125 5.51562 26.8125
Q5.51562 40.2344 12.7656 48.1094
Q20.0156 56 32.3281 56
Q43.3594 56 49.7812 48.8906
Q56.2031 41.7969 56.2031 29.5938
M47.2188 32.2344
Q47.125 39.5938 43.0938 43.9844
Q39.0625 48.3906 32.4219 48.3906
Q24.9062 48.3906 20.3906 44.1406
Q15.875 39.8906 15.1875 32.1719
z
" id="DejaVuSans-65"/>
      <path d="
M9.42188 54.6875
L18.4062 54.6875
L18.4062 0
L9.42188 0
z

M9.42188 75.9844
L18.4062 75.9844
L18.4062 64.5938
L9.42188 64.5938
z
" id="DejaVuSans-69"/>
     </defs>
     <g transform="translate(265.751875 398.473625)scale(0.12 -0.12)">
      <use xlink:href="#DejaVuSans-74"/>
      <use x="39.208984375" xlink:href="#DejaVuSans-69"/>
      <use x="66.9921875" xlink:href="#DejaVuSans-6d"/>
      <use x="164.404296875" xlink:href="#DejaVuSans-65"/>
     </g>
    </g>
   </g>
   <g id="matplotlib.axis_2">
    <g id="ytick_1">
     <g id="line2d_29">
      <defs>
       <path d="
M0 0
L4 0" id="m728421d6d4" style="stroke:#000000;stroke-width:0.5;"/>
      </defs>
      <g>
       <use style="stroke:#000000;stroke-width:0.5;" x="55.62625" xlink:href="#m728421d6d4" y="368.74175"/>
      </g>
     </g>
     <g id="line2d_30">
      <defs>
       <path d="
M0 0
L-4 0" id="mcb0005524f" style="stroke:#000000;stroke-width:0.5;"/>
      </defs>
      <g>
       <use style="stroke:#000000;stroke-width:0.5;" x="502.02625" xlink:href="#mcb0005524f" y="368.74175"/>
      </g>
     </g>
     <g id="text_8">
      <!-- 0 -->
      <g transform="translate(45.579375 372.053)scale(0.12 -0.12)">
       <use xlink:href="#DejaVuSans-30"/>
      </g>
     </g>
    </g>
    <g id="ytick_2">
     <g id="line2d_31">
      <g>
       <use style="stroke:#000000;stroke-width:0.5;" x="55.62625" xlink:href="#m728421d6d4" y="319.370321429"/>
      </g>
     </g>
     <g id="line2d_32">
      <g>
       <use style="stroke:#000000;stroke-width:0.5;" x="502.02625" xlink:href="#mcb0005524f" y="319.370321429"/>
      </g>
     </g>
     <g id="text_9">
      <!-- 100000 -->
      <g transform="translate(7.93125 322.681571429)scale(0.12 -0.12)">
       <use xlink:href="#DejaVuSans-31"/>
       <use x="63.623046875" xlink:href="#DejaVuSans-30"/>
       <use x="127.24609375" xlink:href="#DejaVuSans-30"/>
       <use x="190.869140625" xlink:href="#DejaVuSans-30"/>
       <use x="254.4921875" xlink:href="#DejaVuSans-30"/>
       <use x="318.115234375" xlink:href="#DejaVuSans-30"/>
      </g>
     </g>
    </g>
    <g id="ytick_3">
     <g id="line2d_33">
      <g>
       <use style="stroke:#000000;stroke-width:0.5;" x="55.62625" xlink:href="#m728421d6d4" y="269.998892857"/>
      </g>
     </g>
     <g id="line2d_34">
      <g>
       <use style="stroke:#000000;stroke-width:0.5;" x="502.02625" xlink:href="#mcb0005524f" y="269.998892857"/>
      </g>
     </g>
     <g id="text_10">
      <!-- 200000 -->
      <g transform="translate(7.4925 273.310142857)scale(0.12 -0.12)">
       <use xlink:href="#DejaVuSans-32"/>
       <use x="63.623046875" xlink:href="#DejaVuSans-30"/>
       <use x="127.24609375" xlink:href="#DejaVuSans-30"/>
       <use x="190.869140625" xlink:href="#DejaVuSans-30"/>
       <use x="254.4921875" xlink:href="#DejaVuSans-30"/>
       <use x="318.115234375" xlink:href="#DejaVuSans-30"/>
      </g>
     </g>
    </g>
    <g id="ytick_4">
     <g id="line2d_35">
      <g>
       <use style="stroke:#000000;stroke-width:0.5;" x="55.62625" xlink:href="#m728421d6d4" y="220.627464286"/>
      </g>
     </g>
     <g id="line2d_36">
      <g>
       <use style="stroke:#000000;stroke-width:0.5;" x="502.02625" xlink:href="#mcb0005524f" y="220.627464286"/>
      </g>
     </g>
     <g id="text_11">
      <!-- 300000 -->
      <defs>
       <path d="
M40.5781 39.3125
Q47.6562 37.7969 51.625 33
Q55.6094 28.2188 55.6094 21.1875
Q55.6094 10.4062 48.1875 4.48438
Q40.7656 -1.42188 27.0938 -1.42188
Q22.5156 -1.42188 17.6562 -0.515625
Q12.7969 0.390625 7.625 2.20312
L7.625 11.7188
Q11.7188 9.32812 16.5938 8.10938
Q21.4844 6.89062 26.8125 6.89062
Q36.0781 6.89062 40.9375 10.5469
Q45.7969 14.2031 45.7969 21.1875
Q45.7969 27.6406 41.2812 31.2656
Q36.7656 34.9062 28.7188 34.9062
L20.2188 34.9062
L20.2188 43.0156
L29.1094 43.0156
Q36.375 43.0156 40.2344 45.9219
Q44.0938 48.8281 44.0938 54.2969
Q44.0938 59.9062 40.1094 62.9062
Q36.1406 65.9219 28.7188 65.9219
Q24.6562 65.9219 20.0156 65.0312
Q15.375 64.1562 9.8125 62.3125
L9.8125 71.0938
Q15.4375 72.6562 20.3438 73.4375
Q25.25 74.2188 29.5938 74.2188
Q40.8281 74.2188 47.3594 69.1094
Q53.9062 64.0156 53.9062 55.3281
Q53.9062 49.2656 50.4375 45.0938
Q46.9688 40.9219 40.5781 39.3125" id="DejaVuSans-33"/>
      </defs>
      <g transform="translate(7.528125 223.938714286)scale(0.12 -0.12)">
       <use xlink:href="#DejaVuSans-33"/>
       <use x="63.623046875" xlink:href="#DejaVuSans-30"/>
       <use x="127.24609375" xlink:href="#DejaVuSans-30"/>
       <use x="190.869140625" xlink:href="#DejaVuSans-30"/>
       <use x="254.4921875" xlink:href="#DejaVuSans-30"/>
       <use x="318.115234375" xlink:href="#DejaVuSans-30"/>
      </g>
     </g>
    </g>
    <g id="ytick_5">
     <g id="line2d_37">
      <g>
       <use style="stroke:#000000;stroke-width:0.5;" x="55.62625" xlink:href="#m728421d6d4" y="171.256035714"/>
      </g>
     </g>
     <g id="line2d_38">
      <g>
       <use style="stroke:#000000;stroke-width:0.5;" x="502.02625" xlink:href="#mcb0005524f" y="171.256035714"/>
      </g>
     </g>
     <g id="text_12">
      <!-- 400000 -->
      <defs>
       <path d="
M37.7969 64.3125
L12.8906 25.3906
L37.7969 25.3906
z

M35.2031 72.9062
L47.6094 72.9062
L47.6094 25.3906
L58.0156 25.3906
L58.0156 17.1875
L47.6094 17.1875
L47.6094 0
L37.7969 0
L37.7969 17.1875
L4.89062 17.1875
L4.89062 26.7031
z
" id="DejaVuSans-34"/>
      </defs>
      <g transform="translate(7.2 174.567285714)scale(0.12 -0.12)">
       <use xlink:href="#DejaVuSans-34"/>
       <use x="63.623046875" xlink:href="#DejaVuSans-30"/>
       <use x="127.24609375" xlink:href="#DejaVuSans-30"/>
       <use x="190.869140625" xlink:href="#DejaVuSans-30"/>
       <use x="254.4921875" xlink:href="#DejaVuSans-30"/>
       <use x="318.115234375" xlink:href="#DejaVuSans-30"/>
      </g>
     </g>
    </g>
    <g id="ytick_6">
     <g id="line2d_39">
      <g>
       <use style="stroke:#000000;stroke-width:0.5;" x="55.62625" xlink:href="#m728421d6d4" y="121.884607143"/>
      </g>
     </g>
     <g id="line2d_40">
      <g>
       <use style="stroke:#000000;stroke-width:0.5;" x="502.02625" xlink:href="#mcb0005524f" y="121.884607143"/>
      </g>
     </g>
     <g id="text_13">
      <!-- 500000 -->
      <g transform="translate(7.539375 125.195857143)scale(0.12 -0.12)">
       <use xlink:href="#DejaVuSans-35"/>
       <use x="63.623046875" xlink:href="#DejaVuSans-30"/>
       <use x="127.24609375" xlink:href="#DejaVuSans-30"/>
       <use x="190.869140625" xlink:href="#DejaVuSans-30"/>
       <use x="254.4921875" xlink:href="#DejaVuSans-30"/>
       <use x="318.115234375" xlink:href="#DejaVuSans-30"/>
      </g>
     </g>
    </g>
    <g id="ytick_7">
     <g id="line2d_41">
      <g>
       <use style="stroke:#000000;stroke-width:0.5;" x="55.62625" xlink:href="#m728421d6d4" y="72.5131785714"/>
      </g>
     </g>
     <g id="line2d_42">
      <g>
       <use style="stroke:#000000;stroke-width:0.5;" x="502.02625" xlink:href="#mcb0005524f" y="72.5131785714"/>
      </g>
     </g>
     <g id="text_14">
      <!-- 600000 -->
      <defs>
       <path d="
M33.0156 40.375
Q26.375 40.375 22.4844 35.8281
Q18.6094 31.2969 18.6094 23.3906
Q18.6094 15.5312 22.4844 10.9531
Q26.375 6.39062 33.0156 6.39062
Q39.6562 6.39062 43.5312 10.9531
Q47.4062 15.5312 47.4062 23.3906
Q47.4062 31.2969 43.5312 35.8281
Q39.6562 40.375 33.0156 40.375
M52.5938 71.2969
L52.5938 62.3125
Q48.875 64.0625 45.0938 64.9844
Q41.3125 65.9219 37.5938 65.9219
Q27.8281 65.9219 22.6719 59.3281
Q17.5312 52.7344 16.7969 39.4062
Q19.6719 43.6562 24.0156 45.9219
Q28.375 48.1875 33.5938 48.1875
Q44.5781 48.1875 50.9531 41.5156
Q57.3281 34.8594 57.3281 23.3906
Q57.3281 12.1562 50.6875 5.35938
Q44.0469 -1.42188 33.0156 -1.42188
Q20.3594 -1.42188 13.6719 8.26562
Q6.98438 17.9688 6.98438 36.375
Q6.98438 53.6562 15.1875 63.9375
Q23.3906 74.2188 37.2031 74.2188
Q40.9219 74.2188 44.7031 73.4844
Q48.4844 72.75 52.5938 71.2969" id="DejaVuSans-36"/>
      </defs>
      <g transform="translate(7.45125 75.8244285714)scale(0.12 -0.12)">
       <use xlink:href="#DejaVuSans-36"/>
       <use x="63.623046875" xlink:href="#DejaVuSans-30"/>
       <use x="127.24609375" xlink:href="#DejaVuSans-30"/>
       <use x="190.869140625" xlink:href="#DejaVuSans-30"/>
       <use x="254.4921875" xlink:href="#DejaVuSans-30"/>
       <use x="318.115234375" xlink:href="#DejaVuSans-30"/>
      </g>
     </g>
    </g>
    <g id="ytick_8">
     <g id="line2d_43">
      <g>
       <use style="stroke:#000000;stroke-width:0.5;" x="55.62625" xlink:href="#m728421d6d4" y="23.14175"/>
      </g>
     </g>
     <g id="line2d_44">
      <g>
       <use style="stroke:#000000;stroke-width:0.5;" x="502.02625" xlink:href="#mcb0005524f" y="23.14175"/>
      </g>
     </g>
     <g id="text_15">
      <!-- 700000 -->
      <defs>
       <path d="
M8.20312 72.9062
L55.0781 72.9062
L55.0781 68.7031
L28.6094 0
L18.3125 0
L43.2188 64.5938
L8.20312 64.5938
z
" id="DejaVuSans-37"/>
      </defs>
      <g transform="translate(7.5975 26.453)scale(0.12 -0.12)">
       <use xlink:href="#DejaVuSans-37"/>
       <use x="63.623046875" xlink:href="#DejaVuSans-30"/>
       <use x="127.24609375" xlink:href="#DejaVuSans-30"/>
       <use x="190.869140625" xlink:href="#DejaVuSans-30"/>
       <use x="254.4921875" xlink:href="#DejaVuSans-30"/>
       <use x="318.115234375" xlink:href="#DejaVuSans-30"/>
      </g>
     </g>
    </g>
   </g>
   <g id="text_16">
    <!-- /agas/time/increment_credit -->
    <defs>
     <path d="
M25.3906 72.9062
L33.6875 72.9062
L8.29688 -9.28125
L0 -9.28125
z
" id="DejaVuSans-2f"/>
     <path d="
M54.8906 33.0156
L54.8906 0
L45.9062 0
L45.9062 32.7188
Q45.9062 40.4844 42.875 44.3281
Q39.8438 48.1875 33.7969 48.1875
Q26.5156 48.1875 22.3125 43.5469
Q18.1094 38.9219 18.1094 30.9062
L18.1094 0
L9.07812 0
L9.07812 54.6875
L18.1094 54.6875
L18.1094 46.1875
Q21.3438 51.125 25.7031 53.5625
Q30.0781 56 35.7969 56
Q45.2188 56 50.0469 50.1719
Q54.8906 44.3438 54.8906 33.0156" id="DejaVuSans-6e"/>
     <path d="
M50.9844 -16.6094
L50.9844 -23.5781
L-0.984375 -23.5781
L-0.984375 -16.6094
z
" id="DejaVuSans-5f"/>
     <path d="
M45.4062 27.9844
Q45.4062 37.75 41.375 43.1094
Q37.3594 48.4844 30.0781 48.4844
Q22.8594 48.4844 18.8281 43.1094
Q14.7969 37.75 14.7969 27.9844
Q14.7969 18.2656 18.8281 12.8906
Q22.8594 7.51562 30.0781 7.51562
Q37.3594 7.51562 41.375 12.8906
Q45.4062 18.2656 45.4062 27.9844
M54.3906 6.78125
Q54.3906 -7.17188 48.1875 -13.9844
Q42 -20.7969 29.2031 -20.7969
Q24.4688 -20.7969 20.2656 -20.0938
Q16.0625 -19.3906 12.1094 -17.9219
L12.1094 -9.1875
Q16.0625 -11.3281 19.9219 -12.3438
Q23.7812 -13.375 27.7812 -13.375
Q36.625 -13.375 41.0156 -8.76562
Q45.4062 -4.15625 45.4062 5.17188
L45.4062 9.625
Q42.625 4.78125 38.2812 2.39062
Q33.9375 0 27.875 0
Q17.8281 0 11.6719 7.65625
Q5.51562 15.3281 5.51562 27.9844
Q5.51562 40.6719 11.6719 48.3281
Q17.8281 56 27.875 56
Q33.9375 56 38.2812 53.6094
Q42.625 51.2188 45.4062 46.3906
L45.4062 54.6875
L54.3906 54.6875
z
" id="DejaVuSans-67"/>
     <path d="
M45.4062 46.3906
L45.4062 75.9844
L54.3906 75.9844
L54.3906 0
L45.4062 0
L45.4062 8.20312
Q42.5781 3.32812 38.25 0.953125
Q33.9375 -1.42188 27.875 -1.42188
Q17.9688 -1.42188 11.7344 6.48438
Q5.51562 14.4062 5.51562 27.2969
Q5.51562 40.1875 11.7344 48.0938
Q17.9688 56 27.875 56
Q33.9375 56 38.25 53.625
Q42.5781 51.2656 45.4062 46.3906
M14.7969 27.2969
Q14.7969 17.3906 18.875 11.75
Q22.9531 6.10938 30.0781 6.10938
Q37.2031 6.10938 41.2969 11.75
Q45.4062 17.3906 45.4062 27.2969
Q45.4062 37.2031 41.2969 42.8438
Q37.2031 48.4844 30.0781 48.4844
Q22.9531 48.4844 18.875 42.8438
Q14.7969 37.2031 14.7969 27.2969" id="DejaVuSans-64"/>
     <path d="
M41.1094 46.2969
Q39.5938 47.1719 37.8125 47.5781
Q36.0312 48 33.8906 48
Q26.2656 48 22.1875 43.0469
Q18.1094 38.0938 18.1094 28.8125
L18.1094 0
L9.07812 0
L9.07812 54.6875
L18.1094 54.6875
L18.1094 46.1875
Q20.9531 51.1719 25.4844 53.5781
Q30.0312 56 36.5312 56
Q37.4531 56 38.5781 55.875
Q39.7031 55.7656 41.0625 55.5156
z
" id="DejaVuSans-72"/>
     <path d="
M48.7812 52.5938
L48.7812 44.1875
Q44.9688 46.2969 41.1406 47.3438
Q37.3125 48.3906 33.4062 48.3906
Q24.6562 48.3906 19.8125 42.8438
Q14.9844 37.3125 14.9844 27.2969
Q14.9844 17.2812 19.8125 11.7344
Q24.6562 6.20312 33.4062 6.20312
Q37.3125 6.20312 41.1406 7.25
Q44.9688 8.29688 48.7812 10.4062
L48.7812 2.09375
Q45.0156 0.34375 40.9844 -0.53125
Q36.9688 -1.42188 32.4219 -1.42188
Q20.0625 -1.42188 12.7812 6.34375
Q5.51562 14.1094 5.51562 27.2969
Q5.51562 40.6719 12.8594 48.3281
Q20.2188 56 33.0156 56
Q37.1562 56 41.1094 55.1406
Q45.0625 54.2969 48.7812 52.5938" id="DejaVuSans-63"/>
     <path d="
M44.2812 53.0781
L44.2812 44.5781
Q40.4844 46.5312 36.375 47.5
Q32.2812 48.4844 27.875 48.4844
Q21.1875 48.4844 17.8438 46.4375
Q14.5 44.3906 14.5 40.2812
Q14.5 37.1562 16.8906 35.375
Q19.2812 33.5938 26.5156 31.9844
L29.5938 31.2969
Q39.1562 29.25 43.1875 25.5156
Q47.2188 21.7812 47.2188 15.0938
Q47.2188 7.46875 41.1875 3.01562
Q35.1562 -1.42188 24.6094 -1.42188
Q20.2188 -1.42188 15.4531 -0.5625
Q10.6875 0.296875 5.42188 2
L5.42188 11.2812
Q10.4062 8.6875 15.2344 7.39062
Q20.0625 6.10938 24.8125 6.10938
Q31.1562 6.10938 34.5625 8.28125
Q37.9844 10.4531 37.9844 14.4062
Q37.9844 18.0625 35.5156 20.0156
Q33.0625 21.9688 24.7031 23.7812
L21.5781 24.5156
Q13.2344 26.2656 9.51562 29.9062
Q5.8125 33.5469 5.8125 39.8906
Q5.8125 47.6094 11.2812 51.7969
Q16.75 56 26.8125 56
Q31.7812 56 36.1719 55.2656
Q40.5781 54.5469 44.2812 53.0781" id="DejaVuSans-73"/>
     <path d="
M34.2812 27.4844
Q23.3906 27.4844 19.1875 25
Q14.9844 22.5156 14.9844 16.5
Q14.9844 11.7188 18.1406 8.90625
Q21.2969 6.10938 26.7031 6.10938
Q34.1875 6.10938 38.7031 11.4062
Q43.2188 16.7031 43.2188 25.4844
L43.2188 27.4844
z

M52.2031 31.2031
L52.2031 0
L43.2188 0
L43.2188 8.29688
Q40.1406 3.32812 35.5469 0.953125
Q30.9531 -1.42188 24.3125 -1.42188
Q15.9219 -1.42188 10.9531 3.29688
Q6 8.01562 6 15.9219
Q6 25.1406 12.1719 29.8281
Q18.3594 34.5156 30.6094 34.5156
L43.2188 34.5156
L43.2188 35.4062
Q43.2188 41.6094 39.1406 45
Q35.0625 48.3906 27.6875 48.3906
Q23 48.3906 18.5469 47.2656
Q14.1094 46.1406 10.0156 43.8906
L10.0156 52.2031
Q14.9375 54.1094 19.5781 55.0469
Q24.2188 56 28.6094 56
Q40.4844 56 46.3438 49.8438
Q52.2031 43.7031 52.2031 31.2031" id="DejaVuSans-61"/>
    </defs>
    <g transform="translate(177.54925 18.14175)scale(0.144 -0.144)">
     <use xlink:href="#DejaVuSans-2f"/>
     <use x="33.69140625" xlink:href="#DejaVuSans-61"/>
     <use x="94.970703125" xlink:href="#DejaVuSans-67"/>
     <use x="158.447265625" xlink:href="#DejaVuSans-61"/>
     <use x="219.7265625" xlink:href="#DejaVuSans-73"/>
     <use x="271.826171875" xlink:href="#DejaVuSans-2f"/>
     <use x="305.517578125" xlink:href="#DejaVuSans-74"/>
     <use x="344.7265625" xlink:href="#DejaVuSans-69"/>
     <use x="372.509765625" xlink:href="#DejaVuSans-6d"/>
     <use x="469.921875" xlink:href="#DejaVuSans-65"/>
     <use x="531.4453125" xlink:href="#DejaVuSans-2f"/>
     <use x="565.13671875" xlink:href="#DejaVuSans-69"/>
     <use x="592.919921875" xlink:href="#DejaVuSans-6e"/>
     <use x="656.298828125" xlink:href="#DejaVuSans-63"/>
     <use x="711.279296875" xlink:href="#DejaVuSans-72"/>
     <use x="750.142578125" xlink:href="#DejaVuSans-65"/>
     <use x="811.666015625" xlink:href="#DejaVuSans-6d"/>
     <use x="909.078125" xlink:href="#DejaVuSans-65"/>
     <use x="970.6015625" xlink:href="#DejaVuSans-6e"/>
     <use x="1033.98046875" xlink:href="#DejaVuSans-74"/>
     <use x="1073.18945312" xlink:href="#DejaVuSans-5f"/>
     <use x="1123.18945312" xlink:href="#DejaVuSans-63"/>
     <use x="1178.16992188" xlink:href="#DejaVuSans-72"/>
     <use x="1217.03320312" xlink:href="#DejaVuSans-65"/>
     <use x="1278.55664062" xlink:href="#DejaVuSans-64"/>
     <use x="1342.03320312" xlink:href="#DejaVuSans-69"/>
     <use x="1369.81640625" xlink:href="#DejaVuSans-74"/>
    </g>
   </g>
   <g id="legend_1">
    <g id="patch_7">
     <path d="
M509.226 367.194
L641.015 367.194
L641.015 24.6897
L509.226 24.6897
z
" style="fill:#ffffff;stroke:#000000;stroke-linejoin:miter;"/>
    </g>
    <g id="line2d_45">
     <path d="
M519.306 36.3515
L539.466 36.3515" style="fill:none;stroke:#0000ff;stroke-linecap:square;"/>
    </g>
    <g id="line2d_46"/>
    <g id="text_17">
     <!-- locality#0 -->
     <defs>
      <path d="
M30.6094 48.3906
Q23.3906 48.3906 19.1875 42.75
Q14.9844 37.1094 14.9844 27.2969
Q14.9844 17.4844 19.1562 11.8438
Q23.3438 6.20312 30.6094 6.20312
Q37.7969 6.20312 41.9844 11.8594
Q46.1875 17.5312 46.1875 27.2969
Q46.1875 37.0156 41.9844 42.7031
Q37.7969 48.3906 30.6094 48.3906
M30.6094 56
Q42.3281 56 49.0156 48.375
Q55.7188 40.7656 55.7188 27.2969
Q55.7188 13.875 49.0156 6.21875
Q42.3281 -1.42188 30.6094 -1.42188
Q18.8438 -1.42188 12.1719 6.21875
Q5.51562 13.875 5.51562 27.2969
Q5.51562 40.7656 12.1719 48.375
Q18.8438 56 30.6094 56" id="DejaVuSans-6f"/>
      <path d="
M51.125 44
L36.9219 44
L32.8125 27.6875
L47.125 27.6875
z

M43.7969 71.7812
L38.7188 51.5156
L52.9844 51.5156
L58.1094 71.7812
L65.9219 71.7812
L60.8906 51.5156
L76.125 51.5156
L76.125 44
L58.9844 44
L54.9844 27.6875
L70.5156 27.6875
L70.5156 20.2188
L53.0781 20.2188
L48 0
L40.1875 0
L45.2188 20.2188
L30.9062 20.2188
L25.875 0
L18.0156 0
L23.0938 20.2188
L7.71875 20.2188
L7.71875 27.6875
L24.9062 27.6875
L29 44
L13.2812 44
L13.2812 51.5156
L30.9062 51.5156
L35.8906 71.7812
z
" id="DejaVuSans-23"/>
      <path d="
M32.1719 -5.07812
Q28.375 -14.8438 24.75 -17.8125
Q21.1406 -20.7969 15.0938 -20.7969
L7.90625 -20.7969
L7.90625 -13.2812
L13.1875 -13.2812
Q16.8906 -13.2812 18.9375 -11.5156
Q21 -9.76562 23.4844 -3.21875
L25.0938 0.875
L2.98438 54.6875
L12.5 54.6875
L29.5938 11.9219
L46.6875 54.6875
L56.2031 54.6875
z
" id="DejaVuSans-79"/>
      <path d="
M9.42188 75.9844
L18.4062 75.9844
L18.4062 0
L9.42188 0
z
" id="DejaVuSans-6c"/>
     </defs>
     <g transform="translate(555.30625 41.3915)scale(0.144 -0.144)">
      <use xlink:href="#DejaVuSans-6c"/>
      <use x="27.783203125" xlink:href="#DejaVuSans-6f"/>
      <use x="88.96484375" xlink:href="#DejaVuSans-63"/>
      <use x="143.9453125" xlink:href="#DejaVuSans-61"/>
      <use x="205.224609375" xlink:href="#DejaVuSans-6c"/>
      <use x="233.0078125" xlink:href="#DejaVuSans-69"/>
      <use x="260.791015625" xlink:href="#DejaVuSans-74"/>
      <use x="300.0" xlink:href="#DejaVuSans-79"/>
      <use x="359.1796875" xlink:href="#DejaVuSans-23"/>
      <use x="442.96875" xlink:href="#DejaVuSans-30"/>
     </g>
    </g>
    <g id="line2d_47">
     <path d="
M519.306 57.488
L539.466 57.488" style="fill:none;stroke:#008000;stroke-linecap:square;"/>
    </g>
    <g id="line2d_48"/>
    <g id="text_18">
     <!-- locality#1 -->
     <g transform="translate(555.30625 62.528)scale(0.144 -0.144)">
      <use xlink:href="#DejaVuSans-6c"/>
      <use x="27.783203125" xlink:href="#DejaVuSans-6f"/>
      <use x="88.96484375" xlink:href="#DejaVuSans-63"/>
      <use x="143.9453125" xlink:href="#DejaVuSans-61"/>
      <use x="205.224609375" xlink:href="#DejaVuSans-6c"/>
      <use x="233.0078125" xlink:href="#DejaVuSans-69"/>
      <use x="260.791015625" xlink:href="#DejaVuSans-74"/>
      <use x="300.0" xlink:href="#DejaVuSans-79"/>
      <use x="359.1796875" xlink:href="#DejaVuSans-23"/>
      <use x="442.96875" xlink:href="#DejaVuSans-31"/>
     </g>
    </g>
    <g id="line2d_49">
     <path d="
M519.306 78.6245
L539.466 78.6245" style="fill:none;stroke:#ff0000;stroke-linecap:square;"/>
    </g>
    <g id="line2d_50"/>
    <g id="text_19">
     <!-- locality#10 -->
     <g transform="translate(555.30625 83.6645)scale(0.144 -0.144)">
      <use xlink:href="#DejaVuSans-6c"/>
      <use x="27.783203125" xlink:href="#DejaVuSans-6f"/>
      <use x="88.96484375" xlink:href="#DejaVuSans-63"/>
      <use x="143.9453125" xlink:href="#DejaVuSans-61"/>
      <use x="205.224609375" xlink:href="#DejaVuSans-6c"/>
      <use x="233.0078125" xlink:href="#DejaVuSans-69"/>
      <use x="260.791015625" xlink:href="#DejaVuSans-74"/>
      <use x="300.0" xlink:href="#DejaVuSans-79"/>
      <use x="359.1796875" xlink:href="#DejaVuSans-23"/>
      <use x="442.96875" xlink:href="#DejaVuSans-31"/>
      <use x="506.591796875" xlink:href="#DejaVuSans-30"/>
     </g>
    </g>
    <g id="line2d_51">
     <path d="
M519.306 99.761
L539.466 99.761" style="fill:none;stroke:#00bfbf;stroke-linecap:square;"/>
    </g>
    <g id="line2d_52"/>
    <g id="text_20">
     <!-- locality#11 -->
     <g transform="translate(555.30625 104.801)scale(0.144 -0.144)">
      <use xlink:href="#DejaVuSans-6c"/>
      <use x="27.783203125" xlink:href="#DejaVuSans-6f"/>
      <use x="88.96484375" xlink:href="#DejaVuSans-63"/>
      <use x="143.9453125" xlink:href="#DejaVuSans-61"/>
      <use x="205.224609375" xlink:href="#DejaVuSans-6c"/>
      <use x="233.0078125" xlink:href="#DejaVuSans-69"/>
      <use x="260.791015625" xlink:href="#DejaVuSans-74"/>
      <use x="300.0" xlink:href="#DejaVuSans-79"/>
      <use x="359.1796875" xlink:href="#DejaVuSans-23"/>
      <use x="442.96875" xlink:href="#DejaVuSans-31"/>
      <use x="506.591796875" xlink:href="#DejaVuSans-31"/>
     </g>
    </g>
    <g id="line2d_53">
     <path d="
M519.306 120.897
L539.466 120.897" style="fill:none;stroke:#bf00bf;stroke-linecap:square;"/>
    </g>
    <g id="line2d_54"/>
    <g id="text_21">
     <!-- locality#12 -->
     <g transform="translate(555.30625 125.9375)scale(0.144 -0.144)">
      <use xlink:href="#DejaVuSans-6c"/>
      <use x="27.783203125" xlink:href="#DejaVuSans-6f"/>
      <use x="88.96484375" xlink:href="#DejaVuSans-63"/>
      <use x="143.9453125" xlink:href="#DejaVuSans-61"/>
      <use x="205.224609375" xlink:href="#DejaVuSans-6c"/>
      <use x="233.0078125" xlink:href="#DejaVuSans-69"/>
      <use x="260.791015625" xlink:href="#DejaVuSans-74"/>
      <use x="300.0" xlink:href="#DejaVuSans-79"/>
      <use x="359.1796875" xlink:href="#DejaVuSans-23"/>
      <use x="442.96875" xlink:href="#DejaVuSans-31"/>
      <use x="506.591796875" xlink:href="#DejaVuSans-32"/>
     </g>
    </g>
    <g id="line2d_55">
     <path d="
M519.306 142.034
L539.466 142.034" style="fill:none;stroke:#bfbf00;stroke-linecap:square;"/>
    </g>
    <g id="line2d_56"/>
    <g id="text_22">
     <!-- locality#13 -->
     <g transform="translate(555.30625 147.074)scale(0.144 -0.144)">
      <use xlink:href="#DejaVuSans-6c"/>
      <use x="27.783203125" xlink:href="#DejaVuSans-6f"/>
      <use x="88.96484375" xlink:href="#DejaVuSans-63"/>
      <use x="143.9453125" xlink:href="#DejaVuSans-61"/>
      <use x="205.224609375" xlink:href="#DejaVuSans-6c"/>
      <use x="233.0078125" xlink:href="#DejaVuSans-69"/>
      <use x="260.791015625" xlink:href="#DejaVuSans-74"/>
      <use x="300.0" xlink:href="#DejaVuSans-79"/>
      <use x="359.1796875" xlink:href="#DejaVuSans-23"/>
      <use x="442.96875" xlink:href="#DejaVuSans-31"/>
      <use x="506.591796875" xlink:href="#DejaVuSans-33"/>
     </g>
    </g>
    <g id="line2d_57">
     <path d="
M519.306 163.17
L539.466 163.17" style="fill:none;stroke:#000000;stroke-linecap:square;"/>
    </g>
    <g id="line2d_58"/>
    <g id="text_23">
     <!-- locality#14 -->
     <g transform="translate(555.30625 168.2105)scale(0.144 -0.144)">
      <use xlink:href="#DejaVuSans-6c"/>
      <use x="27.783203125" xlink:href="#DejaVuSans-6f"/>
      <use x="88.96484375" xlink:href="#DejaVuSans-63"/>
      <use x="143.9453125" xlink:href="#DejaVuSans-61"/>
      <use x="205.224609375" xlink:href="#DejaVuSans-6c"/>
      <use x="233.0078125" xlink:href="#DejaVuSans-69"/>
      <use x="260.791015625" xlink:href="#DejaVuSans-74"/>
      <use x="300.0" xlink:href="#DejaVuSans-79"/>
      <use x="359.1796875" xlink:href="#DejaVuSans-23"/>
      <use x="442.96875" xlink:href="#DejaVuSans-31"/>
      <use x="506.591796875" xlink:href="#DejaVuSans-34"/>
     </g>
    </g>
    <g id="line2d_59">
     <path d="
M519.306 184.307
L539.466 184.307" style="fill:none;stroke:#0000ff;stroke-linecap:square;"/>
    </g>
    <g id="line2d_60"/>
    <g id="text_24">
     <!-- locality#15 -->
     <g transform="translate(555.30625 189.347)scale(0.144 -0.144)">
      <use xlink:href="#DejaVuSans-6c"/>
      <use x="27.783203125" xlink:href="#DejaVuSans-6f"/>
      <use x="88.96484375" xlink:href="#DejaVuSans-63"/>
      <use x="143.9453125" xlink:href="#DejaVuSans-61"/>
      <use x="205.224609375" xlink:href="#DejaVuSans-6c"/>
      <use x="233.0078125" xlink:href="#DejaVuSans-69"/>
      <use x="260.791015625" xlink:href="#DejaVuSans-74"/>
      <use x="300.0" xlink:href="#DejaVuSans-79"/>
      <use x="359.1796875" xlink:href="#DejaVuSans-23"/>
      <use x="442.96875" xlink:href="#DejaVuSans-31"/>
      <use x="506.591796875" xlink:href="#DejaVuSans-35"/>
     </g>
    </g>
    <g id="line2d_61">
     <path d="
M519.306 205.443
L539.466 205.443" style="fill:none;stroke:#008000;stroke-linecap:square;"/>
    </g>
    <g id="line2d_62"/>
    <g id="text_25">
     <!-- locality#2 -->
     <g transform="translate(555.30625 210.4835)scale(0.144 -0.144)">
      <use xlink:href="#DejaVuSans-6c"/>
      <use x="27.783203125" xlink:href="#DejaVuSans-6f"/>
      <use x="88.96484375" xlink:href="#DejaVuSans-63"/>
      <use x="143.9453125" xlink:href="#DejaVuSans-61"/>
      <use x="205.224609375" xlink:href="#DejaVuSans-6c"/>
      <use x="233.0078125" xlink:href="#DejaVuSans-69"/>
      <use x="260.791015625" xlink:href="#DejaVuSans-74"/>
      <use x="300.0" xlink:href="#DejaVuSans-79"/>
      <use x="359.1796875" xlink:href="#DejaVuSans-23"/>
      <use x="442.96875" xlink:href="#DejaVuSans-32"/>
     </g>
    </g>
    <g id="line2d_63">
     <path d="
M519.306 226.58
L539.466 226.58" style="fill:none;stroke:#ff0000;stroke-linecap:square;"/>
    </g>
    <g id="line2d_64"/>
    <g id="text_26">
     <!-- locality#3 -->
     <g transform="translate(555.30625 231.62)scale(0.144 -0.144)">
      <use xlink:href="#DejaVuSans-6c"/>
      <use x="27.783203125" xlink:href="#DejaVuSans-6f"/>
      <use x="88.96484375" xlink:href="#DejaVuSans-63"/>
      <use x="143.9453125" xlink:href="#DejaVuSans-61"/>
      <use x="205.224609375" xlink:href="#DejaVuSans-6c"/>
      <use x="233.0078125" xlink:href="#DejaVuSans-69"/>
      <use x="260.791015625" xlink:href="#DejaVuSans-74"/>
      <use x="300.0" xlink:href="#DejaVuSans-79"/>
      <use x="359.1796875" xlink:href="#DejaVuSans-23"/>
      <use x="442.96875" xlink:href="#DejaVuSans-33"/>
     </g>
    </g>
    <g id="line2d_65">
     <path d="
M519.306 247.716
L539.466 247.716" style="fill:none;stroke:#00bfbf;stroke-linecap:square;"/>
    </g>
    <g id="line2d_66"/>
    <g id="text_27">
     <!-- locality#4 -->
     <g transform="translate(555.30625 252.7565)scale(0.144 -0.144)">
      <use xlink:href="#DejaVuSans-6c"/>
      <use x="27.783203125" xlink:href="#DejaVuSans-6f"/>
      <use x="88.96484375" xlink:href="#DejaVuSans-63"/>
      <use x="143.9453125" xlink:href="#DejaVuSans-61"/>
      <use x="205.224609375" xlink:href="#DejaVuSans-6c"/>
      <use x="233.0078125" xlink:href="#DejaVuSans-69"/>
      <use x="260.791015625" xlink:href="#DejaVuSans-74"/>
      <use x="300.0" xlink:href="#DejaVuSans-79"/>
      <use x="359.1796875" xlink:href="#DejaVuSans-23"/>
      <use x="442.96875" xlink:href="#DejaVuSans-34"/>
     </g>
    </g>
    <g id="line2d_67">
     <path d="
M519.306 268.853
L539.466 268.853" style="fill:none;stroke:#bf00bf;stroke-linecap:square;"/>
    </g>
    <g id="line2d_68"/>
    <g id="text_28">
     <!-- locality#5 -->
     <g transform="translate(555.30625 273.893)scale(0.144 -0.144)">
      <use xlink:href="#DejaVuSans-6c"/>
      <use x="27.783203125" xlink:href="#DejaVuSans-6f"/>
      <use x="88.96484375" xlink:href="#DejaVuSans-63"/>
      <use x="143.9453125" xlink:href="#DejaVuSans-61"/>
      <use x="205.224609375" xlink:href="#DejaVuSans-6c"/>
      <use x="233.0078125" xlink:href="#DejaVuSans-69"/>
      <use x="260.791015625" xlink:href="#DejaVuSans-74"/>
      <use x="300.0" xlink:href="#DejaVuSans-79"/>
      <use x="359.1796875" xlink:href="#DejaVuSans-23"/>
      <use x="442.96875" xlink:href="#DejaVuSans-35"/>
     </g>
    </g>
    <g id="line2d_69">
     <path d="
M519.306 289.989
L539.466 289.989" style="fill:none;stroke:#bfbf00;stroke-linecap:square;"/>
    </g>
    <g id="line2d_70"/>
    <g id="text_29">
     <!-- locality#6 -->
     <g transform="translate(555.30625 295.0295)scale(0.144 -0.144)">
      <use xlink:href="#DejaVuSans-6c"/>
      <use x="27.783203125" xlink:href="#DejaVuSans-6f"/>
      <use x="88.96484375" xlink:href="#DejaVuSans-63"/>
      <use x="143.9453125" xlink:href="#DejaVuSans-61"/>
      <use x="205.224609375" xlink:href="#DejaVuSans-6c"/>
      <use x="233.0078125" xlink:href="#DejaVuSans-69"/>
      <use x="260.791015625" xlink:href="#DejaVuSans-74"/>
      <use x="300.0" xlink:href="#DejaVuSans-79"/>
      <use x="359.1796875" xlink:href="#DejaVuSans-23"/>
      <use x="442.96875" xlink:href="#DejaVuSans-36"/>
     </g>
    </g>
    <g id="line2d_71">
     <path d="
M519.306 311.126
L539.466 311.126" style="fill:none;stroke:#000000;stroke-linecap:square;"/>
    </g>
    <g id="line2d_72"/>
    <g id="text_30">
     <!-- locality#7 -->
     <g transform="translate(555.30625 316.166)scale(0.144 -0.144)">
      <use xlink:href="#DejaVuSans-6c"/>
      <use x="27.783203125" xlink:href="#DejaVuSans-6f"/>
      <use x="88.96484375" xlink:href="#DejaVuSans-63"/>
      <use x="143.9453125" xlink:href="#DejaVuSans-61"/>
      <use x="205.224609375" xlink:href="#DejaVuSans-6c"/>
      <use x="233.0078125" xlink:href="#DejaVuSans-69"/>
      <use x="260.791015625" xlink:href="#DejaVuSans-74"/>
      <use x="300.0" xlink:href="#DejaVuSans-79"/>
      <use x="359.1796875" xlink:href="#DejaVuSans-23"/>
      <use x="442.96875" xlink:href="#DejaVuSans-37"/>
     </g>
    </g>
    <g id="line2d_73">
     <path d="
M519.306 332.262
L539.466 332.262" style="fill:none;stroke:#0000ff;stroke-linecap:square;"/>
    </g>
    <g id="line2d_74"/>
    <g id="text_31">
     <!-- locality#8 -->
     <defs>
      <path d="
M31.7812 34.625
Q24.75 34.625 20.7188 30.8594
Q16.7031 27.0938 16.7031 20.5156
Q16.7031 13.9219 20.7188 10.1562
Q24.75 6.39062 31.7812 6.39062
Q38.8125 6.39062 42.8594 10.1719
Q46.9219 13.9688 46.9219 20.5156
Q46.9219 27.0938 42.8906 30.8594
Q38.875 34.625 31.7812 34.625
M21.9219 38.8125
Q15.5781 40.375 12.0312 44.7188
Q8.5 49.0781 8.5 55.3281
Q8.5 64.0625 14.7188 69.1406
Q20.9531 74.2188 31.7812 74.2188
Q42.6719 74.2188 48.875 69.1406
Q55.0781 64.0625 55.0781 55.3281
Q55.0781 49.0781 51.5312 44.7188
Q48 40.375 41.7031 38.8125
Q48.8281 37.1562 52.7969 32.3125
Q56.7812 27.4844 56.7812 20.5156
Q56.7812 9.90625 50.3125 4.23438
Q43.8438 -1.42188 31.7812 -1.42188
Q19.7344 -1.42188 13.25 4.23438
Q6.78125 9.90625 6.78125 20.5156
Q6.78125 27.4844 10.7812 32.3125
Q14.7969 37.1562 21.9219 38.8125
M18.3125 54.3906
Q18.3125 48.7344 21.8438 45.5625
Q25.3906 42.3906 31.7812 42.3906
Q38.1406 42.3906 41.7188 45.5625
Q45.3125 48.7344 45.3125 54.3906
Q45.3125 60.0625 41.7188 63.2344
Q38.1406 66.4062 31.7812 66.4062
Q25.3906 66.4062 21.8438 63.2344
Q18.3125 60.0625 18.3125 54.3906" id="DejaVuSans-38"/>
     </defs>
     <g transform="translate(555.30625 337.3025)scale(0.144 -0.144)">
      <use xlink:href="#DejaVuSans-6c"/>
      <use x="27.783203125" xlink:href="#DejaVuSans-6f"/>
      <use x="88.96484375" xlink:href="#DejaVuSans-63"/>
      <use x="143.9453125" xlink:href="#DejaVuSans-61"/>
      <use x="205.224609375" xlink:href="#DejaVuSans-6c"/>
      <use x="233.0078125" xlink:href="#DejaVuSans-69"/>
      <use x="260.791015625" xlink:href="#DejaVuSans-74"/>
      <use x="300.0" xlink:href="#DejaVuSans-79"/>
      <use x="359.1796875" xlink:href="#DejaVuSans-23"/>
      <use x="442.96875" xlink:href="#DejaVuSans-38"/>
     </g>
    </g>
    <g id="line2d_75">
     <path d="
M519.306 353.399
L539.466 353.399" style="fill:none;stroke:#008000;stroke-linecap:square;"/>
    </g>
    <g id="line2d_76"/>
    <g id="text_32">
     <!-- locality#9 -->
     <defs>
      <path d="
M10.9844 1.51562
L10.9844 10.5
Q14.7031 8.73438 18.5 7.8125
Q22.3125 6.89062 25.9844 6.89062
Q35.75 6.89062 40.8906 13.4531
Q46.0469 20.0156 46.7812 33.4062
Q43.9531 29.2031 39.5938 26.9531
Q35.25 24.7031 29.9844 24.7031
Q19.0469 24.7031 12.6719 31.3125
Q6.29688 37.9375 6.29688 49.4219
Q6.29688 60.6406 12.9375 67.4219
Q19.5781 74.2188 30.6094 74.2188
Q43.2656 74.2188 49.9219 64.5156
Q56.5938 54.8281 56.5938 36.375
Q56.5938 19.1406 48.4062 8.85938
Q40.2344 -1.42188 26.4219 -1.42188
Q22.7031 -1.42188 18.8906 -0.6875
Q15.0938 0.046875 10.9844 1.51562
M30.6094 32.4219
Q37.25 32.4219 41.125 36.9531
Q45.0156 41.5 45.0156 49.4219
Q45.0156 57.2812 41.125 61.8438
Q37.25 66.4062 30.6094 66.4062
Q23.9688 66.4062 20.0938 61.8438
Q16.2188 57.2812 16.2188 49.4219
Q16.2188 41.5 20.0938 36.9531
Q23.9688 32.4219 30.6094 32.4219" id="DejaVuSans-39"/>
     </defs>
     <g transform="translate(555.30625 358.439)scale(0.144 -0.144)">
      <use xlink:href="#DejaVuSans-6c"/>
      <use x="27.783203125" xlink:href="#DejaVuSans-6f"/>
      <use x="88.96484375" xlink:href="#DejaVuSans-63"/>
      <use x="143.9453125" xlink:href="#DejaVuSans-61"/>
      <use x="205.224609375" xlink:href="#DejaVuSans-6c"/>
      <use x="233.0078125" xlink:href="#DejaVuSans-69"/>
      <use x="260.791015625" xlink:href="#DejaVuSans-74"/>
      <use x="300.0" xlink:href="#DejaVuSans-79"/>
      <use x="359.1796875" xlink:href="#DejaVuSans-23"/>
      <use x="442.96875" xlink:href="#DejaVuSans-39"/>
     </g>
    </g>
   </g>
  </g>
 </g>
 <defs>
  <clipPath id="p395fe44e94">
   <rect height="345.6" width="446.4" x="55.62625" y="23.14175"/>
  </clipPath>
 </defs>
</svg>
