<?xml version="1.0" encoding="utf-8" standalone="no"?>
<!DOCTYPE svg PUBLIC "-//W3C//DTD SVG 1.1//EN"
  "http://www.w3.org/Graphics/SVG/1.1/DTD/svg11.dtd">
<!-- Created with matplotlib (http://matplotlib.org/) -->
<svg height="408pt" version="1.1" viewBox="0 0 621 408" width="621pt" xmlns="http://www.w3.org/2000/svg" xmlns:xlink="http://www.w3.org/1999/xlink">
 <defs>
  <style type="text/css">
*{stroke-linecap:butt;stroke-linejoin:round;}
  </style>
 </defs>
 <g id="figure_1">
  <g id="patch_1">
   <path d="
M0 408.169
L621.285 408.169
L621.285 0
L0 0
z
" style="fill:#ffffff;"/>
  </g>
  <g id="axes_1">
   <g id="patch_2">
    <path d="
M28.6956 368.742
L475.096 368.742
L475.096 23.1417
L28.6956 23.1417
z
" style="fill:#ffffff;"/>
   </g>
   <g id="line2d_1">
    <path clip-path="url(#p2118423672)" d="
M28.6956 368.735
L29.1461 368.566
L30.6476 368.246
L38.005 367.208
L47.0141 365.606
L51.5186 364.827
L56.3235 363.914
L59.777 363.324
L64.732 362.425
L67.735 361.914
L109.327 354.287
L116.684 352.913
L119.237 352.408
L127.195 350.878
L128.847 350.559
L139.207 348.571
L141.76 348.101
L143.561 347.733
L146.114 347.273
L147.015 347.086
L154.973 345.518
L160.679 344.422
L162.781 344.033
L165.333 343.505
L167.435 343.107
L174.943 341.682
L192.21 338.279
L197.316 337.332
L201.52 336.549
L204.223 336.088
L206.175 335.697
L209.178 335.076
L217.286 333.382
L219.238 332.954
L222.391 332.221
L226.445 331.286
L229.898 330.592
L232.151 330.107
L255.424 325.056
L270.74 321.982
L275.094 321.173
L277.797 320.59
L289.358 318.285
L317.136 313.144
L319.088 312.821
L324.794 311.893
L328.848 311.233
L332.001 310.706
L338.758 309.574
L342.662 308.887
L349.569 307.734
L352.872 307.158
L410.23 297.499
L413.984 296.855
L438.609 292.567
L441.161 292.137
L445.816 291.324
L450.321 290.48
L452.423 290.072
L455.576 289.534
L465.186 288.012
L467.888 287.537
L469.84 287.204
L475.096 286.3
L475.096 286.3" style="fill:none;stroke:#0000ff;stroke-linecap:square;"/>
   </g>
   <g id="line2d_2">
    <path clip-path="url(#p2118423672)" d="
M28.6956 368.741
L32.4494 368.347
L39.957 367.529
L44.7618 366.948
L54.3715 365.757
L59.0262 365.183
L67.1344 364.194
L74.4918 363.294
L86.9544 361.724
L90.4078 361.291
L98.0656 360.352
L102.72 359.776
L124.342 356.99
L125.693 356.81
L129.747 356.289
L134.102 355.716
L138.907 355.089
L142.51 354.622
L151.82 353.434
L158.577 352.55
L161.129 352.228
L166.685 351.508
L170.739 350.973
L199.718 347.209
L203.922 346.661
L209.178 345.983
L211.43 345.671
L219.238 344.596
L238.607 342.051
L254.073 339.979
L255.875 339.749
L269.388 337.96
L274.193 337.327
L278.097 336.777
L293.112 334.801
L315.785 331.748
L320.59 331.086
L329.749 329.786
L334.854 329.063
L338.458 328.567
L341.161 328.191
L347.767 327.322
L373.293 323.578
L381.701 322.339
L386.056 321.722
L389.659 321.223
L397.918 319.973
L414.585 317.534
L428.549 315.191
L431.251 314.779
L434.705 314.274
L438.309 313.778
L450.321 312.097
L456.327 311.219
L460.08 310.631
L466.087 309.675
L475.096 308.127
L475.096 308.127" style="fill:none;stroke:#008000;stroke-linecap:square;"/>
   </g>
   <g id="line2d_3">
    <path clip-path="url(#p2118423672)" d="
M28.6956 368.741
L29.8968 368.029
L31.5485 367.245
L35.3023 365.732
L40.2573 363.471
L41.1582 363.004
L56.1733 355.557
L59.0262 354.091
L60.3776 353.419
L62.3295 352.37
L63.3806 351.872
L64.1313 351.501
L66.2335 350.544
L67.4347 349.955
L68.6359 349.408
L69.8371 348.778
L71.1885 348.161
L72.8401 347.243
L99.8674 333.862
L103.021 332.211
L104.973 331.218
L111.279 328.057
L113.081 327.153
L113.982 326.703
L119.537 323.882
L126.294 320.422
L129.597 318.664
L134.402 316.174
L136.805 314.949
L138.006 314.329
L149.718 308.331
L150.769 307.79
L151.67 307.335
L153.321 306.512
L157.976 304.039
L170.138 297.662
L171.49 296.913
L172.39 296.418
L174.192 295.525
L175.544 294.85
L180.048 292.533
L182.451 291.206
L184.853 289.996
L186.505 289.137
L188.757 288.009
L189.658 287.472
L191.009 286.759
L194.012 285.174
L196.415 283.86
L197.466 283.23
L198.367 282.727
L200.919 281.217
L203.172 279.858
L207.376 277.015
L208.577 276.174
L211.88 273.983
L212.931 273.334
L214.883 272.04
L217.586 270.416
L218.187 269.995
L219.388 269.201
L220.139 268.632
L221.94 267.429
L222.691 266.952
L225.244 265.359
L227.196 264.234
L229.448 262.894
L230.049 262.568
L236.205 258.953
L237.106 258.376
L240.709 255.875
L242.061 254.885
L244.613 253.029
L246.415 251.727
L247.766 250.666
L248.667 249.91
L250.319 248.512
L251.67 247.35
L253.472 245.581
L254.373 244.668
L257.226 241.67
L260.98 237.902
L265.334 233.062
L266.836 231.406
L268.037 230.252
L271.791 226.545
L274.644 223.494
L275.544 222.777
L277.647 221.18
L279.749 219.65
L282.151 217.909
L284.253 216.367
L285.605 215.334
L286.656 214.575
L287.857 213.588
L291.31 210.826
L293.412 209.178
L294.614 208.199
L299.569 204.26
L301.22 203.046
L305.274 200.085
L307.226 198.52
L315.785 191.394
L327.497 178.308
L329.149 176.393
L330.2 175.336
L332.902 172.738
L335.155 170.699
L337.857 168.191
L345.515 161.48
L347.617 159.818
L353.323 155.489
L354.824 154.408
L357.827 152.248
L360.53 150.338
L362.182 149.112
L370.59 142.631
L373.743 139.968
L376.446 137.256
L378.398 135.368
L380.801 133.134
L383.503 130.475
L390.41 123.659
L392.062 122.032
L393.714 120.34
L397.317 116.534
L398.218 115.445
L399.72 113.804
L400.921 112.533
L409.479 103.555
L410.681 102.417
L411.281 101.809
L413.383 99.67
L414.885 98.1439
L417.137 95.9638
L423.744 91.3521
L436.657 82.567
L441.011 79.7897
L441.762 79.3612
L443.113 78.5553
L444.915 77.4397
L453.924 71.5852
L461.882 65.3727
L465.035 62.8733
L466.687 61.889
L475.096 56.8101
L475.096 56.8101" style="fill:none;stroke:#ff0000;stroke-linecap:square;"/>
   </g>
   <g id="line2d_4">
    <path clip-path="url(#p2118423672)" d="
M28.6956 368.741
L30.047 368.167
L33.05 367.276
L33.9509 366.89
L37.1041 365.827
L38.3053 365.342
L40.1071 364.623
L41.008 364.24
L45.3624 362.616
L69.3866 353.185
L70.2876 352.848
L117.585 333.879
L120.288 332.813
L121.789 332.2
L123.741 331.364
L126.444 330.292
L131.549 328.15
L132.3 327.846
L133.802 327.237
L135.754 326.393
L139.657 324.754
L140.859 324.257
L145.814 322.292
L146.865 321.866
L147.916 321.343
L148.817 320.976
L150.018 320.513
L166.084 313.822
L167.285 313.321
L169.237 312.416
L172.24 311.176
L175.093 309.94
L176.144 309.535
L189.057 304.085
L192.21 302.73
L197.316 300.537
L199.718 299.386
L202.271 298.222
L203.772 297.415
L204.523 297.033
L209.178 294.306
L210.979 293.526
L216.985 290.489
L217.736 290.125
L220.139 288.868
L222.541 287.603
L223.892 286.874
L224.643 286.501
L226.445 285.577
L230.349 283.724
L232.751 282.55
L234.103 281.904
L242.962 277.136
L248.217 273.361
L252.121 270.122
L257.676 264.78
L262.031 260.146
L265.935 255.93
L270.439 251.767
L272.842 249.511
L274.944 247.693
L276.746 246.782
L280.65 244.812
L282.301 243.964
L284.103 243.032
L285.454 242.346
L289.058 240.396
L300.169 235.062
L305.725 231.436
L311.731 227.033
L315.485 224
L317.587 221.815
L320.139 219.049
L322.992 216.025
L323.893 215.113
L326.296 212.663
L328.998 209.879
L331.1 208.074
L334.854 205.038
L338.158 202.688
L341.761 200.234
L348.068 196.054
L352.272 194.113
L353.623 193.502
L360.08 190.643
L369.089 186.96
L371.341 185.944
L375.095 184.131
L385.305 178.383
L395.215 171.509
L398.819 168.595
L399.569 167.932
L400.47 167.108
L406.026 162.114
L407.828 160.515
L410.08 158.488
L417.588 151.793
L419.69 150.318
L422.843 148.346
L424.945 146.996
L434.104 141.811
L436.056 140.841
L438.158 139.791
L442.212 137.777
L444.164 136.753
L446.116 135.733
L447.167 135.185
L448.369 134.624
L451.222 133.224
L455.426 131.284
L458.579 130.133
L460.231 129.493
L461.582 128.977
L465.636 127.254
L468.789 125.623
L475.096 122.299
L475.096 122.299" style="fill:none;stroke:#00bfbf;stroke-linecap:square;"/>
   </g>
   <g id="line2d_5">
    <path clip-path="url(#p2118423672)" d="
M28.6956 368.741
L29.7467 368.337
L32.5996 367.03
L35.6026 365.497
L37.2543 364.718
L39.5065 363.606
L40.7077 362.982
L43.5606 361.601
L44.3114 361.274
L49.7168 358.626
L51.2183 357.875
L52.4195 357.281
L53.3204 356.833
L54.3715 356.326
L56.9241 355.076
L57.5247 354.787
L102.27 332.311
L102.87 331.978
L103.771 331.46
L108.876 328.998
L110.979 327.856
L117.135 324.739
L123.291 321.605
L126.594 319.942
L131.549 317.298
L132.45 316.779
L136.654 314.567
L140.108 312.758
L144.913 310.294
L146.264 309.639
L148.066 308.655
L150.919 307.165
L151.97 306.632
L153.622 305.772
L162.03 301.305
L163.381 300.638
L166.685 298.913
L168.036 298.164
L169.387 297.444
L176.895 293.621
L177.646 293.211
L180.048 291.956
L180.799 291.537
L181.7 291.021
L182.901 290.395
L185.454 289.134
L186.655 288.507
L188.907 287.334
L194.313 284.518
L195.364 284
L196.114 283.595
L197.165 283.092
L198.517 282.38
L201.52 280.788
L203.322 279.843
L205.123 278.886
L209.628 276.225
L210.379 275.858
L213.081 274.307
L214.133 273.658
L226.895 266.128
L228.697 265.169
L230.049 264.414
L243.562 256.924
L246.265 254.893
L249.418 252.339
L250.769 251.068
L252.872 249.264
L254.673 247.523
L258.577 243.854
L262.631 240.056
L265.785 237.112
L274.794 228.89
L275.845 228.424
L283.352 225.22
L290.259 222.666
L300.019 219.161
L315.785 210.073
L316.686 209.427
L318.187 208.335
L319.689 207.295
L322.242 205.449
L324.344 204.011
L326.446 202.544
L328.998 200.86
L331.251 199.882
L334.254 198.614
L335.455 198.13
L338.608 196.934
L347.617 194.062
L350.32 193.159
L351.671 192.736
L368.939 187.216
L374.494 185.234
L377.948 183.911
L379.75 183.174
L380.65 182.797
L382.002 182.202
L389.81 178.631
L392.512 177.259
L395.365 175.677
L398.819 173.783
L399.87 173.048
L403.624 170.633
L405.425 169.619
L407.077 168.628
L408.428 167.885
L412.182 165.869
L417.738 163.01
L419.54 162.247
L421.492 161.516
L431.702 157.962
L432.903 157.59
L435.306 156.867
L439.96 155.609
L442.363 154.886
L445.816 153.957
L447.468 153.521
L448.969 153.161
L452.873 152.089
L455.576 151.314
L458.129 150.529
L460.381 149.84
L464.735 148.292
L472.393 144.157
L474.945 142.753
L475.096 142.681
L475.096 142.681" style="fill:none;stroke:#bf00bf;stroke-linecap:square;"/>
   </g>
   <g id="line2d_6">
    <path clip-path="url(#p2118423672)" d="
M28.6956 368.741
L29.8968 368.436
L31.2482 368.125
L36.3533 366.716
L37.5546 366.355
L38.9059 365.931
L40.8579 365.379
L42.3594 364.939
L43.8609 364.521
L45.5126 364.04
L46.7138 363.696
L103.771 346.472
L105.573 345.923
L107.225 345.419
L127.045 339.361
L128.096 339.025
L128.997 338.741
L132.15 337.715
L133.802 337.209
L142.21 334.565
L143.261 334.218
L145.513 333.558
L147.465 332.957
L151.369 331.755
L154.823 330.695
L157.225 329.913
L165.333 327.365
L166.084 327.138
L168.186 326.45
L170.439 325.75
L176.294 323.993
L180.649 322.631
L182.3 322.11
L195.514 318.028
L198.667 317.084
L201.97 316.092
L203.922 315.508
L234.403 306.169
L236.205 305.617
L238.307 304.952
L246.415 302.417
L249.718 301.24
L250.469 300.949
L254.673 299.431
L258.878 297.992
L260.83 297.362
L265.935 295.678
L268.638 294.684
L277.346 291.822
L288.307 288.871
L291.611 288.041
L297.917 286.632
L301.37 285.816
L309.479 283.88
L312.031 283.29
L318.187 281.768
L322.542 280.594
L324.494 280.095
L341.461 276.318
L347.317 275.17
L349.419 274.673
L356.927 272.879
L360.83 271.947
L365.035 271.001
L394.464 264.659
L397.918 263.867
L429.45 257.106
L431.702 256.624
L439.66 255.137
L447.618 253.674
L451.972 252.876
L456.026 252.123
L458.279 251.65
L465.186 250.189
L473.894 247.745
L475.096 247.429
L475.096 247.429" style="fill:none;stroke:#bfbf00;stroke-linecap:square;"/>
   </g>
   <g id="line2d_7">
    <path clip-path="url(#p2118423672)" d="
M28.6956 368.741
L30.1971 368.372
L32.7497 367.777
L34.5515 367.385
L38.1552 366.63
L40.5576 366.122
L44.0111 365.371
L47.7648 364.537
L70.1374 359.4
L72.5398 358.874
L112.03 349.803
L122.54 347.37
L129.447 345.747
L134.853 344.439
L137.706 343.747
L142.21 342.683
L143.561 342.336
L148.967 341.049
L150.769 340.618
L157.826 338.939
L175.694 334.702
L178.246 334.11
L201.67 328.718
L204.973 328.081
L213.232 326.292
L232.451 321.748
L236.355 320.897
L240.109 320.063
L243.562 319.363
L246.265 318.794
L250.469 317.927
L258.127 316.511
L276.445 312.877
L292.662 309.387
L296.416 308.696
L302.572 307.556
L309.178 306.424
L311.28 306.083
L326.746 303.529
L331.851 302.695
L351.671 299.338
L355.275 298.663
L359.93 297.801
L386.056 293.653
L390.711 292.978
L401.521 291.397
L410.981 289.974
L414.885 289.376
L417.888 288.891
L433.504 286.138
L440.861 285.01
L465.336 281.163
L470.591 280.198
L474.495 279.51
L475.096 279.408
L475.096 279.408" style="fill:none;stroke:#000000;stroke-linecap:square;"/>
   </g>
   <g id="line2d_8">
    <path clip-path="url(#p2118423672)" d="
M28.6956 368.741
L32.2993 368.037
L37.4044 366.976
L40.1071 366.375
L50.4676 363.952
L60.9782 361.372
L65.6329 360.273
L67.8851 359.755
L87.1045 355.157
L90.2577 354.352
L92.3598 353.856
L93.561 353.549
L96.2637 352.904
L98.516 352.391
L102.27 351.453
L106.474 350.446
L124.943 345.899
L127.195 345.295
L138.606 342.426
L154.973 338.39
L156.625 337.923
L164.432 336.01
L165.484 335.745
L168.787 334.929
L176.294 333.107
L177.646 332.785
L179.748 332.228
L183.652 331.252
L185.303 330.859
L188.757 329.989
L192.511 329.053
L195.664 328.345
L197.165 327.988
L204.973 326.291
L212.331 324.602
L214.733 323.952
L216.535 323.509
L237.556 318.531
L241.01 317.764
L251.971 315.516
L270.139 312.094
L278.247 310.26
L289.809 307.498
L309.178 303.72
L322.992 301.424
L327.197 300.752
L334.854 299.431
L341.01 298.38
L349.119 297.052
L351.371 296.576
L359.479 294.98
L365.785 293.792
L371.641 292.813
L394.915 289.217
L408.428 287.179
L411.131 286.78
L417.738 285.772
L437.708 282.425
L447.318 280.952
L470.141 277.184
L472.843 276.707
L475.096 276.316
L475.096 276.316" style="fill:none;stroke:#0000ff;stroke-linecap:square;"/>
   </g>
   <g id="line2d_9">
    <path clip-path="url(#p2118423672)" d="
M28.6956 368.741
L42.8099 366.685
L45.3624 366.282
L48.6658 365.77
L55.2724 364.724
L68.4857 362.644
L71.9392 362.092
L76.4438 361.403
L82.2997 360.443
L86.5039 359.747
L92.3598 358.772
L94.7622 358.372
L96.8643 358.051
L105.573 356.693
L110.228 355.937
L113.381 355.395
L116.534 354.892
L130.348 352.634
L134.252 352.004
L137.405 351.474
L148.667 349.616
L150.018 349.378
L160.829 347.588
L165.183 346.887
L171.64 345.816
L172.841 345.619
L201.37 340.833
L207.226 339.877
L217.586 338.089
L220.739 337.548
L227.046 336.457
L235.454 335.063
L237.556 334.7
L290.71 325.633
L311.581 321.6
L313.833 321.096
L325.245 318.886
L352.872 313.587
L372.392 309.253
L379.9 307.308
L381.401 306.908
L382.903 306.511
L386.356 305.645
L400.32 302.383
L405.876 301.298
L411.732 300.183
L416.236 299.295
L422.543 297.94
L424.645 297.428
L428.999 296.476
L433.504 295.557
L446.867 292.741
L448.519 292.332
L453.624 291.154
L457.378 290.17
L462.633 288.799
L466.987 287.523
L469.99 286.528
L471.492 286.027
L475.096 284.782
L475.096 284.782" style="fill:none;stroke:#008000;stroke-linecap:square;"/>
   </g>
   <g id="line2d_10">
    <path clip-path="url(#p2118423672)" d="
M28.6956 368.741
L63.831 363.394
L65.9332 363.085
L149.718 350
L159.027 348.523
L166.384 347.416
L170.439 346.737
L177.045 345.739
L193.412 343.137
L195.814 342.766
L207.376 340.951
L213.382 339.938
L215.334 339.6
L249.718 334.048
L251.971 333.645
L265.634 331.396
L272.241 330.286
L277.496 329.398
L287.557 327.6
L292.812 326.642
L312.932 323.012
L325.395 320.678
L329.149 319.961
L348.518 316.202
L351.071 315.64
L358.128 314.075
L363.533 312.838
L377.047 309.543
L391.011 305.967
L395.966 304.668
L398.518 304.015
L400.921 303.484
L417.438 299.609
L423.744 298.195
L427.948 297.204
L431.251 296.494
L435.456 295.589
L443.564 293.887
L452.423 291.749
L455.276 290.974
L456.777 290.549
L461.582 289.005
L466.987 287.105
L468.489 286.521
L470.591 285.721
L473.144 284.627
L475.096 283.804
L475.096 283.804" style="fill:none;stroke:#ff0000;stroke-linecap:square;"/>
   </g>
   <g id="line2d_11">
    <path clip-path="url(#p2118423672)" d="
M28.6956 368.741
L30.047 368.432
L52.2694 363.097
L53.7709 362.726
L112.63 348.012
L113.982 347.654
L116.234 347.095
L132.6 342.863
L134.402 342.374
L144.162 339.89
L150.919 338.124
L152.12 337.814
L154.372 337.237
L157.375 336.475
L159.477 335.96
L163.231 334.981
L173.592 332.333
L174.943 332.001
L176.445 331.619
L179.147 330.951
L181.55 330.336
L184.102 329.696
L189.057 328.416
L193.111 327.351
L201.97 325.075
L203.622 324.651
L224.793 318.994
L226.745 318.53
L234.703 316.527
L235.604 316.273
L240.559 314.887
L245.664 313.445
L249.418 312.461
L250.619 312.135
L257.226 310.431
L259.328 309.908
L260.98 309.488
L263.382 308.84
L265.484 308.269
L270.89 306.765
L275.544 305.304
L279.148 303.988
L280.95 303.284
L286.656 300.855
L289.208 299.699
L293.412 297.837
L297.316 296.132
L302.572 294.225
L311.13 291.41
L316.235 289.698
L318.488 289.055
L322.242 287.88
L336.055 282.919
L340.86 280.927
L345.515 278.903
L348.068 277.888
L355.725 274.214
L357.377 273.388
L359.029 272.625
L361.131 271.582
L376.746 263.737
L379.599 262.14
L383.503 259.944
L386.506 258.264
L398.969 251.642
L408.428 248.55
L409.63 248.111
L411.281 247.559
L416.086 245.98
L426.747 242.901
L431.101 241.367
L442.212 237.212
L449.87 233.684
L452.273 232.463
L453.774 231.621
L460.981 227.274
L462.183 226.537
L465.035 224.819
L466.687 224.011
L473.744 220.251
L475.096 219.516
L475.096 219.516" style="fill:none;stroke:#00bfbf;stroke-linecap:square;"/>
   </g>
   <g id="line2d_12">
    <path clip-path="url(#p2118423672)" d="
M28.6956 368.741
L31.8488 367.89
L33.8008 367.357
L37.5546 366.194
L54.3715 360.31
L56.3235 359.615
L58.2754 358.931
L59.4767 358.504
L61.2785 357.885
L62.1794 357.555
L71.7891 354.264
L74.6419 353.259
L75.693 352.9
L79.5969 351.555
L89.5069 348.045
L90.2577 347.782
L91.4589 347.366
L92.9604 346.879
L94.3118 346.429
L110.228 340.883
L111.729 340.342
L114.132 339.463
L115.934 338.816
L117.585 338.249
L124.342 335.868
L125.393 335.452
L127.045 334.846
L127.946 334.476
L177.195 316.864
L186.054 313.721
L186.655 313.478
L187.706 313.125
L189.057 312.63
L207.676 305.837
L210.229 304.896
L211.43 304.406
L219.988 301.137
L221.34 300.595
L229.298 297.656
L234.703 295.741
L235.905 295.277
L237.556 294.683
L250.019 289.539
L255.124 286.936
L265.034 281.176
L266.535 280.335
L269.388 278.875
L273.442 276.768
L274.944 275.932
L281.25 272.564
L300.62 261.06
L308.878 257.4
L309.929 256.915
L314.734 254.523
L317.437 252.682
L323.593 248.339
L333.953 240.104
L335.755 238.587
L344.013 231.49
L345.365 230.346
L348.668 227.816
L350.32 226.861
L352.722 225.513
L353.473 225.12
L356.626 223.468
L361.281 221.081
L366.686 218.021
L368.788 216.855
L370.74 215.667
L372.092 214.824
L373.143 214.181
L381.852 207.952
L382.903 207.135
L384.705 205.808
L391.011 201.415
L401.221 194.33
L403.774 192.417
L406.026 190.653
L407.528 189.439
L409.179 188.117
L410.08 187.367
L411.582 186.08
L416.386 182.043
L417.588 181.156
L418.639 180.352
L419.69 179.588
L421.492 178.244
L422.543 177.481
L424.194 176.274
L427.948 173.663
L429.45 172.716
L433.053 170.425
L435.906 168.729
L444.315 164.196
L445.065 163.764
L447.918 162.369
L450.02 161.285
L452.122 160.225
L453.023 159.744
L461.582 155.531
L463.084 154.688
L466.687 153.013
L467.738 152.532
L471.342 150.722
L475.096 148.726
L475.096 148.726" style="fill:none;stroke:#bf00bf;stroke-linecap:square;"/>
   </g>
   <g id="line2d_13">
    <path clip-path="url(#p2118423672)" d="
M28.6956 368.741
L30.1971 368.236
L34.8518 366.458
L43.1102 362.609
L47.6147 360.459
L48.5156 360.033
L49.4165 359.601
L56.9241 355.973
L57.5247 355.703
L62.3295 353.406
L62.9301 353.1
L64.1313 352.549
L65.3326 351.992
L71.4888 349.066
L80.7981 344.51
L88.9063 340.532
L91.4589 339.235
L98.6662 335.871
L101.369 334.617
L104.072 333.196
L105.873 332.32
L110.979 329.695
L119.988 325.339
L121.639 324.522
L140.558 315.261
L141.309 314.87
L142.811 314.174
L143.862 313.647
L146.564 312.39
L149.267 311.039
L150.919 310.238
L151.82 309.772
L153.171 309.11
L201.82 285.121
L212.181 279.279
L219.388 275.689
L220.739 274.943
L222.841 273.806
L226.595 271.92
L227.946 271.241
L233.502 268.475
L236.355 266.897
L237.256 266.375
L238.607 265.49
L239.808 264.69
L242.511 262.862
L243.863 261.905
L248.217 258.493
L253.472 253.714
L254.073 253.075
L257.076 250.16
L257.977 249.25
L263.382 243.469
L267.436 239.1
L268.638 237.896
L273.592 232.634
L275.094 231.013
L281.25 226.632
L287.106 222.47
L288.908 221.064
L294.914 216.23
L297.617 214.029
L299.118 212.788
L300.77 211.373
L302.271 210.218
L304.524 208.277
L308.578 204.596
L314.884 198.35
L315.485 197.67
L318.488 194.471
L323.743 188.755
L325.695 186.564
L326.446 185.697
L328.848 182.882
L332.302 179.473
L343.563 169.043
L354.224 160.143
L356.176 158.587
L357.377 157.653
L359.629 155.837
L360.68 154.943
L361.731 154.117
L368.939 148.087
L371.791 145.152
L372.542 144.388
L375.095 141.716
L375.996 140.664
L378.698 137.551
L386.656 127.734
L387.708 126.319
L389.359 124.129
L390.26 122.921
L397.768 112.779
L398.819 111.553
L399.72 110.392
L402.272 107.389
L404.374 105.01
L406.326 102.761
L411.582 96.7739
L413.083 95.1288
L416.086 91.847
L417.888 90.2282
L418.939 89.3311
L421.492 87.3736
L422.242 86.8483
L424.194 85.2862
L426.747 83.3467
L428.399 82.2006
L430.501 80.6551
L451.372 65.7266
L461.882 57.4847
L464.585 54.9743
L465.486 54.2098
L470.291 49.8843
L471.792 48.4825
L475.096 45.3528
L475.096 45.3528" style="fill:none;stroke:#bfbf00;stroke-linecap:square;"/>
   </g>
   <g id="line2d_14">
    <path clip-path="url(#p2118423672)" d="
M28.6956 368.741
L30.047 368.263
L34.2512 367.134
L36.2032 366.46
L37.5546 365.963
L42.5096 364.228
L47.0141 362.621
L63.2304 356.819
L64.5818 356.347
L206.024 304.558
L210.829 302.774
L212.181 302.346
L214.883 301.351
L217.286 300.467
L218.487 300.003
L221.34 298.892
L236.355 293.364
L238.157 292.697
L239.358 292.229
L242.511 291.075
L243.863 290.387
L246.115 289.063
L248.517 287.369
L250.769 285.772
L253.322 283.785
L254.824 282.513
L256.325 281.209
L261.28 276.644
L266.235 271.598
L267.436 270.521
L268.788 269.395
L273.142 265.581
L274.043 264.715
L275.244 263.86
L276.896 263.233
L283.202 260.845
L288.758 258.525
L299.118 253.283
L305.575 248.617
L307.076 247.359
L308.728 245.912
L311.431 243.358
L315.935 238.76
L319.689 234.681
L321.791 232.311
L324.344 229.447
L325.395 228.258
L327.347 226.081
L329.149 224.137
L340.86 214.04
L342.962 212.39
L345.065 210.758
L348.818 208.273
L349.719 207.826
L351.972 206.706
L354.374 205.526
L357.527 203.953
L360.38 202.497
L369.389 197.323
L370.44 196.659
L375.996 193.105
L388.008 184.455
L394.164 179.66
L396.867 177.483
L399.269 175.441
L401.672 172.883
L414.885 159.533
L417.438 157.201
L418.489 156.394
L420.14 155.135
L430.351 148.213
L445.366 138.974
L446.417 138.275
L451.222 135.271
L452.873 134.219
L454.675 133.08
L462.933 129.241
L464.735 128.131
L465.936 126.863
L467.588 125.119
L469.54 122.952
L471.492 120.717
L473.444 118.508
L475.096 116.563
L475.096 116.563" style="fill:none;stroke:#000000;stroke-linecap:square;"/>
   </g>
   <g id="line2d_15">
    <path clip-path="url(#p2118423672)" d="
M28.6956 368.741
L30.9479 367.779
L32.8999 366.926
L43.5606 362.585
L56.0232 357.125
L57.0742 356.68
L60.5277 355.172
L64.5818 353.42
L68.3356 351.735
L71.1885 350.508
L71.9392 350.134
L73.4407 349.482
L74.0413 349.201
L76.1435 348.322
L79.1465 346.99
L81.6991 345.966
L82.7501 345.555
L88.606 342.998
L93.561 340.89
L94.9124 340.332
L97.3148 339.287
L100.018 338.1
L112.78 332.471
L113.831 331.97
L115.033 331.524
L159.027 312.051
L160.228 311.53
L163.081 310.267
L165.183 309.302
L170.889 306.723
L172.691 305.914
L173.892 305.395
L176.144 304.352
L177.045 303.951
L182.751 301.345
L205.123 291.128
L206.325 290.485
L208.277 289.439
L220.739 283.285
L228.697 279.353
L232.451 277.345
L233.802 276.641
L241.16 272.495
L242.211 271.81
L248.517 267.499
L256.175 261.682
L266.385 253.704
L275.394 244.867
L289.509 234.992
L291.911 233.23
L293.713 231.895
L295.364 230.628
L296.566 229.759
L299.268 227.77
L308.428 223.265
L312.181 221.244
L316.536 218.691
L319.088 217.004
L319.989 216.428
L321.941 215.118
L326.296 211.834
L330.8 207.911
L341.311 200.018
L349.869 194.147
L351.371 192.968
L356.026 189.233
L362.482 183.755
L363.233 183.079
L363.984 182.39
L367.888 178.725
L368.939 177.7
L370.74 175.902
L372.392 174.22
L374.344 172.152
L375.095 171.342
L376.146 170.052
L384.554 160.128
L386.356 157.985
L399.119 143.453
L401.822 141.211
L412.783 131.791
L417.137 127.922
L418.338 127.097
L419.54 126.265
L421.942 124.759
L423.744 123.678
L424.795 123.055
L435.756 116.815
L437.408 115.991
L438.008 115.677
L440.711 114.347
L441.312 114.057
L444.915 112.309
L446.867 111.372
L451.672 109.282
L453.324 108.557
L455.125 107.366
L457.528 104.936
L459.029 103.353
L462.633 99.5981
L463.984 98.1508
L466.387 95.5463
L475.096 85.5917
L475.096 85.5917" style="fill:none;stroke:#0000ff;stroke-linecap:square;"/>
   </g>
   <g id="line2d_16">
    <path clip-path="url(#p2118423672)" d="
M28.6956 368.741
L31.2482 367.221
L32.2993 366.654
L33.8008 366.176
L36.6536 365.34
L38.3053 364.691
L39.3564 364.302
L42.5096 363.123
L45.963 361.843
L47.915 361.138
L53.7709 358.883
L55.2724 358.267
L67.5848 353.608
L69.3866 352.962
L70.738 352.495
L75.5429 350.699
L76.2936 350.367
L77.0444 350.103
L79.1465 349.284
L80.648 348.752
L83.9513 347.529
L86.9544 346.339
L88.0054 345.913
L89.9574 345.12
L91.7592 344.446
L92.9604 343.982
L98.3659 342.013
L104.372 339.744
L105.423 339.403
L114.132 335.991
L116.234 335.205
L118.937 334.212
L122.841 332.746
L124.042 332.245
L127.796 330.767
L129.447 330.093
L133.201 328.672
L141.609 325.473
L142.961 324.955
L146.264 323.678
L147.916 323.003
L160.228 318.177
L161.279 317.744
L163.982 316.703
L165.033 316.285
L166.835 315.636
L169.387 314.563
L170.589 314.049
L172.09 313.463
L172.991 313.122
L174.493 312.543
L183.502 309.015
L184.553 308.592
L187.105 307.562
L191.009 306.001
L191.91 305.606
L195.664 304.157
L196.415 303.836
L197.916 303.275
L200.469 302.388
L201.97 301.942
L209.778 299.78
L213.232 298.279
L213.832 298.014
L215.784 297.176
L216.685 296.826
L219.838 295.456
L229.148 291.281
L230.049 290.846
L232.301 289.769
L249.418 282.879
L252.571 281.286
L254.523 280.168
L255.724 279.443
L256.475 279.076
L259.028 277.488
L260.079 276.78
L262.331 275.277
L263.082 274.792
L268.337 271.066
L269.088 270.398
L271.49 268.392
L273.292 266.725
L275.244 265.052
L277.046 263.809
L287.707 256.6
L288.908 255.639
L292.361 253.012
L299.869 247.116
L305.575 243.711
L310.98 240.845
L312.782 239.883
L319.389 236.024
L324.344 232.467
L329.449 228.286
L332.452 225.616
L334.404 223.923
L335.905 222.635
L337.107 221.671
L340.26 219.02
L341.611 217.889
L342.812 216.837
L347.017 213.302
L358.878 204.044
L360.53 202.767
L362.332 201.398
L364.134 199.952
L381.401 186.967
L382.302 186.211
L385.455 183.788
L391.611 178.618
L397.467 172.78
L398.368 171.833
L399.569 170.709
L400.621 169.859
L405.726 165.67
L409.029 163.124
L409.63 162.647
L410.38 162.081
L413.083 160.062
L414.434 158.92
L420.441 154.5
L422.843 153.018
L424.645 151.825
L427.047 150.338
L430.05 148.216
L434.705 145.049
L437.257 143.423
L438.309 142.675
L441.762 140.27
L443.414 139.038
L446.867 136.565
L448.068 135.726
L453.774 131.389
L454.525 130.78
L456.177 129.711
L458.879 127.922
L460.531 126.854
L466.387 123.044
L468.189 121.999
L469.84 120.941
L471.042 120.152
L472.693 119.007
L475.096 117.276
L475.096 117.276" style="fill:none;stroke:#008000;stroke-linecap:square;"/>
   </g>
   <g id="patch_3">
    <path d="
M28.6956 23.1417
L475.096 23.1417" style="fill:none;stroke:#000000;stroke-linecap:square;stroke-linejoin:miter;"/>
   </g>
   <g id="patch_4">
    <path d="
M475.096 368.742
L475.096 23.1417" style="fill:none;stroke:#000000;stroke-linecap:square;stroke-linejoin:miter;"/>
   </g>
   <g id="patch_5">
    <path d="
M28.6956 368.742
L475.096 368.742" style="fill:none;stroke:#000000;stroke-linecap:square;stroke-linejoin:miter;"/>
   </g>
   <g id="patch_6">
    <path d="
M28.6956 368.742
L28.6956 23.1417" style="fill:none;stroke:#000000;stroke-linecap:square;stroke-linejoin:miter;"/>
   </g>
   <g id="matplotlib.axis_1">
    <g id="xtick_1">
     <g id="line2d_17">
      <defs>
       <path d="
M0 0
L0 -4" id="m93b0483c22" style="stroke:#000000;stroke-width:0.5;"/>
      </defs>
      <g>
       <use style="stroke:#000000;stroke-width:0.5;" x="28.695625" xlink:href="#m93b0483c22" y="368.74175"/>
      </g>
     </g>
     <g id="line2d_18">
      <defs>
       <path d="
M0 0
L0 4" id="m741efc42ff" style="stroke:#000000;stroke-width:0.5;"/>
      </defs>
      <g>
       <use style="stroke:#000000;stroke-width:0.5;" x="28.695625" xlink:href="#m741efc42ff" y="23.14175"/>
      </g>
     </g>
     <g id="text_1">
      <!-- 0 -->
      <defs>
       <path d="
M31.7812 66.4062
Q24.1719 66.4062 20.3281 58.9062
Q16.5 51.4219 16.5 36.375
Q16.5 21.3906 20.3281 13.8906
Q24.1719 6.39062 31.7812 6.39062
Q39.4531 6.39062 43.2812 13.8906
Q47.125 21.3906 47.125 36.375
Q47.125 51.4219 43.2812 58.9062
Q39.4531 66.4062 31.7812 66.4062
M31.7812 74.2188
Q44.0469 74.2188 50.5156 64.5156
Q56.9844 54.8281 56.9844 36.375
Q56.9844 17.9688 50.5156 8.26562
Q44.0469 -1.42188 31.7812 -1.42188
Q19.5312 -1.42188 13.0625 8.26562
Q6.59375 17.9688 6.59375 36.375
Q6.59375 54.8281 13.0625 64.5156
Q19.5312 74.2188 31.7812 74.2188" id="DejaVuSans-30"/>
      </defs>
      <g transform="translate(25.6721875 381.859875)scale(0.12 -0.12)">
       <use xlink:href="#DejaVuSans-30"/>
      </g>
     </g>
    </g>
    <g id="xtick_2">
     <g id="line2d_19">
      <g>
       <use style="stroke:#000000;stroke-width:0.5;" x="103.77130613" xlink:href="#m93b0483c22" y="368.74175"/>
      </g>
     </g>
     <g id="line2d_20">
      <g>
       <use style="stroke:#000000;stroke-width:0.5;" x="103.77130613" xlink:href="#m741efc42ff" y="23.14175"/>
      </g>
     </g>
     <g id="text_2">
      <!-- 500 -->
      <defs>
       <path d="
M10.7969 72.9062
L49.5156 72.9062
L49.5156 64.5938
L19.8281 64.5938
L19.8281 46.7344
Q21.9688 47.4688 24.1094 47.8281
Q26.2656 48.1875 28.4219 48.1875
Q40.625 48.1875 47.75 41.5
Q54.8906 34.8125 54.8906 23.3906
Q54.8906 11.625 47.5625 5.09375
Q40.2344 -1.42188 26.9062 -1.42188
Q22.3125 -1.42188 17.5469 -0.640625
Q12.7969 0.140625 7.71875 1.70312
L7.71875 11.625
Q12.1094 9.23438 16.7969 8.0625
Q21.4844 6.89062 26.7031 6.89062
Q35.1562 6.89062 40.0781 11.3281
Q45.0156 15.7656 45.0156 23.3906
Q45.0156 31 40.0781 35.4375
Q35.1562 39.8906 26.7031 39.8906
Q22.75 39.8906 18.8125 39.0156
Q14.8906 38.1406 10.7969 36.2812
z
" id="DejaVuSans-35"/>
      </defs>
      <g transform="translate(93.1803686302 381.859875)scale(0.12 -0.12)">
       <use xlink:href="#DejaVuSans-35"/>
       <use x="63.623046875" xlink:href="#DejaVuSans-30"/>
       <use x="127.24609375" xlink:href="#DejaVuSans-30"/>
      </g>
     </g>
    </g>
    <g id="xtick_3">
     <g id="line2d_21">
      <g>
       <use style="stroke:#000000;stroke-width:0.5;" x="178.84698726" xlink:href="#m93b0483c22" y="368.74175"/>
      </g>
     </g>
     <g id="line2d_22">
      <g>
       <use style="stroke:#000000;stroke-width:0.5;" x="178.84698726" xlink:href="#m741efc42ff" y="23.14175"/>
      </g>
     </g>
     <g id="text_3">
      <!-- 1000 -->
      <defs>
       <path d="
M12.4062 8.29688
L28.5156 8.29688
L28.5156 63.9219
L10.9844 60.4062
L10.9844 69.3906
L28.4219 72.9062
L38.2812 72.9062
L38.2812 8.29688
L54.3906 8.29688
L54.3906 0
L12.4062 0
z
" id="DejaVuSans-31"/>
      </defs>
      <g transform="translate(164.63448726 381.859875)scale(0.12 -0.12)">
       <use xlink:href="#DejaVuSans-31"/>
       <use x="63.623046875" xlink:href="#DejaVuSans-30"/>
       <use x="127.24609375" xlink:href="#DejaVuSans-30"/>
       <use x="190.869140625" xlink:href="#DejaVuSans-30"/>
      </g>
     </g>
    </g>
    <g id="xtick_4">
     <g id="line2d_23">
      <g>
       <use style="stroke:#000000;stroke-width:0.5;" x="253.922668391" xlink:href="#m93b0483c22" y="368.74175"/>
      </g>
     </g>
     <g id="line2d_24">
      <g>
       <use style="stroke:#000000;stroke-width:0.5;" x="253.922668391" xlink:href="#m741efc42ff" y="23.14175"/>
      </g>
     </g>
     <g id="text_4">
      <!-- 1500 -->
      <g transform="translate(239.710168391 381.859875)scale(0.12 -0.12)">
       <use xlink:href="#DejaVuSans-31"/>
       <use x="63.623046875" xlink:href="#DejaVuSans-35"/>
       <use x="127.24609375" xlink:href="#DejaVuSans-30"/>
       <use x="190.869140625" xlink:href="#DejaVuSans-30"/>
      </g>
     </g>
    </g>
    <g id="xtick_5">
     <g id="line2d_25">
      <g>
       <use style="stroke:#000000;stroke-width:0.5;" x="328.998349521" xlink:href="#m93b0483c22" y="368.74175"/>
      </g>
     </g>
     <g id="line2d_26">
      <g>
       <use style="stroke:#000000;stroke-width:0.5;" x="328.998349521" xlink:href="#m741efc42ff" y="23.14175"/>
      </g>
     </g>
     <g id="text_5">
      <!-- 2000 -->
      <defs>
       <path d="
M19.1875 8.29688
L53.6094 8.29688
L53.6094 0
L7.32812 0
L7.32812 8.29688
Q12.9375 14.1094 22.625 23.8906
Q32.3281 33.6875 34.8125 36.5312
Q39.5469 41.8438 41.4219 45.5312
Q43.3125 49.2188 43.3125 52.7812
Q43.3125 58.5938 39.2344 62.25
Q35.1562 65.9219 28.6094 65.9219
Q23.9688 65.9219 18.8125 64.3125
Q13.6719 62.7031 7.8125 59.4219
L7.8125 69.3906
Q13.7656 71.7812 18.9375 73
Q24.125 74.2188 28.4219 74.2188
Q39.75 74.2188 46.4844 68.5469
Q53.2188 62.8906 53.2188 53.4219
Q53.2188 48.9219 51.5312 44.8906
Q49.8594 40.875 45.4062 35.4062
Q44.1875 33.9844 37.6406 27.2188
Q31.1094 20.4531 19.1875 8.29688" id="DejaVuSans-32"/>
      </defs>
      <g transform="translate(314.566474521 381.859875)scale(0.12 -0.12)">
       <use xlink:href="#DejaVuSans-32"/>
       <use x="63.623046875" xlink:href="#DejaVuSans-30"/>
       <use x="127.24609375" xlink:href="#DejaVuSans-30"/>
       <use x="190.869140625" xlink:href="#DejaVuSans-30"/>
      </g>
     </g>
    </g>
    <g id="xtick_6">
     <g id="line2d_27">
      <g>
       <use style="stroke:#000000;stroke-width:0.5;" x="404.074030651" xlink:href="#m93b0483c22" y="368.74175"/>
      </g>
     </g>
     <g id="line2d_28">
      <g>
       <use style="stroke:#000000;stroke-width:0.5;" x="404.074030651" xlink:href="#m741efc42ff" y="23.14175"/>
      </g>
     </g>
     <g id="text_6">
      <!-- 2500 -->
      <g transform="translate(389.642155651 381.859875)scale(0.12 -0.12)">
       <use xlink:href="#DejaVuSans-32"/>
       <use x="63.623046875" xlink:href="#DejaVuSans-35"/>
       <use x="127.24609375" xlink:href="#DejaVuSans-30"/>
       <use x="190.869140625" xlink:href="#DejaVuSans-30"/>
      </g>
     </g>
    </g>
    <g id="text_7">
     <!-- time -->
     <defs>
      <path d="
M18.3125 70.2188
L18.3125 54.6875
L36.8125 54.6875
L36.8125 47.7031
L18.3125 47.7031
L18.3125 18.0156
Q18.3125 11.3281 20.1406 9.42188
Q21.9688 7.51562 27.5938 7.51562
L36.8125 7.51562
L36.8125 0
L27.5938 0
Q17.1875 0 13.2344 3.875
Q9.28125 7.76562 9.28125 18.0156
L9.28125 47.7031
L2.6875 47.7031
L2.6875 54.6875
L9.28125 54.6875
L9.28125 70.2188
z
" id="DejaVuSans-74"/>
      <path d="
M52 44.1875
Q55.375 50.25 60.0625 53.125
Q64.75 56 71.0938 56
Q79.6406 56 84.2812 50.0156
Q88.9219 44.0469 88.9219 33.0156
L88.9219 0
L79.8906 0
L79.8906 32.7188
Q79.8906 40.5781 77.0938 44.375
Q74.3125 48.1875 68.6094 48.1875
Q61.625 48.1875 57.5625 43.5469
Q53.5156 38.9219 53.5156 30.9062
L53.5156 0
L44.4844 0
L44.4844 32.7188
Q44.4844 40.625 41.7031 44.4062
Q38.9219 48.1875 33.1094 48.1875
Q26.2188 48.1875 22.1562 43.5312
Q18.1094 38.875 18.1094 30.9062
L18.1094 0
L9.07812 0
L9.07812 54.6875
L18.1094 54.6875
L18.1094 46.1875
Q21.1875 51.2188 25.4844 53.6094
Q29.7812 56 35.6875 56
Q41.6562 56 45.8281 52.9688
Q50 49.9531 52 44.1875" id="DejaVuSans-6d"/>
      <path d="
M56.2031 29.5938
L56.2031 25.2031
L14.8906 25.2031
Q15.4844 15.9219 20.4844 11.0625
Q25.4844 6.20312 34.4219 6.20312
Q39.5938 6.20312 44.4531 7.46875
Q49.3125 8.73438 54.1094 11.2812
L54.1094 2.78125
Q49.2656 0.734375 44.1875 -0.34375
Q39.1094 -1.42188 33.8906 -1.42188
Q20.7969 -1.42188 13.1562 6.1875
Q5.51562 13.8125 5.51562 26.8125
Q5.51562 40.2344 12.7656 48.1094
Q20.0156 56 32.3281 56
Q43.3594 56 49.7812 48.8906
Q56.2031 41.7969 56.2031 29.5938
M47.2188 32.2344
Q47.125 39.5938 43.0938 43.9844
Q39.0625 48.3906 32.4219 48.3906
Q24.9062 48.3906 20.3906 44.1406
Q15.875 39.8906 15.1875 32.1719
z
" id="DejaVuSans-65"/>
      <path d="
M9.42188 54.6875
L18.4062 54.6875
L18.4062 0
L9.42188 0
z

M9.42188 75.9844
L18.4062 75.9844
L18.4062 64.5938
L9.42188 64.5938
z
" id="DejaVuSans-69"/>
     </defs>
     <g transform="translate(238.82125 398.473625)scale(0.12 -0.12)">
      <use xlink:href="#DejaVuSans-74"/>
      <use x="39.208984375" xlink:href="#DejaVuSans-69"/>
      <use x="66.9921875" xlink:href="#DejaVuSans-6d"/>
      <use x="164.404296875" xlink:href="#DejaVuSans-65"/>
     </g>
    </g>
   </g>
   <g id="matplotlib.axis_2">
    <g id="ytick_1">
     <g id="line2d_29">
      <defs>
       <path d="
M0 0
L4 0" id="m728421d6d4" style="stroke:#000000;stroke-width:0.5;"/>
      </defs>
      <g>
       <use style="stroke:#000000;stroke-width:0.5;" x="28.695625" xlink:href="#m728421d6d4" y="368.74175"/>
      </g>
     </g>
     <g id="line2d_30">
      <defs>
       <path d="
M0 0
L-4 0" id="mcb0005524f" style="stroke:#000000;stroke-width:0.5;"/>
      </defs>
      <g>
       <use style="stroke:#000000;stroke-width:0.5;" x="475.095625" xlink:href="#mcb0005524f" y="368.74175"/>
      </g>
     </g>
     <g id="text_8">
      <!-- 0.0 -->
      <defs>
       <path d="
M10.6875 12.4062
L21 12.4062
L21 0
L10.6875 0
z
" id="DejaVuSans-2e"/>
      </defs>
      <g transform="translate(7.2 372.053)scale(0.12 -0.12)">
       <use xlink:href="#DejaVuSans-30"/>
       <use x="63.623046875" xlink:href="#DejaVuSans-2e"/>
       <use x="95.41015625" xlink:href="#DejaVuSans-30"/>
      </g>
     </g>
    </g>
    <g id="ytick_2">
     <g id="line2d_31">
      <g>
       <use style="stroke:#000000;stroke-width:0.5;" x="28.695625" xlink:href="#m728421d6d4" y="299.62175"/>
      </g>
     </g>
     <g id="line2d_32">
      <g>
       <use style="stroke:#000000;stroke-width:0.5;" x="475.095625" xlink:href="#mcb0005524f" y="299.62175"/>
      </g>
     </g>
     <g id="text_9">
      <!-- 0.5 -->
      <g transform="translate(7.45125 302.933)scale(0.12 -0.12)">
       <use xlink:href="#DejaVuSans-30"/>
       <use x="63.623046875" xlink:href="#DejaVuSans-2e"/>
       <use x="95.41015625" xlink:href="#DejaVuSans-35"/>
      </g>
     </g>
    </g>
    <g id="ytick_3">
     <g id="line2d_33">
      <g>
       <use style="stroke:#000000;stroke-width:0.5;" x="28.695625" xlink:href="#m728421d6d4" y="230.50175"/>
      </g>
     </g>
     <g id="line2d_34">
      <g>
       <use style="stroke:#000000;stroke-width:0.5;" x="475.095625" xlink:href="#mcb0005524f" y="230.50175"/>
      </g>
     </g>
     <g id="text_10">
      <!-- 1.0 -->
      <g transform="translate(7.726875 233.813)scale(0.12 -0.12)">
       <use xlink:href="#DejaVuSans-31"/>
       <use x="63.623046875" xlink:href="#DejaVuSans-2e"/>
       <use x="95.41015625" xlink:href="#DejaVuSans-30"/>
      </g>
     </g>
    </g>
    <g id="ytick_4">
     <g id="line2d_35">
      <g>
       <use style="stroke:#000000;stroke-width:0.5;" x="28.695625" xlink:href="#m728421d6d4" y="161.38175"/>
      </g>
     </g>
     <g id="line2d_36">
      <g>
       <use style="stroke:#000000;stroke-width:0.5;" x="475.095625" xlink:href="#mcb0005524f" y="161.38175"/>
      </g>
     </g>
     <g id="text_11">
      <!-- 1.5 -->
      <g transform="translate(7.978125 164.693)scale(0.12 -0.12)">
       <use xlink:href="#DejaVuSans-31"/>
       <use x="63.623046875" xlink:href="#DejaVuSans-2e"/>
       <use x="95.41015625" xlink:href="#DejaVuSans-35"/>
      </g>
     </g>
    </g>
    <g id="ytick_5">
     <g id="line2d_37">
      <g>
       <use style="stroke:#000000;stroke-width:0.5;" x="28.695625" xlink:href="#m728421d6d4" y="92.26175"/>
      </g>
     </g>
     <g id="line2d_38">
      <g>
       <use style="stroke:#000000;stroke-width:0.5;" x="475.095625" xlink:href="#mcb0005524f" y="92.26175"/>
      </g>
     </g>
     <g id="text_12">
      <!-- 2.0 -->
      <g transform="translate(7.288125 95.573)scale(0.12 -0.12)">
       <use xlink:href="#DejaVuSans-32"/>
       <use x="63.623046875" xlink:href="#DejaVuSans-2e"/>
       <use x="95.41015625" xlink:href="#DejaVuSans-30"/>
      </g>
     </g>
    </g>
    <g id="ytick_6">
     <g id="line2d_39">
      <g>
       <use style="stroke:#000000;stroke-width:0.5;" x="28.695625" xlink:href="#m728421d6d4" y="23.14175"/>
      </g>
     </g>
     <g id="line2d_40">
      <g>
       <use style="stroke:#000000;stroke-width:0.5;" x="475.095625" xlink:href="#mcb0005524f" y="23.14175"/>
      </g>
     </g>
     <g id="text_13">
      <!-- 2.5 -->
      <g transform="translate(7.539375 26.453)scale(0.12 -0.12)">
       <use xlink:href="#DejaVuSans-32"/>
       <use x="63.623046875" xlink:href="#DejaVuSans-2e"/>
       <use x="95.41015625" xlink:href="#DejaVuSans-35"/>
      </g>
     </g>
    </g>
    <g id="text_14">
     <!-- 1e12 -->
     <g transform="translate(28.695625 20.14175)scale(0.12 -0.12)">
      <use xlink:href="#DejaVuSans-31"/>
      <use x="63.623046875" xlink:href="#DejaVuSans-65"/>
      <use x="125.146484375" xlink:href="#DejaVuSans-31"/>
      <use x="188.76953125" xlink:href="#DejaVuSans-32"/>
     </g>
    </g>
   </g>
   <g id="text_15">
    <!-- /data/time/mpi/received -->
    <defs>
     <path d="
M2.98438 54.6875
L12.5 54.6875
L29.5938 8.79688
L46.6875 54.6875
L56.2031 54.6875
L35.6875 0
L23.4844 0
z
" id="DejaVuSans-76"/>
     <path d="
M25.3906 72.9062
L33.6875 72.9062
L8.29688 -9.28125
L0 -9.28125
z
" id="DejaVuSans-2f"/>
     <path d="
M18.1094 8.20312
L18.1094 -20.7969
L9.07812 -20.7969
L9.07812 54.6875
L18.1094 54.6875
L18.1094 46.3906
Q20.9531 51.2656 25.2656 53.625
Q29.5938 56 35.5938 56
Q45.5625 56 51.7812 48.0938
Q58.0156 40.1875 58.0156 27.2969
Q58.0156 14.4062 51.7812 6.48438
Q45.5625 -1.42188 35.5938 -1.42188
Q29.5938 -1.42188 25.2656 0.953125
Q20.9531 3.32812 18.1094 8.20312
M48.6875 27.2969
Q48.6875 37.2031 44.6094 42.8438
Q40.5312 48.4844 33.4062 48.4844
Q26.2656 48.4844 22.1875 42.8438
Q18.1094 37.2031 18.1094 27.2969
Q18.1094 17.3906 22.1875 11.75
Q26.2656 6.10938 33.4062 6.10938
Q40.5312 6.10938 44.6094 11.75
Q48.6875 17.3906 48.6875 27.2969" id="DejaVuSans-70"/>
     <path d="
M45.4062 46.3906
L45.4062 75.9844
L54.3906 75.9844
L54.3906 0
L45.4062 0
L45.4062 8.20312
Q42.5781 3.32812 38.25 0.953125
Q33.9375 -1.42188 27.875 -1.42188
Q17.9688 -1.42188 11.7344 6.48438
Q5.51562 14.4062 5.51562 27.2969
Q5.51562 40.1875 11.7344 48.0938
Q17.9688 56 27.875 56
Q33.9375 56 38.25 53.625
Q42.5781 51.2656 45.4062 46.3906
M14.7969 27.2969
Q14.7969 17.3906 18.875 11.75
Q22.9531 6.10938 30.0781 6.10938
Q37.2031 6.10938 41.2969 11.75
Q45.4062 17.3906 45.4062 27.2969
Q45.4062 37.2031 41.2969 42.8438
Q37.2031 48.4844 30.0781 48.4844
Q22.9531 48.4844 18.875 42.8438
Q14.7969 37.2031 14.7969 27.2969" id="DejaVuSans-64"/>
     <path d="
M34.2812 27.4844
Q23.3906 27.4844 19.1875 25
Q14.9844 22.5156 14.9844 16.5
Q14.9844 11.7188 18.1406 8.90625
Q21.2969 6.10938 26.7031 6.10938
Q34.1875 6.10938 38.7031 11.4062
Q43.2188 16.7031 43.2188 25.4844
L43.2188 27.4844
z

M52.2031 31.2031
L52.2031 0
L43.2188 0
L43.2188 8.29688
Q40.1406 3.32812 35.5469 0.953125
Q30.9531 -1.42188 24.3125 -1.42188
Q15.9219 -1.42188 10.9531 3.29688
Q6 8.01562 6 15.9219
Q6 25.1406 12.1719 29.8281
Q18.3594 34.5156 30.6094 34.5156
L43.2188 34.5156
L43.2188 35.4062
Q43.2188 41.6094 39.1406 45
Q35.0625 48.3906 27.6875 48.3906
Q23 48.3906 18.5469 47.2656
Q14.1094 46.1406 10.0156 43.8906
L10.0156 52.2031
Q14.9375 54.1094 19.5781 55.0469
Q24.2188 56 28.6094 56
Q40.4844 56 46.3438 49.8438
Q52.2031 43.7031 52.2031 31.2031" id="DejaVuSans-61"/>
     <path d="
M48.7812 52.5938
L48.7812 44.1875
Q44.9688 46.2969 41.1406 47.3438
Q37.3125 48.3906 33.4062 48.3906
Q24.6562 48.3906 19.8125 42.8438
Q14.9844 37.3125 14.9844 27.2969
Q14.9844 17.2812 19.8125 11.7344
Q24.6562 6.20312 33.4062 6.20312
Q37.3125 6.20312 41.1406 7.25
Q44.9688 8.29688 48.7812 10.4062
L48.7812 2.09375
Q45.0156 0.34375 40.9844 -0.53125
Q36.9688 -1.42188 32.4219 -1.42188
Q20.0625 -1.42188 12.7812 6.34375
Q5.51562 14.1094 5.51562 27.2969
Q5.51562 40.6719 12.8594 48.3281
Q20.2188 56 33.0156 56
Q37.1562 56 41.1094 55.1406
Q45.0625 54.2969 48.7812 52.5938" id="DejaVuSans-63"/>
     <path d="
M41.1094 46.2969
Q39.5938 47.1719 37.8125 47.5781
Q36.0312 48 33.8906 48
Q26.2656 48 22.1875 43.0469
Q18.1094 38.0938 18.1094 28.8125
L18.1094 0
L9.07812 0
L9.07812 54.6875
L18.1094 54.6875
L18.1094 46.1875
Q20.9531 51.1719 25.4844 53.5781
Q30.0312 56 36.5312 56
Q37.4531 56 38.5781 55.875
Q39.7031 55.7656 41.0625 55.5156
z
" id="DejaVuSans-72"/>
    </defs>
    <g transform="translate(165.8995 18.14175)scale(0.144 -0.144)">
     <use xlink:href="#DejaVuSans-2f"/>
     <use x="33.69140625" xlink:href="#DejaVuSans-64"/>
     <use x="97.16796875" xlink:href="#DejaVuSans-61"/>
     <use x="158.447265625" xlink:href="#DejaVuSans-74"/>
     <use x="197.65625" xlink:href="#DejaVuSans-61"/>
     <use x="258.935546875" xlink:href="#DejaVuSans-2f"/>
     <use x="292.626953125" xlink:href="#DejaVuSans-74"/>
     <use x="331.8359375" xlink:href="#DejaVuSans-69"/>
     <use x="359.619140625" xlink:href="#DejaVuSans-6d"/>
     <use x="457.03125" xlink:href="#DejaVuSans-65"/>
     <use x="518.5546875" xlink:href="#DejaVuSans-2f"/>
     <use x="552.24609375" xlink:href="#DejaVuSans-6d"/>
     <use x="649.658203125" xlink:href="#DejaVuSans-70"/>
     <use x="713.134765625" xlink:href="#DejaVuSans-69"/>
     <use x="740.91796875" xlink:href="#DejaVuSans-2f"/>
     <use x="774.609375" xlink:href="#DejaVuSans-72"/>
     <use x="813.47265625" xlink:href="#DejaVuSans-65"/>
     <use x="874.99609375" xlink:href="#DejaVuSans-63"/>
     <use x="929.9765625" xlink:href="#DejaVuSans-65"/>
     <use x="991.5" xlink:href="#DejaVuSans-69"/>
     <use x="1019.28320312" xlink:href="#DejaVuSans-76"/>
     <use x="1078.46289062" xlink:href="#DejaVuSans-65"/>
     <use x="1139.98632812" xlink:href="#DejaVuSans-64"/>
    </g>
   </g>
   <g id="legend_1">
    <g id="patch_7">
     <path d="
M482.296 367.194
L614.085 367.194
L614.085 24.6897
L482.296 24.6897
z
" style="fill:#ffffff;stroke:#000000;stroke-linejoin:miter;"/>
    </g>
    <g id="line2d_41">
     <path d="
M492.376 36.3515
L512.536 36.3515" style="fill:none;stroke:#0000ff;stroke-linecap:square;"/>
    </g>
    <g id="line2d_42"/>
    <g id="text_16">
     <!-- locality#0 -->
     <defs>
      <path d="
M30.6094 48.3906
Q23.3906 48.3906 19.1875 42.75
Q14.9844 37.1094 14.9844 27.2969
Q14.9844 17.4844 19.1562 11.8438
Q23.3438 6.20312 30.6094 6.20312
Q37.7969 6.20312 41.9844 11.8594
Q46.1875 17.5312 46.1875 27.2969
Q46.1875 37.0156 41.9844 42.7031
Q37.7969 48.3906 30.6094 48.3906
M30.6094 56
Q42.3281 56 49.0156 48.375
Q55.7188 40.7656 55.7188 27.2969
Q55.7188 13.875 49.0156 6.21875
Q42.3281 -1.42188 30.6094 -1.42188
Q18.8438 -1.42188 12.1719 6.21875
Q5.51562 13.875 5.51562 27.2969
Q5.51562 40.7656 12.1719 48.375
Q18.8438 56 30.6094 56" id="DejaVuSans-6f"/>
      <path d="
M51.125 44
L36.9219 44
L32.8125 27.6875
L47.125 27.6875
z

M43.7969 71.7812
L38.7188 51.5156
L52.9844 51.5156
L58.1094 71.7812
L65.9219 71.7812
L60.8906 51.5156
L76.125 51.5156
L76.125 44
L58.9844 44
L54.9844 27.6875
L70.5156 27.6875
L70.5156 20.2188
L53.0781 20.2188
L48 0
L40.1875 0
L45.2188 20.2188
L30.9062 20.2188
L25.875 0
L18.0156 0
L23.0938 20.2188
L7.71875 20.2188
L7.71875 27.6875
L24.9062 27.6875
L29 44
L13.2812 44
L13.2812 51.5156
L30.9062 51.5156
L35.8906 71.7812
z
" id="DejaVuSans-23"/>
      <path d="
M32.1719 -5.07812
Q28.375 -14.8438 24.75 -17.8125
Q21.1406 -20.7969 15.0938 -20.7969
L7.90625 -20.7969
L7.90625 -13.2812
L13.1875 -13.2812
Q16.8906 -13.2812 18.9375 -11.5156
Q21 -9.76562 23.4844 -3.21875
L25.0938 0.875
L2.98438 54.6875
L12.5 54.6875
L29.5938 11.9219
L46.6875 54.6875
L56.2031 54.6875
z
" id="DejaVuSans-79"/>
      <path d="
M9.42188 75.9844
L18.4062 75.9844
L18.4062 0
L9.42188 0
z
" id="DejaVuSans-6c"/>
     </defs>
     <g transform="translate(528.375625 41.3915)scale(0.144 -0.144)">
      <use xlink:href="#DejaVuSans-6c"/>
      <use x="27.783203125" xlink:href="#DejaVuSans-6f"/>
      <use x="88.96484375" xlink:href="#DejaVuSans-63"/>
      <use x="143.9453125" xlink:href="#DejaVuSans-61"/>
      <use x="205.224609375" xlink:href="#DejaVuSans-6c"/>
      <use x="233.0078125" xlink:href="#DejaVuSans-69"/>
      <use x="260.791015625" xlink:href="#DejaVuSans-74"/>
      <use x="300.0" xlink:href="#DejaVuSans-79"/>
      <use x="359.1796875" xlink:href="#DejaVuSans-23"/>
      <use x="442.96875" xlink:href="#DejaVuSans-30"/>
     </g>
    </g>
    <g id="line2d_43">
     <path d="
M492.376 57.488
L512.536 57.488" style="fill:none;stroke:#008000;stroke-linecap:square;"/>
    </g>
    <g id="line2d_44"/>
    <g id="text_17">
     <!-- locality#1 -->
     <g transform="translate(528.375625 62.528)scale(0.144 -0.144)">
      <use xlink:href="#DejaVuSans-6c"/>
      <use x="27.783203125" xlink:href="#DejaVuSans-6f"/>
      <use x="88.96484375" xlink:href="#DejaVuSans-63"/>
      <use x="143.9453125" xlink:href="#DejaVuSans-61"/>
      <use x="205.224609375" xlink:href="#DejaVuSans-6c"/>
      <use x="233.0078125" xlink:href="#DejaVuSans-69"/>
      <use x="260.791015625" xlink:href="#DejaVuSans-74"/>
      <use x="300.0" xlink:href="#DejaVuSans-79"/>
      <use x="359.1796875" xlink:href="#DejaVuSans-23"/>
      <use x="442.96875" xlink:href="#DejaVuSans-31"/>
     </g>
    </g>
    <g id="line2d_45">
     <path d="
M492.376 78.6245
L512.536 78.6245" style="fill:none;stroke:#ff0000;stroke-linecap:square;"/>
    </g>
    <g id="line2d_46"/>
    <g id="text_18">
     <!-- locality#10 -->
     <g transform="translate(528.375625 83.6645)scale(0.144 -0.144)">
      <use xlink:href="#DejaVuSans-6c"/>
      <use x="27.783203125" xlink:href="#DejaVuSans-6f"/>
      <use x="88.96484375" xlink:href="#DejaVuSans-63"/>
      <use x="143.9453125" xlink:href="#DejaVuSans-61"/>
      <use x="205.224609375" xlink:href="#DejaVuSans-6c"/>
      <use x="233.0078125" xlink:href="#DejaVuSans-69"/>
      <use x="260.791015625" xlink:href="#DejaVuSans-74"/>
      <use x="300.0" xlink:href="#DejaVuSans-79"/>
      <use x="359.1796875" xlink:href="#DejaVuSans-23"/>
      <use x="442.96875" xlink:href="#DejaVuSans-31"/>
      <use x="506.591796875" xlink:href="#DejaVuSans-30"/>
     </g>
    </g>
    <g id="line2d_47">
     <path d="
M492.376 99.761
L512.536 99.761" style="fill:none;stroke:#00bfbf;stroke-linecap:square;"/>
    </g>
    <g id="line2d_48"/>
    <g id="text_19">
     <!-- locality#11 -->
     <g transform="translate(528.375625 104.801)scale(0.144 -0.144)">
      <use xlink:href="#DejaVuSans-6c"/>
      <use x="27.783203125" xlink:href="#DejaVuSans-6f"/>
      <use x="88.96484375" xlink:href="#DejaVuSans-63"/>
      <use x="143.9453125" xlink:href="#DejaVuSans-61"/>
      <use x="205.224609375" xlink:href="#DejaVuSans-6c"/>
      <use x="233.0078125" xlink:href="#DejaVuSans-69"/>
      <use x="260.791015625" xlink:href="#DejaVuSans-74"/>
      <use x="300.0" xlink:href="#DejaVuSans-79"/>
      <use x="359.1796875" xlink:href="#DejaVuSans-23"/>
      <use x="442.96875" xlink:href="#DejaVuSans-31"/>
      <use x="506.591796875" xlink:href="#DejaVuSans-31"/>
     </g>
    </g>
    <g id="line2d_49">
     <path d="
M492.376 120.897
L512.536 120.897" style="fill:none;stroke:#bf00bf;stroke-linecap:square;"/>
    </g>
    <g id="line2d_50"/>
    <g id="text_20">
     <!-- locality#12 -->
     <g transform="translate(528.375625 125.9375)scale(0.144 -0.144)">
      <use xlink:href="#DejaVuSans-6c"/>
      <use x="27.783203125" xlink:href="#DejaVuSans-6f"/>
      <use x="88.96484375" xlink:href="#DejaVuSans-63"/>
      <use x="143.9453125" xlink:href="#DejaVuSans-61"/>
      <use x="205.224609375" xlink:href="#DejaVuSans-6c"/>
      <use x="233.0078125" xlink:href="#DejaVuSans-69"/>
      <use x="260.791015625" xlink:href="#DejaVuSans-74"/>
      <use x="300.0" xlink:href="#DejaVuSans-79"/>
      <use x="359.1796875" xlink:href="#DejaVuSans-23"/>
      <use x="442.96875" xlink:href="#DejaVuSans-31"/>
      <use x="506.591796875" xlink:href="#DejaVuSans-32"/>
     </g>
    </g>
    <g id="line2d_51">
     <path d="
M492.376 142.034
L512.536 142.034" style="fill:none;stroke:#bfbf00;stroke-linecap:square;"/>
    </g>
    <g id="line2d_52"/>
    <g id="text_21">
     <!-- locality#13 -->
     <defs>
      <path d="
M40.5781 39.3125
Q47.6562 37.7969 51.625 33
Q55.6094 28.2188 55.6094 21.1875
Q55.6094 10.4062 48.1875 4.48438
Q40.7656 -1.42188 27.0938 -1.42188
Q22.5156 -1.42188 17.6562 -0.515625
Q12.7969 0.390625 7.625 2.20312
L7.625 11.7188
Q11.7188 9.32812 16.5938 8.10938
Q21.4844 6.89062 26.8125 6.89062
Q36.0781 6.89062 40.9375 10.5469
Q45.7969 14.2031 45.7969 21.1875
Q45.7969 27.6406 41.2812 31.2656
Q36.7656 34.9062 28.7188 34.9062
L20.2188 34.9062
L20.2188 43.0156
L29.1094 43.0156
Q36.375 43.0156 40.2344 45.9219
Q44.0938 48.8281 44.0938 54.2969
Q44.0938 59.9062 40.1094 62.9062
Q36.1406 65.9219 28.7188 65.9219
Q24.6562 65.9219 20.0156 65.0312
Q15.375 64.1562 9.8125 62.3125
L9.8125 71.0938
Q15.4375 72.6562 20.3438 73.4375
Q25.25 74.2188 29.5938 74.2188
Q40.8281 74.2188 47.3594 69.1094
Q53.9062 64.0156 53.9062 55.3281
Q53.9062 49.2656 50.4375 45.0938
Q46.9688 40.9219 40.5781 39.3125" id="DejaVuSans-33"/>
     </defs>
     <g transform="translate(528.375625 147.074)scale(0.144 -0.144)">
      <use xlink:href="#DejaVuSans-6c"/>
      <use x="27.783203125" xlink:href="#DejaVuSans-6f"/>
      <use x="88.96484375" xlink:href="#DejaVuSans-63"/>
      <use x="143.9453125" xlink:href="#DejaVuSans-61"/>
      <use x="205.224609375" xlink:href="#DejaVuSans-6c"/>
      <use x="233.0078125" xlink:href="#DejaVuSans-69"/>
      <use x="260.791015625" xlink:href="#DejaVuSans-74"/>
      <use x="300.0" xlink:href="#DejaVuSans-79"/>
      <use x="359.1796875" xlink:href="#DejaVuSans-23"/>
      <use x="442.96875" xlink:href="#DejaVuSans-31"/>
      <use x="506.591796875" xlink:href="#DejaVuSans-33"/>
     </g>
    </g>
    <g id="line2d_53">
     <path d="
M492.376 163.17
L512.536 163.17" style="fill:none;stroke:#000000;stroke-linecap:square;"/>
    </g>
    <g id="line2d_54"/>
    <g id="text_22">
     <!-- locality#14 -->
     <defs>
      <path d="
M37.7969 64.3125
L12.8906 25.3906
L37.7969 25.3906
z

M35.2031 72.9062
L47.6094 72.9062
L47.6094 25.3906
L58.0156 25.3906
L58.0156 17.1875
L47.6094 17.1875
L47.6094 0
L37.7969 0
L37.7969 17.1875
L4.89062 17.1875
L4.89062 26.7031
z
" id="DejaVuSans-34"/>
     </defs>
     <g transform="translate(528.375625 168.2105)scale(0.144 -0.144)">
      <use xlink:href="#DejaVuSans-6c"/>
      <use x="27.783203125" xlink:href="#DejaVuSans-6f"/>
      <use x="88.96484375" xlink:href="#DejaVuSans-63"/>
      <use x="143.9453125" xlink:href="#DejaVuSans-61"/>
      <use x="205.224609375" xlink:href="#DejaVuSans-6c"/>
      <use x="233.0078125" xlink:href="#DejaVuSans-69"/>
      <use x="260.791015625" xlink:href="#DejaVuSans-74"/>
      <use x="300.0" xlink:href="#DejaVuSans-79"/>
      <use x="359.1796875" xlink:href="#DejaVuSans-23"/>
      <use x="442.96875" xlink:href="#DejaVuSans-31"/>
      <use x="506.591796875" xlink:href="#DejaVuSans-34"/>
     </g>
    </g>
    <g id="line2d_55">
     <path d="
M492.376 184.307
L512.536 184.307" style="fill:none;stroke:#0000ff;stroke-linecap:square;"/>
    </g>
    <g id="line2d_56"/>
    <g id="text_23">
     <!-- locality#15 -->
     <g transform="translate(528.375625 189.347)scale(0.144 -0.144)">
      <use xlink:href="#DejaVuSans-6c"/>
      <use x="27.783203125" xlink:href="#DejaVuSans-6f"/>
      <use x="88.96484375" xlink:href="#DejaVuSans-63"/>
      <use x="143.9453125" xlink:href="#DejaVuSans-61"/>
      <use x="205.224609375" xlink:href="#DejaVuSans-6c"/>
      <use x="233.0078125" xlink:href="#DejaVuSans-69"/>
      <use x="260.791015625" xlink:href="#DejaVuSans-74"/>
      <use x="300.0" xlink:href="#DejaVuSans-79"/>
      <use x="359.1796875" xlink:href="#DejaVuSans-23"/>
      <use x="442.96875" xlink:href="#DejaVuSans-31"/>
      <use x="506.591796875" xlink:href="#DejaVuSans-35"/>
     </g>
    </g>
    <g id="line2d_57">
     <path d="
M492.376 205.443
L512.536 205.443" style="fill:none;stroke:#008000;stroke-linecap:square;"/>
    </g>
    <g id="line2d_58"/>
    <g id="text_24">
     <!-- locality#2 -->
     <g transform="translate(528.375625 210.4835)scale(0.144 -0.144)">
      <use xlink:href="#DejaVuSans-6c"/>
      <use x="27.783203125" xlink:href="#DejaVuSans-6f"/>
      <use x="88.96484375" xlink:href="#DejaVuSans-63"/>
      <use x="143.9453125" xlink:href="#DejaVuSans-61"/>
      <use x="205.224609375" xlink:href="#DejaVuSans-6c"/>
      <use x="233.0078125" xlink:href="#DejaVuSans-69"/>
      <use x="260.791015625" xlink:href="#DejaVuSans-74"/>
      <use x="300.0" xlink:href="#DejaVuSans-79"/>
      <use x="359.1796875" xlink:href="#DejaVuSans-23"/>
      <use x="442.96875" xlink:href="#DejaVuSans-32"/>
     </g>
    </g>
    <g id="line2d_59">
     <path d="
M492.376 226.58
L512.536 226.58" style="fill:none;stroke:#ff0000;stroke-linecap:square;"/>
    </g>
    <g id="line2d_60"/>
    <g id="text_25">
     <!-- locality#3 -->
     <g transform="translate(528.375625 231.62)scale(0.144 -0.144)">
      <use xlink:href="#DejaVuSans-6c"/>
      <use x="27.783203125" xlink:href="#DejaVuSans-6f"/>
      <use x="88.96484375" xlink:href="#DejaVuSans-63"/>
      <use x="143.9453125" xlink:href="#DejaVuSans-61"/>
      <use x="205.224609375" xlink:href="#DejaVuSans-6c"/>
      <use x="233.0078125" xlink:href="#DejaVuSans-69"/>
      <use x="260.791015625" xlink:href="#DejaVuSans-74"/>
      <use x="300.0" xlink:href="#DejaVuSans-79"/>
      <use x="359.1796875" xlink:href="#DejaVuSans-23"/>
      <use x="442.96875" xlink:href="#DejaVuSans-33"/>
     </g>
    </g>
    <g id="line2d_61">
     <path d="
M492.376 247.716
L512.536 247.716" style="fill:none;stroke:#00bfbf;stroke-linecap:square;"/>
    </g>
    <g id="line2d_62"/>
    <g id="text_26">
     <!-- locality#4 -->
     <g transform="translate(528.375625 252.7565)scale(0.144 -0.144)">
      <use xlink:href="#DejaVuSans-6c"/>
      <use x="27.783203125" xlink:href="#DejaVuSans-6f"/>
      <use x="88.96484375" xlink:href="#DejaVuSans-63"/>
      <use x="143.9453125" xlink:href="#DejaVuSans-61"/>
      <use x="205.224609375" xlink:href="#DejaVuSans-6c"/>
      <use x="233.0078125" xlink:href="#DejaVuSans-69"/>
      <use x="260.791015625" xlink:href="#DejaVuSans-74"/>
      <use x="300.0" xlink:href="#DejaVuSans-79"/>
      <use x="359.1796875" xlink:href="#DejaVuSans-23"/>
      <use x="442.96875" xlink:href="#DejaVuSans-34"/>
     </g>
    </g>
    <g id="line2d_63">
     <path d="
M492.376 268.853
L512.536 268.853" style="fill:none;stroke:#bf00bf;stroke-linecap:square;"/>
    </g>
    <g id="line2d_64"/>
    <g id="text_27">
     <!-- locality#5 -->
     <g transform="translate(528.375625 273.893)scale(0.144 -0.144)">
      <use xlink:href="#DejaVuSans-6c"/>
      <use x="27.783203125" xlink:href="#DejaVuSans-6f"/>
      <use x="88.96484375" xlink:href="#DejaVuSans-63"/>
      <use x="143.9453125" xlink:href="#DejaVuSans-61"/>
      <use x="205.224609375" xlink:href="#DejaVuSans-6c"/>
      <use x="233.0078125" xlink:href="#DejaVuSans-69"/>
      <use x="260.791015625" xlink:href="#DejaVuSans-74"/>
      <use x="300.0" xlink:href="#DejaVuSans-79"/>
      <use x="359.1796875" xlink:href="#DejaVuSans-23"/>
      <use x="442.96875" xlink:href="#DejaVuSans-35"/>
     </g>
    </g>
    <g id="line2d_65">
     <path d="
M492.376 289.989
L512.536 289.989" style="fill:none;stroke:#bfbf00;stroke-linecap:square;"/>
    </g>
    <g id="line2d_66"/>
    <g id="text_28">
     <!-- locality#6 -->
     <defs>
      <path d="
M33.0156 40.375
Q26.375 40.375 22.4844 35.8281
Q18.6094 31.2969 18.6094 23.3906
Q18.6094 15.5312 22.4844 10.9531
Q26.375 6.39062 33.0156 6.39062
Q39.6562 6.39062 43.5312 10.9531
Q47.4062 15.5312 47.4062 23.3906
Q47.4062 31.2969 43.5312 35.8281
Q39.6562 40.375 33.0156 40.375
M52.5938 71.2969
L52.5938 62.3125
Q48.875 64.0625 45.0938 64.9844
Q41.3125 65.9219 37.5938 65.9219
Q27.8281 65.9219 22.6719 59.3281
Q17.5312 52.7344 16.7969 39.4062
Q19.6719 43.6562 24.0156 45.9219
Q28.375 48.1875 33.5938 48.1875
Q44.5781 48.1875 50.9531 41.5156
Q57.3281 34.8594 57.3281 23.3906
Q57.3281 12.1562 50.6875 5.35938
Q44.0469 -1.42188 33.0156 -1.42188
Q20.3594 -1.42188 13.6719 8.26562
Q6.98438 17.9688 6.98438 36.375
Q6.98438 53.6562 15.1875 63.9375
Q23.3906 74.2188 37.2031 74.2188
Q40.9219 74.2188 44.7031 73.4844
Q48.4844 72.75 52.5938 71.2969" id="DejaVuSans-36"/>
     </defs>
     <g transform="translate(528.375625 295.0295)scale(0.144 -0.144)">
      <use xlink:href="#DejaVuSans-6c"/>
      <use x="27.783203125" xlink:href="#DejaVuSans-6f"/>
      <use x="88.96484375" xlink:href="#DejaVuSans-63"/>
      <use x="143.9453125" xlink:href="#DejaVuSans-61"/>
      <use x="205.224609375" xlink:href="#DejaVuSans-6c"/>
      <use x="233.0078125" xlink:href="#DejaVuSans-69"/>
      <use x="260.791015625" xlink:href="#DejaVuSans-74"/>
      <use x="300.0" xlink:href="#DejaVuSans-79"/>
      <use x="359.1796875" xlink:href="#DejaVuSans-23"/>
      <use x="442.96875" xlink:href="#DejaVuSans-36"/>
     </g>
    </g>
    <g id="line2d_67">
     <path d="
M492.376 311.126
L512.536 311.126" style="fill:none;stroke:#000000;stroke-linecap:square;"/>
    </g>
    <g id="line2d_68"/>
    <g id="text_29">
     <!-- locality#7 -->
     <defs>
      <path d="
M8.20312 72.9062
L55.0781 72.9062
L55.0781 68.7031
L28.6094 0
L18.3125 0
L43.2188 64.5938
L8.20312 64.5938
z
" id="DejaVuSans-37"/>
     </defs>
     <g transform="translate(528.375625 316.166)scale(0.144 -0.144)">
      <use xlink:href="#DejaVuSans-6c"/>
      <use x="27.783203125" xlink:href="#DejaVuSans-6f"/>
      <use x="88.96484375" xlink:href="#DejaVuSans-63"/>
      <use x="143.9453125" xlink:href="#DejaVuSans-61"/>
      <use x="205.224609375" xlink:href="#DejaVuSans-6c"/>
      <use x="233.0078125" xlink:href="#DejaVuSans-69"/>
      <use x="260.791015625" xlink:href="#DejaVuSans-74"/>
      <use x="300.0" xlink:href="#DejaVuSans-79"/>
      <use x="359.1796875" xlink:href="#DejaVuSans-23"/>
      <use x="442.96875" xlink:href="#DejaVuSans-37"/>
     </g>
    </g>
    <g id="line2d_69">
     <path d="
M492.376 332.262
L512.536 332.262" style="fill:none;stroke:#0000ff;stroke-linecap:square;"/>
    </g>
    <g id="line2d_70"/>
    <g id="text_30">
     <!-- locality#8 -->
     <defs>
      <path d="
M31.7812 34.625
Q24.75 34.625 20.7188 30.8594
Q16.7031 27.0938 16.7031 20.5156
Q16.7031 13.9219 20.7188 10.1562
Q24.75 6.39062 31.7812 6.39062
Q38.8125 6.39062 42.8594 10.1719
Q46.9219 13.9688 46.9219 20.5156
Q46.9219 27.0938 42.8906 30.8594
Q38.875 34.625 31.7812 34.625
M21.9219 38.8125
Q15.5781 40.375 12.0312 44.7188
Q8.5 49.0781 8.5 55.3281
Q8.5 64.0625 14.7188 69.1406
Q20.9531 74.2188 31.7812 74.2188
Q42.6719 74.2188 48.875 69.1406
Q55.0781 64.0625 55.0781 55.3281
Q55.0781 49.0781 51.5312 44.7188
Q48 40.375 41.7031 38.8125
Q48.8281 37.1562 52.7969 32.3125
Q56.7812 27.4844 56.7812 20.5156
Q56.7812 9.90625 50.3125 4.23438
Q43.8438 -1.42188 31.7812 -1.42188
Q19.7344 -1.42188 13.25 4.23438
Q6.78125 9.90625 6.78125 20.5156
Q6.78125 27.4844 10.7812 32.3125
Q14.7969 37.1562 21.9219 38.8125
M18.3125 54.3906
Q18.3125 48.7344 21.8438 45.5625
Q25.3906 42.3906 31.7812 42.3906
Q38.1406 42.3906 41.7188 45.5625
Q45.3125 48.7344 45.3125 54.3906
Q45.3125 60.0625 41.7188 63.2344
Q38.1406 66.4062 31.7812 66.4062
Q25.3906 66.4062 21.8438 63.2344
Q18.3125 60.0625 18.3125 54.3906" id="DejaVuSans-38"/>
     </defs>
     <g transform="translate(528.375625 337.3025)scale(0.144 -0.144)">
      <use xlink:href="#DejaVuSans-6c"/>
      <use x="27.783203125" xlink:href="#DejaVuSans-6f"/>
      <use x="88.96484375" xlink:href="#DejaVuSans-63"/>
      <use x="143.9453125" xlink:href="#DejaVuSans-61"/>
      <use x="205.224609375" xlink:href="#DejaVuSans-6c"/>
      <use x="233.0078125" xlink:href="#DejaVuSans-69"/>
      <use x="260.791015625" xlink:href="#DejaVuSans-74"/>
      <use x="300.0" xlink:href="#DejaVuSans-79"/>
      <use x="359.1796875" xlink:href="#DejaVuSans-23"/>
      <use x="442.96875" xlink:href="#DejaVuSans-38"/>
     </g>
    </g>
    <g id="line2d_71">
     <path d="
M492.376 353.399
L512.536 353.399" style="fill:none;stroke:#008000;stroke-linecap:square;"/>
    </g>
    <g id="line2d_72"/>
    <g id="text_31">
     <!-- locality#9 -->
     <defs>
      <path d="
M10.9844 1.51562
L10.9844 10.5
Q14.7031 8.73438 18.5 7.8125
Q22.3125 6.89062 25.9844 6.89062
Q35.75 6.89062 40.8906 13.4531
Q46.0469 20.0156 46.7812 33.4062
Q43.9531 29.2031 39.5938 26.9531
Q35.25 24.7031 29.9844 24.7031
Q19.0469 24.7031 12.6719 31.3125
Q6.29688 37.9375 6.29688 49.4219
Q6.29688 60.6406 12.9375 67.4219
Q19.5781 74.2188 30.6094 74.2188
Q43.2656 74.2188 49.9219 64.5156
Q56.5938 54.8281 56.5938 36.375
Q56.5938 19.1406 48.4062 8.85938
Q40.2344 -1.42188 26.4219 -1.42188
Q22.7031 -1.42188 18.8906 -0.6875
Q15.0938 0.046875 10.9844 1.51562
M30.6094 32.4219
Q37.25 32.4219 41.125 36.9531
Q45.0156 41.5 45.0156 49.4219
Q45.0156 57.2812 41.125 61.8438
Q37.25 66.4062 30.6094 66.4062
Q23.9688 66.4062 20.0938 61.8438
Q16.2188 57.2812 16.2188 49.4219
Q16.2188 41.5 20.0938 36.9531
Q23.9688 32.4219 30.6094 32.4219" id="DejaVuSans-39"/>
     </defs>
     <g transform="translate(528.375625 358.439)scale(0.144 -0.144)">
      <use xlink:href="#DejaVuSans-6c"/>
      <use x="27.783203125" xlink:href="#DejaVuSans-6f"/>
      <use x="88.96484375" xlink:href="#DejaVuSans-63"/>
      <use x="143.9453125" xlink:href="#DejaVuSans-61"/>
      <use x="205.224609375" xlink:href="#DejaVuSans-6c"/>
      <use x="233.0078125" xlink:href="#DejaVuSans-69"/>
      <use x="260.791015625" xlink:href="#DejaVuSans-74"/>
      <use x="300.0" xlink:href="#DejaVuSans-79"/>
      <use x="359.1796875" xlink:href="#DejaVuSans-23"/>
      <use x="442.96875" xlink:href="#DejaVuSans-39"/>
     </g>
    </g>
   </g>
  </g>
 </g>
 <defs>
  <clipPath id="p2118423672">
   <rect height="345.6" width="446.4" x="28.695625" y="23.14175"/>
  </clipPath>
 </defs>
</svg>
