<?xml version="1.0" encoding="utf-8" standalone="no"?>
<!DOCTYPE svg PUBLIC "-//W3C//DTD SVG 1.1//EN"
  "http://www.w3.org/Graphics/SVG/1.1/DTD/svg11.dtd">
<!-- Created with matplotlib (http://matplotlib.org/) -->
<svg height="408pt" version="1.1" viewBox="0 0 621 408" width="621pt" xmlns="http://www.w3.org/2000/svg" xmlns:xlink="http://www.w3.org/1999/xlink">
 <defs>
  <style type="text/css">
*{stroke-linecap:butt;stroke-linejoin:round;}
  </style>
 </defs>
 <g id="figure_1">
  <g id="patch_1">
   <path d="
M0 408.169
L621.285 408.169
L621.285 0
L0 0
z
" style="fill:#ffffff;"/>
  </g>
  <g id="axes_1">
   <g id="patch_2">
    <path d="
M28.6956 368.742
L475.096 368.742
L475.096 23.1417
L28.6956 23.1417
z
" style="fill:#ffffff;"/>
   </g>
   <g id="line2d_1">
    <path clip-path="url(#p2118423672)" d="
M28.6956 368.742
L30.047 368.374
L32.2993 368.043
L36.053 367.556
L46.1132 365.994
L46.5636 365.885
L89.2066 359.378
L90.1075 359.2
L98.6662 357.828
L100.468 357.578
L103.021 357.179
L104.822 356.847
L105.273 356.724
L112.48 355.592
L112.931 355.493
L115.934 354.983
L116.384 354.858
L122.39 353.96
L122.841 353.843
L125.543 353.448
L127.645 353.069
L131.699 352.456
L137.706 351.515
L138.006 351.402
L151.97 349.174
L152.27 348.989
L199.418 341.558
L201.22 341.261
L201.67 341.149
L205.724 340.652
L206.325 340.549
L222.391 337.938
L222.991 337.811
L226.295 337.332
L239.959 335.343
L240.409 335.217
L255.574 333.112
L259.929 332.581
L267.436 331.621
L284.103 329.369
L286.355 329.06
L296.566 327.627
L299.569 327.231
L319.539 324.882
L331.551 323.446
L333.803 323.155
L371.191 318.577
L376.446 317.989
L385.155 316.908
L392.963 316.081
L401.371 315.087
L410.831 314.128
L415.335 313.626
L417.738 313.327
L422.392 312.691
L475.096 306.412
L475.096 306.412" style="fill:none;stroke:#0000ff;stroke-linecap:square;"/>
   </g>
   <g id="line2d_2">
    <path clip-path="url(#p2118423672)" d="
M28.6956 368.742
L29.8968 368.558
L35.7527 367.808
L38.6056 367.433
L41.3083 367.077
L45.0621 366.571
L49.2664 365.993
L52.2694 365.538
L85.3027 360.779
L88.0054 360.381
L94.7622 359.41
L97.4649 359.027
L101.669 358.434
L107.976 357.529
L109.477 357.308
L119.087 355.902
L120.288 355.7
L123.291 355.296
L130.648 354.242
L145.213 352.062
L147.165 351.781
L149.567 351.418
L169.087 348.59
L169.988 348.444
L171.339 348.227
L175.243 347.657
L179.448 347.008
L184.553 346.283
L186.955 345.939
L192.511 345.124
L194.913 344.765
L196.415 344.543
L222.841 340.606
L224.343 340.382
L229.448 339.637
L240.259 338.049
L243.863 337.517
L308.578 328.243
L312.332 327.77
L317.287 327.115
L332.152 325.085
L335.905 324.562
L340.11 323.992
L348.068 323.002
L352.572 322.402
L356.326 321.942
L364.134 320.931
L374.644 319.671
L377.347 319.341
L424.645 313.47
L426.747 313.143
L430.351 312.671
L439.51 311.507
L456.327 309.345
L475.096 306.798
L475.096 306.798" style="fill:none;stroke:#008000;stroke-linecap:square;"/>
   </g>
   <g id="line2d_3">
    <path clip-path="url(#p2118423672)" d="
M28.6956 368.742
L29.8968 368.283
L32.1491 367.514
L40.8579 364.347
L42.2092 363.817
L47.4645 361.835
L49.867 360.913
L54.3715 359.15
L56.0232 358.483
L60.6779 356.7
L61.5788 356.351
L62.3295 356.031
L63.831 355.469
L66.5338 354.41
L69.3866 353.298
L70.1374 353.01
L71.4888 352.501
L73.1404 351.814
L74.9422 351.117
L94.4619 343.476
L96.1136 342.847
L97.4649 342.312
L99.4169 341.583
L105.273 339.319
L109.777 337.637
L127.045 330.99
L129.447 330.039
L135.754 327.537
L142.661 324.892
L144.462 324.205
L197.916 304.204
L205.874 301.445
L209.628 300.189
L210.829 299.74
L212.481 299.122
L232.451 291.863
L236.055 290.645
L237.406 290.18
L260.379 282.084
L263.382 280.885
L264.884 280.287
L266.085 279.786
L274.493 276.055
L279.448 274.186
L282.752 272.985
L285.304 272.102
L289.058 270.785
L290.109 270.435
L292.061 269.79
L293.563 269.284
L295.064 268.78
L297.467 267.981
L299.419 267.34
L301.971 266.545
L311.431 263.789
L314.284 262.945
L315.785 262.428
L318.488 261.431
L322.992 259.857
L324.794 259.234
L329.299 257.649
L331.851 256.683
L334.554 255.73
L336.656 254.986
L344.013 252.479
L346.866 251.604
L356.026 248.57
L363.233 246.295
L366.236 245.463
L386.656 239.982
L387.708 239.693
L390.41 238.941
L392.062 238.452
L394.464 237.792
L395.966 237.372
L399.72 236.235
L403.173 235.118
L405.876 234.343
L407.978 233.805
L413.534 232.294
L417.438 230.996
L421.041 229.863
L422.693 229.389
L427.798 227.921
L429.45 227.412
L432.152 226.664
L435.906 225.775
L448.369 222.662
L451.071 222.021
L459.78 220.108
L461.732 219.677
L463.384 219.282
L475.096 216.09
L475.096 216.09" style="fill:none;stroke:#ff0000;stroke-linecap:square;"/>
   </g>
   <g id="line2d_4">
    <path clip-path="url(#p2118423672)" d="
M28.6956 368.742
L28.8458 368.603
L28.9959 368.539
L32.8999 367.368
L41.1582 364.613
L42.8099 364.098
L49.2664 361.843
L50.3174 361.419
L52.4195 360.64
L54.6718 359.881
L56.0232 359.409
L58.4256 358.567
L61.4286 357.532
L63.0803 356.916
L66.5338 355.758
L73.1404 353.46
L75.3927 352.727
L87.1045 348.751
L89.5069 347.858
L94.0115 346.327
L150.168 326.836
L151.219 326.463
L153.471 325.723
L155.273 325.04
L157.375 324.325
L159.928 323.456
L168.336 320.562
L169.237 320.205
L172.841 319
L178.096 317.154
L182.3 315.685
L202.871 309.075
L210.979 306.613
L214.733 305.28
L232.151 299.744
L262.932 290.348
L264.583 289.703
L266.535 289.017
L272.241 286.817
L277.046 285.28
L282.151 283.934
L284.554 283.319
L294.464 280.733
L299.419 279.594
L302.271 278.834
L315.935 275.828
L321.04 274.282
L335.905 269.376
L347.317 266.579
L349.419 266.113
L350.62 265.87
L356.326 264.676
L360.08 263.882
L366.686 262.513
L369.539 261.933
L383.503 258.944
L385.305 258.59
L397.167 256.207
L422.543 249.049
L424.645 248.44
L426.296 247.965
L434.254 245.851
L440.561 244.43
L443.113 243.834
L459.029 240.79
L464.135 239.879
L467.438 239.155
L475.096 237.424
L475.096 237.424" style="fill:none;stroke:#00bfbf;stroke-linecap:square;"/>
   </g>
   <g id="line2d_5">
    <path clip-path="url(#p2118423672)" d="
M28.6956 368.742
L30.1971 368.305
L35.1521 366.829
L58.2754 359.494
L58.5757 359.245
L66.0833 356.804
L68.3356 356.125
L70.1374 355.518
L72.8401 354.656
L80.0474 352.361
L81.6991 351.847
L84.1015 351.139
L87.1045 350.167
L88.1556 349.818
L111.279 342.414
L112.931 341.884
L117.585 340.424
L152.721 329.255
L153.922 328.89
L164.432 325.502
L165.634 325.095
L167.586 324.486
L169.988 323.698
L203.172 313.617
L215.934 309.789
L217.436 309.334
L220.439 308.408
L221.79 307.985
L234.253 304.265
L236.205 303.732
L241.16 302.356
L243.112 301.788
L245.214 301.132
L249.718 299.707
L250.769 299.329
L252.421 298.761
L256.325 297.401
L265.184 294.228
L267.286 293.481
L268.638 292.959
L277.797 289.864
L282.301 288.679
L284.554 288.064
L288.608 287.082
L291.31 286.432
L296.115 285.484
L297.467 285.225
L299.869 284.735
L305.875 283.28
L307.527 282.876
L309.779 282.363
L315.785 280.934
L317.887 280.378
L323.142 278.921
L324.344 278.614
L333.503 276.449
L335.755 275.955
L341.161 274.918
L344.464 274.302
L347.467 273.794
L349.419 273.406
L352.122 272.875
L362.182 270.889
L396.266 264.622
L400.771 263.515
L410.681 261.013
L414.134 260.192
L419.69 258.932
L421.642 258.529
L428.098 257.352
L436.957 255.885
L447.918 254.206
L462.032 252.038
L470.291 250.284
L475.096 249.093
L475.096 249.093" style="fill:none;stroke:#bf00bf;stroke-linecap:square;"/>
   </g>
   <g id="line2d_6">
    <path clip-path="url(#p2118423672)" d="
M28.6956 368.742
L30.047 368.472
L32.4494 368.035
L38.1552 366.953
L39.957 366.603
L46.1132 365.382
L55.5727 363.361
L56.6238 363.139
L58.1253 362.841
L71.7891 359.985
L77.7951 358.756
L79.1465 358.493
L80.3477 358.218
L109.627 352.095
L111.429 351.664
L114.132 351.123
L124.492 348.903
L126.444 348.521
L129.447 347.853
L131.399 347.381
L134.252 346.737
L139.207 345.681
L142.06 345.061
L158.577 341.579
L161.279 341.014
L162.931 340.675
L166.685 339.926
L169.387 339.338
L171.189 338.972
L177.646 337.664
L184.553 336.259
L185.904 335.969
L189.808 335.139
L195.063 334.025
L199.718 333.105
L202.871 332.539
L204.973 332.187
L243.112 324.747
L246.265 324.116
L249.418 323.516
L275.394 318.717
L277.496 318.354
L281.25 317.715
L284.704 317.156
L287.106 316.791
L295.965 315.573
L299.719 315.12
L301.821 314.758
L321.791 312.135
L331.851 311.302
L333.953 311.095
L346.116 309.835
L350.02 309.431
L351.071 309.273
L372.092 306.795
L420.29 301.97
L439.059 300.026
L447.618 299.36
L450.471 299.144
L461.732 298.074
L467.438 297.38
L471.792 296.821
L475.096 296.446
L475.096 296.446" style="fill:none;stroke:#bfbf00;stroke-linecap:square;"/>
   </g>
   <g id="line2d_7">
    <path clip-path="url(#p2118423672)" d="
M28.6956 368.741
L29.1461 368.587
L33.2002 367.912
L45.2123 365.995
L47.3144 365.609
L195.964 340.463
L197.766 340.204
L202.721 339.474
L208.577 338.693
L222.541 336.455
L224.793 336.086
L229.598 335.347
L233.802 334.711
L235.754 334.419
L252.721 332.127
L278.698 329.06
L286.355 328.068
L295.064 327.115
L301.671 326.472
L309.329 325.664
L321.941 324.47
L324.043 324.3
L328.998 323.895
L335.004 323.378
L341.911 322.817
L343.863 322.641
L374.194 319.99
L378.398 319.664
L381.101 319.46
L390.861 318.856
L394.464 318.626
L413.383 317.297
L426.597 316.09
L436.957 315.236
L453.474 314.109
L456.927 313.813
L471.192 312.507
L474.945 312.146
L475.096 312.134
L475.096 312.134" style="fill:none;stroke:#000000;stroke-linecap:square;"/>
   </g>
   <g id="line2d_8">
    <path clip-path="url(#p2118423672)" d="
M28.6956 368.742
L29.5965 368.587
L35.1521 367.882
L40.2573 367.143
L42.5096 366.805
L45.5126 366.364
L49.4165 365.772
L50.0171 365.651
L58.2754 364.403
L64.5818 363.389
L68.9362 362.753
L71.3386 362.371
L84.7021 360.371
L86.6541 360.057
L88.9063 359.722
L97.6151 358.401
L102.72 357.634
L112.48 356.165
L119.537 355.108
L126.895 353.986
L128.546 353.723
L140.258 351.896
L146.264 350.984
L152.721 349.979
L154.673 349.675
L163.081 348.41
L167.435 347.768
L200.919 342.755
L214.433 340.888
L218.487 340.273
L236.655 337.685
L240.559 337.167
L243.712 336.763
L254.523 335.43
L261.881 334.608
L276.295 332.825
L281.25 332.094
L287.857 331.195
L304.974 329.255
L313.533 328.427
L317.437 328.055
L335.305 326.401
L352.572 324.687
L357.227 324.133
L370.891 322.764
L385.605 321.472
L388.909 321.207
L410.531 319.573
L417.137 319.091
L420.741 318.737
L440.561 316.998
L450.471 316.192
L467.738 314.551
L473.444 313.98
L475.096 313.826
L475.096 313.826" style="fill:none;stroke:#0000ff;stroke-linecap:square;"/>
   </g>
   <g id="line2d_9">
    <path clip-path="url(#p2118423672)" d="
M28.6956 368.742
L30.4974 368.425
L35.4524 367.649
L38.9059 367.034
L52.2694 364.576
L53.4706 364.365
L56.0232 363.887
L68.4857 361.657
L71.3386 361.157
L78.2456 359.919
L80.0474 359.617
L83.3507 359.032
L85.9033 358.563
L108.126 354.559
L147.015 347.478
L149.267 347.044
L159.327 345.234
L191.91 339.321
L193.111 339.09
L195.514 338.688
L196.865 338.445
L201.22 337.623
L205.874 336.78
L208.577 336.257
L216.835 334.675
L218.036 334.434
L324.043 315.39
L327.797 314.716
L333.052 313.755
L340.41 312.435
L349.419 310.834
L351.221 310.512
L369.389 307.578
L386.356 304.465
L395.966 302.897
L401.221 302.059
L422.843 298.444
L426.747 297.695
L431.852 296.676
L435.756 295.936
L439.059 295.398
L448.819 293.702
L456.327 292.442
L462.333 291.476
L467.138 290.569
L471.192 289.715
L475.096 288.865
L475.096 288.865" style="fill:none;stroke:#008000;stroke-linecap:square;"/>
   </g>
   <g id="line2d_10">
    <path clip-path="url(#p2118423672)" d="
M28.6956 368.742
L29.5965 368.585
L35.002 367.67
L37.7047 367.196
L42.5096 366.286
L44.6117 365.864
L55.1223 363.743
L59.9271 362.778
L62.9301 362.161
L68.6359 361.055
L94.3118 355.87
L96.1136 355.5
L118.186 351.001
L121.339 350.385
L147.616 345.144
L149.117 344.832
L153.772 343.896
L157.375 343.134
L164.132 341.818
L165.934 341.429
L169.087 340.768
L172.09 340.163
L175.544 339.482
L179.147 338.79
L217.136 331.115
L219.238 330.685
L220.889 330.34
L226.745 329.159
L229.448 328.596
L281.4 318.126
L291.31 316.127
L293.863 315.598
L299.419 314.567
L301.37 314.16
L306.926 313.077
L310.98 312.32
L322.842 310.111
L327.046 309.319
L333.203 308.156
L335.305 307.768
L343.413 306.098
L351.221 304.688
L354.824 304.011
L365.185 302.218
L368.488 301.65
L380.65 299.474
L383.053 299.017
L397.618 296.509
L470.441 283.336
L471.942 283.024
L475.096 282.373
L475.096 282.373" style="fill:none;stroke:#ff0000;stroke-linecap:square;"/>
   </g>
   <g id="line2d_11">
    <path clip-path="url(#p2118423672)" d="
M28.6956 368.742
L29.7467 368.477
L40.2573 366.011
L43.8609 365.034
L46.5636 364.346
L47.4645 364.109
L49.2664 363.638
L50.3174 363.345
L100.318 350.262
L102.57 349.671
L107.525 348.411
L109.928 347.766
L115.633 346.248
L116.684 345.988
L119.087 345.35
L122.69 344.411
L147.616 337.844
L151.519 336.783
L152.57 336.524
L154.222 336.035
L157.525 335.196
L172.691 331.14
L174.643 330.675
L246.115 311.571
L249.568 310.499
L270.439 304.859
L280.199 301.712
L291.911 298.04
L297.467 296.417
L300.169 295.723
L312.181 292.613
L317.587 291.272
L327.797 288.411
L328.998 288.084
L350.92 282.402
L354.224 281.401
L356.176 280.865
L364.284 278.577
L366.386 277.994
L371.641 276.548
L375.395 275.542
L389.509 271.872
L399.72 269.291
L407.528 267.423
L418.188 264.284
L420.891 263.243
L424.044 262.032
L428.098 260.502
L434.104 259.062
L437.858 258.117
L453.174 254.302
L462.933 251.319
L466.687 250.091
L473.594 247.656
L475.096 247.123
L475.096 247.123" style="fill:none;stroke:#00bfbf;stroke-linecap:square;"/>
   </g>
   <g id="line2d_12">
    <path clip-path="url(#p2118423672)" d="
M28.6956 368.742
L29.5965 368.479
L38.4555 365.957
L43.8609 364.17
L45.6627 363.615
L51.6688 361.603
L53.9211 360.891
L55.873 360.241
L131.699 336.007
L133.351 335.463
L140.558 333.174
L141.609 332.814
L142.961 332.384
L155.574 328.364
L202.421 313.491
L207.826 311.847
L210.379 310.973
L213.382 310.053
L214.433 309.669
L227.946 305.425
L230.049 304.757
L233.352 303.706
L235.154 303.138
L238.757 301.927
L242.061 300.86
L243.412 300.402
L248.217 298.878
L249.869 298.297
L254.673 296.633
L265.334 292.795
L272.091 290.572
L275.244 289.521
L285.304 286.082
L286.656 285.547
L289.058 284.562
L292.061 283.38
L293.863 282.671
L298.067 281.081
L299.118 280.653
L301.37 279.673
L309.028 275.925
L315.485 272.385
L317.287 271.752
L323.142 269.725
L326.446 268.618
L335.755 265.267
L353.473 258.196
L362.182 254.063
L369.389 250.174
L370.891 249.241
L376.897 245.283
L384.104 240.019
L386.807 237.937
L388.158 236.894
L389.509 235.83
L393.563 232.816
L394.915 231.779
L397.167 230.109
L418.489 223.026
L424.194 220.929
L425.396 220.507
L427.798 219.613
L428.999 219.142
L432.152 217.906
L435.456 216.662
L438.759 215.453
L449.72 210.631
L452.423 209.262
L454.975 207.777
L464.735 201.215
L465.786 200.34
L467.288 199.129
L474.495 192.75
L475.096 192.213
L475.096 192.213" style="fill:none;stroke:#bf00bf;stroke-linecap:square;"/>
   </g>
   <g id="line2d_13">
    <path clip-path="url(#p2118423672)" d="
M28.6956 368.742
L29.4464 368.462
L31.5485 367.81
L38.6056 365.33
L41.6086 364.273
L42.2092 364.043
L44.7618 363.128
L45.6627 362.773
L62.3295 356.427
L64.2815 355.734
L65.6329 355.225
L71.4888 353.133
L72.8401 352.605
L74.4918 352.004
L78.3957 350.547
L80.648 349.682
L83.8012 348.62
L93.561 344.975
L95.2127 344.405
L152.27 323.306
L153.922 322.681
L156.324 321.789
L157.525 321.343
L159.027 320.764
L163.231 319.255
L164.282 318.85
L165.784 318.282
L169.387 316.905
L172.541 315.774
L173.742 315.359
L196.415 306.98
L197.616 306.537
L203.021 304.576
L204.673 303.966
L215.934 299.636
L218.487 298.665
L219.688 298.218
L239.808 290.842
L241.31 290.271
L242.811 289.685
L246.715 288.151
L248.067 287.563
L253.322 285.295
L254.824 284.617
L257.676 283.28
L260.679 281.906
L264.433 280.214
L275.244 275.152
L276.596 274.596
L289.208 269.656
L290.71 269.059
L294.464 267.611
L296.866 266.669
L298.668 266.02
L299.869 265.537
L301.521 264.913
L305.575 263.339
L310.83 261.242
L313.833 260.065
L315.935 259.166
L318.338 258.111
L330.95 252.495
L333.052 251.576
L336.206 250.321
L337.557 249.788
L346.716 246.258
L348.068 245.778
L356.326 242.618
L359.629 241.359
L361.581 240.557
L397.167 226.681
L401.521 224.438
L402.573 223.853
L408.278 220.464
L414.434 216.524
L416.837 215.583
L420.591 214.27
L422.993 213.454
L429.6 211.183
L436.206 208.903
L448.068 204.812
L454.225 202.071
L456.177 201.112
L462.183 197.68
L465.186 195.769
L467.738 193.732
L473.444 188.867
L475.096 187.364
L475.096 187.364" style="fill:none;stroke:#bfbf00;stroke-linecap:square;"/>
   </g>
   <g id="line2d_14">
    <path clip-path="url(#p2118423672)" d="
M28.6956 368.742
L29.8968 368.316
L33.6506 367.009
L35.7527 366.266
L46.1132 362.27
L47.915 361.546
L52.7198 359.619
L54.6718 358.801
L56.0232 358.259
L57.6748 357.582
L65.6329 354.442
L68.9362 353.141
L82.6 347.735
L85.0024 346.861
L89.9574 344.791
L99.4169 341.119
L102.12 340.051
L103.621 339.435
L106.024 338.489
L107.075 338.07
L110.078 336.847
L113.081 335.575
L114.582 334.994
L118.937 333.277
L120.588 332.705
L121.489 332.326
L122.991 331.72
L125.093 330.896
L126.444 330.385
L129.297 329.264
L145.513 322.783
L146.715 322.305
L147.616 321.934
L148.516 321.565
L151.369 320.416
L156.324 318.443
L157.075 318.145
L159.628 317.154
L160.529 316.78
L166.084 314.583
L166.985 314.257
L168.186 313.803
L169.387 313.292
L171.339 312.524
L173.892 311.456
L181.7 308.259
L182.901 307.788
L183.802 307.448
L184.853 307.017
L193.562 303.6
L197.466 301.931
L198.367 301.556
L200.769 300.561
L201.67 300.208
L204.523 299.062
L216.985 293.633
L218.487 293.034
L221.94 291.648
L223.292 291.115
L229.748 288.684
L238.307 285.137
L245.514 281.715
L250.469 279.648
L260.379 275.166
L262.631 274.091
L265.184 272.877
L269.388 270.609
L274.493 267.169
L283.502 260.299
L289.659 254.856
L292.361 252.164
L294.914 249.575
L298.518 245.797
L299.419 244.927
L300.77 244.395
L302.872 243.595
L313.983 239.196
L315.184 238.701
L318.187 237.341
L319.239 236.832
L327.497 232.487
L335.755 227.224
L337.257 226.184
L339.058 224.801
L340.71 223.566
L342.962 221.771
L348.368 217.247
L352.572 212.963
L354.374 211.097
L360.38 204.684
L365.785 198.466
L372.542 190.253
L375.095 186.967
L381.401 178.138
L382.152 176.953
L383.053 175.626
L385.005 172.745
L387.708 168.658
L388.608 167.122
L389.359 165.99
L398.969 151.378
L400.47 150.739
L402.122 150.012
L404.975 148.817
L405.726 148.5
L408.278 147.501
L418.489 143.397
L420.891 142.343
L421.792 142.009
L424.495 140.941
L427.798 139.609
L432.453 137.563
L434.555 136.524
L439.81 133.865
L447.768 128.977
L449.27 127.931
L451.522 126.248
L452.423 125.55
L458.429 120.223
L461.432 117.24
L464.585 114.086
L466.687 113.271
L475.096 110.074
L475.096 110.074" style="fill:none;stroke:#000000;stroke-linecap:square;"/>
   </g>
   <g id="line2d_15">
    <path clip-path="url(#p2118423672)" d="
M28.6956 368.742
L29.5965 368.353
L42.2092 362.704
L43.1102 362.246
L45.2123 361.278
L48.5156 359.689
L49.2664 359.331
L50.918 358.532
L53.7709 357.163
L56.3235 355.919
L59.1764 354.588
L64.1313 352.183
L65.4827 351.566
L68.1854 350.303
L69.2365 349.772
L70.4377 349.231
L75.5429 346.824
L76.1435 346.496
L80.648 344.349
L81.2486 344.091
L81.5489 343.806
L82.2997 343.436
L84.7021 342.341
L87.555 340.979
L88.1556 340.642
L90.558 339.438
L91.1586 339.109
L159.628 306.297
L161.279 305.467
L168.186 302.215
L169.087 301.717
L191.46 291.002
L192.21 290.638
L195.364 289.09
L196.865 288.349
L203.021 285.577
L205.424 284.437
L207.075 283.648
L209.628 282.499
L210.529 282.083
L214.133 280.264
L215.334 279.566
L216.235 279.053
L217.586 278.264
L218.337 277.782
L222.091 275.197
L222.841 274.705
L236.055 268.609
L236.805 268.292
L237.706 267.84
L239.959 266.736
L244.313 264.405
L248.067 261.923
L250.319 260.197
L254.673 256.322
L256.625 254.334
L257.676 253.213
L259.779 250.879
L264.884 244.521
L265.935 243.221
L276.445 237.755
L280.049 236.152
L281.701 235.398
L283.653 234.422
L287.557 232.307
L289.058 231.377
L298.217 224.879
L299.419 223.823
L306.325 216.028
L312.332 208.287
L316.836 201.766
L325.545 187.153
L327.497 183.6
L331.551 176.047
L333.653 172.337
L337.407 165.952
L340.11 161.484
L343.263 156.566
L347.617 150.01
L348.068 149.372
L351.972 147.559
L354.824 146.327
L359.329 144.478
L364.734 142.318
L369.389 140.02
L370.74 139.263
L372.542 138.23
L377.047 135.199
L381.251 132.172
L384.254 129.822
L386.356 128.119
L393.263 121.876
L398.518 115.738
L399.419 114.411
L401.672 110.81
L403.924 107.066
L408.879 98.5931
L409.329 97.6185
L410.681 95.2633
L411.732 93.359
L413.233 90.5113
L418.188 81.7953
L424.194 73.1985
L427.047 69.2396
L432.152 62.3069
L434.254 59.6043
L436.206 57.1522
L444.014 47.4461
L447.468 43.3403
L449.42 41.1631
L451.522 38.8424
L454.525 35.6369
L458.879 34.0161
L467.288 30.9005
L470.591 29.4559
L472.543 28.5556
L475.096 27.3736
L475.096 27.3736" style="fill:none;stroke:#0000ff;stroke-linecap:square;"/>
   </g>
   <g id="line2d_16">
    <path clip-path="url(#p2118423672)" d="
M28.6956 368.742
L30.4974 367.965
L31.6987 367.448
L36.3533 365.668
L37.1041 365.378
L38.3053 364.86
L39.6567 364.305
L42.5096 363.074
L43.8609 362.52
L45.0621 361.996
L46.5636 361.304
L47.0141 361.073
L55.7229 357.205
L57.2244 356.546
L59.1764 355.625
L60.0773 355.21
L61.4286 354.605
L62.9301 353.932
L65.6329 352.757
L79.4468 346.68
L80.648 346.152
L83.5009 344.974
L109.027 333.773
L110.228 333.275
L111.429 332.707
L112.78 332.128
L124.042 327.248
L125.994 326.427
L179.147 302.874
L181.4 301.906
L182 301.601
L184.102 300.672
L186.054 299.852
L188.907 298.611
L190.559 297.844
L193.262 296.665
L194.613 296.09
L200.018 293.633
L203.322 291.909
L205.274 290.625
L207.526 288.986
L209.027 287.932
L213.081 286.323
L217.286 284.565
L219.088 283.807
L221.34 282.907
L223.592 281.971
L237.406 276.068
L242.962 272.754
L246.265 270.006
L248.968 267.384
L251.07 265.099
L253.172 262.648
L262.631 249.66
L267.286 242.541
L273.592 231.917
L274.794 229.883
L275.244 229.599
L284.103 226.016
L287.406 224.768
L294.764 221.981
L300.47 219.884
L301.971 219.234
L303.022 218.718
L307.377 216.263
L311.581 213.399
L315.785 209.999
L317.587 208.252
L319.239 206.531
L322.091 203.35
L328.398 195.631
L328.698 195.347
L340.11 190.607
L342.962 189.576
L345.815 188.579
L348.218 187.801
L350.17 186.973
L354.674 185.093
L357.527 183.763
L360.68 182.087
L364.734 179.683
L367.888 177.704
L368.939 176.963
L371.491 174.902
L373.293 173.429
L374.494 172.396
L375.846 171.161
L378.248 168.804
L379.299 167.762
L381.101 165.831
L382.152 164.585
L383.053 163.583
L384.254 162.135
L386.206 159.678
L387.708 157.682
L388.759 156.184
L391.611 151.854
L396.416 143.91
L398.669 139.891
L401.521 135.536
L407.828 126.44
L410.681 122.486
L411.281 121.653
L416.987 114.145
L423.444 111.731
L427.648 110.261
L435.005 107.567
L437.257 106.926
L438.909 106.378
L443.714 104.831
L444.915 104.377
L447.618 103.283
L449.87 102.345
L455.576 99.3362
L457.228 98.1646
L460.981 95.1769
L465.636 90.2607
L472.393 81.0557
L475.096 77.0865
L475.096 77.0865" style="fill:none;stroke:#008000;stroke-linecap:square;"/>
   </g>
   <g id="patch_3">
    <path d="
M28.6956 23.1417
L475.096 23.1417" style="fill:none;stroke:#000000;stroke-linecap:square;stroke-linejoin:miter;"/>
   </g>
   <g id="patch_4">
    <path d="
M475.096 368.742
L475.096 23.1417" style="fill:none;stroke:#000000;stroke-linecap:square;stroke-linejoin:miter;"/>
   </g>
   <g id="patch_5">
    <path d="
M28.6956 368.742
L475.096 368.742" style="fill:none;stroke:#000000;stroke-linecap:square;stroke-linejoin:miter;"/>
   </g>
   <g id="patch_6">
    <path d="
M28.6956 368.742
L28.6956 23.1417" style="fill:none;stroke:#000000;stroke-linecap:square;stroke-linejoin:miter;"/>
   </g>
   <g id="matplotlib.axis_1">
    <g id="xtick_1">
     <g id="line2d_17">
      <defs>
       <path d="
M0 0
L0 -4" id="m93b0483c22" style="stroke:#000000;stroke-width:0.5;"/>
      </defs>
      <g>
       <use style="stroke:#000000;stroke-width:0.5;" x="28.695625" xlink:href="#m93b0483c22" y="368.74175"/>
      </g>
     </g>
     <g id="line2d_18">
      <defs>
       <path d="
M0 0
L0 4" id="m741efc42ff" style="stroke:#000000;stroke-width:0.5;"/>
      </defs>
      <g>
       <use style="stroke:#000000;stroke-width:0.5;" x="28.695625" xlink:href="#m741efc42ff" y="23.14175"/>
      </g>
     </g>
     <g id="text_1">
      <!-- 0 -->
      <defs>
       <path d="
M31.7812 66.4062
Q24.1719 66.4062 20.3281 58.9062
Q16.5 51.4219 16.5 36.375
Q16.5 21.3906 20.3281 13.8906
Q24.1719 6.39062 31.7812 6.39062
Q39.4531 6.39062 43.2812 13.8906
Q47.125 21.3906 47.125 36.375
Q47.125 51.4219 43.2812 58.9062
Q39.4531 66.4062 31.7812 66.4062
M31.7812 74.2188
Q44.0469 74.2188 50.5156 64.5156
Q56.9844 54.8281 56.9844 36.375
Q56.9844 17.9688 50.5156 8.26562
Q44.0469 -1.42188 31.7812 -1.42188
Q19.5312 -1.42188 13.0625 8.26562
Q6.59375 17.9688 6.59375 36.375
Q6.59375 54.8281 13.0625 64.5156
Q19.5312 74.2188 31.7812 74.2188" id="DejaVuSans-30"/>
      </defs>
      <g transform="translate(25.6721875 381.859875)scale(0.12 -0.12)">
       <use xlink:href="#DejaVuSans-30"/>
      </g>
     </g>
    </g>
    <g id="xtick_2">
     <g id="line2d_19">
      <g>
       <use style="stroke:#000000;stroke-width:0.5;" x="103.77130613" xlink:href="#m93b0483c22" y="368.74175"/>
      </g>
     </g>
     <g id="line2d_20">
      <g>
       <use style="stroke:#000000;stroke-width:0.5;" x="103.77130613" xlink:href="#m741efc42ff" y="23.14175"/>
      </g>
     </g>
     <g id="text_2">
      <!-- 500 -->
      <defs>
       <path d="
M10.7969 72.9062
L49.5156 72.9062
L49.5156 64.5938
L19.8281 64.5938
L19.8281 46.7344
Q21.9688 47.4688 24.1094 47.8281
Q26.2656 48.1875 28.4219 48.1875
Q40.625 48.1875 47.75 41.5
Q54.8906 34.8125 54.8906 23.3906
Q54.8906 11.625 47.5625 5.09375
Q40.2344 -1.42188 26.9062 -1.42188
Q22.3125 -1.42188 17.5469 -0.640625
Q12.7969 0.140625 7.71875 1.70312
L7.71875 11.625
Q12.1094 9.23438 16.7969 8.0625
Q21.4844 6.89062 26.7031 6.89062
Q35.1562 6.89062 40.0781 11.3281
Q45.0156 15.7656 45.0156 23.3906
Q45.0156 31 40.0781 35.4375
Q35.1562 39.8906 26.7031 39.8906
Q22.75 39.8906 18.8125 39.0156
Q14.8906 38.1406 10.7969 36.2812
z
" id="DejaVuSans-35"/>
      </defs>
      <g transform="translate(93.1803686302 381.859875)scale(0.12 -0.12)">
       <use xlink:href="#DejaVuSans-35"/>
       <use x="63.623046875" xlink:href="#DejaVuSans-30"/>
       <use x="127.24609375" xlink:href="#DejaVuSans-30"/>
      </g>
     </g>
    </g>
    <g id="xtick_3">
     <g id="line2d_21">
      <g>
       <use style="stroke:#000000;stroke-width:0.5;" x="178.84698726" xlink:href="#m93b0483c22" y="368.74175"/>
      </g>
     </g>
     <g id="line2d_22">
      <g>
       <use style="stroke:#000000;stroke-width:0.5;" x="178.84698726" xlink:href="#m741efc42ff" y="23.14175"/>
      </g>
     </g>
     <g id="text_3">
      <!-- 1000 -->
      <defs>
       <path d="
M12.4062 8.29688
L28.5156 8.29688
L28.5156 63.9219
L10.9844 60.4062
L10.9844 69.3906
L28.4219 72.9062
L38.2812 72.9062
L38.2812 8.29688
L54.3906 8.29688
L54.3906 0
L12.4062 0
z
" id="DejaVuSans-31"/>
      </defs>
      <g transform="translate(164.63448726 381.859875)scale(0.12 -0.12)">
       <use xlink:href="#DejaVuSans-31"/>
       <use x="63.623046875" xlink:href="#DejaVuSans-30"/>
       <use x="127.24609375" xlink:href="#DejaVuSans-30"/>
       <use x="190.869140625" xlink:href="#DejaVuSans-30"/>
      </g>
     </g>
    </g>
    <g id="xtick_4">
     <g id="line2d_23">
      <g>
       <use style="stroke:#000000;stroke-width:0.5;" x="253.922668391" xlink:href="#m93b0483c22" y="368.74175"/>
      </g>
     </g>
     <g id="line2d_24">
      <g>
       <use style="stroke:#000000;stroke-width:0.5;" x="253.922668391" xlink:href="#m741efc42ff" y="23.14175"/>
      </g>
     </g>
     <g id="text_4">
      <!-- 1500 -->
      <g transform="translate(239.710168391 381.859875)scale(0.12 -0.12)">
       <use xlink:href="#DejaVuSans-31"/>
       <use x="63.623046875" xlink:href="#DejaVuSans-35"/>
       <use x="127.24609375" xlink:href="#DejaVuSans-30"/>
       <use x="190.869140625" xlink:href="#DejaVuSans-30"/>
      </g>
     </g>
    </g>
    <g id="xtick_5">
     <g id="line2d_25">
      <g>
       <use style="stroke:#000000;stroke-width:0.5;" x="328.998349521" xlink:href="#m93b0483c22" y="368.74175"/>
      </g>
     </g>
     <g id="line2d_26">
      <g>
       <use style="stroke:#000000;stroke-width:0.5;" x="328.998349521" xlink:href="#m741efc42ff" y="23.14175"/>
      </g>
     </g>
     <g id="text_5">
      <!-- 2000 -->
      <defs>
       <path d="
M19.1875 8.29688
L53.6094 8.29688
L53.6094 0
L7.32812 0
L7.32812 8.29688
Q12.9375 14.1094 22.625 23.8906
Q32.3281 33.6875 34.8125 36.5312
Q39.5469 41.8438 41.4219 45.5312
Q43.3125 49.2188 43.3125 52.7812
Q43.3125 58.5938 39.2344 62.25
Q35.1562 65.9219 28.6094 65.9219
Q23.9688 65.9219 18.8125 64.3125
Q13.6719 62.7031 7.8125 59.4219
L7.8125 69.3906
Q13.7656 71.7812 18.9375 73
Q24.125 74.2188 28.4219 74.2188
Q39.75 74.2188 46.4844 68.5469
Q53.2188 62.8906 53.2188 53.4219
Q53.2188 48.9219 51.5312 44.8906
Q49.8594 40.875 45.4062 35.4062
Q44.1875 33.9844 37.6406 27.2188
Q31.1094 20.4531 19.1875 8.29688" id="DejaVuSans-32"/>
      </defs>
      <g transform="translate(314.566474521 381.859875)scale(0.12 -0.12)">
       <use xlink:href="#DejaVuSans-32"/>
       <use x="63.623046875" xlink:href="#DejaVuSans-30"/>
       <use x="127.24609375" xlink:href="#DejaVuSans-30"/>
       <use x="190.869140625" xlink:href="#DejaVuSans-30"/>
      </g>
     </g>
    </g>
    <g id="xtick_6">
     <g id="line2d_27">
      <g>
       <use style="stroke:#000000;stroke-width:0.5;" x="404.074030651" xlink:href="#m93b0483c22" y="368.74175"/>
      </g>
     </g>
     <g id="line2d_28">
      <g>
       <use style="stroke:#000000;stroke-width:0.5;" x="404.074030651" xlink:href="#m741efc42ff" y="23.14175"/>
      </g>
     </g>
     <g id="text_6">
      <!-- 2500 -->
      <g transform="translate(389.642155651 381.859875)scale(0.12 -0.12)">
       <use xlink:href="#DejaVuSans-32"/>
       <use x="63.623046875" xlink:href="#DejaVuSans-35"/>
       <use x="127.24609375" xlink:href="#DejaVuSans-30"/>
       <use x="190.869140625" xlink:href="#DejaVuSans-30"/>
      </g>
     </g>
    </g>
    <g id="text_7">
     <!-- time -->
     <defs>
      <path d="
M18.3125 70.2188
L18.3125 54.6875
L36.8125 54.6875
L36.8125 47.7031
L18.3125 47.7031
L18.3125 18.0156
Q18.3125 11.3281 20.1406 9.42188
Q21.9688 7.51562 27.5938 7.51562
L36.8125 7.51562
L36.8125 0
L27.5938 0
Q17.1875 0 13.2344 3.875
Q9.28125 7.76562 9.28125 18.0156
L9.28125 47.7031
L2.6875 47.7031
L2.6875 54.6875
L9.28125 54.6875
L9.28125 70.2188
z
" id="DejaVuSans-74"/>
      <path d="
M52 44.1875
Q55.375 50.25 60.0625 53.125
Q64.75 56 71.0938 56
Q79.6406 56 84.2812 50.0156
Q88.9219 44.0469 88.9219 33.0156
L88.9219 0
L79.8906 0
L79.8906 32.7188
Q79.8906 40.5781 77.0938 44.375
Q74.3125 48.1875 68.6094 48.1875
Q61.625 48.1875 57.5625 43.5469
Q53.5156 38.9219 53.5156 30.9062
L53.5156 0
L44.4844 0
L44.4844 32.7188
Q44.4844 40.625 41.7031 44.4062
Q38.9219 48.1875 33.1094 48.1875
Q26.2188 48.1875 22.1562 43.5312
Q18.1094 38.875 18.1094 30.9062
L18.1094 0
L9.07812 0
L9.07812 54.6875
L18.1094 54.6875
L18.1094 46.1875
Q21.1875 51.2188 25.4844 53.6094
Q29.7812 56 35.6875 56
Q41.6562 56 45.8281 52.9688
Q50 49.9531 52 44.1875" id="DejaVuSans-6d"/>
      <path d="
M56.2031 29.5938
L56.2031 25.2031
L14.8906 25.2031
Q15.4844 15.9219 20.4844 11.0625
Q25.4844 6.20312 34.4219 6.20312
Q39.5938 6.20312 44.4531 7.46875
Q49.3125 8.73438 54.1094 11.2812
L54.1094 2.78125
Q49.2656 0.734375 44.1875 -0.34375
Q39.1094 -1.42188 33.8906 -1.42188
Q20.7969 -1.42188 13.1562 6.1875
Q5.51562 13.8125 5.51562 26.8125
Q5.51562 40.2344 12.7656 48.1094
Q20.0156 56 32.3281 56
Q43.3594 56 49.7812 48.8906
Q56.2031 41.7969 56.2031 29.5938
M47.2188 32.2344
Q47.125 39.5938 43.0938 43.9844
Q39.0625 48.3906 32.4219 48.3906
Q24.9062 48.3906 20.3906 44.1406
Q15.875 39.8906 15.1875 32.1719
z
" id="DejaVuSans-65"/>
      <path d="
M9.42188 54.6875
L18.4062 54.6875
L18.4062 0
L9.42188 0
z

M9.42188 75.9844
L18.4062 75.9844
L18.4062 64.5938
L9.42188 64.5938
z
" id="DejaVuSans-69"/>
     </defs>
     <g transform="translate(238.82125 398.473625)scale(0.12 -0.12)">
      <use xlink:href="#DejaVuSans-74"/>
      <use x="39.208984375" xlink:href="#DejaVuSans-69"/>
      <use x="66.9921875" xlink:href="#DejaVuSans-6d"/>
      <use x="164.404296875" xlink:href="#DejaVuSans-65"/>
     </g>
    </g>
   </g>
   <g id="matplotlib.axis_2">
    <g id="ytick_1">
     <g id="line2d_29">
      <defs>
       <path d="
M0 0
L4 0" id="m728421d6d4" style="stroke:#000000;stroke-width:0.5;"/>
      </defs>
      <g>
       <use style="stroke:#000000;stroke-width:0.5;" x="28.695625" xlink:href="#m728421d6d4" y="368.74175"/>
      </g>
     </g>
     <g id="line2d_30">
      <defs>
       <path d="
M0 0
L-4 0" id="mcb0005524f" style="stroke:#000000;stroke-width:0.5;"/>
      </defs>
      <g>
       <use style="stroke:#000000;stroke-width:0.5;" x="475.095625" xlink:href="#mcb0005524f" y="368.74175"/>
      </g>
     </g>
     <g id="text_8">
      <!-- 0.0 -->
      <defs>
       <path d="
M10.6875 12.4062
L21 12.4062
L21 0
L10.6875 0
z
" id="DejaVuSans-2e"/>
      </defs>
      <g transform="translate(7.2 372.053)scale(0.12 -0.12)">
       <use xlink:href="#DejaVuSans-30"/>
       <use x="63.623046875" xlink:href="#DejaVuSans-2e"/>
       <use x="95.41015625" xlink:href="#DejaVuSans-30"/>
      </g>
     </g>
    </g>
    <g id="ytick_2">
     <g id="line2d_31">
      <g>
       <use style="stroke:#000000;stroke-width:0.5;" x="28.695625" xlink:href="#m728421d6d4" y="282.34175"/>
      </g>
     </g>
     <g id="line2d_32">
      <g>
       <use style="stroke:#000000;stroke-width:0.5;" x="475.095625" xlink:href="#mcb0005524f" y="282.34175"/>
      </g>
     </g>
     <g id="text_9">
      <!-- 0.5 -->
      <g transform="translate(7.45125 285.653)scale(0.12 -0.12)">
       <use xlink:href="#DejaVuSans-30"/>
       <use x="63.623046875" xlink:href="#DejaVuSans-2e"/>
       <use x="95.41015625" xlink:href="#DejaVuSans-35"/>
      </g>
     </g>
    </g>
    <g id="ytick_3">
     <g id="line2d_33">
      <g>
       <use style="stroke:#000000;stroke-width:0.5;" x="28.695625" xlink:href="#m728421d6d4" y="195.94175"/>
      </g>
     </g>
     <g id="line2d_34">
      <g>
       <use style="stroke:#000000;stroke-width:0.5;" x="475.095625" xlink:href="#mcb0005524f" y="195.94175"/>
      </g>
     </g>
     <g id="text_10">
      <!-- 1.0 -->
      <g transform="translate(7.726875 199.253)scale(0.12 -0.12)">
       <use xlink:href="#DejaVuSans-31"/>
       <use x="63.623046875" xlink:href="#DejaVuSans-2e"/>
       <use x="95.41015625" xlink:href="#DejaVuSans-30"/>
      </g>
     </g>
    </g>
    <g id="ytick_4">
     <g id="line2d_35">
      <g>
       <use style="stroke:#000000;stroke-width:0.5;" x="28.695625" xlink:href="#m728421d6d4" y="109.54175"/>
      </g>
     </g>
     <g id="line2d_36">
      <g>
       <use style="stroke:#000000;stroke-width:0.5;" x="475.095625" xlink:href="#mcb0005524f" y="109.54175"/>
      </g>
     </g>
     <g id="text_11">
      <!-- 1.5 -->
      <g transform="translate(7.978125 112.853)scale(0.12 -0.12)">
       <use xlink:href="#DejaVuSans-31"/>
       <use x="63.623046875" xlink:href="#DejaVuSans-2e"/>
       <use x="95.41015625" xlink:href="#DejaVuSans-35"/>
      </g>
     </g>
    </g>
    <g id="ytick_5">
     <g id="line2d_37">
      <g>
       <use style="stroke:#000000;stroke-width:0.5;" x="28.695625" xlink:href="#m728421d6d4" y="23.14175"/>
      </g>
     </g>
     <g id="line2d_38">
      <g>
       <use style="stroke:#000000;stroke-width:0.5;" x="475.095625" xlink:href="#mcb0005524f" y="23.14175"/>
      </g>
     </g>
     <g id="text_12">
      <!-- 2.0 -->
      <g transform="translate(7.288125 26.453)scale(0.12 -0.12)">
       <use xlink:href="#DejaVuSans-32"/>
       <use x="63.623046875" xlink:href="#DejaVuSans-2e"/>
       <use x="95.41015625" xlink:href="#DejaVuSans-30"/>
      </g>
     </g>
    </g>
    <g id="text_13">
     <!-- 1e7 -->
     <defs>
      <path d="
M8.20312 72.9062
L55.0781 72.9062
L55.0781 68.7031
L28.6094 0
L18.3125 0
L43.2188 64.5938
L8.20312 64.5938
z
" id="DejaVuSans-37"/>
     </defs>
     <g transform="translate(28.695625 20.14175)scale(0.12 -0.12)">
      <use xlink:href="#DejaVuSans-31"/>
      <use x="63.623046875" xlink:href="#DejaVuSans-65"/>
      <use x="125.146484375" xlink:href="#DejaVuSans-37"/>
     </g>
    </g>
   </g>
   <g id="text_14">
    <!-- /parcelport/count/mpi/cache-misses -->
    <defs>
     <path d="
M25.3906 72.9062
L33.6875 72.9062
L8.29688 -9.28125
L0 -9.28125
z
" id="DejaVuSans-2f"/>
     <path d="
M4.89062 31.3906
L31.2031 31.3906
L31.2031 23.3906
L4.89062 23.3906
z
" id="DejaVuSans-2d"/>
     <path d="
M30.6094 48.3906
Q23.3906 48.3906 19.1875 42.75
Q14.9844 37.1094 14.9844 27.2969
Q14.9844 17.4844 19.1562 11.8438
Q23.3438 6.20312 30.6094 6.20312
Q37.7969 6.20312 41.9844 11.8594
Q46.1875 17.5312 46.1875 27.2969
Q46.1875 37.0156 41.9844 42.7031
Q37.7969 48.3906 30.6094 48.3906
M30.6094 56
Q42.3281 56 49.0156 48.375
Q55.7188 40.7656 55.7188 27.2969
Q55.7188 13.875 49.0156 6.21875
Q42.3281 -1.42188 30.6094 -1.42188
Q18.8438 -1.42188 12.1719 6.21875
Q5.51562 13.875 5.51562 27.2969
Q5.51562 40.7656 12.1719 48.375
Q18.8438 56 30.6094 56" id="DejaVuSans-6f"/>
     <path d="
M54.8906 33.0156
L54.8906 0
L45.9062 0
L45.9062 32.7188
Q45.9062 40.4844 42.875 44.3281
Q39.8438 48.1875 33.7969 48.1875
Q26.5156 48.1875 22.3125 43.5469
Q18.1094 38.9219 18.1094 30.9062
L18.1094 0
L9.07812 0
L9.07812 54.6875
L18.1094 54.6875
L18.1094 46.1875
Q21.3438 51.125 25.7031 53.5625
Q30.0781 56 35.7969 56
Q45.2188 56 50.0469 50.1719
Q54.8906 44.3438 54.8906 33.0156" id="DejaVuSans-6e"/>
     <path d="
M9.42188 75.9844
L18.4062 75.9844
L18.4062 0
L9.42188 0
z
" id="DejaVuSans-6c"/>
     <path d="
M18.1094 8.20312
L18.1094 -20.7969
L9.07812 -20.7969
L9.07812 54.6875
L18.1094 54.6875
L18.1094 46.3906
Q20.9531 51.2656 25.2656 53.625
Q29.5938 56 35.5938 56
Q45.5625 56 51.7812 48.0938
Q58.0156 40.1875 58.0156 27.2969
Q58.0156 14.4062 51.7812 6.48438
Q45.5625 -1.42188 35.5938 -1.42188
Q29.5938 -1.42188 25.2656 0.953125
Q20.9531 3.32812 18.1094 8.20312
M48.6875 27.2969
Q48.6875 37.2031 44.6094 42.8438
Q40.5312 48.4844 33.4062 48.4844
Q26.2656 48.4844 22.1875 42.8438
Q18.1094 37.2031 18.1094 27.2969
Q18.1094 17.3906 22.1875 11.75
Q26.2656 6.10938 33.4062 6.10938
Q40.5312 6.10938 44.6094 11.75
Q48.6875 17.3906 48.6875 27.2969" id="DejaVuSans-70"/>
     <path d="
M54.8906 33.0156
L54.8906 0
L45.9062 0
L45.9062 32.7188
Q45.9062 40.4844 42.875 44.3281
Q39.8438 48.1875 33.7969 48.1875
Q26.5156 48.1875 22.3125 43.5469
Q18.1094 38.9219 18.1094 30.9062
L18.1094 0
L9.07812 0
L9.07812 75.9844
L18.1094 75.9844
L18.1094 46.1875
Q21.3438 51.125 25.7031 53.5625
Q30.0781 56 35.7969 56
Q45.2188 56 50.0469 50.1719
Q54.8906 44.3438 54.8906 33.0156" id="DejaVuSans-68"/>
     <path d="
M8.5 21.5781
L8.5 54.6875
L17.4844 54.6875
L17.4844 21.9219
Q17.4844 14.1562 20.5 10.2656
Q23.5312 6.39062 29.5938 6.39062
Q36.8594 6.39062 41.0781 11.0312
Q45.3125 15.6719 45.3125 23.6875
L45.3125 54.6875
L54.2969 54.6875
L54.2969 0
L45.3125 0
L45.3125 8.40625
Q42.0469 3.42188 37.7188 1
Q33.4062 -1.42188 27.6875 -1.42188
Q18.2656 -1.42188 13.375 4.4375
Q8.5 10.2969 8.5 21.5781
M31.1094 56
z
" id="DejaVuSans-75"/>
     <path d="
M34.2812 27.4844
Q23.3906 27.4844 19.1875 25
Q14.9844 22.5156 14.9844 16.5
Q14.9844 11.7188 18.1406 8.90625
Q21.2969 6.10938 26.7031 6.10938
Q34.1875 6.10938 38.7031 11.4062
Q43.2188 16.7031 43.2188 25.4844
L43.2188 27.4844
z

M52.2031 31.2031
L52.2031 0
L43.2188 0
L43.2188 8.29688
Q40.1406 3.32812 35.5469 0.953125
Q30.9531 -1.42188 24.3125 -1.42188
Q15.9219 -1.42188 10.9531 3.29688
Q6 8.01562 6 15.9219
Q6 25.1406 12.1719 29.8281
Q18.3594 34.5156 30.6094 34.5156
L43.2188 34.5156
L43.2188 35.4062
Q43.2188 41.6094 39.1406 45
Q35.0625 48.3906 27.6875 48.3906
Q23 48.3906 18.5469 47.2656
Q14.1094 46.1406 10.0156 43.8906
L10.0156 52.2031
Q14.9375 54.1094 19.5781 55.0469
Q24.2188 56 28.6094 56
Q40.4844 56 46.3438 49.8438
Q52.2031 43.7031 52.2031 31.2031" id="DejaVuSans-61"/>
     <path d="
M48.7812 52.5938
L48.7812 44.1875
Q44.9688 46.2969 41.1406 47.3438
Q37.3125 48.3906 33.4062 48.3906
Q24.6562 48.3906 19.8125 42.8438
Q14.9844 37.3125 14.9844 27.2969
Q14.9844 17.2812 19.8125 11.7344
Q24.6562 6.20312 33.4062 6.20312
Q37.3125 6.20312 41.1406 7.25
Q44.9688 8.29688 48.7812 10.4062
L48.7812 2.09375
Q45.0156 0.34375 40.9844 -0.53125
Q36.9688 -1.42188 32.4219 -1.42188
Q20.0625 -1.42188 12.7812 6.34375
Q5.51562 14.1094 5.51562 27.2969
Q5.51562 40.6719 12.8594 48.3281
Q20.2188 56 33.0156 56
Q37.1562 56 41.1094 55.1406
Q45.0625 54.2969 48.7812 52.5938" id="DejaVuSans-63"/>
     <path d="
M44.2812 53.0781
L44.2812 44.5781
Q40.4844 46.5312 36.375 47.5
Q32.2812 48.4844 27.875 48.4844
Q21.1875 48.4844 17.8438 46.4375
Q14.5 44.3906 14.5 40.2812
Q14.5 37.1562 16.8906 35.375
Q19.2812 33.5938 26.5156 31.9844
L29.5938 31.2969
Q39.1562 29.25 43.1875 25.5156
Q47.2188 21.7812 47.2188 15.0938
Q47.2188 7.46875 41.1875 3.01562
Q35.1562 -1.42188 24.6094 -1.42188
Q20.2188 -1.42188 15.4531 -0.5625
Q10.6875 0.296875 5.42188 2
L5.42188 11.2812
Q10.4062 8.6875 15.2344 7.39062
Q20.0625 6.10938 24.8125 6.10938
Q31.1562 6.10938 34.5625 8.28125
Q37.9844 10.4531 37.9844 14.4062
Q37.9844 18.0625 35.5156 20.0156
Q33.0625 21.9688 24.7031 23.7812
L21.5781 24.5156
Q13.2344 26.2656 9.51562 29.9062
Q5.8125 33.5469 5.8125 39.8906
Q5.8125 47.6094 11.2812 51.7969
Q16.75 56 26.8125 56
Q31.7812 56 36.1719 55.2656
Q40.5781 54.5469 44.2812 53.0781" id="DejaVuSans-73"/>
     <path d="
M41.1094 46.2969
Q39.5938 47.1719 37.8125 47.5781
Q36.0312 48 33.8906 48
Q26.2656 48 22.1875 43.0469
Q18.1094 38.0938 18.1094 28.8125
L18.1094 0
L9.07812 0
L9.07812 54.6875
L18.1094 54.6875
L18.1094 46.1875
Q20.9531 51.1719 25.4844 53.5781
Q30.0312 56 36.5312 56
Q37.4531 56 38.5781 55.875
Q39.7031 55.7656 41.0625 55.5156
z
" id="DejaVuSans-72"/>
    </defs>
    <g transform="translate(123.101125 18.14175)scale(0.144 -0.144)">
     <use xlink:href="#DejaVuSans-2f"/>
     <use x="33.69140625" xlink:href="#DejaVuSans-70"/>
     <use x="97.16796875" xlink:href="#DejaVuSans-61"/>
     <use x="158.447265625" xlink:href="#DejaVuSans-72"/>
     <use x="197.310546875" xlink:href="#DejaVuSans-63"/>
     <use x="252.291015625" xlink:href="#DejaVuSans-65"/>
     <use x="313.814453125" xlink:href="#DejaVuSans-6c"/>
     <use x="341.59765625" xlink:href="#DejaVuSans-70"/>
     <use x="405.07421875" xlink:href="#DejaVuSans-6f"/>
     <use x="466.255859375" xlink:href="#DejaVuSans-72"/>
     <use x="507.369140625" xlink:href="#DejaVuSans-74"/>
     <use x="546.578125" xlink:href="#DejaVuSans-2f"/>
     <use x="580.26953125" xlink:href="#DejaVuSans-63"/>
     <use x="635.25" xlink:href="#DejaVuSans-6f"/>
     <use x="696.431640625" xlink:href="#DejaVuSans-75"/>
     <use x="759.810546875" xlink:href="#DejaVuSans-6e"/>
     <use x="823.189453125" xlink:href="#DejaVuSans-74"/>
     <use x="862.3984375" xlink:href="#DejaVuSans-2f"/>
     <use x="896.08984375" xlink:href="#DejaVuSans-6d"/>
     <use x="993.501953125" xlink:href="#DejaVuSans-70"/>
     <use x="1056.97851562" xlink:href="#DejaVuSans-69"/>
     <use x="1084.76171875" xlink:href="#DejaVuSans-2f"/>
     <use x="1118.453125" xlink:href="#DejaVuSans-63"/>
     <use x="1173.43359375" xlink:href="#DejaVuSans-61"/>
     <use x="1234.71289062" xlink:href="#DejaVuSans-63"/>
     <use x="1289.69335938" xlink:href="#DejaVuSans-68"/>
     <use x="1353.07226562" xlink:href="#DejaVuSans-65"/>
     <use x="1414.59570312" xlink:href="#DejaVuSans-2d"/>
     <use x="1450.6796875" xlink:href="#DejaVuSans-6d"/>
     <use x="1548.09179688" xlink:href="#DejaVuSans-69"/>
     <use x="1575.875" xlink:href="#DejaVuSans-73"/>
     <use x="1627.97460938" xlink:href="#DejaVuSans-73"/>
     <use x="1680.07421875" xlink:href="#DejaVuSans-65"/>
     <use x="1741.59765625" xlink:href="#DejaVuSans-73"/>
    </g>
   </g>
   <g id="legend_1">
    <g id="patch_7">
     <path d="
M482.296 367.194
L614.085 367.194
L614.085 24.6897
L482.296 24.6897
z
" style="fill:#ffffff;stroke:#000000;stroke-linejoin:miter;"/>
    </g>
    <g id="line2d_39">
     <path d="
M492.376 36.3515
L512.536 36.3515" style="fill:none;stroke:#0000ff;stroke-linecap:square;"/>
    </g>
    <g id="line2d_40"/>
    <g id="text_15">
     <!-- locality#0 -->
     <defs>
      <path d="
M51.125 44
L36.9219 44
L32.8125 27.6875
L47.125 27.6875
z

M43.7969 71.7812
L38.7188 51.5156
L52.9844 51.5156
L58.1094 71.7812
L65.9219 71.7812
L60.8906 51.5156
L76.125 51.5156
L76.125 44
L58.9844 44
L54.9844 27.6875
L70.5156 27.6875
L70.5156 20.2188
L53.0781 20.2188
L48 0
L40.1875 0
L45.2188 20.2188
L30.9062 20.2188
L25.875 0
L18.0156 0
L23.0938 20.2188
L7.71875 20.2188
L7.71875 27.6875
L24.9062 27.6875
L29 44
L13.2812 44
L13.2812 51.5156
L30.9062 51.5156
L35.8906 71.7812
z
" id="DejaVuSans-23"/>
      <path d="
M32.1719 -5.07812
Q28.375 -14.8438 24.75 -17.8125
Q21.1406 -20.7969 15.0938 -20.7969
L7.90625 -20.7969
L7.90625 -13.2812
L13.1875 -13.2812
Q16.8906 -13.2812 18.9375 -11.5156
Q21 -9.76562 23.4844 -3.21875
L25.0938 0.875
L2.98438 54.6875
L12.5 54.6875
L29.5938 11.9219
L46.6875 54.6875
L56.2031 54.6875
z
" id="DejaVuSans-79"/>
     </defs>
     <g transform="translate(528.375625 41.3915)scale(0.144 -0.144)">
      <use xlink:href="#DejaVuSans-6c"/>
      <use x="27.783203125" xlink:href="#DejaVuSans-6f"/>
      <use x="88.96484375" xlink:href="#DejaVuSans-63"/>
      <use x="143.9453125" xlink:href="#DejaVuSans-61"/>
      <use x="205.224609375" xlink:href="#DejaVuSans-6c"/>
      <use x="233.0078125" xlink:href="#DejaVuSans-69"/>
      <use x="260.791015625" xlink:href="#DejaVuSans-74"/>
      <use x="300.0" xlink:href="#DejaVuSans-79"/>
      <use x="359.1796875" xlink:href="#DejaVuSans-23"/>
      <use x="442.96875" xlink:href="#DejaVuSans-30"/>
     </g>
    </g>
    <g id="line2d_41">
     <path d="
M492.376 57.488
L512.536 57.488" style="fill:none;stroke:#008000;stroke-linecap:square;"/>
    </g>
    <g id="line2d_42"/>
    <g id="text_16">
     <!-- locality#1 -->
     <g transform="translate(528.375625 62.528)scale(0.144 -0.144)">
      <use xlink:href="#DejaVuSans-6c"/>
      <use x="27.783203125" xlink:href="#DejaVuSans-6f"/>
      <use x="88.96484375" xlink:href="#DejaVuSans-63"/>
      <use x="143.9453125" xlink:href="#DejaVuSans-61"/>
      <use x="205.224609375" xlink:href="#DejaVuSans-6c"/>
      <use x="233.0078125" xlink:href="#DejaVuSans-69"/>
      <use x="260.791015625" xlink:href="#DejaVuSans-74"/>
      <use x="300.0" xlink:href="#DejaVuSans-79"/>
      <use x="359.1796875" xlink:href="#DejaVuSans-23"/>
      <use x="442.96875" xlink:href="#DejaVuSans-31"/>
     </g>
    </g>
    <g id="line2d_43">
     <path d="
M492.376 78.6245
L512.536 78.6245" style="fill:none;stroke:#ff0000;stroke-linecap:square;"/>
    </g>
    <g id="line2d_44"/>
    <g id="text_17">
     <!-- locality#10 -->
     <g transform="translate(528.375625 83.6645)scale(0.144 -0.144)">
      <use xlink:href="#DejaVuSans-6c"/>
      <use x="27.783203125" xlink:href="#DejaVuSans-6f"/>
      <use x="88.96484375" xlink:href="#DejaVuSans-63"/>
      <use x="143.9453125" xlink:href="#DejaVuSans-61"/>
      <use x="205.224609375" xlink:href="#DejaVuSans-6c"/>
      <use x="233.0078125" xlink:href="#DejaVuSans-69"/>
      <use x="260.791015625" xlink:href="#DejaVuSans-74"/>
      <use x="300.0" xlink:href="#DejaVuSans-79"/>
      <use x="359.1796875" xlink:href="#DejaVuSans-23"/>
      <use x="442.96875" xlink:href="#DejaVuSans-31"/>
      <use x="506.591796875" xlink:href="#DejaVuSans-30"/>
     </g>
    </g>
    <g id="line2d_45">
     <path d="
M492.376 99.761
L512.536 99.761" style="fill:none;stroke:#00bfbf;stroke-linecap:square;"/>
    </g>
    <g id="line2d_46"/>
    <g id="text_18">
     <!-- locality#11 -->
     <g transform="translate(528.375625 104.801)scale(0.144 -0.144)">
      <use xlink:href="#DejaVuSans-6c"/>
      <use x="27.783203125" xlink:href="#DejaVuSans-6f"/>
      <use x="88.96484375" xlink:href="#DejaVuSans-63"/>
      <use x="143.9453125" xlink:href="#DejaVuSans-61"/>
      <use x="205.224609375" xlink:href="#DejaVuSans-6c"/>
      <use x="233.0078125" xlink:href="#DejaVuSans-69"/>
      <use x="260.791015625" xlink:href="#DejaVuSans-74"/>
      <use x="300.0" xlink:href="#DejaVuSans-79"/>
      <use x="359.1796875" xlink:href="#DejaVuSans-23"/>
      <use x="442.96875" xlink:href="#DejaVuSans-31"/>
      <use x="506.591796875" xlink:href="#DejaVuSans-31"/>
     </g>
    </g>
    <g id="line2d_47">
     <path d="
M492.376 120.897
L512.536 120.897" style="fill:none;stroke:#bf00bf;stroke-linecap:square;"/>
    </g>
    <g id="line2d_48"/>
    <g id="text_19">
     <!-- locality#12 -->
     <g transform="translate(528.375625 125.9375)scale(0.144 -0.144)">
      <use xlink:href="#DejaVuSans-6c"/>
      <use x="27.783203125" xlink:href="#DejaVuSans-6f"/>
      <use x="88.96484375" xlink:href="#DejaVuSans-63"/>
      <use x="143.9453125" xlink:href="#DejaVuSans-61"/>
      <use x="205.224609375" xlink:href="#DejaVuSans-6c"/>
      <use x="233.0078125" xlink:href="#DejaVuSans-69"/>
      <use x="260.791015625" xlink:href="#DejaVuSans-74"/>
      <use x="300.0" xlink:href="#DejaVuSans-79"/>
      <use x="359.1796875" xlink:href="#DejaVuSans-23"/>
      <use x="442.96875" xlink:href="#DejaVuSans-31"/>
      <use x="506.591796875" xlink:href="#DejaVuSans-32"/>
     </g>
    </g>
    <g id="line2d_49">
     <path d="
M492.376 142.034
L512.536 142.034" style="fill:none;stroke:#bfbf00;stroke-linecap:square;"/>
    </g>
    <g id="line2d_50"/>
    <g id="text_20">
     <!-- locality#13 -->
     <defs>
      <path d="
M40.5781 39.3125
Q47.6562 37.7969 51.625 33
Q55.6094 28.2188 55.6094 21.1875
Q55.6094 10.4062 48.1875 4.48438
Q40.7656 -1.42188 27.0938 -1.42188
Q22.5156 -1.42188 17.6562 -0.515625
Q12.7969 0.390625 7.625 2.20312
L7.625 11.7188
Q11.7188 9.32812 16.5938 8.10938
Q21.4844 6.89062 26.8125 6.89062
Q36.0781 6.89062 40.9375 10.5469
Q45.7969 14.2031 45.7969 21.1875
Q45.7969 27.6406 41.2812 31.2656
Q36.7656 34.9062 28.7188 34.9062
L20.2188 34.9062
L20.2188 43.0156
L29.1094 43.0156
Q36.375 43.0156 40.2344 45.9219
Q44.0938 48.8281 44.0938 54.2969
Q44.0938 59.9062 40.1094 62.9062
Q36.1406 65.9219 28.7188 65.9219
Q24.6562 65.9219 20.0156 65.0312
Q15.375 64.1562 9.8125 62.3125
L9.8125 71.0938
Q15.4375 72.6562 20.3438 73.4375
Q25.25 74.2188 29.5938 74.2188
Q40.8281 74.2188 47.3594 69.1094
Q53.9062 64.0156 53.9062 55.3281
Q53.9062 49.2656 50.4375 45.0938
Q46.9688 40.9219 40.5781 39.3125" id="DejaVuSans-33"/>
     </defs>
     <g transform="translate(528.375625 147.074)scale(0.144 -0.144)">
      <use xlink:href="#DejaVuSans-6c"/>
      <use x="27.783203125" xlink:href="#DejaVuSans-6f"/>
      <use x="88.96484375" xlink:href="#DejaVuSans-63"/>
      <use x="143.9453125" xlink:href="#DejaVuSans-61"/>
      <use x="205.224609375" xlink:href="#DejaVuSans-6c"/>
      <use x="233.0078125" xlink:href="#DejaVuSans-69"/>
      <use x="260.791015625" xlink:href="#DejaVuSans-74"/>
      <use x="300.0" xlink:href="#DejaVuSans-79"/>
      <use x="359.1796875" xlink:href="#DejaVuSans-23"/>
      <use x="442.96875" xlink:href="#DejaVuSans-31"/>
      <use x="506.591796875" xlink:href="#DejaVuSans-33"/>
     </g>
    </g>
    <g id="line2d_51">
     <path d="
M492.376 163.17
L512.536 163.17" style="fill:none;stroke:#000000;stroke-linecap:square;"/>
    </g>
    <g id="line2d_52"/>
    <g id="text_21">
     <!-- locality#14 -->
     <defs>
      <path d="
M37.7969 64.3125
L12.8906 25.3906
L37.7969 25.3906
z

M35.2031 72.9062
L47.6094 72.9062
L47.6094 25.3906
L58.0156 25.3906
L58.0156 17.1875
L47.6094 17.1875
L47.6094 0
L37.7969 0
L37.7969 17.1875
L4.89062 17.1875
L4.89062 26.7031
z
" id="DejaVuSans-34"/>
     </defs>
     <g transform="translate(528.375625 168.2105)scale(0.144 -0.144)">
      <use xlink:href="#DejaVuSans-6c"/>
      <use x="27.783203125" xlink:href="#DejaVuSans-6f"/>
      <use x="88.96484375" xlink:href="#DejaVuSans-63"/>
      <use x="143.9453125" xlink:href="#DejaVuSans-61"/>
      <use x="205.224609375" xlink:href="#DejaVuSans-6c"/>
      <use x="233.0078125" xlink:href="#DejaVuSans-69"/>
      <use x="260.791015625" xlink:href="#DejaVuSans-74"/>
      <use x="300.0" xlink:href="#DejaVuSans-79"/>
      <use x="359.1796875" xlink:href="#DejaVuSans-23"/>
      <use x="442.96875" xlink:href="#DejaVuSans-31"/>
      <use x="506.591796875" xlink:href="#DejaVuSans-34"/>
     </g>
    </g>
    <g id="line2d_53">
     <path d="
M492.376 184.307
L512.536 184.307" style="fill:none;stroke:#0000ff;stroke-linecap:square;"/>
    </g>
    <g id="line2d_54"/>
    <g id="text_22">
     <!-- locality#15 -->
     <g transform="translate(528.375625 189.347)scale(0.144 -0.144)">
      <use xlink:href="#DejaVuSans-6c"/>
      <use x="27.783203125" xlink:href="#DejaVuSans-6f"/>
      <use x="88.96484375" xlink:href="#DejaVuSans-63"/>
      <use x="143.9453125" xlink:href="#DejaVuSans-61"/>
      <use x="205.224609375" xlink:href="#DejaVuSans-6c"/>
      <use x="233.0078125" xlink:href="#DejaVuSans-69"/>
      <use x="260.791015625" xlink:href="#DejaVuSans-74"/>
      <use x="300.0" xlink:href="#DejaVuSans-79"/>
      <use x="359.1796875" xlink:href="#DejaVuSans-23"/>
      <use x="442.96875" xlink:href="#DejaVuSans-31"/>
      <use x="506.591796875" xlink:href="#DejaVuSans-35"/>
     </g>
    </g>
    <g id="line2d_55">
     <path d="
M492.376 205.443
L512.536 205.443" style="fill:none;stroke:#008000;stroke-linecap:square;"/>
    </g>
    <g id="line2d_56"/>
    <g id="text_23">
     <!-- locality#2 -->
     <g transform="translate(528.375625 210.4835)scale(0.144 -0.144)">
      <use xlink:href="#DejaVuSans-6c"/>
      <use x="27.783203125" xlink:href="#DejaVuSans-6f"/>
      <use x="88.96484375" xlink:href="#DejaVuSans-63"/>
      <use x="143.9453125" xlink:href="#DejaVuSans-61"/>
      <use x="205.224609375" xlink:href="#DejaVuSans-6c"/>
      <use x="233.0078125" xlink:href="#DejaVuSans-69"/>
      <use x="260.791015625" xlink:href="#DejaVuSans-74"/>
      <use x="300.0" xlink:href="#DejaVuSans-79"/>
      <use x="359.1796875" xlink:href="#DejaVuSans-23"/>
      <use x="442.96875" xlink:href="#DejaVuSans-32"/>
     </g>
    </g>
    <g id="line2d_57">
     <path d="
M492.376 226.58
L512.536 226.58" style="fill:none;stroke:#ff0000;stroke-linecap:square;"/>
    </g>
    <g id="line2d_58"/>
    <g id="text_24">
     <!-- locality#3 -->
     <g transform="translate(528.375625 231.62)scale(0.144 -0.144)">
      <use xlink:href="#DejaVuSans-6c"/>
      <use x="27.783203125" xlink:href="#DejaVuSans-6f"/>
      <use x="88.96484375" xlink:href="#DejaVuSans-63"/>
      <use x="143.9453125" xlink:href="#DejaVuSans-61"/>
      <use x="205.224609375" xlink:href="#DejaVuSans-6c"/>
      <use x="233.0078125" xlink:href="#DejaVuSans-69"/>
      <use x="260.791015625" xlink:href="#DejaVuSans-74"/>
      <use x="300.0" xlink:href="#DejaVuSans-79"/>
      <use x="359.1796875" xlink:href="#DejaVuSans-23"/>
      <use x="442.96875" xlink:href="#DejaVuSans-33"/>
     </g>
    </g>
    <g id="line2d_59">
     <path d="
M492.376 247.716
L512.536 247.716" style="fill:none;stroke:#00bfbf;stroke-linecap:square;"/>
    </g>
    <g id="line2d_60"/>
    <g id="text_25">
     <!-- locality#4 -->
     <g transform="translate(528.375625 252.7565)scale(0.144 -0.144)">
      <use xlink:href="#DejaVuSans-6c"/>
      <use x="27.783203125" xlink:href="#DejaVuSans-6f"/>
      <use x="88.96484375" xlink:href="#DejaVuSans-63"/>
      <use x="143.9453125" xlink:href="#DejaVuSans-61"/>
      <use x="205.224609375" xlink:href="#DejaVuSans-6c"/>
      <use x="233.0078125" xlink:href="#DejaVuSans-69"/>
      <use x="260.791015625" xlink:href="#DejaVuSans-74"/>
      <use x="300.0" xlink:href="#DejaVuSans-79"/>
      <use x="359.1796875" xlink:href="#DejaVuSans-23"/>
      <use x="442.96875" xlink:href="#DejaVuSans-34"/>
     </g>
    </g>
    <g id="line2d_61">
     <path d="
M492.376 268.853
L512.536 268.853" style="fill:none;stroke:#bf00bf;stroke-linecap:square;"/>
    </g>
    <g id="line2d_62"/>
    <g id="text_26">
     <!-- locality#5 -->
     <g transform="translate(528.375625 273.893)scale(0.144 -0.144)">
      <use xlink:href="#DejaVuSans-6c"/>
      <use x="27.783203125" xlink:href="#DejaVuSans-6f"/>
      <use x="88.96484375" xlink:href="#DejaVuSans-63"/>
      <use x="143.9453125" xlink:href="#DejaVuSans-61"/>
      <use x="205.224609375" xlink:href="#DejaVuSans-6c"/>
      <use x="233.0078125" xlink:href="#DejaVuSans-69"/>
      <use x="260.791015625" xlink:href="#DejaVuSans-74"/>
      <use x="300.0" xlink:href="#DejaVuSans-79"/>
      <use x="359.1796875" xlink:href="#DejaVuSans-23"/>
      <use x="442.96875" xlink:href="#DejaVuSans-35"/>
     </g>
    </g>
    <g id="line2d_63">
     <path d="
M492.376 289.989
L512.536 289.989" style="fill:none;stroke:#bfbf00;stroke-linecap:square;"/>
    </g>
    <g id="line2d_64"/>
    <g id="text_27">
     <!-- locality#6 -->
     <defs>
      <path d="
M33.0156 40.375
Q26.375 40.375 22.4844 35.8281
Q18.6094 31.2969 18.6094 23.3906
Q18.6094 15.5312 22.4844 10.9531
Q26.375 6.39062 33.0156 6.39062
Q39.6562 6.39062 43.5312 10.9531
Q47.4062 15.5312 47.4062 23.3906
Q47.4062 31.2969 43.5312 35.8281
Q39.6562 40.375 33.0156 40.375
M52.5938 71.2969
L52.5938 62.3125
Q48.875 64.0625 45.0938 64.9844
Q41.3125 65.9219 37.5938 65.9219
Q27.8281 65.9219 22.6719 59.3281
Q17.5312 52.7344 16.7969 39.4062
Q19.6719 43.6562 24.0156 45.9219
Q28.375 48.1875 33.5938 48.1875
Q44.5781 48.1875 50.9531 41.5156
Q57.3281 34.8594 57.3281 23.3906
Q57.3281 12.1562 50.6875 5.35938
Q44.0469 -1.42188 33.0156 -1.42188
Q20.3594 -1.42188 13.6719 8.26562
Q6.98438 17.9688 6.98438 36.375
Q6.98438 53.6562 15.1875 63.9375
Q23.3906 74.2188 37.2031 74.2188
Q40.9219 74.2188 44.7031 73.4844
Q48.4844 72.75 52.5938 71.2969" id="DejaVuSans-36"/>
     </defs>
     <g transform="translate(528.375625 295.0295)scale(0.144 -0.144)">
      <use xlink:href="#DejaVuSans-6c"/>
      <use x="27.783203125" xlink:href="#DejaVuSans-6f"/>
      <use x="88.96484375" xlink:href="#DejaVuSans-63"/>
      <use x="143.9453125" xlink:href="#DejaVuSans-61"/>
      <use x="205.224609375" xlink:href="#DejaVuSans-6c"/>
      <use x="233.0078125" xlink:href="#DejaVuSans-69"/>
      <use x="260.791015625" xlink:href="#DejaVuSans-74"/>
      <use x="300.0" xlink:href="#DejaVuSans-79"/>
      <use x="359.1796875" xlink:href="#DejaVuSans-23"/>
      <use x="442.96875" xlink:href="#DejaVuSans-36"/>
     </g>
    </g>
    <g id="line2d_65">
     <path d="
M492.376 311.126
L512.536 311.126" style="fill:none;stroke:#000000;stroke-linecap:square;"/>
    </g>
    <g id="line2d_66"/>
    <g id="text_28">
     <!-- locality#7 -->
     <g transform="translate(528.375625 316.166)scale(0.144 -0.144)">
      <use xlink:href="#DejaVuSans-6c"/>
      <use x="27.783203125" xlink:href="#DejaVuSans-6f"/>
      <use x="88.96484375" xlink:href="#DejaVuSans-63"/>
      <use x="143.9453125" xlink:href="#DejaVuSans-61"/>
      <use x="205.224609375" xlink:href="#DejaVuSans-6c"/>
      <use x="233.0078125" xlink:href="#DejaVuSans-69"/>
      <use x="260.791015625" xlink:href="#DejaVuSans-74"/>
      <use x="300.0" xlink:href="#DejaVuSans-79"/>
      <use x="359.1796875" xlink:href="#DejaVuSans-23"/>
      <use x="442.96875" xlink:href="#DejaVuSans-37"/>
     </g>
    </g>
    <g id="line2d_67">
     <path d="
M492.376 332.262
L512.536 332.262" style="fill:none;stroke:#0000ff;stroke-linecap:square;"/>
    </g>
    <g id="line2d_68"/>
    <g id="text_29">
     <!-- locality#8 -->
     <defs>
      <path d="
M31.7812 34.625
Q24.75 34.625 20.7188 30.8594
Q16.7031 27.0938 16.7031 20.5156
Q16.7031 13.9219 20.7188 10.1562
Q24.75 6.39062 31.7812 6.39062
Q38.8125 6.39062 42.8594 10.1719
Q46.9219 13.9688 46.9219 20.5156
Q46.9219 27.0938 42.8906 30.8594
Q38.875 34.625 31.7812 34.625
M21.9219 38.8125
Q15.5781 40.375 12.0312 44.7188
Q8.5 49.0781 8.5 55.3281
Q8.5 64.0625 14.7188 69.1406
Q20.9531 74.2188 31.7812 74.2188
Q42.6719 74.2188 48.875 69.1406
Q55.0781 64.0625 55.0781 55.3281
Q55.0781 49.0781 51.5312 44.7188
Q48 40.375 41.7031 38.8125
Q48.8281 37.1562 52.7969 32.3125
Q56.7812 27.4844 56.7812 20.5156
Q56.7812 9.90625 50.3125 4.23438
Q43.8438 -1.42188 31.7812 -1.42188
Q19.7344 -1.42188 13.25 4.23438
Q6.78125 9.90625 6.78125 20.5156
Q6.78125 27.4844 10.7812 32.3125
Q14.7969 37.1562 21.9219 38.8125
M18.3125 54.3906
Q18.3125 48.7344 21.8438 45.5625
Q25.3906 42.3906 31.7812 42.3906
Q38.1406 42.3906 41.7188 45.5625
Q45.3125 48.7344 45.3125 54.3906
Q45.3125 60.0625 41.7188 63.2344
Q38.1406 66.4062 31.7812 66.4062
Q25.3906 66.4062 21.8438 63.2344
Q18.3125 60.0625 18.3125 54.3906" id="DejaVuSans-38"/>
     </defs>
     <g transform="translate(528.375625 337.3025)scale(0.144 -0.144)">
      <use xlink:href="#DejaVuSans-6c"/>
      <use x="27.783203125" xlink:href="#DejaVuSans-6f"/>
      <use x="88.96484375" xlink:href="#DejaVuSans-63"/>
      <use x="143.9453125" xlink:href="#DejaVuSans-61"/>
      <use x="205.224609375" xlink:href="#DejaVuSans-6c"/>
      <use x="233.0078125" xlink:href="#DejaVuSans-69"/>
      <use x="260.791015625" xlink:href="#DejaVuSans-74"/>
      <use x="300.0" xlink:href="#DejaVuSans-79"/>
      <use x="359.1796875" xlink:href="#DejaVuSans-23"/>
      <use x="442.96875" xlink:href="#DejaVuSans-38"/>
     </g>
    </g>
    <g id="line2d_69">
     <path d="
M492.376 353.399
L512.536 353.399" style="fill:none;stroke:#008000;stroke-linecap:square;"/>
    </g>
    <g id="line2d_70"/>
    <g id="text_30">
     <!-- locality#9 -->
     <defs>
      <path d="
M10.9844 1.51562
L10.9844 10.5
Q14.7031 8.73438 18.5 7.8125
Q22.3125 6.89062 25.9844 6.89062
Q35.75 6.89062 40.8906 13.4531
Q46.0469 20.0156 46.7812 33.4062
Q43.9531 29.2031 39.5938 26.9531
Q35.25 24.7031 29.9844 24.7031
Q19.0469 24.7031 12.6719 31.3125
Q6.29688 37.9375 6.29688 49.4219
Q6.29688 60.6406 12.9375 67.4219
Q19.5781 74.2188 30.6094 74.2188
Q43.2656 74.2188 49.9219 64.5156
Q56.5938 54.8281 56.5938 36.375
Q56.5938 19.1406 48.4062 8.85938
Q40.2344 -1.42188 26.4219 -1.42188
Q22.7031 -1.42188 18.8906 -0.6875
Q15.0938 0.046875 10.9844 1.51562
M30.6094 32.4219
Q37.25 32.4219 41.125 36.9531
Q45.0156 41.5 45.0156 49.4219
Q45.0156 57.2812 41.125 61.8438
Q37.25 66.4062 30.6094 66.4062
Q23.9688 66.4062 20.0938 61.8438
Q16.2188 57.2812 16.2188 49.4219
Q16.2188 41.5 20.0938 36.9531
Q23.9688 32.4219 30.6094 32.4219" id="DejaVuSans-39"/>
     </defs>
     <g transform="translate(528.375625 358.439)scale(0.144 -0.144)">
      <use xlink:href="#DejaVuSans-6c"/>
      <use x="27.783203125" xlink:href="#DejaVuSans-6f"/>
      <use x="88.96484375" xlink:href="#DejaVuSans-63"/>
      <use x="143.9453125" xlink:href="#DejaVuSans-61"/>
      <use x="205.224609375" xlink:href="#DejaVuSans-6c"/>
      <use x="233.0078125" xlink:href="#DejaVuSans-69"/>
      <use x="260.791015625" xlink:href="#DejaVuSans-74"/>
      <use x="300.0" xlink:href="#DejaVuSans-79"/>
      <use x="359.1796875" xlink:href="#DejaVuSans-23"/>
      <use x="442.96875" xlink:href="#DejaVuSans-39"/>
     </g>
    </g>
   </g>
  </g>
 </g>
 <defs>
  <clipPath id="p2118423672">
   <rect height="345.6" width="446.4" x="28.695625" y="23.14175"/>
  </clipPath>
 </defs>
</svg>
