<?xml version="1.0" encoding="utf-8" standalone="no"?>
<!DOCTYPE svg PUBLIC "-//W3C//DTD SVG 1.1//EN"
  "http://www.w3.org/Graphics/SVG/1.1/DTD/svg11.dtd">
<!-- Created with matplotlib (http://matplotlib.org/) -->
<svg height="408pt" version="1.1" viewBox="0 0 639 408" width="639pt" xmlns="http://www.w3.org/2000/svg" xmlns:xlink="http://www.w3.org/1999/xlink">
 <defs>
  <style type="text/css">
*{stroke-linecap:butt;stroke-linejoin:round;}
  </style>
 </defs>
 <g id="figure_1">
  <g id="patch_1">
   <path d="
M0 408.169
L639.849 408.169
L639.849 0
L0 0
z
" style="fill:#ffffff;"/>
  </g>
  <g id="axes_1">
   <g id="patch_2">
    <path d="
M47.26 368.742
L493.66 368.742
L493.66 23.1417
L47.26 23.1417
z
" style="fill:#ffffff;"/>
   </g>
   <g id="line2d_1">
    <path clip-path="url(#p7a17b32626)" d="
M47.26 316.408
L48.6594 316.754
L50.0587 316.062
L51.4581 316.408
L52.8575 317.297
L54.2569 315.519
L55.6562 318.334
L57.0556 314.483
L59.8544 318.284
L61.2537 314.532
L62.6531 329.689
L64.0525 310.928
L65.4518 320.703
L66.8512 312.36
L68.2506 308.706
L69.65 316.062
L71.0493 318.728
L72.4487 314.088
L73.8481 316.408
L419.493 316.408
L420.893 216.678
L422.292 316.408
L493.66 316.408
L493.66 316.408" style="fill:none;stroke:#0000ff;stroke-linecap:square;"/>
   </g>
   <g id="line2d_2">
    <path clip-path="url(#p7a17b32626)" d="
M47.26 343.069
L48.6594 343.365
L50.0587 342.772
L51.4581 343.069
L52.8575 343.217
L54.2569 342.92
L55.6562 343.167
L57.0556 342.97
L59.8544 343.069
L62.6531 343.118
L64.0525 346.426
L65.4518 339.909
L66.8512 342.822
L68.2506 343.167
L69.65 342.97
L71.0493 343.167
L72.4487 342.97
L75.2475 343.069
L418.094 343.069
L419.493 338.131
L420.893 255.187
L422.292 343.069
L493.66 343.069
L493.66 343.069" style="fill:none;stroke:#008000;stroke-linecap:square;"/>
   </g>
   <g id="line2d_3">
    <path clip-path="url(#p7a17b32626)" d="
M47.26 148.348
L48.6594 148.792
L50.0587 147.903
L52.8575 148.792
L54.2569 147.903
L55.6562 148.644
L57.0556 148.051
L58.455 148.348
L62.6531 148.397
L64.0525 152.149
L65.4518 144.842
L66.8512 148.002
L68.2506 148.545
L69.65 148.15
L71.0493 148.397
L72.4487 148.298
L76.6468 148.348
L169.005 148.446
L170.405 148.051
L171.804 148.545
L173.204 148.545
L174.603 148.051
L176.002 148.545
L177.402 148.051
L178.801 148.545
L180.2 148.545
L181.6 148.051
L182.999 148.545
L184.399 148.051
L185.798 148.545
L187.197 148.545
L188.597 148.051
L189.996 148.545
L191.395 148.051
L192.795 148.545
L194.194 148.545
L195.594 148.051
L196.993 148.545
L198.392 148.051
L199.792 148.545
L201.191 148.545
L202.59 148.051
L203.99 148.545
L205.389 148.051
L206.789 148.545
L208.188 148.545
L209.587 148.051
L210.987 148.545
L212.386 148.051
L213.785 148.545
L215.185 148.545
L216.584 148.051
L217.984 148.545
L219.383 148.051
L220.782 148.545
L222.182 148.545
L223.581 148.051
L224.98 148.545
L226.38 148.051
L227.779 148.545
L229.178 148.545
L230.578 148.051
L231.977 148.545
L233.377 148.051
L234.776 148.545
L236.175 148.545
L237.575 148.051
L238.974 148.545
L240.373 148.051
L241.773 148.545
L243.172 148.545
L244.572 148.051
L245.971 148.545
L247.37 148.051
L248.77 148.545
L250.169 148.545
L251.568 148.051
L252.968 148.545
L254.367 148.051
L255.767 148.545
L257.166 148.545
L258.565 148.051
L259.965 148.545
L261.364 148.051
L262.763 148.545
L264.163 148.545
L265.562 148.051
L266.962 148.545
L268.361 148.051
L269.76 148.545
L271.16 148.545
L272.559 148.051
L273.958 148.545
L275.358 148.051
L276.757 148.545
L278.157 148.545
L279.556 148.051
L280.955 148.545
L282.355 148.051
L283.754 148.545
L285.153 148.545
L286.553 148.051
L287.952 148.545
L289.352 148.051
L290.751 148.545
L292.15 148.545
L293.55 148.051
L294.949 148.545
L296.348 148.051
L297.748 148.545
L299.147 148.545
L300.547 148.051
L301.946 148.545
L303.345 148.051
L304.745 148.545
L306.144 148.545
L307.543 148.051
L308.943 148.545
L310.342 148.051
L311.742 148.545
L313.141 148.545
L314.54 148.051
L315.94 148.545
L317.339 148.051
L318.738 148.545
L320.138 148.545
L321.537 148.051
L322.936 148.545
L324.336 148.051
L325.735 148.545
L327.135 148.545
L328.534 148.051
L329.933 148.545
L331.333 148.051
L332.732 148.545
L334.131 148.545
L335.531 148.051
L336.93 148.545
L338.33 148.051
L339.729 148.545
L341.128 148.545
L342.528 148.051
L343.927 148.545
L345.326 148.051
L346.726 148.545
L348.125 148.545
L349.525 148.051
L350.924 148.545
L352.323 148.051
L353.723 148.545
L355.122 148.545
L356.521 148.051
L357.921 148.545
L359.32 148.051
L360.72 148.545
L362.119 148.545
L363.518 148.051
L364.918 148.545
L366.317 148.051
L367.716 148.545
L369.116 148.545
L370.515 148.051
L371.915 148.545
L373.314 148.051
L374.713 148.545
L376.113 148.545
L377.512 148.051
L378.911 148.545
L380.311 148.051
L381.71 148.545
L383.11 148.545
L384.509 148.051
L385.908 148.545
L387.308 148.051
L388.707 148.545
L390.106 148.545
L391.506 148.051
L392.905 148.545
L394.305 148.051
L395.704 148.545
L397.103 148.545
L398.503 148.051
L399.902 148.545
L401.301 148.051
L402.701 148.545
L404.1 148.545
L405.499 148.051
L406.899 148.545
L408.298 148.051
L409.698 148.545
L411.097 148.545
L412.496 148.051
L413.896 148.545
L415.295 148.051
L416.694 148.545
L418.094 148.545
L419.493 131.759
L420.893 23.1417
L422.292 148.545
L423.691 148.051
L425.091 148.545
L426.49 148.545
L427.889 148.051
L429.289 148.545
L430.688 148.051
L432.088 148.545
L433.487 148.545
L434.886 148.051
L436.286 148.545
L437.685 148.051
L439.084 148.545
L440.484 148.545
L441.883 148.051
L443.283 148.545
L444.682 148.051
L446.081 148.545
L447.481 148.545
L448.88 148.051
L450.279 148.545
L451.679 148.051
L453.078 148.545
L454.478 148.545
L455.877 148.051
L457.276 148.545
L458.676 148.051
L460.075 148.545
L461.474 148.545
L462.874 148.051
L464.273 148.545
L465.673 148.051
L467.072 148.545
L468.471 148.545
L469.871 148.051
L471.27 148.545
L472.669 148.051
L474.069 148.545
L475.468 148.545
L476.868 148.051
L478.267 148.545
L479.666 148.051
L481.066 148.545
L482.465 148.545
L483.864 148.051
L485.264 148.545
L486.663 148.051
L488.063 148.545
L489.462 148.545
L490.861 148.051
L492.261 148.545
L493.66 148.051
L493.66 148.051" style="fill:none;stroke:#ff0000;stroke-linecap:square;"/>
   </g>
   <g id="line2d_4">
    <path clip-path="url(#p7a17b32626)" d="
M47.26 151.705
L48.6594 152.396
L50.0587 151.014
L51.4581 151.705
L52.8575 152.791
L54.2569 150.619
L55.6562 152.149
L57.0556 151.261
L58.455 151.705
L61.2537 151.705
L62.6531 152.1
L64.0525 156.642
L65.4518 147.064
L66.8512 151.606
L68.2506 151.606
L69.65 151.211
L71.0493 152.248
L72.4487 151.162
L73.8481 151.705
L169.005 151.606
L170.405 152.001
L171.804 151.507
L173.204 151.507
L174.603 152.001
L176.002 151.507
L177.402 152.001
L178.801 151.507
L180.2 151.507
L181.6 152.001
L182.999 151.507
L184.399 152.001
L185.798 151.507
L187.197 151.507
L188.597 152.001
L189.996 151.507
L191.395 152.001
L192.795 151.507
L194.194 152.001
L195.594 151.507
L196.993 151.507
L198.392 152.001
L199.792 151.507
L201.191 151.507
L202.59 152.001
L203.99 151.507
L205.389 152.001
L206.789 151.507
L208.188 151.507
L209.587 152.001
L210.987 151.507
L212.386 152.001
L213.785 151.507
L215.185 151.507
L216.584 152.001
L217.984 151.507
L219.383 152.001
L220.782 151.507
L222.182 151.507
L223.581 152.001
L224.98 151.507
L226.38 152.001
L227.779 151.507
L229.178 151.507
L230.578 152.001
L231.977 151.507
L233.377 152.001
L234.776 151.507
L236.175 151.507
L237.575 152.001
L238.974 151.507
L240.373 152.001
L241.773 151.507
L243.172 151.507
L244.572 152.001
L245.971 151.507
L247.37 152.001
L248.77 151.507
L250.169 151.507
L251.568 152.001
L252.968 151.507
L254.367 152.001
L255.767 151.507
L257.166 151.507
L258.565 152.001
L259.965 151.507
L261.364 152.001
L262.763 151.507
L264.163 151.507
L265.562 152.001
L266.962 151.507
L268.361 152.001
L269.76 151.507
L271.16 151.507
L272.559 152.001
L273.958 151.507
L275.358 152.001
L276.757 151.507
L278.157 151.507
L279.556 152.001
L280.955 151.507
L282.355 152.001
L283.754 151.507
L285.153 151.507
L286.553 152.001
L287.952 151.507
L289.352 152.001
L290.751 151.507
L292.15 151.507
L293.55 152.001
L294.949 151.507
L296.348 152.001
L297.748 151.507
L299.147 151.507
L300.547 152.001
L301.946 151.507
L303.345 152.001
L304.745 151.507
L306.144 151.507
L307.543 152.001
L308.943 151.507
L310.342 152.001
L311.742 151.507
L313.141 151.507
L314.54 152.001
L315.94 151.507
L317.339 152.001
L318.738 151.507
L320.138 151.507
L321.537 152.001
L322.936 151.507
L324.336 152.001
L325.735 151.507
L327.135 151.507
L328.534 152.001
L329.933 151.507
L331.333 152.001
L332.732 151.507
L334.131 151.507
L335.531 152.001
L336.93 151.507
L338.33 152.001
L339.729 151.507
L341.128 151.507
L342.528 152.001
L343.927 151.507
L345.326 152.001
L346.726 151.507
L348.125 151.507
L349.525 152.001
L350.924 151.507
L352.323 152.001
L353.723 151.507
L355.122 151.507
L356.521 152.001
L357.921 151.507
L359.32 152.001
L360.72 151.507
L362.119 151.507
L363.518 152.001
L364.918 151.507
L366.317 152.001
L367.716 151.507
L369.116 151.507
L370.515 152.001
L371.915 151.507
L373.314 152.001
L374.713 151.507
L376.113 151.507
L377.512 152.001
L378.911 151.507
L380.311 152.001
L381.71 151.507
L383.11 151.507
L384.509 152.001
L385.908 151.507
L387.308 152.001
L388.707 151.507
L390.106 151.507
L391.506 152.001
L392.905 151.507
L394.305 152.001
L395.704 151.507
L397.103 151.507
L398.503 152.001
L399.902 151.507
L401.301 152.001
L402.701 151.507
L404.1 152.001
L405.499 151.507
L406.899 151.507
L408.298 152.001
L409.698 151.507
L411.097 151.507
L412.496 152.001
L413.896 151.507
L415.295 152.001
L416.694 151.507
L418.094 151.507
L419.493 135.215
L420.893 27.5852
L422.292 152.001
L423.691 151.507
L425.091 152.001
L426.49 151.507
L427.889 151.507
L429.289 152.001
L430.688 151.507
L432.088 152.001
L433.487 151.507
L434.886 151.507
L436.286 152.001
L437.685 151.507
L439.084 152.001
L440.484 151.507
L441.883 151.507
L443.283 152.001
L444.682 151.507
L446.081 152.001
L447.481 151.507
L448.88 151.507
L450.279 152.001
L451.679 151.507
L453.078 152.001
L454.478 151.507
L455.877 151.507
L457.276 152.001
L458.676 151.507
L460.075 152.001
L461.474 151.507
L462.874 151.507
L464.273 152.001
L465.673 151.507
L467.072 152.001
L468.471 151.507
L469.871 151.507
L471.27 152.001
L472.669 151.507
L474.069 152.001
L475.468 151.507
L476.868 151.507
L478.267 152.001
L479.666 151.507
L481.066 152.001
L482.465 151.507
L483.864 151.507
L485.264 152.001
L486.663 151.507
L488.063 152.001
L489.462 151.507
L490.861 151.507
L492.261 152.001
L493.66 151.507
L493.66 151.507" style="fill:none;stroke:#00bfbf;stroke-linecap:square;"/>
   </g>
   <g id="line2d_5">
    <path clip-path="url(#p7a17b32626)" d="
M47.26 169.676
L48.6594 170.367
L50.0587 168.985
L51.4581 169.676
L52.8575 170.565
L54.2569 168.787
L55.6562 170.269
L57.0556 169.084
L58.455 169.676
L61.2537 169.676
L62.6531 170.071
L64.0525 175.848
L65.4518 163.801
L66.8512 169.577
L68.2506 169.577
L69.65 169.182
L71.0493 170.17
L72.4487 169.182
L73.8481 169.676
L174.603 169.775
L176.002 169.281
L177.402 169.775
L181.6 169.775
L182.999 169.281
L184.399 169.775
L188.597 169.775
L189.996 169.281
L191.395 169.775
L195.594 169.775
L196.993 169.281
L198.392 169.775
L202.59 169.775
L203.99 169.281
L205.389 169.775
L209.587 169.775
L210.987 169.281
L212.386 169.775
L216.584 169.775
L217.984 169.281
L219.383 169.775
L223.581 169.775
L224.98 169.281
L226.38 169.775
L230.578 169.775
L231.977 169.281
L233.377 169.775
L237.575 169.775
L238.974 169.281
L240.373 169.775
L244.572 169.775
L245.971 169.281
L247.37 169.775
L251.568 169.775
L252.968 169.281
L254.367 169.775
L258.565 169.775
L259.965 169.281
L261.364 169.775
L265.562 169.775
L266.962 169.281
L268.361 169.775
L272.559 169.775
L273.958 169.281
L275.358 169.775
L279.556 169.775
L280.955 169.281
L282.355 169.775
L286.553 169.775
L287.952 169.281
L289.352 169.775
L293.55 169.775
L294.949 169.281
L296.348 169.775
L300.547 169.775
L301.946 169.281
L303.345 169.775
L307.543 169.775
L308.943 169.281
L310.342 169.775
L314.54 169.775
L315.94 169.281
L317.339 169.775
L321.537 169.775
L322.936 169.281
L324.336 169.775
L328.534 169.775
L329.933 169.281
L331.333 169.775
L335.531 169.775
L336.93 169.281
L338.33 169.775
L342.528 169.775
L343.927 169.281
L345.326 169.775
L349.525 169.775
L350.924 169.281
L352.323 169.775
L356.521 169.775
L357.921 169.281
L359.32 169.775
L363.518 169.775
L364.918 169.281
L366.317 169.775
L370.515 169.775
L371.915 169.281
L373.314 169.775
L377.512 169.775
L378.911 169.281
L380.311 169.775
L384.509 169.775
L385.908 169.281
L387.308 169.775
L391.506 169.775
L392.905 169.281
L394.305 169.775
L398.503 169.775
L399.902 169.281
L401.301 169.775
L405.499 169.775
L406.899 169.281
L408.298 169.775
L412.496 169.775
L413.896 169.281
L415.295 169.775
L418.094 169.775
L419.493 154.47
L420.893 48.8149
L422.292 169.281
L423.691 169.775
L427.889 169.775
L429.289 169.281
L430.688 169.775
L434.886 169.775
L436.286 169.281
L437.685 169.775
L441.883 169.775
L443.283 169.281
L444.682 169.775
L448.88 169.775
L450.279 169.281
L451.679 169.775
L455.877 169.775
L457.276 169.281
L458.676 169.775
L462.874 169.775
L464.273 169.281
L465.673 169.775
L469.871 169.775
L471.27 169.281
L472.669 169.775
L476.868 169.775
L478.267 169.281
L479.666 169.775
L483.864 169.775
L485.264 169.281
L486.663 169.775
L490.861 169.775
L492.261 169.281
L493.66 169.775
L493.66 169.775" style="fill:none;stroke:#bf00bf;stroke-linecap:square;"/>
   </g>
   <g id="line2d_6">
    <path clip-path="url(#p7a17b32626)" d="
M47.26 199.891
L48.6594 200.237
L50.0587 199.546
L51.4581 199.891
L52.8575 200.681
L54.2569 199.102
L55.6562 200.435
L57.0556 199.348
L58.455 199.891
L61.2537 199.891
L62.6531 200.237
L64.0525 203.594
L65.4518 196.386
L66.8512 199.941
L69.65 199.496
L71.0493 200.533
L72.4487 199.25
L73.8481 199.891
L402.701 199.891
L404.1 200.385
L405.499 199.398
L406.899 199.891
L418.094 199.891
L419.493 186.067
L420.893 85.3497
L422.292 199.891
L493.66 199.891
L493.66 199.891" style="fill:none;stroke:#bfbf00;stroke-linecap:square;"/>
   </g>
   <g id="line2d_7">
    <path clip-path="url(#p7a17b32626)" d="
M47.26 238.401
L48.6594 238.944
L50.0587 237.858
L52.8575 238.944
L54.2569 237.858
L55.6562 238.944
L57.0556 237.858
L58.455 238.401
L61.2537 238.401
L62.6531 238.796
L64.0525 241.857
L65.4518 234.945
L66.8512 238.549
L69.65 237.957
L71.0493 238.895
L72.4487 237.907
L73.8481 238.401
L402.701 238.401
L404.1 238.895
L405.499 237.907
L406.899 238.401
L418.094 238.401
L419.493 225.565
L420.893 132.253
L422.292 238.401
L493.66 238.401
L493.66 238.401" style="fill:none;stroke:#000000;stroke-linecap:square;"/>
   </g>
   <g id="line2d_8">
    <path clip-path="url(#p7a17b32626)" d="
M47.26 279.676
L48.6594 279.972
L50.0587 279.379
L51.4581 279.676
L52.8575 279.824
L54.2569 279.528
L55.6562 279.923
L57.0556 279.429
L58.455 279.676
L62.6531 279.725
L64.0525 284.119
L65.4518 275.43
L66.8512 279.429
L68.2506 279.824
L69.65 279.528
L71.0493 279.774
L72.4487 279.577
L75.2475 279.676
L203.99 279.676
L205.389 279.478
L206.789 279.873
L208.188 279.873
L209.587 279.379
L210.987 279.873
L212.386 279.379
L213.785 279.873
L215.185 279.873
L216.584 279.379
L217.984 279.873
L219.383 279.379
L220.782 279.873
L222.182 279.873
L223.581 279.379
L224.98 279.873
L226.38 279.379
L227.779 279.873
L229.178 279.873
L230.578 279.379
L231.977 279.873
L233.377 279.379
L234.776 279.873
L236.175 279.873
L237.575 279.379
L238.974 279.873
L240.373 279.379
L241.773 279.873
L243.172 279.873
L244.572 279.379
L245.971 279.873
L247.37 279.379
L248.77 279.873
L250.169 279.873
L251.568 279.379
L252.968 279.873
L254.367 279.379
L255.767 279.873
L257.166 279.873
L258.565 279.379
L259.965 279.873
L261.364 279.379
L262.763 279.873
L264.163 279.873
L265.562 279.379
L266.962 279.873
L268.361 279.379
L269.76 279.873
L271.16 279.873
L272.559 279.379
L273.958 279.873
L275.358 279.379
L276.757 279.873
L278.157 279.873
L279.556 279.379
L280.955 279.873
L282.355 279.379
L283.754 279.873
L285.153 279.873
L286.553 279.379
L287.952 279.873
L289.352 279.379
L290.751 279.873
L292.15 279.873
L293.55 279.379
L294.949 279.873
L296.348 279.379
L297.748 279.873
L299.147 279.873
L300.547 279.379
L301.946 279.873
L303.345 279.379
L304.745 279.873
L306.144 279.873
L307.543 279.379
L308.943 279.873
L310.342 279.379
L311.742 279.873
L313.141 279.873
L314.54 279.379
L315.94 279.873
L317.339 279.379
L318.738 279.873
L320.138 279.873
L321.537 279.379
L322.936 279.873
L324.336 279.379
L325.735 279.873
L327.135 279.873
L328.534 279.379
L329.933 279.873
L331.333 279.379
L332.732 279.873
L334.131 279.873
L335.531 279.379
L336.93 279.873
L338.33 279.379
L339.729 279.873
L341.128 279.873
L342.528 279.379
L343.927 279.873
L345.326 279.379
L346.726 279.873
L348.125 279.873
L349.525 279.379
L350.924 279.873
L352.323 279.379
L353.723 279.873
L355.122 279.873
L356.521 279.379
L357.921 279.873
L359.32 279.379
L360.72 279.873
L362.119 279.873
L363.518 279.379
L364.918 279.873
L366.317 279.379
L367.716 279.873
L369.116 279.873
L370.515 279.379
L371.915 279.873
L373.314 279.379
L374.713 279.873
L376.113 279.873
L377.512 279.379
L378.911 279.873
L380.311 279.379
L381.71 279.873
L383.11 279.873
L384.509 279.379
L385.908 279.873
L387.308 279.379
L388.707 279.873
L390.106 279.873
L391.506 279.379
L392.905 279.873
L394.305 279.379
L395.704 279.873
L397.103 279.873
L398.503 279.379
L399.902 279.873
L401.301 279.379
L402.701 279.873
L404.1 279.873
L405.499 279.379
L406.899 279.873
L408.298 279.379
L409.698 279.873
L411.097 279.873
L412.496 279.379
L413.896 279.873
L415.295 279.379
L416.694 279.873
L418.094 279.873
L419.493 267.037
L420.893 183.599
L422.292 279.379
L423.691 279.873
L425.091 279.873
L426.49 279.379
L427.889 279.873
L429.289 279.379
L430.688 279.873
L432.088 279.873
L433.487 279.379
L434.886 279.873
L436.286 279.379
L437.685 279.873
L439.084 279.873
L440.484 279.379
L441.883 279.873
L443.283 279.379
L444.682 279.873
L446.081 279.873
L447.481 279.379
L448.88 279.873
L450.279 279.379
L451.679 279.873
L453.078 279.873
L454.478 279.379
L455.877 279.873
L457.276 279.379
L458.676 279.873
L460.075 279.873
L461.474 279.379
L462.874 279.873
L464.273 279.379
L465.673 279.873
L467.072 279.873
L468.471 279.379
L469.871 279.873
L471.27 279.379
L472.669 279.873
L474.069 279.873
L475.468 279.379
L476.868 279.873
L478.267 279.379
L479.666 279.873
L481.066 279.873
L482.465 279.379
L483.864 279.873
L485.264 279.379
L486.663 279.873
L488.063 279.873
L489.462 279.379
L490.861 279.873
L492.261 279.379
L493.66 279.873
L493.66 279.873" style="fill:none;stroke:#0000ff;stroke-linecap:square;"/>
   </g>
   <g id="line2d_9">
    <path clip-path="url(#p7a17b32626)" d="
M47.26 355.905
L62.6531 355.905
L64.0525 357.584
L65.4518 354.375
L66.8512 355.757
L68.2506 355.905
L418.094 355.905
L419.493 345.043
L420.893 276.911
L422.292 355.905
L493.66 355.905
L493.66 355.905" style="fill:none;stroke:#008000;stroke-linecap:square;"/>
   </g>
   <g id="line2d_10">
    <path clip-path="url(#p7a17b32626)" d="
M47.26 352.548
L236.175 352.548
L237.575 352.35
L238.974 352.943
L240.373 352.449
L244.572 352.449
L245.971 352.943
L247.37 352.449
L251.568 352.449
L252.968 352.943
L254.367 352.449
L258.565 352.449
L259.965 352.943
L261.364 352.449
L265.562 352.449
L266.962 352.943
L268.361 352.449
L272.559 352.449
L273.958 352.943
L275.358 352.449
L279.556 352.449
L280.955 352.943
L282.355 352.449
L286.553 352.449
L287.952 352.943
L289.352 352.449
L293.55 352.449
L294.949 352.943
L296.348 352.449
L300.547 352.449
L301.946 352.943
L303.345 352.449
L307.543 352.449
L308.943 352.943
L310.342 352.449
L314.54 352.449
L315.94 352.943
L317.339 352.449
L321.537 352.449
L322.936 352.943
L324.336 352.449
L328.534 352.449
L329.933 352.943
L331.333 352.449
L335.531 352.449
L336.93 352.943
L338.33 352.449
L342.528 352.449
L343.927 352.943
L345.326 352.449
L349.525 352.449
L350.924 352.943
L352.323 352.449
L356.521 352.449
L357.921 352.943
L359.32 352.449
L363.518 352.449
L364.918 352.943
L366.317 352.449
L370.515 352.449
L371.915 352.943
L373.314 352.449
L377.512 352.449
L378.911 352.943
L380.311 352.449
L384.509 352.449
L385.908 352.943
L387.308 352.449
L391.506 352.449
L392.905 352.943
L394.305 352.449
L398.503 352.449
L399.902 352.943
L401.301 352.449
L405.499 352.449
L406.899 352.943
L408.298 352.449
L412.496 352.449
L413.896 352.943
L415.295 352.449
L418.094 352.449
L419.493 340.106
L420.893 274.442
L422.292 352.943
L423.691 352.449
L427.889 352.449
L429.289 352.943
L430.688 352.449
L434.886 352.449
L436.286 352.943
L437.685 352.449
L441.883 352.449
L443.283 352.943
L444.682 352.449
L448.88 352.449
L450.279 352.943
L451.679 352.449
L455.877 352.449
L457.276 352.943
L458.676 352.449
L462.874 352.449
L464.273 352.943
L465.673 352.449
L469.871 352.449
L471.27 352.943
L472.669 352.449
L476.868 352.449
L478.267 352.943
L479.666 352.449
L483.864 352.449
L485.264 352.943
L486.663 352.449
L490.861 352.449
L492.261 352.943
L493.66 352.449
L493.66 352.449" style="fill:none;stroke:#ff0000;stroke-linecap:square;"/>
   </g>
   <g id="line2d_11">
    <path clip-path="url(#p7a17b32626)" d="
M47.26 334.577
L230.578 334.675
L231.977 334.182
L233.377 334.675
L237.575 334.675
L238.974 334.182
L240.373 334.675
L244.572 334.675
L245.971 334.182
L247.37 334.675
L251.568 334.675
L252.968 334.182
L254.367 334.675
L258.565 334.675
L259.965 334.182
L261.364 334.675
L265.562 334.675
L266.962 334.182
L268.361 334.675
L272.559 334.675
L273.958 334.182
L275.358 334.675
L279.556 334.675
L280.955 334.182
L282.355 334.675
L286.553 334.675
L287.952 334.182
L289.352 334.675
L293.55 334.675
L294.949 334.182
L296.348 334.675
L300.547 334.675
L301.946 334.182
L303.345 334.675
L307.543 334.675
L308.943 334.182
L310.342 334.675
L314.54 334.675
L315.94 334.182
L317.339 334.675
L321.537 334.675
L322.936 334.182
L324.336 334.675
L328.534 334.675
L329.933 334.182
L331.333 334.675
L335.531 334.675
L336.93 334.182
L338.33 334.675
L342.528 334.675
L343.927 334.182
L345.326 334.675
L349.525 334.675
L350.924 334.182
L352.323 334.675
L356.521 334.675
L357.921 334.182
L359.32 334.675
L363.518 334.675
L364.918 334.182
L366.317 334.675
L370.515 334.675
L371.915 334.182
L373.314 334.675
L377.512 334.675
L378.911 334.182
L380.311 334.675
L384.509 334.675
L385.908 334.182
L387.308 334.675
L391.506 334.675
L392.905 334.182
L394.305 334.675
L398.503 334.675
L399.902 334.182
L401.301 334.675
L405.499 334.675
L406.899 334.182
L408.298 334.675
L412.496 334.675
L413.896 334.182
L415.295 334.675
L418.094 334.675
L419.493 320.851
L420.893 253.213
L422.292 334.675
L423.691 334.675
L425.091 334.182
L426.49 334.675
L430.688 334.675
L432.088 334.182
L433.487 334.675
L437.685 334.675
L439.084 334.182
L440.484 334.675
L444.682 334.675
L446.081 334.182
L447.481 334.675
L451.679 334.675
L453.078 334.182
L454.478 334.675
L458.676 334.675
L460.075 334.182
L461.474 334.675
L465.673 334.675
L467.072 334.182
L468.471 334.675
L472.669 334.675
L474.069 334.182
L475.468 334.675
L479.666 334.675
L481.066 334.182
L482.465 334.675
L486.663 334.675
L488.063 334.182
L489.462 334.675
L493.66 334.675
L493.66 334.675" style="fill:none;stroke:#00bfbf;stroke-linecap:square;"/>
   </g>
   <g id="line2d_12">
    <path clip-path="url(#p7a17b32626)" d="
M47.26 304.361
L48.6594 304.411
L50.0587 304.312
L52.8575 304.411
L54.2569 304.312
L58.455 304.361
L62.6531 304.361
L64.0525 304.855
L65.4518 304.016
L68.2506 304.361
L213.785 304.361
L215.185 304.559
L216.584 304.065
L217.984 304.559
L219.383 304.065
L220.782 304.559
L222.182 304.559
L223.581 304.065
L224.98 304.559
L226.38 304.065
L227.779 304.559
L229.178 304.559
L230.578 304.065
L231.977 304.559
L233.377 304.065
L234.776 304.559
L236.175 304.559
L237.575 304.065
L238.974 304.559
L240.373 304.065
L241.773 304.559
L243.172 304.559
L244.572 304.065
L245.971 304.559
L247.37 304.065
L248.77 304.559
L250.169 304.559
L251.568 304.065
L252.968 304.559
L254.367 304.065
L255.767 304.559
L257.166 304.559
L258.565 304.065
L259.965 304.559
L261.364 304.065
L262.763 304.559
L264.163 304.559
L265.562 304.065
L266.962 304.559
L268.361 304.065
L269.76 304.559
L271.16 304.559
L272.559 304.065
L273.958 304.559
L275.358 304.065
L276.757 304.559
L278.157 304.559
L279.556 304.065
L280.955 304.559
L282.355 304.065
L283.754 304.559
L285.153 304.559
L286.553 304.065
L287.952 304.559
L289.352 304.065
L290.751 304.559
L292.15 304.559
L293.55 304.065
L294.949 304.559
L296.348 304.065
L297.748 304.559
L299.147 304.559
L300.547 304.065
L301.946 304.559
L303.345 304.065
L304.745 304.559
L306.144 304.559
L307.543 304.065
L308.943 304.559
L310.342 304.065
L311.742 304.559
L313.141 304.559
L314.54 304.065
L315.94 304.559
L317.339 304.065
L318.738 304.559
L320.138 304.559
L321.537 304.065
L322.936 304.559
L324.336 304.065
L325.735 304.559
L327.135 304.559
L328.534 304.065
L329.933 304.559
L331.333 304.065
L332.732 304.559
L334.131 304.559
L335.531 304.065
L336.93 304.559
L338.33 304.065
L339.729 304.559
L341.128 304.559
L342.528 304.065
L343.927 304.559
L345.326 304.065
L346.726 304.559
L348.125 304.559
L349.525 304.065
L350.924 304.559
L352.323 304.065
L353.723 304.559
L355.122 304.559
L356.521 304.065
L357.921 304.559
L359.32 304.065
L360.72 304.559
L362.119 304.559
L363.518 304.065
L364.918 304.559
L366.317 304.065
L367.716 304.559
L369.116 304.559
L370.515 304.065
L371.915 304.559
L373.314 304.065
L374.713 304.559
L376.113 304.559
L377.512 304.065
L378.911 304.559
L380.311 304.065
L381.71 304.559
L383.11 304.559
L384.509 304.065
L385.908 304.559
L387.308 304.065
L388.707 304.559
L390.106 304.559
L391.506 304.065
L392.905 304.559
L394.305 304.065
L395.704 304.559
L397.103 304.559
L398.503 304.065
L399.902 304.559
L401.301 304.065
L402.701 304.559
L404.1 304.559
L405.499 304.065
L406.899 304.559
L408.298 304.065
L409.698 304.559
L411.097 304.559
L412.496 304.065
L413.896 304.559
L415.295 304.065
L416.694 304.559
L418.094 304.559
L419.493 287.279
L420.893 218.653
L422.292 304.559
L423.691 304.065
L425.091 304.559
L426.49 304.559
L427.889 304.065
L429.289 304.559
L430.688 304.065
L432.088 304.559
L433.487 304.559
L434.886 304.065
L436.286 304.559
L437.685 304.065
L439.084 304.559
L440.484 304.559
L441.883 304.065
L443.283 304.559
L444.682 304.065
L446.081 304.559
L447.481 304.559
L448.88 304.065
L450.279 304.559
L451.679 304.065
L453.078 304.559
L454.478 304.559
L455.877 304.065
L457.276 304.559
L458.676 304.065
L460.075 304.559
L461.474 304.559
L462.874 304.065
L464.273 304.559
L465.673 304.065
L467.072 304.559
L468.471 304.559
L469.871 304.065
L471.27 304.559
L472.669 304.065
L474.069 304.559
L475.468 304.559
L476.868 304.065
L478.267 304.559
L479.666 304.065
L481.066 304.559
L482.465 304.559
L483.864 304.065
L485.264 304.559
L486.663 304.065
L488.063 304.559
L489.462 304.559
L490.861 304.065
L492.261 304.559
L493.66 304.065
L493.66 304.065" style="fill:none;stroke:#bf00bf;stroke-linecap:square;"/>
   </g>
   <g id="line2d_13">
    <path clip-path="url(#p7a17b32626)" d="
M47.26 265.852
L48.6594 266
L50.0587 265.704
L51.4581 265.852
L52.8575 266.197
L54.2569 265.506
L55.6562 265.901
L57.0556 265.802
L61.2537 265.852
L62.6531 265.852
L64.0525 266.987
L65.4518 264.914
L66.8512 265.654
L68.2506 265.901
L69.65 265.802
L73.8481 265.852
L199.792 265.852
L201.191 266.049
L202.59 265.555
L203.99 266.049
L205.389 265.555
L206.789 266.049
L208.188 266.049
L209.587 265.555
L210.987 266.049
L212.386 265.555
L213.785 266.049
L215.185 266.049
L216.584 265.555
L217.984 266.049
L219.383 265.555
L220.782 266.049
L222.182 266.049
L223.581 265.555
L224.98 266.049
L226.38 265.555
L227.779 266.049
L229.178 266.049
L230.578 265.555
L231.977 266.049
L233.377 265.555
L234.776 266.049
L236.175 266.049
L237.575 265.555
L238.974 266.049
L240.373 265.555
L241.773 266.049
L243.172 266.049
L244.572 265.555
L245.971 266.049
L247.37 265.555
L248.77 266.049
L250.169 266.049
L251.568 265.555
L252.968 266.049
L254.367 265.555
L255.767 266.049
L257.166 266.049
L258.565 265.555
L259.965 266.049
L261.364 265.555
L262.763 266.049
L264.163 266.049
L265.562 265.555
L266.962 266.049
L268.361 265.555
L269.76 266.049
L271.16 266.049
L272.559 265.555
L273.958 266.049
L275.358 265.555
L276.757 266.049
L278.157 266.049
L279.556 265.555
L280.955 266.049
L282.355 265.555
L283.754 266.049
L285.153 266.049
L286.553 265.555
L287.952 266.049
L289.352 265.555
L290.751 266.049
L292.15 266.049
L293.55 265.555
L294.949 266.049
L296.348 265.555
L297.748 266.049
L299.147 266.049
L300.547 265.555
L301.946 266.049
L303.345 265.555
L304.745 266.049
L306.144 266.049
L307.543 265.555
L308.943 266.049
L310.342 265.555
L311.742 266.049
L313.141 266.049
L314.54 265.555
L315.94 266.049
L317.339 265.555
L318.738 266.049
L320.138 266.049
L321.537 265.555
L322.936 266.049
L324.336 265.555
L325.735 266.049
L327.135 266.049
L328.534 265.555
L329.933 266.049
L331.333 265.555
L332.732 266.049
L334.131 266.049
L335.531 265.555
L336.93 266.049
L338.33 265.555
L339.729 266.049
L341.128 266.049
L342.528 265.555
L343.927 266.049
L345.326 265.555
L346.726 266.049
L348.125 266.049
L349.525 265.555
L350.924 266.049
L352.323 265.555
L353.723 266.049
L355.122 266.049
L356.521 265.555
L357.921 266.049
L359.32 265.555
L360.72 266.049
L362.119 266.049
L363.518 265.555
L364.918 266.049
L366.317 265.555
L367.716 266.049
L369.116 266.049
L370.515 265.555
L371.915 266.049
L373.314 265.555
L374.713 266.049
L376.113 266.049
L377.512 265.555
L378.911 266.049
L380.311 265.555
L381.71 266.049
L383.11 266.049
L384.509 265.555
L385.908 266.049
L387.308 265.555
L388.707 266.049
L390.106 266.049
L391.506 265.555
L392.905 266.049
L394.305 265.555
L395.704 266.049
L397.103 266.049
L398.503 265.555
L399.902 266.049
L401.301 265.555
L402.701 266.049
L404.1 266.049
L405.499 265.555
L406.899 266.049
L408.298 265.555
L409.698 266.049
L411.097 266.049
L412.496 265.555
L413.896 266.049
L415.295 265.555
L416.694 266.049
L418.094 266.049
L419.493 247.782
L420.893 171.75
L422.292 265.555
L423.691 266.049
L425.091 265.555
L426.49 266.049
L427.889 266.049
L429.289 265.555
L430.688 266.049
L432.088 265.555
L433.487 266.049
L434.886 266.049
L436.286 265.555
L437.685 266.049
L439.084 265.555
L440.484 266.049
L441.883 266.049
L443.283 265.555
L444.682 266.049
L446.081 265.555
L447.481 266.049
L448.88 266.049
L450.279 265.555
L451.679 266.049
L453.078 265.555
L454.478 266.049
L455.877 266.049
L457.276 265.555
L458.676 266.049
L460.075 265.555
L461.474 266.049
L462.874 266.049
L464.273 265.555
L465.673 266.049
L467.072 265.555
L468.471 266.049
L469.871 266.049
L471.27 265.555
L472.669 266.049
L474.069 265.555
L475.468 266.049
L476.868 266.049
L478.267 265.555
L479.666 266.049
L481.066 265.555
L482.465 266.049
L483.864 266.049
L485.264 265.555
L486.663 266.049
L488.063 265.555
L489.462 266.049
L490.861 266.049
L492.261 265.555
L493.66 266.049
L493.66 266.049" style="fill:none;stroke:#bfbf00;stroke-linecap:square;"/>
   </g>
   <g id="line2d_14">
    <path clip-path="url(#p7a17b32626)" d="
M47.26 224.577
L48.6594 224.972
L50.0587 224.182
L51.4581 224.577
L52.8575 225.367
L54.2569 223.787
L55.6562 224.923
L57.0556 224.232
L58.455 224.577
L61.2537 224.577
L62.6531 224.923
L64.0525 226.453
L65.4518 222.849
L66.8512 224.676
L68.2506 224.33
L69.65 224.232
L71.0493 225.022
L72.4487 224.133
L73.8481 224.577
L402.701 224.577
L404.1 225.071
L405.499 224.083
L406.899 224.577
L418.094 224.577
L419.493 204.335
L420.893 122.378
L422.292 224.577
L493.66 224.577
L493.66 224.577" style="fill:none;stroke:#000000;stroke-linecap:square;"/>
   </g>
   <g id="line2d_15">
    <path clip-path="url(#p7a17b32626)" d="
M47.26 187.647
L48.6594 187.993
L50.0587 187.302
L51.4581 187.647
L52.8575 188.339
L54.2569 186.956
L55.6562 188.141
L57.0556 187.154
L58.455 187.647
L61.2537 187.647
L62.6531 187.993
L64.0525 190.215
L65.4518 185.129
L66.8512 187.845
L68.2506 187.45
L69.65 187.252
L71.0493 188.092
L72.4487 187.203
L73.8481 187.697
L75.2475 187.598
L79.4456 187.647
L181.6 187.549
L182.999 188.042
L184.399 187.549
L188.597 187.549
L189.996 188.042
L191.395 187.549
L195.594 187.549
L196.993 188.042
L198.392 187.549
L202.59 187.549
L203.99 188.042
L205.389 187.549
L209.587 187.549
L210.987 188.042
L212.386 187.549
L216.584 187.549
L217.984 188.042
L219.383 187.549
L223.581 187.549
L224.98 188.042
L226.38 187.549
L230.578 187.549
L231.977 188.042
L233.377 187.549
L237.575 187.549
L238.974 188.042
L240.373 187.549
L244.572 187.549
L245.971 188.042
L247.37 187.549
L251.568 187.549
L252.968 188.042
L254.367 187.549
L258.565 187.549
L259.965 188.042
L261.364 187.549
L265.562 187.549
L266.962 188.042
L268.361 187.549
L272.559 187.549
L273.958 188.042
L275.358 187.549
L279.556 187.549
L280.955 188.042
L282.355 187.549
L286.553 187.549
L287.952 188.042
L289.352 187.549
L293.55 187.549
L294.949 188.042
L296.348 187.549
L300.547 187.549
L301.946 188.042
L303.345 187.549
L307.543 187.549
L308.943 188.042
L310.342 187.549
L314.54 187.549
L315.94 188.042
L317.339 187.549
L321.537 187.549
L322.936 188.042
L324.336 187.549
L328.534 187.549
L329.933 188.042
L331.333 187.549
L335.531 187.549
L336.93 188.042
L338.33 187.549
L342.528 187.549
L343.927 188.042
L345.326 187.549
L349.525 187.549
L350.924 188.042
L352.323 187.549
L356.521 187.549
L357.921 188.042
L359.32 187.549
L363.518 187.549
L364.918 188.042
L366.317 187.549
L370.515 187.549
L371.915 188.042
L373.314 187.549
L377.512 187.549
L378.911 188.042
L380.311 187.549
L384.509 187.549
L385.908 188.042
L387.308 187.549
L391.506 187.549
L392.905 188.042
L394.305 187.549
L398.503 187.549
L399.902 188.042
L401.301 187.549
L402.701 187.549
L404.1 188.042
L405.499 187.055
L406.899 188.042
L408.298 187.549
L412.496 187.549
L413.896 188.042
L415.295 187.549
L418.094 187.549
L419.493 168.294
L420.893 75.4755
L422.292 187.549
L425.091 187.549
L426.49 188.042
L427.889 187.549
L432.088 187.549
L433.487 188.042
L434.886 187.549
L439.084 187.549
L440.484 188.042
L441.883 187.549
L446.081 187.549
L447.481 188.042
L448.88 187.549
L453.078 187.549
L454.478 188.042
L455.877 187.549
L460.075 187.549
L461.474 188.042
L462.874 187.549
L467.072 187.549
L468.471 188.042
L469.871 187.549
L474.069 187.549
L475.468 188.042
L476.868 187.549
L481.066 187.549
L482.465 188.042
L483.864 187.549
L488.063 187.549
L489.462 188.042
L490.861 187.549
L493.66 187.549
L493.66 187.549" style="fill:none;stroke:#0000ff;stroke-linecap:square;"/>
   </g>
   <g id="line2d_16">
    <path clip-path="url(#p7a17b32626)" d="
M47.26 161.184
L48.6594 161.48
L50.0587 160.888
L51.4581 161.184
L52.8575 161.727
L54.2569 160.641
L55.6562 161.629
L57.0556 160.74
L58.455 161.184
L61.2537 161.184
L62.6531 161.53
L64.0525 163.505
L65.4518 158.814
L66.8512 161.48
L68.2506 160.937
L69.65 160.839
L71.0493 161.678
L72.4487 160.691
L73.8481 161.184
L171.804 161.184
L173.204 161.382
L174.603 160.888
L176.002 161.382
L177.402 160.888
L178.801 161.382
L180.2 161.382
L181.6 160.888
L182.999 161.382
L184.399 160.888
L185.798 161.382
L187.197 161.382
L188.597 160.888
L189.996 161.382
L191.395 160.888
L192.795 161.382
L194.194 161.382
L195.594 160.888
L196.993 161.382
L198.392 160.888
L199.792 161.382
L201.191 161.382
L202.59 160.888
L203.99 161.382
L205.389 160.888
L206.789 161.382
L208.188 161.382
L209.587 160.888
L210.987 161.382
L212.386 160.888
L213.785 161.382
L215.185 161.382
L216.584 160.888
L217.984 161.382
L219.383 160.888
L220.782 161.382
L222.182 161.382
L223.581 160.888
L224.98 161.382
L226.38 160.888
L227.779 161.382
L229.178 161.382
L230.578 160.888
L231.977 161.382
L233.377 160.888
L234.776 161.382
L236.175 161.382
L237.575 160.888
L238.974 161.382
L240.373 160.888
L241.773 161.382
L243.172 161.382
L244.572 160.888
L245.971 161.382
L247.37 160.888
L248.77 161.382
L250.169 161.382
L251.568 160.888
L252.968 161.382
L254.367 160.888
L255.767 161.382
L257.166 161.382
L258.565 160.888
L259.965 161.382
L261.364 160.888
L262.763 161.382
L264.163 161.382
L265.562 160.888
L266.962 161.382
L268.361 160.888
L269.76 161.382
L271.16 161.382
L272.559 160.888
L273.958 161.382
L275.358 160.888
L276.757 161.382
L278.157 161.382
L279.556 160.888
L280.955 161.382
L282.355 160.888
L283.754 161.382
L285.153 161.382
L286.553 160.888
L287.952 161.382
L289.352 160.888
L290.751 161.382
L292.15 161.382
L293.55 160.888
L294.949 161.382
L296.348 160.888
L297.748 161.382
L299.147 161.382
L300.547 160.888
L301.946 161.382
L303.345 160.888
L304.745 161.382
L306.144 161.382
L307.543 160.888
L308.943 161.382
L310.342 160.888
L311.742 161.382
L313.141 161.382
L314.54 160.888
L315.94 161.382
L317.339 160.888
L318.738 161.382
L320.138 161.382
L321.537 160.888
L322.936 161.382
L324.336 160.888
L325.735 161.382
L327.135 161.382
L328.534 160.888
L329.933 161.382
L331.333 160.888
L332.732 161.382
L334.131 161.382
L335.531 160.888
L336.93 161.382
L338.33 160.888
L339.729 161.382
L341.128 161.382
L342.528 160.888
L343.927 161.382
L345.326 160.888
L346.726 161.382
L348.125 161.382
L349.525 160.888
L350.924 161.382
L352.323 160.888
L353.723 161.382
L355.122 161.382
L356.521 160.888
L357.921 161.382
L359.32 160.888
L360.72 161.382
L362.119 161.382
L363.518 160.888
L364.918 161.382
L366.317 160.888
L367.716 161.382
L369.116 161.382
L370.515 160.888
L371.915 161.382
L373.314 160.888
L374.713 161.382
L376.113 161.382
L377.512 160.888
L378.911 161.382
L380.311 160.888
L381.71 161.382
L383.11 161.382
L384.509 160.888
L385.908 161.382
L387.308 160.888
L388.707 161.382
L390.106 161.382
L391.506 160.888
L392.905 161.382
L394.305 160.888
L395.704 161.382
L397.103 161.382
L398.503 160.888
L399.902 161.382
L401.301 160.888
L402.701 161.382
L404.1 161.382
L405.499 160.888
L406.899 161.382
L408.298 160.888
L409.698 161.382
L411.097 161.382
L412.496 160.888
L413.896 161.382
L415.295 160.888
L416.694 161.382
L418.094 161.382
L419.493 143.608
L420.893 40.4217
L422.292 160.888
L423.691 161.382
L425.091 161.382
L426.49 160.888
L427.889 161.382
L429.289 160.888
L430.688 161.382
L432.088 161.382
L433.487 160.888
L434.886 161.382
L436.286 160.888
L437.685 161.382
L439.084 161.382
L440.484 160.888
L441.883 161.382
L443.283 160.888
L444.682 161.382
L446.081 161.382
L447.481 160.888
L448.88 161.382
L450.279 160.888
L451.679 161.382
L453.078 161.382
L454.478 160.888
L455.877 161.382
L457.276 160.888
L458.676 161.382
L460.075 161.382
L461.474 160.888
L462.874 161.382
L464.273 160.888
L465.673 161.382
L467.072 161.382
L468.471 160.888
L469.871 161.382
L471.27 160.888
L472.669 161.382
L474.069 161.382
L475.468 160.888
L476.868 161.382
L478.267 160.888
L479.666 161.382
L481.066 161.382
L482.465 160.888
L483.864 161.382
L485.264 160.888
L486.663 161.382
L488.063 161.382
L489.462 160.888
L490.861 161.382
L492.261 160.888
L493.66 161.382
L493.66 161.382" style="fill:none;stroke:#008000;stroke-linecap:square;"/>
   </g>
   <g id="patch_3">
    <path d="
M47.26 23.1417
L493.66 23.1417" style="fill:none;stroke:#000000;stroke-linecap:square;stroke-linejoin:miter;"/>
   </g>
   <g id="patch_4">
    <path d="
M493.66 368.742
L493.66 23.1417" style="fill:none;stroke:#000000;stroke-linecap:square;stroke-linejoin:miter;"/>
   </g>
   <g id="patch_5">
    <path d="
M47.26 368.742
L493.66 368.742" style="fill:none;stroke:#000000;stroke-linecap:square;stroke-linejoin:miter;"/>
   </g>
   <g id="patch_6">
    <path d="
M47.26 368.742
L47.26 23.1417" style="fill:none;stroke:#000000;stroke-linecap:square;stroke-linejoin:miter;"/>
   </g>
   <g id="matplotlib.axis_1">
    <g id="xtick_1">
     <g id="line2d_17">
      <defs>
       <path d="
M0 0
L0 -4" id="m93b0483c22" style="stroke:#000000;stroke-width:0.5;"/>
      </defs>
      <g>
       <use style="stroke:#000000;stroke-width:0.5;" x="47.26" xlink:href="#m93b0483c22" y="368.74175"/>
      </g>
     </g>
     <g id="line2d_18">
      <defs>
       <path d="
M0 0
L0 4" id="m741efc42ff" style="stroke:#000000;stroke-width:0.5;"/>
      </defs>
      <g>
       <use style="stroke:#000000;stroke-width:0.5;" x="47.26" xlink:href="#m741efc42ff" y="23.14175"/>
      </g>
     </g>
     <g id="text_1">
      <!-- 0 -->
      <defs>
       <path d="
M31.7812 66.4062
Q24.1719 66.4062 20.3281 58.9062
Q16.5 51.4219 16.5 36.375
Q16.5 21.3906 20.3281 13.8906
Q24.1719 6.39062 31.7812 6.39062
Q39.4531 6.39062 43.2812 13.8906
Q47.125 21.3906 47.125 36.375
Q47.125 51.4219 43.2812 58.9062
Q39.4531 66.4062 31.7812 66.4062
M31.7812 74.2188
Q44.0469 74.2188 50.5156 64.5156
Q56.9844 54.8281 56.9844 36.375
Q56.9844 17.9688 50.5156 8.26562
Q44.0469 -1.42188 31.7812 -1.42188
Q19.5312 -1.42188 13.0625 8.26562
Q6.59375 17.9688 6.59375 36.375
Q6.59375 54.8281 13.0625 64.5156
Q19.5312 74.2188 31.7812 74.2188" id="DejaVuSans-30"/>
      </defs>
      <g transform="translate(44.2365625 381.859875)scale(0.12 -0.12)">
       <use xlink:href="#DejaVuSans-30"/>
      </g>
     </g>
    </g>
    <g id="xtick_2">
     <g id="line2d_19">
      <g>
       <use style="stroke:#000000;stroke-width:0.5;" x="117.228652038" xlink:href="#m93b0483c22" y="368.74175"/>
      </g>
     </g>
     <g id="line2d_20">
      <g>
       <use style="stroke:#000000;stroke-width:0.5;" x="117.228652038" xlink:href="#m741efc42ff" y="23.14175"/>
      </g>
     </g>
     <g id="text_2">
      <!-- 50 -->
      <defs>
       <path d="
M10.7969 72.9062
L49.5156 72.9062
L49.5156 64.5938
L19.8281 64.5938
L19.8281 46.7344
Q21.9688 47.4688 24.1094 47.8281
Q26.2656 48.1875 28.4219 48.1875
Q40.625 48.1875 47.75 41.5
Q54.8906 34.8125 54.8906 23.3906
Q54.8906 11.625 47.5625 5.09375
Q40.2344 -1.42188 26.9062 -1.42188
Q22.3125 -1.42188 17.5469 -0.640625
Q12.7969 0.140625 7.71875 1.70312
L7.71875 11.625
Q12.1094 9.23438 16.7969 8.0625
Q21.4844 6.89062 26.7031 6.89062
Q35.1562 6.89062 40.0781 11.3281
Q45.0156 15.7656 45.0156 23.3906
Q45.0156 31 40.0781 35.4375
Q35.1562 39.8906 26.7031 39.8906
Q22.75 39.8906 18.8125 39.0156
Q14.8906 38.1406 10.7969 36.2812
z
" id="DejaVuSans-35"/>
      </defs>
      <g transform="translate(110.455214538 381.859875)scale(0.12 -0.12)">
       <use xlink:href="#DejaVuSans-35"/>
       <use x="63.623046875" xlink:href="#DejaVuSans-30"/>
      </g>
     </g>
    </g>
    <g id="xtick_3">
     <g id="line2d_21">
      <g>
       <use style="stroke:#000000;stroke-width:0.5;" x="187.197304075" xlink:href="#m93b0483c22" y="368.74175"/>
      </g>
     </g>
     <g id="line2d_22">
      <g>
       <use style="stroke:#000000;stroke-width:0.5;" x="187.197304075" xlink:href="#m741efc42ff" y="23.14175"/>
      </g>
     </g>
     <g id="text_3">
      <!-- 100 -->
      <defs>
       <path d="
M12.4062 8.29688
L28.5156 8.29688
L28.5156 63.9219
L10.9844 60.4062
L10.9844 69.3906
L28.4219 72.9062
L38.2812 72.9062
L38.2812 8.29688
L54.3906 8.29688
L54.3906 0
L12.4062 0
z
" id="DejaVuSans-31"/>
      </defs>
      <g transform="translate(176.802304075 381.859875)scale(0.12 -0.12)">
       <use xlink:href="#DejaVuSans-31"/>
       <use x="63.623046875" xlink:href="#DejaVuSans-30"/>
       <use x="127.24609375" xlink:href="#DejaVuSans-30"/>
      </g>
     </g>
    </g>
    <g id="xtick_4">
     <g id="line2d_23">
      <g>
       <use style="stroke:#000000;stroke-width:0.5;" x="257.165956113" xlink:href="#m93b0483c22" y="368.74175"/>
      </g>
     </g>
     <g id="line2d_24">
      <g>
       <use style="stroke:#000000;stroke-width:0.5;" x="257.165956113" xlink:href="#m741efc42ff" y="23.14175"/>
      </g>
     </g>
     <g id="text_4">
      <!-- 150 -->
      <g transform="translate(246.770956113 381.859875)scale(0.12 -0.12)">
       <use xlink:href="#DejaVuSans-31"/>
       <use x="63.623046875" xlink:href="#DejaVuSans-35"/>
       <use x="127.24609375" xlink:href="#DejaVuSans-30"/>
      </g>
     </g>
    </g>
    <g id="xtick_5">
     <g id="line2d_25">
      <g>
       <use style="stroke:#000000;stroke-width:0.5;" x="327.13460815" xlink:href="#m93b0483c22" y="368.74175"/>
      </g>
     </g>
     <g id="line2d_26">
      <g>
       <use style="stroke:#000000;stroke-width:0.5;" x="327.13460815" xlink:href="#m741efc42ff" y="23.14175"/>
      </g>
     </g>
     <g id="text_5">
      <!-- 200 -->
      <defs>
       <path d="
M19.1875 8.29688
L53.6094 8.29688
L53.6094 0
L7.32812 0
L7.32812 8.29688
Q12.9375 14.1094 22.625 23.8906
Q32.3281 33.6875 34.8125 36.5312
Q39.5469 41.8438 41.4219 45.5312
Q43.3125 49.2188 43.3125 52.7812
Q43.3125 58.5938 39.2344 62.25
Q35.1562 65.9219 28.6094 65.9219
Q23.9688 65.9219 18.8125 64.3125
Q13.6719 62.7031 7.8125 59.4219
L7.8125 69.3906
Q13.7656 71.7812 18.9375 73
Q24.125 74.2188 28.4219 74.2188
Q39.75 74.2188 46.4844 68.5469
Q53.2188 62.8906 53.2188 53.4219
Q53.2188 48.9219 51.5312 44.8906
Q49.8594 40.875 45.4062 35.4062
Q44.1875 33.9844 37.6406 27.2188
Q31.1094 20.4531 19.1875 8.29688" id="DejaVuSans-32"/>
      </defs>
      <g transform="translate(316.52023315 381.859875)scale(0.12 -0.12)">
       <use xlink:href="#DejaVuSans-32"/>
       <use x="63.623046875" xlink:href="#DejaVuSans-30"/>
       <use x="127.24609375" xlink:href="#DejaVuSans-30"/>
      </g>
     </g>
    </g>
    <g id="xtick_6">
     <g id="line2d_27">
      <g>
       <use style="stroke:#000000;stroke-width:0.5;" x="397.103260188" xlink:href="#m93b0483c22" y="368.74175"/>
      </g>
     </g>
     <g id="line2d_28">
      <g>
       <use style="stroke:#000000;stroke-width:0.5;" x="397.103260188" xlink:href="#m741efc42ff" y="23.14175"/>
      </g>
     </g>
     <g id="text_6">
      <!-- 250 -->
      <g transform="translate(386.488885188 381.859875)scale(0.12 -0.12)">
       <use xlink:href="#DejaVuSans-32"/>
       <use x="63.623046875" xlink:href="#DejaVuSans-35"/>
       <use x="127.24609375" xlink:href="#DejaVuSans-30"/>
      </g>
     </g>
    </g>
    <g id="xtick_7">
     <g id="line2d_29">
      <g>
       <use style="stroke:#000000;stroke-width:0.5;" x="467.071912226" xlink:href="#m93b0483c22" y="368.74175"/>
      </g>
     </g>
     <g id="line2d_30">
      <g>
       <use style="stroke:#000000;stroke-width:0.5;" x="467.071912226" xlink:href="#m741efc42ff" y="23.14175"/>
      </g>
     </g>
     <g id="text_7">
      <!-- 300 -->
      <defs>
       <path d="
M40.5781 39.3125
Q47.6562 37.7969 51.625 33
Q55.6094 28.2188 55.6094 21.1875
Q55.6094 10.4062 48.1875 4.48438
Q40.7656 -1.42188 27.0938 -1.42188
Q22.5156 -1.42188 17.6562 -0.515625
Q12.7969 0.390625 7.625 2.20312
L7.625 11.7188
Q11.7188 9.32812 16.5938 8.10938
Q21.4844 6.89062 26.8125 6.89062
Q36.0781 6.89062 40.9375 10.5469
Q45.7969 14.2031 45.7969 21.1875
Q45.7969 27.6406 41.2812 31.2656
Q36.7656 34.9062 28.7188 34.9062
L20.2188 34.9062
L20.2188 43.0156
L29.1094 43.0156
Q36.375 43.0156 40.2344 45.9219
Q44.0938 48.8281 44.0938 54.2969
Q44.0938 59.9062 40.1094 62.9062
Q36.1406 65.9219 28.7188 65.9219
Q24.6562 65.9219 20.0156 65.0312
Q15.375 64.1562 9.8125 62.3125
L9.8125 71.0938
Q15.4375 72.6562 20.3438 73.4375
Q25.25 74.2188 29.5938 74.2188
Q40.8281 74.2188 47.3594 69.1094
Q53.9062 64.0156 53.9062 55.3281
Q53.9062 49.2656 50.4375 45.0938
Q46.9688 40.9219 40.5781 39.3125" id="DejaVuSans-33"/>
      </defs>
      <g transform="translate(456.475349726 381.859875)scale(0.12 -0.12)">
       <use xlink:href="#DejaVuSans-33"/>
       <use x="63.623046875" xlink:href="#DejaVuSans-30"/>
       <use x="127.24609375" xlink:href="#DejaVuSans-30"/>
      </g>
     </g>
    </g>
    <g id="text_8">
     <!-- time -->
     <defs>
      <path d="
M18.3125 70.2188
L18.3125 54.6875
L36.8125 54.6875
L36.8125 47.7031
L18.3125 47.7031
L18.3125 18.0156
Q18.3125 11.3281 20.1406 9.42188
Q21.9688 7.51562 27.5938 7.51562
L36.8125 7.51562
L36.8125 0
L27.5938 0
Q17.1875 0 13.2344 3.875
Q9.28125 7.76562 9.28125 18.0156
L9.28125 47.7031
L2.6875 47.7031
L2.6875 54.6875
L9.28125 54.6875
L9.28125 70.2188
z
" id="DejaVuSans-74"/>
      <path d="
M52 44.1875
Q55.375 50.25 60.0625 53.125
Q64.75 56 71.0938 56
Q79.6406 56 84.2812 50.0156
Q88.9219 44.0469 88.9219 33.0156
L88.9219 0
L79.8906 0
L79.8906 32.7188
Q79.8906 40.5781 77.0938 44.375
Q74.3125 48.1875 68.6094 48.1875
Q61.625 48.1875 57.5625 43.5469
Q53.5156 38.9219 53.5156 30.9062
L53.5156 0
L44.4844 0
L44.4844 32.7188
Q44.4844 40.625 41.7031 44.4062
Q38.9219 48.1875 33.1094 48.1875
Q26.2188 48.1875 22.1562 43.5312
Q18.1094 38.875 18.1094 30.9062
L18.1094 0
L9.07812 0
L9.07812 54.6875
L18.1094 54.6875
L18.1094 46.1875
Q21.1875 51.2188 25.4844 53.6094
Q29.7812 56 35.6875 56
Q41.6562 56 45.8281 52.9688
Q50 49.9531 52 44.1875" id="DejaVuSans-6d"/>
      <path d="
M56.2031 29.5938
L56.2031 25.2031
L14.8906 25.2031
Q15.4844 15.9219 20.4844 11.0625
Q25.4844 6.20312 34.4219 6.20312
Q39.5938 6.20312 44.4531 7.46875
Q49.3125 8.73438 54.1094 11.2812
L54.1094 2.78125
Q49.2656 0.734375 44.1875 -0.34375
Q39.1094 -1.42188 33.8906 -1.42188
Q20.7969 -1.42188 13.1562 6.1875
Q5.51562 13.8125 5.51562 26.8125
Q5.51562 40.2344 12.7656 48.1094
Q20.0156 56 32.3281 56
Q43.3594 56 49.7812 48.8906
Q56.2031 41.7969 56.2031 29.5938
M47.2188 32.2344
Q47.125 39.5938 43.0938 43.9844
Q39.0625 48.3906 32.4219 48.3906
Q24.9062 48.3906 20.3906 44.1406
Q15.875 39.8906 15.1875 32.1719
z
" id="DejaVuSans-65"/>
      <path d="
M9.42188 54.6875
L18.4062 54.6875
L18.4062 0
L9.42188 0
z

M9.42188 75.9844
L18.4062 75.9844
L18.4062 64.5938
L9.42188 64.5938
z
" id="DejaVuSans-69"/>
     </defs>
     <g transform="translate(257.385625 398.473625)scale(0.12 -0.12)">
      <use xlink:href="#DejaVuSans-74"/>
      <use x="39.208984375" xlink:href="#DejaVuSans-69"/>
      <use x="66.9921875" xlink:href="#DejaVuSans-6d"/>
      <use x="164.404296875" xlink:href="#DejaVuSans-65"/>
     </g>
    </g>
   </g>
   <g id="matplotlib.axis_2">
    <g id="ytick_1">
     <g id="line2d_31">
      <defs>
       <path d="
M0 0
L4 0" id="m728421d6d4" style="stroke:#000000;stroke-width:0.5;"/>
      </defs>
      <g>
       <use style="stroke:#000000;stroke-width:0.5;" x="47.26" xlink:href="#m728421d6d4" y="368.74175"/>
      </g>
     </g>
     <g id="line2d_32">
      <defs>
       <path d="
M0 0
L-4 0" id="mcb0005524f" style="stroke:#000000;stroke-width:0.5;"/>
      </defs>
      <g>
       <use style="stroke:#000000;stroke-width:0.5;" x="493.66" xlink:href="#mcb0005524f" y="368.74175"/>
      </g>
     </g>
     <g id="text_9">
      <!-- 7000 -->
      <defs>
       <path d="
M8.20312 72.9062
L55.0781 72.9062
L55.0781 68.7031
L28.6094 0
L18.3125 0
L43.2188 64.5938
L8.20312 64.5938
z
" id="DejaVuSans-37"/>
      </defs>
      <g transform="translate(14.50125 372.053)scale(0.12 -0.12)">
       <use xlink:href="#DejaVuSans-37"/>
       <use x="63.623046875" xlink:href="#DejaVuSans-30"/>
       <use x="127.24609375" xlink:href="#DejaVuSans-30"/>
       <use x="190.869140625" xlink:href="#DejaVuSans-30"/>
      </g>
     </g>
    </g>
    <g id="ytick_2">
     <g id="line2d_33">
      <g>
       <use style="stroke:#000000;stroke-width:0.5;" x="47.26" xlink:href="#m728421d6d4" y="319.370321429"/>
      </g>
     </g>
     <g id="line2d_34">
      <g>
       <use style="stroke:#000000;stroke-width:0.5;" x="493.66" xlink:href="#mcb0005524f" y="319.370321429"/>
      </g>
     </g>
     <g id="text_10">
      <!-- 8000 -->
      <defs>
       <path d="
M31.7812 34.625
Q24.75 34.625 20.7188 30.8594
Q16.7031 27.0938 16.7031 20.5156
Q16.7031 13.9219 20.7188 10.1562
Q24.75 6.39062 31.7812 6.39062
Q38.8125 6.39062 42.8594 10.1719
Q46.9219 13.9688 46.9219 20.5156
Q46.9219 27.0938 42.8906 30.8594
Q38.875 34.625 31.7812 34.625
M21.9219 38.8125
Q15.5781 40.375 12.0312 44.7188
Q8.5 49.0781 8.5 55.3281
Q8.5 64.0625 14.7188 69.1406
Q20.9531 74.2188 31.7812 74.2188
Q42.6719 74.2188 48.875 69.1406
Q55.0781 64.0625 55.0781 55.3281
Q55.0781 49.0781 51.5312 44.7188
Q48 40.375 41.7031 38.8125
Q48.8281 37.1562 52.7969 32.3125
Q56.7812 27.4844 56.7812 20.5156
Q56.7812 9.90625 50.3125 4.23438
Q43.8438 -1.42188 31.7812 -1.42188
Q19.7344 -1.42188 13.25 4.23438
Q6.78125 9.90625 6.78125 20.5156
Q6.78125 27.4844 10.7812 32.3125
Q14.7969 37.1562 21.9219 38.8125
M18.3125 54.3906
Q18.3125 48.7344 21.8438 45.5625
Q25.3906 42.3906 31.7812 42.3906
Q38.1406 42.3906 41.7188 45.5625
Q45.3125 48.7344 45.3125 54.3906
Q45.3125 60.0625 41.7188 63.2344
Q38.1406 66.4062 31.7812 66.4062
Q25.3906 66.4062 21.8438 63.2344
Q18.3125 60.0625 18.3125 54.3906" id="DejaVuSans-38"/>
      </defs>
      <g transform="translate(14.330625 322.681571429)scale(0.12 -0.12)">
       <use xlink:href="#DejaVuSans-38"/>
       <use x="63.623046875" xlink:href="#DejaVuSans-30"/>
       <use x="127.24609375" xlink:href="#DejaVuSans-30"/>
       <use x="190.869140625" xlink:href="#DejaVuSans-30"/>
      </g>
     </g>
    </g>
    <g id="ytick_3">
     <g id="line2d_35">
      <g>
       <use style="stroke:#000000;stroke-width:0.5;" x="47.26" xlink:href="#m728421d6d4" y="269.998892857"/>
      </g>
     </g>
     <g id="line2d_36">
      <g>
       <use style="stroke:#000000;stroke-width:0.5;" x="493.66" xlink:href="#mcb0005524f" y="269.998892857"/>
      </g>
     </g>
     <g id="text_11">
      <!-- 9000 -->
      <defs>
       <path d="
M10.9844 1.51562
L10.9844 10.5
Q14.7031 8.73438 18.5 7.8125
Q22.3125 6.89062 25.9844 6.89062
Q35.75 6.89062 40.8906 13.4531
Q46.0469 20.0156 46.7812 33.4062
Q43.9531 29.2031 39.5938 26.9531
Q35.25 24.7031 29.9844 24.7031
Q19.0469 24.7031 12.6719 31.3125
Q6.29688 37.9375 6.29688 49.4219
Q6.29688 60.6406 12.9375 67.4219
Q19.5781 74.2188 30.6094 74.2188
Q43.2656 74.2188 49.9219 64.5156
Q56.5938 54.8281 56.5938 36.375
Q56.5938 19.1406 48.4062 8.85938
Q40.2344 -1.42188 26.4219 -1.42188
Q22.7031 -1.42188 18.8906 -0.6875
Q15.0938 0.046875 10.9844 1.51562
M30.6094 32.4219
Q37.25 32.4219 41.125 36.9531
Q45.0156 41.5 45.0156 49.4219
Q45.0156 57.2812 41.125 61.8438
Q37.25 66.4062 30.6094 66.4062
Q23.9688 66.4062 20.0938 61.8438
Q16.2188 57.2812 16.2188 49.4219
Q16.2188 41.5 20.0938 36.9531
Q23.9688 32.4219 30.6094 32.4219" id="DejaVuSans-39"/>
      </defs>
      <g transform="translate(14.2725 273.310142857)scale(0.12 -0.12)">
       <use xlink:href="#DejaVuSans-39"/>
       <use x="63.623046875" xlink:href="#DejaVuSans-30"/>
       <use x="127.24609375" xlink:href="#DejaVuSans-30"/>
       <use x="190.869140625" xlink:href="#DejaVuSans-30"/>
      </g>
     </g>
    </g>
    <g id="ytick_4">
     <g id="line2d_37">
      <g>
       <use style="stroke:#000000;stroke-width:0.5;" x="47.26" xlink:href="#m728421d6d4" y="220.627464286"/>
      </g>
     </g>
     <g id="line2d_38">
      <g>
       <use style="stroke:#000000;stroke-width:0.5;" x="493.66" xlink:href="#mcb0005524f" y="220.627464286"/>
      </g>
     </g>
     <g id="text_12">
      <!-- 10000 -->
      <g transform="translate(7.2 223.938714286)scale(0.12 -0.12)">
       <use xlink:href="#DejaVuSans-31"/>
       <use x="63.623046875" xlink:href="#DejaVuSans-30"/>
       <use x="127.24609375" xlink:href="#DejaVuSans-30"/>
       <use x="190.869140625" xlink:href="#DejaVuSans-30"/>
       <use x="254.4921875" xlink:href="#DejaVuSans-30"/>
      </g>
     </g>
    </g>
    <g id="ytick_5">
     <g id="line2d_39">
      <g>
       <use style="stroke:#000000;stroke-width:0.5;" x="47.26" xlink:href="#m728421d6d4" y="171.256035714"/>
      </g>
     </g>
     <g id="line2d_40">
      <g>
       <use style="stroke:#000000;stroke-width:0.5;" x="493.66" xlink:href="#mcb0005524f" y="171.256035714"/>
      </g>
     </g>
     <g id="text_13">
      <!-- 11000 -->
      <g transform="translate(7.2 174.567285714)scale(0.12 -0.12)">
       <use xlink:href="#DejaVuSans-31"/>
       <use x="63.623046875" xlink:href="#DejaVuSans-31"/>
       <use x="127.24609375" xlink:href="#DejaVuSans-30"/>
       <use x="190.869140625" xlink:href="#DejaVuSans-30"/>
       <use x="254.4921875" xlink:href="#DejaVuSans-30"/>
      </g>
     </g>
    </g>
    <g id="ytick_6">
     <g id="line2d_41">
      <g>
       <use style="stroke:#000000;stroke-width:0.5;" x="47.26" xlink:href="#m728421d6d4" y="121.884607143"/>
      </g>
     </g>
     <g id="line2d_42">
      <g>
       <use style="stroke:#000000;stroke-width:0.5;" x="493.66" xlink:href="#mcb0005524f" y="121.884607143"/>
      </g>
     </g>
     <g id="text_14">
      <!-- 12000 -->
      <g transform="translate(7.2 125.195857143)scale(0.12 -0.12)">
       <use xlink:href="#DejaVuSans-31"/>
       <use x="63.623046875" xlink:href="#DejaVuSans-32"/>
       <use x="127.24609375" xlink:href="#DejaVuSans-30"/>
       <use x="190.869140625" xlink:href="#DejaVuSans-30"/>
       <use x="254.4921875" xlink:href="#DejaVuSans-30"/>
      </g>
     </g>
    </g>
    <g id="ytick_7">
     <g id="line2d_43">
      <g>
       <use style="stroke:#000000;stroke-width:0.5;" x="47.26" xlink:href="#m728421d6d4" y="72.5131785714"/>
      </g>
     </g>
     <g id="line2d_44">
      <g>
       <use style="stroke:#000000;stroke-width:0.5;" x="493.66" xlink:href="#mcb0005524f" y="72.5131785714"/>
      </g>
     </g>
     <g id="text_15">
      <!-- 13000 -->
      <g transform="translate(7.2 75.8244285714)scale(0.12 -0.12)">
       <use xlink:href="#DejaVuSans-31"/>
       <use x="63.623046875" xlink:href="#DejaVuSans-33"/>
       <use x="127.24609375" xlink:href="#DejaVuSans-30"/>
       <use x="190.869140625" xlink:href="#DejaVuSans-30"/>
       <use x="254.4921875" xlink:href="#DejaVuSans-30"/>
      </g>
     </g>
    </g>
    <g id="ytick_8">
     <g id="line2d_45">
      <g>
       <use style="stroke:#000000;stroke-width:0.5;" x="47.26" xlink:href="#m728421d6d4" y="23.14175"/>
      </g>
     </g>
     <g id="line2d_46">
      <g>
       <use style="stroke:#000000;stroke-width:0.5;" x="493.66" xlink:href="#mcb0005524f" y="23.14175"/>
      </g>
     </g>
     <g id="text_16">
      <!-- 14000 -->
      <defs>
       <path d="
M37.7969 64.3125
L12.8906 25.3906
L37.7969 25.3906
z

M35.2031 72.9062
L47.6094 72.9062
L47.6094 25.3906
L58.0156 25.3906
L58.0156 17.1875
L47.6094 17.1875
L47.6094 0
L37.7969 0
L37.7969 17.1875
L4.89062 17.1875
L4.89062 26.7031
z
" id="DejaVuSans-34"/>
      </defs>
      <g transform="translate(7.2 26.453)scale(0.12 -0.12)">
       <use xlink:href="#DejaVuSans-31"/>
       <use x="63.623046875" xlink:href="#DejaVuSans-34"/>
       <use x="127.24609375" xlink:href="#DejaVuSans-30"/>
       <use x="190.869140625" xlink:href="#DejaVuSans-30"/>
       <use x="254.4921875" xlink:href="#DejaVuSans-30"/>
      </g>
     </g>
    </g>
   </g>
   <g id="text_17">
    <!-- /runtime/count/action_invocation@null_tree_action change -->
    <defs>
     <path d="
M2.98438 54.6875
L12.5 54.6875
L29.5938 8.79688
L46.6875 54.6875
L56.2031 54.6875
L35.6875 0
L23.4844 0
z
" id="DejaVuSans-76"/>
     <path d="
M25.3906 72.9062
L33.6875 72.9062
L8.29688 -9.28125
L0 -9.28125
z
" id="DejaVuSans-2f"/>
     <path d="
M30.6094 48.3906
Q23.3906 48.3906 19.1875 42.75
Q14.9844 37.1094 14.9844 27.2969
Q14.9844 17.4844 19.1562 11.8438
Q23.3438 6.20312 30.6094 6.20312
Q37.7969 6.20312 41.9844 11.8594
Q46.1875 17.5312 46.1875 27.2969
Q46.1875 37.0156 41.9844 42.7031
Q37.7969 48.3906 30.6094 48.3906
M30.6094 56
Q42.3281 56 49.0156 48.375
Q55.7188 40.7656 55.7188 27.2969
Q55.7188 13.875 49.0156 6.21875
Q42.3281 -1.42188 30.6094 -1.42188
Q18.8438 -1.42188 12.1719 6.21875
Q5.51562 13.875 5.51562 27.2969
Q5.51562 40.7656 12.1719 48.375
Q18.8438 56 30.6094 56" id="DejaVuSans-6f"/>
     <path d="
M54.8906 33.0156
L54.8906 0
L45.9062 0
L45.9062 32.7188
Q45.9062 40.4844 42.875 44.3281
Q39.8438 48.1875 33.7969 48.1875
Q26.5156 48.1875 22.3125 43.5469
Q18.1094 38.9219 18.1094 30.9062
L18.1094 0
L9.07812 0
L9.07812 54.6875
L18.1094 54.6875
L18.1094 46.1875
Q21.3438 51.125 25.7031 53.5625
Q30.0781 56 35.7969 56
Q45.2188 56 50.0469 50.1719
Q54.8906 44.3438 54.8906 33.0156" id="DejaVuSans-6e"/>
     <path d="
M50.9844 -16.6094
L50.9844 -23.5781
L-0.984375 -23.5781
L-0.984375 -16.6094
z
" id="DejaVuSans-5f"/>
     <path d="
M9.42188 75.9844
L18.4062 75.9844
L18.4062 0
L9.42188 0
z
" id="DejaVuSans-6c"/>
     <path id="DejaVuSans-20"/>
     <path d="
M37.2031 26.2188
Q37.2031 19.2344 40.6719 15.25
Q44.1406 11.2812 50.2031 11.2812
Q56.2031 11.2812 59.6406 15.2812
Q63.0938 19.2812 63.0938 26.2188
Q63.0938 33.0625 59.5781 37.0781
Q56.0625 41.1094 50.0938 41.1094
Q44.1875 41.1094 40.6875 37.1094
Q37.2031 33.1094 37.2031 26.2188
M63.8125 11.625
Q60.8906 7.85938 57.1094 6.07812
Q53.3281 4.29688 48.2969 4.29688
Q39.8906 4.29688 34.6406 10.375
Q29.3906 16.4531 29.3906 26.2188
Q29.3906 35.9844 34.6562 42.0781
Q39.9375 48.1875 48.2969 48.1875
Q53.3281 48.1875 57.125 46.3594
Q60.9375 44.5312 63.8125 40.8281
L63.8125 47.2188
L70.7969 47.2188
L70.7969 11.2812
Q77.9375 12.3594 81.9531 17.7969
Q85.9844 23.25 85.9844 31.8906
Q85.9844 37.1094 84.4375 41.7031
Q82.9062 46.2969 79.7812 50.2031
Q74.7031 56.5938 67.4062 59.9844
Q60.1094 63.375 51.5156 63.375
Q45.5156 63.375 39.9844 61.7812
Q34.4688 60.2031 29.7812 57.0781
Q22.125 52.0938 17.7969 44.0156
Q13.4844 35.9375 13.4844 26.5156
Q13.4844 18.75 16.2812 11.9531
Q19.0938 5.17188 24.4219 0
Q29.5469 -5.07812 36.2812 -7.73438
Q43.0156 -10.4062 50.6875 -10.4062
Q56.9844 -10.4062 63.0625 -8.28125
Q69.1406 -6.15625 74.2188 -2.20312
L78.6094 -7.625
Q72.5156 -12.3594 65.3125 -14.875
Q58.1094 -17.3906 50.6875 -17.3906
Q41.6562 -17.3906 33.6406 -14.1875
Q25.6406 -10.9844 19.3906 -4.89062
Q13.1406 1.21875 9.85938 9.25
Q6.59375 17.2812 6.59375 26.5156
Q6.59375 35.4062 9.90625 43.4531
Q13.2344 51.5156 19.3906 57.625
Q25.6875 63.8125 33.9375 67.1094
Q42.1875 70.4062 51.4219 70.4062
Q61.7656 70.4062 70.625 66.1562
Q79.5 61.9219 85.5 54.1094
Q89.1562 49.3125 91.0781 43.7031
Q93.0156 38.0938 93.0156 32.0781
Q93.0156 19.2344 85.25 11.8125
Q77.4844 4.39062 63.8125 4.10938
z
" id="DejaVuSans-40"/>
     <path d="
M54.8906 33.0156
L54.8906 0
L45.9062 0
L45.9062 32.7188
Q45.9062 40.4844 42.875 44.3281
Q39.8438 48.1875 33.7969 48.1875
Q26.5156 48.1875 22.3125 43.5469
Q18.1094 38.9219 18.1094 30.9062
L18.1094 0
L9.07812 0
L9.07812 75.9844
L18.1094 75.9844
L18.1094 46.1875
Q21.3438 51.125 25.7031 53.5625
Q30.0781 56 35.7969 56
Q45.2188 56 50.0469 50.1719
Q54.8906 44.3438 54.8906 33.0156" id="DejaVuSans-68"/>
     <path d="
M8.5 21.5781
L8.5 54.6875
L17.4844 54.6875
L17.4844 21.9219
Q17.4844 14.1562 20.5 10.2656
Q23.5312 6.39062 29.5938 6.39062
Q36.8594 6.39062 41.0781 11.0312
Q45.3125 15.6719 45.3125 23.6875
L45.3125 54.6875
L54.2969 54.6875
L54.2969 0
L45.3125 0
L45.3125 8.40625
Q42.0469 3.42188 37.7188 1
Q33.4062 -1.42188 27.6875 -1.42188
Q18.2656 -1.42188 13.375 4.4375
Q8.5 10.2969 8.5 21.5781
M31.1094 56
z
" id="DejaVuSans-75"/>
     <path d="
M45.4062 27.9844
Q45.4062 37.75 41.375 43.1094
Q37.3594 48.4844 30.0781 48.4844
Q22.8594 48.4844 18.8281 43.1094
Q14.7969 37.75 14.7969 27.9844
Q14.7969 18.2656 18.8281 12.8906
Q22.8594 7.51562 30.0781 7.51562
Q37.3594 7.51562 41.375 12.8906
Q45.4062 18.2656 45.4062 27.9844
M54.3906 6.78125
Q54.3906 -7.17188 48.1875 -13.9844
Q42 -20.7969 29.2031 -20.7969
Q24.4688 -20.7969 20.2656 -20.0938
Q16.0625 -19.3906 12.1094 -17.9219
L12.1094 -9.1875
Q16.0625 -11.3281 19.9219 -12.3438
Q23.7812 -13.375 27.7812 -13.375
Q36.625 -13.375 41.0156 -8.76562
Q45.4062 -4.15625 45.4062 5.17188
L45.4062 9.625
Q42.625 4.78125 38.2812 2.39062
Q33.9375 0 27.875 0
Q17.8281 0 11.6719 7.65625
Q5.51562 15.3281 5.51562 27.9844
Q5.51562 40.6719 11.6719 48.3281
Q17.8281 56 27.875 56
Q33.9375 56 38.2812 53.6094
Q42.625 51.2188 45.4062 46.3906
L45.4062 54.6875
L54.3906 54.6875
z
" id="DejaVuSans-67"/>
     <path d="
M34.2812 27.4844
Q23.3906 27.4844 19.1875 25
Q14.9844 22.5156 14.9844 16.5
Q14.9844 11.7188 18.1406 8.90625
Q21.2969 6.10938 26.7031 6.10938
Q34.1875 6.10938 38.7031 11.4062
Q43.2188 16.7031 43.2188 25.4844
L43.2188 27.4844
z

M52.2031 31.2031
L52.2031 0
L43.2188 0
L43.2188 8.29688
Q40.1406 3.32812 35.5469 0.953125
Q30.9531 -1.42188 24.3125 -1.42188
Q15.9219 -1.42188 10.9531 3.29688
Q6 8.01562 6 15.9219
Q6 25.1406 12.1719 29.8281
Q18.3594 34.5156 30.6094 34.5156
L43.2188 34.5156
L43.2188 35.4062
Q43.2188 41.6094 39.1406 45
Q35.0625 48.3906 27.6875 48.3906
Q23 48.3906 18.5469 47.2656
Q14.1094 46.1406 10.0156 43.8906
L10.0156 52.2031
Q14.9375 54.1094 19.5781 55.0469
Q24.2188 56 28.6094 56
Q40.4844 56 46.3438 49.8438
Q52.2031 43.7031 52.2031 31.2031" id="DejaVuSans-61"/>
     <path d="
M48.7812 52.5938
L48.7812 44.1875
Q44.9688 46.2969 41.1406 47.3438
Q37.3125 48.3906 33.4062 48.3906
Q24.6562 48.3906 19.8125 42.8438
Q14.9844 37.3125 14.9844 27.2969
Q14.9844 17.2812 19.8125 11.7344
Q24.6562 6.20312 33.4062 6.20312
Q37.3125 6.20312 41.1406 7.25
Q44.9688 8.29688 48.7812 10.4062
L48.7812 2.09375
Q45.0156 0.34375 40.9844 -0.53125
Q36.9688 -1.42188 32.4219 -1.42188
Q20.0625 -1.42188 12.7812 6.34375
Q5.51562 14.1094 5.51562 27.2969
Q5.51562 40.6719 12.8594 48.3281
Q20.2188 56 33.0156 56
Q37.1562 56 41.1094 55.1406
Q45.0625 54.2969 48.7812 52.5938" id="DejaVuSans-63"/>
     <path d="
M41.1094 46.2969
Q39.5938 47.1719 37.8125 47.5781
Q36.0312 48 33.8906 48
Q26.2656 48 22.1875 43.0469
Q18.1094 38.0938 18.1094 28.8125
L18.1094 0
L9.07812 0
L9.07812 54.6875
L18.1094 54.6875
L18.1094 46.1875
Q20.9531 51.1719 25.4844 53.5781
Q30.0312 56 36.5312 56
Q37.4531 56 38.5781 55.875
Q39.7031 55.7656 41.0625 55.5156
z
" id="DejaVuSans-72"/>
    </defs>
    <g transform="translate(58.790125 18.14175)scale(0.144 -0.144)">
     <use xlink:href="#DejaVuSans-2f"/>
     <use x="33.69140625" xlink:href="#DejaVuSans-72"/>
     <use x="74.8046875" xlink:href="#DejaVuSans-75"/>
     <use x="138.18359375" xlink:href="#DejaVuSans-6e"/>
     <use x="201.5625" xlink:href="#DejaVuSans-74"/>
     <use x="240.771484375" xlink:href="#DejaVuSans-69"/>
     <use x="268.5546875" xlink:href="#DejaVuSans-6d"/>
     <use x="365.966796875" xlink:href="#DejaVuSans-65"/>
     <use x="427.490234375" xlink:href="#DejaVuSans-2f"/>
     <use x="461.181640625" xlink:href="#DejaVuSans-63"/>
     <use x="516.162109375" xlink:href="#DejaVuSans-6f"/>
     <use x="577.34375" xlink:href="#DejaVuSans-75"/>
     <use x="640.72265625" xlink:href="#DejaVuSans-6e"/>
     <use x="704.1015625" xlink:href="#DejaVuSans-74"/>
     <use x="743.310546875" xlink:href="#DejaVuSans-2f"/>
     <use x="777.001953125" xlink:href="#DejaVuSans-61"/>
     <use x="838.28125" xlink:href="#DejaVuSans-63"/>
     <use x="893.26171875" xlink:href="#DejaVuSans-74"/>
     <use x="932.470703125" xlink:href="#DejaVuSans-69"/>
     <use x="960.25390625" xlink:href="#DejaVuSans-6f"/>
     <use x="1021.43554688" xlink:href="#DejaVuSans-6e"/>
     <use x="1084.81445312" xlink:href="#DejaVuSans-5f"/>
     <use x="1134.81445312" xlink:href="#DejaVuSans-69"/>
     <use x="1162.59765625" xlink:href="#DejaVuSans-6e"/>
     <use x="1225.9765625" xlink:href="#DejaVuSans-76"/>
     <use x="1285.15625" xlink:href="#DejaVuSans-6f"/>
     <use x="1346.33789062" xlink:href="#DejaVuSans-63"/>
     <use x="1401.31835938" xlink:href="#DejaVuSans-61"/>
     <use x="1462.59765625" xlink:href="#DejaVuSans-74"/>
     <use x="1501.80664062" xlink:href="#DejaVuSans-69"/>
     <use x="1529.58984375" xlink:href="#DejaVuSans-6f"/>
     <use x="1590.77148438" xlink:href="#DejaVuSans-6e"/>
     <use x="1654.15039062" xlink:href="#DejaVuSans-40"/>
     <use x="1754.15039062" xlink:href="#DejaVuSans-6e"/>
     <use x="1817.52929688" xlink:href="#DejaVuSans-75"/>
     <use x="1880.90820312" xlink:href="#DejaVuSans-6c"/>
     <use x="1908.69140625" xlink:href="#DejaVuSans-6c"/>
     <use x="1936.47460938" xlink:href="#DejaVuSans-5f"/>
     <use x="1986.47460938" xlink:href="#DejaVuSans-74"/>
     <use x="2025.68359375" xlink:href="#DejaVuSans-72"/>
     <use x="2064.546875" xlink:href="#DejaVuSans-65"/>
     <use x="2126.0703125" xlink:href="#DejaVuSans-65"/>
     <use x="2187.59375" xlink:href="#DejaVuSans-5f"/>
     <use x="2237.59375" xlink:href="#DejaVuSans-61"/>
     <use x="2298.87304688" xlink:href="#DejaVuSans-63"/>
     <use x="2353.85351562" xlink:href="#DejaVuSans-74"/>
     <use x="2393.0625" xlink:href="#DejaVuSans-69"/>
     <use x="2420.84570312" xlink:href="#DejaVuSans-6f"/>
     <use x="2482.02734375" xlink:href="#DejaVuSans-6e"/>
     <use x="2545.40625" xlink:href="#DejaVuSans-20"/>
     <use x="2577.19335938" xlink:href="#DejaVuSans-63"/>
     <use x="2632.17382812" xlink:href="#DejaVuSans-68"/>
     <use x="2695.55273438" xlink:href="#DejaVuSans-61"/>
     <use x="2756.83203125" xlink:href="#DejaVuSans-6e"/>
     <use x="2820.2109375" xlink:href="#DejaVuSans-67"/>
     <use x="2883.6875" xlink:href="#DejaVuSans-65"/>
    </g>
   </g>
   <g id="legend_1">
    <g id="patch_7">
     <path d="
M500.86 367.194
L632.649 367.194
L632.649 24.6897
L500.86 24.6897
z
" style="fill:#ffffff;stroke:#000000;stroke-linejoin:miter;"/>
    </g>
    <g id="line2d_47">
     <path d="
M510.94 36.3515
L531.1 36.3515" style="fill:none;stroke:#0000ff;stroke-linecap:square;"/>
    </g>
    <g id="line2d_48"/>
    <g id="text_18">
     <!-- locality#0 -->
     <defs>
      <path d="
M51.125 44
L36.9219 44
L32.8125 27.6875
L47.125 27.6875
z

M43.7969 71.7812
L38.7188 51.5156
L52.9844 51.5156
L58.1094 71.7812
L65.9219 71.7812
L60.8906 51.5156
L76.125 51.5156
L76.125 44
L58.9844 44
L54.9844 27.6875
L70.5156 27.6875
L70.5156 20.2188
L53.0781 20.2188
L48 0
L40.1875 0
L45.2188 20.2188
L30.9062 20.2188
L25.875 0
L18.0156 0
L23.0938 20.2188
L7.71875 20.2188
L7.71875 27.6875
L24.9062 27.6875
L29 44
L13.2812 44
L13.2812 51.5156
L30.9062 51.5156
L35.8906 71.7812
z
" id="DejaVuSans-23"/>
      <path d="
M32.1719 -5.07812
Q28.375 -14.8438 24.75 -17.8125
Q21.1406 -20.7969 15.0938 -20.7969
L7.90625 -20.7969
L7.90625 -13.2812
L13.1875 -13.2812
Q16.8906 -13.2812 18.9375 -11.5156
Q21 -9.76562 23.4844 -3.21875
L25.0938 0.875
L2.98438 54.6875
L12.5 54.6875
L29.5938 11.9219
L46.6875 54.6875
L56.2031 54.6875
z
" id="DejaVuSans-79"/>
     </defs>
     <g transform="translate(546.94 41.3915)scale(0.144 -0.144)">
      <use xlink:href="#DejaVuSans-6c"/>
      <use x="27.783203125" xlink:href="#DejaVuSans-6f"/>
      <use x="88.96484375" xlink:href="#DejaVuSans-63"/>
      <use x="143.9453125" xlink:href="#DejaVuSans-61"/>
      <use x="205.224609375" xlink:href="#DejaVuSans-6c"/>
      <use x="233.0078125" xlink:href="#DejaVuSans-69"/>
      <use x="260.791015625" xlink:href="#DejaVuSans-74"/>
      <use x="300.0" xlink:href="#DejaVuSans-79"/>
      <use x="359.1796875" xlink:href="#DejaVuSans-23"/>
      <use x="442.96875" xlink:href="#DejaVuSans-30"/>
     </g>
    </g>
    <g id="line2d_49">
     <path d="
M510.94 57.488
L531.1 57.488" style="fill:none;stroke:#008000;stroke-linecap:square;"/>
    </g>
    <g id="line2d_50"/>
    <g id="text_19">
     <!-- locality#1 -->
     <g transform="translate(546.94 62.528)scale(0.144 -0.144)">
      <use xlink:href="#DejaVuSans-6c"/>
      <use x="27.783203125" xlink:href="#DejaVuSans-6f"/>
      <use x="88.96484375" xlink:href="#DejaVuSans-63"/>
      <use x="143.9453125" xlink:href="#DejaVuSans-61"/>
      <use x="205.224609375" xlink:href="#DejaVuSans-6c"/>
      <use x="233.0078125" xlink:href="#DejaVuSans-69"/>
      <use x="260.791015625" xlink:href="#DejaVuSans-74"/>
      <use x="300.0" xlink:href="#DejaVuSans-79"/>
      <use x="359.1796875" xlink:href="#DejaVuSans-23"/>
      <use x="442.96875" xlink:href="#DejaVuSans-31"/>
     </g>
    </g>
    <g id="line2d_51">
     <path d="
M510.94 78.6245
L531.1 78.6245" style="fill:none;stroke:#ff0000;stroke-linecap:square;"/>
    </g>
    <g id="line2d_52"/>
    <g id="text_20">
     <!-- locality#10 -->
     <g transform="translate(546.94 83.6645)scale(0.144 -0.144)">
      <use xlink:href="#DejaVuSans-6c"/>
      <use x="27.783203125" xlink:href="#DejaVuSans-6f"/>
      <use x="88.96484375" xlink:href="#DejaVuSans-63"/>
      <use x="143.9453125" xlink:href="#DejaVuSans-61"/>
      <use x="205.224609375" xlink:href="#DejaVuSans-6c"/>
      <use x="233.0078125" xlink:href="#DejaVuSans-69"/>
      <use x="260.791015625" xlink:href="#DejaVuSans-74"/>
      <use x="300.0" xlink:href="#DejaVuSans-79"/>
      <use x="359.1796875" xlink:href="#DejaVuSans-23"/>
      <use x="442.96875" xlink:href="#DejaVuSans-31"/>
      <use x="506.591796875" xlink:href="#DejaVuSans-30"/>
     </g>
    </g>
    <g id="line2d_53">
     <path d="
M510.94 99.761
L531.1 99.761" style="fill:none;stroke:#00bfbf;stroke-linecap:square;"/>
    </g>
    <g id="line2d_54"/>
    <g id="text_21">
     <!-- locality#11 -->
     <g transform="translate(546.94 104.801)scale(0.144 -0.144)">
      <use xlink:href="#DejaVuSans-6c"/>
      <use x="27.783203125" xlink:href="#DejaVuSans-6f"/>
      <use x="88.96484375" xlink:href="#DejaVuSans-63"/>
      <use x="143.9453125" xlink:href="#DejaVuSans-61"/>
      <use x="205.224609375" xlink:href="#DejaVuSans-6c"/>
      <use x="233.0078125" xlink:href="#DejaVuSans-69"/>
      <use x="260.791015625" xlink:href="#DejaVuSans-74"/>
      <use x="300.0" xlink:href="#DejaVuSans-79"/>
      <use x="359.1796875" xlink:href="#DejaVuSans-23"/>
      <use x="442.96875" xlink:href="#DejaVuSans-31"/>
      <use x="506.591796875" xlink:href="#DejaVuSans-31"/>
     </g>
    </g>
    <g id="line2d_55">
     <path d="
M510.94 120.897
L531.1 120.897" style="fill:none;stroke:#bf00bf;stroke-linecap:square;"/>
    </g>
    <g id="line2d_56"/>
    <g id="text_22">
     <!-- locality#12 -->
     <g transform="translate(546.94 125.9375)scale(0.144 -0.144)">
      <use xlink:href="#DejaVuSans-6c"/>
      <use x="27.783203125" xlink:href="#DejaVuSans-6f"/>
      <use x="88.96484375" xlink:href="#DejaVuSans-63"/>
      <use x="143.9453125" xlink:href="#DejaVuSans-61"/>
      <use x="205.224609375" xlink:href="#DejaVuSans-6c"/>
      <use x="233.0078125" xlink:href="#DejaVuSans-69"/>
      <use x="260.791015625" xlink:href="#DejaVuSans-74"/>
      <use x="300.0" xlink:href="#DejaVuSans-79"/>
      <use x="359.1796875" xlink:href="#DejaVuSans-23"/>
      <use x="442.96875" xlink:href="#DejaVuSans-31"/>
      <use x="506.591796875" xlink:href="#DejaVuSans-32"/>
     </g>
    </g>
    <g id="line2d_57">
     <path d="
M510.94 142.034
L531.1 142.034" style="fill:none;stroke:#bfbf00;stroke-linecap:square;"/>
    </g>
    <g id="line2d_58"/>
    <g id="text_23">
     <!-- locality#13 -->
     <g transform="translate(546.94 147.074)scale(0.144 -0.144)">
      <use xlink:href="#DejaVuSans-6c"/>
      <use x="27.783203125" xlink:href="#DejaVuSans-6f"/>
      <use x="88.96484375" xlink:href="#DejaVuSans-63"/>
      <use x="143.9453125" xlink:href="#DejaVuSans-61"/>
      <use x="205.224609375" xlink:href="#DejaVuSans-6c"/>
      <use x="233.0078125" xlink:href="#DejaVuSans-69"/>
      <use x="260.791015625" xlink:href="#DejaVuSans-74"/>
      <use x="300.0" xlink:href="#DejaVuSans-79"/>
      <use x="359.1796875" xlink:href="#DejaVuSans-23"/>
      <use x="442.96875" xlink:href="#DejaVuSans-31"/>
      <use x="506.591796875" xlink:href="#DejaVuSans-33"/>
     </g>
    </g>
    <g id="line2d_59">
     <path d="
M510.94 163.17
L531.1 163.17" style="fill:none;stroke:#000000;stroke-linecap:square;"/>
    </g>
    <g id="line2d_60"/>
    <g id="text_24">
     <!-- locality#14 -->
     <g transform="translate(546.94 168.2105)scale(0.144 -0.144)">
      <use xlink:href="#DejaVuSans-6c"/>
      <use x="27.783203125" xlink:href="#DejaVuSans-6f"/>
      <use x="88.96484375" xlink:href="#DejaVuSans-63"/>
      <use x="143.9453125" xlink:href="#DejaVuSans-61"/>
      <use x="205.224609375" xlink:href="#DejaVuSans-6c"/>
      <use x="233.0078125" xlink:href="#DejaVuSans-69"/>
      <use x="260.791015625" xlink:href="#DejaVuSans-74"/>
      <use x="300.0" xlink:href="#DejaVuSans-79"/>
      <use x="359.1796875" xlink:href="#DejaVuSans-23"/>
      <use x="442.96875" xlink:href="#DejaVuSans-31"/>
      <use x="506.591796875" xlink:href="#DejaVuSans-34"/>
     </g>
    </g>
    <g id="line2d_61">
     <path d="
M510.94 184.307
L531.1 184.307" style="fill:none;stroke:#0000ff;stroke-linecap:square;"/>
    </g>
    <g id="line2d_62"/>
    <g id="text_25">
     <!-- locality#15 -->
     <g transform="translate(546.94 189.347)scale(0.144 -0.144)">
      <use xlink:href="#DejaVuSans-6c"/>
      <use x="27.783203125" xlink:href="#DejaVuSans-6f"/>
      <use x="88.96484375" xlink:href="#DejaVuSans-63"/>
      <use x="143.9453125" xlink:href="#DejaVuSans-61"/>
      <use x="205.224609375" xlink:href="#DejaVuSans-6c"/>
      <use x="233.0078125" xlink:href="#DejaVuSans-69"/>
      <use x="260.791015625" xlink:href="#DejaVuSans-74"/>
      <use x="300.0" xlink:href="#DejaVuSans-79"/>
      <use x="359.1796875" xlink:href="#DejaVuSans-23"/>
      <use x="442.96875" xlink:href="#DejaVuSans-31"/>
      <use x="506.591796875" xlink:href="#DejaVuSans-35"/>
     </g>
    </g>
    <g id="line2d_63">
     <path d="
M510.94 205.443
L531.1 205.443" style="fill:none;stroke:#008000;stroke-linecap:square;"/>
    </g>
    <g id="line2d_64"/>
    <g id="text_26">
     <!-- locality#2 -->
     <g transform="translate(546.94 210.4835)scale(0.144 -0.144)">
      <use xlink:href="#DejaVuSans-6c"/>
      <use x="27.783203125" xlink:href="#DejaVuSans-6f"/>
      <use x="88.96484375" xlink:href="#DejaVuSans-63"/>
      <use x="143.9453125" xlink:href="#DejaVuSans-61"/>
      <use x="205.224609375" xlink:href="#DejaVuSans-6c"/>
      <use x="233.0078125" xlink:href="#DejaVuSans-69"/>
      <use x="260.791015625" xlink:href="#DejaVuSans-74"/>
      <use x="300.0" xlink:href="#DejaVuSans-79"/>
      <use x="359.1796875" xlink:href="#DejaVuSans-23"/>
      <use x="442.96875" xlink:href="#DejaVuSans-32"/>
     </g>
    </g>
    <g id="line2d_65">
     <path d="
M510.94 226.58
L531.1 226.58" style="fill:none;stroke:#ff0000;stroke-linecap:square;"/>
    </g>
    <g id="line2d_66"/>
    <g id="text_27">
     <!-- locality#3 -->
     <g transform="translate(546.94 231.62)scale(0.144 -0.144)">
      <use xlink:href="#DejaVuSans-6c"/>
      <use x="27.783203125" xlink:href="#DejaVuSans-6f"/>
      <use x="88.96484375" xlink:href="#DejaVuSans-63"/>
      <use x="143.9453125" xlink:href="#DejaVuSans-61"/>
      <use x="205.224609375" xlink:href="#DejaVuSans-6c"/>
      <use x="233.0078125" xlink:href="#DejaVuSans-69"/>
      <use x="260.791015625" xlink:href="#DejaVuSans-74"/>
      <use x="300.0" xlink:href="#DejaVuSans-79"/>
      <use x="359.1796875" xlink:href="#DejaVuSans-23"/>
      <use x="442.96875" xlink:href="#DejaVuSans-33"/>
     </g>
    </g>
    <g id="line2d_67">
     <path d="
M510.94 247.716
L531.1 247.716" style="fill:none;stroke:#00bfbf;stroke-linecap:square;"/>
    </g>
    <g id="line2d_68"/>
    <g id="text_28">
     <!-- locality#4 -->
     <g transform="translate(546.94 252.7565)scale(0.144 -0.144)">
      <use xlink:href="#DejaVuSans-6c"/>
      <use x="27.783203125" xlink:href="#DejaVuSans-6f"/>
      <use x="88.96484375" xlink:href="#DejaVuSans-63"/>
      <use x="143.9453125" xlink:href="#DejaVuSans-61"/>
      <use x="205.224609375" xlink:href="#DejaVuSans-6c"/>
      <use x="233.0078125" xlink:href="#DejaVuSans-69"/>
      <use x="260.791015625" xlink:href="#DejaVuSans-74"/>
      <use x="300.0" xlink:href="#DejaVuSans-79"/>
      <use x="359.1796875" xlink:href="#DejaVuSans-23"/>
      <use x="442.96875" xlink:href="#DejaVuSans-34"/>
     </g>
    </g>
    <g id="line2d_69">
     <path d="
M510.94 268.853
L531.1 268.853" style="fill:none;stroke:#bf00bf;stroke-linecap:square;"/>
    </g>
    <g id="line2d_70"/>
    <g id="text_29">
     <!-- locality#5 -->
     <g transform="translate(546.94 273.893)scale(0.144 -0.144)">
      <use xlink:href="#DejaVuSans-6c"/>
      <use x="27.783203125" xlink:href="#DejaVuSans-6f"/>
      <use x="88.96484375" xlink:href="#DejaVuSans-63"/>
      <use x="143.9453125" xlink:href="#DejaVuSans-61"/>
      <use x="205.224609375" xlink:href="#DejaVuSans-6c"/>
      <use x="233.0078125" xlink:href="#DejaVuSans-69"/>
      <use x="260.791015625" xlink:href="#DejaVuSans-74"/>
      <use x="300.0" xlink:href="#DejaVuSans-79"/>
      <use x="359.1796875" xlink:href="#DejaVuSans-23"/>
      <use x="442.96875" xlink:href="#DejaVuSans-35"/>
     </g>
    </g>
    <g id="line2d_71">
     <path d="
M510.94 289.989
L531.1 289.989" style="fill:none;stroke:#bfbf00;stroke-linecap:square;"/>
    </g>
    <g id="line2d_72"/>
    <g id="text_30">
     <!-- locality#6 -->
     <defs>
      <path d="
M33.0156 40.375
Q26.375 40.375 22.4844 35.8281
Q18.6094 31.2969 18.6094 23.3906
Q18.6094 15.5312 22.4844 10.9531
Q26.375 6.39062 33.0156 6.39062
Q39.6562 6.39062 43.5312 10.9531
Q47.4062 15.5312 47.4062 23.3906
Q47.4062 31.2969 43.5312 35.8281
Q39.6562 40.375 33.0156 40.375
M52.5938 71.2969
L52.5938 62.3125
Q48.875 64.0625 45.0938 64.9844
Q41.3125 65.9219 37.5938 65.9219
Q27.8281 65.9219 22.6719 59.3281
Q17.5312 52.7344 16.7969 39.4062
Q19.6719 43.6562 24.0156 45.9219
Q28.375 48.1875 33.5938 48.1875
Q44.5781 48.1875 50.9531 41.5156
Q57.3281 34.8594 57.3281 23.3906
Q57.3281 12.1562 50.6875 5.35938
Q44.0469 -1.42188 33.0156 -1.42188
Q20.3594 -1.42188 13.6719 8.26562
Q6.98438 17.9688 6.98438 36.375
Q6.98438 53.6562 15.1875 63.9375
Q23.3906 74.2188 37.2031 74.2188
Q40.9219 74.2188 44.7031 73.4844
Q48.4844 72.75 52.5938 71.2969" id="DejaVuSans-36"/>
     </defs>
     <g transform="translate(546.94 295.0295)scale(0.144 -0.144)">
      <use xlink:href="#DejaVuSans-6c"/>
      <use x="27.783203125" xlink:href="#DejaVuSans-6f"/>
      <use x="88.96484375" xlink:href="#DejaVuSans-63"/>
      <use x="143.9453125" xlink:href="#DejaVuSans-61"/>
      <use x="205.224609375" xlink:href="#DejaVuSans-6c"/>
      <use x="233.0078125" xlink:href="#DejaVuSans-69"/>
      <use x="260.791015625" xlink:href="#DejaVuSans-74"/>
      <use x="300.0" xlink:href="#DejaVuSans-79"/>
      <use x="359.1796875" xlink:href="#DejaVuSans-23"/>
      <use x="442.96875" xlink:href="#DejaVuSans-36"/>
     </g>
    </g>
    <g id="line2d_73">
     <path d="
M510.94 311.126
L531.1 311.126" style="fill:none;stroke:#000000;stroke-linecap:square;"/>
    </g>
    <g id="line2d_74"/>
    <g id="text_31">
     <!-- locality#7 -->
     <g transform="translate(546.94 316.166)scale(0.144 -0.144)">
      <use xlink:href="#DejaVuSans-6c"/>
      <use x="27.783203125" xlink:href="#DejaVuSans-6f"/>
      <use x="88.96484375" xlink:href="#DejaVuSans-63"/>
      <use x="143.9453125" xlink:href="#DejaVuSans-61"/>
      <use x="205.224609375" xlink:href="#DejaVuSans-6c"/>
      <use x="233.0078125" xlink:href="#DejaVuSans-69"/>
      <use x="260.791015625" xlink:href="#DejaVuSans-74"/>
      <use x="300.0" xlink:href="#DejaVuSans-79"/>
      <use x="359.1796875" xlink:href="#DejaVuSans-23"/>
      <use x="442.96875" xlink:href="#DejaVuSans-37"/>
     </g>
    </g>
    <g id="line2d_75">
     <path d="
M510.94 332.262
L531.1 332.262" style="fill:none;stroke:#0000ff;stroke-linecap:square;"/>
    </g>
    <g id="line2d_76"/>
    <g id="text_32">
     <!-- locality#8 -->
     <g transform="translate(546.94 337.3025)scale(0.144 -0.144)">
      <use xlink:href="#DejaVuSans-6c"/>
      <use x="27.783203125" xlink:href="#DejaVuSans-6f"/>
      <use x="88.96484375" xlink:href="#DejaVuSans-63"/>
      <use x="143.9453125" xlink:href="#DejaVuSans-61"/>
      <use x="205.224609375" xlink:href="#DejaVuSans-6c"/>
      <use x="233.0078125" xlink:href="#DejaVuSans-69"/>
      <use x="260.791015625" xlink:href="#DejaVuSans-74"/>
      <use x="300.0" xlink:href="#DejaVuSans-79"/>
      <use x="359.1796875" xlink:href="#DejaVuSans-23"/>
      <use x="442.96875" xlink:href="#DejaVuSans-38"/>
     </g>
    </g>
    <g id="line2d_77">
     <path d="
M510.94 353.399
L531.1 353.399" style="fill:none;stroke:#008000;stroke-linecap:square;"/>
    </g>
    <g id="line2d_78"/>
    <g id="text_33">
     <!-- locality#9 -->
     <g transform="translate(546.94 358.439)scale(0.144 -0.144)">
      <use xlink:href="#DejaVuSans-6c"/>
      <use x="27.783203125" xlink:href="#DejaVuSans-6f"/>
      <use x="88.96484375" xlink:href="#DejaVuSans-63"/>
      <use x="143.9453125" xlink:href="#DejaVuSans-61"/>
      <use x="205.224609375" xlink:href="#DejaVuSans-6c"/>
      <use x="233.0078125" xlink:href="#DejaVuSans-69"/>
      <use x="260.791015625" xlink:href="#DejaVuSans-74"/>
      <use x="300.0" xlink:href="#DejaVuSans-79"/>
      <use x="359.1796875" xlink:href="#DejaVuSans-23"/>
      <use x="442.96875" xlink:href="#DejaVuSans-39"/>
     </g>
    </g>
   </g>
  </g>
 </g>
 <defs>
  <clipPath id="p7a17b32626">
   <rect height="345.6" width="446.4" x="47.26" y="23.14175"/>
  </clipPath>
 </defs>
</svg>
